<svg xmlns="http://www.w3.org/2000/svg" xmlns:xlink="http://www.w3.org/1999/xlink" width="846" height="510" viewBox="0 0 282 170" xmlns:cgf="https://coding.garden/flags"><metadata id="cgf-metadata">

<cgf:flag>
  <cgf:name></cgf:name>
  <cgf:route>ca/bc</cgf:route>
  <cgf:aspect-ratio>1.6588235294117648</cgf:aspect-ratio>
</cgf:flag>

</metadata><path fill="#002b7f" d="M0 0h282v72H0z"></path><g transform="translate(141 36)"><g id="a"><path fill="#fff" d="M-12-150h24v300h-24z" transform="rotate(75.677)"></path><path fill="#ce1126" d="M-9-150h9v300h9V0H-9z" transform="rotate(75.677)"></path></g><use xlink:href="#a" transform="rotate(-151.355)"></use></g><path d="M0 24h129V0h24v24h129v24H153v24h-24V48H0z" fill="#fff"></path><path d="M0 27h132V0h18v27h132v18H150v27h-18V45H0z" fill="#ce1126"></path><g transform="translate(141 43)" fill="#ffd600" stroke="#000" stroke-width=".25"><path d="M0-22 6.5-9.5 15-21l2 12.5L29-18 20 0a20 2 0 0 1-40 0l-9-18 12 9.5 2-12.5 8.5 11.5L0-22z"></path><path d="M20 0a20 2 0 0 0-40 0m40.5-1a20.5 2 0 0 0-41 0m43-4a22.5 3 0 0 0-45 0M23-6a23 3 0 0 0-46 0" fill="none"></path><rect x="-3" y="-7" height="3" width="6" rx=".5"></rect><path id="b" d="M8.51-5.245c-.11 1.91 4.84 2.155 5.04.37.198-1.765-4.93-2.278-5.04-.37zm10.6 1c-.385 1.01 2.532 2.921 3.31 1.255.78-1.67-2.94-2.225-3.31-1.255z"></path><use xlink:href="#b" transform="scale(-1 1)"></use></g><path fill="#fff" d="M0 72h282v98H0z"></path><g id="d" transform="translate(141 81)" fill="#002b7f"><path id="c" d="M0 0c10 0 18.1 5 28.2 5 10 0 18.1-5 28.2-5 10 0 18.1 5 28.2 5 10 0 18.1-5 28.2-5 10 0 18.1 5 28.2 5v14c-10 0-18.1-5-28.2-5-10 0-18.1 5-28.2 5-10 0-18.1-5-28.2-5-10 0-18.1 5-28.2 5-10 0-18.1-5-28.2-5z"></path><use xlink:href="#c" transform="scale(-1 1)"></use></g><use xlink:href="#d" transform="translate(0 28)"></use><use xlink:href="#d" transform="translate(0 56)"></use><g transform="translate(141 252)" fill="#ffd600" stroke="#000" stroke-width=".25"><path id="e" d="m0 0-5.86-111.84L0-175l5.86 63.16z"></path><g id="g"><use xlink:href="#e" transform="rotate(12)"></use><use xlink:href="#e" transform="rotate(24)"></use><use xlink:href="#e" transform="rotate(36)"></use><use xlink:href="#e" transform="rotate(48)"></use><path id="f" d="m0 0-5.86-111.84S-3-116-3-120s-2-6-2-11 5-9 5-13c0-6-5-8-5-14s5-8 5-17c0 22 9 22 9 31 0 7.5-7 10-7 18s3.86 14.16 3.86 14.16z" transform="rotate(6)"></path><use xlink:href="#f" transform="rotate(12)"></use><use xlink:href="#f" transform="rotate(24)"></use><use xlink:href="#f" transform="rotate(36)"></use><use xlink:href="#f" transform="rotate(48)"></use></g><use xlink:href="#g" transform="scale(-1 1)"></use><circle r="112"></circle></g></svg>