<svg xmlns="http://www.w3.org/2000/svg" width="1200" height="600" xmlns:cgf="https://coding.garden/flags"><metadata id="cgf-metadata">

<cgf:flag>
  <cgf:name></cgf:name>
  <cgf:route>ca/mb</cgf:route>
  <cgf:aspect-ratio>2</cgf:aspect-ratio>
</cgf:flag>

</metadata><clipPath id="a"><path d="M0 0v150h700v150H600zm0 300v100h300V0h300z"></path></clipPath><path fill="#00247d" d="M0 0h1200v600H0z"></path><path d="m0 0 600 300M0 300 600 0" stroke="#fff" stroke-width="60"></path><path d="m0 0 600 300M0 300 600 0" stroke="#cf142b" stroke-width="40" clip-path="url(#a)"></path><path d="M300 0v400M0 150h700" stroke="#fff" stroke-width="100"></path><path d="M300 0v400M0 150h700" stroke="#cf142b" stroke-width="60"></path><path d="M0 300h600V0h600v600H0z" fill="#cf142b"></path><path fill="#fff" d="M779.206 138.222H1019V239.81H779.206z"></path><path d="M900 138.222v101.666m119.001-50.833H779.208" stroke="#cf142b" stroke-width="34.375"></path><path fill="none" stroke="#fedd00" stroke-width="5.306" d="M779.206 138.222H1019V239.81H779.206z"></path><path d="m779.227 239.911 239.766-.045.045 67.62c-4.879 73.312-61.726 133.031-120.21 159.607-53.408-26.054-112.21-81.603-119.556-156.635l-.045-70.547z" fill="#016a28" stroke="#fedd00" stroke-width="5.315"></path><path d="M837.031 358.642c8.707-.4 42.648 8.03 69.5 12.28 15.837-.1 35.17 3.597 51.924 2.906 12.186-.218 23.854.686 35.196 3.958-27.532 42.46-50.4 63.512-94.824 86.573-64.343-37.771-80.965-64.419-97.684-92.973 11.702-4.508 17.17-11.842 35.888-12.744z" fill="#01289a"></path><path d="M907.24 381.003c.73-1.742 49.31 4.445 66.788 5.955 3.035.398-6.569 4.929-5.078 10.252-6.885-4.427-62.413-14.53-61.71-16.207zm-71.862 14.84c-2.365 6.367 56.044 26.921 81.432 33.589 5.43-7.995 22.029-11.748 29.768-14.525 1.898-3.666-9.664-12.328-14.918-14.176-2.738-.963-5.795 5.814-9.06 5.743-6.159-.136-8.705-5.129-18.822-5.584-.903-.042 12.089 5.74 12.812 7.304.452.978-8.027-1.557-9.678-.463-1.025.68 3.275 6.033 1.648 5.785-11.698-1.778-41.591-13.44-41.62-11.862.304 5.117 36.603 11.879 33.368 15.866-5.006 5.565-63.919-24.564-64.93-21.677zm55.46 35.932c-10.57-2.18-31.312-11.93-36.713-12.107-2.541-.085 10.989 7.626 12.888 11.326.574 1.117-4.011 1.9-5.467 1.171-2.45-1.224-4.166-4.686-6.249-7.03 0 0 0 3.905-.392 3.905-.39 0-7.028-1.561-11.715-3.515-13.41-10.024-28.53-32.999-36.714-45.304-1.06-4.359 22.31.766 26.558 3.515 15.931 1.418 32.276-.532 48.04 1.952 24.724 3.896 67.58 13.637 73.035 16.796 3.505 2.127-12.946-1.473-12.889-.002.074 1.913 10.64 10.464 13.67 10.546 1.788.048.321-6.631 2.343-7.81 2.665-1.555 13.094 2.502 11.717-.392-2.292-5.638-43.721-12.523-71.472-21.09-16.603-5.199-43.168-2.946-58.195-5.858-1.768-.343.092-5.735 1.953-5.859 11.81-.788 35.388.544 39.057 3.124 10-3.491 66.285 1.429 99.202 3.515 4.057.257 13.432.757 11.718 3.515-10.785 18.984-30.15 38.678-43.353 50.383-4.24 3.267-16.12-2.439-19.529-1.952-1.148.163 2.343 4.295 3.515 5.857 0 0-23.043-5.077-23.043-4.685 0 .39 14.843 7.81 14.843 7.81-2.866.26-8.296-1.427-9.766-.39-.744.525 2.474 3.385 1.954 3.905-.652.652-6.09-1.013-5.468-.39 1.591 1.59 13.426 4.7 12.108 7.03-2.587 4.571-19.4 12.238-23.435 14.06-3.084-1.275-35.932-20.7-35.54-20.7 10.936-.781 30.463-.781 30.463-.781 2.734-2.344 8.612-4.654 8.202-7.03-.567-3.287-8.493-9.142-11.13-9.96-1.139-.353 1.537 6.804-.197 6.446z" fill="#536383" fill-rule="evenodd"></path><path d="M979.904 316.939c.175 1.114.148-13.193 2.124-19.12 1.707-5.12 9.17-12.446 8.922-14.02-.177-1.117-9.082 2.605-10.197 5.948-2.567 7.703-1.099 25.615-.85 27.192z" fill="#4a0f00"></path><path d="M946.339 339.03c-.008.413 17.845 19.12 17.845 19.12 2.266 4.673 4.703 8.661 6.392 12.842.679.204 8.053.328 8.053-.097 0-.425-11.896-21.244-11.896-21.244-.992-13.88 1-29.07-2.974-41.636-2.117-6.695-16.18-18.956-18.04-15.645-3.948 7.027.895 31.353.62 46.66z" fill="#febb30" stroke="#4a0f00" stroke-width="1.063"></path><path d="M818.477 314.898c-.01 8.522 4.615 9.64 6.747 11.815 4.377 4.465 10.078 6.728 13.279 12.107 4.51 8.04 10.128 5.47 11.327 9.766 1.748-2.316 1.463-6.19-4.687-11.327 4.879-.28 11.179 6.458 10.936 9.763 3.578-2.945.582-11.935 0-16.794-.21-1.611 3.1 4.002 7.03 3.907.883 8.91 7.757 13.64 15.62 15.23 4.01 6.439 14.36 13.617 17.187 10.936.976-.656-7.171-2.712-5.694-4.857 1.888-1.789 4.443 2.074 8.712.093-4.831-3.022-4.29-5.716-4.19-9.295 1.707 2.56 7.256 2.68 8.202 1.952-2.833-.774-3.952-3.252-3.125-5.858 8.202-.737 11.99-5.365 16.794-11.326 2.784.397 27.269 4.582 28.69 6.74.777 2.08 12.476 9.245 13.67 9.94-.445-1.378-2.46-4.591-1.862-5.057.573-.446 2.34 2.13 4.78 4.113-1.566-4.265-2.269-10.416-1.463-10.66.585 1.859 4.013 5.255 5.752 8.409-.002-6.456.712-25.453-1.833-31.927-1.117-3.602-42.134-25.234-64.138-36.236-8.98-4.49-17.224-8.825-26.558-9.376-7.186-.033-14.667 2.977-20.7 6.25a227.993 227.993 0 0 0-26.948 17.185c-3.089 2.289-7.225 5.047-8.21 8.492-1.359 4.757-1.894 11.167.682 16.014z" fill="#4a0f00"></path><path d="M831.07 335.625c-1.884-1.935 5.845-5.059 9.977-13.219 6.634 7.886-6.805 16.096-9.977 13.219z" fill="#dc6207" stroke="#000" stroke-width=".531"></path><path d="M822.705 316.089s.85 10.196 4.673 11.895c0 3.824 0 5.099.425 5.099 8.072.424 13.172-9.347 13.172-9.347 3.399 8.355-7.977 10.839-7.647 12.32 8.31 6.59 6.23-3.116 9.346-4.673 10.197.85 3.602-8.82 5.024-8.321 3.17-.25 9.39-4.802 6.447-14.197-2.549-3.093-11.896 4.675-13.17 8.073 2.088-4.34-3.824-8.073-2.55-8.073 2.975 1.274-3.823-.423-5.097.851l-10.623 6.373z" fill="#febb30" stroke="#4a0f00" stroke-width="1.063"></path><path d="M851.098 273.72c-.818.05-12.531 7.903-14.314 8.946-3.77 1.805-18.688 8.548-20.875 12.525-2.809 4.68-3.612 12.424-1.589 16.3 2.611 4.441 8.618 2.305 10.735 4.175 4.208 3.915 7.94-2.701 8.548-5.565-.19-4.717-2.874-13.427-4.374-18.687 2.958 1.019 7.34 3.872 10.537 2.981.913-.089-1.518-4.238-.596-3.976 3.98 1.13 11.058 7.201 15.307 8.15 2.157.26-.578-4.419.2-3.976 2.934 1.677 8.002 6.393 10.933 10.339-6.708 1.023 5.206 8.4 4.572 10.536-.428 1.443-5.917-6.07-7.753.198-3.166 6.576 4.713 10.788 4.175 12.525-.324 1.046-6.562-6.708-6.76-4.174 0 7.065 14.691 23.331 25.646 22.264 1.939-.085-2.759-8.564-1.392-8.946 1.947-.544 11.146 16.082 12.524 6.164.935-3.665-4.646-11.782-4.373-16.899 1.45-.449 18.236 6.682 22.066-8.15-.782 8.736 4.047 18.749 9.541 21.073-.06 5.958 5.268 8.846 4.972 13.32-.235 3.543-4.888 6.437-6.363 9.939-.645 1.534.611 3.64 0 5.169-.978 2.446-5.85 3.99-5.963 6.758-.05 1.161 6.546 2.947 8.151 2.186 2.044-1.093-.803-3.117.198-3.976 2.422-2.218 12.14-11.24 14.91-16.3 1.076-1.964-2.527-3.341-2.385-7.157.243-6.24 13.054-11.14 15.506-23.26.972-4.648 1.528-10.13.4-14.71-1.324-5.361-8.147-15.335-7.755-15.109 8.279 4.601 8.583 36.41 22.265 35.784 12.25-.57 12.478-16.483 11.73-25.645-.963-12.987 2.717-8.019 1.988-15.904 0 0-11.531 2.386-11.332 11.728.121 5.566 3.579 8.35 3.976 13.718-.592 7.998-4.411 10.506-6.362 9.74-2.952-1.156-5.56-10.339-8.35-15.505-3.042-5.637-4.526-13.098-9.144-16.899-5.124-4.216-12.981-7.323-20.08-7.156-9.13.808-15.011-1.39-22.861-6.362-2.005-1.25-7.014-2.09-6.958-1.39.077.956 8.698 6.6 7.356 6.36-3.098-.555-14.356-7.28-20.676-8.746-1.102-.256-.787 3.78-1.589 3.578-1.583-.396-3.711-3.578-5.566-5.367 0 0-.995 8.548-.995 8.15 0-.397-5.566-7.952-5.566-7.952-.728 1.922-.92 5.457-2.187 5.765-1.45.354-4.52-4.4-5.963-3.777-1.107.591 2.311 5.65 1.193 5.367-3.771-1.3-12.923-8.309-15.308-8.15z" fill="#febb30" stroke="#3a1400" stroke-width="1.063"></path><path d="M878.332 349.663c-.607 6.708.862 11.454-1.988 14.51-.91 1.05 1.263 3.277.2 4.177-1.846 1.395-6.043 5.323 1.39 5.167 7.08-.152 6.04-4.142 5.368-6.162-.977-3.13 1.26-8.95.2-12.723-.598-2.126-5.049-6.271-5.17-4.97z" fill="#febb30" fill-rule="evenodd" stroke="#4a0f00" stroke-width="1.063"></path><path d="M890.658 359.801c1.171 2.058.663 5.036.993 7.554 0 0-.993.795-.993 1.193 0 .397.796.397 1.194 2.783.261 2.892-3.186 5.178-6.96 4.374-1.392-.225-4.175.776-4.175-.795 0-3.38 4.099-5.582 3.976-7.555-.172-2.509-2.186-2.186-2.186-4.57 0-2.943.323-7.805 1.788-8.351 1.384-.514 5.083 3.119 6.362 5.367z" fill="#febb30" fill-rule="evenodd" stroke="#4a0f00" stroke-width="1.063"></path><path d="M872.838 285.074c1.276 1.274 16.145 24.216 16.145 24.216l-3.823-1.275c2.406 3.541 4.815 7.082 7.222 10.623-2.407.85-9.064-8.498-13.595-12.747.99 6.09-8.214-6.515-12.322-9.771 2.691.85 5.38 1.7 8.072 2.549l-9.347-8.922c3.258 1.132 6.515 2.266 9.773 3.399l-2.125-8.072zm41.637 23.366c-1.275-11.046 5.95-16.144 8.498-16.569.841-.12 3.824 5.098 3.824 5.098-8.781-.85-11.654 17.042-12.322 11.471zm-90.496-16.569c-5.422 4.57-8.357 10.906-6.798 18.695 0 0 4.249-.85 4.674-.85.424 0 5.098 3.824 5.098 3.824s1.605-8.763 1.274-8.499c-2.124 2.125-11.72-2.163-4.248-13.17z" fill="#4a0f00"></path><path d="M846.923 280.4c7.364 1.842 10.054 4.531 13.17 8.072" fill="none" stroke="#480f00" stroke-width="1.86"></path><path d="M850.746 276.151c5.806 1.982 9.489 4.816 13.17 8.922" fill="none" stroke="#4a0f00" stroke-width="1.86"></path><path d="M941.241 316.089c.425 5.452-7.302 20.83-8.974 24.057-.684 1.142-1.434-.833-2.497-4.514" fill="none" stroke="#4a0f00" stroke-width="2"></path><path d="M947.614 320.337c-4.249 7.365-5.098 13.029-11.471 16.994" fill="none" stroke="#4a0f00" stroke-width="1.86"></path><path d="M933.169 351.776v.425" fill="none" stroke="#000" stroke-width="2"></path><path d="M925.097 367.921c0-5.24 8.922-6.232 7.648-15.72" fill="none" stroke="#4a0f00" stroke-width="1.86"></path><path d="M875.814 280.825c-1.898 5.93 13.593 31.44 21.667 35.264 1.941.863-1.269-10.129 1.274-10.198 3.003-.098 5.948 9.771 8.497 6.797 2.584-2.583 5.098-7.647 5.948-8.497.85-.85 3.399-11.046 3.399-11.046s-8.497-.424-8.922-.424c-.425 0-9.771-8.922-9.771-8.922.567 2.691 2.71 7.41 1.7 8.072-3.9 2.274-9.402-9.257-11.897-9.347-1.47-.053 1.423 9.125 0 8.922-2.543-.363-11.303-13.007-11.895-10.621zm44.185 19.968c-5.364 7.24.657 24.576 4.673 28.04 4.04 4.28-5.1-20.69-1.274-18.268 5.515 3.337 4.159 5.851 7.222 9.347 5.23 6.93 11.437-.42 10.621-11.048-.413-5.152-16.533-11.218-16.144-11.045 4.248 1.699-2.173-.401-5.098 2.973z" fill="#fee5a3"></path><path d="M838.001 308.44c1.175-2.546 2.793-14.619-9.773-17.419 8.317 13.28 2.15 12.495 4.675 16.994.733 1.306 4.574 1.56 5.098.425z" fill="#feffff" stroke="#4a0f00" stroke-width="1.063"></path><path d="M826.529 318.212v-.424" fill="none" stroke="#000" stroke-width="2"></path><path d="M838.425 316.089c-2.55 5.098-7.224 4.248-12.747 2.549" fill="none" stroke="#4a0f00" stroke-width="1.063"></path><path d="M826.104 319.913h.425" fill="none" stroke="#000" stroke-width="2"></path><path d="M828.227 327.985c-.85-1.203 3.824-1.132 2.974-2.336-2.549-1.205-2.124-4.957-6.372-6.586" fill="none" stroke="#4a0f00" stroke-width="1.063"></path><path d="m970.947 371.317 7.258.003s.424 7.647 0 7.647-11.046-.425-11.046-.425 3.364-7.225 3.789-7.225z"></path><path d="M947.815 307.43c7.954 5.656 5.316 25.911-9.192 35.53-2.06 1.542-1.942 10.6-2.828 10.252-1.18-.393-2.095-6.616.53-13.787 6.915-6.613 15.483-15.366 11.49-31.995z" fill="#fee5a3"></path><path d="M843.791 318.166c-.443-1.25 5.026-7.355 6.984-6.484 2.754 1.336.772 5.681-.5 6.734-1.138.942-5.924 2.036-6.484-.25z" fill="#490f00"></path></svg>