<svg version="1" xmlns="http://www.w3.org/2000/svg" xmlns:xlink="http://www.w3.org/1999/xlink" width="600" height="400"><path fill="#fff" d="M0 0h600v400H0z"/><g id="a"><path fill="#002495" d="M0 0h250v150H0z"/><path d="M149.498 93.07c1.607-2.39 1.47-7.622-1.743-9.469-2.458-1.229-5.234-.748-6.53.31-2.089 1.263-4.1 5.302-4.1 9.392l7.21-.009-.002 8.051-14.964-.008c.196 4.141 2.454 7.458 6.656 9.305-.54 1.745-3.075 5.302-6.555 5.061-.687 3.764-1.34 5.877-4.469 9.297-3.13-3.419-3.784-5.533-4.47-9.297-3.48.241-6.014-3.316-6.555-5.06 4.201-1.848 6.46-5.165 6.655-9.306l-14.964.008v-8.05l7.208.008c0-4.09-2.008-8.129-4.098-9.392-1.297-1.057-4.072-1.538-6.53-.31-3.214 1.847-3.352 7.08-1.745 9.47-15.182-2.82-13.676-17.482-8.504-22.804 4.18-4.3 8.737-4.972 12.25-3.616 7.987 2.863 13.357 12.402 13.618 26.652h4.176c0-12.954-2.254-17.084-8.126-33.353-2.958-7.69-1.181-17.195 4.106-25.948 1.894-3.137 4.26-5.969 6.98-9.002 2.716 3.033 5.082 5.865 6.976 9.002 5.288 8.753 7.065 18.259 4.11 25.948-5.877 16.27-8.13 20.398-8.13 33.353h4.175c.261-14.25 5.634-23.79 13.618-26.652 3.514-1.355 8.074-.684 12.252 3.616 5.171 5.322 6.677 19.984-8.505 22.803z" fill="#fff"/></g><use xlink:href="#a" x="350"/><use xlink:href="#a" y="250"/><use xlink:href="#a" x="350" y="250"/></svg>