<svg xmlns="http://www.w3.org/2000/svg" width="900" height="600" version="1"><path fill="#fff" d="M0 0h900v600H0z"/><path d="M154.306 597.586c3.538-3.236 742.347-444.808 744.224-444.808.809 0 1.47 100.625 1.47 223.611V600H525.835c-212.021 0-373.023-1.046-371.528-2.414zM0 225.32V0h374.167C583.171 0 747.17 1.054 745.695 2.389c-1.451 1.313-167.014 100.903-367.917 221.31C176.875 344.106 9.688 444.425 6.25 446.63L0 450.64V225.32z" fill="#6cf"/><path d="M417.598 241.46h61.42v113.665h-61.42z"/><path d="m417.598 241.386 30.71-30.71 30.71 30.71-30.71 30.71zm0 113.844 30.71-30.71 30.71 30.71-30.71 30.71z"/><path d="M391.46 329.019v-61.42h113.666v61.42z"/><path d="m391.386 329.019-30.71-30.71 30.71-30.71 30.71 30.71zm113.844 0-30.71-30.71 30.71-30.71 30.71 30.71z"/><path d="M437.22 328.8h-5.544v24.948h-8.316v-30.492h-30.492v-8.316h24.948v-5.544H381.78v-8.316h33.264v-5.544H381.78v-8.316h36.036v-5.544h-24.948v-8.316h30.492v-30.492h8.316v24.948h5.544V231.78h8.316v33.264h5.544V231.78h8.316v36.036h5.544v-24.948h8.316v30.492h30.492v8.316H478.8v5.544h36.036v8.316h-33.264v5.544h33.264v8.316H478.8v5.544h24.948v8.316h-30.492v30.492h-8.316V328.8h-5.544v36.036h-8.316v-33.264h-5.544v33.264h-8.316V328.8z" fill="#fc3"/><path d="M473.834 298.308a25.525 25.525 0 1 1-51.05 0 25.525 25.525 0 1 1 51.05 0z"/></svg>