<svg xmlns="http://www.w3.org/2000/svg" width="1000" height="688.571"><g transform="translate(125 -188.076)"><path fill="#62b9ff" fill-rule="evenodd" d="M-124.286 188.076h998.571v688.571h-998.571z"/><path d="M327.006 372.335c-.067 4.812 2.031 8.124 3.013 11.809.375 1.406-4.397.57-4.397.57s.74 4.446-.652 5.538c.61 1.319 1.697 5.341-.57 5.62-6.186.758-8.965-1.529-11.972-.164-2.621 1.19-4.614-1.846-5.375-3.665-1.596-3.814.026-8.388 1.548-12.786 2.305-3.2 1.94-7.926 11.32-7.085l7.085.163z" fill="#d40000" stroke="#000" stroke-width="1.5"/><path d="M433.286 483.79c-2.178-1.538-3.95-5.393-3.215-7.856.736-2.464 2.141-3.917 5.715-3.929 3.573-.012 9.304 2.203 11.785.357 2.482-1.846 7.947-1.21 10.715 0 2.767 1.211 5.894 2.77 11.071.357 5.178-2.413 4.549 3.17 8.572.357 4.022-2.813 3.539-2.03 10-.714 6.46 1.316 8.997.303 11.428 0 2.43-.302 4.286 0 6.786 0s6.31-1.094 8.214 0c1.904 1.094 2.653 2.75 2.5 4.286-.153 1.536-.286 2.103-2.857 3.214-2.571 1.111-7.794-.076-12.5-.357-4.706-.28-10.567-1.5-15.714-1.429-5.147.072-10.235 1.003-15 1.786-4.765.784-9.403 2.692-13.572 2.857-4.168.165-8.317-1.343-11.071-1.428-2.754-.085-4.461-.6-5.357.357-.896.958 1.207 1.349 0 2.5-1.208 1.151-5.323 1.181-7.5-.357zM449 496.29c-1.684-1.262-2.42-5.388-1.071-7.5 1.349-2.11 3.93-1.782 7.142-2.142 3.213-.36 8.758.576 12.143-1.429 3.386-2.004 5.044 1.709 7.857 2.143 2.814.434 3.164 2.515 8.929.357 5.765-2.158 7.938-1.968 9.643-1.428 1.705.54 4.213-.23 6.428 0 2.216.23 4.524.952 6.786 1.428 2.262.477 5.993-.122 6.786 1.429.793 1.551.12 1.808-1.429 3.214s-4.307 2.258-8.571 2.857c-4.264.6-11.308-.354-16.786-.714-5.477-.36-12.391-2.03-16.071-1.429-3.68.601-3.49 2.206-5.715 2.5-2.223.295-5.263-1.181-7.142-1.071-1.88.11-2.44.763-3.929 1.071-1.489.309-3.316 1.977-5 .715zm14.286 16.072c-1.946-1.402-3.418-6.507-2.857-8.571.56-2.064-.366-1.118 2.857-2.5 3.223-1.382 11.865-1.967 10.357-.357-1.508 1.609 3.631-1.887 6.071-2.143 2.44-.257 1.557-1.455 8.215 1.071 6.657 2.527 5.904.185 8.214 0 2.31-.185 5.875-1.171 7.5 0s2.05 2.603 1.428 4.286c-.622 1.683-2.305 2.508-5.357 3.214-3.051.706-8.87-.706-12.5-1.071-3.63-.365-6.565-1.266-9.285-1.072-2.72.194-5.132.405-6.786 1.786s-.916 4.348-2.5 5.357c-1.584 1.01-3.411 1.403-5.357 0z" fill="#f2f2f2"/><path style="text-indent:0;text-align:start;line-height:normal;text-transform:none;block-progression:tb;marker:none;-inkscape-font-specification:Bitstream Vera Sans" d="M375.031 240.545c-5.979 0-11.954.212-17.844.656l-4.625 27.657a200.81 200.81 0 0 0-29 5.375l-15.53-23.875c-11.205 3.379-22.451 7.713-32.97 12.75l7.032 27.218a191.811 191.811 0 0 0-24.563 15.375l-24.156-16.53a216.876 216.876 0 0 0-25.219 23.593l17.625 22.625a177.863 177.863 0 0 0-16.437 23l-29.063-6.656a202.002 202.002 0 0 0-13.656 30.843l25.5 14.563a166.897 166.897 0 0 0-5.719 27.156l-29.562 4.281a195.727 195.727 0 0 0 0 33.375l29.562 4.313a166.897 166.897 0 0 0 5.75 27.187l-25.531 14.47a202.336 202.336 0 0 0 13.656 30.874l29.063-6.594a177.603 177.603 0 0 0 16.437 22.97l-17.656 22.562a217.126 217.126 0 0 0 25.219 23.625l24.187-16.5a191.731 191.731 0 0 0 24.563 15.375l-7.063 27.218c10.477 5.022 21.692 9.355 32.938 12.75l15.593-23.906a200.828 200.828 0 0 0 29 5.375l4.375 26.344c-.125-.01-.25-.022-.375-.031l-.093.937c.208.016.417.016.625.031l.062.407a238.73 238.73 0 0 0 35.657 0l4.625-27.688a200.421 200.421 0 0 0 29-5.375L442 640.201c11.205-3.378 22.42-7.712 32.937-12.75l-7.03-27.218a191.731 191.731 0 0 0 24.562-15.375l24.187 16.531c8.97-7.132 17.562-15.206 25.219-23.625l-17.656-22.594a177.482 177.482 0 0 0 16.406-22.969l29.094 6.594c5.368-9.8 10.026-20.294 13.656-30.812l-25.531-14.563a166.943 166.943 0 0 0 5.75-27.156l29.562-4.281c.95-10.976.95-22.327 0-33.344l-29.562-4.344a166.943 166.943 0 0 0-5.75-27.156l25.562-14.531c-3.612-10.48-8.271-20.974-13.656-30.813l-29.094 6.594a177.79 177.79 0 0 0-16.437-23l17.687-22.594c-7.625-8.39-16.218-16.431-25.219-23.594l-24.218 16.5a191.811 191.811 0 0 0-24.563-15.375L475 263.14a232.621 232.621 0 0 0-32.969-12.781l-15.562 23.875a200.313 200.313 0 0 0-29.032-5.375l-4.562-27.657a237.453 237.453 0 0 0-17.844-.656zM375 318.89c74.638 0 135.156 56.594 135.156 126.406 0 69.813-60.518 126.406-135.156 126.406s-135.156-56.593-135.156-126.406c0-69.812 60.518-126.406 135.156-126.406z" font-weight="400" color="#000" fill="#fff" stroke="#000" stroke-width="4" overflow="visible" font-family="Bitstream Vera Sans"/><g fill="none" stroke-width="3"><path d="M552.439 699.502c-11.518 8.58-17.278 8.58-28.796 0-11.519 8.58-17.278 8.58-28.796 0-11.519 8.58-17.278 8.58-27.811 0-13.413 8.58-16.293 8.58-27.811 0-11.519 8.58-17.278 8.58-28.796 0-11.519 8.58-17.278 8.58-28.797 0-11.518 8.58-17.277 8.58-28.525 0-14.127 8.58-17.007 8.58-28.525 0-11.519 8.58-17.278 8.58-28.796 0-11.519 8.58-17.278 8.58-28.796 0-11.519 8.58-17.278 8.58-28.796 0" stroke="#000"/><path d="M780.051 699.502c-11.518 8.58-17.277 8.58-28.796 0-11.518 8.58-17.277 8.58-28.796 0-11.518 8.58-17.278 8.58-27.811 0-13.413 8.58-16.293 8.58-27.811 0-11.518 8.58-17.278 8.58-28.796 0-11.519 8.58-17.278 8.58-28.796 0" stroke="#fff"/></g><g fill="none" stroke-width="3"><path d="M534.714 680.754c-11.518 8.579-17.277 8.579-28.796 0-11.518 8.579-17.277 8.579-27.99 0-13.591 8.579-16.47 8.579-27.989 0-11.518 8.579-17.278 8.579-28.796 0-11.519 8.579-17.278 8.579-28.796 0-11.519 8.579-17.278 8.579-28.347 0-13.949 8.579-16.828 8.579-28.347 0-11.518 8.579-17.277 8.579-28.796 0-11.518 8.579-17.278 8.579-28.796 0-11.518 8.579-17.278 8.579-28.347 0-13.948 8.579-16.828 8.579-28.346 0-11.519 8.579-17.278 8.579-28.797 0-11.518 8.579-17.277 8.579-28.796 0-11.518 8.579-17.277 8.579-28.796 0" stroke="#000"/><path d="M780.832 680.754c-11.519 8.579-17.278 8.579-28.796 0-11.519 8.579-17.278 8.579-28.796 0-11.519 8.579-17.278 8.579-27.811 0-13.413 8.579-16.293 8.579-27.811 0-11.519 8.579-17.278 8.579-28.797 0-11.518 8.579-17.277 8.579-28.796 0" stroke="#fff"/></g><g fill="none" stroke-width="3"><path d="M534.357 662.005c-11.518 8.58-17.278 8.58-28.796 0-11.518 8.58-17.278 8.58-28.168 0-13.77 8.58-16.65 8.58-28.168 0-11.519 8.58-17.278 8.58-28.796 0-11.519 8.58-17.278 8.58-28.797 0-11.518 8.58-17.277 8.58-28.168 0-13.77 8.58-16.65 8.58-28.168 0-11.518 8.58-17.278 8.58-28.796 0-11.518 8.58-17.278 8.58-28.796 0-11.519 8.58-17.278 8.58-28.168 0-13.77 8.58-16.65 8.58-28.168 0-11.519 8.58-17.278 8.58-28.797 0-11.518 8.58-17.277 8.58-28.796 0-11.518 8.58-17.277 8.58-28.796 0" stroke="#000"/><path d="M784.046 662.005c-11.518 8.58-17.278 8.58-28.796 0-11.518 8.58-17.278 8.58-28.796 0-11.519 8.58-17.278 8.58-27.811 0-13.413 8.58-16.293 8.58-27.811 0-11.519 8.58-17.278 8.58-28.796 0-11.519 8.58-17.278 8.58-28.796 0" stroke="#fff"/></g><path d="M107.219 531.281v18.223l4.625 3.215V539.5l13.406-3.031s-17.317-4.83-18.031-5.188z" fill="#fff"/><path d="M117.484 541.643v14.87l3.71 2.322v-10.6l10.75-2.432s-13.887-3.873-14.46-4.16zm11.25 9.445v12.856l3.205 2.143v-9.304l9.29-2.1s-12-3.348-12.495-3.595zm11.518 6.346v12.956l2.743 1.786-.179-10.185 7.432-1.68s-9.6-2.678-9.996-2.876zm10.358 6.308v11.401l2.151.893v-8.47l6.237-1.411s-8.056-2.247-8.389-2.413z" fill="#fff"/><path d="m497.571 592.72 16.072 11.428v25.714h120.714v-10.357l12.857-12.857 11.072 10.357v-11.429h8.214v15h16.786l7.5-11.428v-27l9.768-12.91v-22.5h3.928v22.5l10.947 12.91v27l15.714 12.5 12.143-12.143 23.214 25.714h17.857v10.715l24.286 2.142.357 5H497.571V592.72z" fill="#000d63"/><g stroke="#000" stroke-width="4"><path d="M353.204 322.122 375 293.512l21.796 28.61v107.572h-43.592V322.122z" fill="#fff"/><path d="M375 292.505v136.071" fill="none"/></g><path d="m210.727 443.79 29.987-23.57h263.572l30.535 23.57-29.107 23.572h-265l-29.987-23.571zm-1.441 0h327.857" transform="matrix(1 0 0 .92877 1.786 33.105)" fill="#fff" stroke="#000" stroke-width="4.151"/><path d="M423.214 445.285c0 26.628-21.586 48.214-48.214 48.214s-48.214-21.586-48.214-48.214S348.372 397.07 375 397.07s48.214 21.586 48.214 48.214z" fill="#fff" stroke="#000" stroke-width="4" stroke-linecap="square" stroke-linejoin="bevel"/><path d="M278.464 482.833v11.344h55v-11.344h-55zm0 31.344v12h55v-12h-55z" fill="#d40000" fill-rule="evenodd"/><path fill="#fff" fill-rule="evenodd" d="M278.464 494.177h55v20h-55z"/><path d="m284.267 503.084 3.738 2.732-1.465 4.467 3.789-2.769 3.789 2.769-1.465-4.467 3.738-2.732h-4.633l-1.429-4.357-1.429 4.357z"/><path fill="#fc0" d="m323.924 505.816 3.738-2.732h-4.634l-1.428-4.357-1.429 4.357h-4.633l3.737 2.732-1.464 4.467 3.789-2.769 3.788 2.769z"/><path fill="#fff" fill-rule="evenodd" d="M642.214 637.362h12.5v7.857h-12.5zm9.643-12.857h5v9.286h-5zm34.643 3.929h8.214v15H686.5zm12.768-9.286h9.286v24.286h-9.286zm13.839 9.286h8.214v15h-8.214zm22.322 1.428h5.714v13.571h-5.714zm15 0h5.714v13.571h-5.714z"/><path fill="#000d63" fill-rule="evenodd" d="M743.643 613.791h9.464v9.464h-9.464z"/><path fill="navy" fill-rule="evenodd" d="M695.295 554.594h14.643v3.214h-14.643z"/><path d="M408.656 503.438v10h-11.812v48.937h18.219v-6.437h6.968v-5h-6.969v-13.563h6.625v-7.688h-6.625v-9.812h4.657v-6.438h-4.656v-10h-6.407z" fill="#000d63" fill-rule="evenodd"/><path fill="#fff" fill-rule="evenodd" d="M400.607 519.684h9.464v10.893h-9.464zm0 16.696h9.464v16.071h-9.464z"/><path d="M211.955 601.31v51.766H328.06V601.31s-9.542-14.423-58.052-14.82c-48.511-.398-58.053 14.82-58.053 14.82z" fill="#000d63"/><path d="M241.813 611.737h12.203V623.2h-12.203zm14.729 0h12.202V623.2h-12.202zm14.728 0h12.203V623.2H271.27zm14.73 0h12.203V623.2H286zm-53.801 15.012h7.025v21.076h-7.025zm9.799 0h7.025v21.076h-7.025zm9.799 0h7.025v21.076h-7.025zm9.798 0h7.025v21.076h-7.025zm9.799 0h7.025v21.076h-7.025zm9.799 0h7.025v21.076h-7.025zm9.799 0h7.025v21.076h-7.025zm9.798 0h7.025v21.076h-7.025zm-81.794-11.019h16.639v3.328h-16.639zm85.383 0h16.639v3.328h-16.639z" fill="#fff" fill-rule="evenodd"/><path d="M219.88 604.046h101.684s-8.377-10.723-50.842-10.723c-42.466 0-50.843 10.723-50.843 10.723z" fill="none" stroke="#fff" stroke-width="4"/><path fill="#000d63" d="M327.146 605.934h27.569v47.143h-27.569z"/><path fill="#fff" fill-rule="evenodd" d="M339.625 613.541h12.857v13.651h-12.857zm0 17.381h12.857v15.079h-12.857z"/><path d="M76.858 645.165H44.002v-42.432h15v-47.466l48.57-6.473c15.878 11.927 32.21 23.664 59.284 30.925l.179 4.136-9.107 3.596.536 14.024c14.341 9.29 48.383 30.729 58.751 26.862l-.252 24.74H76.858v-7.912z" fill="#000d63"/><path d="M81.857 652.898V605.04h6.786v-18.036l-7.94-4.584v15.834h-5.632v54.821h7.5" fill="#fff"/><path fill="#fff" fill-rule="evenodd" d="M48.375 610.755h15.536v5.536H48.375zm0 7.143h15.536v5.536H48.375zm0 7.143h5.536v13.929h-5.536zm10 0h5.536v13.929h-5.536z"/><path d="m1406.838 758.207 93.733 15.786-.536-11.256-93.999-19.262m1.646 15.465 16.897-11.671m4.115.692 14.968 16.312m2.971.069 14.747-9.747m2.474 12.937 11.338-9.26m7.128 12.157 10.193-8.943m-10.183 8.388-6.973-11.619m23.328 14.72-7.614-11.863" transform="translate(-1345.018 -258.988) skewY(3)" stroke="#fff" fill="none" stroke-width="3"/><path fill="#000d63" fill-rule="evenodd" d="M171.755 594.357h4.821v22.5h-4.821zm12.12 0h4.821v26.607h-4.821zm12.589 0h4.821v32.321h-4.821z"/><path d="M171.286 579.982a1.16 1.16 0 1 1-2.322 0 1.16 1.16 0 0 1 2.322 0zm0 3.898a1.16 1.16 0 1 1-2.322 0 1.16 1.16 0 0 1 2.322 0zm0 3.9a1.16 1.16 0 1 1-2.322 0 1.16 1.16 0 0 1 2.322 0zm0 3.899a1.16 1.16 0 1 1-2.322 0 1.16 1.16 0 0 1 2.322 0zm4.04-11.697a1.16 1.16 0 1 1-2.321 0 1.16 1.16 0 0 1 2.321 0zm0 3.898a1.16 1.16 0 1 1-2.321 0 1.16 1.16 0 0 1 2.321 0zm0 3.9a1.16 1.16 0 1 1-2.321 0 1.16 1.16 0 0 1 2.321 0zm0 3.899a1.16 1.16 0 1 1-2.321 0 1.16 1.16 0 0 1 2.321 0zm4.04-11.697a1.16 1.16 0 1 1-2.321 0 1.16 1.16 0 0 1 2.321 0zm0 3.898a1.16 1.16 0 1 1-2.321 0 1.16 1.16 0 0 1 2.321 0zm0 3.9a1.16 1.16 0 1 1-2.321 0 1.16 1.16 0 0 1 2.321 0zm0 3.899a1.16 1.16 0 1 1-2.321 0 1.16 1.16 0 0 1 2.321 0zm4.04-11.697a1.16 1.16 0 1 1-2.321 0 1.16 1.16 0 0 1 2.321 0zm0 3.898a1.16 1.16 0 1 1-2.321 0 1.16 1.16 0 0 1 2.321 0zm0 3.9a1.16 1.16 0 1 1-2.321 0 1.16 1.16 0 0 1 2.321 0zm0 3.899a1.16 1.16 0 1 1-2.321 0 1.16 1.16 0 0 1 2.321 0zm4.041-11.697a1.16 1.16 0 1 1-2.322 0 1.16 1.16 0 0 1 2.322 0zm0 3.898a1.16 1.16 0 1 1-2.322 0 1.16 1.16 0 0 1 2.322 0zm0 3.9a1.16 1.16 0 1 1-2.322 0 1.16 1.16 0 0 1 2.322 0zm0 3.899a1.16 1.16 0 1 1-2.322 0 1.16 1.16 0 0 1 2.322 0zm4.04-11.697a1.16 1.16 0 1 1-2.322 0 1.16 1.16 0 0 1 2.322 0zm0 3.898a1.16 1.16 0 1 1-2.322 0 1.16 1.16 0 0 1 2.322 0zm0 3.9a1.16 1.16 0 1 1-2.322 0 1.16 1.16 0 0 1 2.322 0zm0 3.899a1.16 1.16 0 1 1-2.322 0 1.16 1.16 0 0 1 2.322 0zm4.04-11.697a1.16 1.16 0 1 1-2.322 0 1.16 1.16 0 0 1 2.322 0zm0 3.898a1.16 1.16 0 1 1-2.322 0 1.16 1.16 0 0 1 2.322 0zm0 3.9a1.16 1.16 0 1 1-2.322 0 1.16 1.16 0 0 1 2.322 0zm0 3.899a1.16 1.16 0 1 1-2.322 0 1.16 1.16 0 0 1 2.322 0zm4.04-11.697a1.16 1.16 0 1 1-2.321 0 1.16 1.16 0 0 1 2.321 0zm0 3.898a1.16 1.16 0 1 1-2.321 0 1.16 1.16 0 0 1 2.321 0zm0 3.9a1.16 1.16 0 1 1-2.321 0 1.16 1.16 0 0 1 2.321 0zm0 3.899a1.16 1.16 0 1 1-2.321 0 1.16 1.16 0 0 1 2.321 0zm4.04-11.697a1.16 1.16 0 1 1-2.321 0 1.16 1.16 0 0 1 2.321 0zm0 3.898a1.16 1.16 0 1 1-2.321 0 1.16 1.16 0 0 1 2.321 0zm0 3.9a1.16 1.16 0 1 1-2.321 0 1.16 1.16 0 0 1 2.321 0zm0 3.899a1.16 1.16 0 1 1-2.321 0 1.16 1.16 0 0 1 2.321 0z" fill="#fff" fill-rule="evenodd"/><g fill="#fff"><path d="m107.393 628.12.803-76.388 5.715 4.108-.09 72.95-6.428-.67z"/><path d="M97.66 552.403c.367.754 10.715 13.835 10.715 13.835v-7.882l-4.67-6.708-6.044.755zm15.898 8.887 3-3.605 6.281 3.857-9.375 7.463.094-7.714z"/></g><path d="M110.758 620.934c-.277-1.938 14.226-6.425 14.226-6.425s1.066-5.178 1.293-8.21c4.55 2.251 9.423 8.388 9.423 8.388s-.402-5.273.369-7.674c3.589 1.598 8.499 5.89 8.499 5.89l.184-5.355c2.789.664 9.053 0 9.053 0l4.25-1.785c4.164 1.261 5.363 3.954 6.65 6.604-31.508 3.624-33.645 19.114-33.994 24.808h-24.203c1-6.046.14-14.917 4.25-16.241z" fill="#fff"/><path d="M136.418 647.898s-5.334-26.573 22.55-31.072c12.56-2.026 45.873 25 45.873 25l7.052.358.357 5.714h-75.832z" fill="#62b9ff"/><path d="M152.036 628.47s-1.344 9.464 11.964 9.464 12.5-6.965 12.5-6.965 2.481 12.94-13.571 14.107c-8.405.612-15.247-3.817-16.429-8.392-1.182-4.576 5.536-8.215 5.536-8.215z" fill="#fff"/><g fill="#fc0"><path style="text-align:start;line-height:100%;-inkscape-font-specification:Swis721 Win95BT Bold" d="M764.56 334.943v-49.098h-17.152v-10.08h1.103c6.252 0 10.807-.97 13.666-2.91 2.859-1.939 4.539-5.182 5.04-9.729h11.485v71.817zm-3.423 62.814c0 3.511.978 6.22 2.934 8.125 1.956 1.906 4.756 2.859 8.4 2.859 3.477 0 6.21-.97 8.2-2.91 1.99-1.938 2.984-4.63 2.984-8.074 0-3.31-1.02-5.968-3.06-7.974-2.039-2.006-4.747-3.009-8.124-3.009-3.377 0-6.11 1.02-8.2 3.06-2.09 2.039-3.134 4.68-3.134 7.923zm1.153-30.793c0 2.775.87 4.907 2.608 6.395 1.739 1.488 4.23 2.231 7.473 2.231 3.243 0 5.742-.752 7.497-2.256 1.756-1.505 2.633-3.628 2.633-6.37 0-2.674-.902-4.78-2.708-6.319-1.805-1.538-4.28-2.307-7.422-2.307-3.076 0-5.525.786-7.347 2.357-1.823 1.572-2.734 3.661-2.734 6.27zm-5.165 13.942c-3.01-1.671-5.183-3.627-6.52-5.867-1.337-2.24-2.006-5.099-2.006-8.576 0-6.152 2.106-10.983 6.319-14.494 4.213-3.51 10.03-5.266 17.453-5.266 7.49 0 13.349 1.747 17.578 5.24 4.23 3.495 6.344 8.334 6.344 14.52 0 3.31-.719 6.177-2.156 8.6-1.438 2.425-3.595 4.372-6.47 5.843 3.51 1.639 6.152 3.904 7.924 6.796 1.772 2.892 2.658 6.411 2.658 10.557 0 6.988-2.299 12.471-6.896 16.45-4.597 3.978-10.925 5.968-18.982 5.968-8.158 0-14.494-1.973-19.008-5.918-4.513-3.945-6.77-9.445-6.77-16.5 0-4.112.844-7.565 2.533-10.356 1.688-2.792 4.354-5.124 7.999-6.997zm19.107 94.711v-30.743l-19.508 30.743zm-.3 26.58v-15.496H745.64v-12.639l26.48-41.626h17.804v42.83h8.325v11.435h-8.325v15.496zm-14.143 60.758c0 4.113 1.028 7.373 3.084 9.78 2.056 2.407 4.857 3.61 8.4 3.61 3.31 0 5.902-1.17 7.774-3.51 1.872-2.34 2.809-5.6 2.809-9.78 0-3.844-.97-6.837-2.91-8.977-1.939-2.14-4.663-3.21-8.174-3.21-3.444 0-6.135 1.07-8.074 3.21-1.94 2.14-2.91 5.1-2.91 8.877zm-.2-18.756c1.638-1.672 3.61-2.934 5.917-3.787 2.307-.852 4.882-1.279 7.724-1.279 7.021 0 12.646 2.14 16.876 6.42 4.23 4.28 6.344 9.98 6.344 17.101 0 7.557-2.307 13.658-6.92 18.306-4.615 4.647-10.7 6.97-18.256 6.97-8.727 0-15.355-3.008-19.885-9.026-4.53-6.019-6.796-14.829-6.796-26.43 0-12.471 2.424-22.009 7.272-28.612 4.848-6.603 11.836-9.905 20.963-9.905 6.353 0 11.477 1.655 15.372 4.965 3.895 3.31 6.027 7.79 6.394 13.44H782.05c-.334-2.306-1.237-4.045-2.708-5.215s-3.527-1.755-6.169-1.755c-3.61 0-6.386 1.563-8.325 4.689-1.939 3.126-3.026 7.832-3.26 14.118z" font-size="40" font-weight="700" writing-mode="tb-rl" font-family="Swis721 Win95BT"/><path d="M-2.935 227.906a3 3 0 0 0-2.656 2.688c-2.888 26.334-.565 48.016.969 68.969a34.527 34.527 0 0 1-1-2.938c-1.673-5.725-2.804-13.873-3.5-22.031-1.393-16.316-1.125-32.75-1.125-32.75a4 4 0 1 0-8-.156s-.283 16.732 1.156 33.593c.72 8.43 1.823 16.892 3.781 23.594.98 3.351 2.138 6.276 3.844 8.688 1.028 1.453 2.44 2.791 4.125 3.625l.031 4.875c-5.396-.775-8.972-4.045-11.969-9.344-3.396-6.007-5.43-14.565-6.437-23.25-2.013-17.37-.094-34.938-.094-34.938a4 4 0 0 0-4.375-4.5 4 4 0 0 0-3.562 3.594s-2.057 18.195.093 36.75c1.075 9.278 3.123 18.706 7.407 26.281 3.972 7.025 10.384 12.537 18.968 13.438v1.844c-8.797-1.02-14.868-4.762-19.593-10.094-5.561-6.275-9.064-15.052-11.063-24.125C-39.934 273.572-37.904 255-37.904 255a5 5 0 0 0-5.468-5.625 5 5 0 0 0-4.47 4.5s-2.329 19.752 2.126 39.969c2.227 10.108 6.136 20.523 13.344 28.656 6.35 7.167 15.416 12.352 27.093 13.5l.063 19.594c-2.483-3.37-7.474-9.927-10.625-12.875-4.319-4.04-10.975-8.97-14.625-9.281-3.65-.312-3.03-.176-4.281 1.78-1.251 1.958-1.192 4.542.343 9.282 1.536 4.74 6.315 13.244 11.438 17.156 4.664 3.562 15.748 5.558 17.781 5.906l.063 19.813c-1.601-1.554-4.642-4.54-7.125-7.5-3.245-3.866-7.288-14.667-12.157-16.438-4.869-1.77-8.413-.059-10.343 2.5-1.93 2.56-1.032 3.998.343 8.563s5.352 11.882 10.375 17.156c3.842 4.034 14.211 10.57 18.938 13.469l.062 20.094c-1.09-.297-2.494-.813-3.656-1.781-2.198-1.832-3.863-6.262-6.062-9.657-2.2-3.395-3.99-8.352-7.157-10.719-3.166-2.366-7.308-4.284-10.343-3.187-3.036 1.097-4.367 2.333-4.657 7.125-.29 4.792 3.61 12.354 8.938 18.219 5.211 5.737 22.219 13.801 22.969 14.156l.062 18.531c-1.905-.575-4.82-1.657-6.969-3.406-3.475-2.829-6.085-12.844-10.718-15.344-4.634-2.5-9.424-3.776-12.844-.375s-1.86 10.55.344 16.094c2.203 5.545 7.877 10.972 13.218 14.625 3.998 2.735 12.818 5.587 17 6.844l.063 18.469c-2.843-1.697-8.222-5.011-10.625-7.438-3.326-3.358-5.448-9.501-8.563-11.813-3.114-2.31-5.263-3.603-8.218-2.843-2.956.76-5.992 2.37-6.438 7.156-.446 4.786 4.278 11.05 10 16.406 4.76 4.457 19.007 10.39 23.875 12.344l.063 21.844c-2.706-1.934-9.238-6.642-12.5-9.532-3.99-3.533-6.96-9.383-10.72-11.062-3.758-1.679-7.002-1.76-9.28-.375-2.28 1.386-3.496 2-2.875 6.063.62 4.062 6.315 8.79 12.156 13.218 5.18 3.928 19.84 10.701 23.25 12.25l.062 23.032c-5.12-3.935-9.632-8.237-21.187-20.282 0 0-7.14-3.215-9.625-1.406-2.485 1.809-3.442 2.239-1.438 8.563 2.005 6.323 5.224 10.076 11.782 14.625 5.896 4.09 14.257 9.15 20.5 11.468l.062 19.094c-2.389-1.016-5.886-2.226-7.687-3.406-2.611-1.71-4.511-7.445-7.875-11.063-3.365-3.617-7.535-4.655-13.907-3.218-6.372 1.436-7.044 6.828-2.5 13.562 4.435 6.571 15.955 13.402 32 15.563l.063 17.875c.01 3.551 2.33 7.282 5.094 8.875 2.764 1.592 5.478 1.903 8.25 2.093 5.542.381 11.63-.166 16.625.219a5.519 5.519 0 1 0 .875-11c-6.316-.487-12.657.06-16.72-.219-1.76-.12-2.671-.42-3.062-.562l-.062-20.032c3.002-.138 13.203-.806 17.281-3.53 4.765-3.185 10.02-9.132 10-13.907-.02-4.775-3.61-7.775-6.781-9.313-3.172-1.537-6.927-.864-9.656.375-2.73 1.24-3.739 5.035-5.72 6.063-1.27.66-3.606.613-5.187.5l-.031-9.375c2.289-.814 17.641-6.35 22.031-10.063 4.735-4.003 6.73-6.88 7.5-10.687.771-3.807.86-7.702-2.156-10-3.015-2.298-7.341-1.55-12.5.688-4.091 1.774-11.797 9.726-14.906 13.03l-.063-18.437c3.819-.095 13.78-.368 17.125-1 4.136-.78 5.452-.872 8.188-3.218 2.735-2.347 6.08-7.176 6.437-11.063.357-3.887-.429-7.86-3.562-10-3.134-2.14-7.35-1.504-12.156.344-4.357 1.674-14.18 10.766-16.063 12.531l-.062-21.5c4.529-1.651 17.113-6.346 20.406-8.875 3.997-3.07 4.02-3.534 5-6.094.979-2.56 1.129-6.003.375-8.562-.754-2.56-2.015-5.022-4.281-6.063-2.267-1.04-5.07-.426-7.5.719-2.431 1.145-3.82 4.261-6.094 6.063-1.605 1.27-5.639 3.202-7.938 4.25l-.062-16.97c3.239-1.121 10.814-3.857 14.437-6.218 4.65-3.03 11.437-9.701 12.875-13.938 1.439-4.236.28-5.604-.718-7.843-1-2.24-1.788-4.173-4.657-5-2.868-.828-6.937.375-10.718 2.844-2.96 1.93-8.788 9.633-11.25 12.968l-.063-20.781c2.237-1.002 10.98-4.957 14.906-7.188 4.445-2.525 10.298-5.416 12.125-9.28 1.828-3.865.77-7.428-.343-10.344-1.114-2.917-2.387-5.713-5.375-6.438-2.989-.725-5.593 1.017-9.282 3.938-3.21 2.542-10.24 12.86-12.093 15.625l-.032-14.125c4.686-1.904 14.771-8.664 18.907-13.282 4.358-4.867 10.103-12.283 9.656-17.5-.448-5.216-3.475-8.129-7.156-8.937-3.682-.809-6.713 2.63-10 5-2.753 1.984-9.132 7.956-11.47 10.156l-.03-8.906c5.093-2.617 14.623-10.038 18.28-13.531 4.117-3.932 8.176-6.611 8.938-11.063.763-4.452-.143-10.624-4.281-12.156s-6.352-3.061-11.781 6.781c-3.916 7.1-8.875 11.53-11.188 13.344l-.062-19c10.927-1.31 19.309-6.137 25-12.844 6.723-7.923 9.89-18.018 11.375-27.781 2.968-19.528-.844-38.531-.844-38.531a5 5 0 1 0-9.812 1.906s3.377 17.837.75 35.125c-1.314 8.643-4.12 16.951-9.094 22.812-4.025 4.744-9.342 8.192-17.375 9.313V322.5c5.272-2.199 9.447-6.319 12.375-11.281 4.435-7.518 6.678-16.965 7.937-26.313 2.518-18.694.813-37.187.813-37.187a4 4 0 1 0-7.969.719s1.579 17.883-.781 35.406c-1.18 8.76-3.394 17.358-6.906 23.312-1.635 2.771-3.405 4.942-5.5 6.469l-.032-5.031a5.519 5.519 0 0 0-.062-.813c.114-.159.238-.307.344-.469 1.631-2.494 2.688-5.494 3.562-8.937 1.749-6.885 2.632-15.564 3.094-24.219.922-17.31.094-34.469.094-34.469a4 4 0 0 0-4.25-3.875 4 4 0 0 0-3.72 4.25s.77 16.88-.124 33.657c-.447 8.388-1.342 16.776-2.844 22.687a38.855 38.855 0 0 1-.5 1.813c-1.54-20.778-3.738-41.714-.969-66.969a3 3 0 0 0-3.281-3.344z" style="text-indent:0;text-align:start;line-height:normal;text-transform:none;block-progression:tb;marker:none;-inkscape-font-specification:Bitstream Vera Sans" font-weight="400" color="#000" overflow="visible" font-family="Bitstream Vera Sans"/></g><path style="text-indent:0;text-align:start;line-height:125%;text-transform:none;block-progression:tb;marker:none;-inkscape-font-specification:'Copperplate Gothic Bold,'" d="M-89.115 685.135v9.47l2.182.73c1.803.589 2.745 1.325 2.93 1.573.207.279.498.94.498 2.45V818.22c0 1.597-.311 2.272-.499 2.523-.184.248-1.126 1.021-2.93 1.609l-2.181.695v9.469h41.142v-9.47l-2.182-.694c-1.804-.588-2.776-1.361-2.96-1.609-.188-.251-.468-.926-.468-2.523v-72.392l38.461 82.922 2.556 5.484 2.68-5.41 40.955-83.618v73.014c0 1.578-.295 2.247-.53 2.56-.237.317-1.121 1.018-2.836 1.535l-2.244.695v9.506h43.324v-9.47l-2.182-.694c-1.804-.588-2.745-1.362-2.93-1.609-.187-.251-.498-.926-.498-2.523V699.358c0-1.51.29-2.171.498-2.45.185-.247 1.126-.984 2.93-1.572l2.182-.731v-9.47H17.574v9.981l2.68.33c1.058.124 1.48.427 1.559.511.078.085.124.002.124.695 0 .047-.457 2.262-1.808 5.192-.008.018.009.019 0 .036l-30.389 63.728-30.015-64.934c-.007-.016.008-.021 0-.037-.649-1.427-.872-2.488-.872-3.034 0-.835.125-1.097.311-1.353.187-.256.6-.627 1.559-.914l2.244-.658v-9.543h-52.082z" font-size="130.475" font-weight="400" color="#000" fill="#fc0" overflow="visible" font-family="Copperplate Gothic Bold"/><path style="text-indent:0;text-align:start;line-height:125%;text-transform:none;block-progression:tb;marker:none;-inkscape-font-specification:'Copperplate Gothic Bold,'" d="M-79.64 692.155h34.036c-.99 1.57-1.528 3.514-1.528 5.448 0 2.19.62 4.285 1.59 6.398l32.602 70.528 2.618 5.63 2.65-5.594 33.038-69.284v-.037c1.552-3.35 2.555-5.723 2.555-8.555v-.037c0-1.589-.503-3.132-1.277-4.497h32.664c-.046.059-.111.086-.156.146-1.429 1.915-1.964 4.454-1.964 7.057V818.22c0 2.654.515 5.188 1.964 7.13.045.06.11.088.156.146H34.934c.026-.033.068-.04.094-.072 1.46-1.95 2.026-4.53 2.026-7.203v-99.339l-5.58 11.408-43.884 89.576-41.547-89.503-5.61 1.682v86.176c0 2.654.514 5.187 1.963 7.13.045.06.11.087.156.146H-79.64c.046-.059.11-.086.156-.147 1.449-1.942 1.963-4.476 1.963-7.129V699.358c0-2.602-.535-5.141-1.963-7.056-.045-.06-.11-.088-.156-.146z" font-size="130.475" font-weight="400" color="#000" fill="#fff" overflow="visible" font-family="Copperplate Gothic Bold"/><path style="text-indent:0;text-align:start;line-height:125%;text-transform:none;block-progression:tb;marker:none;-inkscape-font-specification:'Copperplate Gothic Bold,'" d="m735.428 739.26-.594 2.219c-.324 1.167-.753 1.687-.719 1.656.04-.036-.044.094-.781.094h-77.219v7.249l2.188.595c1.164.323 1.659.762 1.593.687-.062-.071.125.065.125.875v70.5c0 .81-.187.978-.125.906.066-.075-.43.333-1.593.657l-2.188.625v7.218h78.688c.754 0 .86.167.812.125-.075-.065.364.43.688 1.594l.593 2.188h7.25v-27.532h-7.25l-.593 2.188c-.324 1.164-.763 1.66-.688 1.594.048-.042-.058.125-.812.125h-50.594v-16.844h30.812c.738 0 .822.161.782.125-.008-.008.397.502.718 1.625l.625 2.156h7.22v-27.062h-7.25l-.595 2.218c-.323 1.164-.762 1.66-.687 1.594.048-.042-.059.094-.813.094H684.21v-13.75h49.125c.754 0 .86.136.812.093-.048-.042.368.444.688 1.563l.625 2.187h7.219V739.26h-7.25zm94.968 0-.593 2.219c-.325 1.167-.753 1.687-.72 1.656.041-.036-.043.094-.78.094h-77.22v7.249l2.188.595c1.164.323 1.66.762 1.594.687-.062-.071.125.065.125.875v70.5c0 .81-.187.978-.125.906.066-.075-.43.333-1.594.657l-2.187.625v7.218h78.687c.754 0 .861.167.813.125-.075-.065.364.43.687 1.594l.594 2.188h7.251v-27.532h-7.25l-.595 2.188c-.323 1.164-.762 1.66-.687 1.594.048-.042-.059.125-.813.125h-50.593v-16.844h30.812c.738 0 .822.161.781.125-.008-.008.398.502.72 1.625l.624 2.156h7.219v-27.062h-7.25l-.594 2.218c-.323 1.164-.762 1.66-.687 1.594.048-.042-.059.094-.813.094h-30.812v-13.75h49.125c.754 0 .86.136.812.093-.048-.042.368.444.688 1.563l.625 2.187h7.218V739.26h-7.25zm-749 3.969v7.249l2.188.595c1.164.323 1.66.762 1.594.687-.042-.048.125.059.125.813v70.562c0 .81-.188.978-.125.906.065-.075-.43.333-1.594.657l-2.188.625v7.218h32v-7.281l-2.25-.562c-1.092-.281-1.521-.65-1.5-.625.025.028-.156-.144-.156-.938v-70.562c0-.754.167-.888.156-.875-.077.09.334-.31 1.47-.594l2.28-.563v-7.313h-32zm41.032 0v7.249l2.187.595c1.164.323 1.66.762 1.594.687-.062-.071.125.065.125.875v70.5c0 .81-.188.978-.125.906.065-.075-.43.333-1.594.657l-2.187.625v7.218h76.28c.81 0 .979.188.907.125-.075-.065.333.43.656 1.594l.625 2.188h7.219v-31.532h-7.219l-.625 2.188c-.323 1.164-.201 1.242-.656 1.594-.241.186-.096.125-.906.125H150.52v-56.188c0-.81.155-.973.125-.937-.077.09.365-.31 1.5-.594l2.282-.563v-7.313h-32zm79.625 0v7.406l2.437.5c1.375.275 2.063.726 2.5 1.219.43.485 1.532 2.373 2.656 5.281l23.875 61.438c.004.012-.004.019 0 .03a70.888 70.888 0 0 1 1.22 3.438c.255.813.28 1.534.28.906 0 .51-.042.478-.156.594-.114.116-.525.405-1.5.594l-2.437.5v7.406h32.812v-7.281l-2.25-.563c-1.223-.314-1.93-.74-2.156-.937-.226-.198-.125.01-.125-.125 0 .518.02-.01.25-.656.23-.648.596-1.575 1.125-2.75l.031-.063.031-.062 16.25-41.032 15.594 40.032v.062l.031.03c.611 1.4 1.071 2.552 1.344 3.344.273.793.313 1.398.313.97 0 .513-.048.457-.157.562-.109.104-.555.399-1.593.562l-2.532.406v7.5h33.157v-7.468l-2.5-.438c-1.114-.188-1.662-.522-1.782-.625-.12-.103-.062.147-.062-.125 0 .19.432-1.956 1.531-4.781l23.844-61.469c1.22-3.108 2.391-5.12 2.531-5.281.128-.148 1.013-.795 2.75-1.281l2.188-.625v-7.22h-34.625v7.438l2.437.47c1.16.225 1.77.557 1.938.687-.014.304-.26 1.675-1.032 3.625l-.03.03-13.626 36.157-14.156-36.906c-.648-1.676-.844-2.974-.844-2.563 0-.232-.045-.119.125-.281.17-.162.741-.529 1.813-.812l2.218-.563v-7.282h-36.28v7.438l2.437.469c1.038.202 1.555.505 1.656.594.101.089 0-.145 0 .062 0-.655-.206.847-.938 2.657l-14.937 37.125-13.781-36.812c-.59-1.586-.782-2.728-.782-2.969 0-.215-.054-.013.032-.093.085-.08.519-.383 1.468-.594l2.344-.5v-7.376h-34.937zm176.928 0v7.094l2 .687c.845.291 1.273.63 1.406.781.134.153.125.132.125.438 0 .42-.28 1.739-1.156 3.562L350.7 819.823v.03c-1.029 2.21-2.01 3.586-2.281 3.844-.31.296-.995.718-2.25.969l-2.407.469v7.406h33.594v-7.281l-2.281-.563c-1.064-.27-1.63-.644-1.781-.781-.15-.137-.031.103-.031-.031 0-.11.197-1.136.875-2.563h-.032l4.813-10.03h34.062l4.938 10.062c.725 1.487.906 2.566.906 2.468 0 .391.01.244-.062.313-.073.069-.497.338-1.47.5l-2.5.406v7.5h36.657v-7.437l-2.437-.469c-1.264-.24-2.03-.633-2.563-1.156-.512-.502-1.663-2.195-2.937-4.782l-31.75-64.218-.032-.031c-.627-1.223-.812-2.132-.812-2.657 0-.152-.097.035 0-.062s.553-.402 1.437-.656l2.157-.625v-7.22H378.98zm73.072 0v7.249l2.218.595c1.164.323 1.66.762 1.594.687-.062-.071.094.065.094.875v46.688c0 6.123.8 11.536 2.5 16.187h.031c1.815 4.887 5.166 8.869 9.781 11.656 7.754 4.706 18.444 6.844 32.032 6.844 18.78 0 31.965-3.965 38.718-13.062 3.827-5.167 5.469-12.427 5.47-21.625v-46.688c-.001-.81.187-.946.124-.875-.066.075.43-.364 1.594-.687l2.187-.594v-7.251h-30.53v7.25l2.187.595c1.164.323 1.659.762 1.593.687-.062-.071.125.065.125.875v41.563c0 4.69-.292 8.145-.718 10-.427 1.851-1.156 3.243-2.188 4.375l-.031.03c-3.083 3.251-8.86 5.25-17.875 5.25-9 0-14.764-2.009-17.844-5.28-1.078-1.139-1.824-2.523-2.25-4.376-.427-1.854-.719-5.308-.719-10v-41.562c0-.794.181-.935.157-.906-.045.05.424-.34 1.562-.625l2.25-.563v-7.312h-32.062zm103.718 0v7.249l2.188.595c1.164.323 1.66.762 1.594.687-.042-.048.125.059.125.813v70.562c0 .81-.188.978-.125.906.065-.075-.43.333-1.594.657l-2.188.625v7.218h32v-7.281l-2.25-.562c-1.092-.281-1.552-.65-1.53-.625.024.028-.126-.144-.126-.938V802.23l9.094-7.406 22.656 27.812.031.031a36.787 36.787 0 0 1 1.47 1.969c-.042.01-.02.022-.063.03l-2.375.5v7.376h38.53v-7.5l-2.53-.406c-1.598-.261-2.728-.758-3.594-1.438-.862-.676-3.079-2.978-6-6.5l-30.156-36.281 25.937-20.844.031-.031h.032l4.656-3.906c.011-.01.02.009.031 0 2.89-2.368 4.99-3.938 4.937-3.907.022-.013.832-.34 2.094-.593l2.406-.5v-7.407H610.99v7.438l2.437.469c.059.01.04.02.094.03-.116.103-.115.14-.25.25l-29.406 24.032v-22.875c0-.754.135-.887.125-.875-.077.091.365-.31 1.5-.594l2.281-.562v-7.313h-32z" font-size="130.475" font-weight="400" color="#000" fill="#fc0" overflow="visible" font-family="Copperplate Gothic Bold"/><path style="text-indent:0;text-align:start;line-height:125%;text-transform:none;block-progression:tb;marker:none;-inkscape-font-specification:'Copperplate Gothic Bold,'" d="M736.678 748.385v9.406c-1.066-.503-2.187-.812-3.344-.812h-55.125v25.75h36.812c1.157 0 2.279-.31 3.344-.813v8.907c-1.065-.513-2.186-.844-3.344-.844H678.21v28.844h56.594c1.153 0 2.28-.313 3.343-.813v9.344c-1.063-.5-2.19-.813-3.343-.813H665.21c.504-1.078.812-2.232.812-3.406v-70.5c0-1.18-.303-2.324-.812-3.406h68.125c1.157 0 2.278-.33 3.344-.844zm94.968 0v9.406c-1.065-.503-2.187-.812-3.343-.812h-55.125v25.75h36.812c1.157 0 2.279-.31 3.344-.813v8.907c-1.065-.513-2.186-.844-3.344-.844h-36.812v28.844h56.593c1.154 0 2.281-.313 3.344-.813v9.344c-1.063-.5-2.19-.813-3.344-.813h-69.593c.504-1.078.812-2.232.812-3.406v-70.5c0-1.18-.303-2.324-.812-3.406h68.125c1.157 0 2.278-.33 3.343-.844zm-741.171.844h13.78c-.49 1.062-.78 2.19-.78 3.344v70.562c0 1.182.332 2.324.843 3.406H90.475c.503-1.078.812-2.232.812-3.406v-70.562c0-1.157-.31-2.279-.812-3.344zm41.015 0h13.844c-.501 1.082-.813 2.224-.813 3.406v62.188h54.188c1.174 0 2.328-.309 3.406-.813v13.344c-1.078-.504-2.232-.813-3.406-.813H131.49c.504-1.078.844-2.232.844-3.406v-70.5c0-1.18-.334-2.324-.844-3.406zm80.563 0h15.687c-.375.82-.594 1.696-.594 2.562 0 1.632.445 3.15 1.157 5.063l16.5 44.094 2.687 7.218 2.906-7.156 17.813-44.312c.815-2.016 1.375-3.03 1.375-4.907 0-.854-.192-1.753-.563-2.562h17.438c-.487.924-.844 1.92-.844 2.937 0 1.714.514 2.815 1.25 4.72l16.969 44.25 2.812 7.374 2.782-7.375 16.406-43.469c.01-.024.022-.038.031-.062.9-2.277 1.469-4.03 1.469-5.875 0-.847-.243-1.713-.625-2.5h14.844c-1.092 1.521-1.945 3.37-3.063 6.219l-23.844 61.468c-1.18 3.035-1.937 4.825-1.937 6.97 0 .896.26 1.81.656 2.655h-13.969c.465-.969.782-1.99.782-3.03 0-1.203-.299-1.9-.657-2.938-.349-1.013-.841-2.216-1.468-3.657h.03l-18.374-47.125-2.781-7.093-2.813 7.093-19 47.97-.031.124c-.54 1.205-.974 2.228-1.281 3.094-.32.898-.594 1.487-.594 2.656 0 1.012.346 2.003.844 2.906H240.24c.472-.98.781-2.035.781-3.093 0-1.239-.248-1.722-.562-2.72-.314-.996-.762-2.243-1.344-3.78v-.031l-23.875-61.438c-.004-.01.004-.021 0-.031-1.051-2.717-2.023-4.648-3.187-6.219zm176.718 0h17.844c-.382.818-.625 1.688-.625 2.562 0 1.814.57 3.577 1.469 5.344l.031.063 31.688 64.156c1.09 2.214 2.103 3.83 3.187 5.187h-17.094c.388-.87.625-1.803.625-2.718 0-1.807-.629-3.276-1.53-5.125l-5.72-11.72-.843-1.687h-41.594l-.813 1.72-5.625 11.718c-.868 1.829-1.437 3.394-1.437 5.156 0 .917.265 1.812.687 2.656h-14.187c.817-1.126 1.556-2.435 2.344-4.125l.03-.03 30.626-64c1.078-2.246 1.75-4.136 1.75-6.157 0-1.032-.34-2.055-.813-3zm72.375 0h13.844c-.51 1.081-.844 2.226-.844 3.406v41.563c0 4.911.244 8.6.875 11.343.632 2.746 1.899 5.202 3.75 7.157 4.733 5.028 12.308 7.156 22.188 7.156 9.918 0 17.545-2.124 22.281-7.156v-.031c1.8-1.955 3.028-4.396 3.656-7.125.632-2.744.875-6.432.875-11.344v-41.563c0-1.18-.303-2.324-.812-3.406h12.344c-.51 1.082-.813 2.226-.813 3.406v46.688c0 8.461-1.598 14.44-4.281 18.062-4.966 6.69-15.985 10.625-33.906 10.625-12.943 0-22.582-2.13-28.907-5.969-3.595-2.171-5.92-4.949-7.28-8.593-.004-.01.002-.023 0-.031-1.388-3.808-2.157-8.511-2.157-14.094v-46.688c0-1.18-.303-2.324-.813-3.406zm103.719 0h13.781c-.49 1.062-.78 2.19-.78 3.344v35.5l4.905-4 34.282-28c.906-.744 1.666-1.446 2.28-2.25.616-.805 1.22-1.775 1.22-3.188 0-.491-.267-.94-.438-1.406h19.938c-.782.63-1.074.786-2.25 1.75l-.032.031-4.656 3.875-.031.031-28.281 22.72-2.375 1.937 1.937 2.343 32.094 38.625c2.289 2.76 3.976 4.58 5.469 6H623.52c.143-.425.375-.838.375-1.28 0-1-.256-1.425-.468-1.876-.212-.45-.46-.864-.75-1.312-.583-.898-1.363-1.923-2.375-3.188v-.03l-24.594-30.157-1.906-2.313-2.313 1.907-12.531 10.187-1.094.906v23.75c0 1.18.303 2.325.813 3.407h-13.813c.504-1.079.813-2.232.813-3.407v-70.562c0-1.154-.312-2.28-.813-3.344z" font-size="130.475" font-weight="400" color="#000" fill="#fff" overflow="visible" font-family="Copperplate Gothic Bold"/><path style="text-indent:0;text-align:start;line-height:125%;text-transform:none;block-progression:tb;marker:none;-inkscape-font-specification:'Copperplate Gothic Bold,'" d="m397.646 759.653-2.493 5.488-12.55 27.265-1.805 3.908h33.496l-1.777-3.879-12.378-27.294-2.493-5.488z" font-size="130.475" font-weight="400" color="#000" fill="#fc0" overflow="visible" font-family="Copperplate Gothic Bold"/><path style="text-indent:0;text-align:start;line-height:125%;text-transform:none;block-progression:tb;marker:none;-inkscape-font-specification:'Copperplate Gothic Bold,'" d="m397.618 772.927 8.109 17.87h-16.304l8.195-17.87z" font-size="130.475" font-weight="400" color="#000" fill="#62b9ff" overflow="visible" font-family="Copperplate Gothic Bold"/><path d="M-68.83 818.278V699.61h8.202l49.505 97.777 49.869-97.777h9.261v117.834" fill="none" stroke="#d40000" stroke-width="5.401"/><path d="M97.396 752.919v69.275m41.478-68.107v66.428h57.857" fill="none" stroke="#d40000" stroke-width="3"/><path d="m221.017 755.372 26.429 63.572 30-66.429 29.285 68.572 27.143-68.572" fill="none" stroke="#d40000" stroke-width="3" stroke-linejoin="bevel"/><path d="m362.25 821.8 35.356-70 35.357 70" fill="none" stroke="red" stroke-width="3" stroke-linejoin="bevel"/><path d="M373.588 800.73h48.036m45.801-46.943v50.528s-2.413 19.015 32.936 19.527c34.85.506 32.67-19.37 32.67-19.37v-51.19m38.7.662v68.571m55.179-68.928-55 45m23.393-18.929 35 42.143m103.928-68.393-62.857.714v68.929h62.857m-20-36.429h-42.143m156.786-33.214-62.857.714v68.929h62.857m-19.286-36.429h-42.142" fill="none" stroke="#d40000" stroke-width="3"/><path d="M788.573 622.48a8.207 8.207 0 1 1-16.415 0 8.207 8.207 0 0 1 16.415 0z" fill="#fff" fill-rule="evenodd" stroke="#000d63" stroke-width="3"/><path fill="#000d63" fill-rule="evenodd" d="M776.388 630.434h7.955v9.47h-7.955z"/><path d="M627.517 453.847c-6.616-2.467 2.238 16.608 13.384 16.415 8.755-.152 15.262-3.342 26.264.505 9.154 3.2-5.66-11.261-10.859-14.142-8.433-4.674-9.592 4.38-28.79-2.778zm25.001 29.547c7.74 4.488 15.185 1.492 23.739 2.02 5.254.324 9.017 4.623 11.869 8.586 2.472 3.437 8.595 13.576 3.788 12.122-4.154-1.256-9.743-5.471-16.163-4.293-3.655.671-7.546-.84-10.859-2.525-4.362-2.219-8.63-5.379-11.111-9.597-1.047-1.778-3.12-7.39-1.263-6.313z" fill="#f2f2f2"/><path d="M1486.945 254.206c0 101.536-82.312 183.848-183.848 183.848-101.536 0-183.848-82.312-183.848-183.848 0-101.537 82.311-183.848 183.848-183.848 101.536 0 183.848 82.311 183.848 183.848z" transform="matrix(.89482 0 0 .83697 -791.034 232.522)" fill="none" stroke="#000" stroke-width="4.622" stroke-linecap="round" stroke-linejoin="round"/><path d="M1486.945 254.206c0 101.536-82.312 183.848-183.848 183.848-101.536 0-183.848-82.312-183.848-183.848 0-101.537 82.311-183.848 183.848-183.848 101.536 0 183.848 82.311 183.848 183.848z" transform="matrix(.73508 0 0 .68756 -582.886 270.502)" fill="none" stroke="#000" stroke-width="5.626" stroke-linecap="round" stroke-linejoin="round"/><path fill="#fff" stroke="#000d63" stroke-width="2.912" stroke-linecap="square" d="M363.527 384.282h22.945v21.785h-22.945z"/><path d="M360.268 384.326h29.464" fill="none" stroke="#000d63" stroke-width="3"/><path fill="#000d63" fill-rule="evenodd" d="M351.25 404.505h47.5v248.571h-47.5z"/><path d="M388.571 427.005c0 7.495-6.076 13.571-13.571 13.571s-13.571-6.076-13.571-13.571 6.076-13.571 13.571-13.571 13.571 6.076 13.571 13.571z" fill="#fff" fill-rule="evenodd"/><path d="m374.96 423.656-.813 1.406-.03-.03-3.938 5.53 4.5-2.093 7.718 4.562-7.437-9.375z"/><path d="M356.25 461.112h9.643v23.929h-9.643zm13.928 0h9.643v23.929h-9.643zM356.25 568.195h9.643v18.571h-9.643zm13.928 0h9.643v18.571h-9.643zm13.929 0h9.643v18.571h-9.643zm-27.857-22.529h9.643v18.571h-9.643zm13.928 0h9.643v18.571h-9.643zm13.929 0h9.643v18.571h-9.643zm-27.857-22.531h9.643v18.571h-9.643zm13.928 0h9.643v18.571h-9.643zm13.929 0h9.643v18.571h-9.643zm0-62.023h9.643v23.929h-9.643zm-27.857 43.065h9.643v15h-9.643zm13.928 0h9.643v15h-9.643zm13.929 0h9.643v15h-9.643zm-27.857-12.172h9.643v8.214h-9.643zm13.928 0h9.643v8.214h-9.643zm13.929 0h9.643v8.214h-9.643zm-27.857 98.721h9.643v11.07h-9.643zm13.928 0h9.643v11.07h-9.643zm13.929 0h9.643v11.07h-9.643zm-27.857 15.029h9.643v6.429h-9.643zm13.928 0h9.643v6.429h-9.643zm13.929 0h9.643v6.429h-9.643zM356.25 448.612h37.5v8.75h-37.5zm18.741 176.589a14.44 14.44 0 0 0-14.469 14.47v13.405h3.594v-9.406c0-8.013 4.84-14.469 10.875-14.469s10.906 6.456 10.906 14.47v9.405h3.563V639.67a14.44 14.44 0 0 0-14.469-14.469z" fill="#fff" fill-rule="evenodd"/><path d="m375 391.648 3.845 14.589.109.054h-7.908l3.89-14.643H375z" fill="#000d63"/><path d="M366.295 384.326v-10.982S365.87 361.38 375 361.38s8.705 11.964 8.705 11.964v10.982h-17.41z" fill="#fff" stroke="#000d63" stroke-width="3"/><path d="M363.125 372.184h23.75" fill="none" stroke="#000d63" stroke-width="3"/><path fill="#62b9ff" fill-rule="evenodd" d="M426.5 520.576h54.286v40H426.5z"/><path fill="#000d63" fill-rule="evenodd" d="M397.376 559.108h106.019v93.968H397.376z"/><path d="M425.607 566.826h6.964v8.571h-6.964zm12.554 0h6.964v8.571h-6.964zm12.553 0h6.964v8.571h-6.964zm12.554 0h6.964v8.571h-6.964zm12.553 0h6.964v8.571h-6.964zm12.554 0h6.964v8.571h-6.964zm-50.259 12.321h6.964v8.571h-6.964zm12.565 0h6.964v8.571h-6.964zm12.565 0h6.964v8.571h-6.964zm12.564 0h6.964v8.571h-6.964zm12.565 0h6.964v8.571h-6.964zm-37.527 12.322h6.964v8.571h-6.964zm12.509 0h6.964v8.571h-6.964zm12.509 0h6.964v8.571h-6.964zm12.509 0h6.964v8.571h-6.964zm-24.973 12.322h6.964v8.571h-6.964zm12.486 0h6.964v8.571h-6.964zm12.487 0h6.964v8.571h-6.964zm-84.732-36.965h14.286v20.714h-14.286zm0 49.465h14.286v31.429h-14.286zm72.312-.178h6.964v8.57h-6.964zm12.42 0h6.964v8.57h-6.964zm0 12.321h6.964v8.571h-6.964z" fill="#fff" fill-rule="evenodd"/><path fill="#000d63" fill-rule="evenodd" d="M432.571 483.791h10v76.429h-10zm14.881 11.785h8.571v64.643h-8.571zm13.631 15.358h9.643v49.286h-9.643zm14.703 1.428h8.571v47.857h-8.571z"/><path d="M518.643 563.434h112.5v88.214s.338 60-56.25 60-56.25-60-56.25-60v-88.214z" fill="#fff" stroke="#d40000" stroke-width="6"/><path d="M574.893 563.434h56.25v88.214s.338 60-56.25 60" fill="#d40000"/><path fill="#d40000" fill-rule="evenodd" d="M542.571 505.219h64.643v26.786h-64.643z"/><path fill="#d40000" fill-rule="evenodd" d="M530.071 529.148h89.643v14.286h-89.643z"/><path fill="#d40000" fill-rule="evenodd" d="M535.429 541.291h78.929v12.5h-78.929z"/><path fill="#d40000" fill-rule="evenodd" d="M539 553.434h71.786v7.5H539z"/><path fill="#fff" fill-rule="evenodd" d="M549 509.862h21.429v6.786H549zm0 9.172h7.143v10H549zm-12.5 12.385h22.143v5H536.5zm4.464 7.386h67.857v5.357h-67.857zm3.393 15.486h61.071v5h-61.071zm14.143-35.257h7.143v10H558.5zm9.5 0h7.143v10H568zm9.5 0h7.143v10H577.5zm9.5 0h7.143v10H587zm9.5 0h7.143v10H596.5zm-55.536 27.514h67.857v5.357h-67.857z"/><path fill="#d40000" fill-rule="evenodd" d="M569.536 265.934h10.714v240.714h-10.714z"/><path fill="#d40000" fill-rule="evenodd" d="M555.786 305.576H594v6.071h-38.214z"/><path fill="#fff" fill-rule="evenodd" d="M639.357 624.505h5v9.286h-5zm-35.352-46.545a9.095 9.095 0 0 0-9.094 9.093c0 4.146 2.77 7.625 6.563 8.719v4.938h-6.813v6.562h6.813v15.813c-6.31-.542-8.032-3.438-8.032-3.438l.22-2.906-7.563-4.156c-.163 5.386.035 10.653 2.53 15.375l2.25-2.5s1.503 4.051 12.688 4.28c11.312.233 13.094-4.28 13.094-4.28l2.25 2.5c3.379-5.426 3.604-10.622 2.281-15.375l-7.375 4.156.125 2.906s-1.727 2.633-7.406 3.344v-15.719h6.813v-6.563h-6.813v-4.937c3.779-1.103 6.563-4.584 6.563-8.719a9.095 9.095 0 0 0-9.094-9.093z"/><path d="M551.5 587.005a5.714 5.714 0 1 1-11.429 0 5.714 5.714 0 0 1 11.429 0zm58.214 0a5.714 5.714 0 1 1-11.428 0 5.714 5.714 0 0 1 11.428 0z" fill-rule="evenodd"/><path d="M569.536 259.95c4.896 2.357 6.46 4.714 16.162 7.07 4.301 8.391 7.7 17.783 23.739 13.133-1.673 3.162-2.663 12.418-16.668 8.586-13.642-3.733-10.112-8.305-23.233-7.576V259.95z" fill="#d40000"/><rect width="28.284" height="11.996" x="426.606" y="379.929" ry="5.177" rx="5.177" fill="#fff" fill-rule="evenodd" stroke="#000" stroke-width="1.5" stroke-linecap="round" stroke-linejoin="round"/><path d="M446.936 376.583c0 2.964-2.657 5.367-5.935 5.367-3.277 0-5.935-2.403-5.935-5.367s2.658-5.366 5.935-5.366c3.278 0 5.935 2.402 5.935 5.366z" fill="#fff" fill-rule="evenodd" stroke="#000" stroke-width="1.5" stroke-linecap="round" stroke-linejoin="round"/><path d="M433.93 380.56v11.365m14.142-11.617v11.996" fill="none" stroke="#000" stroke-width="3"/><path d="M1564.979 174.404c0 1.325-2.46 2.399-5.493 2.399-3.034 0-5.493-1.074-5.493-2.4 0-1.324 2.46-2.398 5.493-2.398 3.034 0 5.493 1.074 5.493 2.399z" transform="matrix(1.1394 0 0 .97703 -1335.869 202.333)" fill="#fff" fill-rule="evenodd" stroke="#000" stroke-width="1.422" stroke-linecap="round" stroke-linejoin="round"/><path d="M436.579 372.198s-.66-4.356 4.611-4.109c5.398.253 4.612 4.109 4.612 4.109" fill="#fff" stroke="#000" stroke-width="1.5" stroke-linecap="round"/><path d="m404.677 386 36.072 29.287L476.819 386h-72.142z" fill="#000d63"/><path d="M455.234 391.4c-2.302.115-5.969 2.407-5.969 2.407l-4.625-.032c-.222-.4-.976-.969-1.906-1.218a.795.795 0 0 0 .031-.25c0-.445-.367-.782-.812-.782-.445 0-.813.337-.813.782 0 .077.012.148.032.218-1.235.317-2.125 1.282-2.125 1.282h-6.75l-3.75-.844s-.365 3.544 4.968 4.062c1.201 1.569 2.113 2 3.157 2.407-.696.58-.878 1.278-.875 2.218l11.312.032s.172-1.452-1.187-2.344c5.926-.815 4.38-6.048 9.343-6.344.963.148-2.593 2.219-2.593 2.219s-2.988 2.114-1.625 3.187c1.082.853 1.57-.525 1.718-1.562.149-1.037 4.792-1.693 4.125-4.656-.277-.612-.888-.82-1.656-.782z" fill="#fcc917" fill-rule="evenodd"/><path d="M462.088 384.304c0 11.786-9.554 21.34-21.34 21.34-11.785 0-21.339-9.554-21.339-21.34 0-11.785 9.554-21.339 21.34-21.339 11.785 0 21.339 9.554 21.339 21.34z" fill="none" stroke="#000d63" stroke-width="3" stroke-linecap="round" stroke-linejoin="round"/><path d="m413.112 368.23 5.08 3.158m2.793-11.249 3.233 4.388" fill="none" stroke="#000d63" stroke-width="2" stroke-linecap="round"/><path d="m430.197 353.888 1.844 5.967" fill="none" stroke="#000d63" stroke-width="2.5" stroke-linecap="round"/><path d="M440.749 350.644v7.321" fill="none" stroke="#000d63" stroke-width="3" stroke-linecap="round"/><path d="m469.9 367.474-6.341 3.66m-2.357-11.26-3.809 4.54" fill="none" stroke="#000d63" stroke-width="2" stroke-linecap="round"/><path d="m451.545 354.173-2.056 5.649" fill="none" stroke="#000d63" stroke-width="2.5" stroke-linecap="round"/><path d="m410.228 378.31 4.731 1.57" fill="none" stroke="#000d63" stroke-width="2" stroke-linecap="round"/><path d="M441.805 383.79a.804.804 0 1 1-1.608 0 .804.804 0 1 1 1.608 0zm0 2.01a.804.804 0 1 1-1.608 0 .804.804 0 1 1 1.608 0z" fill-rule="evenodd"/><path d="M275.617 414.195c2.987-6.577-1.319-12.373 12.542-20.116l15.23-5.7 11.291 7.423c-1.555 2.25-2.197 5.2-2.252 7.236 1.857 3.611 2.972 7.52 3.747 11.564" fill="#fff" stroke="#000" stroke-width="1.5"/><path d="M300.945 390.903c.467 2.333 2.24 13.28 3.014 20.36 0 0-.607 1.856 1.384 1.955 1.989.099.862-11.14.163-19.871-.208-2.594 1.624-5.02 3.095-7.167 1.356-1.98 5.732-2.727 5.13-5.05 0 0-.29-5.704-1.791-6.922-4.538-3.681-11.728 13.03-11.728 13.03l.733 3.665z"/><path d="M315.686 372.253c2.197-.45 5.964.164 10.587-.162 0 0 5.097-5.053 4.072-10.588-1.025-5.534-9.193-12.62-14.008-13.519-4.814-.898-7.337 2.014-7.818 1.955-7.694-.53-8.958 5.05-8.958 5.05-6.934-.348-9.459 6.799-8.633 6.84-7.4.705-9.338 9.026-8.633 8.959-4.632 1.069-2.981 7.09-2.606 7.003-1.63.327-4.515 4.245-2.932 5.864-3.14 1.807-3.147 5.764-1.791 6.678 7.785-1.436 13.474.255 16.94 3.42 3.288 3.005 13.164-10.385 18.73-17.102 1.236-1.84 2.624-3.901 5.05-4.398z" fill="#fff" stroke="#000" stroke-width="1.5"/><path d="M327.997 356.607c-3.031-4.153-8.208-7.979-11.66-8.623-4.814-.898-7.337 2.014-7.818 1.955-7.694-.53-8.958 5.05-8.958 5.05-6.934-.348-9.459 6.799-8.633 6.84-7.4.705-9.338 9.026-8.633 8.959-4.632 1.069-2.981 7.09-2.606 7.003-1.63.327-4.515 4.245-2.932 5.864-3.14 1.807-3.147 5.764-1.791 6.678 3.174-.585 5.999-.65 8.467-.309.808-.761-1.22-2.557 2.422-6.403-.83-1.495.065-4.38 2.612-6.328-.529-2.119-.074-4.084 5.553-7.649.223-3.322 1.345-3.79 8.032-6.048 1.017-2.88 4.309-3.9 9.036-3.838 1.197-1.967 2.854-3.691 9.156-2.178 1.322-2.763 4.919-.889 7.753-.973z" fill="#d40000"/><path d="M324.644 377.71a1.792 1.059 0 1 1-3.583 0 1.792 1.059 0 1 1 3.583 0z"/><path d="m290.684 405.725 2.036 1.466.488-12.541-1.058-.815-1.466 11.89z" stroke="#000" stroke-width="1.5"/><path d="M308.682 349.939c9.5 2.434 11.909 7.97 14.66 13.356m-23.782-8.307c10.118-.838 11.68 5.44 14.823 9.936m-23.536-3.094c10.646-.163 12.634 2.234 13.926 5.048m-22.477 3.91c10.792-3.675 13.613-.191 17.753 1.954m-20.604 4.887c7.226-1.165 12.011.03 14.904 1.465m-17.754 4.886c4.817-.694 8.683-1.15 14.333.652" fill="none" stroke="#000" stroke-width="1.5" stroke-linecap="round"/><path d="M315.686 372.253c2.197-.45 5.964.164 10.587-.162 0 0 5.097-5.053 4.072-10.588-1.025-5.534-9.193-12.62-14.008-13.519-4.814-.898-7.337 2.014-7.818 1.955-7.694-.53-8.958 5.05-8.958 5.05-6.934-.348-9.459 6.799-8.633 6.84-7.4.705-9.338 9.026-8.633 8.959-4.632 1.069-2.981 7.09-2.606 7.003-1.63.327-4.515 4.245-2.931 5.864-3.14 1.807-3.148 5.764-1.792 6.678 7.785-1.436 13.474.255 16.94 3.42 3.288 3.005 13.164-10.385 18.73-17.102 1.236-1.84 2.624-3.901 5.05-4.398z" fill="none" stroke="#000" stroke-width="1.5"/></g></svg>