<svg xmlns="http://www.w3.org/2000/svg" width="600" height="400" overflow="visible"><path fill="#55BCFF" d="M0 0h600v400H0z"/><path fill="none" stroke="#1C5BA2" stroke-width="5.381" d="M575.14 292.419c0 10.032-8.133 18.164-18.163 18.164H43.024c-10.032 0-18.164-8.132-18.164-18.164V114.823c0-10.031 8.131-18.164 18.164-18.164h513.953c10.03 0 18.163 8.132 18.163 18.164v177.596z"/><path fill="#1C5BA2" d="M197.757 256.496l12.755 37.945H557.58v-37.945z"/><g fill="#1C5BA2"><path d="M214.462 185.697c0 5.443-.364 9.254-1.091 11.432-.727 2.177-2 4.124-3.817 5.838-1.852 1.749-4.307 3.209-7.363 4.381-3.058 1.17-6.553 2.004-10.487 2.498 4.494-3.166 7.616-6.375 9.368-9.624 1.751-3.25 2.627-8.092 2.627-14.525V130.27c0-3.463-.312-6.019-.936-7.668-.624-1.648-1.657-3.117-3.101-4.403h18.834c-1.477 1.286-2.519 2.755-3.126 4.403-.607 1.649-.91 4.206-.91 7.668v55.427h.002zM277.994 186.92v-5.27c-3.369 2.409-6.752 4.206-10.154 5.394a31.325 31.325 0 0 1-10.4 1.782c-4.029 0-7.611-.66-10.749-1.979-3.137-1.319-5.844-3.298-8.122-5.937-1.783-2.078-3.063-4.493-3.838-7.247-.776-2.754-1.165-6.456-1.165-11.106v-32.294c0-3.461-.308-6.017-.922-7.665s-1.653-3.116-3.113-4.401h18.834c-1.462 1.286-2.5 2.753-3.115 4.401s-.921 4.204-.921 7.665v30.167c0 4.714.231 8.209.694 10.484.462 2.275 1.239 4.088 2.33 5.439 1.322 1.616 3.082 2.829 5.28 3.636 2.199.808 4.835 1.211 7.909 1.211 2.512 0 4.859-.371 7.041-1.112 2.182-.741 4.098-1.822 5.752-3.24 1.454-1.187 2.495-2.728 3.123-4.624s.942-4.475.942-7.74v-34.223c0-3.592-.298-6.188-.896-7.788-.597-1.6-1.625-3.025-3.083-4.279h18.834c-1.444 1.253-2.478 2.753-3.102 4.501-.624 1.747-.935 4.269-.935 7.565v44.459c0 3.471.311 6.041.935 7.71.624 1.669 1.657 3.165 3.102 4.486h-14.261v.005zM369.592 118.198c-1.477 1.286-2.52 2.755-3.127 4.403-.604 1.649-.909 4.206-.909 7.668v58.22c-2.402-.067-4.683-.841-6.838-2.322-2.156-1.482-4.862-4.299-8.121-8.45l-35.545-44.727v41.758c0 3.595.298 6.201.896 7.817.596 1.617 1.625 3.068 3.084 4.354h-15.584c1.444-1.319 2.478-2.811 3.102-4.477.623-1.666.936-4.23.936-7.693V130.27c0-3.463-.313-6.019-.936-7.668-.624-1.648-1.657-3.117-3.102-4.403h13.961l40.691 51.604V130.27c0-3.463-.312-6.019-.936-7.668-.623-1.648-1.657-3.117-3.101-4.403l15.529-.001zM380.805 186.92c1.442-1.319 2.477-2.811 3.101-4.477.623-1.666.935-4.23.935-7.694v-44.497c0-3.458-.312-6.01-.935-7.657-.624-1.646-1.657-3.112-3.101-4.396h37.667v10.762a16.537 16.537 0 0 0-5.555-2.866c-2.017-.593-4.348-.89-6.992-.89-1.355 0-2.877.108-4.563.321a79.026 79.026 0 0 0-5.703.964v19.455h16.815v9.978c-.793-.923-1.862-1.574-3.216-1.953-1.353-.379-3.825-.569-7.418-.569h-6.183v24.602c2.608.395 4.972.69 7.087.887 2.114.198 3.948.296 5.501.296 3.503 0 6.808-.468 9.913-1.404 3.104-.937 6.161-2.374 9.17-4.313l-4.8 13.453h-41.725v-.002zM439.041 177.618a10.83 10.83 0 0 0-.668 2.153 11.668 11.668 0 0 0-.223 2.301c0 .66.237 1.385.717 2.177.479.792 1.246 1.683 2.302 2.672h-16.255c1.354-.923 2.568-2.193 3.642-3.81 1.075-1.616 2.173-3.826 3.297-6.63l19.371-49.035c.396-.923.693-1.83.893-2.72.198-.89.298-1.682.298-2.374 0-.791-.191-1.516-.571-2.175-.379-.659-.998-1.319-1.854-1.979h15.65l21.869 57.589c1.021 2.607 2.116 4.727 3.287 6.359 1.17 1.632 2.677 3.224 4.523 4.774h-19.676l.246-.247c1.813-1.913 2.722-3.315 2.722-4.206 0-1.056-.396-2.606-1.188-4.652a9.552 9.552 0 0 0-.247-.742l-5.892-15.883h-25.655l-6.588 16.428zm9.311-23.321h20.308l-9.757-26.555-10.551 26.555zM543.318 186.92v-5.27c-3.367 2.409-6.752 4.206-10.152 5.394a31.325 31.325 0 0 1-10.4 1.782c-4.028 0-7.61-.66-10.749-1.979-3.137-1.319-5.845-3.298-8.122-5.937-1.781-2.078-3.063-4.493-3.839-7.247-.775-2.754-1.164-6.456-1.164-11.106v-32.294c0-3.461-.307-6.017-.922-7.665-.614-1.648-1.651-3.116-3.114-4.401h18.836c-1.463 1.286-2.5 2.753-3.115 4.401-.614 1.648-.921 4.204-.921 7.665v30.167c0 4.714.229 8.209.692 10.484s1.24 4.088 2.331 5.439c1.322 1.616 3.082 2.829 5.28 3.636 2.199.808 4.834 1.211 7.909 1.211 2.512 0 4.857-.371 7.041-1.112 2.181-.742 4.098-1.822 5.751-3.24 1.455-1.187 2.495-2.728 3.123-4.624.629-1.896.941-4.475.941-7.74v-34.223c0-3.592-.299-6.188-.896-7.788-.598-1.6-1.625-3.025-3.084-4.279h18.834c-1.443 1.253-2.478 2.753-3.103 4.501-.622 1.747-.934 4.269-.934 7.565v44.459c0 3.471.311 6.041.934 7.71.625 1.669 1.658 3.165 3.103 4.486h-14.261v.005z"/></g><g fill="#1C5BA2"><path d="M252.463 232.547c-.085.199-.149.405-.192.619s-.064.434-.064.661c0 .19.069.397.207.626.137.229.358.484.662.77h-4.653c.389-.266.735-.631 1.043-1.097.308-.464.622-1.101.943-1.905l5.544-14.072c.113-.266.198-.526.255-.781.057-.256.085-.483.085-.684 0-.227-.054-.436-.163-.623a2.035 2.035 0 0 0-.532-.568h4.479l6.277 16.529c.294.75.609 1.358.946 1.828.336.469.77.928 1.301 1.373h-5.661l.071-.07c.521-.551.782-.954.782-1.211 0-.303-.114-.748-.342-1.338a2.466 2.466 0 0 0-.071-.213l-1.688-4.567h-7.342l-1.887 4.723zm2.668-6.686h5.812l-2.792-7.629-3.02 7.629zM269.033 235.223c.421-.381.722-.809.905-1.287.182-.479.272-1.215.272-2.211v-12.769c0-.993-.091-1.728-.272-2.2a3.202 3.202 0 0 0-.905-1.265h5.438a3.072 3.072 0 0 0-.912 1.265c-.177.473-.266 1.207-.266 2.2v13.71a41.32 41.32 0 0 0 2.06.257c.606.056 1.132.085 1.578.085.994 0 1.941-.136 2.842-.406.9-.271 1.776-.687 2.629-1.246l-1.376 3.867h-11.993zM285.502 232.547c-.085.199-.149.405-.192.619s-.064.434-.064.661c0 .19.068.397.206.626.138.229.358.484.662.77h-4.652c.388-.266.735-.631 1.042-1.097.308-.464.623-1.101.943-1.905l5.544-14.072c.113-.266.198-.526.255-.781a3.24 3.24 0 0 0 .085-.684c0-.227-.055-.436-.163-.623-.108-.188-.286-.379-.531-.568h4.479l6.277 16.529c.293.75.609 1.358.946 1.828.336.469.771.928 1.302 1.373h-5.662l.071-.07c.521-.551.783-.954.783-1.211 0-.303-.114-.748-.341-1.338a2.875 2.875 0 0 0-.071-.213l-1.688-4.567h-7.342l-1.889 4.723zm2.667-6.686h5.812l-2.792-7.629-3.02 7.629zM302.033 234.789l-.938-3.575c1.145.767 2.256 1.336 3.334 1.71s2.146.561 3.205.561c1.354 0 2.44-.291 3.264-.873.821-.582 1.234-1.338 1.234-2.266 0-.265-.044-.529-.128-.795a2.931 2.931 0 0 0-.368-.752c-.358-.54-1.564-1.313-3.618-2.316-.521-.246-.923-.44-1.206-.582-1.92-.967-3.236-1.857-3.951-2.672-.713-.814-1.07-1.781-1.07-2.899 0-1.601.652-2.873 1.961-3.815 1.309-.941 3.1-1.414 5.372-1.414.654 0 1.374.043 2.16.129.786.084 1.64.215 2.558.395v3.316c-.813-.621-1.632-1.084-2.455-1.391a7.31 7.31 0 0 0-2.568-.46c-1.126 0-2.032.243-2.719.728-.687.483-1.029 1.115-1.029 1.896 0 .692.27 1.306.808 1.837s1.745 1.244 3.623 2.137c.104.047.266.123.483.229 1.591.729 2.779 1.4 3.566 2.018a4.796 4.796 0 0 1 1.371 1.661c.326.652.49 1.349.49 2.087 0 1.694-.776 3.131-2.329 4.311s-3.495 1.768-5.823 1.768c-.748 0-1.553-.08-2.414-.24-.864-.17-1.8-.411-2.813-.733zM322.232 231.729c0 .994.09 1.729.267 2.209.177.478.479.906.911 1.285h-5.438c.421-.379.724-.809.905-1.285.182-.479.272-1.215.272-2.209v-12.771c0-.994-.092-1.729-.272-2.201a3.212 3.212 0 0 0-.905-1.265h5.438a3.06 3.06 0 0 0-.911 1.265c-.177.473-.267 1.207-.267 2.201v12.771zm.49-6.863l4.576-6.164c.322-.437.56-.802.71-1.095.151-.293.229-.539.229-.738 0-.219-.063-.439-.187-.668s-.307-.465-.553-.71h4.938l-6.356 8.821 5.79 8.168c.228.332.551.72.973 1.164.421.444.958.972 1.612 1.576h-1.663c-1.061 0-1.93-.199-2.61-.604-.683-.401-1.477-1.258-2.385-2.563l-5.074-7.187z"/><path d="M335.267 232.547a3.019 3.019 0 0 0-.191.619 3.345 3.345 0 0 0-.064.661c0 .19.069.397.206.626.14.229.358.484.662.77h-4.652c.389-.266.736-.631 1.043-1.097.309-.464.622-1.101.943-1.905l5.544-14.072c.113-.266.198-.526.255-.781.057-.256.085-.483.085-.684 0-.227-.055-.436-.162-.623-.108-.188-.285-.379-.531-.568h4.479l6.277 16.529c.294.75.608 1.358.944 1.828.337.469.771.928 1.303 1.373h-5.661l.07-.07c.521-.551.782-.954.782-1.211 0-.303-.113-.748-.342-1.338a3.448 3.448 0 0 0-.071-.213l-1.688-4.567h-7.342l-1.889 4.723zm2.667-6.686h5.813l-2.792-7.629-3.021 7.629zM350.438 218.434c-.488-.058-.879-.229-1.165-.52-.288-.288-.432-.653-.432-1.1 0-.51.165-.941.498-1.295.331-.355.73-.533 1.196-.533.504 0 .916.188 1.239.568.321.377.483.873.483 1.487 0 .597-.18 1.222-.538 1.879-.357.656-.887 1.315-1.585 1.979l-1.295-.113c.46-.521.811-.963 1.05-1.327a5.32 5.32 0 0 0 .549-1.025zM356.397 234.789l-.938-3.575c1.146.767 2.257 1.336 3.335 1.71s2.146.561 3.205.561c1.353 0 2.44-.291 3.263-.873.823-.582 1.234-1.338 1.234-2.266 0-.265-.042-.529-.127-.795a2.9 2.9 0 0 0-.368-.752c-.359-.54-1.565-1.313-3.618-2.316-.521-.246-.923-.44-1.206-.582-1.92-.967-3.237-1.857-3.951-2.672s-1.07-1.781-1.07-2.899c0-1.601.652-2.873 1.962-3.815 1.308-.941 3.098-1.414 5.371-1.414a20 20 0 0 1 2.16.129c.785.084 1.64.215 2.559.395v3.316c-.813-.621-1.633-1.084-2.455-1.391a7.326 7.326 0 0 0-2.57-.46c-1.126 0-2.031.243-2.718.728-.687.483-1.03 1.115-1.03 1.896 0 .692.271 1.306.809 1.837s1.745 1.244 3.624 2.137c.104.047.265.123.481.229 1.593.729 2.781 1.4 3.567 2.018a4.796 4.796 0 0 1 1.371 1.661c.327.652.491 1.349.491 2.087 0 1.694-.777 3.131-2.33 4.311-1.554 1.18-3.494 1.768-5.823 1.768-.747 0-1.553-.08-2.415-.24a25.8 25.8 0 0 1-2.813-.733zM397.758 231.271l-1.481 3.547c-.929.304-1.799.531-2.612.683-.813.149-1.589.228-2.327.228-1.098 0-2.167-.144-3.207-.427a11.621 11.621 0 0 1-2.952-1.265 9.198 9.198 0 0 1-3.449-3.622c-.822-1.534-1.234-3.226-1.234-5.072 0-1.383.298-2.727.895-4.032a10.783 10.783 0 0 1 2.541-3.48 10.392 10.392 0 0 1 3.436-2.096 11.687 11.687 0 0 1 4.115-.719c.689 0 1.415.063 2.179.191.762.128 1.577.323 2.448.589v3.172c-.891-.477-1.729-.829-2.524-1.059a8.363 8.363 0 0 0-2.325-.343c-2.202 0-3.968.682-5.296 2.047-1.327 1.363-1.99 3.175-1.99 5.431 0 2.474.688 4.472 2.063 5.992 1.376 1.521 3.185 2.28 5.427 2.28.916 0 1.895-.168 2.929-.504 1.03-.337 2.152-.85 3.364-1.541zM401.415 232.547a3.15 3.15 0 0 0-.255 1.28c0 .19.069.397.207.626.137.229.357.484.662.77h-4.652c.388-.266.734-.631 1.043-1.097.307-.464.621-1.101.943-1.905l5.544-14.072c.111-.266.197-.526.254-.781.057-.256.086-.483.086-.684 0-.227-.056-.436-.163-.623a2.035 2.035 0 0 0-.532-.568h4.479l6.276 16.529c.294.75.609 1.358.945 1.828.337.469.771.928 1.303 1.373h-5.662l.07-.07c.521-.551.783-.954.783-1.211 0-.303-.113-.748-.341-1.338a4.309 4.309 0 0 0-.071-.213l-1.689-4.567h-7.342l-1.888 4.723zm2.667-6.686h5.812l-2.79-7.629-3.022 7.629zM422.244 231.725c0 .996.088 1.732.265 2.213.177.478.481.906.913 1.285h-5.438c.421-.379.722-.809.902-1.285.183-.479.273-1.217.273-2.213v-12.769c0-.993-.092-1.728-.273-2.2a3.194 3.194 0 0 0-.902-1.265h7.084c2.147 0 3.858.489 5.132 1.47 1.271.979 1.91 2.283 1.91 3.911 0 1.601-.583 2.894-1.747 3.877s-2.707 1.478-4.628 1.478c-.322 0-.669-.02-1.043-.058a16.09 16.09 0 0 1-1.188-.167c1.771-.332 3.109-.898 4.019-1.697.907-.801 1.362-1.815 1.362-3.047 0-1.137-.396-2.035-1.188-2.699-.792-.662-1.867-.992-3.224-.992-.294 0-.628.021-1.002.063-.375.043-.784.107-1.229.191l.002 13.904zM439.139 231.729c0 .994.088 1.729.267 2.209.177.478.479.906.911 1.285h-5.438a3.18 3.18 0 0 0 .912-1.285c.177-.479.266-1.215.266-2.209v-12.771c0-.994-.089-1.729-.266-2.201a3.07 3.07 0 0 0-.912-1.265h5.438a3.06 3.06 0 0 0-.911 1.265c-.179.473-.267 1.207-.267 2.201v12.771zM451.305 231.725c0 .996.092 1.732.272 2.211.181.479.482.906.905 1.287h-5.438c.43-.381.734-.809.911-1.287.177-.478.265-1.215.265-2.211V217.65h-1.601c-1.093 0-1.979.084-2.657.252-.68.168-1.222.438-1.627.813l.977-3.224h14.103l-.921 3.167a2.575 2.575 0 0 0-1.155-.764c-.476-.164-1.08-.246-1.807-.246h-2.228l.001 14.077zM459.811 232.547c-.085.199-.147.405-.19.619s-.063.434-.063.661c0 .19.067.397.206.626.138.229.357.484.662.77h-4.651c.388-.266.733-.631 1.042-1.097.308-.464.621-1.101.942-1.905l5.544-14.072c.113-.266.198-.526.256-.781a3.17 3.17 0 0 0 .084-.684c0-.227-.054-.436-.163-.623-.107-.188-.285-.379-.531-.568h4.479l6.276 16.529c.294.75.609 1.358.947 1.828.336.469.77.928 1.301 1.373h-5.661l.071-.07c.521-.551.78-.954.78-1.211 0-.303-.112-.748-.341-1.338a2.537 2.537 0 0 0-.07-.213l-1.688-4.567H461.7l-1.889 4.723zm2.668-6.686h5.813l-2.793-7.629-3.02 7.629zM476.381 235.223c.421-.381.723-.809.904-1.287.181-.478.271-1.215.271-2.211v-12.769c0-.993-.091-1.728-.271-2.2a3.21 3.21 0 0 0-.904-1.265h5.438a3.07 3.07 0 0 0-.911 1.265c-.179.473-.267 1.207-.267 2.2v13.71c.769.113 1.455.199 2.062.257a17.46 17.46 0 0 0 1.577.085c.995 0 1.941-.136 2.842-.406s1.776-.687 2.63-1.246l-1.377 3.867h-11.994zM516.837 231.271l-1.481 3.547c-.93.304-1.799.531-2.612.683-.813.149-1.589.228-2.327.228-1.099 0-2.167-.144-3.208-.427a11.615 11.615 0 0 1-2.951-1.265 9.19 9.19 0 0 1-3.449-3.622c-.823-1.534-1.234-3.226-1.234-5.072 0-1.383.298-2.727.895-4.032a10.74 10.74 0 0 1 2.54-3.48 10.407 10.407 0 0 1 3.437-2.096 11.676 11.676 0 0 1 4.113-.719 13.2 13.2 0 0 1 2.181.191 19.42 19.42 0 0 1 2.447.589v3.172c-.89-.477-1.73-.829-2.523-1.059a8.373 8.373 0 0 0-2.325-.343c-2.202 0-3.968.682-5.296 2.047-1.327 1.363-1.991 3.175-1.991 5.431 0 2.474.688 4.472 2.064 5.992 1.375 1.521 3.185 2.28 5.427 2.28.916 0 1.895-.168 2.929-.504 1.029-.337 2.152-.85 3.364-1.541zM523.404 231.729c0 .994.088 1.729.265 2.209.177.478.481.906.911 1.285h-5.436c.43-.379.732-.809.909-1.285.178-.479.267-1.215.267-2.209v-12.771c0-.994-.089-1.729-.267-2.201a3.08 3.08 0 0 0-.909-1.265h5.436c-.43.368-.734.791-.911 1.265-.177.473-.265 1.207-.265 2.201v12.771zM535.569 231.725c0 .996.091 1.732.271 2.211a3.3 3.3 0 0 0 .905 1.287h-5.438c.432-.381.734-.809.911-1.287.178-.479.268-1.215.268-2.211V217.65h-1.604c-1.093 0-1.979.084-2.657.252-.68.168-1.222.438-1.627.813l.978-3.224h14.103l-.922 3.167a2.57 2.57 0 0 0-1.155-.764c-.477-.164-1.078-.246-1.807-.246h-2.227l.001 14.077z"/><path d="M550.826 231.729c0 .994.09 1.729.271 2.209.183.478.483.906.905 1.285h-5.466c.43-.379.734-.809.911-1.285.178-.479.266-1.215.266-2.209v-5.441l-4.825-7.827a12.445 12.445 0 0 0-1.194-1.61 10.832 10.832 0 0 0-1.436-1.356h4.354l5.119 8.595 3.459-5.598a6.18 6.18 0 0 0 .475-.93c.109-.28.163-.521.163-.72 0-.227-.069-.45-.205-.674-.137-.224-.347-.446-.63-.675h4.586l-6.754 10.854v5.382h.001z"/></g><path fill="#55BCFF" d="M74.645 176.568l44.821-110.36 13.937-7.156 45.199 132.207-110.362 3.767z"/><path fill="#019700" d="M196.577 294.441L126.729 81.968 99.937 168.3l-9.923-29.77-49.388 155.911z"/><g fill="#55BCFF"><circle cx="558.552" cy="255.13" r="6.021"/><circle cx="546.518" cy="255.13" r="6.021"/><circle cx="534.484" cy="255.13" r="6.021"/><circle cx="522.449" cy="255.13" r="6.021"/><circle cx="510.415" cy="255.13" r="6.021"/><circle cx="498.38" cy="255.13" r="6.021"/><circle cx="197.529" cy="255.13" r="6.021"/><circle cx="209.563" cy="255.13" r="6.021"/><circle cx="221.597" cy="255.13" r="6.021"/><circle cx="486.347" cy="255.13" r="6.021"/><circle cx="474.313" cy="255.13" r="6.021"/><circle cx="462.279" cy="255.13" r="6.021"/><circle cx="450.245" cy="255.13" r="6.021"/><circle cx="438.21" cy="255.13" r="6.021"/><circle cx="426.177" cy="255.13" r="6.021"/><circle cx="414.142" cy="255.13" r="6.021"/><circle cx="402.108" cy="255.13" r="6.021"/><circle cx="390.075" cy="255.13" r="6.021"/><circle cx="378.042" cy="255.13" r="6.021"/><circle cx="366.007" cy="255.13" r="6.021"/><circle cx="353.972" cy="255.13" r="6.021"/><circle cx="341.938" cy="255.13" r="6.021"/><circle cx="329.904" cy="255.13" r="6.021"/><circle cx="317.87" cy="255.13" r="6.021"/><circle cx="305.836" cy="255.13" r="6.021"/><circle cx="293.802" cy="255.13" r="6.021"/><circle cx="281.768" cy="255.13" r="6.021"/><circle cx="269.733" cy="255.13" r="6.021"/><circle cx="257.699" cy="255.13" r="6.021"/><circle cx="245.666" cy="255.13" r="6.021"/><circle cx="233.631" cy="255.13" r="6.021"/></g><path fill="#F6CC28" stroke="#1C5BA2" stroke-width="1.999" d="M227.473 234.549l13.637-9.964h-16.903l-5.213-15.896-5.212 15.896h-16.903l13.636 9.964-5.343 16.299 13.822-10.103 13.823 10.103z"/></svg>