<svg xmlns="http://www.w3.org/2000/svg" width="800" height="480" version="1" xmlns:cgf="https://coding.garden/flags"><metadata id="cgf-metadata">

<cgf:flag>
  <cgf:name>Trenton</cgf:name>
  <cgf:route>us/nj/trenton</cgf:route>
  <cgf:aspect-ratio>1.6666666666666667</cgf:aspect-ratio>
</cgf:flag>

</metadata><path style="marker:none" fill="#002673" fill-rule="evenodd" overflow="visible" d="M0 0h400v480H0z"></path><path style="marker:none" fill="#f5dc0f" fill-rule="evenodd" overflow="visible" d="M400 0h400v480H400z"></path><path d="M567.918 240a167.918 167.918 0 1 1-335.836 0 167.918 167.918 0 1 1 335.836 0z" style="marker:none" fill="#fff" fill-rule="evenodd" overflow="visible"></path><g stroke="#000" stroke-width=".75" stroke-linecap="round" stroke-linejoin="round" fill-rule="evenodd"><path d="M483.98 209.566c3.016 0 4.94 2.386 5.157 4.625 2.232.224 4.593 2.14 4.593 5.156 0 3.015-2.358 4.936-4.593 5.156-.221 2.236-2.141 4.625-5.157 4.625-3.015 0-4.938-2.386-5.156-4.625-2.232-.224-4.625-2.14-4.625-5.156 0-3.015 2.391-4.936 4.625-5.156.22-2.234 2.141-4.625 5.156-4.625zm-.03 3.031c-1.066 0-2.15.659-2.188 2.156-.02.732.08 1.577-.375 2.032-.455.455-1.3.355-2.032.375-1.497.039-2.156 1.122-2.156 2.187 0 1.065.659 2.148 2.156 2.188.733.019 1.575-.051 2.032.406.457.457.356 1.299.375 2.031.039 1.498 1.122 2.156 2.187 2.156 1.065 0 2.149-.658 2.188-2.156.019-.732-.082-1.574.375-2.031.457-.457 1.299-.356 2.031-.375 1.497-.04 2.187-1.123 2.187-2.188 0-1.065-.69-2.148-2.187-2.187-.732-.02-1.574.05-2.031-.406-.457-.458-.356-1.3-.375-2.032-.04-1.497-1.123-2.156-2.188-2.156z"></path><path d="M483.98 229.128c3.016 0 4.94 2.387 5.157 4.625 2.232.224 4.593 2.141 4.593 5.157 0 3.015-2.358 4.935-4.593 5.156-.221 2.235-2.141 4.625-5.157 4.625-3.015 0-4.938-2.387-5.156-4.625-2.232-.224-4.625-2.141-4.625-5.156 0-3.016 2.391-4.937 4.625-5.157.22-2.234 2.141-4.625 5.156-4.625zm-.03 3.032c-1.066 0-2.15.658-2.188 2.156-.02.732.08 1.576-.375 2.031-.455.455-1.3.356-2.032.375-1.497.04-2.156 1.123-2.156 2.188 0 1.065.659 2.148 2.156 2.187.733.02 1.575-.05 2.032.406.457.458.356 1.3.375 2.032.039 1.497 1.122 2.156 2.187 2.156 1.065 0 2.149-.659 2.188-2.156.019-.732-.082-1.575.375-2.032.457-.457 1.299-.355 2.031-.375 1.497-.039 2.187-1.122 2.187-2.187 0-1.065-.69-2.148-2.187-2.188-.732-.019-1.574.051-2.031-.406-.457-.457-.356-1.299-.375-2.031-.04-1.498-1.123-2.156-2.188-2.156z"></path><path d="M483.965 224.116c-.827 0-1.492.665-1.492 1.492v7.066c0 .827.665 1.492 1.492 1.492s1.492-.665 1.492-1.492v-7.066c0-.827-.665-1.492-1.492-1.492z" style="marker:none" overflow="visible"></path><path d="M483.98 248.683c3.016 0 4.94 2.387 5.157 4.625 2.232.224 4.593 2.141 4.593 5.156 0 3.015-2.358 4.936-4.593 5.157-.221 2.235-2.141 4.625-5.157 4.625-3.015 0-4.938-2.387-5.156-4.625-2.232-.225-4.625-2.142-4.625-5.157s2.391-4.936 4.625-5.156c.22-2.234 2.141-4.625 5.156-4.625zm-.03 3.031c-1.066 0-2.15.66-2.188 2.157-.02.732.08 1.576-.375 2.03-.455.456-1.3.357-2.032.376-1.497.039-2.156 1.122-2.156 2.187 0 1.065.659 2.149 2.156 2.188.733.019 1.575-.051 2.032.406.457.457.356 1.3.375 2.031.039 1.498 1.122 2.157 2.187 2.157 1.065 0 2.149-.66 2.188-2.157.019-.732-.082-1.574.375-2.03.457-.458 1.299-.357 2.031-.376 1.497-.04 2.187-1.122 2.187-2.187 0-1.066-.69-2.149-2.187-2.188-.732-.02-1.574.051-2.031-.406-.457-.457-.356-1.3-.375-2.031-.04-1.498-1.123-2.157-2.188-2.157z"></path><path style="marker:none" d="M483.965 243.67c-.827 0-1.492.666-1.492 1.492v7.067c0 .827.665 1.492 1.492 1.492s1.492-.665 1.492-1.492v-7.067c0-.826-.665-1.492-1.492-1.492z" overflow="visible"></path><path d="M484.043 198.503c2.731.046 5.329 2.167 5.437 5.282a5.561 5.561 0 0 1-1.28 3.75c-.949 1.145-2.527 1.98-4.47 2.03-3.525.095-6.54-.924-10.53-3.03-3.667 1.353-10.206 1.506-13.939-.661a1.51 1.51 0 0 1 1.25-2.75c2.899 1.334 9.138 1.741 12.22.442a1.5 1.5 0 0 1 1.28.062c4.17 2.271 6.496 3.022 9.657 2.938 1.192-.032 1.795-.426 2.219-.938.423-.511.612-1.227.593-1.75-.055-1.596-1.137-2.384-2.468-2.406-1.295-.022-2.325 1.213-2.438 2.031a1.5 1.5 0 1 1-2.969-.406 5.374 5.374 0 0 1 5.438-4.594z"></path><path style="marker:none" d="M483.965 204.582c-.827 0-1.492.665-1.492 1.492v7.066c0 .827.665 1.493 1.492 1.493s1.492-.666 1.492-1.493v-7.066c0-.827-.665-1.492-1.492-1.492z" overflow="visible"></path></g><g stroke="#000" stroke-width=".75" stroke-linecap="round" stroke-linejoin="round" fill-rule="evenodd"><path d="M316.02 209.566c-3.016 0-4.94 2.386-5.157 4.625-2.232.224-4.593 2.14-4.593 5.156 0 3.015 2.358 4.936 4.593 5.156.221 2.236 2.141 4.625 5.157 4.625 3.015 0 4.938-2.386 5.156-4.625 2.232-.224 4.625-2.14 4.625-5.156 0-3.015-2.391-4.936-4.625-5.156-.22-2.234-2.141-4.625-5.156-4.625zm.03 3.031c1.066 0 2.15.659 2.188 2.156.02.732-.08 1.577.375 2.032.455.455 1.3.355 2.032.375 1.497.039 2.156 1.122 2.156 2.187 0 1.065-.659 2.148-2.156 2.188-.733.019-1.575-.051-2.032.406-.457.457-.356 1.299-.375 2.031-.039 1.498-1.122 2.156-2.187 2.156-1.065 0-2.149-.658-2.188-2.156-.019-.732.082-1.574-.375-2.031-.457-.457-1.299-.356-2.031-.375-1.497-.04-2.187-1.123-2.187-2.188 0-1.065.69-2.148 2.187-2.187.732-.02 1.574.05 2.031-.406.457-.458.356-1.3.375-2.032.04-1.497 1.123-2.156 2.188-2.156z"></path><path d="M316.02 229.128c-3.016 0-4.94 2.387-5.157 4.625-2.232.224-4.593 2.141-4.593 5.157 0 3.015 2.358 4.935 4.593 5.156.221 2.235 2.141 4.625 5.157 4.625 3.015 0 4.938-2.387 5.156-4.625 2.232-.224 4.625-2.141 4.625-5.156 0-3.016-2.391-4.937-4.625-5.157-.22-2.234-2.141-4.625-5.156-4.625zm.03 3.032c1.066 0 2.15.658 2.188 2.156.02.732-.08 1.576.375 2.031.455.455 1.3.356 2.032.375 1.497.04 2.156 1.123 2.156 2.188 0 1.065-.659 2.148-2.156 2.187-.733.02-1.575-.05-2.032.406-.457.458-.356 1.3-.375 2.032-.039 1.497-1.122 2.156-2.187 2.156-1.065 0-2.149-.659-2.188-2.156-.019-.732.082-1.575-.375-2.032-.457-.457-1.299-.355-2.031-.375-1.497-.039-2.187-1.122-2.187-2.187 0-1.065.69-2.148 2.187-2.188.732-.019 1.574.051 2.031-.406.457-.457.356-1.299.375-2.031.04-1.498 1.123-2.156 2.188-2.156z"></path><path style="marker:none" d="M316.035 224.116c.827 0 1.492.665 1.492 1.492v7.066c0 .827-.665 1.492-1.492 1.492a1.489 1.489 0 0 1-1.492-1.492v-7.066c0-.827.665-1.492 1.492-1.492z" overflow="visible"></path><path d="M316.02 248.683c-3.016 0-4.94 2.387-5.157 4.625-2.232.224-4.593 2.141-4.593 5.156 0 3.015 2.358 4.936 4.593 5.157.221 2.235 2.141 4.625 5.157 4.625 3.015 0 4.938-2.387 5.156-4.625 2.232-.225 4.625-2.142 4.625-5.157s-2.391-4.936-4.625-5.156c-.22-2.234-2.141-4.625-5.156-4.625zm.03 3.031c1.066 0 2.15.66 2.188 2.157.02.732-.08 1.576.375 2.03.455.456 1.3.357 2.032.376 1.497.039 2.156 1.122 2.156 2.187 0 1.065-.659 2.149-2.156 2.188-.733.019-1.575-.051-2.032.406-.457.457-.356 1.3-.375 2.031-.039 1.498-1.122 2.157-2.187 2.157-1.065 0-2.149-.66-2.188-2.157-.019-.732.082-1.574-.375-2.03-.457-.458-1.299-.357-2.031-.376-1.497-.04-2.187-1.122-2.187-2.187 0-1.066.69-2.149 2.187-2.188.732-.02 1.574.051 2.031-.406.457-.457.356-1.3.375-2.031.04-1.498 1.123-2.157 2.188-2.157z"></path><path d="M316.035 243.67c.827 0 1.492.666 1.492 1.492v7.067c0 .827-.665 1.492-1.492 1.492a1.489 1.489 0 0 1-1.492-1.492v-7.067c0-.826.665-1.492 1.492-1.492z" style="marker:none" overflow="visible"></path><path d="M315.957 198.503c-2.731.046-5.329 2.167-5.437 5.282a5.561 5.561 0 0 0 1.28 3.75c.949 1.145 2.527 1.98 4.47 2.03 3.525.095 6.54-.924 10.53-3.03 3.667 1.353 10.206 1.506 13.939-.661a1.51 1.51 0 0 0-1.25-2.75c-2.899 1.334-9.138 1.741-12.22.442a1.5 1.5 0 0 0-1.28.062c-4.17 2.271-6.496 3.022-9.657 2.938-1.193-.032-1.796-.426-2.219-.938-.423-.511-.612-1.227-.593-1.75.055-1.596 1.137-2.384 2.468-2.406 1.295-.022 2.325 1.213 2.438 2.031a1.5 1.5 0 1 0 2.969-.406 5.374 5.374 0 0 0-5.438-4.594z"></path><path d="M316.035 204.582c.827 0 1.492.665 1.492 1.492v7.066c0 .827-.665 1.493-1.492 1.493a1.489 1.489 0 0 1-1.492-1.493v-7.066c0-.827.665-1.492 1.492-1.492z" style="marker:none" overflow="visible"></path></g><g fill-rule="evenodd"><g fill="#fff" stroke="#000" stroke-width="3" stroke-linecap="round" stroke-linejoin="round"><path d="M399.374 137.663a19.167 19.167 0 0 0-1.204 4.36c-.372-.601-.933-1.014-1.864-1.148-.575-1.157-1.329-1.44-2.036-1.835-.442 1.829-.543 3.695-.058 5.592-3.903 1.18-6.267 3.012-7.743 5.22-3.767 1.924-6.26 4.012-8.287 6.136-.398.417-.814 1.015-1.635 1.348-1.652.67-3.34 2.118-4.646 3.814-2.3.806-3.483 1.491-4.33 2.868-1.062 1.726-.793 3.472.803 5.19-.799 1.441.064 2.95 1.463 1.979.113-.079.23-.157.344-.23.08.417.186.846.545 1.32.378.498.88.531 1.147.287 1.362-1.25 2.902-1.799 4.416-2.524.207.128.376.263.488.43.96 1.434-3.885 3.749-4.159 3.843-.276.095-.31.469-.172.63.363.413.84.718 2.208.03.845.835 1.786 1.524 3.012.716 1.72-1.134 1.903-2.242 2.466-3.699 4.107-1.376 8.23-2.734 11.93-4.56.423-.209.954-.278 1.405.058.495.37.858.779 1.462 1.233.617.463.457.97.144 1.52-1.564 2.74-4.283 5.64-7.6 8.03-7.652 5.513-9.767 10.196-11.757 15.112 12.765-2.31 25.537-3.33 38.34-1.778 2.252-6.037 3.114-12.719 2.582-20.418-.907-13.123-4.562-23.972-13.392-27.559-.18-1.687-1.005-2.866-1.836-3.412-.504-1.708-1.434-2.046-2.036-2.553z"></path><path d="M397.185 188.675c2.496-.908 4.292-1.357 7.063-1.165 1.818.127 3.285.688 4.362 1.49 1.03.766 1.705 1.752 1.989 2.787.285 1.038.796 2.299 2.1 3.44-1.57.478-3.712.924-5.44.606-1.848-.34-3.237-.889-4.298-1.53-1.6-.968-2.457-2.145-3.03-3.13-.571-.983-1.518-1.869-2.746-2.498z"></path><path d="M408.607 188.996c2.71-.591 4.602-.816 7.271-.292 1.752.343 3.035 1.072 3.867 1.99.797.878 1.181 1.928 1.169 2.98-.013 1.054.134 2.355 1.093 3.634-1.676.28-3.907.46-5.516-.06-1.722-.557-2.931-1.265-3.794-2.024-1.299-1.144-1.81-2.404-2.095-3.442-.284-1.035-.964-2.02-1.995-2.786z"></path><path d="M426.958 199.174c-3.694.343-4.317-1.02-4.95-1.87-.955-1.28-1.102-2.58-1.09-3.635.013-1.051-.378-2.101-1.175-2.979 2.83-.254 4.811-.372 7.287.465 1.625.549 3.406 1.366 3.83 2.95.958 3.572-1.763 4.87-3.902 5.07zm-41.09-9.436c2.197-1.194 3.835-1.852 6.613-1.997 1.823-.095 3.423.28 4.708.937 1.228.63 2.169 1.517 2.74 2.5.573.986 1.43 2.163 3.034 3.128-1.408.658-3.387 1.355-5.175 1.252-1.913-.11-3.433-.483-4.657-.986-1.845-.758-3.019-1.811-3.86-2.71-.839-.898-2.018-1.654-3.403-2.124z"></path><path d="M375.044 192.148c1.824-1.438 3.248-2.283 5.938-2.76a9.847 9.847 0 0 1 4.89.353c1.385.47 2.56 1.229 3.399 2.126.84.9 2.015 1.953 3.863 2.708-1.197.817-2.947 1.74-4.733 1.855-1.911.122-3.51-.06-4.855-.407-2.026-.522-3.478-1.416-4.558-2.199-1.077-.78-2.45-1.38-3.944-1.676z"></path><path d="M370.77 192.279c1.498-.678 2.718-.437 4.28-.129 1.494.295 2.862.9 3.94 1.68 1.08.783 2.53 1.676 4.56 2.196-.947.947-2.573 1.808-4.128 2.393-1.472.554-3.18.979-5.661.702-4.662-.932-7.488-4.806-2.99-6.842z"></path></g><path d="M403.676 143.67c7.152-.307 9.703 4.117 12.977 7.727 2.81 3.1 5.414 5.146 9.06 6.713-2.883.012-5.559-.326-8.349-1.582 1.192 1.756 3.295 2.786 6.811 3.585-1.841.542-3.856.688-6.381.438 4.807.297 7.334 5.266 11.742 10.539-1.839-.798-3.957-1.354-4.991-2.847-.234 1.092.149 1.775.605 2.464-1.688-.78-2.99-2.35-4.31-3.885.82 2.853 2.352 5.267 6.191 6.26-2.208.125-4.451-.708-6.713-2.035.993.775 2.637 1.63 2.378 3.017 1.4 1.276 2.698 2.665 2.973 5.207-1.283-2.268-2.239-2.59-3.664-2.934 1.22 1.38 1.475 1.606 2.055 3.166-1.683-1.337-3.084-2.217-4.238-1.68 2.86 2.51 5.38 5.29 11.574 5.127-1.261.916-3.042 1.572-6.165 1.556 1.48.31 2.253 1.018 3.239 1.607-2.117-.594-4-.71-5.771-.596 1.868 2.433 5.61 3.09 8.661 3.16-.894.751-1.598.87-2.351 1.153.818.351 1.48.186 2.375.26-3.118 2.736-6.489 3.404-9.942 2.625l-8.166-.878.947-25.671-11.188-19.979.64-2.517z"></path><path d="M370.011 170.16c.212.694.136 1.335.722 2.108.378.499.86.54 1.127.295 1.622-1.487 3.529-1.987 5.298-2.967l-1.862-1.406-5.285 1.97zm26.282-29.3c-.574-1.158-1.306-1.416-2.013-1.812-.476 1.97-.586 3.968.041 6.02l4.227-.747.061-1.235c-.28-1.174-.899-2.024-2.316-2.227z" fill="#fff" stroke="#000"></path><path d="M395.034 145.78c-.588-1.983-.545-3.838-.353-5.5 1.8 1.368 1.922 3.593 2.104 5.956-.49-.568-.981-1.124-1.751-.455z"></path><path d="M375.712 193.376c1.99-4.916 4.1-9.586 11.753-15.1 3.317-2.39 6.04-5.287 7.605-8.028.313-.549.486-1.058-.13-1.52-.604-.455-.985-.89-1.48-1.259-.451-.336-.965-.25-1.388-.041-3.699 1.825-7.838 3.188-11.946 4.564-.562 1.457-.728 2.555-2.448 3.69-1.225.808-2.187.113-3.03-.722-1.37.689-1.835.379-2.198-.033-.138-.162-.1-.513.177-.608.274-.094 5.124-2.408 4.164-3.842-.747-1.116-3.77-1.506-6.945.698-1.4.972-2.255-.54-1.457-1.981-1.596-1.719-1.89-3.445-.829-5.171.847-1.377 2.054-2.078 4.354-2.885 1.306-1.696 2.982-3.132 4.634-3.801.821-.333 1.244-.945 1.642-1.361 2.027-2.124 4.515-4.21 8.282-6.133 1.902-2.845 5.243-5.082 11.513-6.078a18.93 18.93 0 0 1 1.385-6.096c.602.506 1.547.832 2.05 2.54.832.546 1.657 1.712 1.837 3.4 8.83 3.586 12.486 14.438 13.393 27.561.532 7.7-.34 14.393-2.59 20.43-12.804-1.553-25.582-.534-38.348 1.776z" fill="#fff" stroke="#000"></path><path d="M392.007 150.536c-1.339-.108-2.689.208-3.39.767l.353.539c.475-.232.923-.31 1.543-.41a1.896 1.896 0 0 0-.328.928 1.925 1.925 0 0 0 1.78 2.057c.992.034 1.936.07 2.87-.319-.178-.316-.647-.515-1.081-.613a1.93 1.93 0 0 0 .268-.843 1.914 1.914 0 0 0-.081-.694c.57.23 1.116.516 1.627.829-.539-1.458-2.043-2.119-3.56-2.241z"></path><path style="marker:none" d="M392.29 151.918a.509.509 0 1 1-1.014-.074.509.509 0 1 1 1.015.074z" fill="#fff" overflow="visible"></path><path d="M393.07 157.554c-1.678.532-3.306.783-4.845.52l.13 1.098c-1.724 1.37-2.466 3.044-3.189 4.724 1.718-1.307 3.318-3.298 5.24-3.424.722-.926 1.523-1.62 2.443-1.967l.221-.951zm-18.456 5.113c-.04 1.375-.655 2.789-1.246 4.202 1.226-.599 2.5-1.135 3.23-2.393-.49-.847-1.23-1.339-1.984-1.809zm-2.952 6.011c1.391-.663 1.717-1.369 4.17-1.598 1.08-.1 2.357.43 2.184 2.368-.884-1.551-3.383-1.644-6.354-.77zm-.407-1.451c2.046-1.738 1.684-3.173.794-3.811-1.062-.763-3.705.046-4.177 2.535l.909-.024c-.264 1.644 1.172 2.135 2.474 1.3zm-.208-5.329c.915-.328 1.98-.647 2.982-.078.014-.583-.18-1.017-1.499-1.136l-.42.482-1.063.732zm27.008-13.955.872-.54.703.716-.558.382-1.017-.558zm6.767-1.77c2.818 3.896 3.533 9.02 2.375 13.75 1.145-1.278 2.046-4.453 1.869-6.907-.227-3.126-2.81-6.19-4.244-6.843zm-9.567 24.029.208-1.195-2.28-1.89-.975.11-2.598 1.199-9.473 3.415c-1.585 3.817-3.532 4.426-4.081 3.903 1.575.006 2.799-2.117 2.793-4.058-.002-.588.16-1.023 1.053-1.162 5.543-.866 8.757-2.363 10.056-3.947-1.881.75-3.121.971-4.967.935-1.357-.027-2.333 1.578-4.202 2.05 1.266-.815 1.433-1.521 2.591-2.35 2.251-1.611 4.473-.886 6.644-2.354 2.076-1.64 1.622-3.529 3.4-5.131-.365 1.882-.255 4.424 2.583 5.995 2.767 1.53 5.542.68 8.377-1.259-.887 1.265-1.012 2.554-3.66 3.722-3.07 1.355-5.017 2.67-6.063 4.004-1.7 2.168-3.388 4.67-6.392 6.832-4.436 3.192-8.36 7.442-10.164 12.863l-2.234 1.382c1.508-3.893 3.462-7.82 6.917-11.01 3.103-2.98 7.597-5.808 9.775-8.352 1.07-1.289 1.946-2.47 2.692-3.702zm-20.718 4.266c.662-.449 1.15-.686 1.7-1.326.567.097.609.794.237 1.302-.365.5-.798.738-1.287.858l-.65-.834zm23.951-30.813c-.044.74-.068 1.407.069 2.152-.61-.586-.78-1.212-.765-1.931l.696-.221z"></path><path d="M402.763 143.417c.09.77-.067 1.38-.236 1.993.485-.682 1.453-.612 2.15-.152 6.86 4.528 6.954 13.01 1.685 21.106 1.204-1.034 2.459-2.026 3.56-3.216 1.328-1.433 1.695-1.35 2.667-.077 1.253 1.643.945 2.735 1.629 5.673.925-4.715.677-7.91-.072-12.03-2.463-5.654-5.578-10.824-11.383-13.297zm-3.913 1.123c-.119-2.066.347-3.862.914-5.436 1.44 1.742 1.05 3.937.687 6.279-.347-.665-.698-1.32-1.601-.844z"></path><path d="M414.704 160.302c1.289 5.461 1.25 15.466-1.558 22.342.73-4.41.995-5.971.93-9.995-2.06 6.663-6.158 13.356-11.375 17.995l11.285 1.132 2.62-10.148c.67-5.861.432-17.035-1.902-21.326z"></path><path d="M366.526 371.996c5.872-3.265 10.097-4.881 16.615-4.189 4.277.455 7.727 2.474 10.26 5.356 2.424 2.757 4.01 6.302 4.678 10.023.67 3.733 1.872 8.264 4.938 12.37-3.69 1.716-8.728 3.319-12.792 2.178-4.35-1.22-7.616-3.196-10.113-5.504-3.762-3.477-5.778-7.71-7.126-11.254-1.344-3.534-3.57-6.718-6.46-8.98z" fill="#002673" stroke="#000" stroke-width="2.908" transform="matrix(.42513 0 0 .27811 241.365 85.212)"></path><path d="M393.394 373.15c6.374-2.126 10.824-2.935 17.103-1.051 4.12 1.235 7.138 3.856 9.097 7.156 1.873 3.156 2.777 6.934 2.748 10.714-.03 3.792.315 8.467 2.571 13.07-3.942 1.004-9.19 1.65-12.974-.22-4.05-2.003-6.896-4.547-8.924-7.276-3.056-4.111-4.257-8.643-4.928-12.375-.669-3.721-2.27-7.261-4.692-10.017z" fill="#f5dc0f" stroke="#000" stroke-width="2.908" transform="matrix(.42513 0 0 .27811 241.365 85.212)"></path><path d="M436.56 409.747c-8.69 1.232-10.156-3.666-11.646-6.723-2.245-4.604-2.59-9.28-2.56-13.072.028-3.78-.892-7.555-2.765-10.71 6.657-.915 11.316-1.34 17.14 1.67 3.82 1.974 8.012 4.913 9.01 10.61 2.251 12.84-4.148 17.512-9.18 18.225z" fill="#002673" stroke="#000" stroke-width="2.908" transform="matrix(.42513 0 0 .27811 241.365 85.212)"></path><path d="M339.906 375.818c5.169-4.293 9.023-6.66 15.557-7.182 4.287-.342 8.05 1.006 11.072 3.371 2.89 2.262 5.103 5.455 6.446 8.989 1.348 3.544 3.364 7.777 7.136 11.247-3.31 2.366-7.967 4.871-12.171 4.5-4.5-.398-8.075-1.737-10.955-3.545-4.339-2.723-7.101-6.511-9.08-9.746-1.972-3.225-4.747-5.944-8.005-7.634z" fill="#f5dc0f" stroke="#000" stroke-width="2.908" transform="matrix(.42513 0 0 .27811 241.365 85.212)"></path><path d="M314.447 384.485c4.289-5.173 7.64-8.21 13.966-9.929 4.15-1.127 8.098-.496 11.504 1.271 3.258 1.69 6.021 4.42 7.993 7.645 1.979 3.235 4.741 7.023 9.088 9.738-2.817 2.936-6.931 6.258-11.132 6.668-4.496.44-8.256-.217-11.42-1.463-4.767-1.876-8.181-5.09-10.722-7.904-2.534-2.806-5.763-4.966-9.277-6.026z" fill="#002673" stroke="#000" stroke-width="2.908" transform="matrix(.42513 0 0 .27811 241.365 85.212)"></path><path d="M304.394 384.954c3.522-2.438 6.392-1.57 10.066-.462 3.514 1.06 6.733 3.233 9.267 6.04 2.54 2.814 5.955 6.027 10.727 7.894-2.226 3.405-6.052 6.502-9.71 8.607-3.461 1.99-7.48 3.517-13.316 2.523-10.965-3.35-17.613-17.28-7.034-24.602z" fill="#f5dc0f" stroke="#000" stroke-width="2.908" transform="matrix(.42513 0 0 .27811 241.365 85.212)"></path><path d="m382.056 194.48 4.027.635-.874-1.492 3.3.952-.389-1.714c.746.646 1.38 1.291 3.25 1.936-2.391 1.17-5.009 1.935-9.314-.317z" fill="#001542"></path><path d="m392.084 192.874 3.779 1.11-.438-1.571 2.974 1.334.102-1.732c.55.725.992 1.435 2.649 2.295-2.68.861-5.47 1.297-9.066-1.436z" fill="#c8b308"></path><path d="m402.393 192.507 3.4 1.546.014-1.597 2.546 1.67.589-1.69c.337.779.57 1.53 1.956 2.576-2.877.522-5.741.615-8.505-2.505z" fill="#001542"></path><path d="m412.629 193.39 2.906 1.93.463-1.569 2.032 1.949 1.055-1.59c.112.806.13 1.573 1.196 2.768-2.975.166-5.816-.089-7.652-3.489z" fill="#c8b308"></path><path d="m386.967 191.326-4.28-.38 1.094 1.433-3.723-.585.615 1.685c-.857-.597-1.598-1.2-3.629-1.726 2.349-1.346 5.102-2.853 9.923-.427z" fill="#1663cf"></path><path d="m397.816 190.369-4.1-.89.672 1.54-3.494-1.024.13 1.73c-.675-.69-1.233-1.373-3.08-2.135 2.687-1.04 5.818-2.188 9.872.779z" fill="#fff"></path><path d="m408.749 190.736-3.778-1.369.226 1.595-3.146-1.428-.36 1.716c-.469-.76-.825-1.498-2.426-2.47 2.935-.697 6.336-1.448 9.484 1.956z" fill="#1663cf"></path><path d="m419.39 192.417-3.326-1.801-.228 1.594-2.69-1.783-.838 1.643c-.246-.803-.387-1.572-1.687-2.72 3.081-.331 6.636-.659 8.77 3.067z" fill="#fff"></path><path d="m371.623 197.448 4.411.048-1.21-1.226 3.305.448.027-1.773c.915.545 1.72 1.102 3.74 1.511-2.02 1.438-6.367 3.18-10.273.992z" fill="#c8b308"></path><path d="m422.44 195.492 2.14 1.6 1.585-.922.76 1.485 2.86-.731c-2.668 2.923-7.097 1.729-7.345-1.432z" fill="#001542"></path><path d="m429.375 195.353-2.761-2.172-.674 1.54-2.14-2.077-1.287 1.514c-.015-.82.062-1.592-.891-2.878 3.121.047 6.707.154 7.753 4.073z" fill="#1663cf"></path><path d="m376.574 193.577-3.324.143.49 1.276-2.792-.21-.296 1.807c-3.758-3.312 3.222-5.457 5.922-3.016z" fill="#fff"></path></g><path d="M400.704 201.821c2.962 6.79 14.914 11.873 29.194 11.873 13.019 0 24.64-4.681 28.742-10.572l1.919.519c11.933 58.782-10.434 116.483-60.559 135.336-50.125-18.853-72.492-76.554-60.559-135.336l1.92-.519c4.1 5.89 15.722 10.572 28.74 10.572 14.28 0 26.233-5.084 29.195-11.873h1.408z" style="marker:none" fill="#002673" fill-rule="evenodd" stroke="#000" stroke-width="3" stroke-linecap="round" stroke-linejoin="round" overflow="visible"></path><path d="m366.147 221.786-.565 6.597c-1.184-2.499-2.708-3.394-4.145-4.729.494 2.014.779 3.645.74 5.721-2.012-2.12-3.727-2.605-5.585-3.347.892 1.222 2.397 2.327 2.822 4.476-2.2-.635-4.79-.65-6.656.37 2.007.422 4.05.777 5.08 2.49-2.619.646-5 1.762-6.403 4.982 2.934-1.417 4.357-2.249 6.286-1.615-1.687 1.027-3.434 3.389-3.464 7.22 1.719-3.121 3.169-5.14 5.546-5.1-1.806 3.686-1.173 6.027-1.07 7.98.53-1.968 1.385-3.471 2.393-4.671l.136.39 1.323.466 2.102 5.857-.214.526-2.822 13.427.99.857 1.287-.954.66 1.619 1.755-1.358 1.341 1.745 1.463-1.9 1.217 1.748 1.101-1.631 1.287 1.14.452-1.342 1.787.368-2.442-13.739.214-.31 1.42-6.072 1.285-.603.136-.604c1.15 1.26 2.156 2.86 2.744 5.04.102-1.952.735-4.293-1.07-7.978 2.376-.042 3.807 1.978 5.526 5.098-.03-3.83-1.758-6.192-3.445-7.22 1.929-.633 3.352.2 6.286 1.616-1.403-3.22-3.804-4.336-6.422-4.982 1.03-1.713 3.092-2.068 5.099-2.49-1.865-1.02-4.476-1.005-6.675-.37.425-2.149 1.949-3.254 2.841-4.476-1.858.742-3.592 1.228-5.604 3.347-.04-2.076.265-3.707.759-5.72-1.437 1.334-2.961 2.23-4.145 4.728l-.564-6.597c-1.252 2.001-2.146 4.06-2.394 6.227-.248-2.167-1.142-4.226-2.393-6.227z" fill="#f5dc0f" fill-rule="evenodd" stroke="#000" stroke-linecap="round" stroke-linejoin="round"></path><path d="M373.504 247.353c-3.666.318-5.741.613-9.989 0-.538 1.412-.278 1.888.134 3.3 3.865.748 5.634.643 9.498.09.738-1.413.924-1.978.357-3.39z" fill="#f5dc0f" stroke="#000" stroke-linecap="round" stroke-linejoin="round"></path><path d="m365.485 251.235-.745 7.159 2.028-7.035-1.283-.124zm1.714.082.33 7.19.957-7.258-1.287.068zm3.297.262 1.454 7.05-.193-7.32-1.26.27zm-2.033-3.939-1.18-5.864-.086 6.104 1.266-.24zm3.117.001.65-5.946-1.93 5.793 1.28.153zm-.945 16.042-.713-5.94-.568 6.08 1.28-.14zM362.43 240a.623.623 0 0 0-.428.234l-1.248 1.564.613.973 1.043.247c.282.93.748 1.733 1.493 2.286.55-1.729 1.935-4.061 2.603-5.837-1.198.755-2.248 1.787-2.896 2.88l-.538-1.938a.623.623 0 0 0-.642-.409zm14.107 2.112c-.914-1.262-2.003-2.189-3.096-3.166.571 1.196 1.43 2.19 1.654 3.628l1.442-.462z" fill-rule="evenodd"></path><path d="m397.606 271.036-.564 6.597c-1.184-2.499-2.708-3.394-4.145-4.729.494 2.014.779 3.645.74 5.721-2.012-2.12-3.727-2.605-5.585-3.347.892 1.222 2.397 2.327 2.822 4.476-2.2-.635-4.79-.65-6.656.37 2.007.422 4.05.777 5.08 2.49-2.619.646-5 1.762-6.403 4.982 2.934-1.417 4.357-2.249 6.286-1.615-1.687 1.027-3.434 3.389-3.464 7.22 1.719-3.121 3.169-5.14 5.546-5.1-1.806 3.686-1.173 6.027-1.07 7.98.53-1.968 1.385-3.471 2.393-4.671l.136.39 1.323.466 2.102 5.857-.214.526-2.822 13.427.99.857 1.287-.954.66 1.619 1.755-1.358 1.34 1.745 1.464-1.9 1.217 1.748 1.101-1.631 1.287 1.14.452-1.342 1.787.368-2.442-13.739.214-.31 1.42-6.072 1.285-.603.136-.604c1.15 1.26 2.156 2.86 2.744 5.04.102-1.952.735-4.293-1.07-7.978 2.376-.042 3.807 1.978 5.526 5.098-.03-3.83-1.758-6.192-3.445-7.22 1.929-.633 3.352.2 6.286 1.616-1.403-3.22-3.804-4.336-6.422-4.982 1.03-1.713 3.092-2.068 5.099-2.49-1.865-1.02-4.476-1.005-6.675-.37.425-2.149 1.949-3.254 2.841-4.476-1.858.742-3.592 1.228-5.604 3.347-.04-2.076.265-3.707.759-5.72-1.437 1.334-2.961 2.23-4.145 4.728l-.564-6.597c-1.252 2.001-2.146 4.06-2.394 6.227-.248-2.167-1.142-4.226-2.394-6.227z" fill="#f5dc0f" fill-rule="evenodd" stroke="#000" stroke-linecap="round" stroke-linejoin="round"></path><path d="M404.964 296.603c-3.666.318-5.741.613-9.99 0-.537 1.412-.277 1.888.135 3.3 3.865.748 5.634.643 9.498.09.738-1.413.924-1.978.357-3.39z" fill="#f5dc0f" stroke="#000" stroke-linecap="round" stroke-linejoin="round"></path><path d="m396.945 300.485-.745 7.159 2.028-7.035-1.283-.124zm1.714.082.33 7.19.957-7.258-1.287.068zm3.297.262 1.454 7.05-.193-7.32-1.26.27zm-2.033-3.939-1.18-5.864-.086 6.104 1.266-.24zm3.117.001.65-5.946-1.93 5.793 1.28.153zm-.945 16.042-.714-5.94-.567 6.08 1.28-.14zm-8.205-23.683a.623.623 0 0 0-.428.234l-1.248 1.564.613.973 1.043.247c.282.93.748 1.733 1.493 2.286.55-1.729 1.935-4.061 2.603-5.837-1.198.755-2.248 1.787-2.896 2.88l-.538-1.938a.623.623 0 0 0-.642-.409zm14.107 2.112c-.914-1.262-2.003-2.189-3.096-3.166.571 1.196 1.429 2.19 1.654 3.628l1.442-.462z" fill-rule="evenodd"></path><path d="m429.397 221.786-.565 6.597c-1.184-2.499-2.708-3.394-4.145-4.729.494 2.014.779 3.645.74 5.721-2.012-2.12-3.727-2.605-5.585-3.347.892 1.222 2.397 2.327 2.822 4.476-2.2-.635-4.79-.65-6.656.37 2.007.422 4.05.777 5.08 2.49-2.619.646-5 1.762-6.403 4.982 2.934-1.417 4.357-2.249 6.286-1.615-1.687 1.027-3.434 3.389-3.464 7.22 1.719-3.121 3.169-5.14 5.546-5.1-1.806 3.686-1.173 6.027-1.07 7.98.53-1.968 1.385-3.471 2.393-4.671l.136.39 1.323.466 2.102 5.857-.214.526-2.822 13.427.99.857 1.287-.954.66 1.619 1.755-1.358 1.341 1.745 1.463-1.9 1.217 1.748 1.101-1.631 1.287 1.14.452-1.342 1.787.368-2.442-13.739.214-.31 1.42-6.072 1.285-.603.136-.604c1.15 1.26 2.156 2.86 2.744 5.04.102-1.952.735-4.293-1.07-7.978 2.376-.042 3.807 1.978 5.526 5.098-.03-3.83-1.758-6.192-3.445-7.22 1.929-.633 3.352.2 6.286 1.616-1.403-3.22-3.804-4.336-6.422-4.982 1.03-1.713 3.092-2.068 5.099-2.49-1.865-1.02-4.476-1.005-6.675-.37.425-2.149 1.949-3.254 2.841-4.476-1.858.742-3.592 1.228-5.604 3.347-.04-2.076.265-3.707.759-5.72-1.437 1.334-2.961 2.23-4.145 4.728l-.564-6.597c-1.252 2.001-2.146 4.06-2.394 6.227-.248-2.167-1.142-4.226-2.393-6.227z" fill="#f5dc0f" fill-rule="evenodd" stroke="#000" stroke-linecap="round" stroke-linejoin="round"></path><path d="M436.754 247.353c-3.666.318-5.741.613-9.989 0-.538 1.412-.278 1.888.134 3.3 3.865.748 5.634.643 9.498.09.738-1.413.924-1.978.357-3.39z" fill="#f5dc0f" stroke="#000" stroke-linecap="round" stroke-linejoin="round"></path><path d="m428.735 251.235-.745 7.159 2.028-7.035-1.283-.124zm1.714.082.33 7.19.957-7.258-1.287.068zm3.297.262 1.454 7.05-.193-7.32-1.26.27zm-2.033-3.939-1.18-5.864-.086 6.104 1.266-.24zm3.117.001.65-5.946-1.93 5.793 1.28.153zm-.945 16.042-.713-5.94-.568 6.08 1.28-.14zM425.68 240a.623.623 0 0 0-.428.234l-1.248 1.564.613.973 1.043.247c.282.93.748 1.733 1.493 2.286.55-1.729 1.935-4.061 2.603-5.837-1.198.755-2.248 1.787-2.896 2.88l-.538-1.938a.623.623 0 0 0-.642-.409zm14.107 2.112c-.914-1.262-2.003-2.189-3.096-3.166.571 1.196 1.43 2.19 1.654 3.628l1.442-.462z" fill-rule="evenodd"></path><g fill="#fff" fill-rule="evenodd" stroke="#002673" stroke-width="3" stroke-linecap="round" stroke-linejoin="round"><path style="marker:none" d="M247.57 240a4.794 4.794 0 1 1-9.588 0 4.794 4.794 0 1 1 9.588 0z" overflow="visible"></path><path d="M247.86 230.603a4.794 4.794 0 1 1-9.57-.591 4.794 4.794 0 1 1 9.57.591z" style="marker:none" overflow="visible"></path><path style="marker:none" d="M248.728 221.247a4.794 4.794 0 1 1-9.516-1.18 4.794 4.794 0 1 1 9.516 1.18z" overflow="visible"></path><path d="M250.165 211.996a4.794 4.794 0 1 1-9.426-1.762 4.794 4.794 0 1 1 9.426 1.762z" style="marker:none" overflow="visible"></path><path style="marker:none" d="M252.172 202.831a4.794 4.794 0 1 1-9.3-2.338 4.794 4.794 0 1 1 9.3 2.338z" overflow="visible"></path><path d="M254.748 193.776a4.794 4.794 0 1 1-9.137-2.908 4.794 4.794 0 1 1 9.137 2.908z" style="marker:none" overflow="visible"></path><path style="marker:none" d="M257.864 184.935a4.794 4.794 0 1 1-8.941-3.464 4.794 4.794 0 1 1 8.941 3.464z" overflow="visible"></path><path d="M261.525 176.286a4.794 4.794 0 1 1-8.71-4.008 4.794 4.794 0 1 1 8.71 4.008z" style="marker:none" overflow="visible"></path><path style="marker:none" d="M265.7 167.903a4.794 4.794 0 1 1-8.45-4.536 4.794 4.794 0 1 1 8.45 4.536z" overflow="visible"></path><path d="M270.387 159.78a4.794 4.794 0 1 1-8.154-5.046 4.794 4.794 0 1 1 8.154 5.047z" style="marker:none" overflow="visible"></path><path style="marker:none" d="M275.592 151.923a4.794 4.794 0 1 1-7.826-5.54 4.794 4.794 0 1 1 7.826 5.54z" overflow="visible"></path><path d="M281.237 144.448a4.794 4.794 0 1 1-7.47-6.01 4.794 4.794 0 1 1 7.47 6.01z" style="marker:none" overflow="visible"></path><path style="marker:none" d="M287.362 137.3a4.794 4.794 0 1 1-7.086-6.46 4.794 4.794 0 1 1 7.086 6.46z" overflow="visible"></path><path d="M293.909 130.55a4.794 4.794 0 1 1-6.674-6.886 4.794 4.794 0 1 1 6.674 6.885z" style="marker:none" overflow="visible"></path><path style="marker:none" d="M300.86 124.216a4.794 4.794 0 1 1-6.237-7.283 4.794 4.794 0 1 1 6.236 7.283z" overflow="visible"></path><path d="M308.154 118.349a4.794 4.794 0 1 1-5.778-7.653 4.794 4.794 0 1 1 5.778 7.653z" style="marker:none" overflow="visible"></path><path style="marker:none" d="M315.814 112.928a4.794 4.794 0 1 1-5.296-7.994 4.794 4.794 0 1 1 5.296 7.994z" overflow="visible"></path><path d="M323.78 107.995a4.794 4.794 0 1 1-4.795-8.304 4.794 4.794 0 1 1 4.795 8.304z" style="marker:none" overflow="visible"></path><path style="marker:none" d="M332.063 103.548a4.794 4.794 0 1 1-4.274-8.584 4.794 4.794 0 1 1 4.274 8.584z" overflow="visible"></path><path d="M340.585 99.627a4.794 4.794 0 1 1-3.737-8.83 4.794 4.794 0 1 1 3.737 8.83z" style="marker:none" overflow="visible"></path><path style="marker:none" d="M349.353 96.23a4.794 4.794 0 1 1-3.186-9.043 4.794 4.794 0 1 1 3.186 9.044z" overflow="visible"></path><path d="M358.314 93.381a4.794 4.794 0 1 1-2.623-9.223 4.794 4.794 0 1 1 2.623 9.223z" style="marker:none" overflow="visible"></path><path style="marker:none" d="M367.381 91.101a4.794 4.794 0 1 1-2.051-9.366 4.794 4.794 0 1 1 2.051 9.366z" overflow="visible"></path><path d="M376.626 89.373a4.794 4.794 0 1 1-1.47-9.475 4.794 4.794 0 1 1 1.47 9.475z" style="marker:none" overflow="visible"></path><path style="marker:none" d="M385.93 88.221a4.794 4.794 0 1 1-.884-9.548 4.794 4.794 0 1 1 .885 9.548z" overflow="visible"></path><path d="M395.326 87.642a4.794 4.794 0 1 1-.294-9.584 4.794 4.794 0 1 1 .294 9.584zM247.86 249.397a4.794 4.794 0 1 0-9.57.591 4.794 4.794 0 1 0 9.57-.591z" style="marker:none" overflow="visible"></path><path d="M248.728 258.753a4.794 4.794 0 1 0-9.516 1.18 4.794 4.794 0 1 0 9.516-1.18z" style="marker:none" overflow="visible"></path><path style="marker:none" d="M250.165 268.004a4.794 4.794 0 1 0-9.426 1.762 4.794 4.794 0 1 0 9.426-1.762z" overflow="visible"></path><path d="M252.172 277.169a4.794 4.794 0 1 0-9.3 2.338 4.794 4.794 0 1 0 9.3-2.338z" style="marker:none" overflow="visible"></path><path style="marker:none" d="M254.748 286.224a4.794 4.794 0 1 0-9.137 2.908 4.794 4.794 0 1 0 9.137-2.908z" overflow="visible"></path><path d="M257.864 295.065a4.794 4.794 0 1 0-8.941 3.464 4.794 4.794 0 1 0 8.941-3.464z" style="marker:none" overflow="visible"></path><path style="marker:none" d="M261.525 303.714a4.794 4.794 0 1 0-8.71 4.008 4.794 4.794 0 1 0 8.71-4.008z" overflow="visible"></path><path d="M265.7 312.097a4.794 4.794 0 1 0-8.45 4.536 4.794 4.794 0 1 0 8.45-4.536z" style="marker:none" overflow="visible"></path><path style="marker:none" d="M270.387 320.22a4.794 4.794 0 1 0-8.154 5.046 4.794 4.794 0 1 0 8.154-5.047z" overflow="visible"></path><path d="M275.592 328.077a4.794 4.794 0 1 0-7.826 5.54 4.794 4.794 0 1 0 7.826-5.54z" style="marker:none" overflow="visible"></path><path style="marker:none" d="M281.237 335.552a4.794 4.794 0 1 0-7.47 6.01 4.794 4.794 0 1 0 7.47-6.01z" overflow="visible"></path><path d="M287.362 342.7a4.794 4.794 0 1 0-7.086 6.46 4.794 4.794 0 1 0 7.086-6.46z" style="marker:none" overflow="visible"></path><path style="marker:none" d="M293.909 349.45a4.794 4.794 0 1 0-6.674 6.886 4.794 4.794 0 1 0 6.674-6.885z" overflow="visible"></path><path d="M300.86 355.784a4.794 4.794 0 1 0-6.237 7.283 4.794 4.794 0 1 0 6.236-7.283z" style="marker:none" overflow="visible"></path><path style="marker:none" d="M308.154 361.651a4.794 4.794 0 1 0-5.778 7.653 4.794 4.794 0 1 0 5.778-7.653z" overflow="visible"></path><path d="M315.814 367.072a4.794 4.794 0 1 0-5.296 7.994 4.794 4.794 0 1 0 5.296-7.994z" style="marker:none" overflow="visible"></path><path style="marker:none" d="M323.78 372.005a4.794 4.794 0 1 0-4.795 8.304 4.794 4.794 0 1 0 4.795-8.304z" overflow="visible"></path><path d="M332.063 376.452a4.794 4.794 0 1 0-4.274 8.584 4.794 4.794 0 1 0 4.274-8.584z" style="marker:none" overflow="visible"></path><path style="marker:none" d="M340.585 380.373a4.794 4.794 0 1 0-3.737 8.83 4.794 4.794 0 1 0 3.737-8.83z" overflow="visible"></path><path d="M349.353 383.77a4.794 4.794 0 1 0-3.186 9.043 4.794 4.794 0 1 0 3.186-9.044z" style="marker:none" overflow="visible"></path><path style="marker:none" d="M358.314 386.619a4.794 4.794 0 1 0-2.623 9.223 4.794 4.794 0 1 0 2.623-9.223z" overflow="visible"></path><path d="M367.381 388.899a4.794 4.794 0 1 0-2.051 9.366 4.794 4.794 0 1 0 2.051-9.366z" style="marker:none" overflow="visible"></path><path style="marker:none" d="M376.626 390.627a4.794 4.794 0 1 0-1.47 9.475 4.794 4.794 0 1 0 1.47-9.475z" overflow="visible"></path><path d="M385.93 391.779a4.794 4.794 0 1 0-.884 9.548 4.794 4.794 0 1 0 .885-9.548z" style="marker:none" overflow="visible"></path><path style="marker:none" d="M395.326 392.358a4.794 4.794 0 1 0-.294 9.584 4.794 4.794 0 1 0 .294-9.584zM552.43 240a4.794 4.794 0 1 0 9.588 0 4.794 4.794 0 1 0-9.588 0z" overflow="visible"></path><path style="marker:none" d="M552.14 230.603a4.794 4.794 0 1 0 9.57-.591 4.794 4.794 0 1 0-9.57.591z" overflow="visible"></path><path d="M551.272 221.247a4.794 4.794 0 1 0 9.516-1.18 4.794 4.794 0 1 0-9.516 1.18z" style="marker:none" overflow="visible"></path><path style="marker:none" d="M549.835 211.996a4.794 4.794 0 1 0 9.426-1.762 4.794 4.794 0 1 0-9.426 1.762z" overflow="visible"></path><path d="M547.828 202.831a4.794 4.794 0 1 0 9.3-2.338 4.794 4.794 0 1 0-9.3 2.338z" style="marker:none" overflow="visible"></path><path style="marker:none" d="M545.252 193.776a4.794 4.794 0 1 0 9.137-2.908 4.794 4.794 0 1 0-9.137 2.908z" overflow="visible"></path><path d="M542.136 184.935a4.794 4.794 0 1 0 8.941-3.464 4.794 4.794 0 1 0-8.941 3.464z" style="marker:none" overflow="visible"></path><path style="marker:none" d="M538.475 176.286a4.794 4.794 0 1 0 8.71-4.008 4.794 4.794 0 1 0-8.71 4.008z" overflow="visible"></path><path d="M534.3 167.903a4.794 4.794 0 1 0 8.45-4.536 4.794 4.794 0 1 0-8.45 4.536z" style="marker:none" overflow="visible"></path><path style="marker:none" d="M529.613 159.78a4.794 4.794 0 1 0 8.154-5.046 4.794 4.794 0 1 0-8.154 5.047z" overflow="visible"></path><path d="M524.408 151.923a4.794 4.794 0 1 0 7.826-5.54 4.794 4.794 0 1 0-7.826 5.54z" style="marker:none" overflow="visible"></path><path style="marker:none" d="M518.763 144.448a4.794 4.794 0 1 0 7.47-6.01 4.794 4.794 0 1 0-7.47 6.01z" overflow="visible"></path><path d="M512.638 137.3a4.794 4.794 0 1 0 7.086-6.46 4.794 4.794 0 1 0-7.086 6.46z" style="marker:none" overflow="visible"></path><path style="marker:none" d="M506.091 130.55a4.794 4.794 0 1 0 6.674-6.886 4.794 4.794 0 1 0-6.674 6.885z" overflow="visible"></path><path d="M499.14 124.216a4.794 4.794 0 1 0 6.237-7.283 4.794 4.794 0 1 0-6.236 7.283z" style="marker:none" overflow="visible"></path><path style="marker:none" d="M491.846 118.349a4.794 4.794 0 1 0 5.778-7.653 4.794 4.794 0 1 0-5.778 7.653z" overflow="visible"></path><path d="M484.186 112.928a4.794 4.794 0 1 0 5.296-7.994 4.794 4.794 0 1 0-5.296 7.994z" style="marker:none" overflow="visible"></path><path style="marker:none" d="M476.22 107.995a4.794 4.794 0 1 0 4.795-8.304 4.794 4.794 0 1 0-4.795 8.304z" overflow="visible"></path><path d="M467.937 103.548a4.794 4.794 0 1 0 4.274-8.584 4.794 4.794 0 1 0-4.274 8.584z" style="marker:none" overflow="visible"></path><path style="marker:none" d="M459.415 99.627a4.794 4.794 0 1 0 3.737-8.83 4.794 4.794 0 1 0-3.737 8.83z" overflow="visible"></path><path d="M450.647 96.23a4.794 4.794 0 1 0 3.186-9.043 4.794 4.794 0 1 0-3.186 9.044z" style="marker:none" overflow="visible"></path><path style="marker:none" d="M441.686 93.381a4.794 4.794 0 1 0 2.623-9.223 4.794 4.794 0 1 0-2.623 9.223z" overflow="visible"></path><path d="M432.619 91.101a4.794 4.794 0 1 0 2.051-9.366 4.794 4.794 0 1 0-2.051 9.366z" style="marker:none" overflow="visible"></path><path style="marker:none" d="M423.374 89.373a4.794 4.794 0 1 0 1.47-9.475 4.794 4.794 0 1 0-1.47 9.475z" overflow="visible"></path><path d="M414.07 88.221a4.794 4.794 0 1 0 .884-9.548 4.794 4.794 0 1 0-.885 9.548z" style="marker:none" overflow="visible"></path><path style="marker:none" d="M404.674 87.642a4.794 4.794 0 1 0 .294-9.584 4.794 4.794 0 1 0-.294 9.584zM552.14 249.397a4.794 4.794 0 1 1 9.57.591 4.794 4.794 0 1 1-9.57-.591z" overflow="visible"></path><path style="marker:none" d="M551.272 258.753a4.794 4.794 0 1 1 9.516 1.18 4.794 4.794 0 1 1-9.516-1.18z" overflow="visible"></path><path d="M549.835 268.004a4.794 4.794 0 1 1 9.426 1.762 4.794 4.794 0 1 1-9.426-1.762z" style="marker:none" overflow="visible"></path><path style="marker:none" d="M547.828 277.169a4.794 4.794 0 1 1 9.3 2.338 4.794 4.794 0 1 1-9.3-2.338z" overflow="visible"></path><path d="M545.252 286.224a4.794 4.794 0 1 1 9.137 2.908 4.794 4.794 0 1 1-9.137-2.908z" style="marker:none" overflow="visible"></path><path style="marker:none" d="M542.136 295.065a4.794 4.794 0 1 1 8.941 3.464 4.794 4.794 0 1 1-8.941-3.464z" overflow="visible"></path><path d="M538.475 303.714a4.794 4.794 0 1 1 8.71 4.008 4.794 4.794 0 1 1-8.71-4.008z" style="marker:none" overflow="visible"></path><path style="marker:none" d="M534.3 312.097a4.794 4.794 0 1 1 8.45 4.536 4.794 4.794 0 1 1-8.45-4.536z" overflow="visible"></path><path d="M529.613 320.22a4.794 4.794 0 1 1 8.154 5.046 4.794 4.794 0 1 1-8.154-5.047z" style="marker:none" overflow="visible"></path><path style="marker:none" d="M524.408 328.077a4.794 4.794 0 1 1 7.826 5.54 4.794 4.794 0 1 1-7.826-5.54z" overflow="visible"></path><path d="M518.763 335.552a4.794 4.794 0 1 1 7.47 6.01 4.794 4.794 0 1 1-7.47-6.01z" style="marker:none" overflow="visible"></path><path style="marker:none" d="M512.638 342.7a4.794 4.794 0 1 1 7.086 6.46 4.794 4.794 0 1 1-7.086-6.46z" overflow="visible"></path><path d="M506.091 349.45a4.794 4.794 0 1 1 6.674 6.886 4.794 4.794 0 1 1-6.674-6.885z" style="marker:none" overflow="visible"></path><path style="marker:none" d="M499.14 355.784a4.794 4.794 0 1 1 6.237 7.283 4.794 4.794 0 1 1-6.236-7.283z" overflow="visible"></path><path d="M491.846 361.651a4.794 4.794 0 1 1 5.778 7.653 4.794 4.794 0 1 1-5.778-7.653z" style="marker:none" overflow="visible"></path><path style="marker:none" d="M484.186 367.072a4.794 4.794 0 1 1 5.296 7.994 4.794 4.794 0 1 1-5.296-7.994z" overflow="visible"></path><path d="M476.22 372.005a4.794 4.794 0 1 1 4.795 8.304 4.794 4.794 0 1 1-4.795-8.304z" style="marker:none" overflow="visible"></path><path style="marker:none" d="M467.937 376.452a4.794 4.794 0 1 1 4.274 8.584 4.794 4.794 0 1 1-4.274-8.584z" overflow="visible"></path><path d="M459.415 380.373a4.794 4.794 0 1 1 3.737 8.83 4.794 4.794 0 1 1-3.737-8.83z" style="marker:none" overflow="visible"></path><path style="marker:none" d="M450.647 383.77a4.794 4.794 0 1 1 3.186 9.043 4.794 4.794 0 1 1-3.186-9.044z" overflow="visible"></path><path d="M441.686 386.619a4.794 4.794 0 1 1 2.623 9.223 4.794 4.794 0 1 1-2.623-9.223z" style="marker:none" overflow="visible"></path><path style="marker:none" d="M432.619 388.899a4.794 4.794 0 1 1 2.051 9.366 4.794 4.794 0 1 1-2.051-9.366z" overflow="visible"></path><path d="M423.374 390.627a4.794 4.794 0 1 1 1.47 9.475 4.794 4.794 0 1 1-1.47-9.475z" style="marker:none" overflow="visible"></path><path style="marker:none" d="M414.07 391.779a4.794 4.794 0 1 1 .884 9.548 4.794 4.794 0 1 1-.885-9.548z" overflow="visible"></path><path d="M404.674 392.358a4.794 4.794 0 1 1 .294 9.584 4.794 4.794 0 1 1-.294-9.584z" style="marker:none" overflow="visible"></path></g><path d="M544.18 240a144.18 144.18 0 1 1-288.36 0 144.18 144.18 0 1 1 288.36 0z" style="marker:none" fill="none" stroke="#002673" stroke-width="5" stroke-linecap="round" stroke-linejoin="round" overflow="visible"></path><path d="M312.393 322.374c-.359 1.551-.424 2.937-.195 4.158.229 1.221.735 2.229 1.52 3.023.682.69 1.359 1.102 2.03 1.235.673.134 1.246-.034 1.722-.504.338-.334.377-.868.116-1.6-.267-.727-.933-1.908-1.997-3.545-1.583-2.45-2.442-4.347-2.576-5.694-.134-1.346.414-2.628 1.644-3.843 1.387-1.37 3.07-1.968 5.048-1.794 1.979.174 3.775 1.078 5.39 2.712 1.363 1.38 2.182 2.931 2.456 4.654l1.14-.624 1.186 1.201-3.428 6.627-2.031-1.099c.656-1.562.862-3.144.616-4.747-.246-1.603-.9-2.941-1.96-4.016-.792-.8-1.581-1.268-2.37-1.402-.789-.134-1.466.079-2.032.638-.39.386-.465.948-.224 1.687.241.727.885 1.898 1.93 3.516 1.608 2.475 2.48 4.392 2.614 5.752.14 1.353-.401 2.634-1.625 3.843-1.263 1.247-2.788 1.8-4.576 1.656-1.789-.144-3.406-.948-4.853-2.412-1.145-1.146-1.867-2.542-2.168-4.187l-.886.412-1.196-1.21 2.77-5.36 1.935.923zm4.996-13.22-1.92 1.278-.285-.354c-.462-.594-.885-.9-1.271-.918-.386-.018-.975.237-1.767.764l-7.95 5.296c-.792.527-1.255.973-1.387 1.335-.132.363-.013.872.357 1.527l.217.4-1.919 1.278-4.01-6.02-4.998-7.505 1.642-2.76 1.642-2.759 1.842 1.082c-.707 1.68-.986 3.191-.84 4.534.132 1.253.671 2.625 1.62 4.115.497.78.94 1.21 1.33 1.292.39.08.965-.132 1.726-.64l2.297-1.529-.51-.765c-.63-.944-1.186-1.45-1.67-1.518-.485-.067-1.272.245-2.361.938l-1.225-1.84 3.61-2.404 3.621-2.412 1.225 1.84c-.965.763-1.506 1.428-1.623 1.995-.117.568.134 1.316.753 2.245l.327.491 3.553-2.366c.777-.518 1.2-.972 1.268-1.364.069-.392-.173-.97-.726-1.735-1.05-1.444-2.184-2.486-3.402-3.126-1.375-.712-3.155-1.065-5.34-1.061l-.3-2.208 3.582-.54 3.602-.534 5.28 7.928 4.01 6.02zm-16.927-18.026-15.573-.173-.822-2.007-.828-2.019 11.085-10.774c.731-.725 1.178-1.294 1.34-1.706.162-.413.146-.94-.048-1.583l-.113-.384 2.134-.874 1.916 4.673 1.915 4.674-2.133.874-.252-.505c-.405-.842-.784-1.285-1.138-1.328-.353-.043-.9.29-1.638.998l-1.514 1.407 2.379 5.804 2.077-.036c1.03.003 1.65-.14 1.863-.43.212-.29.16-.908-.16-1.855l-.19-.575 2.133-.874 1.608 3.924 1.609 3.924-2.134.875-.2-.378c-.29-.564-.696-.976-1.218-1.236-.522-.261-1.222-.4-2.098-.416zm-12.072-2.78 6.014-.092-1.635-3.987-4.38 4.08zm9.227-17.726-2.259.462-.137-.462c-.213-.77-.496-1.244-.85-1.424-.355-.18-.998-.174-1.93.017l-9.36 1.912c-.932.19-1.524.437-1.775.74-.25.304-.328.852-.231 1.645l.055.479-2.259.462-.98-4.801-.982-4.801 2.26-.462.136.463c.222.767.508 1.24.858 1.422.35.18.99.175 1.923-.015l9.83-2.009c.736-.15 1.186-.356 1.352-.619.166-.263.156-.753-.028-1.472-.37-1.4-.992-2.525-1.866-3.373-.99-.965-2.528-1.814-4.61-2.547l.626-2.145 3.575.769 3.589.765 1.585 7.76 1.478 7.234zm-3.005-40.701c-.266 2.906-1.402 5.235-3.41 6.986-2.006 1.75-4.4 2.498-7.179 2.244-2.97-.272-5.347-1.486-7.13-3.643-1.783-2.157-2.537-4.73-2.264-7.72.267-2.915 1.406-5.248 3.418-6.998 2.012-1.75 4.412-2.498 7.2-2.243 2.961.271 5.331 1.485 7.11 3.642 1.778 2.156 2.53 4.734 2.255 7.732zm-2.83-.26c.143-1.557-.4-2.845-1.63-3.863-1.23-1.018-2.97-1.63-5.221-1.835-2.17-.199-3.923.068-5.263.8-1.34.732-2.076 1.827-2.21 3.285-.14 1.54.406 2.821 1.64 3.844 1.235 1.022 2.982 1.637 5.242 1.844 2.16.197 3.906-.07 5.241-.802 1.335-.733 2.07-1.823 2.202-3.272zm.111-16.812-9.147-2.755c-.911-.274-1.549-.338-1.914-.19-.365.149-.692.595-.983 1.338l-.178.449-2.208-.665 2.13-7.071 2.47-8.2 3.172-.493 3.173-.492.34 2.11c-1.745.525-3.088 1.272-4.03 2.24-.798.81-1.453 1.937-1.963 3.38-.319.897-.389 1.526-.21 1.886.178.36.714.673 1.608.943l2.878.866.25-.827c.327-1.087.362-1.838.105-2.255-.257-.417-.999-.824-2.226-1.222l.637-2.116 4.153 1.25 4.166 1.255-.637 2.116c-1.203-.257-2.06-.25-2.572.021s-.929.941-1.25 2.01l-.155.513 3.824 1.152c.911.274 1.557.32 1.936.138.38-.181.728-.703 1.045-1.563l.197-.514 2.208.665-1.464 4.863-1.465 4.863-2.208-.665.1-.472c.168-.781.138-1.335-.088-1.66-.218-.324-.783-.624-1.694-.898zm14.599-34.265-9.448-6.242c-.176-.116-.306-.163-.391-.143-.085.021-.179.118-.282.291a4.402 4.402 0 0 0-.549 2.598c.086 1.066.505 2.324 1.257 3.775l-1.814 1.253-1.816-2.532-1.807-2.543 4.252-6.436 4.251-6.436 3.041.676 3.048.665-.44 2.16c-1.63-.122-2.951-.014-3.965.325-.897.296-1.622.804-2.175 1.525-.119.163-.17.287-.156.373.014.087.109.188.284.304l9.449 6.241c.794.525 1.396.758 1.807.7.41-.057.886-.445 1.426-1.163l.33-.424 1.924 1.271-2.86 4.33-2.86 4.328-1.924-1.27.261-.47c.449-.779.619-1.368.51-1.769-.108-.4-.56-.863-1.353-1.387zm10.405-14.467-6.698-6.811c-.667-.679-1.196-1.041-1.587-1.086-.391-.046-.893.188-1.506.7l-.371.308-1.617-1.644 3.494-3.436 3.494-3.435 1.617 1.644-.314.366c-.523.604-.765 1.102-.726 1.493.039.392.392.927 1.059 1.606l1.915 1.947 5.099-5.013-1.915-1.948c-.667-.678-1.197-1.04-1.588-1.086-.39-.045-.893.189-1.505.701l-.372.307-1.616-1.644 3.494-3.435 3.493-3.436 1.617 1.644-.313.367c-.523.604-.765 1.101-.726 1.493.038.392.391.927 1.059 1.606l6.697 6.811c.668.679 1.197 1.04 1.588 1.086.39.045.893-.188 1.505-.7l.372-.308 1.616 1.644-3.494 3.435-3.493 3.436-1.617-1.644.314-.366c.522-.604.764-1.102.725-1.494-.038-.392-.391-.927-1.058-1.605l-2.974-3.024-5.099 5.013 2.974 3.024c.667.679 1.196 1.04 1.587 1.086.391.046.893-.188 1.506-.7l.37-.308 1.618 1.644-3.494 3.436-3.494 3.435-1.617-1.644.314-.366c.523-.604.763-1.103.721-1.498-.036-.389-.387-.922-1.054-1.601zm19.454-11.815-1.227-1.953.362-.275c.606-.446.923-.862.951-1.247.028-.385-.211-.98-.718-1.786l-5.083-8.088c-.507-.806-.94-1.28-1.299-1.42-.359-.143-.87-.037-1.535.316l-.406.206-1.227-1.952 6.124-3.85 7.635-4.798 2.715 1.714 2.715 1.714-1.13 1.813c-1.661-.75-3.164-1.07-4.51-.96-1.257.1-2.643.603-4.158 1.512-.792.476-1.234.908-1.325 1.295-.092.387.106.968.593 1.743l1.468 2.335.778-.489c.961-.604 1.482-1.147 1.562-1.63.08-.482-.212-1.277-.875-2.384l1.871-1.176 2.308 3.672 2.316 3.684-1.871 1.175c-.738-.984-1.389-1.542-1.953-1.674-.564-.132-1.318.099-2.263.693l-.5.314 2.272 3.614c.496.79.94 1.225 1.33 1.304.39.079.974-.148 1.753-.68 1.471-1.012 2.543-2.118 3.215-3.319.748-1.355 1.148-3.126 1.202-5.31l2.215-.241.444 3.595.44 3.614-8.065 5.07-6.124 3.849zm46.637-25.851c-.315 2.097-1.118 3.845-2.41 5.243-1.29 1.399-2.997 2.364-5.119 2.894-2.805.702-5.365.374-7.681-.985s-3.82-3.423-4.514-6.192c-.742-2.965-.475-5.567.8-7.805 1.274-2.239 3.322-3.71 6.145-4.417 1.66-.416 3.242-.425 4.747-.028l.163-.706 1.638-.41 4.049 5.835-1.927 1.289c-1.221-1.449-2.46-2.488-3.716-3.117-1.256-.629-2.444-.803-3.562-.523-1.51.377-2.545 1.316-3.109 2.815-.563 1.5-.57 3.345-.022 5.537.547 2.184 1.45 3.793 2.708 4.827 1.258 1.034 2.695 1.349 4.31.944 1.2-.3 2.224-.945 3.075-1.936.85-.991 1.487-2.285 1.908-3.88l2.517.615zm6.044.456-.733-9.525c-.073-.949-.246-1.566-.52-1.853-.275-.286-.83-.43-1.665-.43l-.51-.001-.176-2.3 4.981-.382 4.982-.383.176 2.299-.503.08c-.825.128-1.352.354-1.579.679-.227.325-.305.962-.232 1.91l.732 9.525c.073.949.247 1.567.521 1.853.275.286.83.43 1.665.43l.51.002.176 2.299-4.981.383-4.982.383-.176-2.3.503-.08c.825-.127 1.354-.356 1.585-.686.223-.32.298-.954.226-1.903zm17.775-.336.958-11.283c.018-.21-.003-.347-.061-.412-.06-.065-.19-.1-.39-.109a4.409 4.409 0 0 0-2.545.762c-.894.585-1.799 1.556-2.713 2.91l-1.968-.993 1.354-2.805 1.368-2.805 7.686.653 7.686.653.862 2.993.875 2.995-2.108.647c-.672-1.49-1.4-2.598-2.183-3.326-.689-.646-1.482-1.04-2.38-1.18-.199-.026-.333-.012-.402.042-.069.054-.112.185-.13.395l-.958 11.283c-.08.948.003 1.589.25 1.922.247.333.815.565 1.704.696l.53.086-.195 2.298-5.17-.44-5.17-.438.196-2.298.536.004c.899.022 1.498-.111 1.797-.398.3-.287.49-.904.571-1.852zm22.456.568-2.08-7.361c-.312-1.076-.613-1.819-.906-2.23-.293-.412-.773-.75-1.439-1.015l-.37-.152.657-2.21 5.052 1.5 5.066 1.503-.656 2.21-.512-.108c-.817-.176-1.313-.127-1.49.145-.176.272-.14.937.11 1.994l.89 3.9 3.005-2.744c.832-.745 1.25-1.28 1.256-1.603.005-.323-.4-.634-1.219-.934l-.514-.196.656-2.21 4.132 1.226 4.131 1.227-.656 2.21-.46-.093a3.738 3.738 0 0 0-1.974.094c-.635.208-1.331.624-2.09 1.248l-5.771 4.83-.934 3.144c-.27.912-.331 1.55-.182 1.915.15.364.597.69 1.342.978l.449.176-.657 2.21-4.697-1.394-4.697-1.395.656-2.21.472.097c.782.165 1.334.136 1.659-.088.324-.223.621-.791.892-1.703l.879-2.96zm30.154 23.208c-2.394-1.67-3.855-3.81-4.383-6.42s.006-5.06 1.602-7.35c1.707-2.446 3.938-3.91 6.695-4.392 2.756-.482 5.365.136 7.827 1.852 2.402 1.675 3.866 3.82 4.391 6.434.525 2.614-.013 5.07-1.614 7.366-1.701 2.44-3.929 3.898-6.683 4.376-2.754.478-5.365-.144-7.835-1.866zm1.625-2.33c1.284.894 2.672 1.06 4.165.494 1.493-.565 2.886-1.775 4.179-3.629 1.245-1.786 1.881-3.443 1.908-4.969.027-1.526-.56-2.708-1.76-3.545-1.27-.885-2.653-1.044-4.152-.477-1.5.566-2.898 1.78-4.196 3.641-1.24 1.78-1.873 3.43-1.897 4.952-.025 1.523.56 2.7 1.753 3.532zm14.546 8.472 6.959-6.545c.693-.652 1.066-1.173 1.12-1.563.055-.39-.168-.897-.667-1.52l-.299-.379 1.68-1.58 5.059 5.38 5.868 6.239-1.16 2.993-1.16 2.994-1.996-.76c.417-1.774.441-3.31.073-4.61-.303-1.097-.951-2.227-1.945-3.39-.619-.725-1.128-1.1-1.529-1.125-.4-.025-.94.282-1.62.922l-2.19 2.059.592.63c.778.826 1.411 1.233 1.9 1.218.49-.014 1.213-.453 2.172-1.317l1.514 1.61-3.16 2.972-3.169 2.98-1.514-1.61c.824-.913 1.247-1.659 1.268-2.237.02-.58-.351-1.275-1.116-2.088l-.367-.39-2.909 2.736c-.693.652-1.056 1.188-1.088 1.608-.033.42.245.982.832 1.686l.346.428-1.68 1.58-3.48-3.7-3.478-3.699 1.68-1.58.358.322c.592.536 1.086.787 1.482.754.39-.027.93-.366 1.624-1.018zm22.359 29.792 10.134-5.052c.188-.093.295-.182.32-.266.024-.084-.013-.214-.11-.39a4.414 4.414 0 0 0-1.975-1.776c-.965-.46-2.264-.727-3.897-.803l-.175-2.198 3.1-.303 3.106-.29 3.442 6.903 3.441 6.903-2.108 2.293-2.102 2.306-1.65-1.463c.923-1.35 1.491-2.548 1.705-3.595.193-.925.117-1.807-.23-2.646-.082-.184-.163-.292-.245-.322-.082-.031-.217 0-.405.094l-10.134 5.052c-.852.425-1.356.83-1.512 1.214-.156.384-.058.99.293 1.817l.202.497-2.064 1.03-2.315-4.644-2.314-4.643 2.063-1.03.276.462c.449.778.874 1.22 1.275 1.327.4.107 1.027-.052 1.879-.477zm7.256 16.231 9.234-2.45c.92-.244 1.496-.525 1.729-.842.233-.318.278-.87.136-1.655l-.084-.475 2.23-.591 1.256 4.736 1.64 6.182c.686 2.582.774 4.627.265 6.135s-1.617 2.488-3.324 2.941c-1.556.413-3.048.018-4.474-1.184a8.316 8.316 0 0 1-1.69-1.98l-3 3.948c-.718.967-1.173 1.696-1.365 2.187-.191.491-.237 1.05-.137 1.677l.055.369-2.229.591-.468-1.764-1.186-4.471 6.43-7.826-.427-1.606-3.316.88c-.929.247-1.506.542-1.732.886-.226.344-.25.956-.073 1.837l.1.541-2.228.592-1.296-4.882-1.295-4.882 2.229-.592.163.454c.266.753.58 1.21.945 1.368.355.161.993.12 1.912-.124zm7.205 3.229.457 1.725c.38 1.432.917 2.483 1.61 3.15.694.669 1.474.888 2.34.658.85-.225 1.41-.779 1.683-1.66.272-.882.228-2.004-.134-3.366l-.073-.279c-.184-.69-.41-1.112-.678-1.268-.269-.156-.748-.143-1.438.04l-3.767 1zm-6.8 18.39 2.301-.13.067.45c.097.746.307 1.225.63 1.436.324.21.96.29 1.911.236l9.538-.537c.95-.053 1.574-.203 1.872-.449.297-.245.453-.744.465-1.497l.016-.454 2.302-.13.406 7.222.507 9.004-2.814 1.546-2.814 1.547-1.04-1.866c1.46-1.09 2.468-2.251 3.022-3.483.522-1.148.751-2.604.689-4.37-.034-.923-.198-1.519-.493-1.786-.294-.268-.898-.376-1.812-.324l-2.754.155.051.918c.064 1.133.288 1.85.671 2.155.384.303 1.22.433 2.51.388l.125 2.206-4.33.244-4.345.244-.124-2.206c1.219-.17 2.022-.47 2.41-.899.388-.43.551-1.202.489-2.316l-.034-.59-4.261.24c-.932.052-1.527.23-1.785.533-.258.304-.342.925-.253 1.864.174 1.777.623 3.25 1.349 4.42.825 1.31 2.18 2.516 4.066 3.62l-.86 2.055-3.362-1.35-3.376-1.364-.535-9.51-.406-7.222zm5.03 27.452c-.942-.133-1.582-.098-1.92.104-.338.202-.594.692-.769 1.472l-.108.47-2.283-.322.523-3.71.523-3.711 2.283.322-.026.481c-.048.797.063 1.34.332 1.627.269.287.875.498 1.817.63l9.46 1.333c.942.133 1.582.098 1.92-.103.338-.202.594-.693.769-1.472l.107-.47 2.284.322-.575 4.077-.574 4.077-11.845 4.874 6.197.873c.943.133 1.583.098 1.92-.104.339-.202.595-.692.77-1.472l.108-.47 2.283.322-.523 3.71-.523 3.71-2.283-.32.026-.482c.048-.797-.063-1.34-.332-1.627-.27-.288-.875-.498-1.817-.63l-14.203-2.002.251-1.78.251-1.78 15.947-6.541-9.99-1.408zm-5.184 24.367 10.686 3.745c.199.07.337.084.414.043.077-.04.145-.158.203-.35a4.409 4.409 0 0 0-.103-2.654c-.343-1.013-1.057-2.13-2.14-3.354l1.453-1.658 2.378 2.012 2.374 2.024-2.55 7.28-2.552 7.28-3.114.086-3.118.1-.1-2.202c1.61-.28 2.865-.707 3.765-1.284.798-.506 1.377-1.175 1.737-2.009.075-.187.095-.32.06-.4-.035-.08-.152-.156-.35-.225l-10.686-3.745c-.899-.315-1.54-.394-1.924-.238-.385.156-.75.648-1.1 1.477l-.215.491-2.176-.763 1.716-4.896 1.715-4.896 2.177.763-.139.518c-.244.865-.265 1.478-.063 1.84.203.362.754.7 1.652 1.015zm-15.299 20.809c1.51-2.5 3.549-4.098 6.119-4.796 2.57-.698 5.05-.326 7.438 1.117 2.554 1.542 4.162 3.673 4.823 6.392.662 2.719.217 5.363-1.335 7.932-1.513 2.506-3.557 4.108-6.13 4.803-2.575.696-5.06.32-7.457-1.127-2.546-1.537-4.148-3.664-4.805-6.38-.658-2.717-.209-5.364 1.347-7.941zm2.433 1.468c-.81 1.34-.883 2.736-.22 4.188.661 1.453 1.96 2.763 3.895 3.932 1.864 1.125 3.558 1.652 5.083 1.578 1.525-.073 2.666-.736 3.422-1.99.8-1.323.868-2.715.204-4.174-.664-1.459-1.967-2.775-3.91-3.948-1.856-1.12-3.544-1.643-5.065-1.568-1.521.076-2.657.737-3.41 1.982zm-9.28 17.08c-.692-.653-1.235-.994-1.628-1.024-.392-.03-.885.222-1.477.758l-.36.321-1.678-1.58 2.569-2.728 2.569-2.728 1.678 1.58-.299.379c-.499.623-.722 1.13-.668 1.52.054.39.427.911 1.12 1.563l6.954 6.55c.693.652 1.236.993 1.628 1.024.393.03.885-.223 1.478-.758l.36-.322 1.678 1.581-2.823 2.998-2.823 2.997-12.485-2.858 4.556 4.29c.693.653 1.236.994 1.628 1.025.393.03.885-.223 1.478-.758l.359-.322 1.679 1.581-2.57 2.728-2.568 2.728-1.679-1.581.3-.378c.499-.624.721-1.13.668-1.52-.054-.39-.428-.912-1.12-1.564l-10.442-9.833 1.233-1.31 1.232-1.308 16.798 3.865-7.345-6.916zm-116.581 43.588 4.316-9.087c.312-.645.365-1.126.159-1.444-.206-.319-.737-.596-1.592-.834l-1.15-.32.996-2.101c1.33.302 2.496.517 3.496.642a43.69 43.69 0 0 0 3.659.318l1.441.4-6.538 13.754c-.36.755-.448 1.255-.26 1.502.188.247.897.57 2.125.967l.664.227-.997 2.102-5.78-1.604-5.792-1.607.996-2.102.699.15c1.304.296 2.136.394 2.496.295.358-.09.712-.51 1.062-1.258zm17.619 8.013c1.09-2.839 2.824-5.578 5.2-8.216 1.625-1.798 3.788-3.815 6.49-6.051l-7.098-.748c-1.065-.113-1.886-.008-2.462.313-.577.32-1.241 1.035-1.993 2.143l-2.016-.779 1.233-2.92 1.26-2.917 15.37 1.62v-.013l-.332 2.504-.027-.003c-3.027 2.966-5.267 5.577-6.72 7.835-1.441 2.24-2.535 4.848-3.281 7.825l-5.624-.593zm24.32 1.163c-1.834.149-3.332-.016-4.496-.496-1.164-.479-1.783-1.188-1.86-2.128-.06-.738.133-1.385.58-1.94a2.373 2.373 0 0 1 1.722-.918c.593-.048 1.093.118 1.5.498.407.38.647.906.72 1.58.05.39.242.657.575.8.333.143.873.184 1.621.123 1.715-.14 3.031-.889 3.949-2.249.712-1.067 1.223-2.578 1.532-4.53-1.551 1.245-3.34 1.95-5.364 2.115-1.833.149-3.32-.187-4.46-1.008-1.142-.82-1.775-2.01-1.902-3.57a7.57 7.57 0 0 1-.02-.68c.002-.253.016-.5.042-.74.171-1.85 1.086-3.474 2.744-4.871 1.659-1.397 3.6-2.186 5.826-2.367 2.873-.233 5.01.433 6.414 2 .989 1.094 1.555 2.577 1.697 4.447a14.93 14.93 0 0 1-.037 2.592c-.317 3.44-1.398 6.127-3.243 8.058-1.826 1.93-4.34 3.024-7.54 3.284zm5.948-14.24c.008-.13.012-.275.013-.435v-.42c-.08-.884-.416-1.587-1.004-2.108-.589-.522-1.307-.748-2.155-.679-1.03.084-1.92.525-2.667 1.325-.748.8-1.172 1.764-1.273 2.892a6.263 6.263 0 0 0-.037.568 5.12 5.12 0 0 0 .014.508c.072.894.384 1.566.935 2.017.55.451 1.296.639 2.235.562 1.022-.083 1.908-.526 2.66-1.331.742-.804 1.169-1.77 1.28-2.9zm23.245-6.716c.483 1.785.031 3.746-1.354 5.883-1.186 1.827-3.397 4.292-6.633 7.395l3.798-1.047c1.42-.391 2.387-.833 2.901-1.326.515-.493.938-1.378 1.269-2.656l2.075.14-.492 3.125-.478 3.122-13.484 3.715-.01.017-.99-2.717.013-.003 2.294-2.37c2.204-2.268 3.831-4.49 4.883-6.67 1.036-2.164 1.347-3.963.933-5.396-.228-.792-.623-1.357-1.186-1.695-.563-.338-1.224-.403-1.983-.194-.979.27-1.726.763-2.24 1.479-.515.716-.527 1.276-.035 1.682.672.546.886 1.28.642 2.2-.245.922-.808 1.505-1.69 1.748-.723.199-1.36.09-1.912-.328-.552-.417-.863-1.029-.933-1.835-.16-1.58.368-3.073 1.584-4.48 1.216-1.408 2.813-2.384 4.789-2.928 2.064-.57 3.849-.567 5.354.005 1.506.572 2.467 1.617 2.885 3.134z" style="text-align:center;line-height:88513.348388669998%;-inkscape-font-specification:ITC Bookman Demi Bold" font-size="28.11" font-weight="700" text-anchor="middle" fill="#f5dc0f" stroke="#000" stroke-width="4" stroke-linecap="round" stroke-linejoin="round" font-family="ITC Bookman Demi"></path><path d="M312.393 322.374c-.359 1.551-.424 2.937-.195 4.158.229 1.221.735 2.229 1.52 3.023.682.69 1.359 1.102 2.03 1.235.673.134 1.246-.034 1.722-.504.338-.334.377-.868.116-1.6-.267-.727-.933-1.908-1.997-3.545-1.583-2.45-2.442-4.347-2.576-5.694-.134-1.346.414-2.628 1.644-3.843 1.387-1.37 3.07-1.968 5.048-1.794 1.979.174 3.775 1.078 5.39 2.712 1.363 1.38 2.182 2.931 2.456 4.654l1.14-.624 1.186 1.201-3.428 6.627-2.031-1.099c.656-1.562.862-3.144.616-4.747-.246-1.603-.9-2.941-1.96-4.016-.792-.8-1.581-1.268-2.37-1.402-.789-.134-1.466.079-2.032.638-.39.386-.465.948-.224 1.687.241.727.885 1.898 1.93 3.516 1.608 2.475 2.48 4.392 2.614 5.752.14 1.353-.401 2.634-1.625 3.843-1.263 1.247-2.788 1.8-4.576 1.656-1.789-.144-3.406-.948-4.853-2.412-1.145-1.146-1.867-2.542-2.168-4.187l-.886.412-1.196-1.21 2.77-5.36 1.935.923zm4.996-13.22-1.92 1.278-.285-.354c-.462-.594-.885-.9-1.271-.918-.386-.018-.975.237-1.767.764l-7.95 5.296c-.792.527-1.255.973-1.387 1.335-.132.363-.013.872.357 1.527l.217.4-1.919 1.278-4.01-6.02-4.998-7.505 1.642-2.76 1.642-2.759 1.842 1.082c-.707 1.68-.986 3.191-.84 4.534.132 1.253.671 2.625 1.62 4.115.497.78.94 1.21 1.33 1.292.39.08.965-.132 1.726-.64l2.297-1.529-.51-.765c-.63-.944-1.186-1.45-1.67-1.518-.485-.067-1.272.245-2.361.938l-1.225-1.84 3.61-2.404 3.621-2.412 1.225 1.84c-.965.763-1.506 1.428-1.623 1.995-.117.568.134 1.316.753 2.245l.327.491 3.553-2.366c.777-.518 1.2-.972 1.268-1.364.069-.392-.173-.97-.726-1.735-1.05-1.444-2.184-2.486-3.402-3.126-1.375-.712-3.155-1.065-5.34-1.061l-.3-2.208 3.582-.54 3.602-.534 5.28 7.928 4.01 6.02zm-16.927-18.026-15.573-.173-.822-2.007-.828-2.019 11.085-10.774c.731-.725 1.178-1.294 1.34-1.706.162-.413.146-.94-.048-1.583l-.113-.384 2.134-.874 1.916 4.673 1.915 4.674-2.133.874-.252-.505c-.405-.842-.784-1.285-1.138-1.328-.353-.043-.9.29-1.638.998l-1.514 1.407 2.379 5.804 2.077-.036c1.03.003 1.65-.14 1.863-.43.212-.29.16-.908-.16-1.855l-.19-.575 2.133-.874 1.608 3.924 1.609 3.924-2.134.875-.2-.378c-.29-.564-.696-.976-1.218-1.236-.522-.261-1.222-.4-2.098-.416zm-12.072-2.78 6.014-.092-1.635-3.987-4.38 4.08zm9.227-17.726-2.259.462-.137-.462c-.213-.77-.496-1.244-.85-1.424-.355-.18-.998-.174-1.93.017l-9.36 1.912c-.932.19-1.524.437-1.775.74-.25.304-.328.852-.231 1.645l.055.479-2.259.462-.98-4.801-.982-4.801 2.26-.462.136.463c.222.767.508 1.24.858 1.422.35.18.99.175 1.923-.015l9.83-2.009c.736-.15 1.186-.356 1.352-.619.166-.263.156-.753-.028-1.472-.37-1.4-.992-2.525-1.866-3.373-.99-.965-2.528-1.814-4.61-2.547l.626-2.145 3.575.769 3.589.765 1.585 7.76 1.478 7.234zm-3.005-40.701c-.266 2.906-1.402 5.235-3.41 6.986-2.006 1.75-4.4 2.498-7.179 2.244-2.97-.272-5.347-1.486-7.13-3.643-1.783-2.157-2.537-4.73-2.264-7.72.267-2.915 1.406-5.248 3.418-6.998 2.012-1.75 4.412-2.498 7.2-2.243 2.961.271 5.331 1.485 7.11 3.642 1.778 2.156 2.53 4.734 2.255 7.732zm-2.83-.26c.143-1.557-.4-2.845-1.63-3.863-1.23-1.018-2.97-1.63-5.221-1.835-2.17-.199-3.923.068-5.263.8-1.34.732-2.076 1.827-2.21 3.285-.14 1.54.406 2.821 1.64 3.844 1.235 1.022 2.982 1.637 5.242 1.844 2.16.197 3.906-.07 5.241-.802 1.335-.733 2.07-1.823 2.202-3.272zm.111-16.812-9.147-2.755c-.911-.274-1.549-.338-1.914-.19-.365.149-.692.595-.983 1.338l-.178.449-2.208-.665 2.13-7.071 2.47-8.2 3.172-.493 3.173-.492.34 2.11c-1.745.525-3.088 1.272-4.03 2.24-.798.81-1.453 1.937-1.963 3.38-.319.897-.389 1.526-.21 1.886.178.36.714.673 1.608.943l2.878.866.25-.827c.327-1.087.362-1.838.105-2.255-.257-.417-.999-.824-2.226-1.222l.637-2.116 4.153 1.25 4.166 1.255-.637 2.116c-1.203-.257-2.06-.25-2.572.021s-.929.941-1.25 2.01l-.155.513 3.824 1.152c.911.274 1.557.32 1.936.138.38-.181.728-.703 1.045-1.563l.197-.514 2.208.665-1.464 4.863-1.465 4.863-2.208-.665.1-.472c.168-.781.138-1.335-.088-1.66-.218-.324-.783-.624-1.694-.898zm14.599-34.265-9.448-6.242c-.176-.116-.306-.163-.391-.143-.085.021-.179.118-.282.291a4.402 4.402 0 0 0-.549 2.598c.086 1.066.505 2.324 1.257 3.775l-1.814 1.253-1.816-2.532-1.807-2.543 4.252-6.436 4.251-6.436 3.041.676 3.048.665-.44 2.16c-1.63-.122-2.951-.014-3.965.325-.897.296-1.622.804-2.175 1.525-.119.163-.17.287-.156.373.014.087.109.188.284.304l9.449 6.241c.794.525 1.396.758 1.807.7.41-.057.886-.445 1.426-1.163l.33-.424 1.924 1.271-2.86 4.33-2.86 4.328-1.924-1.27.261-.47c.449-.779.619-1.368.51-1.769-.108-.4-.56-.863-1.353-1.387zm10.405-14.467-6.698-6.811c-.667-.679-1.196-1.041-1.587-1.086-.391-.046-.893.188-1.506.7l-.371.308-1.617-1.644 3.494-3.436 3.494-3.435 1.617 1.644-.314.366c-.523.604-.765 1.102-.726 1.493.039.392.392.927 1.059 1.606l1.915 1.947 5.099-5.013-1.915-1.948c-.667-.678-1.197-1.04-1.588-1.086-.39-.045-.893.189-1.505.701l-.372.307-1.616-1.644 3.494-3.435 3.493-3.436 1.617 1.644-.313.367c-.523.604-.765 1.101-.726 1.493.038.392.391.927 1.059 1.606l6.697 6.811c.668.679 1.197 1.04 1.588 1.086.39.045.893-.188 1.505-.7l.372-.308 1.616 1.644-3.494 3.435-3.493 3.436-1.617-1.644.314-.366c.522-.604.764-1.102.725-1.494-.038-.392-.391-.927-1.058-1.605l-2.974-3.024-5.099 5.013 2.974 3.024c.667.679 1.196 1.04 1.587 1.086.391.046.893-.188 1.506-.7l.37-.308 1.618 1.644-3.494 3.436-3.494 3.435-1.617-1.644.314-.366c.523-.604.763-1.103.721-1.498-.036-.389-.387-.922-1.054-1.601zm19.454-11.815-1.227-1.953.362-.275c.606-.446.923-.862.951-1.247.028-.385-.211-.98-.718-1.786l-5.083-8.088c-.507-.806-.94-1.28-1.299-1.42-.359-.143-.87-.037-1.535.316l-.406.206-1.227-1.952 6.124-3.85 7.635-4.798 2.715 1.714 2.715 1.714-1.13 1.813c-1.661-.75-3.164-1.07-4.51-.96-1.257.1-2.643.603-4.158 1.512-.792.476-1.234.908-1.325 1.295-.092.387.106.968.593 1.743l1.468 2.335.778-.489c.961-.604 1.482-1.147 1.562-1.63.08-.482-.212-1.277-.875-2.384l1.871-1.176 2.308 3.672 2.316 3.684-1.871 1.175c-.738-.984-1.389-1.542-1.953-1.674-.564-.132-1.318.099-2.263.693l-.5.314 2.272 3.614c.496.79.94 1.225 1.33 1.304.39.079.974-.148 1.753-.68 1.471-1.012 2.543-2.118 3.215-3.319.748-1.355 1.148-3.126 1.202-5.31l2.215-.241.444 3.595.44 3.614-8.065 5.07-6.124 3.849zm46.637-25.851c-.315 2.097-1.118 3.845-2.41 5.243-1.29 1.399-2.997 2.364-5.119 2.894-2.805.702-5.365.374-7.681-.985s-3.82-3.423-4.514-6.192c-.742-2.965-.475-5.567.8-7.805 1.274-2.239 3.322-3.71 6.145-4.417 1.66-.416 3.242-.425 4.747-.028l.163-.706 1.638-.41 4.049 5.835-1.927 1.289c-1.221-1.449-2.46-2.488-3.716-3.117-1.256-.629-2.444-.803-3.562-.523-1.51.377-2.545 1.316-3.109 2.815-.563 1.5-.57 3.345-.022 5.537.547 2.184 1.45 3.793 2.708 4.827 1.258 1.034 2.695 1.349 4.31.944 1.2-.3 2.224-.945 3.075-1.936.85-.991 1.487-2.285 1.908-3.88l2.517.615zm6.044.456-.733-9.525c-.073-.949-.246-1.566-.52-1.853-.275-.286-.83-.43-1.665-.43l-.51-.001-.176-2.3 4.981-.382 4.982-.383.176 2.299-.503.08c-.825.128-1.352.354-1.579.679-.227.325-.305.962-.232 1.91l.732 9.525c.073.949.247 1.567.521 1.853.275.286.83.43 1.665.43l.51.002.176 2.299-4.981.383-4.982.383-.176-2.3.503-.08c.825-.127 1.354-.356 1.585-.686.223-.32.298-.954.226-1.903zm17.775-.336.958-11.283c.018-.21-.003-.347-.061-.412-.06-.065-.19-.1-.39-.109a4.409 4.409 0 0 0-2.545.762c-.894.585-1.799 1.556-2.713 2.91l-1.968-.993 1.354-2.805 1.368-2.805 7.686.653 7.686.653.862 2.993.875 2.995-2.108.647c-.672-1.49-1.4-2.598-2.183-3.326-.689-.646-1.482-1.04-2.38-1.18-.199-.026-.333-.012-.402.042-.069.054-.112.185-.13.395l-.958 11.283c-.08.948.003 1.589.25 1.922.247.333.815.565 1.704.696l.53.086-.195 2.298-5.17-.44-5.17-.438.196-2.298.536.004c.899.022 1.498-.111 1.797-.398.3-.287.49-.904.571-1.852zm22.456.568-2.08-7.361c-.312-1.076-.613-1.819-.906-2.23-.293-.412-.773-.75-1.439-1.015l-.37-.152.657-2.21 5.052 1.5 5.066 1.503-.656 2.21-.512-.108c-.817-.176-1.313-.127-1.49.145-.176.272-.14.937.11 1.994l.89 3.9 3.005-2.744c.832-.745 1.25-1.28 1.256-1.603.005-.323-.4-.634-1.219-.934l-.514-.196.656-2.21 4.132 1.226 4.131 1.227-.656 2.21-.46-.093a3.738 3.738 0 0 0-1.974.094c-.635.208-1.331.624-2.09 1.248l-5.771 4.83-.934 3.144c-.27.912-.331 1.55-.182 1.915.15.364.597.69 1.342.978l.449.176-.657 2.21-4.697-1.394-4.697-1.395.656-2.21.472.097c.782.165 1.334.136 1.659-.088.324-.223.621-.791.892-1.703l.879-2.96zm30.154 23.208c-2.394-1.67-3.855-3.81-4.383-6.42s.006-5.06 1.602-7.35c1.707-2.446 3.938-3.91 6.695-4.392 2.756-.482 5.365.136 7.827 1.852 2.402 1.675 3.866 3.82 4.391 6.434.525 2.614-.013 5.07-1.614 7.366-1.701 2.44-3.929 3.898-6.683 4.376-2.754.478-5.365-.144-7.835-1.866zm1.625-2.33c1.284.894 2.672 1.06 4.165.494 1.493-.565 2.886-1.775 4.179-3.629 1.245-1.786 1.881-3.443 1.908-4.969.027-1.526-.56-2.708-1.76-3.545-1.27-.885-2.653-1.044-4.152-.477-1.5.566-2.898 1.78-4.196 3.641-1.24 1.78-1.873 3.43-1.897 4.952-.025 1.523.56 2.7 1.753 3.532zm14.546 8.472 6.959-6.545c.693-.652 1.066-1.173 1.12-1.563.055-.39-.168-.897-.667-1.52l-.299-.379 1.68-1.58 5.059 5.38 5.868 6.239-1.16 2.993-1.16 2.994-1.996-.76c.417-1.774.441-3.31.073-4.61-.303-1.097-.951-2.227-1.945-3.39-.619-.725-1.128-1.1-1.529-1.125-.4-.025-.94.282-1.62.922l-2.19 2.059.592.63c.778.826 1.411 1.233 1.9 1.218.49-.014 1.213-.453 2.172-1.317l1.514 1.61-3.16 2.972-3.169 2.98-1.514-1.61c.824-.913 1.247-1.659 1.268-2.237.02-.58-.351-1.275-1.116-2.088l-.367-.39-2.909 2.736c-.693.652-1.056 1.188-1.088 1.608-.033.42.245.982.832 1.686l.346.428-1.68 1.58-3.48-3.7-3.478-3.699 1.68-1.58.358.322c.592.536 1.086.787 1.482.754.39-.027.93-.366 1.624-1.018zm22.359 29.792 10.134-5.052c.188-.093.295-.182.32-.266.024-.084-.013-.214-.11-.39a4.414 4.414 0 0 0-1.975-1.776c-.965-.46-2.264-.727-3.897-.803l-.175-2.198 3.1-.303 3.106-.29 3.442 6.903 3.441 6.903-2.108 2.293-2.102 2.306-1.65-1.463c.923-1.35 1.491-2.548 1.705-3.595.193-.925.117-1.807-.23-2.646-.082-.184-.163-.292-.245-.322-.082-.031-.217 0-.405.094l-10.134 5.052c-.852.425-1.356.83-1.512 1.214-.156.384-.058.99.293 1.817l.202.497-2.064 1.03-2.315-4.644-2.314-4.643 2.063-1.03.276.462c.449.778.874 1.22 1.275 1.327.4.107 1.027-.052 1.879-.477zm7.256 16.231 9.234-2.45c.92-.244 1.496-.525 1.729-.842.233-.318.278-.87.136-1.655l-.084-.475 2.23-.591 1.256 4.736 1.64 6.182c.686 2.582.774 4.627.265 6.135s-1.617 2.488-3.324 2.941c-1.556.413-3.048.018-4.474-1.184a8.316 8.316 0 0 1-1.69-1.98l-3 3.948c-.718.967-1.173 1.696-1.365 2.187-.191.491-.237 1.05-.137 1.677l.055.369-2.229.591-.468-1.764-1.186-4.471 6.43-7.826-.427-1.606-3.316.88c-.929.247-1.506.542-1.732.886-.226.344-.25.956-.073 1.837l.1.541-2.228.592-1.296-4.882-1.295-4.882 2.229-.592.163.454c.266.753.58 1.21.945 1.368.355.161.993.12 1.912-.124zm7.205 3.229.457 1.725c.38 1.432.917 2.483 1.61 3.15.694.669 1.474.888 2.34.658.85-.225 1.41-.779 1.683-1.66.272-.882.228-2.004-.134-3.366l-.073-.279c-.184-.69-.41-1.112-.678-1.268-.269-.156-.748-.143-1.438.04l-3.767 1zm-6.8 18.39 2.301-.13.067.45c.097.746.307 1.225.63 1.436.324.21.96.29 1.911.236l9.538-.537c.95-.053 1.574-.203 1.872-.449.297-.245.453-.744.465-1.497l.016-.454 2.302-.13.406 7.222.507 9.004-2.814 1.546-2.814 1.547-1.04-1.866c1.46-1.09 2.468-2.251 3.022-3.483.522-1.148.751-2.604.689-4.37-.034-.923-.198-1.519-.493-1.786-.294-.268-.898-.376-1.812-.324l-2.754.155.051.918c.064 1.133.288 1.85.671 2.155.384.303 1.22.433 2.51.388l.125 2.206-4.33.244-4.345.244-.124-2.206c1.219-.17 2.022-.47 2.41-.899.388-.43.551-1.202.489-2.316l-.034-.59-4.261.24c-.932.052-1.527.23-1.785.533-.258.304-.342.925-.253 1.864.174 1.777.623 3.25 1.349 4.42.825 1.31 2.18 2.516 4.066 3.62l-.86 2.055-3.362-1.35-3.376-1.364-.535-9.51-.406-7.222zm5.03 27.452c-.942-.133-1.582-.098-1.92.104-.338.202-.594.692-.769 1.472l-.108.47-2.283-.322.523-3.71.523-3.711 2.283.322-.026.481c-.048.797.063 1.34.332 1.627.269.287.875.498 1.817.63l9.46 1.333c.942.133 1.582.098 1.92-.103.338-.202.594-.693.769-1.472l.107-.47 2.284.322-.575 4.077-.574 4.077-11.845 4.874 6.197.873c.943.133 1.583.098 1.92-.104.339-.202.595-.692.77-1.472l.108-.47 2.283.322-.523 3.71-.523 3.71-2.283-.32.026-.482c.048-.797-.063-1.34-.332-1.627-.27-.288-.875-.498-1.817-.63l-14.203-2.002.251-1.78.251-1.78 15.947-6.541-9.99-1.408zm-5.184 24.367 10.686 3.745c.199.07.337.084.414.043.077-.04.145-.158.203-.35a4.409 4.409 0 0 0-.103-2.654c-.343-1.013-1.057-2.13-2.14-3.354l1.453-1.658 2.378 2.012 2.374 2.024-2.55 7.28-2.552 7.28-3.114.086-3.118.1-.1-2.202c1.61-.28 2.865-.707 3.765-1.284.798-.506 1.377-1.175 1.737-2.009.075-.187.095-.32.06-.4-.035-.08-.152-.156-.35-.225l-10.686-3.745c-.899-.315-1.54-.394-1.924-.238-.385.156-.75.648-1.1 1.477l-.215.491-2.176-.763 1.716-4.896 1.715-4.896 2.177.763-.139.518c-.244.865-.265 1.478-.063 1.84.203.362.754.7 1.652 1.015zm-15.299 20.809c1.51-2.5 3.549-4.098 6.119-4.796 2.57-.698 5.05-.326 7.438 1.117 2.554 1.542 4.162 3.673 4.823 6.392.662 2.719.217 5.363-1.335 7.932-1.513 2.506-3.557 4.108-6.13 4.803-2.575.696-5.06.32-7.457-1.127-2.546-1.537-4.148-3.664-4.805-6.38-.658-2.717-.209-5.364 1.347-7.941zm2.433 1.468c-.81 1.34-.883 2.736-.22 4.188.661 1.453 1.96 2.763 3.895 3.932 1.864 1.125 3.558 1.652 5.083 1.578 1.525-.073 2.666-.736 3.422-1.99.8-1.323.868-2.715.204-4.174-.664-1.459-1.967-2.775-3.91-3.948-1.856-1.12-3.544-1.643-5.065-1.568-1.521.076-2.657.737-3.41 1.982zm-9.28 17.08c-.692-.653-1.235-.994-1.628-1.024-.392-.03-.885.222-1.477.758l-.36.321-1.678-1.58 2.569-2.728 2.569-2.728 1.678 1.58-.299.379c-.499.623-.722 1.13-.668 1.52.054.39.427.911 1.12 1.563l6.954 6.55c.693.652 1.236.993 1.628 1.024.393.03.885-.223 1.478-.758l.36-.322 1.678 1.581-2.823 2.998-2.823 2.997-12.485-2.858 4.556 4.29c.693.653 1.236.994 1.628 1.025.393.03.885-.223 1.478-.758l.359-.322 1.679 1.581-2.57 2.728-2.568 2.728-1.679-1.581.3-.378c.499-.624.721-1.13.668-1.52-.054-.39-.428-.912-1.12-1.564l-10.442-9.833 1.233-1.31 1.232-1.308 16.798 3.865-7.345-6.916zm-116.581 43.588 4.316-9.087c.312-.645.365-1.126.159-1.444-.206-.319-.737-.596-1.592-.834l-1.15-.32.996-2.101c1.33.302 2.496.517 3.496.642a43.69 43.69 0 0 0 3.659.318l1.441.4-6.538 13.754c-.36.755-.448 1.255-.26 1.502.188.247.897.57 2.125.967l.664.227-.997 2.102-5.78-1.604-5.792-1.607.996-2.102.699.15c1.304.296 2.136.394 2.496.295.358-.09.712-.51 1.062-1.258zm17.619 8.013c1.09-2.839 2.824-5.578 5.2-8.216 1.625-1.798 3.788-3.815 6.49-6.051l-7.098-.748c-1.065-.113-1.886-.008-2.462.313-.577.32-1.241 1.035-1.993 2.143l-2.016-.779 1.233-2.92 1.26-2.917 15.37 1.62v-.013l-.332 2.504-.027-.003c-3.027 2.966-5.267 5.577-6.72 7.835-1.441 2.24-2.535 4.848-3.281 7.825l-5.624-.593zm24.32 1.163c-1.834.149-3.332-.016-4.496-.496-1.164-.479-1.783-1.188-1.86-2.128-.06-.738.133-1.385.58-1.94a2.373 2.373 0 0 1 1.722-.918c.593-.048 1.093.118 1.5.498.407.38.647.906.72 1.58.05.39.242.657.575.8.333.143.873.184 1.621.123 1.715-.14 3.031-.889 3.949-2.249.712-1.067 1.223-2.578 1.532-4.53-1.551 1.245-3.34 1.95-5.364 2.115-1.833.149-3.32-.187-4.46-1.008-1.142-.82-1.775-2.01-1.902-3.57a7.57 7.57 0 0 1-.02-.68c.002-.253.016-.5.042-.74.171-1.85 1.086-3.474 2.744-4.871 1.659-1.397 3.6-2.186 5.826-2.367 2.873-.233 5.01.433 6.414 2 .989 1.094 1.555 2.577 1.697 4.447a14.93 14.93 0 0 1-.037 2.592c-.317 3.44-1.398 6.127-3.243 8.058-1.826 1.93-4.34 3.024-7.54 3.284zm5.948-14.24c.008-.13.012-.275.013-.435v-.42c-.08-.884-.416-1.587-1.004-2.108-.589-.522-1.307-.748-2.155-.679-1.03.084-1.92.525-2.667 1.325-.748.8-1.172 1.764-1.273 2.892a6.263 6.263 0 0 0-.037.568 5.12 5.12 0 0 0 .014.508c.072.894.384 1.566.935 2.017.55.451 1.296.639 2.235.562 1.022-.083 1.908-.526 2.66-1.331.742-.804 1.169-1.77 1.28-2.9zm23.245-6.716c.483 1.785.031 3.746-1.354 5.883-1.186 1.827-3.397 4.292-6.633 7.395l3.798-1.047c1.42-.391 2.387-.833 2.901-1.326.515-.493.938-1.378 1.269-2.656l2.075.14-.492 3.125-.478 3.122-13.484 3.715-.01.017-.99-2.717.013-.003 2.294-2.37c2.204-2.268 3.831-4.49 4.883-6.67 1.036-2.164 1.347-3.963.933-5.396-.228-.792-.623-1.357-1.186-1.695-.563-.338-1.224-.403-1.983-.194-.979.27-1.726.763-2.24 1.479-.515.716-.527 1.276-.035 1.682.672.546.886 1.28.642 2.2-.245.922-.808 1.505-1.69 1.748-.723.199-1.36.09-1.912-.328-.552-.417-.863-1.029-.933-1.835-.16-1.58.368-3.073 1.584-4.48 1.216-1.408 2.813-2.384 4.789-2.928 2.064-.57 3.849-.567 5.354.005 1.506.572 2.467 1.617 2.885 3.134z" style="text-align:center;line-height:88513.348388669983%;-inkscape-font-specification:ITC Bookman Demi Bold" font-size="28.11" font-weight="700" text-anchor="middle" fill="#f5dc0f" font-family="ITC Bookman Demi"></path></svg>