<svg version="1" xmlns="http://www.w3.org/2000/svg" xmlns:xlink="http://www.w3.org/1999/xlink" width="600" height="360" viewBox="0 0 500 300" xmlns:cgf="https://coding.garden/flags"><metadata id="cgf-metadata">

<cgf:flag>
  <cgf:name>Grenada</cgf:name>
  <cgf:route>gd</cgf:route>
  <cgf:aspect-ratio>1.6666666666666667</cgf:aspect-ratio>
</cgf:flag>

</metadata><defs><g id="c"><g id="b"><path id="a" d="M0-1v1h.5" transform="rotate(18 0 -1)" fill="#fcd116"></path><use xlink:href="#a" transform="scale(-1 1)"></use></g><use xlink:href="#b" transform="rotate(72)"></use><use xlink:href="#b" transform="rotate(144)"></use><use xlink:href="#b" transform="rotate(216)"></use><use xlink:href="#b" transform="rotate(288)"></use></g></defs><path fill="#ce1126" d="M0 0h500v300H0z"></path><path fill="#007a5e" d="M42 42h416v216H42z"></path><path d="M42 42h416L42 258h416z" fill="#fcd116"></path><circle cx="250" cy="150" r="36" fill="#ce1126"></circle><use xlink:href="#c" transform="matrix(33 0 0 33 250 150)"></use><use xlink:href="#d" x="-100"></use><use id="d" xlink:href="#c" transform="matrix(19.5 0 0 19.5 250 21)"></use><use xlink:href="#d" x="100"></use><use xlink:href="#d" x="-100" y="258"></use><use xlink:href="#d" y="258"></use><use xlink:href="#d" x="100" y="258"></use><path d="M67.749 150.41c4.504 8.39 13.265 17.52 20.916 20.73.123-8.52-2.9-19.44-7.034-28.14l-13.882 7.41z" fill="#ce1126"></path><path d="M60.112 121.63c6.529 13.61-16.933 46.08 22.156 53.69-4.822-6.58-7.931-17.44-6.755-26.16 8.201 3.12 16.83 12.25 20.317 19.23 10.23-37.15-26.24-34.89-35.718-46.76z" fill="#fcd116"></path></svg>