<svg xmlns="http://www.w3.org/2000/svg" xmlns:xlink="http://www.w3.org/1999/xlink" width="900" height="600" viewBox="0 0 300 200" xmlns:cgf="https://coding.garden/flags"><metadata id="cgf-metadata">

<cgf:flag>
  <cgf:name>Georgia</cgf:name>
  <cgf:route>ge</cgf:route>
  <cgf:aspect-ratio>1.5</cgf:aspect-ratio>
</cgf:flag>

</metadata><defs><g id="c"><clipPath id="a"><path d="M-109 104a104 104 0 0 0 0-208h218a104 104 0 0 0 0 208z"></path></clipPath><path id="b" d="M-55 74a55 55 0 0 1 110 0V-74a55 55 0 0 1-110 0z" clip-path="url(#a)"></path><use xlink:href="#b" transform="rotate(90)"></use></g></defs><path fill="#fff" d="M0 0h300v200H0z"></path><path d="M130 0v80H0v40h130v80h40v-80h130V80H170V0h-40z" fill="red"></path><use xlink:href="#c" transform="translate(64.45 39.45)" fill="red"></use><use xlink:href="#c" transform="translate(235.55 160.55)" fill="red"></use><use xlink:href="#c" transform="translate(235.55 39.45)" fill="red"></use><use xlink:href="#c" transform="translate(64.45 160.55)" fill="red"></use></svg>