<svg xmlns="http://www.w3.org/2000/svg" xmlns:xlink="http://www.w3.org/1999/xlink" width="600" height="300" viewBox="0 0 120 60" xmlns:cgf="https://coding.garden/flags"><metadata id="cgf-metadata">

<cgf:flag>
  <cgf:name>Niue</cgf:name>
  <cgf:route>nu</cgf:route>
  <cgf:aspect-ratio>2</cgf:aspect-ratio>
</cgf:flag>

</metadata><clipPath id="a"><path d="M0 0v15h70v15H60zm0 30v10h30V0h30z"></path></clipPath><path fill="#002868" d="M0 0h120v60H0z"></path><g stroke="#cf142b" stroke-width="6"><path d="m0 0 60 30m0-30L0 30" stroke="#fff"></path><path d="m0 0 60 30m0-30L0 30" clip-path="url(#a)" stroke-width="4"></path><path d="M30 0v40M0 15h70" stroke="#fff" stroke-width="10"></path><path d="M30 0v40M0 15h70"></path></g><path d="M60 0h60v60H0V30h60z" fill="#fcd116"></path><g transform="translate(30 15)"><g transform="scale(5.1039)"><circle r="1" fill="#002868"></circle><path id="b" d="m0-513674 301930 929245-790463-574305h977066l-790463 574305" fill="#fcd116" transform="scale(0)"></path></g><use xlink:href="#b" transform="matrix(3 0 0 3 -17.5 .29)"></use><use xlink:href="#b" transform="matrix(3 0 0 3 17.5 .29)"></use><use xlink:href="#b" transform="matrix(3 0 0 3 0 10.29)"></use><use xlink:href="#b" transform="matrix(3 0 0 3 0 -9.71)"></use></g></svg>