<svg xmlns="http://www.w3.org/2000/svg" xmlns:xlink="http://www.w3.org/1999/xlink" width="1200" height="600" xmlns:cgf="https://coding.garden/flags"><metadata id="cgf-metadata">

<cgf:flag>
  <cgf:name>Tuvalu</cgf:name>
  <cgf:route>tv</cgf:route>
  <cgf:aspect-ratio>2</cgf:aspect-ratio>
</cgf:flag>

</metadata><defs><clipPath id="b"><path d="M0 0v150h700v150H600zm0 300v100h300V0h300z"></path></clipPath><path id="a" fill="#ffce00" d="m0-50.08 29.437 90.596-77.067-55.992h95.26l-77.067 55.993z"></path><use id="c" xlink:href="#a" transform="rotate(36)"></use></defs><path fill="#00247d" d="M0 0h1200v600H0z"></path><path d="m0 0 600 300M0 300 600 0" stroke="#fff" stroke-width="60"></path><path d="m0 0 600 300M0 300 600 0" stroke="#cf142b" stroke-width="40" clip-path="url(#b)"></path><path d="M300 0v400M0 150h700" stroke="#fff" stroke-width="100"></path><path d="M300 0v400M0 150h700" stroke="#cf142b" stroke-width="60"></path><path d="M0 300h600V0h600v600H0z" fill="#5b97b1"></path><use xlink:href="#a" x="645.34" y="540.994"></use><use xlink:href="#c" x="788.026" y="504.516"></use><use xlink:href="#c" x="788.026" y="382.532"></use><use xlink:href="#c" x="914.03" y="473.684"></use><use xlink:href="#c" x="914.03" y="208.271"></use><use xlink:href="#a" x="996.442" y="390.046"></use><use xlink:href="#c" x="1019.928" y="172.078"></use><use xlink:href="#a" x="1102.836" y="321.554"></use><use xlink:href="#a" x="1102.836" y="87.486"></use></svg>