<svg xmlns="http://www.w3.org/2000/svg" width="600" height="400" shape-rendering="geometricPrecision" text-rendering="geometricPrecision" image-rendering="optimizeQuality" fill-rule="evenodd" clip-rule="evenodd"><path fill="#72706f" d="M0 0h200v400H0z"/><path fill="#c2c1c1" d="M200 0h200v400H200z"/><path fill="#969594" d="M400 0h200v400H400z"/><path d="M348.367 270.386h-93.705v-9.345c0-15.913 1.768-28.878 5.388-38.813 3.62-10.019 9.008-19.027 16.165-27.278 7.156-8.25 23.237-22.732 48.242-43.443 13.302-10.86 19.953-20.795 19.953-29.804 0-9.093-2.694-16.08-7.998-21.132-5.388-4.967-13.47-7.493-24.332-7.493-11.702 0-21.3 3.873-28.962 11.618-7.661 7.662-12.544 21.217-14.649 40.412l-95.726-11.87c3.283-35.193 16.08-63.481 38.307-84.95 22.311-21.47 56.493-32.161 102.546-32.161 35.866 0 64.744 7.493 86.802 22.395 29.888 20.29 44.874 47.231 44.874 80.908 0 13.976-3.872 27.53-11.618 40.496-7.662 12.966-23.49 28.878-47.316 47.569-16.586 13.218-27.11 23.742-31.488 31.74-4.294 7.914-6.483 18.354-6.483 31.151zm-96.989 24.92h100.441v88.57H251.378v-88.57z" fill="#fff" fill-rule="nonzero" stroke="#000" stroke-width=".152"/></svg>