<svg xmlns="http://www.w3.org/2000/svg" width="650" height="500" version="1"><path fill="#002673" d="M0 250h650v250H0z"/><path fill="#c70f2e" d="M0 .003h650V250H0z"/><path d="M489.123 465.194c0-.374 4.08-7.783 4.88-8.862.433-.585 1.762-1.568 2.954-2.184 1.247-.644 2.167-1.638 2.167-2.339 0-1.543 2.53-4.297 5.231-5.694 1.145-.592 2.544-1.971 3.11-3.065.565-1.094 1.452-1.989 1.971-1.989 1.446 0 1.74-.913 2.012-6.245l.252-4.923-2.62-1.03c-2.131-.837-2.622-1.36-2.622-2.794 0-1.905-1.087-4.382-2.266-5.162l-332.772-.848 1.08-236.694c.205-1.079-.106-1.334-1.63-1.334-1.06 0-2.279-.537-2.785-1.227-.806-1.098-1.153-1.137-3.277-.369-2.235.809-2.486.753-4.252-.94-1.032-.988-2.349-1.797-2.926-1.797-1.448 0-2.779-1.764-2.29-3.035.268-.702-.594-1.96-2.593-3.778-2.182-1.985-2.996-3.232-2.996-4.585 0-1.022.3-2.044.667-2.27.366-.227.666-1.028.666-1.78 0-1.107-.301-1.29-1.593-.966-1.309.329-1.982-.105-3.766-2.43-1.194-1.555-3.096-3.278-4.226-3.827-1.13-.55-2.211-1.65-2.402-2.446-.191-.797-1.174-2.095-2.185-2.886-3.882-3.037-3.747-6.001.273-6.001 1.801 0 1.929-.167 1.783-2.326-.186-2.769 1.805-5.798 4.176-6.352 1.255-.294 1.653-.88 1.82-2.683.29-3.112.846-3.508 3.251-2.308 1.992.993 4.101.795 4.303-.404.335-1.998.09-2.262-2.1-2.262-2.776 0-3.267-1.72-.667-2.334 2.135-.504 2.393-3.514.333-3.896-2.193-.408-3.021-1.456-2.57-3.253.27-1.073.09-1.869-.507-2.246-1.328-.84-5.362.055-6.565 1.457-1.817 2.118-5.503 1.904-7.68-.446-1.027-1.107-2.139-1.64-3.136-1.5-1.254.176-1.584-.128-1.755-1.617-.128-1.107-.614-1.834-1.228-1.834-1.275 0-4.3-2.248-7.399-5.5-1.832-1.923-2.901-2.5-4.627-2.5-2.78 0-3.29-1.119-2.234-4.892l.796-2.844-3.062-3.3c-2.258-2.434-2.971-3.68-2.717-4.747.547-2.298-.28-3.553-2.345-3.553-2.173 0-4.086-1.606-3.556-2.987.384-1.001-3.751-3.14-5.717-2.957-2.12.198-2.331-.117-.845-1.261l1.527-1.175-1.413-3.194c-.777-1.757-1.552-3.997-1.722-4.978-.17-.981-.76-2.127-1.31-2.546-1.196-.91-.65-3.962.86-4.807 1.32-.74.85-3.691-.635-3.974-.816-.156-1.167.205-1.167 1.2 0 1.233-.328 1.395-2.456 1.216-2.076-.175-2.536-.507-2.972-2.15-.283-1.069-.347-2.215-.142-2.548 95.86 1.188 191.747.329 287.603-2.452 12.974-.516 13.753-.478 15.335.752.917.713 1.821 1.91 2.01 2.659.207.82 1.267 1.663 2.66 2.114 1.45.471 2.4 1.249 2.545 2.085.128.733.607 1.633 1.066 2 .46.367 1.195 1.342 1.635 2.167.481.904 1.422 1.5 2.368 1.5 1.26 0 1.654.452 2 2.293.48 2.56 4.092 5.368 5.976 4.644 1.417-.543 1.357.06-.222 2.258-3.503 4.876-5.456 16.802-4.033 24.622.868 4.772 1.964 7.56 4.615 11.73 1.565 2.463 1.58 2.61.48 4.473-1.572 2.662-.842 4.87 2.296 6.947 2.8 1.853 2.857 1.985 2.647 6.086-.13 2.508.103 2.906 3.077 5.277 1.77 1.41 4.294 3.64 5.61 4.955 1.318 1.315 3.193 2.93 4.168 3.588.975.66 1.773 1.724 1.773 2.367 0 1.612 1.306 2.77 3.125 2.77 1.053 0 2.044.821 3.2 2.653.922 1.46 1.676 2.925 1.676 3.256 0 .938 5.221 5.425 6.313 5.425.536 0 1.96.856 3.165 1.903 1.205 1.046 3.39 2.655 4.857 3.574 1.467.92 4.56 3.497 6.873 5.729 4.07 3.927 4.227 4.202 4.87 8.594.366 2.495 1.152 5.483 1.747 6.64 1 1.949.998 2.231-.037 3.81-1.414 2.159-1.4 2.726.143 6.044.694 1.49 1.434 3.91 1.644 5.378.283 1.972 1.077 3.318 3.047 5.167 1.465 1.375 3.265 2.5 4 2.5 1.839 0 5.914-3.719 7.047-6.43.83-1.985 1.223-2.238 3.479-2.238 1.4 0 3.74.648 5.201 1.44 1.462.79 3.995 1.693 5.63 2.005 1.636.312 4.036 1.264 5.334 2.116 1.299.85 3.636 2.353 5.195 3.337 3.95 2.495 3.796 4.079-.834 8.497-3.83 3.655-4.425 5.35-2.688 7.648.539.711.989 2.527 1 4.034.018 2.252-.411 3.2-2.409 5.317-2.677 2.84-3.842 5.21-4.916 10.002-.44 1.96-1.566 4.125-2.937 5.641-2.98 3.3-3.961 6.546-3.545 11.733.386 4.805 1.612 7.096 4.806 8.98 1.217.719 2.596 2.231 3.064 3.36.954 2.304 4.932 5.457 8.275 6.56 1.215.402 2.358 1.294 2.538 1.983.18.689 1.487 1.847 2.904 2.573 1.417.727 3.304 2.1 4.193 3.053.987 1.058 2.334 1.732 3.46 1.732 2.233 0 2.932.886 1.583 2.006-1.194.991-1.248 2.038-.219 4.296.98 2.15 3.827 2.28 6.509.298 1.814-1.341 1.968-1.352 3.64-.257.96.63 1.746 1.35 1.746 1.6 0 .251 1.05.836 2.333 1.3 1.283.464 2.642 1.422 3.02 2.127.378.706 1.578 1.745 2.667 2.308 1.62.838 1.98 1.446 1.98 3.34 0 1.857.26 2.317 1.307 2.317.719 0 1.994.713 2.834 1.584.84.871 2.425 1.795 3.524 2.054 2.925.689 3.67 1.57 3.67 4.342 0 1.635.455 2.893 1.334 3.688 1.416 1.282 1.776 2.945.667 3.084-.367.046-1.038.12-1.491.167-.454.046-.928.618-1.054 1.27-.27 1.407 3.528 9.814 4.434 9.814 1.006 0 2.778 4.337 2.778 6.802 0 2.513-.98 3.866-2.8 3.866-1.802 0-3.868 2.422-3.868 4.534 0 2.165 1.072 3.467 2.854 3.467 1.024 0 1.178.34.844 1.86-.466 2.123 1.943 7.272 4.828 10.32 1.292 1.364 1.706 2.441 1.592 4.139-.127 1.88.18 2.497 1.698 3.418a94.493 94.493 0 0 1 3.757 2.433c1.775 1.222 1.978 1.235 3 .201 1.019-1.03.942-1.236-1.077-2.906-2.758-2.28-2.726-2.796.173-2.796 1.284 0 2.334.255 2.334.568 0 .312.9 1.51 2 2.66 1.1 1.152 2 2.711 2 3.466 0 1.22.35 1.351 3.144 1.173 3.624-.23 4.169.642 2.96 4.745-.387 1.314-.877 3.225-1.089 4.246-.226 1.093-1.062 2.165-2.033 2.607-2.526 1.151-2.287 4.184.404 5.122 2.89 1.008 2.463 3.169-.567 2.874-1.741-.17-2.284.102-2.899 1.45-.63 1.385-.515 2.051.699 4.015 1.45 2.347 1.451 2.36.175 4.882a227.154 227.154 0 0 0-2.225 4.53c-1.504 3.186-4.067 3.077-6.38-.27-2.092-3.028-3.944-3.976-5.146-2.632-.443.496-1.624 3.488-2.624 6.65-2.106 6.658-4.399 9.562-6.16 7.8-.947-.947-.933-1.355.156-4.42 1.162-3.272 1.16-3.42-.046-4.752-2.442-2.699-7.616-.991-6.65 2.195.238.786 1.148 2.385 2.022 3.552 1.897 2.533 1.918 2.743.44 4.377-1.088 1.203-1.088 1.377 0 3.273 1.366 2.38 1.496 5.445.274 6.46-.49.406-1.921.556-3.249.34-4.248-.689-4.083 2.284.25 4.494 3.123 1.593 3.008 2.636-.415 3.776-1.897.632-3.185.661-5.201.118-1.958-.527-2.882-.52-3.429.028-.554.555.335 1.772 3.419 4.68 2.291 2.16 4.167 4.388 4.167 4.948 0 .561-.975 1.514-2.167 2.118-3.297 1.67-4.5 2.972-4.504 4.874-.002.951-.677 2.547-1.5 3.545l-1.497 1.816c-16.097-.302-32.249.877-48.34.166z" fill="#fff"/><g fill-rule="evenodd"><path d="M649.987 170.493c-5.867 0-11.112-2.122-16.25-4.243-5.137-2.121-10.383-4.243-16.249-4.243s-11.111 2.122-16.249 4.243c-5.137 2.121-10.383 4.243-16.25 4.243-5.866 0-11.112-2.122-16.25-4.243-5.137-2.121-10.382-4.243-16.248-4.243-5.867 0-11.112 2.122-16.25 4.243-5.137 2.121-10.382 4.243-16.249 4.243-5.867 0-11.112-2.122-16.25-4.243-5.137-2.121-10.382-4.243-16.248-4.243-5.867 0-11.112 2.122-16.25 4.243-5.137 2.121-10.382 4.243-16.25 4.243-5.866 0-11.111-2.122-16.249-4.243-5.137-2.121-10.382-4.243-16.249-4.243-5.866 0-11.111 2.122-16.249 4.243-5.137 2.121-10.382 4.243-16.25 4.243-5.866 0-11.112-2.122-16.249-4.243-5.137-2.121-10.383-4.243-16.249-4.243s-11.112 2.122-16.25 4.243c-5.137 2.121-10.382 4.243-16.249 4.243-5.867 0-11.112-2.122-16.25-4.243-5.137-2.121-10.382-4.243-16.248-4.243-5.867 0-11.112 2.122-16.25 4.243-5.137 2.121-10.382 4.243-16.249 4.243-5.867 0-11.112-2.122-16.25-4.243-5.137-2.121-10.382-4.243-16.249-4.243-5.866 0-11.111 2.122-16.249 4.243-5.137 2.121-10.382 4.243-16.25 4.243-5.866 0-11.111-2.122-16.249-4.243-5.137-2.121-10.382-4.243-16.249-4.243-5.866 0-11.111 2.122-16.249 4.243-5.137 2.121-10.383 4.243-16.25 4.243-5.866 0-11.112-2.122-16.25-4.243-5.137-2.121-10.382-4.243-16.248-4.243-5.866 0-11.112 2.122-16.25 4.243-5.137 2.121-10.382 4.243-16.249 4.243-5.867 0-11.112-2.122-16.25-4.243-5.137-2.121-10.382-4.243-16.248-4.243-5.867 0-11.112 2.122-16.25 4.243-5.137 2.121-10.382 4.243-16.25 4.243v167.5c5.868 0 11.113-2.122 16.25-4.243 5.138-2.121 10.383-4.243 16.25-4.243 5.866 0 11.111 2.122 16.249 4.243 5.137 2.121 10.382 4.243 16.25 4.243 5.866 0 11.111-2.122 16.249-4.243 5.137-2.121 10.383-4.243 16.249-4.243s11.111 2.122 16.249 4.243c5.137 2.121 10.383 4.243 16.25 4.243 5.866 0 11.112-2.122 16.25-4.243 5.137-2.121 10.382-4.243 16.248-4.243 5.867 0 11.112 2.122 16.25 4.243 5.137 2.121 10.382 4.243 16.249 4.243 5.867 0 11.112-2.122 16.25-4.243 5.137-2.121 10.382-4.243 16.248-4.243 5.867 0 11.112 2.122 16.25 4.243 5.137 2.121 10.382 4.243 16.25 4.243 5.866 0 11.111-2.122 16.249-4.243 5.137-2.121 10.382-4.243 16.249-4.243 5.866 0 11.111 2.122 16.249 4.243 5.137 2.121 10.382 4.243 16.25 4.243 5.866 0 11.111-2.122 16.249-4.243 5.137-2.121 10.383-4.243 16.249-4.243s11.112 2.122 16.249 4.243c5.137 2.121 10.383 4.243 16.25 4.243 5.867 0 11.112-2.122 16.25-4.243 5.137-2.121 10.382-4.243 16.248-4.243 5.867 0 11.112 2.122 16.25 4.243 5.137 2.121 10.382 4.243 16.249 4.243 5.867 0 11.112-2.122 16.25-4.243 5.137-2.121 10.382-4.243 16.249-4.243 5.866 0 11.111 2.122 16.249 4.243 5.137 2.121 10.382 4.243 16.25 4.243 5.866 0 11.111-2.122 16.249-4.243 5.137-2.121 10.382-4.243 16.249-4.243 5.866 0 11.111 2.122 16.249 4.243 5.137 2.121 10.383 4.243 16.25 4.243 5.866 0 11.112-2.122 16.25-4.243 5.137-2.121 10.382-4.243 16.248-4.243 5.866 0 11.112 2.122 16.25 4.243 5.137 2.121 10.382 4.243 16.249 4.243v-167.5z" fill="#002673"/><path d="M649.987 203.993c-5.867 0-11.112-2.122-16.25-4.243-5.137-2.121-10.383-4.243-16.249-4.243s-11.111 2.122-16.249 4.243c-5.137 2.121-10.383 4.243-16.25 4.243-5.866 0-11.112-2.122-16.25-4.243-5.137-2.121-10.382-4.243-16.248-4.243-5.867 0-11.112 2.122-16.25 4.243-5.137 2.121-10.382 4.243-16.249 4.243-5.867 0-11.112-2.122-16.25-4.243-5.137-2.121-10.382-4.243-16.248-4.243-5.867 0-11.112 2.122-16.25 4.243-5.137 2.121-10.382 4.243-16.25 4.243-5.866 0-11.111-2.122-16.249-4.243-5.137-2.121-10.382-4.243-16.249-4.243-5.866 0-11.111 2.122-16.249 4.243-5.137 2.121-10.382 4.243-16.25 4.243-5.866 0-11.112-2.122-16.249-4.243-5.137-2.121-10.383-4.243-16.249-4.243s-11.112 2.122-16.25 4.243c-5.137 2.121-10.382 4.243-16.249 4.243-5.867 0-11.112-2.122-16.25-4.243-5.137-2.121-10.382-4.243-16.248-4.243-5.867 0-11.112 2.122-16.25 4.243-5.137 2.121-10.382 4.243-16.249 4.243-5.867 0-11.112-2.122-16.25-4.243-5.137-2.121-10.382-4.243-16.249-4.243-5.866 0-11.111 2.122-16.249 4.243-5.137 2.121-10.382 4.243-16.25 4.243-5.866 0-11.111-2.122-16.249-4.243-5.137-2.121-10.382-4.243-16.249-4.243-5.866 0-11.111 2.122-16.249 4.243-5.137 2.121-10.383 4.243-16.25 4.243-5.866 0-11.112-2.122-16.25-4.243-5.137-2.121-10.382-4.243-16.248-4.243-5.866 0-11.112 2.122-16.25 4.243-5.137 2.121-10.382 4.243-16.249 4.243-5.867 0-11.112-2.122-16.25-4.243-5.137-2.121-10.382-4.243-16.248-4.243-5.867 0-11.112 2.122-16.25 4.243-5.137 2.121-10.382 4.243-16.25 4.243v33.5c5.868 0 11.113-2.122 16.25-4.243 5.138-2.121 10.383-4.243 16.25-4.243 5.866 0 11.111 2.122 16.249 4.243 5.137 2.121 10.382 4.243 16.25 4.243 5.866 0 11.111-2.122 16.249-4.243 5.137-2.121 10.383-4.243 16.249-4.243s11.111 2.122 16.249 4.243c5.137 2.121 10.383 4.243 16.25 4.243 5.866 0 11.112-2.122 16.25-4.243 5.137-2.121 10.382-4.243 16.248-4.243 5.867 0 11.112 2.122 16.25 4.243 5.137 2.121 10.382 4.243 16.249 4.243 5.867 0 11.112-2.122 16.25-4.243 5.137-2.121 10.382-4.243 16.248-4.243 5.867 0 11.112 2.122 16.25 4.243 5.137 2.121 10.382 4.243 16.25 4.243 5.866 0 11.111-2.122 16.249-4.243 5.137-2.121 10.382-4.243 16.249-4.243 5.866 0 11.111 2.122 16.249 4.243 5.137 2.121 10.382 4.243 16.25 4.243 5.866 0 11.111-2.122 16.249-4.243 5.137-2.121 10.383-4.243 16.249-4.243s11.112 2.122 16.249 4.243c5.137 2.121 10.383 4.243 16.25 4.243 5.867 0 11.112-2.122 16.25-4.243 5.137-2.121 10.382-4.243 16.248-4.243 5.867 0 11.112 2.122 16.25 4.243 5.137 2.121 10.382 4.243 16.249 4.243 5.867 0 11.112-2.122 16.25-4.243 5.137-2.121 10.382-4.243 16.249-4.243 5.866 0 11.111 2.122 16.249 4.243 5.137 2.121 10.382 4.243 16.25 4.243 5.866 0 11.111-2.122 16.249-4.243 5.137-2.121 10.382-4.243 16.249-4.243 5.866 0 11.111 2.122 16.249 4.243 5.137 2.121 10.383 4.243 16.25 4.243 5.866 0 11.112-2.122 16.25-4.243 5.137-2.121 10.382-4.243 16.248-4.243 5.866 0 11.112 2.122 16.25 4.243 5.137 2.121 10.382 4.243 16.249 4.243v-33.5zm0 67c-5.867 0-11.112-2.122-16.25-4.243-5.137-2.121-10.383-4.243-16.249-4.243s-11.111 2.122-16.249 4.243c-5.137 2.121-10.383 4.243-16.25 4.243-5.866 0-11.112-2.122-16.25-4.243-5.137-2.121-10.382-4.243-16.248-4.243-5.867 0-11.112 2.122-16.25 4.243-5.137 2.121-10.382 4.243-16.249 4.243-5.867 0-11.112-2.122-16.25-4.243-5.137-2.121-10.382-4.243-16.248-4.243-5.867 0-11.112 2.122-16.25 4.243-5.137 2.121-10.382 4.243-16.25 4.243-5.866 0-11.111-2.122-16.249-4.243-5.137-2.121-10.382-4.243-16.249-4.243-5.866 0-11.111 2.122-16.249 4.243-5.137 2.121-10.382 4.243-16.25 4.243-5.866 0-11.112-2.122-16.249-4.243-5.137-2.121-10.383-4.243-16.249-4.243s-11.112 2.122-16.25 4.243c-5.137 2.121-10.382 4.243-16.249 4.243-5.867 0-11.112-2.122-16.25-4.243-5.137-2.121-10.382-4.243-16.248-4.243-5.867 0-11.112 2.122-16.25 4.243-5.137 2.121-10.382 4.243-16.249 4.243-5.867 0-11.112-2.122-16.25-4.243-5.137-2.121-10.382-4.243-16.249-4.243-5.866 0-11.111 2.122-16.249 4.243-5.137 2.121-10.382 4.243-16.25 4.243-5.866 0-11.111-2.122-16.249-4.243-5.137-2.121-10.382-4.243-16.249-4.243-5.866 0-11.111 2.122-16.249 4.243-5.137 2.121-10.383 4.243-16.25 4.243-5.866 0-11.112-2.122-16.25-4.243-5.137-2.121-10.382-4.243-16.248-4.243-5.866 0-11.112 2.122-16.25 4.243-5.137 2.121-10.382 4.243-16.249 4.243-5.867 0-11.112-2.122-16.25-4.243-5.137-2.121-10.382-4.243-16.248-4.243-5.867 0-11.112 2.122-16.25 4.243-5.137 2.121-10.382 4.243-16.25 4.243v33.5c5.868 0 11.113-2.122 16.25-4.243 5.138-2.121 10.383-4.243 16.25-4.243 5.866 0 11.111 2.122 16.249 4.243 5.137 2.121 10.382 4.243 16.25 4.243 5.866 0 11.111-2.122 16.249-4.243 5.137-2.121 10.383-4.243 16.249-4.243s11.111 2.122 16.249 4.243c5.137 2.121 10.383 4.243 16.25 4.243 5.866 0 11.112-2.122 16.25-4.243 5.137-2.121 10.382-4.243 16.248-4.243 5.867 0 11.112 2.122 16.25 4.243 5.137 2.121 10.382 4.243 16.249 4.243 5.867 0 11.112-2.122 16.25-4.243 5.137-2.121 10.382-4.243 16.248-4.243 5.867 0 11.112 2.122 16.25 4.243 5.137 2.121 10.382 4.243 16.25 4.243 5.866 0 11.111-2.122 16.249-4.243 5.137-2.121 10.382-4.243 16.249-4.243 5.866 0 11.111 2.122 16.249 4.243 5.137 2.121 10.382 4.243 16.25 4.243 5.866 0 11.111-2.122 16.249-4.243 5.137-2.121 10.383-4.243 16.249-4.243s11.112 2.122 16.249 4.243c5.137 2.121 10.383 4.243 16.25 4.243 5.867 0 11.112-2.122 16.25-4.243 5.137-2.121 10.382-4.243 16.248-4.243 5.867 0 11.112 2.122 16.25 4.243 5.137 2.121 10.382 4.243 16.249 4.243 5.867 0 11.112-2.122 16.25-4.243 5.137-2.121 10.382-4.243 16.249-4.243 5.866 0 11.111 2.122 16.249 4.243 5.137 2.121 10.382 4.243 16.25 4.243 5.866 0 11.111-2.122 16.249-4.243 5.137-2.121 10.382-4.243 16.249-4.243 5.866 0 11.111 2.122 16.249 4.243 5.137 2.121 10.383 4.243 16.25 4.243 5.866 0 11.112-2.122 16.25-4.243 5.137-2.121 10.382-4.243 16.248-4.243 5.866 0 11.112 2.122 16.25 4.243 5.137 2.121 10.382 4.243 16.249 4.243v-33.5z" fill="#fff"/></g><path d="M442 250a117 117 0 1 1-234 0 117 117 0 1 1 234 0z" fill="#002673"/><path d="M407 250a82 82 0 1 1-164 0 82 82 0 1 1 164 0z" fill="#c70f2e"/><g stroke="#002673" stroke-linecap="round" stroke-linejoin="round"><path d="M325.007 198.223c-.253.006-.365.262-.325.494.022.135.057.331.176.35.02.056.016.144-.04.166a1.383 1.383 0 0 0-.556.37c-.118.13-.15.49-.237.667-.09-.065-.172-.155-.25-.213-.145-.373-.223-.344-.305-.295-.1.059-.145.214.142.453.058.168.084.226.196.413.147.244.314.054.4-.035.167-.174.168-.315.29-.529.085.27.089.517.021.776-.123.476-.02.963.02 1.491.01.19.007.379-.094.591-.137.287-.146.614-.109.962-.682.19-1.098.702-1.103 1.498-1.42.746-2.008 1.92-2.039 3.023-.023.015-.045.032-.068.048.02-.411-.301-.677-.724-.68.16.24.318.483.318.845v1.106c-.535.207-.954.458-1.158.756-.2.292-.089.68.176.817l.44 1.031c.048.046.1.085.15.124v4.795h.026l-.23.488c-.142.077-.28.158-.413.248h-.826v1.14c-.793.343-1.407.78-1.693 1.32v1.408a27.348 27.348 0 0 0-5.08 2.342c-.344-.278-1.005-.05-1.13.701-.684.453-1.352.945-2.005 1.47l-1.219-.048-.013 1.168c-4.361 4.037-7.81 9.94-8.479 17.809l-.575 1.49c-.932.304-1.063 1.504-.61 2.234.382.614.043 1.007-.088 1.34l.542.432v2.22l-2.343 1.16v1.045l.325.275v.268l.284.336v.097h-3.284v1.058l.278.26v.33l.29.317v2.24l-.135.068v.433l.23.103c.017.167.113.28.21.35l.02 14.552c-.203.145-.461.224-.412.694l-.258.096v.103c-.141.101-.272.201-.4.303-1.74 1.395-1.502 2.409-.737 3.827v4.569c-1.084.937-2.346 1.604-3.027 3.153v2.652h70.848v-2.652c-.68-1.55-1.936-2.216-3.02-3.153v-4.57c.765-1.417 1.004-2.431-.738-3.826-.125-.1-.26-.197-.4-.296v-.11l-.264-.096c.049-.47-.21-.549-.413-.694l.02-14.552a.485.485 0 0 0 .21-.35l.237-.103v-.433l-.135-.069v-2.24l.291-.315v-.33l.271-.261v-1.058H353.2v-.097l.29-.336v-.268l.326-.275v-1.044l-2.343-1.161v-2.22l.542-.432c-.131-.333-.47-.726-.088-1.34.453-.73.322-1.93-.61-2.233l-.582-1.491c-.67-7.869-4.118-13.772-8.479-17.809l-.013-1.168-1.213.049a26.702 26.702 0 0 0-2.01-1.47c-.126-.752-.78-.98-1.125-.702a27.291 27.291 0 0 0-5.08-2.342v-1.409c-.285-.54-.9-.976-1.692-1.319v-1.14h-.826a4.936 4.936 0 0 0-.413-.248l-.23-.488h.02v-4.788c.052-.041.105-.083.155-.131l.44-1.03c.266-.137.37-.526.17-.818-.204-.298-.623-.55-1.158-.756v-1.106c0-.362.158-.605.318-.845-.423.003-.745.269-.724.68l-.061-.041c-.029-1.106-.616-2.283-2.039-3.03-.005-.84-.468-1.361-1.219-1.525.034-.338.018-.656-.115-.935-.112-.223-.098-.466-.088-.707.268.067.534.093.67-.365.142-.476.106-.898-.115-1.113.075-.066.148-.135.217-.22.163-.197.204-.38 0-.625-.318-.38-.616-.5-.914-.632-.09-.04-.063-.127-.047-.185.112-.089.153-.211.19-.412.052-.296-.156-.445-.346-.44zm.494 1.717c.15.062.302.146.42.316-.086.154-.217.199-.372.323a1.01 1.01 0 0 1-.048-.639zm3.352 12.903v4.02c-.14-.045-.281-.091-.426-.13v-3.8c.148-.025.289-.054.426-.09zm-7.7.007c.135.035.275.058.42.083v3.806c-.142.039-.282.08-.42.124v-4.013z" fill="#fff" fill-rule="evenodd" stroke-width="2"/><g stroke-width="1.833"><path d="M378.594 349.688c-1.168.027-1.682 1.194-1.5 2.25.105.61.262 1.505.812 1.593.092.25.074.65-.187.75-1.023.39-1.814.881-2.563 1.688-.546.588-.69 2.223-1.094 3.031-.413-.296-.794-.704-1.156-.969-.666-1.7-1.024-1.566-1.406-1.344-.458.268-.665.976.656 2.063.268.763.39 1.029.906 1.875.68 1.11 1.448.25 1.844-.156.774-.791.776-1.434 1.344-2.406.386 1.224.405 2.35.094 3.53-.57 2.163-.098 4.378.094 6.782.04.86.028 1.722-.438 2.688-.647 1.34-.687 2.869-.5 4.5h5.594c.187-1.631.147-3.16-.5-4.5-.519-1.018-.455-2.12-.406-3.22 1.238.307 2.464.427 3.093-1.656.655-2.166.485-4.084-.531-5.062a8.72 8.72 0 0 0 1-1c.75-.9.942-1.734 0-2.844-1.47-1.73-2.843-2.276-4.219-2.875-.413-.18-.288-.577-.219-.844.52-.403.709-.96.875-1.875.246-1.346-.717-2.02-1.593-2zm2.281 7.812c.695.279 1.395.663 1.938 1.438-.397.7-1.003.902-1.72 1.468a4.535 4.535 0 0 1-.218-2.906z" fill="#fff" fill-rule="evenodd" transform="matrix(.2167 0 0 .21986 242.962 121.341)"/><path d="M361.018 397.55c-.426-5.444 2.14-11.566 9.375-15.313.032-4.686 3.237-7.187 8.178-7.187 4.942 0 8.147 2.501 8.179 7.187 7.236 3.747 9.8 9.87 9.375 15.313h-35.107z" fill="#fff" fill-rule="evenodd" transform="matrix(.2167 0 0 .21986 242.962 121.341)"/><path d="M397.438 403.05v-6.125c-5.418-4.212-12.132-5.125-18.867-5.125-6.734 0-13.448.913-18.866 5.125v6.125H397.5" fill="#fff" fill-rule="evenodd" transform="matrix(.2167 0 0 .21986 242.962 121.341)"/><path d="M360.694 402.954v-6.524c.23-2-1.31-3.286-3.34-3.3.738 1.09 1.466 2.19 1.466 3.837v6.448l1.874-.46zM375.032 400.247v-8.116c0-1.856-2.125-2.673-4.236-3.3.498 1.245.488 2.19.488 3.838v8.038l3.748-.46zM366.804 400.933v-7.497c0-1.856-2.409-2.75-4.318-3.3.8 1.168 1.363 2.19 1.363 3.838v7.42l2.955-.46zM382.111 400.247v-8.116c0-1.856 2.125-2.673 4.236-3.3-.498 1.245-.489 2.19-.489 3.838v8.038l-3.747-.46zM390.339 400.933v-7.497c0-1.856 2.409-2.75 4.318-3.3-.8 1.168-1.363 2.19-1.363 3.838v7.42l-2.955-.46zM396.449 402.954v-6.524c-.23-2 1.31-3.286 3.34-3.3-.738 1.09-1.467 2.19-1.467 3.837v6.448l-1.873-.46z" fill="#fff" fill-rule="evenodd" transform="matrix(.2167 0 0 .21986 242.962 121.341)"/><path d="M364.964 434.793v-17.855c-3.454-.481-6.273-.842-8.662-3.093l-2.033-4.685c-1.223-.623-1.717-2.382-.796-3.712 3.062-4.418 16.644-6.63 25.098-6.63 8.455 0 22.037 2.212 25.099 6.63.921 1.33.427 3.09-.796 3.712l-2.033 4.685c-2.39 2.251-5.208 2.612-8.662 3.093v17.855h-27.215z" fill="#fff" fill-rule="evenodd" transform="matrix(.2167 0 0 .21986 242.962 121.341)"/><path d="M357.009 436.207v-24.395c1.394-1.142 2.642-.977 3.8 0v24.307l-3.8.088z" fill="#fff" fill-rule="evenodd" transform="matrix(.2167 0 0 .21986 242.962 121.341)"/><path d="M363.422 414.817c-2.954-2.949 9.1-4.861 15.15-4.861 6.049 0 18.103 1.912 15.149 4.861" fill="none" transform="matrix(.2167 0 0 .21986 242.962 121.341)"/><path d="M362.754 434.35v-24.394c1.394-1.142 2.642-.977 3.8 0v24.306l-3.8.089zM400.134 436.207v-24.395c-1.394-1.142-2.642-.977-3.8 0v24.307l3.8.088zM394.389 434.35v-24.394c-1.394-1.142-2.643-.977-3.8 0v24.306l3.8.089zM386.169 433.025V408.63c-1.394-1.142-2.643-.977-3.801 0v24.307l3.8.088zM370.974 433.025V408.63c1.394-1.142 2.642-.977 3.8 0v24.307l-3.8.088z" fill="#fff" fill-rule="evenodd" transform="matrix(.2167 0 0 .21986 242.962 121.341)"/><path d="M355.683 439.212l1.68-3.535c5.864-2.341 12.094-3.624 21.208-3.624 9.115 0 15.345 1.283 21.21 3.624l1.679 3.535h-45.777z" fill="#fff" fill-rule="evenodd" transform="matrix(.2167 0 0 .21986 242.962 121.341)"/><path d="M350.33 447.487v-7.937h3.813c6.334-4.188 15.003-5.188 24.428-5.188s18.095 1 24.429 5.188h3.813v7.937H350.33z" fill="#fff" fill-rule="evenodd" transform="matrix(.2167 0 0 .21986 242.962 121.341)"/><path fill="#fff" d="M373.518 435.175h10.107v5.25h-10.107z" transform="matrix(.2167 0 0 .21986 242.962 121.341)"/><path fill="#fff" d="M375.518 436.988h6.107v2.312h-6.107z" transform="matrix(.2167 0 0 .21986 242.962 121.341)"/><path d="M342.518 458.487v-7.75c4.156-7.732 23.287-10.75 36.053-10.75 12.767 0 31.898 3.018 36.054 10.75v7.75h-72.107z" fill="#fff" fill-rule="evenodd" transform="matrix(.2167 0 0 .21986 242.962 121.341)"/><path d="M342.518 458.112c4.156-7.732 23.287-10.75 36.053-10.75 12.767 0 31.898 3.018 36.054 10.75" fill="none" transform="matrix(.2167 0 0 .21986 242.962 121.341)"/><path d="M500.714 657.72v-68.93l2.5-1.964c-.604-1.512-2.163-3.32-.401-6.116 2.092-3.32 1.486-8.752-2.813-10.134l-2.679-6.785c-3.088-35.79-19-62.661-39.125-81.022l-.057-5.31-5.62.216c-22.983-18.235-50.838-26.741-73.948-26.741-23.11 0-50.964 8.506-73.946 26.741l-5.621-.217-.058 5.31c-20.125 18.362-36.036 45.233-39.125 81.023l-2.678 6.785c-4.3 1.382-4.905 6.814-2.813 10.134 1.762 2.795.203 4.604-.401 6.116l2.5 1.965v68.929h244.285z" fill="#fff" fill-rule="evenodd" transform="matrix(.2167 0 0 .21986 242.962 121.341)"/><path d="M234.342 712.69l-.041-6.084 1.208-.458c-.224-2.14.96-2.486 1.9-3.144l-.083-66.185c-.45-.32-.9-.827-.976-1.588l-1.077-.478v-1.974l.623-.316v-10.186l-1.342-1.421v-1.5l-1.264-1.185v-4.817h15.317c22.515-21.028 88.565-27.666 129.964-27.666 41.4 0 107.45 6.638 129.965 27.666h15.316v4.817l-1.263 1.184v1.5l-1.342 1.422v10.186l.623.316v1.974l-1.077.478c-.076.761-.526 1.268-.976 1.588l-.084 66.185c.94.658 2.125 1.004 1.9 3.144l1.209.458-.042 6.084H234.342z" fill="#fff" fill-rule="evenodd" transform="matrix(.2167 0 0 .21986 242.962 121.341)"/><path d="M422.11 671.952V634.71c0-5.862 5.146-7.975 8.433-7.566 3.147.392 8.432 3.803 8.432 9.665v37.241l-16.865-2.098z" fill="#fff" fill-rule="evenodd" transform="matrix(.2167 0 0 .21986 242.962 121.341)"/><path d="M261.333 623.81c25.5-13.835 77.441-18.621 117.238-18.621 39.798 0 91.74 4.786 117.239 18.62" fill="none" transform="matrix(.2167 0 0 .21986 242.962 121.341)"/><path d="M264.112 607.412c37.103-15.382 90.52-16.953 114.46-16.953 23.938 0 77.356 1.571 114.459 16.953M256.676 584.342c0-20.424 54.569-37 121.806-37 67.236 0 121.805 16.576 121.805 37M398.004 534.967v-4.822c0-4.892 10.337-5.384 10.337 0v5.179M444.926 540.616v-4.891c0-4.964 7.522-4.671 7.522.79v5.254M479.012 550.982v-4.86c0-4.931 4.655-4.099 4.655 1.329v5.22" fill="none" transform="matrix(.2167 0 0 .21986 242.962 121.341)"/><path d="M256.676 587.842c0-20.424 54.569-37 121.806-37 67.236 0 121.805 16.576 121.805 37M408.354 535.259c0-43.853-6.03-56.46-10.354-73.962 7.503 15.134 13.97 44.163 14.269 70.079l-3.915 3.883zM398 534.912c-.157-26.612-2.204-51.587-7.071-73.49 2.27 23.057 3.389 46.311 2.652 69.701l4.42 3.789zM444.964 540.779c-.157-26.995-4.704-56.496-24.75-73.642 16.2 18.135 21.068 46.072 20.331 69.8l4.42 3.842zM452.5 541.816c.09-30.356-4.865-45.067-15.714-62.857M479.072 551.097c-.158-27.327-10.24-48.94-27.25-65.746 12.805 18.542 23.567 37.837 22.83 61.856l4.42 3.89zM483.75 552.88c.403-21.188-5.66-39.97-16.964-54.278M418.125 495.13c-.795-3.125 4.954-5.707 7.321-.357 2.114 4.775 2.915 10.314 3.929 15.893 1.004 5.525-6.97 6.958-7.857 1.339-.854-5.403-2.078-11.701-3.393-16.875z" fill="none" transform="matrix(.2167 0 0 .21986 242.962 121.341)"/><path d="M454.136 502.184c-1.1-3.12 2.422-5.707 4.969-.358 2.273 4.775 3.776 10.315 5.432 15.893 1.64 5.526-3.967 7.019-5.168 1.34-1.113-5.266-3.405-11.69-5.233-16.875zM378.571 512.451c-2.308 0-5.037-1.89-4.91-5.178l.535-13.929c.13-3.386 2.086-4.821 4.375-4.821 2.29 0 4.245 1.435 4.375 4.821l.536 13.929c.127 3.289-2.602 5.178-4.91 5.178zM339.018 495.13c.794-3.125-4.954-5.707-7.322-.357-2.113 4.775-2.914 10.314-3.928 15.893-1.004 5.525 6.97 6.958 7.857 1.339.854-5.403 2.077-11.701 3.393-16.875zM303.007 502.184c1.1-3.12-2.422-5.707-4.969-.358-2.273 4.775-3.776 10.315-5.432 15.893-1.64 5.526 3.967 7.019 5.168 1.34 1.113-5.266 3.405-11.69 5.233-16.875z" fill="none" transform="matrix(.2167 0 0 .21986 242.962 121.341)"/><path transform="matrix(.2116 0 0 .26241 244.893 98.657)" d="M256.143 565.362c0-17.112 54.848-31 122.428-31 67.581 0 122.429 13.888 122.429 31" fill="none" stroke-width="1.697"/><path transform="matrix(.21273 0 0 .26241 244.505 99.592)" d="M256.143 565.362c0-17.112 54.848-31 122.428-31 67.581 0 122.429 13.888 122.429 31" fill="none" stroke-width="1.693"/><path transform="matrix(.2156 0 0 .26241 243.36 100.796)" d="M256.143 565.362c0-17.112 54.848-31 122.428-31 67.581 0 122.429 13.888 122.429 31" fill="none" stroke-width="1.682"/><path d="M249.174 613.612c0-20.424 57.97-37 129.397-37 71.428 0 129.398 16.576 129.398 37" fill="none" transform="matrix(.2167 0 0 .21986 242.962 121.341)"/><path d="M394.102 576.854v-27.598l-2.365-4.596 12.82.5 12.106 1.101-2.911 4.232v27.4l-9.494-.617-10.156-.422z" fill="#fff" fill-rule="evenodd" transform="matrix(.2167 0 0 .21986 242.962 121.341)"/><path d="M409.613 572.133v-19.976l-11.137-.707v19.976l11.137.707zM395.25 547.362l8.75.3 8.813.825" fill="none" transform="matrix(.2167 0 0 .21986 242.962 121.341)"/><path d="M441.202 580.883v-26.494l-1.912-5.002 10.364 2.02 9.789 2.156-2.354 3.799v26.678l-7.676-1.83-8.21-1.327z" fill="#fff" fill-rule="evenodd" transform="matrix(.2167 0 0 .21986 242.962 121.341)"/><path d="M453.743 577.76v-19.177l-9.004-1.69v19.176l9.004 1.69zM442.13 552.676l7.075 1.083 7.125 1.592" fill="none" transform="matrix(.2167 0 0 .21986 242.962 121.341)"/><path d="M476.157 588.966v-25.698l-1.367-4.386 7.407 3.122 6.996 3.806-1.682 2.126v24.99l-5.486-2.1-5.868-1.86z" fill="#fff" fill-rule="evenodd" transform="matrix(.2167 0 0 .21986 242.962 121.341)"/><path d="M485.12 587.064V568.72l-6.436-2.65v18.344l6.435 2.65zM476.82 561.735l5.233 2.29 4.915 2.518M367.35 569.766v-13.893c1.527 6.88 4.7 12.818 11.221 12.818 6.61 0 9.695-5.937 11.222-12.818v13.893m-23.15 1.852H390.5m-23.857-17.413H390.5m-18.907 1.768c1.02 6.663 3.157 8.75 6.978 8.75 3.844 0 5.997-3.755 6.979-8.75M416.026 571.874v-13.893c1.367 7.02 4.207 13.245 10.045 13.835 5.918.599 8.679-4.264 10.046-11.007v13.893m-20.724-1.04l10.829 1.308 10.528 1.649m-21.357-20.369l11.545 1.168 9.812 1.788m-16.926-.74c.913 6.755 2.826 9.037 6.247 9.383 3.442.348 5.369-2.418 6.248-7.323M457.867 564.582c1.023 7.124 3.148 13.568 7.517 14.61 4.428 1.054 6.494-3.596 7.517-10.233v13.893m-15.508-2.638l8.103 2.143 7.879 2.46m-15.982-22.015l8.64 2.058 7.342 2.545m-10.443 3.894c.811 2.446 1.347 3.542 2.952 3.925 2.575.613 3.517-2.004 4.175-6.841M488.369 577.344c.486 5.754 1.498 11.057 3.577 12.247 2.108 1.207 3.091-1.747 3.578-6.942v9.285m-7.38-2.192L492 591.5l3.75 2.081m-7.607-17.692l4.112 2.354 3.495 3.208m-3.804 4.984c1.226.701 1.912-1.261 2.225-5.055" fill="none" transform="matrix(.2167 0 0 .21986 242.962 121.341)"/><path d="M437.08 470.148v4.685l6.276 2.298v-4.95c0-5.812-6.276-6.393-6.276-2.033z" fill="#fff" fill-rule="evenodd" transform="matrix(.2167 0 0 .21986 242.962 121.341)"/><path d="M438.937 472.18v3.368l2.519.92v-3.559c0-4.177-2.52-3.863-2.52-.728z" fill="#fff" fill-rule="evenodd" transform="matrix(.2167 0 0 .21986 242.962 121.341)"/><path d="M455.302 480.224l2.859 2.52" fill="none" transform="matrix(.2167 0 0 .21986 242.962 121.341)"/><path d="M409.33 464.33v4.685l7.276 1.309v-4.95c0-5.812-7.276-5.404-7.276-1.044z" fill="#fff" fill-rule="evenodd" transform="matrix(.2167 0 0 .21986 242.962 121.341)"/><path d="M411.482 466.07v3.368l2.92.522v-3.558c0-4.178-2.92-3.466-2.92-.332zM374.246 466.449v-4.95c0-2.906 2.163-4.336 4.325-4.336 2.163 0 4.326 1.43 4.326 4.336v4.95h-8.65z" fill="#fff" fill-rule="evenodd" transform="matrix(.2167 0 0 .21986 242.962 121.341)"/><path d="M388.25 440.55v5.187l4.304.49 4.384.885v-5.25M400.688 442.675v5.125l3.005 1.173 2.932 1.14v-5.438M409.313 446.3v4.875l1.92 1.213 1.83 1.35M373.955 440.112v5.188l4.616-.188 4.616.188v-5.188M368.893 440.55v5.187l-4.304.49-4.384.885v-5.25M356.455 442.675v5.125l-3.005 1.173-2.932 1.14v-5.438M434.812 470.963c.852 1.143 1.594 2.22 2.263 3.859m1.019-7.241l-3.25 1" fill="none" transform="matrix(.2167 0 0 .21986 242.962 121.341)"/><path d="M376.621 466.449v-3.584c0-2.104.975-3.14 1.95-3.14.976 0 1.95 1.036 1.95 3.14v3.584h-3.9zM320.062 470.148v4.685l-6.275 2.298v-4.95c0-5.812 6.275-6.393 6.275-2.033z" fill="#fff" fill-rule="evenodd" transform="matrix(.2167 0 0 .21986 242.962 121.341)"/><path d="M318.206 472.18v3.368l-2.519.92v-3.559c0-4.177 2.52-3.863 2.52-.728z" fill="#fff" fill-rule="evenodd" transform="matrix(.2167 0 0 .21986 242.962 121.341)"/><path d="M301.84 480.224l-2.858 2.52" fill="none" transform="matrix(.2167 0 0 .21986 242.962 121.341)"/><path d="M347.812 464.33v4.685l-7.275 1.309v-4.95c0-5.812 7.275-5.404 7.275-1.044z" fill="#fff" fill-rule="evenodd" transform="matrix(.2167 0 0 .21986 242.962 121.341)"/><path d="M345.66 466.07v3.368l-2.92.522v-3.558c0-4.178 2.92-3.466 2.92-.332z" fill="#fff" fill-rule="evenodd" transform="matrix(.2167 0 0 .21986 242.962 121.341)"/><path d="M322.33 470.963c-.851 1.143-1.593 2.22-2.262 3.859m-1.019-7.241l3.25 1M359.139 534.967v-4.822c0-4.892-10.337-5.384-10.337 0v5.179M312.217 540.616v-4.891c0-4.964-7.522-4.671-7.522.79v5.254M278.13 550.982v-4.86c0-4.931-4.654-4.099-4.654 1.329v5.22" fill="none" transform="matrix(.2167 0 0 .21986 242.962 121.341)"/><path d="M348.789 535.259c0-43.853 6.03-56.46 10.354-73.962-7.504 15.134-13.97 44.163-14.269 70.079l3.915 3.883zM359.143 534.912c.157-26.612 2.204-51.587 7.07-73.49-2.269 23.057-3.388 46.311-2.65 69.701l-4.42 3.789zM312.178 540.779c.158-26.995 4.705-56.496 24.75-73.642-16.198 18.135-21.067 46.072-20.33 69.8l-4.42 3.842zM304.643 541.816c-.09-30.356 4.865-45.067 15.714-62.857M278.071 551.097c.158-27.327 10.24-48.94 27.25-65.746-12.806 18.542-23.568 37.837-22.83 61.856l-4.42 3.89zM273.393 552.88c-.403-21.188 5.66-39.97 16.964-54.278" fill="none" transform="matrix(.2167 0 0 .21986 242.962 121.341)"/><path d="M363.04 576.854v-27.598l2.366-4.596-12.82.5-12.106 1.101 2.911 4.232v27.4l9.494-.617 10.156-.422z" fill="#fff" fill-rule="evenodd" transform="matrix(.2167 0 0 .21986 242.962 121.341)"/><path d="M347.53 572.133v-19.976l11.137-.707v19.976l-11.137.707zM361.893 547.362l-8.751.3-8.812.825" fill="none" transform="matrix(.2167 0 0 .21986 242.962 121.341)"/><path d="M315.94 580.883v-26.494l1.913-5.002-10.365 2.02-9.788 2.156 2.354 3.799v26.678l7.676-1.83 8.21-1.327z" fill="#fff" fill-rule="evenodd" transform="matrix(.2167 0 0 .21986 242.962 121.341)"/><path d="M303.4 577.76v-19.177l9.004-1.69v19.176l-9.004 1.69zM315.013 552.676l-7.076 1.083-7.124 1.592" fill="none" transform="matrix(.2167 0 0 .21986 242.962 121.341)"/><path d="M280.986 588.966v-25.698l1.367-4.386-7.407 3.122-6.996 3.806 1.682 2.126v24.99l5.486-2.1 5.868-1.86z" fill="#fff" fill-rule="evenodd" transform="matrix(.2167 0 0 .21986 242.962 121.341)"/><path d="M272.024 587.064V568.72l6.435-2.65v18.344l-6.435 2.65zM280.323 561.735l-5.233 2.29-4.915 2.518M341.117 571.874v-13.893c-1.367 7.02-4.207 13.245-10.046 13.835-5.917.599-8.678-4.264-10.045-11.007v13.893m20.724-1.04l-10.829 1.308-10.528 1.649m21.357-20.369l-11.545 1.168-9.812 1.788m16.926-.74c-.913 6.755-2.826 9.037-6.248 9.383-3.44.348-5.368-2.418-6.247-7.323M299.276 564.582c-1.023 7.124-3.148 13.568-7.517 14.61-4.428 1.054-6.494-3.596-7.517-10.233v13.893m15.508-2.638l-8.104 2.143-7.878 2.46m15.982-22.015l-8.64 2.058-7.342 2.545m10.443 3.894c-.811 2.446-1.347 3.542-2.952 3.925-2.575.613-3.517-2.004-4.175-6.841M268.774 577.344c-.487 5.754-1.498 11.057-3.578 12.247-2.107 1.207-3.09-1.747-3.577-6.942v9.285m7.38-2.192l-3.856 1.758-3.75 2.081M269 575.889l-4.112 2.354-3.495 3.208m3.803 4.984c-1.225.701-1.912-1.261-2.225-5.055" fill="none" transform="matrix(.2167 0 0 .21986 242.962 121.341)"/><path d="M446.803 611.943v-12.13l-.884-1.237v-1.502l-1.68-1.238-.043-4.675 8.342-4.282 21.577 4.98v4.773l-1.503 1.237v1.238l-1.325 1.502v11.933l-17.682-3.322-6.802 2.723z" fill="#fff" fill-rule="evenodd" transform="matrix(.2167 0 0 .21986 242.962 121.341)"/><path d="M464.688 616.175l-7.375-1v-2.125l7.812-3.25 6.875 1.312v2.125l-7.313 2.938z" fill="#fff" fill-rule="evenodd" transform="matrix(.2167 0 0 .21986 242.962 121.341)"/><path d="M452.239 588.28v3.756l.751.707v2.342l.663 1.503v10.916" fill="none" transform="matrix(.2167 0 0 .21986 242.962 121.341)"/><path d="M444.77 595.88l7.38-3.889L473.1 596.5" fill="none" transform="matrix(.2167 0 0 .21986 242.962 121.341)"/><path d="M446.438 598.3l6.375-3.188 18.75 3.813" fill="none" transform="matrix(.2167 0 0 .21986 242.962 121.341)"/><path d="M453.313 614.112l-7.375-1v-2.125l7.812-3.25 6.875 1.313v2.125l-7.313 2.937z" fill="#fff" fill-rule="evenodd" transform="matrix(.2167 0 0 .21986 242.962 121.341)"/><path d="M453.531 610.281c-2.94 0-5.312 1.122-5.312 2.5 0 .584.439 1.106 1.156 1.532v66.28c-1.035.564-1.687 1.319-1.688 2.157 0 1.732 2.72 3.156 6.063 3.156 3.342 0 6.031-1.424 6.031-3.156 0-.903-.726-1.709-1.906-2.281v-66.25c.627-.41 1-.895 1-1.438 0-1.378-2.404-2.5-5.344-2.5z" fill="#fff" fill-rule="evenodd" transform="matrix(.2167 0 0 .21986 242.962 121.341)"/><path d="M450.5 612.612c1.765-.37 3.51-.765 6.25 0M450.5 680.362c1.765-.37 3.51-.765 6.25 0" fill="none" transform="matrix(.2167 0 0 .21986 242.962 121.341)"/><path d="M469.634 679.45v-37.242c0-5.862 3.959-7.802 6.487-7.282 2.422.498 6.488 4.087 6.488 9.949v37.241l-12.975-2.667z" fill="#fff" fill-rule="evenodd" transform="matrix(.2167 0 0 .21986 242.962 121.341)"/><path d="M465.156 611.906c-2.94 0-5.312 1.122-5.312 2.5 0 .584.439 1.106 1.156 1.532v66.28c-1.035.564-1.687 1.319-1.688 2.157 0 1.732 2.72 3.156 6.063 3.156 3.342 0 6.031-1.424 6.031-3.156 0-.903-.726-1.709-1.906-2.281v-66.25c.627-.41 1-.895 1-1.438 0-1.378-2.404-2.5-5.344-2.5z" fill="#fff" fill-rule="evenodd" transform="matrix(.2167 0 0 .21986 242.962 121.341)"/><path d="M462.125 614.237c1.765-.37 3.51-.765 6.25 0M462.125 681.987c1.765-.37 3.51-.765 6.25 0" fill="none" transform="matrix(.2167 0 0 .21986 242.962 121.341)"/><path d="M476.325 692.68v-6.977l-22.893-4.042-9.546 2.652v5.657l32.439 2.71z" fill="#f9f9f9" fill-rule="evenodd" transform="matrix(.2167 0 0 .21986 242.962 121.341)"/><path d="M453.344 683.518v5.48M448.117 604.929l5.491-2.569 16.01 3.282" fill="none" transform="matrix(.2167 0 0 .21986 242.962 121.341)"/><path d="M489.907 621.546v-12.129l-.884-1.237v-1.503l-1.68-1.237-.044-4.676 10.8-3.165 13.425 6.543v4.773l-1.503 1.238v1.237l-1.326 1.503v11.932l-11.987-4.885-6.801 1.606z" fill="#fff" fill-rule="evenodd" transform="matrix(.2167 0 0 .21986 242.962 121.341)"/><path d="M488.544 605.892l8.96-2.72 13.003 6.543" fill="none" transform="matrix(.2167 0 0 .21986 242.962 121.341)"/><path d="M489.837 608.5l7.51-2.02 11.97 5.486M491.139 615.319l6.155-1.613 10.515 4.758M497.145 619.202v-20.211" fill="none" transform="matrix(.2167 0 0 .21986 242.962 121.341)"/><path d="M501.888 627.736l-6.37-1.838v-2.125l8.427-2.747 5.423 2.373v2.125l-7.48 2.212z" fill="#fff" fill-rule="evenodd" transform="matrix(.2167 0 0 .21986 242.962 121.341)"/><path d="M495.3 625.111l-6.37-1.837v-2.125l8.426-2.748 5.424 2.374v2.125l-7.48 2.211z" fill="#fff" fill-rule="evenodd" transform="matrix(.2167 0 0 .21986 242.962 121.341)"/><path d="M502.9 623.52c-2.94 0-5.313 1.121-5.313 2.5 0 .584.44 1.106 1.157 1.531v66.281c-1.035.563-1.688 1.318-1.688 2.156 0 1.733 2.72 3.157 6.063 3.157 3.342 0 6.031-1.424 6.031-3.157 0-.903-.726-1.708-1.906-2.28v-66.25c.627-.41 1-.896 1-1.438 0-1.379-2.404-2.5-5.344-2.5z" fill="#fff" fill-rule="evenodd" transform="matrix(.2167 0 0 .21986 242.962 121.341)"/><path d="M499.534 693.712c1.765-.37 3.51-.765 6.25 0M499.98 625.85c1.766-.37 3.51-.765 6.25 0" fill="none" transform="matrix(.2167 0 0 .21986 242.962 121.341)"/><path d="M496.2 620.84c-2.94 0-5.313 1.121-5.313 2.5 0 .584.44 1.106 1.157 1.53v66.282c-1.035.563-1.688 1.318-1.688 2.156 0 1.732 2.72 3.157 6.063 3.157 3.342 0 6.03-1.425 6.03-3.157 0-.903-.726-1.708-1.905-2.28v-66.25c.627-.41 1-.896 1-1.438 0-1.379-2.404-2.5-5.344-2.5z" fill="#fff" fill-rule="evenodd" transform="matrix(.2167 0 0 .21986 242.962 121.341)"/><path d="M493.157 623.332c1.766-.37 3.51-.765 6.25 0M493.169 691.032c1.765-.37 3.51-.765 6.25 0" fill="none" transform="matrix(.2167 0 0 .21986 242.962 121.341)"/><path d="M510.272 703.689l.112-7.555-14.853-4.885-6.866 1.423v6.662l21.607 4.355z" fill="#fff" fill-rule="evenodd" transform="matrix(.2167 0 0 .21986 242.962 121.341)"/><path d="M495.554 692.256v5.48M521.618 619.841H510.54M519.968 623.613h-8.957M519.968 629.623h-9.31M519.614 634.102h-9.31M519.143 636.459h-7.307M512.19 639.523v57.984M268.774 577.344c-.487 5.754-1.498 11.057-3.578 12.247-2.107 1.207-3.09-1.747-3.577-6.942v9.285m7.38-2.192l-3.856 1.758-3.75 2.081M269 575.889l-4.112 2.354-3.495 3.208m3.803 4.984c-1.225.701-1.912-1.261-2.225-5.055" fill="none" transform="matrix(.2167 0 0 .21986 242.962 121.341)"/><path d="M393.442 606.662v-12.129l-.883-1.237v-1.503l-1.68-1.237-.044-4.676 5.98-3.865 23.94 2.479v4.773l-1.503 1.237v1.238l-1.326 1.502v11.933l-17.682-1.238-6.802 2.723z" fill="#fff" fill-rule="evenodd" transform="matrix(.2167 0 0 .21986 242.962 121.341)"/><path d="M396.724 583.068v4.799l.752.707v2.342l.663 1.503v9.874" fill="none" transform="matrix(.2167 0 0 .21986 242.962 121.341)"/><path d="M391.41 590.6l5.226-2.916 22.893 2.006M393.077 593.02l4.499-2.007 19.862 1.728" fill="none" transform="matrix(.2167 0 0 .21986 242.962 121.341)"/><path d="M413.153 608.067l-8.14-.096v-2.403l5.381-2.417 8.335.688.069 2.333-5.645 1.895z" fill="#fff" fill-rule="evenodd" transform="matrix(.2167 0 0 .21986 242.962 121.341)"/><path d="M400.925 607.303l-8.14-.097v-2.403l5.38-2.416 8.335.687.07 2.334-5.645 1.895z" fill="#fff" fill-rule="evenodd" transform="matrix(.2167 0 0 .21986 242.962 121.341)"/><path d="M400.032 604.723c-2.94 0-5.313 1.122-5.313 2.5 0 .584.439 1.106 1.156 1.531v66.281c-1.035.563-1.687 1.318-1.687 2.157 0 1.732 2.72 3.156 6.062 3.156s6.032-1.424 6.032-3.156c0-.904-.727-1.709-1.907-2.282v-66.25c.628-.41 1-.895 1-1.437 0-1.378-2.404-2.5-5.343-2.5z" fill="#fff" fill-rule="evenodd" transform="matrix(.2167 0 0 .21986 242.962 121.341)"/><path d="M397 607.332c1.766-.371 3.51-.766 6.25 0M397.041 674.38c1.766-.37 3.51-.766 6.25 0" fill="none" transform="matrix(.2167 0 0 .21986 242.962 121.341)"/><path d="M412.42 605.097c-2.939 0-5.312 1.122-5.312 2.5 0 .584.44 1.106 1.157 1.531v66.282c-1.035.563-1.688 1.317-1.688 2.156 0 1.732 2.72 3.156 6.063 3.156 3.342 0 6.03-1.424 6.03-3.156 0-.903-.726-1.709-1.905-2.281v-66.25c.627-.41 1-.895 1-1.438 0-1.378-2.404-2.5-5.344-2.5z" fill="#fff" fill-rule="evenodd" transform="matrix(.2167 0 0 .21986 242.962 121.341)"/><path d="M409.39 607.706c1.765-.37 3.51-.765 6.25 0M409.5 675.317c1.765-.37 3.51-.765 6.25 0" fill="none" transform="matrix(.2167 0 0 .21986 242.962 121.341)"/><path d="M422.964 685.516v-7.996l-26.233-.94-6.205 1.063v6.884l32.438.989z" fill="#f9f9f9" fill-rule="evenodd" transform="matrix(.2167 0 0 .21986 242.962 121.341)"/><path d="M396.839 676.848v5.48M394.2 599.996l3.963-1.596 18.372 1.336" fill="none" transform="matrix(.2167 0 0 .21986 242.962 121.341)"/><path d="M370.139 670.5v-37.242c0-5.862 5.146-8.615 8.432-8.615 3.148 0 8.433 2.753 8.433 8.615V670.5h-16.865zM335.033 671.952V634.71c0-5.862-5.146-7.975-8.433-7.566-3.147.392-8.432 3.803-8.432 9.665v37.241l16.865-2.098zM310.34 611.943v-12.13l.884-1.237v-1.502l1.679-1.238.044-4.675-8.342-4.282-21.577 4.98v4.773l1.502 1.237v1.238l1.326 1.502v11.933l17.682-3.322 6.802 2.723z" fill="#fff" fill-rule="evenodd" transform="matrix(.2167 0 0 .21986 242.962 121.341)"/><path d="M292.455 616.175l7.375-1v-2.125l-7.812-3.25-6.875 1.312v2.125l7.312 2.938z" fill="#fff" fill-rule="evenodd" transform="matrix(.2167 0 0 .21986 242.962 121.341)"/><path d="M304.904 588.28v3.756l-.751.707v2.342l-.663 1.503v10.916" fill="none" transform="matrix(.2167 0 0 .21986 242.962 121.341)"/><path d="M312.373 595.88l-7.38-3.889-20.949 4.508" fill="none" transform="matrix(.2167 0 0 .21986 242.962 121.341)"/><path d="M310.705 598.3l-6.375-3.188-18.75 3.813" fill="none" transform="matrix(.2167 0 0 .21986 242.962 121.341)"/><path d="M303.83 614.112l7.375-1v-2.125l-7.812-3.25-6.875 1.313v2.125l7.312 2.937z" fill="#fff" fill-rule="evenodd" transform="matrix(.2167 0 0 .21986 242.962 121.341)"/><path d="M303.612 610.281c2.94 0 5.312 1.122 5.312 2.5 0 .584-.439 1.106-1.156 1.532v66.28c1.035.564 1.687 1.319 1.687 2.157 0 1.732-2.72 3.156-6.062 3.156s-6.031-1.424-6.031-3.156c0-.903.726-1.709 1.906-2.281v-66.25c-.628-.41-1-.895-1-1.438 0-1.378 2.404-2.5 5.344-2.5z" fill="#fff" fill-rule="evenodd" transform="matrix(.2167 0 0 .21986 242.962 121.341)"/><path d="M306.643 612.612c-1.766-.37-3.51-.765-6.25 0M306.643 680.362c-1.766-.37-3.51-.765-6.25 0" fill="none" transform="matrix(.2167 0 0 .21986 242.962 121.341)"/><path d="M287.509 679.45v-37.242c0-5.862-3.96-7.802-6.488-7.282-2.421.498-6.487 4.087-6.487 9.949v37.241l12.975-2.667z" fill="#fff" fill-rule="evenodd" transform="matrix(.2167 0 0 .21986 242.962 121.341)"/><path d="M291.987 611.906c2.94 0 5.312 1.122 5.312 2.5 0 .584-.439 1.106-1.156 1.532v66.28c1.035.564 1.687 1.319 1.687 2.157 0 1.732-2.72 3.156-6.062 3.156s-6.031-1.424-6.031-3.156c0-.903.726-1.709 1.906-2.281v-66.25c-.628-.41-1-.895-1-1.438 0-1.378 2.404-2.5 5.344-2.5z" fill="#fff" fill-rule="evenodd" transform="matrix(.2167 0 0 .21986 242.962 121.341)"/><path d="M295.018 614.237c-1.766-.37-3.51-.765-6.25 0M295.018 681.987c-1.766-.37-3.51-.765-6.25 0" fill="none" transform="matrix(.2167 0 0 .21986 242.962 121.341)"/><path d="M280.818 692.68v-6.977l22.893-4.042 9.546 2.652v5.657l-32.439 2.71z" fill="#f9f9f9" fill-rule="evenodd" transform="matrix(.2167 0 0 .21986 242.962 121.341)"/><path d="M303.799 683.518v5.48M309.026 604.929l-5.491-2.569-16.01 3.282" fill="none" transform="matrix(.2167 0 0 .21986 242.962 121.341)"/><path d="M267.236 621.546v-12.129l.884-1.237v-1.503l1.68-1.237.043-4.676-10.798-3.165-13.426 6.543v4.773l1.503 1.238v1.237l1.325 1.503v11.932l11.988-4.885 6.801 1.606z" fill="#fff" fill-rule="evenodd" transform="matrix(.2167 0 0 .21986 242.962 121.341)"/><path d="M268.599 605.892l-8.96-2.72-13.004 6.543" fill="none" transform="matrix(.2167 0 0 .21986 242.962 121.341)"/><path d="M267.306 608.5l-7.51-2.02-11.97 5.486M266.004 615.319l-6.156-1.613-10.514 4.758M259.997 619.202v-20.211" fill="none" transform="matrix(.2167 0 0 .21986 242.962 121.341)"/><path d="M255.255 627.736l6.37-1.838v-2.125l-8.427-2.747-5.423 2.373v2.125l7.48 2.212z" fill="#fff" fill-rule="evenodd" transform="matrix(.2167 0 0 .21986 242.962 121.341)"/><path d="M261.843 625.111l6.37-1.837v-2.125l-8.426-2.748-5.424 2.374v2.125l7.48 2.211z" fill="#fff" fill-rule="evenodd" transform="matrix(.2167 0 0 .21986 242.962 121.341)"/><path d="M254.243 623.52c2.94 0 5.312 1.121 5.312 2.5 0 .584-.439 1.106-1.156 1.531v66.281c1.035.563 1.688 1.318 1.688 2.156 0 1.733-2.72 3.157-6.063 3.157-3.342 0-6.031-1.424-6.031-3.157 0-.903.726-1.708 1.906-2.28v-66.25c-.627-.41-1-.896-1-1.438 0-1.379 2.404-2.5 5.344-2.5z" fill="#fff" fill-rule="evenodd" transform="matrix(.2167 0 0 .21986 242.962 121.341)"/><path d="M257.61 693.712c-1.766-.37-3.511-.765-6.25 0M257.162 625.85c-1.765-.37-3.51-.765-6.25 0" fill="none" transform="matrix(.2167 0 0 .21986 242.962 121.341)"/><path d="M260.943 620.84c2.94 0 5.312 1.121 5.312 2.5 0 .584-.438 1.106-1.156 1.53v66.282c1.035.563 1.688 1.318 1.688 2.156 0 1.732-2.72 3.157-6.063 3.157-3.342 0-6.031-1.425-6.031-3.157 0-.903.726-1.708 1.906-2.28v-66.25c-.627-.41-1-.896-1-1.438 0-1.379 2.404-2.5 5.344-2.5z" fill="#fff" fill-rule="evenodd" transform="matrix(.2167 0 0 .21986 242.962 121.341)"/><path d="M263.986 623.332c-1.766-.37-3.51-.765-6.25 0M263.974 691.032c-1.765-.37-3.51-.765-6.25 0" fill="none" transform="matrix(.2167 0 0 .21986 242.962 121.341)"/><path d="M246.871 703.689l-.112-7.555 14.853-4.885 6.866 1.423v6.662l-21.607 4.355z" fill="#fff" fill-rule="evenodd" transform="matrix(.2167 0 0 .21986 242.962 121.341)"/><path d="M261.589 692.256v5.48M235.525 619.841h11.078M237.175 623.613h8.957M237.175 629.623h9.31M237.529 634.102h9.31M238 636.459h7.307M244.953 639.523v57.984" fill="none" transform="matrix(.2167 0 0 .21986 242.962 121.341)"/><path d="M363.7 606.662v-12.129l.884-1.237v-1.503l1.68-1.237.044-4.676-5.98-3.865-23.94 2.479v4.773l1.503 1.237v1.238l1.326 1.502v11.933l17.682-1.238 6.801 2.723z" fill="#fff" fill-rule="evenodd" transform="matrix(.2167 0 0 .21986 242.962 121.341)"/><path d="M360.418 583.068v4.799l-.75.707v2.342l-.664 1.503v9.874" fill="none" transform="matrix(.2167 0 0 .21986 242.962 121.341)"/><path d="M365.733 590.6l-5.226-2.916-22.894 2.006M364.066 593.02l-4.499-2.007-19.862 1.728" fill="none" transform="matrix(.2167 0 0 .21986 242.962 121.341)"/><path d="M343.99 608.067l8.14-.096v-2.403l-5.382-2.417-8.334.688-.07 2.333 5.646 1.895z" fill="#fff" fill-rule="evenodd" transform="matrix(.2167 0 0 .21986 242.962 121.341)"/><path d="M356.218 607.303l8.14-.097v-2.403l-5.381-2.416-8.334.687-.07 2.334 5.645 1.895z" fill="#fff" fill-rule="evenodd" transform="matrix(.2167 0 0 .21986 242.962 121.341)"/><path d="M357.111 604.723c2.94 0 5.313 1.122 5.313 2.5 0 .584-.44 1.106-1.156 1.531v66.281c1.035.563 1.687 1.318 1.687 2.157 0 1.732-2.72 3.156-6.062 3.156-3.343 0-6.032-1.424-6.032-3.156 0-.904.727-1.709 1.907-2.282v-66.25c-.628-.41-1-.895-1-1.437 0-1.378 2.404-2.5 5.343-2.5z" fill="#fff" fill-rule="evenodd" transform="matrix(.2167 0 0 .21986 242.962 121.341)"/><path d="M360.143 607.332c-1.766-.371-3.511-.766-6.25 0M360.102 674.38c-1.766-.37-3.51-.766-6.25 0" fill="none" transform="matrix(.2167 0 0 .21986 242.962 121.341)"/><path d="M344.722 605.097c2.94 0 5.312 1.122 5.312 2.5 0 .584-.438 1.106-1.156 1.531v66.282c1.035.563 1.688 1.317 1.688 2.156 0 1.732-2.72 3.156-6.063 3.156-3.342 0-6.031-1.424-6.031-3.156 0-.903.726-1.709 1.906-2.281v-66.25c-.627-.41-1-.895-1-1.438 0-1.378 2.404-2.5 5.344-2.5z" fill="#fff" fill-rule="evenodd" transform="matrix(.2167 0 0 .21986 242.962 121.341)"/><path d="M347.753 607.706c-1.765-.37-3.51-.765-6.25 0M347.643 675.317c-1.765-.37-3.51-.765-6.25 0" fill="none" transform="matrix(.2167 0 0 .21986 242.962 121.341)"/><path d="M334.179 685.516v-7.996l26.233-.94 6.205 1.063v6.884l-32.438.989z" fill="#f9f9f9" fill-rule="evenodd" transform="matrix(.2167 0 0 .21986 242.962 121.341)"/><path d="M215.096 773.034v-12.079c3.144-7.048 8.967-10.079 13.967-14.343v-20.763c-3.528-6.45-4.64-11.058 3.397-17.402 16.692-13.178 60.81-25.25 146.111-25.25 85.303 0 129.42 12.072 146.112 25.25 8.037 6.344 6.925 10.953 3.397 17.402v20.763c5 4.264 10.822 7.295 13.967 14.343v12.08h-326.95z" fill="#fff" fill-rule="evenodd" transform="matrix(.2167 0 0 .21986 242.962 121.341)"/><path d="M360.304 676.848v5.48M362.943 599.996l-3.963-1.596-18.372 1.336M230.324 723.66c16.937-10.39 61.699-19.911 148.247-19.911 86.55 0 131.31 9.52 148.247 19.912M230.324 746.602c16.937-4.13 61.699-7.912 148.247-7.912 86.55 0 131.31 3.783 148.247 7.912M216.713 758.102c18.491-3.868 67.363-7.412 161.858-7.412 94.496 0 143.368 3.544 161.86 7.412" fill="none" transform="matrix(.2167 0 0 .21986 242.962 121.341)"/><path d="M216.713 760.852c18.491-2.825 67.363-5.412 161.858-5.412 94.496 0 143.368 2.587 161.86 5.412M494.5 733.737v-16.625l-7.25-1.25v17.125l7.25.75zM230.324 744.102c16.937-4.651 61.699-8.912 148.247-8.912 86.55 0 131.31 4.26 148.247 8.912" fill="none" transform="matrix(.2167 0 0 .21986 242.962 121.341)"/><path d="M230.324 721.66c16.937-11.435 61.699-21.911 148.247-21.911 86.55 0 131.31 10.476 148.247 21.912" fill="none" transform="matrix(.2167 0 0 .21986 242.962 121.341)"/><path d="M230.324 718.91c16.937-12.348 61.699-23.661 148.247-23.661 86.55 0 131.31 11.313 148.247 23.662" fill="none" transform="matrix(.2167 0 0 .21986 242.962 121.341)"/><path d="M487.625 717.675l2.813.375v15.062M262.643 733.737v-16.625l7.25-1.25v17.125l-7.25.75z" fill="none" transform="matrix(.2167 0 0 .21986 242.962 121.341)"/><path d="M269.518 717.675l-2.813.375v15.062M422.143 634.02c.139-1.868 2.634-4.857 5.48-5.038 4.912-.313 8.397 4.439 8.397 8.308v36.24M469.696 641.091c.08-1.868 1.526-4.857 3.176-5.038 2.847-.313 4.867 4.439 4.867 8.309V680.6" fill="none" transform="matrix(.2167 0 0 .21986 242.962 121.341)"/><path d="M370.139 635.468c0-5.862 5.146-8.615 8.432-8.615 3.148 0 8.433 2.753 8.433 8.615" fill="#fff" fill-rule="evenodd" transform="matrix(.2167 0 0 .21986 242.962 121.341)"/><path d="M335 634.02c-.14-1.868-2.634-4.857-5.48-5.038-4.912-.313-8.397 4.439-8.397 8.308v36.24M287.447 641.091c-.08-1.868-1.526-4.857-3.176-5.038-2.847-.313-4.867 4.439-4.867 8.309V680.6M402.813 439.675v3.312M354.33 439.675v3.312M347.83 446.3v4.875l-1.92 1.213-1.83 1.35M354.18 409.425c1.314-4.873 15.498-7.248 24.391-7.248 8.893 0 23.078 2.375 24.391 7.248" fill="none" transform="matrix(.2167 0 0 .21986 242.962 121.341)"/><path d="M356.302 413.668c-4.344-4.343 13.376-7.16 22.27-7.16 8.892 0 26.612 2.817 22.27 7.16M372.08 381.987c1.575-.974 4.24-1.437 6.491-1.437 2.251 0 4.917.463 6.491 1.437" fill="none" transform="matrix(.2167 0 0 .21986 242.962 121.341)"/></g></g><path d="M325 138.953l2.762 8.5h8.938l-7.23 5.253 2.76 8.5-7.23-5.252-7.23 5.253 2.76-8.5-7.23-5.254h8.938l2.762-8.5zM353.741 142.737l.468 8.925 8.633 2.313-8.344 3.203.468 8.926-5.625-6.946-8.344 3.203 4.867-7.496-5.624-6.946 8.633 2.313 4.868-7.495zM380.524 153.83l-1.858 8.742 7.74 4.47-8.889.934-1.858 8.742-3.636-8.165-8.888.934 6.641-5.98-3.635-8.165 7.74 4.468 6.643-5.98zM403.522 171.478l-4.057 7.963 6.32 6.32-8.828-1.398-4.058 7.963-1.398-8.827-8.827-1.398 7.963-4.058-1.398-8.828 6.32 6.32 7.963-4.057zM421.17 194.476l-5.98 6.642 4.468 7.74-8.165-3.634-5.98 6.641.934-8.888-8.165-3.636 8.742-1.858.935-8.889 4.469 7.74 8.742-1.858zM432.263 221.259l-7.495 4.868 2.313 8.633-6.946-5.624-7.496 4.867 3.203-8.344-6.946-5.625 8.926.468 3.203-8.344 2.313 8.633 8.925.468zM436.047 250l-8.5 2.762v8.938l-5.254-7.23-8.5 2.76 5.253-7.23-5.253-7.23 8.5 2.76 5.254-7.23v8.938l8.5 2.762zM432.263 278.741l-8.925.468-2.313 8.633-3.203-8.344-8.926.468 6.946-5.625-3.203-8.344 7.496 4.867 6.946-5.624-2.313 8.633 7.495 4.868zM421.17 305.524l-8.742-1.858-4.47 7.74-.934-8.889-8.742-1.858 8.165-3.636-.934-8.888 5.98 6.641 8.165-3.635-4.468 7.74 5.98 6.643zM403.522 328.522l-7.963-4.057-6.32 6.32 1.398-8.828-7.963-4.058 8.827-1.398 1.398-8.827 4.058 7.963 8.827-1.398-6.319 6.32 4.057 7.963zM380.524 346.17l-6.642-5.98-7.74 4.468 3.634-8.165-6.641-5.98 8.888.934 3.636-8.165 1.858 8.742 8.889.935-7.74 4.469 1.858 8.742zM353.741 357.263l-4.868-7.495-8.633 2.313 5.624-6.946-4.867-7.496 8.344 3.203 5.625-6.946-.468 8.926 8.344 3.203-8.633 2.313-.468 8.925zM325 361.047l-2.762-8.5H313.3l7.23-5.253-2.76-8.5 7.23 5.252 7.23-5.253-2.76 8.5 7.23 5.254h-8.938l-2.762 8.5zM296.259 357.263l-.468-8.925-8.633-2.313 8.344-3.203-.468-8.926 5.625 6.946 8.344-3.203-4.867 7.496 5.624 6.946-8.633-2.313-4.868 7.495zM269.476 346.17l1.858-8.742-7.74-4.47 8.889-.934 1.858-8.742 3.636 8.165 8.888-.934-6.641 5.98 3.635 8.165-7.74-4.468-6.643 5.98zM246.478 328.522l4.057-7.963-6.32-6.32 8.828 1.398 4.058-7.963 1.398 8.827 8.827 1.398-7.963 4.058 1.398 8.828-6.32-6.32-7.963 4.057zM228.83 305.524l5.98-6.642-4.468-7.74 8.165 3.634 5.98-6.641-.934 8.888 8.165 3.636-8.742 1.858-.935 8.889-4.469-7.74-8.742 1.858zM217.737 278.741l7.495-4.868-2.313-8.633 6.946 5.625 7.496-4.868-3.203 8.344 6.946 5.625-8.926-.468-3.203 8.344-2.313-8.633-8.925-.468zM213.953 250l8.5-2.762V238.3l5.253 7.23 8.5-2.762-5.252 7.231 5.253 7.23-8.5-2.76-5.254 7.23v-8.938l-8.5-2.762zM217.737 221.259l8.925-.468 2.313-8.633 3.203 8.344 8.926-.468-6.946 5.625 3.203 8.344-7.496-4.867-6.946 5.624 2.313-8.633-7.495-4.868zM228.83 194.476l8.742 1.858 4.47-7.74.934 8.889 8.742 1.858-8.165 3.636.934 8.888-5.98-6.641-8.165 3.635 4.468-7.74-5.98-6.643zM246.478 171.478l7.963 4.057 6.32-6.32-1.398 8.828 7.963 4.058-8.827 1.398-1.398 8.827-4.058-7.963-8.828 1.398 6.32-6.32-4.057-7.963zM269.476 153.83l6.642 5.98 7.74-4.468-3.634 8.165 6.641 5.98-8.888-.934-3.636 8.165-1.858-8.742-8.889-.935 7.74-4.469-1.858-8.742zM296.259 142.737l4.868 7.495 8.633-2.313-5.625 6.946 4.868 7.496-8.344-3.203-5.625 6.946.468-8.926-8.344-3.203 8.633-2.313.468-8.925z" fill="#fff"/><path style="text-align:center;line-height:125%;-inkscape-font-specification:Lucida Calligraphy" d="M165.614 109.637l1.873-1.9c.82 1.759 2.092 2.638 3.815 2.638 1.14 0 2.03-.432 2.673-1.298.642-.866 1.173-2.343 1.593-4.43l3.13-15.777h-3.65l1.928-2.024h8.804l-2.105 2.024h-2.105l-2.666 13.398c-.593 2.953-1.637 5.225-3.131 6.815-1.495 1.591-3.336 2.386-5.524 2.386-1.695 0-3.24-.61-4.635-1.832zm31.2-6.289l-.205 1.053c-2.899 2.014-5.369 3.021-7.41 3.021-1.295 0-2.345-.453-3.152-1.36-.807-.907-1.21-2.08-1.21-3.52 0-2.57.984-4.988 2.953-7.253 1.969-2.265 4.07-3.398 6.303-3.398.811 0 1.467.274 1.969.82.501.547.752 1.258.752 2.133 0 1.75-.894 3.254-2.68 4.512-1.786 1.258-3.92 1.887-6.398 1.887l-.014.615c0 2.661.975 3.992 2.926 3.992 1.686 0 3.741-.834 6.166-2.502zm-9.051-2.953c2.042-.164 3.637-.69 4.785-1.58 1.148-.888 1.723-2.038 1.723-3.451 0-1.395-.506-2.092-1.518-2.092-1.094 0-2.15.727-3.172 2.18-1.02 1.454-1.627 3.102-1.818 4.943zm3.65 15.613l1.955-2.037a7.061 7.061 0 0 0 2.68.533c1.303 0 2.308-.442 3.015-1.326.706-.884 1.232-2.347 1.579-4.388l2.625-15.545h-3.063l.957-1.012h2.31l.042-.178c.52-2.643 1.718-4.792 3.596-6.446 1.877-1.654 4.056-2.482 6.535-2.482.793 0 1.526.078 2.2.233l-1.954 2.078c-.848-.529-1.718-.793-2.611-.793-1.368 0-2.384.403-3.05 1.21-.665.807-1.212 2.285-1.64 4.436l-.396 1.942h5.113l-1.108 1.217a29.703 29.703 0 0 0-3.486-.205h-.71l-1.997 11.757c-.602 3.573-1.8 6.33-3.596 8.272-1.795 1.941-4.047 2.912-6.754 2.912-.71 0-1.458-.06-2.242-.178zm11.43 0l1.955-2.037a7.061 7.061 0 0 0 2.68.533c1.303 0 2.308-.442 3.014-1.326.707-.884 1.233-2.347 1.58-4.388l2.624-15.545h-3.062l.957-1.012h2.31l.042-.178c.52-2.643 1.718-4.792 3.595-6.446 1.878-1.654 4.056-2.482 6.535-2.482.793 0 1.527.078 2.202.233l-1.955 2.078c-.848-.529-1.719-.793-2.612-.793-1.367 0-2.383.403-3.049 1.21-.665.807-1.212 2.285-1.64 4.436l-.397 1.942h5.114l-1.108 1.217a29.703 29.703 0 0 0-3.486-.205h-.711l-1.996 11.757c-.602 3.573-1.8 6.33-3.596 8.272-1.796 1.941-4.047 2.912-6.754 2.912-.71 0-1.458-.06-2.242-.178zm31.978-12.66l-.205 1.053c-2.898 2.014-5.368 3.021-7.41 3.021-1.294 0-2.344-.453-3.151-1.36-.807-.907-1.21-2.08-1.21-3.52 0-2.57.984-4.988 2.953-7.253 1.969-2.265 4.07-3.398 6.303-3.398.81 0 1.467.274 1.969.82.5.547.751 1.258.751 2.133 0 1.75-.893 3.254-2.68 4.512-1.786 1.258-3.918 1.887-6.398 1.887l-.013.615c0 2.661.975 3.992 2.925 3.992 1.687 0 3.742-.834 6.166-2.502zm-9.05-2.953c2.041-.164 3.636-.69 4.785-1.58 1.148-.888 1.722-2.038 1.722-3.451 0-1.395-.505-2.092-1.517-2.092-1.094 0-2.151.727-3.172 2.18-1.02 1.454-1.627 3.102-1.818 4.943zm13.33 6.85l1.011-4.211 1.327-6.686c.136-.674.205-1.258.205-1.75 0-.784-.274-1.176-.82-1.176-.967 0-2.348 1.03-4.143 3.09l.246-1.217c2.105-2.27 3.933-3.404 5.482-3.404 1.313 0 1.97.752 1.97 2.256 0 .665-.083 1.404-.247 2.215l-.656 3.295h.178c1.084-2.279 2.367-4.14 3.848-5.585 1.481-1.445 2.837-2.167 4.068-2.167.638 0 1.207.141 1.709.424l-1.819 2.46c-.538-.355-.993-.533-1.367-.533-1.777 0-4.143 2.612-7.096 7.834l-.998 4.99-2.898.165zm12.838-.63l1.79-1.845c1.186.866 2.393 1.299 3.624 1.299.756 0 1.394-.198 1.914-.595.52-.396.78-.886.78-1.47 0-.647-.516-1.53-1.546-2.652l-1.244-1.367c-1.212-1.33-1.818-2.443-1.818-3.336 0-1.24.588-2.34 1.763-3.302 1.176-.961 2.52-1.442 4.034-1.442.829 0 1.759.173 2.789.52l-.602 3.02h-.861l.04-.232c.019-.082.028-.177.028-.287 0-1.23-.793-1.845-2.379-1.845-1.777 0-2.666.71-2.666 2.132 0 .72.529 1.677 1.586 2.871l1.121 1.245c1.222 1.376 1.832 2.506 1.832 3.39 0 1.222-.647 2.31-1.941 3.268-1.294.957-2.766 1.435-4.416 1.435-1.158 0-2.434-.269-3.828-.806zm18.62.807c-1.193 0-2.189-.467-2.987-1.401-.797-.934-1.196-2.099-1.196-3.493 0-2.625.994-5.052 2.98-7.28 1.988-2.229 4.152-3.343 6.495-3.343 1.267 0 2.31.456 3.13 1.367.82.911 1.231 2.074 1.231 3.486 0 2.726-.993 5.184-2.98 7.376s-4.211 3.288-6.672 3.288zm1.56-1.19c1.348 0 2.535-.867 3.56-2.604 1.026-1.736 1.539-3.753 1.539-6.05 0-3.016-.92-4.525-2.762-4.525-1.303 0-2.477.896-3.52 2.687-1.044 1.79-1.566 3.807-1.566 6.05 0 2.962.916 4.443 2.748 4.443zm11.484 1.013l1.011-4.211 1.34-6.754c.21-1.048.315-1.732.315-2.051 0-.565-.27-.848-.807-.848-.893 0-2.251.998-4.074 2.994l.246-1.257c1.987-2.142 3.778-3.213 5.373-3.213 1.313 0 1.969.683 1.969 2.05 0 .465-.105 1.24-.315 2.325l-.67 3.377h.205c1.14-2.334 2.427-4.209 3.863-5.626 1.435-1.418 2.773-2.126 4.012-2.126 1.495 0 2.243.83 2.243 2.488 0 .538-.078 1.194-.233 1.969l-1.326 6.672c-.21 1.057-.314 1.74-.314 2.05 0 .575.268.862.806.862.912 0 2.274-1.003 4.088-3.008l-.26 1.271c-1.987 2.142-3.778 3.213-5.373 3.213-1.312 0-1.968-.688-1.968-2.064 0-.456.109-1.23.328-2.324l1.326-6.7c.11-.52.164-.957.164-1.312 0-.738-.274-1.107-.82-1.107-1.741 0-4.157 2.761-7.246 8.285l-.999 4.88-2.884.165zm43.736-1.409c-2.898 1.167-5.441 1.75-7.629 1.75-2.351 0-4.174-.66-5.469-1.982-1.294-1.322-1.941-3.181-1.941-5.578 0-3.8 1.242-7.034 3.726-9.7 2.483-2.666 5.489-4 9.016-4 2.106 0 4.06.27 5.865.807l-1.162 3.76h-.861c.091-.428.137-.78.137-1.053 0-.793-.433-1.435-1.3-1.927-.865-.493-1.99-.739-3.376-.739-2.087 0-3.915.93-5.483 2.79-1.039 1.23-1.886 2.757-2.542 4.58-.657 1.822-.985 3.55-.985 5.181 0 1.969.517 3.518 1.552 4.649 1.034 1.13 2.454 1.695 4.259 1.695 2.023 0 4.174-.51 6.453-1.531l-.26 1.298zm13.043-2.898l-.246 1.271c-1.996 2.142-3.787 3.213-5.373 3.213-1.313 0-1.969-.688-1.969-2.064 0-.465.105-1.23.315-2.297l.943-4.758c.255-1.349.383-2.247.383-2.693 0-.766-.296-1.149-.889-1.149-.41 0-1.144.16-2.201.479l.164-.848 6.686-2.187-1.04 4.375-1.34 6.754c-.209 1.057-.314 1.731-.314 2.023 0 .593.269.889.807.889.902 0 2.26-1.003 4.074-3.008zm-5.018-13.412l.916-1.86 3.856-2.515-1.176 2.515-3.596 1.86zm9.68 3.719h-3.13l.943-1.012h2.379l.779-3.87 2.83-.683-.902 4.553h5.154l-1.121 1.203a29.388 29.388 0 0 0-3.131-.191h-1.108l-1.859 9.365c-.191.966-.287 1.645-.287 2.037 0 .72.319 1.08.957 1.08.984 0 2.329-.73 4.033-2.187l-.246 1.257c-1.768 1.75-3.468 2.625-5.1 2.625-1.549 0-2.324-.856-2.324-2.57 0-.61.1-1.422.301-2.434l1.832-9.173zm9.885 22.545l1.887-1.915a5.64 5.64 0 0 0 2.898.793c1.267 0 2.254-.45 2.96-1.353.706-.902 1.347-2.543 1.92-4.922l2.12-8.736h-.178c-1.066 2.169-2.15 3.949-3.254 5.339-1.102 1.39-1.973 2.085-2.61 2.085-.666 0-1.165-.358-1.498-1.074-.333-.715-.622-2.044-.868-3.985l-.656-5.318c-.247-1.97-.661-2.954-1.245-2.954-.565 0-1.48.798-2.748 2.393l.274-1.394c1.43-1.896 2.784-2.844 4.06-2.844.73 0 1.25.328 1.559.984.31.656.602 2.037.875 4.143l.574 4.566c.21 1.632.556 2.447 1.04 2.447.564 0 1.362-.788 2.392-2.365.182-.292 1.198-1.982 3.049-5.072l1.039-4.375 2.912-.164-1.217 4.265-2.393 9.721c-.81 3.29-2.103 5.802-3.876 7.533-1.772 1.732-3.944 2.598-6.514 2.598-.975 0-1.81-.132-2.502-.396zM378.003 386.616l1.955-2.01c.92 1.514 2.201 2.27 3.842 2.27 1.076 0 2.028-.456 2.857-1.367.83-.912 1.395-2.12 1.696-3.623l2.584-12.988c-.465-.073-.789-.11-.97-.11-1.505 0-2.758.536-3.76 1.607-1.003 1.07-1.505 2.404-1.505 3.999l-2.652 1.298c.191-2.542 1.208-4.52 3.049-5.933 1.841-1.413 4.316-2.12 7.424-2.12h1.107a78.64 78.64 0 0 1 3.692 14.48l8.968-14.48 2.926-.341-1.039 4.389-2.229 11.17c-.19.993-.287 1.786-.287 2.378 0 .803.488 1.204 1.463 1.204.483 0 1.13-.05 1.942-.15l-.178.874-6.754 1.34 3.541-17.8-9.352 14.984-1.408.218v-.396c0-3.564-.87-7.989-2.611-13.275l-1.121 5.578c-1.367 6.881-4.348 10.322-8.942 10.322-1.604 0-3.016-.506-4.238-1.518zm43.45-2.884l-.247 1.271c-1.996 2.142-3.787 3.213-5.373 3.213-1.312 0-1.969-.688-1.969-2.065 0-.464.105-1.23.315-2.296l.943-4.758c.256-1.35.383-2.247.383-2.694 0-.765-.296-1.148-.889-1.148-.41 0-1.143.16-2.2.479l.163-.848 6.686-2.188-1.04 4.375-1.339 6.754c-.21 1.058-.314 1.732-.314 2.024 0 .592.268.888.806.888.903 0 2.26-1.002 4.074-3.007zm-5.018-13.413l.916-1.859 3.855-2.516-1.175 2.516-3.596 1.86zm4.402 17.09l1.791-1.845c1.185.865 2.393 1.298 3.623 1.298.757 0 1.395-.198 1.914-.594.52-.397.78-.887.78-1.47 0-.647-.515-1.531-1.545-2.652l-1.244-1.368c-1.213-1.33-1.819-2.442-1.819-3.336 0-1.24.588-2.34 1.764-3.301 1.176-.962 2.52-1.443 4.033-1.443.83 0 1.76.174 2.79.52l-.602 3.021h-.862l.041-.232c.018-.082.028-.178.028-.287 0-1.23-.793-1.846-2.38-1.846-1.777 0-2.665.711-2.665 2.133 0 .72.528 1.677 1.586 2.871l1.12 1.244c1.222 1.376 1.833 2.507 1.833 3.39 0 1.222-.647 2.311-1.942 3.268-1.294.957-2.766 1.436-4.416 1.436-1.157 0-2.433-.269-3.828-.807zm12.633 0l1.791-1.845c1.185.865 2.393 1.298 3.623 1.298.757 0 1.395-.198 1.914-.594.52-.397.78-.887.78-1.47 0-.647-.516-1.531-1.546-2.652l-1.244-1.368c-1.212-1.33-1.818-2.442-1.818-3.336 0-1.24.588-2.34 1.764-3.301 1.175-.962 2.52-1.443 4.033-1.443.83 0 1.759.174 2.789.52l-.602 3.021h-.861l.041-.232c.018-.082.027-.178.027-.287 0-1.23-.793-1.846-2.379-1.846-1.777 0-2.666.711-2.666 2.133 0 .72.53 1.677 1.586 2.871l1.121 1.244c1.222 1.376 1.833 2.507 1.833 3.39 0 1.222-.648 2.311-1.942 3.268-1.294.957-2.766 1.436-4.416 1.436-1.157 0-2.433-.269-3.828-.807zm18.621.807c-1.194 0-2.19-.467-2.987-1.401-.798-.935-1.197-2.099-1.197-3.494 0-2.625.994-5.051 2.98-7.28 1.988-2.228 4.153-3.343 6.495-3.343 1.267 0 2.31.456 3.13 1.368.821.911 1.231 2.073 1.231 3.486 0 2.725-.993 5.184-2.98 7.376s-4.211 3.288-6.672 3.288zm1.559-1.19c1.349 0 2.536-.868 3.561-2.604 1.026-1.736 1.538-3.753 1.538-6.05 0-3.017-.92-4.525-2.761-4.525-1.304 0-2.477.895-3.521 2.686s-1.565 3.808-1.565 6.05c0 2.962.916 4.443 2.748 4.443zm22.271-6.576h-.232c-2.589 5.177-5.114 7.766-7.575 7.766-1.458 0-2.187-.861-2.187-2.584 0-.492.073-1.107.219-1.846l1.326-6.713c.21-1.048.314-1.731.314-2.05 0-.566-.269-.848-.806-.848-.894 0-2.252.998-4.074 2.994l.246-1.258c1.987-2.142 3.778-3.213 5.373-3.213 1.321 0 1.982.684 1.982 2.051 0 .456-.11 1.23-.328 2.324l-1.34 6.727c-.118.601-.178 1.03-.178 1.285 0 .738.27 1.108.807 1.108.684 0 1.72-.828 3.11-2.482 1.39-1.654 2.669-3.58 3.835-5.776l.985-4.909 2.898-.164-1.012 4.211-1.34 6.754c-.21 1.048-.314 1.732-.314 2.051 0 .574.269.861.807.861.902 0 2.26-1.002 4.074-3.007l-.246 1.271c-1.996 2.142-3.787 3.213-5.373 3.213-1.322 0-1.983-.688-1.983-2.065 0-.464.11-1.24.329-2.324l.683-3.377zm8.914 7.588l1.012-4.21 1.326-6.686c.137-.675.205-1.258.205-1.75 0-.784-.273-1.176-.82-1.176-.966 0-2.347 1.03-4.143 3.09l.246-1.217c2.106-2.27 3.933-3.404 5.483-3.404 1.312 0 1.969.752 1.969 2.256 0 .665-.082 1.403-.247 2.214l-.656 3.295h.178c1.085-2.278 2.367-4.14 3.849-5.585 1.48-1.444 2.836-2.167 4.067-2.167.638 0 1.208.142 1.709.424l-1.818 2.461c-.538-.355-.994-.533-1.368-.533-1.777 0-4.142 2.611-7.095 7.834l-.998 4.99-2.899.164zm24.008-4.306l-.246 1.271c-1.996 2.142-3.787 3.213-5.373 3.213-1.313 0-1.969-.688-1.969-2.065 0-.464.105-1.23.315-2.296l.943-4.758c.255-1.35.383-2.247.383-2.694 0-.765-.296-1.148-.889-1.148-.41 0-1.144.16-2.201.479l.164-.848 6.686-2.188-1.04 4.375-1.34 6.754c-.209 1.058-.314 1.732-.314 2.024 0 .592.269.888.807.888.902 0 2.26-1.002 4.074-3.007zm-5.018-13.413l.916-1.859 3.856-2.516-1.176 2.516-3.596 1.86z" font-size="28" font-weight="400" text-anchor="middle" fill="#002673" stroke="#002673" stroke-linecap="round" stroke-linejoin="round" font-family="Lucida Calligraphy"/></svg>