<svg xmlns="http://www.w3.org/2000/svg" width="800" height="531.921" version="1"><path fill="#c70f2e" d="M0 0h800v531.92H0z"/><path d="M408.625 198.767c-12.01 0-24.929 8.996-34.125 15.375-9.196 6.378-22.083 15.375-34.094 15.375-7.184 0-14.693-3.202-21.531-7.157v103.563c6.84 3.956 14.345 7.187 21.531 7.187 12.01 0 24.898-8.996 34.094-15.375 9.196-6.378 22.115-15.375 34.125-15.375 12.01 0 24.897 8.997 34.094 15.375 9.196 6.379 22.083 15.375 34.094 15.375 12.01 0 24.928-8.996 34.125-15.375 9.196-6.378 22.083-15.375 34.093-15.375 12.01 0 24.929 8.997 34.125 15.375 9.197 6.379 22.084 15.375 34.094 15.375 12.01 0 24.898-8.996 34.094-15.375 9.196-6.378 22.114-15.375 34.125-15.375 12.01 0 24.897 8.997 34.093 15.375 9.197 6.379 22.115 15.375 34.125 15.375 12.01 0 24.898-8.996 34.094-15.375 4.654-3.227 10.267-7.124 16.219-10.187V203.954c-5.952 3.064-11.565 6.96-16.219 10.188-9.196 6.378-22.083 15.375-34.093 15.375-12.01 0-24.93-8.997-34.125-15.375-9.197-6.379-22.084-15.375-34.094-15.375-12.01 0-24.93 8.996-34.125 15.375-9.196 6.378-22.084 15.375-34.094 15.375-12.01 0-24.897-8.997-34.094-15.375-9.196-6.379-22.114-15.375-34.125-15.375-12.01 0-24.897 8.996-34.093 15.375-9.197 6.378-22.115 15.375-34.125 15.375-12.01 0-24.898-8.997-34.094-15.375-9.197-6.379-22.084-15.375-34.094-15.375z" fill="#fff" fill-rule="evenodd"/><path d="M408.625 233.298c-12.01 0-24.929 8.997-34.125 15.375-9.196 6.378-22.083 15.375-34.094 15.375-7.184 0-14.693-3.202-21.531-7.156v34.5c6.84 3.955 14.345 7.187 21.531 7.187 12.01 0 24.898-8.997 34.094-15.375 9.196-6.378 22.115-15.375 34.125-15.375 12.01 0 24.897 8.997 34.094 15.375 9.196 6.378 22.083 15.375 34.094 15.375 12.01 0 24.928-8.997 34.125-15.375 9.196-6.378 22.083-15.375 34.093-15.375 12.01 0 24.929 8.997 34.125 15.375 9.197 6.378 22.084 15.375 34.094 15.375 12.01 0 24.898-8.997 34.094-15.375 9.196-6.378 22.114-15.375 34.125-15.375 12.01 0 24.897 8.997 34.093 15.375 9.197 6.378 22.115 15.375 34.125 15.375 12.01 0 24.898-8.997 34.094-15.375 4.654-3.227 10.267-7.124 16.219-10.187v-34.532c-5.952 3.064-11.565 6.96-16.219 10.188-9.196 6.378-22.083 15.375-34.093 15.375-12.01 0-24.93-8.997-34.125-15.375-9.197-6.378-22.084-15.375-34.094-15.375-12.01 0-24.93 8.997-34.125 15.375-9.196 6.378-22.084 15.375-34.094 15.375-12.01 0-24.897-8.997-34.094-15.375-9.196-6.378-22.114-15.375-34.125-15.375-12.01 0-24.897 8.997-34.093 15.375-9.197 6.378-22.115 15.375-34.125 15.375-12.01 0-24.898-8.997-34.094-15.375-9.197-6.378-22.084-15.375-34.094-15.375z" fill="#002673" fill-rule="evenodd"/><path d="M0 0v1.063c7.56 8.701 10.167 23.21 12.063 33.687 1.992 11.013 4.726 26.507 13.218 35 8.493 8.493 23.987 11.226 35 13.219 11.013 1.992 26.508 4.757 35 13.25 8.493 8.492 11.226 23.987 13.219 35 1.993 11.013 4.757 26.507 13.25 35 8.493 8.492 23.987 11.226 35 13.219 11.013 1.992 26.507 4.757 35 13.25 8.493 8.492 11.226 23.987 13.219 35 .82 4.531 1.794 9.814 3.219 15.062l76.843-62.969c-.004-.008.004-.022 0-.031-3.7-8.07-5.444-17.75-6.812-25.313-1.993-11.012-4.758-26.507-13.25-35-8.493-8.492-23.956-11.226-34.969-13.218-11.013-1.993-26.507-4.758-35-13.25-8.493-8.493-11.257-23.987-13.25-35-1.993-11.013-4.757-26.508-13.25-35-8.493-8.493-23.956-11.226-34.969-13.219-9.336-1.69-21.875-3.932-30.656-9.75H0z" fill="#fff" fill-rule="evenodd"/><path d="M34.438 0c.819 3.638 1.457 7.174 2.03 10.344 1.993 11.013 4.727 26.476 13.22 34.969 8.492 8.492 23.987 11.257 35 13.25 11.012 1.992 26.507 4.757 35 13.25 8.492 8.492 11.257 23.987 13.25 35 1.992 11.012 4.726 26.476 13.218 34.968 8.493 8.493 23.987 11.258 35 13.25 11.013 1.993 26.508 4.758 35 13.25 8.493 8.493 11.258 23.987 13.25 35 1.005 5.553 2.22 12.236 4.25 18.594l25.594-21c-2.782-7.313-4.25-15.469-5.438-22.031-1.992-11.013-4.757-26.476-13.25-34.969-8.492-8.493-23.987-11.257-35-13.25-11.012-1.993-26.476-4.757-34.968-13.25-8.493-8.493-11.258-23.987-13.25-35-1.993-11.013-4.758-26.476-13.25-34.969-8.493-8.492-23.987-11.257-35-13.25-11.013-1.992-26.476-4.757-34.969-13.25C68.907 15.688 65.855 7.841 63.812 0H34.439z" fill="#002673" fill-rule="evenodd"/><path d="M208 288.952c-1.49 5.388-2.47 10.845-3.313 15.5-1.992 11.013-4.757 26.508-13.25 35-8.492 8.493-23.987 11.226-35 13.22-11.012 1.992-26.507 4.756-35 13.25-8.492 8.492-11.226 23.986-13.218 35-1.993 11.012-4.758 26.506-13.25 35-8.493 8.492-23.987 11.225-35 13.218-11.013 1.992-26.508 4.757-35 13.25-8.493 8.492-11.226 23.987-13.219 35C9.881 507.718 7.315 521.936 0 530.67v1.25h102.906c8.763-5.652 21.098-7.864 30.313-9.531 11.013-1.993 26.507-4.758 35-13.25 8.492-8.493 11.226-23.987 13.219-35 1.992-11.013 4.757-26.476 13.25-34.969 8.492-8.493 23.987-11.257 35-13.25 11.012-1.993 26.507-4.757 35-13.25 8.492-8.493 11.226-23.987 13.218-35 1.392-7.691 3.17-17.538 7-25.687L208 288.952z" fill="#fff" fill-rule="evenodd"/><path d="M233.469 309.827c-2.116 6.487-3.348 13.352-4.375 19.032-1.993 11.012-4.758 26.507-13.25 35-8.493 8.492-23.987 11.226-35 13.218-11.013 1.993-26.476 4.758-34.969 13.25-8.493 8.493-11.257 23.987-13.25 35-1.993 11.013-4.757 26.508-13.25 35-8.493 8.493-23.987 11.226-35 13.22-11.013 1.992-26.476 4.756-34.969 13.25-8.492 8.492-11.257 23.986-13.25 35-.562 3.106-1.203 6.562-2 10.124h29.407c2.042-7.777 5.074-15.543 10.25-20.719 8.492-8.492 23.987-11.226 35-13.218 11.012-1.993 26.476-4.758 34.968-13.25 8.493-8.493 11.258-23.988 13.25-35 1.993-11.013 4.758-26.508 13.25-35 8.493-8.493 23.987-11.227 35-13.22 11.013-1.992 26.476-4.757 34.969-13.25 8.493-8.492 11.258-23.987 13.25-35 1.21-6.686 2.707-15.017 5.594-22.437l-25.625-21z" fill="#002673" fill-rule="evenodd"/><path d="M385.124 265.939a116.669 116.669 0 1 1-233.338 0 116.669 116.669 0 1 1 233.338 0z" fill="#f5dc0f"/><path d="M268.455 301.76h-41.76v9.825h41.76m-69.272-15.23c-2.895-13.367 3.135-18.843 8.352-20.88 11.971-4.673 24.362 3.536 35.139 17.859h6.878c-6.58-31.163-20.607-47.383-46.684-47.336-13.565.024-29.033 12.437-28.74 25.301.265 11.702 8.927 25.135 25.055 25.056zm51.451 23.552c-1.7 9.069-5.841 14.522-11.29 20.277l-5.558-4.864c5.932-6.3 8.759-9.78 10.08-15.413h6.768zm17.821-18.147h41.76v9.825h-41.76m4.176-18.251c.901-13.429 4.576-27.334 10.809-39.475 6.377-12.424 12.067-19.089 13.51-33.408 1.854-18.39-12.557-37.95-28.495-47.164-15.937 9.214-30.348 28.775-28.494 47.164 1.443 14.319 7.133 20.984 13.51 33.408 6.233 12.141 9.908 26.046 10.808 39.475h8.352zm65.096 3.021c2.896-13.367-3.135-18.843-8.351-20.88-11.971-4.673-24.362 3.536-35.14 17.859h-6.877c6.58-31.163 20.607-47.383 46.684-47.336 13.564.024 29.032 12.437 28.74 25.301-.265 11.702-8.927 25.135-25.056 25.056zm-51.45 23.552c1.7 9.069 5.84 14.522 11.29 20.277l5.558-4.864c-5.932-6.3-8.759-9.78-10.08-15.413h-6.768zm-13.756 0c.822 9.833 5.07 18.38 11.181 26.23-2.1 6.957-8.674 13.169-15.247 15.653-6.573-2.484-13.146-8.696-15.246-15.653 6.11-7.85 10.359-16.397 11.18-26.23h8.132z" fill="#002673" fill-rule="evenodd"/></svg>