<svg xmlns="http://www.w3.org/2000/svg" width="510" height="340" overflow="visible" xmlns:cgf="https://coding.garden/flags"><metadata id="cgf-metadata">

<cgf:flag>
  <cgf:name></cgf:name>
  <cgf:route>it/65</cgf:route>
  <cgf:aspect-ratio>1.5</cgf:aspect-ratio>
</cgf:flag>

</metadata><path fill="#EC1E3D" d="M0 0h510v340H0z"></path><path d="M193.588 262.51h46.833c8.077 0 14.579 7.206 14.579 8.491 0-1.283 6.502-8.492 14.58-8.492h46.832c8.076 0 14.58-6.46 14.58-14.487V69H179.008v179.023c0 8.028 6.503 14.487 14.58 14.487z" fill="#4976bb" stroke="#f5dd06" stroke-width="3" stroke-linecap="round"></path><path fill="#fff" d="M180.558 180.384V70.536H295.75"></path><path d="m329.457 70.442.08 80.643-110.63 109.847h-26.272c-5.133 0-11.996-5.314-11.996-11.662 0-9.8-.08-69.055-.08-69.055L295.752 70.536" fill="#108541"></path></svg>