<svg xmlns="http://www.w3.org/2000/svg" width="945.771" height="630.847" viewBox="-291.884 -90.579 945.771 630.847"><g font-size="8"><text transform="translate(122.338 217.231)" font-family="'ArialMT'">created by:</text><text transform="translate(170.09 217.231)" fill="#ED1C24" font-family="'Arial-BoldMT'">cecilomar</text><text transform="translate(211.91 217.231)" font-family="'Arial-BoldMT'">design</text><text transform="translate(128.625 226.832)" font-family="'ArialMT'">http://www.cecilomar.com/</text><text transform="translate(156.735 236.43)" font-family="'ArialMT'">no copyright</text></g><path fill="#FFF" stroke="#000" d="M-291.384-90.079h944.771v629.847h-944.771z"/><path fill="#B49F5C" stroke="#000" d="M152.794 37.459l.686 5.765-6.86.842-.712-5.761-16.98 2.491 16.931 72.047 25.905-3.229-2.675-73.74z"/><path fill="none" stroke="#000" d="M168.967 41.76l-38.805 4.794M169.639 49.678l-37.641 4.719M133.638 61.053l36.047-4.561M170.53 76.241l-32.362 4.247M139.856 87.38l30.746-4.108M170.889 90.063l-29.528 4M142.666 99.07l28.485-3.898M171.301 101.847l-27.155 3.791"/><path fill="#445684" stroke="#000" d="M145.389 71.041l.638 5.195 16.388-2.011-.629-5.124z"/><path fill="none" stroke="#000" d="M156.682 97.426l.799 6.506M155.208 85.421l.84 6.843M151.902 58.496l1.253 10.21M150.07 43.574l1.005 8.19M146.9 59.11l-.649-6.754M149.495 86.122l-.681-7.09M150.63 97.941l-.498-5.179M151.981 112.009l-.692-7.206M165.372 103.076l1.152 6.806M163.35 91.139l.889 5.246M161.026 77.418l1.19 7.03M156.586 51.202l1.095 6.465"/><g><path fill="#B49F5C" stroke="#000" d="M90.737 53.225l2.061 5.427-6.453 2.476-2.085-5.417-15.872 6.525 33.858 65.81 24.353-9.399-20.433-70.903z"/><path fill="none" stroke="#000" d="M107.47 53.485l-36.492 14.04M110.038 61.005L74.656 74.69M77.858 80.751l33.874-13.145M117.329 86.564l-30.373 11.95M90.261 104.792l28.838-11.423M121.021 99.889l-27.683 11.025M95.815 115.456l26.695-10.674M124.271 111.222L98.84 121.47"/><path fill="#445684" stroke="#000" d="M91.677 87.6l1.875 4.887 15.414-5.916-1.849-4.82z"/><path fill="none" stroke="#000" d="M109.017 110.469l2.349 6.12M104.682 99.178l2.472 6.436M94.961 73.853l3.686 9.603M89.574 59.817l2.956 7.703M90.256 75.659l-2.263-6.397M99.308 101.24l-2.375-6.715M103.27 112.434l-1.735-4.906M107.984 125.756l-2.415-6.824M118.815 113.85l2.765 6.324M113.965 102.756l2.132 4.875M108.391 90.005l2.857 6.533M97.742 65.642l2.627 6.008"/></g><g><path fill="#B49F5C" stroke="#000" d="M279.391 54.291l-2.098 5.412-6.453-2.477 2.075-5.421-16.161-5.772-18.875 71.562 24.389 9.31 32.257-66.364z"/><path fill="none" stroke="#000" d="M291.652 65.681l-36.513-13.985M288.529 72.987l-35.45-13.505M251.402 66.129l33.97 12.897M276.844 96.859l-30.567-11.442M244.534 92.294l29.073 10.808M270.672 109.232l-27.947-10.33M241.525 103.935l26.981 9.931M265.504 119.83l-25.754-9.401"/><path fill="#445684" stroke="#000" d="M257.088 80.464l-1.875 4.888 15.412 5.917 1.85-4.819z"/><path fill="none" stroke="#000" d="M254.672 109.063l-2.347 6.119M259.006 97.771l-2.468 6.437M268.729 72.447l-3.687 9.602M274.116 58.411l-2.957 7.703M264.023 70.641l2.599-6.268M253.633 95.708l2.728-6.579M249.086 106.677l1.993-4.807M243.676 119.732l2.772-6.687M259.691 118.132l-2.177 6.55M263.51 106.642l-1.677 5.05M267.9 93.437l-2.248 6.766M276.29 68.205l-2.069 6.223"/></g><g><path fill="#B49F5C" stroke="#000" d="M217.439 38.636l-.728 5.759-6.859-.843.701-5.761-17.078-1.691-1 74.002 25.916 3.134 15.246-72.197z"/><path fill="none" stroke="#000" d="M232.092 46.722l-38.813-4.737M230.829 54.566l-37.664-4.526M193.145 56.895l36.08 4.295M225.268 80.557l-32.428-3.709M192.811 83.944l30.824 3.452M222.271 94.055l-29.619-3.262M192.708 95.967l28.582 3.108M219.82 105.587l-27.265-2.89"/><path fill="#445684" stroke="#000" d="M202.131 69.428l-.638 5.196 16.388 2.013.629-5.124z"/><path fill="none" stroke="#000" d="M206.706 97.761l-.799 6.507M208.178 85.757l-.838 6.843M211.484 58.832l-1.254 10.21M213.318 43.91l-1.005 8.19M206.482 58.218l1.006-6.71M202.465 85.054l1.056-7.043M200.709 96.798l.77-5.146M198.616 110.774l1.072-7.16M213.77 105.346l-.529 6.883M214.695 93.274l-.405 5.306M215.76 79.398l-.545 7.11M217.795 52.888l-.502 6.538"/></g><g stroke="#000"><path fill="#B49F5C" d="M168.562 109.742l-2.852-95.641h31.369l-2.412 95.593z"/><path fill="#B49F5C" d="M159.787.5h8.556l.016 7.037h9.109L177.489.5h9.086v7.037h8L194.551.5h8.012v7.02l-5.561 6.605h-31.14l-6.075-6.605z"/><path fill="none" d="M166.044 21.345h30.953M196.764 28.194H166.09M196.484 35.765h-29.882M196.484 41.653h-30.069M196.206 49.705h-29.558M166.927 56.554h29.139M195.602 76.502h-28.117M167.764 83.592h27.559M195.229 90.442h-27.326M168.182 95.609h26.908M194.902 102.339h-26.581"/><path fill="#445684" d="M177.782 65.448h6.864l.556-20.071s-2.82-4.206-3.975-4.206c-1.155 0-4.077 4.206-4.077 4.206l.632 20.071z"/><g fill="#445684"><path d="M169.304 29.521h6.866V21.43s-2.266-3.237-3.422-3.237c-1.155 0-3.468 3.307-3.468 3.307l.024 8.021zM186.204 29.521h6.864V21.43s-2.266-3.237-3.42-3.237c-1.155 0-3.469 3.307-3.469 3.307l.025 8.021z"/></g><path fill="#445684" d="M174.813 110.133h12.871l1.039-25.521s-5.285-7.885-7.452-7.885c-2.166 0-7.644 7.885-7.644 7.885l1.186 25.521z"/><g fill="none"><path d="M181.2 21.537V14.19M181.2 35.666v-7.574M175.075 67.646l.248 8.937M174.192 35.779l.157 5.649M188.984 41.657l.127-5.765M188.208 76.809l.194-8.825"/></g><g><path fill="#B49F5C" d="M217.131 112.967l20.371-93.49 30.437 7.589-25.466 92.17z"/><path fill="#B49F5C" d="M235.045 4.848l8.303 2.069-1.687 6.832 8.838 2.204 1.724-6.823 8.815 2.198-1.702 6.828 7.762 1.935 1.679-6.833 7.774 1.938-1.699 6.811-6.993 5.065-30.214-7.534-4.297-7.879z"/><path fill="none" d="M236.075 26.587l30.03 7.488M264.225 40.665l-29.764-7.421M262.122 47.943l-28.995-7.229M260.698 53.656l-29.177-7.274M258.479 61.401l-28.68-7.151M228.413 60.964l28.273 7.05M251.411 87.257l-27.282-6.802M222.684 87.401l26.74 6.667M247.676 100.692l-26.513-6.61M220.182 99.163l26.11 6.509M244.482 112.157l-25.793-6.431"/><path fill="#445684" d="M236.793 72.22l6.662 1.661 5.393-19.341s-1.719-4.763-2.84-5.042c-1.119-.279-4.973 3.095-4.973 3.095l-4.242 19.627z"/><g fill="#445684"><path d="M237.258 35.31l6.662 1.661 1.959-7.851s-1.416-3.689-2.537-3.969c-1.121-.279-4.166 2.37-4.166 2.37l-1.918 7.789zM253.657 39.398l6.661 1.661 1.957-7.851s-1.414-3.689-2.534-3.968c-1.121-.28-4.166 2.369-4.166 2.369l-1.918 7.789z"/></g><path fill="#445684" d="M223.104 114.859l12.488 3.114 7.182-24.512s-3.221-8.929-5.321-9.454c-2.103-.524-9.324 5.802-9.324 5.802l-5.025 25.05z"/><g fill="none"><path d="M250.732 30.44l1.778-7.129M247.314 44.149l1.832-7.348M233.635 73.698l-1.92 8.731M240.488 42.563l-1.215 5.52M253.418 51.845l1.52-5.562M244.163 85.766l2.323-8.516"/></g></g><g><path fill="#B49F5C" d="M258.398 126.164l42.386-85.786 27.697 14.727-47.01 83.271z"/><path fill="#B49F5C" d="M301.938 25.589l7.555 4.017-3.289 6.221 8.041 4.276 3.324-6.203 8.021 4.266-3.302 6.212 7.062 3.756 3.283-6.224 7.073 3.761-3.295 6.198-8.01 3.223-27.497-14.62-2.261-8.685z"/><path fill="none" d="M297.676 46.932l27.328 14.53M321.584 67.401l-27.082-14.4M317.784 73.955l-26.386-14.029M315.02 79.154l-26.551-14.117M310.993 86.131l-26.097-13.876M281.926 78.434l25.729 13.68M297.879 109.51l-24.826-13.2M269.971 102.7l24.334 12.938M291.006 121.642l-24.127-12.828M264.698 113.507l23.76 12.633M285.133 131.994l-23.47-12.48"/><path fill="#445684" d="M287.334 91.384l6.063 3.223 9.912-17.461s-.516-5.038-1.535-5.58-5.573 1.8-5.573 1.8l-8.867 18.018z"/><g fill="#445684"><path d="M296.715 55.682l6.063 3.223 3.8-7.145s-.479-3.922-1.5-4.465c-1.021-.542-4.615 1.292-4.615 1.292l-3.748 7.095zM311.637 63.616l6.063 3.223 3.799-7.145s-.48-3.921-1.5-4.464c-1.021-.542-4.615 1.291-4.615 1.291l-3.747 7.095z"/></g><path fill="#445684" d="M263.736 129.444l11.363 6.042 12.898-22.047s-.965-9.443-2.877-10.46-10.451 3.374-10.451 3.374l-10.933 23.091z"/><g fill="none"><path d="M310.967 54.217l3.45-6.488M304.334 66.691l3.557-6.686M283.913 92.054l-3.975 8.007M298.094 63.501l-2.513 5.062M308.395 75.636l2.82-5.03M291.208 106.309l4.313-7.7"/></g></g><g><path fill="#B49F5C" d="M124.419 118.645L98.515 26.534l30.437-7.589 20.785 93.338z"/><path fill="#B49F5C" d="M89.478 14.771l8.301-2.07 1.719 6.823 8.837-2.203-1.681-6.833 8.816-2.198 1.702 6.828 7.762-1.935-1.725-6.823 7.773-1.938 1.699 6.811-3.797 7.755-30.216 7.533-7.492-4.939z"/><path fill="none" d="M100.591 33.482l30.033-7.487M132.056 32.697l-29.763 7.421M133.616 40.11l-28.995 7.23M135.041 45.824l-29.177 7.274M136.717 53.703l-28.678 7.151M109.966 67.433l28.274-7.05M142.615 79.851l-27.281 6.802M117.319 93.465l26.74-6.667M145.625 93.467l-26.513 6.61M120.632 105.024l26.109-6.51M148.188 105.089l-25.792 6.431"/><path fill="#445684" d="M122.65 73.436l6.662-1.661-4.318-19.608s-3.753-3.399-4.874-3.12c-1.121.279-2.938 5.067-2.938 5.067l5.468 19.322z"/><g fill="#445684"><path d="M105.732 40.628l6.662-1.661-1.958-7.852s-2.981-2.593-4.103-2.313c-1.121.28-2.565 4.047-2.565 4.047l1.964 7.779zM122.131 36.539l6.661-1.661-1.958-7.852s-2.981-2.592-4.103-2.313c-1.121.279-2.564 4.047-2.564 4.047l1.964 7.779z"/></g><path fill="#445684" d="M130.58 117.512l12.489-3.114-5.167-25.015s-7.036-6.373-9.137-5.849c-2.102.524-5.509 9.5-5.509 9.5l7.324 24.478z"/><g fill="none"><path d="M115.344 30.002l-1.778-7.128M118.762 43.711l-1.832-7.348M120.556 76.224l2.402 8.611M111.99 45.517l1.518 5.443M127.764 47.642l-1.27-5.625M135.515 81.938l-1.946-8.611"/></g></g><g><path fill="#B49F5C" d="M82.332 140.228L34.913 57.12l27.698-14.727 42.747 85.537z"/><path fill="#B49F5C" d="M23.299 47.892l7.554-4.017 3.318 6.206 8.042-4.276-3.284-6.223 8.022-4.266 3.304 6.213 7.062-3.755-3.323-6.203 7.073-3.76 3.296 6.197-1.808 8.443L35.06 57.07l-8.466-2.98z"/><path fill="none" d="M38.609 63.359l27.329-14.53M68.949 54.985L41.866 69.386M72.257 61.801l-26.385 14.03M75.021 67l-26.55 14.117M78.554 74.24L52.457 88.116M55.918 94.033l25.729-13.68M90.602 98.185l-24.825 13.199M69.351 117.514l24.333-12.939M96.817 110.667L72.69 123.496M75.362 127.928l23.759-12.633M102.115 121.324l-23.47 12.48"/><path fill="#445684" d="M69.679 96.79l6.062-3.223-8.934-17.981s-4.464-2.39-5.484-1.848c-1.02.542-1.625 5.628-1.625 5.628l9.981 17.424z"/><g fill="#445684"><path d="M45.326 69.049l6.063-3.223-3.799-7.145s-3.52-1.794-4.541-1.251c-1.021.542-1.51 4.547-1.51 4.547l3.787 7.072zM60.249 61.114l6.062-3.223-3.799-7.145s-3.52-1.794-4.541-1.252c-1.02.542-1.509 4.547-1.509 4.547l3.787 7.073z"/></g><path fill="#445684" d="M88.036 137.638l11.365-6.042-11.065-23.021s-8.368-4.481-10.281-3.464c-1.913 1.017-3.047 10.551-3.047 10.551l13.028 21.976z"/><g fill="none"><path d="M52.082 56.414l-3.45-6.487M58.714 68.889l-3.555-6.687M68.321 100.002l4.414 7.774M52.581 72.279l2.79 4.914M68.4 70.524l-2.593-5.149M84.218 101.926l-3.971-7.884"/></g></g></g><g fill="#B49F5C" stroke="#000"><path d="M303.534 106.795s-.14-.11-.482-.363a74.075 74.075 0 0 0-1.567-1.119c-1.4-.975-3.506-2.382-6.279-4.078-5.547-3.393-13.764-7.939-24.361-12.489-21.197-9.104-51.893-18.218-89.827-18.216-71.102-.013-114.468 32.062-119.327 35.845-.324.252-.451.357-.451.357a3.5 3.5 0 1 1-4.446-5.406c.357-.288 46.058-37.781 124.223-37.798 78.157.023 126.466 37.48 126.812 37.735a3.505 3.505 0 0 1 .619 4.914 3.495 3.495 0 0 1-2.768 1.354 3.49 3.49 0 0 1-2.146-.736zM281.5 143.929s-.113-.09-.395-.297a59.07 59.07 0 0 0-1.283-.916 103.552 103.552 0 0 0-5.139-3.336c-4.537-2.776-11.263-6.496-19.933-10.218-17.344-7.449-42.457-14.906-73.495-14.904-58.174-.01-93.656 26.232-97.631 29.328-.265.207-.369.292-.369.292a2.863 2.863 0 1 1-3.637-4.423c.292-.236 37.684-30.912 101.638-30.926 63.946.019 103.472 30.666 103.757 30.874a2.866 2.866 0 0 1 .504 4.021 2.852 2.852 0 0 1-2.262 1.106 2.856 2.856 0 0 1-1.755-.601z"/></g><g><g stroke="#000"><path fill="#B49F5C" d="M69.818 372.166l9.46-10.553s4.973-3.518 13.342 4.852c8.369 8.371 5.458 12.492 5.458 12.492l-9.946 11.039-8.611 1.818-13.099-12.372 3.396-7.276z"/><path fill="none" d="M76.476 373.905s2.05-.485 2.924-2.71c1.334-3.396-3.517-6.429-.121-9.582M82.713 382.783s1.097-1.873 4.935-2.734c2.535-.567 5.215 4.125 10.431-1.092"/><path fill="#B49F5C" d="M293.13 372.644l-9.528-10.553s-5.009-3.518-13.438 4.853c-8.431 8.37-5.498 12.492-5.498 12.492l10.019 11.038 8.674 1.818 13.193-12.371-3.422-7.277z"/><path fill="none" d="M286.425 374.384s-2.065-.486-2.944-2.711c-1.345-3.396 3.543-6.428.121-9.582M280.143 383.261s-1.105-1.872-4.972-2.733c-2.553-.567-5.252 4.124-10.506-1.092"/><path fill="#B49F5C" d="M82.713 382.783s33.345 41.02 99.555 41.02c66.209 0 97.875-40.54 97.875-40.54l17.99 23.271s-44.857 43.658-115.387 43.658c-70.527 0-117.785-44.619-117.785-44.619l17.752-22.79z"/><g fill="#B49F5C"><path d="M8.695 156.03s25.914 5.265 41 28.333c14.083 21.534 17.886 60.989 5.333 60.667l-5.333-2.668-15-11.667s7.667-38.667-33.333-50.667l16-8c0 .002-4-11.331-8.667-15.998z"/><path d="M53.029 235.697s2.218.563 3.434 2.557c1.411 2.313-.129 6.25-1.434 6.777l-5.333-2.666 3.333-6.668z"/></g><g fill="#B49F5C"><path d="M354.319 156.51s-25.882 5.265-40.947 28.333c-14.063 21.534-17.863 60.989-5.326 60.667l5.326-2.666 14.979-11.668s-7.655-38.667 33.291-50.667l-15.979-8c0 .001 3.996-11.333 8.656-15.999z"/><path d="M310.042 236.175s-2.215.563-3.431 2.557c-1.408 2.314.131 6.251 1.434 6.777l5.326-2.666-3.329-6.668z"/></g><path fill="#B49F5C" d="M76.476 373.905l-20.391 19.431s-27.39-18.639-37.39-75.971c-10-57.334 9.333-92 9.333-92l25 10.333s-15.333 38.668-7.667 77.334c7.666 38.667 31.115 60.873 31.115 60.873zM286.425 374.384l20.539 19.431s27.588-18.64 37.66-75.972c10.072-57.334-9.4-92-9.4-92l-25.182 10.333s15.444 38.668 7.723 77.334c-7.723 38.667-31.34 60.874-31.34 60.874z"/></g><path d="M31.944 241.182l-.328.217c-.644-.685-1.052-1.403-1.224-2.157a3.953 3.953 0 0 1 .101-2.189c.402-1.186 1.17-1.981 2.305-2.389 1.135-.406 2.33-.396 3.585.027 1.211.412 2.166 1.096 2.866 2.055.845 1.155 1.036 2.418.572 3.787-.312.92-.792 1.572-1.438 1.957s-1.255.48-1.826.287c-.361-.123-.613-.33-.754-.621-.142-.291-.152-.615-.032-.971.127-.374.356-.641.686-.801.33-.161.822-.161 1.475-.006.412.099.722.102.93.011a.718.718 0 0 0 .412-.435c.103-.305.029-.619-.222-.943-.375-.494-1.068-.914-2.076-1.256a7.703 7.703 0 0 0-2.536-.416c-.854.009-1.547.182-2.078.517a2.051 2.051 0 0 0-.828 1.099 1.983 1.983 0 0 0-.081.959c.051.328.214.752.491 1.268zM37.067 249.75a4.333 4.333 0 0 1-1.192 2.043 4.029 4.029 0 0 1-2.146 1.092c-.844.156-1.713.115-2.606-.119-1.288-.34-2.28-.95-2.976-1.833-.84-1.065-1.077-2.295-.711-3.687.36-1.367 1.116-2.291 2.269-2.777 1.152-.485 2.36-.563 3.622-.229 1.302.344 2.337 1.018 3.105 2.025.77 1.01.981 2.172.635 3.485zm-.7-.141a1.168 1.168 0 0 0-.149-.947c-.187-.304-.638-.588-1.353-.855-.716-.268-1.727-.574-3.035-.918a13.065 13.065 0 0 0-1.978-.375c-.479-.051-.868.01-1.169.18-.301.17-.491.403-.569.701-.077.291-.06.555.051.792.154.31.417.562.79.748.582.292 1.807.683 3.677 1.176 1.101.29 1.873.429 2.316.413.444-.016.791-.117 1.042-.307.18-.135.306-.337.377-.608zM34.532 259.669l-1.196-.217c.428.568.72 1.09.875 1.566.155.477.188.965.098 1.466-.108.599-.364 1.067-.768 1.403a2.44 2.44 0 0 1-1.383.566c-.394.037-1.125-.041-2.192-.231l-3.597-.649c-.711-.129-1.166-.145-1.363-.047-.198.098-.357.346-.477.745l-.355-.063.843-4.674.355.063c-.017.357.083.635.299.83.146.135.545.262 1.197.379l4.111.74c.757.139 1.24.195 1.449.172a.91.91 0 0 0 .514-.219.77.77 0 0 0 .247-.441c.103-.566-.208-1.166-.93-1.801l-4.951-.893c-.692-.125-1.142-.141-1.349-.045s-.366.314-.476.655l-.355-.065.843-4.673.355.063c-.03.396.045.695.226.898.125.139.543.271 1.255.399l5.217.94c.699.125 1.145.139 1.339.041.194-.097.354-.346.481-.744l.366.066-.678 3.77zM32.84 273.684l-3.201-.188.036-.34c.988-.307 1.679-.658 2.071-1.059.393-.398.612-.814.658-1.248a.988.988 0 0 0-.201-.729.845.845 0 0 0-.603-.356.817.817 0 0 0-.541.146c-.295.184-.826.729-1.593 1.639-.767.908-1.397 1.492-1.893 1.752a2.742 2.742 0 0 1-1.602.301 3.307 3.307 0 0 1-1.486-.553 2.759 2.759 0 0 1-1.032-1.219 3.16 3.16 0 0 1-.233-1.611c.047-.446.25-1.027.61-1.743.094-.19.145-.324.153-.397.022-.22-.124-.42-.441-.603l.035-.329 3.372.195-.036.341c-.91.206-1.613.547-2.108 1.022-.495.476-.768.946-.817 1.412-.034.32.037.594.211.815a.95.95 0 0 0 .682.381c.319.033.606-.036.86-.212s.654-.583 1.201-1.227c.813-.943 1.423-1.545 1.828-1.805.593-.382 1.218-.537 1.877-.467.719.075 1.343.393 1.873.95s.745 1.307.646 2.245a3.153 3.153 0 0 1-.526 1.429c-.118.169-.185.31-.195.424-.013.12.001.22.043.298s.171.211.388.395l-.036.341zM35.614 280.33l-3.43-.166-.108 2.228-.993-.05.108-2.227-5.787-.279c-.542-.026-.892-.019-1.052.023s-.291.125-.394.247c-.104.122-.158.237-.163.345-.021.436.29.862.933 1.281l-.235.291c-1.258-.604-1.857-1.516-1.798-2.73.029-.596.219-1.09.569-1.485.351-.396.733-.642 1.146-.733.23-.056.848-.059 1.851-.012l5.064.246.059-1.225.352.019c.554.87 1.145 1.618 1.771 2.241s1.333 1.176 2.122 1.656l-.015.33zM24.092 289.25c-1.03-1.127-1.552-2.146-1.566-3.058-.008-.534.16-.983.505-1.343.346-.361.783-.546 1.312-.555.716-.012 1.365.287 1.947.894.583.606 1.365 1.937 2.349 3.989l.944-.016c.709-.012 1.156-.059 1.339-.138.182-.08.341-.229.474-.444.134-.217.199-.459.195-.727-.007-.436-.11-.791-.309-1.068-.123-.174-.265-.257-.426-.254-.141.002-.313.098-.518.289-.284.26-.56.391-.827.395a1.107 1.107 0 0 1-.845-.354c-.235-.24-.355-.559-.361-.953-.007-.422.114-.777.364-1.064.25-.289.546-.436.887-.441.482-.008.945.176 1.39.551.445.375.79.901 1.035 1.58.245.678.374 1.385.386 2.123.014.891-.165 1.598-.534 2.122s-.774.868-1.213 1.029c-.279.099-.925.153-1.936.172l-3.644.06c-.429.006-.698.026-.808.063s-.191.087-.244.154a.36.36 0 0 0-.077.231c.003.175.129.351.38.525l-.236.307c-.5-.327-.866-.668-1.096-1.022a2.247 2.247 0 0 1-.356-1.213c-.008-.537.11-.957.357-1.263.247-.304.625-.493 1.132-.571zm.733-.01l3.143-.05c-.489-.803-1.007-1.397-1.556-1.782-.365-.257-.732-.381-1.1-.375-.309.004-.578.12-.808.346-.178.17-.265.404-.26.705.006.333.199.72.581 1.156zM32.603 298.598l-1.209.112c.565.432.987.855 1.265 1.273.278.417.441.879.489 1.387.058.605-.063 1.125-.362 1.558a2.434 2.434 0 0 1-1.179.918c-.37.144-1.095.265-2.174.366l-3.639.345c-.72.067-1.162.176-1.327.321-.165.146-.25.43-.257.848l-.36.033-.447-4.729.36-.033c.08.35.25.588.511.719.177.092.595.104 1.255.043l4.159-.395c.766-.072 1.247-.148 1.44-.229a.882.882 0 0 0 .436-.348.767.767 0 0 0 .121-.492c-.054-.571-.515-1.066-1.381-1.481l-5.008.476c-.699.063-1.137.172-1.312.318-.174.148-.268.4-.281.76l-.36.032-.448-4.728.361-.034c.077.389.229.657.458.803.158.101.596.115 1.316.048l5.278-.498c.706-.066 1.14-.175 1.301-.32.161-.146.249-.428.263-.848l.37-.035.361 3.81zM27.886 315.457l-.187.348c-.892-.299-1.592-.739-2.101-1.322a3.944 3.944 0 0 1-.948-1.975c-.208-1.233.092-2.299.899-3.193.807-.896 1.863-1.455 3.17-1.675 1.261-.211 2.427-.062 3.497.452 1.292.617 2.058 1.64 2.298 3.064.161.957.048 1.76-.34 2.403-.387.646-.877 1.019-1.472 1.118-.376.064-.696 0-.959-.19-.262-.188-.425-.47-.487-.84-.065-.39.01-.731.224-1.028.214-.3.646-.531 1.297-.703.409-.108.683-.254.823-.435a.712.712 0 0 0 .158-.575c-.053-.318-.267-.56-.642-.728-.566-.259-1.374-.3-2.424-.121a7.613 7.613 0 0 0-2.43.836c-.75.41-1.278.89-1.587 1.437a2.058 2.058 0 0 0-.209 1.359 2 2 0 0 0 .382.883c.203.263.548.558 1.038.885zM36.032 320.089l-7.263 1.619c-.646.145-1.043.312-1.189.502-.146.189-.184.506-.112.949l-.353.08-1.103-4.949.353-.08c.103.402.288.678.554.824.18.098.593.072 1.239-.07l5.352-1.192c.647-.144 1.043-.312 1.189-.502s.184-.504.115-.94l.362-.08.856 3.839zm4.135-2.36a1.5 1.5 0 0 1-.206 1.179 1.516 1.516 0 0 1-.975.68 1.486 1.486 0 0 1-1.168-.207 1.508 1.508 0 0 1-.68-.977 1.487 1.487 0 0 1 .203-1.166c.229-.359.552-.586.971-.68a1.51 1.51 0 0 1 1.171.201c.363.231.591.553.684.97zM30.333 329.978c-1.283-.83-2.047-1.684-2.293-2.561-.145-.516-.096-.99.146-1.428.243-.438.618-.727 1.128-.869.689-.192 1.393-.07 2.111.367.717.438 1.813 1.525 3.287 3.26l.909-.254c.684-.191 1.104-.351 1.259-.475.157-.123.272-.307.346-.551a1.3 1.3 0 0 0 .003-.752c-.117-.418-.308-.736-.57-.957-.163-.135-.322-.18-.477-.137-.136.039-.278.176-.427.412-.209.322-.441.521-.7.592-.315.09-.617.047-.905-.125-.289-.174-.486-.451-.593-.83-.114-.405-.087-.779.081-1.123s.417-.562.746-.652c.464-.129.958-.07 1.484.18.524.247.993.67 1.403 1.264.41.595.714 1.246.914 1.955.24.856.248 1.586.024 2.188s-.527 1.036-.912 1.305c-.246.166-.854.387-1.828.658l-3.509.984c-.413.115-.667.205-.765.267a.488.488 0 0 0-.196.212.351.351 0 0 0-.015.243c.047.169.214.306.502.413l-.151.355c-.567-.189-1.007-.426-1.32-.709a2.246 2.246 0 0 1-.653-1.084c-.145-.517-.137-.953.023-1.312.16-.356.476-.635.948-.836zm.705-.198l3.027-.85c-.677-.651-1.33-1.095-1.958-1.328-.418-.153-.805-.181-1.16-.081a1.153 1.153 0 0 0-.693.538c-.129.21-.153.461-.071.75.09.323.375.648.855.971zM36.077 346.837c-1.359-.694-2.205-1.469-2.538-2.315-.196-.498-.194-.978.003-1.437.197-.457.542-.782 1.035-.978.667-.262 1.378-.21 2.136.153.758.365 1.958 1.337 3.598 2.914l.878-.346c.66-.259 1.063-.457 1.206-.597.144-.14.24-.334.289-.583a1.314 1.314 0 0 0-.073-.748c-.159-.404-.38-.701-.663-.895-.176-.117-.339-.146-.488-.09-.131.054-.258.203-.383.455-.175.34-.387.562-.636.658a1.12 1.12 0 0 1-.915-.035c-.305-.142-.529-.397-.673-.767-.154-.394-.165-.769-.032-1.125.133-.358.358-.599.676-.724.449-.178.946-.168 1.494.027.547.194 1.055.567 1.523 1.118.467.55.835 1.167 1.104 1.853.325.83.407 1.555.244 2.176-.162.621-.421 1.084-.777 1.389-.228.189-.812.471-1.752.84l-3.393 1.332c-.399.154-.644.271-.734.342a.471.471 0 0 0-.174.229.357.357 0 0 0 .01.245c.063.161.243.28.54.358l-.114.369c-.584-.132-1.045-.322-1.385-.574a2.26 2.26 0 0 1-.759-1.012c-.196-.5-.231-.934-.108-1.307.126-.365.412-.677.861-.925zm.683-.266l2.926-1.147c-.738-.58-1.432-.957-2.082-1.125-.432-.11-.819-.1-1.162.035a1.142 1.142 0 0 0-.636.605c-.107.221-.105.473.005.753.122.311.439.604.949.879zM47.247 352.694l-1.109.542c.731.217 1.294.475 1.688.77s.706.678.935 1.146c.264.541.359 1.057.285 1.547-.073.49-.32.963-.741 1.413.776.218 1.393.487 1.849.812.456.326.802.729 1.037 1.209.285.586.378 1.115.278 1.592a2.316 2.316 0 0 1-.667 1.22c-.346.337-.97.726-1.873 1.166l-3.456 1.687c-.65.316-1.025.572-1.123.767-.1.192-.082.487.052.886l-.325.158-2.128-4.359.326-.158c.197.328.453.518.767.564.215.029.615-.099 1.198-.383l3.628-1.771c.752-.367 1.215-.631 1.391-.791.175-.16.281-.33.317-.506a.806.806 0 0 0-.073-.529c-.126-.26-.349-.475-.668-.646-.318-.172-.733-.3-1.245-.387l-4.529 2.211c-.608.297-.965.533-1.072.714-.155.246-.149.571.018.976l-.325.157-2.131-4.366.325-.158c.126.229.275.384.447.468a.857.857 0 0 0 .511.087c.169-.027.501-.162.994-.402l3.628-1.771c.764-.372 1.228-.636 1.391-.79a.976.976 0 0 0 .303-.523.81.81 0 0 0-.06-.533 1.317 1.317 0 0 0-.511-.566c-.325-.191-.791-.338-1.397-.436l-4.53 2.211c-.596.289-.96.539-1.091.75-.133.211-.125.51.021.9l-.325.158-2.123-4.35.325-.158c.209.336.447.533.712.591.183.036.599-.103 1.249-.419l4.765-2.326c.637-.311 1.006-.563 1.105-.758.1-.192.082-.488-.052-.885l.334-.164 1.675 3.433zM55.969 368.645c.416.704.621 1.466.615 2.285s-.25 1.583-.733 2.293c-.482.709-1.122 1.299-1.917 1.771-1.147.676-2.279.952-3.395.827-1.349-.153-2.39-.849-3.122-2.088-.719-1.216-.845-2.403-.38-3.563.464-1.162 1.26-2.074 2.383-2.738 1.159-.684 2.367-.946 3.625-.782 1.258.16 2.233.825 2.924 1.995zm-.593.397a1.174 1.174 0 0 0-.78-.561c-.346-.08-.866.042-1.559.361-.694.32-1.622.824-2.787 1.512-.617.365-1.169.746-1.657 1.145-.373.306-.604.623-.694.957-.091.334-.058.633.099.896.153.261.353.436.599.521.328.108.691.098 1.087-.035.616-.209 1.756-.805 3.422-1.789.98-.578 1.62-1.031 1.922-1.356.301-.325.472-.646.514-.957.032-.22-.022-.451-.166-.694zM61.3 377.591l-1.762 1.195c1.153-.029 1.993.061 2.519.269.526.21.913.495 1.156.854.211.31.284.623.219.938-.065.313-.272.59-.621.827-.371.252-.72.357-1.047.316-.327-.041-.578-.188-.75-.443a1.36 1.36 0 0 1-.237-.957c.042-.344.061-.543.057-.596a.432.432 0 0 0-.081-.226.838.838 0 0 0-.493-.332c-.342-.101-.728-.09-1.156.031a6.893 6.893 0 0 0-1.958.94l-1.787 1.213-.459.328c-.315.213-.505.369-.567.469a.797.797 0 0 0-.127.518c.019.178.125.428.319.749l-.299.203-2.848-4.196.299-.203c.257.319.504.485.743.497.239.013.696-.212 1.372-.67l4.295-2.916c.443-.301.71-.515.802-.644a.807.807 0 0 0 .177-.471c0-.154-.076-.375-.229-.66l.307-.207 2.156 3.174z"/><g><path d="M75.931 405.998l1.805-7.371c.275-1.113.399-1.83.372-2.153s-.135-.615-.323-.877l.226-.296 3.968 3.025-.225.295c-.269-.189-.491-.277-.667-.27a.524.524 0 0 0-.409.205c-.154.203-.326.703-.514 1.502l-.949 3.896 2.592-1.596c.926-.564 1.509-1.006 1.749-1.318a.759.759 0 0 0 .163-.621c-.041-.215-.223-.455-.544-.717l.225-.295 2.499 1.902-.225.297a1.177 1.177 0 0 0-.815-.174c-.278.045-.957.4-2.037 1.066l-6.349 3.908c-1.592.975-2.641 1.521-3.145 1.643-.708.168-1.339.041-1.893-.381-.442-.338-.704-.736-.785-1.197a1.509 1.509 0 0 1 .286-1.229c.235-.311.524-.492.868-.551.343-.059.653.018.93.229.266.203.416.451.448.746.032.295-.084.621-.351.982-.149.205-.224.354-.226.445a.274.274 0 0 0 .117.229c.128.098.322.123.583.078.383-.063 1.023-.383 1.919-.961l.707-.441zM94.806 408.339l-3.483 5.506c-.336.531-.491.9-.464 1.107.049.324.321.631.819.922l-.193.305-4.674-2.957.193-.305c.36.219.639.338.837.357a.745.745 0 0 0 .511-.123c.143-.102.35-.365.622-.795l3.484-5.506-1.154-.729.526-.832 1.154.729.371-.586.244-.402c.515-.814 1.243-1.305 2.183-1.471.94-.166 1.919.074 2.938.719.696.439 1.129.896 1.301 1.369.172.475.158.867-.042 1.186-.161.254-.405.408-.733.463-.327.055-.664-.027-1.008-.246-.294-.186-.479-.41-.555-.672-.076-.262-.055-.486.063-.672.032-.051.115-.146.25-.281.083-.082.152-.166.206-.25.075-.119.097-.229.064-.328a.547.547 0 0 0-.25-.336.604.604 0 0 0-.541-.057c-.196.064-.389.248-.579.547l-.922 1.496-.639 1.01 1.17.74-.526.832-1.173-.74zM101.382 411.119l-3.742 6.43c-.333.572-.479.977-.439 1.213s.248.479.622.729l-.182.313-4.382-2.551.182-.313c.365.197.692.248.98.152.193-.064.456-.385.79-.957l2.757-4.736c.333-.574.479-.979.439-1.215-.04-.236-.245-.479-.613-.723l.187-.322 3.401 1.98zm1.073-4.639c.376.219.618.535.725.949.107.416.053.809-.163 1.18-.216.369-.53.607-.945.715-.415.107-.807.053-1.177-.162s-.609-.529-.718-.941a1.484 1.484 0 0 1 .16-1.172c.216-.371.53-.611.943-.723a1.473 1.473 0 0 1 1.175.154zM113.626 412.876l-4.978 9.588c-.336.646-.517 1.039-.543 1.178-.054.221-.04.412.045.576.084.166.287.346.607.541l-.153.295-3.875-1.141.685-1.318c-.687.291-1.243.443-1.668.457a2.541 2.541 0 0 1-1.262-.305c-1.063-.553-1.657-1.465-1.781-2.734-.098-1.031.145-2.107.727-3.23.466-.896 1.037-1.619 1.715-2.17.677-.549 1.379-.865 2.104-.949a3.444 3.444 0 0 1 2.015.355c.398.207.711.469.94.783s.418.756.568 1.324l1.304-2.514c.33-.637.502-1.031.517-1.189a.86.86 0 0 0-.122-.551c-.1-.156-.345-.338-.737-.541l.194-.375 3.698 1.92zm-5.427 4.356c-.002-1.072-.32-1.773-.956-2.104a.924.924 0 0 0-.636-.104c-.315.068-.664.299-1.043.689-.38.393-.818 1.064-1.315 2.021-.546 1.051-.873 1.869-.98 2.455s-.086 1.061.064 1.424c.078.184.235.338.473.461.522.271 1.229.117 2.117-.461l2.276-4.381zM119.524 425.001l-4.699-2.109c-.455 1.162-.555 2.195-.301 3.102.194.695.587 1.176 1.18 1.441.366.164.745.213 1.136.143.391-.07.876-.295 1.457-.674l.221.342c-.889.738-1.703 1.178-2.441 1.32-.739.143-1.477.047-2.216-.285-1.271-.568-2.013-1.488-2.228-2.76-.172-1.023.004-2.117.527-3.283.641-1.43 1.537-2.395 2.689-2.895 1.152-.498 2.247-.516 3.285-.049.867.389 1.46 1.082 1.779 2.08s.19 2.208-.389 3.627zm-1.978-1.625c.441-.982.69-1.682.748-2.096s.016-.768-.125-1.059c-.079-.168-.226-.299-.439-.395-.318-.145-.647-.105-.988.117-.604.381-1.119 1.045-1.543 1.992l-.144.32 2.491 1.121zM127.892 419.085l-4.299 10.844c-.244.615-.329 1.037-.253 1.266.075.229.316.438.724.627l-.133.336-4.713-1.867.133-.336c.391.141.721.141.992.004.181-.094.394-.449.638-1.064l3.582-9.033c.242-.609.325-1.027.25-1.258-.075-.227-.313-.436-.714-.621l.137-.346 3.656 1.448zM132.335 425.21l-2.488 7.01c-.222.625-.291 1.051-.207 1.275.084.223.332.424.746.6l-.121.34-4.778-1.693.121-.34c.396.125.726.113.991-.033.178-.102.377-.463.599-1.086l1.833-5.166c.221-.625.291-1.049.207-1.273-.083-.227-.329-.424-.736-.598l.124-.352 3.709 1.316zm.197-4.755c.41.146.706.412.888.801s.202.783.058 1.188a1.494 1.494 0 0 1-.796.879 1.512 1.512 0 0 1-1.187.059 1.489 1.489 0 0 1-.88-.793c-.184-.383-.203-.777-.06-1.182s.408-.699.793-.885c.385-.189.78-.21 1.184-.067zM144.571 424.593l-3.07 10.357c-.208.699-.311 1.119-.311 1.258-.012.229.04.414.154.559.114.146.347.285.698.418l-.094.316-4.021-.385.422-1.426c-.619.418-1.136.672-1.551.766s-.848.074-1.296-.061c-1.149-.34-1.904-1.123-2.267-2.348-.292-.994-.258-2.098.102-3.311.287-.969.711-1.787 1.272-2.455s1.19-1.111 1.887-1.33a3.437 3.437 0 0 1 2.046-.033c.43.129.787.324 1.071.59.284.268.554.664.809 1.193l.805-2.715c.203-.688.297-1.107.281-1.268a.855.855 0 0 0-.224-.516c-.127-.137-.403-.268-.826-.393l.12-.404 3.993 1.188zm-4.504 5.305c-.205-1.053-.65-1.68-1.337-1.885-.238-.068-.452-.063-.645.02-.296.129-.594.422-.893.877-.299.455-.602 1.201-.908 2.232-.337 1.137-.503 2.002-.498 2.598.005.594.116 1.057.333 1.387.111.164.295.285.552.361.565.168 1.229-.117 1.992-.854l1.404-4.736zM149.078 438.226c-1.338.736-2.451 1.006-3.339.807-.522-.117-.918-.387-1.188-.807-.27-.422-.346-.889-.23-1.404.157-.699.598-1.262 1.324-1.684.726-.424 2.202-.873 4.428-1.35l.207-.92c.155-.691.215-1.137.181-1.334-.035-.195-.142-.385-.321-.564a1.298 1.298 0 0 0-.66-.359c-.425-.096-.795-.078-1.112.051-.196.078-.312.197-.347.354-.031.137.022.326.16.57.185.336.249.635.19.896-.072.318-.252.564-.541.736s-.626.215-1.011.129c-.411-.092-.728-.295-.95-.604-.222-.313-.296-.633-.221-.967.105-.471.392-.877.86-1.223.468-.344 1.061-.555 1.778-.635a6.523 6.523 0 0 1 2.154.123c.868.195 1.514.533 1.938 1.016.423.482.662.955.715 1.42.03.297-.066.938-.287 1.924l-.797 3.555c-.094.418-.136.686-.128.801.009.113.04.205.093.271a.37.37 0 0 0 .208.129c.17.039.37-.043.601-.246l.241.301c-.435.41-.852.688-1.25.826a2.25 2.25 0 0 1-1.264.063c-.522-.117-.903-.332-1.142-.643-.24-.308-.336-.718-.29-1.232zm.16-.715l.688-3.064c-.894.287-1.593.65-2.097 1.094-.333.295-.541.623-.621.98-.067.303-.019.59.145.867.124.213.333.352.626.418.326.072.746-.023 1.259-.295zM165.58 428.718l-1.617 10.682c-.109.721-.154 1.15-.134 1.287.02.229.096.404.229.533s.382.234.749.316l-.049.328-4.037.17.222-1.469c-.556.496-1.033.82-1.431.971-.398.15-.829.189-1.292.119-1.185-.18-2.041-.852-2.568-2.014-.426-.943-.544-2.043-.354-3.293.151-1 .458-1.867.922-2.605s1.026-1.266 1.686-1.578c.66-.313 1.334-.418 2.022-.313.443.066.824.213 1.142.438.318.225.64.58.965 1.07l.423-2.801c.107-.707.142-1.139.104-1.293a.857.857 0 0 0-.292-.48c-.145-.117-.436-.209-.873-.275l.063-.416 4.12.623zm-3.732 5.871c-.348-1.014-.875-1.574-1.583-1.68a.933.933 0 0 0-.636.105c-.276.168-.531.498-.764.99-.234.492-.431 1.271-.593 2.338-.177 1.17-.222 2.051-.135 2.641.087.588.26 1.029.52 1.326.133.148.332.242.597.283.582.088 1.201-.285 1.855-1.121l.739-4.882zM180.914 438.369l-5.146-.215c.008 1.246.298 2.24.87 2.988.438.574.981.875 1.63.902.401.018.77-.08 1.107-.291.337-.209.705-.598 1.104-1.164l.332.234c-.551 1.016-1.144 1.727-1.777 2.133-.633.404-1.354.59-2.164.557-1.391-.059-2.422-.637-3.092-1.736-.539-.887-.782-1.969-.729-3.246.065-1.564.54-2.791 1.425-3.684.885-.891 1.895-1.313 3.032-1.266.949.041 1.757.465 2.423 1.271.667.812.995 1.981.985 3.517zm-2.44-.778c.045-1.076.017-1.816-.083-2.223s-.27-.719-.508-.938c-.136-.127-.32-.193-.554-.203-.348-.016-.639.145-.874.477-.419.578-.651 1.385-.694 2.422l-.015.352 2.728.113zM188.473 433.632l.211 3.199-.341.006c-.427-.941-.862-1.582-1.307-1.922-.445-.34-.886-.506-1.319-.498a.986.986 0 0 0-.697.289.856.856 0 0 0-.278.645.82.82 0 0 0 .211.518c.219.271.825.729 1.821 1.377.998.646 1.656 1.201 1.976 1.66s.485.977.496 1.551a3.285 3.285 0 0 1-.361 1.543 2.751 2.751 0 0 1-1.082 1.176c-.471.277-.993.42-1.567.432-.449.01-1.051-.119-1.805-.389-.203-.068-.341-.104-.414-.102-.222.004-.401.176-.543.512l-.33.006-.226-3.369.341-.006c.317.877.743 1.531 1.277 1.963.533.434 1.033.645 1.503.637.321-.008.582-.109.782-.313a.956.956 0 0 0 .291-.723c-.006-.322-.11-.6-.315-.828-.205-.23-.659-.576-1.364-1.039-1.037-.689-1.711-1.219-2.019-1.588-.453-.541-.687-1.143-.697-1.805-.014-.723.224-1.383.711-1.977.486-.596 1.202-.9 2.146-.92a3.14 3.14 0 0 1 1.481.344c.182.098.33.145.443.143a.51.51 0 0 0 .29-.08c.073-.053.187-.195.343-.434l.342-.008zM200.049 433.029l.18 1.221c.429-.629.844-1.088 1.244-1.373.401-.285.86-.465 1.377-.541.596-.086 1.116-.02 1.562.199.444.219.817.598 1.118 1.135.443-.674.89-1.178 1.338-1.514a3.188 3.188 0 0 1 1.467-.621c.643-.094 1.175-.021 1.6.219.424.238.743.574.959 1.006.215.434.396 1.146.539 2.139l.557 3.805c.104.715.234 1.148.389 1.303.155.154.439.229.857.221l.054.357-4.8.699-.051-.357c.373-.088.629-.273.771-.559.093-.195.093-.615-.001-1.258l-.583-3.994c-.121-.826-.231-1.35-.33-1.564s-.228-.367-.386-.455a.808.808 0 0 0-.526-.092c-.284.043-.558.189-.817.439-.26.252-.51.605-.748 1.066l.729 4.988c.099.668.216 1.08.353 1.236.188.223.5.314.935.279l.054.357-4.809.701-.053-.357c.257-.051.449-.145.582-.283a.84.84 0 0 0 .238-.461c.024-.168-.002-.523-.08-1.066l-.584-3.994c-.123-.842-.232-1.363-.33-1.564a.968.968 0 0 0-.404-.447.8.8 0 0 0-.528-.105 1.352 1.352 0 0 0-.694.314c-.281.25-.562.648-.84 1.197l.729 4.986c.096.654.223 1.078.383 1.268.159.189.446.275.864.256l.052.355-4.788.699-.052-.357c.385-.096.645-.264.778-.498.092-.162.084-.602-.021-1.316l-.767-5.244c-.103-.703-.229-1.131-.385-1.283-.154-.154-.439-.227-.857-.219l-.055-.369 3.78-.554zM221.631 428.816l1.747 7.139c.17.695.341 1.113.515 1.254.172.141.461.186.869.133l.086.352-3.716.908-.299-1.219c-.308.627-.649 1.113-1.028 1.457-.378.344-.836.58-1.375.713-.514.125-1.01.08-1.486-.137-.477-.219-.834-.521-1.074-.91s-.489-1.111-.747-2.164l-.886-3.617c-.168-.689-.336-1.104-.504-1.24-.168-.139-.461-.184-.877-.139l-.088-.359 3.715-.908 1.524 6.229c.159.65.293 1.064.4 1.236a.844.844 0 0 0 .397.357.789.789 0 0 0 .498.031c.234-.057.432-.17.59-.34.219-.232.446-.648.686-1.254l-1.193-4.875c-.168-.688-.337-1.102-.505-1.24s-.46-.184-.876-.137l-.088-.361 3.715-.909zM231.107 436.13l-5.02-5.691c-.756-.859-1.273-1.371-1.555-1.533a1.7 1.7 0 0 0-.904-.236l-.113-.354 4.748-1.531.114.354c-.308.113-.509.244-.601.395a.52.52 0 0 0-.065.455c.078.242.392.668.938 1.277l2.656 3.006.17-3.039c.066-1.084.039-1.814-.082-2.189a.766.766 0 0 0-.416-.488c-.201-.09-.502-.078-.899.037l-.114-.354 2.991-.963.112.354c-.281.125-.484.316-.606.57s-.218 1.014-.288 2.281l-.417 7.441c-.11 1.865-.259 3.037-.448 3.521-.267.676-.73 1.121-1.395 1.336-.527.17-1.006.154-1.432-.041-.426-.197-.707-.508-.844-.936-.119-.369-.105-.713.043-1.025.147-.316.387-.527.719-.635.318-.102.607-.082.867.059.26.143.463.426.605.85.085.24.164.389.236.441a.274.274 0 0 0 .255.033c.151-.051.284-.193.397-.436.168-.35.271-1.057.307-2.123l.041-.836zM242.896 421.267l.49 1.111c.229-.674.498-1.207.807-1.602.31-.396.695-.697 1.16-.902.559-.246 1.088-.295 1.592-.148.505.148.918.424 1.244.828.252.307.597.955 1.033 1.947l1.477 3.344c.292.66.533 1.047.724 1.156s.486.102.886-.023l.146.332-4.345 1.916-.146-.33c.306-.188.479-.424.521-.713.031-.195-.088-.598-.355-1.203l-1.686-3.82c-.312-.705-.534-1.137-.67-1.295a.895.895 0 0 0-.469-.305.768.768 0 0 0-.504.041c-.525.232-.851.824-.972 1.777l2.03 4.602c.283.645.522 1.023.719 1.145.193.119.464.127.808.027l.146.33-4.345 1.916-.146-.33c.345-.195.551-.426.617-.689.045-.18-.078-.602-.37-1.262l-2.14-4.852c-.287-.648-.524-1.025-.715-1.133-.189-.107-.484-.102-.887.02l-.148-.342 3.498-1.543zM253.826 415.753a4.337 4.337 0 0 1 2.313-.488 4.056 4.056 0 0 1 2.25.857c.682.521 1.233 1.191 1.659 2.012.613 1.184.826 2.326.64 3.436-.226 1.338-.977 2.338-2.254 3.002-1.254.648-2.447.711-3.58.184s-2-1.371-2.603-2.529c-.619-1.193-.813-2.416-.582-3.662s.951-2.187 2.157-2.812zm.363.616a1.168 1.168 0 0 0-.603.748c-.099.34-.007.865.274 1.576.281.709.734 1.664 1.355 2.863.33.637.68 1.207 1.051 1.719.283.387.59.637.918.744s.629.094.901-.051a1.15 1.15 0 0 0 .554-.568c.127-.322.135-.686.022-1.088-.175-.625-.706-1.797-1.597-3.514-.524-1.01-.94-1.674-1.25-1.992-.309-.318-.616-.508-.926-.564-.215-.045-.449-.002-.699.127zM260.375 407.632l2.648 4.439c.261-1.105.793-1.898 1.598-2.377a3.216 3.216 0 0 1 1.852-.445c.682.033 1.34.268 1.973.701.633.432 1.182 1.039 1.647 1.822.524.879.825 1.781.903 2.709s-.063 1.756-.426 2.48c-.361.727-.918 1.314-1.672 1.764-.438.262-.865.424-1.287.486-.422.064-.889.039-1.401-.076l-.815 1.668-.293.176-6.115-10.252c-.278-.465-.471-.738-.575-.824a.773.773 0 0 0-.484-.195c-.17-.004-.405.076-.704.238l-.19-.318 3.341-1.996zm3.107 5.207l2.14 3.588c.437.729.729 1.186.886 1.365.26.305.561.496.904.576s.686.018 1.023-.186c.293-.174.496-.406.605-.699.109-.291.088-.727-.064-1.305-.154-.578-.615-1.512-1.385-2.799-.736-1.236-1.396-1.992-1.982-2.266-.422-.201-.823-.188-1.203.039-.494.299-.802.859-.924 1.687zM270.368 401.359l6.42 9.74c.364.553.662.863.892.934.229.068.539-.008.93-.232l.197.301-4.231 2.791-.199-.303c.34-.238.53-.51.572-.811.026-.201-.142-.58-.507-1.133l-5.349-8.113c-.36-.547-.655-.855-.886-.924-.23-.07-.537.006-.921.227l-.204-.311 3.286-2.166zM283.962 402.308l-4.19 2.994c.773.979 1.615 1.584 2.525 1.822.698.184 1.313.088 1.84-.291a1.88 1.88 0 0 0 .695-.908c.136-.373.188-.906.154-1.598l.406-.02c.188 1.141.157 2.064-.093 2.773s-.704 1.299-1.362 1.77c-1.133.811-2.303.986-3.508.531-.97-.367-1.826-1.072-2.57-2.111-.909-1.273-1.289-2.533-1.141-3.779.15-1.248.688-2.201 1.613-2.863.773-.553 1.671-.715 2.693-.486 1.025.229 2.003.949 2.938 2.166zm-2.399.889c-.627-.877-1.104-1.443-1.434-1.703-.329-.258-.654-.4-.977-.426-.185-.016-.373.045-.563.18-.282.203-.415.508-.396.914.024.713.339 1.492.941 2.336l.204.287 2.225-1.588z"/></g><g><path d="M314.793 375.257l-7.392-1.721c-1.114-.263-1.833-.379-2.156-.348-.323.03-.614.143-.873.332l-.298-.223 2.979-4.002.298.223c-.185.271-.271.494-.26.669a.517.517 0 0 0 .21.407c.204.15.706.316 1.508.496l3.906.904-1.626-2.574c-.574-.92-1.021-1.498-1.337-1.732-.199-.148-.406-.199-.622-.156s-.453.229-.712.553l-.298-.221 1.876-2.521.298.222c-.157.269-.212.54-.164.817s.411.951 1.09 2.023l3.98 6.305c.992 1.582 1.552 2.623 1.679 3.127.175.705.055 1.338-.361 1.896-.331.445-.728.712-1.188.8a1.514 1.514 0 0 1-1.23-.271c-.312-.232-.498-.52-.561-.861a1.156 1.156 0 0 1 .219-.934c.199-.268.446-.42.74-.456.293-.035.622.077.986.34.207.146.355.222.447.222.092.002.166-.039.228-.119.096-.129.12-.324.071-.584-.065-.384-.394-1.02-.982-1.908l-.455-.705zM315.091 356.987l1.097.566c-.263-.716-.394-1.319-.392-1.812.002-.494.123-.972.362-1.436.275-.535.634-.92 1.069-1.153.438-.233.963-.315 1.575-.249-.29-.752-.439-1.408-.453-1.968a3.166 3.166 0 0 1 .352-1.554c.298-.577.668-.969 1.108-1.174s.899-.27 1.376-.192c.478.077 1.161.346 2.054.806l3.416 1.766c.643.332 1.069.479 1.285.443.215-.037.439-.227.679-.57l.321.166-2.227 4.309-.32-.166c.146-.354.144-.672-.006-.952-.104-.19-.445-.435-1.022-.731l-3.586-1.853c-.743-.384-1.23-.598-1.464-.644-.232-.045-.433-.028-.597.049a.8.8 0 0 0-.38.374c-.132.256-.172.563-.119.922s.196.769.434 1.229l4.478 2.313c.602.311 1.004.455 1.211.434.291-.021.548-.222.771-.596l.32.166-2.229 4.316-.32-.166c.107-.237.145-.45.109-.639a.839.839 0 0 0-.237-.461c-.122-.119-.428-.306-.915-.558l-3.586-1.853c-.755-.391-1.243-.604-1.464-.644s-.421-.017-.601.067-.312.207-.394.367a1.323 1.323 0 0 0-.148.748c.04.375.2.836.483 1.381l4.479 2.313c.588.304 1.006.445 1.254.427.247-.021.482-.204.709-.554l.321.165-2.221 4.3-.32-.166c.146-.369.16-.678.048-.924-.079-.169-.439-.419-1.081-.751l-4.71-2.433c-.63-.326-1.054-.471-1.269-.435-.214.036-.439.226-.679.569l-.329-.17 1.758-3.392zM323.946 337.164l6.866 2.616c.67.255 1.11.353 1.323.289.214-.062.415-.274.604-.64l.338.129-1.362 3.574-1.172-.447c.34.609.545 1.168.613 1.674.067.506.004 1.02-.193 1.537a2.216 2.216 0 0 1-.958 1.145c-.449.271-.901.394-1.358.369-.456-.023-1.191-.229-2.204-.615l-3.48-1.326c-.663-.252-1.099-.348-1.309-.288-.209.06-.412.274-.61.644l-.347-.133 1.361-3.574 5.994 2.284c.625.238 1.04.362 1.244.372s.377-.031.521-.124a.78.78 0 0 0 .311-.392c.086-.227.104-.451.055-.678-.066-.313-.28-.738-.642-1.276l-4.69-1.787c-.662-.253-1.1-.349-1.309-.289s-.412.274-.61.644l-.347-.133 1.361-3.575zM335.245 333.583l-7.523 1.002c-1.135.148-1.849.295-2.14.438a1.737 1.737 0 0 0-.699.619l-.356-.103 1.372-4.797.356.103c-.077.319-.08.559-.008.719.073.16.187.263.341.306.245.07.773.049 1.586-.067l3.976-.533-2.432-1.834c-.862-.657-1.483-1.04-1.864-1.149a.766.766 0 0 0-.637.074c-.187.117-.344.373-.471.77l-.357-.104.864-3.021.357.103c-.054.306-.009.579.136.822.143.243.721.745 1.734 1.509l5.951 4.49c1.486 1.129 2.378 1.906 2.675 2.332.413.599.524 1.232.334 1.9-.153.534-.431.924-.83 1.168-.4.244-.816.303-1.247.18-.374-.105-.649-.309-.829-.606a1.14 1.14 0 0 1-.125-.948c.092-.322.269-.553.531-.688.262-.138.608-.147 1.042-.031.245.063.411.08.498.05a.269.269 0 0 0 .17-.193c.044-.153-.003-.344-.141-.571-.195-.334-.728-.813-1.594-1.437l-.67-.503zM325.089 314.962l11.494 1.992c.653.112 1.083.109 1.291-.012.208-.119.363-.398.466-.836l.356.063-.866 4.994-.355-.062c.059-.411-.009-.733-.197-.972-.129-.158-.521-.295-1.174-.406l-9.574-1.659c-.646-.112-1.073-.106-1.281.013-.207.121-.362.396-.464.826l-.366-.063.67-3.878zM334.893 305.953l-.589 5.115c1.244.083 2.26-.134 3.046-.648.605-.396.944-.916 1.02-1.562a1.892 1.892 0 0 0-.209-1.126c-.187-.352-.546-.746-1.081-1.186l.258-.313c.973.624 1.639 1.267 1.997 1.929.358.66.491 1.394.398 2.197-.159 1.383-.813 2.369-1.957 2.958-.925.474-2.021.638-3.29.49-1.557-.179-2.746-.742-3.57-1.688-.824-.947-1.171-1.986-1.041-3.115.108-.944.591-1.721 1.445-2.325.853-.605 2.045-.849 3.573-.726zm-.95 2.377c-1.07-.123-1.813-.149-2.226-.08-.412.07-.734.217-.97.438-.136.126-.217.306-.244.538-.039.346.098.648.411.906.547.461 1.336.75 2.366.867l.349.041.314-2.71zM338.907 299.321c.958 1.188 1.417 2.238 1.375 3.147-.023.535-.22.972-.586 1.311-.367.338-.814.495-1.343.473-.717-.033-1.347-.369-1.891-1.01-.544-.642-1.243-2.017-2.1-4.125l-.942-.043c-.709-.031-1.157-.014-1.345.055s-.354.207-.501.414a1.31 1.31 0 0 0-.238.713c-.02.436.063.798.243 1.086.112.181.249.273.409.281.141.006.317-.08.534-.258.299-.24.582-.355.85-.344.327.016.602.148.82.402.22.256.32.58.303.975-.02.421-.161.77-.429 1.041s-.57.4-.911.387c-.481-.021-.934-.234-1.354-.635s-.731-.947-.936-1.641-.289-1.406-.255-2.143c.04-.89.261-1.584.661-2.086.4-.501.825-.818 1.273-.951.285-.082.934-.1 1.942-.054l3.64.164c.429.021.698.017.811-.015a.474.474 0 0 0 .253-.139.359.359 0 0 0 .091-.228c.008-.175-.108-.356-.349-.548l.256-.29c.479.356.822.719 1.03 1.087.208.367.302.777.28 1.232-.023.535-.168.947-.433 1.236-.259.296-.647.462-1.158.506zm-.732-.032l-3.14-.143c.438.831.919 1.455 1.442 1.874.35.276.707.424 1.075.44.309.015.583-.084.827-.295.188-.158.289-.389.303-.688.017-.335-.152-.729-.507-1.188zM326.781 289.893l11.665-.124c.663-.008 1.085-.089 1.268-.245.184-.155.284-.458.308-.905l.36-.004.054 5.068-.36.004c-.019-.415-.143-.723-.371-.92-.155-.133-.564-.193-1.228-.188l-9.718.104c-.654.007-1.074.089-1.257.244-.183.156-.285.455-.307.896l-.372.004-.042-3.934zM334.225 273.191l.495 5.126c1.233-.18 2.182-.604 2.843-1.272.509-.514.73-1.092.669-1.738a1.908 1.908 0 0 0-.439-1.057c-.254-.306-.69-.617-1.306-.934l.188-.361c1.081.406 1.866.896 2.355 1.467.487.572.771 1.261.85 2.066.134 1.387-.298 2.486-1.295 3.303-.804.655-1.842 1.045-3.114 1.168-1.559.15-2.84-.15-3.845-.904-1.004-.754-1.561-1.696-1.67-2.829-.091-.946.218-1.806.927-2.575.706-.775 1.822-1.259 3.342-1.46zm-.433 2.521c-1.072.104-1.803.234-2.191.39-.388.155-.674.366-.855.632-.106.152-.148.346-.126.577.033.347.229.612.592.801.631.337 1.463.453 2.495.354l.35-.033-.265-2.721zM328.533 266.173l3.146-.623.05.339c-.879.544-1.459 1.06-1.737 1.543-.279.485-.388.942-.323 1.373a.986.986 0 0 0 .377.653.85.85 0 0 0 .674.193.805.805 0 0 0 .486-.275c.24-.252.616-.914 1.13-1.984s.978-1.796 1.391-2.172a2.744 2.744 0 0 1 1.477-.692 3.32 3.32 0 0 1 1.577.16c.535.185.97.491 1.305.922s.545.931.63 1.5c.066.442.017 1.058-.151 1.839-.043.211-.06.352-.049.424.033.219.227.377.578.473l.049.328-3.313.656-.05-.338c.829-.429 1.423-.935 1.781-1.52.359-.585.506-1.109.437-1.573-.048-.317-.184-.563-.409-.735a.96.96 0 0 0-.756-.195 1.238 1.238 0 0 0-.779.421c-.202.231-.485.729-.854 1.487-.551 1.117-.989 1.853-1.315 2.205-.478.519-1.044.826-1.699.924-.715.106-1.397-.043-2.052-.449-.651-.406-1.049-1.076-1.188-2.01a3.184 3.184 0 0 1 .148-1.516c.072-.193.102-.346.083-.459a.503.503 0 0 0-.117-.275c-.06-.065-.219-.16-.474-.285l-.053-.339zM324.273 260.558l3.369-.652-.424-2.189.977-.188.424 2.188 5.688-1.102c.532-.104.87-.193 1.017-.273a.735.735 0 0 0 .323-.334c.07-.143.097-.268.075-.373-.083-.426-.485-.768-1.21-1.021l.159-.338c1.364.288 2.163 1.029 2.396 2.227.112.584.047 1.109-.2 1.576-.247.469-.562.797-.939.985-.211.108-.809.259-1.794.45l-4.978.964.232 1.202-.346.066a12.854 12.854 0 0 0-2.252-1.756 11.406 11.406 0 0 0-2.454-1.105l-.063-.327zM333.498 249.397c1.252.874 1.984 1.754 2.198 2.64.126.521.061.994-.197 1.422-.259.428-.646.703-1.158.828-.696.168-1.395.021-2.096-.443-.701-.465-1.757-1.59-3.167-3.375l-.917.222c-.689.167-1.115.31-1.275.429-.161.117-.282.297-.366.537-.081.24-.093.491-.028.752.103.422.28.748.535.975.157.142.314.193.472.154.137-.033.283-.164.441-.396.22-.313.46-.503.72-.565.317-.078.619-.025.9.158s.47.467.563.85c.1.41.06.783-.121 1.119-.181.338-.437.545-.769.625-.469.113-.96.037-1.477-.23-.516-.268-.968-.705-1.355-1.313a6.555 6.555 0 0 1-.844-1.986c-.209-.864-.19-1.594.056-2.188.245-.594.563-1.018.957-1.271.252-.156.868-.354 1.851-.592l3.542-.857c.416-.102.674-.182.773-.239s.167-.126.203-.204a.348.348 0 0 0 .023-.242c-.041-.17-.203-.313-.486-.431l.163-.351c.562.209.991.461 1.293.757.304.296.508.664.614 1.106.126.521.104.957-.07 1.309-.173.35-.5.615-.978.8zm-.712.173l-3.055.739c.651.675 1.288 1.142 1.907 1.397.413.168.8.209 1.156.121.299-.072.536-.242.712-.513.137-.205.169-.454.1-.747-.079-.323-.353-.655-.82-.997z"/></g><g><path d="M317.875 222.184l.221-.326c.856.39 1.507.902 1.95 1.535a3.96 3.96 0 0 1 .736 2.062c.076 1.25-.333 2.277-1.229 3.083-.896.807-2.005 1.25-3.328 1.33-1.274.08-2.419-.193-3.43-.814-1.219-.749-1.873-1.846-1.962-3.289-.061-.968.137-1.753.59-2.355.452-.601.979-.92 1.581-.957.381-.023.692.074.932.291.242.216.375.511.397.885.024.394-.087.728-.331 1.001s-.699.461-1.363.562c-.419.066-.706.181-.863.345a.725.725 0 0 0-.219.556c.021.32.208.584.563.791.534.314 1.334.441 2.396.375a7.648 7.648 0 0 0 2.504-.575c.788-.33 1.364-.751 1.729-1.264.264-.385.382-.828.351-1.329a1.97 1.97 0 0 0-.289-.917c-.172-.286-.484-.616-.936-.99zM306.738 216.909c.037-.434.221-.787.55-1.061.33-.274.708-.393 1.135-.355.426.037.776.22 1.051.549.273.329.393.708.356 1.134a1.488 1.488 0 0 1-.545 1.051 1.484 1.484 0 0 1-1.128.356 1.508 1.508 0 0 1-1.059-.544 1.496 1.496 0 0 1-.36-1.13zm4.651-1.01l7.411.637c.661.057 1.09.016 1.286-.122.196-.137.328-.428.394-.873l.358.031-.435 5.052-.359-.031c.022-.414-.071-.731-.28-.951-.142-.146-.543-.248-1.204-.305l-5.461-.469c-.659-.058-1.088-.017-1.284.121-.196.138-.327.426-.393.863l-.37-.032.337-3.921zM314.239 202.892l7.082 1.962c.688.191 1.138.246 1.346.164.206-.082.387-.313.54-.693l.349.096-1.021 3.686-1.209-.335c.396.575.65 1.111.769 1.608.115.498.1 1.014-.049 1.549a2.221 2.221 0 0 1-.847 1.229c-.423.31-.861.475-1.318.494s-1.208-.116-2.253-.405l-3.59-.994c-.683-.189-1.126-.245-1.329-.166-.202.08-.385.313-.547.698l-.358-.099 1.021-3.687 6.182 1.713c.646.179 1.069.264 1.274.254a.862.862 0 0 0 .505-.172.772.772 0 0 0 .272-.42 1.163 1.163 0 0 0-.01-.679c-.096-.304-.35-.708-.759-1.21l-4.837-1.34c-.686-.189-1.128-.245-1.329-.165-.204.08-.386.312-.549.697l-.357-.099 1.022-3.686zM317.451 187.395l9.293 5.508c.627.373 1.009.575 1.145.609.219.066.41.063.579-.013s.36-.267.575-.576l.284.169-1.356 3.805-1.278-.757c.253.702.375 1.266.362 1.691a2.54 2.54 0 0 1-.374 1.243c-.609 1.03-1.555 1.572-2.831 1.625-1.034.04-2.097-.263-3.185-.907-.868-.516-1.56-1.127-2.07-1.834-.51-.707-.786-1.425-.828-2.155a3.411 3.411 0 0 1 .469-1.991c.229-.386.508-.684.834-.895.327-.21.777-.375 1.354-.493l-2.436-1.443c-.616-.365-1.002-.559-1.159-.582a.86.86 0 0 0-.556.09c-.163.09-.357.326-.582.706l-.362-.215 2.122-3.585zm4.042 5.663c-1.069-.059-1.786.22-2.152.836a.928.928 0 0 0-.14.629c.052.319.263.679.632 1.08.368.402 1.017.877 1.943 1.426 1.02.604 1.816.977 2.396 1.117.578.141 1.053.146 1.425.017.189-.067.353-.216.487-.447.301-.506.187-1.22-.342-2.14l-4.249-2.518zM333.686 187.136c-.072 1.525-.428 2.614-1.062 3.267-.373.383-.81.58-1.308.59-.5.009-.938-.17-1.318-.539-.513-.499-.761-1.169-.741-2.009.02-.84.408-2.333 1.168-4.479l-.677-.658c-.509-.495-.856-.778-1.041-.851-.186-.074-.403-.081-.65-.023s-.466.183-.65.375c-.305.312-.482.636-.541.974-.033.209.006.369.122.481.101.098.291.152.569.162.384.018.672.121.862.307.236.229.351.511.347.847-.006.336-.146.646-.421.929-.293.302-.631.467-1.012.493-.381.027-.692-.079-.938-.316-.347-.336-.542-.793-.592-1.373-.049-.579.081-1.195.391-1.848a6.548 6.548 0 0 1 1.23-1.771c.619-.638 1.246-1.012 1.879-1.119.634-.109 1.161-.064 1.585.133.269.129.765.545 1.486 1.25l2.614 2.54c.308.299.511.474.614.527a.476.476 0 0 0 .28.063.354.354 0 0 0 .218-.109c.121-.125.157-.338.105-.641l.382-.048c.123.585.141 1.084.051 1.498-.09.413-.292.783-.608 1.109-.373.383-.754.596-1.146.637-.385.041-.786-.091-1.198-.398zm-.524-.511l-2.255-2.19c-.224.912-.278 1.698-.165 2.359.077.439.248.787.513 1.043.22.214.491.324.813.329.246.006.475-.099.684-.315.234-.239.37-.648.41-1.226zM338.58 167.764l6.114 8.904c.414.602.675.946.782 1.034.171.152.347.229.531.232.186.003.438-.09.764-.28l.188.273-2.832 2.882-.841-1.224c-.066.743-.193 1.306-.382 1.687a2.558 2.558 0 0 1-.862.97c-.987.678-2.072.773-3.251.284-.956-.399-1.792-1.12-2.509-2.163-.571-.833-.941-1.677-1.107-2.534-.165-.856-.114-1.624.154-2.303.269-.68.688-1.217 1.263-1.61a2.622 2.622 0 0 1 1.133-.461c.386-.054.863-.013 1.437.122l-1.604-2.333c-.404-.591-.675-.93-.809-1.017a.851.851 0 0 0-.541-.151c-.187.014-.461.146-.824.396l-.239-.348 3.435-2.36zm1.285 6.838c-.946-.502-1.714-.551-2.305-.146a.933.933 0 0 0-.392.512c-.087.311-.047.727.119 1.246.166.52.554 1.223 1.164 2.112.67.977 1.238 1.65 1.703 2.021.466.371.895.575 1.287.614.197.018.408-.049.629-.201.485-.333.683-1.028.59-2.085l-2.795-4.073z"/></g><g><path d="M23.018 176.58l-1.988 3.209c-.388.626-.593 1.044-.617 1.254s.033.424.169.642c.136.219.466.49.99.814l-.196.316-5.882-3.643.196-.316c.535.332.928.506 1.181.525s.466-.028.642-.14c.175-.111.457-.48.845-1.106l4.653-7.512c.388-.626.594-1.044.617-1.254.024-.209-.031-.423-.165-.64-.133-.216-.465-.489-.994-.816l.196-.316 5.045 3.125c1.662 1.029 2.671 2.063 3.027 3.103s.26 2.003-.291 2.891c-.465.751-1.097 1.25-1.895 1.496s-1.667.212-2.606-.102c-.637-.206-1.613-.716-2.927-1.53zm3.51-5.668l-3.098 5.002c.181.128.319.222.416.281.694.43 1.357.555 1.988.375.631-.18 1.214-.703 1.75-1.568.532-.859.734-1.604.605-2.235-.129-.631-.566-1.177-1.312-1.639l-.349-.216zM36.146 182.289a4.35 4.35 0 0 1 1.184 2.048c.207.793.167 1.595-.116 2.405a5.934 5.934 0 0 1-1.396 2.204c-.933.951-1.955 1.51-3.066 1.676-1.343.202-2.527-.201-3.555-1.209-1.008-.989-1.438-2.105-1.289-3.347.149-1.241.681-2.328 1.595-3.26.942-.96 2.042-1.525 3.3-1.693 1.259-.167 2.373.224 3.343 1.176zm-.471.537a1.168 1.168 0 0 0-.898-.339c-.355.013-.826.264-1.413.752-.587.488-1.354 1.215-2.301 2.18a13.337 13.337 0 0 0-1.306 1.532c-.281.391-.421.759-.423 1.104-.002.345.107.626.328.842.215.211.453.327.713.348.345.021.692-.084 1.041-.315.541-.36 1.489-1.231 2.844-2.612.797-.812 1.299-1.415 1.506-1.807.207-.392.29-.745.249-1.057-.026-.221-.139-.431-.34-.628zM43.44 191.686l-1.795 1.146c1.153.002 1.99.116 2.51.34.52.224.897.519 1.131.886.202.316.265.631.191.944-.074.313-.289.583-.645.81-.378.241-.73.337-1.056.287a1.011 1.011 0 0 1-.737-.464 1.356 1.356 0 0 1-.209-.962c.051-.343.076-.541.073-.595a.435.435 0 0 0-.073-.227.845.845 0 0 0-.483-.347c-.339-.109-.725-.109-1.156-.001a6.835 6.835 0 0 0-1.984.885l-1.82 1.161-.469.311c-.322.206-.515.356-.58.454a.8.8 0 0 0-.143.514c.014.177.113.43.298.756l-.305.195-2.728-4.275.305-.194c.248.326.491.499.729.517.238.019.702-.191 1.39-.631l4.376-2.793c.451-.288.725-.494.82-.619.122-.157.186-.313.19-.467s-.065-.375-.209-.665l.313-.2 2.066 3.234zM50.668 209.277l-3.083.883-.079-.332c.831-.616 1.366-1.178 1.604-1.685.238-.507.307-.972.207-1.395a.984.984 0 0 0-.431-.621.86.86 0 0 0-.688-.137.826.826 0 0 0-.462.315c-.218.271-.538.963-.959 2.074-.422 1.111-.823 1.872-1.205 2.281-.381.41-.852.682-1.412.814a3.29 3.29 0 0 1-1.585-.028 2.748 2.748 0 0 1-1.378-.809 3.164 3.164 0 0 1-.754-1.442c-.103-.437-.104-1.052-.003-1.846.025-.212.03-.354.013-.426-.051-.215-.256-.355-.616-.422l-.076-.322 3.247-.933.079.332c-.791.497-1.341 1.051-1.65 1.665-.309.613-.41 1.147-.302 1.604.074.313.23.545.47.699.24.154.496.198.769.133.313-.074.56-.236.742-.485.182-.249.424-.767.727-1.554.455-1.16.83-1.93 1.125-2.309.433-.556.971-.911 1.616-1.063.704-.167 1.398-.074 2.083.276.685.351 1.136.985 1.353 1.904.117.495.11 1.002-.022 1.521-.056.199-.071.354-.045.464a.516.516 0 0 0 .14.266c.066.06.231.142.497.244l.078.334zM51.274 222.469l-7.35.102c-.716.01-1.162.083-1.337.22-.176.136-.284.409-.325.818l-.362.005-.053-3.825 1.255-.018c-.542-.441-.938-.884-1.188-1.329s-.38-.946-.388-1.501a2.216 2.216 0 0 1 .468-1.417c.319-.417.695-.698 1.128-.844s1.192-.228 2.276-.242l3.725-.052c.709-.01 1.15-.081 1.323-.214.172-.133.282-.407.33-.823l.372-.005.053 3.826-6.416.089c-.669.009-1.101.047-1.294.113a.858.858 0 0 0-.438.307.787.787 0 0 0-.144.479c.003.241.07.458.2.65.178.266.534.582 1.068.95l5.02-.07c.709-.01 1.15-.081 1.323-.214.172-.133.282-.408.33-.823l.372-.005.052 3.823z"/></g></g><g><path fill="#445684" stroke="#000" d="M280.532 309.279s-6.361 87.379-99.029 87.379c-92.667 0-99.029-86.408-99.029-86.408V151.026h198.058v158.253z"/><path fill="#FFF" stroke="#000" d="M106.324 333.442c8.309-.461 16.71-7.108 23.08-7.108 6.37 0 14.31 3.971 14.31 3.971l3.508-10.063s-6.739-3.232-16.063-4.154c-9.324-.924-21.787 7.201-24.834 6.832-3.047-.369-11.355-3.141-15.51-5.726-2.016-1.254-4.919-.896-7.378-.198a110.855 110.855 0 0 0 3.114 12.563c.972-.254 2.264-.408 3.986-.361 6.831.18 7.479 4.705 15.787 4.244zM233.357 314.611l-2.399 5.264s-.187 7.016 6.276 7.016c6.461 0 13.939 5.908 20.494 5.908 6.48 0 14.486-5.043 19.129-5.338a112.259 112.259 0 0 0 2.765-11.66c-7.203 1.875-16.563 7.203-23 7.675-7.569.553-16.065-8.771-23.265-8.865z"/><path fill="#C0A264" stroke="#000" d="M217.939 350.063l28.988-6.188s-2.77-13.387-5.725-14.679c-2.953-1.292-1.938-2.769-3.416-6.276-1.477-3.51-2.215-9.141-2.77-11.078-.554-1.938-4.525-8.678-7.388-10.893-2.862-2.217-6.924-8.771-10.894-10.156-3.971-1.385-7.108-2.492-10.155-3.23-3.045-.738-5.539-4.708-7.106-6.093-1.57-1.386-9.785-.83-12.556-.738-2.771.093-7.94-2.032-11.541.83s-9.047 8.586-11.816 8.862c-2.769.277-11.447 3.324-12.278 3.231-.831-.092-2.031 8.031-2.678 10.71-.647 2.678-3.878 6.368-4.432 10.707-.554 4.34-.554 8.125-1.385 9.973-.831 1.847-9.601 10.522-10.063 11.447-.462.924-1.016 3.323-1.016 3.323l25.48 13.017 28.434-7.386 32.317 4.617z"/><path fill="#FFF" stroke="#000" d="M157.022 348.957s1.803-2.438 2.969-4.24c1.166-1.801 2.226-2.014 3.392-4.239s-.53-6.042.53-7.103c1.06-1.062 8.587-7.422 9.541-7.846s2.013-1.482 3.073-2.968-.847-2.228 1.591-5.089 9.751-5.725 13.78-5.618c0 0-.955 5.088-1.907 6.571-.955 1.484-.531 2.758 0 3.924.528 1.166 2.225 6.148-.955 9.646-3.181 3.498-5.302 4.238-4.451 7.844.849 3.604-.53 2.543-.53 2.543l-27.033 6.575z"/><path fill="#445684" stroke="#000" d="M163.701 346.201s.424-2.757 1.59-4.135.001-5.617 1.272-7.104c1.271-1.484 8.691-7.526 10.494-8.799 1.803-1.271 2.545-4.134 2.757-5.83.212-1.695 6.997-5.828 6.997-5.512 0 .317-2.438 5.406-2.862 6.254-.425.848-4.77 7.42-5.194 7.95-.424.53-4.452 3.923-4.664 5.937-.212 2.015-1.061 8.162-1.061 8.162l2.65-.848s.211-5.83.636-6.996c.425-1.166 3.181-3.605 4.347-5.089s5.725-8.161 5.936-10.282c0 0 1.908 3.817 1.695 6.467-.211 2.649-2.225 5.193-4.346 7.313-2.12 2.12-2.226 6.785-2.226 6.785l-4.876 3.073-13.145 2.654zM235.939 351.998c-6.555 0-20.494 7.108-28.063 7.108s-18.739-7.108-25.203-7.108c-6.463 0-18.557 7.017-25.574 7.017s-14.401-6.464-24.741-6.464-20.957 5.908-26.681 5.908c-2.234 0-4.041-.168-5.421-.375 3.451 4.982 7.564 9.881 12.462 14.428 4.075-1.906 12.847-5.649 18.902-5.649 8.124 0 18.925 8.399 25.203 8.399 6.278 0 15.604-7.938 25.02-7.938s18.648 7.294 26.773 7.294c8.122 0 17.909-7.107 26.68-7.107 5.683 0 10.998 3.285 14.052 5.604 4.959-4.518 9.139-9.399 12.657-14.388-1.09.117-2.303.195-3.631.195-5.631-.001-15.879-6.924-22.435-6.924zM208.43 387.08c-8.123 0-17.541-8.309-25.479-8.309-7.939 0-15.417 8.4-25.573 8.4s-17.819-7.108-24.466-7.108c-3.627 0-6.312.962-8.009 1.836 13.88 8.792 32.259 14.759 56.601 14.759 24.285 0 42.632-6.006 56.501-14.861-1.977-.43-4.471-.81-7.141-.81-6.186 0-14.309 6.093-22.434 6.093z"/><path fill="#FFF" stroke="#000" d="M265.111 347.197c-8.862 0-20.954-8.125-29.448-8.125-8.492 0-18.463 7.387-28.435 7.387-9.971 0-15.139-6.371-23.91-6.371-8.77 0-17.909 6.465-26.033 7.203-8.124.737-16.987-8.863-26.312-8.863-9.325 0-16.895 7.662-25.203 7.939-4.488.149-9.729-1.128-13.601-2.334 2.18 4.607 4.841 9.364 8.086 14.051 1.38.207 3.187.375 5.421.375 5.724 0 16.341-5.908 26.681-5.908s17.725 6.464 24.741 6.464c7.016 0 19.11-7.017 25.574-7.017 6.463 0 17.633 7.108 25.203 7.108s21.51-7.108 28.064-7.108c6.554 0 16.803 6.924 22.434 6.924 1.328 0 2.541-.077 3.631-.195a98.43 98.43 0 0 0 7.209-11.961c-1.373.269-2.754.431-4.102.431zM208.616 374.617c-8.125 0-17.357-7.295-26.773-7.295s-18.741 7.939-25.02 7.939-17.079-8.4-25.203-8.4c-6.056 0-14.827 3.743-18.902 5.65a83.838 83.838 0 0 0 12.185 9.388c1.697-.874 4.382-1.836 8.009-1.836 6.646 0 14.311 7.108 24.466 7.108 10.155 0 17.634-8.4 25.573-8.4s17.357 8.309 25.48 8.309c8.125 0 16.248-6.093 22.434-6.093 2.67 0 5.164.38 7.141.81a83.794 83.794 0 0 0 11.342-8.684c-3.053-2.318-8.369-5.605-14.051-5.605-8.772-.001-18.559 7.109-26.681 7.109z"/><path fill="#C0A264" stroke="#000" d="M146.489 183.334c-11.368 0-20.584 9.216-20.584 20.584s9.216 20.584 20.584 20.584 20.584-9.216 20.584-20.584-9.216-20.584-20.584-20.584zm-8.421 34.619a6.015 6.015 0 1 1 0-12.03 6.015 6.015 0 0 1 0 12.03zm0-14.971a6.015 6.015 0 1 1 0-12.03 6.015 6.015 0 0 1 0 12.03zm15.639 0a6.015 6.015 0 1 1 0-12.03 6.015 6.015 0 0 1 0 12.03z"/><path fill="#FFF" stroke="#000" d="M195.068 261.442s5.125 5.333 7.218 6.483c2.092 1.15 3.346 3.66 3.346 5.752s-.209 5.123-1.465 7.216c-1.254 2.092-5.438 6.798-6.063 8.157-.627 1.359-2.511 4.81-1.465 5.646 1.047.837 4.077 1.466 4.916 1.466.836 0 3.346-.941 3.555-1.779.209-.836-1.359-3.137-1.359-3.137s-.104-1.674.838-3.138c.939-1.464 2.613-5.961 3.764-7.425 1.151-1.465 2.931-5.542 3.349-6.379.418-.838.209-2.197.104-2.721-.104-.521-1.568-6.691-1.675-7.946-.104-1.255.313-5.544.313-5.544l-15.376 3.349z"/><path fill="#FFF" stroke="#000" d="M162.651 297.626c0 1.149.837 1.567 2.092 1.567 1.255 0 6.171.522 6.693-1.987.522-2.508-1.255-3.031-1.255-3.031s2.51-5.021 2.51-6.693-1.15-6.379-2.196-8.889-2.196-12.342-2.092-12.863.418-3.766.418-3.766.942-.418 5.125-.104 8.262 2.51 15.791 2.092c7.529-.418 19.451-.104 23.111-5.543 3.66-5.438 8.994-19.975 8.994-19.975s5.125 9.412 8.367 9.412c0 0 1.777-7.53-2.719-12.76-4.498-5.229-5.857-5.646-5.857-5.646s-14.535-1.987-22.902-1.674c-8.364.313-23.005 2.51-26.353 1.883-3.347-.627-17.674.418-17.15-12.131l-15.688-9.203s-4.6 4.392-4.705 10.144.836 15.477 7.215 24.68c6.379 9.202 11.816 15.269 11.816 15.269s5.542 10.877 6.588 12.444 5.125 7.948 6.275 10.876 1.674 4.706 1.15 7.216c-.524 2.513-5.228 8.682-5.228 8.682z"/><path fill="#C0A264" stroke="#000" d="M192.038 168.264l-4.306 9.221-7.753.026-2.572 3.722h8.575l-60.977 130.613h5.438l60.276-130.625 8.217-.025 2.259-3.718-8.747-.002 4.297-9.317z"/><path fill="#FFF" stroke="#000" d="M160.769 252.761s-10.146 4.078-12.445 5.23c-2.299 1.15-8.993 4.916-8.993 6.588 0 1.674-3.032 10.146-3.66 12.235s-1.673 6.587-2.928 8.261c-1.255 1.674-.733 6.066 2.3 5.021s4.812-3.348 5.334-3.766.209-1.777-1.255-2.72c0 0 .836-3.45 1.673-5.751s2.197-8.785 3.033-9.831c.836-1.045 1.673-2.51 2.928-2.51s12.445-.104 15.164-.104c2.719 0 7.32 1.256 9.83-2.51 2.51-3.765 2.091-5.646 2.091-5.646M202.704 246.173s3.764 9.203 8.573 14.746c4.811 5.541 8.576 9.41 8.576 9.41s.418 8.576-.104 11.504l-.521 2.929s-1.777 5.124-2.406 6.379c-.627 1.255-4.184 4.603-4.184 5.647s1.567 1.149 2.301 1.149c.732 0 5.858 1.196 7.008-1.673.627-1.569-1.15-2.196-1.15-2.196s-.523-.731.209-2.301 1.674-7.845 2.928-12.968c1.256-5.125 3.765-10.25 4.287-10.668.523-.418-1.254-2.821-2.51-8.26-1.254-5.438-1.986-16.522-1.568-20.603s-2.194-6.901-2.194-6.901M141.004 213.651s-5.751 11.085-11.398 11.294c0 0-.836-10.772 7.32-16.628 0 0-2.405-5.02.418-7.843 2.823-2.823 7.006-5.333 11.189-4.392 4.183.941 7.111 4.078 8.366 4.915s6.274 8.994 7.216 9.935c.942.941 2.719 3.242 1.464 4.392-1.255 1.15-4.497 2.091-8.68 2.719s-9.412 1.674-11.713.837-4.496-1.778-4.182-5.229z"/><path fill="none" stroke="#000" d="M148.429 205.389s5.753.628 6.693 3.242M140.063 211.246s-4.602 2.51-5.961 8.262"/><path fill="#FFF" stroke="#000" d="M205.939 200.321s-2.565 4.906-.688 7.062c1.881 2.155 9.217-.963 7.016-4.402s-6.328-2.66-6.328-2.66z"/><g stroke="#000"><path fill="#FFF" d="M197.975 190.91l1.762-4.885c-4.301.329-8.44.497-10.018-.029 0 0-.758 1.759-1.85 4.2 1.684.726 5.574 1.996 10.106.714zM216.45 193.46c.946-1.834 1.762-3.806 1.299-4.454-.94-1.317-3.011-3.951-6.209-3.951-.912 0-2.806.168-5.119.383l-1.571 4.441c-.002 0 9.731-.093 11.6 3.581zM185.221 195.983c-1.453 3.087-2.949 6.096-3.968 7.696 0 0 1.129 1.128 6.208 1.128 1.686 0 3.537-.313 5.416-.728l4.182-7.901c0 .001-6.398 1.922-11.838-.195z"/><path fill="#EE2D2B" d="M213.438 198.813l.924-1.719c-.288-.002 0 0 0 0s1.113-1.745 2.089-3.635c-1.869-3.674-11.603-3.581-11.603-3.581l1.572-4.441c-2.027.188-4.377.41-6.684.587l-1.762 4.885c-4.531 1.282-8.423.012-10.105-.714a326.177 326.177 0 0 1-2.648 5.787c5.439 2.117 11.838.196 11.838.196l-4.182 7.901c2.373-.524 4.791-1.213 6.977-1.655l2.359-6.36c10.424-.343 11.225 2.749 11.225 2.749z"/></g><g stroke="#000"><path fill="#FFF" d="M248.788 198.788s-5.644 3.198-10.347 3.01c-4.702-.188-8.467-3.198-11.477-3.951-2.617-.654-10.668-.742-12.604-.752l-.924 1.719s-.801-3.093-11.226-2.749l-2.358 6.36c1.301-.263 2.52-.438 3.598-.438 4.326 0 6.207.564 6.207 2.634s-4.891 2.069-4.891 2.069-1.506 4.139 2.633 4.139h11.1c2.445 0 7.338.376 8.654 1.317s14.297 6.396 18.246 0c0 0-3.385 1.505-8.652-.376-1.654-.591-3.217-1.349-4.58-2.111-2.656-.5-7.049-1.49-9.568-2.941-3.779-2.176-12.828-1.718-12.828-1.718l2.636-4.238h7.444c1.293 0 8.908 3.942 14.334 5.592 5.616-.397 12.825-2.016 14.603-7.566z"/><path fill="#EE2D2B" d="M212.407 200.76l-2.636 4.238s9.049-.458 12.828 1.718c2.521 1.451 6.912 2.44 9.568 2.941-2.979-1.663-5.014-3.345-5.014-3.345s3.131.315 7.031.04c-5.427-1.65-13.041-5.592-14.334-5.592h-7.443z"/></g><path fill="none" stroke="#000" d="M214.361 197.095l-4.59 7.903"/></g><path fill="none" d="M0 0h363.004v450.691H0z"/></svg>