<svg xmlns="http://www.w3.org/2000/svg" version="1" width="1280" height="640" xmlns:cgf="https://coding.garden/flags"><metadata id="cgf-metadata">

<cgf:flag>
  <cgf:name>Brooklyn Park</cgf:name>
  <cgf:route>us/mn/brooklyn_park</cgf:route>
  <cgf:aspect-ratio>2</cgf:aspect-ratio>
</cgf:flag>

</metadata><path fill="#fff" d="M0-5h1280v645H0z"></path><path d="M456.538 81.067h25.514S791.402 120.7 794.59 409.65" fill="none" stroke="#364381" stroke-width="42.667"></path><path d="M754.274 416.666c0-160.721-134.344-291.021-300.062-291.021l300.062 291.02-300.838-.418.776-290.602" fill="#336b5d"></path><path fill="#336b5d" d="M453.436 395.2H752.72v145.924H453.436z"></path><path fill="#fff" d="M583.697 416.252H894.31V583.77H583.697z"></path><path d="M604.523 435.95c0-4.39-.265-5.524-3.222-5.76l-2.107-.183c-.53-.358-.461-1.25.064-1.476 3.554-.298 8.03-.473 14.148-.473 4.147 0 8.094.281 11.055 1.65 2.829 1.25 5 3.636 5 7.433 0 4.276-2.764 6.477-6.711 8.133 0 .601.529.776 1.25.891 3.554.602 8.82 3.567 8.82 9.925 0 6.89-5.663 11.524-17.507 11.524-1.907 0-5.133-.175-7.898-.175-2.897 0-5.132.115-7.569.175-.396-.175-.529-1.127-.132-1.485l1.186-.183c3.486-.534 3.618-1.19 3.618-7.416v-22.58zm5.393 7.907c0 1.66.068 1.775 3.426 1.66 6.711-.243 10.33-2.018 10.33-7.6 0-5.823-4.805-8.025-9.805-8.025-1.447 0-2.432.115-3.025.359-.657.175-.922.473-.922 1.54v12.066zm0 13.786c0 2.142.132 5.167 1.382 6.476 1.25 1.357 3.226 1.66 5.197 1.66 5.858 0 10.33-2.376 10.33-8.316 0-4.693-2.633-10.158-13.095-10.158-3.554 0-3.819.358-3.819 1.548v8.79zm31.637-7.258c0-2.308 0-2.607-1.775-3.674l-.593-.358c-.269-.243-.269-.892.068-1.075 1.51-.474 4.997-2.01 6.644-2.91.328.068.529.183.529.418v3.452c0 .29.064.473.2.533 2.296-1.724 4.804-3.567 7.24-3.567 1.643 0 2.949.96 2.949 2.377 0 1.967-1.77 2.735-2.825 2.735-.652 0-.99-.175-1.446-.418-.986-.593-1.98-.952-2.897-.952-1.054 0-1.848.542-2.372 1.19-.653.833-.854 2.552-.854 4.574v8.077c0 4.275.133 4.992 2.633 5.167l2.372.184c.452.29.329 1.31-.136 1.484-3.09-.115-4.997-.175-7.305-.175-2.368 0-4.343.06-6.05.175-.46-.175-.593-1.19-.132-1.484l1.25-.184c2.436-.358 2.5-.892 2.5-5.167v-10.402zm44.677 5.107c0 7.433-5.658 12.783-13.884 12.783-7.565 0-13.492-4.817-13.492-12.24 0-7.485 6.251-12.835 14.02-12.835 7.37 0 13.355 4.992 13.355 12.292zm-14.145-10.509c-4.343 0-7.569 3.742-7.569 10.275 0 5.41 2.701 11.234 8.487 11.234 5.794 0 7.569-5.466 7.569-10.044 0-5.047-2.24-11.465-8.487-11.465zm46.11 10.509c0 7.433-5.662 12.783-13.884 12.783-7.569 0-13.495-4.817-13.495-12.24 0-7.485 6.255-12.835 14.02-12.835 7.373 0 13.36 4.992 13.36 12.292zm-14.144-10.509c-4.348 0-7.569 3.742-7.569 10.275 0 5.41 2.7 11.234 8.487 11.234 5.794 0 7.564-5.466 7.564-10.044 0-5.047-2.231-11.465-8.482-11.465zm22.234-11.059c0-3.498-.077-3.857-2.044-4.923l-.653-.359c-.337-.166-.337-.998 0-1.182 1.647-.473 4.732-1.365 7.104-2.5.27 0 .53.115.653.358-.064 1.784-.2 4.75-.2 7.369v20.382c0 .776.076.892 1.19.892 1.446 0 2.7-.658 4.471-2.326l2.701-2.607c1.843-1.783 2.304-2.44 2.304-2.735 0-.298-.324-.473-1.45-.601l-1.575-.175c-.601-.184-.601-1.31 0-1.494h1.51c2.902 0 6.78-.106 10.467-.465.452.184.529 1.182.128 1.485l-2.108.359c-1.31.234-2.432.832-4.143 2.082-2.564 1.834-4.809 3.976-5.986 4.983-.794.657-.853.96-.465 1.434 1.13 1.357 2.176 2.492 4.416 4.749 2.564 2.607 4.872 4.932 6.178 6.05.926.776 2.244 1.135 3.426 1.31l.917.123c.465.29.401 1.31-.123 1.485a107.999 107.999 0 0 0-6.251-.175c-2.637 0-4.937.06-6.844.175-.529-.235-.593-1.25-.136-1.485l1.186-.183c.981-.115 1.647-.235 1.647-.593 0-.359-.265-.768-1.118-1.66l-7.04-7.377a2.832 2.832 0 0 0-2.044-.832c-1.177 0-1.254.183-1.254 2.027v3.268c0 4.275.136 4.877 2.509 5.167l1.583.183c.452.29.324 1.31-.137 1.485a114.375 114.375 0 0 0-6.379-.175c-2.372 0-4.343.06-6.323.175-.452-.175-.589-1.19-.064-1.485l1.447-.183c2.432-.29 2.508-.892 2.508-5.167v-26.859zm36.569 26.859c0 4.275.124 4.877 2.5 5.167l1.58.183c.46.29.328 1.31-.124 1.485a114.726 114.726 0 0 0-6.392-.175c-2.372 0-4.343.06-6.31.175-.461-.175-.593-1.19-.137-1.485l1.515-.183c2.436-.29 2.5-.892 2.5-5.167v-26.859c0-3.498-.064-3.857-2.035-4.923l-.666-.359c-.324-.166-.324-.998 0-1.182 1.647-.473 4.745-1.365 7.109-2.5.264 0 .524.115.66.358-.076 1.784-.2 4.75-.2 7.369v28.096zm7.168 18.901c0-1.608 1.182-2.385 2.629-2.385h1.254c1.054 0 1.707-.418 2.172-1.066 1.907-2.676 3.225-5.176 3.818-6.592.201-.474.653-1.724.653-2.56 0-1.19-.269-1.908-1.122-4.1l-5.133-12.715c-1.118-2.782-1.578-4.216-3.878-4.634l-1.643-.299c-.392-.29-.328-1.31.2-1.476 2.096.107 4.08.166 6.251.166 1.771 0 3.619-.06 5.726-.166.525.166.59 1.182.124 1.476l-1.647.299c-.917.183-1.442.358-1.442.777 0 .716 1.51 4.573 1.907 5.585l2.108 5.465c.388.952 1.643 4.1 1.907 4.216.188-.116 1.242-1.967 2.432-4.39l2.232-4.694c1.446-3.102 2.3-5.29 2.3-5.944 0-.418-.393-.832-1.57-1.015l-2.045-.299c-.46-.29-.392-1.31.137-1.476 2.1.107 4.079.166 5.786.166 1.647 0 3.153-.06 4.996-.166.529.226.593 1.126.136 1.476l-1.117.184c-2.172.358-3.363 2.082-5.598 6.302l-3.691 6.835c-2.172 3.976-7.556 14.315-10.782 20.791-1.118 2.257-2.7 2.79-4.215 2.79-1.903-.004-2.885-1.079-2.885-2.55zm33.673-29.299c0-2.308 0-2.607-1.77-3.674l-.594-.358c-.264-.243-.264-.892.064-1.075 1.52-.474 5.261-2.01 6.58-2.91.264 0 .592.124.729.418-.137 1.374-.137 2.257-.137 2.79 0 .359.265.658.726.658 2.76-1.55 5.862-3.034 9.216-3.034 5.457 0 7.697 3.383 7.697 7.369v10.218c0 4.275.132 4.877 2.509 5.167l1.442.184c.46.29.328 1.31-.132 1.484a102.386 102.386 0 0 0-6.179-.175c-2.372 0-4.347.06-6.127.175-.46-.175-.593-1.19-.128-1.484l1.246-.184c2.437-.358 2.5-.892 2.5-5.167v-8.849c0-3.383-1.706-5.884-6.178-5.884-2.508 0-4.68.952-5.597 2.083-.854.998-.99 1.834-.99 3.558v9.092c0 4.275.136 4.809 2.509 5.167l1.177.184c.465.29.329 1.31-.132 1.484a91.162 91.162 0 0 0-5.986-.175c-2.364 0-4.348.06-6.178.175-.465-.175-.593-1.19-.137-1.484l1.378-.184c2.436-.29 2.5-.892 2.5-5.167v-10.402zm-78.656 79.484c0 6.225.124 7.001 4.343 7.415l1.775.184c.397.29.265 1.31-.128 1.485-3.754-.116-5.926-.175-8.559-.175-2.76 0-5.132.06-8.025.175-.401-.175-.525-1.127-.132-1.485l1.378-.184c3.818-.473 3.955-1.19 3.955-7.415v-21.927c0-5.051-.137-6.067-3.102-6.357l-2.364-.243c-.46-.359-.4-1.25.128-1.485 3.486-.41 7.565-.465 13.03-.465 5.458 0 9.537.64 12.639 2.368 3.025 1.724 5.26 4.817 5.26 8.909 0 5.465-3.754 8.209-6.579 9.459-2.901 1.242-6.387 1.775-9.088 1.775-.452-.184-.452-1.075-.064-1.19 7.104-1.182 9.677-4.809 9.677-9.984 0-5.76-3.75-9.502-10.59-9.502-3.49 0-3.554.234-3.554 2.142v26.5zm35.123-3.392c.981-.299 1.122-.832 1.122-1.715l.064-2.744c.064-2.193-.73-5.167-4.808-5.167-1.835 0-4.08.832-4.203 2.675-.068.943-.136 1.66-.666 2.019-.977.716-2.756 1.134-3.741 1.134-.602 0-.926-.298-.926-.832 0-3.093 7.44-7.317 12.237-7.317 4.74 0 7.04 2.5 6.843 6.96l-.392 10.333c-.124 2.743.46 5.175 3.025 5.175a4.14 4.14 0 0 0 1.647-.358c.328-.183.661-.418.853-.418.265 0 .46.358.46.776 0 .29-2.295 2.616-5.524 2.616-1.58 0-3.158-.542-4.28-1.852-.264-.35-.653-.832-1.054-.832-.46 0-1.25.542-2.564 1.19-1.45.717-2.897 1.494-4.74 1.494-1.908 0-3.486-.474-4.604-1.374-1.246-1.007-2.04-2.492-2.04-4.151 0-2.326 1.246-3.691 5.462-5.052l7.83-2.56zm-4.079 10.449c1.31 0 3.354-.892 4.007-1.485.793-.708.793-1.54.861-2.79l.128-3.499c0-.657-.268-.777-.652-.777-.401 0-1.52.244-2.701.602-3.887 1.173-5.794 2.065-5.794 4.39 0 1.007.79 3.559 4.151 3.559zm21.508-15.211c0-2.308 0-2.607-1.779-3.673l-.593-.359c-.264-.243-.264-.892.073-1.075 1.51-.474 5-2.01 6.643-2.91.328.068.529.184.529.418v3.452c0 .29.064.474.2.533 2.3-1.723 4.796-3.575 7.233-3.575 1.642 0 2.96.96 2.96 2.385 0 1.967-1.774 2.726-2.828 2.726-.662 0-.986-.166-1.455-.41-.977-.592-1.971-.95-2.889-.95-1.054 0-1.847.541-2.372 1.19-.653.823-.853 2.551-.853 4.574v8.076c0 4.276.123 4.992 2.632 5.167l2.364.184c.46.29.337 1.31-.124 1.485-3.102-.116-5.009-.175-7.309-.175-2.372 0-4.343.06-6.05.175-.46-.175-.601-1.19-.136-1.485l1.254-.184c2.436-.358 2.5-.891 2.5-5.167v-10.402zm20.788-16.456c0-3.499-.073-3.857-2.044-4.924l-.653-.358c-.337-.175-.337-.999 0-1.182 1.643-.474 4.732-1.366 7.104-2.5.265 0 .53.115.653.358-.064 1.783-.2 4.749-.2 7.36v20.39c0 .777.076.883 1.19.883 1.442 0 2.696-.648 4.471-2.316l2.697-2.616c1.847-1.775 2.308-2.432 2.308-2.726 0-.299-.324-.474-1.455-.602l-1.57-.175c-.602-.183-.602-1.31 0-1.493h1.51c2.902 0 6.78-.115 10.467-.474.452.184.529 1.19.128 1.494l-2.108.358c-1.31.235-2.436.832-4.147 2.082-2.565 1.835-4.805 3.977-5.987 4.984-.789.657-.853.96-.46 1.433 1.126 1.357 2.171 2.492 4.416 4.749 2.564 2.607 4.872 4.932 6.178 6.05.926.777 2.24 1.135 3.426 1.31l.917.124c.461.29.401 1.31-.123 1.485a108.04 108.04 0 0 0-6.255-.175c-2.633 0-4.933.06-6.844.175-.525-.235-.593-1.25-.132-1.485l1.186-.184c.981-.115 1.647-.234 1.647-.593 0-.358-.265-.776-1.118-1.66l-7.04-7.377a2.839 2.839 0 0 0-2.044-.832c-1.178 0-1.254.184-1.254 2.027v3.268c0 4.276.136 4.877 2.508 5.167l1.58.184c.451.29.328 1.31-.133 1.485a114.49 114.49 0 0 0-6.379-.175c-2.372 0-4.348.06-6.323.175-.452-.175-.593-1.19-.064-1.485l1.446-.184c2.432-.29 2.505-.891 2.505-5.167V505.26z" fill="#010101"></path></svg>