<svg xmlns="http://www.w3.org/2000/svg" width="1260" height="765" viewBox="0 0 1008 612"><path d="M224.288 128.582h4.99c5.414 2.532 9.831 7.06 15.634 8.686 4.99-.277 9.776-2.624 14.803-2.014 3.474 1.607 6.209 4.38 9.665 6.006 5.95 1.81 13.01-.296 18.295 3.64 3.4 2.403 2.55 7.115 3.42 10.682 4.397.536 8.888.758 13.139 2.162 3.178 1.756 5.359 4.786 8.186 7.023 5.082 2.236 11.273 2.587 15.21 6.93 3.344 3.363 4.38 8.778 8.76 11.088 7.52 2.532 16.299.35 23.229 4.897 9.924 6.357 21.788 12.493 25.318 24.69 2.07-.278 4.12-.573 6.228-.666 4.12.37 5.396 4.805 7.3 7.762 4.065 2.18 9.24 3.918 10.903 8.704 1.552 4.417 2.106 9.111 3.585 13.565 10.7-2.033 24.024-2.31 31.675 6.8 3.659 6.487-.887 13.842-.869 20.68 6.524 9.85 21.086 7.725 27.868 17.168 2.458 3.123 1.904 7.91-.942 10.59-5.858 5.968-14.415 8.666-22.657 8.408-.924 4.047-1.441 8.242-3.16 12.049-2.827 3.234-7.466 3.659-11.014 5.821-5.581 3.363-10.257 8.889-17.057 9.72-3.66.02-7.282-.554-10.922-.85-2.569 4.343-6.154 8.261-11.403 9.056-5.636 1.072-10.275 6.948-16.373 4.712-3.216-1.977-4.842-5.562-6.93-8.556-5.544.924-11.255.832-16.688 2.365-.887 5.563 2.865 13.62-3.844 16.688-6.93 2.68-13.693-2.088-20.531-2.717-7.522 4.195-13.805 10.719-22.176 13.306-7.337 1.46-11.698 8.04-16.965 12.696-3.715 4.195-10.423 8.52-7.67 15.006 3.29 8.15 5.6 16.577 7.282 25.189 7.17 4.269 11.106 12.326 18.739 15.911 8.13 4.361 14.654 10.996 21.307 17.26-.924 1.35-1.848 2.68-2.772 4.03-7.06-2.754-14.414-4.658-21.899-5.766-1.035 3.27-2.051 6.56-3.068 9.831-9.831-3.751-19.422-8.87-29.919-10.404-5.267 2.254-7.947 7.669-10.903 12.215-3.16-4.454-6.247-9.11-10.59-12.511-6.32-.61-12.067 2.79-17.759 5.027l-3.123-3.345c1.33-2.292 2.642-4.602 3.955-6.893-8.797 1.33-17.464 3.418-26.058 5.765 6.34-10.108 15.284-18.092 25.208-24.541 9.35-5.397 13.102-18.887 7.872-28.257-2.864-5.784-2.162-13.749-8.094-17.667-8.612-5.525-13.916-14.655-22.213-20.55-7.319-5.137-13.214-11.938-18.167-19.293-4.195 1.404-8.482 3.345-13.028 2.661-4.657-.314-7.67-4.306-11.051-7.004-3.567 1.09-7.078 3.05-10.922 2.698-3.678-1.719-6.191-5.156-9.222-7.762-3.603 2.514-7.447 4.713-11.698 5.97-1.09-4.565-1.755-9.185-2.291-13.842-3.327.037-6.69.277-9.98-.259-2.624-4.287-4.028-9.406-7.854-12.862-3.64-3.807-8.833-7.577-8.26-13.528-.351-9.776 7.484-16.595 11.864-24.504 4.602-7.633 7.004-16.947 14.119-22.805 5.36-4.639 13.38-5.988 17.15-12.4 2.845-4.787 1.238-12.29 7.077-14.932 2.329-1.479 4.824-2.754 6.949-4.546 2.2-4.842 1.83-10.627 4.897-15.117 3.475-3.548 8.834-4.27 12.53-7.559.998-6.061.647-12.455 3.123-18.221 1.663-4.472 5.156-8.28 5.544-13.195.684-3.715 0-8.15 2.883-11.07 4.14-4.047 10.608-3.53 15.135-6.856 5.138-5.378 7.004-13.638 14.23-16.965z" fill="#010101"/><path d="M223.715 135.069c5.618-2.754 10.35 3.012 15.08 5.156 5.766 4.195 12.659.314 18.96.203 3.512 1.201 6.1 4.14 9.518 5.526 5.507 1.367 11.291 1.072 16.78 2.458 1.59 3.585 1.7 7.835 4.029 11.07 4.158 2.328 9.37 1.367 13.842 2.956 3.104 2.125 5.414 5.23 8.519 7.374 4.047 1.774 8.796 1.94 12.53 4.49 4.14 4.473 6.024 11.532 12.344 13.62 7.485 2.218 16.134.111 22.86 4.824 6.616 4.232 13.602 8.353 18.684 14.47 3.27 3.566 1.737 8.685 1.885 13.028 1.072 0 3.215.019 4.287.019 2.514-1.386 5.008-2.772 7.54-4.14 1.96 6.487 7.891 9.259 13.158 12.53 3.363 5.396 1.201 14.655 8.224 17.408 9.295.943 21.03-2.938 28.145 5.12 3.012 6.818-4.343 15.282.351 22.01 6.339 9.165 19.238 8.482 27 15.707 2.384 4.27-2.79 6.487-5.729 8.39-5.027 3.05-11.236 1.922-16.54 4.01-2.975 3.752-2.827 9.074-5.082 13.27-6.154 2.79-12.123 5.95-17.297 10.385-5.415 4.824-12.992 1.035-19.275 2.79-3.567 2.92-5.877 7.818-10.94 8.354-4.473.98-8.169 3.733-11.79 6.375a321.172 321.172 0 0 1-6.1-10.312c-7.54.721-15.56.315-22.62 3.4-5.358 3.734-2.198 11.2-2.383 16.596-7.355 0-14.322-3.88-21.64-3.068-8.723 4.177-15.358 12.548-25.43 13.824-2.439-1.571-4.545-4.177-7.669-4.27-7.946-1.034-15.948-1.7-23.913-2.624-3.64-8.944-13.324-13.176-22.583-11.642a383.854 383.854 0 0 1-7.928-3.585c-.868-2.458-1.59-4.953-2.735-7.281-5.396-1.996-11.291-2.736-16.133-6.043a38.646 38.646 0 0 0-15.505-6.099c-.074-1.404-.24-4.176-.314-5.563-5.618-.425-11.255-.184-16.891-.166 4.675 3.826 7.946 12.548 15.228 10.201-.37 4.362-.684 8.723-.961 13.103-2.588-2.015-5.082-4.214-7.965-5.803-3.826 1.57-7.319 3.9-11.255 5.193-5.895.647-9.942-4.713-14.507-7.54-3.252 1.164-6.505 2.328-9.739 3.511-2.957-2.606-5.636-5.766-9.277-7.466-3.456-.998-6.431 1.608-9.406 2.902-.758-4.14-1.96-8.187-3.789-11.976-2.975.13-5.95.5-8.926.315-3.197-7.097-8.907-12.308-13.823-18.13-2.44-7.336 3.05-13.841 6.893-19.515 5.23-6.893 8.02-15.19 12.53-22.509 4.934-7.78 15.301-9.11 20.956-16.17 3.216-3.807 3.271-9.074 5.082-13.546 3.142-3.03 7.41-4.657 10.35-7.928 2.383-4.361 2.346-9.591 4.268-14.156 4.121-3.455 10.22-4.361 13.306-9.018 1.922-7.374.74-15.597 5.174-22.269 3.641-5.58 3.918-12.308 5.452-18.59 4.029-3.346 9.906-3.16 14.137-6.247 4.824-4.066 6.82-10.35 11.033-14.932z" fill="#018748"/><path d="M279.285 300.467c2.717-2.458 4.768-5.507 7.023-8.372a1769.93 1769.93 0 0 0 1.626 9.702c2.883 1.276 7.152 1.146 8.28 4.731.055 3.844-3.069 7.263-6.95 7.374-5.414.092-10.718-1.257-16.077-1.903l1.035-5.692c-4.842 2.18-6.69 6.948-8.02 11.735-4.732-4.066-3.586-11.976.886-15.709 4.01-.998 8.224-.739 12.197-1.866zM218.337 312.83c3.364-8.094 12.9-9.757 20.421-11.772a55.928 55.928 0 0 1-.684 8.427c-5.747 3.955-13.102 3.345-19.737 3.345zM238.924 323.974c-2.05-7.965-1.349-16.41 4.62-22.602 1.534 4.306 2.126 8.852 2.255 13.399 1.368 1.7 2.754 3.4 4.14 5.1-3.05 2.828-6.875 4.121-11.015 4.103zM298.468 313.532c5.34-3.437 12.29-3.474 17.611-7.225 3.345 2.938 5.803 6.523 3.807 11.032 2.865.684 5.323 2.218 7.43 4.27 6.412-2.57 12.547-6.192 19.459-7.337.924 1.016 2.772 3.067 3.696 4.084 1.977-.167 3.955-.333 5.95-.518 1.35 1.608 2.68 3.234 4.03 4.86-.61 1.072-1.812 3.216-2.422 4.288-13.065.591-26.204.074-39.104 2.624-.813-2.31-1.626-4.638-2.42-6.948-.999 4.86-.24 11.809-5.933 13.878-6.764 2.55-11.513-6.69-10.497-12.16 2.939-2.883 7.485-1.977 11.218-2.735-.462-.554-1.35-1.645-1.793-2.199-3.825-1.645-7.724-3.326-11.032-5.914z" fill="#010101"/><path d="M219.797 318.559c3.622-7.115 12.123-4.01 17.002.037-3.086 7.318-11.864 1.59-17.002-.037zM269.103 317.358c4.952-4.454 11.476-1.497 16.52 1.09-.276 6.006-6.024 6.413-10.052 8.89-2.846 3.677-4.399 8.666-9.111 10.459-2.754-6.671-3.918-15.542 2.643-20.44z" fill="#010101"/><path d="M212.849 326.764c1.774 2.846 2.254 6.173 3.049 9.37 2.218-1.054 4.306-2.384 6.579-3.271-1.774 6.69-9.351 10.497-10.626 17.76 4.269 1.256 8.297 3.215 12.566 4.453 6.709-.998 10.7-7.3 16.245-10.57-1.165 4.102-2.976 7.964-4.731 11.827 3.954 1.866 8.168 3.363 11.66 6.061 2.884 3.567 4.898 7.91 8.908 10.478 1.793-8.02-1.404-15.966-1.016-24.024 2.217 3.511 3.77 7.355 5.71 11.014 1.164-1.016 3.474-3.067 4.639-4.084 1.81 5.175-2.735 9.72-1.793 14.97.13 3.972.887 11.438 6.413 10.57 5.045-6.172 2.328-14.452 1.072-21.419 4.62 2.902 6.542 8.187 9.628 12.419 5.507-3.16 10.94-6.727 17.353-7.799-5.822 7.245-13.51 12.77-19.035 20.273-4.232 6.043-.499 13.417 1.83 19.46 2.864 5.969 1.848 13.232 5.544 18.831 3.03 3.031 6.856 5.23 9.443 8.741 5.304 7.744 15.172 9.666 21.788 16.004-5.211-.536-10.441-1.256-15.69-.776l-2.938 6.986c-8.242-3.013-16.3-6.801-24.948-8.501-5.563-.259-9.351 4.416-12.88 8.002-2.33-2.643-4.51-5.507-7.448-7.522-4.86-2.107-10.11.13-14.895 1.405-.536-2.643-.13-6.284-3.549-7.004-4.768-.314-9.406 1.238-14.119 1.718 8.557-8.704 23.008-12.806 25.891-25.964 1.516-5.859 3.345-12.752-.314-18.185-4.029-6.006-2.458-14.562-8.131-19.626-4.288-3.696-9.314-6.56-12.733-11.18-7.133-9.019-17.778-14.323-24.8-23.433 3.585-.167 7.188.018 10.773-.204.887-5.6-1.275-11.254.555-16.78z" fill="#fff"/><path d="M314.767 335.727c7.817-5.562 18.185-7.595 27.48-5.026l-.61 6.597a956.06 956.06 0 0 0-6.56-2.532c-6.246 2.015-11.365 6.69-17.76 8.205-2.328-1.83-4.287-4.232-2.55-7.244z" fill="#010101"/><g><path d="M497.67 332.833c4.269-4.86 10.756-2.938 15.856-.776a269.022 269.022 0 0 1 5.95-3.308c.315 13.047-.036 26.113.167 39.178-2.458-.018-4.916-.018-7.374-.037-.757-11.66 3.124-25.854-6.301-34.965-5.267 7.226-5.12 16.466-5.822 24.986-.646 17.26-.59 34.558.037 51.818.74 8.852.388 18.444 5.71 26.057 2.625-2.642 5.637-5.359 5.988-9.314.924-8.537.24-17.13.388-25.687 2.458 0 4.898-.019 7.356-.019-.352 10.442 1.2 21.271-2.255 31.361-3.382 9.721-18.887 8.945-22.675-.129-5.544-11.162-5.895-24.08-7.06-36.277v-27.073c2.07-12.05 1.257-26.28 10.035-35.815zM673.602 334.127c5.082-7.152 20.143-6.302 21.677 3.4.536 4.214-.665 11.162-6.32 10.349-6.265-2.218-1.996-9.185-.444-13.343-2.125-.148-4.25-.258-6.375-.332-.351 7.373-.185 14.747-.167 22.12 2.052.037 4.121.093 6.191.167-.148.887-.425 2.66-.554 3.548-1.33.314-3.973.942-5.285 1.257-.296 3.788-.407 7.577-.426 11.383.315 20.366-.406 40.75.352 61.096 1.071.5 3.252 1.515 4.342 2.014l.37 3.179c-6.93-.074-13.897.203-20.809-.425 2.052-2.2 4.491-3.992 6.45-6.265.443-16.152.037-32.34.166-48.492-.148-7.41.61-14.913-.924-22.232-3.234-.48-5.488-2.106-6.764-4.897 2.57-.148 5.138-.259 7.707-.314.277-7.392-.832-14.932.813-22.213zM712.503 332.038c1.035-.572 3.123-1.755 4.176-2.347 11.236-.221 22.49-.037 33.745-.055-.831 12.326-.166 24.634-.092 36.96-2.477.056-4.971.093-7.448.148-.332-9.443 1.183-19.164-1.404-28.385-1.774-4.214-6.746-4.27-10.534-5.175-1.552 16.06-.444 32.285-.647 48.4 2.2-.74 6.136-.037 5.895-3.456.167-2.569.26-5.137.24-7.688 1.257-.018 3.734-.018 4.99-.037a3419.01 3419.01 0 0 0 0 27.536c-1.681 0-3.382.018-5.063.055-.056-3.659-.13-7.3-.333-10.921a209.223 209.223 0 0 0-5.71-1.202c.074 16.466-.795 33.006.536 49.435 3.807-.351 8.63-.333 10.478-4.435 2.809-9.425 1.183-19.423 1.552-29.107l6.856-.11c.296 12.418 1.165 24.855.074 37.274-11.993-.055-23.987.13-36-.074-.942-3.714 2.976-4.01 5.452-5.156.185-32.784.111-65.586.037-98.37a460.408 460.408 0 0 1-6.8-3.29zM529.548 335.143c7.466-4.49 12.64 8.168 5.97 12.05-7.337 3.64-11.883-8.04-5.97-12.05zM550.782 334.312h7.596c-.019 7.392-.037 14.765.018 22.157 2.643-.092 5.285-.166 7.947-.24l-.056 3.345c-2.883 1.201-8.87.924-7.854 5.655.222 23.692-.758 47.457.462 71.112 5.304-3.493 2.162-10.774 2.957-16.004 2.07-.055 4.158-.13 6.228-.166-.314 5.082.868 10.552-.98 15.412-3.659 7.854-18 4.99-17.63-3.955-.222-22.915-.037-45.85-.074-68.765-2.772-1.7-5.562-3.363-8.316-5.063 2.81-1.183 5.674-2.255 8.538-3.29 1.903-6.579 1.164-13.453 1.164-20.198zM523.062 356.34c4.675.018 9.37.037 14.045.018.148 25.318-.185 50.655.148 75.973 1.737 2.07 4.084 3.474 6.006 5.359-6.598 2.698-14.415.868-21.474.832 1.312-2.421 3.659-3.733 6.043-4.86.332-24.136.222-48.29.074-72.425a436 436 0 0 0-4.657-1.275c-.056-.905-.148-2.717-.185-3.622zM569.503 356.654c12.53-.554 25.077-.037 37.607-.333-.092.924-.296 2.772-.388 3.697-1.22.277-3.66.85-4.879 1.127-3.844 31.675-7.226 63.442-10.922 95.136-.11 4.084-3.382 6.69-6.43 8.834h-8.539c-7.355-4.824-7.225-15.912.518-20.329 4.97 4.657 2.291 11.125 1.367 16.836 2.273-1.275 6.635-1.035 6.69-4.546.869-7.744.592-15.56-.314-23.285-2.717-22.232-4.879-44.538-7.43-66.806.37-4.916-4.545-7.097-7.28-10.33zM641.982 357.356c4.86-1.922 11.661-1.663 14.747 3.197 4.103 6.32 4.121 14.23 4.972 21.474.277 14.71.924 29.569-1.645 44.113-1.072 4.786-2.939 10.478-7.984 12.308-4.287 1.016-9.887 1.053-12.843-2.79-2.828-3.678-3.752-8.39-4.454-12.882-1.848-17.316-2.014-34.853.222-52.132.924-4.916 2.347-10.59 6.985-13.288zM758.186 363.51c3.64-9.61 20.384-10.164 23.876-.203 1.664 4.768 1.867 9.887 1.922 14.914.056 17.223-.092 34.428.037 51.652-.573 3.29 3.29 4.028 5.249 5.729l-.056 3.622c-3.992-.148-7.946-.813-11.587-2.514-4.786 1.664-10.238 3.549-15.117 1.22-5.895-3.474-6.56-11.051-6.468-17.186-.296-9.721 3.493-19.312 9.906-26.538 2.9-3.419 6.542-6.283 8.5-10.404a83.963 83.963 0 0 0-.037-20.088c-1.94-5.304-9.59-3.013-10.552 1.774-2.18 5.95 1.46 11.31 3.807 16.466 1.22 5.691-8.63 7.151-9.942 1.681-1.978-6.375-1.922-13.823.462-20.125zM797.235 360.738c2.92-5.045 9.868-5.304 14.747-3.4 4.564 2.236 6.154 7.447 6.911 12.086 2.273 18.11 2.403 36.498-.018 54.609-.98 5.064-2.513 10.7-6.967 13.879-3.696 1.367-7.743.887-11.587 1.108a274.013 274.013 0 0 0-1.516 8.816c9.148 2.162 18.702-.093 27.776 2.162 4.343 1.275 5.526 5.84 6.524 9.702-2.957 1.922-5.914 3.862-9.111 5.415h-24.375c-2.883-1.497-5.526-3.382-8.15-5.23a199.605 199.605 0 0 1 4.028-6.949c-4.712-5.433-1.718-12.086.758-17.778-5.211-16.632-4.158-34.3-3.973-51.486.776-7.743.74-16.133 4.953-22.934z" fill="#010101"/><path d="M827.542 361.847c3.437-6.21 11.68-6.45 17.686-4.565 6.246 3.216 7.06 11.015 7.189 17.261.166 19.256-.074 38.531.092 57.788 1.774 1.016 3.548 2.032 5.34 3.067-.073 1.275-.129 2.57-.184 3.863-3.992-.185-7.947-.85-11.587-2.514-4.768 1.571-10.238 3.512-15.062 1.165-5.84-3.493-6.486-11.07-6.486-17.187-.259-10.534 4.232-20.864 11.569-28.33 3.123-3.585 7.817-6.986 7.28-12.326-.61-6.302 2.089-14.082-2.642-19.183-5.008-1.59-9.332 3.179-8.907 8.002-.924 6.154 5.23 10.57 4.213 16.762-1.183.406-3.53 1.2-4.694 1.607-1.035-.295-3.123-.85-4.158-1.145-2.846-7.67-3.53-16.836.351-24.265zM861.324 356.23c5.193.091 10.386.184 15.542.683 4.25-.166 9.499-1.663 12.88 1.81 5.249 5.046 3.79 13.03 4.048 19.571.277 18.74-.776 37.552.628 56.254 1.33.204 3.992.629 5.322.85v3.604c-12.806-.092-25.632-.222-38.438-.018.055-.906.184-2.717.258-3.641 1.146-.222 3.42-.702 4.565-.924.924-24.431.85-48.936.037-73.348a419.59 419.59 0 0 0-4.639-1.072c-.055-.942-.148-2.827-.203-3.77z" fill="#010101"/><path d="M585.84 359.482a164.92 164.92 0 0 1 7.41-.056c1.903 5.544.573 11.384.092 17.039-1.645 12.493-1.848 25.152-4.084 37.57-1.497-13.12-2.236-26.334-3.308-39.492-.351-4.75-1.737-9.665.333-14.23l-.444-.831zM644.532 363.325c1.017-.924 3.031-2.735 4.048-3.64 4.823 7.78 3.51 17.316 3.954 26.039-.314 14.728.85 29.568-1.22 44.204.481 2.92-4.305 7.503-6.024 3.308-2.384-3.659-1.719-8.334-2.014-12.474.24-10.478-1.312-20.957-.314-31.435.794-8.63-.703-17.556 1.57-26.002zM802.686 367.058c.333-2.716 1.83-5.082 2.883-7.521 5.766 4.472 4.62 12.252 5.12 18.684.886 16.54.535 33.135-.666 49.656.13 3.4-2.292 5.766-4.565 7.965-4.01-6.82-3.326-14.97-3.973-22.546.037-15.413-.832-30.917 1.201-46.238zM875.443 370.81c-.462-4.546 1.682-12.53 7.799-9.554 1.57 2.938 1.441 6.338 1.533 9.572-.018 16.651-.055 33.283 0 49.934-.092 5.23.647 10.7-1.663 15.597-2.291-.37-4.546-.794-6.782-1.275-1.922-21.344-.37-42.874-.887-64.274zM765.596 415.07c.389-8.52 3.66-16.78 9.167-23.285.314 13.62.092 27.221.11 40.841a261.76 261.76 0 0 1-6.652 2.625c-3.696-6.08-2.828-13.417-2.625-20.18zM834.214 413.573c.517-8.057 4.065-15.56 9.036-21.788.148 13.51.407 27.037-.092 40.527a22.284 22.284 0 0 1-6.468 3.03c-3.844-6.597-2.79-14.488-2.476-21.769zM797.678 457.815c8.316-5.674 19.367-2.661 28.792-2.107-.628 3.29-2.735 5.156-6.19 4.565-7.559-.24-15.746 1.626-22.602-2.458z" fill="#fff"/></g></svg>