<svg xmlns="http://www.w3.org/2000/svg" width="1600" height="1000" overflow="visible"><path fill="#FFF" d="M0 0h1600v1000H0z"/><path fill="#E3303C" d="m694.028 369.086-41.752-252.901 87.452 47.27 58.301-103.21 62.246 88.24 85.871-54.364-48.848 275.751 108.729-79.572 13.385 47.267 124.484-25.211-48.843 81.152 87.448 38.606-252.897 200.118 30.718 69.333-126.046-49.635-10.25 170.174H781.48l-2.36-170.96-148.906 55.149 40.973-62.237-253.697-208.79 90.604-25.214-13.391-115.815 75.634 28.363 12.602-56.725 111.089 103.211"/><path fill="#FFF" d="M799.605 526.661h44.116s2.366-36.244 32.312-36.244c29.936 0 33.873 41.758 33.873 41.758 9.454 0 48.847-18.125 48.847-67.756 0-26-24.429-65.393-65.391-65.393-40.972 0-53.568 25.208-53.568 25.208 22.842-74.848-7.884-143.387-40.188-181.206-32.298 37.819-63.029 106.358-40.182 181.206 0 0-12.602-25.208-53.574-25.208-40.967 0-65.395 39.393-65.395 65.393 0 49.631 39.396 67.756 48.852 67.756 0 0 3.942-41.758 33.878-41.758s32.303 36.244 32.303 36.244h44.117m0 33.089h43.33s0 48.06-43.33 72.482c-43.328-24.423-43.328-72.482-43.328-72.482h43.328m0-22.047h-65.389v12.607l130.78.005v-12.612h-65.391"/><path fill="#212020" d="M844.123 452.989c0 4.816 11.419-1.963 12.606-5.905 1.179-3.938-9.847-16.545-19.302-18.912-9.455-2.364-20.49-1.969-29.15 7.486-8.672 9.457-11.819 20.09-12.202 29.944-5.518-3.545-10.648-5.121-16.161-6.31-.397-12.602-.444-29.501 1.179-44.121.79-7.089 4.333-14.177 8.271-16.544 3.942-2.364 20.886-4.729 21.269 17.729 7.099-1.973 11.036-1.575 13.403-6.306 2.354-4.726-4.341-17.333-15.366-21.269-11.033-3.942-24.42-5.123-32.305 7.089-7.879 12.211-10.634 29.936-11.424 55.154-7.485.393-18.911 0-18.512 6.304.393 6.298 15.366 6.298 15.366 6.298s16.937 13.79 34.663 14.974c1.576 6.69 13.792 21.271 30.336 21.271 16.545 0 31.114-11.429 31.509-14.973.391-3.544-2.761-6.696-4.331-6.696s-9.456 9.848-21.67 9.455c-12.213-.393-18.124-14.177-17.721-24.03.393-9.847 7.088-22.456 18.114-26.001 11.036-3.544 11.428 8.668 11.428 15.363"/><path d="m232.894 706.457 10.609 15.512c-4.104 3.174-8.227 5.264-12.371 6.273-4.145 1.008-8.258.977-12.338-.096s-8.439-3.473-13.076-7.203c-5.626-4.523-9.564-9.037-11.814-13.541s-3.014-9.857-2.29-16.059c.723-6.201 3.669-12.516 8.837-18.943 6.891-8.568 14.464-13.32 22.72-14.26 8.256-.938 16.55 1.943 24.883 8.645 6.52 5.244 10.585 10.684 12.196 16.32s1.127 11.916-1.452 18.834l-16.651-8.217c.773-1.975 1.184-3.543 1.229-4.709.09-1.943-.248-3.766-1.013-5.465-.765-1.701-1.947-3.195-3.547-4.482-3.625-2.914-7.576-3.689-11.854-2.322-3.202.992-6.668 3.807-10.396 8.443-4.619 5.744-6.915 10.381-6.886 13.912.028 3.531 1.62 6.564 4.774 9.102 3.06 2.461 6.063 3.461 9.011 3.002s6.091-2.041 9.429-4.746zm48.227-13.065 16.792 11.9-38.427 54.224-16.792-11.9 38.427-54.224zm25.818 18.614 52.739 33.383-8.775 13.865-17.695-11.201-26.765 42.283-17.35-10.982 26.765-42.283-17.694-11.199 8.775-13.866zm55.001 34.909 20.047 10.86 1.11 26.12 22.484-13.338 19.929 10.796-41.114 21.649-13.257 24.472-18.094-9.802 13.257-24.472-4.362-46.285zm84.522 81.054c4.095-10.051 10.082-16.734 17.962-20.053 7.88-3.316 16.817-2.939 26.812 1.131 10.246 4.176 17.02 10.143 20.321 17.902s2.934 16.594-1.104 26.504c-2.932 7.193-6.546 12.6-10.844 16.219s-9.257 5.775-14.878 6.473-11.847-.346-18.677-3.129c-6.943-2.828-12.238-6.275-15.887-10.34-3.648-4.066-5.91-9.066-6.787-15.006s.15-12.506 3.082-19.701zm18.988 7.834c-2.532 6.215-3.196 11.15-1.993 14.807s3.792 6.295 7.768 7.914c4.087 1.666 7.792 1.625 11.115-.121 3.323-1.748 6.388-6.064 9.193-12.951 2.361-5.795 2.917-10.506 1.669-14.131-1.248-3.627-3.874-6.256-7.877-7.887-3.836-1.563-7.469-1.459-10.898.311s-6.422 5.788-8.977 12.058zm67.593-9.307 48.33 15.539-4.371 13.594-28.696-9.227-3.552 11.047 24.51 7.881-4.107 12.773-24.51-7.881-8.311 25.848-19.634-6.313 20.341-63.261zm90.823 26.551 20.129 4.064-9.915 49.1 31.414 6.344-3.239 16.041-51.543-10.408 13.154-65.141zm62.165 11.676 20.381 2.812-9.078 65.811-20.381-2.812 9.078-65.811zm30.484 4.557 62.277 4.354-1.145 16.372-20.895-1.461-3.491 49.931-20.488-1.433 3.491-49.931-20.895-1.461 1.146-16.371zm65.707 4.484 62.405-1.145.301 16.405-20.938.384.918 50.032-20.529.377-.918-50.032-20.938.384-.301-16.405zm70.75-1.932 20.419-2.1 5.122 49.809 31.868-3.277 1.674 16.271-52.287 5.377-6.796-66.08zm60.765-6.691 54.091-10.047 2.59 13.945-33.862 6.289 1.929 10.383 31.412-5.834 2.474 13.322-31.412 5.834 2.392 12.875 34.843-6.471 2.747 14.793-55.071 10.229-12.133-65.318zm151.095 3.396 18.799-.213c.361 5.178-.189 9.77-1.652 13.779-1.463 4.008-3.774 7.412-6.933 10.213-3.159 2.799-7.578 5.092-13.257 6.879-6.891 2.168-12.835 2.938-17.833 2.309s-9.876-2.969-14.635-7.016-8.375-10.004-10.852-17.875c-3.302-10.494-3.05-19.436.755-26.828 3.806-7.391 10.811-12.691 21.017-15.904 7.985-2.512 14.771-2.871 20.356-1.08 5.585 1.791 10.539 5.682 14.863 11.67l-16.086 9.291c-1.214-1.74-2.293-2.953-3.236-3.639-1.567-1.154-3.271-1.885-5.11-2.193s-3.739-.154-5.699.461c-4.44 1.398-7.28 4.256-8.52 8.574-.953 3.215-.535 7.662 1.252 13.34 2.213 7.035 4.796 11.521 7.751 13.459 2.954 1.938 6.362 2.299 10.226 1.084 3.748-1.18 6.249-3.123 7.504-5.83s1.685-6.202 1.29-10.481zm72.812-10.058-21.684 8.75 1.12 11.373-19.457 7.852-1.705-70.949 20.76-8.377 48.014 52.262-19.919 8.039-7.129-8.95zm-9.368-11.709-15.744-19.4 2.171 24.877 13.573-5.477zm17.231-51.788 17.182-8.518 38.752 21.826-16.33-32.941 17.344-8.598 29.519 59.547-17.344 8.598-38.509-21.643 16.209 32.697-17.304 8.578-29.519-59.546zm131.365-7.281-20.156 11.882 2.799 11.088-18.086 10.662-12.235-69.954 19.297-11.376 55.282 44.578-18.516 10.915-8.385-7.795zm-11.011-10.195-18.464-16.855 5.847 24.293 12.617-7.438zm9.761-54.02 25.118-17.303c4.952-3.41 9.414-5.494 13.388-6.25 3.973-.756 7.82-.563 11.542.58s7.179 3.072 10.372 5.789c3.192 2.717 6.074 5.941 8.646 9.674 4.027 5.848 6.485 10.84 7.374 14.979.889 4.141.9 8.113.036 11.918s-2.404 7.002-4.619 9.592c-3.021 3.549-6.038 6.361-9.049 8.436l-25.118 17.301-37.69-54.716zm25.442.746 20.593 29.895 4.144-2.854c3.533-2.434 5.776-4.557 6.729-6.369s1.18-3.986.681-6.521c-.5-2.537-2.258-5.994-5.273-10.373-3.994-5.797-7.674-9.115-11.039-9.953-3.365-.836-7.237.254-11.616 3.27l-4.219 2.905zm96.777-21.732-18.219 14.65 4.364 10.561-16.349 13.146-22.169-67.408 17.443-14.025 61.079 36.117L1407.255 709l-9.414-6.5zm-12.354-8.496-20.685-14.008 9.279 23.18 11.406-9.172z"/></svg>