<svg xmlns="http://www.w3.org/2000/svg" width="150mm" height="100mm" viewBox="0 0 150 100" shape-rendering="geometricPrecision" text-rendering="geometricPrecision" image-rendering="optimizeQuality" fill-rule="evenodd" clip-rule="evenodd"><defs><style>.str0{stroke:#393185;stroke-width:.2}.fil1{fill:#fefefe}.fil2,.fil5{fill:#f0b719;fill-rule:nonzero}.fil5{fill:#464a9a}</style></defs><g id="Capa_x0020_1"><g id="_292674568"><path id="_220651072" fill="#393185" d="M0 0h150v100H0z"/><circle id="_219236576" class="fil1" cx="75" cy="50" r="33.106"/><path id="_219236480" class="fil2" d="M75 16.394c9.28 0 17.682 3.761 23.763 9.843 6.082 6.081 9.843 14.483 9.843 23.763 0 9.28-3.761 17.682-9.843 23.763C92.682 79.845 84.28 83.606 75 83.606c-9.28 0-17.682-3.761-23.763-9.843C45.156 67.682 41.394 59.28 41.394 50c0-9.28 3.761-17.682 9.843-23.763C57.318 20.155 65.72 16.394 75 16.394zm23.056 10.55c-5.9-5.9-14.052-9.55-23.056-9.55-9.004 0-17.156 3.65-23.056 9.55-5.9 5.9-9.55 14.052-9.55 23.056 0 9.004 3.65 17.156 9.55 23.056 5.9 5.9 14.052 9.55 23.056 9.55 9.004 0 17.156-3.65 23.056-9.55 5.9-5.9 9.55-14.052 9.55-23.056 0-9.004-3.65-17.156-9.55-23.056z"/><circle id="_219236384" cx="75" cy="50" r="21.037" fill="#00a0e3"/><path id="_220652824" d="M58.025 61.656c11.01 14.44 29.943 9.435 35.33-2.03-1.201.315-2.552 1.102-3.827 1.562-17.407 6.28-17.557-5.503-31.503.468z" fill="#464a9a"/><path id="_219236288" class="fil2" d="M75 28.463a21.47 21.47 0 0 1 15.229 6.308A21.47 21.47 0 0 1 96.537 50a21.47 21.47 0 0 1-6.308 15.229A21.47 21.47 0 0 1 75 71.537a21.47 21.47 0 0 1-15.229-6.308 21.47 21.47 0 0 1-6.308-15.23 21.47 21.47 0 0 1 6.308-15.228 21.47 21.47 0 0 1 15.23-6.308zm14.522 7.015A20.473 20.473 0 0 0 75 29.463a20.473 20.473 0 0 0-14.522 6.015A20.473 20.473 0 0 0 54.463 50a20.473 20.473 0 0 0 6.015 14.522A20.473 20.473 0 0 0 75 70.537a20.473 20.473 0 0 0 14.522-6.015A20.473 20.473 0 0 0 95.537 50a20.473 20.473 0 0 0-6.015-14.522z"/><path id="_219235856" class="fil5" d="M44.193 49.457l1.895-.133.01.157c-.485.153-.848.4-1.09.742-.24.34-.347.716-.319 1.125.024.342.144.647.36.918.218.272.488.463.815.572.418.14.876.194 1.373.16.489-.034.93-.128 1.324-.28.393-.152.684-.366.87-.644.189-.278.267-.626.238-1.046a1.997 1.997 0 0 0-.292-.93c-.17-.276-.45-.56-.842-.852l.473-.033c.34.285.596.588.762.91.168.323.266.705.298 1.15.04.582-.04 1.109-.243 1.578-.202.47-.514.843-.934 1.12-.422.276-.88.432-1.375.467a2.898 2.898 0 0 1-1.513-.307 2.88 2.88 0 0 1-1.166-1.028 2.995 2.995 0 0 1-.49-1.451 3.372 3.372 0 0 1 .164-1.236c.079-.255.117-.415.113-.483a.306.306 0 0 0-.111-.216.52.52 0 0 0-.309-.103l-.01-.157zm5.971-3.867l.148.018-.35 2.845-.147-.018.022-.18a.756.756 0 0 0-.038-.392.361.361 0 0 0-.174-.184c-.06-.038-.226-.074-.5-.107l-3.58-.44c-.278-.034-.453-.04-.527-.019a.393.393 0 0 0-.204.156.727.727 0 0 0-.123.353l-.022.181-.149-.018.35-2.846.149.019-.023.18a.757.757 0 0 0 .037.392c.03.074.086.137.173.188.061.037.228.072.5.106l3.58.44c.278.033.454.04.527.018a.422.422 0 0 0 .205-.158.716.716 0 0 0 .124-.354l.022-.18zm-3.728-6.735l1.427.41-.04.138c-.354-.01-.617.013-.789.073a1.09 1.09 0 0 0-.463.318c-.076.084-.148.25-.218.496l-.113.393 4.065 1.165c.27.077.442.111.518.101a.421.421 0 0 0 .227-.124.725.725 0 0 0 .179-.334l.05-.175.143.041-.79 2.76-.144-.041.05-.175a.755.755 0 0 0 .024-.393.379.379 0 0 0-.142-.213c-.052-.046-.211-.108-.477-.184l-4.065-1.165-.11.382c-.101.354-.1.634.004.838.145.285.405.513.776.685l-.042.147-1.428-.41 1.358-4.733zm3.629-6.721l.129.077a.797.797 0 0 0-.08.439c.027.174.183.515.465 1.024l1.089 2.041 1.137.683c.242.146.4.225.476.235.073.01.155-.01.245-.057a.666.666 0 0 0 .25-.26l.157-.262.128.076-1.585 2.638-.128-.077.148-.246a.743.743 0 0 0 .125-.373.38.38 0 0 0-.082-.242c-.039-.06-.176-.16-.413-.302l-.943-.566-2.678-.104c-.53-.019-.855-.005-.981.043a.676.676 0 0 0-.325.295l-.129-.078 1.353-2.252.13.077-.061.1c-.082.137-.12.244-.113.322.006.078.032.13.076.156.083.05.348.083.793.1l2.068.086-.91-1.699c-.221-.417-.388-.66-.501-.729-.062-.037-.132-.038-.21-.003-.104.043-.226.168-.364.37l-.128-.077.862-1.435zm4.643-5.068c.648-.587 1.356-.848 2.122-.785.766.065 1.411.41 1.935 1.033.447.533.684 1.132.712 1.798.038.884-.32 1.642-1.074 2.275-.756.633-1.555.868-2.399.702-.665-.131-1.232-.474-1.697-1.029-.524-.624-.748-1.322-.673-2.094.076-.773.433-1.406 1.074-1.9zm.204.166c-.385.322-.512.764-.384 1.325.108.458.415.99.92 1.592.602.717 1.172 1.14 1.711 1.272.377.093.724.006 1.04-.26.212-.178.347-.379.403-.601.07-.284.034-.614-.108-.99-.142-.375-.409-.796-.8-1.262-.467-.557-.867-.929-1.201-1.117-.335-.189-.63-.273-.886-.252-.255.02-.487.118-.695.293zm5.258-3.606l1.126 1.951.138-.08c.209-.12.362-.252.46-.39a.93.93 0 0 0 .153-.515c.006-.203-.05-.44-.17-.71l.122-.07 1.377 2.384-.122.07c-.304-.425-.596-.651-.876-.68-.28-.03-.546.026-.795.17l-.138.08.84 1.453c.14.242.241.386.303.432a.42.42 0 0 0 .25.067.71.71 0 0 0 .356-.113l.158-.091.075.129-2.483 1.433-.075-.129.158-.09a.755.755 0 0 0 .29-.267.361.361 0 0 0 .042-.249c-.005-.07-.078-.224-.216-.463l-1.803-3.124c-.14-.242-.24-.387-.302-.433a.4.4 0 0 0-.247-.07.73.73 0 0 0-.356.116l-.158.09-.075-.13 4.006-2.312.786 1.363-.143.082c-.217-.301-.438-.49-.66-.567-.225-.076-.48-.072-.771.012-.16.046-.43.178-.808.396l-.442.255zm8.359-.427l.316 1.488c.062.29.118.469.17.535a.395.395 0 0 0 .228.14c.101.026.272.013.515-.038l.031.146-2.726.58-.03-.147c.248-.053.41-.111.49-.177a.418.418 0 0 0 .148-.22c.019-.081-.002-.266-.064-.556l-.74-3.48c-.061-.29-.118-.47-.169-.537a.398.398 0 0 0-.227-.14c-.099-.027-.27-.013-.516.04l-.032-.148 2.339-.497c.77-.163 1.35-.143 1.744.06.393.203.633.51.72.922.074.348.03.668-.134.963-.163.293-.426.525-.786.696-.241.118-.668.24-1.277.37zm-.558-2.626l.493 2.318c.089-.013.154-.024.2-.034.321-.068.548-.217.681-.445.134-.228.158-.543.073-.944-.084-.398-.234-.67-.447-.818-.214-.148-.493-.185-.838-.111l-.162.034zm6.019 1.906l.027 1.537c.005.296.026.483.063.558a.403.403 0 0 0 .195.181c.094.044.265.065.516.06l.003.15-2.807.048-.003-.149c.254-.004.425-.03.515-.08a.418.418 0 0 0 .187-.187c.035-.077.05-.262.045-.559l-.063-3.557c-.005-.297-.026-.483-.063-.56a.398.398 0 0 0-.197-.18c-.092-.045-.263-.064-.514-.06l-.003-.15 2.548-.045c.663-.011 1.149.027 1.458.113.308.086.562.25.761.495.197.242.3.53.306.861.007.404-.133.741-.42 1.011-.183.17-.44.3-.773.389l1.35 1.833c.177.237.303.384.375.442a.686.686 0 0 0 .388.131l.002.15-1.726.03-1.81-2.469-.36.007zm-.047-2.689l.042 2.401.23-.004c.374-.006.654-.044.839-.116a.838.838 0 0 0 .432-.38c.104-.182.153-.416.148-.704-.007-.419-.11-.725-.31-.921-.198-.197-.514-.29-.95-.283l-.431.007zm6.883 5.606l-.026.147-2.823-.498.026-.147.18.032a.756.756 0 0 0 .392-.018.362.362 0 0 0 .193-.164c.041-.057.086-.221.133-.493l.627-3.552c.048-.276.064-.451.046-.526a.394.394 0 0 0-.145-.212.727.727 0 0 0-.346-.14l-.18-.032.026-.148 2.824.497-.026.149-.18-.032a.758.758 0 0 0-.392.016.385.385 0 0 0-.197.163c-.04.059-.085.223-.132.494l-.626 3.552c-.05.276-.065.45-.047.525a.422.422 0 0 0 .148.213c.08.069.195.116.346.142l.18.032zm5.189-4.01c.827.282 1.398.775 1.715 1.476.314.702.326 1.432.034 2.192a2.923 2.923 0 0 1-1.227 1.495c-.755.462-1.592.516-2.51.163-.92-.353-1.513-.938-1.777-1.757-.208-.645-.183-1.307.077-1.984.292-.76.794-1.294 1.505-1.602.713-.31 1.44-.304 2.183.017zm-.046.259c-.47-.18-.917-.077-1.345.307-.349.315-.665.842-.947 1.576-.335.874-.43 1.578-.283 2.113.101.375.346.636.73.784.26.1.5.12.723.061.282-.077.553-.268.813-.575.26-.305.498-.743.716-1.311.26-.678.392-1.209.394-1.592.003-.385-.066-.683-.208-.898a1.215 1.215 0 0 0-.593-.465zm4.331 5.401l-.882 1.26c-.17.243-.262.406-.276.488a.403.403 0 0 0 .05.262c.05.09.177.208.383.352l-.086.122-2.3-1.61.086-.123c.208.146.362.225.464.238.1.013.188 0 .262-.041.073-.042.193-.183.364-.426l2.04-2.915c.17-.243.263-.406.278-.49a.399.399 0 0 0-.053-.261c-.048-.09-.175-.207-.381-.351l.086-.123 2.087 1.461c.544.38.914.697 1.114.948.199.25.307.534.325.848.017.312-.069.606-.26.877-.231.331-.542.52-.933.571-.248.03-.533-.016-.854-.14l.015 2.277c.004.296.019.488.043.578a.687.687 0 0 0 .237.334l-.086.122-1.414-.99-.014-3.061-.295-.207zm1.542-2.202l-1.377 1.967.189.132c.306.215.555.348.747.399.192.05.383.032.573-.054.19-.086.368-.246.533-.483.24-.342.336-.65.29-.927-.044-.275-.245-.537-.6-.787l-.355-.247zm6.32 10.89l-1.625 1.052-3.065-3.784.116-.094.115.142c.1.123.203.205.308.244a.37.37 0 0 0 .254.004c.067-.017.209-.112.423-.286l2.803-2.27c.218-.176.344-.298.38-.365a.403.403 0 0 0 .03-.256.727.727 0 0 0-.17-.333l-.114-.142.117-.095 1.84 2.273-.116.095-.15-.186a.761.761 0 0 0-.308-.246.397.397 0 0 0-.256-.006c-.069.018-.21.113-.424.286l-2.714 2.198c-.218.177-.347.303-.386.375a.32.32 0 0 0-.014.257c.023.068.117.201.28.402l.287.355c.183.226.376.383.578.47.2.086.432.115.693.084.261-.028.599-.129 1.014-.302l.105.129zm1.372 4l-.818-1.754-.582.017a1.177 1.177 0 0 0-.447.083.364.364 0 0 0-.228.312c-.01.084.037.26.138.528l-.135.063-.771-1.652.135-.063c.11.165.253.278.428.335.173.06.49.085.947.076l4.794-.071.033.07-3.24 3.691c-.307.352-.484.605-.533.762a.639.639 0 0 0 .032.414l-.135.063-1.121-2.404.135-.063.046.1c.09.192.18.315.27.368a.216.216 0 0 0 .208.002.484.484 0 0 0 .124-.085 3.64 3.64 0 0 0 .224-.239l.496-.552zm.213-.25l1.367-1.538-2.067.035.7 1.502zm3.316 5.994l-2.001 2.353c-.281.333-.463.608-.545.823a.87.87 0 0 0-.04.47l-.147.028-.545-2.802.147-.029c.05.175.1.283.15.327a.18.18 0 0 0 .162.05c.11-.022.297-.184.556-.488l1.313-1.536-.206-.167-1.468.286c-.28.054-.452.105-.515.15a.403.403 0 0 0-.141.216c-.032.101-.029.25.01.448l-.147.029-.527-2.715.146-.029.035.18c.03.155.083.275.157.36.05.061.124.102.222.12.068.019.237 0 .508-.053l3.54-.688c.275-.054.445-.1.508-.144a.4.4 0 0 0 .146-.21.73.73 0 0 0 .008-.375l-.035-.179.147-.029.521 2.679-.148.029c-.035-.182-.088-.316-.159-.4a.393.393 0 0 0-.219-.127c-.072-.02-.245-.003-.517.05l-1.675.325 2.004 1.683c.278.234.486.339.62.313.101-.02.169-.092.205-.217.019-.064.008-.213-.029-.445l.148-.028.408 2.1-.147.028a1.205 1.205 0 0 0-.186-.422c-.076-.098-.308-.308-.695-.634l-1.569-1.33zm2.076 6.248l-2.226-.156-.008.11c-.024.346.067.604.274.776.207.171.522.293.943.367l-.011.152-2.864-.2.01-.153c.316-.01.575-.06.782-.15.207-.09.349-.2.427-.334.077-.131.126-.329.144-.589l-1.54-.108c-.302-.02-.486-.021-.556 0a.324.324 0 0 0-.175.132c-.049.066-.077.177-.088.334l-.023.326c-.036.511.054.928.27 1.253.213.325.559.57 1.034.74l-.01.148-1.722-.366.33-4.728.149.01-.013.182a.756.756 0 0 0 .059.388.362.362 0 0 0 .183.175c.06.035.23.062.504.081l3.598.252c.248.017.4.02.457.01a.388.388 0 0 0 .228-.133c.083-.097.13-.234.143-.412l.012-.181.15.01-.32 4.578-1.618-.113.011-.153c.4-.05.692-.14.874-.27a1.21 1.21 0 0 0 .42-.572c.06-.146.104-.427.133-.841l.04-.565z"/><path id="_219235928" class="fil5" d="M61.23 75.188l2.28-1.694 1.39.835-.056.094-.11-.067a.558.558 0 0 0-.273-.093.298.298 0 0 0-.173.058c-.042.03-.115.129-.217.298L62.72 76.87c-.105.175-.161.29-.17.344a.295.295 0 0 0 .045.183c.038.068.103.13.2.188l.11.066-.055.093-1.784-1.072.056-.092.11.066c.102.061.193.091.275.093a.285.285 0 0 0 .174-.061c.042-.029.114-.129.218-.3l1.52-2.532-3.18 2.329-.062-.037.529-3.892-1.445 2.406c-.101.167-.16.274-.174.318a.417.417 0 0 0 .02.29c.04.097.14.193.296.286l-.056.093-1.17-.702.057-.093.035.021a.628.628 0 0 0 .234.09c.08.014.152.009.21-.014a.577.577 0 0 0 .19-.137c.014-.017.067-.101.16-.254l1.298-2.161c.103-.173.159-.286.166-.34a.298.298 0 0 0-.045-.182.543.543 0 0 0-.2-.186l-.108-.066.056-.093 1.395.838-.393 2.828zm3.884 3.12l-.04.1-1.932-.78.041-.1.123.049a.547.547 0 0 0 .281.047.261.261 0 0 0 .162-.087c.038-.035.094-.145.17-.331l.981-2.43c.076-.189.114-.31.113-.366a.287.287 0 0 0-.071-.173.527.527 0 0 0-.225-.152l-.123-.05.04-.101 1.932.78-.04.101-.123-.05a.55.55 0 0 0-.282-.047.28.28 0 0 0-.164.086c-.038.036-.094.146-.169.331l-.981 2.43c-.077.188-.114.31-.113.366a.305.305 0 0 0 .073.173.52.52 0 0 0 .225.154l.122.05zm2.796-3.206l1.31 2.873.414-1.662c.058-.231.064-.396.018-.495-.064-.132-.203-.224-.42-.274l.027-.106 1.277.319-.027.106c-.168-.02-.284-.02-.349-.002a.335.335 0 0 0-.172.13c-.05.067-.097.193-.143.375l-.802 3.219-.097-.025-1.812-3.87-.612 2.458c-.056.222-.043.384.04.487a.57.57 0 0 0 .32.205l.09.023-.025.105-1.371-.342.026-.105c.213.051.372.044.477-.02.105-.065.183-.2.234-.405l.68-2.729-.056-.123a.789.789 0 0 0-.167-.257.676.676 0 0 0-.257-.12l.026-.107 1.372.342zm4.25.808l1.742 2.633.15-1.706c.02-.238 0-.402-.06-.492-.085-.12-.237-.19-.458-.205l.01-.109 1.31.115-.009.11c-.17.005-.284.023-.345.052a.333.333 0 0 0-.15.155c-.038.074-.066.206-.082.393l-.29 3.305-.099-.01-2.394-3.539-.221 2.524c-.02.228.018.386.116.475a.57.57 0 0 0 .348.152l.093.008-.009.108-1.408-.123.01-.108c.219.017.375-.014.468-.095.094-.08.15-.225.168-.436l.245-2.801-.075-.113a.786.786 0 0 0-.205-.228.673.673 0 0 0-.273-.079l.01-.109 1.407.123zm4.112.377l.141 1.615.08-.007c.25-.022.426-.117.526-.284.099-.168.15-.408.155-.719l.111-.01.182 2.079-.11.01a1.58 1.58 0 0 0-.197-.544c-.089-.139-.184-.228-.288-.269-.104-.04-.25-.052-.44-.036l.098 1.118c.02.219.04.35.063.398.023.047.06.084.115.11.052.028.136.036.25.026l.236-.02c.37-.033.66-.145.869-.336.209-.19.346-.466.413-.827l.108-.009-.068 1.277-3.43.3-.01-.108.132-.011a.55.55 0 0 0 .272-.086.261.261 0 0 0 .105-.151c.018-.048.018-.172 0-.372l-.228-2.61c-.016-.18-.03-.29-.044-.33a.281.281 0 0 0-.121-.148.506.506 0 0 0-.312-.055l-.132.011-.01-.109 3.322-.29.103 1.174-.111.01c-.082-.282-.18-.481-.293-.597a.88.88 0 0 0-.459-.237c-.111-.026-.318-.026-.618.001l-.41.036zm4.704-.957l.286 1.297-.12.023a1.357 1.357 0 0 0-.564-.71c-.257-.156-.511-.21-.765-.16-.196.038-.342.12-.435.248a.485.485 0 0 0-.102.396c.016.085.052.16.106.218.072.08.18.152.32.216.103.046.333.118.691.216.502.136.851.29 1.05.458.197.169.32.382.37.64.064.327-.01.633-.218.918-.21.285-.51.466-.902.542a1.615 1.615 0 0 1-.356.03 2.806 2.806 0 0 1-.44-.061.636.636 0 0 0-.24-.013c-.05.01-.099.039-.146.088a.409.409 0 0 0-.102.203l-.106.02-.287-1.476.106-.021c.165.399.39.683.674.855.283.171.565.23.843.176.216-.042.376-.134.48-.276a.55.55 0 0 0 .113-.447.545.545 0 0 0-.126-.255.872.872 0 0 0-.271-.202 3.485 3.485 0 0 0-.59-.201c-.39-.106-.674-.205-.854-.298a1.394 1.394 0 0 1-.44-.343 1.042 1.042 0 0 1-.223-.477c-.06-.311.003-.6.189-.863.187-.264.454-.429.802-.497.127-.024.253-.033.378-.026.095.006.213.027.354.065.143.037.24.05.291.04a.157.157 0 0 0 .11-.069c.023-.036.035-.115.037-.237l.087-.017zm2.091-.533c.589-.24 1.136-.241 1.644-.008.507.235.862.63 1.064 1.186.173.475.187.943.04 1.405-.194.613-.627 1.041-1.3 1.286-.672.245-1.276.206-1.811-.117a2.114 2.114 0 0 1-.903-1.124c-.203-.556-.182-1.089.06-1.597.245-.509.646-.852 1.206-1.03zm.098.164c-.343.125-.539.395-.59.81-.042.339.036.778.232 1.315.232.64.516 1.07.852 1.294.234.157.492.184.774.081a.844.844 0 0 0 .425-.31c.118-.177.176-.411.172-.703-.004-.291-.081-.645-.233-1.06-.18-.496-.36-.85-.542-1.061-.182-.213-.362-.343-.543-.393a.882.882 0 0 0-.547.027zm5.113-2.41l.49.96-.094.048c-.17-.193-.312-.321-.43-.383a.794.794 0 0 0-.398-.088c-.082.001-.206.045-.372.13l-.264.134 1.395 2.738c.092.181.16.29.203.325a.306.306 0 0 0 .178.059.526.526 0 0 0 .266-.07l.118-.06.05.096-1.86.947-.048-.096.118-.06a.548.548 0 0 0 .22-.182.276.276 0 0 0 .043-.181c-.001-.051-.048-.166-.139-.345l-1.395-2.738-.257.132c-.238.121-.387.26-.444.417-.08.218-.072.47.021.751l-.1.051-.49-.962 3.189-1.624zm3.115 1.333l-1.18.767.07.416c.025.139.06.243.106.313a.264.264 0 0 0 .248.133c.06-.001.183-.053.365-.152l.06.09-1.112.722-.059-.09a.592.592 0 0 0 .198-.342c.025-.131.012-.362-.04-.69l-.537-3.442.047-.03 2.984 1.957c.284.185.484.288.602.307a.465.465 0 0 0 .295-.065l.059.09-1.617 1.05-.059-.09.067-.044c.13-.084.209-.162.238-.232.019-.05.013-.1-.02-.149a.352.352 0 0 0-.074-.08 2.636 2.636 0 0 0-.194-.138l-.448-.3zm-.203-.128l-1.244-.827.234 1.483 1.01-.656z"/><path id="_219235616" class="fil1 str0" d="M75.53 31.081V59.32H57.858z"/><path id="_219235760" class="fil1 str0" d="M76.83 34.475l15.312 24.844H76.831z"/></g></g></svg>