<svg xmlns="http://www.w3.org/2000/svg" width="650" height="487.5" version="1"><path fill="#f5dc0f" d="M0 0h650v487.5H0z"/><path fill="#002673" d="M0 162.5h650V325H0z"/><path d="M325 411.486c-4.513-6.853-20.53-10.347-25.371-11.667l-62.23-16.967c-36.317-9.902-47.022-37.69-47.022-68.943V101.07c39.94 14.116 85.71 11.717 115.079-9.616L325 77.257l19.544 14.197c29.368 21.333 75.138 23.732 115.08 9.616v212.84c0 31.253-10.706 59.04-47.023 68.942l-62.23 16.967c-4.841 1.32-20.858 4.814-25.371 11.667z" fill="#c70f2e" fill-rule="evenodd"/><path d="m325 74.247-3.625 3.25v132.128h-131l96.5 186.719c3.421-11.666 18.207-20.063 38.125-20.063 19.565 0 34.704 8.397 38.125 20.063l96.5-186.719h-131V77.497L325 74.247z" fill="#f5dc0f" fill-rule="evenodd"/><path d="M391.188 113.188c-1.063 0-2.077 1.172-.97 2.562v2.969l-4.593 6.562v7.063c-1.25.364-2.5.746-3.75 2v3.062c-9.297 4.523-15.123 11.182-16.594 21.656 4.716-3.393 18.399-4.062 25.906-4.062 7.633 0 21.223.669 25.938 4.063-1.47-10.475-7.328-17.134-16.625-21.657v-3.062c-1.25-1.254-2.5-1.636-3.75-2v-7.063l-4.594-6.562v-2.969c1.108-1.39.094-2.563-.969-2.563zm0 31.624c1.141 0 2.937.946 2.937 2.72v2.218c0 1.265-1.487 2.406-2.938 2.406-1.467 0-2.937-1.141-2.937-2.406v-2.219c0-1.773 1.796-2.719 2.938-2.719zm-12.563 1.25c1.048 0 2.507.892 2.188 2.594l-.407 2.156c-.228 1.215-1.778 2.313-3.125 2.313-1.33 0-2.478-1.098-2.25-2.313l.406-2.156c.32-1.702 2.14-2.594 3.188-2.594zm25.156 0c1.048 0 2.837.892 3.156 2.594l.407 2.156c.228 1.215-.92 2.313-2.25 2.313-1.347 0-2.897-1.098-3.125-2.313l-.406-2.156c-.32-1.702 1.17-2.594 2.218-2.594zm-12.594 11.875c-13.675 0-24.194 2.354-27.875 4.407v5.469c4.544-1.53 14.458-3.438 27.875-3.438 13.418 0 23.332 1.908 27.875 3.438v-5.47c-3.68-2.052-14.2-4.405-27.875-4.405zm0 9.75c-11.336 0-27.124 1.264-30.5 3.563v9.156c5.328 2.17 10.41 4.99 15.344 8.156a48.69 48.69 0 0 1 6.125-.187 57.277 57.277 0 0 1 14.813 2.469c6.919-5.35 15.65-8.592 24.719-8.406V171.25c-3.376-2.3-19.164-3.563-30.5-3.563zm-2.937 4.813h5.875v9.563h-5.875V172.5zm-11.188.375v9.188h-5.875v-8.844l5.875-.344zm28.282 0 5.875.344v8.844h-5.875v-9.188zm-62.594 7.063c-.21.002-.415.024-.625.03.518 3.169 3.215 6.461 11 9.907 5.33 2.36 10.187 6 11 9-3.745.408-7.799.39-10.625 0-1.746-.241-1.877 1.517-.375 2.375 4.11 2.346 10 2.604 17.625 1.25 6.487-1.152 13.6.015 20.156.906-6.96-5.304-14.14-10.527-21.312-14.687-9.191-5.332-18.305-8.877-26.844-8.781zm39.75 11.812c-.548.001-1.059.022-1.563.063 1.66 1.028 7.91 5.664 10.188 7.375 2.438 1.83 4.58 3.53 8.031 3.125 6.15-.722 8.133-.372 14.531 1.25 2.486.63 4.687.355 7.094-.25-3.595-2.1-7.252-4.132-12.5-5.313-3.263-.735-5.779-1.352-8.625-2.531-4.942-2.048-11.958-3.729-17.156-3.719zm66.75-16.375c-8.93.28-16.592 4.695-22.25 11.25-10.49-2.48-21.12 1.968-25.969 5.625 2.09.864 4.018 1.408 6.406 1.969 7.258-2.232 14.46-1.784 21.438-.719 6.942-6.635 14.971-13.875 21.75-15.625 1.834-.473 2.849-2.633-1.375-2.5zm-176.044-47.507-33.875.437-17.375 18 20.281 5.125 56.157-1.375v-14.737l-8.75.156.033 6.948-16.47-14.554zm-52.5 21.218v10.032l19.813 7.062v-12.094l-19.813-5zm77.688 3.969-54.875 1.344v12.344l54.875-2.063v-11.625zm-77.688 9.25v9.594l19.813 8.937v-11.468l-19.813-7.063zm77.688 5.375-54.875 2.063v11.843l54.875-2.625V167.68zm-77.688 7.5v11.563l19.813 11.28V184.15l-19.813-8.969zm77.688 6.813-19 .906v13.875l19-1.063v-13.718zm-33.5 1.593-21.375 1.032v14.156l21.375-1.188v-14z" fill="#f5dc0f" fill-rule="evenodd"/><path d="M434.844 226.344c-.462.053-.949.278-1.469.656-8.587 6.239-32.146 6.907-66.094 8.875-22.563 1.308-34.257 14.235-36.906 33.094 7.538.821 14.488 3.87 20.781 8.031 4.617-2.156 10.721-2.52 18.125-2.844 15.631-.681 17.584-5.617 20.969-10.844-9.364 1.633-18.65-3.215-28.5.75 3.409-2.865 7.234-3.712 11.25-3.75 6.033-.056 12.58 1.774 19.125.688 7.457-1.237 13.656-5.746 16.5-13.719-10.346 2.656-20.988-1.966-31.75 2.75 8.595-7.48 20.323-3.124 31.813-4.844 6.666-.997 13.157-3.323 19.02-6.772 4.126-2.714 8.544-5.315 8.917-10.571-.339-1.163-1.011-1.59-1.781-1.5z" fill="#002673" fill-rule="evenodd"/><path d="m325 31.328 7.462 22.963h24.145l-19.533 14.194 7.46 22.964L325 77.257 305.466 91.45l7.46-22.964-19.533-14.193 24.145-.001L325 31.328z" fill="#002673"/><path d="M325 469.938c-54.32 0-100.956-2.546-154.442-11.375-13.456-2.222-25-4.107-22.928-18.5 1.319-9.165-6.094-14.604-15.844-16.157-18.91-3.012-37.536-8.697-52.232-16.281 17.12-.964 30.935-6.15 39.448-13.125-11.152-7.41-18.966-18.591-24.602-32.844 18.767 9.685 34.006 15.875 58.221 16.594 24.613.73 25.85 13.678 24.86 21.906-.945 7.868 6.875 12.961 13.815 14.031 39.14 6.037 87.65 8.782 133.704 8.782s94.564-2.745 133.704-8.781c6.94-1.07 14.76-6.164 13.815-14.032-.99-8.228.247-21.175 24.86-21.906 24.215-.719 39.454-6.909 58.221-16.594-5.636 14.253-13.45 25.434-24.602 32.844 8.513 6.974 22.328 12.16 39.448 13.125-14.696 7.584-33.322 13.269-52.232 16.281-9.75 1.553-17.163 6.992-15.844 16.156 2.071 14.394-9.472 16.28-22.928 18.5-53.486 8.83-100.122 11.375-154.442 11.375z" fill="#c70f2e" fill-rule="evenodd"/><path style="text-align:center;line-height:125%;-inkscape-font-specification:Windsor BT" d="M173.139 444.516a8.457 8.457 0 0 1-.408-1.236c-.089-.375-.114-.692-.075-.95.052-.347.19-.61.414-.786a.996.996 0 0 1 .8-.197c.45.067 1.11.541 1.979 1.422.514.524.935.923 1.263 1.195 1.46 1.246 2.98 2.217 4.56 2.914 1.582.697 3.428 1.203 5.54 1.519 1.983.296 3.612.19 4.886-.317s1.71-.68 1.877-1.8c.152-1.017-.25-1.768-1.207-2.681-.956-.914-3-2.17-6.13-3.77a90.192 90.192 0 0 0-2.184-1.117c-2.926-1.477-4.487-3.412-5.254-4.092-1.055-.961-1.787-1.943-2.197-2.945-.41-1.003-.528-2.077-.357-3.223.314-2.1 1.426-3.684 3.337-4.754 1.911-1.07 4.225-1.403 6.942-.997 1.056.158 2.115.405 3.178.742 1.062.336 1.612.507 1.65.513.297.044.54.021.732-.068.191-.09.38-.273.565-.548.17-.251.348-.429.534-.532a.964.964 0 0 1 .628-.104c.322.048.638.22.95.517.31.297.662.764 1.054 1.402l2.62 4.144c.404.64.667 1.126.788 1.46.121.334.162.637.121.907-.046.31-.198.553-.455.732a1.166 1.166 0 0 1-.868.196c-.425-.064-1.125-.537-2.099-1.42-.5-.443-.901-.793-1.205-1.049-.997-.82-1.964-1.462-2.902-1.924a9.546 9.546 0 0 0-2.817-.905c-1.3-.195-2.35-.15-3.15.131-.8.282-1.25.765-1.352 1.447-.161 1.082 1.271 3.26 4.869 4.825a178.94 178.94 0 0 1 3.148 1.399c3.482 1.626 6.182 2.498 7.528 4.325 1.347 1.827 1.83 4.015 1.448 6.565-.406 2.717-1.805 4.723-4.197 6.018-2.393 1.295-5.437 1.666-9.132 1.114a35.845 35.845 0 0 1-5.722-1.36c-1.934-.624-2.946-.943-3.036-.957-.22-.032-.593.244-1.122.83-.528.586-1.044.841-1.546.766a1.351 1.351 0 0 1-.836-.48c-.236-.272-.536-.824-.898-1.655l-2.262-5.216zm44.29-2.477a3.28 3.28 0 0 0-.182.413c-.038.114-.061.21-.07.288-.038.362.117.63.465.805.348.174 1.04.317 2.076.426 1.32.14 2.37.157 3.147.05.778-.108 1.183-.317 1.216-.628a1.809 1.809 0 0 0-.005-.423 4.53 4.53 0 0 0-.11-.532l-1.728-7.038a1.86 1.86 0 0 0-.21-.523c-.084-.133-.165-.204-.243-.212-.116-.013-.24.037-.369.147a1.46 1.46 0 0 0-.344.465l-3.643 6.762zm-11.62 11.967c-.544-.058-.951-.232-1.221-.523-.27-.29-.38-.681-.328-1.173.084-.79.635-1.295 1.654-1.514a8.61 8.61 0 0 0 .583-.135c.42-.125.821-.39 1.204-.795.384-.405.924-1.179 1.621-2.323l11.452-19.27c.063-.099.135-.222.216-.37.32-.556.876-.791 1.666-.708l3.418.363c.557.059.906.165 1.047.317.14.153.298.585.471 1.297l5.274 20.829c.02.067.047.175.084.323.464 1.922 1.14 3.146 2.027 3.672.073.047.166.096.278.147.854.47 1.243 1.062 1.168 1.774-.05.466-.222.788-.515.966-.294.179-.765.234-1.412.165l-8.799-.933c-.828-.088-1.386-.262-1.673-.521-.286-.26-.4-.668-.341-1.225a1.37 1.37 0 0 1 .327-.77 1.59 1.59 0 0 1 .747-.471c.11-.04.244-.079.405-.114.537-.126.83-.423.88-.889.029-.272-.03-.704-.177-1.295-.147-.592-.325-1.07-.536-1.432-.3-.503-.653-.875-1.06-1.114-.407-.24-1.005-.401-1.795-.485l-4.642-.492c-.738-.079-1.376-.077-1.915.003-.539.08-.964.235-1.277.464-.4.31-.791.796-1.175 1.456-.385.66-.601 1.223-.65 1.689-.037.336.204.657.722.96.05.032.08.055.091.069.433.242.73.487.895.733.163.247.228.532.194.855-.047.44-.232.768-.556.982-.324.215-.745.295-1.263.24l-7.09-.752zm38.226 3.793c-.818-.058-1.41-.236-1.773-.536-.364-.3-.526-.736-.486-1.307.045-.636.528-1.099 1.449-1.386.267-.086.46-.15.581-.194.323-.134.562-.33.717-.586.155-.257.25-.638.286-1.145l1.267-18.002c.036-.507-.005-.898-.123-1.174-.117-.276-.326-.503-.627-.68a5.928 5.928 0 0 0-.549-.274c-.871-.414-1.285-.939-1.24-1.575.041-.585.263-.997.665-1.236.402-.24 1.012-.33 1.83-.272l7.95.56c.817.057 1.406.232 1.764.525.357.292.516.731.475 1.316-.045.636-.521 1.099-1.43 1.387a8.28 8.28 0 0 0-.561.195c-.336.133-.581.328-.737.585-.155.257-.25.638-.286 1.145l-1.267 18.002c-.036.507.005.898.123 1.174.118.276.333.503.647.682.1.059.277.15.53.272.858.413 1.265.937 1.22 1.574-.041.584-.26.996-.655 1.236-.396.24-1.002.331-1.82.273l-7.95-.56zm21.312-22.912c.008-.182-.093-.365-.3-.549-.208-.184-.51-.362-.908-.535-.474-.2-.791-.412-.952-.634-.16-.22-.234-.507-.22-.859.024-.585.233-1.004.627-1.255.394-.251 1.001-.36 1.821-.328l6.167.245c.377.015.704.077.98.186.276.108.514.27.713.487l11.75 13.7.344-8.625c.02-.508-.033-.897-.16-1.17-.125-.272-.341-.492-.647-.66-.14-.071-.326-.157-.557-.257-.897-.388-1.332-.9-1.307-1.538.023-.585.232-1.004.626-1.255.395-.252 1.008-.36 1.841-.328l4.918.196c.833.033 1.436.19 1.809.472s.548.716.525 1.302c-.026.637-.5 1.113-1.425 1.428a6.787 6.787 0 0 0-.556.213c-.332.143-.568.346-.708.607-.141.262-.221.646-.242 1.153l-.9 22.658c-.01.208-.054.353-.135.435-.082.081-.22.118-.415.11l-3.24-.129c-.195-.007-.33-.055-.405-.143-.074-.087-.108-.235-.1-.443l.107-2.674c.04-.989-.483-2.104-1.567-3.346a8.216 8.216 0 0 0-.243-.284l-12.775-14.953-.635 15.945c-.02.52.029.92.148 1.198.12.278.339.502.658.671.115.057.3.142.556.257.884.387 1.313.9 1.288 1.537-.024.598-.23 1.026-.618 1.285-.388.258-.999.37-1.831.337l-5.406-.215c-.833-.033-1.436-.194-1.809-.482-.373-.289-.547-.732-.523-1.33.025-.638.487-1.115 1.386-1.43a8.61 8.61 0 0 0 .555-.213c.345-.143.594-.351.749-.625.154-.274.241-.665.261-1.173l.755-18.989zm42.92 25.535c-.834-.008-1.44-.15-1.822-.427-.382-.277-.57-.702-.565-1.275.006-.638.46-1.129 1.362-1.472.26-.101.45-.178.568-.229.327-.153.557-.363.69-.628.132-.266.2-.653.206-1.16l.163-16.93c.007-.73-.109-1.193-.348-1.39-.24-.198-.795-.301-1.667-.31-1.12-.01-2.075.131-2.866.423-.79.293-1.737.902-2.839 1.83-.315.27-.722.644-1.221 1.121-.92.864-1.575 1.294-1.966 1.29a.888.888 0 0 1-.69-.299c-.174-.197-.26-.458-.257-.784.006-.546 1.093-2.717 3.264-6.513l.16-.291c.41-.725.782-1.253 1.117-1.582.336-.328.66-.491.972-.489.325.003.717.228 1.175.675.458.447 1.039.674 1.742.68l15.038.14c.743.007 1.408-.166 1.998-.518.589-.353.968-.528 1.137-.527.56.005 1.16.662 1.798 1.97.115.249.211.445.288.589.933 1.857 1.597 3.27 1.992 4.237.395.967.59 1.633.587 1.998a.968.968 0 0 1-.33.73c-.216.2-.48.298-.793.295-.404-.004-.928-.341-1.573-1.011-.219-.25-.4-.44-.541-.572-1.368-1.34-2.515-2.237-3.442-2.688-.927-.451-1.963-.682-3.11-.693-.989-.009-1.65.102-1.985.333-.334.232-.504.692-.51 1.382l-.165 16.97c-.004.494.06.88.195 1.154.134.275.37.492.706.651.13.066.312.146.545.24.882.36 1.32.858 1.314 1.496-.005.573-.2.994-.587 1.264-.387.27-.997.401-1.83.393l-7.91-.073zm57.046-13.964c.023.807.23 1.336.622 1.585.391.25 1.114.359 2.168.33 2.16-.062 3.844-.657 5.049-1.786 1.205-1.128 1.78-2.65 1.727-4.562-.056-1.966-.777-3.587-2.161-4.863-1.385-1.276-3.079-1.886-5.083-1.829-.885.025-1.535.203-1.949.534-.414.331-.624.835-.63 1.513l.257 9.078zm.242 8.513c.014.481.096.853.247 1.116.15.263.39.468.72.615.12.048.31.121.574.218.895.326 1.351.808 1.37 1.446.016.572-.164 1-.54 1.285-.377.284-.981.438-1.814.462l-7.927.225c-.833.024-1.445-.095-1.837-.358-.392-.262-.596-.68-.612-1.252-.018-.638.423-1.146 1.325-1.523.257-.111.443-.195.56-.25.32-.166.542-.38.665-.644.122-.265.177-.644.163-1.138l-.514-18.079c-.015-.508-.094-.893-.238-1.156-.145-.263-.375-.468-.692-.615a16.63 16.63 0 0 0-.573-.218c-.92-.326-1.39-.808-1.409-1.445-.016-.586.164-1.018.54-1.295.376-.278.981-.429 1.814-.453l6.93-.197c2.76-.078 5 .015 6.72.278 1.72.264 3.294.727 4.72 1.39 2.257 1.056 3.992 2.42 5.206 4.092 1.213 1.672 1.85 3.575 1.91 5.71.08 2.785-.896 4.89-2.926 6.316-2.03 1.426-5.161 2.198-9.391 2.319a39.5 39.5 0 0 1-1.788-.008 39.168 39.168 0 0 0-1.769-.008c-.56.015-.95.111-1.174.287-.223.176-.328.478-.316.908l.056 1.972zm30.103-9.425c-.054.173-.09.32-.108.438a1.397 1.397 0 0 0-.02.295c.024.364.222.602.595.714.373.113 1.079.135 2.118.067 1.326-.087 2.362-.25 3.11-.488.748-.238 1.111-.513 1.09-.825a1.81 1.81 0 0 0-.076-.416 4.533 4.533 0 0 0-.2-.505l-2.9-6.641a1.86 1.86 0 0 0-.297-.48c-.105-.117-.197-.173-.275-.168-.117.008-.23.077-.339.208a1.46 1.46 0 0 0-.26.517l-2.438 7.284zm-9.411 13.77c-.546.037-.977-.066-1.293-.306-.316-.24-.49-.607-.522-1.1-.052-.793.405-1.384 1.371-1.774a8.59 8.59 0 0 0 .552-.232c.392-.195.742-.525 1.051-.989.309-.464.71-1.319 1.202-2.565l8.002-20.94c.045-.107.095-.24.15-.4.221-.602.728-.93 1.52-.981l3.43-.225c.56-.037.921.008 1.086.134.165.126.394.526.686 1.198l8.745 19.626c.03.063.076.164.137.304.784 1.815 1.659 2.905 2.622 3.273.08.034.18.066.3.098.921.318 1.405.834 1.452 1.548.031.468-.083.815-.342 1.04-.26.227-.714.36-1.364.403l-8.828.58c-.832.054-1.411-.022-1.738-.229-.327-.207-.508-.59-.545-1.148a1.37 1.37 0 0 1 .191-.815 1.59 1.59 0 0 1 .656-.592c.1-.058.227-.119.38-.181.508-.216.746-.558.716-1.026-.018-.272-.15-.688-.395-1.246-.246-.558-.503-.998-.772-1.32-.382-.444-.793-.75-1.235-.917-.441-.166-1.058-.224-1.85-.172l-4.659.306c-.74.048-1.37.158-1.887.329-.517.171-.91.396-1.179.674-.34.375-.644.92-.91 1.636-.266.715-.384 1.307-.353 1.775.022.338.314.612.876.823.053.023.087.04.1.052.468.165.804.355 1.007.57.204.215.316.485.337.81.03.442-.098.796-.38 1.062-.283.267-.684.417-1.204.451l-7.113.467zm43.015-31.463c.595-.065 1.062.012 1.4.23.339.219.534.567.586 1.046.078.712-.374 1.26-1.354 1.641-.35.143-.574.26-.669.348-.491.42-.664 1.959-.518 4.615.03.52.049.931.055 1.231l.378 8.152c.008.196.02.4.038.615.016.214.047.528.093.943.246 2.265.87 3.837 1.87 4.717 1 .88 2.515 1.21 4.547.988 2.136-.233 3.681-.896 4.636-1.989.955-1.093 1.325-2.623 1.11-4.59a33.105 33.105 0 0 0-.342-2.419l-1.397-8.139a.538.538 0 0 0-.032-.114c-.486-3.012-1.001-4.672-1.545-4.98a6.821 6.821 0 0 0-.91-.411c-.82-.317-1.26-.747-1.32-1.29-.047-.44.04-.78.263-1.021.223-.24.58-.387 1.072-.441l6.388-.696c.543-.06.974.015 1.291.222.317.208.5.538.55.991.06.544-.28 1.033-1.019 1.467a18.58 18.58 0 0 1-.48.288c-.39.252-.65.51-.78.773-.128.263-.17.601-.124 1.015a3.866 3.866 0 0 0 .109.637l1.633 8.683c.039.231.102.571.19 1.02.484 2.75.77 4.533.858 5.349.301 2.757-.411 4.934-2.136 6.53-1.726 1.596-4.459 2.598-8.2 3.005-4.284.468-7.523.07-9.717-1.19-2.194-1.26-3.46-3.444-3.799-6.55-.072-.66-.122-1.965-.151-3.913a86.96 86.96 0 0 0-.024-2.021l-.073-7.694a12.795 12.795 0 0 0-.08-1.465c-.054-.492-.162-.85-.324-1.075-.162-.224-.467-.41-.916-.558a6.42 6.42 0 0 0-.407-.132c-.854-.26-1.311-.676-1.374-1.246-.045-.414.061-.766.318-1.056.256-.29.617-.46 1.083-.51l9.223-1.006zm29.623 24.695c-.824.123-1.447.079-1.867-.135-.42-.213-.673-.603-.758-1.17-.095-.63.282-1.188 1.132-1.67.242-.142.417-.248.525-.316.299-.203.493-.443.583-.72.09-.277.099-.66.025-1.15l-2.684-17.885c-.075-.502-.2-.875-.375-1.119-.175-.243-.428-.42-.76-.527a18.362 18.362 0 0 0-.595-.148c-.954-.213-1.478-.634-1.573-1.265-.087-.58.04-1.03.38-1.35.34-.322.923-.544 1.747-.668l7.842-1.177c.824-.123 1.446-.082 1.865.125.42.207.673.6.76 1.18.094.631-.276 1.187-1.113 1.668-.229.14-.398.244-.506.313-.298.203-.498.45-.6.742-.1.291-.114.682-.04 1.171l2.593 17.287c.083.554.291.954.624 1.2.334.246.764.33 1.292.25l4.153-.623c1.069-.16 2.024-.442 2.865-.844.842-.403 1.662-.967 2.462-1.693.302-.269.693-.644 1.174-1.124.905-.9 1.57-1.381 1.995-1.445.322-.048.606.021.851.208.246.187.394.454.446.802.033.22.027.44-.018.665-.046.224-.164.534-.354.932l-2.424 5.696c-.26.631-.493 1.058-.697 1.28a1.242 1.242 0 0 1-.75.398c-.231.035-.683-.167-1.355-.606-.671-.44-1.342-.608-2.011-.508l-14.834 2.226z" font-size="40" font-weight="400" text-anchor="middle" fill="#f5dc0f" font-family="Windsor BT"/><path d="M325 274.904c-21.542 0-39.04 17.497-39.04 39.04 0 21.541 17.498 38.965 39.04 38.965 21.542 0 39.04-17.424 39.04-38.966s-17.498-39.04-39.04-39.04zm0 9.797c16.105 0 29.168 13.137 29.168 29.242 0 16.106-13.063 29.169-29.168 29.169-16.105 0-29.243-13.064-29.243-29.169s13.138-29.242 29.243-29.242zm0 2.375c-14.82 0-26.868 12.047-26.868 26.867S310.18 340.737 325 340.737c14.82 0 26.793-11.974 26.793-26.794S339.82 287.076 325 287.076zm-3.117 4.082v13.805c-.352.122-.708.21-1.04.37l-9.722-9.722a22.841 22.841 0 0 1 10.762-4.453zm6.234 0a22.841 22.841 0 0 1 10.762 4.453l-9.723 9.723c-.331-.161-.687-.249-1.039-.371v-13.805zm-21.375 8.906 9.723 9.723a9.229 9.229 0 0 0-.446 1.04h-13.804c.546-4.025 2.174-7.676 4.527-10.763zm36.516 0c2.353 3.087 3.98 6.738 4.527 10.762h-13.804a9.569 9.569 0 0 0-.446-1.039l9.723-9.723zm-41.043 16.922h13.73c.133.391.339.747.52 1.114l-9.723 9.722c-2.368-3.093-3.99-6.786-4.527-10.836zm31.766 0h13.804c-.537 4.05-2.16 7.743-4.527 10.836l-9.723-9.722a9.69 9.69 0 0 0 .446-1.114zm-13.137 5.493c.331.16.687.248 1.039.37v13.806a22.829 22.829 0 0 1-10.762-4.454l9.723-9.722zm8.312 0 9.723 9.722a22.829 22.829 0 0 1-10.762 4.454V322.85c.352-.123.708-.21 1.04-.371z" fill="#002673"/><path d="M215.07 226.344c.461.053.948.278 1.468.656 8.587 6.239 32.146 6.907 66.094 8.875 22.563 1.308 34.258 14.235 36.906 33.094-7.538.821-14.488 3.87-20.781 8.031-4.617-2.156-10.72-2.52-18.125-2.844-15.63-.681-17.583-5.617-20.969-10.844 9.364 1.633 18.651-3.215 28.5.75-3.409-2.865-7.234-3.712-11.25-3.75-6.033-.056-12.58 1.774-19.125.688-7.457-1.237-13.656-5.746-16.5-13.719 10.347 2.656 20.989-1.966 31.75 2.75-8.594-7.48-20.323-3.124-31.812-4.844-6.667-.997-13.158-3.323-19.02-6.772-4.127-2.714-8.544-5.315-8.918-10.571.34-1.163 1.012-1.59 1.781-1.5z" fill="#002673" fill-rule="evenodd"/></svg>