<svg xmlns="http://www.w3.org/2000/svg" width="600" height="360" xmlns:cgf="https://coding.garden/flags"><metadata id="cgf-metadata">

<cgf:flag>
  <cgf:name>Portland</cgf:name>
  <cgf:route>us/or/portland</cgf:route>
  <cgf:aspect-ratio>1.6666666666666667</cgf:aspect-ratio>
</cgf:flag>

</metadata><path fill="#fff" d="M0 0h600v360H0z"></path><path fill="#027f45" d="M0 0h180v145H0zm300 0h300v95H300zM0 265h230v95H0zm350-50h250v145H350z"></path><path d="M200 0v165H0M280 0v115h320M0 245h250v115m350-165H330v165" fill="none" stroke="#f3c120" stroke-width="20"></path><path d="M220 0v175a40 40 0 0 0 40-40V0zm380 135H270a40 40 0 0 0 40 40h290zM0 225h260a40 40 0 0 0-40-40H0zm310 135V185a40 40 0 0 0-40 40v135z" fill="#4579b3"></path></svg>