<svg xmlns="http://www.w3.org/2000/svg" width="600" height="400"><path fill="#fff" d="M0 0h600v400H0z"/><path fill="#c32148" d="M0 240h600v160H0z"/><g fill="#c32148"><path d="M303.786 25.42c-4.28-1.134-8.057 0-8.057 0 1.007 10.448-1.398 12.14-.63 17.12.77 4.98 4.013 10.414 4.407 12.338.393 1.925.355 7.81.38 9.87h1.767c.388-2.777.857-10.576.497-12.387-.36-1.812-1.874-4.61-1.889-9.19-.015-4.58 3.651-8.436 3.525-17.752zM279.803 27.668s-6.52 1.743-7.527 2.876c4.67 9.401 3.154 12.848 5.65 17.225 2.495 4.378 6.836 7.792 7.89 9.449 1.054 1.657 4.379 7.167 5.137 9.084l1.651-.631c-.629-2.732-3.73-10.689-4.713-12.253-.984-1.564-2.892-3.134-4.541-7.407-1.65-4.273-.104-9.686-3.547-18.343zM326.339 30.168s-6.742-2.106-8-2.106c-2.432 10.212-5.426 11.385-6.311 16.346-.886 4.96.263 10.362.012 12.31-.252 1.947-1.981 8.183-2.625 10.14l1.672.573c1.266-2.502 4.733-10.473 4.979-12.304.246-1.83-.215-4.26 1.254-8.597 1.469-4.338 6.121-7.507 9.019-16.362zM256.743 37.925c-2.015-.126-6.243 4.884-6.243 4.884 7.737 7.096 8.44 10.731 11.461 14.046 3.02 3.314 7.794 5.193 10.758 5.983 2.964.79 9.305 7.13 10.702 8.646.554-.5.653-.588 1.314-1.182-1.57-2.324-7.448-9.894-11.445-11.755-3.997-1.862-4.328-1.76-6.773-5.407-2.444-3.647-3.45-8.373-9.774-15.215zM348.12 43.968s-4.374-4.875-6.136-5.127c-6.404 8.319-9.713 8.955-12.756 12.25-3.042 3.294-3.873 8.464-5.412 11.736-1.54 3.273-6.303 7.618-7.693 9.14l1.29 1.207c2.18-1.762 9.09-6.13 11.105-10.65 2.014-4.521 1.38-4.465 4.804-7.214 3.423-2.75 8.524-4.453 14.797-11.342zM237.704 55.401c-2.919 3.63-5.45 7.779-5.45 7.779 11.003 1.316 13.543 3.441 18.555 7.579 5.012 4.137 11.896 4.096 15.296 4.328 3.4.231 10.302 2.83 12.205 3.622l.699-1.623c-2.398-1.453-5.744-5.111-11.035-5.757-5.29-.647-9.703-2.43-13.45-5.978-3.747-3.547-10.628-10.181-16.82-9.95zM366.184 64.808c-2.104-4.476-4.726-6.875-4.726-6.875-8.381 6.243-9.018 5.305-15.452 6.225-6.434.92-11.038 6.039-13.498 8.397-2.46 2.358-9.03 5.712-10.896 6.585l.73 1.61c2.689-.794 7.646-.806 11.686-4.283 4.04-3.477 8.33-5.54 13.475-5.921 5.146-.383 14.684-1.004 18.681-5.738zM224.488 81.15c-1.962 4.24-2.037 9.327-2.037 9.327 6.196-2.663 15.218-4.404 22.818-1.416 7.6 2.988 14.069.768 17.692-.409 3.623-1.177 11.458-1.876 13.792-1.93l-.029-1.767c-3.151-.348-9.059-2.445-14.828-.874-5.77 1.57-10.024.99-15.414-1.725-5.39-2.714-15.699-3.946-21.994-1.205zM374.66 91.29c.146-4.631-1.327-9.074-1.327-9.074-5.919 2.663-12.398 2.39-20.163 1.164-7.765-1.226-13.316.49-16.777 1.668-3.461 1.177-10.947 2.128-13.177 2.182l.028 1.767c3.01.348 10.291 1.69 15.803.119 5.512-1.571 9.965-.777 14.097.843s15.294 4.11 21.517 1.332z"/><path d="M222.61 119.46c-1.29-2.938-2.136-17.003-2.136-17.003s10.054-7.088 17.27-7.834c7.215-.746 12.017 2.907 16.557 2.404 4.541-.504 8.26-4.321 12.73-5.253 4.47-.931 7.977 1.05 13.62-.267 5.643-1.317 13.966-9.011 19.14-8.99 5.173.02 17.497 11.347 25.816 12.284 8.318.937 11.189-.978 18.872-.445 7.683.533 11.944 6.13 17.448 7.122 5.503.992 12.908.534 13.798-.446 0 0 .98 11.484-1.157 15.935-10.149 5.074-19.341-5.16-26.706-4.54-7.366.62-10.065 5.53-16.291 5.697-6.227.168-13.077-5.821-19.318-5.608-6.24.214-11.207 5.425-16.29 5.964-5.083.54-13.318-5.956-19.763-5.964-6.444-.008-11.08 5.292-17.27 5.163-6.188-.128-11.568-6.497-18.07-6.231-6.503.265-15.535 6.231-18.25 8.012z"/><path d="M224.836 124.712s5.63-8.305 12.819-9.436c7.188-1.132 15.688 7.326 22.344 7.121 6.656-.204 9.852-6.544 16.38-6.676 6.527-.132 13.735 7.545 20.207 7.3 6.472-.246 9.41-6.832 15.846-7.122 6.436-.29 13.733 7.131 20.118 6.943 6.385-.188 8.766-6.01 15.757-6.498 6.99-.488 13.53 7.745 24.213 6.231-.534.98-4.278 5.72-11.463 6.054-7.185.334-15.899-6.869-21.03-6.766-5.13.103-7.518 6.514-15.31 6.232-7.793-.283-13.436-6.017-20.03-5.965-6.594.052-9.315 6.196-17.804 5.608-8.49-.587-12.759-6.35-18.962-6.32-6.202.03-7.478 5.42-16.29 5.608-8.812.188-17.181-11.75-26.795-2.314z"/><path d="M228.467 134.157s4.648-5.814 11.456-6.886c6.807-1.071 14.66 8.012 21.158 6.744 6.498-1.268 6.304-5.905 15.51-6.322 9.208-.418 13.008 7.144 19.136 6.912 6.128-.232 5.69-6.079 14.322-6.744 8.632-.665 13.688 6.753 19.734 6.575 6.046-.177 7.012-5.683 13.75-6.153 6.736-.47 13.983 7.334 24.099 5.9-.506.928-3.923 4.944-11.19 5.342-7.266.399-14.72-6.113-19.578-6.016-4.859.098-7.525 4.931-14.402 5.315-6.876.385-12.625-5.306-18.869-5.257-6.244.05-9.698 5.281-16.957 5.018-7.258-.264-12.179-5.526-18.052-5.497-5.874.029-9.815 5.328-18.16 5.506-8.344.178-14.512-9.956-21.957-4.437z"/><path d="M234.62 145.921s3.939-5.78 10.136-6.756c6.197-.976 14.126 7.098 19.554 6.432 5.427-.666 7.495-6.156 13.339-6.048 5.843.107 12.426 6.113 18.005 5.902 5.578-.212 5.96-5.534 12.94-5.749 6.979-.215 11.581 6.148 17.085 5.986 5.504-.162 6.676-4.784 13.395-5.602 6.719-.819 13.218 6.773 22.915 4.786-.46.844-4.547 5.085-11.162 5.448-6.615.363-13.01-4.882-17.433-4.793-4.423.089-7.143 4.488-13.403 4.838-6.26.35-11.102-5.123-16.786-5.079-5.684.045-9.024 4.906-15.632 4.666-6.607-.24-11.477-5.03-16.824-5.004-5.347.026-6.592 4.948-15.262 4.914-8.67-.033-14.187-7.892-20.867-3.94zM208.108 210.905c-.196 6.072-6.366 5.66-9.662 5.66-3.296 0-16.18-1.773-16.15-15.46.031-13.688 11.777-15.91 16.702-16.012 4.925-.102 9.11 1.932 9.11 1.932l-.138 5.108s-2.582-4.247-8.972-4.417c-6.39-.171-9.785 8.055-9.8 13.527-.016 5.472 3.55 12.92 9.386 13.113 5.836.193 9.524-3.45 9.524-3.45zM211.259 186.076v29.72h6.527v-14.56h13.425v14.56h6.528v-29.72h-6.528v12.013h-13.425v-12.013h-6.527zM240.546 207.868V186.06h6.625v21.395s.25 6.35 7.454 6.35 8.696-6.626 8.696-6.626V186.06h3.589v20.567s-1.078 10.076-12.837 10.076c-11.76 0-13.527-8.834-13.527-8.834zM270.12 185.914v29.813h14.606l4.12.138.047-.138h.023v-.07l2.986-8.75h10.346l3.033 8.958h7.453l-12.291-29.951h-3.449l-11.133 27.081h-9.699v-27.081h-6.041zm27.152 7.87l3.588 10.23-7.87.116 4.282-10.347zM302.711 160.823c-1.588 3.595-2.744 6.909-4.259 9.768-1.663-3.4-3.043-6.33-4.652-9.745h-4.537l.023.023c-4.674.004-9.26.046-13.934.046v1.806h5.37v17.985h1.111v.023h3.055v-18.032h5.37l5.208 9.606v8.472h4.329v-8.888h-.046l5.462-10.995-2.5-.07zM401.964 186.129l-12.268 29.813 4.12.139 3.056-8.958h10.346l3.033 8.958h7.453l-12.291-29.952h-3.449zm.278 7.87l3.588 10.23-7.87.116L402.242 194zM334.762 208.349c-2.729-7.34-5.369-14.71-8.009-22.082H319.3l12.29 29.952h3.174l11.854-29.836-3.43-.116c-2.353 7.536-5.427 14.79-8.426 22.082zM348.625 186.197h6.212v29.815h-6.212zM368.772 185.358c-5.205-.13-10.242 1.795-11.041 8.981-1.066 9.582 14.433 9.225 13.263 15.184s-8.286 7.038-12.013-.278l-1.389 5.533s4.259 2.743 7.87 1.92c3.611-.821 10.675-.799 10.485-10.763-.19-9.963-14.443-7.406-13.24-14.073 1.156-6.402 7.963-3.944 10.092-2.638.006.003.018-.004.024 0 .08.05.165.093.231.138l.046-.138h7.662v26.641h1.643v.024h4.514v-26.712h7.916v-2.708c-8.629-.058-12.974.06-21.063.07l.115-.487c-1.622-.38-3.38-.65-5.115-.694zM267.104 177.607c-.13 4.02-4.215 3.747-6.397 3.747-2.182 0-10.713-1.173-10.693-10.236.02-9.062 7.797-10.534 11.058-10.601 3.261-.068 6.032 1.28 6.032 1.28l-.091 3.38s-1.71-2.81-5.94-2.924c-4.232-.113-6.48 5.334-6.49 8.957-.01 3.623 2.351 8.554 6.215 8.682 3.864.128 6.306-2.285 6.306-2.285zM269.478 161.09h4.135v19.848h-4.135zM338.149 161.24v19.489h4.004v-9.444h6.065v-1.782h-6.065v-6.481h6.18l.14-1.783h-10.324zM325.881 160.244c-6.004 0-10.879 4.629-10.879 10.347 0 7.373 4.875 10.37 10.88 10.37 6.003 0 10.878-3.41 10.878-10.37 0-5.718-4.875-10.347-10.879-10.347zm-.116 1.898c3.616 0 6.55 3.953 6.55 8.819 0 5.923-2.934 8.796-6.55 8.796-3.615 0-6.55-2.52-6.55-8.796 0-4.866 2.935-8.819 6.55-8.819z"/></g></svg>