<svg xmlns="http://www.w3.org/2000/svg" xmlns:xlink="http://www.w3.org/1999/xlink" version="1" width="450" height="300" xmlns:cgf="https://coding.garden/flags"><metadata id="cgf-metadata">

<cgf:flag>
  <cgf:name>Coronado</cgf:name>
  <cgf:route>us/ca/coronado</cgf:route>
  <cgf:aspect-ratio>1.5</cgf:aspect-ratio>
</cgf:flag>

</metadata><path fill="#fff" d="M119.699 0h209.48v300H119.7z"></path><path fill="#250" d="M0 0h120v300H0zm330 0h120v300H330z"></path><g transform="translate(140.932 90.092) scale(.51528)"><path d="m60 197.884-30-60c4.9-6.666 5.653-14.715 14.7-20 5.3-10 16.867-3.41 25.3-5.115 10-4.961 19.078-12.688 30-14.885 12.304.569 20.922 11.275 30 10 7.128-8.402 13.333-6.666 20-10h30c10 0 15.853-7.373 30 0 22.903-1.029 29.217 1.168 30 5.208 13.333 1.597 29.432-.492 40 4.792 11.736 4.363 17.48 12.412 20 20l-20 50-10 10-210 10z" fill="#250" stroke="#250" stroke-width="1.941"></path><path d="M270 232.806a105 10 0 1 1-210 0 105 10 0 1 1 210 0z" fill="#250" fill-rule="evenodd" stroke="#250" stroke-width="1.941"></path><path transform="matrix(.98378 0 0 2.24736 -662.548 -721.93)" d="M823.514 402.781c-11.623 0-34.237-1.359-55.11.189a2965.09 2965.09 0 0 1-41.817 2.762s6.024 9.588 6.669 12.236c.534 2.196-2.242 3.055-2.242 3.055s18.483-1.297 38.812-2.804c20.523-1.522 42.687-2.344 53.688-2.344h34.5c10.636 0 33.344.823 53.687 2.344 20.165 1.507 39.267 2.804 39.267 2.804s-3.079-1.513-2.676-3.84c.41-2.366 5.286-11.054 5.286-11.054s-20.011-.803-40.908-2.364c-20.718-1.549-43.378-.984-54.656-.984h-34.5z" fill="#250" stroke="#250" stroke-width="1.754"></path><path d="M474.597 218.078c-2.553 2.483-5.97.962-8.031 1.797-6.258 2.536-15.788 7.13-25 9.375-4.48 1.092-11.845 2.232-18.781 3.25-6.937 1.018-13.315 1.888-16.938 2.781-10.144 2.5-15.335 2.354-25.781 6.625-9.788 4.003-19.39 9.881-27.406 16.781-6.6 5.682-11.25 13.126-14.5 20.813-3.198 7.563-3.804 17.743-3.532 24.781.168 4.327 1.788 9.278 3.282 13.563a147.292 147.292 0 0 0 2.937 7.719l7.375-3.125s-1.384-3.21-2.781-7.22c-1.397-4.008-2.726-9.003-2.813-11.25-.236-6.106.672-16.088 2.907-21.374 2.904-6.87 6.966-13.215 12.343-17.844 7.314-6.296 16.285-11.815 25.22-15.469 9.52-3.893 13.886-3.557 24.687-6.219 2.529-.623 9.19-1.602 16.156-2.625 6.966-1.022 14.366-2.147 19.531-3.406 10.401-2.535 20.41-7.446 26.094-9.75 4.162-1.686 7.72-4.893 10.594-7.687 7.969-3.676.021-.1-5.563-1.516z" transform="matrix(.98378 0 0 .91852 -310.072 -163.95)" fill="#ff0" stroke="#250" stroke-width="2.743"></path><path d="M474.822 218.527c-2.553 2.484-6.194 2.943-8.256 3.779-6.258 2.536-15.788 4.698-25 6.944-4.48 1.092-11.845 2.232-18.781 3.25-6.937 1.018-13.315 1.888-16.938 2.781-10.144 2.5-15.335 2.354-25.781 6.625-9.788 4.003-19.39 9.881-27.406 16.781-6.6 5.682-11.25 13.126-14.5 20.813-3.198 7.563-3.804 17.743-3.532 24.781.168 4.327 1.788 9.278 3.282 13.563a147.292 147.292 0 0 0 2.937 7.719l7.375-3.125s-1.384-3.21-2.781-7.22c-1.397-4.008-2.726-9.003-2.813-11.25-.236-6.106.671-16.088 2.907-21.374 2.904-6.87 6.966-13.215 12.343-17.844 7.314-6.296 16.285-11.815 25.22-15.469 9.52-3.893 13.886-3.557 24.687-6.219 2.529-.623 9.19-1.602 16.156-2.625 6.966-1.022 14.366-2.147 19.531-3.406 10.401-2.535 20.41-7.446 26.094-9.75 4.162-1.686 7.72-4.893 10.594-7.687 10.779-2.604-2.427-1.5-5.338-1.067z" transform="matrix(-.98378 0 0 .91893 638.776 -164.082)" fill="#ff0" stroke="#250" stroke-width="2.743"></path><path d="M412.52 337.357s-7.978-31.006-7.323-43.004c.13-2.375-.126-4.907.829-9.142.794-3.521 2.729-8.83 3.613-10.6 3.183-6.37 11.03-12.466 16.286-17.273 6.536-5.978 15.881-13.269 23.197-18.261 6.523-4.452 15.54-9.998 22.703-13.326 2.42-1.125 8.39-2.961 8.39-2.961l-.454-7.417s-13.734 4.495-19.781 6.923c-16.203 6.506-41.108 16.185-55.77 25.665-9.06 5.857-16.715 12.317-22.805 21.222-3.337 4.88-5.698 12.475-6.91 18.26-1.093 5.22.027 11.65 1.48 16.781 1.4 4.939 6.032 13.875 9.378 17.768 3.759 4.373 22.584 25.92 22.584 25.92z" transform="matrix(.98378 0 0 .91845 -310.072 -163.23)" fill="#ff0" stroke="#250" stroke-width="2.743"></path><path d="M413.278 347.912s-8.736-41.56-8.081-53.559c.13-2.375-.126-4.907.829-9.142.794-3.521 2.729-8.83 3.613-10.6 3.183-6.37 11.03-12.466 16.286-17.273 6.536-5.978 15.881-13.269 23.197-18.261 6.523-4.452 15.54-9.998 22.703-13.326 2.42-1.125 8.39-2.961 8.39-2.961v-6.445s-14.188 3.523-20.235 5.951c-16.203 6.506-41.108 16.185-55.77 25.665-9.06 5.857-16.715 12.317-22.805 21.222-3.337 4.88-5.698 12.475-6.91 18.26-1.093 5.22.027 11.65 1.48 16.781 1.4 4.939 6.032 13.875 9.378 17.768 3.759 4.373 18.64 25.92 18.64 25.92z" transform="matrix(-.98378 0 0 .91845 638.776 -163.23)" fill="#ff0" stroke="#250" stroke-width="2.743"></path><path d="M843.656 231.105s.835 3.373 3.782 13.094c4.195 13.842 11.296 33.062 13.078 44.914.892 5.933 1.07 14.096 0 20-1.166 6.429-5.592 13.402-9.111 21.926-3.384 8.195-8.386 25.918-8.386 25.918l-4.527-7.844-5.327 7.844s-4.203-17.723-7.587-25.918c-3.52-8.524-7.945-15.497-9.11-21.926-1.071-5.904-.893-14.067 0-20 1.781-11.852 8.882-31.072 13.078-44.914 2.946-9.72 3.466-13.094 3.466-13.094z" transform="matrix(.98378 0 0 .892 -660.543 -171.79)" fill="#ff0" stroke="#250" stroke-width="2.784"></path><path d="M2885.906 785.625c-1.767 4.062-4.538 9.603-8.719 13.313-5.27 4.676-8.37 6.97-15.437 9.187-4.754 1.492-12.586 3.006-18.469 2.25-4.342-.558-11.21-.64-17-3.063-4.72-1.975-10.488-5.42-14.437-9.187-1.06-1.011-1.94-2.18-2.781-3.375-.475 1.132-.942 2.268-1.688 3.344-4.027 5.81-10.566 10.06-16.375 12.593-5.054 2.205-11.368 3.181-16.938 2.407-7.196-1-15.358-4.456-20.968-9.313-2.363-2.045-4.282-4.777-6.063-7.562-.573 2.597-1.264 5.16-2.281 7.343-2.548 5.471-6.55 10.619-12.25 13.782-5.667 3.144-12.767 3.832-18.5 3.312-5.026-.455-11.151-1.963-15.719-5.937-1.06-.923-1.894-1.98-2.781-3-1.756 6.008-4.924 13.032-11.719 16.625-6.325 3.345-14.907 4.863-22.25 2.375-8.8-2.982-14.26-9.934-18.186-16.248-1.772-2.85-3.39-7.622-4.189-10.596-.799-2.974-1.312-5.469-1.312-5.469l9.312-1.906s.472 2.243 1.188 4.906c.715 2.664 2.673 7.406 3.063 8.033 3.287 5.287 9.048 10.877 13.187 12.28 3.23 1.095 11.206.124 14.75-1.75 3.001-1.587 5.88-6.665 7.219-11.469 1.21-4.341 1.937-9.625 1.937-9.625l2.156-16.656 6.875 15.343s3.317 6.796 7 10c1.71 1.488 7.051 3.361 10.313 3.657 3.821.346 10.309-.677 13.031-2.188 3.462-1.92 6.405-5.473 8.281-9.5.724-1.554 1.898-6.38 2.594-10.375s1.03-5.117 1.094-7.343c.074-2.579-.775-8.563-.775-8.563l6.399-1.233s3.727 9.038 4.407 10.327c.68 1.288 1.65 3.059 2.75 4.937 2.198 3.757 5.276 8.09 6.688 9.313 3.57 3.09 11.2 6.422 16.03 7.093 3.066.427 8.908-.406 11.845-1.687 4.368-1.905 10.077-5.997 12.374-9.313.268-.385 1.518-3.43 2.22-5.937.7-2.507 3.351-20.771 3.351-20.771l9.21 19.427c1.214 2.558 3.509 5.315 4.063 5.844 2.436 2.323 8.143 5.85 11.563 7.281 2.963 1.24 9.463 1.756 14.531 2.407 1.872.24 11.7-1.026 14.406-1.875 6.317-1.983 6.748-2.586 11.969-7.22 1.724-1.53 4.93-6.822 6.312-10 .666-1.529 1.353-7.531 1.344-12.5-.01-4.967-.344-9.187-.344-9.187l9.732-.781 9.732.781s-.335 4.22-.344 9.188c-.01 4.968.679 10.97 1.344 12.5 1.382 3.177 4.588 8.47 6.312 10 5.222 4.633 5.652 5.236 11.97 7.218 2.706.85 12.533 2.116 14.405 1.875 5.069-.65 11.568-1.166 14.532-2.406 3.42-1.43 9.126-4.958 11.562-7.281.555-.529 2.85-3.286 4.063-5.844l9.21-19.427s2.651 18.264 3.352 20.771c.701 2.507 1.952 5.552 2.219 5.938 2.298 3.315 8.006 7.407 12.375 9.312 2.937 1.28 8.779 2.114 11.844 1.688 4.83-.672 12.46-4.003 16.031-7.094 1.411-1.222 4.49-5.556 6.687-9.313 1.1-1.878 2.07-3.649 2.75-4.937.68-1.289 4.408-10.327 4.408-10.327l6.398 1.233s-.849 5.984-.774 8.562c.064 2.227.397 3.349 1.093 7.344.697 3.996 1.87 8.82 2.594 10.375 1.876 4.027 4.82 7.58 8.281 9.5 2.723 1.51 9.21 2.534 13.032 2.188 3.261-.296 8.602-2.169 10.312-3.657 3.684-3.204 7-10 7-10l6.875-15.343 2.156 16.656s.728 5.284 1.938 9.625c1.339 4.804 4.217 9.882 7.219 11.469 3.544 1.874 11.519 2.845 14.75 1.75 4.138-1.403 9.9-6.993 13.186-12.28.39-.627 2.348-5.37 3.064-8.033.715-2.663 1.187-4.906 1.187-4.906l9.313 1.906s-.514 2.495-1.313 5.469c-.799 2.974-2.417 7.747-4.188 10.596-3.927 6.314-9.387 13.266-18.187 16.248-7.342 2.488-15.924.97-22.25-2.375-6.794-3.593-9.963-10.617-11.719-16.625-.887 1.02-1.72 2.077-2.78 3-4.569 3.974-10.694 5.482-15.72 5.937-5.733.52-12.832-.168-18.5-3.312-5.7-3.163-9.701-8.31-12.25-13.782-1.017-2.183-1.708-4.746-2.28-7.343-1.782 2.785-3.7 5.517-6.063 7.562-5.61 4.857-13.772 8.312-20.969 9.313-5.57.774-11.883-.202-16.938-2.407-5.809-2.533-12.348-6.782-16.375-12.593-.745-1.076-1.212-2.212-1.687-3.344-.842 1.194-1.721 2.364-2.781 3.375-3.95 3.767-9.717 7.212-14.438 9.188-5.789 2.422-12.657 2.504-17 3.062-5.883.756-13.715-.758-18.469-2.25-7.066-2.217-10.166-4.51-15.437-9.188-4.18-3.71-6.952-9.25-8.719-13.312-1.076-2.473-1.408-2.811-2.101-4.944-.24.85-.412 1.424-.555 1.854-.405 1.214-.575 1.263-1.37 3.09z" transform="matrix(.4919 0 0 .51035 -1256.192 -243.911)" fill="#ff0" stroke="#250" stroke-width="5.205"></path><path d="M822.33 361.844c-6.51 0-31.35.64-55.25 3.625-23.9 2.984-46.094 8.25-46.094 8.25s-4.368 4.853-3.864 7.271c.54 2.587 6.895 5.479 6.895 5.479s21.68-5.127 44.688-8c23.007-2.873 48.068-3.563 53.625-3.563h36.812c5.353 0 29.965.688 53.032 3.563 23.066 2.874 45.343 8 45.343 8s5.816-2.66 6.4-5.03c.608-2.465-3.462-7.72-3.462-7.72s-22.721-5.267-46.656-8.25c-23.935-2.983-48.32-3.625-54.657-3.625H822.33zm1.184 40.937c-11.623 0-33.783.828-54.656 2.375-21.066 1.562-40 4.75-40 4.75s-4.42 5.613-3.776 8.26c.534 2.197 5.932 4.647 5.932 4.647s18.483-3.087 38.812-4.594c20.523-1.522 42.687-2.344 53.688-2.344h34.5c10.636 0 33.344.823 53.687 2.344 20.165 1.507 38.813 4.594 38.813 4.594s5.095-3.303 5.498-5.63c.41-2.366-3.342-7.277-3.342-7.277s-19.103-3.188-40-4.75c-20.718-1.548-43.378-2.375-54.656-2.375h-34.5z" transform="matrix(.98378 0 0 1.0207 -662.548 -198.355)" fill="#ff0" stroke="#250" stroke-width="2.602"></path><path d="M415.733 409.798s-6.56-14.99-10.472-21.105c-2.107-3.294-6.757-8.646-10.274-10.553-2.864-1.552-5.402-1.832-8.693-1.696-2.068.086-4.322.638-5.927 1.885-1.42 1.102-2.372 3.195-2.767 4.9-.498 2.152-.466 4.86.198 6.971.897 2.854 2.601 5.934 4.742 8.103 1.625 1.647 4.14 3.637 6.322 4.523 2.376.964 7.508 1.884 7.508 1.884s-2.533-3.22-3.358-5.276c-.403-1.003-.605-2.674 0-3.58.527-.79 1.983-1.361 2.963-1.32 2.123.091 3.894 1.914 5.532 3.204 2.366 1.862 4.789 5.075 6.718 7.35 1.119 1.318 3.556 4.522 3.556 4.522l3.952.188z" transform="matrix(.98378 0 0 1.0207 -314.754 -255.958)" fill="#ff0" stroke="#250" stroke-width="2.602"></path><path d="M758.617 359.129s-3.76-12.55-4.347-18.09c-.494-4.67-.764-11.08.396-15.64.512-2.016 1.57-4.806 3.16-6.22 1.636-1.452 4.683-2.557 6.916-2.637 3.353-.121 8.22 1.016 10.67 3.203 2.506 2.238 3.772 6.92 4.148 10.176.303 2.614-.524 6.168-1.383 8.668-.437 1.273-2.42 3.279-3.43 4.21-1.183 1.089-3.682 2.008-3.682 2.008s.916-3.769.395-5.276c-.685-1.98-2.19-3.812-4.347-4.146-1.023-.158-3.424.424-4.15 1.131-1.67 1.628-1.891 3.797-2.37 6.03-.826 3.847.79 13.002.79 13.002l-2.766 3.58z" transform="matrix(.98378 0 0 1.0207 -650.328 -204.431)" fill="#ff0" stroke="#250" stroke-width="2.602"></path><path d="M415.733 409.798s-6.56-14.99-10.472-21.105c-2.107-3.294-6.757-8.646-10.274-10.553-2.864-1.552-5.402-1.832-8.693-1.696-2.068.086-4.322.638-5.927 1.885-1.42 1.102-2.372 3.195-2.767 4.9-.498 2.152-.466 4.86.198 6.971.897 2.854 2.601 5.934 4.742 8.103 1.625 1.647 4.14 3.637 6.322 4.523 2.376.964 7.508 1.884 7.508 1.884s-2.533-3.22-3.358-5.276c-.403-1.003-.605-2.674 0-3.58.527-.79 1.983-1.361 2.963-1.32 2.123.091 3.894 1.914 5.532 3.204 2.366 1.862 4.789 5.075 6.718 7.35 1.119 1.318 3.556 4.522 3.556 4.522l3.952.188z" transform="matrix(-.98378 0 0 1.0207 643.458 -255.958)" fill="#ff0" stroke="#250" stroke-width="2.602"></path><path d="M897.6 359.129s3.76-12.55 4.347-18.09c.494-4.67.764-11.08-.395-15.64-.512-2.016-1.57-4.806-3.161-6.22-1.635-1.452-4.683-2.557-6.916-2.637-3.353-.121-8.22 1.016-10.669 3.203-2.507 2.238-3.772 6.92-4.149 10.176l-.01.096c-.272 2.605.545 6.103 1.393 8.572.438 1.273 2.42 3.279 3.431 4.21 1.183 1.089 3.682 2.008 3.682 2.008s-.916-3.769-.395-5.276c.685-1.98 2.189-3.812 4.347-4.146 1.023-.158 3.423.424 4.149 1.131 1.671 1.628 1.892 3.797 2.37 6.03.826 3.847-.79 13.002-.79 13.002l2.766 3.58z" transform="matrix(.98378 0 0 1.0207 -650.328 -204.431)" fill="#ff0" stroke="#250" stroke-width="2.602"></path><path d="M602.619 366.662s5.98-11.058 10.296-16.73c2.72-3.575 5.403-7.906 8.194-11.425 2.93-3.693 5.843-9.33 9.95-14.905 5.448-7.393 11.84-14.445 11.84-14.445s-9.812.707-13.729 2.135c-3.318 1.21-7.517 3.66-10.068 6.102-1.907 1.826-3.524 5.058-4.881 7.322-1.495 2.494-3.46 5.858-4.577 8.543-2.167 5.214-5.492 18-5.492 18l-5.01 12.937 3.477 2.466z" transform="matrix(.98378 0 0 1.0207 -309.79 -197.05)" fill="#ff0" stroke="#250" stroke-width="2.602"></path><path d="M362.894 362.996s-10.27-12.502-12.55-20.388c-1.043-3.606-1.88-9.102-.305-12.51 1.037-2.244 4-4.62 6.407-5.186 2.464-.58 6.165.378 8.238 1.83 1.954 1.37 3.866 4.834 4.8 7.03 1.218 2.86 1.641 6.15 2.124 9.221.218 1.387-.436 4.825-.951 6.903-.395 1.59-.877 2.606-.877 2.606s-.95-6.791-2.656-8.806c-1.297-1.531-2.987-4.5-4.881-3.834-1.221.429-.673 2.978-.61 4.271.187 3.858 2.651 8.667 3.05 12.51.294 2.823-1.789 6.353-1.789 6.353z" transform="matrix(-.98378 0 0 1.0207 637.032 -194.758)" fill="#ff0" stroke="#250" stroke-width="2.602"></path><path d="M361.296 366.662s-5.98-11.058-10.296-16.73c-2.72-3.575-5.403-7.906-8.194-11.425-2.93-3.693-5.843-9.33-9.95-14.905-5.448-7.393-11.84-14.445-11.84-14.445s9.812.707 13.729 2.135c3.318 1.21 7.517 3.66 10.068 6.102 1.906 1.826 3.524 5.058 4.881 7.322 1.495 2.494 3.46 5.858 4.577 8.543 2.167 5.214 5.491 18 5.491 18l5.011 12.937-3.477 2.466z" transform="matrix(.98378 0 0 1.0207 -309.79 -197.05)" fill="#ff0" stroke="#250" stroke-width="2.602"></path><path d="M362.894 362.996s-10.27-12.502-12.55-20.388c-1.043-3.606-1.88-9.102-.305-12.51 1.037-2.244 4-4.62 6.407-5.186 2.464-.58 6.165.378 8.238 1.83 1.954 1.37 3.866 4.834 4.8 7.03 1.218 2.86 1.641 6.15 2.124 9.221.218 1.387-.436 4.825-.951 6.903-.395 1.59-.877 2.606-.877 2.606s-.95-6.791-2.656-8.806c-1.297-1.531-2.987-4.5-4.881-3.834-1.221.429-.673 2.978-.61 4.271.187 3.858 2.651 8.667 3.05 12.51.294 2.823-1.789 6.353-1.789 6.353z" transform="matrix(.98378 0 0 1.0207 -308.328 -194.758)" fill="#ff0" stroke="#250" stroke-width="2.602"></path><path d="M855.927 260.793s.717-11.17-.784-16.853c-1.276-4.837-4.087-13.146-7.446-16.853-.874-.964-1.833-2.295-3.413-3.231-1.391-.825-3.388-1.295-4.48-1.641-1.491-.474-5.917-.599-9.282.303-2.956.791-4.891 2.503-6.092 3.723-2.597 2.64-3.668 6.554-3.776 7.9-.233 2.9-.107 6.796 1.175 9.407 1.255 2.554 3.642 5.687 5.88 7.446 2.44 1.919 7.577 3.266 7.577 3.266s-2.404-4.434-2.483-7.185c-.035-1.227.233-3.656 1.176-4.442 1.636-1.363 5.143-1.721 7.055-.784 2.227 1.092 4.541 4.893 5.487 7.186.968 2.346 1.417 5.75 1.96 8.23.256 1.172.784 3.92.784 3.92l6.662-.392zm2.942 0s-.717-11.17.784-16.853c1.276-4.837 4.087-13.146 7.446-16.853.874-.964 1.833-2.295 3.413-3.231 1.391-.825 3.388-1.295 4.48-1.641 1.491-.474 5.917-.599 9.282.303 2.956.791 4.891 2.503 6.092 3.723 2.597 2.64 3.668 6.554 3.776 7.9.233 2.9.107 6.796-1.175 9.407-1.256 2.554-3.642 5.687-5.88 7.446-2.44 1.919-7.577 3.266-7.577 3.266s2.404-4.434 2.482-7.185c.036-1.227-.232-3.656-1.175-4.442-1.636-1.363-5.143-1.721-7.055-.784-2.227 1.092-4.541 4.893-5.487 7.186-.968 2.346-1.417 5.75-1.96 8.23-.256 1.172-.784 3.92-.784 3.92l-6.662-.392z" transform="matrix(.98378 0 0 1.0207 -679.142 -110.289)" fill="#ff0" stroke="#250" stroke-width="2.602"></path><path style="marker:none" d="M710.638 440.797c2.185 6.525 2.11 12.393-.168 13.097-2.277.705-4.68-4.396-6.864-10.922-2.185-6.525-3.326-12.016-1.05-12.72 2.278-.705 5.898 4.02 8.082 10.545z" transform="matrix(.98378 0 0 1.0207 -639.044 -243.757)" fill="#ff0" fill-rule="evenodd" stroke="#250" stroke-width="2.602" overflow="visible"></path><path style="marker:none" d="M710.638 440.797c2.185 6.525 2.11 12.393-.168 13.097-2.277.705-4.68-4.396-6.864-10.922-2.185-6.525-3.326-12.016-1.05-12.72 2.278-.705 5.898 4.02 8.082 10.545z" transform="matrix(-.98378 0 0 1.0207 967.748 -243.757)" fill="#ff0" fill-rule="evenodd" stroke="#250" stroke-width="2.602" overflow="visible"></path><path d="M2755 830h-5l-25 30v5l30 30h5l25-30v-5l-30-30z" transform="matrix(.68676 -.02703 .01223 .33445 -1803.824 -13.22)" fill="#ff0" fill-rule="evenodd" stroke="#250" stroke-width="5.437"></path><path d="M2750 839h6l19 20v6l-15 20h-6l-19-19v-6l15-21z" transform="matrix(.70478 -.02774 .01223 .33445 -1853.858 -11.251)" fill="#250" stroke="#ff0" stroke-width="4.129"></path><path d="M2755 830h-5l-25 30v5l30 30h5l25-30v-5l-30-30z" transform="matrix(-.68676 -.02703 -.01223 .33445 2132.528 -13.22)" fill="#ff0" fill-rule="evenodd" stroke="#ff0" stroke-width="5.437"></path><path d="M2750 839h6l19 20v6l-15 20h-6l-19-19v-6l15-21z" transform="matrix(-.70478 -.02774 -.01223 .33445 2182.562 -11.251)" fill="#250" stroke="#250" stroke-width="4.129"></path><path style="marker:none" id="a" d="M2700.19 785.026a10.489 10.66 0 1 1-20.977 0 10.489 10.66 0 1 1 20.977 0z" transform="matrix(.74458 0 0 .7641 -1837.75 -572.187)" fill="#338000" fill-rule="evenodd" stroke-width="1.5" overflow="visible"></path><path transform="matrix(.74458 0 0 .7641 -1837.75 -570.61)" d="m2680.844 788.616 1.995 2.512 3.842 2.143 3.325.147 3.547-.369 3.768-2.955 1.626-2.513 1.034-3.916v-4.063l-1.625-2.29-2.365-2.735-2.955-1.182s1.536 2.719 1.92 3.99c.37 1.221.395 2.812.149 4.064-.238 1.208-.857 2.732-1.626 3.694-.851 1.066-2.465 2.364-3.694 2.956-1.373.66-3.132.84-4.655.886-1.29.039-4.286-.37-4.286-.37z" id="b" fill="#250" fill-rule="evenodd"></path><path transform="matrix(1.2357 0 0 1.24063 -3158.338 -940.134)" style="marker:none" d="M2690.302 778.013c0 1.897-1.556 3.436-3.473 3.436-1.917 0-3.473-1.54-3.473-3.436 0-.974.767-.944 1.426-1.57.624-.591 1.694-1.684 2.626-1.684 1.917 0 2.894 1.357 2.894 3.254z" id="c" fill="#4a0" fill-rule="evenodd" stroke-width="1.5" overflow="visible"></path><use height="287.884" width="330.812" transform="translate(0 25.206)" xlink:href="#a"></use><use height="287.884" width="330.812" transform="translate(0 25.206)" xlink:href="#b"></use><use height="287.884" width="330.812" transform="translate(0 25.206)" xlink:href="#c"></use><path transform="matrix(.74458 0 0 .7641 -1750.5 -508.204)" d="M2700.19 785.026a10.489 10.66 0 1 1-20.977 0 10.489 10.66 0 1 1 20.977 0z" id="d" style="marker:none" fill="#338000" fill-rule="evenodd" stroke-width="1.5" overflow="visible"></path><path id="e" d="m2680.844 788.616 1.995 2.512 3.842 2.143 3.325.147 3.547-.369 3.768-2.955 1.626-2.513 1.034-3.916v-4.063l-1.625-2.29-2.365-2.735-2.955-1.182s1.536 2.719 1.92 3.99c.37 1.221.395 2.812.149 4.064-.238 1.208-.857 2.732-1.626 3.694-.851 1.066-2.465 2.364-3.694 2.956-1.373.66-3.132.84-4.655.886-1.29.039-4.286-.37-4.286-.37z" transform="matrix(.74458 0 0 .7641 -1750.5 -506.627)" fill="#250" fill-rule="evenodd"></path><path id="f" d="M2690.302 778.013c0 1.897-1.556 3.436-3.473 3.436-1.917 0-3.473-1.54-3.473-3.436 0-.974.767-.944 1.426-1.57.624-.591 1.694-1.684 2.626-1.684 1.917 0 2.894 1.357 2.894 3.254z" style="marker:none" transform="matrix(1.2357 0 0 1.24063 -3071.088 -876.15)" fill="#4a0" fill-rule="evenodd" stroke-width="1.5" overflow="visible"></path><use height="287.884" width="330.812" transform="translate(-12.527 -15.511)" id="g" xlink:href="#d"></use><use height="287.884" width="330.812" transform="translate(-12.527 -15.511)" id="h" xlink:href="#e"></use><use height="287.884" width="330.812" transform="translate(-12.527 -15.511)" id="i" xlink:href="#f"></use><use height="287.884" width="330.812" transform="translate(-15.958 -10.74)" id="j" xlink:href="#g"></use><use height="287.884" width="330.812" transform="translate(-15.958 -10.74)" id="k" xlink:href="#h"></use><use height="287.884" width="330.812" transform="translate(-15.958 -10.74)" id="l" xlink:href="#i"></use><use height="287.884" width="330.812" transform="translate(-16.557 -12.527)" id="m" xlink:href="#j"></use><use height="287.884" width="330.812" transform="translate(-16.557 -12.527)" id="n" xlink:href="#k"></use><use height="287.884" width="330.812" transform="translate(-16.557 -12.527)" id="o" xlink:href="#l"></use><use height="287.884" width="330.812" transform="translate(-19.389 -11.633)" id="p" xlink:href="#m"></use><use height="287.884" width="330.812" transform="translate(-19.389 -11.633)" id="q" xlink:href="#n"></use><use height="287.884" width="330.812" transform="translate(-19.389 -11.633)" id="r" xlink:href="#o"></use><use height="287.884" width="330.812" transform="translate(29.084)" id="s" xlink:href="#p"></use><use height="287.884" width="330.812" transform="translate(29.084)" id="t" xlink:href="#q"></use><use height="287.884" width="330.812" transform="translate(29.084)" id="u" xlink:href="#r"></use><use height="287.884" width="330.812" transform="translate(23.267 3.878)" id="v" xlink:href="#s"></use><use height="287.884" width="330.812" transform="translate(23.267 3.878)" id="w" xlink:href="#t"></use><use height="287.884" width="330.812" transform="translate(23.267 3.878)" id="x" xlink:href="#u"></use><use height="287.884" width="330.812" transform="translate(21.328 3.878)" id="y" xlink:href="#v"></use><use height="287.884" width="330.812" transform="translate(21.328 3.878)" id="z" xlink:href="#w"></use><use height="287.884" width="330.812" transform="translate(21.328 3.878)" id="A" xlink:href="#x"></use><use height="287.884" width="330.812" transform="translate(21.328 9.695)" id="B" xlink:href="#y"></use><use height="287.884" width="330.812" transform="translate(21.328 9.695)" id="C" xlink:href="#z"></use><use height="287.884" width="330.812" transform="translate(21.328 9.695)" id="D" xlink:href="#A"></use><use height="287.884" width="330.812" transform="translate(19.389 13.572)" id="E" xlink:href="#B"></use><use height="287.884" width="330.812" transform="translate(19.389 13.572)" id="F" xlink:href="#C"></use><use height="287.884" width="330.812" transform="translate(19.389 13.572)" id="G" xlink:href="#D"></use><use height="287.884" width="330.812" transform="translate(9.695 17.45)" id="H" xlink:href="#E"></use><use height="287.884" width="330.812" transform="translate(9.695 17.45)" id="I" xlink:href="#F"></use><use height="287.884" width="330.812" transform="translate(9.695 17.45)" id="J" xlink:href="#G"></use><use height="287.884" width="330.812" transform="translate(4.325 21.328)" id="K" xlink:href="#H"></use><use height="287.884" width="330.812" transform="translate(4.325 21.328)" id="L" xlink:href="#I"></use><use height="287.884" width="330.812" transform="translate(4.325 21.328)" id="M" xlink:href="#J"></use><use height="287.884" width="330.812" transform="translate(-304.408)" id="N" xlink:href="#K"></use><use height="287.884" width="330.812" transform="translate(-304.408)" id="O" xlink:href="#L"></use><use height="287.884" width="330.812" transform="translate(-304.408)" id="P" xlink:href="#M"></use><use height="287.884" width="330.812" transform="translate(3.878 -19.836)" id="Q" xlink:href="#N"></use><use height="287.884" width="330.812" transform="translate(3.878 -19.836)" id="R" xlink:href="#O"></use><use height="287.884" width="330.812" transform="translate(3.878 -19.836)" id="S" xlink:href="#P"></use><use height="287.884" width="330.812" transform="translate(11.633 -19.389)" id="T" xlink:href="#Q"></use><use height="287.884" width="330.812" transform="translate(11.633 -19.389)" id="U" xlink:href="#R"></use><use height="287.884" width="330.812" transform="translate(11.633 -19.389)" id="V" xlink:href="#S"></use><use height="287.884" width="330.812" transform="translate(19.389 -13.572)" id="W" xlink:href="#T"></use><use height="287.884" width="330.812" transform="translate(19.389 -13.572)" id="X" xlink:href="#U"></use><use height="287.884" width="330.812" transform="translate(19.389 -13.572)" id="Y" xlink:href="#V"></use><use height="287.884" width="330.812" transform="translate(23.267 -9.695)" id="Z" xlink:href="#W"></use><use height="287.884" width="330.812" transform="translate(23.267 -9.695)" id="aa" xlink:href="#X"></use><use height="287.884" width="330.812" transform="translate(23.267 -9.695)" id="ab" xlink:href="#Y"></use><use height="287.884" width="330.812" transform="translate(23.267 -5.817)" id="ac" xlink:href="#Z"></use><use height="287.884" width="330.812" transform="translate(23.267 -5.817)" id="ad" xlink:href="#aa"></use><use height="287.884" width="330.812" transform="translate(23.267 -5.817)" id="ae" xlink:href="#ab"></use><use height="287.884" width="330.812" transform="translate(23.267)" id="af" xlink:href="#ac"></use><use height="287.884" width="330.812" transform="translate(23.267)" id="ag" xlink:href="#ad"></use><use height="287.884" width="330.812" transform="translate(23.267)" id="ah" xlink:href="#ae"></use><use height="287.884" width="330.812" transform="translate(21.328 1.939)" id="ai" xlink:href="#af"></use><use height="287.884" width="330.812" transform="translate(21.328 1.939)" id="aj" xlink:href="#ag"></use><use height="287.884" width="330.812" transform="translate(21.328 1.939)" id="ak" xlink:href="#ah"></use><use height="287.884" width="330.812" transform="translate(-14.913 7.756)" id="al" xlink:href="#ai"></use><use height="287.884" width="330.812" transform="translate(-14.913 7.756)" id="am" xlink:href="#aj"></use><use height="287.884" width="330.812" transform="translate(-14.913 7.756)" id="an" xlink:href="#ak"></use><use height="287.884" width="330.812" transform="translate(-17.602 13.126)" id="ao" xlink:href="#al"></use><use height="287.884" width="330.812" transform="translate(-17.602 13.126)" id="ap" xlink:href="#am"></use><use height="287.884" width="330.812" transform="translate(-17.602 13.126)" id="aq" xlink:href="#an"></use><use height="287.884" width="330.812" transform="translate(-17.45 11.633)" id="ar" xlink:href="#ao"></use><use height="287.884" width="330.812" transform="translate(-17.45 11.633)" id="as" xlink:href="#ap"></use><use height="287.884" width="330.812" transform="translate(-17.45 11.633)" id="at" xlink:href="#aq"></use><use height="287.884" width="330.812" transform="translate(-9.695 17.45)" xlink:href="#ar"></use><use height="287.884" width="330.812" transform="translate(-9.695 17.45)" xlink:href="#as"></use><use height="287.884" width="330.812" transform="translate(-9.695 17.45)" xlink:href="#at"></use><use height="287.884" width="330.812" transform="translate(11.633 67.862)" id="au" xlink:href="#v"></use><use height="287.884" width="330.812" transform="translate(11.633 67.862)" id="av" xlink:href="#w"></use><use height="287.884" width="330.812" transform="translate(11.633 67.862)" id="aw" xlink:href="#x"></use><use height="287.884" width="330.812" transform="translate(-7.756 21.328)" id="ax" xlink:href="#au"></use><use height="287.884" width="330.812" transform="translate(-7.756 21.328)" id="ay" xlink:href="#av"></use><use height="287.884" width="330.812" transform="translate(-7.756 21.328)" id="az" xlink:href="#aw"></use><use height="287.884" width="330.812" transform="translate(-79.495)" id="aA" xlink:href="#ax"></use><use height="287.884" width="330.812" transform="translate(-79.495)" id="aB" xlink:href="#ay"></use><use height="287.884" width="330.812" transform="translate(-79.495)" id="aC" xlink:href="#az"></use><use height="287.884" width="330.812" transform="translate(0 -21.328)" id="aD" xlink:href="#aA"></use><use height="287.884" width="330.812" transform="translate(0 -21.328)" id="aE" xlink:href="#aB"></use><use height="287.884" width="330.812" transform="translate(0 -21.328)" id="aF" xlink:href="#aC"></use><use height="287.884" width="330.812" transform="translate(0 -19.389)" id="aG" xlink:href="#aD"></use><use height="287.884" width="330.812" transform="translate(0 -19.389)" id="aH" xlink:href="#aE"></use><use height="287.884" width="330.812" transform="translate(0 -19.389)" id="aI" xlink:href="#aF"></use><use height="287.884" width="330.812" transform="translate(-87.25 21.328)" id="aJ" xlink:href="#aG"></use><use height="287.884" width="330.812" transform="translate(-87.25 21.328)" id="aK" xlink:href="#aH"></use><use height="287.884" width="330.812" transform="translate(-87.25 21.328)" id="aL" xlink:href="#aI"></use><use height="287.884" width="330.812" transform="translate(9.695 21.328)" id="aM" xlink:href="#aJ"></use><use height="287.884" width="330.812" transform="translate(9.695 21.328)" id="aN" xlink:href="#aK"></use><use height="287.884" width="330.812" transform="translate(9.695 21.328)" id="aO" xlink:href="#aL"></use><use height="287.884" width="330.812" transform="translate(7.756 21.328)" id="aP" xlink:href="#aM"></use><use height="287.884" width="330.812" transform="translate(7.756 21.328)" id="aQ" xlink:href="#aN"></use><use height="287.884" width="330.812" transform="translate(7.756 21.328)" id="aR" xlink:href="#aO"></use><use height="287.884" width="330.812" transform="translate(-46.534 13.572)" id="aS" xlink:href="#aP"></use><use height="287.884" width="330.812" transform="translate(-46.534 13.572)" id="aT" xlink:href="#aQ"></use><use height="287.884" width="330.812" transform="translate(-46.534 13.572)" id="aU" xlink:href="#aR"></use><use height="287.884" width="330.812" transform="translate(116.334 -11.633)" id="aV" xlink:href="#aS"></use><use height="287.884" width="330.812" transform="translate(116.334 -11.633)" id="aW" xlink:href="#aT"></use><use height="287.884" width="330.812" transform="translate(116.334 -11.633)" id="aX" xlink:href="#aU"></use><use height="287.884" width="330.812" transform="translate(70.846 -3.878)" id="aY" xlink:href="#aV"></use><use height="287.884" width="330.812" transform="translate(70.846 -3.878)" id="aZ" xlink:href="#aW"></use><use height="287.884" width="330.812" transform="translate(70.846 -3.878)" id="ba" xlink:href="#aX"></use><use height="287.884" width="330.812" transform="translate(48.473 13.572)" xlink:href="#aY"></use><use height="287.884" width="330.812" transform="translate(48.473 13.572)" xlink:href="#aZ"></use><use height="287.884" width="330.812" transform="translate(48.473 13.572)" xlink:href="#ba"></use><use height="287.884" width="330.812" transform="translate(-52.35 31.022)" xlink:href="#s"></use><use height="287.884" width="330.812" transform="translate(-52.35 31.022)" xlink:href="#t"></use><use height="287.884" width="330.812" transform="translate(-52.35 31.022)" xlink:href="#u"></use></g><path d="M126.979 99.06c32.474-10.037 72.501-15.49 98.934-15.055 25.426.219 64.446 6.982 97.424 15.055" fill="none"></path><path d="m145.98 72.412 1.89 7.096-.588.157c-.937-1.734-2.14-2.933-3.611-3.598-1.47-.665-2.971-.793-4.501-.385a6.282 6.282 0 0 0-3.224 2.04 6.652 6.652 0 0 0-1.572 3.506c-.23 1.69-.096 3.465.4 5.327.489 1.832 1.165 3.438 2.029 4.82.864 1.381 1.891 2.326 3.083 2.833 1.192.507 2.572.551 4.143.133 1.288-.343 2.393-.94 3.315-1.789.922-.85 1.793-2.122 2.613-3.817l.47 1.766c-.828 1.504-1.792 2.69-2.891 3.56-1.1.87-2.48 1.526-4.14 1.969-2.185.582-4.242.66-6.171.237-1.93-.424-3.573-1.333-4.931-2.729a10.906 10.906 0 0 1-2.778-4.87c-.52-1.953-.503-3.941.052-5.965s1.572-3.75 3.05-5.179c1.48-1.429 3.195-2.403 5.148-2.924 1.44-.383 3.042-.476 4.81-.279 1.022.116 1.659.14 1.91.073.323-.086.57-.278.744-.578.173-.3.227-.715.16-1.247zm15.342-2.948c3.29-.765 6.169-.32 8.638 1.333 2.47 1.654 4.004 4.025 4.602 7.114.512 2.638.19 5.11-.965 7.413-1.53 3.055-4.161 4.945-7.894 5.669-3.743.725-6.883.018-9.42-2.121-2.004-1.691-3.273-3.912-3.806-6.663-.599-3.088-.047-5.866 1.654-8.334 1.702-2.469 4.1-3.939 7.19-4.41zm.374.946c-1.902.37-3.16 1.621-3.776 3.756-.498 1.752-.458 4.121.121 7.107.688 3.549 1.82 6.051 3.397 7.507 1.1 1.017 2.431 1.374 3.996 1.071 1.053-.204 1.883-.63 2.49-1.278.773-.83 1.27-2.01 1.493-3.545.222-1.534.11-3.456-.339-5.767-.533-2.751-1.188-4.76-1.964-6.026s-1.614-2.103-2.516-2.512c-.902-.409-1.869-.513-2.902-.313zm23.198 7.116.766 5.888c.147 1.136.31 1.843.488 2.119.178.276.454.48.828.61.374.129 1.041.132 2.002.007l.074.573-10.753 1.398-.075-.573c.971-.126 1.618-.302 1.94-.528.323-.226.535-.493.637-.8.102-.307.08-1.03-.069-2.165l-1.772-13.636c-.148-1.136-.31-1.842-.488-2.118-.178-.277-.454-.48-.828-.61-.374-.13-1.042-.132-2.002-.007l-.075-.574 9.762-1.269c2.541-.33 4.423-.396 5.646-.198a5.667 5.667 0 0 1 3.135 1.57c.867.848 1.383 1.908 1.548 3.178.201 1.55-.19 2.903-1.174 4.06-.63.734-1.564 1.343-2.803 1.83l5.976 6.456c.78.833 1.325 1.345 1.634 1.536a2.65 2.65 0 0 0 1.54.336l.075.573-6.617.86-8.016-8.695zm-1.34-10.304 1.197 9.204.883-.115c1.436-.187 2.493-.458 3.172-.814.678-.356 1.177-.904 1.496-1.644.318-.74.406-1.663.262-2.768-.208-1.601-.736-2.735-1.584-3.402-.849-.667-2.104-.893-3.768-.676zm28.217-4.256c3.363-.315 6.156.513 8.38 2.484 2.225 1.971 3.426 4.527 3.603 7.668.152 2.683-.5 5.088-1.954 7.216-1.927 2.821-4.789 4.34-8.585 4.555-3.806.215-6.822-.908-9.048-3.37-1.759-1.945-2.717-4.316-2.876-7.114-.178-3.14.743-5.82 2.761-8.036 2.02-2.217 4.592-3.35 7.719-3.403zm.244.988c-1.935.11-3.35 1.181-4.247 3.214-.73 1.669-1.01 4.022-.837 7.059.204 3.608.99 6.24 2.356 7.895.952 1.156 2.224 1.69 3.815 1.6 1.071-.061 1.951-.372 2.64-.933.877-.717 1.529-1.82 1.956-3.31.427-1.49.574-3.411.44-5.761-.158-2.798-.536-4.876-1.135-6.235-.598-1.36-1.317-2.302-2.155-2.828-.839-.527-1.783-.76-2.833-.7zm22.422-1.068 9.834 13.61.422-9.1c.058-1.269-.084-2.136-.427-2.6-.472-.627-1.296-.957-2.473-.99l.027-.578 6.992.324-.026.577c-.9.073-1.508.194-1.824.362-.315.168-.568.453-.759.856-.19.403-.31 1.104-.355 2.103l-.816 17.622-.531-.025-13.497-18.284-.623 13.454c-.056 1.218.184 2.053.721 2.505a3.062 3.062 0 0 0 1.882.728l.5.024-.027.577-7.507-.348.026-.577c1.166.043 1.989-.158 2.468-.605.48-.447.746-1.233.798-2.357l.691-14.937-.426-.583c-.422-.582-.8-.97-1.135-1.163-.335-.192-.825-.314-1.47-.365l.028-.577zm28.119 17.674-7.427-.928-1.14 1.936c-.374.646-.59 1.191-.645 1.636-.073.589.11 1.053.55 1.391.26.2.931.41 2.016.63l-.071.574-6.993-.874.072-.574c.769-.02 1.428-.254 1.978-.705.55-.451 1.281-1.433 2.194-2.946l9.616-15.837.295.037 5.427 18.189c.52 1.723.985 2.826 1.398 3.308.311.364.784.612 1.418.744l-.071.573-10.171-1.27.071-.574.419.052c.817.102 1.404.06 1.764-.126.248-.137.391-.36.43-.67a1.916 1.916 0 0 0-.022-.586c-.009-.095-.115-.502-.32-1.22zm-.384-1.214-2.227-7.631-4.13 6.837zm9.784 8.536.099-.57.692.12c.606.104 1.087.09 1.443-.045.356-.134.64-.352.85-.654.13-.2.288-.838.474-1.916l2.37-13.734c.184-1.068.242-1.745.175-2.031-.067-.287-.255-.56-.564-.819-.31-.26-.756-.44-1.342-.54l-.692-.12.098-.57 9.346 1.613c2.494.43 4.443 1.115 5.845 2.055 1.715 1.152 2.907 2.652 3.576 4.501.67 1.85.82 3.836.454 5.961-.253 1.468-.723 2.78-1.408 3.935-.686 1.156-1.473 2.072-2.361 2.748a9.105 9.105 0 0 1-2.93 1.493c-1.064.318-2.328.489-3.79.511-.648.015-1.644-.093-2.988-.325zm11.359-18.32-2.811 16.29c-.149.863-.199 1.399-.15 1.608.048.21.16.382.338.518.25.202.638.348 1.161.438 1.715.296 3.124-.063 4.23-1.077 1.504-1.369 2.543-3.716 3.117-7.042.462-2.679.41-4.892-.155-6.638-.45-1.368-1.16-2.368-2.13-3-.684-.446-1.884-.811-3.6-1.097zm27.553 3.715c3.327.575 5.807 2.105 7.438 4.59 1.631 2.484 2.121 5.266 1.471 8.344-.555 2.629-1.814 4.78-3.775 6.452-2.598 2.22-5.757 2.936-9.477 2.15-3.73-.788-6.347-2.66-7.852-5.619-1.188-2.338-1.492-4.877-.913-7.619.65-3.078 2.24-5.422 4.768-7.034 2.528-1.61 5.308-2.032 8.34-1.264zm-.024 1.017c-1.895-.4-3.542.263-4.94 1.99-1.14 1.42-2.026 3.619-2.654 6.595-.748 3.536-.678 6.282.208 8.236.616 1.365 1.704 2.213 3.264 2.542 1.05.222 1.98.152 2.79-.209 1.035-.463 1.953-1.357 2.755-2.684.802-1.326 1.447-3.14 1.933-5.444.58-2.742.758-4.847.536-6.315-.222-1.468-.67-2.566-1.34-3.293-.672-.728-1.522-1.2-2.552-1.418z" style="line-height:125%;-inkscape-font-specification:Sans Bold" font-size="32" font-weight="700" letter-spacing="0" word-spacing="0" stroke="#250" font-family="Times New Roman" stroke-width=".5" fill="#ff0"></path><g font-weight="700" letter-spacing="0" word-spacing="0" fill="#ff0" stroke="#250" font-family="Times New Roman"><path d="M140.226 224.333v4.763h-.468c-.276-1.099-.584-1.886-.92-2.362-.338-.485-.801-.87-1.39-1.155-.328-.156-.904-.234-1.726-.234h-1.31v13.575c0 .9.047 1.462.142 1.687.104.225.299.424.584.597.295.164.693.247 1.194.247h.584v.48h-9.214v-.48h.584c.51 0 .922-.091 1.233-.273.225-.121.402-.329.532-.623.095-.208.143-.753.143-1.635v-13.575h-1.272c-1.185 0-2.046.251-2.582.753-.753.7-1.229 1.7-1.428 2.998h-.493v-4.763h15.807" style="line-height:125%;-inkscape-font-specification:Sans Bold" font-size="26.578" stroke-width=".5"></path><path d="M146.922 235.282v4.283c0 .707.037 1.149.112 1.326.082.176.235.333.46.469.23.129.54.193.927.193h.459v.378h-7.23v-.378h.46c.4 0 .723-.071.968-.214.177-.095.313-.258.408-.49.075-.162.112-.59.112-1.284v-9.095c0-.707-.037-1.15-.112-1.326-.075-.177-.228-.33-.459-.459-.224-.136-.53-.204-.918-.204h-.459v-.377h7.23v.377h-.459c-.401 0-.724.072-.969.214-.176.096-.316.259-.418.49-.075.163-.112.591-.112 1.285v3.915h4.884v-3.915c0-.707-.037-1.15-.112-1.326-.075-.177-.228-.33-.459-.459-.23-.136-.54-.204-.928-.204h-.448v-.377h7.219v.377h-.449c-.408 0-.73.072-.968.214-.177.096-.316.259-.418.49-.075.163-.113.591-.113 1.285v9.095c0 .707.038 1.149.113 1.326.074.176.227.333.458.469.232.129.54.193.928.193h.449v.378h-7.22v-.378h.45c.407 0 .73-.071.968-.214.177-.095.316-.258.418-.49.075-.162.112-.59.112-1.284v-4.283h-4.884m16.213-6.382v5.628h.275c.877 0 1.513-.275 1.907-.826.394-.55.646-1.363.754-2.437h.388v7.24h-.388c-.081-.789-.255-1.435-.52-1.938-.258-.503-.56-.84-.907-1.01-.347-.176-.85-.264-1.51-.264v3.895c0 .761.031 1.227.093 1.397.068.17.19.309.367.418.176.109.462.163.856.163h.826c1.292 0 2.325-.3 3.1-.897.782-.599 1.342-1.51 1.682-2.733h.378l-.622 4.395h-11.95v-.378h.458c.401 0 .724-.071.969-.214.176-.095.312-.258.408-.49.074-.162.112-.59.112-1.284v-9.095c0-.626-.017-1.01-.051-1.153a.976.976 0 0 0-.378-.55c-.258-.19-.611-.286-1.06-.286h-.459v-.377h11.573v4.089h-.387c-.197-1-.476-1.717-.836-2.152-.354-.435-.857-.754-1.51-.958-.38-.122-1.094-.184-2.14-.184h-1.428" style="line-height:125%;-inkscape-font-specification:Sans Bold" font-size="20.883" stroke-width=".475"></path><path d="M194.355 223.93v6.1h-.506c-.38-1.592-1.09-2.812-2.128-3.66-1.039-.847-2.215-1.271-3.53-1.271a5.217 5.217 0 0 0-3.024.947 5.524 5.524 0 0 0-2.012 2.479c-.545 1.306-.817 2.76-.817 4.36 0 1.575.199 3.011.597 4.309.398 1.289 1.02 2.267 1.869 2.933.847.657 1.946.986 3.296.986 1.107 0 2.12-.242 3.037-.727.925-.484 1.899-1.319 2.92-2.504v1.518c-.987 1.03-2.016 1.778-3.09 2.245-1.063.459-2.31.688-3.737.688-1.877 0-3.547-.376-5.009-1.13a8.03 8.03 0 0 1-3.374-3.243 9.096 9.096 0 0 1-1.181-4.504c0-1.678.437-3.27 1.31-4.775.883-1.506 2.068-2.674 3.557-3.504a9.67 9.67 0 0 1 4.762-1.246c1.237 0 2.544.268 3.92.804.795.312 1.302.468 1.518.468.277 0 .515-.1.714-.299.207-.207.341-.532.402-.973h.506" style="line-height:125%;-inkscape-font-specification:Sans Bold" font-size="26.578" stroke-width=".5"></path><path d="M201.368 235.63v3.874c0 .748.045 1.22.133 1.417.095.19.258.344.49.46.23.115.662.172 1.294.172v.378h-7.076v-.378c.639 0 1.07-.057 1.295-.173.231-.122.39-.279.48-.469.094-.19.142-.66.142-1.407v-8.973c0-.748-.048-1.217-.143-1.407-.088-.197-.248-.354-.479-.47-.231-.115-.663-.173-1.295-.173v-.377h6.424c1.672 0 2.896.116 3.67.347.776.23 1.408.66 1.897 1.284.49.62.734 1.346.734 2.183 0 1.02-.367 1.862-1.1 2.528-.47.422-1.126.738-1.969.949l3.324 4.68c.435.605.745.982.928 1.132.279.21.602.326.969.346v.378h-4.354l-4.456-6.302h-.908m0-6.78v6.056h.582c.945 0 1.652-.085 2.12-.255a2.12 2.12 0 0 0 1.102-.938c.272-.455.408-1.047.408-1.774 0-1.054-.248-1.832-.745-2.335-.49-.503-1.281-.755-2.375-.755h-1.092m17.61-.938c2.203-.081 3.99.561 5.364 1.927 1.38 1.367 2.07 3.076 2.07 5.13 0 1.753-.514 3.296-1.54 4.629-1.36 1.767-3.28 2.65-5.761 2.65-2.488 0-4.412-.842-5.772-2.528-1.074-1.332-1.61-2.913-1.61-4.741 0-2.053.696-3.763 2.09-5.13 1.4-1.372 3.12-2.018 5.16-1.937m.121.653c-1.264 0-2.226.646-2.885 1.937-.537 1.06-.806 2.583-.806 4.568 0 2.36.415 4.103 1.244 5.231.578.789 1.387 1.183 2.427 1.183.7 0 1.285-.17 1.754-.51.598-.435 1.064-1.128 1.397-2.08.333-.958.5-2.206.5-3.742 0-1.829-.17-3.195-.51-4.1-.34-.91-.775-1.552-1.306-1.926-.523-.374-1.128-.561-1.815-.561m28.745-.459v.377c-.259.02-.476.092-.653.214-.177.123-.333.31-.469.561-.04.082-.255.609-.642 1.58l-4.334 11.41h-.397l-3.427-8.911-3.772 8.912h-.378l-4.547-11.288c-.463-1.135-.785-1.822-.969-2.06-.183-.238-.493-.377-.928-.418v-.377h5.996v.377c-.483.014-.806.089-.969.225a.608.608 0 0 0-.234.49c0 .257.166.805.5 1.64l2.712 6.71 2.171-5.24-.57-1.47c-.313-.801-.555-1.335-.725-1.6-.17-.272-.367-.466-.591-.581-.218-.116-.54-.174-.969-.174v-.377h6.7v.377c-.47.007-.806.045-1.01.112a.651.651 0 0 0-.336.245.612.612 0 0 0-.123.377c0 .157.153.636.46 1.438l2.518 6.546 2.253-5.924c.238-.612.384-1.03.439-1.254a2.67 2.67 0 0 0 .081-.622c0-.279-.095-.496-.285-.653-.19-.163-.554-.251-1.091-.265v-.377h3.589m5.384 0 6.821 8.575v-5.944c0-.83-.119-1.39-.357-1.683-.326-.394-.873-.584-1.641-.57v-.378h4.568v.377c-.585.075-.98.174-1.183.296-.197.116-.354.31-.47.581-.108.265-.162.724-.162 1.377v11.512h-.347l-9.35-11.512v8.79c0 .795.18 1.332.54 1.61a2.02 2.02 0 0 0 1.254.418h.327v.378h-4.905v-.378c.761-.007 1.292-.163 1.59-.469.3-.306.45-.826.45-1.56v-9.758l-.296-.367c-.293-.367-.55-.608-.775-.724-.225-.115-.547-.18-.969-.194v-.377h4.905" style="line-height:125%;-inkscape-font-specification:Sans Bold" font-size="20.883" stroke-width=".475"></path><path d="M286.08 223.93v6.1h-.506c-.38-1.592-1.09-2.812-2.128-3.66-1.038-.847-2.215-1.271-3.53-1.271a5.217 5.217 0 0 0-3.024.947 5.524 5.524 0 0 0-2.011 2.479c-.545 1.306-.818 2.76-.818 4.36 0 1.575.2 3.011.597 4.309.398 1.289 1.021 2.267 1.869 2.933.848.657 1.947.986 3.296.986 1.108 0 2.12-.242 3.037-.727.926-.484 1.899-1.319 2.92-2.504v1.518c-.986 1.03-2.016 1.778-3.089 2.245-1.064.459-2.31.688-3.737.688-1.878 0-3.547-.376-5.01-1.13a8.03 8.03 0 0 1-3.374-3.243 9.096 9.096 0 0 1-1.18-4.504c0-1.678.436-3.27 1.31-4.775.882-1.506 2.068-2.674 3.556-3.504a9.67 9.67 0 0 1 4.763-1.246c1.237 0 2.543.268 3.919.804.796.312 1.302.468 1.518.468.277 0 .515-.1.714-.299.208-.207.342-.532.402-.973h.506" style="line-height:125%;-inkscape-font-specification:Sans Bold" font-size="26.578" stroke-width=".5"></path><path d="M295.194 241.553v.378h-7.23v-.378h.46c.4 0 .724-.071.968-.214.177-.095.313-.258.408-.49.075-.162.112-.59.112-1.284v-9.095c0-.707-.037-1.15-.112-1.326-.074-.177-.227-.33-.459-.459-.224-.136-.53-.204-.917-.204h-.46v-.377h7.23v.377h-.459c-.4 0-.723.072-.968.214-.177.096-.316.259-.418.49-.075.163-.112.591-.112 1.285v9.095c0 .707.037 1.149.112 1.326.081.176.234.333.459.469.23.129.54.193.927.193h.46m13.642-13.449v3.742h-.367c-.217-.863-.458-1.482-.724-1.856a2.77 2.77 0 0 0-1.09-.907c-.259-.122-.711-.184-1.357-.184h-1.03v10.666c0 .707.038 1.149.113 1.326.081.176.234.333.458.469.231.129.544.193.938.193h.46v.378h-7.24v-.378h.459c.4 0 .723-.071.968-.214.177-.095.316-.258.418-.49.075-.162.112-.59.112-1.284V228.9h-.999c-.931 0-1.608.198-2.029.592-.591.55-.965 1.336-1.122 2.355h-.387v-3.742h12.42m15.621-.001v.377c-.456.062-.806.194-1.05.398-.34.286-.877 1.064-1.612 2.335l-2.997 5.007v3.344c0 .714.037 1.16.112 1.336.075.17.22.323.438.459.225.129.52.193.887.193h.775v.378h-7.76v-.378h.725c.407 0 .73-.071.968-.214.177-.095.316-.258.418-.49.075-.162.112-.59.112-1.284v-2.773l-3.252-5.925c-.646-1.169-1.101-1.855-1.367-2.06-.265-.21-.618-.319-1.06-.326v-.377h6.628v.377h-.296c-.401 0-.683.058-.846.174-.157.115-.235.238-.235.367 0 .244.272.86.816 1.845l2.498 4.579 2.488-4.17c.619-1.02.928-1.697.928-2.03 0-.183-.088-.336-.265-.459-.231-.17-.656-.272-1.275-.306v-.377h4.222" style="line-height:125%;-inkscape-font-specification:Sans Bold" font-size="20.883" stroke-width=".475"></path></g></svg>