<svg xmlns="http://www.w3.org/2000/svg" xmlns:xlink="http://www.w3.org/1999/xlink" width="800" height="533"><path fill="red" d="M-3.919.642h803.32v533.87H-3.919z"/><path fill="navy" d="M265.586.508h269.429v533.879H265.586z"/><g transform="translate(-1.021 1.021)"><path transform="matrix(1.13258 0 0 1.10076 276.738 142.535)" d="M195 101c0 49.153-38.727 89-86.5 89S22 150.153 22 101s38.727-89 86.5-89S195 51.847 195 101z" fill="#ff0" stroke="#000" stroke-width="1.132"/><g fill="#ff0"><path d="M171.323 106.802c0 36.845-31.064 66.714-69.383 66.714-38.32 0-69.383-29.869-69.383-66.714 0-36.846 31.064-66.715 69.383-66.715 38.32 0 69.383 29.87 69.383 66.715z" transform="matrix(1.07895 0 0 1.1221 289.108 133.092)" stroke="#000" stroke-width="1.3"/><path d="M325.433 254.525c1.69-99.566 146.417-100.274 147.575 1.057z"/></g><path d="M421.897 246.21c0 9.885-10.518 17.898-23.493 17.898-12.975 0-23.493-8.013-23.493-17.899 0-9.885 10.518-17.9 23.493-17.9 12.975 0 23.493 8.015 23.493 17.9z" fill="#fff"/><path d="M416.236 246.21c0 7.503-7.984 13.585-17.832 13.585s-17.832-6.082-17.832-13.586c0-7.503 7.984-13.586 17.832-13.586s17.832 6.083 17.832 13.586z" fill="#fc6706"/><path d="m376.42 241.586-12.453-7.925" fill="red" stroke="red"/><path d="m379.44 236.68-22.644-19.625m26.04 15.285-16.228-22.455" fill="none" stroke="red"/><path d="m388.308 231.208-18.303-38.306" fill="none" stroke="#fb0000"/><path d="m392.837 228.943-6.415-30.38m12.076 31.135-1.132-43.023m6.416 41.891 5.095-30.38" fill="none" stroke="#fc0000"/><path d="m408.5 230.642 15.85-38.683" fill="none" stroke="red"/><path d="m412.84 233.283 17.925-25.663" fill="none" stroke="#fc0000"/><path d="m416.236 236.869 30.38-28.116" fill="none" stroke="red"/><path d="M361.514 240.454c-14.59-15.889-28.438-31.386.754-24.153m3.29 22.048c-13.99-17.235-30.138-37.453 5.095-29.437" fill="none" stroke="#000"/><path d="M418.5 247.813h12.643l3.396 3.585-.566 3.774-1.464 1.266-1.555 3.074-3.774 1.321-6.793-3.208zm-75.79-.4-.066-10.179-1.133.012-.044-3.02h-4.862v2.454l-2.076.023.067 9.999-2.33-.021.121 5.983-2.487-.044.1 7.092 28.494-.011.067-12.1z" fill="navy" stroke="navy"/><path d="m452.798 229.762-1.868 1.068-.934.8c-.579.084-.824-.099-1.971.44l-.298.895.134 3.736.226.328.574-.328.165-.864 1.17-.07 1.6-.534 1.068-.134z" fill="navy"/><path d="m439.455 247.508.133 7.74 5.07.266.134-2.268h4.536l.4 4.136h4.537l-.533-2.135 3.869-.267.267 3.336h.934l1.334-.267-.267-8.005 1.168.3.067-1.902-1.101-.267-10.274-3.736.267 6.272-6.005.4zm13.343-17.612v16.812m-3.398-2.488-10.315 2.716" fill="navy" stroke="navy"/><path d="m458.943 247.705-.01-9.27 1.358-.009.024-1.098 2.204-.023.032-.919 2.92.04v1.075h1.178l.024 14.81 3.469.267-.134 5.871-12.49.133" fill="#ff0" stroke="navy" stroke-width=".8"/><path d="m464.699 236.774-.19 21.653" fill="navy" stroke="navy" stroke-width=".8"/><path d="M466.717 257.766v-.306h.991v-.85h.99v1.401l-.601.03c-.331.018-.777.032-.99.032h-.39v-.307z" fill="navy" stroke="navy" stroke-width=".238"/><path d="m467.23 256.567-2.296-.01.02-1.675c.018-1.333.15-16.274.151-16.829v-.142h1.127l.012 7.37c.01 4.053.023 7.38.037 7.394.02.02 3.084.276 3.358.28h.08l-.022 1.01c-.054 2.47-.061 2.627-.119 2.618-.029-.004-1.086-.012-2.349-.017z" fill="#ff0" stroke="navy" stroke-width=".227"/><path d="M464.938 257.342v-.75h2.736v.834h-1.001v.623l-.556.022c-.305.012-.696.022-.867.022h-.312v-.75z" fill="navy" stroke="navy" stroke-width=".127"/><path d="M468.741 257.334v-.726h.9l-.021.701c-.011.385-.022.702-.024.704 0 .002-.196.014-.43.026l-.425.021v-.726z" fill="navy" stroke="navy" stroke-width=".327"/><path d="m350.065 242.577 1.462-.048-.047-7.83 2.076-.048.142 9.34.518-.046v3.962" fill="#ff0" stroke="navy" stroke-width="1.4"/><path d="m432.762 229.981-.85 4.623-.566 1.698-.047.897-.141 7.312-.047 3.443" fill="#ff0" stroke="navy" stroke-width=".4"/><path d="M432.41 233.01c0-.006.055-.288.117-.627.099-.54.114-.618.125-.627.01-.006.013-.009.015-.008 0 .001 0 .222-.01.491 0 .269-.01.525-.01.57v.08l-.07.038c-.166.092-.173.095-.17.083z" fill="navy" stroke="#ff0" stroke-width=".002"/><path d="M465.453 253.097h-6.038" fill="navy" stroke="navy" stroke-width="1.5"/><path d="m359.132 259.468 14.944-2.402-1.068-5.87-16.011-1.335-2.669 5.07z" fill="navy" stroke="navy"/><path d="m459.47 238.386.134 13.343" fill="navy" stroke="navy" stroke-width="1.1"/><path d="m376.14 209.396-.284 1.416c4.588 1.615 8.869 2.846 12.454 3.208-2.52-1.778-6.382-3.35-12.17-4.624z" stroke="#000" stroke-width=".5"/><path d="m366.822 217.279-.192 1.308c4.273 1.262 8.246 2.186 11.543 2.348-2.39-1.507-5.995-2.763-11.35-3.656z" stroke="#000" stroke-width=".458"/><path d="m354.995 270.92 1.468-.133.934.133.734-.067.667-.4 1 .2.935-.133.667-.267-1.067-.334-.868-.4.2-1.334-.133-.734.667-.134.6.134.801-.667-.2-.734.734.133.467-.2.2-.8-.133-1.068-.134-.8c-.353.562-.431 1.766-1.267 1.2-.26.56-.596 1.002-1.401.734l-.934.2-.134-.934.534-.8-.734-.2-.734 1.067h-.6l-.4-.867.467-.667-.734-.6h-.4l.2-1.068c.16-.522.44-.768.867-.667l-.267-1.068-1.601.534c-.667-.245-1.157 0-1.468.734 0 0-1.267.066-1.267.333s-.067.934-.067.934l.667.934-.534.4.067.801c-.242.725.33.52.534.734-.495.614-.107.787.067 1.068-.791.689-.24 1.062.333 1 0 0 .334 0 .934.067.6.067 1.735-.334 1.735-.334l.333-.333c.74.343 1.496.677.934 1.801l.4-.534-.333 1.135-.4.667-2.269.734-1 .533z" fill="navy"/><path d="m345.489 274.289 1.467-.133.934.133.734-.067.667-.4 1.001.2.934-.133.667-.267-1.067-.334-.868-.4.2-1.334-.133-.734.667-.134.6.134.801-.667-.2-.734.734.133.467-.2.2-.8-.133-1.068-.134-.8c-.353.562-.43 1.766-1.267 1.2-.26.56-.596 1.002-1.401.734l-.934.2-.134-.934.534-.8-.734-.2-.734 1.067h-.6l-.4-.867.467-.667-.734-.6h-.4l.2-1.068c.16-.522.44-.768.867-.667l-.267-1.068-1.601.534c-.667-.245-1.156 0-1.468.734 0 0-1.267.067-1.267.333 0 .267-.067.934-.067.934l.667.934-.534.4.067.801c-.242.725.33.52.534.734-.494.614-.107.787.067 1.068-.79.689-.24 1.062.333 1 0 0 .334 0 .934.067.6.067 1.735-.334 1.735-.334l.333-.333c.74.344 1.496.677.934 1.801l.4-.534-.333 1.135-.4.667-2.268.734-1.001.533z" fill="navy"/><path d="m339.885 272.955 1.467-.134.934.134.734-.067.667-.4 1.001.2.934-.134.667-.266-1.067-.334-.868-.4.2-1.335-.133-.733.667-.134.6.134.801-.668-.2-.733.734.133.467-.2.2-.8-.133-1.068-.134-.8c-.353.562-.43 1.765-1.267 1.2-.26.559-.596 1.002-1.401.734l-.934.2-.134-.934.534-.8-.734-.2-.734 1.067h-.6l-.4-.867.467-.668-.734-.6h-.4l.2-1.067c.16-.522.44-.768.867-.668l-.267-1.067-1.601.534c-.667-.245-1.157 0-1.468.734 0 0-1.267.066-1.267.333s-.067.934-.067.934l.667.934-.534.4.067.801c-.242.725.33.52.534.734-.494.614-.107.787.067 1.067-.79.69-.24 1.063.333 1.001 0 0 .334 0 .934.067.6.066 1.735-.334 1.735-.334l.334-.333c.739.343 1.495.677.934 1.8l.4-.533-.334 1.134-.4.667-2.268.734-1.001.534z" fill="navy"/><path d="m375.21 263.181-.067.267" fill="navy" stroke="navy"/><path id="a" d="m375.477 263.114-.534.467" fill="navy" stroke="navy"/><use transform="translate(-6.008 1.312)" height="197" width="198" xlink:href="#a" fill="navy" stroke="navy"/><use transform="translate(-.568 .451)" height="197" width="198" xlink:href="#a" fill="navy" stroke="navy"/><use transform="translate(-3.344 -5.118)" height="197" width="198" xlink:href="#a"/><use transform="translate(3.386 3.536)" height="197" width="198" xlink:href="#a" fill="navy" stroke="navy"/><use transform="translate(39.949 9.966)" height="197" width="198" xlink:href="#a"/><use transform="translate(35.135 9.664)" height="197" width="198" xlink:href="#a"/><use transform="translate(33.296 11.498)" height="197" width="198" xlink:href="#a"/><use transform="translate(34.35 10.87)" height="197" width="198" xlink:href="#a"/><use transform="rotate(-88.174 395.062 254.608)" height="197" width="198" xlink:href="#a"/><use transform="translate(35.269 12.275)" height="197" width="198" xlink:href="#a"/><use transform="translate(44.22 10.644)" height="197" width="198" xlink:href="#a"/><use transform="translate(42.58 5.03)" height="197" width="198" xlink:href="#a"/><use transform="translate(42.636 7.647)" height="197" width="198" xlink:href="#a"/><use transform="translate(43.721 5.464)" height="197" width="198" xlink:href="#a"/><use transform="translate(41.039 5.78)" height="197" width="198" xlink:href="#a"/><use transform="translate(38.459 7.182)" height="197" width="198" xlink:href="#a"/><use transform="translate(36.062 8.313)" height="197" width="198" xlink:href="#a"/><use transform="translate(36.173 8.738)" height="197" width="198" xlink:href="#a"/><use transform="translate(36.581 10.31)" height="197" width="198" xlink:href="#a"/><use transform="matrix(1 0 0 .76459 39.181 70.396)" height="197" width="198" xlink:href="#a"/><use transform="translate(33.01 12.522)" height="197" width="198" xlink:href="#a"/><use transform="translate(31.537 6.966)" height="197" width="198" xlink:href="#a"/><use transform="translate(34.493 12.97)" height="197" width="198" xlink:href="#a"/><use transform="translate(27.775 8.644)" height="197" width="198" xlink:href="#a"/><use transform="translate(29.438 10.976)" height="197" width="198" xlink:href="#a"/><use transform="translate(28.861 13.167)" height="197" width="198" xlink:href="#a"/><use transform="translate(26.664 10.043)" height="197" width="198" xlink:href="#a"/><use transform="translate(20.881 11.07)" height="197" width="198" xlink:href="#a"/><use transform="translate(23.627 11.972)" height="197" width="198" xlink:href="#a"/><use transform="translate(19.472 10.095)" height="197" width="198" xlink:href="#a"/><use transform="translate(12.081 12.203)" height="197" width="198" xlink:href="#a"/><use transform="translate(14.531 8.146)" height="197" width="198" xlink:href="#a"/><use transform="translate(13.939 10.646)" height="197" width="198" xlink:href="#a"/><use transform="translate(10.534 9.072)" height="197" width="198" xlink:href="#a"/><use transform="translate(9.501 4.228)" height="197" width="198" xlink:href="#a"/><use transform="translate(6.668 4.695)" height="197" width="198" xlink:href="#a"/><use transform="translate(16.312 9.161)" height="197" width="198" xlink:href="#a"/><use transform="translate(7.48 6.32)" height="197" width="198" xlink:href="#a"/><use transform="translate(8.122 8.673)" height="197" width="198" xlink:href="#a"/><use transform="translate(2.802 5.49)" height="197" width="198" xlink:href="#a" fill="navy" stroke="navy"/><use transform="translate(3.824 2.802)" height="197" width="198" xlink:href="#a" fill="navy" stroke="navy"/><use transform="translate(5.112 7.812)" height="197" width="198" xlink:href="#a" fill="navy" stroke="navy"/><use transform="translate(3.151 4.135)" height="197" width="198" xlink:href="#a" fill="navy" stroke="navy"/><use transform="translate(-.055 4.136)" height="197" width="198" xlink:href="#a" fill="navy" stroke="navy"/><use transform="translate(5.089 5.024)" height="197" width="198" xlink:href="#a" fill="navy" stroke="navy"/><use transform="translate(2.127 .394)" height="197" width="198" xlink:href="#a" fill="navy" stroke="navy"/><use transform="translate(1.168 -.807)" height="197" width="198" xlink:href="#a" fill="navy" stroke="navy"/><use transform="translate(-1.975 -.012)" height="197" width="198" xlink:href="#a" fill="navy" stroke="navy"/><use transform="translate(1.225 2.613)" height="197" width="198" xlink:href="#a" fill="navy" stroke="navy"/><use transform="translate(8.649 6.015)" height="197" width="198" xlink:href="#a"/><use transform="translate(9.39 7.386)" height="197" width="198" xlink:href="#a"/><use transform="translate(6.913 8.694)" height="197" width="198" xlink:href="#a"/><use transform="translate(9.658 9.684)" height="197" width="198" xlink:href="#a"/><use transform="translate(6.326 5.836)" height="197" width="198" xlink:href="#a" fill="navy" stroke="navy"/><use transform="translate(44.476 4.335)" height="197" width="198" xlink:href="#a"/><use transform="translate(46.866 3.681)" height="197" width="198" xlink:href="#a"/><use transform="translate(45.725 3.61)" height="197" width="198" xlink:href="#a"/><use transform="translate(47.8 2.408)" height="197" width="198" xlink:href="#a"/><use transform="translate(46.057 6.028)" height="197" width="198" xlink:href="#a"/><use transform="translate(44.154 1.294)" height="197" width="198" xlink:href="#a"/><use transform="translate(46.457 2.401)" height="197" width="198" xlink:href="#a"/><use transform="translate(43.536 .492)" height="197" width="198" xlink:href="#a"/><use transform="translate(46.407 6.29)" height="197" width="198" xlink:href="#a"/><use transform="translate(47.293 -.396)" height="197" width="198" xlink:href="#a"/><use transform="translate(46.831 4.714)" height="197" width="198" xlink:href="#a"/><use transform="translate(28.73 7.326)" height="197" width="198" xlink:href="#a"/><use transform="translate(30.806 10.304)" height="197" width="198" xlink:href="#a"/><use transform="translate(25.219 8.776)" height="197" width="198" xlink:href="#a"/><use transform="translate(21.39 12.494)" height="197" width="198" xlink:href="#a"/><use transform="translate(26.258 9.993)" height="197" width="198" xlink:href="#a"/><use transform="translate(22.353 8.06)" height="197" width="198" xlink:href="#a"/><use transform="translate(23.952 10.058)" height="197" width="198" xlink:href="#a"/><use transform="translate(12.956 11.365)" height="197" width="198" xlink:href="#a"/><use transform="translate(9.696 6.272)" height="197" width="198" xlink:href="#a"/><use transform="translate(12.276 3.446)" height="197" width="198" xlink:href="#a"/><use transform="translate(11.463 5.002)" height="197" width="198" xlink:href="#a"/><use transform="translate(13.177 9.85)" height="197" width="198" xlink:href="#a"/><use transform="translate(11.699 4.637)" height="197" width="198" xlink:href="#a"/><use transform="translate(14.514 6.324)" height="197" width="198" xlink:href="#a"/><use transform="translate(14.277 6.53)" height="197" width="198" xlink:href="#a"/><use transform="translate(15.336 3.935)" height="197" width="198" xlink:href="#a"/><use transform="translate(15.13 7.104)" height="197" width="198" xlink:href="#a"/><use transform="translate(13.72 7.96)" height="197" width="198" xlink:href="#a"/><use transform="translate(14.436 3.452)" height="197" width="198" xlink:href="#a"/><use transform="translate(12.808 4.535)" height="197" width="198" xlink:href="#a"/><use transform="translate(11.023 8.183)" height="197" width="198" xlink:href="#a"/><use transform="translate(11.008 4.95)" height="197" width="198" xlink:href="#a"/><use transform="translate(11.509 7.271)" height="197" width="198" xlink:href="#a"/><use transform="translate(14.843 10.17)" height="197" width="198" xlink:href="#a"/><use transform="translate(15.052 7.185)" height="197" width="198" xlink:href="#a"/><use transform="translate(12.845 3.263)" height="197" width="198" xlink:href="#a"/><use transform="translate(11.838 9.16)" height="197" width="198" xlink:href="#a"/><use transform="translate(11.485 10.033)" height="197" width="198" xlink:href="#a"/><use transform="translate(13.439 9.24)" height="197" width="198" xlink:href="#a"/><use transform="translate(13.115 6.624)" height="197" width="198" xlink:href="#a"/><use transform="translate(12.84 7.042)" height="197" width="198" xlink:href="#a"/><use transform="translate(1.24 -3.787)" height="197" width="198" xlink:href="#a"/><use transform="translate(-1.278 .292)" height="197" width="198" xlink:href="#a" fill="navy" stroke="navy"/><use transform="translate(-1.556 -1.858)" height="197" width="198" xlink:href="#a" fill="navy" stroke="navy"/><use transform="translate(.418 -2.365)" height="197" width="198" xlink:href="#a" fill="navy" stroke="navy"/><use transform="translate(-2.515 1.627)" height="197" width="198" xlink:href="#a" fill="navy" stroke="navy"/><use transform="translate(-2.295 -4.177)" height="197" width="198" xlink:href="#a"/><use transform="translate(2.268 -2.327)" height="197" width="198" xlink:href="#a" fill="navy" stroke="navy"/><use transform="translate(-1.758 -7.068)" height="197" width="198" xlink:href="#a"/><use transform="translate(44.85 4.517)" height="197" width="198" xlink:href="#a"/><use transform="matrix(1.32624 0 0 .56797 -75.78 115.116)" height="197" width="198" xlink:href="#a"/><use transform="translate(45.385 .088)" height="197" width="198" xlink:href="#a"/><use transform="rotate(32.689 397.447 345.788)" height="197" width="198" xlink:href="#a"/><use transform="translate(48.176 -.615)" height="197" width="198" xlink:href="#a"/><use transform="translate(49.513 -.498)" height="197" width="198" xlink:href="#a"/><use transform="translate(45.363 -1.03)" height="197" width="198" xlink:href="#a"/><use transform="translate(44.154 -.804)" height="197" width="198" xlink:href="#a"/><use transform="translate(45.516 -2.282)" height="197" width="198" xlink:href="#a"/><use transform="translate(42.498 -1.701)" height="197" width="198" xlink:href="#a"/><use transform="translate(42.39 3.946)" height="197" width="198" xlink:href="#a"/><use transform="translate(42.57 2.755)" height="197" width="198" xlink:href="#a"/><use transform="translate(45.036 8.367)" height="197" width="198" xlink:href="#a"/><use transform="translate(39.44 3.028)" height="197" width="198" xlink:href="#a"/><use transform="translate(44.168 5.377)" height="197" width="198" xlink:href="#a"/><use transform="translate(41.479 7.464)" height="197" width="198" xlink:href="#a"/><use transform="translate(35.889 11.261)" height="197" width="198" xlink:href="#a"/><use transform="translate(29.577 9.23)" height="197" width="198" xlink:href="#a"/><use transform="translate(30.323 10.999)" height="197" width="198" xlink:href="#a"/><use transform="translate(27.34 6.518)" height="197" width="198" xlink:href="#a"/><use transform="translate(23.282 8.345)" height="197" width="198" xlink:href="#a"/><use transform="translate(22.853 12.71)" height="197" width="198" xlink:href="#a"/><use transform="translate(23.899 8.95)" height="197" width="198" xlink:href="#a"/><use transform="translate(18.604 10.071)" height="197" width="198" xlink:href="#a"/><use transform="translate(14.244 7.649)" height="197" width="198" xlink:href="#a"/><use transform="translate(20.48 9.348)" height="197" width="198" xlink:href="#a"/><use transform="translate(16.747 5.26)" height="197" width="198" xlink:href="#a"/><use transform="translate(12.988 10.59)" height="197" width="198" xlink:href="#a"/><use transform="translate(20.023 7.558)" height="197" width="198" xlink:href="#a"/><use transform="translate(21.367 8.964)" height="197" width="198" xlink:href="#a"/><use transform="translate(21.41 9.145)" height="197" width="198" xlink:href="#a"/><use transform="translate(20.37 10.319)" height="197" width="198" xlink:href="#a"/><use transform="translate(16.025 6.796)" height="197" width="198" xlink:href="#a"/><path transform="translate(302.625 157.613)" d="M70.007 106.095c0 .287-.19.519-.425.519-.234 0-.424-.232-.424-.519 0-.287.19-.519.424-.519.235 0 .425.232.425.52z" id="b" fill="navy" stroke="navy"/><use transform="translate(-1.685 -6.838)" height="197" width="198" xlink:href="#b"/><use transform="translate(-1.29 .582)" height="197" width="198" xlink:href="#b" fill="navy" stroke="navy"/><use transform="translate(2.319 -4.041)" height="197" width="198" xlink:href="#b" fill="navy" stroke="navy"/><use transform="translate(6.387 1.36)" height="197" width="198" xlink:href="#b" fill="navy" stroke="navy"/><use transform="translate(.124 2.922)" height="197" width="198" xlink:href="#b" fill="navy" stroke="navy"/><use transform="translate(4.516 5.39)" height="197" width="198" xlink:href="#b" fill="navy" stroke="navy"/><use transform="translate(3.879 3.558)" height="197" width="198" xlink:href="#b" fill="navy" stroke="navy"/><use transform="translate(4.89 1.223)" height="197" width="198" xlink:href="#b" fill="navy" stroke="navy"/><use transform="translate(2.249 1.524)" height="197" width="198" xlink:href="#b" fill="navy" stroke="navy"/><use transform="translate(5.328 10.925)" height="197" width="198" xlink:href="#b" fill="navy" stroke="navy"/><use transform="translate(4.617 5.875)" height="197" width="198" xlink:href="#b" fill="navy" stroke="navy"/><use transform="translate(2.905 6.042)" height="197" width="198" xlink:href="#b" fill="navy" stroke="navy"/><use transform="translate(7.315 3.947)" height="197" width="198" xlink:href="#b" fill="navy" stroke="navy"/><use transform="translate(6.411 7.462)" height="197" width="198" xlink:href="#b" fill="navy" stroke="navy"/><use transform="translate(7.297 10.218)" height="197" width="198" xlink:href="#b" fill="navy" stroke="navy"/><use transform="translate(11.342 4.109)" height="197" width="198" xlink:href="#b"/><use transform="translate(15.528 8.947)" height="197" width="198" xlink:href="#b"/><use transform="translate(21.26 8.223)" height="197" width="198" xlink:href="#b"/><use transform="translate(25.185 13.559)" height="197" width="198" xlink:href="#b"/><use transform="translate(20.009 7.603)" height="197" width="198" xlink:href="#b"/><use transform="translate(27.734 10.292)" height="197" width="198" xlink:href="#b"/><use transform="translate(27.228 12.14)" height="197" width="198" xlink:href="#b"/><use transform="translate(29.666 8.427)" height="197" width="198" xlink:href="#b"/><use transform="translate(24.844 11.714)" height="197" width="198" xlink:href="#b"/><use transform="translate(45.924 8.659)" height="197" width="198" xlink:href="#b"/><use transform="translate(43.812 7.438)" height="197" width="198" xlink:href="#b"/><use transform="translate(44.601 8.816)" height="197" width="198" xlink:href="#b"/><use transform="translate(43.914 2.902)" height="197" width="198" xlink:href="#b"/><use transform="translate(45.393 6.289)" height="197" width="198" xlink:href="#b"/><use transform="translate(45.315 3.826)" height="197" width="198" xlink:href="#b"/><use transform="translate(48.39 .885)" height="197" width="198" xlink:href="#b"/><use transform="translate(45.481 .328)" height="197" width="198" xlink:href="#b"/><use transform="translate(47.904 6.906)" height="197" width="198" xlink:href="#b"/><use transform="translate(47.663 8.835)" height="197" width="198" xlink:href="#b"/><use transform="translate(36.201 9.827)" height="197" width="198" xlink:href="#b"/><use transform="translate(46.78 6.636)" height="197" width="198" xlink:href="#b"/><use transform="translate(47.65 5.597)" height="197" width="198" xlink:href="#b"/><use transform="translate(45.05 5.161)" height="197" width="198" xlink:href="#b"/><use transform="translate(43.192 8.155)" height="197" width="198" xlink:href="#b"/><use transform="translate(38.382 6.93)" height="197" width="198" xlink:href="#b"/><use transform="translate(40.819 8.547)" height="197" width="198" xlink:href="#b"/><use transform="translate(40.194 4.096)" height="197" width="198" xlink:href="#b"/><use transform="translate(40.214 7.16)" height="197" width="198" xlink:href="#b"/><use transform="translate(37.074 5.355)" height="197" width="198" xlink:href="#b"/><use transform="translate(43.893 9.364)" height="197" width="198" xlink:href="#b"/><use transform="translate(32.384 5.457)" height="197" width="198" xlink:href="#b"/><use transform="translate(32.843 4.864)" height="197" width="198" xlink:href="#b"/><use transform="translate(31.43 9.457)" height="197" width="198" xlink:href="#b"/><use transform="translate(23.78 9.3)" height="197" width="198" xlink:href="#b"/><use transform="translate(16.892 8.233)" height="197" width="198" xlink:href="#b"/><use transform="translate(8.012 7.569)" height="197" width="198" xlink:href="#b" fill="navy" stroke="navy"/><use transform="translate(15.914 8.026)" height="197" width="198" xlink:href="#b"/><use transform="translate(10.537 9.47)" height="197" width="198" xlink:href="#b"/><use transform="translate(14.918 5.917)" height="197" width="198" xlink:href="#b"/><use transform="translate(9.598 7.842)" height="197" width="198" xlink:href="#b" fill="navy" stroke="navy"/><use transform="translate(17.344 9.299)" height="197" width="198" xlink:href="#b"/><use transform="translate(15.761 5.74)" height="197" width="198" xlink:href="#b"/><use transform="translate(14.176 5.793)" height="197" width="198" xlink:href="#b"/><use transform="translate(13.679 2.966)" height="197" width="198" xlink:href="#b"/><use transform="translate(11.635 2.944)" height="197" width="198" xlink:href="#b"/><use transform="translate(4.07 2.794)" height="197" width="198" xlink:href="#b" fill="navy" stroke="navy"/><use transform="translate(10.283 -3.366)" height="197" width="198" xlink:href="#b"/><use transform="translate(.944 3.23)" height="197" width="198" xlink:href="#b" fill="navy" stroke="navy"/><use transform="translate(6.056 -3.23)" height="197" width="198" xlink:href="#b" fill="navy" stroke="navy"/><use transform="translate(7.652 -.16)" height="197" width="198" xlink:href="#b" fill="navy" stroke="navy"/><use transform="translate(8.612 -4.027)" height="197" width="198" xlink:href="#b" fill="navy" stroke="navy"/><use transform="translate(15.058 4.637)" height="197" width="198" xlink:href="#b"/><use transform="translate(13.613 1.653)" height="197" width="198" xlink:href="#b"/><use transform="translate(12.03 5.56)" height="197" width="198" xlink:href="#b"/><use transform="translate(14.838 3.828)" height="197" width="198" xlink:href="#b"/><use transform="translate(20.41 8.877)" height="197" width="198" xlink:href="#b"/><use transform="translate(25.327 10.27)" height="197" width="198" xlink:href="#b"/><use transform="matrix(2.2178 0 0 1 -428.302 11.649)" height="197" width="198" xlink:href="#b"/><use transform="translate(30.68 7.478)" height="197" width="198" xlink:href="#b"/><use transform="translate(32.078 12.172)" height="197" width="198" xlink:href="#b"/><use transform="translate(33.573 10.195)" height="197" width="198" xlink:href="#b"/><use transform="translate(34.796 11.027)" height="197" width="198" xlink:href="#b"/><use transform="translate(31.748 8.247)" height="197" width="198" xlink:href="#b"/><use transform="translate(31.058 5.761)" height="197" width="198" xlink:href="#b"/><use transform="translate(26.005 11.63)" height="197" width="198" xlink:href="#b"/><use transform="translate(28.552 8.934)" height="197" width="198" xlink:href="#b"/><use transform="translate(30.61 2.924)" height="197" width="198" xlink:href="#b"/><use transform="translate(30.418 6.05)" height="197" width="198" xlink:href="#b"/><use transform="translate(37.694 8.441)" height="197" width="198" xlink:href="#b"/><use transform="translate(34.577 12.473)" height="197" width="198" xlink:href="#b"/><use transform="translate(32.376 9.655)" height="197" width="198" xlink:href="#b"/><use transform="translate(30.532 8.586)" height="197" width="198" xlink:href="#b"/><use transform="translate(40.17 10.328)" height="197" width="198" xlink:href="#b"/><use transform="translate(34.752 6.662)" height="197" width="198" xlink:href="#b"/><use transform="translate(40.455 5.827)" height="197" width="198" xlink:href="#b"/><use transform="translate(37.168 5.121)" height="197" width="198" xlink:href="#b"/><use transform="translate(43.836 2.895)" height="197" width="198" xlink:href="#b"/><use transform="translate(43.255 6.744)" height="197" width="198" xlink:href="#b"/><use transform="translate(47.854 2.583)" height="197" width="198" xlink:href="#b"/><use transform="translate(46.81 4.31)" height="197" width="198" xlink:href="#b"/><use transform="translate(49.74 -.119)" height="197" width="198" xlink:href="#b"/><use transform="translate(44.685 3.189)" height="197" width="198" xlink:href="#b"/><use transform="translate(44.123 5.41)" height="197" width="198" xlink:href="#b"/><use transform="translate(41.237 3.308)" height="197" width="198" xlink:href="#b"/><use transform="translate(43.529 6.974)" height="197" width="198" xlink:href="#b"/><use transform="translate(37.12 5.42)" height="197" width="198" xlink:href="#b"/><use transform="translate(25.764 6.472)" height="197" width="198" xlink:href="#b"/><use transform="translate(30.468 7.705)" height="197" width="198" xlink:href="#b"/><path d="m359.891 249.934 14.454-1.744 9.057-4.151 1.887.944 3.02 2.453 3.207.943-.754-.755 3.962-2.264 3.774-1.887 2.83.189 2.265-.944 2.642-1.32 2.453 1.131 2.264 2.83 3.397 1.888 1.887-.566 1.32.377 4.34 3.774 3.02 1.887 1.51 4.151.188 3.774-1.887 1.51h-2.453l-2.83.943-.944 1.699.755 2.264.189 1.132c-1.822-.623-3.083-.126-3.397 2.265l-.377.566c-2.323-.918-4.861-3.126-6.227 1.698l-2.642.755-.944 1.132-2.83-3.397-3.02.944-.754 3.02-2.453-.756-2.076-3.019c-1.32-.273-2.641-2.024-3.962.944-1.074-2.427-2.156-4.838-5.473-3.208l-2.641-.189c-.589-.867.211-2.567-2.642-2.076l-1.321-.943-1.32-4.151-1.133-1.321-1.51-1.699-3.207-1.51-3.774-2.264-8.061-.874z" fill="navy" stroke="navy"/><path d="m418.384 258.394 5.949.854v-4.873l-3.43-6.421-2.402 4.537-.283.714z" fill="#fdf704"/><path d="M359.027 250.473v8.21l15.79-2.59v-4.27 3.41l-13.97 1.286-.111-4.868 4.474-.895z" fill="#ff0"/><path d="M419.875 239.964c10.675-6.004 10.742-6.337 10.742-6.337" fill="none" stroke="red"/><path d="m436.054 230.49 10.808-6.204" fill="navy" stroke="red"/><path d="m449.263 265.983 5.67-.8.201-7.34-3.136-.266-3.335 4.003-4.87.133 3.135-3.802 2.269-.2-4.27-2.602-4.337 5.003-9.807-.4.2 5.404z" fill="navy" stroke="navy"/><path d="m434.786 255.109 9.474-.134-3.87 4.603-10.074-.066zm9.874 6.071 2.402-3.003 4.336-.266-2.735 3.335zm-12.71 15.51 1.468-.133.934.134.734-.067.667-.4 1.001.2.934-.134.667-.266-1.067-.334-.867-.4.2-1.335-.134-.733.667-.134.6.134.801-.668-.2-.733.734.133.467-.2.2-.8-.133-1.068-.134-.8c-.353.562-.43 1.765-1.267 1.2-.26.559-.596 1.002-1.401.734l-.934.2-.134-.934.534-.8-.734-.2-.734 1.067h-.6l-.4-.867.467-.668-.734-.6h-.4l.2-1.067c.16-.522.44-.768.867-.668l-.267-1.067-1.601.534c-.667-.245-1.156 0-1.468.734 0 0-1.267.066-1.267.333s-.067.934-.067.934l.667.934-.534.4.067.801c-.242.725.33.52.534.734-.494.614-.107.787.067 1.067-.79.69-.24 1.063.333 1.001 0 0 .334 0 .934.067.6.066 1.735-.334 1.735-.334l.334-.333c.739.343 1.495.677.934 1.8l.4-.533-.334 1.134-.4.667-2.268.734-1.001.534z" fill="navy"/><path d="m427.414 273.488 1.468-.133.934.133.734-.066.667-.4 1 .2.935-.134.667-.267-1.068-.333-.867-.4.2-1.335-.133-.734.667-.133.6.133.8-.667-.2-.734.735.134.467-.2.2-.801-.134-1.067-.133-.801c-.353.562-.431 1.766-1.268 1.2-.26.56-.595 1.003-1.4.735l-.935.2-.133-.934.534-.8-.734-.2-.734 1.067h-.6l-.4-.868.466-.667-.734-.6h-.4l.2-1.068c.161-.521.44-.768.867-.667l-.266-1.067-1.602.533c-.667-.244-1.156 0-1.467.734 0 0-1.268.067-1.268.334s-.067.934-.067.934l.667.934-.533.4.067.8c-.242.726.33.52.533.735-.494.614-.107.787.067 1.067-.79.69-.24 1.063.334 1 0 0 .333 0 .934.067.6.067 1.734-.333 1.734-.333l.334-.334c.74.344 1.495.678.934 1.802l.4-.534-.333 1.134-.4.667-2.269.734-1 .534zm16.012 2.669 1.467-.133.934.133.734-.067.667-.4 1.001.2.934-.133.667-.267-1.067-.334-.868-.4.2-1.334-.133-.734.667-.134.6.134.801-.667-.2-.734.734.133.467-.2.2-.8-.133-1.068-.134-.8c-.353.562-.43 1.766-1.267 1.2-.26.56-.596 1.002-1.401.734l-.934.2-.134-.934.534-.8-.734-.2-.734 1.067h-.6l-.4-.867.467-.667-.734-.6h-.4l.2-1.068c.16-.522.44-.768.867-.667l-.267-1.068-1.601.534c-.667-.245-1.156 0-1.468.734 0 0-1.267.067-1.267.333 0 .267-.067.934-.067.934l.667.934-.534.4.067.801c-.242.726.33.52.534.734-.494.614-.107.787.067 1.068-.79.689-.24 1.062.333 1 0 0 .334 0 .934.067.6.067 1.735-.334 1.735-.334l.333-.333c.74.344 1.496.677.934 1.801l.4-.534-.333 1.135-.4.667-2.268.734-1.001.533z" fill="navy"/><path d="m439.423 273.222 1.467-.1.934.1.734-.05.668-.296 1 .148.934-.098.667-.198-1.067-.247-.867-.296.2-.987-.134-.542.668-.099.6.099.8-.494-.2-.543.734.1.467-.149.2-.592-.133-.79-.134-.592c-.353.416-.43 1.307-1.267.889-.26.413-.596.74-1.401.542l-.934.148-.134-.69.534-.593-.734-.148-.734.79h-.6l-.4-.642.467-.493-.734-.444h-.4l.2-.79c.16-.386.44-.568.867-.493l-.267-.79-1.6.395c-.668-.18-1.157 0-1.469.543 0 0-1.267.05-1.267.247s-.067.69-.067.69l.667.691-.534.296.067.593c-.242.536.33.384.534.542-.494.454-.107.583.067.79-.79.51-.24.786.333.74 0 0 .334 0 .934.05.6.049 1.735-.247 1.735-.247l.334-.247c.739.254 1.495.5.934 1.332l.4-.395-.334.84-.4.493-2.268.543-1 .394z" fill="navy"/><path d="M356.137 248.362v-5.85c1.318-2.147 7.306-1.512 7.737.095l.188 7.076" fill="navy" stroke="#000"/><path d="m366.516 274.78 13.02-8.963-7.454 5.283" fill="navy" stroke="navy"/><path d="m372.365 281.95 12.171-15.19.944.944-8.899 8.892" fill="none" stroke="navy" stroke-width=".7"/><path d="m417.936 266.194 8.397 5.095" fill="none" stroke="navy"/><path d="m380.668 263.364-10.945.943 9.058-1.698" fill="navy" stroke="navy"/><path d="M347.19 262.814c.42-1.207.612-.466.867-.267.529-.951.762-.43 1.034-.1.538-.184 1.195-.844 1.401.3.734-.903.958-.07 1.268.467l.567.634-.067-1.234c0-.416.269-.968-.567-.967-.155-1.148-.904-1.026-1.668-.868-.73-.888-1.237-.209-1.801.067-.51-.686-.711-.13-.968.2-.837-.427-1.463 1.009-.9 1.234l-.2.934zm98.688 3.936c1.068-.702.769.002.85.315.998-.433.866.123.882.55.539.182 1.461.058.928 1.091 1.133-.27.803.527.722 1.142l.064.848.698-1.02c.252-.33.803-.604.14-1.112.575-1.005-.094-1.363-.796-1.703-.04-1.15-.855-.92-1.47-1.044.012-.855-.485-.535-.89-.43-.404-.849-1.775-.09-1.465.431l-.727.62z" fill="navy"/><path d="M357.08 243.55v4.435m.756-4.01v4.435m.754-3.963v4.434" fill="navy" stroke="#000" stroke-width=".5"/><path d="M359.44 244.636v4.971m.849-4.863v4.972" fill="navy" stroke="#000" stroke-width=".529"/><path d="m381.77 287.068 8.015-17.737 1.148.679-6.41 10.824m31.268 5.886-10.311-16.509 1.202-.578 5.45 11.338m12.11.203-12.35-15.045 1.118-.728 6.863 10.542" fill="none" stroke="navy" stroke-width=".7"/><path d="M381.82 270.79c0-.02.13-.201.291-.4l.308-.382c.01-.012.04.005.072.036.044.044-.023.137-.308.421-.2.2-.364.347-.364.326z" fill="#333" stroke="navy" stroke-width="1.524"/><path d="M361.043 242.526v6.813m.755-6.836v6.813m.708-6.766v6.813m.613-6.766v6.813" fill="navy" stroke="#000" stroke-width=".517"/><path d="m460.567 238.078.188 15.19" fill="navy" stroke="navy" stroke-width=".4"/><path d="M340.947 276.478c8.869 5.051 17.738 7.35 26.606 9.435 3.63 1.23 2.35 3.843 1.085 3.963-4.95 1.737-3.077 8.863-1.462 9.435 18.966 11.767 39.415 9.07 60.383 1.32" fill="none" stroke="#000"/><path d="M456.147 275.598c-8.869 5.05-17.738 7.35-26.607 9.435-3.63 1.228-2.35 3.842-1.085 3.962 4.95 1.737 3.38 9.762 1.766 10.334-1.111.563-1.827 1.518-15.133 5.224" fill="none" stroke="#000"/><path d="m340.638 276.213 5.97 8.19-5.284 3.208 22.078 7.17c-1.2 4.067-.933 8-.189 11.889.435 1.715 1.098 2.747 1.887 3.396 22.273 11.075 46.965 8.996 67.365-.188.88-.688 1.47-.219 2.83-2.83 1.337-4.92.066-9.85-1.166-14.609l22.49-6.337-5.095-3.397 4.529-6.793" fill="none" stroke="#000"/><path d="M392.406 316.886c-8.786-.59-16.947-2.785-24.768-6.324l-2.064-.934-1.09-1.104-.688-2.037-.764-5.94.971-6.207-5.925-1.926-10.611-3.45c-2.931-.955-4.592-1.583-4.434-1.676 2.91-1.732 4.21-2.608 4.195-2.825-.01-.148-.923-1.534-2.03-3.08-1.106-1.547-1.976-2.847-1.934-2.89.042-.041.658.217 1.369.574 4.657 2.34 10.82 4.454 18.777 6.44 2.248.562 4.328 1.146 4.624 1.298.831.43 1.232.972 1.163 1.574-.05.44-.261.639-1.18 1.114-2.285 1.184-3.259 3.023-3.077 5.814.111 1.714.674 3.433 1.32 4.033.596.554 3.86 2.409 5.988 3.402 13.779 6.434 28.56 6.794 47.432 1.156 6.945-2.075 11.049-3.793 11.7-4.896.762-1.29 1.144-3.76.874-5.66-.328-2.311-1.364-3.797-3.334-4.781-.545-.272-1.032-.66-1.101-.878-.144-.454.27-1.174.918-1.599.242-.158 2.554-.831 5.14-1.496 7.89-2.03 12.394-3.545 17.512-5.893 1.442-.662 2.659-1.167 2.703-1.123.044.045-.697 1.244-1.649 2.666-.951 1.422-1.658 2.65-1.571 2.73.087.079 1.102.77 2.256 1.536l2.098 1.391-10.362 3.114c-5.7 1.712-11.051 3.099-11.16 3.162-.135.08.865 2.522 1.44 7.489.283 2.431.162 4.915-.43 7.172l-1.143 1.665-1.41.864-3.24 1.44c-8.352 3.71-16.337 5.044-24.41 5.955-2.511.283-9.916.277-12.105.13z" fill="#fcf406"/><path fill="navy" d="M420.223 250.753h1.414v2.166h-1.414z"/><path fill="#ff0" stroke="navy" stroke-width=".638" d="M434.909 256.623h2.492v1.365h-2.492z"/><path d="m437.326 256.333 2.298-.188-2.145 2.21.153-2.022" fill="navy"/><path d="M436.95 256.631v1.415" fill="navy" stroke="navy"/><path d="m347.921 289.38-1.193-1.37.133-.708.353-.133.398-.84-.221-.353v-.398l.486-.397.177-.575-.265-.398.044-.397.441-.619.708-.265-.398-.486.044-.398.707-.53.84-.133 1.06.088" fill="none" stroke="#000"/><path d="M345.504 288.279c-1.46-.509-2.503-.922-2.449-.972.01-.009.406-.25.88-.537 1.773-1.071 2.895-1.817 3.177-2.112.144-.15.148-.163.091-.3-.1-.241-.804-1.303-2.035-3.066-1.314-1.882-1.67-2.408-1.782-2.622l-.076-.148.103.03c.158.048.752.319 1.893.863.96.457 3.055 1.381 3.547 1.564l.212.078-.462.348-.462.348-.033.256a4.97 4.97 0 0 0-.036.487c0 .15-.022.232-.057.232-.03 0-.194.197-.365.437-.303.424-.314.449-.358.802-.045.355-.043.368.07.54.076.112.108.209.092.27-.014.052-.155.2-.313.33l-.288.234v.384c0 .304.018.411.085.512.084.127.083.13-.01.322-.079.162-.13.207-.306.27-.116.04-.22.105-.23.141-.01.037-.064.32-.119.629l-.1.561.188.223c.125.115 5.06 3.201.13.22a17.37 17.37 0 0 1-.986-.324z" stroke="#000"/><path d="M367.497 310.712c-.788-4.39-2.038-9.102.375-11.25m-4.625-4.5c1.489-.47.959-2.958.875-5l.25-1.625.625-.625v-1c-.097-.558-.089-1.151-.906-1.469l.031-.406" fill="none" stroke="#000"/><path d="M366.177 309.823c-.275-.12-.766-.493-1.091-.828-.86-.886-1.13-1.795-1.604-5.4l-.388-2.955.41-2.682c.32-2.088.463-2.733.646-2.917.56-.56.638-1.011.645-3.738l.01-2.587.407-.419c.355-.367.406-.502.406-1.09 0-.45-.068-.748-.207-.901-.114-.126-.156-.228-.094-.227.235.003 2.54.736 2.901.923.532.275.9.79.9 1.26 0 .466-.102.565-1.388 1.353-2.144 1.313-2.977 2.965-2.817 5.587.12 1.98.707 3.69 1.473 4.29l.4.313-.325.73c-.715 1.606-.72 3.707-.018 7.533.17.924.293 1.745.273 1.827-.026.105-.18.084-.536-.072z" stroke="#000" stroke-width=".725"/><path d="m369.841 288.628-.176 12.02" fill="none" stroke="#000"/><path d="M368.22 299.294c-1.099-.659-1.141-.694-1.42-1.17-.779-1.328-1.016-3.447-.558-4.984.4-1.346 1.522-2.47 2.78-2.785l.223-.056-.012 2.197c-.01 1.209-.037 3.353-.066 4.766l-.054 2.568-.893-.536z" fill="#ff0" stroke="#000" stroke-width=".164"/><path d="M428.806 299.523c1.362-.765 1.415-.806 1.761-1.36.967-1.542 1.261-4.002.693-5.787-.497-1.562-1.89-2.867-3.45-3.234l-.278-.065.015 2.552c.01 1.403.045 3.893.082 5.534l.067 2.982 1.109-.622z" fill="#ff0" stroke="#000" stroke-width=".197"/><path d="m427.45 288.186.306 12.701" fill="none" stroke="#000" stroke-width="1.036"/><path d="m434.542 292.163.265-1.502-.53-.265-.177-1.061.265-.884-.884-.353-.265-1.68.53-.707.619-.442-.795-.707v-.619" fill="none" stroke="#000"/><path d="M431.3 309.432c.127-.516.142-2.765.027-4.044-.08-.895-.092-1.463-.036-1.749.149-.757-.264-2.375-.847-3.323l-.185-.3.257-.186c.831-.603 1.113-1.022 1.435-2.131.66-2.28.538-4.794-.322-6.585-.435-.905-1.447-1.918-2.49-2.49-.774-.426-1.325-.884-1.325-1.103 0-.214.228-.682.475-.974.344-.41.77-.582 2.883-1.17l1.9-.53.192.181.193.181-.404.52-.404.52.162 1.12.163 1.12.343.135c.325.128.341.152.289.43-.03.163-.01.617.054 1.01.094.614.14.729.32.811.183.083.204.139.157.41-.128.747-.15.801-.32.801-.217 0-.218-.003.093 1.226 1.33 5.265 1.629 9.177.962 12.56-.173.876-.214.97-.756 1.749-.433.62-.696.902-1.073 1.145-.498.322-1.622.91-1.74.91-.034 0-.035-.11 0-.244z" stroke="#000" stroke-width=".614"/><path d="M448.003 279.7c.707.804.956 1.578.416 2.299.264.301.632.59.176.972l.53.442c.946.25.39.75.443 1.149.337.237.974.34.618.884l-.442.619c.164 1.29-.606 1.634-.889 2.257" fill="none" stroke="#000"/><path d="M450.086 287.379c.129-.316.202-.686.202-1.018 0-.15.015-.186.177-.411.25-.35.335-.547.333-.779 0-.346-.168-.604-.518-.81-.139-.08-.14-.084-.114-.198.07-.305.01-.616-.172-.835a1.251 1.251 0 0 0-.525-.345c-.132-.033-.166-.097-.155-.295a.993.993 0 0 0-.155-.605l-.092-.152.072-.208c.059-.17.07-.27.069-.551 0-.401-.06-.614-.269-1.02l-.144-.281c0-.01.136-.08.313-.154.176-.073 1.038-.453 1.915-.844 2.161-.962 2.994-1.311 3.034-1.271.038.038-.516.93-1.789 2.882-.291.447-.64.995-.776 1.219-.296.486-.641 1.15-.64 1.226 0 .068.163.18 2.502 1.74l1.831 1.221-2.56.77c-1.9.572-2.554.757-2.538.719z" stroke="#000" stroke-width="1.219"/><path d="m350.247 281.775 4.375 1.437m-5.187-1.344 4.375 1.438m-4.938-1.25 4.375 1.437m-4.75-1.187 4.375 1.437m-5-1.25 4.375 1.438m-4.75-1.125 4.375 1.437m-4.812-1.187 4.375 1.437m-4.063-.937 4.375 1.437m-4.5-1.063 4.375 1.438m-4.968-.125 4.375 1.438" fill="none" stroke="#000" stroke-width=".2"/><path d="m347.492 286.02 5.198 1.835" fill="none" stroke="#000" stroke-width=".246"/><path d="m346.997 286.43 4.375 1.438m-4.343-.625 4.375 1.438m-5.032-1.188 4.375 1.438m-4.843-1.156 4.375 1.437m-4.75-1.156 4.375 1.437m10.888-4.453 4.443 1.21m-3.802-.437 4.443 1.21m-3.936-.724 4.444 1.21m-4.333.16 4.444 1.21m-4.421-.812 4.443 1.21m-4.377-.857 4.443 1.211m-4.355-.172 4.443 1.21m-5.875 2.39 4.39 1.39m-3.801-1.607 4.406 1.339m-4.093-1.916 4.443 1.21m-4.266-1.829 4.443 1.211m-4.178-1.741 4.443 1.21m-19.646-3.331 4.443 1.21m17.486-.475-.17 7.695m-.361-9.993-.17 7.695" fill="none" stroke="#000" stroke-width=".2"/><path d="M457.523 258.487h-2.829" fill="navy" stroke="navy"/><path d="m450.777 287.748 1.193-1.37-.133-.707-.353-.132-.398-.84.221-.354v-.397l-.486-.398-.177-.575.265-.397-.044-.398-.442-.619-.707-.265.398-.486-.044-.398-.707-.53-.84-.133-1.06.089" fill="none" stroke="#000"/><path d="m448.45 280.144-4.375 1.437m5.188-1.343-4.375 1.437m4.937-1.25-4.375 1.438m4.75-1.188-4.375 1.438m5-1.25-4.375 1.437m4.75-1.125-4.375 1.438m4.813-1.188-4.375 1.438m4.062-.938-4.375 1.438m4.5-1.063-4.375 1.438m4.969-.125-4.375 1.437" fill="none" stroke="#000" stroke-width=".2"/><path d="m451.206 284.389-5.198 1.836" fill="none" stroke="#000" stroke-width=".246"/><path d="m451.7 284.8-4.375 1.438m4.345-.625-4.376 1.437m5.031-1.187-4.375 1.437m4.844-1.156-4.375 1.437m4.751-1.156-4.376 1.438m2.966-.499-4.442 1.21" fill="none" stroke="#000" stroke-width=".2"/><path d="m437.171 291.605-1.759-.453-.291-.658.216-.31-.148-.917-.382-.166-.225-.328.175-.603-.18-.573-.444-.178-.188-.353.014-.76.432-.62-.603-.174-.189-.353.283-.838.616-.585 1.101-.218" fill="none" stroke="#000"/><path d="m434.781 284.02 4.42-1.293m-5.036 1.831 4.42-1.293m-4.778 1.766 4.42-1.293m-4.587 1.712 4.42-1.294m-4.829 1.802 4.42-1.293m-4.552 1.763 4.42-1.293m-4.639 1.747 4.42-1.294m-3.88 1.529 4.42-1.294m-4.31 1.674 4.42-1.294m-4.166 2.712 4.42-1.294" fill="none" stroke="#000" stroke-width=".2"/><path d="m434.915 289.08 5.323-1.432" fill="none" stroke="#000" stroke-width=".246"/><path d="m434.74 289.699 4.42-1.294m-3.934 1.945 4.42-1.293m-4.819 1.871 4.42-1.293m-4.647 1.791 4.42-1.294m-4.57 1.738 4.42-1.294m-2.727 1.27 4.347-1.519" fill="none" stroke="#000" stroke-width=".2"/><path d="M429.98 300c.696 1.289 1.37 2.577.945 3.865.161 2.293.703 4.84-.43 6.269l-.171.515" fill="none" stroke="#000" stroke-width=".972"/><path d="m372.366 304.586 2.443.81-.538 1.388-1.451-.482-.438 1.128 1.24.411-.507 1.304-1.24-.411-1.024 2.638-.993-.329 2.508-6.457m5.231 1.837 1.01.255-1.167 3.945c-.117.393-.255.75-.418 1.084a3.68 3.68 0 0 1-.554.839c-.204.23-.398.378-.569.448a1.217 1.217 0 0 1-.773.038 2.44 2.44 0 0 1-.502-.195.897.897 0 0 1-.395-.39 1.853 1.853 0 0 1-.177-.658 3.168 3.168 0 0 1 .009-.817c.063-.435.14-.818.237-1.143l1.167-3.945 1.011.256-1.195 4.04c-.107.36-.138.652-.1.881.036.229.145.363.322.407.174.045.341-.02.5-.194.155-.174.29-.446.398-.811l1.196-4.04m1.386.56 3.115.644-.4 1.652-1.045-.216-1.221 5.042-1.025-.211 1.22-5.042-1.044-.216.4-1.653m5.939 1.212 1.026.2-.869 4.003a6.901 6.901 0 0 1-.334 1.105c-.137.34-.305.63-.489.868-.187.241-.37.4-.535.478-.23.11-.49.134-.768.08a2.492 2.492 0 0 1-.515-.168.921.921 0 0 1-.422-.368c-.1-.16-.177-.373-.228-.647a3.229 3.229 0 0 1-.052-.817c.03-.438.08-.824.152-1.154l.868-4.003 1.027.2-.89 4.1c-.079.366-.089.66-.034.886.054.226.172.354.352.389.178.035.339-.039.484-.22.142-.184.257-.462.337-.833l.89-4.1m.412 7.002 1.174-6.76 1.727.29c.32.053.556.148.705.288.148.14.253.364.302.682.05.317.04.694-.035 1.123a3.613 3.613 0 0 1-.286.949 1.93 1.93 0 0 1-.446.608 1.016 1.016 0 0 1-.41.207c.109.11.184.206.226.299.03.062.066.19.106.383.039.192.063.343.07.443.051.68.113 1.36.164 2.04l-1.17-.196c-.062-.72-.133-1.438-.194-2.158-.024-.28-.057-.465-.098-.553-.055-.119-.133-.184-.226-.2l-.091-.015-.476 2.744-1.042-.174zm1.74-3.846.436.073c.048.008.145-.009.29-.047.073-.017.144-.076.207-.184.062-.108.106-.234.131-.38.038-.218.032-.394-.015-.52-.048-.128-.167-.209-.357-.24l-.454-.076-.238 1.374zm2.861-2.22 2.81.171-.089 1.462-1.76-.107-.065 1.088 1.632.1-.085 1.396-1.632-.099-.082 1.35 1.81.11c-.03.516-.062 1.033-.094 1.55l-2.86-.173.415-6.847m9.615-.157 1.042-.09.41 4.073c.04.406.047.785.024 1.15a3.55 3.55 0 0 1-.199.965c-.104.283-.23.484-.363.605a1.176 1.176 0 0 1-.71.287 2.528 2.528 0 0 1-.544-.02.964.964 0 0 1-.517-.237 1.957 1.957 0 0 1-.417-.557 3.263 3.263 0 0 1-.303-.768 8.261 8.261 0 0 1-.214-1.147l-.41-4.072 1.044-.09.42 4.17c.037.373.118.657.242.859.121.202.274.292.456.276.18-.015.312-.13.394-.344.08-.214.102-.512.064-.89l-.42-4.17m1.686-.162.975-.092c.557 1.222 1.136 2.436 1.693 3.658l-.42-3.779.984-.093.758 6.824-.984.093c-.554-1.21-1.129-2.411-1.681-3.622l.416 3.742-.983.093-.758-6.824m3.979-.479 1.037-.156.9 5.104 1.618-.244.294 1.667-2.655.4-1.194-6.77m3.429-.375 1.037-.166 1.264 6.76-1.037.166-1.264-6.76m1.727-.507 1.36-.205c.416 1.346.84 2.69 1.254 4.039-.071-1.4-.134-2.8-.205-4.198l1.365-.205 1.195 6.77-.85.127-.91-5.162c.088 1.753.166 3.508.255 5.261l-.768.116c-.516-1.689-1.046-3.376-1.563-5.064l.912 5.162-.85.128-1.194-6.77m4.367-.569 1.036-.165 1.262 6.76-1.036.164-1.262-6.759m1.512-.539 3.129-.586.363 1.659-1.05.196 1.11 5.064-1.03.193-1.11-5.064-1.048.197c-.12-.552-.242-1.105-.364-1.659m3.52-.733 2.731-.626.382 1.421-1.71.392.283 1.059 1.586-.364.365 1.357-1.586.364.353 1.314 1.76-.404.405 1.507-2.78.637-1.789-6.657m3.284-.996 1.51-.366c.299-.072.562-.051.791.07.227.118.45.315.653.59.202.276.394.612.562 1 .166.39.316.815.444 1.266.202.711.317 1.27.35 1.677.032.413.009.767-.054 1.062-.064.302-.17.515-.308.642a1.226 1.226 0 0 1-.555.327l-1.509.366-1.884-6.634zm1.444 1.255 1.029 3.625.25-.06c.212-.052.35-.136.41-.253.063-.12.088-.297.07-.55-.016-.248-.1-.638-.25-1.168-.199-.702-.395-1.172-.58-1.403-.187-.23-.413-.316-.676-.252l-.253.061z" fill="#0d0d0d" fill-rule="evenodd"/><path d="m428.341 288.05.204 7.696m.503-8.756.204 7.695" fill="none" stroke="#000" stroke-width=".2"/><use transform="translate(22.384 8.656)" height="197" width="198" xlink:href="#b"/><path transform="matrix(.97523 0 0 1.00011 300.672 154.368)" d="M112.625 136.063c0 6.04-5.4 10.937-12.063 10.937-6.661 0-12.062-4.897-12.062-10.938 0-6.04 5.4-10.937 12.063-10.937 6.661 0 12.062 4.897 12.062 10.938z" stroke="#000" stroke-width=".2"/><path d="M398.657 282.359a2.025 2.025 0 1 1-4.05 0 2.025 2.025 0 0 1 4.05 0z" fill="#fff"/><path d="M402.382 282.259a2.025 2.025 0 1 1-4.05 0 2.025 2.025 0 0 1 4.05 0z" fill="#fff"/><path d="M405.757 283.884a2.025 2.025 0 1 1-4.05 0 2.025 2.025 0 0 1 4.05 0z" fill="#fff"/><path d="M408.507 286.759a2.025 2.025 0 1 1-4.05 0 2.025 2.025 0 0 1 4.05 0zm-13.25-2.75a2.025 2.025 0 1 1-4.05 0 2.025 2.025 0 0 1 4.05 0zm9 13.75a2.025 2.025 0 1 1-4.05 0 2.025 2.025 0 0 1 4.05 0zm-6.75 0a2.025 2.025 0 1 1-4.05 0 2.025 2.025 0 0 1 4.05 0z" fill="#fff"/><path d="M409.632 290.009a2.025 2.025 0 1 1-4.05 0 2.025 2.025 0 0 1 4.05 0zm-16.625-3.5a2.025 2.025 0 1 1-4.05 0 2.025 2.025 0 0 1 4.05 0z" fill="#fff"/><path d="M392.007 290.009a2.025 2.025 0 1 1-4.05 0 2.025 2.025 0 0 1 4.05 0z" fill="#fff"/><path d="M392.757 293.384a2.025 2.025 0 1 1-4.05 0 2.025 2.025 0 0 1 4.05 0zm16-.125a2.025 2.025 0 1 1-4.05 0 2.025 2.025 0 0 1 4.05 0z" fill="#fff"/><path d="M406.882 296.259a2.025 2.025 0 1 1-4.05 0 2.025 2.025 0 0 1 4.05 0zm-12.25-.375a2.025 2.025 0 1 1-4.05 0 2.025 2.025 0 0 1 4.05 0zm6 2.375a2.025 2.025 0 1 1-4.05 0 2.025 2.025 0 0 1 4.05 0z" fill="#fff"/><path d="M400.158 296.897c0-.072-.219-.253-.486-.403-.582-.327-1.482-.36-2.033-.076-.36.186-.395.183-.623-.061-.433-.466-.967-.66-1.685-.616-.589.037-.673.013-.673-.19 0-.65-1.036-1.705-1.673-1.705-.153 0-.202-.125-.202-.515 0-.623-.395-1.37-.874-1.652l-.35-.207.237-.465c.311-.61.305-1.485-.014-2.008-.297-.488-.303-.528-.072-.528.286 0 .966-.641 1.152-1.084.094-.225.17-.607.17-.85 0-.389.038-.441.317-.441.852 0 1.749-.774 1.886-1.628.073-.459.09-.475.343-.312.774.497 2.02.28 2.645-.462l.323-.384.189.27c.462.659 1.638.94 2.475.59.418-.175.421-.173.495.198.19.95 1.194 1.671 2.193 1.575l.572-.055v.832c0 .71.049.896.336 1.273.185.242.503.51.708.595.366.151.369.16.195.577-.23.549-.224 1.275.013 1.73.185.354.18.369-.305.783-.592.507-.817 1.111-.72 1.935.066.548.049.608-.177.608-.556 0-1.613.866-1.613 1.322 0 .13-.169.178-.632.178-.767 0-1.223.22-1.732.838-.213.258-.386.41-.386.338z" fill="#fff" stroke="#fff" stroke-width=".9"/><path d="M398.884 287.151c0 1.343-1.108 2.43-2.475 2.43s-2.475-1.087-2.475-2.43c0-1.342 1.108-2.43 2.475-2.43s2.475 1.088 2.475 2.43z"/><path d="M403.038 287.284c0 1.342-1.108 2.43-2.475 2.43s-2.475-1.088-2.475-2.43c0-1.343 1.108-2.43 2.475-2.43s2.475 1.087 2.475 2.43z"/><path d="M404.983 290.2c0 1.343-1.108 2.431-2.475 2.431s-2.475-1.088-2.475-2.43c0-1.343 1.108-2.431 2.475-2.431s2.475 1.088 2.475 2.43z"/><path d="M403.568 293.383c0 1.342-1.108 2.43-2.474 2.43-1.367 0-2.475-1.088-2.475-2.43 0-1.343 1.108-2.431 2.475-2.431 1.366 0 2.474 1.088 2.474 2.43z"/><path d="M399.414 293.471c0 1.342-1.108 2.43-2.475 2.43s-2.475-1.088-2.475-2.43 1.108-2.43 2.475-2.43 2.475 1.088 2.475 2.43z"/><path d="M397.27 290.377c0 1.343-1.107 2.431-2.474 2.431-1.367 0-2.475-1.088-2.475-2.43 0-1.343 1.108-2.431 2.475-2.431s2.475 1.088 2.475 2.43z"/><path d="M401.005 290.377c0 1.343-1.108 2.431-2.475 2.431s-2.475-1.088-2.475-2.43c0-1.343 1.108-2.431 2.475-2.431s2.475 1.088 2.475 2.43z"/><path d="M400.633 290.245c0 1.025-.843 1.856-1.882 1.856s-1.881-.831-1.881-1.856c0-1.025.842-1.856 1.881-1.856 1.04 0 1.882.83 1.882 1.856z" fill="#fff"/><path d="M397.645 287.128c.366.94.094 1.67-.607 1.627-.7-.042-1.566-.84-1.931-1.78-.366-.94-.094-1.668.607-1.626.7.042 1.565.839 1.931 1.78zm4.695 6.486c.366.94.095 1.669-.606 1.626-.701-.042-1.566-.839-1.932-1.78-.366-.94-.094-1.668.607-1.626.701.043 1.566.84 1.932 1.78zm-7.068-.111c-.365.94-.094 1.67.607 1.627.701-.042 1.566-.84 1.932-1.78.366-.94.094-1.668-.607-1.626-.701.042-1.566.839-1.932 1.78zm4.177-6.474c-.366.94-.094 1.669.607 1.626.7-.042 1.565-.839 1.931-1.78.366-.94.094-1.668-.607-1.626-.7.043-1.566.84-1.931 1.78zm2.517 2.123c-.976.255-1.406.903-.96 1.446.445.542 1.598.775 2.574.52.976-.257 1.406-.904.96-1.447-.445-.543-1.598-.775-2.574-.52zm-8.043.176c-.976.256-1.407.904-.96 1.446.445.543 1.597.776 2.573.52.977-.256 1.407-.903.961-1.446-.445-.543-1.598-.775-2.574-.52z" fill="#fff"/><path d="m364.168 324.343-1.67 4.001-.254-.106c.248-1.126.205-2.077-.08-2.851-.289-.775-.778-1.304-1.443-1.582-.56-.233-1.156-.247-1.795-.02-.637.228-1.203.617-1.7 1.2-.63.75-1.17 1.643-1.606 2.689-.43 1.032-.723 2.018-.875 2.947-.154.934-.092 1.705.147 2.32.24.613.712 1.067 1.398 1.353.56.233 1.15.294 1.748.167.596-.125 1.324-.462 2.161-1.027l-.416.997c-.776.47-1.511.733-2.17.813-.675.084-1.372-.032-2.097-.334-.956-.399-1.702-.994-2.228-1.798-.528-.809-.818-1.748-.822-2.844a8.039 8.039 0 0 1 .625-3.207 8.285 8.285 0 0 1 1.981-2.854c.844-.81 1.783-1.307 2.762-1.546.981-.237 1.901-.167 2.752.188.625.26 1.224.715 1.768 1.357.312.373.53.581.642.628.14.058.294.043.456-.05.15-.088.308-.273.46-.547l.255.106m3.546 11.68-3.11-1.414c-.29.314-.584.625-.874.941-.289.314-.488.589-.599.832-.145.318-.15.598-.023.841.072.147.33.341.77.594l-.14.312-2.928-1.331.141-.312c.344.084.686.03 1.014-.159.324-.187.845-.636 1.531-1.37 2.41-2.563 4.875-5.091 7.284-7.655l.121.055c-.377 3.59-.69 7.196-1.068 10.786-.103 1.018-.103 1.693-.015 2.01.067.245.234.44.489.586l-.142.312-4.262-1.938.141-.311.175.079c.345.157.614.21.804.144.14-.05.245-.154.32-.321.047-.101.078-.209.104-.33.017-.053.044-.292.089-.72.064-.54.116-1.087.178-1.631zm.064-.72c.164-1.505.305-3.015.47-4.522-1.037 1.11-2.096 2.203-3.134 3.31l2.664 1.211zm14.35 3.979c-.408 1.413-.822 2.821-1.23 4.234l-8.419-1.701.068-.336.315.064c.27.054.512.039.703-.056.134-.058.262-.181.368-.378.077-.136.182-.508.307-1.125l1.63-8.065c.126-.625.178-1.03.161-1.193a.906.906 0 0 0-.224-.477c-.135-.153-.338-.248-.602-.301l-.314-.064.067-.333 5.057 1.022-.067.333-.414-.083c-.273-.056-.512-.04-.703.055-.135.06-.265.183-.374.377-.077.136-.183.51-.307 1.125l-1.579 7.813c-.126.625-.178 1.028-.158 1.21a.67.67 0 0 0 .249.455c.11.082.384.163.832.253l.79.16c.505.102.948.073 1.328-.089.377-.162.752-.46 1.094-.909.343-.45.727-1.122 1.133-2.05l.29.059m4.988 5.077-.046.34-5.017-.676.046-.34.319.044c.276.037.513.006.698-.102.13-.066.252-.197.342-.401.068-.141.151-.518.235-1.142l1.098-8.155c.085-.632.107-1.04.08-1.201a.881.881 0 0 0-.256-.462c-.144-.144-.35-.224-.62-.26l-.318-.044.045-.336 5.017.675-.045.337-.318-.043c-.277-.038-.514-.006-.698.101-.13.07-.253.2-.349.4-.068.141-.152.521-.235 1.143l-1.098 8.155c-.085.63-.107 1.037-.073 1.202a.822.822 0 0 0 .263.454c.135.14.342.232.612.268l.319.043m6.929-10.852v5.139h.28c.428 0 .778-.08 1.047-.247.27-.169.503-.443.695-.841.178-.398.305-.924.363-1.596h.25v6.282h-.25c-.094-1.189-.34-1.97-.736-2.352-.403-.38-.863-.561-1.37-.561h-.279v3.827c0 .637.03 1.042.088 1.2a.827.827 0 0 0 .322.416c.152.121.37.184.639.184h.321v.342h-5.059v-.342h.322c.279 0 .51-.063.678-.194.12-.083.224-.229.285-.443.05-.149.078-.534.078-1.163v-8.229c0-.637-.029-1.045-.078-1.2a.886.886 0 0 0-.314-.424c-.163-.123-.377-.176-.65-.176h-.32v-.34h8.163v3.588h-.292c-.065-.838-.24-1.465-.506-1.873-.276-.408-.675-.69-1.194-.856-.286-.096-.814-.141-1.583-.141h-.9m10.733-1.247c1.54-.076 2.81.5 3.76 1.744.948 1.241 1.441 2.785 1.441 4.64 0 1.587-.37 2.977-1.077 4.188-.935 1.604-2.298 2.4-4.034 2.4-1.739 0-3.105-.76-4.04-2.29-.733-1.21-1.125-2.638-1.125-4.29 0-1.853.506-3.396 1.47-4.648.963-1.244 2.177-1.82 3.605-1.745zm.084.588c-.886 0-1.564.582-2.019 1.755-.373.96-.564 2.335-.564 4.132 0 2.133.302 3.707.87 4.734.399.715.97 1.073 1.7 1.073.49 0 .902-.157 1.226-.464.416-.4.747-1.022.977-1.89.23-.86.35-1.985.35-3.377 0-1.652-.126-2.898-.357-3.72-.23-.82-.545-1.389-.905-1.734a1.82 1.82 0 0 0-1.278-.509zm9.447 5.573.537 3.464c.104.666.204 1.079.295 1.243a.81.81 0 0 0 .395.37c.176.074.483.083.919.015l.053.338-4.893.76a39.518 39.518 0 0 0-.053-.339c.446-.07.732-.17.875-.304a.841.841 0 0 0 .27-.462c.034-.184 0-.606-.105-1.273l-1.245-8.022c-.103-.667-.198-1.09-.286-1.255a.832.832 0 0 0-.404-.358c-.176-.077-.482-.083-.918-.015l-.052-.336 4.44-.689c1.158-.18 2.023-.214 2.588-.085.566.131 1.068.43 1.488.936.42.505.698 1.135.814 1.881.142.913 0 1.706-.412 2.38-.262.426-.678.773-1.231 1.06.97 1.282 1.977 2.545 2.948 3.829.382.49.652.793.798.91.22.165.462.23.722.207l.053.338-3.014.468c-1.303-1.727-2.654-3.431-3.956-5.158l-.625.097zm-.94-6.063.84 5.416.4-.062c.655-.101 1.133-.257 1.432-.467.296-.206.514-.515.636-.957.118-.428.132-.973.031-1.62-.145-.938-.427-1.61-.83-2.01-.413-.394-1.003-.534-1.756-.417l-.754.117zm9.374-3.043c2.368 1.888 4.801 3.724 7.174 5.612l-1.871-5.042c-.26-.7-.519-1.145-.767-1.337-.336-.262-.756-.284-1.254-.088l-.119-.319 2.997-1.112.118.319c-.357.202-.59.385-.68.528-.094.154-.134.354-.124.605.015.264.116.669.321 1.221l3.625 9.766-.225.083c-3.227-2.52-6.537-4.967-9.76-7.488l2.767 7.457c.25.675.541 1.086.87 1.233.317.147.639.165.946.051l.216-.08.12.32-3.22 1.196c-.038-.107-.08-.215-.118-.322.498-.195.8-.453.895-.786.092-.33.036-.808-.196-1.431l-3.072-8.279c-.103-.08-.208-.159-.314-.238-.304-.241-.553-.382-.732-.426-.182-.043-.42-.021-.697.07l-.119-.318 3.219-1.195m17.6 5.82.149.308-4.554 2.203-.15-.308.287-.139c.251-.121.431-.278.529-.471.069-.126.099-.302.06-.522-.02-.155-.159-.516-.433-1.082l-3.582-7.408c-.278-.573-.484-.927-.596-1.046a.877.877 0 0 0-.465-.245c-.2-.04-.418.007-.664.125l-.286.139-.148-.306 4.554-2.203.148.306-.29.14c-.25.121-.43.278-.525.47-.071.13-.101.306-.07.526.02.155.16.518.433 1.082l3.583 7.408c.277.573.483.924.602 1.043.112.12.271.196.47.234.193.041.413.004.658-.114l.29-.14m4.562-5.992-3.01 1.624c.078.418.145.843.221 1.265.075.42.176.743.303.978.166.308.383.483.657.527.16.031.47-.056.939-.255l.163.302-2.833 1.528-.163-.301c.277-.224.44-.53.486-.904.047-.37 0-1.058-.165-2.048-.584-3.47-1.107-6.96-1.692-10.43l.12-.065c2.628 2.473 5.31 4.903 7.941 7.375.749.697 1.289 1.104 1.594 1.225.236.096.49.082.76-.032.054.1.11.201.163.301l-4.118 2.221-.163-.3.169-.092c.331-.178.535-.36.6-.553.043-.14.023-.287-.064-.448a1.45 1.45 0 0 0-.2-.282c-.032-.046-.206-.212-.517-.507-.395-.377-.795-.75-1.191-1.129zm-.538-.485c-1.097-1.042-2.217-2.065-3.315-3.11.256 1.499.485 3.003.739 4.5l2.576-1.39zM331.725 189.61l3.35 2.764-.177.214c-1.005-.566-1.928-.805-2.754-.758-.826.05-1.472.363-1.93.918-.387.468-.572 1.033-.538 1.708.035.68.242 1.333.66 1.978a10.375 10.375 0 0 0 2.109 2.323c.862.712 1.722 1.277 2.57 1.694.848.423 1.606.59 2.261.539.658-.049 1.229-.369 1.702-.942a2.894 2.894 0 0 0 .664-1.619c.053-.606-.058-1.404-.358-2.366l.833.688c.228.88.266 1.658.153 2.315-.114.666-.427 1.3-.925 1.903-.659.798-1.444 1.338-2.367 1.604-.93.27-1.912.27-2.963-.043a8.171 8.171 0 0 1-2.889-1.54 8.358 8.358 0 0 1-2.163-2.723c-.53-1.047-.736-2.086-.68-3.095.054-1.007.39-1.866.976-2.575.431-.523 1.037-.96 1.811-1.294.449-.19.711-.337.787-.43.096-.115.126-.268.083-.45-.04-.17-.172-.373-.391-.6l.176-.214m15.447 3.381.238.245-3.63 3.515-.237-.246.232-.224c.199-.193.319-.397.351-.61.028-.143 0-.32-.103-.516-.068-.14-.32-.44-.756-.891l-5.735-5.922c-.447-.461-.748-.732-.893-.81a.886.886 0 0 0-.52-.089c-.201.025-.395.137-.59.325l-.231.225-.238-.246 3.63-3.516.238.246-.232.225c-.2.193-.32.396-.35.608-.028.147 0 .322.099.524.068.141.317.44.756.892l5.735 5.922c.444.458.746.73.898.8.144.084.32.104.519.078.196-.02.394-.123.588-.311.078-.076.153-.15.232-.225m.835-15.718 2.04 2.712-.205.154c-.59-.54-1.072-.881-1.42-1.047a2.182 2.182 0 0 0-1.1-.19c-.209.014-.5.165-.856.433l-.574.432 5.811 7.728c.384.51.65.817.79.909a.829.829 0 0 0 .505.14c.197.006.408-.075.63-.241l.255-.192.206.273-4.041 3.04-.206-.274.255-.192c.225-.169.37-.356.425-.562.046-.138.038-.318-.033-.528-.05-.148-.26-.48-.637-.981l-5.811-7.728-.558.42c-.52.39-.799.818-.811 1.28-.024.646.187 1.376.658 2.177l-.216.163-2.04-2.712 6.933-5.214m10.962-6.153.15.307c-.264.193-.429.407-.498.648-.097.336-.14 1.135-.08 2.395.05 1.665.064 3.335.118 4.999l1.334 2.721c.285.581.485.925.601 1.043.111.123.272.196.46.237.19.044.404.01.634-.103l.485-.238.15.307-4.864 2.385-.15-.307.453-.223c.255-.125.432-.281.523-.472.07-.127.097-.305.067-.525-.021-.155-.168-.518-.444-1.081l-1.108-2.258c-1.457-1.283-2.945-2.539-4.402-3.822-.867-.763-1.434-1.17-1.683-1.264-.247-.089-.513-.057-.792.067l-.15-.307 4.155-2.038.15.308-.185.09c-.25.123-.405.26-.454.398-.056.142-.06.268-.01.375.098.2.521.609 1.25 1.251 1.12.994 2.27 1.965 3.393 2.958-.046-1.385-.06-2.775-.104-4.157-.025-1.024-.094-1.666-.227-1.938a.549.549 0 0 0-.35-.292c-.216-.072-.52-.024-.924.142l-.15-.307 2.65-1.3m12.652-5.757c1.421-.589 2.811-.475 4.123.379 1.312.85 2.295 2.14 2.922 3.89.537 1.498.66 2.932.402 4.315-.335 1.822-1.35 3.037-2.978 3.62-1.635.586-3.174.328-4.566-.8-1.104-.897-1.953-2.11-2.51-3.668-.626-1.747-.673-3.376-.19-4.878.485-1.498 1.43-2.448 2.796-2.859zm.281.525c-.832.299-1.275 1.072-1.307 2.334-.025 1.033.26 2.391.868 4.088.72 2.01 1.534 3.397 2.418 4.17.615.54 1.271.687 1.958.44.46-.164.793-.45.997-.85.255-.515.355-1.214.28-2.111-.077-.888-.344-1.988-.815-3.304-.558-1.557-1.097-2.687-1.59-3.386-.496-.698-.984-1.126-1.438-1.33a1.807 1.807 0 0 0-1.37-.05zm12.202-2.347.616 5.113.275-.034c.425-.051.764-.175 1.009-.371.247-.202.445-.502.585-.918.133-.421.196-.957.171-1.632l.247-.03.754 6.248-.247.03c-.234-1.172-.575-1.921-1.01-2.253-.447-.331-.925-.455-1.427-.394l-.275.033.46 3.808c.075.634.155 1.032.227 1.181a.817.817 0 0 0 .37.375c.168.103.388.14.66.107l.317-.038.04.34-5.012.604-.041-.34.317-.038c.275-.033.494-.122.645-.273.112-.097.195-.256.233-.473.03-.153.012-.544-.063-1.167l-.987-8.185c-.077-.637-.153-1.035-.22-1.185a.875.875 0 0 0-.365-.384c-.175-.103-.394-.13-.662-.098l-.317.038-.041-.34 8.089-.975.43 3.573-.292.035c-.16-.828-.413-1.432-.727-1.805-.32-.372-.748-.605-1.283-.71-.294-.06-.822-.042-1.585.05l-.892.108m13.877 11.035c0-.114 0-.228.01-.342l.323.006c.277.005.499-.045.652-.162a.997.997 0 0 0 .334-.456c.044-.13.072-.518.084-1.165l.147-8.243c.011-.641-.01-1.047-.056-1.204a.884.884 0 0 0-.304-.43c-.163-.126-.376-.184-.646-.19l-.323-.005c0-.114 0-.228.01-.342l4.326.077c1.154.02 2.08.237 2.771.66.847.522 1.497 1.284 1.92 2.301.414 1.017.622 2.165.6 3.439a8.63 8.63 0 0 1-.37 2.426c-.231.746-.53 1.348-.882 1.824a4.412 4.412 0 0 1-1.214 1.142c-.458.291-1.023.506-1.682.654-.293.072-.75.098-1.367.087l-4.325-.077zm3.895-11.755-.175 9.78c-.01.515.01.83.04.953.032.12.097.204.187.271.125.094.31.143.552.147.793.014 1.41-.323 1.836-1.02.579-.948.9-2.408.935-4.404.03-1.608-.148-2.894-.517-3.865-.288-.755-.686-1.275-1.162-1.555-.337-.203-.907-.304-1.696-.307zm15.593.875c1.515.271 2.62 1.116 3.266 2.542.645 1.424.778 3.04.363 4.852-.356 1.551-1.022 2.826-1.985 3.851-1.267 1.354-2.774 1.83-4.46 1.444-1.693-.388-2.85-1.435-3.417-3.136-.446-1.351-.506-2.83-.137-4.443.415-1.81 1.253-3.205 2.47-4.21 1.216-1 2.528-1.29 3.9-.9zm-.05.594c-.862-.197-1.651.216-2.359 1.262-.575.857-1.07 2.153-1.473 3.91-.477 2.081-.536 3.689-.211 4.816.226.787.703 1.265 1.411 1.427.48.11.914.049 1.298-.18.493-.296.954-.831 1.374-1.627.418-.788.786-1.859 1.098-3.22.37-1.613.525-2.856.484-3.71-.038-.855-.223-1.48-.494-1.896a1.8 1.8 0 0 0-1.128-.782zm21.315 5.903-.11.323a.802.802 0 0 0-.495.035c-.15.07-.312.185-.475.377-.05.06-.352.464-.89 1.208-2.057 2.944-4.166 5.856-6.224 8.8l-.262-.09c.136-2.805.225-5.615.36-8.417-1.688 2.269-3.423 4.513-5.116 6.784l-.249-.086c.128-3.568.194-7.142.322-10.71.035-1.074.016-1.744-.034-1.987-.05-.243-.214-.435-.49-.57l.11-.323 3.963 1.361-.112.324c-.322-.099-.558-.114-.696-.035a.66.66 0 0 0-.31.373c-.075.219-.125.73-.155 1.52-.072 2.123-.109 4.248-.184 6.369.986-1.338 1.994-2.662 2.98-4 .022-.462.033-.926.054-1.389.034-.76.028-1.269 0-1.545-.034-.268-.107-.477-.216-.623-.113-.147-.311-.273-.593-.37l.11-.323 4.425 1.52-.112.323c-.312-.095-.543-.147-.7-.132a.504.504 0 0 0-.292.126.716.716 0 0 0-.193.304c-.044.13-.082.575-.122 1.336-.099 2.059-.162 4.124-.262 6.185 1.068-1.53 2.162-3.042 3.232-4.568.333-.473.562-.795.661-.975a3.67 3.67 0 0 0 .237-.516c.08-.235.083-.448.01-.634-.081-.176-.294-.333-.645-.466l.11-.324 2.37.814m5.427 3.081c.173 3.028.428 6.067.603 9.1l2.507-4.775c.347-.661.506-1.151.487-1.464-.03-.425-.298-.752-.774-.993l.159-.303 2.827 1.485-.16.303c-.39-.131-.681-.181-.847-.152-.176.033-.353.136-.534.315-.184.184-.418.531-.692 1.054l-4.854 9.242-.211-.11c-.274-4.09-.661-8.19-.93-12.28l-3.706 7.055c-.336.64-.447 1.131-.34 1.47.102.341.305.59.594.741l.202.106-.16.303-3.035-1.594.16-.303c.479.242.872.294 1.182.141.31-.152.625-.518.934-1.107l4.114-7.833c-.01-.127-.02-.258-.026-.388-.025-.39-.084-.67-.174-.832-.092-.164-.264-.326-.52-.473l.159-.303 3.035 1.594m11.444 8.938-3.149 4.018.155.121c.48.377.98.456 1.505.23.524-.226 1.12-.702 1.779-1.417l.215.169-4.049 5.167-.215-.17c.401-.59.664-1.13.807-1.598.134-.467.157-.848.062-1.126-.089-.272-.323-.543-.688-.828l-2.177 2.778c-.426.544-.666.884-.726 1.04a.752.752 0 0 0-.033.452c.031.155.158.312.379.485l.453.355c.712.558 1.448.802 2.211.704.761-.106 1.58-.502 2.447-1.234l.21.164c-.93.96-1.87 1.91-2.8 2.87l-6.574-5.15.21-.27.255.199c.22.173.436.262.65.263.152.01.32-.046.5-.173.13-.086.392-.374.779-.868l5.086-6.491c.348-.445.552-.727.616-.843.091-.197.127-.379.105-.556-.029-.247-.178-.466-.427-.66l-.254-.2.211-.269 6.364 4.986-2.287 2.918-.21-.164c.455-.796.698-1.425.75-1.89.048-.47-.061-.911-.304-1.34-.134-.25-.492-.603-1.072-1.057l-.784-.615m13.885 12.326-.251.232c-.26-.198-.515-.298-.759-.293-.355.003-1.128.191-2.321.605-1.581.524-3.178 1.014-4.754 1.543l-2.23 2.058c-.473.437-.748.728-.828.869a.85.85 0 0 0-.097.509c.017.195.105.39.281.581l.367.397-.252.232-3.675-3.98.252-.233.343.372c.19.206.393.334.6.363.143.03.323.006.526-.085.142-.064.446-.307.907-.732l1.848-1.706c.816-1.765 1.59-3.55 2.406-5.315.483-1.048.712-1.708.731-1.974.014-.262-.094-.505-.29-.735l.251-.232 3.137 3.399-.251.232-.138-.15c-.19-.206-.362-.316-.509-.323-.151-.013-.278.018-.366.099-.163.15-.432.675-.842 1.551-.628 1.363-1.233 2.742-1.866 4.1 1.316-.441 2.647-.849 3.959-1.286.973-.316 1.565-.566 1.792-.775a.534.534 0 0 0 .177-.412c.01-.227-.125-.506-.399-.845l.252-.232 1.999 2.166" fill="navy" fill-rule="evenodd"/><path d="m341.385 234.132 5.283 1.133-.094-3.02 1.133.19.094 6.32 1.887-.094-.094 9.246" fill="#ff0" stroke="navy" stroke-width="1.1"/><path d="m345.725 235.17.094 12.926" fill="navy" stroke="navy" stroke-width="1.3"/><path d="m433.183 225.36-.133 7.605.667 1.868.267 3.068-2.7-.125 2.7-.008v6.938l-2.92-.03 2.92.03.667 9.74 2.268.134-.133-10.808-.534-.266-.267-6.805-.8-2.002-.667-1.467-.534-3.203z" fill="navy" stroke="navy" stroke-width=".8"/><path d="m322.822 226.323-2.697-.932-.07.204c-.11.314-.157.59-.135.818.017.231.102.45.263.66.162.208.404.397.742.56l-.064.185-3.295-1.14.064-.184c.648.146 1.121.106 1.422-.114.304-.229.516-.535.646-.909l.07-.204-2.01-.694c-.333-.115-.554-.167-.65-.155-.094.006-.194.063-.299.16-.106.094-.192.24-.261.441l-.082.235-.18-.062c.43-1.24.859-2.484 1.289-3.727l.18.062-.083.239c-.07.204-.097.384-.072.534a.479.479 0 0 0 .16.29c.067.063.26.154.591.268l4.318 1.493c.333.115.552.166.646.16a.535.535 0 0 0 .305-.155c.105-.097.187-.248.255-.446l.083-.239.18.062-2.08 6.014-1.882-.65.074-.214c.458.105.83.09 1.113-.034.285-.13.531-.372.753-.724.12-.19.282-.574.477-1.14l.229-.662m-1.983 6.694c-.272.98-.831 1.675-1.682 2.062-.85.384-1.763.429-2.743.113a3.978 3.978 0 0 1-1.995-1.389c-.658-.857-.801-1.847-.45-2.934.35-1.09 1.024-1.814 2.023-2.14.791-.259 1.62-.258 2.49.023.983.316 1.694.893 2.162 1.71.463.819.522 1.675.195 2.555zm-.33-.045c.179-.555.01-1.079-.519-1.564-.434-.397-1.12-.75-2.07-1.056-1.126-.363-2.015-.443-2.676-.26-.459.129-.76.427-.907.88-.1.31-.102.593-.003.85.126.329.387.643.8.935.407.29.977.556 1.712.793.873.281 1.557.413 2.037.409.48-.005.843-.106 1.1-.274.257-.171.43-.413.526-.713zm-1.365 4.313-.553 3.243-.188-.032.028-.16c.042-.247.048-.417.005-.515a.46.46 0 0 0-.2-.233c-.088-.058-.33-.12-.72-.186l-3.353-.571c-.61-.104-1.025-.132-1.238-.078-.21.047-.4.163-.565.334-.165.168-.27.404-.321.703-.058.337-.025.645.102.911.129.264.323.488.595.657.273.163.773.311 1.498.435l2.794.476c.306.052.529.062.669.023a.561.561 0 0 0 .31-.175c.101-.125.173-.315.217-.57l.187.032-.37 2.175-.188-.032.022-.13a.784.784 0 0 0-.04-.46.64.64 0 0 0-.305-.313c-.1-.06-.293-.113-.569-.16l-2.6-.443c-.803-.137-1.374-.283-1.716-.44-.345-.16-.626-.458-.863-.883-.24-.422-.298-.964-.186-1.62.092-.54.241-.95.452-1.219.288-.36.606-.608.973-.713.367-.109.829-.118 1.4-.021l3.353.572c.392.067.643.09.747.064a.463.463 0 0 0 .261-.169c.075-.087.134-.267.174-.534l.187.032m-1.07 10.305c-1.444 1.033-2.86 2.108-4.306 3.143h2.985c.414 0 .694-.059.845-.165.202-.149.291-.404.286-.755h.19v2.105h-.19c-.037-.27-.087-.452-.143-.542a.58.58 0 0 0-.291-.216c-.14-.05-.37-.078-.697-.078h-5.78v-.16c1.94-1.418 3.839-2.891 5.78-4.309h-4.414c-.398 0-.669.084-.809.253a.856.856 0 0 0-.21.572v.152h-.19v-2.26h.19c.006.351.082.598.235.733.157.135.414.205.784.205h4.901l.185-.135c.184-.135.305-.255.363-.356.056-.104.09-.256.096-.447h.19v2.26m-7.068 6.322.19-.008.009.213c.007.182.044.327.115.422a.564.564 0 0 0 .262.206c.074.025.29.03.648.016l4.565-.18c.352-.015.575-.043.66-.08a.495.495 0 0 0 .23-.214c.062-.11.085-.254.078-.43l-.01-.214.19-.008.114 2.853c.03.757-.055 1.375-.263 1.847a2.83 2.83 0 0 1-1.204 1.34c-.547.311-1.173.485-1.88.513a4.065 4.065 0 0 1-1.353-.163 3.13 3.13 0 0 1-1.043-.517 2.731 2.731 0 0 1-.674-.763c-.18-.293-.317-.656-.424-1.084-.047-.192-.081-.491-.097-.898l-.113-2.852zm6.64 2.169-5.412.214c-.288.012-.46.033-.527.058a.268.268 0 0 0-.143.135c-.047.083-.067.207-.06.367.02.522.226.915.631 1.175.543.349 1.361.51 2.466.466.891-.035 1.593-.195 2.12-.469.406-.215.677-.496.816-.819.1-.228.135-.606.109-1.127zm.807 7.467-2.795.431.02.125c.06.4.241.67.545.805.301.135.723.19 1.262.157l.027.178-3.594.555-.028-.178c.387-.096.696-.226.927-.378.23-.158.38-.326.441-.497.064-.172.068-.406.021-.708l-1.933.298c-.381.06-.606.108-.686.155a.402.402 0 0 0-.182.195c-.044.087-.048.22-.02.401l.058.377c.09.589.307 1.038.663 1.346.356.303.842.498 1.473.554l.026.17c-.741.02-1.483.035-2.225.056l-.84-5.442.188-.03.032.209c.028.18.084.325.173.424.06.07.15.125.272.149.088.017.3.005.646-.049l4.515-.697c.307-.048.5-.086.566-.11a.498.498 0 0 0 .248-.215c.082-.129.098-.299.066-.504l-.032-.208.188-.03.814 5.271-2.03.314c-.008-.062-.018-.12-.027-.178.485-.163.816-.347 1.01-.54.196-.197.312-.454.37-.767.035-.181.015-.51-.059-.99l-.1-.65m-5.182 6.968.185-.04.045.206c.039.18.1.314.186.399.081.083.18.133.294.155.077.012.291-.017.641-.093l4.466-.965c.344-.075.559-.141.636-.193a.495.495 0 0 0 .19-.25c.042-.121.04-.264.002-.44l-.045-.206.186-.04.603 2.787c.16.744.183 1.365.06 1.868a2.858 2.858 0 0 1-.955 1.528 4.111 4.111 0 0 1-1.764.829 4.065 4.065 0 0 1-1.361.073 3.183 3.183 0 0 1-1.116-.33 2.743 2.743 0 0 1-.796-.638c-.227-.255-.425-.589-.605-.995-.078-.178-.164-.467-.25-.867l-.603-2.788zm6.914.99c-1.764.38-3.53.763-5.294 1.144-.282.06-.448.111-.509.15a.263.263 0 0 0-.118.155.727.727 0 0 0 .004.375c.11.51.381.863.825 1.048.594.248 1.428.266 2.508.032.873-.189 1.537-.464 2.008-.827.363-.283.583-.603.663-.945.06-.242.029-.623-.087-1.133zm6.553 14.51c-1.69.85-3.38 1.703-5.07 2.554-.38.191-.61.337-.698.422a.557.557 0 0 0-.148.361c-.013.148.053.353.18.605l.078.155-.17.085-1.786-3.546.17-.085.09.18c.144.286.277.475.403.568a.55.55 0 0 0 .377.123c.124-.01.387-.117.776-.313l3.213-1.619c.29-.146.46-.25.518-.316a.43.43 0 0 0 .1-.255.578.578 0 0 0-.067-.32c-.085-.169-.239-.349-.459-.543l.12-.172c.77.643 1.524 1.308 2.29 1.953l.083.163m-.004 6.972c-.07.648-.179 1.154-.36 1.49-.183.336-.45.602-.808.796-.504.274-1.043.296-1.612.076-.579-.221-1.055-.693-1.439-1.405-.363-.673-.498-1.28-.386-1.81.113-.533.382-.923.818-1.16a1.512 1.512 0 0 1 1.055-.158c.366.068.786.303 1.263.685.094-.743.21-1.26.368-1.541a1.74 1.74 0 0 1 .712-.686c.418-.228.892-.225 1.42-.019.528.21.968.66 1.332 1.332.35.65.49 1.23.393 1.733-.1.497-.34.861-.733 1.075-.295.16-.606.2-.931.14-.328-.062-.695-.255-1.092-.548zm.03-.514c.219.044.443.043.665-.004.222-.042.451-.124.678-.248.4-.218.65-.481.765-.78.087-.227.063-.47-.07-.717a.896.896 0 0 0-.531-.453.872.872 0 0 0-.688.066c-.224.122-.403.34-.551.646-.152.304-.233.807-.268 1.49zm-1.517-.473a1.239 1.239 0 0 0-.354-.095 1.992 1.992 0 0 0-.569.076 2.724 2.724 0 0 0-.689.27 2.21 2.21 0 0 0-.658.513.944.944 0 0 0-.237.576.985.985 0 0 0 .117.53.949.949 0 0 0 .583.484c.253.076.525.041.81-.113.594-.324.921-1.077.997-2.241zm.159 6.25c2-.331 4.008-.626 6.01-.955l-.752-1.372c-.295-.536-.578-.907-.855-1.104-.197-.138-.45-.204-.765-.19l-.1-.184c.714-.191 1.433-.37 2.15-.559l2.162 3.941c-2.474.41-4.957.777-7.43 1.19l-.42-.766m6.343 3.102.165-.071c.272.342.485.572.64.679.154.107.346.187.577.213.228.025.438.003.625-.078.257-.11.435-.311.54-.596a1.228 1.228 0 0 0-.055-.891c-.206-.476-.613-.789-1.222-.916-.006-.07-.016-.142-.022-.212.628.015 1.158.17 1.589.432.43.267.742.638.945 1.108.207.479.248.94.111 1.364-.136.424-.382.715-.744.872a1.352 1.352 0 0 1-.77.08c-.285-.052-.574-.198-.874-.434-.01.471-.093.877-.263 1.196-.175.322-.456.567-.851.738-.663.286-1.337.263-2.03-.05-.694-.315-1.231-.922-1.61-1.8-.254-.586-.351-1.051-.285-1.398.045-.248.16-.413.357-.499a.54.54 0 0 1 .445.007.632.632 0 0 1 .317.323.828.828 0 0 1 .073.345c-.002.066-.048.321-.157.76-.11.437-.102.8.025 1.093a.94.94 0 0 0 .557.526c.261.097.53.093.813-.03.426-.184.752-.523.977-1.004.226-.478.259-1.072.127-1.757m131.111 13.741.152.153-2.508 2.499-.152-.153.16-.16a.808.808 0 0 0 .246-.423.48.48 0 0 0-.058-.34c-.04-.091-.202-.281-.485-.565l-3.718-3.732c-.288-.289-.484-.458-.58-.504a.538.538 0 0 0-.346-.038c-.139.025-.269.108-.401.24l-.16.16-.156-.156 2.508-2.498.155.155-.16.16c-.138.137-.223.277-.248.42a.54.54 0 0 0 .054.348c.044.089.202.282.485.566l3.718 3.732c.287.288.487.455.586.497a.52.52 0 0 0 .344.031c.134-.024.27-.1.403-.232l.16-.16m-3.22-7.634c1.983.193 3.978.331 5.961.525l-2.674-2.164c-.371-.3-.662-.455-.868-.478-.278-.02-.531.122-.761.417l-.17-.138 1.404-1.736.17.138c-.147.249-.221.434-.231.548a.63.63 0 0 0 .116.39c.093.143.276.337.57.575l5.18 4.193-.105.13c-2.68-.238-5.38-.399-8.06-.635l3.955 3.2c.36.291.658.415.896.378a.876.876 0 0 0 .57-.32l.1-.124.169.136-1.51 1.866-.168-.137c.23-.294.327-.553.279-.776-.048-.223-.234-.47-.566-.738l-4.391-3.555c-.083-.01-.17-.015-.253-.02-.259-.026-.447-.014-.567.031-.12.041-.25.14-.385.297l-.17-.138 1.509-1.866m6.615-8.595 2.448 1.306-.092.172c-.707-.22-1.327-.23-1.856-.063-.527.165-.91.478-1.148.923a1.78 1.78 0 0 0-.17 1.23c.096.447.297.851.635 1.212.427.462.96.872 1.6 1.214.63.336 1.243.574 1.833.717.59.144 1.096.135 1.513-.008.422-.14.755-.448.999-.903.2-.376.29-.778.26-1.19-.026-.415-.182-.926-.48-1.522l.61.326c.24.551.345 1.062.342 1.52-.01.465-.141.938-.4 1.422-.34.638-.791 1.126-1.358 1.454a3.326 3.326 0 0 1-1.912.448 4.81 4.81 0 0 1-2.024-.558 4.98 4.98 0 0 1-1.679-1.472 3.967 3.967 0 0 1-.761-1.956 3.21 3.21 0 0 1 .362-1.878c.224-.421.567-.81 1.03-1.157.27-.203.425-.341.466-.418a.375.375 0 0 0 .01-.313c-.046-.105-.15-.22-.316-.335l.092-.171m3.449-4.418c.542-.932 1.33-1.483 2.36-1.61 1.028-.127 2.044.12 3.04.761.857.55 1.466 1.245 1.85 2.082.506 1.106.42 2.184-.236 3.203-.66 1.026-1.581 1.562-2.759 1.584-.934.014-1.847-.252-2.735-.823-.997-.642-1.637-1.474-1.948-2.472-.305-1-.152-1.912.428-2.725zm.35.154c-.335.522-.281 1.119.178 1.796.376.55 1.042 1.139 2.012 1.762 1.146.738 2.105 1.104 2.874 1.127.536.009.944-.201 1.22-.63.186-.29.26-.583.216-.88-.056-.385-.268-.796-.649-1.23-.374-.434-.934-.894-1.684-1.376-.889-.572-1.607-.93-2.135-1.076-.531-.148-.956-.161-1.277-.07a1.34 1.34 0 0 0-.755.577zm7.096-4.206 1.977 1.064c.379.203.631.307.751.322a.515.515 0 0 0 .35-.078c.11-.067.243-.24.39-.512l.19.102-1.64 3.052-.191-.103c.148-.276.217-.479.209-.614a.556.556 0 0 0-.123-.332c-.079-.092-.308-.238-.686-.441l-4.578-2.462c-.378-.203-.633-.317-.753-.332a.518.518 0 0 0-.348.088c-.112.066-.242.24-.387.509a7.226 7.226 0 0 0-.194-.104l1.489-2.768c.387-.721.728-1.22 1.027-1.487a1.835 1.835 0 0 1 1.092-.469c.43-.035.86.057 1.287.286.52.28.86.67 1.035 1.166.106.314.11.687.026 1.11 1.051-.039 2.105-.108 3.158-.15.407-.021.67-.052.792-.09a.748.748 0 0 0 .4-.32c.064.033.129.068.191.102l-1.008 1.875c-1.412.053-2.831.143-4.246.194l-.21.392zm-3.457-1.859 3.087 1.66.136-.252c.22-.41.338-.738.357-.985a1.101 1.101 0 0 0-.22-.736c-.17-.236-.44-.458-.81-.657-.535-.287-.991-.393-1.358-.324-.371.075-.685.353-.938.822l-.254.472zm6.998-5.132 2.121.662c.41.128.678.183.799.175a.54.54 0 0 0 .33-.147c.096-.09.192-.281.283-.573l.207.064-1.025 3.285a261.98 261.98 0 0 1-.207-.065c.093-.3.122-.511.089-.642a.553.553 0 0 0-.183-.303c-.095-.075-.348-.175-.758-.303l-4.962-1.55c-.41-.127-.68-.191-.802-.183a.528.528 0 0 0-.324.148c-.099.09-.192.282-.285.577l-.21-.065.88-2.818c.29-.926.692-1.532 1.21-1.812a2.075 2.075 0 0 1 1.655-.145c.494.154.875.419 1.152.788.274.369.396.802.382 1.302 0 .336-.122.869-.352 1.605zm-3.74-1.168 3.302 1.031c.039-.104.068-.183.084-.236.12-.387.083-.732-.13-1.023-.207-.293-.596-.531-1.164-.709-.57-.178-1.013-.2-1.344-.074-.332.121-.558.4-.687.814l-.062.197zm1.389-6.827c.074-1.08.536-1.919 1.404-2.492.864-.57 1.885-.798 3.063-.664 1.011.114 1.865.47 2.579 1.052.944.763 1.344 1.768 1.207 2.972-.137 1.212-.726 2.105-1.772 2.642-.832.425-1.768.595-2.818.476-1.178-.133-2.12-.596-2.84-1.358-.717-.76-.984-1.643-.823-2.628zm.382-.02c-.07.615.243 1.13.955 1.531.58.326 1.438.559 2.584.689 1.355.154 2.377.058 3.076-.263.485-.229.757-.598.815-1.103.039-.344-.025-.639-.196-.886-.22-.317-.592-.595-1.126-.816-.528-.223-1.234-.388-2.12-.488-1.05-.119-1.852-.122-2.39-.02-.542.103-.93.28-1.176.503a1.34 1.34 0 0 0-.422.852zm5.683-7.073 2.23.26c.426.05.7.053.816.022a.515.515 0 0 0 .297-.201c.078-.107.137-.308.173-.616l.215.025-.4 3.438-.215-.025c.036-.312.025-.525-.032-.648a.544.544 0 0 0-.237-.26c-.107-.056-.374-.111-.8-.16l-5.163-.601c-.427-.05-.706-.058-.823-.028a.51.51 0 0 0-.29.206c-.082.107-.137.309-.173.616l-.218-.025.363-3.122c.094-.813.228-1.401.406-1.76a1.85 1.85 0 0 1 .842-.839 2.286 2.286 0 0 1 1.303-.208c.587.068 1.047.305 1.391.702.215.252.357.597.434 1.022.964-.428 1.917-.877 2.88-1.305.371-.169.604-.298.704-.374.14-.116.22-.27.254-.447l.215.025-.246 2.116c-1.293.57-2.58 1.176-3.875 1.745l-.051.442zm-3.899-.453 3.481.405.033-.285c.054-.461.042-.807-.03-1.047a1.13 1.13 0 0 0-.477-.604c-.245-.156-.577-.263-.994-.311-.604-.07-1.067 0-1.383.203-.317.203-.507.577-.568 1.106l-.062.533zm5.65-8.625v2.391c.261.092.52.191.778.283.262.095.475.143.646.143.223 0 .388-.076.494-.23.065-.088.113-.31.143-.664h.216v2.248h-.216a.962.962 0 0 0-.359-.6c-.197-.15-.598-.353-1.208-.576-2.132-.79-4.255-1.629-6.387-2.42v-.095c2.194-.798 4.374-1.64 6.565-2.44.62-.23 1.014-.428 1.175-.576.126-.11.194-.274.214-.476h.216v3.274h-.216v-.135c0-.267-.042-.453-.13-.557a.352.352 0 0 0-.271-.107.87.87 0 0 0-.22.028 4.322 4.322 0 0 0-.442.15c-.333.116-.666.243-.998.358zm-.437.17c-.92.33-1.838.68-2.758 1.006.92.341 1.838.699 2.758 1.04v-2.046zm-4.916-8.862h2.168v.179c-.5.103-.86.226-1.082.353a1.458 1.458 0 0 0-.517.537c-.074.123-.107.35-.107.663v.505h6.177c.407 0 .665-.02.765-.064a.52.52 0 0 0 .265-.222.77.77 0 0 0 .12-.453v-.227h.216v3.544h-.216v-.226a.808.808 0 0 0-.126-.473.523.523 0 0 0-.281-.203c-.094-.035-.343-.055-.743-.055h-6.177v.489c0 .453.11.79.343.993.32.286.772.477 1.363.548v.19h-2.168v-6.078m-.105-3.618 3.252-.157c0-.044 0-.092-.01-.135-.02-.429-.194-.735-.519-.91-.332-.175-.806-.275-1.428-.3 0-.064-.01-.124-.01-.191l4.185-.203c0 .068.01.127.01.19-.45.062-.823.168-1.107.305-.285.141-.474.305-.566.477-.095.172-.129.42-.113.745l2.252-.109c.442-.021.706-.05.805-.086a.473.473 0 0 0 .233-.19c.06-.087.083-.227.073-.422-.01-.135-.013-.27-.019-.405-.03-.63-.223-1.13-.59-1.495-.37-.356-.906-.612-1.62-.74 0-.06-.01-.124-.01-.183.85.058 1.703.12 2.554.178l.282 5.842-.216.01c0-.07-.01-.146-.01-.222-.01-.194-.06-.355-.15-.466a.486.486 0 0 0-.29-.189c-.095-.027-.345-.035-.745-.015l-5.262.254c-.358.018-.584.036-.664.056a.613.613 0 0 0-.31.198c-.107.129-.15.31-.14.528 0 .076.01.151.011.222l-.22.011-.273-5.655 2.365-.115c0 .064.01.127.01.187-.573.123-.979.282-1.226.465-.243.187-.411.445-.515.773-.065.186-.081.537-.056 1.049.01.234.022.464.034.698m7.106-5.067-.215.026c-.01-.075-.017-.147-.026-.221-.023-.194-.076-.348-.166-.441a.623.623 0 0 0-.318-.191c-.087-.022-.336-.009-.743.039l-5.233.61c-.405.047-.659.1-.754.144a.557.557 0 0 0-.245.248c-.067.124-.082.278-.059.467.01.075.017.146.026.221l-.218.026-.35-3.008c-.095-.805-.045-1.467.162-1.983a3.15 3.15 0 0 1 1.278-1.533c.603-.374 1.31-.617 2.122-.711a5.077 5.077 0 0 1 1.566.045c.493.095.901.251 1.237.456.34.2.616.456.835.746.227.294.416.664.572 1.11.072.196.128.513.178.943l.351 3.007zm-7.797-1.686 6.205-.724c.327-.038.524-.077.599-.11a.309.309 0 0 0 .154-.154c.047-.097.061-.227.042-.397-.064-.552-.335-.949-.815-1.185-.652-.32-1.606-.417-2.873-.269-1.02.12-1.817.352-2.398.692-.45.264-.741.586-.876.942-.097.251-.108.657-.038 1.205zm-4.189-14.316 6.308-1.758c.47-.131.77-.235.888-.302a.655.655 0 0 0 .265-.313c.053-.134.042-.329-.026-.574l-.042-.15.209-.057.957 3.433-.209.058-.048-.172c-.078-.28-.174-.467-.281-.565a.584.584 0 0 0-.379-.155c-.142-.005-.462.063-.944.198l-3.999 1.114c-.357.1-.574.177-.66.23a.517.517 0 0 0-.182.223.446.446 0 0 0-.014.297c.046.165.163.347.347.547-.057.049-.118.095-.178.145-.66-.674-1.306-1.365-1.967-2.039l-.045-.16m6.701-5.222-.154.068c-.36-.445-.753-.792-1.172-1.02a3.164 3.164 0 0 0-1.359-.398 4.808 4.808 0 0 0-1.543.17c.195.135.345.26.449.375.108.109.191.241.256.386.207.47.184.953-.082 1.436-.266.486-.738.887-1.436 1.195a3.844 3.844 0 0 1-1.439.332 2.328 2.328 0 0 1-1.256-.308 1.816 1.816 0 0 1-.759-.83 1.814 1.814 0 0 1-.088-1.19c.104-.428.341-.85.726-1.242.38-.394.863-.725 1.46-.988a6.046 6.046 0 0 1 2.418-.514 4.378 4.378 0 0 1 2.313.645c.701.42 1.255 1.057 1.666 1.883zm-4.713-1.048c-.42.146-.776.29-1.083.427a9.175 9.175 0 0 0-1.748.999c-.28.211-.462.426-.545.628a.417.417 0 0 0 .01.351c.067.15.198.239.392.253.264.022.693-.094 1.293-.359.998-.441 1.637-.85 1.928-1.213.188-.24.235-.469.135-.694-.051-.117-.18-.247-.382-.392zm-5.272-1.538-1.489-2.8c.53-.093 1.056-.175 1.583-.27l1.252 2.354c.273-.051.548-.098.82-.149-.49-1.04-.614-1.982-.345-2.818.22-.688.663-1.216 1.342-1.577a3.25 3.25 0 0 1 1.438-.364 2.57 2.57 0 0 1 1.427.371 2.67 2.67 0 0 1 1.003 1.069c.26.487.353.924.272 1.295-.056.26-.183.448-.374.55a.666.666 0 0 1-.474.063.457.457 0 0 1-.35-.237.855.855 0 0 1-.099-.393c-.01-.15.03-.425.116-.835.053-.258.066-.467.056-.624a.863.863 0 0 0-.101-.342c-.13-.242-.34-.391-.64-.452a1.339 1.339 0 0 0-.885.15c-.61.325-.964.85-1.077 1.568-.114.713.048 1.473.466 2.259.043.08.106.2.193.356-1.375.285-2.759.544-4.135.825m-4.772-7.666.147-.075c.441.453.86.783 1.28.975.422.186.86.297 1.316.296a5.54 5.54 0 0 0 1.576-.251 1.388 1.388 0 0 1-.369-.218 1.94 1.94 0 0 1-.404-.53c-.23-.45-.232-.93 0-1.424.244-.495.691-.92 1.359-1.26.469-.24.942-.378 1.42-.417.476-.038.897.046 1.262.23a1.804 1.804 0 0 1 .97 2.007c-.077.437-.297.866-.674 1.273-.375.41-.831.758-1.375 1.036a5.924 5.924 0 0 1-2.482.651 4.499 4.499 0 0 1-2.352-.544c-.713-.38-1.27-.966-1.676-1.75zm4.776.788a32.26 32.26 0 0 0 1.082-.508 8.91 8.91 0 0 0 1.341-.841c.416-.301.673-.571.787-.803.084-.163.087-.312.02-.447-.07-.134-.228-.21-.472-.219-.236-.008-.648.13-1.223.424-.967.493-1.58.935-1.851 1.32-.171.247-.205.479-.093.698.06.12.194.245.41.376z" fill="navy" fill-rule="evenodd"/></g></svg>