<svg xmlns="http://www.w3.org/2000/svg" width="700" height="420"><path fill="#305080" d="M0 0h700.001v420H0z"/><g fill-rule="evenodd" clip-rule="evenodd" fill="#FFF"><path d="M211.448 212.959c-.449-.251-.733-.366-.967-.547-9.554-7.368-29.19-6.695-35.301 11.216-2.07 6.067-2.258 12.318-1.733 18.618.446 5.363 1.812 10.482 4.569 15.151 3.648 6.177 9.049 10.344 15.649 12.849 3.944 1.497 8.053 2.658 12.18 3.544 2.702.58 5.568.395 8.36.558 4.391.258 8.796.371 13.168.817 5.328.544 10.634 1.315 15.936 2.083 18.823 2.724 37.412 6.58 55.729 11.711 19.913 5.579 39.292 12.605 57.979 21.494 16.074 7.647 31.481 16.45 45.787 27.069 5.612 4.166 10.917 8.748 16.359 13.143.464.374.914.767 1.529 1.284-.646.472-1.065.805-1.51 1.099-6.235 4.127-12.491 8.222-18.693 12.396-.996.671-1.541.7-2.372-.234-13.191-14.854-27.732-28.243-43.804-39.931-19.904-14.474-41.492-25.724-64.785-33.719-14.528-4.987-29.381-8.648-44.509-11.2-12.15-2.05-24.378-3.565-36.688-4.149-13.458-.639-26.93-1.019-40.398-1.442-1.35-.043-2.337-.445-3.295-1.346-6.973-6.543-11.226-14.59-13.173-23.881-2.367-11.29-1.365-22.272 3.276-32.876 5.507-12.579 15.197-19.844 28.555-22.422 8.239-1.59 16.479-1.148 24.714.052.237.035.472.09.709.119 3.346.412 2.8.029 2.82 3.178.029 4.64.004 9.28-.004 13.92 0 .416-.049.834-.087 1.446zM668.466 239.519c-.569 9.962-2.589 19.406-8.196 27.806-5.446 8.157-12.941 13.498-22.435 15.989-.666.175-1.428.138-2.12.034a5506.79 5506.79 0 0 1-30.001-4.536c-.718-.111-1.448-.456-2.064-.858-8.458-5.519-14.126-13.208-16.899-22.844-3.889-13.507-3.26-26.89 3.277-39.442 7.745-14.871 20.517-21.779 37.181-21.457 8.031.155 15.578 2.288 22.39 6.625 9.899 6.303 15.482 15.525 17.575 26.906.711 3.873.876 7.848 1.292 11.777zm-22.439-1.136c-.231-2.171-.478-6.128-1.113-10.021-.884-5.413-2.588-10.564-6.06-14.96-5.994-7.586-16.58-8.207-23.393-1.369-4.064 4.078-6.204 9.175-7.502 14.648-2.159 9.112-1.426 18.182.717 27.195 1.157 4.867 3.186 9.284 6.737 12.913 5.048 5.158 11.934 6.241 18.217 2.715 5.089-2.855 8.305-7.266 10.09-12.763 1.749-5.387 2.124-10.964 2.307-18.358zM387.93 281.432c.678-.809 1.22-1.377 1.673-2.01 1.982-2.769 2.62-5.98 2.897-9.275.177-2.109.256-4.232.259-6.35.021-15.158.048-30.317-.01-45.477-.02-4.915-.247-9.832-.459-14.744-.135-3.138-1.38-5.802-3.79-7.877-.111-.097-.183-.241-.416-.559.505-.083.857-.191 1.21-.19 11.038.013 22.078-.039 33.115.09 5.546.065 11.016.857 16.141 3.172 7.57 3.419 13.146 9.05 16.696 16.411 7.968 16.515 7.808 33.113-.479 49.521a32.106 32.106 0 0 1-8.916 10.864c-.639.501-1.558.813-2.377.889-7.404.676-14.827 1.164-22.222 1.931-10.655 1.104-21.292 2.396-31.938 3.6-.349.039-.706.004-1.384.004zm25.709-42.261c0 9.152-.002 18.306.002 27.458 0 1.618.15 1.93 1.752 2.164 1.966.287 3.973.562 5.945.478 4.243-.182 7.915-1.733 10.692-5.112 2.509-3.053 4.151-6.535 5.185-10.311 2.088-7.632 2.222-15.384 1.243-23.181-.581-4.631-1.72-9.111-4.018-13.224-2.285-4.089-5.483-7.058-10.207-8.039-2.988-.621-5.954-.218-8.928.27-1.284.21-1.702.736-1.695 2.039.052 9.152.028 18.306.029 27.458z"/><path d="M216.091 240.172c.228-11.405 2.154-20.656 7.499-28.971 5.849-9.098 14.055-14.964 24.628-17.115 13.084-2.662 25.226-.142 36.016 7.861 6.358 4.716 10.667 11.055 13.012 18.572 4.184 13.412 3.513 26.69-1.945 39.638-2.691 6.382-6.917 11.661-12.479 15.843-.915.688-1.818.898-2.994.794-10.869-.97-21.742-1.916-32.623-2.743-5.221-.396-10.464-.481-15.69-.813-.741-.047-1.587-.547-2.144-1.086-6.592-6.385-10.562-14.201-12.211-23.173-.634-3.447-.854-6.969-1.069-8.807zm61.511-1.548c-.012-7.26-.912-14.361-3.88-21.069-1.701-3.845-4.107-7.163-7.836-9.283-6.513-3.704-14.508-2.221-19.474 3.523-4.162 4.814-6.25 10.552-7.329 16.703-1.453 8.292-.669 16.491 1.282 24.61.983 4.087 2.627 7.876 5.306 11.173 5.671 6.98 13.791 8.224 21.21 3.145 4.214-2.885 6.927-6.927 8.458-11.754 1.757-5.541 2.291-11.26 2.263-17.048zM362.187 247.507c.037-.376.106-.753.106-1.13 0-11.919.002-23.838-.019-35.758-.009-5.316-.959-10.354-4.514-14.581-.118-.14-.156-.347-.307-.697h21.586c-.25.441-.364.738-.558.969-3.008 3.616-4.21 7.887-4.262 12.471-.077 6.797-.013 13.597.063 20.394.096 8.678.267 17.354.399 26.031.133 8.677.259 17.354.391 26.031.025 1.719.023 1.679-1.639 1.944a589.139 589.139 0 0 0-10.645 1.788c-.86.153-1.401-.023-1.911-.777-8.979-13.287-17.984-26.558-26.984-39.831-3.412-5.031-6.823-10.063-10.244-15.088-.206-.302-.497-.547-.998-1.087-.07.95-.152 1.523-.149 2.097.077 16.717.157 33.435.251 50.151.018 3.123-.042 2.545-2.493 2.063-2.551-.502-5.108-.974-7.648-1.521-2.151-.462-2.088.066-2.083-2.604.015-8.158.056-16.317.08-24.476.034-11.52.082-23.038.08-34.557 0-3.797-.035-7.6-.237-11.39-.235-4.408-1.979-8.197-5.204-11.266-.333-.316-.607-.694-1.11-1.276.717-.098 1.154-.208 1.591-.208 6.839-.011 13.679.005 20.519-.024.864-.003 1.365.3 1.835 1.02a42197.06 42197.06 0 0 0 32.433 49.607c.406.621.848 1.219 1.272 1.828.134-.04.267-.081.399-.123zM506.032 195.072c.593-.054 1.007-.125 1.422-.125 10.397-.005 20.794-.057 31.19.022 5.249.04 10.466.527 15.478 2.284 7.734 2.71 13.485 7.847 17.701 14.742 5.797 9.481 7.696 19.893 6.906 30.854-.61 8.48-3.023 16.408-7.754 23.546-2.023 3.053-4.447 5.763-7.347 8.008-.512.396-1.301.639-1.954.621-14.346-.39-28.691-.833-43.037-1.248a191.858 191.858 0 0 0-7.076-.064c-.958.008-1.24-.314-1.144-1.285a53.55 53.55 0 0 0 .272-5.266c.021-15.476.055-30.951-.01-46.427-.024-5.873-.231-11.748-.484-17.617-.126-2.915-1.409-5.38-3.636-7.319-.164-.145-.266-.36-.527-.726zm25.576 43.737c0 9.074.027 18.149-.029 27.224-.009 1.313.448 1.981 1.688 2.081 2.261.182 4.538.528 6.786.402 4.331-.244 7.873-2.178 10.511-5.685 2.57-3.416 4.185-7.264 5.113-11.403 1.631-7.266 1.685-14.591.618-21.932-.7-4.824-1.975-9.475-4.709-13.601-2.511-3.787-5.898-6.403-10.504-6.777-2.594-.21-5.241.276-7.865.418-1.264.068-1.642.68-1.635 1.928.046 9.114.026 18.229.026 27.345zM415.955 319.473c1.325-.686 2.296-1.214 3.289-1.697 11.526-5.614 23.446-10.241 35.654-14.137 15.527-4.954 31.343-8.746 47.379-11.63 13.151-2.365 26.386-4.084 39.7-5.224 16.396-1.403 32.812-1.861 49.25-1.098 11.193.521 22.324 1.668 33.314 3.948.312.064.625.131.93.221.104.03.185.139.495.387-.647.077-1.09.15-1.536.181-13.967.936-27.88 2.384-41.732 4.405-14.766 2.155-29.416 4.913-43.938 8.355-23.277 5.517-46.061 12.595-68.038 22.067-9.502 4.096-18.747 8.787-28.082 13.262-.957.459-1.521.25-2.218-.377-6.1-5.492-12.496-10.609-19.296-15.215-1.612-1.091-3.24-2.16-5.171-3.448zM34.769 283.274c.377-.446.477-.614.62-.727 4.426-3.454 6.124-8.171 6.171-13.588.056-6.358.011-12.717.011-19.075 0-12.239.013-24.479-.01-36.718-.006-3.155.034-6.326-.24-9.464-.267-3.058-1.378-5.838-3.99-7.771-.115-.085-.174-.246-.418-.606.734-.056 1.29-.133 1.845-.134 12.319-.019 24.638-.016 36.957-.058 1.553-.005 3.107-.215 4.654-.389.619-.07 1.046-.038 1.045.713-.012 5.799-.023 11.598-.042 17.396 0 .104-.088.209-.235.534-.294-.39-.537-.656-.716-.96-1.692-2.866-4.251-4.316-7.522-4.373-3.156-.054-6.316.092-9.475.132-.72.009-.988.346-.987 1.037.007 6.4.007 12.799-.001 19.199 0 .666.205 1.066.952 1.062 3.719-.02 7.438-.016 11.158-.048.513-.004 1.03-.141 1.536-.257 1.696-.389 1.698-.396 1.698 1.396 0 5.04.001 10.08-.008 15.119 0 .459-.073.918-.112 1.377l-.303.103c-.202-.288-.451-.554-.598-.868-.923-1.979-2.505-3.222-4.612-3.412-2.938-.267-5.903-.23-8.856-.312-.801-.021-.854.547-.854 1.15.001 2.72-.004 5.439-.003 8.159 0 3.8.021 7.6-.006 11.398-.006.832.238 1.371 1.068 1.627 5.621 1.729 11.29 2.366 16.965.384 4.767-1.665 8.264-4.912 10.784-9.252.242-.417.53-.808.797-1.21l.33.126c-.038.364-.044.734-.118 1.091-1.385 6.737-2.794 13.47-4.152 20.212-.197.979-.682 1.285-1.621 1.353-16.636 1.182-33.214 2.9-49.701 5.451-.549.084-1.101.114-2.011.203zM137.333 212.233c-.735-.48-1.326-.874-1.924-1.257-4.495-2.874-9.247-4.896-14.74-4.625-4.451.22-7.928 2.85-8.652 6.756-.599 3.232.436 6.026 2.977 8.015 1.901 1.488 4.093 2.617 6.202 3.824 3.849 2.202 7.906 4.089 11.562 6.569 5.791 3.929 10.356 9.077 12.133 16.015 2.432 9.491 1.048 18.404-5.051 26.345-.665.865-1.427 1.241-2.533 1.274-7.435.22-14.868.502-22.301.758-.619.021-1.239.003-1.859.003l-.08-.296c.357-.192.711-.394 1.073-.576 4.409-2.227 8.007-5.283 9.978-9.94 1.853-4.376.883-8.665-2.617-11.913-2.97-2.756-6.559-4.558-10.078-6.447-4.342-2.331-8.626-4.728-12.327-8.04-5.539-4.957-8.15-11.246-8.465-18.568-.265-6.144 1.185-11.817 4.799-16.866 3.667-5.121 8.822-7.944 14.817-9.249 8.989-1.956 17.735-.787 26.227 2.57.451.178 1.036.788 1.042 1.205.07 4.599.039 9.198.027 13.798.002.142-.088.286-.21.645zM192.475 149.398C233.382 58.976 346.937 27.224 427.864 79.44c-42.528-18.112-86.095-21.573-130.504-8.366-44.451 13.219-79.114 39.9-104.885 78.324zM467.005 195.094h30.11c-.072.27-.065.424-.138.487-3.538 3.095-4.251 7.271-4.414 11.635-.072 1.916-.007 3.836-.007 5.755.001 17.23-.012 34.462.015 51.693.004 2.753.139 5.509.307 8.259.065 1.08-.584.927-1.213.944-5.834.161-11.668.313-17.502.483-2.899.085-2.872.103-2.599-2.783.121-1.271.152-2.554.152-3.831.005-19.99.008-39.979-.018-59.97-.004-3.384-.352-6.734-2.247-9.677-.636-.989-1.49-1.839-2.446-2.995zM371.956 296.877c1.695-.521 3.38-1.088 5.09-1.559 17.256-4.752 34.787-8.198 52.455-10.989 11.419-1.804 22.89-3.183 34.429-3.91 8.267-.521 16.542-.66 24.813-.021.431.033.856.117 1.328.456-.381.091-.758.206-1.143.27-21.316 3.52-42.113 9.147-62.705 15.57-10.003 3.12-19.901 6.56-29.475 10.865-.439.197-1.112.222-1.547.031-4.979-2.184-9.925-4.438-14.894-6.645-2.485-1.104-4.997-2.146-7.494-3.224-.285-.123-.546-.301-.818-.453-.013-.129-.027-.26-.039-.391z"/><path d="M478.228 171.399c-17.305-25.83-39.947-45.383-68.55-57.771-28.591-12.382-58.327-15.57-89.011-10.472 28.328-9.774 56.734-9.936 84.892.31 33.76 12.285 57.705 35.383 72.669 67.933zM347.702 135.093c-30.711-1.224-56.469 9.464-77.363 32.016-.048-2.144 4.829-9.718 10.98-16.578 4.495-5.012 9.878-9.006 15.855-12.09 16.339-8.43 33.2-9.49 50.528-3.348zM98.488 327.164c.171-.348.368-.686.51-1.045 1.276-3.237 2.55-6.476 3.808-9.719 1.164-3.001 1.155-3.004.119-5.973 1.836 0 3.61-.019 5.381.045.112.004.373.714.273.989-.806 2.217-1.678 4.41-2.539 6.607-2.274 5.809-4.542 11.62-6.834 17.422-1.133 2.866-2.791 5.3-5.688 6.684-2.659 1.271-7.263 1.158-9.779-.449 1.391-.994 2.666-1.957 4.007-2.815.225-.145.75.134 1.119.266 1.927.689 3.631.391 4.841-1.255 1.003-1.364 1.701-2.961 2.448-4.496.152-.312.026-.866-.153-1.215-1.111-2.161-2.374-4.249-3.396-6.449-1.753-3.771-3.352-7.613-5.053-11.409-.362-.808-.885-1.545-1.333-2.314l-.383.102-.237 1.907c-1.792-.114-3.52-.212-5.245-.338-.966-.07-1.365.305-1.354 1.309.039 3.439 0 6.88.027 10.319.005.673.119 1.357.277 2.014.491 2.037 1.797 3.018 3.895 2.991.463-.005.927-.001 1.416-.001-.563 2.369-1.72 3.25-3.957 3.104-3.734-.245-5.775-2.149-5.93-5.895-.163-3.953-.086-7.917-.11-11.875-.011-1.886-.009-1.848-1.887-1.993-.398-.031-.767-.448-1.149-.688.233-.355.401-.942.71-1.03 3.289-.928 4.553-3.405 5.1-6.466.084-.472.057-.979.225-1.416.115-.298.478-.502.729-.747.218.274.613.543.625.826.064 1.518.031 3.039.036 4.559.005 1.618.039 1.656 1.705 1.663 2.799.01 5.603.088 8.398-.022 1.353-.054 2.051.454 2.543 1.639 1.717 4.137 3.486 8.252 5.238 12.375.399.94.806 1.878 1.209 2.817l.388-.028zM60.47 327.087c-.679 1.604-1.342 3.213-2.054 4.802-.096.214-.412.386-.662.466-6.835 2.169-13.409 1.902-19.216-2.701-7.277-5.769-7.815-17.188-1.269-24.037 5.012-5.244 11.205-6.454 18.067-5.015 3.361.705 2.683.438 2.747 3.346.014.598-.023 1.197-.053 1.795-.005.108-.092.213-.212.473-.499-.192-1.004-.361-1.489-.577-3.665-1.632-7.398-1.984-11.182-.485-2.915 1.154-4.987 3.276-5.944 6.221-1.564 4.809-1.202 9.493 1.778 13.735 2.88 4.1 8.276 5.645 13.676 3.955 1.48-.464 2.891-1.152 4.332-1.741.395-.162.784-.339 1.176-.509.103.09.204.181.305.272zM200.211 326.983c-.676 1.608-1.328 3.227-2.051 4.812-.125.276-.52.507-.838.606-6.254 1.961-12.316 1.812-17.945-1.905-4.462-2.947-6.536-7.283-6.938-12.524-.714-9.312 7.322-18.864 19.4-17.85 1.622.136 3.219.574 4.83.859.802.142 1.146.574 1.114 1.408-.048 1.222-.012 2.447-.012 3.937-.861-.345-1.472-.571-2.07-.831-2.75-1.193-5.61-1.617-8.556-1.032-4.758.945-7.987 4.198-8.809 8.975-.7 4.067-.256 7.987 2.192 11.467 2.941 4.18 8.056 5.816 13.464 4.252 1.64-.475 3.196-1.239 4.787-1.882.395-.159.773-.359 1.159-.54l.273.248zM202.372 332.697c1.735-2.349 1.242-4.922 1.258-7.402.04-6.316.007-12.634.014-18.95.002-1.921.178-3.868-1.442-5.708 1.931-.21 3.529-.417 5.133-.505.16-.009.512.712.517 1.098.043 3.398.025 6.797.035 10.194.001.458.059.916.111 1.66.68-.503 1.148-.833 1.601-1.185 3.964-3.081 9.773-2.578 12.375 1.265.83 1.227 1.317 2.845 1.47 4.333.248 2.415.092 4.871.102 7.31.005 1.359-.115 2.731.036 4.074.143 1.271.565 2.51.887 3.854h-6.394c1.853-4.428.736-8.972.977-13.42.021-.394-.05-.799-.122-1.19-.746-4.076-5.207-6.042-8.663-3.693-.842.572-1.393 1.696-1.846 2.674-.32.691-.324 1.562-.341 2.354a343.045 343.045 0 0 0-.053 7.315c0 1.99-.214 4.026 1.385 5.922h-7.04zM239.324 333.797c-6.858.03-11.582-5.294-12.129-10.739-.626-6.235 3.616-11.833 9.866-13.098 6.614-1.338 12.523 1.804 14.473 7.694 2.085 6.301-1.155 12.961-7.442 15.101-1.531.521-3.176.704-4.768 1.042zm-7.466-12.553c.447 1.599.699 3.288 1.383 4.778 1.315 2.867 3.651 4.362 6.882 4.269 3.049-.088 5.083-1.692 6.335-4.365 1.545-3.303.85-8.062-1.756-10.62-.975-.958-2.345-1.762-3.668-2.071-4.923-1.153-8.944 2.521-9.176 8.009zM132.593 333.555c-6.361.031-11.343-4.238-12.102-10.352-.74-5.968 3.214-11.565 9.247-13.089 6.493-1.64 12.638 1.234 14.868 6.954 3.04 7.797-2.458 16.086-10.935 16.484-.358.017-.719.003-1.078.003zm8.033-11.543c-.194-1.099-.303-2.22-.597-3.29-.906-3.296-3.811-5.62-7.048-5.73-3.141-.106-5.969 1.728-7.018 4.815-1.147 3.381-.754 6.67 1.375 9.587 2.329 3.191 6.659 3.925 9.831 1.722 2.448-1.702 3.299-4.217 3.457-7.104zM309.102 328.309c-1.273 1.918-1.722 4.074-4.387 4.655-4.338.945-8.499 1.091-12.378-1.38-5.104-3.252-6.801-9.92-4.076-15.72 2.376-5.061 8.554-7.702 14.122-5.896 4.033 1.308 6.08 4.375 6.728 8.422.507 3.175.433 2.673-2.265 2.685-4.356.019-8.713.002-13.069.008-1.684.002-1.859.233-1.509 1.922 1.031 4.965 5.18 7.921 10.289 7.105 2.103-.337 4.135-1.123 6.545-1.801zm-10.642-10.448c1.556 0 3.112-.018 4.667.008.938.015 1.196-.395.977-1.27-.573-2.291-2.769-3.946-5.352-3.999-2.943-.06-5.317 1.458-5.995 3.833-.301 1.052-.063 1.405 1.034 1.421 1.557.024 3.113.006 4.669.007zM283.048 314.872c-.472-.111-.667-.134-.843-.204-.221-.09-.426-.219-.638-.33-3.477-1.819-7.031-1.672-9.462.393-2.256 1.916-3.161 5.802-2.115 9.086 1.074 3.377 4.106 5.921 7.622 5.966 1.913.023 3.842-.511 5.748-.874.689-.132 1.333-.5 2.099-.66-.701 1.652-1.169 3.455-2.927 4.352-4.484 2.286-11.512.865-15.167-3.023-3.477-3.699-4.106-9.358-1.266-14 2.218-3.624 5.632-5.664 9.909-5.884 2.017-.104 4.06.216 6.084.415.338.033.895.419.914.674.092 1.298.042 2.608.042 4.089zM162.22 300.435c-.635.808-1.224 1.657-1.929 2.397-.247.259-.774.324-1.18.343-.634.028-1.275-.112-1.91-.086-1.525.062-2.424.746-2.646 2.267-.201 1.373-.207 2.786-.155 4.177.011.297.62.775.993.816 1.026.114 2.079.109 3.111.023 1.19-.098 1.609.397 1.453 1.522a2.553 2.553 0 0 0-.004.599c.099.955-.356 1.277-1.27 1.235-1.077-.049-2.158.008-3.237-.016-.762-.017-1.099.338-1.098 1.078.01 4.955-.033 9.911.066 14.864.02.981.583 1.952.934 3.048h-6.726c1.827-2.391 1.21-5.012 1.263-7.522.069-3.236-.03-6.476.042-9.711.027-1.235-.25-1.938-1.628-1.781-.137.016-.289-.088-.701-.224.535-.714 1.084-1.281 1.431-1.953a9.562 9.562 0 0 0 .838-2.388c.26-1.245.241-2.561.599-3.77.95-3.208 3.384-4.781 6.525-5.221 1.657-.232 3.373-.041 5.062-.041.055.116.111.229.167.344zM261.807 332.745h-6.952c1.935-2.86 1.141-5.917 1.255-8.854.093-2.394.013-4.793.021-7.189.007-2.076.168-4.177-1.41-6.205 1.937-.163 3.576-.334 5.219-.386.158-.005.481.729.486 1.123.04 3.155.021 6.311.021 9.467 0 1.877-.008 3.754.004 5.631.014 2.142-.286 4.339 1.356 6.413zM62.718 310.488c1.983-.164 3.562-.336 5.143-.378.209-.005.615.647.624 1.004.056 2.235.025 4.474.025 6.712-.001 2.757-.027 5.514.008 8.271.028 2.21-.406 4.507 1.385 6.62h-6.992c1.859-2.602 1.186-5.422 1.266-8.131.077-2.595.022-5.193.015-7.791-.005-2.108.257-4.269-1.474-6.307zM68.909 304.435c-.003 1.663-1.122 2.774-2.789 2.771-1.611-.004-2.791-1.169-2.823-2.785-.029-1.511 1.28-2.82 2.823-2.822 1.557-.004 2.792 1.253 2.789 2.836zM258.122 307.211c-1.636.026-2.812-1.091-2.865-2.722-.05-1.563 1.159-2.841 2.734-2.889 1.541-.047 2.833 1.2 2.868 2.77.037 1.634-1.101 2.815-2.737 2.841z"/></g></svg>