<svg xmlns="http://www.w3.org/2000/svg" width="1067" height="650"><path fill="#000085" d="M0-1.104h1072.666v655.518H0z"/><path d="M233.226 80.45h540.817c-2.61 74.636 15.028 171.476-26.35 217.152-2.274 2.51-8.734 6.043-6.055 7.768 67.66 43.57 30.116 142.225 32.405 209.384H233.226z" fill="#fff"/><path d="M763.861 420.94c-27.256 22.362-62.25 40.528-109.503 53.48-4.62.98-8.403 5.563 1.107 4.428 37.818-6.151 77.183-15.857 111.497-40.192z" fill="#0000b3"/><path d="m230.43 80.385-.665 434.654 93.663.222c-25.066-57.991-45.253-129.65-44.197-201.356l227.752.277c-2.886 73.662-16.217 143.482-43.864 200.636l325.519-.444c37.58-51.888 78.63-184.682-29.225-215.442 108.344-35.55 64.72-171.72 27.284-218.491H463.784c33.983 67.595 35.679 135.18 42.35 202.775-8.337 2.9-17.488 3.499-24.383-2.306-5.82-5.322-10.347-11.65-13.603-18.335-3.098 7.077-7.245 15.873-13.626 19.903-6.227 3.365-13.636 3.625-20.462-1.568-7.176-5.02-12.921-12.038-16.137-17.892-4.172 6.73-8.88 14.905-14.75 18.945-4.318 3.193-14.298 4.95-20.63-.72-5.473-5.083-11.23-12.168-13.716-18.445-3.87 6.565-9.629 13.904-15.786 18.389-3.872 3.11-10.275 6.067-18.577-.055-5.996-4.641-11.908-13.28-14.807-19.606-3.582 6.421-8.452 15.472-14.473 19.883-11.481 7.032-18.904 6.705-25.787-.222 5.37-66.677 10.39-134.013 43.532-200.69zm429.553 22.404c14.29-.138 29.302 1.618 42.312 5.934 26.065 7.552 40.55 24.732 47.857 37.654 31.167 60.445 35.805 109.774-19.52 136.363l-173.018-.444.332-80.132c3.343-33.643 17.046-69.898 56.231-90.78 10.268-5.1 27.434-8.418 45.806-8.595zm68.986 213.113c55.324 26.588 50.631 75.972 19.464 136.418-7.308 12.921-21.736 30.102-47.802 37.654-29.736 9.864-69.92 6.405-88.173-2.662-39.185-20.881-52.888-57.136-56.23-90.78l-.278-80.187z" fill="#ffc000"/><path d="M380.694 134.98c0 13.736-11.134 24.87-24.87 24.87-13.735 0-24.87-11.134-24.87-24.87 0-13.735 11.135-24.87 24.87-24.87 13.736 0 24.87 11.135 24.87 24.87z" fill="#f60"/><path d="m344.45 252.1 72.633.102-.443-90.348c-10.147 30.782-22.32 76.007-72.19 90.245zm81.991-.66 42.716.06-.26-53.135c-5.967 18.103-13.126 44.7-42.456 53.074z" fill="#0000b3"/><path d="m580.2 232.645.136-3.86 18.81-19.236v-23.487h7.75l.079 9.395 13.78-12.84 42.59 46.584v2.896c-2.407-.482-6.212-.744-5.89.974.138.735.28 24.124.375 24.762.46 3.072 6.629 3.715 9.743 5.426l2.662 1.41-.314 5.008-43.686.235-.079-21.295h-9.943v21.06h-27.089l.235-37.032z" fill="#f60"/><path d="M657.708 212.681c-10.827.748-10.864-5.775-11.9-12.37-4.589-1.755-10.042-12.982.156-17.694-3.202-16.878 10.176-15.506 12.527-12.996l3.445.626c3.178-15.243 15.28-13.296 20.512-7.516l5.637.313c2.157-5.49 11.105-6.96 13.153 1.096l9.708.47c6.563-4.53 14.193 2.81 14.719 8.769 9.568-.45 13.631 3.863 13.623 10.49l.783 10.179c2.085 2.87 1.227 5.741.47 8.612.679 5.201-2.064 6.67-5.95 6.89 1.079 11.18-13.324 14.593-17.851 2.974l-1.88.47c-6.094 7.257-16.035 6.522-19.416-.626l-3.288.94c-1.684 1.404-4.176 2.567-1.879 5.167l3.445 5.793 1.253 2.349 4.697-.157 3.915-1.565 5.01-2.976 3.758-2.505 1.096-.626 3.758 2.505-4.697 7.516-11.43 4.854v19.103c5.711 10.457 16.258 11.104 24.113 11.431v5.637l-52.612-.157.157-4.697c6.456-2.73 11.55-6.822 15.501-12.057l.47-16.91-3.758-3.759-10.647-8.142-2.35-3.602z" fill="#005f00"/><path d="M663.658 350.631c0 5.621-4.346 10.178-9.708 10.178s-9.708-4.557-9.708-10.178 4.346-10.178 9.708-10.178 9.708 4.557 9.708 10.178z" fill="#f60"/><path d="m598.52 354.232 32.069 15.31c10.998 5.656 21.005 4.063 30.265-3.593 6.567-7.666 19.365-4.569 19.402-4.827l53.865 8.142c8.358 2.353 6.31 3.135-.94 3.132l-53.551-1.253c-10-.602-7.97 7.679-12.932 9.913-13.178 9.019-22.012 4.573-33.417-1.144l-36.327-21.922c-7.682-5.322-1.858-5.1 1.437-3.557z" fill="#f60"/><path d="M680.844 375.581c12.335-9.89 19.108 2.447 15.383 9.968-5.587 17.999-29.72 22.024-25.366 28.185 28.09 6.89 39.243 14 56.576 20.89 3.912 2.812 6.507.573 9.891 1.269 3.212.652 1.2 1.303.55 1.955l-19.639 9.71-.128.055c-1.978-1.07 5.006-6.852 4.549-7.611-.256-1.045-1.481-1.497-1.909-1.668l-62.73-17.084c-9.8-2.052-11.141-6.661-4.128-14 8.43-10.63 15.898-21.039 26.951-31.669z" fill="#f60"/><path transform="matrix(1.88982 -.56647 .58355 1.83451 -728.497 363.788)" d="M556.14 192.442c0 19.184-8.588 34.736-19.18 34.736-10.594 0-19.181-15.552-19.181-34.736 0-19.185 8.587-34.737 19.18-34.737s19.18 15.552 19.18 34.737z" fill="none" stroke="#c96800" stroke-width="1.4"/><path d="M401.225 470.686a7.058 7.058 0 1 1-14.116 0 7.058 7.058 0 0 1 14.116 0z" fill="#c96800"/><path d="M556.14 192.442c0 19.184-8.588 34.736-19.18 34.736-10.594 0-19.181-15.552-19.181-34.736 0-19.185 8.587-34.737 19.18-34.737s19.18 15.552 19.18 34.737z" transform="matrix(1.00142 -1.69984 1.67479 .94924 -461.462 1142.726)" fill="none" stroke="#1637ff" stroke-width="1.4"/><path transform="matrix(-.74883 -1.82526 1.76854 -.76041 462.505 1541.271)" d="M556.14 192.442c0 19.184-8.588 34.736-19.18 34.736-10.594 0-19.181-15.552-19.181-34.736 0-19.185 8.587-34.737 19.18-34.737s19.18 15.552 19.18 34.737z" fill="none" stroke="#009579" stroke-width="1.4"/><path d="M389.305 367.793a7.058 7.058 0 1 1-14.117 0 7.058 7.058 0 0 1 14.117 0z" fill="#0000fe"/><path d="M470.239 385.36a7.058 7.058 0 1 1-14.117 0 7.058 7.058 0 0 1 14.117 0z" fill="#009579"/><path d="M409.338 414.377c0 3.881-2.86 7.027-6.388 7.027s-6.388-3.146-6.388-7.027c0-3.88 2.86-7.026 6.388-7.026s6.388 3.146 6.388 7.026zm-12.355-6.744c0 3.188-2.35 5.772-5.247 5.772-2.898 0-5.248-2.584-5.248-5.772s2.35-5.772 5.248-5.772 5.247 2.584 5.247 5.772zm22.822 13.881c0 3.188-2.35 5.772-5.248 5.772s-5.247-2.584-5.247-5.772 2.35-5.772 5.247-5.772c2.898 0 5.248 2.584 5.248 5.772zm.078-14.274c0 3.189-2.35 5.773-5.247 5.773-2.898 0-5.248-2.584-5.248-5.772s2.35-5.772 5.248-5.772 5.247 2.584 5.247 5.772zm-11.843-6.744c0 3.188-2.348 5.772-5.246 5.772-2.898 0-5.248-2.584-5.248-5.772s2.35-5.772 5.248-5.772 5.247 2.584 5.247 5.772zm-10.9 21.096c0 3.188-2.35 5.773-5.248 5.773s-5.247-2.585-5.247-5.773c0-3.187 2.35-5.772 5.247-5.772 2.899 0 5.248 2.585 5.248 5.772zm11.764 6.196c0 3.188-2.35 5.772-5.248 5.772s-5.247-2.584-5.247-5.772 2.35-5.772 5.247-5.772c2.898 0 5.248 2.584 5.248 5.772z" fill="#fc0"/><path d="M228.518 595.035v-63.111h10.28v24.844h20.134v-24.844h10.279v63.11h-10.28v-27.601h-20.134v27.602h-10.279m75.536 0v-6.842c-1.345 2.45-3.114 4.318-5.293 5.748-2.164 1.459-4.518 2.115-6.945 2.115-2.471 0-4.694-.671-6.668-2.013-1.974-1.357-3.421-3.239-4.27-5.69-.847-2.465-1.315-5.806-1.315-10.11v-28.93h9.753v21.008c0 6.405.175 10.373.555 11.788.336 1.474 1.024 2.626 1.945 3.443.936.875 2.164 1.298 3.611 1.298 1.667 0 3.173-.54 4.49-1.721 1.3-1.138 2.222-2.538 2.704-4.23.483-1.678.731-5.749.731-12.3v-19.285h9.753v45.72h-9.05m52.695.001h-9.752v-23.342c0-4.946-.22-8.126-.614-9.6-.424-1.415-1.097-2.524-2.018-3.355-.935-.832-2.09-1.196-3.407-1.196-1.71 0-3.202.54-4.547 1.721-1.345 1.167-2.266 2.655-2.749 4.552-.512 1.896-.76 5.383-.76 10.504v20.716h-9.767v-45.721h9.065v6.725c3.188-5.208 7.267-7.761 12.165-7.761 2.15 0 4.138.467 5.893 1.43 1.77.991 3.144 2.173 4.065 3.69.892 1.518 1.535 3.195 1.915 5.077.336 1.911.512 4.61.512 8.14v28.42m26.816-45.721v9.643H376.9v18.425c0 3.75.073 5.894.204 6.492.103.657.424 1.153.878 1.547a2.33 2.33 0 0 0 1.623.613c.906 0 2.237-.38 3.933-1.168.263 3.122.556 6.259.833 9.381-2.251 1.225-4.825 1.809-7.72 1.809-1.755 0-3.334-.336-4.752-1.123-1.418-.744-2.442-1.663-3.1-2.83-.643-1.168-1.14-2.714-1.374-4.698-.205-1.415-.322-4.26-.322-8.52v-19.928h-4.474v-9.643h4.474v-9.09c3.246-2.377 6.55-4.668 9.797-7.046v16.136h6.667m6.77-6.201v-11.19h9.753v11.19h-9.753zm0 51.922v-45.721h9.753v45.72h-9.753zm53.311 0h-9.767v-23.342c0-4.946-.205-8.126-.615-9.6-.409-1.415-1.096-2.524-2.017-3.355-.936-.832-2.091-1.196-3.407-1.196-1.696 0-3.202.54-4.548 1.721-1.345 1.167-2.266 2.655-2.734 4.552-.512 1.896-.775 5.383-.775 10.504v20.716h-9.752v-45.721h9.065v6.725c3.173-5.208 7.252-7.761 12.15-7.761 2.15 0 4.139.467 5.908 1.43 1.754.991 3.143 2.173 4.05 3.69.892 1.518 1.535 3.195 1.915 5.077.337 1.911.527 4.61.527 8.14v28.42m8.992 3.005c3.714.57 7.428 1.109 11.142 1.678.175 1.59.643 2.699 1.287 3.311.936.876 2.412 1.299 4.386 1.299 2.53 0 4.445-.467 5.717-1.415.863-.671 1.506-1.634 1.96-3.064.292-.992.438-2.845.438-5.558v-6.667c-2.866 4.974-6.594 7.41-11.04 7.41-4.97 0-8.933-2.567-11.77-7.804-2.222-4.1-3.406-9.206-3.406-15.318 0-7.66 1.535-13.48 4.488-17.55 2.91-4.086 6.653-6.084 11.069-6.084 4.547 0 8.378 2.465 11.288 7.455v-6.42h9.139v41.024c0 5.383-.366 9.425-1.082 12.094-.717 2.67-1.755 4.77-3.012 6.288-1.273 1.517-3.042 2.684-5.177 3.574-2.193.861-4.942 1.284-8.246 1.284-6.244 0-10.718-1.313-13.291-3.953-2.574-2.7-3.919-6.026-3.919-10.125 0-.38 0-.905.03-1.459zm8.715-26.814c0 4.858.79 8.374 2.295 10.635 1.477 2.29 3.363 3.385 5.586 3.385 2.398 0 4.43-1.138 6.053-3.472 1.609-2.305 2.457-5.734 2.457-10.256 0-4.727-.82-8.243-2.354-10.548-1.55-2.29-3.583-3.428-5.98-3.428-2.325 0-4.285 1.108-5.762 3.355-1.506 2.29-2.295 5.719-2.295 10.329zm52.55-21.912v9.643h-6.682v18.425c0 3.75.073 5.894.22 6.492.102.657.424 1.153.862 1.547.453.394.98.613 1.638.613.906 0 2.222-.38 3.918-1.168.278 3.122.57 6.259.848 9.381-2.251 1.225-4.84 1.809-7.72 1.809-1.769 0-3.348-.336-4.766-1.123-1.404-.744-2.428-1.663-3.086-2.83-.643-1.168-1.14-2.714-1.389-4.698-.204-1.415-.307-4.26-.307-8.52v-19.928h-4.474v-9.643h4.474v-9.09c3.246-2.377 6.55-4.668 9.782-7.046v16.136h6.682m4.518 22.204c0-3.998.82-7.907 2.384-11.657 1.579-3.75 3.874-6.594 6.813-8.607 2.896-2.013 6.17-2.976 9.782-2.976 5.6 0 10.192 2.203 13.73 6.725 3.524 4.552 5.337 10.198 5.337 17.04 0 6.93-1.842 12.62-5.38 17.17-3.554 4.61-8.16 6.843-13.613 6.843-3.363 0-6.61-.92-9.65-2.83-3.071-1.926-5.44-4.698-7.02-8.36-1.564-3.661-2.383-8.082-2.383-13.348zm10.002.656c0 4.508.892 7.995 2.588 10.402 1.725 2.436 3.89 3.633 6.433 3.633 2.53 0 4.708-1.197 6.42-3.633 1.68-2.407 2.573-5.894 2.573-10.49 0-4.478-.892-7.906-2.574-10.328-1.71-2.437-3.89-3.618-6.419-3.618-2.544 0-4.708 1.181-6.433 3.618-1.696 2.422-2.588 5.894-2.588 10.416zm69.234 22.861h-9.753v-23.342c0-4.946-.22-8.126-.629-9.6-.41-1.415-1.082-2.524-2.018-3.355-.92-.832-2.076-1.196-3.392-1.196-1.71 0-3.217.54-4.562 1.721-1.33 1.167-2.252 2.655-2.734 4.552-.512 1.896-.76 5.383-.76 10.504v20.716h-9.768v-45.721h9.066v6.725c3.187-5.208 7.267-7.761 12.15-7.761 2.164 0 4.153.467 5.908 1.43 1.754.991 3.143 2.173 4.064 3.69a15.888 15.888 0 0 1 1.901 5.077c.351 1.911.527 4.61.527 8.14v28.42m29.769-63.111h20.354c4.02 0 7.048.204 9.021.598 1.974.452 3.758 1.284 5.308 2.626 1.55 1.357 2.88 3.049 3.89 5.252 1.038 2.203 1.564 4.697 1.564 7.41 0 2.962-.643 5.676-1.915 8.127-1.258 2.465-3.056 4.289-5.235 5.558 3.085 1.138 5.512 3.005 7.15 5.734 1.652 2.713 2.5 5.85 2.5 9.497 0 2.888-.54 5.631-1.593 8.36-1.053 2.713-2.588 4.886-4.416 6.491-1.857 1.663-4.167 2.626-6.902 3.02-1.696.219-5.834.38-12.399.438h-17.327v-63.111zm10.28 10.504v14.588h6.74c3.977 0 6.478-.073 7.457-.218 1.77-.263 3.173-1.007 4.167-2.276.995-1.255 1.492-2.889 1.492-4.902 0-1.94-.424-3.53-1.287-4.785-.848-1.211-2.179-1.926-3.89-2.189-.994-.13-3.962-.218-8.787-.218h-5.893zm0 25.092v16.88h9.504c3.714 0 6.053-.132 7.062-.394 1.52-.35 2.793-1.197 3.743-2.539.936-1.342 1.418-3.093 1.418-5.34 0-1.896-.394-3.471-1.11-4.814-.717-1.342-1.8-2.275-3.188-2.888-1.419-.613-4.445-.905-9.139-.905h-8.29zm62.332 12.955c3.246.7 6.492 1.342 9.738 2.043-1.228 4.435-3.275 7.76-5.907 10.066-2.69 2.363-6.083 3.472-10.148 3.472-6.433 0-11.2-2.538-14.241-7.79-2.398-4.202-3.656-9.425-3.656-15.756 0-7.557 1.667-13.48 4.825-17.799 3.13-4.289 7.194-6.419 12.107-6.419 5.469 0 9.855 2.218 12.984 6.711 3.13 4.552 4.68 11.409 4.562 20.658h-24.476c.087 3.56.906 6.36 2.368 8.345 1.462 2.042 3.393 3.034 5.644 3.034 1.521 0 2.808-.525 3.86-1.575 1.024-1.022 1.843-2.714 2.34-4.99zm.556-12.196c-.059-3.501-.82-6.157-2.194-8.024-1.345-1.809-3.07-2.713-5.059-2.713-2.105 0-3.918.933-5.293 2.888-1.345 1.955-2.076 4.523-2.047 7.849h14.593zm24.944-5.019c-2.953-.67-5.907-1.283-8.86-1.984.994-4.435 2.72-7.673 5.146-9.803 2.398-2.13 6.054-3.18 10.82-3.18 4.358 0 7.633.612 9.738 1.896 2.106 1.313 3.656 2.918 4.504 4.873.848 1.954 1.287 5.572 1.287 10.824-.03 4.727-.059 9.425-.117 14.122 0 3.998.204 6.974.497 8.87.321 1.926.877 3.968 1.754 6.157h-9.68a77.95 77.95 0 0 1-.935-3.589c-.175-.73-.263-1.196-.35-1.4-1.639 2.042-3.422 3.5-5.323 4.522-1.93.992-3.948 1.488-6.083 1.488-3.802 0-6.814-1.255-8.978-3.822-2.164-2.568-3.275-5.777-3.275-9.687 0-2.568.497-4.902 1.492-6.915.994-2.043 2.398-3.56 4.181-4.669 1.784-1.08 4.387-1.955 7.75-2.8 4.562-1.08 7.72-2.043 9.475-2.948v-1.225c0-2.305-.439-3.968-1.375-4.99-.935-.992-2.69-1.458-5.263-1.458-1.726 0-3.1.437-4.065 1.254-.936.876-1.755 2.364-2.34 4.464zm13.043 9.833c-1.228.525-3.217 1.109-5.937 1.838-2.69.73-4.474 1.401-5.293 2.101-1.286 1.138-1.93 2.539-1.93 4.26 0 1.692.527 3.151 1.52 4.406 1.024 1.255 2.34 1.838 3.89 1.838 1.784 0 3.48-.7 5.06-2.13 1.17-1.109 1.959-2.422 2.31-4.026.234-1.022.38-3.006.38-5.894v-2.393zm51.381-10.27c-3.217.758-6.434 1.43-9.622 2.159-.321-2.363-1.052-4.143-2.193-5.369-1.14-1.225-2.632-1.809-4.474-1.809-2.427 0-4.387 1.021-5.79 3.093-1.462 2.13-2.194 5.602-2.194 10.475 0 5.427.732 9.22 2.223 11.496 1.433 2.246 3.421 3.355 5.907 3.355 1.813 0 3.363-.642 4.533-1.984 1.17-1.313 2.018-3.53 2.515-6.71 3.187.67 6.375 1.312 9.562 2.013-.965 5.456-2.924 9.511-5.731 12.342-2.778 2.83-6.58 4.172-11.347 4.172-5.38 0-9.738-2.072-12.896-6.302-3.188-4.26-4.825-10.096-4.825-17.536 0-7.528 1.637-13.393 4.825-17.653 3.217-4.201 7.574-6.273 13.072-6.273 4.474 0 8.07 1.167 10.732 3.56 2.603 2.45 4.562 6.069 5.703 10.97m17.107-30.898v23.196c3.129-4.581 6.93-6.828 11.288-6.828 2.252 0 4.299.496 6.083 1.547 1.783 1.05 3.158 2.363 4.094 3.968a16.1 16.1 0 0 1 1.871 5.34c.322 1.925.497 4.989.497 9.074v26.814h-9.767v-24.16c0-4.755-.175-7.819-.556-9.103-.38-1.313-1.023-2.334-1.93-3.122-.935-.73-2.134-1.108-3.538-1.108-1.638 0-3.07.466-4.357 1.458-1.287 1.022-2.194 2.451-2.778 4.406-.585 1.984-.907 4.902-.907 8.724v22.905h-9.767v-63.111h9.767" fill="#ffc000" fill-rule="evenodd"/></svg>