<svg xmlns="http://www.w3.org/2000/svg" height="510" width="880"><path fill="#fff" d="M0 0h880v510H0z"/><path d="M527.126 176.441c-56.385 0-102.915 36.966-109.413 84.582h9.297c6.466-44.959 50.527-79.779 103.867-79.779s97.4 34.82 103.867 79.78h1.795c-6.498-47.617-53.028-84.583-109.413-84.583z" fill-rule="evenodd" stroke="#0e720e" stroke-width=".09" fill="#0e720e" transform="matrix(1.87376 0 0 1.94637 -547.7 -190.218)"/><g fill="#0e720e"><path d="M255.907 316.152c-.115-.05-.206-.233-.203-.405.003-.173.1-.39.218-.485.117-.094 1.97-1.053 4.116-2.131 4.773-2.397 5.81-2.953 8.453-4.528 2.718-1.62 10.712-6.984 13.308-8.93 4.378-3.143 8.572-6.539 12.77-9.934 7.303-5.887 14.193-12.301 20.978-18.819 4.714-4.595 6.26-5.97 10.393-9.248 5.458-4.328 7.918-6.025 15.167-10.464 4.05-2.481 13.09-7.035 17.617-8.875 3.64-1.48 10.496-3.655 12.432-3.944a38.296 38.296 0 0 0 2.026-.404c1.947-.438 3.008-.37 2.636.169-.065.094-1.646.998-3.514 2.009-3.644 1.972-9.405 5.75-13.793 9.045-2.523 1.757-4.907 3.696-7.315 5.61-1.412 1.03-5.85 4.63-7.164 5.81a580.47 580.47 0 0 0-10.67 9.257c-3.131 2.765-9.372 8.783-15.221 14.678-8.138 8.2-14.287 13.363-21.067 17.684-3.176 2.013-6.296 4.12-9.531 6.03-3.048 1.965-6.506 3.1-9.691 4.753-2.703 1.128-5.54 1.845-8.37 2.54-1.737.427-7.141.815-10.339.743-1.665-.038-3.121-.11-3.236-.16zM319.586 317.288c-2.713-.088-3.34-.155-3.512-.377-.294-.382-.041-.566 1.037-.756.508-.09 2.369-.621 4.136-1.181 5.71-1.81 10.536-4.54 18.175-10.28 2.625-1.971 4.817-3.723 6.224-4.972.705-.626 1.684-1.454 2.176-1.84s1.484-1.228 2.205-1.87c7.37-6.257 13.993-13.372 21.087-19.948 3.276-2.974 8.527-7.946 12.043-11.403 4.254-4.169 8.88-8.352 13.057-12.171 4.177-3.82 7.544-6.912 11.738-11.052s10.286-9.785 13.929-13.212c3.642-3.426 5.392-4.76 8.114-7.106 5.652-5.428 11.61-8.55 18.451-11.719 2.688-1.322 9.064-2.549 12.885-2.48 5.644.103 11.512 2.482 15.343 6.22.652.637 1.469 1.383 1.815 1.659.648.515.947 1.11.689 1.369-.082.082-.85-.098-1.734-.406-6.343-2.208-13.587-2.522-19.417-.84-3.629 1.047-9.127 4.229-13.252 7.669-7.013 6.872-6.491 6.245-20.9 20.787-6.466 7.186-11.249 10.83-29.148 27.976-17.766 17.02-13.372 13.695-25.22 24.521-11.974 10.941-11.715 9.684-15.34 12.414-2.183 1.644-2.78 2.015-5.356 3.33a216.056 216.056 0 0 0-3.48 1.816c-.746.403-2.347 1.028-3.556 1.39s-2.405.736-2.659.832c-.917.349-4.332.994-7.22 1.365-3.13.401-6.124.466-12.31.265z"/><path d="M285.756 316.524c-.218-.234.25-.735.778-.834 1.09-.203 3.258-1.063 6.07-2.407 4.68-2.236 7.11-3.753 11.888-7.414 4.392-3.322 8.782-6.638 13.04-10.143 6.566-5.325 12.656-11.232 19.042-16.78 18.472-16.967 35.851-35.154 54.21-52.26 5.236-4.507 10.284-9.212 15.24-14.047 6.586-6.437 13.208-11.412 18.294-13.741 2.222-1.018 8.723-2.496 12.745-2.897a87.4 87.4 0 0 1 13.468-.545c4.861.325 9.186 1.268 11.399 2.484 1.272.7 4.353 3.577 4.27 3.989-.071.36-.943.426-1.953.15-5.277-1.325-10.5-1.306-15.839-.444-4.228.76-8.864 2.326-12.436 4.202-7.872 3.966-14.014 10.57-20.644 16.351-6.11 5.069-11.642 10.815-17.505 16.175a1659.946 1659.946 0 0 0-18.595 17.763c-3.174 3.042-7.648 7.43-9.942 9.752l-9.76 9.889c-4.717 4.9-9.76 9.435-14.64 14.152-2.552 2.486-4.088 3.884-8.372 7.617-4.161 3.626-9.377 7.694-13.297 10.37-3.61 2.478-7.575 4.37-11.625 5.93a54.336 54.336 0 0 1-15.278 2.804c-3.497.14-10.391.064-10.558-.116z"/></g><g fill="#1ada1a"><path d="M350.139 317.844c-.835-.1-1.172-.361-.897-.693a.72.72 0 0 1 .499-.23c.604.011 4.222-.974 6.352-1.729 2.674-.947 6.459-2.807 9.018-4.43 2.188-1.387 2.593-1.688 7.863-5.828 3.489-2.59 6.767-5.465 10.074-8.297 7.543-6.178 14.985-12.489 22.11-19.185a658.731 658.731 0 0 0 25.586-25.123c8.265-8.473 16.44-17.054 25.206-24.976 1.814-1.534 5.387-4.105 6.908-4.973 4.922-2.808 10.82-3.736 15.71-2.472 2.628.679 5.085 1.776 7.25 3.237 1.595 1.078 4.567 3.534 4.563 3.773-.008.393-.429.438-1.29.138-2.6-.906-8.432-1.364-10.872-.855-3.422.715-5.076 1.2-7.379 2.163-7.408 3.268-13.65 8.788-18.846 15.088-6.78 8.223-13.918 16.143-21.267 23.82-7.457 7.708-14.862 15.451-22.523 22.942-7.285 7.116-9.902 9.455-16.548 14.79-5.11 4.101-6.813 5.346-12.156 8.887-1.753 1.162-6.38 2.644-10.003 3.202-3.1.64-6.228.778-9.379.807l-6.786.017c-1.388.004-2.825-.028-3.193-.072zM388.88 317.351c-.286-.308.262-.64 1.805-1.089 3.02-.88 5.546-1.83 7.983-3.008 3.93-1.897 5.883-3.31 13.994-10.118 1.828-1.534 9.938-9.548 13.567-13.406 5.445-5.789 7.479-7.926 8.91-9.362 3.217-3.23 10.542-10.95 12.549-13.226 5.911-6.704 14.497-15.567 21.029-21.708 7.735-7.272 9.975-9.04 14.052-11.096 4.565-2.456 9.744-3 14.754-1.969 2.59.778 2.762.863 7.05 3.477.829.505 1.29.895 1.286 1.088-.008.4-.256.46-1.172.286-.421-.08-1.811-.169-3.09-.198-3.137-.102-6.264.753-9.204 1.84-9.114 2.225-14.199 8.187-20.964 14.538-8.416 9.197-10.372 11.662-19.66 21.46-5.542 6.543-13.814 15.926-19.787 22.054-7.92 7.815-11.07 10.648-14.606 13.138-2.869 2.019-5.155 3.116-9.478 4.547-4.394 1.455-7.683 2.16-12.663 2.716-1.87.209-6.171.233-6.355.036zM425.338 317.4c-.19-.334.477-.777 1.882-1.248 7.097-2.381 16.686-10.48 29.781-25.155 7.245-8.101 14.416-16.273 21.61-24.424 6.151-7.012 13.888-13.847 19.98-17.653 5.01-2.886 10.884-5.51 16.739-4.589 2.736.458 4.757 1.195 7.268 2.652 2.313 1.342 2.65 1.652 2.234 2.05-.218.21-.44.206-1.595-.026-3.49-.7-5.011-.754-8.827-.318-4.046.462-7.646 1.82-11.569 4.365-3.706 2.403-6.16 4.582-10.19 9.048-3.455 3.755-6.857 7.562-10.28 11.349-4.97 5.496-9.827 11.1-14.65 16.735-3.018 3.56-13.394 14.417-16.806 17.587-4.079 3.79-7.2 5.718-11.54 7.127-1.406.404-2.725 1.108-4.165 1.384-1.68.371-3.35.712-5.062.874-1.066.083-2.43.216-3.034.296-1.422.187-1.642.18-1.776-.054z"/></g><g fill="#ce9812"><path d="M457.406 316.997c-1.398-.196-.965-.637 1.222-1.246 2.354-.655 3.651-1.184 5.397-2.204 3.574-2.087 6.085-3.867 9.667-6.85 2.954-2.461 8.801-8.279 11.13-11.074 8.623-10.019 16.88-20.373 25.69-30.216 4.132-4.581 6.865-7.005 9.782-8.672 3.266-1.868 8.263-2.824 12.78-2.445 2.85.239 7.39 1.543 8.034 2.307.388.463-.06.776-.888.62-3.44-.645-7.847-.698-9.998-.12-6.783 1.839-11.895 6.591-16.084 12.181-2.562 3.465-5.285 6.797-7.946 10.18-3.652 4.742-7.558 9.257-11.458 13.778-5.747 6.758-7.891 9.056-11.938 12.798-3.709 3.428-5.217 5.014-7.224 6.155-6.111 3.476-3.717 2.2-10.756 4.373-1.864.575-6.095.624-6.655.542l-.755-.107zM491.145 316.87c-.193-.336.045-.463 2.063-1.104 2.417-.768 7.106-3.061 9.3-4.549 4.982-3.378 7.234-5.61 12.445-12.338 2.09-2.703 4.202-5.385 6.29-8.089 4.142-5.376 7.028-8.971 8.873-11.056 2.619-3.122 5.348-6.138 8.342-8.877 4.48-3.652 8.057-5.653 13.908-5.965 4.442-.04 6.256.45 10.794 2.906 2.85 1.543 3.758 2.22 3.432 2.556-.157.162-.526.065-1.675-.441-3.74-1.65-9.646-2.111-13.63-1.065-4.356 1.315-8.438 3.556-11.78 6.733-2.556 2.476-4.043 4.288-8.782 10.702-5.064 6.853-8.072 10.808-9.898 13.015-2.573 3.11-9.035 9.615-11.017 11.092-2.69 2.003-6.54 4.034-9.39 4.951-4.13 1.33-8.936 2.122-9.275 1.53zM523.366 317.022c-.26-.337.15-.746 1.277-1.27 7.153-3.329 8.715-4.367 14.714-9.772 5.082-5.142 9.697-10.778 14.2-16.471 3.371-4.306 6.806-7.907 9.375-9.83 3.999-2.992 8.592-4.085 13.115-3.12 3.36.716 8.419 2.565 8.625 3.152.192.549-.254.556-1.726.028-5.76-2.067-12.394-1.38-17.016 1.763-3.84 2.61-8.438 7.424-13.786 14.434-1.903 2.489-3.917 4.88-5.751 7.424-.72 1.019-4.678 5.424-6.787 7.553-3.03 3.175-6.875 4.534-10.943 5.578-3.452.844-4.94.994-5.297.531z"/></g><g fill="#dede4f"><path d="M554.735 317.508c-.16-.28.078-.634.643-.958 1.26-.724 4.027-2.591 5.063-3.417 1.965-1.569 4.917-5.015 7.217-8.427 3.754-5.569 8.427-10.627 12.065-13.06 2.466-1.649 5.676-3.056 7.529-3.3 3.276-.433 3.739-.436 5.745-.043 2.655.52 5.347 1.573 5.338 2.088-.007.434-.234.444-1.527.07-.928-.268-1.823-.37-3.524-.404-3.262-.063-5.264.45-8.984 2.302-2.948 1.468-4.286 2.45-8.5 6.244-4.518 3.545-6.972 8.956-10.681 13.24-1.71 1.84-5.794 4.445-8.34 5.32-1.593.547-1.899.599-2.044.345zM605.54 317.504c-.344-.272-.254-.38 1.474-1.769.408-.328 1.366-1.106 2.128-1.728 2.571-2.1 4.874-2.976 7.356-2.801 1.649.116 3.185.695 3.177 1.197-.004.238-.35.268-2.344.203-3.547-.118-5.167.502-8.435 3.225-.93.774-1.715 1.408-1.746 1.407-.03 0-.335.114-.676.255-.515.213-.674.215-.933.01zM581.823 317.36c.002-.146.499-.666 1.103-1.158.604-.49 1.646-1.345 2.315-1.897s2.352-2.373 3.74-4.045c5.153-6.208 8.81-8.638 13.845-9.196 1.439-.16 2.036-.146 3.292.074 2.119.37 4.714 1.508 4.945 2.167.14.398-.154.47-.967.238-2.505-.716-3.034-.792-5.327-.762-2.077.026-2.525.092-3.995.582-1.887.63-3.8 1.622-5.332 2.765-1.387 1.034-5.538 5.276-6.704 6.85-1.06 1.433-1.88 2.215-3.412 3.255-1.877 1.275-3.514 1.801-3.503 1.126z"/></g><g fill="#0e720e"><path d="M239.379 357.11c1.141 0 2.271-.078 3.39-.235 1.12-.158 2.004-.38 2.653-.669.29-.131.48-.262.57-.393.112-.157.213-.406.303-.747.09-.341.179-.787.268-1.337.09-.55.168-1.075.235-1.573.067-.524.123-1.01.168-1.455.045-.446.067-.734.067-.865 0-.393-.1-.59-.302-.59a.335.335 0 0 0-.302.157c-.045.105-.09.315-.134.63-.068.393-.213.838-.437 1.337a5.132 5.132 0 0 1-.705 1.258c-.649.865-1.443 1.455-2.383 1.77-.918.288-2.171.432-3.76.432-1.164 0-2.373-.302-3.626-.905-1.231-.603-2.373-1.494-3.425-2.673-1.052-1.18-1.902-2.648-2.551-4.405-.65-1.782-.974-3.787-.974-6.016 0-2.15.224-4.076.672-5.78.47-1.704 1.275-3.172 2.417-4.404a7.17 7.17 0 0 1 2.652-1.809c1.03-.42 2.25-.629 3.66-.629 1.499 0 2.864.236 4.095.708 1.254.445 2.16 1.022 2.72 1.73.402.498.716 1.075.94 1.73.223.63.346 1.258.369 1.887 0 .577.112.866.336.866.246 0 .38-.302.403-.905.022-.236.044-.904.067-2.005 0-1.023.01-1.77.033-2.242.023-.602.067-1.166.135-1.69.022-.236.033-.394.033-.472 0-.289-.168-.446-.504-.472a28.627 28.627 0 0 1-1.645-.315c-.76-.183-1.331-.301-1.712-.354a29.815 29.815 0 0 0-2.35-.275 23.418 23.418 0 0 0-2.518-.118c-2.394 0-4.442.354-6.143 1.062a12.778 12.778 0 0 0-4.465 3.106 12.408 12.408 0 0 0-1.914 2.674c-.515.944-.918 1.9-1.209 2.87-.29.97-.503 1.901-.638 2.793a19.06 19.06 0 0 0-.167 2.437c0 2.176.313 4.26.94 6.253.626 1.992 1.7 3.775 3.223 5.347 1.477 1.495 3.167 2.583 5.069 3.264 1.902.682 4.051 1.022 6.446 1.022M254.244 345.157c0 2.411-.011 4.26-.034 5.544a45.232 45.232 0 0 1-.134 3.028c-.112 1.18-.436 1.835-.974 1.966a4.781 4.781 0 0 1-1.208.157c-.358 0-.537.105-.537.315 0 .262.223.393.671.393.47 0 1.354-.026 2.652-.079.873-.026 1.4-.039 1.578-.039.314 0 .828.013 1.545.04 1.521.052 2.752.078 3.692.078.426 0 .638-.131.638-.393 0-.21-.179-.315-.537-.315-.268 0-.56-.013-.873-.04a14.365 14.365 0 0 0-.839-.117c-.47-.079-.795-.262-.974-.55-.179-.315-.302-.774-.369-1.377-.067-.76-.112-1.77-.134-3.028V338.236v-6.056c0-.865.022-1.625.067-2.28.045-.708.145-1.232.302-1.573.18-.34.492-.564.94-.669a5.44 5.44 0 0 1 1.007-.118c.358 0 .537-.13.537-.393 0-.21-.235-.314-.705-.314s-1.287.026-2.45.078c-.828.027-1.377.04-1.645.04-.336 0-.974-.013-1.914-.04a69.231 69.231 0 0 0-2.45-.078c-.538 0-.806.105-.806.314 0 .262.179.393.537.393.47 0 .873.053 1.208.158.694.183 1.075.917 1.142 2.202.044.655.067 1.415.067 2.28V345.156M273.856 345.157c0 2.333-.011 4.128-.034 5.387a44.65 44.65 0 0 1-.134 2.988c-.067.656-.168 1.167-.302 1.534-.135.34-.358.55-.672.629a4.781 4.781 0 0 1-1.208.157c-.358 0-.537.105-.537.315 0 .262.223.393.671.393.47 0 1.354-.026 2.652-.079.873-.026 1.399-.039 1.578-.039.313 0 .85.013 1.612.04 1.521.052 2.741.078 3.659.078.425 0 .638-.131.638-.393 0-.21-.18-.315-.537-.315-.269 0-.56-.013-.873-.04a14.364 14.364 0 0 0-.84-.117c-.47-.079-.794-.288-.973-.63-.157-.366-.269-.864-.336-1.493a46.936 46.936 0 0 1-.134-3.028 325.221 325.221 0 0 1-.034-5.387v-16.122l4.23.118c1.366.026 2.35.249 2.955.668.626.42.962.93 1.007 1.534l.033.432c.023.525.146.787.37.787.156 0 .257-.21.302-.63 0-.393.022-1.232.067-2.516.022-1.127.034-1.809.034-2.045 0-.55-.09-.826-.269-.826-.067 0-.246.04-.537.118l-.37.08h-.033c-.806.13-1.567.196-2.283.196h-13.294c-.56 0-1.142-.013-1.746-.04a66.82 66.82 0 0 1-1.612-.157c-.335-.026-.693-.144-1.074-.354-.179-.078-.302-.118-.37-.118-.178 0-.313.25-.402.747 0 .027-.045.25-.134.669-.068.393-.157.891-.269 1.494-.09.603-.168 1.114-.235 1.533-.045.42-.067.695-.067.826 0 .42.1.63.302.63.18 0 .302-.158.37-.472.089-.394.28-.852.57-1.377.246-.42.593-.694 1.04-.825.47-.158 1.21-.263 2.217-.315l5.002-.157v16.122M298.388 349.6c0 .577-.011 1.206-.034 1.887 0 .682-.022 1.364-.067 2.045-.044.603-.156 1.101-.335 1.494-.157.367-.392.59-.705.669a4.657 4.657 0 0 1-1.175.157c-.359 0-.538.105-.538.315 0 .262.247.393.739.393.448 0 1.276-.026 2.484-.079.873-.026 1.444-.039 1.712-.039.314 0 .84.013 1.578.04 1.5.052 2.686.078 3.559.078.47 0 .705-.131.705-.393 0-.21-.179-.315-.537-.315-.246 0-.526-.013-.84-.04a14.365 14.365 0 0 0-.839-.117c-.47-.079-.805-.302-1.007-.669s-.324-.865-.37-1.494a62.497 62.497 0 0 1-.1-2.045V346.376c0-.865.022-1.573.067-2.124.067-.576.213-1.18.437-1.809.156-.419.514-1.219 1.074-2.398.56-1.18 1.209-2.49 1.947-3.932a321.481 321.481 0 0 1 2.048-3.893c.627-1.154 1.074-1.914 1.343-2.28.403-.578.716-.997.94-1.26.246-.261.537-.484.873-.668a2.993 2.993 0 0 1 1.477-.472c.425 0 .638-.13.638-.393 0-.21-.202-.314-.604-.314-.18 0-.739.013-1.679.039a50.793 50.793 0 0 1-1.914.079c-.313 0-.805-.013-1.477-.04a24.471 24.471 0 0 0-1.678-.078c-.38 0-.571.118-.571.354 0 .104.045.183.134.236.112.052.269.104.47.157.269.078.448.21.537.393a.992.992 0 0 1 .168.59c0 .55-.156 1.232-.47 2.045-.09.262-.392.93-.906 2.005a710.68 710.68 0 0 0-1.645 3.46 377.232 377.232 0 0 1-1.679 3.54c-.47.995-.738 1.598-.806 1.808l-.671-1.376c-.425-.839-.828-1.639-1.209-2.399-.358-.76-.906-1.887-1.645-3.382a268.653 268.653 0 0 0-1.544-3.185 23.448 23.448 0 0 1-.638-1.415c-.268-.63-.403-1.075-.403-1.337 0-.393.157-.63.47-.708.045-.026.101-.04.168-.04.38-.13.57-.261.57-.392 0-.236-.167-.354-.503-.354-.649 0-1.466.026-2.45.078-.56.027-.94.04-1.142.04-.38 0-1.276-.027-2.686-.079a118.02 118.02 0 0 0-1.544-.04c-.425 0-.638.119-.638.355s.168.353.504.353c.201 0 .436.053.705.158.246.105.48.223.705.354.716.498 1.488 1.455 2.316 2.87.313.524.761 1.35 1.343 2.477a221.651 221.651 0 0 1 1.914 3.657c.693 1.311 1.298 2.465 1.813 3.46.514.997.794 1.574.839 1.73.268.735.459 1.377.57 1.928.135.524.202 1.258.202 2.202v3.224M336.834 326.282c-2.395 0-4.487.457-6.277 1.375-1.768.917-3.213 2.149-4.332 3.695a16.09 16.09 0 0 0-2.484 4.994 19.206 19.206 0 0 0-.769 5.35c0 1.835.254 3.659.769 5.467a16.515 16.515 0 0 0 2.453 4.994c1.12 1.494 2.538 2.697 4.261 3.615 1.724.89 3.742 1.338 6.048 1.338 2.081 0 3.983-.404 5.706-1.216a12.575 12.575 0 0 0 4.398-3.421c1.231-1.494 2.171-3.212 2.82-5.152.65-1.966.973-4.078.973-6.332 0-2.229-.315-4.25-.942-6.058-.627-1.835-1.532-3.394-2.718-4.678-1.164-1.285-2.588-2.266-4.266-2.948-1.679-.681-3.559-1.023-5.64-1.023zm-.973 1.889c1.366 0 2.642.327 3.828.982 1.209.656 2.261 1.613 3.156 2.871.896 1.232 1.59 2.738 2.083 4.52.514 1.757.773 3.725.773 5.9 0 2.648-.28 4.837-.84 6.567-.537 1.73-1.223 3.039-2.051 3.93-.828.865-1.664 1.457-2.515 1.772-.828.288-1.621.432-2.382.432-1.567 0-3.004-.365-4.302-1.1-1.275-.76-2.357-1.808-3.253-3.145-.895-1.337-1.581-2.9-2.051-4.683-.47-1.783-.703-3.693-.703-5.737 0-2.333.233-4.301.703-5.9.47-1.626 1.1-2.896 1.883-3.813.806-.944 1.69-1.613 2.653-2.006a7.9 7.9 0 0 1 3.018-.59zM361.678 341.972c0-.236.079-.354.235-.354h2.384c.582.026 1.108.052 1.578.078.492 0 .828.014 1.007.04.47.078.85.262 1.141.55.291.262.482.55.571.865.134.472.202.878.202 1.22 0 .366.09.55.268.55.157 0 .246-.066.269-.197.044-.131.067-.314.067-.55 0-.236.011-.695.033-1.377.045-.681.079-1.18.101-1.494.045-.446.112-1.035.202-1.77.044-.366.067-.59.067-.668 0-.236-.067-.354-.202-.354-.112 0-.235.092-.369.276l-.067.117c-.291.42-.772.656-1.444.708-.313.027-.817.04-1.51.04l-4.298.039c-.156 0-.235-.118-.235-.354v-9.83c0-.367.101-.55.302-.55l5.17.117c.582.026 1.064.157 1.444.393.38.21.638.472.772.787.09.236.146.485.168.747.023.236.034.485.034.747.044.42.156.63.336.63.178 0 .29-.184.335-.551a8.78 8.78 0 0 0 .067-.787c.023-.42.045-.865.068-1.337.022-.603.033-.957.033-1.061.045-.394.112-.826.202-1.298.044-.236.067-.393.067-.472 0-.236-.079-.354-.235-.354-.068 0-.168.04-.303.118-.111.053-.19.092-.234.118-.18.052-.527.092-1.041.118-.067.026-.18.04-.336.04-.515.026-3.47.039-8.863.039-.224 0-.806-.013-1.746-.04a95.898 95.898 0 0 0-3.088-.078c-.515 0-.773.13-.773.393 0 .21.19.314.571.314.604 0 1.04.04 1.31.118.537.132.895.367 1.074.708.201.315.324.826.37 1.534.044.655.066 1.415.066 2.28V345.156c0 2.386-.011 4.195-.033 5.427a44.147 44.147 0 0 1-.135 2.95c-.09.68-.201 1.192-.335 1.533-.112.34-.325.55-.638.629a4.781 4.781 0 0 1-1.209.157c-.336 0-.503.105-.503.315 0 .262.235.393.705.393.447 0 1.287-.026 2.518-.079a72.44 72.44 0 0 1 1.745-.039c.291 0 .795.013 1.511.04 1.5.052 2.697.078 3.592.078.493 0 .739-.131.739-.393 0-.21-.19-.315-.57-.315-.247 0-.527-.013-.84-.04a14.37 14.37 0 0 0-.84-.117c-.47-.079-.794-.288-.973-.63-.157-.366-.269-.877-.336-1.533a44.147 44.147 0 0 1-.134-2.949c-.022-1.232-.034-3.04-.034-5.426v-3.185M385.73 352.628c-.112.865-.269 1.573-.47 2.123-.18.55-.482.878-.907.983a4.402 4.402 0 0 1-1.007.118c-.358 0-.537.092-.537.275 0 .289.201.433.604.433.358 0 1.04-.026 2.048-.079.694-.026 1.12-.039 1.276-.039.201 0 .56.013 1.074.04a52.71 52.71 0 0 0 2.45.078c.538 0 .807-.144.807-.433 0-.183-.168-.275-.504-.275-.425 0-.895-.065-1.41-.196-.313-.08-.56-.223-.739-.433-.179-.21-.268-.485-.268-.826 0-.524.033-1.14.1-1.848l1.746-15.65h.135l.604 1.494c.202.498.537 1.337 1.007 2.517.18.42.504 1.232.974 2.438.47 1.18.772 1.94.906 2.28.09.263.302.8.638 1.613.358.786.76 1.704 1.209 2.752a1123.45 1123.45 0 0 0 2.014 4.562l.1.235c.538 1.154.896 1.73 1.075 1.73.157 0 .302-.13.436-.393.135-.262.403-.865.806-1.808l7.319-17.852h.134l2.014 17.301c.045.315.068.603.068.865 0 .498-.079.774-.235.826-.247.131-.37.275-.37.433 0 .13.067.222.202.275.134.052.391.105.772.157.358.026.794.052 1.31.079.514.026 1.275.052 2.282.078 1.656.053 2.73.079 3.223.079.582 0 .873-.144.873-.433 0-.183-.18-.275-.537-.275a6.039 6.039 0 0 1-2.082-.393c-.492-.184-.85-.564-1.074-1.14-.224-.577-.414-1.52-.57-2.832l-3.056-24.3c-.09-.813-.29-1.22-.604-1.22-.246 0-.493.315-.739.944l-9.131 22.453-9.166-22.177c-.201-.472-.369-.787-.503-.944-.134-.184-.269-.275-.403-.275-.269 0-.459.34-.57 1.022l-3.324 25.638M432.835 326.282c-2.395 0-4.486.457-6.277 1.375-1.768.917-3.213 2.149-4.332 3.695a16.09 16.09 0 0 0-2.484 4.994 19.21 19.21 0 0 0-.774 5.35c0 1.835.26 3.659.774 5.467a16.5 16.5 0 0 0 2.448 4.994c1.12 1.494 2.543 2.697 4.266 3.615 1.724.89 3.737 1.338 6.043 1.338 2.081 0 3.983-.404 5.706-1.216a12.575 12.575 0 0 0 4.398-3.421c1.231-1.494 2.172-3.212 2.82-5.152.65-1.966.973-4.078.973-6.332 0-2.229-.31-4.25-.937-6.058-.626-1.835-1.532-3.394-2.718-4.678-1.164-1.285-2.587-2.266-4.266-2.948-1.679-.681-3.559-1.023-5.64-1.023zm-.973 1.889c1.366 0 2.642.327 3.829.982 1.208.656 2.26 1.613 3.156 2.871.895 1.232 1.584 2.738 2.077 4.52.514 1.757.773 3.725.773 5.9 0 2.648-.28 4.837-.84 6.567-.537 1.73-1.218 3.039-2.046 3.93-.828.865-1.67 1.457-2.52 1.772-.828.288-1.621.432-2.382.432-1.567 0-2.999-.365-4.297-1.1-1.275-.76-2.362-1.808-3.258-3.145-.895-1.337-1.576-2.9-2.046-4.683-.47-1.783-.707-3.693-.707-5.737 0-2.333.237-4.301.707-5.9.47-1.626 1.095-2.896 1.878-3.813.806-.944 1.69-1.613 2.653-2.006a7.925 7.925 0 0 1 3.023-.59zM450.794 326.832c-.492 0-.738.12-.738.356s.19.351.57.351c.604 0 1.04.039 1.308.118.538.13.895.366 1.074.707.202.315.327.83.372 1.537.045.656.066 1.416.066 2.281V345.158c0 2.333-.008 4.127-.03 5.386a44.322 44.322 0 0 1-.138 2.988c-.09.681-.201 1.191-.336 1.532-.112.34-.323.552-.636.631a4.766 4.766 0 0 1-1.206.158c-.359 0-.54.106-.54.316 0 .262.224.391.672.392.604 0 1.51-.03 2.718-.082.739-.026 1.2-.036 1.38-.036.156 0 .514.01 1.074.036 1.141.026 1.956.04 2.448.04.493.027.963.041 1.41.042.448 0 .672-.13.672-.392 0-.21-.133-.316-.402-.316-.224 0-.496-.015-.81-.04-.29-.053-.565-.092-.834-.118-.47-.079-.798-.29-.977-.631-.157-.367-.27-.877-.336-1.532-.067-.76-.11-1.77-.133-3.03a320.539 320.539 0 0 1-.035-5.385v-.55c0-.21.09-.315.27-.315l2.921.081c.269 0 .472.091.606.275.112.157.246.378.402.667.18.262.58.902 1.207 1.924.694 1.18 1.268 2.128 1.715 2.835 1.052 1.704 1.91 2.989 2.581 3.854.672.865 1.345 1.505 2.016 1.924a4.21 4.21 0 0 0 1.41.59c.515.106 1.244.158 2.184.159h3.187c.425 0 .641-.13.641-.392 0-.21-.139-.316-.407-.316-.246 0-.556-.038-.937-.117h-.035c-.493-.105-1.04-.331-1.645-.672-.582-.367-1.276-1.036-2.082-2.006-1.141-1.415-3.176-4.282-6.108-8.608l-1.176-1.73c1.634-1.547 2.777-3.015 3.426-4.404a9.992 9.992 0 0 0 1.008-4.403c0-1.206-.251-2.298-.744-3.268-.47-.97-.983-1.677-1.542-2.123a6.917 6.917 0 0 0-2.785-1.334c-1.007-.236-2.137-.356-3.39-.356-.313 0-1.064.014-2.25.04a73.212 73.212 0 0 1-2.484.077c-.112 0-.56-.01-1.344-.036a72.9 72.9 0 0 0-1.95-.04c-.403-.027-.838-.041-1.308-.041zm8.695 1.848c.537 0 1.098.12 1.68.356.604.236 1.165.64 1.68 1.217.537.55.959 1.296 1.272 2.24.336.943.504 2.074.504 3.385 0 1.494-.19 2.726-.57 3.695-.358.97-.828 1.702-1.41 2.2-.314.262-.623.45-.937.554-.313.08-.796.118-1.446.118a12.4 12.4 0 0 1-1.374-.082 6.214 6.214 0 0 1-1.176-.31c-.201-.105-.305-.346-.305-.713v-11.953c0-.288.104-.47.305-.55.291-.104.881-.157 1.777-.157zM499.005 349.6c0-2.36.01-3.932.033-4.719.022-.707.123-1.232.302-1.572.202-.341.526-.564.974-.669.403-.079.705-.118.906-.118.291 0 .437-.105.437-.314 0-.263-.224-.394-.672-.394-.447 0-1.119.013-2.014.04a50.62 50.62 0 0 1-1.914.078c-.223 0-.828-.013-1.812-.04a95.938 95.938 0 0 0-3.056-.078c-.47 0-.705.131-.705.394 0 .21.168.314.504.314.604 0 1.04.04 1.31.118.536.131.906.367 1.107.708.202.34.314.852.336 1.533.022.787.033 2.333.033 4.64v3.697c0 .734-.212 1.219-.637 1.455a3.572 3.572 0 0 1-1.243.353 14.12 14.12 0 0 1-1.611.08c-1.746 0-3.346-.368-4.8-1.102-1.433-.734-2.664-1.77-3.694-3.106s-1.824-2.91-2.383-4.719c-.538-1.809-.806-3.762-.806-5.859 0-2.333.268-4.273.806-5.82.537-1.572 1.298-2.844 2.283-3.814 1.051-1.022 2.115-1.677 3.189-1.966a12.254 12.254 0 0 1 3.458-.472c1.723 0 3.245.328 4.566.983 1.343.63 2.316 1.324 2.92 2.084.38.472.65.983.806 1.534.157.524.269 1.1.336 1.73.045.34.156.511.336.511.246 0 .369-.275.369-.826 0-1.677.022-2.949.067-3.814.045-.891.09-1.625.134-2.202.023-.21.034-.354.034-.432 0-.289-.157-.446-.47-.472a15.96 15.96 0 0 1-1.242-.157c-.493-.079-.963-.17-1.41-.276a6.383 6.383 0 0 0-.873-.157 23.801 23.801 0 0 0-1.545-.236 22.826 22.826 0 0 0-1.812-.157 19.095 19.095 0 0 0-1.713-.079c-1.7 0-3.267.17-4.7.511-1.432.341-2.876 1.023-4.33 2.045-1.68 1.18-3.078 2.884-4.197 5.112-1.097 2.228-1.645 4.81-1.645 7.746 0 2.622.403 4.916 1.209 6.882.828 1.966 1.958 3.578 3.39 4.836a13.888 13.888 0 0 0 4.935 2.792c1.858.603 3.85.904 5.976.904a22.57 22.57 0 0 0 4.398-.432c1.455-.288 2.686-.734 3.693-1.337.202-.131.325-.262.37-.393.044-.158.067-.498.067-1.023V349.6M514.405 325.966c-.156 0-.303.12-.438.357-.134.21-.302.614-.503 1.216l-8.425 24.695c-.38 1.127-.773 1.978-1.176 2.555-.403.55-.964.878-1.68.983a7.159 7.159 0 0 1-1.039.081c-.268 0-.402.106-.402.316 0 .262.211.391.637.392.582 0 1.177-.015 1.781-.041a37.52 37.52 0 0 1 1.44-.04c.426-.027.672-.037.74-.037.29 0 .872.024 1.745.077.783.026 1.387.04 1.812.04.38 0 .57-.13.57-.391 0-.21-.168-.316-.503-.316h-.5c-.492 0-.842-.106-1.043-.316-.201-.21-.3-.513-.3-.906 0-.629.168-1.427.504-2.397l1.812-5.62c.067-.21.166-.316.3-.316h7.488c.157 0 .27.091.336.275l2.683 8.333c.045.105.071.21.071.316 0 .314-.125.512-.371.59-.314.026-.469.147-.469.357 0 .157.289.258.87.31h.138c1.32.052 2.45.081 3.39.082h2.953c.627 0 1.04-.03 1.242-.082.202-.052.3-.153.3-.31 0-.21-.141-.316-.432-.316-.493 0-.963-.053-1.41-.158-.47-.13-.94-.487-1.41-1.064-.47-.576-.988-1.65-1.548-3.222-.425-1.18-.826-2.32-1.206-3.42a99.392 99.392 0 0 0-.906-2.597c-.202-.63-1.267-3.747-3.192-9.356-.828-2.438-1.496-4.42-2.01-5.941-.516-1.52-.852-2.478-1.009-2.871-.313-.839-.594-1.257-.84-1.258zm-.84 8.064c.067 0 .124.106.168.315v.036l3.024 9.713c0 .157-.056.24-.168.24h-6.18c-.09 0-.132-.097-.132-.28l3.085-9.673c.044-.236.114-.351.203-.351zM534.26 334.697h.1c.023.026.27.34.74.944.156.21.57.747 1.241 1.612.694.865 1.332 1.665 1.914 2.399.604.734 1.265 1.546 1.98 2.438.717.89 1.422 1.73 2.116 2.516.806.918 2.294 2.66 4.465 5.23a434.8 434.8 0 0 1 3.223 3.814c.962 1.101 1.7 1.94 2.216 2.517.246.288.458.498.638.629.179.157.346.236.503.236.291 0 .436-.407.437-1.22l.369-24.811c.022-1.101.112-1.888.268-2.36.18-.498.504-.825.974-.983.269-.078.604-.118 1.007-.118.403 0 .604-.117.604-.353 0-.131-.067-.223-.201-.276-.112-.052-.302-.078-.57-.078-.74 0-1.635.026-2.686.078-.336.027-.538.04-.605.04-.224 0-.615-.013-1.175-.04a68.193 68.193 0 0 0-2.887-.078c-.291 0-.515.026-.671.078-.135.053-.202.145-.202.276 0 .236.18.353.537.353.38 0 .716.014 1.007.04.314.026.571.092.773.196.402.21.682.564.839 1.062.179.472.28 1.298.302 2.477l.336 17.656h-.168l-.739-.865-1.678-2.084a312.535 312.535 0 0 0-3.324-4.011 71.737 71.737 0 0 0-1.645-2.006 305.013 305.013 0 0 1-3.626-4.246 644.56 644.56 0 0 1-3.156-3.854 167.221 167.221 0 0 0-2.45-3.028 339.78 339.78 0 0 0-1.175-1.494 5.734 5.734 0 0 1-.302-.393c-.426-.55-.739-.826-.94-.826-.291 0-.437.446-.437 1.337l-.302 23.279c-.022 1.782-.1 3.001-.235 3.657-.112.655-.38 1.061-.806 1.219-.38.13-.884.196-1.51.196-.359 0-.538.105-.538.315 0 .262.247.393.739.393.537 0 1.097-.013 1.678-.04.605-.026 1.064-.039 1.377-.039.29-.026.481-.039.57-.039.202 0 .515.013.94.04 1.21.052 2.284.078 3.224.078.514 0 .772-.131.772-.393 0-.21-.19-.315-.57-.315-.717 0-1.3-.092-1.747-.275-.358-.157-.638-.564-.839-1.219-.201-.655-.313-1.704-.336-3.146l-.369-16.515M578.167 339.337c-.134 0-.201-.092-.201-.275v-6.882c0-.865.022-1.625.067-2.28.045-.708.145-1.232.302-1.573.179-.34.492-.564.94-.669.403-.078.727-.118.974-.118.402 0 .604-.117.604-.353s-.235-.354-.705-.354c-.425 0-1.287.026-2.585.078-.918.027-1.466.04-1.645.04-.269 0-.817-.013-1.645-.04a88.592 88.592 0 0 0-3.19-.078c-.47 0-.705.118-.705.354s.19.353.571.353c.604 0 1.04.04 1.31.118.537.132.895.367 1.074.708.201.315.324.826.369 1.534.045.655.067 1.415.067 2.28V345.156c0 2.334-.011 4.13-.033 5.388a44.65 44.65 0 0 1-.135 2.988c-.09.682-.201 1.193-.335 1.534-.112.34-.325.55-.638.629a4.781 4.781 0 0 1-1.209.157c-.358 0-.537.105-.537.315 0 .262.224.393.671.393.47 0 1.354-.026 2.653-.079.873-.026 1.398-.039 1.578-.039.313 0 .85.013 1.611.04 1.522.052 2.73.078 3.626.078.447 0 .671-.131.671-.393 0-.21-.179-.315-.537-.315-.269 0-.56-.013-.873-.04a14.37 14.37 0 0 0-.84-.117c-.47-.079-.794-.288-.973-.63-.156-.366-.268-.864-.335-1.493a46.936 46.936 0 0 1-.135-3.028 325.221 325.221 0 0 1-.033-5.387v-3.46c0-.158.067-.237.201-.237h12.825c.134 0 .201.08.201.236v3.46c0 2.334-.011 4.13-.033 5.388a44.707 44.707 0 0 1-.135 2.988c-.09.682-.201 1.193-.335 1.534-.112.34-.325.55-.638.629a4.782 4.782 0 0 1-1.209.157c-.358 0-.537.105-.537.315 0 .262.235.393.705.393.448 0 1.32-.026 2.619-.079.872-.026 1.398-.039 1.577-.039.314 0 .85.013 1.612.04 1.522.052 2.73.078 3.626.078.447 0 .671-.131.671-.393 0-.21-.179-.315-.537-.315-.269 0-.56-.013-.873-.04a14.376 14.376 0 0 0-.84-.117c-.47-.079-.794-.288-.973-.63-.156-.366-.268-.864-.336-1.493a46.865 46.865 0 0 1-.134-3.028 324.494 324.494 0 0 1-.033-5.387v-6.921-6.056c0-.865.022-1.625.067-2.28.044-.708.145-1.232.302-1.573.179-.34.492-.564.94-.669.403-.078.727-.118.974-.118.402 0 .604-.117.604-.353s-.235-.354-.705-.354c-.425 0-1.287.026-2.585.078-.918.027-1.466.04-1.645.04-.269 0-.817-.013-1.645-.04a88.597 88.597 0 0 0-3.19-.078c-.47 0-.705.118-.705.354s.19.353.571.353c.604 0 1.04.04 1.31.118.536.132.895.367 1.074.708.201.315.324.826.369 1.534.045.655.067 1.415.067 2.28v6.882c0 .183-.067.275-.201.275h-12.825M606.423 345.157c0 2.411-.01 4.26-.033 5.544a45.157 45.157 0 0 1-.135 3.028c-.111 1.18-.436 1.835-.973 1.966a4.781 4.781 0 0 1-1.209.157c-.358 0-.537.105-.537.315 0 .262.224.393.672.393.47 0 1.354-.026 2.652-.079.873-.026 1.399-.039 1.578-.039.313 0 .828.013 1.544.04 1.522.052 2.753.078 3.693.078.425 0 .638-.131.638-.393 0-.21-.18-.315-.537-.315-.269 0-.56-.013-.873-.04a14.365 14.365 0 0 0-.84-.117c-.47-.079-.794-.262-.973-.55-.18-.315-.302-.774-.37-1.377-.067-.76-.111-1.77-.134-3.028V332.18c0-.865.023-1.625.067-2.28.045-.708.146-1.232.303-1.573.179-.34.492-.564.94-.669a5.441 5.441 0 0 1 1.007-.118c.358 0 .537-.13.537-.393 0-.21-.235-.314-.705-.314s-1.287.026-2.45.078c-.829.027-1.377.04-1.646.04-.336 0-.974-.013-1.914-.04a69.23 69.23 0 0 0-2.45-.078c-.537 0-.806.105-.806.314 0 .262.179.393.537.393.47 0 .873.053 1.209.158.694.183 1.074.917 1.141 2.202.045.655.067 1.415.067 2.28V345.156M625.767 338.236v-6.056c0-.865.022-1.625.067-2.28.045-.708.145-1.232.302-1.573.179-.34.492-.564.94-.669.403-.078.84-.118 1.31-.118.402 0 .604-.117.604-.353s-.235-.354-.705-.354c-.426 0-1.355.026-2.787.078-1.007.027-1.6.04-1.78.04-.2 0-.771-.013-1.711-.04a90.398 90.398 0 0 0-2.888-.078c-.492 0-.738.118-.738.354s.19.353.57.353c.47 0 .84.04 1.108.118.538.132.896.367 1.075.708.201.315.324.826.369 1.534.045.655.067 1.415.067 2.28V345.156c0 2.334-.011 4.13-.033 5.388a44.65 44.65 0 0 1-.135 2.988c-.09.682-.201 1.193-.335 1.534-.112.34-.325.55-.638.629a4.781 4.781 0 0 1-1.209.157c-.358 0-.537.105-.537.315 0 .262.224.393.671.393.47 0 1.354-.026 2.653-.079.872-.026 1.398-.039 1.577-.039.806 0 1.959.026 3.458.079 1.209.052 2.26.091 3.156.118.895.026 1.947.039 3.156.039.85 0 1.388-.066 1.611-.197.224-.13.392-.42.504-.865.067-.262.123-.603.168-1.022.067-.446.123-.944.168-1.494.067-.55.112-.983.134-1.298.022-.34.034-.577.034-.708 0-.445-.09-.668-.269-.668-.201 0-.325.196-.37.59a4.399 4.399 0 0 1-.301 1.297c-.18.446-.37.8-.571 1.062-.38.472-.862.773-1.444.904s-1.41.197-2.484.197c-1.253 0-2.171-.066-2.753-.197-.56-.13-.996-.354-1.31-.668-.313-.315-.514-1.062-.604-2.241-.067-1.18-.1-3.251-.1-6.213v-6.921M646.093 338.236v-6.056c0-.865.023-1.625.068-2.28.044-.708.145-1.232.302-1.573.179-.34.492-.564.94-.669.403-.078.84-.118 1.31-.118.402 0 .603-.117.603-.353s-.235-.354-.705-.354c-.425 0-1.354.026-2.786.078-1.007.027-1.6.04-1.78.04-.2 0-.772-.013-1.712-.04a90.406 90.406 0 0 0-2.887-.078c-.492 0-.738.118-.738.354s.19.353.57.353c.47 0 .84.04 1.108.118.537.132.895.367 1.075.708.2.315.324.826.369 1.534.045.655.067 1.415.067 2.28V345.156c0 2.334-.011 4.13-.034 5.388a44.65 44.65 0 0 1-.134 2.988c-.09.682-.201 1.193-.336 1.534-.112.34-.324.55-.637.629a4.782 4.782 0 0 1-1.21.157c-.357 0-.536.105-.536.315 0 .262.224.393.671.393.47 0 1.354-.026 2.652-.079.873-.026 1.4-.039 1.578-.039.806 0 1.959.026 3.458.079 1.209.052 2.26.091 3.156.118.895.026 1.947.039 3.156.039.85 0 1.387-.066 1.611-.197.224-.13.392-.42.504-.865.067-.262.123-.603.168-1.022.067-.446.123-.944.168-1.494.067-.55.111-.983.134-1.298.022-.34.033-.577.033-.708 0-.445-.09-.668-.268-.668-.202 0-.325.196-.37.59a4.4 4.4 0 0 1-.302 1.297c-.179.446-.369.8-.57 1.062-.38.472-.862.773-1.444.904s-1.41.197-2.484.197c-1.254 0-2.171-.066-2.753-.197-.56-.13-.996-.354-1.31-.668-.313-.315-.514-1.062-.604-2.241-.067-1.18-.1-3.251-.1-6.213v-6.921"/></g></svg>