<svg xmlns="http://www.w3.org/2000/svg" width="800" height="533.33" version="1" xmlns:cgf="https://coding.garden/flags"><metadata id="cgf-metadata">

<cgf:flag>
  <cgf:name>Oakland</cgf:name>
  <cgf:route>us/ca/oakland</cgf:route>
  <cgf:aspect-ratio>1.5009380863039399</cgf:aspect-ratio>
</cgf:flag>

</metadata><path d="M0-.002h800V533.33H0V-.002z" fill="#f5dc0f"></path><path d="M399 157.75a8.595 8.595 0 0 0-3.094.563l-11.812 4.5c-2.635 1.001-4.37 3.694-3.5 8l1.125 5.468c.688 3.402-4.159 2.442-4.844.844l-2.969-6.906c-.86-2.008-1.722-4.691-7.844-.469-10.072 6.947-11.696 13.48-15.25 20.656-3.395 6.855-6.349 5.57-8.125 4.594-4.045-2.225-1.698-7.167-3.5-10.688-3.048-5.958-6.97-1.829-10.437 1.875-7.764 8.297-10.046 15.917-14.125 25.875-2.077 5.07-6.543 5.267-8.313 2.407-2.417-3.908-1.422-9.167-1.156-13.781.19-3.269-2.016-2.696-3.344-2.72-5.482-.095-14.503 6.285-13.593 25.22-4.274 3.426-5.312 6.92-4.5 14.937.3 2.961.25 7.225-3.656 8.188l-12 2.968c-6.636 1.635-9.24 12.54-4.875 13.719l6.437 1.75c6.653 1.798 2.963 12.441-2.625 12.188l-7.656-.344c-7.327-.333-8.035 4.501-5.719 10.781.846 2.295 2.64 3.38-.188 5.563-2.656 2.05-1.709 6.042-.156 7.125 3.687 2.569 4.975 4.985.844 9.562-2.995 3.319-8.477 6.583-13.375 10.625-1.99 1.642-3.53 8.078 2.438 7.813l7.812-.344c4.122-.183 3.993 5.012-.875 5.75l-11.469 1.719c-4.434.671-5.031 3.005-5.031 5.218v9.75c0 3.12 2.612 4.122 4.906 3.75l8.563-1.406c13.525-2.19 20.582-13.44 34.562-15.625 8.567-1.525 18.48.098 25.906-4.219 4.197-3.379 7.597-8.337 14.688-8.937 7.345-1.073 16.183-.448 21.813-4.781 8.286-7.137 18.843-8.598 30.75-8.563 8.83.026 9.79 6.355 9.187 13.594-.974 11.672-.302 21.502-.969 34.469-.408 7.932-10.354 12.982-16.812 16.093-2.861 1.379-8.779 1.624-12 2.125-15.807 4.082-32.284 3.703-48.313 5.844-11.65 1.965-29.653-.325-39.594 6.625-3.995 2.793-1.39 7.125 5.907 7.125h245.625c6.07 0 6.7-2.798 5.312-5.5-1.761-2.987-5.812-3.473-9.156-3.906-7.194-.15-14.984-.476-21-4.656-6.336-3.134-13.715-1.525-20.469-2.907-8.884-2.742-22.772-3.17-27.219-3.156-4.446.014-10.625-1.719-10.625-1.719-9.222-1.485-12.991-5.098-13.78-10.312-.428-2.82-.842-9.73-2.22-11.563.139-10.578.167-21.153-.5-31.75-.342-5.442-1.603-8.167 5.032-11.531 2.107-1.069 18.85-3.337 32.187 3.875 8.41 4.548 15.48 8.522 21.719 5.938 2.34-.97 4.752 2.278 6.813 4.843 8.733 10.876 22.994 19.227 26.75 12.906 3.636-6.12 20.14-5.142 25.75 5.032 2.24 4.062 11.239 10.478 14.125.156l4.5-16.188c2.243-8.025-.72-14.34-6.094-13.562-9.364.883-3.161-6.984 1.75-9.75 1.622-1.54 2.177-4.413 1.562-7.469-.895-4.45-1.273-8.851-.343-13.219 2.464-11.583-2.592-11.787-6.25-14.28-3.224-2.198-8.445-3.924-10.625-6.594-3.655-4.477-7.579-6.795-14.094-5.563-2.861.541-5.73-2.047-4.344-5.063l2.969-6.437c.947-2.667 1.957-5.414.875-8-2.285-5.46-7.632-10.044-27.657-10.094-3.644-.009-4.55-5.455-2.28-7.312l7.656-6.25c2.053-1.68 3.135-4.475-1.032-8l-9.062-7.656c-2.527-2.138-5.552-1.858-7.313.687l-4.844 7.063c-1.584 2.289-4.682 2.303-7.312.593l-6.969-4.5c-3.262-2.12-1.293-4.789 0-6.281l4.531-5.219c1.982-2.286 2.119-5.335-1.062-7.312l-12.844-8c-2.49-1.548-6.54-1.9-8.719 2.094l-4.156 7.656c-1.311 2.404-4.449 2.86-6.969 2.094l-8-2.438c-2.71-.825-2.782-3.562-2.437-5.563l1.75-10.093c.524-3.037-2.716-4.314-4.875-4.875l-14.625-3.813c-1.906-.496-3.57-.913-5.25-.906zm-21.969 44.875c1.852.038 3.734.889 5.313 2.875 4.434 8.414-8.907 9.418-12.469 14.75-3.133 10.182-15.528-3.354-5.313-4.75 1.604-1.144 2.554-2.932 3.344-4.688 1.003-4.401 5.05-8.27 9.125-8.187zM446 208.656c.83-.054 1.587.408 2.156 1.75 1.794 4.745-1.817 9.492-.937 14.313.069 2.882 1.467 8.746-3.75 7.594-4.169.23-7.254-2.302-10.219-4.625-1.426-.87-4.054-1.888-3.594-3.438 1.461-4.918 7.81-7.39 11.188-11.563 1.186-1.292 3.33-3.91 5.156-4.03zm-51.313 20.313c2.041-.149 4.152 1.344 3.875 3.594.166 2.15-.258 4.823-2.5 5.75-1.744.795-3.715.223-5.562.437-1.406.054-2.811.194-4.156.625-1.962-1.07.555-2.844 1.344-3.719 1.703-2.414 2.951-5.71 6.125-6.5.28-.09.583-.166.875-.187zm-97.843 15.187c.203.005.401.012.594.031 1.192.12 2.406.282 3.562.594 1.191.387 1.484 1.764 1.406 2.875-.039 1.268-.278 2.558 0 3.813.165 1.067-.585 2.175-1.719 2.187-1.398.186-2.833-.236-4.218.094-2.41 1.801-2.644 5.32-5.156 7.031-2.121 1.386-5.043.88-7-.562-1.595-1.115-2.5-3.23-1.875-5.125.138-1.02.857-2.076 1.937-2.219 3.941-.489 7.363-3.335 8.875-7.031.545-1.333 2.17-1.718 3.594-1.688zM449 249.906c1.89.098 3.842.819 5.719.938 3.635.23 1.175 5.101.812 7.406-.903 2.18-2.061 7.81-5.875 5.625-1.847-1.952-2.349-4.61-3.562-6.906-.546-1.95-1.99-4.494-.375-6.313 1.046-.653 2.147-.808 3.281-.75zm43.688 6.844c1.56-.2 3.05 1.578 2.5 3.094-.294 2.551-2.133 4.553-4 6.156-.806 1.266.09 3.017 1.406 3.5 1.318.871 2.255 2.81 1.281 4.25-1.115 1.789-3.438 2.122-5.375 2.031-3.894.171-8.037-.116-11.406-2.281-1.211-.749-2.466-1.576-3.25-2.781-.366-1.336.892-2.401 2-2.844 1.552-.898 2.924-2.091 4.406-3.094 3.862-2.92 7.882-5.63 12.125-7.969.104-.031.208-.049.313-.062zm-62.5 17.688c3.076-.062 5.903 1.907 7.656 4.343 2.07 1.985 2.993 4.999 2.562 7.813.168 2.172-1.449 4.016-3.312 4.906-1.359.636-2.853 1.232-4.375 1.094-3.738-.228-7.632.808-10.813 2.594-.837.47-2.004-.593-2.687-1.375-1.413-1.664-1.178-4.047-.75-6.032.596-1.873.907-3.823 1.281-5.75.372-1.984 1.194-3.919 2.625-5.375 1.837-1.94 4.663-2.228 7.188-2.187.207-.023.42-.027.625-.031zM376.156 279c3.762-.028 7.519 1.857 9.844 4.813 1.986 2.223 2.391 5.329 2.531 8.187.333 1.658.054 3.69-1.437 4.719-1.798.711-3.817.67-5.719.469-1.856-.234-2.67-2.169-4-3.22-2.285-1.62-5.227-1.206-7.844-.937-1.385.162-3.143.308-4.094-.937-.938-1.899-.206-4.03.188-5.969.966-3.153 3.849-5.299 6.813-6.438a10.462 10.462 0 0 1 3.718-.687zm-56.437 5.719a4.541 4.541 0 0 1 1.719.281c1.06.596 1.461 1.88 1.406 3.031-.04 1.32-.378 2.609-.594 3.906-.307 1.373-1.534 2.296-2.844 2.625-1.044.295-2.139.372-3.219.375-1.323.652-2.907 1.018-4.343.532-.736-.262-1.365-.936-1.438-1.719.014-.086.049-.195.063-.281 1.134-2.437 3.47-3.984 4.812-6.281.995-1.422 2.701-2.411 4.438-2.47zm158.406 2.344c.333-.02.65.016.969.125 4.914 1.873 10.335 1.566 15.344 3.062 1.254.634 1.603 2.325 1.125 3.563-.217 1.98-2.37 3.474-4.313 2.968-1.62-.124-3.503-.045-4.625 1.313-1.312 1.293-2.514 3.06-4.5 3.281-2.374.107-4.273-2.567-3.469-4.781.2-1.74-1.135-3.335-2.687-3.938-1.93-1.392-1.14-4.928 1.187-5.406.315-.102.636-.168.969-.188z" fill="#005e00" fill-rule="evenodd"></path><path style="text-align:center;line-height:125%;-inkscape-font-specification:Futura Md BT Bold" d="M317.335 463.995v-43.907l11.021.003v43.904h-11.021zm47.374-27.281c1.615 0 2.897-.454 3.846-1.363.949-.908 1.423-2.15 1.423-3.724 0-1.574-.464-2.806-1.393-3.694-.928-.888-2.22-1.332-3.876-1.332-1.615 0-2.886.449-3.815 1.347-.928.899-1.393 2.125-1.393 3.68 0 1.554.47 2.79 1.408 3.708.939.919 2.206 1.378 3.8 1.378zm0 19.59c1.898 0 3.397-.524 4.497-1.574s1.65-2.493 1.65-4.33c0-1.796-.55-3.214-1.65-4.254-1.1-1.04-2.6-1.56-4.497-1.56-1.877 0-3.36.52-4.45 1.56-1.09 1.04-1.636 2.458-1.636 4.254 0 1.817.55 3.255 1.65 4.315 1.1 1.06 2.58 1.59 4.436 1.59zm7.812-15.987c2.887.525 5.128 1.792 6.722 3.8 1.595 2.009 2.392 4.567 2.392 7.676 0 4.199-1.488 7.479-4.466 9.84-2.977 2.362-7.13 3.543-12.46 3.543-5.309 0-9.447-1.18-12.414-3.542-2.967-2.362-4.451-5.642-4.451-9.841 0-3.109.797-5.667 2.392-7.676 1.595-2.008 3.835-3.275 6.722-3.8-2.342-.565-4.148-1.64-5.42-3.224-1.272-1.585-1.908-3.548-1.908-5.89 0-3.774 1.328-6.717 3.982-8.826 2.655-2.11 6.354-3.164 11.097-3.164 4.764 0 8.478 1.06 11.143 3.179 2.665 2.12 3.997 5.057 3.997 8.811 0 2.342-.636 4.305-1.908 5.89-1.271 1.584-3.078 2.66-5.42 3.224zm56.89-20.226v9.053h-16.806l-.878 5.693a25.437 25.437 0 0 1 5.45-.606c4.502 0 8.055 1.348 10.659 4.042 2.604 2.695 3.906 6.354 3.906 10.977 0 4.925-1.62 8.81-4.86 11.657-3.24 2.846-7.676 4.27-13.308 4.27-2.685 0-5.188-.303-7.509-.909-2.321-.606-4.36-1.484-6.116-2.634l.787-10.72.939.183c1.09 1.635 2.543 2.922 4.36 3.86 1.816.939 3.775 1.408 5.874 1.408 2.806 0 4.976-.671 6.51-2.013 1.534-1.343 2.301-3.235 2.301-5.678 0-2.341-.828-4.259-2.483-5.753-1.655-1.493-3.805-2.24-6.45-2.24-1.776 0-3.38.297-4.814.893-1.433.595-2.725 1.499-3.875 2.71l-1.484-.878 3.664-23.315h24.132zm52.83 43.904H448.39l19.893-23.557c1.211-1.433 2.104-2.73 2.68-3.89.575-1.161.863-2.246.863-3.255 0-1.555-.49-2.821-1.469-3.8-.979-.98-2.266-1.469-3.86-1.469-1.898 0-3.356.606-4.376 1.817-1.02 1.21-1.529 2.967-1.529 5.268v.545h-10.658v-.303c0-5.026 1.468-8.982 4.405-11.869 2.937-2.886 6.95-4.33 12.036-4.33 4.966 0 8.923 1.282 11.87 3.846 2.947 2.563 4.42 5.975 4.42 10.234 0 2.08-.464 4.103-1.392 6.07-.929 1.969-2.463 4.124-4.603 6.465l-7.993 8.812h13.565v9.416z" font-size="62.011" font-weight="700" text-anchor="middle" fill="#005e00" font-family="Futura Md BT"></path><path style="text-align:center;line-height:125%;-inkscape-font-specification:Futura Md BT Bold" d="M200.844 113.159c-.998-.032-1.988 0-3.001.065-4.052.26-7.93 1.255-11.591 3.017a30.759 30.759 0 0 0-9.568 7.161 29.88 29.88 0 0 0-6.063 10.131c-1.42 3.834-2.05 7.73-1.86 11.64.192 3.91 1.184 7.688 2.957 11.372 1.762 3.66 4.095 6.809 7.038 9.41 2.942 2.6 6.375 4.533 10.258 5.814 3.778 1.303 7.677 1.827 11.705 1.579a30.74 30.74 0 0 0 11.56-3.018 30.777 30.777 0 0 0 9.535-7.13 31.167 31.167 0 0 0 6.19-10.192c1.373-3.811 1.962-7.685 1.764-11.578-.198-3.893-1.171-7.696-2.956-11.403-1.773-3.684-4.157-6.81-7.1-9.41a29.338 29.338 0 0 0-10.102-5.845 30.142 30.142 0 0 0-8.766-1.613zm-3.065 13.534c1.95-.05 3.911.327 5.896 1.149 3.97 1.644 6.995 4.643 9.073 8.96 2.101 4.365 2.581 8.582 1.413 12.67-1.168 4.088-3.72 7.086-7.615 8.96-3.966 1.91-7.877 2.022-11.754.39-3.878-1.63-6.886-4.641-9.01-9.052-2.09-4.341-2.544-8.57-1.382-12.67 1.163-4.1 3.69-7.086 7.584-8.961 1.913-.92 3.847-1.397 5.795-1.446zm66.194-37.375-12.842 3.068-7.013 62.726 14.484-4.894.937-11.127 21.148-5.74 6.135 8.964 14.657-3.332-37.506-49.665zm-1.978 17.638 11.72 16.673-13.285 3.657 1.565-20.33zm47.939 30.497-6.555-57.84 15.335-1.704 2.384 20.864 16.83-22.849 17.699-2.009-20.196 27.204 29.962 29.55-19.594 1.792-19.695-18.927-2.957 4.281 1.881 16.932-15.094 2.706zm67.621-7.224.055-57.541 15.586.014-.043 44.181 23.264.054-.012 13.36-18.749-.387-20.1.319zm119.043 9.124 15.003-56.316 14.532 3.873 15.963 38.169 9.062-31.499 14.456 3.853-14.914 56.229-14.273-4.559-16.48-38.653-8.457 32.073-14.892-3.17zm97.654-31.269-25.711 52.089 10.794 4.758c5.931 2.615 11.753 5.378 18.039 7.06 3.54.828 6.98.982 10.308.472 4.363-.668 8.249-2.367 11.673-5.08 3.425-2.711 6.246-6.325 8.477-10.858 2.23-4.533 3.377-8.976 3.437-13.343.06-4.368-.971-8.478-3.103-12.342-1.638-2.983-3.925-5.659-6.863-8.034-2.938-2.374-8.382-5.544-16.35-9.465l-10.701-5.257zm8.205 18.265 2.364 1.179c5.49 2.702 8.923 5.815 10.32 9.346 1.395 3.532.89 7.736-1.525 12.643-2.415 4.907-5.45 7.871-9.084 8.884-3.633 1.013-8.205.168-13.695-2.534l-2.334-1.147 13.954-28.37zM467.208 76.781l-13.083-1.773-29.028 55.688 15.242.944 4.773-10.04 21.795 2.278 2.486 10.751 14.79 2.286-16.975-60.134zM459 92.517l4.914 19.779-13.71-1.383L459 92.517z" font-size="80" font-weight="700" text-anchor="middle" fill="#005e00" font-family="Futura Md BT"></path></svg>