<svg xmlns="http://www.w3.org/2000/svg" width="800" height="480" version="1"><path fill="#0b45a1" stroke-width="4.5" stroke-linecap="round" stroke-linejoin="round" d="M0 0h800v480H0z"/><path fill="#f5dc0f" stroke-width="4.5" stroke-linecap="round" stroke-linejoin="round" d="M0 0h800v240H0z"/><path d="M553 240c0 84.456-68.544 153-153 153s-153-68.544-153-153S315.544 87 400 87s153 68.544 153 153z" fill="none" stroke="#0b45a1" stroke-width="12" stroke-linecap="round" stroke-linejoin="round"/><path d="M530 240c0 71.76-58.24 130-130 130-71.76 0-130-58.24-130-130 0-71.76 58.24-130 130-130 71.76 0 130 58.24 130 130z" fill="#fff" stroke-width="4.5" stroke-linecap="round" stroke-linejoin="round"/><path d="M400 87c-84.454 0-153 68.546-153 153s68.546 153 153 153 153-68.546 153-153S484.454 87 400 87zm0 52.531c55.456 0 100.469 45.013 100.469 100.469 0 55.456-45.013 100.469-100.469 100.469-55.456 0-100.469-45.013-100.469-100.469 0-55.456 45.013-100.469 100.469-100.469z" fill="#fff" stroke="#0b45a1" stroke-width="4.5" stroke-linecap="round" stroke-linejoin="round"/><path d="M381.836 97.408l1.473 33.495 9.669-1.088-.47-9.791c2.55.05 4.663.013 7.005-.127l5.162 10.172 12.1 1.312-7.25-13.107c5.555-1.676 9.27-4.741 9.756-9.943.717-7.759-6.108-12.315-25.09-11.911-3.773.08-8.119.567-12.355.988zm13.456 4.416c7.4-.109 14.64.633 14.331 6.172-.399 7.156-9.697 6.207-17.216 6.183l-.278-12.272c1.043-.037 2.106-.068 3.163-.083zM285.986 152.65l6.228-7.578 25.95 21.326-6.227 7.578-25.95-21.326zm44.267 2.296l-33.384-14.739 7.588-7.334 23.837 10.312-4.966-24.475 5.843-3.635 6.537 35.635-5.455 4.236zm162.604 24.581l30.606-13.838 13.159 29.105-5.304 2.398-9.061-20.042-7.39 3.341 7.888 17.446-5.184 2.343-7.887-17.445-7.438 3.363 9.863 21.815-5.292 2.392-13.96-30.878zm-230.058 17.753l30.963 13.838 3.084-9.205-9.412-4.16a93.306 93.306 0 0 0 2.913-6.756l11.396-.517 6.11-10.29-14.862 1.013c.759-5.752-.505-10.4-5.046-12.983-6.775-3.849-13.26.705-21.184 17.96l-3.962 11.1zm9.34-9.878c2.948-6.789 6.605-13.08 11.526-10.52 6.357 3.31 1.518 11.716-1.6 18.558l-11.152-5.121c.395-.966.805-1.947 1.226-2.917zm167.453-63.468c10.57 3.726 11.487 10.788-2.063 7.091-4.893-1.334-9.112-4.985-9.974-8.999l-6.105 1.611c.882 5.352 7.597 10.552 11.682 12.17 13.205 5.228 19.402 2.01 22.322-2.652 2.99-4.772.387-12.549-10.993-16.688-14.177-5.153-10.579-10.618.253-7.597 6.286 1.753 8.557 4.389 11.793 8.528l4.87-2.737c-2.458-5.235-7.256-8.648-13.333-10.684-12.014-4.025-18.767-1.501-21.446 3.257-2.742 4.872.318 12.232 12.994 16.7zm64.176 16.548l-10.822-10.605-24.668 23.674c3.443 2.917 6.11 5.33 8.493 7.894 10.18 10.948 17.89 14.244 28.183 7.078 11.01-7.666 6.907-19.316-1.186-28.04zm-4.648 20.154c-6.132 4.942-14.36 2.317-18.88-4.567l15.385-15.302c7.137 5.291 11.306 13.573 3.495 19.869zm-26.802-44.73l8.301 5.226-17.893 28.426-8.302-5.225 17.894-28.427zm-125.24 26.9l-11.674-31.712 30.338-11.207 1.962 5.392-20.709 7.412 2.733 7.635 18.026-6.452 1.918 5.356-18.026 6.453 2.75 7.685 22.541-8.07 2.046 6.087-31.905 11.421zM507.184 265.12l28.7 21.935 1.694-5.844-5.478-4.366 3.207-16.325 7.102-2.284.958-10.373-34.851 10.476-1.332 6.78zm10.526.806l11.368-3.477-2.067 10.524-9.3-7.047zm-44.975 56.568l26.024 21.638 4.311-4.075-17.243-14.292 30.326-1.475 4.667-6.543-26.462-21.513-3.118 4.894 16.37 13.334-28.575 2.025-6.3 6.007zm25.11-31.965l4.109-8.907 30.501 14.068-4.108 8.907-30.501-14.068zm-101.31 74.925c-1.395 10.168 7.91 18.87 19.255 18.89 11.346.019 21.035-8.319 21.633-18.617.598-10.298-8.143-18.634-19.489-18.679-11.588-.045-19.916 7.605-21.398 18.406zm20.42-12.692c6.23-.142 11.139 6.391 10.842 12.974-.298 6.584-5.142 12.932-11.38 12.94-6.238.01-10.502-6.684-10.079-13.255.406-6.293 3.98-12.506 10.617-12.659zm-123.123-86.824c-2.357-9.214-9.595-15.228-18.648-15.882-9.74-.704-17.107 9.118-16.083 20.397.54 5.95 3.766 13.704 7.63 17.404l4.568-3.183c-3.08-3.456-5.728-9.092-6.106-13.127-.582-6.2 4.668-11.747 10.92-11.767 5.139-.017 9.536 3.474 11.913 8.353 1.974 4.05 1.818 9.002.612 12.903l5.606-.054c.953-4.94.687-10.151-.412-15.044zm60.283 110.216l8.39-32.924 30.504 7.092-1.202 5.695-21.52-4.54-1.763 8.554 18.733 3.952-1.174 5.567-18.733-3.952-3.517 13.578-9.718-3.022zm-58.181-36.385l23.883-24.364 6.495 6.101-19.049 20.053 18.543 15.232-3.686 4.488-26.186-21.51zm50.255-3.689l8.763 4.407-15.092 30.008-8.762-4.407 15.091-30.008zm93.559 6.767l15.06 29.802 9.21-4.312-4.185-8.541a93.312 93.312 0 0 0 6.27-3.851l9.619 6.134 9.956-6.84-11.778-5.783c3.93-4.269 5.57-8.797 3.343-13.523-3.328-7.045-10.618-7.718-27.026 1.838l-10.469 5.076zm14.415-.671c6.316-3.857 12.044-6.546 14.594-1.62 3.296 6.365-5.497 10.456-11.983 14.259l-5.292-10.958c.878-.563 1.778-1.13 2.68-1.681zM304.468 294.71l-35.678 3.399 2.723 5.782 6.734-.77 8.785 14.13-3.719 6.753 6.656 8.222 18.148-31.649-3.649-5.867zm-8.25 6.587l-5.944 10.295-5.664-9.108 11.608-1.187z" fill="#0b45a1" fill-rule="evenodd"/><path d="M400.003 153.97c-2.677 0-4.854 1.072-4.854 2.392v8.967h-8.82c-1.189 0-2.154 1.959-2.154 4.372 0 2.412.965 4.371 2.154 4.371h8.82v10.758h-14.22c-1.189 0-2.154 1.959-2.154 4.371 0 2.413.965 4.372 2.154 4.372h14.22v5.225H356.56c-1.635 0-2.965 2.698-2.965 6.015 0 3.318 1.33 6.009 2.965 6.009h7.533l-20.144 77.192h-8.177c-1.634 0-2.958 2.69-2.958 6.008 0 3.317 1.324 6.008 2.958 6.008h128.456c1.634 0 2.958-2.69 2.958-6.008 0-3.317-1.324-6.008-2.958-6.008h-8.177l-20.144-77.192h7.533c1.635 0 2.965-2.691 2.965-6.009 0-3.317-1.33-6.015-2.965-6.015h-38.59v-5.225h14.22c1.19 0 2.155-1.959 2.155-4.372 0-2.412-.965-4.371-2.154-4.371h-14.22v-10.758h8.82c1.189 0 2.154-1.959 2.154-4.371 0-2.413-.965-4.372-2.154-4.372h-8.82v-8.967c0-1.32-2.17-2.392-4.848-2.392zm-27.915 56.852h24.551c-.55.49-.755 1.307-.755 2.14 0 .965.211 1.932.839 2.427v.916c-.547.143-1.077.32-1.077.882v1.322c-.44.05-.86.273-1.217 1.077h-2.022c-8.033 0-10.057 6.025-10.715 12.632-.724 7.257-.863 14.986-4.715 23.019-2.274 4.745-6.372 8.708-10.806 12.632-1.062.94-2.565 2.242-2.882 4.155l-.573 3.462c-.308 1.86.899 3.317 2.238 3.519 8.814 1.326 17.956 1.714 27.404 1.818 1.298 1.501 4.235 2.553 7.645 2.553 3.41 0 6.341-1.052 7.639-2.553 9.449-.104 18.59-.492 27.404-1.818 1.339-.202 2.546-1.659 2.238-3.519l-.573-3.462c-.317-1.913-1.813-3.215-2.875-4.155-4.434-3.924-8.539-7.887-10.813-12.632-3.852-8.033-3.991-15.762-4.715-23.02-.658-6.606-2.682-12.631-10.715-12.631h-2.022c-.357-.804-.776-1.028-1.217-1.077v-1.322c0-.563-.53-.739-1.077-.882v-.916c.628-.495.84-1.462.84-2.427 0-.833-.205-1.65-.756-2.14h24.55l20.145 77.192h-96.112l20.144-77.192z" fill="#0b45a1" stroke-width="2" stroke-linecap="round" stroke-linejoin="round"/></svg>