<svg xmlns="http://www.w3.org/2000/svg" width="900" height="500" viewBox="-350.5 -150.5 900 500" overflow="visible"><path fill="#FFF" d="M-350.5-150.5h900v500h-900z"/><path fill="#006" d="M547.876-21.275C230.622-44.322 258.344 71.957 258.344 71.957c4.107 51.332-13.349 83.805-13.349 83.805C150.538 302.422-350.5 221.76-350.5 221.76V349.5h900V-21.056l-1.624-.219z"/><path fill="#3200C4" d="M-349.286 138.758c113.358 7.982 229.346 10.833 340.563-16.614 34.15-9.95 70.985-22.253 94.509-50.763 17.039-40.307-16.67-82.388 1.071-122.883 12.312-32.348 50.702-34.447 78.367-44.929 124.867-33.897 255.891-39.438 384.275-29.995V-150.5h-899.981v289.272l1.196-.014z"/><path fill="#FBCB00" d="M548.049 231.352c-41.383-17.037-82.038-78.52-82.038-78.52C396.315 39.499 549.5 43.203 549.5 43.203v188.379l-1.451-.23z"/><path fill="#005E00" d="M-350.5 31.351s159.805-33.771 70.481-181.476H-350.5V31.351z"/><path d="m-264.988 297.777-3.278 2.516c-1.81-2.357-3.983-4.146-6.519-5.362-2.536-1.217-5.322-1.825-8.357-1.825-3.318 0-6.392.795-9.22 2.385-2.828 1.591-5.02 3.727-6.575 6.408s-2.333 5.697-2.333 9.047c0 5.062 1.739 9.286 5.218 12.674 3.479 3.387 7.867 5.08 13.165 5.08 5.826 0 10.699-2.281 14.621-6.844l3.278 2.486c-2.073 2.643-4.66 4.686-7.761 6.129s-6.564 2.166-10.39 2.166c-7.276 0-13.015-2.419-17.218-7.257-3.525-4.085-5.287-9.017-5.287-14.796 0-6.08 2.134-11.195 6.404-15.346 4.269-4.15 9.617-6.227 16.045-6.227 3.883 0 7.388.769 10.517 2.305 3.129 1.538 5.692 3.691 7.69 6.461zm19.325-7.734h4.156v41.563h-4.156v-41.563zm21.133 4.062v-4.063h22.813v4.063h-9.281v37.5h-4.25v-37.5h-9.282zm37.067-4.062h4.773l10.649 17.194 10.462-17.194h4.803l-13.156 21.696v19.866h-4.094v-19.866l-13.437-21.696zm96.527-1.031c6.293 0 11.56 2.1 15.8 6.297 4.239 4.197 6.359 9.365 6.359 15.502 0 6.08-2.115 11.238-6.345 15.473-4.23 4.236-9.389 6.354-15.475 6.354-6.162 0-11.363-2.107-15.602-6.324-4.24-4.217-6.359-9.318-6.359-15.305 0-3.99.965-7.689 2.897-11.097 1.931-3.407 4.564-6.075 7.9-8.005 3.335-1.93 6.944-2.895 10.825-2.895zm.184 4.031c-3.071 0-5.982.801-8.732 2.402-2.751 1.603-4.898 3.76-6.443 6.475-1.545 2.713-2.317 5.738-2.317 9.074 0 4.938 1.709 9.107 5.129 12.509 3.419 3.401 7.541 5.103 12.364 5.103 3.222 0 6.203-.781 8.944-2.346s4.88-3.703 6.416-6.418c1.535-2.713 2.303-5.729 2.303-9.046 0-3.298-.768-6.28-2.303-8.947-1.536-2.667-3.698-4.801-6.486-6.403-2.79-1.602-5.748-2.403-8.875-2.403zm41.895-3h20.813v4.063H-44.7v13.031h16.656v4.063H-44.7v20.406h-4.156v-41.563zm62.934 33.807 3.532-2.119c2.487 4.584 5.361 6.875 8.622 6.875a8.25 8.25 0 0 0 3.93-.975c1.225-.648 2.158-1.52 2.798-2.611s.961-2.25.961-3.475c0-1.393-.471-2.758-1.414-4.096-1.301-1.846-3.676-4.068-7.125-6.669-3.469-2.618-5.627-4.513-6.475-5.681-1.471-1.957-2.206-4.073-2.206-6.35 0-1.807.433-3.453 1.3-4.939s2.087-2.658 3.66-3.515 3.284-1.284 5.13-1.284c1.959 0 3.792.484 5.497 1.454s3.509 2.753 5.413 5.349l-3.391 2.572c-1.563-2.075-2.894-3.443-3.995-4.104a6.873 6.873 0 0 0-3.599-.99c-1.675 0-3.044.509-4.108 1.525-1.063 1.018-1.595 2.27-1.595 3.758 0 .904.188 1.779.565 2.627s1.064 1.771 2.063 2.769c.546.527 2.335 1.911 5.369 4.152 3.598 2.655 6.065 5.018 7.403 7.089 1.337 2.07 2.006 4.15 2.006 6.24 0 3.014-1.146 5.63-3.436 7.852s-5.075 3.332-8.354 3.332c-2.526 0-4.816-.674-6.871-2.02-2.052-1.346-3.946-3.602-5.68-6.766zm61.689-33.807 19.375 41.563h-4.479l-6.506-13.688H66.208l-6.464 13.688H55.11l19.625-41.563h1.031zm-.533 8.76-7.137 15.115h14.247l-7.11-15.115zm76.681-1.026-3.279 2.516c-1.809-2.357-3.982-4.146-6.518-5.362-2.537-1.217-5.322-1.825-8.357-1.825-3.318 0-6.391.795-9.219 2.385-2.828 1.591-5.02 3.727-6.576 6.408-1.555 2.682-2.332 5.697-2.332 9.047 0 5.062 1.738 9.286 5.217 12.674 3.479 3.387 7.867 5.08 13.164 5.08 5.826 0 10.699-2.281 14.621-6.844l3.279 2.486c-2.074 2.643-4.66 4.686-7.762 6.129-3.1 1.443-6.564 2.166-10.391 2.166-7.275 0-13.014-2.419-17.217-7.257-3.525-4.085-5.287-9.017-5.287-14.796 0-6.08 2.133-11.195 6.402-15.346s9.617-6.227 16.045-6.227c3.883 0 7.389.769 10.518 2.305 3.13 1.538 5.694 3.691 7.692 6.461zm20.137-7.734h8.281c4.615 0 7.742.188 9.383.565 2.467.565 4.475 1.776 6.02 3.634 1.545 1.855 2.316 4.141 2.316 6.855 0 2.262-.531 4.25-1.596 5.965s-2.586 3.012-4.564 3.888-4.709 1.324-8.195 1.343l14.949 19.313h-5.129l-14.949-19.313h-2.359v19.313h-4.156v-41.563zm4.156 4.062v14.125l7.154.057c2.771 0 4.82-.264 6.15-.791 1.328-.527 2.365-1.37 3.109-2.528s1.117-2.452 1.117-3.884c0-1.395-.377-2.66-1.131-3.801-.754-1.139-1.744-1.953-2.969-2.443-1.227-.489-3.262-.734-6.107-.734h-7.323zm59.303-4.062 19.375 41.563h-4.479l-6.506-13.688h-17.949l-6.463 13.688h-4.635l19.625-41.563h1.032zm-.531 8.76-7.139 15.115h14.248l-7.109-15.115zm36.054 32.802 5.924-41.563h.695l16.896 34.094 16.762-34.094h.664l5.965 41.563h-4.059l-4.113-29.75-14.719 29.75h-1.086l-14.852-29.969-4.066 29.969h-4.011zm66.709-41.562h23.813v4.063h-19.656v13.031h19.5v4.063h-19.5v16.344h19.5v4.063h-23.656v-41.564zm42.612 41.562v-41.563h.9l27.631 31.832v-31.832h4.094v41.563h-.932l-27.412-31.486v31.486h-4.281zm50.242-37.5v-4.063h22.813v4.063h-9.281v37.5h-4.25v-37.5h-9.282zm60.158-5.093c6.293 0 11.559 2.1 15.799 6.297s6.359 9.365 6.359 15.502c0 6.08-2.115 11.238-6.346 15.473-4.23 4.236-9.389 6.354-15.475 6.354-6.162 0-11.361-2.107-15.602-6.324s-6.359-9.318-6.359-15.305c0-3.99.965-7.689 2.896-11.097s4.564-6.075 7.9-8.005 6.945-2.895 10.828-2.895zm.184 4.031c-3.072 0-5.982.801-8.732 2.402-2.752 1.603-4.898 3.76-6.443 6.475-1.545 2.713-2.318 5.738-2.318 9.074 0 4.938 1.709 9.107 5.129 12.509s7.541 5.103 12.365 5.103c3.221 0 6.203-.781 8.943-2.346 2.742-1.564 4.881-3.703 6.416-6.418 1.535-2.713 2.303-5.729 2.303-9.046 0-3.298-.768-6.28-2.303-8.947s-3.697-4.801-6.486-6.403c-2.791-1.602-5.748-2.403-8.874-2.403z" fill="#FFF"/></svg>