<svg xmlns="http://www.w3.org/2000/svg" version="1" width="1024" height="682.667" viewBox="0 0 819.2 546.134"><path d="M0 0h819.2v546.134H0V0z" fill="#feca00" fill-rule="evenodd"/><path d="M49.152 49.152h720.895v447.827H49.152V49.152z" fill="#fff" fill-rule="evenodd"/><path d="m341.354 304.655-18.42-45.735-.677-1.678 1.53.967 24.734 20.577-1.011-21.74c-7.95-1.82-10.946-8.693-10.083-16.178-4.56 1.591-8.589 2.096-12.087 1.512-3.7-.616-6.792-2.437-9.277-5.462-6.78-.776-11.78-2.314-14.997-4.614-3.244-2.318-4.701-5.383-4.366-9.192-4.11-1.967-7.21-4.137-8.72-6.624-1.526-2.508-1.47-5.29.725-8.435-6.732-2.884-10.452-6.708-11.16-11.477a12.02 12.02 0 0 1-.053-2.996c.088-.869.264-1.76.526-2.67-4.692-1.925-7.12-4.384-8.233-7.15-1.09-2.713-.896-5.67-.333-8.698-4.944-1.998-7.607-4.528-8.947-7.368-1.31-2.77-1.34-5.79-1.002-8.882-5.129-1.368-8.977-3.184-11.537-5.443-2.562-2.262-3.84-4.954-3.838-8.08-5.95-.722-9.932-2.253-12.475-4.377-2.556-2.138-3.655-4.85-3.818-7.93-4.358-1.197-7.674-2.938-9.836-5.27-2.146-2.315-3.154-5.19-2.926-8.674-5.541-.219-8.861-1.462-10.886-3.299-2.021-1.834-2.736-4.214-3.065-6.752-6.002-1.221-10.259-2.9-12.773-5.031-2.558-2.172-3.352-4.785-2.387-7.839-3.04-1.315-6.798-2.201-10.553-3.087-8.147-1.917-16.294-3.838-17.856-10.241-.227-.939-.261-1.79-.128-2.555.354-2.01 1.818-3.41 3.933-4.318 2.01-.862 4.619-1.28 7.398-1.353 4.703-.124 9.94.74 13.548 2.08 15.571 3.367 30.682 6.118 45.617 8.835 28.156 5.125 55.701 10.137 84.08 18.831 24.319 7.449 34.349 29.302 43.798 49.886 7.022 15.308 13.723 29.904 25.738 37.135 1.052-2.979 2.108-5.957 3.163-8.937-1.583 1.41-3.79 1.582-6.344 1.057 6.5-4.08 3.094-8.011 9.683-13.184-2.01.12-3.414-.242-4.394-1.089 7.323-5.972 1.136-15.996 8.457-20.617a50.155 50.155 0 0 1 0-21.146c-8.92-3.878-2.05-20.106-17.975-11.631 1.709-16.573 11.61-14.877 22.204-11.632 22.72-10.148 24.553 8.098 39.12 10.046-.7 5.484-3.419 9.693-10.57 11.102-2.253 6.288 2.5 9.774.527 15.33-2.676 9.605 3.91 13.622-1.056 22.204.89 9.372.796 10.843 7.4 17.445-.714 1.396-1.855 1.67-3.514 1.217-.025 3.003 2.307 6.826 4.989 10.053 12.245-7.152 19.008-21.89 26.11-37.353 9.442-20.584 19.476-42.437 43.79-49.886 28.381-8.694 55.928-13.706 84.082-18.831 14.937-2.717 30.048-5.468 45.619-8.834 3.609-1.341 8.845-2.205 13.546-2.08 2.78.073 5.39.49 7.4 1.352 2.114.909 3.576 2.309 3.933 4.318.13.766.102 1.616-.13 2.555-1.56 6.403-9.708 8.324-17.854 10.24-3.755.887-7.512 1.773-10.554 3.088.967 3.054.172 5.667-2.389 7.839-2.512 2.131-6.772 3.81-12.77 5.03-.333 2.539-1.042 4.919-3.067 6.753-2.023 1.837-5.342 3.08-10.883 3.299.227 3.484-.78 6.359-2.927 8.673-2.165 2.333-5.477 4.074-9.835 5.27-.162 3.08-1.26 5.793-3.82 7.93-2.544 2.125-6.526 3.656-12.474 4.379.004 3.125-1.277 5.817-3.84 8.079-2.56 2.26-6.404 4.075-11.536 5.443.339 3.091.31 6.111-1 8.882-1.343 2.84-4.006 5.37-8.95 7.368.563 3.028.758 5.985-.33 8.698-1.114 2.766-3.544 5.225-8.235 7.15.264.91.439 1.801.528 2.67a12.018 12.018 0 0 1-.056 2.996c-.705 4.769-4.428 8.593-11.157 11.477 2.196 3.145 2.25 5.927.722 8.435-1.509 2.487-4.608 4.657-8.72 6.624.337 3.809-1.117 6.874-4.364 9.192-3.217 2.3-8.217 3.838-14.997 4.614-2.485 3.025-5.575 4.846-9.275 5.462-3.502.584-7.53.08-12.087-1.512.701 6.111-2.2 15.328-7.41 20.222l-1.405.83-.287 19.842 25.07-24.797 1.51-1.137-.603 1.79-15.866 47.006-.138.4H341.502l-.148-.37zm114.992 35.226c-2.89 4.595-4.676 8.766-5.473 12.543-.867 4.105-.575 7.745.703 10.956 1.277 3.199 3.53 5.952 6.595 8.302 4.489 3.437 10.735 6.013 18.216 7.851 11.762 2.894 22.22 2.333 33.558 1.725 14.668-.786 30.826-1.655 53.158 4.843l-.171.297-.2.358-.195.36-.19.355-.184.36-.176.36-.171.355-.162.357-.158.356-.152.356-.145.353-.138.353-.135.352-.125.353-.12.35-.115.35-.112.346-.102.349-.098.346-.105.384-.098.383-.088.382-.083.38-.08.379-.065.377-.063.376-.056.374-.05.37-.047.37-.038.368-.03.364-.024.364-.02.36-.013.36-.006.355-.003.353.003.352.01.349.014.347.023.343.023.339.029.34.04.336.039.331.046.33.054.327.056.324.061.32.064.318.07.316.078.318.168.631.189.627.208.614.227.596.241.581.26.565.274.549.287.534.304.514.316.5.33.48.34.461.353.443.362.424.37.407.384.381.264.253.267.24.274.232.277.225.28.214.283.204.287.195.291.189.293.173.3.168.301.156.302.15.305.135.304.127.312.115.309.106.331.1.324.095.323.085.33.079.324.067.323.062.326.056.324.046.327.04.32.03.32.024.327.016.316.006h.316l.318-.008.32-.016.455-.038.454-.054.453-.07.449-.086.445-.106.441-.118.436-.136.43-.153.425-.17.418-.186.416-.204.407-.218.399-.237.393-.25.385-.268.376-.285.373-.307.363-.323.352-.341.337-.353.33-.374.314-.385.297-.4.29-.419.27-.433.26-.451.241-.46.226-.478.21-.492.188-.504.178-.519.156-.53.086-.323.075-.32.074-.322.065-.327.06-.332.052-.333.046-.34.037-.34.033-.345.027-.347.019-.35.013-.353.002-.358v-.359l-.01-.364-.019-.395-.06-.568-.111-.576-.166-.553-.21-.526-.258-.497-.297-.465-.339-.431-.37-.393-.406-.355-.436-.31-.464-.264-.487-.217-.513-.166-.528-.11-.543-.056-.555.006-.551.065-.538.122-.508.179-.491.227-.459.278-.435.321-.4.363-.363.402-.326.438-.29.47-.246.499-.2.528-.152.549-.106.572-.052.586.008.549.011.29v.224l-.006.212-.01.187-.017.173-.023.156-.029.14-.027.109-.042.139-.046.12-.05.101-.049.089-.05.073-.054.066-.055.054-.049.044-.069.048-.083.048-.102.048-.12.047-.138.04-.154.033-.17.027-.187.017-.17.006h-.173l-.179-.012-.177-.019-.181-.027-.18-.036-.184-.047-.168-.048-.033-.011-.03-.016-.049-.025-.06-.038-.073-.05-.079-.064-.088-.075-.093-.087-.102-.104-.102-.114-.102-.12-.1-.128-.098-.139-.099-.146-.096-.153-.092-.161-.087-.174-.089-.179-.083-.185-.079-.194-.075-.2-.065-.21-.064-.217-.06-.223-.061-.254-.05-.26-.043-.268-.032-.276-.027-.283-.018-.29-.006-.294v-.306l.01-.314.023-.318.033-.326.046-.333.056-.34.07-.346.078-.352.093-.36.115-.39.13-.393.144-.4.162-.41.175-.413.195-.42.208-.428.231-.432.247-.44.267-.444.288-.45.304-.457.326-.459.343-.466.296-.38a201.405 201.405 0 0 1 12.032 4.9l.746.333.171-.854c4.029-20.01-11.483-29.772-32.498-34.692-17.818-4.17-39.593-4.856-56.595-5.387-15.621-.492-27.125-.854-27.337-3.21-.316-3.526 2.772-4.376 6.585-5.424 5.919-1.63 13.388-3.683 14.319-15.78.982-12.745-20.34-17.075-42.96-19.103-7.23-.648-14.664-1.066-21.51-1.455-14.351-.811-22.144-.811-36.494 0-6.843.39-14.278.807-21.507 1.455-22.62 2.028-43.945 6.358-42.963 19.102.933 12.098 8.402 14.151 14.323 15.781 3.809 1.048 6.899 1.898 6.583 5.424-.21 2.356-11.714 2.718-27.339 3.21-17.002.531-38.775 1.217-56.593 5.387-21.016 4.92-36.529 14.682-32.5 34.692l.171.854.748-.333c4.194-1.863 8.2-3.486 12.033-4.9l.293.38.347.466.326.459.304.456.285.451.266.443.249.441.229.432.212.428.192.42.178.414.16.408.144.401.127.393.116.39.092.36.083.352.068.347.056.339.046.333.03.326.024.318.011.314.002.306-.008.295-.017.289-.025.283-.035.276-.042.267-.052.26-.058.255-.058.223-.067.216-.067.21-.076.2-.077.195-.082.185-.087.18-.09.173-.091.161-.095.153-.098.146-.1.139-.1.129-.1.12-.103.113-.106.104-.09.087-.087.075-.08.063-.074.05-.06.04-.046.024-.035.016-.029.011-.167.048-.185.047-.181.036-.181.027-.176.02-.179.01h-.175l-.17-.005-.187-.017-.167-.027-.156-.033-.137-.04-.118-.047-.104-.048-.084-.048-.068-.048-.05-.044-.056-.054-.052-.066-.052-.073-.048-.089-.048-.102-.048-.12-.043-.138-.029-.11-.027-.139-.02-.156-.02-.173-.012-.187-.005-.212.002-.223.011-.291.006-.55-.05-.585-.104-.572-.154-.55-.2-.527-.247-.5-.287-.47-.328-.437-.362-.402-.399-.363-.435-.321-.46-.278-.488-.227-.515-.18-.533-.12-.551-.066-.555-.006-.544.056-.53.11-.51.166-.49.217-.464.264-.433.31-.405.355-.373.393-.338.431-.298.465-.258.497-.212.526-.164.553-.114.576-.058.568-.019.395-.008.364-.002.359.006.358.01.353.02.35.026.347.031.345.04.34.045.34.054.333.057.332.066.327.071.322.08.32.084.323.156.53.175.519.193.504.208.492.228.477.24.46.257.452.273.433.287.418.299.401.314.385.327.374.34.353.352.34.362.324.374.307.378.285.383.268.391.25.4.237.407.218.415.204.42.187.425.17.432.152.435.136.44.118.447.106.449.087.449.069.456.054.455.038.32.016.316.008h.316l.32-.006.321-.016.322-.025.324-.029.323-.04.326-.046.324-.056.325-.062.324-.067.327-.08.328-.084.324-.094.33-.1.31-.107.31-.115.306-.127.304-.135.305-.15.298-.156.297-.168.295-.173.29-.19.288-.194.283-.204.28-.214.279-.225.271-.232.268-.24.266-.253.38-.381.371-.407.364-.424.353-.443.34-.46.329-.482.316-.499.302-.514.289-.534.274-.55.26-.564.24-.581.226-.596.21-.614.189-.627.17-.631.074-.318.074-.316.063-.318.062-.32.056-.324.052-.327.044-.33.042-.331.037-.335.033-.341.023-.34.02-.342.015-.347.01-.349.003-.352v-.353l-.01-.355-.013-.36-.02-.36-.024-.364-.031-.364-.039-.368-.044-.37-.048-.37-.058-.374-.062-.376-.069-.377-.077-.38-.083-.38-.09-.38-.097-.384-.102-.384-.098-.346-.104-.35-.112-.346-.114-.349-.121-.35-.127-.353-.133-.352-.14-.353-.143-.353-.153-.356-.157-.356-.164-.357-.17-.354-.177-.36-.181-.36-.19-.355-.195-.36-.203-.36-.171-.296c22.335-6.498 38.494-5.63 53.161-4.843 11.339.608 21.795 1.17 33.559-1.725 7.48-1.838 13.728-4.414 18.215-7.85 3.067-2.351 5.321-5.104 6.595-8.303 1.28-3.211 1.566-6.85.701-10.956-.797-3.777-2.582-7.948-5.473-12.543 33.706-1.69 61.427-1.69 95.13 0z" fill="#161413"/><path d="M324.692 260.163c5.877 14.588 11.969 29.1 17.598 43.688h135.454c4.784-14.946 10.075-29.849 15.126-44.815l-25.684 26.029-.179-35.177-17.85 29.231-6.4-27.874-11.951 26.003-11.107-26.142-12.13 23.44-10.741-24.116-11.745 23.543-11.063-23.166-7.26 24.89-18.407-23.97 1.501 29.847-25.162-21.411z" fill="#feca00"/><path d="M380.356 205.755c-3.458 5.814-3.277 11.92.54 18.316 1.549-4.34 3.826-7.88 6.728-10.727 3.157-3.104 7.045-5.381 11.523-6.994l.963-.347-.193 1.008c-1.697 8.868 1.497 15.91 9.584 21.125 8.248-3.699 12.528-10.461 12.837-20.29l.038-1.23.93.805c3.324 2.888 5.885 6.036 7.713 9.431a28.812 28.812 0 0 1 3.148 9.577c4.615-5.781 5.898-11.83 3.842-18.143l1.112-.362c2.312 7.108.668 13.872-4.93 20.295l-.885 1.016-.135-1.343c-.375-3.722-1.425-7.223-3.183-10.487-1.591-2.957-3.764-5.722-6.54-8.288-.644 9.764-5.233 16.503-13.764 20.216l-.286.125-.26-.166c-8.413-5.317-11.926-12.48-10.542-21.483-3.927 1.527-7.348 3.612-10.154 6.365-3.022 2.971-5.344 6.732-6.828 11.433l-.371 1.173-.677-1.03c-4.704-7.181-5.11-14.046-1.217-20.589l1.007.594zm117.81 30.414c-2.3 2.803-5.155 4.489-8.567 5.059-3.46.576-7.509.013-12.14-1.69l-9.377-11.85c.314-.08.628-.168.936-.264 3.767-1.164 7.046-3.49 9.371-7.422.51-.865.975-1.805 1.388-2.826l18.39 18.993zm19.319-13.901-.309.144.05.417c.428 3.55-.853 6.392-3.837 8.523-2.992 2.139-7.674 3.59-14.044 4.356l-19.116-19.744c.474-1.376.86-2.886 1.15-4.54 4.538-.311 8.422-1.496 11.516-4.086l24.59 14.93zm7.853-13.735c2.011 2.788 2.113 5.206.813 7.348-1.287 2.12-3.91 4.021-7.41 5.778l-24.939-15.141c2.711-2.657 4.738-6.562 5.967-12.123l25.569 14.138zm10.39-18.121c.35 1.068.632 2.143.75 3.286a10.95 10.95 0 0 1-.049 2.71c-.662 4.469-4.346 8.071-11.049 10.813l-25.362-14.024c.063-.335.127-.676.187-1.023 3.387-2.41 5.822-6.233 7.08-12.026l28.443 10.264zm8.747-15.41c.568 2.94.803 5.791-.214 8.324-.969 2.406-3.092 4.574-7.179 6.33l-29.566-10.667c.145-.802.27-1.639.374-2.512 2.277-1.847 4.137-4.436 5.524-7.968l-.01.043 31.07 6.45zm9.963-16.303c.346 2.994.358 5.902-.87 8.497-1.219 2.583-3.687 4.907-8.305 6.775l-31.456-6.527c.618-1.77 1.125-3.759 1.52-5.988 2.815-1.427 5.161-3.636 6.969-6.89l32.142 4.133zm15.393-13.311c-.027 2.737-1.173 5.108-3.44 7.108-2.401 2.119-6.054 3.838-10.957 5.155l-32.568-4.188c1.187-2.453 2.104-5.437 2.726-9.044 4.19.128 8.078-.168 11.517-1.123l32.722 2.092zm16.27-12.096c-.211 2.613-1.201 4.908-3.373 6.724-2.447 2.043-6.39 3.507-12.388 4.173l-.306.036-30.075-1.923c4.048-1.73 7.302-4.653 9.458-9.266l36.685.256zm12.794-14.18c.202 3.149-.702 5.734-2.619 7.803-2.075 2.241-5.344 3.906-9.694 5.048l-.428.113-.002.045-36.23-.252c.741-1.84 1.325-3.923 1.735-6.276 2.249-.205 4.393-.561 6.416-1.095 2.408-.635 4.638-1.52 6.659-2.706l34.163-2.68zm13.94-10.161c-.305 2.254-.945 4.348-2.68 5.92-1.731 1.572-4.58 2.665-9.3 2.955l-.005-.045-1.3.101a3.243 3.243 0 0 1-.139.004l-.634.017.006.04-32.034 2.511c2.56-1.911 4.708-4.416 6.354-7.637l39.733-3.866zm15.173-12.632c.877 2.632.216 4.878-1.98 6.745-2.178 1.845-5.82 3.345-10.924 4.495l-41.414 4.028c1.054-2.358 1.862-5.067 2.395-8.171.98-.486 1.9-1.014 2.75-1.59l49.173-5.507zm-42.561-9.334c.657-.119 1.314-.24 1.969-.36 15.006-2.73 30.184-5.492 45.686-8.843l.031-.007.048-.019c3.48-1.304 8.574-2.141 13.165-2.02 2.641.069 5.104.455 6.965 1.256 1.757.753 2.967 1.874 3.24 3.443.11.616.08 1.308-.108 2.08-1.39 5.704-9.19 7.54-16.987 9.377-3.832.903-7.664 1.808-10.814 3.18l-48.02 5.376c3.547-3.11 5.393-7.405 4.825-13.463zm-194.201 63.797-.372.45-.322.472-.28.495-.236.52-.204.546-.172.572-.144.597-.12.62-.098.644-.08.662-.067.681-.057.699-.054.709-.054.724-.06.734-.071.743-.087.75-.11.754-.135.758-.17.76-.21.756-.254.757-.304.748-.364.74-.424.724-.493.71-.565.684-.12.125.122.033.224.05.237.043.254.032.268.024.287.015.302.006.318-.006 1.65-.077c3.053-1.097 5.573-2.52 7.565-4.265 2.76-2.42 4.062-5.302 5.256-8.642.363 1.825.655 3.475 1.226 5.328a26.514 26.514 0 0 0 1.08 2.92c1.933 4.403 4.86 7.626 8.522 9.767.798-6.99 4.583-8.344 7.516-9.392 2.345-.837 2.655-1.915 3.635-3.955l.284-.683.23-.657.18-.635.137-.618.096-.602.058-.59.025-.582-.004-.576-.033-.575-.056-.574-.077-.578-.096-.581-.112-.591-.121-.6-.133-.608-.135-.62-.125-.595c-8.262-1.411-9.799-4.493-11.512-7.933-.869-1.742-1.786-3.584-3.776-5.31.424 5.871-2.316 6.492-6.339 7.404-3.932.89-8.44 3.184-11.326 6.089zm-74.281 85.387c2.302 2.803 5.157 4.489 8.567 5.059 3.463.576 7.508.013 12.14-1.69l9.379-11.85a17.926 17.926 0 0 1-.94-.264c-3.767-1.164-7.044-3.49-9.37-7.422a21.307 21.307 0 0 1-1.389-2.826l-18.387 18.993zm-19.319-13.901.307.144-.049.417c-.425 3.55.854 6.392 3.838 8.523 2.992 2.139 7.674 3.59 14.044 4.356l19.116-19.744a30.224 30.224 0 0 1-1.153-4.54c-4.535-.311-8.42-1.496-11.513-4.086l-24.59 14.93zm-7.85-13.735c-2.012 2.788-2.116 5.206-.814 7.348 1.285 2.12 3.905 4.021 7.41 5.778l24.936-15.141c-2.71-2.657-4.735-6.562-5.968-12.123l-25.565 14.138zM279.4 190.412c-.347 1.068-.632 2.143-.748 3.286a10.95 10.95 0 0 0 .049 2.71c.664 4.469 4.346 8.071 11.049 10.813l25.364-14.024a31.45 31.45 0 0 1-.187-1.023c-3.389-2.41-5.826-6.233-7.08-12.026L279.4 190.412zm-8.747-15.41c-.568 2.94-.801 5.791.218 8.324.967 2.406 3.09 4.574 7.175 6.33l29.568-10.667a40.96 40.96 0 0 1-.374-2.512c-2.277-1.847-4.137-4.436-5.526-7.968l.01.043-31.07 6.45zm-9.963-16.303c-.343 2.994-.354 5.902.871 8.497 1.22 2.583 3.69 4.907 8.306 6.775l31.454-6.527c-.614-1.77-1.125-3.759-1.52-5.988-2.815-1.427-5.16-3.636-6.967-6.89l-32.144 4.133zm-15.39-13.311c.026 2.737 1.173 5.108 3.439 7.108 2.4 2.119 6.055 3.838 10.958 5.155l32.57-4.188c-1.189-2.453-2.106-5.437-2.728-9.044-4.192.128-8.078-.168-11.517-1.123l-32.722 2.092zm-16.27-12.096c.211 2.613 1.203 4.908 3.375 6.724 2.444 2.043 6.386 3.507 12.386 4.173l.306.036 30.077-1.923c-4.05-1.73-7.304-4.653-9.46-9.266l-36.685.256zm-12.792-14.18c-.204 3.149.7 5.734 2.617 7.803 2.076 2.241 5.346 3.906 9.696 5.048l.426.113.002.045 36.23-.252c-.741-1.84-1.325-3.923-1.736-6.276-2.246-.205-4.392-.561-6.415-1.095-2.407-.635-4.638-1.52-6.659-2.706l-34.16-2.68zm-13.941-10.161c.306 2.254.944 4.348 2.678 5.92 1.732 1.572 4.58 2.665 9.302 2.955l.004-.045 1.298.101c.048.002.093.004.14.004l.635.017-.004.04 32.034 2.511c-2.562-1.911-4.712-4.416-6.356-7.637l-39.731-3.866zm-15.174-12.632c-.877 2.632-.217 4.878 1.981 6.745 2.177 1.845 5.82 3.345 10.925 4.495l41.41 4.028c-1.054-2.358-1.862-5.067-2.391-8.171a23.483 23.483 0 0 1-2.754-1.59l-49.171-5.507zm42.561-9.334-1.969-.36c-15.006-2.73-30.186-5.492-45.685-8.843l-.03-.007-.051-.019c-3.48-1.304-8.572-2.141-13.165-2.02-2.642.069-5.1.455-6.964 1.256-1.757.753-2.967 1.874-3.241 3.443-.108.616-.08 1.308.109 2.08 1.39 5.704 9.19 7.54 16.986 9.377 3.832.903 7.667 1.808 10.815 3.18l48.021 5.376c-3.549-3.11-5.394-7.405-4.826-13.463zM382.171 193.04c-13.103-7.143-20.095-22.368-27.437-38.363-9.338-20.348-19.254-41.953-43.07-49.25-27.298-8.362-53.8-13.31-80.822-18.233-1.221 13.94 11.635 17.906 28.314 19.986 4.264.53 8.681.933 13.182 1.34 17.184 1.563 35.512 3.228 46.457 11.943l.008.003c11.517 9.178 19.135 25.385 26.539 41.135 9.018 19.184 17.715 37.685 32.618 41.558l-.293 1.13c-15.43-4.013-24.245-22.757-33.38-42.195-7.345-15.624-14.903-31.7-26.21-40.71l-.008-.003c-10.674-8.504-28.821-10.155-45.835-11.7-4.566-.415-9.055-.821-13.22-1.34-7.154-.893-13.628-2.129-18.67-4.323 2.197 11.453 8.435 17.086 17.01 19.35 8.942 2.36 20.454 1.11 32.607-1.045l.2 1.154c-9.092 1.61-17.838 2.719-25.481 2.209 3.62 19.808 20.726 19.06 40.29 15.804a551.74 551.74 0 0 0 7.74-1.358c1.528-.275 3.116-.56 3.642-.653l.202 1.151c-1.903.339-2.743.49-3.635.651-2.651.476-5.287.952-7.757 1.363-5.03.837-9.903 1.51-14.446 1.727 3.466 19.65 16.369 19.654 34.29 16.671 2.457-.408 4.89-.85 7.4-1.305 1.656-.3 3.353-.61 4.4-.794l.201 1.153c-1.932.34-3.167.566-4.394.789-2.588.47-5.098.925-7.412 1.31-9.645 1.606-17.887 2.37-24.098-.148 3.685 18.8 16.47 18.759 34.132 15.822 2.453-.409 4.888-.85 7.398-1.308 1.653-.3 3.353-.608 4.4-.794l.201 1.153c-1.932.343-3.165.567-4.395.789-2.587.47-5.096.927-7.411 1.31-11.163 1.858-20.452 2.59-26.88-1.593 2.39 16.388 13.424 18.373 28.654 16.595 4.738-.553 9.903-1.47 15.338-2.438l1.75-.31.201 1.152c-.585.104-1.167.208-1.75.31-5.44.968-10.613 1.889-15.406 2.447-8.512.994-15.77.852-21.062-2.15 3.678 18.825 16.467 18.787 34.138 15.847 2.452-.409 4.888-.85 7.398-1.308 1.653-.3 3.352-.607 4.398-.794l.2 1.154c-1.93.343-3.163.566-4.392.788-2.59.47-5.098.928-7.413 1.312-5.763.96-11.024 1.618-15.654 1.456.591 3.193 1.55 5.805 2.801 7.919 2.164 3.657 5.208 5.82 8.705 6.901 3.539 1.093 7.554 1.093 11.605.418 4.786-.794 9.616-2.531 13.784-4.518l-.548 1.543c-4.007 1.821-8.542 3.38-13.043 4.13-3.4.564-6.79.672-9.928.086l-9.621 12.159c-1.112 7.256 1.335 13.405 8.024 15.03l.625-4.788.158-1.206.841.876 17.823 22.967 5.306-20.45c-4.687-3.116-7.612-6.576-9.246-10.289-1.653-3.743-1.984-7.723-1.489-11.852l1.162.137c-.47 3.932-.16 7.712 1.397 11.245 1.466 3.33 4.051 6.46 8.146 9.32.726-5.266 2.65-9.154 5.46-12.02 2.97-3.033 6.914-4.906 11.463-6.054l.534-.133.165.524c1.26 3.973 3.203 7.647 6.243 10.843 2.996 3.152 7.067 5.851 12.608 7.928 4.267-2.984 7.54-6.061 9.966-9.205 2.462-3.189 4.058-6.453 4.952-9.78l.171-.645.617.256c5.105 2.121 8.648 4.708 11.055 7.627 2.204 2.675 3.444 5.62 4.053 8.741 8.547-6.184 12.069-12.62 10.566-19.31l1.139-.255c1.662 7.395-2.266 14.416-11.782 21.06l-.77.538-.143-.929c-.507-3.271-1.692-6.346-3.965-9.103-2.189-2.659-5.4-5.038-9.995-7.032-.96 3.248-2.57 6.433-4.973 9.544-2.547 3.3-5.984 6.514-10.477 9.628l-.25.173-.284-.104c-5.864-2.158-10.167-4.996-13.336-8.327-3.04-3.196-5.025-6.84-6.337-10.766-4.13 1.108-7.699 2.854-10.388 5.599-2.536 2.587-4.304 6.08-5.052 10.787l.794-1.212.443-.676.505.634 10.666 22.053 11.292-22.379.466-.566.447.58 10.257 23.286 11.684-22.648.475-.625.463.634 10.662 25.53 11.59-25.547.598-.757.395.88 6.223 26.61 17.247-28.326.794-.981.233 1.24.74 11.767c1.304-1.397 3.171-2.95 4.277-4.88 2.832-4.935 4.1-11.196 3.489-15.192l-9.622-12.16c-3.14.587-6.527.479-9.928-.086-5.812-.967-11.677-3.28-16.393-5.774l-.102-.487-.209-1.006c4.757 2.614 10.86 5.11 16.895 6.113 4.054.675 8.069.675 11.606-.418 3.497-1.08 6.541-3.244 8.705-6.901 1.252-2.114 2.212-4.726 2.8-7.919-4.627.162-9.89-.497-15.653-1.456-2.316-.384-4.826-.842-7.412-1.312-1.23-.222-2.464-.445-4.396-.788l.202-1.154c1.046.187 2.747.495 4.399.794 2.51.458 4.945.9 7.4 1.308 17.669 2.94 30.456 2.978 34.138-15.847-5.294 3.002-12.552 3.144-21.064 2.15-4.793-.558-9.967-1.48-15.407-2.447l-1.75-.31.2-1.153c.588.104 1.172.209 1.75.31 5.437.969 10.6 1.886 15.34 2.439 15.232 1.778 26.264-.207 28.653-16.595-6.427 4.183-15.714 3.451-26.879 1.594-2.314-.384-4.824-.841-7.411-1.311-1.23-.222-2.465-.446-4.395-.789l.202-1.153c1.046.186 2.746.495 4.399.794 2.51.457 4.943.9 7.398 1.308 17.661 2.937 30.447 2.978 34.132-15.822-6.211 2.518-14.453 1.754-24.096.149a524.823 524.823 0 0 1-7.414-1.311c-1.227-.223-2.462-.448-4.394-.789l.2-1.153c1.046.184 2.747.495 4.4.794 2.509.455 4.946.897 7.399 1.305 17.923 2.983 30.824 2.979 34.29-16.671-4.541-.217-9.414-.89-14.444-1.727-2.47-.41-5.104-.887-7.757-1.363a992.67 992.67 0 0 0-3.635-.65l.202-1.152c.526.092 2.114.378 3.64.653 2.564.463 5.115.922 7.743 1.358 19.563 3.255 36.67 4.004 40.291-15.804-7.643.51-16.392-.599-25.483-2.21l.202-1.153c12.151 2.155 23.663 3.404 32.604 1.045 8.576-2.264 14.814-7.897 17.013-19.35-5.044 2.194-11.52 3.43-18.673 4.322-4.164.52-8.65.926-13.219 1.342-17.014 1.544-35.16 3.195-45.835 11.697l-.007.008c-11.306 9.006-18.864 25.083-26.208 40.707-9.14 19.438-17.95 38.182-33.383 42.196l-.293-1.131c14.9-3.873 23.6-22.374 32.618-41.558 7.404-15.75 15.024-31.957 26.54-41.133l.007-.007c10.945-8.713 29.271-10.378 46.455-11.94 4.5-.408 8.92-.811 13.184-1.341 16.677-2.08 29.535-6.046 28.312-19.986-27.017 4.922-53.52 9.87-80.82 18.234-23.816 7.296-33.732 28.901-43.07 49.25-7.343 15.994-14.335 31.219-27.436 38.362l-.264-.305-.348-.412-.345-.419-.34-.425-.335-.43-.327-.435-.324-.442-.314-.444-.304-.45-.299-.452-.285-.453-.276-.455-.262-.46-.248-.459-.237-.46-.224-.462-.206-.462-.189-.461-.17-.461-.153-.461-.133-.461-.112-.46-.087-.458-.065-.46-.037-.457-.044-1.953 1.767.446.233.047.214.03.188.015.17.002.148-.01.126-.02.11-.03.094-.038.088-.043.022-.015-.447-.457-.536-.563-.5-.541-.471-.522-.44-.508-.412-.494-.381-.484-.356-.476-.332-.47-.306-.469-.281-.468-.262-.469-.237-.472-.218-.476-.197-.482-.18-.489-.16-.5-.145-.508-.13-.522-.117-.536-.108-.551-.094-.572-.089-.59-.08-.614-.08-.642-.073-.67-.073-.703-.073-.734-.064-.672c-.668.482-1.545.794-2.51 1.14-2.742.98-6.316 2.256-6.824 9.278l-.066.896-.792-.42c-4.258-2.254-7.64-5.797-9.82-10.764a28.18 28.18 0 0 1-1.129-3.044 33.994 33.994 0 0 1-.437-1.565c-.992 2.05-2.378 3.855-4.158 5.414-1.95 1.71-4.368 3.12-7.256 4.23l-2.15 1.76-.497.441-.445.433-.399.422-.356.413-.316.405-.283.399-.253.393-.225.39-.206.387-.187.388-.17.385-.16.388-.154.393-.148.395-.146.4-.15.407-.157.413-.167.417-.183.422-.199.427-.223.432-.25.433-.282.435-.314.434-.35.431-.388.431-.173.17.296-.034.326-.057.306-.073.293-.092.28-.111.263-.128.253-.15.243-.168 3.525-2.907-1.605 4.532c-.518 4.79-.111 8.28.852 10.987.956 2.684 2.476 4.61 4.187 6.279 1.117-4.82 2.799-8.267 4.899-10.697 2.268-2.629 5.015-4.063 8.057-4.747l.805-.183-.096.818c-.493 4.223.268 8.05 2.09 11.54 1.64 3.142 4.139 6.02 7.353 8.68-.64-4.504-.336-8.46.78-11.942 1.24-3.882 3.481-7.171 6.531-9.98l.81-.745.165 1.09c.651 4.362 2.218 7.113 4.48 8.637 1.54 1.038 3.423 1.524 5.577 1.574l.258 1.171c-2.49-.017-4.683-.557-6.49-1.774-2.332-1.572-3.994-4.247-4.794-8.339-2.503 2.5-4.354 5.381-5.422 8.716-1.18 3.692-1.406 7.954-.5 12.888l.275 1.497-1.206-.93c-3.919-3.022-6.94-6.334-8.855-10.004-1.807-3.464-2.63-7.237-2.295-11.377-2.495.695-4.75 1.983-6.64 4.173-2.118 2.453-3.794 6.038-4.863 11.184l-.207 1.004-.757-.69c-2.13-1.942-4.069-4.155-5.244-7.454-.72-2.017-1.145-4.435-1.145-7.432l-.936 2.642-.842 2.38-.264.74zm28.927-90.551-1.22-.156-1.295-.062-1.377.041-1.466.152-1.565.271-1.668.405-1.782.542-1.896.69-1.707.717c5.647 5.694 3.296 8.937.343 13.016-1.701 2.346-3.618 4.995-4.09 8.636l.056.028-.124.595v.007l-.192.932-.126.645-.115.645-.108.648-.098.645-.091.645-.08.648-.074.645-.066.644-.056.645-.046.647-.038.644-.031.645-.02.645-.013.647-.006.644.006.645.014.646.019.645.03.645.04.646.045.645.056.645.066.646.073.645.081.647.09.646.099.645.108.645.115.646.11.572c3.277-2.695 6.545-3.434 9.215-4.04 3.692-.837 6.117-1.387 5.295-7.498l-.18-1.332 1.097.78c2.996 2.127 4.136 4.42 5.21 6.573 1.54 3.097 2.93 5.88 10.22 7.223l-.025-.13-.114-.688-.096-.708-.075-.728-.054-.75-.021-.778.01-.8.05-.825.088-.853.137-.88.185-.907.24-.948.166-.516.11-.434.081-.424.056-.414.025-.408.006-.404-.016-.401-.032-.403-.056-.402-.068-.405-.084-.41-.095-.412-.106-.42-.115-.427-.12-.43-.123-.441-.125-.45-.124-.457-.117-.468-.112-.48-.102-.493-.087-.504-.073-.518-.05-.532-.029-.544-.002-.56.025-.573.058-.589.092-.6.133-.615.17-.626.408-1.253 1.297-.275.595-.147.569-.162.541-.175.518-.186.492-.201.466-.213.445-.226.422-.237.399-.248.377-.258.36-.27.338-.281.32-.29.302-.303.283-.312.268-.324.252-.333.236-.344.221-.356.206-.367.193-.378.18-.387.165-.401.15-.408.139-.422.129-.432.114-.44.102-.452.06-.309-.234-.041-1.345-.337-1.277-.422-1.216-.496-1.156-.56-1.104-.614-1.055-.659-1.016-.692-.98-.717-.954-.736-.933-.741-.919-.743-.909-.732-.905-.715-.91-.69-.919-.66-.932-.616-.954-.57-.979-.516-1.011-.459-1.052-.391-1.102-.318-1.154-.241z" fill="#6e291e"/><path d="M392.868 112.18c-1.37-2.539-2.951-3.865-1.256-4.454 1.696-.587 1.979 3.082 1.256 4.454zm2.592-7.07-.453-.135-.973-.282-.963-.267-.95-.25-.938-.226-.923-.203-.906-.173-.888-.145-.867-.111-.846-.076-.82-.037-.796.002-.765.045-.74.088-.709.134-.678.18-.648.232-.618.28-.59.335-.564.393-.538.456-.512.521-.49.598-.466.674-.435.758-.407.849-.373.94-.341 1.035-.305 1.138-.264 1.24-.11.659.821-.369 1.249-.48 1.154-.355 1.069-.235.992-.117.927.004.863.124.796.246.715.363.628.46.543.536.46.594.392.636.339.668.296.693.268.713.247.726.237.736.229.737.237.734.245.724.264.708.285.683.312.654.347.621.381.58.424.534.472.49.528.44.593.389.37.186c.588-3.708 2.526-6.385 4.252-8.766 2.753-3.802 4.917-6.788-1.06-12.308z" fill="#feca00"/><path d="m327.045 263.43 15.465 37.597H477.6l13.03-38.352-22.758 23.064-1.637 1.657-.012-2.327-.162-31.788-16.083 26.341-1.231 2.013-.53-2.298-5.767-25.125-10.77 23.437-.909 1.975-.85-1.998-10.307-24.264-11.192 21.626-.919 1.777-.811-1.825-9.913-22.258-10.839 21.72-.88 1.767-.85-1.782-9.974-20.894-6.553 22.472-.531 1.82-1.154-1.504-16.527-21.52 1.347 26.766.111 2.228-1.699-1.447-22.185-18.877z" fill="none"/><path d="m329.397 266.696 13.76 33.433h133.576l11.654-33.812-19.83 20.094-1.636 1.66-1.638 1.658-.012-2.33-.011-2.327-.145-28.398-14.319 23.449-1.229 2.013-1.23 2.016-.527-2.303-.53-2.298-5.134-22.376-9.593 20.873-.91 1.975-.909 1.976-.847-2-.85-1.997-9.51-22.384-10.25 19.81-.92 1.776-.92 1.776-.81-1.824-.814-1.825-9.082-20.397-9.928 19.898-.88 1.767-.885 1.767-.847-1.782-.85-1.782-8.89-18.62-5.847 20.05-.53 1.822-.531 1.818-1.154-1.502-1.156-1.507-14.643-19.068 1.19 23.688.113 2.227.111 2.226-1.699-1.447-1.701-1.447-19.207-16.346z" fill="#e20010"/><path d="M365.73 338.188c-5.526.28-10.327.418-15.945 1.848-3.443.874-6.79 2.07-10.013 3.674-5.32-1.5-11.548-3.788-12.352-14.217-.886-11.517 19.795-15.556 41.72-17.52 7.302-.654 14.675-1.072 21.465-1.455 13.519-.763 23.08-.75 36.353 0 6.794.383 14.165.801 21.469 1.454 21.923 1.965 42.603 6.004 41.715 17.521-.803 10.429-7.03 12.718-12.351 14.217-3.224-1.603-6.568-2.8-10.01-3.674-5.62-1.43-10.42-1.569-15.946-1.848-29.027-1.453-57.134-1.453-86.105 0zm-23.835 6.111c3.87 1.1 6.809 2.31 6.422 6.653-.023.25-.102.485-.231.707 5.238-1.044 9.15-2.335 11.498-3.915 1.724-1.162 2.522-2.5 2.273-4.044a55.818 55.818 0 0 0-2.321-3.87c-3.228.329-6.383.851-9.445 1.631a49.576 49.576 0 0 0-8.196 2.838zm2.16 9.412c-4.928 1.165-13.74 1.443-24.385 1.778-16.953.53-38.66 1.214-56.345 5.352-19.971 4.674-34.81 13.768-31.622 32.1 34.894-15.35 56.715-14.182 75.98-13.147 11.254.605 21.633 1.163 33.199-1.682 7.31-1.8 13.392-4.297 17.727-7.618 2.865-2.195 4.959-4.748 6.132-7.691 1.17-2.93 1.428-6.272.628-10.06-.447-2.107-1.217-4.352-2.34-6.74-.463 1.082-1.382 2.074-2.73 2.982-3.106 2.088-8.666 3.678-16.225 4.86l-.019-.134zm-111.292 47.476c.135-2.426 2.065-4.275 4.312-4.135 2.248.143 3.963 2.224 3.832 4.647-.045.796.015 1.444.156 1.954.179.647.497 1.131.898 1.447.435.343 1.04.54 1.737.586a5.195 5.195 0 0 0 1.898-.245c.307-.1.653-.331 1.012-.68.768-.748 1.433-1.898 1.797-3.356.397-1.601.413-3.543-.187-5.717-.55-1.994-1.612-4.169-3.348-6.462a163.574 163.574 0 0 1 8.219-2.718c1.38 2.283 2.327 4.526 2.923 6.676 1.067 3.865 1.003 7.442.25 10.484-.792 3.185-2.356 5.807-4.215 7.61-1.257 1.222-2.676 2.099-4.13 2.567-1.596.512-3.19.717-4.696.62a10.83 10.83 0 0 1-6.063-2.298c-1.796-1.416-3.176-3.426-3.888-6.01-.418-1.51-.603-3.174-.507-4.97zm242.906-56.888c-3.87 1.1-6.81 2.31-6.42 6.653.02.25.1.485.232.707-5.24-1.044-9.152-2.335-11.5-3.915-1.726-1.162-2.524-2.5-2.275-4.044a55.87 55.87 0 0 1 2.323-3.87c3.225.329 6.383.851 9.444 1.631a49.576 49.576 0 0 1 8.196 2.838zm-2.161 9.412c4.928 1.165 13.74 1.443 24.387 1.778 16.95.53 38.66 1.214 56.345 5.352 19.97 4.674 34.81 13.768 31.621 32.1-34.893-15.35-56.716-14.182-75.98-13.147-11.254.605-21.63 1.163-33.198-1.682-7.312-1.8-13.392-4.297-17.727-7.618-2.867-2.195-4.96-4.748-6.135-7.691-1.165-2.93-1.425-6.272-.626-10.06.445-2.107 1.218-4.352 2.343-6.74.459 1.082 1.38 2.074 2.728 2.982 3.104 2.088 8.666 3.678 16.224 4.86l.018-.134zM584.8 401.187c-.131-2.426-2.062-4.275-4.31-4.135-2.248.143-3.965 2.224-3.832 4.647.042.796-.016 1.444-.158 1.954-.177.647-.493 1.131-.896 1.447-.435.343-1.04.54-1.738.586a5.19 5.19 0 0 1-1.898-.245c-.304-.1-.653-.331-1.011-.68-.77-.748-1.435-1.898-1.798-3.356-.396-1.601-.414-3.543.187-5.717.551-1.994 1.613-4.169 3.349-6.462a164.73 164.73 0 0 0-8.221-2.718c-1.38 2.283-2.328 4.526-2.921 6.676-1.067 3.865-1.006 7.442-.25 10.484.791 3.185 2.356 5.807 4.213 7.61 1.258 1.222 2.678 2.099 4.13 2.567 1.596.512 3.19.717 4.696.62a10.83 10.83 0 0 0 6.065-2.298c1.794-1.416 3.173-3.426 3.886-6.01.418-1.51.605-3.174.507-4.97z" fill="#fff"/><path d="M574.305 381.09c1.214.607 2.428 1.216 3.64 1.82l-1.72 3.636c-1.214-.605-2.428-1.213-3.642-1.82l1.722-3.636zm-5.986 1.567-.042-2.52-2.568-1.022-1.607 1.863c-2.499-.992-4.747-1.624-7.36-2.315l-1.152-3.066v-.005c-.158-.422-.433-1.655-.936-1.877l-.964 4.138c-1.346-.354-2.691-.71-4.034-1.065l.01-.04c-1.557-.214-3.11-.432-4.665-.648l-1.514-2.917c-.214-.408-.626-1.583-1.146-1.755l-.447 4.243-4.123-.573 1.298-12.307c1.967.274 3.95.507 5.91.828 2.022.332 3.77 1.255 4.114 3.343.268 1.62-.445 3.414-2.005 4.146 1.061 1.623 1.815 3.57 2.655 5.31l2.709-11.644 5.313 1.406.006.002c.121.03.276.075.457.127 1.514.443 2.936 1.118 3.483 2.688l.004.006c.125.364.196.737.214 1.119.061 1.483-1.04 3.397-2.505 3.859.295.593.516 1.23.726 1.855l.815 2.38 7.798-8.618 3.373 1.34.428 13.404-4.245-1.685zm-12.82-12.585c.553.144 1.106.3 1.669.41.418.118.669-.406-.1-.55-.49-.093-.963-.263-1.443-.39l-.125.53zm-12.765-2.372.547.077c.428.058.81.1 1.15.123.514.074.532-.425.017-.508a29.66 29.66 0 0 0-1.09-.162l-.567-.079-.057.55zm-16.022-5.533 9.735.497a2433.19 2433.19 0 0 1-.067 3.82l-5.582-.287-.004.224 5.194.266c-.023 1.27-.044 2.54-.065 3.809l-5.194-.266-.014.747 5.78.295-.067 3.813-9.934-.509.218-12.41zm-6.466 8.5c-.318.412-1.26.362-1.572.139v-.004a.714.714 0 0 1-.235-.272l-.004-.004a.775.775 0 0 1-.056-.154c-.547-2.564-.343-5.57-.478-8.126-1.383.025-2.77.054-4.154.079l.345 6.587c.048.942.122 1.942.382 2.853.478 1.66 1.94 2.746 3.716 2.98 1.22.163 2.682.14 3.827-.363 2.427-1.075 2.502-3.347 2.375-5.813l-.337-6.439c-1.385.027-2.77.054-4.154.077.143 2.76.703 5.632.362 8.38v.003a.37.37 0 0 1-.017.077zm-14.384-3.346 1.073-.02 1.316-.025c-.054-.15-.095-.302-.17-.441-.273-.499-.78-.669-1.318-.659-.847.017-1.48.391-1.693 1.222l-.006.003c-.21.823-.098 2.205.374 2.993.148.248.366.468.616.612l-.192-3.685zm5.556-.052 1.012-.026.289 5.52c-.966 1.004-2.037 1.644-3.386 2.029-1.74.497-3.733.407-5.348-.447l-.004-.004a5.617 5.617 0 0 1-1.345-.992c-1.965-1.965-2.427-5.433-1.242-7.91l.004-.005c.252-.52.572-.984.961-1.39a5.606 5.606 0 0 1 1.353-1.028c.046-.027.073-.04.082-.046 1.068-.559 2.328-.7 3.52-.636 1.669.091 3.218.734 4.18 2.14.554.812.754 1.59 1 2.523l-1.076.272zm-5.105 3.857c.495.18 1.06.146 1.549-.03l-1.55.03zm-19.866-9.963 3.628.503 2.16 4.603.448-4.24c1.324.182 2.65.367 3.973.552l-1.298 12.305c-1.23-.171-2.463-.34-3.694-.512l-2.107-4.454-.434 4.101c-1.325-.185-2.65-.368-3.975-.55l1.299-12.308zm-9.712-2.414 9.471 2.507c-.285 1.234-.574 2.468-.861 3.7l-5.439-1.439-.05.21 5.061 1.34-.857 3.693-5.063-1.341-.166.715 5.632 1.49-.86 3.696-9.662-2.557 2.794-12.014zm-99.858-40.328h9.161v3.814h-5.005v.384h4.321v3.818h-4.321v4.397h-4.156V318.42zm10.722 0h4.154v12.413h-4.154V318.42zm6.048 0h9.737v3.814h-5.582v.23h5.195v3.807h-5.195v.751h5.78v3.81h-9.935v-12.412zm11.615 0h5.455c.576 0 1.09.025 1.535.079 1.222.14 2.227.566 2.929 1.67v.004c.202.324.358.668.458 1.038.102.368.152.75.152 1.14v.007c0 .5-.079.97-.233 1.402v.004a1.971 1.971 0 0 1-.084.214 3.522 3.522 0 0 1-1.395 1.62c.422.509.78 1.075 1.129 1.636l.004-.002 2.256 3.6h-4.913l-1.821-2.712c-.247-.374-.778-1.381-1.21-1.549 0 0 0-.002-.002-.002l-.008-.002c-.025-.01-.057-.015-.094-.023v4.289h-4.158V318.42zm4.158 4.373c.555 0 1.112.006 1.667-.029.58.008.535-.476.144-.512-.603-.023-1.21-.018-1.811-.018v.56zm8.25-4.373c2.318 0 4.684-.193 6.988.079 1.223.14 2.229.566 2.928 1.67v.004a4.06 4.06 0 0 1 .613 2.179v.006c0 .5-.077.97-.231 1.402v.004c-.027.071-.054.143-.085.214a3.567 3.567 0 0 1-1.399 1.62c.426.509.782 1.075 1.131 1.636l.004-.002 2.254 3.6h-4.91l-1.82-2.712a41.327 41.327 0 0 0-.655-.953l-.003.001c-.143-.198-.31-.5-.551-.597-.002 0-.002 0-.002-.002h-.006c0-.002 0-.002-.002-.002h-.002a1.204 1.204 0 0 0-.096-.023v4.289h-4.156V318.42zm4.264 8.151c-.002 0-.002 0-.002-.002h-.006s0-.002-.002-.002h-.002l.012.004zm-.108-3.778c.556 0 1.113.006 1.668-.029.574.033.418-.528.147-.512-.605-.023-1.21-.018-1.815-.018v.56zm7.824 1.898c0-3.663 2.254-6.449 6.036-6.449 3.645 0 6.065 2.719 6.065 6.397 0 2.161-.775 4.277-2.686 5.477-1.01.632-2.175.892-3.356.892-.896 0-1.707-.14-2.435-.422l-.006-.004c-.133-.05-.25-.1-.353-.148h-.003c-2.235-1.042-3.262-3.296-3.262-5.743zm6.057 2.468c1.472 0 1.819-1.335 1.819-2.568v-.008c0-.497-.052-.917-.152-1.256v-.006a1.559 1.559 0 0 0-.049-.146c-.485-1.34-2.539-1.445-3.16-.197-.704 1.414-.492 4.18 1.542 4.18zm-189.47 50.343c-.791-2.915-.02-5.928 2.839-7.389 3.668-1.87 7.718-.283 8.837 3.857.965 3.574-.541 6.734-4.15 7.83l-.03.01h-.004c-3.605 1.083-6.528-.75-7.491-4.308zm5.072.47c.869.534 2.069.106 2.506-.78a2 2 0 0 0 .183-.825c.039-1.485-.703-3.653-2.549-3.092-.672.204-1.179.691-1.3 1.364-.175.946.293 2.795 1.16 3.333zm8.113-9.812-.156-.985c1.768-.341 5.286-1.433 7.41-1.324 1.414.072 2.643.754 3.267 2.108.557 1.206.524 2.705-.193 3.836l-.005.008a3.67 3.67 0 0 1-.653.759c.152.13.317.283.497.458v.006c.264.264.554.57.867.921l2.778 3.089-4.805.936-2.235-2.327-.004-.004a31.001 31.001 0 0 0-.79-.804l-.004-.004a4.956 4.956 0 0 0-.393-.354.915.915 0 0 0-.144-.087.533.533 0 0 0-.093-.025c-.025-.002-.071 0-.14.004l.672 4.21c-1.362.266-2.726.531-4.088.795l-1.788-11.216zm4.616 2.518c.541-.104 1.083-.205 1.616-.343.736-.125.4-.57.124-.538-.611.095-1.22.224-1.825.341l.085.54zm9.051.258a9.381 9.381 0 0 1 .025-1.634v-.004c.166-1.56.88-3.019 2.093-4.038a4.8 4.8 0 0 1 .845-.574c1.465-.798 3.436-1.035 5.033-.597 2.572.7 3.9 2.99 4.08 5.596.153 2.176-.49 4.335-2.29 5.71-1.243.947-3.087 1.388-4.688 1.25-3.117-.272-4.888-2.696-5.098-5.71zm4.214-.385c.063.86.316 1.888 1.239 2.182.784.253 1.726-.121 2.119-.834a1.88 1.88 0 0 0 .098-.21c.316-.786.25-2.108-.052-2.917a1.766 1.766 0 0 0-.364-.607c-.483-.296-.713-.483-1.349-.418-1.522.162-1.784 1.468-1.691 2.804zm14.084-7.418 9.739-.355v3.82l-5.584.203v.226l5.196-.19v3.812l-5.196.189v.747l5.78-.208v3.81c-3.31.122-6.624.242-9.935.363v-12.417zm12.06-.437c1.208-.045 2.418-.089 3.626-.131l.316.502 2.328 3.715v-4.316l.996-.036 1.942-.07 1.069-.038v12.417c-1.227.046-2.456.089-3.682.133l-2.587-4.09v4.184c-1.335.05-2.673.099-4.008.145v-12.415zm16.44-.74 4.345-.308h.004l.354-.026c1.008-.061 2.116-.161 3.073.224 2.187.875 2.944 3.718 1.963 5.753-.052.11-.489.796-.487.798-1.177 1.514-3.06 1.645-4.805 1.768l.137 3.898c-1.384.096-2.769.196-4.15.295l-.434-12.402zm4.312 4.383c.337-.023.676-.046 1.008-.102.726-.081.828-.854-.131-.807a27.06 27.06 0 0 0-.89.048l.013.86zm14.521 6.003-1.185-2.18-2.693.429-.56 2.456-4.432.706 3.287-13.034c1.19-.189 2.383-.38 3.576-.568l5.726 10.197.722 1.29-4.44.704zm3.811-3.996 2.869-6.26-3.549 1.014c-.31-1.229-.618-2.456-.929-3.685l9.337-2.667c.246.983.495 1.965.742 2.946l-3.03 6.576 4.141-1.183-.144-.392 3.778-1.512c.466 1.258.929 2.516 1.393 3.772l-3.71 1.488.05.196-10.145 2.898-.803-3.19z" fill="none"/><path d="m573.947 384.256.838-1.77 1.796.897-.836 1.769-1.798-.896zm-4.684-6.692-.027-4.097-2.626 3.042 2.653 1.055zm2.216 5.239-2.137-.852-.046-2.518-3.886-1.547-1.607 1.863-2.082-.828 7.327-8.098 2.077.827.354 11.153zm-17.21-11.991 1.506.398c.975.259 1.595.38 1.86.365.257-.02.48-.112.668-.276.183-.164.31-.393.38-.694.078-.339.051-.633-.084-.888-.13-.254-.356-.454-.674-.597-.16-.064-.653-.206-1.48-.426l-1.585-.418-.592 2.536zm-3.38 5.234 2.327-10.005 4.285 1.135c1.08.285 1.84.584 2.287.89a2.5 2.5 0 0 1 .95 1.27c.187.54.21 1.102.073 1.691-.175.752-.543 1.314-1.1 1.686-.557.37-1.296.503-2.212.393.382.376.682.75.898 1.131.214.382.474 1.025.779 1.93l.78 2.28-2.435-.646-.966-2.566c-.343-.919-.587-1.5-.732-1.755a1.715 1.715 0 0 0-.516-.58c-.199-.129-.53-.258-1-.381l-.41-.11-.973 4.177-2.035-.54zm-9.284-7.462 1.535.212c.998.14 1.624.185 1.884.135a1.07 1.07 0 0 0 .627-.352c.161-.187.26-.432.29-.74.039-.347-.026-.636-.188-.875-.162-.237-.409-.408-.74-.512-.166-.045-.67-.128-1.514-.245l-1.619-.224-.275 2.601zm-2.705 5.632 1.08-10.257 4.378.606c1.1.155 1.888.357 2.366.61.48.254.846.635 1.096 1.148.25.516.341 1.073.277 1.68-.082.766-.375 1.373-.882 1.81-.505.438-1.22.661-2.137.665a5.11 5.11 0 0 1 1.023 1.018c.26.352.596.961 1.008 1.828l1.046 2.175-2.483-.345-1.27-2.44c-.449-.874-.76-1.425-.936-1.66a1.707 1.707 0 0 0-.58-.516c-.212-.104-.555-.19-1.035-.258l-.42-.06-.45 4.283-2.081-.287zm-11.356-.622.181-10.34 7.672.39-.03 1.752-5.582-.285-.04 2.29 5.193.266-.028 1.742-5.197-.266-.048 2.815 5.78.297-.033 1.741-7.868-.402zm-12.708-10.258 2.086-.038.291 5.606c.047.89.106 1.468.17 1.728.112.424.343.761.69 1.01.35.252.817.37 1.4.358.592-.01 1.033-.138 1.32-.389.29-.245.455-.547.495-.901.045-.355.043-.94 0-1.761l-.3-5.726 2.086-.04.283 5.438c.068 1.245.058 2.123-.028 2.638-.087.516-.272.951-.555 1.31-.287.358-.678.649-1.174.867-.495.22-1.154.335-1.973.35-.986.02-1.74-.08-2.261-.298-.522-.222-.94-.51-1.255-.87a2.972 2.972 0 0 1-.645-1.134c-.168-.591-.281-1.466-.341-2.626l-.289-5.522zm-7.793 6.743-.093-1.745 4.499-.083.214 4.125c-.416.432-1.029.815-1.842 1.154a6.778 6.778 0 0 1-2.493.53c-1.081.02-2.035-.189-2.863-.628a4.52 4.52 0 0 1-1.913-1.915 6.43 6.43 0 0 1-.752-2.748c-.056-1.077.12-2.04.524-2.888a4.372 4.372 0 0 1 1.883-1.963c.645-.356 1.462-.541 2.448-.56 1.284-.026 2.299.227 3.048.75.748.527 1.253 1.263 1.509 2.21l-2.052.428a2.304 2.304 0 0 0-.886-1.19c-.416-.287-.925-.424-1.528-.413-.91.016-1.618.32-2.129.908-.509.591-.73 1.455-.67 2.595.063 1.227.383 2.144.963 2.75.576.604 1.306.897 2.189.88a3.51 3.51 0 0 0 1.304-.283 4.244 4.244 0 0 0 1.096-.646l-.067-1.312-2.39.044zm-20.766 2.507 1.083-10.255 2.023.279 3.49 7.435.722-6.85 1.932.27-1.08 10.254-2.087-.291-3.443-7.262-.707 6.688-1.933-.268zm-11.105-2.562 2.328-10.007 7.477 1.978-.395 1.694-5.44-1.44-.515 2.218 5.061 1.34-.391 1.683-5.063-1.339-.634 2.724 5.631 1.49-.39 1.687-7.669-2.028zM377.91 329.8v-10.348h7.096v1.75H380v2.448h4.32v1.754H380v4.396h-2.09zm10.722 0v-10.348h2.088V329.8h-2.088zm6.047 0v-10.348h7.672v1.75h-5.583v2.294h5.196v1.744h-5.196v2.817h5.78v1.743h-7.869zm11.616 0v-10.348h4.399c1.107 0 1.909.093 2.41.278.503.187.905.516 1.204.99.302.478.45 1.02.45 1.632 0 .776-.229 1.42-.683 1.926-.457.501-1.139.823-2.048.954.454.264.826.553 1.12.87.296.315.689.874 1.19 1.68l1.264 2.018h-2.5l-1.51-2.254c-.54-.803-.903-1.31-1.102-1.52a1.616 1.616 0 0 0-.63-.432c-.22-.077-.57-.113-1.052-.113h-.42v4.32h-2.092zm2.092-5.974h1.544c1.001 0 1.628-.04 1.88-.125a1.13 1.13 0 0 0 .586-.44c.138-.206.21-.464.21-.774 0-.35-.095-.628-.278-.844-.187-.214-.449-.349-.79-.407-.17-.02-.676-.034-1.526-.034h-1.626v2.624zm10.316 5.974v-10.348h4.398c1.108 0 1.911.093 2.41.278.501.187.904.516 1.204.99.303.478.453 1.02.453 1.632 0 .776-.23 1.42-.686 1.926-.454.501-1.14.823-2.048.954.453.264.827.553 1.122.87.292.315.687.874 1.186 1.68l1.266 2.018h-2.499l-1.512-2.254c-.536-.803-.904-1.31-1.1-1.52a1.638 1.638 0 0 0-.628-.432c-.222-.077-.57-.113-1.054-.113h-.422v4.32h-2.09zm2.09-5.974h1.545c1.002 0 1.63-.04 1.879-.125.248-.083.445-.23.585-.44.14-.206.214-.464.214-.774 0-.35-.094-.628-.281-.844-.185-.214-.447-.349-.786-.407-.17-.02-.678-.034-1.526-.034h-1.63v2.624zm9.887.865c0-1.056.157-1.94.472-2.657.237-.526.557-1 .966-1.42a4.025 4.025 0 0 1 1.335-.929c.645-.275 1.389-.41 2.233-.41 1.526 0 2.743.472 3.66 1.418.916.946 1.374 2.26 1.374 3.946 0 1.672-.456 2.978-1.364 3.922-.91.944-2.125 1.415-3.641 1.415-1.542 0-2.763-.469-3.672-1.407-.91-.94-1.363-2.235-1.363-3.878zm2.153-.073c0 1.173.273 2.061.81 2.666.544.605 1.232.906 2.064.906.832 0 1.514-.297 2.052-.902.532-.6.8-1.497.8-2.697 0-1.185-.263-2.07-.779-2.655-.522-.584-1.212-.875-2.073-.875-.863 0-1.557.297-2.085.886-.524.59-.79 1.48-.79 2.67zm-185.6 52.618c-.273-1.01-.35-1.902-.23-2.68.092-.572.279-1.12.562-1.64a4.26 4.26 0 0 1 1.052-1.283c.553-.452 1.235-.8 2.048-1.048 1.474-.449 2.775-.354 3.904.281 1.13.634 1.913 1.758 2.348 3.37.432 1.6.33 2.983-.302 4.154-.634 1.168-1.684 1.977-3.15 2.422-1.488.454-2.792.364-3.913-.266-1.12-.632-1.892-1.738-2.318-3.31zm2.06-.7c.305 1.12.798 1.89 1.474 2.31.682.42 1.422.505 2.228.26.803-.242 1.387-.73 1.749-1.464.358-.73.383-1.668.073-2.816-.308-1.133-.788-1.904-1.44-2.31-.652-.407-1.396-.482-2.228-.228-.833.25-1.426.738-1.782 1.459-.357.718-.382 1.647-.074 2.79zm12.764 1.625-1.616-10.163 4.345-.844c1.092-.214 1.9-.276 2.421-.19.526.086.975.332 1.347.74.372.411.605.914.701 1.515.12.763-.005 1.44-.375 2.023-.372.582-.996 1.029-1.875 1.331a4.61 4.61 0 0 1 1.243.638c.339.255.817.727 1.435 1.42l1.566 1.742-2.468.48-1.843-1.921c-.657-.688-1.099-1.114-1.328-1.283a1.584 1.584 0 0 0-.686-.303c-.231-.033-.584-.004-1.06.089l-.416.08.677 4.243-2.068.403zm1.131-6.266 1.526-.298c.99-.193 1.603-.353 1.838-.486.233-.129.401-.312.509-.541.106-.231.137-.5.089-.804-.054-.344-.191-.599-.409-.774-.216-.175-.497-.256-.84-.249-.171.012-.674.099-1.512.26l-1.611.314.41 2.578zm10.934-1.029c-.073-1.05.021-1.943.287-2.691a5.136 5.136 0 0 1 .863-1.514 4.28 4.28 0 0 1 1.268-1.068c.624-.34 1.356-.555 2.198-.643 1.522-.162 2.77.179 3.75 1.023.98.844 1.527 2.104 1.645 3.78.117 1.663-.245 3.013-1.087 4.048-.842 1.034-2.019 1.632-3.533 1.792-1.536.163-2.79-.172-3.761-1.01-.973-.84-1.514-2.077-1.63-3.717zm2.142-.296c.081 1.165.415 2.02.996 2.566.584.543 1.29.769 2.122.684.828-.089 1.49-.46 1.982-1.115.49-.654.694-1.576.609-2.771-.083-1.18-.405-2.03-.961-2.559-.561-.526-1.27-.741-2.13-.65-.859.092-1.529.46-2.015 1.101-.483.644-.685 1.557-.603 2.744zm16.155 3.907V364.13l7.674-.277v1.75l-5.583.203v2.295l5.196-.189v1.742l-5.196.189v2.816l5.78-.21v1.746l-7.87.283zm12.061-.435v-10.35l2.035-.074 4.234 6.755v-6.909l1.944-.07v10.349l-2.1.077-4.17-6.599v6.75l-1.943.07zm16.835-.794-.36-10.329 3.348-.239c1.268-.09 2.1-.096 2.49-.02.597.11 1.107.411 1.525.903.418.49.64 1.148.67 1.969.02.635-.074 1.177-.292 1.624a2.98 2.98 0 0 1-.842 1.08 3.165 3.165 0 0 1-1.065.567c-.496.133-1.216.235-2.162.303l-1.36.098.135 3.895-2.087.149zm1.788-8.73.102 2.929 1.142-.081c.823-.058 1.372-.15 1.646-.28.273-.127.483-.31.634-.553.148-.242.22-.514.21-.818-.014-.378-.137-.679-.366-.908a1.373 1.373 0 0 0-.854-.397c-.252-.032-.755-.017-1.506.035l-1.008.073zm18.436 6.335-2.258.358-1.185-2.183-4.106.656-.56 2.456-2.199.35 2.74-10.862 2.193-.348 5.375 9.573zm-4.32-3.439-1.882-3.57-.919 4.017 2.801-.447zm6.855 2.84-.456-1.811 3.65-7.963-4.677 1.335-.422-1.682 7.348-2.1.393 1.563-3.81 8.282 5.712-1.632.422 1.677-8.16 2.33zm9.888-3.135-.68-1.84 1.863-.745.678 1.838-1.861.747z" fill="#feca00" fill-rule="evenodd"/><path d="m405.058 110.386 2.393 4.236 11.968-.369-14.36-3.867z" fill="#161413"/><path d="m405.058 110.386 2.393 4.236 11.968-.369-14.36-3.867z" fill="none" stroke="#161413" stroke-width=".416"/><path d="M116.33 464.138h9.989c.045 2.023.82 3.86 2.323 5.537 1.502 1.678 4.243 2.509 8.219 2.509 6.948 0 10.416-2.15 10.416-6.449 0-1.769-.717-3.052-2.14-3.85-1.42-.799-3.721-1.585-6.89-2.334l-5.34-1.24c-3.572-.841-6.393-1.675-8.462-2.508-2.068-.83-3.814-2.22-5.225-4.138-1.42-1.93-2.126-4.59-2.126-8 0-2.312.532-4.612 1.584-6.91 1.052-2.303 3.005-4.278 5.86-5.933 2.855-1.653 6.752-2.485 11.698-2.485 3.618 0 6.694.509 9.225 1.538 2.533 1.028 4.544 2.371 6.034 4.01 1.48 1.656 2.544 3.388 3.18 5.237.647 1.838.97 3.607.993 5.306h-9.998a11.707 11.707 0 0 0-.914-3.329c-.473-1.061-1.457-2.02-2.924-2.89-1.481-.855-3.596-1.283-6.369-1.283-2.324 0-4.348.486-6.081 1.445-1.723.96-2.589 2.464-2.589 4.52 0 1.71.485 2.915 1.468 3.607.97.695 2.242 1.225 3.813 1.606l12.14 2.983c4.114 1.006 7.317 2.474 9.605 4.393 2.3 1.93 3.445 4.924 3.445 8.982 0 3.49-.751 6.346-2.254 8.579-1.504 2.217-3.329 3.882-5.49 4.97-2.151 1.097-4.277 1.827-6.382 2.207-2.093.371-3.931.554-5.513.554-4.254 0-7.816-.543-10.681-1.618-2.856-1.073-5.052-2.462-6.567-4.15-1.526-1.7-2.577-3.48-3.168-5.35-.59-1.875-.879-3.713-.879-5.516zm59.372 5.042-3.467 10.277h-10.96l17.744-49.802h12.012l17.535 49.802h-11.294l-3.202-10.277h-18.368zm9.155-28.277-6.382 19.688h12.684l-6.162-19.688h-.14zm60.77 23.431v-34.68h9.699v49.803h-10.393L224.6 443.943h-.139v35.514h-9.699v-49.802h10.947l19.78 34.68h.138zm64.758-5.824v20.947h-10.392v-49.802h35.442v8.797h-25.05v11.26h21.929v8.798h-21.93zm31.997 20.947v-49.802h25.178c4.01 0 7.203.811 9.536 2.418 2.347 1.607 3.954 3.489 4.82 5.641.88 2.162 1.319 4.173 1.319 6.032 0 2.788-.682 5.26-2.035 7.41-1.364 2.15-3.248 3.63-5.664 4.441 1.56.68 2.763 1.397 3.63 2.171.867.763 1.526 1.944 1.988 3.54.462 1.593.694 3.893.694 6.9 0 2.831.034 4.821.104 5.975.069 1.158.242 2.035.543 2.636.3.601.82 1.042 1.572 1.318v1.32h-11.514c-.728-2.486-1.098-5.84-1.098-10.06 0-2.566-.148-4.471-.462-5.722-.312-1.26-1.04-2.184-2.185-2.797-1.133-.61-2.97-.913-5.48-.913h-10.761v19.492h-10.185zm10.185-27.885h12.218c2.753 0 4.786-.53 6.08-1.581 1.307-1.066 1.968-2.798 1.968-5.214 0-1.736-.534-3.25-1.597-4.566-1.064-1.308-2.96-1.967-5.7-1.967h-12.97v13.328zm50.435 17.608-3.468 10.277h-10.959l17.745-49.802h12.01l17.537 49.802h-11.294l-3.202-10.277h-18.369zm9.155-28.277-6.38 19.688h12.68l-6.16-19.688h-.14zm60.77 23.431v-34.68h9.7v49.803h-10.393L451.9 443.943h-.139v35.514h-9.698v-49.802h10.947l19.779 34.68h.138zm61.869-18.38H524.38c-.659-2.404-1.722-4.45-3.2-6.115-1.482-1.663-4.092-2.497-7.828-2.497-3.202 0-6.067 1.332-8.577 3.99-2.509 2.647-3.769 7.133-3.769 13.43 0 3.134.428 5.99 1.295 8.557.867 2.566 2.22 4.622 4.069 6.148 1.838 1.537 4.173 2.3 6.982 2.3 1.93 0 3.655-.356 5.156-1.061 1.514-.717 2.763-1.78 3.768-3.202 1.006-1.413 1.711-3.123 2.104-5.112h10.416c-.717 3.676-1.989 6.902-3.815 9.653-1.838 2.765-4.254 4.903-7.248 6.44-3.006 1.526-6.532 2.287-10.577 2.287-4.463 0-8.416-.992-11.85-2.992-3.433-1.99-6.114-4.96-8.033-8.903-1.92-3.94-2.879-8.69-2.879-14.24 0-5.63.994-10.415 2.994-14.382 1.989-3.965 4.717-6.936 8.196-8.924 3.468-2 7.375-2.994 11.71-2.994 3.526 0 6.647.545 9.352 1.63 2.705 1.077 4.913 2.497 6.649 4.254 1.72 1.746 3.04 3.643 3.93 5.688.9 2.034 1.42 4.045 1.57 6.045zm17.457-16.3v49.803h-10.394v-49.802h10.394zm7.153 34.484h9.988c.046 2.023.82 3.86 2.324 5.537 1.502 1.678 4.242 2.509 8.219 2.509 6.947 0 10.415-2.15 10.415-6.449 0-1.769-.717-3.052-2.139-3.85-1.421-.799-3.722-1.585-6.89-2.334l-5.34-1.24c-3.572-.841-6.39-1.675-8.462-2.508-2.069-.83-3.814-2.22-5.225-4.138-1.422-1.93-2.127-4.59-2.127-8 0-2.312.532-4.612 1.584-6.91 1.052-2.303 3.006-4.278 5.86-5.933 2.858-1.653 6.752-2.485 11.7-2.485 3.618 0 6.693.509 9.226 1.538 2.53 1.028 4.541 2.371 6.032 4.01 1.48 1.656 2.545 3.388 3.18 5.237.647 1.838.97 3.607.993 5.306h-9.999a11.692 11.692 0 0 0-.913-3.329c-.474-1.061-1.457-2.02-2.925-2.89-1.48-.855-3.593-1.283-6.37-1.283-2.323 0-4.346.486-6.08 1.445-1.722.96-2.589 2.464-2.589 4.52 0 1.71.486 2.915 1.468 3.607.971.695 2.243 1.225 3.815 1.606l12.138 2.983c4.115 1.006 7.317 2.474 9.606 4.393 2.3 1.93 3.445 4.924 3.445 8.982 0 3.49-.752 6.346-2.253 8.579-1.504 2.217-3.33 3.882-5.492 4.97-2.15 1.097-4.278 1.827-6.381 2.207-2.093.371-3.93.554-5.514.554-4.254 0-7.815-.543-10.682-1.618-2.855-1.073-5.051-2.462-6.566-4.15-1.526-1.7-2.578-3.48-3.167-5.35-.59-1.875-.879-3.713-.879-5.516zm91.01-18.184h-10.415c-.657-2.404-1.722-4.45-3.202-6.115-1.48-1.663-4.092-2.497-7.826-2.497-3.202 0-6.069 1.332-8.577 3.99-2.508 2.647-3.769 7.133-3.769 13.43 0 3.134.428 5.99 1.295 8.557.867 2.566 2.22 4.622 4.07 6.148 1.837 1.537 4.172 2.3 6.981 2.3 1.93 0 3.653-.356 5.156-1.061 1.514-.717 2.763-1.78 3.77-3.202 1.004-1.413 1.71-3.123 2.102-5.112h10.416c-.715 3.676-1.988 6.902-3.815 9.653-1.838 2.765-4.254 4.903-7.248 6.44-3.005 1.526-6.531 2.287-10.577 2.287-4.462 0-8.416-.992-11.849-2.992-3.431-1.99-6.115-4.96-8.034-8.903-1.919-3.94-2.878-8.69-2.878-14.24 0-5.63.994-10.415 2.994-14.382 1.988-3.965 4.716-6.936 8.195-8.924 3.468-2 7.378-2.994 11.712-2.994 3.524 0 6.645.545 9.35 1.63 2.705 1.077 4.913 2.497 6.647 4.254 1.723 1.746 3.04 3.643 3.93 5.688.902 2.034 1.424 4.045 1.573 6.045zm5.677 8.614c0-5.456.855-9.953 2.578-13.504 1.722-3.548 3.884-6.24 6.461-8.068 2.59-1.827 5.168-3.062 7.734-3.7 2.578-.635 4.96-.959 7.156-.959 2.207 0 4.589.324 7.143.96 2.555.637 5.133 1.86 7.71 3.678 2.592 1.824 4.754 4.508 6.474 8.066 1.723 3.56 2.59 8.071 2.59 13.527 0 5.431-.867 9.94-2.59 13.5-1.72 3.56-3.895 6.256-6.496 8.069-2.601 1.826-5.19 3.052-7.757 3.688-2.578.635-4.936.947-7.074.947-2.139 0-4.497-.323-7.087-.959-2.577-.636-5.178-1.87-7.78-3.7-2.6-1.826-4.762-4.517-6.484-8.068-1.723-3.549-2.578-8.046-2.578-13.477zm10.394 0c0 3.295.414 6.08 1.246 8.368.835 2.277 1.92 4.082 3.26 5.398 1.341 1.32 2.8 2.254 4.358 2.81 1.56.554 3.11.833 4.659.833 1.56 0 3.11-.279 4.67-.822 1.551-.544 3.006-1.49 4.347-2.81 1.352-1.327 2.439-3.132 3.271-5.41.832-2.286 1.249-5.072 1.249-8.367 0-3.308-.417-6.103-1.249-8.394-.832-2.287-1.919-4.092-3.258-5.408-1.343-1.331-2.8-2.268-4.36-2.81-1.56-.544-3.11-.82-4.67-.82-1.549 0-3.11.276-4.67.83-1.56.557-3.017 1.48-4.356 2.8-1.343 1.316-2.416 3.121-3.25 5.408-.833 2.29-1.247 5.086-1.247 8.394z" fill="#092782" fill-rule="evenodd"/></svg>