<svg xmlns="http://www.w3.org/2000/svg" version="1" width="1333.333" height="800"><path fill="#fff" d="M0 0h1333.333v800H0z"/><path d="m594.075 524.267 7.35 2.632-21.82 54.008-7.18-2.901c9.869-23.086 13.39-33.929 21.65-53.739zm31.952 11.309 28.6 4.53-1 6.318-22.282-3.529-.158.998a215.503 215.503 0 0 1-2.946 12.146 6.357 6.357 0 0 0-.649 1.943c3.304-2.204 6.618-3.043 9.944-2.516 4.434.702 7.864 2.723 10.29 6.061 2.612 3.596 3.444 8.387 2.496 14.373-1.194 7.538-4.103 12.986-8.725 16.344-3.596 2.613-7.721 3.55-12.377 2.813-4.434-.703-7.864-2.723-10.29-6.062-2.425-3.338-3.514-7.942-3.266-13.812l7.648 1.211c-.224 4.283.41 7.452 1.904 9.506 1.12 1.541 2.677 2.47 4.672 2.785 2.66.422 4.89-.02 6.687-1.327 2.825-2.052 4.694-5.96 5.607-11.725.878-5.542.477-9.47-1.202-11.78-1.12-1.542-2.566-2.453-4.34-2.733-2.66-.422-5.146.207-7.457 1.886-1.541 1.12-2.586 1.977-3.135 2.572l-6.651-1.053c.362-.852.596-1.61.701-2.276l5.719-25.343.21-1.33zm64.999 2.551 7.687-.944 4.513 36.761 7.018-.861.78 6.35-7.018.86 1.805 14.705-7.686.944-1.806-14.704-22.39 2.749-.821-6.684 17.918-39.176z" style="text-align:start;line-height:125%" font-size="18" font-weight="400" font-family="Arial"/><path d="m692.544 550.492-12.043 26.243 15.039-1.847-2.996-24.396z" style="text-align:start;line-height:125%" font-size="18" font-weight="400" fill="#fff" font-family="Arial"/><path d="M726.038 551.85c-3.05-6.253-3.749-11.782-2.095-16.584 1.343-3.902 3.83-6.738 7.462-8.51 4.439-2.165 8.609-2.575 12.511-1.232 3.902 1.344 6.788 3.932 8.657 7.766 2.362 4.842 2.915 9.816 1.66 14.924a230.26 230.26 0 0 1-3.905 14.267l-2.185 7.809c-.625 2.302-1.049 4.507-1.27 6.613l22.697-11.07 2.804 5.75-30.868 15.055-2.509-5.145c-.58-2.214-.243-5.875 1.012-10.983 2.387-7.907 4.309-14.463 5.766-19.67 1.658-5.303 1.503-9.973-.465-14.008-1.18-2.42-2.971-4.045-5.373-4.872-1.8-.62-3.609-.487-5.425.399-1.614.787-2.73 2.08-3.35 3.882-1.138 3.301-.525 7.373 1.836 12.215l-6.96 3.395z" style="text-align:start;line-height:125%" font-size="18" font-weight="400" font-family="Arial"/><path d="M517.72 376.362c0-82.255 66.689-148.944 148.955-148.944 82.261 0 148.938 66.689 148.938 148.944 0 82.266-66.677 148.95-148.938 148.95-82.266 0-148.955-66.69-148.955-148.95z" fill="#fc0"/><path d="M669 404.382c.793-.087 1.755-.786 2.454-.087.257 1.742 2.436.175 3.136 1.305.518 1.218 2.348.869 2.785 2.267 2.005.443 1.143 2.71 2.536 3.497 0 1.142-.17 2.186.6 3.042.099.53-.076 1.05-.338 1.405.956 1.836-.431 3.398 0 5.414-.17.95-.1 2.005-.88 2.53-1.918.174-1.3 2.435-3.042 2.529-.519.169-1.224.25-1.399.775-.169.705-.874 1.218-1.661 1.404-.962-.186-1.83.25-2.436.775-.525.356-1.399 0-1.661.7-.175 1.742.18 3.234.087 4.977.612 1.492 2.88.606 3.491 2.005 1.312 1.054-.518 2.348.35 3.578.356 2.704-3.147 1.999-3.147 4.365-.874.7-2.43 1.23-2.261 2.791-.257.263-.787.17-.874-.35-.17-1.037-1.137-2.016-.875-3.234-.699-.606-1.917-.262-2.18-1.392.176-1.48-1.573-1.48-1.84-2.705.092-1.125-.863-2.436.267-3.234.869-.956 2.53-.088 3.223-1.306.612-1.917.612-4.446.356-6.276-1.65.256-2.705-1.399-4.366-.7-.955-.361-1.474-1.742-2.704-1.48-1.049-.536-.874-1.841-2.086-2.098-.262-.437-.525-.88-.437-1.474-1.055-.706-.356-2.454-1.655-3.147-.362-.869.518-2.087-.45-2.885-.436-1.562 1.668-2.53.7-4.266.18-1.218 2.01-1.743 1.405-3.153 0-1.65 2.092-1.562 2.61-2.873.706-.612 1.749-.688 1.83-1.737.613-.874 2.011-.437 2.355-1.416 1.311-.694 2.792 0 3.922-.857 1.148-.431 1.586.857 2.186 1.311z"/><path d="M517.72 376.362c0-82.255 66.689-148.944 148.955-148.944 82.261 0 148.938 66.689 148.938 148.944 0 82.266-66.677 148.95-148.938 148.95-82.266 0-148.955-66.69-148.955-148.95z" fill="none" stroke="#000" stroke-width="1.377" stroke-miterlimit="2.613"/><path d="M548.049 375.074c0-65.436 53.05-118.481 118.487-118.481 65.435 0 118.48 53.045 118.48 118.48 0 65.437-53.045 118.476-118.48 118.476-65.436 0-118.487-53.04-118.487-118.475z" fill="none" stroke="#000" stroke-width="1.37" stroke-miterlimit="2.613"/><path d="M666.71 455.685c5.012-6.335 12.927-13.124 20.491-17.664 8.73-5.233 14.028-8.165 21.371-19.197 7.862-11.772 5.46-25.73 5.46-25.73s-6.765-5.886-8.94-14.832c-2.173-8.934.881-14.395 2.175-18.33 1.311-3.921 8.299-9.365 8.299-9.365l-4.144-7.214s-3.485 1.754-5.449 1.754c-1.97 0-8.299-.641-11.125-1.527-2.827-.869-9.069-2.005-11.557-1.515-4.581.868-6.55 2.173-7.856 2.82-1.311-1.742-4.138-4.359-8.725-4.138-4.586-.215-7.413 2.396-8.73 4.138-1.311-.647-3.27-1.952-7.844-2.82-2.512-.484-8.73.646-11.557 1.515-2.838.88-9.161 1.527-11.12 1.527-1.97 0-5.46-1.754-5.46-1.754l-4.138 7.214s6.976 5.444 8.281 9.366c1.318 3.934 4.365 9.395 2.186 18.329-2.186 8.946-8.946 14.832-8.946 14.832s-2.46 13.037 4.796 24.867c5.887 9.593 13.078 15.252 22.024 20.054 7.786 4.173 15.485 11.335 20.508 17.67z" fill="none" stroke="#000" stroke-width="1.377" stroke-miterlimit="2.613"/><path d="M679.742 274.484c1.824 2.174 4.178 4.797 7.494 4.628.437 4.615 2.88 6.882 5.409 8.275.88.262 1.579.787 2.459 1.218v9.424s-14.33-.082-14.494 0c0-4.266-2.611-8.456-6.195-10.374-5.927-2.879-14.39-2.36-19.535 1.924-2.186 2.272-3.666 5.064-3.753 8.456-.35-.082-14.401 0-14.401 0s-.082-6.452.093-9.762c.868-.355 1.918-.355 2.798-.612 3.042-1.218 4.79-4.89 5.315-7.943 7.762.093 8.724-9.162 14.925-11.51 4.184-1.918 10.286-2.18 14.12.35 2.361 1.561 4.284 3.653 5.765 5.926zm16.842 32.45s.076 31.844 0 31.581c-3.054-1.23-6.463-2.447-9.779-2.972-14.313-2.36-31.494-3.497-45.545.525-2.08.693-4.534 1.393-6.364 2.447v-31.581h16.924v23.207h27.997v-23.207h16.767z"/><path d="M670.493 314.09v.694c-2.88-.606-6.37-.775-9.162.18l-1.043.17c-.262-.525.175-.956.262-1.387 2.617-1.405 6.458-1.574 9.33-.274l.613.618zm23.195 68.467c-1.12-.25-2.611-.17-3.83-.088a.767.767 0 0 1-.355-.338c1.312.257 3.229-.874 4.185.426zm10.385 2.36.956 2.01c-1.125.432-2.436.525-3.654.607-1.743-.344-3.41-.956-5.24-.956-3.316 1.13-7.407 1.731-10.898.694-3.141-.525-5.944.967-8.986.606-2.442-.35-5.065-1.65-7.42-.35-2.616.775-5.32.874-7.768-.344-3.397-.35-6.62.968-9.855 1.12-3.66-1.563-8.118-1.306-11.778 0-3.054.098-5.502-2.081-8.637-1.038-.618.087-1.311.262-1.83.087 0-.775.519-1.398.962-2.086 2.61-1.13 5.845-.525 8.456.431 3.048.53 5.67-1.142 8.818-1.142 2.791.355 5.84 1.672 8.637.449 3.49-1.475 6.72.262 10.21.35 3.042-.607 6.539-1.568 9.5-.35 2.447.35 5.058 0 7.331-.607 3.404-.611 6.37 1.912 9.85.781 2.54-1.223 5.932-1.31 8.642-.437.874.268 1.923.094 2.704.175zm1.405 14.395c1.824.175 3.31-.775 4.97-.874.88.18 0 1.148.176 1.742-.525.711-1.655.105-2.28.525-2.692 1.492-6.1.524-8.706-.338-3.765-.53-6.906 1.742-10.822.775-3.66-1.836-6.714 1.667-10.648.525-3.135-.443-6.102-1.492-9.161-.263-3.485 1.661-6.184-1.48-9.762-.443-3.578 1.23-7.506.974-11.166.35-2.891 0-5.677 2.104-8.556.63-3.922-1.848-7.932.25-12.128-.537-1.218-.443-2.791-.262-3.922-.093 0-.606-.524-1.387.18-1.824 2.437-1.393 5.141 1.13 7.682-.262 3.398-1.05 6.702.087 9.85.868 2.703.443 4.627-.868 7.063-1.13 3.922 1.322 8.118.349 11.953-.432 2.785.088 5.052 1.912 8.025 1.12 1.48-.525 3.14-.776 4.796-1.12 1.48.525 3.235.6 4.796 1.05 2.623.07 5.065-1.05 7.676-1.05 1.836-.099 3.578 1.12 5.32.344 2.792.087 5.322-1.393 8.125-.525 1.999.711 4.353 1.236 6.539.962zm-88.946 23.078c1.399.181 2.611.712 3.316 1.93.869 1.13-.431 3.053 1.137 3.747.169.524.344 1.23 0 1.83-.618 1.58-2.273 1.399-3.666 1.923-.437.35.087.694.256.868 5.07 5.584 7.769 12.303 10.392 19.21 1.218 3.047 2.272 6.538 4.01 9.423.349 1.288 1.223 2.518 1.753 3.56 4.097 6.108 10.56 13.62 19.623 11.44 2.71-.792 4.983-2.61 6.113-5.227 1.218-.274 2.442.257 3.748.158.35 1.23-.694 2.19-1.213 3.234-1.223 1.574-2.878 2.71-4.883 3.846 2.61.257 4.09-2.278 6.713-2.354.787.262 1.224.787 1.312 1.568-.618 2.092 2.616 2.092 2.005 4.196-2.536-.618-5.502.076-8.206.513-4.103.536-7.675 1.23-11.866 2.016-2.972.618-8.124.618-8.468.618-10.729-.705-19.797-6.819-27.053-14.33 0-.52.093-.957.262-1.376 7.85 8.555 18.067 15.793 31.419 14.564 4.178-.175 8.2-1.055 12.122-2.005l.262-.262c-.868-.694-2.005 0-2.88-.525-4.27-.606-8.461-1.754-11.865-4.464-2.092-1.836-4.534-3.13-7.506-3.398.093-.956.169-2.185.268-3.234-.099-.262-.53-.431-.705-.082-.781.874-1.923 1.125-3.141.874-.787-.175-1.568-.617-2.011-1.392.087-.63.874-1.061 1.043-1.656.799-1.754.968-4.114-.169-5.682-1.66.956-4.01 1.743-5.851.606-.268-.606-1.305-.524-1.218-1.305 1.305-.262 2.535-1.05 3.147-2.261.437-1.842 1.224-3.76-.082-5.339-1.054 1.23-2.803 2.71-4.982 2.186-1.312 0-2.093-1.393-2.792-2.36l-.606-2.256c1.049.524 2.535.169 3.572-.274 1.661-1.049 2.262-2.786 1.924-4.627.081-.606-.35-1.043-.525-1.48-.7-.17-.606.705-1.049.868-1.305 1.241-2.704 2.185-4.715 1.754-1.305-.093-2.092-1.142-2.698-2.185-.093-.263-.093-.525-.093-.869 1.573.17 2.966-.7 3.84-1.917.962-2.017.7-4.54-.699-6.288-.705-.694-1.655-1.224-2.535-1.574-.781.874-1.224 2.01-2.355 2.448-1.043-.875-1.043-2.611-2.098-3.748-1.48-1.666-3.222-3.665-5.664-3.322-.53.438-.875.962-.7 1.656.437.699 1.043 1.049 1.824.786.443-.43 1.143-.43 1.492 0-1.929 1.918 1.743 4.459-.786 6.108-.612.361-1.224-.169-1.83-.169-1.93-2.273-3.666-4.977-6.458-6.102-1.224 0-2.71-.88-3.665.163v1.393c-.7-.093-1.4-.513-2.093-.262.175.606.356 1.049.52 1.754-.17 1.906-.52 4.19.966 5.484.962 1.143 2.705 1.58 4.36 1.667-.781 1.48-2.704 1.824-4.36 1.824-2.01-.35-4.015-1.573-4.54-3.578-.868-2.611.438-5.403-.437-7.85-.437-.956-.961-1.918-.874-2.973.874-.524 1.923-.081 2.967-.355 2.791-.606 5.239-2.005 8.205-2.087 2.71-.71 5.939-.786 8.637.088 2.273 1.049 4.884.967 7.157 0 .7-.431 1.049-1.218.874-2.005-.175-.787-.956-1.393-1.573-1.824-.962-.268-2.448.431-2.967-.606-.087-1.055.606-1.836 1.48-2.279 2.11-.95 4.022.274 5.158 1.58zm106.377-.955c.443.7 1.13 1.393.524 2.086-.343.443-1.223.105-1.748.268-1.305.525-2.71.962-2.885 2.53-.093.786.536 1.305.956 1.742 5.076 1.399 10.916-1.48 15.904-.262 3.84.787 7.658 2.791 11.767 1.311.355.1.71.356.804.618 0 1.305-1.235 1.742-1.235 3.223-.525 2.004-.338 4.353-.694 6.381-.431 2.349-1.83 4.266-3.572 5.747l.524.174c3.31-.606 7.938-.262 8.993-4.277.163-.863.075-1.824-.432-2.442-.285-.694-1.573-.606-1.235-1.568.71-.606 2.005-.956 3.048-.606 1.404.437 2.529 2.174 2.978 3.41-.093 1.468.169 2.954-.694 4.178-1.311 2.984-4.545 5.402-8.386 5.402-3.654.618-7.938 0-10.73 2.722-.792.857-2.08 1.824-2.08 3.229.676.18.857-.7 1.387-1.061-.268 2.448 2.092 5.945-.979 7.162-.763-.437-1.906-1.06-3.124-.687-.617-.274-1.142-.367-1.218-.98 0-.605.17-1.118.076-1.567-.6 0-1.643.798-2.436.18-1.218-.524-1.667-1.579-1.573-2.79.169-3.247 2.698-6.295 5.484-7.775a22.4 22.4 0 0 1 4.027-1.387l-.1-.187c-2.599.35-5.583.787-7.156 2.978-.1.158-.338.431-.618.431-.425.17-.6-.174-.857-.43-.36-.962-.36-2.367.618-2.891 2.43-1.388 5.653-1.743 8.445-1.218.618-.17 1.404.36 2.022-.088-.524-.437-1.399-.868-1.573-1.66 1.049.18 2.36.18 3.222-.508 2.885-2.028 1.236-6.207 3.247-8.48.07-1.037-1.318-.35-1.836-.524-.1-.513.693-1.218-.1-1.393-2.79-.262-5.314.618-6.894 2.448-.425 1.393-1.218 2.43-2.092 3.49-.693.17-1.387-.355-1.65-.786-.786-1.655.788-3.41-.36-4.977v-.344c1.054-.53 1.054 1.05 2.18.519.611-.356.873-1.224.524-1.918-.525-.71-1.562-.524-2.343-.437-3.41 1.393-5.694 4.266-5.846 8.113-.536.361-1.049-.088-1.585-.17-1.218-1.06-1.65-2.441-2.01-3.834-.857-.18-1.644.7-2.087 1.393-.7.962-.868 2.267-.792 3.66.623 1.923 1.923 3.578 4.102 4.103-.343 1.573-1.037 2.873-2.78 3.496-1.928.088-4.458.088-5.414-1.923-.273 0-.437.268-.437.431-.18 2.623 1.3 4.366 3.497 5.415.606.36 1.917.099 1.655 1.049-.792 1.398-2.016 3.578-3.759 4.103-2.005.168-3.84-.607-4.89-2.355-.868.093-.35.962-.43 1.475.267 2.097 2.272 4.015 4.364 4.545-.273 1.405-1.573 2.273-2.978 2.792-1.824 0-3.578-.25-4.615-1.743-.263-.175-.606.175-.706.362-.606 1.824-.437 3.648.88 5.04.513.8 1.819.362 1.918 1.242-.962 1.026-2.617 1.655-4.278 1.3-.618-.163-.868-.775-1.573-.7-.35.426-.443 1.061-.263 1.58.263.775.612 1.398 1.213 2.005.186.862-.869.699-1.213 1.136-.967.256-1.835-.525-2.71.087 0 .793.607.956.7 1.644a40.767 40.767 0 0 0-7.856 4.738c-2.88 1.9-6.714 2.086-10.292 2.267 1.311.868 2.954 1.037 4.627 1.311 12.04.781 23.725-1.748 32.112-9.598 1.742-1.486 2.523-3.579 4.004-5.228.367.501.542 1.05.442 1.824-4.196 5.152-9.773 9.593-16.749 11.603-1.055.688-9.529 2.442-10.647 2.273-5.683.088-11.953.088-16.93-2.092-3.136-.868-7.07-1.836-10.211-.449-.344.088-.612.274-.956.187-.355-1.836 2.617-1.923 2.087-3.934.262-.519.88-.874 1.398-.962 2.267.181 3.748 1.755 5.846 2.273.081-.18.081-.518-.1-.518-3.135-1.137-5.833-3.684-6.27-7.081 1.125-.432 2.261-.262 3.479-.158 1.317 3.83 5.146 6.102 9.08 6.638 6.545.682 11.86-2.972 15.094-8.304 5.677-8.713 6.37-19.635 12.04-28.277 2.099-3.229 4.628-6.02 7.495-8.2.18-.262-.693-.525-.693-.869-1.568-.35-3.293-.524-4.26-1.573-.537-.781-.962-1.743-.799-2.71l.973-1.218c.076-1.05-.355-1.83.344-2.623.606-.693 1.486-.606 2.355-.606.88-1.311 2.08-2.791 3.84-2.698.88.14 1.842.14 2.454.752z"/><path d="M583.11 438.446c-.782.968-2.268 2.005-1.662 3.66 1.05 1.93 2.885 2.186 4.715 2.973 6.288 1.054 12.652-.956 18.94-.088 1.568.606 3.224 1.137 3.492 3.054-.175.524-.268.874-.443 1.3-1.044-.082-1.393-1.038-2.267-1.376-2.874-1.41-6.195-2.191-9.506-1.672-.169.442.35.36.606.442 5.065.607 10.298 2.355 13.171 6.277.443 1.399.618 2.623-.169 3.928-1.218.968-2.267 1.667-3.84 1.836-.874-.35-.443-1.836-1.311-2.279-.525.612.268 1.224 0 1.93-.088.687-.437 1.299-1.218 1.299-2.442-.77-3.41 2.791-5.671 1.323-.524-1.137.175-2.617.262-3.847-.262-1.142 0-2.173-.705-3.123.787.151 1.311 1.48 2.01 1.643-.699-2.016-2.272-4.266-4.627-4.627-5.927-2.087-13.614-.869-17.454-6.545-.525-1.568-.525-3.048.256-4.447 1.236-1.48 3.509-2.972 5.42-1.66zm143.272 15.27c-.169 2.016-1.387 3.677-2.074 5.338.425.256.606-.356.786-.7.356-.437.525-.961.956-1.23.426.444.612 1.05.525 1.755-.88 2.005-2.536 3.048-4.54 3.829-.257 0-.606-.175-.606-.431 0-.688.437-1.218.606-1.749-.088-2.436 0-4.965 1.824-6.375.792-.257 1.76-.869 2.523-.438zm-113.335 5.338c-.874 1.294 2.261 2.698-.175 2.955-1.486.355-2.616-.781-3.572-1.825 0-.53-.53-.868-.362-1.392.53-.257.793-.52 1.4-.612.174.443.355.955.774 1.136.443-.524-.256-.868-.081-1.48-.437-1.055.18-2.017.35-2.88 1.048.857 2.01 2.431 1.666 4.098z"/><path d="M642.577 456.804c0 .362-.175.606-.519.706l-.093-.1c.175-.163.437-.518.612-.606z" fill="#fff"/><path d="M727.88 459.736c-.099.606-.355 1.23-.163 1.847.857-.443.07-2.197 1.381-2.01.787 1.649-.163 3.304-.693 4.796-.094.868-1.05 1.48-.787 2.348 1.58-1.48 2.267-3.84 2.698-6.008.525.513.262 1.743.525 2.337.448-.257.285-.944.36-1.387.525-.187 1.05.18.875.863-.524 3.24-1.235 6.031-4.097 7.687-.88.337-1.766.874-2.721.775-.525-.869 0-2.087-.776-2.961-.885-1.405-1.94-3.229-.81-4.802 1.58-1.224 2.798-2.611 3.584-4.354.53.006.53.519.624.869zM609.2 461.32c.613.788 1.574 1.132 2.268 1.563.961 2.797-1.13 4.726-.874 7.512.093.857-.088 1.743.18 2.53-1.224-.525-2.354-1.137-3.584-1.668-4.179-1.474-4.01-6.62-4.447-10.542.437 0 .606 0 .962.076 0 .874.087 1.666.606 2.267.443-.525.093-1.65.18-2.337.176-.187.613-.187.613 0 .262 1.037.262 2.08.606 2.954.175 1.405.967 2.355 1.836 3.316.174.088.442 0 .35-.18-.525-1.12-1.306-2-1.394-3.223-.262-1.125-.262-1.83-.35-2.867.088-.274-.087-.799.444-.799 1.13.163.437 2.01 1.643 3.666.093 0 .093-.175.187-.175-.968-1.13-.618-2.692-.7-4.097 1.125.07.77 1.562 1.475 2.005zm-7.33.683c.267 1.399.786 3.24.092 4.458-1.748-.524-2.348-2.185-2.698-4.01.431-.53 1.311-.868 1.918-1.13.518 0 .43.431.687.682zm133.167.524c-.338 1.574-.956 3.24-2.454 3.678 0-1.486.449-3.322.187-4.733 1.055-.687 1.666.53 2.267 1.055zm-57.953 5.508c.088.6-.081 1.054-.513 1.392l-.792.432c-5.752-.082-11.167.536-16.662-.262-.7-.338-.869-1.219-.606-1.994.35-.617 1.037-.804 1.742-.88h15.275c.694.175 1.306.705 1.556 1.312zm-78.21-163.63h-2.967c-.612-1.836-1.58-4.447-3.753-4.802.093 0 1.655 2.18 1.393 4.802 0 .087-13.602 0-13.602 0 .868-3.31 4.01-6.545 7.593-7.157 3.13-.618 6.271.35 8.544 2.267 1.13 1.224 2.524 2.704 2.792 4.89zm-11.26 6.801c0-.787.787-1.574 1.574-1.574.862 0 1.573.787 1.573 1.574 0 .868-.705 1.562-1.573 1.562-.787 0-1.574-.694-1.574-1.562zm-7.757 7.069v-4.015h1.3v4.015h-1.3zm17.268 0v-4.015h1.312v4.015h-1.312zm136.88-13.87h3.054c.525-1.836 1.574-4.447 3.747-4.802-.093 0-1.666 2.18-1.387 4.802 0 .087 13.504 0 13.504 0-.857-3.31-4.01-6.545-7.49-7.157-3.146-.618-6.37.35-8.56 2.267-1.12 1.224-2.606 2.704-2.868 4.89zm11.242 6.801c0-.787-.67-1.574-1.556-1.574-.787 0-1.58.787-1.58 1.574 0 .868.793 1.562 1.58 1.562.886 0 1.556-.694 1.556-1.562zm7.769 7.069v-4.015h-1.212v4.015h1.212zm-17.262 0v-4.015h-1.218v4.015h1.218zM562.49 450.434c1.055-.786 1.311-1.824.525-2.966l.443-.256 4.708 6.451-.437.262c-.78-1.06-1.917-1.13-2.966-.355l-10.74 7.768c.442.35 1.136 2.005 3.059 2.174 1.66.274 2.71-.425 3.234-.693l.263.443-4.016 2.873-8.55-11.778 4.01-2.88.35.344c-.437.45-1.492 1.143-1.749 2.891-.35 1.917.88 2.885 1.137 3.497l10.73-7.775zm-14.733-26.511c1.13-.518 1.306-.78 1.043-1.841-1.043-3.223-2.71-4.441-6.632-4.616l-.256-.525 5.058-1.13 5.146 12.198-.437.262c-.437-1.032-1.486-1.469-2.698-.944l-10.56 4.435c-1.224.536-1.574 1.58-1.13 2.622l-.444.175-5.14-12.04 4.622-2.005.169.431c-.606.525-3.573 2.098-2.186 5.414l.705 1.912c.263.792.612.792 1.655.355l5.152-2.185c-1.13-2.343-1.655-2.698-4.796-2.087l-.18-.524 7.418-3.141.17.524c-2.53 1.824-2.705 2.442-1.737 4.878l5.058-2.168zm3.654 19.011 4.628-2.541c1.13-.688 1.567-1.556.955-2.611l.437-.25 3.491 6.27-.443.262c-.606-1.037-1.567-1.206-2.698-.524l-9.942 5.496c-1.23.606-1.568 1.58-.962 2.622l-.519.25-3.496-6.27.524-.262c.606 1.043 1.486 1.13 2.699.524l4.19-2.36-2.524-4.528-4.196 2.348c-1.218.618-1.48 1.574-.961 2.623l-.525.256-3.485-6.276.525-.268c.606 1.055 1.567 1.142 2.791.524l9.948-5.49c1.125-.705 1.48-1.58.875-2.61l.437-.269 3.485 6.277-.432.274c-.524-1.055-1.579-1.23-2.71-.53l-4.615 2.535 2.523 4.528zm-22.07-34.192c-1.305-1.143-2.005-3.054-2.36-4.365-.163-.875-.163-1.743.087-2.792.361-1.748 0-1.661-1.043-1.935l-.088-.431 4.447-.968.093.537c-.699.338-2.441 1.649-2.791 4.44 0 .438.087.694.087.968.088.35.263.705.612 1.049.606.705 1.655 1.043 3.398 1.305a23.95 23.95 0 0 0 4.447-.431c1.83-.431 3.147-.956 4.19-1.393 1.486-.956 2.273-1.655 2.53-2.53.18-.524.18-.88.092-1.229 0-.262-.093-.519-.256-.956-1.399-2.441-4.89-2.278-5.583-2.36l-.17-.78 5.84-1.225.082.432c-.868.606-1.218.716-.17 2.098.607.88.968 1.748 1.143 2.61.344 1.323.17 3.41-.618 4.896-.961 2.086-3.578 3.753-6.37 4.36-2.797.53-5.85.098-7.599-1.3zm10.56-49.561c1.218.18 2.087-.431 2.261-1.906l.53.094-1.136 8.281-.518-.081c.174-1.492-.525-2.355-1.749-2.541l-3.829-.525-8.992 3.404c-1.212.425-1.387.967-1.387 1.398l-.53-.093 1.048-7.85.525.093c-.175 1.294 0 2.349 1.049 2.086l6.889-2.616-4.715-3.753c-1.743-1.393-2.524-.432-2.792 1.13l-.524-.081.792-5.415.519.088c-.087.606.35 1.655.962 2.092l6.8 5.502 4.797.693zm-1.224 15.444c1.312 0 2.092-.787 2.092-2.005h.525v7.85h-.525c0-1.218-.78-2.016-2.092-2.016h-13.264c.1.618-.25 2.191 1.136 3.596 1.224 1.212 2.442 1.125 3.054 1.3v.524h-4.971v-14.651h4.971v.512c-.612.187-1.83.187-3.054 1.323-1.387 1.393-1.043 2.955-1.136 3.567h13.264zm.35 13.095c1.305-.087 2.005-.874 1.824-2.442l.525-.087 1.049 8.375-.52.076c-.261-1.574-1.136-2.18-2.441-2.093l-11.341 1.405c-1.306.169-2.005.956-1.743 2.517l-.524.1-1.05-8.375.52-.088c.18 1.556 1.049 2.18 2.36 1.994l11.341-1.382zm10.904-64.992c1.218.524 2.273.256 2.792-.968l.437.175-3.322 7.238-.432-.175c.52-1.218.088-2.173-1.136-2.698l-10.385-4.89c-1.13-.524-2.087-.262-2.611.956l-.525-.169 5.764-12.477 4.616 2.086-.17.361c-.78-.093-3.921-1.31-5.582 2.186l-1.055 1.742c-.344.781-.17 1.131.961 1.656l5.065 2.36c1.043-2.623.868-3.153-1.574-5.152l.17-.524 7.33 3.397-.174.525c-3.135-.606-3.66-.443-4.977 2.086l4.808 2.285zm5.589-28.272-.262.35c-1.486-.169-4.628-1.218-6.458 1.48-1.218 1.836 0 3.235.519 3.491.962.694 2.273.962 4.534-.699 3.141-2.53 5.764-2.61 7.769-1.311 1.311.961 3.665 3.502.705 7.937-.787 1.143-2.355 1.918-2.972 2.885-.175.262.093.606.443.956l-.35.437-4.884-3.31.344-.443 1.66.524c.963.263 3.917.263 5.229-1.573 1.748-2.617.081-3.917-.438-4.272-1.13-.787-2.185-.525-5.927 1.83-2.535 1.48-4.808 1.043-6.113.169-2.786-1.917-2.61-4.971-1.387-6.714 1.387-2.086 2.523-2.18 3.223-3.135.18-.362-.175-.618-.35-1.142l.268-.432 4.447 2.972zm31.75-16.044-16.75-2.89-.087.099 6.72 7.762c.868.956 1.923 1.05 2.96.175l.35.432-3.747 3.228-.35-.437c1.043-.868.956-1.824.088-2.791l-7.588-8.725-1.311-.268c-.607-.081-1.131-.256-1.574.175l-.35-.431 3.835-3.41 13.358 2.53.081-.076-5.233-6.026c-.869-.956-1.918-1.13-2.88-.257l-.349-.43 3.66-3.142.356.431c-.968.787-.968 1.824-.088 2.792l9.418 10.816-.519.443zm27.829-20.24c.518 1.13 1.573 1.573 2.96.868l.18.525-7.762 3.485-.175-.525c1.393-.606 1.749-1.66 1.218-2.785l-4.62-10.48c-.606-1.218-1.574-1.568-2.967-.956l-.256-.524 7.763-3.485.262.518c-1.393.7-1.83 1.656-1.218 2.885l4.616 10.473zm9.248-3.316c.438 1.212.607 1.474 2.005 1.212 3.398-.787 4.797-2.36 5.321-6.37l.606-.175.525 5.234-13.253 4.277-.18-.524c1.217-.344 1.655-1.393 1.305-2.623l-3.579-10.816c-.343-1.311-1.3-1.737-2.529-1.393l-.175-.513 13.09-4.278 1.568 4.797-.432.18c-.524-.606-1.748-3.747-5.32-2.704l-2.011.7c-.874.262-.962.43-.606 1.66l1.742 5.321c2.611-1.049 2.967-1.491 2.704-4.714l.519-.175 2.53 7.681-.52.175c-1.666-2.623-2.266-2.966-4.97-2.186l1.66 5.234zm19.978-19.64 1.044 5.688-.618.081c-1.737-3.316-5.228-4.365-6.446-4.102-.437.087-.787.087-1.142.606-.781.431-1.206 1.66-1.562 3.316-.087 1.13 0 2.873.257 4.709.35 1.824.786 3.397 1.398 4.452.775 1.574 1.48 2.18 2.442 2.53.338.262 1.043.262 1.393.174.606-.081 1.13-.343 1.743-.606.611-.437.699-1.049.611-1.486l-.611-3.054c-.175-1.218-.968-1.923-2.093-1.567v-.525l6.976-1.311.094.431c-1.137.356-1.656 1.142-1.487 2.454 0 0 .612 2.348-.617 3.747-.338.694-1.824 1.836-2.343 2.098-.705.17-1.492.35-2.186.431-1.392.17-2.966.088-4.621-.693-2.186-1.05-3.84-3.584-4.365-6.463-.432-2.792.256-5.84 1.917-7.582 1.218-1.23 2.611-2.186 4.01-2.36 1.836-.251 3.665.436 4.37.349 1.225 0 .875-.694 1.05-1.218l.786-.1zm52.16 6.282-.42-.087c-.36-1.475-.617-4.796-3.84-5.403-2.098-.355-2.885 1.3-2.972 1.825-.268 1.13-.082 2.441 2.36 3.84 3.398 2.005 4.715 4.278 4.254 6.632-.338 1.574-1.812 4.797-6.964 3.84-1.311-.261-2.716-1.392-3.934-1.573-.256-.087-.425.257-.606.7l-.606-.175 1.125-5.758.612.175.18 1.66c.088 1.05 1.224 3.841 3.305 4.267 3.24.618 3.835-1.475 3.922-2.087.274-1.393-.338-2.086-3.922-4.709-2.436-1.835-2.96-4.015-2.605-5.583.606-3.234 3.485-4.277 5.408-3.922 2.61.513 3.135 1.475 4.278 1.743.42.087.42-.356.856-.706l.525.094-.956 5.227zm9.068 11.604c-.35 1.224.175 2.267 1.318 2.622l-.17.432-7.512-2.268.175-.437c1.23.356 2.186-.25 2.547-1.48l3.91-12.74c-.606-.081-2.074-.868-3.747.094-1.387.874-1.754 2.086-2.185 2.529l-.525-.175 1.492-4.709 14.045 4.278-1.497 4.715-.525-.094c.093-.606.525-1.824-.25-3.316-1.055-1.742-2.611-1.917-3.136-2.18l-3.94 12.729zm27.047 12.57c-.6 1.137-.337 2.186.718 2.792l-.286.431-6.801-3.922.268-.431c1.049.606 2.191.35 2.791-.787l6.633-11.423c-.525-.262-1.743-1.404-3.655-.88-1.666.443-2.19 1.58-2.715 2.005l-.432-.25 2.536-4.278 12.74 7.331-2.536 4.266-.524-.256c.262-.612.955-1.66.43-3.316-.43-1.917-2.004-2.349-2.534-2.704l-6.632 11.422zm41.862 40.738c-1.124.693-1.387 1.835-.769 2.878l-.449.263-4.08-6.632.426-.263c.618.968 1.766 1.224 2.885.525l9.686-6.015c1.142-.699 1.294-1.835.688-2.791l.454-.262 7.221 11.685-4.266 2.698-.28-.513c.612-.524 3.334-2.53 1.33-5.851l-.95-1.743c-.549-.78-.898-.868-1.93-.169l-4.703 2.96c1.644 2.361 2.168 2.623 5.298 1.493l.262.431-6.895 4.278-.262-.437c2.098-2.186 2.267-2.792.88-5.321l-4.546 2.785zm21.301 13.083c1.48.874 2.53 2.71 3.142 3.84.361.87.437 1.737.361 2.792 0 1.836.338 1.661 1.387 1.754l.163.426-4.266 1.667-.169-.525c.606-.443 2.192-2.005 2.005-4.89a7.346 7.346 0 0 0-.256-.955c-.17-.262-.344-.525-.793-.787-.688-.606-1.83-.775-3.573-.775-1.049.25-2.605.606-4.365 1.212-1.649.781-2.884 1.568-3.834 2.186-1.3 1.124-2.011 1.923-2.098 2.867 0 .53.093.874.186 1.224 0 .274.163.524.338.88 1.83 2.174 5.338 1.393 5.939 1.3l.361.786-5.583 2.267-.187-.437c.787-.78 1.143-.961-.169-2.185-.687-.606-1.119-1.48-1.48-2.256-.612-1.311-.787-3.397-.262-4.977.524-2.267 2.867-4.365 5.49-5.414 2.605-.956 5.659-1.13 7.663 0zm1.481 46.245-5.66-.269-1.928-13.777.524-.093c.17 1.311 1.05 1.836 2.36 1.661l11.26-1.568c1.294-.268 2.005-.961 1.83-2.273l.525-.087 1.124 7.862-.524.087c-.17-1.311-1.125-1.923-2.436-1.65l-11.347 1.569c-1.125.174-1.562 1.305-1.387 2.267.524 3.759 2.174 4.703 5.583 5.583l.076.688zm-2.699 6.614c-1.31 0-2.098.799-2.004 2.372h-.525l-.431-8.468h.524c.1 1.574.863 2.18 2.174 2.18l11.347-.606c1.317-.094 2.08-.787 2.005-2.36l.53-.088.426 8.456-.525.094c-.093-1.58-.857-2.268-2.191-2.186l-11.33.606zm-.262 8.993c-1.311 0-2.174.71-2.174 1.917h-.524l.355-7.839h.507c0 1.219.694 2.093 2.005 2.093l11.353.606c1.311.081 2.174-.7 2.174-1.923l.524.087-.693 13.783-5.053-.256v-.52c.857-.186 4.196-.267 4.458-4.102l.163-2.092c.082-.88-.163-1.043-1.404-1.137l-5.484-.262c0 2.792.338 3.223 3.316 4.185v.524l-8.037-.437v-.525c3.142-.606 3.579-.955 3.835-3.747l-5.32-.355zm-17.011 52.253 16.487-4.19v-.088l-9.33-4.365c-1.12-.525-2.093-.17-2.623.956l-.525-.257 2.028-4.44.501.25c-.5 1.13-.075 2.092 1.055 2.628l10.467 4.884 1.317-.361c.525-.088 1.137-.17 1.382-.694l.448.25-2.098 4.547-13.066 3.228-.1.088 7.14 3.322c1.236.606 2.285.262 2.792-.962l.448.256-2.092 4.453-.431-.25c.525-1.143.163-2.023-1.05-2.63l-12.995-6.02.245-.605zm-1.399 8.386c-1.125-.618-2.174-.443-3.054 1.049l-.425-.274 4.283-7.407.414.268c-.77 1.3-.414 2.349.71 2.96l9.85 5.753c1.142.606 2.191.43 2.96-.863l.45.256-4.273 7.42-.425-.274c.857-1.48.507-2.524-.618-3.136l-9.872-5.752zm-12.909 25.468c0-1.224 1.055-2.279 2.273-2.279 1.218 0 2.191 1.055 2.191 2.279a2.176 2.176 0 0 1-2.191 2.185c-1.218 0-2.273-.967-2.273-2.185zm-196.371-.7c0-1.23 1.049-2.278 2.267-2.278s2.174 1.049 2.174 2.279a2.162 2.162 0 0 1-2.174 2.185c-1.218 0-2.267-.967-2.267-2.185zM671.798 241.33c0-1.743 1.48-3.23 3.229-3.23 1.742 0 3.135 1.487 3.135 3.23 0 1.66-1.393 3.053-3.135 3.053-1.749 0-3.229-1.393-3.229-3.054zm71.462 31.662c-.787 1.05-.787 1.399.076 2.273 2.622 2.355 4.627 2.535 8.205.694l.612.443-3.934 3.485-11.16-8.457.356-.442c1.031.775 2.004.606 2.791-.443l6.9-9.156c.77-1.043.77-2.086-.28-2.879l.28-.431 11.067 8.363-3.053 4.103-.426-.344c.263-.874 2.168-3.579-.88-5.933l-1.573-1.405c-.694-.512-1.055-.343-1.749.618l-3.386 4.453c2.25 1.48 2.862 1.48 5.414-.437l.338.256-4.89 6.452-.337-.251c1.119-2.966 1.049-3.578-1.073-5.327l-3.298 4.365zm-75.034 116.465c3.49-1.404 6.888.262 10.38.443 3.397-1.236 7.488-1.055 10.99-.093 2.71.175 4.884-1.65 7.763-.869 2.88.962 5.67.257 8.556-.274.524.356.524 1.236.606 1.842.437 1.743-.525 3.76.175 5.572.6.093 1.31-.17 1.911-.338.356-.706.356-1.661.356-2.53.43-.262.43.432.786.6.35.525-.256 1.318.269 1.836.262.181 1.124 0 .786.705v.263c-2.791 0-5.07 1.643-8.036 1.037-4.529-2.255-9.68-.087-14.477-.361-3.928-1.556-7.512 1.06-11.516.192-4.103-1.41-8.456-.087-12.646-.192-4.54-1.469-8.637 1.142-12.997.443-4.283-1.731-8.287 1.142-12.559 0-4.37-1.912-8.73.798-13.264-.443l-2.092-.082c-.519-.6.262-.862.443-1.305.256-1.05-.18-2.267.955-2.873.438 1.23-.693 2.966 1.05 3.485.524 0 1.392.274 1.48-.513v-6.108c.262-.355.355-.792.874-.606 2.349.17 4.365-.624 6.632-.186 3.573.88 7.763 1.31 11.166-.088 4.447.35 9.325 1.399 13.609-.355 3.13.005 5.571 1.76 8.8.798zm.174-43.347c.263.43 0 1.124.52 1.305.518.18 1.042-.443 1.573-.175-.356.961-2.01.874-1.93 2.01l.181 3.398c.088.344.694.262.962.087 2.01-.862 3.234-2.447 5.327-2.96.18.35-.263.693-.344 1.043-.18 4.016-.18 8.643 2.255 11.522.968-.088.437-1.585 1.218-2.11.443.105.18.799.7.799 1.748-.869 3.59-2.005 5.245-3.054.163-.17.075-.443.338-.6l.956.157c-.088.093.093.186.174.186-.606.606-1.305 1.382-.862 2.349.606 1.743 3.91.087 3.24 2.879-.361.431-.361 1.125-.71 1.556-.531-.682-1.75-.262-2.175-1.206-.437 0-.88 0-1.049.425-.268 1.48-.955 3.404 0 4.796.606 1.131 1.13 2.541 2.43 3.054.1.437-.355.775-.775.88-1.492.432-3.048.507-4.458 1.48.437.263 1.236.082 1.661.432.519 1.999 2.185 4.277.606 6.102-.163.355-.606.705-.425 1.223.524.443 1.48.513 2.173.263.607-.612 1.475-.781 2.355-.781.431.256 1.218.081 1.387.687-1.486-1.037-3.054.187-4.266.694-2.261-.863-3.578 2.005-5.752.536.338-.618 1.556-.431 1.818-1.136-1.294-.612-1.818.6-2.96.78-3.48.356-7.676.613-11.073.094-2.617.262-5.49 1.136-8.025.087-2.53-.087-5.158.181-7.588.706-1.131-.356-2.273-1.405-3.666-.956-.962.775-2.01 1.305-3.316 1.049-.088-.362.355-.362.524-.53 1.755.437 2.366-2.005 4.103-1.568.869.524 1.923 1.387 2.967.693-.706-2.36-2.267-4.272-3.754-6.276-1.398-.525-2.791.338-4.446-.105-2.355-2.78-4.103-5.665-7.413-7.145-.263-.088-.17-.35-.17-.525.77-.431 1.644.968 2.524 0 3.398-2.96 7.15-6.014 10.292-9.33.082-4.453 5.321-4.278 6.364-8.031.443-.781.268-1.923.705-2.617.7.868-.174 2.967 1.393 3.404 1.655 1.136 3.316-.356 4.884-.268.087 1.049-.612 1.754-.612 2.715-.612 3.054-1.923 5.047-4.272 7.058.263 2.53 1.218 4.977 1.83 7.407.262.618.431 1.58 1.043 1.836.781-1.212 1.218-2.53 1.912-3.84-.25-2.88 0-5.928.361-8.469l-.874-.338c1.748-1.666 4.272-2.447 6.283-4.015.437-1.311.262-2.966.174-4.365-.437-.606-2.272.868-1.492-.606.53-.257 1.236-.431 1.492-1.13.088-.52-.174-1.388.438-1.557zm35.673 58.354c-.25 1.224-.606 2.53-1.573 3.135-.088.525.174.875.355 1.317.25 1.731-1.049 2.792-1.917 3.748 0 .25 0 .518.25.518.187.787 0 1.749-.6 2.35 1.387 2.453.35 5.687-.88 7.774-1.643 2.529-4.965 4.184-8.2 4.015-3.392 0-6.795-2.448-8.112-5.583-1.131-2.885-1.05-6.55.874-9.08 1.748-2.273 4.452-3.846 7.594-4.004 3.24-3.497 8.13-3.59 11.347-6.807 1.037.443.862 1.574.862 2.617zm-51.728.181c.087 1.649-2.448 2.255-1.044 3.922-.093 1.218-.524 2.267-1.404 3.054.449.518.53 1.404.449 2.173-.45.606-1.055 1.224-.618 2.098.787 2.53.268 5.94-1.48 7.938-1.924 2.698-5.584 4.266-9.162 3.578-3.048-.606-6.37-2.966-6.982-6.107-1.224-3.398-.344-7.332 2.273-9.861 1.58-1.393 3.223-2.267 5.24-2.698 2.523-2.28 5.752-3.316 8.8-4.54 1.31.18 5.233-3.142 3.928.443z"/><path d="M636.953 447.095c3.76.087 6.895 1.917 9.162 4.452-.263.607-1.568.356-1.749 1.131.263.606-.344.868-.78 1.038-.613 0-1.312-.088-1.4.705.263.874-.35 1.392-.087 2.18.525-.537.257-1.918 1.224-2.361.431.443.868-.087 1.405 0 .606-.151.343-.863.693-1.218.519-.6 1.486-.524 1.661-1.393.787-.868 2.092.1 2.535-1.224.17-.524-.093-1.474.7-1.655 1.48.7 2.692 2.01 2.441 3.934-.174 2.005-1.48 3.223-1.923 5.152 1.13 0 2.36-.705 3.672-.362 3.84.362 7.413 2.874 8.63 6.196.088.705.875 1.305.088 1.847l-3.14-.11c-.957-1.394-1.825-3.049-3.76-3.486-1.474-.262-3.403-.344-4.447.781a3.857 3.857 0 0 0-.868 2.017c0 .798.606 1.38 1.13 1.824.782.437 2.186-.262 2.448.95.263 1.13 0 2.016-.792 2.721-1.043 1.486-3.136.962-4.622.606-1.83-1.043-3.141-2.867-3.141-5.221-.087-1.33.874-2.29.612-3.497-.705 0-1.142.857-1.574 1.037-2.01 1.317-4.621 2.96-7.325 1.824-.612-.425-1.486-.693-1.655-1.387 0-1.311 1.305-1.58 2.004-2.26.35-1.143.082-2.623 1.306-3.235.612-.088 1.224-.443 1.83-.7-1.218-.443-2.092.344-3.136.082-3.321-2.792-2.529-7.5-5.151-10.543-.263-.53.087-1.148.606-1.241 1.31.099 2.26 1.06 3.403 1.416zm4.662 7.96c0 .438 0 1.05-.35 1.394-1.037-.088-1.305-1.043-2.08-1.737-.792-1.393-1.754-2.716-2.104-4.365 2.098.962 2.792 3.584 4.534 4.709zm8.113 3.573c-1.043 2.36-3.66 3.847-6.358 3.76l-.443-.17c.612-.448 1.66-.612 2.36-1.049l.17-.425c-.52-.53-1.656-.443-1.738-1.23.7-.524 1.475.426 2.174-.262 0-.35-.256-.705-.175-1.125.711-.524 1.749 1.568 1.749-.18v-.956c.524.344.524 1.643 1.224 1.737.606-.781.874-1.83 1.043-2.868.775.688.344 2.005-.006 2.768zm51.355-11.102c-.53 2.267 1.137 4.196-.169 6.283-.868 2.086-2.529 3.759-4.347 4.977-.624-.088-1.399.18-1.585-.519-.088-.536.612-1.06 0-1.58-.956-.087-2-.43-2.699-.868-.099.251-.361.525-.099.787.548.525 1.492.175 2.191.525.362.705-.786 1.754.269 2.185.786.525 2.692-.524 2.354.95.338 1.667 2.261 1.667 1.912 3.497.174.524.786.705.35 1.218-2.006 1.317-4.885.88-6.977.105-.88-.799-1.929-1.76-3.13-1.58-.28 1.393 0 3.235-.804 4.64-1.043 1.73-2.267 3.298-4.534 3.654-1.643.268-3.31-.53-4.184-1.825-.443-.78-.863-1.579-.606-2.529.163-.53.606-.967 1.125-1.224.78.344 1.497.863 2.447.6.694-.256.956-.699 1.399-1.288.087-.798-.18-1.579-.35-2.29-.88-.775-1.835-1.568-3.147-1.381-2.191.344-3.753 1.643-4.971 3.398-1.13.273-2.448.437-3.578.087 1.043-3.054 3.135-5.752 6.189-6.894 2.185-.706 4.808-.432 6.795.437.28-.606-.431-1.143-.6-1.667-1.48-2.53-1.748-5.665.163-8.02.525-.442 1.142-1.398 2.098-1.217.437.343 0 1.124.356 1.556.787 1.76 2.36 2.622 2.267 4.895.693 1.142 1.836-.18 2.791.262.164-.169-.099-.35-.169-.442-.71-.344-2.004 0-2.098-.95-.081-.525-.6-1.219-.163-1.825 1.48-2.535 4.01-3.584 7.15-3.316 1.394 0 2.53-.448 3.492-1.398.618-.21.95.326.862.757zm-2.85 7.885c-.168.606-.693.956-1.217 1.224-.694.257-.956-.78-1.749-.7 1.568-1.217 3.392-2.004 4.01-4.265.262-.437.18-1.05.71-1.317.007 1.923-.098 4.01-1.753 5.058zm-10.804 2.885.6-.524c.437.437.175 1.13.787 1.38.262 0 .524-.524.786-.162 0 .262-.169.606.1.786.512 0 .786-.617 1.38-.524-.162.437-1.118.962-.524 1.492l1.317.344c-.169.518-1.055.431-.868 1.13.962.694 2.442.781 3.135 1.737l-.268.262c-3.747 0-5.402-3.042-7.413-5.49-.524-.699-1.049-1.83-.775-2.704.6.612.857 1.749 1.743 2.273zm93.159 1.556L764.8 456.1c-1.311-.25-1.743.53-1.93.787l-.43-.344 4.534-6.277.448.35c-.53.775-1.317 2.18.076 2.53l2.885.606 3.31-4.535-1.218-1.917c-.787-1.13-1.83-1.13-2.791.169l-.432-.35 2.862-3.928.431.35c-.431.606-.6 1.136.262 2.36l8.3 13.346-.52.606zm-9.162-5.746 6.376 1.387-3.509-5.408-2.867 4.021zm22.594-40.83.263-.612-4.89-1.486c-1.217-.432-2.173 0-2.529 1.393l-.606-.263 2.535-7.588.6.181c-.506 1.049 0 2.086 1.137 2.518l11.242 3.502c1.049.513 2.028 0 2.36-1.06l.618.18-2.273 7.32c-.787 1.661-1.737 3.934-3.578 4.796-1.12.53-3.223.711-4.528-1.031-1.05-1.06-1.05-2.273-1.05-3.934 0 0-.88 1.393-2.354 1.574-2.442.25-2.273-.607-4.01-.251-1.049.157-2.622 1.73-2.698 1.993l-.524-.169.524-3.147c1.125-3.234 2.605-2.53 4.628-2.53 5.746 1.312 5.134-1.386 5.134-1.386zm.974-.25c-.262 1.211-1.334 3.129.606 4.615 1.12.775 3.124 1.218 3.934 1.13.787-.25 1.743-.705 2.244-2.447.099-.606-.076-1.13-.6-1.312l-6.184-1.987zm8.806-73.986-12.996 9.936c-.956.793-.618 1.667-.525 1.924l-.524.093-2.01-7.506.53-.094c.256 1.055.856 2.442 1.905 1.667l2.36-1.923-1.386-5.414-2.355-.18c-1.317-.088-2.01.605-1.58 2.185l-.524.087-1.235-4.715.524-.081c.187.705.525 1.13 1.93 1.31l15.694 2.099.192.612zm-10.403 3.485 5.245-3.91-6.44-.799 1.195 4.709zm-26.761-44.927c-1.76-.525-3.048-1.312-4.022-2.442-.955-1.218-1.556-2.704-1.748-4.447-.07-2.436 1.241-5.058 3.41-6.883 2.272-1.917 5.227-2.884 7.511-2.278 1.743.443 3.054 1.31 4.01 2.529.95 1.142 1.556 2.53 1.743 4.365.262 2.36-1.218 5.059-3.491 6.976-2.186 1.83-4.977 2.704-7.413 2.18zm-2.367-2.18c.962.443 2.011.262 3.579-.262 1.049-.443 2.453-1.48 3.84-2.617 1.382-1.224 2.699-2.442 3.223-3.403.956-1.48 1.312-2.53 1.05-3.485a2.417 2.417 0 0 0-.601-1.219c-.262-.355-.618-.606-1.072-.786-.956-.443-2.005-.263-3.748.35-.955.442-2.529 1.392-3.916 2.61-1.399 1.137-2.53 2.442-3.141 3.41-.793 1.392-1.143 2.436-.88 3.397 0 .525.262.962.542 1.3.25.262.606.536 1.124.705zm-18.311 17.35c-.71 1.235-1.381 1.929-2.098 3.228-.95-.955-1.119-1.474-1.573-2.086-1.48-2.61-4.628-4.627-8.02-4.453-1.736 0-3.671.875-4.359 2.268-.099.705-.268 1.31.076 2.016.524.606 1.235 1.119 2.191.857.612-.25 1.212-.775 1.143-1.568.238-.606-1.48-1.574 0-1.83.6-.169 1.218-.087 1.643.175-.187.787-1.218.787-1.05 1.655 1.405-.437 2.962-.519 4.46.087 1.48.88 3.036 1.836 3.484 3.754-.186.792-1.573 0-1.83.874-.43.524.263 1.48-.606 1.573h-4.814s-1.573-.093-1.573 1.562c0 1.574 1.404 1.574 1.404 1.661.1 0 .1 7.332 0 7.332.164.343.787 1.305 1.218 1.48.1.087.1-8.9 0-8.812h16.15s-.1 8.113 0 12.478c0 .524 1.212.705 1.212.705v-13.177c0-.087 1.486-.262 1.486-1.661.093-1.393-1.218-1.562-1.317-1.562-1.556 0-2.53.088-5.484 0-.6-.262 0-1.049-.262-1.573-.339-.787-1.836-.35-1.912-1.131.693-2.016 2.867-3.415 4.872-3.584.88-.082 1.836.262 2.792.35.099-.787-1.294-1.219-1.294-2.005.693-.525 1.65-.869 2.605-.606.262.081.612.081.71.43-.355.525-1.404 1.05-.792 1.83.17.263.437.432.793.525.688 0 1.294-.175 1.742-.606.502-.618.338-1.311.164-2.01-.443-1.044-1.644-1.218-2.53-1.743-3.671-.612-6.55 1.393-8.63 3.567z"/><path d="M744.291 318.619a.55.55 0 0 0-.524-.525c-.245 0-.6.263-.6.525s.355.524.6.524c.28.006.524-.262.524-.524z" fill="#fc0"/><path d="M731.383 305.454c0 .081-.07 2.867 0 2.867 0 .093 24.6 0 24.687 0v-2.867s-24.687.081-24.687 0zm3.94 1.218c0 .35-.1 1.049.337 1.218.449 0 .793-.262.711-.694.082-.524.082-1.049-.547-1.049a.756.756 0 0 0-.502.525zm-10.905-61.333-.524 16.405c0 1.12.862 1.48 1.125 1.562l-.181.53-7.157-3.146.18-.525c.95.431 2.53.956 2.53-.524l.093-2.967-5.052-2.267-1.667 1.655c-1.043.968-.88 1.836.688 2.53l-.164.524-4.458-2.005.187-.524c.524.262 1.212.443 2.19-.606l11.406-10.916.804.274zm-3.84 10.298.163-6.457-4.54 4.534 4.377 1.923zm-58.81-6.457c-1.392 1.223-2.791 1.835-4.271 1.923-1.48.087-3.048-.35-4.622-1.218-2.092-1.312-3.403-4.016-3.584-6.895-.17-2.873.705-5.845 2.628-7.331 1.387-1.218 2.873-1.743 4.36-1.824 1.474-.094 2.966.262 4.534 1.13 2.092 1.312 3.397 4.103 3.572 6.976.175 2.873-.693 5.758-2.617 7.239zm-3.053.786c.868-.524 1.392-1.48 1.83-3.141.262-1.049.262-2.792.174-4.627-.174-1.83-.437-3.579-.868-4.622-.612-1.568-1.317-2.523-2.185-2.879-.525-.262-1.044-.262-1.393-.262-.437 0-.875.169-1.224.431-.869.525-1.399 1.486-1.923 3.235a18.937 18.937 0 0 0-.175 4.627c.087 1.824.524 3.578.874 4.616.7 1.492 1.393 2.453 2.273 2.797.437.262.868.262 1.3.262.355 0 .885-.174 1.317-.437zm-100.508 33.149 15.443 4.977c1.23.263 1.755-.437 1.935-.705l.437.35-4.982 5.939-.432-.344c.612-.705 1.568-2.186.175-2.448l-2.879-.956-3.572 4.272 1.124 2.005c.787 1.218 1.568 1.399 2.71.087l.438.35-3.148 3.753-.43-.344c.43-.524.687-1.13 0-2.442l-7.338-13.957.519-.537zm8.741 6.458-6.195-1.924 3.048 5.677 3.147-3.753zm-19.902 44.222c.53 1.667.53 3.228.082 4.72-.426 1.387-1.475 2.611-2.873 3.83-1.924 1.404-4.977 1.666-7.682.798-2.791-.968-5.14-2.967-5.84-5.234-.611-1.748-.436-3.31 0-4.72.438-1.48 1.318-2.699 2.792-3.83 1.924-1.48 4.977-1.666 7.763-.704 2.71.868 5.07 2.791 5.758 5.14zm-.437 3.071c-.169-.88-.956-1.76-2.261-2.716-.869-.786-2.442-1.398-4.185-1.923-1.748-.606-3.496-1.049-4.621-.962-1.749-.087-2.792.257-3.485.869-.437.361-.705.798-.793 1.224-.087.35-.175.786-.087 1.311.175 1.049.874 1.923 2.261 2.972.973.606 2.535 1.393 4.278 2.005a23.92 23.92 0 0 0 4.534.868c1.667 0 2.791-.343 3.497-1.13.343-.35.611-.705.693-1.05.093-.43.169-.96.169-1.468zm211.203 140.435c-.076.087 5.939 4.103 5.939 4.103-1.737 2.448-4.196 3.928-6.458 5.933 0 0-4.627 3.584-5.746 4.446-3.916 3.316-8.02 5.677-12.565 8.288-1.218.693-2.53 1.486-3.916 2.185-4.272 2.442-9.086 4.365-13.719 6.545-16.744 6.702-35.498 10.723-54.514 10.723-7.938-.262-16.656-.163-32.712-3.572-18.41-3.83-35.428-11.779-50.592-22.59-5.502-3.496-10.735-8.024-15.275-12.39 0 0 6.457-3.484 6.457-3.758 0-1.038-.134-1.894.437-2.88.6-1.025 1.253-1.701 2.442-1.824 1.05-.116 1.83.356 2.611.694.356-.88-.693-.88-.956-1.568l2.792-5.233c2.791 2.267 4.627 3.747 7.063 5.758 2.448 2.005 4.616 3.759 7.413 5.583 25.474 17.542 60.11 25.905 93.084 19.354 23.125-4.452 44.059-15.076 61.42-31.132 0 .087 2.354 5.227 2.692 5.933 0 .087-.856 1.556-.786 1.742.53-.268 1.16-.536 1.934-.524 1.44.017 2.693.786 3.048 2.086a3.53 3.53 0 0 1-.093 2.098z"/><path d="M587.445 471.724c11.69 9.505 25.043 17.005 39.344 21.726 20.765 6.964 45.54 8.719 67.348 3.316 12.39-2.885 24.349-7.425 35.066-13.713 5.408-3.304 10.822-6.976 15.881-10.985l6.108 3.409c.448.524.099 1.218.262 1.824.361 1.23.728 1.632 1.667 2.098 1.125.554 2.214.653 3.223-.087 0 0-.95 1.387-.95 1.305 0 .087 2.529 5.065 2.43 5.065-9.85 8.718-21.185 15.35-33.15 20.846-21.108 9.505-46.051 13.602-70.394 11.603-26.261-2.098-50.954-11.428-71.445-26.173-3.753-2.972-5.938-4.272-7.588-6.108 0-.087 2.18-5.583 2.18-5.757-.256-.618-.874-.52-1.218-1.388 1.393.17 2.22.618 3.398 0 1.427-.769 1.83-1.655 1.917-3.671 1.725-1.212 5.921-3.31 5.921-3.31z" fill="#fc0"/><path d="M728.16 409.785c-.874.443-1.661 1.142-1.661 2.53v10.122h33.767v-10.904c-.187-1.06-.711-1.486-1.574-1.754H728.16v.006zm1.562-1.399h27.735c.361-1.049-.338-2.098-1.12-2.791l-.786-.607h-24.518c-.076.088-.338.356-.6.706-.45.594-.974 1.911-.711 2.692zm-13.772-96.131c-1.142 4.272-3.584 8.025-6.381 11.341-1.23 1.743-.606 4.534.087 6.282 1.667 4.972 6.294 8.987 11.085 11.08.431 1.048.157 2.616.6 3.66.431 1.485 1.405 3.135 2.885 3.758 1.218.431 3.054.869 4.272 0 1.48-1.142 1.049-2.885 1.404-4.627.164-1.405-.524-3.847.525-5.234 0 0 .6 6.545.355 9.768l.076.524c1.317 1.05 2.273 2.28 3.678 3.136v6.463c-2.198.606-4.983 1.568-5.508 3.922-.524 3.235 1.83 6.19.88 9.418-.449 3.316-1.65 6.702-.71 10.304.092.775 0 1.911.873 2.18l4.465 2.18v3.577c-.53.432-1.58-.174-2.099-.174-1.835-.787-3.502-2.88-5.77-1.755-1.48.968-3.746 1.236-3.746 3.328.174 2.087-.17 4.365-.525 6.358.356 2.023 4.72 4.972 4.814 4.72 1.049-1.56-1.673-2.272-.711-3.752.787-.525 0-1.824.95-2.267 2.273 1.055 6.107 3.934 6.294 4.01-.612.786-2.43 1.573-2.005 3.146h22.589c.618-.693-.431-2.185.88-2.36 1.818-.443 3.817-1.136 4.604-2.879.711-3.934.187-7.25-.67-10.991.076-2.087 1.119-3.928 1.818-5.834-.163-2.797-2.453-4.633-4.196-6.55-6.276-5.665-14.721-7.6-23.207-8.65-1.643-.157-2.96-1.124-4.01-2.424-.355-1.23.263-2.36.788-3.158.88-.944 2.791-1.731 4.202-1.819v5.315c0 .105.238.711 1.218.618v-12.14c.693-.705 1.212.438 1.905.525 3.334.968 7.413.525 10.735.606 1.236.437 2.093 1.836 3.41 2.18v13.608c.355.18.71.787 1.212.356v-5.665c1.317-.799 2.885-.711 3.94-1.93 5.058-4.446-1.48-11.078 2.529-17.967.245-.967.169-2.103-.449-2.884-1.218-1.667-3.223-1.749-4.89-2.53-1.905-2.016-4.703-3.316-7.675-2.442-3.13.869-6.44 0-9.237-1.31-2.267-1.58-3.31-3.404-4.966-5.49-.71-.525-1.573-.8-2.453-.525-.612.087-1.05.693-1.743.693-.43-1.667 1.574-3.84-.955-4.808-2.355-.344-4.803-.78-6.796-2.005-2.634-1.911-4.027-4.97-4.277-8.287-.088-1.393.606-2.692 1.643-3.66 1.055-.787 1.93-1.049 3.747-.787 1.137.443 2.372 1.393 2.71 2.705.28.705-.075 1.48-.43 1.835-1.137.344-2.7.432-3.672-.443l-1.12-1.13c-.617 1.311-1.124 2.704-1.404 4.184.361 1.312.973 2.442 1.842 3.31.856-.256 1.13-1.392 1.736-1.917.875-2.092 3.41-2.791 3.835-5.14 0-1.137-.693-2.623-1.911-3.316-2.273-1.556-5.945-.863-7.07 1.76z"/><path d="M723.538 328.655c-.53.955-.617 2.004-.262 3.147.262.693.857.775 1.48.862 1.05-.431 1.743-.78 2.267-1.824.187-.956.356-1.836.525-2.792-1.387.438-2.972-.53-4.01.607zm29.478 34.815c1.58-.093 3.415-1.142 4.202-2.634.239-.618.075-1.387-.187-1.993-.856-1.13-2.53-2.18-4.01-2.36-.005.006-.005 6.288-.005 6.987zm-17.262 36.978s15.356.094 16.05 0v-8.805c-1.574-1.743-4.459-2.099-6.633-2.798-3.053-.682-6.538-.868-9.417-1.999v13.602zm17.262-7.325v7.25c1.055 1.305 2.622-.187 3.94-.274.856-.787 2.267-1.3 1.556-2.96-.956-2.011-3.037-3.328-4.966-4.46-.262-.08-.437.275-.53.444z" fill="#fc0"/><path d="M601.566 305.454v2.867c0 .093-24.687 0-24.768 0v-2.867s24.768.081 24.768 0zm-3.916 1.218c0 .35.087 1.049-.431 1.218-.438 0-.706-.262-.706-.694 0-.524-.081-1.049.519-1.049.35.082.53.262.618.525zm-10.73 6.096c.787 1.235 1.394 1.929 2.18 3.228.962-.955 1.05-1.474 1.568-2.086 1.404-2.61 4.627-4.627 7.943-4.453 1.836 0 3.754.875 4.453 2.268.087.705.256 1.31-.087 2.016-.525.606-1.318 1.119-2.186.857-.693-.25-1.3-.775-1.218-1.568-.169-.606 1.568-1.574 0-1.83-.525-.169-1.218-.087-1.66.175.267.787 1.223.787 1.135 1.655-1.392-.437-3.053-.519-4.452.087-1.568.88-3.048 1.836-3.578 3.754.268.792 1.66 0 1.923.874.443.524-.344 1.48.612 1.573h4.802s1.486-.093 1.486 1.562c.093 1.574-1.317 1.574-1.317 1.661-.082 0-.082 7.332 0 7.332-.25.343-.868 1.305-1.305 1.48v-8.812h-16.056v12.478c-.082.524-1.3.705-1.3.705v-13.177c0-.087-1.48-.262-1.399-1.661-.087-1.393 1.218-1.562 1.312-1.562 1.48 0 2.529.088 5.402 0 .606-.262.088-1.049.35-1.573.256-.787 1.748-.35 1.83-1.131-.694-2.016-2.786-3.415-4.797-3.584-.961-.082-1.923.262-2.879.35 0-.787 1.393-1.219 1.393-2.005-.7-.525-1.655-.869-2.698-.606-.18.081-.53.081-.612.43.262.525 1.311 1.05.7 1.83a1.442 1.442 0 0 1-.7.525c-.7 0-1.311-.175-1.836-.606-.518-.618-.344-1.311-.169-2.01.519-1.044 1.655-1.218 2.518-1.743 3.753-.612 6.638 1.393 8.643 3.567z"/><path d="M588.669 318.619c0-.262.262-.525.525-.525.256 0 .518.263.518.525s-.262.524-.518.524c-.269.006-.525-.262-.525-.524z" fill="#fc0"/><path d="M603.146 408.386h-27.654c-.35-1.049.35-2.098 1.043-2.791l.781-.607h24.6c0 .088.262.356.612.706.448.594.874 1.911.618 2.692z"/><path d="M599.736 407.424c-.169.181-.425.181-.606 0 .175-.693-1.224-1.73.087-1.824 0-.005.706 1.131.52 1.824z" fill="#fc0"/><path d="M604.713 409.785c.869.443 1.749 1.142 1.749 2.53v10.122h-33.849v-10.904c.175-1.06.781-1.486 1.568-1.754h30.532v.006z"/><path d="M601.222 412.227s.094 8.205 0 8.205h-.868v-8.811c.431-.088.78.355.868.606z" fill="#fc0"/><path d="M678.704 299.078h20.66v6.807s-19.879-.087-19.978 0c-.524.874-.093 2.185-.425 3.141-.175.793-1.23 1.05-2.017 1.224-2.348.17-4.446-1.13-5.484-3.229-1.923-2.098-1.224-5.927-4.546-6.976-.256.088-.437.344-.343.694.169.7 1.305 1.142 1.218 2.01.087.782-.607 1.306-1.218 1.568v3.934c1.136 1.212 2.966 1.912 3.053 3.922-2.884-.443-5.67-.786-8.555 0 .612-1.754 2.01-2.972 3.578-3.671l.263-.432c-.35-1.742.606-3.753-1.137-4.802-.606-1.48 1.83-1.649.874-2.96-1.573.868-1.923 2.61-2.704 4.01-1.393 2.534-2.879 5.67-6.102 5.938-1.223-.093-2.36-.35-3.234-1.05-.437-1.13.618-2.622-.688-3.315-.093.081-18.853 0-18.935 0v-6.807h20.06s0-2.349.519-3.485c1.055-2.18 2.104-4.529 4.54-5.496 5.67-2.005 13.445-2.086 17.885 1.824 2.792 2.71 2.355 5.59 2.716 7.151z"/><path d="M676.682 293.676c1.66 3.234 1.48 6.544 1.317 10.292-.268.262-1.142-.088-2.01-.956-2.448-2.098-1.83-4.808-3.841-7.332-1.218-1.393-1.83-2.18-5.065-2.704-.081-.787-.35-1.125-1.48-1.125-.606 0-.787.6-1.224 1.3-5.408.443-6.282 5.676-8.369 9.424-.53.524-1.136 1.48-2.016 1.398-.256-2.616-.256-6.195.7-8.986.967-2.355 3.14-4.715 6.113-5.053 4.97-1.142 10.991-.7 14.925 2.523l.95 1.219z" fill="#fc0"/><path d="M670.755 301.7c.868 2.705 1.917 6.027 5.064 6.714.863.175 1.912-.431 2.53.263-.263.868-1.13 1.049-2.01 1.142-2 .087-4.273-2.716-4.273-2.716s-1.83-3.84-2.622-5.752c-.519-1.13-1.393-1.748-2.617-2.098-.17-.262-.17-.869.262-.869 1.743.175 2.873 1.836 3.666 3.317zm-5.939-2.878c.268 1.13-1.043 1.037-1.562 1.561-1.748 3.142-2.622 6.895-5.85 8.9-1.213.53-2.874.443-3.923-.263-.35-.169-.175-.524-.175-.775 1.224-.437 2.617.432 3.84-.437 1.924-1.317 2.886-3.403 4.016-5.414.606-1.655 1.568-3.141 3.223-3.922.175-.006.525.087.431.35z" fill="#fc0"/><path d="M594.421 253.102c2.96-1.661 6.195-2.267 9.336.175 2.536 1.923 4.36 6.463 2.973 9.685a7.913 7.913 0 0 1-3.491 4.272l-7.07 4.097-.256-.43c1.125-.7 1.393-1.75.694-2.886l-5.67-9.849c-.7-1.13-1.656-1.492-2.793-.787l-.256-.443 6.533-3.834zm5.752 13.346c.711 1.142.793 1.223 1.661.786 2.967-1.742 2.535-3.928 2.273-5.058-.612-3.136-3.322-7.582-6.12-8.631-1.736-.694-2.523-.094-3.747.606-.868.443-.78.606-.099 1.835l6.032 10.462zm190.27 134.787c-.88-1.649-1.12-3.223-.88-4.615.285-1.492.973-2.88 2.29-4.202 1.65-1.83 4.627-2.518 7.495-2 2.902.438 5.414 2 6.533 4.185.81 1.667 1.072 3.223.81 4.709-.268 1.393-.98 2.797-2.192 4.109-1.742 1.824-4.726 2.447-7.587 2.005-2.891-.52-5.42-2.005-6.47-4.19zm-.094-3.141c.356.868 1.236 1.667 2.716 2.354.956.52 2.617.962 4.44 1.312 1.837.262 3.58.355 4.628.186 1.76-.186 2.792-.71 3.31-1.498a3.04 3.04 0 0 0 .618-1.218c.094-.43 0-.868-.186-1.486-.245-.775-1.12-1.66-2.698-2.436-.933-.437-2.6-.967-4.459-1.218a19.099 19.099 0 0 0-4.61-.274c-1.666.274-2.698.875-3.31 1.586-.361.43-.449.868-.524 1.288-.094.355-.094.798.075 1.404zm-173.421-85.839c1.224 4.272 3.585 8.025 6.452 11.341 1.136 1.743.524 4.534-.082 6.282-1.66 4.972-6.288 8.987-11.172 11.08-.431 1.048-.075 2.616-.518 3.66-.443 1.485-1.4 3.135-2.891 3.758-1.3.431-3.048.869-4.272 0-1.474-1.142-1.043-2.885-1.387-4.627-.262-1.405.519-3.847-.606-5.234 0 0-.612 6.545-.268 9.768l-.175.524c-1.224 1.05-2.18 2.28-3.572 3.136v6.463c2.086.606 4.965 1.568 5.49 3.922.518 3.235-1.918 6.19-.869 9.418.344 3.316 1.574 6.702.694 10.304-.082.775-.082 1.911-.962 2.18l-4.36 2.18v3.577c.438.432 1.568-.174 2.006-.174 1.83-.787 3.572-2.88 5.845-1.755 1.399.968 3.747 1.236 3.747 3.328-.262 2.087.175 4.365.443 6.358-.268 2.023-4.627 4.972-4.802 4.72-1.037-1.56 1.667-2.272.7-3.752-.782-.525 0-1.824-.875-2.267-2.261 1.055-6.19 3.934-6.277 4.01.612.786 2.35 1.573 1.918 3.146h-22.502c-.705-.693.437-2.185-.967-2.36-1.83-.443-3.753-1.136-4.54-2.879-.78-3.934-.256-7.25.612-10.991 0-2.087-1.055-3.928-1.83-5.834.175-2.797 2.53-4.633 4.278-6.55 6.195-5.665 14.657-7.6 23.119-8.65 1.742-.157 2.96-1.124 4.01-2.424.355-1.23-.17-2.36-.781-3.158-.781-.944-2.699-1.731-4.097-1.819v5.315c0 .105-.263.711-1.224.618v-12.14c-.787-.705-1.224.438-1.923.525-3.317.968-7.42.525-10.811.606-1.137.437-2.092 1.836-3.322 2.18v13.608c-.344.18-.781.787-1.3.356v-5.665c-1.317-.799-2.791-.711-3.934-1.93-4.97-4.446 1.486-11.078-2.529-17.967-.262-.967-.175-2.103.525-2.884 1.223-1.667 3.234-1.749 4.89-2.53 1.823-2.016 4.714-3.316 7.669-2.442 3.147.869 6.457 0 9.167-1.31 2.349-1.58 3.398-3.404 5.053-5.49.705-.525 1.486-.8 2.448-.525.606.087 1.049.693 1.655.693.437-1.667-1.486-3.84.955-4.808 2.448-.344 4.89-.78 6.9-2.005 2.53-1.911 3.923-4.97 4.19-8.287.088-1.393-.611-2.692-1.666-3.66-.961-.787-1.836-1.049-3.66-.787-1.136.443-2.36 1.393-2.797 2.705-.163.705.099 1.48.536 1.835 1.13.344 2.704.432 3.572-.443l1.224-1.13c.525 1.311 1.131 2.704 1.312 4.184-.263 1.312-.875 2.442-1.836 3.31-.787-.256-1.043-1.392-1.661-1.917-.868-2.092-3.491-2.791-3.922-5.14.081-1.137.775-2.623 1.917-3.316 2.36-1.556 5.933-.863 7.063 1.76z"/><path d="M609.422 328.655c.525.955.525 2.004.175 3.147-.256.693-.88.775-1.486.862-1.05-.431-1.65-.78-2.267-1.824-.175-.956-.257-1.836-.437-2.792 1.323.438 2.972-.53 4.015.607zm1.137 8.211c-.175 2.005.081 7.052.081 7.402-.78-3.486-1.568-6.802-.344-10.112 0-.355-.262-.606-.617-.513l-.776.25c.962-.698 1.48-2.004 1.912-3.397.705 2.08-.082 4.26-.256 6.37zm-30.702 26.604c-1.58-.093-3.322-1.142-4.103-2.634-.355-.618-.174-1.387.082-1.993.874-1.13 2.535-2.18 4.015-2.36.006.006.006 6.288.006 6.987zm17.356 36.978s-15.444.094-16.056 0v-8.805c1.573-1.743 4.365-2.099 6.55-2.798 3.142-.682 6.62-.868 9.506-1.999v13.602zm-17.356-7.325v7.25c-1.049 1.305-2.628-.187-3.934-.274-.78-.787-2.18-1.3-1.567-2.96.961-2.011 3.053-3.328 5.064-4.46.262-.08.35.275.437.444zm30.177 3.922c-.169 1.754-1.737 2.885-2.966 3.66.18-.525.443-1.119.355-1.824-.88-.7-.78-1.836-.78-2.967.605-.081 1.118-.443 1.91-.343a6.03 6.03 0 0 1 1.481 1.474zm-10.904 5.595c-.093.175.087.431-.175.431-.693 0-.693-.693-.874-1.125l.18-.268c.426.175.87.519.87.962z" fill="#fc0"/><path d="M670.668 316.095c.612.956.699 2.18 1.049 3.23.699 1.66 2.354 3.397 2.879 5.14-1.318 2.092-4.016 2.016-6.108 2.79-.344.793-1.288 1.51-2.36 1.4-.933-.094-1.393-.607-1.824-1.574-.607-.775-1.574-.169-2.617-.42-1.48-.355-3.316-.355-4.278-1.841.268-2.087 1.93-3.567 2.273-5.583.355-1.218-.25-2.973 1.399-3.404 2.96-.787 6.708-1.23 9.587.262zM592.76 484.638l-.344-.18c.25-.869.863-3.229-.874-4.459-1.317-.856-2.354 0-2.535.362-.437.606-.606 1.486.519 3.048 1.66 2.278 1.835 4.103.967 5.414-.7 1.043-2.442 2.698-5.583.606-.787-.525-1.393-1.574-2.092-2.092-.18-.088-.35.093-.525.268l-.355-.175 2.278-3.41.35.175-.35 1.137c-.262.775-.262 2.797 1.044 3.66 1.835 1.224 2.791.087 2.966-.17.519-.873.437-1.573-1.224-4.184-1.043-1.835-.693-3.409-.081-4.277 1.31-1.912 3.403-1.912 4.621-1.043 1.48.955 1.48 1.742 2.174 2.267.268.168.437-.094.798-.263l.344.17-2.098 3.146zm1.923 9.243c-.437.706-.53.88.175 1.48 2.01 1.487 3.491 1.574 5.84.175l.355.263-2.535 2.54-8.112-5.326.18-.361c.7.53 1.393.361 1.918-.437l4.365-6.714c.519-.694.35-1.381-.356-1.912l.181-.355 8.025 5.233-1.923 2.967-.262-.163c.174-.607 1.31-2.611-.875-4.016l-1.218-.956c-.518-.262-.705-.186-1.13.519l-2.186 3.229c1.749 1.043 2.186.967 3.76-.607l.343.274-3.048 4.785-.355-.256c.699-2.104.617-2.547-.956-3.666l-2.186 3.304zm19.367 9.855c-.356.787-.181 1.492.524 1.836l-.175.356-4.534-2.104.17-.344c.78.344 1.398 0 1.747-.787l3.491-7.506-7.762 7.506-.35-.081.956-10.922-3.573 7.594c-.35.787-.256 1.48.53 1.836l-.18.35-2.792-1.213.175-.355c.705.262 1.399-.094 1.743-.869l3.409-7.25c.525-1.119.262-1.38-.694-1.824l.17-.355 3.578 1.667-.799 8.368 6.207-5.84 3.491 1.569-.175.35c-.7-.35-1.398 0-1.748.786l-3.41 7.232zm19.972 6.988c-.17.787-.088 1.125.705 1.393 2.349.693 3.84.262 5.583-1.836l.437.087-1.568 3.235-9.435-2.185.093-.35c.787.18 1.399-.257 1.661-1.12l1.743-7.773c.169-.88-.175-1.492-.962-1.667l.088-.432 9.336 2.186-.787 3.497-.35-.088c0-.7.35-2.885-2.267-3.578l-1.392-.356c-.618-.174-.787-.087-.956.787l-.886 3.76c1.917.349 2.36.168 3.316-1.837l.35.088-1.218 5.595-.356-.088c-.087-2.197-.344-2.628-2.261-3.135l-.874 3.817zm47.981 2.442c.093.956.7 1.393 1.748 1.305l.1.35-5.852.688-.093-.338c1.055-.088 1.48-.7 1.387-1.644l-.95-7.949c-.087-.874-.694-1.317-1.748-1.23l-.088-.338 5.84-.71.105.36c-1.061.082-1.492.688-1.417 1.574l.968 7.932zm-9.243-7.332c.518-1.492-.431-1.398-1.212-1.317v-.431l3.485-.175v.431c-.618 0-1.05.269-1.4 1.143l-3.752 10.554-.437.1-4.622-10.474c-.437-.967-.775-.967-1.3-.88v-.437l5.578-.169v.437c-1.48 0-1.568.53-1.387.962l2.867 6.632 2.18-6.376zm21.202-4.977.955 3.923-.437.087c-1.305-2.255-3.834-2.786-4.714-2.518-.263 0-.52.094-.694.344-.524.443-.868 1.218-.956 2.448-.093.693 0 1.911.257 3.223.355 1.317.699 2.447 1.224 3.147.606 1.049 1.13 1.468 1.835 1.742.263.088.7 0 .956 0 .344-.087.694-.274 1.137-.437.43-.35.43-.78.338-1.055l-.426-2.168c-.175-.88-.868-1.317-1.573-1.054l-.088-.35 4.878-1.224.093.35c-.786.262-1.136.786-.95 1.666 0 0 .525 1.743-.268 2.78-.262.525-1.31 1.218-1.573 1.405-.525.169-1.06.431-1.498.524-.956.17-2.174.088-3.293-.25-1.58-.711-2.791-2.465-3.322-4.459-.355-2.016-.087-4.201 1.131-5.414.7-.874 1.748-1.579 2.716-1.76 1.218-.256 2.53.111 3.036.111.874-.11.606-.53.705-.973l.53-.088zm9.674 7.851c.187.967.88 1.322 1.917 1.13l.1.361-5.66 1.393-.11-.35c.967-.18 1.305-.88 1.136-1.835l-1.836-7.675c-.25-.869-.874-1.318-1.905-1.055l-.193-.344 5.683-1.393.174.344c-1.037.18-1.392.88-1.223 1.754l1.917 7.67zm13.264-6.539.694 3.84-9.156 3.398-.163-.35c.775-.355 1.119-1.049.857-1.917l-2.792-7.506c-.262-.781-.956-1.219-1.748-.875l-.163-.344 5.14-1.923.175.356c-.787.361-1.137 1.136-.875 1.911l2.81 7.612c.238.682 1.118.856 1.719.6 2.552-.868 2.978-2.186 3.054-4.715l.448-.087zm28.697-21.546-.262.262c-.764-.524-2.862-1.906-4.529-.437-1.218.962-.693 2.279-.425 2.535.519.519 1.288 1.043 3.141.356 2.698-.968 4.441-.53 5.467.687.71.956 1.853 3.235-1.12 5.414-.67.694-1.91.968-2.622 1.493-.169.087-.076.35.093.6l-.338.361-2.453-3.322.262-.169.956.606c.524.35 2.622 1.05 3.858.088 1.643-1.387.956-2.699.6-2.868-.6-.874-1.398-.874-4.266-.104-2.098.448-3.485-.339-4.103-1.131-1.48-1.743-.786-3.917.263-4.878 1.48-1.043 2.173-.694 2.884-1.306.263-.174.076-.35 0-.88l.263-.163 2.33 2.856zm-4.791 13.433-11.084-4.103h-.082l3.747 6.283c.455.693 1.149.967 1.836.431l.262.362-2.954 1.824-.268-.438c.769-.43.955-1.212.524-1.923l-4.097-6.894-.956-.262c-.361-.088-.71-.35-1.072-.088l-.163-.35 3.048-1.917 8.823 3.41-2.885-4.797c-.425-.798-1.118-.962-1.83-.623l-.268-.339 2.984-1.754.263.443c-.81.426-.974 1.125-.525 1.918l5.134 8.55-.437.267zm-118.644 12.839c-.256.857 0 1.562.88 1.818l-.18.356-5.24-1.83.18-.338c.787.338 1.481-.1 1.755-.968l2.605-7.587c.262-.787-.087-1.405-.868-1.749l.174-.355 5.146 1.824c1.48.443 2.874 1.136 3.048 2.791.175.95-.087 2.792-1.917 3.398-.868.356-1.923.262-3.147-.169l-1.3-.431-1.136 3.24zm1.305-3.759c.875.256 2.093.6 2.967-.443.524-.775.874-1.573.787-2.53 0-.786-.263-1.491-1.23-1.748-.344-.081-.781-.355-1.043.438l-1.48 4.283zm24.431 6.108-.443-.1-.425 3.497c-.187.88.256 1.48 1.212 1.574l-.088.431-5.495-.787.093-.42c.78.158 1.387-.273 1.573-1.153l1.044-8.025c.169-.781-.263-1.381-1.044-1.48l.082-.426 5.228.688c1.218.256 2.879.693 3.66 1.824.524.705.874 2.098-.082 3.234-.618.787-1.486.962-2.623 1.143 0 0 1.044.431 1.393 1.393.437 1.643-.169 1.643.268 2.797.257.682 1.568 1.556 1.731 1.556l-.081.431h-2.18c-2.354-.344-2.01-1.48-2.267-2.867.187-4.015-1.556-3.31-1.556-3.31zm-.344-.624c.868 0 2.343.525 3.048-.956.431-.868.525-2.278.344-2.797-.25-.525-.694-1.13-1.912-1.212-.437 0-.786.163-.874.519l-.606 4.446zm72.93-16.743 8.544 7.587c.612.7 1.05.263 1.236.17l.169.355-4.896 2.36-.163-.361c.694-.262 1.65-.787.956-1.58l-1.667-1.38-3.485 1.73.25 1.679c0 .95.537 1.212 1.667.693l.181.432-3.153 1.486-.163-.443c.431-.175.787-.525.693-1.475l-.693-10.921.524-.332zm3.742 6.713-3.41-2.966.362 4.54 3.048-1.574z"/><path d="M722.309 336.866c.174 2.005-.088 7.052-.088 7.402.787-3.486 1.58-6.802.443-10.112 0-.355.157-.606.513-.513l.787.25c-.869-.698-1.48-2.004-1.83-3.397-.793 2.08 0 4.26.175 6.37zm.611 60.179c.175 1.754 1.743 2.885 2.979 3.66-.28-.525-.525-1.119-.45-1.824.88-.7.88-1.836.788-2.967-.612-.081-1.12-.443-1.819-.343-.617.437-1.142.862-1.497 1.474zm-59.84 8.73c-.606.431-1.574.956-1.574 1.912-.175.093-.612.175-.7-.088-.261-.18-.261-.606 0-.705.613-.606 1.213-1.824 2.274-1.119zm11.603 1.48c-.274.432 0 1.312-.787 1.312-.524-.262-1.224-.175-1.573-.606.087-.432.43-.618.256-1.143.7-.612 1.83-.612 2.104.437zm-6.633.607c-.436.262-.96.798-1.579.442.1-1.66-1.561-.442-2.348-.699-.082-.524.524-.524.787-.705.955-.606 1.83.524 2.616-.344 0 .525.181 1.05.525 1.306zm3.667.798.087.513c-.606-.082-.962-1.13-1.836-.956l-.087-.18c.612-.35 1.48.005 1.836.623zm-6.377.344c-.25 1.3 1.75.338 1.23 1.742-1.23.181-2.36.082-3.053 1.393h-.263c-.268-.606.175-.961.263-1.393.35-.443 1.212-.355.961-1.223l-.961-.432c.437-.35 1.393-.431 1.824-.087zm9.256.862c0 .525-.525.787-.35 1.317-.787-.25-1.306-1.043-2.092-.25-.088.25-.606.338-.787.087 0-.18-.082-.18-.175-.262.437-.524.962-.967 1.748-.88.344-.169-.087-.775.344-.944.432.239 1.218.239 1.312.932zm-16.668-.6c0 .513-.356.956-.53 1.306-.432.256-.607-.181-.694-.525.093-.606.53-1.305 1.224-.78zm11.166 1.306c-.35.174-.693.174-1.043 0-.344-.181 0-.525 0-.787.35-.443.612.169.868.262.082.175.175.344.175.525zm-7.326-.706c-.606.88-.606 2.28-1.66 2.973-.694-.525.262-1.3.437-1.825.262-.36.617-1.317 1.223-1.148zm16.837 1.23c0 .262.175.525-.087.618-.612-.268-.869-.968-1.48-1.142.518-.624 1.223.081 1.567.524zm-.95 2.611c.956 1.404-.71 2.354-.71 3.66-1.306.618.524 1.58-1.044 1.836-.688.262-1.212-.525-1.999-.432-.087-.442-.618-.524-.705-.874.519.088.787-.256 1.218-.344.443.251.274 1.038.967.968.437.076.519-.356.694-.618.18-.88.262-2.185-.088-2.966-.256-.094-.606-.17-.518-.53.169-.251.262-.607 0-.863-.257.344-.612.693-1.13.431-.094-.606-.356-1.049-1.056-1.218-.256 0-.431-.175-.693-.087l-.35.612c-.519-.175-.087-.612-.087-.88.606-.6 1.66-.257 2.442 0 .093.174.35.268.518.268-.262-.17-.087-.694-.175-.956.438-.618.875-.268 1.312 0 .344.78.786 1.387 1.404 1.993zm-6.725-.35c-.088.705.612.874.53 1.661-.967-.344-1.66-1.393-2.972-.956-.17-.786 1.748-.442.7-1.398-.956.361-2.093.693-2.961 1.218-.263-.437.35-.857.437-1.218.524-.694 1.218-1.311 2.18-1.311 1.73-.426.25 2.185 2.086 2.004zm-5.933.956c-.35 0-1.043.274-.612.798-.338 0-.606-.093-.693-.437.081-1.049 1.043-1.317 1.649-1.835.18.437-.088 1.043-.344 1.474zm-7.069-.519c0 .356-.18.606-.53.717-.257 0-.257-.443-.607-.443.443.082.706-.792 1.137-.274zm22.076 1.737c-.18.618-.437 1.405-1.142 1.58-.257-.525.43-1.143.18-1.836-.262-.17-.18-.606-.18-.88.623.005.961.623 1.142 1.136zm-17.717-.513c.268 1.224-1.562 1.312-.78 2.442-.7-.093-.613-.868-.35-1.404.168-.525.425-1.125.961-1.294l.169.256zm3.141-.088c.175.52-.344 1.126-.175 1.662-.343-.18-.087-.874 0-1.48.088 0 .088-.181.175-.181zm4.365.35c.263.094.437.251.344.612-.518.52-1.218.7-1.917.781h-.612c-.17-.35.175-1.037-.256-1.223 0-.251.43-.432.693-.432.874-.431 1.049 1.13 1.748.263zm-5.32.525c0 .868-.525 1.486-.787 2.18-1.13-.263 0-1.312-.35-2.093.262-.442.787 0 1.137-.087zm7.506.344c.606 1.311-.793 1.748-1.317 2.53-.175-.613-.35-1.219-.437-1.743.344-.344.699-1.218 1.31-.606l.444-.181zm-13.002 2.879c-.088.175-.175.175-.35.175-.431-.682-.431-1.743 0-2.436.612.43.53 1.567.35 2.26zm10.379-1.306c-.175.263-.693.088-.693.525l.518.431s-.518.606-.78.18c-.35-.261 0-1.305-.787-.873-.17.262-.17.874 0 1.218.524 1.311 2.092-.525 2.092.967-.35.262-.787.775-1.393.7.25-.356-.175-.793-.524-.88-.513-.175-.962.18-.962.617-.868-.093-.256-1.224-.962-1.58.088-.25-.262-.862.257-.862.618.25.787-.524 1.148-.606.693-.192 1.562-.361 2.086.163zm10.03 1.661c-.093 0-.175.088-.093.17-.163 0-.163-.082-.25-.17.524-.524-.263-.967.087-1.48.524.163.256 1.043.256 1.48zm-14.57.087c-.518.607-1.736.345-2.529.257-.606.262 1.055 2.267-.437 1.218-.6-.513 0-1.13.093-1.655.525-.344 2.267.88 1.83-.606.18-.262.268-.694.705-.694.606.344.25.956.338 1.48zm-7.319 0c-.094.176 0 .426-.094.607-.087-.088-.087.18-.169 0-.175-.35-.437-.868-.093-1.13.356-.088.256.343.356.524zm14.22.176c.087.699-1.4.081-.962.868.525.262 1.224.705 1.574.175.256-.35.524-.705.78-1.05h.175c.18.87-.955 1.825 0 2.524.263-.087.618 0 .793-.087.087.355 0 .88-.443.88-.868 0-1.218-1.212-2.086-.793l-.088-.693c-1.049 0-.449 1.748-1.492 1.049-.344-.944.968-.869.793-1.824-.088-.263-.88-.525-.35-.968.431 0 .869-.081 1.306-.081z" fill="#fc0"/><path d="M665.172 420.17c-.175.525-.962.525-1.48.606-.088-.524.786-.606 1.124-.88.094-.344.437 0 .356.274zm-4.103 1.824c-.868-.081-.781-1.125-1.212-1.568l.169-.355c.524.536.606 1.317 1.043 1.923zm14.751-.862c-.088.087-.088.338-.35.338-.437.105-.356-.525-.7-.606 0-.257 0-.525.263-.612.437.093.518.618.786.88zm1.736-.082c-.519.775-1.393 1.824-2.442 2.087-.262 0-.518-.263-.35-.537 1.131-.25 1.743-1.387 2.442-1.911.094.087.45.087.35.361zm-10.03.694c.088.338-.081.95-.612 1.037-.693.1-1.573.361-1.742 1.142-.175.25-.606.076-.874.18-.344-.104-.694-.355-.344-.698.606-.356 1.218-.618 1.742-1.05-.262-.268-.961.17-1.218-.268.612-.78 1.65.088 2.349-.43l.7.087zm-4.627 1.037c-.262.1-.612.1-.781-.175 0-.25.087-.437.35-.524.169.268.693.268.43.699zm6.457 1.323c.175.338-.175.6 0 .863.519.168 1.137.524 1.218 1.048.706-.262 1.749-.786 1.836-1.486h-.612c-.087-.25.093-.606.525-.606l.955.076c-.343 1.136-1.043 2.36-2.267 2.797-.256.443-.78 1.05-1.387.956.082-.606 1.044-1.13.787-1.742-.612.169-1.224.169-1.742 0v-.443c-.263-.082-.956.175-1.05-.262-.087-.781-.705-.781-1.142-1.387.1-.175.18-.438.356-.438.618-.081.53 1.65 1.049.694-.088-.431.175-.694.437-.868.6-.164.6.693 1.037.798z" fill="#fc0"/><path d="M671.099 424.273c-.257 0-.519-.17-.688-.35l.17-.518c.174.163.518.518.518.868zm6.201-.169c-.356.6-1.043 1.125-1.83 1.125-.437-.094-.525-.431-.7-.787.263-.17.869-.17 1.131 0 .53-.17 1.043-1.137 1.399-.338zm-16.75.6c.344.094 1.13.175 1.475.525 0 .431-.513.35-.863.35-.786-.438-2.005 0-2.442-.945.7-.11 1.306.758 1.83.07zm6.359 1.656c.612 0 1.136.262 1.404.617-.606.262-1.224.076-1.842.262-.35-.093-.78-.262-.78-.617.43-.525-.438-1.4.355-1.743.78.087 0 1.3.863 1.48zm-1.912-.525c-.18.081-.262.262-.437.262-.18-.35.524-.792 0-1.136.437-.082.169.612.437.874zm8.631.525c.268.436-.169.693-.524.693-.35-.076-.869 0-.869-.431.257-.443.869-.181 1.393-.263zm-9.505.88c-.262.25-.869.25-1.137 0-.087-.094-.43-.444-.087-.525.53-.093.962.262 1.224.524zm4.015 1.742c.088 4.085-.175 8.025-.431 12.122-.262 1.65-.093 3.403-.355 5.059-1.002-.677-.846-1.84-.88-2.885 0-1.218.099-2.174-.251-3.223-.968.338-.88 1.399-1.311 2.098-.962-.7-.263-2.372 0-3.41 0-.35.606-.442.343-.88-.874 0-1.212.618-1.655 1.224-.087.443-.175.968-.612 1.055-.518-.518-.43-1.573-.35-2.36.7-1.655 4.016-.25 3.486-2.966.634-1.775.445-3.98.35-5.927.268-.706 1.579-.519 1.666.093zm34.968-25.054c-.251 2.966-2.868 4.551-5.397 5.851-.53.524-.793 1.142-.793 1.836l.164.175c1.223-.968 2.552-1.749 4.102-2.098-.075 2.441-3.222 2.616-4.528 4.01 0 .261-.262.693.175.88 1.049-.619 2.185-.8 3.159-1.23.42.35-.111.705-.111 1.148-1.125 1.468-2.797 2.168-4.447 2.861-.431.443-.786.7-1.13.88-.443-.787.35-1.317.798-1.836.6-2.18-.798-5.058 1.032-6.894-.606-.18-1.218.344-1.48.868-1.219 2.186.955 5.14-1.219 6.976-.868.799.787 2.442-.868 2.442-.868-.087-1.405-.606-1.574-1.393-.268-1.218.869-2.005.344-3.304-.262-1.667-.524-3.934.53-5.245 2.355-3.31 6.627-4.173 10.304-6.02.076-.513.863-.414.939.093zm-12.903 6.9c-.25 1.568.35 3.403.35 4.977-.35.694-1.125.169-1.481-.087-.787-.787-2.174-1.318-2.791-2.273.43-1.469 2.267-2.699 3.922-2.617zm-.606 6.37c.099.524-.263.967-.787 1.218l-3.934.71c-.519-.186-.338-.88-.519-1.322.18-1.218.356-2.53 1.317-3.304 1.48.518 2.699 1.83 3.923 2.698zm9.948.967c-.082 1.387-.262 2.967-1.405 3.917-1.218-.507-2.074-1.306-3.036-2.093.425-1.043 1.48-1.736 2.337-2.43.624-.536 2.553-.886 2.104.606zm-9.155 2.087-2.437 3.666c-1.334.25-1.853-1.487-2.634-2.093-.082-.524-.437-.775-.35-1.399 1.58-.617 3.054-.88 4.89-.961l.53.787zm6.97 2.628c-.275 1.224-1.656 1.918-2.88 2.349-1.136-.787-.693-2.267-.95-3.579 0-.35.082-.78.432-.955 1.23.437 2.174 1.474 3.397 2.185zm-5.228-.53c0 1.13 1.043 2.529 0 3.304-1.224.257-2.279-.35-3.235-.693.268-1.48 1.306-2.186 2.174-3.491.798-.6.798.524 1.06.88zm-40.831-17.624c-.792 2.53-3.14 4.196-5.495 5.222-.525.274-.437.798-.525 1.23.781.262 1.306-.706 2.092-.875.787-.524 1.912-.967 2.617-1.643.35 0 .437.344.35.682 0 1.404-1.83 1.836-2.623 2.634l-2.61 1.212c-.175.443-.088.787.262 1.05 1.468 0 2.267-1.131 3.572-1.4.612.187.175.607.175.869-1.13 1.743-3.49 1.743-4.89 2.885h-.512c.174-.874.43-2.279.262-3.316-.356-1.48.081-2.973.862-4.185-.344-.274-.513.175-.78.25-1.83 1.586-.438 4.453-1.306 6.377-.356.78-.968 1.649-.7 2.616.344.263.607.799.17 1.05-.793.087-1.48.786-2.273.343-.606-.437-.869-1.206-.956-1.917 0-.787.868-1.399 1.13-2.005 0-.967-.786-1.743-.518-2.623-.612-1.468.081-2.96.956-4.09 2.523-2.623 6.8-3.142 10.204-4.71.268-.087.536.082.536.344z" fill="#fc0"/><path d="M638.305 412.396c-.268 1.486 1.923 2.622.432 3.846-1.48-.437-2.699-1.573-3.666-2.622.612-.962 1.66-2.005 2.885-2.267l.35 1.043zm-.53 5.244-.35.345c-1.305.262-2.53.693-3.835.786-.606-1.218 0-2.797.7-3.759 1.224.706 2.873 1.23 3.485 2.629zm10.741-.343c.169 1.65-.268 3.223-1.137 4.616-.874.355-1.667-.863-2.442-1.137-.35-.35-.874-.606-1.218-1.049-.093-1.393.956-2.267 1.993-2.791.787-.088 2.536-1.218 2.804.361zm-10.211 2.349c.262 1.13-1.049 2.185-1.58 3.234-.436.17-.343 1.043-1.042.787-1.044-.88-1.749-2.017-1.83-3.41.955-.606 2.436-.705 3.572-1.223.35.099.793.099.88.612zm8.019 3.496c-.699.962-1.83 2.087-3.053 1.912-.606-1.05-.781-2.355-1.131-3.398-.082-.431.35-.705.612-.78 1.393.343 2.436 1.392 3.572 2.266zm-4.359 2.081c-.431.874-1.737.35-2.61.35-.782-.263-1.83-.35-2.186-1.131.355-1.218 1.492-2.086 2.016-3.141.519-.694 1.13.169 1.65.087.693 1.13.78 2.611 1.13 3.835zm19.715-35.154c.438 1.836.17 3.928-.092 5.676-.606.17-1.3-.093-1.918-.274-.431-1.73-.087-3.485-.087-5.484.524-.617 1.667-.36 2.098.082zm-28.002.618v5.32c-.7.263-1.399.683-2.186.263v-6.108c.269-.437.962 0 1.393-.175.612 0 .705.082.793.7zm39.426-.099-.088 4.883c-.693.443-1.562.181-2.267.274-.88-.88-.18-2.004-.35-3.228 0-.799-.093-1.743.35-2.267.793-.181 2.01-.793 2.355.338zm-25.462-.519.343.443c-.087 1.836.175 3.829-.262 5.571-.519.187-1.562.537-2.18-.075-.093-.094-.093-4.814-.093-4.814 0-.863-.344-.944.973-1.294.339.087.869-.093 1.219.169zm50.592.874c-.525 1.574.868 4.459-1.318 4.71-.437.092-.856-.182-1.218-.251-.43-1.755.1-3.153.1-4.983.338-.694 1.38-.088 2.167-.17l.269.694zm-61.071-.256v5.14c-.606.606-1.48-.087-2.355.175v-5.758c.793-.344 1.749-.082 2.355.443zm21.202-.099c0 1.579.087 3.502-.17 5.064-.704.262-1.491.431-2.185.525 0-1.382-.093-3.66.088-5.484.7-.187 1.83-.968 2.267-.105zm36.115.606c.105 1.58 0 2.797-.169 4.277-.868 0-1.841.88-2.529.181.087-1.568-.274-3.398.25-4.796 1.056.25 2.623-1.918 2.448.338zm-64.2-.251v5.496c-.53.18-1.311.25-2.01.25.087 0 0-6.183.087-6.27.612-.088 1.999-.519 1.923.524zm21.021-.087v5.414c-.093.25-.268.524-.524.524-.7 0-1.136-.524-1.661-.786v-5.321c.443-.88 1.83-.356 2.185.169zm54.177.524-.181 5.053c-.344.705-1.469.525-2.075.361l-.274-.617.088-5.234c.43-.524 2.96-1.399 2.442.437zm-39.956-.355c-.088 1.754.256 3.578-.263 5.152-.78-.525-2.267.617-2.354-.706.262-1.73.087-2.954.087-4.784.53-.437 1.574-.105 2.267 0l.263.338zm10.909-.169v5.058c-.612.606-1.66 0-2.273-.262v-4.709c.175-1.043 1.737-.256 2.273-.087zm7.32 0v3.66c.1-.094-.163 1.393-1.049 1.562-.606-.076-1.381.093-1.667-.432.1-1.567-.075-3.234.181-4.709.618-.35 2.18-.95 2.535-.081zm3.579.787-.175 4.01c-.606.524-1.48.092-2.186 0-.693-1.382.18-2.967-.093-4.628.093-1.212 1.498-.338 2.279-.437l.175 1.055zm-43.185-.093s0 4.458.087 4.528c-.862.798-1.212.536-1.824.88l-.612-.17v-5.414c.437-.874.968-.36 1.661-.798.868-.245.688.973.688.973zm57.667-.776c.169 1.644.169 3.83-.163 5.403-.705 0-1.836-.263-2.36-.775.08-1.661-.175-3.497.262-4.814.769 0 1.637-.082 2.26.186zm-47.025.42-.094 4.977c-.606.35-1.474.868-2.18.35.176 0 .088-5.14.088-5.415 1.05-.518 2.01-.6 2.186.088zm14.569.186c-.262 1.475.263 3.136-.437 4.447-.78-.087-1.83.787-2.267-.087.088-1.58-.262-3.398.257-4.803.798-.081 2.366-.775 2.447.443zm-28.696.263v4.877c-.437.618-2.36.274-2.36-.35v-5.233c.611-.25 2.36-.25 2.36.706zm50.155 0-.263 4.435c-.262.536-1.124.355-1.649.273l-.612-.524c.088-1.923-.262-3.147.338-4.808.618.175 2.017-.513 2.186.624zm-10.899-.181v4.54c-.43.612-1.392.431-2.098.35-.775-1.312.094-3.054-.163-4.71.076-1.06 1.306-.18 2.092-.448l.17.268zm-19.022-38.382c-.344.704-.169 1.83-1.037 2.097-.362-.606-1.142-1.037-1.142-1.835.617-.35 1.573-.793 2.18-.263zm-1.224 3.84c-.25.449-.431.967-.868 1.212-.7-1.212-3.229-2.086-2.18-4.178.175-.368.694-.618.956-.175.962 1.049 1.399 2.004 2.092 3.14zm-4.621-2.966c.175.606-.781.874-1.218 1.218-.962.35-2.005.606-2.885.955.973-1.037 2.61-1.824 4.103-2.173zm-.6 3.572c-.53 1.574-2.448 1.574-3.503 2.698-2.867 3.41-4.971 6.988-7.932 10.386-1.142-.076-2.348-.682-3.397-1.125v-.612c4.708-2.442 9.417-5.403 11.51-10.385.955-.525 2.098-.694 3.14-1.05l.182.088zm3.129 1.754c-.344.257-.7.606-1.13.694 0-.612.174-1.218.693-1.48.175.168.612.35.437.786zm26.272.437c-.361 1.3-.18 2.955-.88 3.91-.175-1.299-.513-3.304.618-4.178l.262.268z" fill="#fc0"/><path d="M649.034 360.061c-.955 2.186-3.228 3.76-4.808 5.321-.955.443-1.824 1.218-2.791 1.492l.268-.542c2.523-2.092 4.452-4.348 7.331-6.27zm32.706 2.436-.78-.25c-.187.606.693 1.049.868 1.66.519 2.693 1.754 5.053 3.135 7.408 0 .262-.256.437-.524.355-1.05-.606-1.381-1.835-2.092-2.884-1.317-1.825-2.53-3.923-3.649-5.84-.18-.956 1.12-1.399 1.813-1.923.361-.18.88-.694 1.323-.35.169.606.169 1.218-.093 1.824zm5.502-.081c0 .443-.169.88-.618.967-1.043.25-1.305-.787-2.26-.88.087-.431-.176-1.037.267-1.305.77.512 2.436.174 2.611 1.218zm-33.848-.956c-1.4 2.966-4.977 6.451-7.769 8.106h-.519c1.568-2.004 2.88-4.365 4.616-6.189.973-1.748 2.885-2.442 3.672-1.917zm-.356 2.174c.088 1.748-1.212 2.966-1.655 4.54-1.218 1.567-2.704 3.053-4.184 4.277-.612.088-1.137-.105-1.393-.524.431-.525 1.305-.612 1.911-1.143 2.448-2.185 4.016-4.353 5.152-7.156h.17v.006zm30.451 8.03c-.262.607-1.037.787-1.748.787-1.044-2.622-4.529-4.365-3.136-7.768l.437.081 4.447 6.9z" fill="#fc0"/><path d="M649.897 367.48c-1.475 1.836-2.955 3.392-5.315 4.01l-.17-.175c1.75-1.13 3.754-2.436 5.316-3.83h.169v-.005zm29.145 1.743c.781 1.13 1.655 2.348 1.918 3.566-.525.17-1.137.618-1.755.274-.95-.967-.862-2.704-.606-4.015l.443.175zm-34.816 4.009c-.087.437-.169.968-.693 1.13-1.137-.693-2.186-1.91-2.792-2.96 1.224.432 2.53.874 3.485 1.83zm29.67-21.546c0 1.137-.437 2.18-.268 3.305-.087.18-.35.18-.524.18-.35-.955-1.562-1.66-1.393-2.791.7-.356 1.393-1.3 2.185-.694zm.513 7.408c.093 1.841.968 3.316 1.405 4.977l-.35-.1c-2.273-3.135-4.278-6.264-6.288-9.674.443-.524.961-.868 1.573-.967l3.66 5.764zm-7.839-3.217c.17.606-.35 1.043-.518 1.649-.443.443-.711-.25-.793-.606-.006-.53.606-1.043 1.312-1.043zm1.48 4.621-.174.344c-.7-.344-.967-1.218-1.405-1.742a4.89 4.89 0 0 1 .88-2.18c1.393.606.438 2.36.7 3.578zm-2.878-1.655c.087.775-.437 1.568-.962 1.993-.868-.344-.693-1.305-.693-2.261.175-.35.175-.78.256-1.136.7.087.956.967 1.399 1.404zm9.237 5.227c.274.88-.868.694-1.218.694-.962-.169-.868-1.218-1.3-1.824-.35-1.23-2.098-5.938-2.622-7.063l1.917 2.698 3.223 5.496zm-3.741.788c-.706-.263-.869-.88-1.393-1.48a10.737 10.737 0 0 1 0-3.404c1.218 1.224 1.043 3.234 1.393 4.884zm-2.618-.788c-.343.788.7 1.924-.261 2.256-1.131-1.125-1.83-2.605-2.699-3.916-.175-.956.17-1.475.869-2.192.95 1.154 2.18 2.28 2.092 3.853zm-13.001-1.48v11.61c-.869.693-2.01.425-3.136.524-1.317-.524-2.71-1.224-3.933-1.836v-.35c2.879-2.61 5.495-5.582 5.752-10.04.093-.251.443-.35.71-.432.438.006.525.18.607.524zm8.858-.926c-.21.623-.42 1.468-.845 1.882-.21-.618-.42-1.678.216-2.098l.63.216zm1.09 2.238c.525 1.3 1.66 2.424 2.185 3.829.094.437-.355.606-.437.961h-.617l-2.35-3.49c-.08-.525.094-1.23.526-1.662l.693.362zm-6.37 9.686c-.175.693-.262 1.48-.874 1.835-.606-.104-.956-.442-1.306-.967-.343-3.147-.087-6.894-.256-9.773l.175-.338c1.13 2.954 1.65 6.096 2.261 9.243zm17.105-8.025c-.093 1.393-.618 2.78-1.323 4.003-.78-.25-.78-1.392-1.218-2.004.087-.437-.256-.787-.087-1.236.612-.857 1.748-.763 2.628-.763zm1.824.344.257 7.931c-.52.443-1.562.705-2.267.443-2.18-2.879.35-5.758 1.218-8.374.093-.263.792-.607.792 0zm-11.953 3.659c.088.52-.35.869-.519 1.306h-.437c-.524-.606-1.218-1.306-1.13-2.267-.263-.431-.53-1.224-.175-1.731 1.037.606 1.387 1.824 2.261 2.692zm8.025 1.492v.251c-.606.175-.524-.606-.693-.956-.268-1.13-.787-2.348-.787-3.485.7 1.224 1.043 2.698 1.48 4.19zm-1.911-2.797c.437 2.442 2.354 5.583-.17 7.594-.705-.093-1.486-.35-1.923-.874.175-2.629-.443-4.721-.087-7.157.344-.449.962-.956 1.655-.787l.525 1.224zm-9.599.437c.7 1.743.962 3.578 1.574 5.321-.175.524-.35 1.136-.869 1.404-.612-.104-1.836.164-1.836-.798 0-.513-.256-.956-.35-1.3-.087-.367-.349-.705-.256-1.136.344-1.13.869-2.535 1.737-3.49zm6.02.787v3.747c-.612.7-2.092.606-2.972.356-.175-.799.262-1.574.525-2.186.611-.792 1.218-1.917 2.185-2.36l.262.443zm6.714 6.095c-.694-.349-.874-1.305-.956-2.086l.262-.43c.525.524 1.05 1.742.694 2.517zm-28.09-.955c.268.694-.607.606-1.055.694-.338-.251-1.125.186-1.382-.338.17-.525.17-1.224.781-1.487.775.094 1.131.787 1.656 1.131zm84.888 37.602s-.098 8.205 0 8.205h.88v-8.811c-.355-.088-.792.355-.88.606zm1.568-4.803c.164.181.432.181.618 0-.285-.693 1.12-1.73-.099-1.824.006-.005-.705 1.131-.519 1.824zm-60.278-83.828c.438.082.607.606.52 1.13-1.131 1.131-2.792 1.574-4.46 1.493.181-1.93-2.091-1.492-2.091-3.066-.257-.25-.787-.169-1.044-.087-.35 1.742-1.742.792-2.092 2.966-2.005 0-4.44-.082-5.49-1.393-.18-.7.344-1.049.781-1.224 3.753-.961 8.02-1.136 11.778-.437l2.098.618z" fill="#fc0"/><path fill="#a00" d="M0 0h444.444v800H0z"/><path fill="#fc0" d="M888.889 0h444.444v800H888.889z"/></svg>