<svg xmlns="http://www.w3.org/2000/svg" version="1" width="1024" height="642.939" xmlns:cgf="https://coding.garden/flags"><metadata id="cgf-metadata">

<cgf:flag>
  <cgf:name>San Luis Obispo</cgf:name>
  <cgf:route>us/ca/san_luis_obispo</cgf:route>
  <cgf:aspect-ratio>1.5950155763239875</cgf:aspect-ratio>
</cgf:flag>

</metadata><path d="M.016 321.47V0h1023.626v642.939H.016v-321.47z" fill="#fdfdfd"></path><path d="M.016 525.814c0-147.364-.206-147.085 112.673-152.022 87.394-3.823 275.808 16.495 340.017 36.666 23.212 7.292 52.749 14.826 65.637 16.742 46.596 6.928 69.453 23.738 72.29 53.165l2.668 27.653 128.459-2.332 128.458-2.333 2.677-23.267c3.132-27.22 14.063-33.755 80.222-47.964 42.638-9.157 51.774-8.758 69.793 3.049 20.01 13.11 20.732 16.967 20.732 110.676v97.092H.016V525.814zm620.504-81.98c-2.742-7.144 4.991-35.22 17.185-62.39 12.193-27.17 22.17-59.567 22.17-71.992 0-28.31 34.696-64.12 62.126-64.12 33.47 0 55.49 25.25 64.544 74.017 4.535 24.425 14.054 55.642 21.155 69.373 7.1 13.73 12.91 34.67 12.91 46.533v21.57h-97.553c-79.912 0-98.454-2.35-102.537-12.99zm236.53-64.763c-4.815-6.09-11.27-33.455-14.341-60.81C831.285 216.533 756.01 169.597 667.157 208.8c-34.235 15.104-66.5 67.172-66.5 107.312 0 36.412-18.197 41.915-73.21 22.141-80.238-28.841-250.437-86.152-277.869-93.566-13.958-3.773-38.703-10.618-54.988-15.212-16.285-4.594-58.457-15.745-93.716-24.78C-3.698 177.898.016 182.332.016 84.3V0H1024l-2.294 167.08-2.294 167.079-42.298 22.388c-52.436 27.754-107.726 38.126-120.063 22.524z" fill="#fffffe"></path><path d="M.146 530.847c.068-61.65 2.926-116.28 6.345-121.4C21.868 386.42 53.9 380.694 166.54 380.84c120.974.157 241.185 14.598 307.22 36.906 20.938 7.073 54.249 17.003 74.023 22.066 31.396 8.04 35.954 12.168 35.954 32.567 0 40.33 10.712 43.665 140.241 43.665 127.54 0 134.681-2.154 140.234-42.299 2.628-19 9.257-22.413 65.213-33.583 61.987-12.375 62.364-12.34 78.252 7.282 13.358 16.496 15.965 34.071 15.965 107.606v87.89H.016l.13-112.092zm625.89-97.613c0-8.321 7.613-30.064 16.919-48.317 9.306-18.252 16.92-41.33 16.92-51.284 0-55.875 39.515-94.863 80.704-79.626 25.055 9.269 34.73 24.86 41.03 66.124 3.085 20.201 13.122 51.456 22.305 69.455 29.635 58.09 28.69 58.78-80.592 58.78-87.813 0-97.286-1.474-97.286-15.132zm231.015-54.163c-4.816-6.09-11.27-33.455-14.342-60.81C831.285 216.533 756.01 169.597 667.157 208.8c-34.235 15.104-66.5 67.172-66.5 107.312 0 36.412-18.197 41.915-73.21 22.141-80.238-28.841-250.437-86.152-277.869-93.566-13.958-3.773-38.703-10.618-54.988-15.212-16.285-4.594-58.457-15.745-93.716-24.78C-3.698 177.898.016 182.332.016 84.3V0H1024l-2.294 167.08-2.294 167.079-42.298 22.388c-52.436 27.754-107.726 38.126-120.063 22.524z" fill="#fff"></path><path d="M.146 530.847c.068-61.65 2.926-116.28 6.345-121.4C21.868 386.42 53.9 380.694 166.54 380.84c120.974.157 241.185 14.598 307.22 36.906 20.938 7.073 54.249 17.003 74.023 22.066 31.396 8.04 35.954 12.168 35.954 32.567 0 40.33 10.712 43.665 140.241 43.665 127.54 0 134.681-2.154 140.234-42.299 2.628-19 9.257-22.413 65.213-33.583 61.987-12.375 62.364-12.34 78.252 7.282 13.358 16.496 15.965 34.071 15.965 107.606v87.89H.016l.13-112.092zm625.89-97.613c0-8.321 7.613-30.064 16.919-48.317 9.306-18.252 16.92-41.33 16.92-51.284 0-55.875 39.515-94.863 80.704-79.626 25.055 9.269 34.73 24.86 41.03 66.124 3.085 20.201 13.122 51.456 22.305 69.455 29.635 58.09 28.69 58.78-80.592 58.78-87.813 0-97.286-1.474-97.286-15.132zm233.446-62.197c-1.983-6.324-5.757-32.383-8.387-57.907-10.517-102.06-102.545-155.335-190.666-110.38-35.318 18.018-68.232 72.253-68.232 112.431 0 12.215-3.282 24.238-7.294 26.717-4.011 2.48-56.356-12.932-116.321-34.247-116.761-41.504-261.698-86.024-371.279-114.045C3.144 169.53.016 165.71.016 74.826V0h1023.626v152.831c0 84.057-3.655 159.66-8.122 168.007-16.46 30.756-148.788 73.327-156.038 50.2z" fill="#ffe642"></path><path d="M.146 530.847c.068-61.65 2.926-116.28 6.345-121.4C21.868 386.42 53.9 380.694 166.54 380.84c120.974.157 241.185 14.598 307.22 36.906 20.938 7.073 54.249 17.003 74.023 22.066 31.396 8.04 35.954 12.168 35.954 32.567 0 40.33 10.712 43.665 140.241 43.665 127.54 0 134.681-2.154 140.234-42.299 2.628-19 9.257-22.413 65.213-33.583 61.987-12.375 62.364-12.34 78.252 7.282 13.358 16.496 15.965 34.071 15.965 107.606v87.89H.016l.13-112.092zm625.89-97.613c0-8.321 7.613-30.064 16.919-48.317 9.306-18.252 16.92-41.33 16.92-51.284 0-55.875 39.515-94.863 80.704-79.626 25.055 9.269 34.73 24.86 41.03 66.124 3.085 20.201 13.122 51.456 22.305 69.455 29.635 58.09 28.69 58.78-80.592 58.78-87.813 0-97.286-1.474-97.286-15.132zm242.1-67.057c-2.875-2.876-5.25-16.967-5.276-31.313-.21-115.945-97.046-186.472-198.074-144.26-36.613 15.298-81.05 79.205-81.05 116.562 0 22.35-2.198 24.269-23.263 20.297-12.796-2.412-80.368-24.29-150.16-48.618-69.793-24.327-138.317-47.315-152.275-51.085-13.959-3.77-38.703-10.612-54.988-15.206-16.285-4.594-59.388-15.971-95.783-25.283C3.28 160.665.017 157.147.017 71.713V0h1023.625l-.269 150.16c-.187 104.88-3.376 154.102-10.574 163.233-20.375 25.846-131.173 66.273-144.663 52.784z" fill="#ffe642"></path><path d="M.146 530.847c.068-61.65 2.926-116.28 6.345-121.4C21.868 386.42 53.9 380.694 166.54 380.84c120.974.157 241.185 14.598 307.22 36.906 20.938 7.073 54.249 17.003 74.023 22.066 31.396 8.04 35.954 12.168 35.954 32.567 0 40.33 10.712 43.665 140.241 43.665 127.54 0 134.681-2.154 140.234-42.299 2.628-19 9.257-22.413 65.213-33.583 61.987-12.375 62.364-12.34 78.252 7.282 13.358 16.496 15.965 34.071 15.965 107.606v87.89H.016l.13-112.092zm625.89-97.613c0-8.321 7.613-30.064 16.919-48.317 9.306-18.252 16.92-41.33 16.92-51.284 0-55.875 39.515-94.863 80.704-79.626 25.055 9.269 34.73 24.86 41.03 66.124 3.085 20.201 13.122 51.456 22.305 69.455 29.635 58.09 28.69 58.78-80.592 58.78-87.813 0-97.286-1.474-97.286-15.132z" fill="#0052a5"></path></svg>