<svg xmlns="http://www.w3.org/2000/svg" version="1" width="324" height="216"><path fill="#FFF" d="M0 0h324v216H0z"/><path fill="#FF0" d="M0 108h324v108H0z"/><path d="M0 107.5V72h324v71H0v-35.5zm35-62.021c0-14.52 0-14.522-2.5-15.661-2.357-1.074-2.5-1.587-2.5-8.979V13h3.434c3.002 0 3.473.345 3.75 2.75.25 2.182.832 2.75 2.816 2.75s2.565-.568 2.816-2.75c.246-2.136.845-2.75 2.684-2.75 1.839 0 2.438.614 2.684 2.75.25 2.182.832 2.75 2.816 2.75s2.565-.568 2.816-2.75c.246-2.136.845-2.75 2.684-2.75 1.839 0 2.438.614 2.684 2.75.25 2.182.832 2.75 2.816 2.75s2.565-.568 2.816-2.75c.277-2.405.748-2.75 3.75-2.75H72v7.84c0 7.391-.143 7.904-2.5 8.978-2.5 1.139-2.5 1.141-2.5 15.66V60H55.127l-.314-3.25c-.288-2.988-.595-3.25-3.813-3.25s-3.525.262-3.813 3.25L46.873 60H35V45.479zm29.816 2.771c-.25-2.182-.832-2.75-2.816-2.75s-2.565.568-2.816 2.75C58.898 50.732 59.172 51 62 51s3.102-.268 2.816-2.75zm-11-8c-.25-2.182-.832-2.75-2.816-2.75s-2.565.568-2.816 2.75C47.898 42.732 48.172 43 51 43s3.102-.268 2.816-2.75zm-11-8c-.25-2.182-.832-2.75-2.816-2.75s-2.565.568-2.816 2.75C36.898 34.732 37.172 35 40 35s3.102-.268 2.816-2.75z" fill="#d40000"/></svg>