<svg xmlns="http://www.w3.org/2000/svg" width="800" height="600" xmlns:cgf="https://coding.garden/flags"><metadata id="cgf-metadata">

<cgf:flag>
  <cgf:name>Woodland</cgf:name>
  <cgf:route>us/ca/woodland</cgf:route>
  <cgf:aspect-ratio>1.3333333333333333</cgf:aspect-ratio>
</cgf:flag>

</metadata><path style="marker:none" color="#000" fill="#fff" fill-rule="evenodd" overflow="visible" d="M0 0h800v600H0z"></path><path style="marker:none" color="#000" fill="#da0000" fill-rule="evenodd" overflow="visible" d="M0 480h800v120H0z"></path><g fill="#fff" font-weight="400" font-family="Gloucester MT Extra Condensed"><path d="m113.396 544.204 3-38-3-3v-3h14v3l-3 3-9 74h-5l-6.894-46.954-6.106 46.954H92.31l-9.915-74-3-3v-3h16v3l-3 3 3.915 39.686 4.085-39.686-3-3-.022-3h14.022v3l-3 3 5 38z" font-size="95.184"></path><path d="M193.805 580.204c-5.186 0-9.05-3.506-11.594-10.52-2.544-7.013-3.815-16.714-3.815-29.104s1.284-22.217 3.852-29.48c2.568-7.264 6.297-10.896 11.185-10.896 4.59 0 8.232 3.348 10.924 10.044 2.693 6.696 4.039 16.606 4.039 29.73 0 13.393-1.334 23.445-4.002 30.157-2.667 6.713-6.197 10.07-10.589 10.07zm-.41-5.41c1.117 0 2.14-.968 3.071-2.905.93-1.937 1.595-7.247 1.992-15.93s.595-16.648.595-23.895c0-6.546-.298-11.93-.893-16.155-.596-4.225-1.24-6.947-1.936-8.166-.694-1.219-1.588-1.828-2.68-1.828-.918 0-1.743.468-2.475 1.403s-1.302 2.613-1.712 5.034c-.41 2.421-.769 7.155-1.08 14.202-.31 7.046-.464 14.36-.464 21.94 0 9.452.459 16.198 1.377 20.239.918 4.04 2.32 6.061 4.206 6.061zm85.41 5.41c-5.186 0-9.05-3.506-11.594-10.52-2.544-7.013-3.815-16.714-3.815-29.104s1.284-22.217 3.852-29.48c2.568-7.264 6.297-10.896 11.185-10.896 4.59 0 8.232 3.348 10.924 10.044 2.693 6.696 4.039 16.606 4.039 29.73 0 13.393-1.334 23.445-4.002 30.157-2.667 6.713-6.197 10.07-10.589 10.07zm-.41-5.41c1.117 0 2.14-.968 3.071-2.905.93-1.937 1.595-7.247 1.992-15.93s.595-16.648.595-23.895c0-6.546-.298-11.93-.893-16.155-.596-4.225-1.24-6.947-1.936-8.166-.694-1.218-1.588-1.828-2.68-1.828-.918 0-1.743.468-2.475 1.403s-1.302 2.613-1.712 5.034c-.41 2.421-.769 7.155-1.08 14.202-.31 7.046-.464 14.36-.464 21.94 0 9.452.459 16.198 1.377 20.239.918 4.04 2.32 6.061 4.206 6.061z" font-size="88.433"></path><path d="M690.396 500.204h13.546c5.466 0 10.075 3.079 13.826 9.235 3.752 6.157 5.628 16.146 5.628 29.968 0 7.134-.566 13.95-1.696 20.45s-2.944 11.516-5.441 15.048c-2.497 3.533-6.702 5.3-12.615 5.3h-13.248v-3l3.931-2.557.15-68.733-4.081-2.71v-3zm13.919 6.122v67.91c2.484 0 4.41-.823 5.776-2.469 1.367-1.646 2.36-5.248 2.982-10.804.62-5.556.931-11.936.931-19.138 0-7.786-.236-13.96-.708-18.521-.472-4.562-1.062-8-1.77-10.315-.708-2.315-1.584-3.953-2.627-4.913-1.044-.96-2.572-1.544-4.584-1.75z" font-size="89.675"></path><path d="M528.396 500.204h5l11 74 3 3v3h-14v-3l3-3c0-.341-.632-3.14-.687-3.583l-1.666-9.417h-8.647l-1 13 3 3v3h-13v-3l3-3 11-74zM530 530l-3.604 25.204h7L530 530z" font-size="86.694"></path><path d="m625.394 543.143-.998-36.939-3-3v-3h14v3l-3 3v74h-7.001l-13-57v51l3 3v3h-13v-3l3-3v-65c0-1.698.288-2.756-.637-3.622l-3.363-2.378v-3h14l1.133.275.584 1.324 8.283 41.34z" font-size="89.697"></path><path d="m436.396 507.204-3-4v-3h17v3l-3 4v67h4l7-23h3v29h-28v-3.498l3-2.502v-67z" font-size="98.295"></path><path d="M345.396 500.204h13.546c5.466 0 10.075 3.079 13.826 9.235 3.752 6.157 5.628 16.146 5.628 29.968 0 7.134-.566 13.95-1.696 20.45s-2.944 11.516-5.44 15.048c-2.498 3.533-6.703 5.3-12.616 5.3h-13.248v-3l3.931-2.557.15-68.733-4.081-2.71v-3zm13.919 6.122v67.91c2.484 0 4.41-.823 5.776-2.469 1.367-1.646 2.36-5.248 2.982-10.804.62-5.556.931-11.936.931-19.138 0-7.786-.236-13.96-.708-18.521-.472-4.562-1.062-8-1.77-10.315-.708-2.315-1.584-3.953-2.627-4.913-1.044-.96-2.572-1.544-4.584-1.75z" font-size="89.675"></path></g><path style="marker:none" d="M61.916 81.97 38.38 99l9.064-27.45L23.83 54.626l29.141.061 8.943-27.49 8.946 27.489L100 54.62 76.388 71.548l9.067 27.45L61.916 81.97z" color="#000" fill="#da0000" fill-rule="evenodd" overflow="visible"></path><g fill="#025f0b"><path style="text-align:start;line-height:125%;-inkscape-font-specification:Microsoft Sans Serif" d="M361.291 438.17c2.658 2.108 3.987 4.957 3.987 8.545 0 2.766-.582 5.005-1.745 6.717-1.163 1.712-2.69 2.568-4.581 2.568-1.882 0-3.405-.856-4.568-2.568-1.164-1.712-1.745-3.951-1.745-6.717 0-3.588 1.329-6.437 3.986-8.545-2.16-2.138-3.241-4.814-3.241-8.029 0-2.377.512-4.328 1.536-5.853 1.023-1.526 2.367-2.288 4.032-2.288 1.673 0 3.019.762 4.038 2.288 1.02 1.525 1.53 3.476 1.53 5.853 0 3.215-1.076 5.891-3.229 8.03zm-2.34-1.75c2.022-1.554 3.033-3.647 3.033-6.279 0-1.51-.268-2.691-.804-3.543-.536-.853-1.279-1.279-2.228-1.279-.941 0-1.68.426-2.216 1.279-.536.852-.803 2.033-.803 3.543 0 2.632 1.006 4.725 3.019 6.28zm3.778 10.295c0-1.42-.3-2.643-.902-3.667-.601-1.024-1.56-2.037-2.875-3.039-1.307 1.002-2.261 2.015-2.863 3.04-.6 1.023-.902 2.246-.902 3.666 0 1.854.345 3.312 1.033 4.373.688 1.062 1.599 1.593 2.732 1.593 1.132 0 2.045-.531 2.738-1.593.693-1.061 1.039-2.519 1.039-4.373zm73.895-9.015c1.174-2.378 2.521-3.567 4.043-3.567 1.49 0 2.746.998 3.77 2.994 1.023 1.996 1.535 4.534 1.535 7.614 0 3.125-.508 5.783-1.523 7.973-1.016 2.19-2.366 3.286-4.05 3.286-1.925 0-3.423-1.372-4.491-4.116-1.068-2.743-1.603-6.687-1.603-11.83 0-12.036 2.097-18.054 6.29-18.054 1.334 0 2.463.688 3.386 2.063.923 1.376 1.485 3.417 1.688 6.123h-2.356c-.202-3.245-1.149-4.867-2.84-4.867-1.093 0-1.977 1.066-2.653 3.196-.676 2.13-1.074 5.192-1.196 9.184zm-.024 3.274c.032 3.767.384 6.66 1.056 8.679.672 2.018 1.57 3.028 2.695 3.028.988 0 1.777-.733 2.368-2.198.59-1.465.886-3.29.886-5.473 0-2.212-.302-4.029-.905-5.45-.603-1.42-1.41-2.13-2.422-2.13-1.254 0-2.48 1.181-3.678 3.544zM457.639 456h-4.861l.972-2v-27l-2.917.041 3.89-5.041h1.944v32l.972 2zm-110.834 0h-4.86l.972-2v-27l-2.917.041 3.889-5.041h1.944v32l.972 2z" font-size="72" font-weight="400" font-family="Microsoft Sans Serif"></path><path d="M349.043 469.169c.015-1 17.997-10.096 19.958-10.096h1.378l1.238-3.542c.68-1.948 1.114-3.972.962-4.497-.151-.524.53-1.867 1.514-2.983l1.79-2.029-1.58-5.737-1.579-5.736.412-3.077.412-3.077 3.734-5.452 3.733-5.452-.329-2.308-.329-2.309-6.902-4.723-6.903-4.724-6.484-6.966-6.483-6.966-4.667-.528c-2.567-.29-6.529-.551-8.804-.58l-4.138-.054-3.243 1.721-3.242 1.721 2.336 1.942c1.285 1.068 2.336 2.424 2.336 3.013 0 1.236-2.523 2.394-5.217 2.394h-1.858l-1.42 2.725-1.421 2.725h-3.052l-3.155-2.725-3.155-2.725h-8.333v4.36h2.124v4.533l-3.45-.713c-1.9-.392-4.289-.955-5.31-1.25l-1.859-.537v3.975l-2.92 1.246c-4.397 1.877-11.928 3.42-18.588 3.807l-2.925.17-1.188 1.47-1.188 1.469h-5.638l-2.425 1.743-2.425 1.744-1.877-1.744-1.877-1.743h-6.736v-.672c0-.37 1.911-2.52 4.248-4.778 2.336-2.259 4.247-4.645 4.247-5.302v-1.197l-2.674-.689-2.675-.688-2.9.576-2.901.577-1.776-1.636-1.776-1.636-4.065-.556-4.064-.556-4.78 2.794c-2.627 1.537-6.69 3.78-9.026 4.985l-4.247 2.19-3.717.059-3.717.058-2.061 1.6-2.062 1.6h-6.314l-4.073 1.846-4.074 1.844-.117 1.153c-.065.634-.041 2.176.053 3.426l.17 2.274-1.526 1.3-1.526 1.3-7.335-3.777-7.334-3.778-7.052-1.334-7.052-1.334-4.817 1.888-4.818 1.889-3.329 3.192-3.329 3.192h-14.499l-.64-2.072-.641-2.072-2.617-.674-2.617-.674v-3.061l-3.71-4.989-3.71-4.988 2.914-.015c1.602-.009 3.988-.31 5.303-.672l2.389-.657v-4.31l-2.05-.55-2.05-.55-.609-1.627-.608-1.626.598-.991c.328-.546 1.405-.994 2.392-.996.988-.002 3.361-.983 5.274-2.18l3.478-2.177.954-2.576.954-2.576 1.76-.693c.97-.382 3.754-.696 6.188-.698l4.427-.004 3.383-2.117 3.384-2.118 1.167-2.238 1.167-2.239 2.883-.016c1.586-.01 3.542-.446 4.348-.97l1.465-.952-.498-3.484-.498-3.485 2.682.527c1.476.29 3.31.279 4.078-.023l1.394-.55v-3.581l3.452-2.827 3.45-2.826-.047-3.169-.048-3.168-2.428-4.763-2.427-4.762-4.958.54c-2.727.297-6.392 1.148-8.144 1.89l-3.186 1.35-5.84.227c-3.213.124-6.916.592-8.23 1.038l-2.39.812v2.033h3.117c1.714 0 4.375-.491 5.914-1.092l2.798-1.092 2.543.655 2.543.656.64 2.071.641 2.072h4.176c2.297 0 4.177.17 4.177.377 0 1.116-3.431 7.195-4.644 8.228l-1.414 1.204-3.55-1.27-3.55-1.27-.412 1.27-.413 1.27h-1.602c-.881 0-2.82.984-4.31 2.186l-2.706 2.186-1.443-1.23-1.443-1.228v-3.237l-1.68.662c-.924.364-2.135.662-2.692.662h-1.012l1.099 2.108c1.588 3.045 1.62 3.018-4.476 3.866l-5.575.776-3.113 1.85c-1.712 1.017-3.277 2.356-3.478 2.976l-.367 1.128 2.712 1.268 2.713 1.269.57 1.524.57 1.524-2.567 2.635c-1.412 1.449-2.772 3.266-3.023 4.038l-.456 1.405-3.683-2.2-3.683-2.2-5.13-.765-5.129-.766-2.577-2.646-2.577-2.645 1.865-2.633c1.027-1.449 2.213-2.65 2.636-2.668.423-.02 1.498-1.482 2.389-3.25l1.62-3.216v-5.558h3.612l-1.194-1.226-1.194-1.225-3.388 1.212-3.389 1.213-.81-.515-.811-.514-3.453 1.768-3.453 1.767-.481 1.758-.482 1.757-3.702 2.452c-2.036 1.349-4.211 2.453-4.834 2.453-.622 0-2.146-1.104-3.386-2.453-1.24-1.349-4.106-3.957-6.369-5.796l-4.115-3.343 1.24-2.38 1.24-2.378h1.356c.746 0 2.444-1.04 3.774-2.313l2.418-2.312-.64-3.5-.64-3.5 2.139-1.986c1.176-1.093 2.139-2.408 2.139-2.922v-.934l-5.841-2.652-5.84-2.65v-7.557l3.267-2.822 3.267-2.822h5.882l3.418-1.75 3.418-1.75.942-2.544.942-2.543 2.356-1.294 2.357-1.295 1.263 1.773c.694.976 1.807 1.773 2.473 1.773h1.21v-3.27h3.112l1.102-2.113 1.102-2.114 4.86-.748 4.86-.748.56-1.498.56-1.498h5.083v-2.18h2.193c1.206 0 4.541-1.038 7.412-2.305l5.22-2.305 1.88.825c1.033.454 4.03 1.223 6.658 1.71a295.66 295.66 0 0 1 10.088 2.1l5.31 1.216 3.186-.265c5.5-.457 14.622-.086 21.239.864l6.371.915 4.779-.942 4.779-.942 1.53-1.5 1.529-1.5-.77-.79-.769-.789-10.318-.148-10.317-.149-5.31-1.253-5.31-1.253-5.31.11c-2.92.062-6.862-.246-8.76-.683l-3.452-.794v-2.166l-1.493.589-1.493.588-1.882-2.135-1.881-2.134 3.905-4.105 3.906-4.106-.023-2.134-.024-2.134-1.835-2.226c-1.009-1.224-3.077-2.861-4.595-3.639l-2.761-1.413-4.673.944-4.673.945-.324 2.15-.325 2.149-4.283 2.725-4.283 2.725 1.627.34 1.627.34 1.228 3.82 1.228 3.82-.6.616c-.329.338-5.275 1.316-10.99 2.173l-10.391 1.557-2.655 2.906c-1.46 1.598-2.655 3.303-2.655 3.789 0 .486-.717 1.348-1.593 1.917l-1.593 1.033-3.401.017-3.401.017-2.633-1.232-2.633-1.231-1.18-2.921-1.178-2.92-3.039-1.844-3.04-1.842h-4.334l-1.434-2.998-1.434-2.997-2.37.265-2.37.265-1.006-2.718-1.007-2.717h-7.36l-.686-1.138L60 274.77l1.283-1.587 1.284-1.587h4.054l.59-1.579.59-1.578-2.216-2.442c-2.96-3.26-2.859-3.633 1.766-6.517 6.643-4.143 6.828-5.725.808-6.885l-3.728-.718v-.822c0-.453.523-1.36 1.164-2.018l1.164-1.194-1.777-3.844-1.777-3.844-1.511-.595-1.511-.595v-4.3l1.062-.674 1.062-.673v-4.323l1.858-1.986c2.756-2.946 5.506-4.158 11.416-5.033l5.31-.786 1.862-1.675 1.863-1.674 2.7 1.263 2.701 1.263h10.52v2.371l4.25-.737c7.786-1.35 10.034-1.568 17.35-1.678l7.265-.11 3.355-2.099 3.354-2.1 4.438-.003 4.437-.004 1.624-1.667 1.623-1.666-.6-1.604-.599-1.603 2.238-.136c3.563-.217 4.136-.36 4.992-1.238l.808-.83 4.856.64 4.856.64 3.982-1.733 3.982-1.732v-1.055c0-.58-1.672-3.737-3.717-7.017-2.044-3.28-3.716-6.54-3.716-7.246v-1.282l-4.514.905c-2.482.498-7.698.928-11.59.957-3.893.029-7.27.297-7.504.597-.234.3-.872 2.46-1.418 4.799l-.992 4.254-6.537 2.076-6.537 2.076-3.764 3.752-3.764 3.753h-6.821l-4.727-2.843-4.727-2.844-2.408 1.323-2.408 1.323-2.25-.733-2.251-.733v-1.428c0-.786.717-2.039 1.593-2.785l1.593-1.357v-5.099l2.352-2.248 2.352-2.25 1.5.591 1.5.59 1.423-1.925c.784-1.06 1.44-2.808 1.458-3.885l.034-1.958-3.179-1.857-3.18-1.857-.005-1.853-.006-1.853-1.454-.872c-.8-.48-1.771-1.924-2.16-3.21l-.706-2.337 1.705-1.75 1.705-1.75h5.032l.595.988.595.988 2.388-.622c1.314-.342 3.383-1.28 4.599-2.083l2.21-1.46 9.856-.141 9.857-.14 4.455-2.557c2.45-1.405 6.34-4.243 8.641-6.305l4.186-3.75-1.472-2.491-1.472-2.492 1.206-.413c.663-.227 1.206-.862 1.206-1.412v-.999h-3.842l-2.06 1.6-2.062 1.6-3.92.036-3.92.034-.656 1.09-.656 1.09h-4.404l-3.644 3.967-3.645 3.966-3.943-1.212-3.943-1.213-3.737.623-3.738.622-1.424-1.762-1.425-1.762 1.74-1.973c.956-1.085 1.739-2.547 1.739-3.25v-1.276l1.327-.016c.73-.01 1.987-.445 2.792-.969l1.464-.952-1.626-3.346-1.627-3.346 3.748-2.27 3.747-2.27-.572-4.378-.572-4.379 2.296-.902c1.264-.495 3.207-1.939 4.32-3.206l2.023-2.305h10.29v-5.374l-1.858-1.02c-1.022-.562-2.336-1.058-2.92-1.102-.585-.044-2.377-.377-3.983-.74l-2.92-.657v-.966c0-.53.956-1.49 2.124-2.131l2.124-1.167v-5.372h8.42l1.137-2.18 1.137-2.18h7.048l2.658-2.528c1.461-1.39 2.902-3.23 3.202-4.087l.545-1.56 2.248 1.362c1.236.75 3.016 1.363 3.953 1.363h1.706l2.63-2.124 2.631-2.124 2.65 1.034c1.458.569 4.218 1.034 6.133 1.034h3.484l1.861 2.111 1.862 2.112-.67 1.11-.668 1.111 1.474 3.59 1.473 3.59 4.344 4.574 4.343 4.573-1.09 3.602c-.6 1.98-1.363 4.525-1.696 5.653l-.606 2.05 2.55 2.013 2.55 2.012 2.687.024 2.688.024 1.256-3.415 1.256-3.416 4.42.726 4.422.725 2.51-1.688 2.51-1.688 3.283.257 3.283.257 1.013 1.941 1.012 1.941 2.883-.05 2.883-.05 6.29-3.493c3.461-1.92 6.436-3.982 6.613-4.581l.32-1.09-1.998-2.672-1.999-2.67-1.669 1.421-1.669 1.422-7.56-.78-7.562-.779-1.503-3.694-1.504-3.693h-4.516l-1.445 1.907-1.444 1.908-1.328-1.635-1.327-1.635-5.84-1.88c-3.213-1.033-6.797-2.023-7.965-2.198l-2.124-.318.043-4.887.043-4.887 1.55.492c.852.271 4.605.684 8.34.918l6.79.425 2.502-1.374 2.502-1.374v-7.243l-2.124-1.362-2.124-1.361v-4.49l1.23-1.262 1.229-1.261-1.35-1.669-1.348-1.668 1.447-.516c.796-.284 3.12-.657 5.164-.83l3.716-.315-.311-4.087-.312-4.088 4.029-.121c6.675-.202 10.921-.887 13.175-2.125l2.136-1.173-.3-2.378-.298-2.378.826-1.362.826-1.363 3.92-.004 3.92-.004 3.631-2.272 3.632-2.273 4.148 2.393 4.148 2.393 4.105-3.386c2.257-1.863 4.622-3.386 5.255-3.386h1.15l1.01 2.725 1.01 2.725h1.543c.849 0 2.298-.776 3.222-1.723l1.678-1.723-.59-.98-.59-.98 1.149-2.202 1.148-2.202h2.967l2.21 3.186 2.211 3.187 3.215.725 3.214.724 2.612-1.756 2.611-1.757v-1.251c0-.689-.802-2.162-1.783-3.275l-1.784-2.023 3.642-3.196 3.642-3.196 3.358-1.187 3.357-1.187.628-1.68c.346-.925.398-2.064.115-2.533l-.513-.853 4.86-.562 4.858-.562 3.162-3.937L327.947 10h4.093v4.087l3.385.695 3.385.695 1.075-1.103 1.075-1.104h4.885v2.89l2.641 2.547 2.642 2.547-1.207 1.493-1.208 1.494 1.418 4.409 1.418 4.409-1.945 3.707-1.946 3.708-2.234.774c-1.229.425-2.841.884-3.583 1.02-1.453.264-5.46 4.774-5.518 6.21l-.036.872 4.437-.424 4.437-.425 2.466 2.201 2.466 2.2v1.485c0 1.41-.761 2.59-4.118 6.396l-1.463 1.658-5.788-.742c-3.184-.408-6.989-.742-8.455-.742h-2.667l-1.763 1.841-1.764 1.842 2.507 2.11 2.507 2.11h5.002l3.752 1.836 3.752 1.836 4.262-2.459 4.262-2.458 1.825.36 1.824.361.021 2.714.02 2.714 6.202-.22 6.201-.22 1.313-1.118 1.312-1.118 4.59.804 4.59.804 1.134 1.848 1.136 1.847-2.54 2.774-2.538 2.774h-2.741l-1.072 2.056-1.072 2.055-3.941 2.577c-2.168 1.417-5.078 3.232-6.468 4.032-1.389.8-2.809 2.215-3.156 3.142l-.63 1.687 1.266 2.08 1.265 2.08-.63 1.045-.63 1.046h-2.13c-1.172 0-3.016-.486-4.098-1.08l-1.968-1.081-3.294.676-3.294.676 3.685 3.675 3.686 3.674h2.78l1.278 2.099 1.277 2.099 6.677-.094 6.677-.093 4.471 2.354 4.471 2.355h5.167l.612-1.635.61-1.635h-2.056v-2.819l4.854-1.333 4.854-1.332.986.625c.543.345.987 1.35.987 2.235v1.608l5.575-.637c5.589-.638 10.741-1.41 15.62-2.337l2.61-.496 2.451 1.346 2.45 1.346 3.7-1.811 3.7-1.811v-2.47l1.958.526 1.957.525 1.237-2.033 1.238-2.033h-1.577c-.867 0-3.056-.924-4.865-2.054l-3.29-2.053-3.566 1.123-3.566 1.124-3.146-2.718-3.147-2.718-7.74-.738-7.74-.739-5.116-1.864c-2.813-1.026-5.115-2.184-5.115-2.575 0-.39 1.662-2.366 3.693-4.39l3.693-3.682L402.634 81l7.989-2.546v-3.912l-1.68-.661c-.924-.364-3.28-.662-5.238-.662h-3.558l-.607-1.962-.607-1.963-3.522-1.307c-1.938-.72-4.274-1.308-5.192-1.308h-1.67l-.588-1.574-.588-1.574-4.304-1.323c-4.884-1.502-4.98-1.675-2.493-4.496l1.811-2.054-1.17-1.923-1.169-1.922.544-2.922.544-2.921 1.204-.126c.662-.07 1.92-.193 2.797-.275.876-.082 4.09.71 7.141 1.76 3.052 1.051 6.662 1.91 8.022 1.91h2.473l3.604-3.817 3.605-3.817 1.064 1.093 1.064 1.092h6.865l.703 2.272.703 2.273-2.224 2.43c-2.891 3.158-2.81 4.031.696 7.477l2.92 2.87 4.78-.362c2.627-.2 6.092-.716 7.698-1.15l2.92-.787V54.69h-3.185v-4.275l4.513-1.297c5.017-1.442 11.909-2.298 18.264-2.268l4.194.02 1.233 1.73 1.233 1.73h4.382l3.155-2.724 3.155-2.725h9.782v-3.27h-2.124v-2.737l-3.982-1.526-3.983-1.525-12.212-.344c-6.717-.19-12.929-.435-13.805-.547-.876-.112-4.295.149-7.597.578l-6.004.781-.616-1.023-.616-1.023 1.626-3.345 1.626-3.345 1.974-.643 1.975-.643 1.736-4.454 1.736-4.453 5.531.819c3.042.45 7.92.872 10.841.937l5.31.117 2.124-.953c1.168-.525 3.031-1.054 4.14-1.177l2.017-.224 1.286-1.805 1.286-1.805h7.605l.667 1.108.667 1.107.864-.547.864-.548 2.693 2.174 2.694 2.175 3.537.667 3.538.668 4.584 2.681 4.584 2.682 1.72-.677 1.721-.678 5.502 2.292 5.502 2.292 1.166 2.627 1.166 2.627 2.734.704 2.734.704 1.992-1.851 1.993-1.851 2.034 1.117c1.119.615 2.65 1.88 3.404 2.812l1.37 1.695h8.376l2.153-1.183 2.153-1.183 2.555.659 2.556.658v5.071l2.085 1.936 2.084 1.936 1.674-.66 1.674-.659 3.662 2.435 3.662 2.435.013 1.843c.007 1.013-.436 2.128-.985 2.476l-.998.634 1.17 3.518c.645 1.935 2.252 5.17 3.573 7.19l2.4 3.672-.563 1.506c-.31.828-.99 1.505-1.511 1.505h-.949v3.182l4.23 4.43 4.23 4.429 2.938-.73c1.616-.402 4.014-1.137 5.328-1.634l2.39-.903V76.54l2.92-1.885c1.606-1.038 4.27-3.011 5.922-4.386l3.002-2.499h4.818l1.595 1.908c.878 1.049 1.885 2.746 2.239 3.77l.642 1.863 3.501.996 3.502.995 2.352-1.496c1.293-.823 3.292-1.496 4.441-1.496h2.09l.674 2.18.674 2.18h4.449l4.607 2.771c2.533 1.524 4.67 3.118 4.747 3.542.077.425.241 3.285.365 6.356.124 3.071.507 6.336.85 7.255l.625 1.67 3.258.735 3.259.735.645 2.638.645 2.638h5.005l1.173 2.25 1.173 2.25-1.255 1.55-1.254 1.552.601 1.609.602 1.608-2.341 1.948-2.341 1.948v10.796l-2.983 1.687-2.982 1.686-2.564-3.27c-1.41-1.798-3.259-4.091-4.107-5.096l-1.543-1.827-2.236.6-2.237.6-1.196 2.317c-.659 1.274-2.077 2.957-3.153 3.74l-1.955 1.425v2.912l1.593.628 1.593.627v1.202c0 .661.717 1.938 1.593 2.837.876.9 1.593 2.318 1.593 3.154v1.519l-2.295 1.26-2.295 1.26-4.873.504c-2.68.277-8.219.623-12.307.768l-7.434.264-.321 2.23-.322 2.23 4.039 2.062 4.038 2.063 5.31-.248c2.92-.136 9.282-.967 14.137-1.845l8.827-1.598 1.527-1.3c.84-.716 1.526-1.822 1.526-2.46 0-.637.91-2.17 2.023-3.408 1.112-1.238 2.945-3.967 4.073-6.066l2.05-3.815 1.852-.369c1.018-.203 2.991-.075 4.384.284l2.533.652 1.141 4.35 1.14 4.348h4.56l2.294-2.21 2.292-2.211 1.707.672 1.707.672 1.18 3.673 1.181 3.672 3.68 2.334 3.679 2.334 1.828-1.47c1.006-.81 2.21-2.084 2.678-2.833l.849-1.363h5.079l.656 1.09.656 1.09h7.183l.613 1.018.613 1.019 3.482-.58 3.48-.58 1.282 1.585 1.281 1.584-2.567 3.884c-1.412 2.135-2.33 4.126-2.041 4.423.29.297-.05 1.647-.756 3l-1.283 2.46 1.831 1.373 1.83 1.374 1.49-.587 1.49-.586v-4.197l2.376-.903 2.377-.902 1.802 1.156 1.802 1.155-.594 3.052-.595 3.052h8.761v2.012c0 1.107-.664 3.437-1.476 5.178-.812 1.74-1.779 4.944-2.148 7.119l-.671 3.954 2.371.636 2.371.637-2.51 2.742-2.51 2.742.092 3.295.091 3.296-1.983 1.09-1.983 1.088h-6.252l-1.46 2.256-1.458 2.256-2.653-1.017c-1.459-.56-4.947-1.363-7.752-1.786l-5.1-.77-3.47 3.891-3.472 3.89h-2.915c-1.603 0-3.84.508-4.969 1.129l-2.054 1.128v2.813l-2.39 2.22c-2.44 2.266-7.65 4.492-12.58 5.375l-2.757.493-3.083-3.215-3.084-3.216-6.348-2.188-6.348-2.188-2.944 1.785c-3.441 2.086-3.465 2.203-1.062 5.358l1.835 2.408 6.173 2.786c3.396 1.532 7.458 2.931 9.027 3.109l2.853.323 3.076 2.93 3.075 2.93h9.122l.656-1.09.657-1.09h5.746l4-2.2 4-2.2 2.02 1.11c1.112.61 3.16 1.11 4.55 1.11h2.527l1.79 3.853 1.79 3.852 5.575-.728c3.066-.401 6.38-1.154 7.364-1.673.983-.52 2.981-.944 4.439-.944h2.65l.34-2.452.34-2.453h6.341l1.446 3.095 1.445 3.095 3.292 1.42c1.81.782 3.795 1.237 4.41 1.013l1.117-.41 2.586 2.045 2.585 2.045-1.69 2.648c-1.661 2.602-2.404 5.788-1.853 7.939.154.6.328 2.07.388 3.27l.108 2.18-2.138 2.436-2.138 2.435-3.937-1.115-3.936-1.116-1.522-2.23-1.522-2.23-4.085-1.495-4.084-1.494-4.349-.048-4.349-.048-1.675 1.907-1.676 1.908 1.322 2.528 1.322 2.527 2.57 1.315 2.568 1.314.335 1.787.336 1.787-1.92.637-1.918.636-1.298 2.88-1.298 2.88.564.937.564.937h6l.554-2.18.556-2.18h5.576l.58 1.55c.319.853 1.286 1.83 2.15 2.17l1.57.618 3.787-1.624c4.836-2.074 5.297-2.045 5.916.384l.511 2.009 2.533-.229 2.532-.229 1.593 1.378c.876.758 2.549 1.568 3.717 1.802l2.124.425-.316 1.883-.315 1.883 1.643 2.407c.903 1.324 1.643 2.789 1.643 3.255v.847h-2.525c-1.39 0-4.257.743-6.372 1.65l-3.847 1.65v.941c0 .519.695 1.534 1.544 2.257l1.543 1.315-.04 2.906c-.023 1.598.304 4.312.727 6.03l.769 3.122-6.785-.598c-3.731-.33-7.749-.904-8.928-1.277l-2.144-.678-3.697 2.758c-5.073 3.785-8.152 5.05-14.048 5.77l-5.042.617-5.046-4.824-5.047-4.825-3.717-1.53c-2.044-.842-4.099-2.173-4.566-2.957l-.849-1.427h-6.63l-1.708 1.587-1.709 1.587-9.26.188-9.26.187v5.171h4.248v4.231l1.233.782 1.232.782 6.068-.225 6.068-.224.63 1.687.631 1.687h1.68c.923 0 3.165-.789 4.982-1.753l3.303-1.754 3.547 1.736 3.546 1.736v2.215h-2.265l.336 2.997.336 2.998 5.465.325 5.465.326 2.762-2.627 2.762-2.628 2.598.51 2.599.51.69 3.228.691 3.228 1.55.61 1.549.61 5.873-1.21 5.873-1.21 2.533 1.889 2.532 1.889.033 1.272c.019.699.596 1.464 1.284 1.699l1.25.427-.782 1.299-.782 1.298h-4.76l-1.274 1.308-1.274 1.308v3.88l4.17 2.183 4.171 2.184.574 1.926c.315 1.059.428 2.88.25 4.047l-.324 2.121-1.75 1.133-1.75 1.133-3.467-1.784c-5.731-2.949-12.378-5.27-15.092-5.27h-2.555l-1.629 3.351-1.628 3.35.627 3.22.627 3.219-1.896 2.15c-1.043 1.183-2.302 2.15-2.798 2.15-.497 0-3.38 1.227-6.406 2.725l-5.503 2.725h-18.389l-1.886-2.14-1.886-2.138.546-1.46.546-1.46-1.458-3.558-1.457-3.558-1.88.314-1.88.315-4.23-2.967-4.228-2.967h-4.817v-1.417c0-.78.532-1.963 1.182-2.63l1.182-1.213-.74-1.23-.74-1.229-2.3.658c-2.31.66-6.235 2.262-9.203 3.754l-1.593.801-.322 2.736-.321 2.736 3.57 1.74 3.57 1.738 2.061-.522 2.062-.521 5.06 4.657c5.589 5.142 5.823 5.763 3.265 8.665-2.223 2.52-1.95 2.762 3.887 3.45 2.628.308 6.653 1.054 8.945 1.657l4.166 1.095.906 1.662.906 1.662 1.573-.62 1.573-.62 2.845 1.914c1.565 1.052 3.831 1.984 5.036 2.071l2.191.158-.187 1.046c-.102.576-.513 1.907-.912 2.96l-.725 1.913 3.567 1.587 3.567 1.586 2.471 2.736 2.471 2.736-.589.978-.589.978-5.38.732-5.38.733-1.783 2.136c-2.265 2.715-2.634 2.686-6.322-.5l-3.051-2.635-5.472-1.02-5.471-1.021-.552 1.476-.552 1.476h-2.923l-1.868 2.119-1.869 2.12-2.278.332-2.279.334-.016 1.09c-.008.6-.396 1.703-.86 2.452l-.842 1.363h-5.917l-1.807-2.05-1.807-2.049-6.057-.535-6.056-.535-6.903 1.11c-3.796.609-8.409 1.159-10.25 1.221l-3.346.113-2.8 3.098-2.8 3.098-1.639-.645c-.902-.356-3.99-.646-6.862-.646h-5.223v-.966c0-.531 1.766-2.727 3.925-4.88l3.926-3.913-2.526-2.76-2.526-2.759 2.317-3.217c2.837-3.938 2.864-4.64.265-7.053l-2.052-1.907.508-1.358.507-1.358-1.64-1.398-1.642-1.398v-4.738l-2.92.183c-1.607.1-3.524.245-4.26.323l-1.34.14.656 4.217.657 4.216-2.383 1.714-2.382 1.713.65 3.337.65 3.338-4.046 2.748-4.047 2.749-7.73.074-7.73.074-3.86 1.364-3.862 1.364-1.254 2.545-1.254 2.545-2.463 1.402-2.462 1.403-9.238.038-9.237.039-2.839-2.7-2.839-2.702-9.162-2.921c-5.04-1.607-10-3.453-11.021-4.102l-1.859-1.18v-4.743l1.328-.454 1.327-.455v-7.352l4.779-1.412 4.779-1.412 1.319-1.83 1.318-1.83-1.626-1.844-1.627-1.845-5.002.577c-2.75.318-6.572 1.25-8.49 2.072l-3.49 1.495-.932 2.518-.933 2.518-3.25 2.808-3.25 2.807-4.01 1.325c-2.205.73-4.487 1.685-5.071 2.124-.584.439-2.356 1.114-3.937 1.502l-2.876.704-2.905 2.764-2.906 2.764-2.184-.32-2.183-.321.334-2.938.333-2.938-1.123-2.155-1.124-2.156-5.582-.911-5.582-.912v-3.25l3.48-1.784 3.48-1.784 3.134-4.44 3.134-4.442 3.333 1.439 3.334 1.439 4.9-1.91 4.9-1.909 2.433-3.944 2.432-3.944-6.13.727-6.129.728-2.417 1.609-2.418 1.609-4.707-.662-4.707-.663.601 1.608.601 1.608h-9.792l-3.963 2.18-3.963 2.18h-4.689l-1.388 1.916c-.763 1.054-3.918 3.87-7.012 6.257l-5.623 4.341-2.65 4.64-2.649 4.64.255 4.43.254 4.43 1.116.75c.614.413 1.96 1.778 2.99 3.034l1.873 2.282-1.622 3.985-1.622 3.985h-2.096v4.231l1.135.72 1.134.72-.536 1.434-.537 1.434 1.61.634 1.611.635-.709 3.314-.71 3.314 2.562 3.5c1.409 1.924 2.87 4.357 3.246 5.406l.685 1.907h3.985l1.772 2.01 1.773 2.01 5.793 1.33 5.793 1.332 2.422 2.024 2.422 2.025-7.964-.274-7.965-.275-1.942-.88-1.942-.88-8.677.823c-4.773.454-10.08.752-11.793.662l-3.115-.162-1.392-1.186-1.392-1.185-2.926.71c-1.61.39-4.775.929-7.034 1.198l-4.107.489-5.338-1.793-5.339-1.792-1.443 2.026-1.443 2.026-1.27-1.304-1.271-1.304h-3.327c-1.83 0-3.667.348-4.081.773l-.753.773-4.13-.306-4.13-.306-1.931 1.019c-1.062.56-3.962 1.337-6.444 1.726l-4.513.707.012-.83zm65.306-75.24c.589-.44 2.262-2.654 3.716-4.92l2.646-4.12 4.916-3.267 4.917-3.267 6.94-1.49c3.817-.82 8.773-2.101 11.013-2.848l4.072-1.357 3.44-3.39 3.44-3.39.011-2.998.012-2.997h-3.08l-.927-1.7-.927-1.7-3.64-.71c-2.001-.39-5.55-.633-7.886-.542-2.337.092-7.668.228-11.847.303l-7.6.135-1.857 2.107-1.857 2.107h-3.971l-1.114 2.997c-.613 1.649-1.49 5.05-1.948 7.56l-.834 4.562-3.336 3.424c-1.834 1.883-3.39 4-3.458 4.703-.24 2.521.347 5.66 1.28 6.828l.948 1.19-.756.777-.757.777 1.562 1.014c1.871 1.214 5.396 1.323 6.882.213zm-42.697-19.013 2.976-1.174 2.131-4.287 2.131-4.287-1.19-1.472-1.191-1.472-7.102-.72c-3.907-.397-8.92-1.194-11.141-1.773l-4.038-1.051-2.107-2.163-2.107-2.162.633-1.05.632-1.05h8.106l5.973-2.712 5.973-2.71v-2.967l-3.983-1.72c-2.19-.947-4.699-1.707-5.575-1.689-.876.018-4.741-.245-8.59-.584l-6.997-.618-2.295 3.186-2.295 3.185v4.069l-2.654 2.56c-1.46 1.408-2.655 2.911-2.655 3.341 0 .43 1.194 1.09 2.655 1.466l2.654.684v1.07c0 .587-.836 1.927-1.858 2.976l-1.858 1.907-5.045-.332-5.044-.332.016 2.512c.025 3.835 1.016 4.742 8.48 7.765 8.414 3.407 11.765 3.874 23.362 3.257l9.027-.48 2.976-1.173z"></path></g></svg>