<svg xmlns="http://www.w3.org/2000/svg" width="500" height="300"><path fill="#DA121A" d="M0 150h500v150H0z"/><path fill="#FFF" d="M0 0h500v150H0z"/><path fill="#FFF" stroke="#000" stroke-width="1.44" stroke-linecap="round" stroke-linejoin="round" d="M167.21 51.905h165.6v118.8c0 43.199-36 77.4-82.8 77.4-46.801 0-82.801-34.201-82.801-77.4v-118.8"/><g stroke="#000"><g stroke-linecap="round" stroke-linejoin="round"><g stroke-width=".54"><path d="M242.64 90.68c3.563-.764 7.857-.43 12.218 0 .166-3.392 1.554-6.727 3.946-9.713-4.021 1.456-5.127 4.03-6.854 6.248l-3.846-7.918-2.884 7.884c-2.441-1.893-4.636-5.04-7.438-5.304 2.297 2.741 3.98 5.657 4.858 8.803zm-1 1.81c2.528 2.758 3.729 5.136 5.334 7.629-2.437-.525-5.959-.777-7.368-2.915-.804-1.221-2.438 2-2.894 3.509-.922-1.253-1.35-2.204-1.83-4.794-.176-.948-.768-2.3.911-3.117 1.905-.927 3.933-.094 5.847-.312z" fill="#FCDD09"/><path fill="#DA121A" d="M247.8 101.6c-3.237-1.213-6.479-.356-9.713.455-2.287.574-5.02 2.074-6.223-2.049-1.618 1.993-.817 5.361 2.277 4.933 5.832-.808 9.159-3.22 13.659-3.339z"/><path d="M224.85 195.359c-4.247-2.187-7.268-4.272-11.912-6.867-6.239-2.473-7.07 1.354-4.723 3.22.057-2.545.714-3.821 3.327-.966-2.544 2.41-.389 2.813 2.469 2.039l9.551 4.828c-5.185.857-12.311-1.131-14.166 0-4.347-1.252-7.504 5.199-2.468 6.011-1.512-3.442.319-3.8 2.468-3.862.077 3.471 3.501 4.141 4.078.858l10.09-.106c-1.967 5.258-5.364 6.153-5.259 10.625-3.217 4.691 4.215 7.551 5.04 3-1.937 1.357-4.701.84-3.542-2.146 1.248-.082 2.759.746 3.542-.859.658-1.352-1.693-2.398-.43-4.4l3.863-6.117h8.693c2.729 0 1.421 2.339 2.783 2.054.841-.175 2.428-.735 2.367-3.021 2.707-.416 2.824.963 1.824 3.113 3.875-2.082 2.806-5.313-1.932-5.26-1.324-1.475-3.78.189-4.723.43-1.807.461-5.116-.216-8.05-.322l9.551-16.527.645-6.977-4.776 4.615-8.31 16.637zm52.13 1.521c4.03-2.56 7.232-5.06 11.626-8.06 5.081-3.707 7.545 1.242 5.372 3.313-.284-2.494-1.736-3.83-4.083-1.801 1.611 2.703.108 3.98-2.655 2.708l-6.65 4.454c5.24.387 9.807-1.626 11.757-.666 4.216-1.639 8.624 2.908 2.923 5.232 2.182-3.867-.66-3.756-2.807-3.627.036 2.77-3.32 3.717-3.983 1.223l-10.061.8c2.433 5.062 5.896 5.647 6.192 10.11 3.625 4.384-3.52 7.898-4.753 3.445 2.05 1.178 4.758.416 3.334-2.455-1.251.03-3.136 1.219-4.061-.31-.777-1.287 1.401-1.707.185-3.738l-4.398-7.339-5.926.174c-.979 1.102-3.558 2.456-4.105-.513-3.258-.254-2.918.914-1.435 3.2-4.047-1.725-3.271-5.039 1.451-5.41.587-1.4 4.458.732 8.327-.206l-7.887-15.069-1.041-6.891 5.02 4.546 7.658 16.88z" fill="#FCDD09"/></g><path d="M309.32 173.279c-5.508-5.652-10.658-10.289-15.995-17.889l-1.264.723c5.061 7.146 10.941 12.429 17.259 17.171m13.76-23.744c-7.43-1.189-13.578-4.071-17.604-8.587l1.266-.737c4.893 5.305 9.814 6.392 16.338 9.324" stroke-width=".36"/><path fill="#DA121A" stroke-width=".54" d="M251.25 221.12c-2.025 2.629-4.35 3.175-6.653 3.862 2.677-3.879 4.867-7.854 6.116-12.02-2.473 2.924-5.631 5.725-8.585 6.439-4.261 1.031-8.097-.572-10.194-3.863 3.22 1.193 6.254 1 9.658-.751 4.78-2.462 6.616-6.229 8.156-10.194-2.657 3.479-5.535 4.85-8.763 2.896 5.886-3.184 8.705-9.627 8.978-20.497.119-4.737-1.05-11.384-2.879-18.091l-8.647 18.427c-1.203-4.591-1.535-9.04-.314-13.224-3.981 4.818-7.964 6.416-11.946 8.994 5.233-9.412 8.84-15.395 11.795-20.977-4.162 3.917-8.308 2.561-8.815-1.628-3.061 4.177-7.992 3.589-8.989-1.048-8.342 15.061-18.534 25.211-28.14 24.643a208.521 208.521 0 0 0 20.617-27.343c-3.905 2.774-8.811-.909-6.277-4.696-1.574.904-3.147 1.028-4.722-.089-7.475 6.368-17.647 16.343-27.386 13.091 7.635-4.587 14.947-11.934 22.581-19.274.237-1.235-.061-2.363 1.502-3.863-4.997 1.877-6.726-3.541-3.648-5.795-8.26 1.276-20.864 4.442-23.825-3.434 6.818-.055 14.879-3.068 22.21-4.937-4.119-.262-4.131-7.535.859-8.156-6.679-3.716-15.563-6.29-17.708-14.273 5.974 1.962 11.948 4.752 17.922 5.151-2.059-2.285-.068-7.03 4.293-5.903-5.814-3.237-13.1-4.998-14.917-12.234 8.764 6.477 21.598 7.835 27.581 10.195 4.649 1.834 3.627 6.05 2.146 9.444-2.02 4.628-.35 9.642 2.146 13.737 4.066 6.673 12.887 10.331 19.289 9.201 3.57-.631 6.967-5.884 9.09-10.166-1.472 1.405-2.658 1.953-3.946 2.808 3.05-4.515 5.282-7.939 5.995-14.266-.83 1.245-1.495 1.833-2.125 2.277 1.204-4.123 1.522-8.246 1.519-12.369 1.856-.314 2.959.137 4.25.379 1.354.255 2.303-1.195.683-2.277-1.491-.996-2.775-.104-4.174-2.732-1.207-2.268-2.756-4.225-4.401-6.071 2.482-1.911 5.303-1.125 8.347-.987 3.432.157 7.167.365 10.473-1-1.357 1.287-2.828 2.863-5.691 3.585 2.342 2.514 3.651 5.322 4.478 8.272 1.92 6.853 2.146 12.584 2.428 18.516.207 4.376-.225 9.325-.071 12.53 8.853.645 19.72-1.758 23.862-9.265 2.317-4.199 3.32-6.491 2.146-10.474-1.302-4.417-1.288-9.279 3.361-11.11 5.983-2.36 18.13-3.718 26.21-8.753-1.813 7.239-9.482 9.169-15.297 11.02 4.821-1.095 7.105 4.831 3.079 6.965 5.975-.399 13.314-2.279 19.288-4.241-2.131 8.06-10.483 8.975-17.328 11.693 3.22.401 5.159 6.1.635 8.01 1.416 1.038 2.559 2.137 2.5 3.101 7.337 1.868 13.04 3.895 19.862 3.95-2.961 7.876-13.895 4.862-22.16 3.586.346 1.571-.472 5.092-5.242 2.456 1.564 1.5 1.948 5.284-.773 5.836 6.658 7.34 14.462 15.749 22.2 20.334-10.451 3.963-22.779-8.104-28.979-15.748 1.011 2.729-1.041 7.478-6.586 4 .389 1.666.041 3.092-1.173 3.918 4.116 6.699 9.367 19.031 16.959 26.351-9.607.575-17.276-7.372-25.618-24.05-1.545 1.066-3.811 1.498-6.842-2.065-.509 4.188-4.01 5.867-8.171 1.95 2.955 5.582 6.775 13.174 12.01 22.586-3.982-2.578-7.105-3.316-11.09-8.135 1.221 4.188.996 8.847-.207 13.438-2.611-7.148-5.431-12.842-8.326-17.996-1.829 6.705-.852 10.99-.733 15.728.273 10.87 4.272 17.101 10.158 20.282-3.228 1.953-5.57 1.226-8.227-2.254 1.54 3.967 2.731 7.842 7.512 10.304 3.404 1.753 6.117.228 9.337-.966-2.098 3.291-4.754 5.646-9.01 4.615-2.954-.715-5.898-2.871-8.371-5.795.713 4.594 3.226 7.496 5.903 11.375-2.305-.152-4.627-1.234-6.654-3.863.036 3.463.104 8.061-1.895 9.438-1.998-1.203-2.681-5.05-2.646-8.511h.01z"/><path d="M216.05 178.41c6.161-3.084 10.323-8.792 13.376-16.234-.107-1.443-.104-2.275-1.369-.138-1.94 6.194-6.986 11.298-12.011 16.373m-28.006-6.341c6.181-4.909 12.133-9.664 18.314-15.924l.922 1.037c-6.238 6.357-12.39 11.03-19.236 14.887m-11.81-25.11c7.029.503 12.629-1.304 18.464-4.805l-1.126-1.093c-5.336 4.217-10.84 4.381-17.338 5.898m.64-27.36c3.935 3.118 8.396 4.126 12.892 4.998l.309-1.134c-3.216-.331-7.462-1.503-13.09-3.863m8.599-16.631c2.466 2.165 4.995 4.01 7.741 4.775l.377-1.099c-2.484-.518-5.359-2.06-8.118-3.676" stroke-width=".36"/></g><g stroke-width=".54"><path fill="#FCDD09" d="M237.29 148.25c-13.806-2.549-25.307-8.967-30.691-20.498 4.279.714 6.086-2.124 4.937-4.293-1.15-2.169-4.137-3.15-6.332.322-.353-4.603-3.086-6.665-5.473-5.04-2.388 1.621-.942 5.873 2.36 6.868-3.72-.362-5.625 3.21-4.293 5.04 1.333 1.834 4.829 2.161 6.439-1.288 7.792 14.171 18.959 20.475 34.34 22.966-.349-1.358-1.063-2.933-1.289-4.078l.002.001z"/><path fill="none" stroke-linecap="round" stroke-linejoin="round" d="M218.29 211.21c.505.017 1.01.192 1.516.813m20.8-14.38c-.137.496-.107 1.16-.044 1.856m-31.2-1.913c-.011.6-.021 1.381-.031 2.18m2.29-9.05c.51-.411 1.02-.536 1.528-1.899m24.526-13.236L225.92 197.51"/></g><path fill="none" stroke-width=".72" d="M241.38 124.74c-7.568-4.46-17.341-10.174-19.08-24.04-1.319-10.539 2.089-20.233 11.99-28.381"/><path fill="#078930" stroke-width=".54" stroke-linecap="round" stroke-linejoin="round" d="M232.36 106.61c3.501 4.561 3.672 9.783 2.61 14.06-3.241-4.4-3.763-8.907-2.61-14.06z"/></g><g fill="#078930" stroke="#000" stroke-width=".54" stroke-linecap="round" stroke-linejoin="round"><circle cx="222.51" cy="107.98" r="1.53"/><path d="M218.67 117.56c4.778 4.04 11.503 4.812 16.314 3.318-5.05-3.02-11.271-4.152-16.314-3.318zm11.59-29.86c-.479 5.73-4.129 11.438-7.792 13.886.564-5.436 3.473-10.852 7.792-13.886zm7.76-12.24c-3.04 4.881-8.45 7.795-12.826 7.767 2.873-3.508 7.705-6.715 12.826-7.767zm8.12-10.681c-2.992 4.91-7.629 7.871-12.11 7.671 2.399-4.503 6.887-6.89 12.11-7.671zm-19.76 3.781c1.652 5.689.652 10.831-1.466 14.821-1.354-5.235-1.141-9.823 1.466-14.821zm-11.73 20.05c.479 5.73 3.343 10.365 7.649 12.92-.026-5.758-3.651-9.242-7.649-12.92z"/></g><g stroke="#000"><path fill="none" stroke-width=".72" d="M261.66 124.81c7.115-5.153 15.592-11.977 16.021-25.947.321-10.616-2.482-18.873-13.11-26.05"/><path fill="#078930" stroke-width=".54" stroke-linecap="round" stroke-linejoin="round" d="M268.95 105.62c-3.056 4.87-3.878 11.244-2.418 15.4 2.813-3.775 4.051-10.381 2.418-15.4z"/></g><g stroke="#000" stroke-linecap="round" stroke-linejoin="round"><g fill="#078930" stroke-width=".54"><circle cx="-269.11" cy="118.11" r="1.53"/><path d="M282.24 117.5c-4.376 4.467-10.999 5.418-15.626 3.777 4.739-3.486 10.526-4.133 15.626-3.777zm-23.47-41.76c3.912 4.214 9.993 6.05 14.284 5.189-3.487-2.898-9.06-5.128-14.284-5.189zm-7.32-9.41c3.441 4.607 8.943 7.27 13.383 6.649-2.66-4.864-8.112-6.362-13.383-6.649zm18.35.544c-1.108 5.819.754 9.772 3.238 13.544.855-5.339-.172-8.814-3.238-13.544zm16.15 25.386c-.242 4.839-4.182 9.861-8.684 11.596 1.762-6.646 4.595-8.924 8.684-11.596zm-17.27-4.68c.349 6.775 3.963 12.07 8.607 14.864-.158-4.705-4.35-11.81-8.607-14.864z"/></g><path d="M282.44 179.08c-5.817-3.691-9.38-9.793-11.663-17.505l.673-2.021c1.758 6.814 6.509 13.967 10.99 19.523m41.941-57.807c-4.386 2.445-9.595 2.614-14.171 2.751l-.122-1.276c3.226.191 8.356-.05 14.293-1.475m-8.761-17.11c-2.907 2.745-5.815 3.811-8.724 4.569l-.159-1.635c2.495-.152 5.825-1.374 8.883-2.934" stroke-width=".36"/></g><g stroke="#000" stroke-width=".54"><path fill="#FCDD09" d="M262.46 146.63c13.758-1.888 24.061-8.03 30.355-18.19-4.28.714-6.086-2.123-4.938-4.293 1.15-2.169 4.138-3.15 6.332.322.354-4.603 3.086-6.665 5.474-5.04 2.387 1.621.941 5.873-2.361 6.868 3.721-.362 5.625 3.21 4.293 5.04-1.332 1.834-4.829 2.161-6.439-1.288-7.947 12.836-18.549 18.217-32.34 20.605l-.376-4.024z"/><g stroke-linecap="round" stroke-linejoin="round"><path fill="none" d="M263.13 153.05c-.579-3.838-1.01-7.67-.606-11.231.676-6.01 5.304-4.37 9.713-5.464 5.642-1.399 10.344-4.605 13.811-8.954m-24.898 34.408c3.089 6.192 5.997 11.297 8.8 15.775m12.234-18.459c4.638 7.178 7.604 15.16 14.81 21.57m-9.748-22.099c-1.46 1.686-5.03 1.439-7.457-1.227.02 1.688-.071 2.746-1.213 3.542m21.06-10.494c7.231 6.354 8.771 8.765 15.432 12.829m-13.237-17.07c-.693.105-2.04-.289-2.997-.428 1.655 1.785 1.636 7.214-3.688 5.05m14.06-16.959c4.438.966 10.578 1.833 15.051 1.489m-14.22-4.971c.122 2.591-1.485 4.747-4.047 4.901 1.011.819 1.62 1.486 1.755 2.465m1.164-23.2c3.828-.59 6.897-1.404 10.725-3.678m-14.987 1.076c3.575.18 6.644 4.206 2.324 7.322m2.738-20.711c-8.177 4.841-18.971 3.73-18.848 12.839m-56.14 23.524c.682 7.631 2.83 14.635 5.125 20.58 2.052 5.317 5.599 5.924 7.289 13.529m14.417-35.459c-5.771 4.739-2.318 14.823-.953 22.221m-20.941 7.609c-3.089 6.193-5.997 11.297-8.8 15.775m-16.527-18.138c-4.638 7.176-8.354 13.01-15.346 18.459m13.611-22.595c-1.235 4.25 4.248 6.124 7.512 2.411m-18.333-12.01c-7.232 6.355-14.16 11.497-20.82 15.561m15.915-17.08c.974 1.394 2.24 1.924 4.833 1.547-1.125 1.253-.89 3.263-.143 4.748m-10.946-19.16c-5.073.875-10.37 1.95-14.06 1.717m16.451-6.891c-3.598 2.866-2.986 7.38 1.458 8.299m-2.563-21.906c-3.828-.59-7.655-2.77-11.483-5.04m13.468 1.079c.614.866 1.087 1.368 1.594 1.667-3.149.18-5.347 3.898-2.962 6.961m-3.541-21.716c5.452 2.857 8.771 4.12 18.04 7.287 7.1 2.425 5.191 5.437 3.458 8.06m5.353 17.593c4.093 7.03 12.236 10.281 19.639 10.303m5.527-35.683c1.262-.675 2.598-1.304 4.847-1.556m-5.13-9.876c1.931 2.22 3.099 5.454 5.64 6.146m5.529-5.03c-.177 1.687-.508 3.194-1.983 4.638m-6.27-7.475c.584 2.342 2.114 2.876 3.718 2.696 4.878-.547 9.604.761 12.977-1.366m-7.639 4.213c3.864 6.33 5.344 12.382 5.767 18.341m-9.04-3.949c.095 4.055-.046 7.646-.518 10.849 2.212-2.953 3.01-6.845 3.527-10.931m-6.588 2.041c1.052-1.783 1.934-4.162 2.58-7.361m-5.116 19.23c1.608-1.603 2.988-4.089 4.585-7.01m-11.492 16.896c3.089-1.342 6.177-3.581 9.266-8.118m3.02-2.392c-.178 3.807-1.114 7.613-2.724 11.42 3.644-2.369 5.129-7.54 5.974-12.06m-9.946-35.878c3.833-1.033 9.716-.719 13.168-.018m-1.982 105.71c.357 12.296.502 23.535.662 34.852m2.576-61.17 7.189 12.02m-25.863-17.01c1.43-2.191 1.861-6.06 3.862-3.705"/><path d="M246.59 94.2c.327 1.787.863 3.364 1.903 4.438l.196-4.385-2.099-.053z"/><path fill="none" d="M284.64 210.63c-.502.062-.989.283-1.437.947m-18.366-13.819c.182.482.211 1.145.211 1.844m27.365-2.86c.064.597.038.89.12 1.686m-2.64-8.129c-.544-.363-.947-.705-1.197-1.486m-23.846-12.481 10.273 21.029"/><path fill="#FFF" d="M248.52 98.6c1.714-.787 2.185-2.662 2.58-4.357l-2.527.022c-.679 1.682-.159 3.093-.053 4.335z"/></g></g></svg>