<svg xmlns="http://www.w3.org/2000/svg" xmlns:xlink="http://www.w3.org/1999/xlink" height="811.379" width="1217.1" version="1"><path fill="red" d="M0 0h1217.1v405.69H0z"/><path fill="#fff" d="M0 405.689h1217.1v405.69H0z"/><g transform="translate(447.05 175.719) scale(.43756)" fill-rule="evenodd" stroke="#000"><path d="M39.793 67.481h658.6v621.31c-13.79 159.03-155.09 293.61-327.6 295.11-173 1.5-319.54-131.72-327.98-288.8l-3.014-627.62z" fill="#fff" stroke-width="10"/><path id="a" d="M151.84 120.28c-25.16.48-45.43 21.15-45.43 46.53 0 25.68 20.73 46.53 46.31 46.53 25.58 0 46.34-20.85 46.34-46.53s-20.76-46.53-46.34-46.53h-.88zm-.75 18.53c.31-.01.63 0 .94 0 15.75 0 28.5 12.7 28.5 28.35 0 15.65-12.75 28.34-28.5 28.34-15.74 0-28.53-12.69-28.53-28.34 0-15.35 12.27-27.86 27.59-28.35z" fill="#fe0000" fill-rule="nonzero" stroke-width="5"/><path d="M151.94 213.85h432.03v493.97h-95.03v-227.4h-73.83v345.35h-94.22V480.42h-73.43v227.11h-95.52V213.85z" fill="#fe0000" stroke-width="5"/></g><use xlink:href="#a" transform="translate(541.56 175.719) scale(.43756)" width="1237.5" height="831.25"/><use xlink:href="#a" transform="translate(636.08 175.719) scale(.43756)" width="1237.5" height="831.25"/><path d="M513.56 322.087h188.587M513.56 336.964h188.587m-187.726 75.261h40.597m-40.597 14.719h40.597m106.423-14.719h40.597m-40.597 14.719h40.597m-113.884 23.668h40.593m-40.593 14.724h40.593M513.77 472.49h40.592m107.561 0h40.596m-114.365 51.693h40.593" stroke-width="5.688" fill="none" stroke="#000"/><g id="c" transform="translate(447.05 175.719) scale(.43756)"><g id="b"><path d="M149.5 709.36h14.497v53.466H149.5z"/><path d="M156.65 709.75c-.09 2.22.53 7.5.85 10.61.33 3.1-1.06 5.35-1.25 8.25-.18 2.65.4 5.32 1.17 8.24.78 2.98.39 5.51-.73 8.76-1.15 3.3-1.91 6.5-1.25 9.8.67 3.33 1.68 5.44 1.56 7.39" fill="none" stroke="#fff" stroke-width="3"/></g><use xlink:href="#b" transform="translate(22)" width="1237.5" height="831.25"/><use xlink:href="#b" transform="translate(42.945)" width="1237.5" height="831.25"/><use xlink:href="#b" transform="translate(64.352)" width="1237.5" height="831.25"/><use xlink:href="#b" transform="translate(86)" width="1237.5" height="831.25"/></g><use xlink:href="#c" transform="matrix(.98515 0 0 1 81.553 51.658)" width="1237.5" height="831.25"/><use xlink:href="#c" transform="matrix(.99505 0 0 1 149.99 .048)" width="1237.5" height="831.25"/></svg>