<svg xmlns="http://www.w3.org/2000/svg" width="600" height="401" viewBox="0 0 600 402" shape-rendering="geometricPrecision" text-rendering="geometricPrecision" image-rendering="optimizeQuality" fill-rule="evenodd"><defs><style>.str2{stroke:#fff;stroke-width:8;stroke-linejoin:round}.fil4{fill:#006bb9}.fil1{fill:#fff}</style></defs><g id="Layer 1"><path class="fil1" d="M0 0h600v402H0z"/><circle class="fil1" cx="292" cy="153" r="119" stroke="#006bb9" stroke-width="8"/><path d="M261 65c-7 96-48 155-99 203 26-9 45-3 60 8 22 14 47 5 54-26 16-73 8-133-15-185z" fill="#fe0" stroke="#fff" stroke-width="8"/><path class="fil4 str2" d="M336 17c-10 129-65 208-134 272 35-12 60-4 80 11 30 18 64 7 72-34 23-99 12-179-18-249z"/><path class="str2" d="M404 68c-8 105-52 170-108 222 28-9 49-3 65 9 24 15 52 6 59-28 18-81 9-146-16-203z" fill="red"/><path class="fil4" d="M185 360v-32h-1c-1 0-2 0-2-1-1-1-1-2-1-3s0-2 1-3c0-1 1-1 2-1h13c3 0 6 1 8 4s3 6 3 9c0 2-1 4-1 5-1 2-1 3-2 5 1 1 3 3 4 5 0 2 1 4 1 7 0 2-1 4-1 6-1 1-1 2-2 3l-3 3c-1 0-3 1-5 1h-15c-1 0-2-1-2-2-1 0-1-1-1-2 0-2 0-3 1-3 0-1 1-1 2-1h1zm5-20h6c2 0 4-1 5-3 1-1 1-2 1-4 0-1 0-2-1-3-1-2-2-2-4-2h-7v12zm0 20h9c2 0 4-1 5-2 0-1 1-2 1-3 0-2-1-3-2-5-2-1-3-2-6-2h-7v12zm49-6h-21c1 2 2 4 3 5 2 1 3 2 6 2 2 0 4-1 7-2 2-1 3-1 3-1 1 0 1 0 2 1v6c-1 1-3 2-5 3-3 0-5 1-8 1-4 0-7-2-10-6-2-3-3-8-3-13 0-6 1-10 4-14 2-3 6-5 9-5 2 0 4 0 6 1 1 2 3 3 4 4 1 2 2 5 3 7v11zm-5-8c-1-3-2-4-3-5-2-2-3-2-5-2s-3 0-4 2c-2 1-3 2-4 5h16zm18-14v3c1-2 2-3 3-3 1-1 3-1 4-1 3 0 5 1 7 4s2 6 2 10v15c1 0 2 0 3 1v5c-1 1-2 2-3 2h-5c-1 0-2-1-2-2-1 0-1-1-1-2 0-2 0-3 1-3 0-1 1-1 2-1v-16c0-1 0-3-1-4s-2-1-3-1c-2 0-3 0-3 1-1 1-2 2-4 5v15h3c1 1 1 2 1 4 0 1 0 2-1 2 0 1-1 2-2 2h-6c-2 0-2-1-3-2-1 0-1-1-1-2 0-2 1-3 1-4h3v-20c-1 0-2 0-2-1-1-1-1-2-1-3s0-2 1-3c0-1 1-1 2-1h5zm30-16v19c1-2 2-3 4-3 1-1 2-1 3-1 4 0 7 2 10 6 2 3 3 8 3 14 0 5-1 9-3 13-3 3-6 5-10 5-1 0-2 0-4-1-1 0-2-1-3-2v2h-6c-2 0-2-1-3-2 0 0-1-1-1-2 0-2 1-3 1-3 1-1 1-1 3-1h1v-35h-1c-2 0-2-1-3-2 0 0-1-1-1-2 0-2 1-3 1-3 1-1 1-2 3-2h6zm15 35c0-4-1-6-2-9-2-2-3-3-6-3-2 0-4 1-5 3-2 3-2 5-2 9 0 3 0 5 2 7 1 2 3 3 5 3 3 0 5-1 6-3s2-4 2-7zm21-19v5c2-3 4-4 5-5s3-1 4-1 3 1 4 3c2 1 2 2 2 4 0 1 0 2-1 3 0 0-1 1-2 1l-2-2c0-1-1-1-1-1-1 0-2 1-4 2-1 1-3 4-5 6v13h7c2 0 2 0 3 1 0 0 1 1 1 3 0 1-1 2-1 2-1 1-1 2-3 2h-15c-1 0-2-1-3-2 0 0-1-1-1-2 0-2 1-3 1-3 1-1 2-1 3-1h3v-20h-2c-1 0-2 0-3-1v-6c1-1 2-1 3-1h7zm45 18c0 3 0 6-1 9s-3 6-5 7c-2 2-5 3-7 3s-5-1-7-3c-2-1-4-4-5-7-1-2-1-6-1-9s0-6 1-9 3-6 5-8c2-1 5-2 7-2s5 1 7 2c2 2 3 5 5 8 1 3 1 6 1 9zm-5 0c0-2 0-5-2-7-1-3-3-4-6-4-2 0-4 1-6 3-1 3-2 5-2 8s1 5 2 8c2 2 4 3 6 3s4-1 6-3c1-3 2-5 2-8zm36 0c0 3 0 6-2 9-1 3-2 6-4 7-3 2-5 3-7 3-3 0-5-1-7-3-2-1-4-4-5-7-1-2-2-6-2-9s1-6 2-9 3-6 5-8c2-1 4-2 7-2 2 0 4 1 7 2 2 2 3 5 4 8 2 3 2 6 2 9zm-5 0c0-2-1-5-2-7-1-3-4-4-6-4-3 0-4 1-6 3-2 3-2 5-2 8s0 5 2 8c2 2 3 3 6 3 2 0 4-1 6-3 1-3 2-5 2-8zm18 4v14h-6c-1 0-2-1-2-2-1 0-1-1-1-2 0-2 0-3 1-3 0-1 1-1 2-1h1v-35h-1c-1 0-2-1-2-2-1 0-1-1-1-2 0-2 0-3 1-3 0-1 1-2 2-2h6v28l4-5v-3c0-1 0-2 1-3 0-1 1-1 2-1h6c1 0 2 0 3 1v6c-1 1-2 1-3 1h-1l-7 8 9 12h1c1 0 2 0 3 1 0 0 1 1 1 3 0 1-1 2-1 2-1 1-2 2-3 2h-6c-1 0-2-1-2-2-1 0-1-1-1-2s0-2 1-3l-6-8-1 1z"/></g></svg>