<svg xmlns="http://www.w3.org/2000/svg" width="600" height="367" viewBox="0 0 600 366" shape-rendering="geometricPrecision" text-rendering="geometricPrecision" image-rendering="optimizeQuality" fill-rule="evenodd" xmlns:cgf="https://coding.garden/flags"><metadata id="cgf-metadata">

<cgf:flag>
  <cgf:name>Carrollton</cgf:name>
  <cgf:route>us/tx/carrollton</cgf:route>
  <cgf:aspect-ratio>1.6348773841961852</cgf:aspect-ratio>
</cgf:flag>

</metadata><defs><style>.fil1{fill:#064183}</style></defs><path d="M0 0h600v366H0V0z" fill="#fff"></path><g id="Layer 1"><path class="fil1" d="M386 151c-24 8-47 16-71 25-25 9-45-11-47-32-2-16 12-35 36-37-9-10-18-19-26-29 70-15 103 13 108 73z"></path><path d="M420 198c-15 51-63 88-118 88-68 0-124-56-124-124 0-69 56-125 124-125 61 0 112 45 122 103l-38 11c-5-42-41-75-84-75-47 0-85 39-85 86 0 46 38 85 85 85 38 0 70-26 81-60l37 11z" fill="#067d2d"></path><circle class="fil1" cx="278" cy="100" r="6"></circle><path class="fil1" d="M214 312c-3-4-7-7-12-7-8 0-14 7-14 15 0 9 5 16 14 16 5 0 9-2 12-6h4c-3 6-9 10-16 10-10 0-18-9-18-20 0-9 8-18 18-18 7 0 13 3 16 10h-4z"></path><path class="fil1" d="M198 336h-4l31-35h4l-1 38h-3v-16h-14l-13 13zm27-16v-14l-12 14h12zm11 19h-3v-38h9c2 0 3 1 5 1 4 1 7 6 7 11 0 6-3 11-8 11l8 15h-4l-8-15h-6v-3h8c4 0 7-3 7-8 0-3-2-7-5-8h-10v34zm48-18c0 8 6 16 15 16s15-8 15-17c0-8-7-15-15-15s-15 7-15 16zm-4 0c0-11 9-20 19-20 11 0 19 9 19 20 0 10-8 19-19 19s-19-9-19-19zm60 18h-20v-38h4v34h16v4zm7 0h-4v-34h-7v-4h19v4h-8v34zm67-5-1-33h4v38h-4l-19-33 1 33h-4v-38h4l19 33z"></path><path class="fil1" d="M354 321c0 8 7 16 16 16s15-8 15-17c0-8-7-15-15-15-9 0-16 7-16 16zm-3 0c0-11 8-20 19-20 10 0 19 9 19 20 0 10-9 19-19 19-11 0-19-9-19-19zm-11 13h-15v-32h4v29h11v3zm-80 5h-3v-38h9c2 0 3 1 4 1 5 1 8 6 8 11 0 6-3 11-8 11l8 15h-4l-8-15h-6v-3h7c4 0 7-3 7-8 0-3-1-7-4-8h-10v34z"></path></g></svg>