<svg xmlns="http://www.w3.org/2000/svg" xmlns:xlink="http://www.w3.org/1999/xlink" width="325" height="217" version="1"><path fill="#1081de" d="M0 0h325v217H0z"/><path d="M135.5 175.755c13.243-11.894 26.071-24.126 37.77-37.582 3.096-3.772 3.58-8.629 1.3-13.037-1.307-2.529-17.746-8.096-17.669-10.408 3.93-3.635 12.595-3.812 17.748-4.017 7.847-.187 8.819-.018 8.568 1.492-.205 1.233.817 1.998 3.708 2.777 4.745 1.278 5.544 2.275 4.052 5.063-1.669 3.119.397 4.978 5.395 4.857 2.27-.055 5.214-.403 6.541-.774 2.277-.637 2.179-.78-1.728-2.542-2.277-1.027-4.418-2.743-4.758-3.813-.852-2.686.272-8.09 3.281-15.771 4.29-10.949 6.595-12.608 23.588-16.984 11.75-3.025 37.28-13.93 43.219-18.46C269.64 64.173 276 53.286 276 50.318c0-.749-4.8 2.253-10.669 6.67-6.252 4.708-12.358 8.479-14.75 9.11-10.681 2.82-15.861 4.567-25.424 8.571-9.187 3.847-11.21 4.331-18.1 4.331-8.438 0-11.216.698-21.057 5.294-4.807 2.245-8.584 5.165-14.5 11.212-9.243 9.448-9.373 9.494-26.564 9.494-9.73 0-13.982-.53-24.1-3C107.53 98.751 106 98.534 106 99.9c0 .495 2.251 1.44 5.003 2.1 8.48 2.035 7.264 3.342-2.364 2.54-5.472-.456-8.639-.36-8.639.262 0 1.198 2.588 1.864 10.75 2.766 6.844.756 8.472 2.388 2.5 2.506-2.063.04-5.775.467-8.25.947-3.22.624-.876 1.814 7.712 1.514 6.6-.23 16.729-1.155 22.767-.758 10.89.717 10.987.746 11.97 3.548.829 2.365.506 3.72-1.98 8.315-2.362 4.368-2.975 6.753-3 11.675-.03 5.89-.303 6.573-5.74 14.303-6.612 9.833-7.63 14.434-14.64 24.017-3.499 4.559-11.526 12.686-10.798 16.048.378 1.747 18.842-8.463 24.209-13.928z" fill="#fff"/><path d="M222 132.72c0-.703-1.54-2.864-3.422-4.801-2.264-2.332-3.533-4.69-3.75-6.971-.292-3.072-.928-3.745-5.828-6.166-3.025-1.495-6.541-2.732-7.813-2.75-2.012-.028-2.273.39-2 3.211.318 3.3 2.06 4.682 7.813 6.2 2.28.602 2.346.536.75-.751-2.392-1.93-2.196-2.692.693-2.692 2.507 0 6.478 4.193 4.573 4.828-1.807.602-1.097 2.13 3.111 6.694 4.213 4.571 5.873 5.475 5.873 3.199zm-32.939-9.098c-.849-1.8-.858-4.056-.064-4.735 2.173-1.858-8.797-3.76-12.45-5.848-4.088-2.041-8.62-.004-10.259 3.961.168 0 3.852 2.382 8.759 3.482l14.014 3.14z" fill="#fff"/><path id="a" d="m215.273 37.99 3.555 11.798 12.32-.265-10.122 7.028 4.059 11.635-9.812-7.456-9.811 7.456 4.059-11.635-10.123-7.028 12.32.265 3.555-11.799z" fill="#fff" stroke-linecap="round"/><use xlink:href="#a" transform="translate(23.6 52.955)" width="325" height="217"/><use xlink:href="#a" id="b" transform="translate(-55.833 -19.57)" width="325" height="217"/><use xlink:href="#b" id="c" transform="translate(-55.257 19.57)" width="325" height="217"/><use xlink:href="#c" id="d" transform="translate(-21.873 52.955)" width="325" height="217"/><use xlink:href="#d" id="e" transform="translate(23.024 50.653)" width="325" height="217"/><use xlink:href="#e" id="f" transform="translate(55.257 23.297)" width="325" height="217"/><use xlink:href="#f" transform="translate(55.833 -23.024)" width="325" height="217"/></svg>