<svg xmlns="http://www.w3.org/2000/svg" overflow="visible" height="300" width="450" viewBox="25 0 450 300" xmlns:cgf="https://coding.garden/flags"><metadata id="cgf-metadata">

<cgf:flag>
  <cgf:name>Dallas</cgf:name>
  <cgf:route>us/tx/dallas</cgf:route>
  <cgf:aspect-ratio>1.5</cgf:aspect-ratio>
</cgf:flag>

</metadata><path fill="#000191" d="M25 0h450v300H25z"></path><path fill="#be001c" d="M25 0h450v150H25z"></path><path fill="#FFF" d="M25 145h450v10H25z"></path><path fill="#FFF" d="M193.684 181.756 158.2 289.994l91.8-67.08 91.8 67.08-35.484-108.238 90.565-66.188H284.615L250 10l-34.615 105.568H103.119z"></path><path d="M308.632 163.735a58.627 58.627 0 1 1-117.254 0 58.627 58.627 0 1 1 117.254 0z" fill-rule="evenodd" fill="#FFF"></path><circle cx="249.5" transform="translate(-29.879 -20.042) scale(1.12176)" cy="163.83" r="48.5" fill="#d5a735"></circle><path stroke="#000" stroke-width="1.067" fill="none" d="m262.508 167.853 20.113-14.695h-24.937L250 129.713l-7.684 23.445h-24.937l20.113 14.695-7.874 24.039L250 176.995l20.394 14.897z"></path><circle stroke-width=".951" cx="249.5" stroke="#000" transform="translate(-29.879 -20.042) scale(1.12176)" cy="164.15" r="45.013" fill="none"></circle><path d="M251.054 128.692c-.435-.012-.733-.366-.722-.826.015-.46.341-.797.79-.785.447.013.745.352.733.827-.015.461-.332.797-.79.785l-.01-.001zm2.626.168c-.435-.043-.706-.418-.66-.877.046-.458.398-.77.844-.725.446.045.72.406.672.877-.046.458-.385.771-.844.726h-.013zm2.613.37c-.43-.074-.674-.467-.591-.922.076-.453.453-.739.896-.66.44.076.686.458.601.925-.076.454-.442.742-.896.662l-.01-.005zm2.58.561c-.422-.106-.634-.517-.522-.962.114-.447.509-.703.944-.594.434.11.65.509.534.967-.111.447-.495.708-.942.595l-.014-.006zm2.513.741c-.413-.138-.596-.562-.45-1 .147-.437.558-.664.984-.523.426.143.611.556.463 1.004-.146.438-.547.668-.985.523l-.012-.004zm2.479.931c-.402-.168-.552-.605-.374-1.03.178-.425.605-.621 1.019-.448.415.174.569.6.385 1.036-.179.425-.595.626-1.02.446l-.01-.004zm2.389 1.122c-.389-.198-.505-.644-.297-1.055.21-.41.65-.573 1.051-.371.4.202.523.638.307 1.061-.21.41-.641.579-1.05.371l-.01-.006zm2.311 1.29c-.371-.226-.456-.681-.215-1.075.238-.395.69-.524 1.073-.293.384.233.474.678.228 1.083-.238.394-.68.531-1.074.29l-.012-.005zm2.199 1.447c-.354-.253-.404-.712-.138-1.09.267-.377.729-.472 1.095-.213.364.26.423.71.148 1.095-.268.376-.718.48-1.095.212l-.01-.004zm2.086 1.615c-.335-.278-.35-.74-.058-1.095.295-.355.762-.417 1.105-.131.345.286.37.738.067 1.103-.293.355-.75.426-1.105.132l-.009-.01zm1.963 1.75c-.315-.3-.297-.763.023-1.095.32-.334.788-.361 1.114-.05.324.31.314.763-.015 1.105-.319.333-.778.37-1.113.05l-.009-.01zm1.84 1.907c-.29-.325-.241-.783.104-1.092.342-.308.816-.301 1.114.032.3.333.257.784-.095 1.101-.343.308-.806.311-1.113-.032l-.01-.01zm1.683 2.03c-.267-.343-.182-.798.18-1.08.367-.283.836-.241 1.11.113.273.355.202.801-.174 1.092-.365.282-.826.251-1.109-.114l-.007-.01zm1.525 2.143c-.241-.363-.122-.81.262-1.065.382-.254.849-.18 1.096.194s.139.814-.254 1.075c-.384.256-.842.19-1.097-.193l-.007-.011zm1.38 2.255c-.212-.378-.064-.818.339-1.043.401-.226.862-.116 1.08.274.22.392.08.821-.333 1.053-.402.227-.855.128-1.082-.274l-.004-.01zm1.2 2.366c-.183-.394 0-.818.419-1.014.417-.195.867-.051 1.054.354.19.406.02.825-.41 1.025-.42.196-.862.065-1.056-.353l-.007-.012zm1.032 2.435c-.156-.406.06-.818.49-.98.432-.165.868.012 1.028.43.158.42-.043.823-.486.993-.43.164-.863 0-1.027-.432l-.005-.011zm.83 2.49c-.123-.417.12-.811.561-.941.442-.131.865.075.994.506.127.43-.106.819-.557.955-.442.132-.863-.066-.994-.507l-.004-.013zm.651 2.547c-.093-.425.177-.8.63-.898.45-.099.857.14.952.579.095.437-.163.809-.626.91-.45.1-.855-.127-.954-.578l-.002-.014zm.471 2.613c-.062-.43.24-.783.693-.848.456-.065.844.204.908.647.064.442-.223.794-.691.862-.457.065-.841-.192-.908-.649l-.002-.012zm.258 2.625c-.028-.434.295-.765.754-.794.462-.03.826.263.857.711s-.282.777-.752.809c-.46.03-.823-.253-.857-.713l-.002-.013zm.079 2.636c.008-.435.355-.735.82-.73.46.008.8.335.793.78-.01.448-.346.75-.82.741-.46-.008-.801-.32-.793-.779v-.012zm-.112 2.636c.032-.433.401-.712.863-.677.459.034.778.381.743.828-.034.445-.392.728-.863.688-.462-.036-.782-.371-.746-.828l.002-.01zm-.315 2.614c.069-.43.456-.683.912-.613.455.07.749.438.681.882-.07.442-.444.695-.912.625-.453-.07-.75-.425-.68-.88v-.014zm-.493 2.602c.097-.422.501-.646.952-.542.451.102.716.492.615.928-.103.438-.494.662-.956.554-.447-.103-.717-.477-.615-.928l.004-.012zm-.696 2.536c.128-.417.55-.606.99-.47.44.134.677.543.545.97-.134.428-.543.625-.995.483-.44-.134-.68-.531-.545-.971l.005-.012zm-.875 2.478c.159-.405.595-.564 1.021-.396.429.167.636.592.47 1.008-.164.417-.584.582-1.026.408-.429-.167-.639-.582-.468-1.01l.003-.01zm-1.065 2.435c.19-.392.632-.518 1.046-.319.419.201.59.639.394 1.042-.196.404-.627.538-1.053.332-.415-.2-.594-.628-.393-1.043l.006-.012zm-1.234 2.322c.215-.378.668-.471 1.068-.241.4.23.54.678.316 1.067-.224.388-.666.49-1.077.25-.397-.23-.546-.668-.315-1.067l.008-.009zm-1.414 2.233c.245-.36.703-.421 1.085-.162.38.258.488.72.237 1.09-.25.374-.698.44-1.092.172-.381-.258-.494-.707-.236-1.09l.006-.01zM278 186.71c.268-.343.73-.369 1.092-.081.358.287.434.751.156 1.1-.277.352-.73.386-1.1.093-.36-.287-.442-.741-.157-1.103l.008-.01zm-1.728 2.007c.293-.32.757-.312 1.097 0 .338.312.378.782.071 1.112-.302.33-.756.33-1.103.01-.34-.31-.385-.772-.073-1.11l.008-.012zm-1.852 1.873c.317-.297.778-.256 1.094.08.316.336.319.807-.009 1.112-.326.307-.777.276-1.101-.07-.315-.334-.329-.8.008-1.115l.009-.006zm-1.985 1.717c.338-.275.793-.2 1.084.16.29.357.258.826-.089 1.11-.348.281-.796.215-1.094-.154-.289-.357-.27-.821.088-1.11l.011-.006zm-2.109 1.582c.357-.247.808-.14 1.07.237.263.38.2.846-.169 1.102-.368.255-.81.158-1.081-.232-.263-.378-.209-.836.17-1.098l.01-.01zm-2.232 1.424c.375-.222.817-.08 1.05.315.233.398.136.859-.251 1.087-.385.23-.82.1-1.06-.31-.235-.395-.146-.85.25-1.085l.011-.007zm-2.322 1.257c.39-.196.819-.022 1.023.394.203.412.07.865-.33 1.063-.403.2-.825.035-1.039-.388-.201-.414-.081-.862.335-1.063l.01-.006zm-2.412 1.077c.402-.164.818.039.992.466s.007.867-.41 1.038c-.414.168-.823-.024-1.003-.465-.172-.427-.019-.863.409-1.036l.012-.003zm-2.501.897c.416-.132.814.103.955.54.14.44-.06.867-.484 1.003s-.824-.085-.965-.537c-.141-.437.046-.862.484-1.002l.01-.004zm-2.524.696c.421-.103.804.161.91.609s-.12.86-.556.962c-.435.105-.813-.147-.922-.605-.109-.447.11-.857.555-.963l.013-.004zm-2.592.527c.43-.07.789.22.865.675.073.458-.186.85-.628.92-.444.072-.8-.205-.875-.674-.075-.455.173-.846.627-.92l.011-.001zm-2.625.325c.435-.038.771.278.813.737.039.458-.246.83-.692.87-.446.039-.781-.265-.822-.735-.041-.46.235-.83.691-.87l.01-.002zm-2.636.135c.437-.007.749.335.756.793.008.462-.306.813-.755.819-.447.007-.759-.32-.768-.794-.008-.46.294-.812.755-.818h.012zm-2.647-.067c.435.023.722.386.695.847-.024.461-.364.786-.813.76-.446-.023-.735-.375-.708-.847.025-.46.353-.787.813-.763l.013.002zm-2.591-.248c.432.057.69.44.631.897-.06.456-.421.758-.866.699-.444-.058-.705-.427-.644-.897.06-.458.409-.76.866-.7l.013.001zm-2.625-.448c.425.087.657.488.563.94-.093.45-.477.724-.915.634-.439-.092-.672-.48-.577-.944.093-.452.464-.728.915-.635l.014.005zm-2.558-.628c.419.116.62.536.492.979-.127.442-.53.688-.96.563-.431-.123-.636-.528-.505-.984.126-.443.517-.69.959-.563l.014.005zm-2.501-.831c.408.152.577.582.418 1.012-.16.434-.578.646-1 .493-.42-.156-.593-.573-.429-1.018.16-.433.565-.651 1-.491l.01.004zm-2.435-1.009c.398.18.534.622.343 1.042-.191.422-.625.602-1.035.417-.407-.185-.548-.616-.353-1.044.19-.422.612-.607 1.033-.418l.012.003zm-2.355-1.178c.381.209.486.659.265 1.062s-.668.555-1.06.338c-.394-.212-.504-.653-.275-1.07.222-.404.656-.56 1.06-.337l.01.007zm-2.266-1.358c.364.236.435.693.184 1.081-.25.387-.707.505-1.084.26-.376-.247-.452-.69-.194-1.089.25-.387.696-.512 1.083-.26l.01.009zm-2.154-1.525c.348.263.383.725.106 1.092-.279.365-.743.45-1.1.178-.355-.27-.4-.724-.115-1.098.279-.37.731-.458 1.098-.18l.011.008zm-2.042-1.66c.328.288.33.748.025 1.095-.304.346-.772.394-1.11.097-.337-.295-.347-.746-.035-1.102.305-.346.764-.402 1.11-.099l.01.009zm-1.918-1.84c.305.311.273.772-.056 1.095s-.8.337-1.114.017c-.314-.319-.291-.772.047-1.103.33-.323.791-.345 1.114-.017l.01.008zm-1.783-1.963c.28.333.214.79-.137 1.088-.351.298-.822.277-1.112-.067-.29-.342-.233-.79.128-1.097.352-.297.814-.287 1.112.068l.009.008zm-1.616-2.075c.256.351.157.805-.215 1.076-.374.27-.841.214-1.105-.148-.262-.363-.175-.807.209-1.086.373-.27.832-.225 1.103.147l.008.01zm-1.469-2.187c.23.37.096.815-.295 1.055-.392.243-.854.154-1.09-.229-.236-.379-.115-.818.288-1.067.391-.243.847-.162 1.09.23l.007.01zm-1.29-2.278c.202.386.037.818-.372 1.032-.408.212-.863.089-1.07-.307-.207-.397-.055-.821.365-1.043.408-.215.857-.103 1.07.306l.007.012zm-1.144-2.412c.172.4-.024.82-.446 1.001-.423.183-.867.025-1.044-.386-.178-.41.007-.823.442-1.012.422-.182.861-.034 1.044.386l.004.012zm-.943-2.445c.142.412-.084.816-.52.965-.434.15-.866-.037-1.013-.462-.147-.423.067-.824.515-.979.435-.151.864.025 1.014.464l.004.012zm-.762-2.524c.11.42-.144.807-.59.924-.445.116-.862-.105-.976-.537s.129-.816.586-.935c.444-.117.858.09.976.536l.004.012zm-.573-2.58c.08.429-.204.793-.657.878-.453.083-.851-.166-.933-.606s.188-.804.654-.89c.453-.084.849.155.933.605l.003.013zm-.381-2.602c.047.433-.261.776-.72.825-.459.052-.837-.229-.886-.675-.05-.444.246-.786.718-.84.457-.05.835.217.887.676l.001.014zm-.191-2.648c.017.436-.317.754-.778.772-.461.02-.818-.288-.835-.736-.015-.447.305-.768.778-.783.46-.019.817.277.834.735l.001.012zm0-2.625c-.014.437-.371.732-.832.715s-.794-.348-.779-.795.358-.743.832-.727c.46.017.796.333.778.795v.012zm.202-2.636c-.047.433-.423.7-.883.652-.458-.052-.767-.405-.719-.851.049-.446.413-.716.884-.666.458.052.769.395.72.853l-.002.012zm.382-2.613c-.079.427-.475.667-.928.584s-.735-.461-.654-.903c.08-.44.465-.682.93-.596.454.083.737.448.654.902l-.002.013zm.583-2.581c-.111.423-.523.63-.97.513-.445-.117-.698-.514-.584-.948.114-.434.513-.646.972-.526.445.117.702.502.585.948l-.003.013zm.774-2.523c-.14.411-.568.59-1.004.44-.436-.152-.658-.565-.513-.991.146-.422.56-.605 1.008-.451.436.15.663.554.513.99l-.004.012zm.942-2.446c-.171.4-.61.546-1.034.365-.423-.18-.615-.612-.44-1.023.176-.412.604-.564 1.039-.376.423.18.62.6.44 1.022l-.005.012zm1.144-2.4c-.2.387-.648.499-1.057.287-.41-.212-.57-.657-.363-1.054.208-.398.644-.516 1.065-.298.408.212.574.644.361 1.052l-.006.013zm1.313-2.3c-.229.37-.684.45-1.076.207-.392-.242-.517-.696-.283-1.076.236-.38.681-.468 1.083-.22.393.243.525.687.283 1.078l-.007.01zm1.481-2.187c-.256.352-.715.397-1.09.127-.373-.27-.465-.732-.202-1.094s.713-.417 1.096-.14c.374.27.473.723.203 1.096l-.007.01zm1.626-2.065c-.28.332-.742.345-1.095.048s-.41-.764-.122-1.108c.29-.342.743-.363 1.104-.057.352.296.42.755.121 1.107l-.008.01zm1.761-1.94c-.304.312-.766.29-1.096-.033s-.352-.792-.04-1.112c.313-.32.766-.308 1.105.022.33.323.361.783.04 1.113l-.009.01zm1.919-1.817c-.327.288-.786.233-1.09-.113-.305-.345-.295-.815.04-1.112.337-.297.787-.252 1.101.103.304.345.304.807-.041 1.113l-.01.009zm2.052-1.672c-.346.264-.8.175-1.079-.192-.278-.366-.233-.835.123-1.107.356-.27.802-.192 1.089.185.279.367.244.828-.124 1.107l-.009.007zm2.154-1.514c-.364.238-.81.115-1.062-.27-.25-.388-.172-.85.204-1.095.375-.245.813-.134 1.072.264.252.386.183.844-.204 1.095l-.01.006zm2.277-1.358c-.38.211-.816.055-1.038-.348-.223-.403-.11-.862.282-1.076.393-.217.822-.073 1.051.342.222.403.12.855-.285 1.077l-.01.005zm2.345-1.177c-.396.181-.82-.005-1.01-.424s-.046-.866.361-1.053.825-.012 1.022.42c.192.42.056.861-.363 1.053l-.01.004zm2.445-.999c-.408.152-.816-.066-.977-.498s.02-.867.441-1.023.823.05.988.494c.16.432-.008.863-.44 1.023l-.012.004zm2.513-.818c-.418.12-.809-.127-.936-.57-.127-.444.085-.864.514-.988.43-.123.818.111.95.566.127.443-.071.86-.515.988l-.013.003zm2.546-.629c-.426.09-.797-.186-.891-.637-.096-.45.148-.855.585-.948.439-.092.808.17.905.635.095.451-.136.853-.586.948l-.013.002zm2.625-.437c-.43.057-.78-.245-.841-.703-.06-.456.21-.84.655-.9.444-.059.793.23.855.7.06.457-.199.842-.655.902h-.014zm2.625-.247c-.435.026-.761-.302-.788-.762s.271-.823.719-.85c.446-.026.773.29.802.76.025.46-.26.823-.72.85l-.013.002zm42.493 50.393a43.178 43.178 0 0 1-6.196 11.175h1.474a44.108 44.108 0 0 0 5.983-11.175h-1.261zm-82.141 0a44.274 44.274 0 0 0 5.982 11.175h1.475a43.111 43.111 0 0 1-6.195-11.175h-1.262zm-5.705-19.78-.966-.498.019-.5 3.98-.014-.023.617c-1.153.148-2.018.477-2.593.988-.577.51-.878 1.106-.904 1.79-.029.752.304 1.386.999 1.906.695.519 1.815.81 3.355.866 1.631.065 2.85-.159 3.663-.67.638-.41.973-1.038 1.006-1.883a2.8 2.8 0 0 0-.848-2.17c-.434-.431-1.088-.749-1.96-.95l.021-.6c1.122.187 1.998.652 2.625 1.398s.92 1.645.881 2.692c-.053 1.357-.577 2.478-1.57 3.359-.993.88-2.238 1.294-3.734 1.235-1.66-.065-2.966-.644-3.916-1.743-.809-.936-1.19-2.01-1.143-3.22a3.83 3.83 0 0 1 .278-1.323c.166-.4.447-.826.83-1.28zm.034-4.846 1.292-4.91.6.158-.233.888c-.05.191-.047.34.005.445.054.107.153.18.3.217l7.432 1.955c.173.046.308.033.406-.038.126-.092.218-.248.276-.466l.209-.791.6.156-1.291 4.91-.602-.156.199-.752c.068-.258.074-.452.015-.582-.059-.13-.172-.214-.341-.26l-7.348-1.935c-.182-.049-.329-.032-.44.04-.113.073-.197.215-.25.423l-.225.857-.604-.16zm2.277-8.054 3.903-7.735 3.467 1.499-.273.541c-.785-.234-1.43-.353-1.935-.353-.508 0-.912.088-1.214.264a1.723 1.723 0 0 0-.689.73c-.09.18-.119.33-.089.45.03.122.117.219.257.29l6.854 3.458c.133.067.26.08.385.04a.448.448 0 0 0 .276-.232l.508-1.005.558.28-2.389 4.735-.557-.282.483-.958a.521.521 0 0 0 .049-.402.483.483 0 0 0-.264-.29l-6.818-3.441c-.16-.081-.298-.097-.418-.048-.12.047-.226.163-.32.346-.513 1.019.072 2.179 1.758 3.48l-.265.525-3.267-1.893zm5.609-10.377 3.277-3.692.468.414-.455.512c-.16.18-.247.325-.265.435-.016.111.012.199.086.264a.797.797 0 0 0 .367.164l4.03.81-1.189-3.002a1.456 1.456 0 0 0-.371-.574.651.651 0 0 0-.553-.175c-.201.033-.408.168-.62.405l-.203.228-.467-.414 2.544-2.867.468.414c-.288.336-.457.66-.51.972s-.002.662.15 1.05l1.622 4.103 2.332 2.07c.138.12.272.174.407.159.133-.016.27-.105.414-.265l.682-.767.468.414-3.601 4.058-.468-.414.676-.763c.155-.172.23-.325.228-.452-.003-.128-.075-.254-.215-.378l-2.07-1.837-5.214-1.048c-.333-.068-.602-.067-.809.003s-.403.214-.594.429l-.142.16-.473-.416zm17.646-15.087c.834-.421 1.706-.605 2.614-.557s1.733.324 2.477.822c.744.5 1.335 1.187 1.776 2.061.668 1.33.79 2.656.368 3.98s-1.278 2.309-2.565 2.955c-.856.43-1.723.612-2.602.55a4.953 4.953 0 0 1-2.424-.826c-.735-.488-1.332-1.186-1.787-2.092-.677-1.345-.805-2.671-.385-3.978.418-1.306 1.26-2.278 2.527-2.915zm.324.556c-.476.239-.823.578-1.041 1.015-.218.438-.283 1-.196 1.686s.385 1.536.896 2.551c.535 1.067 1.036 1.826 1.502 2.28.466.454.947.72 1.443.801.497.081.986 0 1.47-.243.715-.359 1.133-.953 1.253-1.781.119-.828-.202-2-.965-3.518-.534-1.062-1.026-1.814-1.478-2.255s-.927-.701-1.422-.778a2.357 2.357 0 0 0-1.462.242zm8.29-3.854 8.609-1.616.729 3.34-.591.112c-.3-1.014-.678-1.685-1.132-2.01-.455-.326-1.078-.414-1.871-.266l-1.446.271c-.211.04-.356.112-.438.219a.491.491 0 0 0-.075.402l.612 3.26.527-.098c1.048-.196 1.537-.935 1.464-2.216l.584-.11.845 4.501-.585.11c-.108-.48-.259-.845-.45-1.098a1.647 1.647 0 0 0-.706-.545 1.583 1.583 0 0 0-.902-.076l-.665.126.667 3.551c.035.19.112.32.23.389.168.1.352.132.551.093l.925-.174.116.616-5.167.969-.115-.616.866-.163c.203-.038.348-.12.44-.249a.555.555 0 0 0 .088-.436l-1.397-7.444c-.036-.19-.114-.31-.236-.366-.123-.054-.35-.049-.685.014l-.674.127-.118-.617zm17.421-1.728 5.241 1.025c.954.188 1.75.553 2.388 1.097a4.416 4.416 0 0 1 1.357 2.055c.261.826.301 1.707.117 2.641-.191.97-.541 1.777-1.053 2.422-.514.644-1.183 1.107-2.009 1.388a4.8 4.8 0 0 1-2.513.17l-5.431-1.062.118-.608.81.158c.2.038.357.013.48-.074.12-.088.2-.229.24-.42l1.437-7.34c.038-.197.013-.35-.074-.461-.087-.111-.257-.19-.506-.24l-.718-.14.116-.61zm3.002 10.063c.601.117 1.163.071 1.688-.141s.942-.56 1.25-1.045.572-1.28.788-2.383c.226-1.16.279-2.073.155-2.738s-.366-1.17-.732-1.512-.954-.595-1.759-.752c-.442-.086-.728-.103-.855-.05-.125.052-.208.178-.248.375l-1.442 7.377c-.044.22-.028.387.041.501s.206.191.402.23l.712.138zm15.541-4.566-.812 9.613c-.021.273.003.477.07.615s.197.255.379.349l.32.166-.287.55-4.123-2.149.286-.55.387.2c.304.16.531.235.682.228.151-.008.256-.068.312-.178a.933.933 0 0 0 .087-.341l.17-1.99-3.298-1.718-.703.581c-.291.243-.476.439-.555.59a.88.88 0 0 0-.041.778c.106.26.324.476.654.648l.28.146-.287.55-3.342-1.741.287-.551.19.1a.982.982 0 0 0 .674.092c.332-.071.637-.222.918-.455l7.085-5.883.667.35zm-2.119 1.725-3.155 2.616 2.807 1.463.348-4.08zm8.423 3.121.423-.46 3.751 3.456-.421.459-.632-.581c-.18-.166-.338-.247-.473-.246-.136.002-.274.082-.419.236l-4.996 5.424c-.202.22-.297.393-.285.517s.15.307.406.543l1.056.973c.392.361.928.514 1.613.455s1.49-.412 2.424-1.062l.434.4-2.746 2.646-6.431-5.928.423-.458.647.597c.144.133.286.196.423.191.14-.004.271-.072.393-.204l5.136-5.577c.124-.135.177-.267.158-.398s-.119-.28-.303-.446l-.58-.537zm8.784 8.716.525-.336 2.741 4.292-.525.336-.462-.724c-.133-.207-.265-.327-.398-.359-.13-.031-.287.007-.465.12l-6.217 3.973c-.252.162-.387.304-.408.428-.02.123.068.332.25.626l.772 1.202c.289.448.766.73 1.442.845.675.114 1.544-.023 2.612-.414l.328.51-3.332 1.858-4.697-7.35.525-.336.467.733c.104.162.223.257.36.289.136.029.28-.004.429-.101l6.393-4.085c.157-.1.24-.212.254-.342.016-.129-.044-.297-.175-.505l-.42-.66zm8.614 15.188-7.383 6.213c-.207.175-.333.336-.382.483-.048.147-.04.318.02.514l.111.345-.591.185-1.39-4.442.592-.185.13.416c.103.33.21.543.321.644.114.102.226.134.347.097a.888.888 0 0 0 .3-.18l1.525-1.277-1.107-3.543-.905-.085c-.378-.037-.645-.03-.81.021a.879.879 0 0 0-.58.518c-.108.258-.107.567.005.921l.093.303-.59.184-1.126-3.6.591-.185.067.206a.97.97 0 0 0 .409.544c.284.185.605.297.967.334l9.165.851.222.718zm-2.718-.28-4.085-.385.944 3.021 3.14-2.636zm3.852 14.37.915.58.023.476-3.422.221-.027-.6c.967-.36 1.682-.84 2.145-1.439.462-.601.678-1.25.643-1.949-.026-.595-.211-1.07-.553-1.428-.341-.356-.736-.526-1.187-.505-.266.013-.51.098-.725.255-.213.157-.395.405-.537.74-.144.336-.282.918-.41 1.752-.155.968-.303 1.64-.448 2.016-.231.593-.554 1.044-.965 1.357-.41.31-.923.479-1.532.51-.916.042-1.663-.238-2.237-.842-.69-.727-1.066-1.653-1.118-2.773-.05-1.032.264-1.992.942-2.879l-1.012-.735-.023-.5 3.667-.176.028.593c-2.062.685-3.05 1.924-2.965 3.715.035.732.23 1.293.585 1.685.356.39.786.574 1.29.55.352-.019.644-.12.873-.31.23-.192.41-.475.539-.86.07-.21.172-.724.307-1.545.19-1.106.4-1.897.635-2.377s.532-.836.894-1.075c.363-.238.812-.367 1.347-.393.9-.042 1.65.226 2.245.805.599.579.92 1.378.969 2.398.046.975-.25 1.887-.886 2.733zm-69.65 32.396 7.117 3.823-1.478 3.19-.5-.268c.236-.722.36-1.319.373-1.79s-.06-.848-.218-1.134a1.595 1.595 0 0 0-.665-.659c-.165-.088-.304-.118-.417-.093-.114.025-.205.106-.274.233l-3.384 6.298c-.065.12-.08.242-.047.358s.103.204.21.262l.925.496-.274.508-4.35-2.335.273-.51.88.473a.507.507 0 0 0 .375.056.45.45 0 0 0 .276-.24l3.367-6.265c.079-.15.097-.277.055-.39-.041-.11-.147-.213-.315-.303-.936-.505-2.03.012-3.28 1.545l-.484-.26 1.835-2.995zm8.233 4.297 7.826 1.895-.587 3.184-.533-.13c.053-.772.025-1.343-.084-1.712a1.91 1.91 0 0 0-.563-.912c-.267-.237-.648-.415-1.143-.534l-1.227-.299c-.19-.046-.338-.04-.441.014a.411.411 0 0 0-.204.283l-.753 3.108.42.102c.48.116.887.07 1.219-.142.332-.211.597-.615.793-1.215l.55.132-1.013 4.184-.551-.133c.132-.701.098-1.227-.1-1.579-.198-.347-.566-.586-1.104-.719l-.345-.083-.806 3.323c-.034.147-.017.26.052.341.108.121.284.21.527.27l1.082.26c.74.18 1.402.09 1.986-.269.585-.357 1.05-1.002 1.395-1.929l.55.133-.96 3.386-8.16-1.979.139-.565.807.197c.183.044.332.03.449-.039a.513.513 0 0 0 .234-.342l1.674-6.91c.036-.146.015-.264-.065-.355-.079-.092-.241-.168-.49-.23l-.71-.17.136-.567zm8.795 2.187 4.576-.074.009.584-.338.006c-.308.005-.513.035-.61.09-.101.057-.148.13-.147.222.001.11.09.282.263.513l1.571 2.08 1.189-1.488c.263-.325.392-.63.385-.918a.506.506 0 0 0-.17-.4c-.114-.091-.276-.135-.488-.133l-.288.007-.012-.585 3.642-.06.01.584-.275.005a1.27 1.27 0 0 0-.604.153c-.175.101-.376.284-.595.55l-2.339 2.866 3.127 4.03c.148.196.282.325.404.383a.81.81 0 0 0 .42.09l.303-.005.01.585-4.51.072-.01-.584.473-.009c.223-.003.384-.042.483-.116a.33.33 0 0 0 .147-.282c-.002-.095-.07-.216-.205-.364l-.066-.083-1.753-2.303-1.412 1.775c-.191.246-.287.504-.281.774.003.203.06.355.168.455a.748.748 0 0 0 .517.185l.351-.007.01.585-3.808.062-.01-.584.238-.003c.192-.004.392-.068.602-.192.347-.213.615-.44.802-.678l2.374-2.938-2.97-3.804c-.158-.2-.291-.328-.4-.384a.872.872 0 0 0-.426-.081l-.35.003-.007-.584zm14.953-1.761 5.54 7.078c.156.198.303.323.44.372a.78.78 0 0 0 .478-.003l.329-.09.153.559-4.183 1.15-.153-.556.389-.11c.31-.084.513-.177.611-.277.098-.103.13-.208.101-.322a.856.856 0 0 0-.156-.288l-1.143-1.463-3.335.918-.11.84c-.047.351-.049.601-.009.754.072.261.23.448.467.558s.525.116.858.025l.284-.078.156.556-3.383.932-.157-.556.194-.054a.913.913 0 0 0 .516-.362c.181-.257.294-.557.339-.893l1.098-8.512.676-.178zm-.351 2.525-.491 3.788 2.839-.782-2.348-3.006zm10.884-6.205.098-1.005.383-.217 1.627 2.746-.491.278c-.707-.65-1.407-1.042-2.1-1.172-.69-.132-1.32-.036-1.888.285-.481.274-.799.63-.952 1.064-.155.434-.126.834.083 1.2.122.216.296.383.518.495.22.113.504.16.842.136.34-.023.881-.155 1.624-.394.869-.277 1.49-.435 1.863-.473.594-.06 1.104.019 1.535.227.432.211.79.565 1.074 1.06.423.739.503 1.479.243 2.21-.314.882-.924 1.582-1.836 2.1-.837.476-1.766.62-2.79.428l-.185 1.154-.4.226-1.694-2.972.474-.273c1.443 1.434 2.89 1.733 4.34.91.594-.337.976-.736 1.15-1.197.173-.462.146-.896-.088-1.306-.163-.287-.373-.485-.629-.598-.253-.11-.565-.14-.94-.087-.203.03-.676.161-1.413.395-.998.307-1.745.468-2.243.473-.496.007-.92-.088-1.27-.29-.35-.201-.645-.519-.895-.955-.418-.731-.512-1.467-.282-2.209.229-.739.756-1.346 1.583-1.817.805-.452 1.688-.593 2.66-.422z"></path><g stroke="#000" stroke-width=".533" fill="none"><path d="m242.91 166.372-4.116 12.564-.045.145 10.892-7.953.022-.022 10.915 7.975-4.195-12.81-.023-.056 10.713-7.83.056-.045H253.78l-.01-.034-4.129-12.586-4.094 12.62h-13.349l10.769 7.875z"></path><path d="m232.153 158.295.157.045 17.253 5.643.056.01m17.499-5.619-.045.011-17.196 5.598-.18.056m-10.982 15.009.079-.112 10.746-14.684.045-.068.056-.078.034-.045.022-.022m-.056-18.319v18.374"></path><path d="m260.578 179.081-10.757-14.83-.068-.089-.078-.1-.023-.023m-4.172-5.777.055.078 4.028 5.643.078.1"></path><path d="m253.792 158.262-.023.044-3.892 5.677-.124.179-.045.056m-6.798 2.154 6.585-2.154"></path><path d="m249.495 164.15.09.034.056.012.067.022.113.034 6.472 2.053m-6.652 4.845v-6.932"></path></g></svg>