<svg xmlns="http://www.w3.org/2000/svg" width="800" height="480" version="1"><path fill="#160055" stroke-width=".762" stroke-linecap="round" stroke-linejoin="round" d="M0 0h800v480H0z"/><path d="M605.969 125.522l-51.5 30.781C570.678 183.323 580 214.93 580 248.71c0 27.34-6.11 53.252-17.031 76.468 14.706-6.7 28.3-15.314 41.55-28.59 7.231 16.934 11.659 35.713 12.762 54.059 35.022-74.644 31.003-154.36-11.312-225.125zM194.031 125.522l51.5 30.781C229.322 183.323 220 214.93 220 248.71c0 27.34 6.11 53.252 17.031 76.468-14.706-6.7-28.3-15.314-41.55-28.59-7.231 16.934-11.659 35.713-12.762 54.059-35.022-74.644-31.003-154.36 11.312-225.125z" fill="#560001" stroke-width=".762" stroke-linecap="round" stroke-linejoin="round"/><path d="M399.875 32.366c-102.5 0-188.378 68.621-211 168.594l46.281 10.468A169.345 169.345 0 0 0 231 248.71c0 93.288 75.712 169 169 169s169-75.712 169-169c0-12.831-1.443-25.33-4.156-37.344l46.031-10.406c-22.622-99.973-108.5-168.594-211-168.594z" fill="#fff" stroke-width=".762" stroke-linecap="round" stroke-linejoin="round"/><path d="M563.896 248.71a163.896 163.896 0 1 1-327.792 0 163.896 163.896 0 1 1 327.792 0z" fill="#560001" stroke-width=".762" stroke-linecap="round" stroke-linejoin="round"/><path d="M296.375 148.24c.645 8.162-3.863 15.823-11.031 16.845a143.245 143.245 0 0 0-6.781 10.218c3.745-1.778 8.03-1.789 12.375-1.062-4.43 6.93-10.522 10.884-16.97 9.187a140.825 140.825 0 0 0-5.593 12.188c3.418-2.367 7.68-3.056 12.094-3.031-3.267 7.55-8.676 12.43-15.313 11.78a141.076 141.076 0 0 0-3.562 12.938c2.998-2.893 7.067-4.224 11.437-4.906-2.02 7.974-6.565 13.643-13.219 14.063a142.009 142.009 0 0 0-1.437 13.312c2.498-3.313 6.31-5.29 10.5-6.656-.722 8.19-4.286 14.52-10.781 16 .016 4.447.257 8.893.687 13.312 1.942-3.645 5.378-6.179 9.281-8.187.593 8.183-1.913 14.99-8.062 17.5.72 4.376 1.625 8.735 2.75 13.031 1.334-3.914 4.339-6.955 7.875-9.562 1.894 8 .512 15.143-5.188 18.593a141.585 141.585 0 0 0 4.813 12.469c.677-4.104 3.19-7.595 6.281-10.75 3.147 7.598 2.892 14.841-2.187 19.156 2.067 3.947 4.328 7.8 6.781 11.563.014-4.16 1.89-8.017 4.438-11.625 4.322 7.005 5.246 14.21.906 19.281a140.557 140.557 0 0 0 8.562 10.313c-.65-4.108.56-8.22 2.5-12.188 5.373 6.212 7.443 13.184 4 18.875a143.021 143.021 0 0 0 12.625 10.813c13.213 10.036 25.768 16.63 41.531 21.812l-.937 2.844c-16.033-5.27-28.967-12.073-42.406-22.281a146.089 146.089 0 0 1-12.938-11.094c-5.93 3.244-12.842.765-18.781-5.031 4.003-1.667 8.102-2.656 12.094-1.844a144.14 144.14 0 0 1-8.688-10.5c-6.362 2.238-12.787-1.308-17.719-7.969 4.21-1.005 8.414-1.334 12.22.094a143.927 143.927 0 0 1-6.876-11.75c-6.64 1.198-12.412-3.323-16.219-10.688 4.329-.321 8.528.061 12.063 2.094a145.276 145.276 0 0 1-4.906-12.75c-6.764.141-11.757-5.235-14.344-13.125 4.336.374 8.456 1.383 11.625 3.969-1.15-4.401-2.11-8.86-2.844-13.344-6.7-.94-10.767-7.048-12.062-15.25 4.23 1.064 8.127 2.741 10.844 5.813a145.747 145.747 0 0 1-.688-13.657c-6.465-1.995-9.499-8.696-9.469-17 3.99 1.718 7.556 3.995 9.75 7.438.285-4.54.786-9.08 1.5-13.594-6.054-3.005-7.978-10.063-6.625-18.25 3.653 2.325 6.816 5.114 8.438 8.844a144.232 144.232 0 0 1 3.656-13.125c-5.496-3.933-6.267-11.228-3.625-19.094 3.239 2.88 5.934 6.148 6.938 10.094a143.93 143.93 0 0 1 5.687-12.375c-4.798-4.759-4.394-12.063-.531-19.406 2.731 3.353 4.851 6.985 5.219 11.03A146.565 146.565 0 0 1 283 163.242c-1.435-8.369 5.383-13.317 13.375-15zM503.625 148.24c-.645 8.162 3.863 15.823 11.031 16.845a143.245 143.245 0 0 1 6.782 10.218c-3.746-1.778-8.032-1.789-12.375-1.062 4.429 6.93 10.521 10.884 16.968 9.187a140.825 140.825 0 0 1 5.594 12.188c-3.418-2.367-7.68-3.056-12.094-3.031 3.267 7.55 8.676 12.43 15.313 11.78a141.076 141.076 0 0 1 3.562 12.938c-2.998-2.893-7.067-4.224-11.437-4.906 2.02 7.974 6.565 13.643 13.218 14.063.697 4.42 1.162 8.867 1.438 13.312-2.498-3.313-6.31-5.29-10.5-6.656.722 8.19 4.286 14.52 10.781 16a142.854 142.854 0 0 1-.687 13.312c-1.942-3.645-5.378-6.179-9.282-8.187-.592 8.183 1.914 14.99 8.063 17.5a142.996 142.996 0 0 1-2.75 13.031c-1.334-3.914-4.339-6.955-7.875-9.562-1.894 8-.512 15.143 5.188 18.593a141.585 141.585 0 0 1-4.813 12.469c-.677-4.104-3.19-7.595-6.281-10.75-3.147 7.598-2.892 14.841 2.187 19.156a140.794 140.794 0 0 1-6.781 11.563c-.014-4.16-1.89-8.017-4.438-11.625-4.322 7.005-5.246 14.21-.906 19.281a140.557 140.557 0 0 1-8.562 10.313c.65-4.108-.56-8.22-2.5-12.188-5.373 6.212-7.443 13.184-4 18.875a143.021 143.021 0 0 1-12.625 10.813c-13.213 10.036-25.768 16.63-41.531 21.812l.937 2.844c16.033-5.27 28.967-12.073 42.406-22.281a146.089 146.089 0 0 0 12.938-11.094c5.93 3.244 12.842.765 18.781-5.031-4.003-1.667-8.102-2.656-12.094-1.844a144.14 144.14 0 0 0 8.688-10.5c6.362 2.238 12.787-1.308 17.718-7.969-4.209-1.005-8.413-1.334-12.218.094a143.927 143.927 0 0 0 6.875-11.75c6.64 1.198 12.412-3.323 16.218-10.688-4.328-.321-8.527.061-12.062 2.094 1.842-4.173 3.47-8.44 4.906-12.75 6.764.141 11.757-5.235 14.344-13.125-4.336.374-8.456 1.383-11.625 3.969 1.15-4.401 2.11-8.86 2.844-13.344 6.7-.94 10.767-7.048 12.062-15.25-4.23 1.064-8.127 2.741-10.843 5.813.441-4.537.672-9.092.687-13.657 6.465-1.995 9.499-8.696 9.469-17-3.99 1.718-7.556 3.995-9.75 7.438-.285-4.54-.786-9.08-1.5-13.594 6.054-3.005 7.978-10.063 6.625-18.25-3.653 2.325-6.816 5.114-8.438 8.844a144.232 144.232 0 0 0-3.656-13.125c5.496-3.933 6.267-11.228 3.625-19.094-3.239 2.88-5.934 6.148-6.938 10.094a143.93 143.93 0 0 0-5.687-12.375c4.798-4.759 4.394-12.063.531-19.406-2.731 3.353-4.851 6.985-5.218 11.03A146.565 146.565 0 0 0 517 163.242c1.434-8.369-5.383-13.317-13.375-15z" fill="#2c7008" stroke-width="3" stroke-linejoin="round"/><path d="M537.128 398.392c-28.453 26.067-58.842 41.549-96.656 49.242l-6.632-32.595 48.046-18.975c16.361 2.315 35.957 2.83 55.242 2.328zM262.872 398.392c28.453 26.067 58.842 41.549 96.656 49.242l6.632-32.595-48.046-18.975c-16.361 2.315-35.957 2.83-55.242 2.328z" fill="#560001" stroke-width=".762" stroke-linecap="round" stroke-linejoin="round"/><path d="M400 125.96c-67.76 0-122.75 54.99-122.75 122.75 0 49.504 29.355 92.183 71.594 111.593l-25.563 55.719c25.279 11.592 48.91 16.75 76.719 16.75 27.81 0 51.44-5.158 76.719-16.75l-25.563-55.719c42.24-19.41 71.594-62.09 71.594-111.593 0-67.76-54.99-122.75-122.75-122.75z" fill="#fff" stroke-width=".76" stroke-linecap="round" stroke-linejoin="round"/><path d="M517.67 248.71a117.67 117.67 0 1 1-235.34 0 117.67 117.67 0 1 1 235.34 0z" fill="#560001" stroke-width=".762" stroke-linecap="round" stroke-linejoin="round"/><path d="M400 146.18a68.432 68.432 0 0 0-6.005.21l1.922 32.875c-1.574.092-3.14.256-4.684.45l-4.143-32.695c-1.993.205-3.952.523-5.915.9a110.48 110.48 0 0 0-5.884 1.322l7.956 31.945a69.013 69.013 0 0 0-4.564 1.29l-10.058-31.344c-1.92.568-3.814 1.25-5.674 1.982-1.86.732-3.706 1.508-5.524 2.342l13.69 29.963a69.442 69.442 0 0 0-4.203 2.102l-15.672-28.973c-1.784.91-3.53 1.911-5.224 2.972-1.693 1.062-3.35 2.21-4.984 3.363l18.945 26.931a70.148 70.148 0 0 0-3.753 2.822l-20.716-25.58a68.44 68.44 0 0 0-4.594 3.873c-1.47 1.355-2.9 2.77-4.293 4.204l23.598 23.028a69.937 69.937 0 0 0-3.182 3.452l-25.07-21.346a68.194 68.194 0 0 0-3.783 4.653 109.883 109.883 0 0 0-3.453 4.924l27.412 18.284a69.757 69.757 0 0 0-2.492 3.994L311.07 197.73c-1.037 1.713-1.97 3.49-2.852 5.284-.88 1.794-1.71 3.623-2.492 5.464l30.294 12.91a69.04 69.04 0 0 0-1.711 4.384l-31.075-10.839a68.27 68.27 0 0 0-1.861 5.705 110.4 110.4 0 0 0-1.441 5.854l32.155 7.146c-.335 1.516-.666 3.042-.9 4.593l-32.516-4.954c-.349 1.973-.577 3.984-.75 5.975-.174 1.991-.297 4.005-.361 6.005l32.936 1.11c-.026.781-.06 1.556-.06 2.343 0 .786.034 1.561.06 2.341l-32.936 1.111c.064 2 .187 4.014.36 6.005.174 1.99.402 4.002.75 5.975l32.516-4.954c.235 1.552.566 3.077.9 4.593l-32.154 7.146c.43 1.953.905 3.93 1.44 5.854a68.268 68.268 0 0 0 1.862 5.705l31.075-10.839a69.04 69.04 0 0 0 1.711 4.384l-30.294 12.91c.782 1.841 1.611 3.67 2.492 5.464.881 1.794 1.815 3.57 2.852 5.284l28.583-16.392a69.757 69.757 0 0 0 2.492 3.993l-27.412 18.284a109.883 109.883 0 0 0 3.453 4.924 68.2 68.2 0 0 0 3.783 4.653l25.07-21.346a69.933 69.933 0 0 0 3.182 3.452l-23.598 23.029a109.685 109.685 0 0 0 4.293 4.203 68.44 68.44 0 0 0 4.594 3.873l20.716-25.58a70.148 70.148 0 0 0 3.753 2.822l-18.945 26.931c1.634 1.154 3.29 2.301 4.984 3.363a68.483 68.483 0 0 0 5.224 2.972l15.672-28.973a69.436 69.436 0 0 0 4.203 2.102l-13.69 29.963c1.818.834 3.665 1.61 5.524 2.342 1.86.732 3.753 1.414 5.674 1.982l10.058-31.345c1.5.483 3.022.91 4.564 1.291l-7.956 31.945c1.94.486 3.922.943 5.884 1.321 1.963.378 3.922.696 5.915.901l4.143-32.696c1.545.195 3.11.36 4.684.45l-1.922 32.877c1.997.164 4.007.22 6.005.21 1.998-.011 4.008-.09 6.005-.21l-1.922-32.876a69.958 69.958 0 0 0 4.684-.45l4.143 32.695c1.993-.205 3.952-.523 5.915-.9a110.48 110.48 0 0 0 5.884-1.322l-7.956-31.945a69.013 69.013 0 0 0 4.564-1.29l10.058 31.344c1.92-.568 3.814-1.25 5.674-1.982 1.86-.732 3.706-1.508 5.524-2.342L428.883 312a69.436 69.436 0 0 0 4.203-2.102l15.672 28.973c1.784-.91 3.53-1.91 5.224-2.972 1.693-1.062 3.35-2.21 4.984-3.363l-18.945-26.931a70.148 70.148 0 0 0 3.753-2.822l20.716 25.58a68.44 68.44 0 0 0 4.594-3.873c1.47-1.355 2.9-2.77 4.293-4.203l-23.598-23.029a69.928 69.928 0 0 0 3.182-3.452l25.07 21.346a68.2 68.2 0 0 0 3.783-4.653 109.883 109.883 0 0 0 3.453-4.924l-27.412-18.284a69.757 69.757 0 0 0 2.492-3.993l28.583 16.392c1.037-1.713 1.97-3.49 2.852-5.284.88-1.794 1.71-3.623 2.492-5.464l-30.294-12.91a69.04 69.04 0 0 0 1.711-4.384l31.075 10.839a68.268 68.268 0 0 0 1.861-5.705c.536-1.925 1.01-3.9 1.441-5.854l-32.155-7.146c.335-1.516.666-3.041.9-4.593l32.516 4.954c.349-1.973.577-3.984.75-5.975.174-1.99.297-4.005.361-6.005l-32.936-1.11c.026-.781.06-1.556.06-2.342 0-.787-.034-1.562-.06-2.342l32.936-1.111c-.064-2-.187-4.014-.36-6.005-.174-1.99-.402-4.002-.75-5.975l-32.516 4.954c-.235-1.551-.566-3.077-.9-4.593l32.154-7.146a110.4 110.4 0 0 0-1.44-5.854 68.27 68.27 0 0 0-1.862-5.705l-31.075 10.839a69.04 69.04 0 0 0-1.711-4.384l30.294-12.91a109.495 109.495 0 0 0-2.492-5.464c-.881-1.794-1.815-3.57-2.852-5.284l-28.583 16.393a69.757 69.757 0 0 0-2.492-3.994l27.412-18.284a109.883 109.883 0 0 0-3.453-4.924 68.194 68.194 0 0 0-3.783-4.653l-25.07 21.346a69.932 69.932 0 0 0-3.182-3.452l23.598-23.028a109.678 109.678 0 0 0-4.293-4.204 68.44 68.44 0 0 0-4.594-3.873l-20.716 25.58a70.148 70.148 0 0 0-3.753-2.822l18.945-26.931c-1.634-1.154-3.29-2.301-4.984-3.363a68.483 68.483 0 0 0-5.224-2.972l-15.672 28.973a69.442 69.442 0 0 0-4.203-2.102l13.69-29.963a109.36 109.36 0 0 0-5.524-2.342c-1.86-.732-3.753-1.414-5.674-1.982l-10.058 31.345c-1.5-.483-3.022-.91-4.564-1.291l7.956-31.945a110.48 110.48 0 0 0-5.884-1.321c-1.963-.378-3.922-.696-5.915-.9l-4.143 32.695a69.958 69.958 0 0 0-4.684-.45l1.922-32.876c-1.997-.121-4.007-.2-6.005-.21z" fill="#fbcb00" fill-rule="evenodd"/><path d="M400 195.96l11.844 36.447 38.324.002-31.004 22.527 11.842 36.45L400 268.86l-31.006 22.525 11.842-36.449-31.004-22.527 38.324-.002L400 195.96z" fill="gray" stroke="#000" stroke-width="2" stroke-linecap="round" stroke-linejoin="round"/><path d="M400 195.96v52.75l-11.844-16.303L400 195.96z" stroke-width=".762" stroke-linecap="round" stroke-linejoin="round"/><path d="M349.832 232.409l50.168 16.3-19.164 6.227-31.004-22.527zM368.994 291.385L400 248.71v20.15l-31.006 22.525zM431.006 291.385L400 248.71l19.164 6.226 11.842 36.45zM450.168 232.409L400 248.709l11.844-16.302 38.324.002z" stroke-width=".762" stroke-linecap="round" stroke-linejoin="round"/><path d="M234.726 164.583c3.578 1.742 5.928 4.346 7.048 7.813 1.12 3.468.837 7.283-.852 11.447-1.944 4.794-4.95 7.915-9.02 9.363-4.07 1.448-8.803 1.078-14.198-1.11-5.512-2.235-9.184-5.303-11.016-9.205-1.833-3.9-1.717-8.395.346-13.482 1.676-4.134 4.009-6.991 6.996-8.57 2.988-1.58 6.37-1.741 10.144-.484l-2.666 6.576c-1.945-.465-3.645-.284-5.099.544-1.454.827-2.6 2.274-3.438 4.342-1.189 2.932-1.147 5.544.126 7.835 1.273 2.292 3.727 4.175 7.363 5.65 3.519 1.426 6.546 1.77 9.082 1.032 2.535-.739 4.371-2.508 5.507-5.308.82-2.024.975-3.89.465-5.599-.51-1.71-1.656-3.147-3.437-4.313l2.649-6.531zm15.616-2.223l-29.885-18.13 3.73-6.147 29.884 18.13-3.729 6.147zm13.373-19.82l-22.27-18.124-6.545 8.043-4.84-3.94 17.585-21.607 4.84 3.94-6.5 7.987 22.27 18.125-4.54 5.577zm27.436-28l-5.472 4.664-8.452-9.913-23.887-8.449 6.7-5.712 15.464 6.617-4.521-15.947 6.248-5.327 5.467 24.153 8.453 9.914zm25.252-36.965c1.51 3.535 3.47 5.945 5.877 7.23 2.407 1.285 5.022 1.325 7.844.119 2.85-1.219 4.651-3.145 5.4-5.78.75-2.633.37-5.718-1.141-9.253-1.51-3.535-3.477-5.942-5.899-7.221s-5.058-1.31-7.91-.09c-2.822 1.205-4.602 3.119-5.34 5.74-.738 2.62-.348 5.705 1.169 9.255zm-6.743 2.882c-2.22-5.194-2.566-9.919-1.039-14.176s4.691-7.41 9.492-9.462c4.8-2.052 9.275-2.158 13.425-.318 4.15 1.84 7.33 5.348 9.544 10.527 2.213 5.179 2.55 9.904 1.012 14.174-1.538 4.27-4.708 7.431-9.508 9.483-4.801 2.051-9.269 2.154-13.404.308-4.135-1.845-7.309-5.358-9.522-10.536zm45.92.918l-6.795-34.288 23.929-4.742 1.18 5.959-16.968 3.363 1.54 7.775 14.875-2.948 1.18 5.959-14.874 2.948 2.893 14.594-6.96 1.38zm46.547-5.835L405 40.704l25.281 2.085-.499 6.054-18.21-1.501-.613 7.426 16.65 1.372-.492 5.96-16.649-1.373-.74 8.964 19.063 1.571-.53 6.433-26.134-2.155zm33.524 3.78l9.251-33.707 6.934 1.903-7.543 27.483 16.454 4.516-1.708 6.224-23.388-6.418zm59.419 3.04l5.933 3.624c1.606.981 2.982 1.354 4.128 1.118 1.145-.237 2.18-1.111 3.104-2.623.866-1.418 1.164-2.71.894-3.875-.27-1.167-1.114-2.183-2.532-3.049l-6.257-3.822-5.27 8.626zm-3.344 5.381l-6.482 10.611-6.136-3.748 18.223-29.829 13.263 8.104c3.132 1.913 5.008 4.176 5.628 6.788.619 2.613-.032 5.491-1.954 8.637-1.88 3.078-4.12 4.968-6.717 5.67-2.599.703-5.362.159-8.292-1.63l-7.533-4.603zm44.93 14.021l-13.682 7.592 7.104 6.613 6.577-14.205zm1.713-7.97l6.078 5.66-14.595 34.17-5.523-5.142 3.163-6.88-9.918-9.233-6.584 3.694-5.54-5.158 32.919-17.11zm2.784 36.785l4.124 5.774c-1.401 1.331-2.101 2.794-2.1 4.387 0 1.594.714 3.388 2.139 5.383 1.214 1.7 2.431 2.765 3.652 3.195 1.221.43 2.424.222 3.608-.624 1.725-1.232 1.384-4.73-1.023-10.496a4.585 4.585 0 0 1-.085-.201 22.933 22.933 0 0 1-.293-.695c-1.315-3.066-2.016-5.423-2.105-7.07a7.716 7.716 0 0 1 .956-4.154c.711-1.304 1.807-2.485 3.287-3.543 2.768-1.977 5.56-2.552 8.377-1.725 2.816.826 5.493 3.016 8.031 6.57 2.372 3.32 3.442 6.479 3.21 9.474-.233 2.994-1.742 5.564-4.526 7.708l-4.014-5.619c1.304-1.087 1.976-2.364 2.017-3.831.04-1.468-.57-3.084-1.829-4.847-1.094-1.532-2.237-2.5-3.429-2.902-1.192-.403-2.34-.21-3.448.582-1.506 1.076-1.479 3.496.083 7.26l.979 2.392c.953 2.45 1.591 4.215 1.916 5.295.324 1.08.536 2.071.636 2.972.183 1.619-.049 3.097-.697 4.435-.648 1.338-1.713 2.535-3.193 3.593-2.961 2.115-5.968 2.756-9.022 1.924-3.054-.833-5.877-3.064-8.47-6.694-2.556-3.579-3.73-6.978-3.523-10.199.208-3.22 1.789-6.001 4.742-8.344zm30.005 34.607c-3.536 1.509-5.947 3.466-7.234 5.873-1.286 2.407-1.327 5.021-.122 7.844 1.217 2.852 3.142 4.653 5.776 5.404 2.634.75 5.719.372 9.255-1.137 3.535-1.509 5.943-3.474 7.224-5.895 1.28-2.421 1.311-5.058.094-7.91-1.205-2.823-3.117-4.604-5.737-5.343-2.62-.74-5.706-.351-9.256 1.164zm-2.879-6.744c5.195-2.217 9.92-2.561 14.176-1.032 4.256 1.53 7.409 4.695 9.458 9.496 2.05 4.802 2.153 9.277.312 13.425-1.842 4.15-5.353 7.329-10.533 9.54-5.18 2.21-9.904 2.545-14.174 1.004-4.27-1.54-7.429-4.711-9.478-9.513-2.05-4.801-2.15-9.27-.302-13.403 1.848-4.134 5.361-7.307 10.541-9.517z" style="text-align:center;line-height:125%;-inkscape-font-specification:Swis721 BT Bold" font-size="48.599" font-weight="700" text-anchor="middle" font-family="Swis721 BT"/><path d="M348.07 375.6l1.747-5.378 17.653 5.736-1.747 5.379-5.97-1.94-10.343 31.832-5.739-1.865 10.343-31.832-5.944-1.931zm16.491 39.707l6.572-38.57 15.497 2.641-.95 5.575-9.55-1.627-1.721 10.11 6.881 1.172-.95 5.574-6.881-1.172-1.964 11.523 9.55 1.627-.987 5.788-15.497-2.64zm23.563 3.512l7.319-19.824-6.865-19.3 6.25.056 3.578 11.559.27.002 3.971-11.492 6.17.054-6.984 18.663 7.233 20.467-6.304-.056-3.838-12.779-.216-.001-4.388 12.706-6.196-.055zm27.69-.318l.336-39.65 7.78-1.213 12.362 37.67-6.122.955-2.508-8.18-6.015.937.021 8.568-5.855.913zm5.727-15.078l4.545-.709-4.549-15.83-.374.057.378 16.482zm19.628.457l5.197-2.637c.728 1.85 1.55 3.121 2.464 3.815.914.695 1.97.843 3.17.445 1.044-.346 1.782-.957 2.214-1.832.432-.875.469-1.852.11-2.93-.641-1.935-3.012-3.923-7.11-5.965l-.718-.36c-4.013-2.014-6.716-3.688-8.11-5.022a11.435 11.435 0 0 1-2.992-4.723c-.869-2.62-.74-5.109.387-7.469 1.127-2.36 2.932-3.952 5.414-4.775 2.414-.801 4.666-.631 6.755.51 2.089 1.14 3.713 3.086 4.873 5.837l-5.334 2.654c-.654-1.627-1.344-2.719-2.07-3.276-.727-.557-1.595-.668-2.605-.333-.925.307-1.562.865-1.91 1.675-.35.81-.351 1.736-.005 2.78.716 2.158 3.448 4.378 8.197 6.66l.444.223c3.49 1.693 5.914 3.217 7.276 4.57 1.361 1.355 2.377 3.042 3.047 5.062.898 2.705.796 5.205-.305 7.5-1.101 2.294-2.936 3.867-5.504 4.719-2.842.943-5.399.784-7.67-.477-2.272-1.26-4.01-3.478-5.215-6.651z" style="text-align:center;line-height:125%;-inkscape-font-specification:AlternateGothic2 BT" font-size="55.414" font-weight="400" text-anchor="middle" font-family="AlternateGothic2 BT"/></svg>