<svg xmlns="http://www.w3.org/2000/svg" width="800" height="533.33" version="1" xmlns:cgf="https://coding.garden/flags"><metadata id="cgf-metadata">

<cgf:flag>
  <cgf:name>Houston</cgf:name>
  <cgf:route>us/tx/houston</cgf:route>
  <cgf:aspect-ratio>1.5009380863039399</cgf:aspect-ratio>
</cgf:flag>

</metadata><path d="M0 .002h800V533.33H0V.002z" fill="#069"></path><path d="m400 10.124 63.684 195.973 206.06.008L503.042 327.23l63.67 195.978L400 402.095 233.289 523.208l63.669-195.978-166.702-121.125 206.06-.008L400 10.124z" fill="#fff"></path><path d="M482.166 293.75a82.166 82.166 0 1 1-164.332 0 82.166 82.166 0 1 1 164.332 0z" fill="#fff"></path><g stroke="#000"><g stroke-width="1.377"><path d="m386.724 324.91 1.912-4.985 1.276 1.044-2.087 5.042-1.101-1.101z" fill-rule="evenodd"></path><path d="M370.324 312.47c-1.978.934-1.54 2.536-.376 2.76 2.24.634 4.619-.403 6.863-.843 4.772-.905 9.791 4.212 14.531 8.549.215-.401.619-.59.833-.991-4.355-4.462-7.375-7.593-11.932-9.205-3.337-1.18-7.942-1.202-9.92-.27z" fill-rule="evenodd"></path><path d="m369.89 318.692 3.207-4.867c.523-.793 1.777-.03 1.312.696l-3.044 4.744-1.475-.573zm19.848 4.015.985 3.304 3.71-.985-.348-3.188-4.347.87z" fill-rule="evenodd"></path><path d="M366.379 318.022c-2.137.899-1.664 2.441-.406 2.657 2.421.61 4.993-.389 7.42-.812 5.157-.871 10.583 4.055 15.707 8.23.232-.386.669-.567.9-.953-4.707-4.296-7.972-7.31-12.898-8.863-3.607-1.136-8.586-1.157-10.723-.259zm3.551.383zm27.575 6.795 1.507-3.42 1.97.058-1.912 3.768-1.855-.348m-8.225 5.812c-.097 0-.104.071-.124.081-.068.034-.2.164-.266.164h-.349c-.17 0-.347-.02-.512-.02h-.922c-.113 0-.395.048-.492 0-.06-.03-.297-.109-.328-.185-.034-.086-.152-.28-.266-.348-.126-.076-.239-.058-.37-.123-.17-.085-.44-.041-.634-.041-.138 0-.404-.013-.472.123-.058.117-.17.082-.307.082-.2 0-.327-.066-.512-.103-.18-.036-.347-.143-.513-.184a1.157 1.157 0 0 0-.307-.041c-.104 0-.186-.02-.307-.02-.152 0-.189-.073-.308-.103-.106-.027-.17-.061-.307-.061h-1.004c-.125 0-.205 0-.287.061-.063.047-.22.205-.308.205-.095 0-.19.02-.307.02a6.303 6.303 0 0 1-.902-.04c-.131 0-.175-.042-.307-.042h-1.373c-.119 0-.275-.028-.39 0-.126.032-.277.103-.41.103-.154 0-.315.102-.47.102-.276-.02-.51.076-.738.185-.072.074-.041.475-.041.574v.532c.049.266.211.496.327.738.086.114.107.263.287.308.2.05.472.32.656.43.207.094.378.247.553.39.196.202.378.413.513.655.023.116.248.221.328.328.204.282.496.463.778.656.12.09.21.123.37.123.15 0 .314.02.47.02.329-.028.656-.014.984 0 .175 0 .345.062.533.062.34.054.647.22.943.389.16.08.29.123.471.123.316-.046.604-.08.922-.041.154.038.343-.017.492.02.329.11.556.276.779.533.267.214.594.251.922.287h.881c.133 0 .255.035.348.082.112.056.289.155.41.246.058.044.314.041.39.041.265.022.375-.012.737-.123.09-.045.364.213.43.246.101.05.141.14.206.205.05.05.315.047.39.061.622.098 1.256.062 1.884.062.137 0 .287-.01.41.02.157.284.323.42.615.554.209.083.454.184.676.184.283.052.544.039.82-.02.262-.03.413-.198.594-.37a1.94 1.94 0 0 1 .513-.266c.211-.068.424-.135.635-.205.171-.1.363-.07.553-.061.912.64 1.387-.105 2.336-.185.35.014.663.173 1.005.246.44.196.864-.051 1.311-.082.304.018.505.129.656.37.082.272.226.314.492.348.39.059.64-.03.922-.287.279-.175.495-.214.799-.144.2.104.396.132.615.144.308.037.503-.064.738-.246.484-.457.886-.298 1.414.04.116.06.333-.016.43-.04.403-.14.78-.142 1.168 0 .15.112.307.102.492.102.173 0 .334-.001.492-.04a.931.931 0 0 0 .369-.185c.123-.093.275-.179.41-.246.147-.194.3-.178.532-.164.147-.037.358 0 .513 0 .118 0 .204.082.307.123.279.003.472-.174.758-.205.303.082.583.068.881 0 .255-.181.504-.361.78-.512.274-.16.593-.13.9-.144h.452c.278-.056.505-.228.778-.307h.349c.506-.03.867-.42 1.27-.697.143-.083.31-.085.472-.102a.493.493 0 0 0 .327-.226c.121-.11.188-.251.267-.39.069-.137-.017-.213.164-.122.11.183.277.294.45.41.057.056.044.175.062.246.039.154.032.154.144.266.031.032.276 0 .327 0 .27-.005.477-.17.697-.307.112-.056.266-.205.349-.287.12-.121.322-.217.47-.328.13-.138.282-.252.431-.369.198-.18.399-.274.656-.328.272-.14.494-.297.8-.348.199 0 .226-.083.348-.205.162-.239.366-.42.594-.594.21-.228.445-.325.738-.39.161-.032.253-.11.369-.225.118-.118.038-.167-.021-.226-.072-.072-.119-.09-.225-.143-.188-.07-.37-.103-.554-.184-.08-.04-.102-.103-.184-.144-.21-.1-.265-.226-.328-.43v-.39c0-.098.004-.22.02-.287-.199-.11-.567-.11-.84-.163a2.608 2.608 0 0 0-.615-.246c-.107 0-.233-.02-.348-.02-.424-.048-.826-.173-1.25-.288-.108 0-.237-.039-.328-.061-.15-.038-.357 0-.512 0-.177 0-.332.002-.492.082-.204.102-.53.181-.676.328-.271.245-.608.388-.943.512a2.47 2.47 0 0 1-.471.04c-.149 0-.178-.037-.267-.081-.124-.062-.234-.16-.348-.205a2.213 2.213 0 0 0-.328-.102c-.54-.153-1.09-.141-1.64-.062-.105.026-.239.048-.348.103-.43.204-.815.49-1.27.635-.127 0-.235.053-.349.082-.12.03-.244.02-.368.02h-.39c-.15 0-.28-.008-.41-.04-.513-.216-1.028-.388-1.578-.472-.158-.032-.382-.02-.553-.02-.131 0-.265-.011-.39.02-.121.03-.189.033-.286.082-.515.292-.959.716-1.517.922a3.249 3.249 0 0 1-.655.082c-.311 0-.591-.013-.882-.061-4.498-.923-9.659-.258-14.18-.554-.234-.046-.585-.123-.78-.123h-.86c-.23 0-.868.12-.656.205z" fill-rule="evenodd"></path><path d="M390.793 325.331c-4.297 2.48-1.987 4.599.491 5.78l6.025 2.868 10-1.475c-1.525-1.234-3.1-2.439-4.303-3.976-2.257-2.885-4.226-4.107-6.27-4.14-2.223-.034-4.48.099-5.943.943zm-3.361-1.762c-.568-.205.712-3.935 1.721-3.935 11.35-1.08 22.612-1.176 33.854-1.065-.44 1.175-.427 2.35-.328 3.524-11.687-.552-23.45.177-35.247 1.476z" fill-rule="evenodd"></path><path d="M425.382 320.663c-1.354 0-2.453 1.742-2.453 3.887 0 2.146 1.1 3.888 2.453 3.888 1.354 0 2.453-1.742 2.453-3.888 0-2.145-1.099-3.887-2.453-3.887zm.165 1.55c.683 0 1.241 1.03 1.241 2.301 0 1.272-.558 2.303-1.24 2.303-.684 0-1.234-1.031-1.234-2.303 0-1.27.55-2.302 1.233-2.302z"></path><path d="M423.646 318.563c-.416.715-.418 1.43-.377 2.145 1.104-.145 2.51-.988 2.956.029.238.543.843 1.442-2.145 2.521.006.571-.093 1.216.29 1.333 2.412-1.076 3.417-1.263 3.797-2.956.16-.715.158-1.973-1.42-2.898-.777-.455-2.033-.275-3.101-.174z" fill-rule="evenodd"></path></g><path d="m386.724 324.91 1.912-4.985 1.276 1.044-2.087 5.042-1.101-1.101z" fill-rule="evenodd" stroke-width=".23"></path><path d="M370.324 312.47c-1.978.934-1.54 2.536-.376 2.76 2.24.634 4.619-.403 6.863-.843 4.772-.905 9.791 4.212 14.531 8.549.215-.401.619-.59.833-.991-4.355-4.462-7.375-7.593-11.932-9.205-3.337-1.18-7.942-1.202-9.92-.27z" fill="#fff" fill-rule="evenodd" stroke-width=".23"></path><path d="m369.89 318.692 3.207-4.867c.523-.793 1.777-.03 1.312.696l-3.044 4.744-1.475-.573z" fill="#fff" fill-rule="evenodd" stroke-width=".5"></path><path d="m389.738 322.707.985 3.304 3.71-.985-.348-3.188-4.347.87z" fill-rule="evenodd" stroke-width=".23"></path><path d="M366.379 318.022c-2.137.899-1.664 2.441-.406 2.657 2.421.61 4.993-.389 7.42-.812 5.157-.871 10.583 4.055 15.707 8.23.232-.386.669-.567.9-.953-4.707-4.296-7.972-7.31-12.898-8.863-3.607-1.136-8.586-1.157-10.723-.259zm3.551.383zm27.575 6.795 1.507-3.42 1.97.058-1.912 3.768-1.855-.348" fill="#fff" fill-rule="evenodd" stroke-width=".23"></path><path d="M388.99 331.07c-.097 0-.104.071-.124.081-.068.034-.2.164-.266.164h-.349c-.17 0-.347-.02-.512-.02h-.922c-.113 0-.395.048-.492 0-.06-.03-.297-.109-.328-.185-.034-.086-.152-.28-.266-.348-.126-.076-.239-.058-.37-.123-.17-.085-.44-.041-.634-.041-.138 0-.404-.013-.472.123-.058.117-.17.082-.307.082-.2 0-.327-.066-.512-.103-.18-.036-.347-.143-.513-.184a1.157 1.157 0 0 0-.307-.041c-.104 0-.186-.02-.307-.02-.152 0-.189-.073-.308-.103-.106-.027-.17-.061-.307-.061h-1.004c-.125 0-.205 0-.287.061-.063.047-.22.205-.308.205-.095 0-.19.02-.307.02a6.303 6.303 0 0 1-.902-.04c-.131 0-.175-.042-.307-.042h-1.373c-.119 0-.275-.028-.39 0-.126.032-.277.103-.41.103-.154 0-.315.102-.47.102-.276-.02-.51.076-.738.185-.072.074-.041.475-.041.574v.532c.049.266.211.496.327.738.086.114.107.263.287.308.2.05.472.32.656.43.207.094.378.247.553.39.196.202.378.413.513.655.023.116.248.221.328.328.204.282.496.463.778.656.12.09.21.123.37.123.15 0 .314.02.47.02.329-.028.656-.014.984 0 .175 0 .345.062.533.062.34.054.647.22.943.389.16.08.29.123.471.123.316-.046.604-.08.922-.041.154.038.343-.017.492.02.329.11.556.276.779.533.267.214.594.251.922.287h.881c.133 0 .255.035.348.082.112.056.289.155.41.246.058.044.314.041.39.041.265.022.375-.012.737-.123.09-.045.364.213.43.246.101.05.141.14.206.205.05.05.315.047.39.061.622.098 1.256.062 1.884.062.137 0 .287-.01.41.02.157.284.323.42.615.554.209.083.454.184.676.184.283.052.544.039.82-.02.262-.03.413-.198.594-.37a1.94 1.94 0 0 1 .513-.266c.211-.068.424-.135.635-.205.171-.1.363-.07.553-.061.912.64 1.387-.105 2.336-.185.35.014.663.173 1.005.246.44.196.864-.051 1.311-.082.304.018.505.129.656.37.082.272.226.314.492.348.39.059.64-.03.922-.287.279-.175.495-.214.799-.144.2.104.396.132.615.144.308.037.503-.064.738-.246.484-.457.886-.298 1.414.04.116.06.333-.016.43-.04.403-.14.78-.142 1.168 0 .15.112.307.102.492.102.173 0 .334-.001.492-.04a.931.931 0 0 0 .369-.185c.123-.093.275-.179.41-.246.147-.194.3-.178.532-.164.147-.037.358 0 .513 0 .118 0 .204.082.307.123.279.003.472-.174.758-.205.303.082.583.068.881 0 .255-.181.504-.361.78-.512.274-.16.593-.13.9-.144h.452c.278-.056.505-.228.778-.307h.349c.506-.03.867-.42 1.27-.697.143-.083.31-.085.472-.102a.493.493 0 0 0 .327-.226c.121-.11.188-.251.267-.39.069-.137-.017-.213.164-.122.11.183.277.294.45.41.057.056.044.175.062.246.039.154.032.154.144.266.031.032.276 0 .327 0 .27-.005.477-.17.697-.307.112-.056.266-.205.349-.287.12-.121.322-.217.47-.328.13-.138.282-.252.431-.369.198-.18.399-.274.656-.328.272-.14.494-.297.8-.348.199 0 .226-.083.348-.205.162-.239.366-.42.594-.594.21-.228.445-.325.738-.39.161-.032.253-.11.369-.225.118-.118.038-.167-.021-.226-.072-.072-.119-.09-.225-.143-.188-.07-.37-.103-.554-.184-.08-.04-.102-.103-.184-.144-.21-.1-.265-.226-.328-.43v-.39c0-.098.004-.22.02-.287-.199-.11-.567-.11-.84-.163a2.608 2.608 0 0 0-.615-.246c-.107 0-.233-.02-.348-.02-.424-.048-.826-.173-1.25-.288-.108 0-.237-.039-.328-.061-.15-.038-.357 0-.512 0-.177 0-.332.002-.492.082-.204.102-.53.181-.676.328-.271.245-.608.388-.943.512a2.47 2.47 0 0 1-.471.04c-.149 0-.178-.037-.267-.081-.124-.062-.234-.16-.348-.205a2.213 2.213 0 0 0-.328-.102c-.54-.153-1.09-.141-1.64-.062-.105.026-.239.048-.348.103-.43.204-.815.49-1.27.635-.127 0-.235.053-.349.082-.12.03-.244.02-.368.02h-.39c-.15 0-.28-.008-.41-.04-.513-.216-1.028-.388-1.578-.472-.158-.032-.382-.02-.553-.02-.131 0-.265-.011-.39.02-.121.03-.189.033-.286.082-.515.292-.959.716-1.517.922a3.249 3.249 0 0 1-.655.082c-.311 0-.591-.013-.882-.061-4.498-.923-9.659-.258-14.18-.554-.234-.046-.585-.123-.78-.123h-.86c-.23 0-.868.12-.656.205z" fill-rule="evenodd" stroke-width=".23"></path><path d="M390.793 325.331c-4.297 2.48-1.987 4.599.491 5.78l6.025 2.868 10-1.475c-1.525-1.234-3.1-2.439-4.303-3.976-2.257-2.885-4.226-4.107-6.27-4.14-2.223-.034-4.48.099-5.943.943zm-3.361-1.762c-.568-.205.712-3.935 1.721-3.935 11.35-1.08 22.612-1.176 33.854-1.065-.44 1.175-.427 2.35-.328 3.524-11.687-.552-23.45.177-35.247 1.476z" fill="#fff" fill-rule="evenodd" stroke-width=".5"></path><path d="M425.382 320.663c-1.354 0-2.453 1.742-2.453 3.887 0 2.146 1.1 3.888 2.453 3.888 1.354 0 2.453-1.742 2.453-3.888 0-2.145-1.099-3.887-2.453-3.887zm.165 1.55c.683 0 1.241 1.03 1.241 2.301 0 1.272-.558 2.303-1.24 2.303-.684 0-1.234-1.031-1.234-2.303 0-1.27.55-2.302 1.233-2.302z" fill="#fff" stroke-width=".23"></path><path d="M423.646 318.563c-.416.715-.418 1.43-.377 2.145 1.104-.145 2.51-.988 2.956.029.238.543.582 1.24-1.014 2.028.005.572.022 1.13.405 1.247 1.021-.526 2.171-.684 2.55-2.377.161-.715.16-1.973-1.42-2.898-.776-.455-2.032-.275-3.1-.174z" fill="#fff" fill-rule="evenodd" stroke-width=".5"></path><path d="M398.49 334.56c-.096.038-.218.055-.271.156-.081.139-.193.276-.192.445-.021.153.033.338.185.404.147.068.32.043.466-.011.155-.072.27-.202.412-.295.11-.099.111-.261.099-.398a.288.288 0 0 0-.14-.227c-.133-.093-.302-.157-.465-.123a.204.204 0 0 0-.094.05zm2.48.225c.005-.413.928-.796 1.552-.73.447.047.855-.07 1.235-.33.522-.357 1.221.052 1.8-.183.495-.2.982.016 1.46.123.579.129.942-.4 1.468-.521.576-.133 1.202-.312 1.76-.04.562.273 1.217.365 1.707.768.461.38-.07 1.057-.562 1.099-.565.047-1.142.055-1.696-.088-.61-.158-1.217-.346-1.857-.327-.749.023-1.508-.01-2.243.142-.662.136-1.341.162-1.994.363-.834.256-2.634.2-2.63-.276zm-23.375-1.413c-.28.17-.792.036-1.18-.032-.197-.041-.41-.146-.472-.352a2.113 2.113 0 0 0-.229-.45.757.757 0 0 1 .04-.561c.116-.162.286-.275.453-.376.42-.17.884-.12 1.326-.11.22.006.441-.018.656.04.14.035.285.08.4.168.11.147.033.337.022.501-.066.364-.325.662-.622.866-.166.036-.257.224-.394.306zm.145.058c.27-.364.709-.542 1.126-.682.221-.088.264-.376.485-.463a.584.584 0 0 1 .6.058c.149.236.057.522.076.781a.572.572 0 0 1-.35.507c-.243.167-.41.456-.717.519-.302.066-.614.054-.922.056-.28-.057-.507-.35-.457-.637.025-.068.083-.13.159-.139zm1.68.812c.323-.39.853-.528 1.167-.926.12-.203-.032-.474.133-.66.193-.167.467-.132.701-.11.26.043.532.162.67.395.127.331-.05.704-.314.913a5.25 5.25 0 0 0-.564.59c-.15.157-.282.331-.444.474-.343.204-.795.107-1.094-.132-.16-.129-.294-.33-.255-.544zm3.304 1.188c.186-.062.395-.154.467-.352.07-.456-.016-.941.178-1.374a1.17 1.17 0 0 0-.002-.558c-.101-.164-.327-.166-.493-.119-.15.058-.321.035-.468.096-.172.103-.21.324-.201.509 0 .155-.095.284-.204.385-.166.156-.33.313-.495.47-.135.124-.099.322-.09.485-.003.103 0 .217.096.28.112.093.263.099.401.098a.885.885 0 0 1 .35.142c.158.024.304-.07.461-.062zm.986-.029c.108-.1.015-.246-.01-.362a1.067 1.067 0 0 1 .15-.734c.17-.192.448-.196.685-.203.299-.01.598-.056.88-.159.15-.038.346.032.378.198.056.205.02.424.085.628.043.273-.059.593-.316.727-.235.11-.488.177-.723.287-.2.087-.424.209-.647.127-.19-.067-.331-.22-.457-.37a.162.162 0 0 1-.025-.139zm2.318.145c.378-.335.656-.81 1.146-1 .5-.202 1.059-.25 1.526-.534.186-.07.43-.259.612-.084.108.174.025.387.008.575-.042.338-.2.696-.524.848-.202.085-.426.131-.595.28a5.61 5.61 0 0 0-.695.774c-.216.193-.523.104-.784.124-.205.007-.46.026-.598-.16-.111-.164-.217-.333-.35-.48-.1-.176.09-.33.254-.343zm5.457-.732c-.35.027-.704-.006-1.054.007-.26.015-.416.245-.581.416-.16.208-.43.277-.674.323-.337.052-.692.285-.74.646.033.197.058.423.23.552.718.007 1.09.135 1.808.136.195-.026.768-.062.932-.208.107-.25.087-.529.158-.789.1-.248.299-.482.251-.767a.335.335 0 0 0-.33-.316zm.977.646c.318-.377.82-.62 1.317-.551.275.082.42.353.648.508.149.127.13.347.077.516-.07.28-.26.54-.526.66-.399.097-.826-.04-1.135-.298-.099-.077-.225-.135-.352-.103-.142.01-.284-.116-.244-.263.02-.175.13-.32.215-.47zm.956 1.303c.163.149.155.385.176.587.03.262.118.523.082.79-.05.113-.193.107-.298.108-.315.016-.625-.055-.933-.11-.181-.01-.392-.06-.483-.235-.132-.222-.09-.501.006-.729a.888.888 0 0 1 .403-.415c.11-.092.223-.22.38-.208.24.006.44.159.667.212zm-11.099-4.521c.182-.051.365.027.549.025.178.013.377.013.529-.096.134-.128.152-.33.139-.505a.807.807 0 0 0-.308-.516c-.09-.095-.204-.194-.344-.183-.112-.002-.223-.014-.334-.015-.135.011-.27.105-.294.245-.052.184-.01.376-.025.563.026.115-.05.221-.041.334a.265.265 0 0 0 .129.148zm1.478.638c.107-.041.116-.171.176-.254.075-.15.265-.212.421-.169.3.02.599.035.898.059.113.035.154.175.127.28-.016.194.047.407-.066.582a.504.504 0 0 1-.512.226c-.307-.023-.625.047-.921-.058-.178-.062-.252-.276-.218-.449a.507.507 0 0 1 .095-.217zm2.231.753c-.004-.142.13-.223.215-.316.156-.175.407-.228.633-.208a2.56 2.56 0 0 1 .703.083c.132.112.121.303.102.459-.042.29-.234.545-.48.696-.156.066-.33.072-.496.072a.635.635 0 0 1-.309-.148c-.208-.12-.463-.184-.614-.385-.058-.11.06-.232.17-.232a.167.167 0 0 0 .076-.02zm1.043-1.188c-.025-.117.068-.21.13-.298.095-.137.216-.292.396-.307.201-.02.401.022.601.03.13.037.182.188.173.312.007.182.012.365-.008.546-.058.19-.266.295-.454.287-.237-.003-.489-.045-.675-.203a.615.615 0 0 1-.176-.208c-.013-.053.002-.107.013-.159z" fill="#fff" fill-rule="evenodd" stroke-width=".23"></path></g><g stroke="#000" stroke-width="1.377"><path d="M357.473 308.267a.804.804 0 1 0 .08 1.606h83.2a.803.803 0 1 0 0-1.606h-83.2a.803.803 0 0 0-.08 0z" fill-rule="evenodd" stroke-linecap="round"></path><path d="M357.473 307.229a.804.804 0 1 0 .08 1.606h83.2a.803.803 0 1 0 0-1.606h-83.2a.803.803 0 0 0-.08 0z" fill="#fff" fill-rule="evenodd" stroke-linecap="round"></path><path d="M416.577 279.833v-12.541c0-2.037 1.273-2.941 3.114-2.941h19.807c.903 0 1.47.514 1.47 2.162v13.925l-23.699 5.709-.692-6.314z" fill="#fff" fill-rule="evenodd"></path><path d="M364.594 284.278c.054-2.36.753-4.445 3.814-5.518h48.212c1.373.898 2.896 2.436 2.758 5.275l-54.784.243z" fill="#fff" fill-rule="evenodd"></path><path d="M368.22 291.914h-12.17l-3.793 5.443 5.321 5.32h21.59l4.892-6.176h10.214l16.023 1.712h6.116l.367-5.626-48.56-.673z" fill-rule="evenodd"></path><path d="M364.316 284.518v6.77l2.238 3.673h30.239l13.656 1.262h4.82l15.78 2.64h9.123v-31.789h-19.91v17.214l-55.946.23z" fill="#fff" fill-rule="evenodd"></path><path d="M402.38 289.785c-5.12 0-9.274 4.155-9.274 9.274 0 5.12 4.155 9.274 9.274 9.274 5.12 0 9.274-4.154 9.274-9.274 0-5.119-4.155-9.274-9.274-9.274zm0 2.088a7.19 7.19 0 0 1 7.187 7.186 7.19 7.19 0 0 1-7.187 7.187 7.19 7.19 0 0 1-7.187-7.187 7.19 7.19 0 0 1 7.187-7.186zm20.456-2.088c-5.12 0-9.274 4.155-9.274 9.274 0 5.12 4.155 9.274 9.274 9.274 5.12 0 9.274-4.154 9.274-9.274 0-5.119-4.155-9.274-9.274-9.274zm0 2.088a7.19 7.19 0 0 1 7.187 7.186 7.19 7.19 0 0 1-7.187 7.187 7.19 7.19 0 0 1-7.187-7.187 7.19 7.19 0 0 1 7.187-7.186z" fill="#fff"></path><path d="M379.522 294.247a7.047 7.047 0 0 0-7.044 7.043 7.047 7.047 0 0 0 7.044 7.043 7.047 7.047 0 0 0 7.043-7.043 7.047 7.047 0 0 0-7.043-7.043zm0 1.972a5.071 5.071 0 1 1 0 10.14 5.071 5.071 0 0 1-.001-10.139zm-15.329-1.972a7.047 7.047 0 0 0-7.043 7.043 7.047 7.047 0 0 0 7.043 7.043 7.047 7.047 0 0 0 7.043-7.043 7.047 7.047 0 0 0-7.043-7.043zm0 1.972a5.071 5.071 0 1 1 0 10.14 5.071 5.071 0 0 1-.001-10.139z" fill="#fff" stroke-linecap="round"></path><path d="M419.458 266.31v17.293h-54.97c-.962-.02-.97 1.356 0 1.377h56.347v-4.555h18.297v17.71h-2.718c-.476-7.074-6.38-12.689-13.57-12.689-4.083 0-7.74 1.82-10.236 4.677-2.494-2.855-6.146-4.677-10.228-4.677-4.31 0-8.156 2.019-10.65 5.157h-29.408a.91.91 0 0 0-.803.452.93.93 0 0 0 0 .932.91.91 0 0 0 .803.452h30.318a11.75 11.75 0 0 1 9.74-5.157c3.901 0 7.345 1.9 9.49 4.82l.738 1.004.739-1.004c2.143-2.92 5.595-4.82 9.496-4.82a11.761 11.761 0 0 1 11.734 12.688h6.391v-33.66h-21.51zm1.377 1.377h3.557v11.361h-3.557v-11.361zm4.884 0h3.587v11.361h-3.587v-11.361zm4.914 0h3.586v11.361h-3.586v-11.361zm4.913 0h3.586v11.361h-3.586v-11.361z" fill="#fff"></path><path d="M368.923 257.695c-.55-.854-.453-2.92 1.896-3.21-.49-2.543 2.336-3.912 3.853-3.058.125-1.856 1.443-2.56 2.6-2.172.413-1.235 1.706-1.25 2.69-.611.892-1.936 3.702-1.314 3.456-.03 1.578-.286 1.877 3.496.58 3.638.85 1.122-1.33 3.3-2.568 2.416-.09 1.765-1.823 1.993-2.997 1.56-.766-.284-1.256.357-2.17.244-2.764-.341-2.392.401-3.334.704l-4.006.52z" fill="#fff" fill-rule="evenodd"></path><path d="M373.152 279.206c.642-.843.162-1.646-.612-2.04v-1.959c1.183-.285 1.02-2.026 0-2.284l4.039-11.914c-.75-1.29-1.767-2.259-3.06-2.897v-.938h-6.161v.938c-1.293.638-2.31 1.606-3.06 2.897l4.04 11.914c-1.02.258-1.184 1.999 0 2.284v1.959c-.775.394-1.255 1.197-.613 2.04 1.488.39 3.89.408 5.427 0zm16.389-.35c-.133-.708-.32-1.38-1.253-1.529v-1.57c1.204 0 .959-1.871 0-1.693v-2.057c.744-.076.826-1.287 0-1.438-.07-.779-.32-1.49-1.438-1.865-.04-.786-.326-1.161-.825-1.131-.5-.03-.785.345-.826 1.131-1.118.376-1.368 1.086-1.437 1.865-.826.15-.745 1.362 0 1.438v2.057c-.96-.178-1.197 1.693 0 1.693v1.57c-.934.149-1.12.82-1.254 1.53 2.307.334 4.645.398 7.033 0z" fill="#fff" fill-rule="evenodd"></path><path d="M398.769 277.266h1.712v1.56c-.549.194-1.122.172-1.712 0v-1.56z" fill="#fff" stroke-linecap="round"></path><path d="M402.809 277.285c-.154-.716-.582-1.419-1.309-1.79-.077-1.178-.165-2.35-1.18-3.169.01-1.192-.315-1.517-.726-1.699-.41.182-.735.507-.726 1.699-1.014.818-1.102 1.991-1.18 3.168-.726.372-1.17 1.044-1.308 1.791 2.164.394 4.306.38 6.429 0z" fill="#fff" fill-rule="evenodd"></path><path d="M413.122 262.833c0-.01 0-.02 0 0z" fill="none"></path><path d="M412.646 263.032c-.543-1.238.71-1.741-.086-2.681-1.577-1.232-.575-2.328.173-2.487.4-.87 1.016-1.364 1.643-1.838.534-1.934 1.741-1.136 1.881-.67 2.639-.602 2.059 2.474 1.254 3.005-.57.9-1.713 2.495-3.935 2.054-.142.65 1.12 1.795-.173 2.617h-.757z" fill="#fff" fill-rule="evenodd"></path><path d="M415.73 278.795c.207-.556-.36-1.408-1.07-1.345v-1.223c1.14.06 1.534-2.172-.123-2.11v-1.652c1.01-.234.968-1.915-.58-2.14v-5.75c.919-.236.848-1.737 0-1.773h-1.716c-.802.036-.873 1.537.046 1.774v5.749c-1.549.225-1.591 1.906-.58 2.14v1.652c-1.657-.062-1.264 2.17-.123 2.11v1.223c-.711-.063-1.277.79-1.07 1.345 1.738.304 3.477.348 5.216 0z" fill="#fff" fill-rule="evenodd"></path><path d="M419.454 266.51c-.047-1.373-.934-1.977-1.766-1.609" fill="none"></path><path d="M356.118 291.521a.517.517 0 0 0 .057 1.033h4.031a.516.516 0 1 0 0-1.033h-4.03a.517.517 0 0 0-.058 0zm-3.916 5.437a.516.516 0 0 0-.309.89l4.34 4.339a.517.517 0 0 0 .731-.732l-4.34-4.34a.516.516 0 0 0-.422-.157z" fill="#fff" fill-rule="evenodd" stroke-linecap="round"></path></g><g stroke="#000" stroke-width="2.178"><path d="M357.473 308.267a.804.804 0 1 0 .08 1.606h83.2a.803.803 0 1 0 0-1.606h-83.2a.803.803 0 0 0-.08 0z" fill-rule="evenodd" stroke-linecap="round" stroke-width=".5"></path><path d="M357.473 307.229a.804.804 0 1 0 .08 1.606h83.2a.803.803 0 1 0 0-1.606h-83.2a.803.803 0 0 0-.08 0z" fill="#fff" fill-rule="evenodd" stroke-linecap="round" stroke-width=".5"></path><path d="M416.577 279.833v-12.541c0-2.037 1.273-2.941 3.114-2.941h19.807c.903 0 1.47.514 1.47 2.162v13.925l-23.699 5.709-.692-6.314z" fill="#fff" fill-rule="evenodd" stroke-width=".5"></path><path d="M364.594 284.278c.054-2.36.753-4.445 3.814-5.518h48.212c1.373.898 2.896 2.436 2.758 5.275l-54.784.243z" fill="#fff" fill-rule="evenodd" stroke-width=".5"></path><path d="M391.413 279.288v4.828m2.515-4.828v4.828m10.306-4.828c.408 1.118.593 2.736.568 4.828m1.908-4.828c.407 1.118.592 2.736.567 4.828m-26.979-4.828c-.408 1.118-.593 2.736-.568 4.828m-1.907-4.828c-.408 1.118-.593 2.736-.568 4.828" fill="none" stroke-width=".5"></path><path d="M368.22 291.914h-12.17l-3.793 5.443 5.321 5.32h21.59l4.892-6.176h10.214l16.023 1.712h6.116l.367-5.626-48.56-.673z" fill-rule="evenodd" stroke-width=".5"></path><path d="M364.316 284.518v6.77l2.238 3.673h30.239l13.656 1.262h4.82l15.78 2.64h9.123v-31.789h-19.91v17.214l-55.946.23z" fill="#fff" fill-rule="evenodd" stroke-width=".5"></path><g fill="#fff" stroke-width=".5"><path d="M410.609 299.059a8.23 8.23 0 1 1-16.461 0 8.23 8.23 0 1 1 16.46 0z" stroke-linecap="round"></path><path d="M401.072 302.073h2.609v4.695h-2.609z"></path><path d="m403.585 302.112 1.845-1.844 3.32 3.32-1.845 1.844z"></path><path d="M405.39 300.363v-2.608h4.695v2.608z"></path><path d="m405.43 297.85-1.845-1.845 3.32-3.32 1.845 1.845z"></path><path d="M403.68 296.045h-2.608v-4.695h2.609z"></path><path d="m401.167 296.005-1.844 1.845-3.32-3.32 1.844-1.845z"></path><path d="M399.362 297.755v2.608h-4.695v-2.608z"></path><path d="m399.323 300.268 1.844 1.844-3.32 3.32-1.844-1.844z"></path><path d="M402.38 289.785c-5.12 0-9.274 4.155-9.274 9.274 0 5.12 4.155 9.274 9.274 9.274 5.12 0 9.274-4.154 9.274-9.274 0-5.119-4.155-9.274-9.274-9.274zm0 2.088a7.19 7.19 0 0 1 7.187 7.186 7.19 7.19 0 0 1-7.187 7.187 7.19 7.19 0 0 1-7.187-7.187 7.19 7.19 0 0 1 7.187-7.186z"></path><path d="M402.38 295.236a3.829 3.829 0 0 0-3.83 3.823 3.829 3.829 0 0 0 3.83 3.823 3.822 3.822 0 1 0 0-7.646zm0 1.736a2.088 2.088 0 0 1 0 4.175 2.088 2.088 0 0 1 0-4.175z"></path></g><g fill="#fff" stroke-width=".5"><path d="M431.065 299.059a8.23 8.23 0 1 1-16.461 0 8.23 8.23 0 1 1 16.46 0z" stroke-linecap="round"></path><path d="M421.528 302.073h2.609v4.695h-2.609z"></path><path d="m424.042 302.112 1.844-1.844 3.32 3.32-1.845 1.844z"></path><path d="M425.846 300.363v-2.608h4.696v2.608z"></path><path d="m425.886 297.85-1.844-1.845 3.32-3.32 1.844 1.845z"></path><path d="M424.137 296.045h-2.609v-4.695h2.609z"></path><path d="m421.623 296.005-1.844 1.845-3.32-3.32 1.844-1.845z"></path><path d="M419.818 297.755v2.608h-4.695v-2.608z"></path><path d="m419.779 300.268 1.844 1.844-3.32 3.32-1.844-1.844z"></path><path d="M422.836 289.785c-5.12 0-9.274 4.155-9.274 9.274 0 5.12 4.155 9.274 9.274 9.274 5.12 0 9.274-4.154 9.274-9.274 0-5.119-4.155-9.274-9.274-9.274zm0 2.088a7.19 7.19 0 0 1 7.187 7.186 7.19 7.19 0 0 1-7.187 7.187 7.19 7.19 0 0 1-7.187-7.187 7.19 7.19 0 0 1 7.187-7.186z"></path><path d="M422.836 295.236a3.829 3.829 0 0 0-3.83 3.823 3.829 3.829 0 0 0 3.83 3.823 3.822 3.822 0 1 0 0-7.646zm0 1.736a2.088 2.088 0 0 1 0 4.175 2.088 2.088 0 0 1 0-4.175z"></path></g><path d="M398.844 295.703a.517.517 0 1 0 .05 1.033h25.097a.516.516 0 1 0 0-1.033h-25.147zm-6.469-2.145a.516.516 0 0 0-.08 1.004l4.52 1.564a.516.516 0 1 0 .336-.976l-4.518-1.563a.516.516 0 0 0-.258-.029z" fill="#fff" fill-rule="evenodd" stroke-linecap="round" stroke-width=".5"></path><g fill="#fff" stroke-linecap="round" stroke-width=".5"><path d="M385.694 301.292a6.173 6.173 0 1 1-12.345 0 6.173 6.173 0 1 1 12.345 0z"></path><path d="M378.623 303.35h1.797v3.361h-1.797z"></path><path d="m380.341 303.382 1.27-1.27 2.378 2.376-1.27 1.271z"></path><path d="M381.58 302.19v-1.797h3.36v1.797z"></path><path d="m381.612 300.472-1.27-1.27 2.376-2.378 1.271 1.27z"></path><path d="M380.42 299.234h-1.797v-3.362h1.797z"></path><path d="m378.702 299.201-1.27 1.271-2.378-2.377 1.27-1.27z"></path><path d="M377.464 300.393v1.797h-3.362v-1.797z"></path><path d="m377.431 302.111 1.27 1.271-2.376 2.377-1.27-1.27z"></path><path d="M379.522 294.247a7.047 7.047 0 0 0-7.044 7.043 7.047 7.047 0 0 0 7.044 7.043 7.047 7.047 0 0 0 7.043-7.043 7.047 7.047 0 0 0-7.043-7.043zm0 1.972a5.071 5.071 0 1 1 0 10.14 5.071 5.071 0 0 1-.001-10.139z"></path><path d="M379.522 298.844a2.45 2.45 0 0 0 0 4.899 2.45 2.45 0 0 0 0-4.899zm0 1.155a1.292 1.292 0 0 1 0 2.582 1.292 1.292 0 0 1 0-2.582z"></path></g><g fill="#fff" stroke-linecap="round" stroke-width=".5"><path d="M370.366 301.292a6.173 6.173 0 1 1-12.346 0 6.173 6.173 0 1 1 12.346 0z"></path><path d="M363.295 303.35h1.796v3.361h-1.796z"></path><path d="m365.013 303.382 1.27-1.27 2.377 2.376-1.27 1.271z"></path><path d="M366.25 302.19v-1.797h3.362v1.797z"></path><path d="m366.283 300.472-1.27-1.27 2.377-2.378 1.27 1.27z"></path><path d="M365.091 299.234h-1.797v-3.362h1.797z"></path><path d="m363.373 299.201-1.27 1.271-2.378-2.377 1.271-1.27z"></path><path d="M362.135 300.393v1.797h-3.361v-1.797z"></path><path d="m362.103 302.111 1.27 1.271-2.377 2.377-1.27-1.27z"></path><path d="M364.193 294.247a7.047 7.047 0 0 0-7.043 7.043 7.047 7.047 0 0 0 7.043 7.043 7.047 7.047 0 0 0 7.043-7.043 7.047 7.047 0 0 0-7.043-7.043zm0 1.972a5.071 5.071 0 1 1 0 10.14 5.071 5.071 0 0 1-.001-10.139z"></path><path d="M364.193 298.844a2.45 2.45 0 0 0 0 4.899 2.45 2.45 0 0 0 0-4.899zm0 1.155a1.292 1.292 0 0 1 0 2.582 1.292 1.292 0 0 1 0-2.582z"></path></g><path d="M371.811 293.379c-.712 0-1.29.158-1.29.71 0 .352.239.7.594.904v3.686h1.392v-3.686c.358-.204.595-.55.595-.904 0-.552-.579-.71-1.29-.71z" fill="#fff" stroke-linecap="round" stroke-width=".5"></path><path d="M362.544 298.464a.517.517 0 1 0 .05 1.033h16.763a.516.516 0 1 0 0-1.033h-16.813z" fill="#fff" fill-rule="evenodd" stroke-linecap="round" stroke-width=".5"></path><path d="m368.791 291.346 2.525-5.508 9.525 3.557-.86 2.008-11.19-.057z" fill="#fff" fill-rule="evenodd" stroke-width=".5"></path><path fill="#fff" stroke-linecap="round" d="M384.69 284.58h2.343v6.474h-2.342z" stroke-width=".5"></path><path d="M419.458 266.31v17.293h-54.97c-.962-.02-.97 1.356 0 1.377h56.347v-4.555h18.297v17.71h-2.718c-.476-7.074-6.38-12.689-13.57-12.689-4.083 0-7.74 1.82-10.236 4.677-2.494-2.855-6.146-4.677-10.228-4.677-4.31 0-8.156 2.019-10.65 5.157h-29.408a.91.91 0 0 0-.803.452.93.93 0 0 0 0 .932.91.91 0 0 0 .803.452h30.318a11.75 11.75 0 0 1 9.74-5.157c3.901 0 7.345 1.9 9.49 4.82l.738 1.004.739-1.004c2.143-2.92 5.595-4.82 9.496-4.82a11.761 11.761 0 0 1 11.734 12.688h6.391v-33.66h-21.51zm1.377 1.377h3.557v11.361h-3.557v-11.361zm4.884 0h3.587v11.361h-3.587v-11.361zm4.914 0h3.586v11.361h-3.586v-11.361zm4.913 0h3.586v11.361h-3.586v-11.361z" fill="#fff" stroke-width=".5"></path><path d="M368.923 257.695c-.55-.854-.453-2.92 1.896-3.21-.49-2.543 2.336-3.912 3.853-3.058.125-1.856 1.443-2.56 2.6-2.172.413-1.235 1.706-1.25 2.69-.611.892-1.936 3.702-1.314 3.456-.03 1.578-.286 1.877 3.496.58 3.638.85 1.122-1.33 3.3-2.568 2.416-.09 1.765-1.823 1.993-2.997 1.56-.766-.284-1.256.357-2.17.244-2.764-.341-2.392.401-3.334.704l-4.006.52z" fill="#fff" fill-rule="evenodd" stroke-width=".5"></path><path d="M373.152 279.206c.642-.843.162-1.646-.612-2.04v-1.959c1.183-.285 1.02-2.026 0-2.284l4.039-11.914c-.75-1.29-1.767-2.259-3.06-2.897v-.938h-6.161v.938c-1.293.638-2.31 1.606-3.06 2.897l4.04 11.914c-1.02.258-1.184 1.999 0 2.284v1.959c-.775.394-1.255 1.197-.613 2.04 1.488.39 3.89.408 5.427 0z" fill="#fff" fill-rule="evenodd" stroke-width=".5"></path><path d="M367.368 258.167h6.14m-9.168 2.811h12.196m-8.196 11.936c1.399.075 2.797.15 4.195 0m-4.151 2.302c1.37.223 2.739.24 4.108 0m-4.087 1.936c1.24.288 2.595.288 4.066 0m2.996-20.986c.787-.064 1.629.092 2.263-.58.685.186 1.529-.048 1.682-1.01.211-.813-.62-1.751-2.232-1.131.257-1.215-2.003-1.294-2.324-.612.302-1.521 2.51-1.101 2.66-.03 2.11-1.047 3.13.82 2.844 1.926 1.793-1.28 2.266-3.547.275-3.7-.428-.73-.908-1.225-1.498-1.223.754-.286 1.304-.082 1.651.611 1.508-.393 3.018 2.356.642 4.16" fill="none" stroke-width=".5"></path><path d="M389.541 278.856c-.133-.708-.32-1.38-1.253-1.529v-1.57c1.204 0 .959-1.871 0-1.693v-2.057c.744-.076.826-1.287 0-1.438-.07-.779-.32-1.49-1.438-1.865-.04-.786-.326-1.161-.825-1.131-.5-.03-.785.345-.826 1.131-1.118.376-1.368 1.086-1.437 1.865-.826.15-.745 1.362 0 1.438v2.057c-.96-.178-1.197 1.693 0 1.693v1.57c-.934.149-1.12.82-1.254 1.53 2.307.334 4.645.398 7.033 0z" fill="#fff" fill-rule="evenodd" stroke-width=".5"></path><path d="M383.798 270.546h4.454m-4.476 1.481h4.498m-4.52 2.033c1.514.241 3.028.158 4.541 0m-4.562 1.686c1.528.162 3.056.126 4.584 0m-4.541 1.557c1.5.259 2.998.201 4.498 0m-3.083-8.599h1.667" fill="none" stroke-width=".5"></path><path d="M398.769 277.266h1.712v1.56c-.549.194-1.122.172-1.712 0v-1.56z" fill="#fff" stroke-linecap="round" stroke-width=".5"></path><path d="M402.809 277.285c-.154-.716-.582-1.419-1.309-1.79-.077-1.178-.165-2.35-1.18-3.169.01-1.192-.315-1.517-.726-1.699-.41.182-.735.507-.726 1.699-1.014.818-1.102 1.991-1.18 3.168-.726.372-1.17 1.044-1.308 1.791 2.164.394 4.306.38 6.429 0z" fill="#fff" fill-rule="evenodd" stroke-width=".5"></path><path d="M397.714 275.477c1.274.085 2.548.192 3.822 0m-2.63-3.195h1.438m12.778-9.449c0-.01 0-.02 0 0z" fill="none" stroke-width=".5"></path><path d="M412.646 263.032c-.543-1.238.71-1.741-.086-2.681-1.577-1.232-.575-2.328.173-2.487.4-.87 1.016-1.364 1.643-1.838.534-1.934 1.741-1.136 1.881-.67 2.639-.602 2.059 2.474 1.254 3.005-.57.9-1.713 2.495-3.935 2.054-.142.65 1.12 1.795-.173 2.617h-.757z" fill="#fff" fill-rule="evenodd" stroke-width=".5"></path><path d="M415.73 278.795c.207-.556-.36-1.408-1.07-1.345v-1.223c1.14.06 1.534-2.172-.123-2.11v-1.652c1.01-.234.968-1.915-.58-2.14v-5.75c.919-.236.848-1.737 0-1.773h-1.716c-.802.036-.873 1.537.046 1.774v5.749c-1.549.225-1.591 1.906-.58 2.14v1.652c-1.657-.062-1.264 2.17-.123 2.11v1.223c-.711-.063-1.277.79-1.07 1.345 1.738.304 3.477.348 5.216 0z" fill="#fff" fill-rule="evenodd" stroke-width=".5"></path><path d="M412.31 264.545h1.623m-1.633 5.795h1.643m-2.216 2.141h2.79m-2.79 1.633a30.54 30.54 0 0 0 2.79 0m-2.92 2.108a36.07 36.07 0 0 0 3.05 0m-3.061 1.222a12.23 12.23 0 0 0 3.071 0m-.173-20.726c.621-.188 1.068.386.714 1.168 1.049.42.788 1.551-.13 1.773m.93-3.979c.568.134.755.689.41 1.21m3.046 9.62c-.047-1.373-.934-1.977-1.766-1.609" fill="none" stroke-width=".5"></path><path transform="matrix(.21722 .07412 0 .22952 315.256 169.331)" fill="#fff" stroke-width="2.239" stroke-linecap="round" d="M470.497 273.793h4.666v35.505h-4.666z"></path><path d="M356.118 291.521a.517.517 0 0 0 .057 1.033h4.031a.516.516 0 1 0 0-1.033h-4.03a.517.517 0 0 0-.058 0zm-3.916 5.437a.516.516 0 0 0-.309.89l4.34 4.339a.517.517 0 0 0 .731-.732l-4.34-4.34a.516.516 0 0 0-.422-.157zm3.472-4.198a.516.516 0 0 0-.365.23l-1.47 2.167a.516.516 0 1 0 .853.58l1.47-2.166a.516.516 0 0 0-.488-.81z" fill="#fff" fill-rule="evenodd" stroke-linecap="round" stroke-width=".5"></path></g><path d="m400.328 242.222 2.618 8.056h8.471l-6.853 4.98 2.618 8.056-6.854-4.979-6.853 4.98 2.617-8.057-6.853-4.98h8.471l2.618-8.056z" fill="#fff" stroke="#000" stroke-width=".689" stroke-linecap="round"></path><path d="M400.002 199.105c-52.243 0-94.656 42.413-94.656 94.656 0 52.243 42.413 94.625 94.656 94.625 52.243 0 94.656-42.382 94.656-94.625s-42.413-94.656-94.656-94.656zm0 18.875c41.828 0 75.781 33.953 75.781 75.78 0 41.829-33.953 75.75-75.781 75.75s-75.781-33.921-75.781-75.75c0-41.827 33.953-75.78 75.78-75.78z" fill="#069"></path><path d="M456.603 293.75a56.603 56.603 0 1 1-113.206 0 56.603 56.603 0 1 1 113.206 0z" fill="none" stroke="#c70f2e" stroke-width="2.5" stroke-linecap="round"></path><path d="m367.155 345.706 7.814 4.021-1.684 3.738-.45-.231c.807-2.293.585-3.76-.666-4.404-.251-.13-.446-.175-.584-.136-.138.039-.259.158-.362.358l-3.961 7.697c-.08.157-.094.295-.041.416.053.12.184.234.392.342l.97.5-.25.488-4.475-2.303.252-.488 1.107.57c.147.075.28.096.395.063a.432.432 0 0 0 .268-.233l4.019-7.808c.085-.165.1-.316.043-.452-.056-.136-.195-.26-.417-.375-.63-.324-1.308-.297-2.035.081-.6.312-1.247.957-1.942 1.933l-.475-.244 2.082-3.533zm12.626 5.868 8.301 2.186-.732 3.586-.475-.125c.105-1.164.011-2.022-.28-2.573-.292-.552-.766-.914-1.422-1.086l-2.054-.541c-.165-.044-.302-.032-.411.036-.109.067-.187.193-.236.377l-.982 3.732.9.237c.48.127.917.058 1.307-.208.391-.266.692-.752.903-1.459l.49.129-1.278 4.851-.49-.128c.189-.81.176-1.427-.037-1.855-.213-.427-.582-.71-1.106-.847l-.822-.217-1.096 4.165a.43.43 0 0 0 .06.387c.081.107.24.192.475.254l1.622.427c1.762.464 3.073-.393 3.934-2.57l.51.135-1.205 3.856-8.634-2.274.14-.53.715.188c.279.073.487.076.626.01.14-.068.233-.193.281-.378l2.186-8.3c.048-.185.035-.335-.04-.45-.076-.116-.22-.202-.433-.258l-.857-.226.14-.531zm13.382 3.014 4.444.102-.012.55-.52-.013c-.376-.008-.627.018-.753.078s-.19.14-.192.238c-.002.073.066.214.203.422l2.002 3.094 1.644-2.38c.213-.308.32-.557.325-.747a.516.516 0 0 0-.253-.46c-.173-.117-.501-.183-.984-.199l.012-.549 3.932.09-.012.55c-.43-.01-.77.055-1.023.196-.342.187-.659.488-.951.901l-2.301 3.2 3.306 5.014a.832.832 0 0 0 .355.312c.143.064.392.103.749.116l-.013.55-4.291-.1.013-.548.593.013c.288.007.487-.024.599-.092.111-.069.168-.156.17-.264.003-.112-.066-.277-.208-.495l-2.137-3.273-1.694 2.32c-.267.365-.404.69-.41.972-.006.24.065.425.213.558.149.133.37.203.662.21l.425.01-.013.549-4.13-.095.013-.55a2.28 2.28 0 0 0 1.161-.314c.344-.204.686-.542 1.024-1.013l2.368-3.257-2.86-4.315c-.227-.342-.43-.563-.608-.662-.179-.1-.466-.156-.86-.17l.012-.55zm18.97-1.418.48-.103 5.891 8.867c.238.358.592.486 1.065.384l.33-.07.115.536-4.224.911-.116-.537.337-.072c.439-.095.739-.21.9-.344.11-.094.15-.21.12-.348a.764.764 0 0 0-.106-.247l-1.366-2.058-4.181.902-.216 1.395c-.055.371-.06.657-.017.858.05.234.202.41.455.53.253.121.587.136 1.003.047l.358-.077.116.537-3.838.827-.116-.537c.41-.088.716-.248.916-.478.2-.23.346-.618.439-1.162l1.656-9.76zm.233 2.085-.88 5.128 3.745-.808-2.865-4.32zm15.32-6.46.197-1.136.484-.226 1.71 3.559-.438.204c-.787-.969-1.566-1.58-2.34-1.834-.772-.253-1.508-.217-2.207.11-.584.272-.98.67-1.19 1.193a1.866 1.866 0 0 0 .041 1.541c.147.314.346.557.598.727.252.171.553.265.904.282.35.017.953-.072 1.81-.268 1.205-.27 2.084-.387 2.638-.35.554.038 1.025.191 1.414.46.39.268.7.65.931 1.145.413.885.458 1.758.135 2.617-.324.86-.957 1.51-1.9 1.95-1.013.472-2.046.556-3.1.25l-.322 1.266-.478.223-1.775-3.803.478-.223c.676.962 1.478 1.595 2.407 1.9.928.305 1.798.268 2.607-.11.655-.306 1.1-.749 1.332-1.329.233-.58.22-1.147-.038-1.7a1.628 1.628 0 0 0-.618-.718c-.265-.164-.603-.249-1.015-.253-.412-.005-1.165.108-2.259.339-1.203.25-2.077.306-2.619.172-.764-.194-1.339-.704-1.725-1.531-.403-.863-.457-1.698-.163-2.506.293-.808.87-1.413 1.728-1.813a3.514 3.514 0 0 1 1.277-.33c.44-.027.938.037 1.495.191zm-92.047-85.518-.772-.87.178-.425 4.095 1.504-.19.452c-1.255-.175-2.244-.149-2.969.078-.904.278-1.518.805-1.842 1.58-.35.838-.261 1.676.266 2.516.528.84 1.684 1.632 3.468 2.377 1.5.627 2.771.803 3.812.529.881-.235 1.516-.817 1.903-1.745.339-.811.363-1.6.072-2.367-.29-.767-.926-1.453-1.906-2.059l.2-.48c1.131.637 1.876 1.427 2.233 2.37.358.943.322 1.928-.107 2.955a4.731 4.731 0 0 1-1.587 2.032c-.71.521-1.545.826-2.505.915a5.888 5.888 0 0 1-2.846-.455 6.79 6.79 0 0 1-2.536-1.817c-.694-.795-1.12-1.62-1.28-2.475a4.214 4.214 0 0 1 .248-2.445c.18-.433.43-.82.748-1.164.318-.343.757-.679 1.317-1.006zm1.424-4.552 2.578-4.28.47.284-.442.734c-.197.327-.28.557-.25.692.03.135.177.282.44.44l7.027 4.233c.28.169.479.237.595.205.157-.043.314-.196.473-.46l.495-.821.47.283-2.577 4.28-.47-.284.487-.81c.172-.284.24-.493.207-.627s-.19-.286-.47-.455l-7.027-4.232c-.267-.162-.455-.223-.563-.186-.167.06-.345.246-.534.56l-.438.727-.47-.283zm4.32-6.987 5.546-6.82 3.31 2.419-.319.392c-2.077-1.261-3.559-1.346-4.446-.255-.179.22-.263.401-.254.544.01.143.102.286.276.427l6.717 5.462c.136.11.269.153.398.125.13-.027.268-.131.415-.313l.689-.847.426.347-3.174 3.904-.427-.347.786-.966c.105-.129.153-.253.144-.374a.432.432 0 0 0-.173-.31l-6.813-5.54c-.144-.117-.289-.162-.433-.135-.145.027-.296.137-.453.33-.447.55-.56 1.219-.34 2.008.182.651.679 1.418 1.492 2.299l-.338.415-3.028-2.765zm7.49-8.937 3.594-3.1.358.417-.399.344c-.333.287-.527.5-.582.638-.055.137-.043.253.037.345.083.096.184.16.302.194l4.874 1.435-.88-4.048a1.084 1.084 0 0 0-.244-.486c-.166-.192-.36-.291-.585-.298-.225-.006-.454.092-.687.293l-.382.33-.36-.416 3.129-2.698.359.416c-.359.31-.588.616-.686.92-.099.305-.094.713.013 1.227l1.098 5.097 2.239 2.596c.118.137.241.202.37.194.174-.015.367-.113.577-.295l.705-.608.359.416-3.767 3.248-.358-.416.743-.64c.2-.173.313-.333.34-.482a.486.486 0 0 0-.128-.417l-2.177-2.524-5.966-1.77a1.25 1.25 0 0 0-.696-.023c-.207.06-.488.235-.842.527l-.359-.416zm19.78-14.08a4.89 4.89 0 0 1 2.627-.463 5.014 5.014 0 0 1 2.563 1.003c.78.581 1.404 1.358 1.872 2.33.467.973.685 1.95.652 2.93-.033.98-.301 1.86-.806 2.642a4.754 4.754 0 0 1-1.958 1.75 4.535 4.535 0 0 1-2.514.416c-.893-.099-1.74-.448-2.54-1.046-.8-.6-1.433-1.385-1.9-2.357-.462-.96-.677-1.922-.645-2.888.031-.966.291-1.836.78-2.61.49-.775 1.113-1.344 1.87-1.708zm.35.457c-.857.412-1.381 1.103-1.571 2.072-.19.969.102 2.259.877 3.87.84 1.746 1.693 2.823 2.56 3.23.868.406 1.704.416 2.51.029.563-.271.985-.66 1.266-1.17.28-.509.389-1.154.325-1.936-.065-.781-.355-1.71-.871-2.783-.563-1.17-1.121-2.028-1.675-2.571-.554-.544-1.127-.868-1.72-.974a2.73 2.73 0 0 0-1.7.233zm8.178-3.814 8.505-2.301 1.121 3.581-.488.132c-.553-1.185-1.076-1.914-1.57-2.185-.566-.317-1.264-.363-2.094-.139l-1.675.453c-.165.045-.275.116-.33.215-.053.098-.06.225-.018.38l1.024 3.783.898-.243c.5-.136.853-.408 1.06-.819.208-.41.23-.962.068-1.657l.51-.137 1.275 4.715-.509.138c-.245-.774-.556-1.289-.934-1.546-.378-.256-.822-.316-1.33-.178l-.898.243 1.078 3.987c.064.236.166.387.305.453.14.066.348.061.626-.014l1.089-.295.143.53-5.027 1.36-.143-.53 1.075-.29c.216-.06.359-.144.427-.256.069-.113.076-.268.022-.466l-2.25-8.314c-.05-.188-.135-.31-.253-.364-.118-.054-.298-.048-.538.017l-1.025.277-.144-.53zm17.559-3.621 4.621.019-.002.549-.85-.004c-.297 0-.492.05-.582.155-.091.105-.137.36-.139.765l-.013 3.34 4.958.02.014-3.34c.001-.42-.04-.678-.125-.776-.086-.098-.287-.148-.604-.15l-.791-.003.002-.549 4.6.019-.003.55-.842-.004c-.21-.001-.358.025-.443.078a.567.567 0 0 0-.21.278c-.03.083-.045.3-.047.652l-.031 7.793c-.002.375.029.603.092.681.126.167.358.25.695.252l.747.003-.002.55-4.6-.02.002-.549.791.003c.313.002.526-.083.639-.253.063-.093.096-.337.098-.732l.015-3.765-4.958-.02-.016 3.823c-.001.381.027.61.085.689.122.162.331.243.629.244l.85.004-.003.549-4.621-.019.002-.55.886.004a.648.648 0 0 0 .374-.093.553.553 0 0 0 .206-.27c.025-.078.038-.286.04-.623l.031-7.822c.002-.405-.042-.66-.132-.766-.09-.105-.286-.159-.589-.16l-.776-.003.002-.55zm20.174 1.36a4.89 4.89 0 0 1 2.36 1.241 5.014 5.014 0 0 1 1.414 2.361c.262.937.281 1.933.056 2.989-.225 1.055-.65 1.96-1.275 2.716-.626.755-1.377 1.288-2.254 1.598-.877.31-1.75.372-2.62.187a4.535 4.535 0 0 1-2.244-1.209c-.645-.624-1.101-1.418-1.368-2.38-.267-.964-.287-1.973-.062-3.028.221-1.041.64-1.934 1.256-2.68.615-.744 1.353-1.274 2.214-1.587.86-.313 1.702-.382 2.523-.207zm-.003.577c-.931-.199-1.768.027-2.51.678-.744.65-1.301 1.85-1.674 3.597-.404 1.896-.387 3.27.05 4.122.438.852 1.093 1.371 1.967 1.558.612.13 1.184.08 1.718-.151.533-.23 1.013-.675 1.44-1.333.428-.658.766-1.57 1.014-2.734.27-1.27.353-2.29.248-3.06-.106-.768-.361-1.375-.765-1.821a2.73 2.73 0 0 0-1.488-.856zm8.576 1.806 4.6 1.963-.215.506-.923-.394c-.247-.106-.437-.139-.57-.1-.134.038-.236.14-.307.307l-2.4 5.625c-.252.588-.39 1.055-.415 1.4-.037.51.091.984.385 1.422.293.438.767.798 1.423 1.077.907.388 1.699.448 2.375.182.677-.266 1.183-.792 1.518-1.578l1.952-4.574c.173-.404.275-.723.308-.955a1.27 1.27 0 0 0-.034-.592 1.031 1.031 0 0 0-.29-.43c-.138-.126-.395-.269-.772-.43l.215-.505 3.766 1.607-.216.505-.27-.115c-.421-.18-.784-.2-1.087-.062-.304.138-.547.423-.731.854l-2.09 4.898c-.457 1.069-1.112 1.758-1.966 2.068-.961.348-2.012.28-3.153-.207-.988-.422-1.705-.894-2.151-1.416-.446-.522-.685-1.1-.717-1.735-.022-.483.096-1.027.355-1.633l2.567-6.016a.482.482 0 0 0-.004-.428c-.069-.132-.208-.243-.42-.334l-.95-.405.217-.505zm18.314 10.416 1.071-.423.446.296-2.146 3.314-.403-.268c.417-1.176.533-2.16.346-2.952-.187-.792-.601-1.401-1.244-1.828-.537-.356-1.083-.487-1.638-.392a1.866 1.866 0 0 0-1.294.838 1.742 1.742 0 0 0-.31.889c-.014.304.063.61.231.918.168.307.559.776 1.172 1.406.86.886 1.417 1.576 1.674 2.068.256.493.371.975.345 1.447-.026.472-.19.936-.492 1.391-.54.814-1.261 1.307-2.164 1.479-.902.172-1.786-.03-2.653-.605-.932-.618-1.542-1.456-1.83-2.515l-1.248.385-.44-.292 2.32-3.497.44.292c-.469 1.078-.591 2.092-.367 3.044.224.951.709 1.674 1.453 2.168.602.4 1.212.548 1.828.444.617-.104 1.094-.41 1.431-.918.192-.29.289-.59.291-.902.002-.312-.102-.645-.313-.999-.21-.353-.7-.937-1.466-1.75-.84-.898-1.345-1.613-1.512-2.146-.234-.753-.098-1.51.407-2.27.526-.794 1.211-1.276 2.054-1.446.842-.17 1.658.006 2.448.53.378.251.694.557.946.918.253.361.458.82.617 1.376zm4.914 2.627 6.364 6.063-2.67 3.11-.366-.348c1.42-1.972 1.62-3.443.602-4.413-.205-.195-.379-.294-.522-.296-.144-.001-.293.08-.448.242l-5.971 6.268c-.122.127-.174.256-.157.387.017.13.11.277.28.439l.79.752-.379.398-3.643-3.47.38-.399.9.86c.121.114.242.171.363.172.12 0 .228-.049.322-.148l6.058-6.358c.128-.134.184-.275.168-.42-.015-.147-.113-.306-.293-.478-.513-.489-1.172-.654-1.976-.496-.663.13-1.466.565-2.408 1.306l-.387-.368 2.993-2.803zm12.027 12.937a4.89 4.89 0 0 1 .891 2.513c.067.93-.12 1.828-.564 2.694-.444.866-1.107 1.61-1.988 2.232-.882.622-1.809.998-2.78 1.129-.973.13-1.886.01-2.74-.357a4.754 4.754 0 0 1-2.05-1.641 4.535 4.535 0 0 1-.828-2.41c-.05-.898.154-1.79.612-2.678.458-.888 1.127-1.643 2.01-2.266.869-.613 1.782-.985 2.74-1.114.958-.13 1.86-.017 2.704.338.844.354 1.509.874 1.993 1.56zm-.393.421c-.55-.778-1.317-1.18-2.304-1.207-.987-.026-2.21.476-3.67 1.506-1.584 1.118-2.505 2.138-2.762 3.06-.257.923-.128 1.75.387 2.48.36.51.815.862 1.363 1.055.548.192 1.203.192 1.963 0 .76-.194 1.627-.634 2.6-1.32 1.062-.75 1.814-1.442 2.259-2.079.444-.636.67-1.255.675-1.857a2.73 2.73 0 0 0-.511-1.638zm5.181 7.438 1.038 2.368-5.172 9.4 5.642-2.472c.568-.25.931-.563 1.09-.942.147-.347.122-.757-.075-1.23l.503-.221 1.52 3.468-.503.22c-.155-.353-.32-.595-.494-.727-.175-.13-.42-.204-.737-.22a2.05 2.05 0 0 0-.937.178l-7.882 3.456-.277-.631 5.396-9.747-5.983 2.623c-.541.238-.885.55-1.032.94-.146.39-.098.873.144 1.449l-.504.22-1.658-3.783.503-.22c.226.466.546.773.96.922.415.15.834.13 1.26-.056l6.727-2.95.071-.166c.144-.33.217-.551.22-.665a1.268 1.268 0 0 0-.126-.544l-.197-.45.503-.22z" style="text-align:center;line-height:125%;-inkscape-font-specification:Century Schoolbook" font-size="15" font-weight="400" text-anchor="middle" font-family="Century Schoolbook"></path><path d="M444.163 343.855c.707-.09 1.477.155 2.187.718.984.78 1.967.439 2.594-.036 1.042-.789 2.928-1.512 3.64-.704 1.18-.439.88-3.18-1.036-3.027-.832.066-2.033.637-2.923 1.15l-.167-.51c.845-.674 1.807-1.21 2.962-1.636.813-.3 1.876-1.398.8-2.872.632-.812.345-1.485-.25-2.023-.594-.537-1.292-.755-2.036-.043-1.575-.923-2.562.245-2.778 1.084-.306 1.192-.744 2.203-1.33 3.111l-.525-.115c.422-.937.87-2.189.852-3.023-.041-1.922-2.798-1.945-3.116-.726.876.626.345 2.576-.334 3.691-.41.673-.651 1.684.224 2.585.632.65.972 1.408.954 2.12l.282.256zm-88.311 0c-.707-.09-1.477.155-2.187.718-.984.78-1.966.439-2.594-.036-1.041-.789-2.928-1.512-3.639-.704-1.18-.439-.88-3.18 1.036-3.027.832.066 2.033.637 2.922 1.15l.168-.51c-.845-.674-1.807-1.21-2.962-1.636-.813-.3-1.876-1.398-.8-2.872-.633-.812-.345-1.485.25-2.023.594-.537 1.292-.755 2.036-.043 1.575-.923 2.561.245 2.777 1.084.307 1.192.745 2.203 1.33 3.111l.525-.115c-.422-.937-.869-2.189-.851-3.023.04-1.922 2.798-1.945 3.116-.726-.876.626-.346 2.576.334 3.691.41.673.651 1.684-.225 2.585-.631.65-.972 1.408-.953 2.12l-.283.256z" fill="#fff" fill-rule="evenodd" stroke="#000" stroke-width=".75" stroke-linejoin="round"></path></svg>