<svg xmlns="http://www.w3.org/2000/svg" width="800" height="400" version="1"><path fill="#fff" stroke-width="14" d="M0 0h800v400H0z"/><path d="M344.361 174.08c0 67.72-54.962 122.682-122.683 122.682S98.995 241.8 98.995 174.08c0-67.72 54.962-122.683 122.683-122.683s122.683 54.962 122.683 122.683z" fill="#fff" stroke="#002673" stroke-width="13.9997772"/><path d="M151.5 118.563c8.09-4.082 17.807-6.929 27.688-6.229 11.802.837 21.907 7.293 31.625 18.43 10.853 12.44 23.757 21.016 38.875 22.087 10.89.772 19.912-1.01 27.812-4.306v41.273c-6.923 3.903-17.579 6.257-27.688 5.54-11.802-.836-21.907-7.292-31.625-18.43-10.853-12.44-23.757-21.015-38.875-22.087-10.858-.77-20.19 1.794-27.812 5.02v-41.298z" fill="#002673" fill-rule="evenodd" stroke-width="10"/><path d="M151.5 171.06c8.09-4.081 17.807-6.929 27.688-6.228 11.802.836 21.907 7.292 31.625 18.43 10.853 12.44 23.757 21.015 38.875 22.087 10.89.771 19.912-1.01 27.812-4.307l.063.026-.063 41.247c-6.923 3.903-17.579 6.257-27.688 5.54-11.802-.836-21.907-7.292-31.625-18.43-10.853-12.439-23.757-21.015-38.875-22.086-10.858-.77-20.19 1.793-27.812 5.02v-41.3z" fill="#002673" fill-rule="evenodd" stroke-width="10"/><path d="M279 118.5c0 14.352-11.648 26-26 26s-26-11.648-26-26 11.648-26 26-26 26 11.648 26 26z" fill="#002673" stroke-width="10"/><path d="M800 85.41H621.315c-88.64 0-152.52 31.567-221.315 124.952-68.795 93.385-132.675 124.953-221.315 124.953H0V400h800V85.41z" fill="#c70f2e" fill-rule="evenodd"/></svg>