<svg xmlns="http://www.w3.org/2000/svg" width="761.568" height="473.568" viewBox="0 0 7933 4933"><path d="M0 0h7933v4933H0V0z" fill="#fff"/><path d="m7939 0-6-6H0V6h7933l-6-6h12v-6h-6z" fill="#b2b2b2"/><path d="m7933 4939 6-6V0h-12v4933l6-6v12h6v-6z" fill="#b2b2b2"/><path d="m-6 4933 6 6h7933v-12H0l6 6H-6v6h6z" fill="#b2b2b2"/><path d="m0-6-6 6v4933H6V0L0 6V-6h-6v6z" fill="#b2b2b2"/><path d="M2381 0h843v4933h-843V0z" fill="#ffea2c"/><path d="M3224 4933h40V0h-80v4933h40zM2381 0h-40v4933h80V0h-40zm170 0h502v4933h-502V0z" fill="#063"/><path d="M0 2887v-843h7933v843H0z" fill="#ffea2c"/><path d="M7933 2044v-40H0v80h7933v-40zM0 2887v40h7933v-80H0v40zm0-170v-502h7933v502H0z" fill="#039"/><circle cx="2802" cy="2465" r="1130" fill="#ffea2c"/><path d="M1677 2665h2271l-128 435-351 389-366 138-617-36-555-189-167-373-87-364z" fill="#369"/><path d="m3958 2668-10-13H1677v20h2271l-10-13 10 13 7-3 3-7-3-7-7-3z"/><path d="m3828 3107 2-4 128-435-20-6-128 435 2-4-2 4 1 8 6 5 8-1 5-6z"/><path d="m3473 3499 4-3 351-389-16-14-351 389 4-3-4 3-3 8 4 6 7 3 8-3z"/><path d="M3102 3637h5l366-138-8-20-366 138h5-5l-6 6v8l5 6h9z"/><path d="M2483 3601h2l617 36 2-20-617-36h2-2l-8 3-3 6 2 7 7 4z"/><path d="m1922 3406 6 6 555 189 6-20-555-189 6 6-6-6-8 1-5 6 1 8 6 5z"/><path d="m1754 3031 1 2 167 373 18-8-167-373 1 2-1-2-6-6-7 1-5 5v8z"/><path d="m1677 2655-10 12 87 364 20-4-87-364-10 12 10-12-4-7-7-1-7 4-2 8z"/><path d="m3619 2714-13-6-12-6-13-4-13-4-12-2-13-2-13-1-13-1-13 1-13 1-13 3-13 2-13 4-13 4-14 5-13 6 9 3 9 2 10 2 10 2 11 1 12 1 12 1h25l14-1h14l15-2 16-1 16-3 17-2 17-3z" fill="#006"/><ellipse cx="2106" cy="2722" rx="103" ry="19" fill="#006"/><path d="m1981 2729-13-6-12-6-13-4-13-4-12-2-13-2-13-1-13-1-13 1-13 1-13 3-13 2-13 4-13 4-14 5-13 6 9 3 9 2 10 2 10 2 11 1 12 1 12 1h25l14-1h14l15-2 16-1 16-3 17-2 17-3z" fill="#69f"/><ellipse cx="2341" cy="2728" rx="103" ry="19" fill="#69f"/><path d="m2255 2791-13-6-12-6-13-4-13-4-12-2-13-2-13-1-13-1-13 1-13 1-13 3-13 2-13 4-13 4-14 5-13 6 9 3 9 2 10 2 10 2 11 1 12 1 12 1h25l14-1h14l15-2 16-1 16-3 17-2 17-3zm1191-41-13-6-12-6-13-4-13-4-12-2-13-2-13-1-13-1-13 1-13 1-13 3-13 2-13 4-13 4-14 5-13 6 9 3 9 2 10 2 10 2 11 1 12 1 12 1h25l14-1h14l15-2 16-1 16-3 17-2 17-3zm397-31-13-6-12-6-13-4-13-4-12-2-13-2-13-1-13-1-13 1-13 1-13 3-13 2-13 4-13 4-14 5-13 6 9 3 9 2 10 2 10 2 11 1 12 1 12 1h25l14-1h14l15-2 16-1 16-3 17-2 17-3z" fill="#69f"/><path d="m2045 2801-16-8-16-7-16-6-17-4-16-4-17-2-16-1-17-1-17 1-17 2-16 3-17 3-17 5-18 5-17 7-17 7 12 4 12 3 12 2 14 3 14 1 15 2h15l16 1h17l18-1 18-1 19-2 20-2 21-3 22-3 22-4zm128 113-20-10-20-8-20-8-20-5-21-5-20-2-20-2-21-1-20 1-21 3-21 3-21 4-21 6-21 7-21 8-21 9 14 4 15 4 16 3 17 3 17 2 18 2 19 1h41l21-1 23-1 24-2 24-3 26-3 26-4 28-5zm1685-133-13-6-12-6-13-5-13-3-12-3-13-2-13-1h-26l-13 2-13 2-13 3-13 4-13 4-14 5-13 6 9 3 9 2 10 2 10 2 11 1 12 1h12l12 1 13-1h14l14-1 15-1 16-2 16-2 17-2 17-3zm-137 60-17-9-17-7-17-6-18-5-17-4-18-2-17-2h-18l-17 1-18 2-18 3-17 4-18 4-18 6-18 7-18 8 12 4 13 3 13 3 14 2 15 2 16 1 16 1h53l19-2 21-1 21-3 21-3 23-3 24-4z" fill="#006"/><path d="m1910 3001 103-84 48-53 44-28 44-68 64-28 64 20 76-24 80-4 21-41 51-39v-77l28-73 52-76v-24l33-20 39-4 44-44 132-8 85 17 44 50 25 64 24-20 28 1 42 12 40 2 60 68 16 168 88 19 32 49 77 8 55 56 60 8 32 68 72 37h49l60 157-489 413-476 32-399-48-328-244-145-158 25-84z" fill="#c63"/><path d="m2005 2910 2-1-103 84 12 16 103-84 2-1-2 1 4-7-2-7-6-4-8 2z"/><path d="m2056 2855-3 2-48 53 16 14 48-53-3 2 3-2 3-8-4-7-7-2-8 3z"/><path d="m2096 2830 4-3-44 28 10 18 44-28 4-3-4 3 5-6-1-8-6-5-8 1z"/><path d="m2145 2759-5 3-44 68 18 12 44-68-5 3 5-3 2-9-5-6-8-2-7 5z"/><path d="m2216 2730-7 1-64 28 8 18 64-28-7 1 7-1 6-6-1-7-5-5h-8z"/><path d="M2274 2750h6l-64-20-6 20 64 20h6-6l8-1 5-6-1-8-6-5z"/><path d="M2353 2726h-3l-76 24 6 20 76-24h-3 3l6-5 1-8-5-6-8-1z"/><path d="m2424 2727 9-5-80 4v20l80-4 9-5-9 5 7-3 3-7-3-7-7-3z"/><path d="m2448 2683-3 3-21 41 18 10 21-41-3 3 3-3 1-8-5-6-8-1-6 5z"/><path d="m2495 2652 4-8-51 39 12 16 51-39 4-8-4 8 4-7-2-7-6-4-8 2z"/><path d="M2495 2571v81h20v-77 4-4l-3-7-7-3-7 3-3 7z"/><path d="m2525 2496-2 2-28 73 20 8 28-73-2 2 2-2v-9l-6-5h-8l-6 6z"/><path d="m2575 2426 2-6-52 76 16 12 52-76 2-6-2 6 2-8-4-6-7-2-7 4z"/><path d="m2580 2393-5 9v24h20v-24l-5 9 5-9-3-7-7-3-7 3-3 7z"/><path d="m2617 2372-4 1-33 20 10 18 33-20-4 1 4-1 5-6-1-8-6-5-8 1z"/><path d="m2650 2371 6-3-39 4 2 20 39-4 6-3-6 3 7-4 2-7-3-6-8-3z"/><path d="m2700 2324-6 3-44 44 14 14 44-44-6 3 6-3 3-7-3-7-7-3-7 3z"/><path d="M2835 2316h-3l-132 8 2 20 132-8h-3 3l7-4 2-7-3-6-8-3z"/><path d="m2926 2336-6-3-85-17-4 20 85 17-6-3 6 3 8-2 4-7-1-7-7-4z"/><path d="m2972 2389-2-3-44-50-16 14 44 50-2-3 2 3 8 3 7-3 4-6-3-8z"/><path d="m2980 2449 17 4-25-64-20 8 25 64 17 4-17-4 6 6h8l6-5v-9z"/><path d="m3011 2427-7 2-24 20 14 16 24-20-7 2 6-2 4-7-2-7-6-4-8 2z"/><path d="M3042 2428h-3l-28-1v20l28 1h-3 3l7-3 3-7-3-7-7-3z"/><path d="M3081 2440h3l-42-12-6 20 42 12h3-3l8-1 5-6-1-8-6-5z"/><path d="m3129 2445-8-3-40-2v20l40 2-8-3 7 3 8-3 3-6-2-7-7-4z"/><path d="m3191 2519-2-6-60-68-16 14 60 68-2-6 2 6 8 3 7-3 4-6-3-8z"/><path d="m3199 2678 8 9-16-168-20 2 16 168 8 9-8-9 4 7 7 2 6-3 3-8z"/><path d="m3294 2701-7-4-88-19-4 20 88 19-7-4 7 4 8-2 4-7-1-7-7-4z"/><path d="m3318 2746 8 4-32-49-18 12 32 49 8 4-8-4 7 5 8-2 5-6-2-9z"/><path d="m3401 2757-6-3-77-8-2 20 77 8-6-3 6 3 8-3 3-6-2-7-7-4z"/><path d="m3450 2810 6 3-55-56-14 14 55 56 6 3-6-3 7 3 7-3 3-7-3-7z"/><path d="m3518 2824-8-6-60-8-2 20 60 8-8-6 8 6 8-3 3-6-2-7-7-4z"/><path d="m3546 2887 4 5-32-68-18 8 32 68 4 5-4-5 6 5h7l5-5v-8z"/><path d="m3613 2923 5 1-72-37-10 18 72 37 5 1-5-1 8 1 6-6 1-7-5-6z"/><path d="m3672 2929-10-6h-49v20h49l-10-6 10 6 7-3 3-7-3-7-7-3z"/><path d="m3729 3098 3-12-60-157-20 8 60 157 3-12-3 12 6 6h8l6-5v-9z"/><path d="m3234 3513 6-2 489-413-14-16-489 413 6-2-6 2-3 8 3 7 6 4 8-3z"/><path d="M2756 3545h2l476-32-2-20-476 32h2-2l-7 4-2 7 3 6 8 3z"/><path d="m2352 3495 5 2 399 48 2-20-399-48 5 2-5-2-8 3-3 6 2 7 7 4z"/><path d="m2022 3250 2 1 328 244 12-16-328-244 2 1-2-1-7-2-6 4-3 7 4 7z"/><path d="m1875 3082 2 10 145 158 16-14-145-158 2 10-2-10-8-3-7 2-4 7 3 8z"/><path d="m1904 2993-4 5-25 84 20 6 25-84-4 5zm787-554 58-50 51 49-1 36 57 67-44 12-52-65-27-5-42-44zm143-101 84 10-41 56-40-31-3-35zm543 470 71-3 46 49-15 36-52-31-45 44 50 58v44l-38 44 11 99-31 8-8-110-32-28 45-77-31-54h-58l-33 11-8-36 38-3-46-54 49-41 54 19-46 25 46 44 45-19-12-25z"/><path d="m3494 3162 24-60-28-14 28-38 42 12 8-38 48 24-6 38 32 126-396 330-532 16-448-52-232-202-108-116-60-168 72-36 32 24 100-16 88-92 20-90 60-8v68l84 14v32l-16 40 40 20 100-90 44-28-36-52-56 8-8-52 60-20 32 44 76-20 12-68-96-20 36-40v-64l52-128 32-54 48 16 32 46-88 104-16 64 56 8 56-80 28 24-76 104 20 96 84-36 54-64 50 24 12 56-128 60-80 70 4 42h80l64-68 20 42-68 56-20 40-136-4-20 40 44-4 48 56 40 120 32-8 68-116-8-32 44-48 68-20 4 40-60 32-4 60h60l16-76 52 4-40 124-76-20 24 72-64 40 12 40 124 22 72 16 20 36 64-20 12-54-64-40-44-48 28-56 64-56-50-54-2-2 4-64 9-16-12-44 34-24-6-28-24-20h-24l-18 30-30 10h-36l-20-18-2-36-2-26-28-24 10-42 32-56 4-29-18-33 11-50-6-49 31-6 15-14 6-20 14-1 6 27-28 49-3 25 22 29-6 70 14 36 27 5 43-121 26 4 18 108-44 14 4 42 34 32 8 34 24-2 10-68 42 16-20 72-31 52 9 33 3 16 32 21 6 49-17 18 3 24 34 23 52-92 36 44-60 80 68 56v44l-44 36 20 38 96-30 112-102zm-1144-110 72-20 28 96-56 52-44-128z" fill-rule="evenodd"/><path d="m2801 1458 52 1 51 4 50 7 50 9 49 11 47 13 47 16 46 18 45 20 43 23 42 24 41 26 40 28 38 30 36 32 36 33 33 35 32 37 30 38 28 39 26 41 24 43 22 43 21 45 18 45 16 47 13 48 11 48 9 50 7 50 4 51 1 52-1 52-4 51-7 50-9 50-11 48-13 48-16 47-18 45-21 45-22 43-24 43-26 41-28 39-30 38-32 37-33 35-36 33-36 32-38 30-40 28-41 26-42 24-43 23-45 20-46 18-47 16-47 13-49 11-50 9-50 7-51 4-52 1-52-1-51-4-50-7-49-9-49-11-48-13-46-16-46-18-44-20-44-23-42-24-41-26-39-28-38-30-37-32-35-33-33-35-32-37-30-38-28-39-26-41-24-43-23-43-20-45-18-45-16-47-13-48-11-48-9-50-7-50-4-51-1-52 1-52 4-51 7-50 9-50 11-48 13-48 16-47 18-45 20-45 23-43 24-43 26-41 28-39 30-38 32-37 33-35 35-33 37-32 38-30 39-28 41-26 42-24 44-23 44-20 46-18 46-16 48-13 49-11 49-9 50-7 51-4 52-1zm0-469 76 2 75 6 74 9 72 13 72 17 70 20 68 23 67 26 66 30 63 33 62 35 60 39 58 41 56 44 53 46 52 49 49 51 46 54 44 56 41 58 39 60 35 61 33 64 30 65 26 67 23 69 20 70 17 71 13 73 9 73 6 75 2 76-2 76-6 75-9 73-13 73-17 71-20 70-23 69-26 67-30 65-33 64-35 61-39 60-41 58-44 56-46 54-49 51-52 49-53 46-56 44-58 41-60 39-62 35-63 33-66 30-67 26-68 23-70 20-72 17-72 13-74 9-75 6-76 2-76-2-74-6-74-9-73-13-71-17-70-20-68-23-67-26-65-30-64-33-62-35-60-39-57-41-56-44-54-46-51-49-49-51-46-54-44-56-41-58-39-60-35-61-33-64-30-65-26-67-23-69-20-70-17-71-13-73-9-73-6-75-2-76 2-76 6-75 9-73 13-73 17-71 20-70 23-69 26-67 30-65 33-64 35-61 39-60 41-58 44-56 46-54 49-51 51-49 54-46 56-44 57-41 60-39 62-35 64-33 65-30 67-26 68-23 70-20 71-17 73-13 74-9 74-6 76-2z" fill="#ffea2c" fill-rule="evenodd"/><path d="m3824 2465-1-53-4-52-7-50-9-51-11-49-14-48-16-48-18-46-22-46-22-43-24-44-27-41-28-40-31-39-32-37-33-36-37-33-36-32-39-31-41-28-41-27-43-24-43-23-46-21-47-18-48-16-47-14-50-11-51-9-50-7-52-4-53-1v30l51 1 50 4 50 7 49 9 48 11 47 12 46 16 45 18 44 19 43 23 41 24 41 25 39 28 37 29 36 32 35 33 33 34 32 37 29 37 28 38 25 41 24 42 22 43 20 44 18 44 16 46 12 48 11 47 9 49 7 50 4 50 1 51zM2801 3487l53-1 52-4 50-7 51-9 50-11 47-14 48-16 47-18 46-21 43-23 43-24 41-27 41-28 39-31 36-32 37-33 33-36 32-37 31-39 28-40 27-41 24-44 22-43 22-46 18-46 16-48 14-48 11-49 9-51 7-50 4-52 1-53h-30l-1 51-4 50-7 50-9 49-11 47-12 48-16 46-18 44-20 44-22 43-24 42-25 41-28 38-29 37-32 37-33 34-35 33-36 32-37 29-39 28-41 25-41 24-43 23-44 19-45 18-46 16-47 12-48 11-49 9-50 7-50 4-51 1zM1780 2465l1 53 4 52 7 50 9 51 11 49 14 48 16 48 18 46 21 46 23 43 24 44 27 41 28 40 31 39 32 37 33 36 36 33 37 32 39 31 40 28 41 27 43 24 44 23 45 21 47 18 47 16 48 14 50 11 50 9 50 7 52 4 53 1v-30l-51-1-50-4-50-7-48-9-48-11-48-12-45-16-45-18-43-19-44-23-41-24-41-25-38-28-37-29-37-32-34-33-33-34-32-37-29-37-28-38-25-41-24-42-23-43-19-44-18-44-16-46-12-48-11-47-9-49-7-50-4-50-1-51zm1021-1022-53 1-52 4-50 7-50 9-50 11-48 14-47 16-47 18-45 21-44 23-43 24-41 27-40 28-39 31-37 32-36 33-33 36-32 37-31 39-28 40-27 41-24 44-23 43-21 46-18 46-16 48-14 48-11 49-9 51-7 50-4 52-1 53h30l1-51 4-50 7-50 9-49 11-47 12-48 16-46 18-44 19-44 23-43 24-42 25-41 28-38 29-37 32-37 33-34 34-33 37-32 37-29 38-28 41-25 41-24 44-23 43-19 45-18 45-16 48-12 48-11 48-9 50-7 50-4 51-1zm1492 1022-2-77-6-75-9-74-13-74-18-72-20-70-23-70-26-68-31-66-33-64-35-62-40-60-41-59-44-56-47-55-49-52-53-49-54-47-56-44-59-41-60-40-63-35-63-33-67-31-68-26-69-23-70-20-73-18-73-13-75-9-75-6-77-2v30l75 2 75 6 73 9 71 13 71 16 70 20 67 23 66 26 65 29 63 33 61 35 60 38 57 41 56 44 52 45 51 49 49 50 45 53 44 56 41 57 38 60 35 60 33 64 29 64 26 66 23 68 20 70 16 70 13 72 9 72 6 75 2 75z"/><path d="m2801 3956 77-2 75-6 75-9 73-13 73-18 70-20 69-23 68-26 67-31 63-33 63-35 60-40 59-41 56-44 54-47 53-49 49-52 47-55 44-56 41-59 40-60 35-62 33-64 31-66 26-68 23-70 20-70 18-72 13-74 9-74 6-75 2-77h-30l-2 75-6 75-9 72-13 72-16 70-20 70-23 68-26 66-29 64-33 64-35 60-38 60-41 57-44 56-45 53-49 50-51 49-52 45-56 44-57 41-60 38-61 35-63 33-65 29-66 26-67 23-70 20-71 16-71 13-73 9-75 6-75 2zM1311 2465l2 77 6 75 9 74 13 74 18 72 20 70 23 70 26 68 31 66 33 64 35 62 40 60 41 59 44 56 47 55 49 52 52 49 55 47 56 44 58 41 60 40 63 35 64 33 66 31 68 26 69 23 70 20 72 18 74 13 75 9 74 6 77 2v-30l-75-2-74-6-73-9-72-13-70-16-70-20-67-23-66-26-64-29-64-33-61-35-60-38-56-41-56-44-53-45-50-49-49-50-45-53-44-56-41-57-38-60-35-60-33-64-29-64-26-66-23-68-20-70-16-70-13-72-9-72-6-75-2-75zM2801 974l-77 2-74 6-75 9-74 13-72 18-70 20-69 23-68 26-66 31-64 33-63 35-60 40-58 41-56 44-55 47-52 49-49 52-47 55-44 56-41 59-40 60-35 62-33 64-31 66-26 68-23 70-20 70-18 72-13 74-9 74-6 75-2 77h30l2-75 6-75 9-72 13-72 16-70 20-70 23-68 26-66 29-64 33-64 35-60 38-60 41-57 44-56 45-53 49-50 50-49 53-45 56-44 56-41 60-38 61-35 64-33 64-29 66-26 67-23 70-20 70-16 72-13 73-9 74-6 75-2z"/><path d="m1718 2465 1 55 5 56 6 54 10 53 12 52 15 52 18 50 19 49 22 49 23 46 26 45 28 44 31 43 32 41 35 39 35 38 38 35 39 35 41 32 43 31 44 28 45 26 46 23 49 22 49 19 50 18 52 15 52 12 53 10 54 6 56 5 55 1v-12l-55-1-54-5-54-6-53-10-52-12-50-15-50-16-49-19-47-22-46-23-45-26-44-28-41-31-41-32-39-33-38-35-35-38-33-39-32-41-31-41-28-44-26-45-23-46-22-47-19-49-16-50-15-50-12-52-10-53-6-54-5-54-1-55zm1084-1084-55 1-56 5-54 6-53 10-52 12-52 15-50 18-49 19-49 22-46 23-45 26-44 28-43 31-41 32-39 35-38 35-35 38-35 39-32 41-31 43-28 44-26 45-23 46-22 49-19 49-18 50-15 52-12 52-10 53-6 54-5 56-1 55h12l1-55 5-54 6-54 10-53 12-52 15-50 16-50 19-49 22-47 23-46 26-45 28-44 31-41 32-41 33-39 35-38 38-35 39-33 41-32 41-31 44-28 45-26 46-23 47-22 49-19 50-16 50-15 52-12 53-10 54-6 54-5 55-1zm1084 1084-1-55-5-56-6-54-10-53-12-52-15-52-18-50-19-49-22-49-23-46-26-45-28-44-31-43-32-41-35-39-35-38-38-35-39-35-41-32-43-31-44-28-45-26-46-23-49-22-49-19-50-18-52-15-52-12-53-10-54-6-56-5-55-1v12l55 1 54 5 54 6 53 10 52 12 50 15 50 16 49 19 47 22 46 23 45 26 44 28 41 31 41 32 39 33 38 35 35 38 33 39 32 41 31 41 28 44 26 45 23 46 22 47 19 49 16 50 15 50 12 52 10 53 6 54 5 54 1 55zM2802 3549l55-1 56-5 54-6 53-10 52-12 52-15 50-18 49-19 49-22 46-23 45-26 44-28 43-31 41-32 39-35 38-35 35-38 35-39 32-41 31-43 28-44 26-45 23-46 22-49 19-49 18-50 15-52 12-52 10-53 6-54 5-56 1-55h-12l-1 55-5 54-6 54-10 53-12 52-15 50-16 50-19 49-22 47-23 46-26 45-28 44-31 41-32 41-33 39-35 38-38 35-39 33-41 32-41 31-44 28-45 26-46 23-47 22-49 19-50 16-50 15-52 12-53 10-54 6-54 5-55 1z"/><path d="m1391 2465 2 72 5 72 9 71 13 69 15 67 19 68 23 65 26 64 28 63 31 61 34 59 36 57 40 56 41 53 46 51 46 49 49 46 51 46 53 41 56 40 57 36 59 34 61 31 63 28 64 26 65 23 68 19 67 15 69 13 71 9 72 5 72 2v-12l-72-2-70-5-71-9-69-13-67-15-66-19-65-21-64-26-61-28-61-31-59-34-57-36-54-40-53-41-51-44-49-46-46-49-44-51-41-53-40-54-36-57-34-59-31-61-28-61-26-64-21-65-19-66-15-67-13-69-9-71-5-70-2-72zm1411-1411-72 2-72 5-71 9-69 13-67 15-68 19-65 23-64 26-63 28-61 31-59 34-57 36-56 40-53 41-51 46-49 46-46 49-46 51-41 53-40 56-36 57-34 59-31 61-28 63-26 64-23 65-19 68-15 67-13 69-9 71-5 72-2 72h12l2-72 5-70 9-71 13-69 15-67 19-66 21-65 26-64 28-61 31-61 34-59 36-57 40-54 41-53 44-51 46-49 49-46 51-44 53-41 54-40 57-36 59-34 61-31 61-28 64-26 65-21 66-19 67-15 69-13 71-9 70-5 72-2zm1411 1411-2-72-5-72-9-71-13-69-15-67-19-68-23-65-26-64-28-63-31-61-34-59-36-57-40-56-41-53-46-51-46-49-49-46-51-46-53-41-56-40-57-36-59-34-61-31-63-28-64-26-65-23-68-19-67-15-69-13-71-9-72-5-72-2v12l72 2 70 5 71 9 69 13 67 15 66 19 65 21 64 26 61 28 61 31 59 34 57 36 54 40 53 41 51 44 49 46 46 49 44 51 41 53 40 54 36 57 34 59 31 61 28 61 26 64 21 65 19 66 15 67 13 69 9 71 5 70 2 72zM2802 3876l72-2 72-5 71-9 69-13 67-15 68-19 65-23 64-26 63-28 61-31 59-34 57-36 56-40 53-41 51-46 49-46 46-49 46-51 41-53 40-56 36-57 34-59 31-61 28-63 26-64 23-65 19-68 15-67 13-69 9-71 5-72 2-72h-12l-2 72-5 70-9 71-13 69-15 67-19 66-21 65-26 64-28 61-31 61-34 59-36 57-40 54-41 53-44 51-46 49-49 46-51 44-53 41-54 40-57 36-59 34-61 31-61 28-64 26-65 21-66 19-67 15-69 13-71 9-70 5-72 2z"/><path d="m1818 1772 4 3 6 4 6 5 5 4 5 5 4 5 3 6 2 5 2 6 1 6 1 6-1 6-1 6-1 6-3 6-3 6-3 6-3 5-5 6-4 5-5 4-5 4-5 3-5 2-5 2-4 1-4 1h-9l-5-1-5-1-5-1-5-1-6-2-6-3-6-4-8-3-8-5-8-5-10-5-10-6-7-4-6-5-6-4-5-4-6-4-5-3-4-3-4-3-6-6-5-7-5-7-3-6-3-6-2-7v-19l1-4 1-4 1-4 2-4 2-4 2-4 2-4 4-6 5-5 4-5 5-4 5-3 5-3 5-2 5-1 6-1h6l6 1 7 1 6 2 7 2 6 3 7 4-16 26-3-2-8-4-8-3-7-1h-6l-6 1-6 3-5 4-4 6-3 5-2 4-1 4-1 4v5l1 4 2 4 1 4 2 4 4 4 4 5 6 4 3 3 5 3 4 3 6 4 6 5 8 4 7 6 9 5 10 6 10 5 8 5 9 4 7 3 6 3 6 1 5 1h9l4-1 4-2 3-2 4-3 3-4 3-4 3-7 2-7v-7l-2-6-3-7-5-6-7-6-8-6-3-2 16-26zm81 8-171-139 19-23 171 138-19 24zm68-82-142-137-37 39-16-16 94-98 16 16-36 38 142 136-21 22zm101-98-60-68-127-59 25-22 99 51-35-107 22-19 40 138 58 67-22 19zm220-268 4 8 3 7 3 7 3 6 3 6 2 6 2 5 2 4 1 4 1 4 1 4 1 4v4l1 3v11l-1 4-1 4-1 4-1 3-2 4-2 4-2 3-6 6-7 6-8 6-8 4-7 4-8 2-7 2-7 1-7 1-6-1-7-1-6-2-7-3-6-5-6-5-6-6-3-4-4-6-4-6-4-6-4-8-5-8-5-9-5-9-4-8-4-8-3-7-3-7-3-6-2-5-2-6-2-4-3-8-1-8-1-7v-6l1-8 2-7 3-8 5-6 5-7 7-7 7-5 9-5 7-3 8-3 7-2 7-1 7-1 7 1 6 1 7 2 6 4 7 5 6 5 6 7 3 4 4 5 4 6 4 7 4 7 5 9 5 9 5 10v-1zm-28 12-6-12-6-10-6-10-5-8-5-7-4-5-4-5-4-3-4-2-4-2-4-1h-10l-5 1-5 1-5 2-4 3-3 2-3 3-3 3-2 4-2 4-1 4-1 4v11l1 6 2 6 1 4 2 4 2 5 2 6 3 6 3 7 4 8 4 8 4 7 4 6 3 6 3 5 2 5 2 4 2 4 2 3 4 5 3 5 4 4 3 3 5 3 5 3 5 2 4 1h5l5-2 6-1 5-3 9-5 6-7 4-7 1-9v-5l-1-7-2-7-2-8-4-10-4-10-5-10-6-12zm112 68-72-207 100-34 8 22-72 25 23 67 68-24 8 23-68 24 32 95-27 9zm203-60-39-216 29-5 33 191 74-13 5 26-102 17zm127-17-19-219 30-3 19 219-30 3zm109-4 3-197-54-1v-22l136 2v22h-52l-4 197-29-1zm142 11 24-196-53-6 2-23 135 17-3 22-52-6-24 196-29-4zm103 17 57-213 27 8-50 187 73 20-7 25-100-27zm124 36 79-205 102 39-8 23-76-29-25 65 73 29-8 23-74-28-27 71 75 29-9 22-102-39zm286 1 18 12 5 3 5 2 4 2 5 1 4 1 4 1h7l7-2 6-4 6-6 6-7 4-7 2-7 1-6-1-6-2-6-4-5-5-5-6-5-28-17-38 61zm75-65 7 5 7 4 5 5 5 5 4 5 4 4 2 5 2 4 2 5v16l-2 5-2 6-3 5-3 6-6 9-6 6-7 6-7 4-4 1-4 1-4 1h-13l-5-1-4-2 6 6 5 6 3 6 1 6v3l-1 4-1 4-1 4-2 4-2 5-2 4-3 5-1 2-1 3-2 3-2 3-2 2-1 2-2 2-1 2-3 5-3 5-3 5-2 5-2 5-2 6-2 5-1 5-26-16 1-4 2-4 2-5 2-6 3-5 3-7 4-6 4-7 3-5 3-4 2-4 2-3 4-7 3-7 1-6v-5l-1-4-3-5-4-4-5-4-29-18-53 85-25-16 117-186 49 31zm145 256-6 7-5 6-6 5-5 5-4 5-5 4-3 4-4 3-6 5-7 5-6 3-6 2-4 2-4 1-4 1h-16l-4-1-4-2-4-1-4-2-4-3-4-2-4-3-3-3-4-3-6-5-5-6-5-6-4-6-3-6-2-7-1-6-1-7v-3l1-4v-4l1-4 2-4 1-4 3-4 2-4 3-4 3-5 4-6 4-6 5-7 6-7 7-8 7-8 6-7 5-6 6-6 5-6 4-5 5-4 3-4 4-3 7-5 6-4 6-4 6-2 4-1 4-1 4-1 4-1h7l4 1 4 1 4 1 4 2 5 2 4 2 4 2 4 3 3 3 4 3 6 6 5 5 5 6 4 6 3 6 2 7 1 7v10l-1 4v4l-1 4-2 4-1 4-2 4-2 4-3 5-3 5-4 6-5 6-5 7-6 8-7 8-7 8 1-1zm-22-21 9-10 8-9 6-9 6-8 5-7 3-6 3-6 1-5 1-4v-5l-1-4-1-5-2-4-3-4-3-4-4-4-4-2-4-2-4-2-4-2-4-1h-13l-5 2-4 3-5 4-5 4-3 2-4 3-4 4-4 4-5 5-5 6-5 6-6 7-5 6-5 6-5 5-3 5-4 4-3 3-3 3-2 3-3 6-3 5-2 5-2 4-2 5v11l1 5 2 4 3 4 3 5 4 4 4 3 5 3 4 2 5 2h13l4-2 4-2 6-3 6-5 6-5 7-7 8-7 8-9 9-10zm108 187-4 4-6 4-6 4-6 3-6 3-6 2-6 1h-12l-6-1-6-1-5-2-6-3-5-4-5-3-5-5-5-5-4-6-3-6-3-6-3-5-2-6-1-6-1-5v-5l1-4 1-4 1-5 2-4 2-4 2-5 3-4 3-4 4-5 4-5 6-5 6-6 6-6 8-7 8-7 9-8 6-5 6-5 6-4 6-4 5-4 5-3 4-3 4-2 4-2 4-2 4-2 4-1 4-2 4-1h3l4-1 7-1 7 1 7 2 7 3 7 3 7 5 6 6 6 7 5 6 3 5 3 6 3 6 1 6 1 6v11l-1 6-2 5-3 6-3 5-4 6-4 5-5 5-6 5-20-24 2-1 7-7 6-6 3-6 2-6 1-6-1-7-3-6-4-6-3-4-4-3-3-2-4-2-4-1-4-1h-8l-5 1-5 1-6 3-6 4-3 2-5 3-5 4-5 4-6 5-7 5-7 6-8 6-9 8-8 7-8 7-6 6-6 6-4 5-4 5-2 4-2 4v4l-1 5 1 4 1 4 1 5 2 4 3 4 6 5 6 4 6 3h10l4-1 4-1 4-2 4-2 4-2 4-3 4-4 3-1 19 23zm-31 74 186-117 14 24-78 49 113 6 17 27-121-7-63 128-17-28 59-119-96 60-14-23zM2133 3553l53 31 29-106-82 75zm33 111 14-53-67-40-40 38-27-16 172-154 30 19-55 223-27-17zm154-64 20 8 5 2 5 1 5 1 4 1h12l4-1 6-3 6-6 5-7 4-9 2-7 1-7-1-6-2-6-3-5-4-5-6-4-7-3-30-12-26 68zm60-79 8 3 7 4 7 4 6 4 5 4 5 4 3 4 3 4 2 4 2 5v5l1 6v5l-1 6-2 6-2 6-4 10-5 7-6 7-6 5-4 2-3 2-4 2-4 1-5 1h-9l-5-1 7 4 6 5 4 6 2 6 1 3v12l-1 4-1 5-1 5-2 5-1 3-1 2-1 3-1 3-1 3-2 3-1 2-1 2-2 5-2 6-1 6-1 5-2 6-1 5v11l-29-11v-4l1-5 1-5 1-6 2-6 2-7 3-7 3-7 2-6 1-5 2-4 1-3 3-8 1-7v-6l-1-5-2-4-3-4-4-3-6-3-33-12-35 93-28-10 79-205 53 20zm59 252 53-213 27 7-22 90 86-74 31 7-92 79 44 136-33-8-39-127-28 110-27-7zm219-37 62 6-21-108-41 102zm78 86-10-54-78-7-20 52-31-2 88-213 34 3 49 224-32-3zm212-33-1-5v-5l-1-4v-5l-1-5v-5l-1-4v-5l-14-155 27-2 19 219-40 4-101-192 1 7 1 6 2 6v6l1 4 1 4v4l1 4 13 158-26 2-19-219 41-4 97 186zm82-49 30-7 1 4 3 9 4 8 3 6 4 5 6 3 6 1h7l8-1 7-2 7-4 6-4 4-4 4-6 2-7v-6l-1-7-1-4-3-5-4-4-6-5-7-4-8-4-9-4-11-4-3-1-3-1-3-1-2-1-9-3-7-3-8-3-6-3-5-3-5-3-3-2-3-3-6-5-4-7-4-8-3-8-1-6v-12l1-5 1-6 2-5 3-5 3-5 4-5 4-4 4-4 5-3 6-3 6-3 6-2 7-2 7-1 7-1h13l6 1 5 1 5 2 5 2 4 3 5 4 3 4 4 4 3 5 3 6 2 6 1 7 2 4-30 7v-4l-3-8-3-7-4-5-4-4-6-3-7-2h-7l-7 1-7 2-5 3-6 4-4 5-2 5-2 6v12l2 5 3 5 5 5 6 5 7 5 9 4 10 5 11 4 5 2 4 2 3 1 2 1 7 3 7 2 6 3 5 2 5 3 4 2 3 3 3 2 5 5 4 6 4 7 2 7 2 7v18l-2 6-1 6-3 5-3 5-4 4-4 5-5 3-5 4-6 3-7 3-6 3-8 2-8 1-7 1-7 1-6-1h-6l-6-1-5-2-5-3-5-3-4-4-4-4-3-4-3-6-3-5-2-6-2-7-1-1v-7zm222-78 57-23-66-87 9 110zm108 43-34-44-73 27 6 55-29 12-15-230 32-12 142 181-29 11zm43-94 27-16 2 3 5 8 6 7 6 5 5 3 6 1 6-1 7-1 8-4 6-4 5-5 4-6 3-6 2-7v-7l-2-6-2-6-3-4-5-3-5-3-7-3-8-2-9-1-10-1-11-1h-12l-9-1h-8l-8-1-6-1-6-2-6-1-4-2-4-1-7-4-6-5-5-6-5-8-3-5-2-6-1-5-1-5-1-6 1-5v-6l2-6 2-5 3-5 3-5 4-5 4-5 5-4 5-4 6-4 7-3 6-3 6-2 7-2 5-1h12l5 1 5 1 5 3 5 3 4 3 5 4 4 5 3 5 4 5 3 4-26 16-2-4-5-7-5-6-5-4-5-2-6-1h-7l-7 2-7 4-6 4-4 4-4 5-2 6-2 6v6l2 6 2 5 3 4 5 4 6 4 7 3 9 2 9 2 12 2 12 1h11l3 1h8l7 1h6l6 1 5 1 5 1 4 2 3 1 6 4 6 4 5 6 5 6 3 6 2 6 2 6 1 6 1 6v6l-1 5-1 6-2 5-3 5-4 5-4 5-4 5-6 4-6 5-6 4-7 4-7 3-6 2-7 2-6 1-6 1h-5l-5-1-5-2-6-2-5-3-4-4-5-4-4-5-4-5-4-6h-1v-2l-1-1-1-1v-2z" fill-rule="evenodd"/><circle cx="1670" cy="1948" r="35"/><circle cx="3926" cy="1948" r="35"/><circle cx="2044" cy="3449" r="35"/><circle cx="3587" cy="3449" r="35"/><path d="m3028 1706-348 2-108-4 14 142-9 226 14 11 17-3 15 5v67l304 3 8-18-2-27-8-20 5-25 12-23 8-21 15-22 10-22 12-6 9-27 9-24 13-10 3-19 18-13-4-18 4-21 22-20-9-14 24-15 4-12-11-8h-62l16-25 15-12-2-17h-7l-1-10z"/><path d="m2680 1718 348-2v-20l-348 2-7 3-3 7 3 7 7 3z"/><path d="m2582 1703-10 11 108 4v-20l-108-4-10 11 10-11-7 3-3 7 3 7 7 3z"/><path d="M2596 1846v-1l-14-142-20 2 14 142v-1 1l4 7 7 2 6-3 3-8z"/><path d="m2583 2064 4 8 9-226h-20l-9 226 4 8-4-8 3 7 7 3 7-3 3-7z"/><path d="m2589 2073 8 2-14-11-12 16 14 11 8 2-8-2 8 2 6-4 2-7-4-7z"/><path d="M2611 2070h-5l-17 3 4 20 17-3h-5 5l7-4 1-8-4-6-8-2z"/><path d="m2633 2085-7-10-15-5-6 20 15 5-7-10 7 10 8-1 5-6-1-8-6-5z"/><path d="m2623 2142 10 10v-67h-20v67l10 10-10-10 3 7 7 3 7-3 3-7z"/><path d="m2918 2151 9-6-304-3v20l304 3 9-6-9 6 7-3 3-7-3-7-7-3z"/><path d="m2925 2138 1-5-8 18 18 8 8-18 1-5-1 5v-8l-5-5-7-1-6 6z"/><path d="M2923 2114v-3l2 27 20-2-2-27v-3 3l-4-7-7-2-6 3-3 8z"/><path d="M2915 2088v6l8 20 20-8-8-20v6-6l-6-6h-8l-6 5v9z"/><path d="m2921 2060-1 3-5 25 20 4 5-25-1 3 1-3-2-8-6-4-8 1-4 7z"/><path d="m2932 2038 1-1-12 23 18 10 12-23 1-1-1 1 1-8-5-6-8-1-6 5z"/><path d="m2942 2015-2 2-8 21 20 8 8-21-2 2 2-2v-9l-6-5h-8l-6 6z"/><path d="m2956 1995 1-2-15 22 16 12 15-22 1-2-1 2 2-8-4-6-7-2-7 4z"/><path d="m2970 1968-4 5-10 22 18 8 10-22-4 5 4-5v-8l-5-5-7-1-6 6z"/><path d="m2977 1968 5-6-12 6 10 18 12-6 5-6-5 6 5-6-1-8-6-5-8 1z"/><path d="M2986 1940v1l-9 27 20 6 9-27v1-1l-1-8-6-5-8 1-5 6z"/><path d="m2999 1912-4 4-9 24 20 8 9-24-4 4 4-4v-9l-6-5h-8l-6 6z"/><path d="m3008 1908 4-6-13 10 12 16 13-10 4-6-4 6 4-7-2-7-6-4-8 2z"/><path d="m3015 1883-4 6-3 19 20 4 3-19-4 6 4-6-2-8-6-4-8 1-4 7z"/><path d="m3029 1880 4-10-18 13 12 16 18-13 4-10-4 10 4-7-2-7-6-4-8 2z"/><path d="M3025 1858v4l4 18 20-4-4-18v4-4l-4-7-7-1-7 4-2 8z"/><path d="m3032 1831-3 6-4 21 20 4 4-21-3 6 3-6-2-8-6-4-8 1-4 7z"/><path d="m3052 1825 2-14-22 20 14 16 22-20 2-14-2 14 3-8-2-7-7-4-8 3z"/><path d="m3047 1796-4 15 9 14 18-12-9-14-4 15 4-15-7-5-8 2-5 6 2 9z"/><path d="m3066 1787 5-6-24 15 10 18 24-15 5-6-5 6 5-6-1-8-6-5-8 1z"/><path d="m3074 1786-4-11-4 12 20 6 4-12-4-11 4 11-1-8-6-5-8 1-5 6z"/><path d="m3069 1780-6-2 11 8 12-16-11-8-6-2 6 2-7-2-6 4-3 7 4 7z"/><path d="m2998 1765 9 15h62v-20h-62l9 15-9-15-7 3-3 7 3 7 7 3z"/><path d="m3017 1737-3 3-16 25 18 10 16-25-3 3 3-2 2-9-5-6-8-2-7 5z"/><path d="m3028 1734 4-9-15 12 12 16 15-12 4-9-4 9 4-7-2-7-6-4-8 2z"/><path d="m3036 1726-10-9 2 17 20-2-2-17-10-9 10 9-4-7-7-2-6 3-3 8z"/><path d="m3019 1717 10 9h7v-20h-7l10 9-10-9-7 3-3 7 3 7 7 3z"/><path d="m3028 1716-10-9 1 10 20-2-1-10-10-9 10 9-4-7-7-2-6 3-3 8z"/><path d="m3018 1692-348 2-108-4 15 143-10 226 14 10 17-2 15 4v68l304 3 8-19-2-26-8-20 5-26 12-22 9-21 15-23 9-22 12-5 9-28 9-24 13-9 3-19 18-13-4-18 4-21 22-21-9-13 24-15 4-13-11-7h-62l16-26 15-11-2-17h-7l-1-11z" fill="#df2424"/><path d="m2670 1704 348-2v-20l-348 2-7 3-3 7 3 7 7 3z"/><path d="m2572 1689-10 11 108 4v-20l-108-4-10 11 10-11-7 3-3 7 3 7 7 3z"/><path d="M2587 1833v-1l-15-143-20 2 15 143v-1 1l4 7 7 2 6-3 3-8z"/><path d="m2573 2051 4 8 10-226h-20l-10 226 4 8-4-8 3 7 7 3 7-3 3-7z"/><path d="m2580 2059 7 2-14-10-12 16 14 10 7 2-7-2 8 2 6-4 2-7-4-7z"/><path d="M2601 2057h-4l-17 2 2 20 17-2h-4 4l7-4 2-7-3-6-8-3z"/><path d="m2623 2071-7-10-15-4-6 20 15 4-7-10 7 10 8-1 5-6-1-8-6-5z"/><path d="m2613 2129 10 10v-68h-20v68l10 10-10-10 3 7 7 3 7-3 3-7z"/><path d="m2908 2138 9-6-304-3v20l304 3 9-6-9 6 7-3 3-7-3-7-7-3z"/><path d="m2915 2124 1-5-8 19 18 8 8-19 1-5-1 5v-8l-5-5-7-1-6 6z"/><path d="M2913 2101v-3l2 26 20-2-2-26v-3 3l-4-7-7-2-6 3-3 8z"/><path d="M2905 2075v6l8 20 20-8-8-20v6-6l-6-6h-8l-6 5v9z"/><path d="m2911 2046-1 3-5 26 20 4 5-26-1 3 1-3-2-8-6-4-8 1-4 7z"/><path d="M2923 2025v-1l-12 22 18 10 12-22v-1 1l1-8-5-6-8-1-6 5z"/><path d="M2932 2002v2l-9 21 18 8 9-21v2-10l-5-5-7-1-6 6z"/><path d="M2947 1981v-2l-15 23 18 12 15-23v-2 2l2-9-5-6-8-2-7 5z"/><path d="m2961 1954-5 5-9 22 18 8 9-22-5 5 5-5v-8l-5-5-7-1-6 6z"/><path d="m2967 1955 6-6-12 5 8 18 12-5 6-6-6 6 6-6-1-7-5-5h-8z"/><path d="M2976 1926v1l-9 28 20 6 9-28v1-1l-1-8-6-5-8 1-5 6z"/><path d="m2989 1898-4 4-9 24 20 8 9-24-4 4 4-4v-9l-6-5h-8l-6 6z"/><path d="m2998 1895 4-6-13 9 12 16 13-9 4-6-4 6 4-7-2-7-6-4-8 2z"/><path d="m3005 1870-4 6-3 19 20 4 3-19-4 6 4-6-2-8-6-4-8 1-4 7z"/><path d="m3019 1867 4-10-18 13 12 16 18-13 4-10-4 10 4-7-2-7-6-4-8 2z"/><path d="M3015 1845v4l4 18 20-4-4-18v4-4l-4-7-7-1-7 4-2 8z"/><path d="m3022 1819-3 5-4 21 20 4 4-21-3 5 3-5-2-8-6-4-8 1-4 7z"/><path d="m3043 1811 1-13-22 21 14 14 22-21 1-13-1 13 3-7-3-7-7-3-7 3z"/><path d="m3037 1783-3 15 9 13 16-12-9-13-3 15 3-15-7-4-7 2-4 6 2 8z"/><path d="m3056 1774 5-6-24 15 10 18 24-15 5-6-5 6 5-6-1-8-6-5-8 1z"/><path d="m3065 1773-5-12-4 13 20 6 4-13-5-12 5 12-1-8-6-5-8 1-5 6z"/><path d="m3059 1767-5-1 11 7 10-18-11-7-5-1 6 1-9-2-6 5-2 8 5 7z"/><path d="m2988 1752 9 15h62v-20h-62l9 15-9-15-7 3-3 7 3 7 7 3z"/><path d="m3007 1723-3 3-16 26 18 10 16-26-3 3 3-3 1-8-5-6-8-1-6 5z"/><path d="m3018 1721 4-9-15 11 12 16 15-11 4-9-4 9 4-7-2-7-6-4-8 2z"/><path d="m3026 1713-10-9 2 17 20-2-2-17-10-9 10 9-4-7-7-2-6 3-3 8z"/><path d="m3009 1704 10 9h7v-20h-7l10 9-10-9-7 3-3 7 3 7 7 3z"/><path d="m3018 1702-10-9 1 11 20-2-1-11-10-9 10 9-4-7-7-2-6 3-3 8z"/><path d="M2668 1888h100l31-94 32 94h100l-82 60 30 95-80-59-81 59 32-95-82-60z" fill="#ffea2c"/><path d="m1578 2525 16 3-25-55-18 8 25 55 16 3-16-3 6 5h7l5-5v-8z"/><path d="m1606 2519-17-7-11 13 14 14 11-13-17-7 17 6 2-7-3-6-6-2-7 3z"/><path d="m1616 2582 1 1-3-3-3-6-3-6v-8l-1-11-1-9v-21h-20v21l1 11 1 11 2 10 3 10 5 10 9 7 1 1z"/><path d="m1669 2560-16-10-5 6-6 6-6 7-5 6-5 4-5 3h-5l-8 18 10 2 9-2 9-5 7-6 7-6 6-7 6-6 5-6-16-10 16 10 3-7-3-7-7-3-7 3z"/><path d="m1658 2577 2 10 9-27-18-6-9 27 2 10-2-10 1 8 5 4h7l5-6z"/><path d="m1670 2596-2-9-10-10-14 14 10 10-2-9 2 9 7 3 7-3 3-7-3-7z"/><path d="m1659 2672-1-2-1-6 1-9v-10l3-12 3-12 3-13 3-12-18-4-3 12-3 13-3 12-3 12-2 12-1 11 3 12 5 10z"/><path d="m1734 2639-15-11-15 13-12 10-12 9-8 5-8 5-5 1h-1l1 1-14 14 9 5h9l9-3 10-5 10-7 12-9 12-10 15-13-15-11 15 11 3-7-2-7-6-4-7 2z"/><path d="m1709 2674 9 13 16-48-18-6-16 48 9 13-9-13 1 8 5 4h7l5-6z"/><path d="m1735 2689-8-16-18 1v20l18-1-8-16 8 16 7-3 3-7-3-7-7-3z"/><path d="M1693 2777v-7l3-9 4-10 5-11 6-12 7-13 8-13 9-13-16-12-9 15-8 13-7 13-8 12-5 13-4 12-3 11-2 11z"/><path d="m1752 2768-14-12-9 6-10 7-10 7-8 5-7 2-1 1h1l-1-7h-20l3 15 9 10 13 1 11-4 10-7 10-7 10-7 9-6-14-12 14 12 4-6-1-7-6-4-7 1z"/><path d="M1741 2784v7l11-23-18-8-11 23v7-7 8l5 5h7l6-5z"/><path d="m1742 2803 2-9-3-10-18 6 3 10 2-9-2 9 5 6 7 1 5-5 1-8z"/><path d="m1709 2860-2-2 2 2v-4l4-7 4-9 6-11 7-9 7-9 5-8-14-12-7 8-7 9-7 11-6 11-6 11-4 9-2 10 4 12-2-2z"/><path d="m1743 2853-14-12-7 5-6 5-5 4-4 3h-2l3 1 1 1-18 10 5 5 7 3h7l7-4 4-3 7-4 6-5 7-7-14-12 14 12 3-7-2-7-6-3-7 3z"/><path d="M1729 2865v10l14-22-16-10-14 22v10-10l-1 7 5 5 6 2 6-4z"/><path d="M1736 2888v-11l-7-12-16 10 7 12v-11 11l6 5 7-1 4-6-1-8z"/><path d="m1693 2939-3 7 7-7 6-8 5-7 6-7 5-7 7-7 5-8 5-7-16-12-5 7-5 8-5 7-5 7-6 7-5 7-6 6-7 7-3 7 3-7-3 7 3 7 7 3 7-3z"/><path d="m1676 2972 17-7v-26h-20v26l17-7-17 7 3 7 7 3 7-3 3-7z"/><path d="m1665 2955-8-3 19 20 14-14-19-20-8-3 8 3-7-3-7 3-3 7 3 7z"/><path d="M1558 2925v20l13 3 14 2 14 3 13 1 13 2h27l13-1-2-20-11 1h-25l-13-2-13-1-12-3-14-2-13-3v20-20l-7 2-4 6 1 8 6 4z"/><path d="m1573 2913-1-1v1l-2 3-5 6-7 3 4 20 15-7 9-10 6-13-4-15-1-1z"/><path d="m1500 2877 6 5 11 3 10 2 9 3 10 3 8 4 6 4 7 5 6 7 14-14-8-7-7-7-10-6-10-4-10-3-9-5-12-2-11-3 6 5-6-5-7 2-4 6 1 8 6 4z"/><path d="m1500 2872-6-5 6 10 16-10-6-10-6-5 6 5-6-4-6 1-5 6 1 7z"/><path d="m1473 2846 1 20 26 6 4-20-26-6 1 20-1-20-7 2-4 6 1 8 6 4z"/><path d="M1533 2819h1l-3 2-3 4-7 3-10 5-10 5-13 4-15 4 6 20 15-6 13-4 12-5 10-5 9-5 7-6 5-6 3-10zm-80-92-2 19 18 11 17 9 14 11 12 10 10 10 6 8 4 8 1 6h20l-3-12-6-12-8-12-12-10-12-12-16-11-17-11-18-11-2 19 2-19-7-1-5 5-2 8 4 6z"/><path d="m1465 2738 4-16-16 5 6 20 16-5 4-16-4 16 6-5v-8l-4-6-8-1z"/><path d="m1436 2673-11 15 40 50 14-12-40-50-11 15 11-15-7-4-6 2-3 6 2 8z"/><path d="M1525 2693h1l-6 2-8 1-11-1-13-3-12-4-14-3-13-6-13-6-8 18 13 6 15 6 14 5 14 4 15 3 13 1 12-1 12-6h1z"/><path d="m1484 2611-4 17 11 11 11 12 10 10 7 11 5 9 3 8v3l-2 1 12 16 8-11v-13l-3-12-7-11-9-13-10-12-11-12-11-11-4 17 4-17-7-3-7 3-3 7 3 7z"/><path d="m1492 2622 5-15-13 4 6 20 13-4 5-15-5 15 6-5v-8l-4-6-8-1z"/><path d="m1477 2565-13 13 28 44 16-10-28-44-13 13 13-13-6-4-6 1-5 6 1 7z"/><path d="M1533 2593v1l-4 2h-3l-6-1-7-4-8-6-10-7-9-7-9-6-10 16 7 6 9 7 10 7 10 8 11 4 12 3 11-2 10-8v1z"/><path d="m1534 2520-10 13 3 8 3 9 3 9 3 9 1 7v7l-1 6-3 5 14 14 7-11 3-12v-11l-3-11-3-9-3-9-3-9-3-8-10 13 10-13-5-6h-7l-5 4-1 8z"/><path d="m1541 2529 10-8-17-1-2 20 17 1 10-8-9 8 7-3 3-6-3-7-7-4z"/><path d="m1569 2473-18 2-10 54 18 4 10-54-18 2 18-2-2-8-5-4-7 1-4 7zm23 239-8-12-9-12-8-11-8-11-9-10-9-10-9-9-9-8 11 12 10 12 9 14 10 14 8 14 9 15 8 14 8 15 2 10 3 10 2 9 3 10 3 10 3 9 2 10 3 9-12-11-13-10-13-10-12-10-13-9-13-9-14-8-13-8 15 10 14 12 14 11 14 13 14 12 13 13 13 14 13 13 2 7 3 7 2 6 2 6 2 6 3 6 2 6 3 6-12-5-12-5-12-5-11-4-12-3-11-3-11-2-11-1 13 4 13 5 13 6 12 5 13 7 12 7 11 8 12 8 5 11 5 11 6 10 5 11 5 10 6 10 5 10 6 10 5 10 6 10 6 10 6 9 6 10 6 9 6 10 6 9 17-11-13-15-13-16-12-18-13-20-12-20-11-22-12-23-10-24 5-11 5-11 4-12 5-11 5-12 5-12 6-12 7-12-6 8-7 9-6 11-7 10-6 10-6 10-6 10-5 8-3-7-2-6-3-7-2-7-3-6-2-7-2-7-2-7 5-15 6-15 5-16 5-16 5-16 6-16 6-15 7-15-8 12-8 13-6 14-6 14-6 13-5 14-6 12-7 11-3-8-2-9-3-9-3-9-3-9-3-9-2-9-3-9 6-17 5-17 3-16 3-16 3-16 3-16 4-17 4-17-6 15-4 14-4 14-3 14-3 14-3 14-5 13-6 14-3-10-2-11-3-10-2-11-2-10-2-10-2-11-2-10-2-10-1-10-2-10-1-10-1-10-1-10-1-10-1-10v19l1 19 1 19 2 19 3 20 3 20 3 20 4 20zm2440-187-16 3 25-55 18 8-25 55-16 3 16-3-6 5h-7l-5-5v-8z"/><path d="m4004 2519 17-7 11 13-14 14-11-13 17-7-17 6-2-7 3-6 6-2 7 3z"/><path d="m3994 2582-1 1 3-3 3-6 3-6v-8l1-11 1-9v-21h20v21l-1 11-1 11-2 10-3 10-5 10-9 7-1 1z"/><path d="m3941 2560 16-10 5 6 6 6 6 7 5 6 5 4 5 3h5l8 18-10 2-9-2-9-5-7-6-7-6-6-7-6-6-5-6 16-10-16 10-3-7 3-7 7-3 7 3z"/><path d="m3952 2577-2 10-9-27 18-6 9 27-2 10 2-10-1 8-5 4h-7l-5-6z"/><path d="m3940 2596 2-9 10-10 14 14-10 10 2-9-2 9-7 3-7-3-3-7 3-7z"/><path d="m3951 2672 1-2 1-6-1-9v-10l-3-12-3-12-3-13-3-12 18-4 3 12 3 13 3 12 3 12 2 12 1 11-3 12-5 10z"/><path d="m3876 2639 15-11 15 13 12 10 11 9 10 5 7 5 5 1h1l-1 1 14 14-9 5h-9l-9-3-9-5-10-7-13-9-12-10-15-13 15-11-15 11-3-7 2-7 6-4 7 2z"/><path d="m3901 2674-9 13-16-48 18-6 16 48-9 13 9-13-1 8-5 4h-7l-5-6z"/><path d="m3875 2689 8-16 18 1v20l-18-1 8-16-8 16-7-3-3-7 3-7 7-3z"/><path d="M3917 2777v-7l-3-9-4-10-5-11-6-12-7-13-8-13-9-13 16-12 9 15 8 13 7 13 8 12 5 13 4 12 3 11 2 11z"/><path d="m3858 2768 14-12 9 6 10 7 10 7 8 5 7 2 1 1h-1l1-7h20l-3 15-9 10-13 1-11-4-10-7-10-7-10-7-9-6 14-12-14 12-4-6 2-7 5-4 7 1z"/><path d="M3869 2784v7l-11-23 18-8 11 23v7-7 8l-5 5h-7l-6-5z"/><path d="m3868 2803-2-9 3-10 18 6-3 10-2-9 2 9-5 6-7 1-5-5-1-8z"/><path d="m3901 2860 2-2-2 2v-4l-4-7-4-9-6-11-7-9-7-9-5-8 14-12 7 8 7 9 7 11 6 11 6 11 4 9 2 10-4 12 2-2z"/><path d="m3867 2853 14-12 7 5 6 5 5 4 5 3h1l-3 1-1 1 18 10-5 5-7 3h-8l-5-4-5-3-7-4-6-5-7-7 14-12-14 12-3-7 2-7 6-3 7 3z"/><path d="M3881 2865v10l-14-22 16-10 14 22v10-10l1 7-4 5-7 2-6-4z"/><path d="M3874 2888v-11l7-12 16 10-7 12v-11 11l-6 5-6-1-5-6 1-8z"/><path d="m3917 2939 3 7-7-7-6-8-5-7-6-7-5-7-7-7-5-8-5-7 16-12 5 7 5 8 5 7 5 7 6 7 5 7 6 6 7 7 3 7-3-7 3 7-3 7-7 3-7-3z"/><path d="m3934 2972-17-7v-26h20v26l-17-7 17 7-3 7-7 3-7-3-3-7z"/><path d="m3945 2955 8-3-19 20-14-14 19-20 8-3-8 3 7-3 7 3 3 7-3 7z"/><path d="M4052 2925v20l-13 3-14 2-14 3-13 1-13 2h-27l-13-1 2-20 11 1h25l13-2 13-1 12-3 14-2 13-3v20-20l7 2 4 6-1 8-6 4z"/><path d="m4037 2913 1-1v1l2 3 5 6 7 3-4 20-15-7-9-10-6-13 4-15 1-1z"/><path d="m4110 2877-6 5-11 3-10 2-9 3-10 3-8 4-6 4-7 5-6 7-14-14 8-7 7-7 10-6 10-4 10-3 9-5 12-2 11-3-6 5 6-5 7 2 4 6-1 8-6 4z"/><path d="m4110 2872 6-5-6 10-16-10 6-10 6-5-6 5 6-4 7 1 4 6-1 7z"/><path d="m4137 2846-1 20-26 6-4-20 26-6-1 20 1-20 7 2 4 6-1 8-6 4z"/><path d="M4077 2819h-1l3 2 3 4 7 3 10 5 10 5 13 4 15 4-6 20-15-6-13-4-12-5-10-5-9-5-7-6-5-6-3-10zm80-92 2 19-18 11-17 9-13 11-13 11-10 9-6 8-4 8-1 6h-20l3-12 6-12 8-12 12-11 13-11 15-11 17-11 18-11 2 19-2-19 7-1 6 5 1 8-4 6z"/><path d="m4145 2738-4-16 16 5-6 20-16-5-4-16 4 16-6-5v-8l4-6 8-1z"/><path d="m4174 2673 11 15-40 50-14-12 40-50 11 15-11-15 7-4 6 2 3 6-2 8z"/><path d="M4085 2693h-1l6 2 8 1 11-1 13-3 12-4 14-3 13-6 13-6 8 18-13 6-15 6-14 5-14 4-15 3-13 1-12-1-12-6h-1z"/><path d="m4126 2611 4 17-11 11-11 12-10 10-7 11-5 9-3 8v3l2 1-12 16-8-11v-13l3-12 7-11 9-13 10-12 11-12 11-11 4 17-4-17 7-3 7 3 3 7-3 7z"/><path d="m4118 2622-5-15 13 4-6 20-13-4-5-15 5 15-6-5v-8l4-6 8-1z"/><path d="m4133 2565 13 13-28 44-16-10 28-44 13 13-13-13 6-4 7 1 4 6-1 7z"/><path d="M4077 2593v1l4 2h3l6-1 7-4 8-6 10-7 9-7 9-6 10 16-7 6-9 7-10 7-10 8-11 4-12 3-11-2-10-8v1z"/><path d="m4076 2520 10 13-3 8-3 9-3 9-3 9-1 7v7l1 6 3 5-14 14-7-11-3-12v-11l3-11 3-9 3-9 3-9 3-8 10 13-10-13 5-6h7l5 4 1 8z"/><path d="m4069 2529-10-8 17-1 2 20-17 1-10-8 9 8-7-3-3-6 3-7 7-4z"/><path d="m4041 2473 18 2 10 54-18 4-10-54 18 2-18-2 2-8 6-4 6 1 4 7zm-23 239 8-12 9-12 8-11 8-11 9-10 9-10 9-9 9-8-11 12-10 12-9 14-9 14-9 14-9 15-8 14-8 15-2 10-3 10-2 9-3 10-3 10-3 9-2 10-3 9 12-11 13-10 13-10 12-10 13-9 13-9 14-8 13-8-15 10-14 12-14 11-14 13-14 12-13 13-13 14-13 13-2 7-3 7-2 6-2 6-2 6-3 6-2 6-3 6 12-5 12-5 12-5 11-4 12-3 11-3 11-2 11-1-13 4-13 5-13 6-12 5-13 7-12 7-11 8-12 8-5 11-5 11-6 10-5 11-5 10-6 10-5 10-6 10-5 10-6 10-6 10-6 9-6 10-6 9-6 10-6 9-17-11 13-15 13-16 12-18 13-20 12-20 11-22 12-23 10-24-5-11-5-11-4-12-5-11-5-12-5-12-6-12-7-12 6 8 7 9 6 11 7 10 6 10 6 10 6 10 5 8 3-7 2-6 3-7 2-7 3-6 2-7 2-7 2-7-5-15-6-15-5-16-5-16-5-16-6-16-6-15-7-15 8 12 8 13 6 14 6 14 6 13 5 14 6 12 7 11 3-8 2-9 3-9 3-9 3-9 3-9 2-9 3-9-6-17-5-17-3-16-3-16-3-16-3-16-4-17-4-17 6 15 4 14 4 14 3 14 3 14 3 14 5 13 6 14 3-10 2-11 3-10 2-11 2-10 2-10 2-11 2-10 2-10 1-10 2-10 1-10 1-10 1-10 1-10 1-10v19l-1 19-1 19-2 19-3 20-3 20-3 20-4 20z"/></svg>