<svg xmlns="http://www.w3.org/2000/svg" width="500" height="620" version="1"><path fill="#ef3e42" d="M0 0h77.24v620H0z"/><path fill="#00548f" d="M124.441 0H500v620H124.441z"/><path d="m194.726 363.848 6.55 20.156h21.193l-17.145 12.458 6.548 20.156-17.146-12.456-17.146 12.456 6.549-20.156-17.145-12.458h21.193l6.55-20.156z" fill="#fff"/><path fill="#ffd046" d="M67.627 0h67.627v620H67.627z"/><path d="m266.82 341.019 6.55 20.155 21.192.001-17.145 12.458 6.548 20.156-17.146-12.457-17.145 12.457 6.548-20.156-17.145-12.458h21.193l6.55-20.156zm67.286-38.449 6.55 20.155h21.193l-17.145 12.458 6.548 20.156-17.146-12.456-17.146 12.456 6.549-20.156-17.145-12.458h21.193l6.55-20.156zm49.264-48.063 6.55 20.156h21.192l-17.144 12.458 6.548 20.156-17.146-12.456-17.146 12.456 6.548-20.156-17.145-12.458h21.193l6.55-20.156zM281.238 404.701l6.55 20.155 21.193.001-17.145 12.458 6.548 20.156-17.146-12.457-17.146 12.457 6.548-20.156-17.145-12.458h21.193l6.55-20.156zm64.884-32.441 6.55 20.155h21.192l-17.145 12.458 6.549 20.156-17.146-12.456-17.146 12.456 6.548-20.156-17.145-12.458h21.193l6.55-20.156zm55.271-49.264 6.55 20.155h21.193L411.99 355.61l6.548 20.156-17.146-12.456-17.146 12.456 6.548-20.156-17.145-12.457 21.193-.001 6.55-20.155z" fill="#fff"/></svg>