<svg xmlns="http://www.w3.org/2000/svg" xmlns:xlink="http://www.w3.org/1999/xlink" width="900" height="600" overflow="visible"><path fill="#bf0a30" d="M0 0h900v600H0z"/><path fill="#fff" d="M300 0h300v600H300z"/><path fill="#ffca00" d="M446.562 372.198l-.682 2.735.682 4.442 2.863.73 6.014.294 1.026-3.76-.108-5.012-2.279-.105-7.516.676M406.253 400.216l-.34 5.125-1.029 1.705-8.197-.34-4.439 3.076-5.125 5.458-8.198 4.098 5.12 1.37-6.14 4.774 3.07.694 7.181-2.74 5.114-1.022 3.071-2.391 4.104-5.466 5.126-1.356 5.802-3.77 3.074-5.463.342-5.463-2.048-5.466-6.488 7.177"/><path d="M360.137 337.633l.807-.59.024.027.71-.049 1.964.658.489.273c.785.672.93 1.577.946 2.194l-.035.341-.213.988.099.21-.047.093-.427.927-.277.23-.23.016-1.83.697-.906-.45-.67-.666c-.312-.62-1.661-2.363-.987-4.48l.583-.419zm3.36 3.518l.104-.97c-.011-.44-.115-.836-.428-1.101l-1.962-.656c-.162.08-.208.08-.249.08-.409 1.267.451 2.46.895 3.37l.912.45c.203-.487.653-.487.693-.823l.035-.35zM386.603 343.38l.29-.26.426-.152.912-.127 1.339.162-.005.005.387.105-.018.039.19.073.606.406.17.371.344 2.484-.617 1.609-1.062.772-2.187.371h-.031l-1.374-.487c-.807-.952-1.476-2.69-.565-4.258l.658-.509.213-.173-.04-.106.365-.326zm2.712 4.028c.451-.858.943-1.974.244-2.868l-1.345-.375c-.831.09-.946.908-1.523 1.07-.451.778-.123 1.929.408 2.549.906.411 1.76.244 2.216-.376zM350.647 333.703l.129-.387.01-.158.375-.56c.335-.337.843-.655 1.517-.655l.331.033 1.967.454.998.802 1.478 3.075.144.642c0 .357.07.79-.553 1.408l-.1.095-.396.338-.716.325-1.444.23-1.153-.298-.589-.48-.08-.06-1.55-1.413-.472-1.088v-1.972l.104-.331zm4.947 3.953l.405-.344c.08-.079.12-.285.12-.364l-1.478-3.082-1.963-.449c-.462 0-.542.45-.657.618v1.972c.405 1.02 1.103 1.435 2.136 1.885.403.125.803.125 1.133.016l.304-.252zM392.619 379.76l-1.382 2.538-1.032.752-.652.112-.53.015-1.283-.836-.478-.89-.86-3.623.749-1.65 1.479-.78 1.12-.084.045-.03.588.03.487.078c.709.246 1.182.69 1.511 1.138l.011.016.005.293.221 2.92zm-2.675 1.834l1.755-3.242c-.333-.663-.622-1.321-1.316-1.563-.334 0-.825 0-1.068-.084l-1.477.788 1.02 4.298.908.13.178-.327zM546.72 329.933l.726-.063.241.039.5.173c.205.119.244.141.265.157l.717.609c1.2 1.977-.407 3.916-.605 4.295l-.343.458c-1.119.975-2.402.51-2.97.337l-.035-.011c-.494-.163-1.613-.7-1.81-2.097l-.011-.33c.128-1.686 1.337-2.814 2.484-3.399l.665-.168h.177zm.53 4.55c.4-.82 1.221-1.926.661-2.873-.211-.08-.384-.204-.467-.246l-.24-.042c-.254.084-.496.084-.661.084-.85.448-1.603 1.23-1.682 2.213.08.54.574.827.832.91.528.163 1.224.247 1.558-.045zM540.543 328.102l1.074-.433 1.894 1.04c.45 1.777-.577 3.396-1.894 4.146l-.701.193-1.725.037-1.48-1.79c.358-1.609 1.534-2.57 2.728-3.154l.104-.04zm.335 3.467c.863-.487 1.44-1.519 1.2-2.497-1.363.452-2.637 1.23-2.926 2.538a.492.492 0 0 0 .173.292c.412.242.86-.048 1.145-.048 0 0 .246-.155.408-.285zM515.164 366.667c1.001.987.718 2.203.63 2.76l-.7.948.062.057-.17.094.02.046c-.085.09-.245.252-.482.39l-.891.323h-.004l-1.553.168-1.349-.601c-.9-1.236-.465-2.625-.187-3.34l.975-.88 1.763-.5.4-.055 1.014.28.016.01.457.3zm-3.241 1.384c-.211.534-.338 1.47 0 1.927l1.557-.163c.409-.046.528-.455.854-.612.086-.539.086-1.195-.204-1.484-.204-.076-.29-.168-.45-.168l-.248-.039-1.51.54zM510.482 343.538l.044-.13c.34-.561.923-1.606 2.23-1.808l.229-.016c.173 0 .603-.052 1.207.184l.545.385c1.484 1.653.635 3.725-.166 4.683l-.093.104c-.37.368-.825.542-1.188.625l-.604.036-.043-.03-1.01-.15c-.71-.408-1.064-1.088-1.219-1.765l-.035-.647.103-1.471zm1.383 1.755l.5.843c.376-.084.828 0 1.067-.242.576-.702.95-1.931.208-2.752-.208-.078-.488-.078-.655-.078-.531.078-.821.49-1.192 1.102-.042.328-.025.753.072 1.127zM513.884 381.62l-.818.49c-1.178.108-1.924-.585-2.194-.758l-.476-.493-1.926-3.276-.151-1.152.254-.59.222-.337-.06-.033a3.95 3.95 0 0 1 2.644-1.858l.292-.03h1.106l.322.035c1.094.247 1.668 1.105 1.934 1.858l.08.556-.162 3.491-1.067 2.097zm-.425-1.781l.181-3.873c-.16-.445-.488-.819-.864-.897h-1.106c-1.031.206-1.685.897-1.925 1.76l1.925 3.277c.448.292.784.58 1.274.537.208-.201.363-.244.488-.285l.027-.52z" fill="#009551"/><path fill="#ffca00" d="M337.59 256.739l-1.022 3.076 1.368 3.076 4.434-2.391-4.78-3.761"/><path fill="#009c56" d="M357.747 330.864l1.653 3.001 2.786.418-.34-2.05-4.099-1.369"/><path fill="#ffca00" d="M360.137 337.363v3.757l2.632 1.205 1.813-2.914-3.763-2.396M385.537 343.222l-.123 3.018 1.685 1.545 2.216-.377.886-2.879-2.738-1.018-1.926-.29M350.568 333.254l.345 2.05 3.244 2.586 3.244-.527-1.362-4.11h-5.471M388.859 374.944l-1.736 1.696 1.736 5.15 2.022-.365 1.367-3.418-3.39-3.063M354.33 293.633l-2.055 2.044v3.083l4.444.682 2.737-1.709-2.055-2.39-3.07-1.71M360.137 196.618l3.758-.686 2.05 2.395-1.652 1.375h-1.973l-2.183-3.084M383.018 186.031l-1.013 2.73 1.856 3.8 2.236-1.067 1.026-4.099-4.105-1.364M338.952 218.144l.346 2.729 2.731.684.688-1.028-.301-1.629-1.409-1.788-2.055 1.032M354.677 219.164l-1.035 1.709-2.038 1.312-1.036-.968.345-2.053 1.362-1.02 2.402 1.02"/><path fill="#ffca00" d="M354.677 219.164l-.693 3.762 2.055 1.365 1.316-1.207.392-2.555-3.07-1.365M365.604 193.89l2.383-.687 3.084.686 1.022 2.73-1.37 2.044-3.07-.336-.987-1.996-1.062-2.442M561.681 212.671l-2.056 1.368 3.66 3.834 3.509-2.125-.307-1.858-4.806-1.219M544.261 215.748l.335 3.073 1.13 1.067 2.633-.382.332-1.709-4.43-2.049M529.567 190.812l-2.383 1.028-.69 2.05 2.326 1.379 1.85-.088.604-1.978.349-1.71-2.056-.681M533.33 192.18l-1.369 2.73 1.454 1.542 2.644.848 1.713-1.708-.682-2.043-3.76-1.369M545.967 290.562l2.048 3.408-1.368 3.416-3.066-.335-2.738-.685v-2.733l5.124-3.071M546.647 330.186l-3.066 2.387.333 1.71 3.085 1.368 1.692-3.418-2.044-2.047M543.234 329.835l-2.356 1.734-1.725.041-.36-1.775 2.05-2.042 2.391 2.042M514.882 370.153l-3.762.683-.676-3.76 2.047-.688 2.39.347v3.418M513.64 343.142l-1.487-1.346-1.033 2.391 1.246 1.948 1.146 1.13 1.37-2.387-1.242-1.736M511.12 373.569l-2.385 2.386 2.05 4.444 2.158.244 1.254-1.956.753-5.222-3.83.104M485.845 397.478l1.022 6.15 2.053 4.78 2.727 2.052 3.765 1.026 4.437 1.02 2.737 2.392 2.386 3.418 3.074 2.728 4.445 1.027 3.757 1.365 5.123 1.711-2.39-4.776.679-1.033h4.786l1.703-1.362-4.092-.685h-3.077l-2.51-1.315-3.98-4.831-3.081-3.419-3.752-2.05-2.729-.335-3.756 1.023-2.398-.351-1.02-2.726-1.027-5.129-5.125-4.775-3.757 4.095"/><g transform="matrix(.89859 0 0 .89859 .835 1.368)"><defs><path id="a" d="M344.058 171.761v303.83h311.601v-303.83"/></defs><clipPath id="b"><use width="1000" height="666.666" xlink:href="#a"/></clipPath><path clip-path="url(#b)" fill="#ffca00" d="M458.394 435.875l-7.22 7.987-.379 5.703"/><path d="M649.083 270.438c3.451-3.752 8.054 1.252 6.577 3.61-.913 1.451-4.717.887-5.938 2.969.205 1.939 1.917 3.531 1.142 5.567l-3.246 1.467-2.74-.688-.449.271c-.178.853-.422 1.964-1.016 2.652-4.853 1.106-9.851-.52-14.643-1.235l-.928.457.229 1.962c4.129 3.667 7.505-3.328 12.927 4.432 1.929.301 4.615-.952 5.793 1.233l-.395 2.928-1.839.952h5.989c.901.977 1.489 2.358 2.104 3.521-.859 1.594-.742 4.138-2.61 5.023l-3.644-.874c-1.468.925-2.71 2.306-2.984 4.073-.784.371-5.817 2.493-5.884 3.141l.967 2.928c-.771 2.276-4.768 2.641-6.67 2.969.024.565.374 1.54 1.003 1.736l-.054 1.874-1.272 1.277-2.734-.23-.928.911c-.422 1.877-1.501 6.74 0 8.267l2.893-1.143c2.526.752 2.273 3.091 1.733 5.254 1.977-2.075 5.359-9.403 8.801-8.679.793.426 1.414 1.545 1.477 2.424l-5.163 8.812.54.869 2.146.777.229 2.96c-2.863 1.82-6.293 3.382-9.763 3.069l-.693 3.233c-1.865 1.013-3.921.337-5.886.181.012 1.594-.87 4.003-2.154 5.021.138 3.723-10.125 13.925-12.502 18.313-.693 1.281-4.458.5-5.525.227l.5 3.427-1.237 1.461.181.417 4.792.135.146 1.649-1.287 2.691.964.955c3.08-.011 10.494 2.131 6.612 6.845-1.639 2.007-5.545-1.06-7.486-1.181l.874 2.146-.5 1.278-.964.455-5.615-2.698-.414.274.182 1.472-.817 1.456c-3.657-.181-4.16-1.082-7.032-2.691-.856.298-1.574 1.546-2.143 2.188-2.408-.498-5.764-1.628-7.629-3.333l-.826.413 2.788 2.466c.317 3.819 1.975 6.061 2.51 9.261l-1.688 2.656c.896 2.773 1.499 6.204-.274 8.771-.419-.495-1.42-.1-1.74.311l-2.457-1.724-.374.269c.007 3.354.869 7.535-1.775 10.187l-2.927.673c-2.451-.908-1.663-4.096-1-5.974l-.226-.774-1.743-.368c-2.468 14.675-9.075 6.782-8.991 1.739l1.779-2.839v-.494c-2.001-1.479-4.895-1.19-7.216-1.736-3.677 2.505-9.446.518-12.098 4.753-1.447.063-3.144.057-4.482-.549l-.957.491-1.187 2.924-3.423.142c-.359-.353-1.149-.847-1.682-.639l1.043 3.152c3.921 2.592 9.44-.267 9.639 6.613 10.45 5.723 4.805 10.169 5.884 18.597l1.233 1.184c14.917-4.173 14.397 7.121 24.39 12.41 2.751 1.467 6.841-.16 8.807 1.972-2.14 3.345-4.776 2.218-8.123 2.516l-.367.405 2.049 2.742.148 3.466c-3.892-.844-17.91-4.584-19.814-7.9-6.352-11.001-14.143-4.307-17.72-11.905-2.197-4.66-2.539-11.535-6.264-15.122-4.202 2.475-4.563-.105-5.703-3.973-2.827-.476-6.136-.868-7.444-3.834-.739-.75-1.814.058-1.921.908.856 1.097 1.996 2.351 3.332 2.839l1.055 1.543v3.204l2.375.63 3.147 3.256c-.019 1.781-2.111 3.062-1.143 4.876.886 1.649 2.887 3.068 2.013 5.161l-3.695.826-3.017-2.837-1.648-.276c-3.563 3.569-5.317.913-4.331-3.147l-.317-.356c-3.208-.123-2.11-2.634-3.018-4.753l-1.372-.455-1.958 1.224c-.488 3.896-4.141 6.623-3.975 10.688l-3.108 1.101c-2.826-1.426-2.394-5.67-1.962-8.136l-1.735-1.184-3.011.964c-.576 3.65 3.55 5.968-1.6 8.537l-2.421-.181c-1.888-2.219-.431-5.817-3.373-7.448l-1.234-3.43-3.019-1.136-.413.147c-1.193 1.558-.911 3.825-3.012 4.693-.547.751-.354 3.342-.403 4.284-1.98.193-2.996-.573-4.665-1.221-2.21-.869-1.78 4.532-7.351 3.833-1.116-5.82 3.926-4.858-.184-10.601-.059-.796.628-1.743 1.138-2.275 1.148-.364 4.687-1.739 5.164-3.008-.721-3.536.647-4.621 3.429-6.625l-1.233-1.239c-1.787.232-1.526 2.786-3.162 3.201-.463.117-1.04.036-1.227.635-3.794 1.049-3.885 2.668-5.889 5.619l-1.465.552-2.917-1.459.271-2.151-.502-.456c-3.096 3.484-2.955 19.55-11.227 21.831-15.168 4.16-10.849 10.767-18.091 11.779-4.599.642-8.108 2.644-12.424 4.247-1.286.48-6.719 2.954-5.974-.554 2.081-2.212 4.664-3.892 6.983-5.841-.579-.375-7.818-.151-5.247-2.463l8.992-3.71c-.122-1.365 11.459-12.195 15.032-12.141 2.197.039 4.619 1.706 6.796.688 1.453-1.022.334-7.429-.913-8.762.117-1.905 1.201-3.225 2.378-4.617-.875-6.077 3.95-3.705 5.885-7.111l.14-3.668c4.909-2.821 4.285-1.223 8.626-2.138.662-.855.854-2.242 1.056-3.246-.869.269-3.915 1.598-4.711.958l-1.233-3.655c-1.001-1.137-4.304.561-5.342.916-1.145-.293-2.236-1.485-2.917-2.375-6.797-.322-9.521-2.291-16.626-.87-.719 1.166 3.071 10.181-4.611 9.136-1.657-2.355-4.06-8.476.73-9.182l-3.467-1.694-.135 2.61-2.468 1.969c.446 1.805.688 3.978.314 5.838-.558.759-1.669 1.375-2.595 1.458l-1.194-.545c-3.777-6.933-.9-6.501-2.468-11.098l-.45-.232-1.965 1.694-1.963-.452c-1.865-5.076.076-4.341 0-8.361-2.79-2.604.076-12.481 2.825-14.154l-.129-.498-1.233-.5-1.733.723-.462.729c-3.085.994-3.908 3.542-6.85.188-2.974.403-4.245 4.529-7.722 2.281l-.306-1.736-.514-.175c-1.465 1.152-3.501 3.374-5.565 2.222l-1.001-1.541.868-2.468-.366-.223c-1.768.892-3.264 2.348-5.391 2.143l-2.833-2.423c1.736-4.874 3.379-4.668 7.94-5.845.156-.24.334-1.316-.218-1.277l-.089-3.111 1.779-.681 3.418.825c-1.215-1-1.266-4.172-1.085-5.527-1.324.524-4.766 1.38-5.758 0-4.135-5.742-6.73-9.832-12.106-14.893l-1.316-4.6-1.467-.784-.274-2.417c-1.569-.431-3.54-.181-5.068.277l-1.003-.593c-.063-.582-.039-2.662-.5-3.018-2.693.537-10.601-2.1-11.235-4.979l.544-.955c.978-.112 3.418-.531 4.021-1.469-1.316-3.367-4.958-5.379-5.71-9.038l.957-1.553 2.885-.411c3.052 2.042 3.372 6.216 6.116 8.543l.366-.232.135-3.879 1.457-1.512 1.787.735 1.182 1.729.913.371c.186-2.024.75-7.803-.727-9.36l.134-2.241-4.515-.179-.918-1.557 1.509-2.459-.822-.688c-1.551-.142-5.289.625-5.891-1.463l.551-3.424-.319-.501c-3.482-.271-6.643-4.272-8.726-6.848l-1.278 1.278-2.654-.41c-.654-1.529-1.959-2.949-3.2-4.021.592-1.986 2.353-3.45 4.113-4.388l4.208.648.134-.918-1.554-2.191.411-1.464c1.631-1.15 3.784-.823 5.614-1.368 4.432-7.618 11.055-.583 12.969-4.971l-1.225-1.465c-4.935-.939-10.601 3.121-15.213.732l-.68-2.602c-2.184.115-4.459 1.668-6.348-.188v-3.789l1.144-1.734c-1.457-3.007-4.509-.141-5.344-5.757l1.323-2.003 1.919-.418c1.953 1.504 5.263 3.419 7.126.83l.547-2.654c-.921-.558-1.91-1.331-2.514-2.243v-2.64c1.091.547.976-1.034 1.689-.964l4.113 2.7h3.192l.731.591.142-2.827 4.741-1.195 1.465-1.733 2.236.32 2.427 2.743 1.631-2.279c-.938-5.159.964-8.25 3.975-12.244-1.458-1.24-2.369-3.476-3.14-5.157-1.484.018-3.03.345-4.438.77l-2.19-1.729-3.43.635c-.847-1.509-3.127-3.146-4.875-3.333-.073-.757-1.394-.732-1.831-1.228l1.091-4.111 1.196-.871c3.428.031 8.553.468 7.991-.868l-.874-1.184v-1.006l1.697-1.279c2.916.649 6.17.623 8.58-1.369 3.996-.455 4.832 4.296 8.634-1.233v-.508c-1.118-1.258-2.524-2.634-3.251-4.194l.964-2.378c.63-.545 1.87-.636 2.646-.776l-.679-1.734c-1.223-.231-3.162-2.814-3.933-3.604l.231-1.287 1.958-1.181 1.967.5.918-.5-1.645-2.423-.096-2.968 1.78-1.143 1.465.695.5-.104c.673-2.441-1.723-6.084 1.733-7.259 4.164 1.36 4.203 5.051 4.388 8.819l.906.732c.579-.186 1.765-.608 1.967-1.284l2.241 1.054c4.361-2.339 9.707-6.882 13.56-10.008l.913-3.188-2.417-1.24c-1.13-2.907-.971-4.463 1.364-6.614l-.727-.957-.322-2.885 1.049-1.092 2.195.232.232-.368-.964-3.654 3.198-1.965 1.458-3.835.959-.545c3.262 1.471 2.832 5.415 4.797 8.036l-.508 3.425-1.181 1.458 1.458.822c1.459 2.673-1.663 5.313-3.423 6.712l1.325.644.687 1.097c3.596 1.24 7.392-.936 11.054 0l.681-.276c.303-4.155-.681-7.154 3.418-9.634l2.93-.187 1.002-5.249 2.646-.5 2.016 2.377.501-.231c2.211-5.917-.088-3.071 5.293-7.805l1.736.496c4.039 7.837-10.368 17.267-11.729 21.969l.223.411 5.937-.23.322.313-.322 1.702c-4.556 3.798-7.053-3.738-12.878 4.878 2.105.796 4.399-3.311 6.031.186l1.83-.867c-.039-.623 2.036-1.919 2.505-2.282.391-.044 1.484.007 1.594.548l1.829.223c.715-.662 1.973-1.001 2.922-.955l1.235 1.693-.957 2.371c-3.303.439-5.275 2.654-7.123 5.21l-3.343.502-1.951 1.868c-3.083-.84-2.912-2.139-5.944.09-5.459-1.182.632-5.774-4.342-6.025-1.842 4.111-.634 4.382-4.06 8.222-.417 5.711-1.143 3.587-4.016 7.574l.959 2.877-2.153 2.603c-2.388.828-5.311-.404-7.483 1.092v3.161l-3.288.635c-.958-.623-3.167-1.748-4.383-1.375l-1.457 2.788c-1.24.522-5.809-.153-6.041.869l2.334.5 1.457 1.465c1.505-.527 3.977-1.247 5.398-.225l.544 2.915 2.655.732.498.962-.782 1.596c-2.249 1.173-4.498 4.976-6.841 2.284-.573.232-1.728 1.047-2.385.773l-2.504-3.193c-2.093.591-1.528 4.739-3.148 6.16-3.403.927-5.941-1.445-7.309-1.001-.776-1.118-1.658-2.346-2.737-3.193-2.68 1.228-4.318 3.757-5.898 6.116l.091.411 4.343-3.834.457.223c.687 3.025-4.35 5.429-5.024 8.312l3.378.508c2.205-2.055 4.935-10.347 7.767-2.658l-1.697 6.763 2.52-.179.911.957c.259 4.336-3.416 3.687-5.479 6.346-.181 1.01 2.331 1.047 2.826.957l.687 2.192c-.667 1.201-4.42 2.825-3.79 4.387.87.083 1.947.752 2.325 1.555-.006 3.79-4.29 5.865-4.932 9.495-6.516 7.784-6.667 29.498-1.362 38.304l1.182-.591c1.015-3.36-1.575-6.751-.322-10.136-.784-.957-1.836-2.672-1.128-3.927l1.272-.68.41-1.001c-1.606-2.793-3.044-3.912-.231-6.624l.231-4.932c2.493-1.96 5.113-3.938 7.9-5.481l1.505.913c1.247 3.025 1.226 8.152-1.003 10.774l1.646 2.15c.211 1.973-.423 4.31-1.285 6.069l.604.598.315 3.103-2.049 2.467.68 2.653-1.965 2.234 3.379 2.051c.007.378 4.485 3.448 5.153 5.479l-2.871 2.608-4.106.591-.269.504 4.109 8.311.542.042 2.646-1.685c3.392 1.146 3.628 5.528 6.346 7.481l1.465-.269c5.461 3.892-.327 9.519-.179 14.377l.411.458 1.047-1.646 2.147-.679c.802-1.163 1.637-2.709 1.56-4.153l.405-.732h2.459l2.155 7.266.492.217 3.2-1.585c3.044 1.428.391 5.751.962 8.21l3.43-.498 1.228 1.221-2.691 5.625.223.777 2.604 2.412.09 1.369c1.926-.537 4.109-.724 5.889.334l.546 3.915-.817 1.242.637 2.408c5.409 4.724 8.993 12.651 13.747 18.275l.32.548 1.646.498v-1.281l-1.415-1.685.085-.684 1.329-.278c.327-.921 1.117-1.841 1.862-2.462l-.135-.456c-1.523-.416-5.403.075-5.89-1.959.463-.832 1.438-1.945 1.508-2.927-1.386-2.182-4.091-2.019-5.62-4.253l-.592-2.324.321-.498c7.722-2.417 8.185 1.867 13.427 6.064l.732-.674c-.129-1.896-2.146-4.371.225-5.669 5.461 1.169 3.525 4.985 7.354 7.354.251-2.803 1.343-3.852 4.155-3.752 2.063 1.224 1.327 4.268 2.834 5.905l.09.538 1.685 1.698.505-.051 1.458-4.067h2.466c3.637 4.877 4.345 11.243 7.587 16.487 2.212.958 7.305 1.169 9.722 1.317 4.234-4.494 6.1-2.141 11.231-2.966l1.918 1.013.823 1.456c2.884.869 7.303-.627 9.949-1.643 2.9-4.473 4.231-15.532 8.596-17.119l1.316 1.184-.135 2.691 1.006 1.001c2.674-2.206 3.015-7.207 6.071-8.255l2.236 1.411.322 1.968.359.174c3.155-1.66 2.796-6.592 6.631-7.532l1.866 1.467c.193 1.362-.582 2.855-1.375 3.922l.503.687c3.879-1.386 8.376-9.91 13.657-7.17 1.841 6.873-3.105 4.621-5.803 8.177l.646.637.587 2.426-.313.813-4.341 1.739c.6.742 1.827 1.785 2.876 1.686l-.081 1.461-2.47 2.917c2.355-.226 14.101-16.839 17.621-19.991-.961-2.604-1.149-10.183 4.024-7.765.286-1.643 1.835-3.301 3.146-4.195-.488-1.863-3.433-3.737-2.468-5.854l1.187-1.139 2.463.596c1.914-1.868-.347-5.606 1.694-8 .892-.223 2.601-.56 3.426.088l2.056-6.7 1.369-1.193h1.465l.816.964-.552 5.115c-.15 1.101 3.557-.181 4.115-.319-.915-3.635-2.65-8.086-.591-11.646l3.511-1.274c1.895-2.412 2.622-5.929 5.892-6.951l2.15.65.5.637c2.236-2.158 2.52-5.588 4.378-7.991l-.232-.457c-13.081-1.113-4.083-10.054.232-10.546l.185-.457-1.865-1.646c-.334-1.202.542-1.778 1-2.742-1.705-2.428-4.264-4.226-.681-6.848-2.284-3.95-2.799-4.639.172-7.812-1.405-2.538-3.535-8.753-1.416-11.414l2.302-.547 1.772 1.548c4.955-.579 5.781 5.544 5.663 8.955l1.953 1.094c.488 1.655-.386 4.476-1.453 5.755.72.359 2.099 1.072 2.327 1.965l-1.964 3.423c1.822 3.219.283 6.945-.631 10.229l.449 1.006c14.597-14.76-5.911-48.846-5.757-49.09l1.875-1.008.275-.457a19.34 19.34 0 0 1-3.701-3.647l.177-1.46 2.521-1.74.232-.506c-.618-1.067-9.971-5.476-3.894-7.801l1.693.772.685-.271c-1.504-3.545-3.166-6.026-.449-9.544l2.462-.143 2.236 5.435c.531-.276 2.895-1.221 2.917-1.868l-5.383-6.031c-5.831 1.297-9.159 3.756-12.23-3.51l-1.465 1.46-3.198-.232c-.527-.09-.593 1.099-.552 1.367h-2.37l-1.238-1.822-2.19-1.003-.227-3.43 1.458-.725c2.294-6.372 5.695-.742 8.227-5.114l-.09-.362-4.479-.146-.681-2.691c-1.909-.565-3.575 1.433-5.393 1.688l-2.649-1.418.19-2.64-.962-1.055c-4.163.694-5.124.791-8.632-1.188-.677-1.394-.252-3.255.359-4.612-1.543-1.15-2.704-3.083-3.738-4.652l.046-1.688c-1.577-2.037-3.247-4.106-2.659-6.861l-.947-1.735-1.69-.037-1.007 1.001-.277 3.931-1.914 1.452-3.156-1.182c-3.231 2.5-4.045 1.402-6.622-.822l-2.278-.142c-.724-2.249-5.341-5.208-7.268-6.155l.506-2.657c2.102-.561 4.699.904 6.213-1.274-.66-.283-3.554-2.112-2.007-3.057h4.834c.276-.225.867-.925.596-1.331l-5.66-5.112c.057-.494-8.937-11.292-4.931-16.116l2.424-.136c.513 1.426 2.405 2.98 3.879 3.291l.044 3.691c.112.277.603.811.95.592.645-1.136 1.648-2.422 2.93-2.825 3.198 1.36 1.702 5.967 1.691 8.581l.497.23.639-1.418 2.059-.906c4.199.93 3.271 5.454 3.65 8.447l1.01 1.001c4.722.092 9.531 2.083 12.186-2.464l-.271-.688-1.865-.771c-1.782-2.468-1.459-3.73 1.04-5.396-4.184-6.52.217-5.3.238-10.723l2.556-2.196 1.962 1.414.908 3.154 1.965-.14 1.145 1.643-.82 3.424.455.456 2.649.328.269 2.371-.994 1.555.223.91 1.643.959c.862 3.373.29 4.375-2.827 5.891-.458.288.317 1.092.546 1.233l-.269 2.646c4.566 3.031 9.364 5.812 13.418 9.546l1.187.186 1.228-1.145 2.194.727.732-.232c1.323-3.745.5-7.17 4.43-9.217l1.914.635c1.571 1.948.697 4.651.377 6.846h3.556l.504.739c-.181 1.529-.32 3.521-1.145 4.888 1.414-.614 3.016-.732 4.11.502l-.823 3.328-1.141.827c.09.606-2.197 2.705-2.646 3.187 5.486-.013 4.253 4.529 1.141 6.765l1.001 3.012c3.623 2.024 3.74-2.126 6.528-1.458 1.647.392 8.778 1.561 10.01 2.139l.498 1.009-.832 1.914.1.508c3.316 1.452 7.391-.693 10.501 1.459l-.042 3.655-1.411 1.231c-1.682-.14-3.276 1.851-3.931 3.154-1.904-.051-6.067.522-7.532 1.958l-1.694-.64-.322-.545-1.414-.278c-1.299 1.99-1.772 4.543-2.091 6.85 3.338 3.684 3.453 8.232 4.324 12.879 2.291-.232 2.547-4.125 5.489-2.783l.591 1.645 5.115.732.09 2.19-1.414 1.458c-.286.508.832.707 1.094.644l2.234-2.333c1.977.231 5.266-.592 6.755-1.959l1.003.313.425 2.333c-2.583 3.591-2.98 1.778-1.606 6.392l4.389-.239m-224.11-70.096c-1.916.647-3.605 1.511-4.885 2.93 0 .225.135.357.271.501 5.076-1.145 9.957-.188 14.658-.276.145-.18.194-.316.194-.497-1.427-1.783-2.937-3.34-5.125-3.519-1.685.037-3.194.687-5.113.861zm-8.899 8.767l-3.43 3.43c0 .23.403.547.822 1.009 1.458 1.909.044 4.374-.092 6.34.092.142.276.142.405.142l1.196-3.294 1.001-1.736c.593-.314 1.465-.314 1.967 0 .405.365.457 1.144.911 1.28.635.319 1.416 0 1.734-.317.225-.134.225-.506.324-.687l2.825-1.959-1.465-4.658-3.649-.73-2.549 1.18zm11.365 3.661c1.463-.687 1.694-3.108 2.1-4.61-.134-.508-.405-.649-.637-.823l-2.466-.508-.271-.046-1.141 2.048 1.231 3.938c.129.181.41.271.681.271.001.001.225-.09.503-.27zm-12.515-7.774c-1.189.695-2.871 1.152-3.328 2.385.134.129.322.18.681.271 1.458-.271 2.556-1.416 3.334-2.61-.269-.09-.499-.046-.687-.046zm-9.218 6.58c.547.099-.417.276.046.374l1.136.314 2.424-1.233c.276-.322.642-.869.276-1.189l-1.189-.225-2.693 1.959zm-2.423 2.422c-.409.09-.82.232-.866.688.457.135 1.278-.18 1.278-.598-.141-.09-.321-.09-.412-.09zm8.585 2.191l-.592-1.049-2.197-.364-1.645.551-.315 1.639c.135.32.547.642 1.055 1.091.86.688 1.958 0 2.871-.181l.823-1.687zm-9.675 1.495c-.283.322-.831.309-.875.74.374.869.277 1.831.965 2.294h2.196l.809-.829.097-1.047c-.232-.592-.823-1.009-1.189-1.412h-1.682c-.399.466-.393.396-.321.254zm-5.53 9.47c.417 2.602-.727 5.159-1.646 7.348.187.276.508.276.636.276 2.75-1.097 1.658-4.887 3.708-6.218l3.013-.914c.179-.588.636-1.135.911-1.958.824-1.135 1.505-2.646 3.147-2.646.644.316 1.189.631 1.916.361 0 0 .142-.225.328-.502.134-.366.358-1.504-.328-1.546h-.727c-.918.087-1.638.82-1.958 1.412-1.182.636-2.697.867-4.343 1.278-1.467 1.272-3.515 1.643-4.657 3.109zm2.15-7.49c-.186-.045-.186.083-.186.225.095.321.186.642.545.457v-.457c-.269-.142-.178-.225-.359-.225zm-9.186 12.187l-.54.693c0 .405 0 .815.219.95.237.188.32.271.506.271.278-.083.368-.315.502-.5-.134-.405 0-.951-.269-1.228l-.234-.09-.184-.096zm-.732 6.533c.051.687-.496.821-.496 1.323l.908-.547.74-1.24c-.136-.219-.188-.359-.234-.405-.55.186-.867.501-.918.869zm-2.735 2.232c-.915.233-1.376.92-1.684 1.691.769-.635 1.875-.821 2.185-1.691h-.501zm6.074 1.646l-1.876.276c-.178 1.047-1.096 2.558 0 3.2h.681s.283-.186.514-.322c.771-.596 1.042-1.921.913-2.878-.051-.179-.232-.276-.232-.276zm2.237 1.781l-.501 3.199c.547.502 1.775.642 2.423.225.039-.173.134-.315.366-.727.59-.917.321-2.376-.366-3.013l-1.189-.416-.733.732zm-16.626.133c.688.231 1.106.231 1.645 0 .591-.591.915-1.27.643-2.093-.411-.411-.957-.777-1.548-.687-.554.044-.874.364-1.052.687-.277.732-.137 1.688.312 2.093zm-4.007-.133c.732-.644.542-1.781.18-2.646l-4.753-1.504c-.271 0-.593.225-.681.499l.911 2.648 2.468 2.146c.59-.044 1.271-.457 1.875-1.143zm4.695 13.014c-1.091 2.234-1.645 4.799-1.367 7.034.09-.14.276-.276.276-.276l1.143-6.572-.052-.186zm2.466 4.206h-.232l-.955 5.57 1.914-1.286c1.285-1.271.281-3.104-.502-4.199l-.225-.085zm.727 23.468c.32-.366.281-1.003.281-1.369-.186-.508-.41.225-.41.225l.129 1.144zm-6.296 5.249c.644-.136 1.094-.324 1.915-.324.642-.403 1.464-.95 1.464-1.644-.186-.405-.225-.77-.5-.906l-2.19-1.555c-.097.09-.232.09-.276.09-.278.412-.322.821-.598 1.465.185.824-.814 2.377.185 2.874zm3.103 8.451l1.189-6.712h-.463c-.308.823-.635 1.37-1.092 2.097-.322 1.461-.681 3.658.366 4.615zm-6.121 17.673c.732-5.03 2.285-10.278 2.749-15.667-.051-1.967-.051-3.74-.464-5.572-.088-.231-.186-.276-.318-.319l-1.416-.188c-.552.051-.862.373-1.001.732l-1.645 5.024c-.732.322-1.695.461-2.1-.135-.225-.359-.417-.778-.822-.778-.186.09-.322.278-.322.278-.918 2.105-1.368 4.021-2.832 5.568-1.324 1.556-3.932-.727-4.884 1.009l-.507 3.237c1.511.461 3.154.918 4.89 1.458 1.644.823 3.237 2.063 4.883 3.52 1.187.688 2.197 1.511 3.428 2.058.224-.091.32-.179.361-.225zm7.13 4.068l-1.697-15.123c-1.226 4.111-2.325 9.089-1.5 13.426.681.822 2.188 1.965 3.197 1.697zm9.128 5.478c-.226.09-.271.262-.271.451.045.313.317.408.496.453l1.606-.044c.269-.274.449-.408.449-.64 0-.276 0-.322-.181-.449-.269-.046-.589-.046-.679-.046l-1.42.275zm4.157 1.367c-.778.915-1.144 2.686-.314 3.829 0 0 .269.097.591.18 1.598.051 4.245.644 5.524-.815-.136-.276-.136-.598-.187-.955-.914-1.416-2.556-2.563-4.241-2.969l-1.373.73zm-16.164 11.223c3.379.738 4.658 3.475 6.025 6.357 1.003-.414 1.645-.92 2.739-.739 1.784.914 2.285 3.023 2.607 4.892.134.132.23.132.32 0-.187-1.374.232-2.833.232-4.431-.232-3.152-1.053-6.761-2.518-9.772-1.093-1.787-3.694-1.511-5.339-2.145l-1.877-1.459-1.458-.508c-.184-.186-.23-.5-.23-.778.23-.543.679-.992 1.182-1.182l1.099-.318c.136-.271-.046-.502-.046-.644-.269-.134-.179-.23-.359-.23l-2.466 1.702c-.554.814-.322 1.773-.554 2.911.464 2.104-.268 4.384.643 6.344zm18.54 26.849c1.144.607 1.735-.542 3.154-.816.867-.551 1.176-1.869 1.176-2.83-.173-.507-.54-.915-.906-1.049-.778 0-1.101-.552-1.548-.681-.553-.549-.648-1.968 0-2.649.591-2.109-1.555-3.608-1.697-5.67.23-1.187 1.285-1.497 2.144-1.961 0 0-.044-.226-.044-.449-2.511-4.985-4.207-10.83-7.167-14.892-.225-.177-.405-.228-.502-.228-.23.093-.23.274-.186.685 4.799 8.223-.911 17.495 3.522 25.666.127 1.914 1.23 3.506 2.054 4.874zm-6.397 1.369c.911 1.154 2.696 1.009 3.841.374l-4.561-10.598c-.195-.123-.323-.181-.508-.181-.917.181-1.054.549-1.875.872-1.87.319-3.154-.596-4.016-1.739-.192 2.335 1.504 3.933 2.146 5.75 1.555 1.652 2.595 4.21 4.973 5.522zm14.477 2.155c.591 1.365-.275 2.691-.68 3.792l9.721 4.789-3.013-2.878c-3.926-.587-3.33-5.392-6.303-6.531 0 .285.046.372.275.828zm-8.034 5.244c.089-.087.134-.317.134-.404l-1.646-3.43-2.184-.5c-.514 0-.603.5-.732.688v2.194c.451 1.136 1.228 1.597 2.378 2.098.898.273 1.772-.001 2.05-.646zm63.884 74.53l.681-4.431c-.232-.319-.681-.368-1.143-.823-1.235-.964-.502-2.742-.547-4.065l-.276-.175-1.272 1.456c0 .188.181.498.181.678-.784 1.788-2.61 2.698-4.389 3.243-1.316 2.575.329 6.809-2.691 8.32l-9.044-.549c-3.65 1.865-6.578 4.885-8.359 8.307-.364.193-.674.274-1.136.868-1.645 2.604-5.255 3.611-7.953 4.841l4.799-.594c.598.281 1.15.826 1.15 1.462-1.375 3.423-5.852 3.104-7.593 5.665 5.396-1.47 9.141-5.159 15.167-5.201 3.103-.784 3.611-3.75 4.836-6.535 2.512-3.833 7.267-3.747 11.557-4.566 3.192-1.283 4.838-4.706 6.032-7.901zm8.44-38.496c1.142.139 2.466.413 3.75.087.311-.817-.461-1.411-.512-2.185-.45-.371-.952-.6-1.13-1.235l-5.396.051c-.322.181-.412.316-.449.503-1.099.584-1.967 1.224-3.432 1.41-.86.227-1.732-.503-1.964-1.141l.051-1.96c0-.276-.502-.503-.552-.503h-.681l-4.111 1.14 1.097.552c.188.181.039.316.188.455l2.827 1.504h1.182c.694.181.964.82 1.194 1.182l2.234.28 1.459-1.193c1.457-.819 2.512.684 4.245 1.053zm-41.87-21.451h-.231l2.287 3.276c1.451 2.965 2.788 5.892 5.022 7.894l6.205-1.043c0-.6-.359-.729-.537-1.462-2.429-4.832-7.767-7.126-12.746-8.665zm20.048 20.679l.174-1.052-.996-1.458c-.455-.371-1.099-.697-1.458-1.465-1.657-2.011-3.751-3.066-6.256-2.885l-.232.042 4.792 4.308c.039.223.09.316.09.503.783.311 1.464.907 2.414 1.866.374.229 1.106.502 1.472.141zm-7.446 2.369c.145-.367 0-.823-.186-.958-1.458-.827-2.505-2.15-3.603-3.647-1.143-1.101-2.423-2.888-4.158-2.656l-3.694 1.83.728.552c.134.181.186.316.322.503.596.584 1.824.542 1.958 1.456l-.231 2.424s.051.269.231.497c.687.639 1.602 1.233 2.879.784.59-.187.962-.689.962-1.28-.269-.688-.596-1.288-1.189-1.469-.276-.042-.589-.174-1.05-.316-.547-.322-.915-.958-.69-1.552.876-1.097 2.012-.145 2.93 0 1.697.594 1.362 3.149 1.965 4.431l2.826-.599zm-5.478 12.014l2.152-3.973c-.371-.738-.693-1.47-1.465-1.739-.372 0-.918 0-1.189-.093l-1.643.876 1.135 4.783 1.01.146zm-9.314-23.748c.778 1.281 1.689 1.411 2.825 2.604 1.376.277 2.012-.554 2.795-1.145 0-.322-.193-.634-.283-.69l-4.15-1.187-1.187.418zm5.891-17.078c-.502.865-.137 2.146.455 2.836 1.008.458 1.958.271 2.466-.419.502-.955 1.049-2.197.271-3.192l-1.497-.417c-.925.101-1.053 1.012-1.695 1.192zm-2.699-.274c-.591.093-1.128.413-1.128 1.006l.994 1.275.405-1.956c-.039-.232-.039-.325-.039-.512 0-.5-.091.232-.232.187zm-3.289 8.27c.183-.374-.231-.693-.32-1.145-2.507-4.29-6.85-7.173-11.093-9.042-.226-.058-.226.177-.226.225l1.231 1.504 3.149.735 1.734 2.921 5.525 4.802zm-15.833-9.961c1.368 1.149 2.459 3.24 4.053 3.653-1.093-1.688-2.371-3.285-3.694-5.118-.359-.632-1.188-1.181-2.011-1.181-.179.048-.225.048-.269.048l-.546 1.643c-.096.316-.508.362-.598.591.867-.73 2.332-.229 3.065.364zm7.021-8.306c-.405.774-.542 1.91.051 2.51.635-.6 1.419-1.875.771-2.785l-.219-.093c-.283 0-.417.093-.603.368zm-1.557-5.119c-.491 0-.679.498-.723.727.044.419-.097.97.232 1.142.276.103.542.103.725 0 .37-.319.642-1.184.186-1.643-.137-.132-.324-.226-.42-.226zm-14.014 2.737l1.463.688c.508-.136.732-.317.778-.688l-.502-.997-2.415-1.962h-.238l.914 2.959zm4.521 8.498c.142-.913.372-2.102-.322-2.695l-2.183-.73c-.181.088-.232.088-.277.088-.455 1.411.502 2.739.996 3.752l1.015.5c.225-.542.725-.542.771-.915zm-5.114-.046c-.038.771.502 0 .373 0l-.373-.913c-.366.231 0 .59 0 .913zm76.175 32.92c1.362 1.233 3.236 2.562 5.293 2.375.231-.13.312-.585.134-.817l-1.599-1.236-3.147-.726c-.232 0-.681.228-.681.404zm-6.399 9.226l4.023-.319-.874-1.646c-.232-.039-.322-.039-.503-.039l-2.646 2.004zm7.348-.865l2.243-1.14-.823-.503c-.097.048-.188.048-.278.048l-1.142 1.595zm9.682 1.229l.23-.913-.23-.186-5.204 4.804-.545 2.646c1.045-2.646 3.093-5.256 5.749-6.351zm4.021.275c.457.41 1.277.548 2.1.223.729-.63 1.914-.949 1.914-1.953l-3.147-.232c-.373 0-.591.364-.732.5-.134.232-.18.361-.271.503l.136.959zm4.298 4.021c.5-.549.859-1.562.539-2.331-.039-.142-.366-.269-.539-.223-.824.181-1.51.676-1.742 1.224v.461c.232.458.545.869 1.048 1.008.275-.139.598 0 .694-.139zm-3.154 11.636l.225-1.549c-.04-.082-.225-.268-.225-.268l-.277-.042c-.276.228-.41.31-.41.591.268.597.318 1.007.687 1.268zm10.866 3.618l.591-2.924c-.09-.506-.499-.693-.682-.868-.547 0-1.01.542-1.235.868l1.001 3.054c.141-.588.279.361.325-.13zm3.88-15.348c.178-.548.639-1.41-.142-1.467l-7.757-.217c-.186.051-.233.051-.276.051-.231.224-.231.498-.231.622l3.519 3.162.136 4.566c.318.181.781.136.872-.139-.047-2.78 1.691-4.565 3.879-6.578zm0-4.427l.407-.962c-1.323-2.236.552-4.886-.778-6.57h-6.751a.73.73 0 0 0-.552.226c-1.001 2.007-.775 4.606-.591 7.123.413.684 1.327.906 2.328.906 1.966-.362 4.288.783 5.937-.723zm37.987 20.603l-2.236.95c.135 3.476 1.914 8.222 3.523 11.188 1.682 1.965 4.283 2.278 6.842 2.61 3.295-.332 5.941.913 7.81 3.183 2.056 2.933 2.779 6.583 6.531 7.589 2.192.915 4.57.552 6.845 1.688 1.833.868 3.928 1.414 5.528 2.33.114.042.277-.344.314-.413-1.369-.913-2.595-2.604-2.551-2.827-.044-.374-.732-1.42.5-2.246 1.143-1.365 7.216.684 7.168-1.372-.007-.008-.1.124-1.365-.081-2.875 0-4.848-.044-8.223-2.562-2.511-.919-3.879-2.821-5.527-4.699l-3.705-3.563c-.816-.503-3.14-1.471-4.009-2.014-4.156-1.462-6.944 1.785-10.323 0l-1.456-7.125-3.979-5.104c-.171 0-.498 0-.723.082-.28.145-.329.461-.464.916l-.5 1.47zm-31.826-4.807l.323-1.597c-.136-.184-.181-.229-.323-.323l-.229-.093c-.407 0-.359.367-.407.416.317.596.368 1.287.636 1.597zM509.211 424c.1-.136.144-.181.276-.28-.276-.545-.771-1.038-1.268-1.224h-.232c.233.729.365 1.504 1.224 1.504zm2.156 4.885c.274-.129.499-.274.409-.545-.181-.181-.316-.275-.409-.275-.278.232-.408.82 0 .82zm.545-7.9v-.684c-.235-.503-.594-.916-.952-1.004l-2.466-.175c-.096 0-.371.082-.506.082v.594c.729.361 1.368.871 2.236 1.462.416.222 1.6.503 1.688-.275zm17.536-1.456c.732-.144 1.643.269 2.236-.325l-.593-.868-.911-.5c-.185.087-.232.087-.275.087l-.457 1.606zm15.152-12.92c.781-.51 2.522-1.188 2.383-1.965l-4.107-.417-.236.051c-.132.678.504 1.633 0 2.089-.318.147-.318.516-.318.745 0 0-.269.123-.359.311-1.101.784-2.783.232-3.882-.311-.139-.187-.049-.322-.139-.417-2.604-.458-5.435-1.919-7.716-.138l-1.055 1.509c.278.455.278.998.546 1.14 2.833.316 4.759-1.784 7.54-1.826 1.318.129 1.369 1.456 2.195 1.968h1.457l3.691-2.739zm25.849 15.154l.232-4.888c-.178-.495-.543-.911-.962-.998h-1.23c-1.148.229-1.875.998-2.143 1.958l2.143 3.647c.498.325.872.645 1.417.598.231-.224.404-.272.543-.317zm-10.447-16.945c.994-1.143 2.601-1.772 2.601-3.233-.413-.371-1.064-.371-1.423-.371-.865.184-1.411.738-2.188 1.319-.967 1.694-3.515 2.924-3.701 4.934l1.741-.31c.131-.232.131-.367.131-.548.861-.739 1.738-1.152 2.839-1.791zm5.066-12.328c-.959 1.426-2.607 2.698-2.607 4.573l5.069.955.959-.455 5.977-10.776-.269-.181c-1.377.5-2.284 1.275-3.472 2.049-2.332.598-4.02 2.017-5.657 3.835zm9.314 13.609l.684-1.182c-.049-.274-.139-.416-.229-.461l-5.076-1.691-3.963 4.347c-1.284.636-2.882 1.268-3.063 2.691l3.337.862-.227-2.598c.637-.874.95-2.097 2.228-2.61 2.237-1.369 4.385 1.152 6.309.642zm-5.612 1.968c-.235.594-.376 1.636 0 2.144l1.733-.181c.455-.051.588-.507.95-.681.096-.6.096-1.33-.227-1.652-.227-.084-.322-.187-.5-.187l-.276-.043-1.68.6zm3.776 4.473l-1.865.913 1.458.639.407-1.552zm1.875-12.054c.874-.503 1.739-1.368 2.107-2.188-.043-.281-.142-.419-.188-.461l-1-.229-3.384 1.185c-.13.188-.271.326-.271.507l2.736 1.186zm-5.796-19.001c-.09.73.086 1.875.638 2.192.417-.093.92 0 1.186-.269.642-.781 1.058-2.149.232-3.062-.232-.087-.543-.087-.729-.087-.592.088-.914.545-1.327 1.226zm13.382 2.424c.456-.959 1.323-1.462 1.323-2.598l-1.097.315-3.198 3.467-.503 1.917 3.475-3.101zm5.248-4.153a.742.742 0 0 0 .186-.51c.5-.352.953-.771 1.369-1.181l-3.473 1.227c-.229.919-1.094.826-1.375 1.419l3.293-.955zm1.556 2.371l.801-1.055c-.296.218-1.32.799-.801 1.055zm2.645-3.233c1.321-1.013 2.924-1.655 4.561-1.333l-.591-2.466c-.267-.093-.132-.181-.313-.181h-.506l-4.431 2.324.826.554c.454.273-.001 1.102.454 1.102zm7.258-3.024l.461-1.868-.271-.087c-.376.224-.735.546-.825 1 0 .368 0 .729.276.955.172-.587.317.549.359 0zm-1.691-5.891c-.91-1.365-.546-2.966 0-4.563l-.365-.094c-2.369 2.06-2 5.896-5.203 6.577-.044.232-.596.685-.223.968l5.791-2.888zm3.97-2.512c.96-.542 1.603-1.69 1.335-2.778-1.516.503-2.934 1.369-3.256 2.824a.547.547 0 0 0 .193.325c.458.269.956-.054 1.274-.054.001 0 .274-.172.454-.317zm7.092 3.244c.445-.914 1.358-2.144.735-3.198-.235-.088-.428-.227-.52-.274l-.267-.046c-.283.093-.552.093-.736.093-.946.498-1.783 1.369-1.871 2.463.088.6.638.92.925 1.013.588.181 1.363.274 1.734-.051zm8.08-12.048c1.454-1.371 2.273-3.797 2.595-6.034a1.759 1.759 0 0 1-.09-.41l-1.732 1.739c-1.694.314-3.379.269-4.474-.823l-4.75 11.412c1.553 0 2.966-.226 4.072-1.052 1.718-1.634 2.914-3.101 4.379-4.832zm-11.742 3.466c.232-.093.41-.139.503-.186 1.323-2.282 2.092-4.88 3.108-7.578.322-1.823.858-2.878.95-4.892-.127-4.108-1.091-7.852-.591-11.779l2.146-6.751c-2.183 1.817-2.788 3.789-4.29 6.074-1.323 3.24-3.059 7.029-3.779 9.991.54.605 1.812.461 2.095 1.242.035.955.09 1.956-.461 2.923-.645.588-1.145 1.369-1.633 1.962 0 .869.54 1.049.948 1.818.414 2.245-2 2.748-2.733 3.792-.464 1.009.5 1.783.823 2.42l2.914.964zm18.91-27.582l.133-8.446c-.181-.681-.827-1.01-1.095-1.416l-2.056-.271c-.181 0-.413.085-.503.085-.32.822.09 1.601.129 2.562.193.871-.449 1.647-1.182 2.424-.503.359-1.59.359-2.107-.098-1.736.188-2.917 1.638-3.917 2.79-.595 4.058-1.965 8.901-.915 12.464l1.914-3.518.964-.32c.824.133 1.465 1.146 2.187.634.409-.546.653-1.137.964-1.962 1.235-1.916 3.018-4.562 5.484-4.928zm-21.328-6.348l4.347.046.855-.821c.827-1.513 0-2.924-.638-4.069l-.913-.225-2.197 1.37-1.414 1.323c0 .823-.627 1.787-.04 2.376zm7.172-6.256c-.285.142-.504.142-.465.464.272.269.181.636.556.723.22-.087.499.098.681-.087.142-.23.047-.508 0-.636-.272-.231-.461-.419-.681-.419l-.091-.045zm14.337-7.579c.413-3.739-.497-7.805-1.877-11.14l-1.824 14.108 3.701-2.968zm5.742-17.128c-.95-.133-1.809-.629-2.234-1.457-.035-1.145.781-2.094.229-3.423-.308-.959-.627-1.824-1.639-2.006l-.275-.051c-.322.09-.54.278-.642.324-.823 1.097-.452 2.742-1.052 4.198 0 3.245.966 6.348 1.73 9.772.928 2.556.645 5.345 1.932 7.491 1.001.043 1.643-.637 2.737-1.009 3.289-2.737 6.077-5.061 10.405-6.205l-1.142-3.11c-2.095-.274-4.292-.089-5.652-1.592l-1.465-2.423c-.129-.641-.361-1.508-.955-1.645-.229.232-.332.508-.498.681-.322.143-.874.322-1.479.455zm-6.795-14.741c-.825.591-1.964.726-1.964 1.824.138.231.228.455.267.508.82.313 1.146 1.136 1.697 1.502.178.134.281.186.498.186.058-.051.105-.186.234-.235l-.964-1.729.41-1.974-.178-.082zm-1.783 10.181c.37-1.33.279-2.646-.363-3.745-.232-.134-.413-.225-.503-.225-.178.09-.229.09-.269.09l.863 4.38c.001.001.229-.231.272-.5zm-4.513-31.367l2.415.818-1.003-3.881-.229-.044-1.183 3.107zm11.445-25.303c-1.411.374-3.128.225-3.647 1.695-.127 1.414 1.016 2.64 1.965 3.239.503 0 1.149-.136 1.682-.644.826-1.001 2.342-2.28 1.882-3.789-.453-.501-1.327-.501-1.882-.501zm-73.51-34.194c1.145-1.008 2.836-.506 3.979-.506-.642-1.513-2.288-2.424-3.476-3.154h-.503l-4.29 1.424 3.379 3.372c.368-.184.414-.687.911-1.136zm11.745-.322c3.283-1.741 7.663-.462 10.915-.911-.142-.734-.696-1.003-.964-1.376-.729-.32-1.646-.506-2.466-1-2.288-.642-4.618-.913-6.752-.823-1.561.823-3.297 2.056-3.939 3.423.142.502.597.911.967 1.008.774.042 1.32-.275 2.239-.321zm18.305 14.197c-.456-1.965-.188-3.738.958-5.107-1.414-1.921-3.465-3.611-5.379-4.714-1.01-.174-1.742-.823-2.656-.869l-1.411.695c-.967 1.37-1.69 3.565-1.465 5.251 1.508.313 2.331 1.277 3.376 2.323.637.283 1.369-.225 1.694-.496.132-.23.364-.55.461-.687l1.001-.461 1.594.642c1.143.918.687 2.422 1.006 3.699.274.039.136.227.323.227.311-.046.359-.323.498-.503zm-12.87-6.123l.634-3.647c-.595-.413-1.411-.775-2.153-.687-.171.044-.223.044-.359.044l.136 3.558c.142.508.503.966.911 1.01.322 0 .725 0 .831-.278zm14.691-4.835c.138-.368-.269-.644-.359-.823l-1.462-.366-1.956-1.14h-.239l2.195 2.329c.41.223 1.462.367 1.821 0zm2.661 1.741l-.69.449c0 .327.139.642.368.964.771 1.136 2.188 1.412 3.324 1.136v-.86l-2.823-1.646-.179-.043zm-1.058 9.314c.69.134 1.55.314 2.06-.097.403-1.226.909-2.601.086-3.56l-2.146-.045-1.051.919c-.269.632-.182 1.14 0 1.729.499.322.823.635 1.051 1.054zm6.806-1.786c-.91.188-1.691.823-2.151 1.413 0 .592.093 1.37.46 1.69 1.098.329 2.379.547 3.057-.134.326-.457.69-.964.593-1.556-.323-.867-1.136-1.182-1.959-1.413zm5.618 13.156c.275 1.406.597 2.826 1.457 3.515.193.132.322.132.499.132.143-.132.285-.274.285-.454l-1.746-7.306c-1.046-.828-2.465-1.369-3.656-2.324-2.864 0-5.147-1.606-7.527-1.831-.186.089-.228.089-.367.089-.132.181-.132.457-.132.644.132.496.313.682.681.957.955.142 1.646-.321 2.696-.275 2.102.732 2.88 2.741 3.703 4.47 1.5.418 3.459.822 4.107 2.383zm7.807 1.369c-.232.269-.232.591.049.687.232-.096.587.173.587-.328l-.355-.359h-.281zm-6.58 14.471l2.466 1.413-.823-3.791-.229-.171s-.271.127-.361.219c-.911.499-1.092 1.465-1.053 2.33zm7.041.046l.555-1.228-1.287-2.607-.913-.276c-.556.046-.859.366-1.055.732-.356 1.279.195 2.601.823 3.521.59.09 1.416.313 1.877-.142zm2.643-6.114l3.151 2.735-1.647-3.013-2.378-.918c-.232.232-.232.501-.177.604.464.27.874.27 1.051.592zm7.722 1.226c-.41.506-.283 1.143-.228 1.689l1.642.499c.32-.267.363-.357.402-.679 0-.732-.312-1.368-.681-1.831l-.221-.039-.914.361zm-3.985 8.133c.232.679.735 1.502 1.417 1.412-.092-.823-1.044-.867-1.221-1.412h-.196zm6.312 12.371c.178-1.644-.322-3.604-1.055-4.844l1.055 4.844z" clip-path="url(#b)" fill="#009c56"/></g><path d="M339.664 256.754l1.782 1.265-.012.018.186.13.449.327c.473.49.52 1.027.51 1.073l.126.606c0 1.754-1.588 2.463-1.997 2.722l-.798.232c-.496 0-.67.099-1.408.26l-.97-.12c-1.435-.714-1.245-2.28-1.152-2.778l.148-.806.065-.081.074-.827c.162-.379.185-.835.664-1.552l.549-.3-.036-.074.208-.013.507-.022 1.105-.06zm-1.474 5.186c.58-.122.983-.291 1.721-.291.577-.362 1.316-.854 1.316-1.477-.167-.364-.202-.692-.45-.815l-1.967-1.397c-.088.081-.209.081-.248.081-.25.37-.29.738-.538 1.317.087.37-.097.899-.189 1.395-.097.504-.097.96.355 1.187zM359.087 299.753l-.635.349-.486.16-1.085.166-.183.018c-1.086.03-2.103-.126-2.68-.143l-.322-.045c-.347-.093-.619-.186-.636-.191l-.715-.531c-1.283-1.773-.693-4.045.353-5.272l.431-.35 1.236-.653 1.04-.134 1.338.468 1.629 1.479c.542.48 1.108 1.004 1.57 1.529l.425.652.024.175-.053.062-.489 1.564-.762.697zm-1.108-.989l1.057-.674c-.122-.248-.122-.537-.168-.858-.822-1.272-2.297-2.303-3.811-2.668l-1.234.656c-.699.822-1.028 2.414-.282 3.44 0 0 .242.088.531.162 1.078.036 2.682.348 3.907-.058zM360.287 196.84l.204-.43.5-.38.094-.081.15-.087.149-.097.728-.22.07-.121.347-.155h1.511l1.109.496c.116.13.916.64 1.34 1.713l.092.664-.08.942-.422.906-.732.746-1.05.442h-1.974l-.832-.254c-1.292-.878-1.373-2.649-1.397-2.707l-.103-.733.296-.645zm1.49 1.967l.543.895h1.973l.727-.745.088-.94c-.209-.533-.74-.907-1.069-1.27h-1.511c-.116.133-.19.213-.243.264l-.116.005-.401.254c-.165.082-.29.18-.315.37.164.393.233.803.324 1.167zM382.937 186.254l1.132-.52 2.458.494.612.278c.061.046.844.595 1.097 1.518v.78c-.149.56-.299 1.483-.61 2.424l-.064.16-.399.862-.704.71-1.962.936-2.044-.895-1.114-3.535.122-1.16 1.027-1.846.45-.206zm2.886 5.373l.399-.862c.258-.79.405-1.674.59-2.348-.121-.457-.365-.583-.573-.74l-2.216-.456-.244-.041-1.025 1.84 1.106 3.538c.116.163.369.244.612.244 0 0 .202-.08.451-.244a1.96 1.96 0 0 0 .794-.715l.106-.216zM339.888 222.185l-.513-.3c-1.064-.96-1.081-2.426-.678-3.505l.094-.206c.16-.284.416-.602.772-.86l1.307-.492.831.01c.819.151 1.407.678 1.753 1.023l.358.574c.48 1.424-.195 2.666-.924 3.398l-.473.317c-.802.341-1.726.306-2.527.04zm2.528-3.285c-.37-.369-.86-.698-1.391-.617-.498.04-.786.327-.946.617-.248.658-.122 1.517.281 1.881.619.208.994.208 1.479 0 .53-.53.822-1.141.577-1.88zM354.948 219.287l-.133 1.836-.16.368-.314.514-.462.475-1.477.947-1.549.033c-1.27-.75-1.27-2.151-1.131-2.855.145-.752.394-1.347.428-1.548l1.235-1.207 1.687-.246.893.147c.039.025.734.267.964 1.2l.03.158-.01.178zm-1.87 1.95l.316-.512c.13-.475.165-.982.106-1.416-.046-.16-.209-.248-.209-.248l-1.686.248c-.078.476-.326 1.046-.43 1.577-.1.526-.066 1.01.43 1.299h.612s.255-.167.462-.29l.4-.657z" fill="#009551"/><path d="M353.81 220.592l.03-.163.415-.814.653-.658 1.537-.353 1.066.376.525.31c1.155 1.086 1.535 3.084.554 4.597l-.242.284-.808.742-.733.37-.63.114-.416.02c-.633-.066-1.32-.255-1.91-.793l-.462-1.316.422-2.716zm3.545 2.492c.53-.824.289-2.135-.328-2.707l-1.069-.374-.658.658-.45 2.874c.492.451 1.595.577 2.177.203.035-.156.12-.283.328-.654zM372.22 194.905l.04 1.374-.74 1.517-1.043.809c-.1.018-2.12 1.2-3.788-.137l-.052-.046c-.4-.353-.959-.643-1.327-1.507l-.094-.862.281-1.47.978-1.125 1.476-.498.716-.051 1.974.329 1.044.727.535.94zm-5.554 1.426c.121.287.491.577.948.98.772.618 1.76 0 2.58-.163l.74-1.516-.532-.943-1.974-.327-1.478.495-.284 1.474zM562.894 219.13l-.392-.003c-1.064-.666-2.658-2.144-2.45-4.307l.07-.34c.435-1.253 1.51-1.835 2.331-2.067l.116-.03 1.893-.38.29 1.448-1.896.381c-.61.173-1.107.467-1.338 1.13-.114 1.271.913 2.373 1.766 2.91l-.39 1.259zm4.71-5.949l.3.277c.39 1.287-.116 2.407-.604 3.128l-.093.127-.701.843-1.133-.94.705-.85c.382-.57.612-1.194.407-1.875l1.119-.71zM548.451 216.419l.775 1.585.024 1.259-.442.977-.482.37-.87-.974.456-.978-.788-1.586 1.327-.653zm.113 2.01l.466.483c.103.283.103.608-.028.906l-.195.423-1.132.861-1.74.246-1.42-.617c-.697-.992-1.468-2.609-.948-4.417l.105-.258c.16-.308.39-.653.76-.937l.38-.213.06-.016 1.132.04 1.741.802.704.687.137.272c.138.292.153.617.057.906l-.577.651.339.005.159.176zm-3.174-2.161l-.056.023c-.15.114-.265.272-.347.432-.32 1.15.175 2.337.74 3.164.53.081 1.272.281 1.686-.127l.5-1.104-1.157-2.343-.82-.248-.546.203zM528.89 196.741l-1.359-.757c-.065-.12-.13-.213-.452-.42l-.612-.804c-.195-.63-.368-1.58.054-2.574l.388-.537.945-.82 1.004-.362 1.929.039 1.083.513c1.46 1.698.49 3.763.2 4.629l-1.337 1.01-1.843.083zm1.78-1.56c.362-1.101.817-2.337.077-3.199l-1.928-.04-.944.826c-.242.568-.164 1.024 0 1.554.448.289.74.57.944.947.62.12 1.394.283 1.851-.088z" fill="#009551"/><path d="M534.646 192.215l.689.029c.754.208 2.182.647 2.745 2.176l.073.29c.204 1.274-.539 2.135-.78 2.474l-.166.19c-1.397 1.397-3.301.762-4.205.499l-.562-.308c-1.015-.888-.918-2.077-.918-2.632l.312-.906c.572-.733 1.508-1.547 2.812-1.812zm-1.23 4.237c.986.296 2.137.492 2.746-.12.293-.411.62-.867.533-1.399-.29-.778-1.02-1.06-1.76-1.27-.817.17-1.519.74-1.932 1.27 0 .531.082 1.23.412 1.519zM540.37 294.1l.449-1.031 1.272-1.19.226-.172 1.966-1.23 1.132-.18.817.197.949.72c.506.908 1.764 2.894.576 5.08l-.279.36-.768.736-1.037.41-3.905-.039-1.03-.432c-.517-.52-.64-1.323-.631-2.005l.217-1.182.045-.042zm1.417 2.183l3.906.041.769-.737c.743-1.36 0-2.628-.574-3.657l-.82-.202-1.974 1.231-1.27 1.189c0 .74-.564 1.606-.037 2.135zM446.562 372.198l.275-.368c.458-.45 1.091-.62 1.524-.62h6.067l1.162.563c1.077 1.37.767 2.922.657 3.854-.127 1.08-.138 1.72.15 2.213l.094 1.33-.371.864-.366.517c-2.082 1.896-5.347.88-6.062 1.016l-.637-.03-1.527-.38-.52-.257-.566-.429-.574-1.064c-.174-2.213-.486-4.85.668-7.175l.027-.034zm1.62 7.735l1.243.174c1.768-.325 3.854.704 5.336-.65l.366-.864c-1.189-2.01.496-4.391-.7-5.904h-6.066a.655.655 0 0 0-.496.203c-.9 1.803-.696 4.139-.53 6.4.184.311.485.514.848.641zM516.597 414.4l.38.19.375.203 1.829 1.183-.039.069.448.294c1.235.658 2.775.626 4.222.658l.623.068-.339.195 2.468 1.062a2.15 2.15 0 0 1-.2.96l-.34.441-.048-.031c-1.617.998-3.513.47-5.772.678l-.287.316-.13.01-.143-.034-.158.134.006.011.07.236.108.204.325.444c.36.426.872.927 1.316 1.222l.474 1.939-.092.18-.065.094-.442.525a1.751 1.751 0 0 1-.63.317l-.152-.011-1.403-.355-4.396-1.848-.024-.01c-.584-.292-1.236-.428-1.95-.539l-2.207-.357-3.37-1.371-.825-.49-.902-.688c-.531-.575-.97-1.2-1.355-1.842l-1.911-3.424-.063-.09-1.059-1.04c-1.227-.953-2.733-1.397-4.593-1.216h-.327c-1.672-.214-3.712-.408-5.461-1.465l-1.397-1.183-.17-.241-.067.037-.173-.254.07-.043-.244-.36-1.334-3.093-.364-1.002c-.358-1.216-.687-2.49-1.056-3.721l-.133-.35-.281-2.132.901-1.414 1.403-.598.217-.636.01-.057.17-.64c.148-.348.43-.75.985-1.033l.15-.063c.586-.216 1.001-.167 1.166-.167l1.167.574 3.572 4.59.282.612 1.132 5.517.89.195c.52-.021 1.108-.157 1.863-.341 1.442-.352 3.425-.88 5.746-.067l.292.146c.563.347 2.649 1.218 3.592 1.79l.254.192 3.325 3.202.085.1c1.178 1.335 2.05 2.45 3.15 3.197l.836.421zm-.127 1.576c-2.257-.825-3.486-2.535-4.967-4.222l-3.33-3.202c-.732-.452-2.82-1.322-3.601-1.81-3.735-1.313-6.24 1.604-9.277 0l-1.308-6.402-3.575-4.586c-.154 0-.448 0-.65.073-.252.13-.296.415-.417.823l-.45 1.32-2.009.853c.122 3.124 1.72 7.388 3.166 10.054 1.512 1.765 3.849 2.047 6.148 2.345 2.961-.298 5.339.82 7.018 2.86 1.848 2.636 2.497 5.916 5.869 6.82 1.97.822 4.106.496 6.15 1.516 1.648.78 3.53 1.27 4.968 2.094.103.038.249-.31.282-.371-1.23-.82-2.332-2.34-2.292-2.54-.04-.336-.658-1.276.45-2.019.774-.915 4.038-.11 5.597-.43.523-.106.859-.344.843-.802 0 0-.09.11-1.226-.073-2.585.002-4.357-.039-7.39-2.3zM408.348 398.505l.457-.206.005.017.16-.174.693-.782-.035-.3.364-.973 1.15-1.314 1.926-.25.248.156.66 1.179c.04 1.05-.041 1.638-.1 1.991-.057.35-.093.463.023.558l.128.105c.052.052.509-.027 1.19.932l.264 1.084-.474 3.034-.07.267-1.062 3.126.025.005-.04.094c-1.068 2.313-2.637 4.623-5.329 5.695l-.272.084c-3.7.71-6.805.789-8.686 2.581l-.583.693-.034-.03-.086.225-.607 1.574-.564 1.309-.341.4-1.67 2.167-.259.241a5.738 5.738 0 0 1-1.817.793l-.348.044c-4.796.035-7.868 3.165-13.247 4.626l-1.612-2.258c1.125-1.668 2.915-2.223 4.152-2.778.67-.293 1.201-.566 1.615-.875l.26-.345-2.558.25-.167-1.365 3.706-.46c.537.252 1.033.742 1.033 1.313-1.236 3.076-5.259 2.79-6.823 5.09 4.849-1.32 8.214-4.635 13.629-4.673 2.788-.704 3.245-3.37 4.345-5.872 2.258-3.445 6.53-3.367 10.385-4.103 2.87-1.151 4.348-4.228 5.422-7.099l.611-3.982c-.208-.286-.611-.33-1.027-.74-1.11-.865-.45-2.463-.491-3.652l-.248-.157-1.143 1.308c0 .17.163.448.163.61-.35.805-.939 1.407-1.637 1.877l-.674.305-.61-1.345zm-27.5 20.153l3.533-1.54 1.558-.968c.438-.342.805-.715 1.063-1.132l.08-.114c.289-.374.624-.653.905-.843l.226-.135 1.252-2.004 2.28-2.463 3.28-2.513-.022-.045 1.107-.655.034.072.219-.13.508-.103 7.549.463.502-.523.29-1.47.051-.816 1.478.093-.057.845c-.114 1.408-.428 2.703-1.777 3.38l-8.127-.493c-3.28 1.676-5.911 4.39-7.511 7.464-.327.174-.606.247-1.021.78-.739 1.168-1.917 1.977-3.213 2.639l-3.597 1.565-.59-1.354zm3.637-2.1l.52-.219.254-.493 1.097 1.104-.028.067-.757.694-.524.213-.243-.539.076-.032-.395-.794z" fill="#009551"/><path d="M405.265 403.74l.094-1.303v-.054c.08-.78.224-1.638.658-2.475l.703-.667 1.63-.736.61 1.345-1.633.73c-.294.578-.428 1.254-.496 1.954l-.088 1.297-1.478-.09z" fill="#009551"/><path d="M451.138 183.839c-47.386 0-85.853 38.455-85.853 85.845 0 47.384 38.467 85.846 85.853 85.846 47.382 0 85.84-38.462 85.84-85.846 0-47.39-38.458-85.845-85.84-85.845" fill="#fff"/><path d="M451.138 183.839c-47.386 0-85.853 38.455-85.853 85.845 0 47.384 38.467 85.846 85.853 85.846 47.382 0 85.84-38.462 85.84-85.846 0-47.39-38.458-85.845-85.84-85.845z" fill="none" stroke="#009460" stroke-width="1.791" stroke-miterlimit="11.474"/><path d="M451.115 189.282c-44.377 0-80.404 36.026-80.404 80.403 0 44.386 36.026 80.407 80.404 80.407 44.38 0 80.403-36.021 80.403-80.407 0-44.377-36.022-80.403-80.403-80.403" fill="#ffca00"/><path d="M451.115 189.282c-44.377 0-80.404 36.026-80.404 80.403 0 44.386 36.026 80.407 80.404 80.407 44.38 0 80.403-36.021 80.403-80.407 0-44.377-36.022-80.403-80.403-80.403z" fill="none" stroke="#009c56" stroke-width="1.791" stroke-miterlimit="11.474"/><path d="M451.115 189.282c44.38 0 80.403 36.026 80.403 80.403 0 44.386-36.021 80.407-80.403 80.407-44.377 0-80.404-36.021-80.404-80.407 0-44.377 36.026-80.403 80.404-80.403zm0 .9c-43.885 0-79.513 35.618-79.513 79.503 0 43.887 35.627 79.517 79.513 79.517 43.888 0 79.51-35.63 79.51-79.517 0-43.885-35.622-79.503-79.51-79.503z" fill="#009551"/><path d="M390.765 313.682l-.203-.316 3.343-12.285-5.161 3.284c-1.91 1.22-2.199 1.61-1.259 3.106l-.352.223c-.386-.606-.756-1.243-1.136-1.853-.393-.608-.809-1.216-1.201-1.823l.357-.233c.533.851.943 1.487 2.696.371l5.56-3.543c1.2-.754 1.298-1.54.542-2.73l.358-.231c.253.438.51.866.784 1.294.233.373.508.75.75 1.114-.482 1.112-.921 3.192-1.666 5.88-.548 2-1.09 4.175-1.518 5.767l5.507-3.502c1.27-.806 1.471-1.348.612-2.738l.357-.23c.394.645.786 1.306 1.196 1.937.34.544.71 1.053 1.044 1.595l-.357.225c-.542-.843-.894-1.26-2.251-.393l-8.002 5.081" fill="#009c56"/><path d="M390.765 313.682l-.203-.316 3.343-12.285-5.161 3.284c-1.91 1.22-2.199 1.61-1.259 3.106l-.352.223c-.386-.606-.756-1.243-1.136-1.853-.393-.608-.809-1.216-1.201-1.823l.357-.233c.533.851.943 1.487 2.696.371l5.56-3.543c1.2-.754 1.298-1.54.542-2.73l.358-.231c.253.438.51.866.784 1.294.233.373.508.75.75 1.114-.482 1.112-.921 3.192-1.666 5.88-.548 2-1.09 4.175-1.518 5.767l5.507-3.502c1.27-.806 1.471-1.348.612-2.738l.357-.23c.394.645.786 1.306 1.196 1.937.34.544.71 1.053 1.044 1.595l-.357.225c-.542-.843-.894-1.26-2.251-.393l-8.002 5.081z" fill="#009551"/><path d="M397.599 313.15c-2.227 2.177-2.436 5.974-.15 8.32 2.505 2.576 6.292 2.112 8.439.021 2.241-2.178 2.435-5.958.156-8.318-2.504-2.573-6.287-2.11-8.445-.024m1.599.967c2.13-2.064 4.66-2.432 6.332-.712 1.957 2.002.549 5.387-1.235 7.123-2.13 2.077-4.66 2.43-6.333.71-1.956-2.002-.548-5.387 1.236-7.12z" fill="#009c56"/><path d="M400.52 313.133l-.843.323c-.382.2-.732.457-1.046.755a4.417 4.417 0 0 0-1.217 2.23l-.05.7-.185.437c-.33 1.308-.19 2.661.784 3.659 1.253 1.294 2.996 1.41 4.682.523l.48-.358.698-.208 1.039-.757v-.007l.959-1.405.345-1.604.15-.352c.33-1.313.197-2.66-.785-3.665-1.257-1.284-2.99-1.41-4.675-.511l-.336.24zm-2.921.016c2.158-2.084 5.94-2.549 8.445.025 2.28 2.36 2.084 6.14-.156 8.318-2.147 2.091-5.934 2.554-8.439-.022-2.286-2.346-2.077-6.143.15-8.32zm10.102 4.26l-.11.614-.061-.013-.06.252-.883 1.774a9.34 9.34 0 0 1-1.263 1.554l-1.593 1.208-1.928.43a5.727 5.727 0 0 1-4.353-1.76c-1.144-1.177-1.663-2.713-1.616-4.227l-.04-.006.109-.618.065.017.052-.247.888-1.776a9.466 9.466 0 0 1 1.258-1.553l1.606-1.213 1.922-.435c1.529-.05 3.1.482 4.353 1.762 1.138 1.178 1.656 2.718 1.616 4.225l.038.012zm-8.503-3.293c-1.784 1.734-3.192 5.119-1.236 7.12 1.675 1.72 4.203 1.368 6.333-.71 1.784-1.736 3.192-5.121 1.235-7.123-1.673-1.72-4.201-1.35-6.332.713z" fill="#009551"/><path d="M410.98 325.66c-.092 2.196-.283 4.395.004 6.589.388.26.781.517 1.161.778.336.227.66.492.994.726l.242-.347c-.687-.475-.83-1.127-.928-1.904-.133-1.054-.024-2.581-.006-5.217 1.263.414 2.718.168 3.508-.978.67-.952 1.099-2.775-1.44-4.547-.867-.593-1.359-.896-1.826-1.222-.658-.466-1.305-.926-2.032-1.46l-.243.353c.704.517 1.213.878.548 1.82l-4.752 6.828c-.53.771-1.206.558-1.847.049l-.24.352c.678.456 1.326.878 1.966 1.33.595.409 1.15.837 1.795 1.291l.244-.35c-.705-.51-1.202-.879-.548-1.824l2.175-3.113 1.225.846m3.52-1.247c-.67.966-2.079 1.62-3.733.463a5.22 5.22 0 0 1-.664-.568l2.748-3.938c.263.122.518.247.858.48 1.589 1.096 1.613 2.39.79 3.563z" fill="#009c56"/><path d="M413.977 324.944l.04.004c.31-.078.565-.254.726-.484v-.005c.14-.19.346-.483.283-.889l-.077-.146.059-.816c-.105-.615-.509-1.207-1.299-1.76a5.325 5.325 0 0 0-.858-.479l-.509.714-.127-.089-.041.094-.004.014-1.755 2.528.178-.031-.49.708c.173.178.432.404.665.568 1.238.86 2.342.71 3.098.179l.112-.11zm-2.997.716l-1.224-.846-2.175 3.113c-.654.945-.156 1.313.548 1.825l-.243.35c-.646-.455-1.2-.883-1.796-1.293-.64-.452-1.287-.874-1.967-1.329l.241-.352c.64.51 1.316.722 1.848-.049l4.751-6.828c.665-.942.157-1.303-.548-1.82l.244-.353c.726.534 1.373.994 2.031 1.46.468.326.96.629 1.825 1.222 2.539 1.772 2.11 3.594 1.44 4.547-.79 1.146-2.244 1.393-3.507.978-.018 2.636-.128 4.162.006 5.217.098.777.241 1.429.928 1.904l-.242.347c-.334-.233-.658-.5-.994-.726-.38-.26-.772-.517-1.16-.778-.289-2.194-.098-4.393-.006-6.59zm3.706.608l-.3.122-.006-.01c-.616.151-1.299.11-1.933-.095v.577h-.779l-.722-.324.035-.878-1.223-.846-.496.708-.22-.188-.149-1.873 2.748-3.947.75-.189.3.213c.467.327.958.63 1.825 1.223 1.268.888 1.794 1.782 1.926 2.575h-.07l-.016.526-.643 1.394-1.027 1.012zm-.186-1.855c.822-1.172.798-2.467-.79-3.564a5.325 5.325 0 0 0-.858-.48l-2.748 3.938c.173.178.431.404.664.568 1.655 1.158 3.063.505 3.732-.462z" fill="#009551"/><path d="M427.592 330.408l-.406-.19c.332-.826.636-1.33-.552-1.89l-2.25-1.073-3.937 8.274c-.485 1.038.068 1.33.847 1.709l-.184.39c-.709-.343-1.332-.669-1.986-.982-.71-.344-1.414-.654-2.165-.99l.186-.384c.795.357 1.36.61 1.859-.428l3.925-8.28-1.94-.92c-1.333-.635-1.557-.29-2.272.547l-.388-.17 1.281-2.29.295.146c-.02.477.368.677.74.85l6.73 3.2c.52.246.959.287 1.15.04l.317.152-1.25 2.289" fill="#009c56"/><path d="M427.592 330.408l-.406-.19c.165-.414.326-.74.29-1.046-.03-.296-.253-.563-.843-.845l-2.25-1.072-3.937 8.274c-.485 1.038.068 1.33.847 1.709l-.184.39c-.709-.343-1.332-.669-1.986-.982-.71-.344-1.414-.654-2.164-.99l.186-.384c.794.357 1.36.61 1.858-.428l3.925-8.28-1.94-.92c-1.333-.635-1.557-.29-2.272.547l-.388-.17 1.281-2.29.295.146c-.02.477.369.677.74.85l6.73 3.2c.52.246.959.287 1.15.04l.317.152-1.25 2.289z" fill="#009551"/><path d="M436.77 336.133l.901-3.457c.29-1.108-.312-1.286-1.141-1.517l.103-.409c.842.23 1.579.444 2.343.639.679.178 1.384.336 2.099.523l-.11.41c-.836-.202-1.447-.347-1.738.757l-2.088 7.976c-.288 1.103.314 1.281 1.148 1.514l-.11.41c-.704-.201-1.419-.404-2.129-.594-.747-.198-1.479-.36-2.316-.563l.11-.42c.847.204 1.453.35 1.742-.758l1.011-3.86-6.407-1.68-1.01 3.857c-.295 1.115.305 1.292 1.136 1.519l-.098.414c-.766-.2-1.437-.409-2.142-.588-.76-.2-1.502-.384-2.303-.58l.112-.403c.843.198 1.455.345 1.743-.774l2.077-7.954c.294-1.108-.307-1.289-1.143-1.519l.11-.414c.744.214 1.464.42 2.178.606.738.198 1.464.36 2.268.55l-.111.414c-.85-.2-1.456-.341-1.743.769l-.912 3.46 6.42 1.672" fill="#009c56"/><path d="M436.77 336.133l.901-3.457c.29-1.108-.312-1.286-1.141-1.517l.103-.409c.842.23 1.579.444 2.343.639.679.178 1.384.336 2.099.523l-.11.41c-.836-.202-1.447-.347-1.738.757l-2.088 7.976c-.288 1.103.314 1.281 1.148 1.514l-.11.41c-.704-.201-1.419-.404-2.129-.594-.747-.198-1.479-.36-2.316-.563l.11-.42c.847.204 1.453.35 1.742-.758l1.011-3.86-6.407-1.68-1.01 3.857c-.295 1.115.305 1.292 1.136 1.519l-.098.414c-.766-.2-1.437-.409-2.142-.588-.76-.2-1.502-.384-2.303-.58l.112-.403c.843.198 1.455.345 1.743-.774l2.077-7.954c.294-1.108-.307-1.289-1.143-1.519l.11-.414c.744.214 1.464.42 2.178.606.738.198 1.464.36 2.268.55l-.111.414c-.85-.2-1.456-.341-1.743.769l-.912 3.46 6.42 1.672z" fill="#009551"/><path d="M456.305 335.27h-.417c-.32-1.914-1.685-2.686-3.52-2.672-1.882 0-4.62 1.273-4.593 5.213.01 3.313 2.375 5.686 4.9 5.67 1.625-.005 2.963-1.128 3.28-2.847l.385.095-.38 2.396c-.676.428-2.531.878-3.608.884-3.838.016-6.275-2.454-6.286-6.14-.013-3.37 2.973-5.788 6.186-5.799 1.334-.006 2.606.414 3.879.86l.174 2.34" fill="#009c56"/><path d="M456.305 335.27h-.417c-.32-1.914-1.685-2.686-3.52-2.672-1.882 0-4.62 1.273-4.593 5.213.01 3.313 2.375 5.686 4.9 5.67 1.625-.005 2.963-1.128 3.28-2.847l.385.095-.38 2.396c-.676.428-2.531.878-3.608.884-3.838.016-6.275-2.454-6.286-6.14-.013-3.37 2.973-5.788 6.186-5.799 1.334-.006 2.606.414 3.879.86l.174 2.34z" fill="#009551"/><path d="M462.347 330.787l-.268.048c-.156.415-.498.66-.805.886.052.119.074.255.103.412.093.482-.01 1.116-.07 1.514l-1.004 6.13c-.104.646-.185 1.31-.327 1.93-.242.983-.396 1.146-1.363 1.435l.075.417c.649-.133 1.307-.265 1.947-.392.635-.108 1.288-.204 1.912-.31l-.078-.42-.374.074c-.57.059-1.091.195-1.23-.568-.092-.494-.004-1.282.087-1.997l.143-1.198 3.789-.695 1.237 2.193c.16.292.377.713.412.893.083.45-.39.619-.786.697l-.295.054.076.418c.78-.167 1.563-.323 2.348-.461.612-.12 1.252-.198 1.864-.31l-.079-.42c-.514.095-1.02.067-1.316-.211-.33-.3-1.01-1.598-1.358-2.188l-4.64-7.931m-.45 2.234h.036l2.586 4.42-3.32.607.699-5.027z" fill="#009c56"/><path d="M464.084 336.701l.013-.004-1.397-2.393-.006.022-.004-.016-.756-1.29h-.035l-.699 5.028 3.32-.607-.435-.74zm-1.737-5.914l4.642 7.933c.347.59 1.027 1.888 1.358 2.188.295.278.801.306 1.316.212l.078.42c-.611.11-1.251.188-1.863.308-.786.139-1.567.295-2.348.461l-.077-.417.296-.054c.395-.078.869-.247.785-.697-.035-.18-.251-.6-.411-.893l-1.237-2.193-3.789.695-.143 1.198c-.092.715-.18 1.503-.087 1.997.068.382.235.539.455.595.217.052.488 0 .775-.027l.374-.073.078.42c-.625.105-1.279.2-1.912.308-.64.128-1.3.26-1.947.393l-.075-.417c.967-.29 1.122-.452 1.362-1.436.143-.619.225-1.283.328-1.93l1.004-6.13c.06-.396.163-1.03.07-1.513-.03-.157-.051-.292-.103-.412.306-.225.649-.472.805-.886l.266-.05zm-1 1.23l.55-.475h.035l1.276.73 2.583 4.424-.75 1.635-.157-.28-3.789.696-.041.362-.555-.524.807-4.94c.059-.398.162-1.032.07-1.515l-.028-.114zm.55 1.004l-.697 5.027 3.319-.607-2.586-4.42h-.035z" fill="#009551"/><path d="M474.365 334.199c1.76 1.314 3.47 2.714 5.447 3.726.425-.187.863-.374 1.294-.525.376-.151.774-.263 1.156-.403l-.146-.396c-.787.29-1.4.055-2.104-.323-.937-.481-2.137-1.429-4.304-2.94 1.066-.802 1.678-2.137 1.187-3.445-.409-1.088-1.668-2.475-4.564-1.373-.983.368-1.509.605-2.044.805-.753.29-1.503.553-2.343.847l.15.4c.814-.28 1.402-.488 1.811.579l2.944 7.782c.328.872-.225 1.305-1.011 1.551l.149.4c.764-.303 1.471-.588 2.21-.868.677-.26 1.352-.48 2.085-.752l-.152-.399c-.817.29-1.397.493-1.812-.58l-1.352-3.564 1.399-.522m.97-3.619c.416 1.119.151 2.636-1.737 3.353-.26.09-.587.181-.837.23l-1.706-4.501c.264-.143.506-.298.885-.439 1.815-.682 2.896.033 3.394 1.357z" fill="#009c56"/><path d="M475.474 331.322l.028-.027.011-.883v-.004l-.18-.375a.914.914 0 0 0-.394-.346l-.163-.025-.647-.516c-.559-.258-1.281-.264-2.189.077-.379.142-.62.296-.885.438l.314.824-.14.052.055.087v.004l1.09 2.87.075-.154.312.818c.25-.049.577-.14.837-.23 1.414-.538 1.915-1.534 1.904-2.465l-.028-.145zm-1.11 2.877l-1.397.52 1.352 3.565c.414 1.072.994.869 1.812.58l.152.398c-.733.274-1.408.493-2.085.752-.74.28-1.446.564-2.21.868l-.15-.4c.786-.246 1.339-.678 1.012-1.551l-2.944-7.782c-.41-1.067-.998-.858-1.812-.58l-.149-.399c.84-.294 1.59-.558 2.343-.847.535-.2 1.062-.436 2.044-.805 2.895-1.102 4.155.285 4.564 1.373.49 1.31-.121 2.644-1.187 3.445 2.167 1.512 3.367 2.46 4.304 2.94.705.377 1.317.612 2.104.323l.146.396c-.382.14-.779.25-1.156.403-.43.153-.87.339-1.294.525-1.979-1.01-3.687-2.41-5.448-3.724zm2.6-2.714l-.064.322-.011-.004a3.505 3.505 0 0 1-1.182 1.535l.477.325-.438.647-.669.42-.712-.532-1.398.52.312.826-.277.073-1.627-.936-1.701-4.496.262-.734.35-.127c.536-.2 1.062-.436 2.044-.806.717-.279 1.344-.395 1.872-.4l1.306.26.66.66c.226.31.41.654.55 1.028.163.437.253.92.246 1.42zm-1.63-.905c-.498-1.324-1.579-2.04-3.393-1.357-.379.142-.62.296-.885.439l1.706 4.5c.25-.048.577-.14.837-.23 1.887-.716 2.152-2.233 1.735-3.352z" fill="#009551"/><path d="M481.783 330.976c1.644 2.643 5.298 3.659 8.088 1.934 3.047-1.893 3.418-5.694 1.842-8.244-1.645-2.648-5.304-3.66-8.09-1.935-3.05 1.902-3.421 5.69-1.84 8.245m1.284-1.356c-1.568-2.516-1.37-5.072.66-6.334 2.383-1.476 5.379.619 6.695 2.747 1.565 2.514 1.376 5.068-.656 6.325-2.393 1.472-5.383-.621-6.7-2.738z" fill="#009c56"/><path d="M482.395 328.123l.124.895c.12.407.293.807.524 1.172a4.319 4.319 0 0 0 1.907 1.669l.671.2.393.279c1.213.604 2.56.756 3.753.019 1.523-.946 2.008-2.617 1.501-4.458l-.244-.542-.048-.731-.524-1.178-1.178-1.24-1.505-.7-.292-.2c-1.213-.604-2.56-.761-3.749-.022-1.525.948-2.015 2.62-1.505 4.456l.172.381zm-.612 2.853c-1.581-2.554-1.21-6.344 1.839-8.245 2.786-1.724 6.445-.713 8.09 1.935 1.575 2.55 1.205 6.35-1.842 8.244-2.79 1.725-6.443.71-8.087-1.934zm6.327-8.946l.57.233-.02.057.21.1 1.566 1.26c.51.522.93 1.06 1.246 1.57l.837 1.905.006 1.88a5.715 5.715 0 0 1-2.655 3.875 5.772 5.772 0 0 1-4.471.668l-.024.052-.566-.253.021-.056-.242-.117-1.31-1.015-1.465-1.793-.837-1.817-.013-1.97c.278-1.503 1.136-2.922 2.659-3.878 1.39-.858 3.003-1.037 4.468-.674l.02-.027zm-5.043 7.59c1.316 2.117 4.306 4.21 6.7 2.738 2.032-1.257 2.22-3.811.656-6.325-1.316-2.128-4.312-4.222-6.695-2.747-2.032 1.262-2.23 3.818-.661 6.334z" fill="#009551"/><path d="M503.371 322.011c-1.056.904-2.082 1.83-3.117 2.763a165.86 165.86 0 0 0-3.206 2.93l-.285-.32c.639-.506.996-1.11.376-1.814l-5.566-6.174c-.764-.853-1.243-.449-1.9.116l-.282-.311c.59-.506 1.156-.999 1.703-1.49a88.122 88.122 0 0 0 1.709-1.587l.281.32c-.63.59-1.085 1.02-.316 1.879l5.079 5.636c.814.904 1.345 1.105 3.075-.458 1.415-1.268 1.593-2.045.908-3.567l.312-.198 1.229 2.275" fill="#009c56"/><path d="M503.371 322.011c-1.056.904-2.082 1.83-3.117 2.763a165.86 165.86 0 0 0-3.206 2.93l-.285-.32c.639-.506.996-1.11.376-1.814l-5.566-6.174c-.764-.853-1.243-.449-1.9.116l-.282-.311c.59-.506 1.156-.999 1.703-1.49a88.122 88.122 0 0 0 1.709-1.587l.281.32c-.63.59-1.085 1.02-.316 1.879l5.079 5.636c.814.904 1.345 1.105 3.075-.458 1.415-1.268 1.593-2.045.908-3.567l.312-.198 1.229 2.275z" fill="#009551"/><path d="M498.448 312.756c-.862-.759-1.282-.3-1.872.336l-.323-.28a73.953 73.953 0 0 0 1.523-1.675c.498-.57.988-1.135 1.516-1.766l.32.281c-.563.664-.956 1.14-.102 1.899l6.17 5.449c.866.756 1.289.303 1.877-.336l.319.287c-.522.582-1.01 1.089-1.49 1.63-.52.59-1.021 1.178-1.546 1.81l-.322-.286c.562-.662.961-1.142.1-1.897l-6.17-5.452" fill="#009c56"/><path d="M498.448 312.756c-.862-.759-1.282-.3-1.872.336l-.323-.28a73.953 73.953 0 0 0 1.523-1.675c.498-.57.988-1.135 1.516-1.766l.32.281c-.563.664-.956 1.14-.102 1.899l6.17 5.449c.866.756 1.289.303 1.877-.336l.319.287c-.522.582-1.01 1.089-1.49 1.63-.52.59-1.021 1.178-1.546 1.81l-.322-.286c.562-.662.961-1.142.1-1.897l-6.17-5.452z" fill="#009551"/><path d="M515.736 306.004l-.206.326-12.573 2.015 5.119 3.345c1.893 1.24 2.378 1.344 3.348-.138l.352.235c-.392.601-.823 1.2-1.218 1.802-.398.612-.785 1.235-1.171 1.845l-.351-.228c.542-.84.956-1.465-.784-2.615l-5.52-3.606c-1.173-.771-1.933-.544-2.71.642l-.35-.233c.289-.42.57-.817.847-1.248.242-.375.469-.769.71-1.146 1.205-.01 3.289-.477 6.045-.902 2.047-.327 4.255-.726 5.883-.99l-5.47-3.575c-1.263-.824-1.835-.79-2.746.57l-.354-.226c.428-.627.855-1.261 1.27-1.89.354-.538.673-1.08 1.018-1.617l.358.238c-.55.84-.777 1.331.57 2.211l7.933 5.185" fill="#009c56"/><path d="M515.736 306.004l-.206.326-12.573 2.015 5.119 3.345c1.893 1.24 2.378 1.344 3.348-.138l.352.235c-.392.601-.823 1.2-1.218 1.802-.398.612-.785 1.235-1.171 1.845l-.351-.228c.27-.42.508-.79.468-1.197-.049-.403-.382-.848-1.251-1.42l-5.52-3.605c-1.174-.771-1.933-.544-2.711.642l-.35-.233c.29-.42.571-.817.848-1.248.242-.374.469-.769.71-1.146 1.205-.01 3.289-.477 6.044-.902 2.048-.327 4.256-.726 5.884-.99l-5.47-3.575c-1.264-.824-1.835-.79-2.746.57l-.354-.226c.427-.626.855-1.26 1.27-1.89.354-.538.672-1.08 1.018-1.617l.358.238c-.55.84-.777 1.331.57 2.211l7.932 5.186z" fill="#009551"/><path d="M508.544 292.792l-.11.253c.267.353.294.776.311 1.149.135.016.26.074.41.134.451.19.934.613 1.23.87l4.636 4.15c.485.427 1 .856 1.45 1.322.695.729.75.934.479 1.907l.396.16c.229-.606.47-1.241.722-1.848.24-.593.512-1.182.759-1.782l-.401-.155-.143.345c-.247.52-.414 1.033-1.132.744-.474-.196-1.086-.693-1.64-1.148l-.928-.767 1.45-3.57 2.515.136c.33.016.804.066.97.138.422.173.316.665.159 1.038l-.108.272.395.162c.288-.75.57-1.492.867-2.229.244-.583.508-1.16.747-1.74l-.397-.16c-.204.491-.49.901-.883 1.005-.433.11-1.888-.011-2.574-.036l-9.18-.35m1.636 1.582l.014-.028 5.122.19-1.272 3.128-3.863-3.29z" fill="#009c56"/><path d="M514.463 294.501v-.006l-2.768-.103.01.011h-.01l-1.501-.057-.014.029 3.863 3.29 1.273-3.128-.853-.035zm-5.919-1.709l9.18.351c.685.025 2.14.145 2.573.035.392-.103.68-.513.883-1.004l.397.16c-.239.58-.503 1.156-.747 1.74-.298.737-.58 1.478-.867 2.229l-.395-.162.108-.272c.157-.374.263-.865-.16-1.038-.165-.072-.639-.122-.969-.139l-2.516-.134-1.45 3.569.93.767c.553.455 1.164.953 1.639 1.148.358.146.58.087.744-.07.163-.154.265-.415.388-.674l.143-.345.4.155c-.246.6-.52 1.189-.758 1.782a62.696 62.696 0 0 0-.722 1.848l-.396-.16c.271-.973.216-1.178-.48-1.907-.449-.466-.964-.895-1.449-1.323l-4.636-4.149c-.296-.259-.779-.68-1.23-.87-.15-.06-.275-.118-.41-.134-.017-.374-.043-.796-.311-1.15l.111-.253zm.369 1.46l-.104-.427.011-.028 1.425-.93 5.13.19.977 1.519-.323-.02-1.449 3.57.285.232-.753.184-3.73-3.343c-.295-.259-.777-.68-1.23-.87l-.24-.078zm1.267.122l3.863 3.291 1.273-3.128-5.122-.19-.014.027z" fill="#009551"/><path d="M393.005 228.714l-.214.351c-1.8-.732-3.17.03-4.128 1.593-.981 1.612-1.327 4.601 2.034 6.655 2.82 1.727 6.083.947 7.398-1.2.85-1.391.595-3.116-.704-4.294l.278-.27 1.847 1.563c.013.815-.577 2.626-1.143 3.55-1.997 3.273-5.38 4.053-8.532 2.131-2.864-1.75-3.36-5.565-1.685-8.306.692-1.139 1.732-2.005 2.76-2.852l2.089 1.079" fill="#009c56"/><path d="M393.005 228.714l-.214.351c-1.8-.732-3.17.03-4.128 1.593-.981 1.612-1.327 4.601 2.034 6.655 2.82 1.727 6.083.947 7.398-1.2.85-1.391.595-3.116-.704-4.294l.278-.27 1.847 1.563c.013.815-.577 2.626-1.143 3.55-1.997 3.273-5.38 4.053-8.532 2.131-2.864-1.75-3.36-5.565-1.685-8.306.692-1.139 1.732-2.005 2.76-2.852l2.089 1.079z" fill="#009551"/><path d="M394.066 225.353c-.9-.72-1.298-.242-1.85.423l-.34-.272c.505-.581.99-1.159 1.454-1.738.472-.581.929-1.176 1.43-1.83l.334.264c-.53.69-.911 1.186-.021 1.907l6.407 5.167c.895.72 1.303.248 1.858-.422l.336.264c-.498.618-.97 1.149-1.422 1.703-.495.62-.967 1.225-1.464 1.877l-.336-.27c.542-.683.912-1.179.023-1.9l-6.409-5.173" fill="#009c56"/><path d="M394.066 225.353c-.9-.72-1.298-.242-1.85.423l-.34-.272c.505-.581.99-1.159 1.454-1.738.472-.581.929-1.176 1.43-1.83l.334.264c-.53.69-.911 1.186-.021 1.907l6.407 5.167c.895.72 1.303.248 1.858-.422l.336.264c-.498.618-.97 1.149-1.422 1.703-.495.62-.967 1.225-1.464 1.877l-.336-.27c.542-.683.912-1.179.023-1.9l-6.409-5.173z" fill="#009551"/><path d="M404.676 214.94l-.316.305c-.654-.606-1.023-1.066-1.97-.15l-1.788 1.732 6.373 6.593c.796.824 1.253.402 1.893-.192l.287.306c-.566.556-1.09 1.021-1.61 1.518-.564.547-1.112 1.09-1.69 1.674l-.289-.304c.61-.612 1.05-1.062.25-1.886l-6.368-6.596-1.547 1.496c-1.063 1.02-.82 1.362-.278 2.327l-.312.292-1.685-2 .243-.228c.437.192.767-.103 1.062-.385l5.346-5.172c.427-.415.623-.797.45-1.073l.254-.243 1.695 1.986" fill="#009c56"/><path d="M404.676 214.94l-.316.305c-.325-.3-.583-.572-.871-.645-.296-.075-.625.04-1.1.496l-1.787 1.73 6.373 6.594c.796.824 1.253.402 1.893-.192l.287.306c-.566.556-1.09 1.021-1.61 1.518-.564.547-1.112 1.09-1.69 1.674l-.289-.304c.61-.612 1.05-1.063.25-1.886l-6.368-6.596-1.547 1.496c-1.063 1.02-.82 1.362-.278 2.327l-.312.292-1.685-2 .243-.228c.437.192.767-.103 1.062-.385l5.346-5.172c.427-.415.623-.797.45-1.073l.254-.243 1.695 1.986z" fill="#009551"/><path d="M415.887 216.382c.644.948 1.166.618 1.892.14l.244.351c-.69.446-1.33.862-1.953 1.282-.612.417-1.222.855-1.852 1.3l-.237-.358c.71-.502 1.213-.86.564-1.814l-2.214-3.286-5.498-1.978c-.766-.29-.812-.213-1.663.259l-.242-.351a88.638 88.638 0 0 0 1.904-1.253c.556-.377 1.086-.774 1.641-1.148l.237.35c-.214.152-.756.515-.56.798.104.167.507.347 1.014.535l3.707 1.387.132-3.637c.006-.341.075-1.021-.132-1.334-.265-.392-.542-.214-1.235.26l-.232-.357c.522-.335 1.055-.676 1.577-1.029.364-.247.709-.526 1.09-.779l.244.353c-.566.397-.574.94-.595 1.552l-.213 5.251 2.38 3.506" fill="#009c56"/><path d="M415.887 216.382c.644.948 1.166.618 1.892.14l.244.351c-.69.446-1.33.862-1.953 1.282-.612.417-1.222.855-1.852 1.3l-.237-.358c.71-.502 1.213-.86.564-1.814l-2.214-3.286-5.498-1.978c-.766-.29-.812-.213-1.663.259l-.242-.351a88.638 88.638 0 0 0 1.904-1.253c.556-.377 1.086-.774 1.641-1.148l.237.35c-.11.076-.295.204-.432.349-.138.143-.232.31-.127.449.103.167.506.347 1.013.535l3.707 1.387.132-3.637c.006-.341.075-1.021-.132-1.334-.265-.392-.542-.214-1.235.26l-.232-.357c.522-.335 1.055-.676 1.577-1.029.364-.247.709-.526 1.09-.779l.244.353c-.566.397-.574.94-.595 1.552l-.213 5.251 2.38 3.506z" fill="#009551"/><path d="M423.266 207.478c1.013 2.948 4.35 4.737 7.454 3.67 3.397-1.172 4.59-4.785 3.616-7.631-1.017-2.944-4.36-4.739-7.459-3.667-3.394 1.173-4.595 4.793-3.611 7.628m1.55-1.04c-.963-2.8-.213-5.241 2.049-6.027 2.643-.913 5.104 1.79 5.925 4.144.968 2.813.217 5.26-2.053 6.037-2.649.913-5.106-1.794-5.921-4.154z" fill="#009c56"/><path d="M424.5 204.886l-.093.414a4.86 4.86 0 0 0 .252 1.697c.19.548.491 1.046.866 1.472l1.323 1.006.236.264c1.052.86 2.332 1.31 3.652.853 1.703-.581 2.549-2.104 2.456-4.015l-.087-.427.081-.45-.25-1.698v-.005l-.869-1.466a4.6 4.6 0 0 0-.976-.82l-.289-.128-.29-.323c-1.048-.86-2.326-1.305-3.647-.848-1.697.59-2.552 2.107-2.458 4.01l.093.465zm-1.234 2.592c-.984-2.835.217-6.455 3.611-7.627 3.1-1.072 6.441.722 7.46 3.667.973 2.845-.22 6.459-3.617 7.63-3.103 1.068-6.44-.722-7.454-3.67zm8.563-6.963l1.317 1.496c.462.699.814 1.42 1.037 2.066l.394 2.038-.41 1.847a5.71 5.71 0 0 1-3.447 3.185c-1.545.539-3.163.358-4.51-.327l-.033.046-.502-.376.041-.046-.202-.156-1.064-1.296-1.027-2.069-.004-.004-.4-2.055.404-1.825c.606-1.403 1.757-2.596 3.453-3.186a5.745 5.745 0 0 1 4.509.33l.445.332zm-7.013 5.923c.816 2.36 3.273 5.067 5.92 4.155 2.271-.777 3.022-3.224 2.054-6.037-.82-2.354-3.282-5.056-5.925-4.144-2.262.785-3.013 3.226-2.05 6.026z" fill="#009551"/><path d="M440.049 206.836c.187 1.125.807 1.05 1.664.924l.067.421c-.814.122-1.557.22-2.307.336-.73.12-1.467.247-2.286.398l-.071-.421c1.408-.226 1.49-.502 1.243-2.073l-1.149-7.185c-.208-1.334-.47-1.358-1.766-1.196l-.065-.422c1.152-.19 2.338-.34 3.517-.53 1.476-.238 2.967-.474 4.397-.735l.463 2.265-.361.13c-.383-1.355-1.135-1.702-2.9-1.419l-1.911.305.731 4.601 1.918-.306c1.32-.214 1.403-.427 1.437-1.61l.37-.058c.012.312.127 1.196.214 1.773.086.519.235 1.274.34 1.71l-.325.05c-.37-1.084-.448-1.444-1.867-1.212l-1.977.317.624 3.937" fill="#009c56"/><path d="M440.049 206.836c.187 1.125.807 1.05 1.664.924l.067.421c-.814.122-1.557.22-2.307.336-.73.12-1.467.247-2.286.398l-.071-.421c1.408-.226 1.49-.502 1.243-2.073l-1.149-7.185c-.208-1.334-.47-1.358-1.766-1.196l-.065-.422c1.152-.19 2.338-.34 3.517-.53 1.476-.238 2.967-.474 4.397-.735l.463 2.265-.361.13c-.383-1.355-1.135-1.702-2.9-1.419l-1.911.305.731 4.601 1.918-.306c1.32-.214 1.403-.427 1.437-1.61l.37-.058c.012.312.127 1.196.214 1.773.086.519.235 1.274.34 1.71l-.325.05c-.37-1.084-.448-1.444-1.867-1.212l-1.977.317.624 3.937z" fill="#009551"/><path d="M455.148 202.195c1.054 1.934 2.015 3.92 3.396 5.657.461.017.932.034 1.398.063.403.03.81.087 1.223.122l.022-.429c-.831-.058-1.294-.53-1.78-1.161-.644-.83-1.34-2.198-2.678-4.473 1.306-.29 2.418-1.25 2.519-2.638.073-1.167-.49-2.944-3.586-3.157-1.045-.071-1.617-.082-2.194-.119-.792-.051-1.581-.126-2.48-.206l-.028.428c.862.074 1.483.131 1.407 1.28l-.576 8.296c-.062.93-.75 1.097-1.558.993l-.028.423c.814.045 1.586.08 2.369.13.72.053 1.422.128 2.205.185l.032-.42c-.868-.082-1.49-.14-1.408-1.283l.264-3.797 1.481.106m2.392-2.874c-.086 1.177-.958 2.446-2.974 2.314a5.629 5.629 0 0 1-.86-.15l.335-4.79c.296-.028.577-.064.99-.028 1.92.13 2.606 1.228 2.51 2.654zM469.86 197.959l-.262-.07c-.323.313-.726.393-1.108.467 0 .14-.03.262-.07.423-.116.472-.477 1.01-.699 1.338l-3.472 5.16c-.36.532-.712 1.109-1.105 1.618-.623.785-.837.866-1.83.733l-.104.415c.636.145 1.294.295 1.929.456.622.156 1.253.353 1.871.507l.108-.41-.374-.098c-.541-.173-1.074-.272-.896-1.021.13-.492.543-1.161.913-1.785l.634-1.017 3.735.948.214 2.505c.035.33.046.809 0 .982-.114.45-.612.411-1.004.305l-.282-.076-.11.411c.776.184 1.547.364 2.333.566.599.15 1.208.335 1.81.497l.105-.417c-.51-.126-.95-.356-1.108-.737-.168-.424-.254-1.882-.319-2.553l-.909-9.147m-1.349 1.84l.04.011.512 5.104-3.283-.837 2.731-4.278z" fill="#009c56"/><path d="M457.362 200.047l.04-.021.368-.786v-.427a.988.988 0 0 0-.22-.486l-.13-.086-.38-.732c-.398-.468-1.048-.774-2.011-.842-.412-.036-.693 0-.99.029l-.061.877-.158-.007.02.098v.005l-.218 3.073.144-.123h.005l-.068.867c.244.069.59.12.86.149 1.516.099 2.379-.588 2.756-1.436l.042-.152zm3.804 7.99c-.414-.035-.82-.092-1.224-.12-.465-.03-.936-.047-1.397-.064-1.382-1.738-2.343-3.723-3.396-5.657l-1.48-.104-.264 3.797c-.08 1.143.54 1.2 1.408 1.283l-.032.42c-.783-.057-1.485-.132-2.205-.184-.783-.052-1.555-.086-2.369-.132l.028-.422c.808.103 1.497-.064 1.558-.993l.576-8.296c.076-1.148-.545-1.206-1.407-1.28l.028-.429c.898.081 1.686.156 2.48.207.577.037 1.15.048 2.193.119 3.097.212 3.66 1.99 3.587 3.156-.101 1.39-1.213 2.348-2.52 2.639 1.339 2.275 2.034 3.642 2.68 4.473.485.63.948 1.103 1.779 1.16l.125.019c.994.133 1.207.052 1.83-.733l.658-.97.317.07.273.421-.543 1.063c-.087.375 0 .588.178.726l.531.22.025.162-.198.254-1.245-.34a76.853 76.853 0 0 0-1.929-.456l-.045-.008zm-2.518-7.221l-.195.265-.011-.011c-.452.45-1.06.76-1.711.906l.295.496-.668.405-.789.092-.42-.773-1.48-.105-.06.865-.317-.051-1.057-1.524.33-4.786.543-.56.362.027c.577.037 1.15.048 2.193.119.776.057 1.39.206 1.877.42l1.081.786.317.877a4.09 4.09 0 0 1-.29 2.552zm-1.108-1.495c.097-1.426-.59-2.523-2.51-2.655-.41-.036-.692 0-.989.029l-.336 4.79c.244.07.59.121.861.15 2.016.132 2.888-1.137 2.974-2.314z" fill="#009551"/><path d="M468.975 204.059h.008l-.277-2.76-.01.012v-.011l-.144-1.49-.04-.01-2.73 4.277 3.282.838-.09-.856zm-7.662 3.568c.994.133 1.207.052 1.83-.733.393-.509.746-1.086 1.105-1.617l3.473-5.16c.221-.329.582-.866.698-1.339.04-.161.07-.283.07-.423.382-.074.785-.153 1.108-.467l.262.07.908 9.148c.064.672.15 2.13.319 2.553.157.38.598.611 1.108.737l-.106.417c-.601-.162-1.21-.348-1.81-.497-.785-.202-1.556-.382-2.332-.566l.11-.411.281.076c.393.105.89.146 1.005-.305.045-.173.035-.653 0-.982l-.214-2.505-3.736-.948-.634 1.017c-.369.624-.782 1.293-.913 1.785-.086.375 0 .587.179.726.176.14.444.208.718.295l.374.097-.108.411c-.619-.155-1.25-.351-1.872-.507a76.898 76.898 0 0 0-1.928-.456l-.044-.005c-.415-.036-.82-.093-1.224-.121-.466-.03-.937-.046-1.398-.063l-.514-.78.092.104-.07-.462-.062-.433c.073-.294.26-.56.544-.727l.312-.046.563.94c.485.63.948 1.103 1.78 1.16l.126.017zm7.142-9.039l.528-.192.033.015 1.005 1.257.506 5.095-1.365 1.184-.033-.323-3.736-.948-.189.3-.276-.709 2.792-4.15c.221-.329.582-.866.698-1.339l.037-.19zm.056 1.211l-2.73 4.278 3.283.838-.511-5.104-.042-.012z" fill="#009551"/><path d="M480.226 214.473a153.996 153.996 0 0 0-3.795-1.709 166.448 166.448 0 0 0-3.992-1.732l.173-.386c.732.375 1.436.455 1.805-.405l3.366-7.602c.463-1.05-.097-1.316-.889-1.68l.175-.392c.695.329 1.382.646 2.051.947.691.299 1.39.588 2.143.91l-.173.383c-.805-.336-1.373-.566-1.842.48l-3.058 6.944c-.499 1.113-.464 1.68 1.666 2.626 1.74.767 2.53.618 3.63-.641l.301.208-1.56 2.05" fill="#009c56"/><path d="M480.226 214.473a153.996 153.996 0 0 0-3.795-1.709 166.448 166.448 0 0 0-3.992-1.732l.173-.386c.732.375 1.436.455 1.805-.405l3.366-7.602c.463-1.05-.097-1.316-.889-1.68l.175-.392c.695.329 1.382.646 2.051.947.691.299 1.39.588 2.143.91l-.173.383c-.805-.336-1.373-.566-1.842.48l-3.058 6.944c-.499 1.113-.464 1.68 1.666 2.626 1.74.767 2.53.618 3.63-.641l.301.208-1.56 2.05z" fill="#009551"/><path d="M487.161 211.351l1.821 1.166c1.119.715 1.68-.156 1.924-.446l.277.174c-.218.289-.73 1.015-1.044 1.513-.284.444-.628 1.137-.926 1.57l-.277-.18c.848-1.326.404-1.605-.655-2.285l-1.479-.947-1.495 2.351c-.983 1.528-1.18 1.956.19 2.828l.852.554c1.397.791 2.123.998 3.609-.132l.3.265a21.894 21.894 0 0 0-1.924 1.748c-1.382-.88-2.74-1.79-4.127-2.678-1.022-.647-2.043-1.299-3.082-1.929l.23-.357c1.197.767 1.451.618 2.31-.73l3.919-6.128c.72-1.13.537-1.328-.525-2.068l.226-.364a87.486 87.486 0 0 0 2.777 1.813c1.322.85 2.636 1.69 3.992 2.518l-1.317 2.054-.316-.104c.623-1.43.243-2.217-1.132-3.1l-1.623-1.032-2.505 3.926" fill="#009c56"/><path d="M487.161 211.351l1.821 1.166c1.119.715 1.68-.156 1.924-.446l.277.174c-.218.289-.73 1.015-1.044 1.513-.284.444-.628 1.137-.926 1.57l-.277-.18c.426-.663.526-1.063.388-1.384-.142-.324-.515-.561-1.043-.901l-1.479-.947-1.495 2.351c-.983 1.528-1.18 1.956.19 2.828l.852.554c1.397.791 2.123.998 3.609-.132l.3.265a21.894 21.894 0 0 0-1.924 1.748c-1.382-.88-2.74-1.79-4.127-2.678-1.022-.647-2.043-1.299-3.082-1.929l.23-.357c1.197.767 1.451.618 2.31-.73l3.919-6.128c.72-1.13.537-1.328-.525-2.068l.226-.364a87.486 87.486 0 0 0 2.777 1.813c1.322.85 2.636 1.69 3.992 2.518l-1.317 2.054-.316-.104c.623-1.43.243-2.217-1.132-3.1l-1.623-1.032-2.505 3.926z" fill="#009551"/><path d="M496.484 213.543c.729-.889.252-1.292-.414-1.857l.27-.33c.592.503 1.16.988 1.735 1.455.587.478 1.174.947 1.827 1.456l-.27.321c-.691-.53-1.175-.917-1.908-.029l-5.21 6.373c-.73.884-.252 1.292.403 1.852l-.272.34c-.608-.5-1.125-.974-1.68-1.43a90.66 90.66 0 0 0-1.87-1.478l.27-.329c.686.537 1.174.918 1.902.027l5.217-6.37" fill="#009c56"/><path d="M496.484 213.543c.729-.889.252-1.292-.414-1.857l.27-.33c.592.503 1.16.988 1.735 1.455.587.478 1.174.947 1.827 1.456l-.27.321c-.691-.53-1.175-.917-1.908-.029l-5.21 6.373c-.73.884-.252 1.292.403 1.852l-.272.34c-.608-.5-1.125-.974-1.68-1.43a90.66 90.66 0 0 0-1.87-1.478l.27-.329c.686.537 1.174.918 1.902.027l5.217-6.37z" fill="#009551"/><path d="M506.969 225.636l-.244-.27c1.103-1.606.58-3.28-.666-4.63-1.977-2.131-4.978-1.627-6.942.19-2.084 1.93-2.97 5.13-.968 7.292.873.952 1.666 1.137 1.973 1.187l1.79-1.65c.878-.818.454-1.275-.141-1.91l.319-.29c.51.575 1.008 1.139 1.508 1.676a53.04 53.04 0 0 0 1.385 1.449l-.314.294c-.369-.4-.79-.86-1.666-.046l-1.576 1.46-.01.352-.209.184c-1.246-.645-2.611-1.436-3.58-2.488-3.13-3.376-1.633-7.07.086-8.668 2.525-2.332 6.209-2.101 8.54.41.992 1.067 1.655 2.35 2.21 3.693l-1.495 1.765" fill="#009c56"/><path d="M506.969 225.636l-.244-.27c1.103-1.606.58-3.28-.666-4.63-1.977-2.131-4.978-1.627-6.942.19-2.084 1.93-2.97 5.13-.968 7.292.873.952 1.666 1.137 1.973 1.187l1.79-1.65c.878-.818.454-1.275-.141-1.91l.319-.29c.51.575 1.008 1.139 1.508 1.676a53.04 53.04 0 0 0 1.385 1.449l-.314.294c-.185-.203-.38-.416-.645-.481-.26-.062-.585.03-1.021.434l-1.576 1.461-.01.351-.209.185c-1.246-.646-2.611-1.437-3.58-2.489-3.13-3.376-1.633-7.07.086-8.668 2.525-2.332 6.209-2.101 8.54.41.992 1.067 1.655 2.35 2.21 3.693l-1.495 1.766z" fill="#009551"/><path d="M511.876 237.233l3.055-1.859c.983-.6.674-1.143.233-1.893l.36-.22c.436.751.829 1.415 1.233 2.084.371.608.775 1.2 1.161 1.835l-.37.22c-.464-.733-.802-1.253-1.785-.658l-7.023 4.283c-.983.602-.67 1.138-.23 1.888l-.371.224c-.36-.64-.73-1.274-1.115-1.91-.407-.65-.81-1.292-1.268-2.008l.365-.224c.466.732.8 1.259 1.782.664l3.4-2.078-3.447-5.653-3.402 2.073c-.978.595-.664 1.139-.23 1.887l-.366.225c-.412-.675-.744-1.293-1.123-1.91-.406-.675-.827-1.32-1.265-2.009l.364-.225c.473.742.81 1.259 1.79.658l7.017-4.282c.984-.594.677-1.144.239-1.895l.363-.224c.387.675.766 1.329 1.148 1.957.393.64.805 1.281 1.245 1.968l-.368.227c-.468-.736-.802-1.262-1.785-.66l-3.052 1.859 3.445 5.656" fill="#009c56"/><path d="M511.876 237.233l3.055-1.859c.983-.6.674-1.143.233-1.893l.36-.22c.436.751.829 1.415 1.233 2.084.371.608.775 1.2 1.161 1.835l-.37.22c-.464-.733-.802-1.253-1.785-.658l-7.023 4.283c-.983.602-.67 1.138-.23 1.888l-.371.224c-.36-.64-.73-1.274-1.115-1.91-.407-.65-.81-1.292-1.268-2.008l.365-.224c.466.732.8 1.259 1.782.664l3.4-2.078-3.447-5.653-3.402 2.073c-.978.595-.664 1.139-.23 1.887l-.366.225c-.412-.675-.744-1.293-1.123-1.91-.406-.675-.827-1.32-1.265-2.009l.364-.225c.473.742.81 1.259 1.79.658l7.017-4.282c.984-.594.677-1.144.239-1.895l.363-.224c.387.675.766 1.329 1.148 1.957.393.64.805 1.281 1.245 1.968l-.368.227c-.468-.736-.802-1.262-1.785-.66l-3.052 1.859 3.445 5.656z" fill="#009551"/><path d="M451.103 212.442c-31.516 0-57.105 25.582-57.105 57.105 0 31.523 25.589 57.106 57.105 57.106 31.519 0 57.105-25.583 57.105-57.106.001-31.523-25.585-57.105-57.105-57.105" fill="#fff"/><path d="M451.103 212.442c-31.516 0-57.105 25.582-57.105 57.105 0 31.523 25.589 57.106 57.105 57.106 31.519 0 57.105-25.583 57.105-57.106.001-31.523-25.585-57.105-57.105-57.105z" fill="none" stroke="#009c56" stroke-width="1.791" stroke-miterlimit="11.474"/><path d="M451.103 212.442c-31.516 0-57.105 25.582-57.105 57.105 0 31.523 25.589 57.106 57.105 57.106 31.519 0 57.105-25.583 57.105-57.106.001-31.523-25.585-57.105-57.105-57.105zm0-.896c32.012 0 58 25.988 58 58.001 0 32.02-25.988 58-58 58-32.014 0-58-25.98-58-58 0-32.013 25.986-58 58-58z" fill="#009551"/><path d="M451.097 217.63c-28.653 0-51.917 23.262-51.917 51.917 0 28.663 23.264 51.922 51.917 51.922 28.66 0 51.912-23.259 51.912-51.922 0-28.654-23.252-51.917-51.912-51.917" fill="#fff"/><path d="M451.097 217.63c-28.653 0-51.917 23.262-51.917 51.917 0 28.663 23.264 51.922 51.917 51.922 28.66 0 51.912-23.259 51.912-51.922 0-28.654-23.252-51.917-51.912-51.917z" fill="none" stroke="#009c56" stroke-width="1.791" stroke-miterlimit="11.474"/><path d="M460.276 225.378c1.2.796 1.256 2.735 3.19 2.914 1.663.971 0 2.62 1.259 3.653.53-1.2.138-3.036 1.595-3.653.8.567 2.456-.12 2.728 1.08.86-.573 2.056-.176 2.86.403.194.163.194.394.46.566-.128 1.085-3.662.913-1.46 2.285 1.13 1.143-1.663.86-1.064 2.228 1.666-.057 1.53 1.652 2.664 2.058-.074.742-.736 1.943.188 2.457 1.8.796.598-1.43 1.598-2.062 1.327-.57-.2-1.256.327-2.337 1.604-.46 3.196-1.373 4.922-1.2.404 1.593 3.123.688 2.725 2.453-.594.461-1.47.63-1.26 1.483.667.29 1.86.462 1.86 1.373-.6 3.314 4.781 4.746 3.052 8.227-.663.23-1.586.053-1.925.68-.268.571.598.63.793.975.069.97.132 2.286-1.259 2.339-.333-.284-.533 0-.793.115.863.57 1.06 1.713.46 2.458-1.587.682-4.38-.807-4.122 1.651.534-.11 1.4.803 2.07.172 2.053 1.772 1.124-1.54 3.052-1.256.138-1.201.725-1.94 2.052-2.345 1.536.174 1.929 1.778 3.53 1.946.997.457 0 1.2 0 1.767-.397.173-.866.173-1.13.575 1.398.741.661 2.623.6 3.822 1.188-.848 2.383.232 2.583 1.373-.85 1.542.999 3.371-.328 4.913.528.573.861 1.433.469 2.228-.14 1.254-3.323 1.428-1.398 2.974.265 1.196-1.79 1.021-1.463 2.332-.996.525-2.455 1.494-3.853.687-.337.404.07 1.09-.265 1.546-.927.572-2.061 0-3.052 0-1.265-1.83-5.051 1.369-4.122-1.94-.601-.403-1.322-.461-1.592.284-.404 1.714 3.052 1.484 1.722 3.539-.925.63-2.056-.623-2.526.173 0 1.424.34 3.25-1.921 3.654-2.86-1.087-2.396 1.997-4.452 2.51-.726-.116-1.395-.513-1.799-1.142-.657-1.259 1.457-3.135-.593-3.822-.87.687-2.191.567-2.597-.406.204-1.48-.73-2.053-2.056-1.077-.667.455-1.862.797-2.056-.173-.732-1.49 1.527-2.632.928-3.943-2.929.97-5.45 2.569-7.51 4.792-1.395 7.261-.065 14.8.2 22.331 3.384 2.286 8.372 1.887 12.425 1.947.265.227.46.738-.128.795-4.79.176-9.366.514-14.223.97-.13 1.665-5.442.636-2.259 1.896v.566c-2.59.346-5.048 1.711-7.437.397-1.196-.349-2.332.916-3.06-.116.465-1.137 3.06 0 2.053-1.54-1.39.113-1.325-1.143-1.256-1.89-3.451.117-6.373-.283-10.033-.164-.13-.228.197-.345.139-.518 4.919-.744 10.962-.057 15.614-1.656.19-5.42.398-10.792-.14-16.45-1.73-3.879-5.847-6.621-9.102-9.587-.53-.519-.798-2.46-1.266-.803-2.185-.456.468 1.258-.323 2.28 0 .803-1.066 1.322-1.73 1.664-.467.109-1.466.057-1.797-.121-.397.807.195 1.835-.461 2.747a4.434 4.434 0 0 1-3.199 0c-.324-.91-1.125-.507-1.923-.403-3.317-2.565.266-6.622-4.253-8.508-.656-.226-1.397-.849-2.119 0-1.731-.849-.397-2.742-2.071-3.823-.19.175-.461.175-.589.403-1.467-.228.194-1.66-1.467-1.943-1.189-.172-2.852 1.651-3.855 0-.058-1.321-.796-1.714-2.193-1.484-1.86-1.201 2.597-2.916-.993-2.753-.463-.507-.994-1.364-.797-2.05 2.396-.514-.127-4.334 2.92-2.458 1.404-.168 0-1.195.268-1.941.529-1.765 1.996-2.972 4.189-2.62.73.506-.194 1.138.335 1.65 1.064-.225 1.259-1.483 2.655-1.195 1.455.456 3.787.456 3.389 2.449.93.228 1.665-.676 2.718-.567.47 0 1.137 0 1.268-.514-2.19-.282 1.47-3.37-1.268-1.824-1.32-.062-.53-3.26-2.584-1.484-.994-.228-1.803-1.486-2.194-2.458.195-.801-.405-.97-.993-1.257-.203-1.085.328-2.627.197-3.544.461-1.709 3.052-1.766 2.857-3.424-.327-.795.535-1.258 1.125-1.65 1.467.283.403-1.657.934-2.35-.13-1.2 1.534-1.143 2.065-1.767.725.231 1.194.624 1.457 1.257-.467.972-2.131 2.052-.796 3.143.595-1.778 2.522-.174 3.788-.283.929 2.965 2.32-2.631 3.387.796.73 1.484 1.73-.404 2.725-.404 0-.622.665-1.368 0-1.887-1.263-.855-4.058-.342-3.191-2.511-.931 1.998-2.725 0-4.187-.226-.802-.744-.595-1.937.665-2.227.797-1.028 3.129-.745 2.192-2.453.533-.63 1.201-.513 1.796-.115 0-.687-.202-1.714.93-2.055 2.86-1.54 1.466 2.799 3.849 1.085-.663-.34-.796-1.2-.327-1.766.932-1.49 2.457-1.205 3.988-1.836 1.32 1.201 4.243.86 4.646 3.03-1.924 2.115 2.394 3.828 0 5.774.533 0 1.461-.063 2.067-.405-.404-.912-.075-1.887.787-2.46.602-.056 1.333.066 1.936-.167-.13-1.141-2.995-.803-1.469-2.348 1.128-.278.468-1.536 1.128-2.166.872-2.337 3.593-.682 4.584-2.742.934.114.539 1.143 1.335 1.483.59-.796 0-2.28 1.39-2.563 1.396-.058 1.063 1.707 2.59 1.484" fill="#009c56"/><path d="M457.878 229.196c-.322.35-.062 1.093-.796.973-.197-.516-.66-1.31 0-1.767.796-.29.474.57.796.794M442.407 231.544c-.197 1.083-1.261.622-2.064.57.203-.913.803-1.483 1.266-2.233.195.46.132 1.263.798 1.663M453.23 231.028c-.327-.687.543-.63.8-1.148.135.519.535 3.435-.8 1.148M461.075 236.05c.458.346.263.975.458 1.375-.991 0-1.39-1.03-2.389-.919-.46 1.258-3.188 1.772-1.265 0 2.795-.849-2.255-3.019 1.404-2.62.798.68.4 1.996 1.792 2.164M453.101 235.824c-.065-.461-1.928-.68-.994-1.54.394.513.994 1.079.994 1.54M442.07 236.333c-1.133.173-2.389-.676-1.929-1.767.796.514 1.929.744 1.929 1.767M468.38 236.05c.131.577.326 1.147.475 1.656-.149-.51-.344-1.08-.476-1.656M478.614 238.965c.398.86-.929.513-1.327.97-1.194.057-.327-1.08-.132-1.536.53-.52 1.126.052 1.46.566M467.12 239.249c-.068.23-.67.807-1.13.403-.596-.23-.203-1.022-.328-1.253.594 0 1.327.393 1.458.85M460.08 239.935c.131.23-.131.744-.468.404-.531-.628.337-1.778.469-.404M444.334 240.852c-.803.393-1.927.116-2.39 0 0-1.546 1.451.513 2.193-.687.46 0 .328.514.197.687M447.519 242.22c-.398-.461 0-1.425-.328-2.055.595.514.195 1.375.328 2.056M480.34 242.22c-.392.284-1.062.688-1.469.174-1.053-1.029 1.342-.282 1.342-1.373 0 .291.586.802.127 1.2M476.692 242.798c0 .566.128 1.252-.466 1.651-.132-.913-2.194-1.312-1.332-2.458.868-.232 1.458.293 1.798.807M452.44 244.737c-.132-.063-.268.053-.333.11 0-.913-1.33-1.773-.597-2.626.267.629 2.057 1.483.93 2.516M459.612 243.074c.142.462-.595.572-.663.975-.602-.281-.266-2.684.663-.975M467.92 243.878c.127.686-.8 2.169-1.001.571.33-.571-.663-2.512.67-1.259.262.174.33.404.33.688M427.592 244.737c-.602.342-1.599-.576-1.333-1.143.934-.23 1.196.623 1.333 1.143M438.555 244.281c-.605.168-.202-.403-.331-.687.59-.173.197.456.331.687M434.104 246.903c-1.2-.566-.999-1.94-.14-2.742 1.006.513.797 1.944.14 2.742M459.612 247.307c-.33.172-1.592.23-2.388.282-1 .86.132 2.685-1.726 2.626-.344-.797-.737-1.54-.667-2.51 1.263-.345.465-1.709 1.59-1.882 1.86-.346 1.6.848 3.19 1.484M471.908 247.705c-1.202.913.601 2.389-.67 3.199-1.125-.29-2.12-1.145-3.192-.972.403-.287 2.797-.456 3.058-1.374.27-.403-.664-3.82.804-1.765v.912M466.787 248.386c-.4-.053-.796-.053-1.124-.231-.202-.334-.202-.972.201-1.252.259.513 1.653.802.923 1.483M475.891 248.674c-.33 0-.394-2.061.334-.52.063.232-.404.296-.334.52M481.61 249.074c.189-.341-.341-.399-.466-.688-.87.116-1.6 1.656-1.268-.11.8-1.373 2-.174 1.734.798M432.84 249.355c.189.687-.86.347-1.132.976v1.766c-.596-.68-.928-2.055-.333-3.023.397-.516 1.333-.228 1.464.281M441.145 251.018c1.595.456-.53 1.766.595 2.628-.804 0-2.194.057-2.523-.69.53-.86-1.06-1.308-1.463-1.654.403-.572.599-1.208.801-1.773.194.802 1.333 2.279 2.59 1.489M453.367 258.152c-.6.804-1.463 1.375-2.39 2.177 0-1.321-1.996-3.088-.133-4.405 1.262-.738.198-1.766 1.464-2.563.595 1.485-.733 3.647 1.059 4.791M467.12 257.586c-.528-.283-.863-.686-1.458-.97.723-.86 2.053.112 2.85-.918-.062.861-.661 1.254-1.392 1.888M438.883 256.494c-.265.065-.328-.166-.462-.282.059-.57.726-.34.462.282M446.066 257.586c.055.623.529 4.335-.806 2.223.665-.738-.067-1.83.806-2.223M448.449 257.754c-.194 1.317.532 3.198-.663 3.936-.332-1.029.069-2.904-.267-3.936h.93M455.761 259.809c-2.061.173-.465 2.056-1.73 2.459-1.722 1.362.462 2.683.462 4.108-.657.343-1.59.805-1.922 1.657.132.74.397 1.541 1.328 1.89 1.463.166 2.723-1.49 4.121-.405-.599.57-1.463 1.424-.664 2.176.461.68 1.522.968 2.12.455.074-.404.535-.518.932-.572.866 1.767-1.922 1.085-2.725 1.767-.459.86-1.79-.283-2.387.682-.73.86-1.801 1.373-2.987 1.373.06-4.906-1.999-11.59 1.722-15.758.462-.514 1.796-3.203 2.064-.798.129.343-.14.62-.334.966M477.155 261.008c-.336.29-.398-.114-.803 0 0-.513.67-4.11 1.139-1.65.124.624-.204 1.137-.336 1.65M430.245 261.008c-.458 0-.458-.802 0-.968.605.11.268.744 0 .968M485.133 262.944c-1.533-.215-.539-1.304-1.268-2.05-.265-1.823 1.791 1.027 1.268 2.05M465.192 264.438c-.99.399-2.86.68-2.519 2.055-.341-.456-.6-1.31-1.469-1.2-1.062 2.453-.729-.855-2.255-.456 1.459-.744 1.397-3.429 3.848-2.569.8-.628 1.669-1.145 2.262-1.94 1.392 1.363.728 2.616.133 4.11M433.635 262.665c-.265.913-.732 2.115-1.458 2.452-1.327-.68.928-1.996-.802-2.85-1.13-3.26 2.196-.627 2.26.398M438.75 260.894c-.132.404-.195.796-.329 1.201.134-.404.197-.797.328-1.201M481.472 263.347c-.139-.566-1.198-1.195-.328-1.767.596.285.19 1.364.328 1.767M422.807 265.293c-.13 2.117-2.924-1.947-3.389.803-.137-.803.07-1.086.994-1.086-.329-2.453 2.527-1.38 2.395.283M446.198 263.755c.397 1.306.726 2.737.329 4.105-.937.522-.069-.97-.8-1.194.528-.687.394-1.316.198-2.062-1.13-.34-.524-.849.273-.849M477.615 265.524c-1.459-.406.729-.86.468-1.485.07.565 0 1.144-.468 1.485M438.087 268.953c-.137.283-.265.334-.67.283-.461-.976.337-2.003.201-2.86 1.195.229.606 1.717.469 2.577M475.232 269.124c-1.338 1.311-1.073-.634-1.73-1.09.33-1.143 1.061-.853 2.19-.968 0 .737-.13 1.424-.46 2.058M486.054 268.831c-1.858 2.17-.265-.971-.265-1.484 1.598-.68.73 1.086.265 1.484M430.78 270.493c-2.125.854-.6-.918-.798-1.773.399.516.994.971.798 1.773M443.53 268.831c3.661 2.8 2.799 7.826 3.192 11.654-1.595-1.316-3.719-2.8-5.113-4.116.335-1.022 2.791-2.165.929-3.422.06-1.316.397-3.205-.798-4.116.799-.341 1.196.802 1.79 0M480.8 271c-.525.06-.325-.566 0-.686 0 .295.734.686 0 .686" fill="#fff"/><path d="M441.413 274.713c-.203 0-.203-.508.196-.508-.064.166.132.398-.196.508M428.851 275.29c-.53.167-.397-.577-.196-.687.328 0 .126.455.196.687M450.978 292.7V292.701M445.59 304.867c-.265.062-.796 0-.329-.277.466 0 1.132.052.33.277" fill="#fff"/><path fill="#009c56" d="M429.885 307.656l-1.772-.966-.376.69 1.635.875-.312.58-1.628-.895-.458.848 1.856 1.003-.315.571-2.54-1.378 1.762-3.234 2.453 1.338-.305.568M430.245 309.918c-.083.19-.147.594.487.875.35.154.765.255.918-.113.123-.257-.108-.446-.437-.698l-.334-.247c-.502-.378-.989-.744-.66-1.484.17-.368.672-.937 1.797-.426 1.06.471 1.049 1.274.867 1.687l-.699-.314c.05-.153.155-.537-.479-.82-.278-.128-.647-.17-.786.125-.115.268.082.422.213.523l.751.577c.422.321.772.709.502 1.31-.45 1.008-1.547.623-1.86.482-1.261-.563-1.164-1.363-.978-1.779l.698.302M434.177 312.756l-.743-.268 1.039-2.851-1.084-.393.219-.61 2.906 1.053-.217.612-1.084-.393-1.036 2.85M436.389 312.688l1.354.389.021.799.83.241-.264-3.905-.876-.258-2.328 3.159.803.23.46-.655m1.26-1.808h.011l.045 1.525-.929-.27.873-1.255zM440.636 311.446l.892.178c.356.065.552.205.497.502-.06.283-.34.356-.636.283l-.913-.173.16-.79m-1.353 2.833l1.573.314c.764.158.994.074 1.25-.083.23-.15.416-.393.472-.685.068-.347.022-.731-.405-.984.173-.048.508-.127.612-.65.08-.365-.044-.963-.962-1.147l-1.81-.38-.73 3.615zm1.066-1.439l.994.204c.277.049.541.23.474.545-.077.371-.323.487-.705.41l-.96-.195.197-.964zM444.09 314.466l1.871.24-.08.656-2.667-.335.46-3.655.791.105-.375 2.989M447.278 315.457l-.791-.062.283-3.665.782.056-.274 3.671M447.975 314.387c-.013.453.208 1.23 1.594 1.262.333.017 1.497-.056 1.528-1.157.018-.668-.455-.887-.968-1.015l-.924-.247c-.16-.04-.4-.108-.394-.39.01-.337.368-.442.672-.431.693.01.746.41.765.577l.76.01c.008-.44-.288-1.193-1.455-1.215-1.228-.03-1.48.69-1.48 1.094-.024.806.565.954 1.174 1.111l.407.1c.401.108.683.192.683.473-.013.393-.434.467-.811.453-.693-.01-.787-.4-.793-.61l-.758-.015M454.025 313.814l.081 1.648.796-.04-.198-3.675-.788.04.068 1.392-1.477.084-.077-1.398-.79.038.199 3.678.789-.037-.083-1.653 1.48-.077M458.24 311.955l-1.997.276.097.761 1.834-.24.086.641-1.84.24.127.943 2.085-.271.092.653-2.867.363-.476-3.648 2.769-.358.09.64M459.544 314.812l1.617-.336c1.216-.265 1.3-1.443 1.135-2.213-.139-.685-.618-1.664-1.872-1.394l-1.638.34.758 3.603m.139-3.144l.741-.152c.328-.07.867-.095 1.09.972.12.588.047 1.25-.58 1.382l-.757.163-.494-2.365zM463.967 310.663l.105-.028c.683-.22.753-.617.683-.88l.58-.19 1.116 3.463-.702.23-.772-2.384-.847.274-.163-.485M468.99 308.852c-.196.482-.662 1.816-.171 3.312l-.705.281c-.466-1.38-.01-2.808.163-3.228l-1.737.685-.22-.597 2.457-.976.212.523M470.23 310.68c.302.5.868.635 1.445.368.615-.295 1.046-.999.45-2.277-.217-.464-.818-1.682-1.996-1.13-.67.312-.98.924-.607 1.73.265.547.866.852 1.517.543.233-.101.472-.282.515-.58h.019c.315.698.144 1.05-.132 1.184-.206.102-.401.067-.55-.139v-.005l-.662.306m-.076-1.726c-.222-.468.046-.699.226-.78.337-.165.617-.005.796.372.184.385 0 .673-.238.783-.254.118-.549.129-.784-.375zM472.2 308.076c-.57-1.032.164-1.565.458-1.72.627-.347 1.327-.26 1.685.382.296.553.081 1.026-.114 1.42-.279.535-.43.805-.417.991l1.428-.783.309.553-2.255 1.24c-.18-.387-.37-.796.066-1.69.374-.745.515-1.032.32-1.392-.113-.206-.39-.382-.7-.206-.454.253-.276.623-.148.86l-.631.345M379.52 269.426c.146-3.839 5.825-3.839 6.12-.074.223 3.988-6.12 4.208-6.12.074"/><path d="M381.393 268.485l-.393.974.112.672c.244.594.809.842 1.514.823.728-.016 1.26-.299 1.455-.865l.081-.634-.173-.623c-.498-.952-1.892-1.07-2.596-.347zm-1.873.941c.146-3.839 5.825-3.839 6.12-.074.114 1.995-1.421 3.047-2.977 3.082-1.562.033-3.143-.943-3.143-3.008z" fill="#009551"/><path d="M516.156 269.426c.146-3.839 5.825-3.839 6.128-.074.223 3.988-6.128 4.208-6.128.074" fill="#009c56"/><path d="M518.035 268.485l-.393.974.114.672c.236.594.802.842 1.514.823.72-.016 1.256-.299 1.452-.865l.08-.634-.173-.623c-.498-.952-1.898-1.07-2.594-.347zm-1.879.941c.146-3.839 5.825-3.839 6.128-.074.11 1.995-1.421 3.047-2.981 3.082-1.557.033-3.147-.943-3.147-3.008z" fill="#009551"/><path d="M446.054 300.462c-.163 2.459-3.708 2.731-5.473 3.425M430.161 303.707c1.062.618 2.535.778 3.617 1.279 1.555.729 2.802 2.034 4.411 2.486 2.535.697 6.13.819 8.712.512 2.86-.328 4.296-1.578 6.828-2.78 2.681-1.258 11.247 1.19 12.655-1.328-.165-.1-.384-.204-.522-.336" fill="#009c56"/><path d="M452.882 299.442c3.648 4.596 8.835 2.263 13.344 4.775-2.828 1.827-6.869 1.389-10.145 1.895-3.53.538-9.359 2.6-12.762 1.183M451.855 291.413c0 7.174-.854 9.398-.854 9.398l-1.708-.514.513-8.884h2.05" fill="#009c56"/><path d="M451.855 291.413c0 7.174-.854 9.398-.854 9.398l-1.708-.514.513-8.884h2.05z" fill="none" stroke="#009c56" stroke-width="1.791" stroke-miterlimit="11.474"/></svg>