<svg xmlns="http://www.w3.org/2000/svg" width="900" height="600" version="1" xmlns:cgf="https://coding.garden/flags"><metadata id="cgf-metadata">

<cgf:flag>
  <cgf:name>Jackson</cgf:name>
  <cgf:route>us/ms/jackson</cgf:route>
  <cgf:aspect-ratio>1.5</cgf:aspect-ratio>
</cgf:flag>

</metadata><path fill="#3a7728" d="M0 0h900v600H0z"></path><path d="M418.594 0v268.594H0v62.812h418.594V600h62.812V331.406H900v-62.812H481.406V0h-62.812z" fill="#fff"></path><path d="M615.116 300a165.116 165.116 0 1 1-330.232 0 165.116 165.116 0 1 1 330.232 0z" fill="#fcdb00"></path><path d="M601.163 300a151.163 151.163 0 1 1-302.326 0 151.163 151.163 0 1 1 302.326 0z" fill="#0093dd"></path><path d="m450 165.117 30.286 93.198 97.996.004-79.278 57.603 30.279 93.201L450 351.526l-79.283 57.597 30.28-93.2-79.279-57.604 97.996-.004L450 165.117z" fill="#fcdb00"></path></svg>