<svg xmlns="http://www.w3.org/2000/svg" xmlns:xlink="http://www.w3.org/1999/xlink" width="1000" height="500"><path fill="#eea400" d="M0 0h1000v500H0z"/><path fill="#00005b" d="M0 0h350.81v500H0z"/><g transform="matrix(.0992 0 0 .0992 -567.654 0)"><path id="a" d="M7560 480l69.421 215.84 212.04-80.301-125.47 188.85 194.99 115.71-225.88 19.651 31.105 224.59-156.1-164.3-156.2 164.35 31.105-224.59-225.88-19.651 194.99-115.71-125.47-188.85 212.04 80.301z" fill="#fff"/><path d="M8064 2520l54.86 134.49 144.86 10.615-110.96 93.735 34.67 141.05-123.43-76.56-123.43 76.56 34.67-141.05-110.96-93.735 144.86-10.615z" fill="#fff"/><use xlink:href="#a" y="1364.95" x="-1260.002"/><use xlink:href="#a" y="1028.947" x="1119.997"/><use xlink:href="#a" y="3359.947"/></g><g transform="matrix(.33652 0 0 .27165 461.367 366.768)"><path d="M460.624-655.512v354.321c0 177.164 184.252 265.74 219.68 265.74 35.434 0 205.52-88.584 205.52-265.74v-354.32h-425.2z" fill-rule="evenodd" fill="#00005b"/><g fill-rule="evenodd" stroke-width="3.75"><path d="M35.433-17.716L70.866 0c17.717 0 17.717 17.717 0 17.717L35.433 0c-17.69-1.568-17.717-17.716 0-17.716z" transform="matrix(.14095 .3395 -.3451 .15288 543.32 -505.403)" stroke="#fff" fill="#00005b"/><path d="M35.433-17.716L70.866 0c17.717 0 17.717 17.717 0 17.717L35.433 0c-17.69-1.568-17.717-17.716 0-17.716z" transform="matrix(.14095 .3395 -.3451 .15288 549.434 -508.111)" stroke="#fff" fill="#00005b"/><path d="M35.433-17.716L70.866 0c17.717 0 17.717 17.717 0 17.717L35.433 0c-17.69-1.568-17.717-17.716 0-17.716z" transform="matrix(.14095 .3395 -.3451 .15288 537.207 -502.694)" stroke="#fff" fill="#00005b"/><path d="M35.433-17.716L70.866 0c17.717 0 17.717 17.717 0 17.717L35.433 0c-17.69-1.568-17.717-17.716 0-17.716z" transform="matrix(.14095 .3395 -.3451 .15288 531.093 -499.986)" stroke="#fff" fill="#00005b"/><path d="M35.433-17.716L70.866 0c17.717 0 17.717 17.717 0 17.717L35.433 0c-17.69-1.568-17.717-17.716 0-17.716z" transform="matrix(.14095 .3395 -.3451 .15288 524.979 -497.277)" stroke="#fff" fill="#00005b"/><path d="M35.433-17.716L70.866 0c17.717 0 17.717 17.717 0 17.717L35.433 0c-17.69-1.568-17.717-17.716 0-17.716z" transform="matrix(.14095 .3395 -.3451 .15288 512.751 -491.86)" stroke="#fff" fill="#00005b"/><path d="M35.433-17.716L70.866 0c17.717 0 17.717 17.717 0 17.717L35.433 0c-17.69-1.568-17.717-17.716 0-17.716z" transform="matrix(.14095 .3395 -.3451 .15288 518.865 -494.568)" stroke="#fff" fill="#00005b"/><path d="M35.433-17.716L70.866 0c17.717 0 17.717 17.717 0 17.717L35.433 0c-17.69-1.568-17.717-17.716 0-17.716z" transform="matrix(.14095 .3395 -.3451 .15288 506.637 -489.151)" stroke="#fff" fill="#00005b"/><path d="M35.433-17.716L70.866 0c17.717 0 17.717 17.717 0 17.717L35.433 0c-17.69-1.568-17.717-17.716 0-17.716z" transform="matrix(.14095 .3395 -.3451 .15288 500.523 -486.443)" stroke="#fff" fill="#00005b"/><path d="M35.433-17.716L70.866 0c17.717 0 17.717 17.717 0 17.717L35.433 0c-17.69-1.568-17.717-17.716 0-17.716z" transform="matrix(.14095 .3395 -.3451 .15288 494.41 -483.734)" stroke="#fff" fill="#00005b"/><path d="M35.433 0l35.433 17.716H35.433C17.743 16.148 17.716 0 35.433 0z" transform="matrix(.14095 .3395 -.3451 .15288 494.41 -483.734)" stroke="#fff" fill="#00005b"/><path d="M35.433-53.15l7.087-602.36 10.63-53.149 14.173 53.149 3.543 602.36H35.433z" transform="matrix(.14095 .3395 -.42904 .19007 538.859 -503.426)" stroke="#00005b" fill="#fffffe"/><path d="M-17.716-124.02h141.73l35.433-35.433 17.716 17.717-53.149 53.149h-141.73l-53.15-53.149 17.716-21.26 35.433 38.976z" transform="matrix(.14095 .3395 -.3451 .15288 518.865 -494.568)" stroke="#00005b" fill="#fffffe"/><path d="M17.716-17.716h70.866c17.716 0 17.716 35.433 0 35.433H17.716c-17.69-1.569-17.717-35.433 0-35.433z" transform="matrix(.14095 .3395 -.3451 .15288 482.181 -478.317)" stroke="#00005b" fill="#fffffe"/></g><g fill="#fff" stroke-width="1pt" fill-rule="evenodd"><path d="M612.99-194.88h124.02v3.543H612.99zM612.99-205.51h124.02v3.543H612.99zM612.99-216.14h124.02v3.543H612.99zM612.99-226.77h124.02v3.543H612.99zM616.54-269.29h124.02v3.543H616.54zM612.99-237.4h124.02v3.543H612.99zM612.99-248.03h124.02v3.543H612.99zM616.54-279.92h124.02v3.543H616.54zM612.99-258.66h124.02v3.543H612.99zM616.54-290.55h124.02v3.543H616.54z"/><path d="M673.23-294.09h3.543v106.3h-3.543zM683.86-294.09h3.543v106.3h-3.543zM662.6-294.09h3.543v106.3H662.6zM651.97-294.09h3.543v106.3h-3.543zM641.34-294.09h3.543v106.3h-3.543zM630.71-294.09h3.543v106.3h-3.543zM620.08-294.09h3.543v106.3h-3.543zM705.12-294.09h3.543v106.3h-3.543zM694.49-294.09h3.543v106.3h-3.543zM715.75-294.09h3.543v106.3h-3.543zM726.38-294.09h3.543v106.3h-3.543z"/></g><g fill-rule="evenodd" stroke="#00005b" fill="#fff"><path stroke-width="1.512" d="M641.34-411.02h63.78v88.583h-63.78z"/><path d="M627.16-187.8c0-60.236 35.036-82.106 46.063-81.496 10.233-.61 46.063 21.26 46.906 81.827 9.787-.331 34.59-.331 34.59-.331v-102.76h-166.54v102.76h38.976z" transform="matrix(1.25532 0 0 1.27498 -171.438 51.548)" stroke-width="1pt"/><path d="M600.82-464.17v-7.087h-7.702v-7.087h-3.082v7.087h-9.243v-7.087h-3.081v7.087h-10.784v-7.087h-3.081v7.087h-10.784v-7.087h-3.081v7.087h-9.244v-7.087h-3.081v7.087h-7.703v7.087h70.866z" transform="matrix(3.05 0 0 -1.22222 -1049.429 -889.368)" stroke-width="1pt"/><path d="M599.28-481.89l1.541-7.086h-6.162v-7.087h-6.162v7.087h-6.162v-7.087h-6.163v7.087h-7.702v-7.087h-6.163v7.087h-7.703v-7.087h-6.162v7.087h-6.162v-7.087h-6.162v7.087h-6.163l-1.541 7.086h70.866z" transform="matrix(3.03403 0 0 1.22222 -1039.838 262.596)" stroke-width="1pt"/><path d="M746.93-460.63l5.67 17.716h51.024l5.669-17.716H746.93z" transform="matrix(1.24998 0 0 1 -299.395 31.89)" stroke-width="1pt"/><path d="M531.5-496.06v35.433h70.866v-35.433h-3.543v7.087h-7.087v-7.087h-7.086v7.087h-14.174v-7.087h-7.086v7.087h-14.173v-7.087h-7.087v7.087h-7.087v-7.087H531.5z" transform="matrix(1.1 0 0 .6 49.603 -152.361)" stroke-width="1pt"/><g stroke-width="3.75"><path d="M-265.75-407.48h673.23v35.433h-673.23z" transform="matrix(.37741 .19489 -.22668 .48691 578.408 -351.361)"/><path d="M194.88-407.48h17.717v35.433H194.88zM283.46-407.48h17.717v35.433H283.46zM17.717-407.48h17.717v35.433H17.717zM106.3-407.48h17.717v35.433H106.3zM-177.17-407.48h17.717v35.433h-17.717zM-70.866-407.48h17.717v35.433h-17.717zM-265.75-407.48h17.717v35.433h-17.717zM-266.49-406.94l-52.409-35.968-70.866 53.149h-35.433l106.3-70.866 52.409 53.685z" transform="matrix(.37741 .19489 -.22668 .48691 578.408 -351.361)"/><path d="M-266.49-405.33l-53.15-35.433-70.866 53.15h-35.433l106.3-70.866 53.15 53.149z" transform="matrix(.37741 .19489 .22668 -.48691 754.903 -729.73)"/><path d="M-442.91-407.48l-17.717 17.716 17.717 17.717 70.866-17.717-70.866-17.716z" transform="matrix(.37741 .19489 -.22668 .48691 578.408 -351.361)"/></g><g stroke-width="5"><path d="M-159.45-265.75l35.433-70.866h70.866l17.716 70.866 17.717-70.866h70.866l35.433 70.866-70.866 35.433 70.866-17.716 17.716 70.866-35.433 53.149-70.857-54.45 53.15 72.168-71.153 38.253-70.579-38.253 35.772-67.367-85.217 120.02-19.203-15.603 88.817-108.02-55.603 53.251-54.818-37.648 19.385-86.367 70.866 17.716-70.866-35.433z" transform="matrix(.3728 0 0 .35169 686.75 -41.066)"/><path d="M17.717-212.6c0 29.354-23.796 53.15-53.15 53.15s-53.15-23.796-53.15-53.15 23.796-53.15 53.15-53.15 53.15 23.796 53.15 53.15z" transform="matrix(.3728 0 0 .35169 686.75 -41.066)"/></g><path d="M17.716-354.33l35.433 53.15h230.32l35.433-53.15-141.73-88.582-10.058-17.717-7.658 17.717-141.73 88.582zm35.433 0h230.32l-115.43-70.866-114.88 70.866zm-1.54 17.433l16.803 26.405 37.886-1.2-10.28-24.921-44.408-.284zm231.85.284l-16.803 26.405H230.31l8.742-26.405h44.408zm-168.24 0c8.794-.917 44.227 0 44.227 0v24.921h-35.433l-8.794-24.921zm106.17.407c-8.794-.917-44.227 0-44.227 0v24.921h35.433l8.794-24.921z" transform="matrix(.47059 0 0 .55556 594.025 -328.74)" stroke-width="3.75"/></g><g id="b" fill-rule="evenodd"><path stroke="#00005b" stroke-width="1pt" fill="#fff" d="M496.06-230.31h106.3v53.15h-106.3zM513.775-265.75l-17.716 35.433h106.3l-17.716-35.433h-70.867z"/><path d="M744.09-265.75l10.63-177.16h49.606l10.631 177.16H744.09z" transform="matrix(1 0 0 .7 -230.315 -79.724)" stroke="#00005b" stroke-width="1pt" fill="#fff"/><path d="M513.775-407.48l10.63 17.716h49.606l10.63-17.716h-70.866z" stroke="#00005b" stroke-width="1pt" fill="#fff"/><path d="M531.5-496.06v35.433h70.866v-35.433h-3.543v7.087h-7.087v-7.087h-7.086v7.087h-14.174v-7.087h-7.086v7.087h-14.173v-7.087h-7.087v7.087h-7.087v-7.087H531.5z" transform="matrix(1 0 0 .6 -17.717 -131.102)" stroke="#00005b" stroke-width="1pt" fill="#fff"/><path d="M545.67-361.42h3.544v10.63h7.086v3.543h-7.086v14.173h-3.544v-14.173h-7.086v-3.543h7.086v-10.63z" transform="translate(-14.173 -3.543)" fill="#00005b"/><path d="M545.67-361.42h3.544v10.63h7.086v3.543h-7.086v14.173h-3.544v-14.173h-7.086v-3.543h7.086v-10.63z" transform="translate(17.717 53.15)" fill="#00005b"/></g><path fill-rule="evenodd" fill="#00005b" d="M577.56-326.38h194.88v4.331H577.56zM676.771-382.68h-3.544v10.63h-7.086v3.543h7.086v14.173h3.544v-14.173h7.086v-3.543h-7.086v-10.63z"/><use xlink:href="#b" transform="matrix(-1 0 0 1 1350 0)"/></g><g transform="matrix(1.19722 0 0 1.23774 -139.468 -87.499)"><path d="M691.32 467.26l-2.4 62.411s-26.405-2.4-43.208 7.201c-16.803 9.602-28.805 16.803-26.405 16.803 2.401 0 28.805-14.402 40.807-14.402 12.003 0 19.204 14.402 21.604 12.002 2.401-2.401 14.403-16.803 31.206-16.803s40.807 9.602 38.407 7.201c-2.401-2.4-36.007-16.803-40.808-21.604-4.8-4.801 0-48.008-4.8-48.008-4.801 0-9.602 0-14.403-4.801z" fill-rule="evenodd" transform="matrix(.35173 0 0 .38674 566.402 145.108)" stroke="#00005b" stroke-width="3.601" fill="#fff"/><path d="M713.67 479.88l-24.745 49.784s-26.405-2.4-43.208 7.201c-16.803 9.602-28.805 16.803-26.405 16.803 2.401 0 28.805-14.402 40.807-14.402 12.003 0 19.204 14.402 21.604 12.002 2.401-2.401 14.403-16.803 31.206-16.803s40.807 9.602 38.407 7.201c-2.401-2.4-36.007-16.803-40.808-21.604-4.8-4.801 22.345-35.381 17.545-35.381-4.801 0-9.602 0-14.403-4.801z" fill-rule="evenodd" transform="matrix(-.05895 .3037 -.43532 -.06482 1025.065 118.563)" stroke="#00005b" stroke-width="3.601" fill="#fff"/><use xlink:href="#c" transform="matrix(-1 0 0 1 1321.489 -4.801)" fill="#fff" stroke="#00005b" stroke-width="1.328"/><path d="M758.47 204.487s3.538-3.022 3.908-3.768c-.993-.15-2.78-.77-4.107-1.885-2.744-2.613-3.972-8.14-3.972-7.72 0 .423-5.266 8.633-5.266 8.633l9.437 4.74z" fill-rule="evenodd" fill="#01015c"/><path d="M600.11 184.91c3.001-3.001 9.902-9.602 9.902-9.602" transform="matrix(.72255 0 0 .65263 326.84 70.415)" stroke="#01015c" stroke-width="1.934" fill="none"/><path d="M612.41 181.91c0 4.309-1.41 7.801-3.15 7.801s-3.151-3.492-3.151-7.801 1.41-7.801 3.15-7.801 3.151 3.492 3.151 7.801z" transform="matrix(.29393 .21367 -.24776 .25349 630.954 12.41)" stroke="#01015c" stroke-width="2.5" fill="none"/></g><path d="M691.32 467.26l-2.4 62.411s-26.405-2.4-43.208 7.201c-16.803 9.602-28.805 16.803-26.405 16.803 2.401 0 28.805-14.402 40.807-14.402 12.003 0 19.204 14.402 21.604 12.002 2.401-2.401 14.403-16.803 31.206-16.803s40.807 9.602 38.407 7.201c-2.401-2.4-36.007-16.803-40.808-21.604-4.8-4.801 0-48.008-4.8-48.008-4.801 0-9.602 0-14.403-4.801z" fill-rule="evenodd" transform="matrix(-.4211 0 0 .47869 836.367 92.107)" stroke="#00005b" stroke-width="3.601" fill="#fff"/><path d="M713.67 479.88l-24.745 49.784s-26.405-2.4-43.208 7.201c-16.803 9.602-28.805 16.803-26.405 16.803 2.401 0 28.805-14.402 40.807-14.402 12.003 0 19.204 14.402 21.604 12.002 2.401-2.401 14.403-16.803 31.206-16.803s40.807 9.602 38.407 7.201c-2.401-2.4-36.007-16.803-40.808-21.604-4.8-4.801 22.345-35.381 17.545-35.381-4.801 0-9.602 0-14.403-4.801z" fill-rule="evenodd" transform="matrix(.07058 .3759 .52117 -.08023 289.4 61.479)" stroke="#00005b" stroke-width="3.601" fill="#fff"/><g fill="#00005b" stroke="#eea400" stroke-width="1.328" transform="matrix(1.19722 0 0 1.23774 -67.643 -93.441)"><g id="c" fill-rule="evenodd"><path d="M698.52 275.22c4.801-4.8-36.006-19.203-19.203-45.608s55.21-7.201 64.811 31.206c9.602 38.407-16.803 88.816-14.402 134.42 2.4 45.609-7.202 40.807 4.801 79.214-9.602-4.8-26.405-33.605-28.805-74.413-2.401-40.807 9.601-88.816 4.8-93.617" transform="matrix(-.68853 -.25322 -.2198 .45847 1069.253 280.687)" stroke-width="2.18"/><path d="M700.93 354.44c9.601 4.8 55.21 48.008 67.212 74.413 4.801 19.203 12.001 40.807-14.403 38.406-16.803-2.4-7.201-24.003-16.803-31.205-9.601-7.201-45.608-33.606-45.608-36.006 0-2.401 7.201-38.407 9.602-45.608zM648.12 407.25c-7.201 0-45.608-4.801-50.409 9.602-4.801 14.402 57.611 24.004 57.611 21.604 0-2.401-4.801-26.405-7.202-31.206z" transform="matrix(-.56772 0 0 .49724 901.053 103.052)" stroke-width="2.5"/><path d="M612.11 196.01c20.055-22.61 48.189-38.554 60.011-24.004 19.384 23.856-62.412 69.612-69.613 112.82s26.405 74.413 31.206 103.22c4.8 28.805 4.801 48.008 19.203 55.21 14.403 7.201 28.805 2.4 28.805 2.4s-4.8 28.805 14.403 26.405c12.002 0-2.401-117.62 2.4-165.63 4.801-48.008-36.006-60.01-36.006-60.01s50.956-48.27 38.407-74.414c-16.256-33.867-40.808-24.004-57.611-19.203-16.802 4.8-32.169 9.149-49.415 25.846-16.657 16.948-31.787 67.77-24.998 66.073l43.208-48.712z" transform="matrix(-.56772 0 0 .49724 901.053 103.052)" stroke-width="2.5"/><path d="M655.32 371.24s0 31.205 2.4 28.805c2.4-2.401 12.002-21.604 12.002-21.604s7.201 33.606 7.201 31.205c0-2.4 7.202-24.004 7.202-24.004s2.4 36.007 4.801 36.007c2.4 0 9.601-21.604 9.601-21.604s7.202 45.608 7.202 40.807 7.201-26.405 7.201-24.004c0 2.4 12.002 52.809 12.002 50.409 0-2.401-2.4-172.83-2.4-172.83l-40.808 4.801" transform="matrix(-.56772 0 0 .49724 899.69 100.665)" stroke-width="2.5"/><path d="M662.52 280.02c2.4 0 31.205 0 36.006-4.801 4.801-4.8-36.006-19.203-19.203-45.608s55.21-7.201 64.811 31.206c9.602 38.407-16.803 88.816-14.402 134.42 2.4 45.609-7.202 40.807 4.801 79.214-9.602-4.8-26.405-33.605-28.805-74.413-2.401-40.807 9.601-88.816 4.8-93.617-4.8-4.801-26.404 0-26.404 0" transform="matrix(-.74677 0 0 .49724 1029.213 104.246)" stroke-width="2.18"/></g></g><path d="M606.418 165.602s-4.236-3.74-4.679-4.664c1.189-.184 3.33-.952 4.918-2.332 3.284-3.235 4.755-10.077 4.755-9.555 0 .522 6.304 10.684 6.304 10.684l-11.298 5.867z" fill-rule="evenodd" fill="#fff"/><path d="M600.11 184.91c3.001-3.001 9.902-9.602 9.902-9.602" transform="matrix(-.86506 0 0 .80778 1123.177 -.344)" stroke="#fff" stroke-width="1.934" fill="none"/><path d="M612.41 181.91c0 4.309-1.41 7.801-3.15 7.801s-3.151-3.492-3.151-7.801 1.41-7.801 3.15-7.801 3.151 3.492 3.151 7.801z" transform="matrix(-.3519 .26447 .29663 .31375 759.083 -72.139)" stroke="#fff" stroke-width="2.5" fill="none"/></svg>