<svg xmlns="http://www.w3.org/2000/svg" xmlns:xlink="http://www.w3.org/1999/xlink" version="1" width="1000" height="500"><defs><linearGradient id="a"><stop offset="0"/><stop offset="1" stop-color="#fff"/></linearGradient></defs><path d="M0 0h1000v500H0z" fill="#002b7f"/><path d="M750 138.889c61.556 0 111.111 49.555 111.111 111.111 0 61.556-49.555 111.111-111.111 111.111-61.556 0-111.111-49.555-111.111-111.111 0-61.556 49.555-111.111 111.111-111.111z" font-size="12" fill="#fff" fill-rule="evenodd"/><g fill="#3d7de1" fill-rule="evenodd"><path d="M845.2 216.813L830.554 250l14.646 33.187L750 250l95.2-33.187zM654.8 216.813L669.446 250 654.8 283.187 750 250l-95.2-33.187z"/><g><path d="M716.814 155L750 169.644 783.187 155 750 250zM716.814 345.2L750 330.554l33.187 14.646L750 250l-33.186 95.2z"/></g></g><g stroke="#000" stroke-width=".272"><path d="M746.097 232.484c-1.416.043-3.073.281-4.814.633-2.588.05-5.49.525-8.876 2.402-.016.009-.034.011-.05.02-1.853.595-3.44 1.15-4.497 1.532h-.01c-4.131-1.32-15.94-3.835-17.011 10.112-.007.086.027.227.098.405.002.003 0 .008 0 .01-.393 2.192.435 6.04.435 6.04.491.351.845 1.124.94 1.374v.02c.007.278-.998 1.386-.821 1.848 0 .002.009.008.01.01.004.008.005.022.01.03l.01.01.01.019.01.01.01.01.01.01c.004.004.013.005.019.01.355.269.666 1.41.91 2.411 0 .006-.002.014 0 .02v.01c-.077.383-.05.718.167.949.033.035.059.069.09.109.277 1.234 3.064 13.04 2.905 13.67-.156.631.946 1.424 1.948 1.74.117.037.397.075.83.108.014.005.026.005.04.01 5.913 2.089 10.994.706 21.963.228 2.864-.025 5.93-.063 9.163-.119H749.923c3.233.056 6.299.094 9.163.119 10.969.478 16.05 1.86 21.963-.228.014 0 .027-.009.04-.01.433-.033.713-.071.83-.108 1.001-.316 2.104-1.109 1.947-1.74-.158-.63.208-3.099.208-3.993 0-.895.63-1.943.998-2.363.109-.124.238-.39.356-.721.516.19 1.18.546 1.394.563h.05l.01-.01s-.002-.009 0-.01c0-.002.009-.007.009-.01v-.01c0-.004-.009-.014-.01-.02-.001-.003.002-.015 0-.019 0-.002-.009-.008-.01-.01-.053-.109-.236-.322-.603-.682l-.01-.01c-.445-.52.237-5.14.514-6.375.03-.04.057-.074.09-.11.217-.23.244-.565.167-.948v-.01c-.001-.008.002-.012 0-.02.244-1 .555-2.142.91-2.412.005-.004.014-.005.02-.01l.01-.01.01-.01.01-.009.009-.02.01-.01a.33.33 0 0 0 .02-.04c.176-.46-.828-1.57-.82-1.848 0-.007.007-.014.01-.02.094-.249.438-1.021.928-1.373 0 0 .83-3.848.435-6.04v-.01c.072-.178.106-.32.099-.405-1.071-13.947-12.88-11.431-17.011-10.112h-.01a133.836 133.836 0 0 0-4.498-1.532l-.04-.02c-3.386-1.878-6.287-2.352-8.876-2.402-3.134-.633-5.998-.897-7.67-.316-.27.094-.547.173-.82.237a8.304 8.304 0 0 1-.811-.237c-.743-.258-1.714-.35-2.847-.316z" font-size="12" fill="#ce1126" stroke-width=".08603632"/><g fill-rule="evenodd"><path d="M728.588 243.725c-.842.3-1.689 7.531-.962 9.865.503 1.615 1.11 2.706 1.46 3.378-.726-1.117-2.366-3.257-4.22-3.091-2.333.21-1.714 7.711-1.597 8.187v.008l.007.008.005-.001c.083-.188.646-3.362 2.953-3.57 1.518-.136 2.918 1.514 3.444 2.223l.091.694c-.255.736-.267 2.429-1.064 4.63-.963 2.66-4.838 3.27-5.492 3.355l8.454-.758c.008 0 .019-.001.027-.003h.01l8.481-.762c-.66.033-1.864-1.604-5.666-2.6-2.092-1.772-2.262-3.372-2.691-4.047-.027-.23-.051-.46-.08-.695.342-.787 1.31-2.649 2.828-2.785 2.306-.207 3.63 2.798 3.757 2.967h.005l.005-.009-.001-.008c-.002-.486-1.224-7.934-3.556-7.725-1.855.167-2.938 2.552-3.375 3.773.179-.72.469-2.206.549-3.558.145-2.45-2.46-9.557-3.33-9.48-.013 0-.03-.002-.042.003zm.525 13.288c.075.117.14.218.194.306 0 .002.183.735.185.737.001.016.761 2.502.763 2.518-.058-.094-1.066-3.416-1.142-3.56zm2.282-.205c-.04.155-.254 3.587-.287 3.69-.002-.017.175-3.332.173-3.348l.016.744c.03-.096.053-.958.098-1.086zM771.216 244.15c-.886.118-3.218 7.016-2.992 9.45.156 1.684.523 2.877.725 3.607-.477-1.243-1.636-3.678-3.485-3.9-2.325-.28-3.28 7.186-3.264 7.676v.007l.004.009h.005c.12-.166 1.331-3.154 3.63-2.877 1.514.183 2.54 2.087 2.908 2.89-.021.237-.037.466-.056.698-.403.667-1.98 3.273-4.343 4.22-2.625 1.053-3.073 2.28-3.73 2.228.165.02 6.384.77 8.427 1.015l.027.004h.01l.027.004 8.427 1.016c-.652-.105-2.561-1.065-4.522-3.206-1.735-1.895-1.992-4.284-2.27-5.034.02-.231.045-.46.065-.696.499-.699 1.832-2.32 3.346-2.137 2.299.277 2.97 3.492 3.058 3.684h.005l.006-.007v-.008c.1-.475.454-8.015-1.871-8.295-1.849-.223-3.404 1.885-4.086 2.989.325-.667.917-2.06 1.277-3.367.65-2.366-.42-9.86-1.286-9.965-.013-.002-.028-.007-.042-.006zm-2.25 13.107c.05.13.093.242.127.34l.027.758c-.001.016.225 2.606.223 2.622-.036-.103-.332-3.563-.377-3.72zm2.276.274c-.071.143-.995 3.456-1.048 3.549 0-.016.864-3.223.865-3.239l-.139.731c.05-.087.251-.925.322-1.04z" fill="#f7d917" stroke-width=".08603632"/><g stroke-width=".25" fill="#f7d917"><path d="M713.089 256.138l3.328-4.057s.31.401 0 0c-6.823-8.82-7.168-13.88-6.4-16.443.768-2.562 2.304-5.338 6.4-8.755 4.096-3.417 6.922-1.518 10.762-1.518 3.84 0 4.864.855 8.192 1.282 3.328.427 12.287.854 12.287.854v-2.35s.354.067 0 0c-3.955-.737-8.96 0-12.287-.853-3.328-.854-6.144-1.068-9.728-1.068-3.584 0-6.154-1.045-8.458.45-2.304 1.495-5.12 4.057-7.168 6.193-2.048 2.135-3.072 6.406-2.816 9.182.256 2.776 1.28 5.125 2.816 7.26 1.536 2.136 1.28 3.844 1.792 5.339.512 1.495 1.28 4.698 1.28 4.484zM786.91 256.138l-3.327-4.057s-.31.401 0 0c6.822-8.82 7.167-13.88 6.4-16.443-.769-2.562-2.304-5.338-6.4-8.755-4.096-3.417-6.923-1.518-10.763-1.518s-4.864.855-8.191 1.282c-3.328.427-12.288.854-12.288.854v-2.35s-.353.067 0 0c3.956-.737 8.96 0 12.288-.853 3.327-.854 6.143-1.068 9.727-1.068 3.584 0 6.155-1.045 8.459.45 2.304 1.495 5.12 4.057 7.167 6.193 2.048 2.135 3.072 6.406 2.816 9.182-.256 2.776-1.28 5.125-2.816 7.26-1.536 2.136-1.28 3.844-1.792 5.339-.511 1.495-1.28 4.698-1.28 4.484z" stroke-width=".08586"/><path d="M744.426 223.216h11.87v24.348h-11.87z" stroke-width=".08586"/><g><path d="M745.845 201.751s1.278 1.04 2.258 2.377c.98 1.338 1.664 2.972 1.664 2.972s-1.634-.683-2.971-1.664c-1.337-.98-2.377-2.258-2.377-2.258v9.033s1.04-1.278 2.377-2.258c1.337-.981 2.971-1.664 2.971-1.664s-.526 1.348-.866 2.971c-.306 1.46-2.81 4.83-2.81 4.83l7.315.491s-1.216-3.861-1.706-5.32c-.528-1.573-.744-2.972-.744-2.972s1.634.683 2.971 1.664c1.338.98 2.378 2.258 2.378 2.258v-9.033s-1.04 1.277-2.378 2.258c-1.337.98-2.971 1.664-2.971 1.664s.683-1.634 1.664-2.972c.98-1.337 2.258-2.377 2.258-2.377h-9.033z" stroke-width=".08586"/><path d="M756.25 217.85a5.888 5.888 0 1 1-11.776 0 5.888 5.888 0 1 1 11.775 0z" stroke-width=".08586"/><path d="M744.605 218.695h11.712s.17-2.266-.678-3.113h-3.638l-.062-3.396h-3.448l-.062 3.396s-2.448.122-3.575.122c-.512 1.388-.433 1.505-.433 1.505l.184 1.486z" stroke-width=".08586"/></g><g><path d="M742.82 246.749s2.134 1.736 3.771 3.97c1.637 2.232 2.778 4.96 2.778 4.96s-2.728-1.14-4.961-2.778c-2.233-1.637-3.97-3.77-3.97-3.77v15.082s1.737-2.133 3.97-3.77c2.233-1.638 4.961-2.779 4.961-2.779s-1.14 2.729-2.778 4.961c-1.637 2.233-3.77 3.97-3.77 3.97h15.082s-2.133-1.737-3.77-3.97c-1.638-2.232-2.78-4.96-2.78-4.96s2.73 1.14 4.962 2.777c2.233 1.638 3.97 3.771 3.97 3.771V249.13s-1.737 2.134-3.97 3.771c-2.232 1.637-4.961 2.779-4.961 2.779s1.141-2.73 2.778-4.962c1.638-2.233 3.771-3.969 3.771-3.969H742.82zM714.096 272.356l7.427-1.31s-2.403-1.34-4.403-3.254c-2-1.914-3.597-4.404-3.597-4.404s2.885.65 5.368 1.875c2.483 1.225 4.564 3.024 4.564 3.024l-2.62-14.853s-1.34 2.402-3.254 4.402-4.403 3.598-4.403 3.598.65-2.885 1.875-5.368c1.224-2.484 3.024-4.564 3.024-4.564l-7.427 1.31 3.446 19.544zM782.647 251.502s1.799 2.08 3.024 4.564c1.224 2.483 1.874 5.368 1.874 5.368s-2.489-1.598-4.403-3.598c-1.915-2-3.254-4.402-3.254-4.402l-2.62 14.853s2.081-1.8 4.564-3.024c2.483-1.225 5.369-1.875 5.369-1.875s-1.598 2.49-3.598 4.404c-2 1.914-4.403 3.254-4.403 3.254l7.427 1.31 3.446-19.545-7.426-1.31z" stroke-width=".08586"/></g></g><path d="M714.173 271.584l.051 10.82s18.082-6.157 36.163-6.157c18.082 0 36.163 6.157 36.163 6.157v-10.82s-18.094-6.157-36.188-6.157c-18.095 0-36.19 6.157-36.19 6.157z" fill="#f7d917" stroke-width=".08603632"/><g stroke-width=".379" fill="#fff"><path d="M712.496 250.378a2.753 2.753 0 1 1-5.505 0 2.753 2.753 0 1 1 5.505 0zM708.965 244.099a2.753 2.753 0 1 1-5.505 0 2.753 2.753 0 1 1 5.505 0zM708.23 236.74a2.753 2.753 0 1 1-5.506 0 2.753 2.753 0 1 1 5.505 0zM710.437 229.87a2.753 2.753 0 1 1-5.505 0 2.753 2.753 0 1 1 5.505 0zM715.098 224.228a2.753 2.753 0 1 1-5.505 0 2.753 2.753 0 1 1 5.505 0zM721.476 220.303a2.753 2.753 0 1 1-5.505 0 2.753 2.753 0 1 1 5.505 0zM728.59 220.794a2.753 2.753 0 1 1-5.505 0 2.753 2.753 0 1 1 5.506 0zM735.705 221.972a2.753 2.753 0 1 1-5.506 0 2.753 2.753 0 1 1 5.506 0zM742.819 222.708a2.753 2.753 0 1 1-5.506 0 2.753 2.753 0 1 1 5.506 0zM787.503 250.378a2.753 2.753 0 1 0 5.506 0 2.753 2.753 0 1 0-5.506 0zM791.034 244.099a2.753 2.753 0 1 0 5.506 0 2.753 2.753 0 1 0-5.506 0zM791.77 236.74a2.753 2.753 0 1 0 5.506 0 2.753 2.753 0 1 0-5.506 0zM789.562 229.87a2.753 2.753 0 1 0 5.506 0 2.753 2.753 0 1 0-5.506 0zM784.901 224.228a2.753 2.753 0 1 0 5.506 0 2.753 2.753 0 1 0-5.506 0zM778.523 220.303a2.753 2.753 0 1 0 5.506 0 2.753 2.753 0 1 0-5.506 0zM771.409 220.794a2.753 2.753 0 1 0 5.506 0 2.753 2.753 0 1 0-5.506 0zM764.295 221.972a2.753 2.753 0 1 0 5.505 0 2.753 2.753 0 1 0-5.505 0zM757.18 222.708a2.753 2.753 0 1 0 5.506 0 2.753 2.753 0 1 0-5.505 0zM753.114 244.196a2.753 2.753 0 1 1-5.505 0 2.753 2.753 0 1 1 5.505 0z" stroke-width=".0860709"/><path d="M753.114 239.29a2.753 2.753 0 1 1-5.505 0 2.753 2.753 0 1 1 5.505 0z" stroke-width=".0860709"/><path d="M753.114 235.366a2.753 2.753 0 1 1-5.505 0 2.753 2.753 0 1 1 5.505 0z" stroke-width=".0860709"/><path d="M753.114 231.784a2.753 2.753 0 1 1-5.505 0 2.753 2.753 0 1 1 5.505 0zM753.114 220.303a2.753 2.753 0 1 1-5.505 0 2.753 2.753 0 1 1 5.505 0z" stroke-width=".0860709"/><path d="M753.114 220.794a2.753 2.753 0 1 1-5.505 0 2.753 2.753 0 1 1 5.505 0z" stroke-width=".0860709"/><path d="M753.114 223.345a2.753 2.753 0 1 1-5.505 0 2.753 2.753 0 1 1 5.505 0z" stroke-width=".0860709"/><path d="M753.114 226.829a2.753 2.753 0 1 1-5.505 0 2.753 2.753 0 1 1 5.505 0z" stroke-width=".0860709"/></g><path fill="#002b7f" d="M745.189 268.12h10.995v4.794H745.19z" stroke-width=".08603632"/><path d="M16.043 233.11a22.995 8.556 0 1 1-45.99 0 22.995 8.556 0 1 1 45.99 0z" transform="matrix(-.2145 -.02177 .00754 .30293 764.384 201.403)" fill="#3e8225" stroke-width=".338"/><path d="M714.237 274.19l-2.755 2.755 3.195 1.845 7.431-1.991-1.324-4.208-6.547 1.6zM787.136 274.19l2.755 2.755-3.195 1.845-7.431-1.991 1.324-4.208 6.547 1.6z" fill="#ce1126" stroke-width=".08603632"/><path d="M16.043 233.11a22.995 8.556 0 1 1-45.99 0 22.995 8.556 0 1 1 45.99 0z" transform="matrix(.2145 -.02177 -.00754 .30293 736.989 201.403)" fill="#3e8225" stroke-width=".338"/><path d="M742.81 268.478a1.353 1.353 0 1 1-2.706 0 1.353 1.353 0 1 1 2.707 0zM743.234 272.792a1.353 1.353 0 1 1-2.707 0 1.353 1.353 0 1 1 2.707 0zM725.896 271.523a1.353 1.353 0 1 1-2.706 0 1.353 1.353 0 1 1 2.706 0zM727.587 275.583a1.353 1.353 0 1 1-2.706 0 1.353 1.353 0 1 1 2.706 0zM758.5 268.478a1.353 1.353 0 1 0 2.706 0 1.353 1.353 0 1 0-2.707 0zM758.077 272.792a1.353 1.353 0 1 0 2.706 0 1.353 1.353 0 1 0-2.706 0zM775.414 271.523a1.353 1.353 0 1 0 2.707 0 1.353 1.353 0 1 0-2.707 0zM773.723 275.583a1.353 1.353 0 1 0 2.706 0 1.353 1.353 0 1 0-2.706 0z" fill="#fff" stroke-width=".08603632"/><g><path d="M785.61 265.451l.86.412c-.322.426-2.274 5.191-9.292 3.715-7.088-1.491-7.595-8.313-7.595-8.313l1.315.479s.77 5.265 6.34 6.757c5.513 1.478 8.372-3.05 8.372-3.05z" fill="#f7d917" stroke-width=".08603632"/><path d="M769.702 261.325l-1.315.18s-1.357 4.957-8.462 3.946c-6.989-.994-7.274-6.22-7.506-7.116-1.368.658-1.076.897-1.076.897s.807 6.34 8.312 7.236c7.446.896 9.988-3.17 10.047-5.143z" fill="#f7d917" stroke-width=".08603632"/><path d="M771.145 260.68s-.625-.525-1.308-.587c-.683-.061-1.422.342-1.422.342l-.153 1.236s.74-.403 1.423-.341c.683.06 1.308.586 1.308.586l.152-1.236z" fill="#f7d917" stroke-width=".08603632"/><path d="M783.77 262.498a3.557 3.557 0 1 0 7.115 0 3.557 3.557 0 1 0-7.114 0z" fill="#fff" stroke-width=".08586"/><path d="M714.873 265.451l-.86.412c.322.426 2.274 5.191 9.292 3.715 7.088-1.491 7.595-8.313 7.595-8.313l-1.316.479s-.769 5.265-6.339 6.757c-5.514 1.478-8.372-3.05-8.372-3.05z" fill="#f7d917" stroke-width=".08603632"/><path d="M730.78 261.325l1.316.18s1.357 4.957 8.462 3.946c6.988-.994 7.274-6.22 7.506-7.116 1.368.658 1.076.897 1.076.897s-.807 6.34-8.313 7.236c-7.445.896-9.987-3.17-10.046-5.143z" fill="#f7d917" stroke-width=".08603632"/><path d="M729.337 260.68s.626-.525 1.309-.587c.682-.061 1.422.342 1.422.342l.152 1.236s-.74-.403-1.422-.341c-.683.06-1.308.586-1.308.586l-.153-1.236z" fill="#f7d917" stroke-width=".08603632"/><path d="M716.712 262.498a3.557 3.557 0 1 1-7.114 0 3.557 3.557 0 1 1 7.114 0z" fill="#fff" stroke-width=".08586"/></g><path d="M753.892 256.046a3.557 3.557 0 1 1-7.114 0 3.557 3.557 0 1 1 7.114 0z" fill="#fff" stroke-width=".08586"/></g><path d="M719.16 283.17l31.169-5.593 32.466 5.593-15.064 6.263-27.792.448-20.778-6.711z" fill="#9d9d9d" fill-rule="evenodd" stroke-width=".08603632"/><path d="M778.005 290.423c1.033-.18 7.268-1.662 8.58-2.455-.846-1.527-2.367-2.722-1.184-2.22.637.27 1.141-1.834-.708-3.443-5.369 1.761-18.245 4.978-34.423 4.978-16.558 0-29.595-3.386-34.964-5.147-1.849 1.609-1.273 3.437-1.385 4.12 0 .005.002.861.339 1.543 1.82 1.977 7.716 2.952 8.75 3.131 4.855.843 9.712 2.119 27.249 2.119 16.223 0 22.89-1.783 27.746-2.626z" font-size="12" fill="#fff" stroke-width=".08603632"/><g stroke-width=".25"><path d="M722.47 279.285c-1.034.179-7.606 2.507-8.919 3.3v.02c.112.684-1.14 3.865.709 5.473 5.368-1.76 20.443-7.008 36.622-7.008 16.557 0 30.271 5.248 35.64 7.008 1.849-1.608.596-4.79.708-5.472v-.021c-1.312-.793-7.885-3.121-8.919-3.3-4.856-.844-9.881-3.98-27.418-3.98-16.223 0-23.567 3.136-28.423 3.98z" font-size="12" fill="#fff" stroke-width=".08586"/><g stroke-width=".188" fill-rule="evenodd"><path d="M115.508 301.56a1.872 1.872 0 1 1-3.743 0 1.872 1.872 0 1 1 3.743 0z" transform="matrix(.23754 -.02458 .02684 .21753 682.216 220.47)" stroke-width=".376"/><path d="M115.508 301.56a1.872 1.872 0 1 1-3.743 0 1.872 1.872 0 1 1 3.743 0z" transform="matrix(.23754 -.02458 .02684 .21753 681.71 221.584)" stroke-width=".376"/><path d="M115.508 301.56a1.872 1.872 0 1 1-3.743 0 1.872 1.872 0 1 1 3.743 0z" transform="matrix(.23754 -.02458 .02684 .21753 682.686 222.19)" stroke-width=".376"/><path d="M113.518 303.669l8.526-3.166-4.185 2.392 2.686-.083-2.492 1.168 4.001.275-8.536-.586z" transform="matrix(.47546 -.0492 .05372 .4354 647.073 157.565)"/></g><g stroke-width=".188" fill-rule="evenodd"><path d="M115.508 301.56a1.872 1.872 0 1 1-3.743 0 1.872 1.872 0 1 1 3.743 0z" transform="matrix(.23754 -.02458 .02684 .21753 696.502 216.382)" stroke-width=".376"/><path d="M115.508 301.56a1.872 1.872 0 1 1-3.743 0 1.872 1.872 0 1 1 3.743 0z" transform="matrix(.23754 -.02458 .02684 .21753 695.995 217.496)" stroke-width=".376"/><path d="M115.508 301.56a1.872 1.872 0 1 1-3.743 0 1.872 1.872 0 1 1 3.743 0z" transform="matrix(.23754 -.02458 .02684 .21753 696.971 218.102)" stroke-width=".376"/><path d="M113.518 303.669l8.526-3.166-4.185 2.392 2.686-.083-2.492 1.168 4.001.275-8.536-.586z" transform="matrix(.47546 -.0492 .05372 .4354 661.359 153.477)"/></g><g stroke-width=".188" fill-rule="evenodd"><path d="M115.508 301.56a1.872 1.872 0 1 1-3.743 0 1.872 1.872 0 1 1 3.743 0z" transform="matrix(.23651 .033 -.02602 .21763 730.288 207.786)" stroke-width=".376"/><path d="M115.508 301.56a1.872 1.872 0 1 1-3.743 0 1.872 1.872 0 1 1 3.743 0z" transform="matrix(.23651 .033 -.02602 .21763 729.53 208.746)" stroke-width=".376"/><path d="M115.508 301.56a1.872 1.872 0 1 1-3.743 0 1.872 1.872 0 1 1 3.743 0z" transform="matrix(.23651 .033 -.02602 .21763 730.333 209.568)" stroke-width=".376"/><path d="M113.518 303.669l8.526-3.166-4.185 2.392 2.686-.083-2.492 1.168 4.001.275-8.536-.586z" transform="matrix(.4734 .06606 -.05208 .4356 711.227 138.297)"/></g><g stroke-width=".188" fill-rule="evenodd"><path d="M115.508 301.56a1.872 1.872 0 1 1-3.743 0 1.872 1.872 0 1 1 3.743 0z" transform="matrix(.23754 .02458 .02684 -.21753 730.662 343.385)" stroke-width=".376"/><path d="M115.508 301.56a1.872 1.872 0 1 1-3.743 0 1.872 1.872 0 1 1 3.743 0z" transform="matrix(.23754 .02458 .02684 -.21753 730.156 342.271)" stroke-width=".376"/><path d="M115.508 301.56a1.872 1.872 0 1 1-3.743 0 1.872 1.872 0 1 1 3.743 0z" transform="matrix(.23754 .02458 .02684 -.21753 731.132 341.665)" stroke-width=".376"/><path d="M113.518 303.669l8.526-3.166-4.185 2.392 2.686-.083-2.492 1.168 4.001.275-8.536-.586z" transform="matrix(.47546 .0492 .05372 -.4354 695.52 406.29)"/></g><g stroke-width=".188" fill-rule="evenodd"><path d="M115.508 301.56a1.872 1.872 0 1 1-3.743 0 1.872 1.872 0 1 1 3.743 0z" transform="matrix(.23754 .02458 .02684 -.21753 745.08 347.15)" stroke-width=".376"/><path d="M115.508 301.56a1.872 1.872 0 1 1-3.743 0 1.872 1.872 0 1 1 3.743 0z" transform="matrix(.23754 .02458 .02684 -.21753 744.573 346.036)" stroke-width=".376"/><path d="M115.508 301.56a1.872 1.872 0 1 1-3.743 0 1.872 1.872 0 1 1 3.743 0z" transform="matrix(.23754 .02458 .02684 -.21753 745.549 345.43)" stroke-width=".376"/><path d="M113.518 303.669l8.526-3.166-4.185 2.392 2.686-.083-2.492 1.168 4.001.275-8.536-.586z" transform="matrix(.47546 .0492 .05372 -.4354 709.936 410.055)"/></g></g></g><path fill="#002b7f" d="M0 0h500v250H0z"/><g transform="matrix(.33333 0 0 .33333 0 0)" id="c"><path id="b" fill="#fff" d="M675 0l75 325L0 300v-50h332.295L0 83.853V0h167.705L625 228.647V0z"/><use transform="matrix(-1 0 0 1 1500 0)" width="1000" height="500" xlink:href="#b"/><path d="M0 0l500 250H388.197L0 55.902V0zm1500 0l-500 250H888.197l500-250H1500z" fill="#ce1126"/></g><use transform="rotate(180 250 125)" width="1000" height="500" xlink:href="#c"/><path d="M225 0h50v100h225v50H275v100h-50V150H0v-50h225V0z" fill="#ce1126"/></svg>