<svg xmlns="http://www.w3.org/2000/svg" xmlns:xlink="http://www.w3.org/1999/xlink" version="1" width="1000" height="500"><path d="M0 0h1000v500H0z" fill="#002b7f"/><path d="M0 0h500v250H0z" fill="#002b7f"/><g transform="matrix(.33333 0 0 .33333 0 0)" id="b"><path d="M625 228.647V0h50l75 325L0 300v-50h332.295L0 83.853V0h167.705z" id="a" fill="#fff"/><use transform="matrix(-1 0 0 1 1500 0)" width="1000" height="500" xlink:href="#a"/><path d="M0 0l500 250H388.197L0 55.902V0zm1500 0l-500 250H888.197l500-250H1500z" fill="#ce1126"/></g><use transform="rotate(180 250 125)" width="1000" height="500" xlink:href="#b"/><path d="M225 0h50v100h225v50H275v100h-50V150H0v-50h225V0z" fill="#ce1126"/><path d="M750 126.96c68.164 0 123.04 54.876 123.04 123.04 0 68.164-54.876 123.04-123.04 123.04-68.164 0-123.04-54.876-123.04-123.04 0-68.164 54.876-123.04 123.04-123.04z" font-size="12" fill="#ffe300" fill-rule="evenodd"/><g fill-rule="evenodd"><g font-size="12" stroke="#000" stroke-width="3.75"><path d="M-8.964 496.063h645.783a26.517 26.517 0 0 1 26.575 26.575 26.517 26.517 0 0 1-26.575 26.575H-8.964a26.517 26.517 0 0 1-26.575-26.575 26.517 26.517 0 0 1 26.575-26.575z" fill="#007501" transform="matrix(.15676 0 0 .16024 701.844 247.38)"/><path d="M20.731 496.063h62.193v53.15H20.731zM549.213 496.063h62.193v53.15h-62.193z" fill="#c00" transform="matrix(.15676 0 0 .16024 701.844 247.38)"/></g><g font-size="12"><path d="M774.794 336.725c10.01 10.746 16.065 20.625 13.517 22.052-2.548 1.426-12.74-6.137-22.75-16.882-.308-4.094-1.654-4.527.894-5.954 2.548-1.427 3.67-.465 8.339.784z"/><path d="M248.845 853.439c0 95.946-20.934 103.337-39.43 103.337-18.495 0-36.468-7.391-36.468-103.337s17.973-244.292 36.468-244.292c18.496 0 39.43 148.346 39.43 244.292z" transform="matrix(.11528 -.06455 .08397 .09014 676.068 278.101)" fill="#fff" stroke="#000" stroke-width="5.352"/><path d="M771.477 338.888c7.96 11.73 12.164 22.171 9.382 23.306-2.782 1.135-11.5-7.464-19.46-19.194.437-4.088-.817-4.663 1.964-5.798 2.782-1.134 3.717-.06 8.114 1.686z"/><path d="M248.845 853.439c0 95.946-20.934 103.337-39.43 103.337-18.495 0-36.468-7.391-36.468-103.337s17.973-244.292 36.468-244.292c18.496 0 39.43 148.346 39.43 244.292z" transform="matrix(.12584 -.05134 .06678 .0984 684.367 270.08)" fill="#fff" stroke="#000" stroke-width="5.352"/><path d="M767.43 340.527c6.088 12.386 8.645 23.143 5.708 24.01-2.937.869-10.262-8.48-16.349-20.866 1.067-4.017-.09-4.704 2.848-5.572 2.937-.868 3.7.285 7.794 2.428z"/><path d="M248.845 853.439c0 95.946-20.934 103.337-39.43 103.337-18.495 0-36.468-7.391-36.468-103.337s17.973-244.292 36.468-244.292c18.496 0 39.43 148.346 39.43 244.292z" transform="matrix(.13288 -.03926 .05107 .1039 691.602 264.11)" fill="#fff" stroke="#000" stroke-width="5.352"/><path d="M763.506 341.952c3.78 12.926 4.36 23.855 1.294 24.394-3.065.539-8.621-9.515-12.4-22.442 1.784-3.86.764-4.668 3.83-5.207 3.065-.538 3.61.687 7.276 3.255z"/><path d="M248.845 853.439c0 95.946-20.934 103.337-39.43 103.337-18.495 0-36.468-7.391-36.468-103.337s17.973-244.292 36.468-244.292c18.496 0 39.43 148.346 39.43 244.292z" transform="matrix(.13868 -.02438 .0317 .10844 702.293 258.026)" fill="#fff" stroke="#000" stroke-width="5.352"/><path d="M759.615 342.613c2.22 13.142 1.491 24.066-1.626 24.382-3.116.317-7.447-10.093-9.666-23.236 2.239-3.716 1.32-4.592 4.436-4.909 3.116-.316 3.513.943 6.856 3.763z"/><path d="M248.845 853.439c0 95.946-20.934 103.337-39.43 103.337-18.495 0-36.468-7.391-36.468-103.337s17.973-244.292 36.468-244.292c18.496 0 39.43 148.346 39.43 244.292z" transform="matrix(.141 -.01431 .01862 .11025 708.691 254.652)" fill="#fff" stroke="#000" stroke-width="5.352"/><path d="M725.914 336.725c-10.01 10.746-16.065 20.625-13.517 22.052 2.548 1.426 12.74-6.137 22.749-16.882.308-4.094 1.654-4.527-.894-5.954-2.548-1.427-3.669-.465-8.338.784z"/><path d="M248.845 853.439c0 95.946-20.934 103.337-39.43 103.337-18.495 0-36.468-7.391-36.468-103.337s17.973-244.292 36.468-244.292c18.496 0 39.43 148.346 39.43 244.292z" transform="matrix(-.11528 -.06455 -.08397 .09014 824.64 278.101)" fill="#fff" stroke="#000" stroke-width="5.352"/><g><path d="M729.23 338.888c-7.96 11.73-12.163 22.171-9.382 23.306 2.782 1.135 11.5-7.464 19.461-19.194-.438-4.088.817-4.663-1.965-5.798-2.781-1.134-3.717-.06-8.113 1.686z"/><path d="M248.845 853.439c0 95.946-20.934 103.337-39.43 103.337-18.495 0-36.468-7.391-36.468-103.337s17.973-244.292 36.468-244.292c18.496 0 39.43 148.346 39.43 244.292z" transform="matrix(-.12584 -.05134 -.06678 .0984 816.34 270.08)" fill="#fff" stroke="#000" stroke-width="5.352"/></g><g><path d="M733.277 340.527c-6.088 12.386-8.645 23.143-5.707 24.01 2.937.869 10.261-8.48 16.348-20.866-1.067-4.017.09-4.704-2.847-5.572-2.938-.868-3.7.285-7.794 2.428z"/><path d="M248.845 853.439c0 95.946-20.934 103.337-39.43 103.337-18.495 0-36.468-7.391-36.468-103.337s17.973-244.292 36.468-244.292c18.496 0 39.43 148.346 39.43 244.292z" transform="matrix(-.13288 -.03926 -.05107 .1039 809.106 264.11)" fill="#fff" stroke="#000" stroke-width="5.352"/></g><g><path d="M737.202 341.952c-3.78 12.926-4.36 23.855-1.294 24.394 3.065.539 8.62-9.515 12.4-22.442-1.785-3.86-.765-4.668-3.83-5.207-3.066-.538-3.611.687-7.276 3.255z"/><path d="M248.845 853.439c0 95.946-20.934 103.337-39.43 103.337-18.495 0-36.468-7.391-36.468-103.337s17.973-244.292 36.468-244.292c18.496 0 39.43 148.346 39.43 244.292z" transform="matrix(-.13868 -.02438 -.0317 .10844 798.415 258.026)" fill="#fff" stroke="#000" stroke-width="5.352"/></g><g><path d="M741.093 342.613c-2.22 13.142-1.492 24.066 1.625 24.382 3.117.317 7.447-10.093 9.667-23.236-2.24-3.716-1.32-4.592-4.436-4.909-3.117-.316-3.514.943-6.856 3.763z"/><path d="M248.845 853.439c0 95.946-20.934 103.337-39.43 103.337-18.495 0-36.468-7.391-36.468-103.337s17.973-244.292 36.468-244.292c18.496 0 39.43 148.346 39.43 244.292z" transform="matrix(-.141 -.01431 -.01862 .11025 792.016 254.652)" fill="#fff" stroke="#000" stroke-width="5.352"/></g><g><path d="M757.1 344.067c.185 13.254-2.216 24.032-5.359 24.059-3.143.026-5.843-10.71-6.028-23.964 2.793-3.482 2.015-4.438 5.158-4.464 3.143-.026 3.343 1.26 6.23 4.369z"/><path d="M248.845 853.439c0 95.946-20.934 103.337-39.43 103.337-18.495 0-36.468-7.391-36.468-103.337s17.973-244.292 36.468-244.292c18.496 0 39.43 148.346 39.43 244.292z" transform="matrix(.1422 -.0012 .00155 .11119 720.049 252.03)" fill="#fff" stroke="#000" stroke-width="5.352"/></g></g><path d="M807.863 284.261c.094.1-.045.383-.309.633-.263.249-.553.37-.646.27-.094-.1.045-.383.309-.632.264-.25.553-.37.646-.27z" font-size="12" fill="#fff"/><path d="M807.273 284.555c.048-.02.132.055.186.166.055.111.06.217.011.236-.048.02-.132-.055-.187-.166-.054-.111-.059-.217-.01-.236z" font-size="12"/><path d="M321.944 435.271c-50.347-2.962-36.765-64.734-51.573-64.734s-65.155 56.27-79.963 71.078c-14.808 14.808-17.769 38.5-17.769 38.5s-2.962-38.5-23.693-41.462c-20.731-2.961-44.423 29.616-44.423 29.616s2.961-32.577 20.731-44.423c17.769-11.847 50.346 0 50.346 0s71.078-68.117 85.886-94.771c14.808-26.654-33.445-28.476-45.291-49.207-11.846-20.731 5.923-79.962-11.846-91.808-14.808 29.615-29.616 97.732-47.386 94.77-17.769-2.962-35.538-50.347-35.538-50.347s8.884 56.27-17.77 56.27-32.577-56.27-32.577-56.27-2.962 59.232-29.616 59.232-26.654-71.078-26.654-71.078-20.73 59.231-35.539 68.116c-14.808 8.885-8.884-65.154-8.884-65.154s-20.73 59.231-44.424 56.269c-23.693-2.961-20.73-50.346-20.73-50.346s-17.77 41.462-50.348 32.577c-32.577-8.885-23.692-56.27-23.692-56.27s-11.846 35.539-38.501 14.808c-26.654-20.731 8.885-53.308 8.885-53.308s-23.693 32.577-50.347 17.769 11.847-65.154 11.847-65.154-44.423 14.807-65.154-11.847c-20.731-26.654 29.615-41.462 29.615-41.462s-32.577-5.923-38.5-29.615c-5.923-23.693 41.462-29.616 41.462-29.616s-38.501-8.885-41.462-32.577c-2.962-23.693 44.423-5.924 47.385-5.924 2.961 0-59.232-41.461-59.232-59.23 0-17.77 59.232 8.884 59.232 8.884s-59.232-38.501-59.232-65.155c0-26.654 38.5-5.923 53.308-2.962-11.846-17.769-53.308-35.538-50.346-56.269 2.962-20.731 56.27 2.961 56.27 2.961s-50.347-53.308-41.462-71.078c8.884-17.769 62.193 23.693 62.193 23.693s-62.193-53.308-56.27-68.116c5.923-14.808 65.155 26.654 65.155 26.654s-59.232-56.27-50.347-77.001c8.885-20.731 59.231 26.655 71.077 35.54-11.846-5.923-68.115-79.963-56.269-97.733 11.846-17.769 74.039 56.27 74.039 56.27s-56.27-88.847-47.385-100.693c8.885-11.847 77.001 71.077 77.001 71.077s-53.308-91.808-32.577-106.616c20.73-14.808 56.269 77.001 59.231 77.001 2.961 0-29.616-100.694-5.923-109.579 23.692-8.884 59.231 94.771 62.192 94.771 2.962 0-23.692-136.232 5.923-133.271 29.616 2.962 23.693 65.155 23.693 68.117 0 2.961 2.962-35.539 20.731-35.539-2.962 8.884 53.308 325.772 71.078 399.812 17.77 74.04 38.5 53.308 53.308 77 14.808 23.693 35.538 26.655 59.231 29.616 23.692 2.962 74.474 3.467 88.847-23.692 10.542-25.087-2.962-127.348 81.443-130.309 84.406 2.961 70.902 105.222 81.444 130.309 14.373 27.159 65.155 26.654 88.847 23.692 23.693-2.961 44.423-5.923 59.231-29.615 14.808-23.693 35.539-2.962 53.308-77.001 17.77-74.04 74.04-390.928 71.078-399.812 17.769 0 20.731 38.5 20.731 35.539 0-2.962-5.923-65.155 23.693-68.117 29.615-2.961 2.961 133.271 5.923 133.271 2.961 0 38.5-103.655 62.192-94.771 23.693 8.885-8.884 109.579-5.923 109.579 2.962 0 38.501-91.809 59.231-77.001 20.731 14.808-32.577 106.616-32.577 106.616s68.116-82.924 77.001-71.077c8.885 11.846-47.385 100.693-47.385 100.693s62.193-74.039 74.039-56.27c11.846 17.77-44.423 91.81-56.269 97.733 11.846-8.885 62.192-56.271 71.077-35.54 8.885 20.731-50.347 77.001-50.347 77.001s59.232-41.462 65.155-26.654c5.923 14.808-56.27 68.116-56.27 68.116s53.309-41.462 62.193-23.693c8.885 17.77-41.462 71.078-41.462 71.078s53.308-23.692 56.27-2.961c2.962 20.731-38.5 38.5-50.346 56.269 14.808-2.961 53.308-23.692 53.308 2.962S906.24-81.443 906.24-81.443s59.232-26.654 59.232-8.885c0 17.77-62.193 59.231-59.232 59.231 2.962 0 50.347-17.769 47.385 5.924-2.961 23.692-41.462 32.577-41.462 32.577s47.385 5.923 41.462 29.616c-5.923 23.692-38.5 29.615-38.5 29.615s50.346 14.808 29.615 41.462c-20.731 26.654-65.154 11.847-65.154 11.847s38.501 50.346 11.847 65.154c-26.654 14.808-50.347-17.769-50.347-17.769s35.539 32.577 8.885 53.308c-26.655 20.731-38.501-14.808-38.501-14.808s8.885 47.385-23.692 56.27c-32.578 8.885-50.347-32.577-50.347-32.577s2.962 47.385-20.731 50.346c-23.693 2.962-44.424-56.269-44.424-56.269s5.924 74.039-8.884 65.154c-14.808-8.885-35.539-68.116-35.539-68.116s0 71.078-26.654 71.078-29.616-59.232-29.616-59.232-5.923 56.27-32.577 56.27c-26.654 0-17.77-56.27-17.77-56.27s-17.769 47.385-35.538 50.347c-17.77 2.962-32.578-65.155-47.386-94.77-17.769 11.846 0 71.077-11.846 91.808-11.846 20.731-64.287 22.553-49.479 49.207 14.808 26.654 85.886 94.771 85.886 94.771s32.577-11.847 50.346 0c17.77 11.846 20.731 44.423 20.731 44.423s-23.692-32.577-44.423-29.616c-20.731 2.962-23.693 41.462-23.693 41.462s-2.961-23.692-17.769-38.5c-14.808-14.808-65.155-71.078-79.963-71.078-14.808 0 7.15 61.772-46.158 64.734z" font-size="12" stroke="#000" stroke-width="1pt" transform="matrix(.15676 0 0 .16024 700.303 255.896)"/><path d="M759.728 243.32c.25.073-3.474 7.284-8.756 11.018-5.282 3.733-9.675 2.16-10.718 1.768.084 1.158.343 7.481.575 10.803.96 14.702-3.25 19.625-3.25 19.625s2.786 4.746 2.786 7.118c0 2.373-.126 5.475 2.186 11.183 4.117 7.628 4.642 8.543 4.642 11.39 0 2.847.713 6.96 3.646 6.332 3.262.934 3.646-3.514 3.646-6.361s.526-3.761 4.643-11.39c3.297-5.372 1.529-8.81 1.529-11.182 0-2.373 2.785-7.119 2.785-7.119s-4.208-4.755-3.25-19.457c.465-6.644 4.179-13.762-.464-23.728z" font-size="12" fill="#fff"/><path d="M199.991-198.148s21.989 4.188 35.601 14.659c13.612 10.471 20.941 21.989 14.659 28.271-6.282 6.283-19.894 3.141-30.365-2.094-10.471-5.235-29.318-28.271-28.271-28.271 1.047 0 0 28.271 21.988 39.789 21.989 11.518 24.725 14.133 33.101 13.086 8.377-1.047 30.085-29.776 29.038-42.341-1.047-12.565-12.926-23.099-30.726-29.381-17.801-6.283-45.025 8.376-45.025 6.282z" transform="matrix(.20784 .01698 .0277 .19803 692.492 258.468)" fill="#ffe300" stroke="#000" stroke-width="1pt"/><path d="M753.46 230.507c0 .917-.779 1.66-1.74 1.66-.962 0-1.741-.743-1.741-1.66 0-.918.78-1.661 1.74-1.661.962 0 1.742.743 1.742 1.66z" fill="#fff"/><path d="M528.641-38.502c7.549.151 39.818-13.953 49.606-29.615 16.126-25.8 37.761-75.52 37.761-75.52s-4.443 38.5 4.442 41.462c8.885 2.961 17.77-1.482 32.577-8.886-2.961 9.626-32.827 25.527-30.355 33.319 2.326 5.644 43.683-2.962 54.789-3.702-9.626 6.663-57.891 14.49-59.973 27.394-1.621 10.047 31.097 10.366 41.463 15.548-13.327 1.481-45.067-1.988-54.049 8.885-5.085 6.156 33.317 44.424 27.394 44.424-5.923 0-31.761-36.417-42.942-28.135-8.81 6.525-2.221 30.356-3.702 42.202-6.664-8.144-16.229-38.18-25.174-38.5-11.786-.421-31.096 33.318-39.981 39.981 5.183-10.365 16.711-45.447 12.587-50.347-5.88-8.04-46.645-1.48-59.973 8.885 10.367-17.029 46.707-27.556 55.53-27.395z" transform="matrix(.15317 -.01095 .00883 .12907 703.851 259.088)" fill="#fff" stroke="#000" stroke-width="1pt"/><path d="M528.641-38.502c7.549.151 39.818-13.953 49.606-29.615 16.126-25.8 37.761-75.52 37.761-75.52s-4.443 38.5 4.442 41.462c8.885 2.961 17.77-1.482 32.577-8.886-2.961 9.626-32.827 25.527-30.355 33.319 2.326 5.644 43.683-2.962 54.789-3.702-9.626 6.663-57.891 14.49-59.973 27.394-1.621 10.047 31.097 10.366 41.463 15.548-13.327 1.481-45.067-1.988-54.049 8.885-5.085 6.156 33.317 44.424 27.394 44.424-5.923 0-31.761-36.417-42.942-28.135-8.81 6.525-2.221 30.356-3.702 42.202-6.664-8.144-16.229-38.18-25.174-38.5-11.786-.421-31.096 33.318-39.981 39.981 5.183-10.365 16.711-45.447 12.587-50.347-5.88-8.04-46.645-1.48-59.973 8.885 10.367-17.029 46.707-27.556 55.53-27.395z" transform="matrix(-.15317 -.01095 -.00883 .12907 798.515 259.759)" fill="#fff" stroke="#000" stroke-width="1pt"/><path d="M546.541-30.339c7.606-1.682 38.078-6.692 47.866-22.354 16.126-25.8 8.658-64.009 14.717-88.507 6.868 22.339 2.441 36.063 11.326 39.025 8.885 2.961 11.842-5.425 26.649-12.829-2.961 9.626-26.899 29.47-24.427 37.262 2.326 5.644 43.683-2.962 54.789-3.702-9.626 6.663-57.891 14.49-59.973 27.394-1.621 10.047 31.097 10.366 41.463 15.548-13.327 1.481-45.067-1.988-54.049 8.885-5.085 6.156 33.317 44.424 27.394 44.424-5.923 0-31.761-36.417-42.942-28.135-8.81 6.526-2.221 30.356-3.702 42.202-6.664-8.144-16.229-38.18-25.174-38.5-11.786-.421-31.096 33.318-39.981 39.981 5.183-10.365 16.711-45.447 12.587-50.347-5.88-8.04-18.554-4.78-32.821-12.81 23.563-3.576 37.863 5.684 46.278 2.463z" transform="matrix(.08184 .1151 .07277 -.08796 765.813 146.007)" fill="#fff" stroke="#000" stroke-width="1pt"/><path d="M546.541-30.339c7.606-1.682 38.078-6.692 47.866-22.354 16.126-25.8 8.658-64.009 14.717-88.507 6.868 22.339 2.441 36.063 11.326 39.025 8.885 2.961 11.842-5.425 26.649-12.829-2.961 9.626-26.899 29.47-24.427 37.262 2.326 5.644 43.683-2.962 54.789-3.702-9.626 6.663-57.891 14.49-59.973 27.394-1.621 10.047 31.097 10.366 41.463 15.548-13.327 1.481-45.067-1.988-54.049 8.885-5.085 6.156 33.317 44.424 27.394 44.424-5.923 0-31.761-36.417-42.942-28.135-8.81 6.526-2.221 30.356-3.702 42.202-6.664-8.144-16.229-38.18-25.174-38.5-11.786-.421-31.096 33.318-39.981 39.981 5.183-10.365 16.711-45.447 12.587-50.347-5.88-8.04-18.554-4.78-32.821-12.81 23.563-3.576 37.863 5.684 46.278 2.463z" transform="matrix(-.08184 .1151 -.07277 -.08796 738.387 149.362)" fill="#fff" stroke="#000" stroke-width="1pt"/></g></svg>