<svg xmlns="http://www.w3.org/2000/svg" xmlns:xlink="http://www.w3.org/1999/xlink" version="1" width="1500" height="750"><path fill="#00247d" d="M0 0h1500v750H0z"/><g transform="scale(.5)"><path fill="#00247d" d="M0 0h1500v750H0z"/><g id="b"><path id="a" fill="#fff" d="M0 0h167.705L625 228.647V0h50l75 325L0 300v-50h332.295L0 83.853V0z"/><use transform="matrix(-1 0 0 1 1500 0)" width="1500" height="750" xlink:href="#a"/><path d="M0 0l500 250H388.197L0 55.902V0zm1500 0l-500 250H888.197l500-250H1500z" fill="#e60d2e"/></g><use transform="rotate(180 750 375)" width="1500" height="750" xlink:href="#b"/><path d="M675 0h150v300h675v150H825v300H675V450H0V300h675V0z" fill="#e60d2e"/></g><path font-size="12" fill="#fff" fill-rule="evenodd" d="M1123.157 267.42l7.104 22.088 21.698-8.217-12.84 19.325 19.954 11.841-23.115 2.01 3.183 22.983-15.984-16.817-15.983 16.817 3.183-22.982-23.115-2.01 19.953-11.842-12.84-19.325 21.699 8.217 7.103-22.087zM994.222 407.101l7.104 22.088 21.698-8.218-12.84 19.326 19.954 11.84-23.115 2.011 3.183 22.983-15.984-16.818-15.983 16.818 3.183-22.983-23.115-2.01 19.953-11.84-12.84-19.327 21.699 8.218 7.103-22.088zM1174.731 476.174l5.614 13.763 14.823 1.086-11.354 9.592 3.549 14.433-12.632-7.834-12.631 7.834 3.548-14.433-11.354-9.592 14.823-1.086 5.614-13.763z"/><g stroke="#000" stroke-width=".272"><path d="M137.662 97.434c-4.477.134-9.714.887-15.219 2-8.183.156-17.355 1.658-28.062 7.593-.05.028-.107.035-.156.063a423.126 423.126 0 0 0-14.219 4.844c-.01-.003-.022.002-.031 0-13.061-4.171-50.394-12.124-53.782 31.968-.02.271.088.719.313 1.282.003.008-.003.023 0 .03-1.245 6.93 1.375 19.095 1.375 19.095 1.551 1.112 2.67 3.555 2.969 4.343.003.013-.002.048 0 .063.023.88-3.153 4.384-2.594 5.844.003.006.028.024.031.03.012.026.017.071.031.095l.032.03c.008.012.022.052.031.063.004.006.027.026.031.032l.031.03.032.032c.016.014.044.018.062.031 1.123.851 2.105 4.461 2.875 7.625.005.02-.005.043 0 .063-.002.012.003.019 0 .031-.24 1.211-.155 2.27.531 3 .104.11.185.218.282.344.876 3.902 9.69 41.229 9.187 43.219-.496 1.995 2.991 4.502 6.156 5.5.37.116 1.256.237 2.625.343.045.016.081.016.125.032 18.697 6.602 34.76 2.231 69.438.718a3262.92 3262.92 0 0 0 28.969-.375c.122-.002.253.002.375 0 .218-.003.44.004.656 0 10.224.179 19.915.298 28.969.375 34.678 1.513 50.741 5.884 69.437-.718.042-.004.084-.029.125-.032 1.37-.106 2.255-.227 2.625-.343 3.166-.998 6.652-3.505 6.156-5.5-.502-1.99.657-9.797.657-12.625 0-2.83 1.993-6.14 3.156-7.47.342-.392.751-1.233 1.125-2.28 1.632.602 3.733 1.727 4.406 1.78h.094c.004 0 .027.002.031 0 .004 0 .028.002.031 0 .007-.003.027-.026.032-.03.002-.003-.002-.029 0-.032.002-.006.03-.023.031-.031v-.031c-.002-.014-.027-.047-.031-.063-.004-.011.005-.05 0-.062-.003-.007-.028-.025-.032-.031-.169-.345-.745-1.019-1.906-2.157a1.674 1.674 0 0 1-.031-.031c-1.407-1.648.749-16.254 1.625-20.156.096-.126.177-.233.281-.344.687-.73.772-1.789.531-3 .003-.01-.002-.021 0-.031-.005-.025.006-.038 0-.063.771-3.164 1.753-6.774 2.875-7.625.018-.013.047-.017.063-.031l.031-.031.031-.031.032-.032c.008-.01.023-.051.031-.062.004-.006.028-.026.031-.031.021-.036.047-.087.063-.125.559-1.46-2.617-4.964-2.594-5.844.002-.022.024-.044.031-.063.299-.788 1.387-3.231 2.938-4.343 0 0 2.62-12.165 1.375-19.094-.002-.01.001-.022 0-.031.225-.563.333-1.01.312-1.282-3.387-44.092-40.72-36.14-53.781-31.968-.009-.004-.022.003-.031 0a423.118 423.118 0 0 0-14.219-4.844c-.045-.025-.08-.038-.125-.063-10.708-5.939-19.879-7.435-28.063-7.593-9.907-2.003-18.964-2.838-24.25-1-.854.296-1.729.546-2.593.75a26.254 26.254 0 0 1-2.563-.75c-2.349-.817-5.418-1.108-9-1z" font-size="12" fill="#cf142b" transform="matrix(.43108 0 0 .43108 1060.334 114.282)"/><g fill-rule="evenodd"><path d="M82.306 132.969c-2.661.949-5.337 23.811-3.04 31.188 1.591 5.107 3.508 8.557 4.614 10.681-2.292-3.532-7.477-10.299-13.342-9.773-7.372.662-5.416 24.38-5.048 25.884.002.006.002.02.003.025.002.004.019.02.02.023l.017-.001c.261-.594 2.042-10.63 9.335-11.285 4.8-.43 9.224 4.786 10.89 7.026.09.746.192 1.466.286 2.194-.806 2.329-.845 7.68-3.364 14.638-3.044 8.407-15.296 10.34-17.362 10.608l26.727-2.398c.026-.003.06-.003.084-.008.012 0 .022-.003.034-.003.025 0 26.287-2.359 26.811-2.406-2.086.105-5.891-5.073-17.911-8.219-6.617-5.602-7.154-10.661-8.51-12.796-.085-.73-.161-1.452-.253-2.197 1.082-2.487 4.14-8.375 8.94-8.805 7.293-.655 11.479 8.846 11.879 9.38 0 .001.016-.002.017-.001 0-.003.013-.022.013-.026l-.003-.025c-.005-1.537-3.868-25.084-11.24-24.422-5.865.526-9.29 8.065-10.67 11.928.564-2.274 1.481-6.975 1.734-11.251.458-7.745-7.778-30.212-10.526-29.971-.043.003-.093-.003-.135.012zm1.66 42.011c.238.37.446.688.613.967.004.006.582 2.323.585 2.329.005.05 2.407 7.91 2.412 7.96-.18-.295-3.368-10.799-3.61-11.256zm7.217-.647c-.126.49-.804 11.34-.909 11.662-.007-.05.555-10.533.547-10.583l.051 2.352c.096-.303.168-3.027.311-3.431zM217.074 134.312c-2.801.375-10.172 22.182-9.458 29.875.494 5.326 1.652 9.1 2.292 11.407-1.507-3.932-5.173-11.629-11.018-12.333-7.349-.886-10.367 22.72-10.32 24.269l-.002.024c0 .004.014.024.015.027.001 0 .016.003.017.002.379-.526 4.207-9.973 11.477-9.097 4.785.577 8.028 6.599 9.19 9.137-.065.748-.116 1.473-.175 2.205-1.273 2.11-6.258 10.35-13.73 13.344-8.3 3.327-9.716 7.209-11.792 7.041l26.641 3.211c.026.003.059.01.084.01.012.003.022.002.034.004.025.006.058.007.084.01l26.641 3.211c-2.062-.331-8.095-3.366-14.296-10.136-5.485-5.988-6.295-13.543-7.178-15.913.068-.731.144-1.453.209-2.201 1.576-2.208 5.79-7.331 10.576-6.755 7.27.876 9.388 11.04 9.668 11.646.001.001.016 0 .017.002.001-.003.018-.02.02-.023l.001-.025c.314-1.504 1.432-25.34-5.917-26.225-5.846-.705-10.763 5.958-12.917 9.448 1.025-2.106 2.9-6.514 4.036-10.644 2.058-7.48-1.327-31.169-4.065-31.505-.043-.005-.09-.022-.134-.016zm-7.111 41.439c.155.41.293.765.398 1.073.003.007.086 2.393.089 2.4-.006.05.71 8.238.704 8.288-.115-.327-1.05-11.264-1.191-11.761zm7.194.867c-.225.453-3.145 10.925-3.314 11.218.003-.05 2.732-10.187 2.735-10.237l-.439 2.31c.157-.276.794-2.926 1.018-3.291z" fill="#fcc917" transform="matrix(.43108 0 0 .43108 1060.334 114.282)"/><g fill="#fcc917" stroke-width=".25"><path d="M24.308 134.56l9.69-11.814s.903 1.168 0 0C14.132 97.065 13.128 82.331 15.363 74.87c2.236-7.461 6.709-15.544 18.635-25.493 11.926-9.948 20.156-4.419 31.336-4.419 11.181 0 14.163 2.487 23.852 3.73 9.69 1.244 35.778 2.488 35.778 2.488v-6.84s1.029.192 0 0c-11.518-2.147-26.088 0-35.778-2.487-9.69-2.487-17.889-3.108-28.324-3.108-10.435 0-17.92-3.043-24.628 1.31-6.709 4.352-14.908 11.813-20.87 18.031C9.4 64.3 6.418 76.735 7.163 84.818c.746 8.083 3.727 14.923 8.2 21.14 4.472 6.218 3.726 11.192 5.217 15.544 1.49 4.353 3.727 13.68 3.727 13.058zM239.255 134.56l-9.69-11.814s-.904 1.168 0 0c19.865-25.681 20.87-40.415 18.634-47.876-2.236-7.461-6.708-15.544-18.634-25.493-11.926-9.948-20.156-4.419-31.337-4.419-11.18 0-14.162 2.487-23.852 3.73-9.69 1.244-35.778 2.488-35.778 2.488v-6.84s-1.029.192 0 0c11.519-2.147 26.088 0 35.778-2.487 9.69-2.487 17.89-3.108 28.324-3.108 10.436 0 17.92-3.043 24.629 1.31 6.708 4.352 14.907 11.813 20.87 18.031 5.963 6.218 8.945 18.653 8.2 26.736-.746 8.083-3.728 14.923-8.2 21.14-4.472 6.218-3.727 11.192-5.217 15.544-1.491 4.353-3.727 13.68-3.727 13.058z" transform="matrix(.46806 0 0 .46806 1063.315 125.538)"/><path d="M115.553 38.701h34.563v70.894h-34.563z" transform="matrix(.46806 0 0 .46806 1063.315 125.538)"/><g><path d="M119.684-15.8s3.72 3.03 6.575 6.923c2.856 3.893 4.846 8.652 4.846 8.652s-4.759-1.99-8.652-4.846c-3.894-2.855-6.922-6.575-6.922-6.575v26.302s3.028-3.72 6.922-6.575c3.893-2.856 8.652-4.846 8.652-4.846s-1.534 3.927-2.524 8.653c-.891 4.25-8.183 14.064-8.183 14.064l21.303 1.429s-3.542-11.243-4.969-15.493c-1.536-4.578-2.167-8.653-2.167-8.653s4.76 1.99 8.653 4.846c3.893 2.855 6.921 6.575 6.921 6.575v-26.302s-3.028 3.72-6.921 6.575c-3.894 2.856-8.653 4.846-8.653 4.846s1.99-4.759 4.846-8.652c2.855-3.894 6.575-6.922 6.575-6.922h-26.302z" transform="matrix(.46806 0 0 .46806 1063.315 121.794)"/><path d="M150 23.076c.005 9.471-7.672 17.152-17.143 17.152-9.47 0-17.147-7.68-17.143-17.152-.004-9.47 7.672-17.15 17.143-17.15s17.148 7.68 17.143 17.15z" transform="matrix(.46806 0 0 .46806 1063.304 125.538)"/><path d="M116.074 33.535h34.102s.494-6.596-1.974-9.064h-10.595l-.178-9.888h-10.042l-.179 9.888s-7.127.357-10.41.357c-1.49 4.041-1.26 4.38-1.26 4.38l.536 4.327z" transform="matrix(.46806 0 0 .46806 1063.315 121.794)"/></g><g><path d="M110.877 107.22s6.212 5.057 10.979 11.558c4.767 6.5 8.09 14.446 8.09 14.446s-7.946-3.323-14.446-8.09c-6.501-4.767-11.557-10.979-11.557-10.979v43.916s5.056-6.211 11.557-10.979c6.5-4.767 14.446-8.09 14.446-8.09s-3.323 7.946-8.09 14.447c-4.767 6.5-10.98 11.557-10.98 11.557h43.917s-6.212-5.057-10.979-11.557c-4.767-6.501-8.09-14.447-8.09-14.447s7.946 3.323 14.446 8.09c6.501 4.768 11.557 10.98 11.557 10.98v-43.917s-5.056 6.212-11.557 10.98c-6.5 4.766-14.446 8.089-14.446 8.089s3.323-7.945 8.09-14.446c4.767-6.501 10.98-11.557 10.98-11.557h-43.917zM27.24 181.78l21.625-3.813s-6.995-3.9-12.82-9.475c-5.823-5.574-10.475-12.822-10.475-12.822s8.402 1.892 15.632 5.458c7.23 3.566 13.288 8.806 13.288 8.806l-7.626-43.25s-3.9 6.996-9.475 12.82c-5.574 5.824-12.822 10.475-12.822 10.475s1.892-8.401 5.458-15.631c3.566-7.23 8.806-13.288 8.806-13.288l-21.625 3.813L27.24 181.78zM226.84 121.06s5.239 6.058 8.805 13.288 5.458 15.631 5.458 15.631-7.248-4.651-12.822-10.475c-5.574-5.824-9.475-12.82-9.475-12.82l-7.626 43.25s6.058-5.24 13.288-8.806c7.23-3.566 15.632-5.458 15.632-5.458s-4.652 7.248-10.476 12.822c-5.823 5.574-12.819 9.475-12.819 9.475l21.625 3.813 10.034-56.907-21.625-3.813z" transform="matrix(.46806 0 0 .46806 1063.315 125.538)"/></g></g><path d="M36.734 221.045l.163 34.209s57.164-19.466 114.329-19.466c57.164 0 114.328 19.466 114.328 19.466v-34.21s-57.205-19.465-114.41-19.465-114.41 19.466-114.41 19.466z" fill="#fcc917" transform="matrix(.43108 0 0 .43108 1060.334 114.282)"/><g stroke-width=".379" fill="#fff"><path d="M2.02 723.052c.002 6.696-5.426 12.124-12.122 12.124-6.695 0-12.123-5.428-12.121-12.124-.002-6.695 5.426-12.124 12.121-12.124 6.696 0 12.124 5.429 12.122 12.124z" transform="matrix(.3095 0 0 .3095 1073.26 -43.114)"/><path d="M2.02 723.052c.002 6.696-5.426 12.124-12.122 12.124-6.695 0-12.123-5.428-12.121-12.124-.002-6.695 5.426-12.124 12.121-12.124 6.696 0 12.124 5.429 12.122 12.124z" transform="matrix(.3095 0 0 .3095 1068.447 -51.67)"/><path d="M2.02 723.052c.002 6.696-5.426 12.124-12.122 12.124-6.695 0-12.123-5.428-12.121-12.124-.002-6.695 5.426-12.124 12.121-12.124 6.696 0 12.124 5.429 12.122 12.124z" transform="matrix(.3095 0 0 .3095 1067.444 -61.7)"/><path d="M2.02 723.052c.002 6.696-5.426 12.124-12.122 12.124-6.695 0-12.123-5.428-12.121-12.124-.002-6.695 5.426-12.124 12.121-12.124 6.696 0 12.124 5.429 12.122 12.124z" transform="matrix(.3095 0 0 .3095 1070.453 -71.062)"/><path d="M2.02 723.052c.002 6.696-5.426 12.124-12.122 12.124-6.695 0-12.123-5.428-12.121-12.124-.002-6.695 5.426-12.124 12.121-12.124 6.696 0 12.124 5.429 12.122 12.124z" transform="matrix(.3095 0 0 .3095 1076.805 -78.752)"/><path d="M2.02 723.052c.002 6.696-5.426 12.124-12.122 12.124-6.695 0-12.123-5.428-12.121-12.124-.002-6.695 5.426-12.124 12.121-12.124 6.696 0 12.124 5.429 12.122 12.124z" transform="matrix(.3095 0 0 .3095 1085.498 -84.1)"/><path d="M2.02 723.052c.002 6.696-5.426 12.124-12.122 12.124-6.695 0-12.123-5.428-12.121-12.124-.002-6.695 5.426-12.124 12.121-12.124 6.696 0 12.124 5.429 12.122 12.124z" transform="matrix(.3095 0 0 .3095 1095.193 -83.432)"/><path d="M2.02 723.052c.002 6.696-5.426 12.124-12.122 12.124-6.695 0-12.123-5.428-12.121-12.124-.002-6.695 5.426-12.124 12.121-12.124 6.696 0 12.124 5.429 12.122 12.124z" transform="matrix(.3095 0 0 .3095 1104.889 -81.827)"/><path d="M2.02 723.052c.002 6.696-5.426 12.124-12.122 12.124-6.695 0-12.123-5.428-12.121-12.124-.002-6.695 5.426-12.124 12.121-12.124 6.696 0 12.124 5.429 12.122 12.124z" transform="matrix(.3095 0 0 .3095 1114.584 -80.824)"/><path d="M2.02 723.052c.002 6.696-5.426 12.124-12.122 12.124-6.695 0-12.123-5.428-12.121-12.124-.002-6.695 5.426-12.124 12.121-12.124 6.696 0 12.124 5.429 12.122 12.124z" transform="matrix(-.3095 0 0 .3095 1176.733 -43.114)"/><path d="M2.02 723.052c.002 6.696-5.426 12.124-12.122 12.124-6.695 0-12.123-5.428-12.121-12.124-.002-6.695 5.426-12.124 12.121-12.124 6.696 0 12.124 5.429 12.122 12.124z" transform="matrix(-.3095 0 0 .3095 1181.545 -51.67)"/><path d="M2.02 723.052c.002 6.696-5.426 12.124-12.122 12.124-6.695 0-12.123-5.428-12.121-12.124-.002-6.695 5.426-12.124 12.121-12.124 6.696 0 12.124 5.429 12.122 12.124z" transform="matrix(-.3095 0 0 .3095 1182.548 -61.7)"/><path d="M2.02 723.052c.002 6.696-5.426 12.124-12.122 12.124-6.695 0-12.123-5.428-12.121-12.124-.002-6.695 5.426-12.124 12.121-12.124 6.696 0 12.124 5.429 12.122 12.124z" transform="matrix(-.3095 0 0 .3095 1179.54 -71.062)"/><path d="M2.02 723.052c.002 6.696-5.426 12.124-12.122 12.124-6.695 0-12.123-5.428-12.121-12.124-.002-6.695 5.426-12.124 12.121-12.124 6.696 0 12.124 5.429 12.122 12.124z" transform="matrix(-.3095 0 0 .3095 1173.187 -78.752)"/><path d="M2.02 723.052c.002 6.696-5.426 12.124-12.122 12.124-6.695 0-12.123-5.428-12.121-12.124-.002-6.695 5.426-12.124 12.121-12.124 6.696 0 12.124 5.429 12.122 12.124z" transform="matrix(-.3095 0 0 .3095 1164.495 -84.1)"/><path d="M2.02 723.052c.002 6.696-5.426 12.124-12.122 12.124-6.695 0-12.123-5.428-12.121-12.124-.002-6.695 5.426-12.124 12.121-12.124 6.696 0 12.124 5.429 12.122 12.124z" transform="matrix(-.3095 0 0 .3095 1154.8 -83.432)"/><path d="M2.02 723.052c.002 6.696-5.426 12.124-12.122 12.124-6.695 0-12.123-5.428-12.121-12.124-.002-6.695 5.426-12.124 12.121-12.124 6.696 0 12.124 5.429 12.122 12.124z" transform="matrix(-.3095 0 0 .3095 1145.104 -81.827)"/><path d="M2.02 723.052c.002 6.696-5.426 12.124-12.122 12.124-6.695 0-12.123-5.428-12.121-12.124-.002-6.695 5.426-12.124 12.121-12.124 6.696 0 12.124 5.429 12.122 12.124z" transform="matrix(-.3095 0 0 .3095 1135.408 -80.824)"/><path d="M2.02 723.052c.002 6.696-5.426 12.124-12.122 12.124-6.695 0-12.123-5.428-12.121-12.124-.002-6.695 5.426-12.124 12.121-12.124 6.696 0 12.124 5.429 12.122 12.124z" transform="matrix(.3095 0 0 .3095 1128.616 -51.54)"/><path d="M2.02 723.052c.002 6.696-5.426 12.124-12.122 12.124-6.695 0-12.123-5.428-12.121-12.124-.002-6.695 5.426-12.124 12.121-12.124 6.696 0 12.124 5.429 12.122 12.124z" transform="matrix(.3095 0 0 .3095 1128.616 -58.224)"/><path d="M2.02 723.052c.002 6.696-5.426 12.124-12.122 12.124-6.695 0-12.123-5.428-12.121-12.124-.002-6.695 5.426-12.124 12.121-12.124 6.696 0 12.124 5.429 12.122 12.124z" transform="matrix(.3095 0 0 .3095 1128.616 -63.573)"/><path d="M2.02 723.052c.002 6.696-5.426 12.124-12.122 12.124-6.695 0-12.123-5.428-12.121-12.124-.002-6.695 5.426-12.124 12.121-12.124 6.696 0 12.124 5.429 12.122 12.124z" transform="matrix(.3095 0 0 .3095 1128.616 -68.454)"/><path d="M2.02 723.052c.002 6.696-5.426 12.124-12.122 12.124-6.695 0-12.123-5.428-12.121-12.124-.002-6.695 5.426-12.124 12.121-12.124 6.696 0 12.124 5.429 12.122 12.124z" transform="matrix(.3095 0 0 .3095 1128.616 -84.1)"/><path d="M2.02 723.052c.002 6.696-5.426 12.124-12.122 12.124-6.695 0-12.123-5.428-12.121-12.124-.002-6.695 5.426-12.124 12.121-12.124 6.696 0 12.124 5.429 12.122 12.124z" transform="matrix(.3095 0 0 .3095 1128.616 -83.432)"/><path d="M2.02 723.052c.002 6.696-5.426 12.124-12.122 12.124-6.695 0-12.123-5.428-12.121-12.124-.002-6.695 5.426-12.124 12.121-12.124 6.696 0 12.124 5.429 12.122 12.124z" transform="matrix(.3095 0 0 .3095 1128.616 -79.955)"/><path d="M2.02 723.052c.002 6.696-5.426 12.124-12.122 12.124-6.695 0-12.123-5.428-12.121-12.124-.002-6.695 5.426-12.124 12.121-12.124 6.696 0 12.124 5.429 12.122 12.124z" transform="matrix(.3095 0 0 .3095 1128.616 -75.208)"/></g><path fill="#00247d" d="M134.791 210.096h34.762v15.153h-34.762z" transform="matrix(.43108 0 0 .43108 1060.334 114.282)"/><path d="M16.043 233.11c0 4.726-10.295 8.557-22.995 8.557-12.7 0-22.995-3.83-22.995-8.556 0-4.726 10.296-8.556 22.995-8.556 12.7 0 22.995 3.83 22.995 8.556z" transform="matrix(-.29234 -.02967 .01027 .41285 1144.6 113.924)" fill="#337321" stroke-width=".338"/><path d="M36.937 229.285l-8.71 8.71 10.102 5.831 23.493-6.294-4.187-13.304-20.698 5.057zM267.406 229.285l8.71 8.71-10.102 5.831-23.493-6.294 4.187-13.304 20.698 5.057z" fill="#cf142b" transform="matrix(.43108 0 0 .43108 1060.334 114.282)"/><path d="M16.043 233.11c0 4.726-10.295 8.557-22.995 8.557-12.7 0-22.995-3.83-22.995-8.556 0-4.726 10.296-8.556 22.995-8.556 12.7 0 22.995 3.83 22.995 8.556z" transform="matrix(.29234 -.02967 -.01027 .41285 1107.264 113.924)" fill="#337321" stroke-width=".338"/><path d="M126.203 214.704a4.278 4.278 0 1 1-8.556 0 4.278 4.278 0 0 1 8.556 0z" transform="matrix(.43108 0 0 .43108 1060.795 112.783)" fill="#fff"/><path d="M126.203 214.704a4.278 4.278 0 1 1-8.556 0 4.278 4.278 0 0 1 8.556 0z" transform="matrix(.43108 0 0 .43108 1061.371 118.662)" fill="#fff"/><path d="M126.203 214.704a4.278 4.278 0 1 1-8.556 0 4.278 4.278 0 0 1 8.556 0z" transform="matrix(.43108 0 0 .43108 1037.743 116.933)" fill="#fff"/><path d="M126.203 214.704a4.278 4.278 0 1 1-8.556 0 4.278 4.278 0 0 1 8.556 0z" transform="matrix(.43108 0 0 .43108 1040.048 122.465)" fill="#fff"/><path d="M126.203 214.704a4.278 4.278 0 1 1-8.556 0 4.278 4.278 0 0 1 8.556 0z" transform="matrix(-.43108 0 0 .43108 1190.984 112.783)" fill="#fff"/><path d="M126.203 214.704a4.278 4.278 0 1 1-8.556 0 4.278 4.278 0 0 1 8.556 0z" transform="matrix(-.43108 0 0 .43108 1190.408 118.662)" fill="#fff"/><path d="M126.203 214.704a4.278 4.278 0 1 1-8.556 0 4.278 4.278 0 0 1 8.556 0z" transform="matrix(-.43108 0 0 .43108 1214.037 116.933)" fill="#fff"/><path d="M126.203 214.704a4.278 4.278 0 1 1-8.556 0 4.278 4.278 0 0 1 8.556 0z" transform="matrix(-.43108 0 0 .43108 1211.731 122.465)" fill="#fff"/><g><path d="M262.58 201.657l2.719 1.3c-1.016 1.347-7.189 16.414-29.376 11.746-22.408-4.714-24.012-26.28-24.012-26.28l4.16 1.512s2.43 16.646 20.04 21.365c17.433 4.67 26.47-9.643 26.47-9.643z" fill="#fcc917" transform="matrix(.43108 0 0 .43108 1060.334 114.282)"/><path d="M212.29 188.612l-4.16.567s-4.29 15.673-26.753 12.478c-22.093-3.142-22.995-19.663-23.728-22.499-4.325 2.08-3.403 2.836-3.403 2.836s2.552 20.046 26.28 22.877c23.54 2.832 31.574-10.02 31.763-16.26z" fill="#fcc917" transform="matrix(.43108 0 0 .43108 1060.334 114.282)"/><path d="M216.852 186.572s-1.978-1.66-4.136-1.854c-2.159-.194-4.498 1.08-4.498 1.08l-.481 3.908s2.339-1.273 4.497-1.08c2.159.194 4.137 1.855 4.137 1.855l.48-3.909z" fill="#fcc917" transform="matrix(.43108 0 0 .43108 1060.334 114.282)"/><path d="M143.571 136.29c.004 5.723-4.634 10.364-10.357 10.364-5.722 0-10.36-4.64-10.357-10.363-.003-5.723 4.635-10.364 10.357-10.364 5.723 0 10.361 4.641 10.357 10.364z" transform="matrix(-.46806 0 0 .46806 1238.221 133.395)" fill="#fff" stroke-width=".25"/><path d="M38.948 201.657l-2.718 1.3c1.016 1.347 7.188 16.414 29.376 11.746 22.407-4.714 24.011-26.28 24.011-26.28l-4.16 1.512s-2.43 16.646-20.04 21.365c-17.432 4.67-26.47-9.643-26.47-9.643z" fill="#fcc917" transform="matrix(.43108 0 0 .43108 1060.334 114.282)"/><path d="M89.24 188.612l4.159.567s4.289 15.673 26.752 12.478c22.093-3.142 22.996-19.663 23.728-22.499 4.325 2.08 3.403 2.836 3.403 2.836s-2.552 20.046-26.28 22.877c-23.539 2.832-31.574-10.02-31.763-16.26z" fill="#fcc917" transform="matrix(.43108 0 0 .43108 1060.334 114.282)"/><path d="M84.677 186.572s1.978-1.66 4.136-1.854c2.158-.194 4.497 1.08 4.497 1.08l.481 3.908s-2.338-1.273-4.497-1.08c-2.158.194-4.136 1.855-4.136 1.855l-.481-3.909z" fill="#fcc917" transform="matrix(.43108 0 0 .43108 1060.334 114.282)"/><path d="M143.571 136.29c.004 5.723-4.634 10.364-10.357 10.364-5.722 0-10.36-4.64-10.357-10.363-.003-5.723 4.635-10.364 10.357-10.364 5.723 0 10.361 4.641 10.357 10.364z" transform="matrix(.46806 0 0 .46806 1012.43 133.395)" fill="#fff" stroke-width=".25"/></g><path d="M143.571 136.29c.004 5.723-4.634 10.364-10.357 10.364-5.722 0-10.36-4.64-10.357-10.363-.003-5.723 4.635-10.364 10.357-10.364 5.723 0 10.361 4.641 10.357 10.364z" transform="matrix(.46806 0 0 .46806 1063.1 124.602)" fill="#fff" stroke-width=".25"/></g><path d="M52.504 257.674l98.536-17.68 102.642 17.68-47.626 19.801-87.861 1.415-65.691-21.216z" fill="#96877d" fill-rule="evenodd" transform="matrix(.43108 0 0 .43108 1060.334 114.282)"/><path d="M238.538 280.603c3.267-.567 22.977-5.253 27.127-7.76-2.678-4.829-7.484-8.606-3.744-7.018 2.014.855 3.607-5.799-2.24-10.885-16.972 5.567-57.679 15.739-108.828 15.739-52.344 0-93.562-10.707-110.535-16.274-5.846 5.086-4.025 10.865-4.378 13.024-.003.017.003 2.724 1.07 4.88 5.753 6.25 24.393 9.33 27.66 9.898 15.353 2.667 30.706 6.698 86.15 6.698 51.288 0 72.365-5.636 87.718-8.302z" font-size="12" fill="#fff" transform="matrix(.43108 0 0 .43108 1060.334 114.282)"/><g stroke-width=".25"><path d="M132.906 289.655c-3.01.523-22.147 7.3-25.969 9.61.004.014-.002.045 0 .06.326 1.99-3.321 11.252 2.063 15.936 15.632-5.127 59.525-20.406 106.634-20.406 48.209 0 88.14 15.279 103.772 20.406 5.384-4.684 1.737-13.947 2.063-15.935.003-.016-.004-.047 0-.061-3.822-2.31-22.96-9.087-25.969-9.61-14.14-2.455-28.772-11.586-79.835-11.586-47.237 0-68.62 9.13-82.759 11.586z" font-size="12" fill="#fff" transform="matrix(.46806 0 0 .46806 1025.27 84.489)"/><g stroke-width=".188" fill-rule="evenodd"><path d="M115.508 301.56a1.872 1.872 0 1 1-3.743 0 1.872 1.872 0 0 1 3.743 0z" transform="matrix(.32373 -.0335 .03658 .29646 1032.617 139.91)" stroke-width=".376"/><path d="M115.508 301.56a1.872 1.872 0 1 1-3.743 0 1.872 1.872 0 0 1 3.743 0z" transform="matrix(.32373 -.0335 .03658 .29646 1031.927 141.428)" stroke-width=".376"/><path d="M115.508 301.56a1.872 1.872 0 1 1-3.743 0 1.872 1.872 0 0 1 3.743 0z" transform="matrix(.32373 -.0335 .03658 .29646 1033.257 142.254)" stroke-width=".376"/><path d="M113.518 303.669l8.526-3.166-4.185 2.392 2.686-.083-2.492 1.168 4.001.275-8.536-.586z" transform="matrix(.64798 -.06705 .07321 .5934 984.723 54.18)"/></g><g stroke-width=".188" fill-rule="evenodd"><path d="M115.508 301.56a1.872 1.872 0 1 1-3.743 0 1.872 1.872 0 0 1 3.743 0z" transform="matrix(.32373 -.0335 .03658 .29646 1052.086 134.339)" stroke-width=".376"/><path d="M115.508 301.56a1.872 1.872 0 1 1-3.743 0 1.872 1.872 0 0 1 3.743 0z" transform="matrix(.32373 -.0335 .03658 .29646 1051.396 135.856)" stroke-width=".376"/><path d="M115.508 301.56a1.872 1.872 0 1 1-3.743 0 1.872 1.872 0 0 1 3.743 0z" transform="matrix(.32373 -.0335 .03658 .29646 1052.726 136.683)" stroke-width=".376"/><path d="M113.518 303.669l8.526-3.166-4.185 2.392 2.686-.083-2.492 1.168 4.001.275-8.536-.586z" transform="matrix(.64798 -.06705 .07321 .5934 1004.192 48.608)"/></g><g stroke-width=".188" fill-rule="evenodd"><path d="M115.508 301.56a1.872 1.872 0 1 1-3.743 0 1.872 1.872 0 0 1 3.743 0z" transform="matrix(.32233 .04498 -.03546 .2966 1098.133 122.623)" stroke-width=".376"/><path d="M115.508 301.56a1.872 1.872 0 1 1-3.743 0 1.872 1.872 0 0 1 3.743 0z" transform="matrix(.32233 .04498 -.03546 .2966 1097.1 123.931)" stroke-width=".376"/><path d="M115.508 301.56a1.872 1.872 0 1 1-3.743 0 1.872 1.872 0 0 1 3.743 0z" transform="matrix(.32233 .04498 -.03546 .2966 1098.193 125.052)" stroke-width=".376"/><path d="M113.518 303.669l8.526-3.166-4.185 2.392 2.686-.083-2.492 1.168 4.001.275-8.536-.586z" transform="matrix(.64519 .09003 -.07097 .59366 1072.155 27.92)"/></g><g stroke-width=".188" fill-rule="evenodd"><path d="M115.508 301.56a1.872 1.872 0 1 1-3.743 0 1.872 1.872 0 0 1 3.743 0z" transform="matrix(.32373 .0335 .03658 -.29646 1098.642 307.425)" stroke-width=".376"/><path d="M115.508 301.56a1.872 1.872 0 1 1-3.743 0 1.872 1.872 0 0 1 3.743 0z" transform="matrix(.32373 .0335 .03658 -.29646 1097.952 305.908)" stroke-width=".376"/><path d="M115.508 301.56a1.872 1.872 0 1 1-3.743 0 1.872 1.872 0 0 1 3.743 0z" transform="matrix(.32373 .0335 .03658 -.29646 1099.282 305.081)" stroke-width=".376"/><path d="M113.518 303.669l8.526-3.166-4.185 2.392 2.686-.083-2.492 1.168 4.001.275-8.536-.586z" transform="matrix(.64798 .06705 .07321 -.5934 1050.748 393.156)"/></g><g stroke-width=".188" fill-rule="evenodd"><path d="M115.508 301.56a1.872 1.872 0 1 1-3.743 0 1.872 1.872 0 0 1 3.743 0z" transform="matrix(.32373 .0335 .03658 -.29646 1118.29 312.556)" stroke-width=".376"/><path d="M115.508 301.56a1.872 1.872 0 1 1-3.743 0 1.872 1.872 0 0 1 3.743 0z" transform="matrix(.32373 .0335 .03658 -.29646 1117.6 311.039)" stroke-width=".376"/><path d="M115.508 301.56a1.872 1.872 0 1 1-3.743 0 1.872 1.872 0 0 1 3.743 0z" transform="matrix(.32373 .0335 .03658 -.29646 1118.93 310.212)" stroke-width=".376"/><path d="M113.518 303.669l8.526-3.166-4.185 2.392 2.686-.083-2.492 1.168 4.001.275-8.536-.586z" transform="matrix(.64798 .06705 .07321 -.5934 1070.396 398.287)"/></g></g></g><path d="M1090.296 646.297l20.868-5.73-10.705-18.807 18.808 10.705 5.73-20.869 5.729 20.869 18.807-10.705-10.705 18.807 20.869 5.73-20.869 5.73 10.705 18.807-18.807-10.705-5.73 20.868-5.73-20.868-18.807 10.705 10.705-18.808-20.868-5.73zM1207.712 425.13l15.082-17.355-15.082-17.356 22.569 4.385 7.487-21.741 7.487 21.741 22.57-4.385-15.083 17.356 15.082 17.356-22.569-4.386-7.487 21.742-7.487-21.742-22.57 4.386z" fill="#fff"/></svg>