<svg xmlns="http://www.w3.org/2000/svg" xmlns:xlink="http://www.w3.org/1999/xlink" version="1" width="1500" height="750"><path fill="#00247d" d="M0 0h1500v750H0z"/><g transform="scale(.5)"><path fill="#00247d" d="M0 0h1500v750H0z"/><g id="b"><path id="a" fill="#fff" d="M0 0h167.705L625 228.647V0h50l75 325L0 300v-50h332.295L0 83.853V0z"/><use transform="matrix(-1 0 0 1 1500 0)" width="1500" height="750" xlink:href="#a"/><path d="M0 0l500 250H388.197L0 55.902V0zm1500 0l-500 250H888.197l500-250H1500z" fill="#e60d2e"/></g><use transform="rotate(180 750 375)" width="1500" height="750" xlink:href="#b"/><path d="M675 0h150v300h675v150H825v300H675V450H0V300h675V0z" fill="#e60d2e"/></g><path font-size="12" fill="#fff" fill-rule="evenodd" d="M1123.157 267.42l7.104 22.088 21.698-8.217-12.84 19.325 19.954 11.841-23.115 2.01 3.183 22.983-15.984-16.817-15.983 16.817 3.183-22.982-23.115-2.01 19.953-11.842-12.84-19.325 21.699 8.217 7.103-22.087zM994.222 407.101l7.104 22.088 21.698-8.218-12.84 19.326 19.954 11.84-23.115 2.011 3.183 22.983-15.984-16.818-15.983 16.818 3.183-22.983-23.115-2.01 19.953-11.84-12.84-19.327 21.699 8.218 7.103-22.088zm180.509 69.073l5.614 13.763 14.823 1.086-11.354 9.592 3.549 14.433-12.632-7.834-12.631 7.834 3.548-14.433-11.354-9.592 14.823-1.086 5.614-13.763z"/><g stroke="#000" stroke-width=".272"><path d="M1119.677 156.284c-1.93.058-4.187.382-6.56.862-3.528.067-7.482.715-12.097 3.273-.022.012-.046.015-.067.027a182.401 182.401 0 0 0-6.13 2.089c-.004-.002-.01 0-.013 0-5.63-1.799-21.724-5.227-23.185 13.78-.008.117.038.31.135.553v.013c-.536 2.987.593 8.231.593 8.231.669.48 1.15 1.533 1.28 1.873v.027c.01.379-1.36 1.89-1.118 2.519 0 .002.012.01.013.013.005.011.007.03.013.04l.014.014c.004.005.01.022.013.027l.014.014.013.013.014.013c.007.006.019.008.027.014.484.367.907 1.923 1.24 3.287.001.008-.003.018 0 .027-.002.005 0 .008 0 .013-.104.522-.068.979.228 1.294.045.047.08.093.122.148.377 1.682 4.177 17.773 3.96 18.63-.214.86 1.29 1.941 2.654 2.372.16.05.541.102 1.131.147.02.007.035.007.054.014 8.06 2.846 14.984.962 29.933.31a1406.58 1406.58 0 0 0 12.488-.162h.162c.094-.001.19.002.283 0 4.407.077 8.585.129 12.488.162 14.949.652 21.873 2.536 29.933-.31.018-.001.036-.012.054-.014.59-.045.972-.097 1.131-.147 1.365-.43 2.868-1.511 2.654-2.371-.217-.858.283-4.224.283-5.443 0-1.22.86-2.647 1.36-3.22.148-.169.324-.531.486-.983.703.26 1.609.745 1.899.768h.067l.014-.013v-.014c0-.003.013-.01.013-.014v-.013c0-.006-.011-.02-.013-.027-.002-.005.002-.022 0-.027-.001-.003-.012-.01-.014-.013-.073-.149-.321-.44-.822-.93a.722.722 0 0 1-.013-.013c-.606-.71.323-7.007.7-8.69.042-.054.077-.1.122-.147.296-.315.333-.772.229-1.294v-.013c-.002-.01.002-.016 0-.027.332-1.364.755-2.92 1.239-3.287.008-.006.02-.008.027-.014l.014-.013.013-.013.014-.014.013-.027.013-.013a.525.525 0 0 0 .028-.054c.24-.63-1.129-2.14-1.119-2.52.001-.009.01-.018.014-.026.129-.34.598-1.393 1.266-1.873 0 0 1.13-5.244.593-8.23v-.014c.097-.243.144-.435.134-.553-1.46-19.007-17.553-15.579-23.183-13.78-.004-.002-.01 0-.014 0a182.398 182.398 0 0 0-6.13-2.089c-.019-.01-.034-.016-.053-.027-4.616-2.56-8.57-3.205-12.098-3.273-4.27-.863-8.175-1.223-10.453-.431-.368.128-.746.235-1.118.323a11.318 11.318 0 0 1-1.105-.323c-1.013-.352-2.336-.478-3.88-.431z" font-size="12" fill="#cf142b" stroke-width=".117"/><g fill-rule="evenodd"><path d="M1095.814 171.602c-1.147.41-2.3 10.265-1.31 13.445.686 2.201 1.512 3.689 1.989 4.604-.988-1.522-3.223-4.44-5.751-4.213-3.178.286-2.335 10.51-2.177 11.158l.002.011c0 .002.008.009.008.01h.008c.112-.257.88-4.583 4.024-4.865 2.069-.186 3.976 2.063 4.694 3.029.04.321.083.632.124.945-.348 1.004-.365 3.311-1.45 6.31-1.313 3.625-6.594 4.458-7.485 4.573l11.521-1.033.037-.004.014-.001 11.558-1.037c-.9.045-2.54-2.187-7.721-3.543-2.853-2.415-3.084-4.596-3.669-5.516-.036-.315-.069-.626-.109-.947.467-1.073 1.785-3.61 3.854-3.796 3.144-.282 4.949 3.813 5.121 4.043h.007l.006-.011-.001-.011c-.002-.663-1.668-10.813-4.846-10.528-2.528.227-4.004 3.477-4.6 5.142.244-.98.64-3.007.748-4.85.198-3.339-3.353-13.024-4.537-12.92-.019.001-.04-.001-.059.005zm.716 18.11c.103.16.192.297.264.417.002.003.251 1.002.252 1.004.003.022 1.038 3.41 1.04 3.432-.077-.128-1.452-4.656-1.556-4.853zm3.111-.279c-.054.212-.346 4.889-.392 5.028-.003-.022.24-4.54.236-4.562l.022 1.014c.041-.131.073-1.305.134-1.48zm54.27-17.252c-1.208.162-4.386 9.562-4.078 12.879.213 2.296.712 3.923.988 4.917-.65-1.695-2.23-5.013-4.75-5.316-3.168-.382-4.469 9.794-4.448 10.461l-.001.01c0 .003.006.011.006.012 0 0 .007.002.008.001.163-.226 1.813-4.299 4.947-3.921 2.063.248 3.46 2.844 3.962 3.939-.028.322-.05.635-.076.95-.548.91-2.697 4.462-5.918 5.752-3.578 1.435-4.189 3.108-5.084 3.036l11.485 1.384c.011.001.025.004.036.004l.015.002.036.004 11.484 1.384c-.889-.142-3.49-1.45-6.162-4.37-2.365-2.58-2.714-5.837-3.095-6.859.03-.315.062-.626.09-.949.68-.951 2.496-3.16 4.56-2.912 3.133.378 4.046 4.76 4.167 5.02 0 .001.007 0 .007.002 0-.002.008-.009.01-.01v-.011c.135-.648.617-10.924-2.551-11.305-2.52-.304-4.64 2.568-5.568 4.073.441-.908 1.25-2.808 1.74-4.589.887-3.224-.573-13.436-1.753-13.58-.019-.003-.039-.01-.058-.008zm-3.066 17.864c.067.176.126.33.171.462.002.003.037 1.032.039 1.035-.003.021.306 3.551.303 3.573-.05-.141-.452-4.856-.513-5.07zm3.101.373c-.097.196-1.356 4.71-1.429 4.836.002-.021 1.178-4.391 1.18-4.413l-.19.996c.068-.119.342-1.261.439-1.419z" fill="#fcc917" stroke-width=".117"/><g fill="#fcc917" stroke-width=".117"><path d="M1074.693 188.52l4.535-5.53s.423.547 0 0c-9.298-12.02-9.768-18.916-8.722-22.408 1.046-3.493 3.14-7.276 8.722-11.933 5.582-4.656 9.434-2.068 14.667-2.068 5.234 0 6.63 1.164 11.164 1.746 4.536.582 16.747 1.164 16.747 1.164v-3.201s.481.09 0 0c-5.391-1.005-12.211 0-16.747-1.164-4.535-1.164-8.373-1.455-13.257-1.455s-8.388-1.424-11.527.613c-3.14 2.037-6.978 5.53-9.769 8.44-2.791 2.91-4.187 8.73-3.838 12.514.349 3.783 1.744 6.985 3.838 9.895 2.093 2.91 1.744 5.238 2.442 7.275.697 2.038 1.744 6.403 1.744 6.112zm100.608 0l-4.536-5.53s-.423.547 0 0c9.298-12.02 9.769-18.916 8.722-22.408-1.047-3.493-3.14-7.276-8.722-11.933-5.582-4.656-9.434-2.068-14.667-2.068-5.233 0-6.63 1.164-11.165 1.746-4.535.582-16.746 1.164-16.746 1.164v-3.201s-.481.09 0 0c5.392-1.005 12.21 0 16.746-1.164 4.536-1.164 8.374-1.455 13.258-1.455 4.884 0 8.387-1.424 11.528.613 3.14 2.037 6.977 5.53 9.768 8.44 2.791 2.91 4.187 8.73 3.838 12.514-.35 3.783-1.745 6.985-3.838 9.895-2.093 2.91-1.744 5.238-2.442 7.275-.698 2.038-1.744 6.403-1.744 6.112z"/><path d="M1117.4 143.652h16.178v33.183h-16.177zm1.934-29.253s1.741 1.418 3.078 3.24c1.337 1.822 2.268 4.05 2.268 4.05s-2.227-.932-4.05-2.269c-1.822-1.336-3.24-3.077-3.24-3.077v12.31s1.418-1.74 3.24-3.077c1.823-1.336 4.05-2.268 4.05-2.268s-.718 1.838-1.181 4.05c-.417 1.99-3.83 6.583-3.83 6.583l9.97.669s-1.657-5.262-2.325-7.252a27.52 27.52 0 0 1-1.015-4.05s2.228.932 4.05 2.268c1.823 1.337 3.24 3.078 3.24 3.078v-12.311s-1.417 1.741-3.24 3.077c-1.822 1.337-4.05 2.269-4.05 2.269s.932-2.228 2.269-4.05c1.336-1.823 3.077-3.24 3.077-3.24h-12.31z"/><path d="M1133.513 136.339a8.024 8.024 0 1 1-16.048 0 8.024 8.024 0 1 1 16.048 0z"/><path d="M1117.645 137.49h15.961s.232-3.087-.924-4.242h-4.959l-.083-4.628h-4.7l-.084 4.628s-3.336.167-4.873.167c-.697 1.891-.59 2.05-.59 2.05l.252 2.025zm-2.433 38.233s2.908 2.367 5.139 5.41c2.231 3.043 3.787 6.762 3.787 6.762s-3.72-1.556-6.762-3.787c-3.043-2.231-5.41-5.139-5.41-5.139v20.556s2.367-2.907 5.41-5.14c3.042-2.23 6.762-3.786 6.762-3.786s-1.556 3.72-3.787 6.762c-2.231 3.043-5.14 5.41-5.14 5.41h20.556s-2.907-2.367-5.138-5.41c-2.232-3.043-3.787-6.762-3.787-6.762s3.72 1.556 6.762 3.787c3.042 2.232 5.409 5.14 5.409 5.14v-20.557s-2.367 2.908-5.41 5.14c-3.042 2.23-6.761 3.786-6.761 3.786s1.555-3.719 3.787-6.762c2.23-3.043 5.139-5.41 5.139-5.41h-20.556zm-39.147 34.899l10.122-1.785s-3.274-1.825-6-4.435c-2.726-2.609-4.904-6.001-4.904-6.001s3.933.885 7.317 2.555c3.384 1.669 6.22 4.121 6.22 4.121l-3.57-20.243s-1.825 3.274-4.435 6c-2.609 2.726-6.001 4.903-6.001 4.903s.885-3.932 2.555-7.316c1.669-3.384 4.121-6.22 4.121-6.22l-10.122 1.785 4.697 26.636zm93.425-28.42s2.452 2.835 4.121 6.219 2.555 7.316 2.555 7.316-3.393-2.177-6.002-4.903c-2.609-2.726-4.435-6-4.435-6l-3.57 20.243s2.836-2.452 6.22-4.121c3.385-1.67 7.317-2.555 7.317-2.555s-2.177 3.392-4.903 6.001c-2.726 2.61-6 4.435-6 4.435l10.122 1.785 4.696-26.636-10.122-1.785z"/></g><path d="M1076.17 209.57l.07 14.747s24.642-8.392 49.285-8.392c24.642 0 49.284 8.392 49.284 8.392V209.57s-24.66-8.391-49.32-8.391-49.32 8.391-49.32 8.391z" fill="#fcc917" stroke-width=".117"/><g stroke-width=".117" fill="#fff"><path d="M1073.885 180.67a3.751 3.751 0 1 1-7.503 0 3.752 3.752 0 1 1 7.503 0zm-4.813-8.555a3.751 3.751 0 1 1-7.503 0 3.752 3.752 0 1 1 7.503 0zm-1.002-10.03a3.751 3.751 0 1 1-7.504 0 3.752 3.752 0 1 1 7.503 0zm3.008-9.362a3.751 3.751 0 1 1-7.503 0 3.752 3.752 0 1 1 7.503 0zm6.352-7.69a3.751 3.751 0 1 1-7.503 0 3.752 3.752 0 1 1 7.503 0zm8.693-5.348a3.751 3.751 0 1 1-7.503 0 3.752 3.752 0 1 1 7.503 0zm9.695.668a3.751 3.751 0 1 1-7.503 0 3.752 3.752 0 1 1 7.503 0zm9.696 1.605a3.751 3.751 0 1 1-7.503 0 3.752 3.752 0 1 1 7.503 0zm9.696 1.002a3.751 3.751 0 1 1-7.504 0 3.752 3.752 0 1 1 7.503 0zm60.898 37.71a3.751 3.751 0 1 0 7.503 0 3.752 3.752 0 1 0-7.503 0zm4.812-8.555a3.751 3.751 0 1 0 7.503 0 3.752 3.752 0 1 0-7.503 0zm1.003-10.03a3.751 3.751 0 1 0 7.503 0 3.752 3.752 0 1 0-7.503 0zm-3.008-9.362a3.751 3.751 0 1 0 7.503 0 3.752 3.752 0 1 0-7.503 0zm-6.353-7.69a3.751 3.751 0 1 0 7.503 0 3.752 3.752 0 1 0-7.503 0zm-8.692-5.348a3.751 3.751 0 1 0 7.503 0 3.752 3.752 0 1 0-7.503 0zm-9.695.668a3.751 3.751 0 1 0 7.503 0 3.752 3.752 0 1 0-7.503 0zm-9.696 1.605a3.751 3.751 0 1 0 7.503 0 3.752 3.752 0 1 0-7.503 0zm-9.696 1.002a3.751 3.751 0 1 0 7.503 0 3.752 3.752 0 1 0-7.503 0zm-5.542 29.285a3.751 3.751 0 1 1-7.503 0 3.752 3.752 0 1 1 7.503 0z"/><path d="M1129.241 165.56a3.751 3.751 0 1 1-7.503 0 3.752 3.752 0 1 1 7.503 0z"/><path d="M1129.241 160.212a3.751 3.751 0 1 1-7.503 0 3.752 3.752 0 1 1 7.503 0z"/><path d="M1129.241 155.33a3.751 3.751 0 1 1-7.503 0 3.752 3.752 0 1 1 7.503 0zm0-15.645a3.751 3.751 0 1 1-7.503 0 3.752 3.752 0 1 1 7.503 0z"/><path d="M1129.241 140.353a3.751 3.751 0 1 1-7.503 0 3.752 3.752 0 1 1 7.503 0z"/><path d="M1129.241 143.83a3.751 3.751 0 1 1-7.503 0 3.752 3.752 0 1 1 7.503 0z"/><path d="M1129.241 148.577a3.751 3.751 0 1 1-7.503 0 3.752 3.752 0 1 1 7.503 0z"/></g><path fill="#00247d" d="M1118.44 204.85h14.985v6.532h-14.985z" stroke-width=".117"/><path d="M16.043 233.11c0 4.726-10.295 8.557-22.995 8.557-12.7 0-22.995-3.83-22.995-8.556 0-4.726 10.296-8.556 22.995-8.556 12.7 0 22.995 3.83 22.995 8.556z" transform="matrix(-.29234 -.02967 .01027 .41285 1144.6 113.924)" fill="#337321" stroke-width=".338"/><path d="M1076.257 213.122l-3.755 3.755 4.355 2.514 10.127-2.714-1.805-5.735-8.922 2.18zm99.35 0l3.755 3.755-4.355 2.514-10.127-2.714 1.805-5.735 8.922 2.18z" fill="#cf142b" stroke-width=".117"/><path d="M16.043 233.11c0 4.726-10.295 8.557-22.995 8.557-12.7 0-22.995-3.83-22.995-8.556 0-4.726 10.296-8.556 22.995-8.556 12.7 0 22.995 3.83 22.995 8.556z" transform="matrix(.29234 -.02967 -.01027 .41285 1107.264 113.924)" fill="#337321" stroke-width=".338"/><path d="M1115.199 205.338a1.844 1.844 0 1 1-3.689 0 1.844 1.844 0 0 1 3.689 0zm.576 5.879a1.844 1.844 0 1 1-3.689 0 1.844 1.844 0 0 1 3.689 0zm-23.628-1.729a1.844 1.844 0 1 1-3.689 0 1.844 1.844 0 0 1 3.689 0zm2.305 5.532a1.844 1.844 0 1 1-3.689 0 1.844 1.844 0 0 1 3.689 0zm42.128-9.682a1.844 1.844 0 1 0 3.689 0 1.844 1.844 0 0 0-3.689 0zm-.576 5.879a1.844 1.844 0 1 0 3.689 0 1.844 1.844 0 0 0-3.689 0zm23.629-1.729a1.844 1.844 0 1 0 3.689 0 1.844 1.844 0 0 0-3.689 0zm-2.306 5.532a1.844 1.844 0 1 0 3.689 0 1.844 1.844 0 0 0-3.689 0z" fill="#fff" stroke-width=".117"/><path d="M1173.527 201.212l1.172.56c-.438.581-3.099 7.076-12.663 5.064-9.66-2.032-10.351-11.329-10.351-11.329l1.793.652s1.047 7.176 8.639 9.21c7.515 2.013 11.41-4.157 11.41-4.157z" fill="#fcc917" stroke-width=".117"/><path d="M1151.848 195.589l-1.793.244s-1.85 6.757-11.533 5.38c-9.524-1.355-9.913-8.477-10.229-9.7-1.864.897-1.467 1.223-1.467 1.223s1.1 8.641 11.33 9.862c10.147 1.22 13.61-4.32 13.692-7.01z" fill="#fcc917" stroke-width=".117"/><path d="M1153.815 194.71s-.853-.716-1.783-.8c-.931-.083-1.94.466-1.94.466l-.207 1.684s1.009-.548 1.939-.465c.93.084 1.783.8 1.783.8l.207-1.686z" fill="#fcc917" stroke-width=".117"/><path d="M1171.021 197.187a4.848 4.848 0 1 0 9.696 0 4.848 4.848 0 1 0-9.696 0z" fill="#fff" stroke-width=".117"/><path d="M1077.124 201.212l-1.172.56c.438.581 3.099 7.076 12.663 5.064 9.66-2.032 10.351-11.329 10.351-11.329l-1.793.652s-1.048 7.176-8.639 9.21c-7.515 2.013-11.41-4.157-11.41-4.157z" fill="#fcc917" stroke-width=".117"/><path d="M1098.804 195.589l1.792.244s1.85 6.757 11.533 5.38c9.524-1.355 9.913-8.477 10.228-9.7 1.865.897 1.467 1.223 1.467 1.223s-1.1 8.641-11.328 9.862c-10.148 1.22-13.611-4.32-13.693-7.01z" fill="#fcc917" stroke-width=".117"/><path d="M1096.837 194.71s.852-.716 1.783-.8c.93-.083 1.938.466 1.938.466l.207 1.684s-1.007-.548-1.938-.465c-.93.084-1.783.8-1.783.8l-.207-1.686z" fill="#fcc917" stroke-width=".117"/><path d="M1079.63 197.187a4.848 4.848 0 1 1-9.696 0 4.848 4.848 0 1 1 9.696 0zm50.67-8.793a4.848 4.848 0 1 1-9.696 0 4.848 4.848 0 1 1 9.696 0z" fill="#fff" stroke-width=".117"/></g><path d="M1082.967 225.36l42.477-7.621 44.247 7.621-20.53 8.536-37.875.61-28.319-9.146z" fill="#96877d" fill-rule="evenodd" stroke-width=".117"/><path d="M1163.163 235.244c1.408-.244 9.905-2.264 11.694-3.345-1.155-2.082-3.226-3.71-1.614-3.025.868.368 1.555-2.5-.966-4.692-7.316 2.4-24.864 6.784-46.913 6.784-22.565 0-40.333-4.615-47.65-7.015-2.52 2.192-1.735 4.684-1.887 5.614-.001.008.001 1.175.461 2.104 2.48 2.694 10.516 4.022 11.924 4.267 6.618 1.15 13.237 2.887 37.137 2.887 22.11 0 31.196-2.43 37.814-3.579z" font-size="12" fill="#fff" stroke-width=".117"/><g stroke-width=".25"><path d="M1087.478 220.065c-1.409.245-10.366 3.417-12.155 4.498.002.007-.001.021 0 .028.153.931-1.554 5.267.966 7.46 7.316-2.4 27.86-9.552 49.91-9.552 22.565 0 41.255 7.151 48.572 9.551 2.52-2.192.813-6.528.966-7.458.001-.008-.002-.022 0-.029-1.79-1.081-10.747-4.253-12.155-4.498-6.619-1.15-13.467-5.423-37.368-5.423-22.11 0-32.118 4.273-38.736 5.423z" font-size="12" fill="#fff" stroke-width=".117"/><g stroke-width=".188" fill-rule="evenodd"><path d="M115.508 301.56a1.872 1.872 0 1 1-3.743 0 1.872 1.872 0 0 1 3.743 0z" transform="matrix(.32373 -.0335 .03658 .29646 1032.617 139.91)" stroke-width=".376"/><path d="M115.508 301.56a1.872 1.872 0 1 1-3.743 0 1.872 1.872 0 0 1 3.743 0z" transform="matrix(.32373 -.0335 .03658 .29646 1031.927 141.428)" stroke-width=".376"/><path d="M115.508 301.56a1.872 1.872 0 1 1-3.743 0 1.872 1.872 0 0 1 3.743 0z" transform="matrix(.32373 -.0335 .03658 .29646 1033.257 142.254)" stroke-width=".376"/><path d="M113.518 303.669l8.526-3.166-4.185 2.392 2.686-.083-2.492 1.168 4.001.275-8.536-.586z" transform="matrix(.64798 -.06705 .07321 .5934 984.723 54.18)"/></g><g stroke-width=".188" fill-rule="evenodd"><path d="M115.508 301.56a1.872 1.872 0 1 1-3.743 0 1.872 1.872 0 0 1 3.743 0z" transform="matrix(.32373 -.0335 .03658 .29646 1052.086 134.339)" stroke-width=".376"/><path d="M115.508 301.56a1.872 1.872 0 1 1-3.743 0 1.872 1.872 0 0 1 3.743 0z" transform="matrix(.32373 -.0335 .03658 .29646 1051.396 135.856)" stroke-width=".376"/><path d="M115.508 301.56a1.872 1.872 0 1 1-3.743 0 1.872 1.872 0 0 1 3.743 0z" transform="matrix(.32373 -.0335 .03658 .29646 1052.726 136.683)" stroke-width=".376"/><path d="M113.518 303.669l8.526-3.166-4.185 2.392 2.686-.083-2.492 1.168 4.001.275-8.536-.586z" transform="matrix(.64798 -.06705 .07321 .5934 1004.192 48.608)"/></g><g stroke-width=".188" fill-rule="evenodd"><path d="M115.508 301.56a1.872 1.872 0 1 1-3.743 0 1.872 1.872 0 0 1 3.743 0z" transform="matrix(.32233 .04498 -.03546 .2966 1098.133 122.623)" stroke-width=".376"/><path d="M115.508 301.56a1.872 1.872 0 1 1-3.743 0 1.872 1.872 0 0 1 3.743 0z" transform="matrix(.32233 .04498 -.03546 .2966 1097.1 123.931)" stroke-width=".376"/><path d="M115.508 301.56a1.872 1.872 0 1 1-3.743 0 1.872 1.872 0 0 1 3.743 0z" transform="matrix(.32233 .04498 -.03546 .2966 1098.193 125.052)" stroke-width=".376"/><path d="M113.518 303.669l8.526-3.166-4.185 2.392 2.686-.083-2.492 1.168 4.001.275-8.536-.586z" transform="matrix(.64519 .09003 -.07097 .59366 1072.155 27.92)"/></g><g stroke-width=".188" fill-rule="evenodd"><path d="M115.508 301.56a1.872 1.872 0 1 1-3.743 0 1.872 1.872 0 0 1 3.743 0z" transform="matrix(.32373 .0335 .03658 -.29646 1098.642 307.425)" stroke-width=".376"/><path d="M115.508 301.56a1.872 1.872 0 1 1-3.743 0 1.872 1.872 0 0 1 3.743 0z" transform="matrix(.32373 .0335 .03658 -.29646 1097.952 305.908)" stroke-width=".376"/><path d="M115.508 301.56a1.872 1.872 0 1 1-3.743 0 1.872 1.872 0 0 1 3.743 0z" transform="matrix(.32373 .0335 .03658 -.29646 1099.282 305.081)" stroke-width=".376"/><path d="M113.518 303.669l8.526-3.166-4.185 2.392 2.686-.083-2.492 1.168 4.001.275-8.536-.586z" transform="matrix(.64798 .06705 .07321 -.5934 1050.748 393.156)"/></g><g stroke-width=".188" fill-rule="evenodd"><path d="M115.508 301.56a1.872 1.872 0 1 1-3.743 0 1.872 1.872 0 0 1 3.743 0z" transform="matrix(.32373 .0335 .03658 -.29646 1118.29 312.556)" stroke-width=".376"/><path d="M115.508 301.56a1.872 1.872 0 1 1-3.743 0 1.872 1.872 0 0 1 3.743 0z" transform="matrix(.32373 .0335 .03658 -.29646 1117.6 311.039)" stroke-width=".376"/><path d="M115.508 301.56a1.872 1.872 0 1 1-3.743 0 1.872 1.872 0 0 1 3.743 0z" transform="matrix(.32373 .0335 .03658 -.29646 1118.93 310.212)" stroke-width=".376"/><path d="M113.518 303.669l8.526-3.166-4.185 2.392 2.686-.083-2.492 1.168 4.001.275-8.536-.586z" transform="matrix(.64798 .06705 .07321 -.5934 1070.396 398.287)"/></g></g></g><path d="M1090.296 646.297l20.868-5.73-10.705-18.807 18.808 10.705 5.73-20.869 5.729 20.869 18.807-10.705-10.705 18.807 20.869 5.73-20.869 5.73 10.705 18.807-18.807-10.705-5.73 20.868-5.73-20.868-18.807 10.705 10.705-18.808-20.868-5.73zm117.416-221.167l15.082-17.355-15.082-17.356 22.569 4.385 7.487-21.741 7.487 21.741 22.57-4.385-15.083 17.356 15.082 17.356-22.569-4.386-7.487 21.742-7.487-21.742-22.57 4.386z" fill="#fff"/></svg>