<svg xmlns="http://www.w3.org/2000/svg" xmlns:xlink="http://www.w3.org/1999/xlink" version="1" width="1800" height="900"><path fill="#002b7f" d="M0 0h1800v900H0z"/><path d="M1550 450a200 200 0 1 1-400 0 200 200 0 1 1 400 0z" fill="#ffe300" fill-rule="evenodd"/><path d="M1383.364 525.832c-3.349-.9-8.893-4.39-12.016-7.563-1.111-1.13-2.3-2.054-2.643-2.054-.342 0-2.002.388-3.69.863-5.137 1.444-17.65 4.148-25.345 5.477-6.658 1.149-7.82 1.256-13.548 1.244-9.943-.02-24.363-2.332-30.313-4.86-6.705-2.849-14.61-6.87-18.191-9.254-3.361-2.237-8.92-7.838-11.333-11.42-4.178-6.2-6.973-13.568-8.263-21.779-.545-3.468-.21-11.217.674-15.58 1.415-6.988 2.966-11.132 6.549-17.5 6.969-12.386 14.075-21.356 31.32-39.536 14.349-15.125 17.015-19.453 17.127-27.8.038-2.823-.085-3.933-.553-4.986-1.164-2.623-3.354-4.234-5.757-4.234-1.391 0-2.989 1.033-6.042 3.906a20.18 20.18 0 0 1-9.835 5.057c-1.436.286-2.929.52-3.317.52-1.142 0-3.952 2.917-5.186 5.384-.617 1.234-1.324 3.195-1.57 4.357-.5 2.354-.857 2.551-2.881 1.59-2.29-1.086-2.52-3.504-1.031-10.86 1.02-5.036 1.025-5.24.17-6.643-2.059-3.376.779-12.068 5.548-16.997 6.023-6.226 15.37-9.528 24.425-8.63 11.193 1.109 17.962 5.514 22.041 14.344 2.101 4.547 2.616 7.106 2.625 13.053.012 8.067-1.308 14.361-4.227 20.152-2.15 4.265-7.23 11.931-13.692 20.66-4.975 6.72-8.902 12.507-10.917 16.089-2.556 4.541-4.83 11.845-5.483 17.615-.652 5.755.905 15.921 2.72 17.761.835.846 2.775.869 3.686.044.376-.34.946-1.308 1.268-2.151.615-1.61.662-2.79.478-12.101-.112-5.687.282-8.17 2.006-12.641 2.004-5.196 9.17-15.709 13.895-20.382 3.796-3.755 11.598-9.457 17.658-12.905 2.3-1.309 4.434-2.637 4.74-2.95.307-.315.797-1.414 1.089-2.443.728-2.57 3.896-8.933 6.026-12.103 2.482-3.694 6.283-8.69 10.371-13.63 3.124-3.774 7.64-10.481 10.433-15.494.544-.978 1.104-1.778 1.244-1.778.14 0 .254.887.254 1.973 0 2.357.619 8.763.977 10.11.157.59.516.995.94 1.057.565.084.888-.368 1.822-2.54 1.33-3.091 1.994-4.221 2.35-4 .142.087.367 1.837.5 3.889.357 5.509 1.39 6.422 3.403 3.006 1.15-1.953 2.862-4.244 5.615-7.515 1.039-1.235 2.708-3.63 3.71-5.321 1-1.692 1.965-3.165 2.141-3.275.539-.332.023 3.475-1.143 8.443-1.803 7.682-1.43 7.894 7.366 4.182 3.175-1.34 4.19-1.964 6.151-3.779 1.298-1.202 3.132-3.396 4.101-4.907.964-1.503 1.838-2.648 1.941-2.545.231.231-.46 4.754-1.135 7.43-.275 1.086-1.02 3.09-1.658 4.451-1.456 3.11-1.796 4.945-1.032 5.579.469.39.91.317 2.996-.49 3.527-1.365 5.019-2.312 8.09-5.13 2.924-2.686 4.008-3.447 4.008-2.814 0 .483-8.626 14.989-9.889 16.63-.522.679-.95 1.567-.95 1.973 0 .737.012.738 5.166.5 7.234-.334 10.257-1.18 15.04-4.214.882-.56 1.802-1.017 2.044-1.017.243 0-.482 1.244-1.61 2.765-3.881 5.235-6.5 11.98-4.892 12.598.712.273 2.701-.24 5.176-1.334 2.037-.901 2.447-.983 2.447-.491 0 .372-3.914 5.608-5.642 7.547-1.24 1.391-1.456 2.52-.55 2.868.945.363 6.79-1.872 10.078-3.853 1.671-1.007 3.259-1.789 3.528-1.736.793.154.78.75-.04 1.87-3.372 4.602-7.038 9.327-8.27 10.657-2.45 2.648-1.84 3.735 1.926 3.422l2.187-.182-1.127 1.06c-.62.583-1.065 1.248-.99 1.478.084.254 1.054.484 2.482.587 1.373.1 2.17.283 1.921.444-.65.421-.502 1.518.238 1.753 1.294.41 4.922-.545 8.048-2.118 1.717-.864 3.226-1.466 3.355-1.337.31.31-5.03 7.322-7.995 10.497-1.295 1.387-3.465 3.405-4.82 4.484-4.635 3.688-5.44 5.243-3.06 5.904 1.8.5 4.31.44 5.685-.134.92-.385 1.174-.398 1.174-.06 0 .49-5.009 7.947-7.803 11.617-1.017 1.336-2.364 3.28-2.992 4.318-1.874 3.1-1.345 3.265 9.271 2.909l6.774-.228 7.451-3.63c11.259-5.487 24.387-10.93 25.006-10.37.4.363-1.07 3.108-3.354 6.265-7.105 9.817-10.752 16.631-10.162 18.983.258 1.029.871 1.046 2.561.074.723-.416 1.415-.657 1.537-.534.667.666-5.921 8.72-11.664 14.26-2.277 2.195-4.077 4.177-4 4.402.151.44 1.63.477 2.87.072 1.214-.397.95.47-.988 3.248-2.333 3.344-5.124 6.048-11.628 11.262-9.374 7.515-17.83 12.76-25.768 15.981-3.366 1.366-10.946 3.547-12.328 3.547-1.227 0-2.134.715-1.849 1.457.395 1.029 3.2 2.399 6.33 3.091 1.594.354 1.03.794-1.525 1.193-1.35.21-4.894 1.138-7.874 2.061-2.988.926-6.707 1.832-8.29 2.019-4.228.5-11.675.391-13.892-.205zm-93.652-162.698c2.213-1.065 3.977-2.472 5.338-4.257 1.362-1.786 1.8-2.884 1.483-3.711-.379-.987-5.01-.482-6.263.683-.385.358-.371.726.085 2.294.798 2.745.693 2.899-.91 1.326-.798-.784-1.692-1.425-1.987-1.425-.646 0-2.264 2.353-2.529 3.678-.4 1.999 2.059 2.725 4.783 1.412z"/><path fill="#002b7f" d="M0 0h900v450H0z"/><g transform="scale(.6)" id="b"><path id="a" fill="#fff" d="M0 0h167.705L625 228.647V0h50l75 325L0 300v-50h332.295L0 83.853V0z"/><use transform="matrix(-1 0 0 1 1500 0)" width="1000" height="500" xlink:href="#a"/><path d="m0 0 500 250H388.197L0 55.902V0zm1500 0-500 250H888.197l500-250H1500z" fill="#ce1126"/></g><use transform="rotate(180 450 225)" width="1000" height="500" xlink:href="#b"/><path d="M405 0h90v180h405v90H495v180h-90V270H0v-90h405V0z" fill="#ce1126"/></svg>