<svg xmlns="http://www.w3.org/2000/svg" version="1" height="533.33" width="800" xmlns:cgf="https://coding.garden/flags"><metadata id="cgf-metadata">

<cgf:flag>
  <cgf:name>Cincinnati</cgf:name>
  <cgf:route>us/oh/cincinnati</cgf:route>
  <cgf:aspect-ratio>1.5009380863039399</cgf:aspect-ratio>
</cgf:flag>

</metadata><path fill="#fff" d="M0 .002h800V533.33H0z"></path><g fill-rule="evenodd" stroke="#c70f2e"><path d="M400 85.423c-4.32 5.526-9.105 15.483-10.375 25.375-7.225-4.608-15.975-7.256-21.938-7.781.676 4.304 2.562 10.02 5.5 15.468-5.454.382-10.624 1.717-14.125 3.282 4.343 5.502 14.016 12.947 23.5 14.343 3.485.515 6.29-.367 8.47-1.687 3.442.376 6.576-.528 8.78-1.406.048-.146.08-.316.125-.47.02.01.043.023.063.032l.063-.031c.046.153.077.323.125.469 2.204.878 5.339 1.782 8.78 1.406 2.18 1.32 4.985 2.202 8.47 1.687 9.484-1.396 19.157-8.841 23.5-14.343-3.501-1.565-8.671-2.9-14.125-3.282 2.938-5.447 4.824-11.164 5.5-15.468-5.963.525-14.713 3.173-21.938 7.78-1.27-9.891-6.054-19.848-10.375-25.374z" fill="#fff" stroke-width="6"></path><path d="M404.721 130.659c.675-3.335 2.555-8.571 8.71-10.706 9.051-3.146 21.098-1.036 27.51 1.83-4.342 5.503-14.026 12.938-23.51 14.334-6.448.953-10.556-2.816-12.71-5.458z" fill="#fff" stroke-width="2"></path><path d="M400.203 133.035c-1.235-3.834-2.328-10.325 2.765-16.071 7.488-8.457 21.093-13.206 29.343-13.934-1.284 8.183-6.943 21.434-15.887 28.333-6.077 4.693-12.48 3.163-16.221 1.672zm-4.924-2.376c-.675-3.335-2.555-8.571-8.71-10.706-9.051-3.146-21.098-1.036-27.51 1.83 4.342 5.503 14.026 12.938 23.51 14.334 6.448.953 10.556-2.816 12.71-5.458z" fill="#fff" stroke-width="2"></path><path d="M399.797 133.035c1.235-3.834 2.328-10.325-2.765-16.071-7.488-8.457-21.093-13.206-29.343-13.934 1.284 8.183 6.943 21.434 15.887 28.333 6.077 4.693 12.48 3.163 16.221 1.672z" fill="#fff" stroke-width="2"></path><path d="M400 132.578c-3.91-1.84-9.802-5.74-10.576-13.944-1.144-12.069 5.1-26.217 10.576-33.22 5.475 7.003 11.72 21.151 10.576 33.22-.774 8.204-6.665 12.103-10.576 13.944z" fill="#fff" stroke-width="2"></path><path d="M400 88.432c-.059 1.91-.116 3.825-.17 5.737l-3.184-1.462c1.004 1.347 2.077 1.891 3.16 2.345-.042 1.465-.08 2.929-.115 4.395-1.969-.097-3.529-.363-5.871-.699 1.654 1.014 3.823 1.43 5.855 1.563-.034 1.485-.073 2.965-.097 4.45-2.712-.233-5.231-.017-7.78.23 2.549.348 5.232.532 7.763.782a515.623 515.623 0 0 0-.04 4.285c-2.81-.196-5.525.177-8.154 1.02 2.715-.161 5.431-.197 8.146-.018-.006 1.314-.007 2.63 0 3.944-4.985-.107-6.843.719-8.357 1.756 2.697-.755 5.486-1.065 8.365-.947.01 1.356.03 2.71.057 4.064-4.114-.05-6.3.76-7.991 2.455 2.234-1.018 4.847-1.718 8.007-1.682.024 1.121.053 2.244.09 3.365-1.931-.026-3.844.018-5.84 2.455 1.622-1.113 3.503-1.8 5.864-1.673.03.874.066 1.746.105 2.62-1.426.072-2.64.561-3.061 1.839.813-.899 1.902-1.148 3.094-1.14.046.972.096 1.943.154 2.915.083-.973.157-1.941.22-2.915 1.165.001 2.23.258 3.028 1.14-.415-1.258-1.599-1.746-2.996-1.83.052-.88.1-1.758.138-2.639 2.315-.102 4.166.586 5.766 1.683-1.962-2.396-3.845-2.487-5.742-2.464.042-1.117.076-2.238.098-3.356a18.4 18.4 0 0 1 7.901 1.682c-1.677-1.68-3.84-2.49-7.885-2.455.02-1.355.027-2.707.024-4.064 2.853-.11 5.618.199 8.292.947-1.507-1.033-3.356-1.854-8.292-1.756a335.27 335.27 0 0 0-.048-3.944c2.708-.178 5.42-.143 8.129.018-2.624-.842-5.334-1.213-8.138-1.02-.027-1.424-.068-2.853-.105-4.276 2.545-.253 5.247-.44 7.812-.79-2.567-.25-5.103-.463-7.837-.221-.04-1.487-.088-2.974-.13-4.46 2.058-.126 4.267-.534 5.945-1.563-2.381.342-3.952.616-5.969.708-.04-1.457-.072-2.911-.105-4.367 1.112-.461 2.216-.999 3.248-2.382l-3.273 1.508a372.24 372.24 0 0 1-.081-5.783zm-30.25 16.634a344.443 344.443 0 0 1 3.875 3.719l-3.094 1.28c1.598.178 2.666-.223 3.688-.687.97.95 1.94 1.89 2.906 2.844-1.346 1.314-2.534 2.19-4.281 3.594 1.768-.488 3.448-1.711 4.844-3.031.984.973 1.95 1.933 2.937 2.906-1.903 1.707-3.349 3.594-4.812 5.5 1.87-1.524 3.708-3.272 5.5-4.844.945.93 1.892 1.889 2.843 2.813a20.138 20.138 0 0 0-4.5 6.187c1.614-1.947 3.312-3.831 5.157-5.562.88.851 1.765 1.721 2.656 2.562-3.207 3.297-3.807 5.067-4.063 6.75a24.897 24.897 0 0 1 4.625-6.25c.092.086.19.164.282.25-.017-.054-.047-.102-.063-.156-.113-.49-.19-.977-.281-1.469-.832-.784-1.662-1.567-2.5-2.344a51.969 51.969 0 0 1 1.969-2.25c-.018-.342-.024-.688-.032-1.03a19.608 19.608 0 0 0-2.625 2.655 488.62 488.62 0 0 0-2.968-2.718c1.44-1.883 3.052-3.825 4.437-5.782-1.79 1.578-3.56 3.162-5.125 5.157-1.027-.928-2.061-1.83-3.094-2.75 1.203-1.468 2.295-3.229 2.657-5-1.262 1.808-2.064 3.035-3.25 4.437a1000.92 1000.92 0 0 0-3.063-2.719c.38-1.025.684-2.085.406-3.625l-1.031 3.094c-1.337-1.18-2.662-2.356-4-3.531zm60.5 0c-1.338 1.175-2.663 2.352-4 3.531l-1.031-3.094c-.278 1.54.026 2.6.406 3.625-1.024.905-2.042 1.81-3.062 2.72-1.187-1.403-1.99-2.63-3.25-4.438.361 1.771 1.453 3.532 2.656 5-1.033.92-2.067 1.822-3.094 2.75-1.566-1.995-3.335-3.579-5.125-5.157 1.385 1.957 2.997 3.9 4.438 5.782a488.62 488.62 0 0 0-2.97 2.718 19.606 19.606 0 0 0-2.343-2.437c.002.367-.013.729-.031 1.094a51.313 51.313 0 0 1 1.687 1.968c-.774.717-1.544 1.434-2.312 2.157-.171.647-.392 1.28-.625 1.906.124-.116.25-.228.375-.344a24.897 24.897 0 0 1 4.625 6.25c-.256-1.683-.856-3.453-4.063-6.75.891-.84 1.775-1.71 2.657-2.562 1.844 1.73 3.542 3.615 5.156 5.562a20.138 20.138 0 0 0-4.5-6.187c.951-.924 1.898-1.882 2.844-2.813 1.79 1.572 3.63 3.32 5.5 4.844-1.464-1.906-2.91-3.793-4.813-5.5.986-.973 1.953-1.933 2.938-2.906 1.395 1.32 3.075 2.543 4.843 3.03-1.747-1.403-2.935-2.279-4.281-3.593.966-.955 1.936-1.895 2.906-2.844 1.022.464 2.09.865 3.688.688l-3.094-1.281a344.528 344.528 0 0 1 3.875-3.72zm-20.187 21.344a21.06 21.06 0 0 1-.407.656 17.09 17.09 0 0 1 2.875 5.281c.068-1.935-.571-3.697-2.468-5.937zm-20.22.125c-1.815 2.181-2.44 3.913-2.374 5.812a17.08 17.08 0 0 1 2.812-5.187c-.14-.21-.307-.41-.437-.625zm2.47 3.156c-.53.925-.819 2.075-.594 3.75.169-1.117.517-2.196 1.125-3.219a18.99 18.99 0 0 1-.531-.531zm15.343 0c-.163.181-.33.356-.5.531.005.008-.004.024 0 .031a8.783 8.783 0 0 1 1.125 3.188c.226-1.683-.09-2.823-.625-3.75zm-12.437 2.531c.005.34.065.693.25 1.031a3.171 3.171 0 0 1 .031-.812c-.098-.069-.184-.149-.281-.219zm9.562.094c-.095.071-.184.149-.281.219.034.224.052.474.031.718.17-.309.232-.626.25-.937zm24.75-12.758c-.466 1.455-.376 3.203-.093 4.78-1.147.254-2.293.49-3.438.75-.06-.377-.141-.729-.219-1.093-.205.303-.413.608-.625.906.019.124.045.253.063.375l-.406.094c-.21.29-.41.59-.625.875.398-.109.79-.235 1.187-.344.675 1.898 1.34 3.95 2.094 5.844-.295-2.008-.61-3.988-1.313-6.031 1.134-.31 2.242-.626 3.375-.938.486 1.549 1.236 3.161 2.344 4.25-.713-1.755-1.235-2.913-1.687-4.437 1.111-.305 2.232-.607 3.343-.906.565.763 1.18 1.503 2.438 2.03l-1.781-2.218c1.474-.395 2.96-.785 4.437-1.156-1.478.314-2.958.65-4.437.969l.53-2.72c-.843 1.022-1.074 1.963-1.218 2.876-1.133.244-2.274.47-3.406.719-.298-1.524-.378-2.772-.563-4.625zm-7 8.78c-.186.249-.396.48-.593.72.363 1.371.679 2.759.937 4.156a17.06 17.06 0 0 0-.344-4.875zM419 131.996c-.163.132-.333.248-.5.375.049.69.053 1.37.031 2.063a6.643 6.643 0 0 0 .469-2.438zm-4.656 2.875c-.043.02-.083.044-.125.063-.013.072-.018.147-.031.218.058-.095.103-.183.156-.28zm-43.875-15.312c.466 1.455.376 3.203.094 4.78 1.146.254 2.292.49 3.437.75.06-.377.141-.729.219-1.093.205.303.413.608.625.906-.019.124-.045.253-.063.375l.407.094c.21.29.409.59.625.875-.4-.109-.79-.235-1.188-.344-.675 1.898-1.34 3.95-2.094 5.844.295-2.008.61-3.988 1.313-6.031-1.134-.31-2.242-.626-3.375-.938-.486 1.549-1.236 3.161-2.344 4.25.713-1.755 1.235-2.913 1.688-4.437a723.558 723.558 0 0 0-3.344-.906c-.565.763-1.18 1.503-2.438 2.03l1.782-2.218c-1.475-.395-2.96-.785-4.438-1.156 1.478.314 2.958.65 4.438.969l-.532-2.72c.844 1.022 1.075 1.963 1.219 2.876 1.133.244 2.274.47 3.406.719.298-1.524.378-2.772.563-4.625zm7 8.78c.186.249.396.48.594.72a55.851 55.851 0 0 0-.938 4.156 17.074 17.074 0 0 1 .344-4.875zm3.531 3.657c.163.132.333.248.5.375-.049.69-.053 1.37-.031 2.063a6.643 6.643 0 0 1-.469-2.438zm4.656 2.875c.043.02.083.044.125.063.013.072.018.147.032.218-.059-.095-.104-.183-.157-.28z" fill="#c70f2e" stroke-width=".75"></path></g><path d="M80.219 240.11c-13.504 0-26.733 3.261-39.969 6.532-13.236 3.27-26.746 6.53-40.25 6.53v44.5c13.504 0 27.014-3.26 40.25-6.53 13.236-3.27 26.465-6.532 39.969-6.532 13.504 0 26.732 3.261 39.969 6.532 13.236 3.27 26.464 6.53 39.968 6.53 13.504 0 26.733-3.26 39.969-6.53 13.236-3.27 26.465-6.532 39.969-6.532 6.742 0 13.421.808 20.062 2.032a141.777 141.777 0 0 1-.469-11.5 140.63 140.63 0 0 1 3.75-32.344c-7.72-1.568-15.494-2.688-23.343-2.688-13.504 0-26.733 3.261-39.969 6.532-13.236 3.27-26.465 6.53-39.969 6.53-13.504 0-26.732-3.26-39.969-6.53-13.236-3.27-26.464-6.532-39.968-6.532zm479.687 0c-13.504 0-26.764 3.261-40 6.532-7.528 1.86-15.048 3.71-22.625 4.968a100.228 100.228 0 0 1 2.781 23.532c0 7.158-.755 14.14-2.187 20.875 7.377-1.256 14.699-3.064 22.031-4.875 13.236-3.27 26.496-6.532 40-6.532 13.504 0 26.733 3.261 39.969 6.532 13.236 3.27 26.465 6.53 39.969 6.53 13.504 0 26.732-3.26 39.968-6.53 13.237-3.27 26.465-6.532 39.97-6.532 13.503 0 26.732 3.261 39.968 6.532 13.236 3.27 26.746 6.53 40.25 6.53v-44.5c-13.504 0-27.014-3.26-40.25-6.53-13.236-3.27-26.465-6.532-39.969-6.532-13.504 0-26.732 3.261-39.968 6.532-13.237 3.27-26.465 6.53-39.97 6.53-13.503 0-26.732-3.26-39.968-6.53-13.236-3.27-26.465-6.532-39.969-6.532zm-479.687 89c-13.504 0-26.733 3.261-39.969 6.532-13.236 3.27-26.746 6.53-40.25 6.53v44.5c13.504 0 27.014-3.26 40.25-6.53 13.236-3.27 26.465-6.532 39.969-6.532 13.504 0 26.732 3.261 39.969 6.532 13.236 3.27 26.464 6.53 39.968 6.53 13.504 0 26.733-3.26 39.969-6.53 13.236-3.27 26.465-6.532 39.969-6.532 13.504 0 26.764 3.261 40 6.532 11.49 2.838 22.96 5.675 34.625 6.375-18.006-13.815-32.579-31.89-42.188-52.72-10.724-2.551-21.503-4.687-32.437-4.687-13.504 0-26.733 3.261-39.969 6.532-13.236 3.27-26.465 6.53-39.969 6.53-13.504 0-26.732-3.26-39.969-6.53-13.236-3.27-26.464-6.532-39.968-6.532zm479.687 0c-13.504 0-26.764 3.261-40 6.532-13.236 3.27-26.465 6.53-39.968 6.53-1.845 0-3.666-.042-5.5-.155l10.968 44.5c11.622-.713 23.051-3.547 34.5-6.375 13.236-3.27 26.496-6.532 40-6.532 13.504 0 26.733 3.261 39.969 6.532 13.236 3.27 26.465 6.53 39.969 6.53 13.504 0 26.732-3.26 39.968-6.53 13.237-3.27 26.465-6.532 39.97-6.532 13.503 0 26.732 3.261 39.968 6.532 13.236 3.27 26.746 6.53 40.25 6.53v-44.5c-13.504 0-27.014-3.26-40.25-6.53-13.236-3.27-26.465-6.532-39.969-6.532-13.504 0-26.732 3.261-39.968 6.532-13.237 3.27-26.465 6.53-39.97 6.53-13.503 0-26.732-3.26-39.968-6.53-13.236-3.27-26.465-6.532-39.969-6.532zm-479.687-178c-13.504 0-26.733 3.261-39.969 6.532-13.236 3.27-26.746 6.53-40.25 6.53v44.5c13.504 0 27.014-3.26 40.25-6.53 13.236-3.27 26.465-6.532 39.969-6.532 13.504 0 26.732 3.261 39.969 6.532 13.236 3.27 26.464 6.53 39.968 6.53 13.504 0 26.733-3.26 39.969-6.53 13.236-3.27 26.465-6.532 39.969-6.532 13.504 0 26.764 3.261 40 6.532.02.004.043-.005.062 0 8.985-14.712 20.626-27.631 34.219-38.125-11.547-.734-22.903-3.564-34.281-6.375-13.236-3.27-26.496-6.532-40-6.532-13.504 0-26.733 3.261-39.969 6.532-13.236 3.27-26.465 6.53-39.969 6.53-13.504 0-26.732-3.26-39.969-6.53-13.236-3.27-26.464-6.532-39.968-6.532zm479.687 0c-13.504 0-26.764 3.261-40 6.532-11.418 2.82-22.816 5.653-34.406 6.375l-10.969 44.406c.03.033.065.06.094.094 1.773.106 3.53.156 5.313.156 13.503 0 26.732-3.261 39.968-6.531 13.236-3.27 26.496-6.532 40-6.532 13.504 0 26.733 3.261 39.969 6.532 13.236 3.27 26.465 6.53 39.969 6.53 13.504 0 26.732-3.26 39.968-6.53 13.237-3.27 26.465-6.532 39.97-6.532 13.503 0 26.732 3.261 39.968 6.532 13.236 3.27 26.746 6.53 40.25 6.53v-44.5c-13.504 0-27.014-3.26-40.25-6.53-13.236-3.27-26.465-6.532-39.969-6.532-13.504 0-26.732 3.261-39.968 6.532-13.237 3.27-26.465 6.53-39.97 6.53-13.503 0-26.732-3.26-39.968-6.53-13.236-3.27-26.465-6.532-39.969-6.532z" fill="#002673" fill-rule="evenodd"></path><path d="M400 134.829c-77.45 0-140.312 62.865-140.313 140.313 0 77.447 62.862 140.312 140.313 140.312 32.201 0 61.726-10.685 85.414-28.95l-10.965-44.5c-18.327 20.488-44.822 33.2-74.449 33.2-55.23 0-100.063-44.835-100.063-100.062 0-55.228 44.833-100.063 100.063-100.063 29.627 0 56.184 12.943 74.512 33.43l10.976-44.504C461.8 145.74 432.201 134.829 400 134.829z" fill="#c70f2e"></path><g fill-rule="evenodd"><path d="m336.416 285.577 67.573 69.968c2.144 2.22 6.114 5.182 8.718 5.912-.59-2.64-3.333-6.763-5.434-9.023l-66.234-71.237-4.623 4.38z" fill="#fff" stroke="#002673" stroke-width="1.5"></path><path d="m339.043 283.088 55.318 58.56 5.636 6.396-6.084-5.972-55.5-58.386.63-.598z" fill="#002673"></path><path d="M346.422 267.809c-1.614-1.613-4.032-1.988-5.543-1.11-1.495.868-1.795 2.201-1.196 3.715.524 1.323 3.093 2.009 4.5.64-.06 1.121-.313 1.445-.732 2.19-.96 1.709-2.693 3.51-4.52 5.145-1.133-2.9-3.142-4.195-3.994-3.701-1.513-3.77-3.624-4.53-4.273-4.074-1.01-3.116-3.125-4.523-4.158-4.033-.21-2.203-2.727-4.377-3.593-3.594-.307-1.549-.937-2.4-1.673-2.832a4.386 4.386 0 0 0-1.191-2.876 4.403 4.403 0 0 0-6.222-.168 4.403 4.403 0 0 0-.168 6.223c.97 1.023 2.312 1.452 3.616 1.327.037 2.43 2.492 4.545 3.41 3.955.335 2.919 3.077 4.746 4.007 4.662.85 2.676 2.447 4.946 3.71 4.27 1.24 4.179 2.4 4.115 3.727 4.329.224.783.458 1.299.685 1.71-2.958 2.71-5.243 5.636-5.21 9.315.045 4.904 4.8 6.73 7.218 5.326 1.496-.868 1.815-2.22 1.215-3.734-.523-1.323-3.112-1.99-4.518-.622.059-1.12.294-1.464.712-2.21 1.445-2.572 4.675-5.333 7.273-7.453 4.413-3.6 8.638-7.178 8.592-12.185-.016-1.839-.705-3.247-1.674-4.215z" fill="#002673"></path></g><path d="M485.064 261.792a2.992 2.992 0 0 0-4.212-.113 2.951 2.951 0 0 0-.908 2.29c-1.662-.677-3.664-.376-5.05.939-1.161 1.1-1.592 2.65-1.371 4.122l-2.311-.156-.268 3.7a2.884 2.884 0 0 0-2.28.768c-.822.78-1.067 1.933-.756 2.953l-.494-.521c-.565-.596-.994-.494-1.293-.204l-7.574 7.363c-1.342-1.327-2.122-2.891-1.859-4.397.441-2.518 2.117-4.27 5.043-4.194 5.005.13 4.734-6.08 4.027-9.829-.653-3.46-.174-6.118.523-8.304.333-1.046-2.522-.752-2.88.75-.38-.988-2.796.136-3.015 1.539-.732-.56-2.78.559-2.768 2.146-1.235-.105-2.612 1.225-2.379 2.402-1.814.63-2.473 1.67-2.077 3.069-1.41.48-2.158 1.603-1.632 3.344-1.817.889-1.698 2.4-1.16 3.92-1.39.699-1.365 2.582-.565 4.277-.966.604-1.207 1.775.38 4.809-.971.632-.169 3.54 1.812 6.824L433.7 307.036c-.743-2.973-1.276-6.622-1.032-9.946.347-4.744 1.856-8.474 6.257-10.221.355 1.435 1.567 3.035 3.15 3.942 1.798 1.029 5.116.705 6.492-1.35 1.377-2.057.513-3.845-1.016-5.636-1.683-1.972-6.4-3.051-9.847-1.957-6.907 2.193-9.704 8.829-10.146 14.86-.288 3.924.25 7.83 1.058 11.132a19.071 19.071 0 0 0-2.228-.455c-2.791-.38-6.093-.016-8.607 2.367-2.53 2.4-3.126 5.773-2.942 8.654a18.2 18.2 0 0 0 .413 2.872 12.705 12.705 0 0 0-1.839-.2c-2.461-.066-5.218.657-7.394 2.72-2.226 2.11-2.973 4.926-2.983 7.41-.003.884.092 1.732.234 2.528-.521-.1-1.058-.172-1.614-.194-2.089-.079-4.435.539-6.29 2.298-1.892 1.793-2.519 4.2-2.522 6.312-.001.806.083 1.57.222 2.283a9.33 9.33 0 0 0-1.502-.153c-1.79-.022-3.78.54-5.381 2.058-1.617 1.533-2.245 3.54-2.307 5.34a9.783 9.783 0 0 0 .137 1.923c-2.792-.858-5.824-.691-6.878 3.148 1.89-2.043 4.008-1.91 6.254-.944l-4.328 4.213 2.215 2.337 4.42-4.117c.853 2.304.89 4.43-1.258 6.215 3.89-.848 4.218-3.866 3.51-6.7a9.783 9.783 0 0 0 1.913.24c1.8.033 3.838-.486 5.456-2.02 1.601-1.518 2.269-3.474 2.342-5.263a9.33 9.33 0 0 0-.072-1.507c.705.176 1.463.3 2.268.343 2.109.11 4.546-.387 6.438-2.18 1.856-1.76 2.597-4.07 2.63-6.16a10.69 10.69 0 0 0-.107-1.621c.787.183 1.629.324 2.512.368 2.48.123 5.332-.473 7.559-2.583 2.176-2.063 3.045-4.777 3.11-7.238.017-.636-.03-1.244-.1-1.847a18.25 18.25 0 0 0 2.845.565c2.867.339 6.268-.076 8.798-2.475 2.515-2.383 3.053-5.66 2.824-8.468a18.789 18.789 0 0 0-.335-2.249c3.254.984 7.126 1.728 11.06 1.65 6.046-.119 12.821-2.557 15.38-9.337 1.277-3.383.45-8.151-1.428-9.937-1.707-1.623-3.447-2.58-5.573-1.316-2.127 1.264-2.627 4.56-1.696 6.41.82 1.63 2.354 2.926 3.768 3.356-1.98 4.302-5.785 5.61-10.54 5.703-3.332.066-6.948-.661-9.877-1.562l18.7-17.323c3.172 2.153 6.034 3.11 6.717 2.175 2.944 1.746 4.127 1.568 4.782.635 1.649.89 3.528 1.016 4.3-.336 1.49.619 2.992.818 3.977-.948 1.71.618 2.872-.069 3.426-1.452 1.376.47 2.45-.132 3.176-1.91 1.162.296 2.564-1.008 2.525-2.247 1.585.096 2.812-1.888 2.292-2.649 1.412-.144 2.681-2.478 1.715-2.909 1.52-.277 1.947-3.132.885-2.855-2.22.579-4.9.915-8.32.078-3.706-.906-9.893-1.508-10.03 3.496-.081 2.926-1.92 4.506-4.458 4.812-1.518.183-3.038-.68-4.291-2.09l7.757-7.17c.306-.284.43-.707-.135-1.303l-.476-.502c.997.36 2.149.163 2.972-.617.623-.591.912-1.4.886-2.197l3.71-.108-.032-2.278a4.675 4.675 0 0 0 4.19-1.187c1.387-1.314 1.795-3.297 1.207-4.992a2.951 2.951 0 0 0 2.336-.785c1.187-1.126 1.256-3.005.13-4.193zm-56.908 50.61-8.444 8.187c-.204-.793-.37-1.625-.423-2.458-.134-2.08.286-3.9 1.567-5.115 1.297-1.23 2.93-1.44 4.943-1.166.78.106 1.575.315 2.357.552zm3.294 3.476c.198.8.38 1.61.444 2.402.166 2.024-.132 3.644-1.429 4.873-1.28 1.215-3.122 1.536-5.19 1.292-.837-.099-1.663-.324-2.45-.574l8.625-7.993zm-13.43 12.438c.094.572.157 1.151.141 1.735-.045 1.688-.554 3.275-1.91 4.56-1.305 1.237-2.987 1.617-4.746 1.53a9.684 9.684 0 0 1-1.668-.252l8.182-7.573zm-3.022-3.148-7.96 7.729c-.09-.534-.166-1.081-.163-1.642.006-1.76.475-3.42 1.78-4.657 1.356-1.286 2.968-1.709 4.655-1.664.572.016 1.134.113 1.688.234zm-12.152 11.776-6.705 6.502a8.37 8.37 0 0 1-.116-1.283c.002-1.51.417-2.924 1.537-3.986 1.156-1.096 2.526-1.473 3.971-1.418.447.016.88.088 1.313.185zm2.745 2.897c.076.444.14.885.134 1.34-.023 1.445-.472 2.793-1.629 3.89-1.12 1.061-2.554 1.4-4.062 1.32a8.408 8.408 0 0 1-1.313-.185l6.87-6.365zm-13.044 7.122-6.066 5.86a6.95 6.95 0 0 1-.047-1.055c.045-1.306.45-2.554 1.506-3.554 1.071-1.015 2.322-1.369 3.593-1.353a6.55 6.55 0 0 1 1.014.102zm2.507 2.646c.04.33.062.679.049 1.017-.053 1.271-.473 2.5-1.544 3.516-1.055 1-2.322 1.34-3.63 1.314a6.901 6.901 0 0 1-1.069-.122l6.194-5.725z" fill="#002673"></path><path d="M396.363 224.432c-.943-.042-1.515.62-1.328 1.553.326.9 1.796 1.407 2.429 0 1.653 1.549.853 3.829-.424 5.112-1.276 1.282-3.98 1.416-4.8.48 1.014-.68.916-1.499.423-1.949-1.161-1.06-2.297.15-2.146 1.073.247 1.51 1.162 2.437 2.344 2.88l-15.617.396c-1.296-2.485-2.897-4.204-6.241-4.208-1.985-.002-4.534.806-5.197 3.785-1.578.267-2.796 1.626-2.796 3.276 0 1.466.966 2.717 2.288 3.163v1.355a27.278 27.278 0 0 0-4.66.565v.621c1.81.378 3.67.593 5.733.593a27.59 27.59 0 0 0 5.733-.593v-.621a27.505 27.505 0 0 0-4.66-.565v-1.355a3.34 3.34 0 0 0 .057-6.298c.515-1.828 1.97-2.269 3.53-2.26 2.73.017 4.555 2.546 4.914 5.084l22.903 1.017v3.445a4.003 4.003 0 0 0-2.965 3.869c0 2.216 1.793 4.038 4.01 4.038 2.216 0 4.01-1.822 4.01-4.038 0-1.865-1.27-3.42-2.994-3.87v-3.444l22.932-1.017c.359-2.538 2.184-5.067 4.914-5.083 1.56-.01 3.014.431 3.53 2.259a3.34 3.34 0 0 0 .056 6.298v1.355a27.505 27.505 0 0 0-4.66.565v.621c1.81.378 3.67.593 5.733.593 2.064 0 3.924-.215 5.733-.593v-.621a27.278 27.278 0 0 0-4.66-.565v-1.355c1.323-.446 2.288-1.697 2.288-3.163 0-1.65-1.218-3.009-2.796-3.276-.663-2.98-3.212-3.787-5.196-3.785-3.344.004-4.946 1.723-6.241 4.208l-15.617-.395c1.182-.444 2.097-1.372 2.344-2.88.15-.923-1.014-2.134-2.175-1.074-.493.45-.562 1.27.452 1.949-.821.936-3.553.802-4.83-.48-1.276-1.283-2.075-3.563-.423-5.112.633 1.407 2.103.9 2.429 0 .25-1.243-.841-1.99-2.372-1.242-1.103.539-2.002 1.555-2.457 2.739-.454-1.188-1.351-2.199-2.457-2.74-.383-.186-.759-.296-1.073-.31zm3.53 6.354a4.696 4.696 0 0 0 1.073 1.553 5.325 5.325 0 0 0 1.779 1.13l-2.852-.085-2.853.085a5.325 5.325 0 0 0 1.78-1.13 4.696 4.696 0 0 0 1.073-1.553zm-33.522 4.123c1.065 0 1.92.856 1.92 1.92 0 1.066-.855 1.92-1.92 1.92s-1.949-.854-1.949-1.92c0-1.064.884-1.92 1.949-1.92zm67.043 0c1.065 0 1.949.856 1.949 1.92 0 1.066-.884 1.92-1.949 1.92a1.915 1.915 0 0 1-1.92-1.92c0-1.064.855-1.92 1.92-1.92zm-33.521 7.625a2.314 2.314 0 0 1 2.315 2.316 2.314 2.314 0 0 1-2.315 2.316 2.314 2.314 0 0 1-2.316-2.316 2.314 2.314 0 0 1 2.316-2.316z" fill="#002673" fill-rule="evenodd" stroke="#002673" stroke-width=".5"></path><path fill="#002673" d="M398.605 179.265h2.576v42.526h-2.576z"></path><g stroke="#002673" stroke-width="1.102"><path d="M231.817 202.722c0 3.356-5.081 6.08-11.342 6.08s-11.342-2.724-11.342-6.08h22.684z" fill="#002673" stroke-linecap="round" stroke-linejoin="round" transform="matrix(.9037 0 0 .91122 234.176 74.824)"></path><path d="M231.817 202.722c0 .946-5.081 1.714-11.342 1.714s-11.342-.768-11.342-1.714 5.081-1.713 11.342-1.713c6.26 0 11.342.767 11.342 1.713z" fill="#fff" stroke-linecap="round" transform="matrix(.9037 0 0 .91122 234.176 74.824)"></path><path d="M220.475 184.634v19.907m0-19.907-8.25 16.907m8.25-16.907 8.25 16.907" fill="none" transform="matrix(.9037 0 0 .91122 234.176 74.824)"></path></g><g stroke="#002673" stroke-width="1.102"><path d="M231.817 202.722c0 3.356-5.081 6.08-11.342 6.08s-11.342-2.724-11.342-6.08h22.684z" fill="#002673" stroke-linecap="round" stroke-linejoin="round" transform="matrix(-.9037 0 0 .91122 565.599 74.824)"></path><path d="M231.817 202.722c0 .946-5.081 1.714-11.342 1.714s-11.342-.768-11.342-1.714 5.081-1.713 11.342-1.713c6.26 0 11.342.767 11.342 1.713z" fill="#fff" stroke-linecap="round" transform="matrix(-.9037 0 0 .91122 565.599 74.824)"></path><path d="M220.475 184.634v19.907m0-19.907-8.25 16.907m8.25-16.907 8.25 16.907" fill="none" transform="matrix(-.9037 0 0 .91122 565.599 74.824)"></path></g><path style="text-align:center;line-height:100%;-inkscape-font-specification:Swis721 Cn BT" d="m336.092 242.073.942-1.57 1.41.845c.68.408 1.276.577 1.786.506.51-.072.928-.378 1.253-.92.394-.657.464-1.232.212-1.726-.252-.495-1.078-1.162-2.479-2.002l-10.207-6.123.942-1.57 11.314 6.787c1.217.73 1.953 1.549 2.206 2.455.254.907.037 1.935-.652 3.082-.62 1.035-1.398 1.631-2.334 1.79-.936.16-2.006-.122-3.21-.845l-1.183-.71zm-3.327-16.741 1.22-1.453 8.752 7.349c1.217 1.021 2.208 1.559 2.975 1.612.767.053 1.5-.337 2.2-1.17.71-.845.97-1.688.782-2.527-.188-.84-.842-1.73-1.963-2.672l-8.752-7.349 1.191-1.419 8.49 7.13c1.1.921 1.823 1.635 2.172 2.14.35.504.576 1.05.68 1.635.124.71.076 1.416-.145 2.12-.22.702-.61 1.386-1.168 2.05-.572.682-1.202 1.195-1.89 1.54-.688.344-1.38.492-2.08.443-.477-.026-.984-.185-1.52-.478-.538-.292-1.356-.9-2.454-1.822l-8.49-7.13zm21.07 1.652-10.787-13.125 1.96-1.61 13.803 7.517-9.389-11.146 1.415-1.163 10.787 13.125-1.875 1.54-14.145-7.793 9.645 11.492-1.415 1.163zm13.74-17.038 1.642-.907c1.023 1.897 1.428 3.553 1.214 4.97-.213 1.415-1.037 2.52-2.473 3.313-1.532.847-3.016.84-4.452-.017s-2.883-2.606-4.34-5.245c-1.523-2.755-2.26-4.95-2.21-6.587.05-1.637.889-2.905 2.517-3.805 1.358-.75 2.624-.935 3.797-.553 1.172.381 2.16 1.3 2.965 2.754l.1.183-1.602.886c-.562-1.017-1.241-1.684-2.038-2-.796-.316-1.606-.247-2.43.209-1.01.558-1.467 1.45-1.369 2.678.098 1.227.777 2.98 2.036 5.259 1.23 2.227 2.335 3.686 3.313 4.376.978.69 1.992.746 3.041.166.843-.465 1.3-1.17 1.372-2.112.072-.943-.246-2.055-.954-3.336l-.128-.232zm9.602 2.724-5.031-14.392-4.093 1.431-.575-1.645 9.768-3.415.575 1.645-3.843 1.344 5.031 14.391-1.832.64zm8.036-9.16 4.458-.764-3.734-8.392-.724 9.156zm-2.414 7.13 1.694-17.527 2.381-.409 7.504 15.95-1.892.324-2.1-4.609-5.306.91-.39 5.037-1.891.324zm23.333-7.079 1.811.269-.24 1.625c-.117.786-.045 1.401.217 1.845.261.444.705.712 1.33.805.757.112 1.315-.043 1.675-.466.36-.422.66-1.441.899-3.056l1.744-11.775 1.812.269-1.934 13.051c-.208 1.404-.682 2.397-1.422 2.979-.74.581-1.773.774-3.097.578-1.193-.177-2.043-.667-2.548-1.47-.505-.804-.655-1.9-.45-3.29l.203-1.364zm13.9-9.56 1.812.566-3.409 10.909c-.474 1.516-.587 2.638-.341 3.366.246.728.889 1.255 1.928 1.58 1.053.328 1.93.244 2.633-.253.702-.497 1.272-1.444 1.708-2.84l3.409-10.91 1.769.554-3.307 10.582c-.428 1.368-.807 2.311-1.138 2.828a4.094 4.094 0 0 1-1.248 1.257 4.426 4.426 0 0 1-2.01.683c-.735.068-1.516-.028-2.344-.287-.85-.265-1.565-.649-2.148-1.15-.583-.503-.987-1.085-1.21-1.749-.16-.45-.209-.98-.146-1.588.063-.608.308-1.597.736-2.966l3.307-10.582zm9.27 21.532 3.575-17.272 1.833.946-3.32 14.76 10.202-11.21 1.686.87-11.946 12.953-2.03-1.047zm12.594-.221 3.617 2.717 3.539-8.476-7.156 5.759zm-6.842 3.139 13.909-10.8 1.931 1.45-6.446 16.406-1.535-1.153 1.91-4.691-4.304-3.234-3.93 3.174-1.535-1.152zm10.02 7.718 12.428-11.582 1.73 1.857-6.645 14.244 10.541-10.064 1.248 1.34-12.428 11.582-1.655-1.776 6.9-14.602-10.87 10.34-1.25-1.339zm9.814 11.669 12.715-8.412-2.392-3.616 1.453-.962 5.71 8.63-1.454.962-2.246-3.395-12.714 8.412-1.072-1.62z" font-size="40" font-weight="400" text-anchor="middle" fill="#002673" stroke="#002673" stroke-width=".5" font-family="Swis721 Cn BT"></path></svg>