<svg xmlns="http://www.w3.org/2000/svg" width="900" height="600"><path d="M300.556 1.133h300v600h-300v-600z" fill="#fff"/><path d="M.556 1.133h300v600h-300v-600z" fill="#eb2d2e"/><path d="M600.556 1.133h300v600h-300v-600z" fill="navy"/><g style="text-align:start;line-height:125%;-inkscape-font-specification:Century Gothic" font-size="21.518" font-weight="400" font-family="Century Gothic"><path d="M334.046 436.903h2.982c1.71 0 2.864.08 3.46.239a3.814 3.814 0 0 1 2.098 1.383c.542.697.814 1.574.814 2.63 0 1.062-.265 1.939-.794 2.63-.53.69-1.259 1.154-2.188 1.393-.679.174-1.948.26-3.807.26h-1.069v7.418h-1.496zm1.496 1.551v5.423l2.534.032c1.025 0 1.775-.1 2.25-.298.475-.199.848-.52 1.12-.965.271-.445.407-.942.407-1.492 0-.535-.136-1.024-.407-1.469a2.287 2.287 0 0 0-1.074-.949c-.445-.188-1.172-.282-2.184-.282zM346.474 436.903h2.982c1.663 0 2.79.073 3.38.217a3.825 3.825 0 0 1 2.167 1.394c.557.712.835 1.589.835 2.63 0 .867-.192 1.63-.575 2.288a3.66 3.66 0 0 1-1.644 1.491c-.712.336-1.696.508-2.952.515l5.385 7.418h-1.853l-5.374-7.418h-.855v7.418h-1.496zm1.496 1.562v5.422l2.575.022c.998 0 1.736-.101 2.214-.303a2.342 2.342 0 0 0 1.12-.971c.268-.445.402-.942.402-1.491 0-.535-.136-1.022-.407-1.459a2.307 2.307 0 0 0-1.07-.938c-.44-.188-1.173-.282-2.198-.282zM366.19 436.502c2.266 0 4.163.806 5.69 2.418 1.526 1.613 2.29 3.597 2.29 5.954 0 2.336-.762 4.317-2.285 5.944-1.524 1.626-3.381 2.44-5.573 2.44-2.22 0-4.092-.81-5.619-2.43-1.527-1.62-2.29-3.578-2.29-5.878 0-1.532.348-2.953 1.043-4.262.696-1.308 1.644-2.333 2.845-3.074a7.29 7.29 0 0 1 3.899-1.112zm.07 1.562c-1.105 0-2.154.307-3.144.921a6.443 6.443 0 0 0-2.321 2.484c-.556 1.041-.835 2.202-.835 3.481 0 1.895.616 3.494 1.848 4.8 1.231 1.304 2.716 1.957 4.453 1.957 1.16 0 2.234-.3 3.221-.9a6.26 6.26 0 0 0 2.311-2.462c.553-1.041.83-2.198.83-3.47 0-1.266-.277-2.41-.83-3.433a6.41 6.41 0 0 0-2.336-2.457c-1.004-.614-2.07-.921-3.196-.921zM391.616 439.582l-1.16 1.171c-.835-.875-1.75-1.538-2.744-1.99-.994-.452-1.962-.678-2.906-.678-1.174 0-2.292.308-3.354.922a6.472 6.472 0 0 0-2.468 2.5 6.774 6.774 0 0 0-.875 3.335c0 1.2.302 2.34.906 3.422a6.634 6.634 0 0 0 2.504 2.548 6.853 6.853 0 0 0 3.501.927c1.54 0 2.843-.462 3.909-1.388 1.065-.925 1.696-2.125 1.893-3.6h-4.774v-1.54h6.453c-.013 2.465-.7 4.423-2.06 5.872-1.361 1.45-3.182 2.175-5.462 2.175-2.768 0-4.96-1.005-6.575-3.015-1.242-1.547-1.863-3.337-1.863-5.369 0-1.51.357-2.917 1.07-4.218.712-1.302 1.689-2.32 2.93-3.053 1.242-.734 2.647-1.101 4.214-1.101a8.87 8.87 0 0 1 3.583.732c1.12.488 2.212 1.27 3.278 2.348zM395.453 436.903h2.982c1.663 0 2.79.073 3.38.217a3.825 3.825 0 0 1 2.168 1.394c.556.712.834 1.589.834 2.63 0 .867-.191 1.63-.575 2.288a3.66 3.66 0 0 1-1.644 1.491c-.712.336-1.696.508-2.951.515l5.384 7.418h-1.852l-5.375-7.418h-.855v7.418h-1.496zm1.496 1.562v5.422l2.576.022c.997 0 1.735-.101 2.213-.303a2.342 2.342 0 0 0 1.12-.971c.268-.445.402-.942.402-1.491 0-.535-.136-1.022-.407-1.459a2.307 2.307 0 0 0-1.069-.938c-.44-.188-1.174-.282-2.198-.282zM408.044 436.903h8.58v1.573h-7.084v4.989h7.023v1.561h-7.023v6.258h7.023v1.572h-8.519zM417.683 449.885l1.272-.813c.896 1.756 1.93 2.635 3.105 2.635.502 0 .974-.125 1.415-.374.44-.25.777-.584 1.007-1.003.231-.42.346-.864.346-1.334 0-.535-.17-1.06-.508-1.573-.469-.709-1.324-1.562-2.565-2.56-1.25-1.004-2.026-1.731-2.331-2.18-.53-.751-.794-1.565-.794-2.44 0-.694.156-1.326.468-1.897a3.445 3.445 0 0 1 1.318-1.35 3.616 3.616 0 0 1 1.847-.494c.706 0 1.366.186 1.98.558.614.373 1.264 1.058 1.95 2.056l-1.222.987c-.563-.796-1.043-1.32-1.44-1.573a2.368 2.368 0 0 0-1.298-.38c-.604 0-1.098.196-1.481.586-.383.39-.575.871-.575 1.442 0 .347.068.684.203 1.009.136.325.384.68.743 1.063.197.202.842.734 1.934 1.594 1.296 1.02 2.185 1.927 2.667 2.722.482.796.723 1.595.723 2.397 0 1.157-.412 2.162-1.237 3.015-.824.853-1.827 1.28-3.008 1.28-.909 0-1.733-.259-2.473-.776-.74-.517-1.422-1.382-2.046-2.597zM428.065 449.885l1.273-.813c.895 1.756 1.93 2.635 3.104 2.635.502 0 .974-.125 1.415-.374.44-.25.777-.584 1.008-1.003.23-.42.346-.864.346-1.334 0-.535-.17-1.06-.51-1.573-.468-.709-1.323-1.562-2.564-2.56-1.249-1.004-2.026-1.731-2.331-2.18-.53-.751-.794-1.565-.794-2.44 0-.694.156-1.326.468-1.897a3.445 3.445 0 0 1 1.318-1.35 3.616 3.616 0 0 1 1.848-.494c.705 0 1.365.186 1.98.558.613.373 1.263 1.058 1.949 2.056l-1.222.987c-.563-.796-1.043-1.32-1.44-1.573a2.368 2.368 0 0 0-1.298-.38c-.604 0-1.098.196-1.48.586-.384.39-.576.871-.576 1.442 0 .347.068.684.204 1.009.135.325.383.68.743 1.063.196.202.841.734 1.933 1.594 1.297 1.02 2.185 1.927 2.667 2.722.482.796.723 1.595.723 2.397 0 1.157-.412 2.162-1.237 3.015-.824.853-1.827 1.28-3.007 1.28-.91 0-1.734-.259-2.474-.776-.74-.517-1.422-1.382-2.046-2.597z"/></g><g style="text-align:start;line-height:125%;-inkscape-font-specification:Century Gothic" font-size="21.518" font-weight="400" font-family="Century Gothic"><path d="M460.116 436.625h2.982c1.71 0 2.864.08 3.46.239a3.814 3.814 0 0 1 2.097 1.383c.543.697.815 1.574.815 2.63 0 1.062-.265 1.939-.794 2.63-.53.69-1.259 1.155-2.189 1.393-.678.174-1.947.26-3.806.26h-1.07v7.419h-1.495zm1.496 1.551v5.423l2.534.032c1.025 0 1.775-.1 2.25-.298.475-.199.848-.52 1.12-.965.27-.445.407-.942.407-1.491 0-.536-.136-1.025-.408-1.47a2.287 2.287 0 0 0-1.073-.949c-.445-.188-1.173-.282-2.184-.282zM472.544 436.625h2.982c1.662 0 2.789.073 3.38.217a3.825 3.825 0 0 1 2.167 1.394c.557.712.835 1.589.835 2.63 0 .867-.192 1.63-.575 2.288a3.66 3.66 0 0 1-1.644 1.491c-.712.336-1.696.508-2.952.515l5.385 7.419h-1.853l-5.374-7.419h-.855v7.419h-1.496zm1.496 1.562v5.423l2.575.021c.998 0 1.736-.101 2.214-.303a2.342 2.342 0 0 0 1.12-.971c.268-.445.402-.942.402-1.491 0-.535-.136-1.022-.408-1.459a2.307 2.307 0 0 0-1.068-.938c-.441-.188-1.174-.282-2.199-.282zM492.26 436.224c2.266 0 4.163.806 5.69 2.418 1.526 1.613 2.29 3.597 2.29 5.954 0 2.336-.762 4.317-2.286 5.944-1.523 1.626-3.38 2.44-5.572 2.44-2.22 0-4.092-.81-5.619-2.43-1.527-1.62-2.29-3.578-2.29-5.878 0-1.532.348-2.953 1.043-4.262.696-1.308 1.644-2.333 2.845-3.074a7.29 7.29 0 0 1 3.899-1.112zm.07 1.562c-1.105 0-2.154.307-3.144.922a6.443 6.443 0 0 0-2.321 2.483c-.557 1.041-.835 2.202-.835 3.481 0 1.895.616 3.494 1.848 4.8 1.231 1.304 2.716 1.957 4.453 1.957 1.16 0 2.234-.3 3.221-.9a6.26 6.26 0 0 0 2.31-2.462c.554-1.041.83-2.198.83-3.47 0-1.266-.276-2.41-.83-3.433a6.409 6.409 0 0 0-2.335-2.456c-1.004-.615-2.07-.922-3.196-.922zM501.695 449.607l1.272-.813c.896 1.756 1.93 2.635 3.105 2.635.502 0 .974-.125 1.415-.374.44-.25.777-.584 1.007-1.003.231-.42.346-.864.346-1.334 0-.535-.17-1.06-.508-1.573-.469-.708-1.324-1.562-2.565-2.56-1.25-1.004-2.026-1.731-2.331-2.18-.53-.751-.794-1.565-.794-2.44 0-.694.156-1.326.468-1.897a3.445 3.445 0 0 1 1.318-1.35 3.616 3.616 0 0 1 1.847-.494c.706 0 1.366.186 1.98.558.614.373 1.264 1.058 1.95 2.056l-1.222.987c-.563-.796-1.043-1.32-1.44-1.573a2.368 2.368 0 0 0-1.298-.38c-.604 0-1.098.196-1.481.586-.383.39-.575.871-.575 1.442 0 .348.068.684.203 1.01.136.324.384.679.743 1.062.197.202.842.734 1.934 1.594 1.296 1.02 2.185 1.927 2.667 2.722.482.796.723 1.595.723 2.397 0 1.157-.412 2.162-1.237 3.015-.824.853-1.827 1.28-3.008 1.28-.909 0-1.733-.259-2.473-.776-.74-.517-1.422-1.382-2.046-2.597zM513.614 436.625h2.983c1.71 0 2.863.08 3.46.239a3.814 3.814 0 0 1 2.097 1.383c.543.697.814 1.574.814 2.63 0 1.062-.264 1.939-.794 2.63-.529.69-1.258 1.155-2.188 1.393-.679.174-1.948.26-3.807.26h-1.069v7.419h-1.496zm1.496 1.551v5.423l2.535.032c1.025 0 1.774-.1 2.25-.298.474-.199.848-.52 1.119-.965.271-.445.407-.942.407-1.491 0-.536-.136-1.025-.407-1.47a2.287 2.287 0 0 0-1.074-.949c-.444-.188-1.172-.282-2.183-.282zM525.971 436.625h8.58v1.573h-7.084v4.989h7.023v1.561h-7.023v6.258h7.023v1.573h-8.519zM537.239 436.625h2.982c1.662 0 2.789.073 3.38.217a3.825 3.825 0 0 1 2.167 1.394c.557.712.835 1.589.835 2.63 0 .867-.192 1.63-.575 2.288a3.66 3.66 0 0 1-1.644 1.491c-.713.336-1.696.508-2.952.515l5.385 7.419h-1.853l-5.374-7.419h-.855v7.419h-1.496zm1.496 1.562v5.423l2.575.021c.998 0 1.736-.101 2.214-.303a2.342 2.342 0 0 0 1.12-.971c.268-.445.402-.942.402-1.491 0-.535-.136-1.022-.408-1.459a2.307 2.307 0 0 0-1.068-.938c-.441-.188-1.174-.282-2.199-.282zM549.606 436.625h1.496v15.954h-1.496zM553.056 438.176v-1.55h8.214v1.55h-3.338v14.403h-1.527v-14.403zM562.237 436.625h1.73l3.828 6.572 3.766-6.572h1.73l-4.743 8.33v7.624h-1.476v-7.625z"/></g><g fill-rule="evenodd"><path d="M447.09 450.747h1.169v2.15h-1.17v-2.15zM447.141 436.474h1.17v2.261h-1.17v-2.261z"/><path d="M450.832 447.467l-1.2-.195c-.25 1.558-.88 2.337-1.891 2.337-.546 0-1.02-.231-1.42-.694-.4-.462-.6-1.061-.6-1.797 0-.692.184-1.25.551-1.671.368-.422.82-.633 1.355-.633.227 0 .509.054.844.162l-.138-1.281-.187.016c-.59 0-1.068-.181-1.436-.544-.367-.362-.551-.846-.551-1.452 0-.557.154-1.004.462-1.343a1.47 1.47 0 0 1 1.128-.507c.46 0 .848.178 1.164.532.316.354.518.89.604 1.61l1.193-.26c-.151-1.016-.492-1.784-1.022-2.303a2.647 2.647 0 0 0-1.923-.78c-.79 0-1.46.293-2.012.877-.551.584-.827 1.32-.827 2.207 0 .54.117 1.02.353 1.436.235.416.563.743.985.981-.39.108-.71.287-.965.536-.254.248-.46.581-.617.997a3.934 3.934 0 0 0-.235 1.396c0 1.092.322 1.986.965 2.681.644.695 1.415 1.043 2.313 1.043.832 0 1.538-.303 2.117-.909.579-.606.909-1.42.99-2.442z"/></g><g style="text-align:start;line-height:125%;-inkscape-font-specification:Century Gothic Bold" font-size="35.552" font-weight="700" fill="navy" font-family="Century Gothic"><path d="M377.78 247.537l-3.402 3.246c-2.315-2.441-4.918-3.662-7.812-3.662-2.442 0-4.499.833-6.171 2.5-1.672 1.666-2.509 3.72-2.509 6.162 0 1.701.37 3.212 1.112 4.53.74 1.32 1.788 2.356 3.142 3.108 1.354.752 2.858 1.129 4.513 1.129 1.412 0 2.702-.264 3.871-.79 1.17-.527 2.454-1.485 3.854-2.873l3.298 3.437c-1.886 1.84-3.668 3.116-5.346 3.828-1.678.711-3.594 1.067-5.746 1.067-3.97 0-7.22-1.258-9.748-3.775-2.528-2.518-3.793-5.744-3.793-9.678 0-2.546.576-4.809 1.727-6.788 1.152-1.979 2.801-3.57 4.948-4.774a13.953 13.953 0 0 1 6.935-1.805c2.106 0 4.135.445 6.085 1.336a14.553 14.553 0 0 1 5.043 3.802zM382.016 243.041h4.861v20.901h7.083v4.635h-11.944zM397.657 243.041h13.94v4.757h-9.114v4.617h9.114v4.67h-9.114v6.718h9.114v4.774h-13.94zM414.166 243.041h5l6.423 18.14 6.51-18.14h5l-9.201 25.536h-4.687zM441.056 243.041h13.94v4.757h-9.114v4.617h9.114v4.67h-9.114v6.718h9.114v4.774h-13.94zM459.51 243.041h4.86v20.901h7.083v4.635h-11.944zM482.91 243.041h4.93l9.826 25.536h-5.052l-1.996-5.26h-10.416l-2.083 5.26h-5.052zm2.5 6.77l-3.403 8.767h6.788zM501.467 243.041h4.653l10.954 16.804v-16.804h4.86v25.536h-4.67l-10.936-16.752v16.752h-4.86zM527.785 243.041h5.763c3.715 0 6.475.46 8.28 1.38 1.806.92 3.293 2.416 4.462 4.488 1.169 2.071 1.753 4.49 1.753 7.256 0 1.967-.327 3.776-.98 5.425-.655 1.649-1.557 3.017-2.709 4.105-1.151 1.088-2.398 1.84-3.74 2.257-1.343.417-3.67.625-6.98.625h-5.85zm4.843 4.687v16.092h2.257c2.222 0 3.833-.254 4.834-.763 1.001-.51 1.82-1.366 2.457-2.57.636-1.203.954-2.685.954-4.444 0-2.708-.758-4.808-2.274-6.301-1.365-1.343-3.558-2.014-6.579-2.014z"/></g><g><path d="M355.048 277.358h192.214c-.708 62.045-27.475 112.066-96.857 142.642-82.295-33.506-98.841-85.29-95.357-142.642z" fill="none" stroke="#eb2d2e" stroke-width="6"/><path d="M451.067 234.583l-96.45.107.382-19.921c-.207-6.666 1.27-16.681 8.911-18.633 25.35-6.207 24.73-10.94 31.175-16.971 31.937 19.515 40.837 14.991 55.982 16.985 27.811.253 36.994-8.975 52.005-17.005 8.025 7.611 13.043 13.211 35.152 16.176 6.959 1.408 9.136 12.702 8.911 19.428l.382 19.922-96.45-.088z" fill="none" stroke="navy" stroke-width="6"/><path d="M443.312 391.673c-.917-.05-3.436 2.048-5.153 3.071-1.034.636-2.043 3.566.68 6.398 2.447 2.443 6.563 4.187 4.174 8.653l-1.107 2.92-1.022-2.33-3.498.527 2.749-2.583c2.188-2.4-1.662-4.921-3.34-6.266-6.141-4.611-4.11-6.784-.925-8.604l6.333-2.948c.177-.242 1.68-.903.032-1.406-5.336-1.628-6.411-2.3-8.528-3.752-3.578-2.849-3.15-6.618-1.066-9.006 4.104-3.115 5.919-3.035 9.061-2.145 4.94 2.233 6.061 7.074 7.77 12.217 1.709-4.94 2.83-9.781 7.77-12.014 3.143-.89 4.958-.97 9.06 2.144 2.085 2.389 2.513 6.158-1.065 9.006-2.116 1.453-3.192 2.124-8.528 3.753-1.647.502-.144 1.164.032 1.406l6.333 2.948c3.185 1.82 5.217 3.992-.925 8.603-1.678 1.345-5.528 3.867-3.34 6.267l2.749 2.583-3.498-.528-1.022 2.331-1.107-2.92c-2.388-4.467 1.728-6.21 4.174-8.654 2.723-2.831 1.715-5.761.68-6.397-1.717-1.024-4.235-3.121-5.153-3.071-4.088.59-8.227.534-12.32-.203zm8.734-5.046c1.162-.042 2.381.188 3.67.751 2.915-.54 5.735-1.269 7.256-3.216 2.856-3.93 2.081-5.86.4-7.184-1.555-1.071-3.11-1.435-4.664-.322-4.08 2.897-4.88 6.547-6.662 9.971zm-5.147-.202c-1.163-.043-2.382.187-3.67.75-2.915-.54-5.735-1.268-7.256-3.216-2.856-3.93-2.082-5.86-.4-7.183 1.555-1.072 3.11-1.435 4.664-.322 4.08 2.896 4.88 6.546 6.662 9.971z" fill="#eb2d2e" fill-rule="evenodd"/><path d="M459.946 380.094a47.201 47.201 0 0 1 9.284-5.624c-2.312 1.95-5.17 4.203-8.737 5.904l-15.437 15.863-.443-.124 14.957-15.572.376-.447zm13.229 2.556c-4.095.175-9.258.058-14.177-1.431.008-4.875.552-9.16 1.157-12.074.463 2.613.786 5.6-.076 11.054 4.802.499 9.184 1.42 13.096 2.45zm-6.485-5.564c5.19-4.486 9.308-2.415 13.776-2.477-4.57 1.746-9.09 5.572-13.776 2.477zm-2.498-1.74c1.87-5.11 5.385-5.568 8.366-7.539-2.442 3.092-4.099 7.49-8.366 7.54zm6.213-2.181c3.567-3.945 6.976-2.917 10.436-3.507-3.366 1.845-6.48 5.222-10.436 3.507zm11.241-3.686c3.687-4.813 7.506-3.932 11.283-4.904-3.596 2.398-6.818 6.522-11.283 4.904zm-3.525-.962c1.868-5.112 5.383-5.57 8.363-7.543-2.44 3.093-4.096 7.493-8.363 7.543zm-9.046-74.974c-5.077.797-7.19-2.242-10.269-4.033 3.72.735 8.113.092 10.269 4.033zm15.837 71.678c1.838-5.79 6.156-5.846 9.666-7.768-2.737 3.321-4.377 8.298-9.666 7.768zm9.258-4.999c2.414-6.188 5.667-6.95 8.647-9.477-2.648 3.825-4.769 9.154-8.647 9.477zm-4.068-2.48c.282-6.066 3.588-7.552 5.91-10.529-1.454 4.039-1.742 9.273-5.91 10.53zm11.467-10.092c-1.055-7.318 1.65-9.791 3.13-13.841-.457 5.138.412 11.463-3.13 13.841zm-4.714 4.94c-1.258-6.27 1.377-8.503 2.745-12.05-.314 4.448.73 9.87-2.745 12.05zm-.23-6.79c-2.77-5.688-.784-8.589-.346-12.397.801 4.377 3.154 9.307.347 12.398zm3.973-5.707c-4.29-5.316-2.455-10.623-2.613-15.932 1.727 5.106 5.389 9.75 2.613 15.932zm-3.83-10.491c-5.254-3.089-5.107-6.68-6.717-10.109 2.937 3.166 7.451 5.871 6.718 10.109zm6.457.95c-3.996-5.167-3.11-8.601-3.814-12.599 1.93 4.288 5.352 8.777 3.814 12.599zm-4.436-7.56c-6.27-2.216-7.103-5.197-9.704-7.93 3.899 2.43 9.3 4.377 9.704 7.93zm.158-6.27c-5.33-3.088-5.621-7.783-7.551-11.955 3.15 3.598 7.736 6.318 7.55 11.956zm-6.868-1.86c-5.832-1.49-6.58-4.994-8.981-7.843 3.616 2.22 8.639 3.549 8.981 7.843zm-1.24-6.097c-5.692-.565-6.748-5.044-9.312-8.249 3.657 2.075 8.563 2.624 9.312 8.249zm-9.197-6.164c-5.222.325-6.749-3.551-9.478-6.06 3.574 1.331 8.084 1.106 9.478 6.06zm1.586-2.448c-4.806-2.159-5.374-5.033-7.32-7.674 2.96 2.355 7.098 4.25 7.32 7.674zm-5.92-3.121c-5.66-.462-6.962-4.037-9.682-6.6 3.735 1.663 8.619 2.11 9.683 6.6zm-4.766-5.776c-5.182-.589-6.499-3.167-9.073-5.098 3.468 1.345 7.941 1.887 9.073 5.098zm-7.087-2.592c-4.91 1.596-7.422-1.074-10.715-2.356 3.78.136 8.036-1.198 10.715 2.356zm-26.686 91.02a47.201 47.201 0 0 0-9.284-5.624c2.312 1.95 5.17 4.202 8.737 5.904l16.222 16.298.355-.298-15.653-15.833-.377-.447zm-13.229 2.555c5.11-.028 9.176-.021 14.092-1.51-.009-4.875.014-8.48-.592-11.395-.463 2.614-1.266 5-.404 10.455-4.802.498-9.184 1.42-13.096 2.45zm6.485-5.563c-5.19-4.487-9.308-2.416-13.775-2.478 4.57 1.746 9.088 5.573 13.775 2.478zm2.498-1.74c-1.87-5.111-5.385-5.568-8.366-7.54 2.442 3.092 4.099 7.491 8.366 7.54zm-6.213-2.182c-3.567-3.945-6.976-2.917-10.436-3.507 3.367 1.846 6.48 5.222 10.436 3.507zm-11.241-3.685c-3.686-4.814-7.506-3.933-11.283-4.905 3.596 2.398 6.818 6.523 11.283 4.905zm3.526-.963c-1.869-5.112-5.384-5.57-8.364-7.542 2.44 3.092 4.096 7.492 8.364 7.542zm9.045-74.974c5.077.798 7.19-2.242 10.269-4.033-3.72.735-8.113.092-10.269 4.033zm-15.837 71.679c-1.838-5.79-6.156-5.847-9.666-7.769 2.737 3.322 4.378 8.299 9.666 7.769zm-9.258-5c-2.414-6.188-5.667-6.95-8.647-9.476 2.649 3.824 4.769 9.153 8.647 9.477zm4.068-2.48c-.282-6.065-3.588-7.552-5.91-10.528 1.454 4.038 1.742 9.272 5.91 10.529zm-11.467-10.092c1.056-7.318-1.65-9.79-3.13-13.84.457 5.138-.412 11.462 3.13 13.84zm4.714 4.941c1.258-6.271-1.377-8.504-2.745-12.05.314 4.447-.73 9.869 2.745 12.05zm.23-6.79c2.77-5.689.784-8.59.346-12.397-.801 4.377-3.154 9.306-.347 12.397zm-3.973-5.708c4.29-5.315 2.455-10.622 2.613-15.932-1.727 5.106-5.389 9.75-2.613 15.932zm3.83-10.49c5.254-3.09 5.107-6.681 6.717-10.11-2.937 3.167-7.451 5.872-6.718 10.11zm-6.457.95c3.996-5.168 3.111-8.602 3.814-12.6-1.93 4.289-5.352 8.778-3.814 12.6zm4.436-7.56c6.27-2.217 7.103-5.198 9.704-7.93-3.899 2.43-9.3 4.377-9.704 7.93zm-.157-6.27c5.33-3.089 5.62-7.783 7.55-11.955-3.15 3.597-7.736 6.318-7.55 11.955zm6.867-1.86c5.832-1.49 6.58-4.995 8.981-7.844-3.616 2.22-8.639 3.55-8.981 7.843zm1.24-6.098c5.692-.565 6.748-5.043 9.312-8.248-3.657 2.074-8.563 2.623-9.312 8.248zm9.197-6.164c5.222.326 6.749-3.55 9.478-6.06-3.574 1.332-8.084 1.106-9.478 6.06zm-1.586-2.448c4.806-2.158 5.374-5.033 7.32-7.674-2.96 2.355-7.098 4.25-7.32 7.674zm5.92-3.12c5.66-.462 6.962-4.038 9.682-6.6-3.735 1.662-8.619 2.11-9.683 6.6zm4.766-5.776c5.182-.59 6.499-3.168 9.073-5.099-3.468 1.345-7.941 1.888-9.073 5.099zm7.087-2.592c4.91 1.595 7.423-1.075 10.715-2.356-3.78.135-8.036-1.199-10.715 2.356z" fill="#048204"/><g style="text-align:start;line-height:125%;-inkscape-font-specification:Perpetua Bold" font-size="33.984" font-weight="700" fill="#eb2d2e" font-family="Perpetua"><path d="M420.062 346.27v-.48c.855-.131 1.446-.387 1.773-.767.326-.38.49-1.17.49-2.37v-12.809c0-.582-.033-.956-.098-1.122-.066-.166-.217-.25-.455-.25-.095 0-.314.036-.659.108-.89.178-1.633.273-2.227.285v-.428c1.651-.463 3.95-1.817 6.895-4.062h.517v18.279c0 1.128.136 1.888.41 2.28.272.392.866.677 1.78.856v.48zM436.684 346.823l8.98-18.03h-8.98c-.677 0-1.185.155-1.523.463-.339.31-.728.992-1.167 2.05h-.517l1.764-7.145h.463c.036.309.107.514.214.615.107.1.291.151.552.151h12.08l-7.305 21.896zM451.792 346.823v-.481c2.458-.404 4.439-1.562 5.941-3.474 1.503-1.913 2.385-4.365 2.646-7.358-1.675.796-3.195 1.193-4.56 1.193-1.604 0-2.95-.552-4.036-1.656-1.087-1.105-1.63-2.47-1.63-4.098 0-1.865.689-3.415 2.066-4.65 1.378-1.235 3.1-1.853 5.167-1.853 2.304 0 4.175.781 5.612 2.343 1.437 1.562 2.156 3.59 2.156 6.084 0 2.4-.606 4.698-1.818 6.895-1.211 2.197-2.835 3.922-4.872 5.175-2.037 1.253-4.261 1.88-6.672 1.88zm2.334-16.711c0 1.437.312 2.586.935 3.447.624.861 1.458 1.292 2.503 1.292 1.07 0 2.079-.404 3.029-1.212.095-.57.142-1.116.142-1.639 0-1.971-.32-3.54-.962-4.703-.641-1.164-1.502-1.746-2.583-1.746-.843 0-1.565.445-2.165 1.336-.6.89-.9 1.966-.9 3.225zM480.261 324.446v.481c-2.53.392-4.57 1.604-6.12 3.635-1.55 2.03-2.372 4.43-2.467 7.197 1.64-.796 3.148-1.193 4.525-1.193 1.616 0 2.97.549 4.062 1.648 1.093 1.098 1.64 2.455 1.64 4.07 0 1.877-.69 3.436-2.067 4.677-1.378 1.241-3.112 1.862-5.202 1.862-2.293 0-4.154-.781-5.586-2.343-1.43-1.562-2.146-3.59-2.146-6.084 0-2.494.6-4.813 1.799-6.957a13.64 13.64 0 0 1 4.926-5.104c2.084-1.26 4.297-1.889 6.636-1.889zm-2.333 16.676c0-1.307-.315-2.423-.945-3.35-.63-.926-1.472-1.39-2.53-1.39-1.08 0-2.09.416-3.028 1.248-.071.404-.107.95-.107 1.639 0 1.972.32 3.54.962 4.703.641 1.164 1.49 1.746 2.548 1.746.855 0 1.585-.448 2.19-1.345.607-.897.91-1.98.91-3.251z"/></g><path d="M445.332 386.61l8.279.135.517.068-2.941 5.343-1.018.078-1.35.023-.36.005-3.69-5.585.563-.067z" fill="#eb2d2e"/></g><g><g fill="navy"><path d="M458.163 225.169l32.884-13.114 1.177-2.695 19.73-9.177 1.509 3.154-19.164 8.634-2.759.665-32.899 13.243-.478-.71z"/><path d="M512.495 224.74l-30.325-12.432-1.177-2.694-19.73-9.178-1.569 2.612 19.405 9.297 2.337.424 30.581 12.681.478-.71z"/><path d="M482.392 226.115l7.9-.047.113-12.74 1.975-3.444.15-7.254-12.282.008.048 7.697c.73 1.056.952 1.1 2.2 3.19l-.104 12.59z"/><path d="M484.437 224.173c-1.218 2.14-3.807 1.804-7.76.546-3.37-1.072-4.428-4.682-2.83-7.75 1.598-3.07 2.665-2.552 1.191.278-1.474 2.831-.71 5.26 2.295 6.53 2.77 1.17 5.034 1.888 6.508-.72-2.157 2.908 3.062-4.658.596 1.116z" fill-rule="evenodd"/><path d="M483.092 212.79l.872.455-6.944 11.75c-1.177.589-1.376.287-.908-.622l6.98-11.583zM473.705 215.49l2.702 1.579.15-3.464-2.852 1.885zM492.443 206.578c2.359-5.535-.282-6.019-.832-3.919l.597.011c.22-.317.813-.686.203 2.666l.032 1.242zM490.348 220.7l-.06 1.493c-.457 2.23 1.068 4.459-1.373 6.688-.469 1.197-1.339 2.057.358 1.553 3.577-5.375.816-6.35 1.075-9.734zM485.781 202.701c-.824-1.306-1.965-2.252-4.363-.063h.884c.84-.791 2.077-1.05 2.847.02"/><path d="M480.085 225.654l2.819.957c5.314.4 10.712-.29 13.465-1.178 8.744-2.94 14.493 1.013 10.954-.967-4.452-1.869-8.055.019-11.583-.196-3.148 1.735-6.231 1.51-9.42 1.508-3.78.096-2.41-.12-5.681-.532l-.554.408z"/></g></g><g><path d="M414.027 210.726c0 7.516-6.092 13.608-13.607 13.608-7.516 0-13.608-6.092-13.608-13.608 0-7.515 6.092-13.607 13.608-13.607 7.515 0 13.607 6.092 13.607 13.607z" fill="navy" fill-rule="evenodd"/><path d="M398.965 195.315h1.935v1.885h-1.935v-1.885zM402.98 195.478l1.877.468-.456 1.83-1.878-.469.456-1.829zM406.972 196.699l1.685.951-.927 1.641-1.685-.951.927-1.641zM410.517 198.995l1.377 1.36-1.325 1.34-1.376-1.36 1.324-1.34zM413.12 202.087l.99 1.662-1.62.965-.99-1.662 1.62-.965zM415.044 205.69l.514 1.865-1.817.501-.514-1.865 1.817-.501zM415.85 209.595l-.038 1.934-1.884-.036.037-1.934 1.884.036zM415.607 213.48l-.511 1.867-1.818-.498.51-1.866 1.819.498zM414.388 217.27l-.903 1.712-1.667-.88.902-1.71 1.668.879zM396.759 195.658l.594 1.841-1.794.58-.594-1.842 1.794-.579zM392.999 197.17l1.039 1.632-1.59 1.012-1.04-1.632 1.59-1.012zM389.75 199.484l1.416 1.317-1.284 1.38-1.416-1.317 1.283-1.38zM387.293 202.415l1.706.913-.89 1.662-1.705-.913.89-1.662zM385.716 205.871l1.873.482-.47 1.826-1.873-.482.47-1.826zM384.942 209.915l1.934-.038.036 1.885-1.934.037-.036-1.884zM385.287 214.17l1.859-.536.522 1.811-1.859.536-.522-1.81zM386.698 217.984l1.638-1.03 1.003 1.597-1.638 1.03-1.003-1.597zM392.443 218.984h15.241v9.387l-7.357.6-3.453-.05-2.559-.65-1.796-.37-.076-8.918z" fill="navy" fill-rule="evenodd"/><path d="M401.666 229.376l-3.06-.12v-12.509c.497-7.075-3.737-6.84-6.896-7.216l-.278-2.703 16.929.12v5.497c-4.069-.344-6.988-.685-6.79 4.302l.095 12.629zM392.93 205.081l2.585-1.924 2.22 3.533-1.492-.006c-1.316-.87-1.843-1.29-3.313-1.602zM406.258 204.913l-2.695-1.768-1.855 3.58 1.36-.001c1.261-.947 1.74-1.412 3.19-1.811z" fill="#fff"/><path d="M404.92 217.693l2.154-2.397-3.779-2.302-.444.397c.745 1.39 1.893 2.81 2.068 4.302zM395.755 217.176l-2.155-2.396 3.779-2.303.444.398c-.745 1.39-1.893 2.808-2.068 4.3z" fill="#fff"/><path d="M418.447 229.872c3.675 1.543-7.756-1.759-7.966-1.75l-.632.024-8.223 1.12c-4.388.154-6.239-.556-8.511-1.29 0 0-11.713 4.295-8.792 1.809 3.676-1.544 6.398-2.168 9.31-2.345 2.545 1.708 5.214 1.541 7.884 1.35l8.135-.989c2.924.171 5.119.527 8.795 2.07z" fill="navy"/><path d="M398.464 214.979l7.651 4.7c-.767 1.65-1.256 2.673-2.99 4.869l-7.652-4.7c.416-2.041 1.327-3.936 2.99-4.87z" fill="navy" fill-rule="evenodd"/><path d="M408.476 228.193l1.505-7.838-.594.404-1.001 5.073-1.054-.39-.039.659 1.036.462-.308 1.637.31-.007h.145z" fill="navy"/><path d="M412.25 220.551l-1.263 1.465-1.427-1.231 1.263-1.465 1.428 1.231zM409.53 223.208l-1.688.946-.922-1.645 1.688-.945.922 1.644zM389.073 221.302l1.339-1.397 1.36 1.305-1.338 1.396-1.361-1.304z" fill="navy" fill-rule="evenodd"/></g></svg>