<svg xmlns="http://www.w3.org/2000/svg" width="36in" height="24in" viewBox="0 0 3240 2160"><defs><linearGradient id="a"><stop stop-color="#232803" offset="0"/><stop stop-color="#55490c" offset=".08"/><stop stop-color="#886a16" offset=".164"/><stop stop-color="#a68c29" offset=".224"/><stop stop-color="#ccb54a" offset=".285"/><stop stop-color="#ebdb66" offset=".345"/><stop stop-color="#f0e36b" offset=".382"/><stop stop-color="#f5ec70" offset=".414"/><stop stop-color="#e3d55e" offset=".467"/><stop stop-color="#d1be4c" offset=".516"/><stop stop-color="#c6ad3f" offset=".542"/><stop stop-color="#bb9c33" offset=".572"/><stop stop-color="#a88e2a" offset=".632"/><stop stop-color="#b99e37" offset=".663"/><stop stop-color="#caae44" offset=".698"/><stop stop-color="#d2bc4d" offset=".728"/><stop stop-color="#daca56" offset=".758"/><stop stop-color="#d5c24f" offset=".787"/><stop stop-color="#d0bb49" offset=".817"/><stop stop-color="#bb9c33" offset=".878"/><stop stop-color="#896c1a" offset=".935"/><stop stop-color="#564a0e" offset=".973"/><stop stop-color="#232803" offset="1"/></linearGradient><linearGradient id="b"><stop stop-color="#585858" offset="0"/><stop stop-color="#888" offset=".164"/><stop stop-color="#a6a6a6" offset=".224"/><stop stop-color="#ccc" offset=".285"/><stop stop-color="#cccac2" offset=".285"/><stop stop-color="#e3e3e3" offset=".467"/><stop stop-color="#d1d1d1" offset=".516"/><stop stop-color="#c6c6c6" offset=".542"/><stop stop-color="#bbb" offset=".572"/><stop stop-color="#a8a8a8" offset=".632"/><stop stop-color="#b9b9b9" offset=".663"/><stop stop-color="#cacaca" offset=".698"/><stop stop-color="#d2d2d2" offset=".728"/><stop stop-color="#dadada" offset=".758"/><stop stop-color="#d5d5d5" offset=".787"/><stop stop-color="#d0d0d0" offset=".817"/><stop stop-color="#bbb" offset=".878"/><stop stop-color="#898989" offset=".935"/><stop offset="1"/></linearGradient></defs><path d="M-.002 2152.419L.642-.002l3240.647.607-1.939 2159.071z" fill="navy" fill-rule="evenodd" stroke="#000" stroke-width=".996"/><path d="M-.063 1505.983c350.779-208.335 904.453-314.866 1180.102-402.295 248.752-50.478 1553.173-522.861 2060.024-1105.2l.962 2161.723-3241.088 2.094z" fill-rule="evenodd" stroke="#000" stroke-width=".874"/><path d="M514.286 2165.309C871.33 1511.035 2722.815 1159.073 3245.683 8.43l-4.07 2149.936-2478.992 4.31z" fill="#d40000" fill-rule="evenodd"/><path d="M1710.905 2158.212c187.592-632.2 1387.333-918.26 1545.64-2158.784l-14.126 2162.705-1030.549 4.87z" fill="#ff0" fill-rule="evenodd"/><g style="line-height:125%;-inkscape-font-specification:'Helvetica Neue, Bold';text-align:center" font-weight="700" font-size="102.5" font-family="Helvetica Neue" letter-spacing="0" word-spacing="0" text-anchor="middle" fill="#fff"><path d="M394.73 1043.147l1.64 8.302h10.25v-39.565h-30.75v11.993h16.195q-.717 7.687-5.125 11.787-4.305 3.998-12.3 3.998-5.432 0-9.225-2.05-3.792-2.153-6.15-5.638-2.357-3.485-3.485-7.79-1.025-4.407-1.025-9.02 0-4.817 1.025-9.327 1.128-4.51 3.485-7.995 2.358-3.588 6.15-5.638 3.793-2.152 9.225-2.152 5.843 0 9.943 3.075t5.535 9.225h15.375q-.615-6.253-3.383-11.07-2.767-4.818-7.072-8.098-4.203-3.28-9.533-4.92-5.227-1.742-10.865-1.742-8.405 0-15.17 2.972-6.662 2.973-11.275 8.2-4.612 5.228-7.072 12.3-2.46 6.97-2.46 15.17 0 7.995 2.46 14.965 2.46 6.868 7.072 11.993 4.613 5.125 11.275 8.097 6.765 2.87 15.17 2.87 5.33 0 10.558-2.152 5.227-2.255 9.532-7.79zM419.716 978.264v73.185h55.555v-13.53H435.81v-17.937h35.465v-12.505h-35.465v-15.683h38.642v-13.53h-54.735zM502.073 1011.372v-20.603h17.63q5.535 0 8.303 2.46 2.767 2.358 2.767 7.688 0 5.535-2.767 7.995-2.768 2.46-8.303 2.46h-17.63zm-16.092-33.108v73.185h16.092v-28.597h16.093q6.047 0 8.712 2.665t3.485 8.405q.615 4.407.923 9.225.307 4.817 1.64 8.302h16.092q-1.127-1.537-1.742-3.69-.513-2.255-.82-4.715-.205-2.46-.308-4.817-.102-2.358-.205-4.1-.205-2.768-.82-5.535-.512-2.768-1.742-5.023-1.23-2.357-3.178-3.997-1.947-1.743-4.92-2.563v-.205q6.15-2.46 8.815-7.175 2.768-4.715 2.768-11.172 0-4.203-1.538-7.79-1.435-3.69-4.305-6.458-2.767-2.767-6.765-4.305-3.895-1.64-8.815-1.64h-39.462zM559.853 978.264v73.185h15.068v-51.352h.205l17.937 51.352h12.403l17.937-51.865h.205v51.865h15.068v-73.185h-22.653l-16.195 50.328h-.205l-17.117-50.328h-22.653zM671.194 1023.16l9.532-26.856h.205l9.225 26.855h-18.962zm1.537-44.896l-27.675 73.185h16.195l5.74-16.297h27.368l5.535 16.297H716.6l-27.367-73.185H672.73zM723.012 978.264v73.185h15.068v-48.995h.205l30.442 48.995h16.093v-73.185h-15.068v49.098h-.205l-30.545-49.098h-15.99zM815.081 991.794v59.655h16.093v-59.655h21.935v-13.53h-59.963v13.53h21.935zM874.663 1015.164q0-4.817 1.025-9.327 1.127-4.51 3.485-7.995 2.357-3.588 6.15-5.638 3.792-2.152 9.225-2.152 5.432 0 9.225 2.152 3.792 2.05 6.15 5.638 2.357 3.485 3.382 7.995 1.128 4.51 1.128 9.327 0 4.613-1.128 9.02-1.025 4.305-3.382 7.79-2.358 3.485-6.15 5.638-3.793 2.05-9.225 2.05-5.433 0-9.225-2.05-3.793-2.153-6.15-5.638-2.358-3.485-3.485-7.79-1.025-4.407-1.025-9.02zm-16.093 0q0 7.995 2.46 14.965 2.46 6.868 7.073 11.993 4.612 5.125 11.275 8.097 6.765 2.87 15.17 2.87 8.507 0 15.17-2.87 6.662-2.972 11.275-8.097 4.612-5.125 7.072-11.993 2.46-6.97 2.46-14.965 0-8.2-2.46-15.17-2.46-7.072-7.072-12.3-4.613-5.227-11.275-8.2-6.663-2.972-15.17-2.972-8.405 0-15.17 2.972-6.663 2.973-11.275 8.2-4.613 5.228-7.073 12.3-2.46 6.97-2.46 15.17zM1010.925 1051.45l19.68-73.186h-15.785l-11.992 50.43h-.205l-12.505-50.43H975.05l-12.71 49.815h-.205l-11.582-49.815H934.46l19.373 73.185h16.297l12.198-49.815h.205l12.402 49.815h15.99zM1037.92 978.264v73.185h15.067v-48.995h.205l30.442 48.995h16.093v-73.185h-15.068v49.098h-.205l-30.545-49.098h-15.99z"/></g><g><path d="M748.922 250.586l-137.19 73.093L501.53 576.693l12.37 22.49 39.358 11.246 19.116 25.863 38.234 5.623 19.116 28.113 35.984 7.871 24.74 26.988 31.486-1.124 80.964-131.568 133.817-23.614 112.45-31.486-31.486-228.276-132.692 34.86z" fill="#d40000" fill-rule="evenodd" stroke="#000"/><g fill="#fff"><path d="M1059.192 509.992l-34.732-215.473-2.113-13.18-12.948 3.32-123.474 31.527c-10.288-.141-55.376-27.058-79.614-41.516-35.868-21.439-48.148-28.358-56.323-28.358-9.692 0-39.313 13.932-64.425 30.242-4.327-3.674-7.685-5.826-9.877-5.503-26.06 4.182-103.23 66.545-118.669 62.708-15.442-3.855-137.965-35.705-137.965-35.705L386.248 509.38s88.575 23.754 126.433 33.886l-11.228 16.487c-5.59 7.986-5.899 18.357-.671 28.405 7.855 15.137 26.001 26.078 43.117 26.078 1.568 0 3.092-.077 4.617-.254 1.281 4.29 3.398 8.44 6.287 12.352 9.576 12.949 27.17 21.675 43.77 21.675 2.273 0 4.502-.181 6.673-.5 1.728 5.081 4.512 9.927 8.276 14.421 10.592 12.636 27.36 20.499 43.727 20.499 1.568 0 3.118-.08 4.636-.236 1.433 5.528 4.036 10.748 7.815 15.413 8.6 10.647 22.245 17.282 35.6 17.282 10.926 0 20.342-4.639 25.849-12.774 5.779-8.523 16.556-27.352 26.992-45.545 2.287-4.015 4.538-7.91 6.658-11.642a6254.899 6254.899 0 0 1 23.762 10.132c31.835 12.549 48.26-34.721 33.465-47.557l22.186 7.826c32.503 13.05 61.438-26.836 35.912-51.324 12.197 5.477 23.558 2.817 32.18-3.74l-.077.08 28.442-5.84 109.774-30.782 10.51-2.98-1.761-10.749zM721.039 695.278c-3.456 5.104-9.31 7.409-15.736 7.409-16.299 0-36.43-14.778-31.755-36.59-4.966 2.864-10.574 4.134-16.295 4.134-21.78 0-45.227-18.59-41.535-39.647-4.9 3.616-10.897 5.242-17.144 5.242-21.018 0-44.77-18.212-38.297-39.288-5.085 3.874-10.73 5.522-16.382 5.522-20.865 0-41.61-22.249-32.358-35.44l22.328-32.768c3.587-5.924 8.945-8.349 14.807-8.349 15.134 0 33.382 16.288 31.516 30.194 9.358-15.514 18.967-27.81 30.862-30.194a30.97 30.97 0 0 1 6.247-.632c20.143 0 38.075 18.887 37.49 34.064 7.613-12.61 17.998-17.5 28.398-17.5 23.022 0 46.04 23.994 38.566 41.215 4.138-3.833 9.448-5.54 15.02-5.54 19.443 0 41.85 20.859 27.342 44.85-10.872 18.048-34.119 60.069-43.074 73.318zm216.323-152.525c1.88-6.676 2.323-13.29 1.241-19.486 16.132-2.763 30.434-14.8 36.231-31.167 5.968-16.804 1.31-33.966-12.066-44.765l-1.677-1.14c-.915-.487-92.46-51.26-179.37-104.751l-24.19.853c-6.098 2.842-22.745 11.246-24.92 19.137-2.657 9.685-15.43 55.957-21.213 78.452-1.514 5.96-7.641 8.44-15.736 8.44-22.517 0-60.23-19.247-56.636-36.754 4.908-23.777 15.134-79.127 19.635-95.197 4.49-16.084 77.816-57.898 91.33-57.898 13.065 0 111.845 69.74 136.656 69.74.831 0 1.622-.08 2.276-.262 20.186-5.14 123.493-31.53 123.493-31.53l34.742 215.495-109.796 30.833z"/></g><g fill-rule="evenodd" stroke="#007d00" fill="#ff0"><path d="M743.43 829.05c50.261-34.612 91.99-4.221 130.204 30.146-49.33 13.402-101.572 19.482-130.205-30.147zM755.51 799.26c2.23-60.986 51.52-76.327 101.904-86.475-18.692 47.58-44.996 93.124-101.904 86.475zM833.056 801.566c47.157-38.735 91.305-11.98 132.287 19.036-48.022 17.523-99.563 27.995-132.287-19.036zM876.792 772.648c-29.386-53.485 5.043-91.95 43.077-126.517 8.377 50.427 9.177 103.015-43.077 126.517zM914.954 771.463c34.695-50.204 84.497-36.613 132.424-18.056-41.356 30.047-88.033 54.282-132.424 18.056zM963.96 726.686c-44.895-41.338-24.512-88.766.527-133.65 24.006 45.132 41.517 94.726-.527 133.65zM987.813 721.626c24.513-55.887 75.99-52.016 126.573-42.913-34.887 37.364-76.103 70.034-126.573 42.913zM1028.71 667.598c-51.782-32.294-40.55-82.68-24.27-131.428 31.96 39.896 58.366 85.381 24.27 131.428zM1046.786 660.043c13.502-59.514 64.783-65.448 116.174-66.075-27.191 43.287-61.485 83.163-116.174 66.075zM1062.164 572.583c-55.139-26.152-49.75-77.493-39.158-127.784 36.318 35.974 67.758 78.136 39.158 127.784zM1071.353 589.599c6.34-60.697 56.553-72.678 107.506-79.403-21.858 46.21-51.175 89.875-107.506 79.403zM1085.343 473.087c-59.589-13.17-65.808-64.417-66.721-115.804 43.438 26.95 83.504 61.021 66.72 115.804zM1097.004 517.854c-17.245-58.54 24.626-88.734 69.183-114.35-2.621 51.051-13.107 102.59-69.183 114.35zM1061.902 358.103c-60.95 3.052-80.497-44.727-94.963-94.044 49.017 14.507 96.665 36.774 94.963 94.044zM1101.144 423.793c-36.629-48.811-7.962-91.743 24.822-131.324 15.399 48.744 23.6 100.695-24.822 131.324zM1035.24 271.268c-60.925-3.515-75.224-53.118-84.307-103.704 47.174 19.69 92.154 46.948 84.307 103.704zM1074.128 323.934c-45.777-40.357-26.424-88.215-2.36-133.629 24.975 44.602 43.554 93.805 2.36 133.63z"/><g><path d="M682.17 829.93c-50.262-34.61-91.99-4.22-130.204 30.148 49.33 13.402 101.572 19.481 130.205-30.147zM670.09 800.141c-2.23-60.986-51.52-76.327-101.904-86.474 18.692 47.58 44.995 93.123 101.904 86.474zM592.544 802.448c-47.157-38.736-91.305-11.98-132.287 19.036 48.022 17.522 99.563 27.995 132.287-19.036zM548.808 773.53c29.386-53.486-5.043-91.95-43.077-126.518-8.377 50.428-9.177 103.016 43.077 126.518zM510.646 772.345c-34.695-50.205-84.497-36.614-132.424-18.056 41.356 30.046 88.033 54.281 132.424 18.056zM461.64 727.567c44.895-41.337 24.512-88.766-.527-133.649-24.006 45.132-41.517 94.725.527 133.65zM437.787 722.508c-24.513-55.888-75.99-52.016-126.573-42.914 34.887 37.364 76.103 70.035 126.573 42.914zM396.89 668.48c51.782-32.294 40.55-82.68 24.27-131.428-31.96 39.896-58.366 85.38-24.27 131.427zM378.814 660.925c-13.502-59.514-64.783-65.448-116.174-66.075 27.191 43.287 61.485 83.163 116.174 66.075zM363.436 573.465c55.139-26.152 49.75-77.493 39.158-127.785-36.318 35.974-67.758 78.137-39.158 127.785zM354.247 590.48c-6.34-60.696-56.553-72.677-107.506-79.402 21.858 46.21 51.175 89.875 107.506 79.402zM340.257 473.969c59.589-13.17 65.808-64.417 66.721-115.804-43.438 26.95-83.504 61.02-66.72 115.804zM328.596 518.736c17.245-58.54-24.626-88.734-69.183-114.35 2.621 51.05 13.107 102.589 69.183 114.35zM363.698 358.985c60.95 3.052 80.497-44.727 94.963-94.044-49.017 14.507-96.665 36.773-94.963 94.044zM324.455 424.675c36.63-48.812 7.963-91.743-24.82-131.324-15.4 48.744-23.601 100.694 24.82 131.324zM390.36 272.15c60.925-3.516 75.224-53.119 84.307-103.705-47.174 19.69-92.154 46.948-84.307 103.705zM351.472 324.816c45.777-40.357 26.424-88.215 2.36-133.629-24.975 44.602-43.554 93.805-2.36 133.629z"/></g></g></g></svg>