<svg xmlns="http://www.w3.org/2000/svg" width="1727.686" height="1151.904" viewBox="0 0 1382.148 921.523"><defs><clipPath id="a"><path d="M-11.25 933.75h1405v-945h-1405v945zm0 0"/></clipPath></defs><g clip-path="url(#a)" clip-rule="evenodd" transform="translate(.117 -1.094)"><path style="fill:#004226;fill-opacity:1;fill-rule:evenodd;stroke:#004226;stroke-width:.21600001;stroke-linecap:butt;stroke-linejoin:miter;stroke-miterlimit:10;stroke-opacity:1" d="M0 737.006h1105.513V0H0v737.006zm0 0" transform="matrix(1.25 0 0 -1.25 0 922.5)"/><path style="fill:#fff;fill-opacity:1;fill-rule:evenodd;stroke:none" d="M644 418.102c-4.86 4.32-8.484 8.406-14.578 9.027 1.512 11.598 14.867 17.328 8.543 35.469 11.324 15.261 19.168 33.398 27.992 35.601.848 2 .309 4.473 1.156 6.473.54 1.7 12.418 1.543 12.727-.457-1.774-3.938-1.7-6.25-4.63-9.723-1.464-.308-4.085-1.543-6.015-2.543-8.058-6.226-13.691-14.676-18.047-25.222-3.175-12.305.004-34.86-7.148-48.625m-5.398-135.411c7.882 17.383 25.406 29.512 45.664 29.512 27.593 0 50.109-22.512 50.109-50.098 0-22.335-14.746-41.332-34.992-47.773 10.922 8.402 17.98 21.59 17.98 36.379 0 25.273-20.625 45.894-45.894 45.894-12.867 0-24.516-5.34-32.867-13.914"/><path style="fill:#fff;fill-opacity:1;fill-rule:evenodd;stroke:none" d="M656.75 245.758c-4.078.89-7.781 1.703-11.852 2.594l8.051-9.063-6.148-10.476 11.133 4.867 8.066-9.075-1.195 12.075 11.113 4.875c-3.95.86-7.902 1.73-11.848 2.586l-1.183 12.078"/><path style="fill:none;stroke:#fff;stroke-width:7.99989986;stroke-linecap:butt;stroke-linejoin:miter;stroke-miterlimit:10;stroke-opacity:1" d="M549.925 591.95c108.51 0 197.01-88.5 197.01-197.01 0-108.506-88.5-197.006-197.01-197.006-108.506 0-197.006 88.5-197.006 197.007 0 108.509 88.5 197.009 197.006 197.009zm0 0" transform="matrix(1.25 0 0 -1.25 0 922.5)"/><path style="fill:#fff;fill-opacity:1;fill-rule:evenodd;stroke:none" d="m888.207 571.895-103.738-58.942-96.664 51.086-95.102-50.297-106.094 55.012c101.184 143.527 302.25 136.254 401.598 3.14M773.063 364.238c6.18-.218 9.832 3.715 14.636 4.567 8.235.32 13.88-.211 14.278 6.746.226 3.867-8.559 4-12.961 4.37-2.762 3.313-4.856 5.462-10.688 6.93-11.16 12.836-21.812 26.727-40.629 30.008-4.629-2.054-10.262-2.414-15.512-2.007-2.39 6.14-8.398 7.632-9.238 13.203 5.57 9.566 20.23 19.566 21.406 26.355-.964 8.05-16.742 16.637-25.113 30.88-2.058 2.468-4.12 4.94-6.176 7.41 3.946 3.14 6.137 6.534 5.762 10.292-3.719 1.344-8.219 1.535-14.41-.824-1.336-4.152-.512-7.992 2.473-11.527-3.004-9.211-2.383-20.832-1.649-32.524-.55-2.199-1.097-4.398-1.648-6.594.687-4.14 2.054-4.652 2.062-6.996.012-8.625 7.196-20.246 4.114-20.996-39.223 8.352-39.2-4.039-61.192-9.86-3.789 7.696-10 11.97-16.879 14.102-9.047 9.04-13.957 19.864-19.922 30.75-1.82 9.743-1.527 19.489-1.78 29.235 3.26 3.172 4.487 8.535 3.433 13.562-.524 2.72-15.325.551-14.934-2.03 1.785-3.571 4.48-6.54 5.356-11.169 2.14-11.367-.852-22.598.101-34.129l15.652-30.46a17128.44 17128.44 0 0 1 3.29-16.47c1.386-4.406-8.868-.242-6.567-3.242 1.328-16.675 15.684-25.86 18.508-35.465-1.57-1.558-1.43-3.84-5.816-3.937-2.961-.063-16.63 27.297-26.317 29.598-3.871 1.277 2.926-1.512 3.356-3.309 11.308-10.91 16.48-29.176 21.957-29.203 6.73-.04 5.691 2.824 9.41 4.793 4.168-1.719 9.625-4.106 14.328-4.031 1.883 1.57 2.48-.07 3.305-2.274.336-.898 2.382-1.156 3.343-1.156 1.785-3.156 2.188-2.86 3.973-6.016 2.781-2.12 7.64-.554 11.344-.144.336-1.563.867-4.606 3.16-4.399 7.824 2.25 15.41 3.348 24.61 3.293 1.433.637.784 1.73.378 3.512 3.977.41 11.184-.324 10.785 2.16 3.32.79-1.656 9.875-1.793 14.82 19.825 4.778 21.977 18.172 34.141 22.086 7.145.114 11.36-1.625 15.414-5.207.828-1.785.715-4.472 2.473-5.351 1.55-.777 2.832-.742 4.476-.195 2.969-4.094 5.801-9.348 7.676-13.973.172-.418-.2-2.02.367-2.543.688-.637 1.621.09 1.762-.04 1.629-1.472 3.477-2.51 5.894-2.6zM706.8 434.77c2.949-.676 12.457 11.437 17.62 19.132-.628 2.075-.48 3.957.438 5.649-7.05 5.414-12.859 12.07-17.976 19.418-2.375-.254-3.149.23-4.055 1.738-.387-2.895-.922-5.594-.723-9.707.122-2.54 1.036-5.977 1.18-8.055-3.113-17.078.461-28.449 3.516-28.175"/><path style="fill:none;stroke:#fff;stroke-width:4;stroke-linecap:butt;stroke-linejoin:miter;stroke-miterlimit:10;stroke-opacity:1" d="M549.925 192.331c10.469 0 19.01-10.331 19.01-22.993 0-12.666-8.541-22.994-19.01-22.994-10.469 0-19.006 10.328-19.006 22.994 0 12.662 8.537 22.993 19.006 22.993zm0 0" transform="matrix(1.25 0 0 -1.25 0 922.5)"/><path style="fill:#fff;fill-opacity:1;fill-rule:nonzero;stroke:none" d="m674.176 714.879-11.59-11.285c-.656-.633-.273-1.813.633-1.946l16.023-2.316 7.149-14.508c.406-.82 1.636-.82 2.043 0l7.156 14.52 16.008 2.316c.902.133 1.289 1.305.632 1.942l-11.601 11.296 2.75 15.946c.156.898-.844 1.62-1.656 1.195l-14.325-7.543-14.316 7.54c-.809.425-1.809-.298-1.652-1.196l2.746-15.961zm-8.352-11.305 10.364 10.09c-.024-.023-.032 0-.032.043l.036-.039-.004-.004c.004 0 .004 0 .004.004l-.036.04c.008.175.211.792.313.956l.055.008-.004.02c.004-.004.004-.012.004-.02l-.055-.008c.023.04.039.047.05.027l-2.453 14.254 12.801-6.738c-.039.02-.027.04.028.055l-.028-.055.028.055c.191.047.832.043 1.003-.004l.028-.051 12.816 6.742-2.457-14.238c.012.023.031.012.055-.027l-.055.008v.019-.02l.055-.007c.101-.16.3-.782.312-.958l-.039-.039.004-.008s0 .008-.004.008l.04.04c0-.047-.012-.063-.036-.047l10.371-10.094-14.297-2.07c.02 0 .016-.024-.008-.051l-.011.05c.011 0 .015.005.02 0h-.02l.011-.05c-.117-.145-.656-.532-.824-.598l-.047.023-.008-.015c0 .004.004.004.008.015l.047-.023c-.035-.012-.062-.012-.054.008l-6.391-12.976-6.39 12.964c.007-.023-.012-.023-.052-.008l.043.024c.004-.012.008-.012.008-.016l-.008.016-.043-.024c-.171.067-.703.453-.82.594l.004.055h-.015.015l-.004-.055c-.027.031-.031.05-.012.055l-14.316 2.07zm22.074 18.684c.047-.016.067-.031.028-.051"/><path style="fill:none;stroke:#fff;stroke-width:2.0000999;stroke-linecap:butt;stroke-linejoin:miter;stroke-miterlimit:10;stroke-opacity:1" d="m559.528 166.4-28.825 9.378m19.228 13.96-.012-30.307m5.95 18.259-17.825-24.515m5.953 24.525 17.81-24.528m-21.488 13.24 28.831 9.357" transform="matrix(1.25 0 0 -1.25 0 922.5)"/><path style="fill:#fff;fill-opacity:1;fill-rule:evenodd;stroke:none" d="M687.559 685.738v25.063l-7.5-10.719m-17.125 2.891 23.832 7.746-12.508 3.82"/><path style="fill:#fff;fill-opacity:1;fill-rule:evenodd;stroke:none" d="m672.105 730.43 14.727-20.278-.23 13.082m15.765 7.852-14.73-20.281 12.367 4.265m12.059-12.054-23.836 7.746 7.87-10.446"/><path style="fill:none;stroke:#fff;stroke-width:4;stroke-linecap:butt;stroke-linejoin:miter;stroke-miterlimit:10;stroke-opacity:1" d="M559.45 188.328c10.387 7.86 21.438 14.097 33.672 17.722 17.925 5.31 36.028 8.134 52.281 1.181-1.575-6.14-25.431-27.531-50.806-31.9-12.528-2.156-21.166-.243-27.319 1.182" transform="matrix(1.25 0 0 -1.25 0 922.5)"/><path style="fill:#fff;fill-opacity:1;fill-rule:nonzero;stroke:none" d="M704.703 693.172c1.492-1.512 2.95-2.172 4.402-2.824 9.079-4.094 22.582-7.075 35.989-10.035 18.597-4.106 37.008-8.168 42.605-14.684 1.633-1.899 3.258-3.793 1.266.133-1.992 3.922-3.621 5.82-5.25 7.715-6.258 7.28-24.8 11.37-43.524 15.507-11.89 2.621-23.863 5.27-32.668 8.641"/><path style="fill:#fff;fill-opacity:1;fill-rule:evenodd;stroke:none" d="m686.02 676.754 26.398-1.293-.367 3.875-13.11 7.57-12.554-5.351"/><path style="fill:#fff;fill-opacity:1;fill-rule:nonzero;stroke:none" d="M830.477 684.734c2.332 0 4.449.95 5.984 2.485a8.443 8.443 0 0 1 0 11.957l-.012.008a8.443 8.443 0 0 1-11.953 0 8.451 8.451 0 0 1-2.387-7.274c-3.601-3.75-8.273-7.527-11.918-8.77-4.503-1.944-12.578-2.187-18.273-.898l7.297-10.312c7.402-.203 8.012.02 14.18 1.758 5.937 2.023 11.261 5.59 16.082 11.11.328-.04.66-.063 1-.063zm2.449 6.016a3.471 3.471 0 0 0-2.45-1.016c-.96 0-1.824.387-2.445 1.008l-.008.008a3.454 3.454 0 0 0-1.011 2.45c0 .956.39 1.82 1.02 2.449a3.462 3.462 0 0 0 2.444 1.015c.953 0 1.82-.383 2.45-1.004.004-.004.004-.011.008-.011a3.474 3.474 0 0 0-.008-4.899"/><path style="fill:none;stroke:#fff;stroke-width:4;stroke-linecap:butt;stroke-linejoin:miter;stroke-miterlimit:10;stroke-opacity:1" d="M568.025 159.972c6.228-3.444 10.71-6.328 20.012-6.378 33.213-.172 53.363 27.034 70.394 35.194" transform="matrix(1.25 0 0 -1.25 0 922.5)"/><path style="fill:#fff;fill-opacity:1;fill-rule:nonzero;stroke:none" d="M711.191 707.633c.446.105.887.25 1.329.39 13.34 4.317 28.882 3.618 42.734.5 17.445-3.921 31.488-10.648 34.648-15.691 1.328-2.121 2.657-4.238 2.243-2.582-.41 1.656-1.739 3.773-3.067 5.89-4.937 7.883-20.773 17.02-38.726 21.055-13.145 2.957-27.817 3.739-40.688.14"/><path style="fill:none;stroke:#fff;stroke-width:4;stroke-linecap:butt;stroke-linejoin:miter;stroke-miterlimit:10;stroke-opacity:1" d="M635.956 210.938c9.944 10.175 19.278 25.278 31.235 32.987 15.246 9.828 33.453 14.037 50.18 21.056-5.25-19.281-16.168-39.7-35.44-51.937-16.09-10.219-28.372-7.666-36.85-8.072" transform="matrix(1.25 0 0 -1.25 0 922.5)"/><path style="fill:#fff;fill-opacity:1;fill-rule:nonzero;stroke:none" d="M887.168 612.477c6.355-3.735 9.664-5.309 16.039-7.508 6.719-2.317 13.469-3.5 20.262-2.903l-.86 10c-5.347-.468-10.738.489-16.16 2.356-5.75 1.984-17.172 8.152-22.949 11.547"/><path style="fill:none;stroke:#fff;stroke-width:4;stroke-linecap:butt;stroke-linejoin:miter;stroke-miterlimit:10;stroke-opacity:1" d="M742.031 255.463a3.82 3.82 0 0 0 3.813-3.81 3.819 3.819 0 0 0-3.813-3.81 3.818 3.818 0 0 0-3.81 3.81 3.818 3.818 0 0 0 3.81 3.81zm-28.953-11.719c5.897 1.553 12.5.175 18.394-1.416-13.381-14.59-25.835-35.206-44.569-45.987-10.775-6.2-25.078-2.204-37.266-1.182" transform="matrix(1.25 0 0 -1.25 0 922.5)"/><path style="fill:#fff;fill-opacity:1;fill-rule:nonzero;stroke:none" d="M826.781 667.887c-1.289-.043-2.578-.09-3.183-.715l24.054-9.559c7.625-1.011 16.336-4.09 24.582-8.804 9.407-5.375 17.848-12.399 22.828-20.239 1.34-2.11 2.68-4.218 2.13-2.351-.547 1.87-1.883 3.984-3.227 6.093-6.89 10.856-14.945 20.368-24.906 26.063-9.348 8.832-32.16 12.207-42.278 9.512"/><path style="fill:none;stroke:#fff;stroke-width:4;stroke-linecap:butt;stroke-linejoin:miter;stroke-miterlimit:10;stroke-opacity:1" d="M705.378 271.672c3.322 0 6.031-2.425 6.031-5.397 0-2.975-2.709-5.397-6.03-5.397-3.323 0-6.035 2.422-6.035 5.397 0 2.972 2.712 5.397 6.034 5.397zm0 0" transform="matrix(1.25 0 0 -1.25 0 922.5)"/><path style="fill:#fff;fill-opacity:1;fill-rule:evenodd;stroke:none" d="m800.367 647.195-21.031 10.72 15.473 1.585 7.941-10.71"/><path style="fill:none;stroke:#fff;stroke-width:4;stroke-linecap:butt;stroke-linejoin:miter;stroke-miterlimit:10;stroke-opacity:1" d="M734.663 327.063c4.775 4.93 9.809 7.903 16.537 9.662 1.14-10.081-1.184-24.269-4.638-34.91-4.93-15.184-15.95-30.468-30.212-39.346" transform="matrix(1.25 0 0 -1.25 0 922.5)"/><path style="fill:#fff;fill-opacity:1;fill-rule:evenodd;stroke:none" d="M890.117 565.605c-1.539 4.23-1.601 15.317-1.094 19.547l-13.054-4.742"/><path style="fill:none;stroke:#fff;stroke-width:4;stroke-linecap:butt;stroke-linejoin:miter;stroke-miterlimit:10;stroke-opacity:1" d="M749.503 311.212c7.688 6.613 18.419 12.335 27.25 14.375-.784-18.168-7.875-42.2-23.372-56.2-6.772-6.125-30.412-12.609-39.284-13.325" transform="matrix(1.25 0 0 -1.25 0 922.5)"/><path style="fill:#fff;fill-opacity:1;fill-rule:evenodd;stroke:#fff;stroke-width:4;stroke-linecap:butt;stroke-linejoin:miter;stroke-miterlimit:10;stroke-opacity:1" d="M787.056 342.969c2.6 0 4.722-2.556 4.722-5.688 0-3.131-2.122-5.687-4.722-5.687-2.6 0-4.719 2.556-4.719 5.687 0 3.131 2.12 5.688 4.72 5.688zm0 0" transform="matrix(1.25 0 0 -1.25 0 922.5)"/><path style="fill:#fff;fill-opacity:1;fill-rule:nonzero;stroke:none" d="M977.543 505.703c-3.969-.512-8.856 2.145-13.777 6.383-2.707 2.328-5.36 5.102-7.868 8.105l-.058-.109-17.59 10.523-1.145-.652c5.098-9.008 12.387-18.734 20.137-25.406 6.946-5.984 14.446-9.656 21.59-8.727"/><path style="fill:#fff;fill-opacity:1;fill-rule:evenodd;stroke:none" d="M926.445 520.121c-.39 5.535 1.871 9.68-2.62 20.387-4.493 10.71-15.434 27.285-23.884 42.816-.39-4.465 2.66-18.281 4.95-22.133 10.402-17.515 14.71-24.468 21.554-41.07m-21.555 70.195c23.47-7.695 39.602-23.015 50.387-48.64 1.32-3.125 1.653-7.477.875-10.778-10 20.997-24.465 39.2-46.894 52.426-1.453 2.332-2.91 4.66-4.367 6.992"/><path style="fill:none;stroke:#fff;stroke-width:4;stroke-linecap:butt;stroke-linejoin:miter;stroke-miterlimit:10;stroke-opacity:1" d="M746.331 401.756c2.385 8.603 2.916 16.675 6.075 24.5 6.028-18.665 18.203-36.384 18.082-56.003-.085-14.26-8.944-26.834-18.67-38.503" transform="matrix(1.25 0 0 -1.25 0 922.5)"/><path style="fill:#fff;fill-opacity:1;fill-rule:evenodd;stroke:none" d="M926.438 483.121c-.274 5.02-.614 11.563.257 16.234-2.703.622-6.914 10.836-8.332 12.985"/><path style="fill:none;stroke:#fff;stroke-width:4;stroke-linecap:butt;stroke-linejoin:miter;stroke-miterlimit:10;stroke-opacity:1" d="M766.528 390.025c2.553 13.69 8.635 24.878 16.406 31.616 4.141-8.147 8.097-23.438 5.866-42.054-1.919-16.037-8.581-31.946-16.95-45.962" transform="matrix(1.25 0 0 -1.25 0 922.5)"/><path style="fill:#fff;fill-opacity:1;fill-rule:evenodd;stroke:#fff;stroke-width:4;stroke-linecap:butt;stroke-linejoin:miter;stroke-miterlimit:10;stroke-opacity:1" d="M786.844 439.244c3.056 0 5.543-3 5.543-6.685 0-3.68-2.487-6.68-5.543-6.68-3.05 0-5.538 3-5.538 6.68 0 3.685 2.488 6.685 5.538 6.685zm0 0" transform="matrix(1.25 0 0 -1.25 0 922.5)"/><path style="fill:none;stroke:#fff;stroke-width:7.99989986;stroke-linecap:butt;stroke-linejoin:miter;stroke-miterlimit:10;stroke-opacity:1" d="M782.819 429.131c-8.594-7.375-13.044-19.656-17.275-31.397" transform="matrix(1.25 0 0 -1.25 0 922.5)"/><path style="fill:#fff;fill-opacity:1;fill-rule:evenodd;stroke:none" d="M940.035 411.387c13.2 25.64 11.028 61.644-.777 90.87-3.106.65-6.211 1.298-9.317 1.942 10.141-28.254 16.051-63.527 10.094-92.812m8.543 88.929c5.723-13.41 13.59-17.418 14.649-32.625 10.421-12.238 11.242-37.558 12.226-53.765 5.715 34.633-2.687 67.304-26.875 86.39"/><path style="fill:none;stroke:#fff;stroke-width:4;stroke-linecap:butt;stroke-linejoin:miter;stroke-miterlimit:10;stroke-opacity:1" d="M761.469 404.36c3.4 11.924 5.143 25.49 3.765 38.946-1.703 16.625-30.918 44.769-48.78 64.744-2.366-4.731 1.824-9.712 3.402-15.234" transform="matrix(1.25 0 0 -1.25 0 922.5)"/><path style="fill:none;stroke:#fff;stroke-width:4;stroke-linecap:butt;stroke-linejoin:miter;stroke-miterlimit:10;stroke-opacity:1" d="M745.837 474.797c-.103 16.456 3.135 32.075 9.347 43.012 10.16-17.271 20.291-35.587 22.172-56.171 1.463-16.025-.393-29.172-4.137-42.872" transform="matrix(1.25 0 0 -1.25 0 922.5)"/><path style="fill:#fff;fill-opacity:1;fill-rule:evenodd;stroke:none" d="M935.664 256.39c3.559 0 6.465 3.157 6.465 7.024s-2.906 7.02-6.465 7.02c-3.562 0-6.469-3.153-6.469-7.02 0-3.867 2.907-7.023 6.47-7.023"/><path style="fill:#fff;fill-opacity:1;fill-rule:nonzero;stroke:none" d="M939.254 266.406c-3.8 6.29-7.922 15.406-10.938 25.352-2.472 8.148-4.175 16.797-4.296 24.789h-.215l-9.04-9.781c.813-6.008 2.22-12.082 3.981-17.899 3.262-10.75 7.774-20.695 11.953-27.617"/><path style="fill:#fff;fill-opacity:1;fill-rule:evenodd;stroke:none" d="M955.59 400.477c-3.23 1.375-7.133.539-10.977-.07 2.293 4.577 5.02 10.609 7.309 15.187 1.223-5.04 2.45-10.078 3.668-15.117m-9.766-2.36c-2.383-10.844-2.222-22.21-7.152-32.527-6.297-13.168-16.336-24.207-25.371-35.13 10.77 20.013 17.633 41.774 24.066 64.403 2.168 1.41 6.29 1.84 8.457 3.254m.328-100.507c-2.71 3.898-2.527 16.554 0 23.09 5.793 14.964 5.313 23.527 9.434 39.03.976 8.458 1.953 16.915 2.926 25.38 1.41-10.739 5.82-20.965 3.578-31.555-3.793-17.95-12.84-35.082-15.938-55.946M806.914 663c5.43-1.492 10.906-2.004 15.969-4.469 24.797-12.105 42.828-28.226 54.586-44.375-5.422 1.063-15.774 4.5-19.793 8.301-16.832 15.91-32.461 28.254-58.102 39.266 2.45.425 4.895.851 7.34 1.277"/><path style="fill:none;stroke:#fff;stroke-width:4;stroke-linecap:butt;stroke-linejoin:miter;stroke-miterlimit:10;stroke-opacity:1" d="M656.612 557.719c-4.28 7.622-8.812 17.462-11.359 25.703 26.447-14.116 52.063-27.41 71.516-48.61 9.637-10.5 12.106-27.128 13.037-40.225" transform="matrix(1.25 0 0 -1.25 0 922.5)"/><path style="fill:none;stroke:#fff;stroke-width:4;stroke-linecap:butt;stroke-linejoin:miter;stroke-miterlimit:10;stroke-opacity:1" d="M678.962 564.797c.1 9.956-10.106 24.487-9.125 27.375 25.41-12.578 48.972-28.528 63.135-53.635 5.815-10.315 5.65-22.909 4.84-35.196" transform="matrix(1.25 0 0 -1.25 0 922.5)"/><path style="fill:#fff;fill-opacity:1;fill-rule:evenodd;stroke:none" d="M902.48 291.465c-5.585-9.469-10.765-17.328-16.761-26.54-10.133-15.566-27.54-23.667-42.367-32.59 20.652 17.49 40.992 37.22 50.98 59.13 2.715 1.082 5.434-1.09 8.148 0m-1.394-30.496c.926-6.598-3.781-19.305-8.387-24.68-8.824-10.293-12.933-12.613-24.441-19.785-3.531-2.203-8.32-9.7-9.543-12.574 14.586 12.11 32.805 17.86 42.37 34.226 9.884 16.922 11.868 40.578 12.567 59.828-3.957-13.273-8.613-23.746-12.566-37.015"/><path style="fill:none;stroke:#fff;stroke-width:4;stroke-linecap:butt;stroke-linejoin:miter;stroke-miterlimit:10;stroke-opacity:1" d="M537.903 188.328c-10.387 7.86-21.437 14.097-33.672 17.722-17.925 5.31-36.028 8.134-52.281 1.181 1.578-6.14 25.431-27.531 50.803-31.9 12.528-2.156 22.856.216 29.01 1.64" transform="matrix(1.25 0 0 -1.25 0 922.5)"/><path style="fill:#fff;fill-opacity:1;fill-rule:nonzero;stroke:none" d="M666.988 693.172c-1.488-1.512-2.949-2.172-4.406-2.824-9.074-4.094-22.578-7.075-35.984-10.035-18.598-4.106-37.008-8.168-42.61-14.684-1.625-1.899-3.254-3.793-1.261.133 1.992 3.922 3.62 5.82 5.246 7.715 6.261 7.28 24.8 11.37 43.527 15.507 11.895 2.621 23.86 5.27 32.664 8.641"/><path style="fill:#fff;fill-opacity:1;fill-rule:evenodd;stroke:none" d="m685.668 676.754-26.395-1.293.372 3.875 13.105 7.57 12.555-5.351"/><path style="fill:#fff;fill-opacity:1;fill-rule:nonzero;stroke:none" d="M541.21 684.734c-2.327 0-4.448.95-5.98 2.485a8.422 8.422 0 0 0-2.48 5.98c0 2.328.945 4.442 2.48 5.977l.008.008a8.457 8.457 0 0 0 5.973 2.48 8.457 8.457 0 0 0 5.985-2.48 8.451 8.451 0 0 0 2.484-5.985c0-.433-.035-.87-.102-1.289 3.606-3.75 8.274-7.527 11.926-8.77 4.496-1.944 12.574-2.187 18.266-.898l-7.293-10.312c-7.403-.203-8.016.02-14.176 1.758-5.941 2.023-11.27 5.59-16.09 11.11a8.373 8.373 0 0 0-1-.063zm-2.444 6.016a3.47 3.47 0 0 1 4.898-.008l.008.008a3.467 3.467 0 0 1-.008 4.899 3.48 3.48 0 0 1-2.453 1.015 3.468 3.468 0 0 1-2.457-1.015 3.478 3.478 0 0 1 .012-4.898"/><path style="fill:none;stroke:#fff;stroke-width:4;stroke-linecap:butt;stroke-linejoin:miter;stroke-miterlimit:10;stroke-opacity:1" d="M532.4 161.047c-6.237-3.447-13.781-7.403-23.087-7.453-33.213-.172-53.36 27.034-70.391 35.194" transform="matrix(1.25 0 0 -1.25 0 922.5)"/><path style="fill:#fff;fill-opacity:1;fill-rule:nonzero;stroke:none" d="M663.18 706.867a17.45 17.45 0 0 0-1.325.39c-13.34 4.313-31.566 4.384-45.417 1.266-17.45-3.921-31.493-10.648-34.649-15.691-1.328-2.121-2.656-4.238-2.242-2.582.41 1.656 1.738 3.773 3.066 5.89 4.934 7.883 20.77 17.02 38.723 21.055 13.148 2.957 30.5 2.97 43.375-.629"/><path style="fill:none;stroke:#fff;stroke-width:4;stroke-linecap:butt;stroke-linejoin:miter;stroke-miterlimit:10;stroke-opacity:1" d="M461.394 210.938c-9.94 10.175-19.272 25.278-31.231 32.987-15.244 9.828-33.457 14.037-50.182 21.056 5.25-19.281 16.172-39.7 35.44-51.937 16.092-10.219 28.376-7.666 36.848-8.072" transform="matrix(1.25 0 0 -1.25 0 922.5)"/><path style="fill:#fff;fill-opacity:1;fill-rule:nonzero;stroke:none" d="M484.523 612.477c-6.359-3.735-9.664-5.309-16.043-7.508-6.718-2.317-13.464-3.5-20.257-2.903l.859 10c5.352-.468 10.738.489 16.156 2.356 5.758 1.984 17.176 8.152 22.95 11.547"/><path style="fill:none;stroke:#fff;stroke-width:4;stroke-linecap:butt;stroke-linejoin:miter;stroke-miterlimit:10;stroke-opacity:1" d="M355.319 255.463a3.819 3.819 0 0 1-3.813-3.81 3.819 3.819 0 0 1 3.813-3.81c2.1 0 3.81 1.713 3.81 3.81s-1.71 3.81-3.81 3.81zm28.956-11.719c-5.897 1.553-12.5.175-18.397-1.416 13.384-14.59 25.838-35.206 44.575-45.987 10.769-6.2 25.078-2.204 37.263-1.182" transform="matrix(1.25 0 0 -1.25 0 922.5)"/><path style="fill:#fff;fill-opacity:1;fill-rule:nonzero;stroke:none" d="M544.906 667.887c1.29-.043 2.578-.09 3.184-.715l-24.047-9.559c-7.633-1.011-16.344-4.09-24.59-8.804-9.406-5.375-17.848-12.399-22.828-20.239-1.336-2.11-2.68-4.218-2.129-2.351.547 1.87 1.89 3.984 3.23 6.093 6.887 10.856 14.946 20.368 24.907 26.063 9.344 8.832 32.156 12.207 42.273 9.512"/><path style="fill:none;stroke:#fff;stroke-width:4;stroke-linecap:butt;stroke-linejoin:miter;stroke-miterlimit:10;stroke-opacity:1" d="M391.972 271.672c-3.319 0-6.031-2.425-6.031-5.397 0-2.975 2.712-5.397 6.03-5.397 3.326 0 6.035 2.422 6.035 5.397 0 2.972-2.71 5.397-6.034 5.397zm0 0" transform="matrix(1.25 0 0 -1.25 0 922.5)"/><path style="fill:#fff;fill-opacity:1;fill-rule:evenodd;stroke:none" d="m571.324 647.195 21.028 10.72-15.473 1.585-7.938-10.71"/><path style="fill:none;stroke:#fff;stroke-width:4;stroke-linecap:butt;stroke-linejoin:miter;stroke-miterlimit:10;stroke-opacity:1" d="M368.89 322.294c-4.771 4.928-16.012 12.672-22.734 14.431-1.14-10.081 1.181-24.269 4.631-34.91 4.932-15.184 15.95-30.468 30.213-39.346" transform="matrix(1.25 0 0 -1.25 0 922.5)"/><path style="fill:#fff;fill-opacity:1;fill-rule:evenodd;stroke:none" d="M481.57 565.605c1.54 4.23 1.61 15.317 1.094 19.547l13.059-4.742"/><path style="fill:none;stroke:#fff;stroke-width:4;stroke-linecap:butt;stroke-linejoin:miter;stroke-miterlimit:10;stroke-opacity:1" d="M347.847 311.212c-7.688 6.613-18.416 12.335-27.25 14.375.784-18.168 7.875-42.2 23.372-56.2 6.775-6.125 30.419-12.609 39.284-13.325" transform="matrix(1.25 0 0 -1.25 0 922.5)"/><path style="fill:#fff;fill-opacity:1;fill-rule:evenodd;stroke:#fff;stroke-width:4;stroke-linecap:butt;stroke-linejoin:miter;stroke-miterlimit:10;stroke-opacity:1" d="M310.297 342.969c-2.603 0-4.722-2.556-4.722-5.688 0-3.131 2.119-5.687 4.722-5.687s4.722 2.556 4.722 5.687c0 3.131-2.119 5.688-4.722 5.688zm0 0" transform="matrix(1.25 0 0 -1.25 0 922.5)"/><path style="fill:#fff;fill-opacity:1;fill-rule:nonzero;stroke:none" d="M394.148 505.703c3.97-.512 8.856 2.145 13.778 6.383 2.703 2.328 5.36 5.102 7.863 8.105l.066-.109 17.582 10.523 1.149-.652c-5.098-9.008-12.39-18.734-20.137-25.406-6.949-5.985-14.449-9.656-21.59-8.727"/><path style="fill:#fff;fill-opacity:1;fill-rule:evenodd;stroke:none" d="M445.242 520.121c.39 5.535-1.867 9.68 2.625 20.387 4.492 10.71 15.438 27.285 23.887 42.816.387-4.465-2.668-18.281-4.957-22.133-10.399-17.515-14.707-24.468-21.555-41.07m21.555 70.195c-23.469-7.695-39.602-23.015-50.387-48.64-1.312-3.125-1.648-7.477-.87-10.778 10 20.997 24.464 39.2 46.89 52.426 1.457 2.332 2.914 4.66 4.367 6.992"/><path style="fill:none;stroke:#fff;stroke-width:4;stroke-linecap:butt;stroke-linejoin:miter;stroke-miterlimit:10;stroke-opacity:1" d="M353.406 401.756c-2.381 8.603-5.297 16.675-8.456 24.5-6.031-18.665-18.206-36.384-18.087-56.003.087-14.26 8.946-26.834 18.668-38.503" transform="matrix(1.25 0 0 -1.25 0 922.5)"/><path style="fill:#fff;fill-opacity:1;fill-rule:evenodd;stroke:none" d="M445.254 483.121c.273 5.02.61 11.563-.254 16.234 2.695.622 6.914 10.836 8.324 12.985"/><path style="fill:none;stroke:#fff;stroke-width:4;stroke-linecap:butt;stroke-linejoin:miter;stroke-miterlimit:10;stroke-opacity:1" d="M330.825 390.025c-2.55 13.69-8.637 24.878-16.406 31.616-4.14-8.147-8.094-23.438-5.869-42.054 1.919-16.037 8.588-31.946 16.953-45.962" transform="matrix(1.25 0 0 -1.25 0 922.5)"/><path style="fill:#fff;fill-opacity:1;fill-rule:evenodd;stroke:#fff;stroke-width:4;stroke-linecap:butt;stroke-linejoin:miter;stroke-miterlimit:10;stroke-opacity:1" d="M310.506 439.244c-3.053 0-5.54-3-5.54-6.685 0-3.68 2.487-6.68 5.54-6.68s5.54 3 5.54 6.68c0 3.685-2.487 6.685-5.54 6.685zm0 0" transform="matrix(1.25 0 0 -1.25 0 922.5)"/><path style="fill:none;stroke:#fff;stroke-width:7.99989986;stroke-linecap:butt;stroke-linejoin:miter;stroke-miterlimit:10;stroke-opacity:1" d="M314.531 429.131c8.594-7.375 13.047-19.656 17.278-31.397" transform="matrix(1.25 0 0 -1.25 0 922.5)"/><path style="fill:#fff;fill-opacity:1;fill-rule:evenodd;stroke:none" d="M431.656 411.387c-13.195 25.64-11.031 61.644.774 90.87 3.11.65 6.21 1.298 9.324 1.942-10.149-28.254-16.05-63.527-10.098-92.812m-8.546 88.929c-5.72-13.41-13.587-17.418-14.65-32.625-10.417-12.238-11.237-37.558-12.226-53.765-5.707 34.633 2.696 67.304 26.875 86.39"/><path style="fill:none;stroke:#fff;stroke-width:4;stroke-linecap:butt;stroke-linejoin:miter;stroke-miterlimit:10;stroke-opacity:1" d="M335.881 404.36c-3.397 11.924-5.143 25.49-3.762 38.946 1.706 16.625 30.915 44.769 48.784 64.744 2.363-4.731 2.166-9.856.59-15.369" transform="matrix(1.25 0 0 -1.25 0 922.5)"/><path style="fill:none;stroke:#fff;stroke-width:4;stroke-linecap:butt;stroke-linejoin:miter;stroke-miterlimit:10;stroke-opacity:1" d="M351.519 474.797c.1 16.456-3.14 32.075-9.35 43.012-10.163-17.271-20.294-35.587-22.172-56.171-1.466-16.025.394-29.172 4.14-42.872" transform="matrix(1.25 0 0 -1.25 0 922.5)"/><path style="fill:#fff;fill-opacity:1;fill-rule:evenodd;stroke:none" d="M436.023 256.39c-3.558 0-6.46 3.157-6.46 7.024s2.902 7.02 6.46 7.02c3.567 0 6.473-3.153 6.473-7.02 0-3.867-2.906-7.023-6.473-7.023"/><path style="fill:#fff;fill-opacity:1;fill-rule:nonzero;stroke:none" d="M432.438 266.406c3.796 6.29 7.917 15.406 10.937 25.352 2.469 8.148 4.172 16.797 4.3 24.789h.212l9.035-9.781c-.809-6.008-2.215-12.082-3.977-17.899-3.258-10.75-7.77-20.695-11.953-27.617"/><path style="fill:#fff;fill-opacity:1;fill-rule:evenodd;stroke:none" d="M416.098 400.477c3.234 1.375 7.136.539 10.976-.07-2.289 4.577-5.02 10.609-7.308 15.187-1.22-5.04-2.442-10.078-3.668-15.117m9.765-2.36c2.383-10.844 2.223-22.21 7.153-32.527 6.3-13.168 16.34-24.207 25.375-35.13-10.774 20.013-17.633 41.774-24.07 64.403-2.169 1.41-6.29 1.84-8.458 3.254m-.323-100.507c2.706 3.898 2.526 16.554 0 23.09-5.79 14.964-5.313 23.527-9.438 39.03-.977 8.458-1.946 16.915-2.922 25.38-1.414-10.739-5.82-20.965-3.578-31.555 3.796-17.95 12.84-35.082 15.937-55.946M564.773 663c-5.43-1.492-10.906-2.004-15.96-4.469-24.797-12.105-42.833-28.226-54.594-44.375 5.43 1.063 15.777 4.5 19.797 8.301 16.836 15.91 32.464 28.254 58.101 39.266L564.773 663"/><path style="fill:none;stroke:#fff;stroke-width:4;stroke-linecap:butt;stroke-linejoin:miter;stroke-miterlimit:10;stroke-opacity:1" d="M440.738 557.719c4.28 7.622 8.812 17.462 11.359 25.703-26.444-14.116-52.063-27.41-71.516-48.61-9.631-10.5-12.106-27.128-13.034-40.225" transform="matrix(1.25 0 0 -1.25 0 922.5)"/><path style="fill:none;stroke:#fff;stroke-width:4;stroke-linecap:butt;stroke-linejoin:miter;stroke-miterlimit:10;stroke-opacity:1" d="M418.39 564.797c-.102 9.956 10.107 24.487 9.126 27.375-25.407-12.578-48.972-28.528-63.135-53.635-5.818-10.315-5.65-22.909-4.843-35.196" transform="matrix(1.25 0 0 -1.25 0 922.5)"/><path style="fill:#fff;fill-opacity:1;fill-rule:evenodd;stroke:none" d="M469.21 291.465c5.59-9.469 10.767-17.328 16.763-26.54 10.136-15.566 27.539-23.667 42.367-32.59-20.653 17.49-40.996 37.22-50.98 59.13-2.715 1.082-5.43-1.09-8.15 0m1.395-30.496c-.925-6.598 3.778-19.305 8.383-24.68 8.825-10.293 12.934-12.613 24.446-19.785 3.527-2.203 8.32-9.7 9.543-12.574-14.586 12.11-32.805 17.86-42.372 34.226-9.882 16.922-11.87 40.578-12.566 59.828 3.953-13.273 8.61-23.746 12.566-37.015"/></g></svg>