<svg xmlns="http://www.w3.org/2000/svg" width="793.047" height="528.047"><path fill="#004614" d="M0 0h793.047v528.047H0z"/><path d="M395.644 77.139c-88.1 0-159.51 71.41-159.51 159.51s71.41 159.51 159.51 159.51 159.51-71.41 159.51-159.51-71.41-159.51-159.51-159.51zm0 12.644c81.108 0 146.866 65.758 146.866 146.866 0 81.108-65.758 146.866-146.866 146.866-81.108 0-146.866-65.758-146.866-146.866 0-81.108 65.758-146.866 146.866-146.866z" fill="#fff" stroke="#fff" stroke-width="5.139" stroke-linecap="round"/><path d="M233.899 231.518c42.77 0 61.622-14.71 91.137-14.71 32.366 0 43.755 12.916 68.532 12.916 30.153 0 31.188-12.558 63.51-12.558 29.565 0 52.845 16.059 96.519 15.07m-318.834 21.869c42.771 0 61.622-14.711 91.138-14.711 32.365 0 43.754 12.917 68.532 12.917 30.152 0 31.187-12.559 63.509-12.559 29.566 0 52.846 16.06 96.52 15.07M242.28 276.455c36.416-1.89 54.593-14.475 81.892-14.475 32.365 0 43.754 12.917 68.532 12.917 30.152 0 31.187-12.558 63.509-12.558 28.607 0 51.33 15.034 92.335 15.113m-300.191 21.274c33.28-2.675 51.034-14.16 77.111-14.16 32.366 0 43.755 12.918 68.533 12.918 30.152 0 31.187-12.559 63.509-12.559 26.418 0 47.817 12.822 83.231 14.846M260.2 320.06c26.527-3.93 43.076-12.907 66.133-12.907 32.365 0 43.755 12.917 68.532 12.917 30.152 0 31.188-12.558 63.51-12.558 23.283 0 42.668 9.96 71.185 13.709" fill="none" stroke="#fff" stroke-width="11.239" stroke-linejoin="round"/><path d="M391.695 112.683c11.93 5.22 20.317 17.107 20.317 30.962 0 18.668-15.158 33.825-33.826 33.825-9.334 0-17.767-3.825-23.883-9.942 6.285 12.03 18.88 20.263 33.393 20.263 20.795 0 37.662-16.867 37.662-37.662 0-19.44-14.754-35.444-33.663-37.446z" fill="#fff"/><path d="M374.204 154.77l-7.184-9.133-11.32 2.624 6.467-9.655-5.993-9.955 11.18 3.166 7.616-8.776.443 11.612 10.7 4.531-10.906 4.01z" fill="#fff"/><path d="M226.43 236.99l-2.746 23.837m8.392-1.175l-3.458 22.046m-26.801-39.769l-1.297 23.343m-10.807-11.549l1.653 24.57m21.384-20.16l4.528-36.905m17.418 52.065l-4.655 23.452m-39.898 2.063l-5.62-14.697" fill="#004614" stroke="#fff" stroke-width="1.729" stroke-linecap="round"/><path d="M224.079 258.572c4.561 14.35-4.855 30.62-10.158 35.446.22-11.016.25-31.427 10.158-35.446z" fill="#004614" stroke="#fff" stroke-width="1.729"/><path d="M228.834 278.889c-14.876 3.882-11.968 15.803-14.697 29.395 7.275-6.304 16.727-9.408 14.697-29.395zm-27.882-17.075c-8.766 9.982.079 23.306 4.323 32.204 4.961-11.29 5.61-26.069-4.323-32.204z" fill="#004614" stroke="#fff" stroke-width="1.729"/><path d="M191.226 276.295c.248 15.798 4.12 28.836 16.426 35.447-1.07-18.423-5.028-32.515-16.426-35.447zm21.83-21.398c-9.887 10.652-6.196 27.509-.216 35.88 2.969-8.614 8.119-26.864.216-35.88z" fill="#004614" stroke="#fff" stroke-width="1.729"/><path d="M210.03 276.943c7.368 11.738 8.77 28.176.432 39.986-8.946-10.777-6.492-28.272-.432-39.986z" fill="#004614" stroke="#fff" stroke-width="1.729"/><path d="M209.814 323.846c-1.858-10.643 5.994-22.753 20.533-29.18.223 21.52-9.239 31.846-20.533 29.18z" fill="#004614" stroke="#fff" stroke-width="1.729"/><path d="M213.65 324.274c-16.294-.852-21.398-12.436-23.964-27.017 11.594 3.538 19.287 12.528 23.965 27.017z" fill="#004614" stroke="#fff" stroke-width="1.729" stroke-linejoin="round"/><path d="M157.388 325.428l16.859 22.479m-12.58-39.386l10.807 21.182m7.986-13.523l-20.749-32.853m16.169 75.592l17.291 7.348m-3.685-59.042l-10.807-18.156m26.923 32.089l-5.187-13.833m18.594 26.93l-8.127-15.065" fill="#004614" stroke="#fff" stroke-width="1.729" stroke-linecap="round"/><path d="M170.909 326.93c9.693-3.367 19.706-.483 21.614 21.182-13.12-3.245-21.726-10.459-21.614-21.182zm18.156-20.533c13.906 7.102 18.402 24.49 15.282 35.805-11.807-4.44-19.688-21.163-15.282-35.805z" fill="#004614" stroke="#fff" stroke-width="1.729"/><path d="M205.491 320.23c-7.7 13.978-1.836 26.644 8.213 38.905 1.716-13.793 5.082-27.892-8.213-38.905zm-28.314-8.862c-2.955 9.38 7.074 30.388 22.478 28.314-2.626-13.223-11.206-25.68-22.478-28.314zm-4.971 34.15c7.122 15.126 21.429 16.99 35.879 18.588-11.078-11.193-21.502-26.093-35.88-18.588z" fill="#004614" stroke="#fff" stroke-width="1.729"/><path d="M189.497 333.63c14.224 4.155 24.564 12.9 26.153 31.99-15.55-4.379-25.006-14.362-26.153-31.99z" fill="#004614" stroke="#fff" stroke-width="1.729"/><path d="M218.676 333.198c-7.6 17.4-6.288 31.514 7.997 40.85 6.457-18.88.358-30.515-7.997-40.85z" fill="#004614" stroke="#fff" stroke-width="1.729"/><path d="M189.93 364.97c14.725-6.633 28.353-5.804 40.2 7.133-16.539 6.755-30 4.556-40.2-7.132z" fill="#004614" stroke="#fff" stroke-width="1.729"/><path d="M200.088 385.72c95.552-39.278 82.905 40.196 141.354 27.45-37.935-3.114-58.403-85.505-141.354-27.45z" fill="#004614" stroke="#fff" stroke-width="1.729"/><path d="M436.976 450.994c2.735 2.549 3.959 1.732 6.268 0 2.136-1.603 3.759-4.022-.217-6.052-15.843-8.088-33.862-30.692-91.642-30.692l-68.951-.917-7.349 7.781 74.138-.812c30.534-.334 61.613 6.334 87.753 30.692z" fill="#004614" stroke="#fff" stroke-width="1.729"/><path d="M227.744 431.314l21.258-.812m-47.618-19.278l26.802 10.554m-48.416-55.943l35.88 23.775m28.884-9.304l-12.104-12.104m32.984 17.597l-14.012-10.502M194.9 390.475l23.164 14.444" fill="#004614" stroke="#fff" stroke-width="1.729" stroke-linecap="round"/><path d="M214.378 402.72c14.268-9.424 30.502-.644 30.566 6.878-9.845 3.556-23.103 7.032-30.566-6.878z" fill="#004614" stroke="#fff" stroke-width="1.729"/><path d="M222.02 375.516c-.476 14.438 12.962 25.474 27.815 24.148-3.49-15.632-20.124-24.847-27.816-24.148z" fill="#004614" stroke="#fff" stroke-width="1.729"/><path d="M212.544 387.437c2.108 11.249 19.698 16.54 32.095 12.838-2.287-11.49-24.314-17.109-32.095-12.838z" fill="#004614" stroke="#fff" stroke-width="1.729"/><path d="M243.416 378.726c15.897 1.725 21.295 15.893 23.078 26.745-14.024-3.104-28.36-8.511-23.078-26.745zm-20.786 40.806c9.95-12.902 24.517-10.8 40.96-2.598-12.675 12.851-26.67 9.524-40.96 2.598z" fill="#004614" stroke="#fff" stroke-width="1.729"/><path d="M234.552 397.982c14.636-5.69 35.487 2.4 36.832 16.66-14.87 4.045-37.839.39-36.832-16.66z" fill="#004614" stroke="#fff" stroke-width="1.729"/><path d="M262.979 383.922c12.19 6.026 25.24 11.168 23.994 31.025-24.924 6.067-23.903-14.654-23.994-31.025z" fill="#004614" stroke="#fff" stroke-width="1.729"/><path d="M243.928 430.761c16.742 2.934 31.368-.427 43.023-15.398-12.67-4.444-32.46-1.49-43.023 15.398z" fill="#004614" stroke="#fff" stroke-width="1.729" stroke-linejoin="round"/><path d="M222.308 376.005l-9.077-9.51" fill="#004614" stroke="#fff" stroke-width="1.729" stroke-linecap="round"/><path d="M291.73 431.11h20.317c18.737-13.435 26.157-28.905 57.926-30.26 11.588-.495 22.39 10.283 24.64 15.13-15.182-8.157-26.921-5.41-44.093 13.4-8.23 9.016-18.927 14.597-33.285 15.562-19.224 1.292-18.91-8.102-25.505-13.833z" fill="#004614" stroke="#fff" stroke-width="1.729"/><path d="M566.617 236.99l2.746 23.837m-8.393-1.175l3.46 22.046m26.8-39.769l1.297 23.343m10.807-11.549l-1.71 24.246m-21.327-19.836l-4.528-36.905m-17.418 52.065l4.655 23.452m39.516 2.788l5.62-15.346" fill="#004614" stroke="#fff" stroke-width="1.729" stroke-linecap="round"/><path d="M568.968 258.572c-4.561 14.35 4.855 30.62 10.158 35.446-.22-11.016-.25-31.427-10.158-35.446z" fill="#004614" stroke="#fff" stroke-width="1.729"/><path d="M564.213 278.889c14.876 3.882 11.968 15.803 14.697 29.395-7.275-6.304-16.727-9.408-14.697-29.395zm27.882-17.075c8.766 9.982-.079 23.306-4.323 32.204-4.961-11.29-5.61-26.069 4.323-32.204z" fill="#004614" stroke="#fff" stroke-width="1.729"/><path d="M601.821 276.295c-.248 15.798-4.12 28.836-16.426 35.447 1.07-18.423 5.028-32.515 16.426-35.447zm-21.83-21.398c9.887 10.652 6.196 27.509.216 35.88-2.969-8.614-8.119-26.864-.216-35.88z" fill="#004614" stroke="#fff" stroke-width="1.729"/><path d="M583.017 276.943c-7.368 11.738-8.77 28.176-.432 39.986 8.946-10.777 6.492-28.272.432-39.986z" fill="#004614" stroke="#fff" stroke-width="1.729"/><path d="M583.233 323.846c1.858-10.643-5.994-22.753-20.533-29.18-.223 21.52 9.239 31.846 20.533 29.18z" fill="#004614" stroke="#fff" stroke-width="1.729"/><path d="M579.396 324.274c16.295-.852 21.399-12.436 23.965-27.017-11.594 3.538-19.287 12.528-23.965 27.017z" fill="#004614" stroke="#fff" stroke-width="1.729" stroke-linejoin="round"/><path d="M635.659 325.428L618.8 347.907m12.58-39.386l-10.807 21.182m-7.987-13.523l20.75-32.853m-16.169 75.592l-17.291 7.348m3.685-59.042l10.807-18.156m-26.923 32.089l5.187-13.833m-19.242 27.146l9.964-14.74" fill="#004614" stroke="#fff" stroke-width="1.729" stroke-linecap="round"/><path d="M622.138 326.93c-9.693-3.367-19.706-.483-21.614 21.182 13.12-3.245 21.726-10.459 21.614-21.182zm-18.156-20.533c-13.906 7.102-18.402 24.49-15.282 35.805 11.807-4.44 19.688-21.163 15.282-35.805z" fill="#004614" stroke="#fff" stroke-width="1.729"/><path d="M587.556 320.23c7.7 13.978 1.836 26.644-8.213 38.905-1.716-13.793-5.082-27.892 8.213-38.905zm28.314-8.862c2.955 9.38-7.074 30.388-22.478 28.314 2.626-13.223 11.206-25.68 22.478-28.314zm4.971 34.15c-7.122 15.126-21.429 16.99-35.879 18.588 11.078-11.193 21.502-26.093 35.88-18.588z" fill="#004614" stroke="#fff" stroke-width="1.729"/><path d="M603.55 333.63c-14.224 4.155-24.564 12.9-26.153 31.99 15.55-4.379 25.006-14.362 26.153-31.99z" fill="#004614" stroke="#fff" stroke-width="1.729"/><path d="M574.371 333.198c7.6 17.4 6.288 31.514-7.997 40.85-6.457-18.88-.358-30.515 7.997-40.85z" fill="#004614" stroke="#fff" stroke-width="1.729"/><path d="M603.118 364.97c-14.726-6.633-28.354-5.804-40.202 7.133 16.54 6.755 30.002 4.556 40.202-7.132z" fill="#004614" stroke="#fff" stroke-width="1.729"/><path d="M592.96 385.72c-95.553-39.278-82.906 40.196-141.355 27.45 37.935-3.114 58.403-85.505 141.354-27.45z" fill="#004614" stroke="#fff" stroke-width="1.729"/><path d="M356.071 450.994c-2.735 2.549-3.959 1.732-6.268 0-2.136-1.603-3.759-4.022.217-6.052 15.843-8.088 33.862-30.692 91.642-30.692l68.951-.917 7.349 7.781-74.138-.812c-30.534-.334-61.613 6.334-87.753 30.692z" fill="#004614" stroke="#fff" stroke-width="1.729"/><path d="M565.303 431.314l-21.182-1.405m47.542-18.685l-26.477 10.7m48.09-56.089l-35.879 23.775m-28.884-9.304l12.104-12.104m-33.453 18.118l14.481-11.023m56.502 15.178l-23.451 14.373" fill="#004614" stroke="#fff" stroke-width="1.729" stroke-linecap="round"/><path d="M578.67 402.72c-14.269-9.424-30.503-.644-30.567 6.878 9.845 3.556 23.103 7.032 30.566-6.878z" fill="#004614" stroke="#fff" stroke-width="1.729"/><path d="M571.028 375.516c.475 14.438-12.963 25.474-27.816 24.148 3.49-15.632 20.124-24.847 27.816-24.148z" fill="#004614" stroke="#fff" stroke-width="1.729"/><path d="M580.503 387.437c-2.108 11.249-19.698 16.54-32.095 12.838 2.287-11.49 24.314-17.109 32.095-12.838z" fill="#004614" stroke="#fff" stroke-width="1.729"/><path d="M549.631 378.726c-15.897 1.725-21.295 15.893-23.078 26.745 14.024-3.104 28.36-8.511 23.078-26.745zm20.785 40.806c-9.95-12.902-24.516-10.8-40.959-2.598 12.675 12.851 26.67 9.524 40.96 2.598z" fill="#004614" stroke="#fff" stroke-width="1.729"/><path d="M558.495 397.982c-14.636-5.69-35.487 2.4-36.832 16.66 14.87 4.045 37.839.39 36.832-16.66z" fill="#004614" stroke="#fff" stroke-width="1.729"/><path d="M530.068 383.922c-12.19 6.026-25.24 11.168-23.994 31.025 24.924 6.067 23.903-14.654 23.994-31.025z" fill="#004614" stroke="#fff" stroke-width="1.729"/><path d="M549.173 430.383c-16.742 2.934-32.304.439-43.07-14.874 14.85-6.692 32.506-2.015 43.07 14.874z" fill="#004614" stroke="#fff" stroke-width="1.729" stroke-linejoin="round"/><path d="M570.739 376.005l9.077-9.51" fill="#004614" stroke="#fff" stroke-width="1.729" stroke-linecap="round"/><path d="M501.317 431.11H481c-18.737-13.435-26.157-28.905-57.926-30.26-11.588-.495-22.39 10.283-24.64 15.13 15.182-8.157 26.921-5.41 44.093 13.4 8.23 9.016 18.927 14.597 33.285 15.562 19.224 1.292 18.91-8.102 25.505-13.833z" fill="#004614" stroke="#fff" stroke-width="1.729"/><g fill="#fff"><path d="M467.66 317.148c-3.694 4.497-13.765 6.946-16.281 13.531 0 4.712-.031 9.423-.031 14.188-.161.856-.608 1.679-.875 2-.857-1.82-.636-4.781-2.938-4.406-1.606.16-2.995 3.743-2.781 7.812.642.91 3.41-.794 3.625.438.053 2.837-2.551 5.345-5.656 7.218-.536 0-.442.434.843.594 1.928-.91 4.194-1.277 6.282-1.812.588-1.767 1.048-2.998.78-6.907 1.018-.91 1.47-2.188 1.47-3.687 1.017 1.606 2.983 2.821 5.125 2.875 4.764-.321 7.27-8.274 10.375-11.219-.108-.535-.05-.487-.157-.969-1.927-.267-3.693-2.004-6.156-1.843-1.66-.054-4.532 3.4-5.281 8.218-1.07 1.018-3.05-1.184-3.156-2.843-.054-3.587.214-4.302 0-7.782 2.034-4.175 5.44-4.752 9.937-7.75 3.533-2.088 5.036-5.836 4.875-7.656zm-5.031 19.906c1.698-.038 2.156.579 1.969 1.094-1.178 3.159-4.204 4.96-7.47 4.906.59-2.409 2.76-5.777 4.688-5.937a9.19 9.19 0 0 1 .813-.063z"/><path d="M436.453 340.49c1.285.214 1.178 3.373 3.747 2.998.91 1.713-.32 3.48-.856 5.193-1.125.589-2.891-.375-4.23-.964-2.034 1.339-1.338 5.354-3.854 6.157-1.392-.053-2.356-1.231-3.748-1.231-4.55 6.103-14.883 11.296-23.77 11.296-5.514-.053-7.602-1.927-7.174-5.514.107-1.928.375-3.801 1.017-5.407.375 0 .696-.054 1.07-.107-.963 3.961.59 5.193 3.695 5.193 10.6-.215 17.988-2.088 24.198-7.228 1.018-.107 2.73.964 3.48.321 1.232-1.177.91-2.944 1.82-4.39.108-.214 1.393-.856 1.553-.91.482-2.355.91-4.23 3.052-5.407z" class="fil0"/><path d="M413.539 346.218c.75-.91 2.57 2.517 3.962 3.694.482.536-1.928 1.82-2.998 2.784-.375.268-2.57-2.623-3.855-3.961-.214-.268 2.034-1.606 2.891-2.517z" class="fil0"/><path d="M408.239 346.914c.75-.91 2.57 2.517 4.015 3.748.428.482-1.98 1.767-3.051 2.73-.322.268-2.517-2.623-3.802-3.908-.214-.321 1.981-1.66 2.838-2.57zm-34.264-11.884c1.071-.59 1.446 3.319 2.356 4.925.214.642-2.463.963-3.855 1.445-.428.16-1.392-3.373-2.087-5.032-.108-.375 2.462-.803 3.586-1.339zm-43.792 13.919c1.017-.59 1.445 3.32 2.302 4.925.267.643-2.463.964-3.802 1.446-.428.16-1.391-3.373-2.141-5.033-.053-.375 2.463-.803 3.64-1.338zm23.877 12.849c1.017-.536 1.445 3.319 2.302 4.979.268.642-2.463.91-3.801 1.445-.428.107-1.392-3.373-2.088-5.086-.107-.375 2.409-.75 3.587-1.338zm19.005-9.208c1.018-.59 1.446 3.319 2.302 4.925.268.642-2.462.963-3.8 1.445-.429.16-1.393-3.373-2.089-5.086-.107-.321 2.41-.75 3.587-1.285z" class="fil0"/><path d="M378.58 354.838c1.017-.536 1.445 3.32 2.302 4.979.267.642-2.463.91-3.801 1.445-.429.107-1.392-3.373-2.142-5.086-.053-.374 2.463-.75 3.64-1.338zm-4.926 4.604c1.071-.589 1.446 3.32 2.356 4.925.268.643-2.463.964-3.855 1.446-.428.16-1.392-3.373-2.088-5.033-.107-.374 2.463-.803 3.587-1.338zm4.604-12.849c-1.177 1.285-2.462 1.981-4.604 1.339-1.124-.91-.482-2.624-1.499-3.159-3.426-.696-12.153.75-12.741 4.122a36.67 36.67 0 0 0 5.889 2.463c-1.339.642-4.176 1.231-6.425.75-2.837.16-3.266-2.57-1.445-5.836 1.98-4.658 4.657-9.101 6.263-13.812-1.07.963-1.766 1.873-3.319 1.766-2.677 6.746-5.246 11.618-7.013 16.81-.643 1.767.214 5.408 3.266 6.318 5.3 1.07 9.636-3.908 13.116-5.086.16-.642.107-.482.268-1.124-1.767-.964-5.675-2.784-7.388-3.748 1.606-1.392 5.889-.91 8.137-.16 1.285.589.91 2.623 2.463 2.998 2.088.32 4.55-.91 5.193-2.677.054-.428 0-.75-.16-.964zm-26.608-2.248c-.16.589-.16.32-.32.91-5.568 3.48-12.421 5.675-25.056-1.339-7.548-4.229-3.105-8.78-1.07-11.35 1.98 7.389 12.045 13.76 26.447 11.779z" class="fil0"/></g></svg>