<svg xmlns="http://www.w3.org/2000/svg" width="793.047" height="528.047" xmlns:cgf="https://coding.garden/flags"><metadata id="cgf-metadata">

<cgf:flag>
  <cgf:name></cgf:name>
  <cgf:route>pk/pb</cgf:route>
  <cgf:aspect-ratio>1.5018939393939394</cgf:aspect-ratio>
</cgf:flag>

</metadata><path style="fill:#004614;fill-opacity:1;stroke:none" d="M.976.977h793.047v528.047H.976z" transform="translate(-.976 -.977)"></path><path d="M396.62 78.115c-88.1 0-159.51 71.41-159.51 159.51s71.41 159.51 159.51 159.51c88.101 0 159.511-71.41 159.511-159.51s-71.41-159.51-159.51-159.51zm0 12.644c81.109 0 146.867 65.758 146.867 146.866 0 81.109-65.758 146.867-146.866 146.867-81.108 0-146.866-65.758-146.866-146.867 0-81.108 65.758-146.866 146.866-146.866z" style="fill:#fff;fill-opacity:1;stroke:#fff;stroke-width:5.13923597;stroke-linecap:round;stroke-linejoin:miter;stroke-miterlimit:4;stroke-opacity:1;stroke-dasharray:none" transform="translate(-.976 -.977)"></path><path d="M234.875 232.495c42.771 0 61.622-14.711 91.138-14.711 32.365 0 43.754 12.917 68.532 12.917 30.152 0 31.187-12.558 63.509-12.558 29.566 0 52.846 16.058 96.52 15.07M235.74 255.081c42.77 0 61.622-14.71 91.137-14.71 32.366 0 43.755 12.916 68.532 12.916 30.153 0 31.188-12.558 63.51-12.558 29.565 0 52.845 16.059 96.519 15.07m-312.182 21.632c36.417-1.89 54.593-14.474 81.892-14.474 32.366 0 43.755 12.917 68.532 12.917 30.153 0 31.188-12.559 63.51-12.559 28.607 0 51.329 15.035 92.334 15.114m-300.191 21.273c33.281-2.675 51.034-14.159 77.112-14.159 32.365 0 43.755 12.917 68.532 12.917 30.152 0 31.188-12.558 63.51-12.558 26.417 0 47.817 12.821 83.23 14.846m-280.541 20.288c26.527-3.929 43.077-12.906 66.133-12.906 32.366 0 43.755 12.917 68.533 12.917 30.152 0 31.187-12.559 63.509-12.559 23.283 0 42.668 9.96 71.185 13.71" style="fill:none;stroke:#fff;stroke-width:11.23920918;stroke-linecap:butt;stroke-linejoin:round;stroke-miterlimit:4;stroke-opacity:1;stroke-dasharray:none" transform="translate(-.976 -.977)"></path><path d="M392.671 113.66c11.93 5.219 20.317 17.106 20.317 30.961 0 18.668-15.158 33.826-33.826 33.826-9.334 0-17.766-3.826-23.883-9.942 6.285 12.03 18.88 20.263 33.393 20.263 20.795 0 37.663-16.868 37.663-37.663 0-19.44-14.755-35.444-33.664-37.446z" style="fill:#fff;fill-opacity:1;stroke:none" transform="translate(-.976 -.977)"></path><path d="m375.18 155.747-7.183-9.133-11.32 2.623 6.466-9.654-5.993-9.956 11.18 3.167 7.617-8.776.443 11.611 10.7 4.532-10.906 4.01z" style="fill:#fff;fill-opacity:1;stroke:none" transform="translate(-.976 -.977)"></path><path style="fill:#004614;fill-opacity:1;stroke:#fff;stroke-width:1.72910905px;stroke-linecap:butt;stroke-linejoin:miter;stroke-opacity:1" d="M220.084 334.823z" transform="translate(-.976 -.977)"></path><path style="fill:#004614;fill-opacity:1;stroke:#fff;stroke-width:1.72910905px;stroke-linecap:round;stroke-linejoin:miter;stroke-opacity:1" d="m227.407 237.967-2.747 23.837m8.393-1.175-3.459 22.046m-26.801-39.77-1.297 23.343M190.69 254.7l1.652 24.57m21.385-20.16 4.528-36.906m17.418 52.066-4.655 23.452m-39.898 2.063-5.62-14.698" transform="translate(-.976 -.977)"></path><path style="fill:#004614;fill-opacity:1;stroke:#fff;stroke-width:1.72910905;stroke-linecap:butt;stroke-linejoin:miter;stroke-miterlimit:4;stroke-opacity:1;stroke-dasharray:none" d="M225.056 259.548c4.56 14.35-4.855 30.621-10.159 35.447.22-11.016.25-31.427 10.159-35.447z" transform="translate(-.976 -.977)"></path><path style="fill:#004614;fill-opacity:1;stroke:#fff;stroke-width:1.72910905;stroke-linecap:butt;stroke-linejoin:miter;stroke-miterlimit:4;stroke-opacity:1;stroke-dasharray:none" d="M229.81 279.865c-14.876 3.882-11.967 15.804-14.697 29.395 7.276-6.304 16.727-9.407 14.698-29.395zm-27.881-17.075c-8.767 9.983.078 23.307 4.322 32.205 4.962-11.291 5.61-26.07-4.322-32.205z" transform="translate(-.976 -.977)"></path><path style="fill:#004614;fill-opacity:1;stroke:#fff;stroke-width:1.72910905;stroke-linecap:butt;stroke-linejoin:miter;stroke-miterlimit:4;stroke-opacity:1;stroke-dasharray:none" d="M192.202 277.272c.249 15.798 4.12 28.835 16.427 35.446-1.071-18.422-5.028-32.515-16.427-35.446zm21.83-21.398c-9.886 10.652-6.196 27.508-.216 35.879 2.97-8.614 8.12-26.864.216-35.88z" transform="translate(-.976 -.977)"></path><path style="fill:#004614;fill-opacity:1;stroke:#fff;stroke-width:1.72910905;stroke-linecap:butt;stroke-linejoin:miter;stroke-miterlimit:4;stroke-opacity:1;stroke-dasharray:none" d="M211.007 277.92c7.367 11.738 8.77 28.176.432 39.986-8.946-10.777-6.493-28.273-.432-39.986z" transform="translate(-.976 -.977)"></path><path style="fill:#004614;fill-opacity:1;stroke:#fff;stroke-width:1.72910905;stroke-linecap:butt;stroke-linejoin:miter;stroke-miterlimit:4;stroke-opacity:1;stroke-dasharray:none" d="M210.79 324.822c-1.858-10.642 5.994-22.752 20.534-29.179.222 21.52-9.24 31.846-20.534 29.179z" transform="translate(-.976 -.977)"></path><path style="fill:#004614;fill-opacity:1;stroke:#fff;stroke-width:1.72910905;stroke-linecap:butt;stroke-linejoin:round;stroke-miterlimit:4;stroke-opacity:1;stroke-dasharray:none" d="M214.627 325.25c-16.295-.851-21.398-12.436-23.965-27.016 11.594 3.538 19.287 12.528 23.965 27.017z" transform="translate(-.976 -.977)"></path><path style="fill:#004614;fill-opacity:1;stroke:#fff;stroke-width:1.72910905px;stroke-linecap:round;stroke-linejoin:miter;stroke-opacity:1" d="m158.365 326.405 16.858 22.478m-12.579-39.385 10.807 21.181m7.986-13.522-20.75-32.853m16.17 75.591 17.29 7.349m-3.685-59.043-10.806-18.156m26.923 32.089-5.187-13.833m18.593 26.931-8.126-15.066" transform="translate(-.976 -.977)"></path><path style="fill:#004614;fill-opacity:1;stroke:#fff;stroke-width:1.72910905;stroke-linecap:butt;stroke-linejoin:miter;stroke-miterlimit:4;stroke-opacity:1;stroke-dasharray:none" d="M171.885 327.907c9.693-3.368 19.707-.483 21.614 21.181-13.119-3.244-21.726-10.458-21.614-21.181zm18.156-20.533c13.906 7.102 18.403 24.49 15.283 35.804-11.807-4.439-19.689-21.163-15.283-35.804z" transform="translate(-.976 -.977)"></path><path style="fill:#004614;fill-opacity:1;stroke:#fff;stroke-width:1.72910905;stroke-linecap:butt;stroke-linejoin:miter;stroke-miterlimit:4;stroke-opacity:1;stroke-dasharray:none" d="M206.468 321.206c-7.7 13.979-1.837 26.645 8.213 38.905 1.716-13.793 5.082-27.891-8.213-38.905zm-28.315-8.861c-2.954 9.379 7.074 30.388 22.479 28.314-2.627-13.224-11.207-25.681-22.479-28.314zm-4.971 34.15c7.123 15.125 21.43 16.989 35.88 18.588-11.079-11.193-21.502-26.093-35.88-18.588z" transform="translate(-.976 -.977)"></path><path style="fill:#004614;fill-opacity:1;stroke:#fff;stroke-width:1.72910905;stroke-linecap:butt;stroke-linejoin:miter;stroke-miterlimit:4;stroke-opacity:1;stroke-dasharray:none" d="M190.473 334.607c14.225 4.155 24.565 12.9 26.153 31.989-15.549-4.378-25.005-14.362-26.153-31.989z" transform="translate(-.976 -.977)"></path><path style="fill:#004614;fill-opacity:1;stroke:#fff;stroke-width:1.72910905;stroke-linecap:butt;stroke-linejoin:miter;stroke-miterlimit:4;stroke-opacity:1;stroke-dasharray:none" d="M219.652 334.175c-7.6 17.399-6.287 31.514 7.997 40.85 6.457-18.88.358-30.516-7.997-40.85z" transform="translate(-.976 -.977)"></path><path style="fill:#004614;fill-opacity:1;stroke:#fff;stroke-width:1.72910905;stroke-linecap:butt;stroke-linejoin:miter;stroke-miterlimit:4;stroke-opacity:1;stroke-dasharray:none" d="M190.906 365.947c14.725-6.633 28.354-5.805 40.201 7.133-16.54 6.755-30.001 4.556-40.201-7.133z" transform="translate(-.976 -.977)"></path><path style="fill:#004614;fill-opacity:1;stroke:#fff;stroke-width:1.72910905;stroke-linecap:butt;stroke-linejoin:miter;stroke-miterlimit:4;stroke-opacity:1;stroke-dasharray:none" d="M201.064 386.696c95.553-39.277 82.906 40.197 141.355 27.45-37.936-3.113-58.404-85.504-141.355-27.45z" transform="translate(-.976 -.977)"></path><path style="fill:#004614;fill-opacity:1;stroke:#fff;stroke-width:1.72910905;stroke-linecap:butt;stroke-linejoin:miter;stroke-miterlimit:4;stroke-opacity:1;stroke-dasharray:none" d="M437.952 451.97c2.735 2.55 3.959 1.732 6.268 0 2.137-1.602 3.76-4.022-.216-6.052-15.843-8.088-33.862-30.691-91.643-30.691l-68.95-.917-7.35 7.78 74.139-.811c30.533-.335 61.612 6.333 87.752 30.691z" transform="translate(-.976 -.977)"></path><path style="fill:#004614;fill-opacity:1;stroke:#fff;stroke-width:1.72910905px;stroke-linecap:round;stroke-linejoin:miter;stroke-opacity:1" d="m228.72 432.29 21.259-.811M202.361 412.2l26.801 10.555m-48.415-55.943 35.88 23.775m28.883-9.305-12.104-12.104m32.984 17.597-14.011-10.501m-56.502 15.178 23.164 14.444" transform="translate(-.976 -.977)"></path><path style="fill:#004614;fill-opacity:1;stroke:#fff;stroke-width:1.72910905;stroke-linecap:butt;stroke-linejoin:miter;stroke-miterlimit:4;stroke-opacity:1;stroke-dasharray:none" d="M215.354 403.697c14.268-9.424 30.503-.645 30.567 6.877-9.845 3.556-23.104 7.032-30.567-6.877z" transform="translate(-.976 -.977)"></path><path style="fill:#004614;fill-opacity:1;stroke:#fff;stroke-width:1.72910905;stroke-linecap:butt;stroke-linejoin:miter;stroke-miterlimit:4;stroke-opacity:1;stroke-dasharray:none" d="M222.996 376.493c-.476 14.437 12.962 25.474 27.815 24.147-3.49-15.631-20.123-24.846-27.815-24.147z" transform="translate(-.976 -.977)"></path><path style="fill:#004614;fill-opacity:1;stroke:#fff;stroke-width:1.72910905;stroke-linecap:butt;stroke-linejoin:miter;stroke-miterlimit:4;stroke-opacity:1;stroke-dasharray:none" d="M213.52 388.414c2.109 11.248 19.698 16.539 32.095 12.837-2.287-11.489-24.314-17.108-32.095-12.837z" transform="translate(-.976 -.977)"></path><path style="fill:#004614;fill-opacity:1;stroke:#fff;stroke-width:1.72910905;stroke-linecap:butt;stroke-linejoin:miter;stroke-miterlimit:4;stroke-opacity:1;stroke-dasharray:none" d="M244.392 379.702c15.898 1.726 21.296 15.893 23.078 26.746-14.024-3.105-28.36-8.512-23.078-26.746zm-20.785 40.806c9.95-12.902 24.516-10.8 40.96-2.598-12.675 12.852-26.67 9.525-40.96 2.598z" transform="translate(-.976 -.977)"></path><path style="fill:#004614;fill-opacity:1;stroke:#fff;stroke-width:1.72910905;stroke-linecap:butt;stroke-linejoin:miter;stroke-miterlimit:4;stroke-opacity:1;stroke-dasharray:none" d="M235.528 398.959c14.636-5.691 35.488 2.4 36.833 16.659-14.871 4.046-37.84.39-36.833-16.659z" transform="translate(-.976 -.977)"></path><path style="fill:#004614;fill-opacity:1;stroke:#fff;stroke-width:1.72910905;stroke-linecap:butt;stroke-linejoin:miter;stroke-miterlimit:4;stroke-opacity:1;stroke-dasharray:none" d="M263.955 384.898c12.19 6.026 25.24 11.168 23.995 31.025-24.924 6.067-23.903-14.654-23.995-31.025z" transform="translate(-.976 -.977)"></path><path style="fill:#004614;fill-opacity:1;stroke:#fff;stroke-width:1.72910905;stroke-linecap:butt;stroke-linejoin:round;stroke-miterlimit:4;stroke-opacity:1;stroke-dasharray:none" d="M244.905 431.738c16.741 2.934 31.368-.427 43.022-15.398-12.669-4.444-32.459-1.49-43.022 15.398z" transform="translate(-.976 -.977)"></path><path style="fill:#004614;fill-opacity:1;stroke:#fff;stroke-width:1.72910905px;stroke-linecap:round;stroke-linejoin:miter;stroke-opacity:1" d="m223.285 376.981-9.078-9.51" transform="translate(-.976 -.977)"></path><path style="fill:#004614;fill-opacity:1;stroke:#fff;stroke-width:1.72910905;stroke-linecap:butt;stroke-linejoin:miter;stroke-miterlimit:4;stroke-opacity:1;stroke-dasharray:none" d="M292.707 432.086h20.317c18.737-13.434 26.156-28.905 57.925-30.26 11.588-.494 22.391 10.284 24.64 15.13-15.181-8.157-26.921-5.41-44.092 13.4-8.231 9.016-18.927 14.597-33.286 15.562-19.224 1.293-18.91-8.102-25.504-13.832z" transform="translate(-.976 -.977)"></path><path style="fill:#004614;fill-opacity:1;stroke:#fff;stroke-width:1.72910905px;stroke-linecap:butt;stroke-linejoin:miter;stroke-opacity:1" d="M574.916 334.823z" transform="translate(-.976 -.977)"></path><path style="fill:#004614;fill-opacity:1;stroke:#fff;stroke-width:1.72910905px;stroke-linecap:round;stroke-linejoin:miter;stroke-opacity:1" d="m567.593 237.967 2.747 23.837m-8.393-1.175 3.459 22.046m26.801-39.77 1.297 23.343M604.31 254.7l-1.71 24.245m-21.327-19.835-4.528-36.906m-17.418 52.066 4.655 23.452m39.516 2.788 5.62-15.346" transform="translate(-.976 -.977)"></path><path style="fill:#004614;fill-opacity:1;stroke:#fff;stroke-width:1.72910905;stroke-linecap:butt;stroke-linejoin:miter;stroke-miterlimit:4;stroke-opacity:1;stroke-dasharray:none" d="M569.944 259.548c-4.56 14.35 4.855 30.621 10.159 35.447-.22-11.016-.25-31.427-10.159-35.447z" transform="translate(-.976 -.977)"></path><path style="fill:#004614;fill-opacity:1;stroke:#fff;stroke-width:1.72910905;stroke-linecap:butt;stroke-linejoin:miter;stroke-miterlimit:4;stroke-opacity:1;stroke-dasharray:none" d="M565.19 279.865c14.876 3.882 11.967 15.804 14.697 29.395-7.276-6.304-16.727-9.407-14.698-29.395zm27.881-17.075c8.767 9.983-.079 23.307-4.322 32.205-4.962-11.291-5.61-26.07 4.322-32.205z" transform="translate(-.976 -.977)"></path><path style="fill:#004614;fill-opacity:1;stroke:#fff;stroke-width:1.72910905;stroke-linecap:butt;stroke-linejoin:miter;stroke-miterlimit:4;stroke-opacity:1;stroke-dasharray:none" d="M602.798 277.272c-.249 15.798-4.12 28.835-16.427 35.446 1.071-18.422 5.028-32.515 16.427-35.446zm-21.83-21.398c9.886 10.652 6.196 27.508.216 35.879-2.97-8.614-8.12-26.864-.216-35.88z" transform="translate(-.976 -.977)"></path><path style="fill:#004614;fill-opacity:1;stroke:#fff;stroke-width:1.72910905;stroke-linecap:butt;stroke-linejoin:miter;stroke-miterlimit:4;stroke-opacity:1;stroke-dasharray:none" d="M583.993 277.92c-7.367 11.738-8.77 28.176-.432 39.986 8.946-10.777 6.493-28.273.432-39.986z" transform="translate(-.976 -.977)"></path><path style="fill:#004614;fill-opacity:1;stroke:#fff;stroke-width:1.72910905;stroke-linecap:butt;stroke-linejoin:miter;stroke-miterlimit:4;stroke-opacity:1;stroke-dasharray:none" d="M584.21 324.822c1.858-10.642-5.994-22.752-20.534-29.179-.222 21.52 9.24 31.846 20.534 29.179z" transform="translate(-.976 -.977)"></path><path style="fill:#004614;fill-opacity:1;stroke:#fff;stroke-width:1.72910905;stroke-linecap:butt;stroke-linejoin:round;stroke-miterlimit:4;stroke-opacity:1;stroke-dasharray:none" d="M580.373 325.25c16.295-.851 21.398-12.436 23.965-27.016-11.594 3.538-19.287 12.528-23.965 27.017z" transform="translate(-.976 -.977)"></path><path style="fill:#004614;fill-opacity:1;stroke:#fff;stroke-width:1.72910905px;stroke-linecap:round;stroke-linejoin:miter;stroke-opacity:1" d="m636.635 326.405-16.858 22.478m12.579-39.385-10.807 21.181m-7.986-13.522 20.75-32.853m-16.17 75.591-17.29 7.349m3.685-59.043 10.806-18.156m-26.923 32.089 5.187-13.833m-19.241 27.147 9.963-14.741" transform="translate(-.976 -.977)"></path><path style="fill:#004614;fill-opacity:1;stroke:#fff;stroke-width:1.72910905;stroke-linecap:butt;stroke-linejoin:miter;stroke-miterlimit:4;stroke-opacity:1;stroke-dasharray:none" d="M623.115 327.907c-9.693-3.368-19.707-.483-21.614 21.181 13.119-3.244 21.726-10.458 21.614-21.181zm-18.156-20.533c-13.906 7.102-18.403 24.49-15.283 35.804 11.807-4.439 19.689-21.163 15.283-35.804z" transform="translate(-.976 -.977)"></path><path style="fill:#004614;fill-opacity:1;stroke:#fff;stroke-width:1.72910905;stroke-linecap:butt;stroke-linejoin:miter;stroke-miterlimit:4;stroke-opacity:1;stroke-dasharray:none" d="M588.532 321.206c7.7 13.979 1.837 26.645-8.213 38.905-1.716-13.793-5.082-27.891 8.213-38.905zm28.315-8.861c2.954 9.379-7.074 30.388-22.479 28.314 2.627-13.224 11.207-25.681 22.479-28.314zm4.971 34.15c-7.123 15.125-21.43 16.989-35.88 18.588 11.079-11.193 21.502-26.093 35.88-18.588z" transform="translate(-.976 -.977)"></path><path style="fill:#004614;fill-opacity:1;stroke:#fff;stroke-width:1.72910905;stroke-linecap:butt;stroke-linejoin:miter;stroke-miterlimit:4;stroke-opacity:1;stroke-dasharray:none" d="M604.527 334.607c-14.225 4.155-24.565 12.9-26.153 31.989 15.549-4.378 25.005-14.362 26.153-31.989z" transform="translate(-.976 -.977)"></path><path style="fill:#004614;fill-opacity:1;stroke:#fff;stroke-width:1.72910905;stroke-linecap:butt;stroke-linejoin:miter;stroke-miterlimit:4;stroke-opacity:1;stroke-dasharray:none" d="M575.348 334.175c7.6 17.399 6.287 31.514-7.997 40.85-6.457-18.88-.358-30.516 7.997-40.85z" transform="translate(-.976 -.977)"></path><path style="fill:#004614;fill-opacity:1;stroke:#fff;stroke-width:1.72910905;stroke-linecap:butt;stroke-linejoin:miter;stroke-miterlimit:4;stroke-opacity:1;stroke-dasharray:none" d="M604.094 365.947c-14.725-6.633-28.354-5.805-40.201 7.133 16.54 6.755 30.001 4.556 40.201-7.133z" transform="translate(-.976 -.977)"></path><path style="fill:#004614;fill-opacity:1;stroke:#fff;stroke-width:1.72910905;stroke-linecap:butt;stroke-linejoin:miter;stroke-miterlimit:4;stroke-opacity:1;stroke-dasharray:none" d="M593.936 386.696c-95.553-39.277-82.906 40.197-141.355 27.45 37.936-3.113 58.404-85.504 141.355-27.45z" transform="translate(-.976 -.977)"></path><path style="fill:#004614;fill-opacity:1;stroke:#fff;stroke-width:1.72910905;stroke-linecap:butt;stroke-linejoin:miter;stroke-miterlimit:4;stroke-opacity:1;stroke-dasharray:none" d="M357.048 451.97c-2.735 2.55-3.959 1.732-6.268 0-2.137-1.602-3.76-4.022.216-6.052 15.843-8.088 33.862-30.691 91.643-30.691l68.95-.917 7.35 7.78-74.139-.811c-30.533-.335-61.612 6.333-87.752 30.691z" transform="translate(-.976 -.977)"></path><path style="fill:#004614;fill-opacity:1;stroke:#fff;stroke-width:1.72910905px;stroke-linecap:round;stroke-linejoin:miter;stroke-opacity:1" d="m566.28 432.29-21.182-1.404m47.541-18.686-26.477 10.7m48.091-56.088-35.88 23.775m-28.883-9.305 12.104-12.104m-33.454 18.119 14.481-11.023m56.502 15.178-23.45 14.373" transform="translate(-.976 -.977)"></path><path style="fill:#004614;fill-opacity:1;stroke:#fff;stroke-width:1.72910905;stroke-linecap:butt;stroke-linejoin:miter;stroke-miterlimit:4;stroke-opacity:1;stroke-dasharray:none" d="M579.646 403.697c-14.268-9.424-30.503-.645-30.567 6.877 9.845 3.556 23.104 7.032 30.567-6.877z" transform="translate(-.976 -.977)"></path><path style="fill:#004614;fill-opacity:1;stroke:#fff;stroke-width:1.72910905;stroke-linecap:butt;stroke-linejoin:miter;stroke-miterlimit:4;stroke-opacity:1;stroke-dasharray:none" d="M572.004 376.493c.476 14.437-12.962 25.474-27.815 24.147 3.49-15.631 20.123-24.846 27.815-24.147z" transform="translate(-.976 -.977)"></path><path style="fill:#004614;fill-opacity:1;stroke:#fff;stroke-width:1.72910905;stroke-linecap:butt;stroke-linejoin:miter;stroke-miterlimit:4;stroke-opacity:1;stroke-dasharray:none" d="M581.48 388.414c-2.109 11.248-19.698 16.539-32.095 12.837 2.287-11.489 24.314-17.108 32.095-12.837z" transform="translate(-.976 -.977)"></path><path style="fill:#004614;fill-opacity:1;stroke:#fff;stroke-width:1.72910905;stroke-linecap:butt;stroke-linejoin:miter;stroke-miterlimit:4;stroke-opacity:1;stroke-dasharray:none" d="M550.608 379.702c-15.898 1.726-21.296 15.893-23.078 26.746 14.024-3.105 28.36-8.512 23.078-26.746zm20.785 40.806c-9.95-12.902-24.516-10.8-40.96-2.598 12.675 12.852 26.67 9.525 40.96 2.598z" transform="translate(-.976 -.977)"></path><path style="fill:#004614;fill-opacity:1;stroke:#fff;stroke-width:1.72910905;stroke-linecap:butt;stroke-linejoin:miter;stroke-miterlimit:4;stroke-opacity:1;stroke-dasharray:none" d="M559.472 398.959c-14.636-5.691-35.488 2.4-36.833 16.659 14.871 4.046 37.84.39 36.833-16.659z" transform="translate(-.976 -.977)"></path><path style="fill:#004614;fill-opacity:1;stroke:#fff;stroke-width:1.72910905;stroke-linecap:butt;stroke-linejoin:miter;stroke-miterlimit:4;stroke-opacity:1;stroke-dasharray:none" d="M531.045 384.898c-12.19 6.026-25.24 11.168-23.995 31.025 24.924 6.067 23.903-14.654 23.995-31.025z" transform="translate(-.976 -.977)"></path><path style="fill:#004614;fill-opacity:1;stroke:#fff;stroke-width:1.72910905;stroke-linecap:butt;stroke-linejoin:round;stroke-miterlimit:4;stroke-opacity:1;stroke-dasharray:none" d="M550.15 431.36c-16.742 2.933-32.304.438-43.07-14.874 14.849-6.692 32.506-2.015 43.07 14.874z" transform="translate(-.976 -.977)"></path><path style="fill:#004614;fill-opacity:1;stroke:#fff;stroke-width:1.72910905px;stroke-linecap:round;stroke-linejoin:miter;stroke-opacity:1" d="m571.715 376.981 9.078-9.51" transform="translate(-.976 -.977)"></path><path style="fill:#004614;fill-opacity:1;stroke:#fff;stroke-width:1.72910905;stroke-linecap:butt;stroke-linejoin:miter;stroke-miterlimit:4;stroke-opacity:1;stroke-dasharray:none" d="M502.293 432.086h-20.317c-18.737-13.434-26.156-28.905-57.925-30.26-11.588-.494-22.391 10.284-24.64 15.13 15.181-8.157 26.921-5.41 44.092 13.4 8.231 9.016 18.927 14.597 33.286 15.562 19.224 1.293 18.91-8.102 25.504-13.832z" transform="translate(-.976 -.977)"></path><g style="fill:#fff"><path style="fill:#fff;fill-opacity:1;stroke:none" d="M312.875 240.844c-3.694 4.497-13.765 6.946-16.281 13.531 0 4.711-.031 9.423-.031 14.188-.161.856-.608 1.678-.875 2-.857-1.82-.636-4.782-2.938-4.407-1.606.16-2.995 3.744-2.781 7.813.642.91 3.41-.794 3.625.437.053 2.838-2.551 5.345-5.656 7.219-.536 0-.442.433.843.594 1.928-.91 4.194-1.277 6.282-1.813.588-1.766 1.048-2.998.78-6.906 1.018-.91 1.47-2.188 1.47-3.688 1.017 1.607 2.983 2.822 5.125 2.875 4.764-.32 7.27-8.274 10.375-11.218-.108-.536-.05-.487-.157-.969-1.927-.268-3.693-2.004-6.156-1.844-1.66-.053-4.532 3.4-5.281 8.219-1.07 1.017-3.05-1.184-3.156-2.844-.054-3.587.214-4.301 0-7.781 2.034-4.176 5.44-4.752 9.937-7.75 3.533-2.088 5.036-5.836 4.875-7.656zm-5.031 19.906c1.698-.038 2.156.578 1.969 1.094-1.178 3.158-4.204 4.96-7.47 4.906.59-2.41 2.76-5.777 4.688-5.938a9.19 9.19 0 0 1 .813-.062z" transform="translate(154.785 76.304)"></path><path d="M281.668 264.186c1.285.214 1.178 3.372 3.747 2.998.91 1.713-.32 3.48-.856 5.193-1.125.589-2.891-.375-4.23-.964-2.034 1.339-1.338 5.354-3.854 6.157-1.392-.054-2.356-1.232-3.748-1.232-4.55 6.104-14.883 11.297-23.77 11.297-5.514-.054-7.602-1.928-7.174-5.515.107-1.927.375-3.8 1.017-5.407.375 0 .696-.053 1.07-.107-.963 3.962.59 5.193 3.695 5.193 10.6-.214 17.988-2.088 24.198-7.227 1.018-.107 2.73.963 3.48.321 1.232-1.178.91-2.945 1.82-4.39.108-.214 1.393-.857 1.553-.91.482-2.356.91-4.23 3.052-5.407z" class="fil0" style="fill:#fff;fill-opacity:1" transform="translate(154.785 76.304)"></path><path d="M258.754 269.914c.75-.91 2.57 2.516 3.962 3.694.482.535-1.928 1.82-2.998 2.784-.375.268-2.57-2.623-3.855-3.962-.214-.267 2.034-1.606 2.891-2.516z" class="fil0" style="fill:#fff;fill-opacity:1" transform="translate(154.785 76.304)"></path><path d="M253.454 270.61c.75-.91 2.57 2.516 4.015 3.748.428.481-1.98 1.766-3.051 2.73-.322.268-2.517-2.623-3.802-3.908-.214-.321 1.981-1.66 2.838-2.57zm-34.264-11.885c1.071-.589 1.446 3.32 2.356 4.925.214.643-2.463.964-3.855 1.446-.428.16-1.392-3.373-2.087-5.033-.108-.374 2.462-.803 3.586-1.338zm-43.792 13.919c1.017-.588 1.445 3.32 2.302 4.926.267.642-2.463.963-3.802 1.445-.428.16-1.391-3.372-2.141-5.032-.053-.375 2.463-.803 3.64-1.339zm23.877 12.849c1.017-.535 1.445 3.32 2.302 4.98.268.642-2.463.91-3.801 1.445-.428.107-1.392-3.373-2.088-5.086-.107-.375 2.409-.75 3.587-1.339zm19.005-9.208c1.018-.589 1.446 3.32 2.302 4.925.268.643-2.462.964-3.8 1.446-.429.16-1.393-3.373-2.089-5.086-.107-.321 2.41-.75 3.587-1.285z" class="fil0" style="fill:#fff;fill-opacity:1" transform="translate(154.785 76.304)"></path><path d="M223.795 278.533c1.017-.535 1.445 3.32 2.302 4.98.267.642-2.463.91-3.801 1.445-.429.107-1.392-3.373-2.142-5.086-.053-.375 2.463-.75 3.64-1.339zm-4.925 4.605c1.07-.59 1.445 3.319 2.355 4.925.268.642-2.463.964-3.855 1.445-.428.161-1.392-3.372-2.088-5.032-.107-.375 2.463-.803 3.587-1.338zm4.603-12.849c-1.177 1.285-2.462 1.98-4.604 1.338-1.124-.91-.482-2.623-1.499-3.158-3.426-.696-12.153.75-12.742 4.122a36.67 36.67 0 0 0 5.89 2.463c-1.339.642-4.176 1.23-6.425.75-2.837.16-3.266-2.57-1.445-5.836 1.98-4.658 4.657-9.102 6.263-13.813-1.07.964-1.766 1.874-3.319 1.767-2.677 6.745-5.246 11.617-7.013 16.81-.643 1.767.214 5.408 3.266 6.318 5.3 1.07 9.636-3.908 13.116-5.086.16-.643.107-.482.268-1.125-1.767-.963-5.675-2.783-7.388-3.747 1.606-1.392 5.889-.91 8.137-.16 1.285.588.91 2.623 2.463 2.997 2.088.322 4.55-.91 5.193-2.677.054-.428 0-.749-.16-.963zm-26.607-2.249c-.16.59-.16.322-.322.91-5.567 3.48-12.42 5.675-25.055-1.338-7.548-4.23-3.105-8.78-1.07-11.35 1.98 7.388 12.045 13.76 26.447 11.778z" class="fil0" style="fill:#fff;fill-opacity:1" transform="translate(154.785 76.304)"></path></g></svg>