<svg xmlns="http://www.w3.org/2000/svg" width="1800" height="1200" viewBox="0 0 1440 960" xmlns:cgf="https://coding.garden/flags"><metadata id="cgf-metadata">

<cgf:flag>
  <cgf:name></cgf:name>
  <cgf:route>pk/sd</cgf:route>
  <cgf:aspect-ratio>1.5</cgf:aspect-ratio>
</cgf:flag>

</metadata><path style="fill:#004226;fill-opacity:1;fill-rule:evenodd;stroke:none" d="M0 0h1440v960H0"></path><path style="fill:#fff;fill-opacity:1;fill-rule:evenodd;stroke:#fff;stroke-width:1.25012505;stroke-linecap:butt;stroke-linejoin:miter;stroke-miterlimit:10;stroke-opacity:1" d="M833.625 458.004c-.953-101.453-111.867-86.207-114.156-176.34 2.406 66.242 132.484 68.059 131.644 176.34-.176 106.758-130.82 107.726-131.644 176.344 4.87-87.555 117.101-70.989 114.156-176.344zm-228.325 0c.958-101.45 111.872-86.207 114.16-176.336-2.405 66.238-132.48 68.055-131.644 176.336.176 106.762 130.82 107.726 131.645 176.344-4.871-87.551-117.102-70.989-114.16-176.344zm0 0"></path><path style="fill:#fff;fill-opacity:1;fill-rule:evenodd;stroke:none" d="M850.79 336.316c-.825-10.078-4.782-19.543-11.06-27.148-6.824-8.273-16.39-14.363-27.656-16.695l-.57-.114h-.012a5.16 5.16 0 0 0-.164-.03l-3.004-.563.043 3.05c.156 11.293 4.258 21.993 11.211 30.415 6.508 7.886 15.504 13.785 26.09 16.343a49.346 49.346 0 0 1-5.215-1.574 43.231 43.231 0 0 1 2.875 3.375c-8.937 2.813-18.207 2.586-26.601-.148-8.348-2.723-15.84-7.907-21.297-15.032 8.937-2.812 18.207-2.582 26.605.153l.52.175a51.558 51.558 0 0 1-2.977-3.292 47.624 47.624 0 0 1-2.469-3.262 48.48 48.48 0 0 0-25.828 2.375l-.011.008c-.407.156-.422.164-.457.176l-.012.004c-.309.128.238-.09-.227.09l-2.851 1.12 1.68 2.567c6.19 9.453 15.39 16.277 25.78 19.66 10.192 3.32 21.536 3.332 32.298-.742l.008-.008c.27-.102-.051.02.351-.14.113-.04.227-.09.332-.13l2.598-1.02a4.835 4.835 0 0 0 4.414-3.831 4.703 4.703 0 0 0-.027-2.063l1.097-2.422c4.66-10.285 5.492-21.714 2.785-32.289-2.656-10.375-8.726-19.957-17.945-26.863l.004-.008c-.027-.02-.101-.07-.191-.137.293.215.484.348-.43-.316l-2.469-1.793-1.265 2.789a48.723 48.723 0 0 0-4.235 23.063 48.947 48.947 0 0 1 5.7 5.347c-1.485-7.73-.91-15.836 1.863-23.394 7.16 6.035 11.93 13.98 14.125 22.543 2.18 8.511 1.812 17.617-1.278 26.046a43.75 43.75 0 0 1-3.136-2.921 48.68 48.68 0 0 1 1.007 6.636zm-14.907-23.976c-5.621-6.805-13.317-11.973-22.375-14.387.789 8.938 4.332 17.332 9.918 24.106 5.62 6.804 13.32 11.972 22.379 14.394-.79-8.945-4.332-17.34-9.922-24.113m66.657 139.64c4.374-9.12 5.73-19.285 4.147-29.02-1.722-10.585-6.906-20.67-15.457-28.366-.16-.149-.3-.27-.433-.387-.008 0-.008-.004-.012-.004a1.886 1.886 0 0 0-.129-.113l-2.308-2.004-1.504 2.656c-5.563 9.828-7.41 21.14-5.656 31.922 1.64 10.086 6.43 19.727 14.28 27.27a50.715 50.715 0 0 1-3.71-3.985c.332 1.43.59 2.89.773 4.36-9.133-2.083-17.015-6.954-22.89-13.551-5.832-6.555-9.688-14.813-10.805-23.727 9.137 2.086 17.027 6.961 22.898 13.563.121.132.239.273.36.41a47.84 47.84 0 0 1-.906-4.34 47.618 47.618 0 0 1-.493-4.063 48.473 48.473 0 0 0-23.5-10.984l-.008.008c-.43-.074-.445-.074-.484-.078h-.016c-.332-.055.25.031-.238-.04l-3.027-.476.156 3.063c.578 11.285 5.078 21.82 12.34 29.984 7.129 8.008 16.914 13.735 28.262 15.649h.015c.281.047-.062-.012.367.054.118.02.235.04.36.055l2.754.434c1.894.941 4.261.562 5.742-1.082.48-.532.82-1.149 1.015-1.797l2.168-1.535c9.22-6.532 15.704-15.98 18.696-26.48 2.937-10.302 2.53-21.63-1.946-32.243h.008c-.011-.035-.05-.117-.093-.219.148.336.242.543-.211-.492l-1.23-2.797-2.497 1.774a48.73 48.73 0 0 0-15.289 17.777 48.677 48.677 0 0 1 2.219 7.488c2.617-7.426 7.207-14.129 13.414-19.258 3.14 8.82 3.246 18.094.824 26.59-2.41 8.45-7.324 16.133-14.242 21.848a42.964 42.964 0 0 1-1.234-4.11 48.77 48.77 0 0 1-2.48 6.247zm-.774-28.222c-1.422-8.719-5.461-17.055-12.059-23.719-3.832 8.121-5.012 17.156-3.598 25.82 1.414 8.72 5.457 17.059 12.059 23.72 3.828-8.122 5.012-17.157 3.598-25.821"></path><path style="fill:#fff;fill-opacity:1;fill-rule:evenodd;stroke:none" d="M887.684 388.328c.656-10.094-1.88-20.031-6.98-28.473-5.556-9.18-14.126-16.597-24.934-20.546-.204-.075-.38-.133-.551-.192 0-.004-.004-.004-.008-.004-.074-.023-.117-.043-.164-.058l-2.883-.993-.406 3.024c-1.493 11.203 1.007 22.379 6.664 31.722 5.293 8.75 13.328 15.899 23.433 19.973a48.3 48.3 0 0 1-4.933-2.316 43.116 43.116 0 0 1 2.355 3.761c-9.258 1.477-18.39-.097-26.3-4.03-7.86-3.907-14.516-10.126-18.883-17.973 9.253-1.48 18.394.097 26.304 4.027.164.086.324.168.485.25a50.49 50.49 0 0 1-2.461-3.692 48.96 48.96 0 0 1-1.97-3.582 48.405 48.405 0 0 0-25.897-1.413l-.016.008-.476.105-.008.004c-.329.078.242-.055-.243.055l-2.984.695 1.289 2.781c4.75 10.25 12.86 18.352 22.645 23.211 9.597 4.766 20.816 6.43 32.058 3.961l.012-.004c.281-.062-.059.012.363-.086.117-.027.235-.054.352-.078l2.722-.629a4.838 4.838 0 0 0 4.922-3.152 4.805 4.805 0 0 0 .274-2.043l1.433-2.234c6.114-9.5 8.602-20.684 7.461-31.543-1.117-10.653-5.73-21.012-13.844-29.188l.008-.004c-.023-.031-.09-.09-.168-.164.262.25.426.41-.378-.375l-2.184-2.14-1.656 2.574a48.756 48.756 0 0 0-7.547 22.203 49.224 49.224 0 0 1 4.855 6.117c-.34-7.863 1.407-15.793 5.258-22.871 6.2 7.012 9.766 15.57 10.688 24.36.918 8.737-.774 17.694-5.055 25.581a41.715 41.715 0 0 1-2.68-3.347c.16 2.218.176 4.468.028 6.718zm-11.254-25.894c-4.567-7.555-11.43-13.786-20.04-17.497-.523 8.961 1.758 17.786 6.298 25.293 4.57 7.555 11.437 13.786 20.046 17.5.524-8.957-1.757-17.78-6.304-25.296m13.3 155.589c7.758-6.484 13.207-15.171 15.805-24.687 2.817-10.344 2.281-21.672-2.312-32.227a9.505 9.505 0 0 0-.239-.527v-.008h-.008a1.429 1.429 0 0 0-.066-.156l-1.27-2.778-2.472 1.797c-9.137 6.64-15.508 16.16-18.38 26.696-2.687 9.867-2.323 20.62 1.696 30.742v-.004a47.64 47.64 0 0 1-1.722-5.164 42.811 42.811 0 0 1-1.106 4.297c-7.45-5.684-12.602-13.387-15.215-21.825-2.59-8.386-2.676-17.5-.004-26.066 7.457 5.684 12.613 13.387 15.219 21.824.055.176.11.348.164.524.258-1.453.578-2.899.969-4.328a51.95 51.95 0 0 1 1.234-3.895 48.372 48.372 0 0 0-16.828-19.73l-.015-.008c-.36-.243-.371-.247-.407-.274l-.015-.004c-.277-.18.219.137-.2-.137l-2.562-1.68-1.12 2.852c-4.153 10.504-4.427 21.965-1.2 32.403 3.168 10.238 9.7 19.507 19.234 25.953l.016.004c.234.164-.051-.031.312.207l.301.195 2.328 1.535c1.328 1.64 3.645 2.278 5.676 1.395a4.679 4.679 0 0 0 1.668-1.211l2.61-.5c11.093-2.13 20.906-8.035 27.988-16.348 6.941-8.156 11.265-18.637 11.597-30.148h.004c.004-.04.004-.13.004-.235-.004.36-.004.594.012-.535l.04-3.055-3.005.575a48.75 48.75 0 0 0-21.285 9.843 48.892 48.892 0 0 1-1.082 7.735c5.46-5.668 12.414-9.871 20.188-11.969-.797 9.332-4.54 17.813-10.274 24.543-5.691 6.691-13.344 11.645-22.016 13.98.13-1.437.325-2.859.582-4.253a47.886 47.886 0 0 1-4.843 4.652zm10.993-26a43.528 43.528 0 0 0-1.149-26.582c-6.851 5.801-11.664 13.536-13.972 22.008-2.32 8.52-2.102 17.781 1.144 26.582 6.852-5.8 11.668-13.535 13.977-22.008M759.988 639.82h-.004c10.047 1.18 20.102-.836 28.793-5.492 9.457-5.062 17.309-13.242 21.817-23.828.086-.2.156-.371.226-.543v-.008c.028-.074.047-.113.063-.156l1.148-2.832-3.004-.563c-11.105-2.066-22.398-.152-32.027 5.008-9.012 4.828-16.57 12.488-21.16 22.36h.004a50.286 50.286 0 0 1 2.562-4.805c-1.25.781-2.539 1.5-3.875 2.156-.992-9.32 1.059-18.355 5.39-26.05 4.306-7.65 10.868-13.973 18.93-17.927.997 9.32-1.054 18.364-5.39 26.059-.086.156-.18.313-.273.473a49.44 49.44 0 0 1 7.496-4.047 48.413 48.413 0 0 0 2.757-25.79l-.004-.011c-.074-.43-.078-.441-.085-.48l-.004-.016c-.06-.328.043.25-.04-.242l-.535-3.016-2.847 1.14c-10.485 4.212-18.996 11.888-24.356 21.407-5.265 9.344-7.504 20.457-5.629 31.813l.008.011c.043.281-.008-.058.067.371.015.118.043.239.062.352l.488 2.75c0 .012-.004.027-.004.043l-18.12 7.644 8.73 3.965 11.996-6.707c.094.047.183.094.285.133a4.762 4.762 0 0 0 2.031.379l2.153 1.55c9.175 6.598 20.207 9.665 31.113 9.09 10.695-.562 21.281-4.628 29.871-12.304v.004c.031-.02.094-.082.172-.156-.262.242-.434.406.394-.36l2.25-2.07-2.484-1.79a48.72 48.72 0 0 0-21.781-8.69 48.992 48.992 0 0 1-6.363 4.535c7.87.062 15.703 2.226 22.574 6.437-7.328 5.828-16.059 8.938-24.887 9.402-8.777.465-17.633-1.687-25.29-6.375a42.555 42.555 0 0 1 3.49-2.5 48.904 48.904 0 0 1-6.708-.324zm26.442-9.89a43.528 43.528 0 0 0 18.511-19.102c-8.921-.992-17.847.828-25.586 4.977-7.785 4.168-14.363 10.703-18.515 19.105 8.918.985 17.851-.836 25.59-4.98"></path><path style="fill:#fff;fill-opacity:1;fill-rule:evenodd;stroke:none" d="M812.602 610.031c10.043-1.148 19.375-5.406 26.777-11.922 8.047-7.093 13.828-16.847 15.797-28.187.039-.207.062-.395.09-.574v-.004l.03-.172.47-3.016-3.051.133c-11.285.523-21.84 4.969-30.04 12.187-7.671 6.766-13.28 15.946-15.495 26.61v-.008a50.455 50.455 0 0 1 1.402-5.258 42.496 42.496 0 0 1-3.281 2.98c-3.094-8.843-3.164-18.113-.703-26.593 2.449-8.434 7.394-16.082 14.335-21.77 3.102 8.844 3.168 18.117.704 26.602-.047.168-.102.344-.157.52a48.797 48.797 0 0 1 6.371-5.652 48.339 48.339 0 0 0-3.203-25.74l-.004-.011a8.799 8.799 0 0 0-.195-.453l-.004-.008c-.137-.309.102.234-.098-.227l-1.21-2.812-2.512 1.765c-9.242 6.489-15.774 15.907-18.82 26.399-2.848 9.816-2.657 20.578 1.195 30.765 2.672.051 5.355.313 8.027.813l3.004.562-1.148 2.833c-.016.043-.036.082-.063.156v.008c-.07.172-.14.344-.226.543a49.047 49.047 0 0 1-1.977 4.105c.137-.023.273-.05.406-.09l2.453 1.02c10.438 4.324 21.883 4.789 32.368 1.742 10.285-2.992 19.66-9.363 26.273-18.8h.004c.02-.028.066-.094.129-.188-.203.297-.336.492.3-.442l1.716-2.527-2.825-1.172a48.75 48.75 0 0 0-23.187-3.492 48.95 48.95 0 0 1-5.16 5.867c7.68-1.73 15.796-1.414 23.441 1.11-5.8 7.355-13.59 12.375-22.082 14.843-8.43 2.453-17.547 2.383-26.07-.433a42.269 42.269 0 0 1 2.82-3.23 48.3 48.3 0 0 1-6.602 1.218zm23.48-15.668a43.526 43.526 0 0 0 13.664-22.828c-8.91 1.074-17.187 4.883-23.777 10.688-6.625 5.836-11.535 13.699-13.664 22.828 8.914-1.074 17.191-4.883 23.777-10.688"></path><path style="fill:#fff;fill-opacity:1;fill-rule:evenodd;stroke:none" d="M855.254 569.445c9.457-3.047 17.66-8.906 23.613-16.566 6.582-8.473 10.438-19.137 10.254-30.64 0-.216-.012-.403-.016-.583v-.008c-.004-.078-.004-.129-.004-.172l-.109-3.05-2.969.707c-10.984 2.617-20.527 8.96-27.23 17.582-6.274 8.074-10.067 18.14-10.254 29.027a49.82 49.82 0 0 1 .395-5.43 43.026 43.026 0 0 1-2.665 3.543 43.58 43.58 0 0 1-5.66-25.996c.828-8.734 4.254-17.18 10.02-24.07a43.616 43.616 0 0 1 5.66 26.004c-.02.18-.04.36-.059.547a48.213 48.213 0 0 1 2.563-3.625 51.448 51.448 0 0 1 2.64-3.125 48.418 48.418 0 0 0-7.953-24.684l-.011-.008c-.242-.36-.246-.375-.274-.406l-.008-.016c-.191-.273.14.211-.133-.199l-1.718-2.54-2.137 2.204c-7.871 8.102-12.527 18.574-13.555 29.45-.98 10.32 1.293 21.015 7.16 30.398a48.617 48.617 0 0 1 9.91-1.5l3.051-.133-.468 3.016-.032.171v.004l-.011.098a48.312 48.312 0 0 0 5.789-2.285 44.875 44.875 0 0 0-2.16 3.7c8.898 1.179 17.863-.454 25.695-4.442 7.875-4.008 14.59-10.403 18.918-18.707-7.984-1.055-16.02.152-23.238 3.293a48.772 48.772 0 0 0 3.968-6.73 48.684 48.684 0 0 1 23.434-.903l2.996.62-1.21 2.806c-.446 1.039-.36.82-.22.492a1.18 1.18 0 0 1-.093.21v-.003c-4.73 10.504-12.75 18.515-22.297 23.379-9.735 4.957-21.063 6.636-32.121 4.332l-.715-.144a50.149 50.149 0 0 0 1.176-5.141c.027-.172.05-.324.078-.477zm19.676-19.633a43.516 43.516 0 0 0 9.16-24.976c-8.555 2.719-15.973 8.008-21.363 14.941-5.414 6.973-8.774 15.61-9.157 24.98 8.555-2.726 15.977-8.01 21.36-14.944M588.14 336.316c.825-10.078 4.778-19.543 11.06-27.148 6.823-8.273 16.39-14.363 27.655-16.695.207-.043.395-.078.57-.114h.012c.079-.015.122-.023.168-.03l3-.563-.039 3.05c-.156 11.293-4.261 21.993-11.215 30.415-6.511 7.886-15.503 13.785-26.09 16.343a49.07 49.07 0 0 0 5.216-1.574 43.233 43.233 0 0 0-2.875 3.375c8.937 2.813 18.207 2.586 26.605-.148 8.344-2.723 15.832-7.907 21.293-15.032-8.941-2.812-18.207-2.582-26.606.153l-.52.175a52.754 52.754 0 0 0 2.977-3.292 48.918 48.918 0 0 0 2.47-3.262 48.462 48.462 0 0 1 25.823 2.375l.016.008c.406.156.418.164.453.176l.016.004c.312.128-.235-.09.222.09l2.852 1.12-1.68 2.567c-6.183 9.453-15.39 16.277-25.78 19.66-10.188 3.32-21.528 3.332-32.294-.742l-.012-.008c-.265-.102.055.02-.351-.14-.11-.04-.219-.09-.328-.13l-2.602-1.02a4.839 4.839 0 0 1-4.414-3.831 4.823 4.823 0 0 1 .031-2.063l-1.097-2.422c-4.66-10.285-5.496-21.714-2.786-32.289 2.657-10.375 8.73-19.957 17.946-26.863l-.004-.008c.027-.02.101-.07.191-.137-.297.215-.484.348.43-.316l2.469-1.793 1.265 2.789a48.723 48.723 0 0 1 4.235 23.063 48.948 48.948 0 0 0-5.7 5.347c1.485-7.73.907-15.836-1.867-23.394-7.156 6.035-11.926 13.98-14.12 22.543-2.18 8.511-1.817 17.617 1.273 26.046a43.814 43.814 0 0 0 3.14-2.921 48.144 48.144 0 0 0-1.008 6.636zm14.907-23.976c5.617-6.805 13.32-11.973 22.371-14.387-.785 8.938-4.324 17.332-9.918 24.106-5.617 6.804-13.313 11.972-22.371 14.394.785-8.945 4.324-17.34 9.918-24.113M536.39 451.98c-4.374-9.12-5.734-19.285-4.148-29.02 1.723-10.585 6.906-20.67 15.457-28.366.16-.149.301-.27.442-.387l.004-.004c.058-.055.097-.086.129-.113l2.304-2.004 1.508 2.656c5.559 9.828 7.414 21.14 5.656 31.922-1.64 10.086-6.43 19.727-14.281 27.27a49.983 49.983 0 0 0 3.711-3.985 43.85 43.85 0 0 0-.777 4.36c9.136-2.083 17.023-6.954 22.89-13.551 5.836-6.555 9.688-14.813 10.809-23.727-9.137 2.086-17.024 6.961-22.899 13.563-.12.132-.238.273-.359.41a47.79 47.79 0 0 0 .906-4.34 48.94 48.94 0 0 0 .492-4.063 48.456 48.456 0 0 1 23.5-10.984l.008.008c.434-.074.45-.074.489-.078h.011c.329-.055-.25.031.239-.04l3.031-.476-.16 3.063c-.578 11.285-5.074 21.82-12.34 29.984-7.129 8.008-16.914 13.735-28.262 15.649h-.015c-.282.047.058-.012-.371.054-.118.02-.235.04-.352.055l-2.758.434c-1.89.941-4.262.562-5.742-1.082a4.75 4.75 0 0 1-1.016-1.797l-2.168-1.535c-9.215-6.532-15.7-15.981-18.695-26.481-2.942-10.3-2.531-21.629 1.941-32.242h-.004c.016-.035.047-.117.094-.219-.149.336-.242.543.21-.492l1.227-2.797 2.497 1.773a48.63 48.63 0 0 1 15.292 17.778 48.68 48.68 0 0 0-2.218 7.488c-2.617-7.426-7.211-14.129-13.414-19.258-3.14 8.82-3.25 18.094-.82 26.59 2.406 8.45 7.32 16.133 14.238 21.848.48-1.36.894-2.735 1.234-4.11a48.769 48.769 0 0 0 2.48 6.246zm.774-28.222c1.418-8.719 5.461-17.055 12.059-23.719 3.832 8.121 5.011 17.156 3.597 25.82-1.414 8.72-5.457 17.059-12.058 23.72-3.828-8.122-5.004-17.157-3.598-25.821"></path><path style="fill:#fff;fill-opacity:1;fill-rule:evenodd;stroke:none" d="M551.242 388.328c-.652-10.094 1.883-20.031 6.988-28.473 5.547-9.18 14.13-16.597 24.934-20.546.2-.075.375-.133.547-.192.004-.004.004-.004.008-.004.074-.023.117-.043.164-.058l2.89-.993.4 3.024c1.487 11.203-1.013 22.379-6.665 31.722-5.29 8.75-13.332 15.899-23.434 19.973a49.093 49.093 0 0 0 4.934-2.316 42.168 42.168 0 0 0-2.352 3.761c9.254 1.477 18.383-.097 26.297-4.03 7.86-3.907 14.516-10.126 18.88-17.973-9.255-1.48-18.387.097-26.298 4.027l-.488.25a49.258 49.258 0 0 0 2.461-3.692 48.955 48.955 0 0 0 1.969-3.582 48.405 48.405 0 0 1 25.898-1.414l.012.008.48.106.008.004c.328.078-.242-.055.243.055l2.98.695-1.289 2.781c-4.746 10.25-12.856 18.352-22.64 23.211-9.598 4.766-20.817 6.43-32.06 3.961l-.011-.004c-.285-.062.059.012-.367-.086-.117-.027-.235-.055-.352-.078l-2.718-.629a4.838 4.838 0 0 1-4.922-3.152 4.805 4.805 0 0 1-.274-2.043l-1.433-2.235c-6.11-9.5-8.602-20.683-7.461-31.543 1.12-10.652 5.73-21.011 13.84-29.187l-.004-.004c.023-.031.085-.09.164-.164-.258.25-.422.41.382-.375l2.184-2.14 1.652 2.573a48.67 48.67 0 0 1 7.551 22.204 49.257 49.257 0 0 0-4.86 6.117c.348-7.863-1.405-15.793-5.253-22.871-6.2 7.011-9.766 15.57-10.688 24.36-.918 8.737.774 17.694 5.059 25.581a42.548 42.548 0 0 0 2.676-3.348 49.412 49.412 0 0 0-.031 6.72zm11.258-25.894c4.563-7.555 11.43-13.786 20.04-17.497.526 8.961-1.759 17.786-6.302 25.293-4.57 7.555-11.43 13.786-20.039 17.5-.52-8.957 1.754-17.78 6.301-25.296m-13.3 155.589c-7.763-6.484-13.208-15.171-15.802-24.687-2.824-10.344-2.28-21.672 2.309-32.227.09-.195.16-.367.238-.527 0-.004 0-.008.008-.008a1.46 1.46 0 0 1 .067-.156l1.27-2.777 2.468 1.797c9.137 6.64 15.508 16.16 18.383 26.695 2.687 9.867 2.32 20.62-1.696 30.742v-.004a47.64 47.64 0 0 0 1.723-5.164c.293 1.445.66 2.875 1.106 4.297 7.449-5.684 12.605-13.387 15.21-21.824 2.594-8.387 2.68-17.5.009-26.067-7.457 5.684-12.614 13.387-15.22 21.824-.054.176-.109.348-.155.524a50.156 50.156 0 0 0-.977-4.328 50.099 50.099 0 0 0-1.238-3.895 48.411 48.411 0 0 1 16.832-19.73l.015-.008c.36-.242.375-.246.406-.273l.012-.004c.277-.18-.215.136.2-.137l2.566-1.68 1.12 2.852c4.157 10.504 4.426 21.965 1.196 32.402-3.164 10.238-9.695 19.508-19.23 25.953l-.012.004c-.238.164.047-.031-.317.207-.097.067-.199.13-.296.196l-2.336 1.535c-1.329 1.64-3.641 2.277-5.672 1.394a4.728 4.728 0 0 1-1.672-1.21l-2.606-.5c-11.093-2.13-20.91-8.036-27.988-16.348-6.945-8.157-11.266-18.637-11.598-30.149h-.004c-.004-.039-.004-.129-.004-.234.004.36.004.594-.011-.535l-.04-3.055 3.005.574a48.735 48.735 0 0 1 21.28 9.844c.157 2.613.52 5.195 1.087 7.734-5.461-5.668-12.418-9.87-20.192-11.968.801 9.332 4.547 17.812 10.274 24.543 5.695 6.69 13.351 11.644 22.02 13.98a44.744 44.744 0 0 0-.583-4.254 48.3 48.3 0 0 0 4.844 4.652zm-10.993-26c-2.32-8.52-2.098-17.78 1.148-26.582 6.848 5.801 11.665 13.536 13.973 22.008 2.32 8.52 2.102 17.781-1.148 26.582-6.848-5.8-11.664-13.535-13.973-22.008M678.945 639.82c-10.05 1.18-20.101-.836-28.797-5.492-9.457-5.062-17.308-13.242-21.812-23.828-.086-.2-.152-.371-.223-.543l-.004-.004v-.004a3.193 3.193 0 0 1-.062-.156l-1.149-2.832 3.004-.563c11.102-2.066 22.395-.152 32.028 5.008 9.011 4.828 16.57 12.488 21.16 22.36a51.21 51.21 0 0 0-2.567-4.805 43.99 43.99 0 0 0 3.875 2.156c.996-9.32-1.054-18.355-5.39-26.05-4.305-7.65-10.864-13.973-18.926-17.927-1 9.32 1.05 18.364 5.387 26.059.086.156.18.313.273.473a48.71 48.71 0 0 0-3.812-2.266 50.741 50.741 0 0 0-3.684-1.781 48.413 48.413 0 0 1-2.758-25.79l.004-.011c.074-.43.078-.441.082-.48l.004-.016c.067-.328-.043.25.047-.242l.535-3.016 2.848 1.14c10.484 4.212 18.988 11.888 24.351 21.407 5.262 9.344 7.504 20.457 5.63 31.813l-.012.011c-.043.281.011-.058-.063.371l-.062.352-.489 2.75c0 .012.004.027.004.043l18.125 7.644-8.73 3.965-12-6.707a4.74 4.74 0 0 1-2.316.512l-2.153 1.55c-9.168 6.598-20.21 9.665-31.113 9.09-10.7-.562-21.281-4.628-29.867-12.304l-.008.004c-.028-.02-.09-.082-.168-.156.261.242.433.406-.395-.36l-2.25-2.07 2.485-1.79a48.72 48.72 0 0 1 21.78-8.69c2 1.683 4.13 3.199 6.36 4.535-7.867.062-15.703 2.226-22.566 6.437 7.324 5.828 16.054 8.938 24.883 9.402 8.773.465 17.632-1.687 25.289-6.375a43.236 43.236 0 0 0-3.489-2.5 48.99 48.99 0 0 0 6.711-.324zm-26.445-9.89a43.508 43.508 0 0 1-18.512-19.102c8.922-.992 17.848.828 25.586 4.977a43.525 43.525 0 0 1 18.516 19.105c-8.922.985-17.848-.836-25.59-4.98"></path><path style="fill:#fff;fill-opacity:1;fill-rule:evenodd;stroke:none" d="M626.328 610.031c.004 0 .004 0 0 0-10.047-1.148-19.375-5.406-26.777-11.922-8.047-7.093-13.828-16.847-15.797-28.187-.04-.207-.063-.395-.094-.574v-.004a3.383 3.383 0 0 0-.027-.172l-.465-3.016 3.047.133c11.285.523 21.84 4.969 30.039 12.187 7.672 6.766 13.281 15.946 15.492 26.61v-.008a47.7 47.7 0 0 0-1.402-5.258 43.991 43.991 0 0 0 3.281 2.98c3.098-8.843 3.164-18.113.703-26.593-2.445-8.434-7.386-16.082-14.336-21.77-3.097 8.844-3.168 18.117-.703 26.602.055.168.106.344.156.52a49.485 49.485 0 0 0-3.191-3.083 49.944 49.944 0 0 0-3.18-2.57 48.454 48.454 0 0 1 3.203-25.738l.012-.012c.164-.398.176-.414.188-.453l.011-.008c.133-.309-.105.234.094-.227l1.211-2.812 2.508 1.765c9.25 6.489 15.777 15.907 18.824 26.399 2.852 9.816 2.66 20.578-1.195 30.765a48.68 48.68 0 0 0-8.028.813l-3.004.562 1.149 2.833c.015.043.031.082.062.156v.004l.004.004c.07.172.137.344.223.543a49.047 49.047 0 0 0 1.977 4.105 3.57 3.57 0 0 1-.407-.09l-2.457 1.02c-10.433 4.324-21.879 4.789-32.363 1.742-10.289-2.992-19.664-9.363-26.273-18.8a1.708 1.708 0 0 1-.133-.188c.203.297.332.492-.301-.442l-1.715-2.527 2.82-1.172c7.458-3.094 15.426-4.21 23.196-3.492a48.577 48.577 0 0 0 5.156 5.867c-7.676-1.73-15.797-1.414-23.441 1.11 5.8 7.355 13.593 12.375 22.078 14.843 8.433 2.453 17.55 2.383 26.074-.433a42.264 42.264 0 0 0-2.82-3.23 48.41 48.41 0 0 0 6.601 1.218zm-23.484-15.668a43.546 43.546 0 0 1-13.66-22.828c8.91 1.074 17.187 4.883 23.773 10.688 6.629 5.836 11.54 13.699 13.668 22.828-8.91-1.074-17.191-4.883-23.781-10.688"></path><path style="fill:#fff;fill-opacity:1;fill-rule:evenodd;stroke:none" d="M583.676 569.445c-9.457-3.047-17.66-8.906-23.614-16.566-6.582-8.473-10.437-19.137-10.253-30.64 0-.216.011-.403.015-.583v-.008c.004-.078.004-.129.004-.172l.11-3.05 2.968.707c10.985 2.617 20.532 8.96 27.23 17.582 6.274 8.074 10.067 18.14 10.255 29.027a49.82 49.82 0 0 0-.399-5.43 43.973 43.973 0 0 0 2.668 3.543c4.7-8.113 6.496-17.203 5.66-25.996-.832-8.734-4.254-17.18-10.015-24.07a43.59 43.59 0 0 0-5.664 26.004l.058.547a49.24 49.24 0 0 0-5.207-6.75 48.424 48.424 0 0 1 7.957-24.684l.008-.008c.246-.36.25-.375.274-.406l.011-.016c.188-.273-.14.211.137-.199l1.715-2.54 2.137 2.204c7.87 8.102 12.523 18.574 13.558 29.45.977 10.32-1.297 21.015-7.168 30.398a48.58 48.58 0 0 0-9.906-1.5l-3.047-.133.465 3.016c.008.043.016.085.027.171v.004c.004.036.012.067.016.098a48.63 48.63 0 0 1-5.793-2.285 42.795 42.795 0 0 1 2.164 3.7c-8.898 1.179-17.867-.454-25.691-4.442-7.883-4.008-14.598-10.403-18.922-18.707 7.984-1.055 16.02.152 23.242 3.293a48.408 48.408 0 0 1-3.973-6.73 48.686 48.686 0 0 0-23.433-.903l-3 .62 1.215 2.806c.453 1.039.359.82.218.492.04.101.07.18.09.21v-.003c4.73 10.504 12.754 18.515 22.3 23.379 9.731 4.957 21.06 6.636 32.126 4.332l.71-.145a49.135 49.135 0 0 1-1.175-5.14c-.027-.172-.055-.325-.078-.477zM564 549.812a43.517 43.517 0 0 1-9.164-24.976c8.555 2.719 15.973 8.008 21.363 14.941 5.418 6.973 8.778 15.61 9.16 24.98-8.554-2.726-15.976-8.01-21.359-14.944"></path><path style="fill:#fff;fill-opacity:1;fill-rule:nonzero;stroke:none" d="m718.465 186.93 13.476 35.125h54.411l-6.934 4.578-36.473 24.086 14.07 36.672 2.798 7.293-6.508-4.325-35.078-23.316-.309.207-.059-.04-35.046 23.15-6.141 4.05 2.398-6.941 13.125-38.008-33.039-22.86-6.578-4.546h49.086l12.106-35.051 2.234-6.48 2.46 6.406zm9.43 38.511-11.641-30.332-10.45 30.254-.581 1.692H668.57l28.019 19.382 1.562 1.086-.613 1.774-11.344 32.844 30.317-20.02 1.402-.926.059.04.261-.18 1.375.914 29.942 19.902-11.989-31.238-.718-1.867 1.676-1.102 31.207-20.61h-41.211"></path><path style="fill:#fff;fill-opacity:1;fill-rule:evenodd;stroke:none" d="M704.496 234.758a3.065 3.065 0 0 1 3.063 3.062 3.065 3.065 0 0 1-3.063 3.063 3.07 3.07 0 0 1-3.062-3.063 3.07 3.07 0 0 1 3.062-3.062m14.828 0a3.067 3.067 0 0 1 3.059 3.062 3.067 3.067 0 0 1-3.059 3.063 3.064 3.064 0 0 1-3.058-3.063 3.064 3.064 0 0 1 3.058-3.062m15.11 0a3.067 3.067 0 0 1 3.058 3.062 3.067 3.067 0 0 1-3.058 3.063 3.065 3.065 0 0 1-3.063-3.063 3.065 3.065 0 0 1 3.063-3.062"></path><path style="fill:#fff;fill-opacity:1;fill-rule:nonzero;stroke:none" d="M956.855 427.184c8.36 16.394 14.864 33.808 19.254 52.011a233.708 233.708 0 0 1 6.524 54.836c0 68.34-29.602 130.367-77.344 175.297C857.625 754.188 791.875 782 719.47 782c-72.41 0-138.164-27.813-185.828-72.672-47.743-44.93-77.344-106.957-77.344-175.297 0-18.785 2.258-37.14 6.523-54.836 4.39-18.203 10.899-35.617 19.254-52.011l14.145-27.758-4.75 30.785a204.69 204.69 0 0 0-1.79 15.555 205.114 205.114 0 0 0-.613 15.593c0 59.586 25.832 113.688 67.497 152.895 41.746 39.293 99.382 63.648 162.906 63.648 63.515 0 121.148-24.355 162.898-63.648 41.664-39.207 67.496-93.309 67.496-152.895 0-5.117-.21-10.32-.617-15.593a204.716 204.716 0 0 0-1.785-15.555l-4.75-30.785 14.144 27.758zm9.567 54.355a224.427 224.427 0 0 0-6.57-22.129c.011.652.011 1.3.011 1.95 0 62.44-27.043 119.109-70.66 160.16-43.539 40.976-103.601 66.382-169.734 66.382-66.14 0-126.203-25.406-169.742-66.382-43.618-41.051-70.66-97.72-70.66-160.16 0-.65.003-1.298.011-1.95a223.374 223.374 0 0 0-6.57 22.13c-4.063 16.847-6.211 34.413-6.211 52.491 0 65.485 28.39 124.942 74.18 168.031C586.347 745.234 649.676 772 719.469 772c69.781 0 133.113-26.766 178.984-69.938 45.79-43.09 74.18-102.546 74.18-168.03 0-18.079-2.149-35.645-6.211-52.493"></path><path style="fill:#fff;fill-opacity:1;fill-rule:nonzero;stroke:none" d="M725.36 534.969c-1.548-2.188-3.563-4.328-5.852-6.477-1.758-1.656-3.742-3.36-5.809-5.105.055 1.133.11 2.261.16 3.394l.204 4.184-2.461-3.395a147.647 147.647 0 0 0-6.063-7.828 100.744 100.744 0 0 0-5.328-5.926c-.106.235-.211.473-.313.707a328.23 328.23 0 0 1-1.046 2.383l-.864 1.985-1.285-1.746a28.424 28.424 0 0 0-2.281-2.704 36.32 36.32 0 0 0-1.45-1.457c-.277.75-.62 1.493-1.015 2.227-.738 1.367-1.68 2.73-2.828 4.086l-.633.754-.875-.442c-1.535-.757-3.254-1.43-5.168-2.004a50.286 50.286 0 0 0-4.95-1.199v3.508c1.384.953 2.438 1.918 3.177 2.898.925 1.243 1.36 2.5 1.297 3.786l-.036.707-.629.336c-.937.496-1.87 1-2.808 1.496 2.098 1.691 4.183 3.386 6.281 5.074l.746.605-.387.871c-.472 1.067-.949 2.141-1.425 3.211 3.683-.586 7.09-.746 10.215-.5 3.832.313 7.27 1.258 10.308 2.829l1.297.671-.863 1.176c-.489.664-.977 1.332-1.469 2 3.45-.515 6.965-.832 10.465-.87 3.539-.048 7.078.194 10.55.804.098-1.582.333-3.117.563-4.649.02-.129.04-.257.059-.39a75.694 75.694 0 0 1 .449-3.57c.035-.473.059-.954.066-1.43zm11.519-18.813c.215.012.43.024.644.04h.004a70.7 70.7 0 0 1 5.739.597c2.015.3 3.773.855 5.55 1.422 2.54.8 5.137 1.625 8.47 1.613 3.71-.023 9.3-2.355 13.5-5.77 3.3-2.683 5.683-6 5.394-9.253-.25-2.852-1.149-5.223-2.813-6.938-1.57-1.61-3.855-2.683-6.968-3.09-2.45-.324-4.368.313-6.282.95-1.054.343-2.11.695-3.32.921l-2.117.399.703-2.031c.344-.993.816-1.946 1.285-2.907.824-1.668 1.656-3.336 1.543-5.011-.187-2.907-1.785-6.106-4.07-8.551-2.121-2.262-4.801-3.848-7.457-3.902-6.7-.137-10.297 6.418-12.657 10.707-.3.554-.585 1.066-.875 1.57l-.753 1.309-1.145-.997c-1.184-1.03-3.473-2.382-5.965-2.941-1.691-.375-3.465-.379-4.988.371-6.914 3.399-7.285 9.25-7.64 14.961-.055.836-.106 1.672-.216 2.867-.082.86-.082 1.7-.015 2.516.195 2.402 1.054 4.277 2.39 5.578 1.34 1.312 3.176 2.086 5.317 2.289.691.063 1.45.063 2.27-.008 2.874-.234 4.511.602 6.363 1.625.125-.32.273-.648.441-.98.82-4.16 3.59-7.153 7.238-9.618.567 3.985.758 8.055.43 12.262zm-12.098 37.032a63.483 63.483 0 0 1-.3-5.598c-3.504-.668-7.133-.934-10.782-.887-4.422.05-8.84.55-13.082 1.328l-3.086.563 1.86-2.528c.793-1.082 1.59-2.168 2.382-3.254-2.394-1.03-5.074-1.667-8.035-1.906-3.566-.293-7.527 0-11.875.867l-2.367.47.98-2.196c.665-1.5 1.336-3 2-4.5a4910.815 4910.815 0 0 1-7.003-5.652l-1.465-1.184 1.66-.887c1.25-.664 2.504-1.332 3.754-2.004-.102-.492-.344-.992-.735-1.511-.652-.871-1.69-1.762-3.109-2.676l-.574-.375v-7.813l1.457.243c2.437.406 4.676.914 6.707 1.523a36.132 36.132 0 0 1 4.664 1.734 20.584 20.584 0 0 0 1.926-2.914c.64-1.191 1.101-2.383 1.375-3.562l.46-2.016 1.571 1.352a42.665 42.665 0 0 1 3.066 2.914c.41.433.801.863 1.172 1.297.067-.164.137-.328.207-.489.348-.797.696-1.59 1.047-2.382l.723-1.657 1.293 1.266a100.514 100.514 0 0 1 6.793 7.387 126.482 126.482 0 0 1 3.7 4.656c-.032-.719-.067-1.438-.103-2.156l-.136-2.86 2.191 1.844c2.82 2.367 5.559 4.664 8.098 7.05 1.812 1.7 3.46 3.403 4.883 5.145.77-3.789 1.8-7.625 3.062-11.484-.586-1.008-.926-2.094-.914-3.29-.156-.081-.312-.171-.469-.253-1.574-.871-2.902-1.61-5.168-1.426h-.004a15.26 15.26 0 0 1-2.695-.015c-2.715-.25-5.078-1.266-6.84-2.985-1.762-1.73-2.894-4.133-3.144-7.156a16.686 16.686 0 0 1 .039-2.945c.062-.672.129-1.735.195-2.801.402-6.422.817-13.004 9.047-17.047 2.09-1.027 4.426-1.043 6.617-.555 2.246.504 4.36 1.551 5.86 2.575.05-.094.101-.188.156-.286 2.644-4.82 6.691-12.171 14.894-12.007 3.375.07 6.688 1.98 9.23 4.691 2.66 2.848 4.524 6.617 4.747 10.105.152 2.317-.824 4.297-1.805 6.274-.055.113-.11.219-.164.328.195-.066.399-.129.586-.191 2.184-.723 4.363-1.442 7.399-1.047 3.695.48 6.468 1.812 8.43 3.824 2.1 2.164 3.23 5.05 3.53 8.465.36 4.183-2.433 8.23-6.328 11.398-4.61 3.746-10.855 6.313-15.066 6.336-3.719.012-6.504-.867-9.227-1.73-1.691-.535-3.355-1.067-5.16-1.328a64.515 64.515 0 0 0-5.531-.575h-.004a57.277 57.277 0 0 0-1.402-.074c-1.157 1.274-2.72 2.145-4.524 2.77-1.664 5.16-2.914 10.242-3.668 15.234-.097 1.262-.277 2.5-.465 3.727-.422 4.273-.457 8.472-.054 12.59"></path><path style="fill:#fff;fill-opacity:1;fill-rule:nonzero;stroke:none" d="M691.219 512.078c-3.223-6.11-7.266-15.172-11.387-24.414-5.496-12.328-11.137-24.976-14.77-30.996-1.085 3.25-2.132 7.59-3.234 12.148-1.848 7.66-3.84 15.918-6.547 21.098l-3.308 6.348.965-7.09c.402-2.914.164-7.207-.094-11.797-.672-12.172-1.457-26.36 8.941-26.82.715-.032 1.555.492 2.488 1.472.399-.78.813-1.425 1.25-1.914 1.454-1.625 3.036-1.894 4.817-.297 9.797 8.75 14.234 22.809 18.676 36.895 2.843 9.016 5.691 18.043 9.93 25.547l1.214 2.156-2.457-.305c-.781-.097-1.867-.414-2.957-.726-.973-.285-1.95-.57-2.574-.649l-.649-.082-.304-.574zm-9.11-25.43c3.973 8.914 7.88 17.66 11.036 23.727.675.14 1.484.375 2.289.61-3.645-7.173-6.227-15.352-8.801-23.524-4.34-13.754-8.672-27.477-17.961-35.781-.465-.414-.89-.336-1.285.105-.473.535-.938 1.352-1.387 2.39 4.395 6.216 10.328 19.513 16.11 32.473zm-18.77-32.511c-.589-.715-1.081-1.098-1.444-1.082-7.868.351-7.16 13.18-6.551 24.183.105 1.809.203 3.567.258 5.23 1.414-4.32 2.64-9.398 3.804-14.238 1.305-5.402 2.54-10.507 3.934-14.093"></path><path style="fill:#fff;fill-opacity:1;fill-rule:evenodd;stroke:#eb1923;stroke-width:2.50012493;stroke-linecap:butt;stroke-linejoin:miter;stroke-miterlimit:10;stroke-opacity:1" d="M702 427.863c-.332 3.942-1.566 6.422-4.703 10.137-2.695 2.117-7.203 3.926-7.84 1.879-1.566-2.34 2.164-6.324 3.531-7.602 2.348-2.191 5.664-3.613 9.012-4.414zm0 0"></path><path style="fill:#fff;fill-opacity:1;fill-rule:evenodd;stroke:#eb1923;stroke-width:2.50012493;stroke-linecap:butt;stroke-linejoin:miter;stroke-miterlimit:10;stroke-opacity:1" d="M702 427.863c-.332 3.942-1.566 6.422-4.703 10.137-2.695 2.117-7.203 3.926-7.84 1.879-1.566-2.34 2.164-6.324 3.531-7.602 2.348-2.191 5.664-3.613 9.012-4.414zm0 0"></path><path style="fill:#004226;fill-opacity:1;fill-rule:evenodd;stroke:#fff;stroke-width:2.50012493;stroke-linecap:butt;stroke-linejoin:miter;stroke-miterlimit:10;stroke-opacity:1" d="M693.18 419.285c1.742 3.543 1.957 6.313 1.183 11.106-1.218 3.21-4.152 7.082-5.75 5.652-2.55-1.2-1.402-6.535-.89-8.332.879-3.094 2.996-6.016 5.457-8.426zm0 0"></path><path style="fill:#004226;fill-opacity:1;fill-rule:evenodd;stroke:#fff;stroke-width:2.50012493;stroke-linecap:butt;stroke-linejoin:miter;stroke-miterlimit:10;stroke-opacity:1" d="M702 427.863c-.332 3.942-1.566 6.422-4.703 10.137-2.695 2.117-7.203 3.926-7.84 1.879-1.566-2.34 2.164-6.324 3.531-7.602 2.348-2.191 5.664-3.613 9.012-4.414zm0 0"></path><path style="fill:#004226;fill-opacity:1;fill-rule:evenodd;stroke:#fff;stroke-width:2.50012493;stroke-linecap:butt;stroke-linejoin:miter;stroke-miterlimit:10;stroke-opacity:1" d="M703.04 434.969c-.33 3.937-1.567 6.422-4.7 10.136-2.695 2.118-7.207 3.926-7.844 1.88-1.566-2.34 2.164-6.325 3.531-7.602 2.348-2.2 5.664-3.613 9.012-4.414zm0 0"></path><path style="fill:#004226;fill-opacity:1;fill-rule:evenodd;stroke:#fff;stroke-width:2.50012493;stroke-linecap:butt;stroke-linejoin:miter;stroke-miterlimit:10;stroke-opacity:1" d="M704.773 442.59c-.332 3.941-1.566 6.422-4.703 10.137-2.695 2.125-7.203 3.925-7.84 1.882-1.566-2.336 2.165-6.328 3.532-7.601 2.347-2.195 5.66-3.613 9.011-4.418zm1.911 7.973c-.336 3.94-1.575 6.421-4.707 10.136-2.696 2.121-7.207 3.922-7.844 1.88-1.567-2.337 2.164-6.321 3.531-7.602 2.352-2.196 5.664-3.614 9.02-4.414zm0 0"></path><path style="fill:#004226;fill-opacity:1;fill-rule:evenodd;stroke:#fff;stroke-width:2.50012493;stroke-linecap:butt;stroke-linejoin:miter;stroke-miterlimit:10;stroke-opacity:1" d="M708.242 458.531c-.332 3.942-1.574 6.422-4.707 10.137-2.695 2.121-7.207 3.926-7.84 1.879-1.566-2.336 2.164-6.32 3.532-7.602 2.343-2.195 5.66-3.613 9.015-4.414zm0 0"></path><path style="fill:#004226;fill-opacity:1;fill-rule:evenodd;stroke:#fff;stroke-width:2.50012493;stroke-linecap:butt;stroke-linejoin:miter;stroke-miterlimit:10;stroke-opacity:1" d="M709.281 466.5c-.332 3.941-1.57 6.422-4.707 10.137-2.695 2.125-7.207 3.925-7.836 1.886-1.566-2.34 2.157-6.328 3.524-7.601 2.347-2.2 5.664-3.617 9.02-4.422zm0 0"></path><path style="fill:#004226;fill-opacity:1;fill-rule:evenodd;stroke:#fff;stroke-width:2.50012493;stroke-linecap:butt;stroke-linejoin:miter;stroke-miterlimit:10;stroke-opacity:1" d="M710.32 474.281c-.332 3.938-1.57 6.418-4.707 10.133-2.695 2.121-7.207 3.93-7.836 1.883-1.566-2.34 2.16-6.324 3.528-7.602 2.347-2.195 5.664-3.617 9.015-4.414zm0 0"></path><path style="fill:#004226;fill-opacity:1;fill-rule:evenodd;stroke:#fff;stroke-width:2.50012493;stroke-linecap:butt;stroke-linejoin:miter;stroke-miterlimit:10;stroke-opacity:1" d="M712.75 481.055c-.34 3.941-1.574 6.422-4.71 10.14-2.696 2.118-7.204 3.922-7.84 1.88-1.567-2.34 2.163-6.325 3.53-7.606 2.348-2.192 5.665-3.61 9.02-4.414zm-33.602-63.25c3.54 1.757 5.399 3.824 7.696 8.105.984 3.285.996 8.145-1.133 7.985-2.754.593-5.086-4.34-5.77-6.082-1.183-2.993-1.28-6.594-.793-10.008zm-2.132 14.726c3.898.664 6.265 2.106 9.703 5.543 1.883 2.864 3.3 7.512 1.21 7.973-2.46 1.363-6.116-2.692-7.277-4.16-1.992-2.524-3.12-5.95-3.636-9.356zm0 0"></path><path style="fill:#004226;fill-opacity:1;fill-rule:evenodd;stroke:#fff;stroke-width:2.50012493;stroke-linecap:butt;stroke-linejoin:miter;stroke-miterlimit:10;stroke-opacity:1" d="M679.438 441.54c3.902.663 6.269 2.108 9.707 5.546 1.886 2.863 3.3 7.512 1.21 7.969-2.46 1.363-6.117-2.688-7.277-4.16-1.992-2.524-3.125-5.946-3.64-9.356zm0 0"></path><path style="fill:#004226;fill-opacity:1;fill-rule:evenodd;stroke:#fff;stroke-width:2.50012493;stroke-linecap:butt;stroke-linejoin:miter;stroke-miterlimit:10;stroke-opacity:1" d="M681 450.895c3.898.664 6.266 2.109 9.703 5.546 1.883 2.864 3.3 7.512 1.211 7.97-2.46 1.362-6.117-2.684-7.277-4.161-1.992-2.523-3.121-5.941-3.637-9.355zm0 0"></path><path style="fill:#004226;fill-opacity:1;fill-rule:evenodd;stroke:#fff;stroke-width:2.50012493;stroke-linecap:butt;stroke-linejoin:miter;stroke-miterlimit:10;stroke-opacity:1" d="M683.426 460.773c3.898.664 6.265 2.11 9.703 5.543 1.887 2.864 3.3 7.512 1.21 7.973-2.46 1.363-6.116-2.691-7.276-4.16-1.993-2.524-3.125-5.95-3.637-9.356zm0 0"></path><path style="fill:#004226;fill-opacity:1;fill-rule:evenodd;stroke:#fff;stroke-width:2.50012493;stroke-linecap:butt;stroke-linejoin:miter;stroke-miterlimit:10;stroke-opacity:1" d="M685.5 470.129c3.902.664 6.273 2.11 9.71 5.547 1.884 2.863 3.298 7.512 1.212 7.969-2.461 1.363-6.121-2.692-7.277-4.16-1.993-2.524-3.125-5.946-3.645-9.356zm0 0"></path><path style="fill:#004226;fill-opacity:1;fill-rule:evenodd;stroke:#fff;stroke-width:2.50012493;stroke-linecap:butt;stroke-linejoin:miter;stroke-miterlimit:10;stroke-opacity:1" d="M688.797 479.852c3.898.664 6.265 2.109 9.703 5.546 1.883 2.868 3.3 7.516 1.21 7.97-2.46 1.366-6.116-2.688-7.272-4.157-1.993-2.531-3.122-5.945-3.641-9.36zm0 0"></path><path style="fill:#004226;fill-opacity:1;fill-rule:evenodd;stroke:#fff;stroke-width:2.50012493;stroke-linecap:butt;stroke-linejoin:miter;stroke-miterlimit:10;stroke-opacity:1" d="M690.355 488.152c3.895.664 6.266 2.106 9.704 5.543 1.882 2.864 3.304 7.512 1.214 7.97-2.464 1.366-6.125-2.688-7.28-4.157-1.985-2.524-3.118-5.95-3.638-9.356zm0 0"></path><path style="fill:none;stroke:#fff;stroke-width:2.50012493;stroke-linecap:butt;stroke-linejoin:miter;stroke-miterlimit:10;stroke-opacity:1" d="m693.094 419.723 3.023-10.246m-16.453 9.406-1.516-16.293m-8.398 20.996 8.063 9.57m41.147 50.723c-11.812-31.578-11.25-92.34-35.772-92.207-7.633.297-10.618 6.27-11.594 11.254 2.062-2.758 3.508-3.84 7.898-6.215"></path><path style="fill:none;stroke:#fff;stroke-width:2.50012493;stroke-linecap:butt;stroke-linejoin:miter;stroke-miterlimit:10;stroke-opacity:1" d="M704.29 392.344c-6.665-1.453-14.103-.082-19.868 2.047m29.668 71.011c1.367-16.754.43-38.668-1.34-55.418"></path><path style="fill:none;stroke:#fff;stroke-width:2.50012493;stroke-linecap:butt;stroke-linejoin:miter;stroke-miterlimit:10;stroke-opacity:1" d="M719.75 413.945c-3.266-17.898-14.875-39.613-20.828-39.949-8.54 2.945-12.121 12.48-13.906 23.863-.758-7-3.543-13.882 3.793-21.336 9.543-2.523 22.933 27.563 31.761 58.157m-2.843 44.883c6.324-17.04 11.043-42.141 20.543-43.301 9.96.351 10.933 14.101 15.644 23.707-.422-8.211.684-22.555-4.586-22.758-3.363.32-22.68 32.266-30.023 45.984"></path><path style="fill:none;stroke:#fff;stroke-width:2.50012493;stroke-linecap:butt;stroke-linejoin:miter;stroke-miterlimit:10;stroke-opacity:1" d="M723.574 461.07c.957-22.586 12.836-53.117 20.387-53.414 5.945.29 9.23 7.586 13.43 22.758-.235-6.844 4.71-18.969-2.211-20.226-12.7-.454-17.961 13.757-27.024 38.875"></path><path style="fill:none;stroke:#fff;stroke-width:2.50012493;stroke-linecap:butt;stroke-linejoin:miter;stroke-miterlimit:10;stroke-opacity:1" d="M716.484 475.422c3.852-34.395 4.508-82.68 22.297-82.516 7.45.414 17.985 14.153 23.532 23.223-2.602-9.45.804-21.77-18.188-20.14-13.922.257-16.074 43.206-21.883 70.288"></path><path style="fill:none;stroke:#fff;stroke-width:2.50012493;stroke-linecap:butt;stroke-linejoin:miter;stroke-miterlimit:10;stroke-opacity:1" d="M718.54 429.023c.683-20.597 6.71-55.988 19.694-56.195 5.407.192 9.54 16.145 12.746 25.258-.351-7.684 5.684-23.363-4.632-23.055-6.516-.203-18.676 20.164-21.555 34.18"></path><path style="fill:#004226;fill-opacity:1;fill-rule:evenodd;stroke:#fff;stroke-width:2.50012493;stroke-linecap:butt;stroke-linejoin:miter;stroke-miterlimit:10;stroke-opacity:1" d="M780.516 453.098c-3.352-.153 5.82-9.184 10.113-12.793 5.351-4.496 15.055-8.664 17.207-8.301 1.625.273-5.281 11.445-9.941 15.043-5.118 3.953-12.754 6.262-17.38 6.05zm0 0"></path><path style="fill:none;stroke:#fff;stroke-width:2.50012493;stroke-linecap:butt;stroke-linejoin:miter;stroke-miterlimit:10;stroke-opacity:1" d="m808.027 432.004 5.348-3.254"></path><path style="fill:#004226;fill-opacity:1;fill-rule:evenodd;stroke:#fff;stroke-width:2.50012493;stroke-linecap:butt;stroke-linejoin:miter;stroke-miterlimit:10;stroke-opacity:1" d="M791.29 450.11c-1.032 3.199-7.321-8.04-9.669-13.133-2.922-6.352-4.375-16.809-3.465-18.786.696-1.5 9.645 8.114 11.887 13.559 2.457 5.977 2.672 13.953 1.246 18.36zm0 0"></path><path style="fill:none;stroke:#fff;stroke-width:2.50012493;stroke-linecap:butt;stroke-linejoin:miter;stroke-miterlimit:10;stroke-opacity:1" d="m778.21 418.004-1.726-6.016"></path><path style="fill:#004226;fill-opacity:1;fill-rule:evenodd;stroke:#fff;stroke-width:2.50012493;stroke-linecap:butt;stroke-linejoin:miter;stroke-miterlimit:10;stroke-opacity:1" d="M786.41 459.406c-1.031 3.2-7.324-8.039-9.672-13.133-2.922-6.351-4.375-16.808-3.457-18.785.692-1.5 9.64 8.121 11.88 13.559 2.46 5.976 2.671 13.953 1.25 18.36zm0 0"></path><path style="fill:none;stroke:#fff;stroke-width:2.50012493;stroke-linecap:butt;stroke-linejoin:miter;stroke-miterlimit:10;stroke-opacity:1" d="m773.328 427.305-1.723-6.016"></path><path style="fill:#004226;fill-opacity:1;fill-rule:evenodd;stroke:#fff;stroke-width:2.50012493;stroke-linecap:butt;stroke-linejoin:miter;stroke-miterlimit:10;stroke-opacity:1" d="M780.828 467.773c-1.031 3.2-7.32-8.035-9.668-13.132-2.926-6.348-4.379-16.805-3.46-18.786.69-1.496 9.644 8.118 11.886 13.56 2.453 5.976 2.668 13.956 1.242 18.358zm0 0"></path><path style="fill:none;stroke:#fff;stroke-width:2.50012493;stroke-linecap:butt;stroke-linejoin:miter;stroke-miterlimit:10;stroke-opacity:1" d="m767.754 435.672-1.73-6.016"></path><path style="fill:#004226;fill-opacity:1;fill-rule:evenodd;stroke:#fff;stroke-width:2.50012493;stroke-linecap:butt;stroke-linejoin:miter;stroke-miterlimit:10;stroke-opacity:1" d="M776.879 476.145c-1.031 3.19-7.324-8.043-9.668-13.137-2.926-6.344-4.379-16.805-3.461-18.79.691-1.491 9.64 8.122 11.883 13.567 2.457 5.977 2.668 13.95 1.246 18.36zm0 0"></path><path style="fill:none;stroke:#fff;stroke-width:2.50012493;stroke-linecap:butt;stroke-linejoin:miter;stroke-miterlimit:10;stroke-opacity:1" d="m763.797 444.04-1.723-6.017"></path><path style="fill:#004226;fill-opacity:1;fill-rule:evenodd;stroke:#fff;stroke-width:2.50012493;stroke-linecap:butt;stroke-linejoin:miter;stroke-miterlimit:10;stroke-opacity:1" d="M772.465 485.207c-1.035 3.2-7.324-8.035-9.672-13.137-2.922-6.343-4.375-16.804-3.457-18.78.687-1.5 9.64 8.116 11.879 13.562 2.46 5.976 2.672 13.953 1.25 18.355zm0 0"></path><path style="fill:none;stroke:#fff;stroke-width:2.50012493;stroke-linecap:butt;stroke-linejoin:miter;stroke-miterlimit:10;stroke-opacity:1" d="m759.383 453.11-1.727-6.016"></path><path style="fill:#004226;fill-opacity:1;fill-rule:evenodd;stroke:#fff;stroke-width:2.50012493;stroke-linecap:butt;stroke-linejoin:miter;stroke-miterlimit:10;stroke-opacity:1" d="M767.117 492.184c-1.035 3.195-7.324-8.043-9.672-13.137-2.922-6.352-4.375-16.809-3.457-18.785.692-1.496 9.645 8.12 11.88 13.562 2.46 5.977 2.671 13.95 1.25 18.36zm0 0"></path><path style="fill:none;stroke:#fff;stroke-width:2.50012493;stroke-linecap:butt;stroke-linejoin:miter;stroke-miterlimit:10;stroke-opacity:1" d="m754.04 460.078-1.727-6.015"></path><path style="fill:#004226;fill-opacity:1;fill-rule:evenodd;stroke:#fff;stroke-width:2.50012493;stroke-linecap:butt;stroke-linejoin:miter;stroke-miterlimit:10;stroke-opacity:1" d="M775.867 463.328c-3.351-.152 5.82-9.187 10.113-12.797 5.352-4.492 15.055-8.664 17.207-8.304 1.625.273-5.28 11.445-9.94 15.046-5.118 3.95-12.755 6.258-17.38 6.055zm0 0"></path><path style="fill:none;stroke:#fff;stroke-width:2.50012493;stroke-linecap:butt;stroke-linejoin:miter;stroke-miterlimit:10;stroke-opacity:1" d="m803.379 442.234 5.34-3.257"></path><path style="fill:#004226;fill-opacity:1;fill-rule:evenodd;stroke:#fff;stroke-width:2.50012493;stroke-linecap:butt;stroke-linejoin:miter;stroke-miterlimit:10;stroke-opacity:1" d="M771.45 472.86c-3.356-.153 5.82-9.192 10.116-12.798 5.352-4.5 15.055-8.664 17.204-8.304 1.625.273-5.286 11.445-9.942 15.047-5.113 3.949-12.75 6.257-17.379 6.054zm0 0"></path><path style="fill:none;stroke:#fff;stroke-width:2.50012493;stroke-linecap:butt;stroke-linejoin:miter;stroke-miterlimit:10;stroke-opacity:1" d="m798.96 451.758 5.345-3.25"></path><path style="fill:#004226;fill-opacity:1;fill-rule:evenodd;stroke:#fff;stroke-width:2.50012493;stroke-linecap:butt;stroke-linejoin:miter;stroke-miterlimit:10;stroke-opacity:1" d="M780.293 455.703c-2.918 1.664.011-10.871 1.719-16.219 2.12-6.66 8.097-15.359 10.113-16.207 1.523-.636 1.645 12.496-.375 18.028-2.21 6.07-7.434 12.105-11.457 14.398zm0 0"></path><path style="fill:none;stroke:#fff;stroke-width:2.50012493;stroke-linecap:butt;stroke-linejoin:miter;stroke-miterlimit:10;stroke-opacity:1" d="m792.285 423.18 2.781-5.61"></path><path style="fill:#004226;fill-opacity:1;fill-rule:evenodd;stroke:#fff;stroke-width:2.50012493;stroke-linecap:butt;stroke-linejoin:miter;stroke-miterlimit:10;stroke-opacity:1" d="M777.96 470.203c-2.667 2.035-1.42-10.781-.44-16.305 1.218-6.878 5.988-16.296 7.875-17.402 1.421-.836 3.285 12.168 2.02 17.918-1.392 6.313-5.77 12.98-9.454 15.79zm0 0"></path><path style="fill:none;stroke:#fff;stroke-width:2.50012493;stroke-linecap:butt;stroke-linejoin:miter;stroke-miterlimit:10;stroke-opacity:1" d="m785.54 436.375 2.019-5.922m-.485 41.117 5.746-2.48m-12.488 12.937 5.746-2.48m-31.14-7.578c-3.774-.422-5.653-3.492-7.258-6.934m1.61 8.867.647-4.511m-53.374-106.289c2.562.078 4.144 2.457 6.699 2.453m-6.7-2.453c2.563.078 4.145 2.457 6.7 2.453m-6.7-2.453c-2.562.078-4.148 2.457-6.695 2.453m-6.699-2.453c2.562.078 4.144 2.457 6.7 2.453m-6.7-2.453c-2.563.078-4.145 2.457-6.695 2.453m-6.7-2.453c2.57.078 4.153 2.457 6.7 2.453m-6.7-2.453c-2.562.078-4.144 2.457-6.695 2.453m-6.695-2.453c2.566.078 4.148 2.457 6.695 2.453m46.875-2.453c-2.562.078-4.144 2.457-6.691 2.453m6.691-2.453c2.567.078 4.149 2.457 6.703 2.453m6.692-2.453c-2.563.078-4.145 2.457-6.692 2.453m6.692-2.453c2.566.078 4.144 2.457 6.699 2.453m6.695-2.453c-2.562.078-4.144 2.457-6.695 2.453m6.695-2.453c2.563.078 4.145 2.457 6.7 2.453m6.695-2.453c-2.567.078-4.145 2.457-6.7 2.453m6.7-2.453c2.562.078 4.144 2.457 6.699 2.453m6.695-2.453c-2.566.078-4.148 2.457-6.703 2.453m6.703-2.453c2.563.078 4.145 2.457 6.692 2.453m6.699-2.453c-2.563.078-4.145 2.457-6.7 2.453m-112.507 13.359c2.562.07 4.144 2.45 6.691 2.445m6.703-2.445c-2.566.07-4.148 2.45-6.703 2.445m6.703-2.445c2.563.07 4.145 2.45 6.692 2.445m8.832-2.804c-4.695-.102-6.278 2.808-8.832 2.804m33.488-2.445c-2.562.07-2.547 1.649-5.094 1.649m5.094-1.649c2.566.07 4.149 2.45 6.7 2.445m6.699-2.445c-2.57.07-4.153 2.45-6.7 2.445m6.692-2.445c2.57.07 1.836 1.473 4.386 1.469m22.403-1.469c2.562.07 4.144 2.45 6.699 2.445m6.695-2.445c-2.566.07-4.144 2.45-6.695 2.445m6.695-2.445c2.563.07 4.145 2.45 6.7 2.445m6.695-2.445c-2.567.07-4.149 2.45-6.703 2.445m6.703-2.445c2.562.07 4.144 2.45 6.691 2.445m6.7-2.445c-2.563.07-4.145 2.45-6.7 2.445m6.7-2.445c2.562.07 4.148 2.45 6.695 2.445m-140.63-2.445c-2.57.07-4.152 2.45-6.698 2.445m-6.696-2.445c2.563.07 4.145 2.45 6.696 2.445m-6.696-2.445c-2.562.07-4.144 2.45-6.699 2.445m2.711 15.016c-2.57.07-4.152 2.45-6.7 2.45m6.7-2.45c2.563.07 4.145 2.45 6.691 2.45m6.704-2.45c-2.57.07-4.153 2.45-6.704 2.45m6.704-2.45c2.562.07 4.144 2.45 6.691 2.45m6.699-2.45c-2.562.07-4.144 2.45-6.699 2.45m6.699-2.45c2.563.07 4.149 2.45 6.696 2.45"></path><path style="fill:none;stroke:#fff;stroke-width:2.50012493;stroke-linecap:butt;stroke-linejoin:miter;stroke-miterlimit:10;stroke-opacity:1" d="M626.934 396.375c2.566.07 4.148 2.45 6.699 2.45"></path><path style="fill:none;stroke:#fff;stroke-width:2.50012493;stroke-linecap:butt;stroke-linejoin:miter;stroke-miterlimit:10;stroke-opacity:1" d="M626.938 396.375c-2.57.07-4.149 2.45-6.7 2.45m141.325-4.2c-2.563.074-4.149 2.457-6.7 2.453m6.7-2.453c2.562.074 4.144 2.457 6.695 2.453m6.695-2.453c-2.566.074-4.148 2.457-6.695 2.453m6.695-2.453c2.567.074 4.149 2.457 6.695 2.453"></path><path style="fill:none;stroke:#fff;stroke-width:2.50012493;stroke-linecap:butt;stroke-linejoin:miter;stroke-miterlimit:10;stroke-opacity:1" d="M788.348 394.625c-2.567.074-4.149 2.457-6.7 2.453"></path><path style="fill:none;stroke:#fff;stroke-width:2.50012493;stroke-linecap:butt;stroke-linejoin:miter;stroke-miterlimit:10;stroke-opacity:1" d="M788.344 394.625c2.57.074 4.148 2.457 6.699 2.453m6.699-2.453c-2.57.074-4.148 2.457-6.699 2.453"></path><path style="fill:none;stroke:#fff;stroke-width:2.50012493;stroke-linecap:butt;stroke-linejoin:miter;stroke-miterlimit:10;stroke-opacity:1" d="M801.738 394.625c2.567.074 4.149 2.457 6.7 2.453"></path><path style="fill:none;stroke:#fff;stroke-width:2.50012493;stroke-linecap:butt;stroke-linejoin:miter;stroke-miterlimit:10;stroke-opacity:1" d="M815.133 394.625c-2.567.074-4.149 2.457-6.696 2.453m-179.835 16.508c-2.563.074-4.145 2.457-6.696 2.453m6.696-2.453c2.57.074 4.152 2.457 6.699 2.453"></path><path style="fill:none;stroke:#fff;stroke-width:2.50012493;stroke-linecap:butt;stroke-linejoin:miter;stroke-miterlimit:10;stroke-opacity:1" d="M642 413.586c-2.566.074-4.148 2.457-6.7 2.453m6.7-2.453c2.563.074 4.148 2.457 6.695 2.453"></path><path style="fill:none;stroke:#fff;stroke-width:2.50012493;stroke-linecap:butt;stroke-linejoin:miter;stroke-miterlimit:10;stroke-opacity:1" d="M655.395 413.586c-2.567.074-4.153 2.457-6.7 2.453m6.7-2.453c2.562.074 4.144 2.457 6.695 2.453"></path><path style="fill:none;stroke:#fff;stroke-width:2.50012493;stroke-linecap:butt;stroke-linejoin:miter;stroke-miterlimit:10;stroke-opacity:1" d="M668.79 413.586c-2.563.074-4.15 2.457-6.7 2.453m6.7-2.453c2.562.074 4.144 2.457 6.698 2.453m3.965-1.594c-.754.004-1.418 1.598-3.965 1.594m-60.278-2.453c2.567.074 4.15 2.457 6.696 2.453"></path><path style="fill:none;stroke:#fff;stroke-width:2.50012493;stroke-linecap:butt;stroke-linejoin:miter;stroke-miterlimit:10;stroke-opacity:1" d="M615.215 413.586c-2.57.074-4.153 2.457-6.7 2.453m166.766-4.203c-2.566.074-4.148 2.457-6.699 2.453m-6.699-2.453c2.57.074 4.152 2.457 6.699 2.453"></path><path style="fill:none;stroke:#fff;stroke-width:2.50012493;stroke-linecap:butt;stroke-linejoin:miter;stroke-miterlimit:10;stroke-opacity:1" d="M775.277 411.836c2.567.074 4.153 2.457 6.7 2.453"></path><path style="fill:none;stroke:#fff;stroke-width:2.50012493;stroke-linecap:butt;stroke-linejoin:miter;stroke-miterlimit:10;stroke-opacity:1" d="M788.676 411.836c-2.567.074-4.153 2.457-6.7 2.453"></path><path style="fill:none;stroke:#fff;stroke-width:2.50012493;stroke-linecap:butt;stroke-linejoin:miter;stroke-miterlimit:10;stroke-opacity:1" d="M788.672 411.836c2.566.074 4.148 2.457 6.7 2.453"></path><path style="fill:none;stroke:#fff;stroke-width:2.50012493;stroke-linecap:butt;stroke-linejoin:miter;stroke-miterlimit:10;stroke-opacity:1" d="M802.063 411.836c-2.563.074-4.145 2.457-6.692 2.453m6.692-2.453c2.57.074 4.152 2.457 6.703 2.453m6.691-2.453c-2.562.074-4.144 2.457-6.691 2.453m6.691-2.453c2.566.074 4.145 2.457 6.7 2.453"></path><path style="fill:none;stroke:#fff;stroke-width:2.50012493;stroke-linecap:butt;stroke-linejoin:miter;stroke-miterlimit:10;stroke-opacity:1" d="M828.852 411.836c-2.563.074-4.145 2.457-6.696 2.453m-198.172 14.332c-2.562.078-4.148 2.457-6.695 2.45m6.695-2.45c2.563.078 4.145 2.457 6.7 2.45m6.691-2.45c-2.563.078-4.145 2.457-6.691 2.45m6.691-2.45c2.57.078 4.152 2.457 6.703 2.45m6.692-2.45c-2.563.078-4.145 2.457-6.692 2.45m6.692-2.45c2.57.078 4.152 2.457 6.699 2.45"></path><path style="fill:none;stroke:#fff;stroke-width:2.50012493;stroke-linecap:butt;stroke-linejoin:miter;stroke-miterlimit:10;stroke-opacity:1" d="M664.168 428.621c-2.566.078-4.148 2.457-6.7 2.45m6.7-2.45c2.566.078 4.144 2.457 6.695 2.45m3.957-1.489c-.597-.113-1.406 1.496-3.957 1.488m-60.273-2.449c2.562.078 4.144 2.457 6.7 2.45m-6.7-2.45c-2.563.078-4.145 2.457-6.695 2.45m144.238-3.348c-2.567.074-4.149 2.457-6.7 2.449"></path><path style="fill:none;stroke:#fff;stroke-width:2.50012493;stroke-linecap:butt;stroke-linejoin:miter;stroke-miterlimit:10;stroke-opacity:1" d="M748.129 427.723c2.566.074 4.152 2.457 6.7 2.449"></path><path style="fill:none;stroke:#fff;stroke-width:2.50012493;stroke-linecap:butt;stroke-linejoin:miter;stroke-miterlimit:10;stroke-opacity:1" d="M757.465 429.453c-.387.074-.09.727-2.637.719m-20.094-2.449c2.57.074 4.153 2.457 6.7 2.449m62.793-2.817c-2.567.075-4.149 2.458-6.7 2.45m-4.14-1.692c.836-.078 1.593 1.7 4.14 1.692m6.7-2.45c2.562.075 4.148 2.458 6.695 2.45"></path><path style="fill:none;stroke:#fff;stroke-width:2.50012493;stroke-linecap:butt;stroke-linejoin:miter;stroke-miterlimit:10;stroke-opacity:1" d="M817.621 427.355c-2.566.075-4.152 2.458-6.7 2.45m6.7-2.45c2.563.075 4.145 2.458 6.695 2.45"></path><path style="fill:none;stroke:#fff;stroke-width:2.50012493;stroke-linecap:butt;stroke-linejoin:miter;stroke-miterlimit:10;stroke-opacity:1" d="M831.016 427.355c-2.57.075-4.153 2.458-6.7 2.45m-206.621 15.508c-2.562.074-4.148 2.457-6.695 2.453m6.695-2.453c2.567.074 4.149 2.457 6.7 2.453m6.691-2.453c-2.563.074-4.145 2.457-6.691 2.453m6.691-2.453c2.57.074 4.152 2.457 6.703 2.453m6.695-2.453c-2.566.074-4.148 2.457-6.695 2.453m6.695-2.453c2.567.074 4.149 2.457 6.696 2.453"></path><path style="fill:none;stroke:#fff;stroke-width:2.50012493;stroke-linecap:butt;stroke-linejoin:miter;stroke-miterlimit:10;stroke-opacity:1" d="M657.879 445.313c-2.566.074-4.149 2.457-6.7 2.453m6.7-2.453c2.566.074 4.144 2.457 6.695 2.453m6.699-2.453c-2.562.074-4.144 2.457-6.699 2.453m6.699-2.453c2.563.074 4.145 2.457 6.7 2.453m3.074-1.051c-.379.015-.524 1.055-3.074 1.05m-73.673-2.452c2.567.074 4.153 2.457 6.7 2.453m192.598-5.688c2.566.07 4.152 2.453 6.699 2.45m6.695-2.45c-2.562.07-4.148 2.453-6.695 2.45m6.695-2.45c2.567.07 4.149 2.453 6.7 2.45"></path><path style="fill:none;stroke:#fff;stroke-width:2.50012493;stroke-linecap:butt;stroke-linejoin:miter;stroke-miterlimit:10;stroke-opacity:1" d="M830.383 442.078c-2.563.07-4.145 2.453-6.692 2.45m6.692-2.45c2.566.07 4.148 2.453 6.703 2.45m-182.641 15.757c-2.562.074-4.144 2.45-6.691 2.445m-6.699-2.445c2.566.074 4.148 2.45 6.699 2.445m-6.699-2.445c-2.563.074-4.149 2.45-6.696 2.445"></path><path style="fill:none;stroke:#fff;stroke-width:2.50012493;stroke-linecap:butt;stroke-linejoin:miter;stroke-miterlimit:10;stroke-opacity:1" d="M627.66 460.285c2.567.074 4.153 2.45 6.7 2.445"></path><path style="fill:none;stroke:#fff;stroke-width:2.50012493;stroke-linecap:butt;stroke-linejoin:miter;stroke-miterlimit:10;stroke-opacity:1" d="M627.664 460.285c-2.566.074-4.148 2.45-6.7 2.445"></path><path style="fill:none;stroke:#fff;stroke-width:2.50012493;stroke-linecap:butt;stroke-linejoin:miter;stroke-miterlimit:10;stroke-opacity:1" d="M614.273 460.285c2.563.074 4.145 2.45 6.692 2.445m-6.692-2.445c-2.57.074-4.152 2.45-6.703 2.445m-6.691-2.445c2.562.074 4.144 2.45 6.691 2.445M801 459.035c-2.563.074-4.145 2.457-6.7 2.45m6.7-2.45c2.563.074 4.145 2.457 6.695 2.45"></path><path style="fill:none;stroke:#fff;stroke-width:2.50012493;stroke-linecap:butt;stroke-linejoin:miter;stroke-miterlimit:10;stroke-opacity:1" d="M814.395 459.035c-2.567.074-4.145 2.457-6.7 2.45m6.7-2.45c2.562.074 4.144 2.457 6.69 2.45m6.705-2.45c-2.571.074-4.153 2.457-6.704 2.45m6.704-2.45c2.562.074 4.144 2.457 6.69 2.45M653.516 475.25c-2.57.074-4.153 2.453-6.7 2.453"></path><path style="fill:none;stroke:#fff;stroke-width:2.50012493;stroke-linecap:butt;stroke-linejoin:miter;stroke-miterlimit:10;stroke-opacity:1" d="M640.121 475.25c2.563.074 4.145 2.453 6.695 2.453m-6.695-2.453c-2.562.074-4.144 2.453-6.7 2.453"></path><path style="fill:none;stroke:#fff;stroke-width:2.50012493;stroke-linecap:butt;stroke-linejoin:miter;stroke-miterlimit:10;stroke-opacity:1" d="M626.727 475.25c2.562.074 4.148 2.453 6.695 2.453m-6.695-2.453c-2.563.074-4.145 2.453-6.7 2.453"></path><path style="fill:none;stroke:#fff;stroke-width:2.50012493;stroke-linecap:butt;stroke-linejoin:miter;stroke-miterlimit:10;stroke-opacity:1" d="M613.336 475.25c2.562.074 4.144 2.453 6.695 2.453m-6.695-2.453c-2.566.074-4.148 2.453-6.703 2.453"></path><path style="fill:none;stroke:#fff;stroke-width:2.50012493;stroke-linecap:butt;stroke-linejoin:miter;stroke-miterlimit:10;stroke-opacity:1" d="M599.941 475.25c2.563.074 4.145 2.453 6.7 2.453m52.187-2.765c2.567.074 4.149 2.457 6.7 2.453"></path><path style="fill:none;stroke:#fff;stroke-width:2.50012493;stroke-linecap:butt;stroke-linejoin:miter;stroke-miterlimit:10;stroke-opacity:1" d="M672.219 474.938c-2.563.074-4.145 2.457-6.692 2.453m6.692-2.453c2.57.074 3.543 1.167 4.25 1.18m110.078-1.813c2.562.07 4.144 2.453 6.695 2.449m6.699-2.449c-2.57.07-4.152 2.453-6.699 2.449m6.699-2.449c2.563.07 4.145 2.453 6.692 2.449m6.703-2.449c-2.57.07-4.152 2.453-6.703 2.449"></path><path style="fill:none;stroke:#fff;stroke-width:2.50012493;stroke-linecap:butt;stroke-linejoin:miter;stroke-miterlimit:10;stroke-opacity:1" d="M813.328 474.305c2.57.07 4.152 2.453 6.7 2.449"></path><path style="fill:none;stroke:#fff;stroke-width:2.50012493;stroke-linecap:butt;stroke-linejoin:miter;stroke-miterlimit:10;stroke-opacity:1" d="M826.727 474.305c-2.567.07-4.149 2.453-6.7 2.449"></path><path style="fill:none;stroke:#fff;stroke-width:2.50012493;stroke-linecap:butt;stroke-linejoin:miter;stroke-miterlimit:10;stroke-opacity:1" d="M826.723 474.305c2.566.07 4.152 2.453 6.699 2.449m-219.301 12.074c-2.57.074-4.152 2.457-6.7 2.453m6.7-2.453c2.563.074 4.145 2.457 6.692 2.453m6.703-2.453c-2.57.074-4.153 2.457-6.703 2.453m6.703-2.453c2.562.074 4.144 2.457 6.691 2.453m6.699-2.453c-2.562.074-4.144 2.457-6.699 2.453m6.699-2.453c2.563.074 4.149 2.457 6.696 2.453m6.698-2.453c-2.562.074-4.144 2.457-6.698 2.453m6.698-2.453c2.563.074 4.145 2.457 6.7 2.453m6.695-2.453c-2.562.074-4.148 2.457-6.695 2.453m6.695-2.453c2.567.074 4.149 2.457 6.7 2.453m6.691-2.453c-2.563.074-4.145 2.457-6.691 2.453m101.965-3.141c2.566.075 4.148 2.458 6.702 2.454"></path><path style="fill:none;stroke:#fff;stroke-width:2.50012493;stroke-linecap:butt;stroke-linejoin:miter;stroke-miterlimit:10;stroke-opacity:1" d="M789.754 488.14c-2.563.075-4.145 2.458-6.7 2.454m6.7-2.454c2.566.075 4.144 2.458 6.695 2.454m6.699-2.454c-2.57.075-4.144 2.458-6.699 2.454m6.699-2.454c2.563.075 4.145 2.458 6.696 2.454"></path><path style="fill:none;stroke:#fff;stroke-width:2.50012493;stroke-linecap:butt;stroke-linejoin:miter;stroke-miterlimit:10;stroke-opacity:1" d="M816.543 488.14c-2.57.075-4.152 2.458-6.7 2.454m6.7-2.454c2.562.075 4.144 2.458 6.691 2.454m6.704-2.454c-2.57.075-4.153 2.458-6.704 2.454"></path><path style="fill:none;stroke:#fff;stroke-width:2.50012493;stroke-linecap:butt;stroke-linejoin:miter;stroke-miterlimit:10;stroke-opacity:1" d="M829.93 488.14c2.57.075 4.152 2.458 6.699 2.454m-216.953 14.429c-2.563.07-4.145 2.45-6.692 2.446m6.692-2.446c2.57.07 4.152 2.45 6.699 2.446m6.695-2.446c-2.562.07-4.144 2.45-6.695 2.446m6.695-2.446c2.57.07 4.149 2.45 6.7 2.446"></path><path style="fill:none;stroke:#fff;stroke-width:2.50012493;stroke-linecap:butt;stroke-linejoin:miter;stroke-miterlimit:10;stroke-opacity:1" d="M646.469 505.023c-2.57.07-4.149 2.45-6.7 2.446m6.7-2.446c2.562.07 4.144 2.45 6.695 2.446m6.699-2.446c-2.57.07-4.152 2.45-6.699 2.446m6.699-2.446c2.563.07 4.145 2.45 6.692 2.446m6.703-2.446c-2.567.07-4.149 2.45-6.703 2.446m6.703-2.446c2.562.07 4.144 2.45 6.695 2.446m9.125-2.805c-4.945.156-6.574 2.809-9.125 2.805m105.242-3.5c-2.562.078-4.148 2.453-6.699 2.449m6.699-2.449c2.563.078 4.145 2.453 6.7 2.449"></path><path style="fill:none;stroke:#fff;stroke-width:2.50012493;stroke-linecap:butt;stroke-linejoin:miter;stroke-miterlimit:10;stroke-opacity:1" d="M798.586 503.969c-2.563.078-4.145 2.453-6.695 2.449m6.695-2.449c2.566.078 4.148 2.453 6.695 2.449m6.699-2.449c-2.562.078-4.144 2.453-6.699 2.449m6.699-2.449c2.567.078 4.145 2.453 6.696 2.449"></path><path style="fill:none;stroke:#fff;stroke-width:2.50012493;stroke-linecap:butt;stroke-linejoin:miter;stroke-miterlimit:10;stroke-opacity:1" d="M825.375 503.969c-2.57.078-4.148 2.453-6.7 2.449m6.7-2.449c2.563.078 4.145 2.453 6.695 2.449m-202.218 13.355c-2.563.07-4.145 2.454-6.696 2.45m6.696-2.45c2.57.07 4.152 2.454 6.699 2.45m6.695-2.45c-2.562.07-4.144 2.454-6.695 2.45m6.695-2.45c2.567.07 4.152 2.454 6.7 2.45"></path><path style="fill:none;stroke:#fff;stroke-width:2.50012493;stroke-linecap:butt;stroke-linejoin:miter;stroke-miterlimit:10;stroke-opacity:1" d="M656.645 519.773c-2.567.07-4.153 2.454-6.7 2.45m6.7-2.45c2.562.07 4.144 2.454 6.695 2.45"></path><path style="fill:none;stroke:#fff;stroke-width:2.50012493;stroke-linecap:butt;stroke-linejoin:miter;stroke-miterlimit:10;stroke-opacity:1" d="M670.04 519.773c-2.571.07-4.153 2.454-6.7 2.45m6.7-2.45c2.562.07 4.144 2.454 6.694 2.45m85.664-1.356c2.563.07 4.145 2.453 6.692 2.45m6.7-2.45c-2.567.07-4.15 2.453-6.7 2.45"></path><path style="fill:none;stroke:#fff;stroke-width:2.50012493;stroke-linecap:butt;stroke-linejoin:miter;stroke-miterlimit:10;stroke-opacity:1" d="M775.785 520.867c2.567.07 4.153 2.453 6.7 2.45"></path><path style="fill:none;stroke:#fff;stroke-width:2.50012493;stroke-linecap:butt;stroke-linejoin:miter;stroke-miterlimit:10;stroke-opacity:1" d="M789.184 520.867c-2.567.07-4.153 2.453-6.7 2.45"></path><path style="fill:none;stroke:#fff;stroke-width:2.50012493;stroke-linecap:butt;stroke-linejoin:miter;stroke-miterlimit:10;stroke-opacity:1" d="M789.18 520.867c2.566.07 4.148 2.453 6.699 2.45m6.691-2.45c-2.562.07-4.144 2.453-6.691 2.45m6.691-2.45c2.57.07 4.153 2.453 6.703 2.45m6.692-2.45c-2.563.07-4.145 2.453-6.692 2.45M645.93 535.598c-2.567.074-4.149 2.457-6.696 2.449m6.696-2.449c2.566.074 4.148 2.457 6.695 2.449m6.699-2.449c-2.562.074-4.144 2.457-6.699 2.449m6.699-2.449c2.567.074 4.145 2.457 6.696 2.449"></path><path style="fill:none;stroke:#fff;stroke-width:2.50012493;stroke-linecap:butt;stroke-linejoin:miter;stroke-miterlimit:10;stroke-opacity:1" d="M672.719 535.598c-2.563.074-4.145 2.457-6.7 2.449m6.7-2.449c2.562.074 4.144 2.457 6.699 2.449m4.516-1.875c-.79-.043-1.965 1.883-4.516 1.875m53.988-2.16c-2.562.078-4.144 2.457-6.695 2.449m6.695-2.449c2.563.078 4.149 2.457 6.7 2.449"></path><path style="fill:none;stroke:#fff;stroke-width:2.50012493;stroke-linecap:butt;stroke-linejoin:miter;stroke-miterlimit:10;stroke-opacity:1" d="M746.8 535.887c-2.562.078-4.144 2.457-6.698 2.449m6.698-2.449c2.563.078 4.145 2.457 6.7 2.449"></path><path style="fill:none;stroke:#fff;stroke-width:2.50012493;stroke-linecap:butt;stroke-linejoin:miter;stroke-miterlimit:10;stroke-opacity:1" d="M760.195 535.887c-2.562.078-4.148 2.457-6.699 2.449m6.699-2.449c2.563.078 4.145 2.457 6.696 2.449"></path><path style="fill:none;stroke:#fff;stroke-width:2.50012493;stroke-linecap:butt;stroke-linejoin:miter;stroke-miterlimit:10;stroke-opacity:1" d="M773.586 535.887c-2.563.078-4.145 2.457-6.695 2.449m6.695-2.449c2.566.078 4.148 2.457 6.695 2.449m6.699-2.449c-2.566.078-4.148 2.457-6.699 2.449m6.699-2.449c2.567.078 4.145 2.457 6.696 2.449"></path><path style="fill:none;stroke:#fff;stroke-width:2.50012493;stroke-linecap:butt;stroke-linejoin:miter;stroke-miterlimit:10;stroke-opacity:1" d="M800.375 535.887c-2.57.078-4.148 2.457-6.7 2.449"></path><path style="fill:none;stroke:#fff;stroke-width:2.50012493;stroke-linecap:butt;stroke-linejoin:miter;stroke-miterlimit:10;stroke-opacity:1" d="M800.371 535.887c2.567.078 4.149 2.457 6.7 2.449M665.82 552.39c-2.562.071-4.148 2.45-6.695 2.446m6.695-2.446c2.563.071 4.145 2.45 6.7 2.446"></path><path style="fill:none;stroke:#fff;stroke-width:2.50012493;stroke-linecap:butt;stroke-linejoin:miter;stroke-miterlimit:10;stroke-opacity:1" d="M679.21 552.39c-2.562.071-4.144 2.45-6.69 2.446m6.69-2.446c2.571.071 4.153 2.45 6.704 2.446m6.691-2.446c-2.562.071-4.144 2.45-6.69 2.446m6.69-2.446c2.57.071 4.153 2.45 6.7 2.446"></path><path style="fill:none;stroke:#fff;stroke-width:2.50012493;stroke-linecap:butt;stroke-linejoin:miter;stroke-miterlimit:10;stroke-opacity:1" d="M706.004 552.39c-2.566.071-4.149 2.45-6.7 2.446m6.7-2.446c2.566.071 4.144 2.45 6.695 2.446m6.699-2.446c-2.562.071-4.144 2.45-6.699 2.446m6.699-2.446c2.563.071 4.145 2.45 6.696 2.446"></path><path style="fill:none;stroke:#fff;stroke-width:2.50012493;stroke-linecap:butt;stroke-linejoin:miter;stroke-miterlimit:10;stroke-opacity:1" d="M732.793 552.39c-2.566.071-4.145 2.45-6.7 2.446m6.7-2.446c2.562.071 4.144 2.45 6.691 2.446m6.704-2.446c-2.57.071-4.153 2.45-6.704 2.446m6.704-2.446c2.562.071 4.144 2.45 6.69 2.446"></path><path style="fill:none;stroke:#fff;stroke-width:2.50012493;stroke-linecap:butt;stroke-linejoin:miter;stroke-miterlimit:10;stroke-opacity:1" d="M759.578 552.39c-2.566.071-4.148 2.45-6.7 2.446"></path><path style="fill:none;stroke:#fff;stroke-width:2.50012493;stroke-linecap:butt;stroke-linejoin:miter;stroke-miterlimit:10;stroke-opacity:1" d="M759.574 552.39c2.567.071 4.153 2.45 6.7 2.446"></path><path style="fill:none;stroke:#fff;stroke-width:2.50012493;stroke-linecap:butt;stroke-linejoin:miter;stroke-miterlimit:10;stroke-opacity:1" d="M772.973 552.39c-2.567.071-4.153 2.45-6.7 2.446"></path><path style="fill:none;stroke:#fff;stroke-width:2.50012493;stroke-linecap:butt;stroke-linejoin:miter;stroke-miterlimit:10;stroke-opacity:1" d="M772.969 552.39c2.566.071 4.148 2.45 6.699 2.446"></path><path style="fill:#004226;fill-opacity:1;fill-rule:evenodd;stroke:#fff;stroke-width:2.50012493;stroke-linecap:butt;stroke-linejoin:miter;stroke-miterlimit:10;stroke-opacity:1" d="M766.883 485.559c-2.844 1.78-.446-10.864 1.035-16.278 1.84-6.746 7.453-15.691 9.426-16.617 1.492-.7 2.168 12.414.383 18.027-1.957 6.16-6.922 12.407-10.844 14.868zm0 0"></path><path style="fill:none;stroke:#fff;stroke-width:2.50012493;stroke-linecap:butt;stroke-linejoin:miter;stroke-miterlimit:10;stroke-opacity:1" d="m777.5 452.555 2.543-5.72"></path><path style="fill:#004226;fill-opacity:1;fill-rule:evenodd;stroke:#fff;stroke-width:2.50012493;stroke-linecap:butt;stroke-linejoin:miter;stroke-miterlimit:10;stroke-opacity:1" d="M762.984 484.66c-3.355.137 5.012-9.648 8.985-13.613 4.945-4.938 14.258-9.918 16.43-9.742 1.644.132-4.282 11.855-8.618 15.836-4.761 4.375-12.172 7.328-16.797 7.52zm0 0"></path><path style="fill:none;stroke:#fff;stroke-width:2.50012493;stroke-linecap:butt;stroke-linejoin:miter;stroke-miterlimit:10;stroke-opacity:1" d="m788.586 461.29 5.047-3.7"></path><path style="fill:#004226;fill-opacity:1;fill-rule:evenodd;stroke:#fff;stroke-width:2.50012493;stroke-linecap:butt;stroke-linejoin:miter;stroke-miterlimit:10;stroke-opacity:1" d="M762.012 488.172c-4.098-4.582 1.816-8.39 6.683-10.8 6.258-3.102 16.11-6.485 18.188-5.833 1.574.5-6.82 10.602-11.934 13.516-5.613 3.203-9.851 6.57-12.937 3.117zm0 0"></path><path style="fill:#004226;fill-opacity:1;fill-rule:evenodd;stroke:#fff;stroke-width:2.50012493;stroke-linecap:butt;stroke-linejoin:miter;stroke-miterlimit:10;stroke-opacity:1" d="M769.219 493.98c-18.032 6.907-11.38-3.957-7.266-6.152 6.164-3.289 16.113-6.484 18.192-5.824 1.574.492-.965 3.398-5.43 7.238-5.613 4.828-.738 2.918-5.496 4.738zm0 0"></path><path style="fill:#fff;fill-opacity:1;fill-rule:evenodd;stroke:none" d="M887.46 630.832c1.173 2.578 1.665 5.156 2.84 7.734-6.257 4.512-7.362 9.528-5.91 14.332 1.551.907 2.958.907 4.208 0 5.48-7.64 11.16-13.671 16.949-18.882 4.129-.594 7.36-.282 9.898.722 1.657-.996 3.23-2.082 4.625-3.34 3.035-2.453 7.121-12.261 8.16-18.898-5.003 1.906-9.968 4.094-14.812 7.094-1.707 1.062-1.793 5.863-2.148 8.8-1.797-3.757-3.707-12.363-1.72-14.605 6.888-4.992 23.99-11.723 33.927-19.324.785 2.437 1.578 4.867 2.363 7.305-15.223 12.746-15.05 30.68-19.328 33.925-1.528 1.664-3.79 3-5.848 4.094.274 3.281.211 6.824-1.36 8.899-6.624 7.414-13.96 15.906-22.406 23.316 3.262 4.57 4.399 8.851 3.415 14.332-3.81 2.531-7.907 3.988-13.536 5.004a88.197 88.197 0 0 1-.566-1.25c7.676-3.813 13.348-7.8 8.531-15.582-2.512-.68-5.101 3.039-7.281 3.527-.149.336-7.277-3.062-5.117-13.082 2.031-2.273 5.183 1.266 9.668 3.07 9.047-8.132 16.84-16.625 23.77-25.367.148-3.031-2.126-4.09-6.829-3.18-7.883 6.254-18.387 20.13-20.808 20.473-2.282.426-7.512-6.367-7.622-12.398-1.039-4.535 2.133-12.551 6.938-16.719m-19.188 41.344c8.97-3.598 11.024 6.21 13.762 14.695.445 2.36-.98 4.14-3.07 5.344-2.942-.488-5.48-.313-8.418-.8-1.047 5.589-3.317 8.843-5.074 8.01-2.739-2.628-4.164-2.847-6.547-3.34.937 9.708-23.684 22.267-30.192 23.247-6.226.813-11.312-5.312-13.89-12.691.625-.18.843-.09 1.468-.266 1.555 3.613 3.555 6.777 8.68 6.812 13.762-3.472 24.137-9.44 31.125-17.902 1.363-3.34.875-5.879-.265-8.144.578-.227 1.16-.45 1.734-.668 1.426 3.07 1.25 5.386 2.008 7.742 1.426-.176 3.07-.13 4.14-.664 2.399-.301 3.657-1.973 4.274-4.41.562-5.891-.91-15.977.265-16.965"></path><path style="fill:#fff;fill-opacity:1;fill-rule:evenodd;stroke:none" d="m836.082 689.012 7.613 3.738 3.07-6.414-7.21-3.473m-14.692 11.09 7.614 3.738 3.07-6.41-7.211-3.476m-69.773 28.871 7.617 3.742 3.07-6.41-7.21-3.473m-16.376-5.683 7.61 3.738 3.074-6.41-7.215-3.477m-15.731 9.157 7.614 3.738 3.07-6.41-7.211-3.473m79.735 24.82c.398 1.156-.317 4.207-3.153 6.043-3.441 2.235-3.918 2.098-7.55 4.84-.16-1.113-.122-2.973 3.015-5.352 3.723-2.285 4.66-2.644 7.687-5.53"></path><path style="fill:#fff;fill-opacity:1;fill-rule:evenodd;stroke:none" d="M809.375 705.953c2.95 2.95 4.64 7.16 5.07 12.625-.707 5.055-2.277 6.863-4.246 7.2-2.949-.77-4.597-1.755-5.664-2.833.512 2.282-.957 4.242-4.219 5.899-2.144-.438-3.863-1.293-4.746-3.305-2.988 4.625-7 7.965-12.507 9.438-3.583-.313-6.055-1.727-7.434-4.247-2.473 4.153-3.606 9.317-11.445 9.442-3.434-.297-5.926-1.711-7.79-3.895-3.472 5.223-6.335 10.868-14.511 12.743-3.461.324-8.805-4.56-9.086-12.153-.117-2.125.433-3.695.941-5.191l1.774 1.176c-.903 2.125-.63 4.488.351 6.613 1.617 2.75 3.973 4.047 6.848 3.656 4.504-1.848 8.594-4.246 11.21-8.613-.651-3.871-4.44-9.047-11.093-14.516 1.102-1.804.902-4.445 2.004-6.25 5.422 5.406 7.793 13.34 13.805 18.051 1.59.59 3.48.98 6.02.941 7.788-.636 9.433-5.027 11.445-9.203.43.242.867.477 1.296.711-.39 2.774.985 4.66 6.254 4.602 6.184-.742 10.336-3.86 10.856-11.211.512.437 1.023.867 1.531 1.3-.625 1.887.316 3.145 2.832 3.774 3.363-.098 4.352-3.441 4.246-8.258.438.196.871.39 1.301.59-.371 2.652.336 4.816 3.422 5.899 2.598-.668 3.777-2.122 3.543-4.364-1.262-1.418-1.457-3.187-3.309-4.129.91-2.125 1.028-4.367 1.301-6.492M676.7 735.547c1.987-4.774 5.96-9.856 8.593-10.285 4.027-.364 7.184 5.156 10.789 5.09-.035.304-.066 1.003-.098 1.3-10.058 6.696-13.422 11.094-21.187 11.192-6.492.304-5.324-8.953-6.692-9.293-4.73 3.531-8.894 3.332-11.488 2.597-3.242 3.707-7.254 8.055-12.094 10.696-4.66-2.117-5.945-4.035-8.793-4.7.266-.398.536-.398.801-.8 7.871 1.754 14.02.062 17.086-4.297-.914-5.485-3.91.676-5.7-5.594 1.5-5.648 3.087-10.648 8-11.187 4.376.492 4.18 7.648 5.09 12.386 2.552.864 8.196-.39 8.196-3.199 3.559-13.023 6.871-23.148 12.29-24.18 8.609-.265 15.905-.296 23.382-.898-.473 1.902-2.89 2.496-7.094 4.398-6.945 1.649-12.414-.652-19.586.696-3.828 7.433-5.758 14.86-6.394 22.285.883 2.766 2.68 3.7 4.898 3.793zm7.19-6.59c3.669-.238 6.352 3.2 8.497 3.2-2.344 1.984-5.934 5.187-10.094 5.593-2.426-.102-3.012-.371-3.996-2.098 1.183-4.152 5.207-7.648 5.594-6.695m-39.125-13.355c1.43.046-.04 5.906 2.03 8.406-1.054 3.125-3.784 2.097-6.495 4.926-.926-.575-.942-3.653-2.2-5.223-13.968 7.023-14.085 5.437-16.07 5.012-1.586-2.168-1.07-4.711-1.093-7.192-9.274-1.383-15.168 1.133-38.946-16.094-2.316-1.64-3.375-3.64-2.453-9.355 1.492-4.117 3.89-6.3 6.969-7.89.098.437.195.882.293 1.324-1.403 1.449-2.645 3.05-2.797 5.75-1.32 1.816.379 3.632 2.504 5.453 10.21 7.789 21.851 14.695 34.867 18.422 3.691-.68 5.344-1.758 7.29-3.684-.048.832-.095 1.668-.145 2.508-.965.754-2.243 1.707-3.832 2.148-.739 2.227-.543 3.91.59 5.512 2.206.766 6.449-.703 12.085-3.68 1.91-3.5 4.242-5.343 7.403-6.343"></path><path style="fill:#fff;fill-opacity:1;fill-rule:evenodd;stroke:none" d="M614.008 697.848c2.078-.059 2.453 3.816 4.058 5.953-.07 1.386-3.418 1-5.722 1.886-1.57.754-2.485-3.75-4.192-6.003-.828-1.059 3.645-.961 5.856-1.836m-10.332-5.278c2.082-.058 2.449 3.809 4.058 5.946-.07 1.394-3.418 1.007-5.722 1.89-1.567.758-2.489-3.75-4.192-6-.836-1.062 3.645-.969 5.856-1.836m-70.153-65.14c2.055.336 1.68 4.203 2.852 6.61-.332 1.347-3.543.331-5.977.765-1.68.445-1.722-4.153-2.968-6.688-.617-1.203 3.758-.254 6.093-.687m36.075 64.222c-2.965-.336-6.332-.972-10.118-1.91-3.3-.851-4.69-.144-5.746.594 2.067.434 3.696.68 9.614 2.355 2.004.504 4.726-.379 6.25-1.039m-70.793-94.906c8.949-2.285 18.11-1.45 20.89 4.082.946 3.172.07 3.547-1.605 4.688 2.707 1.472 5.836 3.632 5.293 7.03-.059 2.329-4.375 5.032-7.5 3.954-11.031-3.93-19.133-8.754-22.106-21.7.625-.284.25-.112.875-.398.836 1.016 2.067 1.86 4.153 2.344zm16.722 17.777c2.176-.406 3.504-1.421 3.79-3.714.183-2.188-1.368-3.508-3.712-4.426-4.34-1.11-8.28-1.942-12.41-2.211.196 2.652 9.422 11.246 12.332 10.351zm-15.285-16.367c5.453-.96 11.36-1.172 15.969 1.664.766 3-1.012 3.492-3.828 3.54-6.285-.864-10.703-2.231-12.14-5.204"></path><path style="fill:#fff;fill-opacity:1;fill-rule:evenodd;stroke:none" d="M596.254 683.82c-2.606-.047-5.152.227-7.461 1.66-1.43-1.585-4.195-2.582-8.293-2.984-33.832-.105-50.29-15.434-58.371-28.59-2.895-4.965-3.274-10.633-5.637-12.703-6.18-1.023-12.672-3.64-13.101-7.297-.453-3.71 3.449-6.082 6.261-8.011-3.48-.282-9.62.144-12.23-1.442-1.184-3.644-2.73-7.293-4.813-10.941l1-.828c5.317 9.726 15.223 12.785 29.735 10.937 0 .39.113.887.113 1.832-3.535.328-5.184.55-8.723.324-1.945 2.325-3.539 5.11-2.218 7.137.554 8.164 12.351 5.64 13.43 7.293.906 2.34-.044 3.152 1.492 8.012 3.546 16.976 31.312 30.765 59.53 33.117 4.962.644 7.31 1.547 9.286 2.484"></path></svg>