<svg xmlns="http://www.w3.org/2000/svg" width="793.047" height="528.047"><path fill="#004614" d="M0 0h793.047v528.047H0z"/><g fill="#fff" stroke="#004614"><path d="M245.859 311.732c-7.809-15.187-6.558-31.22 3.313-48.065 5.518 16.926 3.303 32.794-3.313 48.065zm-13.688-21.585c-12.97-16.135-19.802-35.65-17.186-42.85 5.128-.64 18.518 30.265 17.186 42.85z" stroke-width="1.402" stroke-linejoin="round"/><path d="M238.819 295.684c-15.897-14.553-13.878-42.093-11.375-57.805 8.299 11.703 17.374 36.117 11.375 57.805z" stroke-width="1.402" stroke-linejoin="round"/><path d="M240.206 332.64l10.682-7.557c-5.355-49.243-74.705-94.732-10.682 7.559zm13.525-154.543c19.654-19.535 33.932-40.414 44.752-62.156-23.938 12.824-38.491 33.862-44.752 62.156z" stroke-width="1.402" stroke-linejoin="round"/><path d="M267.603 164.99c8.414-22.799 33.936-47.1 59.886-52.366-9.044 22.171-37.585 43.454-59.886 52.366z" stroke-width="1.402" stroke-linejoin="round"/><path d="M253.165 184.207c1.082-12.02 22.575-33.476 41.875-27.857-6.426 15.411-36.024 30.038-41.872 27.857z" stroke-width="1.402" stroke-linejoin="round"/><path d="M251.121 166.017c-.03 9.479.252 24.7 7.746 29.634 2.908 7.368 4.29 5.27 5.26.622-9.202-10.895-8.234-29.62-10.3-31.569 1.34-1.556-.598-.196-2.706 1.313z" stroke-width="1.402" stroke-linejoin="round"/><path d="M251.244 202.13c15.448 2.181 22.687-13.813 30.664-28.176-16.962 3.084-30.95 8.957-30.664 28.176zm67.265 205.986c-.608-11.106-7.127-20.475-16.255-29.08 2.318 12.241 4.822 24.336 16.255 29.08z" stroke-width="1.402" stroke-linejoin="round"/><path d="M240.422 278.933c-2.147-7.814-5.172-13.017-3.075-23.147-1.447-1.567 5.228-8.167 3.515 2.198 2.877 11.78 2.74 18.633-.44 20.949z" stroke-width="1.402"/><path d="M223.28 237.327c3.39 8.854 3.98 15.68 12.746 17.579l5.13-1.318c-12.512-6.84-13.196-17.388-15.823-18.46zm22.245-11.72c12.46-9.386 6.936-40.904 2.411-56.697-9.804 14.18-16.208 43.316-2.411 56.698z" stroke-width="1.402" stroke-linejoin="round"/><path d="M255.511 205.974c-2.43 12.17-17.898 17.242-18.75 27.983l5.128-1.318c.336-4.766 11.803-7.44 18.167-24.321z" stroke-width="1.402" stroke-linejoin="round"/><path d="M236.741 250.198c-18.986-23.315-9.958-44.294-3.314-65.47 9.078 17.837 15.995 36.756 3.314 65.47z" stroke-width="1.402" stroke-linejoin="round"/><path d="M239.67 258.006c-5.023-20.957 7.327-31.706 18.196-43.321.326 14.34-1.082 28.709-18.195 43.321zm15.379 95.669c6.672-9.308 3.678-49.983-2.142-61.865-4.536 10.998-16.715 46.313 2.142 61.865z" stroke-width="1.402" stroke-linejoin="round"/><path d="M253.967 348.342c-18.047-10.14-31.659-25.703-31.914-33.357 4.517-2.504 28.46 21.184 31.914 33.357z" stroke-width="1.402" stroke-linejoin="round"/><g stroke-width=".449" stroke-linejoin="round"><path d="M249.556 160.384a3.653 4.584-2.964 1 0 7.297-.378 3.653 4.584-2.964 1 0-7.297.378zm9.227 3.476a4.584 3.653-24.852 1 0 3.07 6.63 4.584 3.653-24.852 1 0-3.07-6.63z"/><path d="M249.791 174.652a3.653 4.584-4.332 1 0 7.286-.552 3.653 4.584-4.332 1 0-7.286.552zm-2.879-10.46a4.584 3.653-1.32 1 0 .169 7.305 4.584 3.653-1.32 1 0-.169-7.305z"/><path d="M250.216 164.67a4.584 4.516-47.058 1 0 6.612 6.153 4.584 4.516-47.058 1 0-6.612-6.153z" fill="#004614"/></g><g stroke-width=".504" stroke-linejoin="round"><path d="M243.683 244.739a4.099 5.142 5.855 1 1-8.155-.837 4.099 5.142 5.855 1 1 8.155.837z"/><path d="M233.147 248.116a5.142 4.099 27.743 1 1-3.816 7.255 5.142 4.099 27.743 1 1 3.816-7.255z"/><path d="M242.615 260.718a4.099 5.142 7.223 1 1-8.132-1.031 4.099 5.142 7.223 1 1 8.132 1.03z"/><path d="M246.434 249.155a5.142 4.099 4.212 1 1-.602 8.175 5.142 4.099 4.212 1 1 .602-8.175z"/><path d="M242.699 249.508a5.142 5.067 49.95 1 1-7.757 6.52 5.142 5.067 49.95 1 1 7.757-6.52z" fill="#004614"/></g><path d="M281.65 388.157c-4.901-13.329-40.647-47.606-55.008-54.694 7.41 14.075 39.274 53.177 55.008 54.694z" stroke-width="1.789" stroke-linejoin="round"/><path d="M306.406 401.46c3.224-10.539-26.985-45.447-38.603-57.447-.553 12.449 28.566 50.205 38.606 57.447z" stroke-width="1.402" stroke-linejoin="round"/><path d="M280.57 400.747c-86.607-118.944-9.728-41.451 36.464-.83zm.827-19.891l29.834 32.323" stroke-width="1.402" stroke-linejoin="round"/><g stroke-width=".5" stroke-linejoin="round"><path d="M221.959 323.928a4.099 5.142 8.224 1 1 8.113 1.173 4.099 5.142 8.224 1 1-8.113-1.173zm10.663-2.938a4.099 5.142-59.888 1 1 4.113-7.09 4.099 5.142-59.888 1 1-4.113 7.09zm-8.933-12.983a4.099 5.142 9.592 1 1 8.083 1.366 4.099 5.142 9.592 1 1-8.083-1.366z" stroke-width=".504"/><path d="M379.7 147.595a4.065 5.1 0 1 1-8.13 0 4.065 5.1 0 1 1 8.13 0z" transform="matrix(-.11556 1.00167 -1.00168 -.11556 411.113 -43.878)"/><path d="M223.138 319.203a5.067 5.142-37.682 1 1 8.02-6.194 5.067 5.142-37.682 1 1-8.02 6.194z" fill="#004614" stroke-width=".504"/></g><g stroke-width=".374" stroke-linejoin="round"><path d="M218.55 230.939a3.812 3.038 3.676 1 1-.39 6.064 3.812 3.038 3.676 1 1 .39-6.064z"/><path d="M221.343 238.647a3.812 3.038-64.436 1 1 5.482 2.623 3.812 3.038-64.436 1 1-5.482-2.623z"/><path d="M230.413 231.28a3.812 3.038 5.044 1 1-.534 6.054 3.812 3.038 5.044 1 1 .534-6.053z"/><path d="M221.742 228.78a3.038 3.812 2.032 1 1 6.073.216 3.038 3.812 2.032 1 1-6.073-.215z"/><path d="M222.108 231.533a3.812 3.756-42.23 1 1 5.049 5.563 3.812 3.756-42.23 1 1-5.049-5.563z" fill="#004614"/></g><g stroke-width=".504" stroke-linejoin="round"><path d="M265.055 209.553a4.099 5.142 89.38 1 1-.089-8.197 4.099 5.142 89.38 1 1 .089 8.197z"/><path d="M260.511 199.469a4.099 5.142 21.27 1 1-7.639-2.974 4.099 5.142 21.27 1 1 7.64 2.974z"/><path d="M249.056 210.29a4.099 5.142-89.251 1 1 .107-8.196 4.099 5.142-89.251 1 1-.107 8.197zm11.917 2.494a4.099 5.142-2.262 1 1-8.19.324 4.099 5.142-2.262 1 1 8.19-.324z"/><path d="M260.203 209.113a5.067 5.142 43.475 1 1-7.354-6.973 5.067 5.142 43.475 1 1 7.354 6.973z" fill="#004614"/></g><g stroke-width=".504" stroke-linejoin="round"><path d="M265.14 336.142a4.099 5.142 13.034 1 1-7.987-1.849 4.099 5.142 13.034 1 1 7.986 1.85z"/><path d="M254.265 338.176a5.142 4.099 34.922 1 1-4.693 6.721 5.142 4.099 34.922 1 1 4.693-6.721z"/><path d="M262.08 351.865a4.099 5.142 14.402 1 1-7.94-2.039 4.099 5.142 14.402 1 1 7.94 2.04z"/><path d="M267.315 340.868a5.142 4.099 11.39 1 1-1.619 8.036 5.142 4.099 11.39 1 1 1.62-8.036z"/><path d="M263.568 340.752a5.142 5.067 57.128 1 1-8.51 5.5 5.142 5.067 57.128 1 1 8.51-5.5z" fill="#004614"/></g></g><g fill="#fff" stroke="#004614"><path d="M547.19 311.732c7.808-15.187 6.557-31.22-3.314-48.065-5.518 16.926-3.303 32.794 3.313 48.065zm13.687-21.585c12.97-16.135 19.802-35.65 17.186-42.85-5.128-.64-18.518 30.265-17.186 42.85z" stroke-width="1.402" stroke-linejoin="round"/><path d="M554.23 295.684c15.896-14.553 13.877-42.093 11.374-57.805-5.756 8.114-11.882 22.342-13.099 37.532-.538 6.718-.115 13.626 1.724 20.27z" stroke-width="1.402" stroke-linejoin="round"/><path d="M552.842 332.64l-10.682-7.557c5.355-49.243 74.705-94.732 10.682 7.559zm-13.525-154.543c-19.654-19.535-33.932-40.414-44.752-62.156 23.938 12.824 38.491 33.862 44.752 62.156z" stroke-width="1.402" stroke-linejoin="round"/><path d="M525.445 164.99c-8.414-22.799-33.936-47.1-59.886-52.366 9.044 22.171 37.585 43.454 59.886 52.366z" stroke-width="1.402" stroke-linejoin="round"/><path d="M539.883 184.207c-1.082-12.02-22.575-33.476-41.875-27.857 6.426 15.411 36.024 30.038 41.872 27.857z" stroke-width="1.402" stroke-linejoin="round"/><path d="M541.927 166.017c.03 9.479-.252 24.7-7.746 29.634-2.908 7.368-4.29 5.27-5.26.622 9.202-10.895 8.234-29.62 10.3-31.569-1.34-1.556.598-.196 2.706 1.313z" stroke-width="1.402" stroke-linejoin="round"/><path d="M541.804 202.13c-15.448 2.181-22.687-13.813-30.664-28.176 16.962 3.084 30.95 8.957 30.664 28.176zm-67.265 205.986c.608-11.106 7.127-20.475 16.255-29.08-2.318 12.241-4.822 24.336-16.255 29.08z" stroke-width="1.402" stroke-linejoin="round"/><path d="M552.626 278.933c2.147-7.814 5.172-13.017 3.075-23.147 1.447-1.567-5.228-8.167-3.515 2.198-2.877 11.78-2.74 18.633.44 20.949z" stroke-width="1.402"/><path d="M547.523 225.608c-12.46-9.387-6.936-40.905-2.411-56.698 9.804 14.18 16.208 43.316 2.411 56.698z" stroke-width="1.402" stroke-linejoin="round"/><path d="M537.537 205.974c2.43 12.17 17.898 17.242 18.75 27.983l-5.128-1.318c-.336-4.766-11.803-7.44-18.167-24.321z" stroke-width="1.402" stroke-linejoin="round"/><path d="M556.307 250.198c18.986-23.315 9.958-44.294 3.314-65.47-9.078 17.837-15.995 36.756-3.314 65.47z" stroke-width="1.402" stroke-linejoin="round"/><path d="M553.377 258.006c5.024-20.957-7.326-31.706-18.195-43.321-.326 14.34 1.082 28.709 18.195 43.321zM538 353.675c-6.672-9.308-3.678-49.983 2.142-61.865 4.536 10.998 16.715 46.313-2.142 61.865z" stroke-width="1.402" stroke-linejoin="round"/><path d="M539.081 348.342c18.047-10.14 31.659-25.703 31.914-33.357-4.517-2.504-28.46 21.184-31.914 33.357z" stroke-width="1.402" stroke-linejoin="round"/><g stroke-width=".449" stroke-linejoin="round"><path d="M543.491 160.384a3.653 4.584 2.964 1 1-7.297-.378 3.653 4.584 2.964 1 1 7.297.378zm-9.227 3.476a4.584 3.653 24.852 1 1-3.07 6.63 4.584 3.653 24.852 1 1 3.07-6.63z"/><path d="M543.256 174.652a3.653 4.584 4.332 1 1-7.286-.552 3.653 4.584 4.332 1 1 7.286.552zm2.878-10.46a4.584 3.653 1.32 1 1-.169 7.305 4.584 3.653 1.32 1 1 .169-7.305z"/><path d="M542.828 164.672a4.584 4.516 47.058 1 1-6.612 6.153 4.584 4.516 47.058 1 1 6.612-6.153z" fill="#004614"/></g><g stroke-width=".504" stroke-linejoin="round"><path d="M549.364 244.739a4.099 5.142-5.855 1 0 8.155-.837 4.099 5.142-5.855 1 0-8.155.837z"/><path d="M559.9 248.116a5.142 4.099-27.743 1 0 3.816 7.255 5.142 4.099-27.743 1 0-3.816-7.255z"/><path d="M550.432 260.718a4.099 5.142-7.223 1 0 8.132-1.031 4.099 5.142-7.223 1 0-8.132 1.03z"/><path d="M546.613 249.155a5.142 4.099-4.212 1 0 .602 8.175 5.142 4.099-4.212 1 0-.602-8.175z"/><path d="M550.348 249.508a5.142 5.067-49.95 1 0 7.757 6.52 5.142 5.067-49.95 1 0-7.757-6.52z" fill="#004614"/></g><path d="M511.398 388.157c4.901-13.329 40.647-47.606 55.008-54.694-7.41 14.075-39.274 53.177-55.008 54.694z" stroke-width="1.789" stroke-linejoin="round"/><path d="M486.642 401.46c-3.224-10.539 26.985-45.447 38.603-57.447.553 12.449-28.566 50.205-38.606 57.447z" stroke-width="1.402" stroke-linejoin="round"/><path d="M512.476 400.747c86.607-118.944 9.728-41.451-36.464-.83zm-.827-19.891l-29.834 32.323" stroke-width="1.402" stroke-linejoin="round"/><g stroke-width=".5" stroke-linejoin="round"><path d="M571.088 323.928a4.099 5.142-8.224 1 0-8.113 1.173 4.099 5.142-8.224 1 0 8.113-1.173zm-10.663-2.938a4.099 5.142 59.888 1 0-4.113-7.09 4.099 5.142 59.888 1 0 4.113 7.09zm8.933-12.983a4.099 5.142-9.592 1 0-8.083 1.366 4.099 5.142-9.592 1 0 8.083-1.366z" stroke-width=".504"/><path d="M379.7 147.595a4.065 5.1 0 1 1-8.13 0 4.065 5.1 0 1 1 8.13 0z" transform="matrix(.11556 1.00167 1.00168 -.11556 381.934 -43.878)"/><path d="M569.909 319.203a5.067 5.142 37.682 1 0-8.02-6.194 5.067 5.142 37.682 1 0 8.02 6.194z" fill="#004614" stroke-width=".504"/></g><g stroke-width=".374" stroke-linejoin="round"><path d="M574.497 230.939a3.812 3.038-3.676 1 0 .39 6.064 3.812 3.038-3.676 1 0-.39-6.064z"/><path d="M571.704 238.647a3.812 3.038 64.436 1 0-5.482 2.623 3.812 3.038 64.436 1 0 5.482-2.623z"/><path d="M562.634 231.28a3.812 3.038-5.044 1 0 .534 6.054 3.812 3.038-5.044 1 0-.534-6.053z"/><path d="M571.305 228.78a3.038 3.812-2.032 1 0-6.073.216 3.038 3.812-2.032 1 0 6.073-.215z"/><path d="M570.939 231.533a3.812 3.756 42.23 1 0-5.049 5.563 3.812 3.756 42.23 1 0 5.049-5.563z" fill="#004614"/></g><g stroke-width=".504" stroke-linejoin="round"><path d="M527.992 209.553a4.099 5.142-89.38 1 0 .089-8.197 4.099 5.142-89.38 1 0-.089 8.197z"/><path d="M532.536 199.469a4.099 5.142-21.27 1 0 7.639-2.974 4.099 5.142-21.27 1 0-7.64 2.974z"/><path d="M543.99 210.29a4.099 5.142 89.251 1 0-.107-8.196 4.099 5.142 89.251 1 0 .107 8.197zm-11.916 2.494a4.099 5.142 2.262 1 0 8.19.324 4.099 5.142 2.262 1 0-8.19-.324z"/><path d="M532.843 209.113a5.067 5.142-43.475 1 0 7.354-6.973 5.067 5.142-43.475 1 0-7.354 6.973z" fill="#004614"/></g><g stroke-width=".504" stroke-linejoin="round"><path d="M527.908 336.142a4.099 5.142-13.034 1 0 7.986-1.849 4.099 5.142-13.034 1 0-7.986 1.85z"/><path d="M538.782 338.176a5.142 4.099-34.922 1 0 4.693 6.721 5.142 4.099-34.922 1 0-4.693-6.721z"/><path d="M530.967 351.865a4.099 5.142-14.402 1 0 7.94-2.039 4.099 5.142-14.402 1 0-7.94 2.04z"/><path d="M525.73 340.868a5.142 4.099-11.39 1 0 1.62 8.036 5.142 4.099-11.39 1 0-1.62-8.036z"/><path d="M529.479 340.752a5.142 5.067-57.128 1 0 8.51 5.5 5.142 5.067-57.128 1 0-8.51-5.5z" fill="#004614"/></g></g><g fill="#fff"><path d="M397.472 71.805a26.879 26.879 0 0 0-10.431 2.345 23.276 23.276 0 0 1 28.33 14.257 23.276 23.276 0 0 1-42.896 18.023 26.879 26.879 0 0 0 .494 1.543 26.879 26.879 0 0 0 50.363-18.701 26.879 26.879 0 0 0-25.86-17.467z"/><path d="M380.164 78.764l2.06 7.568 7.17 1.22-6.562 4.297 1.056 7.195-6.116-4.912-6.516 3.228 2.782-7.334-5.083-5.2 7.834.379z"/></g><g fill="#fff" stroke="#004614" stroke-width=".696"><path d="M418.388 202.496c-36.777-24.444-43.39-37.11-52.488-50.816 6.278 26.452 11.76 28.428 48.31 57.001z"/><path d="M413.957 225.977c-7.7-5.077-1.892-18.5.428-22.695 5.088-8.826 17.988-10.563 11.938 5.035a43.3 43.3 0 0 0-1.372 1.656c-5.106 6.49-6.306 12.049-6.746 16.226-.565.946-2.906.182-3.642-.045z"/><path d="M435.271 215.702l-11.2-9.194c-1.13-2.115-5.59-3.658-7.02 3.176l13.373 9.361z"/><path d="M440.286 220.382c6.946-10.932 0-15.008-8.358-8.358-1.588 1.18-10.487 12.232-17.026 14.293 8.824 3.19 17.191-1.395 25.384-5.935z"/><path d="M447.474 224.394l-8.191-6.853c-4.872-3.53-6.733 2.154-6.686 3.677l8.692 7.355c9.187 3.954 7.759-1.124 6.185-4.179zm-72.21-21.898c36.777-24.444 43.389-37.11 52.487-50.816-6.277 26.452-11.76 28.428-48.309 57.001z"/><path d="M379.665 225.977c7.7-5.077 1.892-18.5-.428-22.695-5.088-8.826-17.988-10.563-11.938 5.035 6.271 7.203 7.641 13.354 8.118 17.882.564.946 2.905.182 3.642-.045z"/><path d="M358.38 215.702l11.2-9.194c1.13-2.115 5.591-3.658 7.02 3.176l-13.372 9.361z"/><path d="M353.366 220.382c-6.946-10.932 0-15.008 8.358-8.358 1.588 1.18 10.487 12.232 17.025 14.293-8.824 3.19-17.19-1.395-25.383-5.935z"/><path d="M346.178 224.394l8.19-6.853c4.873-3.53 6.733 2.154 6.687 3.677l-8.692 7.355c-9.187 3.954-7.76-1.124-6.185-4.179z"/></g><g stroke="#fff"><path d="M535.426 270.62a138.6 138.527 0 1 1-277.2 0 138.6 138.527 0 1 1 277.2 0z" fill="none" stroke-width="2.095"/><g fill="#004614" stroke-width="1.459"><path d="M440.905 333.02v-34.036h-9.033v6.882h-6.252v-6.882h-9.855v6.882h-6.184v-6.882h-10.059v6.882h-6.116v-6.882h-9.99v6.882h-6.185v-6.882h-9.922v6.882h-6.185v-6.882h-8.767l1.7 34.037 1.158 35.375h36.415v-11.4h10.141v11.4h39.624zm-1.288-9.897v5.623m-11.342-5.72v5.72m-11.582-5.503v5.503m-11.533-5.527v5.279m-51.66-5.375h50.075m-10.092.12v5.314m-11.342-5.362v5.55m-11.582-5.67v5.67m-11.533-5.55v5.55m39.935-5.622h42.001m-7.112-5.723v5.623m-11.341-5.719v5.719m-11.582-5.671v5.67m-11.534-5.61v5.61m-11.677-5.622v5.623m-11.341-5.719v5.719m-11.582-5.671v5.67m28.401-5.622h47.816m-87.559 0h44.357m42.097-5.722v5.622m-11.341-5.565v5.565m-11.582-5.67v5.67m-11.534-5.611v5.611m-52.333-5.622h50.748m-10.092 0v5.622m-11.341-5.583v5.583m-11.582-5.67v5.67m-11.534-5.593v5.593m39.935-5.622h41.617m-6.92-5.553v5.453m-11.341-5.43v5.43m-11.582-5.467v5.467m-11.534-5.509v5.51m-11.677-5.454v5.453m-11.341-5.382v5.382m-11.582-5.364v5.364m-11.534-5.424v5.424m39.935-5.479h47.576m-87.991 0h45.029M353.5 328.581h50.075m-4.614 0h42.001m-7.112 5.723v-5.623m-11.341 5.719v-5.719m-11.582 5.671v-5.67m-11.534 5.61v-5.61m-11.677 5.622v-5.623m-11.341 5.719v-5.719m-11.582 5.671v-5.67m28.401 5.622h47.816m-87.559 0h44.357m42.097 5.722v-5.622m-11.341 5.565v-5.565m-11.582 5.67v-5.67m-11.534 5.611v-5.611m-52.333 5.622h50.748m-10.092 0v-5.622m-11.341 5.583v-5.583m-11.582 5.67v-5.67m-11.534 5.593v-5.593m39.935 5.622h41.617m-6.92 5.553v-5.453m-11.341 5.43v-5.43m-11.582 5.467v-5.467m-11.534 5.509v-5.51m-11.677 5.454v-5.453m-11.341 5.382v-5.382m-11.582 5.364v-5.364m-11.534 5.424v-5.424m39.935 5.479h47.576m-87.991 0h45.029m-38.318.109h50.075m-4.614 0h42.001m-7.112 5.723v-5.623m-11.341 5.719v-5.719m-11.582 5.671v-5.67m-11.534 5.61v-5.61m-11.677 5.622v-5.623m-11.341 5.719v-5.719m-11.582 5.671v-5.67m28.401 5.622h47.816m-92.465 0h49.263m42.097 5.722v-5.622m-11.341 5.565v-5.565m-11.582 5.67v-5.67m-11.534 5.611v-5.611m-52.333 5.622h50.748m-10.092 0v-5.622m-11.341 5.583v-5.583m-11.582 5.67v-5.67M365.4 357.13v-5.593m39.935 5.622h41.617m-6.92 5.553v-5.453m-11.341 5.43v-5.43m-11.582 5.467v-5.467m-11.534 5.509v-5.51m-23.018 5.383v-5.382m-11.582 5.364v-5.364m-11.534 5.424v-5.424m42.367 5.479h45.078m-87.925 0l32.394-.045m42.669 5.613v-5.453m-11.341 5.43v-5.43M411.1 368.32v-5.467m-23.21 5.453v-5.453m-11.342 5.382v-5.382m-11.582 5.364v-5.364" stroke-width="1.122"/><path d="M309.477 368.407h51.515l-6.481-86.425h-9.923v3.988h-5.31v-3.988H329.09v3.988h-5.31v-3.988h-9.803zm23.445-6.986h27.648m-9.914-.048v5.67m-11.534-5.814v5.815m-29.443-5.623h27.858m-10.092 0v5.623m-11.342-5.719v5.719m40.368-11.442v5.72m-11.582-5.671v5.67m-11.534-5.814v5.814m-23.387-5.622h21.801m-10.091 0v5.622m-11.341-5.719v5.72m16.819-5.623h32.886m-9.579-5.771v5.671m-11.533-5.815v5.815m-28.674-5.623h27.088m-10.092 0v5.623m-11.34-5.719v5.72m16.818-5.624h26.832m-3.188-5.914v5.718m-11.581-5.67v5.67m-11.534-5.814v5.814m-22.715-5.622h21.13m-10.093 0v5.622m5.48-5.622h31.972m-8.666-5.674v5.67m-11.533-5.814v5.814m-28.001-5.622h26.414m-10.091 0v5.622m-11.342-5.718v5.718m16.82-5.622h26.159m-2.611-5.82v5.72m-11.582-5.67v5.67m-11.533-5.815v5.815m-21.801-5.623h20.215m-10.092 0v5.623m5.479-5.623h31.54m-7.609-5.817v5.718m-11.58-5.67v5.67m-11.534-5.815v5.815m-16.372-5.623H326.1m-10.092 0v5.623m5.479-5.623h36.25m-1.747-5.818v5.718m-11.58-5.67v5.67m-11.534-5.814v5.814m-20.889-5.622h19.302m-10.091 0v5.622m5.479-5.622h30.867m-6.984-5.77v5.67m-11.533-5.815v5.815m-26.895-5.622h25.309m-10.092 0v5.622m-11.341-5.72v5.72m16.82-5.622h24.332m-12.462-5.771v5.67m-11.534-5.815v5.816m-20.744-5.623h19.158m-10.091 0v5.623m5.477-5.623h29.811m-.592-.144v5.718m-11.485-5.622v5.67m-11.534-5.815v5.816m-11.677-5.623v5.623m28.977-11.394v5.67m-11.533-5.814v5.815m-26.079-5.622h24.493m-10.092 0v5.622m-11.34-5.719v5.719m16.818-5.622h23.515m-11.548-5.771v5.67m-11.534-5.814v5.815m-20.024-5.623h18.439m-10.092 0v5.623m5.477-5.623h28.658m-22.602-5.723h22.225m-4.492-.047v5.67m-11.534-5.815v5.815m-25.742-5.623h24.156m-10.092 0v5.623m-11.341-5.719v5.72m28.594-11.819v6.095M333.26 286.6v6.052m-11.678-6.012v6.012" stroke-width="1.122"/><path d="M313.593 286.495h17.86m-4.997 0h28.447" stroke-width="1.121"/><path d="M309.492 367.38h51.265m123.418 1.027H432.66l6.481-86.425h9.923v3.988h5.31v-3.988h10.188v3.988h5.31v-3.988h9.803zm-23.445-6.986h-27.648m9.914-.048v5.67m11.534-5.814v5.815m29.443-5.623h-27.858m10.092 0v5.623m11.342-5.719v5.719m-40.368-11.442v5.72m11.582-5.671v5.67m11.534-5.814v5.814m23.387-5.622h-21.801m10.091 0v5.622m11.341-5.719v5.72m-16.819-5.623H433.61m9.579-5.771v5.671m11.533-5.815v5.815m28.674-5.623h-27.088m10.092 0v5.623m11.34-5.719v5.72m-16.818-5.624H434.09m3.188-5.914v5.718m11.581-5.67v5.67m11.534-5.814v5.814m22.715-5.622h-21.13m10.093 0v5.622m-5.48-5.622H434.62m8.666-5.674v5.67m11.533-5.814v5.814m28.001-5.622h-26.414m10.091 0v5.622m11.342-5.718v5.718m-16.82-5.622H434.86m2.611-5.82v5.72m11.582-5.67v5.67m11.533-5.815v5.815m21.801-5.623h-20.215m10.092 0v5.623m-5.479-5.623h-31.54m7.609-5.817v5.718m11.58-5.67v5.67m11.534-5.815v5.815m16.372-5.623h-14.786m10.092 0v5.623m-5.479-5.623h-36.25m1.747-5.818v5.718m11.58-5.67v5.67m11.534-5.814v5.814m20.889-5.622h-19.302m10.091 0v5.622m-5.479-5.622H436.11m6.984-5.77v5.67m11.533-5.815v5.815m26.895-5.622h-25.309m10.092 0v5.622m11.341-5.72v5.72m-16.82-5.622h-24.332m12.462-5.771v5.67m11.534-5.815v5.816m20.744-5.623h-19.158m10.091 0v5.623m-5.477-5.623h-29.811m.592-.144v5.718m11.485-5.622v5.67m11.534-5.815v5.816m11.677-5.623v5.623m-28.977-11.394v5.67m11.533-5.814v5.815m26.079-5.622h-24.493m10.092 0v5.622m11.34-5.719v5.719m-16.818-5.622h-23.515m11.548-5.771v5.67m11.534-5.814v5.815m20.024-5.623h-18.439m10.092 0v5.623m-5.477-5.623h-28.66m22.602-5.723h-22.225m4.492-.047v5.67m11.534-5.815v5.815m25.742-5.623H456.02m10.092 0v5.623m11.341-5.719v5.72m-28.594-11.819v6.095m11.534-6.052v6.052m11.678-6.012v6.012" stroke-width="1.122"/><path d="M480.059 286.495h-17.86m4.997 0h-28.447" stroke-width="1.121"/><path d="M484.16 367.38h-51.265" stroke-width="1.122"/></g><path d="M263.356 237.018l26.265 21.44 35.377-36.449L396.29 293.3l73.435-72.363 34.306 38.058 26.265-22.513" fill="none" stroke-width="2.095"/></g><g stroke="#fff"><g fill="#004614" stroke-width="2.804"><path d="M562.402 450.347l6.527-17.632-6.768-6.393-5.958 3.853z"/><path d="M529.546 445.53l39.25-14.018-15.42-44.157-37.848 11.915z"/><path d="M529.459 445.177l10.864-13.14-4.469-5.782-11.565 4.73z" stroke-linejoin="round"/><path d="M227.674 449.646l-6.527-17.634 6.768-6.393 5.957 3.853z"/><path d="M260.53 444.827l-39.251-14.018 15.42-44.157 37.849 11.915z"/><path d="M260.616 444.477l-10.864-13.144 4.47-5.781 11.564 4.733z" stroke-linejoin="round"/><path d="M249.897 430.083l14.268-43.848c86.973 25.723 175.026 27.418 264.354.735l11.676 43.864c-91.914 34.934-189.14 31.347-290.298-.751z"/></g><g fill="#fff" stroke-linejoin="round"><path d="M300.991 439.087l19.037 4.16c-3.367-.51-5.287-1.867-4.548-5.396l2.922-13.377c6.064.803 9.076 3.921 8.29 10.886l3.983-18.222c-2.131 5.464-5.143 7.934-11.954 5.878l3.542-16.207 7.353 1.607c8.008 2.029 8.447 6.34 8.183 10.863l2.212-10.12-30.914-6.754c2.322 1.152 5.727 1.37 4.372 5.897l-6.035 27.612c-.483 2.859-2.211 4.479-6.444 3.174z" stroke-width=".732"/><path d="M414.259 450.372l19.53-1.094c-2.714-.37-6.18.658-5.99-5.12l-1.714-30.595 3.276-.183c3.84-.299 7.552.157 10.044 7.745l-.55-9.796-33.93 1.901.551 9.858c1.09-6.218 4.298-8.73 8.866-8.867l3.523-.197 1.717 30.656c.65 3.56-.734 5.724-5.323 5.692z" stroke-width=".73"/><path d="M372.624 438.748l2.201 6.602c1.308 4.48-1.988 3.725-4.446 3.924l17.422 1.594c-1.94-.376-3.127-1.819-4.226-4.474l-11.646-34.737-17.913 31.79c-1.47 2.458-3.33 3.543-5.414 3.835l11.735 1.073c-4.704-.844-5.984-2.802-3.146-7.816l1.675-3.05zm-13.14-2.363l7.837-13.887 4.963 15.058zm113.98-3.679l4.032 5.673c2.558 3.904-.815 4.143-3.108 5.05l17.129-3.558c-1.965.206-3.522-.827-5.348-3.046l-21.272-29.828-7.861 35.632c-.69 2.78-2.151 4.36-4.06 5.248l11.539-2.397c-4.746.565-6.542-.934-5.29-6.558l.713-3.406zm-13.257 1.574l3.444-15.57 9.14 12.956z" stroke-width=".716"/></g></g></svg>