<svg xmlns="http://www.w3.org/2000/svg" width="793.047" height="528.047"><defs><linearGradient id="a"><stop offset="0"/><stop offset="1" stop-opacity="0"/></linearGradient><linearGradient id="b"><stop offset="0"/><stop offset="1" stop-opacity="0"/></linearGradient><linearGradient id="c"><stop offset="0"/><stop offset="1" stop-opacity="0"/></linearGradient></defs><path fill="#004614" d="M0 0h793.047v528.047H0z"/><g fill="#fff" stroke="#004614"><path d="M557.206-403.847c2.785-5.417 2.339-11.136-1.182-17.144-1.968 6.037-1.178 11.697 1.182 17.144zM562.088-411.546c4.626-5.755 7.063-12.716 6.13-15.284-1.829-.228-6.605 10.795-6.13 15.284z" stroke-width=".5" stroke-linejoin="round" transform="matrix(-2.80363 0 0 2.80363 1808.058 1443.97)"/><path d="M559.717-409.571c5.67-5.191 4.95-15.014 4.057-20.618-2.96 4.174-6.197 12.882-4.057 20.618z" stroke-width=".5" stroke-linejoin="round" transform="matrix(-2.80363 0 0 2.80363 1808.058 1443.97)"/><path d="M559.222-396.39l-3.81-2.695c1.91-17.564 26.646-33.789 3.81 2.696zM554.398-451.512c-7.01-6.968-12.103-14.415-15.962-22.17 8.538 4.574 13.729 12.078 15.962 22.17z" stroke-width=".5" stroke-linejoin="round" transform="matrix(-2.80363 0 0 2.80363 1808.058 1443.97)"/><path d="M549.45-456.187c-3.001-8.132-12.104-16.8-21.36-18.678 3.226 7.908 13.406 15.499 21.36 18.678z" stroke-width=".5" stroke-linejoin="round" transform="matrix(-2.80363 0 0 2.80363 1808.058 1443.97)"/><path d="M554.6-449.333c-.386-4.287-8.052-11.94-14.936-9.936 2.292 5.497 12.849 10.714 14.935 9.936z" stroke-width=".5" stroke-linejoin="round" transform="matrix(-2.80363 0 0 2.80363 1808.058 1443.97)"/><path d="M555.329-455.821c.011 3.381-.09 8.81-2.763 10.57-1.037 2.628-1.53 1.88-1.876.222 3.282-3.886 2.937-10.565 3.674-11.26-.478-.555.213-.07.965.468z" stroke-width=".5" stroke-linejoin="round" transform="matrix(-2.80363 0 0 2.80363 1808.058 1443.97)"/><path d="M555.285-442.94c-5.51.778-8.092-4.927-10.937-10.05 6.05 1.1 11.039 3.195 10.937 10.05zM531.293-369.469c.217-3.961 2.542-7.303 5.798-10.372-.827 4.366-1.72 8.68-5.798 10.372z" stroke-width=".5" stroke-linejoin="round" transform="matrix(-2.80363 0 0 2.80363 1808.058 1443.97)"/><path d="M559.145-415.546c.766-2.787 1.845-4.643 1.097-8.256.516-.559-1.865-2.913-1.254.784-1.026 4.202-.977 6.646.157 7.472z" stroke-width=".5" transform="matrix(-2.80363 0 0 2.80363 1808.058 1443.97)"/><path d="M565.259-430.386c-1.209 3.158-1.419 5.593-4.546 6.27l-1.83-.47c4.463-2.44 4.707-6.202 5.644-6.584zM557.325-434.566c-4.444-3.348-2.474-14.59-.86-20.223 3.497 5.058 5.781 15.45.86 20.223z" stroke-width=".5" stroke-linejoin="round" transform="matrix(-2.80363 0 0 2.80363 1808.058 1443.97)"/><path d="M553.763-441.569c.867 4.341 6.384 6.15 6.688 9.981l-1.829-.47c-.12-1.7-4.21-2.654-6.48-8.675z" stroke-width=".5" stroke-linejoin="round" transform="matrix(-2.80363 0 0 2.80363 1808.058 1443.97)"/><path d="M560.458-425.795c6.772-8.316 3.552-15.799 1.182-23.352-3.238 6.362-5.705 13.11-1.182 23.352z" stroke-width=".5" stroke-linejoin="round" transform="matrix(-2.80363 0 0 2.80363 1808.058 1443.97)"/><path d="M559.413-423.01c1.792-7.475-2.613-11.309-6.49-15.452-.116 5.115.386 10.24 6.49 15.452zM553.928-388.887c-2.38-3.32-1.312-17.828.764-22.066 1.618 3.923 5.962 16.519-.764 22.066z" stroke-width=".5" stroke-linejoin="round" transform="matrix(-2.80363 0 0 2.80363 1808.058 1443.97)"/><path d="M554.314-390.789c6.437-3.617 11.292-9.168 11.383-11.898-1.611-.893-10.151 7.556-11.383 11.898z" stroke-width=".5" stroke-linejoin="round" transform="matrix(-2.80363 0 0 2.80363 1808.058 1443.97)"/><g stroke-width=".5" stroke-linejoin="round"><path d="M379.7 147.595a4.065 5.1 0 1 1-8.13 0 4.065 5.1 0 1 1 8.13 0z" transform="matrix(-.89755 .04647 .04647 .89755 583.497 10.265)"/><path d="M379.7 147.595a4.065 5.1 0 1 1-8.13 0 4.065 5.1 0 1 1 8.13 0z" transform="matrix(-.37772 -.81552 -.81552 .37772 522.57 417.764)"/><path d="M379.7 147.595a4.065 5.1 0 1 1-8.13 0 4.065 5.1 0 1 1 8.13 0z" transform="matrix(-.89618 .06788 .06788 .89618 580.052 16.606)"/><path d="M379.7 147.595a4.065 5.1 0 1 1-8.13 0 4.065 5.1 0 1 1 8.13 0z" transform="matrix(-.02071 -.8985 -.8985 .02071 387.39 502.296)"/><path d="M374.379 154.246a5.025 5.1 0 1 1-10.05 0 5.025 5.1 0 1 1 10.05 0z" fill="#004614" transform="scale(-.89875 .89875) rotate(-42.942 84.821 998.558)"/></g><g stroke-width=".5" stroke-linejoin="round"><path d="M379.7 147.595a4.065 5.1 0 1 1-8.13 0 4.065 5.1 0 1 1 8.13 0z" transform="matrix(1.00306 .10286 -.10286 1.00306 -121.997 57.636)"/><path d="M379.7 147.595a4.065 5.1 0 1 1-8.13 0 4.065 5.1 0 1 1 8.13 0z" transform="matrix(.46938 -.8924 .8924 .46938 -76.79 517.682)"/><path d="M379.7 147.595a4.065 5.1 0 1 1-8.13 0 4.065 5.1 0 1 1 8.13 0z" transform="matrix(1.00032 .12678 -.12678 1.00032 -118.494 64.937)"/><path d="M379.7 147.595a4.065 5.1 0 1 1-8.13 0 4.065 5.1 0 1 1 8.13 0z" transform="matrix(.07406 -1.0056 1.0056 .07406 69.892 620.05)"/><path d="M374.379 154.246a5.025 5.1 0 1 1-10.05 0 5.025 5.1 0 1 1 10.05 0z" fill="#004614" transform="matrix(.77184 -.64882 .64882 .77184 -146.34 373.359)"/></g><path d="M544.44-376.588c1.748-4.754 14.498-16.98 19.62-19.508-2.643 5.02-14.008 18.967-19.62 19.508z" stroke-width=".638" stroke-linejoin="round" transform="matrix(-2.80363 0 0 2.80363 1808.058 1443.97)"/><path d="M535.61-371.843c-1.15-3.759 9.625-16.21 13.769-20.49.197 4.44-10.189 17.907-13.77 20.49z" stroke-width=".5" stroke-linejoin="round" transform="matrix(-2.80363 0 0 2.80363 1808.058 1443.97)"/><g stroke-width=".5" stroke-linejoin="round"><path d="M498.68 228.22c-30.891-42.425-3.47-14.785 13.006-.296zM498.975 221.125l10.641 11.529" transform="matrix(2.80363 0 0 2.80363 -1117.544 -239.097)"/></g><g stroke-width=".5" stroke-linejoin="round"><path d="M379.7 147.595a4.065 5.1 0 1 1-8.13 0 4.065 5.1 0 1 1 8.13 0z" transform="matrix(-.99795 -.14423 .14423 -.99795 579.593 525.985)"/><path d="M379.7 147.595a4.065 5.1 0 1 1-8.13 0 4.065 5.1 0 1 1 8.13 0z" transform="matrix(-.50587 .87224 -.87224 -.50587 553.439 64.465)"/><path d="M379.7 147.595a4.065 5.1 0 1 1-8.13 0 4.065 5.1 0 1 1 8.13 0z" transform="matrix(-.99422 -.16802 .16802 -.99422 576.395 518.546)"/><path d="M379.7 147.595a4.065 5.1 0 1 1-8.13 0 4.065 5.1 0 1 1 8.13 0z" transform="matrix(-.11556 1.00167 -1.00168 -.11556 411.113 -43.878)"/><path d="M374.379 154.246a5.025 5.1 0 1 1-10.05 0 5.025 5.1 0 1 1 10.05 0z" fill="#004614" transform="matrix(-.798 .61636 -.61636 -.798 616.964 211.539)"/></g><g stroke-width=".5" stroke-linejoin="round"><path d="M379.7 147.595a4.065 5.1 0 1 1-8.13 0 4.065 5.1 0 1 1 8.13 0z" transform="matrix(.04793 -.74594 .74594 .04793 90.254 507.098)"/><path d="M379.7 147.595a4.065 5.1 0 1 1-8.13 0 4.065 5.1 0 1 1 8.13 0z" transform="matrix(-.6743 -.32255 .32255 -.6743 429.768 460.643)"/><path d="M379.7 147.595a4.065 5.1 0 1 1-8.13 0 4.065 5.1 0 1 1 8.13 0z" transform="matrix(.06572 -.74458 .74458 .06572 95.563 504.298)"/><path d="M379.7 147.595a4.065 5.1 0 1 1-8.13 0 4.065 5.1 0 1 1 8.13 0z" transform="matrix(-.747 -.02651 .02651 -.747 501.465 349.1)"/><path d="M374.379 154.246a5.025 5.1 0 1 1-10.05 0 5.025 5.1 0 1 1 10.05 0z" fill="#004614" transform="matrix(-.50238 -.55347 .55347 -.50238 324.818 516.231)"/></g><g stroke-width=".5" stroke-linejoin="round"><path d="M379.7 147.595a4.065 5.1 0 1 1-8.13 0 4.065 5.1 0 1 1 8.13 0z" transform="matrix(.0109 1.00826 -1.00826 .0109 409.73 -174.892)"/><path d="M379.7 147.595a4.065 5.1 0 1 1-8.13 0 4.065 5.1 0 1 1 8.13 0z" transform="matrix(.93964 .36577 -.36577 .93964 -42.284 -78.1)"/><path d="M379.7 147.595a4.065 5.1 0 1 1-8.13 0 4.065 5.1 0 1 1 8.13 0z" transform="matrix(-.01318 1.00823 -1.00823 -.01318 402.87 -170.589)"/><path d="M379.7 147.595a4.065 5.1 0 1 1-8.13 0 4.065 5.1 0 1 1 8.13 0z" transform="matrix(1.00753 -.0398 .0398 1.00753 -127.46 79.19)"/><path d="M374.379 154.246a5.025 5.1 0 1 1-10.05 0 5.025 5.1 0 1 1 10.05 0z" fill="#004614" transform="matrix(.73171 .69376 -.69376 .73171 93.276 -163.48)"/></g><g stroke-width=".5" stroke-linejoin="round"><path d="M379.7 147.595a4.065 5.1 0 1 1-8.13 0 4.065 5.1 0 1 1 8.13 0z" transform="matrix(.98234 .2274 -.2274 .98234 -74.292 104.81)"/><path d="M379.7 147.595a4.065 5.1 0 1 1-8.13 0 4.065 5.1 0 1 1 8.13 0z" transform="matrix(.57722 -.82675 .82675 .57722 -86.93 566.898)"/><path d="M379.7 147.595a4.065 5.1 0 1 1-8.13 0 4.065 5.1 0 1 1 8.13 0z" transform="matrix(.97663 .2508 -.2508 .97663 -71.73 112.491)"/><path d="M379.7 147.595a4.065 5.1 0 1 1-8.13 0 4.065 5.1 0 1 1 8.13 0z" transform="matrix(.19914 -.98846 .98846 .19914 45.81 686.794)"/><path d="M374.379 154.246a5.025 5.1 0 1 1-10.05 0 5.025 5.1 0 1 1 10.05 0z" fill="#004614" transform="matrix(.84687 -.54728 .54728 .84687 -137.898 415.016)"/></g></g><g fill="#fff" stroke="#004614"><path d="M557.206-403.847c2.785-5.417 2.339-11.136-1.182-17.144-1.968 6.037-1.178 11.697 1.182 17.144zM562.088-411.546c4.626-5.755 7.063-12.716 6.13-15.284-1.829-.228-6.605 10.795-6.13 15.284z" stroke-width=".5" stroke-linejoin="round" transform="matrix(2.80363 0 0 2.80363 -1015.01 1443.97)"/><path d="M559.717-409.571c5.67-5.191 4.95-15.014 4.057-20.618-2.053 2.894-4.238 7.969-4.672 13.387-.192 2.396-.041 4.86.615 7.23z" stroke-width=".5" stroke-linejoin="round" transform="matrix(2.80363 0 0 2.80363 -1015.01 1443.97)"/><path d="M559.222-396.39l-3.81-2.695c1.91-17.564 26.646-33.789 3.81 2.696zM554.398-451.512c-7.01-6.968-12.103-14.415-15.962-22.17 8.538 4.574 13.729 12.078 15.962 22.17z" stroke-width=".5" stroke-linejoin="round" transform="matrix(2.80363 0 0 2.80363 -1015.01 1443.97)"/><path d="M549.45-456.187c-3.001-8.132-12.104-16.8-21.36-18.678 3.226 7.908 13.406 15.499 21.36 18.678z" stroke-width=".5" stroke-linejoin="round" transform="matrix(2.80363 0 0 2.80363 -1015.01 1443.97)"/><path d="M554.6-449.333c-.386-4.287-8.052-11.94-14.936-9.936 2.292 5.497 12.849 10.714 14.935 9.936z" stroke-width=".5" stroke-linejoin="round" transform="matrix(2.80363 0 0 2.80363 -1015.01 1443.97)"/><path d="M555.329-455.821c.011 3.381-.09 8.81-2.763 10.57-1.037 2.628-1.53 1.88-1.876.222 3.282-3.886 2.937-10.565 3.674-11.26-.478-.555.213-.07.965.468z" stroke-width=".5" stroke-linejoin="round" transform="matrix(2.80363 0 0 2.80363 -1015.01 1443.97)"/><path d="M555.285-442.94c-5.51.778-8.092-4.927-10.937-10.05 6.05 1.1 11.039 3.195 10.937 10.05zM531.293-369.469c.217-3.961 2.542-7.303 5.798-10.372-.827 4.366-1.72 8.68-5.798 10.372z" stroke-width=".5" stroke-linejoin="round" transform="matrix(2.80363 0 0 2.80363 -1015.01 1443.97)"/><path d="M559.145-415.546c.766-2.787 1.845-4.643 1.097-8.256.516-.559-1.865-2.913-1.254.784-1.026 4.202-.977 6.646.157 7.472z" stroke-width=".5" transform="matrix(2.80363 0 0 2.80363 -1015.01 1443.97)"/><path d="M557.325-434.566c-4.444-3.348-2.474-14.59-.86-20.223 3.497 5.058 5.781 15.45.86 20.223z" stroke-width=".5" stroke-linejoin="round" transform="matrix(2.80363 0 0 2.80363 -1015.01 1443.97)"/><path d="M553.763-441.569c.867 4.341 6.384 6.15 6.688 9.981l-1.829-.47c-.12-1.7-4.21-2.654-6.48-8.675z" stroke-width=".5" stroke-linejoin="round" transform="matrix(2.80363 0 0 2.80363 -1015.01 1443.97)"/><path d="M560.458-425.795c6.772-8.316 3.552-15.799 1.182-23.352-3.238 6.362-5.705 13.11-1.182 23.352z" stroke-width=".5" stroke-linejoin="round" transform="matrix(2.80363 0 0 2.80363 -1015.01 1443.97)"/><path d="M559.413-423.01c1.792-7.475-2.613-11.309-6.49-15.452-.116 5.115.386 10.24 6.49 15.452zM553.928-388.887c-2.38-3.32-1.312-17.828.764-22.066 1.618 3.923 5.962 16.519-.764 22.066z" stroke-width=".5" stroke-linejoin="round" transform="matrix(2.80363 0 0 2.80363 -1015.01 1443.97)"/><path d="M554.314-390.789c6.437-3.617 11.292-9.168 11.383-11.898-1.611-.893-10.151 7.556-11.383 11.898z" stroke-width=".5" stroke-linejoin="round" transform="matrix(2.80363 0 0 2.80363 -1015.01 1443.97)"/><g stroke-width=".5" stroke-linejoin="round"><path d="M379.7 147.595a4.065 5.1 0 1 1-8.13 0 4.065 5.1 0 1 1 8.13 0z" transform="matrix(.89755 .04647 -.04647 .89755 209.55 10.265)"/><path d="M379.7 147.595a4.065 5.1 0 1 1-8.13 0 4.065 5.1 0 1 1 8.13 0z" transform="matrix(.37772 -.81552 .81552 .37772 270.477 417.764)"/><path d="M379.7 147.595a4.065 5.1 0 1 1-8.13 0 4.065 5.1 0 1 1 8.13 0z" transform="matrix(.89618 .06788 -.06788 .89618 212.995 16.606)"/><path d="M379.7 147.595a4.065 5.1 0 1 1-8.13 0 4.065 5.1 0 1 1 8.13 0z" transform="matrix(.02071 -.8985 .8985 .02071 405.656 502.296)"/><path d="M374.379 154.246a5.025 5.1 0 1 1-10.05 0 5.025 5.1 0 1 1 10.05 0z" fill="#004614" transform="matrix(.65792 -.61228 .61228 .65792 202.075 292.415)"/></g><g stroke-width=".5" stroke-linejoin="round"><path d="M379.7 147.595a4.065 5.1 0 1 1-8.13 0 4.065 5.1 0 1 1 8.13 0z" transform="matrix(-1.00306 .10286 .10286 1.00306 915.044 57.636)"/><path d="M379.7 147.595a4.065 5.1 0 1 1-8.13 0 4.065 5.1 0 1 1 8.13 0z" transform="matrix(-.46938 -.8924 -.8924 .46938 869.837 517.682)"/><path d="M379.7 147.595a4.065 5.1 0 1 1-8.13 0 4.065 5.1 0 1 1 8.13 0z" transform="matrix(-1.00032 .12678 .12678 1.00032 911.541 64.937)"/><path d="M379.7 147.595a4.065 5.1 0 1 1-8.13 0 4.065 5.1 0 1 1 8.13 0z" transform="matrix(-.07406 -1.0056 -1.0056 .07406 723.155 620.05)"/><path d="M374.379 154.246a5.025 5.1 0 1 1-10.05 0 5.025 5.1 0 1 1 10.05 0z" fill="#004614" transform="matrix(-.77184 -.64882 -.64882 .77184 939.387 373.359)"/></g><path d="M544.44-376.588c1.748-4.754 14.498-16.98 19.62-19.508-2.643 5.02-14.008 18.967-19.62 19.508z" stroke-width=".638" stroke-linejoin="round" transform="matrix(2.80363 0 0 2.80363 -1015.01 1443.97)"/><path d="M535.61-371.843c-1.15-3.759 9.625-16.21 13.769-20.49.197 4.44-10.189 17.907-13.77 20.49z" stroke-width=".5" stroke-linejoin="round" transform="matrix(2.80363 0 0 2.80363 -1015.01 1443.97)"/><g stroke-width=".5" stroke-linejoin="round"><path d="M498.68 228.22c-30.891-42.425-3.47-14.785 13.006-.296zM498.975 221.125l10.641 11.529" transform="matrix(-2.80363 0 0 2.80363 1910.59 -239.097)"/></g><g stroke-width=".5" stroke-linejoin="round"><path d="M379.7 147.595a4.065 5.1 0 1 1-8.13 0 4.065 5.1 0 1 1 8.13 0z" transform="matrix(.99795 -.14423 -.14423 -.99795 213.454 525.985)"/><path d="M379.7 147.595a4.065 5.1 0 1 1-8.13 0 4.065 5.1 0 1 1 8.13 0z" transform="matrix(.50587 .87224 .87224 -.50587 239.608 64.465)"/><path d="M379.7 147.595a4.065 5.1 0 1 1-8.13 0 4.065 5.1 0 1 1 8.13 0z" transform="matrix(.99422 -.16802 -.16802 -.99422 216.652 518.546)"/><path d="M379.7 147.595a4.065 5.1 0 1 1-8.13 0 4.065 5.1 0 1 1 8.13 0z" transform="matrix(.11556 1.00167 1.00168 -.11556 381.934 -43.878)"/><path d="M374.379 154.246a5.025 5.1 0 1 1-10.05 0 5.025 5.1 0 1 1 10.05 0z" fill="#004614" transform="matrix(.798 .61636 .61636 -.798 176.083 211.539)"/></g><g stroke-width=".5" stroke-linejoin="round"><path d="M379.7 147.595a4.065 5.1 0 1 1-8.13 0 4.065 5.1 0 1 1 8.13 0z" transform="matrix(-.04793 -.74594 -.74594 .04793 702.793 507.098)"/><path d="M379.7 147.595a4.065 5.1 0 1 1-8.13 0 4.065 5.1 0 1 1 8.13 0z" transform="matrix(.6743 -.32255 -.32255 -.6743 363.279 460.643)"/><path d="M379.7 147.595a4.065 5.1 0 1 1-8.13 0 4.065 5.1 0 1 1 8.13 0z" transform="matrix(-.06572 -.74458 -.74458 .06572 697.484 504.298)"/><path d="M379.7 147.595a4.065 5.1 0 1 1-8.13 0 4.065 5.1 0 1 1 8.13 0z" transform="matrix(.747 -.02651 -.02651 -.747 291.582 349.1)"/><path d="M374.379 154.246a5.025 5.1 0 1 1-10.05 0 5.025 5.1 0 1 1 10.05 0z" fill="#004614" transform="matrix(.50238 -.55347 -.55347 -.50238 468.229 516.231)"/></g><g stroke-width=".5" stroke-linejoin="round"><path d="M379.7 147.595a4.065 5.1 0 1 1-8.13 0 4.065 5.1 0 1 1 8.13 0z" transform="matrix(-.0109 1.00826 1.00826 .0109 383.317 -174.892)"/><path d="M379.7 147.595a4.065 5.1 0 1 1-8.13 0 4.065 5.1 0 1 1 8.13 0z" transform="matrix(-.93964 .36577 .36577 .93964 835.331 -78.1)"/><path d="M379.7 147.595a4.065 5.1 0 1 1-8.13 0 4.065 5.1 0 1 1 8.13 0z" transform="matrix(.01318 1.00823 1.00823 -.01318 390.176 -170.589)"/><path d="M379.7 147.595a4.065 5.1 0 1 1-8.13 0 4.065 5.1 0 1 1 8.13 0z" transform="matrix(-1.00753 -.0398 -.0398 1.00753 920.507 79.19)"/><path d="M374.379 154.246a5.025 5.1 0 1 1-10.05 0 5.025 5.1 0 1 1 10.05 0z" fill="#004614" transform="matrix(-.73171 .69376 .69376 .73171 699.77 -163.48)"/></g><g stroke-width=".5" stroke-linejoin="round"><path d="M379.7 147.595a4.065 5.1 0 1 1-8.13 0 4.065 5.1 0 1 1 8.13 0z" transform="matrix(-.98234 .2274 .2274 .98234 867.339 104.81)"/><path d="M379.7 147.595a4.065 5.1 0 1 1-8.13 0 4.065 5.1 0 1 1 8.13 0z" transform="matrix(-.57722 -.82675 -.82675 .57722 879.977 566.898)"/><path d="M379.7 147.595a4.065 5.1 0 1 1-8.13 0 4.065 5.1 0 1 1 8.13 0z" transform="matrix(-.97663 .2508 .2508 .97663 864.777 112.491)"/><path d="M379.7 147.595a4.065 5.1 0 1 1-8.13 0 4.065 5.1 0 1 1 8.13 0z" transform="matrix(-.19914 -.98846 -.98846 .19914 747.236 686.794)"/><path d="M374.379 154.246a5.025 5.1 0 1 1-10.05 0 5.025 5.1 0 1 1 10.05 0z" fill="#004614" transform="matrix(-.84687 -.54728 -.54728 .84687 930.945 415.016)"/></g></g><g fill="#fff" stroke="none"><path d="M397.472 71.805a26.879 26.879 0 0 0-10.431 2.345 23.276 23.276 0 0 1 28.33 14.257 23.276 23.276 0 0 1-42.896 18.023 26.879 26.879 0 0 0 .494 1.543 26.879 26.879 0 0 0 50.363-18.701 26.879 26.879 0 0 0-25.86-17.467z"/><path d="M380.164 78.764l2.06 7.568 7.17 1.22-6.562 4.297 1.056 7.195-6.116-4.912-6.516 3.228 2.782-7.334-5.083-5.2 7.834.379z"/></g><g fill="#fff" stroke="#004614" stroke-width=".7"><path d="M418.388 202.496c-36.777-24.444-43.39-37.11-52.488-50.816 6.278 26.452 11.76 28.428 48.31 57.001z" stroke-width=".6961849999999999"/><path d="M413.957 225.977c-7.7-5.077-1.892-18.5.428-22.695 5.088-8.826 17.988-10.563 11.938 5.035-.486.559-.943 1.11-1.372 1.656-5.106 6.49-6.306 12.049-6.746 16.226-.565.946-2.906.182-3.642-.045z" stroke-width=".6961849999999999"/><path d="M435.271 215.702l-11.2-9.194c-1.13-2.115-5.59-3.658-7.02 3.176l13.373 9.361z" stroke-width=".6961849999999999"/><path d="M440.286 220.382c6.946-10.932 0-15.008-8.358-8.358-1.588 1.18-10.487 12.232-17.026 14.293 8.824 3.19 17.191-1.395 25.384-5.935z" stroke-width=".6961849999999999"/><path d="M447.474 224.394l-8.191-6.853c-4.872-3.53-6.733 2.154-6.686 3.677l8.692 7.355c9.187 3.954 7.759-1.124 6.185-4.179zM375.264 202.496c36.777-24.444 43.389-37.11 52.487-50.816-6.277 26.452-11.76 28.428-48.309 57.001z" stroke-width=".6961849999999999"/><path d="M379.665 225.977c7.7-5.077 1.892-18.5-.428-22.695-5.088-8.826-17.988-10.563-11.938 5.035 6.271 7.203 7.641 13.354 8.118 17.882.564.946 2.905.182 3.642-.045z" stroke-width=".6961849999999999"/><path d="M358.38 215.702l11.2-9.194c1.13-2.115 5.591-3.658 7.02 3.176l-13.372 9.361z" stroke-width=".6961849999999999"/><path d="M353.366 220.382c-6.946-10.932 0-15.008 8.358-8.358 1.588 1.18 10.487 12.232 17.025 14.293-8.824 3.19-17.19-1.395-25.383-5.935z" stroke-width=".6961849999999999"/><path d="M346.178 224.394l8.19-6.853c4.873-3.53 6.733 2.154 6.687 3.677l-8.692 7.355c-9.187 3.954-7.76-1.124-6.185-4.179z" stroke-width=".6961849999999999"/></g><g stroke="#fff"><path d="M535.426 270.62a138.6 138.527 0 1 1-277.2 0 138.6 138.527 0 1 1 277.2 0z" fill="none" stroke-width="2.095"/><g fill="#004614" stroke-width="1.459"><path d="M755.8 284.013v-44.267h-11.747v8.951h-8.132v-8.95h-12.816v8.95h-8.043v-8.95H701.98v8.95h-7.955v-8.95h-12.993v8.95h-8.043v-8.95h-12.905v8.95h-8.043v-8.95h-11.402l2.21 44.266 1.506 46.008h47.36v-14.827h13.19v14.827h51.533zM754.125 271.14v7.313M739.375 271.015v7.438M724.312 271.297v7.156M709.312 271.265v6.866M642.125 271.14h65.125M694.125 271.297v6.911M679.375 271.234v7.219M664.312 271.078v7.375M649.312 271.234v7.219M701.25 271.14h54.625M746.625 263.698v7.312M731.875 263.573v7.437M716.812 263.635v7.375M701.812 263.713v7.297M686.625 263.698v7.312M671.875 263.573v7.437M656.812 263.635v7.375M693.75 263.698h62.187M642.062 263.698h57.688M754.5 256.256v7.312M739.75 256.33v7.238M724.687 256.193v7.375M709.687 256.27v7.298M641.625 256.256h66M694.5 256.256v7.312M679.75 256.307v7.261M664.687 256.193v7.375M649.687 256.293v7.275M701.625 256.256h54.125M746.75 249.034v7.092M732 249.064v7.062M716.937 249.016v7.11M701.937 248.961v7.165M686.75 249.034v7.092M672 249.126v7M656.937 249.149v6.977M641.937 249.072v7.054M693.875 249h61.875M641.312 249h58.563" transform="matrix(.7689 0 0 .7689 -140.23 114.643)"/><g><path d="M642.125 271.14h65.125M701.25 271.14h54.625M746.625 263.698v7.312M731.875 263.573v7.437M716.812 263.635v7.375M701.812 263.713v7.297M686.625 263.698v7.312M671.875 263.573v7.437M656.812 263.635v7.375M693.75 263.698h62.187M642.062 263.698h57.688M754.5 256.256v7.312M739.75 256.33v7.238M724.687 256.193v7.375M709.687 256.27v7.298M641.625 256.256h66M694.5 256.256v7.312M679.75 256.307v7.261M664.687 256.193v7.375M649.687 256.293v7.275M701.625 256.256h54.125M746.75 249.034v7.092M732 249.064v7.062M716.937 249.016v7.11M701.937 248.961v7.165M686.75 249.034v7.092M672 249.126v7M656.937 249.149v6.977M641.937 249.072v7.054M693.875 249h61.875M641.312 249h58.563" transform="matrix(.7689 0 0 -.7689 -140.23 537.061)"/></g><g><path d="M642.125 271.14h65.125M701.25 271.14h54.625M746.625 263.698v7.312M731.875 263.573v7.437M716.812 263.635v7.375M701.812 263.713v7.297M686.625 263.698v7.312M671.875 263.573v7.437M656.812 263.635v7.375M693.75 263.698h62.187M635.681 263.698h64.069M754.5 256.256v7.312M739.75 256.33v7.238M724.687 256.193v7.375M709.687 256.27v7.298M641.625 256.256h66M694.5 256.256v7.312M679.75 256.307v7.261M664.687 256.193v7.375M649.687 256.293v7.275M701.625 256.256h54.125M746.75 249.034v7.092M732 249.064v7.062M716.937 249.016v7.11M701.937 248.961v7.165M672 249.126v7M656.937 249.149v6.977M641.937 249.072v7.054M697.037 249h58.627M641.312 249l42.13.058" transform="matrix(.7689 0 0 -.7689 -134.144 554.194)"/></g><g><path d="M746.75 249.034v7.092M732 249.064v7.062M716.937 249.016v7.11M686.75 249.034v7.092M672 249.126v7M656.937 249.149v6.977" transform="matrix(.7689 0 0 -.7689 -140.152 559.788)"/></g><g><path d="M865.675 437.274h66.999l-8.429-112.401H911.34v5.187h-6.906v-5.187h-13.25v5.187h-6.906v-5.187h-12.75z" transform="matrix(.7689 0 0 .7689 -356.141 32.187)"/><path d="M856.104 415.918h35.958M879.167 415.855v7.375M864.167 415.668v7.562M825.875 415.918h36.23M848.98 415.918v7.312M834.23 415.793v7.437M886.73 408.35v7.438M871.667 408.413v7.375M856.667 408.226v7.562M826.25 408.476h28.354M841.48 408.476v7.312M826.73 408.35v7.438M848.604 408.476h42.771M878.917 400.97v7.376M863.917 400.783v7.563M826.625 401.033h35.23M848.73 401.033v7.313M833.98 400.908v7.438M855.854 401.033h34.896M886.604 393.341v7.437M871.542 393.403v7.375M856.542 393.216v7.562M827 393.466h27.48M841.354 393.466v7.312M848.48 393.466h41.582M878.792 386.086v7.375M863.792 385.899v7.562M827.375 386.149h34.354M848.604 386.149v7.312M833.854 386.024v7.437M855.73 386.149h34.02M886.354 378.581v7.438M871.292 378.644v7.375M856.292 378.456v7.563M827.938 378.706h26.291M841.104 378.706v7.313M848.23 378.706h41.02M879.354 371.14v7.437M864.292 371.202v7.375M849.292 371.014v7.563M828 371.264h19.23M834.104 371.264v7.313M841.23 371.264h47.145M886.104 363.697v7.437M871.042 363.76v7.374M856.042 363.572v7.562M828.875 363.822h25.104M840.854 363.822v7.312M847.98 363.822h40.145M879.042 356.317v7.375M864.042 356.13v7.562M829.063 356.38h32.916M848.854 356.38v7.312M834.104 356.254v7.438M855.98 356.38h31.645M871.417 348.875v7.375M856.417 348.687v7.563M829.438 348.937h24.916M841.23 348.937v7.313M848.354 348.937h38.771M886.354 348.75v7.437M871.417 348.875v7.375M856.417 348.687v7.563M841.23 348.937v7.313M878.917 341.432v7.375M863.917 341.245v7.562M830 341.495h31.854M848.73 341.495v7.312M833.98 341.37v7.437M855.854 341.495h30.583M871.417 333.99v7.375M856.417 333.803v7.562M830.375 334.053h23.98M841.23 334.053v7.312M848.354 334.053h37.271M856.23 326.61h28.904M879.292 326.548v7.375M864.292 326.36v7.563M830.813 326.61h31.416M849.104 326.61v7.313M834.354 326.485v7.438M871.542 318.553v7.927M856.542 318.609v7.871M841.354 318.66v7.82" transform="matrix(.7689 0 0 .7689 -325.336 41.622)"/><g stroke-width="1.346"><path d="M942.538 317.586h21.441M957.98 317.586h34.149" transform="translate(-471.56 21.94) scale(.83302)"/></g><path d="M825.631 423.668h66.674" transform="matrix(.7689 0 0 .7689 -325.336 41.622)"/></g><g><path d="M865.675 437.274h66.999l-8.429-112.401H911.34v5.187h-6.906v-5.187h-13.25v5.187h-6.906v-5.187h-12.75z" transform="matrix(-.7689 0 0 .7689 1149.793 32.187)"/><path d="M856.104 415.918h35.958M879.167 415.855v7.375M864.167 415.668v7.562M825.875 415.918h36.23M848.98 415.918v7.312M834.23 415.793v7.437M886.73 408.35v7.438M871.667 408.413v7.375M856.667 408.226v7.562M826.25 408.476h28.354M841.48 408.476v7.312M826.73 408.35v7.438M848.604 408.476h42.771M878.917 400.97v7.376M863.917 400.783v7.563M826.625 401.033h35.23M848.73 401.033v7.313M833.98 400.908v7.438M855.854 401.033h34.896M886.604 393.341v7.437M871.542 393.403v7.375M856.542 393.216v7.562M827 393.466h27.48M841.354 393.466v7.312M848.48 393.466h41.582M878.792 386.086v7.375M863.792 385.899v7.562M827.375 386.149h34.354M848.604 386.149v7.312M833.854 386.024v7.437M855.73 386.149h34.02M886.354 378.581v7.438M871.292 378.644v7.375M856.292 378.456v7.563M827.938 378.706h26.291M841.104 378.706v7.313M848.23 378.706h41.02M879.354 371.14v7.437M864.292 371.202v7.375M849.292 371.014v7.563M828 371.264h19.23M834.104 371.264v7.313M841.23 371.264h47.145M886.104 363.697v7.437M871.042 363.76v7.374M856.042 363.572v7.562M828.875 363.822h25.104M840.854 363.822v7.312M847.98 363.822h40.145M879.042 356.317v7.375M864.042 356.13v7.562M829.063 356.38h32.916M848.854 356.38v7.312M834.104 356.254v7.438M855.98 356.38h31.645M871.417 348.875v7.375M856.417 348.687v7.563M829.438 348.937h24.916M841.23 348.937v7.313M848.354 348.937h38.771M886.354 348.75v7.437M871.417 348.875v7.375M856.417 348.687v7.563M841.23 348.937v7.313M878.917 341.432v7.375M863.917 341.245v7.562M830 341.495h31.854M848.73 341.495v7.312M833.98 341.37v7.437M855.854 341.495h30.583M871.417 333.99v7.375M856.417 333.803v7.562M830.375 334.053h23.98M841.23 334.053v7.312M848.354 334.053h37.271M856.23 326.61h28.904M879.292 326.548v7.375M864.292 326.36v7.563M830.813 326.61h31.416M849.104 326.61v7.313M834.354 326.485v7.438M871.542 318.553v7.927M856.542 318.609v7.871M841.354 318.66v7.82" transform="matrix(-.7689 0 0 .7689 1118.988 41.622)"/><g stroke-width="1.346"><path d="M942.538 317.586h21.441M957.98 317.586h34.149" transform="matrix(-.83302 0 0 .83302 1265.212 21.94)"/></g><path d="M825.631 423.668h66.674" transform="matrix(-.7689 0 0 .7689 1118.988 41.622)"/></g></g><path d="M263.356 237.018l26.265 21.44 35.377-36.449L396.29 293.3l73.435-72.363 34.306 38.058 26.265-22.513" fill="none" stroke-width="2.095"/></g><g stroke="#fff"><g fill="#004614"><path d="M562.883-354.406l2.328-6.289-2.414-2.28-2.125 1.374z" transform="matrix(2.80363 0 0 2.80363 -1015.714 1443.97)"/><path d="M551.164-356.124l14-5-5.5-15.75-13.5 4.25z" transform="matrix(2.80363 0 0 2.80363 -1015.714 1443.97)"/><path d="M551.133-356.25l3.875-4.687-1.594-2.062-4.125 1.687z" stroke-linejoin="round" transform="matrix(2.80363 0 0 2.80363 -1015.714 1443.97)"/><g><path d="M473.781 244.969l-2.328-6.29 2.414-2.28 2.125 1.374z" transform="matrix(2.80363 0 0 2.80363 -1100.633 -237.156)"/><path d="M485.5 243.25l-14-5 5.5-15.75 13.5 4.25z" transform="matrix(2.80363 0 0 2.80363 -1100.633 -237.156)"/><path d="M485.531 243.125l-3.875-4.688 1.594-2.062 4.125 1.688z" stroke-linejoin="round" transform="matrix(2.80363 0 0 2.80363 -1100.633 -237.156)"/></g><path d="M249.897 430.083l14.268-43.848c86.973 25.723 175.026 27.418 264.354.735l11.676 43.864c-91.914 34.934-189.14 31.347-290.298-.751z" stroke-width="2.80363645"/></g><g fill="#fff" stroke-linejoin="round"><path d="M300.991 439.087l19.037 4.16c-3.367-.51-5.287-1.867-4.548-5.396l2.922-13.377c6.064.803 9.076 3.921 8.29 10.886l3.983-18.222c-2.131 5.464-5.143 7.934-11.954 5.878l3.542-16.207 7.353 1.607c8.008 2.029 8.447 6.34 8.183 10.863l2.212-10.12-30.914-6.754c2.322 1.152 5.727 1.37 4.372 5.897l-6.035 27.612c-.483 2.859-2.211 4.479-6.444 3.174z" stroke-width=".7319888"/><path d="M414.259 450.372l19.53-1.094c-2.714-.37-6.18.658-5.99-5.12l-1.714-30.595 3.276-.183c3.84-.299 7.552.157 10.044 7.745l-.55-9.796-33.93 1.901.551 9.858c1.09-6.218 4.298-8.73 8.866-8.867l3.523-.197 1.717 30.656c.65 3.56-.734 5.724-5.323 5.692z" stroke-width=".7299997"/><path d="M372.624 438.748l2.201 6.602c1.308 4.48-1.988 3.725-4.446 3.924l17.422 1.594c-1.94-.376-3.127-1.819-4.226-4.474l-11.646-34.737-17.913 31.79c-1.47 2.458-3.33 3.543-5.414 3.835l11.735 1.073c-4.704-.844-5.984-2.802-3.146-7.816l1.675-3.05zm-13.14-2.363l7.837-13.887 4.963 15.058zM473.464 432.706l4.032 5.673c2.558 3.904-.815 4.143-3.108 5.05l17.129-3.558c-1.965.206-3.522-.827-5.348-3.046l-21.272-29.828-7.861 35.632c-.69 2.78-2.151 4.36-4.06 5.248l11.539-2.397c-4.746.565-6.542-.934-5.29-6.558l.713-3.406zm-13.257 1.574l3.444-15.57 9.14 12.956z" stroke-width=".716076"/></g></g></svg>