<svg xmlns="http://www.w3.org/2000/svg" width="793.047" height="528.047" xmlns:cgf="https://coding.garden/flags"><metadata id="cgf-metadata">

<cgf:flag>
  <cgf:name></cgf:name>
  <cgf:route>pk/ta</cgf:route>
  <cgf:aspect-ratio>1.5018939393939394</cgf:aspect-ratio>
</cgf:flag>

</metadata><path style="fill:#004614;fill-opacity:1;stroke:none" d="M119.705-24.737h793.047V503.31H119.705z" transform="translate(-119.705 24.737)"></path><g style="fill:#fff;fill-opacity:1"><path d="M557.206-403.847c2.785-5.417 2.339-11.136-1.182-17.144-1.968 6.037-1.178 11.697 1.182 17.144zm4.882-7.699c4.626-5.755 7.063-12.716 6.13-15.284-1.829-.228-6.605 10.795-6.13 15.284z" style="fill:#fff;fill-opacity:1;stroke:#004614;stroke-width:.5;stroke-linecap:butt;stroke-linejoin:round;stroke-miterlimit:4;stroke-opacity:1;stroke-dasharray:none" transform="matrix(-2.80363 0 0 2.80363 1808.058 1443.97)"></path><path d="M559.717-409.571c5.67-5.191 4.95-15.014 4.057-20.618-2.96 4.174-6.197 12.882-4.057 20.618z" style="fill:#fff;fill-opacity:1;stroke:#004614;stroke-width:.5;stroke-linecap:butt;stroke-linejoin:round;stroke-miterlimit:4;stroke-opacity:1;stroke-dasharray:none" transform="matrix(-2.80363 0 0 2.80363 1808.058 1443.97)"></path><path d="m559.222-396.39-3.81-2.695c1.91-17.564 26.646-33.789 3.81 2.696zm-4.824-55.122c-7.01-6.968-12.103-14.415-15.962-22.17 8.538 4.574 13.729 12.078 15.962 22.17z" style="fill:#fff;fill-opacity:1;stroke:#004614;stroke-width:.5;stroke-linecap:butt;stroke-linejoin:round;stroke-miterlimit:4;stroke-opacity:1;stroke-dasharray:none" transform="matrix(-2.80363 0 0 2.80363 1808.058 1443.97)"></path><path d="M549.45-456.187c-3.001-8.132-12.104-16.8-21.36-18.678 3.226 7.908 13.406 15.499 21.36 18.678z" style="fill:#fff;fill-opacity:1;stroke:#004614;stroke-width:.5;stroke-linecap:butt;stroke-linejoin:round;stroke-miterlimit:4;stroke-opacity:1;stroke-dasharray:none" transform="matrix(-2.80363 0 0 2.80363 1808.058 1443.97)"></path><path d="M554.6-449.333c-.386-4.287-8.052-11.94-14.936-9.936 2.292 5.497 12.849 10.714 14.935 9.936z" style="fill:#fff;fill-opacity:1;stroke:#004614;stroke-width:.5;stroke-linecap:butt;stroke-linejoin:round;stroke-miterlimit:4;stroke-opacity:1;stroke-dasharray:none" transform="matrix(-2.80363 0 0 2.80363 1808.058 1443.97)"></path><path d="M555.329-455.821c.011 3.381-.09 8.81-2.763 10.57-1.037 2.628-1.53 1.88-1.876.222 3.282-3.886 2.937-10.565 3.674-11.26-.478-.555.213-.07.965.468z" style="fill:#fff;fill-opacity:1;stroke:#004614;stroke-width:.5;stroke-linecap:butt;stroke-linejoin:round;stroke-miterlimit:4;stroke-opacity:1;stroke-dasharray:none" transform="matrix(-2.80363 0 0 2.80363 1808.058 1443.97)"></path><path d="M555.285-442.94c-5.51.778-8.092-4.927-10.937-10.05 6.05 1.1 11.039 3.195 10.937 10.05zm-23.992 73.471c.217-3.961 2.542-7.303 5.798-10.372-.827 4.366-1.72 8.68-5.798 10.372z" style="fill:#fff;fill-opacity:1;stroke:#004614;stroke-width:.5;stroke-linecap:butt;stroke-linejoin:round;stroke-miterlimit:4;stroke-opacity:1;stroke-dasharray:none" transform="matrix(-2.80363 0 0 2.80363 1808.058 1443.97)"></path><path d="M559.145-415.546c.766-2.787 1.845-4.643 1.097-8.256.516-.559-1.865-2.913-1.254.784-1.026 4.202-.977 6.646.157 7.472z" style="fill:#fff;fill-opacity:1;stroke:#004614;stroke-width:.5;stroke-linecap:butt;stroke-linejoin:miter;stroke-miterlimit:4;stroke-opacity:1;stroke-dasharray:none" transform="matrix(-2.80363 0 0 2.80363 1808.058 1443.97)"></path><path d="M565.259-430.386c-1.209 3.158-1.419 5.593-4.546 6.27l-1.83-.47c4.463-2.44 4.707-6.202 5.644-6.584zm-7.934-4.18c-4.444-3.348-2.474-14.59-.86-20.223 3.497 5.058 5.781 15.45.86 20.223z" style="fill:#fff;fill-opacity:1;stroke:#004614;stroke-width:.5;stroke-linecap:butt;stroke-linejoin:round;stroke-miterlimit:4;stroke-opacity:1;stroke-dasharray:none" transform="matrix(-2.80363 0 0 2.80363 1808.058 1443.97)"></path><path d="M553.763-441.569c.867 4.341 6.384 6.15 6.688 9.981l-1.829-.47c-.12-1.7-4.21-2.654-6.48-8.675z" style="fill:#fff;fill-opacity:1;stroke:#004614;stroke-width:.5;stroke-linecap:butt;stroke-linejoin:round;stroke-miterlimit:4;stroke-opacity:1;stroke-dasharray:none" transform="matrix(-2.80363 0 0 2.80363 1808.058 1443.97)"></path><path d="M560.458-425.795c6.772-8.316 3.552-15.799 1.182-23.352-3.238 6.362-5.705 13.11-1.182 23.352z" style="fill:#fff;fill-opacity:1;stroke:#004614;stroke-width:.5;stroke-linecap:butt;stroke-linejoin:round;stroke-miterlimit:4;stroke-opacity:1;stroke-dasharray:none" transform="matrix(-2.80363 0 0 2.80363 1808.058 1443.97)"></path><path d="M559.413-423.01c1.792-7.475-2.613-11.309-6.49-15.452-.116 5.115.386 10.24 6.49 15.452zm-5.485 34.123c-2.38-3.32-1.312-17.828.764-22.066 1.618 3.923 5.962 16.519-.764 22.066z" style="fill:#fff;fill-opacity:1;stroke:#004614;stroke-width:.5;stroke-linecap:butt;stroke-linejoin:round;stroke-miterlimit:4;stroke-opacity:1;stroke-dasharray:none" transform="matrix(-2.80363 0 0 2.80363 1808.058 1443.97)"></path><path d="M554.314-390.789c6.437-3.617 11.292-9.168 11.383-11.898-1.611-.893-10.151 7.556-11.383 11.898z" style="fill:#fff;fill-opacity:1;stroke:#004614;stroke-width:.5;stroke-linecap:butt;stroke-linejoin:round;stroke-miterlimit:4;stroke-opacity:1;stroke-dasharray:none" transform="matrix(-2.80363 0 0 2.80363 1808.058 1443.97)"></path><g style="fill:#fff;fill-opacity:1;stroke:#000;stroke-opacity:1"><path d="M379.7 147.595a4.065 5.1 0 1 1-8.13 0 4.065 5.1 0 1 1 8.13 0z" transform="matrix(-.89755 .04647 .04647 .89755 583.497 10.265)" style="fill:#fff;fill-opacity:1;stroke:#004614;stroke-width:.5;stroke-linecap:butt;stroke-linejoin:round;stroke-miterlimit:4;stroke-opacity:1;stroke-dasharray:none"></path><path d="M379.7 147.595a4.065 5.1 0 1 1-8.13 0 4.065 5.1 0 1 1 8.13 0z" transform="scale(-.89875 .89875) rotate(-65.148 73.058 687.457)" style="fill:#fff;fill-opacity:1;stroke:#004614;stroke-width:.5;stroke-linecap:butt;stroke-linejoin:round;stroke-miterlimit:4;stroke-opacity:1;stroke-dasharray:none"></path><path d="M379.7 147.595a4.065 5.1 0 1 1-8.13 0 4.065 5.1 0 1 1 8.13 0z" transform="matrix(-.89618 .06788 .06788 .89618 580.052 16.606)" style="fill:#fff;fill-opacity:1;stroke:#004614;stroke-width:.5;stroke-linecap:butt;stroke-linejoin:round;stroke-miterlimit:4;stroke-opacity:1;stroke-dasharray:none"></path><path d="M379.7 147.595a4.065 5.1 0 1 1-8.13 0 4.065 5.1 0 1 1 8.13 0z" transform="matrix(-.0207 -.8985 -.8985 .0207 387.39 502.3)" style="fill:#fff;fill-opacity:1;stroke:#004614;stroke-width:.5;stroke-linecap:butt;stroke-linejoin:round;stroke-miterlimit:4;stroke-opacity:1;stroke-dasharray:none"></path><path d="M374.379 154.246a5.025 5.1 0 1 1-10.05 0 5.025 5.1 0 1 1 10.05 0z" style="fill:#004614;fill-opacity:1;stroke:#004614;stroke-width:.5;stroke-linecap:butt;stroke-linejoin:round;stroke-miterlimit:4;stroke-opacity:1;stroke-dasharray:none" transform="scale(-.89875 .89875) rotate(-42.942 84.821 998.558)"></path></g><g style="fill:#fff;fill-opacity:1;stroke:#000;stroke-opacity:1"><path d="M379.7 147.595a4.065 5.1 0 1 1-8.13 0 4.065 5.1 0 1 1 8.13 0z" transform="rotate(5.855 -624.52 -1163.98) scale(1.00832)" style="fill:#fff;fill-opacity:1;stroke:#004614;stroke-width:.5;stroke-linecap:butt;stroke-linejoin:round;stroke-miterlimit:4;stroke-opacity:1;stroke-dasharray:none"></path><path d="M379.7 147.595a4.065 5.1 0 1 1-8.13 0 4.065 5.1 0 1 1 8.13 0z" transform="matrix(.46938 -.8924 .8924 .46938 -76.79 517.682)" style="fill:#fff;fill-opacity:1;stroke:#004614;stroke-width:.5;stroke-linecap:butt;stroke-linejoin:round;stroke-miterlimit:4;stroke-opacity:1;stroke-dasharray:none"></path><path d="M379.7 147.595a4.065 5.1 0 1 1-8.13 0 4.065 5.1 0 1 1 8.13 0z" transform="rotate(7.222 -573.648 -906.22) scale(1.00832)" style="fill:#fff;fill-opacity:1;stroke:#004614;stroke-width:.5;stroke-linecap:butt;stroke-linejoin:round;stroke-miterlimit:4;stroke-opacity:1;stroke-dasharray:none"></path><path d="M379.7 147.595a4.065 5.1 0 1 1-8.13 0 4.065 5.1 0 1 1 8.13 0z" transform="matrix(.07406 -1.0056 1.0056 .07406 69.892 620.05)" style="fill:#fff;fill-opacity:1;stroke:#004614;stroke-width:.5;stroke-linecap:butt;stroke-linejoin:round;stroke-miterlimit:4;stroke-opacity:1;stroke-dasharray:none"></path><path d="M374.379 154.246a5.025 5.1 0 1 1-10.05 0 5.025 5.1 0 1 1 10.05 0z" style="fill:#004614;fill-opacity:1;stroke:#004614;stroke-width:.5;stroke-linecap:butt;stroke-linejoin:round;stroke-miterlimit:4;stroke-opacity:1;stroke-dasharray:none" transform="rotate(-40.051 439.019 387.437) scale(1.00832)"></path></g><path d="M544.44-376.588c1.748-4.754 14.498-16.98 19.62-19.508-2.643 5.02-14.008 18.967-19.62 19.508z" style="fill:#fff;fill-opacity:1;stroke:#004614;stroke-width:.63831967000000001;stroke-linecap:butt;stroke-linejoin:round;stroke-miterlimit:4;stroke-opacity:1;stroke-dasharray:none" transform="matrix(-2.80363 0 0 2.80363 1808.058 1443.97)"></path><path d="M535.61-371.843c-1.15-3.759 9.625-16.21 13.769-20.49.197 4.44-10.189 17.907-13.77 20.49z" style="fill:#fff;fill-opacity:1;stroke:#004614;stroke-width:.5;stroke-linecap:butt;stroke-linejoin:round;stroke-miterlimit:4;stroke-opacity:1;stroke-dasharray:none" transform="matrix(-2.80363 0 0 2.80363 1808.058 1443.97)"></path><g style="fill:#fff;fill-opacity:1;stroke:#000;stroke-opacity:1"><path d="M498.68 228.22c-30.891-42.425-3.47-14.785 13.006-.296zm.295-7.095 10.641 11.529" style="fill:#fff;fill-opacity:1;stroke:#004614;stroke-width:.5;stroke-linecap:butt;stroke-linejoin:round;stroke-miterlimit:4;stroke-opacity:1;stroke-dasharray:none" transform="translate(-1117.544 -239.097) scale(2.80363)"></path></g><g style="fill:#fff;fill-opacity:1;stroke:#000;stroke-opacity:1"><path d="M379.7 147.595a4.065 5.1 0 1 1-8.13 0 4.065 5.1 0 1 1 8.13 0z" transform="rotate(-171.776 308.703 242.16) scale(1.00832)" style="fill:#fff;fill-opacity:1;stroke:#004614;stroke-width:.5;stroke-linecap:butt;stroke-linejoin:round;stroke-miterlimit:4;stroke-opacity:1;stroke-dasharray:none"></path><path d="M379.7 147.595a4.065 5.1 0 1 1-8.13 0 4.065 5.1 0 1 1 8.13 0z" transform="rotate(120.112 258.152 191.635) scale(1.00832)" style="fill:#fff;fill-opacity:1;stroke:#004614;stroke-width:.5;stroke-linecap:butt;stroke-linejoin:round;stroke-miterlimit:4;stroke-opacity:1;stroke-dasharray:none"></path><path d="M379.7 147.595a4.065 5.1 0 1 1-8.13 0 4.065 5.1 0 1 1 8.13 0z" transform="matrix(-.99422 -.16802 .16802 -.99422 576.395 518.546)" style="fill:#fff;fill-opacity:1;stroke:#004614;stroke-width:.5;stroke-linecap:butt;stroke-linejoin:round;stroke-miterlimit:4;stroke-opacity:1;stroke-dasharray:none"></path><path d="M379.7 147.595a4.065 5.1 0 1 1-8.13 0 4.065 5.1 0 1 1 8.13 0z" transform="matrix(-.11556 1.00167 -1.00168 -.11556 411.113 -43.878)" style="fill:#fff;fill-opacity:1;stroke:#004614;stroke-width:.5;stroke-linecap:butt;stroke-linejoin:round;stroke-miterlimit:4;stroke-opacity:1;stroke-dasharray:none"></path><path d="M374.379 154.246a5.025 5.1 0 1 1-10.05 0 5.025 5.1 0 1 1 10.05 0z" style="fill:#004614;fill-opacity:1;stroke:#004614;stroke-width:.5;stroke-linecap:butt;stroke-linejoin:round;stroke-miterlimit:4;stroke-opacity:1;stroke-dasharray:none" transform="matrix(-.798 .61636 -.61636 -.798 616.964 211.539)"></path></g><g style="fill:#fff;fill-opacity:1;stroke:#000;stroke-opacity:1"><path d="M379.7 147.595a4.065 5.1 0 1 1-8.13 0 4.065 5.1 0 1 1 8.13 0z" transform="rotate(-86.324 315.49 205.43) scale(.74748)" style="fill:#fff;fill-opacity:1;stroke:#004614;stroke-width:.5;stroke-linecap:butt;stroke-linejoin:round;stroke-miterlimit:4;stroke-opacity:1;stroke-dasharray:none"></path><path d="M379.7 147.595a4.065 5.1 0 1 1-8.13 0 4.065 5.1 0 1 1 8.13 0z" transform="matrix(-.6743 -.32255 .32255 -.6743 429.768 460.643)" style="fill:#fff;fill-opacity:1;stroke:#004614;stroke-width:.5;stroke-linecap:butt;stroke-linejoin:round;stroke-miterlimit:4;stroke-opacity:1;stroke-dasharray:none"></path><path d="M379.7 147.595a4.065 5.1 0 1 1-8.13 0 4.065 5.1 0 1 1 8.13 0z" transform="rotate(-84.956 323.165 199.963) scale(.74747)" style="fill:#fff;fill-opacity:1;stroke:#004614;stroke-width:.5;stroke-linecap:butt;stroke-linejoin:round;stroke-miterlimit:4;stroke-opacity:1;stroke-dasharray:none"></path><path d="M379.7 147.595a4.065 5.1 0 1 1-8.13 0 4.065 5.1 0 1 1 8.13 0z" transform="rotate(-177.968 253.829 170.102) scale(.74747)" style="fill:#fff;fill-opacity:1;stroke:#004614;stroke-width:.5;stroke-linecap:butt;stroke-linejoin:round;stroke-miterlimit:4;stroke-opacity:1;stroke-dasharray:none"></path><path d="M374.379 154.246a5.025 5.1 0 1 1-10.05 0 5.025 5.1 0 1 1 10.05 0z" style="fill:#004614;fill-opacity:1;stroke:#004614;stroke-width:.5;stroke-linecap:butt;stroke-linejoin:round;stroke-miterlimit:4;stroke-opacity:1;stroke-dasharray:none" transform="rotate(-132.23 276.71 186.196) scale(.74747)"></path></g><g style="fill:#fff;fill-opacity:1;stroke:#000;stroke-opacity:1"><path d="M379.7 147.595a4.065 5.1 0 1 1-8.13 0 4.065 5.1 0 1 1 8.13 0z" transform="rotate(89.381 293.262 119.646) scale(1.00832)" style="fill:#fff;fill-opacity:1;stroke:#004614;stroke-width:.5;stroke-linecap:butt;stroke-linejoin:round;stroke-miterlimit:4;stroke-opacity:1;stroke-dasharray:none"></path><path d="M379.7 147.595a4.065 5.1 0 1 1-8.13 0 4.065 5.1 0 1 1 8.13 0z" transform="rotate(21.269 186.825 -151.644) scale(1.00832)" style="fill:#fff;fill-opacity:1;stroke:#004614;stroke-width:.5;stroke-linecap:butt;stroke-linejoin:round;stroke-miterlimit:4;stroke-opacity:1;stroke-dasharray:none"></path><path d="M379.7 147.595a4.065 5.1 0 1 1-8.13 0 4.065 5.1 0 1 1 8.13 0z" transform="rotate(90.749 285.622 113.525) scale(1.00832)" style="fill:#fff;fill-opacity:1;stroke:#004614;stroke-width:.5;stroke-linecap:butt;stroke-linejoin:round;stroke-miterlimit:4;stroke-opacity:1;stroke-dasharray:none"></path><path d="M379.7 147.595a4.065 5.1 0 1 1-8.13 0 4.065 5.1 0 1 1 8.13 0z" transform="matrix(1.00753 -.0398 .0398 1.00753 -127.46 79.19)" style="fill:#fff;fill-opacity:1;stroke:#004614;stroke-width:.5;stroke-linecap:butt;stroke-linejoin:round;stroke-miterlimit:4;stroke-opacity:1;stroke-dasharray:none"></path><path d="M374.379 154.246a5.025 5.1 0 1 1-10.05 0 5.025 5.1 0 1 1 10.05 0z" style="fill:#004614;fill-opacity:1;stroke:#004614;stroke-width:.5;stroke-linecap:butt;stroke-linejoin:round;stroke-miterlimit:4;stroke-opacity:1;stroke-dasharray:none" transform="matrix(.73171 .69376 -.69376 .73171 93.276 -163.48)"></path></g><g style="fill:#fff;fill-opacity:1;stroke:#000;stroke-opacity:1"><path d="M379.7 147.595a4.065 5.1 0 1 1-8.13 0 4.065 5.1 0 1 1 8.13 0z" transform="matrix(.98234 .2274 -.2274 .98234 -74.292 104.81)" style="fill:#fff;fill-opacity:1;stroke:#004614;stroke-width:.5;stroke-linecap:butt;stroke-linejoin:round;stroke-miterlimit:4;stroke-opacity:1;stroke-dasharray:none"></path><path d="M379.7 147.595a4.065 5.1 0 1 1-8.13 0 4.065 5.1 0 1 1 8.13 0z" transform="matrix(.57722 -.82675 .82675 .57722 -86.93 566.898)" style="fill:#fff;fill-opacity:1;stroke:#004614;stroke-width:.5;stroke-linecap:butt;stroke-linejoin:round;stroke-miterlimit:4;stroke-opacity:1;stroke-dasharray:none"></path><path d="M379.7 147.595a4.065 5.1 0 1 1-8.13 0 4.065 5.1 0 1 1 8.13 0z" transform="rotate(14.403 -481.02 -227.605) scale(1.00832)" style="fill:#fff;fill-opacity:1;stroke:#004614;stroke-width:.5;stroke-linecap:butt;stroke-linejoin:round;stroke-miterlimit:4;stroke-opacity:1;stroke-dasharray:none"></path><path d="M379.7 147.595a4.065 5.1 0 1 1-8.13 0 4.065 5.1 0 1 1 8.13 0z" transform="rotate(-78.609 442.384 315.417) scale(1.00832)" style="fill:#fff;fill-opacity:1;stroke:#004614;stroke-width:.5;stroke-linecap:butt;stroke-linejoin:round;stroke-miterlimit:4;stroke-opacity:1;stroke-dasharray:none"></path><path d="M374.379 154.246a5.025 5.1 0 1 1-10.05 0 5.025 5.1 0 1 1 10.05 0z" style="fill:#004614;fill-opacity:1;stroke:#004614;stroke-width:.5;stroke-linecap:butt;stroke-linejoin:round;stroke-miterlimit:4;stroke-opacity:1;stroke-dasharray:none" transform="rotate(-32.872 634.467 441.237) scale(1.00832)"></path></g></g><g style="fill:#fff;fill-opacity:1"><path d="M557.206-403.847c2.785-5.417 2.339-11.136-1.182-17.144-1.968 6.037-1.178 11.697 1.182 17.144zm4.882-7.699c4.626-5.755 7.063-12.716 6.13-15.284-1.829-.228-6.605 10.795-6.13 15.284z" style="fill:#fff;fill-opacity:1;stroke:#004614;stroke-width:.5;stroke-linecap:butt;stroke-linejoin:round;stroke-miterlimit:4;stroke-opacity:1;stroke-dasharray:none" transform="translate(-1015.01 1443.97) scale(2.80363)"></path><path d="M559.717-409.571c5.67-5.191 4.95-15.014 4.057-20.618-2.053 2.894-4.238 7.969-4.672 13.387-.192 2.396-.041 4.86.615 7.23z" style="fill:#fff;fill-opacity:1;stroke:#004614;stroke-width:.5;stroke-linecap:butt;stroke-linejoin:round;stroke-miterlimit:4;stroke-opacity:1;stroke-dasharray:none" transform="translate(-1015.01 1443.97) scale(2.80363)"></path><path d="m559.222-396.39-3.81-2.695c1.91-17.564 26.646-33.789 3.81 2.696zm-4.824-55.122c-7.01-6.968-12.103-14.415-15.962-22.17 8.538 4.574 13.729 12.078 15.962 22.17z" style="fill:#fff;fill-opacity:1;stroke:#004614;stroke-width:.5;stroke-linecap:butt;stroke-linejoin:round;stroke-miterlimit:4;stroke-opacity:1;stroke-dasharray:none" transform="translate(-1015.01 1443.97) scale(2.80363)"></path><path d="M549.45-456.187c-3.001-8.132-12.104-16.8-21.36-18.678 3.226 7.908 13.406 15.499 21.36 18.678z" style="fill:#fff;fill-opacity:1;stroke:#004614;stroke-width:.5;stroke-linecap:butt;stroke-linejoin:round;stroke-miterlimit:4;stroke-opacity:1;stroke-dasharray:none" transform="translate(-1015.01 1443.97) scale(2.80363)"></path><path d="M554.6-449.333c-.386-4.287-8.052-11.94-14.936-9.936 2.292 5.497 12.849 10.714 14.935 9.936z" style="fill:#fff;fill-opacity:1;stroke:#004614;stroke-width:.5;stroke-linecap:butt;stroke-linejoin:round;stroke-miterlimit:4;stroke-opacity:1;stroke-dasharray:none" transform="translate(-1015.01 1443.97) scale(2.80363)"></path><path d="M555.329-455.821c.011 3.381-.09 8.81-2.763 10.57-1.037 2.628-1.53 1.88-1.876.222 3.282-3.886 2.937-10.565 3.674-11.26-.478-.555.213-.07.965.468z" style="fill:#fff;fill-opacity:1;stroke:#004614;stroke-width:.5;stroke-linecap:butt;stroke-linejoin:round;stroke-miterlimit:4;stroke-opacity:1;stroke-dasharray:none" transform="translate(-1015.01 1443.97) scale(2.80363)"></path><path d="M555.285-442.94c-5.51.778-8.092-4.927-10.937-10.05 6.05 1.1 11.039 3.195 10.937 10.05zm-23.992 73.471c.217-3.961 2.542-7.303 5.798-10.372-.827 4.366-1.72 8.68-5.798 10.372z" style="fill:#fff;fill-opacity:1;stroke:#004614;stroke-width:.5;stroke-linecap:butt;stroke-linejoin:round;stroke-miterlimit:4;stroke-opacity:1;stroke-dasharray:none" transform="translate(-1015.01 1443.97) scale(2.80363)"></path><path d="M559.145-415.546c.766-2.787 1.845-4.643 1.097-8.256.516-.559-1.865-2.913-1.254.784-1.026 4.202-.977 6.646.157 7.472z" style="fill:#fff;fill-opacity:1;stroke:#004614;stroke-width:.5;stroke-linecap:butt;stroke-linejoin:miter;stroke-miterlimit:4;stroke-opacity:1;stroke-dasharray:none" transform="translate(-1015.01 1443.97) scale(2.80363)"></path><path d="M557.325-434.566c-4.444-3.348-2.474-14.59-.86-20.223 3.497 5.058 5.781 15.45.86 20.223z" style="fill:#fff;fill-opacity:1;stroke:#004614;stroke-width:.5;stroke-linecap:butt;stroke-linejoin:round;stroke-miterlimit:4;stroke-opacity:1;stroke-dasharray:none" transform="translate(-1015.01 1443.97) scale(2.80363)"></path><path d="M553.763-441.569c.867 4.341 6.384 6.15 6.688 9.981l-1.829-.47c-.12-1.7-4.21-2.654-6.48-8.675z" style="fill:#fff;fill-opacity:1;stroke:#004614;stroke-width:.5;stroke-linecap:butt;stroke-linejoin:round;stroke-miterlimit:4;stroke-opacity:1;stroke-dasharray:none" transform="translate(-1015.01 1443.97) scale(2.80363)"></path><path d="M560.458-425.795c6.772-8.316 3.552-15.799 1.182-23.352-3.238 6.362-5.705 13.11-1.182 23.352z" style="fill:#fff;fill-opacity:1;stroke:#004614;stroke-width:.5;stroke-linecap:butt;stroke-linejoin:round;stroke-miterlimit:4;stroke-opacity:1;stroke-dasharray:none" transform="translate(-1015.01 1443.97) scale(2.80363)"></path><path d="M559.413-423.01c1.792-7.475-2.613-11.309-6.49-15.452-.116 5.115.386 10.24 6.49 15.452zm-5.485 34.123c-2.38-3.32-1.312-17.828.764-22.066 1.618 3.923 5.962 16.519-.764 22.066z" style="fill:#fff;fill-opacity:1;stroke:#004614;stroke-width:.5;stroke-linecap:butt;stroke-linejoin:round;stroke-miterlimit:4;stroke-opacity:1;stroke-dasharray:none" transform="translate(-1015.01 1443.97) scale(2.80363)"></path><path d="M554.314-390.789c6.437-3.617 11.292-9.168 11.383-11.898-1.611-.893-10.151 7.556-11.383 11.898z" style="fill:#fff;fill-opacity:1;stroke:#004614;stroke-width:.5;stroke-linecap:butt;stroke-linejoin:round;stroke-miterlimit:4;stroke-opacity:1;stroke-dasharray:none" transform="translate(-1015.01 1443.97) scale(2.80363)"></path><g style="fill:#fff;fill-opacity:1;stroke:#000;stroke-opacity:1"><path d="M379.7 147.595a4.065 5.1 0 1 1-8.13 0 4.065 5.1 0 1 1 8.13 0z" transform="rotate(2.961 -93.811 4055.21) scale(.89875)" style="fill:#fff;fill-opacity:1;stroke:#004614;stroke-width:.5;stroke-linecap:butt;stroke-linejoin:round;stroke-miterlimit:4;stroke-opacity:1;stroke-dasharray:none"></path><path d="M379.7 147.595a4.065 5.1 0 1 1-8.13 0 4.065 5.1 0 1 1 8.13 0z" transform="rotate(-65.148 462.186 -2.795) scale(.89875)" style="fill:#fff;fill-opacity:1;stroke:#004614;stroke-width:.5;stroke-linecap:butt;stroke-linejoin:round;stroke-miterlimit:4;stroke-opacity:1;stroke-dasharray:none"></path><path d="M379.7 147.595a4.065 5.1 0 1 1-8.13 0 4.065 5.1 0 1 1 8.13 0z" transform="matrix(.89618 .06788 -.06788 .89618 212.995 16.606)" style="fill:#fff;fill-opacity:1;stroke:#004614;stroke-width:.5;stroke-linecap:butt;stroke-linejoin:round;stroke-miterlimit:4;stroke-opacity:1;stroke-dasharray:none"></path><path d="M379.7 147.595a4.065 5.1 0 1 1-8.13 0 4.065 5.1 0 1 1 8.13 0z" transform="rotate(-88.68 459.832 43.591) scale(.89874)" style="fill:#fff;fill-opacity:1;stroke:#004614;stroke-width:.5;stroke-linecap:butt;stroke-linejoin:round;stroke-miterlimit:4;stroke-opacity:1;stroke-dasharray:none"></path><path d="M374.379 154.246a5.025 5.1 0 1 1-10.05 0 5.025 5.1 0 1 1 10.05 0z" style="fill:#004614;fill-opacity:1;stroke:#004614;stroke-width:.5;stroke-linecap:butt;stroke-linejoin:round;stroke-miterlimit:4;stroke-opacity:1;stroke-dasharray:none" transform="rotate(-42.942 472.759 -110.672) scale(.89875)"></path></g><g style="fill:#fff;fill-opacity:1;stroke:#000;stroke-opacity:1"><path d="M379.7 147.595a4.065 5.1 0 1 1-8.13 0 4.065 5.1 0 1 1 8.13 0z" transform="matrix(-1.00306 .10286 .10286 1.00306 915.044 57.636)" style="fill:#fff;fill-opacity:1;stroke:#004614;stroke-width:.5;stroke-linecap:butt;stroke-linejoin:round;stroke-miterlimit:4;stroke-opacity:1;stroke-dasharray:none"></path><path d="M379.7 147.595a4.065 5.1 0 1 1-8.13 0 4.065 5.1 0 1 1 8.13 0z" transform="matrix(-.46938 -.8924 -.8924 .46938 869.837 517.682)" style="fill:#fff;fill-opacity:1;stroke:#004614;stroke-width:.5;stroke-linecap:butt;stroke-linejoin:round;stroke-miterlimit:4;stroke-opacity:1;stroke-dasharray:none"></path><path d="M379.7 147.595a4.065 5.1 0 1 1-8.13 0 4.065 5.1 0 1 1 8.13 0z" transform="matrix(-1.00032 .12678 .12678 1.00032 911.541 64.937)" style="fill:#fff;fill-opacity:1;stroke:#004614;stroke-width:.5;stroke-linecap:butt;stroke-linejoin:round;stroke-miterlimit:4;stroke-opacity:1;stroke-dasharray:none"></path><path d="M379.7 147.595a4.065 5.1 0 1 1-8.13 0 4.065 5.1 0 1 1 8.13 0z" transform="scale(-1.00832 1.00832) rotate(-85.788 -27.65 693.44)" style="fill:#fff;fill-opacity:1;stroke:#004614;stroke-width:.5;stroke-linecap:butt;stroke-linejoin:round;stroke-miterlimit:4;stroke-opacity:1;stroke-dasharray:none"></path><path d="M374.379 154.246a5.025 5.1 0 1 1-10.05 0 5.025 5.1 0 1 1 10.05 0z" style="fill:#004614;fill-opacity:1;stroke:#004614;stroke-width:.5;stroke-linecap:butt;stroke-linejoin:round;stroke-miterlimit:4;stroke-opacity:1;stroke-dasharray:none" transform="scale(-1.00832 1.00832) rotate(-40.051 42.146 1463.2)"></path></g><path d="M544.44-376.588c1.748-4.754 14.498-16.98 19.62-19.508-2.643 5.02-14.008 18.967-19.62 19.508z" style="fill:#fff;fill-opacity:1;stroke:#004614;stroke-width:.63831967000000001;stroke-linecap:butt;stroke-linejoin:round;stroke-miterlimit:4;stroke-opacity:1;stroke-dasharray:none" transform="translate(-1015.01 1443.97) scale(2.80363)"></path><path d="M535.61-371.843c-1.15-3.759 9.625-16.21 13.769-20.49.197 4.44-10.189 17.907-13.77 20.49z" style="fill:#fff;fill-opacity:1;stroke:#004614;stroke-width:.5;stroke-linecap:butt;stroke-linejoin:round;stroke-miterlimit:4;stroke-opacity:1;stroke-dasharray:none" transform="translate(-1015.01 1443.97) scale(2.80363)"></path><g style="fill:#fff;fill-opacity:1;stroke:#000;stroke-opacity:1"><path d="M498.68 228.22c-30.891-42.425-3.47-14.785 13.006-.296zm.295-7.095 10.641 11.529" style="fill:#fff;fill-opacity:1;stroke:#004614;stroke-width:.5;stroke-linecap:butt;stroke-linejoin:round;stroke-miterlimit:4;stroke-opacity:1;stroke-dasharray:none" transform="matrix(-2.80363 0 0 2.80363 1910.59 -239.097)"></path></g><g style="fill:#fff;fill-opacity:1;stroke:#000;stroke-opacity:1"><path d="M379.7 147.595a4.065 5.1 0 1 1-8.13 0 4.065 5.1 0 1 1 8.13 0z" transform="matrix(.99795 -.14423 -.14423 -.99795 213.454 525.985)" style="fill:#fff;fill-opacity:1;stroke:#004614;stroke-width:.5;stroke-linecap:butt;stroke-linejoin:round;stroke-miterlimit:4;stroke-opacity:1;stroke-dasharray:none"></path><path d="M379.7 147.595a4.065 5.1 0 1 1-8.13 0 4.065 5.1 0 1 1 8.13 0z" transform="matrix(.50587 .87224 .87224 -.50587 239.608 64.465)" style="fill:#fff;fill-opacity:1;stroke:#004614;stroke-width:.5;stroke-linecap:butt;stroke-linejoin:round;stroke-miterlimit:4;stroke-opacity:1;stroke-dasharray:none"></path><path d="M379.7 147.595a4.065 5.1 0 1 1-8.13 0 4.065 5.1 0 1 1 8.13 0z" transform="matrix(.99422 -.16802 -.16802 -.99422 216.652 518.546)" style="fill:#fff;fill-opacity:1;stroke:#004614;stroke-width:.5;stroke-linecap:butt;stroke-linejoin:round;stroke-miterlimit:4;stroke-opacity:1;stroke-dasharray:none"></path><path d="M379.7 147.595a4.065 5.1 0 1 1-8.13 0 4.065 5.1 0 1 1 8.13 0z" transform="matrix(.11556 1.00167 1.00168 -.11556 381.934 -43.878)" style="fill:#fff;fill-opacity:1;stroke:#004614;stroke-width:.5;stroke-linecap:butt;stroke-linejoin:round;stroke-miterlimit:4;stroke-opacity:1;stroke-dasharray:none"></path><path d="M374.379 154.246a5.025 5.1 0 1 1-10.05 0 5.025 5.1 0 1 1 10.05 0z" style="fill:#004614;fill-opacity:1;stroke:#004614;stroke-width:.5;stroke-linecap:butt;stroke-linejoin:round;stroke-miterlimit:4;stroke-opacity:1;stroke-dasharray:none" transform="matrix(.798 .61636 .61636 -.798 176.083 211.539)"></path></g><g style="fill:#fff;fill-opacity:1;stroke:#000;stroke-opacity:1"><path d="M379.7 147.595a4.065 5.1 0 1 1-8.13 0 4.065 5.1 0 1 1 8.13 0z" transform="scale(-.74748 .74748) rotate(-86.324 -108.408 840.491)" style="fill:#fff;fill-opacity:1;stroke:#004614;stroke-width:.5;stroke-linecap:butt;stroke-linejoin:round;stroke-miterlimit:4;stroke-opacity:1;stroke-dasharray:none"></path><path d="M379.7 147.595a4.065 5.1 0 1 1-8.13 0 4.065 5.1 0 1 1 8.13 0z" transform="matrix(.6743 -.32255 -.32255 -.6743 363.28 460.646)" style="fill:#fff;fill-opacity:1;stroke:#004614;stroke-width:.5;stroke-linecap:butt;stroke-linejoin:round;stroke-miterlimit:4;stroke-opacity:1;stroke-dasharray:none"></path><path d="M379.7 147.595a4.065 5.1 0 1 1-8.13 0 4.065 5.1 0 1 1 8.13 0z" transform="scale(-.74747 .74747) rotate(-84.956 -98.14 846.89)" style="fill:#fff;fill-opacity:1;stroke:#004614;stroke-width:.5;stroke-linecap:butt;stroke-linejoin:round;stroke-miterlimit:4;stroke-opacity:1;stroke-dasharray:none"></path><path d="M379.7 147.595a4.065 5.1 0 1 1-8.13 0 4.065 5.1 0 1 1 8.13 0z" transform="matrix(.747 -.02651 -.02651 -.747 291.582 349.1)" style="fill:#fff;fill-opacity:1;stroke:#004614;stroke-width:.5;stroke-linecap:butt;stroke-linejoin:round;stroke-miterlimit:4;stroke-opacity:1;stroke-dasharray:none"></path><path d="M374.379 154.246a5.025 5.1 0 1 1-10.05 0 5.025 5.1 0 1 1 10.05 0z" style="fill:#004614;fill-opacity:1;stroke:#004614;stroke-width:.5;stroke-linecap:butt;stroke-linejoin:round;stroke-miterlimit:4;stroke-opacity:1;stroke-dasharray:none" transform="scale(.74747 -.74747) rotate(47.77 1093.009 361.973)"></path></g><g style="fill:#fff;fill-opacity:1;stroke:#000;stroke-opacity:1"><path d="M379.7 147.595a4.065 5.1 0 1 1-8.13 0 4.065 5.1 0 1 1 8.13 0z" transform="matrix(-.0109 1.00826 1.00826 .0109 383.317 -174.892)" style="fill:#fff;fill-opacity:1;stroke:#004614;stroke-width:.5;stroke-linecap:butt;stroke-linejoin:round;stroke-miterlimit:4;stroke-opacity:1;stroke-dasharray:none"></path><path d="M379.7 147.595a4.065 5.1 0 1 1-8.13 0 4.065 5.1 0 1 1 8.13 0z" transform="matrix(-.93964 .36577 .36577 .93964 835.331 -78.1)" style="fill:#fff;fill-opacity:1;stroke:#004614;stroke-width:.5;stroke-linecap:butt;stroke-linejoin:round;stroke-miterlimit:4;stroke-opacity:1;stroke-dasharray:none"></path><path d="M379.7 147.595a4.065 5.1 0 1 1-8.13 0 4.065 5.1 0 1 1 8.13 0z" transform="matrix(.01318 1.00823 1.00823 -.01318 390.176 -170.589)" style="fill:#fff;fill-opacity:1;stroke:#004614;stroke-width:.5;stroke-linecap:butt;stroke-linejoin:round;stroke-miterlimit:4;stroke-opacity:1;stroke-dasharray:none"></path><path d="M379.7 147.595a4.065 5.1 0 1 1-8.13 0 4.065 5.1 0 1 1 8.13 0z" transform="matrix(-1.00753 -.0398 -.0398 1.00753 920.507 79.19)" style="fill:#fff;fill-opacity:1;stroke:#004614;stroke-width:.5;stroke-linecap:butt;stroke-linejoin:round;stroke-miterlimit:4;stroke-opacity:1;stroke-dasharray:none"></path><path d="M374.379 154.246a5.025 5.1 0 1 1-10.05 0 5.025 5.1 0 1 1 10.05 0z" style="fill:#004614;fill-opacity:1;stroke:#004614;stroke-width:.5;stroke-linecap:butt;stroke-linejoin:round;stroke-miterlimit:4;stroke-opacity:1;stroke-dasharray:none" transform="matrix(-.73171 .69376 .69376 .73171 699.77 -163.48)"></path></g><g style="fill:#fff;fill-opacity:1;stroke:#000;stroke-opacity:1"><path d="M379.7 147.595a4.065 5.1 0 1 1-8.13 0 4.065 5.1 0 1 1 8.13 0z" transform="matrix(-.98234 .2274 .2274 .98234 867.339 104.81)" style="fill:#fff;fill-opacity:1;stroke:#004614;stroke-width:.5;stroke-linecap:butt;stroke-linejoin:round;stroke-miterlimit:4;stroke-opacity:1;stroke-dasharray:none"></path><path d="M379.7 147.595a4.065 5.1 0 1 1-8.13 0 4.065 5.1 0 1 1 8.13 0z" transform="matrix(-.57722 -.82675 -.82675 .57722 879.977 566.898)" style="fill:#fff;fill-opacity:1;stroke:#004614;stroke-width:.5;stroke-linecap:butt;stroke-linejoin:round;stroke-miterlimit:4;stroke-opacity:1;stroke-dasharray:none"></path><path d="M379.7 147.595a4.065 5.1 0 1 1-8.13 0 4.065 5.1 0 1 1 8.13 0z" transform="matrix(-.97663 .2508 .2508 .97663 864.777 112.491)" style="fill:#fff;fill-opacity:1;stroke:#004614;stroke-width:.5;stroke-linecap:butt;stroke-linejoin:round;stroke-miterlimit:4;stroke-opacity:1;stroke-dasharray:none"></path><path d="M379.7 147.595a4.065 5.1 0 1 1-8.13 0 4.065 5.1 0 1 1 8.13 0z" transform="scale(-1.00832 1.00832) rotate(-78.609 45.483 793.193)" style="fill:#fff;fill-opacity:1;stroke:#004614;stroke-width:.5;stroke-linecap:butt;stroke-linejoin:round;stroke-miterlimit:4;stroke-opacity:1;stroke-dasharray:none"></path><path d="M374.379 154.246a5.025 5.1 0 1 1-10.05 0 5.025 5.1 0 1 1 10.05 0z" style="fill:#004614;fill-opacity:1;stroke:#004614;stroke-width:.5;stroke-linecap:butt;stroke-linejoin:round;stroke-miterlimit:4;stroke-opacity:1;stroke-dasharray:none" transform="matrix(-.84687 -.54728 -.54728 .84687 930.945 415.016)"></path></g></g><g style="fill:#fff;fill-opacity:1;stroke:#fff;stroke-opacity:1" stroke="none"><path d="M536.637 136.322a13.914 13.914 0 0 0-5.4 1.214 12.05 12.05 0 0 1 14.666 7.38 12.05 12.05 0 0 1-22.206 9.33 13.914 13.914 0 0 0 .256.8 13.914 13.914 0 0 0 26.072-9.682 13.914 13.914 0 0 0-13.388-9.042z" style="fill:#fff;fill-opacity:1;stroke:none" transform="translate(-639.155 -191.53) scale(1.9317)"></path><path d="m527.677 139.924 1.067 3.918 3.711.632-3.397 2.225.547 3.724-3.166-2.543-3.373 1.671 1.44-3.796-2.631-2.692 4.055.196z" style="fill:#fff;fill-opacity:1;stroke:none" transform="translate(-639.155 -191.53) scale(1.9317)"></path></g><g style="fill:#fff;fill-opacity:1"><path d="M206.984 91.079C170.005 66.5 163.358 53.766 154.21 39.984c6.312 26.597 11.824 28.584 48.574 57.313z" style="fill:#fff;fill-opacity:1;stroke:#004614;stroke-width:.70045780999999996;stroke-linecap:butt;stroke-linejoin:miter;stroke-miterlimit:4;stroke-opacity:1;stroke-dasharray:none" transform="translate(212.531 111.914) scale(.99455)"></path><path d="M202.53 114.688c-7.743-5.105-1.903-18.602.43-22.82 5.115-8.874 18.086-10.62 12.003 5.063a43.415 43.415 0 0 0-1.38 1.665c-5.134 6.526-6.34 12.115-6.783 16.315-.567.951-2.921.183-3.662-.045z" style="fill:#fff;fill-opacity:1;stroke:#004614;stroke-width:.70045780999999996;stroke-linecap:butt;stroke-linejoin:miter;stroke-miterlimit:4;stroke-opacity:1;stroke-dasharray:none" transform="translate(212.531 111.914) scale(.99455)"></path><path d="m223.96 104.356-11.261-9.244c-1.136-2.127-5.622-3.678-7.06 3.194l13.447 9.412z" style="fill:#fff;fill-opacity:1;stroke:#004614;stroke-width:.70045780999999996;stroke-linecap:butt;stroke-linejoin:miter;stroke-miterlimit:4;stroke-opacity:1;stroke-dasharray:none" transform="translate(212.531 111.914) scale(.99455)"></path><path d="M229.002 109.063c6.984-10.993 0-15.091-8.403-8.404-1.598 1.185-10.545 12.298-17.12 14.371 8.873 3.207 17.286-1.403 25.523-5.967z" style="fill:#fff;fill-opacity:1;stroke:#004614;stroke-width:.70045780999999996;stroke-linecap:butt;stroke-linejoin:miter;stroke-miterlimit:4;stroke-opacity:1;stroke-dasharray:none" transform="translate(212.531 111.914) scale(.99455)"></path><path d="m236.23 113.096-8.236-6.89c-4.9-3.55-6.77 2.165-6.723 3.697l8.74 7.395c9.237 3.976 7.801-1.13 6.218-4.202zm-72.606-22.017c36.979-24.579 43.627-37.313 52.775-51.095-6.312 26.597-11.824 28.584-48.573 57.313z" style="fill:#fff;fill-opacity:1;stroke:#004614;stroke-width:.70045780999999996;stroke-linecap:butt;stroke-linejoin:miter;stroke-miterlimit:4;stroke-opacity:1;stroke-dasharray:none" transform="translate(212.531 111.914) scale(.99455)"></path><path d="M168.049 114.688c7.743-5.105 1.903-18.602-.43-22.82-5.116-8.874-18.087-10.62-12.004 5.063 6.306 7.242 7.683 13.427 8.163 17.98.567.951 2.921.183 3.662-.045z" style="fill:#fff;fill-opacity:1;stroke:#004614;stroke-width:.70045780999999996;stroke-linecap:butt;stroke-linejoin:miter;stroke-miterlimit:4;stroke-opacity:1;stroke-dasharray:none" transform="translate(212.531 111.914) scale(.99455)"></path><path d="m146.648 104.356 11.261-9.244c1.136-2.127 5.622-3.678 7.06 3.194l-13.447 9.412z" style="fill:#fff;fill-opacity:1;stroke:#004614;stroke-width:.70045780999999996;stroke-linecap:butt;stroke-linejoin:miter;stroke-miterlimit:4;stroke-opacity:1;stroke-dasharray:none" transform="translate(212.531 111.914) scale(.99455)"></path><path d="M141.606 109.063c-6.984-10.993 0-15.091 8.404-8.404 1.597 1.185 10.544 12.298 17.119 14.371-8.873 3.207-17.286-1.403-25.523-5.967z" style="fill:#fff;fill-opacity:1;stroke:#004614;stroke-width:.70045780999999996;stroke-linecap:butt;stroke-linejoin:miter;stroke-miterlimit:4;stroke-opacity:1;stroke-dasharray:none" transform="translate(212.531 111.914) scale(.99455)"></path><path d="m134.379 113.096 8.235-6.89c4.9-3.55 6.77 2.165 6.723 3.697l-8.74 7.395c-9.237 3.976-7.801-1.13-6.218-4.202z" style="fill:#fff;fill-opacity:1;stroke:#004614;stroke-width:.70045780999999996;stroke-linecap:butt;stroke-linejoin:miter;stroke-miterlimit:4;stroke-opacity:1;stroke-dasharray:none" transform="translate(212.531 111.914) scale(.99455)"></path></g><path d="M935.904 250.932a138.6 138.527 0 1 1-277.2 0 138.6 138.527 0 1 1 277.2 0z" style="fill:none;stroke:#fff;stroke-width:2.09452581;stroke-linecap:butt;stroke-linejoin:miter;stroke-miterlimit:4;stroke-opacity:1;stroke-dasharray:none" transform="translate(-400.478 19.687)"></path><g style="fill:#004614;fill-opacity:1;stroke:#fff;stroke-opacity:1"><g style="fill:#004614;fill-opacity:1;stroke:#fff;stroke-width:.40000001000000002;stroke-miterlimit:4;stroke-opacity:1;stroke-dasharray:none"><g style="fill:#004614;fill-opacity:1;stroke:#fff;stroke-width:1.4585041999999999;stroke-miterlimit:4;stroke-opacity:1;stroke-dasharray:none"><path d="M755.8 284.013v-44.267h-11.747v8.951h-8.132v-8.95h-12.816v8.95h-8.043v-8.95H701.98v8.95h-7.955v-8.95h-12.993v8.95h-8.043v-8.95h-12.905v8.95h-8.043v-8.95h-11.402l2.21 44.266 1.506 46.008h47.36v-14.827h13.19v14.827h51.533z" style="fill:#004614;fill-opacity:1;stroke:#fff;stroke-width:1.4585041999999999;stroke-linecap:butt;stroke-linejoin:miter;stroke-miterlimit:4;stroke-opacity:1;stroke-dasharray:none" transform="translate(-140.23 114.643) scale(.7689)"></path><g style="fill:#004614;fill-opacity:1;stroke:#fff;stroke-width:1.4585041999999999;stroke-miterlimit:4;stroke-opacity:1;stroke-dasharray:none"><path d="M754.125 271.14v7.313m-14.75-7.438v7.438m-15.063-7.156v7.156m-15-7.188v6.866m-67.187-6.991h65.125m-13.125.157v6.911m-14.75-6.974v7.219m-15.063-7.375v7.375m-15-7.219v7.219m51.938-7.313h54.625m-9.25-7.442v7.312m-14.75-7.437v7.437m-15.063-7.375v7.375m-15-7.297v7.297m-15.187-7.312v7.312m-14.75-7.437v7.437m-15.063-7.375v7.375m36.938-7.312h62.187m-113.875 0h57.688m54.75-7.442v7.312m-14.75-7.238v7.238m-15.063-7.375v7.375m-15-7.298v7.298m-68.062-7.312h66m-13.125 0v7.312m-14.75-7.261v7.261m-15.063-7.375v7.375m-15-7.275v7.275m51.938-7.312h54.125m-9-7.222v7.092M732 249.064v7.062m-15.063-7.11v7.11m-15-7.165v7.165m-15.187-7.092v7.092m-14.75-7v7m-15.063-6.977v6.977m-15-7.054v7.054M693.875 249h61.875m-114.438 0h58.563" style="fill:#004614;fill-opacity:1;stroke:#fff;stroke-width:1.4585041999999999;stroke-linecap:butt;stroke-linejoin:miter;stroke-miterlimit:4;stroke-opacity:1;stroke-dasharray:none" transform="translate(-140.23 114.643) scale(.7689)"></path></g></g><g style="fill:#004614;fill-opacity:1;stroke:#fff;stroke-width:1.4585041999999999;stroke-miterlimit:4;stroke-opacity:1;stroke-dasharray:none"><path d="M642.125 271.14h65.125m-6 0h54.625m-9.25-7.442v7.312m-14.75-7.437v7.437m-15.063-7.375v7.375m-15-7.297v7.297m-15.187-7.312v7.312m-14.75-7.437v7.437m-15.063-7.375v7.375m36.938-7.312h62.187m-113.875 0h57.688m54.75-7.442v7.312m-14.75-7.238v7.238m-15.063-7.375v7.375m-15-7.298v7.298m-68.062-7.312h66m-13.125 0v7.312m-14.75-7.261v7.261m-15.063-7.375v7.375m-15-7.275v7.275m51.938-7.312h54.125m-9-7.222v7.092M732 249.064v7.062m-15.063-7.11v7.11m-15-7.165v7.165m-15.187-7.092v7.092m-14.75-7v7m-15.063-6.977v6.977m-15-7.054v7.054M693.875 249h61.875m-114.438 0h58.563" style="fill:#004614;fill-opacity:1;stroke:#fff;stroke-width:1.4585041999999999;stroke-linecap:butt;stroke-linejoin:miter;stroke-miterlimit:4;stroke-opacity:1;stroke-dasharray:none" transform="matrix(.7689 0 0 -.7689 -140.23 537.061)"></path></g><g style="fill:#004614;fill-opacity:1;stroke:#fff;stroke-width:1.4585041999999999;stroke-miterlimit:4;stroke-opacity:1;stroke-dasharray:none"><path d="M642.125 271.14h65.125m-6 0h54.625m-9.25-7.442v7.312m-14.75-7.437v7.437m-15.063-7.375v7.375m-15-7.297v7.297m-15.187-7.312v7.312m-14.75-7.437v7.437m-15.063-7.375v7.375m36.938-7.312h62.187m-120.256 0h64.069m54.75-7.442v7.312m-14.75-7.238v7.238m-15.063-7.375v7.375m-15-7.298v7.298m-68.062-7.312h66m-13.125 0v7.312m-14.75-7.261v7.261m-15.063-7.375v7.375m-15-7.275v7.275m51.938-7.312h54.125m-9-7.222v7.092M732 249.064v7.062m-15.063-7.11v7.11m-15-7.165v7.165m-29.937-7v7m-15.063-6.977v6.977m-15-7.054v7.054m55.1-7.126h58.627m-114.352 0 42.13.058" style="fill:#004614;fill-opacity:1;stroke:#fff;stroke-width:1.4585041999999999;stroke-linecap:butt;stroke-linejoin:miter;stroke-miterlimit:4;stroke-opacity:1;stroke-dasharray:none" transform="matrix(.7689 0 0 -.7689 -134.144 554.194)"></path></g><g style="fill:#004614;fill-opacity:1;stroke:#fff;stroke-width:1.4585041999999999;stroke-miterlimit:4;stroke-opacity:1;stroke-dasharray:none"><path d="M746.75 249.034v7.092M732 249.064v7.062m-15.063-7.11v7.11m-30.187-7.092v7.092m-14.75-7v7m-15.063-6.977v6.977" style="fill:#004614;fill-opacity:1;stroke:#fff;stroke-width:1.4585041999999999;stroke-linecap:butt;stroke-linejoin:miter;stroke-miterlimit:4;stroke-opacity:1;stroke-dasharray:none" transform="matrix(.7689 0 0 -.7689 -140.152 559.788)"></path></g></g><g style="fill:#004614;fill-opacity:1;stroke:#fff;stroke-width:1.4585041999999999;stroke-miterlimit:4;stroke-opacity:1;stroke-dasharray:none"><path d="M865.675 437.274h66.999l-8.429-112.401H911.34v5.187h-6.906v-5.187h-13.25v5.187h-6.906v-5.187h-12.75z" style="fill:#004614;fill-opacity:1;stroke:#fff;stroke-width:1.4585041999999999;stroke-linecap:butt;stroke-linejoin:miter;stroke-miterlimit:4;stroke-opacity:1;stroke-dasharray:none" transform="translate(-356.141 32.187) scale(.7689)"></path><g style="fill:#004614;fill-opacity:1;stroke:#fff;stroke-width:1.4585041999999999;stroke-miterlimit:4;stroke-opacity:1;stroke-dasharray:none"><path d="M856.104 415.918h35.958m-12.895-.063v7.375m-15-7.562v7.562m-38.292-7.312h36.23m-13.125 0v7.312m-14.75-7.437v7.437m52.5-14.88v7.438m-15.063-7.375v7.375m-15-7.562v7.562m-30.417-7.312h28.354m-13.124 0v7.312m-14.75-7.438v7.438m21.874-7.312h42.771m-12.458-7.506v7.376m-15-7.563v7.563m-37.292-7.313h35.23m-13.125 0v7.313m-14.75-7.438v7.438m21.874-7.313h34.896m-4.146-7.692v7.437m-15.062-7.375v7.375m-15-7.562v7.562M827 393.466h27.48m-13.126 0v7.312m7.126-7.312h41.582m-11.27-7.38v7.375m-15-7.562v7.562m-36.417-7.312h34.354m-13.125 0v7.312m-14.75-7.437v7.437m21.876-7.312h34.02m-3.396-7.568v7.438m-15.062-7.375v7.375m-15-7.563v7.563m-28.354-7.313h26.291m-13.125 0v7.313m7.126-7.313h41.02m-9.896-7.566v7.437m-15.062-7.375v7.375m-15-7.563v7.563M828 371.264h19.23m-13.126 0v7.313m7.126-7.313h47.145m-2.271-7.567v7.437m-15.062-7.374v7.374m-15-7.562v7.562m-27.167-7.312h25.104m-13.125 0v7.312m7.126-7.312h40.145m-9.083-7.505v7.375m-15-7.562v7.562m-34.979-7.312h32.916m-13.125 0v7.312m-14.75-7.438v7.438m21.876-7.312h31.645m-16.208-7.505v7.375m-15-7.563v7.563m-26.979-7.313h24.916m-13.124 0v7.313m7.124-7.313h38.771m-.771-.187v7.437m-14.937-7.312v7.375m-15-7.563v7.563m-15.187-7.313v7.313m37.687-14.818v7.375m-15-7.562v7.562M830 341.495h31.854m-13.124 0v7.312m-14.75-7.437v7.437m21.874-7.312h30.583m-15.02-7.505v7.375m-15-7.562v7.562m-26.042-7.312h23.98m-13.125 0v7.312m7.124-7.312h37.271m-29.395-7.443h28.904m-5.842-.062v7.375m-15-7.563v7.563m-33.479-7.313h31.416m-13.125 0v7.313m-14.75-7.438v7.438m37.188-15.37v7.927m-15-7.871v7.871m-15.188-7.82v7.82" style="fill:#004614;fill-opacity:1;stroke:#fff;stroke-width:1.4585041999999999;stroke-linecap:butt;stroke-linejoin:miter;stroke-miterlimit:4;stroke-opacity:1;stroke-dasharray:none" transform="translate(-325.336 41.622) scale(.7689)"></path><g style="fill:#004614;fill-opacity:1;stroke:#fff;stroke-width:1.3462466;stroke-miterlimit:4;stroke-opacity:1;stroke-dasharray:none"><path d="M942.538 317.586h21.441m-5.999 0h34.149" style="fill:#004614;fill-opacity:1;stroke:#fff;stroke-width:1.3462466;stroke-linecap:butt;stroke-linejoin:miter;stroke-miterlimit:4;stroke-opacity:1;stroke-dasharray:none" transform="translate(-471.56 21.94) scale(.83302)"></path></g><path d="M825.631 423.668h66.674" style="fill:#004614;fill-opacity:1;stroke:#fff;stroke-width:1.4585041999999999;stroke-linecap:butt;stroke-linejoin:miter;stroke-miterlimit:4;stroke-opacity:1;stroke-dasharray:none" transform="translate(-325.336 41.622) scale(.7689)"></path></g></g><g style="fill:#004614;fill-opacity:1;stroke:#fff;stroke-width:1.4585041999999999;stroke-miterlimit:4;stroke-opacity:1;stroke-dasharray:none"><path d="M865.675 437.274h66.999l-8.429-112.401H911.34v5.187h-6.906v-5.187h-13.25v5.187h-6.906v-5.187h-12.75z" style="fill:#004614;fill-opacity:1;stroke:#fff;stroke-width:1.4585041999999999;stroke-linecap:butt;stroke-linejoin:miter;stroke-miterlimit:4;stroke-opacity:1;stroke-dasharray:none" transform="matrix(-.7689 0 0 .7689 1149.793 32.187)"></path><g style="fill:#004614;fill-opacity:1;stroke:#fff;stroke-width:1.4585041999999999;stroke-miterlimit:4;stroke-opacity:1;stroke-dasharray:none"><path d="M856.104 415.918h35.958m-12.895-.063v7.375m-15-7.562v7.562m-38.292-7.312h36.23m-13.125 0v7.312m-14.75-7.437v7.437m52.5-14.88v7.438m-15.063-7.375v7.375m-15-7.562v7.562m-30.417-7.312h28.354m-13.124 0v7.312m-14.75-7.438v7.438m21.874-7.312h42.771m-12.458-7.506v7.376m-15-7.563v7.563m-37.292-7.313h35.23m-13.125 0v7.313m-14.75-7.438v7.438m21.874-7.313h34.896m-4.146-7.692v7.437m-15.062-7.375v7.375m-15-7.562v7.562M827 393.466h27.48m-13.126 0v7.312m7.126-7.312h41.582m-11.27-7.38v7.375m-15-7.562v7.562m-36.417-7.312h34.354m-13.125 0v7.312m-14.75-7.437v7.437m21.876-7.312h34.02m-3.396-7.568v7.438m-15.062-7.375v7.375m-15-7.563v7.563m-28.354-7.313h26.291m-13.125 0v7.313m7.126-7.313h41.02m-9.896-7.566v7.437m-15.062-7.375v7.375m-15-7.563v7.563M828 371.264h19.23m-13.126 0v7.313m7.126-7.313h47.145m-2.271-7.567v7.437m-15.062-7.374v7.374m-15-7.562v7.562m-27.167-7.312h25.104m-13.125 0v7.312m7.126-7.312h40.145m-9.083-7.505v7.375m-15-7.562v7.562m-34.979-7.312h32.916m-13.125 0v7.312m-14.75-7.438v7.438m21.876-7.312h31.645m-16.208-7.505v7.375m-15-7.563v7.563m-26.979-7.313h24.916m-13.124 0v7.313m7.124-7.313h38.771m-.771-.187v7.437m-14.937-7.312v7.375m-15-7.563v7.563m-15.187-7.313v7.313m37.687-14.818v7.375m-15-7.562v7.562M830 341.495h31.854m-13.124 0v7.312m-14.75-7.437v7.437m21.874-7.312h30.583m-15.02-7.505v7.375m-15-7.562v7.562m-26.042-7.312h23.98m-13.125 0v7.312m7.124-7.312h37.271m-29.395-7.443h28.904m-5.842-.062v7.375m-15-7.563v7.563m-33.479-7.313h31.416m-13.125 0v7.313m-14.75-7.438v7.438m37.188-15.37v7.927m-15-7.871v7.871m-15.188-7.82v7.82" style="fill:#004614;fill-opacity:1;stroke:#fff;stroke-width:1.4585041999999999;stroke-linecap:butt;stroke-linejoin:miter;stroke-miterlimit:4;stroke-opacity:1;stroke-dasharray:none" transform="matrix(-.7689 0 0 .7689 1118.988 41.622)"></path><g style="fill:#004614;fill-opacity:1;stroke:#fff;stroke-width:1.3462466;stroke-miterlimit:4;stroke-opacity:1;stroke-dasharray:none"><path d="M942.538 317.586h21.441m-5.999 0h34.149" style="fill:#004614;fill-opacity:1;stroke:#fff;stroke-width:1.3462466;stroke-linecap:butt;stroke-linejoin:miter;stroke-miterlimit:4;stroke-opacity:1;stroke-dasharray:none" transform="matrix(-.83302 0 0 .83302 1265.212 21.94)"></path></g><path d="M825.631 423.668h66.674" style="fill:#004614;fill-opacity:1;stroke:#fff;stroke-width:1.4585041999999999;stroke-linecap:butt;stroke-linejoin:miter;stroke-miterlimit:4;stroke-opacity:1;stroke-dasharray:none" transform="matrix(-.7689 0 0 .7689 1118.988 41.622)"></path></g></g></g><path d="m663.833 217.33 26.266 21.442 35.377-36.45 71.292 71.291 73.435-72.363 34.306 38.058 26.265-22.513" style="fill:none;stroke:#fff;stroke-width:2.09452581;stroke-linecap:butt;stroke-linejoin:miter;stroke-miterlimit:4;stroke-opacity:1;stroke-dasharray:none" transform="translate(-400.478 19.687)"></path><g style="fill:#060;fill-opacity:1;stroke:#fff;stroke-opacity:1"><g style="fill:#060;fill-opacity:1;stroke:#fff;stroke-opacity:1"><path d="m562.883-354.406 2.328-6.289-2.414-2.28-2.125 1.374z" style="fill:#004614;fill-opacity:1;stroke:#fff;stroke-width:1px;stroke-linecap:butt;stroke-linejoin:miter;stroke-opacity:1" transform="translate(-1015.714 1443.97) scale(2.80363)"></path><path d="m551.164-356.124 14-5-5.5-15.75-13.5 4.25z" style="fill:#004614;fill-opacity:1;stroke:#fff;stroke-width:1px;stroke-linecap:butt;stroke-linejoin:miter;stroke-opacity:1" transform="translate(-1015.714 1443.97) scale(2.80363)"></path><path d="m551.133-356.25 3.875-4.687-1.594-2.062-4.125 1.687z" style="fill:#004614;fill-opacity:1;stroke:#fff;stroke-width:1px;stroke-linecap:butt;stroke-linejoin:round;stroke-opacity:1" transform="translate(-1015.714 1443.97) scale(2.80363)"></path></g><g style="fill:#060;fill-opacity:1;stroke:#fff;stroke-opacity:1"><path d="m473.781 244.969-2.328-6.29 2.414-2.28 2.125 1.374z" style="fill:#004614;fill-opacity:1;stroke:#fff;stroke-width:1px;stroke-linecap:butt;stroke-linejoin:miter;stroke-opacity:1" transform="translate(-1100.633 -237.156) scale(2.80363)"></path><path d="m485.5 243.25-14-5 5.5-15.75 13.5 4.25z" style="fill:#004614;fill-opacity:1;stroke:#fff;stroke-width:1px;stroke-linecap:butt;stroke-linejoin:miter;stroke-opacity:1" transform="translate(-1100.633 -237.156) scale(2.80363)"></path><path d="m485.531 243.125-3.875-4.688 1.594-2.062 4.125 1.688z" style="fill:#004614;fill-opacity:1;stroke:#fff;stroke-width:1px;stroke-linecap:butt;stroke-linejoin:round;stroke-opacity:1" transform="translate(-1100.633 -237.156) scale(2.80363)"></path></g><path d="m38.278 319.911 14.346-44.088c87.45 25.864 175.985 27.569 265.802.74l11.74 44.104c-92.418 35.126-190.176 31.518-291.888-.756z" style="fill:#004614;fill-opacity:1;stroke:#fff;stroke-width:2.81899261px;stroke-linecap:butt;stroke-linejoin:miter;stroke-opacity:1" transform="translate(211.828 111.914) scale(.99455)"></path></g><g style="fill:#fff;fill-opacity:1;stroke:#fff;stroke-opacity:1"><path d="m89.651 328.966 19.142 4.183c-3.385-.514-5.316-1.878-4.574-5.426l2.94-13.451c6.096.807 9.125 3.943 8.335 10.946l4.004-18.322c-2.143 5.494-5.171 7.977-12.02 5.91l3.562-16.296 7.393 1.616c8.052 2.04 8.494 6.375 8.228 10.922l2.224-10.174-31.083-6.792c2.335 1.158 5.758 1.377 4.395 5.93l-6.067 27.763c-.486 2.874-2.224 4.503-6.48 3.191z" style="fill:#fff;fill-opacity:1;stroke:#fff;stroke-width:.736;stroke-linecap:butt;stroke-linejoin:round;stroke-miterlimit:4;stroke-opacity:1;stroke-dasharray:none" transform="translate(211.828 111.914) scale(.99455)"></path><path d="m203.54 340.312 19.638-1.1c-2.73-.371-6.215.662-6.024-5.148l-1.723-30.762 3.293-.185c3.862-.3 7.594.158 10.1 7.788l-.552-9.85-34.118 1.912.555 9.912c1.095-6.252 4.322-8.778 8.914-8.916l3.542-.198 1.727 30.824c.653 3.578-.738 5.756-5.352 5.723z" style="fill:#fff;fill-opacity:1;stroke:#fff;stroke-width:.73369116;stroke-linecap:butt;stroke-linejoin:round;stroke-miterlimit:4;stroke-opacity:1;stroke-dasharray:none" transform="translate(211.828 111.914) scale(.99455)"></path><path d="m161.676 328.624 2.214 6.638c1.315 4.506-2 3.746-4.47 3.946l17.517 1.602c-1.95-.378-3.144-1.828-4.25-4.498l-11.709-34.927-18.012 31.963c-1.478 2.473-3.348 3.564-5.443 3.857l11.8 1.08c-4.73-.85-6.018-2.818-3.164-7.86l1.685-3.066zm-13.21-2.375 7.878-13.963 4.991 15.14zm114.603-3.699 4.054 5.703c2.572 3.926-.82 4.166-3.125 5.078l17.223-3.577c-1.976.207-3.541-.832-5.377-3.063l-21.39-29.992-7.903 35.827c-.693 2.797-2.163 4.385-4.082 5.277l11.602-2.41c-4.772.568-6.578-.94-5.318-6.594l.716-3.424zm-13.33 1.581 3.464-15.654 9.19 13.026z" style="fill:#fff;fill-opacity:1;stroke:#fff;stroke-width:.71996957;stroke-linecap:butt;stroke-linejoin:round;stroke-miterlimit:4;stroke-opacity:1;stroke-dasharray:none" transform="translate(211.828 111.914) scale(.99455)"></path></g></svg>