<svg xmlns="http://www.w3.org/2000/svg" xmlns:xlink="http://www.w3.org/1999/xlink" width="780" height="520"><path fill="#002868" d="M0 0h780v520H0z"/><path fill="#bf0a30" d="M0 0h260v260H0z"/><g fill="#fff"><path d="M0 20h260v20H0zM0 60h260v20H0zM0 100h260v20H0zM0 140h260v20H0zM0 180h260v20H0zM0 220h260v20H0z"/><g transform="translate(520 260)"><path id="a" d="M0 35.355L25-25-35.355 0 25 25 0-35.355-25 25 35.355 0-25-25z"/><use x="194.762" xlink:href="#a"/><use y="194.762" xlink:href="#a"/><use x="-194.762" xlink:href="#a"/><use y="-194.762" xlink:href="#a"/><use x="97.381" y="168.669" xlink:href="#a"/><use y="97.381" x="168.669" xlink:href="#a"/><use x="97.381" y="-168.669" xlink:href="#a"/><use y="97.381" x="-168.669" xlink:href="#a"/><use x="-97.381" y="168.669" xlink:href="#a"/><use y="-97.381" x="168.669" xlink:href="#a"/><use x="-97.381" y="-168.669" xlink:href="#a"/><use y="-97.381" x="-168.669" xlink:href="#a"/></g></g></svg>