<svg xmlns="http://www.w3.org/2000/svg" xmlns:xlink="http://www.w3.org/1999/xlink" width="780" height="520" xmlns:cgf="https://coding.garden/flags"><metadata id="cgf-metadata">

<cgf:flag>
  <cgf:name>Easton</cgf:name>
  <cgf:route>us/pa/easton</cgf:route>
  <cgf:aspect-ratio>1.5</cgf:aspect-ratio>
</cgf:flag>

</metadata><path fill="#002868" d="M0 0h780v520H0z"></path><path fill="#bf0a30" d="M0 0h260v260H0z"></path><g fill="#fff"><path d="M0 20h260v20H0zm0 40h260v20H0zm0 40h260v20H0zm0 40h260v20H0zm0 40h260v20H0zm0 40h260v20H0z"></path><g transform="translate(520 260)"><path id="a" d="M0 35.355 25-25-35.355 0 25 25 0-35.355-25 25 35.355 0-25-25z"></path><use x="194.762" xlink:href="#a"></use><use y="194.762" xlink:href="#a"></use><use x="-194.762" xlink:href="#a"></use><use y="-194.762" xlink:href="#a"></use><use x="97.381" y="168.669" xlink:href="#a"></use><use y="97.381" x="168.669" xlink:href="#a"></use><use x="97.381" y="-168.669" xlink:href="#a"></use><use y="97.381" x="-168.669" xlink:href="#a"></use><use x="-97.381" y="168.669" xlink:href="#a"></use><use y="-97.381" x="168.669" xlink:href="#a"></use><use x="-97.381" y="-168.669" xlink:href="#a"></use><use y="-97.381" x="-168.669" xlink:href="#a"></use></g></g></svg>