<svg xmlns="http://www.w3.org/2000/svg" width="1000" height="600" overflow="visible"><path d="M0 0h1000v600H0V0z" fill="#0036b6" fill-rule="evenodd"/><path d="M697.543 226c0 109.1-88.443 197.543-197.543 197.543-109.1 0-197.543-88.443-197.543-197.543C302.457 116.9 390.9 28.457 500 28.457c109.1 0 197.543 88.443 197.543 197.543z" fill="#fff" stroke="#ffff17" stroke-width="4.914" stroke-linecap="round" stroke-linejoin="round"/><path d="M363.751 181.808c-.444 2.418-1.026 5.774.557 7.902-.683.427-1.544.93-2.312 1.27-2.316-3.591-2.599-7.227-6.04-10.166-2.111-1.803-4.644-2.975-7.598-3.518-1.67-.306-3.527-.526-5.57-.658s-3.748-.324-5.115-.575c-1.216-.223-2.36-.729-3.438-1.517-1.076-.789-1.865-1.715-2.367-2.78a9.671 9.671 0 0 1-.895-3.398c-.062-.897.044-2.233.317-4.007l1.037-.451c-.07 1.997.225 3.553.883 4.67.659 1.117 1.806 1.826 3.443 2.126.896.165 2.203.31 3.924.437 2.964.202 5.365.47 7.205.808 2.48.456 4.553 1.406 6.215 2.85 1.663 1.443 3.86 4.511 6.593 9.202-.372-2.82-.364-5.294.026-7.417.356-1.939.94-3.63 1.755-5.076.813-1.445 2.05-2.99 3.71-4.637l-1.826-2.974 1.015-.566 4.467 7.603c-1.666 1.54-2.97 3.144-3.915 4.81-.944 1.665-1.635 3.686-2.07 6.062zm-5.561-42.76.715-.562c.73 1.38 1.343 2.34 1.838 2.88.495.541 1.26 1.106 2.296 1.695l8.708 4.952c1.445.822 2.406 1.234 2.882 1.234.477.002.796-.139.958-.423.085-.148.134-.324.148-.53-.008-.135-.076-.557-.203-1.267l.91-.147 1.277 6.52c-1.408.573-2.536.85-3.382.833-.847-.018-1.86-.335-3.042-.954l1.383 8.983c-3.24 1.254-5.79 1.353-7.645.297a9.455 9.455 0 0 1-3.069-2.75c-1.05-1.484-2.065-3.59-3.042-6.318l-6.626-.505-.398-.605c.338-.509.58-.893.726-1.15.912-1.604 1.083-3.377.514-5.32a16.957 16.957 0 0 0 3.246-2.455c1.02-.976 1.707-1.777 2.063-2.401.162-.286.235-.532.218-.739-.015-.207-.174-.63-.474-1.268zm.987 7.34-6.113 5.753 6.664.508 4.685-3.284-5.236-2.977zm6.102 3.47-5.139 3.603c1.232 1.707 2.475 2.917 3.73 3.63 2.21 1.257 4.598 1.293 7.166.11l-.721-4.479-5.036-2.864zm5.896-27.033 4.603-.41-.355-3.061.873-.15c.122 1.444.314 2.41.573 2.898.346.65.985 1.331 1.917 2.043l8.619 6.59c.798.61 1.487.936 2.068.98.374.037.634-.04.781-.233.13-.169.202-.743.217-1.724l.89-.022.228 6.304c-1.522.429-2.682.563-3.479.404-.798-.159-1.842-.733-3.135-1.721l-9.89-7.56-2.921.324.13 4.943 10.015 7.656 2.374-.349.111 5.191-5.02 1.23-.285-2.382-9.2-7.033c-1.307-1-2.291-1.542-2.95-1.625-.45-.058-.762.028-.937.256-.184.241-.23.78-.134 1.616l-.89.022-.247-6.281c1.604-.453 2.738-.635 3.4-.547.665.087 1.406.444 2.225 1.07l.654.5-.235-8.93zM387.933 97.8l6.656-2.622 1.328 4.31-5.043 1.961 11.942 9.599 4.578-2.357.134-3.09.983.44-.32 7.35c-1.631.656-2.946 1.28-3.944 1.871-.996.593-2.115 1.405-3.353 2.438l-.446-.359c.053-.678-.039-1.226-.277-1.644-.324-.59-1.003-1.301-2.037-2.131l-10.625-8.54c.537-2.122.678-4.53.424-7.225zm25.891-17.28.86-.169c.018 1.504.122 2.596.309 3.277.186.68.594 1.501 1.223 2.461l5.286 8.07c.877 1.34 1.52 2.114 1.928 2.325.408.21.743.23 1.007.058.137-.09.256-.22.359-.388.052-.12.18-.512.384-1.175l.843.274-1.77 6.148c-1.459-.127-2.547-.385-3.264-.771-.718-.387-1.447-1.105-2.188-2.154l-2.761 8.306c-3.33-.35-5.557-1.385-6.683-3.106a9.108 9.108 0 0 1-1.421-3.704c-.249-1.734-.192-3.985.168-6.752l-5.455-3.344-.076-.693c.513-.288.89-.511 1.13-.668 1.485-.973 2.41-2.417 2.776-4.332a16.334 16.334 0 0 0 3.862-.678c1.302-.388 2.243-.772 2.822-1.15.264-.175.434-.353.512-.538.076-.187.126-.619.15-1.298zm-2.38 6.724-7.767 2.243 5.488 3.365 5.458-.757-3.179-4.851zm3.704 5.654-5.987.83c.306 2.004.84 3.587 1.6 4.75 1.342 2.048 3.373 3.129 6.094 3.242l1.35-4.155-3.057-4.667zm20.47-13.997 6.091.676 3.569 9.218c-1.183.592-2.179 1.32-2.988 2.184-.808.864-1.619 2.114-2.432 3.748-1.332-.224-2.444-.307-3.337-.246a9.091 9.091 0 0 0-2.677.608c-1.375.533-2.435 1.422-3.18 2.668-.276.46-.502.723-.677.792-.161.062-.353.044-.576-.055-.223-.098-.366-.228-.428-.39-.067-.175-.006-.468.187-.88.107-.243.276-.695.505-1.355l1.04-3.241 1.37-4.83-5.773-.725-3.154-8.146c1.326-1.051 2.306-2.03 2.938-2.938.633-.908 1.15-2.02 1.55-3.333 2.17.07 3.887.045 5.148-.072a9.61 9.61 0 0 0 2.465-.575c.822-.319 1.391-.744 1.707-1.277.317-.533.4-.996.247-1.39-.102-.262-.35-.467-.747-.615-.772-.288-1.251-.671-1.437-1.152-.175-.452-.19-.86-.046-1.227.145-.366.37-.609.679-.728.41-.159.85-.116 1.324.128.474.243.828.67 1.065 1.28a4.82 4.82 0 0 1 .314 1.986c-.032.699-.238 1.665-.618 2.9l-2.13 6.987zm-1.313 4.521-2.549 9.108a13.714 13.714 0 0 1 1.611-1.18 9.13 9.13 0 0 1 1.454-.74c1.682-.65 3.644-.773 5.885-.367l-2.453-6.338-3.948-.483zm-4.544-.527 3.603.39 2.344-8.18c-.877.648-1.674 1.11-2.391 1.388-1.801.698-3.782.778-5.942.239l2.386 6.163zm14.949-16.198 4.258-9.9.68-.192 1.576 6.512 4.708-1.333.745 2.633-4.707 1.333 4.447 15.704 3.154 1.214 1.153-1.598.79.546-3.96 5.571c-2.263-1.298-4.595-1.954-6.997-1.966l-.13-.464c.505-.597.796-1.15.871-1.66.103-.652 0-1.522-.309-2.613l-3.79-13.383-2.198.623-.292-1.027zm28.182-6.752 3.972 3.644-3.001 3.517-3.34-3.218-1.972 2.35 1.786 13.172 2.84 1.515 2.103-2.124.605.623-5.19 5.453c-1.391-.937-2.54-1.59-3.446-1.961a11.737 11.737 0 0 0-2.913-.762l-.07-.512c.609-.56.983-1.092 1.124-1.597.141-.506.12-1.433-.062-2.78l-1.257-9.271c-.158-1.166-.392-1.925-.703-2.277-.31-.351-.62-.506-.93-.464-.34.046-.76.44-1.26 1.182l-.65-.617 4.18-4.764c1.418.81 2.41 1.547 2.978 2.21.364.414.6 1.022.709 1.824l4.497-5.143zm22.007-.957.81.3c-.757 1.277-1.231 2.25-1.424 2.921-.193.67-.27 1.571-.234 2.703l.306 9.521c.051 1.58.194 2.564.43 2.95.235.389.508.577.819.567a1.17 1.17 0 0 0 .502-.143c.106-.074.414-.338.928-.793l.57.664-4.654 4.274c-1.164-.858-1.949-1.634-2.355-2.33-.405-.694-.652-1.675-.736-2.94l-6.599 5.582c-2.626-2.006-3.97-4.025-4.036-6.053a8.992 8.992 0 0 1 .707-3.854c.681-1.59 1.886-3.458 3.614-5.605l-2.879-5.624.292-.624c.581.022 1.012.027 1.295.018 1.753-.057 3.276-.798 4.569-2.224 1.104.6 2.305 1.072 3.603 1.415 1.297.342 2.288.502 2.972.48.312-.01.547-.073.707-.19.16-.116.424-.454.793-1.015zm-5.465 4.445-7.7-2.102 2.895 5.657 4.99 2.169-.185-5.724zm.215 6.67-5.473-2.379c-.773 1.846-1.137 3.456-1.093 4.827.078 2.416 1.234 4.371 3.469 5.867l3.274-2.81-.177-5.505zm59.403-15.781c1.424.811 2.422 1.715 2.997 2.713.813 1.408 1.03 2.841.652 4.301-.31 1.195-1.063 2.318-2.26 3.37-1.194 1.052-3.181 2.154-5.96 3.307 1.933.69 3.3 1.391 4.1 2.104.8.712 1.29 1.486 1.466 2.32.178.836.043 2.118-.405 3.848l-1.978 7.629c-5.416-.774-10.376-.107-14.883 2-1.054-1.22-2.11-2.165-3.165-2.833-1.699-1.103-3.61-1.93-5.735-2.481-2.613-.678-4.846-.688-6.702-.032-1.247.435-1.962 1.007-2.146 1.718-.07.267-.021.701.147 1.306.167.603.21 1.06.13 1.372a1.106 1.106 0 0 1-.533.69c-.278.165-.55.214-.815.144-.412-.106-.732-.398-.962-.875-.23-.477-.264-1.026-.103-1.645.149-.577.52-1.178 1.113-1.803 3.12-3.29 7.28-3.418 11.361-4.514 3.244-.871 4.607-3.019 5.457-6.294l1.693-6.534c.788-3.041 1.61-5.116 2.466-6.226.857-1.11 2.116-1.925 3.777-2.448 1.661-.523 5.09-.902 10.288-1.137zm-3.756 11.76c1.315-1.036 2.168-2.307 2.558-3.812.321-1.24.218-2.405-.31-3.494-.528-1.09-1.49-2.185-2.888-3.288-1.792.307-3.03.64-3.717.996a4.093 4.093 0 0 0-1.62 1.481c-.393.631-.801 1.765-1.226 3.4l-2.351 9.072c-.421 1.623-.885 2.805-1.393 3.548-.509.741-1.287 1.398-2.334 1.968-1.05.57-3.056 1.274-6.022 2.11 1.442.154 2.762.386 3.958.696 2.039.528 3.893 1.31 5.565 2.343l.871.629c.566.452 1.086.933 1.559 1.442 1.71-.396 3.46-.6 5.245-.613l.797-3.076 1.537-5.93c.264-1.018.246-1.895-.053-2.633-.298-.739-1.014-1.545-2.146-2.422-1.328.454-2.612.907-3.996 1.119-.175-1.21 2.146-1.482 2.926-1.81 1.074-.452 2.121-1.001 3.04-1.725zm20.402 2.912 2.33 4.854-4.089 2.146-1.9-4.223-2.703 1.446-3.235 12.878 2.071 2.459 2.738-1.188.33.802-6.837 3.128c-.942-1.385-1.764-2.418-2.468-3.098a11.721 11.721 0 0 0-2.418-1.788l.125-.5c.772-.293 1.317-.649 1.636-1.064.318-.417.644-1.283.975-2.601l2.278-9.063c.286-1.14.35-1.93.193-2.372-.158-.442-.387-.7-.69-.777-.332-.083-.868.127-1.607.629l-.374-.813 5.645-2.866c1.014 1.278 1.661 2.33 1.941 3.156.184.519.178 1.17-.02 1.954l6.08-3.099zm10.126 4.163 2.544 4.625-2.348.973-4.614 11.546c-.486 1.218-.701 2.05-.644 2.5.056.45.193.717.41.803a.93.93 0 0 0 .462.065c.216-.025.696-.153 1.438-.384l.262.857-6.023 1.87c-.815-1.261-1.245-2.315-1.286-3.16-.042-.846.295-2.16 1.008-3.945l4.735-11.851-.947-2.29 5.003-1.61zm4.495-6.63 2.703 1.08-4.763 3.42-.845-.337 2.905-4.163zm5.185 14.083 9.58-3.361.567.348-3.51 5.247 3.927 2.414-1.35 2.196-3.927-2.414-8.053 13.1 1.17 2.961 1.844-.219.126.896-6.39.807c-.542-2.397-1.575-4.432-3.098-6.106l.238-.387c.737-.03 1.306-.18 1.707-.453.517-.345 1.055-.972 1.614-1.88l6.863-11.164-1.835-1.128.527-.857zm27.859 19.432.325.822c-1.49.295-2.556.598-3.198.908-.642.31-1.382.866-2.22 1.666l-7.047 6.73c-1.17 1.116-1.821 1.896-1.955 2.34-.135.444-.093.781.127 1.012.114.12.265.214.452.284.128.03.54.086 1.237.167l-.117.887-6.432-.63c-.14-1.472-.084-2.6.169-3.384.252-.784.831-1.64 1.738-2.568l-8.756-1.22c-.262-3.37.357-5.773 1.858-7.207a9.198 9.198 0 0 1 3.42-2.09c1.676-.565 3.922-.921 6.737-1.07l2.321-6.032.674-.202c.38.457.67.789.87.998 1.239 1.298 2.843 1.953 4.812 1.965a16.54 16.54 0 0 0 1.38 3.71c.625 1.223 1.18 2.086 1.662 2.593.22.231.43.367.628.41.198.041.636.012 1.315-.09zm-7.115-1.132-3.652-7.302-2.335 6.066 1.75 5.282 4.237-4.046zm-4.937 4.715-1.922-5.793c-1.934.67-3.41 1.49-4.424 2.46-1.789 1.708-2.49 3.923-2.104 6.647l4.375.579 4.075-3.893zm26.654 9.095-.258 4.64 3.099.089.022.89c-1.455-.086-2.445-.035-2.967.152-.697.25-1.468.788-2.31 1.611l-7.806 7.625c-.723.706-1.147 1.345-1.274 1.916-.092.367-.053.637.118.812.15.153.71.308 1.685.465l-.107.889-6.308-.685c-.206-1.577-.172-2.75.102-3.52.274-.772.997-1.729 2.167-2.872l8.956-8.748.099-2.955-4.938-.586-9.07 8.86.005 2.412-5.183-.64-.496-5.173 2.412.06 8.33-8.138c1.185-1.157 1.866-2.057 2.045-2.701.122-.44.082-.764-.12-.97-.213-.218-.743-.34-1.589-.368l.107-.889 6.287.664c.218 1.661.235 2.816.052 3.464-.183.648-.645 1.333-1.387 2.058l-.591.578 8.919 1.06zm16.708 22.85-1.19 4.492 3.017.714-.158.877c-1.408-.38-2.387-.529-2.937-.45-.734.104-1.596.475-2.589 1.112l-9.183 5.892c-.85.546-1.396 1.086-1.635 1.62-.164.34-.18.613-.048.819.116.18.634.445 1.556.796l-.284.848-6.04-1.944c.116-1.585.387-2.727.81-3.427.424-.7 1.325-1.491 2.702-2.375l10.537-6.762.693-2.874-4.718-1.57-10.67 6.847-.483 2.364-4.947-1.672.557-5.168 2.351.546 9.801-6.29c1.394-.893 2.243-1.638 2.548-2.233.209-.405.235-.73.079-.974-.165-.256-.66-.484-1.482-.68l.284-.849 6.024 1.92c-.122 1.67-.338 2.804-.648 3.403-.31.597-.902 1.176-1.774 1.736l-.697.446 8.524 2.836zm6.674 16.403-1.535 5.05-2.336-1.001-11.488 4.758c-1.21.501-1.957.928-2.239 1.283-.282.355-.378.64-.29.855a.928.928 0 0 0 .276.375c.17.137.595.392 1.28.762l-.43.785-5.545-3.005c.333-1.466.788-2.508 1.364-3.129.577-.62 1.753-1.297 3.529-2.032l11.79-4.883.978-2.276 4.646 2.458zm7.885-1.41 1.114 2.69-5.773-1.023-.35-.841 5.009-.827zm1.498 29.115-.144.872c-1.43-.513-2.499-.802-3.21-.865-.71-.064-1.629.032-2.76.287l-9.503 2.15c-1.578.357-2.538.69-2.881 1.002-.344.312-.48.622-.41.933.035.162.116.32.24.477.095.092.42.35.976.778l-.556.701-5.192-3.846c.635-1.336 1.263-2.275 1.883-2.817.62-.542 1.557-.979 2.812-1.309l-6.883-5.548c1.507-3.025 3.273-4.767 5.298-5.225a9.212 9.212 0 0 1 4.008-.036c1.728.378 3.838 1.226 6.329 2.546l5.092-3.98.682.173c.091.587.17 1.022.233 1.304.396 1.75 1.435 3.136 3.117 4.158a16.484 16.484 0 0 0-.722 3.894c-.094 1.369-.062 2.395.092 3.076.07.312.18.536.328.675.146.138.537.338 1.171.6zm-5.52-4.629.62-8.14-5.12 4.003-1.214 5.43 5.714-1.293zm-6.66 1.507 1.331-5.957c-2.004-.42-3.69-.474-5.06-.164-2.412.545-4.152 2.085-5.221 4.62l3.454 2.744 5.497-1.243zm-264.902-52.404 3.862 1.62-.057-3.856 6.477-1.468-2.203-5.39-3.797-1.593 1.515 3.705-6.738 2.755zm-20.445 174.069-.067.81c-1.346-.369-2.346-.556-3-.562-.653-.006-1.486.149-2.498.468l-8.512 2.68c-1.412.446-2.263.824-2.553 1.135-.29.31-.39.606-.303.884.046.146.13.285.254.42.093.077.406.292.939.643l-.47.667-5.004-3.056c.472-1.283.968-2.199 1.49-2.745.522-.548 1.342-1.019 2.459-1.415l-6.696-4.563c1.15-2.878 2.632-4.603 4.45-5.176a8.412 8.412 0 0 1 3.66-.333c1.611.217 3.605.837 5.983 1.86l4.356-4.034.662.099c.12.531.22.924.3 1.177.493 1.569 1.537 2.76 3.128 3.575a15.129 15.129 0 0 0-.368 3.613c.017 1.259.123 2.194.315 2.806.089.278.205.476.352.59.146.115.52.267 1.123.457zm-11.342-1.937.741-5.55c-1.862-.234-3.406-.157-4.633.229-2.16.68-3.633 2.22-4.417 4.62l3.371 2.255 4.938-1.554zm5.943-1.871-.054-7.499-4.393 4.069-.673 5.042 5.12-1.612zm15.496 18.22-1.421 4.019 2.7.865-.232.799c-1.256-.449-2.138-.66-2.645-.628-.678.04-1.494.315-2.448.822l-8.832 4.69c-.819.435-1.358.887-1.615 1.357-.176.3-.21.548-.105.746.092.174.55.454 1.375.842l-.34.742-5.36-2.235c.232-1.43.569-2.449 1.012-3.054.442-.605 1.327-1.26 2.653-1.965l10.153-5.391.846-2.588-4.174-1.788-10.299 5.47-.635 2.114-4.373-1.869.9-4.67 2.108.658 9.433-5.01c1.341-.712 2.173-1.329 2.496-1.85.222-.356.27-.65.145-.886-.132-.248-.57-.491-1.315-.73l.34-.741 5.327 2.173c-.23 1.522-.509 2.544-.835 3.067-.326.524-.907 1.007-1.744 1.452l-.666.354 7.55 3.235zm10.482 12.535 1.234 6.165-3.902.41-.925-4.63-10.137 8.728 1.295 4.341 2.648.611-.547.77-6.292-1.45c-.295-1.508-.616-2.738-.962-3.69-.344-.95-.872-2.03-1.58-3.238l.387-.333c.572.151 1.056.156 1.453.018.557-.186 1.277-.657 2.154-1.413l9.03-7.775c1.737.79 3.786 1.286 6.144 1.486zm17.396 17.809.311.749c-1.364.291-2.338.584-2.922.878-.584.295-1.252.816-2.005 1.564l-6.33 6.29c-1.05 1.044-1.633 1.77-1.747 2.18-.114.41-.07.718.137.925.108.108.247.194.42.256.117.026.493.073 1.128.14l-.11.808-5.85-.416c-.17-1.358-.15-2.399.063-3.124.213-.725.724-1.52 1.534-2.385l-8.044-.979c-.3-3.085.225-5.297 1.576-6.64a8.408 8.408 0 0 1 3.1-1.978c1.53-.547 3.586-.913 6.169-1.096l2.017-5.584.632-.216c.352.418.62.72.808.909 1.159 1.167 2.632 1.746 4.421 1.738a15.122 15.122 0 0 0 1.331 3.38c.594 1.11 1.117 1.891 1.57 2.347.205.207.4.328.582.363.183.035.585 0 1.209-.11zm-10.966 3.488-1.89-5.271c-1.762.648-3.098 1.425-4.01 2.332-1.607 1.596-2.208 3.64-1.802 6.131l4.03.456 3.672-3.648zm4.42-4.392-3.491-6.637-2.035 5.632 1.718 4.788 3.808-3.783zm16.274 16.82 1.981 5.095-5.844 6.63c-.957-.694-1.946-1.184-2.965-1.468-1.02-.283-2.347-.41-3.981-.379-.368-1.145-.76-2.058-1.173-2.74a8.07 8.07 0 0 0-1.578-1.867c-.985-.868-2.124-1.34-3.416-1.416-.477-.028-.78-.098-.905-.21-.115-.1-.18-.26-.194-.475-.014-.216.029-.382.13-.496.11-.124.369-.192.777-.201a19.26 19.26 0 0 0 1.29-.138l2.993-.534 4.413-.925-1.821-4.87 5.166-5.862c1.377.615 2.556.986 3.537 1.111.98.126 2.074.076 3.28-.151.84 1.748 1.567 3.097 2.18 4.047a8.595 8.595 0 0 0 1.472 1.717c.587.517 1.156.792 1.707.822.55.03.951-.095 1.2-.378.165-.187.224-.47.177-.848-.096-.734.01-1.273.314-1.619.285-.324.603-.504.953-.54.35-.035.635.044.856.239.295.26.443.629.444 1.105 0 .476-.193.935-.581 1.376-.398.451-.88.808-1.448 1.073-.568.264-1.419.502-2.555.713l-6.409 1.189zm-4.107.864-8.254 1.734c.6.246 1.13.508 1.593.783.461.275.855.556 1.18.842 1.2 1.059 2.098 2.557 2.692 4.494l4.024-4.567-1.235-3.286zm-1.42-3.815 1.157 3 7.434-1.535c-.876-.418-1.569-.852-2.082-1.303-1.285-1.133-2.154-2.662-2.607-4.59l-3.903 4.428zm15.979 4.438 8.457-3.806.543.273-2.777 5.058 3.749 1.888-1.059 2.103-3.749-1.888-6.352 12.618 1.32 2.613 1.649-.316.181.778-5.757 1.228c-.68-2.144-1.778-3.92-3.296-5.326l.184-.366c.669-.087 1.176-.27 1.521-.552.445-.355.888-.97 1.329-1.847l5.411-10.748-1.767-.89.413-.82zm22.925 8.253 2.249 8.792-11.328 1.76-1.674 3.397 3.466 3.875 3.923-.577.187.778-8.187 1.29c-.91-1.276-1.694-2.256-2.351-2.94-.66-.683-1.65-1.543-2.976-2.576l.227-.46c.549-.041.987-.212 1.314-.51.326-.3.793-1.065 1.4-2.296l5.31-10.775c1.385.154 2.552.247 3.5.28.693.014 2.34.001 4.94-.039zm-3.922.749-.33.005-4.205 8.533 6.658-1.035-2.123-7.503zm24.144 5.017 2.208 4.423-3.714 2.023-1.837-3.849-2.425 1.315-2.786 11.925 1.937 2.205 2.482-1.173.344.782-6.179 2.97c-.894-1.253-1.671-2.186-2.331-2.8a10.895 10.895 0 0 0-2.264-1.602l.108-.466c.703-.28 1.197-.614 1.482-1 .286-.385.57-1.184.854-2.396l1.948-8.333c.245-1.049.291-1.773.14-2.175-.152-.402-.367-.636-.647-.7-.306-.072-.793.118-1.46.569l-.334-.744 5.099-2.697c.95 1.151 1.559 2.102 1.829 2.851.176.47.18 1.065.013 1.784l5.533-2.912zm40.701-1.476 5.248-3.714c2.803 1.614 4.747 2.918 5.832 3.912 1.083.995 1.808 1.937 2.175 2.83.365.893.584 2.219.652 3.978l.482 12.362-5.775 5.53c-1.621-.584-3.022-1.003-4.202-1.255-1.18-.251-2.348-.4-3.507-.447l.296 7.58-7.228.281-1.018-26.087-.053-1.351c-.05-1.261-.209-2.179-.479-2.755-.269-.576-.75-1.043-1.44-1.403a4.455 4.455 0 0 0-2.265-.491c-.898.035-1.885.402-2.965 1.099l-.497-.595c.875-.862 1.742-1.504 2.601-1.926.86-.421 1.822-.653 2.884-.696 1.18-.045 2.261.161 3.247.619.985.458 1.696 1.049 2.133 1.772.436.725.693 1.716.768 2.976l2.255-1.663.856-.556zm10.314 13.973-.234-6-.04-1.017c-.057-1.11-.26-2.028-.611-2.75-.35-.725-1.068-1.492-2.151-2.304-1.084-.811-2.663-1.687-4.739-2.63l-2.498 1.792.245 6.272.045 1.159.229 5.859.044 1.123.153 3.93a20.302 20.302 0 0 1 4.553.493c1.5.337 3.27.939 5.306 1.806l-.258-6.61-.044-1.123zm13.526-8.616 6.894 4.828-6.916 8.084.881 3.435 4.785.621 2.424-2.76.59.464-4.989 5.776c-1.417-.348-2.565-.563-3.446-.647-.88-.083-2.103-.092-3.67-.03l-.121-.476c.367-.362.578-.746.63-1.154.051-.407-.08-1.224-.396-2.453l-2.759-10.753a43.645 43.645 0 0 0 2.635-1.92c.497-.408 1.65-1.413 3.458-3.014zm-2.31 2.9-.23.198 2.2 8.575 4.078-4.766-6.048-4.006zm23.428-8.075 3.514 1.78 1.106-2.376.696.298c-.55 1.1-.84 1.885-.867 2.355-.037.628.122 1.408.478 2.342l3.3 8.657c.305.802.66 1.349 1.063 1.64.255.195.48.255.675.18.17-.065.484-.447.942-1.148l.655.389-2.707 4.677c-1.288-.378-2.185-.805-2.69-1.282-.506-.476-1.006-1.365-1.502-2.666l-3.794-9.957-2.256-1.084-2.14 3.649 3.856 10.117 1.839.784-2.205 3.828-4.193-1.39.851-1.808-3.531-9.266c-.502-1.317-.974-2.154-1.418-2.512-.302-.244-.569-.323-.8-.235-.243.093-.521.461-.832 1.106l-.655-.389 2.641-4.651c1.374.386 2.284.76 2.728 1.119.443.359.822.95 1.135 1.77l.25.653 3.861-6.58zm19.581-9.314 3.585 1.635 1.008-2.418.707.27c-.505 1.122-.762 1.918-.77 2.388-.013.628.177 1.402.571 2.322l3.647 8.515c.338.79.715 1.321 1.13 1.596.263.185.49.235.681.154.168-.073.466-.467.895-1.186l.671.363-2.516 4.782c-1.304-.326-2.216-.716-2.74-1.172-.525-.455-1.06-1.323-1.608-2.603l-4.195-9.794-2.297-.993-1.991 3.733 4.262 9.954 1.87.708-2.048 3.913-4.246-1.217.778-1.842-3.904-9.115c-.555-1.297-1.061-2.114-1.518-2.453-.312-.232-.58-.3-.808-.203-.24.103-.502.482-.787 1.14l-.67-.363 2.45-4.754c1.39.33 2.315.666 2.772 1.007.457.34.86.915 1.205 1.722l.276.644 3.59-6.733zm19-2.619 5.016-.567 4.57 6.786c-.847.695-1.515 1.467-2.007 2.315-.492.848-.913 2.01-1.264 3.484-1.113.066-2.024.204-2.733.417-.708.213-1.39.54-2.047.98a5.15 5.15 0 0 0-2.077 2.73c-.139.42-.273.674-.402.76-.119.08-.276.101-.473.065-.196-.037-.334-.114-.413-.231-.085-.126-.083-.374.004-.741.047-.216.11-.613.186-1.188l.227-2.816.197-4.183-4.811.495-4.039-6c.873-1.09 1.48-2.058 1.822-2.907.34-.85.55-1.842.629-2.976 1.768-.353 3.152-.696 4.151-1.027a8.117 8.117 0 0 0 1.891-.925c.606-.408.988-.855 1.146-1.344.16-.488.14-.877-.055-1.167-.13-.194-.37-.312-.716-.36-.676-.09-1.133-.312-1.371-.666-.225-.333-.312-.66-.263-.981.05-.322.187-.56.414-.712.302-.202.666-.25 1.092-.139.425.11.79.389 1.093.838.31.461.515.977.615 1.547.101.57.11 1.388.026 2.456l-.41 6.057zm-.217 3.89-.366 7.82c.362-.478.72-.89 1.076-1.238a7.403 7.403 0 0 1 1.03-.857c1.228-.827 2.78-1.279 4.652-1.356l-3.155-4.685-3.237.316zm-3.748.374 2.966-.326.356-7.03c-.59.669-1.148 1.18-1.671 1.533-1.315.886-2.89 1.307-4.723 1.26l3.072 4.563zm10.151-14.156 1.427-5.119c1.343-.015 2.308.113 2.895.383.587.27 1.155.804 1.705 1.602l.242.35 2.165-7.162c2.863.588 4.977 1.872 6.342 3.852.734 1.065 1.194 2.314 1.38 3.75.187 1.434.027 3.03-.477 4.787-.504 1.756-1.519 4.302-3.044 7.637-.658 1.465-1.037 2.366-1.135 2.7-.222.706-.313 1.306-.27 1.799.026.36.15.7.373 1.022.376.546.994.866 1.854.96.86.095 1.734-.163 2.62-.774.64-.442 1.092-.918 1.355-1.429.13-.246.172-.607.126-1.085-.047-.479-.037-.818.03-1.02a.959.959 0 0 1 .386-.502c.213-.147.424-.207.633-.179a.715.715 0 0 1 .509.329c.233.338.212.844-.063 1.518-.404 1.058-1.192 1.992-2.366 2.8-1.226.845-2.37 1.205-3.432 1.079-1.062-.125-1.869-.589-2.42-1.388-.544-.79-.705-1.812-.482-3.066.102-.605.144-1.012.127-1.22-.044-.567-.143-1.053-.297-1.46-.153-.405-.446-.922-.88-1.551l-5.27-7.649c-.736-1.067-1.356-1.709-1.863-1.925-.396-.168-.703-.176-.925-.024-.179.123-.32.415-.422.875a5.85 5.85 0 0 1-.08.323l-.743-.212zm6.798-2.015 6.239 9.055c.744-2.12 1.026-3.984.847-5.594-.179-1.61-.634-2.947-1.367-4.01-.99-1.435-2.536-2.44-4.642-3.011l-1.077 3.56zm8.107-22.935.315.376c-.446 1.068-.583 2.033-.411 2.896.172.862.761 1.895 1.77 3.097l11.106 13.249 2.755-.157.194-1.08.829.222-1.079 4.754c-1.563-.023-2.676.024-3.34.141-.664.118-1.451.382-2.362.79l-.249-.295c.138-.404.177-.8.116-1.19a3.394 3.394 0 0 0-.44-1.18c-.08-.138-.565-.747-1.455-1.83l-8.928-10.65c-.76-.904-1.322-1.503-1.687-1.798a3.752 3.752 0 0 0-1.27-.662c-.48-.148-1.138-.211-1.97-.191l-.032-.476c1.12-.505 2.368-.665 3.743-.481.098-1.41.328-2.51.696-3.305.367-.794.933-1.538 1.7-2.23zm15.808 2.908 7.002 6.234 5.166-2.264-8.124-7.232c-.706-.628-1.309-1.007-1.81-1.135-.5-.129-1.185-.064-2.054.19l-.775.02c.159-2.947.34-6.604.238-6.636.43.133.936-.034 1.374-.055.108.57.415 1.24.81 1.667.45.485 1.347.705 1.954.927.793.291 1.5.81 2.126 1.367l8.716 7.76a13.867 13.867 0 0 0-1.2 3.08c-.266 1.046-.44 2.37-.517 3.97-1.769.319-3.219.773-4.35 1.363-1.13.592-2.205 1.424-3.223 2.497l-.367-.327c.106-.566.069-1.045-.11-1.439-.178-.393-.679-.956-1.5-1.687-1.069-.952-2.128-1.914-3.191-2.872-.849-.764-1.686-1.682-2.661-2.29-.66-.411-1.266-.423-1.931-.007-.48.3-.863.745-1.009 1.3-.104.394.106.854-.396.94-.224.037-.488-.135-.73-.087.101-1.195.21-2.396.357-3.596.098-.804.225-1.6.31-2.406.029-.27.134-.535.016-.782.424-.203.71-.502 1.241-.553 1.51-.144 2.721.417 3.853 1.351l.785.702zm8.426-24.328.551-.518c.691 1.093 1.26 1.845 1.702 2.26.444.412 1.11.826 2.003 1.24l7.499 3.48c1.244.578 2.063.85 2.455.818.393-.031.647-.172.76-.417.06-.13.089-.278.087-.447-.016-.112-.099-.457-.25-1.034l.74-.178 1.512 5.25c-1.128.582-2.044.897-2.745.945-.701.048-1.56-.142-2.578-.57l1.746 7.332c-2.578 1.242-4.666 1.493-6.265.75a7.805 7.805 0 0 1-2.713-2.055c-.965-1.151-1.944-2.816-2.933-4.997l-5.48.044-.418-.493c.255-.439.434-.77.538-.992.643-1.385.668-2.857.076-4.416.907-.62 1.75-1.367 2.528-2.24.78-.871 1.295-1.578 1.546-2.119.114-.245.157-.454.129-.625-.029-.169-.192-.509-.49-1.018zm1.314 5.99-4.644 5.175 5.529-.044 3.613-3.043-4.498-2.087zm5.232 2.429-3.97 3.345c1.126 1.32 2.227 2.233 3.306 2.733 1.9.882 3.863.754 5.887-.384l-.917-3.695-4.306-2zm1.18-24.47 3.823-.955-.719-2.52.722-.229c.304 1.191.6 1.973.885 2.347.381.499 1.014.986 1.895 1.46l8.16 4.386c.755.406 1.382.588 1.877.543.32-.02.53-.12.629-.304.086-.16.072-.655-.04-1.484l.75-.135 1.014 5.308c-1.22.557-2.178.821-2.872.79-.694-.028-1.654-.372-2.881-1.032l-9.385-5.045-2.415.655.77 4.16 9.535 5.128 1.904-.611.838 4.336-4.08 1.695-.54-1.926-8.733-4.695c-1.242-.667-2.148-.992-2.716-.973-.388.013-.642.13-.759.346-.123.23-.091.69.096 1.382l-.75.135-1.048-5.247c1.292-.607 2.225-.92 2.796-.939.57-.019 1.243.18 2.016.596l.617.331-1.389-7.503zm5.466-12.907 3.892-2.237.856 1.97 9.89 3.7c1.04.39 1.753.556 2.134.498.38-.056.606-.179.676-.366a.767.767 0 0 0 .043-.396c-.027-.184-.152-.593-.374-1.226l.726-.235 1.719 5.123c-1.054.71-1.94 1.088-2.655 1.137-.717.05-1.84-.213-3.369-.785l-10.156-3.8-1.902.826-1.48-4.21zm-5.68-3.756.86-2.302 3 4.008-.283.757-3.578-2.463zm11.606-19.181.46-.602c.859.967 1.54 1.618 2.045 1.953.505.335 1.23.635 2.178.898l7.966 2.216c1.32.368 2.173.503 2.555.408.384-.095.611-.274.684-.535.037-.137.041-.288.012-.456a15.598 15.598 0 0 0-.415-.978l.702-.297 2.344 4.934c-1.018.758-1.87 1.219-2.555 1.38-.684.162-1.563.113-2.636-.145l2.914 6.95c-2.341 1.645-4.36 2.232-6.06 1.76a7.796 7.796 0 0 1-3.01-1.588c-1.14-.978-2.375-2.462-3.705-4.452l-5.402.933-.493-.418c.18-.474.304-.83.37-1.067.41-1.47.195-2.927-.643-4.37a14.013 14.013 0 0 0 2.132-2.62c.627-.987 1.02-1.768 1.18-2.342.073-.262.082-.474.026-.638-.057-.162-.273-.47-.648-.925zm2.27 5.697-3.742 5.86 5.45-.941 3.07-3.59-4.779-1.33zm5.556 1.545-3.373 3.946c1.325 1.121 2.56 1.842 3.707 2.16 2.018.562 3.933.116 5.746-1.336l-1.504-3.498-4.576-1.272zm-328.724 9.63c-.76-2.337-1.845-5.566-4.252-6.683.399-.701.916-1.553 1.43-2.218 3.746 2.056 5.725 5.12 10.15 6.065 2.716.58 5.501.406 8.357-.522 1.615-.526 3.352-1.217 5.212-2.073 1.86-.856 3.45-1.499 4.773-1.93 1.174-.382 2.422-.483 3.744-.302 1.322.182 2.457.62 3.406 1.318a9.662 9.662 0 0 1 2.404 2.561c.481.76 1.024 1.985 1.629 3.675l-.698.891c-.889-1.789-1.889-3.018-3-3.686-1.11-.67-2.457-.746-4.04-.231-.865.282-2.084.776-3.658 1.483-2.702 1.235-4.942 2.14-6.72 2.72-2.4.78-4.674.93-6.823.452-2.15-.478-5.542-2.13-10.178-4.954 1.67 2.303 2.84 4.483 3.508 6.536.61 1.873.9 3.64.872 5.298-.027 1.658-.38 3.607-1.056 5.845l3.022 1.746-.622.98-7.548-4.559c.73-2.149 1.115-4.18 1.153-6.094.037-1.914-.317-4.02-1.065-6.318z" fill="red"/><path d="M684.336 225.709c0 101.645-82.4 184.045-184.045 184.045-101.645 0-184.045-82.4-184.045-184.045 0-101.645 82.4-184.045 184.045-184.045 101.645 0 184.045 82.4 184.045 184.045z" fill="none" stroke="#ffff17" stroke-width="4.368" stroke-linecap="round" stroke-linejoin="round"/><path d="M634.86 225.89c0 74.42-60.33 134.75-134.75 134.75s-134.75-60.33-134.75-134.75S425.69 91.14 500.11 91.14s134.75 60.33 134.75 134.75z" fill="none" stroke="#ffff17" stroke-width="4.368" stroke-linecap="round" stroke-linejoin="round"/><path d="m637.433 241.159.257-.59h.666c.583 0 .945-.09 1.084-.27.14-.182.327-.808.561-1.88l.942-4.746c.133-.685.2-1.148.2-1.389 0-.292-.28-.46-.837-.504l-.866-.067-.01-.59 4.12-.523-.723 3.044-.933 4.7c-.19.995-.285 1.537-.285 1.626 0 .4.273.6.818.6h.847l.028.589zm8.857.59h.589l-.01.39c0 .99.679 1.484 2.036 1.484 1.198 0 2.313-.647 3.344-1.94 1.03-1.294 1.64-2.82 1.83-4.576-1.268 1.687-2.672 2.53-4.213 2.53-.9 0-1.65-.303-2.245-.908-.596-.606-.894-1.365-.894-2.279 0-1.534.548-2.893 1.645-4.076 1.097-1.182 2.356-1.774 3.777-1.774 1.23 0 2.208.425 2.934 1.275.726.85 1.09 2 1.09 3.453 0 2.34-.798 4.406-2.393 6.197-1.595 1.792-3.436 2.687-5.522 2.687-.64 0-1.477-.152-2.511-.456zm5.335-10.445c-.862 0-1.6.425-2.211 1.275-.612.85-.918 1.87-.918 3.063 0 1.96.751 2.94 2.254 2.94.977 0 1.812-.39 2.507-1.166.694-.777 1.041-1.708 1.041-2.792 0-.964-.25-1.758-.751-2.383-.501-.624-1.142-.937-1.922-.937zm11.444 10.093c-1.281 0-2.294-.37-3.04-1.108-.745-.74-1.117-1.743-1.117-3.011 0-1.858.594-3.436 1.783-4.732 1.19-1.297 2.634-1.946 4.333-1.946 1.32 0 2.355.36 3.106 1.08.752.72 1.127 1.71 1.127 2.973 0 1.896-.596 3.494-1.788 4.794-1.192 1.3-2.66 1.95-4.404 1.95zm.123-.59c1.091 0 1.947-.4 2.569-1.198.425-.54.797-1.369 1.117-2.488.32-1.12.48-2.145.48-3.077 0-1.909-.808-2.863-2.425-2.863-1.205 0-2.19.643-2.958 1.93-.767 1.288-1.151 2.937-1.151 4.947 0 1.833.79 2.75 2.368 2.75zm7.591 3.405c.254-1.395 1.03-2.847 2.33-4.356l5.87-6.23 1.027-1.152h-7.828l.665-1.645h8.951l-.428 1.065c-5.212 5.555-7.996 9.582-8.351 12.08zm-349.185-3.053.257-.59h.666c.584 0 .945-.09 1.085-.27.14-.182.326-.808.56-1.88l.943-4.746c.133-.685.2-1.148.2-1.389 0-.292-.28-.46-.838-.504l-.865-.067-.01-.59 4.119-.523-.723 3.044-.932 4.7c-.19.995-.286 1.537-.286 1.626 0 .4.273.6.818.6h.847l.029.589zm8.314 3.053c.254-1.395 1.03-2.847 2.33-4.356l5.87-6.23 1.027-1.152h-7.828l.665-1.645h8.951l-.428 1.065c-5.212 5.555-7.996 9.582-8.351 12.08zm9.893-.751 1.246-1.265c.964.875 1.947 1.313 2.949 1.313a2.97 2.97 0 0 0 2.14-.866c.596-.577.894-1.265.894-2.064 0-.875-.361-1.587-1.084-2.136-.723-.548-1.661-.823-2.816-.823-.203 0-.466.02-.79.058l.667-1.465c.577 0 1.132.022 1.664.066.9-.222 1.65-.63 2.245-1.222.596-.593.894-1.22.894-1.879 0-.583-.2-1.062-.599-1.436-.4-.374-.913-.561-1.54-.561-1.447 0-2.354.704-2.721 2.111h-.59l.314-2.13c1.37-.375 2.55-.562 3.538-.562 1.04 0 1.876.199 2.507.595.63.396.946.921.946 1.574 0 1.402-1.293 2.635-3.88 3.7 1.965.61 2.948 1.722 2.948 3.34 0 1.172-.544 2.2-1.631 3.081-1.088.882-2.36 1.322-3.82 1.322a8.412 8.412 0 0 1-3.481-.751zm16.561-2.064c-1.281 0-2.294-.37-3.04-1.108-.744-.74-1.117-1.743-1.117-3.011 0-1.858.595-3.436 1.784-4.732 1.189-1.297 2.633-1.946 4.333-1.946 1.319 0 2.354.36 3.105 1.08.752.72 1.127 1.71 1.127 2.973 0 1.896-.596 3.494-1.788 4.794-1.192 1.3-2.66 1.95-4.404 1.95zm.124-.59c1.09 0 1.946-.4 2.568-1.198.425-.54.797-1.369 1.118-2.488.32-1.12.48-2.145.48-3.077 0-1.909-.809-2.863-2.426-2.863-1.205 0-2.19.643-2.958 1.93-.767 1.288-1.15 2.937-1.15 4.947 0 1.833.789 2.75 2.368 2.75z" style="text-align:start;line-height:125%;-inkscape-font-specification:Lucida Calligraphy" font-size="35.683" font-weight="400" fill="red" font-family="Lucida Calligraphy"/><path d="m468.117 396.12 2.97-2.15 2.195 2.927c-.11 2.01-.734 3.56-1.874 4.65-1.14 1.09-2.704 1.634-4.695 1.634l.836-.925c1.553-.15 2.483-1.19 2.792-3.12zm31.306-316.753 2.97-2.15 2.195 2.927c-.11 2.01-.734 3.56-1.874 4.65-1.14 1.09-2.704 1.634-4.695 1.635l.836-.926c1.553-.15 2.483-1.19 2.792-3.12z" font-size="56" font-weight="400" fill="red" font-family="Lucida Calligraphy"/><path d="M501.497 321.426c.267.061.975 1.316 1.564 2.252 2.162 3.563 4.174 7.103 6.491 10.574 2.625 3.77 6.345 5.637 10.62 6.898 6.957 1.892 14.96 1.323 26.716-8.071 11.756-9.395 25.942-19.267 38.51-27.545 12.567-8.277 15.587-15.714 15.938-22.914.122-4.456-.495-8.586-3.27-12.247-2.584-3.277-5.334-6.275-8.055-9.432-1.296-1.507-2.504-2.848-1.978-4.012.571-.908 2.12-1.24 3.793-1.635 4.057-.955 8.042-1.762 12.06-2.893 4.395-1.332 7.317-4.3 9.838-7.977 3.949-6.032 5.88-13.821.578-27.905-5.302-14.083-10.964-30.411-14.953-44.921-3.988-14.51-10.137-19.668-16.877-22.227-4.2-1.493-8.314-2.179-12.654-.672-3.915 1.446-7.605 3.127-11.449 4.74-1.85.773-3.516 1.525-4.41.672-.635-1.203-.387-2.648-.282-3.958.345-4.153.804-8.201.97-12.372.091-4.592-1.818-8.292-4.537-11.825-4.233-5.268-10.498-9.326-23.65-9.244-.876.006-1.781.035-2.72.078-15.034.691-32.299 1.035-47.331.345-15.033-.691-21.856 3.546-26.372 9.165-2.718 3.534-4.628 7.233-4.536 11.825.166 4.17.625 8.219.97 12.372.153 1.856.33 3.552-.516 4.255-.937.513-2.47-.16-4.145-.86-3.844-1.612-7.534-3.31-11.45-4.755-4.339-1.507-8.453-.821-12.653.672-6.74 2.558-12.889 7.732-16.877 22.242-3.989 14.51-8.994 31.042-14.297 45.125-5.302 14.084-3.37 21.873.58 27.905 2.52 3.677 5.442 6.645 9.838 7.977 4.017 1.131 8.018 1.938 12.075 2.893 1.446.342 2.793.642 3.488 1.267 1.167 1.19-.193 2.705-1.674 4.427-2.72 3.157-5.47 6.155-8.055 9.431-2.774 3.662-3.407 7.776-3.285 12.232.35 7.2 3.371 14.637 15.939 22.914 12.567 8.278 26.753 18.15 38.509 27.545 11.755 9.394 19.758 9.963 26.715 8.07 4.276-1.26 7.996-3.112 10.62-6.881 2.318-3.472 4.33-7.026 6.492-10.59 1.19-1.957 2.208-3.735 3.722-2.94z" fill="#ffff17"/><path d="M500.069 315.896c1.028.067 1.434.985 2.34 2.493 2.025 3.379 3.893 6.75 6.063 10.041 2.459 3.574 6.013 6.867 9.953 6.539 14.818-1.235 20.932-21.581 32.94-30.457 13.38-9.89 36.742-9.563 43.09-25.053 1.514-3.694-.484-8.12-3.082-11.592-2.421-3.106-4.999-5.963-7.547-8.957-.8-.946-1.78-1.926-1.969-3.21.88-.933 2.239-1.137 3.436-1.427 3.8-.905 7.54-1.679 11.304-2.752 4.117-1.262 8.307-3.649 9.227-7.539 3.86-16.308-15.236-29.957-20.317-45.918-4.56-14.325 2.307-34.403-8.964-44.218-2.997-2.61-7.784-2.062-11.848-.633-3.667 1.37-7.127 2.992-10.727 4.52-1.564.662-2.994 1.278-3.872.8-.564-1.13-.344-2.478-.247-3.703.323-3.937.751-7.788.906-11.742.086-4.354-.864-9.12-4.235-11.208-3.533-2.19-7.336-2.949-11.337-2.853-12.003.29-25.655 8.254-38.08 8.223-14.869-.036-31.622-12.855-44.326-5.037-3.379 2.079-4.338 6.855-4.252 11.209.155 3.954.6 7.787.923 11.725.142 1.74.302 3.34-.461 4.02h-.017c-1.249.211-2.46-.425-3.592-.9-3.6-1.529-7.076-3.133-10.744-4.504-4.064-1.429-8.844-1.982-11.847.617-12.593 10.898-5.059 33.285-10.217 49.221-4.628 14.302-21.858 26.469-18.438 41.115.909 3.895 5.11 6.31 9.227 7.573 3.763 1.072 7.504 1.83 11.304 2.735 1.67.4 3.197.734 3.609 1.668-.194 1.26-1.168 2.23-1.961 3.17-2.548 2.992-5.126 5.85-7.547 8.956-2.598 3.471-4.596 7.897-3.081 11.592 6.347 15.49 29.71 15.163 43.09 25.053 12.007 8.875 18.121 29.222 32.94 30.456 3.94.329 7.493-2.964 9.952-6.538 2.17-3.29 4.022-6.663 6.047-10.041.906-1.508 1.328-3.377 2.357-3.444z" fill="red"/><path d="M497.916 177.233c-.18-.04-.659-.86-1.057-1.471-1.462-2.327-2.822-4.639-4.388-6.906-1.775-2.462-4.29-3.682-7.18-4.505-4.703-1.236-10.113-.865-18.06 5.271-7.947 6.136-17.537 12.584-26.033 17.99-8.496 5.407-10.538 10.264-10.775 14.967-.082 2.91.335 5.608 2.21 8 1.748 2.14 3.607 4.097 5.446 6.16.876.984 1.693 1.86 1.337 2.62-.386.593-1.433.81-2.564 1.068-2.742.623-5.436 1.15-8.152 1.89-2.972.87-4.947 2.808-6.651 5.21-2.67 3.94-3.976 9.027-.391 18.225 3.584 9.199 7.412 19.863 10.108 29.34 2.697 9.478 6.853 12.847 11.41 14.518 2.839.975 5.62 1.423 8.554.439 2.646-.944 5.141-2.043 7.74-3.095 1.25-.506 2.377-.997 2.982-.44.428.786.26 1.73.19 2.585-.234 2.713-.544 5.357-.656 8.08-.062 3 1.23 5.416 3.067 7.724 2.862 3.441 7.097 6.092 15.987 6.038a48.628 48.628 0 0 0 1.84-.051c10.163-.451 21.834-.676 31.997-.225 10.162.451 14.774-2.316 17.827-5.987 1.838-2.307 3.129-4.724 3.066-7.723-.111-2.724-.422-5.368-.655-8.08-.103-1.213-.224-2.32.349-2.78.633-.335 1.67.104 2.802.562 2.598 1.053 5.093 2.161 7.74 3.106 2.933.984 5.715.536 8.554-.44 4.556-1.67 8.713-5.05 11.41-14.527 2.696-9.477 6.08-20.274 9.664-29.473 3.584-9.199 2.278-14.286-.391-18.225-1.704-2.402-3.68-4.34-6.651-5.21-2.716-.74-5.42-1.267-8.163-1.89-.978-.224-1.889-.42-2.358-.828-.79-.777.13-1.767 1.131-2.891 1.84-2.062 3.698-4.02 5.446-6.16 1.875-2.392 2.303-5.079 2.22-7.99-.237-4.702-2.279-9.56-10.775-14.966-8.496-5.406-18.085-11.854-26.032-17.99-7.948-6.136-13.358-6.508-18.06-5.272-2.891.824-5.406 2.033-7.18 4.495-1.567 2.267-2.927 4.59-4.388 6.916-.805 1.28-1.493 2.44-2.517 1.921z" fill="#ffff17"/><path d="M497.831 182.41c-.679-.043-.947-.629-1.545-1.591-1.338-2.156-2.571-4.307-4.005-6.407-1.624-2.28-3.97-4.382-6.573-4.172-9.787.787-13.825 13.77-21.756 19.434-8.836 6.311-24.266 6.102-28.459 15.987-1 2.357.32 5.182 2.035 7.397 1.6 1.982 3.302 3.805 4.985 5.715.528.604 1.175 1.23 1.3 2.05-.58.594-1.478.724-2.269.91-2.51.577-4.98 1.07-7.466 1.755-2.719.806-5.486 2.329-6.094 4.811-2.549 10.407 10.063 19.116 13.419 29.301 3.012 9.14-1.524 21.953 5.92 28.216 1.98 1.665 5.14 1.316 7.825.404 2.422-.875 4.707-1.909 7.085-2.884 1.033-.423 1.977-.816 2.557-.511.372.721.227 1.581.164 2.363-.214 2.513-.497 4.97-.599 7.493-.057 2.778.57 5.82 2.797 7.152 2.333 1.397 4.845 1.881 7.488 1.82 7.927-.184 16.944-5.267 25.15-5.247 9.82.023 20.885 8.203 29.276 3.214 2.231-1.326 2.864-4.374 2.807-7.152-.102-2.523-.395-4.97-.609-7.482-.093-1.11-.2-2.132.305-2.566h.01c.825-.134 1.626.272 2.373.575 2.378.975 4.674 2 7.096 2.874 2.684.911 5.84 1.265 7.825-.394 8.316-6.954 3.34-21.24 6.747-31.408 3.057-9.127 14.437-16.89 12.178-26.236-.6-2.486-3.375-4.027-6.094-4.832-2.485-.685-4.956-1.168-7.466-1.746-1.102-.255-2.111-.468-2.383-1.064.127-.804.77-1.424 1.295-2.022 1.683-1.91 3.385-3.734 4.984-5.716 1.716-2.215 3.035-5.04 2.035-7.397-4.192-9.884-19.622-9.676-28.459-15.986-7.93-5.664-11.968-18.647-21.755-19.435-2.603-.21-4.95 1.892-6.573 4.172-1.434 2.1-2.657 4.252-3.994 6.407-.599.963-.877 2.155-1.557 2.198zM352.13 219.082c1.186-.947 2.072-2.409 1.968-3.25-.104-.84.94-2.513 2.318-3.717 2.757-2.407 2.69-3.25-.672-8.516-1.402-2.195-3.439-3.967-5.33-4.636-1.684-.595-3.17-1.415-3.304-1.823-.487-1.484-5.886-2.386-8.711-1.455-4.698 1.548-9.209 4.527-10.315 6.81-.643 1.326-.501 4.578.375 8.593 1.292 5.923 1.661 6.602 4.448 8.177 1.672.944 4.137 1.756 5.478 1.804 1.34.048 3.427.364 4.637.702 2.609.728 6.126-.31 9.108-2.69zm-6.517-3.277c-.201-.613 3.21-3.445 4.76-3.953 1.398-.459.596 1.582-1.076 2.74-2.686 1.859-3.396 2.093-3.684 1.213zm-11.767-.711c-2.487-1.864-3.286-3.979-2.01-4.398.478-.156 1.326.38 1.884 1.191.559.812 3.113 2.059 3.74 2.627 4.288 3.006.39 3.233-3.614.58zm18.22-6.162c.508-2.344 3.095-4.54 3.149-1.995.02.92-.665 2.581-1.824 2.961-.509.167-1.202-.59-1.325-.966zm-11.056.948c-2.426-1.415-2.568-4.566-.24-5.33.924-.303 2.88-.113 4.349.422 2.462.897 2.592 1.135 1.678 3.067-1.27 2.684-3.258 3.317-5.787 1.841zm4.057-2.375c-.254-.774-3.912-1.667-4.344-1.06-.748 1.054 1.41 2.482 2.975 1.968.828-.271 1.444-.68 1.37-.908zm-8.748 3.195c-.968-3.187-1.014-5.967 1.454-.142.511 1.208 2.473 2.166 1.878 2.361-.55.18-2.918-.955-3.332-2.219zm4.904-10.244c1.37-.457 6.939.513 7.514 2.267.28.855-.571.833-3.092-.08-2.13-.77-5.06-1.484-4.67-2.104l.248-.083zm-6.989.65c1.24-1.746 2.619-.32 1.54 1.534-1.01.763-2.628 3.18-2.905 2.597-.459-.965.804-4.06 1.365-4.132z" fill="red"/><path d="m455.339 191.952.523-19.61c12.3-3.392 31.852-16.09 46.53-17.896 14.464 1.577 26.324 14.226 40.787 18.157l.034 16.284-.232 3.962-87.642-.897z" fill="red"/><path d="M455.416 176.102c29.222-7.473 58.609-6.686 87.83-.114v12.761c-29.221-5.739-58.608-8.794-87.83.114v-12.761z" fill="#ffff17" fill-rule="evenodd" stroke="#ffff17" stroke-width=".057" stroke-linecap="round" stroke-linejoin="round"/><path d="m539.306 180.08 2.529.193-.257 3.343-2.529-.195.257-3.342zm3.094-3.46.936.072.047 3.258-1.239.013.257-3.343zm-.563 7.34 1.452.06.052 3.418-1.76-.135.256-3.343zm-31.37-7.973 2.992.204-.312 3.428-2.991-.205.311-3.427zm3.67-3.542 2.991.205-.312 3.427-2.99-.204.31-3.428zm-.685 7.528 2.992.204-.312 3.428-2.991-.205.311-3.427zm6.601-3.346-2.991-.205-.312 3.428 2.991.204.312-3.427zm15.792 5.914-3.289-.363-.369 3.343 3.289.363.369-3.343zm.724-7.262-3.29-.363-.368 3.343 3.289.363.369-3.343zm-4.036 3.166-3.289-.363-.369 3.343 3.289.363.369-3.343zm-3.239-4.059-3.288-.363-.37 3.344 3.29.363.368-3.344zm-.73 7.322-3.289-.363-.369 3.343 3.289.363.369-3.343zm-22.651-2.631-3.307-.083-.084 3.362 3.307.083.084-3.362zm.106-7.298-3.308-.083-.084 3.363 3.308.083.084-3.363zm-3.753 3.497-3.308-.083-.084 3.363 3.308.082.084-3.362zm-3.571-3.769-3.308-.083-.084 3.363 3.308.082.084-3.362zm-.107 7.357-3.307-.083-.085 3.363 3.308.082.084-3.362zm-17.382-2.994 2.938-.191.222 3.43-2.937.191-.223-3.43zm3.022-3.985 2.938-.19.223 3.43-2.938.191-.223-3.431zm.489 7.535 2.938-.19.223 3.43-2.938.191-.223-3.431zm5.9-4.176-2.937.19.222 3.432 2.938-.19-.223-3.432zm-14.215 5.222-3.261.559.568 3.315 3.26-.559-.567-3.315zm-1.309-7.18-3.261.559.568 3.315 3.26-.559-.567-3.315zm-3.005 4.157-3.261.559.568 3.315 3.26-.559-.567-3.315zm-4.233-3.007-3.261.56.568 3.315 3.261-.56-.568-3.315zm1.319 7.239-3.261.559.568 3.315 3.261-.559-.568-3.315zm-9.612 2.12-2.532.14-.185-3.347 2.533-.14.184 3.347zm-2.612 3.835-1.553.087-.09-3.353 1.457-.08.185 3.347zm-.407-7.35-1.242.069.095-3.363.962-.053.185 3.347z" fill="red" fill-rule="evenodd"/><path d="M543.723 172.466c-.177-.112-36.348-10.063-87.744 0l-6.837-7.348c6.9 2.647 17.063 11.98 16.238-2.385 15.503 11.745 21.044 4.025 24.927-4.008 6.016 6.037 10.64 16.146 22.791 1.05 4.777 10.294 12.516 12.298 23.75 4.527-.917 5.725-.276 9.914 12.288 2.343l-5.413 5.821z" fill="red" stroke="#ffff17" stroke-width=".533"/><path d="M543.866 172.514c-.198-.151-36.584-10.536-87.745 0l-9.259-9.924c29.195 15.06 29.91-3.629 29.913-3.722 15.7 14.924 19.398 3.345 25.355-3.245 4.606 7.454 8.097 17.293 22.221 4.39 4.214 10.683 14.03 10.576 27.35 3.722l-7.835 8.779z" fill="red" stroke="#ffff17" stroke-width=".533"/><path d="M543.795 172.657c-.688-.186-40.436-9.917-87.745 0l-7.122-7.73c12.237 4.95 23.509 8.365 28.63-3.244 6.954 3.418 12.702 12.81 24.643-3.15 5.364 10.196 12.35 12.35 21.51 3.723 4.087 6.312 10.154 10.622 26.209 3.912l-6.125 6.49z" fill="#ffff17"/><path d="M466.918 161.847a1.433 1.433 0 1 1-2.866 0 1.433 1.433 0 0 1 2.866 0zm24.847-4.091a1.433 1.433 0 1 1-2.866 0 1.433 1.433 0 0 1 2.866 0zm-13.594.303a1.433 1.433 0 1 1-2.866 0 1.433 1.433 0 0 1 2.866 0zm-29.364 4.262a1.433 1.433 0 1 1-2.866 0 1.433 1.433 0 0 1 2.866 0zm65.847-3.56a1.433 1.433 0 1 1-2.866 0 1.433 1.433 0 0 1 2.866 0zm11.323.283a1.433 1.433 0 1 1-2.866 0 1.433 1.433 0 0 1 2.866 0zm12.657 4.505a1.433 1.433 0 1 1-2.866 0 1.433 1.433 0 0 1 2.866 0zm14.423-.083a1.433 1.433 0 1 1-2.866 0 1.433 1.433 0 0 1 2.866 0zm-48.849-9.299a1.955 1.955 0 1 1-3.91 0 1.955 1.955 0 0 1 3.91 0z" fill="#ffff17" fill-rule="evenodd"/><path d="M499.297 295.396s5.028-11.587 30.824-12.68c0 0 12.68-.875 12.68-16.616l-.744-73.227c-28.239-6.81-56.776-7.496-85.713.008l-.745 73.227c0 15.74 12.68 16.615 12.68 16.615 25.798 1.093 30.826 12.68 30.826 12.68l.192-.007z" fill="#82cce2" stroke="#ffff17" stroke-width="1.955"/><path d="M542.499 252.888h-86.646l.249-26.705h86.23z" fill="none" stroke="#ffff17" stroke-width="1.951"/><path d="M506.426 238.668a7.495 7.495 0 1 1-14.99 0 7.495 7.495 0 0 1 14.99 0zm-26.069-.326a7.495 7.495 0 1 1-14.989 0 7.495 7.495 0 0 1 14.99 0zm51.486.326a7.495 7.495 0 1 1-14.99 0 7.495 7.495 0 0 1 14.99 0z" fill="#fff"/><g font-size="12" font-weight="400" font-family="Dialog"><path d="M480.969 270.3c-4.111-1.069-8.222.533-8.222.533s-2.5-2.86-2.86-6.96c-.354-4.11 1.076-7.152 4.112-7.513 3.036-.354 9.829-.182 8.931 5.718-.892 5.896-1.961 8.223-1.961 8.223" fill="#d9ab00"/><path d="M480.05 269.043s1.608 4.3 1.968 6.444c.354 2.138.354 2.853-2.145 2.67-2.504-.171-6.078-.171-7.33-.171-1.246 0-2.321-.183-1.43-2.145.898-1.967 1.253-5.008 1.253-5.008" fill="#d9ab00"/><path d="M475.21 277.913c.537-1.607.714-2.676 1.967-3.574 1.252-.886 3.75-1.601 3.75-1.601s2.5 4.998.887 5.358c-1.601.354-6.604-.183-6.604-.183m1.31-8.133c0-1.973-.177-3.042.36-4.654.532-1.602 1.607-1.785 1.43-3.746-.183-1.967-.183-2.327-1.075-2.682-.892-.36-1.43 0-1.785 2.5-.36 2.498-.182 3.928-.537 4.825-.36.887-.892 2.144-.892 2.144s.177-.532 0-2.859c-.183-2.327-.715-2.327 0-4.294.715-1.961.892-2.859 1.43-3.39.531-.538 1.069-1.07 1.069-1.07s3.219.36 3.75 1.247c.538.897 2.683.715 2.145 4.294-.532 3.574-1.43 5.89-1.607 6.97-.177 1.058-.537 1.247-.537 1.247l-3.751-.532" fill="#352b00"/><path d="M480.584 270.29c-4.11-1.07-8.222.531-8.222.531s-2.499-2.859-2.859-6.959c-.354-4.111 1.075-7.153 4.111-7.513 3.037-.355 9.83-.183 8.932 5.718-.892 5.895-1.962 8.222-1.962 8.222zm.178.354s.892 2.687 1.252 4.831c.354 2.139.354 2.854-2.144 2.67-2.505-.17-6.078-.17-7.33-.17-1.247 0-2.322-.184-1.43-2.145.898-1.967 1.252-5.009 1.252-5.009" fill="none" stroke="#000" stroke-width=".886" stroke-linecap="square" stroke-miterlimit="10"/><path d="M493.862 272.07s6.294-.195 8.655-.195c2.354-5.108 3.54-6.288 2.748-9.84-.781-3.535-2.748-6.089-4.715-6.089-1.967 0-4.328-1.767-6.494.787-2.16 2.554-3.341 3.928-2.948 7.08.394 3.148 2.754 8.256 2.754 8.256m-.265.078c-.787 3.136-1.38 4.721-1.574 7.076-.2 2.36 0 2.947 2.161 2.554 2.166-.388 4.92-.582 7.081-.582 2.166 0 3.147.582 2.355-2.36-.782-2.953-1.369-6.494-1.369-6.494" fill="#d9ab00"/><path d="M499.148 270.287c0-2.51.355-1.257-.537-3.94-.892-2.68-2.145-3.573-1.253-5.357.893-1.784 1.075-2.144 1.607-2.853.538-.715.715-.36 1.252.171.538.538 1.43.183 1.607 3.569.178 3.402.715 3.928-.354 5.54-1.075 1.613-1.967 2.687-3.574 3.214-1.607.543-3.396 1.43-3.396 1.43s1.606-.355 3.933-.172a65.03 65.03 0 0 0 4.283.171l.183 1.79c.177 1.784.532 1.252-1.252 2.499-1.79 1.252-2.144 1.424-2.322 2.864-.177 1.43-1.606 2.316-1.606 2.316s2.498.172 4.283-.172c1.79-.354 3.219 1.43 2.504-1.429-.715-2.853-1.43-7.868-1.43-7.868s1.607-3.745 2.322-5.17c.715-1.429 1.252-4.481 0-6.254-1.247-1.79-.71-3.757-3.03-3.929-2.322-.183-3.397-1.795-4.29-.183-.891 1.613-1.783 3.214-2.143 4.638-.355 1.43-.355 1.961.537 3.574.886 1.612 1.064 2.681 1.601 3.573.538.898.892 1.424.892 1.424" fill="#352b00"/><path d="M493.984 272.339s6.294-.194 8.654-.194c2.355-5.109 3.54-6.289 2.748-9.84-.781-3.535-2.748-6.09-4.715-6.09-1.967 0-4.327-1.767-6.493.787-2.161 2.554-3.341 3.929-2.948 7.081.393 3.147 2.754 8.256 2.754 8.256zm-.13.205c-.786 3.136-1.38 4.72-1.573 7.075-.2 2.36 0 2.948 2.16 2.554 2.167-.388 4.92-.581 7.082-.581 2.166 0 3.147.581 2.354-2.36-.78-2.954-1.368-6.494-1.368-6.494" fill="none" stroke="#000" stroke-width=".886" stroke-linecap="square" stroke-miterlimit="10"/><path d="M517.646 271.285c-1.253-1.955-.892-1.612-1.43-2.853-.537-1.247-2.144 0-1.607-2.687.538-2.67.178-4.638 1.43-6.067 1.252-1.43 2.321-2.5 5.363-2.5 3.036 0 2.144.173 3.928 2.5 1.785 2.316 2.5 2.138 1.785 5.712-.715 3.574-.715 3.042-1.607 4.111-.892 1.075-.892 1.962-.892 1.962s-1.967-.178-3.397-.36c-1.43-.172-3.573.714-3.573.714-.178 1.973-.178 2.687-.532 4.826-.355 2.144-.892 3.402 1.424 2.86 2.327-.533 4.47-.887 5.9-.716 1.43.183 2.145.183 1.43-1.784-1.086-2.975-1.43-5.9-1.43-5.9" fill="#d9ab00"/><path d="M522.751 278.362c.178-1.613 1.607-1.43 1.07-2.687-.538-1.242-1.967-1.784-1.784-2.327.177-.527 2.499-1.424 2.859-.887.354.543 1.246 4.288 1.606 4.826.355.543-1.79 1.43-1.79 1.43l-1.96-.355m.912-7.134c.36-.887 1.607-.36 0-1.418-1.607-1.08-1.246-.366-1.07-2.682.178-2.327.355-2.86.178-4.289-.177-1.429.892-1.08 1.607 0 .715 1.064 1.252 1.962 2.144 2.145.892.171 1.252-.543 1.075-1.613-.183-1.075-.715-1.075-1.79-2.676-1.069-1.612-1.246-2.681-2.321-2.681-1.07 0-2.499-1.785-1.967 1.069.537 2.859.36 2.144.183 5.186-.183 3.03 0 2.144 0 3.928 0 1.784.177 2.86.177 2.86l1.779.17" fill="#352b00"/><path d="M517.642 271.032c-1.252-1.956-.892-1.613-1.43-2.854-.537-1.247-2.144 0-1.606-2.687.537-2.67.177-4.638 1.429-6.067 1.252-1.43 2.322-2.499 5.363-2.499 3.037 0 2.145.172 3.929 2.499 1.784 2.316 2.498 2.139 1.784 5.712-.715 3.574-.715 3.042-1.607 4.111-.892 1.075-.892 1.962-.892 1.962s-1.967-.177-3.397-.36c-1.429-.172-3.573.714-3.573.714-.178 1.973-.178 2.688-.532 4.826-.355 2.145-.892 3.402 1.424 2.86 2.327-.533 4.471-.887 5.9-.715 1.43.182 2.145.182 1.43-1.785-1.086-2.975-1.252-5.357-1.252-5.357" fill="none" stroke="#000" stroke-width=".887" stroke-linecap="square" stroke-miterlimit="10"/></g><g stroke="#000"><path d="m516.07 221.016-35.212.43c-9.967.675-5.778-.687-5.211-.931 1.307-.818-.493-.826-1.658-.999l-2.676-.188c-8.343-1.3 1.088-.566 7.646-.65 15.251.69 29.83-.556 45.585 1.392 2.762.874-2.71.925-8.475.946z" fill="#d9ab00" stroke-width=".2"/><path d="m514.139 214.78 10.92-3.765-.28-.53-10.695 3.683.055.613z" fill="#d9ab00" stroke-width=".3"/><path d="M514.196 211.348h-30.332l-2.688-.022.043 2.509 2.513-.044-.02 1.734h30.484v-4.177z" fill="#d9ab00" stroke-width=".55"/><path d="m483.979 211.468-11.462-13.295c-2.659-2.768-.231-3.868 4-3.513 19.598 3.32 32.984 2.246 44.349-.26 5.307-.327 7.262 1.872 4.593 4.294l-11.503 12.774H483.98z" fill="#fff" stroke-width=".8" overflow="visible"/><path d="M485.33 211.064c-3.899-5.97-6.183-13.124-2.525-15.636m29.596 15.951c3.899-5.97 6.942-13.58 3.283-16.092m-21.586 15.919c-1.739-4.169-4.68-7.06-3.415-14.419m14.302 14.356c1.738-4.168 4.68-7.059 3.414-14.418m-8.989 14.785.076-14.495" fill="none" stroke-width=".8" overflow="visible"/><g fill="none"><path d="M491.186 216.039a4.625 4.625 0 1 1-9.25 0 4.625 4.625 0 0 1 9.25 0z" stroke-width=".55" stroke-linecap="round" stroke-linejoin="round"/><path d="m486.627 220.66-.005-9.169" stroke-width=".5"/><path d="m491.266 215.955-9.107-.058m7.609 3.096-6.487-6.48m-.122 6.829 6.48-6.487" stroke-width=".5" overflow="visible"/></g><g fill="none"><path d="M516.171 215.924a4.625 4.625 0 1 1-9.25 0 4.625 4.625 0 0 1 9.25 0z" stroke-width=".55" stroke-linecap="round" stroke-linejoin="round"/><path d="m511.612 220.546-.005-9.17" stroke-width=".5"/><path d="m516.25 215.84-9.106-.057m7.609 3.097-6.487-6.48m-.122 6.828 6.48-6.487" stroke-width=".5" overflow="visible"/></g></g><path d="M667.725 219.082c1.186-.947 2.072-2.409 1.968-3.25-.104-.84.94-2.513 2.318-3.717 2.757-2.407 2.69-3.25-.672-8.516-1.402-2.195-3.439-3.967-5.33-4.636-1.684-.595-3.17-1.415-3.304-1.823-.487-1.484-5.886-2.386-8.711-1.455-4.698 1.548-9.209 4.527-10.315 6.81-.643 1.326-.5 4.578.375 8.593 1.292 5.923 1.661 6.602 4.449 8.177 1.671.944 4.136 1.756 5.477 1.804 1.34.048 3.427.364 4.637.702 2.609.728 6.126-.31 9.108-2.69zm-6.517-3.277c-.201-.613 3.21-3.445 4.76-3.953 1.398-.459.596 1.582-1.076 2.74-2.686 1.859-3.396 2.093-3.684 1.213zm-11.767-.711c-2.486-1.864-3.286-3.979-2.01-4.398.478-.156 1.326.38 1.884 1.191.559.812 3.113 2.059 3.74 2.627 4.289 3.006.39 3.233-3.614.58zm18.22-6.162c.508-2.344 3.095-4.54 3.149-1.995.02.92-.664 2.581-1.824 2.961-.509.167-1.202-.59-1.325-.966zm-11.056.948c-2.426-1.415-2.568-4.566-.24-5.33.924-.303 2.88-.113 4.349.422 2.462.897 2.592 1.135 1.678 3.067-1.27 2.684-3.258 3.317-5.787 1.841zm4.057-2.375c-.254-.774-3.912-1.667-4.343-1.06-.75 1.054 1.409 2.482 2.974 1.968.828-.271 1.444-.68 1.37-.908zm-8.748 3.195c-.968-3.187-1.014-5.967 1.454-.142.511 1.208 2.473 2.166 1.878 2.361-.55.18-2.917-.955-3.332-2.219zm4.904-10.244c1.37-.457 6.939.513 7.514 2.267.28.855-.571.833-3.092-.08-2.13-.77-5.06-1.484-4.67-2.104l.248-.083zm-6.989.65c1.24-1.746 2.62-.32 1.54 1.534-1.01.763-2.628 3.18-2.905 2.597-.459-.965.804-4.06 1.365-4.132z" fill="red"/><g stroke-width=".38" stroke="#000"><path d="M473.29 543.96c5.36.774 10.206-3.023 13.212-1.476l3.147 1.871 1.032-3.086c2.55-.243 23.099-10.38 32.65-30.6l-4.339-1.858c-5.812 11.798-13.394 21.521-20.721 24.51l-2.358-.831-1.22 2.791c-49.11 13.635-56.87-6.317-89.517-23.007l-1.679 2.827 10.142 6.82c32.687 19.202 35.561 20.609 53.541 21.62 6.606 2.751 10.238 5.203 11.259 8.217-10.646 2.814-23.886 6.489-23.718 18.892.2 2.44 1.802 5.746-5.078 11.145 14.726 6.731 33.034-4.39 32.056-21.775 9.471 17.917 24.152 8.353 41.371 4.01-3.943-.956-7.852.358-11.83-2.867l-5.808-7.593c-8.106-7.578-16.52-3.502-24.861-2.193-1.995-3.238-4.893-5.84-7.282-7.417z" fill="#006400" overflow="visible"/><path d="M507.274 562.303c-8.561 2.135-17.655-.292-26.366-7.197-5.046 5.915-10.735 16.649-21.979 19.302" fill="none" overflow="visible"/><path d="M466.466 570.995c-.882 4.373-.337 6.273-.337 6.273m36.605-14.327c2.696 2.802 2.693 2.613 2.693 2.613m-18.957-6.78c5.269-2.543 7.624-3.096 7.624-3.096" fill="#006400" overflow="visible"/></g><g stroke="#000" stroke-width=".38"><path d="M523.664 515.049c4.63 3.925 2.913 6.784 24.304 13.524l3.687-.876c4.941.673 3.538.512 7.607-.538-10.687-15.818-17.875-10.584-15.908-13.458l-19.69 1.348z" fill="#006400"/><path d="M536.006 516.032c6.047 7.217 14.087 7.02 14.087 7.02" fill="none"/></g><path d="M530.816 516.372c3.446 4.238-.328 9.862-.937 14.877-.75-9.99-3.918-16.854-13.497-18.515l14.435 3.638z" fill="#006400" stroke="#000" stroke-width=".38"/><path d="M502.047 507.398c-5.149 1.822-4.858 8.588-6.951 13.187 5.846-8.136 13.094-11.14 22.135-7.568l-15.184-5.62z" fill="#006400" stroke="#000" stroke-width=".38"/><g stroke="#000" stroke-width=".38"><path d="m512.08 475.883 1.707-2.302c23.072 3.129 41.124 15.947 52.626 39.396l-1.941 1.84c-11.501-23.449-29.32-35.806-52.392-38.934z" fill="#006400" overflow="visible"/><path d="M565.723 525.81c-3.238-2.509-5.17-8.718-2.485-12.182 2.684-3.465 8.608-3.152 12.26-.431 2.258 1.64 1.553 5.638-1.16 9.14-2.714 3.503-6.77 4.904-8.615 3.474z" fill="red" fill-rule="evenodd" overflow="visible"/><path d="M563.256 521.637c-1.003-4.662-1.814-6.687 1.97-7.064 1.832-.243 2.835.742 3.911 1.62-.673-1.693-2.494-3.56-.083-4.788 3.823 1.154 4.016 1.225 5.235.846-4.184-3.232-6.206-1.971-8.585-1.45-5.343 1.17-5.913 7.406-2.448 10.837z" fill="#006400" fill-rule="evenodd" overflow="visible"/></g><g stroke="#000" stroke-width=".38"><path d="m519.518 483.23.158-2.86c20.985-10.09 43.113-9.324 65.623 3.92l-.608 2.604c-22.51-13.245-44.187-13.752-65.172-3.664z" fill="#006400" overflow="visible"/><path d="M583.966 494.47c-2.774-1.588-4.053-5.67-2.137-9.027 1.916-3.357 5.718-4.79 8.849-2.733l9.134 7.163-.7.4.091.672-.506.424-.17.738-.807.624.028.728-.547.493-.268.9-.768.832-.05.685-.694.624-.027.718-.542.295-.11.623-10.776-4.157z" fill="red" fill-rule="evenodd" overflow="visible"/><path d="M591.99 483.706c-4.654-2.359-7.631-2.332-7.707 1.826-.09 1.844.976 2.762 1.94 3.761-1.743-.529-3.755-2.189-4.778.316-.463 3.241 1.978 3.621 3.175 5.228-4.692-1.755-5.439-3.46-4.057-8.514 1.488-5.441 8.245-6.265 11.428-2.617z" fill="#006400" fill-rule="evenodd" overflow="visible"/></g><path d="m518.006 512.526-12.94-3.847c-12.21-8.323-26.68-34.203-22.117-51.498 6.606-1.434 5.897 10.347 14.552 14.205 3.013 1.3 11.852 26.082 15.256 29.924l5.25 11.216z" class="fil2 str1" fill="red" fill-rule="evenodd" stroke="#ffff17" stroke-width="1.738"/><path d="M551.27 491.324c9.537-8.645 25.228-.213 13.664-32.164-7.04-12.738-10.092-11.455-20.082-13.508-4.995-1.027-4.485-3.35-8.352-5.63-1.933-1.14-3.902-3.099-7.008-3.512-3.105-.413-5.738 3.784-13.83 5.765-24.783 6.07-22.74 6.986-20.543 27.205.617 5.682 10.76 11.053 8.763 16.909-8.622 25.273 39.352 46.943 47.389 4.935z" class="fil2 str1" fill="red" fill-rule="evenodd" stroke="#ffff17" stroke-width="1.738"/><path d="M528.582 498.13c.155-.014.261-.112.368-.34.085-.181.263-.374.413-.448.144-.072.275-.176.291-.232.016-.056.097-.13.181-.166.135-.056.35-.256 1.056-.981.095-.1.505-.351.91-.563.405-.211.977-.551 1.27-.754.54-.376.894-.506 1.744-.638.666-.104 2.25-.175 2.906-.13.704.05.863.021 1.36-.242.222-.118.572-.222.776-.23.206-.01.561-.08.79-.153.23-.074.519-.136.641-.14.266-.003 1.049-.236 1.256-.374.081-.053.198-.083.258-.066.061.017.176-.012.255-.064.08-.053.215-.077.3-.053s.436-.103.778-.281c.341-.18.68-.31.752-.289.22.062 1.245-.097 1.642-.255.205-.082.486-.172.625-.198.137-.028.918-.298 1.734-.604.816-.303 1.766-.61 2.11-.677.436-.086.83-.254 1.28-.542.982-.628 1.422-1.253 1.347-1.914-.069-.621-.38-2.043-.638-2.91-.155-.526-.273-.994-.26-1.04.014-.047.119-.082.233-.078.145.003.407.194.847.614.923.878 1.2 1.073 1.767 1.238.606.176 1.2.07 2.239-.4a8.16 8.16 0 0 1 1.234-.433c.309-.072.592-.158.63-.19.039-.034.556-.072 1.152-.086.676-.014 1.366-.1 1.84-.226.416-.112.935-.231 1.153-.265.958-.151 1.385-.352 1.852-.872.257-.287.357-.485.462-.919.122-.504.106-.674-.175-1.905-.333-1.456-.32-1.615.182-2.14.348-.365 1.112-1.398 1.236-1.672.181-.402.165-1.11-.032-1.427-.096-.155-.371-.421-.61-.592-.65-.465-.638-.434-.444-1.229.36-1.472.117-2.261-1.12-3.644-.34-.38-.665-.772-.723-.871-.204-.35-.081-1.084.372-2.226.23-.577.57-1.61.753-2.296.296-1.108.323-1.288.232-1.617-.223-.82-.821-1.206-2.579-1.67l-.854-.226-.162-.818c-.09-.45-.285-1.068-.435-1.374-.15-.304-.303-.686-.34-.846-.072-.317-.471-1.21-.684-1.533-.074-.11-.3-.355-.507-.542-.69-.63-.956-1.04-1.06-1.64-.113-.63-.122-.58.32-1.802l.32-.883-.211-.172c-.18-.148-.36-.178-1.26-.21a32.057 32.057 0 0 0-1.622-.017c-.757.023-1.708-.306-2.303-.798-.652-.54-1.461-1.102-1.67-1.16-.105-.03-.26-.164-.344-.297-.111-.176-.291-.291-.669-.426-.509-.182-.521-.194-.83-.82-.46-.924-.563-1.527-.479-2.794.054-.813-.002-.965-.406-1.1-.25-.082-.308-.064-.44.135-.604.925-.823 1.127-1.382 1.27-.302.078-.635.118-.74.089-.44-.124-3.525.618-3.594.864-.04.142-.509.446-.577.374-.033-.034-.102-.248-.153-.476-.16-.707-.48-1.286-.94-1.693-1.071-.95-1.946-2.556-1.846-3.393.06-.5-.145-.9-.512-1.002-.32-.09-.405-.032-.842.573-.48.667-.975 1.105-1.391 1.234-.578.18-.745.135-1.287-.347-.41-.364-.617-.48-1.21-.68-.657-.22-.736-.229-.999-.105-.17.08-.364.277-.479.49-.27.497-.83 1.243-1.008 1.34-.125.07-.194.012-.436-.357-.159-.242-.355-.486-.435-.542-.204-.143-.567-.14-.684.005-.227.283-.521 1.11-.525 1.479-.004.345-.03.396-.255.527-.137.078-.584.202-.992.274-.432.075-.784.192-.842.278-.11.163-.196.166-.291.013-.066-.105-.419-.332-1.159-.743-.772-.428-.966-.281-1.39 1.048-.348 1.099-.66 1.636-.929 1.6-.334-.046-.974-.886-1.481-1.945-.364-.762-.62-1.165-.767-1.211-.053-.019-.13-.1-.17-.184-.139-.295-.822-.99-1.175-1.196-.316-.183-.379-.194-.55-.095-.243.142-.588.765-.965 1.745-.28.727-.325.791-.881 1.252-.322.268-.811.63-1.087.808-.275.178-.596.435-.713.573-.265.311-.622.544-.771.502-.063-.018-.42-.226-.795-.463-.674-.427-.693-.434-2.032-.715-1.187-.249-1.47-.276-2.316-.228-.54.03-1.283.003-1.69-.065-.397-.065-.858-.096-1.023-.068-.163.028-.662-.025-1.105-.117-.443-.091-.944-.165-1.112-.162-.168.002-.623-.05-1.011-.114-1.097-.182-1.977-.229-2.39-.127-.208.051-.39.116-.401.146-.012.028-.067.143-.12.254-.072.152-.026.344.19.785.446.906.87 1.691 1.277 2.371.205.343.401.812.436 1.044.034.232.12.606.192.83l.13.407-.34.34c-.466.469-.484.768-.09 1.512.402.758.378.845-.301 1.087a1.15 1.15 0 0 1-.756.015c-.303-.084-.562-.072-1.052.046-.874.21-1.084.376-1.259.997-.214.768-.216.928-.011 1.38.103.23.183.44.176.464-.027.097.271.818.481 1.164.124.204.22.393.212.42-.008.028.054.272.137.543.15.491.149.495-.098.85a4.847 4.847 0 0 0-.435.846l-.334.868c-.08.209-.395.796-.7 1.304-.306.509-.67 1.243-.808 1.631-.236.655-.244.743-.143 1.256.062.305.262.841.447 1.194.282.537.409.684.794.914.416.25.486.34.774 1.008.174.402.331.882.35 1.064.055.499-.687 3.26-1.133 4.224-.336.723-.346.767-.233.98.066.123.103.464.081.758-.04.58.056 1.177.25 1.537.112.21.147.226.404.18.285-.049.42-.222.665-.846l.149-.38c.018-.052.226-.129.46-.171.233-.042.538-.1.677-.13s.528-.049.864-.041c.337.006.69-.02.784-.06.195-.084.386-.05.354.061-.012.042.056.079.149.081.107.003.185.074.207.192.115.595 2.04 3.046 2.49 3.173.077.021.542.33 1.032.686.492.357 1.105.777 1.36.931.523.315.603.472.627 1.231.01.278.032.591.05.696.016.105.042.453.057.771.03.76.115 1.006.559 1.665l.369.548.926.2c.707.151 1.117.187 1.722.145.61-.04.873-.017 1.129.098.7.316 1.071 1.202.827 1.976-.053.167-.037.293.043.352.07.05.095.116.06.148-.087.077-.058.745.063 1.427.077.43.177.637.438.916.188.2.425.385.53.416.273.08 1.07-.288 1.465-.68.418-.41.843-.753 1.113-.894.111-.057.222-.173.245-.255.059-.209.833-.506 1.114-.427.127.036.49.203.806.371.444.236.596.366.662.562.048.141.182.33.3.42.261.202 1 1.31 1.683 2.525l.799 1.417c.17.3.405.576.58.679.449.266 1.595 2.315 1.642 2.937.011.153.058.29.104.303.047.013.105.173.13.355.046.343.168.424.57.386zm.614-3.394c-.228-.728-1.713-2.862-2.497-3.589a7.733 7.733 0 0 1-.772-.854 14.107 14.107 0 0 0-.67-.82c-.378-.419-.338-.358-.764-1.151-.198-.37-.405-.637-.514-.668-.101-.028-.291-.163-.424-.3a1.473 1.473 0 0 0-.548-.338 4.214 4.214 0 0 1-.672-.284c-.798-.427-2.233-.283-2.59.26-.114.174-.882.497-1.06.447-.051-.014-.202.029-.336.096l-.244.12-.007-.214c-.009-.314-.173-1.345-.225-1.412-.024-.032-.074-.223-.111-.424-.037-.201-.135-.444-.217-.541-.608-.711-.677-.76-1.369-.968-.98-.294-1.16-.341-1.651-.43-1.651-.295-1.527-.252-1.756-.61a5.143 5.143 0 0 1-.38-.758c-.164-.42-.18-.575-.184-1.59 0-.276-.04-.638-.087-.805a5.944 5.944 0 0 1-.132-.9c-.043-.55-.016-.691.34-1.762.212-.64.586-1.558.831-2.04.495-.977 1.11-2.6 1.173-3.102.053-.426.361-.82.534-.683.069.055.346.22.617.37.836.46.988.652 1.557 1.97.292.677.564 1.373.602 1.546.04.174.104.325.143.335.04.012.055.08.035.151-.06.21 1.837 3.697 2.281 4.196.16.178.387.505.507.728.289.533.669.908 1.024 1.008.159.044.362.162.45.26.104.115.508.298 1.113.506.797.273 1.079.332 1.764.364.45.022.968.023 1.152.003.29-.03.364-.01.54.152.113.102.273.204.357.228.085.023.203.14.264.256.062.118.143.223.182.233.039.011.283.287.544.612.518.648 1.236 1.292 1.691 1.52.343.17.527.236 2.02.742 1.097.371 1.14.379 1.648.293.288-.049.553-.08.589-.07.11.031 1.052-.306 1.395-.5.176-.098.447-.328.602-.51.154-.182.542-.517.862-.745.32-.227.666-.52.769-.649.227-.283.617-.284 1.422-.008.155.054.182.104.109.203-.09.127-.087.128.067.02.176-.125.552-.065.51.081-.05.18.469.864.838 1.104.21.136.494.424.634.638.438.675.79 1.067 1.136 1.267.184.106.371.245.417.308.047.063.102.473.124.912.053 1.088-.117 1.647-.698 2.283-.42.46-.47.486-1.221.63-.432.083-.99.141-1.243.13-.674-.031-1.445.103-1.9.33-.22.108-.445.185-.5.17-.528-.149-3.49.217-4.292.53-.882.344-1.675.838-2.258 1.406-.231.224-1.178.71-1.311.672-.06-.017-.155-.176-.21-.353zm11.387-8.506c.013-.047.006-.09-.015-.095-.021-.006-.074.02-.117.058-.042.037-.036.08.015.095.05.014.104-.012.117-.058zm4.751 3.387c.082-.813-.053-1.225-.541-1.664a12.094 12.094 0 0 1-.677-.659 3.718 3.718 0 0 0-.638-.532c-.188-.115-.468-.396-.623-.623-.343-.503-.548-.697-.814-.773-.261-.074-.743-.618-.965-1.09-.138-.292-.15-.442-.057-.743.158-.512.261-.613.712-.7.295-.056.485-.034.796.09.306.124.599.159 1.162.142.415-.013.818-.006.897.017.199.056.575.771.646 1.227.059.38.368.785.662.868.346.097.586-.29.511-.829-.043-.307-.04-.353.067-1.055a3.63 3.63 0 0 0 .018-.9c-.071-.429.021-.572.532-.823.17-.085.368-.255.438-.377.07-.123.247-.313.393-.421.146-.11.368-.304.494-.434.233-.243.317-.305 1.06-.784.238-.154.445-.321.459-.372.014-.05.187-.234.385-.409a9.08 9.08 0 0 0 .842-.933c.577-.73 1.209-1.151 1.851-1.233.252-.033.61-.134.791-.226.183-.092.898-.283 1.59-.424.691-.141 1.374-.293 1.517-.339.378-.118.561-.118 1.362.007.396.061.836.09.98.065a2.43 2.43 0 0 1 .648.014c.214.033.666.017 1.005-.034a19.715 19.715 0 0 1 .937-.122c.586-.051.78-.454.464-.963-.114-.184-.294-.383-.399-.442-.262-.146-.765-.084-.817.102-.064.228-.73.252-1.389.053-.477-.145-.64-.152-1.12-.043-.308.07-.632.106-.72.082-.158-.045-.5.006-1.26.188-.701.169-1.504.293-1.79.278a1.931 1.931 0 0 0-.508.048c-.208.057-.233.046-.237-.1-.009-.296-.178-1.02-.3-1.29-.165-.358-.312-1.424-.215-1.55.043-.057.181-.117.307-.135.56-.077 1.787-.88 2.352-1.54.694-.808.951-1.17 1.098-1.537.162-.406.159-.436-.053-.647-.284-.282-.416-.863-.33-1.453.037-.254.02-.641-.038-.86-.133-.49-.2-1.446-.123-1.771.154-.663.563-1.636.76-1.805.45-.388.707-.429 1.324-.209.497.177.593.185.785.07.12-.072.291-.11.382-.084a.867.867 0 0 0 .394-.02c.14-.042.685.021 1.403.161.647.127 1.346.222 1.553.213.357-.016.38-.007.397.183a.775.775 0 0 1-.095.397 4.964 4.964 0 0 0-.262.565c-.08.202-.264.659-.41 1.014-.172.42-.256.731-.236.888.016.134-.045.477-.135.764-.099.32-.14.642-.104.835.03.171.069.48.085.686.014.205.09.549.166.764.076.215.13.427.117.472-.013.044.09.302.228.574.137.271.285.652.328.848.042.195.21.538.373.76.433.592.751 1.94.646 2.738-.077.591-.007 1.136.152 1.181.042.012.255.255.474.542.217.287.44.533.491.547.228.064.082.468-.484 1.34-.291.45-.798 1.582-.914 2.04-.117.468-.066.929.173 1.595.131.363.226.703.211.757-.07.252-.726.555-1.722.798-1.426.348-2.618.516-3.065.432a2.148 2.148 0 0 0-.663-.01c-.168.03-.366.039-.441.018-.075-.021-.147 0-.16.046s-.073.07-.133.054c-.061-.017-.444.14-.85.352-.406.211-.773.374-.814.364-.04-.011-.276.043-.522.12-.505.158-.52.15-1.125-.517-.226-.25-.491-.479-.589-.506-.097-.028-.365-.18-.595-.34a5.336 5.336 0 0 0-.831-.46c-.398-.165-.427-.162-.875.085-.866.477-.966.592-1.068 1.225-.093.575-.079.812.077 1.338.05.163.165.621.258 1.016.093.396.268.845.389.999.12.154.287.467.371.696l.152.416-.42.186c-.233.103-.476.173-.54.155-.065-.018-.126-.004-.136.031-.018.068-.869.3-1.643.448-.253.05-.662.236-.93.424a3.91 3.91 0 0 1-.988.481 8.81 8.81 0 0 0-.856.289c-.32.135-1.35.39-1.462.364-.027-.008-.02-.309.017-.67zm-13.319-4.116a2.488 2.488 0 0 0-.595-.3c-.154-.043-.32-.147-.367-.228-.128-.218-1.197-1.111-1.526-1.276-.307-.154-1.146-.951-1.115-1.062.024-.087 1.092-.2 1.758-.185.853.017 1.837.164 2.822.418.51.133 1.382.338 1.936.455 1.057.226 1.153.292.757.513-.313.174-.72.504-1.164.94-.439.436-1.185.962-1.309.927-.041-.011-.15.02-.243.069-.208.11-.54.016-.954-.272zm-22.167-7.41c-.145-.166-.325-.32-.401-.342-.568-.16-2.883-2.747-2.781-3.108.022-.08.137-.09.348-.03.174.049.629.05 1.012.001.751-.093.805-.08 2.584.61.485.188.566.245.488.345-.25.324-.614 1.007-.703 1.324-.054.195-.088.616-.074.937.014.321.022.593.02.605-.02.085-.272-.092-.493-.343zm12.813 1.725c-1.201-.642-1.542-.912-1.477-1.167.013-.051-.163-.431-.392-.844a11.42 11.42 0 0 1-.723-1.703c-.333-1.036-.958-2.364-1.136-2.414-.062-.017-.17-.201-.242-.409a10.418 10.418 0 0 0-.476-1.045c-.19-.367-.373-.793-.408-.946-.035-.153-.196-.452-.36-.665-.163-.212-.318-.455-.343-.539-.026-.083-.153-.304-.283-.49-.472-.676-.636-1.056-1.21-2.814-.414-1.264-.434-1.384-.324-2.035.104-.629.105-.63 1.175-1.8.328-.357.615-.714.637-.792.022-.079.082-.154.133-.168.053-.013.162-.164.242-.335.191-.395.674-.639 1.412-.71.308-.029.568-.074.577-.1.009-.026.115-.112.235-.19l.22-.145.372.392c.437.603.986.911 1.44 1.53l.65.453c.771.924.246.567 1.353 1.565-.058.18.248.295.397.576.126.27.396.767.599 1.104.281.465.394.784.468 1.323.053.39.13.78.171.866.115.238.072.908-.099 1.566a5.964 5.964 0 0 0-.17.995c-.01.222-.05.64-.09.93-.146 1.075-.069 1.496.334 1.787.224.16.797.103 1.14-.119.161-.103.386-.13.747-.085.82.1 2.361-.216 3.308-.678.31-.151.507-.173 1.014-.111.345.043.897.052 1.227.018 1.151-.116 2.71.084 4.674.6 1.64.429 1.792.481 2.008.708.129.134.238.324.243.423.004.1.073.24.153.314.08.075.244.377.366.671.256.62.235 1.392-.053 2.082-.099.23-.28.744-.408 1.14-.23.724-.506 1.125-.976 1.415-.493.306-.748.535-.96.869-.13.202-.262.36-.297.35-.033-.01-.12.09-.191.22-.143.263-.79.523-.974.39-.062-.046-.124-.025-.144.046-.02.07-.34.184-.712.256-.527.102-.775.102-1.122 0-.311-.092-.436-.165-.413-.244.04-.143.158-.115.178.041.01.076.032.068.061-.018.052-.152-.26-.375-.32-.228l-.083.217c-.072.183-.553.1-1.007-.174-.603-.363-3.675-1.206-4.302-1.18a25.312 25.312 0 0 1-1.088.007c-.347-.006-.87.003-1.162.02-1.79.109-2.17.031-3.589-.726zm-20.45-7.17c.126-.401.252-.94.281-1.196.033-.292.186-.776.407-1.3.344-.809.352-.847.261-1.261-.217-.996-.679-2.018-1.216-2.685-.399-.494-.849-1.27-1.146-1.97-.168-.398.409-1.752 1.052-2.466.222-.248.424-.518.447-.6.052-.181.343-.115.446.104a.43.43 0 0 0 .234.202c.089.025.246.24.352.476a12.301 12.301 0 0 0 .365.747c.094.172.162.349.15.391a.08.08 0 0 0 .056.1c.043.012.175.189.293.393.308.533 1.243 1.807 1.484 2.025.113.101.264.273.334.38.07.107.44.464.82.794.807.7 1.27 1.148 1.321 1.277.054.14 2.102.683 2.368.63.154-.031.415.029.834.192.336.132.75.274.921.317.309.079.31.081.492 1.096.108.609.155 1.25.118 1.598-.057.546-.417 1.727-.548 1.795-.032.018-.198.017-.368-.001a2.02 2.02 0 0 0-.5.006c-.105.021-.704-.113-1.348-.3-1.238-.364-1.608-.39-2.719-.194-.318.055-.872.037-1.548-.05-.925-.12-1.195-.115-2.244.055-1.18.188-1.411.217-1.555.191-.04-.007.03-.343.156-.745zm37.836 8.74c.008-.028.195-.252.416-.496.926-1.033 1.241-1.705 1.456-3.114.154-1.004.171-1.826.044-2.042-.045-.078-.088-.358-.094-.623-.02-.83-.486-1.805-1.41-2.949a149.834 149.834 0 0 1-.853-1.068c-.178-.229-.366-.427-.419-.441-.05-.015-.201-.139-.333-.276-.133-.137-.339-.28-.46-.317l-.217-.066.243-.025c.362-.037 2.167.078 2.443.155.225.063.349.227.693.92.167.336.686.437 1.294.252.427-.13.532-.207.69-.504.278-.519 1.067-1.256 1.482-1.385.196-.061.659-.112 1.028-.113a8.312 8.312 0 0 0 1.254-.116c1.08-.209 2.184-1.116 2.601-2.136.117-.285.28-.606.364-.716.204-.264.482-1.268.422-1.52a1.184 1.184 0 0 1 .003-.438.744.744 0 0 0-.023-.398c-.04-.087-.103-.357-.14-.6a3.294 3.294 0 0 0-.29-.874c-.218-.417-.219-.44-.028-.698.107-.146.221-.259.252-.25.031.009.315-.161.63-.378.318-.216.735-.425.929-.463.194-.038.548-.16.787-.269.238-.11.482-.187.54-.17.058.016.177-.022.262-.086.087-.063.321-.168.523-.233.2-.065.409-.16.465-.21.056-.05.153-.077.214-.06.062.018.23-.037.377-.12.145-.084.508-.17.804-.19.296-.021.608-.067.693-.102.127-.052.135-.037.051.09-1.455 2.175-2.122 3.858-2.074 5.236.03.837.209 3.079.26 3.244.02.06 0 .265-.04.453-.04.19-.052.503-.025.697.067.485.054.508-.449.773-.245.13-.454.263-.463.296-.047.168-1.387.802-1.94.92-.346.073-.987.303-1.425.512-.955.455-1.655.699-2.393.834-1.089.2-1.318.257-2.61.656-.468.144-.55.141-.98-.028-.259-.102-.518-.166-.578-.145-.357.132-.62.858-.47 1.3.162.477 1.012.569 2.142.228a3.987 3.987 0 0 1 1.054-.145c.583.017 1.755-.191 2.15-.381.141-.068.497-.308.79-.533.497-.381 1.323-.761 1.889-.868a1.435 1.435 0 0 0 .446-.182l.2-.134.033.282c.07.601-.793 2.582-1.535 3.524-.334.422-1.461 1.543-1.833 1.82-.154.115-.292.247-.305.292-.013.046-.336.316-.718.6-.383.285-1.026.871-1.43 1.303-.665.712-.853.85-1.981 1.463-1.017.553-1.295.665-1.502.608-1.145-.319-1.469-.389-1.957-.425-.672-.051-.968-.104-.949-.172zM510.426 466.8c-.677-.21-1.393-.475-1.59-.59-.644-.373-1.525-1.092-1.774-1.446-.35-.496-.941-1.2-1.223-1.454-.298-.27-1.316-1.46-1.513-1.77-.164-.257-.609-1.504-.787-2.207a14.356 14.356 0 0 0-.192-.69 6.37 6.37 0 0 1-.148-.835c-.041-.349-.245-1.01-.47-1.541-.526-1.228-.618-1.604-.445-1.83.183-.241.338-.292 1.006-.337 1.328-.088 1.728-.31 2.047-1.138.175-.453.173-.696-.013-1.374-.063-.232-.05-.247.288-.325.55-.127.64-.407.471-1.464-.05-.326-.3-.773-.88-1.583-.158-.222-.27-.468-.249-.545a.41.41 0 0 0-.04-.277c-.064-.108-.048-.146.076-.187.13-.043.126-.051-.016-.048-.193.005-.487-.38-.37-.483.04-.036.071-.202.068-.37-.005-.279.024-.316.344-.453l5.428.227c.04.04.133.032.209-.018.233-.157 1.526-.09 2.459.125 1.172.27 2.541.912 3.676 1.722.737.526.927.755.864 1.052-.046.232.096.458.79 1.246.436.497.515.7.635 1.61.017.129.048.31.067.403.02.092.023.219.006.28-.017.061.005.297.048.522.077.396.07.43-.218.934a19.33 19.33 0 0 1-.574.945c-.355.544-.718 1.785-.697 2.387.008.247.094.594.19.77.158.29.157.33-.003.425-.118.072-.181.194-.193.38-.021.306-.417.806-1.098 1.391-.217.187-.424.443-.46.57-.035.128-.308.503-.605.835-.57.639-.84 1.082-1.152 1.887-.368.95-.535 1.307-.713 1.528-.175.214-.403 1.26-.33 1.498.015.05-.093.282-.242.514-.245.384-.295.418-.56.378a3.239 3.239 0 0 1-.59-.162 34.148 34.148 0 0 0-1.528-.501zm16.171 4.41c.013-.044.074-.094.138-.11.078-.021.147-.216.213-.605.113-.656.158-.992.143-1.062a1.34 1.34 0 0 1 .024-.266c.127-.778.092-1.796-.08-2.322-.103-.316-.18-.603-.171-.637.027-.097-.891-1.582-1.173-1.899a8.026 8.026 0 0 1-.484-.619 3.38 3.38 0 0 0-.588-.61c-.801-.625-.99-.802-1.393-1.303-.23-.289-.564-.618-.741-.733a7.15 7.15 0 0 1-.772-.628c-1.77-1.653-2.421-3.067-2.159-4.692.116-.707.127-.733.528-1.155.549-.575.813-.598 1.632-.142.563.313.56.311.686.896.058.275.178.664.264.863.086.2.187.497.223.66.087.398.377.964.515 1.002.06.017.148.144.194.282.048.138.133.265.19.28.06.017.192.198.296.402.103.205.263.393.35.417.326.092.648.562.9 1.313.24.715.468 1.166.74 1.467.481.532.792.91 1.093 1.332.322.45.364.591.487 1.633.077.657.233 1.39.368 1.727.208.519.45 1.555.404 1.723-.034.122.315.41.647.533.233.086.508.1.875.043.479-.073.92-.069 2.528.022.257.015.967.142 1.58.28.614.14 1.205.242 1.314.225a.89.89 0 0 1 .37.031c.095.034.3.102.456.15.223.072.273.126.236.26-.053.185.622.989.902 1.075.216.066 1.286 1.015 1.293 1.145.004.074-.296.042-.961-.101-.53-.115-1.155-.221-1.385-.236-.23-.014-.883-.12-1.452-.235a44.222 44.222 0 0 0-1.44-.271c-.668-.102-1.893-.032-2.579.147-.351.093-.814.144-1.027.113a5.896 5.896 0 0 0-.917-.029c-.29.016-.893-.04-1.34-.123a57.544 57.544 0 0 0-.88-.158c-.038-.003-.059-.042-.047-.085zm2.687-5.048c-.007-.23.015-.514.048-.632.147-.521-.835-2.568-1.646-3.431-.128-.136-.39-.414-.58-.618a10.074 10.074 0 0 1-.496-.563c-.142-.186-.136-.187.185-.028.443.22.574.32 1.054.808.223.227.556.498.742.604.185.105.41.29.5.408.191.248.585.474 1.11.636.44.136.463.168.389.55-.085.438.093.775.66 1.246.279.23.542.43.586.443.046.013.166.101.27.196 1.528 1.403 1.997 1.802 2.39 2.041.256.156.46.305.452.333-.008.027-.391-.09-.852-.26-1.176-.436-1.916-.615-2.407-.586-.233.013-.686-.044-1.007-.13a6.061 6.061 0 0 0-.865-.169c-.358-.02-.515-.271-.533-.848zm8.065 2.02a1.45 1.45 0 0 0-.335-.277 3.99 3.99 0 0 1-.502-.362c-.193-.16-.41-.305-.48-.324-.07-.02-.274-.18-.45-.353-.18-.175-.429-.347-.555-.383a2.52 2.52 0 0 1-.569-.298 2.627 2.627 0 0 0-.619-.31c-.2-.056-.331-.174-.464-.415l-.183-.337.512.203c1.751.695 1.85.717 3.948.887.218.018.482.014.589-.007a.964.964 0 0 1 .377.012c.102.029.78-.04 1.505-.154.96-.15 1.48-.286 1.914-.5.329-.163.81-.369 1.07-.458.714-.246 1.692-.795 2.012-1.129.732-.765 1.16-1.704 1.164-2.556.004-.678-.002-.66.246-.71.24-.05.887.389 1.39.94.16.173.351.36.425.414.255.185.444.888.444 1.654a27.56 27.56 0 0 0 .031 1.336c.038.662-.104 1.029-.57 1.472-.35.331-1.368.923-1.518.881-.054-.015-.339.09-.633.235-.596.293-.948.32-1.634.128-.694-.195-.989-.107-1.309.395-.147.23-.3.537-.341.683-.064.226-.128.27-.435.304a2.957 2.957 0 0 1-.726-.032c-.201-.039-.686-.071-1.076-.073a9.255 9.255 0 0 1-1.21-.085c-.713-.119-1.799-.539-2.018-.78zm-2.732-4.586c-1.613-.566-2.19-1.323-1.87-2.456.068-.246.16-.438.201-.426.043.012.157.128.256.258.503.66 1.826 1.382 2.733 1.49.704.084 1.075.07 1.963-.084.41-.07.902-.112 1.091-.093.538.054 1.227-.388 2.121-1.363l.76-.828.289-1.131c.237-.931.315-1.138.44-1.172.105-.028.2.016.296.134.078.097.38.385.674.641.292.256.673.65.844.874.76.995.779 1.114.37 2.332-.194.578-.303.784-.493.925a4.02 4.02 0 0 0-.473.436c-.433.481-1.635 1.057-2.255 1.081-.18.007-.486.072-.68.144a2.932 2.932 0 0 1-.714.152c-.2.01-.584.065-.856.12a1.977 1.977 0 0 1-.942-.021c-.248-.066-.534-.114-.637-.104-.213.018-1.774-.437-3.118-.908zm-4.19-2.08c-.23-.184-.433-.385-.452-.447-.019-.06-.161-.225-.316-.364-.387-.345-1.698-2.537-1.8-3.008l-.081-.382.387-.135c.213-.074.48-.136.593-.139.26-.005 1.394-.617 1.668-.9.114-.118.53-.396.924-.618.396-.222.73-.445.745-.496.014-.05.06-.082.103-.07.15.042.064 1.085-.13 1.574-.361.91-1.096 4.093-1.142 4.956-.012.208-.034.376-.05.372a7.353 7.353 0 0 1-.448-.343zm3.549-1.854c-.552-1.01-.7-1.404-.71-1.915-.014-.703.148-.833 1.069-.86.23-.006.708.05 1.062.126.45.098.805.113 1.18.05.295-.049.553-.084.571-.078.02.005-.077.46-.215 1.008-.306 1.21-.254 1.678.277 2.508l.351.55-.367-.046c-.201-.025-.931-.198-1.624-.386l-1.256-.34-.338-.617zm-8.41-2.324a3.597 3.597 0 0 0-.517-.357c-.092-.042-.389-.478-.66-.967-1.416-2.56-1.024-4.421 1.894-8.994.284-.446.603-1.02.708-1.279.106-.258.2-.467.209-.464.008.002.423.286.923.63.499.344.909.616.912.605.003-.01.132.063.287.164.153.1.526.292.828.426.91.405 1.123.515 1.372.705.132.102.628.384 1.104.628.556.286 1.07.626 1.434.95.313.279.686.567.83.64.258.133.259.14.114.633-.097.336-.181.49-.253.47-.232-.066-1.43.173-1.653.329-.179.124-.272.292-.383.687-.115.409-.193.546-.355.623-.227.106-1.484 1.198-1.52 1.319-.04.141-.936.706-1.42.896-.747.293-2.196 1.203-2.564 1.61a2.036 2.036 0 0 0-.455.81c-.143.506-.128.507-.836-.064zm12.666 2.448-.241-.436.357-.738c.347-.715.448-1.174.387-1.75-.015-.133.03-.15.239-.092.302.085 1.098.56 1.221.728.048.064.07.18.05.254-.022.075.005.355.059.62.142.702-.013 1.167-.618 1.855-.657.75-.797.795-1.031.343-.1-.192-.29-.544-.423-.784zm9.561-.277c-.825-.724-.866-.752-1.414-.974-.393-.16-.996-.571-1.714-1.169-.849-.706-2.304-2.465-2.855-3.449-.43-.77-.722-1.006-1.789-1.442-.256-.104-.483-.244-.505-.309-.113-.353.574-1.59 1.078-1.941.077-.054.245-.218.373-.366.454-.525 1.649-1.24 2.866-1.714.554-.216.974-.47 2.268-1.373.423-.295.682-.388 1.495-.535l.983-.178.084.248c.047.138.3.7.561 1.253.917 1.931.986 2.093 1.033 2.447.026.195.168.716.316 1.159.687 2.048.746 2.321.74 3.435-.002.275.014.914.036 1.42.034.786-.08 1.788-.269 2.37-.028.088-.223.417-.43.731-.266.4-.438.577-.573.587-.106.009-.435.116-.73.24-.294.123-.621.2-.727.17-.106-.03-.477-.305-.827-.61zm-13.978-4.575c.124-.58.147-.77.17-1.403.05-1.365.342-1.427 3.384-.707.682.161 1.049.29 1.337.47.218.136.585.306.816.377.362.111.456.188.678.553.37.608.467 1.004.348 1.43l-.103.368-.272-.13c-.785-.38-1.659-.743-1.967-.82-.265-.065-.423-.042-.673.102-.337.195-.703.232-.899.09-.126-.092-2.16-.195-2.452-.126-.294.07-.411.005-.367-.204zm-13.226-5.14c-.228-.26-.642-.868-.922-1.35-.277-.483-.556-.893-.615-.91-.061-.017-.094-.089-.074-.158.024-.085-.054-.152-.233-.202-.163-.046-.25-.114-.222-.176.07-.16.073-.683.003-.757-.11-.114-.01-.292.309-.55.168-.137.322-.304.341-.373.019-.067.178-.193.352-.278.2-.098.426-.326.61-.615a7.3 7.3 0 0 1 .481-.68c.105-.12.293-.383.418-.584l.228-.366.496.75c1.028 1.555 1.5 2.423 1.438 2.642a1.48 1.48 0 0 0-.03.474c.042.4-.737 3.392-1.01 3.875-.123.22-.25.423-.281.452-.067.064-.705-.528-1.29-1.194zm32.142 8.73c0-.263.015-.556.032-.65.016-.096.03-.496.032-.89.002-.393.03-.809.062-.923.032-.115.03-.325-.004-.467-.034-.142-.06-.606-.055-1.03.006-.72-.037-1.235-.134-1.584-.193-.684-.222-1.205-.084-1.493.082-.169.198-.293.259-.276.06.017.202-.024.314-.092.294-.175.741-.105 1.243.195.808.484 1.543.77 1.935.75a5.192 5.192 0 0 1 .739.032c.436.055.355-.125.738 1.635.127.578.283 1.154.349 1.28.066.126.156.368.202.537.046.17.242.512.435.76.342.437.704.973 1.29 1.91.165.265.265.537.236.641a.86.86 0 0 0-.007.362c.05.21-.33 1.137-.502 1.23-.073.038-.21-.019-.4-.165-.16-.123-.33-.213-.38-.199-.048.013-.146-.018-.216-.069-.151-.11-.082-.236.473-.857.59-.66.691-.9.484-1.13-.247-.271-.652-.454-.966-.432-.888.059-1.899.215-2.3.354-.254.087-.516.144-.582.126-.066-.019-.406.113-.756.292-.348.18-.859.364-1.132.41a8.49 8.49 0 0 0-.809.176c-.17.052-.352.083-.404.068-.05-.014-.092-.24-.092-.502zm-17.095-9.606c-.663-.7-2.377-1.96-3.986-2.934-1.042-.63-1.053-.64-1.01-.906.069-.39.27-.546.665-.508.671.065 1.347-.194 1.557-.597.155-.298 1.432-.923 1.908-.934a6.896 6.896 0 0 0 .685-.054c.287-.04.355-.02.634.186.228.171.378.229.559.215a3.38 3.38 0 0 1 .486.006c.134.013.414-.031.625-.099.21-.068.414-.114.454-.103.039.01.296-.06.573-.157.275-.098.556-.163.621-.144.067.019.292.33.503.692.209.361.69 1.038 1.068 1.504.767.947.87 1.236.582 1.63a1.657 1.657 0 0 0-.23.419c-.063.227-1.505 1.446-2.078 1.758a3.288 3.288 0 0 1-.879.309c-.242.037-.641.101-.887.14-.379.063-.972.05-1.385-.026-.058-.011-.268-.19-.465-.398zm20.469-.698c.013-.047.006-.09-.015-.096-.022-.006-.074.02-.118.058-.042.038-.035.081.016.096.05.014.104-.013.117-.058z" class="fil1" fill="#ffff17" fill-rule="evenodd" stroke="#ffff17" stroke-width=".35"/><path d="M502.088 479.88c18.155-11.828 40.432-5.73 49.9 8.889l.17 1.721a33.89 33.89 0 0 1-.887.835c-8.037 42.008-56.01 20.338-47.389-4.935.76-2.226-.236-4.381-1.794-6.51z" class="fil2 str1" fill="red" fill-rule="evenodd" stroke="#ffff17" stroke-width="1.738"/><path d="M550.637 505.42c2.2-4.8 6.773-13.916 6.773-13.916l-36.916 9.456c-6.054 10.79 7.205 16.017 7.205 16.017 8.377 1.397 15.845 2.096 22.171-11.233.529-.25.256-.182.767-.323z" class="fil2 str1" fill="red" fill-rule="evenodd" stroke="#ffff17" stroke-width="1.738"/><path d="M556.456 487.035c-7.488 6.389-16.655 10.555-29.515 9.832-5.683-.493-11.25 5.68-.53 5.82 11.75-.382 22.084-4.11 31-11.183 6.14-8.739 1.68-8.076-.955-4.47z" class="fil2 str1" fill="red" fill-rule="evenodd" stroke="#ffff17" stroke-width="1.738"/><g stroke="#000"><path d="M428.551 523.34c-6.096 7.64-15.335 14.04-28.378 5.449 18.07-25.116 27.092-25.747 28.378-5.45z" fill="#006400" stroke-width=".347"/><path d="m434.424 517.967-8.394 7.983c17.976 13.402 28.59.333 39.16-1.647-10.896-3.816-26.854-21.076-30.766-6.336z" fill="#006400" stroke-width=".315"/><path d="M429.177 523.508c-21.921-18.137-8.042-23.452-1.785-33.199 8.382 10.753 20.667 20.805 1.785 33.199z" fill="#006400" stroke-width=".378"/><path d="M430.903 520.976c1.908-7.052-1.564-7.89-4.156-9.744m4.362 1.555c2.596-5.714-1.246-10.81-3.404-15.09m8.728 24.189c7.597 3.56 13.475 2.014 19.909 2.118" fill="none" stroke-width=".315"/><path d="M423.976 519.465c-5.685-.586-10.69 2.513-15.567 6.303" fill="none" stroke-width=".347"/></g></svg>