<svg xmlns="http://www.w3.org/2000/svg" width="1000" height="600" overflow="visible"><path d="M0 0h1000v600H0V0z" fill="#0036b6" fill-rule="evenodd" overflow="visible"/><path d="M697.543 226c0 109.1-88.443 197.543-197.543 197.543-109.1 0-197.543-88.443-197.543-197.543C302.457 116.9 390.9 28.457 500 28.457c109.1 0 197.543 88.443 197.543 197.543z" fill="#fff" stroke="#ffff17" stroke-width="4.914" stroke-linecap="round" stroke-linejoin="round" overflow="visible"/><path d="M363.751 181.808c-.444 2.418-1.026 5.774.557 7.902-.683.427-1.544.93-2.312 1.27-2.316-3.591-2.599-7.227-6.04-10.166-2.111-1.803-4.644-2.975-7.598-3.518-1.67-.306-3.527-.526-5.57-.658s-3.748-.324-5.115-.575c-1.216-.223-2.36-.729-3.438-1.517-1.076-.789-1.865-1.715-2.367-2.78a9.671 9.671 0 0 1-.895-3.398c-.062-.897.044-2.233.317-4.007l1.037-.451c-.07 1.997.225 3.553.883 4.67.659 1.117 1.806 1.826 3.443 2.126.896.165 2.203.31 3.924.437 2.964.202 5.365.47 7.205.808 2.48.456 4.553 1.406 6.215 2.85 1.663 1.443 3.86 4.511 6.593 9.202-.372-2.82-.364-5.294.026-7.417.356-1.939.94-3.63 1.755-5.076.813-1.445 2.05-2.99 3.71-4.637l-1.826-2.974 1.015-.566 4.467 7.603c-1.666 1.54-2.97 3.144-3.915 4.81-.944 1.665-1.635 3.686-2.07 6.062zM358.19 139.048l.715-.562c.73 1.38 1.343 2.34 1.838 2.88.495.541 1.26 1.106 2.296 1.695l8.708 4.952c1.445.822 2.406 1.234 2.882 1.234.477.002.796-.139.958-.423.085-.148.134-.324.148-.53-.008-.135-.076-.557-.203-1.267l.91-.147 1.277 6.52c-1.408.573-2.536.85-3.382.833-.847-.018-1.86-.335-3.042-.954l1.383 8.983c-3.24 1.254-5.79 1.353-7.645.297a9.455 9.455 0 0 1-3.069-2.75c-1.05-1.484-2.065-3.59-3.042-6.318l-6.626-.505-.398-.605c.338-.509.58-.893.726-1.15.912-1.604 1.083-3.377.514-5.32a16.957 16.957 0 0 0 3.246-2.455c1.02-.976 1.707-1.777 2.063-2.401.162-.286.235-.532.218-.739-.015-.207-.174-.63-.474-1.268zm.987 7.34l-6.113 5.753 6.664.508 4.685-3.284-5.236-2.977zm6.102 3.47l-5.139 3.603c1.232 1.707 2.475 2.917 3.73 3.63 2.21 1.257 4.598 1.293 7.166.11l-.721-4.479-5.036-2.864zM371.175 122.825l4.603-.41-.355-3.061.873-.15c.122 1.444.314 2.41.573 2.898.346.65.985 1.331 1.917 2.043l8.619 6.59c.798.61 1.487.936 2.068.98.374.037.634-.04.781-.233.13-.169.202-.743.217-1.724l.89-.022.228 6.304c-1.522.429-2.682.563-3.479.404-.798-.159-1.842-.733-3.135-1.721l-9.89-7.56-2.921.324.13 4.943 10.015 7.656 2.374-.349.111 5.191-5.02 1.23-.285-2.382-9.2-7.033c-1.307-1-2.291-1.542-2.95-1.625-.45-.058-.762.028-.937.256-.184.241-.23.78-.134 1.616l-.89.022-.247-6.281c1.604-.453 2.738-.635 3.4-.547.665.087 1.406.444 2.225 1.07l.654.5-.235-8.93zM387.933 97.8l6.656-2.622 1.328 4.31-5.043 1.961 11.942 9.599 4.578-2.357.134-3.09.983.44-.32 7.35c-1.631.656-2.946 1.28-3.944 1.871-.996.593-2.115 1.405-3.353 2.438l-.446-.359c.053-.678-.039-1.226-.277-1.644-.324-.59-1.003-1.301-2.037-2.131l-10.625-8.54c.537-2.122.678-4.53.424-7.225zM413.824 80.52l.86-.169c.018 1.504.122 2.596.309 3.277.186.68.594 1.501 1.223 2.461l5.286 8.07c.877 1.34 1.52 2.114 1.928 2.325.408.21.743.23 1.007.058.137-.09.256-.22.359-.388.052-.12.18-.512.384-1.175l.843.274-1.77 6.148c-1.459-.127-2.547-.385-3.264-.771-.718-.387-1.447-1.105-2.188-2.154l-2.761 8.306c-3.33-.35-5.557-1.385-6.683-3.106a9.108 9.108 0 0 1-1.421-3.704c-.249-1.734-.192-3.985.168-6.752l-5.455-3.344-.076-.693c.513-.288.89-.511 1.13-.668 1.485-.973 2.41-2.417 2.776-4.332a16.334 16.334 0 0 0 3.862-.678c1.302-.388 2.243-.772 2.822-1.15.264-.175.434-.353.512-.538.076-.187.126-.619.15-1.298zm-2.38 6.724l-7.767 2.243 5.488 3.365 5.458-.757-3.179-4.851zm3.704 5.654l-5.987.83c.306 2.004.84 3.587 1.6 4.75 1.342 2.048 3.373 3.129 6.094 3.242l1.35-4.155-3.057-4.667zM435.618 78.901l6.091.676 3.569 9.218c-1.183.592-2.179 1.32-2.988 2.184-.808.864-1.619 2.114-2.432 3.748-1.332-.224-2.444-.307-3.337-.246a9.091 9.091 0 0 0-2.677.608c-1.375.533-2.435 1.422-3.18 2.668-.276.46-.502.723-.677.792-.161.062-.353.044-.576-.055-.223-.098-.366-.228-.428-.39-.067-.175-.006-.468.187-.88.107-.243.276-.695.505-1.355l1.04-3.241 1.37-4.83-5.773-.725-3.154-8.146c1.326-1.051 2.306-2.03 2.938-2.938.633-.908 1.15-2.02 1.55-3.333 2.17.07 3.887.045 5.148-.072a9.61 9.61 0 0 0 2.465-.575c.822-.319 1.391-.744 1.707-1.277.317-.533.4-.996.247-1.39-.102-.262-.35-.467-.747-.615-.772-.288-1.251-.671-1.437-1.152-.175-.452-.19-.86-.046-1.227.145-.366.37-.609.679-.728.41-.159.85-.116 1.324.128.474.243.828.67 1.065 1.28a4.82 4.82 0 0 1 .314 1.986c-.032.699-.238 1.665-.618 2.9l-2.13 6.987zm-1.313 4.521l-2.549 9.108a13.714 13.714 0 0 1 1.611-1.18c.517-.317 1-.564 1.454-.74 1.682-.65 3.644-.773 5.885-.367l-2.453-6.338-3.948-.483zm-4.544-.527l3.603.39 2.344-8.18c-.877.648-1.674 1.11-2.391 1.388-1.801.698-3.782.778-5.942.239l2.386 6.163zM444.71 66.697l4.258-9.9.68-.192 1.576 6.512 4.708-1.333.745 2.633-4.707 1.333 4.447 15.704 3.154 1.214 1.153-1.598.79.546-3.96 5.571c-2.263-1.298-4.595-1.954-6.997-1.966l-.13-.464c.505-.597.796-1.15.871-1.66.103-.652 0-1.522-.309-2.613l-3.79-13.383-2.198.623-.292-1.027zM472.892 59.945l3.972 3.644-3.001 3.517-3.34-3.218-1.972 2.35 1.786 13.172 2.84 1.515 2.103-2.124.605.623-5.19 5.453c-1.391-.937-2.54-1.59-3.446-1.961a11.737 11.737 0 0 0-2.913-.762l-.07-.512c.609-.56.983-1.092 1.124-1.597.141-.506.12-1.433-.062-2.78l-1.257-9.271c-.158-1.166-.392-1.925-.703-2.277-.31-.351-.62-.506-.93-.464-.34.046-.76.44-1.26 1.182l-.65-.617 4.18-4.764c1.418.81 2.41 1.547 2.978 2.21.364.414.6 1.022.709 1.824l4.497-5.143zM494.899 58.988l.81.3c-.757 1.277-1.231 2.25-1.424 2.921-.193.67-.27 1.571-.234 2.703l.306 9.521c.051 1.58.194 2.564.43 2.95.235.389.508.577.819.567a1.17 1.17 0 0 0 .502-.143c.106-.074.414-.338.928-.793l.57.664-4.654 4.274c-1.164-.858-1.949-1.634-2.355-2.33-.405-.694-.652-1.675-.736-2.94l-6.599 5.582c-2.626-2.006-3.97-4.025-4.036-6.053a8.992 8.992 0 0 1 .707-3.854c.681-1.59 1.886-3.458 3.614-5.605l-2.879-5.624.292-.624c.581.022 1.012.027 1.295.018 1.753-.057 3.276-.798 4.569-2.224 1.104.6 2.305 1.072 3.603 1.415 1.297.342 2.288.502 2.972.48.312-.01.547-.073.707-.19.16-.116.424-.454.793-1.015zm-5.465 4.445l-7.7-2.102 2.895 5.657 4.99 2.169-.185-5.724zm.215 6.67l-5.473-2.379c-.773 1.846-1.137 3.456-1.093 4.827.078 2.416 1.234 4.371 3.469 5.867l3.274-2.81-.177-5.505zM549.052 54.322c1.424.811 2.422 1.715 2.997 2.713.813 1.408 1.03 2.841.652 4.301-.31 1.195-1.063 2.318-2.26 3.37-1.194 1.052-3.181 2.154-5.96 3.307 1.933.69 3.3 1.391 4.1 2.104.8.712 1.29 1.486 1.466 2.32.178.836.043 2.118-.405 3.848l-1.978 7.629c-5.416-.774-10.376-.107-14.883 2-1.054-1.22-2.11-2.165-3.165-2.833-1.699-1.103-3.61-1.93-5.735-2.481-2.613-.678-4.846-.688-6.702-.032-1.247.435-1.962 1.007-2.146 1.718-.07.267-.021.701.147 1.306.167.603.21 1.06.13 1.372a1.106 1.106 0 0 1-.533.69c-.278.165-.55.214-.815.144-.412-.106-.732-.398-.962-.875-.23-.477-.264-1.026-.103-1.645.149-.577.52-1.178 1.113-1.803 3.12-3.29 7.28-3.418 11.361-4.514 3.244-.871 4.607-3.019 5.457-6.294l1.693-6.534c.788-3.041 1.61-5.116 2.466-6.226.857-1.11 2.116-1.925 3.777-2.448 1.661-.523 5.09-.902 10.288-1.137zm-3.756 11.76c1.315-1.036 2.168-2.307 2.558-3.812.321-1.24.218-2.405-.31-3.494-.528-1.09-1.49-2.185-2.888-3.288-1.792.307-3.03.64-3.717.996a4.093 4.093 0 0 0-1.62 1.481c-.393.631-.801 1.765-1.226 3.4l-2.351 9.072c-.421 1.623-.885 2.805-1.393 3.548-.509.741-1.287 1.398-2.334 1.968-1.05.57-3.056 1.274-6.022 2.11 1.442.154 2.762.386 3.958.696 2.039.528 3.893 1.31 5.565 2.343l.871.629c.566.452 1.086.933 1.559 1.442 1.71-.396 3.46-.6 5.245-.613l.797-3.076 1.537-5.93c.264-1.018.246-1.895-.053-2.633-.298-.739-1.014-1.545-2.146-2.422-1.328.454-2.612.907-3.996 1.119-.175-1.21 2.146-1.482 2.926-1.81 1.074-.452 2.121-1.001 3.04-1.725zM565.698 68.994l2.33 4.854-4.089 2.146-1.9-4.223-2.703 1.446-3.235 12.878 2.071 2.459 2.738-1.188.33.802-6.837 3.128c-.942-1.385-1.764-2.418-2.468-3.098a11.721 11.721 0 0 0-2.418-1.788l.125-.5c.772-.293 1.317-.649 1.636-1.064.318-.417.644-1.283.975-2.601l2.278-9.063c.286-1.14.35-1.93.193-2.372-.158-.442-.387-.7-.69-.777-.332-.083-.868.127-1.607.629l-.374-.813 5.645-2.866c1.014 1.278 1.661 2.33 1.941 3.156.184.519.178 1.17-.02 1.954l6.08-3.099zM575.824 73.157l2.544 4.625-2.348.973-4.614 11.546c-.486 1.218-.701 2.05-.644 2.5.056.45.193.717.41.803a.93.93 0 0 0 .462.065c.216-.025.696-.153 1.438-.384l.262.857-6.023 1.87c-.815-1.261-1.245-2.315-1.286-3.16-.042-.846.295-2.16 1.008-3.945l4.735-11.851-.947-2.29 5.003-1.61zm4.495-6.63l2.703 1.08-4.763 3.42-.845-.337 2.905-4.163zM585.504 80.61l9.58-3.361.567.348-3.51 5.247 3.927 2.414-1.35 2.196-3.927-2.414-8.053 13.1 1.17 2.961 1.844-.219.126.896-6.39.807c-.542-2.397-1.575-4.432-3.098-6.106l.238-.387c.737-.03 1.306-.18 1.707-.453.517-.345 1.055-.972 1.614-1.88l6.863-11.164-1.835-1.128.527-.857zM613.363 100.042l.325.822c-1.49.295-2.556.598-3.198.908-.642.31-1.382.866-2.22 1.666l-7.047 6.73c-1.17 1.116-1.821 1.896-1.955 2.34-.135.444-.093.781.127 1.012.114.12.265.214.452.284.128.03.54.086 1.237.167l-.117.887-6.432-.63c-.14-1.472-.084-2.6.169-3.384.252-.784.831-1.64 1.738-2.568l-8.756-1.22c-.262-3.37.357-5.773 1.858-7.207a9.198 9.198 0 0 1 3.42-2.09c1.676-.565 3.922-.921 6.737-1.07l2.321-6.032.674-.202c.38.457.67.789.87.998 1.239 1.298 2.843 1.953 4.812 1.965a16.54 16.54 0 0 0 1.38 3.71c.625 1.223 1.18 2.086 1.662 2.593.22.231.43.367.628.41.198.041.636.012 1.315-.09zm-7.115-1.132l-3.652-7.302-2.335 6.066 1.75 5.282 4.237-4.046zm-4.937 4.715l-1.922-5.793c-1.934.67-3.41 1.49-4.424 2.46-1.789 1.708-2.49 3.923-2.104 6.647l4.375.579 4.075-3.893zM627.965 112.72l-.258 4.64 3.099.089.022.89c-1.455-.086-2.445-.035-2.967.152-.697.25-1.468.788-2.31 1.611l-7.806 7.625c-.723.706-1.147 1.345-1.274 1.916-.092.367-.053.637.118.812.15.153.71.308 1.685.465l-.107.889-6.308-.685c-.206-1.577-.172-2.75.102-3.52.274-.772.997-1.729 2.167-2.872l8.956-8.748.099-2.955-4.938-.586-9.07 8.86.005 2.412-5.183-.64-.496-5.173 2.412.06 8.33-8.138c1.185-1.157 1.866-2.057 2.045-2.701.122-.44.082-.764-.12-.97-.213-.218-.743-.34-1.589-.368l.107-.889 6.287.664c.218 1.661.235 2.816.052 3.464-.183.648-.645 1.333-1.387 2.058l-.591.578 8.919 1.06zM644.673 135.57l-1.19 4.492 3.017.714-.158.877c-1.408-.38-2.387-.529-2.937-.45-.734.104-1.596.475-2.589 1.112l-9.183 5.892c-.85.546-1.396 1.086-1.635 1.62-.164.34-.18.613-.048.819.116.18.634.445 1.556.796l-.284.848-6.04-1.944c.116-1.585.387-2.727.81-3.427.424-.7 1.325-1.491 2.702-2.375l10.537-6.762.693-2.874-4.718-1.57-10.67 6.847-.483 2.364-4.947-1.672.557-5.168 2.351.546 9.801-6.29c1.394-.893 2.243-1.638 2.548-2.233.209-.405.235-.73.079-.974-.165-.256-.66-.484-1.482-.68l.284-.849 6.024 1.92c-.122 1.67-.338 2.804-.648 3.403-.31.597-.902 1.176-1.774 1.736l-.697.446 8.524 2.836zM651.347 151.973l-1.535 5.05-2.336-1.001-11.488 4.758c-1.21.501-1.957.928-2.239 1.283-.282.355-.378.64-.29.855a.928.928 0 0 0 .276.375c.17.137.595.392 1.28.762l-.43.785-5.545-3.005c.333-1.466.788-2.508 1.364-3.129.577-.62 1.753-1.297 3.529-2.032l11.79-4.883.978-2.276 4.646 2.458zm7.885-1.41l1.114 2.69-5.773-1.023-.35-.841 5.009-.827zM660.73 179.678l-.144.872c-1.43-.513-2.499-.802-3.21-.865-.71-.064-1.629.032-2.76.287l-9.503 2.15c-1.578.357-2.538.69-2.881 1.002-.344.312-.48.622-.41.933.035.162.116.32.24.477.095.092.42.35.976.778l-.556.701-5.192-3.846c.635-1.336 1.263-2.275 1.883-2.817.62-.542 1.557-.979 2.812-1.309l-6.883-5.548c1.507-3.025 3.273-4.767 5.298-5.225a9.212 9.212 0 0 1 4.008-.036c1.728.378 3.838 1.226 6.329 2.546l5.092-3.98.682.173c.091.587.17 1.022.233 1.304.396 1.75 1.435 3.136 3.117 4.158a16.484 16.484 0 0 0-.722 3.894c-.094 1.369-.062 2.395.092 3.076.07.312.18.536.328.675.146.138.537.338 1.171.6zm-5.52-4.629l.62-8.14-5.12 4.003-1.214 5.43 5.714-1.293zm-6.66 1.507l1.331-5.957c-2.004-.42-3.69-.474-5.06-.164-2.412.545-4.152 2.085-5.221 4.62l3.454 2.744 5.497-1.243zM383.648 124.152l3.862 1.62-.057-3.856 6.477-1.468-2.203-5.39-3.797-1.593 1.515 3.705-6.738 2.755zM363.203 298.221l-.067.81c-1.346-.369-2.346-.556-3-.562-.653-.006-1.486.149-2.498.468l-8.512 2.68c-1.412.446-2.263.824-2.553 1.135-.29.31-.39.606-.303.884.046.146.13.285.254.42.093.077.406.292.939.643l-.47.667-5.004-3.056c.472-1.283.968-2.199 1.49-2.745.522-.548 1.342-1.019 2.459-1.415l-6.696-4.563c1.15-2.878 2.632-4.603 4.45-5.176a8.412 8.412 0 0 1 3.66-.333c1.611.217 3.605.837 5.983 1.86l4.356-4.034.662.099c.12.531.22.924.3 1.177.493 1.569 1.537 2.76 3.128 3.575a15.129 15.129 0 0 0-.368 3.613c.017 1.259.123 2.194.315 2.806.089.278.205.476.352.59.146.115.52.267 1.123.457zm-11.342-1.937l.741-5.55c-1.862-.234-3.406-.157-4.633.229-2.16.68-3.633 2.22-4.417 4.62l3.371 2.255 4.938-1.554zm5.943-1.871l-.054-7.499-4.393 4.069-.673 5.042 5.12-1.612zM373.3 312.633l-1.421 4.019 2.7.865-.232.799c-1.256-.449-2.138-.66-2.645-.628-.678.04-1.494.315-2.448.822l-8.832 4.69c-.819.435-1.358.887-1.615 1.357-.176.3-.21.548-.105.746.092.174.55.454 1.375.842l-.34.742-5.36-2.235c.232-1.43.569-2.449 1.012-3.054.442-.605 1.327-1.26 2.653-1.965l10.153-5.391.846-2.588-4.174-1.788-10.299 5.47-.635 2.114-4.373-1.869.9-4.67 2.108.658 9.433-5.01c1.341-.712 2.173-1.329 2.496-1.85.222-.356.27-.65.145-.886-.132-.248-.57-.491-1.315-.73l.34-.741 5.327 2.173c-.23 1.522-.509 2.544-.835 3.067-.326.524-.907 1.007-1.744 1.452l-.666.354 7.55 3.235zM383.782 325.168l1.234 6.165-3.902.41-.925-4.63-10.137 8.728 1.295 4.341 2.648.611-.547.77-6.292-1.45c-.295-1.508-.616-2.738-.962-3.69-.344-.95-.872-2.03-1.58-3.238l.387-.333c.572.151 1.056.156 1.453.018.557-.186 1.277-.657 2.154-1.413l9.03-7.775c1.737.79 3.786 1.286 6.144 1.486zM401.178 342.977l.311.749c-1.364.291-2.338.584-2.922.878-.584.295-1.252.816-2.005 1.564l-6.33 6.29c-1.05 1.044-1.633 1.77-1.747 2.18-.114.41-.07.718.137.925.108.108.247.194.42.256.117.026.493.073 1.128.14l-.11.808-5.85-.416c-.17-1.358-.15-2.399.063-3.124.213-.725.724-1.52 1.534-2.385l-8.044-.979c-.3-3.085.225-5.297 1.576-6.64a8.408 8.408 0 0 1 3.1-1.978c1.53-.547 3.586-.913 6.169-1.096l2.017-5.584.632-.216c.352.418.62.72.808.909 1.159 1.167 2.632 1.746 4.421 1.738a15.122 15.122 0 0 0 1.331 3.38c.594 1.11 1.117 1.891 1.57 2.347.205.207.4.328.582.363.183.035.585 0 1.209-.11zm-10.966 3.488l-1.89-5.271c-1.762.648-3.098 1.425-4.01 2.332-1.607 1.596-2.208 3.64-1.802 6.131l4.03.456 3.672-3.648zm4.42-4.392l-3.491-6.637-2.035 5.632 1.718 4.788 3.808-3.783zM410.906 358.893l1.981 5.095-5.844 6.63c-.957-.694-1.946-1.184-2.965-1.468-1.02-.283-2.347-.41-3.981-.379-.368-1.145-.76-2.058-1.173-2.74a8.07 8.07 0 0 0-1.578-1.867c-.985-.868-2.124-1.34-3.416-1.416-.477-.028-.78-.098-.905-.21-.115-.1-.18-.26-.194-.475-.014-.216.029-.382.13-.496.11-.124.369-.192.777-.201.237-.012.668-.057 1.29-.138l2.993-.534 4.413-.925-1.821-4.87 5.166-5.862c1.377.615 2.556.986 3.537 1.111.98.126 2.074.076 3.28-.151.84 1.748 1.567 3.097 2.18 4.047a8.595 8.595 0 0 0 1.472 1.717c.587.517 1.156.792 1.707.822.55.03.951-.095 1.2-.378.165-.187.224-.47.177-.848-.096-.734.01-1.273.314-1.619.285-.324.603-.504.953-.54.35-.035.635.044.856.239.295.26.443.629.444 1.105 0 .476-.193.935-.581 1.376-.398.451-.88.808-1.448 1.073-.568.264-1.419.502-2.555.713l-6.409 1.189zm-4.107.864l-8.254 1.734c.6.246 1.13.508 1.593.783.461.275.855.556 1.18.842 1.2 1.059 2.098 2.557 2.692 4.494l4.024-4.567-1.235-3.286zm-1.42-3.815l1.157 3 7.434-1.535c-.876-.418-1.569-.852-2.082-1.303-1.285-1.133-2.154-2.662-2.607-4.59l-3.903 4.428zM421.358 360.38l8.457-3.806.543.273-2.777 5.058 3.749 1.888-1.059 2.103-3.749-1.888-6.352 12.618 1.32 2.613 1.649-.316.181.778-5.757 1.228c-.68-2.144-1.778-3.92-3.296-5.326l.184-.366c.669-.087 1.176-.27 1.521-.552.445-.355.888-.97 1.329-1.847l5.411-10.748-1.767-.89.413-.82zM444.283 368.633l2.249 8.792-11.328 1.76-1.674 3.397 3.466 3.875 3.923-.577.187.778-8.187 1.29c-.91-1.276-1.694-2.256-2.351-2.94-.66-.683-1.65-1.543-2.976-2.576l.227-.46c.549-.041.987-.212 1.314-.51.326-.3.793-1.065 1.4-2.296l5.31-10.775c1.385.154 2.552.247 3.5.28.693.014 2.34.001 4.94-.039zm-3.922.749l-.33.005-4.205 8.533 6.658-1.035-2.123-7.503zM464.505 374.399l2.208 4.423-3.714 2.023-1.837-3.849-2.425 1.315-2.786 11.925 1.937 2.205 2.482-1.173.344.782-6.179 2.97c-.894-1.253-1.671-2.186-2.331-2.8a10.895 10.895 0 0 0-2.264-1.602l.108-.466c.703-.28 1.197-.614 1.482-1 .286-.385.57-1.184.854-2.396l1.948-8.333c.245-1.049.291-1.773.14-2.175-.152-.402-.367-.636-.647-.7-.306-.072-.793.118-1.46.569l-.334-.744 5.099-2.697c.95 1.151 1.559 2.102 1.829 2.851.176.47.18 1.065.013 1.784l5.533-2.912zM505.206 372.923l5.248-3.714c2.803 1.614 4.747 2.918 5.832 3.912 1.083.995 1.808 1.937 2.175 2.83.365.893.584 2.219.652 3.978l.482 12.362-5.775 5.53c-1.621-.584-3.022-1.003-4.202-1.255-1.18-.251-2.348-.4-3.507-.447l.296 7.58-7.228.281-1.018-26.087-.053-1.351c-.05-1.261-.209-2.179-.479-2.755-.269-.576-.75-1.043-1.44-1.403a4.455 4.455 0 0 0-2.265-.491c-.898.035-1.885.402-2.965 1.099l-.497-.595c.875-.862 1.742-1.504 2.601-1.926.86-.421 1.822-.653 2.884-.696 1.18-.045 2.261.161 3.247.619.985.458 1.696 1.049 2.133 1.772.436.725.693 1.716.768 2.976l2.255-1.663.856-.556zm10.314 13.973l-.234-6-.04-1.017c-.057-1.11-.26-2.028-.611-2.75-.35-.725-1.068-1.492-2.151-2.304-1.084-.811-2.663-1.687-4.739-2.63l-2.498 1.792.245 6.272.045 1.159.229 5.859.044 1.123.153 3.93c1.534-.008 3.051.157 4.553.493 1.5.337 3.27.939 5.306 1.806l-.258-6.61-.044-1.123zM529.046 378.28l6.894 4.828-6.916 8.084.881 3.435 4.785.621 2.424-2.76.59.464-4.989 5.776c-1.417-.348-2.565-.563-3.446-.647-.88-.083-2.103-.092-3.67-.03l-.121-.476c.367-.362.578-.746.63-1.154.051-.407-.08-1.224-.396-2.453l-2.759-10.753a43.645 43.645 0 0 0 2.635-1.92c.497-.408 1.65-1.413 3.458-3.014zm-2.31 2.9l-.23.198 2.2 8.575 4.078-4.766-6.048-4.006zM550.164 373.105l3.514 1.78 1.106-2.376.696.298c-.55 1.1-.84 1.885-.867 2.355-.037.628.122 1.408.478 2.342l3.3 8.657c.305.802.66 1.349 1.063 1.64.255.195.48.255.675.18.17-.065.484-.447.942-1.148l.655.389-2.707 4.677c-1.288-.378-2.185-.805-2.69-1.282-.506-.476-1.006-1.365-1.502-2.666l-3.794-9.957-2.256-1.084-2.14 3.649 3.856 10.117 1.839.784-2.205 3.828-4.193-1.39.851-1.808-3.531-9.266c-.502-1.317-.974-2.154-1.418-2.512-.302-.244-.569-.323-.8-.235-.243.093-.521.461-.832 1.106l-.655-.389 2.641-4.651c1.374.386 2.284.76 2.728 1.119.443.359.822.95 1.135 1.77l.25.653 3.861-6.58zM569.745 363.791l3.585 1.635 1.008-2.418.707.27c-.505 1.122-.762 1.918-.77 2.388-.013.628.177 1.402.571 2.322l3.647 8.515c.338.79.715 1.321 1.13 1.596.263.185.49.235.681.154.168-.073.466-.467.895-1.186l.671.363-2.516 4.782c-1.304-.326-2.216-.716-2.74-1.172-.525-.455-1.06-1.323-1.608-2.603l-4.195-9.794-2.297-.993-1.991 3.733 4.262 9.954 1.87.708-2.048 3.913-4.246-1.217.778-1.842-3.904-9.115c-.555-1.297-1.061-2.114-1.518-2.453-.312-.232-.58-.3-.808-.203-.24.103-.502.482-.787 1.14l-.67-.363 2.45-4.754c1.39.33 2.315.666 2.772 1.007.457.34.86.915 1.205 1.722l.276.644 3.59-6.733zM588.745 361.172l5.016-.567 4.57 6.786c-.847.695-1.515 1.467-2.007 2.315-.492.848-.913 2.01-1.264 3.484-1.113.066-2.024.204-2.733.417-.708.213-1.39.54-2.047.98a5.15 5.15 0 0 0-2.077 2.73c-.139.42-.273.674-.402.76-.119.08-.276.101-.473.065-.196-.037-.334-.114-.413-.231-.085-.126-.083-.374.004-.741.047-.216.11-.613.186-1.188l.227-2.816.197-4.183-4.811.495-4.039-6c.873-1.09 1.48-2.058 1.822-2.907.34-.85.55-1.842.629-2.976 1.768-.353 3.152-.696 4.151-1.027a8.117 8.117 0 0 0 1.891-.925c.606-.408.988-.855 1.146-1.344.16-.488.14-.877-.055-1.167-.13-.194-.37-.312-.716-.36-.676-.09-1.133-.312-1.371-.666-.225-.333-.312-.66-.263-.981.05-.322.187-.56.414-.712.302-.202.666-.25 1.092-.139.425.11.79.389 1.093.838.31.461.515.977.615 1.547.101.57.11 1.388.026 2.456l-.41 6.057zm-.217 3.89l-.366 7.82c.362-.478.72-.89 1.076-1.238a7.403 7.403 0 0 1 1.03-.857c1.228-.827 2.78-1.279 4.652-1.356l-3.155-4.685-3.237.316zm-3.748.374l2.966-.326.356-7.03c-.59.669-1.148 1.18-1.671 1.533-1.315.886-2.89 1.307-4.723 1.26l3.072 4.563zM594.931 351.28l1.427-5.119c1.343-.015 2.308.113 2.895.383.587.27 1.155.804 1.705 1.602l.242.35 2.165-7.162c2.863.588 4.977 1.872 6.342 3.852.734 1.065 1.194 2.314 1.38 3.75.187 1.434.027 3.03-.477 4.787-.504 1.756-1.519 4.302-3.044 7.637-.658 1.465-1.037 2.366-1.135 2.7-.222.706-.313 1.306-.27 1.799.026.36.15.7.373 1.022.376.546.994.866 1.854.96.86.095 1.734-.163 2.62-.774.64-.442 1.092-.918 1.355-1.429.13-.246.172-.607.126-1.085-.047-.479-.037-.818.03-1.02a.959.959 0 0 1 .386-.502c.213-.147.424-.207.633-.179a.715.715 0 0 1 .509.329c.233.338.212.844-.063 1.518-.404 1.058-1.192 1.992-2.366 2.8-1.226.845-2.37 1.205-3.432 1.079-1.062-.125-1.869-.589-2.42-1.388-.544-.79-.705-1.812-.482-3.066.102-.605.144-1.012.127-1.22-.044-.567-.143-1.053-.297-1.46-.153-.405-.446-.922-.88-1.551l-5.27-7.649c-.736-1.067-1.356-1.709-1.863-1.925-.396-.168-.703-.176-.925-.024-.179.123-.32.415-.422.875a5.85 5.85 0 0 1-.08.323l-.743-.212zm6.798-2.015l6.239 9.055c.744-2.12 1.026-3.984.847-5.594-.179-1.61-.634-2.947-1.367-4.01-.99-1.435-2.536-2.44-4.642-3.011l-1.077 3.56zM609.836 326.33l.315.376c-.446 1.068-.583 2.033-.411 2.896.172.862.761 1.895 1.77 3.097l11.106 13.249 2.755-.157.194-1.08.829.222-1.079 4.754c-1.563-.023-2.676.024-3.34.141-.664.118-1.451.382-2.362.79l-.249-.295c.138-.404.177-.8.116-1.19a3.394 3.394 0 0 0-.44-1.18c-.08-.138-.565-.747-1.455-1.83l-8.928-10.65c-.76-.904-1.322-1.503-1.687-1.798a3.752 3.752 0 0 0-1.27-.662c-.48-.148-1.138-.211-1.97-.191l-.032-.476c1.12-.505 2.368-.665 3.743-.481.098-1.41.328-2.51.696-3.305.367-.794.933-1.538 1.7-2.23zM625.644 329.238l7.002 6.234 5.166-2.264-8.124-7.232c-.706-.628-1.309-1.007-1.81-1.135-.5-.129-1.185-.064-2.054.19l-.775.02c.159-2.947.34-6.604.238-6.636.43.133.936-.034 1.374-.055.108.57.415 1.24.81 1.667.45.485 1.347.705 1.954.927.793.291 1.5.81 2.126 1.367l8.716 7.76a13.867 13.867 0 0 0-1.2 3.08c-.266 1.046-.44 2.37-.517 3.97-1.769.319-3.219.773-4.35 1.363-1.13.592-2.205 1.424-3.223 2.497l-.367-.327c.106-.566.069-1.045-.11-1.439-.178-.393-.679-.956-1.5-1.687-1.069-.952-2.128-1.914-3.191-2.872-.849-.764-1.686-1.682-2.661-2.29-.66-.411-1.266-.423-1.931-.007-.48.3-.863.745-1.009 1.3-.104.394.106.854-.396.94-.224.037-.488-.135-.73-.087.101-1.195.21-2.396.357-3.596.098-.804.225-1.6.31-2.406.029-.27.134-.535.016-.782.424-.203.71-.502 1.241-.553 1.51-.144 2.721.417 3.853 1.351l.785.702zM634.07 304.91l.551-.518c.691 1.093 1.26 1.845 1.702 2.26.444.412 1.11.826 2.003 1.24l7.499 3.48c1.244.578 2.063.85 2.455.818.393-.031.647-.172.76-.417.06-.13.089-.278.087-.447-.016-.112-.099-.457-.25-1.034l.74-.178 1.512 5.25c-1.128.582-2.044.897-2.745.945-.701.048-1.56-.142-2.578-.57l1.746 7.332c-2.578 1.242-4.666 1.493-6.265.75a7.805 7.805 0 0 1-2.713-2.055c-.965-1.151-1.944-2.816-2.933-4.997l-5.48.044-.418-.493c.255-.439.434-.77.538-.992.643-1.385.668-2.857.076-4.416.907-.62 1.75-1.367 2.528-2.24.78-.871 1.295-1.578 1.546-2.119.114-.245.157-.454.129-.625-.029-.169-.192-.509-.49-1.018zm1.314 5.99l-4.644 5.175 5.529-.044 3.613-3.043-4.498-2.087zm5.232 2.429l-3.97 3.345c1.126 1.32 2.227 2.233 3.306 2.733 1.9.882 3.863.754 5.887-.384l-.917-3.695-4.306-2zM641.796 288.859l3.823-.955-.719-2.52.722-.229c.304 1.191.6 1.973.885 2.347.381.499 1.014.986 1.895 1.46l8.16 4.386c.755.406 1.382.588 1.877.543.32-.02.53-.12.629-.304.086-.16.072-.655-.04-1.484l.75-.135 1.014 5.308c-1.22.557-2.178.821-2.872.79-.694-.028-1.654-.372-2.881-1.032l-9.385-5.045-2.415.655.77 4.16 9.535 5.128 1.904-.611.838 4.336-4.08 1.695-.54-1.926-8.733-4.695c-1.242-.667-2.148-.992-2.716-.973-.388.013-.642.13-.759.346-.123.23-.091.69.096 1.382l-.75.135-1.048-5.247c1.292-.607 2.225-.92 2.796-.939.57-.019 1.243.18 2.016.596l.617.331-1.389-7.503zM647.262 275.952l3.892-2.237.856 1.97 9.89 3.7c1.04.39 1.753.556 2.134.498.38-.056.606-.179.676-.366a.767.767 0 0 0 .043-.396c-.027-.184-.152-.593-.374-1.226l.726-.235 1.719 5.123c-1.054.71-1.94 1.088-2.655 1.137-.717.05-1.84-.213-3.369-.785l-10.156-3.8-1.902.826-1.48-4.21zm-5.68-3.756l.86-2.302 3 4.008-.283.757-3.578-2.463zM653.188 253.015l.46-.602c.859.967 1.54 1.618 2.045 1.953.505.335 1.23.635 2.178.898l7.966 2.216c1.32.368 2.173.503 2.555.408.384-.095.611-.274.684-.535.037-.137.041-.288.012-.456-.034-.107-.172-.433-.415-.978l.702-.297 2.344 4.934c-1.018.758-1.87 1.219-2.555 1.38-.684.162-1.563.113-2.636-.145l2.914 6.95c-2.341 1.645-4.36 2.232-6.06 1.76a7.796 7.796 0 0 1-3.01-1.588c-1.14-.978-2.375-2.462-3.705-4.452l-5.402.933-.493-.418c.18-.474.304-.83.37-1.067.41-1.47.195-2.927-.643-4.37a14.013 14.013 0 0 0 2.132-2.62c.627-.987 1.02-1.768 1.18-2.342.073-.262.082-.474.026-.638-.057-.162-.273-.47-.648-.925zm2.27 5.697l-3.742 5.86 5.45-.941 3.07-3.59-4.779-1.33zm5.556 1.545l-3.373 3.946c1.325 1.121 2.56 1.842 3.707 2.16 2.018.562 3.933.116 5.746-1.336l-1.504-3.498-4.576-1.272zM332.29 269.887c-.76-2.337-1.845-5.566-4.252-6.683.399-.701.916-1.553 1.43-2.218 3.746 2.056 5.725 5.12 10.15 6.065 2.716.58 5.501.406 8.357-.522 1.615-.526 3.352-1.217 5.212-2.073 1.86-.856 3.45-1.499 4.773-1.93 1.174-.382 2.422-.483 3.744-.302 1.322.182 2.457.62 3.406 1.318a9.662 9.662 0 0 1 2.404 2.561c.481.76 1.024 1.985 1.629 3.675l-.698.891c-.889-1.789-1.889-3.018-3-3.686-1.11-.67-2.457-.746-4.04-.231-.865.282-2.084.776-3.658 1.483-2.702 1.235-4.942 2.14-6.72 2.72-2.4.78-4.674.93-6.823.452-2.15-.478-5.542-2.13-10.178-4.954 1.67 2.303 2.84 4.483 3.508 6.536.61 1.873.9 3.64.872 5.298-.027 1.658-.38 3.607-1.056 5.845l3.022 1.746-.622.98-7.548-4.559c.73-2.149 1.115-4.18 1.153-6.094.037-1.914-.317-4.02-1.065-6.318z" fill="red" overflow="visible"/><path d="M684.336 225.709c0 101.645-82.4 184.045-184.045 184.045-101.645 0-184.045-82.4-184.045-184.045 0-101.645 82.4-184.045 184.045-184.045 101.645 0 184.045 82.4 184.045 184.045z" fill="none" stroke="#ffff17" stroke-width="4.368" stroke-linecap="round" stroke-linejoin="round" overflow="visible"/><path d="M634.86 225.89c0 74.42-60.33 134.75-134.75 134.75s-134.75-60.33-134.75-134.75S425.69 91.14 500.11 91.14s134.75 60.33 134.75 134.75z" fill="none" stroke="#ffff17" stroke-width="4.368" stroke-linecap="round" stroke-linejoin="round" overflow="visible"/><g style="text-align:start;line-height:125%;-inkscape-font-specification:Lucida Calligraphy" font-size="35.683" font-weight="400" fill="red" overflow="visible" font-family="Lucida Calligraphy"><path d="M637.433 241.159l.257-.59h.666c.583 0 .945-.09 1.084-.27.14-.182.327-.808.561-1.88l.942-4.746c.133-.685.2-1.148.2-1.389 0-.292-.28-.46-.837-.504l-.866-.067-.01-.59 4.12-.523-.723 3.044-.933 4.7c-.19.995-.285 1.537-.285 1.626 0 .4.273.6.818.6h.847l.028.589zM646.29 241.749h.589l-.01.39c0 .99.679 1.484 2.036 1.484 1.198 0 2.313-.647 3.344-1.94 1.03-1.294 1.64-2.82 1.83-4.576-1.268 1.687-2.672 2.53-4.213 2.53-.9 0-1.65-.303-2.245-.908-.596-.606-.894-1.365-.894-2.279 0-1.534.548-2.893 1.645-4.076 1.097-1.182 2.356-1.774 3.777-1.774 1.23 0 2.208.425 2.934 1.275.726.85 1.09 2 1.09 3.453 0 2.34-.798 4.406-2.393 6.197-1.595 1.792-3.436 2.687-5.522 2.687-.64 0-1.477-.152-2.511-.456zm5.335-10.445c-.862 0-1.6.425-2.211 1.275-.612.85-.918 1.87-.918 3.063 0 1.96.751 2.94 2.254 2.94.977 0 1.812-.39 2.507-1.166.694-.777 1.041-1.708 1.041-2.792 0-.964-.25-1.758-.751-2.383-.501-.624-1.142-.937-1.922-.937zM663.069 241.397c-1.281 0-2.294-.37-3.04-1.108-.745-.74-1.117-1.743-1.117-3.011 0-1.858.594-3.436 1.783-4.732 1.19-1.297 2.634-1.946 4.333-1.946 1.32 0 2.355.36 3.106 1.08.752.72 1.127 1.71 1.127 2.973 0 1.896-.596 3.494-1.788 4.794-1.192 1.3-2.66 1.95-4.404 1.95zm.123-.59c1.091 0 1.947-.4 2.569-1.198.425-.54.797-1.369 1.117-2.488.32-1.12.48-2.145.48-3.077 0-1.909-.808-2.863-2.425-2.863-1.205 0-2.19.643-2.958 1.93-.767 1.288-1.151 2.937-1.151 4.947 0 1.833.79 2.75 2.368 2.75zM670.783 244.212c.254-1.395 1.03-2.847 2.33-4.356l5.87-6.23 1.027-1.152h-7.828l.665-1.645h8.951l-.428 1.065c-5.212 5.555-7.996 9.582-8.351 12.08z"/></g><g style="text-align:start;line-height:125%;-inkscape-font-specification:Lucida Calligraphy" font-size="35.683" font-weight="400" fill="red" overflow="visible" font-family="Lucida Calligraphy"><path d="M321.598 241.159l.257-.59h.666c.584 0 .945-.09 1.085-.27.14-.182.326-.808.56-1.88l.943-4.746c.133-.685.2-1.148.2-1.389 0-.292-.28-.46-.838-.504l-.865-.067-.01-.59 4.119-.523-.723 3.044-.932 4.7c-.19.995-.286 1.537-.286 1.626 0 .4.273.6.818.6h.847l.029.589zM329.912 244.212c.254-1.395 1.03-2.847 2.33-4.356l5.87-6.23 1.027-1.152h-7.828l.665-1.645h8.951l-.428 1.065c-5.212 5.555-7.996 9.582-8.351 12.08zM339.805 243.461l1.246-1.265c.964.875 1.947 1.313 2.949 1.313.83 0 1.544-.289 2.14-.866.596-.577.894-1.265.894-2.064 0-.875-.361-1.587-1.084-2.136-.723-.548-1.661-.823-2.816-.823-.203 0-.466.02-.79.058l.667-1.465c.577 0 1.132.022 1.664.066.9-.222 1.65-.63 2.245-1.222.596-.593.894-1.22.894-1.879 0-.583-.2-1.062-.599-1.436-.4-.374-.913-.561-1.54-.561-1.447 0-2.354.704-2.721 2.111h-.59l.314-2.13c1.37-.375 2.55-.562 3.538-.562 1.04 0 1.876.199 2.507.595.63.396.946.921.946 1.574 0 1.402-1.293 2.635-3.88 3.7 1.965.61 2.948 1.722 2.948 3.34 0 1.172-.544 2.2-1.631 3.081-1.088.882-2.36 1.322-3.82 1.322a8.412 8.412 0 0 1-3.481-.751zM356.366 241.397c-1.281 0-2.294-.37-3.04-1.108-.744-.74-1.117-1.743-1.117-3.011 0-1.858.595-3.436 1.784-4.732 1.189-1.297 2.633-1.946 4.333-1.946 1.319 0 2.354.36 3.105 1.08.752.72 1.127 1.71 1.127 2.973 0 1.896-.596 3.494-1.788 4.794-1.192 1.3-2.66 1.95-4.404 1.95zm.124-.59c1.09 0 1.946-.4 2.568-1.198.425-.54.797-1.369 1.118-2.488.32-1.12.48-2.145.48-3.077 0-1.909-.809-2.863-2.426-2.863-1.205 0-2.19.643-2.958 1.93-.767 1.288-1.15 2.937-1.15 4.947 0 1.833.789 2.75 2.368 2.75z"/></g><path d="M468.117 396.12l2.97-2.15 2.195 2.927c-.11 2.01-.734 3.56-1.874 4.65-1.14 1.09-2.704 1.634-4.695 1.634l.836-.925c1.553-.15 2.483-1.19 2.792-3.12zM499.423 79.367l2.97-2.15 2.195 2.927c-.11 2.01-.734 3.56-1.874 4.65-1.14 1.09-2.704 1.634-4.695 1.635l.836-.926c1.553-.15 2.483-1.19 2.792-3.12z" font-size="56" font-weight="400" fill="red" overflow="visible" font-family="Lucida Calligraphy"/><g overflow="visible"><path d="M501.497 321.426c.267.061.975 1.316 1.564 2.252 2.162 3.563 4.174 7.103 6.491 10.574 2.625 3.77 6.345 5.637 10.62 6.898 6.957 1.892 14.96 1.323 26.716-8.071 11.756-9.395 25.942-19.267 38.51-27.545 12.567-8.277 15.587-15.714 15.938-22.914.122-4.456-.495-8.586-3.27-12.247-2.584-3.277-5.334-6.275-8.055-9.432-1.296-1.507-2.504-2.848-1.978-4.012.571-.908 2.12-1.24 3.793-1.635 4.057-.955 8.042-1.762 12.06-2.893 4.395-1.332 7.317-4.3 9.838-7.977 3.949-6.032 5.88-13.821.578-27.905-5.302-14.083-10.964-30.411-14.953-44.921-3.988-14.51-10.137-19.668-16.877-22.227-4.2-1.493-8.314-2.179-12.654-.672-3.915 1.446-7.605 3.127-11.449 4.74-1.85.773-3.516 1.525-4.41.672-.635-1.203-.387-2.648-.282-3.958.345-4.153.804-8.201.97-12.372.091-4.592-1.818-8.292-4.537-11.825-4.233-5.268-10.498-9.326-23.65-9.244-.876.006-1.781.035-2.72.078-15.034.691-32.299 1.035-47.331.345-15.033-.691-21.856 3.546-26.372 9.165-2.718 3.534-4.628 7.233-4.536 11.825.166 4.17.625 8.219.97 12.372.153 1.856.33 3.552-.516 4.255-.937.513-2.47-.16-4.145-.86-3.844-1.612-7.534-3.31-11.45-4.755-4.339-1.507-8.453-.821-12.653.672-6.74 2.558-12.889 7.732-16.877 22.242-3.989 14.51-8.994 31.042-14.297 45.125-5.302 14.084-3.37 21.873.58 27.905 2.52 3.677 5.442 6.645 9.838 7.977 4.017 1.131 8.018 1.938 12.075 2.893 1.446.342 2.793.642 3.488 1.267 1.167 1.19-.193 2.705-1.674 4.427-2.72 3.157-5.47 6.155-8.055 9.431-2.774 3.662-3.407 7.776-3.285 12.232.35 7.2 3.371 14.637 15.939 22.914 12.567 8.278 26.753 18.15 38.509 27.545 11.755 9.394 19.758 9.963 26.715 8.07 4.276-1.26 7.996-3.112 10.62-6.881 2.318-3.472 4.33-7.026 6.492-10.59 1.19-1.957 2.208-3.735 3.722-2.94z" fill="#ffff17"/><path d="M500.069 315.896c1.028.067 1.434.985 2.34 2.493 2.025 3.379 3.893 6.75 6.063 10.041 2.459 3.574 6.013 6.867 9.953 6.539 14.818-1.235 20.932-21.581 32.94-30.457 13.38-9.89 36.742-9.563 43.09-25.053 1.514-3.694-.484-8.12-3.082-11.592-2.421-3.106-4.999-5.963-7.547-8.957-.8-.946-1.78-1.926-1.969-3.21.88-.933 2.239-1.137 3.436-1.427 3.8-.905 7.54-1.679 11.304-2.752 4.117-1.262 8.307-3.649 9.227-7.539 3.86-16.308-15.236-29.957-20.317-45.918-4.56-14.325 2.307-34.403-8.964-44.218-2.997-2.61-7.784-2.062-11.848-.633-3.667 1.37-7.127 2.992-10.727 4.52-1.564.662-2.994 1.278-3.872.8-.564-1.13-.344-2.478-.247-3.703.323-3.937.751-7.788.906-11.742.086-4.354-.864-9.12-4.235-11.208-3.533-2.19-7.336-2.949-11.337-2.853-12.003.29-25.655 8.254-38.08 8.223-14.869-.036-31.622-12.855-44.326-5.037-3.379 2.079-4.338 6.855-4.252 11.209.155 3.954.6 7.787.923 11.725.142 1.74.302 3.34-.461 4.02h-.017c-1.249.211-2.46-.425-3.592-.9-3.6-1.529-7.076-3.133-10.744-4.504-4.064-1.429-8.844-1.982-11.847.617-12.593 10.898-5.059 33.285-10.217 49.221-4.628 14.302-21.858 26.469-18.438 41.115.909 3.895 5.11 6.31 9.227 7.573 3.763 1.072 7.504 1.83 11.304 2.735 1.67.4 3.197.734 3.609 1.668-.194 1.26-1.168 2.23-1.961 3.17-2.548 2.992-5.126 5.85-7.547 8.956-2.598 3.471-4.596 7.897-3.081 11.592 6.347 15.49 29.71 15.163 43.09 25.053 12.007 8.875 18.121 29.222 32.94 30.456 3.94.329 7.493-2.964 9.952-6.538 2.17-3.29 4.022-6.663 6.047-10.041.906-1.508 1.328-3.377 2.357-3.444z" fill="red"/></g><g overflow="visible"><path d="M497.916 177.233c-.18-.04-.659-.86-1.057-1.471-1.462-2.327-2.822-4.639-4.388-6.906-1.775-2.462-4.29-3.682-7.18-4.505-4.703-1.236-10.113-.865-18.06 5.271-7.947 6.136-17.537 12.584-26.033 17.99-8.496 5.407-10.538 10.264-10.775 14.967-.082 2.91.335 5.608 2.21 8 1.748 2.14 3.607 4.097 5.446 6.16.876.984 1.693 1.86 1.337 2.62-.386.593-1.433.81-2.564 1.068-2.742.623-5.436 1.15-8.152 1.89-2.972.87-4.947 2.808-6.651 5.21-2.67 3.94-3.976 9.027-.391 18.225 3.584 9.199 7.412 19.863 10.108 29.34 2.697 9.478 6.853 12.847 11.41 14.518 2.839.975 5.62 1.423 8.554.439 2.646-.944 5.141-2.043 7.74-3.095 1.25-.506 2.377-.997 2.982-.44.428.786.26 1.73.19 2.585-.234 2.713-.544 5.357-.656 8.08-.062 3 1.23 5.416 3.067 7.724 2.862 3.441 7.097 6.092 15.987 6.038a48.628 48.628 0 0 0 1.84-.051c10.163-.451 21.834-.676 31.997-.225 10.162.451 14.774-2.316 17.827-5.987 1.838-2.307 3.129-4.724 3.066-7.723-.111-2.724-.422-5.368-.655-8.08-.103-1.213-.224-2.32.349-2.78.633-.335 1.67.104 2.802.562 2.598 1.053 5.093 2.161 7.74 3.106 2.933.984 5.715.536 8.554-.44 4.556-1.67 8.713-5.05 11.41-14.527 2.696-9.477 6.08-20.274 9.664-29.473 3.584-9.199 2.278-14.286-.391-18.225-1.704-2.402-3.68-4.34-6.651-5.21-2.716-.74-5.42-1.267-8.163-1.89-.978-.224-1.889-.42-2.358-.828-.79-.777.13-1.767 1.131-2.891 1.84-2.062 3.698-4.02 5.446-6.16 1.875-2.392 2.303-5.079 2.22-7.99-.237-4.702-2.279-9.56-10.775-14.966-8.496-5.406-18.085-11.854-26.032-17.99-7.948-6.136-13.358-6.508-18.06-5.272-2.891.824-5.406 2.033-7.18 4.495-1.567 2.267-2.927 4.59-4.388 6.916-.805 1.28-1.493 2.44-2.517 1.921z" fill="#ffff17"/><path d="M497.831 182.41c-.679-.043-.947-.629-1.545-1.591-1.338-2.156-2.571-4.307-4.005-6.407-1.624-2.28-3.97-4.382-6.573-4.172-9.787.787-13.825 13.77-21.756 19.434-8.836 6.311-24.266 6.102-28.459 15.987-1 2.357.32 5.182 2.035 7.397 1.6 1.982 3.302 3.805 4.985 5.715.528.604 1.175 1.23 1.3 2.05-.58.594-1.478.724-2.269.91-2.51.577-4.98 1.07-7.466 1.755-2.719.806-5.486 2.329-6.094 4.811-2.549 10.407 10.063 19.116 13.419 29.301 3.012 9.14-1.524 21.953 5.92 28.216 1.98 1.665 5.14 1.316 7.825.404 2.422-.875 4.707-1.909 7.085-2.884 1.033-.423 1.977-.816 2.557-.511.372.721.227 1.581.164 2.363-.214 2.513-.497 4.97-.599 7.493-.057 2.778.57 5.82 2.797 7.152 2.333 1.397 4.845 1.881 7.488 1.82 7.927-.184 16.944-5.267 25.15-5.247 9.82.023 20.885 8.203 29.276 3.214 2.231-1.326 2.864-4.374 2.807-7.152-.102-2.523-.395-4.97-.609-7.482-.093-1.11-.2-2.132.305-2.566h.01c.825-.134 1.626.272 2.373.575 2.378.975 4.674 2 7.096 2.874 2.684.911 5.84 1.265 7.825-.394 8.316-6.954 3.34-21.24 6.747-31.408 3.057-9.127 14.437-16.89 12.178-26.236-.6-2.486-3.375-4.027-6.094-4.832-2.485-.685-4.956-1.168-7.466-1.746-1.102-.255-2.111-.468-2.383-1.064.127-.804.77-1.424 1.295-2.022 1.683-1.91 3.385-3.734 4.984-5.716 1.716-2.215 3.035-5.04 2.035-7.397-4.192-9.884-19.622-9.676-28.459-15.986-7.93-5.664-11.968-18.647-21.755-19.435-2.603-.21-4.95 1.892-6.573 4.172-1.434 2.1-2.657 4.252-3.994 6.407-.599.963-.877 2.155-1.557 2.198z" fill="red"/></g><path d="M352.13 219.082c1.186-.947 2.072-2.409 1.968-3.25-.104-.84.94-2.513 2.318-3.717 2.757-2.407 2.69-3.25-.672-8.516-1.402-2.195-3.439-3.967-5.33-4.636-1.684-.595-3.17-1.415-3.304-1.823-.487-1.484-5.886-2.386-8.711-1.455-4.698 1.548-9.209 4.527-10.315 6.81-.643 1.326-.501 4.578.375 8.593 1.292 5.923 1.661 6.602 4.448 8.177 1.672.944 4.137 1.756 5.478 1.804 1.34.048 3.427.364 4.637.702 2.609.728 6.126-.31 9.108-2.69zm-6.517-3.277c-.201-.613 3.21-3.445 4.76-3.953 1.398-.459.596 1.582-1.076 2.74-2.686 1.859-3.396 2.093-3.684 1.213zm-11.767-.711c-2.487-1.864-3.286-3.979-2.01-4.398.478-.156 1.326.38 1.884 1.191.559.812 3.113 2.059 3.74 2.627 4.288 3.006.39 3.233-3.614.58zm18.22-6.162c.508-2.344 3.095-4.54 3.149-1.995.02.92-.665 2.581-1.824 2.961-.509.167-1.202-.59-1.325-.966zm-11.056.948c-2.426-1.415-2.568-4.566-.24-5.33.924-.303 2.88-.113 4.349.422 2.462.897 2.592 1.135 1.678 3.067-1.27 2.684-3.258 3.317-5.787 1.841zm4.057-2.375c-.254-.774-3.912-1.667-4.344-1.06-.748 1.054 1.41 2.482 2.975 1.968.828-.271 1.444-.68 1.37-.908zm-8.748 3.195c-.968-3.187-1.014-5.967 1.454-.142.511 1.208 2.473 2.166 1.878 2.361-.55.18-2.918-.955-3.332-2.219zm4.904-10.244c1.37-.457 6.939.513 7.514 2.267.28.855-.571.833-3.092-.08-2.13-.77-5.06-1.484-4.67-2.104l.248-.083zm-6.989.65c1.24-1.746 2.619-.32 1.54 1.534-1.01.763-2.628 3.18-2.905 2.597-.459-.965.804-4.06 1.365-4.132z" fill="red" overflow="visible"/><g overflow="visible"><path d="M455.339 191.952l.523-19.61c12.3-3.392 31.852-16.09 46.53-17.896 14.464 1.577 26.324 14.226 40.787 18.157l.034 16.284-.232 3.962-87.642-.897z" fill="red"/><path d="M455.416 176.102c29.222-7.473 58.609-6.686 87.83-.114v12.761c-29.221-5.739-58.608-8.794-87.83.114v-12.761z" fill="#ffff17" fill-rule="evenodd" stroke="#ffff17" stroke-width=".056778800000000004" stroke-linecap="round" stroke-linejoin="round"/><g fill="red" fill-rule="evenodd"><path d="M539.306 180.08l2.529.193-.257 3.343-2.529-.195.257-3.342zM542.4 176.62l.936.072.047 3.258-1.239.013.257-3.343zM541.837 183.96l1.452.06.052 3.418-1.76-.135.256-3.343z"/></g><g fill="red" fill-rule="evenodd"><path d="M510.467 175.987l2.992.204-.312 3.428-2.991-.205.311-3.427zM514.137 172.445l2.991.205-.312 3.427-2.99-.204.31-3.428zM513.452 179.973l2.992.204-.312 3.428-2.991-.205.311-3.427zM520.053 176.627l-2.991-.205-.312 3.428 2.991.204.312-3.427z"/></g><g fill="red" fill-rule="evenodd"><path d="M535.845 182.541l-3.289-.363-.369 3.343 3.289.363.369-3.343zM536.569 175.279l-3.29-.363-.368 3.343 3.289.363.369-3.343zM532.533 178.445l-3.289-.363-.369 3.343 3.289.363.369-3.343zM529.294 174.386l-3.288-.363-.37 3.344 3.29.363.368-3.344zM528.564 181.708l-3.289-.363-.369 3.343 3.289.363.369-3.343z"/></g><g fill="red" fill-rule="evenodd"><path d="M505.913 179.077l-3.307-.083-.084 3.362 3.307.083.084-3.362zM506.019 171.779l-3.308-.083-.084 3.363 3.308.083.084-3.363zM502.266 175.276l-3.308-.083-.084 3.363 3.308.082.084-3.362zM498.695 171.507l-3.308-.083-.084 3.363 3.308.082.084-3.362zM498.588 178.864l-3.307-.083-.085 3.363 3.308.082.084-3.362z"/></g><g fill="red" fill-rule="evenodd"><path d="M481.206 175.87l2.938-.191.222 3.43-2.937.191-.223-3.43zM484.228 171.885l2.938-.19.223 3.43-2.938.191-.223-3.431zM484.717 179.42l2.938-.19.223 3.43-2.938.191-.223-3.431zM490.617 175.244l-2.937.19.222 3.432 2.938-.19-.223-3.432z"/></g><g fill="red" fill-rule="evenodd"><path d="M476.402 180.466l-3.261.559.568 3.315 3.26-.559-.567-3.315zM475.093 173.286l-3.261.559.568 3.315 3.26-.559-.567-3.315zM472.088 177.443l-3.261.559.568 3.315 3.26-.559-.567-3.315zM467.855 174.436l-3.261.56.568 3.315 3.261-.56-.568-3.315zM469.174 181.675l-3.261.559.568 3.315 3.261-.559-.568-3.315z"/></g><g fill="red" fill-rule="evenodd"><path d="M459.562 183.795l-2.532.14-.185-3.347 2.533-.14.184 3.347zM456.95 187.63l-1.553.087-.09-3.353 1.457-.08.185 3.347zM456.543 180.28l-1.242.069.095-3.363.962-.053.185 3.347z"/></g><path d="M543.723 172.466c-.177-.112-36.348-10.063-87.744 0l-6.837-7.348c6.9 2.647 17.063 11.98 16.238-2.385 15.503 11.745 21.044 4.025 24.927-4.008 6.016 6.037 10.64 16.146 22.791 1.05 4.777 10.294 12.516 12.298 23.75 4.527-.917 5.725-.276 9.914 12.288 2.343l-5.413 5.821z" fill="red" stroke="#ffff17" stroke-width=".53339315"/><path d="M543.866 172.514c-.198-.151-36.584-10.536-87.745 0l-9.259-9.924c29.195 15.06 29.91-3.629 29.913-3.722 15.7 14.924 19.398 3.345 25.355-3.245 4.606 7.454 8.097 17.293 22.221 4.39 4.214 10.683 14.03 10.576 27.35 3.722l-7.835 8.779z" fill="red" stroke="#ffff17" stroke-width=".53339315"/><path d="M543.795 172.657c-.688-.186-40.436-9.917-87.745 0l-7.122-7.73c12.237 4.95 23.509 8.365 28.63-3.244 6.954 3.418 12.702 12.81 24.643-3.15 5.364 10.196 12.35 12.35 21.51 3.723 4.087 6.312 10.154 10.622 26.209 3.912l-6.125 6.49z" fill="#ffff17"/><path d="M466.918 161.847a1.433 1.433 0 1 1-2.866 0 1.433 1.433 0 0 1 2.866 0zM491.765 157.756a1.433 1.433 0 1 1-2.866 0 1.433 1.433 0 0 1 2.866 0zM478.171 158.059a1.433 1.433 0 1 1-2.866 0 1.433 1.433 0 0 1 2.866 0zM448.807 162.321a1.433 1.433 0 1 1-2.866 0 1.433 1.433 0 0 1 2.866 0zM514.654 158.761a1.433 1.433 0 1 1-2.866 0 1.433 1.433 0 0 1 2.866 0zM525.977 159.044a1.433 1.433 0 1 1-2.866 0 1.433 1.433 0 0 1 2.866 0zM538.634 163.549a1.433 1.433 0 1 1-2.866 0 1.433 1.433 0 0 1 2.866 0zM553.057 163.466a1.433 1.433 0 1 1-2.866 0 1.433 1.433 0 0 1 2.866 0zM504.208 154.167a1.955 1.955 0 1 1-3.91 0 1.955 1.955 0 0 1 3.91 0z" fill="#ffff17" fill-rule="evenodd"/></g><path d="M499.297 295.396s5.028-11.587 30.824-12.68c0 0 12.68-.875 12.68-16.616l-.744-73.227c-28.239-6.81-56.776-7.496-85.713.008l-.745 73.227c0 15.74 12.68 16.615 12.68 16.615 25.798 1.093 30.826 12.68 30.826 12.68l.192-.007z" fill="#82cce2" stroke="#ffff17" stroke-width="1.955" overflow="visible"/><path d="M542.499 252.888h-86.646l.249-26.705h86.23z" fill="none" stroke="#ffff17" stroke-width="1.951" overflow="visible"/><g fill="#fff"><path d="M506.426 238.668a7.495 7.495 0 1 1-14.99 0 7.495 7.495 0 0 1 14.99 0zM480.357 238.342a7.495 7.495 0 1 1-14.989 0 7.495 7.495 0 0 1 14.99 0zM531.843 238.668a7.495 7.495 0 1 1-14.99 0 7.495 7.495 0 0 1 14.99 0z" overflow="visible"/></g><g font-size="12" font-weight="400" font-family="Dialog"><g overflow="visible"><path d="M480.969 270.3c-4.111-1.069-8.222.533-8.222.533s-2.5-2.86-2.86-6.96c-.354-4.11 1.076-7.152 4.112-7.513 3.036-.354 9.829-.182 8.931 5.718-.892 5.896-1.961 8.223-1.961 8.223" fill="#d9ab00"/><path d="M480.05 269.043s1.608 4.3 1.968 6.444c.354 2.138.354 2.853-2.145 2.67-2.504-.171-6.078-.171-7.33-.171-1.246 0-2.321-.183-1.43-2.145.898-1.967 1.253-5.008 1.253-5.008" fill="#d9ab00"/><path d="M475.21 277.913c.537-1.607.714-2.676 1.967-3.574 1.252-.886 3.75-1.601 3.75-1.601s2.5 4.998.887 5.358c-1.601.354-6.604-.183-6.604-.183M476.52 269.78c0-1.973-.177-3.042.36-4.654.532-1.602 1.607-1.785 1.43-3.746-.183-1.967-.183-2.327-1.075-2.682-.892-.36-1.43 0-1.785 2.5-.36 2.498-.182 3.928-.537 4.825-.36.887-.892 2.144-.892 2.144s.177-.532 0-2.859c-.183-2.327-.715-2.327 0-4.294.715-1.961.892-2.859 1.43-3.39.531-.538 1.069-1.07 1.069-1.07s3.219.36 3.75 1.247c.538.897 2.683.715 2.145 4.294-.532 3.574-1.43 5.89-1.607 6.97-.177 1.058-.537 1.247-.537 1.247l-3.751-.532" fill="#352b00"/><path d="M480.584 270.29c-4.11-1.07-8.222.531-8.222.531s-2.499-2.859-2.859-6.959c-.354-4.111 1.075-7.153 4.111-7.513 3.037-.355 9.83-.183 8.932 5.718-.892 5.895-1.962 8.222-1.962 8.222zM480.762 270.644s.892 2.687 1.252 4.831c.354 2.139.354 2.854-2.144 2.67-2.505-.17-6.078-.17-7.33-.17-1.247 0-2.322-.184-1.43-2.145.898-1.967 1.252-5.009 1.252-5.009" fill="none" stroke="#000" stroke-width=".8862447999999999" stroke-linecap="square" stroke-miterlimit="10"/></g><g overflow="visible"><path d="M493.862 272.07s6.294-.195 8.655-.195c2.354-5.108 3.54-6.288 2.748-9.84-.781-3.535-2.748-6.089-4.715-6.089-1.967 0-4.328-1.767-6.494.787-2.16 2.554-3.341 3.928-2.948 7.08.394 3.148 2.754 8.256 2.754 8.256M493.597 272.147c-.787 3.136-1.38 4.721-1.574 7.076-.2 2.36 0 2.947 2.161 2.554 2.166-.388 4.92-.582 7.081-.582 2.166 0 3.147.582 2.355-2.36-.782-2.953-1.369-6.494-1.369-6.494" fill="#d9ab00"/><path d="M499.148 270.287c0-2.51.355-1.257-.537-3.94-.892-2.68-2.145-3.573-1.253-5.357.893-1.784 1.075-2.144 1.607-2.853.538-.715.715-.36 1.252.171.538.538 1.43.183 1.607 3.569.178 3.402.715 3.928-.354 5.54-1.075 1.613-1.967 2.687-3.574 3.214-1.607.543-3.396 1.43-3.396 1.43s1.606-.355 3.933-.172a65.03 65.03 0 0 0 4.283.171l.183 1.79c.177 1.784.532 1.252-1.252 2.499-1.79 1.252-2.144 1.424-2.322 2.864-.177 1.43-1.606 2.316-1.606 2.316s2.498.172 4.283-.172c1.79-.354 3.219 1.43 2.504-1.429-.715-2.853-1.43-7.868-1.43-7.868s1.607-3.745 2.322-5.17c.715-1.429 1.252-4.481 0-6.254-1.247-1.79-.71-3.757-3.03-3.929-2.322-.183-3.397-1.795-4.29-.183-.891 1.613-1.783 3.214-2.143 4.638-.355 1.43-.355 1.961.537 3.574.886 1.612 1.064 2.681 1.601 3.573.538.898.892 1.424.892 1.424" fill="#352b00"/><path d="M493.984 272.339s6.294-.194 8.654-.194c2.355-5.109 3.54-6.289 2.748-9.84-.781-3.535-2.748-6.09-4.715-6.09-1.967 0-4.327-1.767-6.493.787-2.161 2.554-3.341 3.929-2.948 7.081.393 3.147 2.754 8.256 2.754 8.256zM493.854 272.544c-.786 3.136-1.38 4.72-1.573 7.075-.2 2.36 0 2.948 2.16 2.554 2.167-.388 4.92-.581 7.082-.581 2.166 0 3.147.581 2.354-2.36-.78-2.954-1.368-6.494-1.368-6.494" fill="none" stroke="#000" stroke-width=".8862447999999999" stroke-linecap="square" stroke-miterlimit="10"/></g><path d="M517.646 271.285c-1.253-1.955-.892-1.612-1.43-2.853-.537-1.247-2.144 0-1.607-2.687.538-2.67.178-4.638 1.43-6.067 1.252-1.43 2.321-2.5 5.363-2.5 3.036 0 2.144.173 3.928 2.5 1.785 2.316 2.5 2.138 1.785 5.712-.715 3.574-.715 3.042-1.607 4.111-.892 1.075-.892 1.962-.892 1.962s-1.967-.178-3.397-.36c-1.43-.172-3.573.714-3.573.714-.178 1.973-.178 2.687-.532 4.826-.355 2.144-.892 3.402 1.424 2.86 2.327-.533 4.47-.887 5.9-.716 1.43.183 2.145.183 1.43-1.784-1.086-2.975-1.43-5.9-1.43-5.9" fill="#d9ab00"/><path d="M522.751 278.362c.178-1.613 1.607-1.43 1.07-2.687-.538-1.242-1.967-1.784-1.784-2.327.177-.527 2.499-1.424 2.859-.887.354.543 1.246 4.288 1.606 4.826.355.543-1.79 1.43-1.79 1.43l-1.96-.355M523.664 271.228c.36-.887 1.607-.36 0-1.418-1.607-1.08-1.246-.366-1.07-2.682.178-2.327.355-2.86.178-4.289-.177-1.429.892-1.08 1.607 0 .715 1.064 1.252 1.962 2.144 2.145.892.171 1.252-.543 1.075-1.613-.183-1.075-.715-1.075-1.79-2.676-1.069-1.612-1.246-2.681-2.321-2.681-1.07 0-2.499-1.785-1.967 1.069.537 2.859.36 2.144.183 5.186-.183 3.03 0 2.144 0 3.928 0 1.784.177 2.86.177 2.86l1.779.17" fill="#352b00"/><path d="M517.642 271.032c-1.252-1.956-.892-1.613-1.43-2.854-.537-1.247-2.144 0-1.606-2.687.537-2.67.177-4.638 1.429-6.067 1.252-1.43 2.322-2.499 5.363-2.499 3.037 0 2.145.172 3.929 2.499 1.784 2.316 2.498 2.139 1.784 5.712-.715 3.574-.715 3.042-1.607 4.111-.892 1.075-.892 1.962-.892 1.962s-1.967-.177-3.397-.36c-1.429-.172-3.573.714-3.573.714-.178 1.973-.178 2.688-.532 4.826-.355 2.145-.892 3.402 1.424 2.86 2.327-.533 4.471-.887 5.9-.715 1.43.182 2.145.182 1.43-1.785-1.086-2.975-1.252-5.357-1.252-5.357" fill="none" stroke="#000" stroke-width=".887" stroke-linecap="square" stroke-miterlimit="10"/></g><g stroke="#000"><path d="M516.07 221.016l-35.212.43c-9.967.675-5.778-.687-5.211-.931 1.307-.818-.493-.826-1.658-.999l-2.676-.188c-8.343-1.3 1.088-.566 7.646-.65 15.251.69 29.83-.556 45.585 1.392 2.762.874-2.71.925-8.475.946z" fill="#d9ab00" stroke-width=".2"/><path d="M514.139 214.78l10.92-3.765-.28-.53-10.695 3.683.055.613z" fill="#d9ab00" stroke-width=".3"/><path d="M514.196 211.348h-30.332l-2.688-.022.043 2.509 2.513-.044-.02 1.734h30.484v-4.177z" fill="#d9ab00" stroke-width=".55"/><path d="M483.979 211.468l-11.462-13.295c-2.659-2.768-.231-3.868 4-3.513 19.598 3.32 32.984 2.246 44.349-.26 5.307-.327 7.262 1.872 4.593 4.294l-11.503 12.774H483.98z" fill="#fff" stroke-width=".8" overflow="visible"/><path d="M485.33 211.064c-3.899-5.97-6.183-13.124-2.525-15.636M512.401 211.379c3.899-5.97 6.942-13.58 3.283-16.092M494.098 211.206c-1.739-4.169-4.68-7.06-3.415-14.419M504.985 211.143c1.738-4.168 4.68-7.059 3.414-14.418M499.41 211.51l.076-14.495" fill="none" stroke-width=".8" overflow="visible"/><g fill="none"><path d="M491.186 216.039a4.625 4.625 0 1 1-9.25 0 4.625 4.625 0 0 1 9.25 0z" stroke-width=".55" stroke-linecap="round" stroke-linejoin="round"/><path d="M486.627 220.66l-.005-9.169" stroke-width=".5"/><path d="M491.266 215.955l-9.107-.058M489.768 218.993l-6.487-6.48M483.159 219.342l6.48-6.487" stroke-width=".5" overflow="visible"/></g><g overflow="visible" fill="none"><path d="M516.171 215.924a4.625 4.625 0 1 1-9.25 0 4.625 4.625 0 0 1 9.25 0z" stroke-width=".55" stroke-linecap="round" stroke-linejoin="round"/><path d="M511.612 220.546l-.005-9.17" stroke-width=".5"/><path d="M516.25 215.84l-9.106-.057M514.753 218.88l-6.487-6.48M508.144 219.228l6.48-6.487" stroke-width=".5" overflow="visible"/></g></g><path d="M667.725 219.082c1.186-.947 2.072-2.409 1.968-3.25-.104-.84.94-2.513 2.318-3.717 2.757-2.407 2.69-3.25-.672-8.516-1.402-2.195-3.439-3.967-5.33-4.636-1.684-.595-3.17-1.415-3.304-1.823-.487-1.484-5.886-2.386-8.711-1.455-4.698 1.548-9.209 4.527-10.315 6.81-.643 1.326-.5 4.578.375 8.593 1.292 5.923 1.661 6.602 4.449 8.177 1.671.944 4.136 1.756 5.477 1.804 1.34.048 3.427.364 4.637.702 2.609.728 6.126-.31 9.108-2.69zm-6.517-3.277c-.201-.613 3.21-3.445 4.76-3.953 1.398-.459.596 1.582-1.076 2.74-2.686 1.859-3.396 2.093-3.684 1.213zm-11.767-.711c-2.486-1.864-3.286-3.979-2.01-4.398.478-.156 1.326.38 1.884 1.191.559.812 3.113 2.059 3.74 2.627 4.289 3.006.39 3.233-3.614.58zm18.22-6.162c.508-2.344 3.095-4.54 3.149-1.995.02.92-.664 2.581-1.824 2.961-.509.167-1.202-.59-1.325-.966zm-11.056.948c-2.426-1.415-2.568-4.566-.24-5.33.924-.303 2.88-.113 4.349.422 2.462.897 2.592 1.135 1.678 3.067-1.27 2.684-3.258 3.317-5.787 1.841zm4.057-2.375c-.254-.774-3.912-1.667-4.343-1.06-.75 1.054 1.409 2.482 2.974 1.968.828-.271 1.444-.68 1.37-.908zm-8.748 3.195c-.968-3.187-1.014-5.967 1.454-.142.511 1.208 2.473 2.166 1.878 2.361-.55.18-2.917-.955-3.332-2.219zm4.904-10.244c1.37-.457 6.939.513 7.514 2.267.28.855-.571.833-3.092-.08-2.13-.77-5.06-1.484-4.67-2.104l.248-.083zm-6.989.65c1.24-1.746 2.62-.32 1.54 1.534-1.01.763-2.628 3.18-2.905 2.597-.459-.965.804-4.06 1.365-4.132z" fill="red" overflow="visible"/><g><g stroke-width=".695" stroke="#000"><path d="M437.85 936.254c9.787 1.565 18.762-5.249 24.22-2.334l5.706 3.511 1.974-5.62c4.675-.373 42.559-18.356 60.597-55.093l-7.888-3.522c-10.963 21.43-25.108 39.014-38.599 44.28l-4.291-1.586-2.311 5.075c-90.247 23.593-103.896-13.135-163.18-44.581l-3.15 5.127 18.37 12.76c59.287 36.045 64.508 38.7 97.383 41.047 12.012 5.218 18.592 9.805 20.376 15.35-19.56 4.854-43.89 11.213-43.927 33.915.3 4.473 3.14 10.566-9.6 20.255 26.762 12.726 60.574-7.12 59.265-38.96 16.837 33.05 43.968 15.954 75.599 8.482-7.19-1.858-14.38.439-21.57-5.574l-10.42-14.056c-14.623-14.092-30.135-6.865-45.435-4.7-3.56-5.981-8.792-10.825-13.12-13.776z" fill="#006400" overflow="visible" transform="matrix(.54632 -.00826 .00826 .54632 226.35 36.082)"/><path d="M499.534 970.763c-15.726 3.67-32.3-1.023-48.05-13.9-9.398 10.685-20.106 30.17-40.756 34.714" fill="none" overflow="visible" transform="matrix(.54632 -.00826 .00826 .54632 226.35 36.082)"/><path d="M424.614 985.54c-1.735 7.979-.789 11.47-.789 11.47M491.209 971.804c4.856 5.203 4.856 4.857 4.856 4.857M461.56 963.73c9.713-4.509 14.038-5.455 14.038-5.455" fill="#006400" overflow="visible" transform="matrix(.54632 -.00826 .00826 .54632 226.35 36.082)"/></g><g overflow="visible" stroke="#000" stroke-width=".5"><path d="M446.888 893.311c7.267 3.326 6.11 7.562 35.626 8.483l4.362-2.424c6.503-.908 4.667-.612 9.451-3.393-19.183-16.242-26.43-7.046-24.961-11.39l-24.478 8.724z" fill="#006400" transform="matrix(.73113 .20552 -.20552 .73113 380.524 -229.922)"/><path d="M462.883 890.16c10.236 6.993 20.358 3.878 20.358 3.878" fill="none" transform="matrix(.73113 .20552 -.20552 .73113 380.524 -229.922)"/></g><path d="M456.426 892.44c5.878 4.144 3.098 12.617 4.113 19.192-4.512-12.397-10.972-19.969-23.707-18.661l19.594-.532z" fill="#006400" stroke="#000" stroke-width=".5" overflow="visible" transform="matrix(.73113 .20552 -.20552 .73113 380.524 -229.922)"/><path transform="matrix(.73113 .20552 -.20552 .73113 380.524 -229.922)" d="M416.76 891.315c-5.877 4.144-3.097 12.617-4.112 19.193 4.512-12.397 12.628-18.787 25.362-17.48l-21.25-1.713z" fill="#006400" stroke="#000" stroke-width=".5"/><g stroke="#000" stroke-width=".5"><path d="M418.249 847.792l1.343-3.525c30.361-4.256 57.811 5.56 80.746 31.186l-1.805 3.023c-22.934-25.625-49.923-34.94-80.284-30.684z" fill="#006400" overflow="visible" transform="matrix(.73113 .20552 -.20552 .73113 380.524 -229.922)"/><path d="M504.036 891.966c-4.999-2.027-9.66-9.21-7.491-14.557 2.168-5.349 9.788-7.062 15.386-4.915 3.447 1.274 3.979 6.593 1.787 12-2.191 5.406-6.833 8.627-9.682 7.472z" fill="red" fill-rule="evenodd" overflow="visible" transform="matrix(.73113 .20552 -.20552 .73113 380.524 -229.922)"/><path d="M499.422 887.555c-2.932-5.552-4.682-7.83-.02-9.657 2.235-.96 3.858-.069 5.535.66-1.457-1.906-4.43-3.623-1.812-6.039 5.257.1 5.528.122 6.937-.793-6.454-2.606-8.568-.288-11.398 1.22-6.356 3.387-4.857 11.496.758 14.61z" fill="#006400" fill-rule="evenodd" overflow="visible" transform="matrix(.73113 .20552 -.20552 .73113 380.524 -229.922)"/></g><g stroke="#000" stroke-width=".5"><path d="M551.082 1083.18l-.82-3.683c23.006-20.266 51.327-27.18 84.58-18.412l.157 3.517c-33.253-8.769-60.911-1.688-83.917 18.577z" fill="#006400" overflow="visible" transform="matrix(.73113 .20552 -.20552 .73113 339.221 -421.973)"/><path d="M636.78 1074.464c-4.083-1.026-7.158-5.743-5.926-10.682 1.233-4.938 5.542-8.11 10.243-6.618l14.131 5.825-.745.758.355.818-.491.718.047.997-.799 1.078.294.912-.518.821-.019 1.235-.677 1.329.18.886-.656 1.038.221.92-.582.568.083.828-15.141-1.43z" fill="red" fill-rule="evenodd" overflow="visible" transform="matrix(.73113 .20552 -.20552 .73113 339.221 -421.973)"/><path d="M643.116 1057.96c-6.74-1.332-10.505-.237-9.12 5.06.544 2.37 2.222 3.154 3.8 4.077-2.398-.05-5.54-1.437-5.944 2.103.568 4.273 3.798 3.885 5.887 5.495-6.573-.553-8.127-2.449-8.176-9.347-.053-7.427 8.219-10.879 13.553-7.389z" fill="#006400" fill-rule="evenodd" overflow="visible" transform="matrix(.73113 .20552 -.20552 .73113 339.221 -421.973)"/></g><path d="M475.992 1185.104l-38.54-.575c-39.994-13.444-99.76-73.4-100.583-124.462 17.049-9.047 24.203 23.884 50.974 27.8 9.287 1.247 52.73 62.532 65.055 70.464l23.094 26.773z" class="fil2 str1" fill="red" fill-rule="evenodd" stroke="#ffff17" stroke-width="4.961" overflow="visible" transform="matrix(.33717 .09478 -.09478 .33717 469.84 67.83)"/><path d="M551.043 1101.125c19.533-31.132 69.178-20.079 12.705-98.965-29.191-29.573-36.591-23.69-65.636-21.614-14.523 1.038-14.916-5.74-27.306-9.02-6.195-1.64-13.12-5.504-21.977-4.24-8.856 1.264-12.85 14.835-33.558 26.533-63.432 35.83-57.11 36.771-35.448 90.65 6.087 15.141 38.118 22.067 37.151 39.706-4.17 76.129 144.436 98.625 134.07-23.05z" class="fil2 str1" fill="red" fill-rule="evenodd" stroke="#ffff17" stroke-width="4.961" overflow="visible" transform="matrix(.33717 .09478 -.09478 .33717 469.84 67.83)"/><path d="M493.938 1137.364c.416-.16.632-.512.75-1.219.093-.566.433-1.234.787-1.553.34-.308.622-.694.622-.861 0-.166.166-.433.37-.597.327-.257.763-.975 2.143-3.513.186-.345 1.117-1.355 2.066-2.25.95-.892 2.26-2.27 2.91-3.055 1.194-1.449 2.067-2.08 4.3-3.1 1.75-.801 6.047-2.218 7.888-2.6 1.972-.408 2.388-.61 3.552-1.719.518-.494 1.398-1.051 1.953-1.233.558-.184 1.481-.65 2.055-1.029.574-.38 1.319-.775 1.653-.878.73-.215 2.7-1.46 3.163-2 .182-.21.479-.382.657-.382.182 0 .476-.168.653-.373.179-.206.53-.377.784-.377s1.117-.619 1.92-1.374c.8-.755 1.63-1.374 1.843-1.374.653 0 3.348-1.23 4.317-1.971.5-.384 1.203-.847 1.564-1.026.356-.182 2.293-1.529 4.301-2.999 2.008-1.465 4.382-3.04 5.279-3.492 1.128-.574 2.083-1.34 3.099-2.48 2.211-2.484 2.938-4.542 2.223-6.3-.67-1.656-2.625-5.323-4.004-7.509-.831-1.323-1.517-2.52-1.517-2.656 0-.14.262-.315.579-.395.4-.102 1.27.221 2.803 1.033 3.215 1.701 4.13 2.024 5.813 2.04 1.803.014 3.351-.733 5.846-2.828.887-.746 2.262-1.71 3.056-2.147.794-.436 1.506-.89 1.586-1.01.08-.121 1.473-.626 3.1-1.124 1.848-.562 3.679-1.329 4.881-2.042 1.06-.63 2.394-1.36 2.966-1.622 2.517-1.154 3.535-2.035 4.418-3.827.483-.988.606-1.608.558-2.882-.055-1.481-.228-1.935-1.952-5.103-2.04-3.742-2.125-4.19-1.154-6.02.675-1.272 1.976-4.704 2.105-5.553.188-1.245-.402-3.177-1.19-3.897-.384-.35-1.345-.87-2.133-1.156-2.146-.775-2.09-.7-2.172-3.034-.146-4.325-1.423-6.307-5.892-9.152-1.228-.781-2.426-1.607-2.662-1.835-.831-.805-1.06-2.916-.695-6.405.187-1.764.32-4.867.293-6.893-.04-3.275-.106-3.79-.61-4.624-1.246-2.08-3.19-2.68-8.38-2.6l-2.522.04-1.077-2.123c-.594-1.168-1.608-2.716-2.257-3.439-.646-.722-1.362-1.652-1.588-2.065-.444-.815-2.23-2.96-3.066-3.684-.287-.247-1.1-.743-1.811-1.098-2.382-1.197-3.432-2.121-4.184-3.69-.794-1.645-.78-1.5-.509-5.198l.196-2.676-.713-.31c-.61-.267-1.128-.21-3.623.399-1.6.391-3.614.932-4.475 1.204-2.06.649-4.93.48-6.946-.414-2.21-.981-4.868-1.9-5.485-1.9-.313 0-.84-.247-1.176-.548-.442-.399-1.026-.576-2.167-.655-1.54-.107-1.583-.13-2.918-1.61-1.977-2.186-2.724-3.764-3.473-7.31-.48-2.278-.75-2.652-1.966-2.71-.752-.033-.897.06-1.103.71-.947 3.01-1.394 3.735-2.82 4.56-.77.447-1.655.814-1.964.814-1.307 0-9.212 4.423-9.212 5.152 0 .423-1.053 1.62-1.296 1.475-.117-.069-.474-.604-.789-1.19-.984-1.821-2.316-3.165-3.89-3.927-3.68-1.782-7.327-5.522-7.699-7.9-.222-1.42-1.093-2.36-2.182-2.36-.946 0-1.137.226-1.869 2.226-.804 2.203-1.826 3.79-2.872 4.467-1.449.942-1.943.947-3.805.04-1.41-.683-2.067-.844-3.85-.933-1.976-.1-2.201-.06-2.827.482-.407.353-.788 1.045-.939 1.715-.357 1.576-1.322 4.06-1.734 4.465-.29.287-.526.182-1.477-.645-.622-.543-1.351-1.061-1.612-1.154-.673-.234-1.668.053-1.877.543-.404.954-.574 3.455-.302 4.47.258.953.227 1.113-.292 1.645-.316.323-1.45 1.007-2.514 1.52-1.13.54-2.009 1.135-2.1 1.416-.178.533-.412.609-.792.26-.261-.238-1.406-.588-3.758-1.146-2.452-.58-2.874-.026-3.01 3.953-.11 3.29-.554 5.008-1.318 5.115-.954.134-3.363-1.68-5.575-4.2-1.589-1.813-2.603-2.723-3.042-2.737-.162-.01-.435-.174-.61-.374-.61-.704-3.025-2.085-4.154-2.378-1.01-.26-1.191-.242-1.584.164-.558.578-1.025 2.557-1.306 5.54-.207 2.215-.282 2.427-1.454 4.124-.677.983-1.742 2.36-2.364 3.06-.617.7-1.303 1.655-1.517 2.126-.487 1.06-1.29 1.975-1.731 1.975-.186 0-1.327-.296-2.542-.658-2.182-.653-2.242-.657-6.139-.395-3.453.233-4.253.376-6.541 1.162-1.462.502-3.526.999-4.693 1.128-1.145.129-2.435.399-2.867.602-.428.203-1.838.443-3.129.533-1.287.091-2.72.276-3.18.413-.46.135-1.75.347-2.868.47-3.156.347-5.611.898-6.668 1.497-.53.301-.979.62-.99.71-.01.088-.072.445-.13.792-.083.474.193.966 1.128 2.01 1.924 2.145 3.695 3.977 5.342 5.532.828.782 1.73 1.922 2.004 2.533.273.61.8 1.57 1.169 2.13l.672 1.02-.67 1.195c-.921 1.65-.739 2.486.92 4.227 1.69 1.774 1.69 2.03.01 3.22-.63.445-1.215.624-2.066.628-.896 0-1.6.235-2.856.937-2.24 1.252-2.689 1.872-2.689 3.713.004 2.276.124 2.718 1.035 3.802.462.555.843 1.067.843 1.14 0 .288 1.378 2.04 2.222 2.828.499.464.906.911.906.993 0 .08.36.704.796 1.384.792 1.235.792 1.245.388 2.41-.221.642-.467 1.841-.543 2.663-.075.822-.185 2.01-.245 2.645-.06.635-.471 2.491-.92 4.124-.446 1.635-.878 3.934-.958 5.108-.142 1.983-.098 2.231.578 3.564.405.79 1.37 2.108 2.151 2.935 1.189 1.26 1.652 1.565 2.887 1.9 1.338.364 1.6.56 2.907 2.171.788.972 1.592 2.168 1.786 2.654.535 1.33.63 9.493.147 12.487-.365 2.248-.357 2.375.119 2.874.276.287.64 1.196.807 2.019.338 1.629 1.062 3.193 1.873 4.034.472.491.579.507 1.252.184.745-.357.982-.938 1.173-2.843l.115-1.159c.01-.156.523-.528 1.131-.824.61-.296 1.403-.693 1.763-.881.357-.192 1.414-.543 2.344-.782.93-.241 1.882-.587 2.107-.77.472-.38 1.021-.437 1.021-.105 0 .124.214.173.472.108.297-.074.566.06.717.368.776 1.546 7.96 6.796 9.298 6.796.226 0 1.742.49 3.366 1.09 1.627.6 3.636 1.28 4.459 1.507 1.678.463 2.02.832 2.673 2.9.242.757.543 1.6.673 1.875.126.276.467 1.21.753 2.075.672 2.062 1.093 2.677 2.823 4.143l1.438 1.222 2.7-.167c2.06-.13 3.213-.349 4.844-.93 1.647-.581 2.388-.723 3.18-.604 2.17.326 3.873 2.476 3.801 4.792-.017.499.123.836.388.934.23.084.353.247.282.361-.182.28.415 2.092 1.275 3.873.543 1.124.978 1.615 1.912 2.179.67.403 1.466.732 1.775.736.816.01 2.72-1.62 3.504-3 .832-1.451 1.734-2.722 2.369-3.318.261-.243.475-.647.475-.892 0-.619 1.9-2.033 2.733-2.033.376 0 1.501.18 2.502.396 1.402.305 1.921.545 2.253 1.033.242.351.757.767 1.149.923.875.353 3.762 2.829 6.577 5.639l3.291 3.28c.697.691 1.56 1.27 2.119 1.416 1.44.385 6.174 5.13 6.783 6.805.15.413.385.752.521.752.138 0 .422.394.63.877.393.905.79 1.034 1.867.62h.001zm-.934-9.804c-1.189-1.826-6.919-6.545-9.638-7.936a22.08 22.08 0 0 1-2.78-1.752 40.278 40.278 0 0 0-2.475-1.738c-1.363-.857-1.205-.72-2.99-2.572-.832-.864-1.605-1.437-1.929-1.437-.3 0-.927-.225-1.398-.498-.468-.278-1.264-.501-1.766-.507-.503 0-1.43-.123-2.067-.261-2.523-.557-6.356.948-6.919 2.717-.179.565-2.04 2.048-2.57 2.048-.15 0-.53.235-.848.522l-.578.52-.183-.585c-.267-.854-1.515-3.561-1.71-3.705-.092-.07-.376-.555-.634-1.08-.257-.524-.712-1.116-1.013-1.321-2.222-1.484-2.448-1.564-4.511-1.602-2.923-.05-3.45-.042-4.871.095-4.765.465-4.392.486-5.299-.323-.459-.406-1.192-1.21-1.628-1.788-.776-1.03-.942-1.44-1.734-4.23-.213-.756-.601-1.72-.863-2.142-.257-.42-.736-1.488-1.057-2.372-.543-1.482-.579-1.888-.428-5.107.09-1.923.407-4.736.709-6.251.606-3.067 1.04-8 .827-9.43-.182-1.213.36-2.534.942-2.29.23.098 1.12.339 1.98.538 2.654.617 3.22 1.029 5.802 4.213 1.327 1.635 2.61 3.338 2.85 3.783.243.448.536.813.65.813.12 0 .214.174.214.388 0 .622 7.905 8.742 9.512 9.769.575.368 1.454 1.09 1.956 1.61 1.205 1.241 2.54 1.979 3.593 1.979.471 0 1.12.167 1.441.368.372.234 1.624.425 3.446.53 2.404.135 3.223.078 5.132-.363 1.252-.285 2.677-.683 3.168-.88.773-.309.994-.309 1.6 0 .392.193.911.349 1.16.349.25 0 .665.227.923.501.262.276.566.501.68.501.116 0 .999.568 1.968 1.26 1.926 1.382 4.396 2.598 5.823 2.87 1.072.203 1.63.244 6.125.481 3.302.173 3.426.161 4.756-.467.753-.357 1.458-.647 1.565-.647.326 0 2.655-1.656 3.449-2.453.407-.407.974-1.249 1.259-1.868.285-.619 1.092-1.84 1.796-2.713.703-.873 1.427-1.942 1.61-2.377.407-.955 1.477-1.26 3.904-1.122.468.029.579.144.455.475-.15.417-.14.417.199 0 .388-.479 1.468-.604 1.468-.17 0 .534 1.953 2.012 3.155 2.388.679.212 1.685.782 2.234 1.264 1.725 1.515 2.998 2.32 4.102 2.605.588.149 1.21.384 1.384.522.178.138.646 1.223 1.046 2.412.987 2.95.95 4.618-.155 6.816-.8 1.587-.914 1.696-2.87 2.673-1.121.563-2.612 1.154-3.316 1.318-1.876.436-3.89 1.4-4.965 2.374-.52.469-1.082.854-1.246.854-1.565 0-9.423 3.295-11.387 4.777-2.159 1.625-3.957 3.595-5.12 5.608-.462.793-2.688 2.86-3.084 2.86-.179 0-.562-.364-.851-.81zm24.726-32.18c0-.138-.051-.25-.114-.25-.064 0-.189.112-.278.25-.087.136-.035.25.115.25.15 0 .277-.114.277-.25zm15.677 5.64c-.403-2.299-1.092-3.328-2.774-4.156a34.531 34.531 0 0 1-2.37-1.288c-.586-.36-1.56-.796-2.164-.97-.606-.171-1.592-.726-2.194-1.231-1.332-1.116-2.044-1.493-2.834-1.496-.775 0-2.52-1.124-3.495-2.248-.605-.699-.752-1.101-.73-2 .037-1.529.243-1.888 1.415-2.472.767-.384 1.307-.471 2.257-.369.937.102 1.77-.027 3.305-.509 1.13-.357 2.243-.647 2.477-.647.59 0 2.178 1.677 2.724 2.874.455.997 1.62 1.874 2.49 1.874 1.027 0 1.388-1.252.766-2.672-.356-.81-.384-.94-.633-2.952-.104-.824-.394-1.944-.646-2.487-.526-1.124-.383-1.59.826-2.675.405-.365.817-.984.914-1.375.097-.39.436-1.05.755-1.46.316-.414.776-1.12 1.021-1.575.455-.847.638-1.082 2.307-2.973.537-.607.976-1.227.976-1.377 0-.146.334-.788.742-1.421.406-.635 1.124-2.081 1.595-3.217 1.022-2.453 2.432-4.097 4.135-4.818.668-.285 1.571-.84 2-1.234.43-.393 2.249-1.47 4.04-2.392 1.792-.923 3.553-1.868 3.911-2.104.945-.618 1.45-.759 3.746-1.035 1.137-.136 2.369-.396 2.745-.576.373-.181 1.18-.39 1.792-.465.614-.074 1.845-.467 2.738-.868a56.29 56.29 0 0 1 2.48-1.06c1.571-.593 1.794-1.85.53-3.006-.455-.418-1.103-.826-1.437-.906-.832-.2-2.166.361-2.166.912 0 .674-1.814 1.258-3.778 1.218-1.424-.03-1.877.078-3.113.748-.792.43-1.655.78-1.913.78-.471 0-1.37.404-3.318 1.492-1.798 1.005-3.909 1.967-4.707 2.146-.422.095-1.034.33-1.358.525-.53.317-.606.306-.731-.093-.251-.806-1.276-2.666-1.822-3.312-.729-.858-1.956-3.673-1.786-4.096.075-.188.408-.46.74-.607 1.478-.645 4.23-3.802 5.275-6.051 1.281-2.757 1.71-3.948 1.83-5.072.13-1.24.099-1.322-.646-1.738-1-.556-1.81-2.052-2.028-3.738-.095-.727-.441-1.779-.771-2.333-.745-1.248-1.664-3.822-1.707-4.776-.087-1.94.284-4.931.694-5.547.94-1.415 1.614-1.725 3.48-1.598 1.5.102 1.773.05 2.21-.413.273-.29.716-.527.985-.527.27 0 .749-.163 1.067-.361.353-.223 1.901-.47 3.982-.64 1.875-.152 3.87-.43 4.432-.615.97-.32 1.038-.311 1.235.196.115.292.135.817.044 1.164-.094.348-.22 1.138-.283 1.756-.062.617-.218 2.015-.345 3.106-.148 1.284-.137 2.206.038 2.623.147.354.245 1.346.221 2.203-.025.957.111 1.874.357 2.375.218.448.562 1.267.764 1.82.199.553.672 1.44 1.048 1.971.376.533.685 1.075.685 1.207 0 .132.481.762 1.07 1.402.587.64 1.288 1.574 1.558 2.078.267.504.994 1.315 1.612 1.8 1.648 1.295 3.564 4.755 3.893 7.028.244 1.684.857 3.128 1.33 3.128.124 0 .897.505 1.72 1.125.82.62 1.62 1.124 1.774 1.124.674 0 .586 1.223-.295 4.057-.453 1.463-.972 4.963-.936 6.315.04 1.374.534 2.602 1.708 4.249.64.895 1.164 1.757 1.164 1.917 0 .747-1.566 2.086-4.117 3.524-3.65 2.058-6.797 3.44-8.09 3.554-.57.05-1.394.268-1.832.486-.438.214-.976.39-1.198.39-.222 0-.404.114-.404.251s-.146.25-.325.25c-.18 0-1.109.73-2.063 1.626-.954.893-1.836 1.625-1.956 1.629-.12 0-.725.332-1.343.732-1.265.824-1.314.816-3.49-.552-.816-.514-1.721-.936-2.01-.936-.288 0-1.143-.213-1.9-.475-.76-.262-1.945-.541-2.639-.622-1.22-.145-1.299-.115-2.34.911-2.011 1.98-2.197 2.373-1.987 4.191.188 1.652.41 2.294 1.245 3.62.261.41.933 1.579 1.494 2.593.563 1.017 1.39 2.116 1.84 2.445.45.33 1.15 1.061 1.558 1.625l.74 1.026-1.013.838c-.559.463-1.173.843-1.364.843-.19 0-.347.085-.347.19 0 .2-2.158 1.496-4.17 2.501-.658.33-1.64 1.16-2.23 1.885-.578.713-1.635 1.65-2.343 2.084-.712.434-1.67 1.086-2.131 1.455-.776.619-3.41 2.118-3.738 2.13-.08-.001-.29-.833-.47-1.856zm-39.79-1.023c-.571-.2-1.413-.361-1.869-.365-.455 0-.99-.158-1.184-.344-.52-.499-4.148-2.129-5.18-2.326-.962-.186-3.886-1.73-3.886-2.058 0-.258 2.847-1.395 4.69-1.868 2.358-.611 5.177-.968 8.08-1.03 1.506-.029 4.058-.14 5.672-.246 3.081-.197 3.396-.09 2.478.825-.725.72-1.588 1.94-2.472 3.485-.87 1.535-2.514 3.558-2.882 3.558-.123 0-.4.17-.615.376-.487.465-1.47.462-2.832-.01zm-66.657-3.242c-.525-.343-1.14-.627-1.366-.627-1.682 0-10.046-5.324-10.046-6.396 0-.236.31-.351.935-.351.515 0 1.766-.35 2.783-.779 1.992-.836 2.151-.843 7.573-.321 1.48.143 1.746.237 1.607.572-.435 1.085-.907 3.244-.907 4.183 0 .577.234 1.762.52 2.634.285.871.518 1.612.523 1.646.01.248-.82-.043-1.622-.561zm36.553-5.158c-3.798-.835-4.942-1.313-4.962-2.066-.004-.15-.78-1.058-1.73-2.015-.95-.956-2.436-2.814-3.303-4.123-1.715-2.59-4.46-5.757-4.986-5.757-.183 0-.622-.423-.983-.937-.357-.516-1.31-1.645-2.114-2.507-.808-.861-1.64-1.89-1.854-2.284-.213-.392-.887-1.092-1.5-1.55-.614-.456-1.228-1.005-1.362-1.216-.135-.208-.654-.717-1.157-1.13-1.818-1.491-2.562-2.409-5.501-6.798-2.114-3.155-2.261-3.469-2.463-5.344-.197-1.808-.197-1.813 1.841-5.854.626-1.236 1.137-2.439 1.137-2.67 0-.233.107-.486.237-.564.135-.078.318-.575.408-1.108.219-1.234 1.358-2.277 3.331-3.04.824-.319 1.504-.645 1.509-.723.004-.078.23-.396.499-.706l.491-.566 1.327.79c1.666 1.32 3.413 1.742 5.14 3.09l2.138.744c2.832 1.944 1.113 1.37 4.927 3.256-.02.54.91.621 1.536 1.277.555.646 1.68 1.803 2.499 2.572 1.133 1.06 1.69 1.852 2.31 3.274.447 1.03.961 2.042 1.14 2.25.499.565.898 2.441.938 4.381.021.957.154 2.247.302 2.866.142.618.355 1.8.47 2.626.428 3.067.966 4.165 2.297 4.653.74.27 2.27-.333 3.041-1.206.365-.41.964-.655 1.988-.813 2.333-.359 6.325-2.418 8.57-4.42.734-.654 1.26-.867 2.7-1.087.983-.15 2.507-.552 3.388-.898 3.074-1.208 7.511-1.864 13.309-1.965 4.839-.087 5.298-.06 6.068.395.458.271.905.708.996.977.087.27.386.604.662.745.277.144.962.846 1.524 1.562 1.183 1.505 1.723 3.643 1.462 5.763-.092.708-.194 2.261-.238 3.45-.073 2.165-.524 3.482-1.592 4.642-1.119 1.221-1.64 2.048-1.968 3.13-.198.654-.441 1.19-.543 1.19-.099 0-.261.341-.356.755-.19.832-1.77 2.047-2.376 1.822-.206-.076-.36.027-.36.24 0 .205-.792.767-1.759 1.252-1.37.687-2.053.88-3.084.866-.927-.01-1.325-.114-1.325-.351 0-.423.347-.438.523-.023.083.2.139.162.153-.097.024-.459-1.007-.831-1.054-.38l-.064.66c-.054.56-1.44.705-2.902.301-1.937-.531-11.033-.476-12.735.08a72.27 72.27 0 0 1-2.986.86c-.959.252-2.388.681-3.177.954-4.835 1.68-5.944 1.762-10.427.775zm-61.75-3.903c.035-1.203-.032-2.78-.151-3.508-.135-.828-.09-2.275.115-3.886.32-2.49.313-2.6-.258-3.67-1.366-2.57-3.426-5.02-5.417-6.438-1.478-1.052-3.314-2.835-4.673-4.532-.768-.963-.23-5.13.986-7.59.42-.854.765-1.75.765-1.994.004-.539.855-.58 1.306-.06.179.204.54.375.801.375.262 0 .86.468 1.335 1.037a35.122 35.122 0 0 0 1.58 1.77c.392.401.716.835.716.96a.23.23 0 0 0 .23.232c.126 0 .626.383 1.11.854 1.258 1.227 4.81 4.006 5.642 4.42.388.19.936.545 1.212.786.273.24 1.565.934 2.867 1.547 2.76 1.3 4.38 2.174 4.618 2.49.257.341 6.305.255 6.994-.098.4-.205 1.164-.241 2.443-.116 1.025.102 2.273.173 2.776.16.91-.022.915-.017 2.199 2.633.768 1.588 1.393 3.316 1.56 4.3.265 1.545.186 5.069-.12 5.358-.074.072-.53.199-1.013.28-.48.08-1.098.262-1.37.403-.273.14-2.02.235-3.937.216-3.683-.042-4.72.17-7.623 1.568-.831.399-2.368.778-4.293 1.06-2.637.383-3.374.607-6.127 1.884-3.096 1.43-3.71 1.689-4.126 1.728-.115.01-.183-.966-.147-2.17v.001zm110.752-5.216c0-.08.34-.84.759-1.683 1.748-3.554 2.094-5.646 1.597-9.684-.352-2.88-.94-5.15-1.457-5.648-.185-.178-.52-.915-.74-1.637-.698-2.267-2.729-4.587-6.153-7.017a427.806 427.806 0 0 1-3.17-2.277c-.667-.491-1.338-.89-1.493-.89-.15 0-.661-.224-1.13-.5-.47-.274-1.146-.507-1.507-.516l-.649-.015.65-.256c.965-.379 6.016-1.458 6.834-1.46.666 0 1.134.355 2.616 1.993.717.793 2.223.67 3.75-.308 1.074-.688 1.303-.98 1.51-1.918.36-1.64 1.96-4.278 3-4.952.494-.32 1.726-.816 2.74-1.104 1.01-.29 2.522-.87 3.358-1.288 2.804-1.409 5.14-4.757 5.498-7.882.102-.872.302-1.883.448-2.25.355-.882.343-3.856-.016-4.5-.156-.28-.307-.824-.33-1.21-.024-.385-.19-.87-.37-1.076-.18-.206-.56-.9-.849-1.542-.287-.642-.948-1.621-1.473-2.176-.92-.977-.94-1.04-.616-1.896.183-.485.408-.884.5-.884.093 0 .742-.686 1.442-1.525.704-.839 1.69-1.735 2.193-1.99.503-.254 1.383-.862 1.956-1.348.57-.487 1.18-.886 1.352-.886.172 0 .47-.197.655-.437.19-.24.753-.711 1.256-1.044.498-.333 1.001-.754 1.117-.937.115-.181.36-.33.542-.33.183 0 .605-.28.943-.622.334-.343 1.264-.858 2.063-1.144.798-.286 1.62-.654 1.826-.815.309-.24.344-.205.21.206-2.32 7.104-2.852 12.245-1.654 15.997.727 2.276 2.952 8.3 3.222 8.714.097.152.204.728.238 1.278.035.552.245 1.421.47 1.933.56 1.282.54 1.355-.636 2.474-.575.545-1.045 1.072-1.045 1.171 0 .497-3.193 3.276-4.622 4.026-.895.47-2.479 1.598-3.52 2.508-2.274 1.99-4.009 3.201-5.933 4.143-2.839 1.39-3.424 1.725-6.669 3.82-1.175.756-1.401.812-2.716.68-.788-.08-1.552-.057-1.699.049-.878.638-1.039 2.835-.286 3.933.813 1.189 3.22.783 6.063-1.027.737-.469 1.99-1.015 2.784-1.213 1.616-.402 4.677-1.88 5.614-2.707.338-.296 1.13-1.231 1.76-2.075 1.072-1.433 3.049-3.116 4.522-3.846a4.096 4.096 0 0 0 1.087-.844l.447-.525.308.75c.657 1.599-.186 7.709-1.499 10.872-.59 1.42-2.823 5.37-3.63 6.417-.336.439-.613.907-.613 1.04 0 .137-.68 1.128-1.511 2.205-.832 1.079-2.147 3.188-2.924 4.687-1.276 2.469-1.686 2.995-4.315 5.552-2.366 2.305-3.044 2.828-3.657 2.83-3.394.01-4.338.067-5.709.344-1.885.38-2.739.463-2.739.262zm-92.69-17.203c-2.023-.053-4.194-.23-4.823-.393-2.06-.528-5.038-1.822-5.996-2.603-1.343-1.093-3.513-2.572-4.483-3.052-1.03-.511-4.748-2.998-5.527-3.697-.65-.58-2.836-3.663-3.87-5.458a40.99 40.99 0 0 0-1.061-1.75c-.206-.304-.677-1.285-1.05-2.178-.384-.928-1.454-2.589-2.486-3.874-2.392-2.968-2.935-3.93-2.634-4.685.316-.805.701-1.065 2.503-1.705 3.583-1.268 4.51-2.187 4.748-4.71.13-1.38-.063-2.046-1.097-3.764-.352-.59-.329-.642.539-1.117 1.413-.774 1.445-1.613.166-4.388-.392-.856-1.422-1.894-3.643-3.671-.606-.488-1.105-1.077-1.105-1.307 0-.232-.147-.56-.325-.73-.258-.248-.245-.363.063-.573.325-.217.309-.237-.08-.118-.525.162-1.63-.667-1.389-1.042.083-.13.04-.61-.099-1.068-.23-.764-.179-.888.594-1.512l15.097-3.57c.139.08.388-.016.559-.213.519-.61 4.126-1.427 6.855-1.556 3.43-.163 7.69.543 11.436 1.895 2.432.874 3.13 1.358 3.188 2.222.052.675.618 1.184 3.133 2.816 1.584 1.029 1.956 1.523 2.99 3.931.146.343.372.82.495 1.059.127.238.234.583.234.766 0 .18.242.811.534 1.397.52 1.029.524 1.13.123 2.734a55.19 55.19 0 0 1-.848 3.041c-.554 1.771-.593 5.462-.07 7.099.213.675.716 1.562 1.116 1.972.658.677.686.784.32 1.171-.269.287-.348.673-.237 1.194.178.855-.523 2.535-1.941 4.671-.455.68-.824 1.545-.824 1.923 0 .377-.459 1.62-1.018 2.761-1.073 2.195-1.476 3.624-1.71 6.077-.277 2.893-.46 4.006-.78 4.75-.313.725-.135 3.774.249 4.374.083.127-.035.847-.266 1.599-.376 1.245-.487 1.378-1.247 1.473a9.248 9.248 0 0 1-1.747.01c-.499-.056-2.566-.144-4.586-.198zm47.858-.375c0-.129.131-.313.293-.409.198-.117.238-.706.119-1.826-.198-1.89-.333-2.848-.428-3.03-.035-.068-.1-.402-.139-.748-.253-2.238-1.136-5.007-2.016-6.32-.526-.79-.958-1.52-.962-1.62 0-.286-3.67-3.66-4.689-4.313a22.916 22.916 0 0 1-1.81-1.327c-.494-.406-1.432-.957-2.086-1.222-2.686-1.099-3.342-1.44-4.836-2.507-.859-.615-2.03-1.263-2.605-1.441-.574-.178-1.747-.686-2.606-1.13-6.143-3.177-9.025-6.56-9.559-11.23-.23-2.032-.219-2.112.558-3.58 1.065-2.005 1.774-2.273 4.376-1.653 1.79.426 1.782.422 2.578 1.933.372.712 1.002 1.688 1.393 2.168.389.481.896 1.222 1.122 1.642.546 1.026 1.781 2.357 2.19 2.357.177 0 .518.28.752.625.238.343.57.624.741.624.174 0 .677.394 1.12.875.443.482 1.026.876 1.287.876.966 0 2.214 1.044 3.485 2.913 1.212 1.779 2.19 2.844 3.168 3.46 1.734 1.09 2.88 1.889 4.036 2.818 1.232.988 1.457 1.343 2.598 4.112.72 1.747 1.714 3.638 2.348 4.462.97 1.266 2.44 3.927 2.44 4.425 0 .36 1.183.88 2.19.964.708.057 1.473-.12 2.44-.559 1.258-.569 2.477-.9 6.964-1.892.717-.158 2.768-.358 4.562-.449 1.794-.089 3.498-.268 3.784-.4.287-.13.755-.222 1.043-.2.286.02.901.048 1.366.063.668.022.849.134.849.53 0 .55 2.474 2.237 3.31 2.258.645.015 4.319 1.795 4.44 2.149.067.2-.781.343-2.72.463-1.547.095-3.344.285-3.988.422-.646.14-2.52.353-4.172.477-1.647.123-3.525.286-4.17.366-1.913.235-5.226 1.375-6.973 2.398-.895.526-2.127 1.023-2.736 1.103-.61.08-1.75.365-2.543.63-.788.268-2.486.581-3.778.697a164.3 164.3 0 0 0-2.543.247c-.106.02-.193-.07-.193-.2zm3.485-15.948c-.198-.627-.357-1.426-.357-1.774 0-1.548-4.28-6.414-7.176-8.16-.455-.275-1.39-.837-2.07-1.25-.686-.412-1.493-.937-1.799-1.165-.535-.401-.519-.409.487-.219 1.386.26 1.826.437 3.52 1.406.789.452 1.914.94 2.508 1.087.59.145 1.35.477 1.69.734.717.535 1.973.852 3.541.89 1.315.035 1.402.106 1.493 1.21.107 1.272.856 2.06 2.78 2.916.943.42 1.822.765 1.952.765.135 0 .535.15.892.331 5.286 2.675 6.881 3.41 8.146 3.764.824.23 1.5.484 1.5.565 0 .08-1.144.056-2.543-.058-3.568-.287-5.74-.209-7.067.25-.63.217-1.92.41-2.867.424-.95.017-2.08.108-2.511.203-.998.221-1.624-.349-2.119-1.92zm23.729-.68c-.366-.23-.875-.456-1.136-.504-.258-.048-1.005-.32-1.66-.607-.653-.287-1.36-.52-1.568-.52-.21 0-.892-.28-1.513-.622-.626-.343-1.444-.623-1.82-.624-.377 0-1.182-.172-1.792-.379-.61-.206-1.483-.374-1.941-.374-.594 0-1.047-.223-1.596-.783l-.763-.783 1.563.163c5.35.556 5.64.54 11.536-.614.614-.12 1.338-.333 1.614-.475.275-.14.746-.257 1.047-.257.302 0 2.109-.714 4.015-1.587 2.524-1.154 3.85-1.93 4.877-2.855.777-.7 1.94-1.637 2.585-2.084 1.774-1.227 4.039-3.492 4.659-4.657 1.42-2.669 1.871-5.58 1.226-7.926-.513-1.866-.517-1.812.126-2.143.622-.318 2.74.385 4.547 1.51.575.355 1.244.72 1.49.812.842.31 1.904 2.098 2.496 4.203.323 1.16.828 2.8 1.119 3.647.616 1.79.507 2.909-.431 4.488-.705 1.18-3.046 3.594-3.49 3.594-.16 0-.862.51-1.56 1.134-1.41 1.266-2.358 1.615-4.392 1.615-2.059 0-2.8.471-3.292 2.097-.227.746-.41 1.708-.41 2.141 0 .67-.143.843-.962 1.172a8.442 8.442 0 0 1-2.02.474c-.582.048-1.941.333-3.014.63-1.075.299-2.602.614-3.39.7-2.052.225-5.361-.09-6.15-.586zm-11.053-10.494c-4.87-.31-7.04-1.945-7.04-5.305 0-.73.103-1.328.226-1.328.127 0 .53.23.902.51 1.894 1.428 6.086 2.389 8.664 1.987 2-.314 3.007-.642 5.33-1.748 1.074-.51 2.393-1.007 2.928-1.1 1.52-.267 3.072-2.014 4.777-5.386l1.448-2.863-.08-3.332c-.067-2.742-.012-3.37.307-3.562.264-.156.56-.11.913.14.29.207 1.344.765 2.349 1.242 1.001.477 2.352 1.265 2.997 1.751 2.857 2.148 3 2.46 2.818 6.123-.088 1.738-.228 2.389-.64 2.923a11.48 11.48 0 0 0-.964 1.564c-.818 1.658-3.676 4.17-5.363 4.714-.489.159-1.28.573-1.756.92a8.372 8.372 0 0 1-1.846.97c-.542.184-1.556.63-2.261.99-.871.448-1.697.661-2.606.671-.732.011-1.556.102-1.831.207-.572.216-5.214.17-9.272-.087zm-13.123-2.482c-.776-.327-1.489-.723-1.588-.877-.1-.154-.618-.496-1.152-.757-1.331-.65-6.626-5.662-7.272-6.878l-.518-.988.962-.668c.527-.369 1.212-.746 1.521-.84.713-.217 3.354-2.775 3.89-3.765.221-.412 1.152-1.498 2.063-2.413.915-.914 1.663-1.786 1.663-1.937 0-.15.103-.274.23-.274.443 0 1.013 2.936.859 4.427-.29 2.783.15 12.097.689 14.506.13.582.197 1.061.15 1.061-.048 0-.72-.268-1.497-.597zm8.32-7.837c-2.296-2.348-3.006-3.32-3.43-4.716-.582-1.92-.238-2.402 2.273-3.188.626-.195 1.984-.41 3.018-.474 1.313-.08 2.3-.312 3.282-.773.772-.364 1.453-.66 1.508-.659.06 0 .143 1.324.187 2.938.095 3.565.598 4.808 2.7 6.679l1.39 1.24-1.044.158c-.573.088-2.713.176-4.761.194l-3.717.036-1.406-1.435zm-24.913.111c-.646-.275-1.406-.538-1.695-.583-.285-.044-1.437-1.012-2.562-2.148-5.87-5.944-6.23-11.36-1.742-26.185.436-1.444.867-3.271.958-4.061.091-.792.186-1.438.214-1.438.025 0 1.386.46 3.025 1.02 1.637.559 2.974.99 2.974.958 0-.031.411.07.915.227.5.157 1.671.397 2.606.532 2.812.41 3.485.547 4.317.878.439.178 2.023.57 3.52.873 1.747.356 3.422.895 4.673 1.504 1.077.524 2.325 1.027 2.776 1.118.812.165.82.184.804 1.652-.007.997-.12 1.484-.333 1.484-.689 0-3.798 1.583-4.289 2.183-.396.479-.523 1.013-.523 2.186 0 1.211-.107 1.648-.495 1.985-.539.468-3.152 4.44-3.156 4.8-.004.421-2.027 2.665-3.212 3.562-1.826 1.38-5.108 5.002-5.805 6.403a5.812 5.812 0 0 0-.622 2.58c-.004 1.502.04 1.493-2.348.47zm36.709-3.058l-1.001-1.012.413-2.305c.4-2.234.323-3.572-.291-5.11-.143-.353-.032-.436.586-.436.896 0 3.452.688 3.921 1.057.18.14.33.438.33.66.001.223.29.97.643 1.657.932 1.82.867 3.22-.264 5.577-1.228 2.568-1.577 2.801-2.57 1.739-.42-.45-1.216-1.272-1.767-1.827zm26.066-8.15c-2.827-1.351-2.963-1.397-4.641-1.584-1.204-.136-3.177-.8-5.612-1.888-2.88-1.287-8.24-4.996-10.514-7.275-1.778-1.785-2.762-2.206-6.031-2.58-.786-.09-1.517-.3-1.626-.46-.585-.882.348-4.814 1.463-6.17.17-.207.503-.788.74-1.293.844-1.794 3.576-4.682 6.555-6.926 1.355-1.02 2.313-2.046 5.173-5.526.933-1.138 1.574-1.592 3.695-2.625l2.564-1.25.424.618c.234.342 1.364 1.695 2.51 3.01 4.012 4.6 4.327 4.992 4.729 5.927.224.517 1.017 1.84 1.766 2.941 3.47 5.1 3.844 5.805 4.685 8.873.208.756.748 2.499 1.198 3.873.7 2.136 1.163 4.978 1.093 6.725-.01.262-.291 1.316-.62 2.341-.42 1.302-.756 1.922-1.12 2.056-.285.105-1.105.655-1.82 1.22-.714.567-1.554 1.03-1.869 1.03-.313 0-1.546-.467-2.742-1.038zm-41.957-1.775c-.107-1.687-.19-2.227-.618-3.986-.914-3.793-.162-4.186 8.756-4.56 1.999-.083 3.108-.012 4.04.26.703.206 1.844.389 2.533.405 1.082.027 1.398.165 2.29.996 1.49 1.387 2.06 2.4 2.063 3.664v1.09l-.848-.15c-2.45-.433-5.132-.757-6.038-.73-.78.023-1.198.21-1.772.798-.776.798-1.754 1.182-2.401.942-.417-.154-6.088 1.133-6.837 1.55-.756.42-1.128.33-1.168-.279zm-40.326-3.908c-.827-.54-2.435-1.89-3.576-3-1.136-1.112-2.218-2.022-2.395-2.024-.18 0-.325-.172-.325-.377 0-.252-.266-.376-.796-.376-.483 0-.773-.12-.745-.313.07-.491-.329-1.932-.578-2.082-.392-.228-.254-.796.424-1.752.357-.506.65-1.084.65-1.286 0-.2.339-.668.752-1.038.475-.424.92-1.224 1.2-2.162.245-.818.605-1.827.8-2.24.194-.412.507-1.28.696-1.929l.345-1.181 1.944 1.68c4.024 3.479 5.992 5.498 5.992 6.148 0 .342.127.94.286 1.327.423 1.065.594 9.894.217 11.432-.17.697-.36 1.355-.424 1.46-.135.227-2.345-.907-4.467-2.287zm95.093-.841c-.2-.721-.388-1.537-.415-1.81-.028-.276-.297-1.387-.598-2.47-.298-1.082-.543-2.247-.543-2.585 0-.34-.168-.918-.373-1.281-.202-.365-.63-1.62-.946-2.789-.539-1.986-1.055-3.366-1.593-4.249-1.059-1.732-1.54-3.143-1.383-4.039.094-.528.317-.959.498-.959.177 0 .537-.223.793-.495.672-.71 1.955-.862 3.566-.425 2.596.705 4.836.922 5.899.568a14.824 14.824 0 0 1 2.055-.485c1.241-.185.879-.618 3.293 3.924.794 1.49 1.67 2.954 1.948 3.249.278.295.714.89.97 1.32.258.432 1.06 1.22 1.783 1.75 1.279.94 2.685 2.132 5.021 4.257.66.6 1.145 1.27 1.145 1.579 0 .295.119.745.26 1 .298.536-.027 3.379-.43 3.767-.171.161-.593.112-1.229-.143-.535-.214-1.071-.329-1.195-.254-.123.073-.417.064-.648-.022-.501-.185-.407-.587.638-2.721 1.11-2.272 1.205-3.008.456-3.48-.886-.556-2.142-.744-2.987-.442-2.395.848-5.054 2.059-6.047 2.749-.632.438-1.31.797-1.506.797-.195 0-1.027.625-1.85 1.387-.82.763-2.08 1.663-2.797 2-.716.338-1.655.838-2.085 1.11-.429.274-.904.5-1.059.5-.149 0-.438-.587-.64-1.309zm-54.41-13.194c-2.364-1.41-8.047-3.551-13.223-4.983-3.35-.928-3.39-.948-3.474-1.71-.114-1.127.321-1.71 1.434-1.912 1.894-.34 3.552-1.574 3.818-2.842.194-.94 3.223-3.644 4.523-4.043a19.69 19.69 0 0 0 1.84-.678c.757-.333.959-.33 1.886.024.76.292 1.216.335 1.703.157.364-.133.97-.294 1.342-.36.377-.066 1.113-.404 1.64-.753.523-.35 1.05-.635 1.168-.635.115 0 .768-.394 1.454-.875.681-.481 1.402-.875 1.596-.875.198 0 1.058.681 1.916 1.514.855.832 2.7 2.32 4.098 3.31 2.84 2.008 3.35 2.724 2.86 4.029-.169.442-.306 1.04-.306 1.328 0 .674-3.021 5.139-4.355 6.439-.564.55-1.545 1.238-2.178 1.528-.636.29-1.684.774-2.328 1.073-.994.465-2.634.889-3.83.996-.167.015-.883-.313-1.584-.733zm55.722-17.734c0-.139-.051-.25-.115-.25-.063 0-.188.112-.277.25-.088.136-.035.25.115.25.15 0 .277-.114.277-.25z" class="fil1" fill="#ffff17" fill-rule="evenodd" stroke="#ffff17" overflow="visible" transform="matrix(.33717 .09478 -.09478 .33717 469.84 67.83)"/><path d="M407.013 1107.668c40.765-46.538 106.707-46.987 144.03-14.122l1.796 4.6a96.76 96.76 0 0 1-1.795 2.98c10.367 121.676-138.238 99.18-134.069 23.051.367-6.704-4.033-11.859-9.962-16.507z" class="fil2 str1" fill="red" fill-rule="evenodd" stroke="#ffff17" stroke-width="4.961" overflow="visible" transform="matrix(.33717 .09478 -.09478 .33717 469.84 67.83)"/><path d="M560.193 1140.361c2.34-14.897 7.865-43.487 7.865-43.487l-94.164 54.517c-8.303 34.335 32.181 38.458 32.181 38.458 24.104-2.633 45.17-6.482 52.26-48.007 1.26-1.095.562-.697 1.858-1.48z" class="fil2 str1" fill="red" fill-rule="evenodd" stroke="#ffff17" stroke-width="4.961" overflow="visible" transform="matrix(.33717 .09478 -.09478 .33717 469.84 67.83)"/><path d="M561.981 1085.328c-15.645 23.347-37.622 41.881-73.529 49.83-16.002 3.038-26.535 24.307 3.039 16.407 32.004-10.128 57.527-28.358 76.567-54.69 10.128-28.764-1.62-23.498-6.077-11.547z" class="fil2 str1" fill="red" fill-rule="evenodd" stroke="#ffff17" stroke-width="4.961" overflow="visible" transform="matrix(.33717 .09478 -.09478 .33717 469.84 67.83)"/><g stroke="#000"><path d="M310.27 888.121c-1.092 15.459-7.403 32.126-32.162 32.635 1.015-49.05 12.23-57.987 32.162-32.635z" transform="matrix(.51945 .35766 -.35766 .51945 585.027 -48.966)" fill="#006400" stroke-width=".55"/><path d="M313.108 875.824l-3.784 17.973c35.528 1.338 37.636-25.273 49.662-37.365-17.662 4.816-54.024-3.376-45.878 19.392z" transform="matrix(.51945 .35766 -.35766 .51945 585.027 -48.966)" fill="#006400" stroke-width=".5"/><path d="M311.239 887.778c-44.938-3.974-31.591-23.396-32.185-41.751 20.616 6.506 45.698 8.586 32.185 41.751z" transform="matrix(.51945 .35766 -.35766 .51945 585.027 -48.966)" fill="#006400" stroke-width=".6"/><path d="M311.216 882.919c-3.85-10.925-9.137-8.896-14.19-8.987M304.121 872.04c-1.748-9.797-11.347-12.997-18.014-16.646M319.256 879.135c13.123-2.18 19.41-9.486 27.905-15.135" transform="matrix(.51945 .35766 -.35766 .51945 585.027 -48.966)" fill="none" stroke-width=".5"/><path d="M300.81 887.175c-7.95 4.347-11.7 12.894-14.662 22.23" transform="matrix(.51945 .35766 -.35766 .51945 585.027 -48.966)" fill="none" stroke-width=".55"/></g></g></svg>