<svg xmlns="http://www.w3.org/2000/svg" width="800" height="500" viewBox="0 0 210 297" id="svg2" version="1" shape-rendering="geometricPrecision" text-rendering="geometricPrecision" image-rendering="optimizeQuality" fill-rule="evenodd" clip-rule="evenodd" xmlns:cgf="https://coding.garden/flags"><metadata id="cgf-metadata">

<cgf:flag>
  <cgf:name></cgf:name>
  <cgf:route>pl/ds</cgf:route>
  <cgf:aspect-ratio>1.6</cgf:aspect-ratio>
</cgf:flag>

</metadata><defs id="defs4"><style id="style6">.fil1{fill:#0a0b0c}</style></defs><g id="Warstwa_x0020_1" transform="translate(-132.6 -187.534) scale(2.26286)"><path id="rect10" fill="#facf00" d="M0 82.875h210v131.25H0z"></path><g id="_75731968"><path id="_75732112" class="fil1" d="M122.119 125.019c1.095-2.445 3.189-4.062 5.528-4.616.962-2 2.026-3.333 3.924-4.457l-.099-.04-.099-.04-.098-.04c-4.554-1.635-9.582-5.62-8.577-11.691.644-3.89 4.801-5.892 8.48-5.902 4.592-.011 8.76 2.761 10.973 6.748 2.332 4.202 2.878 9.475 3.057 14.18.143 3.754-.111 7.51-.276 11.259-.162 3.684-.364 6.545 2.864 4.535.129 2.546-1.952 4.098-3.817 4.076-2.88-.033-4.628-5.431-4.988-7.757-.192 2.637 1.235 17.877 4.183 17.469 1.21-.167 1.518-.65 2.203-1.07-.008 2.643-1.131 4.556-3.902 4.724-4.126.249-7.893-9.334-8.808-12.846 1.2 12.398 4.55 23.422 7.476 23.278 1.273-.063 2.334-.869 3.02-1.677-.153 3.187-2.124 5.375-3.81 5.65-7.264 1.187-12.338-15.416-14.329-20.474.536 4.773 1.446 10.226 1.338 14.757-1.398-.162-4.61-6.027-7.289-10.903.92 7.741 3.193 12.48 5.14 16.482-.576.287-3.147-.434-3.839-.097 1.313 3.34 3.142 5.358 4.541 8.046.776-1.678 1.94-3.247 2.982-3.828.172-1.19 1.2-2.208 2.361-1.702 1.379-.033 2.783.497 2.669 1.478-.452-.198-.96-.177-1.344.172.103.914-.733 1.693-1.577 1.955-1.8.071-2.666 1.488-3.419 3.159 1.66-.427 3.99-.674 5.33-.29.9-.745 2.447-.578 2.865.507.985.965 1.584 2.341.8 2.944-.172-.463-.541-.812-1.059-.844-.576.516-1.728.244-2.501-.116-2.186-.695-3.285-.348-4.49.332 1.14 1.643 2.075 3.084 2.46 3.634.927-.06 1.373 1.497.762 2.712-.177 1.367-.957 2.44-1.886 2.176.327-.524.704-.814-.02-1.702-.784-.129-1.124-.07-1.24-.933-.438-2.364-2.26-4.46-3.14-5.407-2.318-.65-3.6-.937-5.05.348-.57.755-1.441.79-2.316.557-.608.178-.945.836-1.022 1.404-.686-.415-.361-2.063.133-3.222.103-1.293 1.555-1.867 2.71-1.338 1.045-.548 1.778-.313 3.703-.568-.908-1.328-4.555-7.7-5.235-8.303-.61.357-1.653 2.579-1.957 3.291-1.51-3.513-2.71-8.223-4.02-11.958-.928 3.984-1.714 7.984-2.562 11.987 1.823.533 3.023 1.428 3.023 2.44 0 1.206-1.279 2.248-3.718 2.706-1.16 9.268 6.547 12.35 11.643 8.16 3.016 1.795.463 8.16-4.862 7.236.174.818.455 3.034-.24 5.134-2.275-.195-4.19-.725-5.379-1.49-.582 2.627-1.93 4.525-4.299 5.747a.159.159 0 0 1-.021.01l-.02-.01c-2.367-1.222-3.716-3.12-4.298-5.747-1.19.765-3.104 1.295-5.38 1.49-.694-2.1-.414-4.316-.24-5.134-5.324.924-7.877-5.44-4.861-7.237 5.096 4.191 12.803 1.109 11.642-8.16-2.438-.457-3.718-1.499-3.718-2.706 0-1.01 1.2-1.906 3.024-2.439-.849-4.002-1.634-8.002-2.563-11.987-1.26 3.46-2.432 7.965-4.02 11.958-.303-.712-1.346-2.934-1.957-3.291-.68.602-4.327 6.975-5.235 8.303 1.926.256 2.658.02 3.703.568 1.156-.529 2.607.045 2.711 1.338.494 1.159.819 2.807.133 3.222-.078-.568-.414-1.226-1.022-1.404-.876.233-1.746.198-2.317-.557-1.45-1.285-2.731-.997-5.05-.348-.88.948-2.701 3.043-3.14 5.407-.115.863-.455.804-1.24.933-.724.888-.346 1.178-.02 1.702-.928.265-1.709-.809-1.885-2.176-.611-1.215-.165-2.772.761-2.712.385-.55 1.321-1.991 2.461-3.634-1.205-.68-2.305-1.027-4.49-.332-.773.36-1.925.632-2.501.116-.517.032-.887.38-1.06.844-.783-.603-.184-1.979.8-2.944.419-1.085 1.966-1.252 2.866-.507 1.34-.384 3.67-.137 5.33.29-.753-1.67-1.62-3.088-3.42-3.159-.843-.262-1.68-1.04-1.577-1.955-.383-.349-.89-.37-1.343-.172-.114-.981 1.29-1.51 2.668-1.478 1.16-.506 2.19.512 2.361 1.702 1.043.581 2.207 2.15 2.982 3.828 1.4-2.688 3.228-4.705 4.541-8.046-.692-.337-3.262.383-3.838.097 1.947-4.002 4.22-8.741 5.14-16.482-2.68 4.876-5.89 10.74-7.29 10.903-.107-4.531.803-9.984 1.339-14.757-1.991 5.058-7.065 21.66-14.33 20.475-1.686-.276-3.657-2.464-3.81-5.65.686.807 1.748 1.613 3.02 1.676 2.927.144 6.276-10.88 7.477-23.278-.915 3.512-4.682 13.095-8.808 12.846-2.771-.168-3.895-2.08-3.903-4.724.685.42.995.903 2.204 1.07 2.948.408 4.374-14.832 4.183-17.47-.36 2.327-2.108 7.725-4.989 7.758-1.864.022-3.945-1.53-3.817-4.077 3.387 2.11 3-1.143 2.841-5.084-.225-5.048-.523-10.048.126-15.092.416-3.238 1.023-6.647 2.577-9.562 2.184-4.096 6.14-6.761 10.765-6.978 3.734-.112 7.992 1.899 8.805 5.844 1.24 5.908-4.055 9.913-8.863 11.864 1.753.993 2.862 2.246 3.925 4.457 2.339.554 4.433 2.171 5.528 4.616 1.435-.118 2.937.018 4.226.633h.001l.002.001.003.002.003.001.015.007.03.015v-.002l.002-.002.006-.009v-.002l.002-.001.001-.002a.426.426 0 0 0 .006-.009v-.001c.762-1.169 1.677-2.218 3.282-3.11 4.333-2.41 6.107-8.001 4.31-12.477-1.207-3.007-3.823-6.4-5.624-5.173-.085-.672.26-1.41.815-1.551 1.783-.458 4.744 1.386 5.36 3.08.969-.402.293-1.416-.049-1.995-.952-1.609-4.046-3.727-6.321-2.515-.806.427-.665 1.336-.964 1.376-.886-.901-1.117-2.897-.93-4.259.313-2.3 2.697-3.128 4.794-3.016 1.808.095 3.62 1.293 5.24 2.039 1.065.489 1.436.616 2.718.025.42-.194 2.217-.556 3.042-.28 6.534 2.193 8.898 5.46 9.113 11.622.024.696-.348 1.306-.007 2.203-.726.153-1.169-.784-1.492-1.2-1.122 1.362-2.377 3.472-1.6 5.31.05.349.02.602.142.978-1.76.197-1.98-1.56-2.633-2.66-.28.49-.606.76-.926.958-.335 2.78 1.308 5.769 4.425 7.534 1.555.864 2.501 2.032 3.142 3.036 1.268-.557 2.71-.668 4.078-.556z" fill="#0a0b0c"></path><path id="_75732040" d="M138.141 116.668c-.018 18.433-16.35 26.89-33.1 26.89-16.751 0-33.083-8.457-33.101-26.89 4.527 12.062 13.881 19.917 30.98 20.512 1.02-4.18 1.02-5.013 1.072-5.899-.888.053-1.725.053-5.949 1.086V128.1c4.224 1.033 5.06 1.033 5.95 1.085-.053-.889-.053-1.725-1.086-5.95h4.267c-1.033 4.225-1.033 5.061-1.085 5.95.889-.052 1.725-.052 5.949-1.085v4.267c-4.224-1.033-5.06-1.033-5.95-1.086.053.886.053 1.72 1.074 5.9 17.098-.596 26.452-8.45 30.979-20.513zm-29.59-13.968c.109-.312.05-.289.325-.36.418.042 1.49 1.334 1.764 1.058-.505-1.388-3.653-3.962-5.708-3.112-.148.061-.138.357-.068.437.181.205.404.469.468.718-.967 2.436 2.554 3.17 3.22 1.259z" fill="#fff"></path><path id="_75731896" class="fil1" d="M108.046 102.019c-.425 2.412-3.007.633-1.959-.465 0-.104.026-.33.034-.428.234.003.636.145.863.307.115.173.198.543.062.577-1.148.284-.465.593.247.435.268-.06.307-.517.28-.739.141.078.368.232.473.313z" fill="#0a0b0c"></path></g></g></svg>