<svg xmlns="http://www.w3.org/2000/svg" height="500" width="800" version="1"><path fill="#fff" d="M0 0h800v200H0z"/><path fill="red" d="M0 200h800v100H0z"/><path fill="#fc0" d="M0 300h800v200H0z"/><g fill-rule="evenodd"><path d="M236.985 73.656h328.743v201.69c0 89.709-73.854 162.903-164.371 162.903-90.518 0-164.372-73.194-164.372-162.904V73.656z"/><path d="M240.246 77.282h322.22v197.669c0 87.936-72.381 159.672-161.11 159.672-88.727 0-161.11-71.736-161.11-159.672V77.282z" fill="red"/></g><g stroke="#000"><path d="M301.041 96.756s17.13-26.24 42.642-26.24c0 0-7.29 6.924-4.738 11.297 2.551 4.374-1.093 14.579-6.925 16.4-5.831 1.823-8.382 9.112-8.382 9.112l-24.054-5.102 1.457-5.467zm243.458-11.663s24.054-3.28 38.997-12.391c0 0-27.335 32.072-69.612 28.792-42.277-3.28 29.886-17.13 30.615-16.4z" fill="#fff" fill-rule="evenodd" stroke-width="4" stroke-linecap="round" stroke-linejoin="round" transform="matrix(.46168 0 0 .45798 229.662 62.433)"/><path d="M338.945 105.503s16.765-12.756 24.419-21.867c7.653-9.112 17.858-26.97 44.828-26.97 0 0-34.26 20.045-32.801 36.081 1.457 16.036 61.228-28.428 61.228-28.428s15.672-14.213 38.268-11.298c0 0-38.268 19.316-38.632 31.708-.364 12.391 42.641-11.298 52.117-18.952 9.476-7.653 25.512-11.662 35.717-6.196 0 0-31.343 12.027-33.53 24.783-2.187 12.756 30.692.576 48.473-8.382 11.936-6.014 23.325-13.85 26.605-18.952 0 0-.729 29.521-53.575 44.1 0 0-22.232 8.018-37.903.364 0 0-2.916-2.551-9.84-.729-6.926 1.822-24.784 5.831-38.998-2.187 0 0-6.56-3.644-14.578.73-8.018 4.373-30.979 11.662-40.455 11.662l-28.427 5.102-2.916-10.569zm187.331 70.705s31.708-29.157 32.801-49.931c0 0 1.458 25.876-3.28 37.54-4.738 11.662-29.157 13.12-29.521 12.39z" fill="#fff" fill-rule="evenodd" stroke-width="4" stroke-linecap="round" stroke-linejoin="round" transform="matrix(.46168 0 0 .45798 229.662 62.433)"/><path d="M358.99 130.65s17.13 17.13 41.913 4.738c24.783-12.391 39.725-1.822 39.725-1.822s-4.737 4.374-15.307 5.831c-10.569 1.458-25.147 6.196-27.698 14.214 0 0-.365 16.765 42.277-1.822 0 0 32.8-19.68 48.837-9.84 0 0-33.166 10.933-41.548 25.512 0 0 13.12 13.485 37.903-3.645 0 0 30.25-26.605 49.566-28.792 0 0-24.959 23.752-27.334 29.521-2.551 6.196-9.476 12.756 8.383 10.205 17.858-2.551 61.957-21.868 71.798-45.193 0 0-7.654 68.883-98.404 57.22 0 0-39.361 5.831-55.033-7.654 0 0-25.147 2.916-49.566-12.756 0 0-35.717-17.13-37.175-25.876-1.457-8.747 2.187-9.476 2.187-9.476l9.476-.364z" fill="#fff" fill-rule="evenodd" stroke-width="4" stroke-linecap="round" stroke-linejoin="round" transform="matrix(.46168 0 0 .45798 229.662 62.433)"/><path d="M389.296 326.988s30.503 14.963 64.154 9.842c33.535-5.103 104.352-2.822 125.391 63.79 3.037 9.615 6.194 15.372 17.496 28.431 0 0-20.89 6.836-29.148-11.28 0 0-12.885 70.448 17.29 100.95 0 0 6.232 5.905 7.544 15.744 1.312 9.84 5.848 9.302 8.856 11.808 6.288 5.24 10.416 11.772 4.92 25.583 0 0-9.512 42.967-.657 84.622 0 0 4.264 9.84-3.607 11.48-3.28.217-8.195 8.814-1.312 13.119 0 0 5.903 4.592.328 13.448 0 0-3.28 8.527-10.824 17.055 0 0-4.592 6.888-8.528.328 0 0-8.856 9.512-11.152-3.28 0 0-4.263-18.04 4.592-32.799 0 0 4.92-4.92 1.968-11.808 0 0-2.952-5.247.984-13.12 3.936-7.87 7.544-47.558 7.544-47.558s3.28-32.47-22.631-55.43c0 0-12.136 53.134-8.2 93.805 0 0 2.624 11.48-4.264 17.712-6.888 6.231.328 8.855.328 8.855s4.92 3.28-.656 12.464c-5.576 9.184-12.792 15.416-12.792 15.416s-10.167 9.84-11.48-.328c0 0-8.199 7.215-8.527-3.608-.328-10.824 3.608-29.52 9.84-34.111 0 0 5.705-2.737 3.28-9.184-2.24-5.952 1.721-10.703 2.296-13.448 4.706-22.491 8.527-34.439 3.28-71.83 0 0-2.952-11.807-12.464-19.023-9.512-7.216-62.974-42.639-70.19-67.566 0 0-127.588 26.24-198.434-40.015 0 0-6.888 6.56-9.84 7.872-2.952 1.312-9.184 4.92-12.792.656 0 0-3.608-1.968-5.904-.984 0 0-37.718 2.296-90.197-37.391 0 0-7.216-2.952-8.856 3.28-1.64 6.232-14.76 59.038-9.511 70.518 0 0 5.903 13.447-2.952 11.807 0 0-9.184.984-1.64 12.464 0 0 7.544 2.624 6.56 22.96 0 0-3.608 15.087-9.512 9.84 0 0-1.64 13.119-7.872 3.279 0 0-22.96-28.535-11.152-46.247 0 0 4.264-4.264 2.296-16.071-1.968-11.808-1.968-13.776.656-19.68 0 0 14.104-44.934 14.432-59.366 0 0-25.447 17.028-29.52 26.24-1.968 4.453-.983 8.527-.983 8.527s.656 11.152-6.888 11.152-4.592 8.2-4.592 8.2 7.064 14.133-5.488 30.252c0 0-3.994 6.134-9.13 2.425 0 0-8.843 10.127-10.27-1.284-1.426-11.411-1.997-19.685-.856-27.815 0 0 .286-8.273 7.703-15.548 7.418-7.275 5.135-13.266 5.135-13.266s-1.569-5.706 6.42-12.41c0 0 46.073-38.513 54.06-53.063 7.989-14.55 19.471-12.337 20.826-12.267 4.11.211 9.415 5.706 13.124 5.706 0 0 23.964 5.42 44.219 16.831l3.708 2.853s-11.696-37.657 20.256-65.045c0 0-6.847-19.684 20.255-52.492l8.558-37.943 12.553.57c-2.816-1.126 36.656-44.79 29.099-53.062 0 0-15.12 1.426-45.93-3.994l-5.136-1.427c-6.084 4.151-26.621 9.52-24.82-3.709 0 0-9.129.856-8.558-9.984.57-10.841.57-11.982 6.847-13.694 0 0 13.69-5.118 16.88-4.434 0 0 33.685-20.35 40.768-22.32 7.37-2.05 9.79-3.754 15.488-7.999 5.193-4.659 24.558-3.655 26.49-.568 1.756 2.805 9.496-.316 10.407-1.683.91-1.366 10.932-4.555 17.081 2.278 0 0 6.833 5.238 7.972 10.932 0 0 23.687-7.06 40.997 1.822 0 0-13.21 3.189-20.043 11.616-6.833 8.427-9.11 12.071-17.765 15.26 0 0 6.15 7.743 2.733 12.299 0 0 25.964 38.946-.456 96.797l5.01 25.509-7.743 10.932-2.277 16.399 44.925 24.406z" fill="#fff" fill-rule="evenodd" stroke-width="4" stroke-linecap="round" stroke-linejoin="round" transform="matrix(.46168 0 0 .45798 229.662 62.433)"/><path d="M227.375 194.219l3.813 63.406s33.316 2.665 58.968 12.094c.01.003.022-.004.031 0 25.74 9.187 52.625 28.312 52.625 28.312l43.532-46.25s-12.082-6.232-23.375 5.469c0 0-9.507-19.448-23.219.219 0 0 13.197 2.48 7.406 12.312-6.956 11.813-21.996-4.897-20.031-10.937.076-.152-16.667 10.1-20.656-3.781-4.237-14.745 15.319-15.773 16-8.157 0 0 13.29-10.418-6.719-18.656 0 0 2.985-11.913-3.469-20.75-10.616 2.654-15.625 13.844-15.625 13.844-20.642-6.488-17.094 10.031-17.094 10.031 5.401-5.413 19.76 7.89 7.063 16.5-11.953 8.106-18.243-10.477-18.281-10.313-2.36 5.898-24.63 9.122-22.406-4.406 1.85-11.26 13.562-4.719 13.562-4.719 2.064-23.886-17.688-15.062-17.688-15.062-1.18-16.22-14.437-19.156-14.437-19.156z" fill="#fdc803" fill-rule="evenodd" stroke-width="4" transform="matrix(.46168 0 0 .45798 229.662 62.433)"/><path d="M562.507 547.983c.64-1.026-92.351-43.709-110.3-103.67 0 0-4.385-15.53-13.493-19.405m13.906 52.196s8.185-1.813 12.06-6.852m-209.984-32.71s-2.558-28.318 14.16-38.724m-160.878 2.965l2.037-11.942s.018-5.012 4.112-7.742c4.094-2.73 12.624-7.847 17.913-5.117 5.288 2.729 6.312 1.023 7.847 1.023 1.535 0 28.068-2.868 65.598 22.891 0 0 1.35-7.952 13.102-13.437 0 0-13.84-39.434 1.567-48.836" fill="none" stroke-width="4" stroke-linecap="round" stroke-linejoin="round" transform="matrix(.46168 0 0 .45798 229.662 62.433)"/><path d="M195.606 376.23s6.529 19.848 10.185 24.287" fill="none" stroke-width="4" transform="matrix(.46168 0 0 .45798 229.662 62.433)"/><path d="M345.48 303.183c.073-.436-21.099-9.631-39.405 4.624m31.609-141.905s14.857 23.214 4.024 53.547m7.428-79.546s-13.928.619-20.428 0" fill="#fff" fill-rule="evenodd" stroke-width="4" stroke-linecap="round" stroke-linejoin="round" transform="matrix(.46168 0 0 .45798 229.662 62.433)"/><path d="M361.657 120.026s-11.368 1.213-18.795 8.64c0 0-3.941 3.638-5.911.303-1.971-3.334 3.486-6.366 3.486-6.366s11.823-4.85 21.22-2.577z" fill="#fff" fill-rule="evenodd" stroke-width="4" transform="matrix(.46168 0 0 .45798 229.662 62.433)"/><path d="M323.309 118.207s6.28 4.85 20.766-6.366m-27.611 35.569s2.257 18.11-29.797 21.16" fill="#fff" fill-rule="evenodd" stroke-width="4" stroke-linecap="round" stroke-linejoin="round" transform="matrix(.46168 0 0 .45798 229.662 62.433)"/><path d="M225.431 155.297s-3.892 3.005-15.226 4.183m32.738-.975s-3.09 2.337-7.473 4.584" fill="none" stroke-width="4" stroke-linecap="round" stroke-linejoin="round" transform="matrix(.46168 0 0 .45798 229.662 62.433)"/><path d="M210.109 145.639c2.412-2.642 7.155-7.15 11.791-6.678 6.55.669 5.347 5.08 5.347 5.08s.139 3.704-6.411 1.7c-3.488-1.067-5.74-.307-9.954.822-2.25.603-.773-.924-.773-.924z" fill-rule="evenodd" stroke-width="2" transform="matrix(.46168 0 0 .45798 229.662 62.433)"/><path transform="matrix(.22796 .39826 -.40148 .22613 344.893 -25.131)" d="M293.543 118.777a5.607 4.269 0 1 1-11.215 0 5.607 4.269 0 1 1 11.215 0z" stroke-width="4" stroke-linecap="round" stroke-linejoin="round"/><path d="M275.186 120.237s7.483-16.213 26.514-1.521" fill="none" stroke-width="4.6" stroke-linecap="round" stroke-linejoin="round" transform="matrix(.46168 0 0 .45798 229.662 62.433)"/><path d="M568.037 419.654s-5.613-13.05-15.615-22.693m-336.767-85.223c3.498-3.544 7.645-6.843 12.103-10.388M51.712 460.411s-3.398 9.77-.85 25.485m50.466 35.42s2.548 6.796 8.92 16.99m420.064 142.399s-4.247 5.946-4.672 17.414m55.898-7.053c-.705-.141-3.352 9.268-1.274 21.237" fill="none" stroke-width="4" stroke-linecap="round" stroke-linejoin="round" transform="matrix(.46168 0 0 .45798 229.662 62.433)"/><path transform="matrix(.46168 0 0 .45798 232.552 64.407)" d="M275.414 96.885c-4.005 2.647-6.724 9.317.632 12.28" style="marker:none" color="#000" fill="none" stroke-width="4" stroke-linecap="round" overflow="visible"/><path d="M275.186 120.237s.987-6.18 7.178-6.76" fill="none" stroke-width="4.6" stroke-linecap="round" stroke-linejoin="round" transform="matrix(.46168 0 0 .45798 229.662 62.433)"/></g></svg>