<svg xmlns="http://www.w3.org/2000/svg" width="800" height="500" version="1" xmlns:cgf="https://coding.garden/flags"><metadata id="cgf-metadata">

<cgf:flag>
  <cgf:name></cgf:name>
  <cgf:route>pl/mz</cgf:route>
  <cgf:aspect-ratio>1.6</cgf:aspect-ratio>
</cgf:flag>

</metadata><path d="M0 0h799.993L800 500H0V0z" fill="#e60d2e" fill-rule="evenodd"></path><path d="M319.808 166.647c.495.323 1.082.553 1.738.71 1.826.44 4.206.366 6.724.164h.034c3.139-.167 5.672-.717 7.462-1.74 1.608-.92 2.616-2.251 2.909-4.07l.11-10.8v-.016c.051-2.301-.396-3.96-1.206-5.151-.786-1.157-1.952-1.91-3.352-2.411l-.045-.015-.076-.037c-1.892-.916-3.418-2.093-4.434-3.628-1.029-1.554-1.514-3.432-1.305-5.723l-.003-.002.56-12.788.015-.106c.247-1.89.858-3.533 1.869-4.908.993-1.351 2.358-2.423 4.124-3.193 3.647-2.524 7.059-5.193 9.048-8.74 1.971-3.515 2.583-8.001.688-14.28l-.834-2.758c4.08 2.067 7.732 4.029 10.313 8.06l45.348-42.265a6.403 6.403 0 0 0 .86-1.711 4.356 4.356 0 0 0 .187-1.693v-.005c-.25-3.083.142-4.956.831-5.96.882-1.288 2.34-1.47 3.638-.702 1.133.668 2.213 2.122 2.677 3.642h-.003c3.062 9.125 4.026 16.293 3.462 22.033-.577 5.885-2.738 10.275-5.891 13.73-6.274 7.17-12.383 14.095-18.421 20.735-5.712 6.283-11.435 12.397-17.292 18.366a33.118 33.118 0 0 1 2.298.062 407.724 407.724 0 0 0 21.668-13.834 481.858 481.858 0 0 0 23.78-17.342 7.906 7.906 0 0 0 1.799-2.505c.591-1.27.874-2.586 1.071-3.968.324-1.757 1.007-2.795 1.774-3.318a2.557 2.557 0 0 1 2.864-.046 2.923 2.923 0 0 1 1.31 2.101v.005c3.384 31.13-2.866 35.781-9.9 41.015a73.131 73.131 0 0 0-2.447 1.878l-.008.005c-13.495 8.874-26.995 17.808-41.095 25.705 13.516-2.759 26.957-6.709 40.399-10.657 2.366-.695 4.716-1.387 7.737-2.264v-.002c2.472-.772 4.385-1.908 5.908-3.297 1.52-1.385 2.67-3.04 3.612-4.845.902-2.141 3.41-4.832 5.53-2.487.584.644.966 1.649 1.002 2.858v.004c.27 10.236-1.409 18.197-4.869 24.077-3.503 5.952-8.793 9.74-15.704 11.567-11.367 3.707-22.754 6.715-34.15 9.244a466.411 466.411 0 0 1-12.199 2.528c5.507.157 11.026.286 16.57.363 10.558.15 21.254.111 32.218-.29h.045c6.229-.014 8.749-2.196 11.3-4.405 1.282-1.11 2.297-2.762 3.908-3.325 2.45-.857 3.718 1.328 3.434 3.452l-.009.07-.015.06c-2.664 10.892-6.83 18.464-12.208 23.348-5.436 4.937-12.06 7.114-19.6 7.177-12.185.519-24.3.841-36.304.874-3.228.008-6.445-.006-9.65-.042a590.372 590.372 0 0 0 19.549 5.303c12.465 3.164 25.133 6.012 37.864 8.76v.002c2.391.425 4.443.286 6.277-.215 2.684-.732 5.545-3.594 7.827-3.793 2.561-.224 3.68 2.436 2.775 4.479-5.138 8.817-9.654 15.546-16.004 19.485-6.397 3.968-14.499 5.023-26.695 2.403a225.236 225.236 0 0 1-35.538-8.704 225.516 225.516 0 0 1-15.966-6.012c.224.427.435.86.635 1.297a710.076 710.076 0 0 0 25.265 15.528 606.456 606.456 0 0 0 33.901 18.468c4.201 2.117 8.558 2.626 13.055 1.16 5.51-2.467 7.251 2.23 3.65 5.556-6.707 6.193-13.614 10.433-20.75 12.415-7.195 1.998-14.588 1.699-22.206-1.21l-.088-.04c-13.021-6.161-24.717-12.57-34.73-19.347 3.96 7.992 7.871 15.506 11.978 21.685 4.872 7.33 10.013 12.793 15.845 14.943l3.548 1.308-3.635 1.037c-14.407 4.112-24.411-3.271-31.62-12.667 6.435 12.951 13.554 23.732 24.476 24.273l7.558.374-7.283 2.049c-2.804.79-5.458 1.223-7.979 1.336l13.727 18.544c1.521 1.64 3.128 2.566 4.818 2.774 1.719.212 3.587-.304 5.602-1.546l.067-.04.069-.033 20.274-9.285c2.73-1.25 6.997-.078 9.38 2.15l1.835 1.112c3.135 1.9 5.032 4.003 5.798 6.461 1.132 3.63-.442 6.914-1.94 10.118-1.903-2.81-3.733-4.937-7.327-5.74l-.082.065c-2.581 2.013-6.21 2.813-10.043.824l-13.566 4.117 18.792 4.294c1.034.236 1.808.78 2.69 1.345 2.947 1.89 4.537 3.918 5.144 5.854l.01-.02.005.066c.293.96.362 1.973.168 2.964.448 3.437.466 7.565-1.864 10.845-2.116 3.019-5.41 3.825-8.734 4.675.735-3.51.78-6.187-.578-9.67-2.362-.597-4.603-2.137-6.152-4.92l-14.48-5.83 8.915 16.125c.66 1.195.956 1.84 1.21 3.267.53 2.966-.218 5.15-1.612 6.565l-.936 1.756c-1.917 3.596-4.458 5.56-7.525 6.147-4.404.846-8.45-1.231-12.254-3.125 3.434-1.817 7.31-3.318 8.518-7.45-.911-1.756-1.284-3.998-.747-6.698l-6.075-15.827c-.289-.73-.186-.857-.707-.477l-12.803 13.388c.28 3.584-.93 5.909-2.797 7.24l.033.146c.698 3.072 3.614 5.396 5.81 7.423-3.446 1.334-6.494 2.496-9.957.157-2.164-1.462-4.11-4.079-6.494-7.754l-.811-1.388c-1.31-1.393-1.918-3.206-1.245-5.238 1.858-6.179 6.854-10.087 13.758-15.488.961-.752 3.385-2.49 5.067-3.965 1.35-1.183 2.119-2.052 2.043-3.204-.068-1.012-.994-2.01-1.701-2.668l-31.25-29.126c-1.743 8.498-6.736 15.275-11.95 21.94l-.026-3.537c-.097-12.878-2.527-23.14-6.366-31.824-3.569-8.067-8.359-14.792-13.627-20.991a73.029 73.029 0 0 1-1.031 4.637c2.591 17.263 6.92 32.012 13.791 43.087 6.796 10.951 16.099 18.316 28.703 20.963l2.682.562c-11.658 8.749-24.014 9.435-37.907 9.122a101.327 101.327 0 0 0 2.77 4.715c10.06 16.1 24.702 29.204 44.283 35.206l2.291.703c-4.062 3.102-8.135 5.908-12.742 8.185-3.696 1.826-7.497 3.285-11.439 4.502-9.568 3.086-13.799-1.465-19.337-7.424-3.142-3.377-6.23-6.767-9.12-10.365a37.288 37.288 0 0 1 1.202 10.483c-.165 6.826-2.462 15.953-6.271 24.007-3.299 6.973-7.755 13.181-12.983 16.48l-.741.467-.683-.544c-5.918-4.728-10.683-10.817-14.147-17.593a60.892 60.892 0 0 1-6.438-22.628c-.248-3.049.079-6.187.807-9.4a217.722 217.722 0 0 1-5.554 7.996c-2.209 3.037-4.394 5.523-7.114 7.192-2.774 1.704-6.026 2.524-10.286 2.164l-.02-.01c-6.898-.688-12.569-2.102-17.343-4.045a44.215 44.215 0 0 1-12.054-7.275l-1.584-1.34 1.936-.748c20.81-8.048 35.92-20.642 46.148-36.507a92.205 92.205 0 0 0 2.554-4.206c-13.761.138-25.328-.648-36.75-9.137l2.679-.562c12.604-2.647 21.91-10.013 28.703-20.965 6.525-10.515 10.759-24.345 13.388-40.493a49.103 49.103 0 0 1-1.574-7.21c-5.335 6.255-10.19 13.038-13.796 21.192-3.84 8.683-6.27 18.947-6.366 31.824l-.027 3.537-2.179-2.784c-5.515-7.048-8.525-13.211-9.744-19.019l-29.977 27.943c-1.838 1.647-2.188 3.079-.472 4.974 2.194 1.814 4.155 3.347 5.973 4.772 6.905 5.4 11.901 9.31 13.757 15.487.658 1.983.096 3.759-1.15 5.138l-1.56 2.405c-2.393 3.691-4.184 6.082-6.213 7.323-3.25 1.987-6.412.586-9.585-.643 2.245-2.071 5.109-4.334 5.811-7.423l.033-.145c-1.867-1.33-3.076-3.657-2.795-7.24l-12.805-13.387c-.367-.338-.366-.31-.707.475l-6.073 15.827c.535 2.7.163 4.942-.748 6.697 1.208 4.135 5.082 5.634 8.52 7.451-3.806 1.894-7.853 3.971-12.256 3.127-3.066-.589-5.609-2.553-7.526-6.149l-.936-1.756c-1.678-1.703-2.418-4.52-1.125-8.476l.037-.114.054-.099 9.547-17.269-14.48 5.829c-1.547 2.787-3.79 4.324-6.152 4.923-1.318 3.482-1.156 6.16-.576 9.67-3.445-.882-6.646-1.758-8.754-4.971-2.08-3.169-2.074-7.04-1.868-10.673.02.126-.007-2.488.462-3.573.916-2.127 3.052-4.33 6.882-6.314l.14-.072.15-.034 19.197-4.387-13.566-4.117c-3.833 1.988-7.462 1.19-10.043-.822a9.816 9.816 0 0 1-.082-.066c-3.46.852-5.26 3.148-7.326 5.74l-.841-1.802c-1.462-3.125-1.865-5.942-1.105-8.497.762-2.56 2.662-4.768 5.803-6.672 2.398-1.871 7.123-4.01 10.62-3.144l19.898 9.115c2.2 1.028 4.12 2.38 6.71 2.062 1.69-.208 3.296-1.133 4.819-2.772l12.87-17.39c-2.68-.07-5.511-.51-8.515-1.354l-7.283-2.05 7.558-.373c11.413-.565 18.676-12.316 25.343-26.04-6.925 10.753-15.903 19.165-32.487 14.434l-3.635-1.037 3.548-1.31c5.83-2.15 10.973-7.613 15.845-14.942 4.959-7.462 9.632-16.871 14.455-26.718v.001l.169-.37a155.36 155.36 0 0 1-5.956 4.313c-10.29 7.099-22.425 13.791-36.002 20.216l-.089.039c-7.617 2.91-15.01 3.208-22.205 1.21-7.136-1.981-14.042-6.221-20.75-12.415-1.117-1.032-1.808-2.318-1.93-3.397-.148-1.29.484-2.434 1.776-2.794 2.338-.65 6.806 1.67 9.991 1.455 2.176-.146 4.454-.762 6.867-1.98a606.538 606.538 0 0 0 33.903-18.467 711.805 711.805 0 0 0 26.244-16.159c.27-.388.553-.779.848-1.172a225.792 225.792 0 0 1-17.16 6.516 225.227 225.227 0 0 1-35.536 8.706c-12.198 2.62-20.298 1.565-26.696-2.403-6.351-3.94-10.866-10.668-16.003-19.486-.381-.856-.436-1.927-.072-2.802.479-1.155 1.616-1.784 2.847-1.677.864.075 1.854.512 2.844 1.411 1.534 1.024 3.157 1.885 4.983 2.382 1.834.501 3.886.64 6.277.216v-.003c12.73-2.747 25.397-5.596 37.863-8.76a589.795 589.795 0 0 0 19.548-5.302c-3.204.036-6.422.05-9.648.042-12.006-.033-24.119-.356-36.306-.874-7.537-.063-14.164-2.24-19.6-7.177-5.378-4.884-9.541-12.457-12.21-23.347l-.013-.06-.009-.072c-.284-2.122.987-4.308 3.435-3.452 1.612.563 2.626 2.215 3.908 3.325 2.551 2.208 5.07 4.39 11.301 4.406h.045c10.962.4 21.658.438 32.217.29a1159.657 1159.657 0 0 0 16.571-.363 465.14 465.14 0 0 1-12.198-2.529c-11.399-2.529-22.784-5.537-34.152-9.243-6.91-1.827-12.2-5.615-15.705-11.568-3.46-5.88-5.14-13.84-4.869-24.076v-.005c.036-1.209.419-2.212 1.002-2.857.853-.943 2.122-1.127 3.223-.508.82.459 1.643 1.417 2.308 2.995.941 1.805 2.092 3.46 3.612 4.845 1.524 1.388 3.437 2.524 5.91 3.297v.001c3.018.878 5.37 1.57 7.736 2.264 13.44 3.949 26.882 7.899 40.397 10.656-12.606-7.058-25.2-15.253-37.766-23.514a119.06 119.06 0 0 1-5.783-4.073c-7.033-5.234-13.284-9.884-9.9-41.015v-.004a2.923 2.923 0 0 1 1.31-2.102 2.559 2.559 0 0 1 2.863.045c.767.525 1.45 1.562 1.774 3.32l.01.068c.304 2.354 1.072 4.753 2.86 6.404a481.94 481.94 0 0 0 23.782 17.342 407.09 407.09 0 0 0 22.003 14.034c.033-.709.087-1.417.142-2.124a679.609 679.609 0 0 1-15.472-16.504c-6.038-6.64-12.147-13.564-18.42-20.736l-.001.002c-3.154-3.456-5.315-7.847-5.892-13.73-.562-5.74.4-12.908 3.463-22.032h-.003c.463-1.523 1.545-2.976 2.677-3.645 1.297-.766 2.756-.585 3.637.702.69 1.006 1.08 2.878.831 5.962v.004c-.05.571.015 1.136.189 1.693.176.565.463 1.136.859 1.713l47.488 44.258c.083-.14.169-.28.255-.418 2.193-3.502 5.407-6.791 9.82-9.57l2.76-1.74-.923 3.13c-1.053 3.578-1.38 6.724-.953 9.42.722 4.537 3.392 6.876 6.937 9.266 3.321 2.239 6.319 4.805 7.686 8.707.666 1.898.504 3.512.504 5.43v15.285c.066 1.66-.205 3.178-.917 4.529-.803 1.52-2.218 2.81-3.777 3.52-3.46 1.586-6.92 3.173-6.432 6.74l.004.03 1.039 9.347c.618 2.867 1.375 4.729 3.258 5.798 3.074 1.744 8.442 1.573 11.74 1.573 4.197.017 6.772-.239 8.385-.867a4.334 4.334 0 0 0 1.098-.61c2.51-7.149 6.945-14.197 12.972-21.161-2.205-.446-4.34-1.638-6.378-2.567l4.025-.647c5.845-.941 10.132-3.938 13.202-8.158 3.602-4.951 5.563-11.597 6.413-18.63-9.496-6.367-13.182-6.546-16.647-6.714-3.98-.194-12.387-1.563-11.5-7.236-3.605.033-7.171-.132-10.614-1.057-4.52-1.213-7.105-3.542-9.945-7.043-3.694-4.556-.977-4.406 3.22-2.172 1.044.546 2.145.982 3.296 1.32 3.423 1.003 6.988.96 10.586.916a131.982 131.982 0 0 1 3.213-.012c5.026.063 8.916.368 11.97.855-.205-.788-.322-1.581-.437-2.374-.312-2.138-.625-4.278-3.206-5.679-.82-.443-2.07-.635-3.398-.702-1.429-.072-2.947.006-4.18.075-1.715.094-3.59 1.665-4.94 2.794-1.01.846-1.802 1.51-2.585 1.555-1.007.058-1.59-.434-1.664-1.695 0-.963.124-1.973.168-2.944.26-5.794.52-11.59 8.545-12.482 3.001-.334 6.081-.232 9.11-.133.884.03 1.764.06 2.622.077-.463-6.619.94-10.972 3.594-13.822 2.849-3.058 7.032-4.292 11.855-4.69 7.94-.655 15.523 1.097 23.129 2.855 9.473 2.189 18.981 4.386 29.04 1.718l.992-.261.438.926c1.548 3.288.834 6.02-1.05 8.465-1.273 1.655-3.083 3.136-5.051 4.561 4.201.972 7.256-.227 10.879-1.823l-1.129 2.742c-1.466 3.57-3.787 6.185-6.653 8.19-2.6 1.82-5.65 3.131-8.912 4.195-1.46 10.84-.988 19.459.901 26.298 1.907 6.904 5.265 11.996 9.535 15.73l1.31 1.145c-2.639 1.489-4.4 1.966-7.345 1.468.332 3.173 1.058 6.017 2.362 8.374 2.234 4.038 5.5 5.428 9.502 6.946-2.462 1.417-4.589 2.686-7.527 2.964 3.329 6.075 5.505 11.965 6.736 17.7z"></path><path d="M176.158 118.705a29.253 29.253 0 0 1 12.225 1.163c-7.218-8.17-17.944-21.11-24.052-29.84 7.255 6 23.033 25.533 25.538 24.883a23.677 23.677 0 0 1-.547-4.823 24.22 24.22 0 0 1 2.11-10.118l-.374-1.078-46.314-43.165c-1.238-1.154-2.046-2.057-2.577-3.756a6.833 6.833 0 0 1-.305-2.629c.008-.082.248-4.376-.445-4.455-1.009.363-1.764 2.031-1.879 2.381-2.953 8.792-3.888 15.632-3.358 21.054.519 5.285 2.451 9.217 5.264 12.302l.015.02c6.192 7.077 12.264 13.958 18.406 20.714a670.397 670.397 0 0 0 16.293 17.347zm-2.84 5.766a407.462 407.462 0 0 1-23.34-14.821 484.408 484.408 0 0 1-23.983-17.496c-1.012-.788-1.91-2.2-2.445-3.348-.592-1.267-1.02-2.78-1.257-4.576-.188-1.01-.463-1.524-.74-1.716-.152-.104-.32.165-.333.29-3.23 29.732 2.486 33.985 8.918 38.772 14.49 10.463 31.256 20.58 47.156 29.542 2.591-.715 5.567-1.11 8.985-1.136l-.066-.127c-2.496-1.765-4.722-3.784-6.595-6.133l-2.015-1.332c-7.56-5.522-13.352-9.939-21.633-16.333 7.017 3.676 14.64 8.22 19.336 10-1.236-3.351-1.935-7.179-1.987-11.586zm-1.718 29.063c-13.555-2.775-27.015-6.73-40.474-10.685-4.983-1.465-10.678-2.52-14.61-6.102-1.635-1.49-3.291-3.632-4.201-5.657-.195-.47-1.3-2.938-1.725-1.261a3.203 3.203 0 0 0-.09.687c-.255 9.771 1.303 17.297 4.524 22.767 3.164 5.378 7.973 8.8 14.27 10.448l.073.02c11.322 3.691 22.627 6.68 33.92 9.185a465.505 465.505 0 0 0 14.907 3.046 25.725 25.725 0 0 1-1.62-.541c-3.796-1.416-7.13-3.74-9.72-7.52-6.082-6.013-19.505-8.31-30.02-11.549 12.072 2.354 20.909 4.09 27.982 4.08h.06c1.632-2.791 3.811-5.148 6.722-6.918zm3.639 26.8c-5.574.158-11.176.29-16.828.369-10.607.15-21.344.11-32.332-.29-7.11-.03-9.973-2.506-12.87-5.014-.887-.768-1.63-1.782-2.47-2.476-.702-.58-.935-.574-.828.358 2.541 10.342 6.448 17.486 11.46 22.037 4.955 4.498 11.04 6.48 17.993 6.53h.043c12.189.52 24.277.842 36.207.873 1.278.003 2.553.003 3.826 0-4.603-1.276-9.112-3.924-13.49-8.482-7.142-.987-17.307-1.398-27.263-2.221 9.27-.514 20.084-.707 27.597-1.858 2.15-3.995 5.086-7.312 8.955-9.826zm13.733 26.297c-7.473 2.225-15.035 4.28-22.658 6.216-12.945 3.285-25.188 6.806-38.443 8.862-4.723.734-8.774-.438-12.733-3.103-.483-.375-.957-.87-1.602-.928-.528-.045-.443.543-.347.915 4.92 8.436 9.225 14.852 15.08 18.485 5.844 3.623 13.386 4.556 24.892 2.085l.063-.01a222.778 222.778 0 0 0 35.202-8.617 222.091 222.091 0 0 0 8.226-2.93c-4.165-.31-8.638-1.987-14.036-5.12-4.267.63-14.25 3.056-27.89 4.676 17.657-4.41 22.647-6.356 26.515-9.493l.658-.288a32.807 32.807 0 0 1 7.073-10.75zm13.805 25.578a709.327 709.327 0 0 1-22.256 13.597 609.197 609.197 0 0 1-34.036 18.546c-2.744 1.382-5.336 2.083-7.813 2.25-2.49.166-4.868-.203-7.174-.964-.315-.124-2.376-1.025-2.308-.448.06.537.471 1.236 1.15 1.864 6.426 5.933 12.997 9.983 19.736 11.854 6.673 1.853 13.546 1.572 20.645-1.133 13.445-6.366 25.446-12.983 35.596-19.984 5.475-3.777 10.41-7.666 14.745-11.687a22.87 22.87 0 0 1-3.064 1.125c-4.072 1.172-8.394 1.173-12.957.05l-.474.04c-5.863 3.267-12.08 5.864-25.105 12.365 11.563-6.632 17.002-10.937 20.819-14.502l-.008-.262c-.12-4.703.628-8.734 2.504-12.71zm42.22 11.073c-5.45-6.845-9.447-14.37-11.688-22.716-2.395-8.927-2.775-18.782-.77-29.735-2.062-7.046-2.023-14.003-.17-20.88-2.638.8-5.89.778-8.508.778-6.56.041-10.442-.485-12.947-1.904-2.786-1.582-4.002-4.587-4.486-7.604l-1.046-9.413h.001c-.711-5.35 3.572-7.315 7.855-9.28 1.046-.47 2.079-1.405 2.619-2.43.57-1.081.627-2.135.627-3.33V120.79c.075-3.304-.453-5.153-2.615-7.738-2.306-2.754-5.727-4.177-8.31-6.636-2.283-2.171-3.661-4.843-4.162-8-.35-2.203-.269-4.631.235-7.278-2.75 2.127-4.862 4.49-6.412 6.964-2.425 3.871-3.47 8.023-3.428 11.965.042 3.934 1.16 7.655 3.064 10.677a16.794 16.794 0 0 0 3.756 4.23c2.077 1.42.8 3.788-1.525 1.942-3.16-2.141-6.422-3.796-9.826-4.812a26.548 26.548 0 0 0-11.385-.876c-.444 7.545.941 13.375 3.634 17.982 2.807 4.803 7.054 8.33 12.133 11.12.488.606.146 2.411-.695 2.316-7.062-.583-12.35.213-16.3 2.052-3.688 1.714-6.236 4.355-8 7.634 2.441 5.916 6.24 9.107 10.785 10.802 4.546 1.695 9.923 1.937 15.465 1.89 2.006-.015 1.24 2.433-.03 2.523-6.635.463-11.905 2.082-16.016 4.678-4.045 2.552-6.995 6.073-9.044 10.388 5.8 6.002 11.804 8.368 17.927 8.571 5.419.18 10.98-1.31 16.598-3.48 4.362-1.921 5.226.617.938 2.277-5.012 2.215-9.053 4.918-12.226 8.058-3.54 3.503-6.007 7.564-7.54 12.107 6.796 3.997 11.93 5.563 16.737 4.9 4.874-.672 9.575-3.646 15.458-8.71 1.385-1.193 2.35 1.21 1.537 1.966-5.381 5.011-9.053 9.17-11.352 13.262-2.212 3.935-3.158 7.846-3.153 12.46 5.23 1.823 10.1 2.122 14.59.83 4.717-1.358 9.066-4.493 13.025-9.49l1.737-2.107c.747-.657 1.798-.04 1.502.845l-1.21 2.66a147.81 147.81 0 0 0-2.56 4.407c-.403.728-.79 1.455-1.16 2.18 4.861-1.083 10.407-.926 16.34-.068zm-5.722 29.279.314-.688c-.104.232-.21.46-.317.688-.476-.413-1.992 1.373-4.263 6.118l-.665 1.393c-4.879 9.852-9.942 18.296-15.842 24.142-6.089 6.037-13.116 9.295-21.85 8.44 11.315-4.424 18.2-19.242 25.183-34.277 2.07-4.458 4.151-8.935 6.351-13.144 1.37-2.62.094-4.964-1.887-2.262-2.487 3.392-4.727 7.436-7.028 11.591-7.095 12.815-14.804 26.73-31.915 23.727 5.022-2.904 9.51-7.962 13.747-14.337 5.057-7.61 9.765-17.085 14.619-26.998l.02-.048c2.639-6.018 6.86-9.312 12.123-10.81a27.12 27.12 0 0 1 4.984-.896c2.358-.213 4.866-.184 7.487.03h-.003c1.887.153 3.832.403 5.822.726.442 5.411 1.655 10.645 3.53 15.722 1.657 4.488 3.83 8.852 6.445 13.111l.843 2.448c-5.72 6.62-10.947 13.8-14.804 22.522-3.602 8.145-6.004 17.62-6.49 29.209-12.895-18.293-7.358-30.578 1.147-48.364 2.261-4.595 2.959-7.592 2.45-8.043zm22.209 18.908c-2.716 14.615-6.863 27.23-12.98 37.088-6.645 10.712-15.594 18.167-27.518 21.414 9.367 5.576 21.594 5.627 32.164 5.467 4.86-9.131 8.305-19.189 10.47-29.97-2.727 4.59-6.206 9.382-11.314 12.633 6.322-8.154 11.16-19.384 13.46-29.357.617-2.667.539-5.694.618-8.43v-.024a46.927 46.927 0 0 1-4.902-8.82zm40.587 37.088c-6.384-10.29-10.621-23.579-13.325-39.013-1.445 4.088-3.26 7.81-5.447 11.164-.015 2.828.13 4.95.74 7.694 2.194 9.858 7.353 21.063 12.872 29.582-3.538-2.587-8.24-9.106-11.361-13.814 2.09 10.69 5.652 21.38 10.76 31.25 10.883.198 23.613.305 33.28-5.449-11.925-3.247-20.874-10.702-27.519-21.414zm-33.327-25.187c-1.04 22.658-6.542 43.18-17.445 60.094-10.178 15.79-25.045 28.416-45.36 36.69a41.89 41.89 0 0 0 9.765 5.562c4.573 1.861 10.013 3.218 16.638 3.879v-.008c3.702.314 6.478-.37 8.801-1.796 2.377-1.459 4.36-3.734 6.4-6.536 3.892-5.35 7.472-10.76 10.7-16.236 1.65-4.081 3.641-8.251 5.662-12.48 3.972-8.32 8.058-16.875 9.736-25.276l1.86-9.3.523 8.434.288 1.928a82.822 82.822 0 0 0 5.796 20.46c1.396 2.746 2.907 5.32 4.388 7.845 1.62 2.758 3.207 5.461 4.588 8.27 4.234 6.112 9.062 11.704 14.19 17.22 4.936 5.312 8.705 9.368 16.794 6.753l.015-.005c3.818-1.179 7.496-2.59 11.07-4.356a63.108 63.108 0 0 0 8.515-5.071c-19.055-6.488-33.392-19.578-43.35-35.51-11.319-18.113-16.971-39.909-17.457-59.83-1.703 2.156-3.59 4.062-5.606 5.918-2.32-2.09-4.519-4.24-6.513-6.649zm3.224 57.38c-1.762 4.323-3.813 8.616-5.835 12.85-5.153 10.79-10.118 21.186-9.375 30.312a58.398 58.398 0 0 0 6.17 21.704c3.172 6.206 7.476 11.802 12.788 16.215 4.486-3.139 8.376-8.706 11.334-14.96 3.665-7.745 5.873-16.493 6.029-23.012.257-10.716-4.086-18.115-8.706-25.985-2.755-4.693-5.604-9.55-7.696-15.35-.39 11.328-.359 19.345-1.525 32.477-1.618-13.806-.807-21.733-3.184-34.251zm50.275-93.85c1.845 3.648 3.616 7.46 5.38 11.258 6.982 15.034 13.869 29.852 25.182 34.275-8.732.854-15.76-2.404-21.85-8.438-5.898-5.848-10.963-14.292-15.841-24.144l-.665-1.391c-2.426-5.068-3.89-6.748-4.297-6.194l-.284-.612.283.615c-.435.601.35 3.785 2.48 8.116 8.507 17.784 14.043 30.069 1.148 48.362-.487-11.589-2.887-21.062-6.49-29.209-3.856-8.72-9.084-15.9-14.805-22.522l.904-2.62c2.89-3.926 5.192-8.429 6.91-13.51 1.555-4.597 2.631-9.66 3.229-15.187 6.718-1.073 12.91-1.292 18.065.176 5.264 1.498 9.485 4.793 12.125 10.81l.02.05c4.852 9.91 9.56 19.387 14.617 26.996 4.222 6.353 8.692 11.397 13.693 14.305-18.707 2.84-29.034-16.738-35.414-28.842a196.75 196.75 0 0 0-2.29-4.264c-1.53-2.729-2.607-3.448-3.061-2.953-.73.792.512 4.038.96 4.923zm19.545-34.89a709.04 709.04 0 0 0 22.567 13.796 609.131 609.131 0 0 0 34.037 18.546c2.742 1.382 5.334 2.083 7.813 2.25 2.131.142 5.33-.125 7.295-1.011 2.262-1.029 3.083-.428 1.037 1.463-6.426 5.933-12.998 9.983-19.736 11.854-6.673 1.853-13.547 1.572-20.646-1.133-13.446-6.366-25.445-12.983-35.596-19.984a169.644 169.644 0 0 1-2.374-1.671l-.229-.468-.001.002c-2.514-5.699-6.295-9.227-10.985-11.206a86.1 86.1 0 0 0-.386-.797 20.854 20.854 0 0 0 2.852 1.679c3.667 1.778 7.95 2.515 12.957 2.035 5.838 3.246 12.058 5.85 25.021 12.32-12.986-7.45-18.248-11.96-22.16-15.789.097-4.234-.36-8.21-1.465-11.885zm15.236-25.047a579.452 579.452 0 0 0 21.539 5.884c12.515 3.175 25.2 6.03 37.94 8.78l.044.004c2.817.508 5.237.344 7.4-.246 2.147-.586 4.028-1.592 5.793-2.779.48-.375.954-.87 1.6-.928.53-.045.439.56.348.915-4.922 8.436-9.227 14.852-15.081 18.485-5.844 3.623-13.385 4.556-24.891 2.085l-.063-.01a222.778 222.778 0 0 1-35.204-8.617 220.747 220.747 0 0 1-9.739-3.508c4.925.442 10.541-.448 17.107-3.164 4.378.679 14.259 3.052 27.68 4.645-17.588-4.394-22.608-6.341-26.47-9.456-1.611-4.567-4.168-8.373-7.466-11.582a34.157 34.157 0 0 0-.537-.508zm9.35-26.725c6.652.2 13.335.37 20.09.465 10.608.15 21.346.11 32.334-.29 7.109-.03 9.972-2.506 12.869-5.014.907-.785 1.52-1.577 2.342-2.391.553-.547 1.083-.828.956.275-2.54 10.339-6.447 17.482-11.46 22.035-4.954 4.498-11.041 6.48-17.992 6.53h-.043c-12.19.52-24.277.842-36.208.873-.821.002-1.643.003-2.465.002 4.054-1.32 8.142-3.692 12.272-7.477l.688-.628-.23-.46c7.105-.928 16.98-1.34 26.662-2.14-9.91-.55-21.587-.733-29.107-2.11a29.608 29.608 0 0 0-8.36-8.262 33.18 33.18 0 0 0-2.348-1.408zm6.47-26.617c13.7-2.778 27.304-6.774 40.905-10.772 2.798-.822 5.612-1.649 7.752-2.27l.024-.005c2.844-.888 5.059-2.209 6.836-3.826 2.239-2.041 3.236-4.196 4.71-6.676.439-.737 1.012-1.345 1.249-.09.03.16.049.338.055.534.257 9.771-1.303 17.297-4.522 22.767-3.164 5.378-7.974 8.8-14.271 10.448l-.072.02c-11.323 3.691-22.627 6.68-33.92 9.185a444.19 444.19 0 0 1-7.844 1.665c4.192-2.083 7.954-5.267 11.06-10.128 6.884-3.901 17.371-5.914 25.929-8.549-12.073 2.354-20.91 4.088-27.983 4.08h-.045c-3.12-2.807-6.416-4.902-9.86-6.381zM355.36 97.455l45.908-42.788c.643-.735 1.151-1.763 1.442-2.696a6.834 6.834 0 0 0 .304-2.629c-.124-1.539-.093-2.639.045-3.386.433-2.363 1.957.264 2.265 1.28l.015.032c2.953 8.792 3.889 15.632 3.357 21.054-.517 5.285-2.448 9.217-5.262 12.302l-.015.02c-6.192 7.077-12.264 13.958-18.408 20.714-6.042 6.646-12.073 13.082-18.222 19.315-.925.419-1.858.839-2.797 1.26-.932.181-1.848.405-2.75.673-3.255.956-6.312 2.454-9.292 4.4a80.458 80.458 0 0 0 1.781-4.327c7.063-7.806 20.052-22.984 26.816-32.65-6.492 5.368-19.805 21.568-24.33 24.454.747-3.383 1.093-6.71.872-9.843-.179-2.548-.728-4.966-1.729-7.185zm20.485 24.462A414.784 414.784 0 0 0 394.9 109.65a479.836 479.836 0 0 0 20.966-15.172c2.26-1.73 4.208-2.982 5.461-5.67.863-1.67 1.335-5.046 1.649-5.922.12-.327.562-.623.681-.082l.005.04c3.22 29.696-2.493 33.947-8.922 38.732a69.666 69.666 0 0 0-2.351 1.798l-.263.173c-15.16 9.976-30.364 19.979-45.506 28.09a36.502 36.502 0 0 0-4.218-.652c3.627-3.088 6.965-6.412 9.616-10.282.18-.262.357-.526.53-.795l2.356-1.558c7.562-5.523 13.352-9.938 21.633-16.333-7.404 3.878-15.483 8.725-20.086 10.27a3.213 3.213 0 0 0-.228.037c.908-2.717 1.493-5.674 1.68-8.934l.06-1.068c-.705-.14-1.41-.284-2.118-.404zm-54.867 47.842a10.648 10.648 0 0 1-.616-.166c1.124 6.999.867 13.764-.389 20.358l-.19.994-1.007.015a8.65 8.65 0 0 1-1.165-.06c1.162 10.651.567 20.016-1.646 28.198-2.313 8.552-6.384 15.812-12.052 21.904a97.172 97.172 0 0 1-.134 2.002l.798.04c6.244-.893 12.058-1.005 17.09.293a104.043 104.043 0 0 0-1.348-2.527 163.25 163.25 0 0 0-2.321-4.074c-1.123-1.914 1.28-2.548 2.383-.934 2.227 3.257 4.905 5.743 8.127 7.308 3.402 1.649 7.443 2.288 12.237 1.738.228-5.118-.364-9.814-1.95-13.996-1.415-3.733-3.629-7.078-6.764-9.972a38.767 38.767 0 0 1-1.205-.999c-.983-.849.132-3.153 1.701-1.842.36.301.712.608 1.052.919 3.4 2.696 7.181 4.653 11.592 5.389 5.018.837 10.9.104 18.035-2.9-1.42-4.903-3.963-8.902-7.363-12.21-3.352-3.258-7.555-5.864-12.352-8.01-2.227-.997-1.375-3.198.846-2.406 5.235 1.865 10.484 3.093 15.768 2.708 5.434-.398 10.949-2.527 16.594-7.479-2.493-4.66-5.693-7.938-9.338-10.339-3.898-2.566-10.058-4.513-14.694-5.709-2.038-.255-2.663-2.16.185-2.522 5.629-.151 12.908-.254 17.782-2.193 4.567-1.814 8.665-4.864 11.98-9.976-3.375-3.377-6.967-5.806-10.744-7.426-4.02-1.724-8.27-2.536-12.703-2.608-2.359.106-2.15-1.188-.754-2.197 4.402-3.533 8.5-7.284 11.568-11.766 2.862-4.177 4.845-9.022 5.371-14.978-4.977-.84-9.358-.563-13.416.633-4.368 1.288-8.4 3.65-12.406 6.835-2.49 1.56-3.113 1.054-1.868-1.52 4.152-8.212 7.514-17.567 6.957-25.47-.356-5.043-2.35-9.5-6.84-12.67 1.125 5.54.304 9.775-1.646 13.257-1.792 3.194-4.51 5.68-7.534 7.936-1.818 1.358-4.513 2.494-5.803 4.244-.741 1.01-1.2 2.237-1.402 3.665l-.559 12.788-.01.063c-.166 1.719.172 3.09.903 4.195.74 1.12 1.905 2.009 3.374 2.732 1.855.67 3.423 1.708 4.524 3.33 1.09 1.6 1.693 3.731 1.63 6.59l-.112 10.867v.076l-.014.093c-.395 2.68-1.83 4.622-4.137 5.942-2.143 1.225-5.034 1.879-8.53 2.068v.002c-2.72.217-5.326.287-7.487-.233zM252.6 60.825c-2.23 2.39-3.38 6.21-2.926 12.187.598.04 1.163.106 1.696.2 2.445-11.228 12.26-12.07 24.793-9.587 5.32 1.055 11.119 2.711 17.04 4.4 4.669 1.333 9.415 2.689 13.985 3.768 2.392-1.658 4.67-3.333 6.062-5.141 1.142-1.483 1.678-3.103 1.125-4.973-10.235 2.402-19.707.214-29.147-1.966-7.398-1.71-14.776-3.414-22.377-2.788-4.265.352-7.909 1.383-10.252 3.9zm34.655 39.398c6.114 7.517 7.726 13.745 7.726 20.952 3.949 3.786 8.875 6.781 16.556 7.222-3.85-3.866-6.876-8.895-8.678-15.42-1.979-7.159-2.478-16.122-.964-27.326-11.203-6.042-20.768-10.23-28.35-12.175.585 1.856.219 3.59-.717 5.034-1.103 1.7-3.029 2.95-5.088 3.462-2.1.523-4.375.29-6.123-.994-1.768-1.297-2.956-3.615-2.803-7.23a7.478 7.478 0 0 0-2.265 2.14c.275.31.526.645.753 1.004 1.453 2.293 1.868 5.497 1.62 9.589 7.278 4.325 10.734 8.994 11.56 13.899.837 4.964-1.05 10.043-4.406 15.18-.873 7.545-2.974 14.73-6.904 20.135-2.463 3.386-5.629 6.069-9.64 7.708.658.06 1.315.108 1.974.138l-.012.015c4.982.307 9.489-.035 13.556-.996 4.446-1.049 8.363-2.84 11.799-5.326a30.727 30.727 0 0 1-.556-1.51c-1.466-4.316-2.05-7.868-1.8-12.891.09-1.789-.288-3.367 1.544-3.201 1.666.15 1.037 1.904.963 3.474-.222 4.678.275 7.839 1.629 11.828 1.39 4.102 3.7 7.82 7.077 11.089 3.696-7.556 6.452-15.114 6.757-22.667.312-7.706-.897-14.102-7.34-21.94-.838-1.02-1.573-2.213-.652-3 1.1-.942 2.023.871 2.784 1.807zm-37.853 45.642c-6.52 7.266-11.255 14.583-13.8 21.964-2.38 6.905-2.847 13.883-1.067 20.947 7.82-4.947 14.202-10.733 18.687-17.623 4.639-7.127 7.262-15.468 7.359-25.326a47.002 47.002 0 0 1-1.92.175c-2.818 2.246-6.049 5.373-8.406 8.855-1.74 2.57-4.42 5.34-7.391 12.277 1.499-7.415 4.905-11.573 6.18-13.458 1.926-2.844 3.809-5.414 5.943-7.547a61.02 61.02 0 0 1-5.585-.264zm-14.47 45.567c-1.904 10.512-1.532 19.956.76 28.497 2.23 8.31 6.282 15.779 11.83 22.56 3.019-2.683 5.672-5.817 7.734-9.688 2.158-4.051 3.677-8.944 4.301-15.015-4.3-3.515-7.764-8.064-10.22-13.863-2.065-4.881-3.407-10.64-3.92-17.403a36.393 36.393 0 0 0-2.66 11.156c-.23 3.005-.75 6.305-.404 15.794-2.197-9.864-1.63-13.267-1.44-15.767.325-4.248.912-8.34 2.266-12.064a79.989 79.989 0 0 1-8.247 5.794zm13.621 53.428c.356 5.512 1.547 10.826 3.447 15.97 1.856 5.031 4.387 9.903 7.475 14.647 3.466-3.048 6.438-6.504 8.782-10.484 2.322-3.949 4.04-8.422 5.017-13.531-3.72-1.904-6.702-5.493-8.942-10.767-1.415-3.33-2.54-7.34-3.376-12.03-1.245 3.305-2.146 6.82-2.375 10.55-.179 2.96-.302 5.889.35 14.396-2.738-10.492-2.23-12.856-2.09-15.17.09-1.433.204-2.782.37-4.084-2.323 4.232-5.297 7.62-8.658 10.503zm11.935 33c.626 5.485 2.13 10.668 4.599 15.515 2.421 4.76 5.778 9.2 10.146 13.292 7.498-7.286 12.233-17.374 14.204-30.26-4.415-2.706-8.07-6.076-10.738-10.3a29.678 29.678 0 0 1-2.864-5.909l-.523 26.53-1.614-27.543a42.683 42.683 0 0 1-3.318 7.051c-2.63 4.464-5.98 8.292-9.893 11.624zm29.983-3.71c3.176-3.995 5.673-8.68 7.49-14.055 1.877-5.549 3.031-11.844 3.459-18.884-3.952-2.314-7.005-5.392-9.187-9.215a9.5 9.5 0 0 1-.061-.111c.29 2.69.321 5.42.326 7.893.004 2.501-.362 6.118-2.035 12.446.057-5.464.639-9.858.504-12.342-.006-3.24-.657-7.024-1.563-10.461-.839 4.658-2.092 8.384-3.647 11.433-2.504 4.91-5.76 8.056-9.307 10.518.496 5.302 2 9.725 4.334 13.42 2.403 3.807 5.698 6.87 9.687 9.358zm11.974-35.194c5.216-5.717 8.974-12.512 11.134-20.493 2.215-8.194 2.75-17.638 1.45-28.445a52.817 52.817 0 0 1-9.615-6.476c.812 4.378 1.102 8.848 1.668 13.727.287 2.474.734 7.17-.186 16.123-.815-9.934-1.216-12.573-1.534-15.32a147.23 147.23 0 0 0-1.648-10.54c-.628 4.94-1.708 9.68-3.282 14.136-2.21 6.253-5.386 11.94-9.635 16.819.442 4.767 1.626 8.871 3.58 12.292 1.921 3.369 4.602 6.1 8.068 8.177zm-14.412-20.49c-3.81-2.78-6.92-6.645-9.21-11.759-1.024-2.283-1.885-4.815-2.574-7.61l-1.735 33.175-.38-33.874a48.017 48.017 0 0 1-2.543 6.598c-2.476 5.23-5.71 9.583-9.347 13.47l-.068.075c.732 8.913 2.208 15.977 4.423 21.189 2.097 4.932 4.844 8.182 8.241 9.748 3.334-2.282 6.392-5.187 8.716-9.744 2.457-4.82 4.12-11.507 4.477-21.267zm-14.34-30.353c-5.536-5.963-9.09-12.487-11.051-19.466a49.404 49.404 0 0 1-1.256-5.82c-1.34 4.473-2.141 9.061-2.26 13.729-.077 3.108-.44 10.42.431 17.76-3.102-9.56-2.237-15.1-2.17-17.819.075-2.94.229-5.852.61-8.733a47.55 47.55 0 0 1-2.71 4.731c-2.147 3.301-4.704 6.353-7.622 9.185.153 8.57 1.53 15.588 3.941 21.288 2.302 5.44 5.559 9.7 9.598 12.978 3.173-3.512 5.984-7.413 8.157-12.002 2.127-4.494 3.656-9.674 4.331-15.831zm28.144-7.906a56.14 56.14 0 0 1-6.073-7.41 65.496 65.496 0 0 1-3.813-6.287c.179 1.748.279 3.603.35 5.504.104 2.833-.539 13.69-2.414 21.276-.148-8.903.48-17.964.361-21.19-.157-4.18-1.095-9.017-2.367-12.284a48.272 48.272 0 0 1-1.843 11.5c-1.88 6.506-5.04 12.188-8.956 17.384.598 6.845 1.958 12.469 3.99 17.004 2.08 4.642 4.872 8.153 8.28 10.677 3.831-4.53 6.72-9.777 8.754-15.534 2.24-6.34 3.445-13.313 3.73-20.639zm15.904 8.22c1.052-6.094 1.205-12.336.129-18.777-1.11-6.658-3.535-13.542-7.63-20.714-2.751-.505-5.685-1.874-8.578-3.736a75.35 75.35 0 0 1 3.137 5.395c1.284 2.425 3.264 5.325 5.57 15.453-3.098-7.04-5.803-11.911-7.125-14.41-2.338-4.42-5.825-8.671-9.106-12.342a74.43 74.43 0 0 1-2.06-1.97c-1.283 3.667-2.92 7.322-4.747 10.97 2.508 8.495 5.81 16.347 10.462 23.102 3.78 5.49 8.464 10.266 14.357 14.08 1.456.941 3.922 2.688 5.591 2.95zm-39.864-48.904a32.82 32.82 0 0 1-2.136 1.381l-1.227 23.368-1.128-22.085c-3.034 1.5-6.277 2.537-9.598 3.162-1.022 7.958-.762 15.547 1.229 22.633 1.818 6.475 5.091 12.545 10.165 18.112l.79-.044c3.354-4.658 6.054-9.719 7.702-15.42 1.844-6.382 2.376-13.734 1.05-22.13-1.288-.82-5.986-6.669-6.847-8.977zm36.838 6.627c-2.56-1.48-4.436-3.494-5.782-5.926-1.592-2.878-2.416-6.31-2.738-10.104a21.996 21.996 0 0 1-6.89-2.565c-1.493-.86-2.935-1.912-4.42-3.172-.225 3.45-.918 6.885-1.948 10.309 2.965 3.043 6.268 5.958 9.823 8.28 3.681 2.405 7.504 4.419 11.955 3.178zm-53.339-73.464c-.421 3.36.386 5.34 1.698 6.304 1.113.816 2.635.946 4.077.588 1.484-.368 2.853-1.24 3.61-2.41.763-1.174.863-2.712-.292-4.378a32.029 32.029 0 0 0-3.844-.495c-.47.781-.733 1.563-.797 2.342-.072.877.112 1.759.543 2.64l.38.778-.821-.275c-.918-.307-1.753-.739-2.252-1.667-.438-.813-.595-1.99-.28-3.78-.717.072-1.39.189-2.022.353zm-7.63 1.211c.308.131.598.275.876.433 3.166-4.43 9.114-5.507 17.419-3.74 8.205 1.742 18.836 6.291 31.441 13.115 3.073-.998 5.933-2.217 8.344-3.903 1.77-1.24 3.3-2.735 4.49-4.59a15.423 15.423 0 0 1-3.115.317c-5.687-.138-14.696-3.58-20.674-5.13-5.873-1.676-11.627-3.318-16.837-4.351-11.217-2.224-19.957-1.614-21.943 7.85z" fill="#fff"></path><path d="M272.601 329.53c.46-1.465.718-3.512 2.638-3.523.577-.003 1.11.215 1.592.652v.004c2.32 2.76 3.915 13.923 5.976 18.323 2.935 8.675 6.956 16.403 11.14 24.484-8.967-10.446-11.004-22.322-16.774-33.07-.634-1.18-2.57-1.393-3.461.329-5.963 11.515-9.345 23.946-19.517 35.315 8.175-10.937 13.152-25.83 18.406-42.514z"></path><path d="M204.627 376.314c-.692 1.68-1.84 3.116-3.101 4.408 1.469.317 2.612.17 3.658-.47 1.024-.625 2.034-1.712 3.188-3.27-1.12.233-2.156.071-3.745-.668zm-32.677 5.646c2.893 3.473 6.8 3.341 10.738 1.832-1.604-.994-3.293-2.21-4.352-3.802-1.913 1.266-4.085 2.003-6.386 1.97zm-25.358-18.916c.419 3.392 1.882 5.863 5.148 7.18a14.975 14.975 0 0 1 .391-4.608c-2.101-.295-4.022-1.08-5.539-2.57zm-3.912-31.805c-2.595 2.362-3.19 5.16-2.11 8.482 1.164-1.191 2.5-2.178 4.038-2.834-1.226-1.666-1.95-3.567-1.928-5.648zm203.525 45.952c-1.64.651-2.854.592-4.098.173 1.795 2.376 3.886 4.738 7.171 4.228-1.252-1.291-2.39-2.723-3.073-4.401zm32.694 5.686c-2.301.032-4.473-.702-6.384-1.97-1.062 1.592-2.75 2.807-4.354 3.803 3.94 1.51 7.845 1.64 10.738-1.833zm25.374-18.572c-1.547 1.383-3.514 2.001-5.55 2.245.377 1.51.486 3.064.385 4.615 3.464-1.145 4.946-3.357 5.165-6.86zm3.897-31.788c.01 1.979-.729 3.729-1.913 5.294 1.532.656 2.865 1.64 4.027 2.829 1.3-3.264.618-5.851-2.114-8.123zm-47.43-.623-11.34-15.323c-5.3-.182-10.424-2.67-15.048-6.048-3.72-2.719-7.124-6.02-10.016-9.132.11 1.244.305 2.634.5 4.025.358 2.58.72 5.163.588 7.082l30.936 28.832.003-.003c.045.042.157.147.328.314 1.309 1.27 2.01 2.586 2.101 3.944.266 3.98-5.36 7.159-8.064 9.272-6.543 5.119-11.276 8.822-12.91 14.253l-.015.043c-.46 1.357.24 2.593 1.438 3.456 1.894 1.364 4.984 1.872 7.078.675 1.482-.847 2.457-2.653 2.086-5.761l-.068-.574.402-.42 13.289-13.896c.902-.772 2.23-1.27 3.343-.61.719.426 1.086 1.174 1.36 2.006h.001l6.202 16.162.132.342-.084.367c-.807 3.572.36 6.064 2.161 7.404 1.783 1.33 4.798 1.809 6.52.099 1.078-1.072 1.516-3.006.597-5.902l-11.167-20.198-1.043-1.89.9-.525 1.683.678 18.113 7.292.432.173.21.416c1.674 3.295 4.55 4.452 7.182 4.25 2.585-.197 5.996-2.002 5.795-5.032-.127-1.928-1.795-4.189-5.94-6.366l-23.572-5.385-2.205-.504-.272-1.153 2.395-.727 18.508-5.616.513-.156.462.266c2.989 1.727 5.807 1.172 7.77-.36 2.05-1.599 3.69-4.846 2.29-7.363-.9-1.617-3.095-2.805-7.067-2.784l-20.558 9.416c-2.489 1.519-4.863 2.138-7.125 1.861-2.084-.257-4.024-1.264-5.818-3.023-1.146-1.126-2.05-2.586-3.007-3.878zm-159.292-16.24-13.713 18.53-.045.06-.038.04c-1.945 2.113-4.068 3.312-6.37 3.594-2.26.278-4.637-.342-7.123-1.86l-20.559-9.416c-3.972-.02-6.168 1.166-7.069 2.784-1.397 2.515.242 5.763 2.291 7.362 1.964 1.532 4.783 2.086 7.772.36l.463-.266.511.156 18.508 5.616 1.77.538.19.575.249.748-2.291.523-23.571 5.386c-4.146 2.176-5.814 4.439-5.941 6.367-.2 3.027 3.21 4.833 5.794 5.03 2.633.202 5.509-.953 7.183-4.25l.21-.416.43-.173 18.114-7.293 1.788-.718.681.777-.928 1.679-11.167 20.2c-.92 2.894-.481 4.828.598 5.9 1.721 1.71 4.737 1.231 6.519-.097 1.8-1.342 2.968-3.832 2.16-7.406l-.083-.367.132-.343 6.202-16.16c.275-.834.643-1.58 1.36-2.007.813-.48 1.813-.46 3.141.437l.103.07.1.105 13.29 13.894.402.418-.07.576c-.37 3.108.605 4.914 2.087 5.761 2.093 1.196 5.185.69 7.078-.675 1.806-1.3 1.782-2.676 1.08-4.499-1.89-4.899-6.433-8.454-12.568-13.253-1.93-1.51-4.01-3.139-6.087-4.857l-.04-.033-.057-.06-.262-.272c-1.171-1.306-1.711-2.657-1.617-4.05.09-1.36.792-2.675 2.101-3.945.17-.165.281-.271.33-.313v.003l30.93-28.824c-.175-1.853-.057-4.254.06-6.652.066-1.368.134-2.735.149-3.964-2.846 3.103-6.08 6.328-9.652 8.96-4.371 3.222-9.242 5.552-14.523 5.72zm54.373-216.696c1.064.861 2.242 2.045 2.551 3.426-5.669-1.375-13.111-3.064-18.823-2.901-4.72.133-10.716.082-15.01-1.072-4.029-1.082-5.257-2.854-7.962-5.556 4.887 2.256 9.336 3.059 15.064 2.878a153.948 153.948 0 0 1 3.524-.012c10.029.126 17.083.907 20.656 3.237zm8.765 14.352c2.675-4.331 4.138-8.538 3.466-12.525-.73-4.329-4.01-8.534-11.032-12.557l-.683-.39.06-.777c.31-3.95.037-6.927-1.18-8.846-1.08-1.706-3.03-2.64-6.15-2.76-4.195-.16-9.209-.439-13.328.019-5.918.657-6.132 5.398-6.344 10.137-.018.388-.034.776-.054 1.155 1.816-1.527 3.965-3.303 6.467-3.443 1.288-.072 2.879-.153 4.431-.075 1.653.085 3.263.353 4.461 1.004 3.666 1.988 4.068 4.744 4.47 7.501.08.543.16 1.087.27 1.611 5.32 1.34 10.181 4.032 11.897 9.558.827 2.66.183 3.891-2.494 2.473-2.548-1.35-5.605-2.17-8.99-2.645-3.67-.513-7.743-.622-11.991-.553-.159 1.527 1.041 2.188 2.28 2.738 2.934 1.303 4.887 1.399 6.914 1.497 3.75.183 7.741.378 17.53 6.878z" fill="#e6b012"></path></svg>