<svg xmlns="http://www.w3.org/2000/svg" version="1" width="750" height="468.75"><path fill="#fed517" d="M0 0h750v468.75H0z"/><g fill="#040404" fill-rule="evenodd"><path d="M425.954 351.083c1.487.957 5.234 1.526 6.615 2.563.38.97.15 2.063.213 3.097-.73-2.95-7.419-3.111-6.828-5.66zm-37.586 58.877c1.356-4.965 8.677-4.748 9.127 1.435.408.261.655 1.006 1.434.151-.03-3.864-2.033-5.549-5.884-6.192-3.661-.022-5.497 1.894-6.11 4.38.03.752.86 1.154 1.433.226zm-6.563-15.178c-9.114 2.229-8.056-.643-11.918-.755-6.994.804-9.609 3.8-11.013 7.4-1.31-3.56-2.473-7.244-7.694-7.475-.426.393-.993.73-.453 1.51 2.852-.039 4.943 1.826 6.186 5.814 1.089.126 1.651 1.94 1.735 5.286.39-.262 1.636-.022 1.508-2.643 1.267-9.058 13.847-11.77 19.839.076.96.772 1.58.61 1.735-.83-1.47-2.87-3.006-5.005-4.677-5.664 6.3-1.773 13.374-2.88 18.406-5.74l-3.018-.377c-2.64 1.392-6.617 2.4-10.636 3.398zm34.874 4.273c-1.964 3.794-8.189 5.134-10.127 7.747-1.767 5.627-6.184 8.904-11.942 8.417-2.478.778-4.21 3.174-5.16 7.268-5.89-2.193-3.612-6.33-3.725-11.285-2.175-.964-1.298-6.103.095-6.504-.336-6.473 11.328-6.92 17.006-2.678l1.338-.574c-3.437-2.25-7.076-3.826-11.274-3.538 2.359-2.408 8.108-3.171 10.51-6.121l-1.625-.096c-2.029 1.807-8.301 3.516-10.031 6.312-4.532.383-9.164.638-8.98 6.982.086 3.91 1.072 8.985-2.963 7.556-3.426 3.004-6.315 2.234-8.98-.096-3.789 2.303-4.903 5.796-4.108 10.138-8.25-1.095-8.823-6.965-7.739-13.868-3.263-.335-5.645-1.071-6.114-2.678-3.026 2.582-1.556 6.965-.956 10.999-8.69-5.414-12.474-11.81-5.923-20.276-1.097-6.876 2.054-10.21 8.598-10.712 4.216-1.369 8.431-1.99 12.646-.066 6.202-7.857 11.388-1.989 16.707 2.07 3.216.286 6.43-.174 9.646-1.725 3.197-5.651 6.156-11.54 8.44-18.105-2.94-.664-3.408-1.823-4.134-2.93-2.047 2.778-4.566 5.084-8.44 6.034-.748-2.012 2.39-4.023 1.206-6.035-2.934 4.738-7.172 7.388-12.401 8.449-.295-1.958-.316-3.779 1.205-4.828-10.183 3.662-14.453.707-16.88-4.31 9.037.6 14.895-2.51 15.675-11.553-6.287 3.954-11.164 3.394-15.157 0-2.527-3.333-4.823-3.218-6.89.345-.44-4.565 2.742-8.247 8.612-5.69 8.92 2.249 9.725-9.116 7.406-17.242-2.613-10.688-4.42-21.32-.689-31.554l-.878 9.996c.182-1.103.589 1.078.65-.04.504-9.363 9.652-19.337 22.49-24.494 4.952-2.131 8.635-3.432 9.667-8.992-2.376-.092-3.288 5.896-9.472 7.722 3.72-16.452 15.389-25.477 27.73-27.075 12.511-1.418 18.116-.177 26.558 3.812 5.247 9.625 6.214 31.744 1.855 35.774.241 20.998 3.39 43.882-27.827 44.474.263 4.597 3.025 10.973 9.666 11.631 1.16.282 1.788 1.041 2.246 1.955.482 2.593 1.034 5.152 2.539 7.233.352 1.258.426 2.423 0 3.421-2.157 2.998-3.364 4.729-4.785 6.744-.787.844-.576 2.188.196 3.812 4.833 3.058 2.766 9.916 1.269 13.587l-1.855-1.27c-1.624 4.65-3.552 8.182-5.956 9.97-.022-.967-.264-2.385-.641-3.921-1.904-1.815-2.315-7.913-3.558-8.298-.092 3.001 1.031 8.605 3.125 9.188-.722 5.688-3.828 7.226-6.737 9.286-.168-4.464-.902-8.98 1.66-13.196-.787-.203-1.427.759-1.953 2.64-1.187 1.76-1.206 3.91-.84 6.188zm4.943-69.04c-.004-13.953 7.636-21.293 13.487-23.842 1.104 12.438 1.203 26.885-13.487 23.843zm-1.026-.293c-3.058.775-3.101 13.577-.122 13.22l.122-13.22zm-51.162 21.716c1.579 3.22 10.68-.629 10.787-4.456-3.731-.032-5.79 4.684-10.787 4.456zm4.45 15.178c.157-1.102 4.526-2.298 6.195-3.92 1.987-1.93 3.418-6.71 4.895-6.652.382 5.62-5.98 11.523-11.09 10.572zm12.447-.604c2.812-.545 4.07-3.822 3.395-9.666-.954-.186-1.245 2.736-1.509 5.664-.769 1.263-2.098 3.077-1.886 4.002zm6.186.68c1.055-1.481.33-12.224 2.187-10.346.156 5.168.924 11.527-2.187 10.345zm6.26-3.852c1.27 8.425 14.476-.74 11.994-7.702-1.787.094-.57 5.632-4.688 7.648-5.433 3.637-6.326-.644-7.305.054zm-53.934 41.08c1.014-4.805 5.337-5.178 4.828-9.213-1.62 3.03-6.251 4.064-4.828 9.212zm18.029 2.491c2.164 1.047 3.486-5.287 8.16-2.752 2.684 1.455 4.505 4.125.892 6.301.947 1.528 3.075.108 3.545-2.643-1.009-4.715-3.735-5.548-6.94-6.267-4.388 1.111-5.483 2.843-5.657 5.361zm5.05-19.766c-1.36 2.969 12.239 4.649 14.935 2.563-5.382-.653-10.672-1.35-14.935-2.563zm58.673-8.117c1.522 1.908 5.747 7.304 3.733 8.757-2.742-3.293-3.206-6.017-3.733-8.757zm3.2-5.553c1.31 3.663 5.082 4.584 4.16 8.437-2.229-4.352-5.315-3.098-4.16-8.437zm-8.214-21.785c.443 3.514 3.847 5.175 6.4 7.368.525 10.345.01 6.636-3.52 12.495-.876.193-1.593.131-1.067-1.922 1.619-1.705 3.872-2.412 3.627-7.048l-1.92-3.952c-3.037-1.614-5.005-3.63-3.52-6.941z"/><path d="M255.72 344.43c.695-2.433 8.953-4.059 4.466-10.727-6.977-.969-8.229 5.556-11.1 9.962-1.327-2.34 4.244-9.982 6.634-11.111 2.284-.834 7.198-1.742 7.527 4.853-.69 3.63-5.858 7.495-7.527 7.024zm13.268 2.683c4.884-7.754 10.508-6.458 9.313.255.074.83.566.824 1.148.639 1.16-2.167.807-7.598-3.955-8.557-2.948.526-5.257 2.716-6.506 7.663zm-25.961-23.18c2.488-3.981 7.333-4.645 7.527 1.15.265.447.138 1.412 1.85.894.023-3.218.132-6.276-4.465-7.343-2.499-.066-5.113 1.769-6.443 4.342.058 1.165.8.972 1.531.958zm127.815-17.093c1.188-8.917 7.088-16.06 13.78-19.14.386-6.605 4.45-16.228 7.406-21.38-5.125-6.08-10.49-10.437-16.535-14.656l-1.117 1.776c-16.916 2.849-36.209 2.134-54.572 2.664-9.169 1.562-18.664 7.158-22.386 16.474-2.017 4.186-5.406 4.448-9.68 2.18-.534 6.673 4.715 9.737 10.406 7.996-.079 5.188-1.982 8.948-9.438 8.358-2.096-8.322-7.509-6.019-9.801-2.665 2.896-.719 4.637-.281 3.993 2.544 1.003 7.763 7.517 14.76 14.762 9.448.97 5.186 5.499 2.6 9.923.242.916 4.011-2.397 5.552-5.203 7.39 1.382 1.74 4.64 1.84 8.59 1.332 2.928 2.425 2.92 5.27 3.752 7.994-1.381 3.161-3.387 4.444-5.082 6.663-8.7-.241-15.85-2.224-24.443-1.333-4.435-2.292-8.873-5.044-11.737-10.417-5.517-.1-7.872-.28-12.666 1.447-1.35-1.207-7.199-2.496-13.229-.841-4.284 1.038-8.14 6.172-7.139 11.992-2.96 3.982-3.934 8.532-.485 14.347 1.926-2.461 2.37-5.77 7.234-6.552.467 1.831 1.264 3.333 3.1 3.794-5.007 7.195-4.35 13.897 1.206 20.173 1.532-3.817 1.19-10.137 5.167-10.69 3.37 3.038 7.206 1.432 11.023 0-1.167 4.57-2.54 9.154 3.445 13.276.257-3.173 1.753-5.85 4.306-8.103 7.645 4.355 13.26 1.997 16.535-6.035 3.096-3.25 6.995-.869 10.507-1.207-1.368 3.333-2.247 6.667-2.24 10 3.872-3.553 8.42-3.375 12.057-7.931.498 4.605-9.507 6.391-1.722 13.104.079-5.323 6.17-1.351 9.3-7.931.962 2.155 2.197 3.763 3.618 5 1.46 2.288-.62 3.395-1.723 4.828 4.636-.144 7.478-3.88 8.44-11.38 1.744 2.414.575 4.828-.345 7.242 1.053-.172 2.34-.698 4.306-2.242 5.172-1.837 6.711-5.75 4.823-10.345-2.23-3.201 2.369-5.176 5.167-4.656 1.105-3.066 6.44-11.29 2.067-18.104-7.323-3.676-4.219-15.725 1.399-17.972 4.141-1.604 9.5-3.012 23.92-4.616l-.689 7.932zm-114.292 7.005c3.774-1.023 6.484 5.527 12.757 6.385 1.568 1.336 7.742 1.05 10.397 2.107-.392 2.04-8.083.81-9.76-.638-8.048.426-9.38-3.479-13.394-7.854zm-6.315 17.432c2.593-8.145 10.555-8.659 17.732-2.49 2.308-2.55 9.568-.098 15.054-.64 1.122.66 1.432 1.32 1.722 1.98-5.714.061-11.93-1.964-17.03.703-4.611-4.622-13.551-6.548-15.5.575-1.393 1.636-2.344.616-1.978-.128zm15.181 10.855c1.035-.653 1.838 2.293 1.403 2.81-1.544 1.297-3.401-1.551-1.403-2.81zm1.007-1.858c2.631-7.072 13.036-9.905 19.53-6.09 3.042-.854 5.721-.257 8.582-.385.226-2.421-6.359-1.285-9.67-1.859-9.784-4.327-17.328.964-18.954 7.116-1.297 1.636-.084 1.403.512 1.218zm25.582-59.942c2.753 1.038 6.076-.765 7.745-.506-1.592 1.863-6.49 3.278-7.745.506zm10.451 13.431c-.047 9.8 4.412 3.292 8.63.105 1.82-.766 1.47-.148 1.987 0-4.67 5.274-7.953 7.295-10.721 7.435-3.458-1.867-1.338-4.533-.733-7.383l.837-.157zm-17.312-2.565c1.554 4.1 5.59 11.898 10.356 6.125.93-.33 1.346.198 1.883.524-2.744 1.082-4.537 4.232-6.695 2.775-4.59-2.29-5.57-5.87-6.328-9.53l.784.106zm22.28 14.503c5.472.898 8.236-5.16 8.526-7.33.18-.292.4-.126 1.412.68.102 3.06-.018 6.682 1.674 7.383 2.72-.11 4.7-1.557 6.746-2.88.769-.421 1.093.047 1.308.733-2.795 2.198-5.279 4.339-8.891 4.084-1.835-1.078-1.902-3.664-2.301-6.178-2.57 4.994-7.766 5.907-8.473 3.508zm11.28 39.759c.766 3.835-1.556 8.887-3.973 8.407-.305-2.897 3.214-5.04 3.973-8.407zm19.776 1.536c.046 3.663-1.99 5.24-4.063 6.78l-.633-.452c1.54-1.652 3.231-3.153 3.613-5.966l1.083-.362zm4.967-26.125c2.952 2.389 3.697 6.02 2.8 10.577-1.812.408-.616-4.588-1.175-6.237-.822-1.878-3.054-.5-1.625-4.34zm-8.037-1.988c-1.549 3.61 4.764 7.457 5.147 11.57-.243 2.6-.849 4.774-2.528 5.696-2.793.03-5.453.06-7.766.09.4-.601 1.006-1.173 3.07-1.537 3.034.472 4.883-.954 5.508-4.339-.262-2.068-3.038-2.336-2.89-4.339-2.453-4.403-2.42-6.593-.541-7.141zm153.832 17.096c11.345-3.71 16.595-6.074 18.768-22.888-.72-4.213-1.771-19.942-12.355-29.712 8.81 4.362 15.656-1.348 17.467-5.544.451 11.346-1.31 19.445-6.533 22.461.62 2.894 1.43 5.98 1.705 8.53 10.187-5.133 16.256-24.525 8.094-40.943 4.735-4.462 6.514-10.807 7.1-17.912.367-6.113-3.437-10.236-3.834-18.055 1.022-5.348 1.71-10.43-.994-12.794-1.006 9.63-7.004 11.855-8.52 19.05-6.036 9.743 1.207 18.865 0 25.446-11.61-6.44-23.65 3.08-18.178 16.207-13.69-13.372-34.368-26.7-47.43-30.565-23.542-4.622-39.749.926-51.124 16.775-3.082 5.256-5.71 12.955-7.527 20.471l6.533-3.127c4.938-18.851 16.506-28.25 33.94-29.285 7.242-.478 14.485.579 21.727 4.264 13.095 8.723 14.216 8.34 18.462 26.158 1.984 8.256 3.353 16.457 13.775 25.447-10.45.819-13.542 6.645-14.215 14.118.167 6.474 4.439 10.306 10.47 12.866.612.26.663.796 1.334 1.018-17.922 9.091-11.18 32.702-17.853 35.448l3.099-.443c-.472 5.167-3.978 6.156-7.525 7.09 6.071 3.191 11.289 1.04 15.787-5.613l1.623 6.35c.835-8.912 6.521-7.817 6.787-23.04.034-12.064 5.3-16.032 9.417-21.778zm19.62-65.537c-5.481-3.033-11.187-4.797-11.077 4.976 5.352 7.24 11.861-.747 11.077-4.976zm-16.616 58.002c21.122-13.056-2.765-46.53-18.603-53.026.085 13.373 8.206 33.422 23.648 29.513a21.985 21.985 0 0 1 1.63 6.738c-5.219.906-8.978 1.082-11.929.853 4.951 3.283 6.549 8.571 5.254 15.922zm-9.323 2.727c4.42-4.2 3.486-15.48-5.312-13.884-7.297 4.199-1.878 13.266 5.312 13.884z"/></g><path d="M275.387 68.269c0-.043 0-.087 0 0z" fill="none"/><path d="M289.375 26.594c-1.1.045-2.142.172-3.156.343-21.03 3.774-31.46 20.228-30.125 39.532 2.531 24.798 17.192 32.777 35.594 35.562l47.062-.625c4.777.06 17.734.292 22.656 9.875-12.227-7.156-22.607-5.067-26.75-1 10.849 4.792 17.174 12.301 15.969 26.406-2.52 15.77-9.743 47.977-40.031 53.125l1.906 5c-12.01 9.603-24.022 15.305-36.031 13.844-.1 5.945.199 9.653 4.437 11.906-10.326 14.656-23.757 19.937-38.5 21.344 1.086 3.88 1.873 7.745 5.813 11.625-7.959 5.532-15.495 11.402-20.531 19.125-3.672-8.372-10.51-15.163-10.25-25.5-3.787 5.312-8.89 9.991-9.97 16.656-1.72 6.667-3.723 12.93-3.312 22.438-7.657-5.267-15.309-10.621-24.406-9.406-1.353 4.131-3.172 8.156-.25 13l-12.75-.813c-8.94.135-17.258 1.676-21.094 12.75 21.857 6.962 37.917 38.497 36.313 48.781-3.649 19.693-22.846 10.617-19.469 29.782 11.095-7.332 19.64-9.417 21.25 1.281L194.219 388c10.934-8.657 22.794-3.722 30.375.469 5.496-8.13 15.777-10.836 30.187-1.406 2.924-3.19 8.004-2.587 13.406-1.438l-9.656 4.031-2.125 21.188c-8.231 23.558-24.84 18.438-35.687 9.906-3.32 4.08-20.207 4.523-23.656-.375-8.29 4.378 8.603 19.842 22.125 28.781 22.985 9.794 46.926 19.47 75.03 28.531 14.214 5.924 47.844 1.08 73.376 16.594l3.625-5.5c14.117 7.833 27.468 20.738 38.594 32.281 22.865-37.287 65.68-49.522 117.312-39.656-10.113-14.747-22.364-25.533-34.75-37.25 1.904-3.97 4.836-4.008 7.5-4.937 4.604-.885 36.896 36.5 61.219 43.031-9.747-6.73-23.206-19.146-38.25-33.344-15.622-14.743-32.851-31.431-42.875-46.937 12.62.262 87.34 112.66 165.562 62.094-45.13-14.352-83.08-61.707-101.843-78.657 31.48 21.948 60.873 52.417 95.218 62.906-27.86-20.9-59.098-39.256-81.125-64.53 39.919 19.075 80.915 74.478 134.782 28.593-37.93-6.165-45.204-20.565-57.75-32l-33.22-28.719c25.617 17.088 49.86 37.942 78.407 46.969h1.188c-28.285-18.17-55.997-36.42-77.22-55.375 13.551 5.256 37.918 31.435 67.032 32.469 15.069.535 34.987-3.272 48.188-24.969-39.82 5.326-85.993-45.73-101.157-59.25 28.897 16.072 62.738 54.68 86.5 47.281-38.585-13.75-61.754-36.81-81.093-56.25 25.888 19.001 69.162 58.482 91.28-4.812-31.842 18.132-74.2-31.353-77.53-37.688 22.517 10.104 50.233 39.07 67.03 28.438-22.012 2.237-61.968-34.907-67.312-42.5 22.06 18.926 66.959 41.352 81.094-9.906-34.933 5.291-40.574-10.185-52.063-21.532 11.856 6.404 22.023 16.346 40.688 8.375-26.445-.34-39.616-17.212-47.563-24.844 23.366 13.778 44.78 15.743 61-14.937-37.639 1.83-41.211-27.808-51.75-48.188-15.584-34.956-39.256-82.522-77.187-48.78-7.98-17.431-16.564-30.589-24.844-36.813 2.348 17.07 3.669 34.002.875 51.468-2.21-3.49-5.383-5.01-9.187-5.312v9.25c-7.753-27.49-36.107-50.146-50.813-40.563 26.693 24.645 6.518 63.902 2.313 76.532-6.033 18.09-21.79 40.945-4.281 53.719-2.067 1.446-3.11 3.386-2.094 6.375-9.654 11.293-17.95 23.363-9.875 44.28-3.582 3.16-3.257 7.301-3.281 10.97-8.09 6.806-12.716 16.028-15.657 27.468-24.036-.392-49.969-3.623-69.562 11.781l.969-18.718c1.445 3.643 4.467 5.693 10.03 5.219.628-10.822-.024-21.679 2.938-32.5 2.128 1.888 4.458 3.637 9.625 3.5 3.074-17.457 6.102-34.919 12.188-52.375 1.457 2.237 3.795 4.01 7.312 5.218 4.642-32.947 23.546-46.166 19.875-79.906 17.006-.204 31.954-5.503 39.75-28.219-5.83 1.83-11.754 4.45-17.094 2.344 6.91-3.934 10.14-3.859 11.094-13.406-30.497 4.16-40.246-10.153-56.844-19.906-10.794-7.827-42.02-22.303-47.593-1.376-5.235-.56-9.91-.553-9.563 4.47-6.813-1.917-40.127-30.125-54 6.562-1.798 7.83-2.185 23.86 2.844 24.687 4.937-7.417 8.634-11.774 16.031-11.812 3.81 1.774 6.803 3.218 8.188 9.844 16.494 2.514 20.937 14.677 25.406 26.812-9.007-14.18-22.083-22.177-34.656-22.656H311.03c-10.788-1.69-15.685-6.323-16.625-12.938 11.088-1.851 22.367-6.797 20.656-23.594-.55-14.347-14.433-20.217-25.218-19.968-.16.003-.312-.007-.469 0zm74.156 22.031c5.723.081 11.898 3.106 17.063 7.5 1.162 3.125 1.402 9.484-2.281 6.281-6.17-5.181-12.868-9.53-20.282-12.843 1.76-.683 3.593-.965 5.5-.938zm30.406.594c.058 6.254 2.908 12.093 6.47 14.125-2.186 3.16-4.434 5.95-6 13.437l1.218 43.625c-2.323 11.602-5.202 17.707-8.156 23-4.953-.964-12.635-2.28-18.219-.719-.9-11.583-7.424-27.248-15.094-30.687 7.34-1.62 14.51 7.766 17.469 25.188 5.149 1.852 9.895 1.553 14.406.218 9.314-13.675 9.735-40.098-3.125-52.469v-3.843c3.207.665 5.532 5.767 8.156 9.344.729-9.386-1.203-20.828 4.782-26.126-5.36-6.851-5.49-12.075-1.906-15.093zm4.72 1.687c.03-.005.062.003.093 0h.031c2.161-.075 3.347 3.11 4.75 5.563 3.33.85 6.256 2.385 7.219 4.406-10.256 1.609-11.776-2.395-12.344-9.906.083-.017.173-.05.25-.063zm185.437 9.282c4.913 5.921 7.329 8.224 3.843 33.218 1.861-5.648 3.4-10.221 6.782-20.937 13.398 8.843 11.124 18.386 13.75 27.719 5.024-3.834 10.413-5.538 15.968-6.188l-.187 6 8.563.375c1.751 15.508-12.766 21.032-19.157 31.75-5.855 8.865-9.388 23.034-18.562 24.313-9.219-1.127-15.957-.67-13.563 5.593 2.289 5.93 9.928-3.382 16.782-1.594 9.325.903 15.194 10.414 14.562 17.344-2.521 10.434-10.885 13.873-21.344 14.781-3.425-.73-4.64-6.15-8.406-6-3.117 1.487-4.989 7.32-.375 10 4.848.895 7.037-3.543 13.563-.812 4.771.61 10.322 9.224 11.968 16.75-3.96 11.201-13.185 15.02-21.156 15.375-5.821-.372-8.836-11.828-12.969-4.594-1.875 2.737.304 4.972 2.594 7.188 24.411-3.012 21.706 10.875 22.469 24.062-6.942 3.17-11.396 5.737-19.657 4.469-7.034 1.193-12.499-5.56-15.562-6.594-5.852.599-7.788 9.376-.406 11.969 9.33-5.593 17.574-.912 19.75 2.781 2.894 12.154 2.193 19.684-2.407 21.156-5.378 3.88-11.66 5.014-19.875 5.438-9.164-.689-10.464-9.267-15.03-11.406-1.885-1.209-3.773.157-5.657 1.875-1.097 1.981-3.233 3.733.375 6.656 2.906.475 5.813-.185 8.719 2.063 10.065 7.643 9.628 15.109 10.031 23.718-10.82 3.946-20.743 7.079-31.563 5.594-14.071-6.644-9.606-18.128-15.75-17.25-4.48-.525-10.014 2.324-7.968 5.563 3.363 6.68 12.274-1.219 14.281 11.312-.865 11.895-7.55 19.969-18 18.344-10.355-.45-24.19-.669-26.344-9.813.114-4.898 1.848-9.833-1.844-14.094-5.701-1.93-6.997.544-8.906 2.407-.88 3.628 2.499 5.542 6.5 7.219 5.497 14.492-6.248 25.421-10.594 25.78-12.84-.46-21.467-5.584-25.406-15.937 1.157-4.15 2.402-8.339.188-10.562-3.474-1.679-5.497-.739-6.5 2.031-.686 4.317 3.369 3.561 5.375 9.625 4.284 7.82-3.457 26.194-13.156 21.531-6.121-1.134-12.254-2.526-18.375-7.062 3.344 11.268-3.047 14.26-12.782 11.687 17.859 33.082 60.851 83.175 109.25 71.063-44.41 21.066-96.42-34.94-116.125-78.094 3.786-1.992 8.818 5.625 13.375 5 3.744-1.82 6.065-4.42 2.406-10.188-2.088-3.716-20.065-7.746-9.468-20.593 11.343-3.555 11.44 8.504 14.469 16.5 4.018 6.338 11.761 7.07 19.656 7.594 6.632.305 8.735-8.334 9.281-12.782-2.36-7.414-8.268-8.23-8.156-14.469-.589-7.642 11.287-8.497 14.094-4.468 1.914 3.524 1.476 7.07-.563 10.594-1.275 5.229 9.185 17.113 22.063 13.906 2.657.059 12.893-9.14 6.5-19.844-2.746-4.597-7.51-6.248-5.375-11.313 3.728-2.882 7.2-6.208 14.28-3.343 4.058 3.514 3.94 9.288 2.594 15.75 1.239 5.723 11.116 7.356 22.625 8.187 11.598 1.52 14.4-5.773 15.22-15.031-2.175-9.25-14.384-3.134-15.75-11.313.225-4.189 7.623-9.105 14.468-8.906 8.22.785 3.384 13.85 15.188 18.188 9.663 2.47 18.398-1.209 27.093-5.031 1.976-1.083-2.174-17.608-9.093-19.844l-9.094-1.094c-4.16-3.46-3.807-7.682.937-12.625 2.368-.64 5.974-4.893 10.282-1.75 3.782 2.346 5.267 12.572 14.968 11.781 10.55-.707 17.737-3.968 17.157-13.156-.777-7.693.322-11.298-7.188-13.188l-9.969 2c-4.75-.399-8.343-1.945-7.781-9.78.123-6.732 4.528-8.218 10.063-6.594 2.81.824 3.136 2.657 8.906 4.625 9.313 4.175 14.838.164 21.125-2.22.79-24.201-12.45-18.36-22.719-18.937-3.23-3.435-6.107-6.967-3.594-11.969 3-4.954 7.647-4.819 9.938-3.75 2.706 1.264 3.692 4.908 8.406 5.344 6.794 1.131 14.434-3.766 15.969-12.156-8.128-22.672-19.909-7.477-23.938-11.969-6.159-4.487-4.27-15.59 2.188-16.187 5.9-1.136 5.189 4.472 10.968 6.406 7.99-.897 15.157-4.884 16.563-12.563-1.233-7.143-4.79-11.427-12.563-13.375-4.654-1.09-11.323 6.174-17.375 4.594-2.618-4.19-2.823-8.404-1.187-12.594 4.242-4.203 10.896-1.97 16.563-2.375 8.28-6.333 11.136-15.395 16.562-23.156 5.573-8.143 16.917-15.916 14.938-24.531l-9.375.813 1.406-6.188c-15.604 2.391-17.922 13.212-22.344 22.719-.254 6.88.205 13.631-5.594 15.375-4.724.258-7.332-2.47-8.156-5.594 0-6.946 6.06-8.713 10.563-12.156 2.589-6.255 5.785-11.902 9.968-16.563 1.322-12.228-1.19-20.623-6.781-25.937-4.588 8.738-4.873 23.93-14.219 25.531 2.531-12.791 5.476-24.779 1.813-43.188zM416.062 62.53c7.357.144 8.073 9.864 19.75 10.094-.233 4.432-6.567 3.856-9.156 2.438-2.599-1.424-7.104-9.162-12.469-12.344.395-.069.764-.134 1.125-.157.252-.015.513-.035.75-.03zm-9.25.875c1.739 0 3.157 1.35 3.157 3.032 0 1.68-1.418 3.062-3.156 3.062-1.739 0-3.157-1.382-3.157-3.063 0-1.68 1.418-3.03 3.156-3.03zm-6.875 3.719c1.335-.44 2.516 5.33 5.688 5.656 6.067.623 9.411-8.957 12.375-4.062.397.655-7.2 4.343-8.031 7.187 6.318 1.53 11.219-5.22 11.219-2.906 0 2.62-4.554 7.406-11.125 7.406-6.572 0-11.594-4.005-11.594-6.625 0-.716 3.432 2.02 4.875 1.375-.559-1.124-4.673-4.633-3.688-7.844a.8.8 0 0 1 .281-.187zm1.532 16.125c3.161 5.989 5.916 14.382 18.156 15.563 5.08.937 8.215 2.522 9.156 6.218-5.47-3.122-10.89-5.398-15.906-.344.588 21.417-2.436 24.196-9 37.376-1.927-.091-1.684-1.487-.844-4.344 9.017-21.844 6.6-32.157.688-40.625-2.028-4.825-2.987-9.48-2.25-13.844zm163.906 12.906c.063-.005.11 0 .156.031-7.668 26.061-30.205 57.01-21.593 83.438.145.035.287.06.437.094v1.156c-.153-.419-.3-.829-.438-1.25-17.658-4.286-8.321-26.132.97-47.031 8.313-18.703 18.51-36.268 20.468-36.438zm61.063 30.594c5.569.032 12.856 2.36 18.812 2.906-3.458 2.673-6.995 5.406-9.438 7.063 7.331 2.88 9.1 4.367 12.563 6.281-4.973 8.255-13.64 12.82-21.594 18.094 7.753 2.01 14.232 6.1 18.844 13.344-4.871 4.372-7.315 3.937-10.188 4.312 3.548 4.577 8.58 9.067 8.844 15.844-5.887 6.565-13.489 6.96-21.437 7.344 7.044 4.251 10.509 9.242 11.781 15.718l-4.313 1.188c-1.201 1.845 2.814 2.489 2.375 9.812-7.595 4.022-15.216 3.059-22.812 4.313 8.388 6.326 17.812 11.988 22.406 20.844l-7.468 1.562c4.552 4.88 8.24 10.162 7.062 17.688-4.856 4.382-14.751 1.54-22.375 1.968 4.47 2.914 6.895 6.415 8.25 10.219l-7.469.375c6.427 5.76 8.36 12.568 9.032 19.656-9.649 9.559-26.115 6.483-36.532 5.875 5.214 5.894 9.463 11.794 9.813 17.688l-6.282-.781c5.857 7.465 9.308 14.94 9.813 22.406-18.975 2.933-36.274-2.81-53.031-11.406 3.468 7.374 6.343 14.66 6.281 21.593l-5.094.406c3.938 5.354 6.353 11.038 6.282 17.282-27.518 4.393-45.657-4.207-61.688-15.719 3.265 3.813 5.534 9.314 7.469 15.344-1.572 1.507-3.446 1.981-5.906.375-.667 4.078 7.504 13.454 1.093 18.375-11.243-.691-19.972.352-37.219-9.344l-9.437-.375-.406 9.031c-18.806.029-35.384-18.532-35.344-27.5 8.295 7.782 14.473 20.89 33.781 23.563l-2.75-10.219 7.469 1.594c-6.861-8.326-15.621-16.893-15.313-24.375 1.469-.446 1.297-.276 2.22 1.437 11.568 21.493 37.183 35.379 56.093 32.75.675-8.33-5.166-13.294-7.656-19.25l7.875 1.188c-1.355-9.346-10.297-19.344-16.5-29.094 18.858 15.289 40.974 31.508 71.906 29.875 1.372-6.68-5.27-13.352-8.25-20.031l8.625 1.562c-1.736-13.587-9.528-21.117-16.875-29.094 18.67 8.53 33.42 20.675 62.469 19.657-.986-8.621-7.543-15.38-12.188-22.781h7.469c-3.94-10.34-13.656-16.827-21.219-24.75 12.654 6.39 36.679 13.823 49.5 3.53-.741-8.435-6.499-14.09-11-20.437l6.282-1.562c-4.663-6.07-15.914-9.848-16.907-15.313 11.509 5.857 22.75 6.467 33.813 4.313.563-8.51-5.984-13.153-9.844-19.25l7.875.781c-5.367-7.938-15.62-14.311-21.625-21.625 4.75-3.733 18.326-.176 25.156-5.5l-7.468-11 8.25 1.969c-3.976-10.2-13.672-15.519-22.782-20.813 9.77 2.77 19.332 6.147 33-2.344-2.522-6.7-7.858-11.556-12.968-16.53 4.817-.704 9.555-1.455 12.187-3.907-4.303-7.448-15.99-8.317-26.313-10.625 11.675-4.041 22.347-9.062 28.282-18.844-3.158-3.941-7.406-4.13-11.407-5.125l4.313-5.094c-5.239-4.397-10.449-4.025-15.688-3.156 1.448-2.506 4.159-3.3 7.5-3.281zm-175.532 32.813l-4.656 21.718-4-2.656c2.419-7.85 4.228-17.575 8.656-19.063zm61.594 14.25c.02 1.785.722 3.778-2.656 4.593 2.156 3.494-.626 4.521-3.438 5.531-.748-2.712-5.424-9.198 6.094-10.125zm-184.563 10.875c.586 1.578 2.204 2.623-4.625 6.593 3.182.369 6.302-.401 10.657-.093.894 5.236-12.659 8.117-18.438 2.312-1.435-3.418 8.26-5.88 12.406-8.812zm208.22 1.718c.086 2.714-5.645 11.88-6.095 26.125-.522 16.79 5.142 24.187 5.344 29.188-20.037-5.913-21.514-46.73.75-55.313zm-174.313 1.938c1.047-.006 1.924.622 2.531 2.281-.886 1.774-12.618 13.29-19.75 12.25-1.74-4.201-1.568-14.079 4.375-13.188.944.616 1.058 3.722 1.563 5.657 3.451-1.188 8.139-6.982 11.28-7zm22.375 9.094l1.062 5.062 5.875-1.875c-2.878 4.05-3.803 8.27-9.625 8.281-3.504-6.264.04-8.622 2.688-11.469zm30.406 13.062c4.725 3.139 8.203 12.564 12.281 18.938-7.243 1.384-14.197-12.764-12.281-18.938zM280.25 213.03c5.187 2.303 10.375 3.93 15.563 4.75-5.487 9.17-18.228.315-15.563-4.75zm73.906 4.344c1.05-.101 1.86.26 2.406 2.344-3.223 4.328-5.922 8.81-6.937 13.875 1.891 1.191 2.206 1.934 2.781 5 5.07-3.944 8.197-8.573 10.563-13.5 2.583-.782 4.418.213 4.531 3.125.46 1.088-11.69 17.347-16.125 16.031-3.438-1.581-8.538-1.805-7.125-7.313.195-5.585 3.58-12.982 7.781-19.156.778-.097 1.496-.345 2.125-.406zm-37.844 1.031c.148-.014.294-.004.438 0 .635 3.613-3.38 7.232-5.375 10.844-.213 1.482-.125 2.955 1.375 4.438 4.878-3.088 10.618-11.163 15.469-15.094.7.74 1.773.401 1.312 4.625 1.075.878-16.6 18.501-17.344 17.531-3.302.154-6.548-5.107-6.187-8.438-.42-4.335 5.73-13.466 10.313-13.906zm183.782 6.813c.452.007.887.103 1.344.281-2.09 3.853-4.869 6.731-4.563 13.938-8.402-.865-3.145-13.677 2.75-14.188.152-.013.318-.034.469-.031zm-116.219 5.406c-.127 4.814-.429 9.623.438 14.438 3.449-2.067 6.894-.63 10.343.656-.12 3.31-1.455 6.295-3.875 9.031-2.856-1.362-3.888-3.791-3.875-6.875-1.967 1.419-2.051 4.09-7.125 3.438-4.85-7.739-1.701-18.56 4.094-20.688zm143.688 9.563c3.022.068 4.479 2.1 3.437 7.25 3.994.196 4.42 2.205 4.406 4.406-7.602 2.148-11.89-7.599-7.843-11.656zm-281.875 2.937c9.398 10.314 18.471-.371 23.187.594-6.256 7.684-19.377 15.259-23.188-.594zm38.093.031c4.146 4.515-9.769 14.713-7.437 27.375 4.338.521 10.818-4.972 15.781-2.562-6.09 8.884-14.152 9.427-21.969 11.062-2.24-12.785 5.424-13.949 2.281-16.437l-2.812-1.344c.742-8.146 8.392-12.626 14.156-18.094zM405 243.97c4.281 2.862 7.143 8.57 10.344 13.594-7.307 2.586-13.924-9.067-10.344-13.594zm-44.031 2.125a2.9 2.9 0 0 1 .625.031c-1.73 10.122-10.57 25.125-2.031 28.187 3.8.586 6.565-2.657 9.312-5.937 5.671 4.246-5.595 11.955-12.281 11.875-10.434-12.42-2.195-33.907 4.375-34.156zm-24.313 6.094c3.458 7.263-12.29 26.996-19.719 26.312-8.77-8.057-5.372-22.641.407-23.469 2.634 2.29-4.42 13.65 2.844 17.125 6.2-4.509 11.317-12.315 16.468-19.969zm189.594 2.875c-6.258 7.419-13.12 14.127-16.969 24.437-2.62-7.336 4.462-22.727 16.969-24.438zm-301.031 22.843c3.164 11.884-18.006 27.846-28.063 34.375l8.219 1.313c1.722 1.569.052 2.461-1.156 4.031-9.121-.7-15.037-4.361-11.063-8.656 12.847-6.162 23.75-16.1 32.063-31.063zm171.375 2.281l10.562 6.907c-7.505 1.463-13.295 1.299-10.562-6.906zm102.375 1.22c2.143 2.489 4.8 2.925 7.437 3.437-3.32-.304-9.661 2.41-7.437-3.438zm-168.25 4.78c3.162 4.176-8.64 19.295-4.781 29.813 2.884.664 4.958-1.825 6.78-5.406l1 6.406c3.99 1.159 8.644-9.81 12.407-10-2.462 6.491-4.15 13.542-12.781 15.406-2.472.27-1.643-2.78-2.219-4.406-2.37.597-3.751 5.161-7.406 4.188-6.587-15.724 1.749-33.18 7-36zm-90.25.407c2.793 3.037-11.077 16.05-4.781 28.406 6.736-1.669 10.108-8.266 15.406-12.813l1 2.813c-7.404 8.138-16.336 16.598-19.813 16.188-3.008-1.675-1.473-5.223-.812-8.594h-4c3.239-9.951 6.622-19.712 13-26zm246.781 1.594c1.816.024 3.882.317 5.813.468l-10.875 7.063c-1.811-6.398 1.067-7.585 5.062-7.531zm-32.5 1.125c7.966-.14 15.638 1.305 22.656 5.812-28.646-9-84.118 23.217-95.375-1.125.49-1.311 2.416-.584 3.469 0 18.874 10.473 45.353-4.267 69.25-4.688zm-180.438 2.062c-1.684 10.954-6.365 25.273-.625 27.813 4.568-2.493 6.61-9.414 11.813-11.594 1.195 2.986-.673 6.75-1.406 10.219 8.315-2.22 16.196-22.133 20.406-23.032-4.92 13.07-11.522 24.175-22.813 29.813l-2.375-5.781c-2.885 4.593-6.862 6.07-10.812 8-2.809-17.612-1.5-29.547 5.813-35.438zm-107 1.438c.707-.018 1.435-.007 2.157 0 3.462.033 6.98.3 9.281.25l1.188 3.656c-7.266.085-14.07-.994-21.782.281-.096-3.194 4.21-4.061 9.156-4.188zm32.282 26.718c.409-.027.802.066 1.156.281 1.182 1.583-4.741 10.242-6.875 16.188-1.774 4.943-3.938 15.262-4.969 16.344-6.946-6.175 4.55-32.399 10.688-32.813zm35.5 15.719c1.32 17.03-3.676 10.902-4.281 24.594-3.401 5.765-8.526 10.798-10.72 9.187-2.482-4.314 4.552-7.341 7.626-11.656.874-3.6 2.994-20.947 7.375-22.125zm13.062.781c2.754 14.017-7.81 20.628-7.75 32.625.005.938-.834 1.454-1.156.625-3.302-.322-9.443-14.266-4.813-14.625 3.152-1.473 1.454 6.765 3.375 6.875 1.791-14.715 6.592-10.302 8.938-23.812.196-1.127.04-1.668 1.406-1.688zm61.969 7c2.316 15.322-7.48 36.733-43.688 36l14.75 6.75c-2.289 7.76-4.878 15.228-12 18.156 4.693 2.83 8.597 7.681 14.782 6.782-7.978 5.582-14.95 18.243-22.156 29.219 15.252.952 25.806-8.147 35.375-19.375.744 2.677.066 7.464-2.47 15.062 5.03-.234 18.904-10.587 30.47-14.156l-6.47 20c26.494-2.625 32.259-18.772 40.626-33.219-4.173 30.078-25 37.294-48.625 40.625l7.687-19.406c-10.031 3.134-20.873 12.315-30.437 11.406 1.679-2.525 4.445-3.975 3.062-9.563-12.613 13.694-25.23 12.731-37.844 12.938 9.174-9.276 13.996-26.856 23.094-30.781l-14.469-8.594c6.115-4.583 11.935-9.314 13.22-16.313-5.083-4.344-14.132-7.546-17.22-12.312 32.297.91 45.28-13.756 52.313-33.219zM196 354.656c.618 10.815-12.464 15.873-23.563 15.531-.89-5.521 7.677-4.84 12.032-6.968 4.066-2.683 6.776-7.604 11.531-8.563z" transform="matrix(.4371 0 0 .43757 213.914 37.342)" fill="#040404" stroke="#000" stroke-width=".354" stroke-linecap="round" stroke-linejoin="round"/><path d="M359.295 72.974c.116 0 .232 0 0 0z" fill="none"/><path d="M376.266 91.82c.533 4.337 5.403 4.933 6.361-.004-.863-15.902-14.454-18.478-26.291-16.828-10.116.935-15.331-1.437-15.418-8.626 8.073-1 9.555-3.454 8.522-9.495-4.678-10.984-19.914-4.085-20.904 4.962-1.911 9.737 3.96 16.811 11.853 18.553 9.317.448 15.183-1.414 23.167-.546 6.685 1.073 11.523 2.6 12.71 11.985z" fill="#ee531f" fill-rule="evenodd"/><path d="M400.276 137.272c-.116 0-.233 0 0 0zM381.97 126.65c0-.04 0-.078 0 0zm66.132-7.325l.667 24.455" fill="none"/><path d="M449.019 115.486c-3.647 2.047 2.168 5.575 3.418 2.67-3.721-.372-2.719-1.692-3.418-2.67z" fill="#f5f710" fill-rule="evenodd"/><path d="M421.006 181.75c-.027 0-.054 0 0 0zM318.94 162.915c.029 0 .058 0 0 0zm14.781 2.102c.03 0 .059 0 0 0z" fill="none"/><path d="M289.043 215.395c-.99.367-1.573 1.701-2.119 3.126-.11 1.339 1.358.57 2.342.447.562-.704.15-2.153-.223-3.573zM263.17 204.12c.722 2.054 3.619 2.243 6.357 2.568-2.285-2.697-5.143-2.876-6.357-2.568zm-.112 12.058c.202-1.338 2.216-1.9 6.58-1.452-1.324.992-1.865 2.44-6.58 1.452zm-17.76-35.006c-1.906.962-3.407 2.74-4.369 4.963-2.207-2.91 1.221-6.569 4.369-4.963zm55.767 39.92c-1.67-.261-2.77-2.065-2.663-3.12-1.55 3.777-4.862 4.506-10.049 1.91-3.67.77-5.866-1.036-10.034 0-.61.69.192 2.001-2.43 1.828-.231 3.873.019 8.445-2.045 9.565 2.537 1.938 1.327 3.464.713 4.96.184 8.501-5.136 9.34-10.638 9.936-8.825 3.123-14.808 1.407-18.148-4.837 3.011.463 5.755 1.543 9.678-.124-2.412-7.074 1.447-9.964 5.683-12.601 1.048-2.063 2.186-3.851 3.871-4 .104-1.36-.293-2.06-1.208-2.06-1.566 1.834-4.02 1.457-6.177 1.813-1.354 1.633-3.358 2.61-6.644 2.31-.821 2.337-3.172 2.542-5.573 2.665-3.646 5.621-7.887 7.462-11.49 3.999-7.845-.427-11.558-3.737-11.984-9.33 2.14 1.648 3.633 5.24 7.262 2.418.323-13.686 5.505-12.757 10.886-11.255 1.815-1.008 3.634-.716 5.45-.124 1.818-1.32 3.876-1.94 6.657-.37 5.021-1.668 7.704.304 17.063-.605l-9.32-1.457c-2.683.473-5.102.302-7.139-.838-2.951.906-5.474.735-7.138-1.58-7.179.844-14.408 1.775-15.608-7.146-3.222-3.196-5.613-.087-8.236 1.209-.652-5.067 4.613-7.27 9.32-9.812 4.392-4.559 8.516-2.623 12.588.481 1.654.085 3.302.344 4.956 1.704.548.036.875-.036 1.043-.165a.438.438 0 0 0 .082-.082c.193-.3-.111-.827-.398-1.333l-3.87-2.061c-6.661-1.045-7.585-5.107-8.237-9.318-4.462-2.178-6.974-.093-9.911 1.086 3.38-8.142 9.915-6.79 16.088-6.541 6.523-3.176 11.305-1.74 13.316 7.022 1.16 1.382 2.428 3.168 4.228 6.789 2.757 1.463 3.745 3.498 3.747 4.727 2.622 1.09 4.514 2.911 5.203 5.936 4.481 3.395 10.609 3.896 17.667 2.776 2.54-1.286 5.091-1.66 7.632-1.333l5.763 3.157c3.926-1.238 8.038-.612 12.278 1.3 4.479-4.004 9.178-4.366 14.285 2.009-.178 2.07-.342 4.124-.826 6.5-4.74 6.636-10.098 8.32-16.41 2.364-3.095 2.377-6.189 2.023-9.283 1.628zm-67.337-25.384c.274 2.358-1.236 3.475-1.062 7.013-.844.219-1.835.73-1.772-.867.386-3.055.9-5.88 2.834-6.146zm-2.108 24.666c-1.875 4.783-.214 12.281 4.928 11.407-2.73-2.575-3.995-11.262-4.928-11.407zm25.193 15.676c2.33 2.73 3.76 5.861 8.587 7.48l.558 1.34c-3.737.41-10.323-3.261-9.145-8.82zm19.851-21.1c-3.094-.9-8.663 4.313-6.914 10.382 1.297.689.07-3.933 6.914-10.382zm3.792-2.457c-1.218 1.387-6.35 2.94-5.8 0h5.8zm-3.74-144.283c-3.108.691-5.26 1.86-6.992 3.24.228-2.07 3.095-4.375 6.992-3.24zm-10.358 34.219c2.003-1.87 7.99 4.97 7.121 8.166l-7.121-8.166zm-17.091-30.72l-2.978 7c-2.27-1.633.577-6.697 2.978-7zm-9.064 29.813c.4 3.55.629 6.822-1.683 5.962-.314-4.397.642-5.298 1.683-5.962zm6.604 33.57c-.685-2.413-1.291-4.749-1.295-6.48-.868-.63-1.675-.953-2.201.129.126 2.741 1.66 4.636 3.496 6.351zm33.146 2.463c-.613-1.965 1.43-2.157 3.884-2.074-.52 1.207-1.317 2.231-3.884 2.074zm12.839 26.424c-2.844-1.693-1.636-4.39-.728-7.022 3.416-.406 7.079.82 10.172 2.666.291-3.493.52-5.726 1.456-7.283.465-7.646-2.715-9.977-5.697-12.602.548-4.994-2.455-8.898-6.054-12.615-.964-4.343-2.01-8.556-4.242-10.677l-1.812-5.937c-.16-3.597.353-7.19-.974-10.787 1.473-2.693 1.466-5.758.356-9.097 1.441-3.146 1.706-7.722-.604-10.307 4.003-7.282-1.033-14.652-8.716-14.553-6.49-6.142-11.839-4.731-16.72-.247 5.477.055 11.479-.305 9.444 5.703-4.639 5.203-3.18 9.226 2.183 12.491-.015 2.776.04 5.525 2.553 7.036-.035 1.94-.16 3.873 1.689 5.813l3.157 10.554c-2.886-4.614-3.175-10.992-7.523-13.467.344-3.558-1.797-4.864-3.624-5.332.839-4.16-1.742-6.888-4.722-9.455-1.734-7.35-3.343-14.914-13.576-9.344-9.579-.585-15.418 5.392-16.473 9.344 3.706-2.067 7.414-4.122 11.75.124-1.166 6.946.413 11.849 9.212 11.392 1.358 1.375 1.678 3.364 4.475 3.875.374 1.748.568 3.563 3.761 4.37.459 1.381.772 2.653-1.936 1.814-2.143-4.22-4.99-4.244-7.755-4.727-4.724-5.559-15.99-6.385-15.993 4.123-6.417 2.151-8.838-.305-11.146-2.9-.524 7.033 4.163 10.58 13.329 11.145 1.651 8.02 12.966 4.115 12.368 2.693 2.753 1.105 5.104 1.246 6.891.096.922 1.077 2.76 1.47 4.97 1.58-.465 2.84-3.635 2.718-4.613 5.333l-4.598 1.704c-4.256 1.439-10.093-.172-10.776 8.121-4.295 4.52-7.254 2.355-10.296.605-.504 3.852 3.033 6.849 14.77 8.121 8.158 2.161 13.808.302 15.513-7.874 1.391-.17 2.192-1.648 2.292-4.727 1.951-1.152 3.349-2.729 4.008-4.85.808-.81 1.609-.817 2.416-.07 2.988 5.437 3.262 12.18 7.152 17.164-.198 5.31.376 10.31 4.97 13.7.145 4.88-.926 9.99 4.118 13.949l5.573.357zm-7.79-13.333c-.165-1.185-.14-2.274 3.756-1.426.235 1.369-.552 2.123-3.755 1.426z" fill-opacity=".995" fill-rule="evenodd"/></svg>