<svg xmlns="http://www.w3.org/2000/svg" width="800" height="571.429" viewBox="0 0 210 297" id="svg2" version="1" shape-rendering="geometricPrecision" text-rendering="geometricPrecision" image-rendering="optimizeQuality" fill-rule="evenodd" clip-rule="evenodd"><defs id="defs4"><style id="style6">.fil4{fill:#0093dd}.fil1{fill:#0a0b0c}.fil2{fill:#db261b}.fil3{fill:#facf00}.fil0{fill:#fff}</style></defs><g id="Warstwa_x0020_1" transform="matrix(1.98 0 0 1.98 -102.9 -145.53)"><g id="_113326872"><path id="_66103056" class="fil0" fill="#fff" d="M210 98.5v100H50v-100h160z"/><g id="g12"><path id="_66102984" class="fil1" d="M165.551 154.4c0 19.43-15.97 35.275-35.55 35.275-19.552 0-35.552-15.875-35.552-35.275v-47.075h71.102V154.4z" fill="#0a0b0c"/><path id="_66102912" class="fil2" d="M130.141 148.416v-39.584h33.854v39.584H130.14zm-17.555 34.916a34.354 34.354 0 0 1-6.132-4.702h23.392v4.702h-17.26zm-10.651-10.04a34.09 34.09 0 0 1-2.692-4.687h30.603v4.687h-27.912zm-4.677-9.994a33.596 33.596 0 0 1-.968-4.733h33.556v4.733H97.258zm-1.252-9.964v-4.623h33.84v4.623h-33.84z" fill="#db261b"/><g id="g16"><path id="_66102840" class="fil1" d="M148.362 136.568c.377.133.65.494.65.915a.974.974 0 0 1-.78.951c.262 2 1.876 2.68 3.504 1.669.23-.143.434-.407.41.126-.056 1.24-1.766 2.329-3.322 1.492.32.48 1.45 1.144 2.798.751.26-.075.474-.153.226.29-.824 1.473-3.012 1.223-3.627.309a3.23 3.23 0 0 1-.594 1.867c-.13.182-.243.19-.379-.002a3.228 3.228 0 0 1-.592-1.865c-.616.914-2.803 1.164-3.627-.31-.248-.442-.035-.364.226-.289 1.347.393 2.478-.272 2.798-.751-1.556.837-3.266-.251-3.322-1.492-.024-.533.18-.27.41-.126 1.627 1.01 3.24.332 3.504-1.667a.974.974 0 0 1-.79-.953c0-.424.277-.787.658-.918-.068-.6-.184-1.255-.32-1.872-.246.451-.591 1.04-1.056 1.659-.353.469-.529.935-.531 1.398-.002.27.024.363-.291.22a3.157 3.157 0 0 1-.531-.292l-3.405 4.741c-.219.304-.257.38.193.419.405.035.804.022 1.275.077.626.073.957.795.528 1.484-.147.235-.15.21-.306.054-.403-.405-1.858-.623-2.532-.751-.29-.056-.505-.059-.686-.011-.856.226-1.949.746-2.87 1.179-.3.14-.491.362-.652.628-.094.156-.126.203-.289.047-.332-.32-.857-1.066-.095-1.603.513-.362 1.552-.513 2.053-.698-1.13-.026-2.335.025-2.925.645-.13.136-.132.164-.26-.02-.437-.62-.33-1.414.532-1.592.721-.15 1.516.064 2.356.09-.904-.36-1.985-.736-2.86-.603-.284.043-.273.006-.18-.263.335-.964 1.222-1.246 2.208-.776.784.375 1.812 1.05 2.47 1.372.162.08.382.115.5-.065l3.16-4.88a1.525 1.525 0 0 1-.805-.248c-.18-.124-.047-.233.073-.333.436-.361.894-.886 1.288-1.617.551-1.021.666-1.973.827-3.086.163-1.129.452-1.7 1.296-1.742a29.322 29.322 0 0 1-.841-2.472l-1.123 5.195c-.237 1.092-.845 2.442-2.303 2.658-.319.047-.367-.092-.237-.356.391-.792.713-1.624.756-2.517l.215-4.396-1.567 8.66c-.233 1.203-1.038 1.972-2.065 2.294-.356.111-.46.033-.34-.305.235-.665.484-1.619.53-2.214l.633-8.235-1.343 7.535c-.242 1.323-1.052 1.774-2.121 2.006-.323.07-.524.121-.341-.28.308-.675.64-1.365.682-2.107l.479-8.287-.972 5.821c-.112 1.12-.946 1.633-2.113 1.78-.33.042-.356-.087-.224-.346.35-.69.637-1.38.647-2.036l.138-9.577c.017-1.194-.027-3.135.218-4.94.276-2.03 1.73-5.053 4.244-4.962 1.796.065 2.885 1.596 2.93 3.09.046 1.521-.66 2.818-2.2 3.273.182 1.783 1.957 3.335 5.934 3.385.506-.586 1.06-1.145 1.498-1.783.462-.672.847-1.38.814-2.278a1.669 1.669 0 0 1-.42-.508 17.824 17.824 0 0 0-.803-1.282c-.34-.51-.54-1.013-.785-1.292-.255-.291-.602-.315-.938-.274-.015-.494-.072-1.18.182-1.662.363-.687 1.17-.666 1.753-.345.526.29 1.062.75 1.463.926.196-.692.18-1.948-.254-2.77-.091-.17-.086-.238.11-.258.306-.03.715-.02.832.295.254-.242 1.001-.474 1.13.545.027.204-.036.203-.206.18-.316-.04-.536.095-.544.302-.024.68.737.74 1.086.484.363-.268.431-.632.141-.825-.124-.082-.181-.115-.084-.276.183-.304.605-.313.703-.223.19-.342.49-.422.71-.44.194-.017.28-.03.371.175.113.253.077.65.03.829.306.083.288.49.117.767-.094.152-.121.137-.24.039-.221-.182-.364-.082-.45.119-.115.274-.128.726.083.955.186.2.464.181.7.06.298-.155.291-.374.092-.644-.111-.15-.128-.209.056-.281.665-.262 1.164.041 1.016.63.305-.052.708.197.837.493.078.18-.047.185-.191.201-.967.11-2.176.93-2.67 1.506.031.676-.159 1.355-.418 1.775-.444.719-.582 1.152-.356 1.967.28 1.013.82 1.934 1.246 2.885 3.734-.134 5.411-1.646 5.589-3.377-1.541-.455-2.247-1.752-2.2-3.273.044-1.494 1.133-3.025 2.93-3.09 2.513-.091 3.967 2.932 4.243 4.963.244 1.804.201 3.746.218 4.939l.138 9.577c.01.655.297 1.345.647 2.036.132.26.105.388-.224.347-1.167-.148-2.002-.661-2.113-1.78l-.972-5.822.478 8.287c.043.742.375 1.432.683 2.107.183.401-.018.35-.341.28-1.069-.232-1.879-.683-2.122-2.006l-1.342-7.535.633 8.235c.046.595.295 1.55.53 2.214.12.338.016.416-.34.305-1.027-.322-1.832-1.091-2.065-2.294l-1.567-8.66.215 4.396c.043.893.365 1.725.756 2.517.13.264.082.403-.237.356-1.458-.216-2.067-1.566-2.303-2.658l-1.073-4.966c-.252.724-.553 1.516-.798 2.25.772.078 1.046.649 1.203 1.735.16 1.113.276 2.065.827 3.086.394.73.851 1.256 1.288 1.617.12.1.252.21.073.333-.22.151-.512.24-.805.248l3.16 4.88c.117.18.337.145.5.065.658-.323 1.686-.997 2.47-1.372.986-.47 1.873-.188 2.207.776.093.27.105.306-.18.263-.874-.133-1.955.243-2.86.602.841-.025 1.635-.238 2.356-.09.863.179.97.973.534 1.594-.129.183-.131.155-.26.019-.59-.62-1.796-.67-2.926-.645.5.185 1.54.336 2.053.698.762.537.237 1.284-.095 1.603-.163.156-.195.109-.29-.047-.16-.266-.351-.488-.65-.628-.922-.433-2.015-.953-2.872-1.179-.18-.048-.395-.045-.685.01-.674.13-2.13.347-2.532.752-.156.157-.16.18-.306-.054-.429-.69-.098-1.411.528-1.484.47-.055.87-.042 1.275-.077.45-.039.412-.115.193-.419l-3.405-4.74a3.157 3.157 0 0 1-.53.29c-.316.144-.29.05-.292-.219-.002-.463-.179-.93-.531-1.398-.451-.6-.79-1.173-1.033-1.618a27.154 27.154 0 0 0-.321 1.834z" fill="#0a0b0c"/><path id="_66102768" class="fil3" d="M137.394 115.717a.656.656 0 1 1 .735.716c-.075.01-.081.037-.018.08a.655.655 0 1 1-.984.321c.055-.151.038-.16-.103-.098a.656.656 0 0 1-.918-.6.656.656 0 0 1 1.18-.392c.081.109.097.081.108-.027zm6.444-.684c0-.32.01-.787.162-1.143.244-.576.916-.636 1.416-.379.54.278 1.007.712 1.548 1.008-.024.4-.013.825-.01 1.196.002.39.017.694.201 1.06.18.353.202.723.016.947-.189.226-.25.334-.375.577-.137.265-.214.115-.308-.036-.23-.366-.478-.804-.747-1.172-.303-.415-.493-.813-.747-1.23-.268-.439-.523-.745-.873-.645.08-.466.758-.129.9.02a13.14 13.14 0 0 1 1.553 2.019c.057.091.22.255.356.127.113-.105.029-.253-.059-.356l-1.517-1.787c-.401-.473-1.01-.747-1.517-.206zm13.623.684a.656.656 0 1 0-.735.716c.075.01.08.037.018.08a.655.655 0 1 0 .983.321c-.054-.151-.038-.16.103-.098a.656.656 0 0 0 .918-.6.656.656 0 0 0-1.179-.392c-.081.109-.097.081-.108-.027zm-4.931 21.387 3.308 5.095c.167.257.468.229.705.13.688-.286 1.637-.976 2.405-1.343.885-.423 1.546-.42 2.001.545-1.007-.183-2.219.377-3.11.679-.408.138-.262.471.113.445.756-.053 1.67-.202 2.415-.162.503.027.907.467.522 1.166-.6-.648-1.909-.635-3.085-.658-.369-.007-.605.167-.18.385.45.231 1.468.354 2.039.69.827.489.122 1.096.028 1.233-.185-.352-.41-.487-.773-.67-.9-.455-1.987-.936-2.826-1.18a1.594 1.594 0 0 0-.753-.011c-.74.168-2.371.334-2.672.782-.353-.756.053-1.027.526-1.084.458-.055.924-.036 1.357-.1.447-.065.42-.338.201-.642l-3.51-4.89c.31-.315.376-.505.37-.8.306.175.613.327.919.39zm-1.058-12.715c3.736-.544 7.26-2.254 9.858-5.202.082 1.076.108 2.152.108 3.229-3.009 1.224-6.136 2.329-9.872 2.825a8.19 8.19 0 0 0-.094-.852zm6.8-7.438c1.056.948 1.292 2.73 1.192 3.71-.58.493-1.284.965-2.007 1.434.277-.195 1.694-2.538.429-4.73a.827.827 0 0 0 .054-.409.831.831 0 0 0 .332-.005zm-11.434 19.775h1.193a.76.76 0 0 1 .758.757.76.76 0 0 1-.758.757h-1.193a.76.76 0 0 1-.758-.757.76.76 0 0 1 .758-.757zm.175-25.246c.382.627.49 1.463.329 2.739 1.208-.662 2.698.282 3.04 1.665.876-.862 1.754-1.38 2.65-1.423-.115-.239-.445-.347-.737-.26-.111.034-.196.001-.134-.144.28-.661-.264-.685-.615-.534.21.122.335.519.184.688-.467.527-1.069.48-1.373.092-.129-.163-.188-.388-.194-.656-.013-.564.39-1.148.837-.75.141-.216.042-.413-.084-.47-.143-.065-.156.029-.1-.156.041-.142.101-.466-.011-.688-.375-.06-.594.154-.736.454-.06.13-.075.071-.112.015-.12-.182-.388-.11-.492.047.472.117.36.694.138.937-.214.235-.549.421-.872.43-.446.013-.858-.415-.853-.862.003-.338.278-.598.76-.527-.004-.501-.527-.695-.779-.264-.067.115-.192.322-.244.067-.038-.184-.047-.414-.602-.4zm-4.689 25.624-3.307 5.095c-.167.257-.468.229-.706.13-.688-.286-1.637-.976-2.404-1.343-.886-.423-1.546-.42-2.001.545 1.006-.183 2.218.377 3.11.679.408.138.262.471-.114.445-.755-.053-1.67-.202-2.414-.162-.503.027-.907.467-.523 1.166.6-.648 1.91-.635 3.085-.658.37-.007.606.167.18.385-.45.231-1.468.354-2.038.69-.827.489-.123 1.096-.029 1.233.185-.352.41-.487.774-.67.9-.455 1.986-.936 2.826-1.18.18-.051.465-.076.753-.011.74.168 2.37.334 2.672.782.353-.756-.053-1.027-.526-1.084-.458-.055-.924-.036-1.358-.1-.446-.065-.419-.338-.2-.642l3.509-4.89c-.31-.315-.376-.505-.37-.8-.306.175-.612.327-.918.39zm1.104-12.708c-3.753-.537-7.294-2.249-9.904-5.21a42.574 42.574 0 0 0-.107 3.23c3.027 1.231 6.175 2.343 9.942 2.834a2.747 2.747 0 0 1 .069-.854zm-6.845-7.445c-1.057.948-1.292 2.73-1.192 3.71.579.493 1.284.965 2.006 1.434-.277-.195-1.694-2.538-.428-4.73a.83.83 0 0 1-.054-.409.831.831 0 0 1-.332-.005z" fill="#facf00"/><path id="_66102696" class="fil0" d="M144.095 123.019c-2.01.062-5.77-.732-6.055-3.792 1.42-.22 2.246-1.55 2.255-2.907.011-1.623-1.021-2.932-2.628-3.047-1.175-.084-2.15.651-2.837 1.668-.722 1.066-1.273 2.54-1.273 3.841a8.39 8.39 0 0 0 1.636 1.71c-.07-2.014.72-3.192 1.192-3.611a.836.836 0 0 1-.458-.745.836.836 0 0 1 1.343-.66.837.837 0 0 1 .775-.527.836.836 0 0 1 .353 1.59.836.836 0 0 1-.655 1.35.834.834 0 0 1-.676-.345c-.747 1.302-.55 3.287.657 4.694 2.05 1.17 3.954 1.72 5.766 1.888.12-.369.324-.738.605-1.107zm2.754 15.434c-.254 2.118-1.934 3.023-3.858 1.819-.004 1.376 2.305 1.985 3.195 1.006.27-.298.304.173.22.346-.575 1.172-2.282 1.351-3.124 1.1.896 1.366 2.965.82 3.33.004.098-.22.247-.128.248.076.004.699.145 1.441.578 2.008.433-.566.575-1.31.579-2.008.001-.204.15-.296.248-.076.365.816 2.434 1.362 3.33-.004-.842.251-2.549.072-3.123-1.1-.085-.173-.052-.644.22-.346.889.98 3.198.37 3.195-1.006-1.925 1.204-3.605.3-3.859-1.819h-1.18zm4.153-15.43c2.055-.007 5.538-.855 5.811-3.796-1.42-.22-2.246-1.55-2.255-2.907-.01-1.623 1.022-2.932 2.629-3.047 1.174-.084 2.149.651 2.837 1.668.721 1.066 1.273 2.54 1.273 3.841a8.389 8.389 0 0 1-1.637 1.71c.07-2.014-.72-3.192-1.192-3.611a.836.836 0 0 0 .459-.745.836.836 0 0 0-1.343-.66.837.837 0 0 0-.775-.527.836.836 0 0 0-.835.835c0 .333.197.622.481.755a.836.836 0 0 0 .655 1.35.834.834 0 0 0 .676-.345c.748 1.302.55 3.287-.657 4.694-2.027 1.156-3.91 1.708-5.705 1.882a8.09 8.09 0 0 0-.422-1.098zm-3.84-8.23c.286-.785 1.33-.63 1.937-.303.39.21.772.639.952 1.069.13.31.17.64.154.957-.028.562-.26 1.077-.49 1.456-.547.896-.497 1.52-.114 2.496.41 1.044 1.023 2.235 1.383 3.178.44 1.148.455 2.436-.006 3.71-.234.647-.457 1.343-.708 2.046-.464 1.295-1.121 2.524-1.491 3.85a19.667 19.667 0 0 0-.644 3.266.946.946 0 0 0-.093-.005h-1.216a.965.965 0 0 0-.076.003 19.818 19.818 0 0 0-1.098-4.53c-.532-1.427-1.09-2.807-1.52-4.272-.406-1.385-.956-2.886-.076-4.21.281-.423.646-.812.97-1.181.885-1.006 1.845-2.08 1.841-3.471 0-.176.044-.407.161-.572.1-.141.218-.286.343-.422.293-.318.203-.791.015-1.132-.206-.374-.214-.954-.195-1.416.084.013.167.02.25.022.134.462.414.635.737.641.31.006.574-.263.79-.68.107-.02.283 0 .461.028-.172-.489-1.335-.641-1.843-.31a.631.631 0 0 1-.307.036c-.165-.028-.166-.12-.117-.255zm.484.573a.56.56 0 0 0 .55.381c.25-.008.547-.338.602-.556.034-.135-.047-.126-.133-.146-.104-.024-.156-.022-.174.088-.032.188-.082.337-.304.368-.132.019-.281-.016-.327-.165-.035-.111-.244-.064-.214.03zm13.77 7.314.155 9.86c.012.769.25 1.244.684 2.112-1.34-.214-1.804-.741-1.953-1.833l-1.356-8.39-.195.014.666 11.147c.04.662.412 1.549.688 2.19-1.18-.31-1.85-.688-2.03-1.945l-1.795-10.442-.227.016.847 11.238c.053.704.293 1.608.538 2.282-.932-.157-1.802-1.268-1.94-2.19l-1.922-10.9-.248.032.342 6.714c.05.978.363 1.786.816 2.65-1.364-.13-1.914-1.546-2.154-2.688l-1.09-5.184c.21-.587.323-1.263.351-1.91 3.336-.406 6.582-1.42 9.823-2.773zm-11.238 7.725c.566-.04.844.491.98 1.079.113.493.155.995.227 1.494.171 1.184.683 2.172 1.376 3.123.193.265.42.521.684.634-.431.215-.956.219-1.753-.284-.183-.115-.277-.183-.273.112.009.752-.546.92-.942 1.15.075-.402-.09-.882-.33-1.22-.126-.178-.357-.56-.62-.958-.205-.309-.745-1.017-.701-1.405.285-1.242.768-2.483 1.352-3.725zm-16.74-7.725-.155 9.86c-.012.769-.25 1.244-.685 2.112 1.341-.214 1.805-.741 1.953-1.833l1.356-8.39.195.014-.666 11.147c-.04.662-.411 1.549-.687 2.19 1.18-.31 1.849-.688 2.03-1.945l1.794-10.442.227.016-.847 11.238c-.053.704-.293 1.608-.537 2.282.932-.157 1.801-1.268 1.939-2.19l1.923-10.9.247.032-.342 6.714c-.05.978-.362 1.786-.815 2.65 1.364-.13 1.913-1.546 2.153-2.688l1.146-5.452a5.36 5.36 0 0 1-.316-1.633c-3.364-.4-6.647-1.419-9.914-2.782zm11.323 7.735c-.624-.102-.923.452-1.065 1.069-.113.493-.155.995-.227 1.494-.172 1.184-.683 2.172-1.376 3.123-.193.265-.42.521-.685.634.432.215.957.219 1.753-.284.183-.115.277-.183.274.112-.01.752.545.92.941 1.15-.075-.402.091-.882.33-1.22.126-.178.357-.56.62-.958.205-.309.76-1.017.716-1.405-.353-1.31-.682-2.406-1.281-3.715z" fill="#fff"/></g><path id="_66102600" class="fil4" d="M96.005 148.416v-39.584h33.84v39.584h-33.84zm67.99 5.768c0 18.67-15.195 33.906-33.854 33.982v-39.455h33.853v5.473z" fill="#0093dd"/><g id="g22"><path id="_66102528" class="fil1" d="m146.021 151.016 1.056 2.773 2.927-.471c.227-.037.279.045.133.224l-1.874 2.301 1.871 2.299c.146.178.101.264-.127.227l-2.93-.472-1.055 2.77c-.082.215-.178.22-.26.003l-1.056-2.773-2.927.471c-.227.037-.279-.044-.133-.224l1.874-2.3-1.872-2.3c-.145-.178-.1-.264.128-.227l2.93.472 1.055-2.77c.081-.215.178-.219.26-.003z" fill="#0a0b0c"/><path id="_66102456" class="fil3" fill="#facf00" d="m145.891 151.35 1.031 2.707 2.86-.46-1.829 2.247 1.829 2.246-2.86-.46-1.031 2.707-1.031-2.707-2.86.46 1.828-2.246-1.828-2.247 2.86.46 1.031-2.707z"/></g><g id="g26"><path id="_66102360" class="fil1" d="m136.562 151.016 1.056 2.773 2.927-.471c.227-.037.279.045.133.224l-1.874 2.301 1.871 2.299c.146.178.101.264-.127.227l-2.93-.472-1.055 2.77c-.082.215-.178.22-.26.003l-1.056-2.773-2.927.471c-.227.037-.279-.044-.133-.224l1.874-2.3-1.872-2.3c-.145-.178-.1-.264.128-.227l2.93.472 1.055-2.77c.081-.215.178-.219.26-.003z" fill="#0a0b0c"/><path id="_66102288" class="fil3" fill="#facf00" d="m136.432 151.35 1.031 2.707 2.86-.46-1.828 2.247 1.828 2.246-2.86-.46-1.031 2.707-1.031-2.707-2.86.46 1.829-2.246-1.829-2.247 2.86.46 1.031-2.707z"/></g><g id="g30"><path id="_66102192" class="fil1" d="m155.486 151.016 1.056 2.773 2.927-.471c.227-.037.279.045.133.224l-1.874 2.301 1.871 2.299c.146.178.101.264-.127.227l-2.93-.472-1.055 2.77c-.082.215-.178.22-.26.003l-1.056-2.773-2.927.471c-.227.037-.279-.044-.133-.224l1.874-2.3-1.872-2.3c-.145-.178-.1-.264.128-.227l2.93.472 1.055-2.77c.081-.215.178-.219.26-.003z" fill="#0a0b0c"/><path id="_66102120" class="fil3" fill="#facf00" d="m155.356 151.35 1.031 2.707 2.861-.46-1.829 2.247 1.829 2.246-2.861-.46-1.031 2.707-1.031-2.707-2.86.46 1.829-2.246-1.829-2.247 2.86.46 1.031-2.707z"/></g><g id="g34"><path id="_66102024" class="fil1" d="m146.021 161.801 1.056 2.773 2.927-.471c.227-.037.279.045.133.224l-1.874 2.301 1.871 2.299c.146.178.101.264-.127.227l-2.93-.472-1.055 2.77c-.082.215-.178.22-.26.003l-1.056-2.773-2.927.471c-.227.037-.279-.044-.133-.224l1.874-2.3-1.872-2.3c-.145-.178-.1-.264.128-.227l2.93.472 1.055-2.77c.081-.215.178-.219.26-.003z" fill="#0a0b0c"/><path id="_66101952" class="fil3" fill="#facf00" d="m145.891 162.134 1.031 2.708 2.86-.461-1.829 2.247 1.829 2.246-2.86-.46-1.031 2.707-1.031-2.707-2.86.46 1.828-2.246-1.828-2.247 2.86.461 1.031-2.708z"/></g><g id="g38"><path id="_66101856" class="fil1" d="m136.562 161.801 1.056 2.773 2.927-.471c.227-.037.279.045.133.224l-1.874 2.301 1.871 2.299c.146.178.101.264-.127.227l-2.93-.472-1.055 2.77c-.082.215-.178.22-.26.003l-1.056-2.773-2.927.471c-.227.037-.279-.044-.133-.224l1.874-2.3-1.872-2.3c-.145-.178-.1-.264.128-.227l2.93.472 1.055-2.77c.081-.215.178-.219.26-.003z" fill="#0a0b0c"/><path id="_66101784" class="fil3" fill="#facf00" d="m136.432 162.134 1.031 2.708 2.86-.461-1.828 2.247 1.828 2.246-2.86-.46-1.031 2.707-1.031-2.707-2.86.46 1.829-2.246-1.829-2.247 2.86.461 1.031-2.708z"/></g><g id="g42"><path id="_66101688" class="fil1" d="m155.486 161.801 1.056 2.773 2.927-.471c.227-.037.279.045.133.224l-1.874 2.301 1.871 2.299c.146.178.101.264-.127.227l-2.93-.472-1.055 2.77c-.082.215-.178.22-.26.003l-1.056-2.773-2.927.471c-.227.037-.279-.044-.133-.224l1.874-2.3-1.872-2.3c-.145-.178-.1-.264.128-.227l2.93.472 1.055-2.77c.081-.215.178-.219.26-.003z" fill="#0a0b0c"/><path id="_66101616" class="fil3" fill="#facf00" d="m155.356 162.134 1.031 2.708 2.861-.461-1.829 2.247 1.829 2.246-2.861-.46-1.031 2.707-1.031-2.707-2.86.46 1.829-2.246-1.829-2.247 2.86.461 1.031-2.708z"/></g><g id="g46"><path id="_66101520" class="fil1" d="m146.021 172.585 1.056 2.773 2.927-.471c.227-.037.279.045.133.224l-1.874 2.301 1.871 2.299c.146.178.101.264-.127.227l-2.93-.472-1.055 2.77c-.082.215-.178.22-.26.003l-1.056-2.773-2.927.471c-.227.037-.279-.044-.133-.224l1.874-2.3-1.872-2.3c-.145-.178-.1-.263.128-.227l2.93.472 1.055-2.77c.081-.215.178-.219.26-.003z" fill="#0a0b0c"/><path id="_66101448" class="fil3" fill="#facf00" d="m145.891 172.919 1.031 2.707 2.86-.461-1.829 2.247 1.829 2.247-2.86-.461-1.031 2.708-1.031-2.708-2.86.461 1.828-2.247-1.828-2.247 2.86.461 1.031-2.707z"/></g><g id="g50"><path id="_66101352" class="fil1" d="m136.562 172.585 1.056 2.773 2.927-.471c.227-.037.279.045.133.224l-1.874 2.301 1.871 2.299c.146.178.101.264-.127.227l-2.93-.472-1.055 2.77c-.082.215-.178.22-.26.003l-1.056-2.773-2.927.471c-.227.037-.279-.044-.133-.224l1.874-2.3-1.872-2.3c-.145-.178-.1-.263.128-.227l2.93.472 1.055-2.77c.081-.215.178-.219.26-.003z" fill="#0a0b0c"/><path id="_66101280" class="fil3" fill="#facf00" d="m136.432 172.919 1.031 2.707 2.86-.461-1.828 2.247 1.828 2.247-2.86-.461-1.031 2.708-1.031-2.708-2.86.461 1.829-2.247-1.829-2.247 2.86.461 1.031-2.707z"/></g><g id="g54"><path id="_66101184" class="fil1" d="M110.318 117.504h-2.099c-1.024-.01-3.588-.103-4.237-1.259h-.506v6.83h.506c.649-1.156 3.213-1.249 4.237-1.259h2.098v4.764l-5.725.002c-1.024-.01-3.588-.103-4.237-1.26h-.505v6.83h.505c.649-1.155 3.213-1.248 4.237-1.259l5.725.002.001 10.518c-.01 1.025-.103 3.588-1.26 4.237v.506h6.831v-.506c-1.156-.649-1.249-3.212-1.259-4.237l.002-10.518 5.692-.002c1.025.01 3.589.103 4.237 1.26h.506v-6.83h-.506c-.648 1.156-3.212 1.249-4.237 1.259l-5.692-.002-.001-4.763h2.084c1.025.01 3.589.102 4.237 1.259h.506v-6.83h-.506c-.648 1.156-3.212 1.248-4.237 1.259l-2.085-.001v-1.576c.01-1.024.103-3.588 1.26-4.237v-.505h-6.831v.505c1.156.65 1.25 3.213 1.26 4.237l-.001 1.576z" fill="#0a0b0c"/><path id="_66101112" class="fil3" d="M114.376 130.639v10.732c-.007.933.12 3.661 1.26 4.434v.109h-6.324v-.109c1.14-.773 1.267-3.501 1.26-4.434v-10.732h-5.938c-.933-.007-3.662.12-4.435 1.26h-.108v-6.324h.108c.773 1.14 3.502 1.267 4.435 1.26h5.918l.01-5.273h-2.302c-.933-.007-3.66.12-4.434 1.26h-.108v-6.324h.108c.773 1.14 3.501 1.266 4.434 1.26h2.308l.004-1.789c.007-.933-.12-3.66-1.26-4.434v-.109h6.323v.109c-1.139.773-1.266 3.501-1.259 4.434v1.788h2.297c.934.007 3.662-.12 4.435-1.26l.108.001v6.323h-.108c-.773-1.139-3.501-1.266-4.434-1.26h-2.298v5.274h5.906c.934.007 3.662-.12 4.435-1.26h.108v6.324h-.108c-.773-1.14-3.501-1.267-4.435-1.26h-5.906z" fill="#facf00"/></g><path id="_113327112" class="fil0" d="M129.846 188.166a33.695 33.695 0 0 1-16.76-4.539h16.76v4.539zm-23.695-9.83a34.408 34.408 0 0 1-4.012-4.749h27.707v4.748h-23.695zm-7.045-10.026a33.732 33.732 0 0 1-1.763-4.717h32.503v4.717h-30.74zm-2.852-10.04a33.91 33.91 0 0 1-.248-4.086v-.555h33.84v4.64H96.254z" fill="#fff"/></g><path id="_113327016" class="fil2" fill="#db261b" d="M50 198.5h160v25H50z"/><path id="_113326944" class="fil3" fill="#facf00" d="M0 73.5h50v150H0z"/><path id="_113326800" class="fil4" fill="#0093dd" d="M50 73.5h160v25H50z"/></g></g></svg>