<svg xmlns="http://www.w3.org/2000/svg" width="812.225" height="511.689" id="svg2"><defs id="defs4"><style id="style6-9"/><style id="style6"/></defs><g transform="translate(.882 -6.702)" id="layer1"><g transform="translate(-280.753 10.007) scale(.47563)" id="g3055"><g id="g3035"><g transform="translate(1068.592)" id="g3030"><path transform="scale(-1 1)" id="rect3053" fill="#d62828" d="M-659.408-6.951h571.437v1075.807h-571.437z"/><path id="rect3024" fill="#fff" d="M-480.173-6.951H87.97v1075.807h-568.143z"/><path id="rect3028" fill="#fff" d="M659.357-6.951H1227.5v1075.807H659.357z"/></g><g transform="translate(1244.831 287.322) scale(.53134)" id="g3970"><path d="M748.135-2.651L4.959-1.976l.836 511.486C6.04 658.843 156.813 839.536 374.28 841.432c217.467 1.896 373.265-179.271 373.404-333.884z" id="path3944"/><path d="M737.656 9.25l-722.218.656.812 497.063c.237 145.122 146.759 320.72 358.094 322.562 211.335 1.843 362.74-174.216 362.875-324.468l.437-495.813zM344.531 48.469c18.324.253 39.994 8.828 52.125 14.406 9.983-12.78 28.194-4.151 47.563-4.5 14.254-.257 16.477-8.56 26.25-9.375-7.239 8.052-8.7 22.646-23.281 29.219 8.89 6.182 24.588-11.982 39.125-7.406-14.995 9.273-9.489 16.409-21.75 28-11.107 10.498-30.318 8.95-32.25 10.624 9.006 7.407 8.367 23.208 19.343 25.282-5.639 7.53-9.512 7.003-15.375 8.406 5.223 4.986 2.022 11.989 19.75 24.875-3.857 1.647-9.56.89-15.469 1 1.881 7.75 3.169 9.22 12.407 14.844-4.297 5.17-8.692 10.139-16.188 7.844 2.449 9.977 2.633 18.828 2.969 27.75l-7.938-1c.417 14.976-2.398 27.806-13.375 35.187l-3.312-4.125c-1.189 9.717.373 22.439-12.188 19.75-.49 4.978-.097 9.96-2.062 14.938 9.005.574 17.423 3.026 20.438 11.03l8.75-1.843c-.486-13.555 3.08-24.656 5.03-36.75 11.442-1.176 19.938 3.163 23.22 17.219 11.06-18.303 1.126-35.791.562-54.094 14.37 1.779 29.227 3.906 38.25 24.938 5.33-49.436 7.386-101.8 18.625-146.344 31.838 16.13 20.524 108.478 20.219 133.25 45.579-49.491 56.81-112.366 50.75-181.969 71.304 24.062 23.83 136.828 11.031 168.625 22.011-22.248 46.648-62.786 80.875-57.438 8.564 16.777-45.527 64.528-64.313 97.407 12.775-15.348 62.97-38.61 72.594-13.781 1.196 3.901-64.928 55.941-97.406 74-2.188 1.678-4.718 3.294-3.219 5.5 31.773-15.449 100.797-7.045 96.032 26.187-50.014-5.84-98.002 1.256-144.75 16.094-11.036 12.812-33.098 19.315-59.72 20.219v7.812c-26.699.69-41.7-8.284-59.75-14.719 4.04 9.143 36.642 39.991 68 53.313 15.03 7.65 53.161 25.54 58.813 75.812 4.84 28.586 23.417 73.416 57.907 84.063 8.578 3.103 26.538 5.027 28.03-.907-1.42-8.354-13.508-2.099-21.124-.906 3.885-17.592 13.472-25.166 32.593-16.093-.128-16.662-23.98-23.146-37.656-34-24.206-17.662-33.928-40.169-30.343-67.094.562-30.659-22.264-34.387-42.72-40.875 15.4-9.32 48.15-22.38 62.845 4.187 4.091-4.812 8.129-12.38 17.562-18.75 13.63-9.944 12.22-29.354 20.219-37.844 18.313-24.344 54.499-9.655 43.656 29.875-5.472 10.754-21.091 20.893-10.406 32.625 7.638 4.292 14.613 1.914 15.281-1.28.774-4.915-3.245-6.509-10.625-6.407 3.702-8.032 24.673-8.952 26.406 6.938-1.03 24.38-47.288 35.724-56.437-.563-2.025-21.676 22.724-41.499 14.781-48.469-9.287-3.411-10.45 23.868-18.188 35.406-5.459 9.722-12.267 16.763-18.75 24.438 21.135-2.247 30.687 6.876 32.782 23.844-12.337-11.07-35.228-10.247-39.75 1.781 16.994-12.488 40.546-7.066 39.656 14.5-13.99-9.81-26.418-6.034-30.25 1.844 15.646-10.047 38.71 1.402 30.25 24.5-3.566-8.33-19.543-8.08-20.25 2.25-1.778 11.454 35.476 24.965 36.188 60.906-.917 44.366-57.817 41.647-80.532 33.531-40.841-16.602-54.54-71.349-62.531-94.437-4.185-21.818-12.44-38.786-25.344-50.25 3.872 60.018-6.421 60.46-31.875 103-.996 5.422 9.87 9.2 21.063 2.843 16.57-8.612 33.326-4.747 39.844 14.313 5.095 15.279 3.747 16.957 22.468 15.938-5.806 15-14.35 25.919-32.062 19.812 2.108 20.64 20.586 4.23 31.875 4.094-9.054 19.139-20.193 41.72-45.375 22.468-.496 14.634-1.256 29.247-5.5 43.344-1.943 5.776-2.002 10.932 6.312 13.469 12.86 4.591 25.342 21.857 12.469 30.656.96 20.743-8.548 24.346-19.406 25.75 1.942-6.547 4.411-13.335 1.625-17.781-9.53 2.922-12.338-.836-16.125-3.656-3.504 9.998-11.733 12.359-19.438 15.531-7.386 2.506-13.17 26.291-41.875 13.688-16.738-2.647-18.593 8.169-24.719 15.125-1.358-12.594-4.838-26.71 15.313-34.563-4.474-2.112-6.376-4.2-8.781-6.313-9.083-5.056-16.85 1.235-24.313 10.22-.103-14.867.367-29.345 20-30.876l3.094-4.281c-3.428-2.256-3.667-6.65-3.906-11.031-11.518-3.81-13.954 6.868-20.625 10.812-3.673-19.885 8.783-30.15 27.781-31.656 16.087-5.968 26.757 3.852 36.375 16.75 12.475 1.912 16.341-4.516 12.469-18.406-2.21-10.286-4.533-20.558-4.094-30.844 1.652-24.485-16.56-20.34-27.156-27.188 3.125 29.196-27.79 21.544-42.719 22.5 14.208-12.46 23.916-13.097 10.219-34.562-14.696-23.5-.674-45.977 2.031-70.5-15.33-.044-30.142-3.057-44.938-6.313-12.684-1.933-27.085-3.788-28.406 7.563-1.484 8.801 26.06 10.18 25.219 30.031-.057 17.643-10.315 21.294-10.313 28-1.303 7.964 11.434 12.854 13.907 20.032-15.752-1.198-33.924 3.921-42.531-16.157-8.717 16.726 9.401 16.865 17.375 23.282-17.171 9.676-33.532 15.993-43.72-3.875-15.063 13.667-30.9 26.756-50.28 37.187 5.524 13.146 13.613 29.108-3.47 33.125-2.995 14.152-11.541 19.78-22.687 21.438 1.65-6.762 4.954-12.965 2.031-21.25-16.946-1.268-13.98-12.488-13.062-22.688-21.646-4.508-66.258 4.573-62.938-24.5-11.66-6.68-15.29 1.891-22.062 4.5-1.768-14.125 14.547-27.406 29.406-21.281l2.25-3.25c-2.044-3.066-.933-6.122.219-9.188-5.474-10.121-16.412-6.648-25.969-6.562 6.189-14.683 24.4-21.465 37.594-8.969l4.5-2.875c.7-4.005 1.967-7.596 6.969-8.375-1.597-11.442-15.14-5.081-23.5-7.344 7.286-15.084 34.102-16.515 42.281-.625 10.982-1.005 17.594 7.809 15.531 36.157-.623 12.545 17.988 9.731 18 .843 5.96-21.248 19.078-36.244 34.719-50.5 5.68-7.485 6.515-14.293.219-17.968-15.95-7.647-19.302-17.728-19-30.25-26.543 6.788-29.744-11.596-30.656-30.438 10.993 7.51 19.387 14.162 26.968-5.313 9.945-19.59 36.758-28.934 63.969-20.437 11.698 5.002 50.295 5.756 62.313.469-5.919-16.724-61.757-4.453-110.188-55.469-5.991 21.307-19.116 9.988-23.938-10.438-16.7 4.334-33.378 4.02-25.5-9.937-9.528.32-12.244-3.077-11.53-8.344l-39.75 3.313c.096 16.09 13.014 44.018-4.782 44.031-7.301 20.895-25.955 19.889-37.781 6.281 11.144.103 20.876-1.207 20.969-12.156-6.4-5.174-8.962-11.161-2.344-19.125l-.594-8.594c-11.368-1.943-18.424-6.423-14-17.656l-11.781-8.125c-13.278.583-20.722-3.113-16.313-15.563-7-5.072-16.75-4.195-26.5-3.312 4.387-15.428 20.353-17.964 31.532-13.875 17.781-10.237 14.458 14.33 24.062 14.844-2.132-5.663-5.045-11.54-4.063-16.313-10.344-5.766-10.812-12.306-9.562-19-6.559-12.017-17.436-8.232-26.5-11.062 9.23-10.606 24.418-15.412 37.656-3.313 19.089 1.167 16.859 28.61 23.938 44.781.087-5.192 3.447-9.957 5.875-11.406-1.698-2.559-3.174-5.281-2.563-9.687-10.654-4.533-12.28-24.007-1.25-27.719-2.343-12.425-10.095-18.343-16.906-25.406 11.697-.607 26.472 1.493 32.625 21.344 10.887.887 11.36 12.62 11.125 27.75-.177 11.398-1.129 25.403-8 34.28 8.87-.038 18.186-2.039 26.438-3.624-7.409-10.02-3.786-15.53 12.03-16.063-6.827-4.56-8.338-17.126-10.812-28.219 8.4 4.177 16.658 9.3 26 6.875-1.884-12.023-1.3-20.747 2.375-25.25-3.379-11.622 1.12-22.803 3.156-34.125-10.78-12.217-23.557-19.738-36.937-25.78 7.106-8.145 17.15-6.849 27.125-5.75-5.336-8.27-13.59-14.157-14.219-26.25 3.947-2.21 7.222-1.81 10.531-1.47l-19.5-29.687c-4.135 15.209 3.755 41.125-22.687 36.406-19.539 10.311-32.116.056-35.594-15.812 7.916 1.354 16.354 9.862 23.688 3.062-2.063-11.126 3.596-15.948 12.281-18.281-1.617-4.829-3.178-9.65 0-15.438-4.824-4.09-7.948-9.332-7.875-16.687-4.91-5.093-12.981-9.37-17.531-15.219-11.307.732-25.135-13.285-15.938-21.344-5.014-12.422-16.035-7.773-24.906-9.218 6.204-16.786 24.35-18.532 35.938-4.531 13.17-.95 19.152 16.43 28.718 24.656l-.375-9.938c-9.733-7.974-16.651-15.932-6.031-23.906-1.178-8.004-10.535-13.528-22.438-18.281 15.142-8.137 29.024-6.944 40.25 13.625 10.19 4.29 11.118 16.526 12.625 28.687 3.308-2.19 1.965-6.812 4.407-9.312-3.854-10.133-2.585-17.092 9.219-17.438C185.633 76 177.01 70.08 170.375 63.47c12.44-2.421 35.836 5.795 33.844 27.375 2.754 2.306 4.113 5.227 3.937 9.812-1.82 13.37-11.806 15.976-24.906 41.813 7.054 15.77 22.026 27.106 33.75 40.25 1.979-4.424 7.083-7.956 11.156-11.781 1.814 7.886 3.478 15.853 8.469 22.468 2.256-8.429 8.35-11.335 15.813-12.281 1.55 12.169-1.839 26.246 8.937 34.844 32.772-11.161 71.186-14 91.156-64.406-18.822-10.853-40.451-9.729-61.906-3.47 3.975-7.916 9.412-14.384 17.344-18.343-8.013-.545-14.96 5.332-21.813 7.688 3.056-6.607 10.631-14.707 22.906-21.313-12.743-10.718-28.047 1.964-30.343 20.063-13.877-14.515-16.461-31.026-1.469-49.032 9.336-11.085 19.51-20.777 36.656-18.844 4.138-15.22 16.374-20.04 30.625-19.843zM364.5 89.094c5.433 11.701-7.51 13.558-9.125.656-4.771-.114-8.829.045-9.719 3.813.357 3.303 12.752 11.86 18.188 10.374 3.923-.349 8.01-2.882 8.469-7.624.261-5.272-3.013-7.009-7.813-7.22z" id="path2972" fill="#fff"/><path d="M276.932 123.653c.164 0 .328 0 0 0z" id="path3644" fill="none" stroke="#feed00"/><path d="M354.754 89.74c.071 0 .142 0 0 0z" id="path3654" fill="none" stroke="#feed00"/><path d="M53.848 356.754c.034 0 .068 0 0 0z" id="path1362" fill="none" stroke="#000"/><path d="M53.643 356.754c.034 0 .068 0 0 0z" id="path1364" fill="none" stroke="#000"/><path d="M175.628 353.063c.075 0 .151 0 0 0z" id="path2279" fill="none" stroke="#000"/><path d="M501.961 764.236c3.122-8.563 2.526-15.127-2.918-20.427.088-7.66 5.658-10.377 13.461-6.59 4.797 13.84-.696 25.801-10.543 27.017zM400.373 783.06c4.474-8.383 12.682-11.266 22.491-11.647 1.674-6.801-2.962-11.836-6.828-13.655-12.37 2.702-19.26 12.705-15.663 25.302zm-17.47-31.025c-.994-9.627 4.73-22.467 20.884-20.482 4.9 6.261 4.15 11.873 2.008 14.96-11.302-4.282-17.706-.301-22.892 5.522zm-1.336-36.709c1.205-10.465 10.01-19.794 23.766-18.8 5.627 6.753 2.052 14.016-1.064 16.672-7.75-5.72-15.733-4.367-22.702 2.128zm-237.29-124.652c10.44-.653 20.431-.372 24.4 12.458 5.26 2.158 11.782-1.647 11.119-8.236-9.462-14.587-26.241-12.011-35.52-4.222zm-26.254 27.283c10.74-2.183 18.53.1 24.915 8.752 7.137.331 9.87-4.942 8.442-10.81-8.758-11.115-26.45-9.259-33.357 2.058zm-8.237 38.917c4.782-3.587 14.773-9.875 24.092-1.75 4.14-.956 7.703-4.853 4.53-12.252-14.768-5.352-28.125 4.15-28.622 14.002zm96.967 64.07c5.1-8.514 3.218-18.819.145-23.88 3.237-10.886 12.854-7.95 16.015-1.933-.362 16.58-6.623 24.663-16.16 25.813zm-100.12-274.976c8.396-.745 15.914-1.901 17.043-13.14 2.762-2.24 9.01-1.691 11.395 1.745-2.332 18.151-20.552 19.014-28.437 11.395zm-53.178-89.316c8.294.207 16.3-2.661 25.152 5.03 5.836-1.757 5.426-6.314 3.388-11.6-13.249-5.282-24 .388-28.54 6.57zm16.118-43.734c8.397-.096 18.377.623 23.304 9.958 2.133 1.11 9.671-4.278 7.7-9.034-10.182-10.432-24.272-8.153-31.004-.924zm47.637-28.829c14.023-.04 23.701 11.458 24.556 22.333-1.504 4.186-9.064 2.872-11.389 1.607.882-10.958-6.78-16.983-13.167-23.94zM299.097 143.3c19.518-7.23 35.663-6.953 50.806 1.905 7.723 3.327 11.973-10.073 5.927-16.724-21.843-7.88-46.117 4.42-56.733 14.819zm54.599-24.068c-2.709-13.521-9.466-26.826-21.435-30.158-11.595-3.903-14.84-9.617-17.43-16.092-26.109-2.31-52.647 33.272-36.892 52.571 4.916-20.685 30.373-25.474 38.785-8.786 12.463-2.243 24.932-.88 36.972 2.465zm-233.731 80.78c5.399 1.336 14.661 7.85 21.37.678 3.312-.954 8.588 3.163 7.548 6.7-8.78 11.457-28.02 2.421-28.918-7.379zm-.085-97.525c2.826 3.605-4.914 9.659-7.548 8.311-5.568-9.965-12.176-11.346-22.557-10.346 5.087-12.23 23.673-8.382 30.105 2.035zm8.226-30.953c12.919-5.99 24.619 3.608 29.342 14.586.716 6.099-9.287 8.213-11.364 3.477-2.258-10.448-9.689-14.764-17.978-18.063zm60.993 18.688c2.678 2.838 7.79 3.529 11.21 1.119 3.248-17.962-14.124-25.378-23.464-25.048 6.325 7.505 14.307 9.915 12.254 23.929z" id="path2828" fill="#f9d616" fill-rule="evenodd"/><path d="M305.462 306.283c-15.183 9.138-30.762 16.094-47.381 17.328-17.51 6.432-35.67 11.841-38.446 41.424 3.583 26.342 23.275 40.872 36.55 60.106 13.327-19.384-1.742-31.84-14.078-43.59 12.627 4.803 24.525 7.332 33.572-5.415-3.946-8.31-15.648-9.567-27.345-10.83 10.408-2.04 22.053-2.567 26.262-12.184-5.677-9.894-15.846-8.11-24.908-9.205 9.888-2.014 20.935-.55 28.157-10.56-2.69-4.954-6.4-4.818-9.747-6.497 5.355-.382 9.693-1.917 14.35 6.768-2.71 7.122-5.615 9.397-9.747 10.83 10.773 8.237 3.478 14.466-4.873 20.577 19.728 6.264 20.259 21.874-14.35 24.367 14.084 7.481 16.437 36.528 36.01 37.363 4.986-17.096-4.234-25.54-14.892-34.114 16.516 1.996 33.136 4.224 43.32-7.851-4.022-10.419-28.921-8.352-30.865-12.455 10.288-2.705 22.889-1.518 30.323-13.537-5.882-10.219-26.003-9.098-32.218-11.642 16.146-1.836 31.237-4.274 32.49-14.62-.554-5.013-11.045-6.138-18.953-6.498 31.17-6.815 28.308 15.897 6.769 22.2 19.266 3.235 21.792 20.152-4.332 23.827 30.336 5.43 28.312 24.55-12.455 26.533 4.793 15.58 13.895 26.376 29.782 25.18 4.424-12.32-9.762-24.146-7.58-26.534 3.606-2.155 25.217 24.627 39.529 23.284 3.582-16.855-13.772-25.858-20.848-38.717 15.617-1.186 34.514 5.006 44.944-7.851-7.18-15.59-29.17-11.81-44.673-16.516 20.714-3.886 47.085-1.45 56.586-17.87-11.248-10.053-36.286-5.064-54.69-7.31 15.572-4.68 38.074-1.568 43.319-17.869-5.974-7.968-36.223-7.052-54.962-6.498 3.61-3.165 68.238-10.5 59.835 14.08l27.887-5.145-33.031 11.1c11.815 12.103 33.222 2.81 54.15-5.414 16.542-6.986 34.734-13.478 37.362-24.638-39.043-11.723-43.736 14.692-85.827 8.935 14.51-1.89 26.728-5.155 37.634-9.206-4.744-11.78-19.493-9.386-32.49-9.476-48.843-13.23-71.268-3.21-84.202 15.162 12.454-5.331 24.764-11.814 37.905-11.642l3.52 1.895c-13.512 2.655-26.698 5.8-37.363 12.725zm55.727 80.796c5.842 6.892 14.918 18.137 15.671 27.206-23.95-3.546-30.331-16.609-36.348-27.642l20.677.436zm28.73-25.03c1.986.637 1.304 1.312 3.19 2.012 26.626 9.891 47.526 22.97 79.518 24.324-2.585-26.561-19.86-32.137-42.66-29.819.165 4.257 12.32 7.14 15.018 11.318-13.39-2.59-19.354-13.916-55.066-7.835zm-13.872 2.065c14.184 1.902 35.796 14.206 39.6 44.598-6.493-.232-15-6.189-22.764-11.384-12.859-8.604-25.105-10.165-22.988-13.222 4.605-1.222 5.929-4.256 7.812-6.839 7.641.77 12.353 10.321 19.303 11.358-3.896-6.239-19.308-9.525-20.963-24.511zm-2.405-7.455c32.646.76 121.752-2.242 138.984-23.287-7.666-8.257-82.142.406-121.58 4.903-.596 2.042-1.079 4.085-3.432 6.128 11.194 2.504 24.51-.648 36.768-.98 2.653 1.061 2.784 2.124 0 3.186-18.27 1.74-44.656-2.66-50.74 10.05zm92.901 6.373c4.038 5.416 7.562 11.09 10.295 17.158 22.618-1.765 45.377-3.383 55.888-17.894-13.81-9.183-42.77 2.553-66.183.736zm72.065-1.716c45.336-17.108 92.927-19.513 140.21-17.158-14.34-32.349-83.362-26.589-102.46-10.786-11.179 13.545-24.432 18.792-37.504 24.757l-.246 3.187zm-81.625-3.922c35.936-5.393 65.37-18.153 88.244-41.18 13.564-9.983 33.75-31.283 50.985-31.376-9.182 44.37-48.058 76.987-73.046 70.595 14.57-11.345 27.213-19.481 45.347-36.768-.304-2.058-1.582-1.681-3.186-.49-22.517 25.103-51.42 42.238-104.912 41.425l-3.432-2.206zm38.24-34.072l14.951-.245 28.19-25.492c3.268-1.635 3.268-.327 0 3.922l-25.493 22.55 5.883 8.335c19.26-12.135 54.868-44.15 55.397-79.664-20.654 6.659-30.394 21.28-41.18 33.336-33.173 33.255-40.491 34.93-37.749 37.258zm-71.711 4.999c5.445 2.145 14.597 1.51 22.978 1.454 11.097-1.959 40.615-15.735 57.33-45.97 1.768-2.6 3.037-.37 1.392 1.99-10.105 20.969-35.82 35.573-43.015 42.526 34.756 7.132 77.916-59.69 71.552-90.168-22.3 14.451-42.563 45.546-66.899 68.353-4.64 4.703-9.313 9.38-17.742 11.053-10.28 3.587-20.61 7.174-25.596 10.762zm170.497-18.922c5.197 1.488 84.061-60.521 86.985-66.31-25.114-15.179-82.669 22.017-80.939 43.102 3.836 4.426 7.312-8.147 37.282-25.375 2.179-.625 1.969-.025.929 1.61-7.424 2.814-44.631 29.604-44.257 46.973zm-20.09-30.591c2.806-31.39 67.182-118.22 98.809-113.631 6.179 12.788-58.462 68.068-78.225 113.63-5.888 1.743-13.784 5.673-21.134 9.607l45.837-69.99c4.04-5.028 1.257-5.91-3.294-.823-14.273 17.384-29.222 52.643-41.994 61.207zm-38.51-8.787l4.39-29.41c46.023-66.532 55.628-88.876 52.675-181.728 55.741 24.214 10.19 142.07-13.169 186.995l-38.628 24.582c36.34-55.686 38.662-50.253 60.576-114.567-.071-5.92-1.805-4.527-3.95-1.317-16.718 59.475-21.77 59.242-61.894 115.445zm-16.5-164.076c15.864 4.634 14.995 102.472 7.377 128.532-2.287 7.822-8.025 10.467-12.087 13.095.803-16.146 3.17-30.781 3.005-56.712-4.842 7.685-1.86 72.057-16.05 70.119 1.108-29.9 13.577-146.4 17.756-155.034zm-54.441 119.987c5.017 30.127 9.663 32.42-8.687 63.122.153 4.652 3.703 3.967 7.147 3.449 4.23-2.048 5.95-9.257 8.877-11.233l-2.536 8.878c-1.002 1.857.8 6.871 4.71 5.435 26.832-26.243 24.386-65.51-9.511-69.651zm-30.693 66.018l4.633-30.693c11.626.758 17.804 11.177 12.74 29.534l-17.373 1.159zM226.953 396.197c7.565 5.885 16.663 23.028 8.173 29.286-11.215-1.833-13.115-20.887-8.173-29.286zm-10.67-18.162c-3.385 7.483-6.679 14.42-14.166 20.145-3.254 1.935-5.483 4.95-5.131 8.687 19.67 4.26 36.848-7.823 19.297-28.832zm0-23.61c1.036 23.157-6.456 38.554-29.06 39.502-.692-3.546 4.26-7.721 5.41-12.5 2.53-10.507 9.346-22.06 23.65-27.002zm-40.638-1.362c.82-2.589 9.635-2.26 17.039-2.047 8.946.257 16.687-.825 17.242 1.82-5.811 10.531-29.603 9.807-34.28.227zm7.403-26.709c13.45 7.288 33.332-1.143 45.267 8.745-10.52 27.594-47.552 8.618-45.267-8.745zm-47.707 64.49c9.45-4.112 26.564-3.733 41.155-4.417 14.328-1.062 19.06-13.622 16.974-21.16-16.596-1.462-36.195 7.519-58.361 4.419-23.46-3.257-12.654-49.238-32.552-52.781-.373 4.2-3.09 6.753-7.44 8.138-3.115 8.04 2.769 13.142 10.695 16.276-.123 4.573-.464 9.145 3.022 13.718.02 5.89 3.16 11.781 9.999 17.671-14.487-3.741-24.337-10.058-27.67-19.996-3.05-6.015-5.456-3.653-7.905-1.86 3.218 5.339 1.888 9.54-2.325 13.02-2.871 11.188 6.573 8.61 13.718 8.604 1.464 2.59 2.611 5.39 7.673 5.58 1.631 3.99 6.161 5.697 7.673 6.278-6.285 10.625-.347 14.546 12.556 14.649.655 11.89-.205 12.39 10.463 16.276-17.238-.88-16.138 7.533-8.836 13.485 4.432-.839 8.654-.73 11.859 3.953 5.424.231 5.71-5.531 3.72-13.95.715-9.301-2.186-18.602-4.418-27.902zm.946-22.008c18.16-3.263 15.084-55.266 10.687-59.353-4.87-.628-7.459.52-8.385 2.96-5.433-.83-10.089-.882-11.18 2.63-1.444 4.275-.963 8.55.657 12.824 2.49 3.036 5.856-.268 9.208 3.288-4.068 3.588-2.374 10.055.328 13.482-7.102 7.144-11.435 19.208-1.315 24.169zm289.679-182.66c-1.409 9.351-10.275 8.692-15.712 5.237l-.892 18.157-3.164-10.98c-8.638 19.77-18.944 12.578-23.823-4.095-2.744 4.453-5.713 11.603-8.003 10.608-.671-3.131 2.934-6.782 4.839-12.097-10.743 6.706-18.907 7.49-20.1-3.909-9.964 5.22-19.894 11.1-30.338 6.7-11.014 5.338-21.943 10.702-28.104 17.496 8.586 10.937 25.546 3.784 40.574-7.073-11.617 24.91 9.974 10.275 22.52-.372-.625 23.104 5.93 15.442 18.053 4.28-7.24 11.328-17.306 23.925-23.45 4.281-6.391 4.41-18.966 15.731-25.313 1.117-8.36 8.13-40.266 11.363-36.665-3.722-4.166.277-34.232 6.119-37.41 15.075 2.899 4.36 11.329 3.189 18.984 2.792-20.028 21.24 15.449 18.866 30.71 6.142-9.353 23.875 22.869 9.399 30.71-.745-8.295 23.367 18.868 13.284 26.056-1.489 1.086 27.762 32.401-5.407 34.804-18.053 5.956 18.088 13.215 17.895 17.868-.93 3.027 16.62-7.134 26.832-18.24 10.98-8.622 13.102-28.34 35.4-37.41 16.937-2.649 5.007-27.457 18.267-29.22 1.49-12.46 8.57-28.423 13.678-31.827 0-13.696 8.403-44.364 9.095-32.012-10.796-7.205 1.94-13.177 1.414-15.448-6.514-16.067 8-27.47 19.935-29.035 34.432 9.182 1.859 16.827-3.963 25.126-6.514-4.438 5.345-12.52 9.49-10.236 19.728 13.904.803 24.056-7.15 35.176-12.842-.828 5.274-4.648 10.547-.558 15.82 12.852 3.58 23.273-8.243 34.804-13.028-4.846 8.504-7.549 17.565 0 18.798 14.027.457 22.474-7.56 32.385-16.378-.368 4.51-3.265 9.542 1.117 13.214 9.351.183 15.956-8.017 23.637-13.214-.09 4.887-1.582 10.335.558 14.33 5.214.065 19.973-9.867 19.356-24.009 2.599-7.973 5.666-11.955 10.237-3.164 3.09 5.044 5.508 11.144 11.911 10.981 1.411-8.657-.968-24.47 5.026-25.126 3.218.831 4.317 2.805 6.328 4.653 7.544-6.104 5.974-21.323 6.514-34.432l7.072 3.723c1.386-10.448-2.092-25.85-7.405-27.49zm2.47-20.977c-2.16 21.593 1.265 22.216 15.687 21.126.76-1.034-.24-3.601-.982-3.931-9.895-4.407-1.935-17.403-14.706-17.195zm-19.454-8.472c4.158-.06 3.641 12.394 5.02 12.969l.157-.314c1.645.721 1.913-2.26-.889-13.492 3.905-.236 9.273 4.944 11.714 7.95.3 9.982 1.96 22.359-6.275 27.087-7.334-2.47-17.53-9.226-16.107-23.114 3.098-3.183 4.646-6.812 6.38-11.086zm-9.727 16.943c6.96 8.12 6.067 27.755-4.392 33.886-12.05-5.619-9.862-31.838-3.452-33.781 3.82.74 2.484 9.751 3.033 15.27l1.778.418c.75-5.666-.935-15.078 3.033-15.793zm-21.685-13.805c-10.979 3.643-16.794 23.475-12.016 35.503 15.219-1.544 29.206-22.79 14.602-35.177-1.365 4.682-1.77 8.554-3.097 9.734-.41-2.034.406-4.352.51-10.06zm-46.481 33.733c7.735-5.767 13.083-12.808 17.208-20.354 5.957 2.134 10.665-.686 15.568-1.187-6.754 18.387-19.648 23.712-32.776 21.541zm84.358-116.545c15.964-1.923 33.04 3.608 45.113-18.638-23.109 12.482-52.368-6.383-58.526 6.619 4.976 3.536 11.62 1.547 17.245 4.006-1.67 2.729-3.062 5.284-3.832 8.013zm19.133 16.075c-7.001-1.95-19.293-3.655-18.84 3.175 1.65 5.512 15.302 1.63 18.84-3.175zm-23.286-20.76c2.275 7.466-7.998 8.405-13.548 10.797l9.314.635-3.81 6.775c.773-1.224 2.574 1.04 3.176-.211 7.804-16.224 34.993 4.113 68.8-15.455-11.379 22.281-19.389 25.915-48.902 29.214-5.487 7.507-14.821 6.838-24.768 4.869 4.694 9.953 15.73 5.956 25.827 4.022 10.214 2.981 7.27 19.121 17.358 22.228-7.223 4.168-12.805 1.358-17.782-4.022 4.577 10.889 7.502 23.099 14.607 31.965-20.565 1.535-22.739-13.648-32.177-22.228-2.453 11.227-2.047 22.812-14.184 30.273-8.832-5.637-11.883-14.266-14.607-24.345-8.165 16.63-17.735 24.987-29.848 22.44 5.571-12.22 14.427-20.084 11.643-41.704h3.387c-3.312-7.482-10.699-12.899-11.855-20.746 9.335 3.116 18.385 5.093 23.286-9.526 4.888.108 10.284 1.233 16.3 3.598-5.875-6.967-14.423-11.26-22.439-16.088-6.454-3.316-13.23-2.895-22.44.423-10.75 3.901-24.083 1.074-28.578-11.855-.695-16.063 14.565-19.595 27.732-19.052 23.322 1.692 41.712 15.154 63.508 17.994zm46.784 17.148c-9.539 4.087-24.963 6.5-33.447 11.008-10.139 4.39-13.887 1.991-15.03-3.175-.888-7.218 6.14-9.42 17.358-9.315 9.657 2.166 19.777 3.25 31.12 1.482zm-157.711 37.906c15.678-6.327 33.301-4.825 50.594-3.81-2.31-8.784-45.39-7.848-50.594 3.81zm-94.875 63.953c9.917 5.69 24.027 19.445 34.55 38.132 1.45 2.202-5.29 8.03-7.934 7.166-4.796-4.085-8.617-13.05-12.796-20.218-2.212-.488-3.01.338-2.303 2.56 3.487 6.85 6.05 12.317 10.748 20.985 1.243 2.68-1.775 7.87-7.834 7.634-14.066-16.595-15.95-36.274-14.43-56.259zm42.995-3.838c-1.187 11.677.035 22.428 7.677 30.71-3.32 3.657-6.375 7.391-14.331 9.725-7.26-11.725-2.5-36.004 6.654-40.435zm-23.545-6.654c2.088 7.216 5.599 14.194 11.772 20.73-.093 4.854-2.317 7.577-5.118 9.724-10.322-10.01-13.899-21.88-6.654-30.454zm-37.876 28.663c.193 6.28 10.156 21.514 18.426 22.52-.458-21.38-1.307-22.46-18.426-22.52zm-12.028 28.918c12.936 3.393 25.778 13.08 32.246 21.753 4.855-2.326 6.423-5.474 8.701-8.445-9.261-15.9-28.016-22.173-40.947-13.308zm4.19-99.497c-3.731-4.825-7.582-9.566-6.73-17.54 1.603-2.837 3.307-5.52 6.067-6.62.463-3.921 1.517-7.574 5.185-10.039-5.316-7.08-4.11-13.422 4.192-12.907 3.597 3.52 7.884 3.356 12.356 2.207 4.998 7.078.13 14.096-5.075 19.746-6.353 7.555-10.855 15.392-15.996 25.153zm22.089 69.721c.937-8.573.502-15.075 1.174-19.747 3.817-2.092 7.405 2.777 12.975 2.768-11.245-19.96-31.995-27.493-37.887-50.8-6.467-4.84-9.038-10.865-8.712-20.232-1.929-10.337 1.204-21.18-9.434-30.846-5.124 5.693-8.972 3.694-13.3 3.962-9.58 4.746 1.67 15.907 10.47 15.281-5.401 9.457-2.633 18.627 3.19 28.832-13.773-4.095-28.096-35.09-36.866-33.926-1.457 4.792-3.377 7.616-9.276 8.706-8.406 9.36 6.29 18.574 13.804 15.066 2.124 8.796 14.03 11.427 21.225 18.96-1.873 8.405 1.8 13.278 8.206 16.414-2.704 4.838-4.666 10.327-1.414 20.376-8.05 2.545-15.086 8.011-11.824 14.576 4.742 1.678 6.749 4.375 7.718 9.07 19.368 6.02 15.58-30.754 17.013-47.667 11.483 14.805 20.671 33.614 32.938 49.207zm20.257 85.193c-4.808 3.862-10.823 6.214-16.524 4.721.203 8.768-5.942 17.198 3.035 27.315 5.109.526 9.95-.546 14.164-5.395l4.72 10.79c12.913-3.283 20.991-9.33 27.653-16.186 9.001 10.42 29.81-3.46 37.77-11.803-17.082 5.495-27.019 9.606-34.06-4.384-18.512 15.166-31.026 16.98-36.758-5.058zm-.337-39.455c-10.326 10.174-17.048 23.02-14.838 42.153 7.701-1.038 13.431-5.033 17.536-11.466.393 8.678 2.18 16.798 11.465 21.92 11.808-2.542 20.22-9.047 26.641-17.873.153 6.33 1.25 12.19 6.745 15.85 19.56.058 30.032-11.594 44.682-19.223-15.433 1.29-14.609-5.977-13.32-13.489-17.013 12.859-34.696 11.085-32.374-1.686-22.432 15.961-39.366 7.963-33.048-7.081-11.9 1.378-15.015 4.85-13.49-9.105zM668.582 460.76c20.959.85 33.956-30.026 9.143-26.85 24.13 9.157-6.614 27.162-19.97 8.421-7.529-21.554 19.195-27.376 13.714-51.973-5.747-19.858-27.297-22.244-37.776-1.203-6.348 9.94-2.264 19.923-20.693 36.574-7.918 7.328-15.842 13.891-19.49 26.708-7.443-32.305-27.821-28.615-49.808-20.452 19.737 3.208 40.795 13.39 36.574 48.604-1.222 27.69 12.748 45.497 33.205 58.47 14.858 10.7 41.903 18.894 33.445 46.439-9.406-9.007-22.999-14.463-29.355-2.407 20.184-7.624 29.567 17.61 4.09 18.047-47.23.512-74.997-49.74-80.605-87.584-5.16-37.01-25.554-59.84-49.327-71.463-42.413-17.995-62.646-38.017-79.643-58.951 3.744 9.941 9.094 19.424 8.662 30.558-19.681 1.463-33.75-15.037-50.53-22.858 4.184 9.373 13.345 18.194 12.272 28.152-11.064 4.239-17.921-4.144-26.708-6.738.597 5.552 1.012 11.013-2.166 14.678-11.932 5.129-21.696-9.257-32.483-14.437 1.457 5.294 2.572 10.587.24 15.88-13.483 3.095-18.68-3.939-26.948-7.218-.22 3.145.07 6.375-3.85 8.903-15.203.31-17.528-8.91-25.265-14.918-1.823 3.66-3.749 7.269-4.33 11.55 18.03 15.967 30.676 22.33 84.215 34.407 27.54 9.583 75.134 10.968 57.507 75.554l-8.903 38.017c-4.428 21.575-7.6 22.939 4.09 45.236 6.19 11.21 9.055 21.805-1.924 29.836 13.7.352 26.625-.023 20.211-18.527-3.004-7.137-8.261-15.175-8.421-21.175 2.61-1.401 8.404 16.075 30.077 21.896 11.596 3.02 20.248 9.914 19.73 28.874-.5 8.622.516 16.232 1.925 23.58 7.307 20.821.854 30.174-14.918 31.762-10.546.384-15.007-26.953-36.092-19.73 3.779 7.347 2.554 13.264-2.647 18.046-3.204 7.855 2.11 7.194 7.7 6.256 15.18-5.835 17.772 10.257 44.754 2.646-13.858 18.513-41.534-10.98-52.454 6.738 3.687 3.798 4.696 9.737 2.666 17.346 2.921 4.895 7.728 2.814 11.932-1.265 14.027-12.824 24.541 4.693 42.909-13.194-10.746 26.632-41.611.753-45.236 22.858 7.09 2.577 7.937 8.035 6.737 14.437 8.903 6.485 17.806 4.744 26.709-4.812 5.02-5.149 9.867-10.822 16.121-12.271 17.968-5.581 12.63-20.657 14.677-32.724 4.24 8.842 1.336 30.186 14.678 23.099 1.43-11.038 7.48-12.447 16.602-7.46 9.196-4.063.435-18.407-10.105-19.73-7.796-.73-13.95-8.227-10.347-20.692 8.144-24.8 4.257-55.444 6.737-60.636 12.98 24.97 26.417 27.856 38.499 6.016-28.332 4.506-26.89-13.672-29.355-28.874 9.705 11.235 21.816 19.234 32.724 1.203-13.996 1.53-15.402-7.43-18.287-15.159-7.139-24.924-23.159-20.98-40.424-12.993-19.552 6.233-27.323-8.571-19.008-19.49 13.543-19.861 20.938-32.43 26.972-49.74 6.688-19.184-1.387-49.757 1.902-53.965 24.577 7.783 32.618 42.44 42.348 74.35 10.373 35.001 29.096 76.193 81.81 80.125 32.375 1.36 69.492-27.521 21.173-74.59-27.742-21.398-2.734-41.983 8.662-31.54 3.065-19.674-30.138-19.064-32.001 4.83-12.222-23.212 15.115-39.997 32.001-28.873-5.07-16.452-31.88-13.203-40.904 7.7-8.251-29.554 23.306-34.61 38.498-25.265-9.786-21.047-36.859-8.148-45.476 3.369 2.068-4.918 4.6-12.858 14.375-22.525 13.675-13.285 23.003-25.278 26.332-39.713 3.632-16.12 8.599-23.018 15.54-20.72 11.992 5.423 3.442 17.297-2.59 27.627-15.676 17.795-6.407 44.885 15.88 43.923zM290.736 609.284c-12.904 17.464-5.23 39.833 21.907 27.982-24.85-15.18-11.776-24.899-.433-38.827-1.399 13.725-2.242 27.143 24.077 25.595-8.504-8.975-9.427-17.343-3.47-25.161 15.9-19.896 3.06-29.672-15.835-39.26-6.838-7.31-.61-19.58 9.11-21.909 18.884-4.64 35.757 8.132 66.374 7.375 9.363-20.63-21.509-61.33-32.103-65.723-20.203 7.833-53.041 8.158-72.013 1.518-24.858-13.402-51.731 1.832-58.783 21.04-3.63 13.903-16.412 12.733-24.294 7.809 2.296 22.44 20.63 21.195 32.537 5.64 2.082 6.14-1.968 12.347-2.184 17.02-.413 8.96 2.041 14.783 13.038 20.552 16.624 9.402 10.69 27.104-2.178 36.828-14.561 11.766-22.803 27.746-29.283 44.9-5.552 12.528-24.185 7.692-25.812-1.736-2.295-12.402 4.102-32.627-8.46-35.79-3.389 7.474-8.47 9.874-14.749 8.677-6.566-1.09-7.804 4.134-3.47 7.158 12.265 6.862 10.665 24.247 27.113 33.838-17.549 2.392-22.654-42.252-39.044-30.368 1.642 5.183.633 9.703-6.94 12.581-2.537 1.66-5.946 6.196 1.518 7.375 22.994.436 15.52 19.363 39.387 19.993 2.093.055 1.99 2.458-.498 2.745-9.396-1.117-15.352-2.742-20.752-8.096-4.826-7.633-13.177-15.798-23.56-9.436 1.412 6.62 2.677 13.186-5.64 16.268-5.912 17.937 23.907 11.202 36.007 16.702 26.913.506 24.25 5.03 34.055-9.978 1.072 4.849-2.295 9.698-6.12 14.546-1.817 3.04-4.017 6.966-3.98 10.69.063 6.253 3.968 11.312 8.56 6.106 3.616-10.877 16.46-11.503 20.018-.849 1.486 3.15 5.076 3.4 5.938-.17 1.432-13.393-6.604-14.368-7.634-27.143 30.969-18.987 52.167-35.332 67.596-58.492zm67.675-137.086c15.894 12.404 31.076 29.918 39.044 47.937 8.892-29.822-20.971-47.18-39.044-47.937zm18.024-191.49c9.507-5.661 13.739-13.758 15.253-23.109 6.126-1.234 7.941 12.35 3.928 25.42-3.609 3.174-15.03 1.986-19.18-2.31z" id="path3023" fill="#d62828" fill-rule="evenodd"/></g></g></g></g></svg>