<svg xmlns="http://www.w3.org/2000/svg" width="812.225" height="511.689" xmlns:cgf="https://coding.garden/flags"><metadata id="cgf-metadata">

<cgf:flag>
  <cgf:name></cgf:name>
  <cgf:route>pl/zp</cgf:route>
  <cgf:aspect-ratio>1.5890410958904109</cgf:aspect-ratio>
</cgf:flag>

</metadata><path fill="#d62828" d="M542.018-.001H270.225v511.686h271.793z"></path><path fill="#fff" d="M-.001-.001h270.226v511.686H-.001zm541.994 0H812.22v511.686H541.993z"></path><path d="m501.278 139.294-187.817.17.211 129.264c.062 37.74 38.166 83.405 93.124 83.884 54.959.479 94.332-45.306 94.368-84.38z"></path><path d="m498.63 142.302-182.52.165.205 125.619c.06 36.675 37.089 81.053 90.498 81.518 53.408.466 91.672-44.028 91.706-82l.11-125.302zm-99.352 9.911c4.631.064 10.108 2.231 13.173 3.64 2.523-3.229 7.126-1.048 12.02-1.136 3.603-.065 4.165-2.164 6.634-2.37-1.829 2.035-2.198 5.723-5.883 7.385 2.247 1.562 6.214-3.029 9.888-1.872-3.79 2.343-2.398 4.147-5.497 7.076-2.807 2.653-7.662 2.262-8.15 2.685 2.276 1.872 2.114 5.865 4.888 6.39-1.425 1.902-2.404 1.77-3.886 2.124 1.32 1.26.511 3.03 4.992 6.286-.975.416-2.416.225-3.91.253.476 1.958.801 2.33 3.136 3.751-1.086 1.307-2.197 2.563-4.091 1.983.619 2.521.665 4.758.75 7.013l-2.006-.253c.105 3.785-.606 7.027-3.38 8.892l-.837-1.042c-.3 2.456.094 5.67-3.08 4.991-.124 1.258-.025 2.517-.521 3.775 2.275.145 4.403.765 5.165 2.788l2.211-.466c-.123-3.426.778-6.231 1.271-9.287 2.892-.298 5.039.799 5.868 4.351 2.795-4.625.285-9.045.142-13.67 3.632.449 7.387.987 9.667 6.302 1.347-12.494 1.867-25.727 4.707-36.984 8.046 4.076 5.187 27.414 5.11 33.675 11.519-12.508 14.357-28.398 12.825-45.988 18.02 6.081 6.023 34.58 2.788 42.615 5.563-5.622 11.789-15.867 20.439-14.515 2.164 4.24-11.506 16.307-16.253 24.616 3.228-3.878 15.914-9.757 18.346-3.482.302.986-16.409 14.137-24.617 18.701-.553.424-1.192.832-.813 1.39 8.03-3.904 25.473-1.78 24.269 6.618-12.64-1.476-24.767.317-36.581 4.067-2.79 3.238-8.365 4.882-15.093 5.11v1.974c-6.747.175-10.538-2.093-15.1-3.72 1.02 2.311 9.26 10.107 17.185 13.474 3.798 1.933 13.435 6.454 14.863 19.16 1.223 7.223 5.918 18.553 14.635 21.244 2.167.784 6.706 1.27 7.083-.23-.358-2.11-3.413-.53-5.338-.229.982-4.445 3.405-6.36 8.237-4.067-.032-4.21-6.06-5.85-9.517-8.592-6.117-4.464-8.574-10.152-7.668-16.956.142-7.748-5.627-8.69-10.796-10.33 3.892-2.356 12.168-5.656 15.882 1.058 1.034-1.216 2.054-3.129 4.438-4.739 3.445-2.513 3.089-7.418 5.11-9.564 4.628-6.152 13.773-2.44 11.033 7.55-1.383 2.718-5.33 5.28-2.63 8.246 1.93 1.084 3.693.483 3.862-.324.196-1.242-.82-1.645-2.685-1.62.935-2.029 6.235-2.261 6.673 1.754-.26 6.162-11.95 9.028-14.263-.142-.511-5.478 5.743-10.488 3.736-12.25-2.347-.861-2.641 6.033-4.597 8.949-1.38 2.457-3.1 4.236-4.738 6.176 5.341-.568 7.755 1.737 8.284 6.026-3.117-2.798-8.902-2.59-10.045.45 4.295-3.156 10.247-1.786 10.022 3.664-3.536-2.48-6.677-1.525-7.645.466 3.954-2.539 9.783.354 7.645 6.192-.901-2.105-4.94-2.042-5.118.568-.45 2.895 8.966 6.31 9.146 15.393-.232 11.212-14.612 10.525-20.353 8.474-10.32-4.196-13.783-18.032-15.802-23.867-1.058-5.513-3.144-9.802-6.405-12.699.978 15.168-1.623 15.28-8.056 26.03-.252 1.37 2.494 2.326 5.323.719 4.188-2.176 8.422-1.2 10.07 3.617 1.287 3.861.947 4.286 5.678 4.028-1.468 3.79-3.627 6.55-8.103 5.007.533 5.216 5.202 1.069 8.055 1.035-2.288 4.836-5.103 10.543-11.467 5.678-.125 3.698-.317 7.391-1.39 10.954-.49 1.46-.506 2.762 1.595 3.404 3.25 1.16 6.405 5.523 3.152 7.747.242 5.242-2.16 6.153-4.905 6.508.491-1.655 1.115-3.37.411-4.494-2.408.738-3.118-.211-4.075-.924-.886 2.527-2.965 3.123-4.913 3.925-1.866.633-3.328 6.644-10.582 3.46-4.23-.67-4.7 2.064-6.247 3.822-.343-3.183-1.223-6.75 3.87-8.735-1.131-.534-1.612-1.062-2.22-1.596-2.295-1.277-4.258.313-6.144 2.583-.026-3.757.093-7.416 5.055-7.803l.781-1.082c-.866-.57-.926-1.68-.987-2.787-2.91-.963-3.526 1.735-5.212 2.732-.928-5.025 2.22-7.62 7.02-8 4.066-1.508 6.763.973 9.194 4.233 3.152.483 4.13-1.141 3.15-4.652-.558-2.6-1.145-5.195-1.034-7.795.418-6.187-4.185-5.14-6.863-6.87.79 7.378-7.023 5.444-10.796 5.686 3.59-3.15 6.044-3.31 2.583-8.735-3.714-5.939-.17-11.62.513-17.817-3.874-.01-7.618-.772-11.357-1.595-3.205-.489-6.845-.957-7.179 1.911-.375 2.224 6.586 2.573 6.374 7.59-.015 4.458-2.607 5.381-2.607 7.076-.329 2.012 2.89 3.248 3.515 5.062-3.98-.302-8.573.991-10.748-4.083-2.203 4.227 2.375 4.262 4.39 5.884-4.339 2.445-8.474 4.042-11.048-.98-3.807 3.455-7.81 6.762-12.707 9.399 1.396 3.322 3.44 7.356-.877 8.371-.757 3.577-2.917 4.999-5.734 5.418.417-1.71 1.252-3.277.514-5.37-4.283-.32-3.533-3.156-3.301-5.734-5.47-1.14-16.745 1.155-15.906-6.192-2.947-1.688-3.864.478-5.576 1.137-.446-3.57 3.677-6.926 7.432-5.378l.568-.821c-.516-.775-.235-1.547.056-2.322-1.384-2.558-4.148-1.68-6.563-1.659 1.564-3.71 6.166-5.424 9.5-2.266l1.138-.727c.177-1.012.497-1.92 1.761-2.116-.403-2.892-3.826-1.284-5.939-1.856 1.842-3.812 8.619-4.174 10.686-.158 2.775-.254 4.446 1.973 3.925 9.137-.158 3.17 4.545 2.46 4.549.213 1.506-5.37 4.82-9.16 8.774-12.762 1.435-1.892 1.646-3.612.055-4.54-4.03-1.933-4.878-4.481-4.802-7.646-6.708 1.716-7.517-2.93-7.747-7.692 2.778 1.898 4.9 3.579 6.815-1.343 2.514-4.95 9.29-7.312 16.167-5.165 2.956 1.265 12.71 1.455 15.747.119-1.495-4.227-15.607-1.125-27.846-14.018-1.514 5.384-4.831 2.524-6.05-2.638-4.22 1.095-8.435 1.016-6.444-2.511-2.408.08-3.095-.778-2.914-2.11l-10.046.838c.024 4.066 3.289 11.124-1.208 11.128-1.846 5.28-6.56 5.026-9.549 1.587 2.817.026 5.276-.305 5.3-3.072-1.618-1.308-2.265-2.82-.593-4.833l-.15-2.172c-2.873-.491-4.656-1.623-3.538-4.462l-2.977-2.054c-3.356.148-5.237-.786-4.123-3.933-1.769-1.282-4.233-1.06-6.697-.837 1.109-3.899 5.144-4.54 7.969-3.506 4.494-2.587 3.654 3.621 6.08 3.751-.538-1.431-1.274-2.916-1.026-4.123-2.614-1.457-2.732-3.11-2.416-4.801-1.658-3.037-4.407-2.08-6.698-2.796 2.333-2.68 6.171-3.895 9.517-.837 4.824.295 4.26 7.23 6.05 11.317.022-1.312.87-2.516 1.484-2.883-.429-.646-.802-1.334-.647-2.448-2.693-1.145-3.104-6.067-.316-7.005-.592-3.14-2.552-4.635-4.273-6.42 2.956-.154 6.69.377 8.245 5.394 2.752.224 2.871 3.189 2.812 7.013-.045 2.88-.286 6.42-2.022 8.663 2.242-.01 4.596-.515 6.681-.916-1.872-2.532-.956-3.925 3.04-4.06-1.725-1.152-2.107-4.327-2.732-7.13 2.123 1.055 4.21 2.35 6.571 1.737-.476-3.039-.329-5.244.6-6.382-.854-2.937.283-5.762.798-8.624-2.725-3.087-5.954-4.988-9.335-6.515 1.796-2.058 4.334-1.73 6.855-1.453-1.348-2.09-3.434-3.578-3.593-6.634.997-.559 1.825-.457 2.661-.372l-4.928-7.502c-1.045 3.844.949 10.393-5.733 9.2-4.938 2.606-8.117.015-8.996-3.996 2 .343 4.133 2.493 5.987.774-.522-2.811.908-4.03 3.103-4.62-.408-1.22-.803-2.438 0-3.901-1.219-1.034-2.008-2.359-1.99-4.217-1.24-1.287-3.28-2.368-4.43-3.847-2.858.185-6.352-3.357-4.028-5.394-1.267-3.139-4.053-1.964-6.294-2.33 1.567-4.241 6.153-4.683 9.082-1.144 3.328-.24 4.84 4.152 7.257 6.23l-.094-2.51c-2.46-2.016-4.208-4.027-1.524-6.042-.298-2.023-2.663-3.42-5.671-4.62 3.827-2.057 7.335-1.755 10.172 3.443 2.575 1.084 2.81 4.177 3.19 7.25.837-.554.497-1.722 1.114-2.353-.974-2.561-.653-4.32 2.33-4.407-.33-2.63-2.509-4.126-4.186-5.797 3.144-.612 9.057 1.465 8.553 6.918.696.583 1.04 1.321.995 2.48-.46 3.379-2.983 4.038-6.294 10.567 1.783 3.986 5.567 6.85 8.53 10.172.5-1.118 1.79-2.01 2.819-2.977.458 1.993.879 4.006 2.14 5.678.57-2.13 2.11-2.865 3.996-3.104.392 3.076-.464 6.633 2.259 8.806 8.282-2.82 17.99-3.538 23.037-16.277-4.757-2.742-10.223-2.458-15.645-.877 1.005-2 2.379-3.635 4.383-4.635-2.025-.138-3.78 1.347-5.512 1.943.772-1.67 2.686-3.717 5.789-5.387-3.22-2.708-7.089.497-7.669 5.07-3.507-3.667-4.16-7.84-.371-12.39 2.36-2.802 4.93-5.251 9.264-4.763 1.045-3.846 4.138-5.064 7.74-5.015zm5.047 10.267c1.373 2.957-1.898 3.426-2.306.166-1.206-.03-2.231.011-2.456.963.09.835 3.222 2.998 4.596 2.622.992-.088 2.024-.728 2.14-1.927.066-1.332-.761-1.771-1.974-1.824z" fill="#fff"></path><path d="M382.195 171.214c.041 0 .082 0 0 0zm19.667-8.571c.018 0 .036 0 0 0z" fill="none" stroke="#feed00" stroke-width=".253"></path><path d="M325.817 230.123c.008 0 .017 0 0 0zm-.052 0c.008 0 .017 0 0 0zm30.828-.933c.019 0 .038 0 0 0z" fill="none" stroke="#000" stroke-width=".253"></path><path d="M439.064 333.103c.79-2.164.639-3.823-.737-5.163.022-1.936 1.43-2.622 3.402-1.665 1.212 3.498-.176 6.52-2.665 6.828zm-25.673 4.757c1.13-2.119 3.205-2.847 5.684-2.944.423-1.718-.749-2.99-1.726-3.45-3.126.682-4.867 3.21-3.958 6.394zm-4.415-7.84c-.252-2.434 1.195-5.679 5.278-5.177 1.238 1.582 1.048 3 .507 3.78-2.856-1.081-4.475-.075-5.785 1.396zm-.338-9.278c.305-2.645 2.53-5.002 6.006-4.751 1.422 1.707.519 3.542-.269 4.213-1.958-1.445-3.976-1.103-5.737.538zM348.67 289.24c2.638-.165 5.163-.094 6.166 3.148 1.33.546 2.978-.416 2.81-2.081-2.391-3.687-6.631-3.036-8.976-1.067zm-6.635 6.895c2.714-.552 4.683.025 6.296 2.212 1.804.083 2.495-1.25 2.134-2.732-2.213-2.81-6.685-2.34-8.43.52zm-2.082 9.835c1.209-.907 3.734-2.496 6.089-.442 1.046-.242 1.946-1.227 1.145-3.097-3.733-1.352-7.108 1.05-7.234 3.539zm24.506 16.192c1.289-2.152.813-4.756.036-6.035.819-2.751 3.249-2.01 4.048-.489-.092 4.19-1.674 6.233-4.084 6.524zm-25.303-69.492c2.122-.189 4.022-.48 4.308-3.321.698-.566 2.277-.428 2.88.44-.59 4.588-5.195 4.806-7.187 2.88zm-13.439-22.572c2.096.052 4.12-.673 6.357 1.27 1.475-.443 1.37-1.595.856-2.93-3.348-1.336-6.065.097-7.213 1.66zm4.074-11.053c2.122-.024 4.644.157 5.889 2.517.539.28 2.444-1.082 1.946-2.283-2.573-2.637-6.134-2.06-7.835-.234zm12.038-7.286c3.544-.01 5.99 2.896 6.206 5.644-.38 1.058-2.29.726-2.878.406.223-2.769-1.713-4.292-3.328-6.05zm45.967-35.58c4.933-1.827 9.013-1.757 12.84.481 1.952.841 3.026-2.545 1.498-4.226-5.52-1.992-11.655 1.117-14.338 3.745zm13.798-6.083c-.684-3.417-2.392-6.78-5.417-7.621-2.93-.987-3.75-2.43-4.405-4.067-6.598-.584-13.305 8.409-9.323 13.286 1.242-5.228 7.676-6.438 9.802-2.22 3.15-.567 6.3-.223 9.343.622zm-59.068 20.415c1.364.338 3.705 1.984 5.4.172.837-.242 2.17.799 1.908 1.693-2.219 2.895-7.081.612-7.308-1.865zm-.022-24.646c.714.91-1.242 2.44-1.907 2.1-1.408-2.518-3.077-2.867-5.701-2.615 1.286-3.09 5.983-2.118 7.608.515zm2.08-7.823c3.264-1.514 6.22.912 7.414 3.686.181 1.542-2.347 2.076-2.872.879-.57-2.64-2.448-3.731-4.543-4.565zm15.413 4.723c.677.717 1.969.892 2.833.283.821-4.54-3.57-6.414-5.93-6.33 1.599 1.896 3.616 2.505 3.097 6.047z" fill="#f9d616" fill-rule="evenodd"></path><path d="M389.405 217.368c-3.837 2.31-7.775 4.067-11.974 4.38-4.426 1.625-9.015 2.992-9.717 10.468.906 6.657 5.882 10.33 9.237 15.19 3.368-4.899-.44-8.047-3.557-11.016 3.19 1.214 6.198 1.853 8.484-1.368-.997-2.1-3.955-2.418-6.91-2.737 2.63-.516 5.573-.65 6.636-3.08-1.434-2.5-4.004-2.05-6.295-2.326 2.5-.509 5.291-.139 7.116-2.669-.68-1.252-1.617-1.217-2.463-1.642 1.353-.096 2.45-.484 3.627 1.71-.685 1.8-1.42 2.376-2.464 2.738 2.723 2.081.88 3.656-1.231 5.2 4.985 1.583 5.12 5.528-3.627 6.158 3.56 1.89 4.154 9.232 9.1 9.443 1.26-4.321-1.07-6.455-3.763-8.622 4.174.505 8.374 1.068 10.948-1.984-1.016-2.633-7.309-2.11-7.8-3.148 2.6-.683 5.784-.383 7.663-3.42-1.486-2.583-6.571-2.3-8.142-2.943 4.08-.464 7.894-1.08 8.21-3.695-.14-1.266-2.79-1.55-4.789-1.642 7.877-1.722 7.154 4.018 1.71 5.61 4.87.818 5.508 5.093-1.094 6.022 7.666 1.372 7.155 6.205-3.148 6.706 1.212 3.937 3.512 6.665 7.527 6.363 1.118-3.113-2.467-6.102-1.916-6.706.912-.544 6.373 6.224 9.99 5.885.905-4.26-3.48-6.535-5.269-9.785 3.947-.3 8.723 1.265 11.359-1.984-1.815-3.94-7.372-2.985-11.29-4.174 5.235-.982 11.9-.366 14.3-4.516-2.842-2.54-9.17-1.28-13.821-1.847 3.935-1.183 9.622-.397 10.948-4.516-1.51-2.014-9.155-1.782-13.89-1.642.912-.8 17.245-2.654 15.121 3.558l7.048-1.3-8.348 2.805c2.986 3.059 8.396.71 13.685-1.368 4.18-1.766 8.778-3.407 9.442-6.227-9.867-2.963-11.053 3.713-21.69 2.258 3.667-.477 6.755-1.303 9.51-2.326-1.198-2.977-4.926-2.372-8.21-2.395-12.344-3.344-18.011-.811-21.28 3.832 3.148-1.348 6.259-2.986 9.58-2.943l.89.48c-3.416.67-6.748 1.465-9.443 3.215zm14.083 20.419c1.476 1.742 3.77 4.584 3.96 6.876-6.052-.897-7.665-4.198-9.185-6.986l5.225.11zm7.26-6.326c.503.161.33.332.807.509 6.729 2.5 12.01 5.805 20.096 6.147-.653-6.712-5.02-8.122-10.781-7.536.041 1.076 3.113 1.805 3.795 2.86-3.384-.654-4.891-3.516-13.916-1.98zm-3.505.522c3.585.481 9.046 3.59 10.008 11.271-1.641-.058-3.791-1.564-5.753-2.877-3.25-2.174-6.345-2.569-5.81-3.341 1.164-.31 1.499-1.076 1.975-1.729 1.93.195 3.121 2.609 4.878 2.87-.985-1.576-4.88-2.406-5.298-6.194zm-.608-1.884c8.25.192 30.77-.566 35.124-5.885-1.937-2.087-20.759.103-30.725 1.24-.151.515-.273 1.032-.868 1.548 2.83.633 6.194-.164 9.292-.248.67.268.704.537 0 .805-4.617.44-11.285-.672-12.823 2.54zm23.478 1.61c1.02 1.37 1.911 2.804 2.602 4.337 5.716-.446 11.468-.855 14.124-4.522-3.49-2.32-10.809.645-16.726.186zm18.213-.433c11.457-4.323 23.484-4.931 35.434-4.336-3.624-8.175-21.068-6.72-25.894-2.726-2.825 3.423-6.175 4.75-9.478 6.257l-.062.805zm-20.629-.991c9.082-1.363 16.52-4.588 22.301-10.407 3.428-2.523 8.53-7.906 12.885-7.93-2.32 11.214-12.145 19.457-18.46 17.841 3.682-2.867 6.877-4.923 11.46-9.292-.077-.52-.4-.424-.805-.123-5.69 6.344-12.995 10.674-26.513 10.469l-.868-.558zm9.664-8.61 3.779-.063 7.124-6.442c.826-.413.826-.083 0 .991l-6.443 5.7 1.487 2.105c4.868-3.066 13.866-11.157 14-20.132-5.22 1.683-7.681 5.378-10.407 8.424-8.383 8.405-10.233 8.828-9.54 9.416zm-18.123 1.263c1.377.542 3.69.381 5.807.367 2.805-.495 10.265-3.976 14.489-11.617.447-.658.768-.094.352.502-2.554 5.3-9.053 8.99-10.871 10.748 8.784 1.802 19.691-15.085 18.083-22.788-5.636 3.652-10.757 11.51-16.907 17.275-1.173 1.188-2.354 2.37-4.484 2.793-2.598.906-5.208 1.813-6.469 2.72zm43.089-4.782c1.313.376 21.244-15.295 21.983-16.758-6.347-3.836-20.893 5.564-20.455 10.893.97 1.118 1.848-2.06 9.422-6.413.55-.158.497-.007.234.407-1.876.71-11.279 7.481-11.184 11.87zm-5.078-7.731c.71-7.933 16.979-29.877 24.972-28.717 1.561 3.231-14.775 17.202-19.77 28.716-1.488.44-3.483 1.434-5.34 2.428l11.583-17.688c1.021-1.27.318-1.493-.832-.208-3.607 4.394-7.385 13.304-10.613 15.469zm-9.732-2.221 1.11-7.433c11.63-16.814 14.058-22.46 13.312-45.926 14.087 6.12 2.575 35.904-3.328 47.258l-9.762 6.212c9.183-14.073 9.77-12.7 15.308-28.954-.018-1.496-.456-1.144-.998-.332-4.225 15.03-5.502 14.971-15.642 29.175zm-4.17-41.465c4.01 1.17 3.79 25.896 1.865 32.482-.578 1.977-2.028 2.646-3.055 3.31.203-4.08.801-7.78.76-14.333-1.224 1.943-.47 18.21-4.057 17.72.28-7.555 3.431-36.997 4.488-39.18zm-13.758 30.323c1.268 7.614 2.442 8.193-2.195 15.952.038 1.176.935 1.003 1.806.872 1.069-.518 1.503-2.34 2.243-2.84l-.64 2.245c-.254.469.201 1.736 1.19 1.373 6.78-6.632 6.162-16.556-2.404-17.602zm-7.757 16.684 1.171-7.757c2.938.192 4.5 2.825 3.22 7.464l-4.39.293zm-52.268 26.345c1.912 1.488 4.21 5.82 2.065 7.402-2.834-.464-3.314-5.279-2.065-7.402zm-2.697-4.59c-.855 1.892-1.688 3.645-3.58 5.092-.822.489-1.385 1.25-1.296 2.195 4.97 1.076 9.312-1.977 4.876-7.287zm0-5.966c.262 5.852-1.631 9.743-7.344 9.983-.175-.896 1.077-1.952 1.367-3.16.64-2.655 2.362-5.574 5.977-6.823zm-10.27-.345c.207-.654 2.435-.57 4.306-.517 2.261.065 4.217-.208 4.358.46-1.469 2.662-7.482 2.479-8.664.057zm1.871-6.75c3.4 1.842 8.424-.288 11.44 2.21-2.659 6.974-12.017 2.179-11.44-2.21zm-12.056 16.299c2.388-1.04 6.713-.944 10.4-1.117 3.621-.268 4.817-3.442 4.29-5.347-4.194-.37-9.147 1.9-14.75 1.116-5.928-.823-3.197-12.443-8.226-13.338-.094 1.061-.78 1.706-1.88 2.056-.787 2.032.7 3.321 2.703 4.114-.031 1.155-.117 2.31.764 3.466.005 1.489.798 2.978 2.527 4.466-3.662-.945-6.15-2.542-6.993-5.053-.771-1.52-1.38-.923-1.998-.47.813 1.349.477 2.41-.588 3.29-.725 2.828 1.662 2.176 3.467 2.175.37.654.66 1.362 1.94 1.41.412 1.008 1.556 1.44 1.939 1.586-1.589 2.685-.088 3.676 3.173 3.702.165 3.005-.052 3.132 2.644 4.114-4.356-.223-4.078 1.903-2.233 3.408 1.12-.212 2.187-.185 2.997.999 1.37.058 1.443-1.398.94-3.526.18-2.35-.552-4.7-1.116-7.051zm.239-5.562c4.589-.825 3.812-13.967 2.7-15-1.23-.159-1.885.131-2.119.748-1.373-.21-2.55-.223-2.825.665-.365 1.08-.243 2.16.166 3.24.63.768 1.48-.067 2.327.831-1.028.907-.6 2.542.083 3.408-1.795 1.805-2.89 4.854-.332 6.108zm73.208-46.162c-.356 2.363-2.597 2.196-3.971 1.323l-.226 4.589-.8-2.775c-2.182 4.996-4.787 3.179-6.02-1.035-.693 1.125-1.444 2.932-2.022 2.68-.17-.79.741-1.713 1.223-3.056-2.715 1.694-4.779 1.893-5.08-.988-2.518 1.319-5.028 2.805-7.667 1.693-2.784 1.35-5.546 2.705-7.103 4.422 2.17 2.764 6.456.956 10.254-1.788-2.936 6.295 2.521 2.597 5.692-.094-.158 5.839 1.498 3.903 4.562 1.082-1.83 2.863-4.374 6.046-5.926 1.082-1.615 1.114-4.793 3.975-6.397.282-2.113 2.055-10.177 2.872-9.266-.94-1.053.07-8.652 1.546-9.455 3.81.733 1.101 2.863.805 4.798.705-5.062 5.368 3.904 4.768 7.76 1.552-2.363 6.034 5.78 2.375 7.762-.188-2.096 5.905 4.768 3.357 6.585-.377.274 7.016 8.188-1.366 8.796-4.562 1.505 4.571 3.34 4.522 4.515-.235.765 4.2-1.803 6.78-4.61 2.775-2.178 3.311-7.162 8.946-9.454 4.28-.67 1.266-6.939 4.617-7.384.377-3.15 2.166-7.183 3.456-8.044 0-3.46 2.123-11.211 2.298-8.09-2.729-1.82.49-3.33.358-3.904-1.646-4.06 2.022-6.942 5.038-7.337 8.702 2.32.47 4.252-1.002 6.35-1.646-1.122 1.35-3.165 2.398-2.587 4.985 3.513.203 6.079-1.807 8.89-3.245-.21 1.333-1.175 2.665-.142 3.998 3.248.905 5.882-2.083 8.796-3.293-1.225 2.15-1.908 4.44 0 4.751 3.545.116 5.68-1.91 8.184-4.139-.093 1.14-.825 2.411.283 3.34 2.363.046 4.032-2.027 5.973-3.34-.023 1.235-.4 2.612.141 3.621 1.318.017 5.048-2.493 4.892-6.067.657-2.015 1.432-3.021 2.587-.8.78 1.275 1.392 2.817 3.01 2.775.357-2.187-.244-6.184 1.27-6.35.814.21 1.091.71 1.6 1.176 1.906-1.542 1.51-5.388 1.646-8.701l1.787.94c.35-2.64-.529-6.532-1.871-6.947zm.624-5.302c-.546 5.457.32 5.615 3.964 5.34.192-.262-.06-.91-.248-.994-2.5-1.114-.489-4.398-3.716-4.346zm-4.917-2.14c1.051-.016.92 3.131 1.27 3.277l.039-.08c.415.183.483-.57-.225-3.41.987-.059 2.344 1.25 2.96 2.01.076 2.522.496 5.65-1.585 6.845-1.854-.624-4.43-2.331-4.071-5.841.783-.805 1.174-1.722 1.612-2.802zm-2.458 4.281c1.76 2.052 1.533 7.014-1.11 8.564-3.045-1.42-2.492-8.046-.872-8.537.965.187.628 2.464.766 3.859l.45.105c.19-1.432-.237-3.81.766-3.99zm-5.48-3.489c-2.775.92-4.244 5.933-3.037 8.973 3.846-.39 7.381-5.76 3.69-8.89-.344 1.183-.447 2.161-.782 2.46-.104-.514.102-1.1.129-2.543zm-11.747 8.525c1.955-1.457 3.307-3.237 4.349-5.144 1.505.54 2.695-.173 3.934-.3-1.706 4.647-4.965 5.993-8.283 5.444zm21.32-29.453c4.034-.486 8.35.912 11.4-4.71-5.84 3.154-13.234-1.613-14.79 1.672 1.257.894 2.936.391 4.358 1.013-.422.69-.774 1.335-.969 2.025zm4.835 4.062c-1.77-.492-4.876-.923-4.762.803.417 1.393 3.867.412 4.762-.803zm-5.885-5.246c.575 1.887-2.022 2.124-3.424 2.729l2.354.16-.963 1.712c.195-.31.65.263.802-.053 1.973-4.1 8.844 1.04 17.388-3.906-2.876 5.63-4.9 6.55-12.359 7.383-1.387 1.897-3.745 1.728-6.26 1.23 1.187 2.516 3.976 1.506 6.528 1.017 2.581.753 1.837 4.832 4.386 5.617-1.825 1.054-3.236.344-4.493-1.016 1.156 2.752 1.895 5.838 3.691 8.078-5.197.388-5.747-3.449-8.132-5.617-.62 2.837-.517 5.765-3.584 7.65-2.232-1.424-3.003-3.605-3.692-6.152-2.063 4.203-4.482 6.315-7.543 5.671 1.408-3.088 3.646-5.076 2.942-10.54h.856c-.837-1.89-2.704-3.26-2.996-5.242 2.36.787 4.647 1.287 5.885-2.408 1.236.027 2.6.312 4.12.91-1.485-1.761-3.645-2.846-5.671-4.066-1.631-.838-3.344-.732-5.671.107-2.717.985-6.087.271-7.223-2.996-.175-4.06 3.681-4.953 7.009-4.815 5.894.427 10.541 3.83 16.05 4.547zm11.823 4.334c-2.41 1.032-6.309 1.642-8.453 2.782-2.562 1.109-3.51.503-3.798-.803-.225-1.824 1.552-2.38 4.387-2.354 2.44.547 4.998.821 7.864.375zm-39.857 9.58c3.962-1.6 8.416-1.22 12.786-.964-.584-2.22-11.47-1.983-12.786.963zm-23.977 16.161c2.506 1.438 6.072 4.915 8.732 9.637.366.557-1.337 2.03-2.005 1.811-1.212-1.032-2.178-3.298-3.234-5.11-.56-.123-.76.086-.582.648.881 1.73 1.529 3.112 2.716 5.303.314.677-.449 1.989-1.98 1.93-3.555-4.195-4.03-9.168-3.647-14.219zm10.866-.97c-.3 2.952.009 5.669 1.94 7.762-.839.924-1.611 1.867-3.622 2.457-1.834-2.963-.631-9.099 1.682-10.218zm-5.95-1.681c.527 1.824 1.415 3.587 2.975 5.239-.024 1.227-.586 1.915-1.294 2.457-2.608-2.53-3.512-5.53-1.681-7.696zm-9.572 7.244c.048 1.587 2.566 5.437 4.656 5.691-.116-5.403-.33-5.676-4.656-5.691zm-3.04 7.308c3.269.857 6.514 3.305 8.149 5.497 1.227-.588 1.623-1.383 2.199-2.134-2.34-4.018-7.08-5.603-10.348-3.363zm1.059-25.145c-.943-1.22-1.916-2.418-1.701-4.433.405-.717.836-1.395 1.533-1.673.117-.99.384-1.914 1.31-2.537-1.343-1.79-1.038-3.392 1.06-3.262.909.89 1.992.848 3.123.558 1.263 1.789.032 3.562-1.283 4.99-1.606 1.91-2.743 3.89-4.043 6.357zm5.582 17.62c.237-2.167.127-3.81.297-4.99.964-.53 1.871.701 3.279.699-2.842-5.044-8.086-6.948-9.575-12.838-1.634-1.224-2.284-2.746-2.202-5.113-.487-2.613.305-5.353-2.384-7.796-1.295 1.439-2.267.934-3.361 1.001-2.421 1.2.422 4.02 2.646 3.862-1.365 2.39-.666 4.708.806 7.287-3.48-1.035-7.1-8.868-9.317-8.574-.368 1.211-.853 1.925-2.344 2.2-2.124 2.366 1.59 4.694 3.489 3.808.536 2.223 3.545 2.887 5.364 4.791-.474 2.124.454 3.356 2.073 4.148-.683 1.223-1.179 2.61-.357 5.15-2.034.643-3.813 2.024-2.988 3.683 1.198.425 1.705 1.106 1.95 2.293 4.895 1.521 3.938-7.773 4.3-12.047 2.902 3.742 5.224 8.495 8.324 12.436zm5.12 21.53c-1.216.976-2.736 1.57-4.177 1.193.052 2.216-1.501 4.346.767 6.903 1.292.133 2.515-.138 3.58-1.363l1.193 2.727c3.263-.83 5.305-2.358 6.988-4.091 2.275 2.633 7.534-.874 9.546-2.983-4.317 1.389-6.829 2.428-8.608-1.108-4.678 3.833-7.841 4.291-9.29-1.278zm-.086-9.971c-2.61 2.571-4.308 5.817-3.75 10.653 1.947-.263 3.395-1.272 4.432-2.898.1 2.193.551 4.245 2.898 5.54 2.984-.643 5.11-2.287 6.732-4.517.039 1.6.316 3.08 1.705 4.005 4.943.015 7.59-2.93 11.292-4.858-3.9.326-3.692-1.51-3.366-3.409-4.3 3.25-8.769 2.802-8.182-.426-5.669 4.034-9.948 2.013-8.352-1.79-3.007.35-3.794 1.227-3.409-2.3zm113.054 52.145c5.297.215 8.581-7.588 2.31-6.786 6.099 2.314-1.671 6.865-5.046 2.128-1.903-5.447 4.85-6.918 3.465-13.134-1.452-5.019-6.898-5.622-9.546-.304-1.605 2.512-.573 5.035-5.23 9.243-2.001 1.852-4.004 3.51-4.925 6.75-1.881-8.165-7.031-7.232-12.588-5.17 4.988.811 10.31 3.385 9.243 12.284-.309 6.998 3.222 11.498 8.392 14.777 3.755 2.704 10.59 4.775 8.452 11.736-2.377-2.277-5.812-3.655-7.419-.609 5.101-1.926 7.472 4.45 1.034 4.561-11.936.13-18.953-12.57-20.37-22.134-1.305-9.353-6.459-15.123-12.467-18.06-10.718-4.548-15.832-9.608-20.127-14.898.946 2.512 2.298 4.908 2.189 7.722-4.974.37-8.53-3.8-12.77-5.776 1.057 2.368 3.372 4.598 3.101 7.114-2.796 1.071-4.529-1.047-6.75-1.703.152 1.403.256 2.784-.547 3.71-3.015 1.296-5.483-2.34-8.209-3.649.368 1.338.65 2.676.06 4.013-3.407.783-4.72-.995-6.81-1.824-.055.795.018 1.611-.973 2.25-3.842.079-4.43-2.251-6.385-3.77-.46.925-.947 1.837-1.094 2.92 4.557 4.034 7.753 5.642 21.283 8.694 6.96 2.422 18.988 2.772 14.533 19.095l-2.25 9.607c-1.119 5.453-1.92 5.797 1.034 11.432 1.564 2.833 2.288 5.511-.486 7.54 3.462.09 6.728-.005 5.107-4.682-.759-1.803-2.087-3.835-2.128-5.351.66-.354 2.124 4.063 7.601 5.534 2.931.763 5.118 2.505 4.987 7.297-.127 2.179.13 4.102.486 5.959 1.847 5.262.216 7.625-3.77 8.027-2.665.097-3.793-6.812-9.121-4.986.955 1.856.645 3.352-.67 4.56-.809 1.985.534 1.818 1.947 1.581 3.836-1.474 4.491 2.592 11.31.669-3.502 4.679-10.496-2.775-13.256 1.703.932.96 1.187 2.46.674 4.383.738 1.238 1.953.712 3.015-.32 3.545-3.24 6.202 1.187 10.844-3.334-2.716 6.73-10.516.19-11.432 5.777 1.792.651 2.006 2.03 1.703 3.649 2.25 1.639 4.5 1.199 6.75-1.216 1.268-1.302 2.493-2.735 4.074-3.102 4.54-1.41 3.191-5.22 3.709-8.27 1.071 2.235.337 7.629 3.71 5.838.36-2.79 1.89-3.146 4.195-1.885 2.324-1.027.11-4.652-2.554-4.987-1.97-.184-3.525-2.079-2.615-5.229 2.058-6.267 1.076-14.012 1.703-15.324 3.28 6.31 6.676 7.04 9.73 1.52-7.16 1.14-6.796-3.455-7.42-7.297 2.453 2.84 5.514 4.861 8.27.304-3.536.387-3.892-1.877-4.62-3.83-1.805-6.3-5.854-5.303-10.217-3.284-4.94 1.575-6.905-2.166-4.803-4.926 3.422-5.019 5.291-8.195 6.816-12.57 1.69-4.848-.35-12.575.48-13.638 6.212 1.967 8.244 10.725 10.703 18.79 2.621 8.845 7.353 19.255 20.675 20.249 8.182.344 17.562-6.955 5.35-18.85-7.01-5.408-.69-10.61 2.19-7.971.775-4.972-7.617-4.818-8.087 1.22-3.09-5.866 3.82-10.108 8.087-7.297-1.281-4.157-8.057-3.336-10.337 1.946-2.086-7.468 5.89-8.746 9.729-6.385-2.473-5.319-9.315-2.059-11.493.852.523-1.243 1.163-3.25 3.633-5.693 3.456-3.357 5.813-6.388 6.655-10.036.918-4.074 2.173-5.817 3.927-5.236 3.03 1.37.87 4.37-.655 6.982-3.961 4.497-1.619 11.343 4.014 11.1zm-95.49 37.535c-3.261 4.413-1.322 10.067 5.536 7.072-6.28-3.837-2.976-6.293-.109-9.813-.353 3.469-.567 6.86 6.085 6.469-2.15-2.269-2.383-4.383-.877-6.36 4.018-5.027.773-7.498-4.002-9.92-1.728-1.848-.154-4.95 2.302-5.538 4.773-1.172 9.037 2.055 16.774 1.864 2.367-5.214-5.435-15.5-8.113-16.61-5.105 1.98-13.404 2.062-18.199.384-6.282-3.387-13.073.463-14.856 5.317-.917 3.514-4.147 3.218-6.14 1.974.581 5.67 5.214 5.356 8.224 1.425.526 1.552-.498 3.12-.552 4.301-.105 2.265.515 3.736 3.295 5.194 4.2 2.376 2.701 6.85-.55 9.308-3.68 2.973-5.764 7.012-7.401 11.347-1.403 3.166-6.112 1.944-6.523-.439-.58-3.134 1.036-8.245-2.138-9.045-.857 1.889-2.141 2.496-3.728 2.193-1.66-.275-1.972 1.045-.877 1.809 3.1 1.734 2.695 6.128 6.852 8.552-4.435.604-5.725-10.678-9.867-7.675.415 1.31.16 2.452-1.754 3.18-.641.419-1.503 1.565.384 1.863 5.81.11 3.922 4.894 9.954 5.053.529.014.503.621-.126.694-2.375-.283-3.88-.693-5.245-2.046-1.22-1.93-3.33-3.993-5.954-2.385.357 1.673.677 3.332-1.425 4.111-1.494 4.533 6.042 2.831 9.1 4.221 6.801.128 6.128 1.271 8.606-2.522.27 1.226-.58 2.451-1.547 3.677-.459.768-1.015 1.76-1.005 2.701.015 1.58 1.002 2.859 2.163 1.543.914-2.749 4.16-2.907 5.059-.214.375.796 1.283.859 1.5-.043.362-3.385-1.669-3.631-1.929-6.86 7.827-4.798 13.184-8.929 17.083-14.782zm17.103-34.645c4.017 3.135 7.854 7.561 9.867 12.115 2.247-7.537-5.3-11.923-9.867-12.115zm4.555-48.393c2.403-1.43 3.472-3.477 3.855-5.84 1.548-.312 2.007 3.12.993 6.424-.913.802-3.799.502-4.848-.584z" fill="#d62828" fill-rule="evenodd"></path></svg>