<svg xmlns="http://www.w3.org/2000/svg" width="360" height="219" version="1"><defs><clipPath id="d"><path d="M14.046 5.173c.001.568.013-.272.016.297.018.51.41.976.91 1.084.462.113.978-.09 1.24-.489.155-.223.214-.498.2-.766l-.013-.126h-2.352z" fill="#00247d"/></clipPath><clipPath id="c"><path d="M14.046 5.173c.001.568.013-.272.016.297.018.51.41.976.91 1.084.462.113.978-.09 1.24-.489.155-.223.214-.498.2-.766l-.013-.126h-2.352z" fill="#00247d"/></clipPath><clipPath id="b"><path d="M14.046 5.173c.001.568.013-.272.016.297.018.51.41.976.91 1.084.462.113.978-.09 1.24-.489.155-.223.214-.498.2-.766l-.013-.126h-2.352z" fill="#00247d"/></clipPath><clipPath id="a"><path d="M-14.05-5.162c-.002-.57-.012.271-.016-.298a1.181 1.181 0 0 0-.91-1.083 1.181 1.181 0 0 0-1.24.49 1.228 1.228 0 0 0-.2.766l.013.126 2.353-.001z" fill="#00247d"/></clipPath></defs><path d="M-.459-.483h364.582v228.966H-.459z" fill="#c00"/><path d="M264.825 187.847c-7.765-5.439.045-18.55 14.907-25.025 5.31-2.313 6.554-3.348 7.946-6.607l1.65-3.864-3.288 3.486c-2.57 2.725-4.073 3.487-6.881 3.487-4.407 0-7.67-3.121-7.67-7.334v-2.956l-5.441 5.145c-5.752 5.44-10.036 6.685-12.555 3.65-1.274-1.534-1.62-8.7-.509-10.5.342-.553.417-1.005.167-1.005-.25 0-1.907 2.263-3.682 5.03-3.8 5.921-6.413 7.97-10.168 7.97-4.758 0-6.295-6.43-3.296-13.782 1.474-3.614 1.375-3.56-3.521 1.961-3.232 3.643-6.374 6.113-8.767 6.889-2.05.665-4.923 2.047-6.383 3.07-1.53 1.073-4.373 1.862-6.711 1.862-4.794 0-7.786-2.624-8.73-7.653l-.62-3.303-5.18 5.478c-5.812 6.147-9.758 7.176-13.15 3.428-2.684-2.966-2.297-7.513 1.47-17.256 3.477-8.994 3.502-11.694.106-11.694-1.165 0-2.03-.659-2.03-1.546 0-1.224.726-1.409 3.503-.888 4.728.887 7.616-1.16 10.88-7.71 4.106-8.24 3.104-19.132-1.595-17.329-3.178 1.22-8.673 11.056-12.834 22.973-9.59 27.462-16.758 35-33.287 35-7.582 0-7.925-.105-10.75-3.266-3.613-4.043-3.96-9.64-.845-13.6 3.657-4.649 9.927-3.106 9.927 2.443 0 2.89-1.396 4.499-4.393 5.065-1.04.197-2.39 1.173-3 2.17-1.682 2.755 2.424 5.688 7.962 5.688 6.504 0 11.071-4.845 17.51-18.574 2.818-6.01 6.23-13.275 7.581-16.146 3.5-7.435 10.694-16.853 15.312-20.047 2.174-1.503 3.97-3.013 3.99-3.356.083-1.36-8.383-1.85-14.735-.85-8.039 1.264-17.37 5.406-22.7 10.075-8.962 7.852-12.29 18.04-7.021 21.494 2.124 1.391 2.968 1.45 5.54.385 6.115-2.533 13.954-15.184 13.954-22.519 0-1.354.45-2.462 1-2.462.569 0 1 2.934 1 6.803 0 11.916-6.316 20.625-15.89 21.909-3.505.47-4.4.152-7.062-2.51-2.41-2.41-3.048-3.91-3.048-7.165 0-16.349 25.97-31.865 47.034-28.1 3.648.651 7.783.896 9.19.543 1.454-.365 2.846-.176 3.226.439.37.598-.028 1.08-.89 1.08-2.174 0-2.022.339 1.94 4.3 2.93 2.93 3.5 4.21 3.496 7.85-.005 5.483-2.704 10.01-7.94 13.315-2.209 1.395-4.22 2.536-4.47 2.536-.251 0-1.67.461-3.153 1.025-2.494.948-2.578 1.157-1.113 2.776 2.531 2.797 3.007 9.015 1.264 16.51-.871 3.747-1.584 7.305-1.584 7.906 0 1.774 3.783-2.11 11.65-11.963 8.171-10.236 13.204-14.157 19.203-14.961 3.362-.451 4.403-.128 6.571 2.04 3.663 3.663 3.502 9.365-.465 16.393-2.341 4.148-2.628 5.166-1.25 4.422 2.353-1.268 5.435-4.71 8.639-9.648 5.245-8.085 9.846-12.202 14.402-12.886 2.65-.398 4.25-.252 4.25.387 0 .563-2.7 6.712-6 13.662-3.3 6.95-6 12.795-6 12.987 0 .192.563.343 1.25.335 1.648-.02 8.63-9.572 13.975-19.123l4.275-7.637 5-.503c2.75-.277 5.14-.374 5.313-.217.171.158-2.49 6.41-5.913 13.895-3.424 7.484-5.916 13.917-5.54 14.294 1.106 1.105 10.47-8.743 13.628-14.333 4.145-7.335 13.492-14.361 19.107-14.361 1.1 0 3.05 1.132 4.332 2.515 2.242 2.42 2.352 2.44 2.859.5.352-1.346 1.361-2.015 3.039-2.015 1.381 0 3.223-.273 4.093-.607 2.472-.949 1.951 1.092-3.062 12.001-7.168 15.598-7.785 17.19-6.205 15.996 8.168-6.172 10.553-8.554 13.953-13.937 7.86-12.446 21.075-18.373 23.973-10.752.553 1.456.732 3.893.397 5.417-.788 3.587-7.144 9.301-12.093 10.871-4.65 1.475-6.38 3.43-6.38 7.202 0 6.778 8.83 1.839 23.367-13.071 5.428-5.566 10.361-10.12 10.963-10.12.602 0-1.137 2.362-3.863 5.25a6905.646 6905.646 0 0 0-10.462 11.113c-8.584 9.14-12.462 11.637-18.083 11.637-4.01 0-5.122-.438-6.92-2.724-1.178-1.498-2.394-3.982-2.702-5.52l-.56-2.797-3.426 3.529c-1.885 1.94-5.09 4.377-7.123 5.414-3.045 1.553-4.542 3.557-8.506 11.384-7.292 14.401-13.513 20.714-20.414 20.714-1.555 0-3.776-.665-4.935-1.477zm11.082-6.917c3.96-6.301 8.846-16.675 8.171-17.35-.565-.565-8.037 3.789-11.115 6.476-6.627 5.785-9.598 13.98-5.833 16.087 2.858 1.6 5.47.049 8.777-5.213zm-60.641-25.163c1.222-.856 2.222-2.44 2.222-3.521 0-1.098 1.048-2.443 2.374-3.047 2.233-1.017 5.553-6.478 7.113-11.697 1.043-3.492-.207-7.178-2.433-7.178-5.458 0-17.005 22.715-13.387 26.333.98.98 1.646.836 4.11-.89zm70.315-2.42c4.81-5.057 10.907-15.901 10.907-19.4 0-4.558-2.89-4.505-7 .127-3.717 4.188-12 19.255-12 21.827 0 2.766 4.333 1.399 8.093-2.555zm38.917-9.273c5.392-3.67 8.87-9.778 7.137-12.534-.444-.706-1.537-1.004-2.43-.661-2.842 1.09-11.058 15.445-8.84 15.445.455 0 2.315-1.013 4.133-2.25zM50.516 81.17c-3.158-1.209-3.994-2.575-4.013-6.562-.016-3.536 5.039-10.284 7.705-10.284.996 0 .257 1.39-2.163 4.069-3.982 4.407-4.496 8.328-1.352 10.296 5.2 3.256 15.912-18.187 12.565-25.152-.947-1.972-2.032-2.652-4.27-2.678-1.984-.024-3-.543-3-1.535 0-1.053.848-1.41 2.845-1.198 4.121.439 7.481-2.232 10.227-8.129 2.434-5.23 3.197-12.912 1.54-15.527-2.518-3.973-9.281 5.677-14.514 20.711-4.538 13.037-8.809 21.331-13.736 26.677-9.403 10.2-24.649 12.261-31.396 4.243-2.287-2.718-2.605-3.847-2.172-7.692.848-7.52 7.8-10.924 11.325-5.544 1.333 2.034 1.442 3.03.544 5-.616 1.352-1.944 2.459-2.95 2.459-1.007 0-2.649.598-3.648 1.329-1.5 1.096-1.617 1.706-.668 3.477 2.406 4.496 12 4.511 16.787.027 1.37-1.283 6.38-10.135 11.135-19.67 9.325-18.7 16.511-28.746 22.915-32.031l3.726-1.911-3.98-1.105c-5.43-1.508-9.986-1.396-16.938.415-12.813 3.337-24.143 12.068-26.69 20.568-.956 3.192-.871 4.223.526 6.355 2.247 3.428 6.04 3.3 11.875-.4 4.899-3.106 10.72-11.643 10.738-15.745.005-1.205.524-2.51 1.154-2.899.835-.516 1.01 1.172.648 6.239-.597 8.342-4.068 14.43-9.933 17.422-7.753 3.956-16.033.851-17.418-6.53-2.683-14.3 26.008-32.182 44.135-27.508 2.708.699 7.06 1.233 9.673 1.188 2.613-.045 4.75.336 4.75.848s-.675.93-1.5.93c-2.045 0-1.9.509.96 3.37 6.86 6.86 3.066 17.831-7.982 23.074l-3.829 1.817 2.588 1.356c3.323 1.74 6.262 9.14 5.38 13.546-2.134 10.673-13.78 19.672-21.589 16.684zm45.093-.474c-1.344-.942-2.12-2.563-2.12-4.429v-2.943l-4 4c-3.144 3.143-4.75 4-7.5 4-5.165 0-7.5-2.816-7.5-9.04 0-6.27 2.507-11.38 8.037-16.376 7.21-6.514 13.397-8.15 17.043-4.504 1.798 1.8 2.239 1.882 3.25.612.643-.808 2.896-1.772 5.006-2.143 4.6-.806 4.728-1.63-2.46 15.859-2.691 6.55-4.616 12.175-4.277 12.5.779.748 13.38-12.99 13.391-14.6.005-.656 2.147-3.65 4.76-6.655 2.712-3.12 7.692-11.264 11.61-18.99 6.81-13.424 6.892-13.53 10.818-14.194 2.176-.367 4.17-.454 4.431-.192.262.261-.668 2.977-2.067 6.035-1.399 3.058-2.543 5.813-2.543 6.124 0 .31 1.163.564 2.583.564 3.908 0 2.394 2.445-1.733 2.8-3.454.296-3.575.468-10.422 14.896-7.711 16.248-10.693 24.022-9.496 24.762 1.027.634 11.741-10.578 15.817-16.553 8.373-12.276 20.882-16.72 25.02-8.889 1.83 3.46.759 10.588-2.28 15.179-1.369 2.069-2.489 4.092-2.489 4.496 0 1.53 10.204-9.329 11.455-12.191 1.544-3.533 9.28-11.5 11.166-11.5 1.973 0 3.375 3.358 3.417 8.184l.037 4.316 3.213-3.725c3.723-4.317 9.518-8.775 11.406-8.775 2.715 0 5.306 3.922 5.306 8.032 0 4.79-1.752 9.293-6.04 15.527-1.734 2.52-2.949 4.785-2.7 5.034 1.189 1.188 4.368-1.618 13.207-11.657 8.54-9.7 13.533-14.262 13.533-12.364 0 .354-2.2 2.958-4.89 5.786-2.69 2.828-7.167 7.908-9.95 11.288-6.314 7.669-10.302 10.585-13.908 10.17-2.161-.248-3.005-1.09-3.93-3.923-1.62-4.964-.387-9.546 4.561-16.956 4.796-7.182 5.058-8.323 1.546-6.723-2.749 1.252-12.103 13.084-17.57 22.223l-3.326 5.563h-5.267c-2.896 0-5.266-.27-5.266-.6 0-.33 2.532-5.073 5.628-10.54 3.095-5.466 5.418-10.148 5.162-10.403-.255-.256-3.445 3.096-7.089 7.449-4.829 5.769-7.644 8.25-10.388 9.156-2.07.683-5.126 2.072-6.789 3.086-3.695 2.254-9.311 2.39-12.298.297-1.375-.963-2.461-3.065-2.855-5.526l-.635-3.972-5.86 5.59c-5 4.768-6.338 5.544-9.1 5.277-5.344-.518-6.073-6.068-2.145-16.314.422-1.1-1.96 1.15-5.291 5-9.874 11.408-13.334 13.593-17.219 10.872zm-4.83-8.093c7.905-10.779 10.683-19.293 6.551-20.076-2.27-.43-6.079 3.88-11.307 12.797-4.597 7.84-6.17 12.163-5.072 13.94 1.121 1.814 6.076-1.543 9.828-6.66zm58.445 5.193c1.199-.84 1.94-2.152 1.648-2.915-.31-.807.793-2.363 2.64-3.722 6.774-4.988 10.43-18.835 4.971-18.835-2.186 0-7.242 5.604-10.087 11.18-6.222 12.197-5.83 18.956.828 14.292z" fill="#fff"/><path d="M28.37 89.153c.038 22.755-.075 43.907.062 66.66.725 20.421 16.393 39.063 36.375 43.376 18.485 4.498 39.16-3.62 49.593-19.563 6.25-8.916 8.578-19.915 8.063-30.656V89.153z" fill="#005"/><path transform="rotate(-179.959 -267.057 -30.817) scale(40)" clip-path="url(#a)" fill="#005" d="M-16.431-6.572h2.357v1.374h-2.357z"/><path transform="matrix(40 0 0 40 -534.091 -61.827)" d="M16.427 6.584l-2.371-1.38m.014 1.378l2.358-1.372" clip-path="url(#b)" stroke="#fff" stroke-width=".279"/><path transform="matrix(40 0 0 40 -534.091 -61.827)" d="M15.248 6.583l.001-1.474m1.178.788l-2.357-.002" clip-path="url(#c)" stroke="#fff" stroke-width=".465"/><path transform="matrix(40 0 0 40 -534.091 -61.827)" d="M15.248 6.583l.001-1.474m1.178.788l-2.357-.002" clip-path="url(#d)" stroke="#c00" stroke-width=".279"/><g fill="#fff" stroke="#005" stroke-width="1.402"><path d="M-550.784 716.488h43.714c-1.693 9.984-.81 77.134 0 91.067h-43.714c1.694-15.25 2.578-75.159 0-91.067z" transform="matrix(.19984 0 0 .15749 211.848 -10.535)"/><path d="M-534.914 701.533v9.188h-8.093v-8.25h-10.5v8.25h-.063v6.75h49.281l-.174-15.938h-11.044v9.188h-8.875v-9.188h-10.532z" transform="matrix(.19984 0 0 .15749 211.848 -10.535)"/><path d="M-308.425 772.462s.31-17.621-.322-32.107c-.658-15.273 8.938-18.94 16.995-18.73 8.056.21 16.005 2.632 15.92 19.083-.08 15.358-.683 31.784-.683 31.784l-31.91-.03z" fill="#005" fill-rule="evenodd" stroke-linecap="round" stroke-linejoin="bevel" transform="matrix(.07286 0 0 .06246 127.235 59.376)" stroke-width="3.686"/><path d="M-552.92 718.174l48.517-.228s-2.066 4.403-2.812 4.401l-41.905-.113c-.92-.003-3.8-4.06-3.8-4.06z" transform="matrix(.19984 0 0 .15749 211.848 -10.535)"/><path transform="matrix(.19984 0 0 .15749 200.512 6.58)" d="M-493.026 670.422l42.387-1.116M-483.36 670.422v17.103M-460.678 669.306v18.963"/></g><g fill="#fff" stroke="#005" stroke-width="1.402"><path d="M-550.784 716.488h43.714c-1.693 9.984-.81 77.134 0 91.067h-43.714c1.694-15.25 2.578-75.159 0-91.067z" transform="matrix(.19984 0 0 .15749 201.817 -14.165)"/><path d="M-534.914 701.533v9.188h-8.093v-8.25h-10.5v8.25h-.063v6.75h49.281l-.174-15.938h-11.044v9.188h-8.875v-9.188h-10.532z" transform="matrix(.19984 0 0 .15749 201.817 -14.165)"/><path d="M-308.425 772.462s.31-17.621-.322-32.107c-.658-15.273 8.938-18.94 16.995-18.73 8.056.21 16.005 2.632 15.92 19.083-.08 15.358-.683 31.784-.683 31.784l-31.91-.03z" fill="#005" fill-rule="evenodd" stroke-linecap="round" stroke-linejoin="bevel" transform="matrix(.07286 0 0 .06246 117.204 55.746)" stroke-width="3.686"/><path d="M-552.92 718.174l48.517-.228s-2.066 4.403-2.812 4.401l-41.905-.113c-.92-.003-3.8-4.06-3.8-4.06z" transform="matrix(.19984 0 0 .15749 201.817 -14.165)"/></g><g fill="#fff" stroke="#005" stroke-width="1.402"><path d="M-550.784 716.488h43.714c-1.693 9.984-.81 77.134 0 91.067h-43.714c1.694-15.25 2.578-75.159 0-91.067z" transform="matrix(.19984 0 0 .15749 191.101 -10.708)"/><path d="M-534.914 701.533v9.188h-8.093v-8.25h-10.5v8.25h-.063v6.75h49.281l-.174-15.938h-11.044v9.188h-8.875v-9.188h-10.532z" transform="matrix(.19984 0 0 .15749 191.101 -10.708)"/><path d="M-308.425 772.462s.31-17.621-.322-32.107c-.658-15.273 8.938-18.94 16.995-18.73 8.056.21 16.005 2.632 15.92 19.083-.08 15.358-.683 31.784-.683 31.784l-31.91-.03z" fill="#005" fill-rule="evenodd" stroke-linecap="round" stroke-linejoin="bevel" transform="matrix(.07286 0 0 .06246 106.488 59.203)" stroke-width="3.686"/><path d="M-552.92 718.174l48.517-.228s-2.066 4.403-2.812 4.401l-41.905-.113c-.92-.003-3.8-4.06-3.8-4.06z" transform="matrix(.19984 0 0 .15749 191.101 -10.708)"/></g><path d="M79.875 113.07h32.907c-1.275 2.306-.61 17.816 0 21.034H79.875c1.275-3.522 1.94-17.36 0-21.034z" fill="#fff" stroke="#005" stroke-width=".249"/><path d="M109.084 109.715v2.347H83.56v-2.106h-3.972v2.421h.019v1.319h33.398v-1.56h.05v-2.421h-3.971z" fill="#fff" stroke="#005" stroke-width=".249"/><path d="M-308.425 772.462s.31-17.621-.322-32.107c-.658-15.273 8.938-18.94 16.995-18.73 8.056.21 16.005 2.632 15.92 19.083-.08 15.358-.683 31.784-.683 31.784l-31.91-.03z" fill="#005" fill-rule="evenodd" stroke-linecap="round" stroke-linejoin="bevel" transform="matrix(.07286 0 0 .06246 130.552 73.115)" stroke="#005" stroke-width="3.686"/><path d="M-308.425 772.462s.31-17.621-.322-32.107c-.658-15.273 8.938-18.94 16.995-18.73 8.056.21 16.005 2.632 15.92 19.083-.08 15.358-.683 31.784-.683 31.784l-31.91-.03z" fill="#005" fill-rule="evenodd" stroke-linecap="round" stroke-linejoin="bevel" transform="matrix(.07286 0 0 .06246 105.227 73.198)" stroke="#005" stroke-width="3.686"/><path d="M79.609 113.763h33.31s-.53.896-.648.896H80.42c-.144 0-.811-.896-.811-.896z" fill="#fff" stroke="#005" stroke-width=".249"/><g fill="#fff" stroke="#005" stroke-width="1.402"><path d="M-525.251 782.987h104.037c-4.03 15.95-1.928 123.233 0 145.493H-525.25c4.031-24.363 6.134-120.078 0-145.493z" transform="matrix(.19984 0 0 .15749 191.101 -10.708)"/><path d="M-498 674.594v14.812h-14.031v-13.281h-18.282V700h118v-25.406h-18.28v14.812h-15.438v-14.812h-18.25v14.812h-15.469v-14.812H-498z" transform="matrix(.19984 0 0 .15749 190.481 2.95)"/><path d="M-503.424 804.37v15.248M-445.583 803.844c0 2.103 1.051 16.3 1.051 16.3" transform="matrix(.19984 0 0 .15749 191.101 -10.708)"/><path d="M-308.425 772.462s.31-17.621-.322-32.107c-.658-15.273 8.938-18.94 16.995-18.73 8.056.21 16.005 2.632 15.92 19.083-.08 15.358-.683 31.784-.683 31.784l-31.91-.03z" fill="#005" fill-rule="evenodd" stroke-linecap="round" stroke-linejoin="bevel" transform="matrix(.07286 0 0 .06246 111.742 70.465)" stroke-width="3.686"/><path d="M-308.425 772.462s.31-17.621-.322-32.107c-.658-15.273 8.938-18.94 16.995-18.73 8.056.21 16.005 2.632 15.92 19.083-.08 15.358-.683 31.784-.683 31.784l-31.91-.03z" fill="#005" fill-rule="evenodd" stroke-linecap="round" stroke-linejoin="bevel" transform="matrix(.07286 0 0 .06246 123.511 70.465)" stroke-width="3.686"/><path d="M156.122 944.635s.309-14.918-.322-27.181c-.658-12.93 8.938-16.034 16.994-15.856 8.057.178 16.006 2.228 15.92 16.155-.08 13.002-.682 26.907-.682 26.907l-31.91-.025z" fill="#005" fill-rule="evenodd" stroke-linecap="round" stroke-linejoin="bevel" transform="matrix(.19984 0 0 .18603 61.85 -41.99)" stroke-width="1.29"/></g><rect width="34.049" height="2.05" x="79.001" y="133.66" rx="0" ry="0" fill="#fff" stroke="#005" stroke-width=".249"/><path d="M84.536 113.211l6.342-.01 17.162-.031s-1 .8-1.362.8l-20.302-.02c-.445 0-1.84-.739-1.84-.739z" fill="#fff" stroke="#005" stroke-width=".249"/><g fill="#fff" stroke="#005"><g transform="translate(56.568 178.514) scale(.1163)" stroke-width="5.111" fill-rule="evenodd"><path d="M-48.097-730.047C-18.635-698.2-1.31-680.639 1.716-631.226c2.8 45.728-27.63 83.959-34.188 128.188-1.244 8.39-2.311 25.513-1.187 32.458.832 5.143 3.392 20.855 6.187 1.414.575-3.999.987-24.06 2.75-34.247 3.212-18.561 13.498-51.199 31.344-69.281 17.838-18.075 46.104-29.799 71.312-20.344 22.84 10.538 25 40.3 18.5 62.062-8.138 27.256-39.24 46.12-67.125 47.97 5.526-10.927 18.75-42.114 4.407-40.876-16.603 1.433-36.463 29.681-41.633 49.06-1.947 7.297-1.16 18.627-11.586 18.159 6.875 23.228 26.28 38.598 43.281 54.812-17.722 1.474-35.255-6.867-50.719-14.812.654 15.925-2.437 49.567-21.156 67.937-17.375-18.916-18.956-41.986-19.281-67.937-15.463 7.945-32.996 16.286-50.719 14.812 17.001-16.214 36.407-31.584 43.281-54.812-10.425.468-11.052-10.155-13-17.453-5.17-19.377-23.616-48.333-40.218-49.766-14.344-1.238-1.12 29.949 4.406 40.875-27.884-1.848-58.986-20.713-67.125-47.969-6.499-21.762-4.34-51.524 18.5-62.062 25.208-9.455 53.474 2.27 71.312 20.344 17.846 18.082 28.132 50.72 31.344 69.281 1.763 10.187 1.468 28.834 2.043 32.833 2.796 19.441 6.062 5.143 6.895 0 1.124-6.945.056-24.069-1.188-32.458-6.559-44.23-34.109-84.015-34.187-128.188-.07-39.886 19.983-70.234 47.937-98.82z"/><rect transform="scale(-1 1)" ry="7.012" y="-474.154" x="-20.841" height="22" width="136" rx="7.012" stroke-linejoin="round"/></g></g><path d="M28.37 88.725c.038 22.755-.075 45.559.062 68.312.725 20.42 16.393 39.063 36.375 43.375 18.485 4.499 39.16-3.62 49.593-19.562 6.25-8.916 8.578-19.916 8.063-30.656v-61.47H28.369z" fill="none" stroke="#005" stroke-width="3" stroke-miterlimit="3.7"/></svg>