<svg xmlns="http://www.w3.org/2000/svg" xmlns:xlink="http://www.w3.org/1999/xlink" viewBox="-135 -90 630 420" xmlns:cgf="https://coding.garden/flags"><metadata id="cgf-metadata">

<cgf:flag>
  <cgf:name></cgf:name>
  <cgf:route>ge/aj</cgf:route>
  <cgf:aspect-ratio>1.5</cgf:aspect-ratio>
</cgf:flag>

</metadata><defs><g id="c"><clipPath id="a"><path d="M-109 104a104 104 0 0 0 0-208h218a104 104 0 0 0 0 208z"></path></clipPath><path id="b" d="M-55 74a55 55 0 0 1 110 0V-74a55 55 0 0 1-110 0z" clip-path="url(#a)"></path><use xlink:href="#b" transform="rotate(90)"></use></g></defs><path fill="#00f" d="M-135-90h630v420h-630z"></path><g fill="#fff"><path d="M0-30h630v60H0zM-135 90h630v60h-630zm0 120h630v60h-630z"></path><path d="M-135-90h270V92h-270z"></path></g><g fill="red" transform="scale(.9)"><path d="M-20-100h40v200h-40z"></path><path d="M-150-20h300v40h-300z"></path><use xlink:href="#c" transform="translate(-85 -60)"></use><use xlink:href="#c" transform="translate(85 -60)"></use><use xlink:href="#c" transform="translate(-85 60)"></use><use xlink:href="#c" transform="translate(85 60)"></use></g></svg>