<svg xmlns="http://www.w3.org/2000/svg" xmlns:xlink="http://www.w3.org/1999/xlink" width="1200" height="600" viewBox="0 0 200 100"><defs><linearGradient id="c"><stop style="stop-color:#ffcf60;stop-opacity:1" offset="0"/><stop style="stop-color:#d49c70;stop-opacity:1" offset=".641"/><stop style="stop-color:#ba7522;stop-opacity:1" offset="1"/></linearGradient><linearGradient id="b"><stop style="stop-color:#fad083;stop-opacity:1" offset="0"/><stop style="stop-color:#d08117;stop-opacity:1" offset=".858"/><stop style="stop-color:#784b10;stop-opacity:1" offset="1"/></linearGradient><linearGradient id="a"><stop style="stop-color:#ffe6d5;stop-opacity:0" offset="0"/><stop style="stop-color:#fff9e3;stop-opacity:1" offset="1"/></linearGradient><linearGradient x1="342.309" y1="370.344" x2="342.309" y2="390.615" id="h" xlink:href="#a" gradientUnits="userSpaceOnUse"/><radialGradient cx="305.536" cy="436.599" r="139.217" fx="305.536" fy="436.599" id="e" xlink:href="#b" gradientUnits="userSpaceOnUse" gradientTransform="matrix(1.67905 0 0 1.7355 -174 -327.243)"/><radialGradient cx="299.404" cy="448.1" r="201.589" fx="299.404" fy="448.1" id="d" xlink:href="#c" gradientUnits="userSpaceOnUse" gradientTransform="matrix(2.15923 -.01551 .00936 1.23986 -370.998 -101.846)"/><mask id="g"><path d="M353.563 190.156c-12.84-.121-27.012 5.477-31.907 18.219-2.169 3.543-1.611 8.824-4.156 11.594-5.455 1.623-8.423 7.14-9.281 12.437 6.695-1.433 15.668 2.054 15.437 9.938 1.046 8.194-8.351 13.436-15.469 10.656-9.108-1.865-13.574-12.243-10.968-20.719 1.54-10.263 11.923-18.303 9.844-29.187-3.571-6.744-13.571-5.567-20-4.906-25.604 4.929-46.005 24.028-60.476 44.603-21.04 30.762-30.391 70.26-23.084 106.965 9.575 41.769 40.476 77.832 79.497 95.369 23.655 10.243 50.181 11.529 75.75 10.063 2.426-51.968 4.175-104.046 7.188-155.938 4.137-4.4 11.546-2.23 16.968-2.777 9.092.837 18.866.383 27.344 3.996 3.458 2.422 1.873 7.18 1.719 10.437 3.228 1.436 5.855 8.412 9.33 4.402 4.53-5.837 9.236-3.27 13.935.809 4.766-1.356 9.29-10.383 13.339-1.279 3.513 6.066 8.918-6.812 13.216-.146 3.653 4.543 6.445 1.223 9.305-1.848 6.382-5.558 6.446-15.437 5.344-23.281-2.614-16.984-14.055-31.619-28.843-39.726-14.816-9.589-35.152-14.011-51.532-5.68-5.4 3.052-11 8.687-8.875 15.53.247 5.314 1.601 14.074-5.563 15.313-5.736.253-12.683 1.924-17.75-1.344-4.174-5.82-1.224-14.066-1.937-20.749.608-20.808 1.538-41.606 2.343-62.407-3.564-.3-7.141-.468-10.718-.344zm-62.938 82.563c9.753-.854 15.179 9.113 16.14 17.48 9.46 47.622 18.357 95.357 27.454 143.051-5.877 4.997-14.46.953-20.906-.656-23.466-7.674-41.96-26.393-51.742-48.81-11.68-23.949-15.049-52.66-5.554-77.884 5.074-14.359 14.582-29.852 30.858-32.712 1.247-.214 2.481-.462 3.75-.47z" style="fill:#f95;stroke:#000;stroke-width:.30000001;stroke-linecap:butt;stroke-linejoin:miter;stroke-miterlimit:4;stroke-opacity:1;stroke-dasharray:none"/></mask></defs><path style="fill:#fff;fill-opacity:1" d="M0 0h200v100H0z"/><path d="M0 50h200M68 0v100" style="fill:#0ff;stroke:#f9c862;stroke-width:24;stroke-opacity:1"/><path d="M0 50h200M68 0v100" style="stroke:#f3f3f3;stroke-width:17.54999924;stroke-miterlimit:4;stroke-opacity:1;stroke-dasharray:none"/><path d="M0 50h200M68 0v100" style="fill:none;stroke:#aef;stroke-width:14;stroke-opacity:1"/><path transform="scale(.16667)" style="fill:#fff;fill-opacity:0;fill-rule:nonzero;stroke:#fc0;stroke-opacity:1" fill="none" d="M-315.254-10.169h10.169v2.542h-10.169z"/><rect width="41.667" height="41.667" ry="4.303" x="45.467" y="28.846" style="fill:#d40000;fill-opacity:1;stroke:none"/><path d="M539.386 336.332a198.208 193.186 0 1 1-396.416 0 198.208 193.186 0 1 1 396.416 0z" transform="matrix(.09254 0 0 .09488 34.527 17.776)" style="fill:url(#d);fill-opacity:1;fill-rule:nonzero;stroke:url(#linearGradient5110);stroke-width:6.76125002;stroke-miterlimit:4;stroke-opacity:1;stroke-dasharray:none"/><path d="M284.656 278.25c-1.144.254-4.226 3.25-3.969 4.281-2.279.952-3.629 2.266-2.53 4.531 0 0-3.959 1.91-1.626 7 .975 2.128 1.007 3.687.719 4.782-1.52.71-2.838 2.078-3.906 3.125 0 0-2.185-1.916-4.094-1.563-1.909.354-3.671 1.352-5.156 1.281-1.485-.07-1.846.428-1.563.782.283.353 1.693 1.49 2.188 3.187.495 1.697.072 4.518 5.375 4.094-2.003 3.484-1.676 6.335 3.094 7.938-.67-1.972-.055-3.188 1.156-4.032.783 2.055 2.272 2.988 4.375 2.969 0 0-.35-4.057 2.125-3.563 2.474.495 3.797 3.126 3.656 5.813-.141 2.687-1.6 5.22-3.438 6.563-1.744 1.274-2.825 5.553-.656 9.218-2.555.015-5.223-.455-6.656 4.188 1.654-.871 3.06-.823 4.219.125-4.265 1.206-4.64 3.366-4.156 5.719 2.227-2.291 4.544-2.153 6.937-.313-3.927 1.339-4.587 5.01-3.781 6.375 1.24-1.302 6.094-3.396 6.156 1.813.04 3.407.494 6.874.875 9.218-.879-.563-1.87-1.105-2.281-1.094-4.526.124-5.503-2.916-2-4.218-.685-2.26-2.177-3.063-4.844-1.688-.094-.006-.187-.023-.281-.031l-.656-2.562c-.497-1.985-4.72-6.56-4.844-10.157-.124-3.596.099-9.402-.125-12-.368-4.263-4.091-8.088-4.563-8.968-.467-.873-1.15-5.061-.625-5.72-4.448 2.35-4.491 6.245-2.844 9.688-3.337 1.68-4.116 6.045-1 6.938-3.048 2.62-2.863 6.275 1.125 7.687 0 0-3.353 4.952 3.22 6.688 4.493 1.187 6.236 5.595 6.906 8.281-1.197.174-2.32.797-3.313 2.531-2.139-.65-4.98-.452-6.344 1.563-1.364 2.015-4.75 3.344-4.75 3.344s2.38.97 3.906 2.78c2.47 2.93 6.308 1.924 6.938.782-.746 5.432 2.667 6.68 6.156 4.219 2.077 1.12 4.186 1.695 6.344-.781-2.232-.59-5.444-3.742-1.781-4.938 4.886-1.595 7.094 6.344 7.094 6.344l.343.437c-1.579-.88-3.125-1.812-3.125-1.812s.939 1.68.219 5.406 1.688 5 1.688 5c-3.407.068-5.475 5.206-.813 5.938-.838 2.717.354 3.755 2.094 4.343-.883 3.127 1.482 4.532 2.625 4.532.796-3.414 3.11-3.817 4.437-2.438 1.902 4.27 4.013 8.278 6.344 12.031-.684.129-1.568.286-2.531.407-3.743.467-3.984-2.734-1.469-4.313-1.203-1.42-2.714-2.214-5.156-1 0 0-.032-1.83-3.5-3.406-2.573-1.17-5.8-3.03-8.781-8.469-2.983-5.438-4.616-7.835-7.657-7.25-3.04.585-2.969 5.719-2.969 5.719s1.456-1.265 2.625-1.031c1.17.233 2.875 2.968 2.875 2.968-3.266.339-4.492 4.327-.937 5.094.619-1.698 1.584-1.044 2.5-.812-1.051 2.144-1.232 3.905 1.281 4.5 0 0 1.43-3.062 3.125-.782 1.696 2.28 3.979 2.305 5.031 2.188 1.053-.117 2.094 1.031 2.094 1.031-.897.429-.758 1.084-.937 1.656 0 0-1.628-1.358-4.844-.656-3.216.702-4.938-.625-4.938-.625 1.112 2.105 1.772 5.197 3 6.25 1.229 1.053 3.025 1.921 5.657 1.688-.488 2.136-.964 4.96 5.406 5.093 0 0-.549-1.518.563-2.687.445 2.268 2.876 3.428 5.28 1.406 0 0-3.527-2.654.157-3.531 2.255-.522 3.895.771 6.063-.406 7.907 11.672 18.141 20.852 30.968 28.343L334.47 431c-14.965-8.618-24.18-17.849-29.844-26 .914-.682 2.527-1.968 3.188-3.125.935-1.637.079-4.684 2.593-4.625 2.515.059 1.625 3.313 1.625 3.313 3.034-.615 6.22-.992 5.313-7.063 2.743-1.19 3.341-3 1.719-5.438 1.6-2.032 2.03-3.933-.407-5.5 0 0 2.15-3.261 1.156-5.25-.994-1.988-.875-4.75-.875-4.75s-.882 1.53-4.625 2.407c-3.742.877-4.218 5.125-4.218 5.125-2.13-.092-3.122.964-3.844 2.281a6.639 6.639 0 0 1-.063-1.094c.043-1.44 1.41-3.262 2.47-6.437 1.058-3.176-2-7.031-2-7.031-.41 1.537-1.43 2.975-2.938 3.906 2.362-2.676 1.742-9.632-.563-8.344-1.704.953-2.042 2.239-2 4.906-2.14-.69-3.676.14-5.031 1.469 2.117.423 5.11 5.713 6 8.719.89 3.006.818 5.01 1.156 5.687.156.31.612.63 1.063.875-1.168.613-2.313 1.234-2.125 4.313-1.553.805-2.382 2.353-2.531 4.562 5.73-2.339 5.571 4.734 4.343 6.313-.42.539-1.064 1.034-1.594 1.406-2.544-4.223-4.129-8.034-5.093-11.188-.206-2.99 1.808-3.619 3.187-2.437.805-.974-.2-2.743-1.219-3.719.27-2.702-1-3.44-2.75-3.562.243-3.498-2.17-4.28-5.406-4.188 0 0-.99-3.531-2.531-4.219-.49-8.923 1.648-11.125 4.594-11.125 2.97 0 1.375 4.125 1.375 4.125 2.571.405 4.236-.602 5.187-2.718 2.698.738 3.628-.757 4.375-2.5 4.26.96 5.221-3.097 3.781-7.75 0 0 3.198-.428 3.563-3.719.394-3.555 2.125-4.875 2.125-4.875s-1.494 1.234-4.938-.656c-3.443-1.89-6.406 2.281-6.406 2.281-1.065-1.072-2.081-1.616-3.031-1.375.387-7.597 3.112-14.693 10.781-20.719-2.253-.786-4.497-.712-6.75.813-.243-2.371-.427-4.729.625-6.938-2.79.519-4.77 2.59-5.906 6.25-1.494-1.282-3.36-2.65-5.281-1.781 1.674 1.426 2.503 3.58 2.875 5.813.372 2.232.687 8.44.625 12.78-.062 4.341.408 4.788.719 5.594.05.134.103.356.156.563-.119.252-.23.484-.344.781-1.9-.684-3.596-.775-4.25 2.281-1.648-.011-3.18.273-3.938 2.22 2.094-.54 6.153 2.038 1.157 6.562-.932.843-1.81 1.872-2.594 2.844-.068-.392-.085-.384-.156-.813-.31-1.86-1.119-7.952-.313-9.813.806-1.86 1.685-3.39 5.281-1.53 1.048-3.164-.208-4.486-2.625-4.844 1.23-1.594 3.106-1.54 5.157-1 .247-4.015-2.23-4.534-4.906-4.813 1.32-.908 2.672-1.613 4.156-1.375-1.097-2.255-2.89-2.747-4.875-2.781 2.285-5.162.13-7.872-1.781-10.625v-.125c.609-.95 1.253-1.96 1.625-2.563.565-.919 1.696-6.716 2.968-8.625 1.273-1.909 6.212-.83 3.313 3.906 1.48.59 3.305-.931 5.156-2.562-.384 1.202-1.023 2.392-2.531 3.594 4.336.55 6.46-1.221 7.219-4.438 4.515 1.162 6.588-5.158.218-7.437.219-3.492-2.061-3.89-3.625-3.875.039 1.095.185 2.26-.5 2.812-1.681-2.265-3.69-2.57-6.125-.687l.844.844c.495.494.57 1.207.5 1.843-.07.637-2.15 2.257-3.281 1.125-1.132-1.131 1.209-4.459 1.562-4.812.354-.354 1.065-2.61 3.469-1.125 2.404 1.485 4.52-1.617 3.813-3.031 3.704-1.69 3.05-5.283-.782-6.532 3.748-4.03-.625-6.632-.469-10.875-3.194 4.584-7.656 2.761-7.656 7.781-5.17-.316-5.957 2.625-5.719 5.938-2.995 1.24-3.09 2.761-2.343 4.375.242-1.27 5.726-1.016 5.375 2.563-.098.995-1.7 5.349-2.406 7.187-.436 1.132-.908 2.583-1.282 3.719-.49-.839-1.323-1.944-2.75-2.969-1.986-1.427-.965-4.675 2.781-4.469-.777-4.95-6.577-2.62-6.437-2.062-.111-1.28-.77-2.668 2.188-3.406-1.076-.87-2.081-1.193-3.032-1.188-.012-.233.014-.525.063-.938.141-1.201 3.377-4.791 4.437-7.125 1.06-2.333 2.401-5.867 1.906-7.28-.494-1.415-.483-3.837-.468-4.47.007-.29-.174-.37-.438-.312zm119-91.063s-.363 1.6-3.5 4.782c-3.137 3.18-2.549 5.55-.719 7.031-1.406 1.533-2.516 3.113-.718 5.219-1.366 1.697-2.734 3.389-.813 5.312 0 0 .214.105.563-.375.348-.48 2.485-.722 3.531-.156 1.046.566 1.317 1.931.969 3.5-.085.38-.305.783-.594 1.156-.009.012-.022.02-.031.031-.166.128-.275.199-.469.344-2.526 1.894-12.925 8.38-14.187 14.063-.004.02.004.043 0 .062-3.726-1.018-5.47.48-6.157 3.344-1.787.098-3.319.69-3.875 3.25-2.068-.188-2.926 1.701-3.562 3.969 0 0-1.175-1.704 2.781-6.282 1.96-2.266 4.777-4.5 6.813-6.937 2.075-2.484 3.359-5.172 3.437-8.031.155-5.663 1.375-8.469 1.375-8.469-3.995-.672-6.601 1.524-7.906 6.438-2.749-1.098-6.092-.904-6.188 3.343-1.896-.068-3.523.386-4.187 2.781 0 0 2.078.155 2.156 2.094.078 1.94-1.625 9-1.625 11.094 0 2.095 1 5.906 1 5.906-2.28 1.71-2.874 3.846-1.844 5.969 0 0 2.175-2.027 3-1.563.994.56.838 2.113.063 4.282-1.523 3.036-3.308 6.008-6.125 7.469-4.262 2.21-7.75 2.687-7.75 2.687l3.812 3.938s2.678 1.423 9.781-6.47c2.344-2.603 3.57-3.94 4.5-4.906 3.59-2.76 6.694-3.855 5.907.063 3.067-.573 3.103-2.565 3.156-4.344 2.159-.452 3.34-1.67 2.813-4.187 3.712-1.641 3.39-5.518.78-6.75 1.821-1.687 3.482-2.907 3.876-.313 2.148-5.914-.496-6.949-2.313-6.5.856-2.293 3.037-6.77 7.156-8.906a119.16 119.16 0 0 0 2.938-1.563c.083-.022.165-.04.25-.062 2.377-.594 4.633-.574 5.188.813.554 1.386.507 2.582-.563 3.375-1.07.792-1.062 2.134.563 3.125 1.624.99 3.562-.282 3.562-.282s1.142 2.592 2.688 2.75c1.545.159 2.937-.719 2.937-.719s1.467 2.469 3.25 3.063c1.783.594 4.469-.344 4.469-.344a74.79 74.79 0 0 0 2.812.875s-.556-.896-.437-2.719c.119-1.822.527-8.32-4.188-8.28.64-3.511-2.805-6.19-5.125-3.563 0 0-1.503-2.423-2.969-2.344-1.465.08-1.25.63-1.25 1.344 0 .713-1.253 1.337-2.125 1.219-.754-.103-2.166-1.561-2.593-2l.062-.032s5.228-1.109 7.438-2.687c1.316-.94 1.893-1.908 2.687-2.781.587-.434 1.178-.8 1.5-.844.832-.114 1.598-.298 2.656 1.062 1.059 1.361-.406 3.094-.406 3.094s1.226.05 3.531-.781c2.306-.832 3.226-2.674 3.188-4.375-.038-1.701-2.063-2.75-2.063-2.75s.837-.25 1.782-.25c.945 0 2.824-.69 5.281-2.656 2.457-1.966 2.6-6.286 2.563-7.344-.038-1.059-.625-5.563-.625-5.563s-2.036 1.598-3.813 2.657c-1.777 1.058-3.503.58-5.469 1.375-1.965.793-3.842 3.63-4.031 5.218-.189 1.588-.844 3.063-.844 3.063s-.423-1.223-1.406-2.281c-.983-1.059-2.76-1.27-4.688-.438-1.927.832-2.156 4.344-2.156 4.344s.154-.055 1.25-.281c1.096-.227 1.63.712 1.781 1.468.087.433.048.959-.406 1.875-.15.205-.299.41-.469.657-1.736 2.525-2.234 2.215-3.812 2.53-.371.075-.679.11-.969.126-1.34-.358-2.696-1.322-2.125-2.813.785-2.048 3.063-.281 3.063-.281 1.907-1.352.677-3.964-1.094-4.75 2.608-2.67-.524-5.167-2.156-5.219 0-2.788-.944-4.368-2.469-5.718-1.525-1.351-2.094-4.25-2.094-4.25z" style="fill:#f9d059;fill-opacity:.63777101;stroke:#000;stroke-width:.89999998;stroke-linecap:butt;stroke-linejoin:round;stroke-miterlimit:4;stroke-opacity:.58823494;stroke-dasharray:none" transform="translate(32.825 16.84) scale(.09633)"/><path d="M403.219 191.594c-2.179 1.836-5.36 5.493-.969 7.25-1.561 1.372-3.91 3.767-.938 5.344-2.8 2.56-1.614 2.45 1.032 2.78 5.072 2.154 2.441 9.639-2.218 10.762-3.796 2.46 3.357-1.834 5.624-.48 1.992.933-2.763-3.79 2.688-3.594 1.51-.335 5.34-1.622 5.625-2.125-3.738 2.535-10.185-1.675-6.907-5.906 1.14-1.585 4.598-.968.524-2.363-.753-.65 3.695-3.521.351-4.106-3.109.119-.797-4.864-3.687-6.312-.47-.247-.814-1.117-1.125-1.25zm30.375 2.187c-3.26 2.053-9.225 1.064-9.469 6.344-.723 2.769-2.42 5.647 2.094 3.625 5.352.08 9.734-5.189 7.375-9.969zm-16.344 7.25c-3.46.409 1.852 2.01.969 4.156.273 2.074-2.477 4.44.562 2.47 3.198.076 2.713-1.04 1.128-3.84-.542-1.11-1.028-3.22-2.659-2.786zm4.313 6.5c2.466.174 2.71 5.298 4.687 2.313 2.088-2.466-5.687-5.936-4.688-2.313zm-35.782 3.594c-3.842.87-1.96 9.004-6.375 6-2.602-1.331-3.68 1.47-3.156 3.656-3.151-.458-3.235-.08-1.938 2.156.23 4.028-1.385 7.92-1.562 11.938 3.553-6.982 13.323-10.601 12.469-19.625.07-1.298.405-3.063.562-4.125zm28.625 6.625c-.671 2.931-5.83 1.546-5.625 1.75 1.235 1.841.014 4.514-.687 5.656 2.364-.32 3.856-2.66 4.594 1.219 1.426 2.833 5.015-2.746 5.593 1.781 1.846 3.321 7.87 1.396 5.844-2.406.069-2.44-2.432-3.292-4.531-2.594 1.547-1.466.078-6.822-1.989-3.449-1.435 2.616-1.947-1.36-3.199-1.957zm-22.719 7.219c-1.513 1.168-2.783 5.609-1.156 2.062.236-.517 1.494-2.492 1.156-2.062zm-6.53 4.906c-2.292.9-1.608 4.37-4.688 3.844-1.331 1.197-1.017 3.66-3.406 3.156-1.776 2.987-2.696 6.53-1.47 9.719-.049 2.947-1.748 5.473-3.28 7.844 2.62-3.34 7.693-8.515 11.906-6.157-1.174-3.182 4.843-1.648 2.679-5.262.528-.707 4.676-2.825 2.04-4.394-5.324-1.173 1.37-4.838 3.593-5.844-.04-2.828-6.584 2.28-3.469-2.281-1.334-.201-2.556-.783-3.906-.625zm-12.188 12.375c-2.758 1.316 2.254 1.038 0 0zm-3.938 15.563c-1.13 1.787-6.968 1.746-5.219 3.656 1.999-.433 4.937-3.203 5.22-3.656zm-85.937 24.25c-.023 2.116-2.722 2.05-3.313 3.75 2.277 2.47-3.932 3.702-1.594 7.03.717 3.29 2.604-2.239 3.625-3.312.94-2.124 2.692-5.932 1.282-7.469zm15.969 2.906c-2.46 1.167-5.578 2.329-4.282 5.844-2.749-.797-6.874-.093-5.719 3.718-1.157 2.359-1.086 1.741 1.22 3 1.79.746 1.825 4.368 1.906 4.563 1.238-2.968 4.685-4.022 7.25-2.469.417-1.761-.306-2.832 2.218-3.594 2.35-2.898-7.009-2.404-2.817-4.884 2.392-1.709 1.629-4.44.224-6.178zM277.78 300.78c-2.483 1.653-4.235 5.185-6.875 1.938-2.063-.86-6.258.283-4.156 2.75-.636 5.314 10.009-.894 5.387 4.719-1.4 1.126-1.682 6.162.176 2.593 2.107-2.626 3.536-1.897 4.375 1.063.648-1.537 3.558-4.097 5.968-2.25 2.696 1.436-2.963-1.923-2-3.813-.95-1.583 3.391-4.55.906-3.531-2.521 7.54-3.26 3.005-3.687-2.25-.117-.26.211-1.4-.094-1.219zm20.188 3.656c1.161 2.253-1.52 4.592-2.719 5.125 2.502.263 2.083 5.363 4.32 1.785 3.712-1.307 5.529-6.281 2.961-6.003-2.264 4.521-2.75-1.224-4.562-.906zm-7.75 3.25c-1.183 3.56-4.257 8.963-3.813 9.282.627 1.205-.995 6 .656 2.562.69-3.512 2.547-9.146 4.938-10.344-1.119-.288-1.503-3.508-1.781-1.5zm13.187 2.594c2.21 1.994 5.155-.51 2.656-2.281-1.97-1.883-1.955.602-2.656 2.281zm-1.344 3.75c1.56-2.547 1.423-5.227 0 0zm-40.03 6.156c-.801 2.877 3.198 6.01-.907 7.094-2.3 1.617-.676 4.227 2.284 3.73-.254.815-6.119 4.893-2.097 6.614 5.618-.393-2.101 5.36 2.594 6.5 1.985-.017 5.51 3.547 3.5-.125-1.151-7.132 1.737-15.824-4.344-21.344-.564-.656-.902-1.861-1.03-2.469zm39 1.25c-.872 3.12-3.55 5.481-3.626 4.782.694 3.497.67 8.482.844 10.969 1.003-4.193 3.587-8.51 6.125-11.407-4.541 4.689-2.559-2.152-3.344-4.344zM284.968 324c-1.984 2.386-5.191 4.98-3.313 8.625 3.698 4.4.3 4.31-3.531 4.094 8.205 3.195-1.421 4.034.813 4.469 2.424.993 8.752 4.19 3.239 4.796-2.064.564-3.211 1.555-.364 1.36 2.109-.041 2.871 4.488 3.656.969.333-2.172 6.082-2.288 1.481-2.698-2.72-.332 1.875-4.465 3.956-4.771 2.707-.745-11.131-1.155-6.812-1.25 8.43-4.325 1.013-1.988 3.25-7.125 1.53-3.129-.796-6.562-2.375-8.469zm21.469 20.656c-2.878.67-3.542 5.95-6.094 1.656-2.253-.774-1.722 5.297-5.406 2.47-.574 1.948-2.29 2.365-1 4.218 1.097 2.375-1.737 5.417-2.282 6.375 2.866-1.431 5.431 1.992 5.688 3.375.709-2.682 2.394-1.82 4.281-2.188.673-2.69 2.44-2.205 4.438-2.593 2.093-2.826-3.078-7.966 2.187-7.781 2.074-1.448 2.535-5.348-.781-5.47a2.213 2.213 0 0 0-1.031-.062zm-30.25 11.75c-2.75.507-6.374-.854-7.407 3.125-2.953-1.69-5.728-.277-7.437 2.219-.932 1.355 3.987 4.864 5.273 1.877 4.166-7.698 3.712-2.593 2.914 3.092-.738 3.331 2.868 2.375 4.156.75 2.114 1.383 2.262 1.277 1.125-.75-1.344-2.518 2.711-4.363 2.938-4.813-2.48-.943-2.372-4.537-1.563-5.5zm10.312 8.688c-1.037.982-2.467-1.69-.25 2.031.403 2.7 1.355-4.974.36-2.175l-.11.144zm16.688 1.969c-.552 5.427.233-2.03 0 0zm-3.313 3.062c1.963 4.334 3.272-.437 0 0zm6.625 1.906c-.998 1.87-5.52 1.268-3.188 3.844.849 1.464.987 5.646 1.907 2 .703-1.673 2.423-4.392 1.281-5.844zm-21.375.813c-1.246 3.311.306 6.263 3.887 7.224 3.488 2.358-6.77-.328-5.762 3.15 3.67-.181 2.06 2.207 2.438 4.313 2.422.11 2.297 2.441 2.062 3.5 2.657-3.923 8.183-1.006 8.406 3.125 2.203 4.383 3.175 6.188.719.875-1.612-2.859-2.663-7.731.969-9.406-.545-1.721-.175-3.976-3.281-3.094 1.509-3.725-2.014-4.642-4.844-4-.693-2.778-1.685-5.18-4.594-5.687zm6.406 3.625c1.78-1.193-2.397-1.837 0 0zm5.531-.188c1.264 3.873 4.887-3.624 0 0zm19.813-.031c-3.105.206-5.22 2.693-5.094 5.844-1.853-1.088-5.817 1.57-3.344 2.906-2.61 1.603-4.993 2.298-4.093 2.594.035 1.734-.46 3.382-1.688 3.937 3.322-.26 4.124 5.563 4.25 5.844 1.583-3.746 6.526-1.735 7.563.438 2.482-1.9-.855-6.216 3.156-6.813.99-1.676-2.056-3.548.531-5.156.925-2.134-3.963-2.565-.969-4.75 1.091-1.294 1.155-4.443-.312-4.844zm1.281 8.469c.104-.033-.043-.058 0 0zm-13.594 2.531c.043-.058-.103-.033 0 0zm3.97-4.656c.042-.058-.104-.033 0 0zm-37.563-.781c-2.922.64 2.028 1.46 2.312 3.093 3.108 2.58 1.692 5.268.813 4.75 4.92-.81.077 4.227 3.094 3.031 2.111-.516 4.357 3.744 5.156 2.813-5.467-3.043-6.243-10.51-11.219-13.719l-.156.031zm15.906 18.625c-.281 4.495-1.531 3.253-3.906 1.25-2.228-.454-5.851.107-3.5 2.28 2.314 2.635 8.722-1.19 6.094 3.938-.81 2.353 2.347 2.51 2.593.25 2.993-6.503 2.44 2.832 4.188-1.562 2.575-1.018-2.12-2.671-.656-5.031 1.746-3.661-5.503 3.709-3.594-1.313.363-1.315-.765.04-1.219.188zm19.344-.094c-.782 1.614.139.242 0 0zm-4.25 4.156c1.987-1.411 1.793-1.412 0 0zm5.437 7.469c6.772 8.29 14.939 15.036 24 20.531-1.12-2.826-6.726-4.603-9.469-7.281-5.627-4.187-10.78-8.915-15.312-14.25l.616.788.165.212z" style="fill:#c7aa55;fill-opacity:.86687305;stroke:#674f2f;stroke-width:.5;stroke-linecap:butt;stroke-linejoin:miter;stroke-miterlimit:4;stroke-opacity:1;stroke-dasharray:none" transform="translate(32.825 16.84) scale(.09633)"/><path d="M403.031 194.563c-1.85 1.22-.553 3.076 1.156 2.78-.25-.805.002-2.898-1.156-2.78zm29.156 2c-3.093.504-6.724 1.494-6.5 5.25 3.033.181 6.667-2.094 6.5-5.25zm-28.593 3.78c-2.14 1.31-1.867 2.891 1 3.532-2.879 1.604.782 2.912 1.125.344-.312-2.234 1.416-3.41-.969-4.938l-.736.677-.42.386zm-25.344 18.595c.473 3.444-.183 3.672-1.906 4.843-1.227 5.524 1.22 2.436 3.781-.344 1.524-1.989 4.12-4.778.219-3.75-.708.07-1.658-.888-2.094-.75zm35.75 2.156c-1.592.522-4.16.775-1.031 1.562 1.22 1.511 1.932 3.399 3.656 1 2.516-2.01-1.704-.343-2.625-2.562zm6.563 3.875c-2.766-.021.75 4.85 1.968 2.156-.498-1.284-.11-2.544-1.969-2.156zm-34.875 6.906c-.713 2.244-2.792 3.495-4.47 4.406-1.05 2.556-4.5 2.673-4.124 6.094-.168 2.534.034 5.697 3 3.563 2.102.118 3.364-1.072 5.031-2-2.218-2.32 4.348-3.44.563-4.782-2.868-2.982 3.096-5.334 0-7.281zm-87.563 55.75c-2.879.797-1.08 3.812.188 1.094.086-.291.141-1.075-.188-1.094zm-5.906 4.938c-2.792.31-1.075 3.68.625 4.625.845 1.316 3.508-.918 5.031-.375 2.049-2.13-1.417-1.686-1.938-3.688-1.226-.23-2.45-.727-3.718-.563zm-23.313 11.906c-2.007 1.945 4.456 1.681 1.313.406-.276-.485-.828-.49-1.313-.406zm7.188.375c-1.642 1.104-2.866.9-.875 2.656-.84 1.688 1.835 3.198 2.625 2.156-1.369-1.13-1.374-3.346-1.75-4.812zm23.125 3.812c-2.131 1.854 1.998-.037 0 0zM284.53 327.5c-2.495 1.826-1.022 4.793.375 6.375.631-1.972 1.816-5.656-.375-6.375zm-20.375.313c-1.748 1.147-2.218 1.782.25.718-.286 1.454-.092-1.217-.25-.719zm35.531.25c.414 1.753.11-.875 0 0zm-34.718 4.25c-1.168 1.49-4.561 3.604-.938 3.75 2.109 3.196.797-3.084.938-3.75zm20.219 3.78c-.64 1.706 1.014.156 0 0zm-20.125 4.313c-1.555 2.459.787 2.67 0 0zm19.656 1.719c2.19.894-.943-1.28 0 0zm21.969 4.594c-1.564 2.06-4.489 4.329-6.782 2.625-.436 2.247-3.812 1.73-4.187 2.719 1.769 2.51-2.101 5.717 1.531 6.875 2.834.822 4.39-2.988 7.344-2.875-1.404-2.99-1.175-7.86 2.906-7.97.701-.932.466-1.723-.813-1.374zm-34.094 11.875c-2.228-.089.493 2.975-.594 4.375-.757 2.717.054 4.928.813 1.281 1.746-1.952 1.55-3.256.875-5.688-.364.04-.733-.041-1.094.032zm-7 2.281c-1.616.018-2.63 2.1-.719 1.781-.43-.09 1.815-2.172.719-1.781zm49.969 17.781c-3.656 1.318.47 9.604-4.782 5.188 3.777 1.372-2.557 3.188-4.437 4.594-1.03 1.967.764 4.092 1.906 5.125 2.205-1.511 5.976 2.348 5.375-1.438.855-1.981 2.42-2.75 1.469-5.063 1.856-2.26-2.39-3.777-.344-6.343.405-.306 2.113-2.377.813-2.063zm-23.594 2.469c-.385 3.214-5.678.61-4.25 3.719-.116 3.526 3.77 1.8 5.969 2.875.374-1.98 3.875-4.415-.605-2.797-4.338 1.917 2.32-4.63-1.364-4.547l.25.75zm-2.406 22.656c.121.043.046-.097 0 0zm-.782.219c-2.186.45-.283.88 0 0z" style="fill:#db9b45;fill-opacity:.92879304;stroke:#765623;stroke-width:.60000002;stroke-linecap:butt;stroke-linejoin:miter;stroke-miterlimit:4;stroke-opacity:1;stroke-dasharray:none" transform="translate(32.825 16.84) scale(.09633)"/><path d="m300.68 522.214 3.89-6.174s6.743 1.392 10.16 1.356c6.073-.064 11.934-2.943 18.006-2.793 6.16.151 11.942 3.737 18.104 3.728 5.299-.008 10.262-3.171 15.561-3.252 5.494-.084 10.751 3.283 16.23 2.877 4.66-.345 13.291-4.454 13.291-4.454l2.96 4.145c-7.105 5.244-10.92 5.28-16.832 5.916-5.536.596-11.013-2.278-16.577-2.06-4.917.195-9.541 2.977-14.463 2.97-6.252-.01-12.114-3.602-18.363-3.831-6.078-.224-12.01 2.184-18.088 2.404-4.631.167-13.88-.832-13.88-.832zm16.297-8.025 2.265-6.606c4.97-1.698 7.76-1.754 11.706-1.757 6.591-.006 12.97 2.772 19.559 2.9 6.54.128 12.967-2.2 19.508-2.121 7.176.085 12.894 3.054 12.894 3.054l3.02 6.166s-8.336-3.222-16.234-3.147c-6.767.064-12.608 2.385-20.192 2.116-6.27-.221-12.346-2.698-18.62-2.748-4.675-.037-10.949.885-13.906 2.143zm-2.651-8.627 1.356-7.724c3.397-1.321 9.73-3.653 14.825-3.723 9-.123 12.948 4.58 19.684 4.57 6.055-.01 11.627-4.048 17.68-4.167 5.786-.112 9.742 3.32 17.04 3.32l2.752 6.986c-10.254.88-12.999-3.107-19.602-2.914-5.847.172-11.328 3.611-17.178 3.594-6.928-.02-13.39-4.478-20.318-4.376-6.568.097-16.24 4.434-16.24 4.434z" style="opacity:.67567599;fill:#000;fill-opacity:1;stroke:#000;stroke-width:.89999998;stroke-linecap:butt;stroke-linejoin:miter;stroke-miterlimit:4;stroke-opacity:.78637803;stroke-dasharray:none" transform="translate(32.825 16.84) scale(.09633)"/><path d="M354.584 188.655c-25.084.427-34.79 12.675-37.906 30-5.068 1.814-9.42 5.577-11 16.688 0 0 14.494-3.51 15.812 6.594 1.318 10.104-9.348 12.945-17.562 7.468-7.908-5.271-5.702-16.69-2.188-23.718 3.515-7.03 18.436-27.956-6.156-29.438-36.462-2.196-97.096 50.95-96.656 131.781.254 46.855 32.089 91 71.125 113.438 28.308 16.272 59.139 18.003 90.531 16.156 0 0 6.737-155.025 7.031-156.812.646-3.928 37.798-.886 41.313 1.75 3.514 2.636-.445 8.776 1.312 10.093 1.757 1.318 8.344 7.47 8.344 7.47l8.781-6.157 8.781 5.719 7.47-6.594 6.593 7.031 7.906-4.812 8.344 5.25c10.955-11.058 7.972-5.803 11-14.063 4.832-13.179-2.214-37.76-18.469-50.5-17.633-13.82-31.187-18.033-46.562-17.594-19.367.554-28.096 12.762-27.656 17.594.439 4.833 1.321 14.493-.875 16.25-2.197 1.757-4.407 1.75-11.875 1.75-7.469 0-7.905-.88-8.344-7.031-.44-6.15 2.625-77.75 2.625-77.75-4.236-.44-8.136-.624-11.719-.563zM291.24 275.25c7.402.059 11.113 5.37 12.969 13.469 2.7 11.78 27.75 144.312 27.75 144.312-4.278 3.922-28.686-2.92-45.313-17.312-17.71-15.33-27.696-38.96-32-57.313-8.343-35.582 7.867-72.142 24.063-79.75 5.061-2.377 9.167-3.432 12.531-3.406z" style="fill:#333;fill-opacity:1;stroke:#222;stroke-width:5.4000001;stroke-linecap:butt;stroke-linejoin:miter;stroke-miterlimit:4;stroke-opacity:.80495402;stroke-dasharray:none" transform="translate(32.825 16.84) scale(.09633)"/><path d="M345.877 457.939v6.281h-113.75v7.844h113.75v10.843c-1.39 1.027-2.281 2.558-2.281 4.282 0 1.962 1.142 3.689 2.875 4.687-.562.878-2.365 3.735-2.219 3.969.17.271 1.539 1.414 1.844 1.312.305-.101 2.406-3.25 2.406-3.25s.627 4.097 1 4.063c.373-.034 1.74.324 1.875-.219.136-.542.281-4 .281-4s2.318 3.024 2.657 3.125c.339.102 1.825-.267 1.656-1.25-.146-.845-1.691-3.243-2.188-4 1.51-1.022 2.5-2.628 2.5-4.437 0-1.835-1.015-3.449-2.562-4.469v-10.656h113.781v-7.844H353.721v-6.281h-7.844z" style="fill:#201906;fill-opacity:1;fill-rule:nonzero;stroke:#000;stroke-linecap:round;stroke-linejoin:round;stroke-opacity:.58204298" transform="translate(32.825 16.84) scale(.09633)"/><path d="M345.094 456.656v6.281h-113.75v7.844h113.75v10.844c-1.39 1.026-2.281 2.558-2.281 4.281 0 1.963 1.142 3.69 2.875 4.688-.562.878-2.366 3.734-2.22 3.969.17.27 1.54 1.414 1.844 1.312.306-.102 2.407-3.25 2.407-3.25s.627 4.096 1 4.063c.373-.034 1.74.323 1.875-.22.135-.542.281-4 .281-4s2.317 3.024 2.656 3.126c.34.101 1.826-.267 1.656-1.25-.145-.845-1.69-3.243-2.187-4 1.51-1.023 2.5-2.628 2.5-4.438 0-1.834-1.015-3.448-2.563-4.469v-10.656H466.72v-7.844H352.938v-6.28h-7.844z" style="fill:#ebd490;fill-opacity:1;fill-rule:nonzero;stroke:#d5a73b;stroke-linecap:round;stroke-linejoin:round;stroke-opacity:1" transform="translate(32.825 16.84) scale(.09633)"/><path d="M347.094 464.7c-28.366.883-78.699.238-113.75.238-1.177 7.457-.158 1.556.506 3.452 32.916 0 80.327.391 113.244.391-.702 5.434.044 9.346-.888 13.619-3.054 4.22 1.718 9 2.732 4.913-.344-.053 2.113 3 3.906.5 2.155-2.512-1.246-4.603-1.906-6.375.098-3.967.358-10.317.124-12.265 35.927 0 77.73-.392 113.657-.392-.39-.994-.234-2.535-.506-4.04-32.927 0-80.348.197-113.276.197.596-19.09-3.79-15.1-3.843-.238z" style="fill:#e4b53a;fill-opacity:1;fill-rule:nonzero;stroke:#f6efd1;stroke-opacity:1" transform="translate(32.825 16.84) scale(.09633)"/><path d="M352.676 486.002a3.051 2.933 0 1 1-6.102 0 3.051 2.933 0 1 1 6.102 0z" transform="matrix(.10134 0 0 .10635 31.058 11.968)" style="fill:#a67a3d;fill-opacity:1;fill-rule:nonzero;stroke:#cca743;stroke-opacity:1"/><path d="M354.656 188.125c-25.084.427-34.79 12.674-37.906 30-5.067 1.814-9.42 5.576-11 16.688 0 0 14.495-3.51 15.813 6.593 1.317 10.104-9.349 12.945-17.563 7.469-7.908-5.272-5.702-16.69-2.188-23.719 3.515-7.029 18.436-27.956-6.156-29.437-36.462-2.197-97.095 50.949-96.656 131.781.255 46.855 32.089 91 71.125 113.438 28.308 16.271 59.139 18.002 90.531 16.156 0 0 6.738-155.025 7.031-156.813.646-3.927 37.799-.886 41.313 1.75 3.514 2.636-.445 8.776 1.313 10.094 1.757 1.318 8.343 7.469 8.343 7.469l8.781-6.156 8.782 5.718 7.469-6.594 6.593 7.032 7.906-4.813 8.344 5.25c10.955-11.058 7.972-5.803 11-14.062 4.833-13.18-2.214-37.76-18.469-50.5-17.633-13.821-31.186-18.033-46.562-17.594-19.366.553-28.096 12.761-27.656 17.594.44 4.832 1.321 14.493-.875 16.25-2.197 1.757-4.407 1.75-11.875 1.75s-7.905-.881-8.344-7.031c-.44-6.15 2.625-77.75 2.625-77.75-4.236-.441-8.135-.624-11.719-.563zm-63.344 86.594c7.402.058 11.113 5.37 12.97 13.469 2.699 11.779 27.75 144.312 27.75 144.312-4.278 3.921-28.687-2.92-45.313-17.313-17.711-15.33-27.697-38.959-32-57.312-8.344-35.583 7.866-72.143 24.062-79.75 5.062-2.377 9.167-3.433 12.531-3.406z" style="fill:#ffe6d5;stroke:#fffda0;stroke-width:1.70000005;stroke-linecap:butt;stroke-linejoin:miter;stroke-miterlimit:4;stroke-opacity:1;stroke-dasharray:none" transform="translate(32.825 16.84) scale(.09633)"/><path d="M353.563 190.156c-12.84-.121-27.012 5.477-31.907 18.219-2.169 3.543-1.611 8.824-4.156 11.594-5.455 1.623-8.423 7.14-9.281 12.437 6.695-1.433 15.668 2.054 15.437 9.938 1.046 8.194-8.351 13.436-15.469 10.656-9.108-1.865-13.574-12.243-10.968-20.719 1.54-10.263 11.923-18.303 9.844-29.187-3.571-6.744-13.571-5.567-20-4.906-25.604 4.929-46.005 24.028-60.476 44.603-21.04 30.762-30.391 70.26-23.084 106.965 9.575 41.769 40.476 77.832 79.497 95.369 23.655 10.243 50.181 11.529 75.75 10.063 2.426-51.968 4.175-104.046 7.188-155.938 4.137-4.4 11.546-2.23 16.968-2.777 9.092.837 18.866.383 27.344 3.996 3.458 2.422 1.873 7.18 1.719 10.437 3.228 1.436 5.855 8.412 9.33 4.402 4.53-5.837 9.236-3.27 13.935.809 4.766-1.356 9.29-10.383 13.339-1.279 3.513 6.066 8.918-6.812 13.216-.146 3.653 4.543 6.445 1.223 9.305-1.848 6.382-5.558 6.446-15.437 5.344-23.281-2.614-16.984-14.055-31.619-28.843-39.726-14.816-9.589-35.152-14.011-51.532-5.68-5.4 3.052-11 8.687-8.875 15.53.247 5.314 1.601 14.074-5.563 15.313-5.736.253-12.683 1.924-17.75-1.344-4.174-5.82-1.224-14.066-1.937-20.749.608-20.808 1.538-41.606 2.343-62.407-3.564-.3-7.141-.468-10.718-.344zm-62.938 82.563c9.753-.854 15.179 9.113 16.14 17.48 9.46 47.622 18.357 95.357 27.454 143.051-5.877 4.997-14.46.953-20.906-.656-23.466-7.674-41.96-26.393-51.742-48.81-11.68-23.949-15.049-52.66-5.554-77.884 5.074-14.359 14.582-29.852 30.858-32.712 1.247-.214 2.481-.462 3.75-.47z" style="fill:url(#e);fill-opacity:1;stroke:#e1c804;stroke-width:2.5;stroke-linecap:butt;stroke-linejoin:miter;stroke-miterlimit:4;stroke-opacity:.53250804;stroke-dasharray:none" transform="translate(32.825 16.84) scale(.09633)"/><path d="M341.206 452.589c-75.808 4.497-125.388-59.228-132.616-111.843M339.846 449.87c-45.358 2.12-103.988-28.613-119.662-93.24m118.846 89.976c-60.921.567-100.608-48.598-107.778-76.937M337.67 443.34c-29.041 1.77-83.119-19.715-98.071-79.282m97.799 76.29c-42.432.022-83.789-31.758-93.281-91.828" style="fill:none;stroke:#f4e07a;stroke-width:2;stroke-linecap:round;stroke-linejoin:round;stroke-miterlimit:4;stroke-opacity:1;stroke-dasharray:none" transform="translate(32.825 16.84) scale(.09633)"/><path d="M433.638 480.474s.907-.563 1.396-.563c.488 0 2.367-2.421 2.512-2.038.907 2.39 2.094 2.812 6.7 1.406.209 1.687-1.117 4.007-1.396 4.99-.28.985.14 1.899 1.675 1.758.21.422.837 2.883-2.652 2.742-3.49-.14-3.14-3.515-2.024-6.046-3.96 1.51-5.174-.263-6.21-2.25zm-45.285-4.156-2.73 2.594c1.56 1.8 3.404 2.512 5.522 2.062-1.265 2.513-1.763 5.336-2.11 8.22l3.723-.157c.14-3.656.877-5.18 2.203-6.656 1.326-1.477 3.443-.844 3.443-.844s-.93 2.156-.93 3.844c0 1.687 1.195 4.289 4.126 4.5 2.93.21 3.063-.196 4.529-1.532 1.564-1.426 1.9-4.727 2.11-6.625.209-1.898-.218-2.383-1.055-3.156-.838-.773-2.288-.492-2.637-.562-.35-.07-2.234 1.125-2.234 1.125s-.768-1.18-1.675-1.25c-.907-.07-2.11 1.68-2.668 1.75-.558.07-2.016-.22-2.016-.22l-.062-2.25c-3.34 2.843-5.685 1.924-7.539-.843zm15.325 4.063c.779-.101 1.455.482 1.272 1.343-.144.677-1.125 3.931-1.396 4.594-.488 1.195-2.373 1.18-2.234-.156.391-1.726 1.11-5.336 2.017-5.688a1.47 1.47 0 0 1 .341-.093zm-21.473-3.492c4.536 2.741-1.675 8.014 1.815 8.927-.152-2.196.408-3.943 1.744-5.202l2.513 2.18c-1.396 1.827-1.745 6.256-1.745 10.123 0 3.866-2.652 5.342-4.676 5.272-2.023-.07-4.536-.562-5.652-4.359l4.047-1.757s-.21 3.796 1.885 3.726c2.093-.07 1.395-1.687 1.116-2.46-.279-.774.07-4.78.07-4.78s-4.327-.493-4.466-2.11c-.14-1.617 1.256-2.742 1.256-4.429 0-1.687-.698-2.6-.698-2.6l2.791-2.531zm45.99-1.406-4.257 1.406s-.559 7.38-.838 9.209c-.279 1.827 1.815 4.077 4.118 4.147 2.303.07 4.047-1.827 4.815-3.585.768-1.757-.07-2.671.488-3.374.559-.703.14-.914.14-.914l-3.42.281s-.279 1.336-.139 3.023-1.884 3.023-2.303 1.195c-.419-1.828.488-3.656 1.047-6.678.307-1.665.488-4.78.349-4.71zm-54.081-1.54s-2.25.055-4.064.125c-1.815.07-7.802 1.134-7.663 7.531.14 6.398 8.524 7.594 9.71 7.594 1.187 0 1.52-.219 1.52-.219v-6.312l3.568-.156.062-3.094-3.288-.063.155-5.406zm-3.785 2.031-.186 10.344c.14.14-4.126-.72-4.126-5.219 0-4.499 4.312-5.125 4.312-5.125zm50.957 1.828c-1.354 3.936-1.577 8.062-.698 12.373 0 0-3.611-.245-4.257-.492-1.567-.6-.562-6.827.21-6.749h-6.421l1.954-3.726c3.272 1.358 6.311.606 9.212-1.406zm-115.732 1.235-8.283.062.093 4.657 3.133-.094-.186-1.875h1.644s.156 2.267.156 4.469c0 2.201 1.8 3.547 3.908 3.468 2.108-.078 4.545-.557 4.623-3.78.097-4.01-4.933-3.75-4.933-3.75l-.155-3.157zm1.086 5.594c.089-.02.185 0 .28 0 .754 0 1.364.634 1.364 1.437s-.61 1.469-1.365 1.469c-.754 0-1.365-.666-1.365-1.469 0-.703.463-1.302 1.086-1.437zm11.17-5.833 3.67-.157s.155 4.953.546 6.526c.39 1.572 1.795 1.887 1.951 1.415.156-.472.156-3.066.156-3.066l2.966.078s.703 6.055-3.512 5.976c-4.215-.079-5.464-2.359-5.542-4.875-.078-2.516-.156-5.425-.234-5.897zm-53.578-3.011c-3.333-.126-7.999 2.701-8.097 7.812-.184 9.671 11.417 7 11.417 7v-7.937h2.264v2.75l2.947-.094v-5.906s-4.743-.063-5.211-.063c.205-2.358-1.32-3.487-3.32-3.562zm-.992 4.469c.152-.001.296.011.403.03l.062 7.407c-.312-.079-3.817.133-3.66-3.562.136-3.234 2.124-3.87 3.195-3.875zm15.48-2.25c-1.658 0-3.41.919-3.537 4.093-.127 3.175 2.022 3.274 2.978 3.313 1.952.078 2.575-.094 2.575-.094v4.5h6.856v-3l-3.412.094.062-8.906h-5.522zm1.675 2.875c.249.012.403.03.403.03v2.376c-2.104.18-2.824.047-2.73-1.344.071-1.043 1.58-1.1 2.327-1.062zm13.687-1.769-.157 11.402h-3.356l-.078-7.863-2.888-.079c-1.06-1.304-.642-2.442.156-3.538l6.323.078zm39.112-.245-.15 10.92h-3.215l-.074-7.53-2.767-.076c-1.015-1.249-.615-2.34.15-3.39l6.056.076zm-17.564-.155-.151 11.041h-3.25l-.076-7.614-2.797-.077c-1.026-1.262-.622-2.365.151-3.426l6.123.076z" style="opacity:.65;fill:#000;fill-opacity:1;stroke:#050403;stroke-width:1.10000002;stroke-linecap:butt;stroke-linejoin:miter;stroke-miterlimit:4;stroke-opacity:.83591303;stroke-dasharray:none" transform="translate(32.825 16.84) scale(.09633)"/><path d="M434.751 478.316s.914-.562 1.406-.562c.492 0 2.385-2.422 2.531-2.039.914 2.39 2.11 2.812 6.749 1.406.21 1.687-1.125 4.007-1.406 4.991-.281.984.14 1.898 1.687 1.758.21.421.844 2.882-2.671 2.741-3.515-.14-3.164-3.515-2.039-6.045-3.989 1.51-5.212-.264-6.257-2.25zm-45.617-4.156-2.75 2.594c1.571 1.8 3.43 2.512 5.563 2.063-1.275 2.513-1.777 5.335-2.125 8.218l3.75-.156c.14-3.655.883-5.18 2.218-6.656 1.336-1.476 3.47-.844 3.47-.844s-.938 2.157-.938 3.844c0 1.687 1.203 4.29 4.156 4.5 2.953.21 3.086-.196 4.562-1.531 1.576-1.426 1.915-4.727 2.125-6.625.211-1.898-.218-2.383-1.062-3.157-.844-.773-2.305-.492-2.656-.562-.352-.07-2.25 1.125-2.25 1.125s-.774-1.18-1.688-1.25c-.914-.07-2.125 1.68-2.687 1.75-.563.07-2.032-.219-2.032-.219l-.062-2.25c-3.364 2.842-5.726 1.923-7.594-.844zm15.438 4.063c.784-.101 1.465.483 1.281 1.344-.145.677-1.133 3.93-1.406 4.593-.492 1.196-2.39 1.18-2.25-.156.393-1.726 1.117-5.336 2.031-5.687.114-.044.232-.08.344-.094zm-21.63-3.492c4.569 2.742-1.688 8.014 1.827 8.928-.153-2.196.411-3.944 1.758-5.202l2.53 2.179c-1.406 1.828-1.757 6.257-1.757 10.123 0 3.866-2.671 5.343-4.71 5.272-2.039-.07-4.57-.562-5.694-4.358l4.077-1.758s-.21 3.796 1.898 3.726c2.109-.07 1.406-1.687 1.125-2.46-.281-.774.07-4.78.07-4.78s-4.358-.493-4.499-2.11c-.14-1.616 1.265-2.741 1.265-4.428 0-1.687-.703-2.601-.703-2.601l2.812-2.531zm46.326-1.406-4.288 1.406s-.562 7.381-.844 9.209c-.28 1.828 1.828 4.077 4.148 4.148 2.32.07 4.077-1.828 4.85-3.586.774-1.757-.07-2.671.493-3.374.562-.703.14-.914.14-.914l-3.444.281s-.282 1.336-.141 3.023c.14 1.687-1.898 3.023-2.32 1.195-.422-1.827.492-3.655 1.055-6.678.31-1.665.492-4.78.351-4.71zm-54.478-1.54s-2.266.055-4.093.125c-1.828.07-7.86 1.135-7.719 7.532.14 6.397 8.586 7.593 9.781 7.593 1.195 0 1.531-.218 1.531-.218v-6.313l3.594-.156.063-3.094-3.313-.062.156-5.407zm-3.812 2.032-.188 10.343c.141.141-4.156-.72-4.156-5.218 0-4.5 4.344-5.125 4.344-5.125zm51.33 1.828c-1.364 3.936-1.588 8.062-.702 12.372 0 0-3.638-.244-4.289-.492-1.578-.6-.566-6.826.211-6.748h-6.467l1.968-3.726c3.296 1.357 6.358.606 9.28-1.406zm-116.58 1.234-8.344.063.094 4.656 3.156-.094-.187-1.875h1.656s.156 2.267.156 4.469c0 2.202 1.815 3.547 3.938 3.469 2.123-.079 4.577-.558 4.656-3.781.098-4.01-4.969-3.75-4.969-3.75l-.156-3.157zm1.094 5.594c.09-.02.186 0 .281 0 .76 0 1.375.634 1.375 1.437 0 .804-.615 1.47-1.375 1.47s-1.375-.666-1.375-1.47c0-.702.467-1.301 1.094-1.437zm11.252-5.833 3.696-.157s.157 4.954.55 6.526c.393 1.573 1.809 1.887 1.966 1.416.157-.472.157-3.067.157-3.067l2.988.079s.708 6.054-3.538 5.975c-4.246-.078-5.504-2.358-5.583-4.875-.078-2.516-.157-5.425-.236-5.897zm-53.971-3.01c-3.358-.127-8.058 2.7-8.156 7.812-.186 9.67 11.5 7 11.5 7v-7.938h2.281v2.75l2.969-.093v-5.907s-4.779-.062-5.25-.062c.206-2.36-1.33-3.487-3.344-3.563zm-1 4.468c.154 0 .298.012.406.031l.063 7.406c-.315-.078-3.845.133-3.688-3.562.138-3.234 2.14-3.87 3.219-3.875zm15.594-2.25c-1.67 0-3.434.92-3.563 4.094-.128 3.174 2.037 3.274 3 3.312 1.966.079 2.594-.093 2.594-.093v4.5h6.906v-3l-3.437.093.062-8.906h-5.562zm1.687 2.875c.25.013.406.031.406.031v2.375c-2.119.18-2.845.047-2.75-1.344.072-1.042 1.592-1.1 2.344-1.062zm13.787-1.768-.157 11.401h-3.381l-.079-7.863-2.909-.078c-1.067-1.304-.647-2.443.157-3.539l6.37.079zm39.4-.246-.151 10.921h-3.239l-.075-7.531-2.787-.076c-1.022-1.249-.62-2.34.151-3.389l6.1.075zm-17.694-.155-.152 11.041h-3.274l-.076-7.614-2.817-.076c-1.034-1.263-.627-2.365.152-3.427l6.168.076z" style="fill:#fff17c;fill-opacity:1;stroke:#353325;stroke-width:.30000001;stroke-linecap:butt;stroke-linejoin:miter;stroke-miterlimit:4;stroke-opacity:1;stroke-dasharray:none" transform="translate(32.825 16.84) scale(.09633)"/><path d="m300.022 521.425 3.89-6.175s6.743 1.392 10.16 1.356c6.073-.064 11.934-2.943 18.006-2.793 6.16.152 11.942 3.738 18.103 3.729 5.3-.008 10.263-3.172 15.562-3.253 5.494-.084 10.751 3.283 16.23 2.877 4.66-.345 13.29-4.454 13.29-4.454l2.961 4.145c-7.105 5.244-10.92 5.28-16.833 5.917-5.536.595-11.012-2.28-16.576-2.06-4.918.194-9.541 2.977-14.463 2.969-6.253-.01-12.114-3.601-18.363-3.831-6.078-.224-12.01 2.184-18.088 2.404-4.632.167-13.88-.831-13.88-.831zm16.297-8.026 2.265-6.606c4.97-1.698 7.76-1.754 11.706-1.757 6.59-.006 12.969 2.773 19.559 2.9 6.54.128 12.967-2.2 19.507-2.121 7.177.085 12.894 3.055 12.894 3.055l3.02 6.165s-8.336-3.221-16.233-3.147c-6.767.064-12.608 2.385-20.192 2.117-6.27-.222-12.347-2.699-18.62-2.749-4.675-.036-10.949.885-13.906 2.143zm-2.651-8.627 1.356-7.724c3.397-1.321 9.73-3.653 14.824-3.722 9-.124 12.949 4.58 19.685 4.569 6.055-.01 11.627-4.048 17.68-4.166 5.786-.113 9.742 3.319 17.04 3.319l2.752 6.986c-10.254.881-12.999-3.107-19.602-2.913-5.848.171-11.328 3.61-17.178 3.593-6.928-.02-13.39-4.478-20.318-4.375-6.568.096-16.24 4.433-16.24 4.433z" style="fill:#ffee97;fill-opacity:1;stroke:#3e2d2d;stroke-width:.30000001;stroke-linecap:butt;stroke-linejoin:miter;stroke-miterlimit:4;stroke-opacity:1;stroke-dasharray:none" transform="translate(32.825 16.84) scale(.09633)"/><g transform="translate(32.825 16.84) scale(.09633)"><path d="m368.97 414.347 20.247 1.103s-1.114 16.633-1.576 21.98c-.467 5.411 4.31 7.773 7.9 6.603 4.599-1.499 6.045-6.326 2.499-13.3l20.089-5.435c3.781 8.508 1.497 33.796-24.973 35.057-12.186.58-26.343-4.473-25.677-21.711.486-12.565 1.407-24.213 1.491-24.297z" style="fill:#4d4d4d;stroke:#2a2a2a;stroke-width:3.5999999;stroke-linecap:butt;stroke-linejoin:miter;stroke-miterlimit:4;stroke-opacity:.80805;stroke-dasharray:none"/><path d="m368.689 413.222 20.246 1.103s-1.114 16.634-1.575 21.98c-.467 5.412 4.31 7.773 7.9 6.603 4.598-1.498 6.045-6.326 2.499-13.3l20.089-5.435c3.781 8.508 1.496 33.796-24.974 35.057-12.185.58-26.343-4.472-25.676-21.711.486-12.565 1.407-24.213 1.491-24.297z" style="fill:#ffeb84;fill-opacity:1;stroke:#000;stroke-width:.30000001;stroke-linecap:butt;stroke-linejoin:miter;stroke-miterlimit:4;stroke-opacity:1;stroke-dasharray:none"/><path d="M398.948 417.514s-1.45-11.772-14.661-12.95c-4.728-.423-6.013-.332-9.907-1.99-3.97-1.688-4.945-6.381-4.51-11.573.706-8.444 1.343-11.85 1.954-16.616.611-4.765 3.421-5.62 7.698-5.498 4.276.122 25.766 1.026 32.377 1.466 11.514.767 10.296 18.24 4.52 23.703l-15.394-1.1s.366-9.53-5.62-9.896c-5.987-.367-6.72 4.276-6.842 7.453-.122 3.176 1.71 4.154 5.498 4.765 3.787.61 14.658 4.196 17.471 7.208 1.9 2.033 3.13 3.69 3.91 11.73l-16.494 3.298z" style="fill:#4d4d4d;stroke:#2a2a2a;stroke-width:3.5999999;stroke-linecap:butt;stroke-linejoin:miter;stroke-miterlimit:4;stroke-opacity:.80805;stroke-dasharray:none"/><path d="M398.667 416.67s-1.45-11.772-14.662-12.95c-4.727-.422-6.012-.332-9.907-1.989-3.97-1.689-4.944-6.382-4.51-11.573.707-8.444 1.344-11.852 1.955-16.617.611-4.764 3.421-5.62 7.697-5.498 4.277.123 25.766 1.026 32.378 1.467 11.514.767 10.295 18.239 4.52 23.702l-15.394-1.1s.366-9.53-5.62-9.896c-5.987-.366-6.72 4.276-6.842 7.453-.123 3.177 1.71 4.154 5.498 4.765 3.787.61 14.657 4.196 17.471 7.208 1.899 2.033 3.13 3.69 3.91 11.73l-16.494 3.298z" style="fill:#ffeb84;fill-opacity:1;stroke:#000;stroke-width:.30000001;stroke-linecap:butt;stroke-linejoin:miter;stroke-miterlimit:4;stroke-opacity:1;stroke-dasharray:none"/><path d="m393.094 304.281-19.406 7.188s-2.422 9.94 6.03 11.218c2.371.36.762.411 7.157 1.032 3.416.33 3.319 4.994-.219 4.718-3.98-.31-7.37-.522-9.312-.625-1.943-.102-4.992.623-6.219 5.532-1.227 4.908-2.04 16.472 2.563 21.687 4.601 5.215 9.805 8.458 18.906 8.969 9.1.511 11.859.008 18.812-5.719 6.954-5.726 7.787-15.736 8.094-18.906.307-3.17-.947-6.44-5.344-7.156-4.397-.716-7.466.294-6.75-5.125.716-5.42.827-5.606 1.032-8.47.204-2.862-1.333-5.033-4.094-5.75-2.761-.715-5.726-1.695-7.969-2.53-2.603-.97-3.51-2.776-3.281-6.063zm-3 34.625a6.3 6.3 0 0 1 .781.031c2.288.234 5.609.803 8.625.907 3.017.104 3.708 2.79 3.188 5.312-.52 2.522-1.022 7.7-8.532 6.625-3.685-.527-7.031-1.318-7.187-5.375-.156-4.057-.114-4.908.406-5.844.455-.819 1.044-1.62 2.719-1.656z" style="fill:#4d4d4d;stroke:#2a2a2a;stroke-width:3.5999999;stroke-linecap:butt;stroke-linejoin:miter;stroke-miterlimit:4;stroke-opacity:.80805;stroke-dasharray:none"/><path d="m393.375 302.594-19.406 7.187S371.547 319.721 380 321c2.37.359.762.411 7.156 1.031 3.416.332 3.32 4.995-.219 4.719-3.98-.31-7.37-.523-9.312-.625-1.943-.102-4.992.623-6.219 5.531-1.227 4.909-2.039 16.473 2.563 21.688 4.601 5.215 9.805 8.457 18.906 8.969 9.1.51 11.859.008 18.813-5.72 6.953-5.726 7.786-15.736 8.093-18.906.307-3.17-.946-6.44-5.344-7.156-4.397-.716-7.465.295-6.75-5.125.716-5.42.827-5.605 1.032-8.469.204-2.863-1.333-5.034-4.094-5.75-2.761-.715-5.726-1.695-7.969-2.53-2.603-.97-3.51-2.776-3.281-6.063zm-3 34.625a6.3 6.3 0 0 1 .781.031c2.289.234 5.609.802 8.625.906 3.017.104 3.708 2.79 3.188 5.313-.52 2.522-1.021 7.7-8.531 6.625-3.686-.528-7.032-1.319-7.188-5.375-.156-4.057-.114-4.908.406-5.844.455-.82 1.044-1.621 2.719-1.656z" style="fill:#ffeb84;fill-opacity:1;stroke:#000;stroke-width:.30000001;stroke-linecap:butt;stroke-linejoin:miter;stroke-miterlimit:4;stroke-opacity:1;stroke-dasharray:none"/><g id="f"><path d="M432.456 420.193c-7.586.24-10.413 8.765-9.41 15.106.183 7.81-.059 17.614 7.817 22.035 4.811 3.005 9.179 2.979 14.727 2.815.655-.063 3.184-14.207.906-14.77-3.465-.85-6.742-6.619-3.668-9.158 4.475.481 9.887-.21 13.949 1.16 1.405 3.97-1.053 8.08-6.433 8.356-.164.668-3.247 13.333.811 15.254 8.147 1.51 18.156.003 21.976-8.237 2.487-7.827 3.73-16.571 2.526-24.68-2.603-7.98-12.687-6.519-19.266-6.941-7.975-.319-15.954-.888-23.935-.94z" style="fill:#37362b;fill-opacity:.90712101;stroke:none"/><path d="m445.097 457.167.945-11.807c-8.124-2.456-8.785-13.98-2.928-13.697 3.873.187 8.887.457 13.602.85 4.534.378 3.212 12.375-4.534 13.036l-.85 12.185c9.442.909 15.768 1.006 20.78-7.368 2.863-6.9 3.024-20.498 3.024-22.576 0-2.078-1.89-6.99-7.746-7.368-5.857-.378-27.677-1.417-34.384-1.606-6.706-.188-8.596 5.29-8.973 8.219-.378 2.928 0 18.42 1.889 21.536 1.889 3.118 5.479 8.974 19.175 8.596z" style="fill:#ffed76;fill-opacity:1;stroke:#000;stroke-width:.30000001;stroke-linecap:butt;stroke-linejoin:miter;stroke-miterlimit:4;stroke-opacity:1;stroke-dasharray:none"/><path d="M431.781 422.875c-5.863 1.783-3.428 9.748-3.781 14.344-.426 6.484 2.28 14.582 9.719 15.312 2.039.742 4.803 1.64 4-1.594 1.846-4.447-4.398-5.036-5.188-8.875-3.34-5.56-.132-15.467 7.344-14.25 6.334.68 16.61-1.944 19.031 6.094 1.597 5.723-1.53 12.339-6.937 14.781-.245 2.033-1.687 7.438 2.312 5.438 8.162 1.02 12.983-8.17 12-15.281.109-4.325 3.226-11.28-1.594-13.906-9.567-2.066-19.742-.6-29.53-1.89-2.456-.085-4.921-.225-7.376-.173z" style="fill:#ebbd4f;fill-opacity:1;stroke:#9a6722;stroke-width:1.5;stroke-linecap:butt;stroke-linejoin:miter;stroke-miterlimit:4;stroke-opacity:1;stroke-dasharray:none"/></g><use transform="translate(1.752 -48.608)" width="744.094" height="1052.362" xlink:href="#f"/><use transform="translate(3.941 -95.026)" width="744.094" height="1052.362" xlink:href="#f"/><path d="M372.469 417.5c.084 10.593-4.752 23.316 2.812 32.313 8.89 8.09 23.936 6.976 33-.344 5.41-5.124 7.835-12.975 6.719-20.281-3.777 1.186-8.498 1.512-11.656 3.437 2.79 7.751-4.807 17.132-13.094 14.156-6.796-2.123-8.054-10.431-6.45-16.463-.947-3.63 3.28-11.834-1.206-12.35-3.36-.193-6.81-.445-10.125-.468zm4.594-45.406c-3.413 1.778-1.443 7.072-2.625 10.312.168 5.04-3.544 12.534 1.843 15.906 7.953 2.03 18.215 1.35 22.969 9.563 1.515 1.468 1.397 4.99 4.188 3.531 2.412-.622 8.988.816 6.906-3.594-3.513-7.778-13.457-7.887-20.5-10.125-9.148-3.237-6.552-18.398 2.781-19.28 6.445-1.646 11.68 4.25 11.906 10.25 3.25-1.465 7.903 2.235 10.375-.282 2.193-4.631 3.01-13.96-3.656-14.875-11.388-.551-22.793-1.293-34.188-1.406zm.468-59.375c-.412 4.617 5.129 5.198 8.5 4.906 5.436-.124 10.452 6.678 5.875 11.094-4.202 4.742-11.074-.37-15.656 2.062-2.985 6.148-2.468 14.325.969 20.094 6.495 7.878 18.878 9.668 27.875 5.688 7.314-4.075 11.785-13.247 10.187-21.375-3.893-1.772-10.863-.682-11.594-6.594-1.366-4.51 3.04-9.724.125-13.469-4.755-1.662-11.003-2.067-13.562-7.125l-12.719 4.719zM390.5 333.28c6.451.059 17.372.189 16.656 9.5.23 7.17-6.91 13.439-13.969 11.281-6.1-.27-11.187-5.826-10.125-12.062-.253-4.33 2.716-9.213 7.438-8.719z" style="fill:#ebbd4f;fill-opacity:1;stroke:#9a6722;stroke-width:1.5;stroke-linecap:butt;stroke-linejoin:miter;stroke-miterlimit:4;stroke-opacity:1;stroke-dasharray:none"/></g><g mask="url(#g)" transform="translate(32.825 16.84) scale(.09633)"><g id="i" style="opacity:.86786798"><path d="M334.99 370.344s-.062 10.59-.062 13.32c0 3.475 7.915 9.845 7.915 9.845s6.666-5.589 6.757-9.845c.086-4.058.09-13.249.09-13.249l-14.7-.071z" style="fill:url(#h);fill-opacity:1;stroke:none"/><path d="M334.95 380.952c.073.71.707.447.727 1.051.166 4.919 4.19 6.807 7.107 8.57l.019 2.814c-.089.124-7.499-6.47-7.732-8.96-.104-1.119-.18-1.612-.121-3.475z" style="fill:#391313;fill-opacity:1;stroke:none"/><path d="M342.798 393.418s5.226-4.334 6.279-7.696.405-2.917.405-2.917-.405 2.512-1.782 3.848c-1.378 1.337-4.902 3.97-4.902 3.97v2.795z" style="fill:#a4661e;fill-opacity:1;stroke:none"/><path d="M342.758 389.53s.567.08 2.147-1.216c1.58-1.296 2.957-2.47 3.483-3.483.527-1.013.689-1.053.77-.73.08.325-1.337 2.796-2.309 3.687-.972.89-3.24 2.592-3.605 2.876-.365.283-.081.567-.972.121-.891-.446-4.982-3.524-5.387-4.132-.405-.607-1.376-3.361-1.256-3.767.12-.405.046-1.545.284-1.255.335.408.567.89.688 1.255.122.365.365 2.026 1.094 2.795.729.77 2.795 2.43 3.605 2.957.81.527 1.539.932 1.458.891z" style="fill:#fff;fill-opacity:1;stroke:none"/></g><use transform="translate(7.13 -12.166)" width="744.094" height="1052.362" xlink:href="#i"/><use transform="translate(-7.719 -12.363)" width="744.094" height="1052.362" xlink:href="#i"/><use transform="translate(-.327 -24.53)" width="744.094" height="1052.362" xlink:href="#i"/><use transform="translate(-15.372 -24.595)" width="744.094" height="1052.362" xlink:href="#i"/><use transform="translate(14.587 -24.53)" width="744.094" height="1052.362" xlink:href="#i"/><use transform="translate(-8.765 -38.985)" width="744.094" height="1052.362" xlink:href="#i"/><use transform="translate(-23.81 -38.985)" width="744.094" height="1052.362" xlink:href="#i"/><use transform="translate(6.28 -38.854)" width="744.094" height="1052.362" xlink:href="#i"/><use transform="translate(21.324 -38.985)" width="744.094" height="1052.362" xlink:href="#i"/><use transform="translate(-17.007 -54.16)" width="744.094" height="1052.362" xlink:href="#i"/><use transform="translate(-.785 -54.16)" width="744.094" height="1052.362" xlink:href="#i"/><use transform="translate(14.783 -54.422)" width="744.094" height="1052.362" xlink:href="#i"/><use transform="translate(-32.182 -54.291)" width="744.094" height="1052.362" xlink:href="#i"/><use transform="translate(-8.896 -71.953)" width="744.094" height="1052.362" xlink:href="#i"/><use transform="translate(-26.165 -72.607)" width="744.094" height="1052.362" xlink:href="#i"/><use transform="translate(7.326 -71.822)" width="744.094" height="1052.362" xlink:href="#i"/><use transform="translate(22.632 -71.822)" width="744.094" height="1052.362" xlink:href="#i"/><use transform="translate(-17.661 -89.744)" width="744.094" height="1052.362" xlink:href="#i"/><use transform="translate(-33.487 -89.915)" width="744.094" height="1052.362" xlink:href="#i"/><use transform="translate(-.555 -89.915)" width="744.094" height="1052.362" xlink:href="#i"/><use transform="translate(16.466 -89.73)" width="744.094" height="1052.362" xlink:href="#i"/><use transform="translate(32.377 -89.545)" width="744.094" height="1052.362" xlink:href="#i"/><use transform="translate(47.548 -89.545)" width="744.094" height="1052.362" xlink:href="#i"/><use transform="translate(61.794 -89.36)" width="744.094" height="1052.362" xlink:href="#i"/><use transform="translate(76.41 -76.04)" width="744.094" height="1052.362" xlink:href="#i"/><use transform="translate(92.69 -75.485)" width="744.094" height="1052.362" xlink:href="#i"/><use transform="translate(108.787 -75.3)" width="744.094" height="1052.362" xlink:href="#i"/><use transform="translate(124.513 -75.3)" width="744.094" height="1052.362" xlink:href="#i"/><use transform="translate(76.965 -88.62)" width="744.094" height="1052.362" xlink:href="#i"/><use transform="translate(92.69 -88.62)" width="744.094" height="1052.362" xlink:href="#i"/><use transform="translate(108.602 -88.25)" width="744.094" height="1052.362" xlink:href="#i"/><use transform="translate(124.328 -88.25)" width="744.094" height="1052.362" xlink:href="#i"/><use transform="translate(-26.087 -104.901)" width="744.094" height="1052.362" xlink:href="#i"/><use transform="translate(-9.066 -104.716)" width="744.094" height="1052.362" xlink:href="#i"/><use transform="translate(7.77 -104.901)" width="744.094" height="1052.362" xlink:href="#i"/><use transform="translate(23.866 -104.716)" width="744.094" height="1052.362" xlink:href="#i"/><use transform="translate(38.852 -104.716)" width="744.094" height="1052.362" xlink:href="#i"/><use transform="translate(54.393 -104.346)" width="744.094" height="1052.362" xlink:href="#i"/><use transform="translate(69.934 -104.346)" width="744.094" height="1052.362" xlink:href="#i"/><use transform="translate(85.66 -104.346)" width="744.094" height="1052.362" xlink:href="#i"/><use transform="translate(101.201 -104.346)" width="744.094" height="1052.362" xlink:href="#i"/><use transform="translate(117.852 -103.976)" width="744.094" height="1052.362" xlink:href="#i"/><use transform="translate(-1.295 -120.257)" style="opacity:.70999995" width="744.094" height="1052.362" xlink:href="#i"/><use transform="translate(-17.391 -120.627)" style="opacity:.70999995" width="744.094" height="1052.362" xlink:href="#i"/><use transform="translate(-34.967 -121.737)" style="opacity:.70999995" width="744.094" height="1052.362" xlink:href="#i"/><use transform="translate(14.616 -120.627)" style="opacity:.70999995" width="744.094" height="1052.362" xlink:href="#i"/><use transform="translate(54.578 -117.112)" style="opacity:.70999995" width="744.094" height="1052.362" xlink:href="#i"/><use transform="translate(70.383 -116.955)" style="opacity:.70999995" width="744.094" height="1052.362" xlink:href="#i"/><use transform="translate(85.82 -116.955)" style="opacity:.70999995" width="744.094" height="1052.362" xlink:href="#i"/><use transform="translate(101.518 -116.955)" style="opacity:.70999995" width="744.094" height="1052.362" xlink:href="#i"/><use transform="translate(116.694 -116.955)" style="opacity:.70999995" width="744.094" height="1052.362" xlink:href="#i"/><use transform="translate(54.422 -130.299)" style="opacity:.70999995" width="744.094" height="1052.362" xlink:href="#i"/><use transform="translate(70.906 -130.561)" style="opacity:.70999995" width="744.094" height="1052.362" xlink:href="#i"/><use transform="translate(86.343 -129.776)" style="opacity:.70999995" width="744.094" height="1052.362" xlink:href="#i"/><use transform="translate(101.78 -129.253)" style="opacity:.70999995" width="744.094" height="1052.362" xlink:href="#i"/><use transform="rotate(-14.56 201.085 803.078)" width="744.094" height="1052.362" xlink:href="#i"/><use transform="rotate(-6.865 -26.312 1382.02)" width="744.094" height="1052.362" xlink:href="#i"/><use transform="rotate(-5.409 -114.355 1470.597)" width="744.094" height="1052.362" xlink:href="#i"/><use transform="translate(-131.608 -50.76)" width="744.094" height="1052.362" xlink:href="#i"/><use transform="translate(-114.601 -52.33)" width="744.094" height="1052.362" xlink:href="#i"/><use transform="translate(-97.07 -52.067)" width="744.094" height="1052.362" xlink:href="#i"/><use transform="translate(-138.41 -63.842)" width="744.094" height="1052.362" xlink:href="#i"/><use transform="translate(-122.45 -63.58)" width="744.094" height="1052.362" xlink:href="#i"/><use transform="translate(-107.013 -63.318)" width="744.094" height="1052.362" xlink:href="#i"/><use transform="translate(-91.576 -63.58)" width="744.094" height="1052.362" xlink:href="#i"/><use transform="translate(-130.561 -75.615)" width="744.094" height="1052.362" xlink:href="#i"/><use transform="translate(-113.816 -75.354)" width="744.094" height="1052.362" xlink:href="#i"/><use transform="translate(-96.285 -75.354)" width="744.094" height="1052.362" xlink:href="#i"/><use transform="translate(-121.665 -88.96)" width="744.094" height="1052.362" xlink:href="#i"/><use transform="translate(-104.135 -88.436)" width="744.094" height="1052.362" xlink:href="#i"/><use transform="translate(-87.913 -90.268)" width="744.094" height="1052.362" xlink:href="#i"/><use transform="translate(-130.823 -104.658)" width="744.094" height="1052.362" xlink:href="#i"/><use transform="translate(-137.677 -89.212)" width="744.094" height="1052.362" xlink:href="#i"/><use transform="translate(-112.508 -104.397)" width="744.094" height="1052.362" xlink:href="#i"/><use transform="translate(-94.716 -105.705)" width="744.094" height="1052.362" xlink:href="#i"/><use transform="translate(-77.709 -105.443)" width="744.094" height="1052.362" xlink:href="#i"/><use transform="translate(-121.665 -120.619)" style="opacity:.70999995" width="744.094" height="1052.362" xlink:href="#i"/><use transform="translate(-103.612 -120.357)" style="opacity:.70999995" width="744.094" height="1052.362" xlink:href="#i"/><use transform="translate(-85.035 -120.88)" style="opacity:.70999995" width="744.094" height="1052.362" xlink:href="#i"/><use transform="translate(-68.551 -121.665)" style="opacity:.70999995" width="744.094" height="1052.362" xlink:href="#i"/><use transform="translate(-51.806 -120.88)" style="opacity:.70999995" width="744.094" height="1052.362" xlink:href="#i"/><use transform="translate(-103.612 -135.009)" style="opacity:.70999995" width="744.094" height="1052.362" xlink:href="#i"/><use transform="translate(-85.558 -135.009)" style="opacity:.70999995" width="744.094" height="1052.362" xlink:href="#i"/><use transform="translate(-68.29 -135.009)" style="opacity:.70999995" width="744.094" height="1052.362" xlink:href="#i"/><use transform="translate(-51.806 -135.009)" style="opacity:.70999995" width="744.094" height="1052.362" xlink:href="#i"/><use transform="translate(-102.042 -149.661)" style="opacity:.52999998" width="744.094" height="1052.362" xlink:href="#i"/><use transform="translate(-85.82 -149.923)" style="opacity:.52999998" width="744.094" height="1052.362" xlink:href="#i"/><use transform="translate(-68.028 -149.923)" style="opacity:.52999998" width="744.094" height="1052.362" xlink:href="#i"/><use transform="translate(-51.806 -149.923)" style="opacity:.52999998" width="744.094" height="1052.362" xlink:href="#i"/><use transform="translate(-68.29 -165.622)" style="opacity:.52999998" width="744.094" height="1052.362" xlink:href="#i"/><use transform="translate(-50.76 -166.406)" style="opacity:.52999998" width="744.094" height="1052.362" xlink:href="#i"/><use transform="translate(-9.32 -135.13)" style="opacity:.56000001" width="387.402" height="387.146" xlink:href="#i"/><use transform="translate(8.32 -135.13)" style="opacity:.52999998" width="387.402" height="387.146" xlink:href="#i"/></g><path d="M394.917 514.42s-7.955 4.052-13.323 4.58c-5.668.557-11.015-2.348-16.625-2.25-5.397.094-10.406 3.012-15.813 3.063-6.169.057-11.785-3.661-17.906-3.97-5.55-.278-10.96 1.897-16.469 2.438-3.486.343-7.018-.265-10.5-.687l-1.22 2.028c3.647.495 8.177.974 11.845.66 5.453-.468 10.775-2.819 16.25-2.438 6.148.427 11.804 3.894 18.031 3.968 5.42.065 10.437-3.101 15.813-3.062 5.68.041 11.064 2.723 16.813 2.25 6.038-.497 14.16-4.528 14.16-4.528l-1.056-2.052zm-65.823-7.295c-3.477-.368-6.823.486-10.125 1.438l-.584 2.455c3.77-1.143 6.99-1.877 10.584-1.8 6.842.352 15.324 2.872 20.375 2.97 6.544-.071 12.915-1.922 19.437-2.25 4.55.023 9.372 1.561 13.931 2.76l-.743-2.573c-4.286-1.849-9.002-2.737-13.276-2.571-6.528.253-12.627 2.363-19.318 2.54-4.347-.084-13.026-2.597-20.281-2.969zm.406-11.531c-3.738-.082-6.989 1.009-9.438 2-1.378.342-3.142.922-4.149 1.562l-.607 2.858c2.076-.56 3.977-1.664 4.89-1.998 3.672-1.268 5.313-1.672 9.242-1.828 6.43.14 12.36 4.253 20.656 4.093 4.115-.079 6.704-1.115 9.062-2 2.358-.884 4.475-1.643 8.344-1.5 3.862.144 7.017 1.184 9.75 2.063 2.733.879 5.128 1.755 7.469.875l-.906-2.438c-1.123.422-3.025-.03-5.75-.906-2.726-.877-6.2-2.03-10.47-2.188-4.262-.158-6.943.757-9.343 1.657-2.4.9-4.504 1.772-8.219 1.844-7.364.141-13.108-3.933-20.531-4.094z" style="font-size:medium;font-style:normal;font-variant:normal;font-weight:400;font-stretch:normal;text-indent:0;text-align:start;text-decoration:none;line-height:normal;letter-spacing:normal;word-spacing:normal;text-transform:none;direction:ltr;text-anchor:start;color:#000;fill:#e8b04f;fill-opacity:1;stroke:#624229;stroke-width:.5;stroke-miterlimit:4;stroke-opacity:1;stroke-dasharray:none;marker:none;visibility:visible;display:inline;overflow:visible;font-family:Andale Mono" transform="translate(32.825 16.84) scale(.09633)"/><path d="m348.015 167.09 2.897 6.816-6.034-5.693-5.928 6.023 2.831-6.951-12.787-.97 11.713-2.163-4.706-5.955 6.992 4.126 1.765-7 1.78 6.985 7.33-3.91-5.519 5.834 12.618 1.758-12.952 1.1z" style="opacity:.79879898;fill:#000;fill-opacity:1;fill-rule:nonzero;stroke:#000;stroke-width:.40000001;stroke-linecap:round;stroke-linejoin:round;stroke-miterlimit:4;stroke-opacity:1" transform="translate(32.825 16.84) scale(.09633)"/><path d="m183.385 19.03 3.797 15.575-7.91-13.008-7.77 13.762 3.71-15.883-16.761-2.217 15.354-4.94-6.17-13.61 9.166 9.43 2.314-15.995 2.333 15.961 9.608-8.933-7.233 13.329 16.54 4.016-16.978 2.512z" transform="matrix(.07348 0 0 .04216 52.808 32.05)" style="fill:#ffff8d;fill-opacity:1;fill-rule:nonzero;stroke:#eaac42;stroke-width:.69226003;stroke-linecap:round;stroke-linejoin:round;stroke-miterlimit:4;stroke-opacity:1"/><path d="M194.018 16.744a1.574 1.574 0 1 1-3.147 0 1.574 1.574 0 1 1 3.147 0z" transform="translate(47.44 31.04) scale(.09633)" style="fill:#f6de60;fill-opacity:1;fill-rule:nonzero;stroke:#c38217;stroke-width:.60000002;stroke-linecap:round;stroke-linejoin:round;stroke-miterlimit:4;stroke-opacity:1;stroke-dasharray:none"/><path d="m345.945 166.942 2.897 6.817-6.034-5.694-5.929 6.023 2.832-6.951-12.787-.97 11.713-2.163-4.707-5.955 6.993 4.126 1.764-7 1.78 6.986 7.33-3.91-5.518 5.833 12.618 1.758-12.952 1.1z" style="opacity:.79879898;fill:#000;fill-opacity:1;fill-rule:nonzero;stroke:#000;stroke-width:.40000001;stroke-linecap:round;stroke-linejoin:round;stroke-miterlimit:4;stroke-opacity:1" transform="rotate(-90 58.198 24.981) scale(.09633)"/><path d="m183.385 19.03 3.797 15.575-7.91-13.008-7.77 13.762 3.71-15.883-16.761-2.217 15.354-4.94-6.17-13.61 9.166 9.43 2.314-15.995 2.333 15.961 9.608-8.933-7.233 13.329 16.54 4.016-16.978 2.512z" transform="matrix(0 -.07348 .04216 0 48.428 63.196)" style="fill:#ffff8d;fill-opacity:1;fill-rule:nonzero;stroke:#eaac42;stroke-width:.69226003;stroke-linecap:round;stroke-linejoin:round;stroke-miterlimit:4;stroke-opacity:1"/><path d="M194.018 16.744a1.574 1.574 0 1 1-3.147 0 1.574 1.574 0 1 1 3.147 0z" transform="rotate(-90 58.027 10.566) scale(.09633)" style="fill:#f6de60;fill-opacity:1;fill-rule:nonzero;stroke:#c38217;stroke-width:.60000002;stroke-linecap:round;stroke-linejoin:round;stroke-miterlimit:4;stroke-opacity:1;stroke-dasharray:none"/><path d="m348.015 167.09 2.897 6.816-6.034-5.693-5.928 6.023 2.831-6.951-12.787-.97 11.713-2.163-4.706-5.955 6.992 4.126 1.765-7 1.78 6.985 7.33-3.91-5.519 5.834 12.618 1.758-12.952 1.1z" style="opacity:.79879898;fill:#000;fill-opacity:1;fill-rule:nonzero;stroke:#000;stroke-width:.40000001;stroke-linecap:round;stroke-linejoin:round;stroke-miterlimit:4;stroke-opacity:1" transform="rotate(90 41.088 57.895) scale(.09633)"/><path d="m347.081 167.836 2.897 6.817-6.034-5.693-5.928 6.023 2.831-6.951-12.787-.97 11.713-2.163-4.707-5.956 6.993 4.127 1.765-7 1.78 6.985 7.33-3.91-5.519 5.834 12.618 1.758-12.952 1.1z" style="fill:#ffff8d;fill-opacity:1;fill-rule:nonzero;stroke:#eaac42;stroke-width:.40000001;stroke-linecap:round;stroke-linejoin:round;stroke-miterlimit:4;stroke-opacity:1" transform="rotate(90 41.088 57.895) scale(.09633)"/><path d="M194.018 16.744a1.574 1.574 0 1 1-3.147 0 1.574 1.574 0 1 1 3.147 0z" transform="rotate(90 26.635 58.019) scale(.09633)" style="fill:#f6de60;fill-opacity:1;fill-rule:nonzero;stroke:#c38217;stroke-width:.60000002;stroke-linecap:round;stroke-linejoin:round;stroke-miterlimit:4;stroke-opacity:1;stroke-dasharray:none"/><path d="m346.782 167.61 2.897 6.818-6.035-5.694-5.928 6.023 2.832-6.95-12.787-.971 11.713-2.162-4.707-5.956 6.992 4.126 1.765-7 1.78 6.986 7.33-3.91-5.518 5.834 12.618 1.757-12.952 1.1z" style="opacity:.79879898;fill:#000;fill-opacity:1;fill-rule:nonzero;stroke:#000;stroke-width:.40000001;stroke-linecap:round;stroke-linejoin:round;stroke-miterlimit:4;stroke-opacity:1" transform="rotate(-60.742 63.9 13.038) scale(.09633)"/><path d="m183.385 19.03 3.797 15.575-7.91-13.008-7.77 13.762 3.71-15.883-16.761-2.217 15.354-4.94-6.17-13.61 9.166 9.43 2.314-15.995 2.333 15.961 9.608-8.933-7.233 13.329 16.54 4.016-16.978 2.512z" transform="matrix(.03591 -.0641 .03678 .0206 44.332 52.408)" style="fill:#ffff8d;fill-opacity:1;fill-rule:nonzero;stroke:#eaac42;stroke-width:.69226003;stroke-linecap:round;stroke-linejoin:round;stroke-miterlimit:4;stroke-opacity:1"/><path d="M194.018 16.744a1.574 1.574 0 1 1-3.147 0 1.574 1.574 0 1 1 3.147 0z" transform="rotate(-60.742 68.708 -6.534) scale(.09633)" style="fill:#f6de60;fill-opacity:1;fill-rule:nonzero;stroke:#c38217;stroke-width:.60000002;stroke-linecap:round;stroke-linejoin:round;stroke-miterlimit:4;stroke-opacity:1;stroke-dasharray:none"/><path d="m346.985 167.27 2.898 6.817-6.035-5.693-5.928 6.023 2.831-6.951-12.787-.97 11.713-2.163-4.706-5.956 6.992 4.127 1.765-7 1.78 6.985 7.33-3.91-5.519 5.834 12.618 1.758-12.952 1.1z" style="opacity:.79879898;fill:#000;fill-opacity:1;fill-rule:nonzero;stroke:#000;stroke-width:.40000001;stroke-linecap:round;stroke-linejoin:round;stroke-miterlimit:4;stroke-opacity:1" transform="matrix(.07887 -.0553 .0553 .07887 20.58 41.453)"/><path d="m183.385 19.03 3.797 15.575-7.91-13.008-7.77 13.762 3.71-15.883-16.761-2.217 15.354-4.94-6.17-13.61 9.166 9.43 2.314-15.995 2.333 15.961 9.608-8.933-7.233 13.329 16.54 4.016-16.978 2.512z" transform="matrix(.06016 -.0422 .0242 .03452 45.674 42.434)" style="fill:#ffff8d;fill-opacity:1;fill-rule:nonzero;stroke:#eaac42;stroke-width:.69226003;stroke-linecap:round;stroke-linejoin:round;stroke-miterlimit:4;stroke-opacity:1"/><path d="M194.018 16.744a1.574 1.574 0 1 1-3.147 0 1.574 1.574 0 1 1 3.147 0z" transform="matrix(.07887 -.0553 .0553 .07887 40.7 44.689)" style="fill:#f6de60;fill-opacity:1;fill-rule:nonzero;stroke:#c38217;stroke-width:.60000002;stroke-linecap:round;stroke-linejoin:round;stroke-miterlimit:4;stroke-opacity:1;stroke-dasharray:none"/><path d="m348.422 166.984 2.897 6.817-6.035-5.693-5.928 6.023 2.832-6.951-12.787-.97 11.713-2.163-4.707-5.955 6.993 4.126 1.764-7 1.78 6.985 7.33-3.91-5.518 5.834 12.618 1.758-12.952 1.1z" style="opacity:.79879898;fill:#000;fill-opacity:1;fill-rule:nonzero;stroke:#000;stroke-width:.40000001;stroke-linecap:round;stroke-linejoin:round;stroke-miterlimit:4;stroke-opacity:1" transform="rotate(34.603 23.083 92.68) scale(.09633)"/><path d="m183.385 19.03 3.797 15.575-7.91-13.008-7.77 13.762 3.71-15.883-16.761-2.217 15.354-4.94-6.17-13.61 9.166 9.43 2.314-15.995 2.333 15.961 9.608-8.933-7.233 13.329 16.54 4.016-16.978 2.512z" transform="matrix(.06049 .04173 -.02394 .0347 64.52 27.155)" style="fill:#ffff8d;fill-opacity:1;fill-rule:nonzero;stroke:#eaac42;stroke-width:.69226003;stroke-linecap:round;stroke-linejoin:round;stroke-miterlimit:4;stroke-opacity:1"/><path d="M194.018 16.744a1.574 1.574 0 1 1-3.147 0 1.574 1.574 0 1 1 3.147 0z" transform="rotate(34.603 -7.023 109.04) scale(.09633)" style="fill:#f6de60;fill-opacity:1;fill-rule:nonzero;stroke:#c38217;stroke-width:.60000002;stroke-linecap:round;stroke-linejoin:round;stroke-miterlimit:4;stroke-opacity:1;stroke-dasharray:none"/><path d="m348.015 167.09 2.897 6.816-6.034-5.693-5.928 6.023 2.831-6.951-12.787-.97 11.713-2.163-4.706-5.955 6.992 4.126 1.765-7 1.78 6.985 7.33-3.91-5.519 5.834 12.618 1.758-12.952 1.1z" style="opacity:.79879898;fill:#000;fill-opacity:1;fill-rule:nonzero;stroke:#000;stroke-width:.40000001;stroke-linecap:round;stroke-linejoin:round;stroke-miterlimit:4;stroke-opacity:1" transform="matrix(.04873 .0831 -.0831 .04873 78.059 5.03)"/><path d="m346.782 166.681 2.897 6.817-6.035-5.693-5.928 6.023 2.832-6.952-12.788-.97 11.714-2.162-4.707-5.956 6.992 4.126 1.765-7 1.78 6.986 7.33-3.91-5.518 5.834 12.618 1.757-12.952 1.1z" style="fill:#ffff8d;fill-opacity:1;fill-rule:nonzero;stroke:#eaac42;stroke-width:.40000001;stroke-linecap:round;stroke-linejoin:round;stroke-miterlimit:4;stroke-opacity:1" transform="matrix(.04873 .0831 -.0831 .04873 78.059 5.03)"/><path d="M194.018 16.744a1.574 1.574 0 1 1-3.147 0 1.574 1.574 0 1 1 3.147 0z" transform="matrix(.04873 .0831 -.0831 .04873 73.139 24.808)" style="fill:#f6de60;fill-opacity:1;fill-rule:nonzero;stroke:#c38217;stroke-width:.60000002;stroke-linecap:round;stroke-linejoin:round;stroke-miterlimit:4;stroke-opacity:1;stroke-dasharray:none"/><path d="m644.261 146.073-16.134 2.516 1.238 16.283-12.027-11.046-11.958 11.12 1.137-16.29-16.15-2.416 13.445-9.268-8.18-14.132 15.629 4.733 5.949-15.207 6.043 15.17 15.599-4.83-8.093 14.183z" transform="translate(-76.935 -7.87) scale(.27236)" style="fill:#ffeb84;fill-opacity:1;fill-rule:nonzero;stroke:none"/><path d="m644.261 146.073-16.134 2.516 1.238 16.283-12.027-11.046-11.958 11.12 1.137-16.29-16.15-2.416 13.445-9.268-8.18-14.132 15.629 4.733 5.949-15.207 6.043 15.17 15.599-4.83-8.093 14.183z" transform="translate(-100.28 -17.573) scale(.27236)" style="fill:#ffeb84;fill-opacity:1;fill-rule:nonzero;stroke:none"/><path d="m644.261 146.073-16.134 2.516 1.238 16.283-12.027-11.046-11.958 11.12 1.137-16.29-16.15-2.416 13.445-9.268-8.18-14.132 15.629 4.733 5.949-15.207 6.043 15.17 15.599-4.83-8.093 14.183z" transform="translate(-126.79 -7.65) scale(.27236)" style="fill:#ffeb84;fill-opacity:1;fill-rule:nonzero;stroke:none"/><path d="m644.261 146.073-16.134 2.516 1.238 16.283-12.027-11.046-11.958 11.12 1.137-16.29-16.15-2.416 13.445-9.268-8.18-14.132 15.629 4.733 5.949-15.207 6.043 15.17 15.599-4.83-8.093 14.183z" transform="translate(-70.2 11.809) scale(.27236)" style="fill:#ffeb84;fill-opacity:1;fill-rule:nonzero;stroke:none"/><path d="m644.261 146.073-16.134 2.516 1.238 16.283-12.027-11.046-11.958 11.12 1.137-16.29-16.15-2.416 13.445-9.268-8.18-14.132 15.629 4.733 5.949-15.207 6.043 15.17 15.599-4.83-8.093 14.183z" transform="translate(-76.905 31.817) scale(.27236)" style="fill:#ffeb84;fill-opacity:1;fill-rule:nonzero;stroke:none"/><path d="m644.261 146.073-16.134 2.516 1.238 16.283-12.027-11.046-11.958 11.12 1.137-16.29-16.15-2.416 13.445-9.268-8.18-14.132 15.629 4.733 5.949-15.207 6.043 15.17 15.599-4.83-8.093 14.183z" transform="translate(-126.82 31.836) scale(.27236)" style="fill:#ffeb84;fill-opacity:1;fill-rule:nonzero;stroke:none"/><path d="m644.261 146.073-16.134 2.516 1.238 16.283-12.027-11.046-11.958 11.12 1.137-16.29-16.15-2.416 13.445-9.268-8.18-14.132 15.629 4.733 5.949-15.207 6.043 15.17 15.599-4.83-8.093 14.183z" transform="translate(-133.917 11.631) scale(.27236)" style="fill:#ffeb84;fill-opacity:1;fill-rule:nonzero;stroke:none"/></svg>