<svg xmlns="http://www.w3.org/2000/svg" xmlns:xlink="http://www.w3.org/1999/xlink" width="1200" height="600" viewBox="0 0 200 100"><defs><linearGradient x1="341.178" y1="139.807" x2="341.178" y2="532.857" id="f" xlink:href="#a" gradientUnits="userSpaceOnUse"/><linearGradient id="d"><stop offset="0" stop-color="#ffcf60"/><stop offset=".641" stop-color="#d49c70"/><stop offset="1" stop-color="#ba7522"/></linearGradient><linearGradient id="c"><stop offset="0" stop-color="#fad083"/><stop offset=".858" stop-color="#d08117"/><stop offset="1" stop-color="#784b10"/></linearGradient><linearGradient id="b"><stop offset="0" stop-color="#ffe6d5" stop-opacity="0"/><stop offset="1" stop-color="#fff9e3"/></linearGradient><linearGradient id="a"><stop offset="0" stop-color="#f8df87"/><stop offset="1" stop-color="#c19a0c"/></linearGradient><linearGradient x1="342.309" y1="370.344" x2="342.309" y2="390.615" id="j" xlink:href="#b" gradientUnits="userSpaceOnUse"/><radialGradient cx="305.536" cy="436.599" r="139.217" fx="305.536" fy="436.599" id="g" xlink:href="#c" gradientUnits="userSpaceOnUse" gradientTransform="matrix(1.67905 0 0 1.7355 -174 -327.243)"/><radialGradient cx="299.404" cy="448.1" r="201.589" fx="299.404" fy="448.1" id="e" xlink:href="#d" gradientUnits="userSpaceOnUse" gradientTransform="matrix(2.15923 -.01551 .00936 1.23986 -370.998 -101.846)"/><mask id="i"><path d="M353.563 190.156c-12.84-.121-27.012 5.477-31.907 18.219-2.169 3.543-1.611 8.824-4.156 11.594-5.455 1.623-8.423 7.14-9.281 12.437 6.695-1.433 15.668 2.054 15.437 9.938 1.046 8.194-8.351 13.436-15.469 10.656-9.108-1.865-13.574-12.243-10.968-20.719 1.54-10.263 11.923-18.303 9.844-29.187-3.571-6.744-13.571-5.567-20-4.906-25.604 4.929-46.005 24.028-60.476 44.603-21.04 30.762-30.391 70.26-23.084 106.965 9.575 41.769 40.476 77.832 79.497 95.369 23.655 10.243 50.181 11.529 75.75 10.063 2.426-51.968 4.175-104.046 7.188-155.938 4.137-4.4 11.546-2.23 16.968-2.777 9.092.837 18.866.383 27.344 3.996 3.458 2.422 1.873 7.18 1.719 10.437 3.228 1.436 5.855 8.412 9.33 4.402 4.53-5.837 9.236-3.27 13.935.809 4.766-1.356 9.29-10.383 13.339-1.279 3.513 6.066 8.918-6.812 13.216-.146 3.653 4.543 6.445 1.223 9.305-1.848 6.382-5.558 6.446-15.437 5.344-23.281-2.614-16.984-14.055-31.619-28.843-39.726-14.816-9.589-35.152-14.011-51.532-5.68-5.4 3.052-11 8.687-8.875 15.53.247 5.314 1.601 14.074-5.563 15.313-5.736.253-12.683 1.924-17.75-1.344-4.174-5.82-1.224-14.066-1.937-20.749.608-20.808 1.538-41.606 2.343-62.407-3.564-.3-7.141-.468-10.718-.344zm-62.938 82.563c9.753-.854 15.179 9.113 16.14 17.48 9.46 47.622 18.357 95.357 27.454 143.051-5.877 4.997-14.46.953-20.906-.656-23.466-7.674-41.96-26.393-51.742-48.81-11.68-23.949-15.049-52.66-5.554-77.884 5.074-14.359 14.582-29.852 30.858-32.712 1.247-.214 2.481-.462 3.75-.47z" fill="#f95" stroke="#000" stroke-width=".3"/></mask></defs><path fill="#fff" d="M0 0h200v100H0z"/><path d="M0 50h200M68 0v100" fill="#0ff" stroke="#f9c862" stroke-width="24"/><path d="M0 50h200M68 0v100" stroke="#f3f3f3" stroke-width="17.55"/><path d="M0 50h200M68 0v100" fill="none" stroke="#aef" stroke-width="14"/><path fill="none" stroke="#fc0" d="M-52.542-1.695h1.694v.424h-1.694z" stroke-width=".167"/><rect width="41.667" height="41.667" ry="4.303" x="45.467" y="28.846" fill="#d40000"/><path d="M539.386 336.332a198.208 193.186 0 1 1-396.416 0 198.208 193.186 0 1 1 396.416 0z" transform="matrix(.09254 0 0 .09488 34.527 17.776)" fill="url(#e)" stroke="url(#f)" stroke-width="6.761"/><path d="M60.245 43.642c-.11.024-.407.313-.382.412-.22.092-.35.219-.244.437 0 0-.381.184-.156.674.094.205.097.355.069.46-.147.069-.273.2-.376.302 0 0-.21-.185-.395-.15-.184.033-.353.13-.496.123-.143-.007-.178.04-.15.075.026.034.162.143.21.307.047.163.007.435.518.394-.193.336-.162.61.298.765-.065-.19-.006-.307.11-.389a.41.41 0 0 0 .422.286s-.033-.39.205-.343c.238.048.366.301.352.56a.866.866 0 0 1-.33.632c-.169.123-.273.535-.064.888-.246.002-.503-.044-.641.404.16-.084.295-.08.406.012-.41.116-.447.324-.4.55.214-.22.438-.207.668-.03-.378.13-.442.483-.364.615.12-.126.587-.328.593.174.004.328.047.662.084.888-.085-.054-.18-.106-.22-.105-.436.012-.53-.281-.192-.407-.066-.217-.21-.295-.467-.162l-.027-.003-.063-.247c-.048-.191-.455-.632-.467-.978-.012-.347.01-.906-.012-1.156-.035-.41-.394-.78-.44-.864-.044-.084-.11-.488-.06-.551-.428.226-.432.601-.273.933-.322.162-.397.582-.097.668-.293.253-.276.605.109.74 0 0-.323.478.31.645.433.114.6.54.665.798-.115.017-.224.077-.32.244-.205-.063-.479-.044-.61.15-.132.194-.458.322-.458.322s.23.094.376.268c.238.282.608.185.669.075-.072.524.257.644.593.407.2.108.403.163.61-.075-.214-.057-.524-.36-.17-.476.47-.154.683.611.683.611l.033.042c-.152-.085-.301-.174-.301-.174s.09.161.02.52c-.069.36.163.482.163.482-.328.006-.527.501-.078.572-.08.262.034.362.202.418-.085.301.142.437.253.437.076-.33.3-.368.427-.235.183.411.387.797.611 1.159a4.029 4.029 0 0 1-.244.039c-.36.045-.383-.263-.141-.415-.116-.137-.262-.214-.497-.097 0 0-.003-.176-.337-.328-.248-.112-.559-.292-.846-.816-.287-.523-.445-.754-.737-.698-.293.056-.286.55-.286.55s.14-.121.252-.098c.113.022.277.286.277.286-.314.032-.432.416-.09.49.06-.163.153-.1.24-.078-.1.207-.118.376.124.433 0 0 .138-.295.301-.075.164.22.384.222.485.21.101-.01.202.1.202.1-.087.041-.073.105-.09.16 0 0-.157-.131-.467-.063-.31.067-.476-.06-.476-.06.107.202.17.5.29.601a.704.704 0 0 0 .544.163c-.047.206-.093.478.52.49 0 0-.052-.146.055-.258.043.218.277.33.509.135 0 0-.34-.256.015-.34.217-.05.375.074.584-.04.761 1.125 1.747 2.01 2.983 2.731l.223-.412c-1.442-.83-2.33-1.72-2.875-2.505.088-.065.243-.19.307-.3.09-.159.007-.452.25-.446.242.005.156.319.156.319.292-.06.6-.096.512-.68.264-.115.322-.29.166-.524.154-.196.195-.38-.04-.53 0 0 .208-.314.112-.506-.096-.191-.085-.457-.085-.457s-.085.147-.445.231c-.36.085-.406.494-.406.494-.206-.009-.301.093-.37.22a.64.64 0 0 1-.007-.106c.004-.138.136-.314.238-.62.102-.305-.193-.677-.193-.677a.639.639 0 0 1-.282.376c.227-.257.167-.927-.055-.803-.164.091-.196.215-.192.472-.206-.066-.354.014-.485.142.204.04.492.55.578.84.086.29.079.482.111.547.015.03.06.061.103.085-.113.059-.223.119-.205.415-.15.078-.23.227-.244.44.552-.226.537.456.419.608a.735.735 0 0 1-.154.135 4.847 4.847 0 0 1-.49-1.078c-.02-.288.174-.348.306-.234.078-.094-.019-.265-.117-.359.026-.26-.096-.33-.265-.343.024-.337-.209-.412-.52-.403 0 0-.096-.34-.244-.406-.048-.86.158-1.072.442-1.072.286 0 .133.397.133.397.247.04.408-.058.5-.262.26.072.349-.072.42-.24.411.092.504-.299.365-.747 0 0 .308-.041.343-.358.038-.343.205-.47.205-.47s-.144.12-.476-.063c-.332-.182-.617.22-.617.22-.103-.103-.2-.156-.292-.133.037-.731.3-1.415 1.039-1.995a.688.688 0 0 0-.65.078c-.024-.229-.042-.456.06-.668-.27.05-.46.249-.57.602-.143-.124-.323-.256-.508-.172.161.137.241.345.277.56.036.215.066.813.06 1.231-.006.418.04.461.07.539.004.013.01.034.014.054-.011.024-.022.047-.033.075-.183-.066-.346-.074-.41.22-.158-.001-.305.026-.378.214.201-.052.592.196.11.632-.089.081-.173.18-.249.274-.006-.038-.008-.037-.015-.078-.03-.18-.108-.766-.03-.946.078-.179.162-.326.509-.147.1-.305-.02-.432-.253-.467.118-.153.299-.148.496-.096.024-.387-.214-.437-.472-.464.127-.087.257-.155.4-.132-.105-.217-.278-.265-.47-.268.22-.497.013-.758-.17-1.023v-.012l.156-.247c.054-.089.163-.647.286-.831.122-.184.598-.08.319.376.142.057.318-.09.496-.247a.684.684 0 0 1-.243.347c.417.052.622-.118.695-.428.435.112.635-.497.02-.716.022-.337-.198-.375-.348-.374.003.106.018.218-.048.271-.162-.218-.356-.247-.59-.066l.08.081c.049.048.056.117.049.178-.007.061-.207.217-.316.108-.109-.109.116-.43.15-.463.035-.034.103-.252.335-.109.231.143.435-.155.367-.292.357-.162.294-.508-.075-.629.36-.388-.06-.639-.046-1.047-.307.441-.737.266-.737.75-.498-.031-.574.252-.55.571-.29.12-.299.266-.227.422.024-.123.552-.098.518.246-.01.096-.164.516-.232.693-.042.109-.087.249-.123.358a.93.93 0 0 0-.265-.286c-.191-.137-.093-.45.268-.43-.075-.477-.634-.253-.62-.2-.01-.122-.074-.256.21-.327a.453.453 0 0 0-.291-.115.574.574 0 0 1 .006-.09c.013-.116.325-.461.427-.686.102-.225.231-.565.184-.702-.048-.136-.047-.37-.046-.43.001-.028-.016-.036-.042-.03zm11.463-8.772s-.035.154-.337.46c-.302.307-.246.535-.07.678-.135.148-.242.3-.068.503-.132.163-.264.326-.079.511 0 0 .02.01.054-.036s.24-.07.34-.015c.101.055.127.186.094.337a.296.296 0 0 1-.057.112l-.003.003-.045.033c-.244.182-1.245.807-1.367 1.355v.006c-.359-.099-.527.046-.593.322-.172.01-.32.066-.373.313-.2-.018-.282.164-.344.382 0 0-.113-.164.268-.605.19-.218.46-.434.657-.668.2-.24.323-.499.33-.774.016-.545.133-.816.133-.816-.385-.064-.636.147-.761.62-.265-.105-.587-.087-.596.322-.183-.006-.34.038-.404.268 0 0 .2.015.208.202.007.187-.157.867-.157 1.069 0 .201.097.569.097.569-.22.164-.277.37-.178.575 0 0 .21-.196.29-.151.095.054.08.204.005.412-.147.293-.319.58-.59.72-.41.213-.746.259-.746.259l.367.379s.258.137.942-.623c.226-.25.344-.38.433-.473.346-.266.645-.371.57.006.295-.055.298-.247.303-.418.208-.044.322-.16.271-.403.358-.159.327-.532.076-.65.175-.163.335-.28.373-.03.207-.57-.048-.67-.223-.627.083-.22.293-.652.69-.858.091-.047.188-.098.282-.15l.025-.006c.228-.058.446-.056.5.078.053.134.048.249-.055.325-.103.076-.102.206.054.301.157.095.343-.027.343-.027s.11.25.26.265c.148.015.282-.07.282-.07s.142.238.313.296c.172.057.43-.033.43-.033.1.032.193.062.272.084 0 0-.054-.087-.043-.262.012-.176.051-.802-.403-.798.062-.338-.27-.596-.494-.343 0 0-.144-.233-.286-.226-.14.008-.12.061-.12.13 0 .068-.12.129-.205.117-.072-.01-.208-.15-.25-.193l.007-.003s.503-.106.716-.258c.127-.091.182-.184.259-.268a.442.442 0 0 1 .144-.082c.08-.01.154-.028.256.103.102.13-.039.298-.039.298s.118.005.34-.075a.432.432 0 0 0 .307-.422c-.003-.164-.198-.265-.198-.265s.08-.024.171-.024c.091 0 .272-.066.509-.256s.25-.605.247-.707c-.004-.102-.06-.536-.06-.536s-.197.154-.368.256c-.17.102-.337.056-.526.132-.19.077-.37.35-.389.503-.018.153-.081.295-.081.295s-.04-.118-.136-.22c-.094-.102-.265-.122-.451-.042-.186.08-.208.419-.208.419s.015-.006.12-.027c.106-.022.158.068.172.141.009.042.005.092-.039.18l-.045.064c-.167.243-.215.213-.367.244a.64.64 0 0 1-.094.012c-.129-.035-.26-.128-.204-.271.075-.198.295-.027.295-.027.183-.13.065-.382-.106-.458.252-.257-.05-.498-.207-.503 0-.268-.091-.42-.238-.55-.147-.13-.202-.41-.202-.41z" fill="#f9d059" fill-opacity=".638" stroke="#000" stroke-width=".087" stroke-linejoin="round" stroke-opacity=".588"/><path d="M71.666 35.295c-.21.176-.516.529-.093.698-.15.132-.377.363-.09.515-.27.246-.156.236.099.268.488.207.235.928-.214 1.036-.366.237.323-.176.542-.046.192.09-.266-.365.259-.346.145-.032.514-.156.542-.205-.36.244-.982-.161-.666-.569.11-.153.443-.093.05-.227-.072-.063.357-.34.035-.396-.3.011-.077-.468-.356-.608-.045-.024-.078-.108-.108-.12zm2.926.21c-.314.198-.889.103-.912.611-.07.267-.233.544.201.35.516.007.938-.5.71-.96zm-1.574.699c-.334.039.178.193.093.4.026.2-.239.428.054.238.308.007.261-.1.109-.37-.052-.107-.1-.31-.256-.268zm.415.626c.238.017.261.51.451.223.202-.238-.547-.572-.451-.223zm-3.447.346c-.37.084-.188.867-.614.578-.25-.128-.354.142-.304.352-.303-.044-.311-.008-.186.208.022.388-.134.763-.151 1.15.342-.673 1.283-1.021 1.201-1.89.007-.126.04-.296.054-.398zm2.758.638c-.065.282-.562.149-.542.169.119.177.001.434-.066.545.227-.031.371-.257.442.117.138.273.483-.265.539.172.178.32.758.134.563-.232.006-.235-.234-.317-.437-.25.15-.141.008-.657-.191-.332-.139.252-.188-.131-.308-.189zm-2.189.695c-.146.113-.268.54-.111.2.023-.05.144-.24.111-.2zm-.629.473c-.22.087-.155.421-.451.37-.129.116-.098.353-.329.304-.17.288-.26.63-.141.937-.005.283-.168.527-.316.755.252-.322.741-.82 1.147-.593-.113-.306.466-.159.258-.507.05-.068.45-.272.196-.423-.512-.113.132-.466.346-.563-.003-.272-.634.22-.334-.22-.128-.02-.246-.075-.376-.06zm-1.174 1.192c-.266.127.217.1 0 0zm-.38 1.5c-.108.171-.67.167-.502.351.193-.041.476-.308.503-.352zm-8.277 2.335c-.002.204-.262.198-.32.361.22.238-.378.357-.153.678.07.317.25-.216.35-.32.09-.204.259-.57.123-.719zm1.538.28c-.237.113-.537.224-.412.563-.265-.077-.663-.009-.551.358-.112.227-.105.168.117.29.173.071.176.42.184.439a.485.485 0 0 1 .698-.238c.04-.17-.03-.273.214-.346.226-.28-.675-.232-.272-.47.23-.165.157-.429.022-.596zm-2.05 1.523c-.24.16-.408.5-.662.187-.199-.083-.603.027-.4.265-.062.512.964-.086.518.454-.135.109-.162.594.017.25.203-.253.341-.183.422.102.062-.148.342-.394.575-.216.26.138-.286-.185-.193-.367-.092-.153.327-.439.087-.34-.243.726-.314.289-.355-.217-.011-.025.02-.135-.009-.118zm1.945.352c.112.217-.147.443-.262.494.24.025.2.517.416.172.357-.126.532-.605.285-.578-.218.435-.265-.118-.44-.088zm-.747.313c-.114.343-.41.864-.367.895.06.116-.096.577.063.246.067-.338.245-.88.476-.996-.108-.028-.145-.338-.172-.145zm1.27.25c.213.192.497-.049.256-.22-.19-.18-.188.059-.256.22zm-.129.362c.15-.246.137-.504 0 0zm-3.856.593c-.077.277.308.578-.087.683-.222.156-.065.407.22.36-.025.078-.59.47-.202.636.54-.038-.203.517.25.626.19-.001.53.342.337-.012-.111-.687.167-1.524-.419-2.056a.605.605 0 0 1-.1-.237zm3.757.12c-.084.3-.342.528-.35.46.067.337.065.818.082 1.057.096-.404.345-.82.59-1.099-.438.452-.247-.207-.322-.418zm-1.548.247c-.19.23-.5.48-.319.83.357.424.03.416-.34.395.79.308-.137.389.078.43.234.096.844.404.312.462-.198.055-.309.15-.035.131.204-.004.277.433.353.094.032-.21.585-.22.142-.26-.262-.032.18-.43.381-.46.261-.071-1.072-.11-.656-.12.812-.417.098-.192.313-.686.148-.302-.077-.632-.229-.816zm2.068 1.99c-.277.064-.34.573-.587.16-.217-.076-.165.51-.52.237-.056.188-.22.228-.097.406.106.229-.167.522-.22.614.277-.138.524.192.548.325.069-.258.231-.175.413-.21.065-.26.235-.213.427-.25.202-.272-.296-.767.211-.75.2-.14.244-.515-.075-.526a.213.213 0 0 0-.1-.006zM59.43 51.17c-.265.05-.614-.082-.714.301-.284-.162-.552-.026-.716.214-.09.13.384.469.508.18.401-.74.357-.249.28.299-.07.32.277.229.4.072.204.133.219.123.11-.072-.13-.243.26-.42.282-.464-.239-.09-.228-.437-.15-.53zm.993.837c-.1.095-.238-.163-.024.196.039.26.13-.48.035-.21l-.011.014zm1.607.19c-.053.523.023-.196 0 0zm-.319.295c.19.417.315-.042 0 0zm.638.183c-.096.18-.531.123-.307.37.082.142.095.545.184.193.068-.16.233-.423.123-.563zm-2.059.079c-.12.319.03.603.375.696.336.227-.652-.032-.555.303.353-.017.198.213.235.416.233.01.22.235.198.337.256-.378.789-.097.81.3.212.423.306.597.07.085-.156-.275-.257-.745.093-.906-.053-.166-.017-.383-.316-.298.145-.359-.194-.447-.467-.385-.067-.268-.162-.5-.443-.548zm.618.349c.171-.115-.231-.177 0 0zm.532-.018c.122.373.471-.35 0 0zm1.909-.003c-.3.02-.503.26-.49.563-.18-.105-.561.151-.323.28-.251.154-.48.221-.394.25.003.167-.045.325-.163.379.32-.025.397.536.41.563.152-.361.628-.167.728.042.24-.183-.082-.599.304-.656.095-.162-.198-.342.051-.497.09-.206-.382-.247-.093-.458.105-.124.111-.427-.03-.466zm.123.816c.01-.004-.004-.006 0 0zm-1.31.243c.005-.005-.01-.003 0 0zm.383-.448c.004-.006-.01-.003 0 0zm-3.618-.075c-.282.061.195.14.223.298.299.248.163.507.078.457.474-.078.007.407.298.292.203-.05.42.36.497.271-.527-.293-.602-1.012-1.081-1.321l-.015.003zm1.532 1.794c-.027.433-.147.313-.376.12-.215-.044-.564.01-.337.22.223.254.84-.115.587.38-.078.226.226.24.25.023.288-.626.234.273.403-.15.248-.098-.204-.258-.063-.485.168-.353-.53.357-.347-.126.035-.127-.073.004-.117.018zm1.863-.01c-.075.156.014.024 0 0zm-.41.401c.192-.136.174-.136 0 0zm.525.72a8.93 8.93 0 0 0 2.312 1.977c-.108-.272-.648-.443-.913-.701a8.882 8.882 0 0 1-1.475-1.373l.06.076.016.02z" fill="#c7aa55" fill-opacity=".867" stroke="#674f2f" stroke-width=".048"/><path d="M71.648 35.58c-.178.118-.053.297.111.268-.024-.077 0-.279-.111-.267zm2.808.193c-.298.049-.647.144-.626.506.292.017.642-.202.626-.506zm-2.754.364c-.206.127-.18.279.096.34-.277.155.076.281.109.034-.03-.215.136-.329-.094-.476l-.07.065-.04.037zm-2.441 1.792c.045.331-.018.353-.184.466-.118.532.118.235.364-.033.147-.192.397-.46.022-.361-.069.006-.16-.086-.202-.072zm3.444.207c-.154.05-.401.075-.1.15.118.146.186.328.352.097.243-.194-.164-.033-.252-.247zm.632.373c-.267-.002.072.468.19.208-.049-.123-.011-.245-.19-.208zm-3.36.666c-.068.216-.269.336-.43.424-.101.246-.434.258-.398.587-.016.244.004.549.29.343.202.012.324-.103.484-.192-.214-.224.419-.332.054-.46-.276-.288.298-.515 0-.702zm-8.434 5.37c-.278.077-.104.367.018.105.008-.028.013-.103-.018-.105zm-.57.476c-.268.03-.103.354.061.445.081.127.338-.088.485-.036.197-.205-.137-.162-.187-.355-.118-.023-.236-.07-.358-.054zm-2.245 1.146c-.193.188.43.162.127.04-.027-.047-.08-.048-.127-.04zm.693.037c-.159.106-.277.086-.085.255-.08.163.177.309.253.208-.132-.109-.132-.322-.168-.463zm2.227.367c-.205.178.192-.004 0 0zm-1.415 1.815c-.24.176-.098.462.036.614.061-.19.175-.545-.036-.614zm-1.962.03c-.169.11-.214.172.024.07-.028.14-.01-.118-.024-.07zm3.422.024c.04.169.01-.084 0 0zm-3.344.41c-.113.143-.44.347-.09.36.203.309.076-.296.09-.36zm1.947.364c-.061.164.098.015 0 0zm-1.938.415c-.15.237.076.257 0 0zm1.893.166c.211.086-.09-.124 0 0zm2.116.442c-.15.199-.432.417-.653.253-.042.217-.367.167-.403.262.17.242-.202.55.147.662.273.08.423-.288.708-.277-.135-.288-.113-.757.28-.767.067-.09.045-.166-.079-.133zm-3.284 1.144c-.214-.008.048.287-.057.422-.073.261.005.474.078.123.169-.188.15-.314.085-.548-.035.004-.07-.004-.106.003zm-.674.22c-.156.002-.253.202-.07.171-.04-.008.176-.209.07-.171zm4.813 1.713c-.352.127.046.925-.46.5.364.131-.246.306-.428.442-.099.19.074.394.184.494.212-.146.576.226.518-.139.082-.19.233-.265.141-.488.179-.217-.23-.363-.033-.61.04-.03.204-.23.078-.2zm-2.272.237c-.037.31-.547.06-.41.359-.01.34.363.173.575.277.036-.191.374-.426-.058-.27-.418.185.224-.446-.131-.438l.024.072zm-.232 2.183c.012.004.004-.01 0 0zm-.075.02c-.211.044-.028.086 0 0z" fill="#db9b45" fill-opacity=".929" stroke="#765623" stroke-width=".058"/><path d="m61.789 67.142.375-.595s.65.134.978.13c.585-.005 1.15-.283 1.735-.268.593.014 1.15.36 1.743.359.511 0 .99-.305 1.5-.313.529-.008 1.035.316 1.563.277.449-.033 1.28-.43 1.28-.43l.285.4c-.684.505-1.052.509-1.621.57-.533.057-1.061-.22-1.597-.198-.474.018-.919.286-1.393.286-.602-.001-1.167-.347-1.769-.37-.585-.021-1.157.211-1.742.232-.446.016-1.337-.08-1.337-.08zm1.57-.773.218-.636c.479-.164.747-.17 1.127-.17.635 0 1.25.267 1.884.28.63.012 1.25-.212 1.88-.205a3.064 3.064 0 0 1 1.242.295l.29.594s-.802-.31-1.563-.304c-.652.007-1.215.23-1.945.204-.604-.021-1.19-.26-1.794-.264-.45-.004-1.055.085-1.34.206zm-.256-.831.13-.744c.328-.127.938-.352 1.429-.359.867-.011 1.247.442 1.896.44.583 0 1.12-.39 1.703-.4.557-.012.939.319 1.641.319l.266.673c-.988.085-1.253-.3-1.889-.28-.563.016-1.09.347-1.654.345-.668-.002-1.29-.43-1.957-.421-.633.01-1.565.427-1.565.427z" opacity=".676" stroke="#000" stroke-width=".087" stroke-opacity=".786"/><path d="M66.981 35.012c-2.416.04-3.351 1.22-3.651 2.89-.488.174-.907.537-1.06 1.607 0 0 1.396-.338 1.523.635.127.973-.9 1.247-1.691.72-.762-.508-.55-1.608-.211-2.285.338-.677 1.776-2.693-.593-2.836-3.512-.212-9.353 4.908-9.31 12.694.024 4.513 3.09 8.766 6.85 10.927 2.727 1.567 5.697 1.734 8.721 1.556 0 0 .65-14.933.677-15.105.063-.378 3.641-.085 3.98.169.338.254-.043.845.126.972.17.127.804.72.804.72l.846-.594.846.551.72-.635.634.677.762-.463.804.506c1.055-1.066.768-.56 1.06-1.355.465-1.27-.214-3.637-1.78-4.864-1.698-1.332-3.004-1.738-4.485-1.695-1.865.053-2.706 1.23-2.664 1.695.042.465.127 1.396-.084 1.565-.212.17-.425.168-1.144.168-.72 0-.762-.084-.804-.677-.042-.592.253-7.49.253-7.49a9.395 9.395 0 0 0-1.129-.053zm-6.101 8.34c.712.006 1.07.518 1.249 1.298.26 1.135 2.673 13.901 2.673 13.901-.412.378-2.763-.281-4.365-1.667-1.706-1.477-2.668-3.753-3.082-5.521-.804-3.428.757-6.95 2.317-7.682.488-.23.883-.33 1.208-.328z" fill="#333" stroke="#222" stroke-width=".52" stroke-opacity=".805"/><path d="M66.142 60.95v.606H55.185v.755h10.957v1.045a.514.514 0 0 0-.22.412c0 .19.11.356.278.452-.054.084-.228.36-.214.382.016.026.148.136.178.126.029-.01.231-.313.231-.313s.06.395.097.392c.036-.004.167.03.18-.021.013-.053.027-.386.027-.386s.224.292.256.301c.033.01.176-.025.16-.12-.014-.081-.163-.312-.21-.385a.52.52 0 0 0 .24-.428.52.52 0 0 0-.247-.43V62.31h10.96v-.755h-10.96v-.605h-.756z" fill="#201906" stroke="#000" stroke-linecap="round" stroke-linejoin="round" stroke-opacity=".582" stroke-width=".096"/><path d="M66.067 60.827v.605H55.11v.756h10.957v1.044a.514.514 0 0 0-.22.413c0 .189.11.355.277.451-.054.085-.228.36-.214.382.017.027.149.137.178.127.03-.01.232-.313.232-.313s.06.394.096.391c.036-.003.168.031.18-.02.014-.053.028-.386.028-.386s.223.291.256.3c.032.01.176-.025.16-.12-.015-.081-.164-.312-.211-.385a.52.52 0 0 0 .24-.427.52.52 0 0 0-.246-.43v-1.027h10.96v-.756h-10.96v-.605h-.756z" fill="#ebd490" stroke="#d5a73b" stroke-linecap="round" stroke-linejoin="round" stroke-width=".096"/><path d="M66.26 61.602c-2.733.085-7.581.023-10.957.023-.114.718-.016.15.048.332 3.171 0 7.738.038 10.909.038-.068.523.004.9-.086 1.312-.294.406.166.867.263.473-.033-.005.204.29.377.048.207-.242-.12-.443-.184-.614.01-.382.034-.994.012-1.181 3.46 0 7.487-.038 10.948-.038-.038-.096-.022-.244-.049-.39-3.171 0-7.74.02-10.911.02.057-1.839-.365-1.455-.37-.023z" fill="#e4b53a" stroke="#f6efd1" stroke-width=".096"/><path d="M352.676 486.002a3.051 2.933 0 1 1-6.102 0 3.051 2.933 0 1 1 6.102 0z" transform="matrix(.10134 0 0 .10635 31.058 11.968)" fill="#a67a3d" stroke="#cca743"/><path d="M66.988 34.96c-2.416.042-3.351 1.221-3.651 2.89-.488.175-.908.537-1.06 1.608 0 0 1.396-.338 1.523.635.127.973-.9 1.247-1.691.72-.762-.509-.55-1.608-.211-2.285.338-.678 1.776-2.693-.593-2.836-3.512-.212-9.353 4.908-9.31 12.694.024 4.513 3.09 8.766 6.85 10.927 2.727 1.567 5.697 1.734 8.721 1.556 0 0 .65-14.933.677-15.105.063-.378 3.641-.085 3.98.169.338.254-.043.845.126.972.17.127.804.72.804.72l.846-.594.846.551.72-.635.634.677.762-.463.804.506c1.055-1.066.768-.56 1.06-1.355.465-1.27-.214-3.637-1.78-4.865-1.698-1.33-3.004-1.737-4.485-1.694-1.865.053-2.706 1.229-2.664 1.694.042.466.127 1.396-.084 1.566-.212.169-.425.168-1.144.168-.72 0-.762-.085-.804-.677-.042-.592.253-7.49.253-7.49a9.395 9.395 0 0 0-1.129-.054zm-6.102 8.342c.713.005 1.07.517 1.25 1.297.26 1.135 2.673 13.901 2.673 13.901-.412.378-2.763-.281-4.365-1.667-1.706-1.477-2.668-3.753-3.082-5.521-.804-3.428.757-6.95 2.317-7.682.488-.23.883-.33 1.207-.328z" fill="#ffe6d5" stroke="#fffda0" stroke-width=".164"/><path d="M353.563 190.156c-12.84-.121-27.012 5.477-31.907 18.219-2.169 3.543-1.611 8.824-4.156 11.594-5.455 1.623-8.423 7.14-9.281 12.437 6.695-1.433 15.668 2.054 15.437 9.938 1.046 8.194-8.351 13.436-15.469 10.656-9.108-1.865-13.574-12.243-10.968-20.719 1.54-10.263 11.923-18.303 9.844-29.187-3.571-6.744-13.571-5.567-20-4.906-25.604 4.929-46.005 24.028-60.476 44.603-21.04 30.762-30.391 70.26-23.084 106.965 9.575 41.769 40.476 77.832 79.497 95.369 23.655 10.243 50.181 11.529 75.75 10.063 2.426-51.968 4.175-104.046 7.188-155.938 4.137-4.4 11.546-2.23 16.968-2.777 9.092.837 18.866.383 27.344 3.996 3.458 2.422 1.873 7.18 1.719 10.437 3.228 1.436 5.855 8.412 9.33 4.402 4.53-5.837 9.236-3.27 13.935.809 4.766-1.356 9.29-10.383 13.339-1.279 3.513 6.066 8.918-6.812 13.216-.146 3.653 4.543 6.445 1.223 9.305-1.848 6.382-5.558 6.446-15.437 5.344-23.281-2.614-16.984-14.055-31.619-28.843-39.726-14.816-9.589-35.152-14.011-51.532-5.68-5.4 3.052-11 8.687-8.875 15.53.247 5.314 1.601 14.074-5.563 15.313-5.736.253-12.683 1.924-17.75-1.344-4.174-5.82-1.224-14.066-1.937-20.749.608-20.808 1.538-41.606 2.343-62.407-3.564-.3-7.141-.468-10.718-.344zm-62.938 82.563c9.753-.854 15.179 9.113 16.14 17.48 9.46 47.622 18.357 95.357 27.454 143.051-5.877 4.997-14.46.953-20.906-.656-23.466-7.674-41.96-26.393-51.742-48.81-11.68-23.949-15.049-52.66-5.554-77.884 5.074-14.359 14.582-29.852 30.858-32.712 1.247-.214 2.481-.462 3.75-.47z" fill="url(#g)" stroke="#e1c804" stroke-width="2.5" stroke-opacity=".533" transform="translate(32.825 16.84) scale(.09633)"/><path d="M65.692 60.435c-7.302.434-12.078-5.705-12.774-10.773m12.643 10.511c-4.369.204-10.016-2.756-11.526-8.981m11.448 8.667c-5.868.054-9.691-4.681-10.382-7.411m10.25 7.096c-2.797.17-8.006-1.899-9.446-7.637m9.42 7.35c-4.087.001-8.07-3.06-8.985-8.846" fill="none" stroke="#f4e07a" stroke-width=".193" stroke-linecap="round" stroke-linejoin="round"/><path d="M74.596 63.121s.088-.054.135-.054c.047 0 .228-.233.242-.196.087.23.201.27.645.135.02.163-.108.386-.134.481-.027.095.013.183.16.17.021.04.082.277-.255.263-.336-.013-.302-.338-.195-.582-.381.145-.498-.025-.598-.217zm-4.362-.4-.263.25c.15.173.328.242.532.199-.122.242-.17.513-.203.791l.358-.015c.014-.352.085-.499.213-.641.127-.142.331-.081.331-.081s-.09.207-.09.37.116.413.398.433c.282.02.295-.018.436-.147.151-.137.183-.455.204-.638.02-.183-.021-.23-.102-.304-.08-.075-.22-.048-.254-.054-.034-.007-.215.108-.215.108s-.074-.114-.162-.12c-.087-.007-.203.161-.257.168-.053.007-.194-.02-.194-.02l-.006-.218c-.321.274-.547.186-.726-.081zm1.476.391c.075-.01.14.047.123.13a5.897 5.897 0 0 1-.135.442c-.047.115-.228.114-.215-.015.038-.166.107-.514.194-.548a.145.145 0 0 1 .033-.009zm-2.068-.336c.437.264-.161.772.175.86-.015-.212.039-.38.168-.501l.242.21c-.135.176-.168.602-.168.975 0 .372-.256.515-.45.508-.196-.007-.438-.054-.545-.42l.39-.17s-.02.366.181.36c.202-.007.135-.163.108-.237-.027-.075.006-.46.006-.46s-.416-.048-.43-.204c-.013-.156.121-.264.121-.427 0-.162-.067-.25-.067-.25l.269-.244zm4.43-.135-.41.135s-.054.711-.08.887c-.028.176.174.393.396.4.222.006.39-.176.464-.346.073-.169-.007-.257.047-.325.053-.068.013-.088.013-.088l-.33.027s-.026.129-.013.291c.014.163-.181.292-.222.116-.04-.177.047-.353.101-.644.03-.16.047-.46.034-.453zm-5.21-.149-.391.012c-.175.007-.752.11-.738.726.013.616.82.731.935.731.114 0 .147-.02.147-.02v-.609l.343-.015.006-.298-.317-.006.015-.52zm-.364.196-.018.996c.013.014-.398-.069-.398-.502 0-.434.416-.494.416-.494zm4.908.176c-.13.38-.152.777-.067 1.192 0 0-.348-.024-.41-.048-.15-.057-.054-.657.02-.65h-.618l.188-.359c.315.131.608.059.887-.135zm-11.148.119-.798.006.01.448.301-.009-.018-.18h.159s.015.218.015.43.173.342.376.334c.203-.007.438-.053.445-.364.01-.386-.475-.361-.475-.361l-.015-.304zm.105.539c.008-.002.018 0 .027 0 .072 0 .131.06.131.138 0 .078-.059.142-.131.142-.073 0-.132-.064-.132-.142a.14.14 0 0 1 .105-.138zm1.076-.562.353-.015s.015.477.053.628c.038.152.173.182.188.137.015-.046.015-.296.015-.296l.286.008s.067.583-.339.576c-.406-.008-.526-.228-.534-.47-.007-.242-.015-.523-.022-.568zm-5.161-.29c-.321-.012-.77.26-.78.752-.018.932 1.1.675 1.1.675v-.765h.218v.265l.284-.009v-.569l-.502-.006c.02-.227-.127-.336-.32-.343zm-.096.43a.22.22 0 0 1 .04.003l.005.714c-.03-.008-.368.013-.352-.343.013-.312.204-.373.307-.374zm1.491-.216c-.16 0-.328.088-.34.394-.012.306.195.315.287.319a.973.973 0 0 0 .248-.009v.433h.66v-.289l-.329.01.006-.858h-.532zm.162.277a.22.22 0 0 1 .039.003v.228c-.203.018-.272.005-.263-.13.007-.1.152-.105.224-.101zm1.318-.17-.015 1.097h-.323l-.008-.757-.278-.008c-.102-.125-.062-.235.015-.34l.61.007zm3.768-.024-.015 1.052h-.31l-.007-.726-.266-.007c-.098-.12-.06-.226.014-.327l.584.008zm-1.692-.015-.015 1.063h-.313l-.007-.733-.27-.008c-.098-.121-.06-.227.015-.33l.59.008z" opacity=".65" stroke="#050403" stroke-width=".106" stroke-opacity=".836"/><path d="M74.703 62.914s.088-.055.136-.055c.047 0 .23-.233.244-.196.088.23.203.27.65.135.02.163-.109.386-.136.481-.027.095.014.183.163.17.02.04.081.277-.258.264-.338-.014-.304-.339-.196-.583-.384.146-.502-.025-.603-.216zm-4.394-.4-.265.25c.152.172.33.241.536.198-.123.242-.17.514-.205.791l.362-.015c.013-.352.085-.499.213-.64.13-.143.335-.082.335-.082s-.09.208-.09.37c0 .163.115.413.4.434.284.02.297-.02.44-.148.15-.137.183-.455.204-.638.02-.183-.021-.23-.103-.304-.08-.075-.222-.047-.255-.054-.034-.007-.217.108-.217.108s-.075-.114-.163-.12c-.088-.007-.204.162-.259.168-.054.007-.195-.02-.195-.02l-.006-.218c-.324.274-.552.186-.732-.08zm1.487.39c.076-.01.142.047.124.13-.014.065-.11.379-.136.442-.047.116-.23.114-.216-.015.037-.166.107-.514.195-.547a.147.147 0 0 1 .033-.01zm-2.083-.336c.44.264-.163.772.176.86-.015-.211.04-.38.17-.501l.243.21c-.136.176-.17.603-.17.975 0 .373-.257.515-.453.508-.196-.007-.44-.054-.549-.42l.393-.17s-.02.366.183.36c.203-.007.135-.163.108-.237-.027-.075.007-.46.007-.46s-.42-.048-.433-.204c-.014-.156.122-.264.122-.427 0-.162-.068-.25-.068-.25l.27-.244zm4.462-.135-.413.135s-.054.711-.081.887c-.027.176.176.393.4.4.223.007.392-.176.467-.346.074-.169-.007-.257.047-.325.054-.067.014-.088.014-.088l-.332.027s-.027.13-.014.292c.014.162-.183.29-.223.115-.04-.176.047-.352.101-.644.03-.16.048-.46.034-.453zm-5.247-.149-.395.012c-.176.007-.757.11-.743.726.013.616.827.731.942.731.115 0 .147-.02.147-.02v-.609l.347-.015.006-.298-.32-.006.016-.52zm-.368.196-.018.996c.014.014-.4-.069-.4-.502 0-.434.418-.494.418-.494zm4.945.176c-.132.38-.153.777-.068 1.192 0 0-.35-.024-.413-.047-.152-.058-.055-.658.02-.65h-.623l.19-.36c.317.131.612.059.894-.135zm-11.23.12-.804.005.01.449.303-.01-.018-.18h.16s.015.218.015.43c0 .213.175.342.38.335.204-.008.44-.054.448-.365.01-.386-.479-.36-.479-.36l-.015-.305zm.105.538c.009-.002.018 0 .028 0 .073 0 .132.061.132.138 0 .078-.06.142-.132.142-.074 0-.133-.064-.133-.142a.14.14 0 0 1 .105-.138zm1.084-.562.356-.015s.015.477.053.629c.038.151.175.181.19.136.015-.046.015-.295.015-.295l.288.007s.068.583-.341.576c-.41-.008-.53-.227-.538-.47-.008-.242-.015-.522-.023-.568zm-5.199-.29c-.323-.012-.776.26-.785.753-.018.931 1.108.674 1.108.674v-.765h.22v.265l.285-.009v-.569l-.505-.006c.02-.227-.128-.336-.323-.343zm-.096.43c.015 0 .029.002.04.003l.005.714c-.03-.008-.37.013-.355-.343.013-.312.206-.373.31-.374zm1.502-.216c-.16 0-.33.088-.343.394-.012.306.196.315.29.32a.975.975 0 0 0 .249-.01v.434h.665v-.29l-.331.01.006-.858h-.536zm.163.277a.22.22 0 0 1 .039.003v.228c-.204.018-.274.005-.265-.129.007-.1.153-.106.226-.102zm1.328-.17-.015 1.098h-.326l-.008-.758-.28-.007c-.103-.126-.062-.236.015-.341l.614.007zm3.795-.024-.014 1.052h-.312l-.008-.726-.268-.007c-.099-.12-.06-.225.014-.327l.588.008zm-1.704-.015-.015 1.063h-.315l-.008-.733-.271-.007c-.1-.122-.06-.228.015-.33l.594.007z" fill="#fff17c" stroke="#353325" stroke-width=".029"/><path d="m61.725 67.066.375-.595s.65.134.979.13c.585-.005 1.15-.283 1.734-.268.594.014 1.15.36 1.744.359.51 0 .989-.306 1.5-.313.528-.008 1.035.316 1.563.277.448-.033 1.28-.43 1.28-.43l.285.4c-.685.505-1.052.509-1.622.57-.533.057-1.06-.22-1.596-.198-.474.018-.92.286-1.393.286-.603-.001-1.167-.347-1.77-.37-.585-.021-1.156.21-1.742.232-.446.016-1.337-.08-1.337-.08zm1.57-.773.218-.636c.48-.164.748-.17 1.128-.17.635 0 1.25.267 1.884.28.63.012 1.25-.212 1.88-.205a3.064 3.064 0 0 1 1.241.295l.291.593s-.803-.31-1.564-.303c-.651.007-1.214.23-1.945.204-.604-.021-1.189-.26-1.793-.264-.45-.004-1.055.085-1.34.206zm-.255-.831.13-.744c.328-.127.938-.352 1.428-.359.867-.012 1.248.442 1.897.44.583 0 1.12-.39 1.703-.4.557-.012.938.319 1.641.319l.265.673c-.988.085-1.252-.3-1.888-.28-.563.016-1.091.347-1.655.345-.667-.002-1.29-.431-1.957-.421-.633.01-1.564.427-1.564.427z" fill="#ffee97" stroke="#3e2d2d" stroke-width=".029"/><g transform="translate(32.825 16.84) scale(.09633)"><path d="m368.97 414.347 20.247 1.103s-1.114 16.633-1.576 21.98c-.467 5.411 4.31 7.773 7.9 6.603 4.599-1.499 6.045-6.326 2.499-13.3l20.089-5.435c3.781 8.508 1.497 33.796-24.973 35.057-12.186.58-26.343-4.473-25.677-21.711.486-12.565 1.407-24.213 1.491-24.297z" fill="#4d4d4d" stroke="#2a2a2a" stroke-width="3.6" stroke-opacity=".808"/><path d="m368.689 413.222 20.246 1.103s-1.114 16.634-1.575 21.98c-.467 5.412 4.31 7.773 7.9 6.603 4.598-1.498 6.045-6.326 2.499-13.3l20.089-5.435c3.781 8.508 1.496 33.796-24.974 35.057-12.185.58-26.343-4.472-25.676-21.711.486-12.565 1.407-24.213 1.491-24.297z" fill="#ffeb84" stroke="#000" stroke-width=".3"/><path d="M398.948 417.514s-1.45-11.772-14.661-12.95c-4.728-.423-6.013-.332-9.907-1.99-3.97-1.688-4.945-6.381-4.51-11.573.706-8.444 1.343-11.85 1.954-16.616.611-4.765 3.421-5.62 7.698-5.498 4.276.122 25.766 1.026 32.377 1.466 11.514.767 10.296 18.24 4.52 23.703l-15.394-1.1s.366-9.53-5.62-9.896c-5.987-.367-6.72 4.276-6.842 7.453-.122 3.176 1.71 4.154 5.498 4.765 3.787.61 14.658 4.196 17.471 7.208 1.9 2.033 3.13 3.69 3.91 11.73l-16.494 3.298z" fill="#4d4d4d" stroke="#2a2a2a" stroke-width="3.6" stroke-opacity=".808"/><path d="M398.667 416.67s-1.45-11.772-14.662-12.95c-4.727-.422-6.012-.332-9.907-1.989-3.97-1.689-4.944-6.382-4.51-11.573.707-8.444 1.344-11.852 1.955-16.617.611-4.764 3.421-5.62 7.697-5.498 4.277.123 25.766 1.026 32.378 1.467 11.514.767 10.295 18.239 4.52 23.702l-15.394-1.1s.366-9.53-5.62-9.896c-5.987-.366-6.72 4.276-6.842 7.453-.123 3.177 1.71 4.154 5.498 4.765 3.787.61 14.657 4.196 17.471 7.208 1.899 2.033 3.13 3.69 3.91 11.73l-16.494 3.298z" fill="#ffeb84" stroke="#000" stroke-width=".3"/><path d="m393.094 304.281-19.406 7.188s-2.422 9.94 6.03 11.218c2.371.36.762.411 7.157 1.032 3.416.33 3.319 4.994-.219 4.718-3.98-.31-7.37-.522-9.312-.625-1.943-.102-4.992.623-6.219 5.532-1.227 4.908-2.04 16.472 2.563 21.687 4.601 5.215 9.805 8.458 18.906 8.969 9.1.511 11.859.008 18.812-5.719 6.954-5.726 7.787-15.736 8.094-18.906.307-3.17-.947-6.44-5.344-7.156-4.397-.716-7.466.294-6.75-5.125.716-5.42.827-5.606 1.032-8.47.204-2.862-1.333-5.033-4.094-5.75-2.761-.715-5.726-1.695-7.969-2.53-2.603-.97-3.51-2.776-3.281-6.063zm-3 34.625a6.3 6.3 0 0 1 .781.031c2.288.234 5.609.803 8.625.907 3.017.104 3.708 2.79 3.188 5.312-.52 2.522-1.022 7.7-8.532 6.625-3.685-.527-7.031-1.318-7.187-5.375-.156-4.057-.114-4.908.406-5.844.455-.819 1.044-1.62 2.719-1.656z" fill="#4d4d4d" stroke="#2a2a2a" stroke-width="3.6" stroke-opacity=".808"/><path d="m393.375 302.594-19.406 7.187S371.547 319.721 380 321c2.37.359.762.411 7.156 1.031 3.416.332 3.32 4.995-.219 4.719-3.98-.31-7.37-.523-9.312-.625-1.943-.102-4.992.623-6.219 5.531-1.227 4.909-2.039 16.473 2.563 21.688 4.601 5.215 9.805 8.457 18.906 8.969 9.1.51 11.859.008 18.813-5.72 6.953-5.726 7.786-15.736 8.093-18.906.307-3.17-.946-6.44-5.344-7.156-4.397-.716-7.465.295-6.75-5.125.716-5.42.827-5.605 1.032-8.469.204-2.863-1.333-5.034-4.094-5.75-2.761-.715-5.726-1.695-7.969-2.53-2.603-.97-3.51-2.776-3.281-6.063zm-3 34.625a6.3 6.3 0 0 1 .781.031c2.289.234 5.609.802 8.625.906 3.017.104 3.708 2.79 3.188 5.313-.52 2.522-1.021 7.7-8.531 6.625-3.686-.528-7.032-1.319-7.188-5.375-.156-4.057-.114-4.908.406-5.844.455-.82 1.044-1.621 2.719-1.656z" fill="#ffeb84" stroke="#000" stroke-width=".3"/><g id="h"><path d="M432.456 420.193c-7.586.24-10.413 8.765-9.41 15.106.183 7.81-.059 17.614 7.817 22.035 4.811 3.005 9.179 2.979 14.727 2.815.655-.063 3.184-14.207.906-14.77-3.465-.85-6.742-6.619-3.668-9.158 4.475.481 9.887-.21 13.949 1.16 1.405 3.97-1.053 8.08-6.433 8.356-.164.668-3.247 13.333.811 15.254 8.147 1.51 18.156.003 21.976-8.237 2.487-7.827 3.73-16.571 2.526-24.68-2.603-7.98-12.687-6.519-19.266-6.941-7.975-.319-15.954-.888-23.935-.94z" fill="#37362b" fill-opacity=".907"/><path d="m445.097 457.167.945-11.807c-8.124-2.456-8.785-13.98-2.928-13.697 3.873.187 8.887.457 13.602.85 4.534.378 3.212 12.375-4.534 13.036l-.85 12.185c9.442.909 15.768 1.006 20.78-7.368 2.863-6.9 3.024-20.498 3.024-22.576 0-2.078-1.89-6.99-7.746-7.368-5.857-.378-27.677-1.417-34.384-1.606-6.706-.188-8.596 5.29-8.973 8.219-.378 2.928 0 18.42 1.889 21.536 1.889 3.118 5.479 8.974 19.175 8.596z" fill="#ffed76" stroke="#000" stroke-width=".3"/><path d="M431.781 422.875c-5.863 1.783-3.428 9.748-3.781 14.344-.426 6.484 2.28 14.582 9.719 15.312 2.039.742 4.803 1.64 4-1.594 1.846-4.447-4.398-5.036-5.188-8.875-3.34-5.56-.132-15.467 7.344-14.25 6.334.68 16.61-1.944 19.031 6.094 1.597 5.723-1.53 12.339-6.937 14.781-.245 2.033-1.687 7.438 2.312 5.438 8.162 1.02 12.983-8.17 12-15.281.109-4.325 3.226-11.28-1.594-13.906-9.567-2.066-19.742-.6-29.53-1.89-2.456-.085-4.921-.225-7.376-.173z" fill="#ebbd4f" stroke="#9a6722" stroke-width="1.5"/></g><use transform="translate(1.752 -48.608)" width="744.094" height="1052.362" xlink:href="#h"/><use transform="translate(3.941 -95.026)" width="744.094" height="1052.362" xlink:href="#h"/><path d="M372.469 417.5c.084 10.593-4.752 23.316 2.812 32.313 8.89 8.09 23.936 6.976 33-.344 5.41-5.124 7.835-12.975 6.719-20.281-3.777 1.186-8.498 1.512-11.656 3.437 2.79 7.751-4.807 17.132-13.094 14.156-6.796-2.123-8.054-10.431-6.45-16.463-.947-3.63 3.28-11.834-1.206-12.35-3.36-.193-6.81-.445-10.125-.468zm4.594-45.406c-3.413 1.778-1.443 7.072-2.625 10.312.168 5.04-3.544 12.534 1.843 15.906 7.953 2.03 18.215 1.35 22.969 9.563 1.515 1.468 1.397 4.99 4.188 3.531 2.412-.622 8.988.816 6.906-3.594-3.513-7.778-13.457-7.887-20.5-10.125-9.148-3.237-6.552-18.398 2.781-19.28 6.445-1.646 11.68 4.25 11.906 10.25 3.25-1.465 7.903 2.235 10.375-.282 2.193-4.631 3.01-13.96-3.656-14.875-11.388-.551-22.793-1.293-34.188-1.406zm.468-59.375c-.412 4.617 5.129 5.198 8.5 4.906 5.436-.124 10.452 6.678 5.875 11.094-4.202 4.742-11.074-.37-15.656 2.062-2.985 6.148-2.468 14.325.969 20.094 6.495 7.878 18.878 9.668 27.875 5.688 7.314-4.075 11.785-13.247 10.187-21.375-3.893-1.772-10.863-.682-11.594-6.594-1.366-4.51 3.04-9.724.125-13.469-4.755-1.662-11.003-2.067-13.562-7.125l-12.719 4.719zM390.5 333.28c6.451.059 17.372.189 16.656 9.5.23 7.17-6.91 13.439-13.969 11.281-6.1-.27-11.187-5.826-10.125-12.062-.253-4.33 2.716-9.213 7.438-8.719z" fill="#ebbd4f" stroke="#9a6722" stroke-width="1.5"/></g><g mask="url(#i)" transform="translate(32.825 16.84) scale(.09633)"><g id="k" opacity=".868"><path d="M334.99 370.344s-.062 10.59-.062 13.32c0 3.475 7.915 9.845 7.915 9.845s6.666-5.589 6.757-9.845c.086-4.058.09-13.249.09-13.249l-14.7-.071z" fill="url(#j)"/><path d="M334.95 380.952c.073.71.707.447.727 1.051.166 4.919 4.19 6.807 7.107 8.57l.019 2.814c-.089.124-7.499-6.47-7.732-8.96-.104-1.119-.18-1.612-.121-3.475z" fill="#391313"/><path d="M342.798 393.418s5.226-4.334 6.279-7.696.405-2.917.405-2.917-.405 2.512-1.782 3.848c-1.378 1.337-4.902 3.97-4.902 3.97v2.795z" fill="#a4661e"/><path d="M342.758 389.53s.567.08 2.147-1.216c1.58-1.296 2.957-2.47 3.483-3.483.527-1.013.689-1.053.77-.73.08.325-1.337 2.796-2.309 3.687-.972.89-3.24 2.592-3.605 2.876-.365.283-.081.567-.972.121-.891-.446-4.982-3.524-5.387-4.132-.405-.607-1.376-3.361-1.256-3.767.12-.405.046-1.545.284-1.255.335.408.567.89.688 1.255.122.365.365 2.026 1.094 2.795.729.77 2.795 2.43 3.605 2.957.81.527 1.539.932 1.458.891z" fill="#fff"/></g><use transform="translate(7.13 -12.166)" width="744.094" height="1052.362" xlink:href="#k"/><use transform="translate(-7.719 -12.363)" width="744.094" height="1052.362" xlink:href="#k"/><use transform="translate(-.327 -24.53)" width="744.094" height="1052.362" xlink:href="#k"/><use transform="translate(-15.372 -24.595)" width="744.094" height="1052.362" xlink:href="#k"/><use transform="translate(14.587 -24.53)" width="744.094" height="1052.362" xlink:href="#k"/><use transform="translate(-8.765 -38.985)" width="744.094" height="1052.362" xlink:href="#k"/><use transform="translate(-23.81 -38.985)" width="744.094" height="1052.362" xlink:href="#k"/><use transform="translate(6.28 -38.854)" width="744.094" height="1052.362" xlink:href="#k"/><use transform="translate(21.324 -38.985)" width="744.094" height="1052.362" xlink:href="#k"/><use transform="translate(-17.007 -54.16)" width="744.094" height="1052.362" xlink:href="#k"/><use transform="translate(-.785 -54.16)" width="744.094" height="1052.362" xlink:href="#k"/><use transform="translate(14.783 -54.422)" width="744.094" height="1052.362" xlink:href="#k"/><use transform="translate(-32.182 -54.291)" width="744.094" height="1052.362" xlink:href="#k"/><use transform="translate(-8.896 -71.953)" width="744.094" height="1052.362" xlink:href="#k"/><use transform="translate(-26.165 -72.607)" width="744.094" height="1052.362" xlink:href="#k"/><use transform="translate(7.326 -71.822)" width="744.094" height="1052.362" xlink:href="#k"/><use transform="translate(22.632 -71.822)" width="744.094" height="1052.362" xlink:href="#k"/><use transform="translate(-17.661 -89.744)" width="744.094" height="1052.362" xlink:href="#k"/><use transform="translate(-33.487 -89.915)" width="744.094" height="1052.362" xlink:href="#k"/><use transform="translate(-.555 -89.915)" width="744.094" height="1052.362" xlink:href="#k"/><use transform="translate(16.466 -89.73)" width="744.094" height="1052.362" xlink:href="#k"/><use transform="translate(32.377 -89.545)" width="744.094" height="1052.362" xlink:href="#k"/><use transform="translate(47.548 -89.545)" width="744.094" height="1052.362" xlink:href="#k"/><use transform="translate(61.794 -89.36)" width="744.094" height="1052.362" xlink:href="#k"/><use transform="translate(76.41 -76.04)" width="744.094" height="1052.362" xlink:href="#k"/><use transform="translate(92.69 -75.485)" width="744.094" height="1052.362" xlink:href="#k"/><use transform="translate(108.787 -75.3)" width="744.094" height="1052.362" xlink:href="#k"/><use transform="translate(124.513 -75.3)" width="744.094" height="1052.362" xlink:href="#k"/><use transform="translate(76.965 -88.62)" width="744.094" height="1052.362" xlink:href="#k"/><use transform="translate(92.69 -88.62)" width="744.094" height="1052.362" xlink:href="#k"/><use transform="translate(108.602 -88.25)" width="744.094" height="1052.362" xlink:href="#k"/><use transform="translate(124.328 -88.25)" width="744.094" height="1052.362" xlink:href="#k"/><use transform="translate(-26.087 -104.901)" width="744.094" height="1052.362" xlink:href="#k"/><use transform="translate(-9.066 -104.716)" width="744.094" height="1052.362" xlink:href="#k"/><use transform="translate(7.77 -104.901)" width="744.094" height="1052.362" xlink:href="#k"/><use transform="translate(23.866 -104.716)" width="744.094" height="1052.362" xlink:href="#k"/><use transform="translate(38.852 -104.716)" width="744.094" height="1052.362" xlink:href="#k"/><use transform="translate(54.393 -104.346)" width="744.094" height="1052.362" xlink:href="#k"/><use transform="translate(69.934 -104.346)" width="744.094" height="1052.362" xlink:href="#k"/><use transform="translate(85.66 -104.346)" width="744.094" height="1052.362" xlink:href="#k"/><use transform="translate(101.201 -104.346)" width="744.094" height="1052.362" xlink:href="#k"/><use transform="translate(117.852 -103.976)" width="744.094" height="1052.362" xlink:href="#k"/><use transform="translate(-1.295 -120.257)" width="744.094" height="1052.362" xlink:href="#k" opacity=".71"/><use transform="translate(-17.391 -120.627)" width="744.094" height="1052.362" xlink:href="#k" opacity=".71"/><use transform="translate(-34.967 -121.737)" width="744.094" height="1052.362" xlink:href="#k" opacity=".71"/><use transform="translate(14.616 -120.627)" width="744.094" height="1052.362" xlink:href="#k" opacity=".71"/><use transform="translate(54.578 -117.112)" width="744.094" height="1052.362" xlink:href="#k" opacity=".71"/><use transform="translate(70.383 -116.955)" width="744.094" height="1052.362" xlink:href="#k" opacity=".71"/><use transform="translate(85.82 -116.955)" width="744.094" height="1052.362" xlink:href="#k" opacity=".71"/><use transform="translate(101.518 -116.955)" width="744.094" height="1052.362" xlink:href="#k" opacity=".71"/><use transform="translate(116.694 -116.955)" width="744.094" height="1052.362" xlink:href="#k" opacity=".71"/><use transform="translate(54.422 -130.299)" width="744.094" height="1052.362" xlink:href="#k" opacity=".71"/><use transform="translate(70.906 -130.561)" width="744.094" height="1052.362" xlink:href="#k" opacity=".71"/><use transform="translate(86.343 -129.776)" width="744.094" height="1052.362" xlink:href="#k" opacity=".71"/><use transform="translate(101.78 -129.253)" width="744.094" height="1052.362" xlink:href="#k" opacity=".71"/><use transform="rotate(-14.56 201.085 803.078)" width="744.094" height="1052.362" xlink:href="#k"/><use transform="rotate(-6.865 -26.312 1382.02)" width="744.094" height="1052.362" xlink:href="#k"/><use transform="rotate(-5.409 -114.355 1470.597)" width="744.094" height="1052.362" xlink:href="#k"/><use transform="translate(-131.608 -50.76)" width="744.094" height="1052.362" xlink:href="#k"/><use transform="translate(-114.601 -52.33)" width="744.094" height="1052.362" xlink:href="#k"/><use transform="translate(-97.07 -52.067)" width="744.094" height="1052.362" xlink:href="#k"/><use transform="translate(-138.41 -63.842)" width="744.094" height="1052.362" xlink:href="#k"/><use transform="translate(-122.45 -63.58)" width="744.094" height="1052.362" xlink:href="#k"/><use transform="translate(-107.013 -63.318)" width="744.094" height="1052.362" xlink:href="#k"/><use transform="translate(-91.576 -63.58)" width="744.094" height="1052.362" xlink:href="#k"/><use transform="translate(-130.561 -75.615)" width="744.094" height="1052.362" xlink:href="#k"/><use transform="translate(-113.816 -75.354)" width="744.094" height="1052.362" xlink:href="#k"/><use transform="translate(-96.285 -75.354)" width="744.094" height="1052.362" xlink:href="#k"/><use transform="translate(-121.665 -88.96)" width="744.094" height="1052.362" xlink:href="#k"/><use transform="translate(-104.135 -88.436)" width="744.094" height="1052.362" xlink:href="#k"/><use transform="translate(-87.913 -90.268)" width="744.094" height="1052.362" xlink:href="#k"/><use transform="translate(-130.823 -104.658)" width="744.094" height="1052.362" xlink:href="#k"/><use transform="translate(-137.677 -89.212)" width="744.094" height="1052.362" xlink:href="#k"/><use transform="translate(-112.508 -104.397)" width="744.094" height="1052.362" xlink:href="#k"/><use transform="translate(-94.716 -105.705)" width="744.094" height="1052.362" xlink:href="#k"/><use transform="translate(-77.709 -105.443)" width="744.094" height="1052.362" xlink:href="#k"/><use transform="translate(-121.665 -120.619)" width="744.094" height="1052.362" xlink:href="#k" opacity=".71"/><use transform="translate(-103.612 -120.357)" width="744.094" height="1052.362" xlink:href="#k" opacity=".71"/><use transform="translate(-85.035 -120.88)" width="744.094" height="1052.362" xlink:href="#k" opacity=".71"/><use transform="translate(-68.551 -121.665)" width="744.094" height="1052.362" xlink:href="#k" opacity=".71"/><use transform="translate(-51.806 -120.88)" width="744.094" height="1052.362" xlink:href="#k" opacity=".71"/><use transform="translate(-103.612 -135.009)" width="744.094" height="1052.362" xlink:href="#k" opacity=".71"/><use transform="translate(-85.558 -135.009)" width="744.094" height="1052.362" xlink:href="#k" opacity=".71"/><use transform="translate(-68.29 -135.009)" width="744.094" height="1052.362" xlink:href="#k" opacity=".71"/><use transform="translate(-51.806 -135.009)" width="744.094" height="1052.362" xlink:href="#k" opacity=".71"/><use transform="translate(-102.042 -149.661)" width="744.094" height="1052.362" xlink:href="#k" opacity=".53"/><use transform="translate(-85.82 -149.923)" width="744.094" height="1052.362" xlink:href="#k" opacity=".53"/><use transform="translate(-68.028 -149.923)" width="744.094" height="1052.362" xlink:href="#k" opacity=".53"/><use transform="translate(-51.806 -149.923)" width="744.094" height="1052.362" xlink:href="#k" opacity=".53"/><use transform="translate(-68.29 -165.622)" width="744.094" height="1052.362" xlink:href="#k" opacity=".53"/><use transform="translate(-50.76 -166.406)" width="744.094" height="1052.362" xlink:href="#k" opacity=".53"/><use transform="translate(-9.32 -135.13)" width="387.402" height="387.146" xlink:href="#k" opacity=".56"/><use transform="translate(8.32 -135.13)" width="387.402" height="387.146" xlink:href="#k" opacity=".53"/></g><path d="M70.866 66.391s-.766.39-1.283.441c-.546.054-1.061-.226-1.601-.216-.52.009-1.003.29-1.524.295-.594.005-1.135-.353-1.725-.383-.534-.026-1.055.183-1.586.235-.336.033-.676-.025-1.011-.066l-.118.195c.351.048.788.094 1.141.064.525-.045 1.038-.272 1.565-.235.593.041 1.138.375 1.737.382.522.007 1.006-.298 1.524-.295.547.004 1.065.263 1.619.217.582-.048 1.364-.436 1.364-.436l-.102-.198zm-6.34-.702c-.335-.036-.657.046-.976.138l-.056.237c.363-.11.674-.181 1.02-.174.659.034 1.476.277 1.962.286.63-.007 1.245-.185 1.873-.217.438.003.902.15 1.342.266l-.072-.247a3.007 3.007 0 0 0-1.279-.248c-.629.024-1.216.228-1.86.245-.42-.009-1.255-.25-1.954-.286zm.039-1.111c-.36-.008-.673.097-.91.192a1.544 1.544 0 0 0-.399.151l-.058.275c.2-.054.383-.16.47-.192.354-.122.513-.161.89-.176.62.013 1.192.41 1.99.394.397-.008.646-.107.874-.193a1.8 1.8 0 0 1 .803-.144c.372.014.676.114.94.199.263.084.493.169.719.084l-.087-.235c-.108.04-.292-.003-.554-.087-.263-.085-.597-.196-1.009-.211a2.105 2.105 0 0 0-.9.16c-.23.086-.434.17-.791.177-.71.014-1.263-.379-1.978-.394z" style="text-indent:0;text-align:start;line-height:normal;text-transform:none;marker:none" font-weight="400" color="#000" fill="#e8b04f" stroke="#624229" stroke-width=".048" overflow="visible" font-family="Andale Mono"/><g stroke-linecap="round" stroke-linejoin="round"><path d="m66.348 32.934.28.657-.582-.549-.57.58.272-.669-1.232-.093 1.128-.209-.453-.573.674.397.17-.674.171.673.706-.377-.531.562 1.215.17-1.248.105z" opacity=".799" stroke="#000" stroke-width=".039"/><path d="m183.385 19.03 3.797 15.575-7.91-13.008-7.77 13.762 3.71-15.883-16.761-2.217 15.354-4.94-6.17-13.61 9.166 9.43 2.314-15.995 2.333 15.961 9.608-8.933-7.233 13.329 16.54 4.016-16.978 2.512z" transform="matrix(.07348 0 0 .04216 52.808 32.05)" fill="#ffff8d" stroke="#eaac42" stroke-width=".692"/><path d="M66.13 32.654a.152.152 0 1 1-.303 0 .152.152 0 1 1 .303 0z" fill="#f6de60" stroke="#c38217" stroke-width=".058"/></g><g stroke-linecap="round" stroke-linejoin="round"><path d="m49.297 49.855.657-.279-.548.581.58.571-.67-.272-.093 1.231-.208-1.128-.574.453.397-.673-.674-.17.673-.172-.377-.706.562.532.17-1.216.105 1.248z" opacity=".799" stroke="#000" stroke-width=".039"/><path d="m183.385 19.03 3.797 15.575-7.91-13.008-7.77 13.762 3.71-15.883-16.761-2.217 15.354-4.94-6.17-13.61 9.166 9.43 2.314-15.995 2.333 15.961 9.608-8.933-7.233 13.329 16.54 4.016-16.978 2.512z" transform="matrix(0 -.07348 .04216 0 48.428 63.196)" fill="#ffff8d" stroke="#eaac42" stroke-width=".692"/><path d="M49.074 49.905a.152.152 0 1 1 0 .303.152.152 0 1 1 0-.303z" fill="#f6de60" stroke="#c38217" stroke-width=".058"/></g><g stroke-linecap="round" stroke-linejoin="round"><path d="m82.888 50.33-.656.28.548-.582-.58-.57.67.272.093-1.232.208 1.129.574-.454-.397.674.674.17-.673.171.377.706-.562-.531-.17 1.215-.106-1.248z" opacity=".799" stroke="#000" stroke-width=".039"/><path d="m82.817 50.24-.657.28.548-.582-.58-.57.67.272.093-1.232.208 1.129.574-.454-.397.674.674.17-.673.171.377.706-.562-.531-.17 1.215-.105-1.247z" fill="#ffff8d" stroke="#eaac42" stroke-width=".039"/><path d="M83.041 50.073a.152.152 0 1 1 0-.303.152.152 0 1 1 0 .303z" fill="#f6de60" stroke="#c38217" stroke-width=".058"/></g><g stroke-linecap="round" stroke-linejoin="round"><path d="m51.706 41.16.71.077-.763.239.227.782-.45-.566-.684 1.03.37-1.087-.723.115.676-.393-.505-.478.67.18.017-.8.23.738.742-.978-.517 1.14z" opacity=".799" stroke="#000" stroke-width=".039"/><path d="m183.385 19.03 3.797 15.575-7.91-13.008-7.77 13.762 3.71-15.883-16.761-2.217 15.354-4.94-6.17-13.61 9.166 9.43 2.314-15.995 2.333 15.961 9.608-8.933-7.233 13.329 16.54 4.016-16.978 2.512z" transform="matrix(.03591 -.0641 .03678 .0206 44.332 52.408)" fill="#ffff8d" stroke="#eaac42" stroke-width=".692"/><path d="M51.369 41.085a.152.152 0 1 1-.148.264.152.152 0 1 1 .148-.264z" fill="#f6de60" stroke="#c38217" stroke-width=".058"/></g><g stroke-linecap="round" stroke-linejoin="round"><path d="m57.197 35.454.605.378-.79-.116-.135.803-.161-.705-1.062.631.804-.818-.7-.21.779-.06-.248-.65.527.452.362-.714-.113.765 1.092-.559-.96.803z" opacity=".799" stroke="#000" stroke-width=".039"/><path d="m183.385 19.03 3.797 15.575-7.91-13.008-7.77 13.762 3.71-15.883-16.761-2.217 15.354-4.94-6.17-13.61 9.166 9.43 2.314-15.995 2.333 15.961 9.608-8.933-7.233 13.329 16.54 4.016-16.978 2.512z" transform="matrix(.06016 -.0422 .0242 .03452 45.674 42.434)" fill="#ffff8d" stroke="#eaac42" stroke-width=".692"/><path d="M56.928 35.279a.152.152 0 1 1-.248.174.152.152 0 1 1 .248-.174z" fill="#f6de60" stroke="#c38217" stroke-width=".058"/></g><g stroke-linecap="round" stroke-linejoin="round"><path d="m75.202 35.586-.143.699-.168-.782-.799.153.605-.396-.961-.776 1.047.47-.048-.73.33.71.522-.46-.24.652.794.09-.757.161.905.83-1.087-.621z" opacity=".799" stroke="#000" stroke-width=".039"/><path d="m183.385 19.03 3.797 15.575-7.91-13.008-7.77 13.762 3.71-15.883-16.761-2.217 15.354-4.94-6.17-13.61 9.166 9.43 2.314-15.995 2.333 15.961 9.608-8.933-7.233 13.329 16.54 4.016-16.978 2.512z" transform="matrix(.06049 .04173 -.02394 .0347 64.52 27.155)" fill="#ffff8d" stroke="#eaac42" stroke-width=".692"/><path d="M75.143 35.217a.152.152 0 1 1-.25-.172.152.152 0 1 1 .25.172z" fill="#f6de60" stroke="#c38217" stroke-width=".058"/></g><g stroke-linecap="round" stroke-linejoin="round"><path d="m81.135 42.089-.426.573.18-.78-.79-.198.716-.104-.543-1.11.75.868.266-.68-.002.781.667-.194-.493.488.682.419-.754-.175.47 1.134-.723-1.022z" opacity=".799" stroke="#000" stroke-width=".039"/><path d="m81.108 41.966-.425.573.18-.779-.79-.199.715-.103-.542-1.11.75.868.266-.681-.002.782.667-.195-.493.489.682.418-.754-.174.469 1.134-.723-1.023z" fill="#ffff8d" stroke="#eaac42" stroke-width=".039"/><path d="M81.202 41.745a.152.152 0 1 1-.153-.261.152.152 0 1 1 .153.261z" fill="#f6de60" stroke="#c38217" stroke-width=".058"/></g><path d="m98.535 31.914-4.395.686.337 4.434-3.275-3.008-3.257 3.029.31-4.437-4.399-.658 3.662-2.524-2.228-3.85 4.257 1.29 1.62-4.142 1.646 4.132 4.248-1.316-2.204 3.863zM75.19 22.212l-4.394.685.337 4.434-3.275-3.008-3.257 3.029.31-4.437-4.399-.658 3.662-2.524-2.228-3.85 4.257 1.29 1.62-4.142 1.646 4.132 4.248-1.316-2.204 3.863zm-26.51 9.921-4.394.686.337 4.434-3.275-3.008-3.257 3.029.31-4.437-4.399-.658 3.662-2.524-2.228-3.85 4.257 1.29 1.62-4.142 1.646 4.132 4.248-1.316-2.204 3.863zm56.589 19.46-4.394.685.337 4.435-3.276-3.008-3.257 3.028.31-4.436-4.399-.659 3.662-2.524-2.228-3.849 4.257 1.29 1.62-4.142 1.646 4.131 4.249-1.315-2.204 3.863zm-6.704 20.008-4.394.685.337 4.435-3.276-3.008-3.257 3.028.31-4.436-4.399-.659 3.662-2.524-2.228-3.849 4.257 1.29 1.62-4.142 1.646 4.131 4.249-1.315-2.204 3.863zm-49.915.019-4.394.686.337 4.434-3.276-3.008-3.257 3.029.31-4.437-4.398-.658 3.661-2.524-2.227-3.85 4.256 1.29 1.62-4.142 1.646 4.132 4.249-1.316-2.204 3.863zm-7.097-20.204-4.395.685.337 4.435-3.275-3.009-3.257 3.029.31-4.437-4.399-.658 3.662-2.524-2.228-3.85 4.257 1.29 1.62-4.142 1.646 4.132 4.248-1.316-2.204 3.863z" fill="#ffeb84"/></svg>