<svg xmlns="http://www.w3.org/2000/svg" width="661.993" height="428.597" viewBox="0 0 529.595 342.877" fill-rule="evenodd"><path opacity=".98" fill="#fff" stroke="#fff" stroke-width=".8" d="M.4.4h528.795v342.077H.4z"/><path d="M178.642 61.761l176.583.477c.023 50.3-.086 99.135-.063 149.435-20.042 76.487-164.92 72.274-176.52.495V61.761z" fill="#f9f9f9" stroke="#1f211d" stroke-width="1.5"/><path d="M284.571 178.834l4.917 4.65c3.698 4.297 5 8.594 6.91 12.89 2.657 1.152 5.625 2.658 7.573 4.518l-2.524 1.462c-2.393-1.062-4.697-2.213-6.378-3.987-1.196-.531-2.038-.177-2.525 1.063l-3.056-.265c-.313-.664-.403-1.373 1.063-2.392-.712-1.418-.18-2.525.531-3.588-2.102-.26-2.86-2.131-3.189-4.518-2.305-.486-2.393-2.081-1.86-3.986-2.087.18-2.306-.884-2.259-2.126-.623-1.907-.002-2.881.797-3.721z" fill="#fff" stroke="#1f211d" stroke-width=".286"/><path d="M277.79 70.196c-.619.863-.885 1.904-.797 3.12-2.729.73-5.574.77-7.569 5.91-1.958 1.367-3.087.382-3.784-.133.928 1.796 1.99 3.325 3.983 2.988.195 2.33 1.946 2.637 3.918 2.656l.73 2.523 10.823-2.191-.465-3.253c1.78-.831 4.187-.977 3.851-4.117.642-.531.752-1.328.332-2.39-.575 1.397-1.216 2.57-2.324 2.19-.985-2.705-3.264-4.332-7.436-4.381-.067-1.151-.487-2.125-1.262-2.922z" fill="#d7b46d" stroke="#1f211d" stroke-width=".286"/><path d="M277.26 74.71c-.499 2.06-.388 4.118 0 6.176-1.373.642-2.258-.177-2.922-1.66.874 2.778-.144 3.663-2.457 3.254-1.462-3.21-.599-5.976 5.378-7.77zM278.521 74.71l.531 6.243c1.35.509 2.346-.222 2.988-2.192.51.886.62 1.97 1.527 2.656 3.504-2.976-.09-6.841-5.046-6.706z" fill="#ececed" stroke="#1f211d" stroke-width=".286"/><path d="M284.97 85.023c1.816.488 3.366 1.683 4.651 3.588-5.27 2.546-8.237 4.805-7.84 6.644l-1.727-.532c-1.229 1.56-1.517 3.178.265 4.916-2.677-.03-4.054 1.36-4.783 3.455.21 1.536.675 2.627 1.594 2.924.393 6.534 2.691 5.449 5.05 4.119-.55 2.218-1.39 4.037-4.253 3.056 1.33 1.944 2.657 1.524 4.916 5.648.621 1.133.82 2.956 1.463 4.45 1.122-.91 2.973-2.022 4.64-1.088 1.224.686 2.572.708 3.997-.107.486-1.063.353-2.304-.399-3.721 5.624 3.63 10.186 3.275 13.686-1.063.65-2.585 2.453-4.013 5.05-4.651 1.978-2.365.693-4.155-.399-5.98-7.913-2.11-6.905-5.164-3.72-7.84 2.978-2.025 6.322-3.2 9.832-3.985 1.418-.397 2.525-1.726 3.588-3.19-.244 2.027-1.35 3.71-2.657 4.85 5.43.645 10.107-4.09 12.49-6.842-.133 2.834-.709 5.226-1.727 7.175 3.147 1.775 6.813 1.126 10.497.399-1.773 3.498-4.785 5.845-9.036 7.042 2.073.035 3.66-.415 6.644.532 2.074 1.417 4.12 3.007 6.378 3.322 2.641-1.266 2.95-1.132 2.923-.798-3.59 3.71-8.243-2.125-10.895-1.461 2.868 4.936 6.168 7.284 10.098 5.846-.35 2.42-2.257 2.506-4.385 2.259 2.453 4.079 5.432 4.688 8.77 2.924-2.7 4.64-6.023 3.529-9.434 1.594-.306 1.725-.226 3.192 1.063 3.854 3.19 4.04 5.76 3.726 8.238 2.79-1.35 5.558-8.13-1.393-9.966-2.923 2.782 13.04 6.734 12.874 10.764 11.826-.488 2.302-1.86 3.719-5.183 3.189 1.882 3.072 2.857 5.918 3.322 8.637-4.086-2.087-7.342-5.974-10.364-10.365 1.92 3.088 3.826 6.13 6.644 12.092 1.761 3.214 3.12 7.437 4.518 11.56-.31.888-.62.843-.93.665-1.398-6.088-5.26-15.954-9.833-20.463-.139 2.832.36 5.982 1.993 9.7.974 2.524 2.303 4.606 3.986 6.245-1.849-1.207-3.2-1.805-3.455-1.063.941 3.863 2.47 6.99 4.12 9.966-1.108-.6-2.172-1.044-2.924-.4.294 1.145.531 2.323 1.727 2.925a27.767 27.767 0 0 0 5.316 17.539c-5.702-1.086-8.116-6.8-9.036-14.616-1.249-5.224-2.262-2.184-3.322-.797.177-2.736.133-5.637-.399-8.903-1.57-2.775-1.41-5.377-1.196-7.973-1.15-3.957-2.303-1.692-3.454 1.462-.266-3.278-.266-6.29 0-9.036-1.209-12.587-3.638-8.201-3.854-9.036 1.817 9.496 3.366 18.583 5.183 28.436a99.35 99.35 0 0 0 5.182 28.037c.177.93 0 1.417-.532 1.462-3.82-9.332-5.346-18.883-5.448-28.57l-3.853-24.581c-.443-1.018-.709-.885-.798.399.164 2.067.984 9.063 1.861 16.476.317 2.444-.699 4.16 2.126 7.973-.598.622-1.35.31-2.126-.133.431 4.366 1.815 8.876.812 13.518-.51 2.363.997 4.74 1.447 7.078l1.461 7.707c-1.05 2.702.211 4.916 2.525 6.91-4.516-.533-6.73-3.013-6.644-7.441-4.5-3.814-4.326-8.903-4.783-13.82-1.66-5.237-1.59-9.608-1.462-13.952-.62.886-1.418.554-2.392.732 1.262-5.15 1.66-9.58.797-15.083.045-1.815.09-3.632.133-5.447-.365 1.328-.786 2.435-1.329 3.056.691-5.164-.613-7.583-1.46-10.63-1.335 1.573.03 10.159.265 15.812.52 8.323 1.292 16.73 1.195 24.848-.68 5.772-.514 11.59 1.994 17.54.09.644.046 1.132-.93.53-1.838-6.023-2.9-12.046-2.259-18.07.406-7.844-.592-16.531-1.196-24.981-.93-.98-1.817-1.383-2.392 2.259 1.638 7.465 1.726 14.06.531 19.932-1.29 4.296-1.058 8.592-.398 12.889-3.372-5.544-3.598-12.684-4.518-20.198-.553 1.487-1.572 1.884-2.658 2.126 1.54-2.901 1.738-6.533 1.33-10.497.3-4.286-.787-7.187-2.26-9.7-.69 6.378-.257 12.756.133 19.134l-.53-.797c-.48-6.41-.994-12.81-.932-19.4-.168-1.86-.572-1.358-.93-1.33-.147 2.116-.53 4.04.266 6.91-1.086 4.88-.53 9.213 0 13.554-3.085-3.283-4.092-7.258-4.518-11.427.04-5.266-1.196-9.257-2.259-13.421-.956 6.556-.2 12.8.798 19.002-.045.974-.355.973-.93 0-1.19-4.12-.894-8.453-.798-12.757-1.977-1.07-1.652 5.538-1.46 11.694-3.319-13.39-3.87-16.548-5.848-16.477 1.184 3.166.941 6.31 1.063 8.77-1.085-6.067-1.794-9.167-3.588-9.567-.95 4.816-.464 8.913 2.126 11.959 4.35 7.924 1.11 15.005 0 22.323l-.53 5.315c-1.529-.51-3.168-1.794-5.05-4.784-.886 1.13-1.329 2.592-.798 4.784-1.717 6.982-4.276 8.072-6.51 11.428 1.266-5.286 1.166-8.486-.93-8.637-.023 4.268-.688 7.733-2.127 10.23-.133-1.416-.354-2.125-.664-2.125-1.24 2.12-2.48 2.754-3.72 3.588 2.87-5.965 1.7-9.507.93-13.288-.933-2.525-.932-5.05-.798-7.574-.822 2.39-1.399 4.87-.266 7.973 3.08 11.643-4.132 12.235-7.574 16.875 2.124-4.27 3.367-8.266 3.19-11.826.043-.93-.178-1.24-.665-.93-7.312 15.9-10.106 12.657-10.365 12.756 1.727-.982 3.36-4.067 2.525-6.511-.709 1.417-1.683 2.392-2.923 2.923 1.457-4.065.006-4.53-2.259-3.986-1.6 2.71-6.063 4.509-11.56 5.98 2.563-4.472 7.17-8.597 20.197-11.295-1.002-.968-2.284-1.78-12.225 2.259-5.929 1.805-6.307-3-8.105-6.113 3.71 2.812 9.358 3.299 16.61 1.86 5.935-3.485 7.375-8.822 9.965-13.686-4.462 3.71-7.76 7.807-10.099 12.225-.643-.376-1.13-.818-.53-1.727-2.216 1.908-4.12 2.26-5.98 2.392 5.811-4.056 7.792-8.475 9.832-12.89 1.753.086 3.342-1.8 4.917-3.853-1.288-.513-2.409-1.9-2.94 1.088-.332 1.865-2.567 1.333-3.305.639-.156 1.327-1.216 1.47-2.608 1.068-.803-.232-1.287.972-2.309 1.19-1.195.62-.973 1.153.665 1.596-3.979 7.647-5.855 7.485-8.372 9.7 3.763-5.934 4.782-10.452 3.056-13.554-.403 5.532-2.607 9.264-5.315 12.49.91-2.634 1.398-6.421 1.064-9.233-5.429 7.653-6.835 8.034-9.7 10.03 3.735-3.385 5.385-7.333 4.517-11.958-1.533-.31-2.682-1.578-3.853-2.79-.895 7.528-3.132 11.703-4.917 17.008-.46.2-1.204.779-.53-.531 1.947-5.43 4.074-10.64 4.384-18.072-.815-2.922-2.339-2.303-3.72-2.392-.464.818-1.142 2.058-.608 3.234.915 2.015 1.14 4.437.74 6.732-.22-1.196-.709-2.126-1.462-2.79-.448 6.898-2.384 10.608-4.119 14.749.157-3.106.453-6.132-.664-9.966-.532.842-1.063 1.152-1.595.93 1.864-3.441 1.304-7.23.665-11.028-.346-2.323-.5-3.11-.665-3.987-.475 15.282-3.619 23.45-5.713 34.416-.842 2.198-1.683 3.052-2.525 3.986-.737.249-1.125.15-.266-1.196 1.721-4.86 7.544-20.862 7.574-37.073-1.085 4.109-2.325 7.675-4.119 9.302-.052 4.584-.987 10.828-2.427 13.487-.119.219-.412.439-.325.67 1.191 3.149-.664 7.68-1.5 11.355a39.23 39.23 0 0 1-.067.333c-1 2.33-1.73 4.702-1.49 7.21-1.337-.298-1.289-1.463-1.195-2.655-3.254 5.292-6.507 7.3-9.76 9.36 1.816-2.85 3.656-5.655 5.112-9.228-1.118-.1-2.114.653-3.054 1.793 10.098-15.183 5.61-18.797 7.104-27.156-.012-.838-.09-1.588-.636-1.714-1.833 10.142-2.9 21.219-8.106 27.239-1.794 2.38-3.344 3.422-4.783 3.854 11.054-9.658 9.637-22.832 13.952-36.276-.233-.907-.52-1.262-.93-.398l-1.462 6.112c-.383-.941-.593-1.016-.797-1.063-1.57 2.722-1.174 6.568-1.329 10.099-.355-2.037-.797-3.1-1.329-3.19-1.444 12.18-5.33 12.143-8.37 16.345.84-2.702.884-4.518.132-5.448-1.185 1.383-2.492 2.159-3.854 2.657 6.094-5.316 7.506-12.57 7.308-16.344-.089-3.1-.797-3.542-2.126-1.33 2.281-6.553 3.344-11.558 1.728-13.153-.822-.236-1.37 1.165-1.993 2.126.41-1.191.204-3.287 1.451-3.372 1.877-.13 1.526-5.03 2.136-8.056-5.433 9.134-8.007 17.795-10.763 25.778l-.664-.531c2.687-7.905 5.501-15.792 9.434-23.52-1.55 1.264-3.1 2.426-4.65 5.316-.257 2.419-1.28 3.495-2.259 4.65.355-1.018.621-2.037.265-3.056-1.798 3.897-4.069 4.252-6.245 5.315 1.898-2.146 4.782-5.023 4.815-8.324.02-1.922.758-3.054 2.095-4.432-.7-3.187 1.151-5.736 2.657-8.371-1.11-1.662-.666-3.167 0-4.651-1.907 6.008-4.665 7.766-7.308 10.099-1.57-.355.11-.71-.067-1.196 3.611-2.695 5.095-6.282 6.578-10.365l-.797-.531c-2.039 4.237-3.456 5.518-4.784 6.378.753-1.373 1.152-2.923 1.196-4.651.613-6.258 5.434-7.886 8.637-11.294.443-.355.443-.71 0-1.063-7.032 2.79-7.454 1.086-9.567.53 2.906.34 5.818.612 8.903-1.195-4.52-.38-6.162-3.252-7.973-5.98 4.32 3.233 8.748 3.808 13.421-1.461-7.129.92-9.11-.175-11.959-.93 3.881.722 7.99.65 12.224.133-6.972-1.196-10.12-2.392-10.896-3.588 4.264 1.378 9.21-1.07 10.365-2.26-3.73.177-5.639-1.654-7.574-3.454 1.772.822 3.543 1.443 5.315.665-1.687-.796-1.818-2.214-1.727-3.721 1.64 2.303 3.455 3.72 5.448 4.252-1.87-1.91-2.69-3.715-2.79-5.448 2.258 2.358 4.517 3.133 6.776 1.595 1.58-2.255 3.194-4.382 5.846-2.525.964 1.804 3.024 1.782 5.581.93 5.005-2.44 10.01-3.303 15.015 5.448 1.828 2.88 2.205 7.088.133 12.092.823 5.284 3.897 3.814 7.043 2.126l1.196-1.594c2.17 1.37 4.872.707 8.105-1.993l2.658-2.26c1.565-3.513 1.552-7.478 5.315-10.364 1.536-2.172 2.294-4.166-2.392-4.916l-1.462-1.462c2.083 1.495 4.378.015 6.644-1.063 2.063-2.425.236-4.22-4.252-5.581 2.813.887 9.436-.962 5.315-5.182l-3.853-.532c2.756-.51 5.588-.527 7.972-3.454.247-1.128-.596-3.033-1.594-5.05 3.012 4.206 5.581 4.693 7.707 1.462 3.543-.71 7.087-1.417 10.63-2.126z" fill="#2c2c2b" stroke="#1f211d" stroke-width=".286"/><path d="M270.885 89.85c1.793 2.257 1.395 4.758 0 7.37 2.031-.09 3.591.643 4.913 1.792M271.947 93.435c2.125.399 3.165.155 4.582-.863M277.79 89.584c.796.4 1.637.688 2.79.199 1.172-.966 2.345-.781 3.518-.664" fill="none" stroke="#fff"/><path d="M280.878 89.783c.311 0 .564.164.564.366 0 .2-.253.365-.564.365-.312 0-.565-.164-.565-.365 0-.202.253-.366.565-.366z" fill="#fff" stroke="#fff"/><path d="M281.575 95.228c2.523-.11 5.046-.373 7.57-1.726 2.375-.963 5.702.075 6.904 2.722.08-4.18-1.003-7.467-6.24-7.57-3.922 1.734-7.517 3.595-8.234 6.574z" fill="#fff" stroke="#1f211d" stroke-width=".286"/><path d="M288.78 90.38c.31 0 .563.105.563.233 0 .129-.253.233-.564.233-.312 0-.565-.104-.565-.233 0-.128.253-.232.565-.232z" fill="#2c2c2b" stroke="#1f211d" stroke-width=".286"/><path d="M281.808 95.309l.1-.015c2.604 4.184 8.568 3.754 11.021 3.254-4.099 1.312-8.154 3.02-12.616 1.062-1.198-1.277-2.02-2.664-.208-4.826l1.703.525z" fill="#fff" stroke="#1f211d" stroke-width=".286"/><path d="M282.887 96.567c7.12 2.77 12.322 2.16 16.081-.994-3.242 1.13-6.526 2.118-11.107-1.393-2.142.767-4.17 1.024-6.134.995l1.16 1.392z" fill="#e21c2a" stroke="#1f211d" stroke-width=".286"/><path d="M264.18 107.777c-.489 2.502-.136 5.225 3.85 2.19M264.976 112.425c.46 4.399 1.232 7.509 4.183 1.593 1.77.975 3.187.355 4.25-1.86M273.674 106.183c-1.395 2.923-2.966 3.366-4.714 1.328M274.138 113.752c-1.285 2.746-.444 4.074 2.523 3.984M274.935 119.197c.874 1.129 1.914 1.373 3.32-.332.275 2.583 1.561 4.035 4.847 3.253M291.136 123.579c-1.878 2.235-3.867 4.205-7.17 3.054-1.85 2.847-3.688 5.459-5.18.797-4.47 4.449-7.436 4.559-8.897.332M272.213 120.79c-1.66 6.574.398 8.012 6.175 4.316M270.221 122.118c-2.589.93-3.762.886-3.519-.132M268.03 118.533c-.177 1.195-.797 1.947-1.859 2.257M269.557 117.404c.222.686.177 1.284-.133 1.793M264.71 120.79c-2.645 3.399-4.792 4.527-5.843.664M260.594 124.243c-2.548 4.33-4.317 3.528-5.976 1.992M264.312 123.845c-.974 3.768-2.899 4.509-4.582 3.85M255.614 129.156c-.31 2.678 1.062 3.497 4.116 2.457.396 2.426 1.353 3.328 2.988 2.39M262.652 132.742c1.03-.986 5.958-2.056 4.78 1.46M269.092 134.468c.33.007.611-.133 1.13.996M265.44 144.295c-3.297.53-4.028-1.063-2.19-4.781-1.21 1.713-2.554 2.205-4.117.73-3.453.643-5.246-.043-3.386-3.651-2.568-.354-3.188-2.036-1.859-5.046-2.75 2.179-5.189 3.717-4.914-.332M266.835 140.776l1.726 1.527.863.598c3.386 2.357 5.932.719 7.901-3.652M276.064 134.402c.82 4.68 3.563 5.832 8.631 2.722M280.446 132.343c1.895 7.498 10.455.36 4.515-3.585M285.293 135.132c4.515 2.9 6.817.664 6.905-6.706M295.85 132.343c-1.394 1.616-2.789 1.815-4.183.598M292.73 123.579c-1.77 3.519-.709 5.179 3.186 4.98l.4 1.46M283.367 141.905c1.694-.011 3.022-.631 4.183-1.527 1.433.94 3.082.874 5.047-.664M295.053 137.854l-1.26 1.328M290.472 142.303c2.148.514 4.163.606 5.245-2.258" fill="none" stroke="#1f211d" stroke-width=".286"/><path d="M298.307 124.376c1.571 5.4.841 9.472-2.19 12.217 1.936-.474 4.776-2.841 3.518-8.831-.556-3.193-1.535-2.707-1.328-3.386zM301.892 125.04c3.517 6.249.9 8.557-1.859 10.69-.133.275 1.926-.17 3.917-3.254 1.278-3.522-.995-6.752-2.058-7.436z" fill="#fff" stroke="#1f211d" stroke-width=".286"/><path d="M302.822 125.305c2.456 2.08 4.647 1.86 6.573-.664 1.361 1.982 3.087.986 4.98-1.46 3.465 8.004 7.458-2.93.73-5.18" fill="none" stroke="#1f211d" stroke-width=".286"/><path d="M312.781 126.7c1.373 3.143 1.528 5.843-.996 7.569-3.772 1.203-4.18-3.412-2.92-7.171M307.67 131.547c-2.109.04-2.505 1.17-2.657 2.456M303.486 135.265c-.996 3.076-2.523 4.205-4.582 3.386M307.005 134.269c3.436 7.033 5.084 6.6 5.511 1.062M315.77 128.89c5.045 3.564 7.546 1.528 6.572-6.24M320.085 117.404c.486 1.243 1.06 2.219 2.257 1.328l.93-.133M325.53 113.819l-1.262 2.257c5.248 3.706 2.715 4.3-.93 4.449M321.28 112.49c-1.682 2.242-3.519 2.306-5.378 2.059M323.936 124.376c1.824 1.07 3.708 2.736 5.71 5.577M331.306 120.392c1.837 1.477 3.674 3.355 5.511 8.034M335.621 118.334c1.306 1.804 2.767 3.066 4.25 4.249" fill="none" stroke="#1f211d" stroke-width=".286"/><path d="M335.024 115.944c1.694.653 3.263 2.313 4.78 4.382-.452-1.218-.916-2.435-1.726-3.652-.797-.885-1.549-1.416-2.257-1.594-.62-.11-.885.178-.797.864z" fill="#fff" stroke="#1f211d" stroke-width=".286"/><path d="M330.443 107.71l5.178 2.656M326.791 106.05c.93 1.284.797 2.568-.399 3.852 1.805 1.172 2.602 2.92 1.926 5.51M323.006 107.312c1.462 1.284 1.506 2.567.133 3.85M314.773 105.386c4.716.176 6.066 2.3 4.05 6.375M319.09 103.46l1.326 2.458M322.807 104.656l1.394 1.46M310.324 100.075c7.198-.688 8.547.574 7.238 2.722M281.515 144.685c-.997 2.6-2.724 2.402-4.783.93-2.049 2.136-3.975 2.203-5.847 1.329-2.746 1.859-4.872 1.859-6.378 0M279.921 149.336c-.872 1.99-1.777 3.883-3.72 2.657-1.374 1.406-2.747 1.87-4.12.266-2.37 4.494-4.496 3.874-6.51.93-3.207 2.947-5.167 2.017-6.778 0M256.8 155.049c-2.633 3.018-5.827 3.712-9.7 1.595M253.08 147.874l-.266 4.252M252.681 145.084c.387 1.373 1.162 2.126 3.322.664-1.003 3.484.638 4.012 2.657 4.119M258.793 151.13l-1.86.996M280.718 154.119c-2.226 1.616-4.064 2.236-5.049.665-3.865 4.703-7.343 7.35-9.435 2.657M282.578 157.308c-3.388 6.033-6.222 8.358-7.84 2.525-.655 1.259-1.426 1.708-2.258 1.727M267.164 161.427c-2.634 1.1-4.05.449-3.853-2.524" fill="none" stroke="#1f211d" stroke-width=".286"/><path d="M282.711 161.029c1.094 5.416-1.999 12.266-4.518 4.65-4.896 1.434-4.363.036-4.916-.797-1.97 3.396-4.097 3.526-6.245 3.189M256.534 157.308c1.082 2.11 3.564 1.576 6.245.665-.087 1.973-1.436 4.94-2.59 5.314-3.399 1.228-4.285-.122-3.256-3.321-1.816 2.169-3.012 1.858-3.588-.93M251.352 159.3c-1.207 5.508-3.045 6.494-5.315 4.386-1.417 1.505-2.746 1.683-3.986.532M245.771 158.637c-.565 1.185-1.14 2.32-2.063 1.897-1.549 3.42-3.999 4.137-6.175 5.677M245.24 140.034l-1.595 5.714M245.638 145.084c.046 3.984 2.04 4.515 5.98 1.594M250.555 149.867c-1.905 2.612-3.809 2.656-5.714.133M243.113 148.738c-3.45.884-4.917-2.437-3.32-5.648M238.596 148.007c-.104.703.256 1.075.152 1.779 1.28 3.737-1.143 6.188-1.747 8.984M243.247 150.797c-.695 4.708-1.83 7.653-3.057 10.232M236.536 166.41c-1.905-.291-3.449-3.114-4.45-4.85M236.071 148.007c-.025 1.345.206 2.82-.456 4.047l-.474 3.793M233.546 148.538c-1.02 3.3-1.108 6.755-1.063 10.232M230.357 160.63c.82.354 1.462.089 1.927-.796M228.325 158.57c.93 1.24 2.036 1.24 3.32 0M231.18 153.458c-.963-2.314-2.29-2.557-3.785-1.86M224.275 152.594c-2.346.775-3.364 2.7-3.055 5.777M225.935 156.977c.477 7.414-.43 8.596-1.727 8.034M283.168 164.81c-1.374 5.557-3.003 11.112-3.253 16.667M277.392 165.675c-1.796 4.373-2.764 8.684-2.258 12.88M273.74 177.825l.531 6.374M271.55 171.517c-.283 4.626.015 9.252.796 13.877M268.23 172.447l-1.528 8.897-1.793 7.769M222.252 136.845c-4.139 8.024-5.47 20.913-6.91 33.618M216.937 140.3c-2.633 7.307-3.923 15.016-4.784 22.855M212.42 140.964c-3.496 7.884-6.713 15.893-6.645 25.38M207.635 140.433c-2.308 1.678-3.357 4.227-3.363 7.499-.607 3.435-1.7 5.409-3.015 6.719M219.063 130.467c-2.026.885-2.713.31-2.79-.93-.797 1.864-1.905 2.172-3.057 2.259M214.944 131.53c.974.399 1.24 1.684.797 3.853M271.35 135.863c.332 1.515-.066 2.666-.797 3.65M232.641 136.659c-.307 5.294.433 8.572 4.913 4.648M231.38 138.983c-4.936 3.807-2.546 10.137 4.647 5.843" fill="none" stroke="#1f211d" stroke-width=".286"/><path d="M226.359 109.025c6.866.142 13.368.218 20.235.36 9.794 4.14 11.557 13.198 6.473 18.142-2.565 1.71-7.22 2.387-8.6-6.685.4-5.25-.132-8.351-3.294-9.774-3.995-1.202-5.99 2.148-6.355 4.025-.717 4.512 4.13 6.247 6.765 3.852 2.835-3.144-1.75-6.607-3.051-3.637.214-.203 3.87.225 1.927 2.373-2.188 1.625-3.878.414-4.414-.786-.447-1.517.31-5.408 5.192-4.625 1.444.534 3.082 1.984 2.612 5.474-.677 3.2-.292 8.39.49 9.945.416 2.348 7.57 7.802 12.517-2.405 2.459-6.07-.275-10.975-5.37-15.351 3.039 1.046 4.553 3.104 11.075 1.838 2.248-1.027 4.786-1.73 7.612-2.107l.602.02-.31-.058.342-.041-.661-.023c-2.793-.57-5.275-1.445-7.447-2.623-6.421-1.71-8.072.239-11.174 1.074 5.382-4.016 8.445-8.722 6.408-14.946-4.236-10.522-11.747-5.572-12.322-3.257-.887 1.497-1.627 6.648-1.171 9.887.229 3.514-1.504 4.849-2.982 5.282-4.924.447-5.412-3.487-4.862-4.97.617-1.16 2.386-2.253 4.457-.482 1.793 2.276-1.885 2.453-2.084 2.236 1.095 3.052 5.906-.09 3.293-3.42-2.465-2.57-7.42-1.171-7.014 3.38.237 1.898 1.996 5.376 6.065 4.45 3.252-1.202 3.996-4.26 3.957-9.524 1.997-8.957 6.595-7.963 9.037-6.08 4.789 5.343 3.059 14.143-7.53 17-6.74-.323-13.63-.067-20.385-.321l-.877-1.041c.104-6.982.866-14.248.933-21.223 3.464-10.408 12.349-11.627 17.407-6.538 1.738 2.546 2.466 7.193-6.592 8.67-5.253-.341-8.348.226-9.736 3.403-1.16 4.008 2.212 5.965 4.094 6.31 4.519.668 6.2-4.198 3.777-6.806-3.174-2.801-6.587 1.82-3.603 3.09-.205-.211.183-3.873 2.352-1.952 1.649 2.17.456 3.873-.738 4.422-1.512.464-5.411-.25-4.682-5.141.519-1.45 1.95-3.103 5.446-2.671 3.207.64 8.392.2 9.938-.6 2.345-.441 7.719-7.654-2.541-12.49-6.096-2.392-10.971.395-15.29 5.537 1.012-3.05 3.053-4.586 1.716-11.094-1.051-2.236-1.781-4.765-2.19-7.586l.016-.661-.061.338a33.292 33.292 0 0 1-.041-.312l-.014.603c-.54 2.799-1.387 5.292-2.542 7.477-1.64 6.439.327 8.068 1.196 11.162-4.075-5.338-8.814-8.351-15.015-6.246-10.475 4.35-5.444 11.808-3.123 12.358 1.507.87 6.666 1.554 9.9 1.063 3.51-.268 4.865 1.45 5.315 2.923.499 4.919-3.428 5.45-4.917 4.917-1.167-.605-2.28-2.362-.531-4.452 2.257-1.817 2.473 1.859 2.259 2.06 3.039-1.128-.154-5.905-3.455-3.255-2.544 2.492-1.091 7.43 3.455 6.976 1.895-.258 5.354-2.055 4.384-6.113-1.237-3.24-4.303-3.95-9.567-3.853-8.978-1.9-8.034-6.508-6.178-8.97 5.228-4.79 14.17-2.508 17.739 7.508-.26 7.006-.52 14.145-.78 21.15l-1.058.979-.552.066c-6.282-.191-12.638-.756-18.894-.817-10.407-3.463-11.626-12.348-6.537-17.406 2.546-1.74 7.193-2.466 8.67 6.59-.341 5.255.225 8.35 3.402 9.738 4.009 1.158 5.966-2.212 6.31-4.094.669-4.52-4.197-6.202-6.806-3.777-2.8 3.174 1.822 6.586 3.09 3.603-.211.205-3.872-.184-1.951-2.352 2.169-1.65 3.872-.456 4.422.738.463 1.512-.251 5.41-5.141 4.68-1.45-.517-3.104-1.95-2.672-5.445.64-3.207.2-8.392-.6-9.938-.44-2.344-7.653-7.72-12.49 2.54-2.392 6.098.396 10.973 5.537 15.292-3.05-1.013-4.585-3.053-11.093-1.716-2.237.575-3.645 2.045-6.466 2.563-.22-.005.68-.01.46-.015.113.019-1.086-.055-1.44-.034.27.153 1.385.263-.021-.003 1.595.237.345.192.546.01 2.678.6 4.164 1.37 6.78 2.31 6.438 1.64 8.068-.326 11.16-1.195-5.337 4.074-8.35 8.813-6.244 15.015 4.35 10.475 11.807 5.443 12.357 3.122.87-1.507 1.554-6.666 1.064-9.9-.268-3.51 1.45-4.864 2.923-5.314 4.919-.5 5.45 3.428 4.916 4.916-.604 1.168-2.361 2.28-4.451.53-1.818-2.255 1.858-2.472 2.06-2.257-1.128-3.04-5.905.153-3.256 3.455 2.492 2.543 7.432 1.09 6.976-3.455-.257-1.896-2.055-5.355-6.112-4.385-3.24 1.238-3.95 4.303-3.854 9.567-1.9 8.979-6.507 8.035-8.97 6.179-4.79-5.23-2.508-14.17 7.509-17.74 6.662.248 12.662.56 19.325.807l.898.93c-.081 7.116-.77 13.763-.84 20.876-3.462 10.407-12.347 11.626-17.405 6.537-1.74-2.545-2.466-7.193 6.59-8.67 5.255.342 8.35-.225 9.738-3.402 1.158-4.008-2.212-5.965-4.094-6.311-4.52-.668-6.202 4.198-3.777 6.807 3.174 2.8 6.586-1.822 3.603-3.09.205.21-.183 3.872-2.352 1.95-1.65-2.168-.456-3.871.738-4.42 1.512-.464 5.41.25 4.68 5.14-.517 1.45-1.95 3.104-5.445 2.672-3.206-.641-8.392-.2-9.938.6-2.344.44-7.72 7.654 2.54 12.489 6.098 2.393 10.973-.395 15.292-5.536-1.013 3.049-3.053 4.585-1.716 11.093 1.05 2.237 1.78 4.766 2.189 7.587l-.015.66.06-.337c.015.103.028.207.04.31.006-.2.01-.4.015-.601.54-2.8 1.388-5.292 2.543-7.477 1.639-6.44-.327-8.07-1.196-11.162 4.074 5.338 8.813 8.35 15.015 6.245 10.475-4.35 5.443-11.807 3.122-12.357-1.507-.871-6.666-1.554-9.9-1.063-3.51.268-4.864-1.451-5.314-2.924-.5-4.92 3.428-5.45 4.916-4.916 1.168.604 2.28 2.36.53 4.45-2.255 1.819-2.472-1.857-2.257-2.058-3.04 1.128.153 5.904 3.455 3.255 2.543-2.492 1.09-7.432-3.455-6.976-1.896.257-5.355 2.055-4.385 6.112 1.238 3.239 4.304 3.95 9.567 3.854 8.979 1.899 8.035 6.507 6.179 8.969-5.23 4.79-14.17 2.509-17.74-7.508.266-7.151.398-13.572.663-20.724l1.07-1.047z" fill="#e21c2a" stroke="#1f211d" stroke-width=".286"/><path d="M232.604 197.982c-4.144 2.45-3.578 5.633-1.86 10.633-3.456-1.683-5.849-1.24-7.178 1.329-9.52-2.285-12.056 3.115-17.014 5.849-2.216.003-4.43-1.64-6.646 2.126-2.02 1.949-4.513 1.536-6.912 1.595 3.336.266 6.808.532 7.975.798-2.126 1.72-4.253 2.288-6.38 2.924 3.534.133 6.923-.31 10.102-1.595 0 1.063-.532 1.772-1.595 2.127h3.19c.137 1.314 5.266.323 10.102-.532 3.012.709 3.721 1.95 2.127 3.722-2.818-.357-5.253 1.207-7.71 2.658-1.195.933-2.702.932-4.253.798 6.048 0 9.991.443 9.304 1.86-.62 2.393-1.595 3.722-2.924 3.988-2.445.869-3.473 2.21-4.785 3.456 6.27-1.02 9.858-2.525 12.23-4.253 5.846-2.038 7.441-1.772 4.784.797l-2.659 5.317c1.13.753 3.036.399 6.646-2.392l-3.456 3.455c3.523-1.971 6.048-3.167 6.381-2.658l-2.659 5.317c3.257-1.184 5.96-4.308 8.507-7.975-.174 3.325-1.593 5.717-3.19 7.975 3.192-1.724 6.206-3.848 7.975-8.773.353-.05.796.39 1.861 4.254-.044 2.706-.398 3.857-.798 4.785-1.506 2.126-3.013 1.89-4.519 2.126 1.285.578 2.613 1.022 4.254.532-2.105 1.816-4.63 2.79-7.444 3.19 4.076.266 7.266 2.08 11.165-2.924.931.066.4 2.326-.797 5.583 3.168-1.84 5.604-5.871 7.71-10.9.62 1.595.221 2.526.132 4.12 1.33-.62 3.323-2.746 4.652-5.848-.489 2.528-.757 5.764.532 6.513 1.334-4.285 3.726-5.925 5.848-8.241-.809 5.516-3.09 10.61-6.38 15.419 2.836-1.853 5.671-4.255 8.507-9.304-.543 3.433-1.939 6.136-3.722 8.506 2.304-1.751 4.608-3.552 6.912-6.911l1.595-6.381c.984.805 2.057 1.45 1.595 4.786 1.463-.883 2.881-2.121 3.988-5.85 1.618 4.564 2.461 9.437.531 15.42l4.786-5.317c2.495 1.6 4.957 3.257 6.38 6.646 0-3.013-.532-5.85-1.595-8.507l3.721 2.127c-1.394-1.883-2.816-3.511-3.357-5.355-1.225-4.178-2.652-6.008-4.352-8.47 1.507.663 3.013 1.548 4.52 3.989.62-1.95 1.417-1.95 2.392 0-1.31-11.66 1.631-7.726 3.722-6.912 1.7 2.582 2.553 5.305 2.126 8.24.886-.046 1.772.13 2.66 1.862 1.27-6.411 3.741-3.204 5.847-2.924.594 2.337.917 4.786 5.85 5.316l6.113 1.064c-3.284-1.684-4.7-3.368-5.849-5.051.975-1.418 3.014-1.063 6.115 1.063 1.282.623 2.787.979 5.848-.532-3.859-.216-6.16-2.61-8.24-5.316 2.303 0 4.075-.887 5.316-2.66-7.2 2.08-9.025-.834-11.165-3.455-1.529-3.456-.864-5.937.797-7.975 1.718-1.776 4.205.288 6.646 2.127-.11-2.37-.775-4.187-2.658-4.785 3.48 1.09 6.983 2.45 10.102-.798 8.14 3.082 12.45.636 17.28-1.063-3.722-.266-6.026-1.241-6.913-2.924 8.211.625 11.13-.618 13.292-2.127-2.465.235-4.999.605-6.38-1.33 3.727.138 5.586-1.282 7.178-2.923-4.43 1.46-7.887.487-10.899-1.595-3.544 1.416-4.785.53-3.722-2.66-14.464 4.048-8.939-.411-6.114-3.721-5.14 2.659-8.064 3.545-6.115.532-4.799.005-3.996-1.858-2.392-3.987-8.159 5.182-10.556 3.45-13.292 2.126-6.389 1.22-5.095 3.979-4.254 6.646.177 2.747-.155 3.699-1.396 2.193-1.185-.27-2.007.548.121 2.292 1.897 1.556.813 4.22-1.383 3.49-3.755-1.312-3.024-4.277-3.19-6.911-.039-9.957-6.288-8.363-6.646-8.507-.609 1.132-.91 2.277-1.643 2.73-.68.422-1.755-1-1.517 1.228.172 1.599-1.247 1.678-1.824 2.289 2.797 1.6 5.555 4.646 6.047 11.032-1.287 1.865-1.64 1.863-1.86 1.595-1.4-1.308-1.088-2.15-.532-2.924-2.057-7.675-6.219-3.565-9.57-3.988-1.38 1.894-2.255 3.866-1.33 6.115-.122.243-.184.526-.365.72-3.323 3.592-4.577 7.822-4.686 6.457.083-2.203.637-4.288 2.681-6.365 1.087-1.104 1.087-2.848 1.041-5.066-1.187-1.97-2.29-3.961-.797-6.646-1.447-.495-3.305-.14-3.542-.685-.532-1.23-1.007-1.14-1.41-.644-.66.815-2.259-.066-3.289-.266-3.934 3.423-3.158 7.122-1.064 10.9 3.641 3.377 2.291 4.684-1.329 5.05-2.297-7.555-5.14-6.904-7.975-6.38-3.067-2.57-4.407-5.14-5.849-7.71.221-2.75.753-3.634 1.33-4.252-1.314.785-3.505 1.404-3.445.294.07-1.273-1.199-1.102-1.327-1.156-1.023-.43-1.59-1.236-2.406-1.531-4.439 5.615-5.834 10.067-.532 11.963 1.132 1.04 2.063 2.06 1.595 2.924-4.897-3.105-3.303-1.213-6.314-4.985 1.001-2.394.083-3.873-1.395-4.32-.49-2.061.837-3.35 1.395-5.981-1.062.564-1.793-.065-2.796-.537-1.389-.654-2.849-.32-3.916-1.19z" fill="#2c2c2b" stroke="#1f211d" stroke-width=".286"/><path d="M289.277 199.404c-3.059-5.22-5.425-4.204-7.769-2.988 2.31 1.26 4.993 2.177 4.914 5.644 1.396.559 2.17-.904 2.855-2.656zM284.098 205.512c1.107-.155 1.77-.93 1.992-2.323-2.047-.067-3.486-1.35-4.648-3.187-.122 2.457.476 4.47 2.656 5.51z" fill="#fff" stroke="#1f211d" stroke-width=".286"/><path d="M286.422 202.126c-.68-3.593-3.538-4.232-6.706-4.448 1.708.972 3.842 1.567 3.851 4.05.686 1.107 1.638 1.239 2.855.398z" fill="#e21c2a" stroke="#1f211d" stroke-width=".286"/><path d="M290.446 202.775c.262-.084.62.3.8.859.178.558.111 1.08-.15 1.164-.263.084-.62-.301-.799-.86-.18-.558-.113-1.08.15-1.163zM233.34 200.223c.366.14.4.905.073 1.704-.327.799-.89 1.333-1.257 1.192-.367-.142-.4-.905-.074-1.704.327-.8.89-1.333 1.257-1.192zM267.874 208.399c.274-.022.534.435.58 1.019.047.585-.138 1.077-.412 1.099-.274.02-.534-.436-.58-1.02-.047-.585.138-1.077.412-1.098zM245.668 205.209c.314.2.221.908-.208 1.579-.429.67-1.032 1.052-1.346.85-.315-.2-.222-.908.207-1.578.43-.671 1.032-1.052 1.347-.851zM266.636 204.98c.066-3.708 1.864-5.34 3.718-6.904-.709 3.265-.864 5.81.2 6.773-.974.933-2.413.62-3.918.132zM273.873 199.869c-.16 2.338-.035 4.913-1.328 6.307l2.324.664c.942-2.324-.239-4.647-.996-6.971z" fill="#fff" stroke="#1f211d" stroke-width=".286"/><path d="M270.62 204.915c-.455-1.881-.056-3.52.73-5.046.11 2.136.553 4.106 1.726 5.71l-.465.73c-1.304.047-1.598-.713-1.992-1.394z" fill="#e21c2a" stroke="#1f211d" stroke-width=".286"/><path d="M244.46 200.068c.441-3.032 2.433-5.046 4.581-5.245-1.043 2.678-2.15 4.449-1.594 6.772l-2.988-1.527zM248.177 201.927c1.926-.442 3.41-2.213 4.45-5.312.017 1.876.318 3.657-.798 5.91-2.722 1.588-3.762 1.178-3.652-.598z" fill="#fff" stroke="#1f211d" stroke-width=".286"/><path d="M247.447 201.396c1.107-1.085 1.948-2.79 2.523-5.113.311 1.616.555 3.21.332 4.648-2.396 1.488-2.77 1.11-2.855.465z" fill="#e21c2a" stroke="#1f211d" stroke-width=".286"/><path d="M232.508 197.744c.88-6.191 2.727-7.12 4.847-6.573-2.059 2.058-2.523 4.294-1.395 6.706l.067.996c-2.867-.177-3.663-.598-3.519-1.13z" fill="#fff" stroke="#1f211d" stroke-width=".286"/><path d="M236.093 198.142c.464-.488 1.016-.886 2.191-.664 1.275-.591 2.358-2.526 3.453-4.382 0 2.756-.553 5.124-2.324 6.64-1.107.53-2.213.089-3.32-.797v-.797z" fill="#fff" stroke="#1f211d" stroke-width=".286"/><path d="M235.363 196.483c.342-1.71 2.068-3.005 4.183-4.183-1.195 1.792-1.682 3.497-1.46 5.112-.798-.066-1.506.22-2.126.863a3.107 3.107 0 0 0-.597-1.792z" fill="#e21c2a" stroke="#1f211d" stroke-width=".286"/><path d="M279.123 247.399c-.242.51-.596.91-1.727.532-1.284-.834-2.569-.516-3.853-.266-1.709-1.018-2.018-2.347-2.126-3.721-.512 1.056-1 2.129-.798 3.72.974 1.33.797 2.48-.53 3.456-.942.974-1.496 2.17-1.197 3.853 1.304-1.78.854-3.331 6.777-5.714 1.196-.486 2.391-.088 3.587 1.196l-.133-3.056zM290.418 248.66c11.127-2.75 12.612.172 12.756 2.99.716-2.363 1.848-4.783-4.119-6.244-.93-.62-.974-1.33-.133-2.126l-1.329-2.923c-.68 3.018-1.71 5.532-3.986 6.245-1.373.133-2.945.332-4.318.465.4.488.731 1.107 1.13 1.594z" fill="#fff" stroke="#1f211d" stroke-width=".286"/><path d="M204.845 220.026c4.872-4.002 9.744-5.962 14.617-6.776M219.993 215.64c-3.896 1.348-7.926 3.117-12.889 7.84M217.203 222.95c3.743-1.323 7.021-3.15 8.637-6.777 1.33 1.372 3.632 1.594 6.91.664M221.853 220.425c1.99.859 3.933 1.898 6.644-.133M246.568 217.635c-2.49-2.801-5.703-3.886-10.497-1.196-1.967 2.463-4.099 3.612-6.245 4.65M246.834 219.628c-1.35 2.159-3.699 3.598-8.238 3.455-2.038-.028-3.117 1.288-4.252 2.524-.975 4.318-3.75 4.13-5.98 5.315-3.06-1.024-4.254.13-5.182 1.595-1.062 1.75-2.436 2.725-3.853 3.588M229.162 239.294c1.863-2.261 2.482-3.9 2.923-5.448.62.227 1.24.17 1.86-.665M232.151 239.559c1.767-1.18 2.841-3.604 3.721-6.378 1.218-1.11 2.458-2.04 3.853-1.728M242.582 231.852c-1.352 1.883-1.928 3.92-2.392 5.98 2.132-1.134 4.07-2.85 5.315-6.644 1.95.84 3.278-.444 3.987-3.853M263.311 219.628c-3.094 2.519-6.345 4.869-6.91 10.098-3.332 1.032-4.285 4.708-5.846 7.707-1.257 3.427-2.996 6.05-5.315 7.707M245.373 248.196c3.307-.073 5.55-2.276 6.91-6.245 1.283-.487 1.86-1.683 1.727-3.588M257.066 232.118c2.458.91 4.363-.951 6.112-3.587-1.454 2.236-3.052 4.559-3.588 6.245-.5 3.938-2.024 5.494-4.119 5.714M261.716 235.839c-.308 2.55-.927 5.364-2.657 5.248M270.353 227.866c-1.367 2.313-2.639 3.35-4.384 10.763M273.453 231.672c-1.704 2.873-1.537 5.254-1.662 9.966M272.214 228.398c4.361-.887 5.778-3.456 5.182-7.176 2.347.956 3.542-.605 3.056-5.846M283.907 221.089c.526 3.09.626 5.947-.797 7.973-1.102 2.34-1.605 4.745.664 7.44M286.166 226.803c-.066 1.384.2 2.824 1.196 4.385 1.284.798 2.037 3.279 2.26 7.44M277.927 239.825c-1.77-1.661-1.593-3.078-.53-4.385 1.965-2.058 1.16-5.328.265-8.637M292.411 220.026c-.344 4.054.474 7.022 5.448 6.113-.774 4.24.112 7.76 4.651 9.7M289.09 223.614c-.089 1.594-.355 2.569-.798 2.923M298.391 217.502c.62.752 1.24.796 1.86.133-.288 2.856.642 4.982 2.126 6.776M303.174 226.537c-.576.487-1.15.532-1.727.133-.177 1.86.443 3.809 1.86 5.847M306.496 231.055c-.157 1.285-.158 2.569.93 3.854-.52 1.97-1.65 2.236-3.056 1.727.782.527 1.631 1.009 1.33 2.259M306.762 237.168c.373 1.785 1.176 3.485 3.322 4.916M307.426 231.985c1.368 2.436 2.84 4.03 4.385 5.05M307.028 222.817c-1.022 1.327-1.776 2.788-.665 5.182M303.041 213.383c3.79-.44 6.751.84 8.24 5.182M311.811 205.144c4.603 2.7 4.072 3.897-1.594 3.588M312.476 210.725c3.098 1.152 1.947 5.136-1.462 4.385 4.057 4.846 11.328.02 5.847-2.79M289.222 203.815c-.088 1.683.887 2.39 2.923 2.126M268.626 207.669c1.14 2.103.941 3.477.133 4.518M246.901 205.543c-.718 3.356-.87 2.63-1.66 3.322M234.344 200.36c-.045 2.038-.443 3.366-1.196 3.987M324.17 219.76c-1.64-.575-2.747-1.151-3.323-1.727M341.31 212.32c-4.387.757-8.15-.042-11.826-1.064M334.4 216.04c-3.41.354-6.112-.177-8.105-1.594" fill="none" stroke="#fff"/></svg>