<svg xmlns="http://www.w3.org/2000/svg" width="800" height="533.33" version="1"><path fill="#fff" d="M0 .002h800V533.33H0z"/><path fill="#ff8400" d="M0 .002h800v177.776H0z"/><path fill="#003884" d="M0 355.554h800V533.33H0z"/><path d="M398.47 191.879v.143c-1.672.295-3.368.385-5.23 1.799-1.617 1.226-3.606.975-5.445.786 1.506.787 2.684 2.199 6.087 1.215 1.609-.465 3.074-1.344 4.575-.584l-.024 3.17-4.253.392c-.251.502-.307 1 .107 1.502l.227-.024c-.301 3.432.113 6.122 1.144 8.16l-17.096 24.042c6.476-3.291 12.883-2.151 17.334 1.716-10.748-.188-12.775-1.267-17.346-1.68 2.216 1.822 4.938 4.528 10.412 5.528-1.047.296-1.779.754-2.609 1.405-.905-.178-1.61-.32-2.478.072-2.605 1.18-.961 3.427 1.74 3.967 1.437.16 2.423-.084 3.276-.405.879-.33 1.839-.847 2.394-1.382.777.199 1.698.297 2.8.226 1.012-.064 2.104-.582 2.8-1.048.699.28 1.565.486 2.644.548 1 .058 2.21-.344 3.026-.715.611.364 1.401.677 2.455.87.98.18 2.263-.064 3.169-.334.498.436 1.19.836 2.18 1.156.91.295 2.238.203 3.205.048.364.493.736 1.269 2.859 1.072 1.239-.115 2.818-.874 2.263-2.943-.245-.917-1.275-1.385-2.216-1.703-1.408-.476-2.633-.428-4.229-.286a3.239 3.239 0 0 0-.798-.62l2.8-.012c1.14-.826 2.174-2.787 2.644-3.705h.656c.481-.85.656-1.508.965-2.275l-11.116.035 15.548-1.131c.441-.636.406-1.236-.096-1.62l-3.002.214c-7.485-8.235-10.441-16.058-14.118-23.946l2.729-.274c.423-.632.34-.942-.191-1.573l-5.623.572c-.523-1.319-.922-2.767-.906-4.623l.5-.047c.174-.514.351-1.024-.035-1.537l-2.275.214-.084-6.385h-1.37zm-2.407 17.286a8.154 8.154 0 0 0 2.31 2.407l-.118 22.647a204.41 204.41 0 0 1-1.62-.011c-3.484-8.45-3.248-18.019-.572-25.043zm64.988 7.077a1.721 1.721 0 0 0-.322.06c-1.906.537-4.677 1.47-6.719 4.539a4.363 4.363 0 0 0-1.99.047c-4.378 1.179-5.667 3.51-6.326 6.112-.068.267-.05.642.084.822l.595.798c-.368.934-.605 1.938.048 3.181l.12 1.013c-.23.374-.097.77.273 1.191-.108.41-.24.841.096 1.322.396.57 1.252.831 2.287.965-.342.596-.618 1.223-1.12 1.728-2.182-.881-4.594-1.421-8.327.143-5.797.035-11.416 3.506-14.118 6.326-1.792 2.202-1.316 3.254-.405 4.432.186.24.358.47.536.69-8.741 1.813-18.858 1.338-25.769-3.561-4.817 3.415-11.183 4.685-17.56 4.527.38-.113.569-.436.38-1.025l-2.25-1.966c-.272-.237-.963-.404-1.36-.452l-2.358-.286a2.444 2.444 0 0 0-.941.083l-2.12.584a19.185 19.185 0 0 0-.203-.131c-1.235.173-2.333.59-3.145 1.275-2.415-.72-4.656-1.604-6.6-2.61a29.498 29.498 0 0 0-1.406 3.682c-.167-.193-.33-.389-.489-.584-1.533-1.63-2.017-3.796-2.68-5.814-.457-1.982-2.598-4.148-4.92-4.205-.065-.535-1.805-1.711-3.265-1.728l-.477-.012-.06-1.06c.822.052 1.895-.122 2.49-.631.515-.44.53-1.03.168-1.644l-.131-.656.202-.512-.274-.631c.72-.165 1.096-.814 1-1.168a2.524 2.524 0 0 0-.202-.5c-.193-1.467 1.258-1.703.846-3.384l-.012-.023c1.37-.28 2.009-.566 2.943-1.192 1.27-.85 1.955-2.468.167-3.264-1.362-.606-2.567-.728-4.444-.846l-1.99-2.454c-.468-.577-1.26-.796-1.99-.894-.871-.117-1.65-.204-2.418-.214a11.35 11.35 0 0 0-2.347.214c-.662.13-1.27.426-1.68.822l-1.858 1.787c-1.555.264-2.982.472-4.325 1.31-2.257 1.412-1.32 3.015.215 3.86.856.472 2.09.915 3.217 1.18 0 1.542.2 3.065-.203 4.647-.121.477.226 1.37.655 1.75.453.402 1.338.942 2.097.93.06-.004.122.001.179 0 .12.866-.046 1.557-.465 2.24a10.21 10.21 0 0 0-.762-.024c-1.608.02-2.929.422-3.598.941-.41.319-1.226 1.205-1.275 1.275-3.627-.213-5.444 2.637-5.897 4.48-.454 1.842-1.587 3.475-2.645 5.813-1.058 2.338-1.802 6.514-2.633 7.506s-1.494 3.042-.762 4.706c.2 1.27 1.128 4.184 2.37 7.22-1.761 1.776-3.501 3.964-5.194 6.67-2.305 3.131-2.74 7.72-1.513 12.117 1.93-6.442 4.773-11.667 8.125-15.583 1.495 3.09 3.185 5.719 4.61 6.135-1.745 3.274-2.265 11.768 2.05 17.644.02.541.042 1.115.06 1.644-1.143 7.503.004 14.712.524 18.61-.138 1.328-.311 2.837-.441 4.276-.46-.089-.92-.17-1.382-.262 2.535-4.273 1.288-9.65-1.06-10.996l-3.8-2.168c-1.734-.994-7.59-1.684-9.841.905l-3.038 3.503c-1.614 1.855-2.11 4.376-1.31 6.528.937 2.525 2.47 4.899 5.36 6.994-4.045 5.506-4.753 8.886-4.706 12.318 1.98-3.805 5.1-6.443 7.696-8.518-.892 4.088-.788 8.576.513 12.664 1.036-5.222 2.629-9.554 5.015-12.616 14.66 3.427 38.808 7.053 71.148 7.053 31.052 0 54.537-3.348 69.337-6.648.597.545 1.377.556 1.894-.31 2.347 3.057 3.918 7.352 4.944 12.521 1.3-4.087 1.405-8.576.513-12.664 2.596 2.075 5.715 4.713 7.696 8.518.047-3.432-.673-6.812-4.718-12.318 2.89-2.095 4.435-4.469 5.373-6.994.8-2.152.303-4.673-1.31-6.528l-3.038-3.503c-2.252-2.589-8.108-1.899-9.841-.905l-3.8 2.168c-.656.376-1.219 1.073-1.645 1.966a60.028 60.028 0 0 1-1.43-4.349c.976-2.255 1.466-4.275 1.895-6.218 1.362-1.759 2.062-3.69 1.43-5.993-.588-3.275-1.456-6.454-1.501-9.007-.098-5.426-.558-10.2-2.193-14.296l-.56-1.906c.496-4.569 1.272-9.08 2.419-13.367a17.811 17.811 0 0 0 2.109 2.311c.805.742 2.059 1.01 2.728-.071 2.442-3.948 3.454-8.99 3.014-13.558.42-1.372.824-2.751 0-4.3-.322-.714-.644-1.512-.989-2.276.414-1.27.831-2.687 1.108-4.182-.268-1.348-.894-1.869-1.513-1.823-.281.021-.563.163-.81.394-.215.874-.538 1.903-.798 2.74-.04-.024-.079-.051-.12-.072-.656-.338-1.348.538-1.226 1.192l.107.988c-.468.537-1.319 1.8-1.537 2.621-.174.656-.04 1.338.322 2.014-.45 1.02-.865 1.832-1.382 2.93-.722-1.26-1.558-2.18-2.586-3.061.052-.125.105-.244.155-.37-.371-.84-.974-1.106-1.441-.679l-2.943-1.596c-.377-.813-.84-.816-1.346-.477-.023.08-.048.16-.072.239l-.012-.012c-.322-.943-1.144-1.449-1.775-2.526-.582-.996-.732-1.654-.226-2.68.44-.894 1.315-1.957 1.418-2.836 1.423-1.9 2.15-4.28.655-7.065-.365-.679-1.052-1.42-1.906-2.013 2.357-1.164 4.978-3.57 5.48-4.456.443-.783-.09-1.253-.822-1.191zm-60.83 4.813c.687 3.185 1.37 6.37 4.253 9.555l-4.123.297-.13-9.852zm6.98 10.972-2.346 2.133c-1.626.032-3.082.041-4.468.048l-.036-1.68 6.85-.5zm31.405 12.938c-.31 1.9.91 6.355 2.3 7.72.211 1.152.953 2.86 2.048 4.206l-.464.31c-.437.37-.251 1.219.25 1.203l.572 4.146c-.387.366-.563 1.035.44 1.394.076-.041.151-.078.227-.12l.37 1.966h-.096c-.946.727-.53 1.84-.131 2.526-2.16 2.539-1.944 9.337-3.074 12.819.409.307.821.58 1.24.822-.248 4.471.215 9.45 2.513 15.738-.302 1.905.335 3.415 1.298 4.777-.102 7.263 1.363 10.178 1.954 16.822.184 1.12.097 1.973-.202 2.311a18.624 18.624 0 0 0-1.358 1.906c-13.075 1.775-27.304 2.752-46.499 2.752-16.692 0-29.617-.75-41.304-2.108.004-1.647-.293-3.282-.822-4.837-.831-6.43-1.142-20.454-2.18-24.351.159-.806.297-1.633.428-2.467 1.561-5.064 2.97-11.669 3.61-15.177.778-4.26.43-8.863-1.06-13.093-.645-2.265-1.33-4.55-1.37-6.91 1.38.523 2.388 1.511 3.383 2.514-.615 10.29 1.686 22.072 6.148 31.82 4.84 10.577 18.238 29.32 33.167 32.298 14.929-2.978 28.338-21.721 33.18-32.297 3.89-8.5 6.135-18.55 6.242-27.807l1.048-.452c.953.366 1.558-.603 1.108-1.418l-1.084-1.954c.19-1.318-.453-1.807-1.31-2.132-.426-4.353-1.405-8.383-3.003-11.807.883-.331 1.736-.714 2.43-1.12zm-58.627 4.778c.448.382 1 .666 1.501.798a44.603 44.603 0 0 1-1.75-.12c.14-.188.247-.441.25-.678zm-44.544 5.778c.426.826.565 1.627.905 2.49.27.862.22 3.065.179 4.753-.96.386-1.914.83-2.871 1.346-.159-.282-.306-.55-.441-.762-.463-.805-.998-1.672-.906-2.62.36-.34 2.47-3.816 3.134-5.207zm1.012 10.293c-.061.617-.225 1.213-.643 1.763-.192-.093-.457-.485-.763-.988.464-.282.936-.533 1.406-.775zm117.444 16.56c.406 4.707 1.832 6.87 5.087 12.188.615 1.004.848 2.193-.131 3.407-2.23 2.765-2.965 6.063-2.252 10.436.46 2.82-.353 5.76-1.572 9.745-.488.894-.968 1.79-.918 2.764-.397.386-.68.953-.798 1.585l-.381.06c-.077-.555-.33-1.096-.691-1.752.126-2.93.19-6.236 1.156-9.269 1.243-3.906 1.616-9.029-.274-11.997-.758-1.189-1.148-2.491-.68-4.777 1.064-5.192 1.81-7.5.727-12.116.244-.086.488-.178.727-.274zm-109.867 16.607c1.01.068 2.01.082 2.979.06.02.085.04.182.06.262-.416 6.187.724 15.045 1.036 18.943-.207 1.225-.137 2.875.143 4.503a288.54 288.54 0 0 1-3.24-.524c-.424-5.058-1.199-8.854-1.37-11.675-.157-2.564.14-7.698.392-11.569zm118.028 11.902c.63 1.507 1.349 3.114 2.156 4.92l.596 1.335a9.979 9.979 0 0 0 1.18 3.085c-2.02.398-4.021.77-6.017 1.132-.178-1.12-.171-2.175-.405-3.586a46.538 46.538 0 0 1 2.49-6.886z" fill="#64a6dc" fill-rule="evenodd" stroke="#000" stroke-width="2.287" stroke-linecap="round" stroke-linejoin="round"/><path d="M369.002 251.38c.266-2.359 2.15-3.656 4.574-3.997 1.225.781 2.586 1.79 1.843 3.782l-6.417.216z" fill="#784421" fill-rule="evenodd" stroke="#000" stroke-width=".762" stroke-linejoin="round"/><path d="M373.284 249.931c-.222-.57.158-2 .432-2.391l2.194-.61a2.41 2.41 0 0 1 .934-.083l2.36.29c.397.05 1.086.207 1.356.444l2.257 1.975c.487 1.523-1.578 1.264-2.835.192-.005.444-.374.939-.659.977a49.661 49.661 0 0 1-6.04-.794z" fill="#d59d79" fill-rule="evenodd" stroke="#000" stroke-width=".762" stroke-linecap="round" stroke-linejoin="round"/><path d="M400.002 335.882c32.34 0 56.494-3.617 71.153-7.044 2.387 3.062 3.98 7.395 5.017 12.617 1.3-4.087 1.398-8.58.506-12.667 2.597 2.075 5.722 4.707 7.702 8.512.047-3.432-.667-6.807-4.712-12.313 2.89-2.095 4.433-4.468 5.371-6.992.8-2.152.296-4.681-1.317-6.537l-3.04-3.496c-2.252-2.589-8.097-1.906-9.83-.912l-3.801 2.179c-2.349 1.346-3.6 6.722-1.064 10.995-19.39 3.818-37.058 6.03-65.985 6.03-28.926 0-46.594-2.212-65.984-6.03 2.535-4.273 1.284-9.649-1.065-10.995l-3.8-2.18c-1.733-.993-7.579-1.676-9.83.913l-3.04 3.496c-1.613 1.856-2.117 4.385-1.318 6.537.938 2.524 2.481 4.897 5.371 6.992-4.045 5.506-4.759 8.88-4.712 12.313 1.98-3.805 5.105-6.437 7.702-8.512-.892 4.087-.794 8.58.507 12.667 1.036-5.222 2.63-9.555 5.016-12.617 14.66 3.427 38.813 7.044 71.153 7.044z" fill="#e0e0e0" fill-rule="evenodd" stroke="#000" stroke-width=".762"/><path d="M473.315 307.453c-.816 1.46-1.072 2.38-.87 4.133.261 1.39.845 2.91 1.774 4.3 1.843 2.955 3.636 5.883 5.743 8.829l-.664.405c-2.25-2.866-3.883-5.866-5.722-8.816a12.39 12.39 0 0 1-1.87-4.575c-.294-1.565-.226-2.95 1.61-4.276z" fill-rule="evenodd"/><path d="M399.193 191.88c-1.91.445-3.813.315-5.947 1.934-1.616 1.227-3.607.978-5.446.789 1.506.787 2.687 2.201 6.09 1.218 1.872-.54 3.536-1.647 5.303-.072v-3.87z" fill="#1663cf" fill-rule="evenodd" stroke="#000" stroke-width=".762" stroke-linecap="round" stroke-linejoin="round"/><path d="m395.037 199.189 4.085-3.296 2.436 2.794" fill="none" stroke="#000" stroke-width=".762"/><path d="m394.607 199.404 7.166-.645c-.32 4.334 1.514 6.512 2.58 9.459l-5.733 3.511c-3.271-2.083-4.753-6.04-4.013-12.325z" fill="#fff" fill-rule="evenodd" stroke="#000" stroke-width=".762" stroke-linecap="round" stroke-linejoin="round"/><path d="M400.82 201.6c.53 1.942 1.292 3.901 2.086 5.353-1.953-.91-2.62-3.158-2.086-5.352zm-4.156.43c.529 1.942 1.292 3.901 2.085 5.353-1.952-.91-2.619-3.158-2.085-5.353z" fill-rule="evenodd"/><path d="m394.285 200.3 7.954-.717c.173-.514.35-1.027-.036-1.54l-8.026.752c-.251.501-.307 1.003.108 1.505z" fill="#784421" fill-rule="evenodd" stroke="#000" stroke-width=".762"/><path d="M405.571 205.208c3.794 8.097 6.748 16.118 14.547 24.58l-15.407 1.074c-4.06-4.3-3.974-8.599-5.23-12.898l-.144-12.182 6.234-.574z" fill="#fff" fill-rule="evenodd" stroke="#000" stroke-width=".762" stroke-linecap="round" stroke-linejoin="round"/><path d="M404.496 211.658c1.559 5.016 3.84 10.032 6.736 15.048-4.696-4.9-6.005-9.96-6.736-15.048z" fill-rule="evenodd"/><path d="m378.563 232.479 20.319-28.579c-5.258 7.042-6.84 20.429-1.723 31.517-4.446-4.827-11.477-6.557-18.596-2.938z" fill="#fff" fill-rule="evenodd" stroke="#000" stroke-width=".762" stroke-linecap="round" stroke-linejoin="round"/><path d="m389.665 263.295 10.007 1.62" fill="none" stroke="#000" stroke-width=".762" stroke-linecap="round" stroke-linejoin="round"/><path d="M400.002 323.945c14.929-2.978 28.33-21.713 33.172-32.29 6.676-14.584 8.538-33.748 2.987-45.604-9.558 4.945-26.19 7.069-36.159 0-9.97 7.069-26.6 4.945-36.159 0-5.55 11.856-3.688 31.02 2.988 45.605 4.841 10.576 18.243 29.31 33.171 32.289z" fill="#c70f2e" fill-rule="evenodd" stroke="#000" stroke-width=".762"/><path d="M379.087 250.759c.523-.016 1.06-.635.826-1.292-.156-.438-1.038-.617-1.777-.558-.564.045-1.171.111-1.438.118.486-.428 1.401-.523 1.816-.17" fill="none" stroke="#000" stroke-width=".762" stroke-linecap="round" stroke-linejoin="round"/><g fill-rule="evenodd"><path d="M179.532 275.202c-6.309-.868-14.784-3.8-20.141-6.945-7.26-4.263-11.713-12.332-1.042-19.447 6.344-4.23 13.138-5.266 20.488-6.598l8.748-9.028c1.934-1.996 4.858-3.518 7.987-4.167 7.752-1.608 14.26-1.184 22.505 0 3.447.494 7.161 1.608 9.376 4.514l9.44 12.382c8.87.594 14.544 1.223 20.98 4.278 8.452 4.01 5.209 12.124-.796 16.414-4.528 3.234-7.515 4.72-14.345 6.166l-63.2 2.43z" fill="#dbc99e" stroke="#000" stroke-width="3.91" stroke-linecap="round" stroke-linejoin="round" transform="matrix(.21155 0 0 .1984 303.182 173.084)"/><path d="m341.366 220.743-1.228.943c3.09-.456 6.887.683 9.711 2.221 1.788.974 3.63 1.744 5.4 1.302-1.695-.348-3.493-.712-4.863-1.652-2.536-1.74-5.84-2.942-9.02-2.814zm11.962.571-.963-.005c.702.906 1.358 1.817 1.802 3.235 2.447.888 4.43-.66 3.339-1.872l-1.9-.595-1.938-.167-.34-.596z"/></g><path d="M225.183 516.2c-1.965 2.356-.772 6.272.108 8.2.88 1.927 1.205 4.956 1.205 4.956 1.953 1.15 5.069 1.923 8.009.726.694 2.294 5.775 5.259 12.486 5.175 6.712-.084 8.81-1.255 10.407-2.878.83-5.616-8.64-8.08-8.64-8.08-2.608-1.491-3.18-8.19-3.18-8.19l-20.395.09z" fill="#784421" fill-rule="evenodd" stroke="#000" stroke-width="2.054" stroke-linecap="round" stroke-linejoin="round" transform="matrix(.40274 0 0 .3777 259.732 127.91)"/><path d="M203.326 288.91c-3.99.051-7.284 1.12-8.946 2.495-1.02.843-3.03 3.163-3.152 3.348-9.005-.563-13.504 7.001-14.63 11.88-1.125 4.877-3.94 9.19-6.566 15.38-2.626 6.19-4.502 17.269-6.566 19.895-2.063 2.626-3.688 8.053-1.87 12.46 1.193 8.091 12.758 41.313 20.85 43.833-4.378 8.755-5.668 31.623 5.4 47.193 11.257 11.444 42.204 7.502 46.143 4.876 5.628-10.506 12.009-41.21 14.314-54.679 1.93-11.28 1.058-23.468-2.643-34.669-1.602-5.996-3.297-12.052-3.398-18.302 6.967 2.812 10.093 10.678 16.94 13.673 4.619-.401 3.37-20.043 5.155-24.82-4.144-2.873-7.626-6.647-10.571-10.505-3.807-4.315-5.017-10.04-6.665-15.38-1.135-5.25-6.445-10.978-12.212-11.13-.161-1.417-4.467-4.536-8.093-4.58l-19.304-.657a23.9 23.9 0 0 0-4.186-.311zm-15.348 48.95c1.06 2.186 1.403 4.296 2.249 6.582.832 2.843.408 11.345.369 15.636-.096 3.425.38 6.786-1.694 9.7-1.406-.731-4.531-7.981-6.472-11.203-1.15-2.132-2.478-4.43-2.25-6.943.894-.896 6.149-10.09 7.798-13.773z" fill="#784421" fill-rule="evenodd" stroke="#000" stroke-width="2.054" stroke-linejoin="round" transform="matrix(.40274 0 0 .3777 259.732 127.91)"/><path d="M334.98 255.524c1.059-2.554 2.046-5.986 2.532-9.223.121 3.27-.988 6.88-1.855 9.955l-.676-.732zm21.888 2.046c.104-4.507-.206-8.226-.935-11.318 1.454 3.53 1.93 8.858 1.719 12l-.784-.682z" fill-rule="evenodd"/><path d="M192.049 294.976c2.889 7.617 9.192 13.132 12.607 15.234.83-2.063 3.41-6.32 5.989-7.093-4.772-3.612-8.642-10.06-9.158-13.93m33.149 4.629c-.31 6.584-.938 11.455-2.934 15.104-1.475-3.223-4.957-5.158-7.537-5.932 4.773-3.612 3.225-8.9 3.74-12.77" fill="none" stroke="#000" stroke-width="2.054" stroke-linecap="round" stroke-linejoin="round" transform="matrix(.40274 0 0 .3777 259.732 127.91)"/><path d="M190.52 517.157c-.558 2.856.392 6.351.713 9.391.14 1.321.684 3.22.281 5.96.874.915 3.566 1.393 5.161.793 2.464 4.06 16.287 4.036 20.17 2.107.954-4.46-1.299-6.845-5.604-8.75l-4.47-10.994-16.252 1.493z" fill="#784421" fill-rule="evenodd" stroke="#000" stroke-width="2.054" stroke-linecap="round" stroke-linejoin="round" transform="matrix(.40274 0 0 .3777 259.732 127.91)"/><path d="M242.966 382c-.516 14.188-.85 39.393-4.719 60.288 2.58 10.319 3.354 47.465 5.417 64.491 1.032 2.58 2.064 8.513 2.064 12.382-7.48 0-15.994.774-24.506 3.096-1.806-5.933-2.58-13.414-1.806-18.316-.774-10.318-3.612-33.793-2.58-50.173-1.29-5.805-3.095-15.865-2.064-26.7 0 0-3.095 7.74-4.9 16.51-.517 8.77-2.077 30.744-1.549 39.984.504 8.818 3.096 21.153 3.87 38.437-5.16-1.29-16.51-1.548-24.507 0-.774-4.901.516-15.478 1.29-23.475-1.29-10.318-4.127-29.408-1.29-49.27-.516-17.026-2.063-36.116 3.096-60.622l12.64-6.965 20.637-4.644L242.966 382z" fill="#1663cf" fill-rule="evenodd" stroke="#000" stroke-width="2.054" stroke-linejoin="round" transform="matrix(.40274 0 0 .3777 259.732 127.91)"/><path d="M224.317 302.988c5.417 8.513 19.09 53.914 18.573 81.516-5.159.516-13.156-.774-19.347-4.127-6.965 3.353-13.93 4.643-23.732 3.87 9.802-18.058 14.446-57.269 11.092-81.26-4.256-3.267-8.9-8.985-8.9-14.058l15.091.774 10.835.645c.215 4.342-.602 9.716-3.612 12.64z" fill="#fff" fill-rule="evenodd" stroke="#000" stroke-width="2.054" stroke-linecap="round" stroke-linejoin="round" transform="matrix(.40274 0 0 .3777 259.732 127.91)"/><path d="M211.86 312.501c1.923-3.709 4.952-6.238 8.457-8.262 2.476 1.806 4.919 3.392 7.701 7.155" fill="none" stroke="#000" stroke-width="2.054" stroke-linecap="round" stroke-linejoin="round" transform="matrix(.40274 0 0 .3777 259.732 127.91)"/><path d="M220.448 305.052c6.19 23.216 4.9 55.204 3.095 75.583" fill="none" stroke="#000" stroke-width="2.054" stroke-linejoin="round" transform="matrix(.40274 0 0 .3777 259.732 127.91)"/><path d="m205.11 275.655.883 5.45c.88 3.322.525 5.631-.839 7.953 2.041 4.256 7.803 11.737 14.885 14.833 4.2-3.483 5.641-7.74 5.641-13.285l-.505-9.297-13.863-10.944-6.202 5.29z" fill="#d59d79" fill-rule="evenodd" stroke="#000" stroke-width="2.054" stroke-linecap="round" stroke-linejoin="round" transform="matrix(.40274 0 0 .3777 259.732 127.91)"/><path d="M345.762 289.164c1.403-4.206 2.234-7.68 3.221-11.497-.086 3.897-1.108 7.94-2.39 11.887l-.83-.39zm1.143 8.282c.71 1.981 1.368 3.134 2.598 4.19-1.247-.18-1.922-1.089-2.494-2.144l-.104-2.046zm10.522 20.832c-.515-1.91-.786-3.247-1.306-4.548.908.523 1.478 2.35 1.764 3.503l-.458 1.045zM335.458 299.4c.147-1.979.785-3.246 1.306-4.547-.908.522-1.479 2.35-1.764 3.502l.458 1.046zm-2.252-56.762c.624.7.746 1.584.873 2.68.51-.762.463-1.85-.143-2.55l-.73-.13zm6.998 30.402c3.948.291 6.753-.196 9.558-1.462 2.494 1.266 5.715 1.753 7.792 1.559l-.104 2.874c-4.77-4.99-11.68-3.621-18.129-.049l.883-2.923z" fill-rule="evenodd"/><path d="M191.625 378.08c1.432 1.54 3.757 2.948 5.749 3.634 1.533.734 2.727 2.953 1.148 4.644 1.49.848 5.51 4.974 6.93 7.837 1.879 2.635-1.382 7.805-5.355 5.013-1.296 1.217-3.061 2.255-4.421 2.995-1.84 1.001-2.568-.051-4.103-1.046-2.167-1.407-1.852-3.675-5.663-5.39 3.978-4.89 6.124-13.036 5.715-17.686z" fill="#d59d79" fill-rule="evenodd" stroke="#000" stroke-width="2.054" stroke-linecap="round" stroke-linejoin="round" transform="matrix(.40274 0 0 .3777 259.732 127.91)"/><path d="M188.073 369.671c2.193 1.42 3.768 6.812 3.612 9.739-.36 6.747-3.225 15.67-9.674 19.282" fill="none" stroke="#000" stroke-width="2.054" stroke-linejoin="round" transform="matrix(.40274 0 0 .3777 259.732 127.91)"/><path d="m335.617 280.354.367-1.55-.404-.827-1.029-.62-1.469 1.034-.918 3.031c1.224-1.183 2.339-1.435 3.453-1.068z" fill-rule="evenodd"/><path d="M190.563 364.943c-16.66 9-31.465 28.833-39.735 58.261-3.047-11.64-1.968-23.798 3.755-32.085 11.555-19.701 23.638-28.901 35.966-34.156l.014 7.98z" fill="#fff" fill-rule="evenodd" stroke="#000" stroke-width="2.054" stroke-linecap="round" stroke-linejoin="round" transform="matrix(.40274 0 0 .3777 259.732 127.91)"/><path d="M335.061 266.852c-2.441 1.51-4.675 3.41-6.337 5.7l.831 1.559c1.49-4.644 4.329-5.781 6.545-5.359l-1.039-1.9z" fill-rule="evenodd"/><path d="M225.763 525.107c3.76.073 6.664.3 8.848 5.248" fill="none" stroke="#000" stroke-width="2.054" stroke-linecap="round" stroke-linejoin="round" transform="matrix(.40274 0 0 .3777 259.732 127.91)"/><path d="M359.94 326.361c-1.728-.392-2.201-.058-3.76.192.746-.746 2.324-1.213 3.052-.804l.708.612zm-14.662.933c-1.896-.27-2.75-.204-4.977.376.896-.889 3.22-1.452 4.401-1.21l.576.834z" fill-rule="evenodd"/><path d="M192.417 528.574c2.579.07 4.441 1.064 4.777 5.192" fill="none" stroke="#000" stroke-width="2.054" stroke-linecap="round" stroke-linejoin="round" transform="matrix(.40274 0 0 .3777 259.732 127.91)"/><path d="M221.71 257.87c-6.385-.669-12.495-.517-19.062 1.368-1.55.304-2.554 1.429-3.01 2.827-.182 4.621.58 9.138-.547 13.863-.302 1.264.576 3.645 1.642 4.652 1.123 1.06 3.313 2.493 5.198 2.462-.06-3.374 1.338-7.752 3.922-8.846l9.303 1.732 4.651-3.374-2.098-14.684z" fill-rule="evenodd" stroke="#000" stroke-width="2.054" stroke-linecap="round" stroke-linejoin="round" transform="matrix(.40274 0 0 .3777 259.732 127.91)"/><path d="M233.487 259.98c.233.611.443 1.231.698 1.833.27.635.628 1.246.24 2.182-.14.337-.927 1.206-1.462 1.723-.505.489-1.258.904-1.221 1.768.079 1.856 1.891 3.943 2.327 5.672.237.938-.713 2.662-2.502 3.098l.698 1.659-.523 1.352.349 1.746c.902 1.629.84 3.2-.437 4.363-1.705 1.556-4.987 1.938-7.069 1.571-3.968-.699-7.41-1.277-10.08-2.993-1.816-1.166-3-3.152-2.828-5.107.133-1.51.03-2.25.365-3.74-2.858-.607-3.771-5.296-3.284-7.752.455-2.287 1.764-4.074 3.74-4.195 3.435 1.672 4.388 7.937 3.557 11.583.8-.606 2.402-.608 2.918-1.733.152-1.855-.713-6.306-1.55-8.847-.896-2.718 2.402-5.655 4.56-6.293l11.504 2.11z" fill="#d59d79" fill-rule="evenodd" stroke="#000" stroke-width="2.054" stroke-linecap="round" stroke-linejoin="round" transform="matrix(.40274 0 0 .3777 259.732 127.91)"/><path d="m352.532 227.27-1.653-.74c-.168-.075-.67-.041-.845.017-.502.167-1.151.574-1.506 1.016.594-.292 1.114-.447 1.671-.465l1.268.465c.41.144.783-.005 1.065-.292zm-2.778 1.48c.587-1.021 1.995-1.035 2.725-.66l-.64.344c.118.368-.13 1.111-.375 1.072-.369-.057-.496-.687-.314-1.016-.426-.08-.838.172-1.396.26zm4.082 1.655-.808-1.757 1.616-1.446c.416 1.699-1.04 1.693-.808 3.203zm-.936 3.187c-.276.442-.65.515-1.103.637-.38.102-.157.462.22.396.82-.144.698 1.08-.422 1.257l.46.293 1.064-.551.276-1.12-.496-.912z" fill-rule="evenodd"/><path d="M350.571 233.718a9.949 9.949 0 0 1 2.392-.048c-.099-.393-.812-.454-1.275-.453-.442-.014-.823.221-1.117.5zm-5.745-3.385c.366-.58.64.22.96.329-.273-.665-.39-1.555-.821-1.996-.304.418-.313 1.085-.14 1.667zm5.814 8.202c-1.922-.299-4.065-1.252-4.187-3.1l3.048.792 1.029.172.11 2.136zm2.959-7.43c.026.458-.531.738-.856.8-.32.06-.512-.166-.529-.41-.419.526.174.939.378 1.019.448.176.866.061 1.264-.258l-.257-1.151z" fill-rule="evenodd"/><path d="M363.848 246.05c-3.785 8.084-4.12 19.565-1.834 30.677h75.984c2.285-11.111 1.95-22.594-1.834-30.677-9.559 4.944-26.189 7.068-36.158 0-9.97 7.068-26.6 4.944-36.158 0z" fill="#e0e0e0" fill-rule="evenodd" stroke="#000" stroke-width=".762"/><path d="M436.164 246.05c-4.22 2.182-9.813 3.813-15.607 4.348-.49.673-.659 1.5-.203 2.514-2.489-1.16-5.373.354-6.671 3.907-.64-1.504-3.786-1.81-5.719.477-3.131-.17-7.54.527-7.815 5.242l-.763 2.192c-2.478-.096-3.375 1.161-2.573 3.336-.98 1.461-.863 2.923.19 4.384-1.32.227-3.12 2.219-3.275 4.277h44.27c2.285-11.111 1.95-22.594-1.834-30.677z" fill="#0e5d2d" fill-rule="evenodd" stroke="#000" stroke-width=".762" stroke-linecap="round" stroke-linejoin="round"/><path d="M466.038 320.275c1.267 2.736 3.134 5.593 5.067 8.462" fill="none" stroke="#000" stroke-width=".762"/><path d="m463.028 235.557.65.227-1.858 5.318-.65-.228 1.858-5.317z"/><path d="m462.251 235.413.728 1.181-.757 2.167-.728-1.18.757-2.168z" fill="#fff" stroke="#000" stroke-width=".801" stroke-linecap="round" stroke-linejoin="round"/><path d="m462.87 236.776-.63-.23.384.884.247-.654z" fill-rule="evenodd"/><path d="m462.64 237.412-.63-.23.384.883.247-.653z" fill-rule="evenodd"/><path d="m464.37 236.17-1.306.47-.757 2.167 1.306-.47.757-2.168z" fill="#fff" stroke="#000" stroke-width=".801" stroke-linecap="round" stroke-linejoin="round"/><path d="m463.036 236.85.636.213-.85.452.214-.666z" fill-rule="evenodd"/><path d="m462.82 237.49.636.214-.85.452.214-.666z" fill-rule="evenodd"/><path d="m459.258 234.353.65.227-1.858 5.317-.65-.227 1.858-5.317z"/><path d="m458.481 234.21.729 1.18-.758 2.167-.728-1.181.757-2.167z" fill="#fff" stroke="#000" stroke-width=".801" stroke-linecap="round" stroke-linejoin="round"/><path d="m459.101 235.571-.63-.228.383.882.247-.654z" fill-rule="evenodd"/><path d="m458.871 236.207-.63-.228.383.882.247-.654z" fill-rule="evenodd"/><path d="m460.6 234.965-1.305.47-.758 2.167 1.306-.47.757-2.167z" fill="#fff" stroke="#000" stroke-width=".801" stroke-linecap="round" stroke-linejoin="round"/><path d="m459.267 235.645.636.214-.85.451.214-.665z" fill-rule="evenodd"/><path d="m459.05 236.286.636.214-.85.451.214-.665z" fill-rule="evenodd"/><path d="m460.357 234.3.65.228-1.858 5.317-.65-.227 1.858-5.318z"/><path d="m459.58 234.157.73 1.18-.758 2.167-.728-1.18.757-2.167z" fill="#fff" stroke="#000" stroke-width=".801" stroke-linecap="round" stroke-linejoin="round"/><path d="m460.2 235.519-.63-.229.383.883.248-.654z" fill-rule="evenodd"/><path d="m459.97 236.155-.63-.229.383.883.248-.654z" fill-rule="evenodd"/><path d="m461.7 234.913-1.306.47-.757 2.167 1.305-.47.757-2.167z" fill="#fff" stroke="#000" stroke-width=".801" stroke-linecap="round" stroke-linejoin="round"/><path d="m460.366 235.593.636.214-.85.451.214-.665z" fill-rule="evenodd"/><path d="m460.15 236.233.636.214-.85.452.214-.666z" fill-rule="evenodd"/><path d="m462.347 234.667.65.227-1.858 5.318-.65-.228 1.858-5.317z"/><path d="m461.57 234.523.729 1.181-.757 2.167-.729-1.181.757-2.167z" fill="#fff" stroke="#000" stroke-width=".801" stroke-linecap="round" stroke-linejoin="round"/><path d="m462.19 235.886-.63-.23.383.883.247-.653z" fill-rule="evenodd"/><path d="m461.96 236.521-.63-.228.383.882.247-.654z" fill-rule="evenodd"/><path d="m463.689 235.28-1.305.47-.757 2.166 1.305-.47.757-2.167z" fill="#fff" stroke="#000" stroke-width=".801" stroke-linecap="round" stroke-linejoin="round"/><path d="m462.356 235.96.636.213-.85.452.214-.666z" fill-rule="evenodd"/><path d="m462.14 236.6.636.214-.85.451.214-.665z" fill-rule="evenodd"/><path d="m461.457 234.254.65.227-1.858 5.318-.65-.228 1.858-5.317z"/><path d="m460.68 234.11.729 1.181-.758 2.167-.728-1.18.757-2.168z" fill="#fff" stroke="#000" stroke-width=".801" stroke-linecap="round" stroke-linejoin="round"/><path d="m461.3 235.473-.63-.23.383.883.247-.653z" fill-rule="evenodd"/><path d="m461.07 236.109-.63-.23.383.883.247-.653z" fill-rule="evenodd"/><path d="m462.799 234.866-1.305.47-.758 2.167 1.306-.47.757-2.167z" fill="#fff" stroke="#000" stroke-width=".801" stroke-linecap="round" stroke-linejoin="round"/><path d="m461.466 235.546.636.214-.85.452.214-.666z" fill-rule="evenodd"/><path d="m461.25 236.187.635.214-.85.452.214-.666z" fill-rule="evenodd"/><path d="m471.902 236.512-1.736 86.38" fill="none" stroke="#000" stroke-width=".801"/><path d="M453.968 220.912c2.047-3.126 4.841-4.07 6.763-4.611.883-.249 1.649.233 1.142 1.128-.507.894-3.172 3.339-5.546 4.489l-2.359-1.006z" fill="#4d4d4d" fill-rule="evenodd" stroke="#000" stroke-width=".801"/><path d="M460.297 218.104c-.683.119-1.378.701-2.167 1.3.129-.429.614-.782.763-1.057-1.177.42-2.146.962-3.139 1.75.336-.728 1.407-1.464 2.254-2.01-1.508-.145-2.865 1.759-3.918 2.86l2.063.85c2.336-1.411 3.947-2.544 4.144-3.693z" fill-rule="evenodd"/><path d="M425.634 244.49c2.703-2.82 8.318-6.3 14.115-6.335 3.734-1.564 6.15-1.02 8.332-.138.502-.505.774-1.13 1.116-1.726-1.035-.134-1.892-.401-2.289-.97-.335-.482-.195-.908-.086-1.318-.37-.42-.508-.823-.278-1.197l-.121-1.005c-.653-1.243-.421-2.256-.052-3.19l-.588-.795c-.133-.18-.157-.55-.088-.817.658-2.603 1.95-4.942 6.328-6.12 2.58-.695 5.382 1.349 6.277 3.016 1.495 2.784.764 5.173-.659 7.074-.102.879-.967 1.936-1.408 2.83-.506 1.027-.36 1.684.223 2.68.63 1.077 1.45 1.579 1.772 2.522l5.59 2.829c1.589 1.344 2.704 2.768 3.683 5.33.54-1.335.9-2.244 1.804-3.728l-1.158-.92c-.585-.83-.829-1.678-.614-2.489.218-.821 1.066-2.088 1.534-2.624l-.102-.989c-.122-.653.57-1.53 1.227-1.192 1.42.73 2.249 3.298 3.118 5.22.824 1.549.42 2.922 0 4.294.44 4.568-.574 9.613-3.016 13.56-.67 1.083-1.921.811-2.727.069-2.101-1.936-3.192-3.762-4.34-5.83-.612 1.978-.513 3.613-1.446 5.893.114 1.773.045 4.027-.554 5.8l-8.248 2.454-8.317.75-.75-3.954-.839-6.426c-1.164-1.367-1.944-3.176-2.164-4.37-1.39-1.366-2.605-5.815-2.297-7.715-1.772 1.033-4.613 1.965-6.18 2.094 1.25 2.098 1.825 3.257 2.337 4.795.788 2.368 1.537 3.937 3.404 5.711 1.27.413 2.58.65 2.32 2.457l1.078 1.953c.45.815-.148 1.79-1.102 1.422l-1.91.814c-.858.364-1.767-.226-2.762-.615-.724-.284-.996-.826-1.143-1.566-.18-.909-.45-1.655-.632-2.445-.178-.775-.866-1.714-1.31-2.422-.987-1.576-3.205-3.494-4.13-4.43-1.564-1.585-2.353-2.509-3.358-3.808-.912-1.178-1.381-2.231.41-4.433z" fill="#c16c43" fill-rule="evenodd" stroke="#000" stroke-width=".801" stroke-linecap="round" stroke-linejoin="round"/><path d="m463.15 303.686-2.091 3.81c.125.606.244 1.21.362 1.816.776 1.946 1.692 4.046 2.785 6.49 2.444 5.467 3.918 8.572 5.11 13.429.792.736 1.928.531 2.319-1.43-.947-5.113-2.642-8.205-5.043-13.637-1.451-3.284-2.576-6.81-3.441-10.478z" fill="#784421" fill-rule="evenodd" stroke="#000" stroke-width=".801"/><path d="M446.625 260.78c.177 1.261.673 2.659 1.5 3.681-.006-1.096-.624-2.653-.017-2.931-.161-1.12-.418-1.437-1.483-.75zm-7.623-1.748c1.064-.162 1.25.336 1.779.924l-.389.649c-.54-.728-.659-1.1-1.39-1.573zm2.031 4.051c-.253.055-.651-.132-.823-.364l-.54-.797c-.923.433-2.267.866-3.203.979l1.57.078c.093.206.488.457.986.49l-.484-.607.69-.222c.234.274.395.494.755.74l1.05-.297z" fill-rule="evenodd"/><path d="M442.498 257.191c7.19-4.736 13.469-10.105 15.81-18.413.506-.34.973-.331 1.35.482l2.94 1.59c.468-.426 1.075-.166 1.447.675-3.901 9.683-10.633 17.23-20.294 22.415-1.004-.359-.82-1.032-.434-1.398l-.578-4.146c-.501.017-.677-.835-.241-1.205z" fill="#c70f2e" fill-rule="evenodd" stroke="#000" stroke-width=".801" stroke-linecap="round" stroke-linejoin="round"/><path d="M442.835 258.59c8.775-5.034 14.46-11.373 16.678-19.234" fill="none" stroke="#000" stroke-width=".801"/><path d="m443.324 262.574-.52-3.897 2.586 2.13.675-4.098 3.46 1.46.595-4.553 4.332-.136.221-4.616 4.117-.735-1.397-3.278 3.464-.44-1.851-3.138 3.479-.432c-2.928 9.011-9.703 16.19-19.161 21.733z" fill="#731121" fill-rule="evenodd" stroke="#000" stroke-width=".801" stroke-linecap="round" stroke-linejoin="round"/><path d="M437.908 244.911c.65-.358 1.408-.79 2.003-1.185.586 2.39.457 3.6 1.812 6.706-2.372-1.892-2.423-2.973-3.815-5.52zm2.704-6.72c-.86.423-1.734.743-2.498 2.006.266-.846.528-1.57 1.214-2.078l1.284.072zm-9.541 7.822c.385.415.816.903 1.15 1.493l.653-.333c-.338-.593-1.078-1.127-1.803-1.16zm18.552-4.55c-.522-.471-.585-.89-.572-1.3-1.503.092-2.575-.505-3.344-1.066.645 1.228 2.604 2.211 3.916 2.366zm2.052.421c.663-.235.881-.598 1.027-.982 1.352.661 2.571.52 3.496.296-1.065.888-3.252 1.046-4.523.686zm-2.2 5.583c.14 1.17.443 2.17 1.022 3.272l-1.568 1.432c.383-2.044.26-3.208.546-4.704zm14.425 5.507a12.007 12.007 0 0 1-1.205-3.808c-.295 1.574-1.98 4.354-2.844 5.929.86-.744 1.642-1.299 2.241-1.567.391-.175.382-.169.747.217l1.06-.771zm-17.4-26.302c-.185.02-.35.094-.474.15l-.362.711.742 1.061-.311 1.46.195 1.252.422.864c.962-.17 1.957-.083 2.222-1.086-.239.307-.697.386-1.03.3-.419.28-1.124.23-1.23-.169-.099-.366-.077-.6.073-.96.155-.375.198-.809.234-1.193.05-.545.196-1.056.555-1.685-.358-.615-.728-.737-1.036-.705zm5.557 1.265c.686-.864.001-1.276-.442-1.428a3.427 3.427 0 0 0-1.205-.163c-.94.041-1.585.707-1.74 1.135.676-.328 1.631-.748 2.564-.55.405.086.875.411.823 1.006zm-1.685-.002c-.63.095-1.126.39-1.71.507.034.152.321.211.64.21a.812.812 0 0 0-.058.224c-.037.306.096.571.3.596.205.024.403-.203.44-.509.016-.143.014-.161.083-.232.03-.03.117-.16.318-.183.423-.05.702-.062 1.157.026-.318-.33-.76-.529-1.17-.639zm-3.452 5.564c.275.33 1.154.355 1.855.286-.596.452-1.322.458-2.063.312l.208-.598zm-.427-.578c.192-.114.331-.27.772-.245.685.04 1.314.259 1.9.576-.678-.03-1.356-.154-2.035-.061-.23-.125-.429-.188-.637-.27zm3.571-2.009c.224-.154.516-.52.675-.748.407.43 1.17.868 1.705 1.172-.784.055-1.296-.086-1.656-.451-.135.06-.541.032-.724.027zm4.401 1.022c.52-.326 1.24-.689 1.43-1.465.157-.643.21-1.26-.38-1.916-.655-.727-.89-.122-1.265.057-.082-.639.852-1.353 1.568-.789.813.642.915 1.634.797 2.494-.128.926-.956 1.755-1.54 1.928-.268.08-.651-.193-.61-.309z" fill-rule="evenodd"/><path d="M455.252 230.703c.383-.433.327-1.418-.01-1.694-.408-.335-.891-.188-.887.44.28-.15.543-.162.453.358-.084.488.15 1.229.444.896z" fill-rule="evenodd"/><path d="M455.42 233.303c-.653.554-1.626.173-1.863-.33-.283-.6-.419-1.487.674-2.092.245 0 .73.504.644.75-.457.17-.365.459-.278.558.092.106.214.15.368.032.116-.09.039-.29.074-.363l.767-.362c.101.577.386 1.154-.385 1.807z" fill="#f5dc0f" fill-rule="evenodd" stroke="#000" stroke-width=".801"/><path d="m448.74 237.476.386 1.374c.68-.987.684-1.782 1.928-1.807.798-.016 1.485.792 1.494 1.687 2.044-.657 1.145-3.41 2.603-4.965l-.964-.024c-1.449 1.93-3.805 2.4-6.073 2l1.108.53-.482 1.205z" fill-rule="evenodd"/><path d="M461.094 266.813c3.765 4.944 4.568 11.256 4.704 18.815.045 2.553.912 5.723 1.5 8.998.632 2.302-.07 4.24-1.432 5.999-.521 2.362-1.12 4.83-2.59 7.703-1.21 2.363-2.633 5.486-3.716 9.441.262 1.58.222 2.713.477 3.988.727 1.241 1.976 2.464 3.681 3.613l-3.306 1.636-2.897-1.056-2.76-3.409c-1.045-1.636-.474-3.03.272-4.397 1.22-3.985 2.028-6.928 1.568-9.748-.714-4.373.02-7.664 2.25-10.43.978-1.214.75-2.403.136-3.408-3.572-5.835-4.947-7.862-5.181-13.634h-1.09c1.71 5.84.914 8.04-.273 13.838-.469 2.286-.076 3.583.681 4.772 1.891 2.968 1.516 8.092.273 11.998-.965 3.033-1.022 6.344-1.148 9.275.667 1.209.996 1.996.432 3.268l-.873 1.931-2.972 2.11-3.87-.921.37-1.49a17.604 17.604 0 0 1 2.52-4.103c.298-.338.387-1.197.204-2.317-.592-6.644-2.06-9.556-1.957-16.82-.964-1.362-1.597-2.866-1.295-4.771-3.798-10.393-2.6-17.218-1.432-24.064l6.272-4.772 11.452-2.045z" fill="#c16c43" fill-rule="evenodd" stroke="#000" stroke-width=".801"/><path d="M448.619 300.352c.665-1.163 1.147-2.333.852-3.408l.716.238c-.105 1.205-.342 2.48-1.568 3.17zm14.486-2.846c.465 1.173.609 2.15 1.636 2.318-.678-.761-.647-2-1.636-2.318z" fill-rule="evenodd"/><path d="M461.503 268.858c-.794 2.069-1.619 7.548-1.909 9.953-4.069 3.693-12.006 7.224-18.542 2.317 1.13-3.482.907-10.276 3.068-12.815-.399-.686-.81-1.796.136-2.523 5.868.095 11.556-1.635 17.247-3.135.514.628 1.287 1.342.409 2.863l1.772 6.067-2.181-2.727z" fill="#784421" fill-rule="evenodd" stroke="#000" stroke-width=".801" stroke-linecap="round" stroke-linejoin="round"/><path d="M457.958 271.721c-1.56 6.044-5.435 8.232-9.339 9.953 4.62-3.659 6.732-6.072 9.34-9.953z" fill-rule="evenodd"/><path d="M444.188 268.38c6.295.49 12.465-.942 17.86-2.794" fill="none" stroke="#000" stroke-width=".801" stroke-linecap="round" stroke-linejoin="round"/><path d="M450.613 259.417c.143.443.366.681.75 1.772.472-1.403.296-2.96.903-3.238l-1.653 1.466zm5.505.647c-1.611.71-.988 2.6-1.5 4.159 1.229-1.227 1.095-2.966 1.5-4.159z" fill-rule="evenodd"/><path d="M465.56 328.813c1.1-2.388-.778-2.791-1.978-3.477-.228.87-2.918 1.084-4.192.648-2.95-1.01-3.932-3.309-5.283-5.079-.78.758-1.163 2.207-.58 3.51 1.995 1.342 2.73 3.872 5.01 4.602 2.654.85 6.4 1.143 7.022-.204z" fill="#784421" fill-rule="evenodd" stroke="#000" stroke-width=".801"/><path d="M453.112 323.108c-1.656 1.692-1.461 2.436-2.91 3.44-1.509 1.045-4.42.635-4.88-.861-1.88.43-2.07 3.205-1.418 3.722 1.894 1.5 4.46 1.378 6.038.917 2.211-.646 2.07-2.037 3.012-2.922 1.194-1.122 1.066-2.892.158-4.296z" fill="#784421" fill-rule="evenodd" stroke="#000" stroke-width=".801"/><path d="M471.924 232.16c-.281.021-.562.156-.81.387-.24.98-.491 1.89-.76 2.76.915.564 1.496 1.528 2.023 2.807a29.75 29.75 0 0 0 1.056-4.138c-.268-1.348-.89-1.862-1.509-1.816zm-4.042 9.86c-.62 1.438-1.072 2.152-1.878 3.955-1.093 2.445-2.015 4.545-2.791 6.49-.382 1.965-.757 3.932-1.405 5.896.047 1.477.022 2.952-.202 4.43.889.85.805 1.832.337 2.864l1.104 3.816c.834-7.715 2.434-15.274 5.344-21.858.64-1.449.982-1.91 1.522-3.108-.078-.421-.261-.859-.534-1.006l-1.16-.92a4.614 4.614 0 0 1-.337-.558z" fill="#784421" fill-rule="evenodd" stroke="#000" stroke-width=".801" stroke-linecap="round" stroke-linejoin="round"/><path d="M478.198 307.65c1.694.879 1.27 2.387.644 3.9-.784 1.728-2.305 3.592-4.277 5.135l-.464-.596c1.884-1.474 3.323-3.271 4.038-4.849.649-1.273.624-2.32.06-3.59z" fill-rule="evenodd"/><path d="M383.022 263.117c.408-1.827.224-3.54-1.28-4.694-1.328-.706-3.137-1.065-4.629.155-3.121-1.896-4.462-1.63-6.959-1.173-2.121.39-4.271 2.208-5.219 3.94-.826 1.507-1.1 3.367-.558 5.777-.104 2.045 1.151 6.171 6.138 7.189 2.056.42 3.855-.094 3.579-2.626-.11-1-.528-1.97-1.609-2.954 1.384-.59 1.174-2.42 2.566-3.402 1.436-.713 2.699-.873 3.737.053.487.337 1.355.96 2.166.558.513-1.44-.36-1.813-.919-2.429.598.38 1.222.64 1.846.613.42-.018.996-.355 1.141-1.007z" fill="#784421" fill-rule="evenodd" stroke="#000" stroke-width=".762" stroke-linecap="round" stroke-linejoin="round"/><path d="M373.415 263.539c-.248.52-.276 1.052-.083 1.465-.937 2.015-3.072 2.15-4.325 1.799-1.037-.291-2.204-.898-2.967-1.847.625 2.898 3.837 2.553 6.434 4.23l-.186-.524.424-.298.488-.441c.434-.8.791-1.68 1.335-2.383l1.525-1.013c-1.95.535-2.486.115-2.645-.988zm-7.169 4.348c.3 1.895 4.287 2.39 4.75 4.29-1.916-1.445-5.207-1.754-4.75-4.29zm13.614-4.027c-1.079-.797-2.015-1.378-3.628-1.617.663-.477 1.688-.37 2.518-.053.499.19.878.416 1.457.983l-.347.688zm-.824-4.643c-.146-.436-.677-.572-1.059-.41-.322.136-.537.486-.322 1.048-1.241-.492-.719-1.28.027-1.638.755-.362 1.74-.282 1.354 1z" fill-rule="evenodd"/><path d="M391.095 274.256c.481-1.51-1.425-2.923-3.336-4.384l-1.144-5.004c-1.561 1.043-3.422 1.061-5.004.429-.939 1.372-.725 3.213-1.19 4.86-3.39 2.043-3.772 3.95-3.384 5.243 1.767-.678 2.863-2.675 5.242-2.335.982.301 2.406 1.175 3.955 2.144.874-.095 1.207-1.716.858-2.669 1.781.304 2.825 1.05 4.003 1.716zm-3.193-14.816-1.477 5.1c4.282.766 9.853 2.07 15.487 3.097h.012c1.632-1.078 4.186-1.141 5.278 1.191.087-1.932 2.58-3.8 4.956-2.668.942-1.655 3.39-2.242 5.504-1.895l1.644-1.87c.317-1.015-.305-1.86-1.382-2.621-3.933.437-6.869 2.092-9.674 3.908-8.64-2.65-14.073-3.012-20.348-4.242z" fill="#784421" fill-rule="evenodd" stroke="#000" stroke-width=".762" stroke-linecap="round" stroke-linejoin="round"/><path d="M386.567 264.868c0 .5-1.099.906-2.454.906-1.354 0-2.454-.406-2.454-.906s1.576-.762 2.407-1.906c.613.556 2.29 1.564 2.501 1.906zm1.016-5.46c.493.082.713 1.233.49 2.57-.222 1.336-.803 2.354-1.296 2.272-.493-.082-.493-1.68-1.485-2.687.649-.514 1.92-2.003 2.29-2.155z" fill="#ba805a" stroke="#000" stroke-width=".762" stroke-linecap="round" stroke-linejoin="round"/><path d="M412.039 265.719c-2.182-.844-4.406.448-5.04 2.216-1.642-.77-2.835-1.484-4.372-1.084-1.748.7-2.901 2.225-2.359 4.122.46-1.573.766-2.38 2.633-3.408 2.164-.863 3.41.448 4.51 2.377.349-2.08 1.596-4.573 4.935-3.277 1.07-1.814 2.914-2.114 4.875-2.066 1.604.194 3.322.876 3.61 2.633l.762-.048c-.264-2.208-2.338-3.057-4.289-3.348-2.013-.231-3.907.341-5.265 1.883z" fill-rule="evenodd"/><path d="m422.045 258.264 5.41-1.878c.54.92.572 1.842.095 2.764l-2.17 1.004c-.376-1.55-2.385-2.175-3.335-1.89z" fill="#784421" fill-rule="evenodd" stroke="#000" stroke-width=".762" stroke-linecap="round" stroke-linejoin="round"/><path d="M398.052 262.438c2.553.308 5.089.542 7.815 1.62-5.846-.588-6.259-1.096-7.815-1.62zm32.012 4.222c-1.297-.008-2.683.576-3.527 1.596-.937-1.091-2.672-1.55-4.431-1.382-1.836.177-3.684 1.082-4.611 2.8-1.115-.615-2.643-.575-4.003-.071-1.502.556-3.006 1.93-2.6 3.658.505-1.274 1.294-2.241 2.874-2.944 1.222-.542 2.821-.459 4.027.441.687-1.986 2.444-2.92 4.396-3.121 2.289-.236 3.425.832 4.348 1.93.705-1.393 2.016-2.043 3.527-2.145 1.509.01 2.262 1.197 2.867 2.44.103-1.919-1.011-3.091-2.867-3.202zm3.586 5.444c-2.076-.133-3.19 1.031-3.66 2.962.82-1.41 1.951-2.243 3.6-2.211 1.63.095 2.633 1.175 3.007 2.726.464-2.184-.958-3.349-2.947-3.477z" fill-rule="evenodd"/><path d="M382.455 260.564c0 .307-.264.556-.59.556-.325 0-.589-.25-.589-.556 0-.308.264-.556.59-.556.325 0 .59.248.59.556z"/><path d="M388.982 263.917c3.193.35 6.365.616 9.775 1.842-7.312-.668-7.829-1.245-9.775-1.842zm10.566 1.613c2.311.162 4.6.247 7.14 1.198-5.28-.248-5.699-.75-7.14-1.198zm-17.511 5.627c-.098-1.5-.273-2.977.425-4.699.352 3.414-.124 3.73-.425 4.699zm3.817.438c.105-1.5.293-2.977-.457-4.699-.378 3.414.133 3.73.457 4.699zm38.833-.905c-2.076-.134-3.19 1.03-3.66 2.961.819-1.411 1.951-2.243 3.6-2.211 1.63.095 2.633 1.175 3.006 2.725.465-2.183-.957-3.348-2.946-3.476z" fill-rule="evenodd"/><path d="M419.437 272.75c-2.064.258-2.94 1.61-3.04 3.596.54-1.54 1.496-2.57 3.122-2.847 1.618-.212 2.806.661 3.464 2.114.047-2.232-1.569-3.11-3.546-2.862zm-14.692-1.078c-2.064.258-2.94 1.61-3.04 3.595.54-1.54 1.496-2.569 3.122-2.846 1.618-.212 2.807.66 3.464 2.114.047-2.232-1.568-3.11-3.546-2.863zm8.694-15.028c-2.064.257-2.94 1.61-3.04 3.595.54-1.54 1.496-2.57 3.122-2.847 1.618-.212 2.806.661 3.464 2.114.047-2.232-1.569-3.11-3.546-2.862z" fill-rule="evenodd"/><path d="M407.98 259.264c-1.79.205-2.549 1.281-2.636 2.862.468-1.226 1.365-1.81 2.774-2.03 1.404-.17 2.366.29 2.936 1.447.041-1.777-1.36-2.476-3.074-2.28zm13.723-6.569c2.075-.133 3.19 1.031 3.66 2.962-.82-1.411-1.952-2.243-3.6-2.211-1.63.095-2.634 1.175-3.007 2.725-.464-2.183.958-3.348 2.947-3.476zm7.479 8.425c2.096-.134 3.03 1.03 3.202 2.961-.601-1.411-1.605-2.243-3.259-2.211-1.644.095-2.814 1.175-3.427 2.726-.127-2.184 1.475-3.349 3.484-3.477zm-17.737 1.785c1.828-.84 3.61-1.73 5.906-2.065-4.132 2.013-4.638 1.805-5.906 2.065zm11.735-4.818c2.005.487 2.642 1.858 2.4 3.73-.272-1.507-1.043-2.585-2.61-3.038-1.57-.39-2.9.287-3.802 1.57.337-2.096 2.092-2.728 4.013-2.262zm-52.805 1.491c-1.364-.538-2.481.148-3.15 1.02 1.024-.466 2.004-.915 3.15-1.02zm3.067-.988c-1.228-.802-2.46-.355-3.291.363 1.097-.249 2.148-.491 3.291-.363zm-.101 1.635c-1.228-.802-2.46-.356-3.291.362 1.097-.249 2.147-.49 3.291-.362zm2.969-.445c-1.051-1.023-2.346-.82-3.3-.276 1.124-.033 2.202-.07 3.3.276zm-6.059 1.358c-1.457-.17-2.36.78-2.784 1.793.87-.712 1.703-1.398 2.784-1.793zm-2.996.092c-1.343.59-1.645 1.865-1.5 2.953.393-1.054.766-2.066 1.5-2.952zm2.272 6.042c1.46.135 2.341-.836 2.74-1.859-.853.732-1.67 1.438-2.74 1.859zm-1.759-.489c1.357.556 2.483-.115 3.164-.976-1.03.45-2.017.887-3.164.976z" fill-rule="evenodd"/><path d="M373.341 260.225c-1.228-.802-2.46-.356-3.291.362 1.097-.249 2.147-.49 3.291-.362z" fill-rule="evenodd"/><path d="m385.676 282.636-.345 4.039c-.725-1.53-1.658-2.078-2.538-2.895.302 1.233.477 2.231.453 3.502-1.232-1.297-2.282-1.594-3.42-2.049.547.748 1.468 1.425 1.728 2.74-1.346-.388-2.933-.398-4.074.227 1.228.259 2.479.476 3.109 1.525-1.603.395-3.06 1.078-3.92 3.05 1.797-.868 2.668-1.377 3.849-.99-1.033.63-2.102 2.076-2.121 4.42 1.052-1.91 1.94-3.146 3.395-3.12-1.105 2.255-.717 3.689-.655 4.884.325-1.204.848-2.125 1.465-2.86l.084.239.81.286 1.287 3.586-.131.321-1.728 8.22.606.526.788-.585.404.991 1.075-.83.82 1.068.896-1.163.745 1.07.674-1 .788.699.277-.822 1.094.226-1.495-8.411.13-.191.87-3.717.787-.37.083-.369a7.253 7.253 0 0 1 1.68 3.086c.062-1.195.45-2.629-.655-4.885 1.455-.025 2.33 1.211 3.383 3.122-.019-2.345-1.076-3.791-2.109-4.42 1.18-.388 2.052.121 3.848.989-.858-1.972-2.328-2.655-3.931-3.05.63-1.049 1.893-1.266 3.121-1.525-1.141-.625-2.74-.615-4.086-.227.26-1.315 1.193-1.992 1.74-2.74-1.138.455-2.2.752-3.432 2.05-.024-1.272.163-2.27.465-3.503-.88.817-1.813 1.365-2.538 2.895l-.345-4.039c-.767 1.225-1.314 2.486-1.466 3.812-.151-1.326-.699-2.587-1.465-3.812z" fill="#f5dc0f" fill-rule="evenodd" stroke="#000" stroke-width=".762" stroke-linecap="round" stroke-linejoin="round"/><path d="M390.18 298.289c-2.244.195-3.514.375-6.115 0-.33.864-.17 1.156.082 2.02 2.366.458 3.45.394 5.815.055.452-.865.566-1.21.219-2.075z" fill="#f5dc0f" stroke="#000" stroke-width=".762" stroke-linecap="round" stroke-linejoin="round"/><path d="m385.27 300.665-.455 4.383 1.241-4.307-.785-.076zm1.05.051.202 4.402.586-4.444-.788.042zm2.02.16.889 4.316-.118-4.48-.772.164zm-1.246-2.412-.722-3.59-.053 3.738.775-.148zm1.909.001.397-3.64-1.18 3.546.783.094zm-.503 9.783-.436-3.636-.348 3.722.784-.086zm-5.1-14.461a.381.381 0 0 0-.261.143l-.822.94.433.613.638.152c.173.57.459 1.061.915 1.4.336-1.059 1.184-2.487 1.593-3.574-.734.462-1.376 1.094-1.773 1.764l-.33-1.188a.381.381 0 0 0-.392-.25zm8.695 1.236c-.56-.773-1.284-1.283-1.953-1.881.35.732.875 1.34 1.012 2.221l.941-.34z" fill-rule="evenodd"/><path d="m411.526 282.636-.346 4.039c-.725-1.53-1.658-2.078-2.537-2.895.302 1.233.476 2.231.452 3.502-1.232-1.297-2.282-1.594-3.419-2.049.546.748 1.468 1.425 1.728 2.74-1.347-.388-2.933-.398-4.075.227 1.228.259 2.48.476 3.11 1.525-1.603.395-3.061 1.078-3.92 3.05 1.796-.868 2.668-1.377 3.848-.99-1.032.63-2.102 2.076-2.12 4.42 1.052-1.91 1.94-3.146 3.395-3.12-1.106 2.255-.718 3.689-.655 4.884.324-1.204.848-2.125 1.465-2.86l.083.239.81.286 1.287 3.586-.13.321-1.728 8.22.605.526.788-.585.404.991 1.075-.83.82 1.068.897-1.163.744 1.07.675-1 .788.699.276-.822 1.094.226-1.495-8.411.131-.191.87-3.717.786-.37.084-.369a7.263 7.263 0 0 1 1.68 3.086c.062-1.195.45-2.629-.656-4.885 1.455-.025 2.331 1.211 3.384 3.122-.02-2.345-1.077-3.791-2.11-4.42 1.181-.388 2.053.121 3.849.989-.859-1.972-2.329-2.655-3.931-3.05.63-1.049 1.893-1.266 3.12-1.525-1.14-.625-2.74-.615-4.085-.227.26-1.315 1.193-1.992 1.739-2.74-1.137.455-2.2.752-3.431 2.05-.024-1.272.162-2.27.464-3.503-.88.817-1.812 1.365-2.537 2.895l-.346-4.039c-.766 1.225-1.313 2.486-1.465 3.812-.152-1.326-.699-2.587-1.465-3.812z" fill="#f5dc0f" fill-rule="evenodd" stroke="#000" stroke-width=".762" stroke-linecap="round" stroke-linejoin="round"/><path d="M416.03 298.289c-2.244.195-3.515.375-6.115 0-.33.864-.17 1.156.081 2.02 2.367.458 3.45.394 5.816.055.452-.865.565-1.21.218-2.075z" fill="#f5dc0f" stroke="#000" stroke-width=".762" stroke-linecap="round" stroke-linejoin="round"/><path d="m411.12 300.665-.456 4.383 1.242-4.307-.786-.076zm1.05.051.202 4.402.586-4.444-.788.042zm2.019.16.89 4.316-.119-4.48-.771.164zm-1.245-2.412-.723-3.59-.052 3.738.775-.148zm1.908.001.398-3.64-1.181 3.546.783.094zm-.502 9.783-.437-3.636-.347 3.722.784-.086zm-5.1-14.461a.381.381 0 0 0-.262.143l-.821.94.432.613.639.152c.173.57.458 1.061.914 1.4.337-1.059 1.185-2.487 1.594-3.574-.734.462-1.377 1.094-1.773 1.764l-.33-1.188a.381.381 0 0 0-.393-.25zm8.694 1.236c-.56-.773-1.283-1.283-1.952-1.881.35.732.874 1.34 1.012 2.221l.94-.34z" fill-rule="evenodd"/><path d="m398.473 191.88-.214 42.996 2.156.072-.06-2.42 22.588-1.644c.442-.635.407-1.235-.095-1.62l-22.493 1.645-.321-24.793 8.423-.858c.423-.631.34-.94-.191-1.572l-8.256.834-.167-12.64h-1.37z" fill="#784421" fill-rule="evenodd" stroke="#000" stroke-width=".762" stroke-linecap="round" stroke-linejoin="round"/><path d="M409.082 218.107c1.111 2.7 2.738 5.398 4.802 8.097-3.348-2.636-4.28-5.36-4.802-8.097zm-6.126-2.437c1.558 5.017 3.84 10.033 6.736 15.049-4.696-4.9-6.005-9.96-6.736-15.048zm-2.851-3.289c.444 2.788.69 6.28 2.399 10.73-2.727-3.914-3.157-8.038-2.399-10.73z" fill-rule="evenodd"/><path d="M378.556 232.51c5.623.51 7.397 2.025 26.299 1.649l2.364-2.15 11.287-.036c-.309.767-.481 1.425-.963 2.276h-.651c-.47.917-1.51 2.881-2.65 3.708l-25.01.143c-5.663-.956-8.422-3.736-10.676-5.59z" fill="#784421" fill-rule="evenodd" stroke="#000" stroke-width=".762" stroke-linecap="round" stroke-linejoin="round"/><path d="M417.56 233.79h-8.601l8.274.532.327-.532zm-13.713 2.177c-5.795.59-13.197.578-17.582 0 4.928-.08 10.773-.062 17.582 0z" fill-rule="evenodd"/><path d="m381.958 231.01 13.123-18.952m-3.141 4.561c-.541 4.513.053 10.502 1.267 15.556m-3.75-11.908c-.24 3.174.102 7.117 1.064 10.691m-3.446-7.296c-.16 2.027.18 4.763.963 6.79m-3.091-3.446c.13.943.22 2.322.608 3.395" fill="none" stroke="#000" stroke-width=".762" stroke-linecap="round" stroke-linejoin="round"/><g fill-rule="evenodd"><path d="M366.526 371.996c5.872-3.265 10.097-4.881 16.615-4.189 4.277.455 7.727 2.474 10.26 5.356 2.424 2.757 4.01 6.302 4.678 10.023.67 3.733 1.872 8.264 4.938 12.37-3.69 1.716-8.728 3.319-12.792 2.178-4.35-1.22-7.616-3.196-10.113-5.504-3.762-3.477-5.778-7.71-7.126-11.254-1.344-3.534-3.57-6.718-6.46-8.98z" fill="#c70f2e" stroke="#000" stroke-width="3.828" transform="matrix(.24627 0 0 .1611 308.915 177.504)"/><path d="M393.394 373.15c6.374-2.126 10.824-2.935 17.103-1.051 4.12 1.235 7.138 3.856 9.097 7.156 1.873 3.156 2.777 6.934 2.748 10.714-.03 3.792.315 8.467 2.571 13.07-3.942 1.004-9.19 1.65-12.974-.22-4.05-2.003-6.896-4.547-8.924-7.276-3.056-4.111-4.257-8.643-4.928-12.375-.669-3.721-2.27-7.261-4.692-10.017z" fill="#e0e0e0" stroke="#000" stroke-width="3.828" transform="matrix(.24627 0 0 .1611 308.915 177.504)"/><path d="M436.56 409.747c-8.69 1.232-10.156-3.666-11.646-6.723-2.245-4.604-2.59-9.28-2.56-13.072.028-3.78-.892-7.555-2.765-10.71 6.657-.915 11.316-1.34 17.14 1.67 3.82 1.974 8.012 4.913 9.01 10.61 2.251 12.84-4.148 17.512-9.18 18.225z" fill="#c70f2e" stroke="#000" stroke-width="3.828" transform="matrix(.24627 0 0 .1611 308.915 177.504)"/><path d="M339.906 375.818c5.169-4.293 9.023-6.66 15.557-7.182 4.287-.342 8.05 1.006 11.072 3.371 2.89 2.262 5.103 5.455 6.446 8.989 1.348 3.544 3.364 7.777 7.136 11.247-3.31 2.366-7.967 4.871-12.171 4.5-4.5-.398-8.075-1.737-10.955-3.545-4.339-2.723-7.101-6.511-9.08-9.746-1.972-3.225-4.747-5.944-8.005-7.634z" fill="#e0e0e0" stroke="#000" stroke-width="3.828" transform="matrix(.24627 0 0 .1611 308.915 177.504)"/><path d="M314.447 384.485c4.289-5.173 7.64-8.21 13.966-9.929 4.15-1.127 8.098-.496 11.504 1.271 3.258 1.69 6.021 4.42 7.993 7.645 1.979 3.235 4.741 7.023 9.088 9.738-2.817 2.936-6.931 6.258-11.132 6.668-4.496.44-8.256-.217-11.42-1.463-4.767-1.876-8.181-5.09-10.722-7.904-2.534-2.806-5.763-4.966-9.277-6.026z" fill="#c70f2e" stroke="#000" stroke-width="3.828" transform="matrix(.24627 0 0 .1611 308.915 177.504)"/><path d="M304.394 384.954c3.522-2.438 6.392-1.57 10.066-.462 3.514 1.06 6.733 3.233 9.267 6.04 2.54 2.814 5.955 6.027 10.727 7.894-2.226 3.405-6.052 6.502-9.71 8.607-3.461 1.99-7.48 3.517-13.316 2.523-10.965-3.35-17.613-17.28-7.034-24.602z" fill="#e0e0e0" stroke="#000" stroke-width="3.828" transform="matrix(.24627 0 0 .1611 308.915 177.504)"/><path d="m390.416 240.801 2.332.368-.506-.864 1.911.552-.224-.993c.431.374.8.747 1.883 1.121-1.386.678-2.902 1.121-5.396-.184z" fill="#5b0715"/><path d="m396.225 239.871 2.189.643-.254-.91 1.723.773.059-1.003c.319.42.575.831 1.534 1.33-1.552.498-3.168.75-5.251-.833z" fill="#868686"/><path d="m402.197 239.658 1.97.896.007-.925 1.475.967.341-.978c.196.45.33.886 1.133 1.492-1.666.302-3.325.356-4.926-1.452z" fill="#5b0715"/><path d="m408.126 240.17 1.684 1.118.268-.909 1.177 1.13.61-.922c.066.467.076.912.694 1.603-1.723.097-3.369-.05-4.433-2.02z" fill="#868686"/><path d="m393.26 238.975-2.479-.22.634.83-2.157-.34.357.977c-.497-.346-.926-.696-2.103-1 1.36-.78 2.956-1.653 5.748-.247z" fill="#f36079"/><path d="m399.545 238.42-2.374-.516.389.893-2.025-.594.075 1.003c-.39-.4-.714-.796-1.784-1.237 1.557-.602 3.37-1.267 5.719.45z" fill="#c1c1c1"/><path d="m405.878 238.633-2.188-.793.13.924-1.822-.828-.208.994c-.272-.44-.478-.868-1.405-1.43 1.7-.404 3.67-.84 5.493 1.133z" fill="#f36079"/><path d="m412.043 239.607-1.927-1.044-.132.924-1.558-1.034-.486.953c-.142-.466-.224-.911-.977-1.576 1.785-.192 3.844-.382 5.08 1.777z" fill="#c1c1c1"/><path d="m384.372 242.52 2.555.028-.7-.71 1.914.26.016-1.027c.53.315.996.638 2.166.875-1.17.833-3.688 1.842-5.95.575z" fill="#868686"/><path d="m413.81 241.388 1.24.927.918-.535.44.86 1.657-.423c-1.546 1.693-4.112 1.002-4.256-.83z" fill="#5b0715"/><path d="m417.827 241.307-1.6-1.258-.39.892-1.24-1.203-.745.877c-.01-.475.036-.922-.516-1.667 1.808.027 3.885.089 4.491 2.36z" fill="#f36079"/><path d="m387.24 240.278-1.926.083.284.74-1.617-.122-.172 1.047c-2.176-1.92 1.867-3.162 3.43-1.748z" fill="#c1c1c1"/></g><path d="M333.967 320.275c-1.267 2.736-3.135 5.593-5.067 8.462" fill="none" stroke="#000" stroke-width=".762"/><path d="M326.69 307.453c.816 1.46 1.071 2.38.87 4.133a11.784 11.784 0 0 1-1.775 4.3c-1.843 2.955-3.636 5.883-5.743 8.829l.664.405c2.251-2.866 3.884-5.866 5.722-8.816a12.39 12.39 0 0 0 1.87-4.575c.295-1.565.226-2.95-1.609-4.276z" fill-rule="evenodd"/><path d="M321.806 307.65c-1.693.879-1.27 2.387-.644 3.9.784 1.728 2.306 3.592 4.277 5.135l.465-.596c-1.885-1.474-3.323-3.271-4.039-4.849-.649-1.273-.624-2.32-.059-3.59z" fill-rule="evenodd"/><g stroke="#000" stroke-width="2.039"><path d="M371.092 929.086h6.38l-8.042-14.022h-6.38l8.042 14.022z" fill="#c70f2e" fill-rule="evenodd" transform="matrix(.3658 .0265 -.02754 .38024 259.372 -30.61)"/><path d="m364.446 917.523-6.712 11.563m-2.06 0h5.183m0-5.184h7.377m.126 5.184h10.78" fill="none" transform="matrix(.3658 .0265 -.02754 .38024 259.372 -30.61)"/></g><g stroke="#000" stroke-width="2.039"><path d="M426.258 941.01c-3.09 1.375-3.15 5.135-.688 7.135 1.38 1.122 3.548 1.878 6.288 2.215 5.741.705 7.875 1.024 7.413 3.36 2.304-1.802 2.65-5.763.387-7.073-2.257-1.307-4.591-1.724-7.006-2.097-3.75-.578-7.304-.287-6.394-3.54z" fill="#c70f2e" fill-rule="evenodd" stroke-linecap="round" stroke-linejoin="round" transform="matrix(.366 .02352 -.02445 .38045 241.646 -40.206)"/><path d="M425.415 941.557c3.67-2.737 10.84-2.706 14.897.606m.141-2.843v4.896m-1.034 9.35c-2.66 2.41-12.338 1.867-15.131-1.211m.047-1.872v4.876" fill="none" transform="matrix(.366 .02352 -.02445 .38045 241.646 -40.206)"/></g><g stroke="#000" stroke-width="2.039"><path d="M446.559 941.01c-3.09 1.375-3.15 5.135-.69 7.135 1.382 1.122 3.55 1.878 6.289 2.215 5.742.705 7.875 1.024 7.413 3.36 2.305-1.802 2.65-5.763.388-7.073-2.258-1.307-4.592-1.724-7.007-2.097-3.75-.578-7.304-.287-6.393-3.54z" fill="#c70f2e" fill-rule="evenodd" stroke-linecap="round" stroke-linejoin="round" transform="matrix(.36657 .01145 -.0119 .38105 230.014 -35.355)"/><path d="M445.716 941.557c3.67-2.737 10.84-2.706 14.896.606m.141-2.843v4.896m-1.033 9.35c-2.661 2.41-12.339 1.867-15.132-1.211m.047-1.872v4.876" fill="none" transform="matrix(.36657 .01145 -.0119 .38105 230.014 -35.355)"/></g><g stroke="#000" stroke-width="2.039"><path d="M469.74 940.25h5.827v14.023h-5.827V940.25z" fill="#c70f2e" transform="matrix(.36675 0 0 .38123 217.926 -30.131)"/><path d="M467.032 940.25h11.243m-11.243 14.023h11.243" fill="none" transform="matrix(.36675 0 0 .38123 217.926 -30.131)"/></g><g stroke="#000" stroke-width="2.039"><path d="M481.62 940.583h13.004m-13.004 14.022h13.303" fill="none" transform="matrix(.36675 0 0 .38123 217.926 -30.258)"/><g fill="#c70f2e"><path d="M484.328 940.583h5.827v14.022h-5.827v-14.022z" transform="matrix(.36675 0 0 .38123 217.926 -30.258)"/><path d="M494.6 940.583c2.764.792 4.282 4.492 4.22 7.21-.074 3.27-1.104 5.162-3.954 6.812 3.239 0 10.332-.425 10.4-6.878.06-5.618-6.628-7.144-10.666-7.144z" fill-rule="evenodd" stroke-linecap="round" stroke-linejoin="round" transform="matrix(.36675 0 0 .38123 217.926 -30.258)"/></g></g><g stroke="#000" stroke-width="1.99"><path d="M509.824 941.097h5.827v8.294c0 4.397 1.659 5.306 4.511 5.728-7.73 0-10.338-.828-10.338-6.602v-7.42z" fill="#c70f2e" stroke-linejoin="round" transform="matrix(.3849 0 0 .38123 208.888 -30.454)"/><path d="M507.116 941.097h11.243m1.886 14.023c3.664.132 5.686-1.991 5.686-5.542v-8.481m3.383 0h-6.955" fill="none" transform="matrix(.3849 0 0 .38123 208.888 -30.454)"/></g><g stroke="#000" stroke-width="2.039"><path d="M535.853 940.25h5.827v14.023h-5.827V940.25z" fill="#c70f2e" transform="matrix(.36658 -.01119 .01163 .38106 207.158 -24.064)"/><path d="M533.145 940.25h11.243m-11.243 14.023h11.243" fill="none" transform="matrix(.36658 -.01119 .01163 .38106 207.158 -24.064)"/></g><g stroke="#000" stroke-width="2.039"><path d="M554.462 940.25h5.827v14.023h-5.827V940.25z" fill="#c70f2e" transform="matrix(.36628 -.0187 .01944 .38074 199.913 -19.677)"/><path d="M547.917 944.304v-4.053h18.916v4.053m-15.079 9.969h11.242" fill="none" transform="matrix(.36628 -.0187 .01944 .38074 199.913 -19.677)"/></g><g stroke="#000" stroke-width="2.039"><path d="M572.098 940.25h6.695l6.841 7.713v6.31h-5.827v-5.516l-7.709-8.506z" fill="#c70f2e" transform="matrix(.36552 -.03005 .03123 .37995 189.24 -12.502)"/><path d="m585.323 947.721 5.965-7.47m-4.598-.001h7.745m-17.269 14.023h11.242M569.95 940.25h11.197" fill="none" transform="matrix(.36552 -.03005 .03123 .37995 189.24 -12.502)"/></g></svg>