<svg xmlns="http://www.w3.org/2000/svg" width="800" height="500" version="1"><path fill="#002673" d="M0 0h800v500H0z"/><path d="M532.747 138.834l8.09-12.92-9.787-11.69 14.79 3.703 8.091-12.921 1.05 15.21 14.788 3.703-14.14 5.697 1.047 15.21-9.788-11.688-14.141 5.696zm-66.888-48.966l1.157-15.201-14.1-5.8 14.816-3.596 1.158-15.202 8 12.979 14.815-3.596-9.872 11.618 7.998 12.98-14.1-5.799-9.872 11.617zm-81.963-12.264l-6.04-13.998-15.18 1.418 11.447-10.07-6.038-13.999 13.114 7.775 11.447-10.07-3.341 14.876 13.113 7.775-15.18 1.419-3.342 14.874zm-78.284 27.24l-11.854-9.587-12.782 8.31 5.455-14.236-11.853-9.588 15.225.789 5.455-14.236 3.955 14.723 15.226.79-12.781 8.311 3.954 14.724zm-56.658 60.511l-14.952-2.978-7.453 13.3-1.788-15.14-14.952-2.98 13.847-6.379-1.788-15.14 10.346 11.197 13.848-6.378-7.453 13.3 10.345 11.198zm-22.035 79.892l-14.623 4.312-.419 15.24-8.62-12.575-14.623 4.31 9.296-12.083-8.619-12.576 14.365 5.107 9.297-12.083-.418 15.24 14.364 5.108zm17.618 80.98l-10.945 10.614 6.712 13.688-13.476-7.128-10.945 10.613 2.615-15.02-13.476-7.13 15.093-2.153 2.616-15.02 6.713 13.689 15.093-2.153zm53.25 63.53l-4.756 14.485 12.306 9-15.246-.047-4.757 14.485-4.666-14.514-15.246-.049 12.362-8.923-4.665-14.514 12.306 9 12.362-8.922zm76.658 31.494l2.52 15.035 15.079 2.251-13.521 7.043 2.519 15.036-10.877-10.683-13.522 7.042 6.8-13.645-10.876-10.684 15.078 2.25 6.8-13.645zm82.433-7.714l9.213 12.147 14.4-5.008-8.705 12.516 9.212 12.147-14.594-4.411-8.706 12.515-.314-15.242-14.593-4.413 14.4-5.009-.313-15.242zm69.501-45.182l13.804 6.472 10.421-11.127-1.89 15.128 13.804 6.473-14.972 2.877-1.89 15.128-7.364-13.35-14.972 2.877 10.421-11.128-7.362-13.35zm40.527-72.29l15.23-.684 4.057-14.696 5.357 14.274 15.23-.684-11.919 9.506 5.357 14.274-12.724-8.399-11.92 9.505 4.055-14.696-12.723-8.4zm2.291-82.836l13.168-7.684-3.237-14.898 11.376 10.15 13.168-7.683-6.136 13.956 11.375 10.15-15.169-1.524-6.138 13.955-3.238-14.897-15.169-1.525z" fill="#fff"/><path d="M489.369 260.717l86.298 6.403-10.916-7.697 51.55 3.692-9.41-6.646 31.228-1.765-54.434-11.778 10.932 7.736-65.744-10.443 13.77 9.737-53.408-8.179.134 18.94zm-178.703.29l-85.319 14.46 12.443 4.858-50.934 8.767 10.73 4.197-29.896 9.196 55.67-1.607-12.467-4.892 66.331-5.613-15.701-6.154 53.811-4.855-4.668-18.357zm5.13-42.81l-82.255-26.88 8.756 10.088-49.167-15.928 7.546 8.706-30.742-5.764 50.03 24.47-8.762-10.13 61.332 25.881-11.038-12.75 49.896 20.728 4.405-18.421zm24.421-35.485l-60.346-62.023 3.066 13-36.135-36.95 2.637 11.217-24.544-19.39 32.93 44.915-3.05-13.04 42.281 51.415-3.85-16.419 34.55 41.54 12.461-14.265zm38.088-20.067l-24.64-82.954-3.322 12.937-14.842-49.505-2.874 11.157-12.731-28.57 8.305 55.07 3.354-12.965 13.567 65.171 4.216-16.329 11.307 52.834 17.66-6.846zm43.097-.073l16.748-84.9-8.956 9.91 9.873-50.73-7.731 8.543 2.01-31.214L415.097 66.8l8.996-9.92-18.284 64.007 11.323-12.497-14.55 52.034 18.819 2.148zm38.176 19.959l54.283-67.393-12.535 4.613 32.317-40.332-10.815 3.971 16.284-26.705-40.61 38.113 12.576-4.604-45.935 48.18 15.835-5.803-37.065 39.313 15.665 10.647zm24.534 35.425l79.388-34.438-13.243-1.743 47.36-20.688-11.421-1.511 26.83-16.076-53.671 14.87 13.275 1.768-63.066 21.308 16.717 2.222-51.09 17.58 8.92 16.708zm-9.952 83.054l73.445 45.763-6.09-11.888 43.933 27.219-5.246-10.258 28.474 12.946-42.731-35.72 6.086 11.93-53.366-39.791 7.67 15.02-43.494-32.055-8.681 16.834zm-32.268 28.656l43.702 74.69.143-13.356 26.215 44.54.131-11.52 19.175 24.711-21.193-51.504-.166 13.392-28.711-60.059-.202 16.863-23.575-48.615-15.52 10.858zm-41.738 10.343l4.067 86.44 6.323-11.765 2.56 51.618 5.461-10.145 5.523 30.787 5.118-55.458-6.36 11.786 2.427-66.524-8.002 14.845 1.669-54.004-18.786 2.42zm-43.367-10.688l-35.764 78.8 10.99-7.593-21.24 47.116 9.484-6.542-9.111 29.922 29.823-47.036-11.03 7.595 32.47-58.113-13.888 9.57 26.091-47.314-17.825-6.405zm-31.924-29.184l-68.298 53.139 13.259-1.614-40.71 31.84 11.439-1.383-21.978 22.256 48.272-27.778-13.297 1.596 55.765-36.355-16.744 2.016 45.096-29.76-12.804-13.957z" fill-rule="evenodd" fill="#fff"/><path d="M497.73 249.997a97.73 97.73 0 1 1-195.462 0 97.73 97.73 0 1 1 195.461 0z" fill="#fff"/><path d="M384.824 302.633l-.004 2.146h1.381v-1.498h1.893v1.498h1.381v-1.498h1.893v1.498h1.381v-1.498h1.893v1.498h1.381v-1.498h1.893v1.498h1.381v-1.498h1.893v1.498h1.381v-1.498h1.893v1.498h1.381v-1.498h1.893v1.498h1.381v-1.498h1.893v1.498h1.381v-1.498h1.893v1.498h1.381v-1.498h1.893v1.498h1.381v-1.498h1.893v1.498h1.381v-1.498h1.893v1.498h1.381v-1.498h1.893v1.498h1.381v-1.498h1.893v1.498h1.38v-1.498h1.894v1.498h1.38v-1.498h1.894v1.498h1.38v-1.498h1.894v1.498h1.38v-1.498h1.894v1.498h1.38v-1.498h1.894v1.498h1.38v-1.498h1.893v1.498h1.382v-1.498h1.892v1.498h1.382v-1.498h1.892v1.498h1.382v-1.498h1.892v1.498h1.382v-1.498h1.892v1.498h1.382v-1.498h1.892v1.498h1.381v-1.498h1.893v1.498h1.381v-1.498h1.33v-.648h-87.83z" fill="#002673"/><path d="M359.72 329.336c1.69.226 4.722.421 6.335-.29-.997 1.847-4.69 2.242-6.335.29zM360.91 327.27c-1.64.225-4.578.42-6.14-.291.966 1.847 4.544 2.242 6.14.29zM369.708 285.465c-5.433-.003-10.782.824-15.125 3.146-4.708 2.516-7.357 5.689-12.58 6.359-6.382.818-10.92 3.33-12.736 6.926h6.926l2.424-3.386-1.41 3.386h1.392l2.922-4.073-1.701 4.073h1.306l2.87-4.004-1.667 4.004h1.134l3.644-5.104-2.114 5.104h.756l4.417-6.153-2.56 6.153h.446l5.156-7.184-2.973 7.184h.138l5.242-7.322-3.025 7.322h.292l4.95-6.909-2.853 6.91h.051l5.638-7.872-3.249 7.871h.069l5.053-7.047-2.922 7.047h.292l5.397-7.528-2.801 6.755 5.637-7.872-3.472 8.336 6.377-8.886-3.043 7.305 5.242-7.305-3.23 7.786 5.585-7.786-3.3 7.94 5.31-7.39-3.333 8.06 5.259-7.355-3.3 7.94h.137l4.761-6.634-2.75 6.634h.138l5.242-7.322-3.042 7.322h.498l3.713-5.173-2.149 5.173h1.1l2.716-3.798-1.581 3.798h11.91l3.85-5.362-2.217 5.362h1.048l3.506-4.881-2.028 4.881h4.074l5.396-7.51-3.11 7.51h.962l4.486-6.239-2.595 6.24h1.014l4.125-5.758-2.39 5.757h9.797l4.812-6.737-2.784 6.737h.722l4.125-5.757-2.39 5.757h.774l4.263-5.947-2.475 5.947h5.482c2.075-1.588 4.219-3.023 6.858-3.54 3.057-.795 6.186.056 9.264.103 1.909-.182 3.93-1.628 5.792-.499 1.535 1.364 3.415 2.618 5.568 2.114 2.608.017 5.524.387 7.752 1.822h8.851l-.412-7.614c-2.997-1.492-5.894-1.687-9.127-.825-2.44.651-4.34-.482-6.496-1.1-2.55-.73-5.227-.36-8.302-.137-5.114.37-10.206-.502-14.66-1.667-5.24-1.371-10.456-2.339-15.76-.55-2.718.916-5.559.214-8.302-.55-6.546-1.824-13.012-3.888-19.92-1.942-8.037 2.264-10.401-.105-14.385-.825-3.896-.704-8.167-1.218-12.392-1.22z" fill="#002673" fill-rule="evenodd"/><path d="M479.243 229.416h-4.839m5.588-1.802h-10.247m11.046-1.802h-12.178m11.85-1.801h-12.716m12.092-1.802h-15.42m14.992-1.802h-16.523m16.195-1.802h-16.994m16.583-1.801h-16.317m15.29-1.802h-15.623m14.658-1.802h-16.522m15.157-1.802h-21.614m20.183-1.802h-20.45m18.553-1.801h-17.42m16.155-1.802h-8.566m7.967-1.802h-10.63m10.064-1.802h-10.796m9.964-1.801H458.16m9.931-1.802h-16.72m14.49-1.802h-16.954m15.224-1.802H449.24m12.86-1.801h-10.064m8.034-1.802h-2.176m.978-1.802h-3.774m2.675-1.802h-5.737m4.439-1.801h-4.506m-108.99 43.242h-23.365m23.318-1.802h-16.351m15.645-1.802h-14.421m13.056-1.801h-15.975m15.127-1.802h-17.48m16.915-1.802H322.91m17.34-1.802h-13.574m15.08-1.801h-14.797m15.456-1.802H325.64m16.397-1.802h-17.245m9.055-1.802h-7.36m15.597 19.82h-24.588m22.658 1.801h-23.27m47.183-3.603h-4.253m31.649-1.802h-34.097m35.415-1.802h-37.58m37.486-1.801h-38.24m36.734-1.802h-34.474m33.532-1.802h-31.46m30.99-1.802h-30.99m32.12-1.801H358.59m33.814-1.802h-26.47m29.342-1.802h-23.412m25.624-1.802h-24.588m25.577-1.802h-19.081m13.056-1.801h-11.926m48.595 12.612h-5.854m21.387-1.802h-28.824m34.19-1.801h-36.92m36.638-1.802h-32.59m27.036-1.802h-28.26m26.094-1.802h-35.603m10.279-1.802H403.12m25.53-1.801h-25.53m25.153-1.802h-23.458m23.082-1.802H410.37m22.14-1.802h-21.48m22.422-1.801h-26m26.189-1.802h-28.449m26.377-1.802h-25.435m23.835-1.802h-20.352m20.917-1.801h-21.576m22.423-1.802H402.18m29.013-1.802h-32.779m29.578-1.802h-29.201m20.728-1.801h-17.904m15.739-1.802H403.12m9.243-1.802h-10.278m5.853-1.802h-10.09m7.83-1.802h-11.03m11.878-1.801h-6.23m-33.781 34.233h-9.714m10.326-1.802h-10.89m11.36-1.801H356.05m16.398-1.802h-19.175m21.481-1.802h-22.846m23.647-1.802h-20.776m20.776-1.801h-18.752m17.904-1.802h-18.14m16.305-1.802h-20.352m16.068-1.802h-17.669m14.986-1.801h-14.327m11.69-1.802h-9.995m9.337-1.802h-15.41m14.94-1.802h-13.95m8.536-1.801h-7.643m41.49 18.017h-2.31m3.175-1.802h-7.168m7.634-1.801h-8.167m12.96-1.802H383.67m15.29-1.802h-15.956m15.223-1.802H381.34m9.498-1.801h-13.692m12.96-1.802h-14.292m14.025-1.802h-13.825m13.36-1.802h-13.027m9.365-1.801H375.15m9.365-1.802h-13.36m12.628-1.802h-12.095m7.9-1.802h-7.367m-2.263-5.11h3.814m-15.87 3.007h3.324" fill="none" stroke="#002673" stroke-linecap="round" stroke-width=".54998"/><path d="M429.467 218.642a2.07 2.07 0 0 0-2.08 2.063c0 .04.015.08.018.12-.425.13-.765.459-.911.877a1.379 1.379 0 0 0-1.925.223 2.084 2.084 0 0 0-1.324-.464 2.07 2.07 0 0 0-2.062 2.08c0 .107.001.206.017.309l-33.24-.74-.824.637a1.38 1.38 0 0 0-1.22-.756c-.764 0-1.383.613-1.393 1.375a1.34 1.34 0 0 0-.584-.155c-.394 0-.76.167-1.014.43a1.371 1.371 0 0 0-1.031-.774c.026-.107.051-.211.051-.326 0-.77-.64-1.393-1.41-1.393-.054 0-.101.012-.154.018a2.058 2.058 0 0 0-1.942-1.358 2.07 2.07 0 0 0-2.08 2.062c0 .439.146.851.378 1.186l-.051.069a1.373 1.373 0 0 0-1.031-.481c-.77 0-1.393.64-1.393 1.41 0 .186.037.352.104.515a1.38 1.38 0 0 0-.705.343 1.389 1.389 0 0 0-2.51.825v.035a1.992 1.992 0 0 0-.704-.138c-1.145 0-2.08.935-2.08 2.08 0 .107.002.207.018.31a1.359 1.359 0 0 0-.825-.293c-.363 0-.698.151-.946.378a1.41 1.41 0 0 0-1.323-.945c-.066 0-.126.008-.19.017a2.06 2.06 0 0 0-1.907-1.255c-1.043 0-1.9.767-2.045 1.77a1.396 1.396 0 0 0-1.1 1.152c-.25-.37-.67-.618-1.152-.618-.763 0-1.4.613-1.409 1.374a1.391 1.391 0 0 0-2.062 1.22c0 .261.081.497.206.705l-1.29.688h135.262l-2.2-5.517-.687-.24v-.035c0-.746-.587-1.355-1.323-1.392a1.395 1.395 0 0 0-1.393-1.324c-.769 0-1.392.623-1.392 1.392v.035a1.415 1.415 0 0 0-.653.189c.087-.182.155-.387.155-.602a1.391 1.391 0 0 0-2.767-.206 1.35 1.35 0 0 0-.602-.155c-.11 0-.224.028-.326.052a1.385 1.385 0 0 0-1.375-1.272c-.265 0-.511.078-.722.206a2.061 2.061 0 0 0-3.953.223c-.102-.023-.2-.05-.31-.05-.297 0-.581.098-.807.257a1.365 1.365 0 0 0-.79-.258c-.77 0-1.41.623-1.41 1.392v.035a1.385 1.385 0 0 0-1.581 1.255 1.379 1.379 0 0 0-1.066-.516c-.376 0-.712.153-.962.395a2.084 2.084 0 0 0-2.08-2.045c-.402 0-.782.128-1.1.326a1.395 1.395 0 0 0-.945-.36c-.168 0-.316.031-.464.085a1.382 1.382 0 0 0-.722-.79 2.065 2.065 0 0 0-2.046-1.805c-.897 0-1.653.576-1.942 1.375a1.372 1.372 0 0 0-.842-.292c-.393 0-.76.167-1.014.43-.25-.371-.67-.62-1.151-.62a1.4 1.4 0 0 0-1.375 1.187c-.2-.166-.451-.277-.722-.31v-.034c0-.77-.623-1.392-1.392-1.392-.055 0-.102.011-.155.017.02-.114.034-.24.034-.36a2.07 2.07 0 0 0-2.08-2.063c-1.072 0-1.938.81-2.045 1.856-.058-.007-.111-.017-.171-.017-.262 0-.513.08-.722.206a1.406 1.406 0 0 0-1.358-1.066c-.642 0-1.179.441-1.34 1.032a1.37 1.37 0 0 0-1.015-.464c-.515 0-.962.288-1.203.704a2.094 2.094 0 0 0-1.186-.378 2.05 2.05 0 0 0-1.392.567 1.393 1.393 0 0 0-1.392-1.357c-.668 0-1.239.472-1.375 1.1a1.386 1.386 0 0 0-.997-.791v-.052c0-.77-.622-1.392-1.392-1.392-.115 0-.236.025-.344.052a2.061 2.061 0 0 0-2.045-1.788z" fill="#002673"/><path d="M352.865 239.112c-1.023.258-2.054.247-3.077.327l.911.292c-1.532.422-2.832.27-4.245.395l-27.259 16.293-5.173 2.149-3.437 2.939.257.378-4.107 2.131 1.839 7.081c2.245-.079 4.492.432 6.737-1.014a7.267 7.267 0 0 1-2.956-1.134c1.655-.276 3.312-.361 4.967-1.427a5.795 5.795 0 0 1-2.75-.98c2.224.008 4.32-.195 5.81-1.289-1.605-.16-3.283-.153-4.624-.928 1.02-.228 1.992-.479 2.286-.98-1.036.012-2.038-.016-2.853-.446l3.007-1.667c.984.667 2.095.935 3.386.618l3.661.275-1.375.568c1.547.39 3.094.31 4.64-.086-.79-.136-1.603-.23-2.268-.808 1.22.11 2.441 0 3.66-.413-1.342-.096-2.51-.604-3.66-1.151 1.776.218 3.552.12 5.328-.447-1.384-.127-2.133-.167-3.455-.86l.774-.842 2.51-.171c1.06.305 2.37.513 3.78.086-.682-.068-1.176-.454-1.667-.843 1.526.075 3.054.134 4.452-.24-1.293.06-2.195-.53-3.18-.963 1.35.082 2.706.129 4.056-.24-.792-.165-1.504-.633-2.165-1.255 1.002-.022 2.06-.326 3.128-.739 1.012.45 1.705.179 2.543.223-.895.535-1.865.482-2.801.688 1.569.352 3.26.234 4.915.24-.655.388-1.304.681-1.96.791 1.102.229 2.197.087 3.232-.12 1.315.327 3.017-.29 4.503-.808-1.13.292-2.232-.246-3.317-.395 1.106-.31 2.22-.522 3.283-1.135-1.09.164-2.035-.242-2.99-.618 1.063-.112 2.132-.272 3.196-.705-1.406-.007-2.603-.472-3.781-.98.731-.134 1.458-.24 2.234-.687a2.936 2.936 0 0 1-1.65-.55c1.986-.122 3.994-.256 6.342-.877l-2.853-.532c1.171-.11 2.255-.518 3.334-.946-.785-.019-1.569-.1-2.354-.395 1.036-.041 1.894-.38 2.801-.636-1.318-.061-2.195-.45-3.11-.825.947-.103 1.879-.204 3.007-.894-.903.048-1.7-.1-2.372-.515l3.661-.997c-.768.03-1.533.04-2.165-.292 1.054-.068 2.03-.312 2.853-.842l-2.63-.396 3.162-.808-3.489-.498c.735-.114 1.42-.279 1.96-.653-1.037-.026-1.778-.227-2.492-.447zm-33.12 21.26c.206.041.419.072.636.103-.651.399-1.308.499-1.96.62l1.324-.723z" fill="#002673" fill-rule="evenodd"/><path d="M304.439 251.615l32.362-11.25h15l-47.779 25.555.417-14.305z" fill="#fff" fill-rule="evenodd" stroke="#002673" stroke-width=".54998"/><path d="M338.896 242.743l-2.55-.94 1.655-31.622h7.284l.695 32.562h-7.084z" fill="#fff" fill-rule="evenodd" stroke="#002673" stroke-linejoin="round" stroke-width=".54998"/><path d="M345.98 242.743l-.695-32.562h1.598l1.666 31.64-2.569.922z" fill="#002673" fill-rule="evenodd" stroke="#002673" stroke-linejoin="round" stroke-width=".54998"/><path fill="#002673" stroke="#002673" stroke-linecap="round" d="M341.26 214.077h2.357v3.367h-2.357zM341.26 224.286h2.357v3.367h-2.357zM341.26 234.712h2.357v3.367h-2.357z" stroke-width=".54998"/><path fill="#fff" stroke="#002673" stroke-linecap="round" d="M336.427 208.157h12.061v2.018h-12.061z" stroke-width=".54998"/><path d="M337.266 208.161v2.007M338.178 208.161v2.007M340.8 208.161v2.007M344.115 208.161v2.007" fill="none" stroke="#002673" stroke-width=".54998"/><path fill="#002673" stroke="#002673" stroke-linecap="round" d="M346.779 208.157h2.161v2.018h-2.161z" stroke-width=".54998"/><path d="M337.98 210.194h7.44l.05 1.633h-5.893l-1.711.897.115-2.53z" fill="#002673" fill-rule="evenodd"/><path d="M342.438 196.393l-4.97 2.848v2.16h9.941v-2.16l-4.97-2.848" fill="#fff" fill-rule="evenodd" stroke="#002673" stroke-width=".54998"/><path d="M342.438 196.393l2.886 2.848v2.16h2.085v-2.16l-4.97-2.848" fill="#002673" fill-rule="evenodd" stroke="#002673" stroke-width=".54998"/><path d="M337.44 199.241h9.92" fill="none" stroke="#002673" stroke-width=".54998"/><path fill="#fff" stroke="#002673" stroke-linecap="round" d="M338.584 201.406h7.709v6.753h-7.709z" stroke-width=".54998"/><path fill="#002673" stroke="#002673" stroke-linecap="round" d="M344.348 201.406h1.945v6.753h-1.945z" stroke-width=".54998"/><path fill="#fff" stroke="#002673" stroke-linecap="round" d="M340.285 202.673h4.306v4.08h-4.306zM345.309 202.673h.975v4.08h-.975zM339.568 202.673h-.975v4.08h.975zM339.166 249.917c.34-.69 1.393-1.505 2.209-.744v2.676c-.704.289-1.439.3-2.209 0v-1.932zM343.755 246.993c.322-.656 1.323-1.43 2.098-.707v2.542c-.735.284-1.429.239-2.098 0v-1.835zM334.047 253.178c.357-.727 1.466-1.585 2.325-.784v2.817c-.745.3-1.515.353-2.325 0v-2.033zM328.162 256.873c.376-.765 1.544-1.668 2.447-.824v2.965c-.815.385-1.631.334-2.447 0v-2.14zM321.071 261.414c.395-.806 1.624-1.756 2.576-.868v3.121c-.859.325-1.717.456-2.576 0v-2.253z" stroke-width=".54998"/><path d="M349.474 261.094c-1.11.105-3.202.28-4.4.296.984 1.037 3.664.692 4.4-.296zM347.747 259.672c-.999.151-2.79.282-3.742-.195.59 1.239 2.77 1.504 3.742.195z" fill="#002673" fill-rule="evenodd"/><g stroke="#002673"><path d="M392.685 206.828a60.752 60.752 0 0 1 10.415.723l-.028.3a60.937 60.937 0 0 1-10.414-.725l.027-.298z" fill="#002673" fill-rule="evenodd" stroke-width=".54998"/><path d="M424.968 240.824c-16.272.213-28.135-.205-39.243-.479l26.576 2.344 12.667-1.865z" fill="#fff" fill-rule="evenodd" stroke-width=".54998"/><path d="M423.295 239.101l.478 2.297" fill="none" stroke-width=".54998"/><path d="M421.168 211.211l-.43-.024-4.04 31.502 1.148.096 3.322-31.574z" fill="#002673" fill-rule="evenodd" stroke-width=".54998"/><path d="M412.11 239.388c4.968.15 8.698-.32 15.248.622-2.58-4.442-3.599-8.728-3.633-12.916l-9.799 7.08-1.816 5.214z" fill="#fff" fill-rule="evenodd" stroke-width=".54998"/><path d="M417.873 212.847c1.776.14 3.742.537 5.556 1.12v.219c-1.777-.142-3.742-.539-5.556-1.122v-.217z" fill="#002673" fill-rule="evenodd" stroke-width=".54998"/><path d="M422.646 213.89c-.412.944-.272 2.003.076 3.005-1.489-.78-3.814-1.37-4.2-.552-.602-.894-.767-2.415-.076-3.271 1.324.063 2.762.336 4.2.818z" fill="#fff" fill-rule="evenodd" stroke-width=".54998"/><path d="M417.476 216.252c1.927.152 4.06.583 6.029 1.216v.237c-1.928-.154-4.06-.585-6.03-1.217v-.236z" fill="#002673" fill-rule="evenodd" stroke-width=".54998"/><path d="M422.627 217.409c-.146 1.35-.291 2.606.247 3.9-1.799-1.104-3.921-1.523-5.17-.686-.785-1.3-.544-3.322.324-4.07 1.57.12 3.161.374 4.6.856z" fill="#fff" fill-rule="evenodd" stroke-width=".54998"/><path d="M416.924 220.575c2.123.168 4.47.642 6.638 1.339v.261c-2.122-.17-4.47-.644-6.638-1.34v-.26z" fill="#002673" fill-rule="evenodd" stroke-width=".54998"/><path d="M422.665 221.936c-.614 1.445-.43 2.853-.019 4.242-1.951-.977-4.092-1.288-5.569-.818-1.425-1.3-.589-3.475.419-4.432 1.748-.026 3.288.405 5.17 1.008z" fill="#fff" fill-rule="evenodd" stroke-width=".54998"/><path d="M415.214 225.222c2.82.224 5.942.854 8.823 1.78v.347c-2.821-.226-5.942-.856-8.823-1.782v-.345z" fill="#002673" fill-rule="evenodd" stroke-width=".54998"/><path d="M415.614 225.493c3.207.271 5.619.721 7.716 1.598-.898 2.003-.724 4.007-.532 6.01-2.5-1.766-4.893-2.768-7.032-1.864-.695-1.92-.61-3.956-.152-5.744z" fill="#fff" fill-rule="evenodd" stroke-width=".54998"/><path d="M409.989 201.23c2.567-.222 5.4-.129 8.005.262l-.008.308c-2.568.22-5.4.127-8.006-.264l.009-.306z" fill="#002673" fill-rule="evenodd" stroke-width=".54998"/><path d="M414.476 199.634l-.43-.024-6.716 42.984 1.147.095 6-43.055z" fill="#002673" fill-rule="evenodd" stroke-width=".54998"/><path d="M417.265 201.545c-1.257 1.048-1.114 2.76-.456 4.718-5.243-2.45-6.763-1.652-8.134-.723.44-1.37.84-2.937 2.166-4.109 2.477-.445 4.725-.119 6.424.114z" fill="#fff" fill-rule="evenodd" stroke-width=".54998"/><path d="M407.657 205.852c3.15-.113 6.603.176 9.762.815l-.029.375c-3.15.11-6.603-.178-9.761-.817l.028-.373z" fill="#002673" fill-rule="evenodd" stroke-width=".54998"/><path d="M416.923 206.757c-2.646-.51-5.475-.759-8.666-.685-1.12 1.428-2.057 3.04-2.471 5.174 1.526-1.177 4.964-2.37 10.91.951-.615-1.995-1.054-3.944.227-5.44z" fill="#fff" fill-rule="evenodd" stroke-width=".54998"/><path d="M405.225 210.905c3.918.097 8.198.598 12.1 1.413l-.05.356c-3.917-.099-8.197-.6-12.1-1.415l.05-.354z" fill="#002673" fill-rule="evenodd" stroke-width=".54998"/><path d="M416.505 212.54c-1.386 2.526-.895 5.414.342 8.445-5.19-2.67-9.66-3.403-13.228-1.712-.423-3.211-.073-6.066 2.129-8.065 4.978.23 8.412.697 10.757 1.332z" fill="#fff" fill-rule="evenodd" stroke-width=".54998"/><path d="M402.688 219.541c4.752.107 9.943.662 14.675 1.565l-.06.394a91.96 91.96 0 0 1-14.674-1.567l.06-.392z" fill="#002673" fill-rule="evenodd" stroke-width=".54998"/><path d="M416.695 221.404c-2.026 3.249-1.148 6.045-.342 9.016-8.193-3.742-12.76-3.737-14.672-.99-.754-2.75-1.766-6.228 1.596-9.548 4.363.074 8.879.55 13.418 1.522z" fill="#fff" fill-rule="evenodd" stroke-width=".54998"/><path d="M400.502 229.29c6.161-.099 12.913.324 19.085 1.192l-.06.481c-6.16.095-12.912-.328-19.084-1.195l.059-.479z" fill="#002673" fill-rule="evenodd" stroke-width=".54998"/><path d="M418.748 230.762c-2.484 3.489-3.504 7.304-3.763 10.994-7.076-2.792-13.895-4.094-16.117-2.434-.99-3.168.343-7.016 2.66-9.625 4.778-.151 11.436-.037 17.22 1.065z" fill="#fff" fill-rule="evenodd" stroke-width=".54998"/><path d="M398.702 201.26l-.43-.023-6.429 40.974 1.147.096 5.712-41.046z" fill="#002673" fill-rule="evenodd" stroke-width=".54998"/><path d="M394.151 202.855c3.07-.16 6.448.002 9.55.457l-.016.307a50.02 50.02 0 0 1-9.55-.458l.016-.306z" fill="#002673" fill-rule="evenodd" stroke-width=".54998"/><path d="M402.988 203.469c-.869 1.28-1.066 2.53-.43 3.739-3.844-.972-6.994-1.32-8.896-.215.23-1.343.39-2.72 1.64-3.928 2.562-.095 5.124.148 7.686.404zM402.478 207.692c-.501 1.51-.645 3.046-.215 4.627-3.639-.69-7.246-1.768-11.02-.753.006-2.476 1.035-3.49 2.015-4.573 3.071.23 5.95.138 9.22.7zM411.297 219.153c-5.359 7.474-7.997 13.725-9.464 19.566-3.074-1.272-4.505-1.528-7.552-1.435 5.344-6 11.426-12.254 17.016-18.131z" fill="#fff" fill-rule="evenodd" stroke-width=".54998"/><path d="M401.833 234.174c.954-6.893 3.087-14.075 10.23-22.484-7.351 6.257-14.57 13.168-21.797 20.044 3.615.052 7.207.03 11.567 2.44z" fill="#fff" fill-rule="evenodd" stroke-width=".54998"/><path d="M395.906 219.344c4.21-3.434 6.434-4.644 12.428-7.846-2.376 3.001-4.222 5.156-4.684 8.898-3.28-1.546-5.144-.754-7.744-1.052z" fill="#fff" fill-rule="evenodd" stroke-width=".54998"/><path d="M390.205 211.518c3.987-.08 8.362.224 12.369.856l-.033.355a72.633 72.633 0 0 1-12.369-.858l.033-.353zM386.939 218.407c5.017-.083 10.904.245 15.946.901l-.041.369c-5.017.08-10.905-.247-15.946-.903l.04-.367z" fill="#002673" fill-rule="evenodd" stroke-width=".54998"/><path d="M401.994 212.534c-1.283 2.024-.755 4.283.161 6.59-5.405-1.221-10.523-1.5-14.272-.672-.034-2.304.432-4.465 3.225-6.698 3.715.065 7.242.321 10.886.78zM384.55 230.154c5.585-2.622 11.429-2.063 17.444.619-1.133-4.79-1.765-9.136.08-11.299-4.88-.59-9.675-.585-14.487-.699-4.058 2.877-3.711 7.765-3.037 11.379z" fill="#fff" fill-rule="evenodd" stroke-width=".54998"/><path d="M382.027 229.985c6.446-.086 13.52.24 19.997.922l-.053.382c-6.445.084-13.519-.243-19.996-.924l.052-.38z" fill="#002673" fill-rule="evenodd" stroke-width=".54998"/><path d="M385.007 238.95c2.337-2.083 5.995-2.405 11.826.592.011-4.488 2.282-7.359 4.516-8.527-5.833-.485-11.676-.797-17.928-.565-.49 2.833.718 5.667 1.586 8.5z" fill="#fff" fill-rule="evenodd" stroke-width=".54998"/><path d="M394.875 218.835c-6.31 5.446-7.631 12.767-9.698 18.068-2.188-.404-4.564-.155-6.496 1.088 4.402-9.173 9.403-15.987 16.194-19.156z" fill="#fff" fill-rule="evenodd" stroke-width=".54998"/><path d="M394.864 218.823c-6.234 4.952-9.973 11.242-12.04 16.543-2.134.027-4.187.546-6.12 1.788 4.402-9.173 11.369-15.162 18.16-18.33z" fill="#fff" fill-rule="evenodd" stroke-width=".54998"/><path d="M394.885 218.793c-7.602 4.495-11.4 9.713-13.467 15.014-2.135.026-3.96.659-5.892 1.902 4.402-9.173 12.568-13.747 19.359-16.916z" fill="#fff" fill-rule="evenodd" stroke-width=".54998"/><path d="M422.781 233.074c1.195 2.476 2.817 4.695 4.482 6.889M403.626 220.349c2.232 4.943 3.532 6.315 6.19 9.232M385.199 236.9c.957 1.213 2.166 2.552 3.633 4.02M382.857 235.37a33.128 33.128 0 0 0 3.967 4.832M381.375 233.84a37.457 37.457 0 0 0 3.776 6.505" fill="none" stroke-width=".54998"/><path d="M387.375 244.224c1.523.483 3.094.797 4.982 0 2.073.245 4.024.642 6.806 0 2.824.756 5.648.315 8.472 0 1.644.17 3.288.688 4.931 0 2.46.493 4.809.432 7.084 0 1.224.183 2.487.522 3.536 0-.095-.305-.142-.64-.05-.952.161-.47.564-.8.97-1.057.49-.236.848-.77.803-1.323-9.215.662-17.895 1.274-34.796-.54l-17.846-4.128-.203.677 10.545 2.841c2.144.298 4.721 2.923 4.766 4.482z" fill="#002673" fill-rule="evenodd" stroke-width=".54998"/><path d="M401.833 238.67l2.39 3.063" fill="none" stroke-width=".54998"/><path d="M379.128 238.432l-.55 2.105-.238-.096.382-1.961.406-.048z" fill="#002673" fill-rule="evenodd" stroke-width=".54998"/><path d="M382.665 239.652l-4.206.741-3.011-2.918M378.507 240.321l-4.995-3.061" fill="none" stroke-width=".54998"/></g><path d="M409.876 270.046c-5.937.225-16.58.42-22.243-.29 3.5 1.846 16.463 2.242 22.243.29zM409.027 272.807c-5.106.225-14.261.42-19.131-.29 3.01 1.846 14.16 2.242 19.131.29zM401.41 275.08c-5.106.226-14.26.422-19.13-.29 3.01 1.847 14.16 2.242 19.13.29zM419.3 268.314c-4.003.225-11.181.421-15-.29 2.36 1.847 11.103 2.242 15 .29zM406.345 277.266c-4.003.225-11.181.421-15-.29 2.361 1.847 11.103 2.242 15 .29zM433.58 270.009c-4.003.225-11.181.42-15-.291 2.36 1.847 11.103 2.243 15 .291zM374.692 264.89c-5.899.225-16.474.421-22.1-.29 3.478 1.847 16.358 2.242 22.1.29zM359.815 268.224c3.934.225 10.986.42 14.738-.291-2.32 1.847-10.909 2.242-14.738.29zM378.58 270.307c-3.933.225-10.986.42-14.737-.291 2.319 1.847 10.908 2.243 14.738.291zM378.997 251.557c-3.933.225-10.986.42-14.737-.291 2.319 1.847 10.908 2.242 14.737.29zM375.386 253.779c-3.044.225-8.501.42-11.404-.291 1.794 1.847 8.441 2.243 11.404.29zM362.732 256.14c2.006.225 5.602.42 7.515-.291-1.182 1.847-5.562 2.243-7.515.291zM363.982 248.223c2.006.225 5.602.421 7.515-.29-1.182 1.847-5.562 2.242-7.515.29zM359.553 275.793c-2.006.225-5.603.421-7.516-.29 1.183 1.847 5.563 2.242 7.516.29zM353.704 277.807c4.249.225 11.866.421 15.918-.29-2.505 1.846-11.782 2.242-15.918.29zM370.525 279.96c-2.006.225-5.602.42-7.515-.291 1.182 1.847 5.562 2.243 7.515.291zM369.815 281.071c1.691.225 4.723.421 6.335-.29-.997 1.846-4.689 2.242-6.335.29z" fill="#002673" fill-rule="evenodd"/><path d="M363.426 266.696c1.691.225 4.723.42 6.335-.291-.997 1.847-4.689 2.242-6.335.29zM403.787 275.546c5.937.225 16.581.42 22.243-.291-3.5 1.847-16.463 2.243-22.243.29zM395.208 279.289c5.106.225 14.261.42 19.131-.291-3.01 1.847-14.16 2.243-19.131.291zM428.065 267.617c5.106.225 14.261.42 19.131-.291-3.01 1.847-14.16 2.242-19.131.29zM386.8 281.278c4.004.225 11.182.421 15-.29-2.36 1.847-11.102 2.242-15 .29zM407.023 271.57c4.004.225 11.182.42 15-.29-2.36 1.846-11.102 2.242-15 .29zM399.43 282.482c4.004.225 11.182.42 15-.291-2.36 1.847-11.102 2.242-15 .29zM330.988 273.336c-5.899.226-16.474.421-22.1-.29 3.478 1.847 16.358 2.242 22.1.29zM316.11 276.67c3.935.225 10.987.42 14.739-.291-2.32 1.847-10.909 2.242-14.738.29zM328.365 274.65c1.69.226 4.722.422 6.335-.29-.997 1.847-4.69 2.243-6.335.29zM317.169 282.213c1.69.225 4.722.421 6.335-.29-.997 1.847-4.69 2.242-6.335.29zM325.664 284.57c-1.69.225-4.722.421-6.335-.29.997 1.847 4.69 2.242 6.335.29zM317.093 287.375c4.877.225 13.622.42 18.274-.291-2.876 1.847-13.526 2.243-18.274.29zM331.242 290.027c-3.934.225-10.987.42-14.738-.291 2.319 1.847 10.908 2.242 14.738.29zM322.177 292.82c1.691.225 4.723.42 6.335-.29-.997 1.846-4.689 2.242-6.335.29zM327.628 295.57c-1.69.225-4.722.42-6.335-.291.997 1.847 4.69 2.243 6.335.29zM432.349 257.314c-3.044.226-8.502.421-11.405-.29 1.795 1.847 8.442 2.242 11.405.29zM428.998 253.091c3.044.225 8.501.421 11.404-.29-1.794 1.847-8.441 2.242-11.404.29zM429.587 258.788c3.49.225 9.746.42 13.074-.291-2.057 1.847-9.677 2.242-13.074.29zM446.098 256.627c-3.043.225-8.501.42-11.404-.291 1.795 1.847 8.441 2.243 11.404.291zM440.292 254.86c3.044.224 8.501.42 11.405-.292-1.795 1.848-8.442 2.243-11.405.291zM442.453 260.948c3.044.225 8.501.421 11.404-.29-1.794 1.847-8.441 2.242-11.404.29zM429.587 263.404c2.126.225 5.939.42 7.967-.291-1.254 1.847-5.897 2.242-7.967.29zM452.384 264.386c-2.126.225-5.939.42-7.967-.291 1.254 1.847 5.897 2.242 7.967.29zM436.658 270.18c3.044.225 8.502.421 11.405-.29-1.795 1.846-8.442 2.242-11.405.29zM453.66 271.948c-2.126.225-5.938.42-7.966-.291 1.253 1.847 5.897 2.243 7.967.29zM454.152 268.412c-2.127.225-5.94.421-7.967-.29 1.253 1.847 5.897 2.242 7.967.29zM437.509 283.071c-4.004.225-11.182.42-15-.29 2.36 1.846 11.102 2.242 15 .29zM441.274 282.457c2.127.225 5.94.42 7.967-.291-1.253 1.847-5.897 2.242-7.967.29zM435.873 273.421c2.126.225 5.939.421 7.967-.29-1.254 1.846-5.897 2.242-7.967.29zM461.31 254.466c2.126.225 5.938.421 7.966-.29-1.253 1.847-5.897 2.242-7.967.29zM457.151 279.339c-4.003.225-11.181.42-15-.29 2.36 1.846 11.103 2.242 15 .29zM447.461 252.6c2.127.225 5.94.421 7.968-.29-1.254 1.847-5.897 2.242-7.968.29zM395.254 245.73c-3.933.225-10.986.42-14.738-.29 2.32 1.846 10.909 2.242 14.738.29z" fill="#002673" fill-rule="evenodd"/><path d="M392.576 246.669c2.006.225 5.603.42 7.516-.291-1.183 1.847-5.563 2.242-7.516.29zM417.064 246.563c2.006.226 5.602.421 7.516-.29-1.183 1.847-5.563 2.242-7.516.29zM407.504 247.847c2.006.225 5.603.421 7.516-.29-1.183 1.847-5.563 2.242-7.516.29zM414.406 246.025c-3.934.225-10.987.42-14.738-.291 2.319 1.847 10.908 2.242 14.738.29zM433.712 285.305c2.126.225 5.939.42 7.967-.291-1.254 1.847-5.897 2.242-7.967.29zM476.25 252.011c-3.045.225-8.502.42-11.405-.29 1.794 1.846 8.441 2.242 11.404.29zM483.615 258.395c-3.044.225-8.501.42-11.404-.291 1.794 1.847 8.441 2.242 11.404.29zM457.151 279.339c-4.003.225-11.181.42-15-.29 2.36 1.846 11.103 2.242 15 .29zM462.095 263.895c2.126.225 5.939.42 7.967-.291-1.254 1.847-5.897 2.242-7.967.29zM467.398 266.055c2.127.225 5.94.421 7.967-.29-1.253 1.847-5.897 2.242-7.967.29zM474.666 270.18c3.044.225 8.501.421 11.405-.29-1.795 1.846-8.442 2.242-11.405.29zM477.907 267.725c2.127.225 5.94.42 7.967-.291-1.254 1.847-5.897 2.243-7.967.29zM471.13 273.814c2.127.225 5.94.42 7.968-.291-1.254 1.847-5.897 2.243-7.968.291zM475.354 276.466c2.126.225 5.939.42 7.967-.291-1.254 1.847-5.897 2.242-7.967.29zM473.6 278.784c1.535.225 4.285.42 5.748-.291-.904 1.847-4.254 2.242-5.747.29zM469.755 285.894c2.127.225 5.94.42 7.968-.291-1.254 1.847-5.897 2.243-7.968.291zM473.782 283.046c2.127.225 5.94.42 7.967-.291-1.253 1.847-5.897 2.243-7.967.29z" fill="#002673" fill-rule="evenodd"/><path d="M457.567 242.726c-1.759-5.096-.247-8.79.417-12.848-4.84 3.333-5.985 6.458-5.973 10 .984 2.314 3.248 2.993 5.556 2.848z" fill="#fff" fill-rule="evenodd" stroke="#002673" stroke-width=".54998"/><path d="M463.262 244.584l1.11-1.65c-3.461.446-7.85.282-10.902 0l.972 1.71c1.514.204 3.057.336 4.83-.117.875.204 2.44.69 3.99.057z" fill="#002673" fill-rule="evenodd" stroke="#002673" stroke-width=".54998"/><path d="M380.175 156.683l-32.535 14.042-26.692 25.763-14.076 36.729h8.37c1.215-3.17 3.003-6.723 5.81-7.855-2.84-.314-2.103-6.743 1.065-7.717-1.738-3.858 5.436-10.478 8.095-9.624-2.65-4.036 1.593-10.114 6.41-9.16-.873-5.107 3.165-8.296 7.185-7.323-1.196-4.034 5.556-12.45 13.715-6.788 2.71-3.285 10.102-2.56 11.052.67 3.611-10.449 19.192-6.443 19.833-2.39 2.068-3.976 6.604-8.61 15.262-8.679 8.845-.07 18.75 4.733 29.854 13.458 4.632-3.951 9.578-6.664 17.514-5.173 5.103.958 7.663 4.835 10.157 9.212 7.648 3.348 8.78 8.958 10.072 14.506 7.17 3.606 10.543 17.486 10.484 26.863h12.925l-18.528-40.854-19.937-19.97-32.07-15.71h-43.965zM369.02 170.76c3.374.037 7.694 1.284 6.6 3.592-1.566 3.308-6.724 2.773-10.26 1.22-2.887 4.137-7.378 5.709-8.663 3.765-.996-1.509-.44-5.078 6.583-5.74 1.564-1.242 2.535-2.871 5.74-2.837z" fill="#002673"/><path d="M437.957 324.48a28.55 28.55 0 0 0-8.37 1.289c-5.919-.673-10.906.216-15.262 2.148-5.41-.7-10.83-.973-16.241.396-5.003-2.09-9.126-1.142-13.097.378-13.906-.868-17.383 1.57-21.707 3.73v6.84l.808.103 5.895-8.216-3.54 8.525.309.035 6.41-8.955-3.523 8.456 5.86-8.164-3.815 9.23 6.755-9.419-3.523 8.508 5.671-7.923-3.368 8.13 5.62-7.838-3.163 7.648 5.208-7.27-3.317 8.026 5.672-7.923-3.369 8.13 5.62-7.838-3.231 7.786 5.86-8.181-3.23 7.786 5.585-7.786-3.385 8.164 5.637-7.855-3.833 9.23 5.5-7.666-3.472 8.319 5.913-8.233-3.37 8.13 5.621-7.838-3.953 9.505 9.71 1.254 4.057-1.168-2.406-.808-.327.808-2.939-.98 7.923-11.051-3.764 9.092 6.514-9.092-5.001 12.03 9.126-2.629-.31-.103 7.907-11.051-4.211 10.192 19.421-5.603 8.027-4.503-4.108-4.297c-3.594-.924-7.2-1.505-10.794-1.478zM341.741 318.688c1.691.225 4.722.42 6.335-.291-.997 1.847-4.689 2.242-6.335.29zM327.879 303.471l57.207-.842v2.716c.615.337 1.196.504 2.054.528-1.109.479-2.182.543-3.325.31l1.76.857c-1.3.261-2.773.174-4.107-.11l1.858.747c-1.298.46-2.804.528-4.205.354l1.662.967c-1.634.193-3.198.1-4.694-.278l1.076-.854c-1.73.062-3.39.09-5.085-.43l1.456.977c-.79.326-1.823.38-2.786.314l2.112.901c-1.288.794-3.337.98-4.694.431-1.473.182-3.291-.25-4.107-1.055l2.054-.654c-.72-.007-1.923.321-2.538-.22.731-.118 1.048-.314 1.502-.707-1.692.713-2.796-.112-3.935-.48-1.43.555-2.757.575-4.222.041l.995 1.169c-1.123.197-2.385.027-3.681-.312l2.002 1.093c-1.162.577-2.53.718-4.107.362l1.564.723c-1.532.527-2.995.496-4.596.203l1.858.865c-1.942.168-3.885.21-5.672-.36l1.076-.855c-1.425.026-2.608.031-3.912-.33l2.152 1.6c-1.306.417-2.543.508-3.814.386l2.836 1.302c-.84.395-1.939.56-2.934.461l2.543.923c-2.326.868-4.842 1.427-7.237 1.516l-8.116-12.259z" fill="#002673" fill-rule="evenodd"/><path d="M399.991 149.344c-55.56 0-100.647 45.087-100.647 100.647 0 55.561 45.087 100.665 100.647 100.665 55.561 0 100.665-45.104 100.665-100.665 0-55.56-45.104-100.647-100.665-100.647zm0 11.705c49.094 0 88.943 39.849 88.943 88.942 0 49.094-39.85 88.943-88.943 88.943-49.093 0-88.925-39.85-88.925-88.943 0-49.093 39.832-88.942 88.925-88.942z" fill="#fff"/><path d="M399.991 151.785c-54.208 0-98.189 43.998-98.189 98.206 0 54.21 43.98 98.207 98.19 98.207 54.208 0 98.206-43.998 98.206-98.207 0-54.208-43.998-98.206-98.207-98.206zm0 6.875c50.421 0 91.35 40.91 91.35 91.331 0 50.421-40.929 91.35-91.35 91.35-50.42 0-91.331-40.929-91.331-91.35 0-50.42 40.91-91.331 91.331-91.331z" fill="#002673"/><g fill="#002673" fill-rule="evenodd" stroke="#fff"><path d="M372.063 295.13c-.16.005-.309.091-.43.226-.083.104-.08.203.04.307l.02.329.144.041.041.246h-.656l-.842-.143-.37.246.041.02c-.311-.014-.587.105-.82.35-.014-.144-.01-.26-.226-.37-.19.205-.316.307-.103.862.1.26.066.605.123.821.048.184.228.417.493.39.521-.053.356-.294.246-.554l.123-.554c.373.472.224.944.103 1.416l-.76.267c-.288.102-.343.361-.143.718.185.202.216.394.78.596.18-.007.343.137.554-.041l-.164-.596-.41.165-.268-.41h.596c.253.185.447.417 1.026.45.169.53.66.812.842 1.581a.756.756 0 0 0-.267.472c.231.036.488.032.82-.061l-.163-.493.267-.185-.534-.615c.006-.455-.172-.593-.288-.904.254.025.492.008.74-.02l.02.061-.329.37.021.185.554-.103.267-.37.082.185.41-.143-.102-.226c.133.01.26.03.41.061.188.255.362.506.78.76.22.326.093.386.062.534-.236.298-.59.604-.574.903.192.043.386.101.677.02l.062-.451.266-.041.35-.965c.32.252.42.596.472.944-.265.186-.197.41-.226.596.244.025.46.104.8-.083l-.205-.533.226-.165c-.323-.367-.345-.802-.472-1.17-.262-.298-.335-.592-.267-.903a1.374 1.374 0 0 0-.37-1.108c.285-.075.563-.065.8.246.258.336.138.683.063 1.088-.136.726.304 1.041.841 1.17-.653-.646-.113-1.426-.267-2.012-.317-1.212-1.104-.886-1.745-.76-.254-.182-.588-.248-1.067-.225l.287-.37c-.075-.696-.563-1.09-1.108-1.436a1.14 1.14 0 0 0-.657.02c-.084-.457-.35-.645-.616-.636zm-12.009 1.252c-.19.205-.295.307-.082.862.1.26.046.605.103.821.048.184.248.417.513.39.522-.053.356-.294.247-.554l.102-.554c.373.472.224.944.103 1.416l-.74.267c-.288.102-.363.361-.163.718.185.202.236.394.8.596.18-.007.323.137.534-.041l-.144-.596-.43.165-.268-.41h.616c.253.185.448.417 1.026.45.17.53.661.812.842 1.581a.756.756 0 0 0-.267.472c.232.036.488.032.821-.061l-.164-.493.267-.185-.554-.615c.006-.455-.152-.593-.267-.904.648.064 1.183-.185 2.053 0 .187.255.381.506.8.76.22.326.072.386.041.534-.236.298-.57.604-.554.903.193.043.366.101.657.02l.082-.451.246-.041.35-.965c.32.252.42.596.471.944-.264.186-.196.41-.225.596.244.025.46.104.8-.083l-.205-.533.246-.165c-.322-.367-.366-.802-.492-1.17-.263-.298-.314-.592-.247-.903.044-.454-.121-.815-.39-1.108.285-.075.584-.065.821.246.258.336.117.683.041 1.088-.135.726.305 1.041.842 1.17-.653-.646-.093-1.426-.246-2.012-.318-1.212-1.125-.886-1.766-.76-.302-.216-.685-.27-1.334-.204-.995.099-1.691-.13-2.36-.308-.932-.966-1.721-1.097-2.28-.514-.013-.143-.029-.258-.246-.37zm10.654.082l.596.164.184.226.904-.082.41.616-.082.143c-.436-.063-.817-.167-1.19-.266-.35-.362-.679-.606-.986-.74l.164-.06z" stroke-width="1.10029075"/><path d="M360.064 296.38c-.19.206-.314.305-.1.86.1.26.057.619.114.835.048.184.243.403.507.376.522-.053.352-.284.242-.544l.116-.558c.373.472.223.945.101 1.417l-.752.266c-.288.102-.351.358-.152.715.185.202.226.403.79.604.18-.006.337.13.548-.049l-.154-.591-.419.155-.268-.398.6-.012c.253.185.45.415 1.029.449.169.528.66.815.841 1.585a.787.787 0 0 0-.268.485c.231.036.494.031.827-.062l-.165-.508.268-.17-.548-.628c.006-.455-.164-.586-.28-.896.648.063 1.194-.198 2.063-.013.188.254.369.508.788.762.22.326.083.397.051.545-.236.298-.574.597-.559.895.193.044.372.107.662.026l.076-.46.256-.025.355-.968c.32.252.421.583.472.932-.264.185-.201.408-.23.593.245.026.463.115.803-.072l-.203-.534.228-.158c-.323-.367-.357-.818-.483-1.185-.263-.298-.323-.585-.256-.896a1.384 1.384 0 0 0-.378-1.11c.285-.075.573-.073.81.238.258.336.127.698.052 1.102-.136.726.304 1.033.841 1.162-.653-.646-.102-1.412-.255-1.998-.318-1.212-1.116-.905-1.756-.779-.303-.217-.69-.267-1.338-.202-.996.1-1.685-.124-2.354-.302-.931-.966-1.736-1.092-2.294-.509-.013-.143-.011-.263-.228-.374zM369.004 296.38c-.19.206-.313.305-.1.86.1.26.057.619.114.835.048.184.243.403.508.376.521-.053.35-.284.241-.544l.117-.558c.372.472.222.945.1 1.417l-.751.266c-.289.102-.352.358-.153.715.186.202.226.403.79.604.181-.006.338.13.548-.049l-.154-.591-.418.155-.269-.398.6-.012c.253.185.45.415 1.029.449.169.528.66.815.841 1.585a.787.787 0 0 0-.268.485c.232.036.494.031.828-.062l-.166-.508.269-.17-.549-.628c.006-.455-.164-.586-.28-.896.648.063 1.194-.198 2.064-.013.187.254.368.508.787.762.22.326.083.397.052.545-.237.298-.575.597-.56.895.193.044.372.107.663.026l.076-.46.255-.025.356-.968c.32.252.42.583.472.932-.265.185-.202.408-.23.593.244.026.462.115.802-.072l-.203-.534.228-.158c-.322-.367-.356-.818-.483-1.185-.262-.298-.323-.585-.255-.896a1.384 1.384 0 0 0-.378-1.11c.284-.075.572-.073.81.238.257.336.127.698.051 1.102-.136.726.304 1.033.841 1.162-.653-.646-.101-1.412-.255-1.998-.318-1.212-1.116-.905-1.756-.779-.303-.217-.69-.267-1.338-.202-.995.1-1.685-.124-2.354-.302-.931-.966-1.736-1.092-2.293-.509-.014-.143-.012-.263-.229-.374z" stroke-width=".13729001"/><path d="M370.017 296.387l.369-.26.84.15.65.007-.033-.249-.146-.042-.025-.327c-.121-.105-.127-.21-.045-.315.326-.358.922-.307 1.057.424.22-.073.441-.08.662-.024.545.346 1.019.744 1.094 1.44l-.356.46-.19.594h-.396l-.369.484.522 1.15-.42.134-.076-.182-.268.363-.547.11-.038-.183.343-.363-.229-.726c-.12-.287-.282-.573-.076-.86l.458-.775-.4-.617-.917.067-.185-.212-.58-.176-.356.121-.343-.193z" stroke-width=".13729001" stroke-linecap="round" stroke-linejoin="round"/></g><path d="M396.709 306.502l-.946 1.564h-9.212c-.373.536-.656.989-.584 2.252.108 1.905 2.09 3.987 3.61 3.901.842.755 4.095.81 6.41 0 2.84.65 5.835.215 8.8 0 3.144.78 6.593.913 10.518 0 1.325.306 2.633.703 4.21 0 4.161.012 7.142 1.2 12.513 0 1.728.611 3.446.425 5.173 0 1.804.37 3.77.413 5.964 0 1.763-1.532 2.386-3.057 2.063-4.589h-17.97v-1.478h-1.228l-.757-1.65h-8.318l-1.323 2.2-1.014-2.2h-8.319l-1.89 3.128h-.946l-1.856-1.564h-1.22l-.722-1.564h-2.956zM357.695 318.287c4.24.225 11.845.42 15.89-.291-2.5 1.847-11.762 2.242-15.89.29zM366.278 315.583c-2.188.226-6.11.421-8.198-.29 1.29 1.847 6.068 2.242 8.198.29zM348.775 314.131c2.188.225 6.11.421 8.197-.29-1.29 1.847-6.067 2.242-8.197.29zM359.512 321.738c2.188.225 6.11.42 8.198-.291-1.29 1.847-6.068 2.242-8.198.29zM360.91 323.95c-2.189.226-6.112.421-8.198-.29 1.29 1.847 6.067 2.242 8.197.29zM389.84 319.663c1.692.225 4.723.421 6.336-.29-.997 1.847-4.69 2.242-6.335.29zM402.26 320.77c-1.69.225-4.722.42-6.334-.291.997 1.847 4.689 2.242 6.335.29zM425.91 318.142c-1.691.225-4.723.42-6.336-.291.997 1.847 4.69 2.243 6.335.291zM430.611 319.248c-1.321.225-3.691.421-4.952-.29.78 1.847 3.666 2.242 4.952.29zM429.808 318.142c1.322.225 3.692.42 4.952-.291-.779 1.847-3.665 2.243-4.952.291zM449.143 316.897c-1.69.225-4.722.421-6.335-.29.997 1.847 4.69 2.242 6.335.29zM359.388 319.456c-1.639.225-4.577.42-6.14-.291.967 1.847 4.545 2.242 6.14.29z" fill="#002673" fill-rule="evenodd"/><path d="M360.999 312.61c-1.64.225-4.577.421-6.14-.29.966 1.846 4.544 2.242 6.14.29zM350.62 312.887c-1.64.225-4.578.42-6.14-.291.966 1.847 4.544 2.242 6.14.29zM353.125 316.552c-2.188.225-6.111.42-8.198-.291 1.29 1.847 6.068 2.242 8.198.29zM355.809 321.323c-2.188.225-6.11.42-8.198-.291 1.29 1.847 6.068 2.242 8.198.29zM362.486 326.156c1.69.225 4.722.42 6.334-.291-.996 1.847-4.688 2.242-6.334.29z" fill="#002673" fill-rule="evenodd"/><path d="M431.781 306.47l-1.478 1.77h-1.478v1.204h5.792v-.946h4.245v.946h4.417v-1.204h-2.612l-.928-1.77h-7.958z" fill="#002673"/><path d="M378.126 300.726c3.661 2.736 9.28 5.219 14.582 6.692" fill="none" stroke="#002673" stroke-width=".27499"/><path d="M377.944 300.357c3.769 2.831 9.551 5.4 15.009 6.925" fill="none" stroke="#fffeff" stroke-width=".27499"/></svg>