<svg xmlns="http://www.w3.org/2000/svg" width="720" height="432"><path d="M0 0h720v432H0z" fill="#006"/><path d="m103.5 205.5 6-23.5 6 23.5L139 199l-17.5 17 17.5 17-23.5-6.5-6 23.5-6-23.5L80 233l17.5-17L80 199zm0 144 6-23.5 6 23.5L139 343l-17.5 17 17.5 17-23.5-6.5-6 23.5-6-23.5L80 377l17.5-17L80 343zm250.5 0 6-23.5 6 23.5 23.5-6.5-17.5 17 17.5 17-23.5-6.5-6 23.5-6-23.5-23.5 6.5 17.5-17-17.5-17zm250.5 0 6-23.5 6 23.5L640 343l-17.5 17 17.5 17-23.5-6.5-6 23.5-6-23.5L581 377l17.5-17-17.5-17zm0-144 6-23.5 6 23.5L640 199l-17.5 17 17.5 17-23.5-6.5-6 23.5-6-23.5L581 233l17.5-17-17.5-17zm0-144 6-23.5 6 23.5L640 55l-17.5 17L640 89l-23.5-6.5-6 23.5-6-23.5L581 89l17.5-17L581 55zm-251 0 6-23.5 6 23.5L389 55l-17.5 17L389 89l-23.5-6.5-6 23.5-6-23.5L330 89l17.5-17L330 55zm-250 0 6-23.5 6 23.5L139 55l-17.5 17L139 89l-23.5-6.5-6 23.5-6-23.5L80 89l17.5-17L80 55zm125.25 216 6-23.5 6 23.5 23.5-6.5-17.5 17 17.5 17-23.5-6.5-6 23.5-6-23.5-23.5 6.5 17.5-17-17.5-17zm250.5 0 6-23.5 6 23.5 23.5-6.5-17.5 17 17.5 17-23.5-6.5-6 23.5-6-23.5-23.5 6.5 17.5-17-17.5-17zm0-144 6-23.5 6 23.5 23.5-6.5-17.5 17 17.5 17-23.5-6.5-6 23.5-6-23.5-23.5 6.5 17.5-17-17.5-17zm-250.5 0 6-23.5 6 23.5 23.5-6.5-17.5 17 17.5 17-23.5-6.5-6 23.5-6-23.5-23.5 6.5 17.5-17-17.5-17zm125.25 72 6-23.5 6 23.5 23.5-6.5-17.5 17 17.5 17-23.5-6.5-6 23.5-6-23.5-23.5 6.5 17.5-17-17.5-17z" fill="#fff"/></svg>