<svg xmlns="http://www.w3.org/2000/svg" xmlns:xlink="http://www.w3.org/1999/xlink" width="600" height="300" xmlns:cgf="https://coding.garden/flags"><metadata id="cgf-metadata">

<cgf:flag>
  <cgf:name></cgf:name>
  <cgf:route>ru/ad</cgf:route>
  <cgf:aspect-ratio>2</cgf:aspect-ratio>
</cgf:flag>

</metadata><defs><path d="M15-4.88-9.27 14.26 0-15.76l9.27 30.02L-15-4.88z" id="a" fill="#ff0"></path><path d="m-6-50 6-35 6 35H3V50l3 6v25L0 71l-6 10V56l3-6V-50z" id="b" fill="#ff0"></path></defs><path fill="#2a6b11" d="M0 0h600v300H0z"></path><use x="50" y="210" xlink:href="#a"></use><use x="110" y="120" xlink:href="#a"></use><use x="170" y="70" xlink:href="#a"></use><use x="235" y="40" xlink:href="#a"></use><use x="300" y="30" xlink:href="#a"></use><use x="365" y="40" xlink:href="#a"></use><use x="430" y="70" xlink:href="#a"></use><use x="490" y="120" xlink:href="#a"></use><use x="550" y="210" xlink:href="#a"></use><use x="225" y="95" xlink:href="#a"></use><use x="300" y="95" xlink:href="#a"></use><use x="375" y="95" xlink:href="#a"></use><use x="300" y="200" xlink:href="#b"></use><use xlink:href="#b" transform="rotate(45 -91.421 462.132)"></use><use xlink:href="#b" transform="rotate(-45 391.421 -262.132)"></use></svg>