<svg xmlns="http://www.w3.org/2000/svg" width="1200" height="600"><path fill="#c00" d="M0 0h1200v600H0z"/><path fill="#0080ff" d="M0-.397h201.481v600.418H0z"/><path d="M734.405 424.794c-5.66-.239-10.844 1.677-14.956 3.236-1.19.42-2.323.839-3.277 1.136-2.502.78-4.826 1.438-7.269 1.92-2.622.536-5.48.717-8.163.717-2.74-.122-5.362-.18-8.102-.717-2.444-.482-4.767-1.14-7.27-1.92-1.012-.297-2.086-.716-3.277-1.136-4.11-1.56-9.354-3.475-14.955-3.236l-.119-.18-1.073-1.497-1.49 1.02-.596.418-1.49 1.077 1.073 1.497.298.482-3.932-4.733-.119-1.32-.12-1.857-1.847.18h-.356l-.596-.658-.775.658a10.603 10.603 0 0 0-3.576-2.276l-.237-2.398-.18-1.857-1.787.18-.715.06-1.847.18.18 1.798v.239l-1.37 1.437a8.742 8.742 0 0 0-1.729.361l-2.265-8.51-.476-1.793-1.787.477-.715.18-1.728.478.476 1.799 2.026 7.49-1.49-1.198-4.767-13.242-.595-1.677-1.728.6-.655.238-1.728.658.596 1.677 2.204 6.111-.536-.477-5.959-12.882-.774-1.618-1.609.78-.655.298-1.669.779.775 1.618.238.6-4.527-7.91-.895-1.614-1.55.955-.654.36-.716.42a.99.99 0 0 0-.595-.18l-3.515-5.093-1.013-1.497-1.49 1.077-.596.42-1.489 1.018 1.013 1.5 1.31 1.858c-1.37 0-2.8.059-4.408.18l2.74-7.55-.059-1.378-2.324-5.031 4.647-12.823.596-1.677-1.668-.657-.715-.244-1.668-.595-.656 1.677-3.158 8.744-1.49-3.354 4.589-12.823.655-1.735-1.728-.6-.655-.238-1.728-.659-.596 1.736-3.158 8.686-1.43-3.052 2.443-13.842.298-1.798-1.787-.298-.715-.121-1.788-.298-.298 1.798-1.37 7.667-.775-1.735 1.192-14.022.179-1.799-1.848-.175-.714-.063-1.789-.18-.178 1.86-.536 6.41-.299-.6v-16.058h-4.349v2.339l-.774-8.929-.179-1.857-1.787.18-.774.059-1.192.121-1.132-6.53-.298-1.8-.835-.057a55.056 55.056 0 0 0 1.907-3.176 138.972 138.972 0 0 0 5.303-10.304l8.103-3.536 1.608-.777-.715-1.677-.356-.66-.716-1.677-1.667.778-3.696 1.678 1.907-4.613 6.018-4.374 1.49-1.018-1.013-1.5-.417-.599-1.072-1.496-1.312.84-1.131.836 1.191-2.992 4.767-4.016 1.43-1.139-1.192-1.437-.476-.541-1.132-1.377 1.012-2.515 2.86-2.876 1.312-1.257-1.312-1.321-.536-.538-1.25-1.258-1.729 1.679 5.839-6.95 1.133-1.38-1.37-1.198-.538-.478-.894-.78 3.755-5.39 1.012-1.5-1.49-1.077-.595-.42-1.43-1.02.18-.358h-.061l2.86-7.908.655-1.68-1.727-.657-.656-.239-1.727-.6-.597 1.678-3.336 9.165v-.058l-.834-7.37 2.442-6.712 4.41.78 1.787.302.298-1.798.179-.719.298-1.798-1.788-.298-3.694-.66.835-2.276.237-.659h12.096v-4.374h-9.593l1.55-1.08 13.941-1.198 1.788-.18-.119-1.796-.06-.72-.178-1.856-1.788.178-6.435.54.597-.36 13.882-2.515 1.787-.3-.298-1.796-.119-.721-.357-1.796-1.788.3-.596.119 8.76-2.335 1.727-.482-.417-1.736-.238-.718-.298-1.2 1.013-.36 6.912 3.236 1.608.778.774-1.677.299-.658.774-1.68-1.61-.716-2.919-1.38 1.074-.418-.657-1.679-.238-.716-.059-.242 11.082 2.995 1.728.422.476-1.738.18-.72.476-1.737-1.728-.48-7.507-2.036 1.787-.659 13.764 2.455 1.787.36.298-1.857.12-.719.357-1.737-1.788-.36-6.375-1.137.656-.18 14.121 1.199 1.787.18.178-1.859.06-.719.12-1.796-1.788-.18-.476-.062h10.724v-3.713l6.555-.6 1.846-.12-.178-1.856-.06-.72-.12-1.737.3-.18 7.864-2.876 1.727-.599-.595-1.737-.298-.659-.596-1.737-1.727.599-9.533 3.534.416-.419 5.065-5.391 9.175-3.356 9.177 3.356 5.123 5.391.358.42-9.534-3.535-1.668-.6-.656 1.738-.238.659-.596 1.737 1.668.6 7.925 2.875h-.058l.356.18-.119 1.736-.119.721-.118 1.857 1.786.119 6.614.6v3.713h10.725l-.476.061-1.849.181.18 1.796.06.72.18 1.858 1.786-.18 14.12-1.199.596.18-6.314 1.136-1.788.36.298 1.738.119.719.358 1.857 1.787-.36 13.764-2.455 1.728.659-7.449 2.036-1.728.48.417 1.736.24.721.415 1.738 1.788-.422 11.083-2.995-.118.242-.24.716-.596 1.679 1.073.419-2.92 1.38-1.609.716.775 1.679.298.658.774 1.677 1.609-.778 6.853-3.236 1.013.36-.3 1.2-.176.718-.478 1.736 1.788.482 8.757 2.335-.654-.12-1.787-.3-.3 1.797-.118.721-.299 1.796 1.789.3 13.882 2.515.536.36-6.374-.54-1.789-.178-.177 1.857-.06.719-.18 1.796 1.849.18 13.941 1.199 1.49 1.08h-9.534v4.373h12.096l.238.659.834 2.276-3.694.66-1.786.298.296 1.798.12.719.357 1.798 1.728-.302 4.469-.78 2.443 6.712-.834 7.37v.058l-3.337-9.165-.596-1.677-1.728.6-.655.238-1.728.658.597 1.679 2.86 7.908.118.358-1.43 1.02-.596.42-1.49 1.078 1.073 1.498 3.755 5.391-.895.78-.536.478-1.43 1.199 1.19 1.379 5.781 6.95-1.668-1.679-1.311 1.258-.477.538-1.311 1.32 1.311 1.258 2.802 2.876 1.071 2.515-1.132 1.377-.477.54-1.19 1.438 1.369 1.139 4.767 4.016 1.25 2.992-1.131-.836-1.311-.84-1.072 1.496-.419.6-1.013 1.499 1.49 1.018 6.018 4.374 1.908 4.613-3.694-1.678-1.67-.778-.773 1.677-.298.66-.775 1.677 1.667.777 8.104 3.536c1.61 3.475 3.456 7.07 5.304 10.304a54.336 54.336 0 0 0 1.907 3.176l-.834.058-.358 1.798-1.132 6.531-1.193-.121-.714-.059-1.787-.18-.18 1.857-.775 8.929v-2.34h-4.348v16.059l-.298.6-.596-6.41-.12-1.86-1.846.18-.715.063-1.788.175.119 1.799 1.25 14.022-.773 1.735-1.37-7.667-.298-1.798-1.788.298-.715.121-1.786.298.297 1.798 2.442 13.842-1.43 3.052-3.158-8.686-.655-1.736-1.668.659-.656.238-1.728.6.596 1.735 4.649 12.823-1.55 3.354-3.157-8.744-.597-1.677-1.728.595-.656.244-1.728.657.656 1.677 4.647 12.823-2.322 5.03-.06 1.38 2.68 7.55a55.258 55.258 0 0 0-4.348-.18l1.25-1.858 1.074-1.501-1.49-1.018-.596-.42-1.491-1.077-1.071 1.497-3.517 5.093c-.177 0-.356.058-.594.18l-.656-.42-.655-.36-1.55-.955-.954 1.613-4.527 7.91.298-.599.773-1.618-1.667-.78-.657-.297-1.667-.78-.774 1.618-5.96 12.882-.535.477 2.203-6.11.657-1.678-1.728-.658-.655-.239-1.728-.6-.596 1.678-4.825 13.242-1.433 1.198 2.027-7.49.477-1.799-1.788-.478-.716-.18-1.725-.477-.478 1.794-2.263 8.51a9.75 9.75 0 0 0-1.728-.362l-1.43-1.437.058-.24.119-1.798-1.786-.18-.716-.059-1.846-.18-.12 1.857-.239 2.398c-1.25.478-2.443 1.199-3.633 2.276l-.775-.658-.536.658h-.359l-1.847-.18-.179 1.857-.058 1.32-3.992 4.733.356-.482 1.074-1.497-1.49-1.077-.597-.419-1.549-1.019-1.012 1.497-.12.18zm-8.883-303.701h-.918l-.805.97-.477.54-1.132 1.378-.357-.18-5.803-2.708h-4.144l-.004.01-.357.721-.714 1.616 1.609.78 8.757 4.136h-.058l-7.39.177-10.962-5.152-.715-1.557-1.312.6-1.25-.6-.715 1.557-11.024 5.152-7.388-.177h-.06l8.76-4.136 1.668-.78-.774-1.616-.299-.72-.005-.011h-4.157l-5.848 2.708-.357.18-1.132-1.377-.417-.541-.805-.97h-.917l-.84.731-5.066 4.253-.833-.838-.537-.541-1.25-1.258-1.312 1.258-6.375 6.472.357-.48 1.192-1.379-1.43-1.197-.536-.478-1.37-1.14-1.192 1.38-9.057 10.844-.655.298 3.694-5.272 1.073-1.499-1.49-1.077-.596-.42-1.49-1.018-1.071 1.497-4.768 6.891-.774.42-.715-.78-.239.18.656-1.14.894-1.555-1.55-.9-.654-.418-1.55-.9-.894 1.616-3.992 6.952c-1.906.6-3.396 1.378-4.529 2.274l.3-.777 1.07-.838-.535-.659.775-2.097.655-1.738-1.728-.6-.715-.238-1.668-.66-.656 1.737-.893 2.517-6.138 5.213-1.429-1.08-.596-.419-1.49-1.019-1.072 1.5-3.754 5.45-1.072-.596-.596-.363-1.55-.958-.952 1.618-3.933 6.83-1.788 1.858c-.893.899-1.787 1.676-2.8 2.337-.953.658-2.026 1.255-3.098 1.856-5.065 2.876-7.03 5.871-7.388 9.525l-.894.779-.774.6c.714-1.68 1.37-3.414 2.025-5.152 2.8-7.67 5.54-15.816 8.4-25.045l1.788-8.505-5.005 7.009c-5.183 8.03-9.652 15.397-13.644 22.586a400.714 400.714 0 0 0-3.813 6.95l-1.132-.12-.715-.06-1.848-.18-.178 1.859-.596 7.25a189.519 189.519 0 0 0-2.384 4.97c-.714 1.558-1.429 3.116-2.084 4.673l-.298.241-.656 1.197-.059.84c-.656 1.558-1.37 3.176-2.026 4.792-.536.718-1.132 1.379-1.669 2.04-4.11 4.85-5.123 8.684-4.23 12.518v.3l-.297 1.618c-.656 1.915-1.37 3.894-2.026 5.873l-1.49-5.095 2.383-13.78.358-1.798-1.787-.358-.716-.12-1.787-.299-.358 1.796-2.383 13.842-4.41 5.93-.357.48 1.787-10.066.299-1.798-1.788-.298-.715-.121-1.787-.36-.298 1.859-1.49 8.266-.06.36-1.727.12-.715.12-1.848.12.18 1.856.536 6.59-1.133.182-.715.18-1.787.298.298 1.798 1.609 8.987-.18-.599-.475-1.798-1.728.48-.715.178-1.788.48.476 1.796 3.397 12.582c-.12.24-.178.538-.238.78l-1.788-5.033-.655-1.737-1.67.597-.713.302-1.669.6.595 1.676 4.768 13.24-.299 1.857-3.276-7.07-.776-1.618-1.667.78-.656.3-1.608.78.774 1.615 5.898 12.76-.595 3.298-5.303-7.548-1.013-1.5-1.49 1.018-.595.42-1.49 1.081 1.014 1.497 7.805 11.142-.954 5.453.298 1.377 2.026 2.876-.894.24-.715.179-1.728.48.476 1.738 1.848 6.947-6.495-15.635-1.549-3.655-1.787-3.593-.18 4.073.06 4.074 3.873 30.014-.297.18-1.548.901.893 1.556 1.668 2.934.476 3.655-.416.302-1.49 1.019 1.072 1.496 1.49 2.16.596 4.728-.417.36-1.37 1.14 1.131 1.438 3.337 3.953 6.553 15.938c.06.238.06.477.06.717.417 5.214 1.729 8.748 3.813 11.263l-6.91-4.011-1.55-.96-.894 1.618-.357.657-.954 1.56 1.61.897 11.737 6.829.954 3.538-7.985-4.616-1.55-.897-.953 1.555-.357.663-.893 1.555 1.549.901 11.796 6.83 1.371 5.331.239.717.656.419 8.4 4.854a23.691 23.691 0 0 1 2.264 4.134c.358.779.656 1.559.955 2.338-5.304-2.997-10.965-5.994-17.102-9.226l-5.838-3.056 3.932 5.932c11.202 10.362 20.854 18.629 30.506 25.94l-.119.3-.775 1.678 1.61.78 8.28 3.831-.594-.18-1.728-.658-.596 1.74-.299.658-.595 1.735 1.728.6 13.227 4.854 3.694 3.713.537.541 1.072 1.078 1.013 1.018 4.648 4.674h.059l1.072 1.078.834.897.06.062 1.907 1.916c-3.814-.239-7.805-.42-11.917-.6l-3.694-.058-4.17.176 3.694 1.92 3.515 1.496c12.75 4.075 23.654 7.19 34.14 9.587v.898l-17.04 8.09-3.515 1.677 3.515 1.676 5.005 2.335.775.36 1.609.722 4.766 2.276.893.36 1.074.537 3.574 1.677 1.012.482 1.61.717 3.337 1.559 1.071.537 1.074.481.237.118 3.099 1.438 1.132.54.238.06.775.419 2.92 1.32 1.19.6.776.36.476.176 3.456 1.677 1.37.6.894-1.196 16.862-23.906h1.55c-.239.239-.418.478-.477.721l-.298.658-.06.658.119.478.298.42.537.242.655.06.894-.122.655-.18c3.277-.839 6.137-1.677 8.759-2.457 6.256-1.857 11.023-3.295 18.054-3.354h.833c7.09.059 11.857 1.497 18.114 3.354 2.62.78 5.48 1.618 8.757 2.457l.657.18.834.121.715-.059.535-.242.298-.42.12-.478-.059-.658-.298-.658c-.119-.243-.298-.482-.478-.72h1.55l16.863 23.905.833 1.195 1.37-.6 3.516-1.676.417-.176.834-.36 1.192-.6 2.92-1.32.774-.42.237-.058 1.133-.54 3.1-1.44.237-.117 1.073-.481 1.072-.537 3.337-1.56 1.549-.716 1.013-.482 3.635-1.677 1.071-.537.834-.36 4.828-2.276 1.549-.721.773-.36 5.065-2.336 3.515-1.676-3.515-1.677-17.04-8.09v-.898c10.426-2.397 21.39-5.512 34.08-9.587l3.576-1.496 3.693-1.92-4.169-.176-3.694.059c-4.173.18-8.104.36-11.919.6l1.908-1.917v-.062l.894-.897 1.013-1.078h.058l4.649-4.674 1.073-1.018 1.072-1.078.535-.54 3.636-3.714 13.287-4.855 1.728-.6-.655-1.734-.24-.659-.594-1.74-1.728.659-.596.18 8.221-3.831 1.67-.78-.776-1.677-.119-.302c9.654-7.31 19.246-15.577 30.506-25.939l3.934-5.932-5.84 3.056c-6.137 3.232-11.797 6.23-17.1 9.226.299-.779.594-1.559.953-2.338.596-1.38 1.31-2.754 2.264-4.134l8.402-4.854.655-.42.179-.716 1.43-5.332 11.738-6.829 1.609-.9-.895-1.556-.417-.663-.894-1.555-1.548.897-7.984 4.616.952-3.538 11.738-6.829 1.549-.897-.892-1.56-.359-.657-.894-1.619-1.607.96-6.912 4.012c2.145-2.515 3.456-6.049 3.873-11.263v-.717l6.612-15.938 3.277-3.953 1.192-1.438-1.37-1.14-.416-.36.594-4.729 1.49-2.159 1.073-1.496-1.49-1.019-.417-.302.478-3.655 1.667-2.934.894-1.556-1.61-.9-.236-.18 3.873-30.015v-4.074l-.12-4.073-1.788 3.593-1.548 3.655-6.496 15.635 1.847-6.947.477-1.738-1.788-.48-.655-.178-.894-.241 2.026-2.876.299-1.377-.953-5.453 7.804-11.142 1.013-1.497-1.488-1.082-.596-.419-1.49-1.018-1.014 1.5-5.303 7.548-.596-3.297 5.899-12.76.776-1.616-1.67-.78-.654-.3-1.61-.78-.773 1.619-3.277 7.07-.358-1.858 4.825-13.24.596-1.677-1.728-.599-.654-.302-1.728-.597-.597 1.737-1.846 5.033c-.06-.242-.119-.54-.18-.78l3.337-12.582.478-1.796-1.728-.48-.717-.178-1.726-.48-.477 1.798-.18.6 1.61-8.988.298-1.798-1.789-.298-.715-.18-1.19-.183.596-6.59.177-1.854-1.846-.122-.716-.12-1.728-.118-.118-.361-1.43-8.266-.357-1.86-1.728.36-.717.122-1.845.298.357 1.798 1.728 10.065-.298-.48-4.409-5.93-2.443-13.841-.298-1.796-1.788.3-.715.12-1.787.357.299 1.799 2.442 13.779-1.49 5.095c-.715-1.979-1.37-3.958-2.026-5.873l-.298-1.618-.059-.3c.894-3.834-.06-7.669-4.17-12.519-.597-.66-1.133-1.32-1.728-2.04-.657-1.615-1.312-3.233-2.027-4.79l-.06-.841-.655-1.197-.237-.241c-.715-1.557-1.372-3.115-2.087-4.674-.773-1.677-1.609-3.295-2.383-4.97l-.656-7.25-.119-1.859-1.846.18-.716.061-1.132.12a392.701 392.701 0 0 0-3.812-6.95c-4.052-7.19-8.521-14.556-13.645-22.586l-5.005-7.009 1.728 8.505c2.86 9.229 5.601 17.376 8.46 25.045.656 1.738 1.31 3.473 1.967 5.152l-.715-.6-.894-.78c-.357-3.653-2.325-6.648-7.388-9.524-1.073-.6-2.145-1.198-3.158-1.856a19.982 19.982 0 0 1-2.801-2.337l-1.728-1.858-3.992-6.83-.894-1.618-1.549.958-.654.363-1.013.596-3.755-5.45-1.071-1.5-1.49 1.02-.596.418-1.43 1.08-6.196-5.213-.894-2.517-.596-1.737-1.728.66-.655.238-1.73.6.657 1.738.715 2.097-.477.659 1.073.838.238.777c-1.132-.896-2.562-1.674-4.47-2.274l-3.991-6.952-.895-1.616-1.607.9-.596.419-1.61.899.954 1.555.656 1.14-.298-.18-.655.78-.775-.42-4.827-6.891-1.011-1.497-1.49 1.019-.597.419-1.488 1.077 1.013 1.499 3.694 5.272-.596-.298-9.057-10.844-1.193-1.38-1.37 1.14-.596.478-1.369 1.197 1.132 1.379.417.48-6.375-6.472-1.313-1.258-1.25 1.258-.536.54-.834.84-5.065-4.254-.84-.731zm-24.782 6.183 11.202 5.21 4.588 5.812.299.48-9.176-4.313-1.61-.78-.775 1.68-.298.657-.774 1.618 1.668.778 7.627 3.596.299.181-.36 1.738-.118.716-.298 1.799 1.788.3 5.958 1.018-.299.478-1.012 1.44-.357-.12.058.057-7.922-2.874-1.728-.66-.597 1.738-.237.66-.657 1.735 1.728.6 9.117 3.355h-.12l-7.327.839-5.245-1.916-.417-1.08-.237-.718-.596-1.679-1.728.6-2.444.9-2.442-.9-1.668-.6-.657 1.679-.237.719-.358 1.079-5.303 1.916-7.328-.839h-.06l9.116-3.355 1.669-.6-.596-1.735-.238-.66-.656-1.738-1.67.66-7.923 2.874v-.056l-.298.119-1.012-1.44-.357-.478 6.017-1.019 1.787-.3-.358-1.798-.119-.716-.298-1.738.298-.18 7.627-3.597 1.668-.778-.774-1.618-.299-.658-.774-1.678-1.669.779-9.175 4.313.357-.48 4.589-5.812 11.141-5.21z" fill="#5b4431"/><path d="M668.386 426.592c6.436.118 12.394 3.115 16.446 4.314 11.619 3.592 20.198 3.592 31.878 0 4.05-1.199 9.949-4.196 16.384-4.314l-1.489 2.218c-8.758 7.068-10.903 12.878-12.631 22.586-.597 5.57-.597 13.837 9.71 21.085l.418.42-.596-.118c-30.625-7.847-24.906-7.847-55.471 0l-.656.117.477-.419c10.308-7.248 10.308-15.514 9.712-21.085-1.728-9.708-3.933-15.518-12.631-22.586l-1.55-2.218zm130.01 19.77c2.443-2.696 4.946-4.913 7.21-7.311-7.21-3.413-16.027-5.508-23.536-8.325l-6.493 1.199-1.43 1.198 7.686-.72 1.846-.122.12 1.798.06.721.18 1.857-1.85.18-13.882 1.2-2.562 2.154 9.176.838 1.788.122-.12 1.857-.059.716-.18 1.799-1.846-.122-10.01-.897c15.432 7.31 23.536 13.12 33.902 1.857zm-42.065-26.959c-1.013-.243-2.026-.42-2.92-.482l-.536 5.873 2.562-2.159.894-3.232zm-7.387.357c-.955.419-1.85 1.081-2.741 1.978v.18l-.836 9.227 2.802-2.335.775-9.05zm-7.627 7.31a21.458 21.458 0 0 1-2.802 2.335c.834.423 1.67.842 2.504 1.262l.298-3.597zm98.312-22.766c1.132-3.236 2.263-6.41 4.468-9.524-9.771-.839-19.722.897-29.495.059-9.353-.839-16.444-1.916-21.567-1.677l-3.873 5.571-.776 9.285 9.176.78 10.189-4.791 1.667-.721.776 1.617.298.659.775 1.676-1.67.78-5.957 2.817.417 1.078.238.72.358 1.019c1.013.117 2.024.239 2.98.356 17.338 1.501 26.87 4.855 31.996-9.704zm23.654-47.087c.238-3.359.536-6.775 1.905-10.308-9.65 1.677-18.887 5.99-28.54 7.73-.296 0-.594.058-.834.117l-7.15 5.034-.773 1.677 6.672-3.894 1.549-.897.955 1.618.356.6.894 1.554-1.549.96-12.095 7.01-1.43 3.055 8.64-3.173 1.728-.6.594 1.736.24.658.654 1.74-1.728.6-9.95 3.65c3.874-.238 7.686-.478 11.5-1.136 17.1-3.056 27.17-2.276 28.362-17.731zm5.182-53.982c-.892-3.236-1.786-6.53-1.786-10.366-8.461 4.973-15.61 12.163-24.132 17.075-5.779 3.354-10.725 5.932-14.537 8.267l-.955 5.751 3.158 8.748 8.699-3.236 7.21-8.627 1.192-1.437 1.37 1.198.537.478 1.43 1.14-1.192 1.438-4.23 5.094.834.838.536.478.18.18c.297-.18.654-.419 1.012-.6 15.073-8.743 24.787-11.502 20.674-26.419zm-6.255-57.337c-1.728-2.934-3.456-5.81-4.349-9.523-3.456 3.414-6.436 7.367-9.415 11.263l-.12.539-3.692 13.72.118.717 2.206-6.11.654-1.738 1.668.66.715.238 1.67.599-.597 1.737-4.767 13.24.298 1.86 3.277-7.072.775-1.677 1.61.78.714.3 1.607.777-.773 1.68-3.574 7.727c11.616-11.503 19.54-16.776 11.975-29.717zm-37.06 27.08c-.298.36-.538.66-.834.96l2.62 2.635-.356-1.855-1.43-1.74zm-3.219 4.733c-.179.362-.356.66-.477 1.018l5.84 7.609 1.55 1.08-.597-3.354-6.316-6.353zm15.73-77.525c-1.847-2.157-3.694-4.314-5.005-7.248-3.277 4.674-5.66 10.006-8.4 15.097l.298-.059.715-.121 1.786-.359.298 1.799 2.443 13.837 1.61 2.159-2.085-7.789-.478-1.74 1.787-.477.657-.18 1.786-.48.477 1.737.298 1.14.417-.121.715-.118 1.788-.301.299 1.798.118.597c.893-1.316 1.668-2.515 2.323-3.711l-.536-3.059-.298-1.796 1.788-.36.715-.118.298-.06c.417-3.117-.596-6.29-3.814-10.067zm-14.598 9.886c-.833 1.499-1.728 2.998-2.74 4.435-8.878 12.7-14.778 18.512-10.01 24.863 1.728 2.276 3.693 4.372 5.004 7.308.478-.658.955-1.318 1.43-1.979l-.475-.836-.894-1.559 1.549-.958.596-.359 1.071-.599-2.8-5.99-.775-1.68 1.67-.718.655-.359 1.609-.72-1.55-8.686-.297-1.796 1.786-.302.715-.12 1.789-.358.298 1.855 1.668 9.587.06-.059 2.085-7.13-2.444-13.84zm2.145 24.923.119-.12-1.607-2.275-.06-.061.239 1.498 1.31.958zm-20.02-70.636c-2.205-1.257-4.35-2.515-6.315-4.552-1.907 7.07-1.907 14.62-3.813 21.687-3.516 13.301-6.674 19.89-.775 23.726 2.086 1.379 4.35 2.517 6.316 4.552 1.908-7.067 5.66-13.659 7.508-20.67 3.336-12.519 6.97-19.11-2.92-24.743zm-39.264-21.445c-2.145-.6-4.23-1.138-6.374-2.398 0 6.412 1.667 12.88 1.667 19.291 0 12.102-1.192 18.512 4.707 20.432 2.086.656 4.29 1.075 6.435 2.395 0-6.472 1.728-12.881 1.728-19.352 0-11.443 1.61-17.853-8.163-20.368zm-162.72 303.33c-2.205-2.578-4.589-4.854-7.508-7.193 7.21-3.413 16.207-5.508 23.714-8.325l6.554 1.199 1.43 1.198-7.686-.72-1.847-.122-.18 1.798-.059.721-.118 1.857 1.787.18 13.942 1.2 2.563 2.154-9.177.838-1.847.122.18 1.857.059.716.178 1.799 1.788-.122 10.07-.897c-15.432 7.31-24.012 13.423-33.843 1.74zm42.005-26.841c1.014-.243 1.966-.42 2.92-.482l.477 5.873-2.563-2.159-.834-3.232zm7.389.357c.952.419 1.847 1.081 2.74 1.978v.18l.775 9.227-2.741-2.335-.774-9.05zm7.566 7.31c.895.839 1.788 1.618 2.862 2.335-.835.423-1.67.842-2.504 1.262l-.358-3.597zm-98.25-22.766c-1.134-3.236-2.266-6.41-4.53-9.524 9.772-.839 19.782.897 29.553.059 9.355-.839 16.386-1.916 21.57-1.677l3.872 5.571.774 9.285-9.235.78-10.188-4.791-1.609-.721-.774 1.617-.299.659-.774 1.676 1.608.78 6.018 2.817-.417 1.078-.238.72-.417 1.019c-.953.117-1.966.239-2.979.356-17.279 1.501-26.812 4.855-31.936-9.704zm-23.655-47.087c-.298-3.359-.537-6.775-1.908-10.308 9.654 1.677 18.83 5.99 28.481 7.73.298 0 .595.058.894.117l7.15 5.034.775 1.677-6.674-3.894-1.608-.897-.894 1.618-.357.6-.894 1.554 1.549.96 12.095 7.01 1.43 3.055-8.699-3.173-1.668-.6-.596 1.736-.298.658-.597 1.74 1.728.6 9.891 3.65c-3.812-.238-7.685-.478-11.439-1.136-17.1-3.056-27.17-2.276-28.361-17.731zm-5.184-53.982c.894-3.236 1.788-6.53 1.728-10.366 8.52 4.973 15.67 12.163 24.19 17.075 5.78 3.354 10.666 5.932 14.48 8.267l1.012 5.751-3.158 8.748-8.7-3.236-7.269-8.627-1.131-1.437-1.37 1.198-.597.478-1.37 1.14 1.133 1.438 4.29 5.094-.894.838-.478.478-.179.18c-.357-.18-.714-.419-1.071-.6-15.015-8.743-24.727-11.502-20.616-26.419zm6.256-57.337c1.728-2.934 3.396-5.81 4.35-9.523 3.455 3.414 6.434 7.367 9.414 11.263l.118.539 3.635 13.72-.119.717-2.205-6.11-.596-1.738-1.668.66-.714.238-1.728.599.654 1.737 4.768 13.24-.299 1.86-3.276-7.072-.776-1.677-1.667.78-.656.3-1.609.777.716 1.68 3.634 7.727c-11.678-11.503-19.543-16.776-11.976-29.717zm37.06 27.08c.238.36.537.66.775.96l-2.562 2.635.297-1.855 1.49-1.74zm3.217 4.733c.18.362.299.66.418 1.018l-5.84 7.609-1.489 1.08.596-3.354 6.315-6.353zm-15.73-77.525c1.848-2.157 3.694-4.314 5.006-7.248 3.277 4.674 5.66 10.006 8.4 15.097l-.356-.059-.715-.121-1.728-.359-.358 1.799-2.383 13.837-1.609 2.159 2.086-7.789.417-1.74-1.728-.477-.715-.18-1.728-.48-.476 1.737-.299 1.14-.417-.121-.715-.118-1.787-.301-.298 1.798-.12.597c-.893-1.316-1.668-2.515-2.323-3.711l.537-3.059.297-1.796-1.787-.36-.716-.118-.297-.06c-.418-3.117.595-6.29 3.813-10.067zm14.539 9.886c.894 1.499 1.787 2.998 2.8 4.435 8.819 12.7 14.777 18.512 9.951 24.863-1.67 2.276-3.635 4.372-4.946 7.308l-1.43-1.979.478-.836.893-1.559-1.55-.958-.655-.359-1.012-.599 2.8-5.99.774-1.68-1.668-.718-.655-.359-1.609-.72 1.55-8.686.297-1.796-1.788-.302-.715-.12-1.787-.358-.358 1.855-1.667 9.587v-.059l-2.086-7.13 2.383-13.84zm-2.145 24.923c0-.06-.06-.12-.119-.12l1.669-2.275.06-.061-.299 1.498-1.311.958zm20.08-70.636c2.145-1.257 4.349-2.515 6.315-4.552 1.907 7.07 1.907 14.62 3.753 21.687 3.576 13.301 6.733 19.89.835 23.726-2.085 1.379-4.35 2.517-6.316 4.552-1.907-7.067-5.66-13.659-7.507-20.67-3.337-12.519-7.03-19.11 2.92-24.743zm39.205-21.445c2.145-.6 4.29-1.138 6.435-2.398 0 6.412-1.728 12.88-1.728 19.291 0 12.102 1.192 18.512-4.707 20.432-2.085.656-4.23 1.075-6.375 2.395 0-6.472-1.728-12.881-1.728-19.352 0-11.443-1.61-17.853 8.103-20.368z" fill="#007cc3"/><path d="m690.552 157.59-5.363 5.692-8.58-1.019 5.96-6.292 7.744.902 13.527-4.915.238.66-13.526 4.972zm-2.085-26.541-4.886 6.111-8.58-.18 5.362-6.829 7.746.24 9.592-4.494.894.42-10.128 4.732zm-11.977-3.773v.059l11.5-5.45.358.656-12.216 5.754-3.158 8.685-6.613 3.117 3.515-9.706 6.614-3.115zm-8.698 4.075-3.516 9.703-6.555 3.115 3.516-9.704 3.992-1.916 11.083-9.348.476.6-8.996 7.55zm-8.7 4.072-3.516 9.706-6.553 3.115 3.515-9.705 4.648-2.217 10.307-10.304.476.478-8.877 8.927zm-8.64 4.075-3.515 9.704-4.111 1.92c.06-.242.06-.482.12-.72.297-2.517.655-5.034.774-7.488l.119-.3 5.064-2.398 9.295-11.203.596.478-8.341 10.007zm-6.613-.12 4.886-7.13.595.419-5.481 7.968v-1.257zm-7.687 1.496 3.04-5.33.655.359-2.741 4.674c-.298.12-.656.18-.954.297zm-11.558 8.09.953-2.577 1.132-.897-1.192 3.295-.893.18zm3.515-9.586.238-.78.715.3-.417 1.138-.536-.658zm55.293 2.817 11.5-5.395-.298-.656-12.215 5.689-8.64-3.174-6.613 3.117 9.652 3.533 6.614-3.114zm-8.7 4.072-9.652-3.533-6.614 3.114 9.713 3.536 3.992-1.918 14.24-2.517-.119-.719-11.56 2.037zm-8.699 4.075-9.651-3.534-6.555 3.115 9.652 3.533 4.648-2.217 14.48-1.255-.06-.722-12.514 1.08zm-8.699 4.073-9.592-3.535-5.124 2.398c-.06.42-.12.778-.179 1.197l8.342 2.995 5.064-2.334h14.538v-.721h-13.049zm-8.639 4.074-6.375-2.335a37.256 37.256 0 0 0-.18 3.653v1.738l5.244-2.457 14.42 1.258.059-.72-13.168-1.137zm-6.554 5.213 7.15 1.257.12-.12.715-.48-7.985-1.435v.778zm9.95 1.737 1.073.18.12-.72-1.788-.298.476.718.119.12zm26.931-12.643h-.058l11.975-4.372.239.719-12.632 4.613-3.873 8.386-6.851 2.52 3.574-7.672h.775v-1.677l6.851-2.517zm-9.413 4.194-3.932 8.45-6.853 2.514 2.681-5.75h.119l1.847.18.12-1.858.06-.719.178-1.438 3.515-1.318.12-.06h2.145zm2.562-3.354 2.085-1.439 1.43-.117-3.515 2.456v-.9zm-12.394 8.389-3.157 6.709-6.793 2.517.893-1.918 1.193-.899 1.37-.958 1.37.24.298-1.8.12-.718.357-1.796-1.787-.3h-.06l.595-1.197.716-.302 4.885.422zm1.966-4.253.954-.782h1.132l-1.073.902-.714-.061-.299-.059zm-9.77 4.91-.06.12-.894-.178 1.252-1.26.952.061-1.25 1.258zm-3.933 8.508-.417.841-1.669.656 2.086-1.497zm-4.647-2.096h-.06l1.43-3.116 2.442.419-3.812 2.697zm12.928-11.802.299-.302h1.072l-.417.42-.954-.118zm-13.345 8.686-.776 1.618v-1.799l.18-.239.833.18-.237.24zm3.871-4.614-.416.48-.417-.06.833-.42zm37.717 6.892 11.976-4.376-.239-.72-12.69 4.614-8.342-3.894-6.853 2.517 9.356 4.316 6.792-2.457zm-8.997 3.293-9.296-4.372-6.851 2.517 9.354 4.313 4.171-1.498 14.42-1.258-.06-.72-11.738 1.018zm-8.997 3.296-9.295-4.374-6.852 2.518 9.354 4.311 4.827-1.737h14.538v-.718H666.54zm-8.997 3.294-9.295-4.373-6.673 2.396v.18l3.158 1.499.238-.18 1.49-1.078 1.072 1.499.418.597.594.958 2.206.96 5.183-1.86 14.479 1.26.059-.718-12.929-1.14zm-8.998 3.296-.774-.36-.297.18-1.609 1.14 1.31-.482 14.241 2.518.119-.72-12.99-2.276zm-5.362-2.517-2.204-1.017c-.596 1.378-1.549 2.455-3.038 3.295l-.418.78.835.359 4.825-3.417zm-2.204 6.953 11.44 3.053.179-.719-10.845-2.875-.774.54zm-3.634 6.107 5.183 2.459.357-.661-4.587-2.157-.953.36zm-11.798-34.269-6.793 1.68 3.397-7.97 3.634-.897c-.298 2.096-.298 4.492-.238 7.187zm-7.865-8.025 9.772-8.21.476.54-10.308 8.688-.833 9.225-5.542 4.735.894-10.306 5.54-4.672zm-7.328 6.17-.894 10.304-3.277 2.756c-.417-2.696-.775-5.451-1.43-8.15l.06-.238 3.396-2.875 8.281-11.922.596.419-6.732 9.706zm-6.138 2.696 4.47-7.789.595.36-4.826 8.386c0-.058 0-.119-.06-.18l-.179-.777zm-14.479 24.204-.535.48.178-1.799c.119.42.239.9.357 1.319zm-1.548-6.651-.715 8.627-5.601 4.674.537-5.932c.893-2.037 1.728-4.135 2.62-6.23l3.04-2.577c0 .478.06.958.119 1.438zm-7.805 11.98-.298 2.818-.179.18h-.18v.178l-1.37 1.138c.358-.778.776-1.616 1.133-2.394.297-.66.596-1.259.894-1.92zm-6.495-12.28.238-2.697.715.06-.06.958c-.297.541-.596 1.14-.893 1.68zm51.778-13.778-7.687-.66-5.601 4.673 10.248.897 3.04-2.515v-2.395zm-4.768 6.41-10.248-.9-4.23 3.536c.06.42.12.897.179 1.318l8.698.778 1.431-1.258.357-.539.179.12 1.43-1.257 7.09-3.298c0-.238 0-.538-.06-.777l-4.826 2.276zm-7.387 6.23-6.673-.599c.177 1.199.356 2.398.595 3.536l.894-1.557 1.549.896.536.3 1.49-1.257 2.68-.958.715-1.019-1.786.658zm6.137-1.498 1.191-.42.954-1.138-2.86 1.078.237.18.478.3zm-8.759 7.128.655-.897h-.12l-.237.422-.298.475zm-20.735 5.932-1.55-.12-5.54 4.735 5.243.417 1.37-3.594.477-1.438zm-2.383 6.65-3.873-.359-.18 1.139-.713 4.013 2.919.242 1.847-5.035zm-8.52 1.138-2.86 2.398c-.12.239-.18.419-.298.658l2.562.18.596-3.236zm12.75-.12 1.012-.058a3.457 3.457 0 0 1-.237-.719h-.477l-.298.778zm-14.777 10.068.238.058.894-5.152-3.039-.24c-.178.301-.297.54-.476.838.655 1.138 1.192 2.278 1.787 3.416.18.358.417.719.596 1.08zm5.244-3.117.893-.78 1.729.18.297-.716-2.681-.241-.238 1.557zm44.865-17.493-.476.059.476-.958v.9zm14.777-11.144 8.342-5.87.416.596-8.818 6.232c.06-.358.06-.658.06-.958zm-15.432 2.337-.179.12-1.608 9.165-5.958 4.194 1.787-10.184 5.839-4.136c.059.241.12.541.12.841zm-7.865 4.613-1.788 10.184-5.48 3.895a7.462 7.462 0 0 1-.24-.96l1.55-8.925 3.634-2.576 9.295-11.144.298.241c.06.178.06.359.06.476l-7.33 8.809zm-7.865 5.512-.656 3.895c-.177-.6-.357-1.2-.535-1.86-.12-.358-.18-.719-.298-1.138l8.103-11.622.596.42-7.21 10.305zm-14.062 18.873-1.489 1.018.537-3.297c.357.719.655 1.499.952 2.279zm11.084-23.249 1.012-1.735.656.358-1.37 2.337c-.06-.059-.06-.12-.06-.239-.06-.239-.18-.48-.238-.72zm-13.168 18.153-1.311 7.49-5.959 4.195 1.787-10.184 4.707-3.356c.298.6.537 1.258.776 1.855zm-7.388 2.817-1.789 10.186-2.92 2.038v-.06a57.649 57.649 0 0 1-2.084-3.177l.834-4.793 4.946-3.475 4.945-13.66c.06.42.179.778.297 1.2v.06l-4.23 11.681zm-8.64 5.751 2.443-13.837.714.117-2.562 14.739c-.179-.359-.357-.717-.596-1.019zm57.259-19.89 10.427-7.37-.418-.597-11.022 7.788-7.329-1.318-.358.178v-.239l-1.429-.238-5.959 4.193 10.129 1.797 5.959-4.194zm-7.865 5.512-10.07-1.796-5.958 4.192 10.07 1.798 3.694-2.576 13.585-4.974-.24-.716-11.08 4.072zm-7.806 5.512-8.162-1.437c.298 1.976.298 3.714-.18 5.212l2.384.42 4.23-2.937 14.002-3.834-.178-.66-12.096 3.236zm-7.864 5.513-1.074-.18a7.742 7.742 0 0 1-1.786 2.217l1.49-1.019 14.299-2.576-.119-.72-12.81 2.278zm-14.955 1.618-1.133.778 1.55.299c-.12-.358-.239-.718-.417-1.077zm7.09 3.953-.18-.061c-.655.42-1.31.96-1.906 1.499l.894-.6 14.42-1.318-.06-.72-13.169 1.2zm-6.078-1.08-4.051-.719-5.958 4.195 10.129 1.798 1.132-.84-.656-2.397c-.18-.657-.358-1.376-.596-2.036zm-1.787 6.592-10.07-1.798-2.919 2.04c.774 1.135 1.49 2.154 2.205 3.053l4.884.9 4.886-3.476h.298l.239-.78 1.728.658.357.122h11.916v-.719H596.77zm-8.76 6.17.12-.058 5.601 1.016.238-.718-6.614-1.2c.238.361.418.66.655.96zm10.07 1.677 4.112.78.179-.719-4.052-.719-.238.658zm-46.176-8.387-4.708 6.292 2.503 8.327 5.125-6.95-2.206-7.55 2.444-14.259-.716-.117-2.442 14.257zm6.911 9.167 1.966-11.144-.714-.12-1.966 11.084.714.18zm-1.489 2.337-7.15 5.093-1.31 7.19 2.085-1.44v-3.115h4.29l2.085-7.728zm-6.375 12.819-1.728 1.2a54.219 54.219 0 0 0 1.728 2.158v-3.358zm5.422 4.793.357-.599-.119-.237-.238.836zm-13.585 29.358-.477 2.815.12.3 1.013-.719-.656-2.396zm.893 4.253-.654.48.296.839.12-.42-.358-.48.537-.36.06-.059zm-2.86 7.13-.238 1.317.536-.359-.297-.957zm-.655 3.654-.06.48.358.66.476-1.679-.774.539zm2.324-65.723 2.205-12.582.714.122-2.324 13.3 5.303 7.609-1.25 6.95c-.299-.42-.656-.78-1.014-1.14l-4.945-7.07 1.31-7.189zm-1.668 9.467 1.608 2.396-.536 2.038a22.48 22.48 0 0 1-1.43 4.132l-.953-1.376.775-4.373-1.252-14.5.715-.06 1.073 11.743zm-1.668 9.526.476.659c-.298.599-.596 1.138-.893 1.676l.058-.239-2.562-14.38.716-.178 2.205 12.462zm-3.04 7.19-2.681-10.126.656-.18 2.502 9.287c-.178.298-.298.66-.476 1.019zm5.542 20.549-.596 3.294-.417-1.138-.596-1.676-1.728.596-.656.242-.834.358-2.264-3.293 1.013-5.753-4.946-13.66.656-.24 3.158 8.69c.358 4.491 3.099 8.266 7.21 12.58zm-7.508.718 2.8 4.014 2.623 7.191-.776 4.431-2.74-3.894-.18-.358-.892-1.558-.18.12-1.906-2.757 1.013-5.929-6.138-13.303.656-.297 5.72 12.34zm.12 21.029-3.04-4.374.597-3.534.298.48 5.303 9.285c-.537-.359-1.133-.658-1.728-1.017l-1.43-.84zm-2.145-9.585.178-.96-8.222-11.8.595-.419 8.7 12.46-.597.359-.654.36zM595.1 142.914c-5.72 18.392-10.903 32.649-17.278 46.31-1.252 2.754-2.622 5.512-3.993 8.266-.714-1.197-1.37-2.396-2.145-3.594l7.507-17.374-8.341 16.057c-.119-.121-.417-.54-.476-.72l-1.252-1.797a123.067 123.067 0 0 1 1.848-4.075c6.315-13.658 13.822-26.838 24.13-43.073zm-21.688 80.94-4.647 6.35 2.502 8.267 5.125-6.95-2.265-7.49 2.502-14.259-.715-.119-2.502 14.2zm-6.315 9.046-.358-1.858-.179 1.078.537.78zm-.358-2.038.179-.6-.06-.12-.12.72zm.417-1.56 3.277-12.28-.714-.18-1.49 5.751-1.252 6.95.179-.24zm-15.55 60.213-.538 1.976.716-.419.179-1.018-.357-.54zm-.24 3.653-.894.54-1.787 6.771c.06.059.06.12.12.12h.06l3.574-2.098-1.132-1.677-.298-1.377.358-2.279zm3.396 11.864.24-.12.536-1.977-2.146-3.056-3.157 1.858a124.324 124.324 0 0 0 4.527 3.295zm1.49-68.238 2.383-8.988.18 1.799v.358l-1.788 6.65-.775.18zm2.383-8.988.656-2.396.715.179-.596 2.156-.775.061zm-3.932 18.092-.595-1.077 1.787-6.77.12.6 1.549 8.987-.12-.6-.476-1.739-1.788.482-.477.117zm-1.966-1.676v-8.986h.775v9.946c-.239-.302-.537-.66-.775-.96zm-.298 35.048-.655 2.396-3.992-6.948c1.072 1.077 2.264 2.215 3.397 3.355.417.42.834.836 1.25 1.197zm-6.375-4.255.119.18-.716.48-1.131-4.313 1.013 1.019.715 2.634zm4.17 12.582-.953 3.417-5.124-8.988.596-2.278 5.482 7.85zm-6.673-3.294 5.124 8.926-1.608 6.051v-.058h-.06l-.06-.061c-.476-.359-.893-.721-1.37-1.078l-3.872-6.71 1.548-5.874-5.004-13.717.714-.242 4.588 12.763zm-2.74 10.305-7.15-12.462.596-.42 7.983 13.9c-.476-.36-.952-.72-1.43-1.018zm39.324-60.093h-.06l2.205-12.58-.715-.12-2.323 13.3-7.568 5.332-1.25 7.19 8.4-5.933 1.31-7.189zm-1.669 9.468-8.46 5.931-1.251 7.25 8.46-5.934.775-4.43 6.077-13.182-.655-.3-4.946 10.665zm-1.667 9.526-8.402 5.929-1.31 7.19 8.46-5.93.894-5.091 7.268-12.643-.655-.358-6.255 10.903zm-1.67 9.465-8.4 5.932-1.312 7.189 8.462-5.932.953-5.512 8.342-11.922-.596-.419-7.448 10.664zm-1.667 9.526-8.4 5.871-1.253 7.25 8.402-5.932 1.013-5.75 9.295-11.204-.538-.42-8.519 10.185zm-1.668 9.465-8.402 5.932-1.251 7.19 8.401-5.932 1.013-5.93 10.308-10.364-.537-.48-9.532 9.584zm-10.07 15.397-1.251 7.192 8.4-5.934 1.073-6.17 11.738-8.269-.417-.597-19.543 13.778zm2.264-65.72.06.058 2.204-12.64.715.12-2.324 13.359 5.243 7.608-1.25 7.191-5.899-8.448 1.251-7.249zm-1.668 9.526 5.899 8.445-1.252 7.19-5.898-8.446.774-4.435-1.25-14.44.714-.118 1.013 11.804zm-1.61 9.465 5.84 8.447-1.251 7.25-5.9-8.51.895-5.09-2.503-14.38.716-.119 2.204 12.402zm-1.667 9.526 5.899 8.447-1.31 7.19-5.9-8.448 1.013-5.512-3.754-14.14.655-.18 3.397 12.643zm-1.668 9.466 5.898 8.448-1.31 7.19-5.84-8.45.953-5.75-4.945-13.662.715-.297 4.529 12.52zm-1.67 9.524 5.9 8.448-1.252 7.191-5.898-8.51 1.014-5.93-6.139-13.239.656-.302 5.72 12.342zm4.231 17.916-1.25 7.189-5.9-8.447 1.073-6.172-8.222-11.802.595-.42 13.704 19.652zm33.605-67.282 4.529-12.46-.656-.3-4.29 11.802c.18.3.298.658.417.958zm3.694 12.521 4.35-12.041-.715-.24-4.588 12.7-7.984 3.775c-.179.301-.299.6-.477.901l-1.072 2.394-1.312 3.716 9.295-4.375 2.503-6.83zm-3.277 9.048-9.294 4.374-1.848 4.911.299.24.535.48.417.299 7.388-3.476 1.55-4.191 8.282-11.924-.596-.42-6.733 9.707zm-3.277 9.046-6.256 2.937-.536.599-3.933 4.733-1.072 2.934 1.192-.539 1.25-1.318.478.48 6.136-2.876.417-.48 1.61-4.493 9.294-11.145-.536-.477-8.044 9.645zm-4.886 9.826-2.74 1.258.953 1.018 1.787-2.276zm-4.766 6.112v.058l.358-.477-.358.419zm11.5-4.016 2.203-1.798-.476-.6-1.132.96-.596 1.438zm-4.53 11.084 4.35-3.056-.416-.6-3.396 2.398-.538 1.258zm-4.587 11.263 6.793-3.176-.298-.658-6.078 2.815-.417 1.02zm.358-48.228c.12.059.178.18.238.3h.06c.06.178.297.48.655.958l.596.838-1.013 2.756-.12-.06-.595-.42-1.252-.958-.238-.478 1.669-2.936zm-2.682 4.672.06.06-.06.06-.357.48.357-.6zm.954 6.35-1.192 3.298-.298.358-.297.42-.418-.9 2.205-3.175zm-3.278 4.735.299.72-2.622 3.175.12-.66 2.203-3.235zm-1.31 21.868 17.934-23.427c-8.163 19.952-11.32 36.187-24.846 53.801l-3.754-2.159 7.568-14.378-9.414 13.36c-1.013-.6-2.205-1.258-3.515-1.977l.416-2.276 7.866-4.611 1.905-8.868 11.143-7.85 1.49-1.016-1.073-1.499-.417-.599-1.013-1.496-1.49 1.018-2.8 1.977zm-52.492 19.171-2.383-18.572 8.28 20.008c-.535 2.337-.714 4.374-.595 6.233l-1.787-6.711-.477-1.738-1.728.48-.715.178-.595.122zm49.572 85.853 1.073 4.011c-1.132 0-2.265-.059-3.396-.117-.477 0-.954-.059-1.43-.059l-3.277-1.92-1.61-6.049-12.452-7.189.417-.662 20.675 11.985zm1.728-.479 1.191 4.553c.716.058 1.431.058 2.086.058l3.754-6.472-.417-1.496-3.873-1.438-2.741 4.795zm5.66-8.387.24-.361-.358-.838-.596.955.714.244zm-27.527-48.111.536.54 6.197 6.289-.297-.239-1.37-1.136-.775.955-6.138-3.592-1.132-4.314-.18-.301c.538.301 1.014.6 1.55.901.538.298 1.073.6 1.609.897zm-1.251 5.093 4.47 2.574-.955 1.14 1.371 1.14 5.064 4.314.417 1.496-1.131-.78-.716 1.02-6.613-3.836-1.37-5.03-8.342-11.985.656-.356 7.149 10.303zm2.502 9.285 5.124 2.998-.893 1.199 1.49 1.018.655.478a83.988 83.988 0 0 1-5.243-1.438l-.716-2.578-9.354-11.2.597-.483 8.34 10.006zm-5.72 2.16-1.668-1.74.537-.478 2.68 2.695c-.118-.059-.238-.059-.357-.117a24.27 24.27 0 0 0-1.191-.36zm22.522 32.771 1.431 5.211-8.937-5.152-1.37-5.214c.833.12 1.727.301 2.74.482.357.058.715.117 1.072.18l3.754 2.155-.536 1.676 1.668.6.178.062zm-6.91-33.01.178.536.12-.298-.299-.239zm1.608 1.316-.298.477 2.324 1.619-.298-.6-1.728-1.496zm7.388 32.47 1.073 3.957 1.728-2.939-2.801-1.018zm5.005-2.813.775-1.379c-1.787-.059-3.515-.18-5.243-.302l4.468 1.681zm-23.774 1.794.954 3.597 1.311-2.276-2.265-1.32zm4.47-2.456 1.251-2.276-1.192-.717c-.119 0-.238 0-.358-.063-1.25-.176-2.443-.356-3.574-.537l-.597 1.02 4.47 2.573zm-6.197-4.012.12.478.177.122.299-.483c-.179-.058-.417-.058-.596-.117zm-3.515-30.316-.418.78 3.754 3.773.18-.36-3.516-4.193zm-4.588-5.57-1.013 1.676 1.49 5.693.535-.541.537-.536 1.31-1.262.12.121.537-.96-3.516-4.192zm-1.907-10.305-1.609 2.696 1.907 7.068.476-.84-.595-.716 1.37-1.14.536-.477.06-.064 1.072-1.857-3.217-4.67zm-3.396-4.196 1.191 4.675 1.133-1.979-.12-.18.417-.298.298-.478c-1.012-.6-2.026-1.199-2.919-1.74zm12.929 55.539 1.43 5.39-8.937-5.151-1.61-6.049-12.393-7.193.358-.658 19.187 11.146-.597 1.077 1.549.897 1.013.54zm-1.49-5.512.358 1.497v.062l-4.647-2.696c1.31.42 2.74.776 4.29 1.137zm-16.444-29.478-7.746-9.285.536-.477 8.342 10.006h-.12l-1.012-.244zm-1.37-9.046 8.937 5.152 1.608 6.053c-.952-.239-1.906-.541-2.86-.78l-5.779-3.353-1.37-5.035-8.282-11.921.596-.42 7.15 10.304zm-2.443-9.285 8.877 5.152 1.907 7.067-8.937-5.151-1.132-4.373-7.21-12.58.596-.36 5.9 10.245zm-2.504-9.348v.063l-3.277-12.402.716-.182 3.456 13.062 5.72 3.353c.774.6 1.55 1.2 2.383 1.74l1.787 6.59-8.878-5.152-1.907-7.072zm3.04-18.511-1.729-6.41.716-.239 1.31 5.033c-.06.297-.06.597-.118.836-.06.302-.12.539-.18.78zm25.025 88.608 1.49 5.571c.416-.059.893-.059 1.31-.117l3.873-6.77-4.47-2.578-2.203 3.894zm4.945-8.627-.537.96.954.537-.417-1.497zm-6.674 9.105 1.37 5.215-2.323.18-6.077-3.534-1.608-6.053-12.394-7.19.358-.657 20.674 12.039zm39.921-.6 2.205 4.738c-1.013.117-2.027.239-3.099.297-.06.059-.178.059-.238.059l-5.422-1.975-2.681-5.692-13.406-4.913.237-.721 22.404 8.208zm1.668-.775 2.444 5.332c.417-.063.774-.063 1.132-.121l2.978-8.267-2.622-5.693 4.886-13.54-.655-.238-8.163 22.527zm-35.69-55.358 9.653 3.534 3.039 6.652-9.653-3.538-1.847-4.074-9.295-11.142.536-.479 7.567 9.047zm4.052 8.744 9.653 3.538 3.038 6.648-9.652-3.533-2.145-4.733-10.308-10.304.536-.54 8.878 8.924zm4.052 8.749 9.652 3.534 3.038 6.59-9.652-3.534-2.323-5.031-11.143-9.406.478-.541 9.95 8.388zm4.051 8.69 9.652 3.533 3.04 6.649-9.653-3.534-2.443-5.273-11.857-8.389.417-.599 10.844 7.613zm4.052 8.743 9.653 3.535 3.037 6.652-9.651-3.534-2.503-5.512-12.632-7.31.357-.6 11.74 6.77zm13.703 12.283 3.04 6.59-9.653-3.534-2.622-5.634-13.465-4.972.238-.658 22.462 8.208zm-15.073-54.16-3.516 9.705 3.038 6.652 3.516-9.708-1.906-4.075-2.503-14.315-.715.118 2.086 11.623zm3.992 8.749-3.516 9.704 3.098 6.649 3.515-9.705-2.145-4.732-1.31-14.559-.715.06 1.073 12.583zm4.05 8.744-3.515 9.709 3.099 6.59 3.515-9.709-2.324-5.03v-14.618h-.774v13.058zm4.053 8.749-3.516 9.704 3.099 6.59 3.515-9.705-2.442-5.273 1.25-14.496-.715-.062-1.191 13.242zm4.051 8.744-3.515 9.65 3.098 6.648 3.516-9.704-2.562-5.512 2.562-14.379-.716-.121-2.383 13.418zm.537 18.394 3.098 6.653 3.516-9.767-2.623-5.63 4.887-13.54-.715-.302-8.163 22.586zm-51.54 17.376c6.792 3.533 12.99 6.891 18.71 10.186 1.489 4.192 3.276 7.068 5.481 8.924l-.238.361-.358.6-.178.356c-7.328-5.928-14.896-12.58-23.417-20.427zm32.592 22.347c1.728.18 3.635.117 5.72 0 1.013.717 2.026 1.379 3.039 2.096h-5.124l-3.635-2.096zm98.252 19.588 2.622 9.948 5.6 3.236c-.893-3.714-1.966-7.19-3.455-10.425l-3.277-1.92-8.342-11.98-.595.418 7.447 10.723zm-8.342-4.85 2.682 10.006 6.316 3.652-2.682-10.006-4.468-2.574-1.728-2.096-.358.18c-.12.059-.238.059-.358.117l.596.722zm-.118 5.752-1.61-5.873c-.535.239-1.072.541-1.667.838l.239 2.516 3.038 2.519zm2.74 12.639 7.448-1.975 6.315 3.651-9.95 2.637-3.694-2.574-.118-1.74zm-.595-6.649 6.077 3.475-5.66 1.555-.417-5.03zm-57.08-13.419h6.434c-1.669.537-3.337 1.078-5.064 1.615l-11.857-6.887.357-.659 10.13 5.931zm-2.98 2.994-1.906-.839.297-.658 2.621 1.2c-.357.117-.714.18-1.012.297zm23.356 17.434h3.218l.12 1.199 1.787-.122 5.66-.536 4.588 4.61h-6.673a105.4 105.4 0 0 0-4.23-.599l-3.457-3.533-2.561-.659c.357-.18.655-.36 1.012-.478l.536.118zm22.343 18.754h-3.693l-.597-.599c1.43.239 2.801.42 4.29.6zm-14-23.248.774.78.774-.059v-1.438c-.357.18-.656.298-1.013.478-.178.06-.358.18-.536.24zm3.216-1.555v2.096l2.383-.18-2.323-1.98c0 .064-.06.064-.06.064zm1.609 6.41 3.515 3.533v-3.835l-3.515.301zm5.124-.479v5.63l1.668 1.677c1.192.24 2.324.482 3.456.72v-4.313l-.535-.18-4.231-3.534h-.358zm11.916 9.583v-2.334l-3.514-3.535-1.61.18v4.49c1.67.36 3.396.78 5.124 1.199zm-1.49-13.058 5.542 4.67-10.248.901-4.766-4.015-14.241 1.257-.06-.716 23.774-2.097zm1.133-1.378 5.6 4.673-.892-10.308-4.768-4.011-1.25-14.378-.715.058 2.025 23.966zm-55.59-35.049 10.248-.897 5.54 4.732-10.248.898-3.395-2.876-13.108-6.17.297-.659 10.666 4.972zm7.328 6.229 10.248-.897 5.542 4.674-10.189.897-3.992-3.295-13.644-5.03.238-.663 11.797 4.314zm7.389 6.17 10.188-.897 5.601 4.674-10.248.897-4.29-3.592-14.002-3.777.179-.658 12.572 3.354zm7.329 6.175 10.188-.901 5.601 4.733-10.249.9-4.468-3.776-14.24-2.515.118-.721 13.05 2.28zm7.327 6.23 10.19-.898 5.6 4.67-10.248.901-4.588-3.894-14.478-1.258.06-.72 13.464 1.198zm17.578 5.273 5.541 4.67-10.248.96-4.767-4.075-14.24 1.257-.06-.716 23.774-2.096zm-36.465-42.657.894 10.303 5.6 4.675-.893-10.308-3.456-2.876-8.281-11.859-.597.42 6.733 9.645zm7.388 6.17.895 10.304 5.54 4.733-.893-10.304-3.933-3.354-7.269-12.642-.656.36 6.316 10.904zm7.33 6.23.892 10.303 5.542 4.674-.894-10.303-4.23-3.597-6.137-13.238-.656.297 5.482 11.863zm7.327 6.17.894 10.304 5.542 4.673-.894-10.244-4.41-3.773-5.004-13.662-.656.24 4.528 12.462zm7.33 6.233.893 10.245 5.601 4.733-.894-10.308-4.647-3.894-3.754-14.135-.715.239 3.515 13.12zm8.221 16.475 5.601 4.673-.893-10.303-4.826-4.016-1.192-14.378-.774.117 2.084 23.907zm21.63 30.496c-28.481-2.1-48.68-6.351-79.484-16.177 33.307 1.438 54.042 4.494 82.88 12.94l-1.31 1.376-28.84-5.748-17.159-2.88h-.12l.12.063 18.59 3.655 26.574 5.752c-.417.478-.715.6-1.252 1.019zm-22.047 24.56-3.932-1.857 5.9-8.388-6.734 8.028-4.052-1.916 7.985-9.465-8.997 8.987-4.29-1.979 10.427-10.425-11.678 9.826-4.41-2.096 13.228-11.142-14.836 10.425-4.588-2.159 16.624-11.683-18.591 10.786-4.825-2.276 20.257-11.683c.775.117 1.609.298 2.383.42 1.074.176 2.145.356 3.16.536l2.919 2.938c9.294 0 14.12-.599 20.436-.062l-16.386 23.185zm-12.57-27.08-22.523 10.665-5.005-2.335 18.59-8.807h6.256c.894.18 1.787.36 2.681.477zm20.972-11.98 5.422-1.677 4.469 2.574 2.621 1.438 2.8-1.438 5.125 3.115-3.218-3.413 1.192-.78.835-.54.833-.596-.953 1.736 2.205 2.457-.536 2.096-4.112-1.677-1.549 1.136 4.29 3.777-15.254-8.447 14.599 9.407-.835 1.194-10.844-4.25-4.766-3.358-2.324-2.754zm-82.463-34.21h10.308l5.125 5.152H582.41l-3.158-3.174-12.513-7.252.358-.658 10.128 5.932zm6.793 6.77h10.307l5.125 5.152h-10.307l-3.635-3.656-13.168-6.17.298-.659 11.38 5.333zm6.792 6.828h10.25l.178.18c-1.788.659-3.576 1.38-5.303 2.218l-1.908.838-2.025-2.037-13.645-4.971.239-.718 12.214 4.49zm-1.966-18.39v3.476l5.124 5.152v-9.168c-.06 0-.06 0-.06.058h-.537c-.296.063-.594.063-.892.122h-.358c-.119 0-.239.058-.357.058h-.418v.064h-.357a91.66 91.66 0 0 0-1.787.175c-.12 0-.239.064-.358.064zm6.733-.063v10.367l5.183 5.152v-3.417l-3.216-1.856-1.55-.898.893-1.559.358-.658.953-1.555 1.55.897 1.012.54v-1.857l-3.694-3.655-1.013-2.159c-.237 0-.476.063-.715.063l.24.595zm6.793 6.833v1.136l2.74 1.618-1.549-1.555-3.098-8.568-.894-.302 2.8 7.671zm0 6.23v2.456l.118-.18.299-.658.476-1.078-.893-.54zm.238 4.376.536.478c.119 0 .238-.06.357-.122l-.178-.058-.715-.298zm6.852-5.337-1.43-5.449-.835-.239 1.43 5.21.835.478zm18.352 25.764v-1.258l-2.623-.72c-.834.419-1.667.72-2.502 1.018v.063l.417.058 4.708.839zm83.176-296.56 5.363 5.692 8.521-1.019-5.898-6.292-7.746.902-6.733-2.458-1.072.419 7.565 2.756zm-12.93-5.51-.357-.122-.118.3.476-.178zm15.016-21.031 4.826 6.111 8.64-.18-5.363-6.829-7.804.24-13.05-6.112-.297.66 13.048 6.11zm11.976-3.773v.059l-11.559-5.45-.298.656 12.215 5.754 3.158 8.685 6.554 3.117-3.515-9.706-6.555-3.115zm8.7 4.075 3.514 9.703 6.554 3.115-3.514-9.704-4.052-1.916-11.084-9.348-.417.6 9 7.55zm8.638 4.072 3.517 9.706 6.612 3.115-3.515-9.705-4.648-2.217-10.308-10.304-.535.478 8.877 8.927zm8.7 4.075 3.515 9.704 4.052 1.92c0-.242-.06-.482-.06-.72-.356-2.517-.655-5.034-.834-7.488l-.06-.3-5.063-2.398-9.356-11.203-.535.478 8.342 10.007zm6.613-.12-4.945-7.13-.596.419 5.54 7.968v-1.257zm7.688 1.496-3.04-5.33-.654.359 2.68 4.674c.356.12.655.18 1.014.297zm11.5 8.09-.895-2.577-1.132-.897 1.19 3.295.836.18zm-3.457-9.586-.24-.78-.715.3.417 1.138.538-.658zm-55.295 2.817L706.58 136.8l.359-.656 12.154 5.689 8.698-3.174 6.556 3.117-9.653 3.533-6.556-3.114zm8.701 4.072 9.653-3.533 6.554 3.114-9.654 3.536-4.052-1.918-14.238-2.517.118-.719 11.62 2.037zm8.64 4.075 9.652-3.534 6.613 3.115-9.653 3.533-4.646-2.217-14.479-1.255.058-.722 12.455 1.08zm8.699 4.073 9.65-3.535 5.127 2.398c.058.42.118.778.118 1.197l-8.281 2.995-5.066-2.334h-14.539v-.721h12.99zm8.698 4.074 6.376-2.335c.12 1.197.18 2.454.18 3.653v1.738l-5.244-2.457-14.419 1.258-.06-.72 13.167-1.137zm6.496 5.213-7.15 1.257-.121-.12-.715-.48 7.986-1.435v.778zm-9.891 1.737-1.132.18-.119-.72 1.847-.298-.478.718-.118.12zm-26.932-12.643-11.977-4.372-.237.719 12.69 4.613 3.872 8.386 6.854 2.52-3.577-7.672h-.773v-1.677l-6.852-2.517zm9.414 4.194 3.933 8.45 6.852 2.514-2.68-5.75h-.18l-1.789.18-.179-1.858-.058-.719-.12-1.438-3.574-1.318-.12-.06h-2.085zm-2.562-3.354-2.087-1.439-1.488-.117 3.575 2.456v-.9zm12.392 8.389 3.1 6.709 6.851 2.517-.894-1.918-1.25-.899-1.312-.958-1.369.24-.359-1.8-.118-.718-.299-1.796 1.789-.3-.536-1.197-.775-.302-4.828.422zm-1.966-4.253-1.013-.782h-1.132l1.074.902.774-.061.297-.059zm9.772 4.91v.12l.953-.178-1.25-1.26-.953.061 1.25 1.258zm3.934 8.508.356.841 1.728.656-2.084-1.497zm4.646-2.096-1.43-3.116-2.382.419 3.812 2.697zm-12.93-11.802-.356-.302h-1.013l.417.42.952-.118zm13.347 8.686.715 1.618c0-.6.06-1.2.06-1.799l-.18-.239-.833.18.238.24zm-3.873-4.614.417.48.419-.06-.836-.42zm-37.775 6.892h.058l-11.975-4.376.238-.72 12.632 4.614 8.4-3.894 6.794 2.517-9.295 4.316-6.852-2.457zm8.997 3.293 9.355-4.372 6.791 2.517-9.295 4.313-4.17-1.498-14.419-1.258.059-.72 11.679 1.018zm8.996 3.296 9.356-4.374 6.793 2.518-9.297 4.311-4.825-1.737h-14.54v-.718h12.513zm9.057 3.294 9.295-4.373 6.614 2.396c.06.06.06.122.06.18l-3.218 1.499-.237-.18-1.49-1.078-1.014 1.499-.417.597-.654.958-2.145.96-5.245-1.86-14.418 1.26-.119-.718 12.988-1.14zm8.997 3.296.776-.36.237.18 1.67 1.14-1.311-.482-14.3 2.518-.12-.72 13.048-2.276zm5.303-2.517 2.205-1.017c.655 1.378 1.61 2.455 3.098 3.295l.417.78-.834.359-4.886-3.417zm2.266 6.953-11.442 3.053-.177-.719 10.844-2.875.775.54zm3.633 6.107-5.242 2.459-.299-.661 4.589-2.157.952.36zm11.737-34.269 6.852 1.68-3.396-7.97-3.693-.897c.298 2.096.298 4.492.237 7.187zm7.865-8.025-9.711-8.21-.478.54 10.31 8.688.774 9.225 5.6 4.735-.894-10.306-5.6-4.672zm7.39 6.17.894 10.304 3.277 2.756c.356-2.696.773-5.451 1.37-8.15v-.238l-3.397-2.875-8.342-11.922-.596.419 6.793 9.706zm6.136 2.696-4.469-7.789-.654.36 4.825 8.386c.06-.058.06-.119.06-.18l.238-.777zm14.479 24.204.477.48-.12-1.799c-.12.42-.238.9-.357 1.319zm1.549-6.651.715 8.627 5.6 4.674-.535-5.932a193.681 193.681 0 0 1-2.622-6.23l-3.04-2.577c0 .478-.058.958-.118 1.438zm7.806 11.98.238 2.818.238.18h.118l.06.178 1.37 1.138c-.417-.778-.773-1.616-1.131-2.394-.299-.66-.597-1.259-.893-1.92zm6.494-12.28-.238-2.697-.715.06.06.958c.296.541.594 1.14.893 1.68zm-51.777-13.778 7.686-.66 5.54 4.673-10.247.897-2.979-2.515v-2.395zm4.765 6.41 10.25-.9 4.17 3.536c0 .42-.06.897-.118 1.318l-8.7.778-1.49-1.258-.358-.539-.118.12-1.491-1.257-7.089-3.298c.06-.238.06-.538.06-.777l4.884 2.276zm7.33 6.23 6.732-.599c-.179 1.199-.356 2.398-.596 3.536l-.892-1.557-1.61.896-.477.3-1.49-1.257-2.68-.958-.774-1.019 1.786.658zm-6.077-1.498-1.253-.42-.892-1.138 2.858 1.078-.296.18-.417.3zm8.698 7.128-.596-.897h.119l.238.422.24.475zm20.795 5.932 1.488-.12 5.601 4.735-5.302.417-1.31-3.594-.477-1.438zm2.383 6.65 3.812-.359.24 1.139.654 4.013-2.918.242-1.788-5.035zm8.521 1.138 2.86 2.398c.058.239.177.419.298.658l-2.562.18-.596-3.236zm-12.811-.12-.953-.058c.058-.241.18-.48.238-.719h.477l.238.778zm14.837 10.068-.298.058-.894-5.152 3.097-.24c.12.301.298.54.417.838l-1.786 3.416c-.18.358-.359.719-.536 1.08zm-5.244-3.117-.953-.78-1.728.18-.238-.716 2.62-.241.299 1.557zm-44.925-17.493.536.059-.536-.958v.9zm-14.776-11.144-8.282-5.87-.417.596 8.759 6.232c0-.358 0-.658-.06-.958zm15.43 2.337.238.12 1.61 9.165 5.957 4.194-1.786-10.184-5.9-4.136c0 .241-.058.541-.118.841zm7.926 4.613 1.786 10.184 5.482 3.895c.06-.361.119-.659.238-.96l-1.549-8.925-3.694-2.576-9.294-11.144-.298.241c0 .178 0 .359-.06.476l7.389 8.809zm7.804 5.512.715 3.895c.18-.6.298-1.2.477-1.86.119-.358.238-.719.359-1.138l-8.104-11.622-.596.42 7.149 10.305zm14.122 18.873 1.489 1.018-.597-3.297a96.34 96.34 0 0 0-.892 2.279zm-11.143-23.249-.953-1.735-.654.358 1.37 2.337c0-.059.06-.12.06-.239l.177-.72zm13.228 18.153 1.311 7.49 5.957 4.195-1.786-10.184-4.767-3.356c-.238.6-.476 1.258-.715 1.855zm7.39 2.817 1.727 10.186 2.919 2.038c.06 0 .06 0 .06-.06a57.649 57.649 0 0 0 2.084-3.177l-.892-4.793-4.886-3.475-4.946-13.66c-.12.42-.238.778-.298 1.2 0 .06-.058.06-.058.06l4.29 11.681zm8.579 5.751-2.385-13.837-.715.117 2.562 14.739c.18-.359.358-.717.538-1.019zm-57.2-19.89-10.426-7.37.417-.597 11.022 7.788 7.329-1.318.298.178v-.239l1.43-.238 5.957 4.193-10.128 1.797-5.899-4.194zm7.804 5.512 10.13-1.796 5.958 4.192-10.128 1.798-3.635-2.576-13.585-4.974.238-.716 11.022 4.072zm7.867 5.512 8.102-1.437c-.238 1.976-.238 3.714.18 5.212l-2.325.42-4.229-2.937-14.003-3.834.179-.66 12.096 3.236zm7.864 5.513 1.072-.18a7.74 7.74 0 0 0 1.789 2.217l-1.49-1.019-14.3-2.576.119-.72 12.81 2.278zm14.896 1.618 1.132.778-1.49.299c.12-.358.24-.718.358-1.077zm-7.091 3.953.24-.061c.654.42 1.25.96 1.846 1.499l-.893-.6-14.421-1.318.06-.72 13.168 1.2zm6.136-1.08 3.994-.719 5.958 4.195-10.13 1.798-1.072-.84.596-2.397c.18-.657.417-1.376.654-2.036zm1.789 6.592 10.068-1.798 2.92 2.04c-.833 1.135-1.548 2.154-2.203 3.053l-4.886.9-4.946-3.476h-.238l-.298-.78-1.668.658-.358.122h-11.917v-.719h13.526zm8.699 6.17-.059-.058-5.6 1.016-.3-.718 6.673-1.2c-.237.361-.477.66-.714.96zm-10.01 1.677-4.17.78-.12-.719 3.992-.719.298.658zm46.177-8.387 4.647 6.292-2.442 8.327-5.125-6.95 2.205-7.55-2.503-14.259.715-.117 2.503 14.257zm-6.912 9.167-1.965-11.144.714-.12 1.966 11.084-.715.18zm1.49 2.337 7.15 5.093 1.25 7.19-2.025-1.44v-3.115h-4.35l-2.024-7.728zm6.375 12.819 1.728 1.2c-.597.718-1.132 1.439-1.728 2.158v-3.358zm-5.422 4.793-.358-.599.12-.237.238.836zm13.524 29.358.538 2.815-.12.3-1.012-.719.594-2.396zm-.832 4.253.655.48-.298.839-.119-.42.298-.48-.536-.36v-.059zm2.858 7.13.24 1.317-.597-.359.357-.957zm.657 3.654.058.48-.356.66-.478-1.679.776.539zm-2.325-65.723-2.204-12.582-.714.122 2.322 13.3-5.302 7.609 1.252 6.95c.297-.42.655-.78 1.011-1.14l4.887-7.07-1.252-7.189zm1.668 9.467-1.607 2.396.475 2.038c.359 1.498.895 2.814 1.49 4.132l.895-1.376-.776-4.373 1.252-14.5-.716-.06-1.013 11.743zm1.67 9.526-.478.659c.299.599.596 1.138.895 1.676l-.06-.239 2.503-14.38-.715-.178-2.145 12.462zm3.039 7.19 2.68-10.126-.714-.18-2.443 9.287c.118.298.298.66.477 1.019zm-5.543 20.549.597 3.294.358-1.138.655-1.676 1.667.596.717.242.834.358 2.264-3.293-1.014-5.753 4.945-13.66-.655-.24-3.157 8.69c-.359 4.491-3.1 8.266-7.21 12.58zm7.448.718-2.741 4.014-2.62 7.191.773 4.431 2.741-3.894.18-.358.894-1.558.177.12 1.907-2.757-1.071-5.929 6.136-13.303-.656-.297-5.72 12.34zm-.058 21.029 3.039-4.374-.657-3.534-.237.48-5.364 9.285c.596-.359 1.193-.658 1.728-1.017l1.49-.84zm2.145-9.585-.18-.96 8.224-11.8-.596-.419-8.7 12.46.595.359.657.36zm-63.04-137.974c5.779 18.392 10.963 32.649 17.278 46.31 1.312 2.754 2.623 5.512 4.052 8.266a57.01 57.01 0 0 1 2.145-3.594l-7.566-17.374 8.4 16.057c.12-.121.359-.54.477-.72l1.251-1.797a124.814 124.814 0 0 0-1.847-4.075c-6.316-13.658-13.824-26.838-24.19-43.073zm21.687 80.94 4.648 6.35-2.443 8.267-5.123-6.95 2.203-7.49-2.501-14.259.714-.119 2.502 14.2zm6.376 9.046.357-1.858.179 1.078-.536.78zm.299-2.038-.121-.6v-.12l.12.72zm-.417-1.56-3.219-12.28.655-.18 1.55 5.751 1.191 6.95-.177-.24zm15.61 60.213.536 1.976-.715-.419-.18-1.018.36-.54zm.177 3.653.955.54 1.786 6.771c-.058.059-.118.12-.177.12l-3.635-2.098 1.193-1.677.295-1.377-.417-2.279zm-3.335 11.864-.24-.12-.535-1.977 2.145-3.056 3.157 1.858h-.058a214.58 214.58 0 0 1-4.469 3.295zm-1.49-68.238-2.383-8.988-.18 1.799v.358l1.79 6.65.773.18zm-2.383-8.988-.656-2.396-.715.179.596 2.156.775.061zm3.932 18.092.596-1.077-1.787-6.77-.12.6-1.608 8.987.18-.6.475-1.739 1.728.482.536.117zm1.907-1.676v-8.986h-.715v9.946c.238-.302.477-.66.715-.96zm.358 35.048.655 2.396 3.992-6.948a170.457 170.457 0 0 0-3.396 3.355c-.417.42-.834.836-1.25 1.197zm6.375-4.255-.119.18.654.48 1.193-4.313c-.358.36-.715.658-1.013 1.019l-.715 2.634zm-4.172 12.582.895 3.417 5.123-8.988-.596-2.278-5.422 7.85zm6.615-3.294-5.124 8.926 1.61 6.051h.058v-.058h.06v-.061c.475-.359.953-.721 1.43-1.078l3.873-6.71-1.549-5.874 4.945-13.717-.655-.242-4.648 12.763zm2.8 10.305 7.149-12.462-.655-.42-7.925 13.9c.478-.36.955-.72 1.43-1.018zm-39.324-60.093-2.206-12.58.716-.12 2.324 13.3 7.566 5.332 1.253 7.19-8.402-5.933-1.251-7.189zm1.667 9.468 8.403 5.931 1.25 7.25-8.4-5.934-.775-4.43-6.079-13.182.657-.3 4.944 10.665zm1.67 9.526 8.4 5.929 1.25 7.19-8.4-5.93-.893-5.091-7.27-12.643.655-.358 6.258 10.903zm1.667 9.465 8.4 5.932 1.254 7.189-8.402-5.932-.953-5.512-8.342-11.922.596-.419 7.447 10.664zm1.668 9.526 8.403 5.871 1.25 7.25-8.4-5.932-1.013-5.75-9.295-11.204.536-.42 8.52 10.185zm1.67 9.465 8.4 5.932 1.25 7.19-8.4-5.932-1.073-5.93-10.247-10.364.477-.48 9.593 9.584zm10.07 15.397 1.25 7.192-8.402-5.934-1.072-6.17-11.737-8.269.417-.597 19.544 13.778zm-2.324-65.72v.058l-2.206-12.64-.715.12 2.325 13.359-5.304 7.608 1.311 7.191 5.84-8.448-1.251-7.249zm1.667 9.526-5.899 8.445 1.251 7.19 5.899-8.446-.773-4.435 1.31-14.44-.775-.118-1.013 11.804zm1.668 9.465-5.897 8.447 1.25 7.25 5.9-8.51-.895-5.09 2.562-14.38-.715-.119-2.205 12.402zm1.67 9.526-5.9 8.447 1.251 7.19 5.9-8.448-.956-5.512 3.755-14.14-.714-.18-3.336 12.643zm1.667 9.466-5.9 8.448 1.252 7.19 5.899-8.45-1.013-5.75 4.946-13.662-.656-.297-4.528 12.52zm1.67 9.524-5.9 8.448 1.251 7.191 5.9-8.51-1.014-5.93 6.137-13.239-.657-.302-5.718 12.342zm-4.232 17.916 1.251 7.189 5.899-8.447-1.074-6.172 8.224-11.802-.596-.42-13.704 19.652zm-33.664-67.282-4.47-12.46.657-.3 4.29 11.802c-.179.3-.298.658-.477.958zm-3.635 12.521-4.348-12.041.654-.24 4.648 12.7 7.984 3.775c.119.301.298.6.417.901l1.073 2.394 1.37 3.716-9.355-4.375-2.443-6.83zm3.278 9.048 9.295 4.374 1.786 4.911-.237.24-.596.48-.359.299-7.447-3.476-1.489-4.191-8.282-11.924.595-.42 6.734 9.707zm3.277 9.046 6.256 2.937.475.599 3.994 4.733 1.072 2.934-1.193-.539-1.309-1.318-.42.48-6.136-2.876-.416-.48-1.61-4.493-9.353-11.145.594-.477 8.046 9.645zm4.886 9.826 2.74 1.258-1.014 1.018-1.726-2.276zm4.766 6.112v.058l-.357-.477.357.419zm-11.559-4.016-2.145-1.798.475-.6 1.074.96.596 1.438zm4.528 11.084-4.29-3.056.417-.6 3.397 2.398.476 1.258zm4.648 11.263-6.793-3.176.298-.658 6.078 2.815.417 1.02zm-.417-48.228c-.06.059-.121.18-.24.3-.118.178-.298.48-.654.958l-.596.838 1.013 2.756.06-.06.594-.42 1.311-.958.24-.478-1.728-2.936zm2.74 4.672-.06.06.06.06.357.48-.356-.6zm-1.012 6.35 1.19 3.298.298.358.359.42.417-.9-2.264-3.175zm3.335 4.735-.356.72 2.68 3.175-.118-.66-2.206-3.235zm1.311 21.868-17.993-23.427c8.222 19.952 11.38 36.187 24.845 53.801l3.815-2.159-7.567-14.378 9.353 13.36c1.073-.6 2.205-1.258 3.575-1.977l-.357-1.857-8.043-4.852-.834-3.594-.955-5.452-11.141-7.85-1.489-1.016 1.072-1.499.417-.599 1.012-1.496 1.49 1.018 2.8 1.977zm52.433 19.171 2.443-18.572-8.282 20.008c.536 2.337.715 4.374.536 6.233l1.789-6.711.475-1.738 1.788.48.715.178.536.122zm-49.512 85.853-1.074 4.011c1.132 0 2.266-.059 3.337-.117.478 0 1.013-.059 1.489-.059l3.279-1.92 1.607-6.049 12.394-7.189-.359-.662-20.673 11.985zm-1.728-.479-1.25 4.553c-.657.058-1.372.058-2.088.058l-3.694-6.472.357-1.496 3.873-1.438 2.802 4.795zm-5.662-8.387-.237-.361.356-.838.538.955-.657.244zm27.528-48.111-.536.54-6.255 6.289.297-.239 1.43-1.136.774.955 6.136-3.592 1.132-4.314.18-.301c-.536.301-1.072.6-1.55.901-.535.298-1.073.6-1.608.897zm1.252 5.093-4.469 2.574.953 1.14-1.43 1.14-5.065 4.314-.357 1.496 1.072-.78.717 1.02 6.672-3.836 1.311-5.03 8.342-11.985-.596-.356-7.15 10.303zm-2.503 9.285-5.123 2.998.833 1.199-1.49 1.018-.655.478a86.162 86.162 0 0 0 5.303-1.438l.655-2.578 9.355-11.2-.536-.483-8.342 10.006zm5.66 2.16 1.727-1.74-.535-.478-2.681 2.695c.119-.059.238-.059.298-.117.417-.122.834-.243 1.19-.36zm-22.521 32.771-1.371 5.211 8.877-5.152 1.43-5.214c-.834.12-1.787.301-2.741.482a96 96 0 0 0-1.072.18l-3.814 2.155.596 1.676-1.668.6-.237.062zm6.97-33.01-.179.536-.18-.298.36-.239zm-1.61 1.316.3.477-2.325 1.619.298-.6 1.728-1.496zm-7.447 32.47-1.013 3.957-1.728-2.939 2.741-1.018zm-4.944-2.813-.776-1.379c1.728-.059 3.517-.18 5.243-.302l-4.467 1.681zm23.773 1.794-.954 3.597-1.37-2.276 2.324-1.32zm-4.469-2.456-1.311-2.276 1.25-.717c.122 0 .24 0 .36-.063 1.25-.176 2.442-.356 3.574-.537l.596 1.02-4.469 2.573zm6.197-4.012-.119.478-.24.122-.237-.483c.18-.058.356-.058.596-.117zm3.454-30.316.478.78-3.755 3.773-.237-.36 3.514-4.193zm4.648-5.57 1.014 1.676-1.55 5.693-.535-.541-.477-.536-1.311-1.262-.12.121-.535-.96 3.514-4.192zm1.908-10.305 1.548 2.696-1.846 7.068-.478-.84.596-.716-1.369-1.14-.596-.477v-.064l-1.073-1.857 3.218-4.67zm3.396-4.196-1.251 4.675-1.073-1.979.118-.18-.415-.298-.298-.478c1.013-.6 2.026-1.199 2.919-1.74zm-12.929 55.539-1.431 5.39 8.877-5.151 1.61-6.049 12.452-7.193-.356-.658-19.186 11.146.594 1.077-1.607.897-.953.54zm1.489-5.512-.417 1.497.06.062 4.647-2.696c-1.37.42-2.741.776-4.29 1.137zm16.444-29.478 7.746-9.285-.536-.477-8.341 10.006h.06l1.071-.244zm1.311-9.046-8.877 5.152-1.61 6.053c.955-.239 1.848-.541 2.802-.78l5.838-3.353 1.312-5.035 8.34-11.921-.594-.42-7.21 10.304zm2.504-9.285-8.878 5.152-1.907 7.067 8.878-5.151 1.192-4.373 7.208-12.58-.596-.36-5.897 10.245zm2.501-9.348-.058.063 3.335-12.402-.715-.182-3.514 13.062-5.662 3.353c-.773.6-1.549 1.2-2.443 1.74l-1.728 6.59 8.88-5.152 1.905-7.072zm-3.04-18.511 1.67-6.41-.656-.239-1.37 5.033c.06.297.12.597.18.836.058.302.119.539.177.78zm-25.082 88.608-1.431 5.571c-.476-.059-.893-.059-1.31-.117l-3.872-6.77 4.408-2.578 2.205 3.894zm-4.885-8.627.535.96-.954.537.419-1.497zm6.672 9.105-1.37 5.215 2.264.18 6.137-3.534 1.61-6.053 12.391-7.19-.356-.657-20.676 12.039zm-39.98-.6-2.145 4.738c.953.117 2.026.239 3.097.297.06.059.121.059.24.059l5.422-1.975 2.622-5.692 13.466-4.913-.24-.721-22.462 8.208zm-1.61-.775-2.5 5.332c-.359-.063-.716-.063-1.074-.121l-3.04-8.267 2.623-5.693-4.886-13.54.715-.238 8.163 22.527zm35.69-55.358-9.652 3.534-3.097 6.652 9.653-3.538 1.905-4.074 9.297-11.142-.538-.479-7.567 9.047zm-4.05 8.744-9.652 3.538-3.1 6.648 9.653-3.533 2.205-4.733 10.248-10.304-.477-.54-8.876 8.924zm-4.051 8.749-9.653 3.534-3.098 6.59 9.651-3.534 2.384-5.031 11.142-9.406-.477-.541-9.95 8.388zm-4.052 8.69-9.653 3.533-3.098 6.649 9.653-3.534 2.502-5.273 11.856-8.389-.417-.599-10.843 7.613zm-4.052 8.743-9.652 3.535-3.1 6.652 9.714-3.534 2.501-5.512 12.572-7.31-.357-.6-11.678 6.77zm-13.704 12.283-3.098 6.59 9.712-3.534 2.62-5.634 13.468-4.972-.24-.658-22.462 8.208zm15.075-54.16 3.514 9.705-3.039 6.652-3.515-9.708 1.848-4.075 2.5-14.315.718.118-2.026 11.623zm-4.052 8.749 3.514 9.704-3.037 6.649-3.517-9.705 2.145-4.732 1.25-14.559.777.06-1.132 12.583zm-4.052 8.744 3.516 9.709-3.04 6.59-3.516-9.709 2.324-5.03v-14.618h.716v13.058zm-4.05 8.749 3.514 9.704-3.04 6.59-3.514-9.705 2.443-5.273-1.253-14.496.717-.062 1.132 13.242zm-4.053 8.744 3.514 9.65-3.039 6.648-3.514-9.704 2.503-5.512-2.503-14.379.715-.121 2.324 13.418zm-.536 18.394-3.039 6.653-3.516-9.767 2.622-5.63-4.886-13.54.656-.302 8.163 22.586zm51.539 17.376c-6.793 3.533-12.93 6.891-18.65 10.186-1.488 4.192-3.277 7.068-5.482 8.924l.18.361.358.6.177.356c7.39-5.928 14.956-12.58 23.417-20.427zm-32.532 22.347c-1.789.18-3.694.117-5.72 0-1.013.717-2.026 1.379-3.04 2.096h5.125l3.635-2.096zm-98.252 19.588-2.683 9.948-5.54 3.236c.894-3.714 1.966-7.19 3.456-10.425l3.277-1.92 8.342-11.98.596.418-7.448 10.723zm8.282-4.85-2.622 10.006-6.316 3.652 2.68-10.006 4.41-2.574 1.788-2.096.358.18c.119.059.177.059.298.117l-.596.722zm.18 5.752 1.548-5.873c.596.239 1.132.541 1.668.838l-.18 2.516-3.037 2.519zm-2.742 12.639-7.448-1.975-6.315 3.651 9.948 2.637 2.444-1.375-.18-.063 1.432-1.136.12-1.74zm.596-6.649-6.078 3.475 5.659 1.555.42-5.03zm57.02-13.419h-6.376c1.67.537 3.337 1.078 5.065 1.615l11.857-6.887-.356-.659-10.19 5.931zm3.04 2.994 1.845-.839-.296-.658-2.564 1.2c.358.117.657.18 1.015.297zm-23.358 17.434h-3.217l-.119 1.199-1.847-.122-5.661-.536-4.588 4.61h6.733c1.371-.238 2.8-.419 4.171-.599l3.514-3.533 2.564-.659c-.358-.18-.715-.36-1.013-.478l-.537.118zm-22.344 18.754h3.696l.594-.599c-1.43.239-2.86.42-4.29.6zm13.943-23.248-.776.78-.714-.059v-1.438c.298.18.656.298.955.478.176.06.356.18.535.24zm-3.158-1.555v2.096l-2.382-.18 2.324-1.98c0 .064.058.064.058.064zm-1.61 6.41-3.513 3.533v-3.835l3.514.301zm-5.183-.479v5.63l-1.607 1.677c-1.193.24-2.324.482-3.517.72v-4.313l.596-.18 4.171-3.534h.357zm-11.857 9.583v-2.334l3.517-3.535 1.607.18v4.49c-1.728.36-3.454.78-5.124 1.199zm1.491-13.058-5.601 4.67 10.247.901 4.767-4.015 14.3 1.257.06-.716-23.773-2.097zm-1.193-1.378-5.54 4.673.894-10.308 4.765-4.011 1.253-14.378.713.058-2.085 23.966zm55.651-35.049-10.249-.897-5.6 4.732 10.248.898 3.456-2.876 13.05-6.17-.299-.659-10.606 4.972zm-7.329 6.229-10.249-.897-5.599 4.674 10.247.897 3.934-3.295 13.643-5.03-.238-.663-11.738 4.314zm-7.39 6.17-10.186-.897-5.6 4.674 10.246.897 4.232-3.592 14.062-3.777-.18-.658-12.573 3.354zm-7.326 6.175-10.25-.901-5.54 4.733 10.247.9 4.47-3.776 14.24-2.515-.118-.721-13.049 2.28zm-7.329 6.23-10.25-.898-5.54 4.67 10.247.901 4.59-3.894 14.477-1.258-.058-.72-13.466 1.198zm-17.578 5.273-5.54 4.67 10.188.96 4.826-4.075 14.24 1.257.061-.716-23.775-2.096zm36.405-42.657-.894 10.303-5.54 4.675.894-10.308 3.395-2.876 8.282-11.859.596.42-6.733 9.645zm-7.327 6.17-.894 10.304-5.543 4.733.895-10.304 3.933-3.354 7.269-12.642.596.36-6.256 10.904zm-7.33 6.23-.893 10.303-5.6 4.674.952-10.303 4.231-3.597 6.137-13.238.654.297-5.48 11.863zm-7.327 6.17-.895 10.304-5.6 4.673.894-10.244 4.468-3.773 4.945-13.662.715.24-4.527 12.462zm-7.33 6.233-.894 10.245-5.6 4.733.894-10.308 4.587-3.894 3.812-14.135.658.239-3.457 13.12zm-8.281 16.475-5.543 4.673.895-10.303 4.767-4.016 1.25-14.378.715.117-2.084 23.907zm-21.629 30.496c28.48-2.1 48.74-6.351 79.483-16.177-33.247 1.438-53.982 4.494-82.82 12.94l1.25 1.376 28.9-5.748 17.098-2.88h.18l-.12.063-18.588 3.655-26.636 5.752c.478.478.715.6 1.253 1.019zm22.104 24.56 3.934-1.857-5.958-8.388 6.733 8.028 4.11-1.916-7.983-9.465 8.996 8.987 4.23-1.979-10.366-10.425 11.677 9.826 4.409-2.096-13.287-11.142 14.896 10.425 4.588-2.159-16.624-11.683 18.53 10.786 4.827-2.276-20.199-11.683c-.834.117-1.61.298-2.443.42a523 523 0 0 1-3.158.536l-2.92 2.938c-9.235 0-14.12-.599-20.376-.062l16.384 23.185zm12.574-27.08 22.462 10.665 5.063-2.335-18.59-8.807h-6.315c-.893.18-1.727.36-2.62.477zm-21.035-11.56-5.361-2.097-6.258 3.655-3.573-1.14-5.006 2.578 3.574-3.358-3.453-1.375 1.308 1.434-2.382 2.997.654 1.56 4.292-1.677 1.37 1.136-3.992 3.714 13.347-7.068-12.811 8.145.833 1.2 11.62-4.495 4.35-3.231 1.488-1.979zm82.463-34.63h-10.249l-5.182 5.152h10.308l3.158-3.174 12.51-7.252-.356-.658-10.189 5.932zm-6.793 6.77h-10.247l-5.123 5.152h10.247l3.635-3.656 13.168-6.17-.299-.659-11.38 5.333zm-6.733 6.828h-10.307l-.119.18c1.789.659 3.575 1.38 5.303 2.218l1.847.838 2.086-2.037 13.643-4.971-.238-.718-12.215 4.49zm1.968-18.39v3.476l-5.124 5.152v-9.168s.06 0 .06.058h.535c.298.063.596.063.894.122h.356c.121 0 .24.058.299.058h.416c.06 0 .06.064.06.064h.357c.657.058 1.193.117 1.73.175h.059c.118 0 .238.064.358.064zm-6.793-.063v10.367l-5.124 5.152v-3.417l3.158-1.856 1.607-.898-.952-1.559-.356-.658-.895-1.555-1.549.897-1.013.54v-1.857l3.634-3.655 1.013-2.159c.24 0 .538.063.775.063l-.298.595zm-6.733 6.833v1.136l-2.74 1.618 1.49-1.555 3.157-8.568.893-.302-2.8 7.671zm0 6.23v2.456l-.119-.18-.298-.658-.477-1.078.894-.54zm-.238 4.376-.537.478c-.12 0-.238-.06-.356-.122l.118-.058.775-.298zm-6.911-5.337 1.488-5.449.775-.239-1.37 5.21-.893.478zM773.67 454.15v-1.258l2.68-.72c.834.419 1.67.72 2.504 1.018v.063l-.477.058-4.707.839z" fill="#fbdd73"/><path d="M607.79 191.978h185.125V374.11c0 37.563-39.86 31.933-58.927 31.933-14.658 0-20.914.357-33.604 11.562-12.751-11.205-19.008-11.562-33.665-11.562-19.067 0-58.928 5.63-58.928-31.933V191.978z" fill="#1f1a17"/><path d="m787.552 385.072-.773 2.158-.955 1.916-1.071 1.74-1.251 1.618-1.313 1.437-1.488 1.259-1.55 1.135-1.727 1.081-3.694 1.736-4.112 1.317c-2.204.54-4.41.96-6.673 1.32-3.098.36-6.197.6-9.355.658-5.899.121-11.798-.121-17.695-.239-6.139 0-12.334-.122-18.412 1.2-2.206.535-4.23 1.257-6.316 2.154-2.264 1.077-4.29 2.276-6.374 3.714a61.798 61.798 0 0 0-4.409 3.357 74.645 74.645 0 0 0-6.615-4.795c-2.383-1.438-4.707-2.574-7.329-3.534a47.351 47.351 0 0 0-6.435-1.497c-5.004-.658-10.129-.599-15.193-.599-5.898.118-11.738.36-17.637.24-3.157-.06-6.256-.299-9.413-.659-2.265-.36-4.41-.78-6.674-1.32l-4.111-1.317-3.694-1.736-1.668-1.08-1.609-1.136-1.43-1.259-1.37-1.437-1.192-1.618-1.073-1.74-.953-1.916-.835-2.158-.654-2.335-.478-2.637-.297-2.876-.12-3.173v-70.518h177.558v70.518l-.12 3.173-.297 2.876-.536 2.637-.657 2.335z" fill="#de411a"/><path d="M643.959 287.597c-4.827-.239-9.653-.419-14.48-.477-6.077 0-12.094.178-18.112.718v-17.675c4.23 0 9.056.778 13.942 2.517 9.473 3.354 16.505 9.285 18.65 14.917zm5.6-10.064v.058c1.013.482 1.966 1.02 2.92 1.5 1.787 1.018 3.395 2.036 4.825 3.474a8.595 8.595 0 0 1 1.49 1.796c.953 1.44 1.669 2.937 2.145 4.555-4.945-.42-9.83-.839-14.776-1.138v-.242a32.695 32.695 0 0 0-1.133-2.515l-1.012-1.678c-.596-.837-1.192-1.558-1.848-2.335a28.174 28.174 0 0 0-2.323-2.279 29.961 29.961 0 0 0-2.622-2.156c-1.37-.958-2.681-1.796-4.11-2.576 0-.059-.06-.059-.06-.059a52.89 52.89 0 0 1 5.183.42c4.171.599 7.985 1.676 11.32 3.175zm-12.453-5.332c-.834-.12-1.728-.181-2.562-.242-1.311-.058-2.562-.058-3.873-.058-.537 0-1.072.058-1.609.119-1.012-.48-2.025-.838-3.038-1.258l-2.563-.777c-1.667-.48-3.277-.9-5.005-1.201-1.191-.178-2.383-.358-3.634-.478-1.191-.12-2.323-.12-3.455-.178v-5.873c1.728.06 3.515.18 5.362.42 9.056 1.318 16.623 5.034 20.377 9.526zm2.324-6.11c0 .059.06.117.06.178l2.085.9c.775.418 1.43.898 2.145 1.378.775.598 1.43 1.197 2.085 1.855a32.38 32.38 0 0 1 1.847 2.218l.893 1.618.299.777c-.893-.297-1.788-.658-2.681-.957-1.251-.359-2.503-.72-3.754-1.019-.834-.12-1.669-.3-2.502-.48-.358-.6-.775-1.197-1.252-1.737l-1.37-1.436a24.425 24.425 0 0 0-2.324-1.918c-.893-.66-1.788-1.2-2.68-1.798-1.015-.54-2.027-1.078-3.099-1.558-.298-.119-.656-.239-.954-.419 4.171.3 7.985 1.138 11.202 2.398zm-16.088-4.435h-1.013c-.06 0-.118 0-.238.06a7.809 7.809 0 0 0-1.132-.299c-1.31-.3-2.621-.54-3.933-.719l-1.31-.18c-1.49-.12-2.92-.24-4.35-.24v-6.23c1.669.419 3.516 1.018 5.244 1.856 2.74 1.377 5.302 3.295 6.732 5.752zm5.363-4.014.059.06c.776.24 1.49.478 2.146.778a20.638 20.638 0 0 1 4.408 2.396c.656.48 1.252 1.02 1.788 1.56.239.178.477.419.656.658.118.12.179.24.298.358l-1.788-.536a65.57 65.57 0 0 0-4.767-.9 41.2 41.2 0 0 0-3.813-.36c-.715-.059-1.37-.059-2.086-.059l-.714-1.318-1.013-1.44a20.657 20.657 0 0 0-2.026-1.916l-1.252-1.019c2.92.3 5.662.9 8.104 1.738zm-5.72-5.033c.894.54 1.728 1.02 2.562 1.619.238.239.477.419.655.599-1.31-.3-2.562-.54-3.932-.72a39.724 39.724 0 0 0-3.814-.36c-.654-.06-1.31-.06-1.906-.06-.656-.24-1.252-.539-1.847-.778-1.133-.358-2.204-.719-3.278-1.018h-.058v-1.558c2.74-.121 5.362.179 7.983.897 1.251.361 2.444.841 3.635 1.38z" fill="#fff"/><path d="M611.247 299.76v-10.245c8.58-.899 16.922-1.019 25.263-.78 8.58.3 17.16 1.019 26.038 1.918-.774-3.175-1.549-6.05-3.754-8.868-2.204-2.754-5.363-4.372-7.865-5.69-.893-5.154-6.077-9.887-9.711-11.264-1.073-2.456-1.848-3.295-4.052-5.091-2.205-1.859-3.814-2.517-6.317-3.356-3.872-5.631-11.678-8.146-19.602-7.371v-53.2h177.556V299.76H611.247z" fill="#007cc3"/><path d="M714.087 211.51c1.311-1.557 2.918-1.319 4.05-.059 1.254 1.438 1.49 4.733 3.934 6.83 3.097 2.755 6.495 2.397 8.878 1.977.834-.06 3.097-.84 4.41-2.039 1.011-.897 1.549-2.815 0-3.353-.537-.241-1.192-.42-.954-1.019.298-.719 1.013-.419 1.43-.12.179.12.535.42.775 1.02.177.657.177 1.257 0 1.854-.119.54-.477 1.082-.894 1.618-.298.36-.596 1.56.356 2.34 1.132.955 3.754-.48 5.543-2.34 1.549-1.618 2.501-3.533 1.071-4.372.776-1.976 2.206-2.156 3.873-2.337-.596.18-1.61.539-2.026 1.438-1.668 3.536 2.205 5.451 4.53 4.135 3.873 1.857 10.664-1.559 12.87-4.793 1.548-2.337.714-5.454-1.312-6.11-3.812-1.26-2.978-4.435-2.087-5.154 1.016-.84 2.266-1.018 3.16-1.077-.595.18-1.55.237-2.443 1.377-.835 1.199-.416 3.534 1.072 4.433 1.013.658 3.517.06 4.946-.359 1.43-.36 4.05-1.856 4.766-3.055.954-1.68 1.371-2.996 1.013-4.134-.178-.838-1.19-.838-1.728-.72-.595.12-1.072 0-1.133-.6-.058-.478.36-.838 1.312-.778 1.49.12 2.084 1.199 2.026 2.218-.059 1.316-.655 2.695-1.25 3.774.416-.48 1.488-2.039 1.905-3.416.297-.958.297-2.156.24-2.876h-28.958c-1.43.48-2.145 1.078-2.145 1.078s1.786-.658 3.514-.178c.657.178 1.193.777 1.61 1.376.654 1.141.833 2.637.417 2.937-.537.358-.834.122-1.133-1.677-.535-3.056-3.635-2.397-4.706-2.156-1.074.239-2.741 2.156-3.04 2.695-.298.539-2.026 4.313.478 5.87 2.443 1.56 5.422-1.498 5.422-1.498s-.359 1.679-2.504 2.459c-2.145.777-4.944-1.68-6.195-3.175-1.252-1.5 1.072.058-2.266-3.237-3.335-3.355-8.34-2.934-8.34-2.934.536.117 1.132.358 2.264 1.018 2.026 1.198 1.907 3.714 1.907 3.714-.477-1.259-.955-2.339-1.728-2.936-2.442-1.857-5.959-2.517-9.415-1.976-3.337.538-6.435 3.714-7.268 4.613-.238.239-1.966 1.915-3.515 2.215-1.372.3-3.396.48-2.862-.78.538-1.257 1.55.48 2.98.181.953-.18 2.264-.778 3.159-1.797-3.219-.96-7.152-1.859-9.295-1.917-6.495-.178-10.905 2.156-12.752 7.61h20.377l5.661 4.192z" fill="#fff"/><path d="M683.164 207.318v5.091h2.62v11.622c-3.693 2.157-6.731 5.452-8.757 9.288-1.67 3.294-2.74 7.008-2.92 10.963h-4.826v5.99h-4.35v41.041h72.571v-41.04h-4.408v-5.99h-5.066c-.417-10.307-6.733-18.992-15.312-21.99v-5.692h1.43v-5.091l-5.72-4.192h-25.263z" fill="#1f1a17"/><path d="M684.653 208.754h22.343v2.217h-22.343v-2.217zm19.066 13.66c-.596-.24-1.192-.479-1.788-.659v-8.985h2.443v9.943l-.655-.3zm-3.991-1.197a16.83 16.83 0 0 0-1.729-.242c-.476-.058-.952-.117-1.43-.117h-1.548l-.655.059c-.955.058-1.908.239-2.86.419v-8.566h8.638v8.508l-.416-.061zm-10.19.718c-.416.12-.833.24-1.19.42-.418.178-.776.3-1.073.48V212.77h2.383v9.104l-.12.061zm-14.18 22.945c.06-.54.119-1.078.119-1.677l.12-.78.06-.777.178-.839.12-.78.177-.777.24-.78.238-.78.297-.777.239-.72.357-.777.298-.719.417-.72.359-.72.415-.657.417-.66.478-.718.476-.6.477-.66.536-.598.536-.6.596-.537.596-.54.596-.541.595-.478.657-.48.654-.42.717-.419.654-.419.715-.36.775-.358.714-.3.776-.3c.416-.12.774-.239 1.19-.358.418-.061.835-.18 1.252-.241l.416-.059v2.215c-.714.122-1.31.302-1.965.48l-.893.361-.895.358-.834.36-.834.479-.774.48-.417.3-.477.358-.477.358-.417.362-.476.418-.417.419-.418.36-.417.478-.357.422-.358.42-.357.48-.358.477-.358.48-.297.48-.297.477-.3.48-.297.54-.238.538-.24.48-.238.538-.238.54-.237.54-.18.539-.177.599-.18.539-.12.54-.238 1.138-.238 1.197-.119 1.138c-.119 1.558-.239 3.117-.298 4.616h-4.588v5.99h-4.41v35.948h-2.145V251.71h4.35v-5.93h4.708l.059-.9zm25.085-21.626 1.07.358.776.241.717.298.713.36.715.3.715.42.657.418.715.42.594.477.657.483.596.48.596.538.536.6.535.536.536.6.538.599.475.66.417.658.477.659.417.66.358.719.417.718.299.72.356.719.298.777.238.721.3.778.177.78.238.777.179.78.119.838.119.78c.06.419.12.838.12 1.196.059.841.12 1.619.18 2.459h4.706v5.93h4.41v38.165h-2.206v-35.948h-4.349v-5.99h-4.59c-.118-1.62-.177-3.176-.356-4.794l-.06-.658-.119-.719-.12-.66-.118-.66-.179-.658-.18-.66-.176-.658-.24-.659-.238-.66-.298-.6-.238-.657-.297-.598-.36-.6-.297-.599-.357-.6-.417-.54-.535-.778-.596-.719-.597-.72-.596-.659-.654-.6-.715-.598-.657-.598-.773-.48-.717-.477-.774-.48-.833-.42-.776-.36-.894-.3-.834-.239-.893-.239-.537-.122v-2.215c.537.059 1.074.178 1.61.3zm-5.84-.541h2.385v67.163h-2.384v-67.163zm17.936 27.08h4.466v5.992h4.411v34.09h-6.851v-32.054l-.121-.657-.18-.66-.237-.66-.237-.6-.36-.539-.416-.538-.417-.48-.477-.42-.536-.418-.596-.359-.596-.3-.595-.239-.656-.12-.715-.12-.715-.062-.654.061-.655.12-.657.121-.654.24-.596.3-.538.358-.534.419-.479.419-.476.48-.416.538-.298.54-.298.599-.238.66-.18.66-.118.656v32.056h-2.087v-62.847c.596.117 1.193.358 1.789.536l.535.18.536.241.538.241.536.298.477.239.536.301.477.36.476.358.477.36.417.358.475.42.42.419.593.6c.298.301.596.66.836 1.018.296.3.535.66.773 1.018l.715 1.08c.18.36.417.78.596 1.138.18.358.357.78.536 1.2.18.357.298.777.477 1.198.12.359.238.778.359 1.197l.356 1.257c.06.421.119.84.238 1.258.06.48.06.9.119 1.318.179 2.037.3 4.136.419 6.17zm-19.724-22.764v62.847h-2.084V258.54l-.06-.72-.12-.657-.178-.66-.238-.66-.239-.6-.358-.539-.416-.538-.417-.48-.477-.42-.536-.418-.596-.359-.596-.3-.596-.239-.655-.12-.715-.12-.656-.062-.714.061-.656.12-.655.121-.655.24-.596.3-.536.358-.537.419-.476.419-.476.48-.36.538-.357.54-.297.599-.238.66-.18.66-.118.656v32.056h-6.793v-34.09h4.35v-5.993h4.469c.118-1.319.178-2.574.238-3.895.059-.419.059-.838.118-1.257 0-.478.06-.9.12-1.377.06-.48.18-1.019.238-1.56l.238-1.018.24-.958.297-1.019.357-.958.18-.48.178-.477.476-.9.478-.899.536-.838.535-.78.657-.777.595-.72.715-.718.715-.66.715-.6.417-.297.775-.54.834-.481.417-.24.416-.18.478-.236.417-.183.476-.18c.596-.178 1.252-.419 1.906-.536zm44.687 61.946c17.101-.06 34.202-13.239 51.3-13.6v6.113c-17.098.239-34.199 9.763-51.3 9.825v-2.338zm51.3-39.362v6.113c-17.098.717-34.199 25.7-51.3 25.82v-2.276c17.101-.18 34.202-28.817 51.3-29.657zm0 8.807v6.172c-17.098.539-34.199 20.13-51.3 20.251v-2.337c17.101-.121 34.202-23.366 51.3-24.086zm0 8.748v6.112c-17.098.42-34.199 14.739-51.3 14.797v-2.337c17.101-.06 34.202-18.031 51.3-18.572z" fill="#fff"/><path d="M729.162 389.268v-9.29h-3.873c-.538-.658-1.073-1.194-1.728-1.676-.24-.24-.538-.42-.834-.6-.3-.176-.537-.356-.894-.478-.298-.18-.656-.297-.955-.419-.356-.121-.714-.239-1.07-.36-.834-.24-1.67-.42-2.504-.6-.953-.18-1.966-.298-2.979-.478-1.193-.18-2.324-.477-3.456-1.14-.894-.536-2.203-1.614-2.68-2.515-.597-1.257-.417-2.696.775-3.475.833-.537 1.965-.838 2.918-.956 1.074-.18 2.205-.301 3.279-.423-.12-.658-.3-1.375-.538-2.033-.298-.662-1.25-2.1-1.907-2.637 3.693-.18 7.687-.482 11.74-1.32 4.527-.898 8.817-2.457 13.167-4.134 3.396-1.437 6.554-2.992 9.712-4.854 2.145-1.316 4.17-2.754 6.255-4.25.536-.483 2.504-2.038 4.171-3.237 1.25-.897 2.145-1.618 2.206-2.217 0-.42-.417-1.379-.657-1.798-.596-1.195-1.37-1.916-2.501-2.574a8.395 8.395 0 0 0-1.132-.42c-.478-.18-.955-.301-1.49-.419v-2.339h6.912c-.418-.956-.835-1.916-1.311-2.812a14.523 14.523 0 0 0-1.729-2.52c-1.073-1.018-2.144-1.736-3.575-2.276v-2.935H646.223v2.935c-1.371.54-2.444 1.258-3.516 2.276-.715.78-1.25 1.618-1.788 2.52-.476.896-.833 1.856-1.251 2.812h6.912v2.34a14.21 14.21 0 0 0-1.55.419 7.524 7.524 0 0 0-1.071.419c-1.192.658-1.908 1.379-2.563 2.574-.178.419-.656 1.378-.596 1.798.06.6.953 1.32 2.146 2.217 1.727 1.2 3.634 2.754 4.229 3.237 2.026 1.496 4.111 2.934 6.256 4.25 3.1 1.862 6.316 3.417 9.653 4.854 4.35 1.677 8.64 3.236 13.228 4.134 4.05.838 7.983 1.14 11.737 1.32-.715.536-1.609 1.975-1.906 2.637-.239.658-.417 1.375-.596 2.033 1.132.122 2.204.243 3.336.423.954.118 2.086.42 2.92.956 1.132.78 1.37 2.218.775 3.475-.477.901-1.788 1.979-2.741 2.515-1.072.663-2.204.96-3.456 1.14-.954.18-1.966.298-2.979.479-.834.18-1.669.36-2.443.599-.357.121-.715.239-1.072.36-.358.122-.656.24-1.013.42-.297.12-.597.3-.894.477-.298.18-.537.36-.834.6-.596.482-1.192 1.018-1.669 1.676h-3.932v9.29h57.617z" fill="#1f1a17"/><path d="M690.67 375.426a8.615 8.615 0 0 0 2.206-1.735c.596-.721 1.132-1.501 1.31-2.398.239-1.136.18-2.277-.536-3.295-.298-.42-.596-.658-1.012-.96h15.431c-.358.302-.714.54-1.012.96-.655 1.018-.776 2.16-.536 3.295.237.897.715 1.677 1.37 2.398a8.604 8.604 0 0 0 2.205 1.735H690.67zm62.026-40.858v2.456H648.01v-2.456h104.686zm.358-6.23c1.61.118 2.741.839 3.932 1.975.715.838 1.371 1.798 1.849 2.816H641.933c.417-1.018 1.072-1.978 1.846-2.816 1.133-1.136 2.264-1.857 3.933-1.975h105.342zm0-2.758v1.32H647.652v-1.32h105.402zm-43.137 35.35c8.937-.062 14.238-1.14 20.256-2.817 6.675-2.217 12.692-5.034 18.592-8.866 3.335-2.338 6.434-4.795 9.592-7.369v-.063a6.78 6.78 0 0 0-.656-1.316c-.655-.897-1.489-1.496-2.8-1.857-2.503-.72-2.92-.658-5.54.298-3.1 1.14-6.614 4.732-9.891 8.45-2.145 2.394-4.828 4.792-7.807 6.59-5.957 3.714-12.333 5.391-21.746 6.95zm-1.789-.96c0 .06.538 0 .775-.058 5.362-.6 6.852-.302 12.572-2.1 10.666-3.714 12.571-5.932 16.148-9.583 2.145-2.218 3.992-4.313 6.018-6.77 3.158-3.714-5.184-4.435-7.508-1.681-2.681 3.12-2.92 3.894-5.54 6.833-2.86 3.115-6.079 7.788-11.443 10.065-2.799 1.198-6.851 2.154-10.307 3.056-.238.058-.834.18-.715.238zm-2.264-.419c.06 0 .417-.058.657-.121 4.23-.78 6.195-.897 10.366-2.574 7.806-3.114 8.64-5.571 11.798-8.929a83.677 83.677 0 0 0 5.065-6.59c2.441-3.592-5.005-4.01-6.614-1.496-3.218 4.971-3.693 7.248-7.745 11.62-2.802 2.938-7.567 5.692-12.93 7.67-.18.118-.834.299-.597.42zm-2.62-.482c.117.063.475-.058.655-.058 3.337-.6 5.123-1.317 7.864-2.754 5.242-2.759 8.044-5.571 9.952-8.627 1.308-2.16 2.44-3.836 3.812-6.351 1.966-3.534-5.601-4.196-7.09-1.078-1.967 4.251-2.265 6.108-5.363 10.304-2.205 2.993-5.123 6.112-9.413 8.028-.121.059-.655.36-.417.536zm-1.907 0c.119.063.417-.058.477-.058 2.264-1.02 2.443-1.317 4.467-2.754 3.933-2.759 6.018-5.571 7.984-8.627 1.133-1.799 1.907-3.836 2.92-6.351 1.43-3.534-6.374-4.615-7.865-.18-1.37 4.132-1.37 5.512-3.158 9.406-1.549 3.475-2.084 4.972-4.469 8.028-.119.117-.536.36-.356.536zm-.715-.058c.179 0 .298-.18.356-.298 3.279-5.035 4.946-8.929 7.269-17.015 1.253-4.372-6.733-5.215-6.97-.18l-.774 17.015c0 .117 0 .478.119.478zm-13.228 6.59h25.918a4.059 4.059 0 0 0-.953-1.619c-2.025-2.213-4.17-3.294-6.553-3.831-1.67-.42-3.459-.54-5.303-.6h-.24c-.952 0-1.847.06-2.74.18-.893.06-1.728.18-2.563.42-2.382.537-4.587 1.618-6.612 3.831a6.173 6.173 0 0 0-.954 1.618zm29.316 11.623c1.965.36 4.05.838 5.717 2.038.3.18.596.477.895.716h-45.879c.24-.239.537-.536.834-.716 1.728-1.2 3.755-1.677 5.78-2.038.656-.12 1.311-.238 1.966-.297h28.719c.656.059 1.311.176 1.968.297zm11.022 4.196v1.556h-54.697v-1.556h54.697zm0 2.993v3.417h-54.697v-3.417h54.697zM690.79 360.93c-8.937-.062-14.18-1.14-20.198-2.817-6.673-2.217-12.691-5.034-18.65-8.866-3.336-2.338-6.435-4.795-9.533-7.369l-.06-.063c.24-.478.418-.955.715-1.316.596-.897 1.43-1.496 2.74-1.857 2.564-.72 2.98-.658 5.602.298 3.039 1.14 6.554 4.732 9.89 8.45 2.145 2.394 4.827 4.792 7.746 6.59 6.019 3.714 12.334 5.391 21.748 6.95zm1.848-.96c-.06.06-.597 0-.835-.058-5.303-.6-6.793-.302-12.572-2.1-10.665-3.714-12.571-5.932-16.087-9.583-2.145-2.218-4.052-4.313-6.078-6.77-3.099-3.714 5.184-4.435 7.567-1.681 2.622 3.12 2.86 3.894 5.542 6.833 2.8 3.115 6.077 7.788 11.44 10.065 2.74 1.198 6.852 2.154 10.248 3.056.238.058.834.18.775.238zm2.264-.419a3.62 3.62 0 0 1-.656-.121c-4.23-.78-6.256-.897-10.427-2.574-7.746-3.114-8.58-5.571-11.738-8.929a62.245 62.245 0 0 1-5.064-6.59c-2.502-3.592 5.004-4.01 6.613-1.496 3.158 4.971 3.634 7.248 7.746 11.62 2.741 2.938 7.566 5.692 12.93 7.67.18.118.774.299.596.42zm2.621-.482c-.179.063-.536-.058-.656-.058-3.336-.6-5.184-1.317-7.925-2.754-5.182-2.759-7.983-5.571-9.95-8.627-1.31-2.16-2.442-3.836-3.812-6.351-1.907-3.534 5.66-4.196 7.09-1.078 2.025 4.251 2.264 6.108 5.363 10.304 2.204 2.993 5.182 6.112 9.414 8.028.178.059.715.36.476.536zm1.847 0c-.06.063-.358-.058-.476-.058-2.206-1.02-2.443-1.317-4.47-2.754-3.872-2.759-5.957-5.571-7.984-8.627-1.072-1.799-1.847-3.836-2.859-6.351-1.43-3.534 6.315-4.615 7.805-.18 1.43 4.132 1.371 5.512 3.157 9.406 1.55 3.475 2.145 4.972 4.53 8.028.06.117.476.36.297.536zm.774-.058c-.179 0-.357-.18-.357-.298-3.277-5.035-4.945-8.929-7.269-17.015-1.252-4.372 6.733-5.215 6.972-.18l.773 17.015c0 .117 0 .478-.119.478z" fill="#007436"/><path d="M99.192 160.786v-35.324h1.201v70.649h-1.2v-35.325z" fill="#f8d407" fill-rule="evenodd"/><path fill="#f8d407" d="M97.175 402.631h5.031v197.347h-5.031z"/><path d="M86.142 157.168V127.3h1.202v59.736h-1.201v-29.868zm-17.118-3.007v-20.713h1.201v41.427h-1.201V154.16zm-14.037-.146v-11.68h1.201v23.36h-1.201v-11.68zm58.488 2.668v-29.868h-1.207v59.736h1.207v-29.868zm17.195-3.007v-20.713h-1.206v41.427h1.206v-20.714zm14.101-.146v-11.68h-1.207v23.36h1.207v-11.68zM96.206 264.85c-41.115-28.291-18.287-11.807-35.33-23.909l-30.989-22.003-.023-27.798c-.026-31.016-.081-26.61 1.585-25.165 3.548 3.073 22.538 14.656 26.033 17.164 10.637 7.624 23.633 14.697 32.979 21.867l5.352 4.116-.184 28.98c.307 11.034.692 23.184.577 26.748zm-.404 66.59c-41.115-28.292-18.287-11.808-35.33-23.91l-30.989-22.002-.023-27.799c-.026-31.015-.081-26.609 1.586-25.165 3.547 3.073 22.537 14.656 26.032 17.165 10.637 7.623 23.633 14.696 32.979 21.867l5.352 4.115-.184 28.98c.307 11.035.692 23.185.577 26.748zm-.334 66.98c-41.115-28.292-18.287-11.807-35.33-23.909l-30.989-22.003-.023-27.798c-.026-31.016-.081-26.61 1.585-25.165 3.548 3.073 22.538 14.655 26.033 17.164 10.637 7.623 23.633 14.697 32.979 21.867l5.352 4.115-.184 28.98c.307 11.035.692 23.185.577 26.749zm8.554-132.93c41.187-28.292 18.32-11.807 35.393-23.909l31.043-22.003.023-27.798c.026-31.016.081-26.61-1.588-25.165-3.554 3.073-22.578 14.655-26.08 17.164-10.654 7.623-23.674 14.697-33.036 21.867l-5.362 4.115.184 28.98c-.307 11.035-.693 23.185-.577 26.749zm.404 66.59c41.188-28.292 18.32-11.808 35.393-23.91l31.043-22.002.024-27.799c.026-31.015.08-26.609-1.589-25.165-3.553 3.073-22.577 14.656-26.079 17.164-10.655 7.624-23.674 14.697-33.036 21.867l-5.362 4.116.184 28.98c-.307 11.035-.693 23.185-.578 26.748zm.334 66.98c41.189-28.292 18.32-11.808 35.394-23.91l31.043-22.002.023-27.799c.027-31.015.081-26.609-1.588-25.165-3.554 3.074-22.578 14.656-26.079 17.165-10.655 7.623-23.674 14.696-33.037 21.867l-5.361 4.115.183 28.98c-.306 11.035-.692 23.185-.577 26.749z" fill="#f8d407" fill-rule="evenodd"/></svg>