<svg xmlns="http://www.w3.org/2000/svg" width="826.103" height="561.747" viewBox="0 0 218.573 148.629" version="1" id="svg2" shape-rendering="geometricPrecision" text-rendering="geometricPrecision" image-rendering="optimizeQuality" fill-rule="evenodd" clip-rule="evenodd" xmlns:cgf="https://coding.garden/flags"><metadata id="cgf-metadata">

<cgf:flag>
  <cgf:name></cgf:name>
  <cgf:route>ru/ast</cgf:route>
  <cgf:aspect-ratio>1.4723707664884136</cgf:aspect-ratio>
</cgf:flag>

</metadata><defs id="defs4"><style id="style6">.fil3{fill:none}.fil1{fill:#0a0b0c}.fil5{fill:#fff500}.fil0{fill:#00d1ff}.fil6{fill:#000}.fil7{fill:#fff}.fil14{fill:#004f81}.fil4{fill:#00a13a}.fil8{fill:#da251d}.fil2{fill:#eb8a1b}.fil12{fill:#f9d000}</style></defs><g id="g4872"><path class="fil0" id="_50484432" fill="#1d82b3" d="M0-.001h218.573v148.63H0z"></path><g id="g4725"><path class="fil1" id="_48987792" fill="#0a0b0c" d="m126.502 89.542.636-.218.611-.238.585-.26.554-.283.521-.306.486-.329.447-.353.407-.378.356-.393.131-.206.101-.221.167-.079.053-.027.052-.03.051-.032.05-.037.047-.04.046-.042.045-.05.064-.09.052-.091.04-.093.03-.09.019-.085.013-.08.006-.075.002-.067-.001-.039-.001-.034-.002-.027-.002-.026-.004-.037v-.058l.001-.056v-.07l.001-.084.001-.098.001-.11.001-.123.001-.134.001-.145.001-.155.002-.163v-.348l.519-.061.092-.035.08-.05.067-.062.055-.067.047-.072.041-.077.075-.168.165-.13.064-.076.05-.08.041-.089.035-.093.031-.101.058-.232.057-.227.052-.214.045-.2.039-.191.03-.18.02-.173.011-.167v-.162l-.011-.162-.024-.162-.037-.168-.053-.174-.07-.185-.089-.196-.105-.199-1.23-1.818.001-.206.002-.363.369-.046.145-.034.141-.05.135-.063.127-.079.112-.088.101-.097.09-.108.077-.116.065-.124.051-.129.06-.223.05-.2.035-.162.021-.122.01-.087.001-.05-.001-.003-.009-.01-.042-.04-.059-.059-.071-.08-.075-.1-.059-.095-.094-.134-.099-.117-.108-.107-.116-.097-.122-.088-.126-.078-.132-.07-1.081-.499 1.294-.278.272-.066.274-.073.28-.081.283-.09.292-.098.24-.094.25-.117.257-.137.262-.154.267-.17.27-.184.272-.196.273-.206.271-.214.268-.22.264-.223.258-.226.25-.226.242-.225.23-.22.218-.215.059-.06.059-.06.061-.06.061-.063.064-.067.153-.154.28.06.11.01.113.002.115-.008.118-.018.136-.032.137-.043.136-.053.135-.063.135-.073.134-.081.131-.09.131-.097.129-.106.127-.113.124-.12.122-.128.118-.134.116-.14.111-.146.108-.153.147-.23.132-.232.115-.233.1-.231.084-.23.067-.227.05-.222.034-.217.015-.21-.003-.204-.022-.195-.043-.185-.066-.175-.092-.16-.142-.175.116-.28.031-.078.031-.077.029-.079.033-.09.405-1.67.043-.203.043-.204.045-.209.047-.213.048-.216.051-.218.052-.221.054-.222.057-.223.058-.223.062-.223.063-.221.066-.22.07-.218.072-.214.074-.21.067-.177.084-.208.097-.236.11-.257.118-.274.126-.285.13-.292.132-.294.132-.292.129-.284.139-.303.209-.453.095-.205.177-.382h.001l.022-.046.322-.689.076-.16-.326-.123-.079-.028-.091-.029-.103-.028-.115-.028-.125-.025-.134-.02-.678-.072.409-.674.134-.277.107-.292.078-.304.048-.315.017-.324-.017-.323-.048-.315-.078-.305-.107-.291-.134-.278-.159-.261-.183-.245-.205-.225-.226-.205-.244-.182-.262-.16-.277-.133-.198-.073-.638-.233.48-.436.189-.208.169-.226.147-.242.124-.257.099-.27.073-.28.045-.292.015-.3-.015-.299-.045-.291-.073-.281-.098-.27-.125-.257-.147-.241-.169-.226-.189-.209-.208-.19-.227-.168-.242-.148-.256-.123-.27-.1-.281-.072-.646-.098.551-.735.137-.225.115-.238.092-.251.067-.261.042-.27.014-.279-.014-.278-.042-.27-.067-.262-.092-.25-.115-.239-.137-.224-.157-.21-.176-.194-.194-.176-.21-.157-.225-.136-.238-.115-.251-.092-.261-.068-.27-.041-.278-.014-.794.04.409-.672.105-.218.084-.229.062-.238.038-.247.013-.254-.013-.254-.038-.246-.062-.239-.084-.228-.105-.218-.125-.205-.143-.191-.16-.177-.177-.16-.192-.144-.205-.124-.217-.105-.229-.084-.238-.062-.247-.038-.254-.013-.253.013-.247.038-.74.192.181-.704.037-.241.013-.248-.013-.248-.037-.24-.06-.233-.081-.223-.103-.212-.122-.2-.139-.188-.157-.172-.172-.157-.187-.14-.2-.121-.212-.103-.224-.081-.232-.06-.241-.037-.247-.013-.248.013-.24.037-.233.06-.595.218-.031-.602-.033-.214-.053-.207-.073-.198-.091-.189-.108-.178-.124-.166-.139-.153-.153-.14-.166-.124-.178-.108-.188-.091-.198-.073-.207-.054-.214-.032-.219-.012-.221.012-.214.032-.206.054-.198.073-.639.309-.111-.728-.053-.207-.073-.198-.091-.189-.108-.178-.124-.166-.139-.154-.153-.139-.166-.124-.178-.108-.188-.091-.199-.073-.206-.054-.214-.033-.22-.01-.22.01-.214.033-.207.054-.198.073-.189.09-.639.39-.144-.556-.065-.177-.081-.168-.096-.158-.111-.148-.124-.136-.136-.124-.148-.11-.158-.097-.168-.08-.177-.065-.184-.048-.191-.03-.195-.01-.196.01-.191.03-.184.047-.176.065-.168.081-.158.097-.434.324-.213-.582-.078-.16-.091-.151-.106-.141-.118-.13-.13-.119-.141-.105-.151-.092-.16-.078-.169-.061-.175-.046-.182-.027-.187-.01-.187.01-.182.027-.176.046-.168.061-.16.078-.483.294-.296-.487-.106-.14-.118-.132-.13-.118-.141-.105-.151-.092-.16-.077-.168-.062-.176-.045-.182-.028-.19-.01-.263.02-.254.056-.633.24-.012-.701-.008-.16-.013-.158-.018-.157-.07-.492h.011l-.096-.298-.004-.018h-.004l-.11-.339-.125-.313-.143-.303-.162-.291-.18-.28-.196-.268-.212-.255-.227-.24-.242-.226-.256-.21-.269-.195-.281-.178-.294-.16-.451-.21-.054-.205-.036-.136-.042-.162-.048-.182-.052-.197-.054-.206-.055-.212-.219-.837.896.236.31.081.312.082.305.08.291.077.266.07.232.062.19.05.139.036.404.106v-4.002l-.409.116-.138.04-.19.052-.232.066-.266.074-.29.082-.305.085-.312.088-.309.087-.903.253.158-.685.06-.26.059-.262.06-.258.056-.245.051-.226.054-.234.056-.246.09-.388h-4.048l.09.388.056.246.054.234.052.226.056.245.059.258.06.262.06.26.157.685-.903-.253-.309-.087-.311-.088-.306-.085-.289-.082-.266-.074-.232-.066-.19-.053-.139-.039-.408-.116v4.002l.403-.106.139-.036.19-.05.232-.062.266-.07.291-.076.306-.08.312-.083.309-.081.896-.236-.219.837-.055.212-.054.206-.052.197-.047.182-.043.162-.035.136-.055.205-.451.21-.293.16-.282.178-.268.194-.256.21-.242.227-.228.24-.212.255-.196.267-.18.28-.161.293-.144.302-.125.313-.11.339h-.004l-.004.018-.095.298h.01l-.07.492-.017.157-.013.158-.008.16-.013.7-.632-.239-.255-.057-.263-.019-.19.01-.182.028-.175.045-.169.062-.16.077-.151.092-.14.105-.131.118-.118.131-.105.14-.297.488-.482-.294-.16-.078-.17-.061-.175-.046-.182-.027-.187-.01-.186.01-.182.027-.176.046-.168.061-.16.078-.152.092-.14.105-.13.118-.12.13-.105.142-.091.15-.078.16-.213.583-.433-.324-.159-.097-.168-.08-.176-.066-.184-.047-.19-.03-.197-.01-.195.01-.19.03-.185.048-.176.064-.168.081-.159.096-.147.111-.137.124-.124.136-.11.148-.096.158-.082.168-.064.177-.145.555-.639-.388-.189-.091-.198-.073-.207-.054-.214-.033-.22-.01-.22.01-.214.033-.206.054-.199.073-.188.09-.178.109-.165.124-.154.14-.139.153-.124.166-.108.178-.09.189-.073.198-.054.207-.11.728-.64-.31-.197-.072-.207-.054-.214-.032-.22-.012-.22.012-.214.032-.206.054-.199.073-.188.09-.178.11-.166.123-.153.14-.139.153-.124.166-.108.178-.091.189-.073.198-.053.207-.033.214-.03.602-.596-.218-.233-.06-.24-.037-.248-.013-.247.013-.24.037-.233.06-.223.081-.213.103-.2.121-.186.14-.173.157-.156.172-.14.187-.122.2-.103.213-.081.223-.06.232-.037.241-.013.248.013.248.037.24.181.705-.74-.192-.246-.038-.254-.013-.254.013-.247.038-.238.062-.229.084-.217.105-.205.124-.192.143-.177.16-.16.178-.143.191-.125.205-.105.218-.084.228-.061.239-.038.246-.013.254.013.254.038.247.061.238.084.229.105.218.409.672-.794-.04-.278.014-.27.041-.261.068-.25.092-.24.115-.224.136-.21.157-.194.176-.176.194-.157.21-.136.224-.116.239-.092.25-.067.261-.041.27-.015.28.015.277.041.27.067.262.092.25.115.24.137.224.55.735-.645.099-.281.072-.27.099-.256.123-.242.148-.226.169-.209.19-.189.208-.17.226-.146.242-.124.256-.1.27-.072.281-.044.291-.016.3.016.3.044.29.073.281.099.27.124.257.147.242.169.226.19.208.479.436-.638.233-.198.073-.277.133-.262.16-.244.182-.225.205-.205.225-.183.245-.16.261-.133.278-.107.291-.079.305-.048.315-.016.323.016.324.048.315.079.304.107.292.133.277.41.673-.68.072-.133.021-.125.025-.114.028-.103.028-.092.029-.08.027-.325.125.077.16.321.688.022.046.179.382.094.205.21.453.138.303.13.284.13.292.133.294.13.292.126.285.118.274.11.257.098.236.083.208.067.176.075.211.072.214.069.218.066.22.064.221.06.223.06.223.056.223.054.222.053.22.05.22.048.215.047.213.045.209.044.204.042.203.406 1.67.032.09.03.079.03.078.031.076.117.281-.143.174-.091.161-.067.175-.043.185-.022.195-.003.203.016.21.033.218.05.222.068.226.083.23.1.232.116.233.131.232.147.23.108.153.112.146.115.14.118.134.122.127.124.12.127.114.129.106.13.097.133.09.133.081.135.073.136.063.136.053.136.043.136.032.118.018.115.008.113-.001.11-.012.28-.059.154.154.064.067.06.062.06.062.06.06.06.06.217.214.23.22.242.225.25.226.258.226.264.224.269.22.27.213.273.206.272.196.27.183.267.17.263.155.256.137.25.117.24.094.292.098.284.09.279.08.275.074.27.066 1.295.278-1.081.499-.131.07-.127.078-.122.088-.116.097-.108.107-.1.117-.093.134-.059.096-.074.1-.071.08-.06.059-.042.04-.01.01v.001l.002.05.009.088.021.123.035.16.05.2.06.224.051.13.065.123.078.116.089.108.101.097.112.088.127.079.135.064.14.05.146.033.369.046.002.363.002.206-1.23 1.818-.106.2-.089.195-.07.184-.053.175-.037.168-.024.162-.011.162v.162l.01.167.022.172.03.18.038.191.046.201.052.214.057.227.058.232.03.1.035.094.042.088.05.081.063.077.165.13.075.167.041.077.047.072.056.067.066.062.08.05.093.035.518.061v.348l.002.163.001.155.001.145.001.134.001.123.001.11.001.098.001.084v.07l.001.056v.058l-.004.037-.002.026-.002.028-.001.033v.039l.001.067.007.074.012.08.02.087.03.09.039.092.052.092.064.089.045.05.046.043.047.04.05.036.052.032.051.03.053.027.167.079.101.22.132.207.355.393.407.378.447.353.486.33.521.305.554.282.585.26.612.24.636.217.657.198.677.179.691.16.705.144.714.126.721.112.725.097.727.084.724.072.72.06.713.051.702.041.689.034.673.026.654.021.633.016.609.011.581.01.551.007.519.007.483.008.446.01.403.011.986.025.998.015 1.009.006h.084l1.009-.006.998-.015.986-.025.402-.012.446-.01.484-.007.519-.007.551-.007.582-.01.608-.011.633-.016.654-.02.673-.027.689-.034.702-.04.713-.051.72-.061.725-.072.726-.084.725-.097.721-.112.714-.127.705-.143.692-.16.676-.179z"></path><path d="M138.48 51.81a3.12 3.12 0 0 1 1.892-2.864 2.88 2.88 0 0 1-2.848-2.875c0-1.125.655-2.092 1.598-2.565a1.043 1.043 0 0 0-.019-.045 2.68 2.68 0 0 1-.466.047 2.674 2.674 0 0 1-2.67-2.67c0-.718.288-1.368.75-1.848a18.332 18.332 0 0 0-.197-.31 2.44 2.44 0 0 1-.454.045 2.434 2.434 0 0 1-2.432-2.431c0-.369.09-.715.237-1.029l-.043-.046c-.068-.068-.147-.14-.22-.21-.3.138-.63.219-.979.219a2.372 2.372 0 0 1-2.32-2.85l-.207-.147c-.29.152-.615.246-.964.246-1.158 0-2.1-.943-2.1-2.103 0-.043.01-.083.013-.125l-.33-.197a2.077 2.077 0 0 1-1.284.452c-1.158 0-2.1-.943-2.1-2.103 0-.04.01-.077.012-.116a19.947 19.947 0 0 0-.198-.113 1.85 1.85 0 0 1-1.359.598 1.865 1.865 0 0 1-1.863-1.863c0-.073.013-.142.021-.212l-.047-.018a1.77 1.77 0 0 1-1.519.869 1.773 1.773 0 0 1-1.748-1.504 1.77 1.77 0 0 1-1.423.724c-.901 0-1.64-.678-1.752-1.55a5.214 5.214 0 0 1-4.68 2.931h-.011a5.217 5.217 0 0 1-4.557-2.705 1.773 1.773 0 0 1-1.71 1.324 1.769 1.769 0 0 1-1.423-.724 1.773 1.773 0 0 1-1.748 1.504 1.77 1.77 0 0 1-1.544-.917l-.028.01c.013.088.027.176.027.268a1.866 1.866 0 0 1-1.863 1.863 1.852 1.852 0 0 1-1.408-.657l-.157.088c.006.067.02.132.02.2 0 1.16-.943 2.103-2.102 2.103-.516 0-.983-.194-1.35-.504l-.276.164c.007.07.022.138.022.21 0 1.16-.944 2.103-2.103 2.103a2.08 2.08 0 0 1-1.048-.29 7.109 7.109 0 0 0-.152.108c.044.18.074.366.074.56a2.374 2.374 0 0 1-2.372 2.373c-.386 0-.745-.102-1.068-.266-.075.071-.154.143-.224.213.176.337.285.713.285 1.119 0 1.34-1.09 2.431-2.43 2.431-.2 0-.39-.03-.575-.075l-.164.257c.513.486.837 1.17.837 1.931a2.673 2.673 0 0 1-2.67 2.67c-.205 0-.402-.028-.594-.071l-.004.008a2.878 2.878 0 0 1 1.711 2.626 2.88 2.88 0 0 1-2.848 2.875 3.12 3.12 0 0 1 1.892 2.864 3.11 3.11 0 0 1-2.15 2.949c.328-.082.684-.124 1.026-.063 1.028.181 1.89.799 1.926.825l.125.09-.132.08c-.015.008-1.48.893-1.94 1.64-.55.893-.939 2.06-.493 2.505.25.249.586.414.923.453.349.04.66-.056.877-.274.49-.489 1.376-2.431 1.385-2.45l.06-.132.103.1c.034.034.715.7 1.027 1.262a25.16 25.16 0 0 1-.243-3.431c0-2.982.065-6.092.54-8.628.365-1.954 1.441-5.362 2.46-7.323 1.043-2.005 4.256-5.274 6.221-6.643 6.11-4.258 11.664-5.859 11.72-5.874l.016.057.06.13c-.057.031-5.7 3.15-7.197 4.646-3.474 3.475-5.79 6.632-6.882 9.383-1.196 3.009-1.785 6.403-1.785 10.305 0 1.07.044 2.178.132 3.327.175 2.274 1.325 6.898 1.957 9.317.312-.125.634-.219.931-.219.896 0 1.983.43 2.24.536l.025-.01c.06-.114.201-.362.447-.632a2.788 2.788 0 0 1-.946.175 2.818 2.818 0 0 1-2.815-2.815 2.813 2.813 0 1 1 5.143-1.58c-.261-1.999-.532-4.207-.593-5.207-.197-3.235-.036-7.372.36-9.22.398-1.852 2.279-6.733 4.46-9.46 1.572-1.964 4.936-5.074 6.624-6.597-.22.139-.479.222-.758.222a1.433 1.433 0 0 1-1.431-1.43c0-.79.642-1.432 1.431-1.432s1.431.642 1.431 1.431c0 .34-.124.647-.322.893.398-.356.65-.578.66-.588l.27-.236-.105.342c-.02.063-1.931 6.292-2.285 7.708l-.259.971c-.349 1.277-.783 2.866-.994 4.979-.247 2.473-.452 5.193-.27 8.324.019.316.039.614.06.903.491-.207 1.05-.37 1.588-.37l2.261.086c.071-.2.437-1.207.974-1.972.581-.827 1.604-1.853 1.615-1.863l.072-.072.071.072c.01.01 1.033 1.036 1.614 1.863.538.765.904 1.772.974 1.972l2.262-.087c.547 0 1.113.168 1.61.38.021-.292.04-.593.06-.912.182-3.131-.022-5.851-.27-8.324-.21-2.113-.645-3.702-.994-4.979l-.258-.971c-.354-1.416-2.266-7.645-2.286-7.708l-.105-.342.27.236c.054.048 5.502 4.835 7.635 7.502 2.181 2.726 4.062 7.607 4.46 9.459.396 1.848.557 5.985.36 9.22-.066 1.083-.377 3.584-.657 5.701a2.818 2.818 0 0 1 2.595-1.728 2.818 2.818 0 0 1 2.815 2.814 2.818 2.818 0 0 1-2.815 2.815c-.497 0-.958-.14-1.364-.368.356.33.556.666.634.814l.042.017c.272-.113 1.343-.531 2.229-.531.303 0 .633.097.95.227.632-2.416 1.785-7.05 1.96-9.326.088-1.15.133-2.257.133-3.326 0-3.903-.59-7.297-1.785-10.306-1.093-2.751-3.409-5.908-6.883-9.383-1.384-1.384-6.303-4.148-7.083-4.583.11.202.178.431.178.677 0 .79-.642 1.431-1.431 1.431a1.433 1.433 0 0 1-1.431-1.43 1.429 1.429 0 1 1 2.605-.815l.026-.056.016-.057c.055.015 5.61 1.616 11.718 5.874 1.966 1.37 5.18 4.638 6.222 6.643 1.02 1.962 2.095 5.37 2.46 7.323.475 2.536.54 5.646.54 8.628a25.09 25.09 0 0 1-.237 3.383c.322-.551.965-1.181.999-1.213l.103-.1.06.13c.009.02.895 1.962 1.385 2.452.484.484 1.321.298 1.798-.18.447-.446.058-1.611-.493-2.505-.46-.747-1.924-1.632-1.938-1.64l-.132-.08.125-.09c.036-.026.898-.644 1.925-.825.691-.122 1.436.161 1.88.378l.005-.173c-1.59-.14-2.847-1.464-2.847-3.09zm-48.083-3.748c1.352 0 2.451 1.1 2.451 2.452 0 1.351-1.1 2.45-2.45 2.45a2.454 2.454 0 0 1-2.452-2.45c0-1.352 1.1-2.452 2.451-2.452zm.224 10.199a2.594 2.594 0 0 1-2.59-2.59 2.594 2.594 0 0 1 2.59-2.591 2.594 2.594 0 0 1 2.591 2.59 2.594 2.594 0 0 1-2.59 2.591zm.27-10.234a2.315 2.315 0 0 1-2.313-2.312 2.315 2.315 0 0 1 2.312-2.312 2.315 2.315 0 0 1 2.313 2.312 2.315 2.315 0 0 1-2.313 2.312zm1.255-4.533a2.175 2.175 0 0 1-2.173-2.173c0-1.198.975-2.173 2.173-2.173s2.173.975 2.173 2.173a2.175 2.175 0 0 1-2.173 2.173zm2.018-3.818a1.99 1.99 0 0 1-1.987-1.987 1.99 1.99 0 0 1 1.987-1.988 1.99 1.99 0 0 1 1.987 1.988 1.99 1.99 0 0 1-1.987 1.987zm4.798-6.063c-.43 0-.82-.165-1.12-.43.28.319.456.731.456 1.187 0 .994-.809 1.802-1.802 1.802a1.804 1.804 0 0 1-1.802-1.802c0-.993.808-1.802 1.802-1.802.456 0 .868.176 1.186.457a1.695 1.695 0 0 1-.43-1.121c0-.942.768-1.71 1.71-1.71s1.71.768 1.71 1.71-.768 1.709-1.71 1.709zm4.124-3.862c0 .84-.683 1.524-1.523 1.524-.84 0-1.524-.683-1.524-1.524a1.524 1.524 0 0 1 3.047 0zm8.367 15.91h-5.704v-6.9h5.704v6.9zm.138-15.391h.101v6.9h-5.703v-6.9h5.602zm15.552 27.991a2.594 2.594 0 0 1-2.59-2.59 2.594 2.594 0 0 1 2.59-2.591 2.594 2.594 0 0 1 2.59 2.59 2.594 2.594 0 0 1-2.59 2.591zm.224-5.296a2.454 2.454 0 0 1-2.451-2.451c0-1.352 1.1-2.452 2.45-2.452 1.353 0 2.453 1.1 2.453 2.452 0 1.351-1.1 2.45-2.452 2.45zm1.82-7.25a2.315 2.315 0 0 1-2.314 2.312 2.315 2.315 0 0 1-2.312-2.312 2.315 2.315 0 0 1 2.312-2.312 2.315 2.315 0 0 1 2.314 2.312zm-1.395-4.394a2.176 2.176 0 0 1-2.174 2.173 2.175 2.175 0 0 1-2.172-2.173c0-1.198.974-2.173 2.172-2.173 1.198 0 2.174.975 2.174 2.173zm-2.204-3.632a1.989 1.989 0 0 1-1.987 1.987 1.99 1.99 0 0 1-1.988-1.987 1.99 1.99 0 0 1 1.988-1.988 1.99 1.99 0 0 1 1.987 1.988zm-5.076-5.785c0 .43-.165.82-.43 1.12.319-.28.731-.456 1.187-.456.994 0 1.802.809 1.802 1.802 0 .994-.808 1.802-1.802 1.802a1.804 1.804 0 0 1-1.802-1.802c0-.456.176-.868.456-1.186-.3.264-.69.429-1.12.429-.943 0-1.71-.767-1.71-1.71 0-.941.767-1.708 1.71-1.708.942 0 1.709.767 1.709 1.709zm-4.31-3.676c.84 0 1.524.684 1.524 1.523a1.525 1.525 0 1 1-1.524-1.523z" class="fil2" id="_48967496" fill="#eb8a1b"></path><path d="M101.641 38.675c.6-2.659 2.762-7.57 3.454-9.107l-3.148 3.148c-1.447 1.447-4.532 5.185-5.85 8.975a23.596 23.596 0 0 0-.988 4.001 42.55 42.55 0 0 1 5.663-1.44c.206-1.884.505-3.961.869-5.577z" class="fil0" id="_48966360" fill="#1d82b3"></path><path d="M88.462 41.037c1.103-2.777 3.434-5.957 6.929-9.451 1.035-1.036 3.895-2.761 5.698-3.804-2.557 1.14-7.617 3.622-11.374 6.911-3.31 2.897-6.616 8.527-6.616 16.015 0 .446.016.901.04 1.36a36.504 36.504 0 0 1 3.576-2.507c.162-3.16.737-5.98 1.747-8.524z" class="fil3" id="_48965200" fill="none"></path><path d="M88.462 41.037c1.103-2.777 3.434-5.957 6.929-9.451 1.035-1.036 3.895-2.761 5.698-3.804-2.557 1.14-7.617 3.622-11.374 6.911-3.31 2.897-6.616 8.527-6.616 16.015 0 .446.016.901.04 1.36a36.504 36.504 0 0 1 3.576-2.507c.162-3.16.737-5.98 1.747-8.524z" class="fil0" id="_48964040" fill="#1d82b3"></path><path d="M134.462 50.708c0-7.488-3.307-13.118-6.617-16.015-3.757-3.289-8.817-5.771-11.374-6.912 1.803 1.043 4.663 2.769 5.699 3.804 3.494 3.495 5.825 6.674 6.928 9.452 1.01 2.544 1.586 5.364 1.747 8.523a36.46 36.46 0 0 1 3.576 2.508c.024-.459.041-.914.041-1.36z" class="fil0" id="_48963216" fill="#1d82b3"></path><path d="M121.464 41.69c-1.318-3.789-4.403-7.527-5.85-8.974l-3.148-3.148c.692 1.537 2.854 6.448 3.453 9.107.364 1.616.664 3.693.87 5.577 1.95.356 3.841.84 5.663 1.44a23.596 23.596 0 0 0-.988-4.001z" class="fil0" id="_48962080" fill="#1d82b3"></path><path d="M86.663 51.417c0-.634.021-1.25.052-1.857a36.504 36.504 0 0 0-3.576 2.508c.014.258.027.515.048.777.366 4.45.717 6.743.979 7.926l1.646.055.019.075c.01.045.204.844.204 1.521 0 .239-.024.462-.089.632l-.653 1.308c.18.13.879.655 1.113 1.137.261.538.264 1.943.264 2.002v.13l-.125-.03a7.538 7.538 0 0 0-1.56-.178c-.767 0-1.424.57-1.424 1.035 0 .515.25 1.284.807 1.841.652.651 1.546.748 2.021.748 1.028 0 3.696-.346 3.696-1.931 0-1.833-.288-2.367-.569-2.648-.302-.303-1.998-1.38-2.016-1.39l-.121-.079.114-.089a7.288 7.288 0 0 1 1.273-.769c-.632-2.42-1.793-7.087-1.97-9.382a43.506 43.506 0 0 1-.133-3.342z" class="fil4" id="_48961288" fill="#00a13a"></path><path d="M122.541 56.342c.179-1.769.308-3.046.308-4.954 0-1.125-.003-3.245-.397-5.696a42.54 42.54 0 0 0-5.664-1.44c.191 1.752.3 3.337.3 4.221 0 .84-.102 2.15-.259 3.528l.099.075-.115.06a50.812 50.812 0 0 1-.534 3.576 69.443 69.443 0 0 1-.419 1.969c1.27-.322 1.995-1.489 2.004-1.502l.072-.12.092.106c.023.027.58.683.74 1.641.028.169.04.329.04.479 0 .58-.167.995-.239 1.148l.82.694c.359.359.833 1.51.853 1.559l.035.085-2.318 1.249-.11 1.878c-.118.95-1.317 1.367-1.368 1.384l-.076.031-1.012-1.742c-.268-.555-1.12-.55-1.63-.548h-.095c-.433 0-.892.507-.892 1.446 0 .902.714 2.046 1.625 2.603.842.516 2.05.688 3.491.495 1.393-.185 2.242-1.215 2.888-2.197.717-1.089.288-3.698.284-3.724l-.02-.119h.12c.018 0 .163.002.375.013.2-.911.728-3.42.906-5.242l.096-.956z" class="fil4" id="_48960496" fill="#00a13a"></path><path d="M100.772 44.252a42.55 42.55 0 0 0-5.664 1.44c-.394 2.45-.396 4.57-.396 5.696 0 1.908.129 3.185.307 4.953l.096.956c.179 1.822.706 4.329.906 5.242.2-.01.336-.012.353-.012h.12l-.02.119c-.004.026-.433 2.635.283 3.724.647.982 1.495 2.011 2.889 2.197 1.442.193 2.649.021 3.49-.495.912-.558 1.626-1.701 1.626-2.603 0-.94-.46-1.446-.892-1.446h-.095c-.509-.002-1.362-.007-1.63.548l-1.009 1.739-.079-.028c-.051-.017-1.25-.434-1.368-1.384l-.11-1.878-2.318-1.25.035-.084c.02-.05.494-1.2.852-1.559l.82-.694a2.76 2.76 0 0 1-.238-1.148c0-.15.012-.31.04-.479a3.65 3.65 0 0 1 .74-1.641l.092-.106.072.12c.009.013.743 1.198 2.028 1.51a69.543 69.543 0 0 1-.42-1.977 50.732 50.732 0 0 1-.534-3.563l-.14-.073.121-.09c-.156-1.372-.256-2.676-.256-3.513 0-.885.108-2.47.299-4.22z" class="fil4" id="_48957104" fill="#00a13a"></path><path d="M134.422 52.068a36.46 36.46 0 0 0-3.576-2.507c.032.607.053 1.223.053 1.856a43.96 43.96 0 0 1-.133 3.342c-.177 2.298-1.34 6.972-1.973 9.391a7.35 7.35 0 0 1 1.253.76l.114.09-.122.077c-.017.01-1.713 1.088-2.015 1.391-.282.28-.569.815-.569 2.648 0 1.585 2.668 1.932 3.695 1.932.475 0 1.37-.098 2.021-.749.558-.557.807-1.326.807-1.84 0-.466-.656-1.036-1.423-1.036-.815 0-1.553.176-1.56.177l-.126.03v-.129c0-.06.003-1.464.265-2.002.233-.482.932-1.006 1.113-1.137l-.654-1.308a1.864 1.864 0 0 1-.088-.631c0-.677.193-1.477.204-1.523l.019-.074 1.669-.056c.261-1.183.611-3.477.978-7.925.022-.262.034-.52.048-.777z" class="fil4" id="_48954056" fill="#00a13a"></path><path d="M93.595 68.015c-.2.459-.89 2-1.619 3.158-.524.832-1.493 1.488-2.513 1.915 1.9-.433 4.167-.899 6.147-1.166l2.85-.41c.46-.067.917-.135 1.373-.2-.855-.084-1.706-.336-2.87-.817-1.613-.665-2.993-2.075-3.368-2.48z" class="fil2" id="_48952912" fill="#eb8a1b"></path><path d="M125.562 71.173c-.73-1.158-1.418-2.698-1.618-3.158-.376.405-1.756 1.815-3.369 2.48-1.158.479-2.006.73-2.857.815.459.066.919.134 1.383.203l2.85.409c1.964.266 4.21.726 6.1 1.155-1.01-.427-1.97-1.079-2.489-1.904z" class="fil2" id="_48951096" fill="#eb8a1b"></path><path d="M108.769 66.236c-.316.419-1.537 1.993-2.824 3.048-.902.74-1.745 1.248-2.63 1.575a49.975 49.975 0 0 1 5.465-.313c1.937 0 3.712.123 5.433.31-.881-.329-1.721-.835-2.62-1.572-1.287-1.055-2.508-2.629-2.824-3.048z" class="fil2" id="_48950304" fill="#eb8a1b"></path><path d="M113.223 16.428v-3.321l-3.444.967.668-2.913h-3.564l.85 2.915-3.514-.97v3.666l3.4-1.275-.737 2.576h.03a5.178 5.178 0 0 1 1.857-.352l.011-.001c.574 0 1.124.096 1.64.268l-.646-2.467 3.449.907z" class="fil5" id="_48948360" fill="#fff500"></path><path d="m116.596 52.252-1.242.655a33.45 33.45 0 0 1-.72 4.444l-.071.32c.194.057.407.095.652.095.15 0 .289-.025.428-.049.167-.738.323-1.46.436-2.043.193-.998.375-2.226.517-3.422z" class="fil5" id="_48947568" fill="#fff500"></path><path d="M124.054 51.347c0-2.464-.162-4.914-.441-6.215-.393-1.836-2.257-6.673-4.42-9.375-1.85-2.314-6.217-6.24-7.34-7.237.403 1.317 1.875 6.142 2.183 7.373l.257.966c.35 1.284.788 2.882 1 5.012.182 1.816.34 3.765.34 5.913 0 .787-.02 1.6-.07 2.444-.02.349-.042.675-.065.992.516.24.93.5 1.143.647.149-1.328.244-2.582.244-3.394 0-1.618-.442-6.55-1.164-9.753-.707-3.137-3.64-9.512-3.67-9.576l.164-.114 3.543 3.542c1.458 1.458 4.568 5.228 5.898 9.052 1.396 4.013 1.396 8.043 1.396 9.764 0 1.918-.13 3.2-.309 4.974l-.095.955c-.18 1.835-.705 4.329-.904 5.235.328.024.759.07 1.2.16.26-1.877.926-6.777 1.026-8.415.057-.934.084-1.943.084-2.95z" class="fil5" id="_48946024" fill="#fff500"></path><path d="M135.107 46.773c-.362-1.939-1.43-5.32-2.441-7.266-1.03-1.98-4.21-5.214-6.157-6.57a46.684 46.684 0 0 0-8.694-4.762c2.754 1.307 6.939 3.542 10.165 6.366 3.343 2.926 6.686 8.611 6.686 16.168 0 .701-.03 1.42-.09 2.152-.3 3.644-.641 6.36-.978 7.902l1.461-.048c.268-1.24.585-3.166.585-5.351 0-2.972-.066-6.07-.537-8.591z" class="fil5" id="_48945232" fill="#fff500"></path><path d="M101.918 57.72c.133.021.263.046.405.046.255 0 .473-.042.673-.104l-.07-.311a33.463 33.463 0 0 1-.719-4.431l-1.24-.655c.141 1.192.323 2.415.515 3.409.112.584.269 1.307.436 2.046z" class="fil5" id="_48944440" fill="#fff500"></path><path d="M101.927 47.784c0-2.148.158-4.096.34-5.913.213-2.13.65-3.728 1-5.012l.258-.966c.308-1.23 1.78-6.056 2.183-7.373-1.123.997-5.49 4.923-7.341 7.237-2.162 2.702-4.027 7.539-4.42 9.375-.279 1.301-.44 3.752-.44 6.216 0 1.006.027 2.015.084 2.949.066 1.085.38 3.602.66 5.725.139.331.216.693.216 1.074 0 .105-.02.204-.03.306l.178 1.305a9.762 9.762 0 0 1 1.2-.157c-.198-.907-.723-3.399-.902-5.233l-.096-.955c-.18-1.774-.308-3.056-.308-4.974 0-1.72 0-5.75 1.395-9.764 1.33-3.824 4.44-7.594 5.899-9.052l3.542-3.542.165.114c-.03.064-2.964 6.44-3.67 9.576-.722 3.202-1.164 8.135-1.164 9.753 0 .809.095 2.057.242 3.38a8.087 8.087 0 0 1 1.144-.643 72.526 72.526 0 0 1-.065-.982 42.1 42.1 0 0 1-.07-2.444z" class="fil5" id="_48941384" fill="#fff500"></path><path d="M93.758 62.945a5.4 5.4 0 0 1 .658-.19l-.106-.772c-.12.36-.307.684-.552.962z" class="fil2" id="_48940456" fill="#eb8a1b"></path><path d="M135.294 60.707c0-.032 0-.078.002-.13l-.028.13h.026z" class="fil2" id="_48939664" fill="#eb8a1b"></path><path d="m115.138 53.022-.723.382c-.492.29-1.34 1.454-1.34 2.132 0 .468.271 1.627 1.297 2.056l.064-.285a33.2 33.2 0 0 0 .702-4.285z" class="fil2" id="_48938608" fill="#eb8a1b"></path><path d="m123.328 61.41-.184 1.35c.223.052.447.113.657.192.129.049.249.106.36.167a2.8 2.8 0 0 1-.833-1.71z" class="fil2" id="_48937248" fill="#eb8a1b"></path><path d="m82.245 60.707.048.001a16.874 16.874 0 0 1-.053-.256l.005.255z" class="fil2" id="_48936456" fill="#eb8a1b"></path><path d="M103.187 57.584c1.01-.436 1.277-1.583 1.277-2.048 0-.678-.848-1.841-1.34-2.132l-.7-.37c.221 2.119.49 3.325.701 4.273l.062.277z" class="fil2" id="_48935136" fill="#eb8a1b"></path><path d="M82.895 50.709c0-7.557 3.342-13.241 6.686-16.168 3.226-2.824 7.412-5.06 10.165-6.366a46.695 46.695 0 0 0-8.695 4.761c-1.946 1.357-5.127 4.59-6.156 6.57-1.011 1.946-2.079 5.328-2.442 7.267-.47 2.52-.536 5.618-.536 8.591 0 2.185.317 4.111.585 5.351l1.46.05c-.336-1.542-.678-4.26-.977-7.904a26.26 26.26 0 0 1-.09-2.153z" class="fil5" id="_48933464" fill="#fff500"></path><path d="M125.396 64.384a.418.418 0 0 1 .027-.01 2.829 2.829 0 0 1-.042-.017.32.32 0 0 1 .015.027z" class="fil6" id="_48932408"></path><path d="M78.422 43.422c.015.007.028.017.043.023l.004-.008c-.016-.004-.03-.011-.047-.015z" class="fil6" id="_48931352"></path><path d="M97.752 26.565c.005.025.005.05.008.075l.028-.01-.035-.065z" class="fil6" id="_48930560"></path><path d="m92.143 64.384.009-.016-.025.01.016.006z" class="fil6" id="_48929632"></path><path d="M102.503 26.563a1.57 1.57 0 0 0 1.558-1.43 5.15 5.15 0 0 1-.394-1.19 1.56 1.56 0 0 0-1.164-.525c-.867 0-1.572.705-1.572 1.572l.002.026c.097.205.154.43.165.668.258.518.787.879 1.405.879z" class="fil7" id="_48928616" fill="#fff"></path><path d="M99.332 27.343a1.574 1.574 0 0 0 0-3.145 1.574 1.574 0 0 0 0 3.145z" class="fil7" id="_48927536" fill="#fff"></path><path d="M95.924 28.567c.915 0 1.66-.745 1.66-1.66 0-.915-.745-1.66-1.66-1.66-.916 0-1.66.745-1.66 1.66 0 .915.744 1.66 1.66 1.66z" class="fil7" id="_48926424" fill="#fff"></path><path d="M92.276 30.3a1.9 1.9 0 0 0 1.9-1.899 1.902 1.902 0 0 0-1.9-1.899 1.902 1.902 0 0 0-1.899 1.9c0 1.047.852 1.899 1.9 1.899z" class="fil7" id="_48925344" fill="#fff"></path><path d="M88.57 32.274c1.047 0 1.9-.852 1.9-1.9a1.902 1.902 0 0 0-1.9-1.899c-1.048 0-1.9.852-1.9 1.9 0 1.047.852 1.899 1.9 1.899z" class="fil7" id="_48924264" fill="#fff"></path><path d="M85.072 35.025a2.171 2.171 0 0 0 2.169-2.17 2.17 2.17 0 0 0-2.169-2.167 2.17 2.17 0 0 0-2.168 2.168 2.17 2.17 0 0 0 2.168 2.169z" class="fil7" id="_48923184" fill="#fff"></path><path d="M81.634 38.522c1.228 0 2.228-1 2.228-2.228 0-1.228-1-2.228-2.228-2.228a2.23 2.23 0 0 0-2.228 2.228c0 1.229 1 2.228 2.228 2.228z" class="fil7" id="_48922072" fill="#fff"></path><path d="M79.063 43.305a2.47 2.47 0 0 0 2.467-2.467 2.47 2.47 0 0 0-2.467-2.466 2.47 2.47 0 0 0-2.467 2.466 2.47 2.47 0 0 0 2.467 2.467z" class="fil7" id="_48920992" fill="#fff"></path><path d="M79.973 46.07c0-1.474-1.2-2.674-2.675-2.674a2.678 2.678 0 0 0-2.676 2.675c0 1.475 1.2 2.675 2.676 2.675 1.475 0 2.675-1.2 2.675-2.675z" class="fil7" id="_48919912" fill="#fff"></path><path d="M76.102 54.725a2.918 2.918 0 0 0 2.914-2.914 2.917 2.917 0 0 0-2.914-2.914 2.917 2.917 0 0 0-2.914 2.914 2.918 2.918 0 0 0 2.914 2.914z" class="fil7" id="_48918296" fill="#fff"></path><path d="M113.641 24.99c0 .868.705 1.573 1.572 1.573.618 0 1.147-.36 1.404-.88.012-.237.07-.462.166-.667l.002-.026c0-.866-.705-1.572-1.572-1.572a1.57 1.57 0 0 0-1.409.887 5.25 5.25 0 0 1-.138.43 1.557 1.557 0 0 0-.026.255z" class="fil7" id="_48917504" fill="#fff"></path><path d="M116.812 25.77c0 .867.705 1.573 1.572 1.573.867 0 1.573-.706 1.573-1.573s-.706-1.572-1.573-1.572-1.572.705-1.572 1.572z" class="fil7" id="_48916424" fill="#fff"></path><path d="M120.132 26.907c0 .915.745 1.66 1.66 1.66.916 0 1.66-.745 1.66-1.66 0-.915-.744-1.66-1.66-1.66-.915 0-1.66.745-1.66 1.66z" class="fil7" id="_48915344" fill="#fff"></path><path d="M123.54 28.401a1.9 1.9 0 0 0 1.897 1.9 1.9 1.9 0 0 0 0-3.799 1.9 1.9 0 0 0-1.897 1.9z" class="fil7" id="_48914264" fill="#fff"></path><path d="M129.137 28.475a1.9 1.9 0 0 0 0 3.799 1.9 1.9 0 0 0 0-3.799z" class="fil7" id="_48913184" fill="#fff"></path><path d="M130.465 32.856c0 1.195.97 2.168 2.164 2.168a2.17 2.17 0 0 0 2.167-2.168 2.17 2.17 0 0 0-2.167-2.168 2.169 2.169 0 0 0-2.164 2.168z" class="fil7" id="_48912104" fill="#fff"></path><path d="M133.837 36.294c0 1.229 1 2.228 2.228 2.228 1.228 0 2.228-1 2.228-2.228 0-1.228-1-2.228-2.228-2.228a2.23 2.23 0 0 0-2.228 2.228z" class="fil7" id="_48911024" fill="#fff"></path><path d="M136.17 40.838a2.47 2.47 0 0 0 2.467 2.467 2.47 2.47 0 0 0 2.467-2.467 2.47 2.47 0 0 0-2.467-2.467 2.47 2.47 0 0 0-2.467 2.467z" class="fil7" id="_48909912" fill="#fff"></path><path d="M143.077 46.07c0-1.474-1.2-2.674-2.675-2.674a2.678 2.678 0 0 0-2.675 2.675c0 1.475 1.2 2.675 2.675 2.675 1.475 0 2.675-1.2 2.675-2.675z" class="fil7" id="_48908832" fill="#fff"></path><path d="M144.512 51.81a2.918 2.918 0 0 0-2.915-2.913 2.917 2.917 0 0 0-2.914 2.913 2.918 2.918 0 0 0 2.914 2.915 2.918 2.918 0 0 0 2.915-2.915z" class="fil7" id="_48907616" fill="#fff"></path><path d="M94.28 61.096a2.631 2.631 0 0 0-2.627-2.628 2.631 2.631 0 0 0-2.628 2.628 2.631 2.631 0 0 0 2.627 2.629c1.45 0 2.629-1.18 2.629-2.628z" class="fil7" id="_48906536" fill="#fff"></path><path d="M90.621 53.252a2.42 2.42 0 0 0-2.418 2.419 2.42 2.42 0 0 0 2.418 2.418 2.42 2.42 0 0 0 2.419-2.418 2.42 2.42 0 0 0-2.419-2.419z" class="fil7" id="_48905456" fill="#fff"></path><path d="M90.397 52.802a2.291 2.291 0 0 0 2.289-2.288 2.291 2.291 0 0 0-2.289-2.289 2.291 2.291 0 0 0-2.289 2.289 2.291 2.291 0 0 0 2.289 2.288z" class="fil7" id="_48904376" fill="#fff"></path><path d="M93.049 45.715a2.16 2.16 0 0 0-2.159-2.158 2.16 2.16 0 0 0-2.158 2.158c0 1.19.968 2.159 2.158 2.159s2.159-.968 2.159-2.159z" class="fil7" id="_48903296" fill="#fff"></path><path d="M92.146 39.292c-1.119 0-2.029.91-2.029 2.029a2.03 2.03 0 0 0 2.029 2.028 2.03 2.03 0 0 0 2.029-2.028c0-1.119-.91-2.029-2.03-2.029z" class="fil7" id="_48902216" fill="#fff"></path><path d="M94.164 35.833a1.857 1.857 0 0 0-1.856 1.856c0 1.023.832 1.855 1.856 1.855a1.858 1.858 0 0 0 1.855-1.855 1.858 1.858 0 0 0-1.855-1.856z" class="fil7" id="_48901136" fill="#fff"></path><path d="M96.496 32.688c-.928 0-1.683.755-1.683 1.682 0 .928.755 1.682 1.683 1.682.927 0 1.682-.754 1.682-1.682 0-.927-.755-1.682-1.682-1.682z" class="fil7" id="_48900056" fill="#fff"></path><path d="M98.962 30.308c-.88 0-1.596.716-1.596 1.596 0 .88.716 1.596 1.596 1.596.88 0 1.596-.716 1.596-1.596 0-.88-.716-1.596-1.596-1.596z" class="fil7" id="_48898976" fill="#fff"></path><path d="M101.563 28.329c-.784 0-1.423.638-1.423 1.422 0 .785.639 1.423 1.423 1.423s1.423-.638 1.423-1.423c0-.784-.639-1.422-1.423-1.422z" class="fil7" id="_48897896" fill="#fff"></path><path d="M104.074 29.159a1.337 1.337 0 1 0-1.336-1.335c0 .736.6 1.335 1.336 1.335z" class="fil7" id="_48896680" fill="#fff"></path><path d="M126.111 63.725c1.45 0 2.628-1.18 2.628-2.628a2.631 2.631 0 0 0-2.628-2.629 2.63 2.63 0 0 0-2.627 2.628 2.63 2.63 0 0 0 2.627 2.629z" class="fil7" id="_48895600" fill="#fff"></path><path d="M127.143 53.252a2.42 2.42 0 0 0-2.418 2.419 2.42 2.42 0 0 0 2.418 2.418 2.42 2.42 0 0 0 2.419-2.418 2.42 2.42 0 0 0-2.419-2.419z" class="fil7" id="_48894520" fill="#fff"></path><path d="M127.367 48.225a2.291 2.291 0 0 0-2.288 2.289 2.29 2.29 0 0 0 2.288 2.288 2.291 2.291 0 0 0 2.29-2.288 2.292 2.292 0 0 0-2.29-2.289z" class="fil7" id="_48893440" fill="#fff"></path><path d="M126.873 47.874c1.19 0 2.159-.969 2.159-2.159s-.969-2.158-2.159-2.158a2.16 2.16 0 0 0-2.158 2.158 2.16 2.16 0 0 0 2.158 2.159z" class="fil7" id="_48892360" fill="#fff"></path><path d="M125.618 43.35c1.119 0 2.03-.91 2.03-2.029a2.032 2.032 0 0 0-2.03-2.029 2.03 2.03 0 0 0-2.028 2.029 2.03 2.03 0 0 0 2.028 2.028z" class="fil7" id="_48891280" fill="#fff"></path><path d="M123.601 39.544a1.858 1.858 0 0 0 1.855-1.855 1.857 1.857 0 0 0-1.855-1.856 1.858 1.858 0 0 0-1.856 1.856c0 1.023.832 1.855 1.856 1.855z" class="fil7" id="_48890200" fill="#fff"></path><path d="M121.269 36.052a1.683 1.683 0 0 0 0-3.364 1.683 1.683 0 0 0 0 3.364z" class="fil7" id="_48872768" fill="#fff"></path><path d="M118.803 33.5c.88 0 1.596-.716 1.596-1.596 0-.88-.716-1.596-1.596-1.596-.88 0-1.596.716-1.596 1.596 0 .88.716 1.595 1.596 1.595z" class="fil7" id="_48872664" fill="#fff"></path><path d="M116.202 31.174c.784 0 1.423-.638 1.423-1.423 0-.784-.639-1.422-1.423-1.422s-1.423.638-1.423 1.422c0 .785.639 1.423 1.423 1.423z" class="fil7" id="_48872336" fill="#fff"></path><path d="M113.691 26.488c-.737 0-1.336.599-1.336 1.335a1.337 1.337 0 0 0 2.672 0c0-.737-.6-1.335-1.336-1.335z" class="fil7" id="_48870872" fill="#fff"></path><path d="M108.769 23.646h4.965c.033-.233.056-.47.056-.712 0-.41-.054-.804-.147-1.185h-3.71v-3.686a5.007 5.007 0 0 0-1.153-.14h-.011a5 5 0 0 0-1.322.186v3.64h-3.53c-.093.38-.147.776-.147 1.185 0 .242.023.479.057.712h4.942z" class="fil2" id="_48876792" fill="#eb8a1b"></path><path d="M108.769 23.85h-4.912a5.016 5.016 0 0 0 4.912 4.094h.011c2.45 0 4.49-1.768 4.923-4.095h-4.934z" class="fil5" id="_48876352" fill="#fff500"></path><path d="M110.138 18.115v3.431h3.454a5.024 5.024 0 0 0-3.454-3.43z" class="fil5" id="_48875560" fill="#fff500"></path><path d="M107.244 18.167a5.027 5.027 0 0 0-3.274 3.379h3.274v-3.38z" class="fil5" id="_48874656" fill="#fff500"></path><path d="M143.287 54.529c-1.048.523-1.513.937-1.518.94l-.057.052-.065-.041c-.012-.007-1.205-.754-2.17-.584-.777.137-1.454.537-1.714.705.326.204 1.447.932 1.873 1.623.32.52.715 1.37.715 2.039 0 .285-.072.537-.251.717-.548.548-1.516.75-2.087.18-.445-.445-1.154-1.926-1.365-2.378-.225.229-.889.927-1.006 1.375-.144.549-.146 1.637-.146 1.648v.098l-3.607.12c-.04.178-.183.836-.183 1.405 0 .212.02.408.076.553l.723 1.444-.072.05c-.008.007-.878.62-1.118 1.113-.208.43-.237 1.487-.242 1.786.243-.05.824-.154 1.48-.154.902 0 1.627.678 1.627 1.238 0 .557-.268 1.386-.866 1.985-.704.703-1.658.808-2.165.808-.04 0-3.899-.025-3.899-2.135 0-1.907.318-2.482.628-2.792.286-.286 1.595-1.128 1.924-1.338-.28-.206-1.332-.94-2.15-.94-.954 0-2.25.554-2.262.56l-.092.039-.041-.09c-.005-.01-.476-1.015-1.528-1.413-.95-.359-2.156-.402-2.446-.408.036.243.118.867.118 1.588 0 .769-.096 1.62-.451 2.16-.671 1.02-1.556 2.09-3.03 2.287-1.49.198-2.743.017-3.625-.523-.982-.602-1.722-1.796-1.722-2.777 0-1.071.564-1.649 1.095-1.649h.094c.558-.003 1.49-.008 1.814.663l.916 1.576c.195-.077 1.064-.449 1.156-1.186l.115-1.978 2.255-1.216c-.09-.212-.479-1.114-.772-1.407l-.931-.788.04-.073a2.59 2.59 0 0 0 .249-1.132c0-.14-.01-.286-.036-.44a3.488 3.488 0 0 0-.614-1.437c-.21.315-1.134 1.568-2.739 1.568-1.707 0-2.344-1.493-2.344-2.434 0-.797.954-2.02 1.44-2.307l2.234-1.18c-.399-.274-1.693-1.097-2.854-1.097l-2.404.092-.024-.072c-.004-.011-.406-1.184-.974-1.992-.512-.728-1.338-1.578-1.52-1.762-.182.184-1.008 1.034-1.52 1.762-.567.808-.97 1.98-.973 1.992l-.03.072-2.398-.092c-1.162 0-2.455.823-2.855 1.097l2.234 1.18c.486.287 1.44 1.51 1.44 2.307 0 .941-.636 2.434-2.344 2.434-1.605 0-2.529-1.253-2.738-1.568a3.49 3.49 0 0 0-.614 1.438 2.66 2.66 0 0 0-.037.439c0 .665.247 1.127.25 1.132l.035.077-.927.784c-.293.293-.683 1.195-.772 1.407l2.206 1.189.05.033.114 1.972c.093.737.961 1.11 1.157 1.186l.916-1.576c.323-.67 1.256-.666 1.813-.664l.094.001c.531 0 1.096.578 1.096 1.649 0 .981-.74 2.175-1.723 2.777-.881.541-2.135.721-3.624.523-1.474-.197-2.36-1.267-3.03-2.287-.355-.54-.452-1.392-.452-2.16 0-.721.082-1.345.118-1.588-.29.006-1.495.05-2.445.408-1.053.398-1.524 1.402-1.529 1.412l-.042.09-.09-.039c-.013-.005-1.309-.56-2.262-.56-.818 0-1.87.735-2.151.941.33.21 1.639 1.052 1.924 1.338.31.31.628.885.628 2.792 0 2.11-3.86 2.135-3.899 2.135-.506 0-1.461-.105-2.164-.808-.599-.598-.867-1.428-.867-1.985 0-.56.725-1.238 1.626-1.238.657 0 1.238.105 1.48.154-.004-.299-.032-1.357-.241-1.786-.24-.493-1.109-1.106-1.118-1.112l-.068-.058.72-1.437a1.66 1.66 0 0 0 .075-.554c0-.568-.142-1.226-.182-1.403l-3.607-.12v-.099c0-.011-.002-1.1-.146-1.648-.118-.448-.781-1.146-1.008-1.375-.21.452-.919 1.933-1.363 2.378-.57.57-1.54.368-2.087-.18-.18-.18-.252-.432-.252-.717 0-.67.396-1.52.715-2.039.426-.691 1.547-1.42 1.873-1.623-.26-.168-.937-.568-1.714-.705-.965-.17-2.158.577-2.17.584l-.065.041-.057-.051c-.005-.004-.47-.418-1.518-.942-.843-.421-1.71-.145-1.987-.036l.236.506c.267.008 1.349.066 1.944.477l1.03.836c.158-.088.8-.428 1.379-.428h1.438l-.258.184c-.01.008-1.08.777-1.378 1.46-.303.693-.483 2.109-.075 2.752.461.73 1.075 1.164 1.64 1.164.704 0 1.456-.242 1.79-.576.36-.36.801-1.564.805-1.577l.088-.24.102.235c.016.04.411.97.411 1.722v.966c.314-.085 1.415-.373 1.894-.373h1.752l-.014.114c-.005.037-.116.895-.321 1.373-.177.411-.803.985-1.025 1.182.15.1.441.319.89.769.673.672.68 1.3.68 1.328v.101h-.1c-.016 0-1.542.01-2.32.83-.3.315-.452.716-.452 1.19 0 .038 0 .076.003.116.108 2.168 2.918 3.424 3.967 3.536.998.106 3.36-.422 4.074-1.567.723-1.161.742-2.845.592-3.488-.15-.644-1.359-2.187-1.37-2.203l-.127-.16.204-.004c.053 0 1.291-.02 1.826.306l.96.596c.093-.208.332-.667.799-1.134.618-.618 1.691-.883 1.737-.894l.132-.032-.007.136c-.024.53-.05 1.992.126 2.39.015.033 1.475 3.274 4.178 3.557 2.434.255 4.543-.396 5.375-1.659.742-1.126.94-2.806.94-3.62 0-.584-.816-1.513-1.782-1.513-.98 0-1.906.213-2.2.508l-1.28 1.182-.053-.142c-.005-.014-.087-.236-.087-.557 0-.164.022-.355.085-.556l.45-1.105-1.183-.245-1.303-.499-.136-.049.927-1.028.757-.714-.181-1.737.18.122c.01.007 1.007.67 2.156.67.873 0 3.366-.481 3.366-2.619 0-2.117-.73-2.746-.954-2.888l-2.115-1.249.248-.057c.054-.013 1.335-.308 2.263-.308.546 0 1.607.226 1.877.285.04-.254.195-1.116.56-1.823.418-.806 1.25-1.897 1.284-1.943l.081-.106.081.106c.035.046.866 1.137 1.284 1.943.366.707.52 1.569.56 1.823.27-.06 1.332-.285 1.878-.285.927 0 2.209.295 2.263.308l.246.057-2.113 1.249c-.224.142-.954.77-.954 2.888 0 2.138 2.492 2.62 3.366 2.62 1.149 0 2.145-.664 2.155-.67l.18-.123-.18 1.737.756.714.828.918.102.107-1.441.551-1.184.245.45 1.105c.063.201.085.392.085.556 0 .321-.082.543-.087.557l-.052.143-1.28-1.183c-.295-.295-1.22-.508-2.2-.508-.967 0-1.783.929-1.783 1.512 0 .815.199 2.495.94 3.621.832 1.263 2.942 1.914 5.376 1.66 2.703-.284 4.163-3.525 4.177-3.558.176-.398.15-1.86.126-2.39l-.006-.136.132.032c.046.011 1.119.276 1.737.894.466.467.705.926.798 1.134l.961-.596c.535-.325 1.773-.307 1.826-.306l.204.003-.126.161c-.012.016-1.222 1.56-1.371 2.203-.15.643-.13 2.327.592 3.488.713 1.145 3.076 1.673 4.074 1.567 1.05-.112 3.858-1.368 3.967-3.536a2.27 2.27 0 0 0 .003-.116c0-.474-.152-.875-.453-1.19-.777-.82-2.303-.83-2.318-.83h-.102v-.101c0-.027.008-.656.68-1.328.45-.45.742-.669.89-.77-.222-.196-.847-.77-1.023-1.18-.206-.48-.317-1.337-.322-1.374l-.015-.114h1.752c.48 0 1.58.288 1.895.373v-.966c0-.752.395-1.682.412-1.722l.1-.236.088.241c.005.013.446 1.217.807 1.577.333.334 1.085.576 1.788.576.566 0 1.18-.435 1.64-1.164.408-.643.229-2.06-.074-2.752-.299-.683-1.367-1.452-1.378-1.46l-.258-.184h1.438c.58 0 1.221.34 1.38.428l1.029-.836c.595-.41 1.675-.469 1.943-.477l.237-.506c-.277-.11-1.144-.385-1.987.036z" class="fil2" id="_48881480" fill="#eb8a1b"></path><path d="M72.342 55.14c.512 1.105 1.515 3.288 1.785 4.026-.365-.999-1.77-3.994-1.784-4.024v-.002z" class="fil6" id="_48881152"></path><path d="M120.498 70.308c1.838-.76 3.385-2.526 3.4-2.544l.107-.123.063.15c.008.02.814 1.922 1.666 3.274.834 1.322 2.847 2.194 4.32 2.344 1.258.129 2.555-.06 4.08-.592 1.172-.409 2.886-1.853 3.998-2.966.155-.155.316-.321.48-.497a1.082 1.082 0 0 1-.36-.638c-.13-.67.14-1.6.7-2.426.828-1.22 1.991-1.829 2.714-1.454.083-.197.168-.394.239-.597l.4-1.652c.223-1.048.5-2.352.916-3.49.32-.878 1.43-3.268 1.72-3.89-.341.017-1.233.091-1.731.435l-1.125.914-.061-.035c-.007-.005-.746-.435-1.338-.435h-.824c.347.277.974.826 1.209 1.36.188.43.328 1.103.328 1.731 0 .467-.077.91-.268 1.212-.507.8-1.168 1.258-1.813 1.258-.625 0-1.496-.2-1.933-.635-.289-.29-.602-1.016-.756-1.402-.117.32-.303.902-.303 1.397v1.232l-.13-.035c-.013-.005-1.449-.4-1.968-.4h-1.518c.034.236.133.84.289 1.203.19.444 1.062 1.189 1.071 1.196l.113.096-.13.071c-.004.001-.336.184-.963.812-.465.465-.58.902-.61 1.088.299.009 1.595.088 2.353.885.339.356.51.803.51 1.33a1.8 1.8 0 0 1-.004.128c-.115 2.288-3.052 3.612-4.15 3.728-1.068.114-3.5-.431-4.267-1.662-.542-.871-.698-1.96-.698-2.758 0-.377.035-.69.08-.884.137-.586.992-1.735 1.281-2.113-.358.007-1.138.046-1.51.273l-1.168.724-.042-.119c-.002-.005-.217-.593-.798-1.173-.473-.473-1.233-.723-1.51-.803.004.14.012.376.012.707 0 .595-.029 1.336-.16 1.635-.061.137-1.524 3.381-4.343 3.676-2.509.263-4.694-.423-5.566-1.748-.769-1.167-.974-2.896-.974-3.734 0-.677.89-1.716 1.985-1.716 1.046 0 2.01.234 2.344.568l1.037.958a1.668 1.668 0 0 0-.04-.825l-.536-1.317 1.417-.292 1.135-.437-.72-.798-.827-.78.149-1.416c-.34.196-1.147.596-2.09.596-1.38 0-3.57-.765-3.57-2.821 0-2.161.734-2.86 1.049-3.061l1.676-.99c-.423-.086-1.297-.248-1.963-.248-.59 0-1.925.299-1.938.302l-.108.024-.015-.11c-.001-.01-.153-1.083-.558-1.864-.352-.68-.995-1.554-1.184-1.806-.188.252-.832 1.127-1.184 1.806-.405.781-.556 1.854-.557 1.865l-.016.11-.108-.025c-.013-.003-1.348-.302-1.937-.302-.666 0-1.541.162-1.964.248l1.677.99c.315.2 1.048.9 1.048 3.06 0 2.057-2.19 2.822-3.57 2.822-.943 0-1.75-.4-2.09-.596l.144 1.367.004.05-.825.78-.72.797 1.135.437 1.296.268.118.03-.534 1.311a1.627 1.627 0 0 0-.04.825l1.038-.958c.333-.334 1.297-.568 2.343-.568 1.096 0 1.985 1.039 1.985 1.716 0 .838-.205 2.567-.973 3.734-.873 1.325-3.058 2.011-5.566 1.748-2.819-.295-4.282-3.539-4.343-3.676-.132-.3-.16-1.04-.16-1.635 0-.331.007-.566.012-.707-.278.08-1.038.33-1.51.803-.58.58-.797 1.168-.799 1.173l-.043.118-1.167-.723c-.372-.227-1.151-.266-1.51-.273.29.378 1.144 1.527 1.281 2.113.045.195.08.507.08.884 0 .799-.155 1.887-.698 2.758-.766 1.23-3.199 1.776-4.267 1.662-1.098-.116-4.035-1.44-4.15-3.728a2.702 2.702 0 0 1-.003-.127c0-.528.171-.975.51-1.33.758-.798 2.054-.877 2.353-.886-.029-.186-.145-.623-.61-1.088-.627-.628-.96-.81-.962-.812l-.131-.07.113-.097c.009-.007.88-.752 1.07-1.196.157-.363.256-.967.291-1.203h-1.52c-.518 0-1.953.395-1.968.4l-.129.035v-1.232c0-.495-.186-1.077-.303-1.397-.154.386-.467 1.112-.756 1.402-.436.436-1.308.635-1.933.635-.645 0-1.306-.459-1.812-1.258-.192-.303-.269-.745-.269-1.212 0-.628.14-1.3.329-1.73.233-.535.861-1.085 1.208-1.361h-.824c-.592 0-1.33.43-1.338.435l-.069.028-1.117-.907c-.499-.344-1.39-.418-1.73-.435.29.622 1.399 3.012 1.72 3.89.415 1.137.692 2.44.914 3.49l.401 1.652c.071.203.156.4.24.597.714-.364 1.9.255 2.713 1.454.56.827.83 1.756.701 2.425a1.08 1.08 0 0 1-.362.639c.165.176.326.342.48.497 1.113 1.113 2.827 2.557 3.998 2.966 1.528.531 2.823.72 4.082.592 1.471-.15 3.485-1.023 4.318-2.344.853-1.353 1.659-3.255 1.667-3.274l.063-.15.107.123c.015.018 1.562 1.785 3.4 2.543 1.858.765 2.902.947 4.464.77 1.593-.18 2.842-.745 4.312-1.95 1.466-1.203 2.856-3.101 2.87-3.12l.083.06.082-.06c.014.019 1.404 1.917 2.87 3.12 1.457 1.195 2.698 1.758 4.27 1.944l.058.008c1.553.173 2.596-.008 4.448-.772zm-11.747-6.83c-1.49 0-2.702-1.905-2.702-4.247 0-2.343 1.212-4.25 2.702-4.25s2.702 1.907 2.702 4.25c0 2.342-1.212 4.247-2.702 4.247z" class="fil5" id="_48868696" fill="#fff500"></path><path d="M78.746 69.256c.176-.12.291-.314.342-.579.119-.618-.138-1.489-.67-2.272-.786-1.159-1.921-1.769-2.529-1.358-.176.12-.291.315-.342.58-.118.619.138 1.49.669 2.273.531.782 1.245 1.343 1.864 1.46.266.051.49.016.666-.104z" class="fil7" id="_48867904" fill="#fff"></path><path d="M141.65 65.047c-.608-.41-1.743.198-2.53 1.357-.531.783-.788 1.654-.67 2.273.052.265.167.46.344.58.176.12.4.154.665.104.619-.118 1.333-.679 1.864-1.462.787-1.16.934-2.44.327-2.851z" class="fil7" id="_48860016" fill="#fff"></path><path d="M111.25 59.23c0-2.23-1.121-4.045-2.5-4.045-1.377 0-2.498 1.815-2.498 4.046 0 2.23 1.12 4.044 2.499 4.044 1.378 0 2.499-1.814 2.499-4.044z" class="fil7" id="_48859672" fill="#fff"></path><path d="M111.489 30.473h-5.297v6.494h5.297v-6.494zm-.437 5.94h-4.423v-5.385h4.423v5.385z" class="fil5" id="_48865216" fill="#fff500"></path><path class="fil4" id="_48865040" fill="#00a13a" d="M111.052 31.027h-4.424v5.386h4.424z"></path><path d="M111.25 38.964h-5.297v6.493h5.297v-6.493zm-4.86 5.94v-5.386h4.423v5.385h-4.424z" class="fil5" id="_48861840" fill="#fff500"></path><path class="fil8" id="_48860840" fill="#da251d" d="M106.389 44.903h4.424v-5.385h-4.424z"></path><path d="M87.03 77.802c.24.238.266 1.71.266 2.333 0 .515-.019 2.216-.265 2.462a4.886 4.886 0 0 1-1.292.841c.01 1.053.015 1.788.015 1.788s-.009.05-.009.123a.8.8 0 0 0 .17.507c.079.095.19.166.32.221-.01-.064-.02-.128-.02-.192 0-2.827 9.916-5.042 22.576-5.042 12.659 0 22.574 2.215 22.574 5.042 0 .06-.01.12-.02.18a.796.796 0 0 0 .3-.209.795.795 0 0 0 .17-.509c0-.08-.01-.136-.01-.148l.014-1.762a4.884 4.884 0 0 1-1.289-.84c-.254-.254-.265-2.102-.265-2.47 0-.62.027-2.088.265-2.325.235-.235.674-.13 1.336.16.004-.35.006-.668.008-.94-.275-.07-7.024-1.819-10.973-2.341l-2.877-.419c-2.814-.43-5.473-.836-9.244-.836s-6.43.406-9.244.836l-2.877.419c-3.94.522-10.667 2.262-10.973 2.342l.008.94c.663-.29 1.102-.396 1.336-.161zm26.478 1.728c-.371.098-1.575.026-2.848-.051l-1.88-.086-1.831.084c-1.24.075-2.522.152-2.896.053-.613-.162-.684-1.33-.684-2.193 0-.564 0-1.416.563-1.979.541-.542.567-.544 1.93-.711l.122-.015a18.937 18.937 0 0 1 2.79-.12 18.913 18.913 0 0 1 2.803.12l.122.015c1.363.167 1.389.17 1.93.711.563.563.563 1.415.563 1.979 0 .864-.07 2.03-.684 2.193zm5.998-3.59.405-.049c.74-.093 1.577-.2 3.298.05 1.84.265 4.08.726 4.309 1.413.231.694.231 1.652.231 2.285 0 .65-.265 1.419-.754 1.565-.42.124-.912-.042-.941-.052h-.001l-2.19-.574c-1.33-.302-3.414-.31-3.704-.31-.254.002-.726.007-1.075-.34-.291-.288-.439-.763-.439-1.41v-.241c-.002-1.542-.002-2.246.861-2.337l-29.463 1.414c.229-.687 2.47-1.149 4.309-1.414 1.721-.249 2.559-.142 3.298-.049l.405.049c.863.09.863.795.86 2.337v.241c0 .647-.147 1.122-.438 1.41-.35.347-.821.342-1.131.34-.233 0-2.318.008-3.647.31l-2.191.574c-.03.01-.522.176-.942.051-.49-.145-.754-.914-.754-1.564 0-.633 0-1.591.23-2.285l29.464-1.414z" class="fil5" id="_48858280" fill="#fff500"></path><path d="M126.053 81.152h-.001z" class="fil5" id="_48855832" fill="#fff500"></path><path d="M88.68 86.96c0-2.273 8.833-4.054 20.111-4.054 11.276 0 20.11 1.78 20.11 4.055 0 .606-.633 1.177-1.767 1.688 2.535-.784 4.028-1.737 4.028-2.764 0-2.668-10.035-4.838-22.37-4.838-12.338 0-22.374 2.17-22.374 4.838 0 1.027 1.492 1.98 4.027 2.764-1.133-.511-1.766-1.082-1.766-1.688z" class="fil5" id="_48854656" fill="#fff500"></path><path d="M108.791 90.813c10.79 0 19.906-1.764 19.906-3.852s-9.116-3.852-19.906-3.852c-10.792 0-19.909 1.764-19.909 3.852s9.117 3.852 19.909 3.852z" class="fil2" id="_48815760" fill="#eb8a1b"></path><path d="M132.131 74.336c-.057-.016-5.848-1.576-10.213-2.166l-2.853-.41c-3.35-.496-6.513-.965-10.284-.965-3.77 0-6.934.47-10.284.965l-2.853.41c-4.366.59-10.156 2.15-10.21 2.165-.657.197-1.323.702-1.223 1.524.038.312.197.582.45.759.265.185.608.246.94.17.07-.019 7-1.822 11.026-2.355l2.872-.418c2.824-.43 5.492-.838 9.282-.838s6.457.407 9.282.838l2.872.418c4.026.533 10.957 2.336 11.023 2.353.334.078.678.017.943-.17.252-.175.412-.445.45-.758.1-.82-.566-1.326-1.22-1.522z" class="fil5" id="_48815160" fill="#fff500"></path><path d="M90.643 80.944c.34.101.773-.046.778-.047l.003-.001 2.215-.582c1.358-.308 3.47-.317 3.766-.316.244.002.612.005.882-.262.238-.236.359-.646.359-1.218v-.241c.002-1.588-.022-2.006-.62-2.069l-.41-.049c-.722-.091-1.54-.195-3.226.049-2.385.344-3.952.816-4.091 1.232-.217.651-.217 1.582-.217 2.2 0 .627.252 1.213.561 1.304zm.733-3.336c.128-.33 1.131-.615 2.982-.845 1.19-.148 1.77-.085 2.281-.029l.282.03c.594.052.593.474.591 1.4v.144c0 .365-.09.639-.266.814-.244.24-.59.238-.815.237-.162 0-1.608.004-2.533.186l-1.52.343c-.013.005-.353.104-.641.03-.339-.086-.522-.55-.522-.94 0-.38 0-.953.161-1.37z" class="fil2" id="_48812784" fill="#eb8a1b"></path><path class="fil3" id="_48811800" fill="none" d="M91.508 81.152h-.001"></path><path d="M91.538 77.67c-.15.387-.15.941-.15 1.308 0 .37.176.717.391.772.242.061.547-.028.55-.03h.002l1.534-.346c.941-.183 2.402-.189 2.607-.189.172.001.46.004.651-.186.143-.142.216-.375.216-.69v-.146c.001-.941-.016-1.19-.434-1.227l-.284-.029c-.502-.055-1.071-.117-2.241.029-1.98.246-2.767.54-2.842.735z" class="fil4" id="_48811008" fill="#00a13a"></path><path d="M118.915 78.277v.241c0 .572.12.982.359 1.219.27.266.638.263.94.26.238 0 2.35.009 3.708.317l2.215.582h.003c.004.003.438.15.778.048.31-.091.56-.677.56-1.305 0-.617 0-1.548-.216-2.2-.138-.415-1.706-.887-4.091-1.231-1.686-.244-2.504-.14-3.226-.049l-.41.05c-.598.062-.622.48-.62 2.068zm1.133-.113c0-.926-.002-1.348.592-1.4l.281-.03c.512-.055 1.09-.12 2.282.03 1.85.23 2.853.514 2.982.844.16.417.16.99.16 1.37 0 .39-.182.853-.52.94-.289.074-.63-.026-.644-.03h.001l-1.52-.343c-.925-.181-2.37-.186-2.572-.186-.186.001-.532.004-.775-.236-.177-.176-.267-.45-.267-.814v-.145z" class="fil2" id="_48808680" fill="#eb8a1b"></path><path class="fil3" id="_48807344" fill="none" d="M126.054 81.152h-.001"></path><path d="M120.222 78.163v.145c0 .316.073.55.216.691.191.19.48.187.692.186.164 0 1.625.006 2.566.19l1.534.346h.001c.004 0 .309.09.55.029.216-.056.391-.402.391-.773 0-.366 0-.92-.15-1.306-.075-.194-.86-.488-2.84-.735-1.171-.146-1.74-.084-2.242-.029l-.284.029c-.418.038-.435.286-.434 1.227z" class="fil4" id="_48852896" fill="#00a13a"></path><path d="M113.922 77.337c0-.52 0-1.304-.484-1.788-.475-.476-.475-.476-1.771-.634l-.123-.015c-1.436-.176-2.745-.12-2.77-.12-.013 0-1.322-.056-2.758.12l-.122.015c-1.296.158-1.296.158-1.772.634-.484.484-.484 1.268-.484 1.788 0 1.491.263 1.874.483 1.932.333.088 1.65.008 2.811-.062l1.848-.085 1.895.088c1.142.068 2.434.146 2.764.059.22-.058.483-.44.483-1.932zm-1.312 1.2c-.341.066-.997.051-2.006-.047l-1.751-.058h-.145l-1.752.058c-1.008.098-1.664.114-2.005.047-.55-.108-.55-1.026-.55-1.328 0-.322 0-.862.463-1.204.434-.32.455-.321 1.551-.42l.099-.01 2.263-.07 2.27.07.098.01c1.096.099 1.117.1 1.552.42.463.342.463.882.463 1.204 0 .302 0 1.22-.55 1.328z" class="fil2" id="_48850472" fill="#eb8a1b"></path><path d="m111.128 75.772-.098-.009-2.253-.07-2.247.07-.098.009c-1.065.096-1.065.096-1.457.385-.386.286-.386.729-.386 1.052 0 .707.134 1.092.398 1.143.318.062.975.045 1.95-.05l1.77-.057h.145l1.77.057c.976.096 1.633.112 1.952.05.264-.051.397-.436.397-1.143 0-.324 0-.766-.386-1.052-.392-.289-.392-.289-1.457-.385z" class="fil8" id="_48846208" fill="#da251d"></path><path d="M84.878 79.01h-.001c.593-.276.974-.399 1.165-.208.172.173.191 1.236.19 1.685 0 .37-.013 1.59-.19 1.766-.156.156-.804.655-1.282.708.075.21.165.342.27.366.484.112 1.511-.593 1.823-.905.263-.326.264-4.147.001-4.444-.195-.194-.996.18-1.338.34l-.004.001c-.006.003-.545.247-.793.78a1.306 1.306 0 0 1 .16-.09z" class="fil2" id="_48847096" fill="#eb8a1b"></path><path d="m85.41 78.09.003-.001" class="fil3" id="_48839392" fill="none"></path><path d="M84.602 82.778c.348.08 1.088-.427 1.312-.651.19-.235.19-2.984.001-3.197-.14-.141-.717.128-.963.243l-.002.001c-.005.002-.495.221-.627.709-.046.171-.067 1.089-.067 1.348 0 .877.139 1.5.346 1.547z" class="fil8" id="_48839016" fill="#da251d"></path><path d="M84.877 79.01h.001" class="fil3" id="_48838672" fill="none"></path><path d="M131.518 82.253c-.172-.172-.19-1.359-.19-1.718 0-.462.014-1.557.19-1.733.192-.19.573-.068 1.165.208h.002c.009.005.072.034.156.088-.246-.532-.786-.776-.792-.779l-.003-.001c-.343-.16-1.145-.534-1.339-.34-.263.297-.262 4.118 0 4.442.313.314 1.34 1.019 1.824.907.104-.024.195-.155.27-.367-.478-.053-1.126-.551-1.283-.707z" class="fil2" id="_48837880" fill="#eb8a1b"></path><path d="m132.148 78.089.003.001-.002-.001z" class="fil6" id="_48826144"></path><path d="m132.611 79.174-.002-.001c-.247-.115-.823-.383-.963-.244-.19.214-.189 2.963 0 3.197.225.225.965.732 1.313.652.207-.048.346-.67.346-1.551 0-.255-.021-1.173-.068-1.344-.131-.488-.62-.706-.626-.709z" class="fil8" id="_48385792" fill="#da251d"></path></g><g id="g4833"><path class="fil1" id="_48844656" fill="#0a0b0c" d="m119.704 123.841-2.944.341-2.93.26-2.914.178-2.897.099-2.88.02-2.859-.057-2.839-.133-2.816-.208-2.793-.283-2.768-.355-2.742-.428-2.714-.498-2.685-.567-2.655-.636-2.623-.703-2.59-.769-2.557-.834-2.52-.898-2.484-.961-2.445-1.022-2.406-1.083-2.364-1.143-2.322-1.2-2.28-1.258-2.233-1.314-2.776-1.736 1.164-.18.474-.078.476-.084.476-.089.477-.096.48-.102.48-.109.481-.117.484-.124.485-.133.487-.14.489-.15.49-.159.494-.169.495-.178.497-.189.5-.2.502-.211.506-.222.507-.235.51-.246.514-.26.516-.272.519-.286.522-.3.526-.314.53-.329.531-.343.536-.36.54-.375.543-.391.717-.534 1.315 1.154 1.209.977 1.264.941 1.322.905 1.38.867 1.44.831 1.497.792 1.56.755 1.62.715 1.682.675 1.745.636 1.809.595 1.874.555 1.939.512 2.005.471 2.072.427 2.14.385 2.208.341 2.278.296 2.348.252 2.419.207 2.49.161 2.563.114 2.637.068 2.71.02 2.785-.028 2.861-.076 2.938-.125 3.014-.175 3.092-.225 3.171-.274 3.368-.338-.012-.029-.22-.494-.236-.497-.253-.499-.268-.501-.286-.503-.301-.506-.318-.508-.334-.51-.352-.513-.649-.909.634-.024.158-.003.157.002.16.007.159.01.161.016.162.02.163.027.163.031.165.038.166.045.166.05.167.058.169.064.169.072.17.08.17.087.171.095.173.103.173.112.174.121.04.029-.015-.176-.021-.227-.023-.222-.025-.219-.027-.215-.028-.212-.031-.208-.033-.205-.036-.202-.037-.199-.04-.198-.043-.195-.046-.192-.047-.192-.051-.189-.054-.189-.057-.187-.06-.186-.063-.186-.066-.185-.07-.185-.073-.186-.077-.185-.08-.186-.085-.186-.088-.188-.092-.189-.096-.19-.1-.191-.105-.193-.106-.189-.079-.123-.079-.111-.077-.097-.073-.081-.07-.068-.066-.052-.063-.04-.06-.029-.059-.02-.059-.01-.064-.003-.072.007-.079.016-.089.028-.099.041-.196.097.046.055.104.2.063.212.021.218-.021.219-.063.212-.104.2-.146.179-.18.146-.199.105-.212.062-.219.021-.219-.021-.212-.062-.199-.105-.179-.146-.147-.179-.104-.2-.063-.212-.021-.219.021-.218.063-.212.104-.2.147-.179.178-.146.035-.018-.134.015.025-.595.081-.303.141-.276.192-.244.233-.211.27-.174.299-.137.323-.095.342-.052.356-.005.364.045.366.1.362.156.351.216.335.279.308.34.138.185.128.182.126.186.121.189.118.193.115.197.111.2.108.204.105.207.101.21.098.214.094.218.092.221.088.224.085.227.083.231.079.233.076.237.073.24.07.243.068.245.064.25.062.251.059.255.056.258.054.26.051.263.048.266.046.269.043.272.038.256.069-.203.077-.204.08-.196.084-.188.089-.18.092-.173.096-.166.099-.159.102-.152.106-.146.109-.139.112-.134.115-.127.118-.122.119-.115.123-.111.124-.105.127-.101.128-.096.13-.092.132-.087.133-.084.546-.325-.051 1.116-.016.622-.003.61.01.599.023.588.035.578.047.566.06.556.072.545.084.535.037.201.15.063.028.012.015.006.014.007.028.013.079.037.136.199-.003-.098.012-.116.025-.116.038-.115.048-.116.06-.119.07-.123.082-.13.095-.134.108-.128.118-.116.127-.105.137-.093.145-.079.153-.065.161-.05.167-.036.173-.019.178-.002.183.014.186.031.19.048.192.066.152.065-.014-.095-.003-.116.012-.116.025-.116.037-.115.049-.116.059-.119.071-.123.082-.13.095-.135.108-.127.117-.116.128-.105.136-.093.146-.079.153-.065.161-.05.167-.036.173-.019.178-.002.183.014.186.031.189.048.193.066.199.085-.01-.063-.003-.116.012-.116.025-.116.038-.116.048-.116.06-.118.07-.123.082-.131.095-.134.108-.127.118-.117.127-.105.136-.092.146-.079.153-.066.161-.05.167-.035.173-.019.178-.003.183.014.186.031.19.049.192.065.245.105-.008-.048-.004-.122.012-.123.027-.124.042-.124.055-.126.069-.129.083-.134.096-.135.107-.128.118-.116.127-.105.137-.093.145-.079.153-.065.161-.05.167-.036.173-.019.179-.002.182.014.186.031.19.048.188.064-.016-.096-.004-.122.011-.123.028-.124.041-.124.056-.126.068-.129.083-.134.096-.135.108-.128.118-.116.127-.105.136-.093.146-.079.153-.065.161-.05.167-.036.173-.019.178-.002.183.014.186.031.19.048.192.066.257.109.134.2.092.132.094.129.097.128.074.094-.016-.093-.019-.154-.01-.154-.004-.155.004-.154.01-.155.019-.154.026-.153.033-.152.04-.151.048-.149.055-.146.063-.145.07-.142.077-.139.085-.136.092-.132.1-.128.107-.125.114-.12.119-.114.125-.106.128-.1.133-.092.135-.085.14-.077.142-.07.144-.063.147-.055.149-.048.15-.041.152-.032.153-.026.154-.019.155-.011.155-.003.154.003.155.011.154.019.153.026.151.032.151.041.149.048.147.055.144.063.142.07.139.077.096.06-.042-.154v-.271l.053-.268.098-.258.138-.237.176-.203.205-.154.224-.102.235-.053.237-.006.233.037.226.075.213.11.191.139.091.078.08.074.076.074.072.075.067.075.063.077.058.077.057.083.115.204.088.22.056.228.018.234-.023.233-.069.229-.118.215-.17.193-.22.16-.254.118-.271.077-.277.032-.274-.022-.18-.066.018.036.063.145.055.147.048.148.04.151.033.152.026.153.018.154.012.155.003.155-.003.154-.012.155-.018.154-.026.153-.033.151-.04.151-.048.149-.055.147-.063.144-.07.142-.077.139-.085.136-.092.133-.1.128-.106.124-.114.121-.121.114-.124.106-.128.1-.133.092-.136.084-.138.078-.142.07-.145.062-.147.056-.149.047-.15.041-.152.033-.153.026-.154.018-.155.011-.154.004-.155-.004-.124-.009.016.037.037.125.021.134.005.141-.012.147-.027.154-.044.167-.059.157-.08.151-.099.14-.115.127-.132.114-.145.099-.159.083-.171.067-.181.048-.191.028-.198.009-.205-.013-.211-.035-.214-.058-.217-.081-.196-.095.041.116.029.141.01.15-.009.157-.028.165-.046.178-.059.158-.081.151-.098.14-.116.127-.132.114-.145.099-.159.084-.171.066-.181.048-.191.028-.198.009-.205-.013-.21-.035-.214-.058-.218-.081-.23-.111-.135-.099.016.034.032.256-.041.279-.104.315-.079.174-.095.164-.11.154-.125.144-.139.131-.153.116-.166.101-.177.084-.189.064-.199.044-.206.021-.214-.003-.219-.029-.223-.054-.225-.082-.178-.085.008.059-.041.28-.105.318-.088.178-.112.16-.134.137-.153.115-.168.092-.179.068-.19.048-.198.027-.204.007-.21-.01-.214-.028-.218-.046-.221-.062-.221-.079-.222-.095-.187-.094.145.159.105.218.032.256-.041.28-.105.318-.087.178-.113.16-.134.138-.152.114-.169.092-.179.068-.19.048-.197.027-.205.007-.21-.01-.214-.028-.218-.046-.22-.062-.222-.079-.221-.095-.208-.105.013.028.032.255-.041.28-.105.316-.067.143-.082.13-.096.117-.108.104-.12.089-.129.075-.137.061-.143.048-.15.034-.154.022-.158.01h-.162l-.165-.013-.168-.022-.077-.016.127.234.237.403.247.394.258.383.27.375.281.365.291.356.303.347.314.337.324.329.871.831-.912-.077-.179-.019-.18-.023-.179-.026-.18-.03-.179-.034-.179-.038-.179-.042-.18-.045-.179-.049-.179-.053-.178-.056-.18-.061-.178-.063-.179-.068-.178-.071-.179-.076-.178-.079-.178-.082-.178-.086-.179-.09-.178-.094-.025-.014.022.286.019.231.021.227.023.222.025.219.026.215.029.211.031.208.033.205.035.203.038.199.04.197.043.195.045.193.048.191.051.19.054.189.057.187.059.186.064.186.066.185.07.185.073.185.077.186.08.186.084.186.088.188.093.188.096.19.1.192.105.193.106.189.079.123.079.111.076.097.074.081.069.068.067.052.063.041.06.028.058.019.06.011.064.002.072-.006.079-.016.089-.028.099-.041.196-.096-.046-.056-.104-.2-.063-.212-.021-.218.021-.219.063-.212.105-.2.146-.179.178-.146.2-.105.212-.063.219-.02.218.02.213.063.199.105.179.146.146.179.105.2.063.212.021.219-.021.218-.063.212-.104.2-.146.179-.18.146-.036.019.137-.015-.026.594-.081.303-.141.275-.192.246-.234.21-.269.174-.299.137-.324.095-.342.052-.356.005-.364-.046-.365-.099-.362-.156-.352-.216-.334-.279-.307-.339-.139-.186-.129-.182-.125-.186-.122-.189-.118-.193-.114-.197-.112-.2-.107-.204-.105-.207-.101-.211-.098-.214-.095-.217-.091-.221-.089-.224-.085-.227-.082-.231-.079-.233-.076-.237-.073-.24-.07-.243-.068-.246-.064-.249-.063-.252-.058-.254-.057-.258-.053-.26-.051-.264-.048-.266-.046-.269-.043-.271-.041-.274-.044-.314.025-.147.055-.32.013-.078-.019.04-.097.196-.1.195-.103.192-.106.19-.108.188-.11.185-.113.182-.116.18-.117.176-.12.174-.122.171-.123.167-.126.164-.127.161-.13.157-.131.154-.132.15-.135.146-.135.142-.137.138-.138.134-.139.13-.141.126-.142.121-.143.116-.723.565.278-1.174.093-.453.079-.453.065-.456.051-.457.037-.459.023-.461.008-.463-.007-.465-.021-.466-.009-.112-.013.25-3.176.907-2.995.768-2.987.68-2.979.594-2.968.508z"></path><path d="M137.517 119.761c-31.967 9.592-63.104 3.888-86.119-10.958 5.067-.757 10.314-2.325 16.205-6.79 12.09 11.06 33.542 16.102 68.68 12.346.824 1.726 1.354 3.505 1.234 5.402z" id="_48844328" fill="#fff"></path><path d="M162.73 102.616a2.972 2.972 0 0 0-4.195 0 2.972 2.972 0 0 0 0 4.195 2.972 2.972 0 0 0 4.195 0 2.972 2.972 0 0 0 0-4.195zm-16.17 24.546a.885.885 0 0 0 1.25 0 .885.885 0 0 0 0-1.25.885.885 0 0 0-1.25 0 .885.885 0 0 0 0 1.25zm-5.084-7.834-.291 1.708c.392 2.938 1.19 5.424 2.583 7.25 1.472 1.862 3.972.945 3.875-.5-.444.07-.889-.027-1.333-.291-.677.36-1.073.166-1.542-.584-1.204-2.123-1.65-3.899-1.833-6.458l-1.459-1.125zm-7.688-16.105a.885.885 0 0 0-1.25 0 .886.886 0 0 0 0 1.25.886.886 0 0 0 1.25 0 .885.885 0 0 0 0-1.25zm5.083 7.834.292-1.709c-.392-2.937-1.19-5.423-2.583-7.25-1.473-1.86-3.973-.944-3.875.5.444-.069.888.028 1.333.292.677-.361 1.072-.166 1.542.584 1.203 2.123 1.65 3.899 1.833 6.458l1.458 1.125zm-5.238-2.196c4.05 5.55 5.208 10.73 3.972 15.607 1.484-1.126 2.864-3.073 3.667-5.25-.722-2.585-1.68-4.875-2.402-7.46-1.96-2.491-3.638-2.975-5.237-2.897zm10.533 8.134c.848.24 1.616.07 1.868-.567.331-.834-.032-.922-.637-1.346-1.24-.87-2.095-1.74-2.67-2.609a2.854 2.854 0 0 0-.104-.045c.33 1.678.848 3.197 1.543 4.567zm-2.159-10.91c-.376 6.86 1.472 11.836 5.163 15.254-1.858-.137-3.716-.9-5.573-2.288l-2.406-7.686c.288-3.156 1.432-4.475 2.816-5.28zm12.848.7c.852.917 1.756 1.628 3.021 2.545 1.067.574 2.013.124 2.227-.58.12-.399.077-.66-.063-.867a3.205 3.205 0 0 1-1.69-.887 3.203 3.203 0 0 1-.738-1.148 8.174 8.174 0 0 1-.818-1.053c-.956-.449-1.75-.167-2.181.494-.433.665-.252.964.242 1.496zm-11.182 6.39c.732.917 1.533 1.319 2.815 2.235 1.098.596 2.264.544 2.587-.27.33-.834-.033-.923-.637-1.346-1.241-.87-2.096-1.74-2.671-2.61-.957-.448-1.751-.166-2.182.495-.433.664-.365.928.088 1.496zm2.783-1.649c.732.917 1.533 1.319 2.815 2.235 1.097.596 2.263.544 2.587-.27.33-.834-.033-.923-.638-1.346-1.24-.87-2.095-1.74-2.67-2.61-.957-.448-1.752-.166-2.182.495-.434.665-.366.928.088 1.496zm5.823-3.092c.852.917 1.755 1.628 3.02 2.545 1.068.574 2.014.124 2.227-.58.26-.859-.239-1.077-.843-1.501-1.241-.87-1.89-1.585-2.465-2.454-.957-.449-1.751-.167-2.182.494-.433.664-.252.964.243 1.496zm-2.99 1.495c.733.917 1.74 1.833 3.022 2.75 1.098.596 2.058.029 2.38-.786.332-.834-.032-.922-.636-1.346-1.241-.87-2.096-1.74-2.671-2.609-.957-.448-1.751-.166-2.182.495-.433.664-.366.928.088 1.496zm13.621-7.709c.316.084.484.266.505.547.04.554 1.017.435 1.425.059.408-.376.361-.961.058-1.426a2.568 2.568 0 0 0-.504-.547c-.425-.357-1.017-.434-1.425-.058-.408.376-.595 1.282-.059 1.425z" id="_48837024" fill="#ea952f"></path><path d="m162.455 102.892-.096-.091-.1-.086-.102-.08-.106-.073-.108-.067-.11-.062-.114-.056-.115-.05-.118-.044-.118-.038-.12-.032-.122-.027-.123-.02-.123-.015-.123-.009-.124-.003-.124.003-.124.009-.123.015-.123.02-.122.027-.12.032-.118.038-.117.045-.116.05-.113.055-.11.061-.109.068-.105.074-.103.08-.1.084-.095.092-.092.096-.085.1-.08.102-.073.106-.068.108-.06.11-.057.113-.05.116-.044.117-.038.119-.032.12-.027.121-.02.123-.015.123-.009.124-.003.124.003.124.009.123.015.123.02.123.027.122.032.12.038.118.045.118.05.115.055.113.062.11.067.11.074.105.08.102.084.1.092.096.096.091.1.085.102.08.105.073.108.068.111.061.113.056.116.05.117.044.119.038.12.033.121.026.123.02.123.016.124.009.124.003.123-.003.124-.01.123-.014.123-.021.121-.026.12-.033.12-.038.117-.044.115-.05.113-.056.11-.061.11-.068.105-.073.102-.08.1-.085.096-.091.09-.096.086-.1.08-.102.073-.105.067-.11.062-.11.056-.113.05-.115.044-.117.038-.12.032-.12.027-.12.02-.124.015-.123.01-.124.002-.123-.003-.124-.009-.124-.014-.123-.021-.123-.027-.121-.032-.12-.038-.12-.044-.116-.05-.115-.056-.114-.062-.11-.067-.109-.073-.105-.08-.103-.085-.1-.091-.095zm-15.618 23.993.077.063.085.045.092.027.094.009.094-.009.092-.027.085-.045.077-.063.063-.077.045-.085.027-.092.009-.094-.009-.094-.027-.092-.044-.085-.064-.077-.077-.063-.085-.045-.091-.027-.095-.009-.095.01-.09.026-.085.045-.078.063-.063.077-.045.085-.027.091-.009.095.01.095.026.09.045.086.063.077zm-4.443-2.158.075.224.079.22.081.218.084.213.088.21.09.207.092.203.096.2.1.196.1.192.106.189.107.184.111.181.114.178.117.173.12.17.116.155.256.282.263.22.272.167.276.12.277.074.274.035.267-.004.255-.039.236-.07.215-.097.186-.12.153-.139.118-.15.067-.13-.09-.008-.201-.034-.2-.053-.197-.07-.194-.089-.006-.003-.096.04-.147.045-.148.031-.15.013-.15-.006-.148-.026-.142-.046-.134-.065-.125-.08-.117-.093-.109-.104-.103-.115-.098-.125-.097-.136-.098-.152-.119-.212-.109-.2-.104-.2-.1-.198-.097-.197-.092-.196-.089-.196-.084-.195-.08-.196-.078-.195-.073-.195-.07-.195-.067-.196-.063-.196-.06-.198-.056-.198-.054-.2-.05-.201-.048-.203-.045-.204-.042-.206-.04-.21-.036-.21-.034-.213-.033-.216-.03-.22-.027-.221-.025-.226-.024-.229-.021-.232-.02-.237-.005-.066-.137-.105-.09-.07-.092-.071-.091-.07-.091-.07-.091-.07-.091-.071-.092-.07-.034-.027-.019.109-.018.107-.054.32-.018.107-.055.32-.008.048.03.213.039.267.042.264.045.262.047.259.05.256.051.252.055.25.057.247.06.244.062.24.065.238.068.233.07.231.073.228zm-8.882-21.226-.078-.064-.085-.044-.091-.027-.095-.01-.094.01-.091.027-.085.044-.078.064-.063.077-.045.085-.027.091-.009.095.01.095.026.09.045.086.063.077.077.063.086.045.09.027.095.009.095-.01.091-.026.085-.045.078-.063.062-.077.045-.085.027-.092.01-.094-.01-.095-.027-.09-.045-.086-.062-.077zm3.852.662-.095-.2-.1-.195-.1-.192-.106-.189-.108-.185-.11-.18-.114-.178-.117-.173-.12-.17-.115-.154-.257-.283-.263-.22-.272-.168-.276-.119-.277-.075-.274-.034-.267.004-.254.039-.238.07-.214.097-.185.12-.154.139-.118.15-.066.13.09.008.201.034.2.053.197.071.194.088.006.003.095-.039.147-.046.148-.03.15-.014.15.006.148.026.143.047.133.064.125.08.117.093.109.104.103.115.099.126.096.135.099.152.118.212.109.2.104.2.1.198.097.197.092.197.089.195.084.196.081.195.077.195.073.195.07.195.067.196.063.197.06.197.057.199.053.2.05.2.048.202.045.205.042.206.04.209.036.21.035.214.032.216.03.22.027.221.026.226.023.229.022.233.02.236.005.066.045.035.09.07.092.07.09.071.092.07.091.07.091.071.091.07.092.07.034.027.037-.215.018-.108.118-.688-.03-.212-.04-.268-.042-.264-.045-.262-.047-.259-.05-.256-.051-.253-.055-.25-.057-.246-.06-.244-.062-.24-.065-.237-.068-.235-.07-.23-.073-.227-.076-.224-.079-.221-.081-.217-.084-.214-.087-.21-.09-.207-.093-.203zm.978 18.511-.068.476-.043.245.049-.049.127-.133.125-.137.125-.141.124-.145.122-.148.12-.153.12-.155.117-.159.115-.161.114-.165.111-.168.11-.17.107-.174.106-.176.103-.179.1-.18.098-.184.095-.185.093-.188.09-.19.087-.19.084-.193.081-.195.078-.196.03-.08-.033-.116-.069-.237-.07-.237-.071-.235-.073-.233-.073-.233-.075-.232-.075-.23-.076-.23-.076-.23-.077-.23-.078-.229-.078-.228-.08-.232-.155-.453-.08-.23-.078-.228-.079-.23-.078-.23-.078-.23-.078-.23-.077-.233-.077-.233-.076-.234-.076-.235-.074-.236-.074-.238-.072-.239-.072-.24-.07-.243-.047-.167-.131-.163-.176-.21-.174-.198-.172-.187-.17-.176-.168-.166-.166-.156-.164-.145-.163-.136-.16-.127-.159-.117-.157-.109-.155-.1-.154-.092-.152-.085-.15-.077-.15-.07-.148-.062-.146-.057-.146-.05-.145-.044-.143-.038-.143-.033-.143-.028-.142-.023-.141-.018-.103-.01.286.418.342.521.325.52.309.518.292.516.276.515.26.513.243.51.226.51.21.507.196.506.178.504.163.503.146.5.131.5.115.497.1.496.083.494.069.492.052.49.038.488.022.487.007.485-.008.483-.024.482-.038.479-.053.477zm5.534-7.286.053.135.054.133.055.133.056.132.057.13.058.13.059.13.06.128.06.128.047.093.109.021.129.018.123.01h.117l.11-.007.102-.015.093-.022.085-.028.075-.033.067-.04.059-.043.05-.048.046-.055.04-.063.032-.07.075-.226.02-.138-.008-.061-.018-.038-.056-.062-.116-.091-.176-.119-.218-.148-.235-.168-.226-.168-.216-.167-.208-.168-.2-.169-.192-.169-.184-.169-.175-.169-.166-.168.03.107.043.143.043.143.045.142.045.14.047.14.048.14.049.138.05.137.05.136.052.135zm-4.155-5.053-.042.25-.038.261-.033.272-.021.207.051.164.226.72.075.24.225.722.076.24.225.72.075.24.15.48.076.241.075.24.225.72.076.24.225.721.075.24.451 1.442.037.118.07.052.17.121.169.118.17.114.17.11.168.107.17.103.168.1.17.096.168.093.168.088.169.085.168.082.168.078.168.074.167.07.168.067.167.064.168.06.167.056.167.053.167.049.167.046.167.042.166.038.032.007-.175-.188-.316-.362-.304-.372-.293-.38-.282-.392-.27-.4-.258-.411-.246-.42-.235-.43-.223-.44-.21-.45-.199-.46-.186-.47-.174-.48-.162-.49-.15-.5-.137-.51-.125-.52-.112-.53-.1-.541-.086-.55-.074-.562-.062-.57-.048-.583-.037-.592-.022-.602-.01-.614.003-.623.012-.506-.08.064-.11.092-.106.097-.105.1-.102.106-.1.11-.096.116-.095.122-.093.127-.09.133-.087.14-.084.146-.082.154-.079.16-.075.17-.073.176-.069.185-.066.193-.062.203-.059.211-.054.221-.051.23-.047.241zm16.219-3.026.169.15.173.15.177.15.183.148.189.151.194.152.201.155.208.157.216.16.223.164.205.149.15.073.161.06.154.041.146.025.137.008.13-.004.121-.019.112-.03.103-.04.093-.048.084-.057.074-.063.062-.07.052-.074.042-.078.032-.086.029-.108.017-.097.006-.08-.002-.065-.008-.053-.002-.005-.06-.014-.129-.037-.127-.04-.125-.046-.124-.05-.123-.055-.12-.06-.12-.065-.117-.07-.115-.073-.112-.079-.11-.084-.108-.088-.105-.093-.102-.1-.135-.142-.127-.15-.118-.155-.108-.159-.1-.164-.089-.169-.08-.171-.04-.101-.072-.08-.117-.135-.111-.135-.108-.137-.104-.138-.1-.14-.1-.14-.03-.045-.058-.025-.145-.05-.138-.035-.13-.022-.125-.01-.118.002-.11.013-.106.022-.1.031-.095.04-.09.05-.086.058-.08.066-.077.076-.072.084-.067.096-.062.1-.047.088-.034.076-.02.064-.012.052-.004.042v.035l.007.036.011.04.02.044.03.054.04.061.051.07.064.077.074.085.084.092.156.164.157.16.16.158.161.154.165.152zm-11.834 5.778.13.144.132.135.137.13.14.124.146.12.153.12.16.119.168.12.176.123.197.134.39.265.215.148.227.157.212.15.17.086.184.079.182.064.178.051.172.036.164.021.155.008.144-.005.131-.018.118-.029.103-.04.088-.047.074-.056.064-.065.053-.075.045-.093.073-.222.02-.138-.008-.061-.018-.038-.055-.062-.117-.091-.175-.119-.218-.148-.236-.168-.225-.168-.217-.167-.208-.168-.2-.169-.192-.169-.183-.169-.176-.169-.168-.17-.16-.17-.153-.17-.145-.17-.139-.171-.13-.172-.125-.171-.05-.073-.06-.026-.144-.05-.139-.034-.13-.022-.125-.01-.118.002-.11.012-.106.022-.1.032-.095.04-.09.049-.086.058-.08.067-.077.075-.072.085-.068.097-.066.104-.054.095-.042.083-.03.07-.019.06-.01.047-.004.04v.034l.006.035.01.04.02.047.028.057.04.066.051.077.063.086.074.094.129.155zm2.782-1.65.13.144.133.136.136.13.14.123.147.121.153.12.16.119.168.12.176.123.196.134.39.265.216.148.227.157.212.15.17.086.184.079.182.064.178.05.172.037.164.021.155.008.144-.005.131-.018.118-.029.102-.04.088-.047.075-.056.063-.065.053-.075.045-.093.074-.222.02-.138-.008-.061-.018-.038-.056-.062-.116-.091-.175-.119-.219-.148-.235-.168-.225-.168-.217-.167-.208-.168-.2-.169-.192-.169-.183-.169-.176-.169-.168-.17-.16-.17-.153-.17-.146-.17-.138-.171-.131-.172-.124-.171-.05-.074-.06-.025-.145-.05-.138-.034-.13-.022-.125-.01-.118.002-.111.012-.105.022-.1.032-.096.04-.09.049-.085.058-.081.067-.076.075-.072.085-.069.097-.065.104-.055.095-.041.083-.03.07-.02.06-.01.047-.003.04v.034l.006.035.01.04.02.047.028.057.04.066.051.077.063.086.073.094.13.155zm5.676-3.267.156.164.157.16.16.158.161.154.165.152.17.15.172.15.178.15.182.148.189.151.194.152.202.155.207.157.216.16.224.164.204.149.15.073.162.06.153.041.146.024.138.01.13-.006.12-.018.113-.03.102-.04.094-.048.083-.057.074-.063.062-.07.053-.074.041-.078.033-.086.03-.116.017-.103.005-.083-.004-.066-.011-.053-.016-.046-.023-.044-.032-.046-.043-.049-.055-.053-.067-.057-.08-.06-.09-.065-.101-.069-.11-.074-.115-.08-.232-.165-.218-.163-.207-.16-.196-.159-.185-.158-.175-.156-.166-.156-.157-.156-.15-.156-.142-.157-.135-.158-.13-.159-.124-.16-.12-.163-.116-.164-.047-.07-.058-.025-.145-.049-.138-.035-.132-.022-.124-.01-.118.002-.11.012-.106.022-.1.032-.095.04-.09.05-.086.057-.08.067-.077.076-.071.084-.068.096-.061.099-.048.09-.033.075-.022.064-.011.051-.004.042v.036l.007.036.012.04.019.044.03.053.04.062.052.07.063.076.074.085.085.092zm-2.97 1.516.136.165.14.166.149.165.154.167.161.166.168.167.174.167.18.168.188.167.194.168.2.168.207.168.213.169.22.168.227.169.207.15.154.074.162.059.154.038.147.019.139.002.132-.014.126-.027.12-.041.113-.053.107-.065.1-.077.091-.086.083-.095.074-.103.063-.11.052-.113.075-.228.02-.138-.008-.061-.018-.038-.056-.062-.116-.091-.175-.119-.219-.148-.235-.168-.225-.168-.217-.167-.208-.168-.2-.169-.192-.169-.183-.169-.176-.169-.168-.17-.16-.17-.153-.17-.145-.17-.139-.171-.13-.172-.125-.171-.05-.074-.06-.025-.145-.05-.138-.034-.13-.022-.125-.01-.118.002-.11.012-.106.022-.1.031-.095.04-.09.05-.086.058-.08.067-.077.075-.072.085-.069.097-.065.103-.055.096-.041.083-.03.07-.019.06-.01.047-.004.04v.034l.006.035.01.04.02.047.028.057.04.066.051.077.063.086.075.095z" id="_48805224" fill="#f2b004"></path><path class="fil12" id="_48725832" fill="#f9d000" d="m153.713 111.961.063-.059.058-.066.052-.073.044-.077.036-.077.048-.147-.018-.014-.164-.111-.222-.15-.242-.174-.232-.172-.222-.172-.215-.173-.206-.174-.198-.175-.19-.175-.182-.175-.175-.176-.167-.178-.159-.177-.152-.178-.145-.179-.137-.18-.114-.157-.063-.021-.107-.027-.099-.017-.089-.007-.081.001-.074.009-.068.014-.065.02-.059.025-.057.031-.055.038-.053.044-.052.051-.049.058-.054.075-.055.088-.045.079-.031.061-.018.044-.004.013.011.023.027.046.041.061.055.074.069.088.129.158.136.159.143.16.149.161.156.16.162.162.169.162.176.163.182.163.189.164.196.164.202.165.209.165.216.165.222.166.177.128.105.051.124.044.112.028.103.013.095.001.088-.008.082-.019.078-.026.075-.035.072-.044z"></path><path class="fil12" id="_48723664" fill="#f9d000" d="m156.554 110.402.054-.028.047-.032.038-.033.031-.033.024-.035.019-.035.016-.043.02-.079.011-.065.002-.039-.001-.012-.002-.005-.018-.02-.033-.032-.05-.042-.068-.051-.082-.059-.097-.067-.11-.074-.12-.082-.237-.17-.225-.167-.213-.166-.202-.164-.193-.163-.182-.163-.173-.163-.165-.163-.156-.164-.149-.164-.143-.166-.136-.167-.13-.168-.125-.169-.099-.142-.062-.021-.107-.027-.098-.016-.09-.007-.081.001-.074.008-.068.014-.064.021-.06.025-.057.031-.055.037-.053.044-.052.051-.049.059-.051.071-.048.079-.035.065-.021.047-.004.013.006.011.025.039.04.053.053.065.068.077.079.087.151.16.153.155.154.152.157.15.161.148.164.146.169.146.173.146.179.146.185.148.192.15.198.152.206.155.213.159.222.163.176.128.103.05.127.047.116.032.108.018.098.006.088-.004.08-.012.07-.019z"></path><path class="fil12" id="_48722032" fill="#f9d000" d="m151.077 113.283.02-.021.018-.025.02-.041.045-.136-.018-.014-.164-.111-.222-.151-.243-.173-.231-.172-.223-.173-.214-.173-.206-.174-.198-.174-.19-.175-.182-.175-.175-.177-.167-.177-.159-.178-.152-.177-.145-.179-.137-.18-.114-.157-.063-.022-.108-.027-.098-.016-.089-.007-.082.001-.074.008-.068.014-.064.021-.06.025-.056.031-.055.037-.054.044-.051.051-.05.059-.053.075-.055.087-.045.079-.031.061-.018.045-.005.012.012.023.027.046.041.061.055.075.066.085.12.144.12.132.122.125.126.12.13.115.138.113.145.113.154.115.162.116.173.121.195.133.389.265.218.149.229.159.19.134.133.067.162.07.158.056.153.043.144.03.134.018.123.006.107-.004.091-.013.075-.018.056-.022.04-.021z"></path><path class="fil12" id="_48718736" fill="#f9d000" d="m148.294 114.932.021-.021.017-.025.02-.041.045-.136-.018-.014-.164-.111-.222-.151-.242-.173-.232-.172-.222-.173-.215-.173-.206-.174-.198-.174-.19-.175-.182-.175-.175-.177-.167-.177-.159-.178-.152-.177-.145-.179-.137-.18-.114-.157-.063-.022-.107-.027-.099-.016-.089-.007-.081.001-.074.008-.068.014-.064.021-.06.025-.057.031-.055.037-.053.044-.052.051-.049.059-.054.075-.055.087-.045.079-.031.061-.018.045-.004.012.011.023.027.046.042.061.055.075.066.085.12.144.119.132.122.125.126.12.131.115.137.113.145.113.154.115.162.116.174.121.194.133.39.265.217.149.229.159.19.134.133.067.162.07.159.056.152.043.144.03.134.018.123.006.107-.004.091-.013.075-.018.056-.022.04-.021z"></path><path class="fil12" id="_48715264" fill="#f9d000" d="m159.19 108.45-.137-.055-.136-.062-.134-.066-.132-.072-.13-.077-.127-.082-.125-.087-.122-.093-.119-.098-.116-.103-.115-.111-.148-.157-.141-.165-.13-.172-.12-.176-.11-.183-.1-.186-.088-.191-.019-.046-.029-.032-.122-.142-.117-.142-.112-.143-.109-.144-.105-.145-.064-.092-.061-.021-.108-.027-.098-.016-.089-.007-.082.001-.073.008-.069.014-.064.021-.06.025-.056.031-.055.037-.054.044-.051.051-.05.059-.051.071-.048.079-.035.065-.02.047-.005.013.006.011.026.039.039.053.054.065.067.077.08.087.151.16.152.155.155.152.157.15.16.147.165.147.168.146.174.146.179.146.185.148.191.15.199.152.205.155.214.159.222.163.175.128.104.05.126.047.117.032.108.018.097.006.089-.004.079-.012.071-.019.062-.024.054-.028.046-.032.039-.033.03-.034.025-.034.018-.035.017-.044v-.002l-.031-.01z"></path><path class="fil12" id="_48712048" fill="#f9d000" d="m144.1 118.903-.264-.421-.253-.431-.24-.44-.228-.451-.216-.461-.203-.47-.191-.481-.177-.49-.166-.501-.153-.51-.14-.521-.127-.53-.114-.541-.101-.55-.089-.561-.075-.57-.063-.581-.049-.591-.037-.601-.023-.611-.01-.621.001-.192-.08.101-.084.116-.082.122-.08.128-.078.135-.075.142-.073.149-.071.157-.068.165-.064.174-.062.182-.059.192-.056.201-.053.211-.048.221-.045.231-.041.241-.036.253-.032.263-.013.124.028.087.225.721.075.24.226.721.075.24.225.721.076.24.15.48.075.24.075.24.226.721.075.24.225.721.076.24.449 1.437.131.094.165.114.165.111.164.107.165.104.163.1.164.097.164.093.163.089.162.085.163.083.163.078.161.076.162.071.161.068.161.064.072.028-.246-.321-.289-.401z"></path><path class="fil12" id="_48710800" fill="#f9d000" d="m144.713 116.311.098.007.09.001.081-.006.071-.01.06-.014.049-.016.039-.017.029-.017.022-.016.016-.016.015-.018.014-.022.013-.028.047-.142-.018-.014-.164-.111-.222-.151-.243-.173-.231-.172-.223-.172-.049-.04.031.083.052.131.053.13.054.13.054.128.056.128.056.127.058.126.058.125.018.037z"></path><path class="fil12" id="_48709000" fill="#f9d000" d="m138.862 114.36-.077-.233-.077-.234-.077-.235-.076-.237-.075-.239-.074-.239-.074-.241-.072-.243-.071-.245-.026-.092-.078-.098-.171-.203-.168-.192-.166-.181-.163-.169-.161-.159-.159-.148-.155-.139-.154-.128-.152-.12-.149-.11-.146-.101-.145-.094-.143-.085-.141-.079-.138-.07-.137-.064-.135-.058-.134-.051-.122-.042.106.16.329.528.313.525.297.524.28.522.264.522.247.519.231.519.214.516.199.516.182.514.166.513.15.511.133.51.118.509.101.506.086.506.07.504.054.502.039.5.022.499.007.497-.008.496-.024.493-.034.413.043-.055.113-.154.112-.156.11-.16.108-.162.106-.166.105-.168.101-.171.101-.173.097-.176.095-.177.092-.18.09-.182.088-.184.084-.185.082-.187.078-.189.059-.148-.065-.225-.07-.234-.071-.233-.072-.232-.072-.23-.074-.23-.075-.23-.075-.229-.077-.228-.076-.229-.078-.228-.078-.228-.079-.231-.156-.453-.079-.229-.079-.229-.078-.23-.079-.23-.078-.231z"></path><path class="fil12" id="_48707200" fill="#f9d000" d="m136.03 102.751.107.151.11.169.126.225.111.206.107.204.103.203.099.202.094.202.091.201.087.201.083.201.08.201.075.2.073.202.068.202.065.202.062.204.059.205.055.206.052.206.049.208.046.211.043.211.04.214.038.216.035.219.033.221.03.223.028.226.026.23.024.233.022.236.011.134.091.07.068.053.054-.313-.021-.151-.039-.263-.042-.261-.044-.258-.046-.254-.048-.251-.052-.249-.053-.245-.056-.242-.059-.238-.061-.236-.063-.232-.067-.229-.068-.225-.071-.221-.074-.218-.077-.215-.079-.211-.082-.208-.084-.204-.088-.2-.09-.197-.092-.193-.095-.189-.098-.185-.101-.181-.104-.179-.106-.173-.11-.17-.112-.167-.115-.162-.1-.135-.226-.249-.221-.185-.224-.138-.225-.096-.224-.061-.22-.028-.213.003-.202.031-.185.055-.111.05.071.025.067.031.131-.042.189-.038.196-.018.202.008.202.036.192.063.178.085.163.104.146.116.133.127.12.135z"></path><path class="fil12" id="_48528808" fill="#f9d000" d="m133.125 103.755-.017.008-.016.014-.014.017-.009.016-.005.018-.002.02.002.021.005.018.009.016.014.017.016.013.016.009.019.005.02.002.02-.002.019-.005.016-.009.017-.013.013-.016.008-.017.006-.018.002-.021-.002-.02-.006-.018-.008-.017-.014-.016-.016-.014-.016-.008-.018-.005-.021-.002-.021.002z"></path><path class="fil12" id="_48525040" fill="#f9d000" d="m144.83 128.155-.147-.117-.132-.127-.121-.135-.112-.142-.107-.151-.11-.169-.126-.225-.111-.206-.107-.204-.103-.203-.099-.202-.095-.202-.091-.201-.087-.201-.083-.201-.079-.201-.076-.201-.072-.201-.069-.202-.065-.203-.061-.204-.059-.203-.055-.206-.052-.208-.049-.208-.046-.21-.043-.212-.041-.214-.037-.216-.035-.218-.033-.221-.03-.224-.029-.226-.026-.229-.024-.233-.021-.237-.012-.134-.091-.07-.068-.052v.003l-.053.309.021.152.039.263.041.261.044.257.047.255.048.251.051.248.054.246.056.242.058.238.061.235.064.233.066.228.069.225.071.222.074.219.077.214.079.212.081.207.085.204.087.2.09.197.092.192.096.19.098.185.101.181.103.178.107.174.109.17.113.166.115.163.101.136.225.248.221.185.224.138.225.096.223.061.221.027.213-.003.202-.03.185-.055.111-.05-.071-.025-.067-.031-.131.041-.189.039-.197.018-.201-.008-.201-.036-.193-.062-.179-.086z"></path><path class="fil12" id="_48522944" fill="#f9d000" d="m147.224 126.63.016-.009.016-.013.014-.016.008-.017.006-.018.002-.02-.002-.021-.006-.018-.008-.016-.013-.017-.017-.013-.017-.009-.018-.005-.02-.002-.021.002-.017.005-.017.008-.016.014-.014.017-.009.016-.005.018-.002.021.002.02.005.018.009.016.014.017.016.013.016.009.019.005.02.002.02-.002z"></path><path id="_48520896" fill="#dea817" d="m161.651 102.778-.095-.047-.098-.043-.101-.037-.1-.033-.102-.027-.103-.023-.105-.017-.104-.013-.105-.007-.105-.002-.106.002-.106.007-.104.013-.104.017-.104.023-.101.027-.101.033-.099.037-.099.043-.096.047-.093.052-.091.057-.09.062-.087.067-.084.073-.082.078-.078.082-.072.084-.068.087-.062.09-.057.091-.052.093-.047.096-.043.098-.037.1-.032.101-.028.101-.022.104-.018.104-.012.104-.008.105-.002.106.002.106.008.105.012.104.018.105.022.103.028.102.032.1.038.1.042.099.047.095.052.093.057.092.063.09.067.087.073.084.077.082.082.077.084.073.087.067.089.062.092.058.094.052.096.047.098.042.099.038.101.032.102.028.103.022.105.018.104.012.105.008.106.002.105-.002.105-.008.104-.012.105-.018.103-.022.102-.028.102-.032.099-.038.097-.042.096-.047.094-.053.092-.057.089-.062.087-.067.085-.073.081-.077.077-.081.073-.085.068-.087.062-.089.057-.092.052-.094.047-.096.043-.097.037-.1.032-.101.028-.102.022-.103.018-.105.013-.105.007-.105.003-.104-.003-.106-.007-.105-.013-.105-.018-.104-.022-.103-.028-.102-.032-.101-.037-.1-.043-.097-.047-.096-.052-.094-.057-.092-.062-.089-.068-.087-.072-.085-.078-.081-.081-.078-.085-.072-.087-.068-.09-.062-.092-.057z"></path><path class="fil5" id="_48476136" fill="#fff500" d="m150.391 108.901-.028.009-.025.01-.023.013-.024.017-.026.021-.027.026-.027.033-.038.053-.027.043.057.073.124.152.13.153.138.154.144.155.15.155.157.157.164.157.171.158.178.159.184.16.191.16.198.161.204.161.212.162.218.163.146.106.056.027.085.031.072.017.06.008.049.001.043-.005.04-.008.036-.013.036-.017.036-.022.036-.027.035-.032.028-.033-.136-.093-.25-.178-.237-.177-.229-.177-.22-.178-.213-.179-.205-.18-.196-.181-.189-.182-.181-.183-.174-.184-.165-.185-.158-.185-.152-.187-.143-.188-.039-.054-.013-.003-.066-.011-.055-.004-.045.001-.036.004z"></path><path class="fil5" id="_48474192" fill="#fff500" d="m155.536 109.704.22.162.147.106.056.027.092.035.08.022.069.011.057.004.048-.002.017-.003-.077-.052-.11-.075-.123-.085-.243-.173-.231-.172-.22-.171-.209-.169-.199-.169-.19-.17-.181-.17-.171-.17-.164-.171-.156-.173-.149-.173-.143-.175-.136-.175-.129-.177-.024-.033-.009-.002-.066-.011-.054-.004h-.045l-.037.004-.03.007-.029.008-.024.011-.024.013-.024.016-.026.022-.027.026-.027.032-.002.003.017.019.074.082.147.155.147.15.15.148.152.145.156.143.16.142.165.143.169.142.175.143.182.146.188.147.196.151.203.153z"></path><path class="fil5" id="_48472784" fill="#fff500" d="m150.245 112.914.071.02-.012-.009-.237-.176-.229-.177-.221-.178-.213-.18-.204-.18-.196-.181-.189-.181-.181-.183-.174-.185-.165-.184-.158-.185-.152-.188-.144-.188-.038-.053-.013-.003-.066-.011-.055-.005-.045.001-.036.004-.031.007-.028.008-.025.011-.023.013-.024.016-.026.021-.027.027-.028.033-.037.052-.028.044.055.07.111.133.109.121.111.114.116.109.121.107.127.105.138.108.147.11.158.112.169.119.193.131.39.265.219.15.231.16.168.119.097.049.139.06z"></path><path class="fil5" id="_48469680" fill="#fff500" d="m147.462 114.563.071.02-.012-.009-.237-.176-.229-.177-.22-.178-.213-.18-.205-.18-.196-.181-.189-.181-.181-.183-.174-.185-.165-.184-.158-.185-.152-.187-.143-.189-.039-.053-.013-.003-.066-.011-.055-.004h-.044l-.037.004-.031.007-.028.008-.025.011-.023.013-.024.016-.026.022-.027.026-.027.033-.038.052-.027.044.054.07.111.133.109.121.111.114.116.109.121.107.128.105.137.108.148.11.157.112.17.119.192.131.39.265.219.15.231.16.169.119.096.049.14.06z"></path><path class="fil5" id="_48468424" fill="#fff500" d="m156.7 106.678-.094-.201-.114-.132-.122-.149-.117-.149-.114-.151-.096-.132-.008-.002-.066-.011-.055-.005-.045.001-.036.004-.031.007-.028.008-.025.011-.023.013-.024.016-.026.021-.027.027-.028.032-.001.003.016.019.075.082.146.154.148.151.15.148.152.145.156.143.16.142.164.143.169.142.054.044-.08-.118-.121-.201z"></path><path class="fil5" id="_48461512" fill="#fff500" d="m143.099 118.673.159.1.158.097.159.094.161.091-.233-.371-.258-.441-.247-.451-.233-.462-.221-.471-.208-.481-.195-.492-.182-.501-.168-.511-.156-.521-.143-.531-.13-.541-.116-.55-.103-.561-.09-.57-.077-.579-.064-.591-.049-.599-.038-.61v-.008l-.032.084-.058.171-.055.182-.054.191-.049.2-.047.21-.042.222-.04.233-.035.243-.031.255-.004.04.229.733.075.24.225.721.076.239.225.721.075.24.151.481.075.24.075.24.225.721.076.24.225.72.075.24.411 1.313.023.016.159.111.161.108z"></path><path class="fil5" id="_48461304" fill="#fff500" d="m138.277 115.071.169.523.153.522.136.521.121.519.103.519.088.516.072.516.055.514.039.513.023.511.008.509-.001.025.008-.013.097-.168.094-.17.092-.172.09-.174.087-.177.085-.178.081-.179.079-.182.077-.183.008-.02-.028-.096-.069-.232-.07-.23-.071-.23-.073-.229-.073-.229-.074-.228-.075-.227-.076-.228-.076-.227-.077-.227-.078-.228-.079-.23-.156-.453-.079-.229-.079-.23-.079-.23-.079-.231-.078-.232-.079-.233-.078-.235-.077-.235-.078-.237-.076-.239-.076-.239-.074-.241-.075-.244-.072-.246-.072-.247-.005-.017-.026-.033-.165-.197-.163-.185-.159-.174-.157-.162-.154-.152-.151-.141-.148-.132-.145-.121-.142-.112-.073-.054.004.007.301.532.285.531.267.529.252.528.235.528.218.526.202.525z"></path><path class="fil1" id="_48459432" fill="#0a0b0c" d="m161.47 103.123-.077-.039-.081-.034-.083-.032-.082-.026-.084-.023-.085-.018-.086-.015-.085-.01-.087-.006-.087-.002-.088.002-.087.006-.085.01-.087.015-.085.018-.083.023-.082.026-.082.031-.081.035-.079.039-.076.042-.075.047-.073.051-.071.055-.07.06-.067.064-.065.068-.059.069-.056.072-.051.073-.047.075-.042.076-.038.078-.035.082-.031.081-.027.083-.022.083-.019.085-.014.087-.01.085-.007.087-.002.087.002.088.006.087.011.085.014.086.019.085.022.084.027.082.031.082.034.081.039.078.042.076.047.075.052.074.055.072.06.069.064.068.067.063.069.06.072.055.073.051.075.047.077.043.078.039.08.034.082.031.083.027.084.022.085.019.086.014.087.011.086.006.087.002.086-.002.086-.006.087-.011.086-.014.085-.019.084-.023.084-.026.081-.031.079-.034.079-.039.077-.043.076-.047.072-.051.072-.055.07-.06.067-.063.063-.067.06-.07.056-.072.05-.072.047-.076.043-.077.039-.079.035-.079.03-.081.027-.084.022-.084.019-.085.014-.087.011-.086.006-.086.002-.086-.002-.087-.006-.086-.011-.087-.014-.086-.019-.085-.022-.084-.027-.083-.031-.082-.034-.08-.039-.078-.043-.077-.047-.075-.051-.074-.055-.071-.059-.07-.064-.067-.067-.064-.07-.059-.072-.056-.073-.051-.076-.047z"></path><path class="fil14" id="_48459360" fill="#004f81" d="m161.402 103.252-.071-.035-.075-.032-.076-.029-.075-.024-.077-.021-.078-.017-.079-.013-.078-.01-.08-.005-.08-.002-.081.002-.08.006-.078.009-.079.013-.079.017-.076.021-.076.024-.075.029-.075.032-.072.035-.069.039-.069.043-.068.047-.065.051-.064.054-.062.06-.059.062-.055.064-.051.065-.047.067-.043.069-.038.07-.036.072-.032.075-.029.075-.024.076-.021.076-.016.078-.014.08-.009.078-.006.08-.002.08.002.081.006.079.009.079.013.079.017.078.021.077.024.075.029.076.032.074.035.072.039.07.043.069.048.068.051.066.054.063.059.062.062.059.064.055.065.05.067.047.069.043.071.04.072.035.074.032.075.028.076.025.077.02.078.017.079.014.08.009.079.006.08.002.079-.002.079-.006.08-.009.079-.014.078-.017.077-.021.077-.024.075-.028.073-.032.072-.035.071-.04.069-.043.067-.047.066-.051.064-.055.062-.058.057-.061.056-.064.051-.066.046-.067.043-.069.04-.071.035-.073.032-.073.028-.074.025-.077.02-.077.018-.078.013-.08.009-.079.006-.079.002-.08-.002-.079-.006-.079-.009-.08-.013-.079-.018-.078-.02-.077-.025-.077-.028-.075-.032-.073-.035-.072-.04-.071-.043-.069-.046-.067-.051-.066-.055-.064-.059-.061-.061-.059-.064-.055-.066-.051-.068-.047-.069-.043z"></path><g id="g146"><path class="fil14" id="_48459064" fill="#004f81" d="m160.6 106.362-.509-1.274-1.107-.384.001-.055 1.184-.447.406-1.136.058-.002h.004l.444 1.164 1.2.442v.015l-1.122.429-.549 1.248z"></path><path id="_48458168" fill="#2c6693" d="m159.057 104.676 1.152-.435.397-1.114.436 1.141 1.116.411-1.037.396-.514 1.168-.477-1.195z"></path><path id="_48457176" fill="#5981a8" d="m159.205 104.674 1.044-.394.359-1.007.395 1.034 1.011.372-.931.356-.473 1.078-.442-1.105z"></path><path id="_48456184" fill="#84a5c3" d="m159.354 104.672.934-.353.322-.9.354.928.906.333-.825.315-.433.988-.406-1.016z"></path><path id="_48455160" fill="#c3dce3" d="m159.502 104.67.825-.312.284-.794.314.822.802.295-.72.275-.393.896-.37-.924z"></path><g id="g153"><path id="_48454168" fill="#86bbdb" d="m159.65 104.668.717-.271.246-.687.273.715.697.257-.613.234-.354.806-.333-.835z"></path><path id="_48453176" fill="#52a2d2" d="m159.798 104.665.609-.229.207-.58.233.609.592.218-.507.193-.313.715-.298-.744z"></path><path id="_48418800" fill="#008eca" d="m159.947 104.664.5-.189.169-.474.192.503.487.18-.401.153-.273.624-.261-.654z"></path><path id="_47540368" fill="#007cc3" d="m160.095 104.662.391-.148.132-.367.151.397.383.141-.295.112-.234.533-.225-.563z"></path></g></g></g></g></svg>