<svg xmlns="http://www.w3.org/2000/svg" width="600" height="300"><path fill="#ffcb05" d="M0 0h600v300H0z"/><path fill="#fff" d="M0 0h600v225H0z"/><path fill="#282878" d="M0 0h600v150H0z"/><g fill="#ffcb05"><path d="M110.7 82.5a40 40 0 1 0 78.6 0 40 40 0 0 1-78.6 0"/><circle cx="150" cy="80" r="30"/><path d="M149.7 10c.23 1.697 1.237 3.08 2.203 4.426.741 1.378.776 3.003.297 4.474-.23 1.522-.497 3.253.511 4.575 1.071 1.439 2.077 3.131 1.793 5.005-.036 1.945-1.334 3.751-1.093 5.677.505 1.278 1.974 2.914 2.797.884 1.04-1.648-.506-3.478-.041-5.23.324-1.73 1.747-3.199 1.379-5.07-.035-1.646-2.325-3.201-.546-4.741.625-.718 1.66-2.164 1.569-.331 1.06 1.26 2.298 2.68 2.126 4.457-.156 1.756-.842 3.779.805 5.074 1.676 1.768 3.142 3.984 3.163 6.509.188 2.194-.278 4.535-1.728 6.242-1.904 1.58-3.961 3.222-6.47 3.62-1.794.262-3.552.743-4.718 2.244-1.65 1.368-3.284.045-4.3-1.285-1.76-.696-3.733-.508-5.53-1.097-2.383-.68-4.645-2.167-5.74-4.451-1.131-2.278-1.276-4.919-1.11-7.416.049-2.007 1.186-3.775 2.583-5.141 1.378-1.218.816-3.2.876-4.796.694-1.803 2.566-2.726 3.583-4.309 1.194-1.473.857 2.093.888 2.832.053 1.299-1.38 2.103-1.097 3.424-.156 1.713 1.863 2.547 2.038 4.174.738 1.63-.957 3.381.1 4.89.55.742 1.997 2.495 2.166.568.86-1.5.75-3.245.046-4.783-.265-1.724-1.733-3.333-.937-5.106.6-1.607 2.528-2.434 2.65-4.281.244-1.692-.907-3.145-1.13-4.779-.486-1.84.35-4.022 1.742-5.289.363-.336.7-.71 1.125-.97z"/></g></svg>