<svg xmlns="http://www.w3.org/2000/svg" width="600" height="400" viewBox="0 0 169.333 112.889" fill-rule="evenodd" xmlns:cgf="https://coding.garden/flags"><metadata id="cgf-metadata">

<cgf:flag>
  <cgf:name></cgf:name>
  <cgf:route>ru/che</cgf:route>
  <cgf:aspect-ratio>1.5</cgf:aspect-ratio>
</cgf:flag>

</metadata><path d="M45.156 80.635v8.063h4.838v-1.613h-3.225v-6.45zm6.45 0v8.063h4.838v-1.613H53.22v-1.613h3.225V83.86H53.22v-1.613h3.225v-1.612zm10.482 1.612v1.613h1.613a.806.806 0 1 1 0 1.612h-1.613v1.613h1.613a2.419 2.419 0 1 0 0-4.838zm1.613-3.225a5.644 5.644 0 1 0 0 11.288 5.644 5.644 0 0 0 0-11.288zm0 1.613a4.032 4.032 0 1 1 0 8.063 4.032 4.032 0 0 1 0-8.063z" fill="#9000cc"></path><path d="M70.958 80.635v8.063h1.612v-5.062l3.225 5.062h1.613v-8.063h-1.613v5.062l-3.225-5.062z" fill="red"></path><path fill="#9000cc" d="M79.02 80.635h1.613v8.063h-1.612zm3.226 0v8.063h4.031a2.419 2.419 0 0 0 2.42-2.42v-3.225a2.419 2.419 0 0 0-2.42-2.418zm1.612 1.612h2.42c.445 0 .806.361.806.807v3.225a.806.806 0 0 1-.807.806h-2.419zm14.514-1.612-1.613 1.612h2.42a.806.806 0 1 1 0 1.613 2.419 2.419 0 0 0-2.42 2.419v2.419h4.838v-1.613h-3.225v-.806c0-.446.36-.807.806-.807a2.419 2.419 0 1 0 0-4.837h-.806zm10.482-1.613a5.644 5.644 0 1 0 0 11.288 5.644 5.644 0 0 0 0-11.288zm0 1.613a4.032 4.032 0 1 1 0 8.063 4.032 4.032 0 0 1 0-8.063zm7.256 1.612v6.45h1.613v-8.062zm3.226-1.612v4.837h2.419a.806.806 0 1 1 0 1.613h-2.42l1.613 1.613h.807a2.419 2.419 0 1 0 0-4.838h-.807v-1.613h3.225v-1.612z"></path><path fill="#d61a0c" d="M0 0h169.333v112.889H0z"></path><path fill="#fecc00" d="M0 75.259h169.333v18.815H0z"></path><path d="M91.207 17.983a.615.615 0 0 1 .337-.167c.132-.012.3.08.394.149a8.163 8.163 0 0 1 2.895-.667c1.457-.066 3.954.147 5.255 1.211 1.04.848 1.375 2.131 1.08 3.882.21.083.378.364.304.579a.812.812 0 0 1-.174.25c.433.904.67 1.74.73 2.723.637.212 3.732 1.107 3.732 2.087a3.668 3.668 0 0 1 1.216 2.31c.354.53.41 1.23.609 1.823.069.208.144.408.243.608.272.526.411 1.126.06 1.58.332.549.599 1.002.599 1.623.01.233.09.36.192.564.347.386.67.807 1.026 1.2.553.61 1.137 1.196 1.635 1.83 1.029 1.31 2.096 3.171 2.96 4.59.75 1.229 1.515 1.572 2.479 2.784 1.852 2.33 2.999 4.963 3.943 7.897.345 1.012.643 2.056.902 3.093.19.757.459 1.567.51 2.349.015.236-.006.477.01.767.06.98.42 2.026.818 2.9-2.156-1.389-2.419-2.866-3.04-5.165l-.364.729c-.54-.76-.61-1.431-.791-2.37l-.182.243c-.422-.651-.43-1.26-.608-1.944-.06.121-.06.304-.121.485-1.05-1.023-1.128-3.046-1.33-4.475-.17-1.228-.427-2.645-1.145-3.496.818 2.129 1.117 4.274 1.016 6.513l-.303-.121c.194.78.268 1.726 0 2.37.324.974.434 2.275.181 3.282.875 1.492 1.457 3.094 2.013 4.724.31.908.483 1.576.931 2.057.278.299.662.526 1.25.694.069 1.887.013 2.99-.16 4.587-.18 1.678-.56 3.476-.554 5.214.001.529.048 1.056.11 1.6.139 1.231.178 2.34-.126 3.552-1.455.273-2.603 1.329-2.977 2.612h-7.172c.498-1.808 2.095-2.947 4.255-3.039.085-.496.37-.984.728-1.458.966-1.016 1.948-2.607 2.006-4.072.097-1.352.09-2.808-.098-4.166-.17-1.242-.716-2.285-1.356-3.31-.623-.999-1.041-2.126-1.463-3.221-.434-1.173-1.39-2.171-2.43-2.917.291 1.43.28 2.421.15 3.588-.08.963-.034 1.91.302 2.824.14.386.276.73.095 1.124-.35.874-.854 1.746-1.338 2.552a110.184 110.184 0 0 0-1.802 3.195c-1.043 1.96-2.011 4.263-2.453 6.47-1.538.572-3.167 1.137-4.059 2.43h-6.76c.422-1.787 1.66-2.718 3.38-3.024a8.074 8.074 0 0 1 1.361-.136c1.022-.265.89-.656 1.155-1.155.186-.486.816-.923 1.195-1.276a14.044 14.044 0 0 0 1.586-1.882c.96-1.371 2.223-3.787 2.628-5.412.064-1.404-.199-3.751-.485-5.287-.407-1.29-1.87-3.388-2.575-6.412-.909-.913-1.656-2.051-2.4-3.093-1.255.614-3.212 1.374-5.054 1.117l.182.547a9.287 9.287 0 0 1-1.762.061l.121.182c-.827.387-2.246.607-3.95.243.163.163.418.291.607.427-1.152.056-2.309.11-3.462.06.945 3.01 1.32 6.389.362 8.57.518 2.61.379 5.061.468 7.513.013.541.492 1.492.663 2.663.146 1.002.017 2.252-.28 3.438l-.06.304c-1.502-.426-3.339 2.17-3.799 2.552h-6.473c.256-1.085.672-1.75 1.561-2.339a5.69 5.69 0 0 1 2.33-.881c.38 0 .53-.434.728-.73.372-.744 1.121-1.293 1.798-1.733.253-.165.501-.343.694-.577.304-1.198-.106-3.613-.424-4.801-.22-1.022-.534-2.855-1.095-3.83-.366-.365-.78-.699-.882-1.318-.256-1.585-1.319-3.885-1.806-5.147-.402 1.07-.73 1.975-1.566 2.758-.268 2.266-.976 3.052-1.64 4.255-.37.667-.4 1.16-.488 1.745a32.227 32.227 0 0 0-.364 4.783c0 .67.007 1.38.06 2.042v1.702c0 .181.017.425 0 .607-.016.184-.19.328-.425.425-1.56.65-2.326 1.7-3.282 3.039h-6.968c.164-1.074.674-2.105 1.644-2.66.66-.378 1.452-.528 2.224-.683l.304-.06c.325-.162.762-.578.818-.99.067-.477.352-.839.683-1.163.276-.272.678-.605 1.035-.92.311-.278.747-.65.831-1.094.21-1.104.307-3.207.41-4.124.227-2.053.172-2.882-.92-4.595.265-1.662.278-2.972-.06-4.671a2.428 2.428 0 0 1-.67.417c.121-.357.026-1.15 0-1.52-.407.3-.833.537-1.277.73.281-.486.565-1.306.548-1.944-.476.391-.957.6-1.52.79.838-.89 1.078-1.654.912-2.796-.147-.734-.322-1.361-.687-1.974-.625 1.569-1.48 2.609-2.196 3.92-.694 1.265-1.33 2.906-1.25 4.314-.344-.55-.784-1.247-.91-1.884-.238.474-.197 1.47-.243 1.822-.279-.383-.65-.711-.853-1.153a3.775 3.775 0 0 1-2.37 2.551c.511-.811.966-1.813.791-2.795-.234.936-.386 1.626-1.155 2.249-.187-.977-.672-1.524-1.52-2.37-1.621-1.298-3.517-3.298-4.01-5.227 0 1.054.06 1.681.302 2.734-1.393-1.392-2.551-3.378-2.551-5.409-.188.656-.224 1.299-.243 1.945-.671-.924-1.173-3.028-.913-4.315-.4.538-.725.74-1.276.972.651-1.335.856-2.307.79-3.89-.288.428-.71.812-1.11 1.125.35-1.464.444-3.194.503-4.721.046-1.21.146-2.395.608-3.574a3.477 3.477 0 0 1-.67.364v-.243a4.835 4.835 0 0 1-1.154.85c.12-.276.174-.59.304-.85-.408.475-.91.663-1.52.79.61-.763.85-1.683.85-2.675 0-1.652-.43-3.65.548-5.105-.588.146-1.104.522-1.64.79-.553.415-1.036.395-1.52-.121-.09-.135-.426-.593-.426-.729-.68.064-1.175-.076-1.451-.74-.328-.788.048-1.679.572-2.323.465-1.746 1.815-2.258 3.501-2.968a19.27 19.27 0 0 0 2.337-1.178c1.087-.64 2.266-1.716 2.594-2.969.187-.723-.078-1.295-.503-1.856a4.23 4.23 0 0 1 1.278.607c.177-.355-.101-1.011-.243-1.337.45.111 1.213.716 1.518 1.398.18-.267.193-1.075.183-1.338.492.723.968 1.484 1.136 2.285.383-.456.412-1.389.504-1.98.601.587.93 1.315 1.094 2.127.315-.58.427-.953.547-1.58.3.4.67 1.062.67 1.58.295-.297.4-.83.485-1.215a3.29 3.29 0 0 1 .547 1.823 9.929 9.929 0 0 0 .913-.67v1.034l.485-.608c.145.435.196 1.01.122 1.46l.365-.243c.128.446.061.773 0 1.153l.243-.06c.03.335-.008.835-.062 1.216 1.001.162 1.735 1.143 2.175 1.978.313.594.827 1.909.925 2.762.3.9.379 2.253.284 2.904.225 1.088.366 2.108.203 3.114l-.425-.243c0 .547 0 1.094-.062 1.64 1.134-3.066 2.288-5.478 4.68-7.902 1.211-1.225 2.752-2.499 4.316-3.281.478-1.674 1.336-3.887 2.833-4.868.09-1.11.382-2.16.739-3.057-.256-.19-.291-.414-.08-.681-.375-.79-.493-1.559-.318-2.349.605-2.709 3.853-3.501 6.177-3.483 1.4.013 2.886.248 4.478.684z" fill-rule="nonzero"></path><path d="M64.857 30.035c-.121.364-.426.851-1.032 1.398-.67.547-1.642.364-1.642.364 1.495-.135 2.614-1.393 2.614-2.796l-.233.243c-.176.71-.922 1.188-1.59 1.338 1.212-.758 1.602-1.61 1.457-2.613l-.668.668v-1.155c-.222.184-.373.344-.597.485-.115.7-.254 1.217-.375 1.46.304-.06.547-.06.608.061.121.183-.243.547-.426.79-.242.243-.972 1.278-1.64 1.58-.73.305-1.52.243-1.946 0 .986-.06 1.65-.865 2.31-1.52-.92-.06-1.913.198-2.735.61.763-.873 2.08-1.008 3.16-.792-.414.984-1.162 1.355-1.64 1.641 0 0 .607-.06 1.276-.607.729-.547.85-1.215 1.276-1.52 0 0-.486.06-1.094 0-.547 0-1.641 0-2.25.244-.606.182-1.214.668-1.214.668.227-.799 1.08-.962 1.63-1.094.567-1.136.805-2.8.01-3.89-.11.79-.203 1.118-.664 1.581.239 1.195-.358 2.401-1.28 3.16.992-1.363 1.466-2.981.304-4.862-.043.749-.4 1.18-.365 1.215.064 0-.502-1.07-.98-1.537.034.304.037.652-.115.929.243.243.67.79.851 1.642a2.084 2.084 0 0 1-.728 2.126c.364-.607.547-1.336.425-2.066-.06-.547-.472-1.287-.73-1.58-.174-.2-.385-.338-.607-.486.654 1.89-1.232 3.705-2.697 4.544-.757.433-1.56.782-2.287 1.169a14.42 14.42 0 0 0-1.702.79c-1.032.546-1.398 1.277-1.52 1.642.183-.183.486-.426.73-.547.426-.243 1.034-.426 1.277-.366.303 0 .303.426.06.608-.243.183-.79 0-1.398.305-.426.181-.911.607-1.154.85-.243.426-.425 1.033-.243 1.52.243.607.79.607 1.093.547.365-.243 1.338-.851 1.885-1.217.728-.485 1.702-.97 1.823-1.032.06 0 .183.243.243.304.061.121.365.364.183.486-.183.182-.547 0-.791 0-.243 0-.547.06-.79.182-.208.126-.878.538-1.334.823-.631.395-1.205.588-.428 1.365.121.183.425.425 1.032 0a7.884 7.884 0 0 1 3.04-1.277c-1.729 1.745-1.459 3.471-1.459 5.896 0 .913-.183 1.641-.364 2.066.425-.304 1.08-.868 1.14-2.57.061-1.763.5-4.6 1.594-5.33-1.276 2.066-1.042 4.467-1.164 5.683-.182 1.277-.476 1.913-.536 2.035.54-.455.853-1.11 1.099-1.738.796-2.043.488-3.21 1.452-4.886-.869 2.309.106 3.038-1.702 6.32 1.668-1.55 2.518-4.028 2.492-6.382.304 1.035.013 2.433.013 2.433.492-.641.782-1.803.942-2.359l-.287-.438c.693.507 1.84.54 2.37.304 0 .02-.545-.093-1.032-.547 1.094.243 1.757-.11 2-.352-.06 0-.967.048-1.696-.56 1.462.461 1.846-.211 1.945-.274 0 0-.972-.03-1.58-.699 0 0 1.033.486 1.823.426.851-.121 1.277-.607 1.277-.607s-.913.364-2.128-.304c1.269.468 3.101.023 3.635-1.278-.706 0-1.513-.169-2.116-.546 2.432.43 4.09-.384 4.043-2.721l-.153.047zm-4.415-.575c.547-.061.833-.047 1.197-.047.307-1.042.51-2.182-.003-3.208-.17.566-.312.85-.719 1.189-.043.632-.14 1.513-.475 2.065zm1.463-.033c.217 0 .376-.013.585-.013.32-.734.514-2.083.24-2.843-.151.405-.246.49-.522.765.061.547-.071 1.645-.303 2.092zm18.534.576a11.682 11.682 0 0 1-.2-2.758c-1.3 1.1-2.067 3.112-2.563 4.705a17.806 17.806 0 0 0-4.425 3.359c-1.439 1.5-2.388 3.03-3.105 4.329-.933 1.823-2.204 5.592-2.492 8.57l-.73-.121c1.2-2.405 1.16-7.43 1.216-7.415l.446.263c0-2.37-.75-3.485-.75-3.485.21.176.412.29.513.575a5.93 5.93 0 0 0-.879-3.31c.159.05.422.393.486.486-.077-.75-.435-1.623-.853-2.355-.432-.76-.968-1.623-1.898-1.777-.32 1-.846 1.782-2.171 1.945l.425.121s-.547 1.276-1.398 1.58c0 0-.577.87-1.55 1.051 0 0-.395.409-.699.529h.608s-.42.833-1.574.894l.486.243s-.978.82-2.316.332c0 0-.485 2.178-1.275 2.786 0 0-.486 1.7-1.46 2.796-.363.971-.85 2.552-.85 4.315a21.48 21.48 0 0 1-.304 3.707c.293-.294.467-.618.67-.972.426 1.325.331 2.518-.122 3.828.662-.728 1.248-1.923 1.393-3.485.172 1.543-.388 2.382-.506 3.304-.122 1.155.024 2.309.268 3.038.12-.79.424-2.006 1.032-2.917-.506 2.358-.047 4.594 1.398 6.564-.182-1.276.182-3.1.669-3.647-.64 2.919 1.744 5.027 3.768 7.05.67.537 1.305 1.24 1.58 2.068.334-.503.546-1.205.63-1.812.102-.752-.256-1.838.282-2.505 0 0-.304 1.278.182 2.189.486.971.182 1.763-.121 2.492 1.29-1.05 1.551-2.316 1.337-3.89.315.667.23 1.75.79 2.31-.039-.913.602-1.782.85-2.675.003.843-.153 1.608.304 2.371.172-1.026.767-2.308 1.274-3.165 1.657-2.8 3.29-4.674 2.616-8.14.851 2.007 0 4.071 0 4.071s.547.609.851 2.25c.183.85 0 1.52-.183 2.006.183-.122 1.764-1.581 1.338-5.896.669 4.012-.547 5.469-.547 5.469.06.487-.06 1.278-.182 1.703 0 0 1.276-.73 1.58-2.006 0 .912-.73 1.763-.73 1.763.065.426.118.82.122 1.185.122-.123.851-.882 1.277-2.705-.183 1.885-.73 2.492-.73 2.492.668 1.52.243 4.497.121 4.983 1.175 1.597 1.153 2.925.938 4.656-.043.593-.098 1.291-.16 1.962-.12 1.284-.266 2.478-.412 2.682-.123.243-.426.486-.851.851-.304.243-.608.547-.973.911-.425.426-.485.668-.546.973-.141.564-.582 1.022-1.066 1.32-.637.388-1.652.87-1.996 1.313a2.88 2.88 0 0 0-.518 1.379h5.099c.425-.73 1.154-1.52 1.762-2.068.486-.425.912-.668 1.215-.79.243-.12.486-.242.486-.364.061-.122.061-.972 0-1.944 0-.67 0-1.46-.06-2.31 0-2.431.425-4.984.547-5.713.06-.548.365-1.035.73-1.703.724-.966 1.154-2.386 1.276-3.585.87-.789 1.439-2.304 1.713-3.38 1.84-2.09 1.724-5.827.84-8.29.557.853.856 2.08.935 3.258.368-1.516.447-3.348.037-4.715.192.226.306.44.416.788.843-2.807-.432-5.382-.808-6.197.95 1.458 2.014 3.61 1 6.745a11.518 11.518 0 0 1-.548 4.315c2.128.971 5.653.911 6.99.851-.194-.194-.365-.457-.547-.67 1.395.311 2.843.537 4.255.184l-.79-.79a6.038 6.038 0 0 0 2.612.364l-.242-.607c1.732.294 3.854-.291 5.392-1.072-2.455-4.204-2.804-9.264-1.942-14.128-1.444.643-3.233.704-4.917.391-2.334-.434-4.668-.125-6.924.53-3.508 1.02-7.002-.375-7.898-3.874-.814-3.175-.038-6.876 1.057-9.959zm7.92 46.101c-.072-2.4.026-4.97-.432-7.342a19.776 19.776 0 0 0-1.494-4.631s1.192 1.8 1.678 3.925c.365-1.093.328-2.04.328-2.587-.121-.668-.425-1.763-1.155-2.675.482.336.925.712 1.112 1.292-.133-1.64-.598-3.245-.841-4.096-1.46-.06-2.93-.303-4.207-.851-.025 0-.016 2.149-1.533 4.08.303.67.728 1.703 1.154 2.735.547 1.278.73 2.25.85 2.796 0 .532.538.773.792 1.155.364.426.79 1.945 1.336 4.68.486 2.432.426 3.83.243 4.315-.121.304-.485.486-.85.73-.736.44-1.377 1.051-1.764 1.823-.183.245-.424.668-.789.668-1.52.791-2.127 2.007-2.31 2.615h4.558c.809-.884 2.036-2.59 3.708-2.675.285-1.193.41-2.421.267-3.28-.157-.938-.54-1.646-.65-2.677zm31.806-8.386c-.243 0-.668-.183-1.094-.547-.425-.365-.746-1.217-1.112-2.31-.415-1.663-1.24-3.337-2.021-4.828.336-1.866-.084-3.543-1.06-4.654.607.366 1.033.873 1.033.873.013-1.412-.305-2.616-1.216-3.486.44.268.925.667 1.322 1.251.104-3.524-.911-5.823-1.264-6.675a12.178 12.178 0 0 0-.89-.688c.674 1.599.945 3.9.136 5.538l-.138-.18c.243 1.824-.098 3.05-.148 3.085l-.14-.265c.122 1.155-.52 2.25-.52 2.25l-.18-.122c.12.971-.305 1.945-.305 1.945l-.121-.243c-.122 1.275-.973 3.16-1.278 3.768 1.763 1.107 2.44 2.298 2.83 3.192.476 1.1.715 2.26 1.486 3.25.426.608 1.156 2.067 1.337 3.343.183 1.155.183 2.431.061 4.437-.06 1.763-1.58 3.586-2.127 4.193-.281.443-.562.907-.592 1.449-1.393.36-2.5 1.063-3.156 2.44h5.51c.79-2.004 2.432-2.491 2.979-2.551.242-1.094.121-2.19.06-3.283a14.944 14.944 0 0 1-.12-1.58c0-1.397.302-3.646.546-5.287a51.72 51.72 0 0 0 .182-4.315zm-18.136-41.372c.011.511-.026.937-.106 1.448 1.993 3.78 1.818 9.585-.663 13.276-.499.744-1.07 1.22-1.756 1.608-1.129 6.007-.392 12.415 3.964 17.076-.616-2.604-1.658-6.32-1.658-6.32 1.398 3.283 2.066 7.294 3.22 10.09.427 1.033 1.4 2.856 1.521 3.282 0 0 .668 4.133.425 5.409-.242 1.216-1.459 4.012-2.674 5.591a16.115 16.115 0 0 1-2.492 2.675c-.496.745-.387 1.542-1.64 1.702-.122 0-.305.06-.426.06-1.885.547-2.502 2.006-2.745 2.492h4.873c.364-.547 1.336-1.52 4.01-2.37.183-.608.852-3.526 2.492-6.442.669-1.277 1.337-2.37 1.824-3.283.79-1.275 1.276-2.188 1.336-2.492 0-.181-.06-.425-.181-.79a7.428 7.428 0 0 1-.304-2.917c.185-1.442.004-2.597-.183-3.89.686-1.105 1.496-4.037 1.277-5.287l.33.783c.172-.805.123-1.55-.026-2.302l.45.761c.336-.535.45-2.258.278-3.254l.315.935c.207-.66.2-2.51-.315-3.488.318.264.527.6.66.908.678-1.968.167-3.936-.781-6.073l2.189 1.702c.85.91 1.376 2.256 1.674 4.193.194 1.257.166 2.628.817 3.769 0-.183.426-1.398.426-1.398 0 .364.243 2.43.486 2.977l.425-.91v.97c.061.366.183 1.4.486 2.006.17-.38.345-.728.548-1.093.367 1.815.701 3.823 2.127 5.226-.242-.668-.486-1.64-.425-2.673 0-.183-.304-1.945-1.398-5.35-1.155-3.524-2.492-6.138-4.012-7.9-.762-.838-1.924-1.72-2.43-2.735-.366-.608-1.886-3.282-2.858-4.437-.89-1.016-1.864-2.02-2.675-3.1-.242-.303-.305-.669-.302-.972 0-.265-.511-1.562-1.034-2.006.2-.1.498.133.608.243.231-.696-.281-1.468-.972-1.64 0 0 .06-.183.547 0-.353-1.059-.296-2.032-1.46-2.614 0 0 .304-.183.73.183-.183-.791-.85-1.7-1.64-2.006 0 0 .12-.062.425-.062-.238-.237-1-.853-3.307-1.561z" fill="#c1c1c1" fill-rule="nonzero"></path><path d="M103.036 58.008a232.791 232.791 0 0 0-1.227-4.574l-.222-1.168s2.35 5.422 3.627 8.826c1.214 3.404 2.37 5.288 2.37 5.288-.486 1.52-.182 4.072-.182 4.072.79-1.58 2.735-2.795 2.735-2.795 0-.946.21-1.717.242-2.675.062-1.094-.121-2.37-.121-2.734.9-2.045 1.431-4.166 1.155-6.747.354.4.639.907.851 1.52.017-1.206-.456-2.759-.547-2.736.169.098.286.182.453.468.607-3.1-.333-5.086-.333-5.086a4.34 4.34 0 0 1 1.095.85c.486-3.707-1.58-6.868-1.58-6.868l.73.183c-.305-.79-1.641-2.675-2.25-3.526-.607-.851-1.762-2.126-2.37-3.16-.664-1.256-.502-2.758-1.584-3.77a1.82 1.82 0 0 1 .673.123c.06-.971-1.013-1.97-1.013-1.97.198-.05.494.016.659.1-.118-1.051-.587-1.795-1.227-2.14l.73-.062c-.304-1.094-1.64-1.641-1.64-1.641l.425-.243a31.46 31.46 0 0 0-1.91-.524c.926 1.886 2.023 4.741 1.97 7.574-.06 3.039-1.58 6.2-2.492 7.111-.851.912-1.823 1.52-2.188 1.945-.365.365-.546 2.674-.546 2.674l.485-1.702c-.03 0-.137 2.37-.364 3.709l.364-.852c.183 1.398.061 3.16.121 4.256l.243-1.217s.366.668.366 1.155c.061.486.304 2.492.85 4.133l.062-1.277s.4 1.66 1.59 3.48zM65.217 31.07l-.012-.002v.001h.012zm-1.349 33.553a4.166 4.166 0 0 0 .038-.237c.048-.352-.005-.776-.019-1.195-.074-.997.3-1.277.544-1.796 0 0-.06 1.398.062 1.764.181.424.364 1.214.364 1.214.547-.911.728-2.613 1.155-3.706.486-1.095 1.458-2.067 1.458-2.067-1.458 2.309-1.094 5.166-1.094 5.166.183-.668.913-1.764.913-1.764.181-1.822 2.37-4.862 2.917-5.954.547-1.155.851-3.04.851-3.04l.668.608c.064.712.166 1.415.06 2.128l.183.607a2.07 2.07 0 0 0-.061 1.033l.243-.668.301.734c-.243.79-.06 1.155-.06 1.155.06-.426.243-.729.243-.729l.246.906c-.182.547-.242 1.58-.242 1.58.424-.547.79-2.127.85-2.735a9.996 9.996 0 0 1-.013.367c.042-.631.034-1.357-.048-2.19.16.963.212 1.777.198 2.462.164 1.677-.1 3.736-.198 3.738.284-.234.598-.619.83-.959l.021-.075v.047a4.48 4.48 0 0 0 .182-.29c.061 1.094-.426 2.25-.426 2.25.33-.41.741-1.26.908-1.751l.005-.013-.003.015.245.349-.485 1.885.364-.547.06.728c-.243.426-.364 1.217-.364 1.217l.425-.791.062.485-.304 1.035.364-.425c.304 3.099-.06 3.705-.06 3.705s.607.731.728 1.825c.122 1.094-.364 4.924-.485 6.564-.122 1.641-1.216 1.824-2.128 2.675-.971.91-1.155 1.762-1.155 1.762h.485c.487-1.58 1.885-2.006 1.885-2.006-1.032.668-1.458 2.066-1.458 2.066l.729.061a2.483 2.483 0 0 1 1.702-1.519c-.972.486-1.398 1.58-1.398 1.58.73.304 1.216.122 1.945-.303.73-.486.546-1.641.485-3.283-.06-1.64.061-4.74.244-5.712.183-.974-.121-1.217-.121-1.4 0-.242.121-.425.608-1.579.486-1.155.607-3.83.607-3.83.67 2.735-.364 4.437-.364 4.437 1.64-1.944 1.094-4.375 1.094-4.375 2.613-2.492 1.58-5.166 1.58-5.166.243 2.43-.668 3.403-.668 3.403-.243-2.856-1.946-4.68-1.946-4.68 1.338 2.858.061 5.41.061 5.41s.183-2.007-.971-3.586c-1.216-1.58-1.885-3.526-2.067-4.62-.183-1.093 0-2.127 0-2.127-2.432-.426-2.128-3.828-2.128-3.828-.426.425-.971 1.276-.971 1.276-.913-1.945-.062-5.896-.062-5.896l-.548.364c-.06-2.066 1.217-5.166 1.217-5.166-.426.304-1.034.73-1.034.73.486-2.492 3.1-6.139 3.1-6.139-2.364 2.438-3.685 5.386-4.35 7.285-.518 1.481-.796 3.073-1.35 4.535-.707 1.873-2.32 1.647-3.075-.1-.374-.865-.345-1.861-.402-2.785.181.061.538.313.538.313a40.164 40.164 0 0 0-.435-1.172c.183.06.565.25.565.25-.121-.425-.486-1.224-.486-1.224.425.123.669.252.669.252a7.73 7.73 0 0 0-.547-1.094c.286.01.668.243.668.243-.183-.548-.608-1.275-.608-1.275.243.06.728.425.728.425-.363-1.702-1.456-3.04-1.456-3.04.728.304 1.336 1.095 1.336 1.095.06-.304-.061-.972-.061-.972.243.181.668.486.668.486-.181-.486-1.214-1.703-1.214-1.703a49.26 49.26 0 0 1 1.033.547c-.243-.547-.609-.668-.609-.668.243-1.276-.91-2.127-.91-2.127.789.122 1.457.608 1.457.608-.181-.364-.668-.79-.668-.79.061-1.278-.972-1.763-.972-1.763a4.293 4.293 0 0 1 1.64.425c-.668-.728-1.398-.971-1.398-.971l-.97.607-.306.243c-.79 1.155-3.16 3.221-5.166 5.045-2.067 1.944-3.039 4.498-3.706 6.685-.67 2.188-.244 5.592-.244 5.592l.547-1.58c.425 1.459.121 2.795-.062 3.707-.121.912-.06 2.188-.06 2.188.547-1.64 1.58-2.977 1.58-2.977.061.85-.364 1.336-.426 3.281a7.741 7.741 0 0 0 .73 3.463c.365-2.369 1.58-3.706 1.58-3.706-.972 4.012 1.52 6.442 3.22 7.901 1.704 1.458 1.764 2.188 1.764 2.188.192-.145.31-.364.409-.6zm9.92-2.636c.116-.153.222-.322.31-.507l-.001-.003a3.37 3.37 0 0 1-.307.51zM69.64 84.19h3.775c.186-.341.808-1.117 1.16-1.365 0 0-1.985-.35-3.032-.103-1.153.272-1.774.649-1.903 1.47zm17.89-21.636s-.123-1.034-.366-1.52c0 0-2.492-.122-3.1-.304 0 0-.121 1.763-.486 2.675 0 0 .426 2.249.669 3.16.304.911 1.458 3.463 1.944 4.558.486 1.094.973 3.77 1.034 5.713.06 1.885 0 2.735 0 2.735l.122.487s-.973.12-1.824.728c-.85.67-1.24 1.345-1.24 1.345l.723-.037s1.124-1.367 2.097-1.611c0 0-1.235 1.063-1.478 1.61l1.053.119s.364-.392.547-.514c.243-.121.729-.181.85-.304.123-.06.548-1.214.425-2.249-.06-1.032-.606-2.249-.79-2.734-.12-.547-.06-2.128-.182-3.463-.181-1.338-.364-2.857-.303-3.83.06-.912-.061-2.492-.425-3.465-.366-.972-1.278-2.25-1.278-2.25l.365-.12s1.216.912 1.641 1.884c0 0-.06-1.945-1.823-3.89h.486s.729.365 1.337 1.277zM81.456 84.19h3.016c.34-.555 1.509-1.486 1.562-1.454 0 0-.9-.154-1.886-.088-1.095.072-2.15.333-2.692 1.542zm17.378-29.415c-.973.91-3.1.97-3.1.97l.06.305c-.85.485-2.249.183-2.249.183l.062.242c-.609.669-2.858.547-2.858.547-.79.669-2.613.123-2.613.123l.062.364c-1.823.882-3.815-.396-4.328-.811a11.666 11.666 0 0 1-.145.84c1.32.462 2.892.578 2.892.578l2.796 1.035-1.15-1 2.047-.095 2.75.608-1.227-.79 1.296-.122 2.118.547-.806-.736.934-.18 1.683.324-.95-.614.97-.246 1.572.297-.876-.511c.97-.366 1.789-.522 1.789-.522l-.729-1.338zm-16.107-5.107s.669 1.216.547 2.614l-.91-1.458s.242-.791.363-1.156zm-.547 1.764c.034-.017.995 1.386.911 2.43 0 0-.425-.79-.85-1.336 0 0 .365 1.157.485 1.887 0 0-.788-1.402-1.457-1.585.104 0 .908 1.581.79 2.492-.273-.942-.854-2.249-1.35-2.967.431.248 1.263.092 1.471-.923zm-.365 6.807s-1.033-3.222-2.492-3.89c0 0 1.824 4.071 1.46 6.381 0 0-1.034-2.31-1.945-2.857 0 0 1.276 2.432.91 4.56 0 0-1.397-3.527-3.22-4.741 0 0 .669 1.275.972 2.492.304 1.215.425 2.309.365 2.795 0 0-.608-1.884-1.52-3.1-.911-1.276-1.701-3.525-1.214-5.349 0 0 1.762-.181 2.126-2.006.083.333.488 1.4 1.495 1.095.865-.262 1.058-.912 1.24-1.398-.052 0 1.924 1.884 1.823 6.018zm30.271 25.952h3.958c.181-.642.558-1.048 1.022-1.52-2.01-.326-3.846.09-4.98 1.52zm6.318-16.775s.911.911 1.033 1.154c.06.183-.303 2.734-.365 3.161l-1.276-.972s.608 1.64.728 3.343c.123 1.702.244 3.707.244 4.74.062.971.183 2.675-.668 2.978-.851.304-2.31-.06-2.31-.06s1.642-2.432 1.702-4.741c.121-2.31-.122-5.592-.607-7.233 0 0 .91.182 1.398.669 0 0 .364-1.398.121-3.039zm-3.951-10.697s.304 1.094.486 1.52c.244.485.304 1.7.79 3.038.486 1.337 1.641 4.256 1.581 4.984 0 .79-.67 2.492-.67 2.492s-.85-.972-1.336-2.188c-.486-1.155-1.398-2.674-1.702-3.16-.364-.487-.364-2.068-.06-3.161.303-1.156.911-3.525.911-3.525zM97.697 44.255c-1.133-.187-2.55-.141-3.665-.12-2.432.048-6.138 1.58-9.481 1.095-3.464-.486-6.018-3.04-5.956-6.14 0-1.86.298-3.063.584-4.004.22-1.754.7-3.5 1.261-5.083a9.273 9.273 0 0 1-.11-.66c-.275.132-.55.367-.824.753-1.215 1.58-.973 2.43-.973 2.43s-.608.366-.668 1.156c0 0-1.58 0-3.404 2.674-1.823 2.552-2.127 4.437-2.127 4.437l1.155-.426s-1.458 2.492-1.641 4.801l.972-.485s-1.093 3.22-.79 5.773c0 0 .912-1.033 1.155-1.154 0 0-.547 4.011 1.397 4.132 2.007.183 2.554-1.763 2.735-2.431.093.534.537 2.149 1.375 1.738.926-.457.935-1.677.935-1.677s.547 1.094 1.338.79c.79-.364 1.762-2.25 1.275-5.53.705.848 1.356 2.105 1.738 3.446.428 1.244.582 2.79-.035 4.698.025.396.031.794.015 1.194.415.535 1.368 1.593 2.963 1.48 0 0-.85-.365-1.216-.79 0 0 1.095.061 1.58-.06 0 0 1.094.547 2.128.425l-1.277-.548.973-.243s1.823.791 3.038.426l-2.187-.729 1.702-.426s1.52.85 2.917.73c0 0-1.763-.67-2.31-.972l1.398-.365s1.823.728 3.04.242l-2.432-.547.911-.546s1.885.182 2.675-.183l-2.007-.122.487-.547s1.094 0 1.885-.425l-1.52-.061s.303-.547.365-.85c0 0 .728-.061 1.215-.243l-1.094-.183c.354-2.288.49-4.561.505-6.87zm21.922 13.737c-.189-1.035-.235-2.05 0-3.169-.562.344-.692.874-.85 1.225-.218-1.191-.338-2.364-.278-3.563-.415.414-.62 1.027-.755 1.558 0 0-.183-1.521-.426-2.553-.243-1.034-.485-2.128-1.278-3.951 0 0 3.527 5.287 4.317 9.178 0 0-.426.668-.728 1.275zm-11.973 17.14c-2.066 3.04-3.464 5.592-3.464 5.592s1.215-1.216 1.702-1.884c0 0-.486 1.277-.547 1.64-.121.365.121 1.216-.425 1.399-.609.242-1.703-.243-2.25-.79 0 0 1.764-1.46 2.735-3.343a232.136 232.136 0 0 1 2.432-4.802V74.1s1.154-1.823 1.336-2.553c.183-.728-.06-1.398-.668-.91-.608.425-.547-.426-.121-.852.85-.85 2.066-1.034 2.066-1.034s.304.79.425 1.034c0 0-1.155 2.25-3.22 5.348zm-6.443 9.056h-3.11s.243-1.009 1.774-1.387c1.569-.387 2.595-.11 3.038.05-.552.156-1.533.953-1.702 1.337zm19.51-26.256s.486 1.398.547 2.552c0 0-.547-.85-.547-2.552zm-56.69-27.028A2.783 2.783 0 0 0 64.797 29l-.233.243a1.59 1.59 0 0 1-.524.808.26.26 0 0 1-.034.044l.001-.016-.037.03c-.43.54-1.058.593-1.058.593.668.122 1.034-.121 1.034-.121-.608.668-1.58.608-1.58.608a3.987 3.987 0 0 1-.548.547c.92-.087 1.702-.437 2.205-.833zm.421-2.845-.013-.09-.186.186c-.11.698-.355 1.412-.907 1.88.783-.447 1.082-1.194 1.105-1.976zm-.68.457v-1.034c-.09.074-.168.144-.245.212-.03.834-.16 1.369-.181 1.369.121-.122.304-.305.425-.547zm-4.377 3.342c.411-.025.766-.181 1.09-.4-.441.186-.946.279-1.636.279 0 0 .607-.183 1.093-.425.548-.243.85-.609 1.216-.729 0 0-.304-.123-1.338.303-.971.426-1.094.668-1.094.668a2.116 2.116 0 0 0-.42-.412c.348-.358.894-.588 1.34-.724.742-.39 1.678-.421 2.484-.262-.414.984-1.162 1.355-1.64 1.641 0 0 .607-.06 1.275-.607.73-.547.851-1.216 1.278-1.52 0 0-.487.06-1.095 0-.547 0-1.641 0-2.25.242-.606.184-1.214.67-1.214.67a1.192 1.192 0 0 1 .398-.606c.08-.133.243-.341.453-.55.425-.363 1.215-.789.91-2.734 0 0-.338.792-.744 1.284-.085.915-.606 1.773-1.322 2.363-.13.1-.27.179-.425.243l-.243-.304c.898-1.01 1.024-2.823.373-4.092a7.135 7.135 0 0 0-.378-.59c.04.35.005.701-.051 1.051.166.278.326.637.422 1.079a2.09 2.09 0 0 1-.575 1.992 1.7 1.7 0 0 1-.034.074c-.182.304-.365.547-.487.729 0 0-.242 1.277-1.276 1.642-.971.304-2.126.06-3.039.425-.85.364-4.436 2.188-4.619 2.917-.243.729.425.729.73.669.364-.122 1.033-.609 1.64-.973.588-.294 1.402-.7 1.785-.618l.1-.051c.06 0 .182.244.243.304.061.122.364.365.183.487-.166.166-.486.028-.726.002a1.204 1.204 0 0 0-.55.24c-.543.271-1.71 1.072-1.918 1.373-.064.096-.01.26.02.361.043.143.086.271.195.273.121 0 .478-.173.851-.366.362-.186 1.104-.583 1.58-.741.39-.13 1.098-.115 1.248-.068.02.007.037.02.037.042-.003.098-.263.393-.373.888-.122.486-.486 1.947-.547 3.587 0 0 .364-1.702.668-2.857.304-1.094.547-1.64 1.338-1.823 0 0-.485 1.033-.67 1.702-.18.728-.242 1.64-.242 1.64s.79-2.613 1.215-3.462l.485-.123s-.667 1.215-1.032 2.432c-.364 1.275-.364 1.762-.547 2.794 0 0 .486-1.52.912-3.038.365-1.458.972-2.31.972-2.31l.061.243s-.121.304-.304 1.398c-.122 1.155-.303 2.432-.729 3.89 0 0 .729-1.277.852-2.492.12-1.215.302-2.674.302-2.674l.304.304a2.9 2.9 0 0 1 .243 1.094c.058.46-.047 1.082-.264 1.713a7.378 7.378 0 0 1-.045.355c.308-.352.772-1.26.37-2.98.547.365 1.337.729 2.128.852h-.001c.177-.02.336-.06.462-.112-1.252-.177-2.277-.81-3.318-1.652l.608-.243s1.764 1.702 3.22 1.094c0 0-.79.304-3.098-1.155 0 0 .546-.243.91-.486 0 0 1.463 1.006 2.64.781a1.201 1.201 0 0 0 .28-.082s-.356-.012-.773-.168c-.435-.074-1.127-.26-2.024-.652 0 0 .303-.243.486-.486.993.496 2.106.894 3.228.837.4-.184.6-.412.6-.412s-.517.207-1.294.023c-.826-.083-1.643-.363-2.413-.63l.304-.366c.013.018 3.668 1.338 4.679-.613a4.508 4.508 0 0 1-1.246-.24c-.49-.045-2-.414-3.067-.064a6.958 6.958 0 0 0 .181-1.028c.223 0 .448-.043.669-.06zm2.804.959c1.649-.018 2.73-.814 2.815-2.518a4.463 4.463 0 0 1-.26.674c-1.114 2.09-4.264 1.494-4.264 1.494.718.204 1.265.315 1.71.351zm-13.44.5c.321-.183.747-.333 1.04-.369.246-.121.729-.301 1.39-.481a20.292 20.292 0 0 0 2.311-.791c.882-.36 2.032-.736 2.67-1.23 1.217-.946 1.494-2.757.551-3.997 0 0 .122 1.216-.485 2.127a6.245 6.245 0 0 1-1.19 1.283c-.69.581-1.623 1.156-2.458 1.574-1.458.728-2.37.911-3.647 1.763-.06.06-.122.06-.182.12zm13.977-6.74a1.605 1.605 0 0 1-.24.46c.055 1.493-.184 2.268-.184 2.268.474-.829.473-1.904.424-2.728zm-.85.327a2.888 2.888 0 0 0-.242-.697l-.058.185c.202 1.597-.404 2.792-.428 2.792.639-.696.722-1.617.728-2.28z" fill="#fff" fill-rule="nonzero"></path><path d="M90.748 21.217c-.115-.31.226-.678.546-.578a78.16 78.16 0 0 0-.175-2.282c-1.557-.426-3.034-.685-4.393-.695-1.975-.017-5.284.775-5.82 3.182-.153.683-.032 1.405.297 2.104 2.977-1.097 6.346-1.618 9.545-1.731zm1.42 12.3c-.092.118-.269.233-.427.225-.106-.004-.26-.101-.335-.162-1.55.831-3.262 1.329-5.022 1.325-2.464-.007-4.344-.962-5.383-3.24a9.41 9.41 0 0 1-.401-1.07c-.942 2.844-1.582 6.3-.895 9.162.794 3.314 4.1 4.74 7.459 3.764 2.32-.673 4.719-1.017 7.117-.57 2.548.476 5.142.145 6.704-2.108 2.334-3.374 2.453-9.051.85-12.424-.04.17-.13.472-.178.642-.895 3.027-2.545 4.88-6.228 4.907-.978.008-2.045-.123-3.261-.451zm-.776-10.89c-.328.219-.735-.15-.66-.483-3.223.104-6.358.575-9.408 1.73-.879 2.132-1.076 5.305-.013 7.632.972 2.126 2.796 3.037 5.099 3.037 1.69-.001 3.39-.485 4.877-1.288v-.013c.167-3.534.24-7.079.106-10.615zm1.512-.507c.09.307-.243.656-.556.555.13 3.49.06 6.99-.102 10.478 1.197.323 2.27.464 3.22.452 1.894-.023 3.736-.715 4.794-2.325v-.003l.002-.003a8.804 8.804 0 0 0 1.074-2.392c.53-1.873.445-3.862-.411-5.6-.77-.264-1.577-.454-2.38-.63-1.88-.413-3.737-.52-5.642-.532zm-.652-1.436c.334-.215.752.174.65.511 1.944.022 3.922.157 5.822.521.706.136 1.415.333 2.099.554.247-1.56-.058-2.731-.956-3.465-1.22-.994-3.678-1.19-5.014-1.13a7.976 7.976 0 0 0-2.782.613c.073.799.133 1.597.181 2.396z" fill="#e08600" fill-rule="nonzero"></path><path d="M81.248 23.601a27.888 27.888 0 0 1 2.56-.818c2.373-.628 4.72-.871 7.145-.932l.216-.195-.18-.16c-2.43.077-4.916.41-7.254 1.028-.834.221-1.796.456-2.596.756-.077.03-.161.117-.123.223.036.103.156.128.23.098zm11.42-1.767c2.003.006 3.96.103 5.935.52.741.156 1.625.39 2.373.643.115.038.197-.028.217-.115.022-.086-.02-.192-.15-.235a22.274 22.274 0 0 0-2.375-.625c-1.947-.41-4-.53-6-.542l-.195.176.196.18zm-.716 11.457.001-.023c.17-3.613.243-7.212.097-10.814l-.23-.207-.154.14c.15 3.62.076 7.24-.094 10.87v.022c.007.114.095.174.186.178.09.003.18-.051.194-.166zm.023-12.364a78.953 78.953 0 0 0-.192-2.594c-.024-.262-.404-.233-.38.023.076.834.137 1.669.186 2.503l.231.208.155-.14zm-.72 1.445.352-.318-.226-.205-.33.3c-.17.153.051.36.204.223zm1.005-.907.328-.298c.125-.115-.083-.332-.204-.224l-.35.317.226.205zm.281.64-1.252-1.134c-.16-.143-.366.078-.235.196l.025.023 1.252 1.133c.192.174.408-.04.211-.217zm-.105-3.039c.022.505-.036 1.019.05 1.531l.006.028a.495.495 0 0 1 .402.332c2.044.049 4.273.297 6.455.71 1.29.246 1.25-.83.996-1.756a1.712 1.712 0 0 0-.298-.378c-1.816-1.736-6.338-1.044-7.61-.467zm.334 4.837c-.018 2.079.01 4.155.447 6.223.287 1.358.147 2.198 1.917 2.275 4.367.195 6.546-3.249 5.888-7.528-.281-.703-.777-1.265-1.47-1.485-1.571-.501-3.068-.849-4.63-.933-1.819-.102-2.14-.212-2.152 1.448zm-10.958-1.371c-1.265-3.482 4.28-5.219 9.175-3.686.054.593.102 1.187.143 1.78a.498.498 0 0 0-.388.35c-3.201.124-6.19.676-8.93 1.556zm9.339.16c.112 2.58.163 5.209-.134 7.702-.12 1.018.04 2.069-1.124 2.411-2.025.596-5.49.652-6.68-.743-.947-1.107-1.402-3.166-1.393-5.725.005-1.08-.042-1.988 1.201-2.413 2.569-.879 5.088-1.444 7.714-1.6a.495.495 0 0 0 .416.367zM80.66 32.376c1.717 2.894 4.885 3.55 9.037 2.65 1.68-.365 3.617-.304 5.636-.22 2.475.102 4.576-.946 6.298-2.997.399 7.864-2.812 11.237-9.51 9.589-1.125-.278-2.056-.38-3.086.189-3.335 1.84-6.617 3.066-8.22-1.01-.924-2.837-.664-5.533-.156-8.2z" fill="#fecc00" fill-rule="nonzero"></path><path d="m55.801 30.158-.226.163-.504-.225c1.945-1.459 1.885-2.917 1.885-2.917.364 1.397-.485 2.43-1.155 2.977zm2.464 3.524.232-.547c1.167-.288 2.406.503 3.502.442-.831.734-2.718-.08-3.734.105zm5.437-.243-.046-.294.35.051c-.06 2.31-1.823 4.01-1.823 4.01.972-.181 1.58.123 1.58.123-2.37 1.336-3.16 3.707-3.16 3.707 2.37-.669 2.43 0 2.43 0-1.519.425-2.248 1.945-2.248 1.945 1.155-.183 1.944.364 1.944.364-2.187 1.095-2.551 3.221-2.551 3.221 1.155-.728 2.613-1.094 2.613-1.094-4.133 4.013-1.277 7.476-1.277 7.476-2.977-2.25-.85-6.016-.85-6.016-.608.364-1.642 1.215-1.642 1.215.183-3.1 2.432-4.68 2.432-4.68-1.094.06-2.127.972-2.127.972.546-1.884 2.187-3.22 2.187-3.22-1.52.304-2.43 1.397-2.43 1.397.85-3.282 3.403-5.044 3.403-5.044-1.337.06-2.978 1.58-2.978 1.58.607-1.52 2.188-2.796 3.282-3.77 1.094-.97.91-1.943.91-1.943zm5.233 12.366.302-.913s1.333 3.316 1.273 5.99c-.061 2.674-1.155 4.863-1.155 4.863-.061-.913-.486-1.946-.486-1.946-.304 1.58-.85 2.491-.85 2.491l-.305-.364c-.061 2.128-1.58 4.073-1.58 4.073l-.243-.486-.669 1.154-.546-1.033c-.064 1.435-1.163 1.91-1.338 3.039-.243-1.338.608-1.823.85-2.977.243-1.157-.303-2.615-.303-2.615.608.79 1.367 2.602 1.367 2.602.607-.971.03-2.844.03-2.844.669.728.99 1.846.99 1.846 1.399-1.763 1.017-4.702 1.017-4.702.345.534.51.907.649 1.2.79-1.214.566-3.815.566-3.815a8.995 8.995 0 0 0 .79 2.066c1.033-3.281-.36-7.63-.36-7.63zm29.715 36.62c-1.155.183-2.066.609-2.796 2.31h.681c.729-1.52 1.447-2.067 2.115-2.31zm-16.659-.103c-1.183.192-2.5 1.26-2.79 2.413h.936c.364-1.276 1.186-1.987 1.854-2.413zm-12.361.307c.345-.196.766-.376 1.123-.568-1.884.086-3.022 1.134-3.343 2.674h.956c.061-.79.485-1.66 1.264-2.105zm43.254-.182c-1.872.502-2.505 1.56-2.808 2.288h.482c.182-.365.868-1.68 2.326-2.288zm-2.747-14.79c.415.127.736-.193.305-.583-.248-.224-.449-.37-.548-.694-.243-.79-.426-.971-.486-1.763 0-.789.122-2.005-.73-3.22 0 0 1.459-1.581 1.277-4.924l.971.426s0-1.52-.181-2.37c0 0 .485.242.79.607 0 0 .06-1.093-.365-2.187l.486.424c-.06-.364.061-1.7-.486-3.281l.607.304s-.364-2.188-.91-3.464c0 0 .789.425.972.728 0 0 .182-2.006-1.216-4.618-1.337-2.615-3.585-3.587-3.585-3.587s2.673 1.46 3.706 6.626c0 0-.85-.669-2.492-1.216 0 0 1.824.85 2.067 3.769 0 0-.972-.913-2.006-1.46 0 0 1.945 1.581 2.006 4.316 0 0-.85-.912-1.763-1.581 0 0 1.46 1.46 1.52 3.587 0 0-.912-.851-1.459-1.58 0 0 1.094 2.065 1.155 3.706 0 0-.608-.607-1.398-1.58l.247.949c1.022 1.327.185 4.284-.612 5.554l-.971-.546s.79.79 1.214 1.458c.427.67.67 1.702.792 2.491.06.791.06 1.46.181 1.824.122.365.311.92-.425 1.52-.726.592-1.105 1.398-1.155 1.945.639-.873 1.32-1.661 2.492-1.58zM97.499 44.119l1.17.332c-1.047.952-2.146 2.093-3.606 2.36-1.336.302-1.247-.235-1.093-1.035 0 0-.607.851-1.884 1.581-1.278.668-1.58.668-1.46.304.122-.365.122-.85.122-.85s-2.917 2.49-6.199.667c0 .081 3.769.942 6.382-1.702 0 0 .77-.069 1.498-.615 0 0-.696 1.185-1 1.914.882-.11 2.492-1.664 3.22-2.266-.216.396-.348.767-.295 1.25.036.322.312.488 1.135-.039 1.642-1.155 2.01-1.9 2.01-1.9z" fill="#cdc9c6"></path><path d="M55.925 30.835a.894.894 0 1 1-1.648.597c-.28.106-.559.216-.837.324-.039-.342.034-.658.383-.853a.63.63 0 0 1 .395-.458c.116-.22.33-.312.565-.3a.648.648 0 0 1 .613-.015.572.572 0 0 1 .432.02.728.728 0 0 1 .09.05c.016.009.031.022.047.033a.506.506 0 0 1 .387.102.49.49 0 0 1 .066.064v.001c.056.067.095.149.137.223l-.629.212z" fill-rule="nonzero"></path><path d="M54.941 31.186a.144.144 0 0 1 .051.111.153.153 0 0 1-.306 0l.002-.017-.169.06a.417.417 0 1 0 .78-.285l-.358.131z" fill="#fff" fill-rule="nonzero"></path><path d="M53.731 31.36a55.921 55.921 0 0 1 2.37-.862c-.072-.017-.144 0-.217.012-.163-.145-.276-.191-.508-.09-.197-.117-.334-.13-.532-.008-.21-.02-.34.02-.434.241-.233.077-.317.18-.348.42-.137.069-.266.134-.331.287z" fill="#c1c1c1" fill-rule="nonzero"></path></svg>