<svg xmlns="http://www.w3.org/2000/svg" width="600" height="400" viewBox="0 0 169.333 112.889" id="svg2" fill-rule="evenodd"><defs id="defs4"><style id="style6"/></defs><g transform="translate(45.156 79.022) scale(.08063)" id="g3023"><path d="M0 20v100h60v-20H20V20z" id="rect3023" fill="#9000cc"/><path d="M80 20v100h60v-20h-40V80h40V60h-40V40h40V20z" id="rect3004" fill="#9000cc"/><path d="M210 40v20h20c5.523 0 10 4.477 10 10s-4.477 10-10 10h-20v20h20c16.569 0 30-13.431 30-30 0-16.569-13.431-30-30-30zm20-40c-38.66 0-70 31.34-70 70s31.34 70 70 70 70-31.34 70-70-31.34-70-70-70zm0 20c27.614 0 50 22.386 50 50s-22.386 50-50 50-50-22.386-50-50 22.386-50 50-50z" id="path3029" fill="#9000cc"/><path d="M320 20v100h20V57.219L380 120h20V20h-20v62.781L340 20z" id="rect3051" fill="red"/><path id="rect3002" fill="#9000cc" d="M420 20h20v100h-20z"/><path d="M460 20v100h50c16.569 0 30-13.431 30-30V50c0-16.569-13.431-30-30-30zm20 20h30c5.523 0 10 4.477 10 10v40c0 5.523-4.477 10-10 10h-30z" id="path3053" fill="#9000cc"/><path d="M660 20l-20 20h30c5.523 0 10 4.477 10 10s-4.477 10-10 10c-16.569 0-30 13.431-30 30v30h60v-20h-40V90c0-5.523 4.477-10 10-10 16.569 0 30-13.431 30-30 0-16.569-13.431-30-30-30h-10z" id="path3071" fill="#9000cc"/><path d="M790 0c-38.66 0-70 31.34-70 70s31.34 70 70 70 70-31.34 70-70-31.34-70-70-70zm0 20c27.614 0 50 22.386 50 50s-22.386 50-50 50-50-22.386-50-50 22.386-50 50-50z" id="path3041" fill="#9000cc"/><path d="M880 40v80h20V20z" id="rect3068" fill="#9000cc"/><path d="M920 20v60h30c5.523 0 10 4.477 10 10s-4.477 10-10 10h-30l20 20h10c16.569 0 30-13.431 30-30 0-16.569-13.431-30-30-30h-10V40h40V20z" id="path3043" fill="#9000cc"/></g><path id="rect3912" fill="#d61a0c" d="M0 0h169.333v112.889H0z"/><path id="rect3910" fill="#fecc00" d="M0 75.259h169.333v18.815H0z"/><g transform="translate(21.59 -39.343) scale(1.27782)" id="g3067"><path d="M54.481 44.862a.481.481 0 0 1 .264-.13c.103-.01.234.062.308.116a6.388 6.388 0 0 1 2.266-.522c1.14-.051 3.094.115 4.112.948.814.664 1.076 1.668.846 3.038.164.065.295.285.237.453-.02.06-.09.15-.136.195.339.708.524 1.363.572 2.132.498.166 2.92.866 2.92 1.633.39.344.852.953.952 1.807.277.416.32.963.476 1.427.054.163.113.32.19.476.213.412.322.881.047 1.236.26.43.469.785.469 1.271.008.182.07.282.15.441.272.302.525.632.803.939.433.477.89.936 1.28 1.432.805 1.026 1.64 2.482 2.316 3.592.587.962 1.186 1.231 1.94 2.179 1.45 1.824 2.347 3.884 3.086 6.18.27.792.503 1.609.706 2.421.148.592.359 1.226.399 1.838.012.185-.005.373.008.6.047.767.329 1.586.64 2.27-1.687-1.087-1.893-2.243-2.379-4.042l-.285.57c-.423-.594-.478-1.12-.619-1.854l-.142.19c-.331-.51-.337-.986-.476-1.522-.047.095-.047.238-.095.38-.821-.801-.883-2.384-1.04-3.502-.134-.961-.335-2.07-.897-2.736.64 1.666.874 3.345.795 5.097l-.237-.095c.152.611.21 1.351 0 1.855.254.762.34 1.78.142 2.568.685 1.168 1.14 2.422 1.575 3.697.243.711.378 1.234.729 1.61.217.234.518.412.978.543.054 1.477.01 2.34-.125 3.59-.141 1.313-.439 2.72-.434 4.08.001.414.038.827.086 1.252.109.964.14 1.832-.098 2.78-1.139.214-2.037 1.04-2.33 2.044h-5.613c.39-1.415 1.64-2.306 3.33-2.378.067-.388.289-.77.57-1.141.756-.795 1.524-2.04 1.57-3.187.076-1.058.07-2.197-.077-3.26-.133-.972-.56-1.788-1.061-2.59-.488-.782-.815-1.664-1.145-2.521-.34-.918-1.088-1.699-1.902-2.283.228 1.12.22 1.895.118 2.808-.063.754-.027 1.495.236 2.21.11.302.216.572.074.88-.274.684-.668 1.366-1.047 1.997a86.228 86.228 0 0 0-1.41 2.5c-.816 1.534-1.574 3.336-1.92 5.063-1.203.448-2.478.89-3.176 1.902h-5.29c.33-1.398 1.298-2.127 2.645-2.366.367-.065.74-.107 1.065-.107.8-.207.696-.513.904-.904.145-.38.638-.722.935-.998.489-.489.89-.973 1.241-1.473.752-1.073 1.74-2.964 2.057-4.235.05-1.099-.156-2.936-.38-4.138-.318-1.01-1.463-2.651-2.015-5.018-.711-.714-1.296-1.605-1.878-2.42-.982.48-2.514 1.075-3.955.874l.142.428a7.268 7.268 0 0 1-1.379.048l.095.142c-.647.303-1.758.475-3.091.19.127.128.327.228.475.334-.902.044-1.807.086-2.71.047.74 2.356 1.033 5 .284 6.707.405 2.042.296 3.961.366 5.88.01.423.385 1.167.519 2.084.114.784.013 1.762-.219 2.69l-.047.238c-1.176-.333-2.613 1.698-2.973 1.997h-5.066c.2-.849.526-1.37 1.222-1.83a4.453 4.453 0 0 1 1.823-.69c.297 0 .415-.339.57-.571.291-.582.877-1.012 1.407-1.356.198-.129.392-.269.543-.452.238-.937-.083-2.827-.332-3.757-.172-.8-.418-2.234-.857-2.997-.286-.286-.61-.547-.69-1.032-.2-1.24-1.032-3.04-1.413-4.028-.315.838-.572 1.546-1.226 2.159-.21 1.773-.764 2.388-1.284 3.33-.289.522-.313.908-.381 1.365a25.22 25.22 0 0 0-.285 3.743c0 .524.005 1.08.047 1.598v1.332c0 .142.013.333 0 .475-.013.144-.149.257-.333.333-1.221.509-1.82 1.331-2.568 2.378h-5.453c.128-.84.527-1.647 1.286-2.081.517-.296 1.137-.414 1.741-.535l.238-.047c.254-.127.596-.452.64-.775.052-.373.275-.656.534-.91.216-.213.531-.473.81-.72.244-.217.585-.508.651-.856.164-.864.24-2.51.32-3.227.178-1.607.135-2.256-.72-3.596.208-1.301.218-2.326-.047-3.656a1.9 1.9 0 0 1-.523.327c.094-.28.02-.9 0-1.19-.319.235-.653.42-1 .572.22-.381.442-1.023.429-1.522-.373.306-.749.47-1.19.618.656-.696.844-1.294.714-2.188-.115-.574-.252-1.065-.538-1.545-.489 1.228-1.158 2.042-1.718 3.068-.543.99-1.041 2.274-.978 3.376-.27-.431-.614-.976-.713-1.474-.186.371-.154 1.15-.19 1.426-.218-.3-.509-.557-.667-.903a2.954 2.954 0 0 1-1.855 1.997c.4-.635.756-1.419.619-2.188-.183.733-.302 1.273-.904 1.76-.146-.764-.526-1.192-1.19-1.855-1.268-1.015-2.752-2.58-3.138-4.09 0 .825.047 1.316.237 2.14-1.09-1.09-1.997-2.644-1.997-4.233-.147.513-.175 1.016-.19 1.522-.525-.723-.918-2.37-.714-3.377-.314.421-.568.579-.999.761.51-1.045.67-1.806.619-3.044-.226.334-.556.635-.87.88.275-1.146.348-2.5.394-3.695.036-.946.115-1.874.476-2.797a2.721 2.721 0 0 1-.524.285v-.19a3.784 3.784 0 0 1-.903.665c.093-.216.136-.462.238-.665-.32.372-.712.519-1.19.618.478-.597.666-1.317.666-2.093 0-1.293-.337-2.857.428-3.995-.46.114-.864.408-1.284.618-.432.325-.81.309-1.189-.095-.07-.105-.333-.464-.333-.57-.532.05-.92-.06-1.136-.58-.256-.616.038-1.313.448-1.817.364-1.367 1.42-1.767 2.74-2.323a15.08 15.08 0 0 0 1.829-.922c.85-.501 1.773-1.343 2.03-2.323.146-.566-.061-1.014-.394-1.453.357.107.68.248 1 .475.139-.278-.079-.791-.19-1.046.352.087.949.56 1.188 1.094.141-.209.151-.841.143-1.047.385.566.758 1.161.889 1.788.3-.357.323-1.087.395-1.55.47.46.727 1.03.856 1.665.246-.454.334-.746.428-1.237.235.313.524.832.524 1.237.231-.232.313-.65.38-.951.263.38.434.922.428 1.427a7.77 7.77 0 0 0 .714-.524v.809l.38-.476c.113.34.153.791.095 1.142l.286-.19c.1.349.048.605 0 .903l.19-.047c.023.262-.006.653-.048.951.783.127 1.357.895 1.702 1.548.245.465.647 1.494.724 2.162.234.704.296 1.763.222 2.272.176.852.286 1.65.159 2.437l-.333-.19c0 .428 0 .856-.048 1.284.887-2.4 1.79-4.287 3.662-6.184.948-.959 2.154-1.956 3.378-2.568.374-1.31 1.045-3.042 2.217-3.81.07-.868.299-1.69.578-2.392-.2-.149-.228-.324-.062-.533-.294-.618-.386-1.22-.249-1.838.473-2.12 3.015-2.74 4.834-2.726 1.095.01 2.258.194 3.504.535z" id="_155105856" fill-rule="nonzero"/><path d="M33.86 54.294c-.095.285-.333.666-.808 1.094-.524.428-1.285.285-1.285.285 1.17-.106 2.046-1.09 2.046-2.188l-.182.19c-.138.555-.722.93-1.245 1.047.949-.593 1.254-1.26 1.141-2.045l-.523.523v-.904c-.174.144-.292.269-.467.38-.09.547-.199.952-.294 1.142.238-.047.428-.047.476.048.095.143-.19.428-.333.618-.19.19-.761 1-1.284 1.237-.571.238-1.19.19-1.523 0 .772-.048 1.291-.677 1.808-1.19-.72-.047-1.497.155-2.14.477.597-.683 1.628-.788 2.473-.619-.324.77-.91 1.06-1.284 1.284 0 0 .475-.047.999-.475.57-.428.665-.951.998-1.19 0 0-.38.048-.856 0-.428 0-1.284 0-1.76.191-.475.143-.951.523-.951.523.178-.625.845-.753 1.276-.856.444-.889.63-2.192.008-3.044-.087.618-.159.875-.52 1.237.187.935-.28 1.879-1.002 2.473.777-1.067 1.148-2.333.238-3.805-.033.586-.313.924-.285.951.05 0-.393-.838-.767-1.203.026.238.029.51-.09.727.19.19.524.619.666 1.285.238 1.094-.57 1.664-.57 1.664.285-.475.428-1.046.333-1.617-.048-.428-.37-1.007-.571-1.236-.137-.157-.302-.265-.476-.381.512 1.479-.964 2.9-2.11 3.556-.593.339-1.221.612-1.79.915-.476.19-.904.38-1.332.618-.808.428-1.094 1-1.189 1.285.143-.143.38-.333.57-.428.334-.19.81-.333 1-.286.237 0 .237.333.047.476-.19.143-.618 0-1.094.238-.333.142-.713.475-.903.666-.19.333-.333.808-.19 1.189.19.475.618.475.855.428.286-.19 1.047-.666 1.475-.952.57-.38 1.332-.76 1.427-.808.047 0 .143.19.19.238.048.095.286.285.143.38-.143.143-.428 0-.619 0-.19 0-.428.048-.618.143-.163.098-.687.421-1.044.644-.494.309-.943.46-.335 1.068.095.143.333.333.808 0a6.17 6.17 0 0 1 2.379-.999c-1.353 1.365-1.142 2.716-1.142 4.614 0 .714-.143 1.284-.285 1.617.333-.238.845-.68.893-2.011.047-1.38.39-3.601 1.247-4.172-.999 1.617-.816 3.496-.911 4.448-.143.999-.373 1.497-.42 1.592.423-.356.668-.868.86-1.36.623-1.599.382-2.512 1.137-3.824-.68 1.807.083 2.378-1.332 4.947 1.305-1.214 1.97-3.153 1.95-4.995.238.81.01 1.904.01 1.904.385-.502.612-1.411.737-1.846l-.224-.343c.542.397 1.44.423 1.855.238 0 .016-.427-.073-.808-.428.856.19 1.375-.086 1.565-.276-.047 0-.757.038-1.327-.438 1.144.361 1.444-.165 1.522-.214 0 0-.761-.024-1.237-.547 0 0 .809.38 1.427.333.666-.095.999-.475.999-.475s-.714.285-1.665-.238c.993.366 2.427.018 2.845-1-.553 0-1.184-.132-1.656-.427 1.903.336 3.2-.301 3.164-2.13l-.12.037zm-3.455-.45c.428-.048.652-.037.937-.037.24-.815.399-1.707-.003-2.51-.132.443-.244.665-.562.93-.034.495-.11 1.184-.372 1.616zm1.145-.026c.17 0 .294-.01.458-.01.25-.574.402-1.63.187-2.225-.118.317-.192.383-.408.599.048.428-.056 1.287-.237 1.637zm14.504.451a9.142 9.142 0 0 1-.156-2.158c-1.018.86-1.618 2.435-2.006 3.682a13.935 13.935 0 0 0-3.463 2.628c-1.126 1.174-1.869 2.372-2.43 3.388-.73 1.427-1.725 4.376-1.95 6.707l-.572-.095c.94-1.882.908-5.814.952-5.803l.349.206c0-1.855-.587-2.727-.587-2.727.164.138.323.227.402.45a4.64 4.64 0 0 0-.688-2.59c.124.038.33.307.38.38-.06-.587-.34-1.27-.667-1.843-.338-.595-.758-1.27-1.486-1.391-.25.783-.662 1.395-1.699 1.522l.333.095s-.428.999-1.094 1.237c0 0-.452.68-1.213.822 0 0-.309.32-.547.414h.476s-.329.652-1.232.7l.38.19s-.765.641-1.812.26c0 0-.38 1.704-.998 2.18 0 0-.38 1.331-1.142 2.188-.285.76-.666 1.997-.666 3.377 0 1.379-.142 2.33-.238 2.901.23-.23.366-.484.524-.761.334 1.037.26 1.971-.095 2.996.518-.57.977-1.505 1.09-2.727.135 1.207-.303 1.864-.396 2.585-.095.904.019 1.807.21 2.378.094-.618.332-1.57.808-2.283-.396 1.845-.037 3.595 1.094 5.137-.143-.999.142-2.426.523-2.854-.5 2.284 1.365 3.934 2.949 5.517.525.42 1.021.971 1.237 1.618.261-.393.427-.943.492-1.418.08-.588-.2-1.438.221-1.96 0 0-.238 1 .143 1.713.38.76.142 1.38-.095 1.95 1.01-.821 1.214-1.812 1.046-3.044.247.522.18 1.37.618 1.807-.03-.714.472-1.394.666-2.093.002.66-.12 1.259.238 1.856.134-.803.6-1.806.997-2.477 1.296-2.192 2.574-3.658 2.047-6.37.666 1.57 0 3.186 0 3.186s.428.476.666 1.76c.143.666 0 1.19-.143 1.57.143-.095 1.38-1.237 1.047-4.614.523 3.14-.428 4.28-.428 4.28.047.381-.048 1-.143 1.333 0 0 .999-.571 1.237-1.57 0 .714-.571 1.38-.571 1.38.05.333.092.641.095.927.095-.096.666-.69.999-2.117-.143 1.475-.571 1.95-.571 1.95.523 1.19.19 3.52.095 3.9.919 1.25.902 2.289.734 3.644-.034.464-.077 1.01-.126 1.535-.093 1.005-.208 1.939-.322 2.099-.096.19-.333.38-.666.666-.238.19-.476.428-.761.713-.333.333-.38.523-.428.761-.11.442-.455.8-.834 1.033-.498.304-1.293.681-1.562 1.028-.285.38-.395.88-.405 1.079h3.99c.333-.571.903-1.19 1.379-1.618.38-.333.714-.523.951-.618.19-.095.38-.19.38-.285.048-.096.048-.761 0-1.522 0-.524 0-1.142-.047-1.808 0-1.902.333-3.9.428-4.47.048-.429.286-.81.571-1.333.567-.756.904-1.867.999-2.806.681-.617 1.126-1.803 1.341-2.645 1.44-1.636 1.349-4.56.657-6.487.436.667.67 1.627.732 2.549.288-1.186.35-2.62.029-3.69.15.177.239.345.325.617.66-2.197-.338-4.212-.632-4.85.743 1.141 1.576 2.825.782 5.279a9.014 9.014 0 0 1-.428 3.377c1.665.76 4.424.713 5.47.666-.152-.152-.286-.358-.428-.524 1.092.243 2.225.42 3.33.143l-.619-.618c.614.238 1.35.343 2.045.285l-.19-.475c1.356.23 3.016-.228 4.22-.839-1.921-3.29-2.194-7.25-1.52-11.056-1.13.503-2.53.551-3.848.306-1.826-.34-3.653-.098-5.418.415-2.746.798-5.48-.294-6.181-3.032-.637-2.485-.03-5.381.827-7.794zm6.199 36.078c-.057-1.878.02-3.89-.339-5.746a15.476 15.476 0 0 0-1.169-3.624s.933 1.408 1.313 3.072c.286-.856.257-1.597.257-2.025-.095-.523-.333-1.38-.904-2.093.377.263.724.557.87 1.011-.104-1.284-.468-2.54-.658-3.206-1.142-.047-2.293-.237-3.292-.666-.02 0-.013 1.682-1.2 3.194.237.523.57 1.332.903 2.14.428 1 .571 1.76.666 2.188 0 .416.42.605.619.904.285.333.618 1.522 1.046 3.662.38 1.903.333 2.997.19 3.377-.095.238-.38.38-.666.571-.575.345-1.077.823-1.38 1.427-.143.192-.332.523-.617.523-1.19.619-1.665 1.57-1.808 2.046h3.567c.633-.692 1.593-2.027 2.902-2.093.223-.934.32-1.895.209-2.567-.123-.734-.423-1.288-.509-2.095zm24.89-6.563c-.19 0-.523-.143-.856-.428-.333-.286-.584-.952-.87-1.808-.325-1.301-.97-2.611-1.582-3.778.263-1.46-.066-2.773-.83-3.642.476.286.809.683.809.683.01-1.105-.239-2.047-.952-2.728.344.21.724.522 1.035.979.081-2.758-.713-4.557-.989-5.224a9.53 9.53 0 0 0-.696-.538c.527 1.251.739 3.052.106 4.334l-.108-.141c.19 1.427-.077 2.387-.116 2.414l-.109-.207c.095.904-.407 1.76-.407 1.76l-.142-.095c.095.76-.238 1.522-.238 1.522l-.095-.19c-.095.998-.761 2.473-1 2.949 1.38.866 1.91 1.798 2.214 2.498.373.86.56 1.768 1.164 2.543.333.476.904 1.618 1.046 2.616.143.904.143 1.903.048 3.473-.048 1.379-1.237 2.806-1.665 3.281-.22.347-.44.71-.463 1.134-1.09.282-1.956.832-2.47 1.91h4.312c.619-1.569 1.903-1.95 2.331-1.997.19-.856.095-1.713.048-2.569a11.695 11.695 0 0 1-.095-1.236c0-1.094.237-2.854.428-4.138.094-1.132.142-2.24.142-3.377zM62.95 51.407c.009.4-.02.733-.083 1.133 1.56 2.959 1.423 7.501-.519 10.39-.39.582-.837.955-1.374 1.258-.883 4.701-.307 9.716 3.102 13.364-.482-2.038-1.297-4.946-1.297-4.946 1.094 2.569 1.617 5.708 2.52 7.896.334.808 1.095 2.235 1.19 2.568 0 0 .523 3.235.333 4.233-.19.952-1.142 3.14-2.093 4.376a12.611 12.611 0 0 1-1.95 2.093c-.388.583-.303 1.207-1.284 1.332-.095 0-.238.047-.333.047-1.475.428-1.958 1.57-2.148 1.95h3.813c.285-.428 1.046-1.189 3.139-1.854.143-.476.666-2.76 1.95-5.042.523-.999 1.046-1.855 1.427-2.569.618-.998.999-1.712 1.046-1.95 0-.142-.047-.333-.142-.618a5.813 5.813 0 0 1-.238-2.283c.145-1.129.003-2.033-.143-3.044.537-.865 1.171-3.16.999-4.138l.259.613c.134-.63.096-1.213-.021-1.802l.353.596c.262-.419.352-1.767.217-2.547l.246.732c.162-.516.157-1.964-.246-2.73.249.207.412.47.517.711.53-1.54.13-3.08-.612-4.753l1.713 1.332c.665.713 1.077 1.766 1.31 3.282.152.983.13 2.056.64 2.949 0-.143.333-1.094.333-1.094 0 .285.19 1.902.38 2.33l.333-.713v.76c.048.286.143 1.095.38 1.57.133-.298.27-.57.429-.856.287 1.421.549 2.992 1.665 4.09-.19-.523-.381-1.284-.333-2.092 0-.143-.238-1.522-1.094-4.186-.904-2.758-1.95-4.804-3.14-6.183-.596-.656-1.505-1.346-1.902-2.14-.286-.476-1.475-2.569-2.236-3.473-.696-.795-1.459-1.58-2.093-2.425-.19-.238-.239-.524-.237-.761 0-.208-.4-1.223-.809-1.57.157-.078.39.104.476.19.181-.545-.22-1.149-.761-1.284 0 0 .047-.143.428 0-.276-.828-.231-1.59-1.142-2.045 0 0 .238-.143.571.143-.143-.619-.665-1.33-1.284-1.57 0 0 .095-.048.333-.048-.186-.186-.782-.668-2.588-1.222z" id="_155289256" fill="#c1c1c1" fill-rule="nonzero"/><path d="M63.738 76.185c-.451-1.767-.96-3.579-.96-3.579l-.174-.914s1.84 4.243 2.839 6.907c.95 2.664 1.854 4.138 1.854 4.138-.38 1.19-.142 3.187-.142 3.187.618-1.237 2.14-2.188 2.14-2.188.001-.74.165-1.343.19-2.093.048-.856-.095-1.855-.095-2.14.704-1.6 1.12-3.26.904-5.28.277.313.5.71.666 1.19.013-.944-.357-2.159-.428-2.141.132.076.224.142.354.366.475-2.426-.26-3.98-.26-3.98.524.284.857.665.857.665.38-2.901-1.237-5.375-1.237-5.375l.571.143c-.238-.618-1.284-2.093-1.76-2.759-.475-.666-1.379-1.664-1.855-2.473-.52-.983-.393-2.158-1.24-2.95.175-.003.351.03.527.096.047-.76-.793-1.542-.793-1.542.155-.039.387.013.516.078-.092-.822-.459-1.404-.96-1.675l.571-.048c-.238-.856-1.284-1.284-1.284-1.284l.333-.19a24.62 24.62 0 0 0-1.495-.41c.725 1.476 1.584 3.71 1.542 5.927-.047 2.378-1.236 4.852-1.95 5.565-.666.714-1.427 1.19-1.712 1.522-.286.286-.428 2.093-.428 2.093l.38-1.332c-.023 0-.107 1.855-.285 2.902l.285-.666c.143 1.094.048 2.473.095 3.33l.19-.952s.286.523.286.904c.048.38.238 1.95.666 3.234l.048-.999s.313 1.299 1.244 2.723zm-29.596-21.08l-.01-.002v.001h.01zm-1.056 26.258a3.26 3.26 0 0 0 .03-.186c.037-.275-.004-.607-.015-.935-.058-.78.234-.999.426-1.405 0 0-.047 1.094.048 1.38.142.332.285.95.285.95.428-.713.57-2.045.904-2.9.38-.857 1.141-1.618 1.141-1.618-1.141 1.807-.856 4.043-.856 4.043.143-.523.714-1.38.714-1.38.142-1.426 1.855-3.805 2.283-4.66.428-.904.666-2.379.666-2.379l.523.476c.05.557.13 1.107.047 1.665l.143.475a1.62 1.62 0 0 0-.048.809l.19-.523.236.574c-.19.618-.047.904-.047.904.047-.333.19-.57.19-.57l.193.709c-.143.428-.19 1.236-.19 1.236.332-.428.618-1.664.665-2.14a7.823 7.823 0 0 1-.01.287c.033-.494.027-1.062-.037-1.714.125.754.166 1.391.155 1.927.128 1.312-.078 2.924-.155 2.925.222-.183.468-.484.65-.75l.016-.059-.001.037c.055-.08.103-.158.143-.227.048.856-.333 1.76-.333 1.76.258-.32.58-.986.71-1.37h.001l.003-.01-.002.012.192.273-.38 1.475.285-.428.047.57c-.19.333-.285.952-.285.952l.333-.619.048.38-.238.81.285-.333c.238 2.425-.047 2.9-.047 2.9s.475.572.57 1.428c.095.856-.285 3.853-.38 5.137-.095 1.284-.951 1.427-1.665 2.093-.76.713-.904 1.379-.904 1.379h.38c.381-1.237 1.475-1.57 1.475-1.57-.808.523-1.141 1.617-1.141 1.617l.57.048c.381-.999 1.332-1.189 1.332-1.189-.76.38-1.094 1.237-1.094 1.237.571.237.952.095 1.522-.238.571-.38.428-1.284.38-2.569-.047-1.284.048-3.71.191-4.47.143-.762-.095-.952-.095-1.095 0-.19.095-.333.476-1.236.38-.904.475-2.997.475-2.997.524 2.14-.285 3.472-.285 3.472 1.284-1.522.856-3.424.856-3.424 2.045-1.95 1.237-4.043 1.237-4.043.19 1.902-.523 2.663-.523 2.663-.19-2.235-1.523-3.662-1.523-3.662 1.047 2.236.048 4.233.048 4.233s.143-1.57-.76-2.806c-.952-1.237-1.475-2.759-1.618-3.615-.143-.856 0-1.665 0-1.665-1.903-.333-1.665-2.996-1.665-2.996-.333.333-.76.999-.76.999-.714-1.522-.048-4.614-.048-4.614l-.429.285c-.047-1.617.952-4.043.952-4.043-.333.238-.809.571-.809.571.38-1.95 2.426-4.804 2.426-4.804-1.85 1.908-2.884 4.215-3.404 5.701-.406 1.159-.623 2.405-1.056 3.549-.554 1.466-1.817 1.289-2.407-.078-.293-.677-.27-1.457-.315-2.18.142.048.421.245.421.245-.095-.285-.34-.917-.34-.917.143.047.442.196.442.196-.095-.333-.38-.958-.38-.958.332.096.523.197.523.197a6.05 6.05 0 0 0-.428-.856c.224.007.523.19.523.19-.143-.429-.476-.998-.476-.998.19.047.57.333.57.333-.284-1.332-1.14-2.379-1.14-2.379.57.238 1.046.857 1.046.857.047-.238-.048-.761-.048-.761.19.142.523.38.523.38-.142-.38-.95-1.332-.95-1.332.285.143.808.428.808.428-.19-.428-.476-.523-.476-.523.19-.999-.713-1.665-.713-1.665.618.096 1.141.476 1.141.476-.142-.285-.523-.618-.523-.618.048-1-.761-1.38-.761-1.38a3.36 3.36 0 0 1 1.284.333c-.523-.57-1.094-.76-1.094-.76l-.76.475-.239.19c-.618.904-2.473 2.521-4.043 3.948-1.617 1.522-2.378 3.52-2.9 5.232-.524 1.712-.191 4.376-.191 4.376l.428-1.237c.333 1.142.095 2.188-.048 2.902-.095.713-.047 1.712-.047 1.712.428-1.284 1.236-2.33 1.236-2.33.048.665-.285 1.046-.333 2.568a6.058 6.058 0 0 0 .571 2.71c.286-1.854 1.237-2.9 1.237-2.9-.761 3.139 1.189 5.041 2.52 6.183 1.333 1.141 1.38 1.712 1.38 1.712.15-.113.242-.285.32-.47zM40.85 79.3c.09-.12.173-.252.242-.397l-.001-.002a2.638 2.638 0 0 1-.24.399zm-3.247 17.374h2.954c.146-.267.633-.874.908-1.068 0 0-1.553-.274-2.373-.081-.902.213-1.388.508-1.489 1.15zm14-16.932s-.096-.809-.286-1.19c0 0-1.95-.095-2.426-.237 0 0-.095 1.379-.38 2.093 0 0 .333 1.76.523 2.473.238.713 1.141 2.71 1.522 3.567.38.856.761 2.95.809 4.471.047 1.475 0 2.14 0 2.14l.095.381s-.761.095-1.427.57c-.666.524-.97 1.053-.97 1.053l.565-.029s.88-1.07 1.641-1.261c0 0-.966.832-1.156 1.26l.824.093s.285-.307.428-.402c.19-.095.57-.142.665-.238.096-.047.429-.95.333-1.76-.047-.808-.475-1.76-.618-2.14-.095-.428-.047-1.665-.143-2.71-.142-1.047-.285-2.236-.237-2.997.047-.714-.048-1.95-.333-2.712-.286-.76-1-1.76-1-1.76l.286-.095s.951.714 1.284 1.475c0 0-.047-1.522-1.427-3.044h.381s.57.285 1.046.999zM46.85 96.674h2.36c.266-.434 1.181-1.163 1.223-1.138 0 0-.704-.12-1.476-.069-.857.057-1.682.261-2.107 1.207zm13.6-23.02c-.762.713-2.426.76-2.426.76l.047.238c-.666.38-1.76.143-1.76.143l.048.19c-.476.523-2.236.428-2.236.428-.618.523-2.045.096-2.045.096l.048.285c-1.426.69-2.985-.31-3.387-.635a9.13 9.13 0 0 1-.113.658c1.033.361 2.263.452 2.263.452l2.188.81-.9-.783 1.602-.074 2.152.476-.96-.619 1.014-.095 1.658.428-.631-.576.731-.14 1.317.253-.744-.481.76-.192 1.23.232-.686-.4c.76-.286 1.4-.408 1.4-.408l-.57-1.047zm-12.605-3.996s.523.951.428 2.045l-.713-1.141s.19-.619.285-.904zm-.428 1.38c.026-.013.778 1.085.713 1.902 0 0-.333-.618-.666-1.046 0 0 .286.906.38 1.477 0 0-.617-1.097-1.14-1.24.081 0 .71 1.237.618 1.95-.214-.737-.668-1.76-1.057-2.322.338.194.989.072 1.152-.722zm-.286 5.327s-.808-2.521-1.95-3.044c0 0 1.427 3.186 1.142 4.994 0 0-.809-1.808-1.522-2.236 0 0 .999 1.903.713 3.568 0 0-1.094-2.76-2.52-3.71 0 0 .523.998.76 1.95.238.951.333 1.807.286 2.188 0 0-.476-1.475-1.19-2.426-.713-.999-1.331-2.759-.95-4.186 0 0 1.379-.142 1.664-1.57.065.26.382 1.095 1.17.857.677-.205.828-.714.97-1.094-.04 0 1.506 1.474 1.427 4.709zm23.69 20.31h3.097c.142-.503.437-.82.8-1.19-1.573-.255-3.01.07-3.897 1.19zm4.944-13.128s.713.713.808.903c.048.143-.237 2.14-.285 2.474l-.999-.761s.476 1.284.57 2.616c.096 1.332.191 2.901.191 3.71.048.76.143 2.093-.523 2.33-.666.238-1.807-.047-1.807-.047s1.284-1.903 1.331-3.71c.095-1.808-.095-4.376-.475-5.66 0 0 .713.142 1.094.523 0 0 .285-1.094.095-2.378zm-3.092-8.371s.238.856.38 1.189c.191.38.238 1.331.619 2.378.38 1.046 1.284 3.33 1.237 3.9 0 .618-.524 1.95-.524 1.95s-.665-.76-1.046-1.712c-.38-.904-1.094-2.093-1.332-2.473-.285-.381-.285-1.618-.047-2.474.237-.904.713-2.758.713-2.758zM59.56 65.422c-.887-.146-1.995-.11-2.868-.093-1.903.037-4.804 1.236-7.42.856-2.711-.38-4.709-2.378-4.661-4.804 0-1.456.233-2.398.457-3.134.173-1.373.548-2.739.987-3.978a7.257 7.257 0 0 1-.086-.516c-.215.103-.43.287-.645.589-.951 1.236-.761 1.902-.761 1.902s-.476.286-.523.904c0 0-1.237 0-2.664 2.093-1.427 1.997-1.665 3.472-1.665 3.472l.904-.333s-1.141 1.95-1.284 3.757l.761-.38s-.856 2.52-.618 4.518c0 0 .713-.808.903-.903 0 0-.428 3.139 1.094 3.234 1.57.143 1.998-1.38 2.14-1.903.073.418.42 1.682 1.076 1.36.725-.357.732-1.312.732-1.312s.428.856 1.047.618c.618-.285 1.379-1.76.998-4.328.551.664 1.061 1.648 1.36 2.697.335.974.455 2.183-.028 3.677.02.31.025.621.012.934.325.419 1.071 1.247 2.319 1.158 0 0-.666-.285-.952-.618 0 0 .857.048 1.237-.047 0 0 .856.428 1.665.333l-.999-.429.761-.19s1.427.619 2.378.333l-1.712-.57 1.332-.334s1.189.666 2.283.571c0 0-1.38-.523-1.808-.76l1.094-.286s1.427.57 2.379.19l-1.903-.428.713-.428s1.475.143 2.093-.143l-1.57-.095.381-.428s.856 0 1.475-.333l-1.19-.048s.238-.428.286-.665c0 0 .57-.048.951-.19l-.856-.143c.277-1.791.384-3.57.395-5.377zm17.156 10.751c-.148-.81-.184-1.604 0-2.48-.44.269-.542.684-.666.958-.17-.932-.264-1.85-.217-2.788-.325.324-.485.804-.591 1.219 0 0-.143-1.19-.333-1.998-.19-.809-.38-1.665-1-3.092 0 0 2.76 4.138 3.378 7.183 0 0-.333.523-.57.998zm-9.37 13.413c-1.617 2.379-2.711 4.376-2.711 4.376s.951-.951 1.332-1.474c0 0-.38.999-.428 1.284-.095.285.095.951-.333 1.094-.476.19-1.332-.19-1.76-.618 0 0 1.38-1.142 2.14-2.616.714-1.475 1.903-3.758 1.903-3.758v.904s.903-1.427 1.046-1.998c.143-.57-.047-1.094-.523-.713-.476.333-.428-.333-.095-.666.666-.666 1.617-.809 1.617-.809s.238.618.333.809c0 0-.904 1.76-2.521 4.185zm-5.042 7.087H59.87s.19-.789 1.388-1.085c1.228-.303 2.031-.087 2.378.039-.432.122-1.2.746-1.332 1.046zm15.268-20.547s.38 1.094.428 1.997c0 0-.428-.665-.428-1.997zM33.207 54.974c.378-.4.606-.93.606-1.489l-.182.19a1.245 1.245 0 0 1-.41.632.204.204 0 0 1-.027.035l.001-.013-.029.023c-.336.424-.828.465-.828.465.523.095.809-.095.809-.095-.476.523-1.237.476-1.237.476a3.12 3.12 0 0 1-.428.428c.72-.068 1.332-.342 1.725-.652zm.33-2.226l-.01-.071-.146.146c-.086.546-.278 1.105-.71 1.471.613-.35.847-.934.865-1.546zm-.533.357v-.809c-.07.058-.131.113-.191.166-.024.653-.125 1.071-.142 1.071.095-.095.238-.238.333-.428zm-3.425 2.616c.322-.02.6-.142.853-.313-.345.145-.74.218-1.28.218 0 0 .475-.143.855-.333.429-.19.666-.476.952-.57 0 0-.238-.096-1.047.237-.76.333-.856.523-.856.523a1.656 1.656 0 0 0-.329-.323c.272-.28.7-.46 1.049-.566.58-.305 1.313-.33 1.944-.205-.324.77-.91 1.06-1.284 1.284 0 0 .475-.047.998-.475.571-.428.666-.952 1-1.19 0 0-.381.048-.857 0-.428 0-1.284 0-1.76.19-.475.144-.951.524-.951.524a.933.933 0 0 1 .312-.474c.063-.104.19-.267.354-.43.333-.285.951-.618.713-2.14 0 0-.265.62-.583 1.005-.066.716-.474 1.387-1.034 1.849-.102.078-.212.14-.333.19l-.19-.238c.703-.79.801-2.209.292-3.202a5.584 5.584 0 0 0-.296-.462c.031.274.004.549-.04.823.13.217.255.498.33.844a1.636 1.636 0 0 1-.45 1.559 1.33 1.33 0 0 1-.026.058c-.143.238-.286.428-.381.57 0 0-.19 1-.999 1.285-.76.238-1.664.047-2.378.333-.666.285-3.472 1.712-3.615 2.283-.19.57.333.57.571.523.285-.095.809-.476 1.284-.761.46-.23 1.097-.548 1.397-.484l.078-.04c.047 0 .142.191.19.238.048.096.285.286.143.381-.13.13-.38.022-.568.002a.942.942 0 0 0-.431.188c-.424.212-1.338.839-1.5 1.074-.05.075-.008.203.016.283.033.112.067.212.152.213.095 0 .374-.135.666-.286.283-.146.864-.456 1.237-.58.305-.101.859-.09.976-.053.016.005.029.015.029.033-.002.076-.206.307-.292.695-.095.38-.38 1.523-.428 2.807 0 0 .285-1.332.523-2.236.238-.856.428-1.284 1.047-1.427 0 0-.38.809-.524 1.332-.142.57-.19 1.284-.19 1.284s.618-2.045.951-2.71l.38-.096s-.522.951-.808 1.903c-.285.998-.285 1.379-.428 2.187 0 0 .38-1.189.714-2.378.285-1.141.76-1.807.76-1.807l.048.19s-.095.238-.238 1.094c-.095.904-.237 1.903-.57 3.044 0 0 .57-.999.666-1.95.095-.951.237-2.093.237-2.093l.238.238c.095.19.19.57.19.856.045.36-.037.847-.207 1.341a5.774 5.774 0 0 1-.035.278c.241-.276.604-.986.29-2.332.428.285 1.046.57 1.665.666h-.001c.139-.016.263-.046.362-.087-.98-.139-1.782-.634-2.597-1.293l.476-.19s1.38 1.332 2.52.856c0 0-.618.238-2.425-.904 0 0 .428-.19.713-.38 0 0 1.144.787 2.066.611a.94.94 0 0 0 .218-.064s-.278-.01-.604-.132c-.341-.058-.882-.203-1.584-.51 0 0 .237-.19.38-.38.777.388 1.648.699 2.526.655.314-.144.47-.323.47-.323s-.405.162-1.013.018c-.646-.065-1.286-.284-1.888-.493l.238-.286c.01.014 2.87 1.047 3.661-.48a3.528 3.528 0 0 1-.975-.188c-.383-.035-1.565-.324-2.4-.05.096-.332.142-.804.142-.804.174 0 .35-.034.523-.047zm2.195.75c1.29-.014 2.136-.637 2.203-1.97a3.493 3.493 0 0 1-.204.527c-.872 1.636-3.337 1.169-3.337 1.169.562.16.99.247 1.338.275zm-10.518.391c.251-.143.584-.26.814-.288.192-.095.57-.236 1.088-.377a15.88 15.88 0 0 0 1.808-.619c.69-.281 1.59-.576 2.089-.963.953-.74 1.17-2.157.432-3.127 0 0 .095.951-.38 1.664a4.887 4.887 0 0 1-.931 1.004c-.54.455-1.27.905-1.924 1.232-1.141.57-1.855.713-2.854 1.38-.047.047-.095.047-.142.094zm10.938-5.274a1.256 1.256 0 0 1-.188.36c.043 1.168-.144 1.775-.144 1.775.371-.649.37-1.49.332-2.135zm-.665.256a2.26 2.26 0 0 0-.19-.546l-.045.145c.158 1.25-.316 2.185-.335 2.185.5-.545.565-1.265.57-1.784z" id="_154729208" fill="#fff" fill-rule="nonzero"/><path d="M54.122 47.393c-.09-.243.177-.53.427-.452a61.166 61.166 0 0 0-.137-1.786c-1.218-.333-2.374-.536-3.438-.544-1.545-.013-4.135.607-4.555 2.49-.119.535-.024 1.1.233 1.647 2.33-.859 4.966-1.266 7.47-1.355zm1.111 9.626c-.072.092-.21.182-.334.176-.083-.003-.203-.079-.262-.127-1.213.651-2.553 1.04-3.93 1.037-1.929-.005-3.4-.753-4.213-2.535-.11-.24-.236-.58-.314-.838-.737 2.226-1.238 4.931-.7 7.17.621 2.594 3.208 3.71 5.837 2.946 1.815-.527 3.693-.796 5.57-.446 1.994.372 4.024.113 5.246-1.65 1.827-2.64 1.92-7.083.666-9.723-.032.134-.102.37-.14.503-.7 2.369-1.992 3.819-4.874 3.84-.765.006-1.6-.096-2.552-.353zm-.607-8.523c-.257.172-.575-.117-.516-.377-2.523.081-4.976.45-7.363 1.354-.688 1.668-.842 4.151-.01 5.972.76 1.664 2.188 2.377 3.99 2.377 1.322-.001 2.653-.38 3.817-1.008v-.01c.13-2.766.188-5.54.083-8.307zm1.183-.396c.07.24-.19.513-.435.434.102 2.732.047 5.47-.08 8.2.937.253 1.776.363 2.52.354 1.482-.018 2.924-.56 3.752-1.82v-.002l.001-.002h.001a6.89 6.89 0 0 0 .84-1.872c.415-1.466.348-3.023-.322-4.383-.602-.206-1.234-.355-1.863-.493-1.471-.323-2.924-.406-4.415-.416zm-.51-1.124c.261-.168.588.136.508.4 1.522.017 3.07.123 4.557.408.552.106 1.107.26 1.642.433.194-1.221-.045-2.137-.748-2.711-.955-.778-2.878-.932-3.924-.885a6.242 6.242 0 0 0-2.177.48c.057.625.104 1.25.142 1.875z" id="_154615512" fill="#e08600" fill-rule="nonzero"/><path d="M46.687 49.259a21.825 21.825 0 0 1 2.004-.64c1.857-.492 3.693-.682 5.591-.73l.169-.152-.14-.125c-1.902.06-3.848.32-5.677.804-.653.173-1.406.357-2.032.592-.06.023-.126.091-.096.174.028.081.122.1.18.077zm8.938-1.383c1.567.005 3.099.081 4.644.407.58.122 1.272.305 1.857.503.09.03.154-.022.17-.09.017-.067-.015-.15-.117-.184-.59-.198-1.28-.367-1.859-.489-1.524-.32-3.13-.415-4.695-.424l-.153.138.153.14zm-.561 8.966l.001-.018c.133-2.827.19-5.644.076-8.463l-.18-.162-.121.11c.117 2.833.06 5.665-.073 8.507v.017c.005.089.074.136.145.139.07.002.141-.04.152-.13zm.018-9.676a61.787 61.787 0 0 0-.15-2.03c-.019-.205-.316-.182-.298.018.06.653.108 1.306.146 1.959l.181.163.121-.11zm-.563 1.131l.275-.249-.177-.16-.258.234c-.133.12.04.283.16.175zm.786-.71l.257-.233c.098-.09-.065-.26-.16-.175l-.274.248.177.16zm.22.501l-.98-.887c-.125-.112-.286.061-.184.153l.02.018.98.887c.15.136.319-.032.165-.17zm-.082-2.378c.017.395-.028.797.039 1.198l.005.022a.387.387 0 0 1 .314.26c1.6.038 3.344.232 5.052.556 1.01.192.978-.65.779-1.375a1.34 1.34 0 0 0-.233-.296c-1.421-1.358-4.96-.817-5.956-.365zm.261 3.785c-.014 1.627.008 3.252.35 4.87.225 1.063.115 1.72 1.5 1.781 3.418.152 5.123-2.543 4.608-5.892-.22-.55-.608-.99-1.15-1.162-1.23-.392-2.401-.664-3.624-.73-1.423-.08-1.674-.166-1.684 1.133zm-8.575-1.073c-.99-2.725 3.349-4.084 7.18-2.884.042.464.08.929.112 1.393a.39.39 0 0 0-.304.273c-2.505.098-4.844.53-6.988 1.218zm7.308.125c.088 2.02.128 4.077-.105 6.028-.094.797.032 1.619-.879 1.887-1.585.466-4.296.51-5.228-.582-.741-.866-1.097-2.477-1.09-4.48.004-.845-.033-1.556.94-1.888 2.01-.688 3.982-1.13 6.037-1.253a.387.387 0 0 0 .325.288zm-8.21 7.58c1.344 2.265 3.823 2.778 7.072 2.074 1.315-.286 2.831-.238 4.411-.173 1.937.08 3.581-.74 4.929-2.345.312 6.154-2.201 8.794-7.442 7.504-.881-.217-1.61-.297-2.416.148-2.61 1.44-5.178 2.4-6.432-.79-.724-2.22-.52-4.33-.123-6.418z" id="_155268856" fill="#fecc00" fill-rule="nonzero"/><path d="M26.773 54.39l-.177.128-.394-.176c1.522-1.142 1.475-2.283 1.475-2.283.285 1.093-.38 1.902-.904 2.33zm1.928 2.758l.182-.428c.913-.225 1.883.394 2.74.346-.65.574-2.127-.063-2.922.082zm4.255-.19l-.036-.23.274.04c-.047 1.807-1.427 3.138-1.427 3.138.761-.142 1.237.096 1.237.096-1.855 1.046-2.473 2.901-2.473 2.901 1.855-.523 1.902 0 1.902 0-1.189.333-1.76 1.522-1.76 1.522.904-.143 1.522.285 1.522.285-1.712.857-1.997 2.521-1.997 2.521.904-.57 2.045-.856 2.045-.856-3.234 3.14-.999 5.85-.999 5.85-2.33-1.76-.666-4.708-.666-4.708-.475.285-1.284.951-1.284.951.143-2.426 1.903-3.662 1.903-3.662-.856.047-1.665.76-1.665.76.428-1.474 1.712-2.52 1.712-2.52-1.189.238-1.902 1.094-1.902 1.094.666-2.569 2.663-3.948 2.663-3.948-1.046.047-2.33 1.237-2.33 1.237.475-1.19 1.712-2.188 2.568-2.95.856-.76.713-1.521.713-1.521zm4.095 9.677l.237-.714s1.043 2.595.996 4.687c-.048 2.093-.904 3.806-.904 3.806-.048-.714-.38-1.523-.38-1.523-.238 1.237-.666 1.95-.666 1.95l-.238-.285c-.048 1.665-1.237 3.187-1.237 3.187l-.19-.38-.523.903-.428-.808c-.05 1.123-.91 1.495-1.047 2.378-.19-1.047.476-1.427.666-2.33.19-.905-.238-2.046-.238-2.046.476.618 1.07 2.036 1.07 2.036.475-.76.024-2.226.024-2.226.523.57.775 1.445.775 1.445 1.094-1.38.795-3.68.795-3.68.27.418.4.71.508.94.618-.951.443-2.986.443-2.986.238.951.618 1.617.618 1.617.809-2.568-.281-5.971-.281-5.971zm23.255 28.659c-.904.143-1.617.476-2.188 1.807h.533c.57-1.189 1.132-1.617 1.655-1.807zm-13.037-.081c-.926.15-1.956.986-2.184 1.888h.733c.285-.998.928-1.555 1.451-1.888zm-9.674.24c.27-.153.6-.294.879-.444-1.474.067-2.365.887-2.616 2.092h.748c.048-.618.38-1.299.989-1.647zm33.85-.142c-1.465.393-1.96 1.22-2.197 1.79h.377c.142-.285.679-1.314 1.82-1.79zm-2.15-11.575c.325.1.576-.151.239-.456-.194-.175-.351-.29-.429-.543-.19-.618-.333-.76-.38-1.38 0-.617.095-1.569-.571-2.52 0 0 1.141-1.237.999-3.853l.76.333s0-1.189-.142-1.855c0 0 .38.19.618.476 0 0 .048-.856-.285-1.712l.38.332c-.047-.285.048-1.331-.38-2.568l.475.238s-.285-1.712-.713-2.711c0 0 .618.333.761.57 0 0 .143-1.57-.951-3.614-1.047-2.046-2.806-2.807-2.806-2.807s2.092 1.142 2.9 5.185c0 0-.665-.523-1.95-.951 0 0 1.428.665 1.618 2.949 0 0-.761-.714-1.57-1.142 0 0 1.522 1.237 1.57 3.377 0 0-.666-.713-1.38-1.237 0 0 1.142 1.142 1.19 2.807 0 0-.714-.666-1.142-1.237 0 0 .856 1.617.904 2.901 0 0-.476-.475-1.094-1.236l.193.742c.8 1.039.145 3.353-.479 4.347l-.76-.428s.618.618.95 1.141c.334.524.524 1.332.62 1.95.047.619.047 1.142.142 1.427.095.286.243.72-.333 1.19-.568.463-.865 1.094-.904 1.522.5-.683 1.033-1.3 1.95-1.237zm-9.89-18.42l.916.26c-.82.745-1.68 1.638-2.822 1.846-1.046.237-.976-.183-.856-.809 0 0-.475.666-1.474 1.237-1 .523-1.237.523-1.142.238.095-.286.095-.666.095-.666s-2.283 1.95-4.851.523c0 .063 2.949.737 4.994-1.332 0 0 .602-.054 1.172-.482 0 0-.544.928-.782 1.498.69-.086 1.95-1.302 2.52-1.773-.169.31-.273.6-.231.978.028.252.244.382.888-.03 1.285-.904 1.573-1.488 1.573-1.488z" id="_154728848" fill="#cdc9c6"/><path d="M26.87 54.92a.7.7 0 1 1-1.29.467c-.219.083-.437.169-.655.254-.03-.268.027-.515.3-.668a.493.493 0 0 1 .309-.358c.091-.173.258-.244.442-.235a.507.507 0 0 1 .48-.012.448.448 0 0 1 .338.016.57.57 0 0 1 .07.039c.013.007.025.017.037.026a.396.396 0 0 1 .303.08.384.384 0 0 1 .052.05v.001c.044.052.074.116.107.174l-.492.166z" id="_154878784" fill-rule="nonzero"/><path d="M26.1 55.195c.025.021.04.052.04.087a.12.12 0 0 1-.24 0l.002-.014-.132.048a.326.326 0 1 0 .61-.224l-.28.103z" id="path3786" fill="#fff" fill-rule="nonzero"/><path d="M25.153 55.331a43.763 43.763 0 0 1 1.855-.675c-.057-.013-.113 0-.17.01-.128-.114-.216-.15-.398-.07-.154-.092-.261-.103-.416-.007-.165-.015-.266.015-.34.189-.182.06-.248.14-.272.328-.107.054-.208.105-.259.225z" id="_155268112" fill="#c1c1c1" fill-rule="nonzero"/></g></svg>