<svg xmlns="http://www.w3.org/2000/svg" width="1200" height="750" shape-rendering="geometricPrecision" text-rendering="geometricPrecision" image-rendering="optimizeQuality" fill-rule="evenodd" clip-rule="evenodd"><defs><style>.fil1{fill:#c70049}.fil0{fill:#ffed00}</style></defs><g id="Слой_x0020_1"><g id="_859748688"><path class="fil0" d="M0 0h1200v750H0z"/><path class="fil1" d="m532 137 34-34-34-33h34V35l34 35 34-35v35h34l-34 33 34 34h-34v34l-34-34-34 34v-34z"/><path class="fil0" d="m566 120 17-17-17-17h17V70l17 16 17-16v16h17l-17 17 17 17h-17v17l-17-17-17 17v-17z"/><path class="fil1" d="m579 337-90-90h-34l-51 51 47 47h25l35-35-35-33-21 21 13 12 8-8 9 8-17 18-30-30 38-39 103 103z"/><path class="fil1" d="M0 564h561V387l-42-42-30 29 17 18 8-9-8-9 13-13 21 22-38 38-26-26v-34l43-41 60 59v203H0z"/><path class="fil1" d="M0 600h591V332l-93-94v-33l50-51 48 46v26l-35 33-34-33 21-21 13 12-8 9 8 9 17-18-30-29-37 38 89 90 90-90-38-38-30 29 17 18 8-9-8-9 13-12 21 21-34 33-35-33v-26l48-46 50 51v33l-93 94v268h591v150H0z"/><path class="fil1" d="m621 337 90-90h34l51 51-47 47h-25l-35-35 35-33 21 21-13 12-8-8-9 8 17 18 30-30-38-39-103 103z"/><path class="fil1" d="M1200 564H639V387l42-42 30 29-17 18-8-9 8-9-13-13-21 22 38 38 26-26v-34l-43-41-60 59v203h579zM362 213l34-34-34-33h34v-35l34 35 33-35v35h35l-35 33 35 34h-35v34l-33-34-34 34v-34z"/><path class="fil0" d="m396 196 17-17-17-17h17v-16l17 16 17-16v16h16l-16 17 16 17h-16v17l-17-17-17 17v-17z"/><path class="fil1" d="m702 213 34-34-34-33h34v-35l34 35 34-35v35h34l-34 33 34 34h-34v34l-34-34-34 34v-34z"/><path class="fil0" d="m736 196 17-17-17-17h17v-16l17 16 17-16v16h17l-17 17 17 17h-17v17l-17-17-17 17v-17z"/></g></g></svg>