<svg xmlns="http://www.w3.org/2000/svg" width="1023" height="682" shape-rendering="geometricPrecision" text-rendering="geometricPrecision" image-rendering="optimizeQuality" fill-rule="evenodd" viewBox="0 0 10230 6820"><path fill="#FFF" d="M0 0h10230v6820H0V0z"/><circle fill="red" cx="5115" cy="3410" r="198"/><path fill="red" d="M5115 3410l-114-584-113-584h454l-113 584-114 584z"/><path fill="red" d="M5119 3410l-584 114-584 113v-454l584 113 584 114z"/><path fill="red" d="M5115 3410l584 114 584 113v-454l-584 113-584 114zm0 0l-114 583-113 584h454l-113-584-114-583z"/><path fill="red" d="M5116 3411l-494-332-493-333 161-160 161-161 332 493 333 493z"/><path fill="red" d="M5118 3409l-332 493-333 493-160-161-161-160 493-333 493-332z"/><path fill="red" d="M5116 3411l493-332 493-333-161-160-160-161-333 493-332 493zm-1 0l333 493 332 493 161-160 161-161-493-333-494-332z"/><path fill="#FFF" stroke="red" stroke-width="24" d="M5115 4005c-328 0-595-267-595-595s267-595 595-595 595 267 595 595-267 595-595 595zm0-59c-295 0-536-241-536-536s241-536 536-536 536 241 536 536-241 536-536 536z"/><path fill="#FFF" stroke="red" stroke-width="48" d="M5115 4653c-685 0-1243-558-1243-1243s558-1243 1243-1243 1243 558 1243 1243-558 1243-1243 1243zm0-100c-630 0-1143-513-1143-1143s513-1143 1143-1143 1143 513 1143 1143-513 1143-1143 1143z"/><path fill="#09F" d="M0 0h10230v2093H0z"/><path fill="#00C" d="M0 4727h10230v2093H0z"/></svg>