<svg xmlns="http://www.w3.org/2000/svg" width="600" height="400" viewBox="300 200 600 400" xmlns:cgf="https://coding.garden/flags"><metadata id="cgf-metadata">

<cgf:flag>
  <cgf:name></cgf:name>
  <cgf:route>ru/in</cgf:route>
  <cgf:aspect-ratio>1.5</cgf:aspect-ratio>
</cgf:flag>

</metadata><path fill="#00923F" d="M300 200h600v400H300z"></path><path fill="#fff" d="M300 267h600v267H300z"></path><circle fill="none" stroke="#D81E05" stroke-width="30" cx="596" cy="420" r="55"></circle><path fill="none" stroke="#D81E05" stroke-width="20" stroke-linecap="round" d="M575.4 324c5-6.3 12.5-10 20.5-10 14.3 0 26 11.6 26 26 0 14.3-11.7 25.9-26 26m95.04 81.393c3.006 7.393 2.324 15.775-1.59 22.753-7.15 12.385-23.046 16.717-35.516 9.517-12.385-7.15-16.58-23.082-9.567-35.43m-122.18 41.711c-7.906-1.093-14.91-5.825-18.824-12.803-7.15-12.384-2.868-28.367 9.517-35.517 12.384-7.15 28.316-2.954 35.466 9.43"></path></svg>