<svg xmlns="http://www.w3.org/2000/svg" width="1200" height="800" viewBox="0 0 1800 1200"><defs><style>.fil0{fill:#0051ba}.fil3{fill:#d81e05}.fil2{fill:#fff}</style></defs><path class="fil0" d="M0 0h1800v1200H0z"/><path fill="#fff" d="M0 0h1800v800H0z"/><path class="fil2" d="M383.184 473.003c-38.836.069-67.022-29.633-105.193-29.89-33.68-.227-60.1 28.702-106.933 28.473a925.683 925.683 0 0 0-1.933-92.164c-8.484-119.802 97.398-217.5 217.5-217.5s221.546 97.468 217.5 217.5c-1.998 21.042-4.82 37.708-3.078 91.28-46.765.066-71.43-28.655-106.607-28.27-36.293.396-72.42 30.502-111.255 30.57z" stroke="#ccc"/><path class="fil0" d="M386.624 379.422 179.57 435.445l-1.945-56.023c-4.004-115.337 93.591-209 209-209 115.408 0 216.542 93.846 209 209l-3.433 52.392-205.567-52.392z"/><path class="fil3" stroke="#fff" stroke-width="8" stroke-linejoin="bevel" d="m385.533 164.545 29.054 34.753 37.4-24.574 16.894 42.031 43.161-11.814 3.08 45.194 44.7 2.102-11.037 43.934 41.863 15.812-24.074 38.372 34.077 27.976-40.518 43.463 32.368 15.189-207.216-39.178-205.568 41.867 32.108-23.791-40.077-35.368 34.752-29.054-24.574-37.399 42.031-16.895-11.813-43.161 45.193-3.08 2.103-44.7 43.933 11.037 15.813-41.863 38.371 24.075z"/><path class="fil2" d="m386.624 379.422-168.243 63.992a180.372 180.372 0 0 1-11.757-63.992c0-99.394 80.606-180 180-180 99.395 0 180 80.606 180 180a180.34 180.34 0 0 1-10.174 59.685l-169.826-59.685z"/><path class="fil3" d="m386.624 379.422-158.896 60.437a170.323 170.323 0 0 1-11.105-60.437c0-93.873 76.128-170.001 170.001-170.001s170.001 76.128 170.001 170.001c0 20.028-3.57 39.973-10.48 58.756l-159.52-58.756z"/><path class="fil2" d="M179.57 435.445c44.23-32.48 97.468-70.948 131.352-114.736h17.039l33.255 50.829 31.624-29.428h17.799l37.788 40.663 23.226-23.507 18.385.672c25.952 34.433 66.038 54.53 102.154 71.876l1.766 29.53-90.956-47.538-256.284 5.885-67.31 39.55.163-23.796z"/><path d="m179.32 464.674.397-25.002c35.773-22.696 68.003-47.282 98.816-76.592l-8.731 23.811 19.842-23.414-8.334 30.558 23.415-24.605 3.174 35.716 15.478-36.113 18.652 25.002-.397-22.224 57.146 43.257-26.985-34.526 25.001 16.667 6.747-21.826 32.541 29.763-3.968-21.033 58.337 32.145-32.939-26.986 22.224 7.54 3.175-11.111 23.414 14.683-7.54-19.842c27.484 22.256 59.252 41.877 93.656 57.543l1.985 26.986c-36.095-4.74-66.36-30.654-103.794-29.643-34.531.933-70.337 29.448-106.933 30.437-36.192-.21-69.656-30.436-105.848-30.645-31.932-.186-66.597 29.64-98.53 29.454z"/><path class="fil3" d="M312.68 320.68h12.504c6.225-14.7 11.814-29.856 11.354-44.919-3.65 1.509-6.576 4.198-9.05 8.063-.934-6.977-3.13-13.05-7.404-18.757-4.678 4.726-7.64 10.54-8.885 17.44-1.891-2.79-3.962-4.401-7.569-5.922-.603 14.697 2.907 29.396 9.05 44.095zm82.848 21.671h12.504c6.225-14.7 11.814-29.856 11.354-44.919-3.65 1.509-6.576 4.198-9.05 8.063-.934-6.977-3.13-13.05-7.404-18.757-4.678 4.726-7.64 10.54-8.885 17.44-1.891-2.79-3.962-4.401-7.569-5.922-.603 14.697 2.907 29.396 9.05 44.095zm78.874 17.588h12.504c6.225-14.7 11.814-29.856 11.354-44.919-3.65 1.509-6.576 4.198-9.05 8.063-.934-6.977-3.13-13.05-7.404-18.757-4.678 4.726-7.64 10.54-8.885 17.44-1.891-2.79-3.962-4.401-7.569-5.922-.603 14.697 2.907 29.396 9.05 44.095z" stroke="#fff" stroke-width="5"/></svg>