<svg xmlns="http://www.w3.org/2000/svg" width="1200" height="799.967" viewBox="0 0 317.5 211.658" shape-rendering="geometricPrecision" text-rendering="geometricPrecision" image-rendering="optimizeQuality" fill-rule="evenodd" clip-rule="evenodd"><defs><style>.str0,.str1{stroke:#fe7f00;stroke-width:.0318;stroke-linejoin:bevel}.str1{stroke:#000;stroke-width:.0635}.fil6{fill:#1f1a17}.fil3{fill:#000}.fil0{fill:#d81e05}.fil4{fill:#d9251d}.fil2{fill:gold}</style></defs><g id="Layer_x0020_1"><path class="fil0" d="M0-.004h317.5v211.667H0z"/><path fill="#0051ba" d="M0-.004h105.833v211.667H0z"/><g id="_39287344"><path id="_111794360" class="fil2 str0" d="M76.221 63.745l-.495-.076-.457-.076-.534-.076-.495-.038h-.496l-2.668-1.182.648-.419.42-.153.495-.076.533-.076h.496l.99-.114.992-.077.495-.076.534-.152.495-.114.42-.19.19.875.076.191.038.115-.267.038-.266.114-.038.038v.076l.114.153.038.152.076.19.038.153v.153l-.076.152-.19.152-.229.115-.153.076-.228.076z"/><path id="_111797608" class="fil2 str0" d="M31.022 63.555l-.19-.153-.496-.038-.457.115-.534.076-.495.038-.496.038-.495-.038-.229-.038-.19-.076-.19-.153-.191-.19-.076-.115v-.152l.038-.153.038-.19.114-.115.038-.152.038-.076-.038-.114-.267-.038-.305-.039.038-.038.038-.114.039-.153.076-.19.076-.153.038-.19.077-.19.038-.191v-.077l.457.23.495.152.42.114.457.114 1.029.115.99.038.496.038.496.076.495.076.496.191.724.495z"/><path id="_111806832" class="fil2" d="M58.576 83.106l-.114-.153-.496-.381-.762-.686-.953-.876-1.181-1.03-1.372-1.181-1.448-1.334-1.6-1.448-.306.076-.305.038-.648.191-.343.076-.342.115-.344.076-.343.076-.343.152-.343.077-.304.076-.382.114-.304.076-.305.115-.305.114-.267.076-.267.038-.266.115-.23.076-.152.038-.19.038-.076.038v1.868l-.077.19v.19l-.038.115v.19l-.038.153v.152l-.038.153-.038.153-.114.266-.039.076-.038.153-.076.076-.19.19-.115.077-.114.038-.114.038-.153.076h-.686l-.152-.076h-.114l-.191-.038-.115-.038-.152-.076-.114-.039-.153-.114-.114-.038-.152-.076-.077-.114-.152-.115-.076-.076-.115-.152-.076-.077-.076-.152-.076-.153-.038-.152v-.153l-.077-.152v-.19l.077-.153.038-.152v-.115l.038-.152v-.038l-.038.038h-.267l-.153.038h-.304l-.115-.038h-.38l-.115-.038-.19-.038-.115-.038-.19-.038-.115-.115-.152-.038-.191-.076-.114-.114-.153-.077-.076-.076-.114-.152-.115-.115-.076-.152-.038-.114-.038-.191-.076-.153v-.19l.076-.19v-.23l.038-.076v-.228l.038-.076v-.305l.038-.153v-.19l.038-.114v-.648l.038-.153v-.152l-.038-.115v-.419l-.038-.152v-.077l-.038-.152v-.114l-.038-.191-.038-.114v-.19l-.076-.115-.038-.19v-.191l-.038-.115-.039-.19-.038-.19-.038-.153v-.152l-.076-.153-.038-.19-.038-.115v-.152l-.077-.267v-.114l-.038-.115v-.076l-.038-.038-.648.229-.61.266-.61.267-.647.267-.61.229-.572.343-.61.304-.57.267-.649.305-.533.343-.572.305-.533.381-.496.305-.457.343-.458.343-.457.343-.381.305-.457.267-.344.19-.38.229-.382.19-.343.115-.343.152-.343.076-.305.038-.304.077-.267.038h-.267l-.267-.038-.228-.077-.267-.038-.153-.038-.228-.076-.19-.114-.153-.077-.153-.114-.152-.114-.114-.115-.115-.152-.114-.076-.153-.267-.038-.114-.076-.114v-.344l.076-.076v-.19l.038-.038v-.534l-.038-.153v-.571l-.076-.114v-.496l-.038-.152v-.61l-.038-.229v-.038h-.038l-.153.038-.114-.038-.152-.038.076.267v.343l.038.267.038.533v.495l.038.191v.381l.038.038v.115l-.152.305-.115.152-.114.19-.114.153-.19.19-.153.115-.115.038-.152.038h-.114l-.153-.038-.114-.038-.114-.038-.077-.114-.076-.077-.114-.19-.076-.115-.077-.19v-.076l-.038-.153-.076-.076v-.076l-.038-.115v-.076l-.038-.038v-.19l-.038-.039.038-.305v-1.105l-.076-.724-.039-.343-.076-.343-.038-.38-.076-.382-.076-.381-.038-.381-.115-.343-.076-.42-.076-.343-.114-.343-.077-.38-.076-.344-.114-.343-.076-.304-.039-.267-.114-.343-.076-.267-.038-.19-.076-.23-.077-.19v-.076l-.038-.038-.152-.648-.153-.61-.076-.61v-.61l.076-.647.153-.61.19-.572v-.038l.076-.114.039-.038v-.077l.038-.076.038-.114.038-.076.038-.076.457-.458.153-.076.114-.114.19-.077.115-.038.19-.038.23-.114.19-.038h.229l.228-.038h1.181l.382.038.38.038.42.038.42.114.456.077.267.038-.305-1.982-.038-.152-.114-.191-.076-.267-.038-.267-.115-.266-.038-.267-.038-.267v-.8l.038-.267.038-.267.076-.266.077-.267.266-.534.191-.229.152-.228.153-.153.152-.152.153-.114.343-.19.152-.039.153-.038h.343l.152.038.153.038.114.038.152.114.077.077.114.076.114.114.115.076.114.077.038.076.076.114.076.114.077.115.076.076.038.076.038.115.038.038v.038l.076.076.077.114.038.038.038.077.038.038.038.114.114.115.038.076.039.152.076.115.076.152.038.114.039.19.076.191.038.153v.19l.076.19v.191l.038.23v.228l-.038.228v.267l-.076.076-.038.534v.076l-.038.153v.19l-.038.19-.039.268-.114.266-.038.382-.077.343-.038.457-.114.38-.038.496-.076.42-.076.533-.039.496-.114.533-.076.572-.038.533-.115.572-.038.61v.038l.19-.114.801-.344.381-.19.8-.343.382-.19.343-.153.343-.153.305-.152.304-.152.534-.267.038-.038 3.24-1.525h.038l.267-.114.038.038.152.19.229.153.152.114h.038l.077.039.228.114.229.152.267.115.19.152.267.076.267.153.266.076.534.152.42.077.418.076.686.038h.762l.42-.038h.495l.458-.038.457-.038.495-.038h.496l.495-.038.496-.077.457-.038h.495l.496-.038h.99l.458.038h.457l.496.038.42.115.456.038.42.114.38.114.42.153.381.152.343.229.381.152.343.267.305.267.267.305.305.38.228.344.267.457.8 1.639.763-1.639.267-.457.266-.343.267-.381.305-.305.61-.534.343-.152.38-.229.382-.152.42-.153.38-.114.381-.114.458-.038.457-.115.495-.038h.42l.495-.038h.99l.458.038h.496l.495.038.496.077.495.038h.457l.496.038.495.038.458.038h.457l.457.038h.762l.305-.038h.267l.305-.038.305-.038.267-.038.304-.115.534-.152.267-.115.267-.076.266-.114.23-.153.266-.114.229-.152.228-.191.19-.152.153-.153 2.973 1.334.152.114.19.077.23.076.533.267.305.152.305.152.343.153.38.153.344.19.8.343.381.19.8.344.191.114v-.038l-.076-.61-.038-.572-.115-.533-.038-.572-.076-.533-.114-.496-.038-.533-.076-.42-.077-.495-.076-.381-.076-.458-.076-.724-.115-.266-.038-.267-.038-.19v-.191l-.038-.153v-.076l-.038-.534-.038-.076v-.267l-.038-.228v-.458l.038-.19v-.19l.038-.191.038-.153.038-.19.076-.19.077-.115.038-.152.076-.115.038-.152.038-.076.114-.115.039-.114.038-.038.038-.077.038-.038.076-.076v-.038h.038V54.6l.038-.038.038-.038.038-.115.039-.076.114-.076.038-.115.076-.114.038-.114.191-.153.152-.076.077-.114.076-.076.152-.077.115-.114.152-.038.114-.038.191-.038h.305l.114.038.19.038.191.076.115.115.19.114.19.152.115.153.19.228.115.23.19.266.153.534.114.266.038.267.038.267v.533l-.038.267V57l-.076.267-.076.266-.076.267-.038.267-.077.19-.076.153-.343 1.982.305-.038.457-.077.458-.114.38-.038.42-.038.343-.038h1.181l.229.038h.229l.228.038.153.114.228.038.153.038.153.077.152.114.114.076.115.076.076.115.076.076.114.076.038.115.077.076.038.076.038.114.076.077v.076l.038.038v.114l.038.038.229.572.114.61.076.648v.61l-.076.61-.114.609-.19.648-.039.038v.076l-.076.19-.076.23-.038.19-.077.267-.076.343-.114.267-.038.304-.076.343-.115.344-.076.38-.076.343-.114.344-.077.419-.076.343-.114.38-.038.382-.077.381-.038.381-.038.343-.076.343-.076.724v.305l-.038.267v.305l.038.228v.42l-.038.114v.114l-.038.115v.076l-.038.076-.039.153-.076.076-.076.19-.038.115-.038.114-.115.076-.038.076-.076.115-.076.038-.153.038-.114.038h-.152l-.115-.038-.152-.038-.115-.114-.228-.191-.115-.153-.114-.19-.076-.152-.19-.305v-.153l.038-.076v-.496l.038-.228v-.267l.038-.533.076-.267v-.343l.038-.267-.152.038-.115.038-.152-.038h-.038v.038l-.038.229v.42l-.039.19v.648l-.038.114v.495l-.038.076v.725l.038.038v.152l.038.076v.23l-.038.114v.114l-.114.114-.038.153-.076.114-.076.076-.153.152-.114.115-.153.114-.114.114-.19.077-.191.114-.229.076-.19.038-.23.038-.228.077-.266.038h-.267l-.305-.038-.267-.077-.305-.038-.343-.076-.343-.152-.343-.115-.343-.19-.419-.229-.381-.19-.42-.267-.38-.305-.458-.343-.419-.343-.495-.343-.496-.305-.533-.381-.572-.305-.572-.343-.571-.305-.572-.267-.648-.304-.61-.343-.61-.23-.647-.266-.61-.267-.61-.266-.572-.23h-.038v.115l-.076.115v.114l-.038.152-.038.115v.152l-.038.114-.038.191-.038.153-.038.152v.152l-.077.19-.038.191-.038.115v.19l-.038.19-.038.115-.038.19v.115l-.077.19v.115l-.038.152v.077l-.038.152v.267l-.038.076v.572l.038.152v.42l.038.114v.343l.038.076v.305l.077.114v.19l.038.077v.152l.038.19v.191l-.038.153-.038.19-.077.115-.076.152-.076.115-.152.152-.115.076-.114.077-.153.114-.152.076-.114.038-.153.115-.152.038-.19.038-.153.038-.153.038h-.304l-.153.038h-.305l-.114-.038h-.267l-.076-.038v.038l.076.152v.115l.038.152v.153l.038.19-.038.152-.038.153-.076.152-.038.153-.077.152-.076.077-.114.152-.076.076-.23.229-.113.076-.153.038-.114.114-.153.039-.114.076-.19.038-.115.038h-.152l-.114.076h-.725l-.152-.076-.114-.038-.077-.038-.152-.076-.152-.191-.115-.076-.038-.153-.076-.076-.038-.152-.077-.114v-.153l-.038-.153-.038-.152v-.152l-.038-.19v-.306l-.038-.19V77.77l-.152-.038-.153-.038-.228-.076-.23-.115-.266-.038-.267-.076-.267-.152-.304-.077-.305-.076-.305-.114-.381-.076-.305-.077-.343-.152-.343-.076-.381-.076-.305-.115-.343-.076-.381-.076-.305-.114-.305-.039-.305-.076h-.114l-.343.267-.343.305-.877-.763h-.61l.648.572.534.457.343.305.152.077 4.23 3.239h.115l.152.038.191.152.229.23.076.152.114.19.038.229V82l-.114.304-.114.381z"/><path id="_111937952" class="fil2 str0" d="M82.243 24.072l.228.038.23.038.19.115.152.114.381.267.381.229-.533.419-.572.419-.152.076-.115.038h-.266l-.19-.038-.115-.076-.076-.152-.153-.191-.038-.19-.038-.191.038-.229.038-.228.153-.191.114-.152.19-.077z"/><path id="_111893680" class="fil2 str0" d="M81.9 26.283l-.229.076-.229.038h-.419l-.228-.038-.191-.076-.152-.153-.19-.152-.077-.153-.114-.19-.077-.153v-.533l.077-.343.152-.229.114-.19.153-.115.152-.152.229-.076.19-.039.23-.076h.228l-.115.229-.076.267-.038.266v.496l.038.229.038.228.076.19.115.191.076.19.153.115z"/><path id="_111883608" class="fil2 str0" d="M82.357 39.469h.267l.267.114.266.115.191.19.457.305.496.267-.61.572-.762.495-.19.076-.191.076h-.343l-.19-.076-.115-.076-.19-.19-.115-.23-.076-.19v-.61l.076-.266.114-.191.19-.229.077-.038.153-.114h.076z"/><path id="_111889824" class="fil2 str0" d="M82.09 42.403v.038l-.304.115-.267.076-.343.038-.267-.038-.305-.038-.267-.114-.228-.153-.19-.228-.153-.19-.115-.23-.038-.19-.076-.229v-.458l.076-.228.076-.19.115-.267.19-.229.229-.19.229-.115.266-.152.267-.038.267-.038h.305l-.229.266-.152.305-.076.343-.038.42.038.304.038.267.114.267.114.228.153.191.152.19.19.153z"/><path id="_111921936" class="fil2 str0" d="M75.421 54.79l.267.038.266.076.23.152.228.153.495.305.42.266-.61.534-.724.533-.153.115-.19.038-.19.038h-.153l-.191-.076-.19-.115-.115-.152-.19-.229-.038-.228-.038-.267.038-.305.076-.267.152-.228.19-.23.077-.037.076-.077h.153z"/><path id="_111928232" class="fil2 str0" d="M75.154 57.648h-.038v.038l-.267.114-.305.076-.266.038-.305-.038-.267-.038-.267-.076-.267-.19-.228-.23-.115-.19-.114-.19-.076-.229-.038-.229v-.228l.038-.229.038-.19.038-.23.19-.266.191-.228.19-.191.23-.114.266-.153.267-.038.267-.038h.305l-.229.267-.114.305-.077.343-.076.419v.305l.115.266.076.267.076.229.19.229.153.152.19.19z"/><path id="_111931752" class="fil2 str0" d="M76.983 19.499l-.038.229.038.19.038.229.153.19.076.077.038.114h.496v-.076l-.038-.077v-.038l-.038-.076v-.076l-.077-.076v-.038l-.038-.038v-.039l-.038-.114-.038-.038v-.038l-.038-.038-.038-.038v-.077h-.076l-.038-.038-.077-.038h-.038l-.114-.038-.076-.038z"/><path id="_111936880" class="fil2 str0" d="M78.965 22.052l.534.381.534.343.571.305.572.267h.152l-.038-.8v-1.563l.076-.38.076-.344.077-.152.114-.115.153-.114.114-.076.076-.152.038-.077v-.19l-.038-.153-.381-.419-.457-.343-.153-.229-.114-.152v-.191l.038-.152.114-.076.229-.343.19-.343.191-.381.038-.382.038-.19v-.229l-.038-.152-.038-.19-.076-.191-.153-.153-.114-.152-.19-.114-.115-.039-.152.039-.077.076-.114.038-.305-.038-.228-.076-.115-.153-.076-.152-.114-.42-.038-.533-.23.152-.19.038.038.077v.076l.039.114v.153l.038.114v.152l.076.382-.42-.115h-.419l-.038.076h-.038v.039h-.038v.076l-.038.076v.076l.038.038v.724l.038.077h.076l.115.038.076.038.115.038.114.038.038.114.076.038.114.039.077.076.038.114.076.038.076.115.038.114.038.076.038.114v.382l-.038.152-.038.152-.114.039-.076.038h-.076l-.039.038h-.076v.038h-.038v.229l.153.038h.076l.076.114.114.076.038.076v.343l-.038.115-.038.076-.076.114-.038.077-.038.076-.038.114-.077.076-.076.077-.076.114-.038.038-.076.076-.076.076-.077.077-.038.076-.038.038-.038.038v.114l-.076.039v.304l.076.077v.114h.114l.076.038.115.038.038.038.038.076.038.077.038.076.076.076v.267l-.076.076v.115l-.038.076v.076l-.038.114-.038.077-.038.076-.038.114-.076.076z"/><path id="_111917896" class="fil2 str0" d="M72.296 59.782l.343-.305.381-.305.42-.267.418-.267.267-.114.267-.038.267.038.228.114.305.306.267.304.153.153.114.114.19.152.191.077.19.038h.421l.19-.076.305-.229.267-.229.038.153.038.305.076.38.115.42-.648.19-.648.191-.686.076-.648.115-1.372.114-1.334.152-.267.077-.304.076-.267.152-.267.191.19-.229.115-.228.152-.23.115-.266.152-.229.076-.266.076-.267.115-.305z"/><path id="_111919088" class="fil2 str0" d="M74.887 58.258l.305.152.343.076.229.038.343.076h.305l.343-.076.305-.038.305-.076v-1.181l.076-.267v-.115l-.61.153h-.038l-.076.076-.076.038-.153.115-.076.038-.153.038-.076.076h-.152l-.115.038-.19.457h-.038v.038l-.038.038-.038.039-.077.076-.076.038h-.038l-.076.038-.076.038-.115.038h-.076l-.076.038z"/><path id="_111916656" class="fil2 str0" d="M77.784 55.4l.038-.153.076-.19.038-.23.153-.228.076-.19.114-.153.077-.19.114-.191.152-.153.115-.19.114-.114.153-.153.152-.114.114-.115.19-.076.153-.076.153-.114.19-.039.115-.038h.266l-.114-.495v-.534l-.267.038-.229.077-.19.076-.153.114-.304.229-.343.305-.267.305-.267.38-.305.306-.343.266-.038.42-.038.419-.267.114-.267.19h.038l.038.039.039.038.114.076.038.038.038.039.038.038h.077l.076.038.038.038.038.076h.038l.038.038h.115z"/><path id="_111948648" class="fil2 str0" d="M82.738 55.247l.305-.114.305-.077.267-.114.305-.038h1.257l.038-.267.115-.229.114-.229.076-.266.115-.153.038-.228v-.191l-.076-.076-.077-.076-.457-.267-.61-.229-.571-.266-.572-.267-.305-.19-.381-.191-.19-.077h-.23l-.228.077-.152.152-.038.153.038.114.038.152.076.153v.152l-.038.153-.038.19-.153.19.115.077.114.152.152.115.115.152.076.153.267-.153.267-.19.343-.153.38-.076v.038l-.342.114-.305.153-.267.19-.267.229.038.038.076.152.077.23.076.228.076.229.038.228z"/><path id="_111952088" class="fil2 str0" d="M78.28 52.389l.037.076.153-.076.19-.115h.038l.039-.076.114-.038.076-.076.076-.115.077-.038.076-.076.114-.038.115-.114.076-.039.076-.038.152-.038.115-.038h.152l.076-.038.343-.076v.343l.991-.229.915-.229.953-.19.8-.153.114-.076.153-.038.076-.076.076-.076.153-.229.038-.267.038-.267-.076-.304-.077-.306-.19-.266.038-.114.076-.077.153-.076.114-.114.648.038.61.152.305.038h.305l.266-.038.267-.076.229-.19.152-.153.115-.114.038-.153.038-.152v-.153l-.038-.114-.077-.152-.228-.305-.305-.229-.343-.19-.42-.229.153-.114.076-.077.038-.076-.038-.114h.762l.686-.076.381-.039.305-.152.305-.152.267-.229.076-.19V45.3l-.076-.114-.152-.115-.115-.152-.152-.114-.114-.153-.077-.19-.076-.153.076-.19.077-.115.114-.152.228-.038.267.038.153-.038h.076l.076-.038v-.305l-.038-.23-.038-.228-.076-.152-.114-.19-.153-.115-.19-.153-.23-.076-.419-.114h-.799l-.382.114-.152.076-.19.077-.115.114-.153.114-.076.153-.114.152-.038.229-.038.229-.839-.267-.838-.305-.42-.076-.38-.076h-.191l-.19.076-.191.038-.229.114-.114.114-.115.077-.038.076-.038.152v.267l.076.267.039.305.076.267v.266l-.076.267-.077.038-.076.038h-.267l-.305-.076-.304-.152.076.228-.038.267-.115.19-.152.153-.381.381-.381.267-.153.076-.076.038h-.076l-.038-.038-.153-.19-.076-.229-.152-.19-.077-.191-.076-.077-.114-.038h-.115l-.152.038-.153.039-.19.076-.114.076-.115.115-.152.61-.153.571-.038.42v.418l-.038.19-.038.23-.114.152-.115.19-.152.153-.152.076-.191.038-.229.038-.228.115-.153.038-.19.076-.115.153-.076.114-.038.152-.038.115v.152l.076.229.152.267.23.228.266.267.267.19.305.23.114.037.038.115.877-1.449.152-.342.114-.382.077-.114.076-.152.152-.077.153-.076.952-.38.915-.268.457-.152.42-.19.419-.23.381-.304.343-.267.229-.305.228-.305.229-.343.229-.38.228-.306.267-.267.343-.228 1.83-.915-1.792 1.067-.343.267-.266.343-.267.42-.23.38-.342.458-.305.38-.42.382-.418.305-2.935 1.105-.152.076-.115.076-.762 1.601z"/><path id="_111996640" class="fil2 str0" d="M77.936 52.16l.191.343-.076.305-.191.343-.229.266-.266.191-.686.42-.725.342h-.227l-.114-.038h-.038l.152-.19h-.267l.114-.42.039-.495.076-.495v-.915l-.076-.457-.153-.382-.152-.419-.572-.8-.229-.496-.152-.533-.076-.534-.038-.495.038-1.143.114-1.106h-.038l-.114.763-.153.724-.038.38v.762l.038.344.038.42.115.342.114.343.19.381.191.305.19.305.153.19.076.115.115.19.038.153.038.8-.038.724-.115.763-.114.685h-.839l-.115.038h-.076l-.076.077h-.115l-.038.038h-.076l-.038.038-.61-.42-.686-.342v-2.744h.19l.23-.038.114-.076.152-.115.114-.076.039-.19-.038-.153-.039-.267-.152-.266-.152-.267-.229-.267-.229-.267v-3.849h.153l.457.114.648.19-.038-.495v-.533l.038-.457.114-.42.076-.19.115-.114.114-.153.19-.114.191-.076.19-.039.23.039.304.076.115.038.076.038.076.076.076.114.038.153.039.229.038.267v.228l.038.229.152.19.572.534.648.61.267.304.228.305.076.153.115.19v.42l-.115.342-.152.382-.267.457-.267.457-.228.458-.19.457-.039.229v.228l.038.19.038.191.229.305.228.229.267.228.23.191.19.153.114.19.038.114-.038.115-.038.114-.076.153.114.038z"/><path id="_111988288" class="fil2 str0" d="M80.3 45.834v-.268l.037-.228.038-.267.153-.228.19-.23.191-.228.267-.152.38-.19.077-.115v-.229l-.038-.228-.038-.077-.305-.152-.229-.152h-.152l-.076-.077h-.077l-.114-.038-.076-.038h-.076l-.115-.038-.076-.038-.076-.114-.114-.039-.038-.038-.077-.076-.076-.038-.076-.114-.077-.077-.038-.038-.038-.038-.038-.114-.076-.038-.038-.038-.038-.077v-.076l-.038-.076-.038-.038v-.077l-.039-.114v-.114l-.076-.038v-.724l.076-.077v-.152l.038-.038v-.076l.039-.038v-.115l.038-.076.038-.076.038-.114.076-.038H79.5l-.076.038-.153.152-.076.229-.038.152.038.229h-.61l-.152-.038-.038-.077-.077-.114-.114-.229-.038-.266v-.457l-.038-.267-.038-.229-.153-.19-.152-.153-.19-.114h-.345l-.191.114-.381.152-.42.23-.152.075h-.153l-.076-.076-.114-.076-.114-.305-.077-.229-.152-.152-.152-.076-.153-.038h-.19l-.305.076-.343.19-.343.229-.42.19-.152.115-.19.076-.191.038-.229.038.115.343.114.19.228.23.23.228.418.381.42.42.076.19.038.152v.19l-.038.115-.153.229-.228.229-.267.19-.229.19-.076.153-.038.115-.076.152.076.19.076.191.115.19v-.038l.076-.076.038-.152.038-.076.038-.115.076-.076.038-.076.115-.114.076-.039.152-.076.077-.038h.114l.153-.038h.38l.153.038h.19l.077.038.038.038.076.038.076.039.038.076.039.038.038.038.038.076v.038l.038.077v.076l.038.038v.266l.076.039v.343l.038.114v.114l.038.038v.077l.038.038v.038l.077.038.076.076.038.076.076.077.077.038.076.076.076.076.076.076.115.039.076.076.076.076.038.076.114.076.077.038.076.115.114.076.076.038.039.114.114.077.076.076.038.076.076.115.077.076.038.076.038.114.038.077.038.076.038.152v.076l.038.153v.229l-.038.076v.076h.381v-.038l.534-1.868.076-.38.038-.42-.038-.152v-.229l-.076-.19-.115-.191-.152-.229-.267-.228-.266-.19-.305-.191-.648-.344-.534-.304-.228-.19-.19-.23-.192-.19-.152-.229-.114-.267-.077-.228-.114-.305-.038-.267h.038l.114.381.153.381.19.267.23.267.228.19.267.191.533.305.572.38.381.192.495.343.19.152.153.19.153.229.038.267.038.381v.457l-.076.381-.114.42.114-.039.076-.076.19-.076.115-.038h.381l.076.038.038.038.077.038.038.076.076.038.038.077.038.038v.038z"/><path id="_111995528" class="fil2 str0" d="M81.557 34.667l-.038-.114-.648-.076-.572-.153-.572-.114-.533-.229-.229-.114-.228-.19-.19-.153-.153-.19-.19-.23-.077-.266-.076-.267v-.305l-.038-.19-.115-.115-.114-.19-.19-.153-.23-.114-.266-.038-.267-.038-.267.038v-.153l-.076-.114-.076-.076-.153-.076-.114-.077-.038-.076v-.114l.076-.076.229-.077h.571l.267.039-.076-.23-.153-.114-.114-.152-.19-.114-.42-.19-.38-.191-.458-.038-.19-.077v-.19l.076-.267.19-.495.343-.686.038-.153.115-.114.114-.115.115-.076.38-.076.343-.038.344.038.38.076.344.19.266.23.115.114v.19l-.038.114-.077.153-.228.267-.153.305h.23l.266-.039.19.039.19.038.039.457.076.457.076.153.115.076.076.038h.152l.19-.076.23-.114.266-.153.191-.076h.114l.115.038.038.076.076.153.152.266.153.306.038.114v.19l-.076.153-.19.114.342.19.305.153.267.229.229.228.114.267.038.267v.305l-.038.267-.038.267v.304l.038.267.076.267h-.114l-.076.038-.115-.381-.152-.457-.229-.382-.229-.305-.457-.342-.495-.267-.42-.153-.457-.228-.152-.077-.23-.152-.19-.152-.19-.191-.381-.61-.381-.8-.077-.343-.076-.305-.038-.114-.076-.153-.114-.114-.115-.152-.229-.077-.266-.076.228.076.23.077.152.19.152.19.076.42.076.419.42.8.228.343.19.305.268.305.343.229.571.266.534.23.305.19.228.114.267.229.153.228.114.115.114.229h-.343l-.114.038-.114.19-.153.153-.038.228.038.229h-.457l-.153-.038-.076-.038-.076-.039-.114-.114-.077-.267-.038-.228v-.496l-.038-.267-.076-.228-.114-.229-.19-.19-.153-.039-.19-.038-.192.038-.228.038-.381.191-.381.267-.19.076h-.153l-.115-.076-.038-.152-.152-.267-.077-.267-.19-.114-.153-.077-.152-.076h-.19l-.344.115-.342.228-.343.19-.382.23-.228.114-.153.076-.228.038h-.191l.114.305.115.267.228.267.23.19.418.381.42.458.114.19.038.152v.19l-.038.115-.153.23-.266.228-.267.228-.229.229-.076.114-.076.153-.038.114.038.19.19.306.229.305.267.228.305.267.343.152.419.191.38.19.42.115.076.038.077.076.076-.076.114.076h.153l.076.038.076.038.076.038.077.038.076.115.038.038.038.038.038.076v.039l.076.076v.076l.038.038v.153l.039.076v.571l.038.038v.267l.038.038v.115l.038.038v.038l.076.038.038.038h.038l.038.038h.267v-.114l.038-.038v-.115l.038-.038v-.038l.077-.076.038-.038v-.076l.038-.038.038-.038.038-.039.114-.038.038-.038.039-.076h.076l.038-.038h.19v-.038l.077-.038.076-.077.076-.038.038-.114.077-.038.038-.038.114-.038.038-.038.076-.077.115-.038.038-.038.076-.038-.038-.229v-.877l.038-.8v-.419l-.038-.343-.038-.19-.115-.115-.076-.152-.076-.115-.305-.266-.267-.229-.305-.229-.343-.152-.647-.381-.648-.343-.763-.267-.152-.19-.038-.267v-.419l.038.228.038.267.076.114.038.077.077.114.076.038.838.305.762.343.42.19.38.229.382.267.343.267.114.114.153.152.114.153.038.19.153.42.038.38v.839l-.038.838.038.191.038.19.114-.075h.153l.114-.039h.61l.038-.152.076-.19.153-.191.114-.153.19-.19.19-.153.192-.114.266-.19.115-.115v-.419l-.115-.075-.38-.229-.306-.229-.266-.266-.191-.305-.152-.305-.115-.305-.076-.343z"/><path id="_112033072" class="fil2 str0" d="M84.377 39.926l.343-.076.381-.114.305-.153.305-.228.229-.267.152-.305.152-.381.038-.343h-.304l-.115-.038-.152-.038-.076-.115-.115-.038-.038-.076v-.076l.038-.229.077-.19.114-.153.152-.152.343-.267.382-.229.419-.266.343-.23.19-.152.115-.19.152-.19.038-.191.038-.191.038-.19-.038-.115v-.152l-.076-.076-.114-.077-.076-.038-.115-.076-.61-.114-.61-.19.267-.42.19-.534.039-.228v-.267l-.076-.267-.19-.267-.153-.076-.115-.114h-.38v-.457l-.115-.191-.076-.152-.153-.115-.114-.152-.19-.038-.153-.038-.42-.038-.457.038-.38.076-.344.19-.152.077-.076.114-.076.076-.077.076-.038.229.038.229.229.495.267.572-.153.038h-.228l-.19-.038-.23-.038-.343-.19-.305-.115v.609l.115.077.152.114.115.076.114.077.114.228.153.229.038.076.038.076-.038.076-.038.038-.343.039-.343.038.076.19H81.9v.038h-.038v.039l-.038.038v.038l-.038.114v.114l.038.115v.114l.038.076v.115l.038.114.038.076v.115l.038.114.038.114.076.076.077.077.038.114.076.076.076.077.076.038.076.114.115.076.076.076.115.077.114.076.114.038.153.076h.076l.038.114v.038l.038.077v.114l.076.076v.191l-.076.076v.114l-.038.038-.038.115-.038.038-.229.114-.114.114-.19.077-.153.076-.077.114-.076.115-.114.114-.076.076-.038.115-.038.114-.039.076v.038h.572l-.114.153h.267l.114.038h.076l.534-.61.495-.686.152-.381.19-.381.153-.381.077-.42.19-4.001.038 4.078-.038.38-.152.42-.115.381-.228.343-.457.724-.496.724h.076l.038.039.076.038.039.038h.114l.038.038.076.038.038.076.039.038.114.038.038.038.038.039.038.038.076.038.077.076h.038l.038.038z"/><path id="_111994240" class="fil2 str0" d="M73.858 19.804l.229.267.305.19.267.153.343.114.267.076.343.076.304.038h.305l1.334-.038 1.258.038h.114l.076.077.077.076.038.114v.267l-.114.305-.153.381-.229.343-.305.305-.38.267-.039.114.038.114.115.077.114.038.381-.038h.686l.305.038.267.076.228.114.23.153.113.152-.076.114-.076.077-.152.114-.077.114-.038.115-.076.19-.076.115-.038.114v.114l-.039.153v.571l.038.115.039.114.076.114.038.077.038.152.076.076.039.153.114.038.038.038.038.038.076.114.038.038.077.038.076.039.038.038h.076l.076.038.077.076h.038l.076.038h.114l.038.038-.152.305-.153.305-.114.19.076.077.077.076.114.076.381.039.305.076.114.076.115.076.038.076v.076l-.038.153-.153.076-.076.153-.153.114v.19l.077.077-.153.076-.228.152-.038.076-.038.077v.152l.038.077.038.228.152.229.038.228.038.23v.114l-.038.152-.076.076-.152.115v-.077l.038-.076v-.114l-.038-.114-.038-.077-.039-.114-.038-.076-.076-.077-.038-.114-.038-.038-.038-.076v-.038l-.039-.077-.038-.076-.076-.076-.038-.114-.076-.038h-.038l-.229-.306-.228-.228.038-.076.038-.077v-.533l-.038-.572-.038-.533-.153-.572-.153-.381-.228-.381-.229-.381-.266-.305-.344-.152-.304-.115-.153-.076-.114-.076-.153-.115-.076-.152-.152-.457-.115-.458-.076-.19-.076-.229-.153-.19-.114-.153-.229-.19-.228-.153-.267-.076-.229-.076-.533-.153-.534-.152-.152-.115-.19-.076-.191-.152-.115-.153-.038.038.19.23.23.151.228.153.305.114.457.153.496.19.19.076.229.115.19.19.191.191.19.572.153.61.076.266.19.267.077.076.076.153.153.076.19.038.153.038.19.114.115.038.152.115.267.38.267.42.19.496.076.457.038 1.41-.38-.381-.42-.381-.38-.381-.42-.42-.267-.038h-.343l-.152-.038-.076-.076-.039-.152.038-.077.23-.228.113-.267.077-.076.038-.153v-.152l-.038-.153-.153.153-.19.152-.153.115-.229.114-.457.152-.495.038-.42-.038-.495-.114-.19-.076-.191-.076-.19-.153-.153-.114-.114-.153-.077-.114-.076-.152-.038-.191-.038-.343.038-.381.267.038h.267l.266-.038.267-.114.496-.191.457-.229.076-.038v-.19l-.076-.077-.229-.228-.228-.115-.8-.114-.84-.076-.38-.076-.381-.077-.305-.114-.267-.152-.19-.115-.077-.19v-1.296l.153-.305.152-.305.229-.305.266-.266.153-.077v.039l-.114.114-.077.152-.038.038v.038h.038l.23-.19z"/><path id="_112029240" class="fil2 str0" d="M81.862 27.96l-.153-.572-.152-.534h.229l.076-.038h.114l.038-.038h.115l.038-.076.762-.267-.229-.19h.115l.114-.077.076-.038.076-.038.115-.038.076-.038.076-.114.114-.039.076-.076.077-.038.076-.038.076-.114.077-.038.038-.039.114-.076.038-.076.038-.038.076-.038.038-.038.648-.496-.724-.343-.076-.038-.114-.038-.076-.076-.077-.076-.076-.039-.114-.076-.077-.076-.076-.076-.152-.038-.076-.077-.153-.076-.114-.038-.153-.038-.152-.038h-.381l.19-.305h-.419l.153-.229.19-.19.19-.114.23-.153.266-.038.305-.038h.381l.343.038-.038-.152.038-.191.305-.038h.343l.076-.153.038-.114-.038-.152-.076-.077-.153-.228-.228-.229-.267-.19-.19-.191-.038-.076-.039-.153.038-.076.039-.114.19-.153.19-.152.191-.076.229-.077.533-.114.458-.152h.267l.038.038.076.114.114.19.076.344.115.304.267.191.266.229.19.038.191.038.153.038.229-.038-.038.19.038.153.038.19.114.191.076.152.038.153-.038.19-.038.153-.267.381-.228.305-.077.152-.038.191-.076.229.076.152.115-.114.19-.077h.153l.152.039.153.152.114.229.038.19.038.229v.152l-.038.23-.038.19-.114.152-.115.19-.228.153-.267.076-.267.076-.267.039-.305.076-.228.114-.153.19-.114.115-.038.19.038.23v.152l.038.19-.038.19-.038.039-.038.076-.076.038-.115.038-.343.153-.267.114-.228.19-.153.23-.381.647-.343.534-.19.267-.115.266-.076.305-.114.42-.305-.153-.267-.076-.267-.038h-.267l-.228.038-.153.076-.19.152-.19.115.114-.381.114-.42.229-.38.266-.382 1.41-1.524 1.487-2.401.152-.305.19-.305.115-.305.076-.381-.076-2.287h-.038l-.076 2.287-.076.343-.115.305-.152.267-.19.266-1.068 1.792-.61.724-.724.724-.305.305-.343.38-.266.344-.23.457-.037.153-.038.114-.077-.038v-.076l-.038-.077v-.038l-.038-.076-.038-.038v-.114l-.038-.038v-.267h.038l.038-.039.076-.038h.077l.076-.038.076-.076.038-.152-.076-.115v-.076l.038-.038.038-.038.077-.038.038-.076.076-.076.076-.077.038-.076.076-.152-.076-.115-.038-.152z"/><path id="_112077320" class="fil2 str0" d="M70.467 15.002l.038-.42.076-.457.076-.19.038-.153-.038-.152-.076-.114-.343-.267-.381-.229-.229-.114-.19-.153-.115-.19-.152-.153-.038-.19-.038-.19v-.344l.076-.344.19-.305.115-.152.114-.114.114-.115.153-.038.267-.038h.305l.571.153.61.038v.114l.038.076.114.114.038.077.077.076.038.152v.077l-.076.152h.381l.19-.038.153-.076.305-.115.343-.152.228-.076h.381l.153.038.114.038.153.152.114.077.114.152.153.305.114.343.038.42v.342h.496l.38-.038.039-.19.038-.153.267-.114.228-.038.229.038.19.114.305.305.23.305.075.267.038.304v.305l-.038.305v.573l.038.267.153.228.305.229.343.19.343.115.419.152.114.077.19.076.115.152.115.115.076.152.038.152v.496l-.153.076-.228.153-.038.266v.305h.305l.076.076.038.115-.038.229-.038.152-.038.152-.153.153-.228.267-.306.304-.076.191-.038.19v.496h-.152v-.153l-.153-.724-.228-.99-.115-.267-.076-.267-.114-.267-.19-.228-.115-.191-.229-.152-.229-.153-.266-.114-.496-.114-.533-.153-.229-.114-.19-.115-.191-.19-.153-.153-.114-.343-.076-.304-.114-.305-.038-.343-.038-.305-.077-.381-.114-.305-.114-.305-.191-.19-.19-.115-.23-.076-.228-.115-.533-.038-.496-.038-.305-.076-.266-.114-.153-.077-.114-.076-.038-.152-.115-.115v.153l.115.152.076.076.152.115.305.152.305.077.42.076.495.076.228.038.229.076.152.153.153.19.114.343.115.343.038.381.076.382.038.343.114.38.115.305.19.305.229.23.267.113.266.153.267.114.61.19.533.23.115.114.19.152.077.114.152.23.19.456.115.42.114.876.153.61h-.076l-.153-.343-.076-.305-.076-.152-.115-.153-.114-.076-.19-.114-.458-.153-.381-.076-.457-.114-.381-.038-.877-.115-.8-.19-.267-.153-.229-.19-.228-.343-.115-.305-.076-.153v-.342l.076-.115.076-.19.077-.115.19-.076.229-.114-.267-.305-.267-.229-.305-.229-.38-.114-.344-.076-.38-.076h-.763l-.229-.305z"/><path id="_112111224" class="fil2 str0" d="M74.583 11.42v-.23l.038-.228.038-.152.114-.19.114-.153.19-.115.268-.038.343-.038.152.038.153.077.19.114.115.114.114.19.038.153-.038.153-.038.076-.114.114-.115.076.267.23.228.228.115.076.19.038.115.038.19-.038v-.114l.038-.229.191-.038.229-.076h.152l.19.076.153.076.153.077.114.152.076.114.076.762.076.534.191.114.115.19.114.153.038.153.076.38.038.306h-.38l-.268.038-.076.038-.114.038-.038.114-.038.077v.419l.038.495-.038-.038-.077-.038-.152-.038h-.076l-.038-.038-.115-.076-.076-.038-.076-.039-.038-.038-.115-.038-.038-.114h-.038v-.038l-.038-.038v-.077l-.038-.038v-.686l.038-.038v-.838l-.038-.077v-.076l-.076-.076v-.076l-.038-.114-.077-.077-.038-.076-.038-.076-.114-.115-.077-.076-.038-.076-.114-.114-.114-.038-.076-.077-.153-.038-.114-.076h-.267l-.153.076-.19.038-.152.038-.077.115v.114l-.076.076v.038h-.038l-.038.039h-.191l-.076-.039h-.114v-.152l-.076-.114v-.153l-.039-.114v-.114l-.038-.115v-.076l-.038-.076-.038-.114-.038-.077-.076-.076-.038-.114z"/><path id="_112085400" class="fil2 str1" d="M71.915 17.632H33.042v41.007l.038.533.114.534.115.457.19.495.267.42.267.38.305.382.419.305.381.266.381.267.496.153.495.19.534.115.533.114.534.038.571.038 1.792-.076 1.943-.152.953-.077 1.029-.038h.99l.954.038.99.115.915.19.458.153.419.152.419.19.381.23.42.228.342.228.381.344.343.343.305.343.267.457.267.42.267.533.228-.534.267-.419.267-.457.343-.343.305-.343.343-.344.38-.228.382-.229.42-.228.418-.191.42-.152.419-.153.952-.19.953-.115.991-.038h.99l.992.038.99.077 1.944.152 1.791.076.572-.038.534-.038.533-.114.534-.115.457-.19.496-.153.419-.267.38-.266.42-.305.305-.381.267-.381.267-.42.152-.495.153-.457.076-.534.038-.533V30.893z"/><path id="_112149552" class="fil2 str1" d="M48.477 8.98l.914.458.953.495.839.458.8.533-.152.038-.077.153-.114.076-.114.114-.077.038-.076.076-.152.077-.076.114-.077.038-.076.077-.076.114-.076.076-.115.038-.076.076-.076.115-.115.076-.076.076-.038.114-.076.038v.039h-.076l-.038.038-.039.038-.038.076v.038h-.038v.038h-.038v.038h-.076v.038l-.038.039h-.038v.038l-.038.076-.038.038v.038l-.039.038-.076.038-.038.039-.038.076v.038h-.038l-.038.038-.038.038v.038l-.077.038-.038.076-.038.039v.038l-.038.038-.038.038v.038h-.038v.076l-.076.038v.038h-.038v.039h-.039v.038l-.038.038v.076l-.038.038-.038.038v.038l-.038.039-.076.038v.076h-.038l-.038.114-.038.076-.039.115-.114.076-.038.076-.038.115-.038.114-.038.076-.039.114-.076.077-.038.076-.038.152-.038.077-.038.114-.038.076-.076.076v.153l-.039.076-.038.076v.114l-.038.115-.038.114v.076l-.038.077v.227l-.077.076v.191l-.037.076v.267h-.839l-1.067-3.544-.572-.572-.495-.648-.457-.686-.382-.762-.304-.762-.229-.8-.076-.458-.038-.457-.038-.42v-.837l1.257.19 1.334.38.686.153.648.229.686.267z"/><path id="_112184272" class="fil2 str1" d="M47.829 5.894l-.458.343-.38.38-.42.458-.343.42.115.037.19.077.114.038.191.038.19.076.153.076.19.038.191.038.153.115.152.038.153.076.19.038.19.114.153.077.19.038.153.038.076.076.115.076.152.038.114.039.115.076.114.038.152.076.077.076.114.038.152.039.077.114.152.038.076.038.153.076.076.038.114.115.115.038.114.076.114.038.115.076.076.077.152.038.076.076.153.076.076.076.076.039.153.076.076.076.076.076.115.076.305.191.114-.152.152-.077.115-.076.152-.114.114-.076.153-.077h.038l-.038-.038v-.076l-.038-.038-.039-.038-.076-.038-.038-.038h-.038l-.076-.153-.114-.076-.61-.61-.648-.572h-.076l-.762-.686-.953-.61-.953-.533z"/><path id="_112179640" class="fil2 str1" d="M52.478 4.026l.305.229.305.266.305.305.305.305.572.648.495.686-.114.076-.153.077-.076.076-.152.076-.115.076-.076.115-.152.076-.115.076-.114.038-.114.115-.115.076-.114.076-.076.114-.153.077-.076.076-.076.114h-.076l-.039.038-.038.038-.038.038-.038.038-.038.077-.114.038-.038.038-.077.076v-.038l-.114-.038-.076-.076-.076-.115-.115-.076-.076-.038-.114-.114-.114-.076-.115-.077-.114-.114-.115-.076-.076-.076-.152-.039-.076-.114-.153-.076-.076-.076-.114-.115-.153-.038-.076-.076-.153-.114-.114-.077-.152-.038v-.038l.495-.686.572-.648.266-.305.305-.304.381-.267z"/><path id="_112191528" class="fil2 str1" d="M58.805 7.494l-.381-.457-.42-.42-.38-.38-.458-.343-1.067.533-1.03.572-.876.61-.876.685-.19.115-.23.19.077.038.076.077.076.076.114.114.077.038.038.077h.038v.038l.038.076.038.038.077.038.038.038.038.038v.038h.038V9.4h.038v.038h.038v.038h.076v.038l.077.076.114-.076.533-.267.61-.305.496-.266.61-.267.61-.229.57-.228.572-.191.61-.19z"/><path id="_112201576" class="fil2 str1" d="M56.518 8.98l-.648.305-.61.305-.61.343-.571.305-.533.343-.534.343-.495.381-.496.381-.724.572-.61.61-.076.114-.076.114h-.077v.039l-.038.076h-.038l-.038.038v.038h-.038v.038l-.038.038v.038h-.076l-.267.343-.19.305-.077.038-.038.077-.038.038v.076l-.038.038-.038.038v.038l-.115.076-.076.153-.343.686-.305.724-.152.343-.076.381-.038.343-.039.343h9.718l1.068-3.544.571-.572.534-.648.457-.686.343-.762.305-.762.229-.8.114-.458.038-.457.038-.42v-.837l-1.295.19-1.334.38-.648.153-.686.229-.648.267z"/><path id="_112193384" class="fil3" d="M52.326 16.526h5.183l.953-3.125.343-.305.152-.114.077-.152.114-.115.152-.152.115-.115.114-.152.114-.152.076-.153.115-.152.076-.153.153-.19.076-.115.038-.19.076-.153.114-.19.077-.153.038-.152.114-.19.038-.153.038-.19.076-.191.038-.229.077-.152v-.19l.038-.039-.19.534-.267.533-.305.42-.305.495-.8.838-.877.839-.953 3.125z"/><path id="_112206944" class="fil3" d="M52.821 12.22l-.114.076-.114.114-.076.038-.077.077-.114.114-.076.038-.038.076-.115.038-.076.077-.076.114-.114.038-.039.076-.076.039-.076.114-.076.076-.077.038-.038.114-.076.039v.038h-.076v.038l-.038.038-.038.038-.038.076h-.038v.038l-.039.038-.038.039v.038h-.076v.038h-.038v.076h-.038v.038h-.038v.038l-.038.038-.038.039v.038h-.077l-.038.076v.038l-.038.038v.038h-.038l-.038.038v.038l-.038.077-.077.038v.038h-.038v.038h-.038v.076h-.038v.038h-.038v.077l-.038.076h-.076v.038l-.038.038v.038l-.039.076-.038.077-.038.038-.038.076-.076.114-.038.076-.038.077-.038.076-.038.076-.039.076v.115l-.076.038-.038.076-.038.076v.114l-.038.039-.038.076v.114l-.038.038v.038h.724v-.076h-.038l.038-.114v-.038l.076-.076.038-.115v-.076l.038-.038.038-.076.038-.115v-.076l.038-.038.077-.114.038-.077.038-.076.038-.038.038-.114.038-.076.077-.077.038-.114h.038v-.038l.038-.038v-.038l.038-.038.038-.077v-.038h.076v-.038l.038-.038v-.038h.038v-.038l.039-.038v-.077l.038-.038h.038v-.038l.038-.038.076-.038v-.038h.038v-.076l.038-.038.038-.039v-.038l.039-.038h.038v-.038l.076-.076h.038v-.038l.038-.038.038-.039v-.038h.038v-.038h.039v-.076h.076v-.038h.038v-.038h.038v-.038h.038v-.038l.038-.039.114-.114.039-.038.076-.076.038-.038.114-.115.077-.076.038-.038.076-.114.114-.038.076-.077.077-.076.076-.038.076-.114.076-.038.114-.077.077-.038v-.076l.076-.076.153-.076.114-.115.076-.076.153-.076.076-.114.152-.038.114-.077.153-.076.076-.114.153-.077.114-.076.152-.114.115-.076.152-.077.114-.076.115-.076.152-.076.115-.115.152-.038.114-.076.19-.076.154-.114.114-.039.152-.076.153-.076.152-.076.114-.076.19-.077.115-.038.19-.114.115-.038.19-.076.153-.039.152-.114.191-.038.114-.076.191-.038.152-.077.153-.076.19-.038.115-.038.19-.038.115-.076.19-.077.153-.038.152-.038.19-.038.115-.076.19-.038.153-.038.152-.038h.038l.077-.077h-.19l-.153.038-.153.039-.19.038-.114.038-.191.038-.153.076-.152.038-.152.038-.153.038-.19.039-.115.038-.19.076-.153.038-.152.038-.153.076-.152.038-.19.077-.153.076-.153.038-.152.038-.152.114-.191.039-.114.076-.19.038-.153.114-.153.038-.152.077-.153.076-.152.076-.114.076-.191.038-.152.077-.115.114-.152.076-.153.038-.152.076-.114.115-.153.038-.114.076-.153.114-.114.077-.152.076-.115.114-.152.038-.114.076-.153.077-.076.114-.114.076-.153.077-.114.114-.115.076-.114.076-.076.115z"/><path id="_112267160" class="fil3" d="M47.22 15.383l-.61-1.982-.306-.305-.114-.114-.114-.152-.114-.115-.153-.152-.114-.115-.115-.152-.114-.152-.076-.153-.114-.152-.077-.153-.114-.19-.114-.115-.076-.19-.039-.153-.114-.19-.076-.153-.038-.152-.077-.19-.076-.153-.038-.19-.076-.191-.038-.229-.038-.152-.077-.19v-.039l.19.534.268.533.305.42.305.495.8.838.914.839.572 1.905-.076.115-.076.076-.038.152-.039.115-.114.076z"/><path id="_112264496" class="fil3" d="M50.42 11.305h-.038l-.114-.114-.153-.076-.114-.077-.152-.076-.114-.076-.153-.076-.114-.115-.153-.038-.19-.076-.115-.076-.114-.114-.152-.039-.115-.076-.19-.076-.153-.076-.152-.076-.153-.077-.114-.038-.19-.114-.115-.038-.19-.076-.153-.039-.152-.114-.19-.038-.115-.076-.19-.038-.115-.077-.19-.076-.191-.038-.114-.038-.191-.038-.114-.076-.191-.077-.19-.038-.115-.038-.19-.038-.115-.076-.19-.038-.115-.038-.19-.038h-.076v-.077h.152l.152.038.153.039.153.038.19.038.152.038.153.076.152.038.153.038.152.038.153.039.19.038.153.076.152.038.152.038.153.076.19.038.153.077.152.076.153.038.152.038.152.114.191.039.153.076.152.038.153.114.152.038.153.077.114.076.19.076.115.076.19.038.153.077.114.114.152.076.115.038.19.076.115.115.152.038.114.076.153.114.076.038-.038.077-.153.076z"/><path id="_112266464" class="fil3" d="M58.004 7.266l-.076-.039-.038-.076-.076-.038-.038-.076-.038-.038-.038-.038-.039-.077-.038-.038-.076-.038-.038-.038-.038-.038-.076-.038-.038-.076-.077-.038-.038-.039-.038-.038-.038-.038-.076-.038-.153.076-.114.038-.152.077-.115.076-.114.076-.114.038-.153.076-.114.077-.153.076-.076.076-.114.038-.153.115-.076.038-.152.076-.115.114-.076.038-.152.077-.077.076-.152.076-.076.076-.153.076-.076.115-.114.038-.115.076-.114.076-.114.115-.076.038-.077.076-.152.076-.076.114.8-.571.877-.534.876-.495.915-.457.419.304z"/><path id="_112240464" class="fil3" d="M47.029 7.266l.038-.039.038-.076.038-.038.038-.076.038-.038.076-.038.038-.077.038-.038.039-.038.076-.038.076-.038.038-.038.038-.076.038-.038.039-.039.114-.038.038-.038.038-.038.114.076.496.267.61.381.686.458.724.495 1.296.953 1.028.8-1.067-.724-1.372-.991-1.41-.876-1.105-.686-.457.304z"/><path id="_112270304" class="fil3" d="M52.478 4.674l.381.305.381.381.306.381.304.42v.037l-.304-.419-.306-.343-.419-.305-.343-.305-.419.305-.343.305-.305.343-.305.42V6.16l.267-.419.343-.381.343-.381z"/><path id="_112274832" class="fil2 str0" d="M22.638 24.072l-.229.038-.229.038-.152.115-.19.114-.344.267-.419.229.534.419.571.419.153.076.114.038h.267l.19-.038.115-.076.114-.152.114-.191.039-.19.076-.191-.076-.229-.039-.228-.114-.191-.152-.152-.153-.077z"/><path id="_112281128" class="fil2 str0" d="M22.98 26.283l.23.076.228.038h.457l.19-.038.191-.076.191-.153.152-.152.115-.153.076-.19.076-.153v-.533l-.076-.343-.114-.229-.153-.19-.114-.115-.19-.152-.23-.076-.19-.039-.19-.076h-.23l.077.229.076.267.077.266v.496l-.077.229-.038.228-.076.19-.076.191-.114.19-.115.115z"/><path id="_112282792" class="fil2 str0" d="M22.561 39.469h-.266l-.267.114-.267.115-.229.19-.457.305-.495.267.648.572.762.495.152.076.19.076h.344l.191-.076.115-.076.19-.19.115-.23.114-.19v-.61l-.114-.266-.115-.191-.19-.229-.077-.038-.152-.114h-.076z"/><path id="_112291128" class="fil2 str0" d="M22.828 42.403v.038l.305.115.267.076.305.038.267-.038.304-.038.267-.114.229-.153L25 42.1l.114-.19.152-.23.038-.19.039-.229v-.458l-.039-.228-.076-.19-.152-.267-.153-.229-.228-.19-.229-.115-.267-.152-.267-.038-.266-.038h-.305l.19.266.153.305.076.343.076.42-.076.304-.038.267-.076.267-.153.228-.114.191-.19.19-.191.153z"/><path id="_112294640" class="fil2 str0" d="M29.46 54.79l-.267.038-.267.076-.229.152-.19.153-.496.305-.457.266.61.534.724.533.19.115.153.038.19.038h.19l.154-.076.19-.115.114-.152.19-.229.039-.228.038-.267-.038-.305-.076-.267-.153-.228-.152-.23-.115-.037-.076-.077h-.114z"/><path id="_112301296" class="fil2 str0" d="M29.726 57.648h.039v.038l.266.114.305.076.267.038.305-.038.266-.038.267-.076.267-.19.229-.23.152-.19.076-.19.077-.229.076-.229v-.228l-.076-.229-.038-.19-.039-.23-.19-.266-.152-.228-.23-.191-.228-.114-.267-.153-.266-.038-.267-.038h-.305l.228.267.115.305.114.343.038.419v.305l-.076.266-.114.267-.077.229-.19.229-.152.152-.19.19z"/><path id="_112303616" class="fil2 str0" d="M27.897 19.499l.076.229-.076.19-.038.229-.115.19-.114.077-.038.114h-.495v-.076l.076-.077v-.038l.038-.076v-.076l.038-.076v-.038l.038-.038v-.039l.038-.114.038-.038v-.038l.077-.038.038-.038v-.077h.038l.038-.038.076-.038h.076l.077-.038.076-.038z"/><path id="_112307720" class="fil2 str0" d="M25.915 22.052l-.533.381-.534.343-.572.305-.571.267h-.153l.077-.8v-1.143l-.039-.42-.076-.38-.076-.344-.038-.152-.152-.115-.115-.114-.152-.076-.077-.152-.038-.077v-.19l.038-.153.382-.419.457-.343.19-.229.077-.152v-.191l-.038-.152-.115-.076-.19-.343-.229-.343-.19-.381-.039-.382-.038-.19v-.229l.038-.152.038-.19.077-.191.152-.153.114-.152.191-.114.114-.039.153.039.076.076.114.038.305-.038.19-.076.153-.153.076-.152.115-.42.038-.533.229.152.19.038-.038.077v.076l-.038.114v.153l-.038.114v.152l-.076.382.419-.115h.419l.038.076h.038v.039h.038v.076l.038.076v.076l-.038.038v.724l-.038.077h-.076l-.114.038-.077.038-.114.038-.114.038-.038.114-.077.038-.114.039-.076.076-.038.114-.076.038-.039.115-.076.114-.038.076-.038.114v.382l.038.152.038.152.115.039.076.038h.076l.076.038h.038v.038h.038v.229l-.152.038h-.076l-.076.114-.115.076-.038.076v.343l.038.115.076.076.039.114.038.077.038.076.038.114.114.076.038.077.077.114.038.038.114.076.038.076.076.077.038.076.039.038.076.038v.114l.038.039v.304l-.038.077v.114h-.153l-.076.038-.114.038-.038.038-.038.076-.039.077-.038.076-.038.076v.267l.038.076v.115l.038.076v.076l.039.114.038.077.076.076.038.114.038.076z"/><path id="_112320768" class="fil2 str0" d="M32.623 59.782l-.381-.305-.381-.305-.42-.267-.419-.267-.267-.114-.267-.038-.266.038-.229.114-.305.306-.267.304-.152.153-.114.114-.19.152-.154.077-.228.038h-.419l-.153-.076-.305-.229-.266-.229-.077.153-.038.305-.076.38-.076.42.61.19.647.191.687.076.648.115 1.371.114 1.334.152.267.077.305.076.267.152.267.191-.153-.229-.152-.228-.115-.23-.152-.266-.114-.229-.115-.266-.076-.267-.076-.305z"/><path id="_112317960" class="fil2 str0" d="M29.993 58.258l-.305.152-.305.076-.266.038-.306.076h-.304l-.381-.076-.305-.038-.305-.076v-1.181l-.038-.267v-.115l.571.153h.039l.076.076.114.038.114.115.115.038.114.038.076.076h.153l.114.038.19.457h.039v.038l.038.038.038.039.114.076.038.038h.038l.077.038.114.038.076.038h.076l.115.038z"/><path id="_112338120" class="fil2 str0" d="M27.097 55.4l-.038-.153-.076-.19-.039-.23-.152-.228-.077-.19-.076-.153-.114-.19-.114-.191-.153-.153-.114-.19-.076-.114-.19-.153-.153-.114-.115-.115-.19-.076-.115-.076-.19-.114-.19-.039-.115-.038h-.267l.153-.495v-.534l.228.038.229.077.19.076.191.114.305.229.305.305.267.305.266.38.306.306.342.266.038.42.077.419.266.114.267.19h-.076l-.038.039-.038.038-.077.076-.038.038-.076.039-.038.038h-.076l-.038.038-.038.038-.077.076h-.038l-.038.038h-.076z"/><path id="_112351800" class="fil2 str0" d="M22.142 55.247l-.305-.114-.305-.077-.266-.114-.305-.038h-1.258l-.038-.267-.076-.229-.152-.229-.077-.266-.076-.153-.076-.228v-.191l.114-.076.038-.076.496-.267.571-.229.572-.266.572-.267.304-.19.42-.191.152-.077h.229l.229.077.19.152.038.153-.038.114-.076.152-.076.153v.152l.038.153.038.19.152.19-.076.077-.152.152-.115.115-.152.152-.076.153-.267-.153-.267-.19-.305-.153-.419-.076v.038l.381.114.305.153.267.19.266.229-.076.038-.076.152-.076.23-.038.228-.115.229-.038.228z"/><path id="_112344144" class="fil2 str0" d="M26.64 52.389l-.077.076-.152-.076-.19-.115h-.039l-.038-.076-.076-.038-.115-.076-.076-.115-.038-.038-.114-.076-.115-.038-.076-.114-.114-.039-.076-.038-.115-.038-.152-.038h-.115l-.114-.038-.343-.076v.343l-.99-.229-.915-.229-.915-.19-.8-.153-.153-.076-.114-.038-.076-.076-.115-.076-.114-.229-.038-.267-.076-.267.114-.304.076-.306.19-.266-.037-.114-.115-.077-.114-.076-.152-.114-.61.038-.61.152-.305.038h-.305l-.267-.038-.266-.076-.229-.19-.152-.153-.115-.114-.038-.153-.038-.152v-.153l.038-.114.076-.152.229-.305.305-.229.343-.19.42-.229-.153-.114-.077-.077-.038-.076.038-.114h-.762l-.686-.076-.38-.039-.306-.152-.305-.152-.266-.229-.077-.19V45.3l.077-.114.152-.115.114-.152.153-.114.114-.153.114-.19.039-.153-.039-.19-.114-.115-.114-.152-.229-.038-.267.038-.114-.038h-.114l-.077-.038v-.305l.039-.23.038-.228.114-.152.076-.19.153-.115.19-.153.229-.076.457-.114h.762l.382.114.152.076.19.077.115.114.152.114.077.153.114.152.038.229.038.229.839-.267.838-.305.381-.076.42-.076h.19l.19.076.191.038.229.114.114.114.114.077.038.076.038.152v.267l-.076.267-.076.305-.038.267v.266l.038.267.114.038.077.038h.266l.305-.076.305-.152-.076.228.038.267.076.19.19.153.344.381.42.267.113.076.077.038h.114l.038-.038.114-.19.115-.229.114-.19.114-.191.077-.077.076-.038h.152l.115.038.19.039.153.076.152.076.076.115.19.61.115.571.038.42v.418l.076.19.039.23.076.152.152.19.114.153.191.076.153.038.228.038.229.115.19.038.153.076.152.153.038.114.039.152.038.115v.152l-.077.229-.152.267-.19.228-.267.267-.267.19-.343.23-.114.037-.039.115-.838-1.449-.19-.342-.077-.382-.076-.114-.114-.152-.115-.077-.19-.076-.915-.38-.953-.268-.419-.152-.457-.19-.381-.23-.42-.304-.304-.267-.267-.305-.229-.305-.19-.343-.229-.38-.229-.306-.267-.267-.342-.228-1.83-.915 1.791 1.067.343.267.267.343.267.42.229.38.343.458.304.38.42.382.419.305 2.934 1.105.115.076.152.076.724 1.601z"/><path id="_112355512" class="fil2 str0" d="M26.944 52.16l-.19.343.076.305.19.343.23.266.266.191.724.42.724.342h.191l.152-.038h.038l-.19-.19h.266l-.076-.42-.038-.495-.114-.495v-.915l.114-.457.114-.382.19-.419.573-.8.228-.496.115-.533.114-.534.038-.495-.038-1.143-.152-1.106h.038l.152.763.115.724.076.38v.762l-.076.344-.039.42-.076.342-.152.343-.153.381-.19.305-.229.305-.114.19-.115.115-.076.19-.038.153-.038.8.038.724.076.763.153.685h.838l.115.038h.076l.076.077h.114l.038.038h.076l.039.038.648-.42.647-.342v-2.744h-.19l-.229-.038-.114-.076-.152-.115-.115-.076-.038-.19.038-.153.038-.267.153-.266.152-.267.229-.267.228-.267v-3.849h-.152l-.495.114-.61.19.038-.495v-.533l-.038-.457-.153-.42-.076-.19-.076-.114-.152-.153-.153-.114-.19-.076-.23-.039-.228.039-.305.076-.076.038-.114.038-.077.076-.038.114-.038.153-.076.229-.038.267v.228l-.038.229-.115.19-.61.534-.647.61-.267.304-.229.305-.076.153-.114.19v.42l.114.342.153.382.304.457.267.457.19.458.191.457.038.229v.228l-.038.19-.038.191-.228.305-.229.229-.267.228-.229.191-.152.153-.152.19-.038.114.038.115.038.114.114.153-.152.038z"/><path id="_112390592" class="fil2 str0" d="M24.581 45.834v-.268l-.038-.228-.038-.267-.152-.228-.153-.23-.228-.228-.267-.152-.343-.19-.114-.115v-.229l.038-.228.076-.077.305-.152.228-.152h.115l.076-.077h.114l.076-.038.077-.038h.114l.076-.038.076-.038.115-.114.076-.039.038-.038.076-.076.115-.038.038-.114.076-.077.038-.038.076-.038.038-.114.039-.038.038-.038.038-.077v-.076l.038-.076.076-.038v-.077l.038-.114v-.114l.038-.038v-.724l-.038-.077v-.152l-.038-.038v-.076l-.076-.038v-.115l-.038-.076-.038-.076-.038-.114-.039-.038h.077l.076.038.152.152.077.229.038.152-.038.229h.647l.115-.038.038-.077.114-.114.076-.229.038-.266v-.457l.039-.267.038-.229.152-.19.153-.153.19-.114h.343l.19.114.42.152.381.23.19.075h.115l.076-.076.115-.076.114-.305.114-.229.114-.152.191-.076.115-.038h.19l.305.076.343.19.381.229.381.19.19.115.153.076.19.038.23.038-.077.343-.152.19-.229.23-.229.228-.419.381-.42.42-.075.19-.039.152v.19l.039.115.19.229.19.229.267.19.23.19.113.153.038.115.039.152-.039.19-.114.191-.114.19v-.038l-.038-.076-.038-.152-.077-.076-.038-.115-.076-.076-.038-.076-.114-.114-.076-.039-.115-.076-.114-.038h-.115l-.152-.038h-.381l-.153.038h-.152l-.114.038-.038.038-.077.038-.038.039-.038.076-.076.038-.038.038-.038.076v.038l-.038.077v.076l-.038.038v.266l-.039.039v.343l-.076.114v.114l-.038.038v.077l-.038.038v.038l-.076.038-.039.076-.076.076-.076.077-.076.038-.038.076-.115.076-.076.076-.076.039-.114.076-.076.076-.039.076-.076.076-.114.038-.076.115-.077.076-.114.038-.038.114-.076.077-.115.076-.038.076-.076.115-.038.076-.038.076-.076.114-.038.077-.038.076-.038.152v.076l-.039.153v.229l.039.076v.076h-.344v-.038l-.533-1.868-.115-.38-.038-.42.038-.152v-.229l.115-.19.076-.191.19-.229.267-.228.267-.19.305-.191.61-.344.533-.304.229-.19.229-.23.152-.19.153-.229.114-.267.114-.228.076-.305.038-.267h-.038l-.076.381-.19.381-.19.267-.23.267-.19.19-.267.191-.534.305-.571.38-.42.192-.495.343-.152.152-.19.19-.115.229-.076.267-.038.381v.457l.114.381.076.42-.076-.039-.114-.076-.153-.076-.152-.038h-.343l-.115.038-.038.038-.076.038-.038.076-.038.038-.076.077-.039.038v.038z"/><path id="_112392512" class="fil2 str0" d="M23.362 34.667l.038-.114.61-.076.571-.153.572-.114.534-.229.228-.114.229-.19.19-.153.153-.19.19-.23.077-.266.076-.267v-.305l.038-.19.076-.115.153-.19.152-.153.229-.114.266-.038.267-.038.267.038v-.153l.076-.114.115-.076.114-.076.152-.077.038-.076v-.114l-.114-.076-.229-.077h-.571l-.267.039.114-.23.115-.114.114-.152.19-.114.42-.19.381-.191.457-.038.19-.077v-.19l-.075-.267-.19-.495-.344-.686-.076-.153-.115-.114-.114-.115-.114-.076-.381-.076-.343-.038-.343.038-.343.076-.381.19-.267.23-.114.114v.19l.038.114.114.153.19.267.153.305h-.229l-.266-.039-.153.039-.19.038-.039.457-.076.457-.114.153-.076.076-.077.038h-.152l-.229-.076-.19-.114-.267-.153-.19-.076h-.153l-.076.038-.038.076-.077.153-.152.266-.152.306-.039.114v.19l.077.153.19.114-.305.19-.305.153-.266.229-.229.228-.152.267-.039.267v.305l.077.267.038.267v.304l-.038.267-.077.267h.115l.114.038.076-.381.153-.457.229-.382.228-.305.42-.342.495-.267.457-.153.42-.228.19-.077.229-.152.152-.152.19-.191.382-.61.38-.8.039-.343.114-.305.038-.114.077-.153.076-.114.152-.152.229-.077.267-.076-.23.076-.228.077-.19.19-.115.19-.076.42-.076.419-.42.8-.19.343-.228.305-.267.305-.305.229-.572.266-.533.23-.305.19-.229.114-.267.229-.152.228-.114.115-.115.229h.343l.076.038.153.19.152.153.038.228-.038.229h.496l.114-.038.076-.038.115-.039.076-.114.076-.267.038-.228v-.496l.038-.267.038-.228.153-.229.152-.19.19-.039.191-.038.153.038.229.038.419.191.381.267.19.076h.153l.114-.076.038-.152.115-.267.114-.267.152-.114.191-.077.114-.076h.19l.382.115.343.228.343.19.381.23.229.114.152.076.229.038h.19l-.076.305-.152.267-.229.267-.19.19-.458.381-.38.458-.153.19-.038.152v.19l.076.115.152.23.267.228.267.228.229.229.114.114.038.153.038.114-.038.19-.19.306-.191.305-.267.228-.305.267-.38.152-.382.191-.381.19-.42.115-.076.038-.076.076-.076-.076-.114.076h-.153l-.076.038-.076.038-.114.038-.039.038-.076.115-.038.038-.038.038-.038.076v.039l-.077.076v.076l-.038.038v.153l-.038.076v.571l-.038.038v.267l-.038.038v.115l-.038.038v.038l-.038.038-.038.038h-.038l-.077.038h-.266v-.114l-.039-.038v-.115l-.038-.038v-.038l-.038-.076-.038-.038v-.076l-.076-.038-.038-.038-.038-.039-.077-.038-.038-.038-.076-.076h-.076l-.038-.038h-.191v-.038l-.076-.038-.038-.077-.114-.038-.039-.114-.076-.038-.038-.038-.114-.038-.038-.038-.077-.077-.114-.038-.038-.038-.076-.038.038-.229v-.877l-.076-.8v-.419l.038-.343.038-.19.076-.115.114-.152.077-.115.305-.266.266-.229.305-.229.305-.152.686-.381.648-.343.762-.267.115-.19.038-.267v-.419l-.038.228-.039.267-.038.114-.038.077-.114.114-.076.038-.839.305-.762.343-.381.19-.42.229-.342.267-.343.267-.153.114-.114.152-.114.153-.077.19-.114.42-.038.38v.839l.076.838-.038.191-.038.19-.114-.075h-.153l-.114-.039h-.61l-.038-.152-.114-.19-.115-.191-.152-.153-.19-.19-.153-.153-.229-.114-.267-.19-.114-.115v-.419l.114-.075.381-.229.305-.229.267-.266.19-.305.153-.305.076-.305.115-.343z"/><path id="_112386128" class="fil2 str0" d="M20.503 39.926l-.343-.076-.343-.114-.342-.153-.305-.228-.229-.267-.152-.305-.153-.381-.038-.343h.305l.152-.038.115-.038.114-.115.076-.038.038-.076v-.076l-.038-.229-.038-.19-.152-.153-.115-.152-.38-.267-.382-.229-.381-.266-.381-.23-.152-.152-.153-.19-.114-.19-.076-.191-.039-.191-.038-.19.038-.115v-.152l.115-.076.076-.077.076-.038.153-.076.571-.114.61-.19-.267-.42-.152-.534-.076-.228v-.267l.114-.267.152-.267.153-.076.114-.114h.42v-.457l.076-.191.076-.152.152-.115.115-.152.19-.038.19-.038.382-.038.457.038.381.076.381.19.115.077.076.114.114.076.038.076.038.229-.038.229-.228.495-.267.572.19.038h.23l.151-.038.23-.038.342-.19.305-.115v.609l-.114.077-.153.114-.114.076-.076.077-.153.228-.114.229-.038.076-.076.076.076.076.038.038.305.039.343.038-.076.19h.38v.038h.039v.039l.076.038v.038l.038.114v.114l-.038.115v.114l-.076.076v.115l-.038.114-.038.076v.115l-.039.114-.038.114-.038.076-.114.077-.038.114-.076.076-.039.077-.114.038-.076.114-.076.076-.115.076-.114.077-.076.076-.153.038-.114.076h-.114l-.038.114v.038l-.039.077v.114l-.038.076v.191l.038.076v.114l.039.038.038.115.038.038.229.114.152.114.152.077.153.076.076.114.076.115.115.114.076.076.038.115.038.114.076.076v.038h-.571l.076.153h-.267l-.076.038h-.114l-.534-.61-.495-.686-.153-.381-.19-.381-.115-.381-.114-.42-.153-4.001-.038 4.078.038.38.115.42.152.381.19.343.458.724.495.724h-.038l-.038.039-.114.038-.038.038h-.076l-.039.038-.114.038-.038.076-.038.038-.076.038-.076.038-.039.039-.038.038-.076.038-.038.076h-.076l-.038.038z"/><path id="_112384664" class="fil2 str0" d="M31.022 19.804l-.228.267-.306.19-.266.153-.305.114-.267.076-.343.076-.343.038h-.305l-1.296-.038-1.257.038h-.115l-.076.077-.076.076-.038.114v.267l.076.305.19.381.23.343.304.305.343.267.039.114-.039.114-.114.077-.114.038-.343-.038h-.725l-.304.038-.267.076-.229.114-.19.153-.153.152.076.114.115.077.114.114.076.114.038.115.115.19.038.115.038.114v.114l.038.153v.571l-.038.115-.038.114-.076.114-.039.077-.038.152-.076.076-.076.153-.076.038-.038.038-.039.038-.114.114-.038.038-.038.038-.076.039-.038.038H24.2l-.038.038-.076.076h-.038l-.114.038h-.077l-.038.038.114.305.191.305.076.19-.038.077-.076.076-.152.076-.344.039-.304.076-.153.076-.076.076-.038.076v.076l.038.153.114.076.115.153.114.114v.19l-.038.077.114.076.229.152.038.076.038.077v.152l-.038.077-.038.228-.153.229-.038.228-.038.23v.114l.038.152.076.076.153.115v-.077l-.038-.076v-.114l.038-.114.038-.077.038-.114.038-.076.038-.077.077-.114.038-.038.038-.076v-.038l.038-.077.038-.076.076-.076.038-.114.077-.038h.038l.228-.306.229-.228-.038-.076-.038-.077v-.533l.038-.572.038-.533.19-.572.153-.381.229-.381.19-.381.267-.305.381-.152.305-.115.114-.076.153-.076.114-.115.115-.152.152-.457.114-.458.076-.19.115-.229.114-.19.152-.153.191-.19.229-.153.266-.076.23-.076.533-.153.533-.152.153-.115.19-.076.19-.152.115-.153.038.038-.228.23-.19.151-.23.153-.305.114-.457.153-.495.19-.19.076-.23.115-.19.19-.19.191-.191.572-.152.61-.077.266-.19.267-.114.076-.077.153-.114.076-.19.038-.191.038-.153.114-.152.038-.115.115-.266.38-.267.42-.19.496-.077.457-.076 1.41.42-.381.38-.381.381-.381.42-.42.267-.038h.342l.153-.038.076-.076.038-.152-.038-.077-.229-.228-.114-.267-.038-.076-.038-.153v-.152l.038-.153.114.153.19.152.191.115.191.114.457.152.457.038.458-.038.495-.114.153-.076.229-.076.19-.153.114-.114.153-.153.076-.114.038-.152.076-.191.039-.343-.039-.381-.267.038h-.266l-.267-.038-.267-.114-.495-.191-.42-.229-.076-.038v-.19l.076-.077.23-.228.228-.115.762-.114.839-.076.419-.076.343-.077.305-.114.266-.152.19-.115.077-.19.038-1.296-.152-.305-.153-.305-.228-.305-.267-.266-.115-.077v.039l.077.114.076.152.038.038v.038h-.038l-.229-.19z"/><path id="_112383208" class="fil2 str0" d="M23.019 27.96l.152-.572.19-.534h-.228l-.114-.038h-.115l-.038-.038h-.114l-.038-.076-.724-.267.19-.19h-.114l-.076-.077-.114-.038-.077-.038-.076-.038-.114-.038-.077-.114-.076-.039-.114-.076-.076-.038-.038-.038-.115-.114-.076-.038L21 25.52l-.076-.076-.076-.076-.039-.038-.076-.038-.038-.038-.61-.496.686-.343.076-.038.115-.038.076-.076.076-.076.115-.039.076-.076.076-.076.114-.076.115-.038.114-.077.114-.076.153-.038.114-.038.19-.038h.344l-.19-.305h.418l-.152-.229-.152-.19-.23-.114-.228-.153-.267-.038-.305-.038h-.343l-.38.038.037-.152-.038-.191-.305-.038h-.343l-.038-.153-.038-.114.038-.152.038-.077.191-.228.19-.229.267-.19.191-.191.038-.076.038-.153-.038-.076-.038-.114-.19-.153-.153-.152-.229-.076-.228-.077-.534-.114-.457-.152h-.267l-.038.038-.076.114-.077.19-.114.344-.114.304-.267.191-.267.229-.19.038-.153.038-.19.038-.229-.038.038.19-.038.153-.038.19-.076.191-.115.152-.038.153.038.19.038.153.267.381.229.305.114.152.038.191.038.229-.038.152-.152-.114-.152-.077h-.191l-.152.039-.153.152-.114.229-.038.19-.039.229v.152l.039.23.038.19.114.152.114.19.229.153.267.076.267.076.266.039.305.076.229.114.19.19.077.115.038.19-.038.23v.152l-.038.19.038.19.038.039.038.076.114.038.076.038.343.153.267.114.229.19.19.23.343.647.343.534.191.267.114.266.115.305.076.42.305-.153.266-.076.267-.038h.267l.229.038.19.076.153.152.19.115-.076-.381-.152-.42-.229-.38-.267-.382-1.41-1.524-1.448-2.401-.19-.305-.191-.305-.115-.305-.038-.381.038-2.287h.039l.076 2.287.114.343.076.305.19.267.153.266 1.067 1.792.648.724.686.724.305.305.381.38.267.344.19.457.077.153.038.114.038-.038v-.076l.038-.077v-.038l.038-.076.038-.038v-.114l.077-.038v-.267h-.077l-.038-.039-.076-.038H23.4l-.114-.038-.077-.076-.038-.152.076-.115v-.076l-.038-.038-.038-.038-.038-.038-.038-.076-.114-.076-.077-.077-.038-.076-.038-.152.038-.115.038-.152z"/><path id="_112504280" class="fil2 str0" d="M34.414 15.002l-.038-.42-.076-.457-.039-.19-.038-.153.038-.152.038-.114.344-.267.419-.229.19-.114.19-.153.154-.19.114-.153.038-.19.038-.19v-.344l-.076-.344-.19-.305-.115-.152-.077-.114-.152-.115-.114-.038-.267-.038h-.305l-.61.153-.61.038v.114l-.038.076-.076.114-.076.077-.076.076-.038.152v.077l.076.152h-.381l-.19-.038-.115-.076-.305-.115-.38-.152-.23-.076h-.381l-.152.038-.114.038-.115.152-.152.077-.077.152-.19.305-.076.343-.038.42v.342h-.496l-.42-.038-.037-.19-.038-.153-.267-.114-.229-.038-.229.038-.152.114-.305.305-.229.305-.114.267-.038.304v.305l.038.305v.573l-.038.267-.114.228-.305.229-.381.19-.343.115-.381.152-.153.077-.19.076-.115.152-.076.115-.114.152-.038.152v.496l.19.076.229.153.038.266v.305h-.305l-.114.076-.038.115.038.229.038.152.076.152.114.153.23.267.304.304.076.191.076.19v.496h.116v-.153l.19-.724.19-.99.115-.267.077-.267.152-.267.152-.228.153-.191.228-.152.19-.153.268-.114.495-.114.496-.153.266-.114.229-.115.152-.19.153-.153.114-.343.115-.304.076-.305.038-.343.038-.305.114-.381.077-.305.152-.305.153-.19.19-.115.267-.076.228-.115.534-.038.457-.038.343-.076.23-.114.151-.077.115-.076.076-.152.076-.115v.153l-.076.152-.114.076-.115.115-.304.152-.306.077-.457.076-.495.076-.229.038-.229.076-.152.153-.152.19-.115.343-.076.343-.076.381-.076.382-.039.343-.076.38-.152.305-.19.305-.191.23-.267.113-.267.153-.267.114-.648.19-.533.23-.114.114-.19.152-.077.114-.152.23-.153.456-.152.42-.115.876-.152.61h.113l.115-.343.076-.305.114-.152.076-.153.153-.076.152-.114.457-.153.381-.076.458-.114.381-.038.915-.115.8-.19.267-.153.19-.19.23-.343.152-.305.038-.153v-.342l-.038-.115-.115-.19-.076-.115-.19-.076-.191-.114.266-.305.267-.229.305-.229.343-.114.343-.076.42-.076h.762l.19-.305z"/><path id="_112470600" class="fil2 str0" d="M30.298 11.42v-.23l-.038-.228-.038-.152-.076-.19-.153-.153-.19-.115-.267-.038-.343-.038-.115.038-.19.077-.19.114-.115.114-.076.19-.077.153.077.153.038.076.076.114.114.076-.228.23-.229.228-.152.076-.153.038-.152.038-.19-.038v-.114l-.039-.229-.152-.038-.229-.076h-.19l-.191.076-.153.076-.152.077-.114.152-.038.114-.115.762-.076.534-.19.114-.115.19-.076.153-.076.153-.077.38-.038.306h.381l.267.038.115.038.076.038.038.114.038.077v.419l-.038.495.038-.038.114-.038.115-.038h.076l.076-.038.077-.076.076-.038.114-.039.038-.038.076-.038.038-.114h.038v-.038l.077-.038v-.077l.038-.038v-.686l-.038-.038v-.838l.038-.077v-.076l.038-.076v-.076l.038-.114.076-.077.076-.076.038-.076.077-.115.076-.076.076-.076.076-.114.115-.038.114-.077.114-.038.153-.076h.266l.115.076.19.038.153.038.114.115v.114l.038.076v.038h.038l.039.039h.19l.077-.039h.152v-.152l.038-.114v-.153l.038-.114v-.114l.038-.115v-.076l.038-.076.077-.114.038-.077.038-.076.038-.114z"/><path id="_112473472" class="fil4" d="M85.787 74.378v.267l-.076.381-.267.724-.076.115-.153.114-.114.038-.19-.038-.115-.114-.19-.153-.23-.267-.228-.419.038-.076v-.267l.077.038v.038l.038.038.038.115.076.038.038.076.076.038.077.039.076.076.114.038h.076l.077.038h.228l.076-.038.115-.114.076-.077.076-.038.077-.153.038-.076.038-.076.038-.076.038-.114v-.077z"/><path id="_112474272" class="fil0" d="M87.502 65.498l-.114.23-.153.685-.343 1.029-.304 1.258-.305 1.372-.267 1.372-.076.724-.077.648-.076.572-.038.571h-.038l-.076.038-.038.076-.077.077v.038l-.038.076v.076l-.038.076v.077l-.038.114-.038.038-.038.076-.076.076-.039.038-.038.077-.038.038h-.228l-.038-.038h-.039l-.038-.077h-.114l-.038-.038-.038-.038v-.038l-.039-.038-.038-.038v-.114l-.076-.038v-.038h-.038v-.039l-.038-.076-.114-.114.038-.8.076-1.03.076-1.105.114-1.181.077-1.143.076-1.106.076-.99.038-.8.038.114.23.152.266.229.343.19.229.038h.228l.19-.038.23-.114.228-.153.229-.228.228-.343z"/><path id="_112553464" class="fil0" d="M19.208 74.378v.267l.114.381.267.724.076.115.152.114.115.038.152-.038.153-.114.19-.153.229-.267.152-.419v-.343l-.038.038-.038.038v.038l-.076.115-.076.038-.038.076-.039.038-.076.039-.076.076-.114.038h-.076l-.077.038h-.228l-.153-.038-.076-.114-.038-.077-.114-.038-.039-.153-.038-.076-.038-.076-.038-.076-.038-.114-.076-.077z"/><path id="_112559080" class="fil0" d="M17.53 65.498l.115.23.153.685.305 1.029.343 1.258.304 1.372.267 1.372.076.724.077.648.038.572.076.571h.038l.076.038.038.076.039.077v.114l.076.076v.076l.038.077.038.114.038.038.038.076.038.076.076.038.039.077.038.038h.228l.038-.038h.039l.038-.077h.038l.076-.038.038-.038.038-.038.038-.038.038-.038v-.114l.039-.038v-.038h.038v-.039l.076-.076.114-.114-.038-.8-.076-1.03-.114-1.105-.077-1.181-.076-1.143-.114-1.106-.038-.99-.038-.8-.039.114-.228.152-.267.229-.343.19-.229.038h-.228l-.229-.038-.19-.114-.23-.153-.228-.228-.228-.343z"/><path id="_112570304" class="fil4" d="M23.247 55.437V55.4l.039-.076.076-.114.076-.076.038-.153.076-.114.115-.153.114-.114.152-.152.115-.077.19-.114.115-.077.228-.038h.19l.23.038.076.077.076.038.114.038.115.038.076.077.076.076.076.076.077.076.114.114.076.077.038.076.076.114.115.115.038.076.076.152.038.076.076.153.039.114.038.114.038.115.038.114.038.153.038.076v.152l.076.115v.152l.038.114v.496l-.038.076v.114l-.076.038-.038.039h-.114l-.038-.038v-.803l-.039-.152v-.077l-.076-.114v-.152l-.038-.076-.038-.153-.038-.076-.038-.114-.038-.115-.077-.114-.038-.114-.076-.077-.038-.114-.038-.114-.114-.076-.039-.077-.076-.114-.114-.076-.038-.038-.076-.115-.077-.038-.076-.038-.076-.038-.076-.038-.038-.038-.115-.077h-.419l-.114.077-.115.076-.152.076-.076.114-.077.115-.114.152-.076.077-.076.114-.038.114-.077.076v.077l-.038.076-.038.114-.038.038-.038.038-.114-.038-.039-.038v-.076l-.038-.114z"/><path id="_112569816" class="fil4" d="M18.37 65.918v-.076l-.039-.038-.076-.039-.038-.076-.038-.038-.076-.114-.039-.039-.038-.076-.038-.114-.038-.038-.038-.076-.076-.077-.038-.152v-.076l-.038-.114-.039-.115v-.229l-.038-.114v-.457l.038-.114v-.267l.039-.153v-.114l.038-.153.038-.114v-.152l.076-.077.038-.152.038-.076.038-.153.038-.076.039-.114.076-.114.038-.077.038-.076.076-.114.038-.077.077-.076.038-.114.076-.038.038-.077.038-.038.114-.114.039-.038.038-.038.076-.038.038-.038.114-.038.038-.077h.039l.076-.038.152-.038h.991l.152.038h.191l.152.038h.191l.19.077h.153l.229.038.19.038h.19l.153.038.19.038h.153l.19.038.153.076h.153l.152.038h.114l.153.038h.152l.115.039h.686l.076-.038h.152l.115-.039h.038l.076-.038h.076l.115-.076.038-.038.076-.038.076-.038.114-.038.039-.115.076-.038.114-.076.076-.038.038-.114.077-.077.114-.114.038-.114.076-.115.038-.152.077-.076.038-.076h.076l.038.038.038.114v.152l-.038.115-.076.152-.076.114-.115.153-.076.076-.038.076-.114.115-.077.076-.076.076-.114.076-.114.077-.077.038-.114.038-.076.038-.076.076-.115.038h-.076l-.076.038h-.115l-.076.038h-.305l-.076.038h-.419l-.038-.038h-.267l-.076-.038h-.153l-.114-.038h-.152l-.191-.038h-.114l-.19-.076-.153-.038h-.19l-.191-.038-.153-.038h-.19l-.229-.039h-.152l-.191-.038-.19-.076h-.153l-.19-.038h-1.145l-.038.038h-.076l-.038.076h-.038l-.039.038-.038.038-.038.039-.114.038-.038.038-.038.076-.038.076-.039.038-.076.077-.076.114-.038.038-.038.076-.038.077-.038.114-.077.076-.038.076-.038.153-.038.076-.038.114v.115l-.038.076-.076.152-.039.115v.114l-.038.114v.267l-.038.153v.609l.038.076v.153l.038.076v.077l.039.114.076.076v.076l.038.115.038.038.038.076.038.038.038.114.077.038.038.038v.038l.038.039.038.076.038.038.038.038h.038v.038h.076v.038h.077l.076.115.038.038v.038l-.038.038-.114.076-.153-.038-.038-.038h-.038l-.038-.038-.038-.038h-.038z"/><path id="_112568960" class="fil4" d="M20.351 64.088l.076-.076.115-.076.19-.038.19-.038h.42l.152.038.077.038.152.114.076.076.038.077.038.114.039.114.076.076.038.153v.8l-.038.038v.305l-.076.115v.19l-.039.115v.152l-.038.038v.153l-.038.038v.228h-.038v.039l-.114.152-.114.038-.039-.038-.038-.076v-.038l.038-.115.038-.038v-.152l.039-.038v-.191l.038-.038v-.229l.038-.038v-.114l.076-.114v-.305l.038-.039v-.8l-.038-.076v-.115l-.076-.076-.038-.038-.038-.076-.039-.038-.038-.076h-.114l-.076-.038h-.381l-.153.038h-.114l-.114.076-.077.038-.038.076-.076.038-.076.076-.038.115-.038.038v.076l-.039.115v.305l-.038.038-.038.038h-.114l-.038-.038-.038-.038v-.305l.038-.115v-.076l.038-.076.038-.153.076-.076.076-.076.077-.114z"/><path id="_112610304" class="fil4" d="M81.786 55.437l-.077-.038v-.076l-.038-.114-.076-.076-.038-.153-.115-.114-.114-.153-.076-.114-.152-.152-.115-.077-.19-.114-.191-.077-.152-.038h-.19l-.23.038-.076.077-.076.038-.153.038-.076.038-.114.077-.076.076-.038.076-.077.076-.114.114-.076.077-.076.076-.076.114-.077.115-.038.076-.076.152-.076.076-.038.153-.039.114-.038.114-.038.115-.038.114-.076.153-.038.076-.038.152v.115l-.038.152v.61l.038.076v.114l.038.038.038.039h.152l.038-.038v-.953l.038-.077.039-.114v-.152l.076-.076.038-.153.038-.076.038-.114.038-.115.038-.114.077-.114.076-.077.038-.114.038-.114.114-.076.038-.077.077-.114.076-.076.076-.038.076-.115.038-.038.077-.038.114-.038.076-.038.038-.038.077-.077h.457l.076.077.153.076.114.076.114.114.077.115.076.152.114.077.038.114.076.114.038.076v.077l.077.076.038.114.038.038.038.038.076-.038.077-.038v-.19z"/><path id="_112619384" class="fil4" d="M86.588 65.918l.038-.076.076-.038.038-.039.038-.076.076-.038.038-.114.077-.039.038-.076.038-.114.038-.038.038-.076.038-.077v-.152l.076-.076.038-.114v-.115l.038-.153v-.19l.038-.152v-.115l-.038-.19v-.381l-.038-.153v-.114l-.038-.153-.076-.114v-.152l-.038-.077-.038-.152-.038-.076-.038-.153-.038-.076-.077-.114-.038-.114-.038-.077-.076-.076-.038-.114-.076-.077-.038-.076-.077-.114-.038-.038-.038-.077-.076-.038-.076-.114-.039-.038-.076-.038-.076-.038-.038-.038-.076-.038-.038-.077h-.077l-.114-.038-.076-.038h-.991l-.153.038h-.19l-.19.038h-.153l-.19.077h-.23l-.152.038-.19.038h-.19l-.153.038-.19.038h-.191l-.153.038-.19.076h-.153l-.114.038h-.114l-.153.038h-.191l-.076.039h-.724l-.076-.038h-.114l-.115-.039H80.3l-.076-.038h-.114l-.076-.076-.039-.038-.076-.038-.114-.038-.077-.038-.038-.115-.076-.038-.114-.076-.076-.038-.038-.114-.115-.077-.076-.114-.038-.114-.076-.115-.076-.152-.039-.076-.076-.076h-.038l-.038.038-.076.114v.152l.076.115.076.152.076.114.115.153.038.076.076.076.076.115.115.076.076.076.076.076.114.077.115.038.114.038.076.038.076.076.077.038h.114l.076.038h.076l.115.038h.305l.038.038h.456l.038-.038h.267l.076-.038h.153l.114-.038h.152l.153-.038h.152l.153-.076.19-.038h.19l.153-.038.19-.038h.191l.153-.039h.229l.19-.038.152-.076h.19l.191-.038h1.144l.038.038h.038l.076.076h.038l.039.038.038.038.038.039.076.038.076.038.038.076.038.076.038.038.039.077.038.114.114.038.038.076.038.077.038.114.039.076.076.076.038.153.038.076.038.114v.115l.038.076.038.152v.115l.077.114v.114l.038.153v.114l.038.153v.609l-.038.076v.153l-.038.076v.077l-.077.114-.038.076v.076l-.038.115-.038.038-.038.076-.038.038-.076.114-.038.038-.039.038-.038.038v.039l-.038.076-.038.038-.076.038h-.038v.038h-.038l-.039.038h-.038l-.114.115-.038.038v.038l.038.038.152.076.115-.038.076-.038h.038l.038-.038.038-.038z"/><path id="_112634536" class="fil4" d="M84.682 64.088l-.115-.076-.114-.076-.152-.038-.19-.038h-.42l-.153.038-.114.038-.114.114-.076.076-.038.077-.038.114-.077.114-.038.076-.038.153v.838l.038.077v.343l.038.076v.114l.076.115v.152l.039.038v.191l.038.038v.19h.038v.039l.076.152.114.038.076-.038v-.114l-.038-.115v-.152l-.038-.038v-.191l-.038-.038v-.152l-.076-.115v-.152l-.038-.114v-.305l-.038-.039v-.8l.038-.076v-.115l.038-.076.076-.038.038-.076.038-.038.038-.076h.077l.114-.038h.343l.19.038h.115l.076.076.114.038.039.076.076.038.038.076.076.115v.038l.038.076v.115l.038.038v.267l.039.038.038.038h.114l.038-.038.038-.038v-.305l-.038-.115v-.076l-.038-.076-.076-.153-.038-.076-.076-.076-.077-.114z"/><path id="_112671856" class="fil0" d="M26.83 58.334v.152l-.114.496-.153.762-.114.953-.229 1.181-.152 1.334-.19 1.372-.191 1.448-.267.153-.381.152-.343.19-.42.115-.343.19-.304.115-.382.152-.266.076-.267.153-.267.076-.152.038.038-.076.038-.19.038-.153.038-.19.038-.191.076-.229.039-.152.038-.229v-.228l.038-.23v-.838l-.038-.152-.038-.229-.039-.19-.114-.153-.076-.19-.114-.191-.153-.114-.19-.153-.153-.076-.229-.076-.228-.076h-.496l-.266.076-.267.038-.153.076-.228.038-.19.115-.115.114-.152.076-.077.153-.076.114-.114.19v.153l-.038.114v.305l.038.153.038.114.076.152.038.115.038.152.076.076.039.115.076.114.076.115.038.114.076.076.076.038v.038l-.076.038-.038.076-.076.039-.038.038-.114.038-.039.038-.076.038-.076.038h-.076l-.076.076h-.382l-.114-.076-.076-.038-.038-.038-.153-.076-.076-.076-.076-.153-.114-.114-.077-.153-.076-.19-.648-.991-.038-.381-.038-.381v-.343l.038-.381.038-.343.115-.344.076-.38.19-.344.077-.266.19-.305.076-.153.19-.152.153-.153.267-.114.305-.152.381-.038.42-.077h.533l.648.038.686.039.838.152.953.152.114.038h.115l-.496-3.01.229.114.457.076.267-.038.267-.152.114-.076.076-.115.076-.152.077-.229v3.544l.343-.152.266-.19.267-.267.229-.305.457-.724z"/><path id="_112662928" class="fil0" d="M20.008 65.842l-.152-.267-.19-.305-.191-.381-.039-.382v-.152l.039-.19.114-.153.114-.152.19-.114.267-.153.305-.076.343-.038h.42l.304.038.267.114.229.229.152.228.115.267.076.305v.343l.038.381-.038.343-.038.343-.076.343-.153.648-.19.496-.077.038H21.8l-.076-.038-.114.038-.077.038-.076.038-.114.076-.038.114v.038l-.038.077v.266l-.038.115v.686l.038.152v.648l.038.19v.839l.038.229v.99l.038.153h-.343l-.115-.076v-.077l-.076-.342v-.381l-.039-.382-.038-.343v-.419l-.038-.343v-.38l-.038-.382-.038-.381v-.343l-.076-.381v-.305l-.038-.305v-.61l-.039-.267V66.3l-.038-.991z"/><path id="_112688048" class="fil0" d="M37.234 70.72l.076.038.23.114.151.038h.23l.304.038.42-.038.8-.266.762-.306.152-.037h.267l.152.076.077.114.076.19.038.23.076.304-.076.229-.038.647-.153.268-.152.38v4.078l.038.077v1.943l-.038.153v.038l-.343.038h-.457l-.534-.038-.457-.153-.229-.114-.229-.114-.19-.115-.114-.19-.153-.153-.076-.228-.038-.23.038-.228.038-.305.076-.762.114-.914-.038-.8-.152-1.03-.305-1.333-.228-1.144z"/><path id="_112695480" class="fil0" d="M78.165 58.334v.152l.114.496.153.762.152.953.229 1.181.152 1.334.19 1.372.115 1.448.343.153.381.152.343.19.42.115.343.19.304.115.305.152.305.076.267.153.267.076.19.038-.038-.076-.038-.19-.038-.153-.076-.19-.038-.191-.039-.229-.038-.152-.038-.229-.038-.228v-1.068l.038-.152.038-.229.038-.19.077-.153.114-.19.114-.191.153-.114.152-.153.19-.076.23-.076.228-.076h.457l.267.076.229.038.229.076.228.038.115.115.19.114.153.076.076.153.076.114.038.19.076.153.038.114v.305l-.038.153-.076.114-.038.152-.038.115-.038.152-.076.076-.077.115-.038.114-.076.115-.038.114-.114.076-.039.038v.038l.038.038.077.076.076.039.038.038.076.038.077.038.076.038.076.038h.038l.114.076h.381l.077-.076.076-.038.076-.038.077-.076.152-.076.076-.153.076-.114.115-.153.076-.19.61-.991.076-.381.038-.381v-.343l-.038-.381-.076-.343-.076-.344-.077-.38-.19-.344-.077-.266-.19-.305-.076-.153-.19-.152-.191-.153-.267-.114-.305-.152-.343-.038-.457-.077h-.534l-.61.038-.762.039-.8.152-.915.152-.114.038h-.115l.496-3.01-.229.114-.495.076-.267-.038-.267-.152-.076-.076-.076-.115-.115-.152-.038-.229v3.544l-.343-.152-.267-.19-.266-.267-.229-.305-.495-.724z"/><path id="_112717688" class="fil0" d="M84.987 65.842l.19-.267.19-.305.153-.381.077-.382v-.152l-.077-.19-.076-.153-.114-.152-.229-.114-.228-.153-.306-.076-.419-.038h-.343l-.343.038-.266.114-.19.229-.191.228-.077.267-.076.305-.038.343v.381l.038.343.038.343.038.343.19.648.153.496.115.038h.038l.076-.038.114.038.076.038.077.038.114.076v.114l.038.038.038.077v.266l.038.115v.572l-.038.114v.8l-.038.19v.839l-.038.229v.99l-.076.153h.38l.115-.076v-.077l.038-.342v-.381l.038-.382.077-.343v-.419l.038-.343v-.38l.038-.382.038-.381v-.343l.038-.381v-.305l.038-.305v-.61l.076-.267V66.3l.038-.991z"/><path id="_112716112" class="fil0" d="M67.799 70.72l-.076.038-.23.114-.19.038h-.266l-.267.038-.381-.038-.8-.266-.763-.306-.152-.037h-.267l-.152.076-.077.114-.114.19-.038.23-.038.304.038.229.038.647.19.268.153.38v3.964l-.076.114v2.02l.076.153v.038l.343.038h.457l.496-.038.495-.153.229-.114.229-.114.19-.115.114-.19.153-.153.076-.228.038-.23-.038-.228-.038-.305-.114-.762-.077-.914.039-.8.152-1.03.267-1.333.267-1.144z"/><path id="_112717040" class="fil0" d="M64.064 72.663h-.038v.077l-.114.19-.191.152-.229.115-.304.152-.306.115-.38.114h-.496l-.19-.038-.115-.076-.152-.076v-.039l-.038-.038v-.267l-.039-.457.039.076.038.19v.077l.038.076.038.038v.038l.076.039.038.038.076.038h.038l.039.076h.267l.114.038.076-.038h.267l.152-.076h.077l.076-.038.114-.038.076-.039h.077l.114-.038.038-.038.076-.076.038-.038.076-.038h.077v-.038l.038-.038.076-.115.038-.038.038-.076v-.343l-.038-.153v-.419l-.038-.114v-.648l.038-.152.038-.115.077-.152.038-.115.076-.114.076-.076.114-.076.077-.038h.152l.076-.038h.229l.076.038h.077l.152.038.076.038.114.038.077.038.114.038.114.077.076.037.077.039.114.038h.114l.077.038.114.038.076.076h.076l.115.038h.076l.19.038h.496l-.534-.419-.495-.305-.496-.19-.457-.19-.42-.153-.418-.076-.381-.039h-.382l-.343.038-.304.039-.305.152-.267.076-.534.267-.419.305-.038-.381v-.42l-.038-.304-.038-.267h.305l.42.076.38.115.496.114.228-.038.267-.038.267-.038h.419l-.229-.038-.343-.115-.343-.076-.343-.076-.38-.115-.344-.038-.343-.076-.38-.038-.153-.038h-.038l-.19-.153-.42-.228.19.038h.343l.305.076.381.076.343.038.343.077.381.076.343.076.381.076.382.153.38.076.382.076.343.153.343.076.343.076.343.152.343.077.305.152.305.076.266.077.267.114.229.076.228.076.229.077.152.076.153.038.114.038.115.038h.038l.343.152.343.115.305.152.343.115.305.152.304.114.267.153.267.114.305.153.267.114.266.152.23.077.266.152.228.114.267.153.19.114.23.115.228.152.229.114.228.153.191.114.229.152.19.115.229.152.229.115.19.152.19.114.23.19.152.153.228.115.23.19.228.115.19.152.153.152.19.153.229.076.152.153.153.114.152.076.191.153.19.076.115.114.152.076.153.077.152.114.115.038.152.076.114.038.153.115.114.038.152.038.115.038.114.038.114.038h.153l.076.076h.114l.115.039h.533l.115-.038h.152l.038-.077h.076l.038-.038h.115l.038-.038.076-.038.038-.038h.115l.076-.038.038-.076.076-.038.076-.039.077-.038.038-.038.038-.038.114-.076.038-.038.038-.039.038-.038.077-.038.076-.038.038-.076.038-.038h.038v-.038l.229.19v.038l-.038.038h-.038v.039l-.076.038h-.038l-.039.076-.038.038-.076.038-.076.038-.038.038-.077.039-.038.076-.114.038-.038.038-.076.038-.038.038-.115.038-.076.076-.038.039-.076.038-.115.038-.076.038-.038.038h-.076l-.115.038h-.076l-.076.076h-.343l-.076.038h-.115l-.152-.038h-.229l-.114-.076h-.152l-.115-.038-.076-.038-.153-.038-.114-.038-.152-.038-.115-.038-.152-.115-.19-.038-.115-.076-.152-.038-.153-.114-.152-.077-.115-.076-.19-.114-.19-.115-.115-.114-.19-.114-.153-.077-.19-.152-.191-.114-.19-.153-.191-.114-.19-.153-.23-.152-.19-.153-.19-.19-.23-.114-.228-.153-.152-.114-.23-.153-.228-.152-.19-.152-.19-.115-.23-.152-.19-.115-.229-.114-.19-.114-.229-.153-.229-.114-.266-.152-.229-.115-.229-.114-.266-.153-.23-.076-.228-.152-.266-.115-.267-.152-.343-.114-.267-.153-.305-.114-.305-.114-.305-.115-.305-.152-.305-.114-.38-.153-.039-.038-.076-.038-.153-.038-.114-.039-.19-.037-.229-.115-.19-.076-.23-.076-.266-.115-.305-.076-.267-.076-.305-.114-.266-.077h.038l.343.229.343.229.381.267.305.19 1.22.495 1.257.534 1.258.533 1.22.61 1.219.648 1.143.648 1.067.686.953.686.838.648.763.457.724.381.648.267.571.114.572.077.495-.038.42-.077.38-.152.306-.114.266-.23.191-.151.19-.23.077-.228.038-.152v-.115l-.038-.228-.038-.267v-.648l.076-1.067.076-1.753.114-1.791.038-1.258v-.42l-.038-.266-.038-.152-.076-.038-.038-.039h-.267l-.343-.114-.495-.152-.572-.23-1.372-.57-1.6-.725-1.563-.686-1.448-.724-1.144-.534-.762-.342-.38-.23-.687-.304-.838-.42-1.03-.419-.228.115-.19.19-.23.153-.152.076.038.038.229.077.19.076.191.114.076.038.038.038h.153l.114.076.229.115.267.114.305.153.343.114.38.19.42.19.457.191.42.23.495.228.495.228.534.23.533.266.534.19.533.267.534.267.534.229.495.228.534.267.457.229.457.229.458.152.38.19.42.191.305.152.305.153.228.114.19.077.153.076.076.038h.039l.152.038.115-.076.076-.076v-.038l-.115-.077-.076-.038h-.038l-.114-.038-.115-.038-.228-.115-.229-.114-.305-.152-.343-.153-.343-.19-.42-.191-.456-.152-.42-.229-.495-.229-.534-.266-.495-.23-.534-.266-.533-.228-.534-.267-.533-.19-.496-.268-.533-.228-.496-.229-.495-.229-.495-.228-.42-.19-.419-.191-.381-.191-.343-.114-.305-.153-.267-.114-.19-.114-.19-.077-.077-.038h-.076l-.115-.038-.152-.114-.152-.076-.153-.038-.114.114-.229.152-.267.115-.267.114-.266.114-.267.115-.267.076-.267.076-.266.038-.305.077-.305.038-.267.038-.305.038H65.36l-.42-.038h-.495l-.495-.038-.496-.038-.495-.077-.458-.038-.495-.038h-.495l-.496-.038H59.11l-.496.038-.419.038-.457.038-.458.115-.419.076-.419.152-.381.114-.42.191-.342.152-.343.23-.305.266-.305.267-.343.305-.267.305-.267.419-.076.152h.534l.304.076.382.038.343.039.304.038.343.038.305.114.343.076.305.077.305.114.305.076.267.076.305.115.266.114.23.076.266.115.267.114.228.114.23.077.151.114.23.114.19.076.152.077.19.114.115.076.152.076.077.039.152.076.076.076.038.038h.038l.115.038.038.038v.153l-.038.076h-.153l-.076-.038-.038-.038-.114-.038-.077-.038-.076-.077-.152-.076-.076-.038-.191-.076-.114-.115-.19-.076-.191-.076-.19-.114-.192-.115-.228-.076-.229-.114-.19-.115-.267-.114-.267-.076-.267-.076-.266-.153-.267-.076-.305-.076-.343-.115-.267-.076-.305-.076-.343-.076-.305-.076-.305-.039-.38-.038-.306-.038h-.343l-.342-.076h-.306l-.762 1.6-.762-1.6h-.152l-.305.076h-.305l-.305.038-.305.038-.305.039-.305.076-.343.114-.304.038-.305.076-.305.115-.305.076-.305.076-.267.153-.305.076-.266.076-.267.153-.267.076-.267.114-.228.114-.267.077-.229.114-.19.076-.19.115-.191.114-.115.038-.152.076-.115.115-.152.038-.038.038-.076.038-.077.038h-.076l-.038-.038h-.038l-.038-.076v-.038l.038-.077.076-.076.038-.038.115-.038.114-.038.076-.115.19-.076.153-.038.153-.076.228-.153.229-.076.229-.114.19-.076.229-.115.267-.114.266-.076.305-.153.267-.076.305-.114.267-.115.343-.076.305-.076.305-.114.304-.077.343-.076.305-.114.343-.038.305-.038.305-.077h.343l.305-.076h.267l-.077-.152-.266-.42-.267-.304-.305-.305-.305-.267-.381-.267-.343-.229-.343-.152-.343-.19-.42-.115-.456-.152-.382-.076-.457-.115-.42-.038-.457-.038-.495-.038h-1.944l-.495.038h-.457l-.496.038-.495.038-.496.077-.495.038-.42.038h-.495l-.457.038h-1.487l-.304-.038-.343-.038-.267-.038-.305-.077-.267-.038-.305-.076-.266-.076-.267-.115-.267-.114-.229-.114-.228-.115-.077-.038-.038.038-.495.19-.42.191-.228.115-.267.114-.305.153-.343.114-.38.19-.42.19-.457.191-.458.23-.457.228-.533.228-.496.23-.533.266-.534.19-.534.267-.533.267-.533.229-.534.228-.496.267-.495.229-.42.229-.457.152-.38.19-.42.191-.305.152-.305.153-.228.114-.229.077-.114.076-.115.038h-.038l-.114.038-.153-.076-.038-.076v-.038l.038-.077.153-.038h.038l.076-.038.153-.038.228-.115.19-.114.344-.152.343-.153.343-.19.42-.191.418-.152.458-.229.495-.229.534-.266.457-.23.534-.266.533-.228.534-.267.533-.19.534-.268.533-.228.496-.229.495-.229.495-.228.42-.19.419-.191.381-.191.305-.114.305-.153.267-.114.228-.114.267-.115.305-.152.19-.076h.039l-.115-.077-.228-.19-.153-.115-.99.42-.84.419-.647.305-.42.229-.723.342-1.144.534-1.486.724-1.524.686-1.601.724-1.372.572-.572.229-.495.152-.343.114h-.267l-.114.038v.039l-.038.152-.039.267v.42l.039 1.257.076 1.79.114 1.754.038 1.067.038.381v.267l-.038.267-.038.228v.115l.038.152.076.229.191.228.19.153.23.228.342.115.381.152.42.077.457.038.534-.077.647-.114.648-.267.724-.38.724-.458.877-.648.953-.686 1.067-.686 1.105-.648 1.258-.648 1.181-.61 1.296-.533 1.22-.534 1.257-.495.305-.19.343-.267.381-.229.343-.229h.038l-.267.077-.304.114-.305.076-.267.076-.267.115-.228.076-.23.076-.19.115-.19.037-.153.039-.114.038-.076.038-.077.038-.343.153-.304.114-.305.152-.343.115-.267.114-.343.114-.267.153-.305.114-.266.152-.267.115-.267.152-.19.076-.267.153-.23.114-.266.115-.228.152-.23.114-.228.153-.229.114-.19.114-.19.115-.23.152-.228.115-.19.152-.19.152-.23.153-.19.114-.19.153-.23.114-.19.19-.229.153-.19.152-.19.153-.23.114-.19.153-.152.114-.191.152-.19.077-.153.114-.152.114-.153.115-.19.114-.153.076-.152.076-.153.115-.114.038-.152.076-.153.038-.152.115-.115.038-.152.038-.115.038-.152.038-.114.038-.115.038h-.114l-.114.076h-.229l-.152.038H24.2l-.114-.038h-.305l-.076-.076h-.076l-.115-.038h-.076l-.038-.038-.114-.038-.077-.038-.076-.038-.038-.038-.114-.077-.077-.038-.038-.038-.114-.038-.076-.038-.038-.038-.077-.076-.076-.038-.038-.039-.076-.038-.038-.038-.038-.038-.038-.076h-.077l-.038-.038v-.039h-.038l-.038-.038v-.038l.229-.19v.038h.038l.038.038v.076h.038l.038.038.038.038.115.038.038.039.038.038.038.076.114.038.038.038.077.038.038.038.114.039.038.076.076.038h.038l.115.038.076.038.038.038h.076l.077.038h.076l.038.076h.152l.115.039h.533l.076-.038h.153l.076-.077h.153l.076-.038.114-.038.153-.038.114-.038.152-.038.115-.114.152-.039.114-.076.153-.038.114-.114.153-.077.152-.076.152-.114.191-.076.153-.153.152-.076.152-.114.191-.153.19-.076.23-.153.152-.152.19-.152.229-.115.19-.19.191-.115.229-.152.228-.19.153-.115.229-.152.228-.115.19-.152.23-.115.19-.152.229-.114.228-.153.229-.114.228-.152.19-.115.23-.114.266-.153.23-.114.266-.152.229-.077.266-.152.267-.114.267-.153.305-.114.267-.153.305-.114.304-.152.305-.115.305-.152.381-.115.343-.152h.038l.115-.038.114-.038.153-.038.152-.076.19-.077.229-.076.267-.076.267-.114.266-.077.305-.076.305-.152.305-.077.343-.152.381-.076.343-.076.343-.153.381-.076.381-.076.343-.153.381-.076.382-.076.343-.076.38-.077.344-.038.343-.076.304-.076h.382l-.382.19-.152.153v.038h-.114l-.343.038-.343.076-.343.038-.381.115-.343.076-.343.076-.42.115-.114.038h.381l.267.038.267.038.229.038.457-.114.38-.115.344-.038.267-.038-.038.572-.038.724-.458-.267-.457-.267-.267-.076-.343-.114-.305-.038-.343-.039h-.343l-.419.038-.381.077-.42.152-.419.19-.495.268-.495.228-.496.42h.495l.191-.039h.076l.076-.038h.115l.076-.076.076-.038.114-.038h.077l.114-.038.115-.039.076-.037.076-.077.152-.038.077-.038.114-.038.076-.038.076-.038h.153l.076-.038h.229l.076.038h.152l.077.038.076.076.114.076.076.114.039.115.038.152.038.115.076.152v.61l-.076.038v.419l-.038.114v.497l.038.076.076.038.076.115.038.038v.038h.038l.038.038.115.038.038.076.076.038.114.038h.077l.076.039.114.038.077.038h.076l.152.076h.267l.076.038.076-.038h.229l.114-.076h.039l.076-.038.038-.038.038-.039v-.038l.038-.038v.153l-.038.152v.114l-.305.114-.305.038-.343-.038-.305-.076-.38-.115-.268-.152-.228-.115-.115-.152-.152-.19v-.077h-.038v4.192l.038.839v.534l-.038.533-.038.534-.077.533v.534l.077.19.152.229.153.19.228.191.229.114.228.153.267.076.267.038.229.038h.457l.229-.076.152-.076.153-.153.152-.266.076-.344.076-.495.077-.495.038-1.106v-1.067l.572-.228.876-.267 1.067-.343 1.144-.305 1.257-.343 1.143-.267.572-.114.496-.076.495-.076h1.334l.724.076 1.029.19 1.143.305 1.296.343 1.22.343 1.105.343.876.305.572.152v1.03l.038 1.105.038.533.115.457.076.344.114.266.153.153.19.076.19.076h.458l.267-.038.267-.038.266-.076.229-.153.229-.114.19-.19.19-.191.153-.229.076-.19v-.534l-.076-.533-.114-.534v-1.067l.038-.839v-.533z"/><path id="_112856200" class="fil2" d="M49.62 71.1l-.038-1.219.038-.572.038-.38.115-.23.152-.19.19-.114.23-.038.228.038.152.076.153.115.114.228.114.305.038.457.077 3.164v.533l-.038.381-.077.267-.19.19-.19.077-.153.076-.229-.038-.152-.038-.115-.115-.152-.152-.076-.305-.038-.305v-.419l.038-.076.076-.038h.076l.038.114.038.152.077.038.114.077h.076l.076-.038.115-.039.038-.038.038-.114.038-.152v-.763l-.038-.038v.038h-.038l-.038.038-.077.115-.076.038-.038.038-.076.038h-.229l-.114-.038-.114-.153-.038-.152-.115-.38z"/><path id="_112897528" class="fil0" d="M82.129 57.305l.038-.42.076-.38v-.42l-.038-.38-.038-.382-.153-.381-.152-.381-.229-.382-.305-.304-.267-.267-.266-.114-.267-.038h-.229l-.228.038-.19.076-.192.152-.343.343-.266.343-.153.267-.038.153-.19.152-.305.61-.19.38-.077.534-.038.267-.038.305.038.305v.381l.38.457.153.153.076.114.115.153.076.114.076.152.115.077.076.152.076.114.114.077.077.152.038.076.076.114.114.115.038.076.077.115.114.038.076.076.038.038.038.038v-3.582l.763.838.038.076.076.038.076.038h.419l.115-.038h.076l.076-.038h.038l.077-.076z"/><path id="_112816312" class="fil0" d="M22.904 57.305l-.076-.42-.076-.38v-.42l.076-.38.038-.382.115-.381.19-.381.229-.382.267-.304.305-.267.266-.114.23-.038h.266l.19.038.229.076.19.152.344.343.228.343.19.267.039.153.19.152.305.61.153.38.114.534.038.267v.61l-.038.381-.381.457-.114.153-.077.114-.114.153-.076.114-.076.152-.115.077-.076.152-.076.114-.114.077-.077.152-.038.076-.114.114-.076.115-.038.076-.077.115-.114.038-.076.076-.038.038-.038.038v-3.582l-.763.838-.038.076-.114.038-.076.038h-.381l-.115-.038h-.076l-.076-.038h-.076l-.039-.076z"/><path id="_112816360" class="fil4" d="M71.267 42.556V18.089h-18.37l18.37 24.467M51.983 18.089h-18.37v24.467l18.37-24.467z"/><path id="_112900840" fill="#00913f" d="M33.766 59.477l.038.229.038.19.115.19.076.191.076.153.114.19.115.19.152.153.115.153.152.19.152.115.153.152.152.114.19.077.191.152.191.076.19.077.23.114.228.076.229.076.19.076.267.039.229.038.266.038.229.038h.267l.267.038h.685l.419-.038h.457l.42-.038.495-.038.495-.038h.495l.458-.039.495-.076.496-.038h.533l.496-.038h.992l.533.038h.496l.533.038.495.115.496.076.495.152.458.115.495.19.458.153.419.228.457.267.42.305.38.381.343.343.381.457.305.42.267-.42.343-.457.343-.343.42-.381.38-.305.458-.267.457-.228.42-.153.495-.19.495-.115.496-.152.457-.076.495-.115.534-.038h.496l.495-.038h1.067l.457.038h.496l.533.038.496.076.495.039h.457l.496.038.457.038.496.038h.419l.42.038h.685l.267-.038h.267l.228-.038.267-.038.229-.038.267-.039.228-.076.229-.076.19-.076.23-.114.19-.077.228-.076.153-.152.19-.077.19-.114.115-.152.19-.115.115-.19.153-.153.114-.152.152-.19.077-.191.076-.153.114-.19.076-.19.038-.191.038-.229.077-.229.038-.228.038-.267v-3.125h-17.15l.038.572.038.533.038.496.115.533h-.42l-.076-.533-.038-.534-.076-.495-.076-.572h-.839v3.963h-.495v-3.963h-.839l-.076.572-.038.495-.076.534-.076.533h-.381l.076-.533.038-.496.038-.533.076-.572H33.614v3.125l.076.267.038.228z"/><path id="_112915464" class="fil6" d="M52.593 54.79h.8l-.114-1.373-.077-1.41-.038-1.448-.038-1.486-.533-.42z"/><path id="_112909352" class="fil6" d="M51.297 54.79h.8v-6.174l-.533.457-.038 1.448-.039 1.448-.114 1.448z"/><path id="_112923128" class="fil6" d="M52.517 18.394l18.788 25.153v11.128H53.85l-.076-1.296-.114-1.334-.038-1.295-.038-1.449 4.344 3.66.19.113.191.038.229.077h.229l.228-.077.153-.076.19-.076.19-.19.115-.19.038-.191.077-.23v-.228l-.077-.19-.076-.229-.076-.152-.19-.191-5.26-4.078 8.422-6.479 2.516 3.354 2.439-1.867-.839-1.105-.838-1.068-.876-1.105-.877-1.067-.61-.457-.648-.381-.686-.381-.648-.343-.8-.344-.8-.304-.839-.267-.8-.267 3.354 4.42-7.927 5.565.038-1.296.114-1.296.076-1.257.115-1.181.114-1.144.152-1.067.153-1.029.19-.99h-.419l-.19 1.028-.153 1.067-.152 1.106-.114 1.219-.153 1.22-.076 1.295-.077 1.334-.076 1.372-.571.381V31.58h-.458v14.025l-.61-.458-.038-1.333-.076-1.334-.076-1.22-.152-1.22-.115-1.143-.152-1.105-.19-1.067-.153-.99h-.42l.191.952.114 1.029.153 1.067.114 1.105.153 1.144.076 1.18.038 1.297.114 1.295-8.46-6.555h-.076l-.077.115.038-.076.42-.458.38-.457.534-.42.61-.495.724-.495.8-.42.801-.38.381-.115.42-.152.38-.077.42-.038-.42-.19-.419-.153-.495-.152-.496-.076h-.533l-.572.038-.533.038-.572.152-.572.153-.571.228-.572.267-.572.305-.533.42-.534.419-.495.457-.496.534-.38.571-.42.61-.305.571-.267.687-.228.61-.23.685-.114.648-.076.61-.076.648v.61l.076.571.076.534.115.533.19.496.23.419.266.381v-.762l.076-.8.19-.763.23-.8.266-.8.343-.763.42-.724.495-.686.419-.419.42-.457 9.108 7.584-5.907 4.116v.038l-.191.152-.114.153-.077.229-.076.228v.19l.076.191.038.229.115.229.19.152.191.114.152.076.229.115h.229l.228-.038.23-.115.151-.076 4.84-3.697-.038 1.449-.038 1.295-.114 1.334-.076 1.296H33.69V43.547z"/><path id="_112862704" class="fil3" d="M56.328 16.488h.8-.19z"/><path id="_112865312" class="fil2" d="M52.44 23.043l-.38.8.38.763.343-.762z"/><path id="_112867928" class="fil2" d="M51.411 29.484l.686.457.115.839-.725-.458z"/><path id="_112870712" class="fil2" d="M51.411 28.15l.686.534.115.838-.725-.495z"/><path id="_112873496" class="fil2" d="M51.411 26.854l.686.496.115.838-.725-.495z"/><path id="_112876280" class="fil2" d="M51.411 25.52l.686.496.115.877-.725-.496z"/><path id="_112882528" class="fil2" d="M51.411 24.225l.686.495.115.839-.725-.496z"/><path id="_112885296" class="fil2" d="M53.431 29.484l-.686.457-.114.839.724-.458z"/><path id="_112888224" class="fil2" d="M53.431 28.15l-.686.534-.114.838.724-.495z"/><path id="_112891008" class="fil2" d="M53.431 26.854l-.686.496-.114.838.724-.495z"/><path id="_112893792" class="fil2" d="M53.431 25.52l-.686.496-.114.877.724-.496z"/><path id="_112933440" class="fil2" d="M57.547 27.77l-.61.57.115.915.61-.647z"/><path id="_112936224" class="fil2" d="M54.46 33.448l.495.724-.228.838-.496-.724z"/><path id="_112939016" class="fil2" d="M54.917 32.228l.496.686-.229.838-.495-.686z"/><path id="_112941800" class="fil2" d="M55.299 30.97l.533.724-.229.839-.457-.724z"/><path id="_112944624" class="fil2" d="M55.756 29.789l.534.686-.23.8-.495-.686z"/><path id="_112947408" class="fil2" d="M56.175 28.531l.534.724-.19.8-.496-.686z"/><path id="_112950192" class="fil2" d="M56.366 34.172l-.839.228-.343.724.8-.19z"/><path id="_112952976" class="fil2" d="M56.823 32.914l-.839.228-.38.763.8-.229z"/><path id="_112955760" class="fil2" d="M57.204 31.694l-.8.19-.343.801.8-.228z"/><path id="_112958544" class="fil2" d="M57.661 30.437l-.8.229-.343.8.8-.229z"/><path id="_112961328" class="fil2" d="M47.6 27.77l.61.57-.076.915-.648-.647z"/><path id="_112964112" class="fil2" d="M50.687 33.448l-.495.724.228.838.496-.724z"/><path id="_112966896" class="fil2" d="M50.306 32.228l-.533.686.228.838.457-.686z"/><path id="_112969680" class="fil2" d="M49.849 30.97l-.534.724.229.839.495-.724z"/><path id="_112972464" class="fil2" d="M49.391 29.789l-.495.686.19.8.496-.686z"/><path id="_112975248" class="fil2" d="M48.972 28.531l-.533.724.228.8.534-.686z"/><path id="_112978032" class="fil2" d="M48.782 34.172l.838.228.381.724-.8-.19z"/><path id="_112980816" class="fil2" d="M48.4 32.914l.8.228.344.763-.8-.229z"/><path id="_112983600" class="fil2" d="M47.943 31.694l.8.19.344.801-.8-.228z"/><path id="_112986528" class="fil2" d="M47.486 30.437l.8.229.381.8-.8-.229z"/><path id="_112989312" class="fil2" d="M47.067 29.217l.8.19.343.801-.8-.229z"/><path id="_112992096" class="fil2" d="M58.08 29.217l-.761.19-.382.801.8-.229z"/><path id="_112994880" class="fil2" d="M53.431 24.225l-.686.495-.114.839.724-.496z"/><path id="_112997664" class="fil2" d="M46.304 83.106l.42-.382 1.181-1.029 1.83-1.638 2.324-2.096-.914-.8-.23.228-.075.076-4.078 3.01h-.038l-.19.039-.23.152-.19.23-.076.152-.076.19-.039.229V82l.077.304.114.381z"/><path id="_113001672" class="fil2" d="M44.36 76.703h.039l.076-.038.114-.038.115-.038.19-.038.191-.038.19-.077.23-.076.228-.076.267-.114.266-.077.267-.038.267-.152.305-.077.305-.076.305-.114.304-.076.343-.076.305-.115.267-.076.305-.038.305-.076.267-.115.266-.038.267-.076.267-.038.229-.077.228-.038h.153l.19-.038h1.982l.19.038h.23l.19.038.228.077.267.038.267.076.267.038.267.115.304.076.305.038.343.076.305.115.305.076.305.076.305.114.305.076.304.077.267.114.343.076.267.077.267.114.19.076.23.038.228.115.19.038.153.038.152.038.077.038.076.038h.076l.114.114.038.115-.038.076h-.038l-.038.076-.152-.076-.038-.038h-.077l-.114-.038-.114-.038-.191-.039-.152-.114-.229-.038-.229-.076-.228-.038-.267-.076-.267-.115-.305-.076-.267-.076-.304-.114-.305-.077-.305-.076-.305-.114-.343-.077-.305-.076-.305-.114-.305-.076-.267-.077-.304-.076-.267-.076-.267-.038-.229-.038-.266-.038-.19-.076-.153-.039h-2.325l-.153.039-.228.076-.229.038-.229.038-.266.038-.267.076-.305.076-.267.077-.305.076-.304.114-.306.076-.266.077-.305.114-.343.076-.305.076-.305.115-.267.076-.266.076-.267.115-.267.076-.229.038-.19.076-.229.038-.19.114-.153.038-.152.039-.077.038h-.114l-.038.038-.114.076-.038-.076h-.077v-.076l.077-.115z"/><path id="_113010560" class="fil2" d="M58.271 72.778v-.419l-.038-.153-.038-.153-.114-.076-.077-.152-.038-.115-.038-.19.038-.114.038-.115.077-.038.152-.038.076-.076.038-.038.077-.076.038-.115v-.152l-.038-.114-.115-.153-.076-.038h-.229l-.038.038-.038.114v.038l-.038.039-.076.038h-.038l-.038-.038-.038-.038-.039-.077.038-.114v-.115l.039-.152v-.114l.038-.19.038-.534.114-.153.076-.114.077-.038.114-.038h.114l.19.038.191.038.115.114.076.076.153.115.076.229.038.228v.572l-.038.19-.039.153-.037.152-.039.19-.038.115-.114.153-.038.076-.038.038v.038l.038.038v.076l.038.076.038.191.076.152-.076.19v.23l-.114.915-.153.724-.114.419-.153.228-.152.076-.229.077-.228-.077-.19-.038-.115-.114-.153-.19-.076-.229v-.648l.038-.305.115-.19.076-.115h.114l.076.038v.229l.038.115v.152l.077.038.038.038.114.038.038-.038.076-.038.038-.038.153-.267z"/><path id="_113007488" class="fil2" d="M54.27 71.94l.076-.534V71.1l.076-.19.076-.077.153-.076.038.076.076.038.038.076.076.077v.19l.038.267-.038.495v.038l.038.038.038.038.039.077.076.076v.115l.076.19-.076.114-.038.153-.038.076-.038.038-.077.076-.076.038v.115l-.038.571-.038.382-.076.076-.153.038h-.114l-.038-.038h-.61l-.038-.038v-.038l.038-.115.114-.114.077-.153.038-.076.114-.114.038-.153.038-.19v-.191l-.038-.076h-.419l-.152-.038-.115-.038-.038-.114-.038-.153v-.114l.038-.19.038-.192.038-.152.115-.533.076-.572.038-.648.038-.572V68.51l.076-.076h.153l.114.038h.572l.038.076.038.115v.19l-.038.42-.038.38-.038.23-.115.304-.114.42-.153.38-.076.382-.038.114-.114.305-.038.19v.076l.114.038h.152l.038-.038z"/><path id="_113015056" class="fil0" d="M50.192 70.3l.076.344v.266l.038.19.038.077.076.038.115-.038.038-.076.038-.19v-.153l-.038-.534v-.19l-.038-.153-.077-.076h-.076l-.076.038-.038.076-.076.19z"/><path id="_113040880" class="fil2" d="M46.724 73.388l-.267-2.02-.076-.267-.077-.229-.038-.152-.038-.076-.114-.039-.076-.038-.114-.076h-.115l-.038-.038v-.038l-.038-.077v-.152l.038-.038.038-.038.114-.19.077-.077.038-.114.038-.153.114-.19.038-.153.038-.114.038-.038.343-.076h.077l.076.038.038.076v.152l.038.267.038.19.076.725.077.495.152 1.372.152.762.077.496.114.381.076.381v.153l-.038.152-.114.038h-.038l-.153.038-.228.038-.42.153h-.152v-.115l-.038-.038.038-.114.076-.152.038-.115.115-.152.038-.153v-.419z"/><path id="_113042864" class="fil2" d="M61.472 72.549v-.305l.039-.076-.039-.115v.267z"/><path id="_113054280" class="fil2" d="M64.064 79.447l-.038.076v.038l-.038.038-.038.038-.076.039-.077.114-.038.038-.076.076-.038.038-.115.115-.076.038-.076.076-.076.076-.114.076-.077.077-.076.038-.114.038-.115.076-.114.076-.076.038-.114.038h-.115l-.114.039h-.496l-.152-.038-.114-.039-.153-.038-.114-.114-.114-.038-.115-.076h-.038l-.076.038v.038l-.038.076v.076l.038.076h.076l.153.077.114.114.19.038.115.038.19.039.114.038h.306l.152-.038h.114l.153-.038.114-.039.153-.038.076-.076.152-.076.114-.038.115-.077.076-.076.114-.076.115-.076.076-.077.076-.076.038-.076.115-.076.076-.038.038-.115.038-.038.114-.038.038-.076.039-.076v-.038h.038l.038-.038.076-.077-.076-.038v-.114h-.076l-.038-.038-.077.038z"/><path id="_113069864" class="fil2" d="M67.037 77.198l-.038.039v.038l-.038.076-.039.038-.076.076-.076.038-.038.038-.076.115-.077.038-.114.076-.076.038-.076.115-.115.038-.076.038-.152.038-.077.038-.076.076-.152.038-.077.039-.114.038h-.114l-.114.038h-.496l-.076-.038-.115-.038h-.076l-.076-.039-.114-.114-.229.153.076.114.076.076.115.076.114.038.114.038h.153l.076.039h.419l.077-.039h.114l.152-.038.115-.038h.114l.114-.038.153-.114.076-.038.114-.038.115-.038.114-.077.114-.076.077-.076.076-.038.114-.077.076-.114.077-.038.038-.076.114-.038.038-.115.038-.076.038-.038.038-.038v-.153l-.076-.19h-.076l-.038.076z"/><path id="_113072320" class="fil2" d="M40.93 79.447v.076l.039.038.076.038.038.038.038.039.077.114.038.038.114.076.038.038.076.115.115.038.038.076.076.076.076.076.153.077.076.038.114.038.077.076.114.076.114.038.114.038h.115l.114.039h.496l.114-.038.152-.039.115-.038.152-.114.114-.038.038-.076h.115l.038.038.038.038.038.076v.076l-.038.076h-.076l-.153.077-.152.114-.152.038-.19.038-.115.039-.114.038h-.344l-.114-.038h-.152l-.115-.038-.152-.039-.114-.038-.153-.076-.076-.076-.115-.038-.114-.077-.076-.076-.153-.076-.076-.076-.076-.077-.114-.076-.038-.076-.077-.076-.076-.038-.076-.115-.076-.038-.038-.038-.038-.076-.039-.076v-.038h-.038l-.076-.038-.038-.077.038-.038v-.114h.114l.038-.038.077.038z"/><path id="_113077768" class="fil2" d="M37.958 77.198l.076.039v.038l.038.076.039.038.038.076.076.038.076.038.076.115.077.038.114.076.076.038.076.115.115.038.076.038.114.038.114.038.077.076.114.038.115.039.114.038h.114l.076.038h.534l.076-.038.115-.038h.076l.076-.039.114-.114.19.153-.037.114-.077.076-.152.076-.076.038-.114.038h-.153l-.076.039h-.419l-.115-.039h-.114l-.114-.038-.153-.038h-.114l-.077-.038-.152-.114-.076-.038-.153-.038-.076-.038-.114-.077-.114-.076-.077-.076-.076-.038-.114-.077-.076-.114-.077-.038-.076-.076-.076-.038-.038-.115-.038-.076-.038-.038-.077-.038v-.153l.077-.19h.114l.038.076z"/></g></g></svg>