<svg xmlns="http://www.w3.org/2000/svg" width="600" height="300" xmlns:cgf="https://coding.garden/flags"><metadata id="cgf-metadata">

<cgf:flag>
  <cgf:name></cgf:name>
  <cgf:route>ru/kgn</cgf:route>
  <cgf:aspect-ratio>2</cgf:aspect-ratio>
</cgf:flag>

</metadata><path fill="#fff" d="M0 0h600v300H0z"></path><path fill="#008040" d="M0 100h600v100H0z"></path><path fill="#fff" d="M331 119c16 1 19 21 27 35 8 15 12 16 12 19s-10 5-21 5c-18 0-54-12-54-12s20-48 36-47z"></path><path fill="#fff" stroke="#008040" stroke-width="2" d="M239 179c23-1 39 12 64 13 26 0 29-12 29-15-7-3-9-12-12-18-7-15-13-49-34-50-24-1-31 51-47 70z"></path></svg>