<svg xmlns="http://www.w3.org/2000/svg" width="347" height="220" image-rendering="optimizeQuality" shape-rendering="geometricPrecision" text-rendering="geometricPrecision"><defs><style>.str6{stroke:#f8c300;stroke-width:.6;stroke-linecap:round;stroke-linejoin:round}.str4{stroke-width:.8}.str3,.str4{stroke:#fff;stroke-linecap:round;stroke-linejoin:round}.fil5{fill:none}.fil3{fill:#007cc3}.fil6{fill:#da251d}.fil4{fill:#f8c300}</style></defs><path fill="#fff" d="M0 0h347v220H0z"/><path d="M173.6 144.5c.7-5.8 5.6-10.3 11.6-10.3l24.5-.6c6.5 0 11.7-5.2 11.7-11.7V20.5h-95.9v101.4c0 6.5 5.4 11.7 11.8 11.7l24.5.6c6 0 11 4.5 11.7 10.3h.1z" fill="#0093dd" stroke="#da251d" stroke-width="4" stroke-linecap="round"/><path fill="#00923f" d="M0 165h347v55H0z"/><path class="fil3" d="M0 192.5h347V220H0z"/><path class="fil4" d="M173.6 144.5c.7-5.8 5.6-10.3 11.6-10.3l24.5-.6c6.5 0 11.7-5.2 11.7-11.7V20.5h-95.9v101.4c0 6.5 5.4 11.7 11.8 11.7l24.5.6c6 0 11 4.5 11.7 10.3h.1z" stroke="#f8c300" stroke-linecap="round"/><path class="fil3" d="M221.5 32.9c-3.3.3-5.8.9-8.3 3.8-6 .7-9 4.1-9.3 9.5-4.5 3.2-6 8.2-4.4 14.9-5.3 3.3-7.4 7.5-4.9 12.7l.1 12.3c.4 1.7 1.3 3.3 2.5 4.9-3.8 6-2.1 11.4 5.1 14.7 0 10.3 5.7 13.2 14.1 12.7 1.1 1.5 2.8 2.6 5.1 3.4l.1-89z" stroke="#007cc3" stroke-linecap="round" stroke-linejoin="round"/><path class="fil5 str3" d="M221.5 32.9c-3.3.3-5.8.9-8.3 3.8-6 .7-9 4.1-9.3 9.5-4.5 3.2-6 8.2-4.4 14.9-5.3 3.3-7.4 7.5-4.9 12.7l.1 12.3c.4 1.7 1.3 3.3 2.5 4.9-3.8 6-2.1 11.4 5.1 14.7 0 10.3 5.7 13.2 14.1 12.7 1.1 1.5 2.8 2.6 5.1 3.4"/><path class="fil6 str4" d="M141.1 39.8c-3.9 1-6.8 2.3-9 4.1V32.3c2.2 1.8 5.1 3.1 9 4.1-1-3.9-2.3-6.8-4.1-9h11.6c-1.8 2.2-3.1 5.1-4.1 9 3.9-1 6.8-2.3 9-4.1v11.6c-2.2-1.8-5.1-3.1-9-4.1 1 3.9 2.3 6.8 4.1 9H137c1.8-2.2 3.1-5.1 4.1-9z"/><circle class="fil6 str4" cx="142.8" cy="24.6" r="2.5"/><circle class="fil6 str4" transform="rotate(-90 83.686 -45.622) scale(.95884)" r="2.6"/><circle class="fil6 str4" transform="rotate(90 59.083 97.147) scale(.95884)" r="2.6"/><circle class="fil6 str4" cx="142.8" cy="51.5" r="2.5"/><path class="fil5 str3" d="M221.5 50.6c-7.8 1-11.4 5.6-8.8 15.3m-.9-6.7c-7.4 1.1-11.7 4.4-12.1 11m19-19c-.9-1.5-.5-3.4 1.1-5.5m-.9-2.6c-3.1 2.6-4.3 5.5-2.9 9.2m-6.6 2.4c-1.2 1.7-1.2 3.4-.2 5.1m-1-9c-3 2.5-4.2 5.6-2.3 10.1m2.5-13c-5.7 2.5-7.6 7.3-5.1 14.7m18.2 14.8c-2-1.8-2.3-3.6-.8-5.2m.8 9.3c-5.2-3.2-6.9-6.9-3.3-11.4m3.3 15c-8.6-4.8-11.7-10.9-3.7-17.3m3.7 42.5c-14.8-5.5-15.4-15.3-2.2-22.2m-8.8-21.6c-9.3 8.2-11.9 17.1 1.3 27.4m2.4-2.4c-5.6-3.5-8.2-8-7.8-13.2m9.6 11.8c-3.5-2-5.3-5.4-7.1-8.5m4.8 2.3c.8 1.7 2.2 2.9 4.4 4.8m-5 8.1c-.8 4.6 2.8 7.6 8.3 9.8m-5.6-8.5c-.1 2.4 1.9 4.1 5.6 5.3m-14.3-9c-3.6-.2-7.5-.9-9.9-3.4m9 8.5c-1.9-1.6-2.5-3.3-1.5-5.3m-2.5-.5c-1.4 3.1-.5 5.8 2.6 8.1m-1.2 1.5c-4.4-2.8-5.9-5.6-3.5-10.3m2.2 12.8c3.9 1 7.2.5 10.7-.3m2 6.7c-.3 2.8.1 4.7 1.3 6.3m-7.3-7.3c1.7 1.8 3.3 3.1 6 3m-9.1-3.7c2.2 4.2 5.3 6.2 9.3 5.8"/><path class="fil6" d="M178.6 73.1h-13.8l-2 2.4h-4.2v-8.7c-11.4-10 4.4-17.1 9.3-29.3l10.7 35.6zm-1.7 8.1l1.2 1.9-10.1 33.6c-4.9-12.2-20.7-19.3-9.3-29.3v-8.7h4.2l2 2.4H177zm2.9 3.2c2.3 1.2-.2 3.2 8.8 1.5l1.3 1.4c4.3-2.9 9 .3 16.4 1.6-4.4-5.3-4.9-11-.8-17-4.7-.1-8.9.6-11.9 2.7h-6.3c-1.8-1.1-3.9-1.7-6.6-1.7l-11.8-38.6c.1-.4.2-.9.2-1.3 1.5.8 2.9.9 4.1 0 1.7-1.2 3.4.3 7.5-.4-3.8.2-5.7-1.5-7.6-.7-1.7.7-2.9.3-3.9-.9 0-1 0-1.9-.2-3-.9-5.9-8.6-.4-2.7 1.5 2.7 15.7-27.3 25.4-14.1 38.9v7h-13.6c.3-1.1 1-2.1 1.8-3-3.8 1.6-8.3 3.1-13.4 4.7 5.1 1.6 9.6 3.1 13.4 4.7-.8-1-1.4-2-1.8-3h13.6v7c-13.3 13.5 16.7 23.2 14.1 38.9-5.9 1.9 1.8 7.3 2.7 1.5.2-1 .2-2 .2-3 1-1.2 2.3-1.6 3.9-.9 1.9.8 3.9-.9 7.6-.7-4.1-.6-5.9.8-7.5-.4-1.2-.9-2.6-.7-4.1 0-.1-.5-.1-.9-.2-1.3l10.9-35.6z" stroke="#fff" stroke-width=".7" stroke-linejoin="round"/><path class="fil4" d="M179 75.6c-.2.8 1.7.9 2.5.9 1.6 0 1.5.6 2.4 1.8 2.3 2.9 2.9 1.7 3.6 2.6-.7.6-2.3-1.2-2.3 1 0 3.3 3.9 4 4.2.3.3-3.5-.4-4.2-2.4-6.3-.9-.9-7.3-2.4-7.9-.3z"/><path class="fil4" d="M179.2 78.1c-1.6.2-.7 1.7.6 1.4 2-.5 3.7-1.9-.6-1.4zm.5 2.5c-1.1.5-.3 1.8 1.1 1.1 2.3-1.1 2.9-2.9-1.1-1.1zm1.5 1.9c-.9.5-.2 1.8 1.1.9 2-1.3 1.7-2.7-1.1-.9zm1.7 1.5c-.9.7.2 1.7 1.1.6 1.1-1.4-.2-1.4-1.1-.6zm17.1-5.4c-.5-3 .9-2.2 1-3.7-5.8.5-6.6 1.8-4 5.7.5-2.1-1.2-2.6.8-3.6 0 .9.3 1.9.9 2.8.3-1.1-.3-2.7.5-3.2.2.7.3 1.5.8 2zm-7.5 3.5c-.1-1.6.1-3.2.7-3.8.1 1.2.3 2.3 1.1 2.9-.1-2-.1-3.1.4-3.5-1.2-.8-1.8-1.1-2.6-1.2-.5 2.6-.3 4.6.5 5.6z"/><path class="fil4 str6" d="M164.7 76.3l-.7.8h12.8l.7-.8z"/><path class="fil5 str6" d="M178.4 75.4l-.8 1m-12-1l-.8 1m2.7-1l-.8 1m2.7-1l-.8 1m2.7-1l-.8 1m2.7-1l-.8 1m2.7-1l-.8 1m2.7-1l-.8 1"/></svg>