<svg xmlns="http://www.w3.org/2000/svg" width="600" height="300" xmlns:cgf="https://coding.garden/flags"><metadata id="cgf-metadata">

<cgf:flag>
  <cgf:name></cgf:name>
  <cgf:route>ru/kl</cgf:route>
  <cgf:aspect-ratio>2</cgf:aspect-ratio>
</cgf:flag>

</metadata><path fill="#ffd000" d="M0 0h600v300H0z"></path><circle cx="300" cy="150" r="100" fill="#00b0e0"></circle><g fill="#fff" stroke="#00b0e0" stroke-width="1.5"><path d="M246 198c16 2 31-3 41-9 14-7 16-26 16-26s-25-2-38 12c-3 2-13 10-19 23z"></path><path d="M354 198c-16 2-31-3-41-9-14-7-16-26-16-26s25-2 38 12c3 2 13 10 19 23zm-106-46c-3 0-9-1-18 6 7 9 14 14 26 14 16 0 32-4 32-4s-22-16-30-16z"></path><path d="M352 152c3 0 9-1 18 6-7 9-14 14-26 14-16 0-32-4-32-4s22-16 40-16zm-71-53c-9 0-17 48-17 48h33s-3-48-16-48zm38 0c9 0 17 48 17 48h-33s3-48 16-48z"></path><path d="M262 108c-3 0-6 11-6 22 0 13 14 45 41 40-7-15-24-62-35-62zm76 0c3 0 6 11 6 22 0 13-14 45-41 40 7-15 24-62 35-62z"></path><path d="M300 172c13 0 15-14 15-32 0-12-8-41-15-41s-15 29-15 41c0 18 2 32 15 32z"></path></g></svg>