<svg xmlns="http://www.w3.org/2000/svg" width="813.214" height="538.847" viewBox="0 0 215.163 142.57" shape-rendering="geometricPrecision" text-rendering="geometricPrecision" image-rendering="optimizeQuality" fill-rule="evenodd" clip-rule="evenodd" xmlns:cgf="https://coding.garden/flags"><metadata id="cgf-metadata">

<cgf:flag>
  <cgf:name></cgf:name>
  <cgf:route>ru/klu</cgf:route>
  <cgf:aspect-ratio>1.5111524163568772</cgf:aspect-ratio>
</cgf:flag>

</metadata><defs><style>.fil4{fill:#f2c12e}.fil5{fill:#fc0}</style></defs><g id="Layer_x0020_1"><g id="_127261056"><path id="_41424872" fill="#00a652" d="M0 .002h215.167V142.57H0z"></path><path id="_117414512" fill="#e40102" d="M.005 59.49h215.162V-.009H.005z"></path><path id="_40817096" fill="#da251d" d="M97.83 39.215h17.944v-1.328H97.83z"></path><path id="_40552704" d="M96.532 50.45c3.287-.376 7.364-.6 11.771-.6 3.574 0 6.97-.138 9.824.404 3.815.724 6.519 1.777 7.036-.421-.175-.134.001-.23-.192-.365l1.712-.738-.84-1.105-.504-.662.111-.536c1.393.23 1.478-.249 1.337-1.109-.03-.179-.056-.344-.17-.538-.17-.105-.339-.206-.508-.303l1.565-3.588a2.85 2.85 0 0 0 1.03-.903c.582.3.972.298 1.593.117.76-.313 1.446-1.022 1.13-1.892 1.114-1.085.219-3.054-1.342-3.093 1.921-3.113 1.688-7.41 1.133-9.87-1.31-4.739-5.525-8.46-13.334-8.898l-.028-.158-1.184-.134a83.564 83.564 0 0 0-1.133 2.114 13.579 13.579 0 0 1-2.84.192l.236-.755-1.183-.248c-.635.701-2.449 1.482-3.334 1.073 1.965-.43 2.821-2.215 2.821-4.128l-.228-.072c-.12-.759-.332-1.38-.845-1.958l-1.224-2.836 2.411 1.097V5.716l-2.411 1.097 1.097-2.412h-4.821l1.097 2.412-2.412-1.097v4.82l2.412-1.096-1.185 2.728-.009.009c-.57.61-.806 1.254-.932 2.062l-.098.03c-.056 1.893.788 3.611 2.652 4.126a2.16 2.16 0 0 0-.351.182c-1.142-.17-2.19-.473-2.834-1.457l-1.05.795.258.711a16.013 16.013 0 0 1-3.082-.279c-.26-.603-.533-1.21-.814-1.804l-.975.009-.178.11c-8.292.259-13.237 3.82-14.384 8.507-.61 2.65-.517 7.57 1.356 10.551-2.552-.078-2.416 1.548-2.016 2.95.418-.05.84-.087 1.253-.167l-.039.197 2.11 1.145c.262 1.047 1.044 1.817 2.111 2.033a.64.64 0 0 0 .363.03l1.277 2.403c-.204.115-.404.24-.605.378-.08.077-.197.194-.21.23-.058.151-.11.284-.11.428.002.938.523 1.322 1.495.994l.001.085-1.612 1.459 1.639 1.102.012.12c-.581 3.155 1.123 2.295 6.174 1.343z" fill="#1f1a17"></path><path id="_40552008" class="fil4" d="m90.363 46.686.695.467.694.467-.614.556-.615.556-.694-.467-.695-.467.615-.556z"></path><path id="_40551312" class="fil4" d="m125.029 47.184.507.666.505.666-.76.328-.763.328-.505-.666-.507-.666.762-.328z"></path><path id="_40407024" class="fil4" d="m107.707 44.163 1.203.774 1.202.774-1.248.711-1.247.71-1.202-.774-1.203-.774 1.248-.71z"></path><path id="_40406328" class="fil5" d="M102.361 31.816c-.597-6.342-1.965-11.835-3.6-15.086h-.796c1.666 3.774 3.123 9.17 4.01 15.307l.028-.023.358-.198z"></path><path id="_40405632" class="fil5" d="M111.063 18.122c-.948 2.628-1.745 6.034-2.264 9.865l-.137-.08-.07-.03-.203-.119-.245-.103-.216-.059c.537-.187.925-.698.925-1.298 0-.544-.32-1.017-.78-1.239a1.698 1.698 0 0 0 1.099-1.586 1.69 1.69 0 0 0-.709-1.376 2.017 2.017 0 0 0 1.03-1.757c0-.518-.198-.991-.52-1.349.804-.167 1.52-.47 2.09-.869zm-4.698 9.85c-.059-.415-.12-.823-.186-1.226.144.416.483.742.907.869a3.58 3.58 0 0 0-.395.143l-.223.131-.103.082zm.128-5.875c-.428.307-.709.81-.709 1.376a1.7 1.7 0 0 0 1.1 1.586c-.459.221-.777.69-.78 1.231-.538-3.176-1.267-5.98-2.104-8.185.545.392 1.231.692 2.003.866a2.008 2.008 0 0 0 .49 3.126z"></path><path id="_40404232" class="fil5" d="M107.561 14.191c1.186 0 2.276.165 3.133.441v.07c0 .503-.11.98-.306 1.406-.804-.221-1.778-.35-2.827-.35-1.013 0-1.956.12-2.744.327a3.353 3.353 0 0 1-.295-1.483c.842-.257 1.896-.41 3.039-.41z"></path><path id="_40403280" class="fil5" d="M110.086 16.709c-.574.779-1.472 1.282-2.478 1.282-1.129 0-2.12-.632-2.672-1.575a11.731 11.731 0 0 1 1.974-.162c1.205 0 2.313.171 3.176.455z"></path><path id="_40401800" class="fil5" d="m107.257 8.41-.503 1.105-.748 1.644a3.563 3.563 0 0 1 3.122-.04l-.73-1.604-.503-1.106 1.106.503 1.807.822V6.446L109 7.268l-1.106.503.503-1.105.822-1.807h-3.288l.822 1.807.503 1.105-1.106-.503-1.806-.822v3.288l1.806-.822 1.106-.503z"></path><path id="_40401104" class="fil5" d="M110.438 14.068A2.83 2.83 0 0 0 109.05 12v2.07h1.388z"></path><path id="_40400408" class="fil5" d="M106.76 11.725v2.095h1.663v-2.105a2.586 2.586 0 0 0-1.663.01z"></path><path id="_40399712" class="fil5" d="M104.657 14.068A2.83 2.83 0 0 1 106.046 12v2.07h-1.389z"></path><path id="_40398712" class="fil5" d="M112.421 17.862c-1.235 2.687-2.296 6.658-2.953 11.277-.01 0-.02 0-.031.002l-.036-.174-.074-.214-.104-.204-.134-.192-.097-.103c.659-4.297 1.668-7.986 2.834-10.532.2.056.398.103.595.14z"></path><path id="_40398016" class="fil5" d="M103.39 17.707c1.086 2.724 2.067 6.325 2.802 10.424l-.091.097-.14.198-.108.213-.077.222-.011.056c-.77-4.308-1.813-8.066-2.962-10.839.204-.115.4-.239.587-.37z"></path><path id="_40397064" class="fil5" d="M107.478 19.211c.622 0 1.13.508 1.13 1.13 0 .621-.508 1.129-1.13 1.129-.622 0-1.13-.508-1.13-1.13 0-.621.508-1.129 1.13-1.129z"></path><path id="_40396112" class="fil5" d="M107.528 22.444c.595 0 1.08.485 1.08 1.08a1.08 1.08 0 0 1-2.16-.001c0-.594.486-1.08 1.08-1.08z"></path><path id="_40395160" class="fil5" d="M107.484 25.676a.716.716 0 0 1 0 1.428.715.715 0 0 1 0-1.428z"></path><path id="_40394464" class="fil5" d="M96.328 38.02c-1.306-.374-2.558-2.67-.913-3.531-.85 1.172-.227 2.773.913 3.53z"></path><path id="_40392888" class="fil5" d="m100.581 33.53-.126-.935a22.95 22.95 0 0 0-3.085.658l.153.423.148.062.361.248.312.313.257.37.196.418a4.1 4.1 0 0 1 .147.577 3 3 0 0 1-.038 1.038l-.06.216a2.748 2.748 0 0 1-.013.037 22.99 22.99 0 0 1 1.897-.388l-.175-.127-.177-.173-.154-.2-.128-.224c-.117-.289-.211-.58-.211-.895l.042-.292.07-.264.1-.246.127-.225.154-.2.177-.172.026-.019z"></path><path id="_40391936" class="fil5" d="M111.633 39.925a4.905 4.905 0 0 1-.902-.258c.045-.502.096-1.012.154-1.53l.4.084.46.017.054-.006a69.748 69.748 0 0 0-.166 1.693z"></path><path id="_39904672" class="fil5" d="M103.002 39.925c.195-.059.382-.146.558-.258a112.86 112.86 0 0 0-.082-1.325l-.024.004-.448-.008-.1-.02c.036.544.068 1.08.096 1.607z"></path><path id="_40390040" class="fil5" d="M98.593 27.419a64.854 64.854 0 0 0-1.56-3.398 21.46 21.46 0 0 0-3.22.914 70.59 70.59 0 0 1 1.613 3.443 21.285 21.285 0 0 1 3.167-.96z"></path><path id="_40389088" class="fil5" d="M94.864 29.626a19.792 19.792 0 0 0-3.412 1.855c.405.964.802 1.965 1.187 3a20.533 20.533 0 0 1 3.447-1.631 75.005 75.005 0 0 0-1.222-3.224z"></path><path id="_40387992" class="fil5" d="m101.825 39.806-.508-2.477c-.85.21-1.665.477-2.44.792.857 1.265 1.56 1.517 2.948 1.685z"></path><path id="_40387296" class="fil5" d="m97.676 19.1-.424-1.376-.308-.862-2.938.326c.495.648.996 1.377 1.5 2.18a22.973 22.973 0 0 1 2.17-.267z"></path><path id="_40386368" class="fil5" d="m99.906 27.17-.621-2.854-.19-.613c-.382.041-.76.091-1.136.15a66.564 66.564 0 0 1 1.522 3.388c.141-.025.283-.05.425-.072z"></path><path id="_40385432" class="fil5" d="m98.873 22.98-1.01-3.274c-.677.056-1.343.14-1.996.252a48.1 48.1 0 0 1 1.745 3.19c.415-.067.835-.123 1.26-.169z"></path><path id="_40384480" class="fil5" d="M96.678 23.321a44.895 44.895 0 0 0-1.787-3.173c-1.112.242-2.18.564-3.19.957a53.1 53.1 0 0 1 1.762 3.144 21.433 21.433 0 0 1 3.216-.928z"></path><path id="_40383528" class="fil5" d="M100.287 31.762a79.55 79.55 0 0 0-1.308-3.419c-1.103.23-2.165.538-3.176.912a82.598 82.598 0 0 1 1.292 3.252 22.783 22.783 0 0 1 3.192-.745z"></path><path id="_40382832" class="fil5" d="M90.759 21.498a18.16 18.16 0 0 0-3.405 1.984 42.27 42.27 0 0 1 1.778 3.066 18.366 18.366 0 0 1 3.433-1.934 37.334 37.334 0 0 0-1.806-3.116z"></path><path id="_40382136" class="fil5" d="M92.913 25.294a18.44 18.44 0 0 0-3.44 1.912 62.541 62.541 0 0 1 1.66 3.527 18.144 18.144 0 0 1 3.375-1.969 58.446 58.446 0 0 0-1.595-3.47z"></path><path id="_40380928" class="fil5" d="m88.8 19.105-.513.232a11.787 11.787 0 0 0-2.504 2.152c.328.426.66.888.993 1.384a18.132 18.132 0 0 1 3.394-1.989c-.462-.67-.92-1.265-1.37-1.78z"></path><path id="_40379976" class="fil5" d="M94.355 19.398c-.455-.7-.907-1.338-1.354-1.907a11.576 11.576 0 0 0-3.153.903c.439.602.883 1.257 1.328 1.963a21.296 21.296 0 0 1 3.18-.959z"></path><path id="_40379280" class="fil5" d="M86.986 35.535c.18-.362.381-.716.601-1.062a54.91 54.91 0 0 0-1.957-3.304 11.213 11.213 0 0 0-1.273 2.746c.202.497.436.978.699 1.44l.002-.002c.134-.082.25-.138.399-.19l.282-.051c.3-.01.53.035.809.147l.244.131c.07.047.133.095.194.144z"></path><path id="_40378328" class="fil5" d="M84.097 33.212c.273-.902.669-1.77 1.173-2.595a35.435 35.435 0 0 0-1.743-2.414 12.095 12.095 0 0 0 .57 5.01z"></path><path id="_40377376" class="fil5" d="M88.81 27.703a14.483 14.483 0 0 0-2.62 2.656 92.422 92.422 0 0 1 1.93 3.343 14.366 14.366 0 0 1 2.424-2.51 50.836 50.836 0 0 0-1.735-3.49z"></path><path id="_40376424" class="fil5" d="M86.546 24.125a13.962 13.962 0 0 0-2.55 2.818c.605.886 1.22 1.832 1.838 2.834a14.356 14.356 0 0 1 2.618-2.711 29.023 29.023 0 0 0-1.906-2.94z"></path><path id="_39908912" class="fil5" d="M83.481 26.204c.047.066.094.132.14.2a13.895 13.895 0 0 1 2.513-2.81 14.451 14.451 0 0 0-.935-1.06 11.64 11.64 0 0 0-1.718 3.67z"></path><path id="_40371856" class="fil5" d="M89.263 33.245c-.334.337-.65.683-.947 1.037.295.397.59.803.884 1.217h.01c.179.023.323.057.492.116.202.096.356.192.514.35l.33-.274.216-.126.224-.093.23-.06h.01c.271-.198.55-.39.837-.574a66.683 66.683 0 0 0-1.203-2.937c-.57.423-1.102.872-1.597 1.344z"></path><path id="_40373424" class="fil5" d="M94.14 34.597a18.89 18.89 0 0 0-1.18.655c.353.985.694 2.007 1.021 3.06.225-.117.454-.23.686-.341a4.07 4.07 0 0 1-.605-1.493 4.025 4.025 0 0 1 .078-1.881z"></path><path id="_40373344" class="fil5" d="M93.597 39.007c-.12-.323-.243-.642-.365-.955-.14.096-.279.193-.415.292a1.46 1.46 0 0 1-.353.286l.05.075.098.197.07.206.04.21.008.203c.282-.178.571-.349.867-.514z"></path><path id="_40372648" class="fil4" d="m95.038 40.437.184-1.289-.859.368z"></path><path id="_40370544" class="fil5" d="M89.693 40.163c.68.725 1.685 1.236 2.842 1.353 2.022.205 3.833-.86 4.321-2.44.025-.081.047-.164.065-.247l.007-.031.007-.04.01-.053.004-.023.01-.072.002-.014.009-.07v-.011l.001-.006.353-.143a2.14 2.14 0 0 0 .608-.242l.012-.008.185-.075c.05.113.107.224.17.331l.003.005.038.063v.002c.766 1.249 2.324 2.108 4.113 2.108 2.343 0 4.287-1.47 4.58-3.362h1.252c.292 1.892 2.236 3.362 4.578 3.362 1.79 0 3.348-.859 4.113-2.108l.001-.002.038-.063.003-.005a3.54 3.54 0 0 0 .17-.33l1.158.467v.006l.001.01.009.071a2.345 2.345 0 0 0 .026.163l.007.039.007.03c.018.084.04.167.065.248.488 1.58 2.3 2.645 4.32 2.44 1.158-.117 2.164-.628 2.843-1.353l.57.752a6.284 6.284 0 0 1-2.535 1.423c-2.6.755-5.23-.2-6.26-2.147-1.084.846-2.564 1.383-4.203 1.416-2.243.046-4.232-.865-5.335-2.255h-.405c-1.103 1.39-3.092 2.3-5.335 2.255-1.639-.033-3.12-.57-4.203-1.416-1.03 1.947-3.66 2.902-6.26 2.147a6.283 6.283 0 0 1-2.536-1.423l.57-.752z"></path><path id="_40368968" class="fil5" d="m114.313 33.53.126-.935c1.063.152 2.094.373 3.085.658l-.153.423-.147.062-.362.248-.312.313-.256.37-.197.418a4.058 4.058 0 0 0-.147.577c-.046.36-.036.683.038 1.038l.06.216.014.037a22.956 22.956 0 0 0-1.898-.388l.176-.127.176-.173.154-.2.128-.224c.117-.289.212-.58.212-.895l-.043-.292-.07-.264-.099-.246-.128-.225-.154-.2-.176-.172-.027-.019z"></path><path id="_40368272" class="fil5" d="m113.605 39.773-.537.033.509-2.477c.918.275 1.8.605 2.64.983l-.599.756-1.057.554-.956.15z"></path><path id="_40367576" class="fil5" d="m117.535 18.73.517-1.345.365-.84 2.909.525a28.833 28.833 0 0 0-1.643 2.074 22.955 22.955 0 0 0-2.148-.414z"></path><path id="_40366416" class="fil5" d="m114.766 26.63.813-2.805.23-.6c.379.068.754.143 1.123.228a66.704 66.704 0 0 0-1.746 3.277 21.29 21.29 0 0 0-.42-.1z"></path><path id="_40365720" class="fil5" d="m116.08 22.519 1.228-3.197c.672.1 1.331.23 1.975.386a47.783 47.783 0 0 0-1.957 3.065c-.41-.096-.825-.18-1.246-.254z"></path><path id="_40364768" class="fil5" d="M118.246 23.008a44.941 44.941 0 0 1 1.998-3.046c1.093.317 2.136.71 3.118 1.171a52.962 52.962 0 0 0-1.97 3.018 21.435 21.435 0 0 0-3.146-1.143z"></path><path id="_40364072" class="fil5" d="M114.076 31.186c.5-1.15 1.014-2.26 1.536-3.323 1.085.305 2.123.683 3.107 1.124a82.808 82.808 0 0 0-1.509 3.158 22.814 22.814 0 0 0-3.134-.96z"></path><path id="_40363376" class="fil5" d="M124.276 21.589c1.2.64 2.295 1.383 3.263 2.21a42.295 42.295 0 0 0-1.981 2.938 18.357 18.357 0 0 0-3.295-2.162 37.292 37.292 0 0 1 2.013-2.986z"></path><path id="_40362168" class="fil5" d="m126.392 19.334.495.266a11.8 11.8 0 0 1 2.354 2.317c-.357.402-.72.84-1.085 1.313a18.116 18.116 0 0 0-3.252-2.213 19.497 19.497 0 0 1 1.488-1.683z"></path><path id="_40361216" class="fil5" d="M120.829 19.251c.501-.667.996-1.273 1.48-1.812a11.57 11.57 0 0 1 3.085 1.114 35.02 35.02 0 0 0-1.457 1.87 21.315 21.315 0 0 0-3.108-1.172z"></path><path id="_40360264" class="fil5" d="M115.899 27.208a64.714 64.714 0 0 1 1.786-3.284c1.103.301 2.157.68 3.15 1.128a70.654 70.654 0 0 0-1.842 3.327 21.27 21.27 0 0 0-3.094-1.171z"></path><path id="_40359312" class="fil5" d="M121.709 25.471a18.44 18.44 0 0 1 3.302 2.14 62.383 62.383 0 0 0-1.893 3.407 18.145 18.145 0 0 0-3.234-2.192 58.421 58.421 0 0 1 1.825-3.355z"></path><path id="_40358360" class="fil5" d="M125.641 28.152a14.479 14.479 0 0 1 2.433 2.828 92.647 92.647 0 0 0-2.151 3.204 14.36 14.36 0 0 0-2.248-2.669 50.886 50.886 0 0 1 1.966-3.363z"></path><path id="_40357408" class="fil5" d="m131.219 26.776-.153.189a13.907 13.907 0 0 0-2.318-2.973c.342-.37.677-.702 1.006-.995a11.639 11.639 0 0 1 1.465 3.779z"></path><path id="_40356456" class="fil5" d="M119.706 29.412a19.789 19.789 0 0 1 3.114 2.32 76.893 76.893 0 0 0-1.6 2.8 20.517 20.517 0 0 0-3.18-2.103 74.93 74.93 0 0 1 1.666-3.018z"></path><path id="_40354984" class="fil5" d="M124.738 33.79c.282.38.545.767.79 1.16l-.193.194a2.987 2.987 0 0 0-.156-.008c-.174.01-.32.033-.488.075a1.514 1.514 0 0 0-.541.311l-.17-.08-.197-.062-.205-.034-.212-.006-.213.024-.212.056-.205.087-.191.114-.138-.044c-.216-.207-.439-.41-.668-.609a68.707 68.707 0 0 1 1.609-2.736c.503.5.967 1.02 1.39 1.557z"></path><path id="_40354288" class="fil5" d="M121.723 36c.088.08.175.16.26.242l-.052.114a1.998 1.998 0 0 0-.16.757l.02.222c.057.236.123.45.278.643-.15.19-.197.395-.226.631l.008.19.09.354c.079.17.16.305.27.457l.247.26c.15.124.294.224.46.324.077.038.151.072.226.104l-.23.345a4.294 4.294 0 0 1-2.182-.279 15.304 15.304 0 0 0-.975-1A50.973 50.973 0 0 1 121.723 36z"></path><path id="_40353592" class="fil5" d="M127.087 35.838c-.154-.37-.33-.733-.524-1.09a54.897 54.897 0 0 1 2.176-3.164c.491.903.858 1.85 1.084 2.826-.143.293-.297.579-.461.857-.232-.13-.5-.187-.765-.207-.18.004-.33.022-.506.06-.182.06-.327.126-.493.22a2.661 2.661 0 0 0-.429.383 3.384 3.384 0 0 0-.082.115z"></path><path id="_40352640" class="fil5" d="M130.131 33.727a11.153 11.153 0 0 0-.995-2.669 35.473 35.473 0 0 1 1.903-2.29 12.097 12.097 0 0 1-.907 4.96z"></path><path id="_40351688" class="fil5" d="M128.302 24.495a13.964 13.964 0 0 1 2.354 2.984 72.027 72.027 0 0 0-2.026 2.702c-.652-1.032-1.47-2-2.429-2.882a28.99 28.99 0 0 1 2.101-2.804z"></path><path id="_40351008" class="fil5" d="m116.628 16.327 1.004.171a85.221 85.221 0 0 0-5.214 15.132l-.025-.03-.278-.197-.31-.13c1.22-5.12 2.813-10.25 4.823-14.946z"></path><path id="_40332192" class="fil5" d="M107.566 33.08c.83 0 1.505.864 1.505 1.923 0 1.06-.676 1.923-1.505 1.923-.829 0-1.505-.864-1.505-1.923 0-1.06.676-1.924 1.505-1.924z"></path><path id="_40331496" class="fil5" d="M100.501 34.992c.104-1.194 1.164-1.49 1.87-.993l.061-.076c-1.624-1.467 1.826-2.9 3.101.057l-.009.04c-1.459.637-2.359.72-3.951.885 1.535-.04 2.284.106 3.951.885l.035.157c-1.254 3.04-4.763 1.595-3.127.12l-.06-.077c-.707.498-1.767.2-1.87-.994h-.001v-.004z"></path><path id="_40330800" class="fil5" d="M107.409 28.067c1.18.107 1.472 1.19.98 1.913l.076.062c1.448-1.661 2.864 1.866-.056 3.17l-.04-.008c-.628-1.492-.711-2.412-.874-4.04.04 1.57-.104 2.335-.874 4.04l-.154.036c-3.001-1.283-1.576-4.87-.118-3.198l.076-.062c-.492-.723-.2-1.806.98-1.912h.004z"></path><path id="_40330104" class="fil5" d="M114.515 34.89c-.105-1.11-1.17-1.387-1.88-.924l-.06-.071c1.64-1.597-2.08-2.988-3.323-.206 1.057.613 1.835.765 2.998 1.04-1.325-.082-1.796.253-2.861 1.264 1.18 2.823 4.87 1.44 3.185-.104l.061-.072c.71.464 1.775.188 1.88-.923v-.004z"></path><path id="_40329152" class="fil5" d="M107.532 31.962c.058.297.125.497.244.776a1.463 1.463 0 0 0-.48-.023c.088-.252.166-.495.236-.753z"></path><path id="_40328200" class="fil5" d="M104.602 34.844c.373.097.743.2 1.114.31a2.995 2.995 0 0 1 .044-.69 8.955 8.955 0 0 1-1.158.38z"></path><path id="_40327272" class="fil5" d="M110.311 34.843a2.758 2.758 0 0 0-.851.437c.051-.347.049-.493-.037-.836.304.165.574.286.888.399z"></path><path id="_40326320" class="fil5" d="M96.484 34.127c.818-.157 1.642.533 1.834 1.535.192 1.002-.318 1.947-1.136 2.104-.818.157-1.641-.532-1.834-1.534-.192-1.003.318-1.948 1.136-2.105z"></path><path id="_40325624" class="fil5" d="M119.135 34.09c-.867-.26-1.834.392-2.154 1.454-.32 1.062.126 2.141.993 2.402.866.26 1.834-.392 2.154-1.454.32-1.062-.126-2.141-.993-2.402z"></path><path id="_40324928" class="fil5" d="M86.716 38.957c.373-.408 1.182-.28 1.8.285.618.565.818 1.359.444 1.768-.373.408-1.182.28-1.8-.285-.618-.565-.818-1.36-.444-1.768z"></path><path id="_40341128" class="fil5" d="m90.45 36.627-.187.483-.303.003c.286-1.294-2.312-1.685-2.033.99.952.452 2.068.4 2.96-.238-.79.791-.898 1.021-1.333 1.958 1.067 1.483 3.77.092 1.937-1.34l-.056-.14c2.524-.37.55-3.69-.985-1.716z"></path><path id="_40340632" class="fil5" d="m86.19 38.342.914.074c.179-.797.174-.974-.013-1.776-.555-1.156-1.988-1.332-2.121.136l-.099.024c-.909-1.337-2.463-.248-1.8 1.16.713-.082 1.119-.144 1.75-.469.263.416.434.43.913.506l.272.222.185.123z"></path><path id="_40339936" class="fil5" d="m84.39 38.404 1.591.863.012-.333-.357-.333-.592-.493-.58-.074z"></path><path id="_40339008" class="fil4" d="M89.402 39.542c.242-.427.458-.732.76-1.115-.55.255-.744.273-1.327.3.312.29.402.418.567.815z"></path><path id="_40338312" class="fil5" d="M122.551 36.485c.558-.814 1.438-.598 1.743.045l.15-.03c-.323-1.124 2.523-1.192 2.126 1.296l-.023.026c-.263.585-2.02-.231-3.062-.594.763.545 1.075.871 1.528 1.77l.036.739c-2.057.808-3.658-1.609-1.696-1.7l.024-.098c-.671.077-1.287-.56-.827-1.45v-.002l.001-.002z"></path><path id="_40337616" class="fil5" d="m124.646 38.116 1.054.572.008-.22-.238-.221-.39-.327-.385-.05z"></path><path id="_40336920" class="fil5" d="m107.613 43.144 2.071 1.234 2.07 1.235-2.07 1.234-2.071 1.235-2.071-1.235-2.071-1.234 2.071-1.235 2.071-1.234zm0 .61 1.56.93 1.558.929-1.559.929-1.559.93-1.559-.93-1.56-.93 1.56-.928 1.559-.93z"></path><path id="_40335808" class="fil5" d="M105.687 47.54c-5.872.162-10.915 1-13.762 2.183l.444-.384 2.083-1.797-2.093-1.48-.537-.38c2.891-1.232 8.151-2.099 14.264-2.234l-1.053.627-2.58 1.538 2.58 1.537.654.39zm-9.39-2.625 3.196-.372a1.52 1.52 0 0 1 1.682 1.33 1.52 1.52 0 0 1-1.33 1.682l-3.197.372a1.52 1.52 0 0 1-1.682-1.33 1.521 1.521 0 0 1 1.33-1.682z"></path><path id="_40334296" class="fil5" d="M109.129 43.441c6.803.122 12.593 1.15 15.306 2.586l-1.221.482-2.313.913 1.653 1.912c-3.005-.994-7.675-1.676-13.002-1.801l.64-.383 2.58-1.537-2.58-1.538-1.063-.634zm9.23 1.43-3.196-.373a1.52 1.52 0 0 0-1.681 1.331 1.52 1.52 0 0 0 1.33 1.681l3.197.373a1.52 1.52 0 0 0 1.682-1.331 1.52 1.52 0 0 0-1.331-1.682z"></path><path id="_40333600" class="fil5" d="m124.737 46.54-.309.122-2.314.913 1.73 2.001.215.249.15-.722-1.162-1.344 1.567-.62z"></path><path id="_40332904" class="fil5" d="m90.877 45.772.718.507 1.859 1.315-1.85 1.596-.685.59-.01-.936 1.45-1.25-1.474-1.042z"></path><path id="_40323336" class="fil5" d="M108.526 42.199c.032.06.064.12.095.172a.694.694 0 0 0 .433.312c-.281.059-.623.08-.885-.046-.126-.054-.23-.158-.354-.402a3.429 3.429 0 0 0-.079-.155.88.88 0 0 0-.47-.312c.562-.088.964-.119 1.26.43zm-.28-.408c.178-.03.358-.058.617-.042a.955.955 0 0 1 .636.461c.031.061.062.12.092.172a.644.644 0 0 0 .446.345c-.549.062-1.062.046-1.323-.526a3.642 3.642 0 0 0-.095-.172.807.807 0 0 0-.374-.239zm.88.013c.73-.152 1.126-.039 1.518.65a.67.67 0 0 0 .385.28c-.573.14-1.068.045-1.348-.521a3.666 3.666 0 0 0-.092-.173c-.174-.148-.25-.215-.463-.236zm1.013.019a2.16 2.16 0 0 1 .568-.028c.283.048.53.174.722.515.032.06.062.12.092.172.096.171.212.27.338.326-.313.057-.501.022-.777-.1-.126-.054-.231-.16-.36-.407-.026-.056-.051-.11-.076-.158a.966.966 0 0 0-.507-.32zm1.019.024c.646-.096 1.078.066 1.375.703.08.175.18.27.29.321a1.449 1.449 0 0 1-.787-.097c-.148-.075-.27-.197-.425-.462-.031-.06-.062-.12-.092-.172a.793.793 0 0 0-.361-.293zm.951.052c.662-.03 1.086-.025 1.404.727.122.181.222.277.318.327-.29.004-.683.031-.928-.151-.118-.101-.164-.158-.3-.408h.001a3.59 3.59 0 0 0-.07-.162.946.946 0 0 0-.425-.333zm1 .083c.722-.066 1.07.127 1.31.733a.68.68 0 0 0 .372.297c-.737.05-.93.006-1.21-.546a4.014 4.014 0 0 0-.066-.165.982.982 0 0 0-.406-.32zm.868.06c.67-.028 1.114.075 1.383.77a.712.712 0 0 0 .353.326c-.3.021-.612-.019-.883-.153-.12-.06-.215-.168-.315-.41a3.29 3.29 0 0 0-.063-.162.87.87 0 0 0-.475-.37zm.922.102c.66-.028 1.12.074 1.356.772.104.201.228.302.366.353-.308.01-.643-.03-.914-.188-.101-.06-.181-.167-.266-.41a3.28 3.28 0 0 0-.054-.161c-.157-.2-.311-.307-.488-.365zm.97.144c.662-.067 1.113.108 1.344.78.078.18.166.274.27.33a1.765 1.765 0 0 1-.64-.089c-.093-.045-.166-.075-.24-.123-.102-.06-.182-.167-.267-.41a3.848 3.848 0 0 0-.053-.162.837.837 0 0 0-.413-.326zm.909.091c.61-.01.96.139 1.133.797.09.19.187.284.303.337-.217.005-.489-.023-.674-.15-.097-.067-.169-.18-.236-.428a3.689 3.689 0 0 0-.042-.165c-.146-.213-.3-.327-.484-.39zm.74.1c.638.007.974.116 1.147.817.087.212.188.299.312.343-.242.01-.542-.05-.739-.169-.097-.067-.169-.18-.236-.428a3.78 3.78 0 0 0-.041-.165c-.125-.222-.268-.337-.442-.398zm.812.132c.175.015.323.028.493.073.422.086.389.539.46.709.124.223.308.338.52.41-.254-.013-.616-.054-.832-.212-.09-.067-.158-.18-.22-.429a3.773 3.773 0 0 0-.04-.165c-.108-.208-.232-.322-.381-.386zm-10.224.08c-.284.038-.6.105-.92-.067-.124-.047-.23-.145-.353-.376a3.06 3.06 0 0 0-.079-.155.864.864 0 0 0-.526-.311c.2-.021.31-.057.602-.062.46.028.653.243.904.664a.533.533 0 0 0 .372.308zm-1.023.003c-.29.043-.514.04-.796-.042-.132-.05-.242-.152-.372-.395-.028-.058-.055-.114-.083-.163a.843.843 0 0 0-.445-.29c.616-.063 1.035-.05 1.365.592a.54.54 0 0 0 .331.298zm-.931.015c-.289.027-.466.047-.75-.041-.133-.048-.244-.148-.376-.384a3.238 3.238 0 0 0-.084-.158.89.89 0 0 0-.461-.285c.22-.035.249-.044.47-.046.367.037.648.2.879.618a.566.566 0 0 0 .322.296zm-.847.024c-.277.024-.525.065-.8-.017-.137-.05-.252-.153-.387-.396-.03-.057-.058-.113-.087-.162a.843.843 0 0 0-.443-.27c.159-.012.26-.037.478-.035.403.018.636.204.874.582a.55.55 0 0 0 .365.298zm-.899.036c-.292.033-.525.084-.815-.006-.138-.048-.252-.148-.388-.384a3.374 3.374 0 0 0-.086-.158.84.84 0 0 0-.48-.27c.181-.035.223-.052.45-.067.477.033.687.192.942.593a.54.54 0 0 0 .377.292zm-.9.049c-.365.022-.568.08-.85-.015-.143-.048-.263-.148-.404-.385-.03-.055-.06-.11-.09-.157a.766.766 0 0 0-.43-.236c.16-.014.32-.028.48-.04.38.016.668.161.902.546.102.18.24.26.391.287zm-.78.052c-.336.044-.632.117-.968.013-.135-.048-.248-.148-.381-.384a3.458 3.458 0 0 0-.085-.158.714.714 0 0 0-.404-.236c.555-.08.998-.097 1.272.465.141.24.348.3.567.3zm-.97.078c-.306.052-.532.107-.84.029-.142-.046-.26-.141-.4-.366a2.907 2.907 0 0 0-.09-.15.788.788 0 0 0-.603-.236c.6-.102 1.079-.2 1.467.426a.538.538 0 0 0 .466.297zm-.895.085c-.303.047-.532.082-.843.04-.142-.046-.26-.141-.4-.366a2.999 2.999 0 0 0-.09-.15.745.745 0 0 0-.492-.2c.472-.137 1.036-.228 1.388.399a.562.562 0 0 0 .437.277zm-.863.078c-.259.052-.598.12-.856.065-.155-.038-.29-.13-.457-.36-.037-.054-.072-.107-.107-.153a.829.829 0 0 0-.454-.204c.53-.193 1.074-.148 1.402.393.124.181.29.247.472.26zm-.894.13c-.319.074-.573.146-.878.081-.162-.04-.302-.135-.476-.374a2.926 2.926 0 0 0-.112-.16.843.843 0 0 0-.389-.186l.35-.074c.413-.039.737.071 1 .45a.603.603 0 0 0 .505.264zm-.92.128c-.51.106-.985.301-1.382-.246a3.443 3.443 0 0 0-.116-.157c-.081-.052-.16-.1-.246-.126a.92.92 0 0 0-.325-.025c.343-.1.74-.247 1.096-.11.172.068.315.213.448.412.156.17.334.238.525.252zm-.979.162c-.32.07-.597.151-.913.134-.192-.037-.343-.126-.506-.349a3.51 3.51 0 0 0-.131-.144.957.957 0 0 0-.52-.147c.537-.181.939-.367 1.465.112.04.056.078.11.116.157a.75.75 0 0 0 .49.237zm-1.018.194c-.41.105-.497.17-.884.127-.197-.03-.356-.113-.532-.33a3.034 3.034 0 0 0-.137-.139.973.973 0 0 0-.439-.129l.401-.101a2.305 2.305 0 0 0-.055.024c.387-.124.71-.116 1.046.175.045.05.09.1.132.143a.71.71 0 0 0 .468.23zm-.9.19c-.168.039-.335.077-.5.117-.163.01-.3.024-.424.018-.197-.01-.358-.076-.543-.27-.049-.047-.096-.093-.142-.133a.96.96 0 0 0-.495-.11c.282-.118.432-.155.677-.194.244-.028.473.03.713.222.047.05.093.098.137.139.184.178.38.225.578.212zm-1.01.244c-.233.06-.46.12-.682.184-.306.008-.487-.047-.77-.245a5.139 5.139 0 0 0-.213-.13.73.73 0 0 0-.427-.107c.47-.208.962-.424 1.44-.03.048.048.096.094.141.134a.711.711 0 0 0 .511.194zm-.996.274c-.821.272-.903.19-1.556-.131a1.075 1.075 0 0 0-.573-.016c.427-.325.812-.48 1.441-.074.078.057.146.093.213.13a.761.761 0 0 0 .475.091zm-.815.236-.288.151c-.785.324-1.119-.39-1.862-.16 1.15-.777 1.259.075 2.15.01zm-.779.317-.45.162c-.101.03-.192.058-.278.071-.2.032-.375.008-.6-.137a4.231 4.231 0 0 0-.17-.09 1.008 1.008 0 0 0-.45-.01c.586-.366.739-.287 1.384-.032.212.066.369.075.564.036zm-.753.276a1.6 1.6 0 0 1-.488.246c-.126.035-.264.047-.527-.023-.242-.153-.315-.213-.405-.218v-.156c.286-.187.584.007.83.136.208.06.4.056.59.015zm-.608.307a19.65 19.65 0 0 0-.36.192c-.056.02-.108.038-.16.05a.777.777 0 0 1-.292.02v-.483c.137.114.347.341.812.221zm-.677.38-.135.085v-.065a.747.747 0 0 0 .135-.02zm29.39-3.208c.224.043.445.087.661.132.205.074.35.216.445.531.135.31.265.493.48.6-.247.005-.564-.1-.855-.264-.177-.102-.298-.232-.386-.491a3.692 3.692 0 0 0-.067-.187.531.531 0 0 0-.277-.321zm.952.212c.706.107.87.164 1.149.707.16.295.305.472.53.575-.436-.045-.625-.032-.942-.268-.158-.114-.261-.253-.318-.52a3.988 3.988 0 0 0-.098-.19 1.095 1.095 0 0 0-.321-.304zm.864.23c.8.02 1.07.175 1.268.765.11.262.216.437.366.558-.443-.112-.369-.066-.743-.27-.165-.12-.275-.26-.34-.533-.051-.065-.094-.136-.133-.19a1.316 1.316 0 0 0-.418-.33zm1.065.237c.576.134 1.12.181 1.2.795.1.312.206.505.397.633-.333-.057-.541-.112-.817-.295-.156-.128-.258-.277-.311-.562-.03-.064-.059-.126-.088-.182a1.18 1.18 0 0 0-.38-.389zm1.151.347c.533.11.916.231 1.002.845.087.264.178.445.313.576-.37-.095-.494-.121-.718-.337-.153-.135-.248-.287-.288-.566a3.39 3.39 0 0 0-.04-.19 1.072 1.072 0 0 0-.269-.328zm.884.362c.218.003.37.046.545.124.332.183.436.35.525.778.109.267.213.456.363.603-.305-.082-.42-.114-.71-.27-.17-.173-.28-.356-.344-.689a3.503 3.503 0 0 0-.045-.19 1.077 1.077 0 0 0-.334-.356zm.955.385c.328.153.7.28.814.702.052.236.119.376.262.478v.322a8.85 8.85 0 0 0-.133-.058c-.126-.083-.225-.13-.324-.217-.144-.16-.23-.328-.25-.623a3.065 3.065 0 0 0-.043-.186 1.387 1.387 0 0 0-.326-.418zm.854.437c.076.046.15.092.222.138v.453a.522.522 0 0 1-.093-.267 2.12 2.12 0 0 0-.016-.124.789.789 0 0 0-.113-.2z"></path><path id="_40322288" class="fil5" d="M106.116 48.132c.538-.07 1.124-.106 1.456.204.09.112.163.239.23.36.048.08.096.159.143.227.236.203.421.29.604.325-.83.18-1.14.112-1.708-.544a4.646 4.646 0 0 0-.143-.226c-.192-.21-.309-.316-.582-.346z"></path><path id="_134548024" class="fil5" d="M104.959 48.174c.504-.08.96-.194 1.376.17.09.111.162.238.23.36.048.08.096.158.142.226.225.193.404.284.579.325-.807.16-1.123.118-1.69-.543h.001a4.925 4.925 0 0 0-.143-.226c-.173-.174-.287-.274-.495-.312z"></path><path id="_40275840" class="fil5" d="M103.691 48.206c.515-.084.994-.206 1.399.146.09.111.162.239.23.36.048.08.095.158.143.226.238.196.426.287.609.327-.852.218-1.283.171-1.734-.512a4.508 4.508 0 0 0-.143-.227c-.179-.175-.297-.276-.504-.32z"></path><path id="_40274736" class="fil5" d="M102.301 48.272c.37-.09.771-.174 1.204-.061.13.04.21.094.326.181.09.112.163.239.23.36.048.08.096.159.143.227.217.174.392.265.56.312-.425.118-.698.106-1.118.034-.281-.11-.407-.326-.572-.516a4.44 4.44 0 0 0-.132-.21c-.2-.22-.312-.315-.641-.327z"></path><path id="_40091600" class="fil5" d="M101.01 48.358a3.135 3.135 0 0 1 1.18-.079.859.859 0 0 1 .415.196c.084.103.15.22.213.334.044.074.089.146.132.209.215.186.385.268.552.303-.34.097-.754.153-1.187.054-.299-.099-.422-.317-.588-.507a4.438 4.438 0 0 0-.126-.2c-.186-.205-.292-.297-.591-.31z"></path><path id="_40091400" class="fil5" d="M99.834 48.455c.343-.079.694-.14 1.065-.089a.816.816 0 0 1 .381.184c.08.098.143.21.203.318.042.07.084.139.126.199.218.215.387.29.562.314a2.637 2.637 0 0 1-1.093.054c-.29-.094-.41-.305-.57-.49a2.778 2.778 0 0 0-.121-.192c-.176-.193-.277-.282-.553-.298z"></path><path id="_40091200" class="fil5" d="M98.644 48.574c.346-.077.702-.148 1.08-.11a.788.788 0 0 1 .354.176c.077.094.138.202.195.305.041.069.081.135.121.193.217.213.383.283.557.304-.347.074-.687.11-1.02.063-.283-.087-.397-.29-.55-.466a3.842 3.842 0 0 0-.114-.181c-.186-.205-.284-.286-.623-.284z"></path><path id="_40090096" class="fil5" d="M97.676 48.688c.302-.077.611-.148.928-.11.176.034.25.08.371.172.073.09.13.191.184.289.039.064.077.126.115.18.221.219.386.278.566.292-.34.058-.671.11-.995.073-.266-.086-.375-.278-.52-.447a3.587 3.587 0 0 0-.112-.175c-.167-.184-.26-.265-.537-.274z"></path><path id="_40088992" class="fil5" d="M96.684 48.824c.293-.083.594-.173.918-.126.15.032.218.076.33.16.07.086.125.185.177.28.038.061.075.122.111.174.205.202.36.264.526.28-.314.063-.623.114-.947.083-.25-.082-.354-.265-.492-.424a3.383 3.383 0 0 0-.105-.166c-.16-.177-.25-.253-.518-.26z"></path><path id="_40087888" class="fil5" d="M95.766 48.97c.258-.082.522-.17.855-.137.142.03.207.074.313.153.066.082.12.176.169.265.035.06.07.117.105.167.196.192.344.25.501.266-.318.079-.626.154-.938.097-.239-.078-.338-.253-.47-.405a3.519 3.519 0 0 0-.1-.16c-.142-.155-.225-.229-.435-.246z"></path><path id="_40411104" class="fil5" d="M94.792 49.152c.272-.098.55-.217.89-.167.11.028.171.068.262.137.064.078.114.168.162.254.034.056.067.111.1.159.19.187.333.241.487.255-.319.082-.623.15-.904.11-.21-.074-.3-.231-.419-.369-.032-.052-.063-.103-.093-.148-.148-.162-.227-.228-.485-.23z"></path><path id="_40765400" class="fil5" d="M94.013 49.323c.21-.086.407-.2.743-.164a.61.61 0 0 1 .283.137c.06.073.106.156.15.235.032.052.063.103.093.148.165.162.292.216.424.233-.277.078-.53.19-.837.123-.2-.072-.287-.222-.4-.354-.03-.05-.06-.099-.09-.141-.12-.133-.194-.199-.366-.217z"></path><path id="_39960840" class="fil5" d="M93.255 49.519c.325-.118.592-.292.896-.063.057.07.102.15.144.225.03.05.06.1.09.142.159.157.281.209.41.224-.213.083-.443.155-.712.127-.182-.067-.26-.204-.365-.324a2.46 2.46 0 0 0-.082-.13c-.12-.132-.189-.192-.38-.202z"></path><path id="_41202648" class="fil5" d="M92.572 49.731c.194-.103.398-.232.64-.2a.54.54 0 0 1 .216.113c.052.063.093.136.131.206l.082.13c.148.145.26.192.38.206-.185.073-.33.164-.633.136-.174-.058-.248-.183-.346-.293-.025-.04-.05-.081-.075-.116-.12-.128-.184-.18-.395-.182z"></path><path id="_40173904" class="fil5" d="M91.98 49.96c.14-.106.285-.222.572-.222.1.021.147.051.222.106.048.057.086.123.122.185.025.041.05.081.075.116.147.141.257.179.376.187-.17.08-.306.178-.546.147-.178-.043-.258-.161-.36-.262a2.328 2.328 0 0 0-.078-.106c-.121-.115-.186-.161-.384-.151z"></path><path id="_39898736" class="fil5" d="M91.43 50.242c.146-.121.313-.286.53-.273.094.014.14.04.215.087.049.052.089.112.127.17.026.037.053.074.078.106.16.134.27.158.393.156-.158.075-.266.168-.486.174-.173-.025-.264-.13-.375-.217a2.46 2.46 0 0 0-.09-.096c-.133-.099-.202-.138-.392-.107z"></path><path id="_39328672" class="fil5" d="M91.41 50.254a.474.474 0 0 1 .219.062c.055.046.101.101.145.154.031.034.062.068.091.096.162.108.271.125.385.113-.12.076-.21.164-.33.18-.68.1-1.133-.471-.51-.605z"></path><path id="_41153448" class="fil5" d="M91.707 51.245v-.001z"></path><path id="_40270992" class="fil5" d="M122.969 49.78c.234.044.454.082.644.178.44.454.139.803.027.764-.222-.081-.245-.148-.226-.432a2.14 2.14 0 0 0-.03-.142.783.783 0 0 0-.415-.368z"></path><path id="_40269960" class="fil5" d="M122.103 49.551c.551.09.932.093 1.022.656.042.216.103.355.235.457-.23-.028-.357-.026-.634-.184-.161-.176-.124-.379-.22-.58a.76.76 0 0 0-.403-.349z"></path><path id="_40270464" class="fil5" d="M121.248 49.298c.485.074.951.104 1.123.688.072.244.153.394.3.498a1.41 1.41 0 0 1-.596-.16c-.068-.039-.127-.074-.178-.102a.627.627 0 0 1-.223-.423 2.317 2.317 0 0 0-.028-.14.969.969 0 0 0-.398-.36z"></path><path id="_41173848" class="fil5" d="M120.043 49.078c.566-.068 1.261.032 1.435.667.112.267.219.424.41.534-.752-.058-.898.015-1.402-.771a5.766 5.766 0 0 0-.142-.24 2.676 2.676 0 0 0-.301-.19z"></path><path id="_40093016" class="fil5" d="M118.682 48.828c.347.003.813-.07 1.3.298.089.118.16.253.227.382.048.085.096.168.142.24.188.162.345.256.492.31-.32.007-.664-.002-1.051-.14-.294-.127-.427-.371-.602-.586h.001a5.53 5.53 0 0 0-.142-.24 1.952 1.952 0 0 0-.367-.264z"></path><path id="_41174456" class="fil5" d="M117.329 48.656c.373-.003.735-.012 1.087.12.1.04.173.094.272.173.09.119.161.253.228.383.048.085.095.167.142.24.185.152.34.247.485.307-.32-.002-.652-.006-.999-.114-.36-.118-.509-.38-.707-.61a5.625 5.625 0 0 0-.152-.24 1.498 1.498 0 0 0-.356-.259z"></path><path id="_39333616" class="fil5" d="M115.843 48.491c.585-.079 1.09-.132 1.456.282.096.118.172.253.243.382.052.085.102.168.152.24.21.162.384.248.548.29-.89.055-1.144.197-1.779-.65a5.687 5.687 0 0 0-.151-.24c-.174-.149-.3-.248-.469-.304z"></path><path id="_40093488" class="fil5" d="M114.355 48.353c.59-.082 1.205-.126 1.57.3.097.118.173.253.244.382a4.4 4.4 0 0 0 .152.24c.222.177.404.277.575.336-.387.052-.784.01-1.192-.095-.355-.119-.503-.38-.7-.607a5.634 5.634 0 0 0-.152-.24.858.858 0 0 0-.497-.316z"></path><path id="_41174280" class="fil5" d="M112.895 48.268c.556-.082 1.21-.108 1.57.259.096.118.172.252.244.382.051.085.102.167.151.24.227.2.41.299.587.347-.422.06-.852.105-1.316-.044-.328-.128-.455-.399-.628-.637a5.334 5.334 0 0 0-.152-.24c-.168-.152-.29-.251-.456-.307z"></path><path id="_40092808" class="fil5" d="M111.345 48.186c.577-.065 1.155-.154 1.62.247.096.118.172.253.244.383.051.084.102.167.151.24.217.212.392.31.564.355-.39.054-.767.036-1.135-.03-.333-.125-.472-.38-.658-.605a4.514 4.514 0 0 0-.146-.232c-.206-.227-.328-.335-.64-.358z"></path><path id="_40270328" class="fil5" d="M110.038 48.146c.705-.084 1.085-.17 1.575.26.093.115.166.245.235.37.05.082.099.161.146.231.209.205.377.3.543.343-.343.029-.694.056-1.137-.037-.35-.114-.495-.369-.688-.59a4.999 4.999 0 0 0-.146-.232c-.18-.198-.295-.305-.528-.345z"></path><path id="_41337272" class="fil5" d="M108.64 48.13c.548-.095 1.177-.185 1.553.223.092.114.166.244.235.37.05.081.098.161.146.23.225.222.403.315.582.353-.366.064-.696.097-1.151.002-.338-.126-.479-.385-.667-.612-.05-.082-.098-.162-.146-.232-.193-.188-.318-.293-.552-.334z"></path><path id="_40556392" class="fil5" d="M108.4 48.102c.182.05.275.113.419.225.093.114.166.244.235.369.05.082.099.162.147.231.22.217.397.311.573.35-.344.042-.697.09-1.046-.012-.327-.114-.465-.356-.649-.568a4.277 4.277 0 0 0-.143-.226c-.206-.227-.325-.331-.644-.351.36-.012.673-.097 1.108-.019z"></path><path id="_39335680" class="fil4" d="M107.627 39.73c.513.766.793 1.067 1.521 1.628-1.133-.116-1.934-.123-3.07.03a8.933 8.933 0 0 0 1.549-1.657z"></path><path id="_40463392" class="fil4" d="M117.341 40.65c-.654.548-1.1.744-1.885 1.081 1.082.147 2.135.301 3.156.465-.587-.562-.876-.856-1.271-1.546z"></path><path id="_38600144" class="fil4" d="M97.982 40.917c.46.35.81.544 1.336.787-.776.114-1.532.233-2.264.357.403-.398.636-.66.928-1.143z"></path><path id="_40423128" class="fil5" d="M128.261 38.21c-.373-.408-1.182-.28-1.8.285-.619.565-.818 1.359-.445 1.767.374.409 1.182.28 1.8-.284.619-.565.818-1.36.445-1.768z"></path><path id="_40550328" class="fil5" d="m129.541 36.333-.166.431.008-.202c.166-1.088-2.16-1.43-2.092 1.087.85.404 1.845.358 2.64-.211-.705.705-.8.91-1.19 1.746.691 1.081 2.981-.271 1.729-1.194l-.05-.127c2.25-.328.49-3.29-.879-1.53z"></path><path id="_40164528" class="fil5" d="M128.717 38.562c.145-.255.274-.438.455-.667-.33.153-.445.164-.793.18.185.173.24.25.338.487z"></path><path id="_39911456" class="fil4" d="m89.11 41.8 1.224 2.048c.978-.334.978-.354 2.186-.677-1.251-.148-2.393-.622-3.41-1.37z"></path><path id="_40174784" class="fil4" d="m126.555 41.487-1.087 2.53c-1.083-.468-1.083-.488-2.416-.97 1.276-.213 2.449-.747 3.503-1.56z"></path><path id="_40174496" class="fil4" d="m94.504 40.592-.665-.847c-.38.172-.733.32-1.128.45-.061.228-.171.368-.443.496l.03.29c.909.083 1.71.01 2.206-.39z"></path><path id="_40993312" class="fil4" d="M112.342 18.563a67.073 67.073 0 0 0-2.536 10.496l.134.068.182.133.157.154.245.355.163.399.088.432.012.458-.046.326c.205.045.412.096.63.155.86-4.486 2.2-8.944 4.07-13.14-.98.141-2.018.199-3.099.164z"></path><path id="_41206224" class="fil4" d="M102.798 18.782a66.37 66.37 0 0 1 2.48 10.18c-.073.02-.145.045-.208.064l-.207.108-.182.136-.157.157-.243.359-.16.403-.085.437-.007.463.072.47c-.376.068-.756.146-1.159.237a58.375 58.375 0 0 0-3.227-13.33c.972.194 2.005.303 3.083.316z"></path><path id="_40161520" class="fil4" d="m118.143 45.185-2.765-.294a1.204 1.204 0 0 0-1.33 1.055c-.07.65.416 1.24 1.078 1.311l2.765.295a1.204 1.204 0 0 0 1.33-1.055 1.204 1.204 0 0 0-1.078-1.312z"></path><path id="_41205280" class="fil4" d="m96.625 45.218 2.765-.288a1.204 1.204 0 0 1 1.328 1.058 1.204 1.204 0 0 1-1.082 1.309l-2.765.288a1.204 1.204 0 0 1-1.328-1.058 1.205 1.205 0 0 1 1.082-1.309z"></path><path id="_40765256" class="fil4" d="m109.962 39.005.197-1.25c-.389-.247-.619-.417-.934-.752l-.369.238c.179.864.502 1.19 1.106 1.764z"></path><path id="_41873384" class="fil4" d="m104.187 39.462-.198-1.136c.813-.19 1.257-.46 1.854-1.333l.423.27c-.347 1.112-.96 1.75-2.079 2.199z"></path><path id="_40347384" fill="#fff" d="M.005 58.657h215.162v25.262H.005z"></path></g></g></svg>