<svg xmlns="http://www.w3.org/2000/svg" width="1200" height="800" viewBox="0 0 900 600"><defs><style>.fil2{fill:#ae2822}</style></defs><path fill="#0065aa" d="M0 0h900v600H0z"/><path fill="#fff" d="M0 0h900v400H0z"/><path class="fil2" d="M0 0h900v200H0zm371.524 361.671c-1.532-1.17-1.388-2.708.638-6.808l1.94-3.923.127-7.245.127-7.245 3.83-9.049c2.317-5.478 4.33-9.563 5.1-10.35.701-.717 2.678-2.04 4.394-2.942 1.718-.902 3.638-2.19 4.27-2.863 1.27-1.352 1.382-2.773.7-8.883-.205-1.84-.236-3.346-.067-3.346.168 0 2.015 1.07 4.106 2.378 12.189 7.628 12.721 7.946 17.494 10.415l3.08 1.593 1.957 4.867c1.457 3.625 1.838 5.058 1.493 5.615-.763 1.23-3.727 2.639-10.253 4.871-7.274 2.487-8.289 3.061-11.67 6.606-3.118 3.27-3.606 4.188-6.149 11.583-2.786 8.1-3.219 9.015-4.944 10.475-4.175 3.53-13.803 6.06-16.173 4.251zm189.483 4.415c-.286-.743 2-4.56 3.384-5.648.616-.484 2.206-1.225 3.533-1.644 1.325-.42 2.762-1.023 3.192-1.34.767-.568 3.14-9.725 3.14-12.115 0-1.055-.121-1.092-3.623-1.092-1.993 0-4.33-.224-5.192-.5-2.864-.911-17.904-8.49-17.93-9.035-.064-1.413 2.898-9.121 4.85-12.619 6.388-11.446 7.347-13.866 8.958-22.615 1.02-5.54 1.694-7.97 2.597-9.369.49-.758.686-.658 2.251 1.154 3.317 3.836 6.244 10.293 6.244 13.773 0 .718.63 2.93 1.402 4.912.77 1.984 1.703 5.006 2.069 6.717.964 4.494 3.101 8.514 7.25 13.627 7.925 9.77 8.663 10.91 8.663 13.393 0 3.187-2.832 11.782-4.877 14.8-.92 1.359-2.303 2.813-3.074 3.232-.772.418-2.321 1.54-3.443 2.489-1.122.95-2.412 1.926-2.867 2.17-1.23.658-16.262.395-16.527-.29z"/><path class="fil2" d="M515.144 370.094c-7.907-.224-8.161-.263-10.038-1.506-1.06-.701-1.927-1.58-1.927-1.951 0-1.364 3.765-2.925 10.05-4.167 1.961-.389 4.02-.806 4.574-.926 2.43-.533 1.286-4.16-2.622-8.322-1.565-1.667-2.405-3.07-2.943-4.917-.413-1.42-.75-2.796-.75-3.054 0-1.232-2.482-3.296-4.762-3.958-4.221-1.227-5.673-3.388-7.943-11.815-.922-3.426-1.83-6.388-2.016-6.582-.5-.522-23.139-1.435-23.622-.952-.682.683-2.18 7.492-2.723 12.38-.283 2.54-.936 7.512-1.452 11.052-.818 5.617-.865 6.82-.359 9.462.318 1.664.593 4.687.61 6.718.029 3.106-.139 3.968-1.05 5.435-1.946 3.135-2.21 3.17-22.222 3.006-16.415-.135-19.384-.33-19.384-1.27 0-.19.73-1.302 1.623-2.472 1.756-2.3 2.891-2.946 7.841-4.46 1.779-.545 3.743-1.373 4.363-1.84 1.044-.789 1.082-.95.507-2.165-.343-.721-1.594-3.492-2.782-6.158-1.187-2.666-4.21-8.376-6.718-12.692-5.873-10.104-5.5-9.342-8.992-18.32l-2.996-7.706-2.078-1.059c-4.27-2.177-13.731-7.81-18.46-10.989-4.195-2.82-10.792-6.283-13.055-6.853-1.168-.294-2.929-.535-3.914-.535-1.852 0-2.59-.52-11.267-7.96-1.406-1.206-2.742-2.193-2.969-2.19-.225.001-3.527-1.564-7.335-3.479-5.025-2.526-7.744-3.615-9.922-3.972-3.12-.511-11.189-.26-15.738.49-1.422.233-4.745.56-7.384.722-4.378.27-4.937.21-6.343-.675-1.887-1.19-1.43-2.059 1.32-2.498 1.01-.162 2.77-.611 3.911-.998 2.314-.786 6.696-3.372 6.696-3.951 0-.207-.468-.813-1.04-1.349-.985-.922-1.44-.966-8.894-.837-7.374.126-7.955.073-9.461-.863-1.846-1.145-4.81-4.156-5.2-5.28-.585-1.68 2.302-3.067 9.876-4.742 9.862-2.183 10.715-2.624 10.284-5.318-.22-1.375-.052-1.951.899-3.081 1.462-1.738 7.894-5.061 13.803-7.133l4.499-1.578-.343-1.615c-.898-4.242.249-7.384 2.695-7.384 1.68 0 2.778.544 5.368 2.654l1.947 1.588 10.283-.513c10.096-.504 15.862-.952 24.13-1.873 10.995-1.225 15.784-1.488 22.846-1.258 10.232.334 14.267 1.472 20.77 5.86 4.23 2.854 5.102 3.014 15.922 2.91 9.443-.089 17.132-.543 27-1.591 5.578-.593 33.7-.245 37.98.47 4.612.772 7.672 1.96 17.174 6.668 14.685 7.278 17.987 10.21 29.202 25.931 4.285 6.006 7.028 11.986 7.028 15.317v1.988l-2.96-.114c-2.629-.101-3.067.01-3.927 1-1.171 1.35-2.428 5.295-3.465 10.886-1.487 8.013-2.667 10.944-8.824 21.923-2.495 4.448-4.238 9.53-6.408 18.678-1.82 7.675-1.831 7.954-.464 11.556 3.245 8.548 3.948 10.834 4.185 13.612.402 4.708 1.005 4.486-12.752 4.681-6.473.091-15.42.061-19.882-.066z"/><path d="m475.456 40.603-84.853 84.853m0-50.912 84.853 84.853M424.544 40.603l84.853 84.853m0-50.912-84.853 84.853" fill="none" stroke="#fff" stroke-width="24"/></svg>