<svg xmlns="http://www.w3.org/2000/svg" width="450" height="300"><path fill="#fff" d="M0 0h450v300H0z"/><path fill="#07f0fa" d="M0 0h150v300H0zm300 0h150v300H300z"/><path fill="#fe0001" fill-rule="evenodd" d="M206 265c1-3 3-6 6-8 1 2 3 2 5 1 2 10 7 27 13 34 7-4 17-23 21-23 3-1 6 4 6 7 11-10 21-29 21-42 2 1 3 2 5 4 6-9 4-29 5-38 1-1 3-1 4 0-1-13-7-25-10-34-2-7 2-7 5-7-3-13-11-30-21-35-8 8-21 9-21 6s13-2 18-9c-3-4-7-7-12-10 26-19 7-64 11-83-5 5-5 11-10 16-6-11-22-15-33-37-3 12 3 17 1 25-4 1-7-1-13 1 11 11 36 18 37 47-1-1-3-3-5-3 0 8 0 24-11 24-13 1-34-24-41-14 4 2 7 5 5 9-7 1-16 6-18 13 8 1 36-5 34 3-1 6-43 16-49 20-7 4 1 13 8 17 0 11 13 8 29 14 1 6 5 18 7 20 2-2 5-3 9-4 2 5 4 11 6 17 3-3 7-8 10-9 6 4 18 13 15 16s-10-7-15-9c-2 1-7 5-10 8-3-6-6-13-9-17-2 0-6 3-7 4-4-6-7-15-9-21-2-2-5-3-7-5-5 10-6 33-1 46 1-2 3-3 6-3-2 12-2 23 1 31 1-2 4-5 7-6-1 13 3 27 7 34zm1-139c6-1 10-1 13 0 6 2 4-5-2-5-4 0-7 1-11 5z"/></svg>