<svg xmlns="http://www.w3.org/2000/svg" width="900" height="600" xmlns:cgf="https://coding.garden/flags"><metadata id="cgf-metadata">

<cgf:flag>
  <cgf:name></cgf:name>
  <cgf:route>ru/len</cgf:route>
  <cgf:aspect-ratio>1.5</cgf:aspect-ratio>
</cgf:flag>

</metadata><path fill="#fff" d="M0 0h900v600H0z"></path><path d="M0 400q90 45 180 0 90 45 180 0 90 45 180 0 90 45 180 0 90 45 180 0v200H0V400z" fill="#0039a6"></path><path d="M900 600V490q-90 45-180 0-90 45-180 0-90 45-180 0-90 45-180 0-90 45-180 0v110h900z" fill="#fff"></path><path d="M900 600V500q-90 45-180 0-90 45-180 0-90 45-180 0-90 45-180 0-90 45-180 0v100h900z" fill="#d52b1e"></path><path d="M550 98.2v172.43c0 21-14.08 36.36-33.45 36.36h-43.69c-14.3 0-21.55 11-22.86 19.81-1.31-8.8-8.56-19.8-22.93-19.8h-43.62c-19.37 0-33.45-15.33-33.45-36.37V98.2h200z" fill="#149adb"></path><path fill="#d52b1e" d="M550 139.64H350V98.2h200v41.44z"></path><path fill="#fff" stroke="#000" stroke-linecap="round" stroke-miterlimit="22.93" stroke-width="1.14" d="M416.69 152.12h-33.38v-12.48h33.38v12.48zm33.31 0h-33.31v-12.48H450v12.48zm33.31 0H450v-12.48h33.31v12.48zm33.31 0h-33.31v-12.48h33.31v12.48zm33.38 0h-33.38v-12.48H550v12.48zm-166.69 0H350v-12.48h33.31v12.48zm50-12.48H400v-12.55h33.31v12.55zm33.38 0h-33.38v-12.55h33.38v12.55zm33.31 0h-33.31v-12.55H500v12.55zm33.31 0H500v-12.55h33.31v12.55zm16.69 0h-16.69v-12.55H550v12.55zm-183.31 0H350v-12.55h16.69v12.55zm8.27-12.55h-16.61v-12.48h16.61v12.48z"></path><path fill="#fff" stroke="#000" stroke-linecap="round" stroke-miterlimit="22.93" stroke-width="1.14" d="M400 139.64h-33.31v-12.55H400v12.55z"></path><path fill="#fff" stroke="#000" stroke-linecap="round" stroke-miterlimit="22.93" stroke-width="1.14" d="M408.35 127.09h-16.7v-12.48h16.7v12.48zm33.3 0h-16.69v-12.48h16.69v12.48zm33.31 0h-16.61v-12.48h16.61v12.48zm33.39 0h-16.7v-12.48h16.7v12.48zm33.3 0h-16.69v-12.48h16.69v12.48z"></path><path d="M550 98.2v172.43c0 21-14.08 36.36-33.45 36.36h-43.69c-14.3 0-21.55 11-22.86 19.81-1.31-8.8-8.56-19.8-22.93-19.8h-43.62c-19.37 0-33.45-15.33-33.45-36.37V98.2h200z" fill="none" stroke="#000" stroke-linecap="round" stroke-linejoin="round" stroke-width="2"></path><path d="M375.25 170.26a10.81 10.81 0 1 1 1.89 15.17 10.84 10.84 0 0 1-1.89-15.17zm-2.39 20.61a17.68 17.68 0 1 0-3-24.82 17.68 17.68 0 0 0 3 24.82z" fill="#fff" stroke="#000" stroke-linecap="round" stroke-miterlimit="22.93" stroke-width="1.14"></path><path d="M475.25 296.83a6.56 6.56 0 0 1-2.76-4.57c4.06.29 9 2.32 17.27 1.74 11-.87 13.21-4.35 18.8-8.49 4-2.9 8.2-2.83 12-1.67a12.63 12.63 0 0 1-1.31-12c2.61-6.46 5.52-9.43 3.63-20.32-1.38-8.2-4.57-12.48-5.81-16.4a7 7 0 0 1 5.08 1.6c-.73-2.1-6.6-10.67-11.54-13.93 1.38 3.48-.8 14.3.44 17.49 1.52-2 2.54-3.77 3.85-4.28.73 1.67 4.64 14.37.8 20.39-3.92 6.24-11.1 7-19.3 1.6-6.31-4.21-77.21-56.6-91.15-67.27a11.36 11.36 0 0 0-3.34-14.3 11.61 11.61 0 0 0-14.3 18.29 11.4 11.4 0 0 0 14.66-.22c13.79 10.89 81.71 67 87.3 72.21 7.33 6.68 8.2 13.79 3.12 19.09s-18.21 4.5-20 4.14c.15-1.38 1.6-2.76 3.19-4.72-3.41-.44-13.35 4.28-17 3.77 4.28 4 14.08 7.62 16.33 7.84zM400.51 190a7.19 7.19 0 1 1-1.63-10l.44.35a7.19 7.19 0 0 1 1.19 9.69z" fill="#fff" stroke="#000" stroke-linecap="round" stroke-miterlimit="22.93" stroke-width="1.14"></path><path d="M383.45 187.68a10.79 10.79 0 1 1 8.85-4.14 11 11 0 0 1-4.57 3.41 7.15 7.15 0 0 0 2.69 4.28 5.85 5.85 0 0 0 2 1.09 16.54 16.54 0 0 0 5.3-4.5 17.69 17.69 0 1 0-10.52 6.46 11.47 11.47 0 0 1-3.7-6.6zm38.9 20.03c-8.93 10-26.2 22.13-26.2 22.13l-3.77-5.37 21.7-24.17 21.7-24.24 5.73 3.12s-10.16 18.51-19.16 28.52z" fill="#fff" stroke="#000" stroke-linecap="round" stroke-miterlimit="22.93" stroke-width="1.14"></path><path fill="#fff" d="m431.2 181.15 7.04 3.77-7.04-3.77z"></path><path fill="none" stroke="#000" stroke-linecap="round" stroke-miterlimit="22.93" stroke-width="1.14" d="m431.2 181.15 7.04 3.77"></path><path fill="#fff" d="m429.46 183.11 7.41 3.99-7.41-3.99z"></path><path fill="none" stroke="#000" stroke-linecap="round" stroke-miterlimit="22.93" stroke-width="1.14" d="m429.46 183.11 7.41 3.99"></path><path fill="#fff" d="m427.72 185 7.84 4.28-7.84-4.28z"></path><path fill="none" stroke="#000" stroke-linecap="round" stroke-miterlimit="22.93" stroke-width="1.14" d="m427.72 185 7.84 4.28"></path><path fill="#fff" d="m396.95 219.39 4.5 6.54-4.5-6.54z"></path><path fill="none" stroke="#000" stroke-linecap="round" stroke-miterlimit="22.93" stroke-width="1.14" d="m396.95 219.39 4.5 6.54"></path><path fill="#fff" d="m398.69 217.44 4.79 6.96-4.79-6.96z"></path><path fill="none" stroke="#000" stroke-linecap="round" stroke-miterlimit="22.93" stroke-width="1.14" d="m398.69 217.43 4.79 6.97"></path><path fill="#fff" d="m400.44 215.55 5.07 7.33-5.07-7.33z"></path><path fill="none" stroke="#000" stroke-linecap="round" stroke-miterlimit="22.93" stroke-width="1.14" d="m400.44 215.55 5.08 7.33"></path><path d="m383.31 284.13 2.76-2.25-2-2.54-2.83 2.18a4.82 4.82 0 1 0 2.08 2.61z" fill="#f3d400" stroke="#000" stroke-linecap="round" stroke-linejoin="round" stroke-width="1.14"></path><path d="M526.34 196.24a15 15 0 0 0-3.41-5.66 13.39 13.39 0 0 0 4.57-2.47 15.14 15.14 0 0 0-18.72-23.8 15.49 15.49 0 0 0-3.41 3.85 16 16 0 0 0-4.72-4.64 15.16 15.16 0 1 0-7.47 27.94l-2.76 2.18-4 .73-.15 2.47-1.52 1.23a3.14 3.14 0 0 0-3.19-.07 3 3 0 0 0-.65 3l-99 77.72 4.21 5.44 99.06-77.72c1.16.58 2.39.73 3.12.07a2.73 2.73 0 0 0 .65-3l1.6-1.23 2.47.51 1.68-3.79 2.69-2.1a15.15 15.15 0 1 0 29-.65zm-11.1 14.66a10.41 10.41 0 0 1-12.56-14.56c.22-.44.44-.8.65-1.16l-2.4-3.16 3.41-2.69a5 5 0 0 0 6.6-7.4 5.14 5.14 0 0 0-7.11-.87 5.2 5.2 0 0 0-1.67 5.52l-3.41 2.69-2.47-3.12c-.44.15-.87.29-1.38.44a10.29 10.29 0 0 1-7.84-1.38 10.55 10.55 0 0 1-4.64-6.46 10.42 10.42 0 1 1 20.21-5.07l.1.42a18.4 18.4 0 0 1 .29 2.1l4.72-.15a10.42 10.42 0 1 1 8.13 10.38l-1.22 4.57c.65.22 1.31.44 2 .73a10.44 10.44 0 0 1-1.38 19.27z" fill="#f3d400"></path><path d="M526.34 196.24a15 15 0 0 0-3.41-5.66 13.39 13.39 0 0 0 4.57-2.47 15.14 15.14 0 0 0-18.72-23.8 15.49 15.49 0 0 0-3.41 3.85 16 16 0 0 0-4.72-4.64 15.16 15.16 0 1 0-7.47 27.94l-2.76 2.18-4 .73-.15 2.47-1.52 1.23a3.14 3.14 0 0 0-3.19-.07 3 3 0 0 0-.65 3l-99 77.72 4.21 5.44 99.06-77.72c1.16.58 2.39.73 3.12.07a2.73 2.73 0 0 0 .65-3l1.6-1.23 2.47.51 1.68-3.79 2.69-2.1a15.15 15.15 0 1 0 29-.65zm-11.1 14.66a10.41 10.41 0 0 1-12.56-14.56c.22-.44.44-.8.65-1.16l-2.4-3.16 3.41-2.69a5 5 0 0 0 6.6-7.4 5.14 5.14 0 0 0-7.11-.87 5.2 5.2 0 0 0-1.67 5.52l-3.41 2.69-2.47-3.12c-.44.15-.87.29-1.38.44a10.29 10.29 0 0 1-7.84-1.38 10.55 10.55 0 0 1-4.64-6.46 10.42 10.42 0 1 1 20.21-5.07l.1.42a9.81 9.81 0 0 1 .29 2.1l4.72-.15a10.42 10.42 0 1 1 8.13 10.38l-1.22 4.57c.65.22 1.31.44 2 .73a10.44 10.44 0 0 1-1.38 19.27z" fill="none" stroke="#000" stroke-linecap="round" stroke-linejoin="round" stroke-width="1.14"></path><path fill="#f3d400" stroke="#000" stroke-linecap="round" stroke-linejoin="round" stroke-width="1.14" d="m384.54 270.48 3.05 3.85 7.33-5.81-2.98-3.84-7.4 5.8z"></path><path fill="#f3d400" stroke="#000" stroke-linecap="round" stroke-linejoin="round" stroke-width="1.14" d="m397.75 258.8-2.76-.36-.29-3.63-5.66-7.19-4.13 3.27 5.29 6.75-3.99 3.12-5.3-6.75-4.13 3.19 5.29 6.82-3.99 3.05-5.29-6.75-4.14 3.27 5.66 7.18 3.41 1.16-.29 2.76 1.02.58 19.59-15.38-.29-1.09z"></path></svg>