<svg height="600" width="900" xmlns="http://www.w3.org/2000/svg" xmlns:xlink="http://www.w3.org/1999/xlink"><defs><linearGradient id="a"><stop offset="0" stop-color="#d4af38"/><stop offset=".5" stop-color="#ffd90d"/><stop offset="1" stop-color="#d4af38"/></linearGradient><linearGradient gradientTransform="translate(-1111.43 -1002.277) scale(1.32681)" gradientUnits="userSpaceOnUse" id="h" x1="479.124" x2="509.032" xlink:href="#a" y1="557.543" y2="590.984"/><linearGradient gradientTransform="translate(-745.662 -302.382) scale(1.32681)" gradientUnits="userSpaceOnUse" id="c" x1="25.719" x2="104.844" xlink:href="#b" y1="251.688" y2="373.656"/><linearGradient gradientTransform="translate(-745.662 -302.382) scale(1.32681)" gradientUnits="userSpaceOnUse" id="d" x1="39.346" x2="132.151" xlink:href="#b" y1="221.856" y2="173.998"/><linearGradient gradientTransform="translate(-745.662 -302.382) scale(1.32681)" gradientUnits="userSpaceOnUse" id="e" x1="228.877" x2="314.685" xlink:href="#a" y1="169.16" y2="227.5"/><linearGradient gradientTransform="translate(1493.606 94.745) scale(1.32681)" gradientUnits="userSpaceOnUse" id="f" x1="-759.195" x2="-751.795" xlink:href="#b" y1="108.776" y2="108.776"/><linearGradient gradientTransform="translate(-59.61 -1495.42) scale(1.32681)" gradientUnits="userSpaceOnUse" id="g" x1="-124.177" x2="-116.778" xlink:href="#b" y1="761.954" y2="761.954"/><linearGradient id="b"><stop offset="0" stop-color="silver"/><stop offset=".5" stop-color="#f7f7f7"/><stop offset="1" stop-color="silver"/></linearGradient><linearGradient gradientTransform="translate(-1111.43 -1002.277) scale(1.32681)" gradientUnits="userSpaceOnUse" id="i" x1="432.545" x2="476.113" xlink:href="#b" y1="600.504" y2="600.504"/><linearGradient gradientTransform="translate(-1111.43 -1002.277) scale(1.32681)" gradientUnits="userSpaceOnUse" id="j" x1="390.132" x2="450.86" xlink:href="#a" y1="608.509" y2="552.527"/><linearGradient gradientTransform="translate(-1113.13 -1002.277) scale(1.32681)" gradientUnits="userSpaceOnUse" id="k" x1="456.638" x2="506.183" xlink:href="#a" y1="616.69" y2="616.69"/><linearGradient gradientTransform="translate(-1113.13 -1002.277) scale(1.32681)" gradientUnits="userSpaceOnUse" id="l" x1="405.036" x2="454.58" xlink:href="#a" y1="616.568" y2="616.568"/><linearGradient gradientTransform="translate(-745.662 -204.276) scale(1.32681)" gradientUnits="userSpaceOnUse" id="m" x1="228.877" x2="314.685" xlink:href="#a" y1="169.16" y2="227.5"/><linearGradient gradientTransform="translate(-745.662 -106.17) scale(1.32681)" gradientUnits="userSpaceOnUse" id="n" x1="228.877" x2="314.685" xlink:href="#a" y1="169.16" y2="227.5"/></defs><path fill="#c42730" d="M0 0h900v600H0z"/><path d="M92.688 450C64.317 461.64 26.808 474.404 0 466.406V600h900V456.937c-31.312 9.757-63.02 18.086-103.813-6.937-44.439 17.904-86.393 29.48-112.406 0-38.4 14.422-77.067 24.961-118.093 0-38.089 15.629-76.289 27.64-115.688 0-39.364 10.64-70.024 31.134-120.781 0-34.54 16.844-89.957 29.48-115.969 0-38.4 14.422-77.415 34.86-120.563 0z" fill="#2e418a"/><path d="M94.813 534.188C65.695 546.135 26.921 559.255 0 549.905v20.844c24.291.515 52.953-9.565 75.719-18.906 43.147 34.86 82.161 14.422 120.562 0 26.013 29.48 81.429 16.843 115.969 0 50.757 31.134 81.417 10.64 120.781 0 39.4 27.64 77.6 15.629 115.688 0 41.026 24.96 79.693 14.422 118.093 0 26.013 29.48 67.967 17.904 112.407 0 48.153 29.537 83.654 12.618 120.781 1.718v-11.78c-30.626 9.456-61.816 16.862-101.688-7.595-44.439 17.905-86.393 29.48-112.406 0-38.4 14.422-77.067 24.962-118.093 0-38.089 15.63-76.289 27.64-115.688 0-39.364 10.64-70.024 31.135-120.781 0-34.54 16.844-89.957 29.48-115.969 0-38.4 14.422-77.415 34.861-120.563 0zM92.686 479C64.32 490.64 26.81 503.404 0 495.406v20.188c23.824-.088 51.49-9.868 73.594-18.938 43.147 34.86 82.161 14.422 120.562 0 26.013 29.48 81.429 16.844 115.969 0 50.757 31.135 81.417 10.64 120.781 0 39.4 27.64 77.6 15.629 115.688 0 41.026 24.961 79.693 14.422 118.093 0 26.013 29.48 67.967 17.905 112.407 0C826.17 526.76 862.093 508.603 900 497.75v-11.813c-31.312 9.757-63.02 18.086-103.813-6.937-44.439 17.904-86.393 29.48-112.406 0-38.4 14.422-77.067 24.961-118.093 0-38.089 15.629-76.289 27.64-115.688 0-39.364 10.64-70.024 31.134-120.781 0-34.54 16.844-89.957 29.48-115.969 0-38.4 14.422-77.415 34.86-120.563 0z" fill="#fff"/><path d="M240.853 49.803h-190.7l95.35 110.102 95.35-110.102z" font-family="Sans" fill="#c42730"/><path d="M147.369 286.143c1.11-1.926 2.442-3.693 4.174-5.166 3.932-3.343 9.603-5.23 17.765-5.23h62.702c4.437 0 7.18-.548 8.739-1.97 1.558-1.422 2.4-4.08 2.4-9.17v-211.7l-95.78 110.572v122.664z" font-family="Sans" fill="#183883"/><path d="M47.845 52.894v211.713c0 5.091.86 7.75 2.413 9.17 1.554 1.421 4.276 1.97 8.713 1.97h62.701c8.163 0 13.834 1.887 17.766 5.23 1.724 1.466 3.053 3.224 4.161 5.14l.013-122.65L47.845 52.893z" font-family="Sans" fill="#0093dd"/><path d="m47.845 52.894 95.767 110.572-.013 122.65a27.9 27.9 0 0 1 1.891 3.914 27.933 27.933 0 0 1 1.879-3.887V163.479l95.78-110.572v-3.104h-2.296l-95.35 110.102-95.35-110.102h-2.308v3.091z" font-family="Sans" fill="#d4af38"/><path d="M47.857 47.15 45 49.607l98.613 113.86-.017 131.098h3.773v-131.08L246 49.607l-2.855-2.457L145.5 159.902 47.857 47.15z" font-family="Sans" fill="#fff"/><path d="M45.009 46.96v217.647c0 5.403.875 9.029 3.323 11.267 2.447 2.238 5.99 2.717 10.643 2.717h62.702c7.73 0 12.605 1.732 15.922 4.552 3.317 2.82 5.192 6.854 6.525 11.786l1.367 5.07 1.367-5.07c1.333-4.932 3.208-8.966 6.525-11.786 3.317-2.82 8.192-4.552 15.922-4.552h62.702c4.653 0 8.192-.48 10.643-2.717 2.452-2.237 3.34-5.863 3.34-11.267V46.96zm2.838 2.838h195.305v214.81c0 5.09-.847 7.75-2.405 9.172-1.558 1.422-4.303 1.973-8.74 1.973h-62.702c-8.162 0-13.825 1.883-17.757 5.227-2.842 2.416-4.703 5.55-6.057 9.05-1.354-3.5-3.215-6.634-6.057-9.05-3.932-3.344-9.595-5.227-17.757-5.227H58.975c-4.437 0-7.169-.552-8.722-1.973-1.554-1.421-2.406-4.082-2.406-9.173z" font-family="Sans" fill="#d4af38"/><path d="m120.683 195.502-.415.45-1.073 10.263-8.913 3.825h8.515l-.537 5.244-9.276 3.53h8.895l-.57 5.417-10.402 3.34h10.055l-1.627 15.637-2.353 9.25h1.367l6.334-4.76 6.317 4.76h1.385l-2.302-9.25-1.679-15.637h10.055l-10.401-3.34-.571-5.417h8.913l-9.294-3.53-.536-5.244h8.532l-8.93-3.825-1.073-10.263zm0 4.43.294 2.89h-.588zm-.38 3.722h.76l.243 2.232h-1.246zm.38 2.769.692.276.295 2.735h-1.973l.294-2.735zm-1.575.623-.26 2.596h-6.316zm3.15 0 6.594 2.596h-6.334zm-2.284 3.219h1.419l-.71 1.142zm-.45.83.675 1.108-.952 1.54zm2.319 0 .277 2.648-.952-1.54zm-1.16 1.887 1.142 1.852-1.142-.225-1.142.225zm0 2.388 1.662.38.277 2.683h-3.877l.277-2.682zm-2.51.692-.259 2.371h-6.542zm5.02 0 6.801 2.371h-6.542zm-4.154 2.752h3.288l-1.644 1.783zm-.415.779 1.505 1.61-1.869 2.042zm4.119 0 .173 1.713.19 1.939-1.869-2.043zm-2.06 2.232 1.8 1.939-1.8-.38-1.8.38zm0 2.095 2.579.761.277 2.544h-5.711l.276-2.544zm-3.444 1.02-.242 2.285h-7.477zm6.888 0 7.719 2.285h-7.477zm-6.334 2.631h5.78l.277 2.717-3.167 3.531-3.167-3.548zm-.398 3.79 2.752 3.064-3.479 3.876zm6.576.052.71 6.871-3.427-3.842zm-3.27 3.635 4.136 4.62.363 3.41h-9.017l.347-3.358zm-3.704 8.86h7.372l-3.686 2.77zm-1.039.243 3.981 2.994-5.902 4.5zm9.45 0 1.92 7.494-5.9-4.5z" font-family="Sans" fill="#fff"/><path d="M-711.538 31.56v36.695l84.46 125.135h20.524v-8.873h-9.578l-66.59-98.64 15.673 5.804 60.495 92.836 5.805 8.873h12.19v-7.92h-6.386L-653.2 96.823l18.658 6.924 54.068 89.643h10.49v-6.966h-5.1l-50.75-79.443 11.568 4.27 49.962 82.139h6.759v-6.137h-6.385l-45.693-79.152V86.996L-711.538 31.56z" fill="url(#c)" transform="translate(357.798 174.593) scale(.4174)"/><path d="M101.406 221.03v-9.664l-5.402-2.85v10.51zM84.53 202.458v12.313l8.418 3.121v-10.99zm-15.507-8.185v14.749l10.35 3.837v-13.123z" fill="#cfcfcd"/><path d="M66.911 191.089v2.077l-.674-.364h-1.523v10.194l33.713 48.614h2.198l-31.602-46.797v-8.186l2.405 1.263v-2.336l9.813 5.175v9.38l27.258 42.02.97-.12-24.316-37.002 2.769 1.02-3.392-4.516v-6.698l.623.346v-2.354l8.974 4.72v10.806l22.35 34.075h1.281l-21.183-33.16 2.285.849-2.856-4.015v-5.262h.571v-1.99l5.521 2.903v7.295l19.799 33.726h.519l-19.072-33.038v-8.809z" fill="#666"/><path d="M60.802 203.082v52.232h35.254z" fill="#c1c1c1"/><path d="m-652.513-40.896 10.174-5.196h13.784l41.035-23.692s15.915-5.436 19.445 0c2.418 3.722-5.414 12.165-5.414 12.165l-44.078 25.449-20.257 35.085-17.281 9.978 10.299-28.658-24.93 13.715s-6.567 3.54-10.588 2.87c-9.891-1.648-14.719-13.154-26.219-21.025 0 0-4.972 5.359-9.298 7.958 0 0 .25-7.59 4.356-10.89l-7.372-2.495s5.613-5.772 14.576-4.523c9.123 1.27 21.455 15.361 33.816 8.19l25.994-15.077c-3.653.336-5.646-2.094-8.042-3.854z" fill="url(#d)" transform="translate(357.798 174.593) scale(.4174)"/><path d="M-432.032-79.588c25.651 3.336 30.778 9.752 46.236 17.08 7.092-.863 16.08-.315 21.277 2.848-.7 3.856-.984 8.009-4.691 9.717 7.707 7.54 15.675 14.752 23.12 22.618 1.375 1.452-1.703 2.362-3.35 2.848 4.117 2.876 8.836 5.352 11.727 9.047 18.931 1.424 24.46 7.036 24.46 7.036-9.01 1.684-20.061 8.434-20.775 21.78-2.822-1.528-8.235-9.53-16.418-24.46-2.958.885-5.265 1.786-7.455.083-7.342-5.708-15.464-10.962-24.042-15.33 0 0-2.45 4.172-3.102 8.378-.71 4.58-5.647-4.432-6.95-11.895-39.93-19.182-49.071-35.916-50.763-43.811-1.422-6.634 6.039-6.549 10.726-5.94z" fill="url(#e)" transform="translate(357.798 174.593) scale(.4174)"/><path d="M173.088 142.025a.25.25 0 0 0-.052.467c1.19.64 2.132 1.805 2.457 3.461a.25.25 0 1 0 .485-.086c-.352-1.791-1.38-3.115-2.7-3.825a.25.25 0 0 0-.19-.017zm5.367.519a.704.704 0 0 0-.692.692c0 .374.319.675.692.675a.674.674 0 0 0 .675-.675.689.689 0 0 0-.675-.692z" font-family="Sans"/><path transform="scale(-.4174 .4174) rotate(-45.673 68.038 1226.923)" fill="url(#f)" d="M486.628 165.035h9.154v148.071h-9.154z"/><path transform="rotate(-45.673 386.196 -337.527) scale(.4174)" fill="url(#g)" d="M-224.038-555.287h9.154v141.675h-9.154z"/><path d="m-481.564-256.832 39.535 40.475c1.808.484 4.775.761 5.989-1.794l-3.795-23.333-28.026-28.693z" fill="url(#h)" transform="translate(357.798 174.593) scale(.4174)"/><path d="M-533.89-215.288h50.54l7.266 19.538h-65.073z" fill="url(#i)" transform="translate(357.798 174.593) scale(.4174)"/><path d="M-550.685-242.372c.516 3.868 3.3 8.089 3.3 8.089l-6.396 6.548c.03.03-2.767-1.753-11.275-4.787-9.788-3.49-25.028 36.654-28.742 37.623-1.938-6.62 11.738-38.553 25.835-51.671 14.453-13.448 38.915-26.481 54.74-22.606-12.815 8.561-38.194 21.318-37.462 26.804z" fill="url(#j)" transform="translate(357.798 174.593) scale(.4174)"/><path d="M-499.659-193.813h50.541l7.266 19.538h-65.073z" fill="url(#k)" transform="translate(357.798 174.593) scale(.4174)"/><path d="M-568.126-193.974h50.541l7.266 19.538h-65.073z" fill="url(#l)" transform="translate(357.798 174.593) scale(.4174)"/><path d="m135.584 147.892 7.113 9.899h2.804l-9.848-9.848-.069-.051zm9.917 9.899 9.83-9.848-9.83 7.044v2.804zm0 0 9.9 9.9-7.096-9.9H145.5zm0 0-9.848 9.847 9.848-7.043v-2.804z" fill="#d4af38"/><path d="m135.593 167.7 9.908-9.908-2.804-.001zm19.816-.002-9.908-9.908-.001 2.803zm-.002-19.816-9.908 9.908h2.803zm-19.815 0 9.908 9.909v-2.804z" fill="gold"/><path d="m145.5 138.113-2.786 16.892 2.787 2.786v-19.678zm0 19.678h19.678l-16.89-2.786-2.787 2.786zm0 0v19.678l2.787-16.892-2.786-2.786zm0 0h-19.677l16.891 2.786 2.787-2.786z" fill="#d4af38"/><path d="M125.826 157.79H145.5l-2.783-2.781zm19.674 19.674v-19.673l-2.783 2.782zm19.673-19.673H145.5l2.782 2.782zM145.5 138.118v19.673l2.782-2.782z" fill="gold"/><path d="M-432.032 18.518c25.651 3.336 30.778 9.752 46.236 17.08 7.092-.863 16.08-.315 21.277 2.848-.7 3.856-.984 8.01-4.691 9.717 7.707 7.54 15.675 14.752 23.12 22.618 1.375 1.453-1.703 2.363-3.35 2.848 4.117 2.876 8.836 5.352 11.727 9.047 18.931 1.424 24.46 7.036 24.46 7.036-9.01 1.684-20.061 8.434-20.775 21.78-2.822-1.528-8.235-9.53-16.418-24.46-2.958.885-5.265 1.786-7.455.083-7.342-5.708-15.464-10.962-24.042-15.33 0 0-2.45 4.172-3.102 8.378-.71 4.581-5.647-4.432-6.95-11.895-39.93-19.182-49.071-35.916-50.763-43.81-1.422-6.635 6.039-6.55 10.726-5.94z" fill="url(#m)" transform="translate(357.798 174.593) scale(.4174)"/><path d="M173.088 182.974a.25.25 0 0 0-.052.467c1.19.64 2.132 1.806 2.457 3.462a.25.25 0 1 0 .485-.087c-.352-1.79-1.38-3.115-2.7-3.825a.25.25 0 0 0-.19-.017zm5.367.519a.704.704 0 0 0-.692.693.69.69 0 0 0 .692.675.674.674 0 0 0 .675-.675.689.689 0 0 0-.675-.693z" font-family="Sans"/><path d="M-432.032 116.624c25.651 3.336 30.778 9.753 46.236 17.08 7.092-.863 16.08-.315 21.277 2.849-.7 3.855-.984 8.008-4.691 9.717 7.707 7.539 15.675 14.75 23.12 22.617 1.375 1.453-1.703 2.363-3.35 2.848 4.117 2.876 8.836 5.352 11.727 9.047 18.931 1.424 24.46 7.036 24.46 7.036-9.01 1.684-20.061 8.434-20.775 21.78-2.822-1.527-8.235-9.53-16.418-24.46-2.958.885-5.265 1.787-7.455.084-7.342-5.709-15.464-10.963-24.042-15.33 0 0-2.45 4.171-3.102 8.377-.71 4.581-5.647-4.432-6.95-11.895-39.93-19.182-49.071-35.916-50.763-43.81-1.422-6.635 6.039-6.55 10.726-5.94z" fill="url(#n)" transform="translate(357.798 174.593) scale(.4174)"/><path d="M173.088 223.924a.25.25 0 0 0-.052.467c1.19.64 2.132 1.805 2.457 3.461a.25.25 0 1 0 .485-.086c-.352-1.791-1.38-3.115-2.7-3.825a.25.25 0 0 0-.19-.017zm5.367.519a.704.704 0 0 0-.692.692c0 .374.319.675.692.675a.674.674 0 0 0 .675-.675.689.689 0 0 0-.675-.692z" font-family="Sans"/></svg>