<svg xmlns="http://www.w3.org/2000/svg" width="900" height="600"><path fill="#fff" fill-rule="evenodd" d="M0 0h900v600H0z"/><path d="M0 0v600h92.46l20.04-20.04-17.11-17.108-14.296 14.296 5.742 5.743 8.555-8.555 5.625 5.625-14.18 14.297-17.227-17.11 20.04-20.039-20.04-19.922 17.227-17.226 14.18 14.297L95.39 540l-8.555-8.555-5.742 5.742 14.297 14.297 17.109-17.226-20.04-19.922 20.04-20.04-17.11-17.109-14.296 14.297 5.742 5.625 8.555-8.554 5.625 5.742-14.18 14.297-17.227-17.11 20.04-20.039-20.04-20.039 17.227-17.11 14.18 14.298-5.625 5.742-8.555-8.672-5.742 5.742 14.297 14.297 17.109-17.11-20.04-20.038 20.04-20.04-17.11-17.109-14.296 14.297 5.742 5.742 8.555-8.554 5.625 5.625-14.18 14.296-17.227-17.109 20.04-20.039-20.04-19.922 17.227-17.226 14.18 14.296-5.625 5.743L86.836 360l-5.742 5.742L95.39 380.04l17.109-17.227-20.04-19.921 20.04-20.04-17.11-17.109-14.296 14.297 5.742 5.625 8.555-8.555 5.625 5.743-14.18 14.296-17.227-17.109L89.65 300l-20.04-20.04 17.227-17.108 14.18 14.296-5.625 5.743-8.555-8.555-5.742 5.625 14.297 14.297 17.109-17.11-20.04-20.039 20.04-19.922-17.11-17.226-14.296 14.297L86.836 240l8.555-8.555 5.625 5.742-14.18 14.297-17.227-17.226 20.04-19.922-20.04-20.04 17.227-17.109 14.18 14.297-5.625 5.625-8.555-8.554-5.742 5.742 14.297 14.297 17.109-17.11-20.04-20.039 20.04-20.039-17.11-17.11-14.296 14.298 5.742 5.742 8.555-8.672 5.625 5.742-14.18 14.297-17.227-17.11 20.04-20.038-20.04-20.04 17.227-17.109 14.18 14.297-5.625 5.742-8.555-8.554-5.742 5.625 14.297 14.296 17.109-17.109-20.04-20.039 20.04-19.922-17.11-17.226-14.296 14.296 5.742 5.743L95.39 60l5.625 5.742-14.18 14.297-17.227-17.227 20.04-19.921-20.04-20.04L86.836 5.743l14.18 14.297-5.625 5.625-8.555-8.555-5.742 5.743L95.39 37.148 112.5 20.04 92.46 0z" fill="#a92211"/><path fill="#b17842" stroke="#b17842" stroke-width=".937" d="M463.27 122.265h85.078v5.531H463.27z"/><path d="M505.792 31.152c-4.122 3.89-7.882 8.15-11.492 12.553 4.272 3.277 7.837 6.906 11.492 10.43 3.654-3.524 7.219-7.153 11.49-10.43-3.609-4.403-7.369-8.663-11.49-12.553zM469.773 48.92c-2.624 3.472-4.45 7.313-5.987 11.298 3.525 2.221 6.87 4.734 10.14 7.339 1.854-3.972 3.55-7.906 5.89-11.878a130.382 130.382 0 0 0-10.043-6.76zm72.037 0a130.38 130.38 0 0 0-10.043 6.76c2.34 3.97 4.036 7.905 5.89 11.877 3.27-2.605 6.615-5.118 10.14-7.339-1.536-3.985-3.363-7.826-5.987-11.298zm-51.469.193c-5.254 7.42-9.1 14.168-12.746 21.63a78.276 78.276 0 0 1 9.946 11.105c1.694-4.511 4.136-8.942 6.856-13.326 1.791 1.887 3.406 3.975 5.021 6.084-4.326 6.722-7.83 13.553-10.235 20.182-3.92-6.454-8.558-12.489-14.099-18.25-3.11 7.54-5.803 15.054-7.628 22.595-5.453-10.804-11.787-21.205-19.024-31.286 6.217 1.729 9.872 3.699 13.326 6.662-.745.907-1.243 1.6-1.738 2.318l6.373 9.56c1.519-4.552 3.217-8.9 5.118-13.326-9.63-9.307-25.118-20.236-41.33-21.437 15.794 17.36 26.209 39.601 33.219 61.608-.292.094-.577.193-.87.29l.773 10.139c28.36-3.022 56.714-3.158 85.073 0l.676-10.14c-.258-.083-.514-.111-.772-.193 7.01-22.035 17.404-44.32 33.218-61.704-16.211 1.201-31.796 12.13-41.426 21.437 1.901 4.426 3.696 8.774 5.214 13.326l6.277-9.56a31.855 31.855 0 0 0-1.738-2.318c3.454-2.963 7.11-4.933 13.326-6.662-7.237 10.08-13.57 20.482-19.023 31.286-1.825-7.54-4.422-15.055-7.532-22.596-5.541 5.762-10.276 11.797-14.195 18.251-2.416-6.66-5.882-13.526-10.236-20.279a75.323 75.323 0 0 1 5.118-5.987c2.72 4.384 5.162 8.815 6.856 13.326 2.766-3.752 5.926-7.48 9.85-11.105-3.646-7.462-7.396-14.21-12.65-21.63a124.712 124.712 0 0 0-15.547 16.416c-4.504-5.727-9.63-11.288-15.45-16.416zm15.45 35.15c4.073 7.237 7.125 14.984 8.595 22.499-5.701-.376-11.431-.352-17.092 0 1.468-7.508 4.431-15.269 8.498-22.5z" fill="#d1a345" stroke="#b17842" stroke-width=".937" stroke-linejoin="round"/><path d="M530.936 118.779l8.058-2.663-7.853-3.96-8.262 2.526zm-33.799-4.507l8.672-3.687 8.672 3.687-8.672 3.414zm-16.456 4.507l-8.057-2.663 7.853-3.96 8.262 2.526z" fill="#b17842"/><path d="M548.348 123.63c2.692 1.38.586 4.475 0 4.166-5.372-2.84-23.608-4.653-42.54-4.507-18.93-.146-37.166 1.667-42.538 4.507-.586.31-2.692-2.786 0-4.165 5.408-2.771 23.608-4.653 42.539-4.507 18.931-.146 37.13 1.736 42.54 4.507zm.956-13.796c1.668.76 1.64 4.507-.205 3.691-5.256-2.324-24.359-4.243-43.29-4.097-18.931-.146-38.034 1.773-43.29 4.097-1.845.816-1.873-2.93-.205-3.69 5.23-2.384 24.564-4.244 43.495-4.098 18.931-.146 38.265 1.714 43.495 4.097z" fill="#d1a345" stroke="#b17842" stroke-width="1.875" stroke-linejoin="round"/><path d="M358.477 127.383v306.445c0 20.888 16.116 37.031 35.273 37.031h74.883c12.09 0 19.73 4.037 24.96 9.375 5.232 5.339 8.04 12.158 9.493 17.578l.469 1.641h4.453l.469-1.64c1.452-5.421 4.26-12.24 9.492-17.579 5.231-5.338 12.87-9.375 24.96-9.375h74.884c19.156 0 35.273-16.143 35.273-37.03V127.382H358.477zm5.625 5.625H647.46v300.82c0 18.019-13.649 31.406-29.649 31.406H542.93c-13.387 0-22.75 4.81-28.946 11.133-3.94 4.021-6.366 8.426-8.203 12.774-1.836-4.34-4.154-8.762-8.086-12.774-6.196-6.322-15.676-11.133-29.062-11.133H393.75c-16 0-29.648-13.387-29.648-31.406v-300.82z" style="text-indent:0;text-align:start;line-height:normal;text-transform:none;block-progression:tb;marker:none;-inkscape-font-specification:Sans" font-weight="400" color="#000" stroke-width="1.5" overflow="visible" font-family="Sans"/><path d="M500.934 201.41c1.06-2.542 3.144-4.271 6.396-3.838 1.884.252 2.609.443 3.947 1.781.789.789 1.024 3.153 1.492 3.466-1.113 2.29-5.802 2.204-7.701 1.107-1.61-.93-3.44-.467-4.134-2.515zm-15.358 98.808c-2.662 0-4.811-.818-6.837-2.291-2.458-1.788-5.325-4.296-5.69.096-.145 1.74-3.762-4.937-3.762-2.025 0 .662-.521 2.945-.193 3.472 1.507 2.41-7.34-2.648-8.197-3.28-2.211-1.624-3.157-3.968-5.112-5.979-.685-2.058-4.115-7.35-5.497-9.548-2.803-4.456-5.75-4.381-6.365-5.979-1.778-4.622-8.274-18.326-14.756-14.273-2.533 1.583-1.447-11.545-1.447-14.274 0-9.417.25-18.407 10.03-7.812 10.524 11.4 16.266 17.548 30.766 23.629 6.38 2.675 10.166-9.116 15.605-9.008 10.183 12.33 13.934 36.058 1.455 47.272z" fill="#1f1a17" fill-rule="evenodd" stroke="#1f1a17" stroke-width=".28"/><path d="M504.199 380.88c-1.05-.61-2.662-4.21-4.932-4.067l.02 14.196c.006 3.86-2.067 7.687-1.315 8.992-2.098-.864-2.999-4.478-3.58-4.401-.349.424.727 2.898 1.07 6.67.693 7.612 2.92 13.232.93 15.646-.806.98-5.15 2.227-7.642 4.31-3.644 3.043-6.931 7.005-7.68 7.341-4.333 1.943-7.857 1.929-17.638 1.929-5.203 0-12.416 2.606-14.263 4.38-.026-1.478.159-2.18.583-3.709.637-2.295 2.068-2.692 1.964-2.676-.105.015-2.965.452-5.585 2.77s-1.81 2.088-1.927 1.952c-2.282-3.303 4.369-8.093 3.808-8.336-1.673-.725-6.865 3.732-8.22 4.067-.702-2.875 6.956-8.44 6.934-8.265-.098.793-5.89 2.613-6.718 2.94-.154-.622-.192-2.525 2.675-4.07 4.795-2.583 8.108-3.062 14.335-3.427 4.028-.235 7.24.16 9.484-.71 2.11-.819 3.864-2.063 5.125-3.656 1.962-2.477 3.595-6.85 1.886-12.614-.85-2.866-2.27-4.259-2.69-5.266-1.235 1.078-2.683.809-3.03 2.737-1.776-2.278-1.968-7.159-3.159-7.992-.925-.647-3.437 2.529-3.877 4.642-.408-4.377.344-13.292-.652-13.49-.7 1.965-2.128 2.168-3.768 2.964.67-.74 1.294-2.142 1.789-3.8 1.058-3.55.493-8.504.536-9.781.236-6.998 2.146-13.417 4.568-17.839 3.5-6.39 12.23-9.114 17.627-13.691 5.59-4.741 11.263-13.901 12.836-19.442 1.312-8.529-5.333-12.135-6.394-11.317-.48-.316-.852-.868-1.173-1.273-3.25-4.097-1.047-10.353-2.962-15.333-1.217-3.163-2.009-5.82-3.118-4.027-.747-1.835-.64-.913-1.153-4.364-.513-3.452 2.536-16.154 1.973-15.985-2.853.86-3.04 1.782-4.478 2.135.996-1.97 2.095-3.354 3.104-5.561 1.341-2.936 3.548-8.194 4.609-10.294 1.06-2.1 4.027-6.164 4.422-6.987-2.17.768-4.557 3.167-5.011 3.174-.242-1.3 2.928-5.341 3.085-9.4.094-2.417-1.952-4.456-3.517-6.023-1.564-1.565-3.77-2.357-6.111-2.357-1.473 0-2.43 1.246-3.068 1.317-.532.06-.832-1.066-.832-3.627 0-.663.023-1.482.58-1.576 1.2-1.028 4.324-.977 6.982-.22 1.9.541 3.703 2.003 4.599 2.217 6.023 1.44 7.01-4.032 2.953-6.582-2.172-1.365-5.93-1.123-9.4-.97-2.046.09-3.835.773-5.329.447-.683-.149-1.408-1.28-1.757-1.87-.443-.753-1.13-2.473-2.26-3.847-1.066-1.297-2.538-2.303-2.623-3.352-.042-.511.688-1.31 1.105-1.623 3.044-2.283 9.288-3.706 14.037-4.489 2.908-.48 4.462-.059 6.709-1.383 2.076-1.224 6.168-4.55 8.471-4.67 3.022-.156 6.505.393 9.675.83 1.101.151 1.997.709 3.055.709 3.87-1.088 10.332-5.274 12.54.532.398 1.047.818 2.512.958 3.87.074.712-.212 1.484-.019 1.976.232.595 2.04.75 3.31 1.963 3.691 3.525 9.003 10.02 10.817 11.877 1.106 1.132 1.774 1.968 1.565 2.223-.206.25-1.954-.447-2.56-.164-.167.413.145 1.431.803 2.994 1.066 2.526 6.894 4.677 9.482 6.259.647.394 1.437 1.53 1.354 1.883-.682-.018-3.582.174-2.653 2.785.195.549 1.755 1.074 3.824 1.777 4.11 1.396 9.413 5.702 10.483 7.177 1.07 1.474 1.72 2.283 2.49 3.32.802 1.078 1.847 1.843.097 2.022-.477.049.184 2.693 1.305 2.693-11.97 16.52-21.471 34.16-10.014 53.257 3.173 5.288 20.005 14.711 26.663 12.206 1.252 1.49 6.875 7.437 5.884 10.523-1.55-.604-.985-1.105-.83.644l.481 5.44c.283 3.188-2.19-.29-3.947-.29-2.46 0 .304.759 1.688 2.746 1.526 2.188 3.308 10.878 4.197 17.2.415 2.951 4.628 5.53 5.825 6.949-3.157-1-.775 4.891 2.356 10.092 2.291 3.807 5.211 7.655 6.942 11.288 1.212 2.546 5.195 9.912 3.283 12.567-.956 1.329-3.173 2.525-5.154 5.03-3.865 4.497-7.164 12.472-7.652 18.172-.667 8.01-9.198 8.65-14.962 10.127-2.857 3.398-3.438 2.915-3.93 3.016-.96-1.119-.576-2.255-.386-5.015.023-.327-.978.748-2.41 1.495-2.06 1.073-4.84 2.058-5.312 2.218-.212-.918 1.165-3.772.973-3.43-.287.51-1.749.64-3.195 1.328-1.334.635-2.52 1.53-3.076 1.765-.048-1.11-.679-.166.034-2.8.376-1.389.657-1.866.555-1.868-.103 0-2.547.228-3.534 1.144-1.57 1.458-2.785 1.967-3.22 2.077-.115-1.01.758-3.554 2.09-5.234 1.518-2.102 3.006-3.856 5.435-4.414 2.585-.594 5.503-.345 7.624-2.388 2.902-2.795 7.053-7.977 8.237-12.494 1.876-7.157.771-16.971-7.785-19.116-1.326-.333-.866 1.808.621 3.096-1.172 1.455-5.551-4.015-5.993-3.441-.148 1.35-.083 3.115.855 4.098-.807.143-1.74-1.377-3.43-2.659-3.569-2.706-4.334-2.76-8.36-2.76 4.801-6.527 9.553-14.324 4.448-23.883-15.044-28.168-40.594-4.365-50.683 9.474-2.824 3.875-3.816 7.9-3.782 8.65z" fill="#1f1a17" fill-rule="evenodd" stroke="#1f1a17" stroke-width=".28"/><path d="M510.915 205.493c2.443.777 4.378-3.415 7.627-1.558 1.993 1.14 1.995 3.448 1.995 5.549" fill="none" stroke="#1f1a17" stroke-width=".28"/><path d="M581.36 324.164c1.905 1.276.651.508 2.12 2.409-.077.097-.37-.195-.892-.216 2.438 2.712 2.131 1.004 3.188 4.555-.941-.596-1.688-1.775-2.834-2.032 1 1.295 1.942 3.448 2.07 5.064-.398-.455-1.562-1.667-1.73-1.928-.015 1.68 2.149 3.629 1.606 5.97-1.418-.988-1.913-1.718-3.767-2.258.216.584.077.7.339 1.33-.96-.405-3.969.082-4.897-.401l1.54-12.913c1.124.337 2.135-.332 3.257.42z" fill="#a92211" fill-rule="evenodd" stroke="#1f1a17" stroke-width=".28"/><path d="M502.632 207.707c-1.862.531.727 2.398-1.859 2.815-1.792.29-3.268 1.148-5.248 1.148" fill="none" stroke="#1f1a17" stroke-width=".28"/><path d="M486.152 235.903l.896-.53c.05.196.09.402.116.619l.85-.458-.372 1.094 1.174-.922c.038.343.037.773.007 1.259l-.377 1.233.283-.088c-.198 2-.561 4.405-.277 5.6l6.217-2.134.24.77-.545 1.288.77-.564.229.74-.797 1.475.985-.868.291.936s1.444-.632 2.116-.898l-1.259 1.957-.483.604-.523.926-.805-.322-2.054 1.047.322-4.147-2.456 1.932-1.248 2.296 1.248-.363-5.667 6.765c-2.01 3.17-4.343 6.53-5.946 9.933l4.884-2.871.133 2.192 4.02-6.476-.222 6.781 2.033-3.761.87-1.643c.886 2.047.5 2.624 1.434 5.909l1.36-3.864.322 3.02.926-2.295.693 2.141.531-1.986.804 1.746 1.193-2.143.722 1.176 26.82-4.115.16-2.134-.201-1.248 3.14-5.073v.724l1.208-1.53-4.227-5.878-.725 3.22-5.758-4.63-.04 2.416-.846 2.98-1.369-1.41-1.369-2.536-.443 1.57-1.449 1.732-1.57-.926-.242-1.087 1.812 1.167.926-1.127.242-2.094.684-.08 2.537 3.543.402-2.255-.16-3.1 5.515 3.865.121-4.107 1.45.846.242-.765 4.24 4.644.297-3.637 2.658.683-1.954-3.461 5.138 2.351-1.917-2.875 6.842 2.203-3.943-4.78 5.57 2.4-3.557-4.735 4.97 2.431-4.728-4.203.926.08-7.295-4.228 3.832.825-1.734-3.471 2.094-1.027-3.582-3.242-.955 2.601-4.044.65.484 1.329-1.933-.282.242 2.416-1.53-.845 2.16 2.612-.484-.04.04 1.288-2.441-1.283.04 2.939-2.94-1.53.283 3.744-3.865-2.295-.725 5.516-3.262-3.784 2.014.926 1.167-3.906 3.181 1.49.443-3.302 2.859 1.812-.765-3.785 1.973 1.047-1.249-2.174 2.215.362-.886-2.698 2.094.605s-.967-1.45-.725-1.41c.242.04 2.994-.046 2.994-.046l-1.886-1.937 3.837.6-2.297-1.54c.182-.038.365-.078.55-.119l2.365-.236c-.47-.986-2.85-.797-2.146-2.44.235-.657-2.095-1.923-2.682-2.251v-.657h1.173c0-.493-.938-1.478-1.642-1.478l-3.12-1.223c-1.021 0-1.266-1.215-1.165-2.206l-.145-2.628c-.353-3.12-.851-3.962-2.494-4.947-3.402-2.136-10.016 1.625-10.25 1.461-.613 0-6.569-1.32-8.71-1.54-1.856 0-3.365-.302-4.557.038-4.787 1.366-5.417 4.557-9.718 5.41-5.53 1.097-7.532 1.333-11.455 2.193-3.05 1.15-3.761 2.407-4.348 5.199-.82 3.778 1.777 6.22 3.44 7.021.938.164 10.634-1.132 11.901-.929 4.488.168 10.198 7.842 6.367 10.381-2.463 1.479-13.255-2.956-16.774-2.956-3.87 0-2.815 2.792-1.876 2.628 2.815-.493 1.525-.657 4.222 0 2.81.678 6.577 1.132 8.07 3.489l-.401 1.678z" fill="#a92211" fill-rule="evenodd"/><path d="M573.968 343.9c-.14.109-1.709-.307-2.34-.295.932 1.624-1.783-.78-2.028-.838-1.664-.395 5.704 5.798 4.55 5.319.375.782 1.879-12.335 5.036-10.377 1.21.75 5.904 6.683 6.22 11.291.053.793-2.413-1.31-2.185-.578.45 1.449 2.608 4.02 2.988 5.277.222.736-3.314-.707-3.102-.013 2.71.299 2.736 2.825 3.895 4.749l-1.692-.261 4.437 4.97-5.035-3.37 5.268 5.041-3.917-1.555 5.04 3.782-5.936-2.007 7.56 5.378-6.257-.428 7.58 3.498c-1.566.142-4.071.107-5.49.016.633 1.095 3.987-.226 6.889 2.497.967.907 2.143 2.927 3.277 4.753l3.854 6.778 2.27 4.339c.303.581.938 5.571.294 6.07-3.242 2.507-9.385 10.63-10.526 14.983l-.897 3.565c-.622 1.925-2.257 8.817-3.833 9.963-1.695 1.231-1.368 1.305-3.236 2.014l-.388.99-.261-.906-1.45.638-.58-.958-1.37 1.886-.362-1.785-1.215 1.432-.28-1.293-.925-.343-3.04 1.082 2.005-2.924c-5.768 4.228-4.544 2.834-5.771 1.07-.09-.128-1.579.073-1.649-.084-.118-.268 4.427-3.015 4.253-3.276-.096-.146-4.545 2.24-4.723 2.214l-1.279.648-1.653-.69-.25-.472 2.616-1.242 3.282-1.991c1.2-1.396 2.824-2.302 4.888-4.587-1.905-.588-5.68 3.61-6.963 4.607l-3.692 1.752-1.244.37-.467.19-.845-.33-.626-1.736 2.788-.503 1.347-.562 2.248-1.31-.94-.25 5.541-3.302-2.179-.247 3.679-1.426-1.786-.863 4.474-5.942-1.4.059 2.122-1.476-1.543-.06 2.61-1.972-1.383-.033 2.375-1.53-1.702-.087 2.595-1.878-2.044-.52-1.814-1.659.506-6.436-1.255.18.495-2.03-1.264 1.232-.103-3.374-1.083 2.126-.786-2.174.905-2.538-1.582 2.318.36-4.34-1.13 3.168-.681-5.094-.274 5.036-1.837-6.628.487 5.51-2.855-4.18.81 4.9-3.016-3.699.63 4.815-4.301-5.416c.094 1.81-.104 3.46.306 5.579l-7.01-3.513 1.175-6.25 5.999-3.16 5.925-9.264c3.04-7.07.603-22.188 5.936-27.405 1.222-.305 1.967-.46 2.774.067.531.347-4.735 5.246-4.815 5.308z" fill="#a92211" fill-rule="evenodd" stroke="#1f1a17" stroke-width=".28"/><path d="M459.25 290.29l.628-3.454c.432 1.245 1.146 4.595 1.498 5.58l-.015-5.016 1.698 6.583.414-3.955 1.372 5.087-.082-3.938 3.903 8.433c0-.164-.15-5.969.437-8.268l1.122 3.312.872-2.984.352-.328.821.328.47.986.703-.329.938.493.822-.986 1.055 1.807.704-.985.704.82.82-.328.939 1.643 1.173-.493 2.21 4.014-.012-.629c-4.929-12.032-4.945-28.6.174-41.498-2.414 1.083-9.038 6.777-11.5 7.383-1.362.03-1.107-.198-3.994-.988-6.664-1.824-11.552-4.639-16.573-9.395-3.969-3.767-15.598-18.045-18.868-17.192v1.97c0 1.479-1.055 1.479-.117 3.121.586.986 1.173 1.643 1.76 2.628 1.642 2.792 0 3.12-.118 6.57-2.583 1.702-3.29 7.5-.626 9.598.903.712 2.432-.034 3.919 1.381s4.253 5.436 4.605 6.093c.804 1.125 1.69 6.236 3.636 7.9 1.064.91 2.729-1.383 3.611.006 3.411 5.176 6.763 10.103 10.543 15.03z" fill="#a92211" fill-rule="evenodd"/><path fill="#a92211" fill-rule="evenodd" stroke="#1f1a17" stroke-width=".28" d="M542.354 239.925l10.82 3.843-4.234-.919 8.09 4.345-4.14-.919 3.01 2.173-5.549-1.086 6.112 2.507-4.514-.92 7.34 3.426-4.517-1.17 4.704 2.508-3.577-.419 3.954 1.923-3.2-.418 2.636 1.671-13.171 4.429-13.642-.501-3.763-5.181 1.504-2.507 2.259-1.42 1.598-1.087.19-1.588-2.445.585 3.95-5.265-4.14 1.922 1.978-2.256 3.196-1.003 1.411-.752 4.61-.083z"/><path d="M501.124 354.572l.235 1.15c-1.76.493-1.877-3.12-3.754 3.45l-1.055.328-.235 1.97-1.056-.164-4.105 4.106.118 1.643-3.05 2.627.117.822.352-.822c1.055 0 1.877 3.12 1.877 3.778 0 1.314-.939.985-.235 2.463l.235-.492c2.58.328-.352-1.15 2.58-.329 1.642-2.463.704-6.57 2.815-9.033.939-.821 2.698-6.405 3.754-6.898.938 0 3.284 1.478 3.87 2.463-.117-3.284 2.347 4.435 1.525.165-.82-4.106-.586-2.628.822.164 1.524 2.792-.587-4.106-.47-4.27.235-.986 2.463 5.913 2.816 3.12.117-.985-2.464-5.912-1.525-5.42.352.329 3.05 6.406 1.994 2.464 0-.164-2.346-7.227-.587-3.285 1.877 3.942.352-1.97-.234-3.12l.117.82-2.229-.163-.704-.986-.586 1.643-.821-.329.117 1.15-.234-.164-2.464 1.15z" fill="#1f1a17" fill-rule="evenodd"/><path d="M488.34 370.503l.82 7.391-.469.165-2.58-2.3-.939.164c-.117.986 1.525 5.256 1.525 7.063v1.314c0 .657 0 .492-.352.985l-1.642-1.478-.234.164-.235 1.971-.704.329 1.408 1.149v1.971h.234l.47-.493.234-.985 2.346-.821.117-.986.117-.164-.351-1.971v-1.642c0-.986 0-.493.469-1.15l.938 2.135c1.408-.493.821-5.913.821-7.39-.704-1.479.235-1.15.235-2.465 0-.656-.821-3.777-1.877-3.777l-.352.821z" fill="#1f1a17" fill-rule="evenodd"/><path d="M561.233 432.995l6.42-4.939c.703-5.772-6.909 2.03-6.42 4.939z" fill="#d1a345" fill-rule="evenodd"/><path class="fil0 str4" fill="none" stroke="#1f1a17" stroke-width="2.492" d="M479.838 273.876l-2.14 11.267 3.377-3.732"/><path d="M567.208 433.232l5.784-3.547c1.332-5.215-7.426.576-5.784 3.547zm-11.203-2.272l7.279-5.594-1-1.599h-.856c-1.998-.4-5.565 5.995-5.423 7.194z" fill="#d1a345" fill-rule="evenodd"/><path d="M511.211 205.936c.118 2.463 2.933 3.284 4.692 1.806l-.704-1.642.353-.329 1.993.822.94-.822c2.697.329 1.524 2.793 2.228 3.778 1.173-1.807-.47-4.927-2.815-5.748-1.877-.658-5.748.985-6.687 2.135z" fill="#1f1a17" fill-rule="evenodd"/><path d="M502.18 200.68l7.507.657h.47l.82-.164c-.234-1.314-2.697-2.792-4.222-2.792h-1.29c-1.173 0-3.402.985-3.285 2.3z" fill="#a92211" fill-rule="evenodd"/><path d="M495.903 211.903c1.157 0 1.887-.007 2.898-.355.303-.105.534-.465.874-.465.595 0 3-.661 3.062-1.203.056-.496-.547-.835-.547-1.448 0-.703.488-.639.803-.878" fill="none" stroke="#1f1a17" stroke-width="1.246"/><path d="M509.324 210.919c.39.064.741.137 1.145.137h.779m-3.345 1.394c.888 0 1.567.321 2.382.492.382.08.616.097.87-.055m-4.261 1.285c.736.026 1.334.219 2.107.219.527 0 .628-.008 1.054-.11m-4.856 1.531c.47 0 .492.128.87.246.626.195 1.583.192 2.29.192m-4.303.983c1.3.431 2.465.574 3.939.574m-6.506.192c0 .623 2.54.874 3.39.874m-5.954.465c.464 0 .882.218 1.283.355.999.342 1.933.356 3.069.356" fill="none" stroke="#1f1a17" stroke-width="1.246" stroke-linejoin="round"/><path d="M457.804 277.698c.847 3.143 1.667 4.592 1.667 4.592l.656-2.625 1.394 5.085s.875-4.128.875-3.964c0 .164 1.312 4.51 1.312 4.674 0 .164.984-2.843.957-2.596-.027.246 1.503 4.29 1.503 4.29s.601-3.197.656-3.006c.054.192 1.421 2.733 1.421 2.733s.328-2.514.355-2.35c.027.164.848 2.269.848 2.269s.082-2.57.328-2.242c.246.328 1.449 2.488 1.449 2.488l.218-2.488 1.066 1.667s.274-2.651.438-2.487c.164.164 1.038 1.995 1.038 1.995" fill="none" stroke="#1f1a17" stroke-width=".623" stroke-linejoin="round"/><path d="M448.262 425.123l2.112-.821.234-.165c-.117-.821-.587-1.642-.587-1.642l-1.055-.329c-2.58 0-6.334 2.792-6.569 5.092 3.285 0 2.815-1.807 5.865-2.135zm3.278 3.006v-.493l.117-.328-2.816-.985c-1.876 1.149-4.222 3.284-3.636 5.748.939.164 2.111-.821 2.698-1.479 1.408-1.313 1.642-.82 3.519-1.642l.117-.82zm2.298.542c-1.876 1.15-3.636 2.956-3.05 5.42.939.164 1.877-1.314 2.464-1.97 2.698-1.315 6.451-.165.586-3.45zm-12.526-4.86c.866-.407 3.75-2.094 6.167-2.674.05-.49.333-.956.366-1.283l-.266-.853c-1.934.464-6.551 1.81-6.267 4.81z" fill="#d1a345" fill-rule="evenodd"/><path d="M473.209 217.566c-.365.491-.371.936-.202 1.65.003.012-.009.147 0 .162.019.03.061.042.081.121m1.407-1.369c-.339.508-.2 1.691.161 2.174m.846-1.973c-.188.439-.137 2.063.765 2.063m.565-2.184c-.762.737.231 1.895.785 1.976m.339-2.133c-.84.886.456 2.156 1.23 1.78m.06-1.663c.042.646.37 1.584 1.229 1.35m.129-1.35c.054.339.354 1.111 1.124.952" fill="none" stroke="#1f1a17" stroke-width=".623"/><path d="M480.402 339.579l-6.561 4.106c-2.81 1.758-6.005 5.803-8.787 9.878-3.168 4.64-3.747 9.687-4.67 15.033l.117 3.659 1.461-3.359-2.44 7.374 4.563-7.167-3.699 9.431 4.715-7.32-3.311 10.708 5.437-9.374-6.38 15.09 6.25-12.295-5.416 14.68 5.517-13.095-2.941 10.985 3.857-7.994-2.35 9.113 2.905-6.072-2.018 8.6 2.874-6.444-1.74 9.578 2.975-6.719-1.799 7.3 2.87-4.604-.28 4.757 1.753-1.607c-.114 1.006.015 2.65-.05 3.692.508-.355 1.345-1.58 1.938-2.122l-.93 4.639 1.88-2.677-.972 4.523c.734-.544 1.066-.468 1.69-.96l-1.234 2.657 1.004-.146-1.678 2.294 1.355-.615-1.564 2 1.724-.33-2.297 1.68 1.97-.168-2.62 1.604 2.607-.433-3.103 1.614 2.013-.043-2.556 1.32 1.612.84c-1.067.508-1.618.044-2.62.476l1.706.915-2.904.27 4.15 1.683-5.444-.829c-3.22 1.377-2.402 1.395-9.065 1.785-4.762.28-5.005.48-9.691 2.15.27.634.049 1.167.25 1.506.603 1.019 1.369.877 1.498 1.148.43.9 1.228.713 1.553 1.83.263.902-.055 2.716.57 3.346.54.544 1.239.798 1.588 1.222.567.689 1.355.894 1.78 1.18 1.177.788 1.65.595 2.883.717l.746-.79.307-.635.515-.387-.023.795-.49 1.036.37.368c.889-1.225.974-1.223 1.716-2.066l.215.581-.268.592-.47.867.404.033.791-.874.347-.677.354-.383.447.2-.389.593-.766 1.132.687.07 1.127-1.183.51-.596-.818 1.612.647.111 1.541-1.669c-.044 2.88 4.206 1.102 6.632 1.216 3.436.019 5.112-1.398 7.58-3.585 1.95-1.73 3.191-3.969 4.683-5.102 4.475-3.4 8.593-3.806 8.866-6.256.66-5.934-1.738-12.325-1.907-17.304-.058-1.716.146-1.848.547-3.917.115-.597 1.932 1.512 2.702 3.42.191-1.663-.681-6.09-.801-6.78.464.479 1.367 1.456 1.618 1.79.196-2.366-1.068-4.554-1.633-6.814.456.9.532.49 1.584 2.225-.246-2.027-2.137-5.954-2.138-7.077.796.665 2.088 2.933 2.35 3.31.106-.262-.282-2.576-1.236-6.66l1.33 2.814-.837-5.11.876.971.177-2.753 1.443 1.36.339-2.393 1.758 3.849-.433-4.285 2.029 5.77-.422-5.84 1.376 1.456-1.176-5.453c1.587 3.326 1.424 3.134 2.027 3.813-.168-1.337-1.056-3.364-1.2-5.4l1.444 2.173-.764-4.949 1.345 2.348-.24-2.755 1.5 2.855.575-1.978.65 5.888 2.591-7.52-4.247-23.866.675-1.492-5.67-11.847-1.437.834-1.135.475c4.787 7.142 9.323-6.688.568-.238l-5.51-7.733-.47 7.771-.534-4.463-.486 4.758-.93 4.275-.607-.112.454-3.936c-.882 2.497-.788 4.666-1.619 7.251l-.115-5.28-1.075 5.578-.357 1.04-.143-4.317-.893 3.976-.807 1.67.126-4.387-1.933 5.968.679-4.272-2.071 6.957.39-4.443-2.106 5.786.04-4.015-2.536 4.676 1.068-3.681z" fill="#a92211" fill-rule="evenodd" stroke="#1f1a17" stroke-width=".28"/><path d="M481.277 282.293l2.32 4.309.777-5.236.987 3.106 1.532-5.13.949 2.578 1.743-3.49 1.014 3.355 2.996-7.234-2.67 3.802-.643-4.127-2.204 4.208-1.13-1.72-1.194 4.208c.059-4.83-.263-6.66-.587-7.942-.796 2.09-.963 4.319-2.557 8.712l-.582-4.428-3.492 6.55 2.744-16.449 1.742-3.627 1.088 3.303 2.595-5.482-.295 7.423 3.389-5.405 2.339 4.679 2.824-5.002.304 3.174.943-2.782.637 1.105 1.388-2.012.56.27.928-1.288 2.613 63.612-2.743-2.663c.333-6.453-1.568-2.332-1.455-9.794l-.555 7.218-1.198-5.366-1.356 2.687.384-6.975-1.515 2.287.627-3.9-1.821 1.691.302-5.469-2.02 3.263-.449-5.806-1.465 3.46-.171-5.232-1.94 4.882-.428-7.688-1.437 2.281-.379-8.558-2.202 1.05-1.237-10.409z" fill="#a92211" fill-rule="evenodd" stroke="#1f1a17" stroke-width=".28"/><path d="M599.382 389.949c.85 1.21 2.201 1.492 2.597 3.113.135.55.226 1.137.358 1.693.093.39.056.988.188 1.41m-3.981-3.849c.675.828 2.053 1.966 2.283 2.949.103.434.06.78.418 1.102.277.25.169.833.214 1.149m-3.174-3.306c1.122 1.545 1.85 3.037 2.025 4.844m-2.103-2.797c-.042 1.086.985 2.193 1.332 3.183.132.377.439.9.391 1.365m-2.76-2.8c.175.657.34 1.237.679 1.791.134.22.305.39.399.637.203.537.171 1.054.298 1.62m-2.522-1.911c.266.503.426 1.256.692 1.66.411.626 1.128 1.76 1.143 2.435" fill="none" stroke="#1f1a17" stroke-width=".935" stroke-linejoin="round"/><path d="M596.802 404.413l-.98.126-.007-.056-.011-.053-.011-.054-.014-.053-.015-.053-.018-.05-.018-.054-.02-.054-.024-.054-.024-.051-.024-.054-.027-.056-.028-.056-.029-.055-.03-.055-.034-.059-.032-.059-.033-.059-.035-.06-.035-.062-.036-.064-.035-.064-.038-.068-.036-.067-.037-.07-.036-.07-.036-.074-.035-.073-.035-.078-.032-.08-.033-.08-.032-.082.932-.333.022.062.023.06.027.06.026.057.028.061.03.058.029.06.03.06.033.058.031.059.036.06.033.06.035.061.035.061.036.064.035.063.034.063.037.067.035.067.034.068.034.069.034.07.033.075.03.075.03.074.027.077.026.083.024.082.022.084.02.086.015.09.015.09zm.004 1.372l-.98-.1.003-.045.004-.042.004-.04.003-.04.003-.04.003-.036.003-.037.003-.04.003-.035v-.171l.003-.033v-.164l-.003-.032v-.033l-.003-.032-.003-.036v-.034l-.004-.035-.004-.035-.003-.036-.004-.036-.005-.037-.003-.04-.006-.037.98-.126.006.046.007.044.004.044.004.044.006.044.003.043.003.042.004.042.003.04.003.044.003.04v.087l.003.041v.247l-.003.042-.003.042-.003.043-.003.043-.003.04-.003.044-.004.045-.003.043-.004.046-.004.045-.004.046-.004.045z" fill="#1f1a17"/><path d="M594.136 403.724c.277.637.706 1.116.81 1.805.05.34.336.605.3.958m-1.478.181c-.184.65-.043 1.12-.049 1.784-.003.241.114.385.274.558.115.123.115.457.137.61" fill="none" stroke="#1f1a17" stroke-width=".935" stroke-linejoin="round"/><path d="M486.916 388.03l-.498-5.35 2.737 2.363-1.866-9.705 4.853 5.475s-2.489-12.693-1.867-11.448c.623 1.244 3.609 6.097 3.609 6.097m-1.99-8.712c1.053 1.34 1.737 2.007 2.115 3.608.257 1.088.498 2.465.498 3.609m-.997-9.582c.493 1.134 1.37 2.092 1.618 3.235.22 1.011.39 2.286.747 3.236m-1.865-8.212c.409 1.433 1.68 3.05 2.363 4.355.692 1.321.498.851.498-.622 0-1.317-.108-2.7.125-3.982 0 .637.096 1.286.248 1.867.465 1.766.125-1.636.125-2.365 0-3.564 1.12 4.09 1.12.622 0-.415-.13-4.708.622-1.866.696 2.626.622-1.559.622-1.99 0-.767-.097-1.63.125-2.365.28-.926 1.183 1.927 1.493 1.617.565-.564.871-2.104.871-2.862" fill="none" stroke="#1f1a17" stroke-width=".312" stroke-linejoin="round"/><path d="M491.617 389.581c.666.476 1.336 1.325 1.615 2.113.223.627.31 1.307.31 1.987m-3.975-5.218c.559 1.025 1.17 2.072 1.74 3.044.386.66.844 1.46.994 2.175.111.534.031 1.462.31 1.926m-3.169-5.282c1.205 1.772 3.045 4.604 3.045 6.772m-2.612-4.536c.201.536.423 1.248.684 1.74.553 1.046.683 1.84.683 3.044m-1.738-2.918c0 1.154.884 1.89.932 3.045.03.71.063 1.441.063 2.174m-1.926-2.05c.123.918 1.197 1.44 1.43 2.299.086.32.064 1.526-.063 1.863m-2.115-3.169c0 .938.123 1.772.187 2.672.05.7.055 1.063-.435 1.553m-1.303-2.362v1.989c0 .447.192 1.054-.435.497-.345-.307-.438-.763-.683-1.119-.637-.923-.622 1.43-.622 1.802 0 .166-.163.385-.186.373-.47-.259-.566-1.305-.994-1.305-.315 0-.224.701-.31.994-.455 1.53-.356-.253-.374-.807-.018-.582-.435-.93-.435-1.554" fill="none" stroke="#1f1a17" stroke-width="1.246" stroke-linejoin="round"/><path d="M477.097 421.674c.385-.385 1.684-.577 1.684-.577l1.203-1.492 1.06.384 1.636-2.31m1.444-2.07c-.117.255-.028.228-.096.433-.046.14-.107.22-.144.385-.026.11-.135.172-.145.337-.018.313-.24.44-.24.77v.53m2.454-3.851c-.091.703-.077 1.247-.337 1.83-.02.045.018.144 0 .192-.081.211-.358.882-.53 1.01m1.926-4.524c-.26 1.298.23 3.232-.914 3.995m2.55-6.303c0 1.23.21 2.949-.337 4.043-.105.21-.867 1.433-.867 1.637m2.07-3.901c.108.72.347 1.437.577 2.117.078.23.205.42.29.626.294.723.177.129.336-.53.158-.654.096-1.668.096-2.358 0-2.37-.072 2.588.77 2.214.559-.247.386-4.198.386-5.102 0-1.64.04-.439.24.337.068.263.47 3.436 1.06 2.6.815-1.16.529-2.799.529-4.092" fill="none" stroke="#1f1a17" stroke-width=".623"/><path d="M437.169 258.681c-.164.354-.145 1.16-.145 1.54 0 .248-.018.504.048.723.095.302.193.683.193 1.01m1.106-2.614c-.125.544-.048 1.22-.048 1.78 0 .54-.114 1.83.145 2.263m.891-2.556c-.14.747-.094 1.717.048 2.455.047.247.103 1.928.24 1.974m1.213-2.589c-.392 1.372-.045 3.338.145 4.669m.288-5.632c.355.887.289 3.335.289 4.332 0 .864.063 2.093.24 2.985" fill="none" stroke="#1f1a17" stroke-width=".312" stroke-linejoin="round"/><path fill="#1f1a17" d="M441.826 269.396l.006-.161.01-.172.012-.183.012-.191.02-.199.018-.205.018-.21.022-.212.025-.214.025-.215.025-.214.025-.211.028-.207.025-.202.025-.195.025-.185.025-.177.021-.165.022-.152.019-.137.019-.12.015-.105.013-.086.01-.064.005-.043.302.094-.006.042-.01.065-.012.083-.015.103-.016.121-.018.137-.022.15-.022.163-.025.175-.025.186-.025.193-.025.2-.025.204-.028.21-.025.21-.025.212-.021.212-.022.21-.022.206-.019.199-.015.193-.013.185-.012.174-.006.163-.007.149-.003.134.003.113.007.093.009.066.006.03-.006-.01-.044-.037-.096.425-.094-.088-.046-.108-.025-.11-.013-.114-.006-.124-.003-.136z"/><path d="M443.458 266.517c-.817 1.77-.679 4.393-.43 6.135m.863-5.653c-.7 2.708-.259 6.763.086 7.579" fill="none" stroke="#1f1a17" stroke-width=".312" stroke-linejoin="round"/><path fill="#1f1a17" d="M444.757 274.43l-.053-.278-.053-.29-.053-.3-.053-.308-.05-.315-.046-.323-.047-.327-.043-.33-.04-.331-.038-.332-.035-.332-.03-.329-.023-.325-.021-.32-.016-.314-.006-.306-.003-.296.003-.287.01-.274.018-.261.025-.247.034-.232.044-.216.053-.197.065-.18.287.118-.056.153-.047.177-.04.197-.032.217-.025.236-.015.25-.013.267-.003.279.003.29.01.301.015.308.019.316.025.32.028.326.034.328.037.33.041.328.04.327.047.324.047.32.053.313.05.305.053.298.053.287.053.275.053.262.053.247.052.231.05.214.05.195.047.174.044.151-.296.09-.047-.159-.05-.179-.05-.199-.05-.217-.053-.235-.053-.25z"/><path d="M445.648 269.406c-.193.59-.252 1.498-.215 2.069.03.49.83 3.868.912 4.369m.291-5.813c.074 1.565.477 4.217 1.322 5.485m.842-4.33c-.19.83-.244 4.73.386 5.15m1.684-1.299c-.5 1.5.152 3.317.432 4.717m1.542-2.407c-.319.957.447 5.809 1.108 6.691m.095-4.958c.074 1.348.717 2.743.77 4.14.034.895.562 1.767.674 2.551m.674-5.438c-.707 1.768.336 5.702.963 7.268m1.349-2.984c0 .492-.038.894.144 1.347.267.673.25 1.34.434 2.022.118.44.244 2.09.48 2.407m.434-1.35c.305 1.133.445 2.4 1.059 3.321.556.835.905 1.84 1.444 2.648m3.03-.193c-.458 1.487.048-.485.048.53 0 .356.129.801.24 1.154.149.468.29 1.102.434 1.493.179.482.722 1.008.818 1.492m9.575-37.047c0 1.355-1.618 2.566-1.925 3.899-.285 1.237-.386 2.41-.386 3.754m.94-6.73c-.342.887-1.838 2.77-2.095 3.698-.204.733-.145 1.657-.145 2.503" fill="none" stroke="#1f1a17" stroke-width=".312" stroke-linejoin="round"/><path d="M473.891 264.377l-.226-.213.033-.035.032-.036.032-.036.032-.037.032-.037.031-.037.032-.039.03-.038.032-.039.032-.04.03-.039.03-.04.032-.04.031-.04.03-.041.031-.041.03-.042.032-.041.03-.042.03-.041.031-.042.031-.043.03-.042.032-.042.03-.042.032-.043.031-.042.031-.042.032-.043.032-.042.032-.041.032-.043.245.19-.03.04-.032.041-.031.042-.03.04-.032.043-.03.042-.031.041-.03.042-.032.042-.03.042-.031.042-.03.042-.032.042-.031.043-.031.042-.03.041-.032.042-.032.042-.03.042-.032.04-.032.042-.033.041-.032.04-.032.041-.034.04-.032.04-.033.04-.034.04-.035.039-.033.038-.035.038-.035.038zm-.226-.213l.226.213-.006.006-.006.006-.006.005-.006.005-.007.004-.007.004-.007.004-.007.003-.007.003-.007.002-.007.002-.007.002-.007.002h-.007l-.007.001h-.029l-.007-.001-.007-.002-.007-.002-.007-.002-.007-.002-.007-.003-.007-.003-.007-.004-.007-.004-.007-.004-.006-.004-.006-.005-.006-.005-.006-.006-.006-.006-.005-.006-.005-.006-.004-.007-.004-.007-.004-.007-.003-.007-.003-.007-.003-.007-.003-.007-.003-.007v-.064l.003-.007.003-.007.003-.007.003-.007.003-.007.004-.007.004-.007.004-.007.004-.006.005-.006.005-.006zm-1.272 4.15h-.31v-.175l.002-.17.005-.163.007-.16.01-.153.01-.15.015-.146.017-.142.02-.138.023-.135.025-.132.029-.128.032-.128.036-.123.039-.122.043-.12.047-.12.05-.115.056-.116.058-.116.063-.114.067-.114.072-.113.076-.113.08-.114.086-.114.09-.116.094-.117.1-.117.104-.12.109-.122.115-.124.226.213-.111.12-.107.118-.101.117-.097.113-.09.112-.086.11-.08.11-.077.107-.071.106-.067.106-.062.107-.059.105-.054.106-.05.107-.047.108-.043.108-.04.111-.036.113-.034.115-.03.117-.027.12-.024.124-.021.127-.02.131-.015.135-.013.14-.012.143-.009.15-.007.154-.005.16-.003.164v.173z" fill="#1f1a17"/><path d="M473.2 262.585c-.045.666-.747 1.668-1.156 2.166-.156.191-.285.577-.433.819-.174.283-.19.67-.385.914m.048-3.947c-.16.205-.698 1.41-.83 2.264m-.547-2.264c-.541.044-1.038.986-1.221 1.444m-.502-1.878c-.347.417-1.043 1.11-1.426 1.493m-.203-1.439c-.503-.116-1.555.774-1.673 1.247" fill="none" stroke="#1f1a17" stroke-width=".312" stroke-linejoin="round"/><ellipse rx="9.794" ry="10.159" transform="rotate(-7.816 1773.408 -3522.572) scale(.15195)" fill="#1f1a17" fill-rule="evenodd" stroke="#1f1a17" stroke-width=".9"/><path d="M492.452 207.701c.024.75.44 1.547 1.106 2.07.518.407 1.223.639 1.799.613.94-.042 2.354-1.165 1.954-3.2-2.509-.417-2.662-.126-4.86.517z" fill="#fff" fill-rule="evenodd" stroke="#1f1a17" stroke-width="1.246"/><path d="M493.364 207.566c-.033.252.27 1.215.38 1.438.511 1.032 2.846 1.007 2.856-.558 0-.223.028-1.516-.396-1.557-.479-.047-1.11-.017-1.557.168-.256.106-1.135.328-1.283.509z" fill="#1f1a17" fill-rule="evenodd" stroke="#1f1a17" stroke-width=".28"/><path d="M495.087 209.216c.398-.186.514-.36.722-.71.02-.033.027-.13.037-.092.07.247.125.501.068.753-.05.224-.337.282-.528.218-.066-.022-.241-.163-.3-.17z" fill="#fff" fill-rule="evenodd" stroke="#1f1a17" stroke-width=".28"/><path d="M461.685 226.958c6.096 0 9.169-3.519 15.37-3.519 3.085 0 5.704.287 8.204.802 1.402.29 2.993.26 4.449.99 2.272 1.352 2.015 4.006.151 4.444-1.319.31-3.47.279-4.441-.022-3.846-1.194-11.173-4.098-14.942-2.272-1.67.808-3.545 1.247-5.584 1.36-.894.05-1.672.164-2.488-.234-.513-.25-1.663-1.253-.719-1.549z" fill="none" stroke="#1f1a17" stroke-width=".623" stroke-linejoin="round"/><path d="M461.685 226.958c6.096 0 9.169-3.519 15.37-3.519 3.085 0 5.704.287 8.204.802 1.402.29 2.993.26 4.449.99 2.272 1.352 2.015 4.006.151 4.444-1.319.31-3.47.279-4.441-.022-3.846-1.194-11.173-4.098-14.942-2.272-1.67.808-3.545 1.247-5.584 1.36-.894.05-1.672.164-2.488-.234-.513-.25-1.663-1.253-.719-1.549z" fill="#a92211" fill-rule="evenodd"/><path d="M480.299 221.34c.101.087-.26 1.678-.287 1.912-.077.66-.13 1.528-.315 2.159-.04.137-.348 1.488-.558 1.284-.935-.911-1.987-3.605-2.022-4.974l3.182-.38z" fill="#fff" fill-rule="evenodd" stroke="#1f1a17" stroke-width=".935"/><path d="M453.04 424.232l.97-.22c.232-.185 2.138-1.048 2.384-1.067.225-.019 4.32-.624 4.32-.624l.98-.545 1.057-.241 1.228-.28-.365.33c-.365.33-1.22.59-1.22.59l.834.504-.646.292-4.863.442-4.233 2.355-.71-1.532h.265zm2.125 4.096l1.472-1.61 1.483-.458 2.385.446-2.41.582s-1.293.754-1.436.774c-.143.019-.974.629-.974.629l-.52-.362z" fill="#1f1a17" fill-rule="evenodd" stroke="#1f1a17" stroke-width=".28"/><path d="M450.791 421.721c.482-.24 1.066-.626 1.54-.626.21 0 .655-.234.915-.289.534-.11 1.079-.433 1.637-.433.274 0 .915-.097 1.059-.289" fill="none" stroke="#1f1a17" stroke-width="1.869"/><path fill="#d1a345" fill-rule="evenodd" stroke="#1f1a17" stroke-width=".28" d="M574.52 433.824v.722l1.588-1.059 1.564-1.589 2.043-1.155 1.11-.433-1.156-1.013-.963-.046-1.396.096-1.782 1.442-.769 1.832z"/><path d="M486.152 207.279l3.803-.649c2.161-.622 4.398-2.528 6.504-3.324l-.015-.179-1.031.063-1.51.937-2.07 1.396-1.878 1.107" fill="none" stroke="#1f1a17" stroke-width=".28"/><path fill="#1f1a17" fill-rule="evenodd" stroke="#1f1a17" stroke-width=".28" d="M496.501 203.405l-1.349.658-1.426.78-1.34.755-.987.631-1.293.396.046-.111 2.094-1.27.779-.525.928-.631.695-.538.526-.409 1.614-.197zm-25.074 7.535c-1.247.282-5.009.764-4.621 2.636.158.763.57 1.378 1.12 1.953.43.45 1.84 3.189 2.788 2.46.997-.766.891-.64 1.121-1.75.137-.661-.242-1.149-.629-1.649-.351-.455 1.32-1.055 1.504-1.547.45-1.213-1.08-1.58-1.283-2.102z"/><path d="M469.866 210.86c-.31 0-.489.147-.701.359-.08.079-.484.212-.605.276-.836.436.145 1.33.811.66.28-.28.597-.543.866-.812.382-.381-.064-.51-.371-.482z" fill="#fff" fill-rule="evenodd"/><path d="M484.174 255.27c-1.559 2.752-5.637 8.333-6.36 11.258 1.065-.958 5.144-2.786 5.872-3.397" fill="none" stroke="#1f1a17" stroke-width="2.492"/><path d="M423.984 162.656l-2.578.469-3.633 35.86-25.664 1.406v4.57l31.875 4.219 31.758-4.22v-4.57l-25.664-1.406-3.633-35.859-2.46-.469z" fill="#405a9f"/><path fill="#405a9f" d="M416.972 202.915h13.921v222.076h-13.921z"/><path fill="#d1a345" stroke="#405a9f" stroke-width="2.813" d="M423.932 158.458l5.346 5.345-5.346 5.346-5.345-5.346zm-34.139 38.946l5.345 5.346-5.345 5.346-5.346-5.346zm68.28 0l-5.346 5.345 5.346 5.346 5.346-5.346z"/><path fill="#d4cac6" d="M421.303 202.915h5.26v68.73h-5.26z"/><path fill="#d1a345" stroke="#103e6f" stroke-width=".938" d="M408.52 196.949h30.825v13.59H408.52zm15.464 209.34c-1.97 1.7-2.814 3.282-3.398 4.688.498 1.169 1.168 2.431 1.875 4.101-.919.073-3.317-.03-5.508.469v9.492c0 1.678 1.977 5.625 7.031 5.625 5.054 0 6.914-3.947 6.914-5.625v-9.492c-2.19-.499-4.471-.397-5.39-.469.707-1.67 1.26-2.932 1.758-4.101-.584-1.406-1.311-2.988-3.282-4.688zm0-44.414c-3.897 0-5.419.42-7.03 1.055-1.212 1.218-1.213 4.658 0 6.093 2.248.238 3.773.586 7.03.586 3.258 0 4.665-.348 6.914-.586 1.213-1.435 1.211-4.875 0-6.093-1.612-.634-3.016-1.055-6.914-1.055zm-.051-66.328c-3.898 0-5.42.42-7.032 1.055-1.21 1.218-1.212 4.658 0 6.093 2.25.238 3.774.586 7.032.586 3.257 0 4.665-.348 6.914-.586 1.212-1.435 1.21-4.875 0-6.093-1.612-.634-3.017-1.055-6.914-1.055z"/><path d="M569.681 368.407c12.934-27.721 8.918-71.777 11.08-107.982 0 0-11.028-2.206-39.786-2.206-28.758 0-39.786 2.206-39.786 2.206 2.162 36.205-1.854 80.26 11.08 107.982 6.169 13.222 13.434 22.465 28.706 29.868 15.273-7.403 22.537-16.646 28.706-29.868z" fill="#405a9f" stroke="#d1a345" stroke-width="2.879"/><path d="M535.364 308.91l6.278-6.277 6.278 6.278-6.278 6.278-6.278-6.278m6.278 10.463l-10.464-10.463 10.464-10.464 10.463 10.464-10.463 10.463m27.205 2.093l-6.278 6.278-10.464-10.463 2.093-2.093 8.371 8.37 2.093-2.092-10.464-10.464-10.463 10.464 10.463 10.463 2.093-2.092-8.371-8.371 2.093-2.093 10.463 10.464-6.278 6.278-12.556-12.556-12.556 12.556-6.279-6.278 10.464-10.464 2.093 2.093-8.371 8.37 2.093 2.094 10.463-10.464-10.463-10.464-10.464 10.464 2.093 2.093 8.37-8.371 2.093 2.093-10.463 10.463-6.278-6.278 12.556-12.556-12.556-12.557 6.278-6.278 10.463 10.464-2.092 2.093-8.371-8.371-2.093 2.092 10.464 10.464 10.463-10.464-10.463-10.463-2.093 2.093 8.37 8.37-2.092 2.093-10.463-10.463 6.278-6.278 12.556 12.556 12.556-12.556 6.278 6.278-10.463 10.463-2.093-2.093 8.37-8.37-2.092-2.093-10.463 10.463 10.463 10.464 10.464-10.464-2.093-2.092-8.37 8.37-2.094-2.092 10.464-10.464 6.278 6.278-12.556 12.557 12.556 12.556" fill="#d1a345" fill-rule="evenodd"/><path d="M416.966 232.396c-4.041 7.509-4.522 12.871-1.262 21.289.393 1.014.806 1.73 1.976 1.81.235.017 1.715 3.235 2.524 3.732.316.194 3.456 2.747 3.456 1.207 0-1.588-1.92-3.93-2.688-5.323-.088-.158 1.341 1.217 3.292 1.866 2.808.934-2.128-6.533-2.798-7.352-.148-.18 1.958.69 3.072.932 3.753.817.45-2.535-.384-3.785-.884-1.326-3.98-2.799-1.262-2.799 4.614 0 1.514-1.725-.055-3.95-1.793-2.544-3.64-5.397-5.87-7.627z" fill="#1f1a17" fill-rule="evenodd"/><path d="M415.954 235.663c0 4.451-2.449 8.543-.793 12.847.234.606 2.488 6.273 3.17 3.772.644-2.353-.923-3.463-.518-5.494.551-2.766-.956-5.413.191-8.31.565-1.428-.21-3.804-2.05-2.815z" fill="#a92211" fill-rule="evenodd"/><path d="M419.097 237.631c-1.423 0-.821 2.205-.492 2.952.963 2.182 2.72 2.815 4.975 2.815.766 0 .1-.293-.273-.765-.341-.432-1.026-.77-1.421-1.148-.62-.591-1.194-1.306-1.777-1.995-.476-.563-.68-1.454-1.012-1.859zm1.203 7.244c-.42-.4-2.3-.337-1.613 1.202.898 2.01 3.254 3.67 5.494 3.827.888.062-1.235-1.973-1.613-2.35-.443-.444-1.921-2.23-2.268-2.68zm.467 5.466c-.58-.548-.908-1.381-1.64-.41-1.71 2.27 2.654 5.147 3.963 6.369.604.563.603.553.547-.3-.057-.876-.971-2.633-1.503-3.363-.563-.772-.752-1.681-1.367-2.296zm-.577 5.221c-.186-.403-.572-1.93-1.147-1.995-1.365-.156-1.123 1.614-.495 2.485.714.988 1.282 1.814 1.97 2.79.457.647 3.067 2.865 2.023.601-.323-.702-.68-1.35-1.066-2.05-.285-.517-1.098-1.428-1.284-1.83z" fill="#bb9858" fill-rule="evenodd"/><path d="M432.016 234.426c-.728-.207-1.464-.885-2.411-.587-1.165.367-3.243 2.975-4.116 4.214-.195.276-1.819 1.968-1.583 1.968 1.053 0 1.807.17 2.776-.448.933-.595 1.515-1.313 2.582-1.313.394 0 2.8.427 2.8-.138 0-1.26.127-2.455-.048-3.696z" fill="#1f1a17" fill-rule="evenodd"/><path d="M431.306 234.68c-.647-.045-1.35-.409-2.132-.082-.963.403-2.476 2.447-3.097 3.402-.14.213-1.357 1.576-1.155 1.545.904-.139 1.57-.123 2.337-.67.74-.527 1.165-1.09 2.082-1.231.338-.052 2.106-.038 2.048-.421-.132-.855-.06-1.689-.083-2.544z" fill="#bb9858" fill-rule="evenodd"/></svg>