<svg xmlns="http://www.w3.org/2000/svg" width="1200" height="800" viewBox="0 0 450 300" xmlns:xlink="http://www.w3.org/1999/xlink" xmlns:cgf="https://coding.garden/flags"><metadata id="cgf-metadata">

<cgf:flag>
  <cgf:name></cgf:name>
  <cgf:route>ru/nen</cgf:route>
  <cgf:aspect-ratio>1.5</cgf:aspect-ratio>
</cgf:flag>

</metadata><path fill="green" d="M0 0h450v300H0z"></path><path fill="#0038a8" d="M0 0h450v264H0z"></path><path fill="#fff" d="M0 0h450v204H0z"></path><g transform="rotate(-45 201.732 171.065) scale(7.955)"><path id="a" fill="#0038a8" d="M0 3V2h1v1h1V0h1v1h1v1H3v1h1V2h1v1h1v1H3v1h1v1h1V5h1v1H5v2z"></path><use x="5" y="5" xlink:href="#a"></use><use x="10" y="10" xlink:href="#a"></use><use x="15" y="15" xlink:href="#a"></use><use x="20" y="20" xlink:href="#a"></use><use x="25" y="25" xlink:href="#a"></use><use x="30" y="30" xlink:href="#a"></use><use x="35" y="35" xlink:href="#a"></use><use x="40" y="40" xlink:href="#a"></use></g></svg>