<svg xmlns="http://www.w3.org/2000/svg" width="1350" height="900"><path fill="#fff" d="M235.04-110.671h863.771v1130.149H235.04z"/><path fill="#2f418c" d="M-41.132-55.828h372.146V988.14H-41.132z"/><path fill="#d03528" d="M1002.836-67.58h432.865V956.802h-432.865z"/><path d="M498.534 242.126v356.968s.06 14.554 10.47 23.094c10.9 8.943 23.75 8.094 23.75 8.094l102.645.346s15.124.024 22.604 11.123c6.26 9.289 8.873 19.74 9.344 22.593v.782l.062-.407.063.407v-.782c.471-2.853 2.3-13.074 9.344-22.593 8.968-12.12 23.296-11.469 23.296-11.469h101.954s13.661.824 23.75-8.094c10.9-9.635 10.468-23.094 10.468-23.094V242.126H667.347z"/><path d="M501.347 245.032v318.562h24.802c-.5-2.793-2.09-9.265-7.109-19.625-6.91-14.261-10.381-15.073-10.365-18.03.016-2.958 10.118-11.741 6.45-23.407-2.57-8.175-9.99-5.768-11.116-7.313-1.054-1.446-2.045-16.564 2.348-39.28 4.393-22.717 10.042-41.601 17.881-61.438 10.277-26.002 32.413-70.195 37.955-74.813 1.267-1.056 7.327 6.25 7.327 6.25s12.321.348 15.032 1.25c2.76.919 7.14 5.875 7.14 5.875s5.475 1.334 8.079 2.344c3.067 1.19 4.746 1.957 6.263 4.812-3.732 9.293-4.81 4.642-10.585 12.5-3.592 1.618-8.004.24-11.085 2.5-4.984 3.655-6.451 18.22-6.451 18.22s7.888.91 15.031-2.876c6.44-3.412 10.635-8.342 19.353-14.625 10.343-7.454 20.415-8.807 20.415-8.807s2.56 5.14 4.45 8.62c-5.604.906-6.267.504-14.5 9.656-8.232 9.152-7.451 12.578-15.697 21.62-8.247 9.042-13.266 9.311-19.215 13.166 6.734 1.03 24.05-2.787 28.373 1.47 3.747 3.69 3.041 7.021 1.987 10.145-.815 2.413-6.49 3.61-6.49 3.61s-3.674-.844-10.024-.756c-7.907.111-7.4 5.63-13.72 7.01-5.188 1.135-13-.203-13-.203s.712 2.985 9.488 2.688c-4.738 12.224-20.23 34.469-20.23 34.469s13.133 2.406 20.042 10.156c8.271 9.278 3.059 18.93 3.069 24.281.012 6.786-2.1 12.513 4.634 19.844 6.734 7.33 16.66 5.531 16.66 5.531l-.188 10.719H586.87s-9.572-9.618-19.666-16.094c.275-3.148 2.824-10.971-.72-13.562-7.208-5.27-16.472-4.282-16.472-4.282l1.065 14.282s-3.582 3.254-7.516 8.75-5.355 9.125-5.355 9.125-1.524 10.955 2.13 21.406c1.817 5.198 5.386 5.375 5.386 5.375s10.447-1.045 14.655 2.125c2.583 1.946 2.96 5.139 2.85 7.312H768.53c-.172-2.165.043-5.62 2.787-7.687 4.208-3.17 14.687-2.125 14.687-2.125s3.538-.177 5.355-5.375c3.653-10.451 2.16-21.406 2.16-21.406s-1.452-3.63-5.386-9.125c-3.933-5.496-7.515-8.75-7.515-8.75l1.096-14.282s-9.265-.987-16.472 4.282c-3.544 2.59-.995 10.414-.72 13.562-10.094 6.476-19.698 16.094-19.698 16.094h-21.45l-.189-10.719s9.895 1.8 16.629-5.531c6.733-7.33 4.654-13.058 4.666-19.844.01-5.352-5.234-15.003 3.037-24.281 6.91-7.75 20.042-10.156 20.042-10.156s-15.491-22.245-20.23-34.469c8.777.297 9.49-2.688 9.49-2.688s-10.72.604-15.91-.53c-6.319-1.382-10.005-7.39-17.911-7.5-6.35-.09-6.579-.004-6.579-.004s-3.479-.36-5.136-2.916c-1.494-2.305-1.13-8.6 1.456-10.681 5.22-4.203 24.765.696 31.498-.335-5.948-3.855-9.87-2.017-19.19-9.63-9.32-7.613-8.682-11.523-15.72-21.622-7.743-11.11-8.582-9.296-14.186-10.202-6.613-2.931-3.27-10.35-3.27-10.35s9.698-2.433 20.041 5.02c8.718 6.283 17.177 13.36 26.837 17.844 7.333 3.404 15.032 2.875 15.032 2.875s-1.468-14.563-6.451-18.218c-3.082-2.26-7.494-.883-11.086-2.5-5.775-7.86-6.821-3.208-10.553-12.5 1.517-2.856 3.195-3.623 6.263-4.813 2.604-1.01 8.048-2.344 8.048-2.344s4.41-4.956 7.171-5.875c2.71-.901 15.031-1.25 15.031-1.25s6.06-7.306 7.328-6.25c5.541 4.618 27.37 48.922 37.923 74.813 8.103 19.88 14.96 38.721 19.353 61.437 4.393 22.717 4.436 38.554 3.382 40-1.126 1.545-11.02-1.581-13.591 6.594-3.667 11.666 6.435 20.449 6.451 23.406.016 2.958-3.486 3.77-10.397 18.032-5.264 10.863-6.754 17.45-7.17 20h27.964V245.032z" fill="#ccc"/><path d="M611.289 419.849h-12.732s-.161-11.386.98-12.767c1.594-5.983 12.766-13.343 20.32-20.566 7.556-7.224 16.894-19.342 16.894-19.342l-.49 13.955c-13.878 14.32-24.483 21.546-24.483 21.546zm105.093 0h12.73s.163-11.386-.978-12.767c-1.595-5.983-12.767-13.343-20.322-20.566-7.555-7.224-16.893-19.342-16.893-19.342l.49 13.955c13.879 14.32 24.483 21.546 24.483 21.546z" fill="#ddb523" stroke="#8c5700"/><path fill="#fff" stroke="#767479" d="M692.579 264.782h5.238v26.735h-5.238z"/><path d="M694.517 249.877c-.082 0-.422 2.658-1.94 6.032-1.703 3.785 1.23 6.56 3.09 8.785.031-1.924.538-3.572 1.253-6.498.965-3.952-1.191-5.895-2.403-8.319z" fill="#d23225" stroke="#4a0000"/><path fill="#fff" stroke="#767479" d="M623.503 264.61h5.238v26.734h-5.238z"/><path d="M625.44 249.704c-.081 0-.42 2.658-1.94 6.032-1.702 3.785 1.231 6.56 3.09 8.785.032-1.924.539-3.572 1.254-6.498.965-3.952-1.191-5.895-2.403-8.319z" fill="#d23225" stroke="#4a0000"/><path fill="#fff" stroke="#767479" d="M658.248 263.134h5.238v26.735h-5.238z"/><path d="M655.643 286.897c.347 6.663 3.004 10.658 3.004 10.658s-3.745 9.27-2.903 20.601h10.267c.046-13.934-2.556-20.774-2.556-20.774s2.484-4.287 2.657-10.485z" fill="#ddb523" stroke="#8c5700"/><path d="M631.888 350.334s7.002-5.464 6.448-19.217c14.604-2.514 12.872-15.136 21.852-15.234 9.274-.102 10.176 11.47 22.927 15.234 1.078 13.702 8.956 19.217 8.956 19.217z" fill="#ddb523" stroke="#8c5700"/><path fill="#ddb523" d="M642.722 352.784h39.649v70.275h-39.65z"/><path fill="#ddb523" stroke="#8c5700" d="M636.517 422.931v-66.53h6.115v66.53zm44.942.016V356.4h6.115v66.547z"/><path d="M662.855 372.339c-10.866.016-20.164 1.84-27.347 5.307l.41 7.255c6.11-3.208 14.579-5.747 26.218-5.781 10.657-.032 19.177 2.59 25.875 6.156v-8.187c-6.805-2.823-15.116-4.766-25.156-4.75zm-.232 21.213c-10.865.016-19.818 1.147-27 4.615l.063 7.947c6.11-3.207 14.58-5.747 26.218-5.781 10.657-.032 19.178 2.59 25.875 6.156v-8.187c-6.805-2.822-15.115-4.766-25.156-4.75z" fill="#ddb523" stroke="#8c5700"/><path d="M604.991 452.617h117.275s-20.427-39.778-60.719-39.418c-40.291.36-56.556 39.418-56.556 39.418z" fill="#d9251c" stroke="#8c5700"/><path d="M604.889 454.876v71.843l58.781-67.562 58.813 67.562v-71.843l-58.813.312-58.781-.312z" fill="#ddb523"/><path d="M609.118 479.772s1.598 1.297 2.943 4.328c1.345 3.031-1.333 5.59 1.558 10.042 2.892 4.452 11.013 2.992 12.638-1.212 1.625-4.205.44-7.415-2.943-7.964-3.382-.549-5.412 2.927-5.713 4.328-.882-.063-.044-4.503-2.423-6.665-2.38-2.163-6.06-2.857-6.06-2.857z" fill="#ddb523" stroke="#8c5700"/><path d="M614.784 528.27h-10.283s5.26-15.116 9.794-21.545c5.532-7.846 16.159-12.241 16.159-12.241s-.632-7.929 2.693-12.977c4.534-6.885 12.836-8.72 18.362-15.669 2.122-2.668 1.959-10.038 1.959-10.038h10.283v5.386s-.872 5.218-3.917 8.57c-4.903 5.394-16.173 13.033-19.097 18.607-3.386 6.454-2.694 13.466-2.694 13.466s-7.538-.612-15.669 7.834c-4.646 4.826-7.59 18.608-7.59 18.608z" fill="#ddb523" stroke="#8c5700"/><path d="M712.718 528.27H723s-5.26-15.116-9.794-21.545c-5.533-7.846-16.159-12.241-16.159-12.241s.631-7.929-2.693-12.977c-4.535-6.885-12.836-8.72-18.362-15.669-2.123-2.668-1.96-10.038-1.96-10.038H663.75v5.386s.872 5.218 3.917 8.57c4.903 5.394 16.173 13.033 19.097 18.607 3.386 6.454 2.693 13.466 2.693 13.466s7.539-.612 15.67 7.834c4.645 4.826 7.59 18.608 7.59 18.608z" fill="#ddb523" stroke="#8c5700"/><path fill="#ddb523" stroke="#8c5700" d="M606.397 452.596h115.402v5.161H606.397z"/><path fill="#ddb523" stroke="#8c5700" stroke-width="1.008" d="M601.459 419.794h6.794V528.02h-6.794z"/><path d="M719.671 479.54s-1.598 1.297-2.943 4.328c-1.345 3.03 1.334 5.589-1.558 10.04-2.892 4.453-11.013 2.994-12.638-1.211s-.439-7.415 2.943-7.964c3.382-.549 5.413 2.927 5.713 4.328.883-.063.044-4.502 2.424-6.665 2.38-2.162 6.06-2.856 6.06-2.856zm.349-59.628h6.622V528.02h-6.621zm-85.106 41.856s3.789.046 4.5 3.808c.713 3.763-3.506 5.117-5.815 2.646-2.643-2.828-5.135-9.393-14.613-8.359-9.478 1.035-12.317 17.09-.692 18.698 8.342 1.153 7.963-6.406 7.963-6.406s-3.579 3.235-6.751 1.904c-3.173-1.33-3.069-8.528 3.462-8.136 6.531.391 7.768 7.666 14.542 7.79 6.775.124 8.102-6.151 6.06-10.041-2.043-3.89-8.656-1.904-8.656-1.904z" fill="#ddb523" stroke="#8c5700"/><path d="M693.866 462.109s-3.79.046-4.501 3.808c-.712 3.763 3.506 5.117 5.815 2.646 2.644-2.828 5.135-9.393 14.613-8.359 9.478 1.035 12.317 17.09.693 18.698-8.343 1.153-7.964-6.406-7.964-6.406s3.58 3.235 6.752 1.904c3.172-1.33 3.068-8.528-3.463-8.136-6.53.392-7.768 7.666-14.542 7.79-6.774.124-8.102-6.151-6.06-10.041 2.043-3.89 8.657-1.904 8.657-1.904zm-103.501 65.939h154.853v16.87H590.365z" fill="#ddb523" stroke="#8c5700"/><path d="M304.083 485.281a4.774 4.285 0 1 1-9.549 0 4.774 4.285 0 1 1 9.549 0z" transform="matrix(.88624 0 0 .93038 403.052 83.629)" fill="#ddb523" stroke="#8c5700" stroke-width="1.101"/><path d="M670.27 535.126a2.02 1.836 0 1 1-4.04 0 2.02 1.836 0 1 1 4.04 0z" fill="#8c5700"/><path d="M668.403 543.458c3.183-5.305 11.465-13.388 19.954-12.976 5.215-.065 7.337 3.466 6.977 6.977-.36 3.512-4.23 6.828-8.202 5.51-3.972-1.32-3.917-5.142-3.917-5.142s2.463 2.433 5.142 1.591c2.678-.842 3.495-6.157-1.837-5.998-5.742.17-13.098 6.553-18.117 10.038zm46.499.734c3.183-5.305 11.465-13.388 19.953-12.976 5.216-.064 7.338 3.466 6.978 6.978-.36 3.511-4.23 6.828-8.202 5.509-3.972-1.32-3.917-5.142-3.917-5.142s2.463 2.434 5.141 1.592c2.68-.843 3.496-6.158-1.836-5.999-5.742.171-13.098 6.554-18.117 10.038zm-46.602-.734c-3.184-5.305-11.465-13.388-19.954-12.976-5.216-.065-7.338 3.466-6.978 6.977.36 3.512 4.23 6.828 8.202 5.51 3.972-1.32 3.917-5.142 3.917-5.142s-2.462 2.433-5.141 1.591c-2.679-.842-3.496-6.157 1.836-5.998 5.743.17 13.098 6.553 18.118 10.038z" fill="#ddb523" stroke="#8c5700"/><path d="M691.652 544.192c3.184-5.305 11.465-13.388 19.954-12.976 5.216-.064 7.338 3.466 6.978 6.978-.36 3.511-4.23 6.828-8.202 5.509-3.972-1.32-3.917-5.142-3.917-5.142s2.462 2.434 5.141 1.592c2.679-.843 3.496-6.158-1.836-5.999-5.743.171-13.098 6.554-18.118 10.038zm-46.489 0c-3.184-5.305-11.465-13.388-19.954-12.976-5.216-.064-7.338 3.466-6.978 6.978.36 3.511 4.23 6.828 8.202 5.509 3.973-1.32 3.918-5.142 3.918-5.142s-2.463 2.434-5.142 1.592c-2.678-.843-3.496-6.158 1.836-5.999 5.743.171 13.099 6.554 18.118 10.038z" fill="#ddb523" stroke="#8c5700"/><path d="M621.537 544.192c-3.184-5.305-11.465-13.388-19.954-12.976-5.216-.064-7.338 3.466-6.978 6.978.36 3.511 4.23 6.828 8.202 5.509 3.972-1.32 3.917-5.142 3.917-5.142s-2.463 2.434-5.141 1.592c-2.679-.843-3.496-6.158 1.836-5.999 5.743.171 13.098 6.554 18.118 10.038zm-49.413.861h191.123v16.398H572.124z" fill="#ddb523" stroke="#8c5700"/><path d="M304.083 485.281a4.774 4.285 0 1 1-9.549 0 4.774 4.285 0 1 1 9.549 0z" transform="matrix(.88624 0 0 .93038 403.052 100.155)" fill="#ddb523" stroke="#8c5700" stroke-width="1.101"/><path d="M670.27 551.652a2.02 1.836 0 1 1-4.04 0 2.02 1.836 0 1 1 4.04 0z" fill="#8c5700"/><path d="M668.205 558.16c-3.036-4.556-10.935-11.497-19.03-11.143-4.975-.055-6.999 2.976-6.655 5.992.343 3.015 4.033 5.863 7.822 4.73 3.788-1.133 3.736-4.415 3.736-4.415s-2.349 2.09-4.904 1.367c-2.554-.724-3.334-5.288 1.752-5.151 5.477.147 12.492 5.627 17.279 8.62z" fill="#ddb523" stroke="#8c5700"/><path d="M646.326 559.101c-3.037-4.717-10.939-11.904-19.038-11.538-4.976-.057-7 3.082-6.657 6.205.343 3.122 4.035 6.071 7.825 4.898s3.738-4.572 3.738-4.572-2.35 2.164-4.906 1.415c-2.555-.749-3.335-5.475 1.752-5.334 5.48.153 12.497 5.828 17.286 8.926z" fill="#ddb523" stroke="#8c5700"/><path d="M623.91 559.552c-3.02-5.004-10.874-12.627-18.924-12.238-4.946-.06-6.959 3.269-6.617 6.58.341 3.312 4.01 6.44 7.778 5.196 3.767-1.244 3.715-4.849 3.715-4.849s-2.336 2.295-4.876 1.5c-2.54-.793-3.315-5.806 1.741-5.656 5.446.161 12.422 6.18 17.182 9.467z" fill="#ddb523" stroke="#8c5700"/><path d="M601.263 559.138c-2.972-4.742-10.705-11.966-18.631-11.598-4.87-.058-6.852 3.098-6.516 6.236.336 3.139 3.95 6.103 7.659 4.924 3.709-1.18 3.657-4.595 3.657-4.595s-2.3 2.175-4.8 1.422c-2.501-.753-3.264-5.503 1.714-5.361 5.362.153 12.23 5.857 16.917 8.972zm67.601-.978c3.037-4.556 10.935-11.497 19.03-11.143 4.975-.055 6.999 2.976 6.656 5.992-.344 3.015-4.034 5.863-7.823 4.73-3.788-1.133-3.736-4.415-3.736-4.415s2.35 2.09 4.904 1.367c2.554-.724 3.334-5.288-1.752-5.151-5.476.147-12.492 5.627-17.279 8.62z" fill="#ddb523" stroke="#8c5700"/><path d="M690.743 559.101c3.038-4.717 10.939-11.904 19.038-11.538 4.976-.057 7 3.082 6.657 6.205-.343 3.122-4.035 6.071-7.825 4.898s-3.738-4.572-3.738-4.572 2.35 2.164 4.906 1.415c2.555-.749 3.335-5.475-1.752-5.334-5.479.153-12.497 5.828-17.286 8.926z" fill="#ddb523" stroke="#8c5700"/><path d="M713.16 559.552c3.019-5.004 10.873-12.627 18.923-12.238 4.947-.06 6.959 3.269 6.618 6.58-.342 3.312-4.011 6.44-7.779 5.196-3.767-1.244-3.715-4.849-3.715-4.849s2.336 2.295 4.876 1.5c2.54-.793 3.315-5.806-1.741-5.656-5.446.161-12.422 6.18-17.182 9.467z" fill="#ddb523" stroke="#8c5700"/><path d="M735.806 559.138c2.972-4.742 10.705-11.966 18.632-11.598 4.87-.058 6.851 3.098 6.515 6.236-.336 3.139-3.95 6.103-7.659 4.924-3.709-1.18-3.657-4.595-3.657-4.595s2.3 2.175 4.8 1.422c2.502-.753 3.265-5.503-1.714-5.361-5.362.153-12.23 5.857-16.917 8.972zM689.937 288.97c.519 4.753.946 8.792 2.81 9.28-.012 2.272-.597 6.818-6.594 7.022-7.399.252-10.516-5.153-15.928-5.202-5.413-.049-8.089 2.997-8.479 6.608-.39 3.611 1.367 7.343 6.75 7.25 5.384-.093 6.337-6.707 2.26-7.79-1.359-.362 1.195 3.405-2.416 3.802-3.782.416-4.304-6.193 1.897-6.06 6.201.134 10.907 5.716 17.47 4.505 7.132-1.317 8.62-6.693 9.463-10.134 1.864-.488 2.668-4.528 3.014-9.28z" fill="#ddb523" stroke="#8c5700"/><path d="M660.185 248.23c-.082 0-.421 2.657-1.94 6.031-1.703 3.785 1.23 6.56 3.09 8.785.032-1.924.538-3.572 1.253-6.498.965-3.952-1.19-5.895-2.403-8.319z" fill="#d23225" stroke="#4a0000"/><path d="M644.784 341.159s9.59 7.343 16.658 7.444c7.067.1 17.016-7.098 17.016-7.098s-4.877-7.023-7.523-10.388c-3.182-4.047-4.773-11.911-10.03-11.772-5.038.134-6.033 7.805-8.956 11.772-2.44 3.312-7.165 10.042-7.165 10.042z" fill="#ddb523" stroke="#8c5700"/><path d="M639.231 350.754s5.019-5.832 5.016-16.1c3.135-.096 4.318-.216 6.985 0 .495 10.21-3.224 16.1-3.224 16.1zm44.176 0s-5.019-5.832-5.016-16.1c-3.135-.096-4.318-.216-6.985 0-.495 10.21 3.224 16.1 3.224 16.1zm-24.715-24.717v15.025c.507 2.816 4.994 2.755 5.31 0l.127-15.025c-.76-2.265-4.614-2.388-5.437 0z" fill="#ddb523" stroke="#8c5700"/><path fill="#ddb523" stroke="#8c5700" stroke-width=".997" d="M638.15 331.03h45.285v4.76H638.15z"/><path fill="#ddb523" stroke="#8c5700" stroke-width="1.053" d="M631.264 350.292h61.495v6.342h-61.495z"/><path fill="#ddb523" stroke="#8c5700" stroke-width="1.039" d="M631.29 422.931v-71.794h6.709v71.794z"/><path fill="#ddb523" stroke="#8c5700" stroke-width="1.041" d="M685.923 422.931v-72.093h6.709v72.093z"/><path d="M735.076 279.657a5.819 5.819 0 0 0-4.843 9.031l-9.094 12.938-5.688-4.094c.12-.462.157-.938.157-1.438 0-3.205-2.576-5.812-5.782-5.812a5.819 5.819 0 0 0-5.812 5.812 5.819 5.819 0 0 0 5.812 5.813c1.11 0 2.119-.335 3-.875l5.844 4.125-87.781 125.031 2.948 2.172 88.208-124.828 6.594 4.656a5.72 5.72 0 0 0-.156 1.406c0 3.206 2.576 5.813 5.781 5.813a5.819 5.819 0 0 0 5.812-5.813 5.819 5.819 0 0 0-5.812-5.812 5.71 5.71 0 0 0-3.188.969l-6.562-4.688 9.312-12.937c.408.09.816.156 1.25.156a5.819 5.819 0 0 0 5.813-5.813 5.819 5.819 0 0 0-5.813-5.812z" fill="#ddb523" stroke="#8c5700"/><path d="M587.76 275.37a4.027 4.027 0 0 0-4.03 4.031 4.027 4.027 0 0 0 4.03 4.031c.097 0 .187-.024.282-.03l5.031 7.25-5.406 3.687a4 4 0 0 0-1.594-.313c-2.23 0-4.062 1.802-4.062 4.031 0 2.23 1.833 4.032 4.062 4.032a4.027 4.027 0 0 0 4.032-4.032c0-.107-.024-.207-.032-.312l5.375-3.688 7 10.094c-.403 1.14-.355 2.532.282 3.844.916 1.886 2.735 2.997 4.437 2.906l2.031 2.906c-.42 1.89.063 4.51 1.47 7 1.883 3.336 4.79 5.358 7 5.063l1.968 2.812v.032c-.284 1.21-.02 2.709.844 4.062.97 1.52 2.43 2.427 3.78 2.531l15.876 22.688c.358 2.34 2.006 5.948 4.594 9.625 2.566 3.646 5.373 6.449 7.468 7.625l1.782 2.531c-.055 1.049.089 2.808.968 4.063 1.088 1.552 2.593 2.79 4.094 3.156l16.125 23.031c.013.02.019.043.031.063 5.184 7.76 15.47 23.25 15.47 23.25l2.648-2.027s-20.62-31.373-31.18-46.255c.18-1.52-.095-3.176-1.156-4.562-1.009-1.317-2.432-2.788-4.157-3.031l-1.5-2.125v-.032c-.323-2.332-2.03-5.987-4.656-9.718-2.556-3.631-5.37-6.41-7.469-7.594l-15.968-22.781c.351-1.242.09-2.835-.813-4.25-1.018-1.595-2.561-2.535-3.969-2.563l-2.218-3.156c.45-1.892-.015-4.511-1.438-7.031-1.895-3.356-4.817-5.385-7.031-5.063l-1.625-2.344c.51-1.18.464-2.687-.219-4.093-.846-1.743-2.45-2.853-4.031-2.938l-7.031-10.062 5.125-3.5c.475.196.984.312 1.53.312 2.23 0 4.063-1.802 4.063-4.031 0-2.23-1.833-4.063-4.062-4.063-2.23 0-4.031 1.833-4.031 4.063 0 .139.017.27.03.406l-5 3.406-5.062-7.25a3.993 3.993 0 0 0 .344-1.656 4.027 4.027 0 0 0-4.031-4.031zm43.65 13.6c-.52 4.753-.947 8.792-2.81 9.28.01 2.272.596 6.818 6.594 7.022 7.398.252 10.515-5.153 15.928-5.202 5.412-.049 8.088 2.997 8.478 6.608.39 3.611-1.367 7.343-6.75 7.25-5.383-.093-6.337-6.707-2.26-7.79 1.359-.362-1.195 3.405 2.416 3.802 3.782.416 4.304-6.193-1.897-6.06-6.201.134-10.907 5.716-17.47 4.505-7.132-1.317-8.62-6.693-9.462-10.134-1.865-.488-2.668-4.528-3.015-9.28z" fill="#ddb523" stroke="#8c5700"/><path d="M501.222 565.282v31.844s-.689 12.967 9.344 21.906c10.032 8.939 25.906 8.219 25.906 8.219h98.687s14.078-.105 22.782 9.562c6.879 7.641 8.661 13.84 9.125 16.125v1s.045-.202.093-.5c.05.298.094.5.094.5v-1c.464-2.285 2.277-8.484 9.156-16.125 8.704-9.668 22.782-9.562 22.782-9.562h98.687s15.874.72 25.906-8.219c10.033-8.939 9.344-21.906 9.344-21.906v-31.844H667.066zm106.219 4.844l8.002 9.651c6.46-.087 11.717.38 14.716.786 11.578 1.565 12.525 4.313 17.438 5.5 4.383 1.06 8.562 1.469 8.562 1.469s-5.334 4.06-8.312 5.375c-2.979 1.315-9.313 2.437-9.313 2.437s6.426.186 8.563 1c2.136.815 4.156 2.938 4.156 2.938s-5.082.522-7.594.969c-8.323 1.48-16.108 5.406-24.718 5.625-3.606.091-8.047.202-12.72.281-.968 1.051-2.315 2.494-2.5 3.969-.184 1.474 1.75 4.687 1.75 4.687s-9.282 1.442-14.218 1.375c-4.936-.067-15.219-1.906-15.219-1.906l4.344-8.125c-.852-.017-1.731-.009-2.562-.031-5.727-.154-12.677-.656-19.563-1.219l-3.937 7.344-15.188-2.219 2.875-6.437c-6.134-.456-10.426-.82-13.406-.407-2.98.414-6.001 2.49-8.813 4.407-2.81 1.916-8.312 7.093-8.312 7.093s-.571-6.737 1.219-10.031c1.79-3.294 6.125-5.875 6.125-5.875s-3.713-3.038-5.407-5.875c-1.693-2.836-4.406-11.25-4.406-11.25s14.709 8.246 22.531 8.313c4.506.038 9.108-.506 13.75-1.344l-5.406-5.75 18.594-8.813 6.721 10.517c6.475-.994 12.105-2.11 18.029-2.58l-5.406-9.906zm108.437 0l28.938 1.968-5.108 9.56c4.03.757 13.694 2.653 17.103 3.1l6.91-10.69 18.157 8.812-5.281 5.75c4.534.838 9.036 1.382 13.437 1.343 7.642-.066 22-8.312 22-8.312s-2.627 8.413-4.28 11.25c-1.655 2.836-5.282 5.875-5.282 5.875s4.22 2.581 5.969 5.875c1.748 3.294 1.187 10.031 1.187 10.031s-5.155-5.08-8.125-7.094c-2.675-1.813-5.016-3.897-8.594-4.406-2.244-.32-7.101-.05-13.093.406l2.812 6.438-14.844 2.219-3.843-7.344c-6.726.563-13.531 1.065-19.125 1.219-.812.022-1.668.014-2.5.03l4.25 8.126s-10.054 1.84-14.875 1.906c-4.822.067-13.875-1.375-13.875-1.375s1.899-3.213 1.718-4.687c-.18-1.475-1.522-2.918-2.468-3.97a1400.69 1400.69 0 0 1-12.407-.28c-8.41-.22-16.026-4.144-24.156-5.625-2.453-.447-7.406-.97-7.406-.97s1.975-2.122 4.062-2.937c2.087-.814 8.344-1 8.344-1s-6.184-1.122-9.094-2.437c-2.909-1.315-8.093-5.375-8.093-5.375s4.062-.41 8.343-1.469c4.8-1.187 5.754-3.935 17.063-5.5 2.93-.405 8.377-.873 14.687-.786z" fill="#056a9e"/><path d="M616.222 581.282c-10.02.127-22.054 1.074-31.531 2.031-14.16 1.43-42.562 7.883-51.25 7.938-5.122.032-9.962-1.472-13.344-2.75-3.066-1.16-8.813-4.344-8.813-4.344s1.59 5.396 3.625 8.5c2.036 3.104 4.764 4.55 5.938 6.219-1.567 1.238-2.13.908-5.281 4.031-3.151 3.122-2.907 9.094-2.907 9.094s3.246-3.376 6.407-5.563c3.16-2.187 6.455-4.18 9.875-4.594 3.42-.412 39.892 2.836 52.28 2.938 12.39.102 34.968.196 40.157-.531 6.87-.964 13.413-3.75 20.25-5.032 2.23-.417 6.75-.843 6.75-.843s-.87-.784-3.625-1.407c-2.754-.623-9.202.29-10.219-1.218 1.544-2.066 7.191-2.178 10.907-3.438 3.715-1.26 7.28-3.812 7.28-3.812s-3.939-.703-5.874-1.219c-5.343-1.426-6.283-3.432-15.781-5.188-3.562-.658-8.832-.888-14.844-.812zm10.918.365c1.046.947-7.406 5.506-7.742 12.51-.247 5.151 6.16 9.136 5.113 9.827-1.048.69-7.242-4.378-6.893-9.726.478-7.325 8.476-13.557 9.522-12.61zm-7.98.791c.944 1.02-7.295 5.007-8.063 11.469-.763 6.42 5.2 9.209 4.187 10.156-1.011.947-6.594-4.447-6.093-9.656.677-7.046 9.024-12.99 9.968-11.969zm14.093 3.813c1.482 0 2.688 1.053 2.688 2.343 0 1.291-1.206 2.313-2.688 2.313-1.482 0-2.687-1.022-2.687-2.313 0-1.29 1.205-2.343 2.687-2.343zm-31.187 2.5l4.312 7.531-8.625.25zm-8.657.75l3.782 7-7.563.218zm-8.125.593l3.47 6.594-6.938.031zm-8.156.844l3.594 5.969-7.156.187zm-7.906.656l3.25 5.532-6.75.093zm-8.219.688l2.906 4.969-6 .187zm-8.094.75l2.875 4.406-5.78.188zm-8.093.625l2.843 3.969-5.906.218zm-7.75.719l2.25 3.468-4.657.157zm170.418-13.149c9.776.126 21.52 1.074 30.767 2.03 13.817 1.43 41.53 7.883 50.008 7.938 4.998.033 9.72-1.471 13.02-2.75 2.992-1.159 8.6-4.343 8.6-4.343s-1.552 5.396-3.538 8.5c-1.986 3.104-4.648 4.55-5.794 6.218 1.53 1.239 2.08.91 5.154 4.032s2.836 9.093 2.836 9.093-3.167-3.375-6.251-5.562c-3.085-2.187-6.299-4.181-9.636-4.594-3.337-.413-38.925 2.835-51.014 2.938-12.09.102-34.12.196-39.183-.532-6.704-.963-13.088-3.75-19.76-5.03-2.176-.419-6.586-.845-6.586-.845s.85-.783 3.537-1.406c2.688-.623 8.98.29 9.971-1.219-1.506-2.066-7.016-2.177-10.642-3.437-3.625-1.26-7.105-3.813-7.105-3.813s3.844-.702 5.733-1.218c5.213-1.426 6.13-3.432 15.399-5.188 3.476-.658 8.618-.889 14.484-.812zm-10.654.365c-1.02.946 7.227 5.506 7.554 12.51.241 5.15-6.01 9.136-4.988 9.827 1.022.69 7.066-4.378 6.725-9.727-.466-7.325-8.27-13.556-9.29-12.61zm7.788.79c-.922 1.021 7.117 5.008 7.867 11.47.744 6.42-5.074 9.209-4.086 10.156.987.947 6.434-4.447 5.946-9.656-.661-7.047-8.806-12.99-9.727-11.97zm-13.753 3.813c-1.446 0-2.622 1.053-2.622 2.344 0 1.29 1.176 2.313 2.622 2.313s2.623-1.022 2.623-2.313c0-1.29-1.177-2.344-2.623-2.344zm30.432 2.5l-4.208 7.532 8.416.25zm8.446.75l-3.69 7 7.38.22zm7.929.594l-3.385 6.594 6.77.031zm7.958.844l-3.506 5.969 6.982.187zm7.715.656l-3.171 5.531 6.586.094zm8.02.688l-2.836 4.968 5.854.188zm7.897.75l-2.805 4.406 5.64.187zm7.898.625l-2.775 3.968 5.763.22zm7.562.718l-2.196 3.47 4.544.155z" fill="#e6e6e6"/><path d="M604.373 411.406c-2.485-.156-4.041 4.857-12.119 5.142 0 0-.87-9.965-.865-15.662 7.348.193 20.176-4.828 25.795 1.705 2.684 3.121 2.903 11.248-1.039 12.305-8.256 2.214-9.288-3.334-11.772-3.49zm118.74-.8c2.49.025 3.331 5.31 11.713 6.01 0 0 1.138-10.777 1.547-16.46-7.342-.34-19.501-5.77-25.396.727-2.703 2.98-3.713 11.006.141 12.347 8.074 2.809 9.506-2.649 11.995-2.624z"/></svg>