<svg xmlns="http://www.w3.org/2000/svg" width="496mm" height="331mm" viewBox="0 0 496 331" shape-rendering="geometricPrecision" text-rendering="geometricPrecision" image-rendering="optimizeQuality" fill-rule="evenodd" clip-rule="evenodd" xmlns:cgf="https://coding.garden/flags"><metadata id="cgf-metadata">

<cgf:flag>
  <cgf:name></cgf:name>
  <cgf:route>ru/niz</cgf:route>
  <cgf:aspect-ratio>1.498489425981873</cgf:aspect-ratio>
</cgf:flag>

</metadata><defs><style>.str1{stroke:#70614e;stroke-linecap:round;stroke-linejoin:round}.str1,.str11{stroke-width:.5}.str11,.str2,.str3,.str4{stroke-linecap:round;stroke-linejoin:round}.str11{stroke:#c2c1c1}.str2{stroke-width:.6}.str3{stroke:#007cc3}.str3,.str4{stroke-width:.6}.str2{stroke:#70614e}.str4{stroke:#0f488e}.fil4{fill:none}.fil3{fill:#007cc3}.fil6{fill:#0a0b0c}.fil2{fill:#f8c300}.fil0{fill:#fff}.fil11{fill:#eff0f2}</style></defs><g id="Слой_x0020_1"><path class="fil0" stroke="#fff" stroke-width=".076" d="M0 0h496v331H0z"></path><path class="str1" d="M248.001 115.31c13.845 0 25.074 1.974 25.074 4.408 0 2.435-11.228 4.409-25.074 4.409-13.845 0-25.074-1.974-25.074-4.409 0-2.434 11.229-4.408 25.074-4.408z" fill="#a92926"></path><path class="fil2 str2" d="M199.068 212.997c5.052.321.932-6.538 5.195-11.297-4.082-1.335-3.852 2.42-7.21 2.887l2.015 8.41z"></path><path class="fil3 str3" d="M307.875 143.391c1.66-2.471 5.102-3.474 2.273-6.748.998 1.108.593 2.7-.927 3.723l-1.346 3.025z"></path><path class="fil3 str3" d="m297.196 156.236 9.36-.011c-.26-.836-.361-1.873-.36-3.289.003-1.253-.079-2.27-.221-3.11-.419-2.49-1.376-3.408-2.32-4.217 1.35-2.443-.244-4.261 1.686-4.238 4.49.056 6.477-3.065 4.718-4.823-.832-.825-2.491-1.349-5.112-1.101l-.121.013.002-.004c-4.784.699-5.69 5.072-7.432 6.676-1.912 1.763-7.905 4.693-.454 13.732.09.109.174.234.254.372zm9.09 45.774a19.466 19.466 0 0 0 1.028-5.81c.127-5.645-.879-5.194-1.052-7.365-.142-1.773 2.958-2.407 5.079-5.513.047-.07.093-.14.138-.212l.032-.052c.043-.07.085-.141.126-.214 2.257-4.022-.927-8.895-5.602-12.527-.357 1.808-2.962 8.758-6.735 11.925-2.043 1.715-1.676 7.012-.79 10.415.591 2.265.395 3.036.295 5.206a12.612 12.612 0 0 1-.793 3.932l8.274.215z"></path><path class="fil4 str4" d="M306.036 170.31c-.351 1.798-2.958 8.761-6.736 11.933-2.043 1.715-1.676 7.012-.79 10.415.591 2.264.395 3.035.295 5.206a8.004 8.004 0 0 0 .427 3.06"></path><path class="fil2 str2" d="m257.495 235.205 7.6 9.557 3.355-11.828c.44-4.1-1.1-4.405-3.344-2.643-1.198.94-1.808-2.471-3.417-1.607-1.087.583-.061 3.26-.874 4.047-1.079 1.047-4.427-1.716-3.32 2.474z"></path><path class="fil4 str2" d="M264.931 232.458c-1.67 1.18-3.003 3.176-4.093 5.76"></path><path class="fil2 str2" d="m272.375 251.841 9.984 1.342-.587 10.32c-.143 3.466-2.353 5.487-4.033 3.525-1.539-1.798-.43-4.01-2.96-3.73-3.625.4-.34-3.984-2.296-4.065-2.063-.085-2.432-.683-1.813-3.233.438-1.808 1.289-3.69 1.705-4.159z"></path><path class="fil2 str2" d="m272.385 251.836 1.84-4.71c2.232.395 4.878.37 6.7 1.09 3.631 1.434 1.842 2.858 3.174 3.32 3.078 1.07 4.558 1.71 4.193 4.014-.47 2.96.826 4.647-.097 5.93-.84 1.167-2.198.222-3.836.074-.95-.085-2.755 1.253-3.8.808-1.103-.47-.365-2.816-1.006-3.378-.82-.717-2.076.795-2.9.123-.82-.669-.077-2.995-.717-4.37-.748-1.61-2.928 1.732-3.551-2.901z"></path><path class="fil4 str2" d="M273.552 248.847c5.862 1.336 9.172 4.373 11.05 8.366m-7.054-3.831.275-3.066 2.423-.005"></path><path class="fil4 str2" d="m280.329 256.412.207-4.399 1.951.373"></path><path class="fil2 str2" d="m315.069 196.218.829-1.93c-1.552-.623-2.758.405-.829 1.93z"></path><path class="fil2 str2" d="m315.862 194.372-.76 1.753c2.219 1.034 2.926-.807.76-1.753zm-4.374-32.842.007-4.224c-2.951.126-4.229 3.358-.007 4.224z"></path><path class="fil2 str2" d="m311.494 157.452-.006 3.913c4.596.663 5.206-4.027.006-3.913zm.801-34.2 1.872-2.221c-1.804-1.448-4.043-.085-1.872 2.221z"></path><path class="fil2 str2" d="m314.085 121.127-1.709 2.016c2.52 2.259 4.195.105 1.709-2.016zm8.77 113.485 18.572 5.186c.965.784.556 3.11 1.103 3.68 1.885 1.964 2.256 3.731 1.537 4.776-.491.714-2.864.325-4.709-.229-2.106-.631-3.965.12-4.707-.077-1.68-.444-1.738-2.017-3.669-3.762-1.084-.98-2.384-.009-3.297-1.56-1.548-2.628-1.518-4.334-4.83-8.014z"></path><path class="fil4 str2" d="M338.803 245.171c-3.877-3.238-9.908-7.022-15.948-10.56m15.495 7.659-3.411-.049.536 2.732"></path><path class="fil4 str2" d="m330.932 241.881.093-2.274 2.227.232"></path><path class="fil2 str2" d="m322.855 234.612.47-1.179c4.002-.157 4.93-1.648 6.846-2.893 2.757-1.79 1.756 2.145 2.91 2.193 1.323.055 2.494-2.178 3.44-2.644 2.587-1.275 1.967 2.234 3.126 2.274 1.247.043 2.055-1.346 3.631-1.406 1.134-.043.635 1.498 1.34 2.03.698.526 2.668.185 2.562 1.504-.125 1.553-2.741 1.531-3.077 2.648-.46 1.535-.15 3.512-2.556 2.005-3.439-2.154-2.797 3.618-6.188.006-2.696-2.873-4.364 1.277-5.979-.069-2.536-2.113-2.202-2.216-6.525-4.469z"></path><path class="fil4 str2" d="M323.089 234.035c3.426 1.215 11.272 1.43 17.613 1.178m-2.561-1.844-2.764 1.946 2.048 1.945"></path><path class="fil4 str2" d="m330.359 233.164-1.178 1.895 1.127 1.638"></path><path class="fil2 str2" d="m313.509 224.865 1.484 9.467c2.983-.02 2.846-4.925 5.398-7.229 1.103-.996 1.484-2.564.436-3.113-1.633-.856-2.969 1.978-4.933-.152-.684-.741-1.7-.872-2.385 1.027zm-3.776-12.78.947-1.42c3.364-.376 11.14-2.27 13.377-1.643 2.798.783.099 1.994 5.123 5.826 1.85 1.412 1.675 5.678 1.03 7.437-.805 2.2-2.643 2.098-3.049.986-1.313-3.602-3.135 1.817-3.8-2.826-.534-3.72-3.102 1.265-4.12-2.07-1.71-5.59-2.853.195-4.3-2.514-1.728-3.234-2.163-3.663-5.208-3.776z"></path><path class="fil4 str2" d="M310.701 210.654c6.596-1.103 11.755 2.026 14.662 6.45m-4.871-2.228-1.472-3.253 1.843-.088"></path><path class="fil4 str2" d="m316.548 213.159-.753-2.517 1.078-.452m7.833 4.678-2.138-.976.983 2.99"></path><path class="fil2 str2" d="M322.671 201.104c2.334-5.904.141-7.26-1.119-4.732-.725 1.455-2.887-.58-3.305 2.012-.58 3.595-2.276.308-2.168 4.925l6.592-2.205z"></path><path class="fil2 str2" d="m311.607 208.988-.9 1.689c1.366-.782 2.831-1.9 4.09-1.771 3.961.405 2.125-2.837 6.14-1.196 3.564 1.456 2.257-3.913 6.31-.045 2.142 2.046 2.889-.882 3.154-2.776.168-1.203 2.624-1.97 2.508-3.607-.163-2.28-3.91.263-4.254-2.101-.238-1.633-2.007-1.803-2.785-.546-3.322 5.369-2.883-3.492-5.733.945-2.014 3.135-4.84-1.263-4.78 3.906.034 2.958.139 2.51-3.75 5.502z"></path><path class="fil4 str2" d="M311.278 209.605c7.18-3.043 8.209-7.13 15.655-6.356m-5.47 3.155-2.367-1.473 1.999-2.367"></path><path class="fil4 str2" d="m324.876 204.149-1.051-.919.701-.307"></path><path class="fil2 str2" d="m319.915 176.354 1.817-2.305c-1.648-1.133-3.599-.133-1.817 2.305z"></path><path class="fil2 str2" d="m317.605 175.87.702.51c15.442-23.11 8.627-22.136 7.88-20.656-1.745 3.453-2.631.238-3.629 2.79-1.075 2.752-2.068.31-2.298 2.73-.448 4.712-3.064.606-2.62 4.257.698 5.724.2 7.714-.035 10.369z"></path><path class="fil2 str2" d="m317.605 175.87.729.473c1.438-3.436 2.462-2.96 5.032-2.689 3.747.395.714-2.8 2.727-2.664 1.317.088 1.266 1.171 3.339 1.252 2.493.098.777-3.778 1.553-4.235 1.19-.7 2.092 1.243 3.443.755 2.329-.842-1.478-2.945 1.108-3.412 2.243-.404 2.571-3.435-1.421-2.532-1.928.436-1.342-2.78-3.924-1.41-2.948 1.562-2.804-1.003-4.06.732-3.159 4.363-3.09.615-4.423 2.58-2.701 3.984-.692 5.152-4.103 11.15z"></path><path class="fil2 str2" d="m321.659 174.157-1.654 2.083c2.304 1.817 3.926-.397 1.654-2.083z"></path><path class="fil2 str2" d="m318.218 187.025 9.189-2.082c.208-1.192 1.02-1.777 1.336-2.46 1.938-4.201-3.365-.108-1.011-4.334 1.04-1.867-.876-2.949-1.662-1.882-3.163 4.3-3.107-1.774-4.942 1.936-1.967 3.975-3.935 4.222-2.91 8.822z"></path><path class="fil4 str2" d="M325.277 179.299c-2.532 2.796-3.603 4.609-4.785 7.21"></path><path class="fil2 str2" d="m314.127 189.569.287 1.147c1.47-.126 2.28-.13 3.674.857 1.898 1.342 1.438-1.508 4.939.838 2.993 2.006 3.309-1.545 5.233-1.518 4.373.06 2.652-2.94.968-3.28-2.622-.528-.26-3.778-3.203-2.807-6.34 2.09-2.476-1.426-5.556-.354-2.513.876-2.493 4.247-6.342 5.117z"></path><path class="fil4 str2" d="M314.298 190.133c5.103-1.27 7.284-2.387 13.011-1.11m-6.506.256-1.643-.394 1.051-.788"></path><path class="fil4 str2" d="m325.27 189.345-1.248-.854 1.117-.263"></path><path class="fil2 str2" d="M296.932 212.997c-5.052.321-.932-6.538-5.195-11.297 4.082-1.335 3.852 2.42 7.21 2.887l-2.015 8.41zm6.577-42.796.343 10.29c.906-.628 5.548-14.564-.343-10.29z"></path><path class="fil4 str2" d="M330.132 164.992c-5.935 4.829-8.148 3.04-12.176 11.125m11.314-11.756-.789 1.874 1.529-.148"></path><path class="fil4 str2" d="m326.26 166.494-2.374 2.494 3.215.155"></path><path class="fil2 str2" d="m306.788 151.49 15.172-4.87c7.755 4.367 1 3.292 3.52 5.225.866.663 1.118 3.697-2.882 1.959-3.735-1.623-1.157 2.177-5.082 1.585-6.366-.96-1.975-5.53-10.728-3.899z"></path><path class="fil2 str2" d="m306.172 151.78-.056-1.52c2.414-.99 4-3.614 5.375-6.501.809-1.696 1.746 1.586 4.514-3.052 1.262-2.114 1.784.198 5.49-1.653 2.533-1.265 2.538 1.679 5.823 1.225 5.294-.732 4.333 5.127.934 4.901-5.853-.39.112 5.91-5.826 4.336-8.498-2.252-.68 4.886-7.49 3.245-5.025-1.212-6.149-1.165-8.764-.981z"></path><path class="fil4 str2" d="M323.935 143.205c-6.68-.395-10.87 6.32-17.791 7.815m14.857-5.956-4.261.316 1.499-2.683"></path><path class="fil4 str2" d="m315.311 150.216-2.84-2.052 1.183-1.499"></path><path class="fil2 str2" d="m310.906 135.261-.188-.634 9.786-4.68c.906-.198 1.985.363 2.84.276 3.07-.31 2.905-2.036 4.713-2.013 1.556.021.876 2.446 1.868 2.767 2.179.706 2.846 2.54-2.164 2.944-2.942.237-2.937 3.056-6.525 1.188-3.737-1.947-3.989-1.737-10.33.152z"></path><path class="fil4 str2" d="M319.99 132.238c1.546-.066 2.213.496 5.215-.36"></path><path class="fil2 str2" d="m310.685 134.595.263.7c5.552-2.256 8.377-2.961 10.194-3.317 2.743-.537-.826-1.926 2.637-3.755 2.481-1.31-1.001-3.182.42-5.604.971-1.655-.709-3.619-2.158-1.738-1.894 2.458-5.12-1.301-5.264 2.283-.287 7.155-2.712 1.822-3.818 4.434-.786 1.855 1.524 4.495-2.274 6.997z"></path><path class="fil4 str2" d="M310.832 134.929c9.794-5.9 6.86-7.224 10.55-11.043m-1.923 6.902-2.366-.493.592-2.613"></path><path class="fil4 str2" d="m321.431 127.386-2.169-.394v-1.676"></path><path class="fil2 str2" d="m309.691 124.5.733-.282-7.715-14.327c-5.076-4.47-6.072-.71-5.075.26 1.847 1.797.106 3.46 1.87 4.11 4.18 1.54-.178 3.2 2.825 3.943 4.577 1.134 5.847-.095 7.362 6.296z"></path><path class="fil2 str2" d="m309.693 124.482.732-.281c-1.763-8.637 3.445-10.396 3.769-12.58.542-3.663-3.197.027-2.577-4.572.641-4.76-3.686-.928-5.025-4.065-1.17-2.742-4.156-3.037-3.577.065.313 1.684-.982 2.393-.522 3.9 1.254 4.105-.117 6.353 1.305 8.126 3.38 4.213 4.331 4.664 5.895 9.407z"></path><path class="fil4 str2" d="M310.031 124.369c-2.552-9.777-1.164-10.828-3.49-16.946m-.338 6.08 2.139 2.083.319-1.913"></path><path class="fil4 str2" d="M306.315 109.168c.169.056.225.169.338.225l.732.563.3-.957"></path><path class="fil4 str4" d="M304.827 135.456c-4.784.698-5.69 5.071-7.431 6.676m3.868-1.578c-.084-2.435 1.114-4.864 3.683-5.107 4.871-.461 6.426 1.743 5.502 3.592"></path><path class="fil2 str2" d="m308.313 135.915-.509.756c-2.705-1.27-3.51-1.895-8.382-1.638-2.221.117-1.026-1.885-3.446-1.833-2.689.058-1.052-1.95-2.665-3.785-1.78-2.023-.168-5.245 6.577-.429l8.425 6.929z"></path><path class="fil2 str2" d="m307.795 136.675.534-.735c-4.199-4.692-1.54-6.326-2.492-10.995-.531-2.606-1.995.698-3.283-3.253-.727-2.23-3.196-.776-4.589-1.831-1.033-.783-2.638-.177-2.132 1.812.901 3.536-1.607 4.798.948 6.27 3.519 2.026.025 3.975 2.415 4.884 4.434 1.687 5.744 1.226 8.599 3.848z"></path><path class="fil4 str2" d="M298.443 122.848c2.897 5.528 4.967 9.035 9.62 13.494m-9.486-10.021 2.806 1.871-.067-4.008"></path><path class="fil4 str2" d="m303.453 127.791.067 3.474-2.672-.936"></path><path class="fil4 str4" d="M310.095 141.013c1.174-1.195 1.844-2.369-.027-4.467"></path><path class="fil2 str2" d="M309.668 124.476c-.195 4.564.244 10.458-1.335 11.472l-.547.729c-.683 2.825-1.623 5.149-2.488 5.948l1.411 2.14c1.037-3.52 3.258-8.122 4.234-9.484l-.243-.668c-.654-.262.153-6.858-.304-10.44l-.728.303z"></path><path class="fil4 str2" d="m311.546 120.975-.67-.079-1.024 2.758m4.279 70.876-2.507-.623"></path><path class="fil2 str2" d="m322.677 229.142 2.71 1.496c-.877 1.527-3.53.439-2.71-1.496z"></path><path class="fil2 str2" d="m325.269 230.573-2.469-1.353c1.29-3.017 3.924-1.54 2.469 1.353z"></path><path class="fil3 str3" d="m308.502 233.03-4.941 1.207c-1.314 2.042-2.273 1.445-4.806 3.324-1.497 1.11-2.1 3.4-5.21 3.554-3.832.19-3.335-2.37-7.663-2.592-2.134-.11-4.277 1.259-5.128-.113-.864-1.392-1.86-1.278-3.454-1.627v3.28c1.149-.67 2.245-.709 2.554.059.963 2.391-.877 2.601-.732 4.279.264 3.038 2.4 4.004 3.656 4.134 4.516.469 6.169 1.76 7.755 3.4.504.521 4.651 3.166 7.657.894 2.214-1.672 6.494-5.197 7.638-7.527 2.643-5.39 7.098-4.707 8.801-8.913l-6.127-3.359z"></path><path class="fil4 str4" d="M314.359 236.975c-1.978 3.782-12.362 12.978-16.169 15.855-3.006 2.271-7.153-.373-7.657-.895-1.586-1.638-3.24-2.93-7.755-3.4-1.255-.13-3.393-1.096-3.656-4.134-.146-1.677 1.695-1.887.732-4.279-.264-.654-1.1-.723-2.052-.313"></path><path class="fil2 str2" d="m321.787 237.771-3.084.039c.063-1.826 2.894-2.616 3.084-.039z"></path><path class="fil2 str2" d="m318.834 237.808 2.829-.042c.474 3.544-3.093 3.894-2.829.042zm4.465-4.378-7.894-1.193c-.035.443-.085.918-.15 1.428l7.584.948.46-1.183z"></path><path class="fil4 str2" d="m323.364 231.18-1.701 1.992"></path><path class="fil2 str2" d="m286.77 246.044 3.986-.175c-.22-2.3-3.307-4.95-3.986.175z"></path><path class="fil4 str2" d="M286.824 241.025c.74.5 1.23 1.134 1.58 2.086m32.014-6.993-.083-1.826"></path><path class="fil2 str2" d="m290.619 245.875-3.693.162c-.595 4.51 4.024 4.74 3.693-.162z"></path><path class="fil3 str3" d="M298.012 201.795c-.662 1.782-1.533 3.066-1.81 4.72-.89 5.29-.265 10.045 2.749 12.955 1.38 1.415 3.474 2.374 4.004 2.917 2.658 2.727 1.657 10.218.606 11.85l4.941-1.207 6.127 3.36c.244-.601.431-1.302.548-2.134.16-1.126.25-2.09.284-2.926.23-5.85-2.402-5.417-4.71-10.12-.963-1.963.691-4.95-2.563-8.739-.928-1.08-1.943-1.525-2.877-2.026.572-3.593-2.27-3.394-1.339-4.337.904-.915 1.716-2.364 2.314-4.098l-8.274-.215z"></path><path class="fil4 str4" d="M309.853 185.044c-1.834 1.717-3.702 2.407-3.59 3.792.173 2.17 1.178 1.72 1.051 7.364-.092 4.114-1.534 8.079-3.341 9.908-.932.943 1.91.745 1.338 4.338"></path><path class="fil3 str3" d="M309.221 140.367c-.912.615-2.227 1.025-3.88 1.005-1.93-.024-.337 1.794-1.687 4.238.944.809 1.901 1.727 2.321 4.216 2.212-1.36.227-3.944 1.9-6.435l1.346-3.024z"></path><path class="fil4 str4" d="M299.175 219.68c-3.207-2.888-3.885-7.747-2.974-13.166.445-2.646 2.407-4.345 2.605-8.651m4.986 8.6-1.298.417"></path><path class="fil2 str2" d="M308.704 197.191c-6.041 6.421-10.327.693-19.4 4.768 8.016-2.877 3.128-11.943 19.071-7.892l.329 3.124z"></path><path class="fil4 str2" d="M295.064 198.952a30.702 30.702 0 0 1 6.953-4.076"></path><path class="fil2 str2" d="M311.434 206.839c-.055.55-1.982 2.892-3.772 5.09.178.162.353.341.526.542.285.332.53.656.745.975l.8-1.361.967-1.415.91-1.7 1.154-.85c4.022-3.348-5.966-13.547 1.644-17.417l-.263-1.14c-1.228.425-3.587 3.514-2.146-1.27.983-3.264 3.708-5.825 6.35-11.957l-.744-.481c-2.437 3.983-5.602 9.62-6.412 8.772l-.145-.899-1.245 1.362.102.646-.797-.683-.718 1.074c1.786 2.62 1.396 4.889 1.22 7.385l3.154 10.038-.039 3.192-1.291.097z"></path><path class="fil4 str4" d="M299.232 200.924c.642 1.889 1.768 3.296 1.79 6.215.039 5.002-3.78 5.683-3.306 10.027.298 2.728 4.46 4.422 5.239 5.22 2.657 2.727 1.657 10.218.606 11.851m-1.968-28.66c.463-.066.661.267.809.926.983 4.392 3.621 3.448 5.786 5.969 3.254 3.789 1.6 6.776 2.562 8.738 2.639 5.375 5.7 4.041 4.427 13.046-.158 1.118-.441 1.999-.818 2.719m-8.383-87.15c2.212-1.36.227-3.943 1.9-6.434.629-.937 1.515-1.662 2.22-2.379m.353-1.972c-.632 1.265-2.424 2.365-5.108 2.332-1.93-.024-.342 1.79-1.691 4.234"></path><path class="fil2 str2" d="M311.427 206.849c.435.93 1.295.64 1.758-.14-.325-4.399-1.677-7.87-3.258-12.48-.997-2.908-3.231.161-3.957-6.685-.417-3.924-2.294.852-6.147-4.583-1.513-2.134-4.666-1.206-4.044.287 2.09 5.012-3.257 4.224.677 6.575 5.388 3.22-.715 5.745 4.855 6.283 10.81 1.044 9.947 7.431 10.116 10.743z"></path><path class="fil2 str2" d="M305.98 183.296c-3.075-.983-8.25.449-25.11-6.513 18.67-4.446 17.695-3.093 25.11 6.513z"></path><path class="fil2 str2" d="m308.407 186.104.7-1.051c-3.302-3.162-4.362-3.396-4.594-6.956-.169-2.602.92-6.17.18-7.915-2.657-6.278-2.885 3.868-4.806-2.133-1.425-4.452-2.522-5.47-4.333-4.16-.84.61-.934 2.793.318 5.535 2.176 4.765-2.93 2.531.41 6.55 3.14 3.78 8.926 5.943 12.125 10.13z"></path><path class="fil4 str2" d="M300.183 173.531c1.427 5.953 4.891 8.51 8.575 12.047m2.73 13.28c-3.368-8.382-5.84-.446-13.007-14.428"></path><path class="fil4 str2" d="m297.552 187.56 2.886.39.056-1.001m.388 5.114 3.053.167-1.277-2.724"></path><path class="fil3 str3" d="M188.125 143.391c-1.66-2.471-5.102-3.474-2.273-6.748-.998 1.108-.593 2.7.927 3.723l1.346 3.025z"></path><path class="fil3 str3" d="m198.804 156.236-9.36-.011c.26-.836.361-1.873.36-3.289-.002-1.253.079-2.27.221-3.11.419-2.49 1.376-3.408 2.32-4.217-1.35-2.443.244-4.261-1.686-4.238-4.49.056-6.477-3.065-4.717-4.823.83-.825 2.49-1.349 5.111-1.101l.121.013-.001-.004c4.783.699 5.69 5.072 7.43 6.676 1.913 1.763 7.906 4.693.455 13.732a2.75 2.75 0 0 0-.254.372zm-9.09 45.774a19.466 19.466 0 0 1-1.028-5.81c-.127-5.645.879-5.194 1.052-7.365.142-1.773-2.958-2.407-5.079-5.513a6.99 6.99 0 0 1-.138-.212l-.032-.052a7.064 7.064 0 0 1-.126-.214c-2.257-4.022.927-8.895 5.602-12.527.357 1.808 2.962 8.758 6.735 11.925 2.043 1.715 1.676 7.012.79 10.415-.591 2.265-.395 3.036-.296 5.206.075 1.615.397 2.863.794 3.932l-8.274.215z"></path><path class="fil4 str4" d="M189.964 170.31c.351 1.798 2.958 8.761 6.736 11.933 2.043 1.715 1.676 7.012.79 10.415-.591 2.264-.395 3.035-.295 5.206a8.004 8.004 0 0 1-.427 3.06"></path><path class="fil2 str2" d="m238.505 235.205-7.6 9.557-3.355-11.828c-.44-4.1 1.1-4.405 3.344-2.643 1.198.94 1.808-2.471 3.417-1.607 1.087.583.061 3.26.874 4.047 1.079 1.047 4.427-1.716 3.32 2.474zm-14.879 16.636-9.984 1.342.587 10.32c.143 3.466 2.353 5.487 4.033 3.525 1.539-1.798.43-4.01 2.96-3.73 3.625.4.34-3.984 2.296-4.065 2.063-.085 2.431-.683 1.813-3.233-.438-1.808-1.289-3.69-1.705-4.159z"></path><path class="fil2 str2" d="m223.616 251.836-1.84-4.71c-2.232.395-4.878.37-6.7 1.09-3.631 1.434-1.842 2.858-3.174 3.32-3.078 1.07-4.558 1.71-4.193 4.014.47 2.96-.826 4.647.097 5.93.84 1.167 2.197.222 3.836.074.95-.085 2.755 1.253 3.8.808 1.103-.47.364-2.816 1.006-3.378.82-.717 2.076.795 2.9.123.82-.669.077-2.995.717-4.37.748-1.61 2.928 1.732 3.551-2.901z"></path><path class="fil4 str2" d="M222.448 248.847c-5.862 1.336-9.172 4.373-11.05 8.366m7.054-3.831-.275-3.066-2.423-.005"></path><path class="fil4 str2" d="m215.671 256.412-.207-4.399-1.951.373m17.556-19.928c1.67 1.18 3.003 3.176 4.093 5.76"></path><path class="fil2 str2" d="m180.931 196.218-.829-1.93c1.552-.623 2.758.405.829 1.93z"></path><path class="fil2 str2" d="m180.138 194.372.76 1.753c-2.219 1.034-2.925-.807-.76-1.753zm4.374-32.842-.007-4.224c2.951.126 4.229 3.358.007 4.224z"></path><path class="fil2 str2" d="m184.506 157.452.006 3.913c-4.596.663-5.205-4.027-.006-3.913zm-.8-34.2-1.872-2.221c1.804-1.448 4.043-.085 1.872 2.221z"></path><path class="fil2 str2" d="m181.915 121.127 1.709 2.016c-2.52 2.259-4.195.105-1.709-2.016zm-8.77 113.485-18.572 5.186c-.965.784-.556 3.11-1.103 3.68-1.885 1.964-2.256 3.731-1.537 4.776.491.714 2.864.325 4.709-.229 2.106-.631 3.965.12 4.707-.077 1.68-.444 1.738-2.017 3.669-3.762 1.084-.98 2.385-.009 3.297-1.56 1.548-2.628 1.518-4.334 4.83-8.014z"></path><path class="fil4 str2" d="M157.197 245.171c3.877-3.238 9.908-7.022 15.948-10.56m-15.495 7.659 3.411-.049-.536 2.732"></path><path class="fil4 str2" d="m165.068 241.881-.092-2.274-2.228.232"></path><path class="fil2 str2" d="m173.145 234.612-.47-1.179c-4.002-.157-4.93-1.648-6.846-2.893-2.757-1.79-1.756 2.145-2.91 2.193-1.323.055-2.494-2.178-3.44-2.644-2.587-1.275-1.967 2.234-3.126 2.274-1.247.043-2.055-1.346-3.631-1.406-1.134-.043-.635 1.498-1.34 2.03-.698.526-2.668.185-2.562 1.504.125 1.553 2.741 1.531 3.077 2.648.46 1.535.15 3.512 2.556 2.005 3.439-2.154 2.797 3.618 6.188.006 2.697-2.873 4.364 1.277 5.979-.069 2.536-2.113 2.202-2.216 6.525-4.469z"></path><path class="fil4 str2" d="M172.912 234.035c-3.426 1.215-11.272 1.43-17.613 1.178m2.56-1.844 2.765 1.946-2.048 1.945"></path><path class="fil4 str2" d="m165.641 233.164 1.178 1.895-1.127 1.638"></path><path class="fil2 str2" d="m182.492 224.865-1.484 9.467c-2.983-.02-2.846-4.925-5.398-7.229-1.103-.996-1.484-2.564-.436-3.113 1.633-.856 2.969 1.978 4.933-.152.684-.741 1.7-.872 2.385 1.027zm3.775-12.78-.947-1.42c-3.364-.376-11.14-2.27-13.377-1.643-2.798.783-.099 1.994-5.123 5.826-1.85 1.412-1.675 5.678-1.03 7.437.805 2.2 2.643 2.098 3.049.986 1.313-3.602 3.135 1.817 3.8-2.826.534-3.72 3.102 1.265 4.12-2.07 1.71-5.59 2.853.195 4.3-2.514 1.728-3.234 2.163-3.663 5.208-3.776z"></path><path class="fil4 str2" d="M185.299 210.654c-6.596-1.103-11.755 2.026-14.662 6.45m4.871-2.228 1.472-3.253-1.843-.088"></path><path class="fil4 str2" d="m179.452 213.159.754-2.517-1.078-.452m-7.834 4.678 2.138-.976-.983 2.99"></path><path class="fil2 str2" d="M173.329 201.104c-2.334-5.904-.141-7.26 1.119-4.732.725 1.455 2.887-.58 3.305 2.012.58 3.595 2.276.308 2.168 4.925l-6.592-2.205z"></path><path class="fil2 str2" d="m184.393 208.988.9 1.689c-1.366-.782-2.831-1.9-4.09-1.771-3.961.405-2.125-2.837-6.14-1.196-3.564 1.456-2.257-3.913-6.31-.045-2.142 2.046-2.889-.882-3.154-2.776-.168-1.203-2.624-1.97-2.508-3.607.163-2.28 3.91.263 4.254-2.101.238-1.633 2.007-1.803 2.785-.546 3.322 5.369 2.883-3.492 5.733.945 2.014 3.135 4.84-1.263 4.78 3.906-.034 2.958-.139 2.51 3.75 5.502z"></path><path class="fil4 str2" d="M184.722 209.605c-7.18-3.043-8.209-7.13-15.655-6.356m5.47 3.155 2.367-1.473-1.999-2.367"></path><path class="fil4 str2" d="m171.124 204.149 1.051-.919-.701-.307"></path><path class="fil2 str2" d="m176.085 176.354-1.817-2.305c1.648-1.133 3.599-.133 1.817 2.305z"></path><path class="fil2 str2" d="m178.396 175.87-.702.51c-15.442-23.11-8.627-22.136-7.88-20.656 1.745 3.453 2.631.238 3.629 2.79 1.075 2.752 2.068.31 2.298 2.73.448 4.712 3.064.606 2.62 4.257-.698 5.724-.2 7.714.035 10.369z"></path><path class="fil2 str2" d="m178.396 175.87-.729.473c-1.438-3.436-2.462-2.96-5.032-2.689-3.747.395-.714-2.8-2.727-2.664-1.317.088-1.266 1.171-3.339 1.252-2.493.098-.777-3.778-1.553-4.235-1.19-.7-2.092 1.243-3.443.755-2.329-.842 1.478-2.945-1.108-3.412-2.243-.404-2.571-3.435 1.421-2.532 1.928.436 1.342-2.78 3.924-1.41 2.948 1.562 2.804-1.003 4.06.732 3.159 4.363 3.09.615 4.423 2.58 2.701 3.984.692 5.152 4.103 11.15z"></path><path class="fil2 str2" d="m174.341 174.157 1.654 2.083c-2.304 1.817-3.926-.397-1.654-2.083z"></path><path class="fil2 str2" d="m177.782 187.025-9.189-2.082c-.208-1.192-1.02-1.777-1.335-2.46-1.94-4.201 3.364-.108 1.01-4.334-1.04-1.867.876-2.949 1.662-1.882 3.163 4.3 3.107-1.774 4.943 1.936 1.966 3.975 3.935 4.222 2.909 8.822z"></path><path class="fil4 str2" d="M170.723 179.299c2.532 2.796 3.603 4.609 4.785 7.21"></path><path class="fil2 str2" d="m181.874 189.569-.287 1.147c-1.47-.126-2.28-.13-3.674.857-1.898 1.342-1.438-1.508-4.939.838-2.993 2.006-3.309-1.545-5.232-1.518-4.374.06-2.653-2.94-.968-3.28 2.62-.528.26-3.778 3.202-2.807 6.34 2.09 2.476-1.426 5.556-.354 2.514.876 2.493 4.247 6.342 5.117z"></path><path class="fil4 str2" d="M181.702 190.133c-5.103-1.27-7.284-2.387-13.011-1.11m6.506.256 1.643-.394-1.051-.788"></path><path class="fil4 str2" d="m170.73 189.345 1.248-.854-1.117-.263m-4.993-23.236c5.935 4.829 8.148 3.04 12.176 11.125"></path><path class="fil4 str2" d="m166.73 164.361.789 1.874-1.528-.148m3.749.407 2.374 2.494-3.215.155"></path><path class="fil2 str2" d="m189.212 151.49-15.172-4.87c-7.755 4.367-1 3.292-3.52 5.225-.866.663-1.118 3.697 2.882 1.959 3.735-1.623 1.157 2.177 5.082 1.585 6.366-.96 1.975-5.53 10.728-3.899z"></path><path class="fil2 str2" d="m189.828 151.78.056-1.52c-2.414-.99-4-3.614-5.375-6.501-.809-1.696-1.746 1.586-4.514-3.052-1.262-2.114-1.784.198-5.49-1.653-2.533-1.265-2.538 1.679-5.823 1.225-5.294-.732-4.333 5.127-.934 4.901 5.853-.39-.112 5.91 5.826 4.336 8.498-2.252.68 4.886 7.49 3.245 5.025-1.212 6.149-1.165 8.764-.981z"></path><path class="fil4 str2" d="M172.065 143.205c6.68-.395 10.87 6.32 17.791 7.815m-14.857-5.956 4.261.316-1.499-2.683"></path><path class="fil4 str2" d="m180.689 150.216 2.84-2.052-1.183-1.499"></path><path class="fil2 str2" d="m185.094 135.261.188-.634-9.787-4.68c-.905-.198-1.984.363-2.84.276-3.069-.31-2.904-2.036-4.712-2.013-1.556.021-.876 2.446-1.868 2.767-2.179.706-2.846 2.54 2.164 2.944 2.942.237 2.937 3.056 6.525 1.188 3.737-1.947 3.989-1.737 10.33.152z"></path><path class="fil4 str2" d="M176.01 132.238c-1.546-.066-2.213.496-5.215-.36"></path><path class="fil2 str2" d="m185.315 134.595-.263.7c-5.552-2.256-8.377-2.961-10.194-3.317-2.743-.537.826-1.926-2.637-3.755-2.481-1.31 1.001-3.182-.42-5.604-.971-1.655.709-3.619 2.158-1.738 1.894 2.458 5.12-1.301 5.264 2.283.287 7.155 2.712 1.822 3.818 4.434.786 1.855-1.524 4.495 2.274 6.997z"></path><path class="fil4 str2" d="M185.168 134.929c-9.794-5.9-6.86-7.224-10.55-11.043m1.923 6.902 2.366-.493-.591-2.613"></path><path class="fil4 str2" d="m174.569 127.386 2.169-.394v-1.676"></path><path class="fil2 str2" d="m186.309 124.5-.733-.282 7.715-14.327c5.076-4.47 6.072-.71 5.074.26-1.846 1.797-.106 3.46-1.869 4.11-4.18 1.54.178 3.2-2.825 3.943-4.577 1.134-5.846-.095-7.362 6.296z"></path><path class="fil2 str2" d="m186.307 124.482-.732-.281c1.763-8.637-3.445-10.396-3.769-12.58-.543-3.663 3.197.027 2.577-4.572-.641-4.76 3.686-.928 5.025-4.065 1.17-2.742 4.156-3.037 3.577.065-.313 1.684.982 2.393.522 3.9-1.254 4.105.117 6.353-1.305 8.126-3.38 4.213-4.331 4.664-5.895 9.407z"></path><path class="fil4 str2" d="M185.969 124.369c2.552-9.777 1.164-10.828 3.49-16.946m.339 6.08-2.14 2.083-.319-1.913"></path><path class="fil4 str2" d="M189.685 109.168c-.169.056-.225.169-.338.225l-.732.563-.3-.957"></path><path class="fil4 str4" d="M191.173 135.456c4.784.698 5.69 5.071 7.431 6.676m-3.868-1.578c.084-2.435-1.114-4.864-3.683-5.107-4.871-.461-6.426 1.743-5.502 3.592"></path><path class="fil2 str2" d="m187.687 135.915.509.756c2.705-1.27 3.51-1.895 8.382-1.638 2.221.117 1.026-1.885 3.446-1.833 2.689.058 1.052-1.95 2.665-3.785 1.78-2.023.168-5.245-6.577-.429l-8.425 6.929z"></path><path class="fil2 str2" d="m188.205 136.675-.534-.735c4.199-4.692 1.54-6.326 2.492-10.995.531-2.606 1.995.698 3.284-3.253.727-2.23 3.195-.776 4.588-1.831 1.033-.783 2.639-.177 2.132 1.812-.901 3.536 1.607 4.798-.948 6.27-3.519 2.026-.025 3.975-2.415 4.884-4.434 1.687-5.744 1.226-8.599 3.848z"></path><path class="fil4 str2" d="M197.557 122.848c-2.897 5.528-4.967 9.035-9.62 13.494m9.486-10.021-2.805 1.871.066-4.008"></path><path class="fil4 str2" d="m192.547 127.791-.067 3.474 2.672-.936"></path><path class="fil4 str4" d="M185.905 141.013c-1.174-1.195-1.844-2.369.027-4.467"></path><path class="fil2 str2" d="M186.332 124.476c.195 4.564-.244 10.458 1.335 11.472l.547.729c.683 2.825 1.623 5.149 2.488 5.948l-1.411 2.14c-1.037-3.52-3.258-8.122-4.234-9.484l.243-.668c.654-.262-.153-6.858.304-10.44l.728.303z"></path><path class="fil4 str2" d="m184.454 120.975.67-.079 1.024 2.758m-4.279 70.876 2.507-.623"></path><path class="fil2 str2" d="m173.323 229.142-2.71 1.496c.877 1.527 3.53.439 2.71-1.496z"></path><path class="fil2 str2" d="m170.731 230.573 2.469-1.353c-1.29-3.017-3.924-1.54-2.469 1.353z"></path><path class="fil3 str3" d="M218.7 236.783c1.301-.285 3-.88 5.35-2.858 2.637-2.22 4.66-.09 5.565 1.33 1.668 2.618.386 4.703 1.654 6.978l.058.128c.03-.09.057-.178.081-.268.879-3.274.719-7.275 5.204-7.026 5.073.282 3.726 3.175 11.388 3.206 7.663-.031 6.316-2.924 11.389-3.206 4.485-.249 4.325 3.752 5.204 7.026.024.09.052.179.081.268l.058-.128c1.268-2.275-.014-4.36 1.654-6.978.904-1.42 2.928-3.55 5.565-1.33 2.35 1.978 4.048 2.573 5.35 2.858v3.28c-1.463.855-3.01 2.734-3.128 5.283-.13 2.82.101 6.368-5.548 9.043-2.463 1.167-4.607 1.692-7.343.796-1.148-.376-2.066-1.565-2.103-2.59v-.025l-.001-.058c-.017-1.41-.46-3.413-.905-3.984-2.59.374-6.851.699-10.148.714v.001h-.249c-3.297-.016-7.557-.34-10.148-.716-.446.572-.888 2.576-.905 3.985v.083h-.001c-.037 1.025-.955 2.214-2.103 2.59-2.737.896-4.88.37-7.343-.796-5.65-2.675-5.418-6.223-5.548-9.043-.117-2.549-1.665-4.428-3.128-5.282v-3.281z"></path><path class="fil4 str4" d="M303.561 234.238c-7.173 8.701-10.505 4.653-17.678 4.285-2.135-.109-4.277 1.26-5.128-.112-1.57-2.53-3.578-.085-8.804-4.486"></path><path class="fil3 str3" d="m187.498 233.03 4.941 1.207c1.314 2.042 2.273 1.445 4.806 3.324 1.497 1.11 2.1 3.4 5.21 3.554 3.832.19 3.335-2.37 7.663-2.592 2.134-.11 4.277 1.259 5.128-.113.864-1.392 1.86-1.278 3.454-1.627v3.28c-1.149-.67-2.245-.709-2.554.059-.963 2.391.877 2.601.732 4.279-.263 3.038-2.4 4.004-3.656 4.134-4.516.469-6.169 1.76-7.755 3.4-.504.521-4.651 3.166-7.657.894-2.213-1.672-6.494-5.197-7.638-7.527-2.643-5.39-7.098-4.707-8.801-8.913l6.127-3.359z"></path><path class="fil4 str4" d="M181.641 236.975c1.978 3.782 12.362 12.978 16.169 15.855 3.006 2.271 7.153-.373 7.657-.895 1.586-1.638 3.24-2.93 7.755-3.4 1.255-.13 3.393-1.096 3.656-4.134.146-1.677-1.695-1.887-.732-4.279.264-.654 1.1-.723 2.052-.313"></path><path class="fil4 str4" d="M192.439 234.238c7.173 8.701 10.505 4.653 17.678 4.285 2.135-.109 4.277 1.26 5.128-.112 1.57-2.53 3.578-.085 8.804-4.486"></path><path class="fil2 str2" d="m205.376 240.416-1.927-1.927-14.279 4.03c-.845 1.403-.735 2.956-1.6 4.379-2.003 3.29 1.09.79.386 2.766-.743 2.081-.436 4.581 1.487 3.128 2.338-1.766 2.718.261 3.991-.067 1.482-.381.952-1.95 1.875-3.179.506-.673 3.719-.002 4.417-1.249 1.142-2.04.827-2.217 2.767-3.7 1.111-.85.319-2.738 2.883-4.181zm-31.163-2.645 3.084.039c-.063-1.826-2.894-2.616-3.084-.039z"></path><path class="fil2 str2" d="m177.166 237.808-2.829-.042c-.474 3.544 3.093 3.894 2.829.042zm-4.465-4.378 7.894-1.193c.035.443.085.918.15 1.428l-7.584.948-.46-1.183z"></path><path class="fil4 str2" d="m172.636 231.18 1.701 1.992"></path><path class="fil2 str2" d="m209.23 246.044-3.986-.175c.22-2.3 3.307-4.95 3.986.175z"></path><path class="fil4 str2" d="M209.176 241.025c-.74.5-1.23 1.134-1.58 2.086m-15.802 5.505c3.334-4.439 7.332-6.039 12.64-9.142m-28.852-3.356.083-1.826m24.981 7.319-.388 2.455"></path><path class="fil2 str2" d="m205.381 245.875 3.693.162c.595 4.51-4.024 4.74-3.693-.162zm13.485-5.101c-1.143-.173-2.073-.825-2.716-2.285l-1.138.175 1.056 1.877c-2.293-.022-3.638-.823-4.035-2.402h-1.489c1.012 2.602-8.334-2.71-9.215-7.604l-.614-.684c-3.335-1.356-5.694-5.155-7.356-7.72a2.395 2.395 0 0 0-.314.257c-.418.428-.745.976-.996 1.599 3.321 5.428 8.159 6.9-.525 6.95a15.8 15.8 0 0 0 .304 1.635c5.951-.205 6.46-1.627 7.733.051 1.206 1.591 5.358 5.886 3.93 5.854l1.868 1.938c1.593-.681 2.419.176 3.814.607 5.675 1.754 9.202 2.075 12.2 2.213a6.659 6.659 0 0 0-1.681-2.434l-.826-.027z"></path><path class="fil3 str3" d="M197.988 201.795c.662 1.782 1.533 3.066 1.81 4.72.89 5.29.265 10.045-2.749 12.955-1.38 1.415-3.474 2.374-4.004 2.917-2.657 2.727-1.657 10.218-.606 11.85l-4.941-1.207-6.127 3.36a9.015 9.015 0 0 1-.548-2.134 29.354 29.354 0 0 1-.284-2.926c-.23-5.85 2.402-5.417 4.71-10.12.963-1.963-.691-4.95 2.563-8.739.928-1.08 1.943-1.525 2.878-2.026-.573-3.593 2.27-3.394 1.338-4.337-.904-.915-1.716-2.364-2.314-4.098l8.274-.215z"></path><path class="fil4 str4" d="M186.148 185.044c1.834 1.717 3.702 2.407 3.59 3.792-.173 2.17-1.178 1.72-1.051 7.364.092 4.114 1.534 8.079 3.341 9.908.932.943-1.91.745-1.338 4.338"></path><path class="fil2 str2" d="M216.178 238.459c.942-3.323 3.903-3.092 4.167-4.928.36-2.499-1.742-1.44-1.815-3.175-.088-2.082 2.687-2.137 1.825-6.032l-12.844-2.314 7.459 16.67 1.208-.221z"></path><path class="fil2 str2" d="M212.033 238.138c.313-2.71 4.728-2.431 4.605-4.412-.139-2.223-3.873-1.249-4.049-3.527-.149-1.927 2.24-2.709.983-5.492l-5.831-2.25c-4.498 1.159-5.129 3.323-1.1 7.716.938 1.024-2.223 1.59-1.576 3.047.645 1.456 2.876-.75 5.479 4.918h1.489z"></path><path class="fil4 str2" d="M211.278 238.122a76.882 76.882 0 0 0-2.683-12.387"></path><path class="fil2 str2" d="m203.448 238.489 1.278 1.278c-4.034.668-4.168 1.484-6.698 4.175-3.52 3.744-2.977-3.564-5.111-1.176-1.438 1.608-1.315 4.971-3.562 4.95-2.221-.022-.186-5.197-2.39-3.75-1.92 1.26-3.195 3.794-4.886 3.481-1.38-.255-1.722-3.97-.421-5.376 1.772-1.914-1.806-1.362-.376-3.84.503-.872 3.467-.397 4.634-1.015 1.127-.596-.747-3.166 1.88-3.376 2.64-.211 2.25 2.273 3.859 2.356 1.472.076 2.216-2.42 4.918-.103 3.39 2.907 4.334 1.99 6.875 2.396z"></path><path class="fil4 str2" d="M203.459 238.459c-9.268-1.117-15.776.263-19.523 4.141m3.944-5.719c1.38.394 2.76 1.183 4.043 1.676l-2.071 3.747"></path><path class="fil4 str2" d="m194.683 237.079 1.479 1.084-.59 2.548"></path><path class="fil3 str3" d="M186.779 140.367c.912.615 2.227 1.025 3.88 1.005 1.93-.024.337 1.794 1.687 4.238-.944.809-1.902 1.727-2.321 4.216-2.212-1.36-.227-3.944-1.9-6.435l-1.346-3.024z"></path><path class="fil4 str4" d="M218.197 239.808c1.587.682 3.5 2.694 3.63 5.537.13 2.82-.1 6.368 5.548 9.044 2.463 1.166 4.607 1.692 7.343.795 1.869-.612 3.13-3.377.97-4.087-.91-.3-2.243-.117-3.7-.838-1.58-.781-1.716-2.827-1.15-3.313 1.203-1.03 2.687.585 5.123 1.25m-11.911-14.271c2.637-2.22 4.66-.09 5.565 1.33 1.668 2.619.386 4.703 1.654 6.978m-34.444-22.553c3.207-2.888 3.885-7.747 2.974-13.166-.445-2.646-2.407-4.345-2.605-8.651"></path><path class="fil4 str4" d="M233.983 250.829c-9.652-1.203-3.554-5.087-2.575-8.735.878-3.275.719-7.275 5.204-7.026 5.1.283 3.585 3.205 11.388 3.205s6.288-2.922 11.388-3.205c4.486-.25 4.326 3.751 5.204 7.026.979 3.648 7.077 7.532-2.575 8.735m-25.195 1.766c0-1.413.451-3.485.905-4.067m-45.519-42.065 1.298.417"></path><path class="fil2 str2" d="M187.296 197.191c6.041 6.421 10.327.693 19.4 4.768-8.016-2.877-3.128-11.943-19.071-7.892l-.329 3.124z"></path><path class="fil4 str2" d="M200.936 198.952a30.702 30.702 0 0 0-6.953-4.076"></path><path class="fil2 str2" d="M184.566 206.839c.055.55 1.982 2.892 3.772 5.09a6.186 6.186 0 0 0-.526.542c-.285.332-.53.656-.745.975l-.8-1.361-.967-1.415-.91-1.7-1.154-.85c-4.022-3.348 5.966-13.547-1.644-17.417l.263-1.14c1.227.425 3.587 3.514 2.146-1.27-.983-3.264-3.708-5.825-6.35-11.957l.744-.481c2.437 3.983 5.602 9.62 6.412 8.772l.145-.899 1.245 1.362-.102.646.797-.683.718 1.074c-1.786 2.62-1.396 4.889-1.22 7.385l-3.154 10.038.039 3.192 1.291.097z"></path><path class="fil4 str4" d="M196.768 200.924c-.642 1.889-1.768 3.296-1.79 6.215-.039 5.002 3.78 5.683 3.306 10.027-.298 2.728-4.46 4.422-5.239 5.22-2.657 2.727-1.657 10.218-.606 11.851m1.968-28.66c-.463-.066-.661.267-.809.926-.983 4.392-3.621 3.448-5.786 5.969-3.254 3.789-1.6 6.776-2.562 8.738-2.639 5.375-5.7 4.041-4.427 13.046.158 1.118.441 1.999.818 2.719m8.384-87.15c-2.212-1.36-.227-3.943-1.9-6.434-.629-.937-1.515-1.662-2.22-2.379m-.354-1.972c.632 1.265 2.424 2.365 5.108 2.332 1.93-.024.342 1.79 1.691 4.234"></path><path class="fil2 str2" d="M184.573 206.849c-.435.93-1.295.64-1.758-.14.325-4.399 1.677-7.87 3.258-12.48.997-2.908 3.231.161 3.957-6.685.417-3.924 2.294.852 6.147-4.583 1.513-2.134 4.666-1.206 4.044.287-2.09 5.012 3.258 4.224-.677 6.575-5.388 3.22.715 5.745-4.855 6.283-10.81 1.044-9.947 7.431-10.116 10.743z"></path><path class="fil4 str2" d="M184.512 198.858c3.368-8.382 5.84-.446 13.007-14.428m.929 3.13-2.886.39-.056-1.001"></path><path class="fil4 str2" d="m195.118 192.063-3.053.167 1.277-2.724"></path><path class="fil4 str4" d="M230.662 240.328c-.414.364-.2.972-.697 1.118m-7.244 2.522c-.507.254-.493.38-.94.846"></path><path class="fil2 str2" d="M247.403 249.238c-7.599 5.85-15.445 10.213-17.193 15.405l-4.86-.853c8.335-10.027 10.164-9.016 18.375-14.692 1.283.085 2.509.132 3.678.14z"></path><ellipse class="fil2 str2" transform="matrix(-.98892 -.14072 -.10675 .6739 227.756 264.231)" rx="2.482" ry="1.044"></ellipse><path class="fil4 str4" d="M277.803 239.808c-1.587.682-3.5 2.694-3.63 5.537-.13 2.82.1 6.368-5.548 9.044-2.463 1.166-4.607 1.692-7.343.795-1.868-.612-3.13-3.377-.97-4.087.91-.3 2.243-.117 3.7-.838 1.58-.781 1.716-2.827 1.15-3.313-1.203-1.03-2.687.585-5.123 1.25m13.24-4.228c.507.254.493.38.94.846m-15.041 7.781c0-1.413-.451-3.485-.905-4.067"></path><path class="fil2 str2" d="M248.597 249.238c7.599 5.85 15.445 10.213 17.193 15.405l4.86-.853c-8.335-10.027-10.164-9.016-18.375-14.692a62.247 62.247 0 0 1-3.678.14z"></path><ellipse class="fil2 str2" transform="matrix(.98892 -.14072 .10675 .6739 268.244 264.231)" rx="2.482" ry="1.044"></ellipse><path class="fil4 str4" d="M235.961 248.196c1.846.503 7.77 1.047 12.039 1.047 4.267 0 10.192-.544 12.038-1.047m11.912-14.271c-2.637-2.22-4.66-.09-5.565 1.33-1.668 2.619-.386 4.703-1.654 6.978m.608-1.905c.414.364.2.972.697 1.118"></path><path class="fil2 str2" d="m290.625 240.416 1.927-1.927 14.279 4.03c.845 1.403.735 2.956 1.6 4.379 2.003 3.29-1.09.79-.385 2.766.742 2.081.435 4.581-1.488 3.128-2.338-1.766-2.718.261-3.991-.067-1.482-.381-.952-1.95-1.875-3.179-.506-.673-3.719-.002-4.417-1.249-1.142-2.04-.827-2.217-2.767-3.7-1.111-.85-.319-2.738-2.883-4.181z"></path><path class="fil4 str2" d="M304.206 248.616c-3.334-4.439-7.332-6.039-12.64-9.142m3.788 2.137.388 2.455"></path><path class="fil2 str2" d="M277.134 240.774c1.143-.173 2.073-.825 2.716-2.285l1.138.175-1.056 1.877c2.293-.022 3.638-.823 4.035-2.402h1.489c-1.012 2.602 8.334-2.71 9.215-7.604l.614-.684c3.335-1.356 5.694-5.155 7.356-7.72.132.094.239.18.314.257.418.428.745.976.996 1.599-3.321 5.428-8.159 6.9.525 6.95a15.8 15.8 0 0 1-.304 1.635c-5.951-.205-6.46-1.627-7.733.051-1.206 1.591-5.358 5.886-3.93 5.854l-1.868 1.938c-1.593-.681-2.419.176-3.814.607-5.675 1.754-9.202 2.075-12.2 2.213a6.659 6.659 0 0 1 1.681-2.434l.826-.027z"></path><path class="fil2 str2" d="M279.822 238.459c-.942-3.323-3.903-3.092-4.167-4.928-.36-2.499 1.742-1.44 1.815-3.175.089-2.082-2.686-2.137-1.825-6.032l12.844-2.314-7.459 16.67-1.208-.221z"></path><path class="fil2 str2" d="M283.967 238.138c-.313-2.71-4.728-2.431-4.605-4.412.139-2.223 3.873-1.249 4.049-3.527.149-1.927-2.24-2.709-.983-5.492l5.831-2.25c4.498 1.159 5.129 3.323 1.1 7.716-.938 1.024 2.223 1.59 1.577 3.047-.646 1.456-2.876-.75-5.48 4.918h-1.489z"></path><path class="fil4 str2" d="M284.722 238.122a76.882 76.882 0 0 1 2.683-12.387"></path><path class="fil2 str2" d="m292.552 238.489-1.278 1.278c4.034.668 4.168 1.484 6.698 4.175 3.52 3.744 2.977-3.564 5.112-1.176 1.437 1.608 1.314 4.971 3.561 4.95 2.221-.022.186-5.197 2.39-3.75 1.92 1.26 3.195 3.794 4.886 3.481 1.38-.255 1.722-3.97.421-5.376-1.772-1.914 1.806-1.362.376-3.84-.503-.872-3.467-.397-4.634-1.015-1.127-.596.747-3.166-1.88-3.376-2.64-.211-2.25 2.273-3.859 2.356-1.472.076-2.216-2.42-4.918-.103-3.39 2.907-4.334 1.99-6.875 2.396z"></path><path class="fil4 str2" d="M292.542 238.459c9.268-1.117 15.776.263 19.523 4.141m-3.945-5.719c-1.38.394-2.76 1.183-4.043 1.676l2.071 3.747"></path><path class="fil4 str2" d="m301.317 237.079-1.479 1.084.59 2.548"></path><path class="fil3 str3" d="M298.658 163.576c.148 1.399.29 2.666.503 3.497.137.533 1.647 3.605 3.024 3.09.61-.228.12-1.09.532-2.075l-.002-.001.005.002.292.172.012.007.27.162.05.03.272.169.006.004.005.003.26.164.076.05.193.125.113.075.199.132.1.068.183.126.13.09.102.072.05.036.158.112.097.07.05.037.097.07.004.004.05.037.107.079.13.098.013.01.05.037.09.069.134.103.022.017c4.676 3.634 7.861 8.508 5.601 12.53 2.109-3.685 1.047-9.214 1.99-11.5 1.44-3.49 4.488-5.865.263-8.811-4.578-3.192-6.595-3.946-7.333-6.312h-9.367c.877 1.504 1.185 4.67 1.469 7.352z"></path><path class="fil4 str4" d="M302.715 168.086c6.502 3.756 12.036 10.243 8.626 15.236a10.32 10.32 0 0 1-1.488 1.721"></path><path class="fil4 str4" d="M296.941 155.864c1.582 1.919 1.562 8.645 2.22 11.209.136.533 1.647 3.606 3.024 3.09.61-.228.118-1.09.531-2.075.817-1.947 1.91-3.168 3.058-4.353m5.567 19.588c2.502-3.668 1.3-9.59 2.285-11.976 1.44-3.489 4.488-5.864.263-8.81-6.194-4.32-7.7-4.174-7.692-9.6.014-9.471-4.696-5.548-4.933-12.382"></path><path class="fil2 str2" d="M190.02 183.296c3.075-.983 8.25.449 25.11-6.513-18.67-4.446-17.695-3.093-25.11 6.513z"></path><path class="fil2 str2" d="m192.491 170.201-.343 10.29c-.906-.628-5.548-14.564.343-10.29z"></path><path class="fil2 str2" d="m187.593 186.104-.7-1.051c3.302-3.162 4.362-3.396 4.594-6.956.169-2.602-.92-6.17-.18-7.915 2.657-6.278 2.885 3.868 4.806-2.133 1.425-4.452 2.522-5.47 4.333-4.16.84.61.934 2.793-.318 5.535-2.176 4.765 2.93 2.531-.41 6.55-3.14 3.78-8.926 5.943-12.125 10.13z"></path><path class="fil4 str2" d="M195.817 173.531c-1.427 5.953-4.891 8.51-8.575 12.047"></path><path class="fil3 str3" d="M197.342 163.576c-.148 1.399-.29 2.666-.503 3.497-.137.533-1.647 3.605-3.024 3.09-.61-.228-.12-1.09-.532-2.075l.002-.001-.005.002-.292.172-.012.007-.27.162-.05.03-.272.169-.006.004-.005.003-.26.164-.076.05a26.48 26.48 0 0 0-.193.125l-.113.075-.199.132-.1.068-.183.126-.13.09-.102.072-.05.036-.158.112-.097.07-.05.037-.097.07-.004.004-.05.037-.107.079-.13.098-.013.01-.05.037-.09.069-.134.103-.022.017c-4.676 3.634-7.861 8.508-5.601 12.53-2.109-3.685-1.047-9.214-1.99-11.5-1.44-3.49-4.488-5.865-.263-8.811 4.578-3.192 6.595-3.946 7.333-6.312h9.367c-.877 1.504-1.185 4.67-1.469 7.352z"></path><path class="fil4 str4" d="M193.285 168.086c-6.502 3.756-12.036 10.243-8.626 15.236.464.68.975 1.24 1.488 1.721"></path><path class="fil4 str4" d="M199.059 155.864c-1.582 1.919-1.562 8.645-2.22 11.209-.136.533-1.647 3.606-3.024 3.09-.61-.228-.118-1.09-.531-2.075-.817-1.947-1.91-3.168-3.058-4.353m-5.567 19.588c-2.502-3.668-1.3-9.59-2.285-11.976-1.44-3.489-4.488-5.864-.263-8.81 6.194-4.32 7.7-4.174 7.692-9.6-.014-9.471 4.696-5.548 4.933-12.382"></path><path d="M202.919 123.259h90v91.343c0 6.074-4.876 10.976-10.95 10.976l-23.021.584c-5.614 0-10.171 4.207-10.83 9.64h-.166c-.67-5.433-5.303-9.64-10.916-9.64l-23.022-.584c-6.074 0-11.095-4.902-11.095-10.976v-91.343z" fill="#dededd" stroke="#707477" stroke-width=".8" stroke-linecap="round" stroke-linejoin="round"></path><path class="fil6" d="M250.425 149.326c-6.23-1.06-6.106-6.568-4.771-10.992.622-2.061 2.938-6.282 8.039-8.039-5.91-.357-6.938 4.238-7.936 3.831-.653-.266.21-4.392.979-6.154-3.242 1.985-2.365 7.671-2.574 9.542-.499 4.467-1.369 5.08-4.164 1.55-.925-1.167-1.17-2.231-1.588-4.996-1.685 6.038 3.92 8.942 5.184 11.244.552 1.006-.477 1.656-2.323.876-1.042-.44-1.225-.619-2.211-2.193 1.064 5.576 4.589 2.043 7 6.166.936-.232 1.838-.213 2.705.056l1.66-.891z"></path><path d="m274.954 177.574.89 1.2c.494-.232 1.332-.59 1.358-1.636.046-1.917-.29.34-2.243.436-2.872-2.412-3.929-4.046-8.897-3.971-4.288.064-3.922 1.474-7.263 1.595-2.172.079-2.357-1.053-5.524-1.211-2.028-.102-4.007 1.498-5.055.56-1.11-.994-1.124-3.872-.23-4.886 4.99-5.66 4.892-12.708 4.04-16.172a17.56 17.56 0 0 1-.75-.15c1.886.415 3.245.534 4.036-1.603.434-1.172-.053-.998-.495-.518-.853.924-2.39 1.136-3.316.838-.94-1.199-2.4-1.983-3.895-2.035-2.976-.104-2.46 1.4-6.205 1.93l.117.477-.116-.476c-.735.104-1.658.178-2.844.202l-.595 2.223c3.7.051 4.909 1.359 1.278 1.341-.566-.002-1.853-.192-1.418.585.353.632.655.265 1.389.246.647-.018 1.497.047 2.389.158.905.114 1.142 1.433 2.723 1.678 1.848.287 3.445-.95 5.051-3.098-1.606 2.147-3.203 3.385-5.051 3.098-.049 2.03-.539 4.427-3.223 4.927-1.096.204-9.949 1.802-9.983 10.104-.014 3.36-.055 3.302.058 5.172.119 1.966.737 3.292 1.159 4.649-3.417.766-3.72 1.289-5.501 1.757-2.861.751-5.832 1.01-9.042.832l-.611.4c-1.485 3.576-5.797 6.158-9.256 9.127l-.054.264c.327 1.421.028 2.97-.216 4.277l1.683-.585c-.085-1.179.087-2.283.658-3.184l.9-.418c2.804-3.122 5.481-5.148 8.609-7.46 2.33-.845 5.467-.779 7.343-.49 2.497.386 4.565 2.183 7.773 2.867-.266-1.204-.29-2.528-.236-3.506-.054.978-.03 2.302.236 3.506.285 1.291.584 2.657 1.012 3.473 1.4 2.672 1.773 4.704 1.424 8.217l.155.424c2.03 2.865 3.835 5.943 4.756 10.452l.016.202c-.058 1.21-1.227 3.293-2.88 5.178l1.71.497c.841-1.555 2.256-3.218 3.797-4.45l.027-.63c-1.96-3.79-3.434-8.166-4.225-12.545l-.099-.398c-1.254-2.453-1.279-7.547.848-9.231.684-.542.093-5.106.14-7.658-.047 2.552.544 7.116-.14 7.658 3.966 3.525 10.01.35 17.343-1.487 1.833-.459 3.34-1.046 4.494-1.66-1.153.614-2.66 1.201-4.494 1.66-1.653 1.432-1.469 6.129.932 14.767.038 1.957-2.82 6.275-5.236 8.523-.69 2.111-1.594 3.428-3.14 4.954l1.712.497c.794-1.676 1.923-2.787 2.943-3.308l.673-.606c.545-2.839 3.89-6.953 6.172-9.663v-1.057c-1.864-2.37-1.999-3.41-2.01-4.31-.033-2.877 4.703-2.865 6.478-6.997-1.967-1.162-4.144-3.885-5.578-7.787 1.434 3.902 3.611 6.625 5.578 7.787 7.914 4.676 10.66 5.994 14.154 11.011 1.68 2.414 2.862 6.037 4.234 10.124-.87 1.787-1.76 3.118-2.865 4.31l1.71.496c.72-1.09 1.988-3.122 3.276-3.22l-.28-1.477c-1.856-3.573-2.546-7.223-2.992-11.363l-.603-1.098c-5.033-3.094-8.737-8.105-8.04-12.688.466-3.068 3.713-4.663.216-10.447l-.889-1.2z" fill="#d52e26" stroke="#a92926" stroke-width=".6" stroke-linecap="round" stroke-linejoin="round"></path><ellipse class="fil6" cx="245.697" cy="152.739" rx=".799" ry=".514"></ellipse><path class="fil4 str4" d="M297.396 142.132c-1.913 1.763-7.905 4.693-.455 13.732m-98.337-13.732c1.913 1.763 7.905 4.693.455 13.732"></path><path d="m238.57 152.143-.603 2.234c-.618 0-.857-.807-.827-1.599.025-.637.468-.65 1.43-.635z" fill="#1f1a17" stroke="#1f1a17" stroke-width=".6" stroke-linecap="round" stroke-linejoin="round"></path><path class="fil6" d="m252.727 220.706.05-1.639-1.711-.497c-1.009.498-1.671 1.204-2.29 2.136h3.951zm-11.958 0 .05-1.639-1.711-.497c-1.009.498-1.671 1.204-2.29 2.136h3.951zm43.448 0 .05-1.639-1.711-.497c-1.009.498-1.671 1.204-2.29 2.136h3.951zm-73.968-20.031-.908-1.365-1.683.585c-.534.99-.666 1.948-.631 3.067l3.222-2.287z" stroke="#0a0b0c" stroke-width=".6" stroke-linecap="round" stroke-linejoin="round"></path><path class="fil6" d="M248.765 150.216c.868.269 1.702.788 2.501 1.557 3.99-3.478 9.302-4.236 11.655-8.996 1.547-3.13 2.013-11.085-.65-15.638 1.538 11.343-.496 14.643-3.057 3.944-1.137 6.184 4.214 10.225.606 13.473-1.91 1.721-3.214-.394-4.55-5.486-1.777 4.675 1.74 6.22-.01 8.049-1.956 2.046-4.439 1.87-4.821-2.922-1.19 1.635-.597 3.6-.014 5.129l-1.302-.154-2.143.006 1.785 1.038z"></path><path d="M251.402 93.1c1.388-8.69 2.42-11.387 5.655-16.344 19.035-2.608 29.863 16.247 13.324 32.653l-17.804-3.088-3.175-7.205 2-6.016zm-6.802 0c-1.388-8.69-2.42-11.387-5.655-16.344-19.035-2.608-29.863 16.247-13.324 32.653l17.804-3.088 3.175-7.205-2-6.016z" fill="#da2724" stroke="#a92926" stroke-width=".5" stroke-linecap="round" stroke-linejoin="round"></path><path class="fil2 str1" d="m251.972 89.779-.57 3.321-1.979 6.013 3.14 7.215 17.835 3.073 2.539-2.806.133 6.079h-50.167l.134-6.079 2.538 2.806 17.836-3.073 3.14-7.215L244.6 93.1l-.665-3.321z"></path><path class="fil2 str1" d="M235.379 107.948c-.244-13.45-1.458-20.99-3.535-31.341 2.451-.321 4.295-.303 6.424-.16 2.446 8.496 4.087 20.584 4.073 30.856l-6.962.645z"></path><path class="fil2 str1" d="M231.628 101.871c1.62-.206 2.32.181 2.866 1.513l.274-.049c.316-2.042.545-2.42 2.058-3.192l-.062-.443c-1.653-.21-1.976-.49-2.842-2.322l-.274.048c-.15 1.456-.712 2.063-2.309 2.428-.262-2.485.157-3.556 1.65-4.369l-.06-.42c-2.31-.52-2.742-.879-3.64-3.21l-.498.086c-.206 2.528-.517 3.018-2.568 4.312l.06.42c1.644.257 2.34 1.13 2.78 3.583-1.619.206-2.322-.177-2.868-1.509l-.274.05c-.315 2.041-.545 2.42-2.057 3.191l.064.442c1.652.21 1.975.49 2.842 2.323l.274-.049c.15-1.455.712-2.062 2.309-2.427.088 3.26.02 6.465-1.796 7.234 2.581-.746 5.253-1.252 8-1.557-1.94-.102-3.178-2.941-3.929-6.083zm-11.305 3.133c2.05 3.086 2.232 4.818 4.873 5.3-.932.418-2.032 1.137-2.206 2.06-1.07-2.098-1.973-4.115-3.52-6.99l.161 1.365c-1.195-1.306-1.797-3.113-2.089-4.771l.997 1.21c-.64-2.157-.4-2.066-1.294-4.117-.117-.38-.306-1.39-.355-1.861.076-.826-.002-1.974-.136-3.229l.29-.02c.903 2.703.673 3.05 2.077 3.625l.137.483c-.619.968-.747 2.198.059 4.89.666-.53.757-1.214.69-2.754l.183-.07c.654 1.826.983 2.1 1.905 2.15l.106.427c-.479.941-.443 1.35.438 3.452l-.104.077c-1.026-1.285-1.524-1.607-2.212-1.227zm40.3 2.944c.244-13.45 1.458-20.99 3.535-31.341-2.451-.321-4.295-.303-6.424-.16-2.446 8.496-4.087 20.584-4.073 30.856l6.962.645z"></path><path class="fil2 str1" d="M264.374 101.871c-1.62-.206-2.32.181-2.866 1.513l-.274-.049c-.316-2.042-.545-2.42-2.058-3.192l.062-.443c1.653-.21 1.976-.49 2.842-2.322l.274.048c.15 1.456.712 2.063 2.309 2.428.262-2.485-.157-3.556-1.65-4.369l.06-.42c2.31-.52 2.742-.879 3.64-3.21l.498.086c.206 2.528.517 3.018 2.568 4.312l-.06.42c-1.644.257-2.34 1.13-2.78 3.583 1.619.206 2.322-.177 2.868-1.509l.274.05c.315 2.041.545 2.42 2.057 3.191l-.064.442c-1.652.21-1.975.49-2.842 2.323l-.274-.049c-.15-1.455-.712-2.062-2.309-2.427-.088 3.26-.02 6.465 1.796 7.234-2.581-.746-5.253-1.252-8-1.557 1.94-.102 3.178-2.941 3.929-6.083zm11.305 3.133c-2.05 3.086-2.232 4.818-4.873 5.3.932.418 2.032 1.137 2.206 2.06 1.07-2.098 1.972-4.115 3.52-6.99l-.396 1.23c1.195-1.306 1.797-3.114 2.089-4.772l-.762 1.347c.64-2.158.4-2.067 1.294-4.118.117-.38.306-1.39.355-1.861-.076-.826.002-1.974.136-3.228l-.29-.02c-.903 2.702-.673 3.049-2.077 3.624l-.137.483c.619.968.747 2.198-.059 4.89-.666-.53-.757-1.214-.69-2.754l-.183-.07c-.654 1.826-.983 2.1-1.905 2.15l-.106.427c.479.941.443 1.35-.438 3.452l.104.077c1.026-1.285 1.524-1.607 2.212-1.227zm-25.225-10.58c.42-13.614.764-11.554 2.165-16.419h-9.2c1.4 4.865 1.71 2.805 2.13 16.42h4.905z"></path><path class="fil0 str1" d="M252.619 78.005a4.736 4.736 0 0 1-9.201 0h9.201zm-5.719-2.237h-3.482a4.742 4.742 0 0 1 3.482-3.482v3.482zm2.237-3.482a4.742 4.742 0 0 1 3.482 3.482h-3.482v-3.482z"></path><path class="str1" d="M249.137 72.286v3.482h3.482a4.745 4.745 0 0 1 0 2.237h-9.201a4.745 4.745 0 0 1 0-2.237h3.482v-3.482a4.744 4.744 0 0 1 2.237 0z" fill="#96aebe"></path><path class="fil2" d="M247.389 67.702c-2.055 0-2.731.29-3.239 1.053v-3.364c.508.762 1.184 1.053 3.239 1.053 0-2.055-.291-2.732-1.053-3.239h3.364c-.762.507-1.053 1.184-1.053 3.239 2.055 0 2.731-.291 3.239-1.053v3.364c-.508-.762-1.184-1.053-3.239-1.053 0 2.055.291 2.731 1.053 3.239v1.52a4.719 4.719 0 0 0-1.682-.308c-.593 0-1.16.109-1.682.308v-1.52c.762-.508 1.053-1.184 1.053-3.24z" stroke="#70614e" stroke-width=".5" stroke-linejoin="bevel"></path><path class="fil2 str1" d="M248.306 90.398c.692 2.455 1.156 2.883 3.888 3.8v.424c-1.965.54-2.663 1.522-2.775 4.015 2.014-.08 2.807-.58 3.242-1.987h.344c.74 1.956 1.085 2.29 3.067 2.785l-.001.447c-1.982.495-2.328.828-3.068 2.784h-.343c-.436-1.407-1.229-1.907-3.243-1.987.46 3.226.797 6.218 3.15 6.657h-9.132c2.353-.44 2.69-3.431 3.15-6.657-2.014.08-2.807.58-3.243 1.988H243c-.74-1.957-1.086-2.29-3.068-2.785l-.001-.447c1.982-.496 2.328-.829 3.068-2.785h.343c.435 1.407 1.228 1.907 3.242 1.987-.112-2.493-.81-3.475-2.775-4.015v-.425c2.732-.916 3.197-1.344 3.888-3.799h.61z"></path><rect class="fil11 str11" x="245.851" y="97.386" width="4.3" height="4.3" rx="1.1" ry="1.1"></rect><rect class="fil11 str11" transform="matrix(1.10829 .15131 -.1587 1.16235 263.96 98.667)" width="3.665" height="3.665" rx="1.1" ry="1.1"></rect><rect class="fil11 str11" transform="matrix(-1.10829 .15131 .1587 1.16235 232.042 98.667)" width="3.665" height="3.665" rx="1.1" ry="1.1"></rect><rect class="fil11 str11" transform="matrix(.19867 .09519 -.50689 1.05797 277.287 102.075)" width="3.665" height="3.665" rx="1.1" ry="1.1"></rect><path class="fil11 str11" d="M277.81 102.325c1.228.466-.669 4.332-1.858 3.878-.09-.035.092-.6.398-1.24l.743-1.55c.307-.64.626-1.122.717-1.088z"></path><rect class="fil0 str11" x="246.751" y="83.11" width="2.5" height="2.5" rx=".904" ry=".904"></rect><rect class="fil0 str11" x="246.751" y="86.793" width="2.5" height="2.5" rx=".904" ry=".904"></rect><rect class="fil0 str11" x="255.78" y="101.303" width="3" height="3" rx=".904" ry=".904"></rect><rect class="fil0 str11" x="256.142" y="97.297" width="2.8" height="2.8" rx=".904" ry=".904"></rect><rect class="fil0 str11" x="256.549" y="93.341" width="2.7" height="2.7" rx=".904" ry=".904"></rect><rect class="fil0 str11" x="257.045" y="89.451" width="2.6" height="2.6" rx=".904" ry=".904"></rect><rect class="fil0 str11" x="257.624" y="85.647" width="2.5" height="2.5" rx=".904" ry=".904"></rect><rect class="fil0 str11" x="258.337" y="81.658" width="2.4" height="2.4" rx=".904" ry=".904"></rect><rect class="fil0 str11" x="259.102" y="78.019" width="2.3" height="2.3" rx=".904" ry=".904"></rect><rect class="fil0 str11" x="237.221" y="101.303" width="3" height="3" rx=".904" ry=".904"></rect><rect class="fil0 str11" x="237.059" y="97.297" width="2.8" height="2.8" rx=".904" ry=".904"></rect><rect class="fil0 str11" x="236.752" y="93.341" width="2.7" height="2.7" rx=".904" ry=".904"></rect><rect class="fil0 str11" x="236.357" y="89.451" width="2.6" height="2.6" rx=".904" ry=".904"></rect><rect class="fil0 str11" x="235.877" y="85.647" width="2.5" height="2.5" rx=".904" ry=".904"></rect><rect class="fil0 str11" x="235.265" y="81.658" width="2.4" height="2.4" rx=".904" ry=".904"></rect><rect class="fil0 str11" x="234.6" y="78.019" width="2.3" height="2.3" rx=".904" ry=".904"></rect><rect class="fil11 str11" transform="matrix(-.19867 .09519 .50689 1.05797 218.714 102.075)" width="3.665" height="3.665" rx="1.1" ry="1.1"></rect><path class="fil11 str11" d="M218.191 102.325c-1.228.466.669 4.332 1.858 3.878.09-.035-.092-.6-.398-1.24l-.744-1.55c-.306-.64-.625-1.122-.716-1.088z"></path><path class="fil3 str3" d="M284.729 112.986c-1.578.611-2.763.444-1.542 3.388 2.132 5.137-1.031 4.927-3.49 6.084-.672.316-1.321.69-1.945 1.043l.006.002c-4.416 2.637-5.899 1.394-7.331.075-1.935-1.781-5.424-.31-7.434-1.213-1.631-.733-3.205-4.531-3.464-7.811l9.26-.06c-.056.987.035 1.777.223 2.458 4.727 6.41 5.735 3.29 7.349 2.237 1.395-.91 4.672-.152 2.397-4.313-3.112-5.692 4.108-8.984 6.28-7.241 3.14 2.52 6.139-.432 5.49 5.308l.013.005 3.092-.708-.007.008-.003-.002-.034.008c.37-.167 2.29.65 2.87 1.997.75 1.737-.698 1.888-8.54 5.046a.476.476 0 0 1-.163.066l-.005.002.001-.001c-.656.12-1.751-1.195-3.016-6.342l-.007-.036z"></path><path class="fil4 str4" d="M268.79 114.494c-.23 4.058 2.013 4.811 3.377 8.145 1.67 4.084 4.356 1.313 7.531-.181 2.458-1.157 5.622-.948 3.49-6.085-1.582-3.81.87-2.407 2.986-4.229 3.86-3.319 4.26-1.978 4.355.799"></path><path class="fil4 str4" d="M259.529 114.554c.258 3.28 1.833 7.078 3.464 7.81 2.01.904 5.5-.567 7.434 1.214 1.432 1.32 2.915 2.562 7.33-.075"></path><path class="fil4 str4" d="M290.529 112.943c.649-5.74-2.351-2.788-5.49-5.308-2.172-1.743-9.392 1.549-6.28 7.24 2.275 4.162-1.003 3.404-2.397 4.314-1.614 1.052-2.622 4.174-7.35-2.238m15.724-3.929c2.366 9.63 4.141 5.85 3.55 4.338"></path><path class="fil4 str4" d="M295.451 113.85c-4.438-2.583.064-1.792 1.01.4.754 1.75-.72 1.891-8.71 5.115m7.7-5.515c-2.515.93-5.214 2.069-8.17 3.864-1.46-2.427-2.257-3.548 2.591-4.612l3.755-.86"></path><path class="fil3 str3" d="M211.273 112.986c1.578.611 2.763.444 1.542 3.388-2.132 5.137 1.031 4.927 3.49 6.084.672.316 1.321.69 1.945 1.043l-.006.002c4.416 2.637 5.899 1.394 7.331.075 1.935-1.781 5.424-.31 7.434-1.213 1.631-.733 3.206-4.531 3.464-7.811l-9.26-.06c.056.987-.035 1.777-.223 2.458-4.727 6.41-5.735 3.29-7.349 2.237-1.395-.91-4.673-.152-2.397-4.313 3.112-5.692-4.108-8.984-6.28-7.241-3.14 2.52-6.139-.432-5.49 5.308l-.013.005-3.092-.708.007.008.003-.002.034.008c-.37-.167-2.29.65-2.87 1.997-.75 1.737.698 1.888 8.54 5.046a.476.476 0 0 0 .163.066l.005.002-.001-.001c.656.12 1.751-1.195 3.016-6.342l.007-.036z"></path><path class="fil4 str4" d="M227.212 114.494c.23 4.058-2.013 4.811-3.377 8.145-1.67 4.084-4.356 1.313-7.531-.181-2.458-1.157-5.622-.948-3.49-6.085 1.582-3.81-.87-2.407-2.987-4.229-3.858-3.319-4.258-1.978-4.354.799"></path><path class="fil4 str4" d="M236.473 114.554c-.258 3.28-1.833 7.078-3.464 7.81-2.01.904-5.5-.567-7.434 1.214-1.432 1.32-2.915 2.562-7.33-.075"></path><path class="fil4 str4" d="M205.473 112.943c-.649-5.74 2.351-2.788 5.49-5.308 2.172-1.743 9.392 1.549 6.28 7.24-2.275 4.162 1.003 3.404 2.398 4.314 1.614 1.052 2.622 4.174 7.349-2.238m-15.725-3.929c-2.366 9.63-4.141 5.85-3.55 4.338"></path><path class="fil4 str4" d="M200.551 113.85c4.438-2.583-.064-1.792-1.01.4-.754 1.75.72 1.891 8.71 5.115m-7.7-5.515c2.515.93 5.214 2.069 8.17 3.864 1.46-2.427 2.257-3.548-2.591-4.612l-3.755-.86"></path><path class="fil2 str1" d="M273.075 112.696c0-2.96-11.228-5.36-25.074-5.36-13.845 0-25.073 2.375-25.073 5.335v7.048c0-2.434 11.228-4.409 25.073-4.409 13.846 0 25.074 1.974 25.074 4.409v-7.023z"></path><rect class="fil11 str11" x="246.201" y="109.496" width="3.6" height="3.6" rx="1.1" ry="1.1"></rect><rect class="fil11 str11" x="250.996" y="109.593" width="3.55" height="3.6" rx="1.1" ry="1.1"></rect><rect class="fil11 str11" x="255.742" y="109.875" width="3.45" height="3.6" rx="1.1" ry="1.1"></rect><rect class="fil11 str11" x="260.39" y="110.415" width="3.3" height="3.6" rx="1.1" ry="1.1"></rect><rect class="fil11 str11" x="264.88" y="111.061" width="3.1" height="3.6" rx="1.1" ry="1.1"></rect><rect class="fil11 str11" x="269.165" y="112.516" width="2.8" height="3.6" rx="1.1" ry="1.1"></rect><rect class="fil11 str11" x="241.456" y="109.593" width="3.55" height="3.6" rx="1.1" ry="1.1"></rect><rect class="fil11 str11" x="236.81" y="109.875" width="3.45" height="3.6" rx="1.1" ry="1.1"></rect><rect class="fil11 str11" x="232.311" y="110.415" width="3.3" height="3.6" rx="1.1" ry="1.1"></rect><rect class="fil11 str11" x="228.022" y="111.061" width="3.1" height="3.6" rx="1.1" ry="1.1"></rect><rect class="fil11 str11" x="224.037" y="112.516" width="2.8" height="3.6" rx="1.1" ry="1.1"></rect></g></svg>