<svg xmlns="http://www.w3.org/2000/svg" width="450" height="300" xmlns:cgf="https://coding.garden/flags"><metadata id="cgf-metadata">

<cgf:flag>
  <cgf:name></cgf:name>
  <cgf:route>ru/oms</cgf:route>
  <cgf:aspect-ratio>1.5</cgf:aspect-ratio>
</cgf:flag>

</metadata><path fill="#e00000" d="M0 0h450v300H0z"></path><path fill="#fff" d="M150 0h150v300H150z"></path><path fill="#00f" d="m200 0-2 6-2 6v6c0 10 8 23 8 33s-8 23-8 33 8 23 8 33-8 23-8 33 8 23 8 33-8 23-8 33 8 23 8 33-8 23-8 33c0 4 2 12 4 18h50c-2-6-4-14-4-18 0-10 8-23 8-33s-8-23-8-33 8-23 8-33-8-23-8-33 8-23 8-33-8-23-8-33 8-23 8-33-8-23-8-33c0-6 2-12 4-18z"></path></svg>