<svg xmlns="http://www.w3.org/2000/svg" width="1200" height="800" viewBox="0 0 1800 1200" shape-rendering="geometricPrecision" text-rendering="geometricPrecision" image-rendering="optimizeQuality" fill-rule="evenodd" clip-rule="evenodd"><defs><style>.fil3{fill:#1f1a17}.fil5{fill:#c0a062}.fil2{fill:#da251d}.fil0{fill:#fff}.fil10{fill:#92c6c7}.fil4{fill:#e1dfe2}.fil7,.fil8{fill:#92c6c7}</style></defs><path class="fil0" d="M0 0h1800v1200H0z"/><path class="fil2" d="M0 0h750v450H0zm1050 750h750v450h-750z"/><path d="M1050 0h750v450h-750zM0 750h750v450H0z" fill="#0071b4"/><path d="M857.203 748.72c-6.347.145-12.687.745-18.994 1.437-10.748 1.18-21.656 2.735-32.478 2.771h-.073c-5.717-.283-11.418-1.503-16.642-3.869-16.078-7.28-22.408-22.648-22.659-39.497V453.33h264.872l.118 255.523c.022 9.03-1.79 18.205-6.33 26.099-3.827 6.654-9.422 12.033-16.51 15.116-4.997 2.175-10.471 3.055-15.917 2.7-17.391-1.476-34.76-4.11-52.245-4.11h-.036l-.035-.003c-6.534-.345-13.566 1.673-19.42 4.457-7.453 3.545-16.89 10.41-19.478 18.625l-1.286 4.085-1.277-4.089c-1.722-5.513-6.513-10.144-11.152-13.354-5.932-4.106-13.079-7-20.13-8.489-3.391-.716-6.861-1.13-10.328-1.17z" fill="#684833"/><path class="fil2" d="M767.7 454.668h262.186l.118 254.187c.063 27.413-16.947 43.905-37.307 42.579-17.478-1.484-34.876-4.114-52.353-4.115-15.635-.827-36.256 11.338-40.25 24.016-3.977-12.741-24.117-23.748-42.9-23.954-17.156.39-35.136 4.152-51.468 4.209-19.218-.951-37.589-12.718-38.026-42.033v-254.89z"/><path class="fil3" d="M932.498 603.804c.754-.334 1.625-.304 2.173.506.535.787.25 1.639-.342 2.213-.134.13-.272.255-.408.381-.15.142-.3.285-.445.433 1.134-.398 2.427-1.026 2.851-1.224 1.69-.791 3.993-1.933 5.883-1.864l1.116.042.353 1.056c.244.727-.07 1.314-.464 1.868 3.252-.612 7.44-1.102 9.742.045l.89.444v.993c0 .312-.053.613-.158.897l6.392-.163-.174.522h1.879c-.32 1.098-.423 2.415-1.349 3.172l.117.004c2.376.058 4.762.203 6.18 2.415l.084.132.058.148c1.888 4.817 6.11 8.58 9.903 11.934l.146.13.111.16c2.73 3.95 3.715 11.718 4.844 16.478l.438 1.85-1.901.124a4.936 4.936 0 0 1-2.7-.573 5.44 5.44 0 0 1-.873-.588c1.673 2.263 2.882 4.595 1.204 7.469-.765 1.311-1.207 2.604-1.113 4.13.079 1.285.485 2.528.583 3.819.09 1.194-.08 2.292-.577 3.387-.23.503-.634.892-1.165 1.062-.758.245-1.393-.008-1.958-.411.336 1.329.81 2.606 1.273 3.927 1.098 3.137 1.708 5.758 1.27 9.12l-.27 2.075-1.941-.796-.23-.094c.52 1.633 1.346 3.258 1.988 4.557 1.609 3.254 4.586 7.684 3.65 11.414l-.12.477-.364.329c-4.494 4.03-10.034 7.406-14.568 11.393-3.203 1.908-15.675 3.163-18.131-.886-.861-1.419.156-3.694 2.208-5.695.896-.872 1.947-1.6 2.996-2.258 1.193-.746 4.519-2.476 5.074-3.732.163-.368.462-1.335.471-1.744-.272-1.598-1.7-4.88-3.319-6.718l-.955 6.313-2.17-1.668c-2.59-1.993-4.823-9.327-5.608-12.87-1.224 4.27-2.889.727-3.715-1.066-.424-.921-.836-1.847-1.27-2.764-.13-.276-.39-.82-.69-1.402v.235c0 1.32.142 3.715-1.656 3.968.442.933.236 2.167.03 3.134-.115.535-.327 1.186-.425 1.732l.936 3.747c1.395 5.587 1.698 11.876-3.729 15.456-2.393 1.58-6.492 2.946-9.244 3.787-2.33.712-4.83 1.378-7.245 1.72-2.353.132-11.644.035-12.233-4.515l-.01-.081-.003-.083c-.11-4.215 6.343-6.18 9.462-7.724 1.492-.738 5.178-2.477 5.687-4.208.078-.266.086-.532.045-.804a1.555 1.555 0 0 0-.08-.293c-.15-.406-.38-.813-.553-1.216a8.15 8.15 0 0 1-.612-2.31c-.045-.374-.096-1.229-.171-2.02a1.63 1.63 0 0 1-.56.266c-.93.251-1.674-.32-2.101-1.066-.194-.339-.36-.708-.515-1.066-.457-1.055-.863-2.149-1.257-3.228-.54-1.476-1.023-2.986-1.569-4.453a5.644 5.644 0 0 1-.33-2.315 1.737 1.737 0 0 1-.151-.046c-1.308-.444-1.743-1.846-2.122-3.042-.255 1.043-.706 2.152-1.96 2.194a1.535 1.535 0 0 1-.964-.255c-.946-.582-1.475-1.185-2.204-1.813-.417 1.085-.965 2.19-2.4 2.043-.92-.094-1.737-.033-2.65.078-.92.112-2.134.542-3.003.11-.753-.376-1.437-2.507-1.973-1.821l-1.098 1.405h-.332c.017.35.045.72.018.991l-.215 2.148-1.259-.517c.118.66.19 1.35.202 2.092l.056 3.564-1.484-1.268-.249 7.772-2.22 2.216c-.285.72-.3 1.749-.3 2.476-.003 2.152.285 4.982-1.856 6.293-.406.248-.775.362-1.126.378v.881h-.457l-.036.428c-.071.772-.131 1.542-.228 2.312-.278 2.197-1.015 5.469-3.87 5.358-7.129-.278-13.84.865-20.528 3.286-.756.274-1.64.013-2.037-.795a1.601 1.601 0 0 1-.121-.337c-.964.293-1.89.268-2.509-.47-.65-.778-.464-1.691-.019-2.47a1.788 1.788 0 0 1-.072-.028l-1.523-.583.605-1.512c.163-.406.38-.786.643-1.134 1.576-2.08 4.656-2.721 7.04-3.409 2.594-.748 5.217-1.534 5.217-4.69V691.6h.624c.084-.816.002-2.09-.298-2.54l-.616-.038-.445-.64c-1.294-1.851-.392-4.71-.795-5.497a.99.99 0 0 0-.182-.035l-1.087-.113-.295-1.049c-.176-.624-.22-1.47-.272-2.12-.074-.942-.139-1.886-.234-2.828a33.17 33.17 0 0 0-.17-1.414 2.027 2.027 0 0 1-.224.133c-1.057.552-2.04-.035-2.784-.77l-.33-.325-.106-.451c-.327-1.394-.946-3.396-1.541-4.691a57.28 57.28 0 0 1-.406-.904l-.478-.744c-.077 1.289-.883 3.276-1.628 4.245a15.988 15.988 0 0 1-1.817 1.986c-.82.756-2.018 1.69-3.13.636a1.684 1.684 0 0 1-.315-.4c-1.885 1.25-8.706 3.26-6.102-.741l-3.95 3.464c-.52.396-1.208.502-1.809.213-.348-.168-.576-.388-.723-.64l-.258.316c-.802 4.578-5.192 5.622-5.587 9.102l-.038.33-.165.286c-.466.815-.548 1.552-1.248 2.32-.637.7-1.745 1.36-2.68 1.407-5.31.923-6.071.616-8.478-4.138-.626-1.335-.658-2.946-.372-4.422l.115-.593.432-.335c.144-.279.328-1.473.481-2.014.253-1 .649-1.94 1.12-2.854.912-1.768 2.172-3.486 2.757-5.392l.027-.09.038-.085c.397-.905.948-1.372 1.438-2.142.181-.283.242-.491.196-.829l-.09-.665.41-.531c.713-.925 1.262-1.999 1.78-3.04 1.45-2.91 2.756-5.635 5.832-7.073 1.23-1.137 2.803-1.908 4.313-2.6 1.284-.589 2.95-1.255 4.042-2.143l.065-.052.07-.046c1.45-.947 3.212-1.448 4.464-2.634l1.022-.967-.693-2.208c-.343-1.096-.25-2.253-.098-3.373.05-.369.277-1.68.214-2.296-1.076.763-2.383 1.414-3.582.744-1.063-.594-1.266-1.884-1.703-3.085-.22.185-.44.363-.663.527-.775.575-1.729.97-2.635.358a1.705 1.705 0 0 1-.67-.84c-.356.726-.894 1.292-1.808 1.61l-1.064.373-.716-.87c-.509-.622-.714-1.356-.892-2.111-.531.647-1.204 1.047-2.199 1.047h-1.184l-.354-1.126a1.994 1.994 0 0 0-.245-.51c-1.011-1.504-4.331-2.078-5.99-2.343-1.744-.278-3.531-.45-5.258-.805-3.704-.762-5.066-2.243-6.648-4.435l-1.103-1.387c-.974-2.53-.657-5.5-1.115-6.06a.325.325 0 0 0-.078-.04l-1.013-.404v-1.088c0-.308-.112-.685-.172-.99-.11-.56-.142-1.089-.039-1.656l.15-.823.762-.35c3.555-1.63 8.347-2.834 10.982-5.814l.682-.773.273.082c.545-.706 1.324-2.113 1.61-2.616.59-1.042 1.797-3.411 2.686-4.12l.046-.038.05-.033c1.836-1.252 3.992-2.878 6.275-3.908a3.313 3.313 0 0 1-.38-.364c-1.48-1.65-.954-4.308.07-6.048.953-1.622 2.809-3.756 4.763-3.756h.17l.167.035c.498.107 1.852 1.277 3.057 1.595.985.258 2.148.693 2.128 1.93 2.314-1.394 4.948-1.694 7.556.255l.03.022.028.023c2.113 1.735 2.028 5.732.955 8.371a4.986 4.986 0 0 1 1.19-1.182c1.859-1.317 3.673-1.133 5.664-1.743l2.086-.64v2.175c0 .253-.003.268-.063.505-.024.099-.053.19-.086.276a28.2 28.2 0 0 0 1.873-.109c1.28-.11 3.052-.446 3.895.807.483.72.373 1.493.053 2.203a31.46 31.46 0 0 0 1.726-.617c1.558-.619 3.374-1.422 4.84-2.278 3.245-2.988 6.974-3.507 11.304-3.162 2.68.214 5.778.989 8.399 1.613 3.926.937 7.834 1.97 11.736 3 4.442 1.174 8.886 2.378 13.349 3.465 1.22.297 5.776 1.455 7.049 1.372 1.235-.52 2.317-.839 3.667-.967 1.88-.18 3.004-.414 4.812-1.068zm-82.342-2.15-.15.114c-.218.167-.653.523-1.052.905.292-.058.562-.122.744-.168l.458-.852zm1.327 1.39.066.097c.097.146.175.293.236.442l.21-.279c.046-.061.114-.154.19-.26h-.702zm3 3.264-.013.044a.885.885 0 0 1 .03-.04l-.016-.004z"/><path class="fil3" d="M843.615 598.368c.213 1.478.772 2.768 2.198 2.768.806 0 2.02-1.664 2.29-2.687.262-1 .384-2.368-.172-2.818-.427-.346-1.786.709-1.957-.101-.391-1.852-1.099-1.323-1.746-.568-1.18 1.377-.728 2.61-.613 3.406z"/><path class="fil4" d="M921.728 675.18c.318-1.867-.337-4.342 1.247-4.561 2.434-.337 1.551 4.865 4.077 4.81 1.64-.035 1.067-4.176 2.495-3.815 5.981 1.516 1.734 4.765 6.42 5.726 1.127.23-.352 4.154-.25 4.56l1.002 4.011c1.239 4.962 1.678 10.607-3.056 13.73-4.179 2.757-21.8 7.976-19.368 3.933 2.432-4.043-3.118-.474-4.077-.747 2.39-4.672-2.514 1.054-2.788-1.06-.077-2.946 5.459-4.706 8.566-6.245 3.963-1.96 7.06-3.762 6.61-6.693-.176-1.145-1.008-1.794-1.238-3.762-.327-2.785-.115-6.558-2.726-3.14-.398.521-3.365-8.349-3.539-8.808-1.029-2.719 1.19-5.127 2.814-2.128 1.93 3.56 3.8 4.25 3.811 4.189zm-81.902-83.506c-.687 1.452-2.06 2.394-1.888 4.444-7.698 4.386-5.625-5.728-1.286-5.728 2.382.509 5.916 1.168 3.174 1.284zm84.698 15.699c3.686-1.585 3.505-.232 8.589-2.082 1.205-.59-2.84 2.044-2.13 3.774 2.478 1.236 8.09-3.323 11.169-3.21.079.236-2.334 2.582-1.072 3.447 3.156-.708 8.79-1.784 11.157-.604 0 1.264-2.087 1.071-1.533 2.569l8.066-.178c-.195.582.69.472.946.472-.645.965-2.847 1.166-3.254 2.3 2.446 1.81 7.1-.283 8.914 2.549 1.972 5.032 6.153 8.854 10.333 12.55 2.446 3.539 3.576 11.613 4.603 15.938-3.63.235-4.497-4.64-6.705-7-4.192 5.85 6.093 8.886 3.048 14.103-3.166 5.427.48 7.828-1.182 11.48-.562 1.237-2.998-3.538-3.628-.471.63 5.269 3.707 8.571 2.918 14.626-1.34-.55-1.263-3.146-2.918-2.123-.629 6.01 7.405 13 5.977 18.693-3.944 3.539-10.358 8.25-14.381 11.787-3.56.33-7.404-.052-10.518 1.356 0-3.991-.486-1.258-2.84-1.258.818-.408 1.04-1.57 1.183-2.359-.68-.272-2.696.485-3.392 1.179.99-4.936 8.795-6.337 10.254-9.637.272-.614.684-2.038.596-2.595-.382-2.399-3.032-8.362-6.127-9.302l-.932 6.16c-2.604-2.001-4.7-7.064-5.063-10.485.595-2.97-2.919-5.303-2.919-1.18-1.066-1.375-5.898-15.148-5.898-4.929 0 9.8-3.53-13.88-5.995-13.368-2.209 2.673.956 7.64-.236 10.537-.753 1.824-1.63-1.882-3.426-2.695-1.021 8.32-.992.78-4.344 1.64-.89.23-1.964.73-2.801.584-2.019-.356-3.218-4.571-4.394-2.701-5.053 8.032-2.942-3.41-6.627-1.312-.21.12-.57 3.52-1.048 3.226-1.29-.794-1.18-1.056-2.516-2.085-2.08-1.602-1.83 2.18-2.77 2.085-4.493-.462-5.53 2.232-5.995-4.246 1.135.377-.224-10.718-3.864-9.358-.286 1.303 1.541 6.92.236 6.92l-.71 6.448c-.737 0-.415 1.864-.472 2.438-.673-.277-1.702-5.667-1.893-6.684-1.184-1.023-1.124-3.486-1.754-3.25-1.348 5.6 2.286 8.643 2.366 13.84-3.831-3.273-1.09.404-1.42 1.966l-.237 7.391-1.97 1.97c-1.333 2.578.391 7.079-1.658 8.332-1.135.695-1.893-1.83-1.893 1.023-.901 0-.001 8.212-2.919 8.099-7.73-.3-14.592 1.01-21.14 3.381-.452.163 3.313-1.572.947-2.909-2.888 2.16-6 3.149-1.893-.944-.71-1.022-1.658.158-2.683-.236 1.857-4.626 13.016-2.135 13.016-9.829.88 0 1.178-5.608-1.025-5.741-1.263-1.809.867-5.897-2.13-6.212-.402-1.422-.282-10.302-2.367-9.358-.947.394-.03 3.335-1.736 1.652-.867-3.696-3.392-6.447-3.392-10.615-.555-.553-1.736-.22-1.736.708-.398-1.387.081-9.258-1.629-9.472-2.083 3.636-1.12-.458-2.84-1.887.237-1.65-.263-3.19-.027-4.841-2.286.079-.157-5.111-3.312-2.674-.79-2.516 1.736-6.448-1.5-7.156-4.245 3.385-2.389-.173-4.811-2.91-5.25 4.918-1-.197-4.575-.707-1.262.707-.552 2.83-2.13 3.381-.71-.864-.552-2.752-1.42-3.616-1.814-.315-1.34 1.965-2.918 1.965-1.796-5.728-16.569-3.021-15.62-6.998 3.314.157 5.917-.787 7.731-3.302-1.025-1.574-2.63.006-4.128.006-2.052 1.808-5.081-.597-7.526.268-1.602-1.922.533-5.622-1.834-6.566 0-.865-.395-1.494-.238-2.359 3.945-1.808 8.599-2.91 11.517-6.212 1.06.317 4.028-6.42 5.05-7.235 2.722-1.856 6.838-5.141 10.333-4.56.262 3.913 2.679 1.938 4.576 1.493-.159-1.886-2.841-3.066-1.184-5.347 2.443-2.638 5.322-4.04 8.204-1.887 1.77 1.454 1.154 5.743 0 7.471-3.407 2.612-3.645 4.822 1.182 3.538.715 1.069-1.174 3.497 2.367 2.91-.117.348-1.324 1.784-.473 2.123 2.095.835.672.042.947 1.965 1.656 1.652 2.288-.943 3.39-1.493-3.544-1.302 2.064-3.697.238-4.247l-3.392-1.022c1.733-2.304.915-2.831-1.183-2.831 1.191-2.215 4.194-2.048 6.231-2.673 0 .725-1.656 1.011-1.656 2.2 6.345.96 10.22-2.246 5.522 3.54 2.263.79 9.372-2.715 10.958-3.66 1.012-.959 2.26-1.896 4.22-2.445v4.402c-.01.344.048.684.085 1.024.442 2.2 2.528 4.173 6.23 4.167l3.154-.006v.006h35.831v-.672c.94.137 1.583.165 1.848.052zm-95.646 6.084c.548 2.73 1.167 2.071-3.941.873-.983-.23 1.958-6.804 3.94-.873zm9.014 18.5c1.304.227 2.809.219 3.543 1.516.195.344.663.279.66-.247-.014-2.685 4.086.973 4.123-2.794.016-1.698 1.217-1.33 2.591-1.33 1.358 0 2.119-.51 2.565-1.947-1.626.546-2.174.637-4.274.3-.948-.152-2.284-.688-2.284.921 0 .863.426 2.237-.027 2.503-.272.16-1.293-.038-1.705-1.105-.264-.688-1.31-1.648-1.566-.658-.316 1.23-.344 2.19-2.473 1.644-.205-.052-1.246-.72-1.573-.904-1.528-.86-2.22 1.639.42 2.1zm15.513 24.759c-.418 1.749-2.409 2.997-1.155 4.996 3.627-.834 3.046-1.756 2.66 1.333-.018.137-1.528 3.581-.503 3.581 6.234 0-1.516 7.309-1.44 6.613.085-.75-.082-1.498-.5-2.082-1.588 1.916-4.094 2.666-6.35 3.332.147-.17 1.43-2.903.501-2.748l-1.503.249-4.595 3.498c-.885.672 1.962-6.108-3.342.5-.501 4.414-5.157 5.172-5.658 9.586-.67 1.167-.67 2.499-2.34 2.582.501-1.084-.904-2.53-1.239-3.28-1.17.25-.883 2.318-1.3 3.317-1.003-.5-.025-3.727-2.28-2.81-1.086.665.023 1.811-1.063 2.31.168-1.332-2.076-3.269-1.575-5.85.752-.584.668-1.916 1.003-2.833.75-2.997 2.942-5.193 3.86-8.192.585-1.332 2.006-1.998 1.755-3.831 2.506-3.248 3.157-7.992 7.25-9.74 2.172-2.167 6.202-3.017 8.458-4.85 2.423-1.582 4.093-2.261 6.349-3.844 2.39.986.767 3.93.975 5.672.115.947-1.12 2.938 2.032 2.49z"/><path class="fil3" d="M918.97 556.355h3.706v51.638h-35.83v-.006l-3.154.006c-3.703.006-5.789-1.968-6.23-4.167-.038-.34-.096-.68-.087-1.024v-50.874h.013c.186-2.348 2.404-4.637 6.709-4.818l35.374.065-.808 1.192c-1.38 2.039-1.382 5.496 0 7.534l.307.454z"/><path class="fil5" d="M887.65 557.158h34.22v50.032h-34.22v-50.032zm19.502 14.844h3.133v3.043h-3.133v2.656h6.076v3.042h-6.076v6.221l3.46 1.992v3.291l-3.46-1.991v5.306H904.1V588.5l-3.46-1.992v-3.291l3.46 1.991v-4.465h-6.076v-3.042h6.076v-2.656h-3.133v-3.043h3.133v-2.856h3.052v2.856zm-2.246-2.053h1.44v2.856h3.133v1.436h-3.132v4.263h6.075v1.436h-6.075v7.488l3.46 1.992v1.436l-3.46-1.991v5.893h-1.441v-6.722l-3.46-1.992v-1.436l3.46 1.991v-6.659h-6.077v-1.436h6.077v-4.263h-3.132v-1.436h3.132v-2.856zm-12.96-8.507h25.627v41.462h-25.626v-41.462zm.806.803h3.752l-3.752 3.74v-3.74zm4.891 0h14.234l4.89 4.876v30.106l-4.89 4.874h-14.235l-4.89-4.874v-30.108l4.891-4.874zm15.373 0h3.752v3.74l-3.752-3.74zm3.752 36.117v3.74h-3.752l3.752-3.74zm-20.265 3.74h-3.75v-3.739l3.75 3.738z"/><path class="fil0" d="M884.235 547.913h33.585c.057 0 .117.002.176.005-.48.706-.812 1.553-.998 2.454H889.31v.708h27.573a8.86 8.86 0 0 0 .072 2.59h-25.577v.707h25.735c.195.72.49 1.394.882 1.973a3.471 3.471 0 0 1-.176.004h-33.584c-7.657 0-7.688-8.494 0-8.441z"/><path class="fil3" d="m895.754 529.144-5.372-14.044 1.74.424c5.095 1.242 10.185 1.242 15.279 0l1.74-.424-5.37 14.044 13.214-5.205-.432 1.76c-1.247 5.08-1.247 10.153 0 15.231l.433 1.76-12.43-4.894 4.61 11.636-1.765-.431c-5.094-1.244-10.184-1.244-15.279 0l-1.764.43 4.61-11.635-12.43 4.894.433-1.76c1.247-5.079 1.247-10.151 0-15.23l-.432-1.761 13.215 5.205z"/><path class="fil4" d="m883.884 525.477 13.508 5.32-5.493-14.363c5.25 1.28 10.476 1.28 15.726 0l-5.493 14.363 13.508-5.32c-1.285 5.233-1.285 10.443 0 15.677l-12.756-5.025 4.741 11.961c-5.25-1.28-10.476-1.28-15.726 0l4.74-11.96-12.755 5.024c1.285-5.234 1.285-10.444 0-15.677z"/><path class="fil5" d="M878.18 554.704c0 .635.03 1.082.107 1.685l.002.002.023.185c.232 1.075.862 1.856 1.69 2.387 1.03.661 2.361.947 3.623.946l3.22-.007v-2.748l-2.749.004c-2.92.005-4.898-1.038-5.916-2.454zm6.226 32.987h.683v10.671h-.683v-10.671zm-2.471-.68h.684v10.671h-.684v-10.671zm-2.472-.74h.685v10.67h-.685v-10.67zm4.943-19.227h.683v10.673h-.683v-10.673zm-2.471-.68h.684v10.672h-.684v-10.672zm-2.472-.74h.685v10.672h-.685v-10.673zm-1.283-7.438c0 .63.03 1.069.107 1.668h.002l.023.186c.232 1.075.862 1.856 1.69 2.387 1.03.66 2.361.947 3.623.945l3.22-.006v-2.726l-3.22.006c-1.39.002-2.868-.319-4.023-1.062a4.629 4.629 0 0 1-1.422-1.398zm0 3.464v14.623c.002.31.096.566.132.861.232 1.075.862 1.856 1.69 2.387 1.03.662 2.361.948 3.623.946l3.22-.007v-16.356l-3.22.006c-1.39.003-2.868-.319-4.023-1.062a4.629 4.629 0 0 1-1.422-1.398zm0 17.094c0 .63.03 1.069.107 1.668l.002.001.023.185c.232 1.075.862 1.856 1.69 2.387 1.03.662 2.361.948 3.623.947l3.22-.008v-2.726l-3.22.006c-1.39.003-2.868-.319-4.023-1.06a4.633 4.633 0 0 1-1.422-1.4zm0 3.464v13.06c0 .557.061 1 .132 1.563.232 1.075.862 1.855 1.69 2.387 1.03.66 2.361.948 3.623.945l3.22-.006v-15.494l-3.22.005c-1.39.003-2.868-.318-4.023-1.06a4.66 4.66 0 0 1-1.422-1.4zm0 16.233c0 .63.03 1.07.107 1.668l.002.001.023.186c.232 1.075.862 1.854 1.69 2.387 1.03.66 2.361.947 3.623.945l3.22-.006v-2.726l-3.22.006c-1.39.002-2.868-.32-4.023-1.062a4.642 4.642 0 0 1-1.422-1.399zm0 3.463v.915c-.008.287.044.594.078.88.523 2.51 3.105 3.494 5.432 3.49l3.155-.005v-2.824l-3.22.006c-1.39.002-2.868-.32-4.023-1.062a4.633 4.633 0 0 1-1.422-1.4z"/><path class="fil3" d="M972.548 389.583c.981.178 1.964.416 2.944.704.637.187 1.26.449 1.845.758 3.597 1.897 5.184 5.424.037 6.647-2.45.583-4.476 1.491-6.495 3.02-3.529 2.676-6.208 6.671-8.231 10.545-2.211 4.233-3.93 8.832-5.52 13.328-2.036 5.753-3.87 11.754-6.308 17.34-1.31 3.004-3.186 5.102-6.098 6.664-4.498 2.413-10.69 3.05-15.708 3.243-20.094.77-40.23.77-60.324 0-5.017-.193-11.21-.83-15.709-3.243-2.911-1.562-4.787-3.66-6.098-6.663-2.437-5.587-4.272-11.588-6.307-17.341-1.59-4.496-3.31-9.094-5.52-13.328-2.023-3.874-4.702-7.87-8.231-10.544-2.019-1.53-4.043-2.438-6.495-3.02-1.329-.317-3.095-.995-3.266-2.57-.253-2.325 3.232-4.273 5.147-4.836.98-.288 1.963-.526 2.945-.704-4.73-9.191-7.512-19.528-6.717-29.904.707-9.235 4.25-17.99 10.786-24.656 6.88-7.017 16.04-10.671 25.802-11.166 9.559-.483 19.005 2.027 27.634 6.077-.013-.259-.02-.52-.02-.782 0-7.479 5.1-13.773 12.023-15.613v-7.454h-6.08l-5.196 8.023h-4.32v-24.397h4.32l5.195 8.024h6.08v-8.922l-10.037-6.461v-5.006h28.452v5.006l-10.038 6.46v8.923h6.08l5.196-8.024h4.32v24.397h-4.32l-5.197-8.023h-6.079v7.454c6.921 1.84 12.021 8.134 12.021 15.613 0 .262-.005.523-.018.782 8.629-4.05 18.075-6.56 27.633-6.077 9.761.495 18.922 4.15 25.803 11.166 6.535 6.666 10.078 15.42 10.786 24.656.795 10.376-1.987 20.713-6.717 29.904z"/><path d="M971.713 389.444c4.735-9.117 7.539-19.389 6.749-29.703-.692-9.047-4.155-17.625-10.56-24.155-6.739-6.873-15.707-10.441-25.267-10.925-9.318-.473-18.54 1.953-26.978 5.873l-10.291 39.245a17.38 17.38 0 0 1 2.928 1.915l10.145-39.474c42.221-18.363 71.654 17.576 50.366 56.976a22.93 22.93 0 0 1 2.908.248zm-79.375-19.665-10.292-39.245c-8.438-3.92-17.659-6.346-26.978-5.874-9.56.485-18.528 4.053-25.267 10.926-6.404 6.53-9.866 15.108-10.559 24.154-.79 10.315 2.014 20.587 6.749 29.704.974-.144 1.944-.23 2.908-.248-21.288-39.4 8.145-75.34 50.365-56.977l10.146 39.475a17.38 17.38 0 0 1 2.928-1.916z" fill="#7a6842"/><ellipse class="fil3" cx="874.129" cy="321.286" rx="5.698" ry="5.68"/><ellipse class="fil7" cx="874.129" cy="321.286" rx="4.892" ry="4.877"/><ellipse class="fil3" cx="856.976" cy="318.856" rx="5.698" ry="5.68"/><ellipse class="fil7" cx="856.976" cy="318.856" rx="4.892" ry="4.877"/><ellipse class="fil3" cx="838.496" cy="322.277" rx="5.698" ry="5.68"/><ellipse class="fil7" cx="838.496" cy="322.277" rx="4.892" ry="4.877"/><ellipse class="fil3" cx="823.622" cy="333.378" rx="5.698" ry="5.68"/><ellipse class="fil7" cx="823.622" cy="333.378" rx="4.892" ry="4.877"/><ellipse class="fil3" cx="815.044" cy="349.696" rx="5.698" ry="5.68"/><ellipse class="fil7" cx="815.044" cy="349.696" rx="4.892" ry="4.877"/><ellipse class="fil3" cx="923.575" cy="321.286" rx="5.698" ry="5.68"/><ellipse class="fil8" cx="923.575" cy="321.286" rx="4.892" ry="4.877"/><ellipse class="fil3" cx="940.728" cy="318.856" rx="5.698" ry="5.68"/><ellipse class="fil8" cx="940.728" cy="318.856" rx="4.892" ry="4.877"/><ellipse class="fil3" cx="959.208" cy="322.277" rx="5.698" ry="5.68"/><ellipse class="fil8" cx="959.208" cy="322.277" rx="4.892" ry="4.877"/><ellipse class="fil3" cx="974.083" cy="333.378" rx="5.698" ry="5.68"/><ellipse class="fil8" cx="974.083" cy="333.378" rx="4.892" ry="4.877"/><ellipse class="fil3" cx="982.66" cy="349.696" rx="5.698" ry="5.68"/><ellipse class="fil8" cx="982.66" cy="349.696" rx="4.892" ry="4.877"/><path class="fil2" d="m888.728 372.27-10.146-39.471c-8.352-3.577-17.606-5.588-26.697-4.35-7.453 1.015-14.305 4.184-19.588 9.571-5.827 5.944-8.943 13.76-9.573 21.987-.77 10.05 2.154 20.074 6.912 28.862.104.11.207.222.307.334 3.336.11 6.566 1.065 9.505 3.186 2.754 1.989 4.835 4.672 6.508 7.59.101-6.4.9-13.445 3.363-19.124 1.735-4.001 4.719-8.093 9.34-8.806 4.577-.704 8.74 2.216 11.664 5.418 3.844 4.21 6.645 9.892 8.629 15.405 1.608-9.754 5.271-16.62 9.776-20.602zm20.25 0 10.145-39.471c8.352-3.577 17.606-5.588 26.697-4.35 7.454 1.015 14.306 4.184 19.587 9.571 5.828 5.944 8.944 13.76 9.575 21.987.768 10.05-2.155 20.074-6.913 28.862-.104.11-.206.222-.308.334-3.334.11-6.564 1.065-9.503 3.186-2.755 1.989-4.836 4.672-6.509 7.59-.101-6.4-.9-13.445-3.364-19.124-1.735-4.001-4.718-8.093-9.34-8.806-4.576-.704-8.739 2.216-11.663 5.418-3.845 4.21-6.645 9.892-8.63 15.405-1.606-9.754-5.27-16.62-9.774-20.602z"/><path class="fil5" d="M899.206 313.8c8.342.188 15.05 6.99 15.05 15.352 0 2.031-.397 3.97-1.115 5.745a4.052 4.052 0 0 0-3.789-5.497 4.05 4.05 0 0 0-4.057 4.044 4.051 4.051 0 0 0 4.057 4.045 4.06 4.06 0 0 0 3.726-2.442 15.41 15.41 0 0 1-14.226 9.462 15.412 15.412 0 0 1-14.228-9.462 4.06 4.06 0 0 0 3.726 2.442 4.052 4.052 0 0 0 4.059-4.045 4.052 4.052 0 0 0-4.059-4.044 4.05 4.05 0 0 0-3.787 5.497 15.26 15.26 0 0 1-1.117-5.745c0-8.361 6.71-15.164 15.051-15.352a4.052 4.052 0 0 0-3.704 4.03 4.053 4.053 0 0 0 4.059 4.045 4.052 4.052 0 0 0 4.057-4.045 4.052 4.052 0 0 0-3.703-4.03zm-.354 8.087c4.024 0 7.287 3.253 7.287 7.265 0 4.011-3.263 7.265-7.287 7.265s-7.288-3.254-7.288-7.265c0-4.012 3.264-7.265 7.288-7.265z"/><path class="fil5" d="m884.478 336.632 3.26 12.426a4.144 4.144 0 0 1 4.088-4.852 4.144 4.144 0 0 1 4.149 4.137 4.144 4.144 0 0 1-4.15 4.136 4.15 4.15 0 0 1-3.916-2.765l5.169 19.708c3.759-1.694 7.789-1.694 11.548 0l5.17-19.715a4.15 4.15 0 0 1-3.918 2.772 4.143 4.143 0 0 1-4.149-4.136 4.143 4.143 0 0 1 4.15-4.137 4.143 4.143 0 0 1 4.086 4.86l3.262-12.438a16.236 16.236 0 0 1-14.375 8.684c-6.2 0-11.653-3.495-14.374-8.68zm14.374 13.83c4.56 0 8.256 3.686 8.256 8.23 0 4.544-3.697 8.23-8.256 8.23-4.56 0-8.257-3.686-8.257-8.23 0-4.544 3.698-8.23 8.257-8.23z"/><path class="fil0" d="M820.517 396.911c3.553.844 9.487 2.932 15.254 13.976 4.818 9.226 8.067 22.045 11.852 30.718 2.07 4.742 6.206 8.854 21.098 9.424 20.03.768 40.232.768 60.263 0 14.892-.57 19.028-4.682 21.098-9.424 3.785-8.673 7.034-21.492 11.852-30.718 5.767-11.044 11.701-13.132 15.254-13.976 5.45-1.296 1.356-4.89-1.923-5.854-14.815-4.353-21.169 5.565-24.328 12.23.737-39.152-22.331-39.794-32.517-6.874-3.942-36.609-35.194-36.609-39.135 0-10.186-32.92-33.254-32.278-32.517 6.875-3.16-6.666-9.514-16.584-24.328-12.23-3.279.963-7.372 4.557-1.923 5.853z"/><path class="fil3" d="M898.852 429.43c10.702 0 22.762 1.037 33.04 4.153 4.34 1.316 14.003 4.773 14.003 10.48 0 1.711-.681 2.134-2.063 2.876-4.215 2.26-10.158 2.839-14.89 3.02a786.51 786.51 0 0 1-60.18 0c-4.732-.181-10.675-.76-14.89-3.02-1.382-.742-2.063-1.165-2.063-2.875 0-5.708 9.663-9.165 14.004-10.481 10.278-3.116 22.337-4.153 33.039-4.153z"/><path d="M892.329 383.276c1.176 0 2.167.863 2.342 2.007h3.826v-2.926c-4.105-.616-1.008-7.037 2.03-4.004 1.382 1.38.575 3.72-1.32 4.004v2.926h3.826c.63-4.096 7.05-1 4.016 2.024-1.376 1.373-3.726.582-4.016-1.316h-3.101l8.782 15.11-.63.325-8.876-15.27v4.559l6.82 11.768-.637.327-6.183-10.64v12.284h-.711v-12.283l-6.196 10.66-.637-.327 6.833-11.792v-4.557l-8.888 15.293-.618-.346 8.782-15.11h-3.102c-.63 4.095-7.047 1.004-4.016-2.023a2.363 2.363 0 0 1 1.674-.692v-.001zm7.696-4.424c-2.26-2.243-4.351 2.821-1.173 2.821 1.479 0 2.211-1.787 1.173-2.821zm6.523 5.616c-2.26-2.243-4.35 2.821-1.173 2.821 1.48 0 2.211-1.787 1.173-2.821zm-13.046 0c-2.26-2.242-4.353 2.821-1.173 2.821 1.482 0 2.207-1.79 1.173-2.821zm16.2 22.913a2.366 2.366 0 0 1 2.196 2.164l3.817.267.206-2.921c-3.957-.88-.674-7.038 2.304-3.852 1.23 1.317.42 3.738-1.596 3.901l-.205 2.92 3.816.267c.879-3.94 7.058-.68 3.863 2.297-1.318 1.23-3.751.418-3.913-1.59l-3.094-.216 7.704 15.685-.652.28-7.785-15.851-.318 4.547 5.98 12.215-.658.282-5.425-11.043-.86 12.254-.71-.05.861-12.254-6.927 10.205-.613-.372 7.642-11.288.319-4.545-9.936 14.637-.593-.388 9.819-14.462-3.096-.215c-.882 3.944-7.057.67-3.863-2.299a2.365 2.365 0 0 1 1.717-.573v-.002zm7.988-3.879c-2.093-2.395-4.54 2.511-1.368 2.733 1.473.103 2.328-1.627 1.368-2.733zm6.114 6.056c-2.103-2.394-4.533 2.514-1.367 2.734 1.472.102 2.328-1.629 1.367-2.734zm-13.015-.907c-2.086-2.398-4.544 2.51-1.367 2.733 1.472.103 2.33-1.629 1.367-2.733zm-22.787-1.27a2.365 2.365 0 0 0-2.196 2.164l-3.817.267-.203-2.921c3.954-.881.67-7.037-2.306-3.852-1.233 1.318-.419 3.738 1.596 3.901l.206 2.92-3.818.267c-.879-3.94-7.057-.68-3.863 2.297 1.32 1.23 3.751.418 3.913-1.59l3.094-.216-7.703 15.685.652.28 7.785-15.851.319 4.547-5.98 12.215.658.282 5.424-11.043.86 12.254.709-.05-.86-12.254 6.927 10.205.613-.372-7.641-11.288-.32-4.545 9.936 14.637.593-.388-9.817-14.462 3.093-.215c.883 3.944 7.058.67 3.863-2.299a2.365 2.365 0 0 0-1.717-.573v-.002zm-7.988-3.879c2.093-2.395 4.54 2.511 1.368 2.733-1.473.103-2.328-1.627-1.368-2.733zm-6.114 6.056c2.103-2.396 4.533 2.514 1.367 2.734-1.472.102-2.328-1.629-1.367-2.734zm13.015-.907c2.086-2.398 4.545 2.51 1.367 2.733-1.472.103-2.33-1.629-1.367-2.733zm52.469 2.693a2.362 2.362 0 0 1 1.56 2.657l3.617 1.242.956-2.768c-3.291-1.714.504-6.946 3.227-3.126.802 1.125-.284 3.775-2.553 3.357l-.958 2.768 3.618 1.242c1.342-2.553 5.283-.868 4.339 1.863-.946 2.737-5.093 1.635-4.571-1.194l-2.933-1.006 3.37 17.137-.703.102-3.405-17.32-1.488 4.31 2.606 13.342-.71.103-2.37-12.067-4.013 11.615-.672-.23 4.012-11.613-9.34 8.067-.496-.515 10.312-8.932 1.488-4.308-13.398 11.574-.471-.528 13.239-11.437-2.934-1.007c-1.909 3.654-7-1.31-3.135-3.216a2.368 2.368 0 0 1 1.807-.11l-.001-.002zm8.722-1.685c-1.397-2.859-5.04 1.26-2.03 2.287 1.403.479 2.672-.975 2.03-2.287zm4.334 7.426c-1.396-2.854-5.039 1.256-2.03 2.288 1.394.48 2.671-.97 2.03-2.288zm-12.336-4.234c-1.403-2.852-5.035 1.254-2.03 2.288 1.395.48 2.672-.972 2.03-2.288zm-81.784-1.507a2.362 2.362 0 0 0-1.56 2.657l-3.617 1.242-.956-2.768c3.291-1.714-.504-6.946-3.227-3.126-.802 1.125.284 3.775 2.553 3.357l.958 2.768-3.618 1.242c-1.342-2.553-5.283-.868-4.339 1.863.946 2.737 5.093 1.635 4.571-1.194l2.933-1.006-3.369 17.137.702.102 3.405-17.32 1.488 4.31-2.605 13.342.71.103 2.37-12.067 4.012 11.615.672-.23-4.012-11.613 9.341 8.067.495-.515-10.312-8.932-1.488-4.308 13.398 11.574.471-.528-13.239-11.437 2.934-1.007c1.908 3.654 7-1.31 3.135-3.216a2.368 2.368 0 0 0-1.807-.11l.001-.002zm-8.722-1.685c1.397-2.859 5.04 1.26 2.03 2.287-1.403.479-2.672-.975-2.03-2.287zm-4.334 7.426c1.396-2.854 5.039 1.256 2.03 2.288-1.394.48-2.671-.97-2.03-2.288zm12.336-4.234c1.401-2.852 5.036 1.254 2.03 2.288-1.395.48-2.672-.972-2.03-2.288zm73.338-26.628a2.368 2.368 0 0 1 1.83 2.48l3.727.859.662-2.852c-2.683-1.053-1.426-5.148 1.405-4.496 2.831.652 2.16 4.88-.713 4.655l-.662 2.852 3.729.86c1.06-2.676 5.164-1.418 4.51 1.4-.655 2.82-4.89 2.159-4.67-.71l-3.022-.696 5.146 16.693-.688.175-5.2-16.871-1.03 4.44 3.989 12.999-.694.174-3.625-11.753-2.772 11.97-.694-.159 2.774-11.969-8.444 8.998-.547-.463 9.319-9.956 1.03-4.44-12.111 12.908-.525-.478 11.967-12.752-3.022-.696c-1.063 2.677-5.164 1.415-4.51-1.402a2.37 2.37 0 0 1 2.841-1.769v-.001zm8.498-2.584c-1.691-2.696-4.878 1.775-1.779 2.487 1.437.33 2.557-1.247 1.779-2.487zm5.088 6.935c-1.691-2.695-4.877 1.775-1.779 2.486 1.436.331 2.559-1.244 1.78-2.486zm-12.712-2.927c-1.69-2.694-4.878 1.776-1.779 2.488 1.436.33 2.559-1.245 1.779-2.488zm-65.046-1.424a2.366 2.366 0 0 0-1.83 2.48l-3.727.859-.662-2.852c2.682-1.053 1.426-5.146-1.405-4.496-2.831.651-2.161 4.88.713 4.655l.66 2.852-3.727.86c-1.418-3.58-7.03.035-3.456 2.873 1.19.945 3.788.017 3.615-2.183l3.023-.696-5.146 16.693.687.175 5.202-16.871 1.029 4.44-3.989 12.999.694.174 3.625-11.753 2.772 11.97.694-.159-2.774-11.969 8.444 8.998.547-.463-9.32-9.956-1.029-4.44 12.112 12.908.525-.478-11.968-12.752 3.023-.696c1.412 3.578 7.031-.03 3.455-2.872-.637-.507-1.77-.29-1.787-.3zm-8.498-2.584c1.691-2.696 4.878 1.775 1.779 2.487-1.437.33-2.557-1.246-1.779-2.487zm-5.088 6.935c1.691-2.695 4.877 1.775 1.779 2.486-1.437.331-2.559-1.244-1.78-2.486zm12.712-2.927c1.69-2.694 4.878 1.776 1.779 2.488-1.437.33-2.559-1.245-1.779-2.488zm97.624 9.525a2.364 2.364 0 0 1 1.123 2.868l3.378 1.79 1.377-2.584c-2.776-2.06 1.14-6.809 3.678-2.584.944 1.57-1.843 3.339-3.05 2.916-1.228 2.304-.485.963-2.417 3.026l.001-.002-15.05 9.34-.383-.594 14.87-9.23-2.74-1.451c-2.068 2.766-6.825-1.13-2.59-3.667a2.369 2.369 0 0 1 1.803.173v-.001zm-.574 11.876-8.661 5.376-.409-.587 9.89-6.156c-.273.437-.546.893-.82 1.368v-.001zm9.454-12.18c-.935-3.04-5.173.455-2.365 1.942 1.303.69 2.792-.542 2.365-1.943zm-8.405 1.904c-.934-3.037-5.172.456-2.365 1.943 1.304.691 2.789-.54 2.365-1.943zm-129.803-1.6a2.363 2.363 0 0 0-1.123 2.868l-3.378 1.79-1.377-2.584c2.776-2.059-1.139-6.809-3.678-2.584-.945 1.572 1.852 3.34 3.05 2.916 1.226 2.3.485.965 2.42 3.027l-.003-.005 15.05 9.343.384-.595-14.872-9.23 2.74-1.453c1.72 2.312 5.353.037 3.991-2.517-1.049-1.968-3.195-.976-3.204-.976zm.574 11.876 8.661 5.376.409-.587-9.89-6.154c.273.437.547.893.82 1.365zm-9.454-12.18c.935-3.04 5.174.455 2.365 1.942-1.303.691-2.79-.54-2.365-1.943zm8.405 1.904c.937-3.035 5.172.453 2.365 1.943-1.296.689-2.791-.529-2.365-1.943z" fill="#1f1a17" fill-rule="nonzero"/><path class="fil2" d="M898.852 429.965c25.68 0 46.507 6.314 46.507 14.099 0 1.47-.554 1.744-1.782 2.402-4.123 2.212-10.066 2.782-14.655 2.958a785.462 785.462 0 0 1-60.14 0c-4.59-.176-10.532-.746-14.655-2.958-1.228-.658-1.78-.932-1.78-2.402 0-7.785 20.824-14.099 46.505-14.099z"/><ellipse class="fil3" cx="813.265" cy="368.613" rx="5.698" ry="5.68"/><ellipse class="fil7" cx="813.265" cy="368.613" rx="4.892" ry="4.877"/><ellipse class="fil3" cx="817.944" cy="386.552" rx="5.698" ry="5.68"/><ellipse class="fil7" cx="817.944" cy="386.552" rx="4.892" ry="4.877"/><ellipse class="fil3" cx="984.439" cy="368.613" rx="5.698" ry="5.68"/><ellipse class="fil8" cx="984.439" cy="368.613" rx="4.892" ry="4.877"/><ellipse class="fil3" cx="979.761" cy="386.552" rx="5.698" ry="5.68"/><ellipse class="fil8" cx="979.761" cy="386.552" rx="4.892" ry="4.877"/><ellipse class="fil2" cx="898.852" cy="329.152" rx="6.616" ry="6.596"/><ellipse class="fil10" cx="898.852" cy="317.83" rx="3.386" ry="3.376"/><ellipse class="fil10" cx="909.352" cy="333.445" rx="3.386" ry="3.376"/><ellipse class="fil10" cx="888.351" cy="333.445" rx="3.386" ry="3.376"/><ellipse class="fil2" cx="898.852" cy="358.692" rx="7.585" ry="7.561"/><ellipse class="fil10" cx="905.878" cy="348.342" rx="3.478" ry="3.467"/><ellipse class="fil10" cx="891.825" cy="348.342" rx="3.478" ry="3.467"/><path class="fil5" d="M917.83 290.515h-3.074l-5.197 8.023h-7.324v-10.162l10.038-6.46v-3.766H885.43v3.765l10.038 6.461v10.162h-7.324l-5.196-8.023h-3.075v22.79h3.075l5.196-8.023h7.324v8.065a16.288 16.288 0 0 1 6.766 0v-8.065h7.324l5.197 8.024h3.074v-22.791z"/></svg>