<svg xmlns="http://www.w3.org/2000/svg" width="1200" height="800" fill-rule="evenodd"><path fill="#0093dd" d="M0 0h1200v800H0z"/><path fill="#d81e05" d="M0 0h1200L0 800z"/><path fill="#fff" d="M0 800V640L1200 0v160z"/><path d="M136.922 104.013c2.626 2.282 6.276 6.73 6.846 9.81 7.073 1.141 12.777 5.704 17.911 10.84 7.073.226 14.602-.915 19.736 3.762 6.845 3.538 13.12 8.557 20.99 9.584 11.524 1.027 23.845.684 35.139-.228 7.073-.23 12.777 1.483 19.167 3.308 9.011 3.082 20.077 3.082 30.116 2.167 8.214.685 37.99 2.396 42.325 13.12 2.281 1.825 4.335 4.107 6.958 5.248 2.282.913 1.94 3.878 4.336 4.791 8.1 8.557 28.293 17.684 37.761 5.819 2.51-3.08 1.14-8.214 1.369-12.32-10.038-20.194-41.868-23.845-61.147-21.563-6.731.228-13.234 1.825-20.308 1.37-12.435 0-32.284 2.168-43.807-3.424-6.845-2.965-13.005-5.818-20.535-7.872-14.83-4.449-10.155-20.42 2.624-20.42 17.911-7.073 35.593 13.348 50.767 7.872 9.012 0 17.226-2.282 26.353-1.711 10.724-2.055 20.991.57 31.715.684 25.326 5.248 57.954 15.516 62.972 45.975 3.766 26.24-25.097 49.741-50.765 41.184 2.053 9.469 10.495 31.943 21.104 35.936 4.792 2.966 11.294 1.141 15.629 5.135 3.537 9.354 6.276 19.165 11.523 28.178.57 4.677-12.093 21.332-14.374 28.178H337.48c-4.906-6.731 4.45-23.386 3.308-21.333 3.879-5.133 9.241-9.012 15.06-10.61-1.94-1.597-3.08-5.133-6.048-4.792-7.643-5.931-17.112-8.213-24.07-15.515-.8 1.027-2.168 2.053-2.168 2.851-6.617 7.874-3.652 20.423-12.321 27.267-11.066 3.992-13.235 15.4-19.851 21.333h-99.365c-1.598-14.716 4.905-26.238 19.051-29.775.228-.57.914-1.37.113-1.938-5.475-4.45-12.32-17.685-18.708-20.195-4.563 6.731-5.477 13.578-10.496 19.623-5.704.8-11.293 4.792-16.429 7.985-10.722 6.161-11.977 17.341-15.058 25.099-1.369 1.027-2.965.342-4.905.342H87.867c.457-16.998 11.523-29.091 28.52-31.144 3.652-9.241 14.262-14.602 18.254-23.73 2.167-9.469 3.765-18.824 7.53-27.608-12.549-5.361-25.44-19.165-31.602-31.487-3.651-2.396-8.214-3.536-11.066-7.3-5.475.114-14.602-5.135-19.05-3.082-3.88.343-8.557.686-11.98-1.026-5.932 2.167-11.637-19.963-3.88-25.212 3.995-2.397 9.698.912 13.12-2.054-7.528-1.938-15.402 4.793-22.132-3.879-2.85-3.536 1.826-7.415-1.255-10.723-6.387-.8-5.019-12.55-.341-15.515 2.965-.8 5.704-2.054 8.898-1.826 2.51-1.597 4.906-3.308 7.985-3.65 10.725.569 16.43-11.98 28.18-8.785 5.59.684 11.75.913 17.568.57 5.02-3.194 16.2-5.818 20.306.686zm134.732 117.048c-2.623 9.697 2.168 24.072 5.02 33.426-4.335 4.564-8.898 9.697-15.06 12.891-3.762.457-8.213 1.598-11.749 2.967-.57-7.302 1.825-15.402-4.677-19.28-3.993-6.389-9.241-15.06-11.295-22.474 14.26-.684 25.897-6.274 37.76-7.53z"/><path fill="gold" d="M142.807 260.6c0 .34 0 .57-.344.912-4.449-.8-7.299.913-5.59-4.221l5.934 3.309zm-2.167-8.9c4.22 3.88 9.58 4.45 14.03 6.389-.797 3.423-13.348-1.369-15.057-2.966-.114-1.482 1.027-5.02 1.027-3.423zm150.359-2.167 4.337.343c-2.968 1.939-7.074 1.483-10.84 1.824v-2.396c.229.114 5.135-2.282 6.503.23zm-74.039-4.221-6.16 6.047c-2.282-.23-2.282.115-2.282-2.396 1.027-.343 1.596-.913 2.737-1.027v-.57c2.282-.115 3.538-2.511 5.705-2.74v.686zm-73.241-1.484c2.282.799 5.02.685 7.301 1.484 4.792 2.51 11.18 5.247 16.087 8.898-6.39-2.054-14.49-5.475-21.79-4.449-3.423-.913-3.995-3.765-3.309-6.959.799 0 1.254.57 1.71 1.026zm157.89 1.141c-5.133.23-16.2.912-19.963-2.85l.112-1.484c7.645-.684 13.235 3.193 19.852 4.334zm46.888-7.643c-1.597 2.852-11.295 8.328-13.803 5.818 2.167-1.71 10.723-5.932 13.803-5.818zm-129.939-1.14c.912 2.965-11.637 8.44-15.06 8.44-.798-.798-.798-1.939-1.938-2.394 1.368-1.255 3.421.113 5.133-.571 4.335-.457 8.442-2.624 11.865-5.476zm-64 2.624c2.508 0 12.434 7.3 15.058 8.898v.57c-8.1-5.247-17.34-6.274-25.783-10.153.228-.913.228-1.825.684-2.51 3.994-.341 7.53.228 10.04 3.195zm55.671-5.818c-2.966 2.508-8.328.114-10.839 2.85-1.026-.227-.912.913-1.596 1.142-2.052 0-6.161-.456-7.073-2.397 2.053 0 3.993-.454 6.047-1.254 4.45-.341 9.012-.57 13.461-1.14v.799zm136.558-3.766c0 .114.113.228.227.343-2.167.798-4.79 1.254-6.845 2.623-2.737.685-4.677 2.853-7.072 3.993-2.397 1.141-5.02-.229-7.53-.457v-.569c7.644-2.739 13.12-5.362 21.22-5.933zm-56.13 1.027c3.08.342 13.804 2.624 16.2 5.02-9.012-3.765-18.367 1.368-26.81-3.08-2.965-5.248 9.356-2.283 10.61-1.94zm-132.106-2.168c4.107 2.625 7.985 6.617 11.865 9.127-7.645-2.738-16.43-6.845-24.53-8.214-.342-8.1 9.584-1.483 12.665-.913zm128.57-5.932c4.906 1.14 9.925 3.993 15.06 5.362-6.505.228-11.98-2.852-18.825-1.94-.457-.342-5.818-2.167-3.308-4.106 2.624-.228 4.564 1.026 7.074.684zm-126.518 1.027c2.852 1.37 5.363 2.966 8.442 3.992l-.228.115c5.02 3.992 10.382 8.213 15.628 11.636-.683 3.08-2.85 6.389-5.133 9.127-1.711 3.194-2.28 7.53-3.878 10.837-12.207 3.08-31.373 18.025-32.513 32.515l-48.6.228c-1.027-7.644 10.724-12.55 15.515-14.945 2.397-1.027 5.248-.8 7.644-1.598 6.617-9.468 17.455-18.138 21.79-28.178 1.71-8.1 3.88-16.884 6.616-24.756-.797-4.335 13.576.684 14.716 1.027zm182.419-2.852c-1.598 1.711-4.679-.115-6.502 2.282-3.88 2.167-7.76 4.22-11.41 7.187-2.967.798-4.905-1.028-7.416-1.94 7.075-3.993 17.341-7.302 25.328-8.1v.571zm-132.793-1.826c-2.51 2.511-7.871 2.167-10.496 4.564-3.992 1.026-12.549 13.918-17.57 7.072-.797-.228-2.167-.341-2.167-1.14 4.678.342 8.1-2.739 11.98-4.335v-.57c5.246-2.624 12.549-4.68 18.253-5.591zm128.114-4.564c-2.965 1.485-6.845 1.256-9.697 3.423-5.362.913-8.327 6.16-13.576 7.074-.341-.799-5.133-.228-5.362-2.852 5.705 1.14 8.215-4.906 13.12-5.705 5.362-.342 10.268-1.94 15.515-2.622v.682zm-133.475-2.964c-1.712.797-3.082 1.369-5.25 1.595-5.932 3.309-11.862 7.874-17.34 12.208-2.053.913-9.012 1.027-9.012-2.395 2.966.798 15.172-8.444 18.71-9.813 3.992-.34 8.67-1.367 12.892-1.595zm125.832-4.108c-10.61-.685-14.489 12.777-25.555 9.926-1.369-.686-3.423-.228-4.563-1.141 2.281-1.484 6.275-.343 8.214-3.422 6.96-2.968 13.918-5.59 21.904-5.705v.342zm-140.437-2.168c-1.368.8-4.448 1.941-5.59 2.624-3.764 2.739-5.704 7.986-10.153 10.383-3.194 1.369-6.617 0-9.696-.913 0-2.168 22.587-12.892 25.553-13.349.914.343-.114.8-.114 1.255zm-26.01-11.294c-2.168 4.792-4.678 14.83-8.442 18.139-2.51 1.254-4.565-.57-5.477-.228 3.651-3.535 5.818-7.415 9.926-11.295-.114-1.824 2.509-5.589 3.538-6.844l.454.228zm-9.696-6.502c-.8 3.308-1.826 6.959-2.74 10.267-3.308-.343-6.958 7.53-9.24 9.811-2.397.228-5.247.228-6.273-2.282 6.617-.913 15.057-16.655 19.507-21.562-.685 1.141-.115 3.08-1.254 3.766zm150.018 7.872c6.959.454 21.675.569 27.038 5.931-8.443-.913-17.228.456-25.441 1.141-3.651-1.597-6.96-3.993-10.497-5.589-1.14-.572-8.897-15.63-8.213-14.375 6.732 7.416 7.986 10.038 17.113 12.892zM143.034 177.66c-1.027 6.73-9.47 23.615-17.341 15.743 9.012-3.537 11.864-7.986 16.77-15.743h.57zm54.76-.685c3.08 2.396 4.676 6.275 7.985 8.1 5.133 4.222-.685 9.126-.343 12.891-2.053-.228-2.167-5.36-2.28-6.73 1.596 0-5.82-13.576-5.935-14.261h.572zm125.718-4.45c.797 3.766 1.597 8.33 3.194 12.094-6.846-6.389-10.267-10.496-11.863-20.535 2.85 2.509 7.414 3.65 8.67 8.441zm-73.925-9.354c3.422 6.046 4.563 11.407 6.958 17.226 0 8.214 8.67 14.033 4.792 22.818-.799-6.847-4.45-10.382-8.215-15.516-3.878-5.134-2.394-18.025-3.878-24.528h.343zm-31.03.113c.34 3.423 2.167 5.59 3.991 8.9 3.195 7.415 4.793 15.743 2.626 24.072-.799 2.851-1.713 5.476-2.054 8.212-.685-4.904.456-10.722-1.027-15.4-1.369-9.812-4.564-18.825-4.792-28.52 1.256.114.684 1.938 1.256 2.736zm89.668.8c2.395 6.389 4.79 13.12 9.24 18.595-3.992-2.51-7.073-4.79-11.18-7.415-2.167-5.475-5.817-10.039-9.126-15.401-.343-.456-1.255-.228-1.484-1.027 5.02-.114 9.127 1.826 12.55 5.248zm-21.447-5.134c1.824 1.14 6.501 2.853 6.16 6.047 0 2.51 3.536 17.226 8.1 17.226 0 1.255 6.274 5.476 7.073 7.529-13.917-7.529-19.28-12.548-23.958-27.266 0-.113-4.678-4.105-4.564-4.79 2.967-.799 4.792 1.14 7.188 1.254zm-16.656-.913c1.939.913 3.764 2.282 5.704 3.423 1.71.57 4.904 25.555 3.763 29.205-1.938-4.45-3.308-9.697-6.616-13.576-1.484-5.248-2.053-10.836-3.878-15.744-1.14-2.053-3.65-2.395-4.45-4.563 2.168-.342 3.31 1.484 5.477 1.255zm-11.751-1.14c4.334 2.28 6.844 14.831 8.1 19.963 1.483 3.423 3.765 5.82 5.247 9.356.228 3.765-.683 7.53.912 11.293l-.798-.113c-3.08-10.38-13.233-18.938-13.347-29.32-1.369-3.992-5.248-11.75-9.24-13.347 3.65-.57 6.045 1.483 9.126 2.168zm-154.81 9.469c-2.396.57-4.792 2.623-7.643 1.94 5.018-4.45 8.898-10.04 12.321-15.517-.115 5.134-1.825 9.697-4.677 13.577zm95.943-15.516c14.49 2.51 49.056-7.756 46.66 16.884-4.107 8.329 5.135 13.577 1.94 22.018-1.94-2.737-2.51-9.24-5.933-11.863-3.423-5.249.23-11.296-.342-17.341-2.053-2.167-2.053-6.275-6.389-5.477-9.81 8.9 3.308 22.93-1.824 32.171.113 3.31-1.712 6.504-.914 9.584-.684-4.792-.226-10.496-.341-15.858-4.678-8.442-7.644-15.287-12.322-23.272-2.168-2.853-2.51-1.712-4.563-2.054-8.556 11.065 4.905 21.904.685 34.11-.912-4.22-2.053-8.67-3.993-12.548-6.617-5.705-.456-19.167-10.382-21.905-4.905 2.625-4.106 14.262-1.71 18.138-3.88 0-5.363-18.594-6.276-21.217-.228-2.282-3.08-1.37-3.65-3.423 3.081.913 6.046 1.94 9.354 2.053zm-63.314-2.28c-2.168 7.3-20.535 38.445-29.776 25.21 13.69-3.307 21.561-13.461 28.862-24.868.342-.115.57-.457.914-.343zm44.49-3.196c9.014 6.617 5.476 9.355 2.624 18.482 0 4.22 2.852 7.3 3.196 11.408-.685 6.617-3.652 12.206-6.618 17.796-.684 6.846-7.986 9.47-10.838 15.288h-.57c1.711-6.047 8.328-9.355 9.354-15.63 1.027-5.019 2.168-10.039 2.967-15.286 0-8.557-7.872-3.65-10.838 0-.229-2.167 1.826-3.536 2.168-5.59 6.844-5.818 8.214-18.14 7.757-26.468h.799zm-5.475-3.878c.341 1.254 2.167 1.598 1.826 3.308.912 1.026-.23 2.624-.344 3.65-4.449 5.476-7.3 12.891-10.38 19.166 0 2.738-3.994 11.979-7.415 12.207 3.193-8.213 5.59-17.112 9.469-25.554 1.596-5.704 2.623-8.556-2.51-11.751-2.168 10.838-8.785 26.58-15.858 35.024h-.685c1.826-3.65 8.328-19.052 6.503-23.273-2.852-.684-2.737 3.764-5.476 3.08-1.027-2.738 5.704-16.313 7.073-18.48 5.249-4.109 13.12-.115 17.797 2.623zm-89.44-1.825c4.792 4.334 7.073 13.233 1.026 17.682 0 5.818-14.146 3.08-16.998 3.08v-.57c5.247-.228 14.374-1.256 16.086-7.53.455-3.536 1.939-8.785-2.281-11.067-2.169-1.939-4.45-3.536-7.302-3.877-2.282-2.282 9.125 2.167 9.469 2.282zm10.836-4.223c3.994 8.1 2.625 13.464-3.763 19.851-1.94-1.94 6.502-13.346-2.17-18.253-2.507-2.167-8.554-4.564-11.749-3.65v-.799c7.073 1.141 10.838-3.765 17.682 2.851zm53.734-1.825c2.852 4.335-.342 15.174-3.309 18.938-1.71-.228-.456-2.28-1.026-3.31-.912 1.941-9.584 16.887-11.636 16.887-.57-3.765 7.87-17.226 8.098-22.362 1.256-2.395 2.397-13.574-.113-15.743h.8l7.186 5.59zm-40.613-6.274c2.51 4.107 3.422 7.3 5.133 11.523h.8c-.686 3.763.797 16.2-3.082 18.937-1.71-2.395 2.853-15.402-2.623-17.227-2.51 2.397-4.108 5.361-5.591 8.215-.57.455-1.482 0-1.938.684.228-1.256 2.395-7.986 2.852-8.67.341-4.222-.342-11.637 1.938-14.945.457.913 1.712.913 2.511 1.483zm28.863-.57c0 4.22-4.108 12.777-6.16 16.997-6.845 4.906-12.892 21.79-20.992 23.274 10.152-7.986 8.442-17.455 12.093-28.178 5.475-4.45 7.187-12.322 6.502-1.369.685-.114 1.027.912 1.598.342 3.079-3.08.57-9.013 3.65-12.664 1.596-.57 3.309-.342 3.309 1.598zm-59.21-.913.343.57c-5.59 3.195-11.294 5.819-16.884 9.812 0-.685-.685-2.282.569-2.625 5.59-2.052 8.33-10.836 15.516-8.783l.456 1.026zm44.379-9.126c-.456 5.018-2.623 8.214-6.846 10.61-.341-4.451 4.677-7.873-.798-12.778.457-1.94 7.301-1.255 7.644 2.168zm6.16.569c-.229 4.678 1.939 11.752-3.993 15.06-2.28 0-3.993.113-4.45-2.852 2.739-6.275 6.39-10.381 3.765-17.227 3.308-.114 3.082 3.194 4.678 5.019zm-1.939-9.696c2.624 2.966 6.047 5.59 6.16 9.583-.227.113-.57-.115-.799.227.913.115.686 1.141.913 1.598 4.563 1.825 9.926 1.256 13.349 5.476 3.422 1.141 5.818 5.134 9.126 6.845 5.133.457 10.722-.114 15.629 1.14 21.106 15.63 38.559 13.007 63.43 12.094 7.758-.228 15.516 2.395 22.703 4.564 7.87 1.71 17.111 1.253 25.44.798 8.67.684 18.139 1.71 26.695 3.65v.57c9.354.8 10.839 9.584 18.824 13.121.799.797.799 2.623 2.167 2.623 11.523 13.12 23.386 14.831 40.271 13.918 2.737-2.167 10.154-4.678 10.609-9.013 3.88-2.85 3.196-14.602 1.826-17.91-1.482-10.495-21.561-20.878-30.802-24.528-8.328-1.255-16.884-2.167-25.44-2.852-22.703-.913-56.357 8.556-76.55-2.51-7.302-2.51-15.401-5.362-22.132-8.67 1.369-4.906 14.49-4.222 18.025-4.222 12.093 2.74 25.669 12.094 38.675 8.557 19.279-2.395 41.868-3.195 61.147-.114 19.395 4.791 43.238 13.347 49.855 34.34 6.388 22.359-17.455 43.121-39.93 37.418-5.476-.456-10.153-2.397-15.172-4.107.343 5.133 4.106 9.582 6.046 14.716 2.395 11.523 8.556 26.582 17.91 34.339.914 5.02 16.657 7.872 20.535 8.671 0 8.214 6.047 17.683 9.013 24.756-2.396 6.16-8.898 11.522-10.495 18.482l-43.009.228c.228-12.55 12.548-19.736 24.071-19.85.456-.23.115-.686.23-1.027-3.31-3.995-8.215-9.241-10.84-13.462-9.469-4.107-17.454-10.154-26.24-15.402-2.166-1.483-2.851-3.765-4.676-5.476-5.02-3.878-9.925-7.644-14.489-12.777-23.044-14.602-41.869-12.778-66.966-4.221-6.16 1.597-12.664 1.597-17.91.685-1.713-2.282-2.054-5.135-3.195-7.643.341-2.055-2.167-2.51-3.308-3.994-5.59-1.596-11.295-6.389-15.972-10.725 1.483.914 1.027 4.223 3.08 4.792 2.51 3.537 6.274 5.705 9.47 7.872 1.368.115 2.509.57 3.308 1.711.114 6.617 3.649 11.409 4.677 17.912 5.819 8.898 8.1 20.877 16.2 28.521 0 6.274-1.94 24.64 2.053 29.661 1.482-.228 2.282-2.053 3.195-3.194 2.28-5.248 10.495-11.522 16.655-10.61 1.94.229 19.052-13.348 22.246-16.542-1.026-5.933-4.79-11.637-5.704-18.14.343-7.186-3.993-14.488 0-20.876-2.282-6.161 29.548 6.275 29.776 6.388.798.685 12.435 11.18 12.32 12.207-2.282 1.825-1.824 5.02-4.677 6.274-3.992 6.39-7.871 16.428-8.67 24.414-2.396 3.994-6.73 4.792-7.53 5.476-6.731 5.02-7.643 12.663-14.145 17.454h-87.731c4.222-16.085 12.55-14.26 18.027-17.111 1.026-2.966 4.45-9.356.227-10.838-4.905-5.362-9.241-12.207-14.831-17.227-2.053-3.764-6.16-5.476-9.353-7.872-9.47-4.563-16.43-9.354-23.16-17.227-8.671-5.476-18.481-7.643-27.608-11.749-8.214-5.478-14.147-12.094-21.56-18.596l-5.25-10.838c-4.106-2.738-9.467-3.764-12.092-8.328-4.677-2.168-10.267 0-14.262-3.993 2.397-1.256 9.241-4.22 9.241-7.187-.911-.57-1.595-2.054-3.079-1.597-5.247 6.387-20.991 14.374-27.493 5.133 1.026-2.51-.457-5.362 0-8.328.569 0 1.026.115 1.483-.113-.457-.343-1.028-.23-1.483-.457-.344-1.37.455-2.281 1.483-3.194 1.481 1.026-.457 5.02 2.851 3.879 1.938 2.395 11.864-2.625 12.32-5.705 5.02-17.112-15.058-7.643-22.702-10.723 1.255-3.88.685-4.336.115-7.187 4.563-2.51 5.933-5.933 5.475-11.067 10.838-6.731 24.414 2.738 35.594 2.738-1.597-5.476 1.141-5.361-5.018-7.758-4.792.913-9.926.913-15.06.913 1.14-.57 3.764-5.361 6.047-5.248 3.195-2.852 24.413-.913 28.633-.798 2.055-1.256 3.994-2.51 6.505-2.738 1.595-1.711 3.65.456 5.703 0zm-67.765 13.12c0 3.195-3.764 9.583-7.187 5.932h.115c-.115-1.14-.57-2.396-.57-3.992.912-2.055 5.818-3.195 7.642-1.94zm12.322 22.362c-1.483.454-1.256-1.141-2.168-1.713-.798 1.369.228 3.536-.913 5.02-1.483-.798-2.167-2.738-2.965-4.106-1.597.684-.913 2.622-1.712 4.107-1.37-.572-3.194-3.995-3.194-5.362l11.409-.457c.113.798 0 1.824-.457 2.51zm7.073 4.677c-1.483 3.079-4.106 6.73-8.214 6.73 0-4.678 3.308-6.73 8.214-6.73z"/></svg>