<svg xmlns="http://www.w3.org/2000/svg" height="400" width="600" xmlns:cgf="https://coding.garden/flags"><metadata id="cgf-metadata">

<cgf:flag>
  <cgf:name></cgf:name>
  <cgf:route>ru/psk</cgf:route>
  <cgf:aspect-ratio>1.5</cgf:aspect-ratio>
</cgf:flag>

</metadata><path d="M423.268 202.656h-7.973v-5.315h7.973a2.657 2.657 0 1 0 0-5.314h-7.973l5.315-5.315h2.658c4.336.015 7.972 3.57 7.972 7.971a7.947 7.947 0 0 1-2.03 5.317 7.94 7.94 0 0 1 2.031 5.314c0 4.403-3.636 7.958-7.972 7.973h-7.973v-5.315h7.973a2.658 2.658 0 0 0 0-5.315zm-206.68-2.658c0-7.336 5.95-13.288 13.287-13.288 7.337 0 13.287 5.951 13.287 13.288 0 7.338-5.95 13.288-13.287 13.288-7.337 0-13.287-5.95-13.287-13.288zm13.287 18.602c10.272 0 18.602-8.33 18.602-18.602 0-10.27-8.33-18.602-18.602-18.602s-18.602 8.331-18.602 18.602c0 10.272 8.33 18.602 18.602 18.602zm-5.314-26.575h5.314c4.402 0 7.972 3.57 7.972 7.973s-3.636 7.957-7.972 7.972h-5.314v-5.315h5.314a2.658 2.658 0 0 0 0-5.315h-5.314zm45.174-5.314h5.315v26.574h-5.315l-10.63-16.684v16.684h-5.315v-26.574h5.315l10.63 16.684zm-79.723 0h15.945v5.315h-10.63v5.314h10.63v5.315h-10.63v5.315h10.63v5.315h-15.945zm90.352 0h5.315v26.574h-5.315zm21.26 26.574c5.87 0 10.63-4.76 10.63-10.63v-5.314c0-5.87-4.76-10.63-10.63-10.63h-10.63v26.574zm0-21.259a5.316 5.316 0 0 1 5.315 5.315v5.314a5.316 5.316 0 0 1-5.315 5.315h-5.315v-15.944zm92.41 7.971c0 7.338-5.95 13.288-13.288 13.288-7.336 0-13.288-5.95-13.288-13.288 0-7.336 5.951-13.288 13.288-13.288 7.338 0 13.288 5.952 13.288 13.288zm-13.288-18.602c-10.27 0-18.6 8.332-18.6 18.602 0 10.272 8.33 18.602 18.6 18.602 10.272 0 18.602-8.33 18.602-18.602 0-10.27-8.33-18.602-18.602-18.602zm-211.99 5.315h5.315v21.26h10.63v5.315h-15.945zm241.23.001v26.574h-5.315v-21.259zm-61.12 15.944a2.658 2.658 0 0 0-2.657 2.658v2.657h10.63v5.315h-15.945v-7.972c.015-4.336 3.57-7.973 7.972-7.973a2.658 2.658 0 0 0 0-5.313h-7.972l5.315-5.315h2.657c4.335.015 7.973 3.57 7.973 7.971a7.974 7.974 0 0 1-7.973 7.972z" fill="purple"></path><path fill="#1f85eb" d="M0 .005h600.005v400.002H0V.005z"></path><path d="M444.453.005c-.163 5.045-2.206 9.986-5.902 13.68a20.174 20.174 0 0 1-10.555 5.557 9.277 9.277 0 0 1-.918 12.058 9.305 9.305 0 0 1-10.09 2.026 12.201 12.201 0 0 1-.644-.288c.05.466.076.934.076 1.405v.005h-.004c-.002 4.622-2.408 8.956-6.25 11.418a13.564 13.564 0 0 1-13.775.496 13.684 13.684 0 0 1-4.047-3.358 20.013 20.013 0 0 1-10.889 4.318c.55 1.84.547 3.788.03 5.598-1.36 4.78-6.114 7.813-11.073 7.095a9.807 9.807 0 0 1-4.75-2.051 20.177 20.177 0 0 1-5.795 11.985c-6.032 6.028-15.175 7.578-22.775 4.065a20.397 20.397 0 0 1-8.07-6.734c-1.723 3.075-4.516 4.55-7.818 5.125.15.307.307.61.477.907 1.463 2.574 2.313 5.118 2.84 7.653.52 2.504.723 4.966.897 7.439.311 4.43.39 8.866.362 13.304-.066 9.972-.466 19.794-.92 29.737a398.963 398.963 0 0 1-.926 14.71c-.228 2.763-.922 6.344-4.71 6.164-.971-.046-1.993-.461-2.96-1.32-.311 4.085-.294 10.371-1.448 12.903-1.66 3.644-5.712 4.426-8.807 1.152-.524 14.16-11.73 12.196-12.536.855-5.492 3.117-8.559-3.58-9.344-8.12-1.871-10.81-3.381-21.675-4.736-32.56-1.554 4.3-4.207 8.308-7.603 7.369-3.92-1.083-3.81-5.487-4.248-8.722-.774-5.741-2.079-10.646-1.353-16.563.448-3.66.942-6.672.233-10.381-.497-2.597-1.161-4.99-.868-7.537.598-5.175 4.74-9.762 7.965-13.529 1.173-1.369 2.702-2.983 3.85-4.755-2.44.267-5.556-1.062-7.173-2.63-7.553 9.28-21.753 10.09-30.29 1.551-3.36-3.36-5.378-7.79-5.512-12.026-3.917 3.418-9.872 3.26-13.6-.47a9.982 9.982 0 0 1-2.208-10.742 20.356 20.356 0 0 1-10.687-3.99c-2.456 2.87-5.984 4.682-9.778 4.935-4.01.265-8.044-1.234-10.905-4.097l-.002.003a14.033 14.033 0 0 1-4.12-9.943h-.004v-.01a9.509 9.509 0 0 1-3.41.629v.003h-.005v-.003c-4.802-.004-8.874-3.603-9.48-8.335a9.69 9.69 0 0 1 1.447-6.402 18.417 18.417 0 0 1-10.146-5.18 18.454 18.454 0 0 1-5.35-14.399h288.313z"></path><path fill="#ffc8a0" d="M316.571 57.72a23.079 23.079 0 0 1-5.94-1.761 22.128 22.128 0 0 1-10.808-10.723 22.156 22.156 0 0 1-3.164 4.812c-3.833 4.432-9.593 7.138-15.159 7.608v8.736h-.004c0 .214-.008.427-.024.64 1.34-.852 2.994-1.273 5.093-1.352 2.888-.107 6.517 1.063 9.226 3.67l-.09.129c-4.345-2.24-6.023-2.269-9.246-2.134-2.717.113-4.314 1.012-5.74 2.87-1.123 2.854-3.257 5.46-5.088 7.597-2.45 2.86-6.003 6.346-6.966 10.067-.967 3.738.271 9.717 2.671 12.636l-.128.093c-.651-.164-1.43-.567-2.086-1.09.306 2.78.152 4.968-.27 8.216-.727 5.623.4 10.182 1.15 15.638.271 1.972-.314 6.221 2.463 6.747 2.86.54 4.773-5.203 5.614-9.668.58-3.084-1.42-5.733-4.446-7.306l.086-.131c1.486.22 2.87.668 4.117 1.573-.07-1.16-.112-2.238-.157-3.552-.179-5.224.06-8.266-4.378-12.132l.106-.117c1.531.53 3.223 1.685 4.426 3.417-.037-2.173-.358-4.235-1.068-6.259l.143-.067c1.01.84 1.667 2.344 2.099 4.127l.042-.009c1.629-.339 4.263-.145 5.144-3.516l.134.081c.006 2.481-1.284 3.868-2.92 4.484.978.6 1.737 1.663 2.19 3.2l-.117.105c-1.07-1.594-2.621-2.04-4.017-1.796.178 1.383.27 2.817.322 4.17.048 1.254-.345 4.035 1.703 3.448 10.92-3.13 17.314-10.932 18.644-23.89l.158.009c.2 5.263-.88 9.839-3.067 13.702 1.972-1.126 3.763-2.989 5.228-5.657l.138.076c-.834 3.546-3.802 6.324-6.812 7.815-3.239 4.414-8.114 7.733-14.3 9.908-.017.704-.029 1.41-.035 2.117 11.423-2.508 20.941-8.147 25.186-20.633l.152.044c-2.38 12.556-13.597 19.813-25.341 22.471.004.867.018 1.734.04 2.602.097 3.69 1.79 4.347 4.82 6.446l-.077.136c-2.203-.438-3.545-1.137-4.534-1.934.162 2.54.404 5.067.729 7.56.14 1.075.281 2.15.424 3.223.413 3.09 1.13 3.112 3.886 4.685l-.066.144c-1.364-.151-2.415-.425-3.267-.777.299 2.331 1.01 2.684 3.23 3.484l-.04.151c-1.05.061-1.93.018-2.689-.096.321 2.222.654 4.445 1 6.664.387 2.486 2.317 2.644 4.55 3.59l-.049.15c-1.734.014-2.999-.227-4.003-.604.315 1.95.642 3.898.981 5.844.92 5.29 3.536 8.336 7.04 5.604-.182-4.028-.28-8.101-.376-12.196-.656.348-1.444.672-2.408.957l-.09-.128c1.723-1.304 2.398-2.25 2.434-3.6.072-2.629-.134-5.257-.21-7.885-.695.435-1.551.845-2.642 1.217l-.096-.125c1.774-1.612 2.716-1.954 2.638-4.337-.803.632-1.87 1.225-3.391 1.744l-.097-.125c1.93-1.755 3.464-2.511 3.361-5.153a362.417 362.417 0 0 0-.342-7.036c-1.084-.165-2.067-.8-2.678-1.981h-.001l-.006-.007.11-.113.004.006c1.538 1.027 5.521.786 6.992-.052l.099.122c-.769.996-1.804 1.66-2.87 1.931.197 3.295.349 6.612.448 9.937.109 3.678 1.741 4.084 5.176 4.624l-.066.144c-2.008.556-3.811.02-4.982-.63.06 1.66 2.079 2.831 4.113 3.714l-.066.144c-1.765-.195-3.006-.598-3.97-1.107.072 2.678.12 5.358.224 8.034.097 2.506 1.861 3.53 4.747 4.733l-.056.147c-2.109-.098-3.499-.536-4.568-1.12.133 4.258.205 8.58 1.216 12.733 1.668 6.84 7.202 5.109 7.577-.225.131-1.876.327-3.442.462-5.626.148-2.384.15-4.835.117-7.299-.842.51-1.921.96-3.4 1.303l-.081-.135c2.829-2.094 3.473-2.166 3.407-5.615-.045-2.426-.1-4.852-.158-7.278-.892.478-2.032.873-3.596 1.123l-.073-.14c1.821-1.162 3.653-1.876 3.593-3.874-.63.268-1.365.509-2.24.712l-.083-.134c2.113-1.565 2.3-1.481 2.223-4.078a1396.84 1396.84 0 0 0-.356-10.628c-.927-.126-1.801-.616-2.466-1.543l-.007-.004.092-.129.007.005c1.669.795 5.575-.015 6.91-1.057l.116.107c-.707 1.253-1.82 2.13-3.003 2.481.124 3.363.238 6.72.34 10.064.077 2.602.883 2.562 3.136 3.908l-.07.143c-1.213-.159-2.177-.412-2.97-.727.053 1.976 1.207 1.938 2.947 2.772l-.055.148c-1.126-.044-2.048-.185-2.825-.394.062 2.415.118 4.83.166 7.245.055 2.873 1.302 2.918 3.806 4.314l-.064.144c-1.588-.159-2.756-.49-3.677-.916.018 1.325.042 3.526.16 5.616.158 2.822.694 6.135 4.118 6.408 3.333.264 3.489-4.92 3.67-7.163.155-1.914.188-3.85.257-5.78-.665.421-1.482.823-2.508 1.196l-.098-.123c1.918-1.814 2.667-2.176 2.755-4.778.085-2.515.127-5.028.142-7.545-.73.258-1.594.466-2.647.602l-.069-.142c1.747-1.042 2.723-1.071 2.721-3.124-.804.45-1.816.847-3.155 1.159l-.082-.134c2.959-2.19 3.245-1.749 3.217-5.017-.028-3.51-.087-7.03-.175-10.55-.762.186-1.664.175-2.73-.014l-.008-.158c1.37-.102 5.117-2.537 5.744-3.86l.146.059c-.35 1.395-.841 2.407-1.522 3.076.034 1.335.066 2.672.092 4.006.05 2.485.79 2.884 3.404 3.436l-.076.138a6.425 6.425 0 0 1-3.27-.212c.031 2.104 1.555 2.34 3.595 2.61l-.065.144a6.46 6.46 0 0 1-3.495-.019c.011 1.174.02 2.349.027 3.523.013 2.807.318 2.666 3.132 4.614l-.077.136c-1.235-.245-2.2-.571-2.981-.951.041 1.552.083 3.105.072 4.658-.017 2.24-.28 5.82 3.29 5.653 2.082-.096 2.13-2.28 2.258-3.819.18-2.168.336-4.347.476-6.531-.645.28-1.4.53-2.306.74l-.082-.133c1.761-1.304 2.444-1.413 2.567-3.58.094-1.685.18-3.372.257-5.061l.012-.263c-.532.2-1.133.383-1.82.543l-.083-.134c1.41-1.044 1.933-1.09 2.009-2.826-.69.319-1.513.602-2.521.836l-.083-.134c2.434-1.801 2.657-1.814 2.766-4.799.105-2.867.102-5.664.141-8.505-1.135 1.21-2.407 1.987-3.577 2.299l-.107-.114c2.876-2.733 3.746-5.085 3.863-8.833.042-1.34.077-2.68.081-4.01.006-1.814-2.875-1.213-4.326-.842-7.935 2.035-15.954 6.463-22.567 12.212l-.105-.116c6.038-6.167 13.452-10.913 22.304-13.686 2.682-.84 4.75-1.594 4.723-4.62-.03-3.263-.129-6.526-.357-9.787-.168-2.39-.363-4.761-.85-7.099-.478-2.306-1.247-4.612-2.567-6.933a18.94 18.94 0 0 1-.946-1.91c-1.414-1.166-3.438-2.239-5.045-2.827l.058-.147c1.175.112 3.03.538 4.345 1.251a22.061 22.061 0 0 1-.32-1.096 11.763 11.763 0 0 1-.08-.31c-2.126-1.274-4.41-2.475-6.812-3.025-4.565-1.045-9.855-1.044-12.752-1.213l.005-.158c2.459-.289 8.47-.762 13.005-.03 2.187.351 4.184 1.16 6.1 2.175a29.481 29.481 0 0 1-.195-1.516c-3.411-2.32-9.224-4.159-13.16-4.179v-.157c4.702-.042 7.451-.268 13.024 2.517a128.77 128.77 0 0 1-.134-4.268c-.013-.634-.026-1.268-.044-1.92z"></path><path fill="#FFF" d="M158.233.005c-.379 4.654 1.224 9.422 4.735 12.934 6.388 6.39 16.78 6.388 23.167.001l-.001-.002c.172-.17.341-.348.503-.528-.002-1.077.137-2.183.442-3.193a14.795 14.795 0 0 1-2.07 2.599c-5.772 5.77-15.15 5.764-20.918-.006 4.255 2.35 6.672 2.792 9.867 2.93 3.636.16 7.317-1.15 10.073-3.906 1.788-1.787 2.996-2.672 4.33-4.176l1.575-1.05a12.1 12.1 0 0 0-1.35 7.257 11.978 11.978 0 0 0 3.418 6.948 12.063 12.063 0 0 0 9.914 3.426c4.544-.555 8.453-3.718 9.93-8.027-.502-.182-.99-.403-1.464-.66a10.415 10.415 0 0 1-2.539 4.137c-4.807 4.656-9.572 2.113-10.924.925a9.042 9.042 0 0 0 9.947-1.907 9.037 9.037 0 0 0 2.302-3.917 11.08 11.08 0 0 1-1.34-1.138 11.022 11.022 0 0 1-3.225-7.716c-.015-2.025.81-3.739 1.849-4.931h-48.221zm49.558 0c-2.004 3.5-1.438 8.23 1.512 11.182 2.663 2.666 6.644 3.309 9.94 1.861 2.12-.929 3.498-1.98 5.632-3.586-.224 2.096-.295 4.312.08 6.392a15.926 15.926 0 0 0 4.38 8.42c6.18 6.184 16.235 6.18 22.417 0a16.15 16.15 0 0 0 2.177-2.712l-.12-.115a12.337 12.337 0 0 1-1.379-1.656c-2.625 4.637-8.236 7.57-13.477 5.447 5.13.663 10.353-2.108 12.639-6.822-2.573-4.849-2.199-11.153.765-14.07-2.199 5.203-1.017 11.512 3.045 15.576 4.915 4.919 12.612 5.507 18.232 1.553 1.61-1.137 2.94-2.585 3.99-4.246.096-2.169.66-4.172 1.739-5.798a21.242 21.242 0 0 0-.277 1.728c-.751 6.761 1.735 13.68 6.948 18.3 9.702 8.62 25.259 6.561 32.137-5.024a20.997 20.997 0 0 0 2.709-7.567 12.755 12.755 0 0 1-1.33-3.12c-.059 4.825-2.245 10.02-5.846 13.619-5.305 5.303-12.45 5.775-16.639 4.712 5.306-.198 11.13-1.163 15.662-5.694 4.344-4.342 5.635-9.247 5.994-17.698l.18-.597c.409 1.779.751 5.179 5.54 9.968 5.473 5.476 14.379 5.473 19.853 0 6.901-6.9 4.548-16.04 4.23-17.633l.008.014.017.028c3.286 6.08 2.257 13.792-2.54 18.81a15.598 15.598 0 0 0 7.684 6.753c5.68 2.296 12.325 1.005 16.742-3.41a15.428 15.428 0 0 0 4.533-10.943c-.003-1.57-.267-3.147-.45-4.703 2.082 1.972 3.927 3.865 6.866 4.526 3.346.749 6.962-.27 9.43-2.738 2.842-2.84 3.672-7.116 2.336-10.757H207.789zm186.643 0c.956 1.546 1.583 3.676 1.263 5.586a12.26 12.26 0 0 1-3.42 6.644 12.226 12.226 0 0 1-4.99 3.015 12.436 12.436 0 0 0 6.533 7.06c.653.296 1.344.54 2.058.72v.002c4.903 1.238 10.254-.67 13.227-4.942.439-.633.82-1.302 1.13-1.995v-.005c.535-1.19.842-2.58 1.146-3.853 1.775 1.48 3.519 2.846 5.665 3.782.32.14.635.268.938.38l.001-.003c6.546 2.423 14.062.854 19.099-4.183 3.296-3.294 5.124-7.704 5.285-12.208h-1.819a16.234 16.234 0 0 1-4.761 10.916l.002.002a16.306 16.306 0 0 1-5.171 3.486c-2.928 1.237-8.19 1.26-10.167-.6 1.678.444 3.44.593 5.165.439a14.86 14.86 0 0 0 9.191-4.306h.003a14.862 14.862 0 0 0 4.354-9.937h-44.732zM328.83 63.158c2.113 3.622 4.826 6.98 9.13 8.968 6.818 3.15 15.032 1.756 20.439-3.65 4.43-4.43 5.246-9.377 5.738-14.517 1.857 1.807 3.895 3.613 6.535 4.024 3.966.612 7.782-1.878 8.829-5.706a7.907 7.907 0 0 0-.223-4.895 20.716 20.716 0 0 1-1.548-.104c.73 2.277.227 4.877-1.464 6.675-2.297 2.445-6.33 2.324-8.434.284 2.364.695 5.594.713 7.425-1.234 1.508-1.602 1.812-4.023.897-5.955a19.598 19.598 0 0 1-4.208-1.277 20.027 20.027 0 0 1-8.95-7.646c-3.82 5.698-11.466 7.868-17.752 4.916-1.568-.737-2.846-1.694-3.852-2.778a21.934 21.934 0 0 1-2.282 6.244c-3.865 7.038-11.018 11.074-18.435 11.4a21.9 21.9 0 0 1-1.621-.004c.014.556.026 1.124.037 1.692.034 1.66.068 3.32.193 5.045.112 1.552.34 3.076.728 4.536.126.472.267.938.428 1.396 4.189-.911 6.987-3.155 8.39-7.414zm-50.032-5.548a21.754 21.754 0 0 1-7.742-1.874c-6.294-2.826-11.015-8.53-12.49-15.433a14.081 14.081 0 0 1-20.219.315 13.884 13.884 0 0 1-1.746-2.14 20.583 20.583 0 0 1-2.059 2.402 20.297 20.297 0 0 1-11.064 5.69c-1.437 2.424-1.031 5.624 1.16 7.586-3.164-.855-3.893-4.559-2.789-7.382-.363.03-.728.054-1.091.066-1.585 2.909-.72 7.002 1.505 9.23 3.078 3.078 8.085 3.073 11.162 0a8.024 8.024 0 0 0 1.398-1.888c.059-.217.126-.437.199-.654-1.429 2.338-5.165 3.723-7.89 1.976.492.13 1.007.202 1.54.202v-.003h.016v.003c3.088-.003 5.85-2.148 7.326-4.879l.817-.689c-1.994 6.417-.305 13.577 4.546 18.43 7.813 7.813 20.869 6.854 27.518-1.794a7.802 7.802 0 0 1-.833-2.65c-2.502 4.005-6.709 6.799-11.448 7.465-3.836.539-9.47-1.308-11.155-4.202 3.18 2.4 7.25 3.4 11.144 2.805 5.205-.8 8.634-3.88 11.41-6.681-.038-1.057.164-2.132.711-3.101-.068 2.328 1.044 4.717 2.715 6.389 1.856 1.855 4.583 2.61 7.046 2.19a9.45 9.45 0 0 0 .149-.405c-3.967.076-7.251-3.294-6.818-7.311.782 2.912 3.34 6.169 7.162 5.818a5.99 5.99 0 0 0 .041-.696h-.004v-.002l-.217-8.783zm59.635-24.788c.042.258.082.516.113.777a8.782 8.782 0 0 1 .315-2.746c.232 4.565 3.34 8.462 7.262 10.308 7.79 3.653 16.815-1.97 17.197-10.377-.683.153-1.372.263-2.07.335a10.109 10.109 0 0 1-3.613 6.85 9.99 9.99 0 0 1-6.369 2.291v.004h-.016v-.004a9.998 9.998 0 0 1-5.338-1.542c3.34.618 7.645.958 11-1.951a8.715 8.715 0 0 0 2.936-5.56 17.408 17.408 0 0 1-6.94-1.248 17.726 17.726 0 0 1-8.474-7.246c-6.538 5.245-16.19 4.533-21.88-1.619a23.118 23.118 0 0 1-2.597 6.4c-3.809 6.414-10.038 10.165-16.646 11.101.756 5.164 3.683 9.154 5.462 11.013-3.754-2.098-6.149-6.54-6.838-10.857l-.142.012a21.625 21.625 0 0 1-.858 3.707 20.031 20.031 0 0 0 10.558 11.604c9.264 4.238 20.7.704 25.793-8.569a19.873 19.873 0 0 0 2.366-7.726 10.2 10.2 0 0 1-1.015-3.165c.307 5.264-1.608 10.508-5.38 14.279-4.23 4.229-10.775 5.42-15.117 4.574 4.454-.323 9.907-1.325 14.14-5.556 4.165-4.163 5.564-9.643 6.15-15.09zm37.057 8.872c5.2 1.59 10.987.203 14.91-3.72 3.472-3.47 4.975-8.444 4.145-13.162a14.778 14.778 0 0 1-1.58-.605 14.52 14.52 0 0 1-7.717-8.503 12.258 12.258 0 0 1-4.469-.21 12.247 12.247 0 0 1-3.74-1.578 17.502 17.502 0 0 1-5.143 12.177 17.426 17.426 0 0 1-6.489 4.087 14.217 14.217 0 0 1-1.244 5.838 17.958 17.958 0 0 0 8.605 7.84c6.637 2.864 14.514 1.439 19.735-3.781 3.84-3.838 5.72-9.31 5.13-14.648a14.225 14.225 0 0 1-1.63-.237c.68 4.973-.975 10.118-4.625 13.764-3.397 3.396-10.007 6.03-15.888 2.738zm18.409-.077a11.552 11.552 0 0 0 3.482 2.923 11.513 11.513 0 0 0 11.893-.577c3.118-2.103 5.063-5.712 5.063-9.515h-.004v-.005c0-2.535-.285-3.504-.527-5.145 1.425 1.094 2.96 1.838 4.591 2.33a7.264 7.264 0 0 0 7.213-1.802 7.203 7.203 0 0 0 .682-9.39 7.027 7.027 0 0 0-.774-.885l-.245.013c1.882 2.618 1.567 6.214-.774 8.553-2.375 2.374-6.287 1.826-7.94.58 2.928.577 5.393.49 7.181-1.43 1.869-2.005 1.73-5.278-.1-7.278l-.003.002a5.296 5.296 0 0 0-.434-.427 20.097 20.097 0 0 1-5.934-1.213l-.004-.005a20.166 20.166 0 0 1-4.698-2.485c-.132.37-.274.73-.434 1.084h-.002a14.56 14.56 0 0 1-1.317 2.332c-2.593 3.728-6.756 5.921-11.087 6.18.577 5.891-1.585 12.01-5.828 16.16zM239.888 30.975a8.4 8.4 0 0 0 2.461 5.646v.002c.15.15.307.293.468.43-2.59-.844-4.245-3.09-4.314-6.181a18.231 18.231 0 0 1-2.192-.387c-.037 3.19 1.213 6.372 3.51 8.669 3.689 3.691 9.184 4.487 13.777 2.288 1.749-.836 3.288-2.185 4.57-3.57.21-1.324.766-3.371 1.29-4.166.666 7.476 4.599 16.609 12.445 20.133 7.932 3.563 17.522 1.51 23.291-5.27a19.912 19.912 0 0 0 4.49-9.738 23.5 23.5 0 0 1-2.35-.156 18.008 18.008 0 0 1-5.113 10.264h-.003a18.08 18.08 0 0 1-1.786 1.566c-2.325 1.782-9.176 5.05-15.506 1.7a16.704 16.704 0 0 0 14.821-2.922 16.65 16.65 0 0 0 1.494-1.325l-.002-.001a16.635 16.635 0 0 0 4.724-9.48 22.955 22.955 0 0 1-11.313-5.46c-3.77-3.343-6.165-8.065-6.843-12.543a16.353 16.353 0 0 1-3.094 2.777c-5.826 4.018-13.609 3.885-19.197-.324a18.037 18.037 0 0 1-2.3 2.819c-3.665 3.665-8.523 5.405-13.328 5.23zm-5.273 2.9a16.347 16.347 0 0 1-2.983 4.091c-1.649 1.649-7.985 6.02-13.768 3.22 4.613.696 9.44-.851 12.79-4.202a14.924 14.924 0 0 0 3.593-5.782 13.95 13.95 0 0 1 .007-1.348 17.821 17.821 0 0 1-6.392-4.115 17.87 17.87 0 0 1-5.245-12.352 11.008 11.008 0 0 1-8.755 2.35c-1.347 4.085-4.552 7.342-8.553 8.815a14.99 14.99 0 0 0 2.27 9.977c-3.605-2.418-4.02-6.489-3.72-9.53a13.75 13.75 0 0 1-2.064.35c-.301 5.149 1.652 10.369 5.341 14.059 7.154 7.157 18.788 7.15 25.942 0 .9-.899 1.708-1.893 2.406-2.963a14.4 14.4 0 0 1-.869-2.57zm-43.895 6.552c3.929 3.76 10.298 3.387 13.724-.902-3.252-3.918-4.982-9.022-4.73-14.141a14.051 14.051 0 0 1-9.184-4.105c-1.68-1.68-3.055-3.897-3.598-6.232-2.768 2.505-6.246 4.087-9.896 4.589-2.285 1.09-3.555 3.976-2.903 6.357-1.568-1-1.096-4.656.349-6.183l-.414-.004c-1.456 1.622-2.266 3.752-1.878 5.846.834 4.506 4.785 7.747 9.668 6.266 1.351-.41 2.525-1.278 3.707-2.016-.222 1.67-.506 3.308-.336 4.98a12.073 12.073 0 0 0 3.456 7.29v.004c2.51 2.512 6.06 3.775 9.561 3.464a12.065 12.065 0 0 0 8.05-4.164 19.13 19.13 0 0 1-.92-.904c-1.756 2.11-4.305 3.457-7.022 3.763-2.85.31-6.814-1.205-7.634-3.908z"></path><path d="M211.385 10c4.786 3.663 10.508.138 11.66-4.6.642 5.735-7.27 10.172-11.66 4.6zm50.027 10.518c6.33 2.4 13.885-1.411 15.219-8.548 1.352 8.067-9.246 13.31-15.219 8.548zM344.73 2.835a12.044 12.044 0 0 1-1.658 14.958c-4.894 4.893-10.83 3.103-12.146 2.196 3.486.595 7.802.188 11.169-3.178 3.553-3.551 3.695-8.758 2.635-13.976zm25.368 2.591c4.142 5.332 3.61 13.021-1.116 17.747a13.442 13.442 0 0 1-16.215 2.132c5.342.962 11.035 1.089 15.238-3.114 4.681-4.682 4.264-11.091 2.093-16.765zm21.413 1.52c-1.499 3.21-5.347 5.546-9.162 3.739a7.296 7.296 0 0 0 6.375-2.012 7.246 7.246 0 0 0 1.187-8.675h.593c1.753 1.662 1.965 4.894 1.007 6.947zm14.454 11.113c-1.89 1.889-6.589 3.752-10.674.717a8.585 8.585 0 0 0 9.697-1.699c2.454-2.452 3.122-6.425 2.48-9.737 2.31 3.387 1.057 8.16-1.503 10.719zm4.645 8.63.008.008v.003c.233.257.448.518.64.78h-.001a9.989 9.989 0 0 1 .905 10.356c-1.68 3.38-5.068 5.384-8.96 4.632 3.018-.475 6.297-2.467 7.711-5.227 1.707-3.334.725-7.77-.303-10.552zm-53.665 40.337c-4.659 4.657-11.226 5.375-15.917 2.615a14.773 14.773 0 0 0 14.94-3.597c4.096-4.092 5.373-10.216 3.394-15.535 4.244 8.091-.267 14.368-2.417 16.517zm-99.073-34.234c-1.02 5.703-7.025 9.18-12.038 5.922 6.225 1.455 9.476-2.067 12.038-5.922zm-72.497-5.951a6.622 6.622 0 0 1-1.445 2.17c-1.442 1.442-4.44 2.368-6.367.533 3.999.832 6.354-1.407 7.812-2.703zm39.474 183.725c-1.212.186-2.49.148-3.863-.128 1.66-1.477 2.606-3.758.954-6.186-1.684-2.474-6.223-2.52-6.682 1.198-.642-.066-1.376-.35-1.978-.817-.769 1.254-.735 2.417-.556 3.776-1.366.11-2.877.123-4.116-.57-.208.74-.352 1.525-.189 2.379-1.573.11-2.95-.216-4.04-1.175-1.651 1.83-3.832 2.14-5.954 2.1.857-1.958.524-3.31 1.156-4.662-2.516.542-5.366.26-6.39-.954 2.554-.843 1.593-3.336 2.113-4.602-1.073.463-2.655.165-3.142-.746 2.21-.66.542-4.92 2.828-6.256-1.867-.022-3.598-.156-5.196-.434-6.751-1.17-12.784-6.22-12.522-13.629.108-3.088 1.409-6.136 3.815-8.66 1.611-1.691 3.616-2.62 6.037-1.58 2.846 1.222 3.544 4.317 1.638 6.775a8.625 8.625 0 0 1-1.193 1.238c-.166 1.247-.004 2.558.97 3.456 1.753 1.62 4.847 1.51 7.286 1.116-1.36-3.026-2.143-6.31-2.37-9.707-2.608-3.112-3.637-5.694-2.998-10.722-.835-2.046-1.437-4.033-1.33-5.8.208-3.389 2.834-4.597 5.563-5.361 6.09-1.706 12.527-1.196 18.656.141 7.933-8.733 22.015-2.625 30.468 1.5 8.453-3.277 19.654-5.865 17.237 6.662a31.668 31.668 0 0 0 2.267-.43c7.79-1.764 7.763 5.578 6.217 10.848-.589 2.007-1.417 3.903-2.562 5.494 2.328 3.71 4.945 7.407 6.056 11.674 1.437 2.908 2.756 5.727 3.222 8.98 1.412 1.685 1.982 4.057 2.432 6.167.363 1.7.497 2.604 2.483 2.036.052 1.988-1.488 2.946-3.224 2.73 1.187 2.797 2.299 5.784 2.42 8.966 1.796 4.018 2.717 9.147 7.535 10.298 4.112.982 7.817.132 11.746-.77 10.364-2.379 21.242-3.202 31.743-1.186 4.472.857 8.667 1.359 12.877 1.499 4.209.14 8.434-.08 12.962-.376a41.206 41.206 0 0 1 1.7-.078c9.713-.247 18.566 2.641 27.456 5.78 6.035 2.132 13.659 4.603 20.797 5.338 10.177 1.048 20.646-2.698 21.58-14.035.657-7.98-4.766-15.27-12.626-16.539-10.331-1.668-19.386 4.087-28.76 7.146-10.878 3.55-23.484 5.633-34.882 3.068-7.045-1.584-13.282-4.92-17.514-10.476-9.615-12.619-6.065-31.414 7.924-38.713 7.998-4.172 16.608-3.318 25.183-2.335 3.901.448 8.84.976 12.83-2.47 4.127-3.566 8.973-6.156 14.28-7.451 2.57-.734 1.695-4.348-1.045-3.588.81-1.901 2.404-2.99 4.782-2.655 2.067.29 3.743 2.057 4.156 4.096 1.855-1.232 4.027-2.571 6.212-3.077 4.719-1.09 8.24 2.19 5.85 7.095-1.486-1.734-3.4-1.655-5.15-.678-1.736.968-2.558 2.743-4.41 3.788 2.918.24 5.965-.039 8.676-1.224 2.259-.987 4.53-1.98 6.972-1.12 2.887-.745 6.741-.638 9.126 1.428 4.697-1.236 10.554-.85 12.485 4.352.689 1.855.49 3.989-.434 5.73-.935 1.762-2.492 2.533-4.564 2.837 2.937-2.41.121-4.716-2.535-5.161-2.418-.406-5.124.257-7.118 1.673 3.334 1.794 3.988 5.5 2.254 8.328-.428-1.02-1.112-1.869-1.999-2.433-4.419-2.818-10.23 2.67-13.329 5.431 1.907 1.042 4.91 1.633 6.982 1.158.784-.18 1.546-.998 1.995-2.438.8 1.806.09 4.223-1.23 5.6-1.323 1.385-3.59 2.347-6.805 1.959-2.646-.265-4.55-.902-6.263-1.805-6.532 4.481-15.806 5.657-22.344.73-3.894.883-7.039-1.462-10.735-4.218l.001-.001c-.964-.72-1.97-1.47-2.983-2.158h-.003l-.006-.004a24.048 24.048 0 0 0-6.703-3.184c-6.208-1.827-14.282-.863-19.602 2.53-3.058 1.951-5.193 4.976-5.432 9.636-.673 13.094 12.838 16.434 22.988 15 18.22-2.574 34.277-13.89 53.32-11.673 20.165 2.347 31.345 19.153 27.255 38.436-1.798 8.475-6.201 16.523-12.295 21.13-.321.242-.674.493-1.056.75l-.019.013a30.106 30.106 0 0 1-3.903 2.205h-.006c-5.933 2.792-13.38 3.965-19.886 2.216a26.37 26.37 0 0 1 1.495 3.189c1.035 2.65 2.83 4.767 6.096 4.123-.659 1.279-1.997 1.917-3.274 1.693a27.695 27.695 0 0 1 1.443 4.01c2.908 3.211 4.538 6.998 4.34 11.271.907 1.251 1.784 2.525 2.561 3.863.746 1.282 1.395 2.612 1.889 4.023 1.762.4 3.567.694 5.376.722v-.005h.004v.005h.013c4.686-.241 11.05 2.416 11.562 6.758 2.164 2.717 2.9 6.04 2.393 9.447 1.17 1.733 1.679 3.466 1.974 5.148.554 3.158.949 6.471 2.935 8.93a5.474 5.474 0 0 1-3.227-.686c.375 1.952.536 3.958.164 5.926a19.03 19.03 0 0 1 1.12 5.667c.074 1.73-.074 3.344-.289 4.926a7.6 7.6 0 0 1 .513 2.123 7.148 7.148 0 0 1-.099 2.003c4.362 2.58 8.45 8.05 5.78 13.17.217 5.48-1.966 11.5-7.978 13.473.361-2.154.462-4.359-.227-6.113a6.76 6.76 0 0 1-2.676.38c-.572 2.151-1.736 4.072-3.504 5.445-.207 4.44-2.46 8.38-6.394 10.548-2.454 1.351-5.822 2.066-8.524.957-2.217 2.487-3.924 5.32-5.59 8.212-1.742-3.54-2.303-6.07-2.158-8.948-2.085-.215-4.223-1.049-5.978-2.247-3.767 1.57-6.458 5.067-8.666 8.36-.995-3.578-1.4-6.785-.826-9.929a7.161 7.161 0 0 1-2.614-1.053c-1.527 1.872-2.927 3.903-3.898 6.25-2.786-4.131-2.162-12.176-.136-15.89-.253-2.345-.083-5.863 2.62-8.567 3.022-3.022 6.49-2.425 10.158-1.272 4.229.291 7.255-1.53 9.534-4.834 2.027-2.936.156-5.758-1.42-8.28-2.548-4.075-2.463-8.715-2.916-13.41-2.999-1.683-6.444-2.529-9.215-4.623-.246 1.22-2.116 3.331-3.632 3.796-.242-4.009-5.413-6.297-6.881-9.315l-.31 3.016c-2.039-4.179-7.583-6.867-10.31-10.87-1.132-.735-1.958-1.625-2.62-2.599-1.148 2.584-2.821 4.11-4.782 5.984-.12-3.706-2.262-6.85-4.325-10.224-1.377-2.252-2.196-4.324-2.671-6.255-.003 3.166-1.33 6.257-2.636 9.303-1.308 3.053-1.907 4.56-2.086 7.588l-.836-.88c-.257 1.365-1.015 3.794-1.699 5.096 3.132 5.831 5.463 10.488 4.303 17.853l-.926-.598c-.578 2.642-2.406 4.66-4.701 6.02-.697 2.54-2.163 4.73-3.6 6.877-1.666 2.49-3.212 4.1-2.997 6.926-1.486-.88-2.374-1.516-2.765-3.108-.95.81-1.992 1.543-3.145 2.032-1.033 1.97-2.238 4.26-4.138 5.528a13.59 13.59 0 0 1-4.02 4.83c.734 5.43-1.201 11.83-6.848 13.525-5.014 4.363-9.8 5.261-15.473 3.3 2.328-1.347 4.169-2.586 5.611-4.93-1.083-.223-2.287-1.53-2.407-2.715-2.306 1.6-5.007 2.37-7.78 2.621-2.795 3.727-8.58 5.321-12.704 2.967-2.438 2.474-3.563 3.683-4.99 6.735-2.617-3.192-3.998-6.736-3.582-10.926-1.18-.15-2-.662-2.457-1.536-2.764 1.594-4.312 4.604-5.653 7.36-2.435-3.304-2.903-9.027-1.325-14.067-2.373 1.057-4.111 2.713-5.855 4.593-.762-7.87 2.883-14.689 10.074-19.195a5.1 5.1 0 0 1 .337-.342l-.002-.003c3.193-2.992 9.734-3.442 13.17-.674 2.329 1.877 4.331 2.66 6.88 1.342 1.36-.859 6.036-3.21 7.21-4.745 1.694-2.217 1.354-5.193 2.89-7.57 1.51-2.333 3.86-3.7 5.266-6.189.547-.97.941-1.966 1.28-2.969-.651-1.505-.774-3.169-.647-4.788-.91-2.032-1.032-4.269-.931-6.564-.058.034-.115.07-.174.102h-.005c-2.141 1.384-3.538 1.428-5.882 1.088 3.566-4.504 1.598-8.855 2.981-13.783l-.711.55c-.308-3.508 2.425-9.29 3.775-11.645.04-2.018.998-3.86 2.254-5.362 3.06-3.662 5.302-5.81 8.62-8.45a50.624 50.624 0 0 0-5.722 2.216c-8.855 4.057-14.547 9.27-21.018 16.17-8.39 8.944-20.14 13.759-32.713 14.31.253 5.578-1.238 11.05-5.45 15.755-1.113 2.721-2.974 5.614-5.472 7.173-2.46 2.994-5.226 6.306-8.78 8.028-1.049 1.437-2.168 2.932-3.725 3.853-1.92 2.968-3.944 6.02-6.583 8.406-.657 1.223-1.42 2.422-2.402 3.413 1.255 3.494 1.4 8.682-1.616 10.8h-.005l-.085.058c-2.29 5.397-8.398 9.97-15.323 8.767 1.254-1.588 2.266-2.727 2.685-4.104-1.167-.36-2.473-1.365-3.21-2.24-5.764 3.147-11.547 4.268-17.349 2.94-2.075 1.69-4.794 2.314-7.4 2.57-2.536.25-5.265.144-7.39-1.438-1.732 1.602-3.107 3.507-4.522 5.38-1.892-3.582-2.25-7.508-1.638-11.769-2.994 1.364-4.948 3.01-7.203 5.494-1.309-4.029-1.679-8.094.539-12.3-1.91.814-3.506 1.985-4.658 3.756-1.456-6.872 1.142-14.497 8.564-17.273 3.485-2.735 5.96-4.034 8.45-3.964 2.462.07 4.631 1.072 7.489 3.683 9.795.883 15.655-2.004 19.293-10.045 1.842-4.07 2.75-9.032 3.807-13.343 1.624-6.617 4.368-12.215 7.393-18.319a9.073 9.073 0 0 0 .765-2.179c-5.142-.878-8.269-3.797-10.516-7.338-.836 2.363-2.37 4.316-5.132 5.22-.963 2.382-4.136 3.01-4.445 6.165l-1.704-1.046c-1.724 3.173-5.611 5.119-5.209 9.669-2.05-.821-3.7-2.163-5.146-3.922-3.377.855-6.058-.714-7.977-3.36-1.884 2.106-3.556 3.048-6.108 3.895.976-3.602-1.462-5.92-2.383-9.078-1.043.843-2.295 1.619-3.498 1.907-.034-1.574-.526-3.408-1.448-4.464-.685 1.202-1.632 2.43-3.022 3.316-.016-5.804-5.083-10.265-5.363-16.137-1.285.803-2.57 1.362-3.855 1.676 1.602-3.938-.056-8.15.185-12.432a10.948 10.948 0 0 1-2.049-5.66c-1.656-3.986-1.886-8.311-1.3-12.547a23.745 23.745 0 0 1-3.337-3.785c-5.83-.054-9.397-3.682-8.806-10.03-1.418-5.036-1.17-9.487 1.857-14.005.374 1.427 1.125 2.995 2.056 3.965.386-.731 1.486-1.654 2.44-1.815-1.387-3.004-1.66-6.425-1.17-9.665-6.339-2.6-6.355-13.265-3.001-17.528-1.363-3.144-3.906-4.909-6.487-6.5 5.035-4.227 11.56-2.96 16.036 3.27 1.124-1.24 1.92-2.157 3.541-2.78-.368-2.909-1.937-5.17-3.956-7.148 7.844-.475 11.097 3.439 14.31 11.228.326.113 1.077.394 1.4.558 0-2.616-.275-5.329-.87-7.764l1.915.429c4.17 2.487 6.842 7.708 7.853 12.798 3.116 2.232 3.895 6.11 3.67 9.73-.228 3.697-1.767 8.038-5.51 9.505-1.681 1.598-2.415 3.92-2.608 6.267-.15 1.825-.097 3.665.885 5.192 1.36 2.115 3.297 3.753 4.679 6.013 1.528 2.498 2.675 5.088 3.845 7.734 1.269 2.87 2.57 5.81 4.415 8.7 1.858-2.528 4.571-5.698 7.758-6.929.233-.917.968-2.278 1.72-3.312-.932-8.666 3.014-16.442 9.253-22.134.274-5.013 4.862-9.258 9.295-13.36 3.004-2.777 5.926-5.48 7.017-8.012zm86.927 140.076a21.386 21.386 0 0 1-3.774 2.495l-.948-.804c1.41-.588 2.794-1.356 4.246-2.346l.476.655zM202.18 177.087a23.747 23.747 0 0 0-1.53 3.936c.392-.08.79-.155 1.192-.222l.119-.475.194.424c5.292-.823 11.142-.248 15.143 3.001-.416-2.976-2.42-5.665-4.692-7.506-3.51.839-7.119 1.285-10.426.842z"></path><path fill="#ffdd24" d="M246.133 154.604c3.312 3.423 7.363 4.702 11.816 4.596 2.105-9.185-5.546-6.895-11.816-4.596zm-46.436 39.544c-2.627.416-3.529 1.76-3.953 4.365 1.797.119 2.414-1.146 4.379-1.19l.074.157c-3.23 2.098-1.566 3.819-3.113 6.885 3.78.321 4.336-2.133 5.705-2.96l.155.083c-.252 1.945-2.217 3.593-1.718 6.901 2.947-.973 2.68-5.864 4.97-6.927l.167.053c-1.024 1.471-1.79 5.234.236 6.211-.023-1.297.3-2.318.789-3.16.552-.954 1.313-1.305 2.016-2.316l.164.062c-.07.863-1.277 2.785 1.304 3.657-.426-2.513 2.281-3.72.949-6.196l.16-.071c1.685.535 1.223 2.028 2.179 2.777 2.353-3.053 6.035-3.291 8.551-.891.6-1.404-.17-3.088-1.372-3.266l.025-.173c2.357.348 3.409 2.613 2.475 4.822a6.926 6.926 0 0 1 1.164 3.183c2.318-1.723 3.1-6.858 2.301-8.817l.16-.07c1.12 1.615 1.954 4.82 1.03 7.882 1.937-1.76 2.523-6.062 2.052-7.82l.166-.054c.732 1.31 1.207 3.53.847 5.824 1.486-1.775 2.035-5.702 1.482-7.804l.16-.07c2.093 2.803 2.628 9.742 2.551 13.25 2.953-1.881 4.042-7.093 3.887-10.764l.171-.041c1.115 1.963 1.427 5.147 1.157 7.738 2.386-2.548 4.468-6.592 4.024-10.249l.171-.041c2.2 2.227 1.335 6.758 3.617 9.672.316-3.8 1.784-4.56 1.34-7.479-.256-1.683-.487-3.27-.193-4.981l.175.007c.095 1.371 1.165 3.255 1.879 5.71 1.497-1.355 2.097-2.982 1.492-5.426-.43-1.741-.878-3.405-.615-5.573h.175c.155 1.288 1.199 2.99 2.017 5.21.499 1.35.763 2.69 1.315 4.02 1.01-4.026 1.848-6.51-.32-10.257-1.178-2.034-2.56-3.613-3.117-6.318l.165-.057c.719 1.511 3.059 3.205 4.826 6.052.149-3.213-.077-4.93-1.893-7.389a26.104 26.104 0 0 1-1.998-3.189l.132-.115c1.64 1.5 3.671 1.646 5.731 1.18 3.746-.847 5.661-3.862 6.782-7.687.866-2.948 1.767-7.778-2.748-7.084-7.593 1.59-14.77.58-20.123-4.978-2.064-2.145-4.238-2.961-7.043-4.103-7.131-2.9-16.25-5.155-21.314.56 1.893 2.368 3.878 5.81 4.327 8.803l-4.475-1.348c-.247-2.72-1.076-4.85-2.532-6.66-5.635-1.231-11.562-1.775-17.167-.227-1.44.396-3.38.868-3.492 2.695-.088 1.44.473 2.959 1.045 4.33 1.18-1.692.97-2.939.102-4.566l.586-.553c1.35 1.403 5.107 1.385 6.174-.212l.8.247c-1.144 3.515-4.046 2.507-5.193 4.36-.611.987-1.378 1.876-2.22 2.689-.623 6.456 2.553 11.484 9.595 12.218 5.981.622 10.105-.252 10.358-7.038.132-3.519-1.558-6.623-4.785-7.397l.187-.785c6.983 1.673 8.444 8.342 5.765 14.31 2.354 2.997 4.929 6.12 5.325 10.062l.003.014c.08.816.115 1.696.075 2.586-.2 4.51-3.898 10.875-9.565 8.702-2.728 3.933-9.129 3.138-10.66-.975zm106.7 159.749c-2.867 1.237-5.986 1.943-9.011 2.134-1.938-2.176-6.25-2.904-9.573-.5 2.604-.01 2.714 2.763 1.412 5.44.115 2.349-.812 4.784-2.53 6.41.669.58 1.47 1.063 2.4 1.448.843-1.495 1.854-3.063 3.098-4.33-.614-2.161.775-4.821 2.479-6.015 2.012-1.408 5.107-1.847 7.674-1.184 3.923.082 9.397-2.035 11.77-4.412l.574.57c-3.062 3.068-5.206 4.738-9.278 5.47 1.115 1.094 1.46 2.514 1.163 4.218-2.126-2.303-6.311-6.38-10.91-3.16-1.082.758-1.607 1.847-1.703 3.057.848-.54 1.782-.923 2.82-1.074 2.36-.406 3.698.144 4.258 1.186.722 1.338.465 3.672-.858 5.637-.86 1.259-1.71 2.235-2.07 3.348 4.505 4.911 13.634-1.919 8.224-6.741l.133-.113c1.768.119 3.086 1.832 2.814 4.547 2.679-.48 5.103-1.52 7.082-3.158.336-1.894 1.516-3.403 2.56-4.357 1.47-1.825 2.506-3.147 1.95-6.027l.796-.153c.587 2.058.49 5.087-1.507 7.348-1.871 1.987-1.36 4.962.438 6.522 2.59-2.162 2.737-6.2 5.401-7.046 3.737-1.185 4.708 4.037 3.927 7.699 4.425-3.284 3.017-7.732 1.652-11.956-1.09-3.372-.944-6.555 2.11-7.935l.116.13c-1.813 1.93-2.017 6.387.744 7.076 2.85-2.447 2.366-2.232 2.282-5.217-.05-1.703.309-3.327 1.107-4.73l.16.07c-.398 1.906-.214 3.683.419 5.262 2.619-1.943 2.976-4.452 3.708-7.29.394-1.525.967-2.923 1.835-4.165l.157.078c-.554 1.754-.658 3.744-.446 5.623 3.135-1.204 4.045-3.48 4.069-6.525.02-2.733-.196-5.47 1.876-7.834l.16.075c-1.394 3.91.13 6.764.106 10.626l.004.019c2.428-3.712 3.847-5.794 3.8-10.231-.026-2.559-.075-4.606 1.359-6.15l.155.081c-.853 3.316.09 4.738.215 7.204 6.04-4.248 2.314-10.642-.94-14.813l.14-.103c1.866 1.307 3.61 2.858 5.107 4.9-1.68-7.431-4.215-8.492-6.234-10.369-2.25-2.093-2.985-5.23-2.725-8.213l.175-.014c.939 2.636 2.238 4.818 4.284 6.048 1.535-2.933 2.069-5.675 1.38-9.234-.426-2.209.031-4.056 1.141-5.36l.173.019c-.744 2.743-.035 4.644.864 7.172 1.207-3.057 2.923-6.747 2.94-10.55.006-1.699-1.063-3.174-2.21-1.249-.524.882-.95 1.747-1.225 2.55l-.169-.044c-.194-1.092.219-2.72 1.123-4.57-3.063-1.293-6.042 3.715-7.045 6.644l-.168-.044c-.336-1.892 1.15-5.388 3.855-8.874-2.36-.91-5.323 3.384-6.341 5.67l-.165-.06c-.143-1.653 1.174-4.377 3.472-7.171-2.257-.459-5.318 3.118-6.436 4.934l-.155-.08c.07-1.509 1.457-3.736 3.7-5.982-2.4-.248-6.225 3.7-7.45 5.601l-.154-.083c.109-1.62 1.758-4.04 4.356-6.4-3.28-.239-7.567 3.95-9.2 6.483l-.154-.082c.117-1.751 2.03-4.432 4.996-6.965-2.62-.12-5.268.16-7.84.94-4.53 1.41-5.904-2.023-3.4-5.4.624-.838 1.417-1.633 2.26-2.371-3.563 2.28-7.103 5.27-9.876 8.205 1.553-1.05 3.197-1.913 5.153-2.82l.096.145c-.677.51-8.221 6.057-7.89 7.692 1.443-1.1 2.99-2.038 4.827-3.035l.105.14c-2.73 2.342-7.697 6.514-8.082 10.774 1.793-1.729 3.978-2.71 4.623-4.587l.169.043c-.279 2.042-1.42 4.145-2.89 5.583v.004a8.082 8.082 0 0 0-.637.702c-2.878 3.583-1.292 8.276-2.424 12.756 2.102-.93 3.257-3.574 4.78-5.263 1.928-2.137 3.983-4 4.796-6.64l.17.037c-.58 2.908-2.078 5.33-3.513 7.565-2.048 3.193-3.084 7.288-1.84 11.025.746-2.585 2.716-4.276 3.292-6.252.163 1.507-.575 3.203-1.258 4.81-.958 2.251-1.553 4.716-1.115 6.694.524-.934 1.233-1.876 2.182-2.561l1.1 1.117c-3.223 2.942-2.912 4.685-4.51 7.517-1.463 2.592-3.826 3.98-5.352 6.34-1.56 2.414-1.128 5.28-3.01 7.742-1.857 2.43-5.69 3.745-8.352 5.144l-.021.01-.006.005c-3.03 1.57-6.526 1.681-9.156-.844l-.05-.049a3.938 3.938 0 0 0-.418-.389c-2.368-1.908-7.72-1.515-9.808.811 1.885-.035 3.378.679 3.1 2.93 3.38-1.96 6.836-1.391 10.418.869 2.759-.087 5.064-.392 7.223-1.059l1.098.934zm-75.106-139.559c1.69-2.17 2.225-3.905 1.832-6.618-2.2 4.824-5.31 8.418-7.458 8.946l-.11-.137c2.147-1.986 4.228-5.9 5.463-9.083-.908.792-1.826 1.449-2.772 1.96-.447 4.006-4.357 7.623-8.395 11.358-3.709 3.431-7.54 6.976-8.237 10.531 3.053-2.36 7.245-2.35 9.728-5.351l.662.463c-2.785 3.978-5.496 7.288-3.972 12.34 1.527-4.227 5.879-5.007 8.499-8.26l.665.46c-2.517 3.797-3.789 4.057-5.256 5.523-2.294 2.293-2.437 5.049-2.584 8.134-3.2-2.29-4.375-6.37-3.777-10.358.21-1.393.61-2.4 1.128-3.221-4.17 1.65-10.315 7.15-12.261 11.028-1.428 2.843-2.27 5.952-2.314 9.25 2.946-3.994 6.643-7.206 7.364-10.109l.173.027c.31 4.014-5.896 11.087-7.832 16.068-1.761 4.528-1.544 9.312 1.556 13.204.942-2.543 2.265-4.92 2.892-7.239l.171.032c-.144 2.798-1.244 5.99-1.535 9.144-.437 4.74 1.224 8.695 4.416 11.527-.591-1.776-1.049-3.628-1.254-5.622-1.195-11.545 5.777-15.923 8.254-24.286l.174.017c-.304 9.058-6.87 12.587-5.69 23.987.485 4.688 2.838 9.816 4.92 14.112 1.674 3.452 3.838 6.681 7.466 8.312-3.927-4.407-6.808-10.738-6.908-13.815l.17-.037c1.033 2.982 5.304 9.193 8.841 12.644-.808-2.355-2.406-4.263-3.137-6.705-.324-1.083-1.303-4.663.64-8.534-.218 8.115 4.589 11.188 5.855 16.552.678 2.87-.415 6.076-1.888 8.502-2.97 4.89-5.06 10.45-6.651 15.94-1.368 4.72-2.595 9.969-4.6 14.483-4.247 9.569-11.021 12.19-22.409 11.748-1.625-1.514-3.909-3.926-6.332-3.994-2.147-.06-4.463 1.68-6.186 3.05 1.01.653 1.74 1.601 2.084 2.873 3.69-2.23 9.432-2.96 12.344.47 2.338-.117 5.221-.032 7.412-.385 2.636-.424 4.76-1.478 7.69-3.374l.441.679c-2.914 1.884-5.235 3.488-8.025 4.257-2.212.61-4.368.383-6.59.478.175.579.245 1.2.24 1.825l-.173.033c-1.143-2.805-3.55-4.141-6.164-4.2-2.616-.06-5.441 1.158-7.428 2.715-.537.422-1.003.989-1.237 1.673.673-.27 1.315-.46 1.883-.538 3.968-.543 2.593 3.729 1.495 5.775.035.123.065.25.095.377l.002.004c.128.588.173 1.202.13 1.801a19.774 19.774 0 0 1 1.635-1.52c.224-3.711 3.176-5.48 6.34-5.796 1.805-.181 4.781.102 6.227.569.83.268 1.44.624 1.887 1.051 1.734-.159 3.247-.234 4.9-1.097 2.288-1.195 5.22-3.324 7.513-4.54l.011-.008.002-.002.493.64c-3.225 1.982-5.155 4.26-7.522 5.583-1.497.836-2.904.938-4.44 1.103.227.878.21 1.889.146 2.985l-.172.033c-.434-2.092-2.096-3.238-3.32-3.791-1.694-.765-4.054-.787-5.885-.564-1.754.213-3.43.85-4.174 2.365.31-.2.626-.393.946-.576 2.942-1.692 5.253.903 3.571 3.523 2.91 3.735-2.084 4.955-3.829 7.7 1.394 1.448 3.306.991 5.328.793 5.54-.546 6.334-2.69 7.544-6.653l.173.032c.08 1.495.059 2.954-.157 4.349 6.924.803 16.636-.644 18.477-8.185 1.484-1.632 2.411-4.619.324-6.4l.066-.16c2.761.375 3.222 5.09 1.469 7.925-1.31 2.117-.753 4.806 1.994 5.327.633-1.41.686-2.11 1.222-3.573.433-1.184 1.49-1.96 2.702-1.762a32.047 32.047 0 0 0 2.093-3.207c1.96 1.425 2.67 2.757 3.092 5.42 2.246-1.833 1.603-5.711.333-8.054-1.911-3.525-4.124-6.228-.907-10.872l.173.028c-.372 4.957 1.063 5.654 2.466 7.406 1.492-1.863 1.73-4.145 1.65-6.72-.086-2.86-.62-4.889.03-7.642l.215.004c.228 4.24 1.79 5.7 1.694 9.795 2.775-3.14 4.262-6.038 4.275-10.351.01-2.939-.672-5.17.23-8.044l.211.04c-.505 4.297 1.83 6.366 1.424 10.747 2.244-1.95 2.563-4.314 2.677-7.182.084-2.165-.005-4.07.952-6.274l.205.061c-.837 3.708.687 5.934.484 9.345 3.737-2.337 4.308-4.926 4.62-9.228.424-5.814-.852-11.072-.051-14.46l.214.004c.271 5.028 4.03 8.745 3.528 15.727 2.457-2.117 2.233-4.784 2.187-7.852-.028-1.878-.085-3.525.531-5.522l.214.017c-.043 3.238.796 4.914 1.032 7.337 2.046-2.375 1.313-5.25.352-8.104-1.232-3.66-3.32-5.456-3.763-8.995l.209-.052c1.585 4.918 5.531 5.263 6.413 12.014 2.872-6.931 1.693-14.028-3.891-18.725-1.187-.998-2.277-2.013-3.136-3.596l.175-.123c1.692 2.07 3.527 2.768 5.359 3.786a56.841 56.841 0 0 0-1.42-2.995l.036-.025c-2.801-5.133-1.498-10.02 1.796-11.842l.17.043c-2.637 2.893-2.258 6.421-.299 9.445 1.14-3.913 4.446-7.342 6.525-7.897l.113.133c-3.015 2.458-5.35 6.592-4.165 10.523 1.923-.267 3.77-.78 5.084-1.692l.098.145c-.646 1.254-2.33 2.435-4.628 3.128.161.418.33.84.504 1.264 3.07-.361 6.51-1.15 8.646-2.386l.094.2c-.934 1.555-4.03 3.124-8.016 4.012.135.33.268.662.397.995 3.488.128 11.051-.575 14.3-2.46l.1.144c-1.335 2.228-7.097 4.483-13.558 4.738.058.194.11.388.161.582 14.88.123 29.818-7.664 37.272-21.38 3.406-6.263 9.104-17.14 15.547-17.723l.077.158c-2.761 1.594-4.908 3.918-6.717 6.57 3.243-2.051 6.313-3.072 8-2.679l.036.17c-3.696 1.053-8.802 5.126-10.996 7.637 5.459-3.658 13.376-6.946 15.637-6.1l.013.174c-5.602 1.026-15.551 7.783-18.124 10.837 10.255-6.228 18.535-9.342 30.563-9.02l-.175 1.375c-2.767.067-6.283 1.709-7.819 4.421-.995 1.758-.873 2.649 1.167 2.069 5.179-1.7 10.42-1.538 15.55-.006 3.142.94 6.333 2.15 9.095 3.551.563-13.758-12.029-17.293-22.59-17.54l-.009-.175c9.518-1.802 23.675 1.122 26.438 16.789.461 2.62.973 3.198 2.247 4.093-.485-5.28 1.038-9.506-.874-13.665l.157-.078c4.052 4.981-.017 12.783 6.242 21.576 1.23 2.013 2.465 4.03 3.328 6.208 2.18-2.677 1.959-7.81 1.409-11.876l.167-.053c.713 1.491 1.372 3.053 1.874 4.67.702 2.264 1.417 4.662 3.26 6.36-.214-1.957.194-3.877-.092-6.017l.17-.041c.599.775.977 3.569 1.613 6.138.83 3.353 3.034 4.663 5.535 6.925.251-2.86-.408-5.668-1.369-8.365l.16-.072c1.165 1.18 2.03 3.143 2.756 5.466 1.624 5.189 6.19 7.725 8.86 12.363 1.263-1.628.027-6.063-1.911-9.662-1.19-2.211-1.909-4.47-2.126-5.484l.151-.084c1.69 1.962 3.468 4.639 5.3 7.78 3.219 5.523 4.644 6.185 10.599 8.926.035-2.264-.619-4.43-2.522-6.182l.127-.12c4.182 1.384 4.947 6.014 5.224 10.023.273 3.932.384 8.024 2.5 11.372 2.19 3.462 4.002 7.354 1.316 11.24-2.31 3.343-5.64 4.98-9.506 5.212a9.342 9.342 0 0 1 1.807 2.563 7.785 7.785 0 0 1 1.818.023c.954-1.262 2.402-2.072 3.763-2.112 5.049-2.513 6.077-7.047 5.968-11.162l.808-.018c.128 4.822-.175 9.39-4.581 11.978.52.482.938 1.194 1.184 2.177l-.11.137c-1.107-1.926-3.417-2.164-4.87-.348 1.493.74 2.544 1.963 2.984 3.263l.015.025-.149.089-.014-.024c-1.564-2.562-4.925-2.888-8.11-1.894l-.223.07.002.003c-2.38.805-4.216 2.522-4.148 4.913.3-.335.61-.66.93-.976 3.375-3.313 7.333-1.528 5.224 3.817.629 1.503.658 3.345.443 5.176.803.55 1.72 1.008 2.668 1.323-.851-5.087.15-12.09 6.48-13.712.165-.042.335-.078.506-.106 1.424-1.493 3.499-3.335 4.247-4.63 1.602-2.776 2.047-6.04 2.142-9.565l.81.02c-.104 3.81-.087 7.386-1.554 10.452-.715 1.493-2.053 2.477-3.056 3.723 1.762.267 3.45 1.042 4.33 2.141l-.058.165c-1.748-.823-5.013-1.231-7.126-.356-4.76 1.97-5.404 7.154-4.634 11.7.142-.772.31-1.59.503-2.472.52-2.391 1.55-4.585 3.072-5.893 3.005-2.584 6.215-.438 5.506 3.333 1.47 2.352.904 4.629-.279 6.713 1.798.54 4.073-.129 5.581-.959 5.926-3.264 5.75-9.2 1.487-13.524 1.245-1.067 2.276-2.419 3.093-4.055l.149.094c-.116 1.411-.567 2.74-1.252 4.01.942.601 1.907 1.762 2.635 3.006 3.298-3.548.029-13.14-2.223-16.618l.143-.099c2.887 1.88 4.96 6.172 5.739 10.397 1.157.372 2.201.63 3.429.149-.724-2.684-2.582-8.75 1.215-9.951 2.308-.73 3.849.63 5.05 2.227.92-2.09-.918-4.597-3.165-6.345-3.45-2.686-6.75-3.308-8.453-8.444l.14-.105c1.71 2.115 3.622 3.18 5.442 4.481.788-2.697-3.89-4.232-4.788-8.998l.147-.094c1.389 2.034 3.011 3.223 4.575 4.502.472-4.127.053-7.812-2.155-11.346-1.31-2.095-2.401-3.86-2.592-6.175l.16-.069c1.068 2.26 2.51 3.696 3.871 5.23-.098-3.273-.897-5.883-3.122-8.354-1.788-1.989-3.308-3.585-3.934-5.966l.144-.095c2.262 3.186 5.074 4.233 7.33 6.9-.528-3.696-.912-5.382-3.466-8.383-2.116-2.486-4.008-4.209-4.702-6.963l.147-.095c1.717 2.939 3.374 3.05 5.248 4.938.158-5.676-5.804-7.84-10.501-6.897l-.006-.174c2.655-1.491 4.912-2.059 7.843-1.356-1.593-2.245-4.459-3.343-7.2-3.565-3.336 1.209-5.94 2.537-9.172 1.477l.007-.175c1.758-.15 3.582-.484 4.741-1.627a95.273 95.273 0 0 0-5.102-.592c-5.48-.499-9.7-2.16-10.252-5.947l.134-.113c1.571 2.197 6.155 3.347 8.623 1.903-2.047-4.185-6.879-9.317-10.954-10.74l.049-.167c2.307.148 5.381 1.172 7.82 3.104-.301-2.915-4.642-6.065-7.639-7.322l.05-.168c1.587.143 3.59.77 5.496 1.808-2.15-3.193-5.652-5.551-9.342-7.247l.039-.17c2.288.067 4.812.74 7.07 2.284-1.507-4.227-7.382-8.5-11.711-9.28l.028-.173c2.313-.086 5.622.728 8.349 2.424-2.678-7.43-9.134-13.891-17.307-14.6l.011-.174c5.979-.43 10.818 1.454 14.413 4.954 3.138.538 7.395 3.627 12.059 2.677-1.086-1.05-2.015-2.134-3.915-2.825l.048-.169c1.495.245 2.779.836 4.01 1.502 2.784 1.505 3.952 1.065 7.05-.001-2.058-.824-3.241-2.214-5.95-2.48l.005-.174c2.003-.181 3.799.324 5.586.803 2.046.547 2.946.908 4.8-.101-1.346-.636-2.57-1.344-4.566-1.385l-.008-.176c1.263-.212 2.463-.14 3.638.026 2.801.399 2.525.792 4.558-.86-1.246-.335-2.483-.652-4.204-.358l-.041-.17c1.065-.397 2.125-.565 3.179-.638 2.792-.192 3.05-.42 4.891-2.762-1.774.112-3.34-.17-5.44.82l-.084-.152c1.497-1.09 3.142-1.588 4.784-2.055 1.928-.549 2.262-.62 3.265-2.362-1.482.182-2.897.236-4.61 1.271l-.1-.143c1.073-.963 2.271-1.58 3.498-2.104 2.168-.928 2.361-1.016 3.29-3.257-1.009.369-2.014.835-3.061 1.833l-.128-.118c.667-.933 1.46-1.67 2.302-2.323 2.318-1.798 2.549-3.867 3.133-6.774-1.346 1.207-2.78 1.94-3.84 4.04l-.162-.067c.634-2.205 2.003-3.835 3.23-5.55 1.747-2.45 1.606-4.573 1.385-7.56-1.108 1.955-2.673 2.925-3.322 5.592l-.173-.03c.27-5.273 3.927-7.708 1.802-13.437-3.456-9.32-11.806-16.08-23.67-17.461-18.568-2.161-34.69 9.136-52.572 11.662-12.025 1.699-27.147-3.055-26.375-18.107.312-6.088 3.347-9.878 7.518-12.269 6.303-3.61 14.16-3.966 21.04-1.973a26.397 26.397 0 0 1 7.447 3.516h.004l.005.004-.001.002a85.154 85.154 0 0 1 3.063 2.21h.005c2.83 2.11 5.288 3.942 7.81 3.933-2.863-4.077-7.29-7.75-11.898-9.1l.058-.164c4.625.454 8.488 2.661 11.577 6.068 3.312 3.654 5.265 5.882 11.193 6.197 3.667.194 7.446-.855 10.795-2.922-.33-.222-.659-.453-.996-.69-1.654-1.17-2.43-1.339-4.433-.606-4.33 1.586-9.29 1.362-12.86-1.981l.082-.154c4.285 2.11 9.385 2.18 13.632.044-1.644-.963-2.8-.503-4.588-.315-4.01.425-7.897-.23-11.447-2.642-3.525-2.396-3.488-3.84-8.137-4.285l-.001-.176c3.984-1.078 6.253 1.119 9.154 3.007 3.385 2.204 7.828 3.5 11.916 2.006-2.156-1.457-4.364-2.326-8.217-2.767l.003-.174c5.132-.72 9.097.841 12.946 3.72 3.73 2.79 6.74 5.651 11.59 6.376 2.86.427 6.458-.13 7.438-3.425-.401.423-.925.725-1.53.93-3.803 1.295-8.27-.603-11.255-2.958-1.034-.815-2.002-1.717-2.981-2.653-3.068-2.931-3.377-3.725-8.773-4.35l-.015-.175c4.552-.744 6.49.372 9.011 2.688a52.15 52.15 0 0 0 3.239 2.723c-1.846-4.262-5.207-7.063-9.328-7.849-2.384-.453-4.485-.717-7.386.868-2.569 1.403-5.349 2.191-7.808.27-1.935-1.513-3.652-2.097-6.049-1.864l-.034-.173c2.172-1.17 5.095-1.089 7.035.32 1.993 1.448 4.076 1.363 6.084.269 2.74-1.493 5.48-1.846 8.577-1.409 2.767.392 5.227 1.508 7.23 3.393 1.974 1.854 2.725 2.221 5.11.732 3.118-1.95 6.604-3.581 10.164-3.71 2.426-2.711 7.23-3.99 10.685-3.409 2.12.355 4.108 1.436 5.244 3.293a4.813 4.813 0 0 0 .196-3.795c-1.149-3.094-3.823-3.913-6.592-3.807-4.04.152-7.93 2.56-11.392 4.767-4.84 3.088-8.741 5.456-14.247 3.525l.058-.166c2.305.81 4.912.063 7.433-1.184-3.28.247-6.773-.271-9.82-.665-4.531-.587-10.71-1.43-14.153-.016l-.091-.149c4.319-3.34 9.183-2.065 14.36-1.088 2.074.392 4.324.759 6.565.846 3.474.136 6.053-.57 9.027-2.466 2.14-1.365 4.26-2.718 6.394-3.58-2.413-1.593-5.932-1.453-8.093.305-4.845 3.942-10.503 4.493-16.095 3.315l.024-.174c5.177.194 10.813-.746 14.823-4.36-1.404 0-2.872.64-4.333 1.28-4.627 2.02-8.836 1.391-13.373 1.272-5.264-.14-10.628 1.243-15.026 3.588l-.085-.153c3.878-2.82 8.242-4.612 13.014-4.974 2.529-.19 3.984-.784 5.766-2.84 2.037-2.352 5.66-5.467 8.86-3.135.134-2.65-2.671-3.045-4.644-2.546-4.09 1.036-6.644 3.788-9.771 6.142-1.571 1.182-3.253 1.805-4.92 2.232-3.066.786-5.993.201-8.923 2.585l-.132-.114c1.842-3.072 5.656-3.25 8.748-4.072 1.685-.447 3.35-1.15 4.888-2.468 2.55-2.184 1.645-6.428-1.992-5.278 1.91 2.23.93 5.442-1.783 6.103-5.027 1.226-9.605 3.68-13.512 7.057-4.637 4.006-9.428 3.713-14.229 3.085-7.993-1.044-16.34-.843-23.667 2.992-12.362 6.468-15.38 22.764-6.87 33.931 3.718 4.88 9.242 8.17 15.535 9.632 10.926 2.54 23.151.154 33.57-3.251 9.922-3.245 18.763-8.579 29.804-6.99 9.554 1.375 16.269 10.062 15.48 19.761-1.053 12.968-12.838 17.967-24.702 16.784-7.459-.744-15.26-3.256-21.469-5.444-8.55-3.015-17.463-6.114-26.71-5.927-5.856.118-8.105 2.487-13.364 2.342-5.844-.16-11.454-2.771-17.24-3.614-7.002-1.021-14.137-.783-21.133.289-6.669 1.022-13.137 4.939-20.078 3.248-4.272-1.04-6.031-4.356-7.444-8.025-.246 2.859-.178 5.321 1.301 8.367l-.15.088c-2.747-1.935-2.539-5.498-4.926-7.838.41 3.116 1.375 6.578 2.767 8.799l-.14.103c-1.631-.903-3.314-3.464-4.305-6.692-.368 3.035-.354 5.408 1.284 8.106-5.85-.734-8.012-5.09-9.223-9.4l.755-.296c1.08 2.742 2.64 4.884 4.979 6.373-.55-4.408 1.485-8.813-.548-13.913 1.897 1.05 4.63 3.526 6.168 5.746a39.64 39.64 0 0 0 .343-3.047c-1.192-2.27-2.65-4.474-4.073-5.815l.109-.136c1.025.262 2.204 1.037 3.354 2.185-.322-2.544-1.35-5.078-2.383-7.472-1.827-2.983-4.874-6.713-7.455-8.37l.082-.154c2.051.135 5.017 2.066 7.43 5.016.4.024.8.047 1.2.066-.235-.65-.406-1.38-.586-2.121-1.587-3.14-4.43-7.23-6.944-9.115l.093-.147c1.247.173 2.787 1.043 4.296 2.408-.323-1.393-.796-2.655-1.33-3.861-2.053-2.88-5.72-6.68-8.633-8.178l.068-.16c1.658-.052 4.023 1.008 6.285 2.842-.994-2.4-2.544-4.858-4.093-7.316l-.456-.722c-1.248 1.005-2.743 1.733-4.53 2.073.639 3.198.83 6.488.206 9.706.173 2.52-.426 4.823-1.02 7.107-.835 3.205-1.11 5.55-1.129 8.821-1.739-1.024-2.956-3.048-3.928-5.087-.457.589-.923 1.06-1.403 1.409-.29 1.475-.919 2.835-1.3 4.281-.456 1.72-.489 3.196-.436 5.134-2.633-.786-4.421-2.519-5.98-5.837-1.924 2.994-4.871 4.82-7.206 7.373l-.16-1.609c-1.966 2.398-4.056 3.41-6.687 3.887zm-57.325 27.913c.03 2.4 1.32 5.17 1.555 7.267l-.174.02c-.771-2.664-2.806-3.514-3.16-7.039-.271-2.692.55-6.588 1.481-9.194.375-1.054.86-2.06 1.482-2.995 1.245-1.875.614-2.913-.698-5.074l.147-.094a10.64 10.64 0 0 1 2.933 2.703c2.695-1.165 3.649-4.38 3.818-7.105.14-2.247-.13-4.928-1.633-6.65-.354 2.999-1.304 6.254-4.343 6.76.083-2.811.219-6.365-4.075-6.375.41-1.083.762-2.144.865-3.32-3.213.468-4.407 2.518-4.343 5.86.061 3.16.783 5.923 5.153 5.529l.023.174c-1.165.379-2.142.5-2.96.425-.74.597-1.026 1.476-1.371 2.167-1.748 3.493-3.706 3.823-6.633 1.392l.517-.62c2.483 2.062 2.851.634 4.067-1.796.39-.779.627-1.53 1.298-1.985-1.445-1.198-1.87-3.42-1.926-5.25-.055-1.818.212-3.389.828-4.646-.957-2.82-2.776-4.137-6.237-3.897.285-1.457.414-2.83.283-4.241-3.273 1.478-3.607 4.813-3.258 7.395.638 4.739 1.988 6.756 7.608 7.095v.176c-.877.18-1.685.273-2.428.288-1.251.023-1.572.263-1.73 1.69-.43 3.897-2.067 4.336-5.496 3.657l.155-.796c2.72.54 2.787-.647 3.06-3.112.075-.688.251-1.513.672-2.044-2.438-1.085-3.652-3.522-4.086-6.446-.728.415-1.589.325-2.333-.112a5.45 5.45 0 0 1-.52.533v.003c-.625.557-1.349.854-2.102 1.028-.51-1.492-1.041-2.88-1.998-4.248-2.17 3.367-2.036 8.5.598 11.174 2.155 2.189 3.79.71 6.079-.433l.11.135c-3.26 4.475-5.151 8.21-1.572 13.603 4.605 2.127 6.552 4.026 6.36 8.236.934 1.364 1.587 3.784 2.309 4.345 1.664 1.291 3.174-.282 3.964-2l.159.073c-.147 2.19-2.628 5.857-5.313 3.392-.757-.696-1.135-1.6-1.597-2.446a47.574 47.574 0 0 1-.763 3.022l-.167-.051c.593-4.305.127-9.037-3.482-11.335-2.207-1.404-4.144-1.072-5.216 1.61 1 1.992 2.63 2.808 4.081 3.308-.17 1.204-.384 2.248-1.34 3.17.028 1.511-.668 3-2.292 3.243-1.11.167-2.171-.226-3.106-.886.181 6.874 8.187 7.387 10.955 1.943l.16.072c-.25 1.28-.737 3.12-2.09 4.484 2.819 2.508 6.243 6.149 6.317 12.493l-.171.036c-.806-2.794-1.711-4.266-2.861-5.483-.34 3.28-.186 6.466.933 9.607.728-.706 1.383-1.677 1.891-3.058l.174.022c.184 1.285-.094 2.501-.651 3.616-1.054 2.106-.76 3.774.622 5.313.705-.701 1.34-1.658 1.838-3.006l.173.023c.182 1.279-.092 2.489-.643 3.599-1.481 2.977-.418 5.977-.692 9.028 1.435-2.149 5.41-3.959 4.765-9.349l.165-.059c1.64 2.33 1.154 5.372.084 7.964-1.799 4.359-1.32 6.638.886 10.958l-.005.002c.474.928.942 1.844 1.345 2.78.49-1.473.29-2.246.384-3.8.17-2.834 1.461-4.938 3.265-6.895l.138.108c-1.422 2.124-1.525 4.494-1.256 6.965.127 1.161 2.097 7.191 2.244 7.047 2.007-.41 2.429-4.394 5.171-5.652l.083.155c-3.27 3.876.667 9.742.665 12.946 1.444-.6 3.103-1.832 3.7-3.908-.26-2.063.137-4.07 1.734-5.191l.113.134c-2.31 3.81 1.747 10.154 6.246 9.344-.52-1.985-.391-3.994 1.016-5.31l.131.117c-.647 1.504-.245 3.205.5 4.728l.019-.007c.645.904 1.268 1.82 2.086 2.584 1.072-3.282 5.62-5.393 5.75-10.604.04-1.59-.286-3.174-1.396-4.237l.074-.158c2.618.957 3.337 4.293 3.066 7.267.493-.759 1.286-1.536 1.71-1.944 2.255-2.172 3.709-6.222 1.254-8.987l.087-.152c1.996.92 2.697 3.216 2.654 5.589 3.623-2.675 2.92-6.276 1.473-9.697-1.796-.952-3.376-2.33-4.7-3.861-.988 2.94-3.435 5.974-2.906 9.306-3.633-1.455-5.542-4.349-5.401-8.47l.174-.021c.578 2.523 1.719 4.406 3.664 5.46.136-2.557 2.392-5.503 2.859-8.42-1.811-2.797-2.904-6.1-2.47-9.283-3.018-3.061-4.701-6.969-4.587-11.211-5.799 2.638-8.407 8.536-7.278 14.681l-.167.048c-.756-2.624-1.326-5.495-1.01-8.118l-.597-.816c-.354 3.592-2.003 6.593-4.6 9.206l-.135-.112c1.404-1.668 2.155-4.879 2.355-8.082.251-4.07-.707-5.586-2.373-9.134-1.553-3.31-3.33-7.754-5.032-10.666-1.463-2.504-3.435-4.005-5.155-7.217zm-2.4-33.087c-.717-.588-1.48-1.074-2.457-1.381-.122.844-.319 1.752-.642 2.591.818-.62 1.848-1.033 3.1-1.21zm226.272 158.903c.472.259.994.43 1.53.504.532-1.43 1.29-2.864 2.317-4.332-1.26-4.079 1.316-7.296 5.075-8.571h.004a8.77 8.77 0 0 1 .25-.082c-.837-1.511-2.212-2.422-3.705-2.978-2.327-.868-5.007-.88-7.046 1.197-1.279 1.302-2.144 3.154-2.248 4.97.8-.694 1.691-1.222 2.525-1.487 3.282-1.043 4.115 1.845 3.594 4.456.43 1.725.316 3.425-.726 4.58-.517.574-1.044 1.153-1.57 1.743zm26.875-199.413c-4.5.215-8.795 3.048-11.92 5.587.425.849.8 1.77 1.12 2.765 4.002-3.631 10.574-9.279 15.738-5.102-.404-2.41-2.71-3.356-4.938-3.25z"></path><path fill="#e01f20" d="M206.07 188.611c.397.679.813 1.345 1.254 1.996 1.886.155 3.72.697 5.213 2.077 1.28.103 2.317-.507 3.101-1.464-3.222-2.093-6.091-2.732-9.569-2.609zm-2.738-5.316a80.763 80.763 0 0 0 1.761 3.562c3.434-.302 7.449.072 11.507 2.768a9.65 9.65 0 0 0 .629-1.986c-2.993-4.137-8.71-4.995-13.897-4.344zm-3.4.654a47.112 47.112 0 0 0-.596 3.937 24.958 24.958 0 0 1-2.22-3.184c-3.423.66-7.763.887-10.443-1.588-1.237-1.144-1.797-2.642-1.889-4.214-.514.463-.611 1.173-.56 2.06l-2.062.12c-.119-2.026.611-4.06 2.512-4.954.532-.25 1.075-.45 1.538-.812 1.258-.985 1.19-2.842-.458-3.304-.944-.266-1.922.298-2.673 1.085-1.932 2.027-2.975 4.44-3.06 6.86-.211 6.001 4.852 9.883 10.237 10.815 2.808.487 6.137.487 9.993.213.021-.622.058-1.237.11-1.847-2.03.165-4.079.163-6.221-.47l.023-.172c2.2.307 4.26-.23 6.343-.768.162-1.355.393-2.7.676-4.07a25.95 25.95 0 0 0-1.25.293zm-13.458 2.97a.57.57 0 0 1-.572.573.574.574 0 1 1 0-1.15c.316 0 .572.257.572.577zm-1.504-1.67a.806.806 0 1 1-1.612 0 .806.806 0 0 1 1.612 0zm-.59-2.509a1.035 1.035 0 1 1-2.07 0 1.035 1.035 0 0 1 2.07 0z"></path><path fill="#FFF" d="M207.469 194.55c-1.98-2.587-3.6-5.5-4.947-8.463-.31 2.454-.298 5.017-.093 7.635 1.171 1.4 3.582 1.746 5.04.828zm-11.536-19.777c.382 2.819 1.228 5.712 2.441 8.13.327-2.023.814-4.29 1.611-6.264-1.444-.396-2.808-1.003-4.052-1.866zm-35.666 21.682c1.79 2.532 2.514 7.264 2.241 10.348a6.67 6.67 0 0 1 1.281.154c.585-2.166.021-5.215-.674-6.974 1.58 1.07 3.05 3.745 2.49 7.749a4.958 4.958 0 0 1 1.408 1.488c1.145-2.46.278-5.321-1.218-7.869-1.36-2.318-3.191-4.42-5.528-4.896zm-7.158 8.086c-2.179-2.952-5.233-4.737-8.754-3.935 4.276 3.271 5.142 6.452 6.948 10.89.696-.366.657-.765.559-1.443-.326-2.246-1.423-4.685-2.404-5.933 1.544.48 3.585 2.5 4.204 6.044.213 1.222 1.223.762 1.464-.177.512-1.994-.916-3.958-2.017-5.446zm-7.21 32.245c-1.019 2.795-.847 6.221 1.19 8.497.833.929 1.905 1.704 2.992 1.54.586-.088.814-.576.885-1.104-2.723-1.308-3.719-3.412-3.712-5.366.954 1.598 2.368 3.039 4.342 3.533a2.42 2.42 0 0 0 .526-.874l.016-.05c-2.538-1.312-4.617-3.856-6.24-6.176zm27.528-34.916c.337 2.963.72 7.64.093 11.187.424.12.794.282 1.115.48.652-1.812.518-3.925.302-5.502 1.229 1.321 1.904 4.331 1.169 7.155.417.853.587 1.845.654 2.803 1.213-1.643 1.482-3.74 1.3-5.915-.326-3.877-2.322-7.997-4.633-10.208zm51.11 172.931c3.987-.647 8.596-4.938 6.964-9.51a6.12 6.12 0 0 0-.571-1.19l-.001.002a4.158 4.158 0 0 0-.244-.35 8.286 8.286 0 0 1-.762 1.29c-.279 2.574-1.145 5.598-2.656 7.11.604-2.076.78-4.234.692-6.144-.484-.058-.815.114-1.069.874-.95 2.849-.424 4.778-2.354 7.918zm-41.02 1.47c1.812-2.937 4.891-6.719 8.28-8.518.041-.075.08-.15.112-.227h.001a1.7 1.7 0 0 0 .135-1.014c-2.912.813-5.294 2.801-7.03 5.04 1.284-3.263 3.606-5.796 6.659-7.816.59-1.012.152-1.733-1.05-1.363-5.795 2.987-8.347 7.124-7.108 13.898zm-8.086-7.292.158-.137c2.17-1.873 4.648-3.25 7.24-3.415l.228.01a4.58 4.58 0 0 0 .038-2.067c-2.197.401-3.661 1.013-6.152 2.888 1.602-2.6 3.971-4.252 6.731-5.494.402-.897 1.225-2.562-.382-2.342-5.292 1.329-8.165 6.04-7.861 10.557zm3.504-17.725c-4.158 1.71-6.337 4.867-7.12 9.176 2.31-1.754 4.828-3.008 7.864-3.46.166-.767.466-1.458.942-2.073a12.13 12.13 0 0 0-4.779 1.806c1.086-1.635 2.883-3.068 5.01-3.844-.404-.812-1.113-1.304-1.917-1.605zm95.867 10.755c2.486-1.348 4.712-2.42 7.283-3.328 1.218-1.219 2.586-2.318 3.795-2.765.232-.377.275-.815.197-1.238-3.104.375-5.722 1.937-8.129 3.757 1.869-2.81 4.833-5.29 8.08-5.804-.121-1.006-1.188-1.072-2.429-.852-4.062.72-7.797 6.104-8.797 10.23zm5.19 9.378c1.762-2.438 2.656-4.043 5.55-5.28l.057.08c1.232-1.173 1.942-2.883 2.006-4.58-2.172.482-4.057 2.65-5.819 4.68 1-3.404 3.283-6.072 6.602-7.48.404-1.242.04-2.433-1.857-1.401-5.925 3.224-7.612 9.76-6.538 13.98zm11.37 6.675c1.699-5.682 5.05-6.626 7.48-10.183.374-.578.53-1.26.61-1.962-2.87.4-5.53 3.403-7.295 6.587.802-3.318 3.343-7.753 6.697-8.786-.417-.169-1.015-.23-1.847-.145-4.777.563-8.164 9.616-5.645 14.49zm27.766-2.194c5.388-.957 9.502-3.206 9.339-8.503-.05-1.617-.445-2.974-1.38-3.04.554 3.15-2.058 7.548-4.947 9.005 1.653-1.974 2.932-4.725 2.466-6.759-1.584 3.01-3.338 7.017-5.478 9.297zm73.468-4.563c1.592-2.226 3.657-4.13 5.563-6.07.481-.49.498-1.27.51-1.99-1.421.262-2.98 1.318-4.638 3.166.52-2.106 2.205-4.32 4.558-4.95.386-1.173.66-3.507-1.557-2.636-4.535 1.78-5.005 8.672-4.436 12.48zm9.694-.26c1.019-4.116 3.733-7.115 6.066-7.615.577-2.206-.743-3.294-3.316-.702-3.817 3.84-5.1 8.43-4.624 13.378 1.545-2.08 3.64-4.144 5.915-5.367 2.195-1.181 2.495-1.367 1.72-4.243-1.726-.174-3.794 1.669-5.76 4.548zm43.728-14.828c-.697-2.533-1.828-5.611-3.275-7.202-.93 4.641 2.772 7.26 2.93 11.542 2.777-2.664 4.142-8.242 1.806-11.433-.648-.886-1.468-1.686-2.375-1.909-1.021-.248-.95.537-.583 1.083 1.179 1.754 1.542 5.178 1.497 7.92zm-29.442 23.37c.893-2.173 2.414-4.236 3.912-6.23 1.406-1.874 2.782-3.398 2.084-5.315-1.852-1.032-3.585 3.093-4.688 6.709.408-5.372 1.675-9.189 4.145-9.677-.22-1.71-1.872-1.905-3.516.221-2.644 3.422-3.02 10.51-1.937 14.292z"></path><path d="M331.13 339.765a1.036 1.036 0 1 1-.002 2.07 1.036 1.036 0 0 1 .001-2.07zm-15.205 11.665a.805.805 0 1 1-.002 1.61.805.805 0 0 1 .002-1.61zm2.01-1.435a.576.576 0 1 1-.001 1.152.576.576 0 0 1 .001-1.152zm-2.481-3.492a.576.576 0 1 1-.002 1.152.576.576 0 0 1 .002-1.152zm-2.481 1.846a.806.806 0 0 1 0 1.61.805.805 0 0 1 0-1.61zm15.993-4.821a1.035 1.035 0 1 1 0 2.07 1.035 1.035 0 0 1 0-2.07zm11.653-6.115a.804.804 0 1 1 0 1.608.804.804 0 0 1 0-1.608zm-12.206-6.421a.575.575 0 1 1 0 1.15.575.575 0 0 1 0-1.15zm2.352-3.68a1.15 1.15 0 1 1 0 2.3 1.15 1.15 0 0 1 0-2.3zm1.211-5.668a1.552 1.552 0 1 1 0 3.104 1.552 1.552 0 0 1 0-3.104zm8.361-3.481a1.552 1.552 0 1 1 0 3.105 1.552 1.552 0 0 1 0-3.105zm-12.395-2.94a.806.806 0 1 1 0 1.612.806.806 0 0 1 0-1.612zm-.764 2.564a.92.92 0 1 1-.002 1.84.92.92 0 0 1 .002-1.84zm8.279-4.433a1.842 1.842 0 0 1 0 3.68 1.84 1.84 0 0 1 0-3.68zm.682-9.22a2.646 2.646 0 0 1 0 5.29 2.646 2.646 0 0 1 0-5.29zm-6.644-.153a1.725 1.725 0 1 1 0 3.451 1.725 1.725 0 0 1 0-3.45zm-2.458-8.69a1.61 1.61 0 1 1 0 3.22 1.61 1.61 0 0 1 0-3.22zm3.422-7.149a1.61 1.61 0 1 1-.002 3.221 1.61 1.61 0 0 1 .002-3.221zm5.961-.377a.806.806 0 1 1 0 1.612.806.806 0 0 1 0-1.612zm3.717 11.078a.805.805 0 1 1 0 1.61.805.805 0 0 1 0-1.61zm-5.868-3.881a2.531 2.531 0 0 1 0 5.06 2.531 2.531 0 0 1 0-5.06zm11.618 5.833a1.035 1.035 0 1 1 0 2.07 1.035 1.035 0 0 1 0-2.07zm-1.176 2.905a1.266 1.266 0 1 1 0 2.53 1.266 1.266 0 0 1 0-2.53zm6.374-2.929a1.61 1.61 0 1 1 0 3.22 1.61 1.61 0 0 1 0-3.22zm-8.62-6.903a1.495 1.495 0 1 1-.001 2.991 1.495 1.495 0 0 1 .001-2.99zM205.858 159.143a.924.924 0 1 1-.002 1.848.924.924 0 0 1 .002-1.848zm-2.775.094a.813.813 0 1 1 0 1.625.813.813 0 0 1 0-1.625zm0 4.01a.814.814 0 1 1-.002 1.627.814.814 0 0 1 .002-1.627zm3.316 4.221a.813.813 0 1 1 0 1.626.813.813 0 0 1 0-1.626zm1.493-4.986a1.173 1.173 0 1 1-.002 2.347 1.173 1.173 0 0 1 .002-2.347zm2.788.083a1.173 1.173 0 1 1-.003 2.346 1.173 1.173 0 0 1 .002-2.346zm.681 4.527a1.173 1.173 0 1 1-.002 2.347 1.173 1.173 0 0 1 .002-2.347zm-5.974-4.162a.924.924 0 1 1 0 1.848.924.924 0 0 1 0-1.849zm3.317 4.527a.924.924 0 1 1-.002 1.847.924.924 0 0 1 .002-1.847z"></path><path d="M205.858 159.143a.924.924 0 1 1-.002 1.848.924.924 0 0 1 .002-1.848zm2.704.023a.813.813 0 1 1 0 1.626.813.813 0 0 1 0-1.626zm18.121 11.407a.813.813 0 1 1 0 1.625.813.813 0 0 1 0-1.625zm-2.151 0a.813.813 0 1 1 0 1.625.813.813 0 0 1 0-1.625zm23.553-4.892a.813.813 0 1 1 0 1.625.813.813 0 0 1 0-1.625zm2.681.176a1.053 1.053 0 1 1-.002 2.106 1.053 1.053 0 0 1 .002-2.106zm-20.331 24.036a.921.921 0 1 1-.92.92.92.92 0 0 1 .92-.92zm4.692-1.528a1.38 1.38 0 1 1-.001 2.761 1.38 1.38 0 0 1 0-2.761zm5.256-3.458a2.531 2.531 0 0 1 0 5.06 2.531 2.531 0 0 1 0-5.06zm6.527-4.362a3.221 3.221 0 0 1 0 6.44 3.222 3.222 0 0 1-3.221-3.22 3.222 3.222 0 0 1 3.22-3.22zm-7.291 13.793a1.496 1.496 0 0 1 0 2.99 1.496 1.496 0 0 1 0-2.99zm1.893-19.497a2.645 2.645 0 1 1 0 5.29 2.645 2.645 0 0 1 0-5.29zm6.973 15.382a1.495 1.495 0 1 1 0 2.989 1.495 1.495 0 0 1 0-2.99zm-15.51-9.902c.889 0 1.61.721 1.61 1.609a1.611 1.611 0 0 1-3.22 0 1.61 1.61 0 0 1 1.61-1.609zm3.915-1.811a1.725 1.725 0 1 1 0 3.451 1.725 1.725 0 0 1 0-3.45zm8.961-6.338a1.496 1.496 0 1 1-1.495 1.496c0-.826.67-1.496 1.495-1.496zm-11.218-.623a1.61 1.61 0 1 1 0 3.22 1.61 1.61 0 0 1 0-3.22zm-3.328 1.717a1.264 1.264 0 1 1 0 2.529 1.264 1.264 0 0 1 0-2.53zm-2.187-2.693a.812.812 0 1 1 0 1.624.812.812 0 0 1 0-1.624zm6.362-8.937a.812.812 0 1 1 0 1.624.812.812 0 0 1 0-1.624zm4.515-1.246a.924.924 0 1 1 0 1.848.924.924 0 0 1 0-1.849zm-1.987-1.823a.924.924 0 1 1 0 1.848.924.924 0 0 1 0-1.848zm.082 10.336a1.84 1.84 0 0 1 0 3.678 1.84 1.84 0 0 1 0-3.678zM182.222 272.35a.69.69 0 1 1 0 1.38.69.69 0 0 1 0-1.38zm13.205 1.104a2.761 2.761 0 0 1 2.761 2.76 2.762 2.762 0 0 1-5.521 0 2.761 2.761 0 0 1 2.76-2.76zm-3.175 8.314a1.151 1.151 0 1 1-.002 2.302 1.151 1.151 0 0 1 .002-2.302zm-10.324 7.996a.92.92 0 1 1-.001 1.84.92.92 0 0 1 0-1.84zm7.679-.87a1.381 1.381 0 0 1 0 2.76 1.38 1.38 0 0 1 0-2.76zm-3.987-6.574a2.015 2.015 0 1 1-.002 4.031 2.015 2.015 0 0 1 .002-4.03zm-7.443-5.938c1.46 0 2.644 1.29 2.644 2.876 0 1.587-1.184 2.875-2.644 2.875-1.46 0-2.645-1.288-2.645-2.875s1.185-2.876 2.645-2.876zm-.118-20.437c.517-.24 1.329.407 1.809 1.444s.448 2.073-.071 2.313-1.329-.407-1.809-1.444-.448-2.073.07-2.313zm.871 7.15c.778-.276 1.718.375 2.1 1.452.382 1.077.06 2.175-.718 2.45-.777.276-1.72-.375-2.1-1.452-.382-1.076-.06-2.174.717-2.45zm-2.694-13.089zm-1.211 18.274c1.087-.325 2.29.487 2.688 1.814s-.16 2.668-1.247 2.994c-1.087.324-2.291-.488-2.689-1.815s.161-2.667 1.248-2.993zm-.4-7.443c1.047.515 1.592 1.55 1.218 2.313-.375.763-1.528.963-2.575.449-1.046-.515-1.592-1.551-1.218-2.313.375-.762 1.529-.963 2.575-.45zm40.875 89.346a1.036 1.036 0 1 1-.002 2.068 1.036 1.036 0 0 1 .002-2.068zm-2.845-2.786a.806.806 0 1 1-.001 1.611.806.806 0 0 1 0-1.611zm28.81-27.376a2.761 2.761 0 1 1-2.76 2.76 2.761 2.761 0 0 1 2.76-2.76zM220.78 343.08a1.151 1.151 0 1 1-.002 2.303 1.151 1.151 0 0 1 .002-2.302zm34.702-39.616a1.151 1.151 0 0 1 0 2.3 1.151 1.151 0 0 1 0-2.3zm-7.138 15.146a1.381 1.381 0 0 1 0 2.76 1.38 1.38 0 0 1 0-2.76zm-31.691 21.707a1.38 1.38 0 1 1-.002 2.76 1.38 1.38 0 0 1 .002-2.76zm4.127-1.422a1.38 1.38 0 1 1 0 2.76 1.38 1.38 0 0 1 0-2.76zm4.751-2.658a1.495 1.495 0 1 1-.001 2.99 1.495 1.495 0 0 1 .001-2.99zm6.174-4.421a1.956 1.956 0 1 1 0 3.909 1.956 1.956 0 0 1 0-3.91zm4.598-4.916a1.956 1.956 0 0 1 0 3.91 1.956 1.956 0 0 1 0-3.91zm9.125-16.863a2.761 2.761 0 0 1 0 5.52 2.76 2.76 0 0 1 0-5.52zm3.798-13.711a2.531 2.531 0 0 1 0 5.06 2.531 2.531 0 0 1 0-5.06zm-10.606 4.998c1.855.826 2.648 3.097 1.77 5.068-.877 1.972-3.096 2.902-4.952 2.076s-2.65-3.098-1.772-5.069c.879-1.972 3.098-2.902 4.953-2.075zm-7.092 13.029c1.042-1.744 3.214-2.367 4.85-1.392 1.634.976 2.116 3.184 1.076 4.928-1.04 1.745-3.213 2.368-4.849 1.392s-2.117-3.184-1.077-4.928zm-6.891 7.514c.812-1.508 2.152-2.368 2.99-1.917s.86 2.043.049 3.552c-.813 1.51-2.152 2.368-2.99 1.918-.839-.452-.861-2.043-.049-3.553zm2.023-8.372c.762-1.464 1.883-2.391 2.502-2.069s.505 1.772-.257 3.236-1.883 2.391-2.503 2.069c-.618-.322-.503-1.772.258-3.236zm8.502-27.446c1.884.76 2.717 3.098 1.861 5.217s-3.08 3.221-4.963 2.46c-1.883-.76-2.718-3.098-1.862-5.217s3.08-3.221 4.964-2.46zm14.922-7.021a2.3 2.3 0 1 1 0 4.601 2.3 2.3 0 0 1 0-4.6zm136.373 3.657c3.173 0 5.749 2.577 5.749 5.75s-2.576 5.751-5.75 5.751-5.75-2.576-5.75-5.75 2.577-5.75 5.75-5.75zm18.121 5.375c2.475 0 4.485 2.01 4.485 4.484s-2.01 4.485-4.485 4.485-4.485-2.01-4.485-4.485 2.01-4.485 4.485-4.485zm-6.88-17.11c2.919 0 5.287 2.42 5.287 5.404s-2.368 5.405-5.287 5.405-5.287-2.421-5.287-5.405 2.369-5.404 5.287-5.404zm22.919 68.438a.806.806 0 1 1 0 1.612.806.806 0 0 1 0-1.612zm-.611-2.34a.575.575 0 1 1 0 1.15.575.575 0 0 1 0-1.15zm6.197 3.81a.92.92 0 1 1-.002 1.841.92.92 0 0 1 .002-1.84zm-.459-3.045a1.035 1.035 0 1 1 0 2.07 1.035 1.035 0 0 1 0-2.07zm-.376-3.434a.921.921 0 0 1 0 1.84.92.92 0 0 1 0-1.84zm-3.316-2.493a.921.921 0 0 1 0 1.84.921.921 0 0 1 0-1.84zm5.209-13.206a.92.92 0 1 1-.001 1.84.92.92 0 0 1 .001-1.84zm.906 3.175a.92.92 0 1 1 0 1.84.92.92 0 0 1 0-1.84zm3.774-6.832a.806.806 0 1 1-.002 1.612.806.806 0 0 1 .002-1.612zm-2.645 11.877a1.38 1.38 0 1 1 0 2.76 1.38 1.38 0 0 1 0-2.76zm-10.336-3.245a1.381 1.381 0 1 1-.002 2.762 1.381 1.381 0 0 1 .001-2.762zm4.068 3.363a1.266 1.266 0 1 1 0 2.531 1.266 1.266 0 0 1 0-2.531zm-1.435-8.267a1.611 1.611 0 1 1 0 3.222 1.611 1.611 0 0 1 0-3.222zm-5.268-1.846a1.265 1.265 0 1 1-.003 2.53 1.265 1.265 0 0 1 .003-2.53zm.753-6.785a1.266 1.266 0 1 1-.001 2.531 1.266 1.266 0 0 1 0-2.531zm6.185-7.02a1.725 1.725 0 1 1 0 3.45 1.725 1.725 0 0 1 0-3.45zm-7.773-.753a1.266 1.266 0 1 1 0 2.531 1.266 1.266 0 0 1 0-2.531zm-3.316 5.315a1.611 1.611 0 0 1 0 3.22 1.611 1.611 0 0 1 0-3.22zm-11.854-6.197a1.84 1.84 0 1 1 0 3.681 1.84 1.84 0 0 1 0-3.681zm7.891-.341a2.3 2.3 0 1 1 0 4.6 2.3 2.3 0 0 1 0-4.6zm-21.343-4.327a1.726 1.726 0 0 1 0 3.45 1.725 1.725 0 0 1 0-3.45zm-13.828-12.642a1.61 1.61 0 1 1-.001 3.22 1.61 1.61 0 0 1 0-3.22zm10.724-23.295c2.792 0 5.06 2.267 5.06 5.06s-2.268 5.06-5.06 5.06-5.06-2.267-5.06-5.06 2.267-5.06 5.06-5.06zm-8.291 12.536a3.106 3.106 0 1 1-3.104 3.106 3.106 3.106 0 0 1 3.104-3.106zm-12.7-13.076a1.61 1.61 0 1 1-.001 3.22 1.61 1.61 0 0 1 .001-3.22zm5.245 5.69a2.416 2.416 0 1 1-.001 4.833 2.416 2.416 0 0 1 .001-4.832zm18.78-17.274c1.783-.453 3.574.527 3.997 2.188.422 1.661-.684 3.377-2.468 3.83s-3.574-.526-3.997-2.186c-.422-1.662.684-3.379 2.468-3.832zm-15.382 1.459c1.992-.832 4.224-.032 4.982 1.784s-.244 3.965-2.236 4.796c-1.99.83-4.223.032-4.981-1.785-.757-1.816.243-3.964 2.235-4.795zm-19.485 3.269a2.76 2.76 0 1 1 0 5.52 2.76 2.76 0 0 1 0-5.52zm3.081-13.688a2.761 2.761 0 1 1-2.76 2.76 2.761 2.761 0 0 1 2.76-2.76zm16.298-.459c1.777 0 3.22 1.29 3.22 2.875s-1.443 2.876-3.22 2.876c-1.777 0-3.22-1.29-3.22-2.876s1.443-2.875 3.22-2.875zm14.806-.823c1.556.31 2.618 1.571 2.371 2.817-.248 1.245-1.712 2.004-3.268 1.695-1.556-.31-2.62-1.57-2.371-2.816.247-1.245 1.71-2.005 3.268-1.696zm-43.192 36.771a1.15 1.15 0 1 1 0 2.3 1.15 1.15 0 0 1 0-2.3zm2.81.682a.921.921 0 0 1 0 1.84.92.92 0 1 1 0-1.84zm2.434.918a.806.806 0 1 1 0 1.612.806.806 0 0 1 0-1.612zm-13.018-89.382c.762 0 1.38.876 1.38 1.955 0 1.078-.618 1.955-1.38 1.955-.761 0-1.38-.877-1.38-1.955 0-1.08.619-1.955 1.38-1.955zm98.555 47.131a1.496 1.496 0 1 1 0 2.99 1.496 1.496 0 0 1 0-2.99zm-9.019 7.302c1.772-1.13 3.791-1.133 4.508-.01.717 1.124-.14 2.953-1.912 4.082-1.772 1.13-3.792 1.135-4.508.01s.14-2.953 1.912-4.082zm-15.852 1.411c1.722-.815 3.648-.358 4.3 1.019s-.217 3.156-1.937 3.97c-1.722.816-3.648.36-4.3-1.018-.652-1.377.216-3.156 1.937-3.97zm19.121-46.143c1.864.956 2.954 2.556 2.433 3.574-.522 1.017-2.458 1.065-4.322.109-1.863-.955-2.953-2.556-2.433-3.574.523-1.016 2.458-1.065 4.322-.109zm-25.482-2.175c1.415-.353 2.777.21 3.038 1.257.261 1.047-.677 2.183-2.094 2.536-1.416.353-2.778-.21-3.039-1.257-.26-1.048.678-2.184 2.095-2.536zm-1.341 41.521c3.113.893 5.241 3.004 4.75 4.712s-3.413 2.372-6.524 1.48c-3.113-.893-5.241-3.004-4.751-4.712.49-1.71 3.414-2.372 6.525-1.48zm17.745.353c2.931-1.216 5.844-.92 6.502.663.656 1.584-1.19 3.856-4.122 5.072-2.932 1.217-5.844.92-6.5-.663-.658-1.583 1.188-3.855 4.12-5.072zm-34.114-6.95c3.062 1.052 5.079 3.27 4.502 4.951-.578 1.682-3.532 2.193-6.594 1.142s-5.079-3.27-4.501-4.95 3.531-2.194 6.593-1.143zm-11.688 1.517c1.799.39 3.106 1.413 2.917 2.282-.188.868-1.802 1.256-3.6.865-1.8-.391-3.106-1.413-2.918-2.281.19-.87 1.803-1.257 3.6-.866zm-13.324.882c2.025-.15 3.708.24 3.755.874.047.633-1.56 1.269-3.584 1.42-2.026.15-3.71-.242-3.756-.874s1.56-1.27 3.585-1.42zm-9.454-1.422c1.394-.434 2.679-.294 2.868.311.188.607-.79 1.45-2.185 1.884-1.393.434-2.679.294-2.867-.312-.188-.606.79-1.45 2.184-1.884zm15.863-63.747c1.397 0 2.53.515 2.53 1.15s-1.133 1.15-2.53 1.15c-1.396 0-2.53-.515-2.53-1.15s1.134-1.15 2.53-1.15zm-21.978 5.162c.935-.762 1.954-1.06 2.275-.667.321.393-.177 1.331-1.112 2.093s-1.954 1.062-2.274.668c-.321-.394.176-1.33 1.111-2.094zm8.596-4.61c1.77-.508 3.504.121 3.871 1.402.368 1.282-.77 2.734-2.54 3.24-1.768.509-3.504-.12-3.871-1.4s.77-2.735 2.54-3.242zm-18.227 9.749c.823-1.647 2.506-2.477 3.755-1.851 1.249.624 1.594 2.467.771 4.114-.823 1.647-2.504 2.476-3.754 1.851-1.25-.624-1.595-2.468-.772-4.114zm42.627 24.847c1.97-.716 4.061.058 4.669 1.727s-.498 3.607-2.466 4.324c-1.969.716-4.06-.057-4.667-1.727s.496-3.608 2.464-4.324zm-39.158-3.657c-.929-1.55-.75-3.367.396-4.054 1.148-.687 2.833.013 3.762 1.564.93 1.55.75 3.367-.397 4.054-1.147.688-2.832-.013-3.76-1.564zm53.634 1.364c2.461-.848 4.945-.124 5.545 1.617s-.912 3.842-3.373 4.688c-2.461.848-4.945.123-5.544-1.618-.599-1.74.912-3.84 3.372-4.687zm24.024-5.374c3.33.49 5.776 2.62 5.462 4.755-.313 2.135-3.27 3.47-6.599 2.981-3.329-.489-5.776-2.62-5.46-4.755.313-2.136 3.27-3.471 6.597-2.981zm-48.707 12.665c1.969-.716 4.06.057 4.668 1.727.608 1.671-.497 3.608-2.465 4.324-1.969.717-4.06-.058-4.668-1.727s.497-3.607 2.465-4.324zm69.157 1.799c1.395 3.2.83 6.54-1.264 7.453-2.095.915-4.929-.94-6.325-4.14-1.397-3.201-.83-6.54 1.265-7.454 2.094-.914 4.927.941 6.324 4.14zm-80.175-5.245c2.362.486 3.99 2.293 3.632 4.034-.357 1.741-2.565 2.76-4.928 2.274-2.363-.486-3.99-2.292-3.632-4.034.357-1.74 2.566-2.758 4.928-2.274zm-9.443 1.364c1.065.69 1.451 1.986.863 2.892-.587.904-1.928 1.078-2.992.387s-1.451-1.988-.863-2.892c.586-.905 1.928-1.078 2.992-.387zm89.9 18.263c1.617.879 1.846 3.584.511 6.038s-3.73 3.732-5.347 2.853c-1.618-.88-1.846-3.586-.511-6.04s3.73-3.731 5.347-2.852zm-110.902 25.47a3.452 3.452 0 0 1 3.45 3.45c0 1.904-1.546 3.45-3.45 3.45s-3.45-1.546-3.45-3.45a3.452 3.452 0 0 1 3.45-3.45zm-5.138-21.614c2.656-.212 4.875.384 4.951 1.334.077.949-2.018 1.892-4.675 2.106s-4.877-.383-4.953-1.332 2.019-1.894 4.677-2.108zm19.92 6.068c1.896-.524 3.656-.155 3.926.823.27.98-1.05 2.2-2.946 2.724-1.896.524-3.656.155-3.926-.823-.27-.98 1.049-2.2 2.946-2.724zm-2.011 9.89c2.14-1.112 4.685-.459 5.68 1.456.993 1.915.063 4.373-2.077 5.484-2.141 1.111-4.686.459-5.681-1.457-.994-1.916-.064-4.372 2.078-5.483zm-10.078-7.291c1.777 0 3.22 1.184 3.22 2.645 0 1.459-1.443 2.644-3.22 2.644-1.778 0-3.22-1.185-3.22-2.644 0-1.46 1.442-2.645 3.22-2.645zm-14.958-1.635c2.349-.55 4.478-.044 4.755 1.13.275 1.174-1.408 2.575-3.756 3.125-2.349.551-4.478.046-4.753-1.129-.277-1.174 1.406-2.574 3.754-3.126zm-7.69 21.462c1.872-1.523 4.528-1.358 5.93.366 1.4 1.724 1.02 4.358-.853 5.88s-4.528 1.357-5.93-.367-1.02-4.36.853-5.88zm5.244-12.536c2.343-.573 4.551.214 4.928 1.755.377 1.54-1.219 3.258-3.562 3.83s-4.551-.214-4.927-1.755c-.378-1.542 1.218-3.258 3.561-3.83zm-12.477-11.03c2.246-.43 4.232.083 4.435 1.143.203 1.06-1.454 2.268-3.7 2.697s-4.23-.082-4.432-1.142c-.204-1.06 1.454-2.27 3.698-2.698zm-2.95 6.467c2.457.294 4.306 1.76 4.126 3.273-.181 1.512-2.323 2.502-4.782 2.208-2.457-.294-4.306-1.76-4.126-3.272.181-1.513 2.322-2.503 4.781-2.209zm-1.623 8.526c2.77.354 4.823 2.175 4.58 4.064-.24 1.888-2.685 3.133-5.455 2.78-2.77-.356-4.824-2.176-4.582-4.065.241-1.89 2.687-3.135 5.457-2.78zm6.726 24.165c1.202-1.036 2.75-1.215 3.455-.399.704.817.302 2.323-.9 3.359-1.202 1.037-2.75 1.216-3.454.398-.705-.816-.302-2.321.899-3.358zm-15.405-10.007c2.22-2.08 5.458-2.237 7.229-.347 1.77 1.888 1.406 5.11-.813 7.19s-5.457 2.236-7.228.347-1.407-5.11.812-7.19zm-7.361-14.57c1.797 1.308 2.467 3.451 1.496 4.786s-3.218 1.357-5.014.05c-1.796-1.308-2.466-3.452-1.495-4.787s3.217-1.355 5.013-.049zm3.551-8.208c1.523 1.035 2.266 2.599 1.66 3.491-.606.893-2.335.778-3.858-.257-1.521-1.035-2.266-2.599-1.659-3.491s2.336-.778 3.857.257zm-15.84-5.186c1.248-.873 2.852-.74 3.581.301.728 1.04.306 2.593-.942 3.467-1.249.874-2.853.74-3.58-.301-.728-1.04-.306-2.593.941-3.467zm-14.746 1.552c1.172-1.163 2.885-1.339 3.824-.393s.752 2.657-.418 3.82c-1.171 1.163-2.885 1.34-3.824.394s-.752-2.656.418-3.82zm-10.183-2.116c1.447-.968 3.117-1.013 3.726-.101.61.912-.071 2.437-1.519 3.404-1.449.968-3.118 1.012-3.728.101-.609-.912.072-2.438 1.52-3.404zm-9.019 6.185c1.712-1.312 3.541-1.806 4.082-1.1.54.705-.411 2.343-2.123 3.655-1.714 1.314-3.543 1.807-4.083 1.101-.541-.704.41-2.342 2.123-3.656zm-8.373 9.666c1.4-2.041 3.047-3.349 3.675-2.918.628.431 0 2.437-1.399 4.479-1.4 2.041-3.046 3.349-3.675 2.918-.628-.431-.002-2.437 1.399-4.479zm14.675 19.85a4.947 4.947 0 0 1 4.945 4.945c0 2.73-2.215 4.946-4.945 4.946s-4.944-2.216-4.944-4.946a4.947 4.947 0 0 1 4.944-4.945zm-17.85-2.54c.79-3.205 2.882-5.448 4.67-5.008 1.787.44 2.596 3.4 1.806 6.605-.79 3.204-2.881 5.448-4.669 5.007-1.787-.44-2.597-3.4-1.807-6.604zm10.889-18.015c1.429-1.864 3.529-2.657 4.688-1.768 1.159.888.94 3.122-.489 4.986s-3.529 2.657-4.687 1.769c-1.16-.89-.94-3.122.488-4.987zm12.582 7.643c1.629-2.347 4.771-2.988 7.014-1.432 2.242 1.557 2.74 4.725 1.11 7.072-1.628 2.346-4.77 2.988-7.012 1.431-2.242-1.556-2.74-4.724-1.112-7.07zm28.764 17.616c1.959-2.577 4.862-3.67 6.479-2.442 1.617 1.23 1.338 4.32-.621 6.897-1.96 2.577-4.864 3.67-6.48 2.44-1.617-1.229-1.339-4.319.622-6.895zm-8.255 1.893c.605 1.835-.032 3.697-1.422 4.154-1.39.459-3.01-.658-3.615-2.493-.604-1.835.032-3.697 1.423-4.154 1.39-.459 3.01.658 3.614 2.493zm-.988-16.299c1.898-2.21 5.119-2.56 7.187-.784 2.07 1.777 2.207 5.013.31 7.224-1.899 2.21-5.12 2.561-7.188.783-2.068-1.777-2.207-5.013-.31-7.223zm-3.175 25.612c.875 1.269 1.051 2.667.394 3.121-.659.454-1.903-.207-2.779-1.476-.875-1.269-1.051-2.667-.393-3.12.658-.455 1.902.206 2.778 1.475zm-34.679-62.794a.805.805 0 1 1 0 1.61.805.805 0 0 1 0-1.61zm-1.599 2.281a.805.805 0 1 1 .002 1.61.805.805 0 0 1-.002-1.61zm2.976-4.598a.806.806 0 1 1-.001 1.612.806.806 0 0 1 0-1.612zm2.257 8.584a1.15 1.15 0 0 1 0 2.3 1.15 1.15 0 0 1 0-2.3zm1.929-2.269a.92.92 0 1 1 0 1.84.92.92 0 0 1 0-1.84zm1.775-1.658a.806.806 0 1 1 0 1.612.806.806 0 0 1 0-1.612zm39.864 62.03a1.036 1.036 0 1 1-.001 2.071 1.036 1.036 0 0 1 .001-2.071zm3.422-1.164a1.036 1.036 0 1 1 0 2.071 1.036 1.036 0 0 1 0-2.071zm3.34-1.67a1.036 1.036 0 1 1 0 2.072 1.036 1.036 0 0 1 0-2.072zm2.999-1.305a.92.92 0 1 1 0 1.84.92.92 0 0 1 0-1.84zm-15.534-75.459a1.266 1.266 0 1 1-.001 2.53 1.266 1.266 0 0 1 0-2.53zm-5.28-3.411a1.496 1.496 0 0 1 0 2.99 1.496 1.496 0 0 1 0-2.99zm-4.951 16.134a2.646 2.646 0 0 1 0 5.29 2.647 2.647 0 0 1-2.646-2.645 2.647 2.647 0 0 1 2.646-2.645zm6.35-6.315a2.301 2.301 0 0 1 0 4.6 2.301 2.301 0 0 1 0-4.6zm-9.995.141a1.842 1.842 0 0 1 0 3.681 1.84 1.84 0 0 1 0-3.68zm5.115-5.385a1.725 1.725 0 1 1 0 3.45 1.725 1.725 0 0 1 0-3.45zm-11.63 9.701a2.416 2.416 0 1 1-.001 4.832 2.416 2.416 0 0 1 .001-4.832zm-12.947 12.7a1.496 1.496 0 1 1-1.495 1.496c0-.826.67-1.496 1.495-1.496zm6.209-7.008a2.531 2.531 0 0 1 0 5.06 2.531 2.531 0 0 1 0-5.06zm9.842 3.139a2.416 2.416 0 0 1 0 4.83 2.416 2.416 0 0 1 0-4.83zm-2.939 16.51a2.875 2.875 0 1 1 0 5.751 2.875 2.875 0 0 1 0-5.75zm13.97-12.829c1.657-1.062 3.42-1.272 3.932-.47.514.802-.414 2.314-2.072 3.374-1.657 1.062-3.418 1.273-3.932.472-.514-.802.415-2.314 2.072-3.376zm.682 11.089a3.681 3.681 0 0 1 3.68 3.68 3.682 3.682 0 0 1-3.68 3.68 3.681 3.681 0 0 1 0-7.36zm40.205 41.933c1.265-1.507 2.725-2.367 3.26-1.918.535.448-.057 2.037-1.322 3.543-1.265 1.508-2.726 2.368-3.26 1.918-.535-.448.057-2.035 1.322-3.543zm-11.49-4.915c.993-.425 2.062-.153 2.387.607.324.758-.218 1.718-1.21 2.142s-2.062.153-2.386-.605c-.324-.759.217-1.72 1.21-2.144zm1.918 7.15c1.47-1.11 3.128-1.392 3.701-.632.573.76-.154 2.278-1.624 3.386-1.47 1.108-3.128 1.39-3.701.631-.573-.76.154-2.277 1.624-3.385zm-2.799 8.972c1.48-.984 3.008-1.291 3.412-.683s-.468 1.9-1.947 2.885c-1.48.985-3.01 1.29-3.414.684-.404-.608.468-1.9 1.949-2.886zm-6.879-4.622c1.513-.804 3.104-.774 3.551.066s-.42 2.177-1.933 2.981c-1.514.803-3.105.774-3.552-.067s.42-2.176 1.934-2.98zm-3.27 9.631c1.445-.517 2.81-.4 3.047.261s-.742 1.62-2.187 2.138c-1.444.519-2.81.401-3.047-.26s.742-1.62 2.188-2.139zm-5.644-5.644c.936-.76 2.12-.856 2.639-.216.52.64.181 1.778-.755 2.538-.936.76-2.119.856-2.639.216s-.182-1.777.755-2.538z"></path><path d="M412.515 293.574c2.208 2.492 4.39 3.767 7.963 1.967 3.098-1.56 5.284-.226 7.673 1.63 2.352 1.83 4.051 4.032 3.264 7.603-.552 2.499-1.928 5.583.613 8.98-4.218-2.765-3.04-5.617-2.644-9.086.251-2.196-.948-4.13-2.6-5.531-1.6-1.359-2.888-2.476-5.674-1.366-4.075 1.622-8.35-.676-8.595-4.197zm7.117 12.969c1.548 2.183 3.565 2.7 5.211 4.507 1.719 1.885 2.317 4.626 1.221 6.763-.76-3.55-1.53-4.507-2.608-5.754-1.58-1.828-3.538-2.84-3.824-5.516zm-70.626 11.044c2.496 1.768 2.965 4.1 2.825 6.378-.208 3.36-1.245 5.002-4.162 6.562-1.845.986-4.569 3.137-5.167 6.293l-.174-.026c-1.094-5.082 2.28-7.656 4.918-8.834 1.74-.778 2.105-2.746 2.017-4.424-.068-1.305-.422-2.701-1.842-3.707-4.982-3.526-4.19-8.736-2.896-12.473l.17.036c-.428 5.817 1.233 8.016 4.31 10.195zm-15.677 20.992-.168-.049c-.808-3.402.975-4.02 2.846-7.134 1.311-2.182 2.695-5.397 1.313-7.875l.153-.085c2.834 2.896 2.18 6.246.107 9.377-1.661 2.51-4.066 3.932-4.25 5.766zm-8.14-18.633c.249-.037.94.156 1.28.496.461.464.501 1.171.058 1.889-.624 1.006-.768 1.02-1.236-.196-.448-1.163-.653-2.102-.103-2.19zm-105.902 14.167c.333.207-.005 1.743-.022 2.18-.038.781-.406 1.423-.79 1.423s-.516-.918-.306-2.028c.215-1.115.722-1.82 1.118-1.575zm1.458-1.138c.447 0 .77.91.77 2.028 0 2.12-1.202 2.822-1.258 1.015-.018-1.006.092-1.28.092-2.214 0-.472-.052-.829.396-.829zm2.767-1.697c.17-.016.406.34.831 1.03.733 1.911-.162 4.218-1.083 2.547-.323-.467-.415-1.584-.205-2.456.182-.743.283-1.104.457-1.12zm2.201-2.177c.22-.007.498.102.83.31.777.85 1.241 4.06.3 4.038-.416.013-1.04-.792-1.384-1.802-.535-1.562-.4-2.52.254-2.546zm2.604-2.034c.137-.026.335.078.618.306.419.466.778 1.552 1.016 2.422-.013.87-.34 1.34-.731 1.019-.395-.321-.855-1.434-1.022-2.447-.136-.83-.101-1.25.119-1.3zm2.83-4.2c.64-.108 1.777 1.197 2.031 2.255 0 1.771-1.471 1.631-2.172-.197-.311-.814-.395-1.66-.167-1.889a.668.668 0 0 1 .308-.17zm51.407-89.67c.926.695 2.592 1.194 3.809 1.292 3.008.241 1.91 2.103-1.26 1.993-1.583-.055-3.111-.58-3.739-1.753-.606-1.133.053-2.384 1.19-1.531zm-64.44 38.697c-1.805 1.595-2.264 3.912-1.913 5.152-2.385-.661-.992-5.695 1.912-5.152zm-1.267 9.45c-.305-1.862 2.57-5.524 2.262-7.402-1.67 1.372-4.114 5.044-2.262 7.402zm1.583 5.351c-.577-3.276 2.376-7.435 1.439-9.494-1.406 2.375-4.172 6.865-1.44 9.494zm1.853 3.948a17.615 17.615 0 0 1 .508-4.877c.494-1.973 1.586-4.05.511-5.756-.978 2.916-3.967 7.988-1.02 10.633zm-26.831 6.738c-.074 1.405-.035 3.19 1.681 3.629-2.51 1.707-2.964-1.83-1.681-3.63zm4.004-7.093c.792 2.45-.157 6.14 1.677 8.244-4.391.452-1.932-7.258-1.677-8.244zm-2.16 4.219c.11 1.422.042 4.449 2.146 5.036-3.968 1.567-2.86-3.802-2.145-5.036zm-23.161-44.114c1.658.866 1.885.601 1.983 1.895-1.673-.476-1.976-.346-1.983-1.895zm2.137 4.115c-2.073-.376-2.435-.066-2.43-1.909 1.536.705 1.873.62 2.43 1.909zm.668 5.012c-.13-1.177-.412-1.424-1.525-1.795-2.11-.7-2.808.875-1.066 1.433.725.231 1.705.03 2.591.362zm-1.986-4.235c.781.265 1.25.484 1.604 1.504-1.038-.384-2.833.287-3.09-1.151-.222-1.245.514-.682 1.486-.353zm-.858-6.865c1.25.29 1.503.054 1.678 1.277-1.49-.21-1.669-.097-1.678-1.277zm-12.536-21.73c1.893.487 4.377 1.938 5.914 4.916 2.383 4.597-.951 8.052-4.894 5.073-.797-.604-2.703-1.815-4.15-2.724 1.777-.002 3.105 1.151 4.666 1.808 2.017.85 2.682.043 2.936-2.486.284-2.857-2.054-4.594-4.472-6.588zm-.304.285c-2.283.9-3.633 3.56-3.363 5.858-2.958-1.229-2.514-3.905-1.816-4.98.795-1.223 2.721-1.761 5.179-.878zm62.904-37.857c-2.626.93.113 3.902-.659 5.879 3.043-.464-.123-4.416.659-5.879zm.89-3.157c-1.84 2.339 1.456 3.774 1.317 6.504 2.503-1.95-1.309-4.802-1.317-6.504zm-.218-3.451c-1.305 2.797 2.085 3.31 2.65 5.655 2.303-1.898-2.22-3.911-2.65-5.655zm-1.094-4.462c-.533 3.153 2.407 3.128 3.412 5.515 1.054-3.33-2.752-4.001-3.412-5.515zm-1.055-3.245c.904 1.835 2.847 2.752 4.047 4.31 1.122-2.389-3.228-4.494-4.047-4.31zm39.108-9.685c1.358-.029 2.547.111 3.143.456 1.276.74 1.089.868-1.27.888-2.624.023-2.694.114-1.418 1.521 1.915 2.117 1.664 2.883-.455 1.396-2.475-1.728-3.073-1.598-3.073.713 0 1.09-.365 2.208-.813 2.485-.443.277-.808-.144-.808-.915 0-.77-.633-2.073-1.394-2.918-1.199-1.32-1.226-1.644-.207-2.282 1.267-.786 4.023-1.297 6.295-1.344zm-32.108-9.679a7.264 7.264 0 0 1 1.776 1.272c.756.735 1.885.631 2.83 1.138 1.205.646 2.144 1.688 2.63 2.841l-.899.575c-.643-1.39-1.773-2.24-2.936-2.188a7.26 7.26 0 0 1 .578 2.846c.735 2.439 2.803 4.347 5.287 5.159l-.08.396c-1.463-.101-2.711-.447-4.02-.88-.79-.26-1.662-.732-2.553-.434a7.264 7.264 0 0 1-5.907 3.03 7.242 7.242 0 0 1-4.847-1.854c.679 1.746 1.632 3.182 3.594 3.704l-.104.392c-5.03-.782-4.992-4.312-6.93-8.68-1.801-4.054-5.76-6.153-11.3-6.027l-.047-.424c5.371-.86 9.812.02 12.405 4.626a7.277 7.277 0 0 1 6.368-6.25c.793-.737 2.004-1.18 3.417-1.319 4.2-.419 8.347 1.477 10.3 4.547l-.819.719c-1.692-2.667-6.446-4.435-8.768-3.208z"></path><path fill="#FFF" d="M224.508 157.038a5.193 5.193 0 0 1 0 10.383c-2.866 0-5.192-2.326-5.192-5.191s2.326-5.192 5.192-5.192z"></path><path d="M223.685 158.402a3.544 3.544 0 1 1-3.543 3.544 1.618 1.618 0 0 0 3.005-.834 1.622 1.622 0 0 0-2.08-1.553 3.532 3.532 0 0 1 2.618-1.157z"></path></svg>