<svg height="600" width="900" xmlns="http://www.w3.org/2000/svg"><path fill="red" d="M0 0h900v600H0z"/><g transform="translate(40.077 -56.82) scale(.35894)"><path d="M285.063 363.531c-12.563.173-25.458 3.92-38.094 12.531-56.135 38.258 7.344 111.313 7.344 111.313l.03.031c5.554-.226 11.655 1.136 18.563 4.969 15.644-18.894 31.54-37.346 72.844-12.156 8.986-8.986 13.68-20.344 36.594-20.344s27.607 11.358 36.593 20.344c41.305-25.19 57.2-6.738 72.844 12.156 6.909-3.833 13.01-5.195 18.563-4.969l.03-.031s63.48-73.055 7.345-111.313c-12.636-8.611-25.531-12.358-38.094-12.53-44.867-.616-85.722 44.288-97.281 75.406-11.56-31.118-52.415-76.022-97.281-75.407z" fill="red"/><path d="M284.531 356.125c-13.832-.102-28.033 3.25-41.843 11.344-68.836 40.344 1.687 122.062 1.687 122.062.009-.003.022.003.031 0 3.144-1.211 6.438-1.98 9.938-2.125l-.031-.031s-63.479-73.055-7.344-111.313c12.636-8.611 25.53-12.358 38.094-12.53 44.866-.616 85.722 44.288 97.28 75.406 11.56-31.118 52.415-76.022 97.282-75.407 12.563.173 25.458 3.92 38.094 12.531 56.134 38.258-7.344 111.313-7.344 111.313l-.031.031c3.5.146 6.794.914 9.937 2.125.01.003.023-.003.032 0 0 0 70.523-81.718 1.687-122.062-13.81-8.095-28.012-11.446-41.844-11.344-45.184.334-86.485 37.692-97.812 68.187-11.328-30.495-52.628-67.853-97.813-68.187zm-17.562 133.5c.555.21 1.12.412 1.687.656-.562-.242-1.136-.446-1.687-.656zm230.75 0c-.556.21-1.121.412-1.688.656.563-.242 1.136-.446 1.688-.656z" stroke="#000" stroke-linejoin="round" fill="gold" stroke-width="2.1"/><path d="M491.44 566.226a66.165 18.688 0 1 1-132.33 0 66.165 18.688 0 1 1 132.33 0z" transform="matrix(1.6379 0 0 1.22933 -314.213 -131.575)" stroke="#000" stroke-linejoin="round" fill="red" stroke-width="1.48"/><path d="M382.344 459.875c-22.915 0-27.608 11.358-36.594 20.344-41.304-25.19-57.2-6.738-72.844 12.156-16.115-8.941-27.777-4.55-38.562 2.5 17.617 22.389 32.71 45.23 39.625 69.625 0-12.688 48.523-22.969 108.375-22.969s108.375 10.281 108.375 22.969c6.914-24.395 22.007-47.236 39.625-69.625-10.785-7.05-22.447-11.441-38.563-2.5-15.644-18.894-31.54-37.346-72.844-12.156-8.986-8.986-13.679-20.344-36.593-20.344z" stroke="#000" stroke-linejoin="round" fill="#fff" stroke-width="2"/><path d="M555.834 476.573a11.617 11.617 0 1 1-23.233 0 11.617 11.617 0 1 1 23.233 0zm12.163-24.418a11.617 11.617 0 1 1-23.233 0 11.617 11.617 0 1 1 23.233 0zm6.523-25.191a11.617 11.617 0 1 1-23.233 0 11.617 11.617 0 1 1 23.234 0zm-9.66-19.464a11.617 11.617 0 1 1-7.904-21.846 11.617 11.617 0 1 1 7.905 21.847zm-25.553-25.913a11.617 11.617 0 1 1 13.897-18.62 11.617 11.617 0 1 1-13.897 18.62zm-7.269-20.509a11.617 11.617 0 1 1-19.266-12.985 11.617 11.617 0 1 1 19.266 12.985zm-25.571-15.342a11.617 11.617 0 1 1-23.233 0 11.617 11.617 0 1 1 23.233 0zm-29.956.262a11.617 11.617 0 1 1-23.233 0 11.617 11.617 0 1 1 23.233 0zm-32.875 18.172a11.617 11.617 0 1 1-7.897-21.85 11.617 11.617 0 1 1 7.897 21.85zM208.851 476.573a11.617 11.617 0 1 0 23.234 0 11.617 11.617 0 1 0-23.234 0zm-12.163-24.418a11.617 11.617 0 1 0 23.233 0 11.617 11.617 0 1 0-23.233 0zm-6.523-25.191a11.617 11.617 0 1 0 23.233 0 11.617 11.617 0 1 0-23.233 0zm9.66-19.464a11.617 11.617 0 1 0 7.905-21.846 11.617 11.617 0 1 0-7.905 21.847zm25.553-25.913a11.617 11.617 0 1 0-13.896-18.62 11.617 11.617 0 1 0 13.896 18.62zm7.269-20.509a11.617 11.617 0 1 0 19.267-12.985 11.617 11.617 0 1 0-19.267 12.985zm25.571-15.342a11.617 11.617 0 1 0 23.234 0 11.617 11.617 0 1 0-23.234 0zm29.956.262a11.617 11.617 0 1 0 23.233 0 11.617 11.617 0 1 0-23.233 0zm32.876 18.172a11.617 11.617 0 1 0 7.896-21.85 11.617 11.617 0 1 0-7.897 21.85z" stroke="#000" stroke-linejoin="round" fill="#fff"/><path d="M342.531 362c-2.35 2.005-4.277 2.97-7.5 7.156 17.375 21.725 30.781 50.107 36.281 91.781l11.032-1.062 11.031 1.063c5.5-41.675 18.907-70.057 36.281-91.782-3.222-4.187-5.15-5.15-7.5-7.156-12.206 6.18-22.712 14.09-39.812 15.375-17.1-1.285-27.606-9.196-39.813-15.375z" stroke="#000" stroke-linejoin="round" fill="gold" stroke-width="2.1"/><path d="M375.153 275.305v17.888h-13.447v12.333h13.447v12.837h14.381v-12.837h13.448v-12.333h-13.448v-17.888z" stroke="#000" stroke-linejoin="round" fill="gold"/><path d="M412.316 347.402a29.973 29.973 0 1 1-59.946 0 29.973 29.973 0 1 1 59.946 0z" stroke="#000" stroke-linejoin="round" fill="gold"/><path d="M342.531 362c12.104 25.128 33.284 54.751 33.375 98.219a57.754 57.754 0 0 1 6.438-.344c2.333 0 4.458.123 6.437.344.092-43.468 21.272-73.091 33.375-98.219-12.206 6.18-22.712 14.09-39.812 15.375-17.1-1.285-27.606-9.196-39.813-15.375z" stroke="#000" stroke-linejoin="round" fill="gold" stroke-width="2.1"/><path d="M382.344 317.438c-2.918.224-7.064.08-9.094 1.855v24.988c-6.835-.346-13.676-1-20.375-2.437-.966 5.252-.53 10.756 1.281 15.781 14.058 2.648 28.491 2.871 42.727 1.835 4.576-.378 9.144-.934 13.648-1.835 1.813-5.024 2.248-10.53 1.281-15.781-6.699 1.438-13.54 2.091-20.375 2.437v-25.437a29.932 29.932 0 0 0-9.093-1.406z" stroke="#000" stroke-linejoin="round" fill="gold"/><path d="M418.571 498.166s-8.3 8.824-9.107 14.464c-.815 5.698 3.929 16.071 3.929 16.071s10.1-9.097 12.946-13.928c1.702-2.888 2.947-13.66 2.947-13.66l-3.84-.18c-.66 10.315-5.735 11.803-9.196 16.518 0 0-1.534-2.352-1.518-4.017.053-5.36 6.786-13.929 6.786-13.929-.652-2.264-1.84-1.582-2.947-1.34zm36.25-20.179s-8.3 8.824-9.107 14.464c-.815 5.698 3.929 16.072 3.929 16.072s10.1-9.098 12.946-13.929c1.702-2.887 2.947-13.66 2.947-13.66l-3.84-.179c-.66 10.315-5.735 11.802-9.196 16.518 0 0-1.534-2.353-1.518-4.018.053-5.36 6.786-13.929 6.786-13.929-.652-2.263-1.84-1.581-2.947-1.339zM477.197 513s-7.704 8.192-8.454 13.427c-.757 5.29 3.647 14.919 3.647 14.919s9.375-8.445 12.018-12.93c1.58-2.68 2.735-12.68 2.735-12.68l-3.564-.166c-.614 9.575-5.324 10.956-8.537 15.333 0 0-1.424-2.184-1.409-3.73.05-4.975 6.3-12.93 6.3-12.93-.606-2.1-1.708-1.467-2.736-1.242zm26.786-13.57s-7.705 8.19-8.454 13.426c-.757 5.29 3.647 14.919 3.647 14.919s9.375-8.446 12.017-12.93c1.58-2.68 2.736-12.68 2.736-12.68l-3.564-.166c-.614 9.574-5.325 10.955-8.537 15.333 0 0-1.424-2.185-1.41-3.73.05-4.976 6.3-12.93 6.3-12.93-.605-2.101-1.707-1.468-2.735-1.243zm-127.912-27.336s-8.3 8.825-9.107 14.465c-.815 5.698 3.929 16.071 3.929 16.071s10.1-9.098 12.946-13.929c1.702-2.887 2.947-13.66 2.947-13.66l-3.84-.179c-.66 10.315-5.735 11.802-9.196 16.518 0 0-1.534-2.353-1.518-4.018.053-5.36 6.786-13.928 6.786-13.928-.652-2.264-1.84-1.582-2.947-1.34zm-29.915 30.536s8.3 8.824 9.107 14.464c.815 5.698-3.929 16.072-3.929 16.072s-10.1-9.098-12.946-13.929c-1.702-2.887-2.947-13.66-2.947-13.66l3.84-.18c.66 10.316 5.736 11.803 9.196 16.519 0 0 1.534-2.353 1.518-4.018-.053-5.36-6.786-13.929-6.786-13.929.652-2.264 1.84-1.581 2.947-1.339zm-29.166-18.571s8.299 8.824 9.106 14.464c.816 5.698-3.928 16.071-3.928 16.071s-10.1-9.097-12.947-13.928c-1.701-2.888-2.946-13.661-2.946-13.661l3.84-.179c.66 10.315 5.735 11.803 9.195 16.518 0 0 1.535-2.353 1.518-4.018-.052-5.36-6.785-13.928-6.785-13.928.651-2.264 1.839-1.582 2.946-1.34zm-29.168 27.5s8.3 8.824 9.108 14.464c.815 5.698-3.929 16.071-3.929 16.071s-10.1-9.097-12.946-13.928c-1.702-2.888-2.947-13.661-2.947-13.661l3.84-.179c.66 10.315 5.735 11.803 9.196 16.518 0 0 1.534-2.353 1.518-4.018-.053-5.36-6.786-13.928-6.786-13.928.652-2.264 1.839-1.582 2.946-1.34zm-28.809-16.429s8.3 8.824 9.107 14.464c.816 5.698-3.929 16.072-3.929 16.072s-10.1-9.098-12.946-13.929c-1.702-2.887-2.946-13.66-2.946-13.66l3.839-.18c.661 10.316 5.736 11.803 9.196 16.519 0 0 1.535-2.353 1.518-4.018-.053-5.36-6.786-13.929-6.786-13.929.652-2.264 1.84-1.581 2.947-1.339z" fill="silver"/><path d="M385.442 396.325a9.117 9.117 0 1 1-6.199-17.15 9.117 9.117 0 1 1 6.199 17.15zm-.606 16.175a7.332 7.332 0 1 1-4.985-13.79 7.332 7.332 0 1 1 4.985 13.79zm-.731 14.235a5.19 5.19 0 1 1-3.528-9.761 5.19 5.19 0 1 1 3.528 9.761zm0 12.5a5.19 5.19 0 1 1-3.528-9.761 5.19 5.19 0 1 1 3.528 9.761zm0 13.929a5.19 5.19 0 1 1-3.528-9.762 5.19 5.19 0 1 1 3.528 9.762z" stroke="#000" stroke-linejoin="round" fill="#fff"/><path d="M172.094 564.25v282.875c0 116.553 94.135 211.031 210.25 211.031s210.25-94.478 210.25-211.031V564.25l-23.219 15.156-23.25-15.156v48.656h-47.031V564.25l-23.25 15.156-23.219-15.156v48.656h-47.062V564.25l-23.22 15.156-23.25-15.156v48.656h-47.03V564.25l-23.22 15.156-23.25-15.156v48.656h-47.03V564.25l-23.25 15.156-23.22-15.156z" fill="silver"/><path d="M172.094 564.25v282.875c0 116.553 94.135 211.031 210.25 211.031s210.25-94.478 210.25-211.031V564.25l-23.219 15.156-23.25-15.156v48.656h-47.031V564.25l-23.25 15.156-23.219-15.156v48.656h-47.062V564.25l-23.22 15.156-23.25-15.156v48.656h-47.03V564.25l-23.22 15.156-23.25-15.156v48.656h-47.03V564.25l-23.25 15.156-23.22-15.156z" stroke="#000" fill="none" stroke-width="3"/><path d="M370.188 788.625c-10.96 0-13.594 8.375-13.594 8.375h-9.438v3.625L238.937 799.5c-8.336-1.19-9.499-2.372-12.875-3.563-3.627 6.161-6.78 15.777-6.78 22.563s3.153 16.433 6.78 22.594c3.376-1.19 4.539-2.372 12.875-3.563l242.5-2.5c12.565 1.624 23.303 4.434 27.844 11.407 2.027.348 3.211 3.25 6.438 0 6.16-5.244 3.461-12.777 7.843-17.5 2.015-2.172 4.93-3.447 8.188-4.375 1.448 3.994 4.27 6.718 7.531 6.718 4.734 0 8.563-5.73 8.563-12.781s-3.829-12.75-8.563-12.75c-3.262 0-6.083 2.723-7.531 6.719-3.258-.938-6.173-2.235-8.188-4.407-4.382-4.723-1.684-12.256-7.843-17.5-1.21-1.218-2.152-1.552-2.938-1.5-1.31.088-2.233 1.283-3.5 1.5-4.54 6.973-15.28 9.814-27.844 11.438L390 801.062v-3h-5s-3.854-9.437-14.813-9.437z"/><path d="M541.429 815.576a2.321 6.429 0 1 1-4.643 0 2.321 6.429 0 1 1 4.643 0z" opacity=".881" fill="#fff"/><rect height="4.643" rx="19.286" ry="2.321" width="230" x="253.214" y="804.505" opacity=".881" fill="#fff"/><g stroke="#000" fill="gold" stroke-width="1.5" stroke-linejoin="round"><path d="M409.219 835.781l-113 1.157v31.312h56.469l57.5 95.719H480l-5.906-9.094c-14.106-23.428 1.75-54.694-36.938-60.563l-27.875-58.53h-.062z"/><path d="M442.656 835.438l-33.375.343 27.875 58.532c38.689 5.868 22.832 37.134 36.938 60.562l5.906 9.094 25.156-17.625-5.906-9.094c-14.105-23.428 1.72-54.663-36.969-60.531l-19.625-41.282z"/><path d="M442.656 835.438l-16.687.156 23.75 49.906c38.688 5.869 22.832 37.134 36.937 60.563l5.906 9.093 12.594-8.812-5.906-9.094c-14.105-23.428 1.72-54.663-36.969-60.531l-19.625-41.282z"/></g><g fill="gold" stroke="#000"><path d="M327.13 814.576c-40.928 0-74.125 33.197-74.125 74.125s33.197 74.094 74.125 74.094 74.094-33.166 74.094-74.094-33.166-74.125-74.094-74.125zm0 10.625c35.068 0 63.5 28.432 63.5 63.5s-28.432 63.469-63.5 63.469-63.5-28.401-63.5-63.469 28.432-63.5 63.5-63.5z" stroke-width="1.5"/><path d="M307.661 829.295c7.234 6.73 15.885 12.82 13.344 19.625-2.573 6.891-3.348 8.644-3.348 10.5 0 5.231 4.348 9.469 9.457 9.469 5.11 0 9.49-4.238 9.49-9.47 0-1.855-.776-3.608-3.35-10.5-2.54-6.804 6.111-12.895 13.345-19.624-3.664 3.22-10.997 5.437-19.47 5.437-8.47 0-15.805-2.217-19.468-5.437z" stroke-width="1.5"/><path d="M327.13 825.201a63.39 63.39 0 0 0-20.281 3.313c3.308 3.643 11.137 6.218 20.28 6.218 9.157 0 16.981-2.567 20.282-6.218a63.39 63.39 0 0 0-20.281-3.313zm59.378 44.025c-6.73 7.233-12.82 15.884-19.625 13.343-6.892-2.573-8.644-3.348-10.5-3.348-5.232 0-9.469 4.349-9.469 9.458s4.237 9.489 9.469 9.489c1.856 0 3.608-.775 10.5-3.349 6.805-2.54 12.895 6.11 19.625 13.344-3.22-3.663-5.438-10.997-5.438-19.469 0-8.471 2.217-15.805 5.438-19.468z" stroke-width="1.5"/><path d="M390.602 888.694a63.39 63.39 0 0 0-3.313-20.28c-3.643 3.308-6.219 11.137-6.219 20.28 0 9.157 2.568 16.981 6.219 20.282a63.39 63.39 0 0 0 3.313-20.282zm-82.948 59.385c7.234-6.73 15.885-12.82 13.344-19.625-2.573-6.891-3.348-8.644-3.348-10.5 0-5.232 4.348-9.469 9.458-9.469 5.109 0 9.488 4.237 9.488 9.469 0 1.856-.775 3.609-3.348 10.5-2.54 6.805 6.11 12.896 13.344 19.625-3.663-3.22-10.997-5.438-19.469-5.438-8.471 0-15.805 2.217-19.469 5.438z" stroke-width="1.5"/><path d="M327.123 952.173a63.39 63.39 0 0 1-20.281-3.313c3.308-3.643 11.137-6.219 20.281-6.219 9.156 0 16.98 2.568 20.281 6.22a63.39 63.39 0 0 1-20.28 3.312zm59.385-82.947c-6.73 7.233-12.82 15.884-19.625 13.343-6.892-2.573-8.644-3.348-10.5-3.348-5.232 0-9.469 4.349-9.469 9.458s4.237 9.489 9.469 9.489c1.856 0 3.608-.775 10.5-3.349 6.805-2.54 12.895 6.11 19.625 13.344-3.22-3.663-5.438-10.997-5.438-19.469 0-8.471 2.217-15.805 5.438-19.468z" stroke-width="1.5"/><path d="M390.602 888.694a63.39 63.39 0 0 0-3.313-20.28c-3.643 3.308-6.219 11.137-6.219 20.28 0 9.157 2.568 16.981 6.219 20.282a63.39 63.39 0 0 0 3.313-20.282zm-122.874 19.454c6.729-7.233 12.82-15.885 19.625-13.344 6.89 2.574 8.643 3.349 10.5 3.349 5.231 0 9.468-4.349 9.468-9.458 0-5.11-4.237-9.489-9.468-9.489-1.857 0-3.61.775-10.5 3.348-6.806 2.541-12.896-6.11-19.625-13.343 3.22 3.663 5.437 10.997 5.437 19.468 0 8.472-2.217 15.806-5.437 19.47z" stroke-width="1.5"/><path d="M263.634 888.68a63.39 63.39 0 0 0 3.312 20.28c3.644-3.308 6.219-11.137 6.219-20.28 0-9.157-2.568-16.981-6.219-20.282a63.39 63.39 0 0 0-3.312 20.281zm7.729-28.232c9.873-.356 20.297-2.167 23.313 4.442 3.053 6.692 3.744 8.48 5.057 9.792 3.699 3.699 9.77 3.62 13.383.008 3.612-3.613 3.713-9.706.014-13.405-1.312-1.313-3.1-2.004-9.792-5.057-6.609-3.016-4.798-13.44-4.442-23.313-.313 4.868-3.931 11.621-9.921 17.612-5.99 5.99-12.744 9.608-17.612 9.921z" stroke-width="1.5"/><path d="M282.235 843.787a63.39 63.39 0 0 0-11.999 16.683c4.916.237 12.273-3.478 18.739-9.943 6.474-6.475 10.191-13.823 9.943-18.739a63.39 63.39 0 0 0-16.683 11.999zm100.644 16.661c-9.873-.356-20.297-2.167-23.313 4.442-3.053 6.692-3.744 8.48-5.057 9.792-3.699 3.699-9.77 3.62-13.383.008-3.612-3.613-3.713-9.706-.014-13.405 1.312-1.313 3.1-2.004 9.792-5.057 6.609-3.016 4.798-13.44 4.442-23.313.313 4.868 3.931 11.621 9.921 17.612 5.99 5.99 12.744 9.608 17.612 9.921z" stroke-width="1.5"/><path d="M372.007 843.787a63.39 63.39 0 0 1 11.999 16.683c-4.916.237-12.273-3.478-18.739-9.943-6.474-6.475-10.191-13.823-9.943-18.739a63.39 63.39 0 0 1 16.683 11.999zm-100.644 73.136c9.873.356 20.297 2.167 23.313-4.442 3.053-6.692 3.744-8.48 5.057-9.792 3.699-3.7 9.77-3.62 13.383-.008 3.612 3.613 3.713 9.706.014 13.405-1.313 1.313-3.1 2.004-9.792 5.057-6.609 3.015-4.798 13.44-4.442 23.313-.313-4.868-3.931-11.621-9.921-17.612-5.99-5.99-12.744-9.608-17.612-9.921z" stroke-width="1.5"/><path d="M282.235 933.584a63.39 63.39 0 0 1-11.999-16.683c4.916-.237 12.273 3.478 18.739 9.943 6.474 6.475 10.191 13.823 9.943 18.739a63.39 63.39 0 0 1-16.683-11.999zm100.644-16.661c-9.873.356-20.297 2.167-23.313-4.442-3.053-6.692-3.744-8.48-5.057-9.792-3.699-3.7-9.77-3.62-13.383-.008-3.612 3.613-3.713 9.706-.014 13.405 1.312 1.313 3.1 2.004 9.792 5.057 6.609 3.015 4.798 13.44 4.442 23.313.313-4.868 3.931-11.621 9.921-17.612 5.99-5.99 12.744-9.608 17.612-9.921z" stroke-width="1.5"/><path d="M372.007 933.584a63.39 63.39 0 0 0 11.999-16.683c-4.916-.237-12.273 3.478-18.739 9.943-6.474 6.475-10.191 13.823-9.943 18.739a63.39 63.39 0 0 0 16.683-11.999z" stroke-width="1.5"/><path d="M348.264 888.688a21.143 21.143 0 1 1-42.286 0 21.143 21.143 0 1 1 42.286 0z" stroke-width="1.348"/><path d="M334.421 888.692a7.299 7.299 0 1 1-14.598 0 7.299 7.299 0 1 1 14.598 0z" stroke-width="1.5"/></g><path d="M451.283 640.61c-5.262 33.912-33.96 54.077-34.344 64.657-.313 8.639 15.735 26.128 18.188 41.906l13.125 3.782 2.125-6.657c2.538-11.88.018-25.17 9.75-36-4.015-3.556-5.57.828-7.813 3.032l7.313-26.032c-2.727-1.631-4.766.83-7.063 1.782 8.01-16.016.418-31.06-1.281-46.47z" stroke="#000" stroke-linejoin="round" fill="gold"/><path d="M447.563 654.844c-9.443 25.456-30.299 41.433-30.625 50.437-.246 6.762 9.531 18.928 14.968 31.469l.063.094c5.99-7.78-12.287-19.71-9.969-29.813 5.784-25.211 20.777-30.89 25.563-52.187z" fill="green"/><path d="M441.69 749.064c-2.453-15.778-18.497-33.283-18.184-41.921.384-10.58 29.083-30.74 34.346-64.65 1.699 15.409 9.273 30.45 1.262 46.467 2.297-.952 4.344-3.4 7.071-1.768l-7.323 26.011c2.242-2.203 3.814-6.587 7.828-3.03-11.598 12.907-5.757 29.35-11.869 42.679 27.543-37.038 17.58-137.85 71.216-103.288-38.818-17.65-40.535 41.93-51.518 81.065 16.857-18.467 19.03-88.717 52.088-50.053-21.155-20.49-32.717 35.761-47.857 63.393 18.81-15.724 37.62-66.838 56.429-32.5-41.216-11.293-43.677 80.791-95.985 75.659-44.998-4.416-35.567-50.672-39.931-90.592-.513-4.686-14.23-8.471-13.385-14.142.812-5.452 7.518-8.328 14.647-6.566 21.822 5.393-1.624 51.242 41.164 73.236z" fill="gold"/><path d="M387.813 678.5c-5.321 1.462-10.224 3.945-16.47 3.25-1.154 5.435 3.665 6.32 6.188 6.438 3.844.178 8.431.52 13.469.937-2.96-2.03-5.502-4.185-5.125-6.719.225-1.514.92-2.833 1.938-3.906z" stroke="#000" stroke-linejoin="round" fill="red"/><path d="M395.09 680.398c4.499-2.949 6.88.723 9.553 3.482-3.185-.826-6.37-.083-9.554-3.482z"/><path d="M395.094 649.906c-1.8 0-3.25 1.45-3.25 3.25s1.45 3.282 3.25 3.282c.697 2.504 1.191 5.907 1.469 9.437.259 3.303.389 6.52.5 9.469.698.03 1.404.097 2.125.218-.123-3.005-.258-6.36-.532-9.843-.288-3.67-.708-7.226-1.531-10.032a3.25 3.25 0 0 0 1.219-2.53c0-1.8-1.45-3.25-3.25-3.25zm-8.313 5.907c-1.8 0-3.25 1.45-3.25 3.25s1.45 3.25 3.25 3.25c.304 0 .597-.048.875-.125 2.315 4.431 4.335 8.226 4.969 13.593a13.91 13.91 0 0 1 2.063-.375c-.713-5.791-2.931-9.932-5.282-14.437.397-.54.625-1.186.625-1.907 0-1.8-1.45-3.25-3.25-3.25zm21 .343c-1.8 0-3.281 1.45-3.281 3.25 0 .9.379 1.723.969 2.313-2.116 4.264-3.937 8.797-4.594 14.187a12.88 12.88 0 0 1 2 .75c.567-5.283 2.366-9.737 4.5-14.031.135.017.267.063.406.063 1.8 0 3.25-1.482 3.25-3.282s-1.45-3.25-3.25-3.25z" font-family="Sans"/><path d="M506.906 642.469c-9.29-.105-15.59 6.285-20.406 16.218a454.38 454.38 0 0 1 3.469 9.844c4.657-12.177 10.99-20.904 21-22.031-.229-1.26-.478-2.537-.688-3.719a22.212 22.212 0 0 0-3.375-.312zm1.969 26.687c-5.932.354-10.29 6.232-14.031 14.313 1.418 4.533 2.764 9.123 4.125 13.718 5.379-11.493 11.122-20.184 17.844-20.937-.382-1.78-.73-3.528-1.094-5.281-2.503-1.369-4.764-1.937-6.844-1.813zm12.188 30.688c-5.845.26-11.687 5.854-17.532 13.156 1.003 3.565 1.979 7.07 2.906 10.469 5.454-6.785 11.448-11.635 18.813-12.719-1.003-3.513-1.958-7.166-2.906-10.875a9.47 9.47 0 0 0-1.282-.031z" fill="red"/><path d="M481.719 671c-2.39 7.388-4.458 15.661-6.5 24.188a2826.71 2826.71 0 0 1 3.344 18.687c2.39-10.995 4.627-22.449 7.406-32.75a845.513 845.513 0 0 0-4.25-10.125zm9.125 22.281c-3.571 9.765-6.824 20.63-10.844 28.813.846 4.918 1.662 9.789 2.438 14.531 4.442-9.597 8.648-20.984 13-31.313a645.893 645.893 0 0 0-4.594-12.03zm9.031 24.5c-5.639 7.58-11.268 16.032-16.906 22.125.95 5.89 1.817 11.531 2.562 16.719 6.183-9.806 11.65-20.308 17.625-28.813a417.957 417.957 0 0 0-3.281-10.03z" fill="green"/><path d="M461.531 662c-5.237 20.186-16.562 51.844-16.562 51.844l14.156-24.875 1.469-3.469c2.959-8.003 2.36-15.77.937-23.5z" fill="red"/><path d="M463.25 714.906c-.19.152-13.586 10.834-15.344 20.782-.787 4.456 1.406 11.937 1.406 11.937a52.84 52.84 0 0 1 8.938-11.125c.63-7.328 1.087-14.807 5-21.594z" fill="green"/><path d="M451.094 663.813c-10.249 21.375-27.299 35.205-27.594 43.343-.272 7.497 11.77 21.666 16.563 35.594.083-.143.184-.304.25-.5 3.151-9.456-7.696-21.275-10.875-30.813-2.18-6.54 9.715-17.024 12.5-22.593 4.411-8.823 9.343-15.62 9.156-25.032z" fill="red"/><path d="M441.69 749.064c-2.453-15.778-18.497-33.283-18.184-41.921.384-10.58 29.083-30.74 34.346-64.65 1.699 15.409 9.273 30.45 1.262 46.467 2.297-.952 4.344-3.4 7.071-1.768l-7.323 26.011c2.242-2.203 3.814-6.587 7.828-3.03-11.598 12.907-5.757 29.35-11.869 42.679 27.543-37.038 17.58-137.85 71.216-103.288-38.818-17.65-40.535 41.93-51.518 81.065 16.857-18.467 19.03-88.717 52.088-50.053-21.155-20.49-32.717 35.761-47.857 63.393 18.81-15.724 37.62-66.838 56.429-32.5-41.216-11.293-43.677 80.791-95.985 75.659-44.998-4.416-35.567-50.672-39.931-90.592-.513-4.686-14.23-8.471-13.385-14.142.812-5.452 7.518-8.328 14.647-6.566 21.822 5.393-1.624 51.242 41.164 73.236z" stroke="#000" stroke-linejoin="round" fill="none"/><path d="M446.875 787.156a40.174 40.174 0 0 1-7 .031l-3.219 10.313s-3.529 1.888-5.875 3.969l13.688.156c-.025-1.664-1.375-4.656-1.375-4.656s2.09-5.39 3.781-9.813zm-19.75-2.625L419.375 797c-4.866 1.027-10.224 2.525-9.469 5.188.848 2.99 4.523-.617 6.219-.75-.431 1.962-.649 2.886 1.188 3.062 1.23.118 2.096-1.122 3.843-2.094 1.587.842 2.62 3.76 4.813 2.094.806-1.182-.219-6.375-.219-6.375s5.866-8.247 8.281-11.719a45.69 45.69 0 0 1-6.906-1.875z" fill="red" stroke="#000"/></g><path fill="#ff0" d="M0 511.163h900v30H0zM1.414 367.06h900v30h-900z"/></svg>