<svg xmlns="http://www.w3.org/2000/svg" xmlns:xlink="http://www.w3.org/1999/xlink" width="1949" height="1298" xmlns:cgf="https://coding.garden/flags"><metadata id="cgf-metadata">

<cgf:flag>
  <cgf:name></cgf:name>
  <cgf:route>ru/tul</cgf:route>
  <cgf:aspect-ratio>1.5015408320493067</cgf:aspect-ratio>
</cgf:flag>

</metadata><defs><linearGradient id="m"><stop offset="0%" stop-color="#688"></stop><stop offset="100%" stop-color="#ded"></stop></linearGradient><linearGradient id="f"><stop offset="0%" stop-color="#fc3"></stop><stop offset="15%" stop-color="#e90"></stop><stop offset="55%" stop-color="#fe4"></stop><stop offset="90%" stop-color="#e81"></stop></linearGradient><linearGradient id="a"><stop offset="0%" stop-color="#9ba"></stop><stop offset="100%" stop-color="#fff"></stop></linearGradient><linearGradient id="b"><stop offset="0%" stop-color="#fff"></stop><stop offset="100%" stop-color="#7a9"></stop></linearGradient><linearGradient id="c" x2="0" y2="1" gradientUnits="objectBoundingBox"><stop offset="0%" stop-color="#8aa"></stop><stop offset="100%" stop-color="#eee"></stop></linearGradient><linearGradient id="g" x2="0" y2="1" gradientUnits="objectBoundingBox"><stop offset="0%" stop-color="#d70"></stop><stop offset="100%" stop-color="#f91"></stop></linearGradient><linearGradient id="d" x2="0" y2="1" gradientUnits="objectBoundingBox"><stop offset="0%" stop-color="#fe9"></stop><stop offset="25%" stop-color="#d80"></stop><stop offset="65%" stop-color="#fe5"></stop><stop offset="85%" stop-color="#c70"></stop><stop offset="100%" stop-color="#e80"></stop></linearGradient><linearGradient id="l" x1="1" x2="0" y2="1" gradientUnits="objectBoundingBox"><stop offset="0%" stop-color="#699"></stop><stop offset="100%" stop-color="#eee"></stop></linearGradient><linearGradient id="h"><stop offset="0%" stop-color="#d81"></stop><stop offset="100%" stop-color="#fd4"></stop></linearGradient><linearGradient id="i" x2="0" y2="1" gradientUnits="objectBoundingBox"><stop offset="0%" stop-color="#ec5"></stop><stop offset="100%" stop-color="#fe9"></stop></linearGradient><linearGradient id="j" x2="0" y2="1" gradientUnits="objectBoundingBox"><stop offset="0%" stop-color="#a81"></stop><stop offset="100%" stop-color="#ffa"></stop></linearGradient><g id="k"><path fill="#fff" d="m434 195 19 17L622 37 479 234l19 15-667 759-31 10 4-33z"></path><path fill="url(#a)" d="M464 226 622 37 479 234z"></path><path fill="url(#b)" d="m491 250 7-1-667 759-3-3z"></path><path fill="url(#c)" d="m460 230 31 20-663 755-28 13z"></path><path fill="#a99" d="m-172 1005 3 3-31 10z"></path></g><g id="n"><path fill="url(#d)" d="M207 371c57 0 36-122 30-151-12-49-8-61-8-185 0-31-44-31-44 0 0 124 4 136-8 185-6 29-27 151 30 151z"></path><path fill="url(#e)" d="M207 360c44 0 31-96 24-124-12-49-8-77-8-201 0-21-32-21-32 0 0 124 4 152-8 201-7 28-20 124 24 124z"></path><path fill="url(#f)" d="M92 100h260V89c-67 0-91-34-101-56H91z"></path><path fill="url(#g)" d="M92 92h260v8H92z"></path><path fill="url(#h)" d="m92 100 8-8V42l-8-10z"></path><path fill="url(#i)" d="M92 32h159l-6 10H100z"></path><path fill="url(#j)" d="M352 92v-3c-67 0-91-34-101-56l-6 9c2 6 26 43 69 50z"></path></g><radialGradient id="e" cx="207" cy="292" r="300" gradientUnits="userSpaceOnUse"><stop offset="0%" stop-color="#fe9"></stop><stop offset="10%" stop-color="#fd5"></stop><stop offset="33%" stop-color="#d60"></stop><stop offset="100%" stop-color="#fc1"></stop></radialGradient></defs><g transform="translate(763 108)"><path fill="red" d="M-763-108h1949v1298H-763z"></path><use xlink:href="#k"></use><use xlink:href="#k" transform="matrix(-1 0 0 1 420 0)"></use><path fill="#fff" d="m-341 527 44 27 839 13v-20l220-20-220-18v-21l-839 13z"></path><path fill="url(#l)" d="M-341 527h872l11 35-837-13-2 5z"></path><path fill="#ced" d="m537 527 5 20v20l-2-6-9-34z"></path><path fill="url(#m)" d="m537 527 5-18v-22l-11 40z"></path><path fill="url(#a)" d="M537 527h225l-220 20z"></path><path fill="#588" d="m540 561 2 6-839-13 2-5z"></path><use xlink:href="#n"></use><use xlink:href="#n" y="740"></use></g></svg>