<svg xmlns="http://www.w3.org/2000/svg" height="600" width="900"><path fill="#d20000" d="M0 0h900v600H0z"/><path fill="gold" d="M0 0h250v600H0zm650 0h250v600H650z"/><path d="m413.623 390.039.13 18.84 3.827 4.75h64.87l3.828-4.75.129-18.84H465.88v4.115h-11.602l-4.304 5.097-4.283-5.107H434.09v-4.165h-20.427zm119.091 0v28.925c.536 2.717 1.587 5.097 4.443 6.187v1.984l25.524 18.057v4.263l22.152 16.362.159 18.087H314.979l.159-18.087 22.152-16.362v-4.283l25.524-18.057v-1.984c2.865-1.09 3.907-3.46 4.442-6.187v-28.955h-2.786v-31.83h1.685A17.204 17.204 0 0 1 360.97 352l-.377 1.834a34.022 34.022 0 0 0 .714 12.822c.873 3.907 0 6.584-4.442 6.534-2.866 2.836-5.583 2.291-7.933.238a4.75 4.75 0 0 1-5.344-3.738c-2.182-.902-2.5-3.847.713-6.822s2.975-6.941 2.787-10.789a4.016 4.016 0 0 1 1.487-4.75 6.941 6.941 0 0 1 9.916-9.023h1.508a16.332 16.332 0 0 1 13.01-11.156v-.237h.128c-3.034-7.011.159-15.936 10.144-19.684h4.75l2.796-4.095V133.373h3.48l10.284-9.33 10.352 9.25h3.669v7.487h5.226v-7.278h8.26v-11.334h10.907l7.03-6.049 6.942 6.128h10.908v11.255h8.26v7.258h5.206v-7.417h3.668l10.353-9.251 10.352 9.251h3.48v169.564l2.896 4.244h4.62c9.996 3.748 13.2 12.663 10.145 19.683h.159v.238a16.332 16.332 0 0 1 13.01 11.156h1.507a6.941 6.941 0 0 1 9.916 9.083 4.016 4.016 0 0 1 1.487 4.75c-.208 3.847-.317 7.655 2.786 10.788s2.876 5.95.714 6.822a4.75 4.75 0 0 1-5.344 3.739c-2.41 2.072-5.127 2.608-7.933-.238-4.492 0-5.305-2.628-4.443-6.535a34.032 34.032 0 0 0 .714-12.821l-.376-1.835a17.214 17.214 0 0 1-5.186 6.158h1.616v31.642h-2.787z"/><path d="m391.61 317.652 5.582-1.587a7.754 7.754 0 0 1 7.487-.188h2.44c1.04-.664 2.528-.803 3.579-1.468s1.587-1.358 2.519-.555v2.41a2.767 2.767 0 0 0 2.786-.1 5.771 5.771 0 0 0 4.195-2.716 2.102 2.102 0 0 1 2.974-.199l.199.199-.367 2.28c2.796.724 5.255 1.081 5.235-1.25 1.746-1.586 3.431-2.548 4.75 0 1.041 1.121 2.202 1.855 4.175 0a1.468 1.468 0 0 1 2.082 0q.605 1.895 3.312 0c.774 1.468 1.755 2.45 4.175 0a4.403 4.403 0 0 1 3.827 0c1.825 1.17 4.274 3.511 3.62 0 .267-1.328 1.428-2.21 2.528 0 .992 1.121 2.043 2.044 3.054.219a1.676 1.676 0 0 1 2.707.238c.903 1.587 1.984 1.983 2.688.238q1.328-3.381 2.637.238a5.771 5.771 0 0 0 2.816.258c1.28-.823 2.549-1.349 3.828.178l1.983-.238-.178-1.725h2.181l1.3 2.102q1.269 1.09 1.467.1 1.22-1.508 2.45.158 3.162.991 2.875-1.587l2.449-.476 3.48 1.805a1.696 1.696 0 0 0 2.975.129l.447-1.983c1.04-.794 2.092-1.22 3.163.823l1.586 1.09q1.666 1.458 2.628.1l.615-1.11h2.45l1.982 1.982 3.163.159 3.352-.337 1.388 3.51-.991 1.061-4.244-.694q-2.44 4.75-4.87-.803h-2.131l-1.329 2.687-1.269-2.44-1.775-.108-.585 1.894-1.28-1.488-1.586.476-.991 2.211-1.428-2.37-1.983-.555-.526 2.182-1.309-1.755h-2.181l-.605 2.974-1.696-2.974-1.785-.14q-.317 1.587-2.37.1c-1.586-1.428-2.36-.605-2.975.535-2.419 1.835-3.272.238-4.462-.684q-1.328 1.359-2.31 0l-.903.367q-1.804-1.586-2.2.714a1.983 1.983 0 0 1-2.708-.317q-.992-1.696-1.983-.218-.377 1.586-2.846.366l-.883 1.587-2.2-2.072-1.885-.189-1.17 1.488-2.092-1.15q-.615 3.777-4.016-.487-1.081-1.586-2.172-.208l-.456 1.983-1.299-1.586-1.487-.13-.992 1.825-.773.189-1.15-1.745c-1.726-1.587-2.34-.823-2.44.902l1.824 3.966q-2.687-.614-3.639-4.382h-1.23c-2.042 1.408-3.073.366-3.966-1.042s-1.586-.842-2.518-.188q-1.488 3.43-6.109-.476c-.793-1.587-1.586-.992-2.39-.188l-.614 1.586c-3.054.684-5.107.298-5.84-1.586a1.19 1.19 0 0 0-1.667.238l-.991 1.507q-.694 1.586-2.787.525l-2.151-2.37a.932.932 0 0 0-1.587-.109q-2.39 1.15-3.034-1.586a1.587 1.587 0 0 0-2.816-.218l-5.88 2.042q-2.132-.406-.794-1.884" fill="#a15a41"/><path d="M421.259 274.12c1.279-1.913 3.351-2.786 4.6-1.933s1.23 3.163 0 4.958-3.351 2.786-4.6 1.934-1.31-3.084 0-4.958m57.413 0c-1.279-1.914-3.341-2.787-4.6-1.934s-1.23 3.084 0 4.958 3.34 2.786 4.6 1.934 1.23-3.084 0-4.958" fill="#009aff"/><path d="M450.015 244.869a3.401 3.401 0 0 0 3.163-2.172h-6.326a3.401 3.401 0 0 0 3.173 2.181m0-16.56a3.401 3.401 0 0 1 3.163 2.172h-6.326a3.401 3.401 0 0 1 3.173-2.181m3.758 50.086c-.486-1.508-1.716-6.119-3.798-6.218-2.082.1-3.312 4.71-3.798 6.218-.644 2.112-.753 4.69 1.041 6.266a4.085 4.085 0 0 0 5.504 0c1.795-1.576 1.695-4.154 1.051-6.266" fill="#d20000"/><path d="M457.551 350.87a47.537 47.537 0 0 1-1.418 6.406v.13h67.627a13.406 13.406 0 0 0 11.523-6.535H457.54m-81.5 6.544h67.628l.06-.08a26.317 26.317 0 0 0 3.34-6.455h-82.58a13.406 13.406 0 0 0 11.503 6.545m159.945-19.039a13.446 13.446 0 0 0-11.532-7.784 16.917 16.917 0 0 1-7.883 4.958h-59.893c.268.932.506 1.884.714 2.866h78.693m-89.938-.1a19.931 19.931 0 0 0-1.824-2.865h-61.182a16.917 16.917 0 0 1-7.883-4.958 13.476 13.476 0 0 0-11.503 7.784h82.303z" fill="#008e1f"/><path d="M494.141 132.897h-2.975l2.975-2.796zm2.31-.022h2.975l-2.974-2.796zm2.48 40.924-3.709-10.68-3.699 10.68h7.408m-7.437-28.549 3.698 10.68 3.709-10.68h-7.407m8.726 19.703v-10.858l-3.054 5.425 3.054 5.433m-10.015-10.858v10.858l3.054-5.433-3.054-5.425m11.304-11.998h-12.594a1.408 1.408 0 0 0-1.388 1.428v31.999a1.408 1.408 0 0 0 1.388 1.428h12.614a1.418 1.418 0 0 0 1.388-1.428v-31.999a1.418 1.418 0 0 0-1.388-1.428zm-17.155 43.521v84.227l.179.208a3.966 3.966 0 0 1 5.503.694 4.591 4.591 0 0 1 .297.456v-73.705a1.686 1.686 0 0 1 1.587-1.745h5.087a1.696 1.696 0 0 1 1.586 1.745v87.697a3.966 3.966 0 0 1 2.975 7.12c1.468 2.052 2.975 4.144 4.403 6.247V185.618h-21.617m9.321 95.858 1.577 2.073v-84.494h-1.577zm-9.32-144.972h21.725v46.14h-21.726zm-126.232 207.74a3.322 3.322 0 0 1-3.321 3.323 3.322 3.322 0 0 1-3.322-3.322 3.322 3.322 0 0 1 3.322-3.322 3.322 3.322 0 0 1 3.321 3.322m190.487 0a3.322 3.322 0 0 1-3.322 3.322 3.322 3.322 0 0 1-3.322-3.322 3.322 3.322 0 0 1 3.322-3.322 3.322 3.322 0 0 1 3.322 3.322m-95.58-125.339a2.866 2.866 0 0 1-2.866 2.866 2.866 2.866 0 0 1-2.866-2.866 2.866 2.866 0 0 1 2.866-2.865 2.866 2.866 0 0 1 2.865 2.865m-44.612-45.117-3.698-10.68-3.699 10.68h7.397m-7.337-28.549 3.698 10.68 3.699-10.68h-7.397m8.626 19.704v-10.858l-3.054 5.424 3.054 5.434m-9.916-10.858v10.858l3.055-5.434-3.055-5.424m118.1 218.152 5.017-4.641h-10.035l5.018 4.64m0 3.57-5.018 4.641h10.035l-5.017-4.64m3.272-1.786 4.64 5.018v-10.035l-4.64 5.017m-6.544 0-4.641 5.018v-10.035l4.64 5.017m-132.477-1.784-5.018-4.631h10.035l-5.017 4.63m0 3.57 5.017 4.641h-10.035l5.018-4.64m-3.272-1.786-4.641 5.018v-10.035l4.64 5.017m6.545 0 4.631 5.018v-10.035l-4.63 5.017m66.436-15.964h-4.283a19.921 19.921 0 0 0 1.16-22.609h4.056c.277.565 5.622 12.395-.933 22.609m2.777-101.342h-9.182c-11.523 13.417-20.378 30.472-27.963 50.443h19.92l3.402-2.975c.902-.714 1.2-1.309.922-1.805l-3.034-4.383a1.884 1.884 0 0 1-.377-2.607c1.25-1.567 3.847-2.212 6.505-2.212-2.251-1.388-1.854-4.323 1.825-3.48l1.705-.556a8.686 8.686 0 0 1-5.285-3.966c-1.825-3.193-1.09-6.267.297-10.035a20.992 20.992 0 0 1 3.273-5.652 6.564 6.564 0 1 1 6.673.218 20.496 20.496 0 0 1 3.163 5.424c1.389 3.699 2.102 6.872.298 10.035a8.686 8.686 0 0 1-5.285 3.967l1.705.555c3.669-.843 4.066 2.072 1.825 3.48 2.657.08 5.255.635 6.505 2.212a1.884 1.884 0 0 1-.377 2.608l-2.975 4.412c-.288.486 0 1.09.922 1.805l3.51 2.975h19.981c-7.576-19.991-16.45-37.046-27.953-50.463m87.558 93.012c-.287 2.896-.377 5.662 1.468 8.082.357-3.342.496-6.317-1.468-8.082m-.297 12.693c-.288 2.875-.347 5.652 1.467 8.101.347-3.361.496-6.336-1.467-8.101m7.437 0c-.268 2.875-.337 5.652 1.467 8.101.357-3.361.496-6.336-1.467-8.101m-3.67-5.85c-.287 2.835-.346 5.602 1.468 8.1.397-3.351.516-6.326-1.467-8.1m2.181-6.644c-.287 2.895-.337 5.612 1.468 8.1.367-3.35.496-6.325-1.468-8.1m-89.938-8.032h.03v-.07l-.03.07m.1 0a34.14 34.14 0 0 1 0 5.394h80.378v-5.394h-80.418m-10.372 0h-86.111v5.394h86.448a14.745 14.745 0 0 0-.337-5.394m-89.542 20.526c-1.983 1.775-1.824 4.75-1.468 8.101 1.795-2.469 1.656-5.226 1.468-8.101m-3.768-5.85c-1.983 1.774-1.825 4.749-1.468 8.1 1.825-2.498 1.765-5.265 1.468-8.1m3.47-6.843v.08-.08m0 .1c-1.983 1.774-1.804 4.75-1.457 8.08 1.785-2.478 1.735-5.215 1.458-8.08m-5.553 0v.079l.02-.02-.02-.06m0 .1c-1.984 1.775-1.805 4.75-1.458 8.081 1.795-2.479 1.745-5.206 1.458-8.081m-1.587 12.494c-1.983 1.775-1.824 4.75-1.468 8.101 1.805-2.469 1.756-5.226 1.468-8.101m98.664 26.773-2.915 2.786 3.64 3.798 2.964-2.717-3.689-3.867m-.793-15.767V362.48H436.43l3.362 3.937h5.87v5.523l-8.875 7.249v12.087h7.913l2.876-3.302-2.628-2.469-1.09 1.577h-2.688v-7.318l7.308-6.337m-22.212-2.974-1.358 1.358 2.21 2.241 1.36-1.358-2.212-2.241m-1.686 8.924-7.506-6.892-1.844 1.488 7.258 6.584h10.303v-4.036l-8.21 2.856m7.238-16.956h-11.185v6.217l7.824-3.887 8.686 8.617 2.995-2.152-8.32-8.795m-15.865 4.66.109-4.65h-11.434l-.109-.08v6.05l1.488.098v-4.164h7.645c.992.317 1.09 1.06.446 2.31l-9.49 9.49v4.432h9.689l-4.75-4.115.099-3.163m-8.17 11.74v-23.818h-2.708v25.841h35.291v-2.023h-32.584m49.977-22.608v10.947l2.885-1.408v-5.523h5.86l3.332-4.016h-12.077m8.726 20.526.109 4.115h-2.499l-8.706-8.141-2.231 1.765 10.798 10.828 6.892-.446v-12.782l-4.363 4.66m13.386-12.394-2.22 2.23 1.368 1.37 2.211-2.232-1.359-1.368m9.322 1.983-7.556 6.822-8.22-2.856v4.036h10.302l7.328-6.515-1.854-1.487m-12.99-10.114-15.648 16.242 1.844 1.448 15.42-15.36 7.824 3.887v-6.217h-9.44m25.682 5.95v-6.05l-.208.08h-11.443l.109 4.65 6.326 6.208.1 3.163-4.75 4.115h9.777v-4.432l-9.49-9.49c-.644-1.25-.525-1.983.446-2.31h7.665v4.164m4.443-7.238v23.818H465.95v2.023h35.291V361.23h-2.687m2.677-.1v.06-.06m-94.896 48.49v-18.563h-3.084v23.739h5.504a6.128 6.128 0 0 1-2.42-5.176m-1.686 8.032 4.036 4.284h3.401v-4.284h-7.437m-4.264-1.09v-27.27H398.8l.178 27.765a10.471 10.471 0 0 0 5.682 7.358v7.833h1.587v-8.359a10.838 10.838 0 0 1-5.86-7.328m-5.058.198v-27.943h-24.7v28.39a11.959 11.959 0 0 1-2.103 7.09h29.689a15.786 15.786 0 0 1-2.886-7.537m-29.45 10.809h34.507v7.14h-34.507zm127.817-36.491v18.553a6.128 6.128 0 0 1-2.42 5.176h5.504v-23.729h-3.084m-5.85 26.575v4.293h3.4l4.116-4.293h-7.516m11.8-28.36v27.25a10.908 10.908 0 0 1-5.85 7.357v8.36h1.675v-7.835a10.471 10.471 0 0 0 5.682-7.357l.08-27.765h-1.587m29.847 27.854v-28.36H504.79v27.924a15.945 15.945 0 0 1-2.876 7.536h29.689a11.959 11.959 0 0 1-2.112-7.1m-29.847 10.412h34.557v7.14h-34.557zm37.68 3.173v6.763H495.49l-4.571-4.542-.457-8.002c-6.167.297-9.49-2.211-8.706-8.924h-63.403c.803 6.643-2.548 9.182-8.706 8.864l-.456 8.003-4.561 4.541h-41.896v-6.792l-18.671 13.674h211.905m-237.786 23.7h263.765v13.068H318.182zm244.727-14.677v6.961H337.12v-6.96l-15.677 11.68h257.122l-15.677-11.68m-222.614-6.446h219.54v10.63h-219.54zM453.02 183.139a2.866 2.866 0 0 1-2.866 2.866 2.866 2.866 0 0 1-2.866-2.866 2.866 2.866 0 0 1 2.866-2.865 2.866 2.866 0 0 1 2.866 2.865m15.667 17.314a2.866 2.866 0 0 1-2.866 2.865 2.866 2.866 0 0 1-2.866-2.865 2.866 2.866 0 0 1 2.866-2.866 2.866 2.866 0 0 1 2.866 2.866m-32.029 0a2.866 2.866 0 0 1-2.866 2.865 2.866 2.866 0 0 1-2.865-2.865 2.866 2.866 0 0 1 2.865-2.866 2.866 2.866 0 0 1 2.866 2.866m14.19-.694v-11.077h-1.378v11.077h-10.313v1.378h10.313v11.076h1.378v-11.076h9.857v-1.378h-9.857m-.892-27.884c-13.883 0-25.891 6.326-31.315 15.24v79.12q2.162-2.4 4.363-4.75a3.966 3.966 0 0 1 5.077-4.957c.823-.774 1.666-1.537 2.499-2.28a4.185 4.185 0 0 1 1.19-3.967c-.566-.992-.179-2.787.684-2.975v-2.787a8.518 8.518 0 0 1-1.22-11.998 8.24 8.24 0 0 1 1.983-1.755c-1.23-5.107 5.385-9.49 10.521-7.278l2.5-.526a5.731 5.731 0 0 1-.1-8.121 4.264 4.264 0 0 1 .803-.694v-10.71h-8.33a5.771 5.771 0 1 1 0-6.455h8.34v-9.261a5.761 5.761 0 1 1 8.002-1.537 5.95 5.95 0 0 1-1.537 1.537v9.261h7.774a5.761 5.761 0 1 1 1.537 7.992 5.95 5.95 0 0 1-1.537-1.537h-7.635v10.59h.06a5.751 5.751 0 0 1 1.537 7.934 5.632 5.632 0 0 1-.903 1.04l2.211.457c5.147-2.152 11.76 2.171 10.521 7.278a8.548 8.548 0 0 1 2.49 11.8 8.924 8.924 0 0 1-1.756 1.983v2.787c.853.208 1.25 1.983.684 2.975a4.204 4.204 0 0 1 1.2 3.877q1.31 1.14 2.568 2.33a3.966 3.966 0 0 1 4.958 2.499 3.877 3.877 0 0 1 0 2.469c1.438 1.487 2.866 2.975 4.274 4.571v-79.03c-5.354-8.944-17.353-15.192-31.235-15.192zm-15.569 73.894h31.365v1.973h-31.365zm11.106-18.543a6.406 6.406 0 0 1 9.083 0c-.099-3.768-9.122-3.669-9.122 0m-8.984 2.479 5.662-3.034c-1.706-1.874-6.247-.228-5.662 3.034m-2.182 11.403v-6.435c-2.449.615-3.163 5.394 0 6.435m7.834 1.29v-8.578c-3.253.843-4.195 7.2 0 8.577m15.766-8.626v8.577c4.195-1.378 3.263-7.735 0-8.577m7.834.991v6.436c3.163-1.042 2.45-5.821 0-6.436m-7.834-8.131 5.662 3.034c.566-3.252-3.956-4.898-5.662-3.034M405.73 129.99v2.796h2.975l-2.975-2.796m-5.354 2.796h2.974v-2.796l-2.974 2.796m4.263 66.18v84.623l1.577-2.073v-82.55h-1.577m83.592 72.882a1.815 1.815 0 0 0-1.269-.535 1.844 1.844 0 0 0-1.041.317l2.33 2.816a1.844 1.844 0 0 0-.099-2.578zm-75.163-.595a1.815 1.815 0 0 0-1.299.535 1.844 1.844 0 0 0 0 2.598l2.33-2.816a1.874 1.874 0 0 0-1.09-.396zm-3.47 3.669v2.28l.902-1.12a3.966 3.966 0 0 1-.903-1.16m-15.667-89.393v113.043c1.507-2.103 2.975-4.225 4.492-6.327a3.966 3.966 0 0 1 2.172-7.199 2.677 2.677 0 0 1 .714 0V197.39a1.686 1.686 0 0 1 1.586-1.745h5.077a1.696 1.696 0 0 1 1.587 1.745v73.894a3.837 3.837 0 0 1 .396-.635 3.966 3.966 0 0 1 5.504-.694l.08-.1V185.57h.128-21.617zm95.69 90.484.803.991v-1.983a4.373 4.373 0 0 1-.803.992m-89.145 11.502a1.487 1.487 0 0 0-.744 2.767l1.725-2.39a1.418 1.418 0 0 0-.892-.397m100.152.714a1.487 1.487 0 0 0-1.27-.723 1.418 1.418 0 0 0-.991.376l1.725 2.39a1.487 1.487 0 0 0 .595-2.082zm-48.787-166.49v4.324l3.163-2.46-3.163-1.863m-6.941 1.864 3.163 2.46v-4.324l-3.163 1.864m23.5 36.283 4.066 1.983v-6.337l-4.065 4.354m-41.152-4.354v6.337l4.066-1.983-4.066-4.354m-8.032 19.198v1.586a44.672 44.672 0 0 1 23.402-10.51l-3.61-3.431v-3.69l-14.873-15.32h-5.85v28.122a65.446 65.446 0 0 1 13.882-6.752l.128-1.726-5.612 2.44c-1.517.773-2.34.337-2.47-1.35v-12.89c.348-1.08.992-1.378 2.41-.922l10.313 9.985v4.958a76.76 76.76 0 0 0-17.72 9.5m42.44-32.277-2.26 2.132 4.303 4.452 2.132-2.28-4.174-4.304m5.354-5.78-2.677 2.776 5.672 4.978 2.667-2.737v-5.018H467.1m-34.21 0h-5.662v5.018l2.667 2.737 5.663-4.978-2.668-2.777m9.42 1.031-10.074 9.064 3.252 3.391 10.164-8.954-3.342-3.5m.992-12.267h-8.36v8.479l2.36 2.756 2.866-2.211-1.457-1.884c0-1.19.287-2.172 2.072-1.706l8.657 8.925 4.254-3.739m33.14 148.74h.059a1.587 1.587 0 1 0 1.586 1.587 1.656 1.656 0 0 0-1.646-1.587m-73.577 0h-.059a1.646 1.646 0 0 0-1.517 1.617 1.587 1.587 0 1 0 1.576-1.617m38.276 7.537a1.487 1.487 0 0 1-1.487 1.487 1.487 1.487 0 0 1-1.488-1.487 1.487 1.487 0 0 1 1.488-1.488 1.487 1.487 0 0 1 1.487 1.488zm7.14 5.156a1.487 1.487 0 0 1-1.488 1.487 1.487 1.487 0 0 1-1.487-1.487 1.487 1.487 0 0 1 1.487-1.487 1.487 1.487 0 0 1 1.488 1.487m-15.866-1.487h-.06a1.517 1.517 0 1 0 .06 0m-10.213-34.112a1.656 1.656 0 0 0-1.587 1.587 1.587 1.587 0 1 0 1.587-1.587m34.805-.198v-.06a1.587 1.587 0 1 0 1.586 1.587 1.656 1.656 0 0 0-1.586-1.527m-17.155.793a1.577 1.577 0 1 0 1.616 1.567 1.577 1.577 0 0 0-1.616-1.567m-28.955 21.816a4.333 4.333 0 0 1 1.865 1.457l1.299-2.489a8.28 8.28 0 0 1-3.174.992m-14.17 22.946h6.139l1.586-3.67a13.02 13.02 0 0 1-7.724 3.67m-5.256-11.8v-.367q-4.294 6.048-8.24 12.186h7.03c-1.745-3.48-2.36-6.94 2.053-9.965.763-1.825-.694-1.3-.843-1.854m17.849-2.876a4.294 4.294 0 0 1-3.967-2.638 4.313 4.313 0 0 1-5.95-.922 4.254 4.254 0 0 1-.683-3.659c-1.984 2.519-3.828 5.047-5.682 7.616a3.381 3.381 0 0 1 2.975 1.586c.476.803 1.279.397 1.755-.099l1.586-1.825c1.25-1.358 2.876-1.15 4.125.526.179 1.09-.297 2.36 1.587 2.707a4.363 4.363 0 0 1 3.163-.615l1.27-2.677h-.298zm-1.488-8.924c-2.042-1.379-2.607-4.304-1.755-7.467q-2.756 3.252-5.384 6.564a4.284 4.284 0 0 1 5.84 1.616 3.322 3.322 0 0 1 .238.476 4.274 4.274 0 0 1 1.884-.763 4.056 4.056 0 0 1-.823-.426m10.115-20.427v.02l.02-.02h-.02m.099 1.289a4.185 4.185 0 0 1-.11-.992 1.28 1.28 0 0 1 0-.347c-1.328 1.349-2.627 2.707-3.966 4.085a4.73 4.73 0 0 1 6.238 2.47 4.68 4.68 0 0 1 .396 1.983 198.455 198.455 0 0 1 2.578-4.056 4.294 4.294 0 0 1-5.156-3.173zm5.751-7.636c-.644.615-1.299 1.825-1.983 2.44h.367a4.294 4.294 0 0 1 4.254 3.688c1.279-1.884 2.657-4.303 4.056-6.128h-6.724m6.773 0h.06m16.202 50.374a14.1 14.1 0 0 0-14.497 0h14.527m27.537-4.76 2.043 4.75h6.138a14.19 14.19 0 0 1-8.181-4.75m21.617 4.76q-3.967-6.148-8.24-12.187v.367c-.11.555-1.567 0-.794 1.854 4.413 3.074 3.798 6.485 2.053 9.966h7.03M490.9 285.274a4.284 4.284 0 0 1-6.614 4.64 4.313 4.313 0 0 1-4.036 2.58h-.1l1.27 2.676a4.383 4.383 0 0 1 3.163.615c1.884-.347 1.408-1.616 1.587-2.707 1.25-1.676 2.875-1.884 4.125-.525l1.586 1.824c.476.486 1.28.902 1.756.1a3.381 3.381 0 0 1 2.974-1.587c-1.983-2.48-3.867-5.057-5.85-7.536m-15.231-2.063 1.299 2.489a4.155 4.155 0 0 1 1.834-1.458 8.131 8.131 0 0 1-3.133-1.031m8.032-7.14c.853 3.154.268 6.06-1.775 7.438a4.066 4.066 0 0 1-.823.426 4.274 4.274 0 0 1 1.884.763 4.294 4.294 0 0 1 6.078-2.092q-2.617-3.302-5.364-6.534m-11.9-12.99h.02-.02v.079a4.77 4.77 0 0 1-.178 1.25 4.304 4.304 0 0 1-5.335 2.895c.992 1.438 1.865 2.875 2.767 4.333a4.958 4.958 0 0 1 .377-1.983 4.75 4.75 0 0 1 6.247-2.47c-1.25-1.407-2.549-2.756-3.877-4.104m-12.594-6.446v.06h.08m6.663.04h-6.753c1.409 1.745 2.737 4.204 4.175 6.108a4.294 4.294 0 0 1 4.274-3.897c-.555-.526-1.12-1.666-1.696-2.212m7.437-91.376L467.636 163l.129 1.725a65.178 65.178 0 0 1 13.793 6.743v-28.102h-5.771l-14.874 15.32v3.729l-3.61 3.43a44.672 44.672 0 0 1 23.402 10.462v-1.596a77.077 77.077 0 0 0-17.72-9.49v-4.958l10.263-9.995c1.408-.456 2.053-.159 2.41.922v12.89c-.11 1.706-.932 2.133-2.41 1.36m-9.717-40.022h-7.289l-4.958 3.64 3.719 3.906 1.834-1.586 2.975 3.163-8.379 7.338v18.78a1.834 1.834 0 0 1-3.58 0v-16.767l-5.731 4.839v11.264l7.804 6.852 6.128-6.207-.179-18.196 7.656-6.743v-10.283m-69.71 10.987h21.726v46.14h-21.726zM367.246 361.3l-.03-.06v25.762h28.687V361.3h-28.657m136.841-.099v25.782h28.657V361.22l.03-.02h-28.687m-40.06-78.832c-1.984.377-3.967-1.587-4.512-4.205s.684-5.205 2.677-5.582c1.983-.367 3.966 1.586 4.512 4.204s-.694 5.196-2.678 5.583m-23.401-4.165c-.506 2.628-2.529 4.591-4.512 4.205s-3.193-2.975-2.687-5.553 2.528-4.572 4.511-4.205h-.06c1.974.347 3.253 2.925 2.748 5.553m-29.65-136.147h-12.593a1.408 1.408 0 0 0-1.388 1.428v32a1.408 1.408 0 0 0 1.388 1.427h12.614a1.418 1.418 0 0 0 1.388-1.428v-31.999a1.418 1.418 0 0 0-1.388-1.428zm118.2 241.257h-21.518V364.74h21.517zm-158.36-18.543h21.518v18.572h-21.518zm183.843 84.087H345.332a5.087 5.087 0 0 0 0 6.614h209.327a5.087 5.087 0 0 0 0-6.614m21.319 29.748H324.112a7.457 7.457 0 0 1 0-8.18h251.866c1.2 2.578 1.458 5.741-.02 8.18" fill-rule="evenodd" fill="gold"/></svg>