<svg xmlns="http://www.w3.org/2000/svg" xmlns:xlink="http://www.w3.org/1999/xlink" width="800" height="533.682"><defs><linearGradient id="a"><stop offset="0" stop-color="#00adef"/><stop offset=".562" stop-color="#46c3f3"/><stop offset="1" stop-color="#8cd9f7"/></linearGradient><linearGradient id="b"><stop offset="0" stop-color="#00adef"/><stop offset=".5" stop-color="#46c3f3"/><stop offset="1" stop-color="#8cd9f7"/></linearGradient><linearGradient xlink:href="#a" id="c" gradientUnits="userSpaceOnUse" x1="-347.32" y1="592.963" x2="-295.758" y2="624.076"/><linearGradient xlink:href="#b" id="d" gradientUnits="userSpaceOnUse" x1="-346.487" y1="654.374" x2="-408.371" y2="654.374"/><linearGradient xlink:href="#b" id="e" gradientUnits="userSpaceOnUse" x1="-310.316" y1="663.901" x2="-295.113" y2="673.447"/><linearGradient xlink:href="#a" id="f" gradientUnits="userSpaceOnUse" x1="-347.32" y1="592.963" x2="-295.758" y2="624.076"/><linearGradient xlink:href="#b" id="g" gradientUnits="userSpaceOnUse" x1="-346.487" y1="654.374" x2="-408.371" y2="654.374"/><linearGradient xlink:href="#b" id="h" gradientUnits="userSpaceOnUse" x1="-310.316" y1="663.901" x2="-295.113" y2="673.447"/></defs><path fill="#009bde" d="M0 0h800v533.682H0z"/><path d="M363.397 114.931v6.29h73.541v-6.29h-73.54z" fill="#ccc" stroke="#000" stroke-width="1.2"/><g stroke="#000" stroke-width="1.59" fill="#fff"><path d="M-622.71 1522.938v41.75h264.156v-41.75H-622.71zm27.781-28.513c-8.928 9.52-15.463 19.19-27.75 28.5h264.125c-12.286-9.31-18.821-18.98-27.75-28.5h-208.625zm33.875-568.75v12.5h140.875v-12.5h-140.875zm-22.531 413.719v132.437h185.938v-132.437h-185.938zm-3.594-75.719c-4.432 0-8 3.568-8 8v12.75c0 4.432 3.568 8 8 8h193.125c4.432 0 8-3.568 8-8v-12.75c0-4.432-3.568-8-8-8h-193.125z" transform="matrix(.50328 0 0 .50316 647.085 -279.257)"/><path d="M-564.679 907.019a6.51 6.51 0 0 0-6.531 6.531v9.188a6.51 6.51 0 0 0 6.531 6.53h148.125a6.51 6.51 0 0 0 6.532-6.53v-9.188a6.51 6.51 0 0 0-6.532-6.531h-148.125zm-6-112.594v20.75h160.125v-20.75h-160.125z" transform="matrix(.50328 0 0 .50316 647.085 -279.257)"/><path d="M-579.929 812.675v18.5h178.625v-18.5h-178.625zm25.5 125.531l-16.5 325.47h160.625l-16.5-325.47h-127.625z" transform="matrix(.50328 0 0 .50316 647.085 -279.257)"/><path d="M-579.835 831.05c17.476 24.523 13.15 58.92 26.375 75.969h125.688c13.224-17.049 8.899-51.446 26.375-75.969h-178.438zm-16.094 489.125v22.25h210.625v-22.25h-210.625z" transform="matrix(.50328 0 0 .50316 647.085 -279.257)"/><path transform="matrix(.50328 0 0 .50316 584.148 -240.703)" d="M-289.5 1372.636a7.5 7.5 0 1 1-15 0 7.5 7.5 0 0 1 15 0z"/><path d="M-528.647 1356.563c0 14.754-17.027 30.937-30.938 30.937v45.125c14.25 0 31.125 14.71 31.125 31.125h75.656c0-16.415 16.876-31.125 31.125-31.125V1387.5c-13.91 0-30.937-16.183-30.937-30.938h-76.031z" transform="matrix(.50328 0 0 .50316 647.085 -279.257)"/><path d="M-519.304 1382.281c-2.358 3.503-3.592 6.062-9.281 8.938v32.5c4.746 3.096 6.473 4.2 9.375 9.031h57.156c2.902-4.83 4.63-5.935 9.375-9.031v-32.5c-5.689-2.876-6.922-5.435-9.281-8.938h-57.344z" transform="matrix(.50328 0 0 .50316 647.085 -279.257)"/><path d="M-289.5 1372.636a7.5 7.5 0 1 1-15 0 7.5 7.5 0 0 1 15 0z" transform="matrix(.50328 0 0 .50316 584.148 -285.484)"/><path d="M-438.656 851.51c-.78-6.128-.649-11.373-9.634-17.501-11.06 4.071-17.716 10.55-18.65 22.009" transform="matrix(.50328 0 0 .50316 647.085 -279.257)"/><path d="M-365.574 1183.66c8.31 0 10.174-4.976 11.699-8.309 0 0 3.003 8.309 10.575 8.309 7.572 0 10.175-8.309 10.175-8.309s1.925 8.214 8.75 8.309c6.825.094 9.25-8.309 9.25-8.309s1.186 8.309 8.625 8.309c7.44 0 8.625-8.309 8.625-8.309s.022 8.309 5.497 8.309 6.503-8.371 6.503-8.371" transform="matrix(.50328 0 0 .50316 584.148 -241.315)"/><path d="M-490.628 941.477c6.766 0 8.283 3.48 9.524 5.809 0 0 2.444-5.809 8.608-5.809 6.164 0 8.284 5.809 8.284 5.809s1.567-5.743 7.122-5.809c5.556-.066 7.53 5.809 7.53 5.809s.966-5.809 7.022-5.809 7.02 5.809 7.02 5.809.019-5.809 4.476-5.809c4.456 0 4.635 5.809 4.635 5.809" transform="matrix(.50328 0 0 .50316 647.085 -279.366)"/><path d="M-297.938 1175.351L-310.42 871.12m-4.643 304.231l-9.343-304.232m-8.73 304.232l-6.054-304.232m-14.728 304.232l-2.05-304.232" transform="matrix(.50328 0 0 .50316 584.148 -241.315)"/><path d="M-289.5 1372.636a7.5 7.5 0 1 1-15 0 7.5 7.5 0 0 1 15 0z" transform="matrix(.50328 0 0 .50316 513.689 -240.703)"/><path transform="matrix(.50328 0 0 .50316 513.689 -285.484)" d="M-289.5 1372.636a7.5 7.5 0 1 1-15 0 7.5 7.5 0 0 1 15 0z"/><path transform="matrix(-.50328 0 0 .50316 216.182 -241.315)" d="M-365.574 1183.66c8.31 0 10.174-4.976 11.699-8.309 0 0 3.003 8.309 10.575 8.309 7.572 0 10.175-8.309 10.175-8.309s1.925 8.214 8.75 8.309c6.825.094 9.25-8.309 9.25-8.309s1.186 8.309 8.625 8.309c7.44 0 8.625-8.309 8.625-8.309s.022 8.309 5.497 8.309 6.566-8.309 6.566-8.309"/><path d="M-490.628 941.477c6.766 0 8.283 3.48 9.524 5.809 0 0 2.444-5.809 8.608-5.809 6.164 0 8.284 5.809 8.284 5.809s1.567-5.743 7.122-5.809c5.556-.066 7.53 5.809 7.53 5.809s.966-5.809 7.022-5.809 7.02 5.809 7.02 5.809.019-5.809 4.476-5.809c4.456 0 4.723 5.809 4.723 5.809" transform="matrix(-.50328 0 0 .50316 153.245 -279.366)"/><path transform="matrix(-.50328 0 0 .50316 216.182 -241.315)" d="M-297.938 1175.351L-310.42 871.12m-4.643 304.231l-9.343-304.232m-8.73 304.232l-6.054-304.232m-14.728 304.232l-2.05-304.232"/><path d="M-543.69 851.51c.781-6.128.65-11.373 9.635-17.501 11.06 4.071 17.715 10.55 18.65 22.009" transform="matrix(.50328 0 0 .50316 647.085 -279.257)"/><path d="M-490.616 835.531c-3.368 1.286-20.221 10.579-12.656 25.75.99 1.985-1.533 3.883-3.25 1.438-15.78-22.467-34.821 16.316-8.938 14.312 0 0-.406-5.616 4.656-5.187 4.373.37 5.41 7.431 4.657 10.312-3.554 13.589-22.807 13.341-34.532 4.25-4.945-3.834-9.227-14.27-5.156-17.437 4.436-3.451 6.093 2.208 3.625 4.125 29.059-1.91.82-39.435-10.25-11.125-.888 2.27-2.398 1.016-2.187-.313 5.5-34.658-36.651-20.566-21.313-5.125.842-3.727 10.338-1.427 13.813 13.469 9.26 39.71 52.625 47.477 71.53 20.281 18.907 27.196 62.24 19.43 71.5-20.281 3.475-14.896 12.971-17.196 13.813-13.469 15.339-15.441-26.812-29.533-21.312 5.125.21 1.329-1.3 2.584-2.188.313-11.069-28.31-39.308 9.216-10.25 11.125-2.468-1.917-.81-7.576 3.625-4.125 4.072 3.167-.211 13.603-5.156 17.437-11.725 9.091-30.978 9.339-34.531-4.25-.753-2.88.283-9.942 4.656-10.312 5.063-.43 4.656 5.187 4.656 5.187 25.884 2.004 6.842-36.779-8.937-14.312-1.717 2.445-4.24.547-3.25-1.438 7.565-15.171-9.257-24.464-12.625-25.75zm-100.813 633.644c-5.54 0-10 4.46-10 10v5.25c0 5.54 4.46 10 10 10h201.625c5.54 0 10-4.46 10-10v-5.25c0-5.54-4.46-10-10-10h-201.625zm-17.75-176.75v32.5h237.125v-32.5h-237.125z" transform="matrix(.50328 0 0 .50316 647.085 -279.257)"/></g><path transform="matrix(.52173 0 0 .48412 590.881 -127.81)" d="M-289.697 504.989h-149.829c0-8.285 33.238-16.103 74.659-16.103 41.421 0 75.17 7.818 75.17 16.103z" fill="maroon" stroke="#000" stroke-width=".995"/><g stroke-width=".994" stroke="#000"><path d="M-312.804 632.97c10.56-5.218 23.413-1.177 25.75-6.25 8.196-17.783-14.132-11.471-29.187-20.812-4.63-2.872-10.827-16.972-17.61-21.655-11.066-7.641-22.515-5.198-22.515.655 0 28.81 38.529 54.811 43.562 48.063z" fill="url(#c)" transform="matrix(.50328 0 0 .50316 647.085 -206.62)"/><path d="M-356.454 584.131c1.765 18.885 18.189 21.188 19.915 26.618 3.6 12.222-17.682 27.323-18.324 26.68 1.468-15.597-3.82-39.155-1.591-53.298z" fill="#00adef" transform="matrix(.50328 0 0 .50316 647.085 -206.62)"/><path d="M-428.054 635.72c7.208 34.462 82.487 31.783 89 12 1.757-5.334-.12-11.62 1.018-17.444 1.103-5.644 5.31-10.764 1.482-19.805 2.094 25.676-64.07 45.808-82.5 30.5-3.634-3.634-5.222-3.046-9-5.25z" fill="url(#d)" transform="matrix(.50328 0 0 .50316 647.085 -206.62)"/><path d="M-297.323 654.312c-.17-5.295 8.786-22.758 10.48-28.314-4.998 7.207-22.686.125-26.073 2.014-9.802 6.536 10.119 24.931 15.593 26.3z" fill="#00aeef" transform="matrix(.50328 0 0 .50316 647.085 -206.62)"/><path d="M-291.224 680.917c9.22 9.685 7.626 20.707 6.718 25.102 8.06-7.674 8.29-15.138 7.248-22.628-4.71-33.832-39.864-36.911-36.151-55.33-2.815.432-4.177 5.516-1.678 21.52-5.52 4.818-4.053 12.071.882 17.37 9.091 9.761 21.886 21.601 9.9 42.957 10.461-2.912 12.272-18.817 13.081-28.991z" fill="url(#e)" transform="matrix(.50328 0 0 .50316 647.085 -206.62)"/></g><g stroke-width=".994" stroke="#000"><path d="M-312.804 632.97c10.56-5.218 23.413-1.177 25.75-6.25 8.196-17.783-14.132-11.471-29.187-20.812-4.63-2.872-10.827-16.972-17.61-21.655-11.066-7.641-22.515-5.198-22.515.655 0 28.81 38.529 54.811 43.562 48.063z" fill="url(#f)" transform="matrix(-.50328 0 0 .50316 152.426 -206.62)"/><path d="M-356.454 584.131c1.765 18.885 18.189 21.188 19.915 26.618 3.6 12.222-17.682 27.323-18.324 26.68 1.468-15.597-3.82-39.155-1.591-53.298z" fill="#00adef" transform="matrix(-.50328 0 0 .50316 152.426 -206.62)"/><path d="M-428.054 635.72c7.208 34.462 82.487 31.783 89 12 1.757-5.334-.12-11.62 1.018-17.444 1.103-5.644 5.31-10.764 1.482-19.805 2.094 25.676-64.07 45.808-82.5 30.5-3.634-3.634-5.222-3.046-9-5.25z" fill="url(#g)" transform="matrix(-.50328 0 0 .50316 152.426 -206.62)"/><path d="M-297.323 654.312c-.17-5.295 8.786-22.758 10.48-28.314-4.998 7.207-22.686.125-26.073 2.014-9.802 6.536 10.119 24.931 15.593 26.3z" fill="#00aeef" transform="matrix(-.50328 0 0 .50316 152.426 -206.62)"/><path d="M-291.224 680.917c9.22 9.685 7.626 20.707 6.718 25.102 8.06-7.674 8.29-15.138 7.248-22.628-4.71-33.832-39.864-36.911-36.151-55.33-2.815.432-4.177 5.516-1.678 21.52-5.52 4.818-4.053 12.071.882 17.37 9.091 9.761 21.886 21.601 9.9 42.957 10.461-2.912 12.272-18.817 13.081-28.991z" fill="url(#h)" transform="matrix(-.50328 0 0 .50316 152.426 -206.62)"/></g><path d="M-497.61 382.39l4.595 16.591-16.59-4.596v15.364l16.59-4.596-4.596 16.591h15.364l-4.596-16.59 16.591 4.595v-15.364l-16.59 4.596 4.595-16.59z" fill="#f3cd00" stroke="#000" stroke-width=".994" transform="matrix(.50328 0 0 .50316 647.085 -176.022)"/><path transform="matrix(.53134 0 0 .61565 585.99 -183.74)" d="M-328.451 383.657c0 4.198-2.355 7.602-5.26 7.602-2.904 0-5.258-3.404-5.258-7.602s2.354-7.601 5.259-7.601c2.904 0 5.259 3.403 5.259 7.601z" fill="#9a6105" stroke="#000" stroke-width=".874"/><path d="M-328.451 383.657c0 4.198-2.355 7.602-5.26 7.602-2.904 0-5.258-3.404-5.258-7.602s2.354-7.601 5.259-7.601c2.904 0 5.259 3.403 5.259 7.601z" transform="matrix(.55826 0 0 .74596 603.472 -231.614)" fill="#9a6105" stroke="#000" stroke-width=".775"/><path d="M-328.451 383.657c0 4.198-2.355 7.602-5.26 7.602-2.904 0-5.258-3.404-5.258-7.602s2.354-7.601 5.259-7.601c2.904 0 5.259 3.403 5.259 7.601z" transform="matrix(-.53134 0 0 .61565 214.92 -183.74)" fill="#9a6105" stroke="#000" stroke-width=".874"/><path transform="matrix(-.55826 0 0 .74596 197.348 -231.614)" d="M-328.451 383.657c0 4.198-2.355 7.602-5.26 7.602-2.904 0-5.258-3.404-5.258-7.602s2.354-7.601 5.259-7.601c2.904 0 5.259 3.403 5.259 7.601z" fill="#9a6105" stroke="#000" stroke-width=".775"/><path d="M-351.123 356.875c0 7.616-6.173 13.789-13.788 13.789-7.616 0-13.789-6.173-13.789-13.789 0-7.615 6.173-13.788 13.789-13.788 7.615 0 13.788 6.173 13.788 13.788z" transform="matrix(.50328 0 0 .50316 584.148 -137.455)" fill="#f4c901" stroke="#000" stroke-width=".994"/><path d="M-489.991 419.316c-1.25.01-3.16.131-3.438.688v10.062c-2.983.234-7.99.42-10.062 1.563-.697.384-1.83 5.567.937 4.625 3.876-1.32 8.851-1.438 12.563-1.438 3.711 0 8.687.119 12.562 1.438 2.767.942 1.634-4.24.938-4.625-2.073-1.143-7.08-1.33-10.063-1.563v-10.062c-.278-.557-2.187-.677-3.437-.688z" fill="#c68413" stroke="#000" stroke-width=".994" transform="matrix(.50328 0 0 .50316 647.085 -176.022)"/><path transform="scale(.65915 .26846) rotate(-45 -300.608 -1512.849)" fill="#f3cd00" stroke="#000" stroke-width="1.189" d="M-1008.597 466.697h12.884v12.884h-12.884z"/><path d="M-288.783 426.702c0 25.97-34.064 47.023-76.084 47.023s-76.084-21.053-76.084-47.023c0-25.97 34.064-47.022 76.084-47.022s76.084 21.052 76.084 47.022z" transform="matrix(.50328 0 0 .50316 584.148 -137.636)" fill="#880523" stroke="#000" stroke-width=".994"/><path d="M-373.563 369.625c-3.737.107-7.086.607-6.312 1.875 5.831 9.644 9.261 42.256 9.5 51.5 1.33-.222 4.756-1.885 5.5-3.125.744 1.24 4.17 2.903 5.5 3.125.239-9.244 3.669-41.856 9.5-51.5 1.548-2.535-13.352-2.014-15-1.375-.824-.32-4.95-.607-8.688-.5z" transform="matrix(.50328 0 0 .50316 584.148 -137.97)" fill="#c68413" stroke="#000" stroke-width=".994"/><g stroke-width=".5"><path d="M439.131 103.947c3.71-5.69 9.424-10.627 11.627-15.977 7.917-19.221-4.435-37.46-25.935-36.459-4.855 8.584-18.24 38.888-22.13 43.758 10.223 4.14 38.862 14.568 36.438 8.678z" fill="#d59b11"/><path d="M443.881 88.425l-1.29-4.714 4.004-1.423z" fill="#d0a609"/><path d="M442.413 83.756l1.424 4.714-6.629-3.425z" fill="#ce8a14"/><path d="M440.411 78.908l2.224 4.937 3.96-1.513z" fill="#f2cc00"/><path d="M440.367 78.819l-3.075 6.193 5.328-1.204z" fill="#e9c002"/><path d="M437.96 85.183l-1.641-4.543 3.852-1.954z" fill="#d0a609"/><path d="M436.146 80.708l1.774 4.525-6.825-2.545z" fill="#ce8a14"/><path d="M433.79 76.126l2.583 4.641 3.802-2.037z" fill="#f2cc00"/><path d="M433.739 76.043l-2.563 6.6 5.18-1.91z" fill="#e9c002"/><path d="M431.466 82.531l-1.642-4.429 3.852-2.221z" fill="#d0a609"/><path d="M429.652 78.182l1.774 4.402-6.826-2.072z" fill="#ce8a14"/><path d="M427.295 73.763l2.584 4.463 3.8-2.3z" fill="#f2cc00"/><path d="M427.244 73.684l-2.563 6.778 5.18-2.27z" fill="#e9c002"/><path d="M424.85 80.4l-1.642-4.429 3.852-2.221z" fill="#d0a609"/><path d="M423.035 76.051l1.774 4.403-6.825-2.073z" fill="#ce8a14"/><path d="M420.679 71.632l2.583 4.463 3.802-2.3z" fill="#f2cc00"/><path d="M420.628 71.553l-2.563 6.778 5.18-2.27z" fill="#e9c002"/><path d="M450.183 89.42l-.817-2.276 1.747-.328z" fill="#d0a609"/><path d="M449.379 87.184l.746 2.017-.864 1.615-5.204-2.457z" fill="#ce8a14"/><path d="M446.83 82.306l2.59 4.972 1.886-.695.596-1.64z" fill="#f2cc00"/><path d="M446.779 82.217l-2.64 6.11 5.263-1.086z" fill="#e9c002"/><path d="M447.04 81.666l-1.811-4.54 3.819-1.863z" fill="#d0a609"/><path d="M445.057 77.19L447 81.715l-6.97-2.66z" fill="#ce8a14"/><path d="M442.524 72.597l2.764 4.657 3.764-1.947z" fill="#f2cc00"/><path d="M442.47 72.514l-2.36 6.498 5.159-1.793z" fill="#e9c002"/><path d="M440.328 78.32l-1.641-4.543 3.852-1.955z" fill="#d0a609"/><path d="M438.514 73.845l1.774 4.525-6.825-2.545z" fill="#ce8a14"/><path d="M436.157 69.263l2.584 4.641 3.801-2.037z" fill="#f2cc00"/><path d="M436.106 69.18l-2.563 6.6 5.18-1.91z" fill="#e9c002"/><path d="M433.522 75.535l-1.641-4.43 3.852-2.22z" fill="#d0a609"/><path d="M431.708 71.185l1.774 4.403-6.825-2.072z" fill="#ce8a14"/><path d="M429.351 66.767l2.584 4.462 3.801-2.3z" fill="#f2cc00"/><path d="M429.3 66.687l-2.563 6.778 5.18-2.269z" fill="#e9c002"/><path d="M426.728 73.27l-1.642-4.429 3.852-2.221z" fill="#d0a609"/><path d="M424.914 68.921l1.774 4.403-6.826-2.073z" fill="#ce8a14"/><path d="M422.557 64.502l2.584 4.463 3.8-2.3z" fill="#f2cc00"/><path d="M422.506 64.423l-2.563 6.778 5.18-2.27z" fill="#e9c002"/><path d="M452.511 81.229l.003 1.543-.624 2.089-5.11-2.52z" fill="#ce8a14"/><path d="M449.553 76.288l2.559 4.987.595-.024.452-3.2z" fill="#f2cc00"/><path d="M449.502 76.199l-2.64 6.11 5.263-1.086z" fill="#e9c002"/><path d="M449.318 75.558l-1.29-4.714 4.004-1.423z" fill="#d0a609"/><path d="M447.85 70.888l1.424 4.715-6.629-3.425z" fill="#ce8a14"/><path d="M445.848 66.04l2.225 4.937 3.959-1.512z" fill="#f2cc00"/><path d="M445.804 65.952l-3.074 6.193 5.327-1.204z" fill="#e9c002"/><path d="M442.864 71.827l-1.642-4.543 3.852-1.955z" fill="#d0a609"/><path d="M441.05 67.352l1.773 4.525-6.825-2.545z" fill="#ce8a14"/><path d="M438.693 62.77l2.584 4.641 3.8-2.037z" fill="#f2cc00"/><path d="M438.642 62.687l-2.563 6.6 5.18-1.91z" fill="#e9c002"/><path d="M436.236 68.641l-1.642-4.429 3.852-2.221z" fill="#d0a609"/><path d="M434.421 64.292l1.774 4.402-6.825-2.072z" fill="#ce8a14"/><path d="M432.065 59.873l2.583 4.463 3.802-2.3z" fill="#f2cc00"/><path d="M432.014 59.794l-2.563 6.778 5.18-2.27z" fill="#e9c002"/><path d="M429.486 66.333l-1.642-4.43 3.852-2.22z" fill="#d0a609"/><path d="M427.672 61.983l1.774 4.403-6.826-2.073z" fill="#ce8a14"/><path d="M425.315 57.565l2.584 4.462 3.8-2.3z" fill="#f2cc00"/><path d="M425.264 57.485l-2.563 6.778 5.18-2.27z" fill="#e9c002"/><path d="M453.137 75.095l.013 2.998-3.967-2.156z" fill="#ce8a14"/><path d="M452.06 69.35l-2.795 6.555 3.861-.686c.21-2.713-.424-4.404-1.066-5.87z" fill="#e9c002"/><path d="M450.126 64.367l1.915 5.059-7.042-3.429z" fill="#ce8a14"/><path d="M446.59 59.423l-1.503 6.58 4.939-1.597z" fill="#e9c002"/><path d="M444.945 65.357l-1.776-4.934 3.504-.995z" fill="#d0a609"/><path d="M443.004 60.508l2.04 4.992-6.668-2.807z" fill="#ce8a14"/><path d="M440.602 54.916l2.634 5.628 3.29-1.117z" fill="#f2cc00"/><path d="M440.543 54.905l-2.225 7.78 4.897-2.173z" fill="#e9c002"/><g><path d="M438.683 61.632l-2.018-4.272 3.646-2.545z" fill="#d0a609"/><path d="M436.5 57.455l2.147 4.233-6.979-1.476z" fill="#ce8a14"/><path d="M433.437 52.567l3.293 4.912 3.588-2.62c-2.245-.73-4.044-2.476-6.881-2.292z" fill="#f2cc00"/><path d="M433.49 52.559l-1.746 7.596 4.965-2.707z" fill="#e9c002"/></g><g><path d="M431.882 59.792l-2.1-4.213 3.72-3.103z" fill="#d0a609"/><path d="M429.623 55.683l2.384 4.105-7.051-1.078z" fill="#ce8a14"/><path d="M426.66 51.646l3.194 4.048 3.724-3.33c-2.263-.802-4.6-.637-6.917-.718z" fill="#f2cc00"/><path d="M426.599 51.574l-1.57 7.074 4.803-2.984z" fill="#e9c002"/></g><path d="M-414.948 556.42c7.372-11.305 18.724-21.12 23.102-31.75 15.732-38.202-8.812-74.452-51.533-72.462-8.554 15.13-26.796 70.308-41.292 83.214-1.964 1.75.948 5.408.073 6.503 20.312 8.227 74.465 26.202 69.65 14.496z" fill="none" stroke="#000" stroke-width=".994" transform="matrix(.50328 0 0 .50316 647.966 -176.022)"/></g><g stroke-width=".5"><path d="M361.69 103.947c-3.71-5.69-9.424-10.627-11.628-15.977-7.917-19.221 4.436-37.46 25.936-36.459 4.322 7.642 13.639 33.171 20.48 42.212.765 1.01-.162 2.395.265 2.93-10.223 4.139-37.477 13.184-35.054 7.294z" fill="#d59b11"/><path d="M356.94 88.425l1.29-4.714-4.004-1.423z" fill="#d0a609"/><path d="M358.407 83.756l-1.423 4.714 6.628-3.425z" fill="#ce8a14"/><path d="M360.41 78.908l-2.225 4.937-3.96-1.513z" fill="#f2cc00"/><path d="M360.454 78.819l3.074 6.193-5.328-1.204z" fill="#e9c002"/><path d="M362.86 85.183l1.642-4.543-3.853-1.954z" fill="#d0a609"/><path d="M364.674 80.708l-1.774 4.525 6.825-2.545z" fill="#ce8a14"/><path d="M367.03 76.126l-2.583 4.641-3.801-2.037z" fill="#f2cc00"/><path d="M367.082 76.043l2.563 6.6-5.18-1.91z" fill="#e9c002"/><path d="M369.354 82.531l1.642-4.429-3.852-2.221z" fill="#d0a609"/><path d="M371.169 78.182l-1.774 4.402 6.825-2.072z" fill="#ce8a14"/><path d="M373.526 73.763l-2.584 4.463-3.801-2.3z" fill="#f2cc00"/><path d="M373.576 73.684l2.564 6.778-5.18-2.27z" fill="#e9c002"/><path d="M375.97 80.4l1.643-4.429-3.853-2.221z" fill="#d0a609"/><path d="M377.785 76.051l-1.774 4.403 6.825-2.073z" fill="#ce8a14"/><path d="M380.142 71.632l-2.584 4.463-3.801-2.3z" fill="#f2cc00"/><path d="M380.193 71.553l2.563 6.778-5.18-2.27z" fill="#e9c002"/><path d="M350.637 89.42l.818-2.276-1.747-.328z" fill="#d0a609"/><path d="M351.442 87.184l-.746 2.017.863 1.615 5.205-2.457z" fill="#ce8a14"/><path d="M353.99 82.306l-2.59 4.972-1.885-.695-.597-1.64z" fill="#f2cc00"/><path d="M354.042 82.217l2.64 6.11-5.263-1.086z" fill="#e9c002"/><path d="M353.781 81.666l1.81-4.54-3.818-1.863z" fill="#d0a609"/><path d="M355.764 77.19l-1.943 4.525 6.97-2.66z" fill="#ce8a14"/><path d="M358.296 72.597l-2.763 4.657-3.765-1.947z" fill="#f2cc00"/><path d="M358.35 72.514l2.361 6.498-5.16-1.793z" fill="#e9c002"/><path d="M360.492 78.32l1.642-4.543-3.852-1.955z" fill="#d0a609"/><path d="M362.307 73.845l-1.774 4.525 6.825-2.545z" fill="#ce8a14"/><path d="M364.663 69.263l-2.583 4.641-3.802-2.037z" fill="#f2cc00"/><path d="M364.714 69.18l2.563 6.6-5.18-1.91z" fill="#e9c002"/><path d="M367.298 75.535l1.642-4.43-3.852-2.22z" fill="#d0a609"/><path d="M369.113 71.185l-1.774 4.403 6.825-2.072z" fill="#ce8a14"/><path d="M371.47 66.767l-2.584 4.462-3.802-2.3z" fill="#f2cc00"/><path d="M371.52 66.687l2.563 6.778-5.18-2.269z" fill="#e9c002"/><path d="M374.092 73.27l1.642-4.429-3.852-2.221z" fill="#d0a609"/><path d="M375.907 68.921l-1.774 4.403 6.825-2.073z" fill="#ce8a14"/><path d="M378.263 64.502l-2.583 4.463-3.801-2.3z" fill="#f2cc00"/><path d="M378.314 64.423l2.564 6.778-5.18-2.27z" fill="#e9c002"/><path d="M348.31 81.229l-.004 1.543.624 2.089 5.11-2.52z" fill="#ce8a14"/><path d="M351.267 76.288l-2.558 4.987-.596-.024-.452-3.2z" fill="#f2cc00"/><path d="M351.318 76.199l2.64 6.11-5.263-1.086z" fill="#e9c002"/><path d="M351.502 75.558l1.29-4.714-4.003-1.423z" fill="#d0a609"/><path d="M352.97 70.888l-1.423 4.715 6.628-3.425z" fill="#ce8a14"/><path d="M354.972 66.04l-2.224 4.937-3.96-1.512z" fill="#f2cc00"/><path d="M355.017 65.952l3.074 6.193-5.328-1.204z" fill="#e9c002"/><path d="M357.956 71.827l1.642-4.543-3.852-1.955z" fill="#d0a609"/><path d="M359.77 67.352l-1.773 4.525 6.825-2.545z" fill="#ce8a14"/><path d="M362.128 62.77l-2.584 4.641-3.801-2.037z" fill="#f2cc00"/><path d="M362.178 62.687l2.564 6.6-5.18-1.91z" fill="#e9c002"/><path d="M364.585 68.641l1.641-4.429-3.852-2.221z" fill="#d0a609"/><path d="M366.4 64.292l-1.775 4.402 6.825-2.072z" fill="#ce8a14"/><path d="M368.756 59.873l-2.584 4.463-3.801-2.3z" fill="#f2cc00"/><path d="M368.807 59.794l2.563 6.778-5.18-2.27z" fill="#e9c002"/><path d="M371.334 66.333l1.642-4.43-3.852-2.22z" fill="#d0a609"/><path d="M373.149 61.983l-1.774 4.403 6.825-2.073z" fill="#ce8a14"/><path d="M375.505 57.565l-2.583 4.462-3.801-2.3z" fill="#f2cc00"/><path d="M375.556 57.485l2.564 6.778-5.18-2.27z" fill="#e9c002"/><path d="M347.684 75.095l-.013 2.998 3.967-2.156z" fill="#ce8a14"/><path d="M348.76 69.35l2.796 6.555-3.862-.686c-.21-2.713.425-4.404 1.066-5.87z" fill="#e9c002"/><path d="M350.694 64.367l-1.914 5.059 7.041-3.429z" fill="#ce8a14"/><path d="M354.23 59.423l1.503 6.58-4.939-1.597z" fill="#e9c002"/><path d="M355.875 65.357l1.776-4.934-3.504-.995z" fill="#d0a609"/><path d="M357.816 60.508l-2.039 4.992 6.667-2.807z" fill="#ce8a14"/><path d="M360.218 54.916l-2.634 5.628-3.29-1.117z" fill="#f2cc00"/><path d="M360.277 54.905l2.225 7.78-4.896-2.173z" fill="#e9c002"/><g><path d="M362.138 61.632l2.018-4.272-3.647-2.545z" fill="#d0a609"/><path d="M364.32 57.455l-2.146 4.233 6.978-1.476z" fill="#ce8a14"/><path d="M367.384 52.567l-3.293 4.912-3.589-2.62c2.245-.73 4.045-2.476 6.882-2.292z" fill="#f2cc00"/><path d="M367.33 52.559l1.746 7.596-4.964-2.707z" fill="#e9c002"/></g><g><path d="M368.938 59.792l2.1-4.213-3.719-3.103z" fill="#d0a609"/><path d="M371.197 55.683l-2.384 4.105 7.051-1.078z" fill="#ce8a14"/><path d="M374.16 51.646l-3.194 4.048-3.723-3.33c2.262-.802 4.599-.637 6.917-.718z" fill="#f2cc00"/><path d="M374.221 51.574l1.57 7.074-4.802-2.984z" fill="#e9c002"/></g><path d="M-414.948 556.42c7.372-11.305 18.724-21.12 23.102-31.75 15.732-38.202-8.812-74.452-51.533-72.462-8.6 15.21-24.45 67.002-41.39 84.153-1.742 1.763 1.01 4.514.171 5.564 20.312 8.227 74.466 26.202 69.65 14.496z" fill="none" stroke="#000" stroke-width=".994" transform="matrix(-.50328 0 0 .50316 152.855 -176.022)"/></g><g stroke-width=".994" stroke="#000"><path d="M-538.967 447.511c1.355-3.89 13.203-6.562 19.5 0-14.044 3.55 18.592 84.504 26.208 85.796-.555 2.88-1.664 3.737-3.716 2.913-23.205-9.316-43.768-74.22-41.992-88.709z" fill="#d59b11" transform="matrix(.50328 0 0 .50316 645.952 -176.022)"/><g fill="#fff"><path transform="matrix(-.50328 0 0 .50316 215.165 -137.97)" d="M-338.262 432.801a3.712 3.712 0 1 1-7.425 0 3.712 3.712 0 0 1 7.425 0zm4.154-7.248a4.243 4.243 0 1 1-8.485 0 4.243 4.243 0 0 1 8.485 0z"/><path transform="matrix(-.50328 0 0 .50316 215.165 -137.97)" d="M-330.572 417.421a4.596 4.596 0 1 1-9.193 0 4.596 4.596 0 0 1 9.193 0z"/><path transform="matrix(-.50328 0 0 .50316 215.165 -137.97)" d="M-326.949 408.23a5.038 5.038 0 1 1-10.076 0 5.038 5.038 0 0 1 10.076 0z"/><path transform="matrix(-.50328 0 0 .50316 215.165 -137.97)" d="M-324.208 398.241a5.215 5.215 0 1 1-10.43 0 5.215 5.215 0 0 1 10.43 0z"/><path transform="matrix(-.50328 0 0 .50316 215.165 -137.97)" d="M-320.32 387.104a6.01 6.01 0 1 1-12.02 0 6.01 6.01 0 0 1 12.02 0z"/><path transform="matrix(-.50328 0 0 .50316 215.165 -138.46)" d="M-318.375 375.349a6.806 6.806 0 1 1-13.612 0 6.806 6.806 0 0 1 13.612 0z"/></g><path d="M-495.317 499.115c1.45-17.688-6.877-54.901-11.838-52.566.752-2.22 3.227-3.774 5.917-2.302 1.548.848 10.94 41.055 8.635 54.44-.176 1.022-1.96.153-2.714.428z" fill="#f2cc00" transform="matrix(.50328 0 0 .50316 645.952 -176.022)"/></g><g stroke-width=".994" stroke="#000"><path transform="matrix(.50328 0 0 .50316 585.029 -137.97)" d="M-315.75 371.886c-1.355-3.89-13.203-6.562-19.5 0 14.045 3.55-18.768 84.239-26.384 85.53.555 2.882 1.84 4.003 3.892 3.18 23.205-9.317 43.768-74.221 41.992-88.71z" fill="#d59b11"/><g fill="#fff"><path d="M-338.262 432.801a3.712 3.712 0 1 1-7.425 0 3.712 3.712 0 0 1 7.425 0zm4.154-7.248a4.243 4.243 0 1 1-8.485 0 4.243 4.243 0 0 1 8.485 0z" transform="matrix(.50328 0 0 .50316 585.656 -137.97)"/><path d="M-330.572 417.421a4.596 4.596 0 1 1-9.193 0 4.596 4.596 0 0 1 9.193 0z" transform="matrix(.50328 0 0 .50316 585.656 -137.97)"/><path d="M-326.949 408.23a5.038 5.038 0 1 1-10.076 0 5.038 5.038 0 0 1 10.076 0z" transform="matrix(.50328 0 0 .50316 585.656 -137.97)"/><path d="M-324.208 398.241a5.215 5.215 0 1 1-10.43 0 5.215 5.215 0 0 1 10.43 0z" transform="matrix(.50328 0 0 .50316 585.656 -137.97)"/><path d="M-320.32 387.104a6.01 6.01 0 1 1-12.02 0 6.01 6.01 0 0 1 12.02 0z" transform="matrix(.50328 0 0 .50316 585.656 -137.97)"/><path d="M-318.375 375.349a6.806 6.806 0 1 1-13.612 0 6.806 6.806 0 0 1 13.612 0z" transform="matrix(.50328 0 0 .50316 585.656 -138.46)"/></g><path d="M-484.1 499.115c-1.45-17.688 6.877-54.901 11.838-52.566-.751-2.22-3.227-3.774-5.917-2.302-1.548.848-10.94 41.055-8.635 54.44.176 1.022 1.96.153 2.715.428z" fill="#f2cc00" transform="matrix(.50328 0 0 .50316 647.966 -176.022)"/></g><path d="M-364.906 414.25c-4.509 2.39-3.24 4.603-4.188 7.313-.912-.664-7.26-2.054-8.781 5.75 9.505-.434 6.951 7.879 6.813 8.156-1.929 3.856-9.608.953-7.5-4.906-1.479.063-9.08.425-5.282 8.906-4.225.288-10.746 7.823-.281 9.75-.357 1.07-.76 10.672 6.906 7.437-1.11-1.657-.557-10.101 4.5-7.75 7.823 3.638-.686 13.885-7.781 16.25-7.099 2.162-35.986 1.767-27.938-11.312 3.382-3.382 6.344 3.135 6.344 5.656 0 1.07 6.565-1.084 3.625-8.5 11.055-4.26 3.654-8.938.281-8.938 1.95-4.09-3.397-8.889-7.437-6.593.87.861 1.529 9.626-5.938 5.781-.98-.505-4.056-8.81 3.625-6.844-.291-6.095-2.511-5.482-8.437-5-.638-8.087-12.197-6.247-8.531 2.25-5.796.295-8.281 3.376-5.875 7.719 2.109-.298 7.94-.679 6.344 4.438-1.741 5.576-6.884 1.3-7.72-1.657-4.462-.33-5.464 6.562-3.062 8.5-6.74 3.6-2.69 9.863 3.656 8.281-2.396 5.8 5.181 8.385 6.594 6-2.038-2.574-.712-8.834 3.344-7.718 9.18 2.525-3.594 16.672-9.813 17.844-4.025.758-23.234-1.516-17.312-7.438 2.166-2.166 4.3.126 6.375 3 3.398-2.514 1.832-6.571-2.344-7.281 7.339-2.454 3.137-10.15-2.437-6.656-.773-1.918-2.56-7.302-7.688-5.063.862.759 3.232 7.003-2.375 6.813-1.11-.038-6.448-5.839-.219-7.282-.923-4.414-6.47-2.308-7.218-2.437-.349-1.962-8.344-6.09-10.469 1.687 3.212-1.625 7.304 1.4 8.5 10.531 2.122 16.2 23.769 6.88 24.938 24.375l1.78-.718c18.29-6.65 74.935-13.838 75-13.969.066.13 56.712 7.318 75 13.969l1.75.719c1.17-17.495 22.817-8.177 24.938-24.375 1.196-9.133 5.288-12.157 8.5-10.532-2.125-7.778-10.089-3.65-10.437-1.687-.749.129-6.296-1.977-7.219 2.437 6.23 1.443.892 7.244-.219 7.281-5.606.191-3.236-6.053-2.375-6.812-5.128-2.239-6.915 3.145-7.687 5.063-5.575-3.494-9.808 4.202-2.469 6.656-4.176.71-5.71 4.767-2.313 7.281 2.076-2.874 4.21-5.166 6.375-3 5.923 5.922-13.318 8.196-17.343 7.438-6.22-1.172-18.992-15.319-9.813-17.844 4.056-1.116 5.414 5.144 3.375 7.719 1.413 2.384 8.99-.201 6.594-6 6.347 1.58 10.397-4.681 3.656-8.282 2.403-1.938 1.369-8.83-3.094-8.5-.834 2.957-5.946 7.233-7.687 1.656-1.597-5.116 4.235-4.735 6.344-4.437 2.406-4.343-.08-7.424-5.875-7.719 3.665-8.497-7.894-10.337-8.531-2.25-5.927-.482-8.146-1.095-8.438 5 7.681-1.966 4.605 6.34 3.625 6.844-7.466 3.845-6.84-4.92-5.969-5.781-4.04-2.296-9.388 2.503-7.437 6.594-3.373 0-10.774 4.677.281 8.937-2.94 7.416 3.625 9.57 3.625 8.5 0-2.521 2.993-9.038 6.375-5.656 8.048 13.079-20.839 13.474-27.938 11.312-7.095-2.365-15.603-12.612-7.78-16.25 5.057-2.351 5.609 6.093 4.5 7.75 7.666 3.235 7.262-6.367 6.906-7.437 10.465-1.927 3.912-9.462-.313-9.75 3.8-8.481-3.772-8.843-5.25-8.906 2.107 5.86-5.603 8.762-7.531 4.906-.139-.277-2.693-8.59 6.812-8.156-1.521-7.804-7.837-6.414-8.75-5.75-.948-2.71.321-4.923-4.187-7.313z" transform="matrix(.50328 0 0 .50316 584.148 -137.97)" fill="#f3cd00" stroke="#000" stroke-width=".994"/><g stroke-width=".5" fill="#f2cc00" stroke="#000"><g stroke-width=".994"><path d="M-489.96 567.719c-39.804 0-66.129 8.4-76.062 14.062-3.31 7.23-1.696 19.412-.282 21.75 7.248-1.462 21.652-13.718 76.344-13.718 54.692 0 69.065 12.256 76.313 13.718 1.414-2.338 3.029-14.52-.282-21.75-9.933-5.662-36.227-14.062-76.03-14.062z" transform="matrix(.50328 0 0 .50316 647.085 -187.454)"/><path d="M-489.96 588.25c-54.657 0-85.64 16.813-77.844 16.813 7.797 0 23.152-12.75 77.844-12.75 54.692 0 70.016 12.75 77.813 12.75 7.796 0-23.156-16.813-77.813-16.813zm0-22.25c-54.657 0-85.64 16.813-77.844 16.813 7.797 0 23.152-12.75 77.844-12.75 54.692 0 70.016 12.75 77.813 12.75 7.796 0-23.156-16.813-77.813-16.813z" transform="matrix(.50328 0 0 .50316 647.085 -187.454)"/></g><path transform="matrix(.50328 0 0 .50316 584.148 -137.97)" d="M-301.935 489.635a3.536 3.536 0 1 1-7.07 0 3.536 3.536 0 0 1 7.07 0z" stroke-width=".994"/><path d="M-301.935 489.635a3.536 3.536 0 1 1-7.07 0 3.536 3.536 0 0 1 7.07 0z" transform="matrix(.50328 0 0 .50316 564.575 -141.707)" stroke-width=".994"/><path transform="matrix(.50328 0 0 .50316 584.148 -137.97)" d="M-299.938 492.324s14.714 10.3 14.688 6.562l-.063-9.125c-.016-2.387-9.363 1.441-14.625 2.563z" stroke-width=".994"/><path transform="matrix(.48696 -.1271 .4178 .28053 647.085 -176.022)" stroke-width="1.148" d="M-963.348 565.023h13.766v13.766h-13.766z"/><path d="M-301.935 489.635a3.536 3.536 0 1 1-7.07 0 3.536 3.536 0 0 1 7.07 0z" transform="matrix(-.50328 0 0 .50316 216.21 -137.97)" stroke-width=".994"/><path transform="matrix(-.50328 0 0 .50316 235.783 -141.707)" d="M-301.935 489.635a3.536 3.536 0 1 1-7.07 0 3.536 3.536 0 0 1 7.07 0z" stroke-width=".994"/><path d="M-299.938 492.324s14.714 10.3 14.688 6.562l-.063-9.125c-.016-2.387-9.363 1.441-14.625 2.563z" transform="matrix(-.50328 0 0 .50316 216.21 -137.97)" stroke-width=".994"/><path transform="matrix(-.48696 -.1271 -.4178 .28053 153.274 -176.022)" stroke-width="1.148" d="M-963.348 565.023h13.766v13.766h-13.766z"/></g><g stroke-width=".994" fill="#fff" stroke="#000"><path transform="matrix(.388 .32046 -.32054 .38791 702.9 2.576)" d="M-266.58 465.063c0 3.71-1.503 6.717-3.358 6.717-1.855 0-3.359-3.007-3.359-6.717 0-3.71 1.504-6.718 3.359-6.718s3.359 3.008 3.359 6.718z"/><path transform="matrix(.49713 .0784 -.07842 .49701 617.525 -110.665)" d="M-308.652 449.86c0 3.808-1.979 6.894-4.42 6.894-2.44 0-4.419-3.086-4.419-6.894 0-3.808 1.979-6.894 4.42-6.894 2.44 0 4.419 3.086 4.419 6.894z"/><path d="M-266.58 465.063c0 3.71-1.503 6.717-3.358 6.717-1.855 0-3.359-3.007-3.359-6.717 0-3.71 1.504-6.718 3.359-6.718s3.359 3.008 3.359 6.718z" transform="matrix(-.388 .32046 .32054 .38791 97.767 2.576)"/><path d="M-308.652 449.86c0 3.808-1.979 6.894-4.42 6.894-2.44 0-4.419-3.086-4.419-6.894 0-3.808 1.979-6.894 4.42-6.894 2.44 0 4.419 3.086 4.419 6.894z" transform="matrix(-.49713 .0784 .07841 .49702 183.168 -110.663)"/><path d="M-360.36 442.7c0 4.029-2.018 7.294-4.507 7.294-2.49 0-4.508-3.265-4.508-7.294 0-4.028 2.018-7.293 4.508-7.293s4.508 3.265 4.508 7.293z" transform="matrix(.50328 0 0 .50316 584.148 -137.97)"/></g><path transform="scale(.65692 .27387) rotate(-45 -738.337 -1698.877)" fill="#f2cc00" stroke="#000" stroke-width="1.179" d="M-1261.622 717.342h13.47v13.47h-13.47z"/></svg>