<svg xmlns="http://www.w3.org/2000/svg" xmlns:xlink="http://www.w3.org/1999/xlink" width="1200" height="800" viewBox="0 0 450 300"><defs><path id="a" stroke="#e8112d" stroke-width="6" stroke-linecap="square" fill="none" d="M0 290h39v-10H26v-10h37v10H50v10"/></defs><path fill="#0051BA" d="M0 0h450v262.5H0z"/><path fill="#fff" d="M0 262.5h450V300H0z"/><use x="-19.5" xlink:href="#a"/><use x="30.5" xlink:href="#a"/><use x="80.5" xlink:href="#a"/><use x="130.5" xlink:href="#a"/><use x="180.5" xlink:href="#a"/><use x="230.5" xlink:href="#a"/><use x="280.5" xlink:href="#a"/><use x="330.5" xlink:href="#a"/><use x="380.5" xlink:href="#a"/><use x="430.5" xlink:href="#a"/><circle fill="gold" cx="225" cy="125" r="70"/><circle fill="gold" cx="225" cy="215" r="8"/><circle fill="gold" cx="225" cy="35" r="8"/><circle fill="gold" cx="315" cy="125" r="8"/><circle fill="gold" cx="135" cy="125" r="8"/><path id="b" fill="#fff" d="M230 128.5l-16 2c0-10-13-21-22.5-15C182 121 187 136 195 133c-4-3-3-10 3-10 2 0 11 2 7 14-5 12-31.5 8-29-15s36-20 50-9l4 16z"/><use transform="rotate(120 225 125)" xlink:href="#b"/><use transform="rotate(240 225 125)" xlink:href="#b"/></svg>