<svg height="900" width="1350" xmlns="http://www.w3.org/2000/svg"><path fill="#fff" d="M0 0h1350v900H0z"/><path d="M60.123 61.704l.012.168v314.076c0 15.585 12.63 28.216 28.216 28.216h90.412c15.585 0 28.216 12.63 28.216 28.216 0-15.585 12.63-28.216 28.215-28.216h90.413c15.585 0 28.216-12.63 28.216-28.216V61.764l.012-.06H60.123z" fill="red"/><path d="M353.137 93.257c-4.166.443-8.48 1.068-12.138 3.221-2.544 1.47-4.434 3.917-5.328 6.7-.097.418-.589 1.148 0 1.384l-.993.674c-.187-.471-.856-.064-1.237-.074-3.494.55-6.972 2.012-9.272 4.79-2.875 3.439-3.665 8.14-3.38 12.505a34.07 34.07 0 0 0 1.53 8.084c-.34-.183-.727-.288-1.003-.184.281.043.373.06.453.073-.219-.024-.627-.075-.662-.073-2.903.113-5.983.233-8.488 1.886-1.388.834-2.454 2.089-3.258 3.479-.845.895-.926 2.226-1.225 3.368-.242.868-.28 1.94-1.029 2.548-.31.138-.01-.627-.085-.846.072-.655-.038-1.548-.796-1.727-.719-.124-1.391.333-2.095.417-2.907.68-4.943 3.3-5.72 6.075-.36 1.018-.393 2.123-.637 3.16-.596 1.566-2.274 2.272-3.368 3.417-1.242 1.177-1.933 2.853-2.192 4.52-.204 2.644 1.117 5.138 2.608 7.226.222.338.508.645.674 1.005-.266.394-.642-.13-.784-.368-.413-.642-1.069-1.49-1.947-1.151-1.122.493-1.658 1.732-2.352 2.67-1.153 1.866-2.482 3.698-2.964 5.88-.93 3.181-.765 6.612.257 9.749.598 2.02 1.634 3.855 2.78 5.61.6 1.488 2.258 2.124 3.038 3.466.079.167.143.584 0 .637-1.058-.838-1.966-1.894-3.037-2.707-.589.121-.147 1.092-.258 1.568.082 4.113.853 8.504 3.638 11.697 2.664 3.05 6.784 4.276 10.705 4.41.262.01.33.092.294.208a57.74 57.74 0 0 1-3.025-.123l-.086.037c-1.724 3.364-2.928 7.22-2.18 11.023.643 3.446 2.344 6.62 4.421 9.395.377.456 1.115.514 1.642.343.252-.252.083-.702.416-.931 1.184-1.127 2.819-1.596 4.3-2.217 1.653-.671 3.39-1.14 4.997-1.91.154-.127.186-.287.171-.454.484.899 1.01 1.803 1.47 2.89.185.467.48 1 .71 1.372-.59.3-.967.9-1.298 1.458-.59.988-.467 2.172-.416 3.27.378 2.314 1.622 4.377 2.878 6.32.899 1.413 1.986 2.688 2.964 4.042.1.169.223.338.282.527-.521-.393-.907-.965-1.47-1.286-1.012.41-1.533 1.47-1.886 2.437-.335.47-.153 1.115-.172 1.654.414 4.432 2.242 8.708 5.095 12.113.888.975 1.815 2.07 3.124 2.462.358.149.85-.119 1.04.319 1.668 1.957 3.04 4.175 4.912 5.952.612.57 1.47.77 2.266.87.293.116.483.416.772.527.237 1.043.48 2.11.625 3.16-.672.61-.92 1.525-1.397 2.278-.887 1.687-2.315 3.003-3.294 4.63-.256.472-.491.974-.686 1.494-.746-.234-1.586-.165-2.364-.184-2.769.035-5 1.918-7.447 2.965-2.153.972-4.61.46-6.896.38-2.9-.232-5.818-.365-8.72-.344-2.104 1.653-4.364 3.265-6.933 4.128-.747.27-1.605.27-2.328.6-.018.636.491 1.196.686 1.8 1.052 2.176 2.215 4.35 3.736 6.223.788.92 1.938 1.407 2.842 2.205.955.737 1.967 1.46 2.866 2.229-.282.406-.838-.03-1.176-.135-.875-.344-1.633-1.088-2.597-1.151-.672.163-.337 1.06-.428 1.555-.072 2.447.394 4.939 1.653 7.055 1.383 2.623 3.892 4.329 6.222 6.039.248.237.764.49.809.808-.345.053-.928-.136-.992.38-.02.829.588 1.531.943 2.241 1.116 1.922 2.534 3.779 4.568 4.79 1.914 1.034 4.019 1.445 6.161 1.628-.405.109-.816.222-1.225.233a6.21 6.21 0 0 0-.771.061l-.012.012c-.194 1.216-.265 2.486-.49 3.712-.371 2.706-1.05 5.5-.319 8.206.85 3.71 3.54 6.588 6.222 9.125.74.795 1.9 1.09 2.499 2.009.078.192-.028.399-.22.183-.75-.41-1.403-1.064-2.217-1.347-.557.128-.297.867-.196 1.25 1.034 4.351 2.797 8.607 5.622 12.113a29.724 29.724 0 0 0 8.01 6.786c4.428 2.86 9.655 5.088 14.85 6.078.273-.502-.052-.898.044-1.29.25-92.82.012-196.465 0-275.023-.036-.174-.13-.253-.306-.27z" fill="silver"/><path d="M196.02 136.022c1.979 5.418 3.955 10.836 5.934 16.253l-13.652-4.998v21.935l13.652-4.987c-1.979 5.418-3.955 10.836-5.933 16.254h21.935c-1.982-5.418-3.965-10.835-5.946-16.254l13.653 4.987v-21.935l-13.653 4.998c1.981-5.418 3.964-10.835 5.946-16.253H196.02z" stroke="#000" fill="gold" stroke-width=".959"/><path d="M215.183 158.25a8.2 8.2 0 1 1-16.402 0 8.2 8.2 0 1 1 16.402 0z" stroke="#000" fill="gold" stroke-width=".959" stroke-linecap="square"/><path d="M211.406 158.251a4.423 4.423 0 1 1-8.847 0 4.423 4.423 0 1 1 8.847 0z" stroke="#000" fill="gold" stroke-width=".959" stroke-linecap="square"/><path d="M231.727 272.465l11.25-13.717c1.961.844 3.42 2.15 3.754 4.487l-11.249 13.717c-2.181-.643-3.354-2.21-3.755-4.487z" stroke="#000" stroke-linejoin="round" fill="gold" stroke-width=".522" stroke-linecap="square"/><path d="M539.286 1245.934a137.143 137.143 0 1 1-274.286 0 137.143 137.143 0 1 1 274.286 0z" transform="matrix(.35959 0 0 .36458 62.376 -225.01)" stroke="#000" stroke-linejoin="round" fill="gold" stroke-width="3.284" stroke-linecap="square"/><path d="M225.264 185.866l-.036 1.2c15.998 7.121 27.166 23.317 27.166 42.171 0 25.435-20.318 46.042-45.404 46.042-17.25 0-32.243-9.747-39.93-24.105l-1.176.16c7.819 14.906 23.299 25.06 41.106 25.06 25.68 0 46.507-21.119 46.507-47.157 0-19.46-11.632-36.17-28.233-43.37zm-.11 3.479l-.024 1.127c14.293 6.884 24.165 21.65 24.165 38.765 0 23.698-18.932 42.894-42.305 42.894-15.647 0-29.302-8.6-36.623-21.398l-1.102.147c7.451 13.309 21.559 22.292 37.725 22.292 23.927 0 43.334-19.675 43.334-43.935 0-17.682-10.313-32.924-25.17-39.892zm-.049 1.825l-.037 1.102c13.4 6.75 22.61 20.762 22.61 36.965 0 22.792-18.208 41.253-40.688 41.253-14.807 0-27.764-8.008-34.883-19.99l-1.066.148c7.25 12.473 20.642 20.846 35.949 20.846 23.013 0 41.669-18.924 41.669-42.257 0-16.75-9.612-31.232-23.554-38.067zm-.086 2.78l-.036 1.041c12.062 6.528 20.27 19.41 20.27 34.246 0 21.433-17.124 38.803-38.263 38.803-13.546 0-25.438-7.133-32.238-17.895l-1.004.135c6.93 11.221 19.226 18.691 33.242 18.691 21.64 0 39.182-17.792 39.182-39.734 0-15.348-8.583-28.668-21.153-35.287zm-.073 2.34l-.025 1.004c10.938 6.325 18.312 18.259 18.312 31.943 0 20.3-16.221 36.745-36.243 36.745-12.489 0-23.504-6.39-30.02-16.13l-.968.122c6.647 10.182 18.048 16.903 30.988 16.903 20.497 0 37.112-16.858 37.112-37.64 0-14.176-7.732-26.53-19.156-32.948zm-.098 3.196l-.025.931c9.44 6.018 15.715 16.677 15.715 28.82 0 18.79-15.015 34.014-33.548 34.014-11.07 0-20.886-5.426-26.995-13.804l-.907.123c6.242 8.781 16.415 14.502 27.902 14.502 18.972 0 34.356-15.599 34.356-34.835 0-12.6-6.61-23.633-16.498-29.75zm-.123 4.103l-.024.882c7.549 5.56 12.456 14.579 12.456 24.766 0 16.903-13.496 30.597-30.167 30.597-9.273 0-17.566-4.245-23.1-10.914l-.858.123c5.67 7.035 14.302 11.538 23.958 11.538 17.066 0 30.902-14.04 30.902-31.344a31.422 31.422 0 0 0-13.167-25.648zm-.134 4.471l-.025.845c5.572 4.956 9.088 12.224 9.088 20.332 0 14.94-11.93 27.045-26.664 27.045-7.368 0-14.036-3.032-18.863-7.925l-.808.11c4.97 5.22 11.953 8.464 19.67 8.464 15.085 0 27.315-12.4 27.315-27.694a27.802 27.802 0 0 0-9.713-21.177zm-.135 4.103l-.025.809a24.142 24.142 0 0 1 6.26 16.265c0 13.279-10.605 24.032-23.701 24.032a23.436 23.436 0 0 1-15.017-5.426l-.771.098c4.246 3.685 9.763 5.916 15.788 5.916 13.407 0 24.276-11.026 24.276-24.62 0-6.634-2.6-12.646-6.81-17.074zm-.147 5.096l-.025.881a20.883 20.883 0 0 1 3.173 11.097c0 11.467-9.158 20.761-20.467 20.761a20.182 20.182 0 0 1-10.252-2.792l-.796.098a20.68 20.68 0 0 0 11.048 3.197c11.577 0 20.957-9.526 20.957-21.264a21.35 21.35 0 0 0-3.638-11.978z" font-family="Sans"/><path d="M206.979 179.241c-3.034 0-6 .272-8.882.804l-.707 30.157c-17.973 1.026-32.668 4.887-38.92 9.985a50.935 50.935 0 0 0-.803 9.05c0 4.926.704 9.683 2.014 14.179 6.322-6.383 25.106-11.015 47.298-11.015 22.19 0 40.974 4.633 47.298 11.015a50.905 50.905 0 0 0 1.223-23.217l-.013-.012c-6.251-5.096-20.941-8.946-38.907-9.973l-.707-30.157a49.003 49.003 0 0 0-8.894-.815z" stroke="#000" stroke-linejoin="round" fill="gold" stroke-width=".76" stroke-linecap="square"/><path d="M243.515 288.764c-2.711.703-5.313 1.828-7.961 2.752-.37.289-1.4.185-1.31.831 1.643 4.058 3.596 8.128 6.685 11.295 1.228 1.185 2.896 2.43 4.705 1.865 3.225-.748 6.13-2.462 8.802-4.375-.043-.743-.257-1.783-1.156-1.961-1.514-.766-2.51-2.3-2.91-3.921-.607-.657-1.636-.783-2.21-1.546-.889-.802-1.135-2.003-1.652-3.009-.802-.592-1.741-.997-2.423-1.764a.768.768 0 0 0-.57-.167zm37.055-53.942c-2.337.124-4.932.415-6.64 2.174-6.018 5.019-13.099 8.47-20.12 11.85-.505.22-1.173.914-.855 1.472 1.808.596 3.639 1.313 5.539 1.546.798-.082 1.707-.058 2.414-.428.016-1.044-.394-2.065-.5-3.095.832.357 1.603 1.03 2.442 1.23.54-1.1.994-2.291 1.5-3.426.559.305 1.12 1.62 1.696 1.292 1.14-1.823 3.154-3.159 4.858-4.178-1.167 2.322-3.317 4.431-3.283 7.196.07.55.09 1.201.385 1.653 1.52-.186 2.715 1.03 3.789 1.836-1.425 1.39-2.599 3.126-2.864 5.14-.41 3.392.691 6.724 1.233 10.04-2.95 3.246-6.126 6.276-9.131 9.47.232.76.663 1.525.881 2.306.761.683 1.782 1.07 2.423 1.914.753.73.992 1.767 1.426 2.671.377.337.93.74 1.438.672 1.594-2.124 2.685-4.587 3.905-6.94 4.273-8.812 7.263-18.215 9.319-27.781.205-.691-.655-.313-.95-.172-.791.225-1.535.936-2.38.818-.571-.566.454-1.11.72-1.566 2.635-2.904 5.288-6.162 5.77-10.196.183-1.71.332-3.86-1.088-5.096-.537-.42-1.272-.432-1.927-.402z" fill="gold"/><path d="M244.208 288.796c-1.043 1.486-3.11 2.623-2.41 4.71.704-.33 1.353-.745 2.302-.707.11 1.383-.205 2.584-.54 3.776.567.328 1.943-1.253 3.465-2.9l1.055-.264c-.686-.778-1.118-1.786-1.33-2.997-1.088-.32-1.926-.865-2.542-1.618z"/><path d="M315.918 222.821c-2.718 1.082-6.376 2.066-8.89 3.574-.383.18-.788.71-.264.995.117.411-.2.887-.683.66-2.296-.065-4.748-.382-6.856.743-1.689.749-3.054 2.13-3.98 3.692.212.275-.282.747-.814 1.222-.476-.185-.955-.372-1.439-.54-2.607.546-4.866 1.954-6.952 3.56-1.028.383-.47 1.554-.707 2.374-.707 3.974-2.986 7.488-5.418 10.608-.349.393.286.428.504.192.424-.157.942-.536 1.318-.54-2.389 11.685-6.054 23.206-11.698 33.742-.623 1.33-1.625 2.518-2.122 3.895.351.595 1.119-.247 1.57-.312 2.235-.97 4.417-2.127 6.665-3.02 5.477-.123 10.93.538 16.337 1.342 3.599.405 7.345-.492 10.248-2.673.973-.69 1.924-1.426 2.889-2.097.51-1.63 1.892-.384 1.81-.06.29.411 1.066.092 1.522.216 3.469.083 6.934.638 10.404.455 2.154-.45 3.991-1.843 6.005-2.673 1.84-.981 3.975-.703 5.981-.743.49-1 .99-1.845 1.549-2.85 1.255-1.076 3.093-3.97 3.264-6.651.066-.802-1.591-.18-2.02-.7-2.851-2.15-5.108-5.07-6.568-8.318-.807-.355-2.326-.956-3.144-1.959-3.158-3.355-5.087-8.266-5.822-12.832-.137-1.244-.316-3.02.97-3.728.35-.25 1.06-.009 1.2-.407-1.868-2.817-4.208-5.45-5.119-8.762-.432-1.676-.06-3.548 1.139-4.807.882-.29.048-1.425-.162-2.075-.364-.356-.116-1.481-.717-1.523z" fill="gold"/><path d="M261.768 308.364l11.25-13.717c1.961.844 3.42 2.15 3.754 4.487l-11.249 13.717c-2.181-.643-3.354-2.21-3.755-4.487z" stroke="#000" stroke-linejoin="round" fill="gold" stroke-width=".522" stroke-linecap="square"/><path d="M277.182 318.665a9.743 9.743 0 1 1-19.485 0 9.743 9.743 0 1 1 19.485 0z" stroke="#000" stroke-linejoin="round" fill="gold" stroke-width=".539" stroke-linecap="square"/><path d="M267.435 311.123a6.54 6.54 0 0 0-.629.033c3.516.352 6.275 3.58 6.275 7.51 0 3.932-2.758 7.159-6.275 7.51.207.021.416.034.629.034 3.816 0 6.915-3.377 6.915-7.544 0-4.166-3.1-7.543-6.915-7.543z"/><path d="M293.746 322.249a9.743 9.743 0 1 1-19.486 0 9.743 9.743 0 1 1 19.486 0z" stroke="#000" stroke-linejoin="round" fill="gold" stroke-width=".539" stroke-linecap="square"/><path d="M283.998 314.706c-.212 0-.42.014-.628.034 3.516.352 6.275 3.58 6.275 7.51 0 3.932-2.759 7.159-6.275 7.51.207.021.416.034.628.034 3.816 0 6.916-3.377 6.916-7.544 0-4.166-3.1-7.543-6.916-7.543z"/><path d="M292.293 302.682a9.743 9.743 0 1 1-19.486 0 9.743 9.743 0 1 1 19.486 0z" stroke="#000" stroke-linejoin="round" fill="gold" stroke-width=".539" stroke-linecap="square"/><path d="M282.545 295.14c-.212 0-.42.013-.628.034 3.516.352 6.275 3.579 6.275 7.51 0 3.932-2.759 7.158-6.275 7.51.207.02.416.034.628.034 3.816 0 6.916-3.377 6.916-7.544s-3.1-7.544-6.916-7.544z"/><path d="M285.3 310.235a10.402 10.402 0 1 1-20.806 0 10.402 10.402 0 1 1 20.805 0z" stroke="#000" stroke-linejoin="round" fill="gold" stroke-width=".575" stroke-linecap="square"/><path d="M274.893 302.185c-.227 0-.45.014-.671.036 3.754.376 6.7 3.821 6.7 8.019 0 4.197-2.945 7.643-6.7 8.018.221.022.444.036.671.036 4.074 0 7.383-3.605 7.383-8.054 0-4.45-3.309-8.055-7.383-8.055z"/><path d="M191.313 283.163c-1.403-.006-2.937.654-4.411 2.337-.33.376-.605.776-.827 1.186-3.339 6.158 4.935 15.607 12.034 11.136l10.8-6.796c-.622.041-1.247.077-1.87.083-1.665.072-3.41-.185-4.807-1.15-.699-.568-1.4-1.142-2.085-1.726l-5.023 3.428c3.413-2.462.397-8.481-3.811-8.498z" stroke="#000" fill="gold" stroke-width=".812" stroke-linecap="square"/><path d="M191.313 283.163c-1.403-.006-2.937.654-4.411 2.337a6.896 6.896 0 0 0-.384.491c-1.658 5.764 4.513 13.175 11.423 8.954l6.593-4.027c-.82-.176-1.603-.477-2.302-.96-.699-.567-1.4-1.141-2.085-1.725l-5.023 3.428c3.413-2.462.397-8.481-3.811-8.498z" stroke="#000" fill="gold" stroke-width=".726" stroke-linecap="square"/><path d="M188.501 290.446c-1.524-5.031 2.662-4.81 4.246-4.28" stroke="#000" fill="none" stroke-width=".812" stroke-linecap="square"/><path d="M197.581 246.197a2.42 2.42 0 0 0-.36.012c-.582-.007-1.686.546-1.138 1.246 1.267 1.549 2.324 3.83 1.355 5.754-.634 1.221-2.086 1.49-3.333 1.498-.703.204-.145 1.105-.167 1.594.991 5.485 1.939 11.074 4.243 16.17 1.438 2.525 3.071 4.994 4.962 7.191-.07.232.375.521.48.731 2.906 3.478 5.958 6.859 9.397 9.817.789.601 1.56 1.452 2.637 1.415 4.94.257 9.851.898 14.79 1.15 1.223-.022 2.334-.647 3.477-1.019 3.161-1.203 6.29-2.482 9.517-3.488.307-.254-.098-.637-.144-.935-.222-.44-.186-1.029-.551-1.39-.85-.316-1.644-.791-2.23-1.498-.767-.772-1.045-1.864-1.39-2.853-.253-.316-.73-.294-1.043-.54-.981-.52-1.731-1.395-2.157-2.42-.29-.497-.325-1.085-.588-1.583-.541-.31-1.173-.467-1.642-.899-.93-.713-1.546-1.757-1.882-2.864-.037-.107-.147-.186-.263-.156-.8.33-1.536.834-2.326 1.198-.439.28-.995.418-1.354.791.123.547.52 1 .755 1.51.485.789.801 1.692 1.378 2.422.397.304.947.258 1.379.503-1.097-.053-2.367-.597-2.721-1.726-.12-.847-.54-1.634-.911-2.397-.042-.104-.1-.164-.168-.192.068-.325-.289-.635-.407-.923-1.016-1.647-2.405-3.187-4.303-3.787a7.457 7.457 0 0 0-1.091-.276c1.35-1.301 1.656-3.287 1.57-5.082-.06-1.779-.3-3.555-.84-5.25-.361-1.045-1.114-1.874-1.845-2.673.418-1.95.821-4.052.048-5.97-.554-1.386-1.56-2.627-2.84-3.403-.995-.54-2.172-.535-3.273-.54-.748.04-1.587.057-2.217.492-.258.344.259.522.527.491.28-.005.58 0 .875.036l-.3.264c-.433.047-.912.05-1.306.24-.058 1.414.03 2.844.036 4.267.067.546-.08 1.17.203 1.666.453.618 1.34.298 1.774-.168.983-1.012 1.616-2.41 1.69-3.824.018-.83-.304-1.859-1.222-2.061-.117-.035-.161-.12-.18-.228.51.16.96.436 1.247.923.517.964.409 2.166.048 3.176-.52 1.406-1.587 2.812-3.14 3.093-.487-.038-.46.455-.42.803.035 5.212.398 10.491 1.93 15.498.705 2.26 1.55 4.497 2.744 6.545a.402.402 0 0 0 .18.167c-.12.264.335.6.42.863.736 1.19 1.623 2.27 2.385 3.44-1.09-.95-2.031-2.113-2.637-3.44-.201-.255-.259-.719-.575-.839-.114-.664-.688-1.309-.983-1.941-1.205-2.096-2.982-4.277-5.574-4.483-.518-.343-.244-1.45-.455-2.098-.355-3.487-1.412-6.82-2.625-10.092a4.76 4.76 0 0 0-1.93-3.045c-.657-.692-1.736-1.203-1.93-2.205.061-.71.805-1.255.491-2.026-.463-2.77-2.455-5.292-5.01-6.413a3.626 3.626 0 0 0-1.067-.24zm-2.684.671c-.878.328-1.44 1.205-1.786 2.038-.434 1.15-.338 2.436-.156 3.632.156.523.158 1.296.79 1.486.881.36 2.056.434 2.758-.324 1.096-1.123 1.061-2.908.611-4.315-.322-.995-1.041-1.85-1.894-2.433-.104-.048-.206-.099-.323-.084zm-13.221 1.942c-.052.006-.105.037-.156.048-.16.33.276.596.36.91.836 1.775 1.312 3.806.862 5.742-.298 1.22-1.282 2.239-2.505 2.541-.276.12-.95.07-.767.54 1.753 6.993 5.395 13.408 9.985 18.926 3.793 4.596 8.157 8.687 12.777 12.442 1.398.965 3.142 1.222 4.807 1.15 1.806-.019 3.604-.237 5.405-.36.46-.245-.24-.62-.395-.862-3.266-3.387-6.366-6.947-9.553-10.404-1.727-1.914-2.6-4.479-4.387-6.365-.429-.49-.986-.824-1.546-1.139-.389-1.711-.702-3.47-1.211-5.166-.91-3.238-2.361-6.452-4.902-8.738-.364-.435-1.002-.62-1.127-1.222-.91-2.113-1.759-4.337-3.308-6.077-1.082-1.205-2.649-2.01-4.291-1.966a.08.08 0 0 0-.048 0zm-1.439.252c-1.504.479-2.734 1.82-3.272 3.272.757 1.68 1.246 3.534 2.277 5.07 1.303.557 2.72-.57 3.117-1.798.754-2.135.358-4.895-1.474-6.365-.194-.12-.417-.208-.648-.18zm72.086 1.606c-.733.329-.822 1.363-1.27 1.965-1.465 2.772-3.158 5.455-5.095 7.935.17.813.704 1.57.84 2.422.654.662 1.664.907 2.253 1.678.811.761 1.205 1.798 1.57 2.804.744.737 1.81 1.09 2.457 1.954.7.703.99 1.659 1.282 2.565.763.692 1.835 1.018 2.446 1.894.74.733.96 1.779 1.414 2.661.723.619 1.649 1.027 2.301 1.714 1.76-1.559 3.368-3.43 5.07-5.106 1.314-1.42 2.795-2.737 3.98-4.243-.576-3.472-1.697-7.05-1.019-10.584.368-1.52 1.22-2.845 2.206-4.027-.02-.582-.966-.567-1.367-.875-1.03-.402-2.01-1.106-3.164-.804-1.606.145-3.282.106-4.843.444.006.04.007.08.012.12-2.527-.764-7.056-2.154-9.073-2.517zm-84.97 7.803c-1.002.116-2.103.667-2.566 1.594.106.9 1.18 1.296 1.786 1.846 1.322.994 3.09 1.868 3.608 3.548.244.939-.102 1.86-.42 2.697 3.742 3.027 7.38 6.202 10.5 9.84 2.632 2.477 6.455 3.307 9.973 2.949.362-.475-.356-1.045-.492-1.51-2.146-3.407-4.35-6.765-6.244-10.32-1.244-2.01-2.561-4.54-5.119-4.987-.853-.213-1.806.012-2.613-.215-2.386-1.943-4.457-4.66-7.587-5.382a3.134 3.134 0 0 0-.827-.06zm-3.201 2.757c-.786.263-.563 1.432-.24 2.001 1.039 1.533 2.833 2.336 4.207 3.512.342.262.803.868 1.235.36.981-1.056.068-2.498-.72-3.356-1.162-1.255-2.751-2.324-4.482-2.517z" fill="#fff"/><path d="M271.165 242.96c-2.083 1.226-4.125 2.492-5.322 4.603l-1.51-1.642-1.546 3.632-2.565-1.45.73 3.38-2.564.347c.012.007.024.018.036.024-2.28-.499-4.546-1.401-6.605-1.882-.167 1.295 2.542.963 3.548 1.595 1.188.265 2.355.698 3.536 1.03 3.518 4.217 2.12 13.567.683 20.197 2.324-7.274 2.967-11.54 1.954-19.73a6.88 6.88 0 0 0 1.69-.119l4.112-.228 3.38 1.45c-2.026 2-2.652 4.406-2.577 6.893.078 2.599.825 5.299 1.306 7.91l-9.265 9.506.73.347c3.961-2.687 6.599-6.713 9.35-9.6-.384-2.839-1.255-5.681-1.354-8.187.395-3.57.992-5.176 3.164-7.12-.768-.173-1.226-.926-1.75-1.295-.385-.262-.903-.653-1.246-.635-.345.018-.688.041-1.031.06-1.418-3.643 1.758-6.137 3.116-9.085zm-74.23 2.733c-3.373.15-5.297 3.857-4.376 6.928 1.164 3.421 1.409 7.087 2.254 10.62-1.232-3.74-5.027-5.81-6.413-9.313-1.244-3.634-5.489-7.089-9.301-4.842-1.306.932-3.359 2.676-2.134 4.386a68.593 68.593 0 0 1 3.512 9.793c1.858 2.755-3.616-.075-4.986-.108-2.683-2.448-6.725-7.234-10.536-4.027-1.276 1.492-3.698 4.118-.504 5.226 5.485 4.722 11.598 8.856 16.05 14.647 3.674 2.287 8.01 2.913 12.262 2.865 3.499 3.236 6.828 7.29 11.063 9.397 3.506 1.236 8.077-1.57 10.704 1.27 5.601.21 11.205.484 16.805.672 3.728-1.346 7.404-2.847 11.147-4.147v.012l1.63-.396-.3-.683c-4.311 1.17-8.985 3.4-12.849 4.638-5.398-.224-10.556-.998-15.953-1.222-2.256-.945-13.166-11.827-17.105-19.79-2.093-5.39-3.138-11.117-4.063-16.804 5.301.534 4.974-4.923 2.061-7.755 2.051-2.778 8.151 2.82 7.612 6.652-2.208 2.636 3.107 2.992 3.212 6.197 1.68 3.974 2.776 8.244 2.997 12.562 4.122-.086 5.775 4.534 7.563 7.539.463 1.593 4.789 5.634 2.086 1.954-5.804-7.312-7.097-16.998-6.953-26.059 3.632-.177 5.858-7.514 1.319-7.719-3.949.117 2.265-1.864 4.747.288 3.563 3.09 2.418 6.645 1.99 8.846 1.411 1.353 1.939 2.47 2.157 3.572.592 2.99 1.377 7.306-1.223 9.493 3.724.305 5.917 3.856 7.048 7.12.026 2.873 6.185 2.526 1.63 1.474-1.785-3.438-4.233-8.041-7.132-9.29 1.172-4.146 1.006-9.294-1.905-12.717 1.116-4.101-.16-9.84-5.466-9.745-2.88.052-3.963.543-3.704 1.846.055 3.977.311 5.563-.012 7.144-.084 3.991 1.13 14.308 2.601 18.087-2.37-2.21-5.25-2.413-4.71-6.292-1.031-4.373-1.973-9.296-5.382-12.49-.355-2.872-1.36-7.923-5.178-9.433a4.667 4.667 0 0 0-1.93-.396 4.166 4.166 0 0 0-.336 0zm-1.99 1.283c3.736 2.12 2.738 8.976-1.51 6.712-.768-2.242-.861-5.412 1.51-6.712zm18.794 1.786c4.405-.114.348 8.154-1.33 5.79l-.072-5.61.755-.132zm-32.123.204c4.707-.16 6.444 5.475 7.73 8.402 4.702 3.445 6.019 9.42 7.06 14.791 2.589.791 3.807 5.2 6.006 7.504 3.428 3.59 6.565 7.442 10.092 10.931-3.643.066-8.158 1.447-11.003-1.462-9.76-8.046-18.864-18.13-21.899-30.745 5.366-.876 3.34-7.566 2.014-9.421zm-1.115.156c3.385 2.066 2.546 9.144-1.318 8.222-.703-1.706-1.408-3.412-2.11-5.118.726-1.395 1.84-2.694 3.428-3.104zm-13.017 9.457c3.603.263 5.78 3.697 8.438 5.645 5.388-.943 6.884 4.3 9.086 7.935 1.554 3.107 4.793 6.871 5.25 8.738-3.86.08-6.69-.36-9.745-2.769-3.045-3.838-6.816-7.016-10.632-10.056 2.764-4.513-4.666-6.143-5.034-7.971.638-.816 1.563-1.501 2.637-1.522zm-3.464 2.768c2.92.128 7.336 4.239 4.914 5.97-1.412-1.802-6.435-3.565-4.914-5.97z" font-family="Sans"/><path d="M68.286 68.129s3.883 16.199 6.94 19.777l92.114 111.58a49.796 49.796 0 0 1 14.803-13.448L86.744 78.078c-3.056-3.579-18.458-9.95-18.458-9.95z" stroke="#000" fill="silver" stroke-width=".913" stroke-linecap="square"/><path d="M76.04 77.214s.617 6.94 2.542 9.194l91.743 109.387a49.863 49.863 0 0 1 7.875-7.168L84.73 81.146c-1.924-2.254-8.69-3.932-8.69-3.932z" stroke="#000" fill="silver" stroke-width=".607" stroke-linecap="square"/><path d="M280.874 233.923c-2.906.184-6.14.49-8.127 2.853-6.7 3.898-13.42 7.76-20.125 11.65l-.79 1.546c.31.073.626.163.946.252l.564-1.102c9.223-4.197 15.937-8.029 20.532-11.963 1.704-1.978 4.556-2.104 7-2.277 3.515-.25 2.92 4.776 2.277 7.144-1.03 3.796-3.772 6.653-6.436 9.54.278 1.55 1.486.192 2.337-.047 2.527-1.884.797 1.598.635 3.032-2.747 11.097-6.561 22.232-12.633 31.968.265.188.505.398.731.623 1.811-2.94 3.428-5.998 4.89-9.062 4.293-9.217 7.174-19.03 9.23-28.97-1.184.524-3.583 1.985-1.319-.144 2.457-3.389 5.086-7.254 4.927-11.615-.141-2.365-2.52-3.53-4.639-3.428zm-46.615 58.205c-.297.113-.6.212-.898.324 1.76 4.828 4.25 9.454 8.114 12.873 3.013 2.711 7.073.185 10.057-1.246a37.76 37.76 0 0 0 3.548-2.374c-.16-.263-.3-.55-.42-.85-2.917 2.244-6.178 4.013-9.817 4.758-3.333-.208-5.246-3.586-6.988-6.065a41.323 41.323 0 0 1-3.596-7.42z" font-family="Sans"/><path d="M315.743 221.937c-.616.222-1.963.709-2.56.92-2.48.872-4.717 1.667-6.112 2.449-.698.39-1.22.757-1.433 1.335a1.066 1.066 0 0 0-.037.539c-2.588-.316-4.785-.091-6.59.698-2.002.875-3.52 2.404-4.63 4.336-3.855.267-7.063 2.542-9.7 4.434l-.257.183.073.307c.339 1.591-.384 4.05-1.617 6.467-1.232 2.417-2.945 4.812-4.409 6.393l-.061.074-.037.11-.306.919-.343 1.053 1.004-.478 1.825-.87c-3.498 16.147-8.724 28.35-14.416 37.1l-.025.062-.012.061-.122.38-.331 1.029.992-.453 9.615-4.483c7.168.006 10.889.581 13.62 1.016 2.745.437 4.563.733 7.778.123 1.985-.376 4-1.509 5.536-2.548 1.443-.976 2.332-1.77 2.45-1.874 2.299-.09 5.142.103 7.704.294 2.611.195 4.863.397 6.1.233 1.524-.203 2.925-1.065 4.36-1.862 1.435-.796 2.907-1.54 4.52-1.666.748-.057 1.755.011 2.841.135.053-.322.11-.632.184-.943-1.135-.138-2.222-.215-3.099-.147-1.857.144-3.458.982-4.911 1.788-1.454.807-2.766 1.575-4.006 1.74-.958.127-3.3-.038-5.916-.233-1.906-.142-3.98-.289-5.903-.319 2.249-8.106 6.416-15.225.502-27.583l1.776-3.074-.686-.282-3.16 2.817c5.837 9.944 3.202 19.088-.343 28.147-.192-.038-.319.055-.453.122 0 0-1.018.91-2.499 1.911-1.48 1.002-3.41 2.082-5.156 2.413-3.097.587-4.724.303-7.472-.135-2.748-.437-6.562-1.029-13.853-1.029h-.11l-.098.05-6.736 3.098c5.66-8.976 9.075-20.44 12.48-36.634l.197-.956-.87.429-1.556.723c1.462-1.645 3.066-3.874 4.263-6.223 1.211-2.376 1.999-4.775 1.715-6.748 2.333-1.685 4.33-3.479 7.642-3.993 2.716.957 6.296 2.459 8.048 4.617 1.17 1.401 1.996 3.051 2.633 4.753.296-.112.598-.22.894-.331-1.042-3.033-2.978-5.783-5.597-7.655-1.175-.86-2.462-1.538-3.81-2.083 1.023-1.747 2.358-3.047 4.128-3.821 1.872-.818 4.24-1.055 7.239-.502v-.012l5.842 2.229-5.548-3.013.037-.098c-.244-.138-.38-.258-.417-.319-.036-.06-.033-.042-.012-.098.04-.111.391-.47 1.016-.82 1.25-.7 3.477-1.492 5.953-2.364.595-.21 1.945-.7 2.56-.919a19.84 19.84 0 0 1-.318-.918zm-24.534 21.655c-.242-.026-.494.137-.514.552 0 0-1.274 13.783-.931 18.372.09 1.2 3.932 4.9 3.932 4.9.503.791.814-.033.563-.38 0 0-2.304-3.032-2.817-4.863-1.624-5.796.208-17.98.208-17.98.03-.359-.199-.574-.44-.6z" font-family="Sans"/><path d="M267.641 218.676a7.664 7.664 0 0 0-1.69.216c-10.278 2.463-4.016 14.938 1.918 11.986l-12.226 6.473a50.208 50.208 0 0 1-3.452 11.878l20.473-11.842c8.578-4.962 3.25-18.814-5.023-18.71z" stroke="#000" fill="gold" stroke-width=".959" stroke-linecap="square"/><path d="M266.67 218.76a8.03 8.03 0 0 0-.719.132c-10.278 2.463-4.016 14.938 1.918 11.986l-12.226 6.473a50.285 50.285 0 0 1-1.918 7.839l16.026-9.565c7.077-4.223 3.4-15.529-3.08-16.865z" stroke="#000" fill="gold" stroke-width=".858" stroke-linecap="square"/><path d="M264.194 223.3c-1.579 2.484-.221 6.16 3.826 4.892" stroke="#000" fill="none" stroke-width=".959" stroke-linecap="square"/><path d="M308.13 252.921c5.728 12.194 1.61 19.269-.622 27.317 1.922.03 4.002.181 5.909.323 2.615.196 4.951.356 5.91.228 1.239-.165 2.561-.931 4.014-1.738 1.454-.806 3.045-1.642 4.903-1.786.88-.068 1.98.006 3.116.144.482-.995.741-2.168 1.295-3.164.143-.326.296-.643.455-.96-5.718.196-11.456.084-17.02 2.734-.54-11.084-2.369-20.096-7.96-23.098zm-16.576-9.121c.068.1.109.235.096.395 0 0-1.828 12.183-.204 17.98.513 1.83 2.817 4.866 2.817 4.866.042.059-.077.47-.065.546 1.87-.823 2.788-2.282 3.876-3.627-7.356-5.902-3.64-13.28-4.926-19.993z" opacity=".5"/><path d="M281.63 250.416c-3.29 15.468-8.155 27.353-13.545 36.175-.06.136-.118.267-.168.407a.39.39 0 0 0 .288.204l7.755-3.608.096-.048h.107c7.291 0 11.108.593 13.857 1.03 2.748.438 4.37.72 7.467.133 1.747-.331 3.685-1.408 5.166-2.41a24.74 24.74 0 0 0 2.493-1.917c.132-.066.26-.151.444-.12h.012c.002 0-.002-.01 0-.012.465-1.189.914-2.379 1.33-3.572-7.717 1.82-6.6 4.912-28.647 2.074 4.658-9.285 4.14-18.803 3.344-28.336z" opacity=".5"/><path d="M258.013 303.877l11.25-13.718c1.961.845 3.42 2.15 3.754 4.488l-11.249 13.717c-2.181-.643-3.354-2.211-3.755-4.487zm-3.755-4.487l11.249-13.718c1.962.844 3.42 2.15 3.755 4.487l-11.25 13.718c-2.18-.643-3.353-2.212-3.754-4.488z" stroke="#000" stroke-linejoin="round" fill="gold" stroke-width=".522" stroke-linecap="square"/><path d="M250.503 294.902l11.249-13.717c1.962.844 3.42 2.15 3.755 4.487l-11.25 13.717c-2.18-.643-3.353-2.211-3.754-4.487zm-3.756-4.488l11.25-13.717c1.962.845 3.42 2.15 3.755 4.488l-11.25 13.717c-2.18-.643-3.354-2.211-3.755-4.488z" stroke="#000" stroke-linejoin="round" fill="gold" stroke-width=".522" stroke-linecap="square"/><path d="M242.992 285.927l11.25-13.717c1.962.844 3.42 2.15 3.755 4.487l-11.25 13.717c-2.181-.643-3.354-2.21-3.755-4.487zm-3.755-4.487l11.25-13.718c1.961.845 3.42 2.15 3.755 4.488l-11.25 13.717c-2.181-.643-3.354-2.211-3.755-4.487z" stroke="#000" stroke-linejoin="round" fill="gold" stroke-width=".522" stroke-linecap="square"/><path d="M235.482 276.952l11.25-13.717c1.961.844 3.42 2.15 3.754 4.487l-11.249 13.718c-2.181-.643-3.354-2.212-3.755-4.488zm18.776 22.438l11.249-13.718c1.962.844 3.42 2.15 3.755 4.487l-11.25 13.718c-2.18-.643-3.353-2.212-3.754-4.488z" stroke="#000" stroke-linejoin="round" fill="gold" stroke-width=".522" stroke-linecap="square"/><path d="M254.258 299.39l11.249-13.718c1.962.844 3.42 2.15 3.755 4.487l-11.25 13.718c-2.18-.643-3.353-2.212-3.754-4.488z" stroke="#000" stroke-linejoin="round" fill="gold" stroke-width=".522" stroke-linecap="square"/><path d="M353.799 92.713c-10.109.72-14.797 3.527-17.189 7.215-.919 1.418-1.447 2.96-1.882 4.531-4.635.483-7.99 2.05-10.248 4.327-2.38 2.4-3.581 5.528-4.04 8.786-.679 4.835.274 9.971 1.547 13.712l-.24.348c-6.914 10.029-7.683 17.703-5.118 24.032 1.797 4.435 5.211 8.183 9.194 11.675l-.024 1.055c-.457 8.346 2.709 13.268 6.472 17.5l-.144.323-1.438 3.249c-3.613.559-6.033 1.495-7.6 2.745-1.598 1.276-2.297 2.877-2.48 4.578-.218 2.02.209 4.188.61 6.305-2.4 2.957-5.319 4.718-6.568 7.647-1.215 3.042-1.005 7.485 2.326 15.14-1.507 1.485-1.945 3.546-1.235 6.052.636 2.243 2.18 4.902 4.555 7.947-1.09.61-1.787 1.51-2.002 2.637-.23 1.21-.9 3.17-.275 4.807 1.266 3.32 3.181 9.992 8.75 11.938 1.464 1.83 3.508 4.5 4.686 5.885 1.349 1.602 1.993 2.866 3.74 2.84.955.637-.183 1.06-1.282 3.233-1.015 1.965-1.579 3.978-2.302 5.074-.964 1.462-.773 3.808-.42 5.814.034.19.072.308.108.491-.945.76-1.564 1.993-1.654 2.985-.082 1.07.18 2.218.648 3.404.346.88.83 1.776 1.366 2.66l-.036.276c-.206 1.462-.925 2.698-.995 4.819-.069 2.106.533 5.035 2.84 9.949-.582 7.614 1.075 13.031 3.8 16.649 2.08 2.76 4.774 4.457 7.504 5.297-.5.027-.786.271-.959.672-.176.408-.02.884.192 1.402.423 1.036 1.595 2.206 2.433 3.92 1.6 3.269 4.336 7.254 7.06 10.236l.647-.348c-2.246-3.179-5.346-7.07-7.108-10.32-.901-1.663-2.003-2.862-2.36-3.764-.227-.569-.333-1.08.275-1.114 1.226-.077 2.12.057 3.152-.516-3.374-.393-7.637-2.443-10.248-5.909-3.173-5.998-4.01-11.215-3.656-16.337-1.186-3.114-2.905-6.536-2.84-9.793.053-1.642.508-2.745.802-4.003l2.518 3.008c.915 1.095 1.51.981.659-.336-1.448-2.239-3.493-4.472-4.375-6.712-.441-1.12-.658-2.181-.588-3.092.057-.732.354-1.332.827-1.87l.911 2.026.012.036.684-.264-.012-.036a26.367 26.367 0 0 1-.887-3.536c-.343-1.943-.412-4.19.311-5.286.768-1.164 1.773-2.64 2.793-4.615.51-.987 1.478-1.756 1.81-2.433.146-.298-.054-1.44.036-1.63 1.852 3.356 5.214 4.936 8.582 6.508l.06.048.024.012.456-.563-.012-.012-.012-.012c-2.643-1.817-5.973-2.441-7.372-6.412-.283-1.592-1.4-1.011-2.397-1.283-.39-.106-.858-.71-.923-.707-1.437.076-2.045-.342-3.392-1.942-1.346-1.597-2.665-3.627-4.076-5.202-2.027 1.311-9.17-7.669-8.786-15.81.335-.88.71-1.605 1.63-2.122l.852.863c1.356 1.376.849-.11.539-.491-3.007-3.697-4.907-6.722-5.598-9.157-.692-2.442-.271-4.209 1.199-5.526l.6-.072-.624-.635c-3.394-7.718-3.417-11.671-2.29-14.492 1.062-2.655 4.021-4.935 5.977-6.888l.568 3.352.683-.168c-.054-3.49-1.547-7.318-1.21-10.44.168-1.56.754-2.929 2.205-4.087s3.8-2.094 7.468-2.637l.191-.036.084-.18 1.307-2.972 3.26 2.768.036.037.036.023.503-.527c-4.97-5.261-10.233-9.964-9.9-20.209l4.614 2.661.036.024.408-.6-.036-.023c-6.097-4.757-11.787-9.643-14.252-15.726-2.43-5.996-1.776-13.206 4.747-22.87l1.33 2.098.012.024.624-.372a.912.912 0 0 0-.012-.024c-1.72-3.285-3.724-10.297-2.841-16.577.442-3.146 1.602-6.103 3.848-8.366 2.079-2.097 5.16-3.57 9.493-4.076-.563 2.276-.914 4.603-1.57 6.785-.064.854.105.59.707.203l2.181-7.395c.166-.496.232-.51-.288-.468.408-1.414.886-2.786 1.69-4.027 2.25-3.469 6.634-6.18 16.626-6.892z" font-family="Sans"/><path d="M321.52 129.798c-4.113.048-8.902.433-11.54 4.06-1.908 1.948-1.469 5.973-5.17 4.916-4.339.498-6.924 4.708-7.396 8.723-.292 2.976-4.364 3.87-5.14 6.92-2.015 2.647.895 6.08.247 8.216-4.887 4.704-7.766 12.024-5.522 18.684.27 2.62 3.408 5.196 2.637 6.53-.301 5.95.764 13.057 6.188 16.548 3.606 2.316 8.08 2.627 12.247 2.33.953 2.106 6.96 5.178 7.095 3.382-2.723.06-5.318-2.405-6.975-4.112-5.456.519-12.016-.441-15.2-5.451-2.237-3.485-2.67-7.774-2.612-11.822l3.2 2.973c1.28-1.435-2.668-2.87-2.907-4.536-3.86-5.202-5.042-12.575-1.782-18.371 1.208-1.517 3.144-6.4 4.929-5.147.644.47 1.115 2.31 1.942 1.265-2.314-2.914-4.725-7.064-2.566-10.732.84-2.831 4.99-3.402 4.917-6.438.428-3.658 2.602-7.652 6.597-8.178 2.442-1.1 2.34.641 2.043 2.394 2.007-.29 1.139-4.804 2.881-6.278 1.813-3.69 6.062-5.089 9.922-5.051.663-.287 2.853.523 1.965-.825z" font-family="Sans"/><path d="M301.119 206.426c-1.294 2.655-2.351 5.444-2.337 8.666.014 3.414 1.229 7.28 4.566 11.95.305-.003.618.009.935.025-3.52-4.784-4.756-8.64-4.77-11.987-.014-3.133 1.05-5.856 2.361-8.522a19.518 19.518 0 0 1-.755-.132zm-4.627 79.409c-.266.036-.517.061-.767.084.463 1.228 1.182 2.442 1.606 3.476 1.283 2.388 2.836 4.645 4.687 6.629-.9 4.776.422 10.121 4.339 13.233 2.401 1.16 2.853 3.585 3.907 5.789 2.022 4.173 6.464 6.755 11.052 6.88 2.755-.19 5.018.071 6.149 2.865 3.63 4.925 9.797 7.775 15.906 7.156.32-.128.763-.168 1.246-.192-.142-.21-.286-.416-.395-.611-4.902.513-10.024-.642-13.677-4.1-1.937-1.558-3.28-3.912-4.758-5.705-4.75.092-10.351-.276-13.413-4.471-.678-.97-3.18-4.545-1.882-4.291 2.503.307-1.793-2.23-2.457-2.817-3.693-2.588-5.975-7.014-5.49-11.555-.836-3.264 3.79 1.953 4.195-.072-1.512-1.169-3.02-2.353-4.53-3.524-1.413-.27-3.462-4.231-4.603-6.268-.24-.652-.733-1.576-1.115-2.506z" font-family="Sans"/><path d="M319.086 321.183c-.081 4.616-2.148 9.333-.39 13.873.977 2.891 3.134 5.194 5.16 7.343 1.515 8.153 5.245 15.088 12.074 20.216 4.35 3.374 9.431 5.826 14.674 7.273.82-.053 4.079 1.24 3.082-.217-5.392-.866-10.55-3.17-15.223-6.207-6.692-3.934-11.053-9.736-12.927-17.06-.06-.836-1.39-3.645.141-2.267.635.424 1.276.842 1.908 1.27 1.135-1.331-2.241-1.954-2.73-3.137-3.446-2.987-6.45-7.165-6.123-11.94.116-3.077 1.103-6.059 1.086-9.147h-.732z" font-family="Sans"/><path d="M206.979 179.241c-1.526 0-3.028.067-4.52.204l-1.09 34.724c-8.641.553-32.51 3.46-43.498 10.512a50.915 50.915 0 0 0 .623 13.7c13.824-6.992 30.067-10.505 48.485-10.895 18.415.39 34.672 3.892 48.496 10.884a50.88 50.88 0 0 0 .827-9.134 51.21 51.21 0 0 0-.216-4.555c-10.99-7.047-34.846-9.959-43.486-10.512l-1.09-34.724a49.359 49.359 0 0 0-4.531-.204z" stroke="#000" fill="#fbe403" stroke-width="1.189"/><path d="M213 220.152a7.18 7.18 0 1 1-14.36 0 7.18 7.18 0 0 1 14.36 0z" stroke="#000" stroke-linejoin="round" fill="gold" stroke-width="1.074" stroke-linecap="square"/><path d="M205.817 214.595c-.156 0-.31.01-.463.025 2.591.26 4.625 2.637 4.625 5.534 0 2.898-2.033 5.276-4.625 5.535.153.015.307.025.463.025 2.812 0 5.096-2.49 5.096-5.56 0-3.07-2.284-5.559-5.096-5.559z" stroke="#000" stroke-width=".265"/><path d="M225.234 221.727a5.647 5.647 0 1 1-11.293 0 5.647 5.647 0 0 1 11.293 0z" stroke="#000" stroke-linejoin="round" fill="gold" stroke-width="1.074" stroke-linecap="square"/><path d="M219.585 217.357a3.65 3.65 0 0 0-.364.02c2.038.204 3.637 2.074 3.637 4.352 0 2.28-1.6 4.15-3.637 4.353.12.012.241.02.364.02 2.212 0 4.008-1.958 4.008-4.372 0-2.415-1.796-4.373-4.008-4.373z" stroke="#000" stroke-width=".208"/><path d="M237.015 222.96a5.647 5.647 0 1 1-11.293 0 5.647 5.647 0 0 1 11.293 0z" stroke="#000" stroke-linejoin="round" fill="gold" stroke-width="1.074" stroke-linecap="square"/><path d="M231.366 218.59a3.65 3.65 0 0 0-.364.02c2.038.204 3.637 2.074 3.637 4.352 0 2.279-1.6 4.15-3.637 4.353.12.012.24.02.364.02 2.212 0 4.008-1.958 4.008-4.373 0-2.414-1.796-4.372-4.008-4.372z" stroke="#000" stroke-width=".208"/><path d="M247.631 226.316a5.647 5.647 0 1 1-11.293 0 5.647 5.647 0 0 1 11.293 0z" stroke="#000" stroke-linejoin="round" fill="gold" stroke-width="1.074" stroke-linecap="square"/><path d="M241.982 221.946a3.65 3.65 0 0 0-.364.02c2.038.204 3.637 2.074 3.637 4.353 0 2.278-1.599 4.148-3.637 4.352.12.012.241.02.364.02 2.212 0 4.008-1.958 4.008-4.372 0-2.415-1.796-4.373-4.008-4.373z" stroke="#000" stroke-width=".208"/><path d="M257.974 230.084a5.647 5.647 0 1 1-11.293 0 5.647 5.647 0 0 1 11.293 0z" stroke="#000" stroke-linejoin="round" fill="gold" stroke-width="1.074" stroke-linecap="square"/><path d="M252.325 225.713c-.123 0-.244.008-.365.02 2.038.204 3.637 2.074 3.637 4.353 0 2.278-1.598 4.148-3.637 4.352.12.012.242.02.365.02 2.211 0 4.008-1.957 4.008-4.372s-1.797-4.372-4.008-4.372z" stroke="#000" stroke-width=".208"/><path d="M198.86 221.522a5.78 5.78 0 1 1-11.56 0 5.78 5.78 0 0 1 11.56 0z" stroke="#000" stroke-linejoin="round" fill="gold" stroke-width="1.074" stroke-linecap="square"/><path d="M193.078 217.049c-.126 0-.25.007-.373.02 2.086.208 3.723 2.123 3.723 4.455s-1.636 4.247-3.723 4.455c.123.013.247.02.373.02 2.264 0 4.103-2.003 4.103-4.475 0-2.472-1.839-4.475-4.103-4.475z" stroke="#000" stroke-width=".213"/><path d="M187.285 223.508a5.78 5.78 0 1 1-11.56 0 5.78 5.78 0 0 1 11.56 0z" stroke="#000" stroke-linejoin="round" fill="gold" stroke-width="1.074" stroke-linecap="square"/><path d="M181.503 219.035c-.126 0-.25.008-.373.02 2.086.209 3.723 2.123 3.723 4.455 0 2.333-1.637 4.247-3.723 4.456.123.012.247.02.373.02 2.264 0 4.102-2.004 4.102-4.476s-1.838-4.475-4.102-4.475z" stroke="#000" stroke-width=".213"/><path d="M176.326 226.59a5.78 5.78 0 1 1-11.56 0 5.78 5.78 0 0 1 11.56 0z" stroke="#000" stroke-linejoin="round" fill="gold" stroke-width="1.074" stroke-linecap="square"/><path d="M170.544 222.117c-.126 0-.25.008-.373.02 2.086.209 3.723 2.123 3.723 4.455 0 2.333-1.637 4.247-3.723 4.456.123.012.247.02.373.02 2.264 0 4.103-2.004 4.103-4.475 0-2.472-1.84-4.476-4.103-4.476z" stroke="#000" stroke-width=".213"/><path d="M165.299 230.426a5.78 5.78 0 1 1-11.56 0 5.78 5.78 0 0 1 11.56 0z" stroke="#000" stroke-linejoin="round" fill="gold" stroke-width="1.074" stroke-linecap="square"/><path d="M159.517 225.953c-.126 0-.25.008-.373.02 2.086.209 3.723 2.123 3.723 4.455 0 2.333-1.637 4.247-3.723 4.456.123.012.247.02.373.02 2.264 0 4.102-2.004 4.102-4.476s-1.838-4.475-4.102-4.475z"/><path d="M212.426 206.727a5.647 5.647 0 1 1-11.293 0 5.647 5.647 0 0 1 11.293 0z" stroke="#000" stroke-linejoin="round" fill="gold" stroke-width="1.074" stroke-linecap="square"/><path d="M206.777 202.357a3.65 3.65 0 0 0-.364.02c2.038.204 3.637 2.074 3.637 4.353 0 2.278-1.6 4.148-3.637 4.352.12.012.24.02.364.02 2.212 0 4.008-1.957 4.008-4.372s-1.796-4.373-4.008-4.373z" stroke="#000" stroke-width=".208"/><path d="M212.563 195.495a5.647 5.647 0 1 1-11.293 0 5.647 5.647 0 0 1 11.293 0z" stroke="#000" stroke-linejoin="round" fill="gold" stroke-width="1.074" stroke-linecap="square"/><path d="M206.914 191.124a3.65 3.65 0 0 0-.364.02c2.038.204 3.637 2.074 3.637 4.353 0 2.278-1.6 4.148-3.637 4.352.12.012.24.02.364.02 2.212 0 4.008-1.957 4.008-4.372s-1.796-4.372-4.008-4.372z" stroke="#000" stroke-width=".208"/><path d="M212.6 185.743a5.647 5.647 0 1 1-10.82-3.237 5.647 5.647 0 0 1 10.82 3.237z" stroke="#000" stroke-linejoin="round" fill="gold" stroke-width="1.074" stroke-linecap="square"/><path d="M208.44 179.937a3.71 3.71 0 0 0-.354-.085c1.894.78 2.89 3.03 2.237 5.212-.654 2.183-2.721 3.517-4.732 3.128.111.045.225.088.343.123 2.119.634 4.4-.726 5.093-3.04.692-2.313-.467-4.704-2.586-5.338z" stroke="#000" stroke-width=".208"/><path d="M197.105 114.424c-5.413-.025-10.671.14-15.758 1.176-.092-.055-.17-.101-.245-.155 2.265 2.327 13.003 4.094 25.91 4.094 12.905 0 23.643-1.767 25.909-4.094a3.12 3.12 0 0 1-.246.155c-8.138-1.657-16.713-1.072-25.664-1.072-3.356 0-6.659-.088-9.906-.104z" stroke="#000" opacity=".98" fill="gold" stroke-width=".414" stroke-linecap="square"/><path d="M191.5 77.988c-4.6-.046-13.236 6.731-14.609 11.186-1.754 5.694-.89 11.534 3.836 17.526l.117.013c.003-.005.009-.007.012-.013 7.663-1.332 17.343-1.534 26.155-1.524 8.927.01 17.132-.085 26.155 1.524.003.006.01.008.013.013l.116-.013c4.726-5.992 5.59-11.832 3.836-17.526-1.372-4.455-10.008-11.232-14.608-11.186l-7.31.078c-3.215 1.28-5.808 3.18-8.202 5.282-2.393-2.102-4.986-4.001-8.201-5.282z" stroke="#000" fill="gold" stroke-width=".62"/><path d="M207.011 76.438c-2.543 1.214-4.14 2.227-5.114 3.139 1.87 1.09 3.538 2.387 5.114 3.771 1.576-1.384 3.245-2.681 5.115-3.771-.975-.912-2.571-1.925-5.115-3.139z" stroke="#000" fill="gold" stroke-width=".62" stroke-linecap="square"/><path d="M222.525 77.993l-1.046.013a40.895 40.895 0 0 1-.71 2.066 27.792 27.792 0 0 0-1.834-.672l-.22-.077v1.175c.572.188 1.127.389 1.666.607a27.106 27.106 0 0 1-1.446 3.01l-.22-.09v2.48c.235-.304.465-.62.685-.957a26.808 26.808 0 0 1 3.1 1.705 57.634 57.634 0 0 1-1.525 3.346 26.036 26.036 0 0 0-2.26-1.214v1.24c.606.305 1.185.628 1.744.968-.629 1.162-1.253 2.097-1.744 2.622 0 .49-.01.983 0 1.473l.607-.491c.693-.646 1.37-1.7 2.08-3.01a27.85 27.85 0 0 1 3.19 2.532 73.801 73.801 0 0 1-1.976 3.81 52.055 52.055 0 0 0-3.901-2.531v1.291a49.898 49.898 0 0 1 3.345 2.209 43.824 43.824 0 0 1-1.188 1.95c-.772 1.176-1.535 2.133-2.157 2.777v1.02c.194.007.387.018.581.026.796-.74 1.607-1.847 2.506-3.216.38-.58.761-1.224 1.15-1.886a64.675 64.675 0 0 1 2.44 1.925c-1.073 1.453-2.196 2.62-3.306 3.306.58.037 1.162.071 1.744.117.857-.728 1.676-1.641 2.454-2.687.677.578 1.338 1.173 2.002 1.77-.402.465-.81.878-1.214 1.24.48.053.963.106 1.446.167.204-.206.41-.419.607-.645.301.274.603.558.904.84.662.093 1.32.199 1.99.31-.731-.683-1.452-1.361-2.183-2.029a25.715 25.715 0 0 0 1.55-2.221 127.7 127.7 0 0 0 2.777 3.28c.23-.324.438-.645.645-.968a149.716 149.716 0 0 1-2.802-3.333 42.221 42.221 0 0 0 1.692-3.319c.95 1.101 1.905 2.207 2.893 3.306.165-.393.318-.783.452-1.175a259.093 259.093 0 0 1-2.855-3.268c.07-.164.151-.325.22-.49.387-.928.734-1.858 1.059-2.777.793.917 1.59 1.84 2.402 2.764.055-.522.098-1.044.104-1.563-.7-.805-1.398-1.612-2.093-2.415.42-1.291.768-2.54 1.034-3.707a9.435 9.435 0 0 0-.84-1.537c-.233 1.267-.597 2.716-1.059 4.236a95.113 95.113 0 0 0-2.3-2.544c.46-1.707.773-3.283.892-4.611a26.544 26.544 0 0 0-1.072-1.008c-.027 1.181-.29 2.806-.749 4.65a46.135 46.135 0 0 0-2.39-2.286c.468-1.665.749-3.12.71-4.288a27.03 27.03 0 0 0-1.213-.814l.051.375c.122.84-.064 2.243-.49 3.926a31.809 31.809 0 0 0-2.945-2.17 58.63 58.63 0 0 0 1.085-3.423 16.11 16.11 0 0 0-1.033-.439c-.249.91-.61 2.03-1.034 3.268-.86-.51-1.752-.98-2.7-1.408a39.24 39.24 0 0 0 .84-2.531h-.142zm-1.098 3.564a26.18 26.18 0 0 1 2.713 1.447 85.387 85.387 0 0 1-1.201 3.19 27.778 27.778 0 0 0-2.958-1.614 26.519 26.519 0 0 0 1.446-3.023zm3.694 2.067a31.553 31.553 0 0 1 3.01 2.273c-.049.164-.103.324-.155.491a50.583 50.583 0 0 1-.995 2.816 33.56 33.56 0 0 0-3.1-2.377 87.939 87.939 0 0 0 1.24-3.203zm3.927 3.074c.83.754 1.62 1.55 2.402 2.364a48.58 48.58 0 0 1-1.098 3.41 52.059 52.059 0 0 0-2.492-2.468 53.722 53.722 0 0 0 1.175-3.28c.003-.01.01-.017.013-.026zm-5.606 1.175a33.272 33.272 0 0 1 3.1 2.467 73.226 73.226 0 0 1-1.446 3.32 28.85 28.85 0 0 0-3.178-2.454 57.263 57.263 0 0 0 1.524-3.333zm8.912 2.144c.76.823 1.516 1.665 2.26 2.519a48.789 48.789 0 0 1-1.226 3.307 119.91 119.91 0 0 0-2.183-2.467 50.932 50.932 0 0 0 1.15-3.359zm-4.947 1.111a53.873 53.873 0 0 1 2.493 2.519c-.119.303-.236.603-.361.904a44.982 44.982 0 0 1-1.111 2.467 45.058 45.058 0 0 0-2.467-2.57 73.665 73.665 0 0 0 1.446-3.32zm3.333 3.423c.721.797 1.432 1.619 2.144 2.441a41.934 41.934 0 0 1-1.653 3.307c-.66-.803-1.326-1.596-2.002-2.377a50.1 50.1 0 0 0 1.343-2.945c.06-.142.11-.284.168-.426zm-5.296.969c.843.82 1.643 1.68 2.428 2.57a33.787 33.787 0 0 1-1.834 3.087 64.87 64.87 0 0 0-2.505-1.99 73.074 73.074 0 0 0 1.911-3.667zm3.23 3.487c.651.762 1.301 1.536 1.95 2.325a26.71 26.71 0 0 1-1.64 2.39 97.953 97.953 0 0 0-2.054-1.809 32.61 32.61 0 0 0 1.743-2.906z" font-family="Sans"/><path d="M214.091 78.548a25.1 25.1 0 0 0-4.004 2.35v23.753h4.004V78.548z" stroke="#000" fill="none" stroke-width=".414" stroke-linecap="square"/><path d="M214.091 78.548a25.1 25.1 0 0 0-4.004 2.35v.853l4.004-2.79v-.413zm-4.01 4.752l4.004-2.79v.981l-4.004 2.79zm0 2.535l4.004-2.79v.982l-4.004 2.79zm0 2.535l4.004-2.79v.982l-4.004 2.79zm0 2.536l4.004-2.79v.982l-4.004 2.79zm0 2.535l4.004-2.79v.982l-4.004 2.79zm0 2.535l4.004-2.79v.982l-4.004 2.79zm0 2.536l4.004-2.79v.982l-4.004 2.79zm.207 2.535l4.004-2.79v.982l-4.004 2.79zm0 2.536l4.004-2.79v.981l-4.004 2.79z"/><path d="M210.087 80.899c-.273.194-.548.392-.814.594v1.175h.814v-1.77zm-.815 1.989h.815v1.768h-.815zm0 1.768h.815v1.768h-.815zm0 1.768h.815v1.768h-.815zm0 1.99h.815v1.768h-.815zm0 1.768h.815v1.768h-.815zm0 1.768h.815v1.767h-.815zm0 1.989h.815v1.768h-.815zm0 1.768h.815v1.768h-.815zm0 1.768h.815v1.768h-.815zm0 1.989h.815v1.768h-.815zm0 1.768h.815V103h-.815zm0 1.768h.815v1.768h-.815z" stroke="#000" fill="gold" stroke-width=".278" stroke-linecap="square"/><path d="M181.076 113.43c-.726 1.147-.628 1.641.271 2.17 8.138-1.657 16.713-1.072 25.664-1.072s17.526-.585 25.664 1.072c.9-.529.997-1.023.272-2.17-8.694-.989-17.009-.946-25.936-.943-8.702.002-18.196.084-25.935.943z" fill="gold" stroke="#000" stroke-width=".414"/><path d="M207.011 106.894c-8.95.01-17.6-.228-25.883 1.976l-.052 4.56c8.694-.989 17.01-1.075 25.935-.943 8.926-.132 17.242-.046 25.936.943l-.052-4.56c-8.284-2.204-16.933-1.965-25.884-1.976z"/><path d="M191.497 77.993l1.047.013c.216.684.451 1.378.71 2.066a27.792 27.792 0 0 1 1.834-.672l.22-.077v1.175a26.81 26.81 0 0 0-1.667.607 27.48 27.48 0 0 0 1.447 3.01l.22-.09v2.48a14.192 14.192 0 0 1-.685-.957 26.629 26.629 0 0 0-3.1 1.705 57.634 57.634 0 0 0 1.524 3.346c.715-.433 1.47-.837 2.26-1.214v1.24c-.605.305-1.185.628-1.743.968.629 1.162 1.253 2.097 1.744 2.622 0 .49.01.983 0 1.473l-.607-.491c-.693-.646-1.37-1.7-2.08-3.01a27.85 27.85 0 0 0-3.19 2.532 73.801 73.801 0 0 0 1.976 3.81 52.054 52.054 0 0 1 3.9-2.532v1.292a49.896 49.896 0 0 0-3.345 2.209c.402.689.8 1.357 1.189 1.95.772 1.176 1.535 2.133 2.157 2.777v1.02c-.194.007-.388.018-.582.026-.795-.74-1.607-1.847-2.505-3.216a46.44 46.44 0 0 1-1.15-1.886 64.674 64.674 0 0 0-2.44 1.925c1.073 1.453 2.196 2.62 3.306 3.306-.58.037-1.163.071-1.744.117-.857-.728-1.676-1.641-2.454-2.687-.678.578-1.338 1.173-2.002 1.77.402.465.809.878 1.214 1.24-.48.053-.963.106-1.447.167a15.736 15.736 0 0 1-.607-.645c-.3.274-.602.558-.904.84-.661.093-1.32.199-1.989.31.73-.683 1.452-1.361 2.183-2.029a25.717 25.717 0 0 1-1.55-2.221 127.7 127.7 0 0 1-2.777 3.28 25.2 25.2 0 0 1-.646-.968 150.067 150.067 0 0 0 2.803-3.333 42.222 42.222 0 0 1-1.692-3.319 217.603 217.603 0 0 1-2.893 3.306 18.856 18.856 0 0 1-.452-1.175 259.12 259.12 0 0 0 2.854-3.268c-.07-.164-.15-.325-.22-.49a53.685 53.685 0 0 1-1.058-2.777c-.793.917-1.59 1.84-2.403 2.764a16.653 16.653 0 0 1-.103-1.563c.7-.805 1.398-1.612 2.092-2.415a42.88 42.88 0 0 1-1.033-3.707 9.44 9.44 0 0 1 .84-1.537c.232 1.267.596 2.716 1.059 4.236a95.119 95.119 0 0 1 2.299-2.544c-.46-1.707-.773-3.283-.891-4.611.344-.341.698-.678 1.072-1.008.027 1.181.29 2.805.749 4.65a46.135 46.135 0 0 1 2.39-2.286c-.468-1.665-.75-3.12-.711-4.288.399-.283.809-.558 1.214-.814l-.052.375c-.121.84.065 2.243.491 3.926a31.81 31.81 0 0 1 2.945-2.17 58.222 58.222 0 0 1-1.085-3.423c.35-.166.694-.306 1.033-.439.249.91.609 2.03 1.033 3.268.86-.51 1.753-.98 2.7-1.408a39.24 39.24 0 0 1-.84-2.531h.142zm1.098 3.564c-.955.436-1.847.923-2.712 1.447.373 1.043.765 2.11 1.201 3.19a27.778 27.778 0 0 1 2.958-1.614 26.519 26.519 0 0 1-1.447-3.023zm-3.694 2.067a31.553 31.553 0 0 0-3.01 2.273c.05.164.103.324.156.491.282.896.624 1.845.994 2.816a33.56 33.56 0 0 1 3.1-2.377 87.939 87.939 0 0 1-1.24-3.203zm-3.926 3.074a48.872 48.872 0 0 0-2.403 2.364 48.58 48.58 0 0 0 1.098 3.41 52.059 52.059 0 0 1 2.493-2.468 53.722 53.722 0 0 1-1.175-3.28c-.003-.01-.01-.017-.013-.026zm5.605 1.175a33.272 33.272 0 0 0-3.1 2.467 73.226 73.226 0 0 0 1.447 3.32 28.85 28.85 0 0 1 3.177-2.454 57.263 57.263 0 0 1-1.524-3.333zm-8.912 2.144c-.76.823-1.515 1.665-2.26 2.519a48.789 48.789 0 0 0 1.227 3.307c.721-.832 1.443-1.66 2.183-2.467a50.932 50.932 0 0 1-1.15-3.359zm4.947 1.111a54.644 54.644 0 0 0-2.493 2.519c.12.303.236.603.362.904.348.833.716 1.661 1.11 2.467a45.058 45.058 0 0 1 2.468-2.57 73.665 73.665 0 0 1-1.447-3.32zm-3.332 3.423c-.722.797-1.432 1.619-2.144 2.441a41.934 41.934 0 0 0 1.653 3.307c.66-.803 1.326-1.596 2.002-2.377a50.1 50.1 0 0 1-1.343-2.945c-.06-.142-.11-.284-.168-.426zm5.295.969a47.029 47.029 0 0 0-2.428 2.57 33.787 33.787 0 0 0 1.834 3.087 64.87 64.87 0 0 1 2.506-1.99 73.074 73.074 0 0 1-1.912-3.667zm-3.229 3.487a156.21 156.21 0 0 0-1.95 2.325 26.71 26.71 0 0 0 1.64 2.39 97.953 97.953 0 0 1 2.054-1.809 32.61 32.61 0 0 1-1.744-2.906z" font-family="Sans"/><path d="M199.932 78.548a25.1 25.1 0 0 1 4.003 2.35v23.753h-4.003V78.548z" stroke="#000" fill="none" stroke-width=".414" stroke-linecap="square"/><path d="M199.932 78.548a25.1 25.1 0 0 1 4.003 2.35v.853l-4.003-2.79v-.413zm4.01 4.752l-4.004-2.79v.981l4.004 2.79zm0 2.535l-4.004-2.79v.982l4.004 2.79zm0 2.535l-4.004-2.79v.982l4.004 2.79zm0 2.536l-4.004-2.79v.982l4.004 2.79zm0 2.535l-4.004-2.79v.982l4.004 2.79zm0 2.535l-4.004-2.79v.982l4.004 2.79zm0 2.536l-4.004-2.79v.982l4.004 2.79zm-.207 2.535l-4.004-2.79v.982l4.004 2.79zm0 2.536l-4.004-2.79v.981l4.004 2.79z"/><path d="M203.935 80.899c.274.194.548.392.814.594v1.175h-.814v-1.77zm.815 1.989h-.815v1.768h.815zm0 1.768h-.815v1.768h.815zm0 1.768h-.815v1.768h.815zm0 1.99h-.815v1.768h.815zm0 1.768h-.815v1.768h.815zm0 1.768h-.815v1.767h.815zm0 1.989h-.815v1.768h.815zm0 1.768h-.815v1.768h.815zm0 1.768h-.815v1.768h.815zm0 1.989h-.815v1.768h.815zm0 1.768h-.815V103h.815zm0 1.768h-.815v1.768h.815z" stroke="#000" fill="gold" stroke-width=".278" stroke-linecap="square"/><path d="M215.24 77.974h2.326v26.039h-2.325z"/><path fill="gold" stroke-width=".331" stroke-linecap="square" stroke="#000" d="M217.566 77.974h1.155v1.769h-1.155zm0 1.99h1.155v1.768h-1.155zm0 1.768h1.155V83.5h-1.155zm0 1.768h1.155v1.768h-1.155zm0 1.99h1.155v1.767h-1.155zm0 1.767h1.155v1.768h-1.155zm0 1.768h1.155v1.768h-1.155zm0 1.989h1.155v1.769h-1.155zm0 1.769h1.155v1.768h-1.155z"/><path fill="gold" stroke-width=".331" stroke-linecap="square" stroke="#000" d="M217.566 94.55h1.155v1.768h-1.155zm0 1.99h1.155v1.768h-1.155zm0 1.768h1.155v1.768h-1.155zm0 1.768h1.155v1.768h-1.155zm0 1.989h1.155v1.768h-1.155zm-2.351-24.008c-.398.159-.783.34-1.163.517v1.253h1.163v-1.77zm-1.156 1.994h1.155v1.768h-1.155zm0 1.769h1.155v1.767h-1.155zm0 1.767h1.155v1.768h-1.155zm0 1.99h1.155v1.768h-1.155zm0 1.768h1.155v1.768h-1.155z"/><path fill="gold" stroke-width=".331" stroke-linecap="square" stroke="#000" d="M214.059 89.112h1.155v1.768h-1.155zm0 1.99h1.155v1.768h-1.155zm0 1.768h1.155v1.768h-1.155zm0 1.768h1.155v1.768h-1.155zm0 1.99h1.155v1.768h-1.155z"/><path fill="gold" stroke-width=".331" stroke-linecap="square" stroke="#000" d="M214.059 98.395h1.155v1.768h-1.155zm0 1.768h1.155v1.768h-1.155zm0 1.99h1.155v1.768h-1.155zm3.457-22.959a1.096 1.096 0 1 1-2.192 0 1.096 1.096 0 1 1 2.192 0zm0 2.562a1.096 1.096 0 1 1-2.192 0 1.096 1.096 0 1 1 2.192 0zm0 2.561a1.096 1.096 0 1 1-2.192 0 1.096 1.096 0 1 1 2.192 0zm0 2.561a1.096 1.096 0 1 1-2.192 0 1.096 1.096 0 1 1 2.192 0zm0 2.562a1.096 1.096 0 1 1-2.192 0 1.096 1.096 0 1 1 2.192 0zm0 2.56a1.096 1.096 0 1 1-2.192 0 1.096 1.096 0 1 1 2.192 0zm0 2.562a1.096 1.096 0 1 1-2.192 0 1.096 1.096 0 1 1 2.192 0zm0 2.561a1.096 1.096 0 1 1-2.192 0 1.096 1.096 0 1 1 2.192 0zm0 2.562a1.096 1.096 0 1 1-2.192 0 1.096 1.096 0 1 1 2.192 0zm0 2.561a1.096 1.096 0 1 1-2.192 0 1.096 1.096 0 1 1 2.192 0z"/><path d="M198.782 77.974h-2.325v26.039h2.325z"/><path fill="gold" stroke-width=".331" stroke-linecap="square" stroke="#000" d="M196.457 77.974h-1.155v1.769h1.155zm0 1.99h-1.155v1.768h1.155zm0 1.768h-1.155V83.5h1.155zm0 1.768h-1.155v1.768h1.155zm0 1.99h-1.155v1.767h1.155zm0 1.767h-1.155v1.768h1.155zm0 1.768h-1.155v1.768h1.155zm0 1.989h-1.155v1.769h1.155zm0 1.769h-1.155v1.768h1.155z"/><path fill="gold" stroke-width=".331" stroke-linecap="square" stroke="#000" d="M196.457 94.55h-1.155v1.768h1.155zm0 1.99h-1.155v1.768h1.155zm0 1.768h-1.155v1.768h1.155zm0 1.768h-1.155v1.768h1.155zm0 1.989h-1.155v1.768h1.155zm2.351-24.008c.398.159.782.34 1.162.517v1.253h-1.162v-1.77zm1.156 1.994h-1.155v1.768h1.155zm0 1.769h-1.155v1.767h1.155zm0 1.767h-1.155v1.768h1.155zm0 1.99h-1.155v1.768h1.155zm0 1.768h-1.155v1.768h1.155z"/><path fill="gold" stroke-width=".331" stroke-linecap="square" stroke="#000" d="M199.964 89.112h-1.155v1.768h1.155zm0 1.99h-1.155v1.768h1.155zm0 1.768h-1.155v1.768h1.155zm0 1.768h-1.155v1.768h1.155zm0 1.99h-1.155v1.768h1.155z"/><path fill="gold" stroke-width=".331" stroke-linecap="square" stroke="#000" d="M199.964 98.395h-1.155v1.768h1.155zm0 1.768h-1.155v1.768h1.155zm0 1.99h-1.155v1.768h1.155zm-3.457-22.959a1.096 1.096 0 1 0 2.192 0 1.096 1.096 0 1 0-2.192 0zm0 2.562a1.096 1.096 0 1 0 2.192 0 1.096 1.096 0 1 0-2.192 0zm0 2.561a1.096 1.096 0 1 0 2.192 0 1.096 1.096 0 1 0-2.192 0zm0 2.561a1.096 1.096 0 1 0 2.192 0 1.096 1.096 0 1 0-2.192 0zm0 2.562a1.096 1.096 0 1 0 2.192 0 1.096 1.096 0 1 0-2.192 0zm0 2.56a1.096 1.096 0 1 0 2.192 0 1.096 1.096 0 1 0-2.192 0zm0 2.562a1.096 1.096 0 1 0 2.192 0 1.096 1.096 0 1 0-2.192 0zm0 2.561a1.096 1.096 0 1 0 2.192 0 1.096 1.096 0 1 0-2.192 0zm0 2.562a1.096 1.096 0 1 0 2.192 0 1.096 1.096 0 1 0-2.192 0zm0 2.561a1.096 1.096 0 1 0 2.192 0 1.096 1.096 0 1 0-2.192 0z"/><path d="M205.655 69.554v2.725h-2.79v2.894h2.79v8.15h2.713v-8.15h2.79v-2.894h-2.79v-2.725h-2.713z" stroke="#000" fill="gold" stroke-width=".387"/><path d="M204.751 81.489v23.662l2.26.025 2.26-.025V81.489a40.959 40.959 0 0 0-2.26 1.86 41.16 41.16 0 0 0-2.26-1.86z" stroke="#000" stroke-width=".331" stroke-linecap="square"/><path d="M207.011 93.746a1.9 1.9 0 0 0-1.885 1.885v1.486c-1.054 0-1.892-.117-2.803.452-.41.304-.75.822-.75 1.434 0 .611.34 1.129.75 1.433.602.435 1.555.483 2.376.452-1.072 1.724-2.922 3.075-5.011 3.113-1.96.036-3.825-1.345-4.999-3.087.906 0 1.59.075 2.377-.452a1.75 1.75 0 0 0 .75-1.434c0-.611-.338-1.132-.75-1.433-.717-.523-1.866-.468-2.816-.452v-1.486c0-1.01-.842-1.885-1.873-1.885a1.9 1.9 0 0 0-1.885 1.885v1.486c-1.058 0-1.916-.142-2.816.452a1.74 1.74 0 0 0-.75 1.433c0 .612.338 1.133.75 1.434.618.45 1.6.481 2.441.452-.91 1.766-2.953 3.23-4.533 3.23-1.933 0-3.057-.617-4.327-2.3.942-.322 1.64-.44 2.273-1.227.32-.397.466-1.02.271-1.602-.195-.584-.689-.966-1.175-1.123-.848-.274-1.917.131-2.816.452l-.465-1.408c-.317-.95-1.39-1.526-2.363-1.201a1.89 1.89 0 0 0-.827.568c.366 3.415 1.8 6.882 4.572 10.397h.13c9.022-1.609 17.228-1.656 26.154-1.524 8.926-.132 17.132-.085 26.155 1.524h.13c2.772-3.515 4.205-6.982 4.571-10.397a1.89 1.89 0 0 0-.826-.568c-.974-.325-2.047.251-2.364 1.201l-.465 1.408c-.899-.32-1.967-.726-2.815-.452-.487.157-.98.54-1.176 1.123a1.734 1.734 0 0 0 .271 1.602c.634.786 1.332.905 2.274 1.227-1.27 1.683-2.394 2.3-4.327 2.3-1.58 0-3.623-1.464-4.534-3.23.841.03 1.824-.001 2.441-.452.413-.3.75-.822.75-1.434a1.74 1.74 0 0 0-.75-1.433c-.9-.594-1.757-.452-2.815-.452v-1.486a1.9 1.9 0 0 0-1.886-1.885c-1.03 0-1.873.874-1.873 1.885v1.486c-.949-.016-2.098-.071-2.815.452-.413.3-.75.822-.75 1.433 0 .612.325 1.15.75 1.434.786.527 1.47.452 2.376.452-1.174 1.742-3.038 3.123-4.998 3.087-2.09-.038-3.94-1.39-5.012-3.113.822.03 1.774-.017 2.377-.452.41-.304.749-.822.749-1.433 0-.612-.34-1.13-.75-1.434-.91-.569-1.748-.452-2.802-.452V95.63a1.9 1.9 0 0 0-1.886-1.885z" font-family="Sans" fill="gold" stroke-width=".414" stroke="#000"/><path d="M207.011 94.779a.853.853 0 0 0-.852.852v2.52h-2.403c-.635 0-1.15.381-1.15.852 0 .47.515.852 1.15.852h2.403v.465c-.74 2.76-4.105 4.107-6.471 4.766-2.367-.66-5.733-2.01-6.471-4.766v-.44h2.415c.636 0 1.15-.381 1.15-.852 0-.47-.514-.852-1.15-.852h-2.415v-2.519c0-.47-.37-.852-.84-.852a.853.853 0 0 0-.852.852v2.519h-2.415c-.636 0-1.15.382-1.15.852s.514.853 1.15.853h2.415v.478c-.708 2.643-3.6 4.13-5.941 4.817-2.451.149-4.11-1.027-5.735-3.487l-.142-.413 2.286-.775c.603-.202.976-.717.827-1.163-.15-.446-.766-.653-1.37-.452l-2.286.762-.8-2.39a.834.834 0 0 0-1.06-.542.862.862 0 0 0-.542 1.085l.8 2.39-.464.155a18.565 18.565 0 0 0 .646 1.576c.735 1.582 1.719 3.175 2.983 4.778h.13c9.022-1.609 17.228-1.656 26.154-1.524 8.926-.132 17.132-.085 26.155 1.524h.13c1.264-1.603 2.247-3.196 2.983-4.778a18.044 18.044 0 0 0 .646-1.576l-.465-.155.8-2.39a.862.862 0 0 0-.542-1.085.834.834 0 0 0-1.06.543l-.8 2.39-2.286-.763c-.603-.201-1.22.006-1.37.452-.148.446.224.961.827 1.163l2.287.775-.142.413c-1.626 2.46-3.284 3.636-5.735 3.487-2.342-.687-5.233-2.174-5.942-4.817v-.478h2.416c.635 0 1.15-.382 1.15-.853 0-.47-.515-.852-1.15-.852h-2.416v-2.519a.853.853 0 0 0-.852-.852c-.47 0-.84.382-.84.852v2.519h-2.415c-.635 0-1.15.382-1.15.852s.515.853 1.15.853h2.415v.439c-.738 2.756-4.104 4.106-6.47 4.766-2.367-.66-5.732-2.005-6.471-4.766v-.465h2.402c.636 0 1.15-.382 1.15-.852s-.514-.853-1.15-.853h-2.402v-2.519a.853.853 0 0 0-.853-.852z"/><path d="M180.856 106.7c-.725 1.148-.628 1.655.272 2.183 8.284-2.204 16.932-1.989 25.883-1.989s17.6-.215 25.884 1.99c.9-.53.997-1.036.271-2.184-9.023-1.609-17.228-1.513-26.155-1.524-8.812-.01-18.492.192-26.155 1.524z" fill="gold" stroke="#000" stroke-width=".414"/><path d="M207.257 105.176c.36.573.717 1.144 1.072 1.718h.697c-.351-.572-.702-1.147-1.059-1.718h-.71zm2.686 0c.351.573.701 1.144 1.046 1.718h.698c-.341-.57-.687-1.135-1.033-1.705-.237 0-.474-.012-.71-.013zm-5.412.013c.368.57.736 1.133 1.098 1.705h.724c-.361-.572-.733-1.134-1.098-1.705h-.724zm8.099 0c.338.568.675 1.136 1.007 1.705.237.002.474.01.71.013-.332-.574-.669-1.146-1.007-1.718h-.71zm-10.1.013c-.242.003-.482.01-.724.013.37.56.746 1.117 1.11 1.68h.724c-.365-.567-.74-1.128-1.11-1.693zm12.786.013c.331.572.657 1.144.982 1.718.231.004.466.007.697.013-.323-.576-.652-1.144-.981-1.718-.233-.004-.465-.01-.698-.013zm-15.512.026l-.723.013c.371.547.745 1.091 1.11 1.64h.711c-.365-.552-.727-1.103-1.098-1.653zm18.186.039c.323.577.652 1.151.969 1.73.233.01.464.015.697.026-.313-.577-.636-1.154-.956-1.73-.236-.008-.474-.02-.71-.026zm-21.105.025c-.181.006-.361.02-.542.026.375.536.741 1.077 1.11 1.615l.724-.013c-.37-.544-.735-1.086-1.111-1.627-.06.001-.12-.002-.18 0zm23.778.065c.319.589.632 1.179.943 1.77.232.015.466.034.698.051-.31-.593-.613-1.19-.93-1.782-.239-.012-.472-.028-.71-.039zm-26.335.039c-.245.01-.493.014-.736.026.38.527.761 1.058 1.136 1.588.247-.01.49-.017.736-.026-.373-.532-.757-1.058-1.136-1.588zm29.022.103c.224.431.438.86.659 1.292.096.188.188.38.284.568.236.024.474.051.71.078-.298-.599-.598-1.2-.904-1.796l-.039-.077c-.238-.018-.473-.049-.71-.065zm-31.76.039c-.246.015-.492.023-.737.039.392.522.778 1.05 1.163 1.575.24-.017.482-.023.723-.038-.382-.527-.76-1.052-1.15-1.576zm-2.739.18c-.246.02-.491.044-.736.065.419.537.83 1.075 1.24 1.615.236-.025.474-.055.71-.078-.181-.242-.358-.481-.542-.723-.222-.293-.447-.587-.672-.878zm37.185.014c.324.65.637 1.297.943 1.95.238.034.473.066.71.103a79.505 79.505 0 0 0-.942-1.989c-.237-.024-.474-.042-.71-.064zm-39.936.245c-.245.026-.493.05-.736.077.469.554.92 1.116 1.37 1.68.229-.035.454-.072.684-.104-.434-.554-.867-1.107-1.318-1.653zm42.636.039c.318.7.617 1.4.904 2.105.234.045.464.106.697.155-.059-.155-.106-.31-.167-.465a52.322 52.322 0 0 0-.724-1.705 89.4 89.4 0 0 0-.71-.09zm-45.438.297c-.252.035-.502.067-.75.103.288.294.567.59.84.891.258.284.512.579.762.866.224-.044.448-.088.672-.13-.494-.582-1-1.163-1.524-1.73zm48.124.077c.259.66.492 1.324.66 1.99.028.104.052.207.077.31.166.04.337.072.503.116.063-.474-.124-1.034-.27-1.55-.075-.246-.146-.492-.233-.736-.246-.041-.492-.091-.737-.13zm-50.798.698c-.13.25-.205.469-.233.659.453.275.818.62 1.189.955.015.015.036.024.051.04.214-.055.432-.105.646-.156-.327-.337-.659-.68-1.02-.994a7.35 7.35 0 0 0-.633-.504zm25.096 5.386c-.235 0-.475.012-.71.013.42.674.838 1.35 1.252 2.028h.71c-.413-.682-.831-1.362-1.252-2.041zm1.937 0c.411.676.823 1.35 1.227 2.028.232-.002.466-.011.698-.013-.398-.672-.797-1.346-1.202-2.015h-.723zm2.648 0c.395.666.787 1.334 1.175 2.002.234-.003.465-.01.698-.013-.38-.66-.775-1.318-1.163-1.976-.236 0-.474-.013-.71-.013zm-7.97.013c.427.665.847 1.334 1.266 2.002.236.002.475-.003.71 0-.415-.668-.842-1.337-1.265-2.002h-.71zm10.605 0c.377.653.753 1.308 1.123 1.963.23-.003.456-.01.685-.013-.366-.652-.738-1.3-1.11-1.95h-.698zm-12.593.013c-.233.002-.465.01-.698.013.424.645.848 1.289 1.266 1.937.237.003.473.01.71.013-.42-.658-.851-1.308-1.278-1.963zm15.215 0c.358.638.72 1.271 1.072 1.911h.671a243.33 243.33 0 0 0-1.046-1.898c-.232-.003-.465-.011-.697-.013zm-17.889.038l-.723.013c.42.625.839 1.247 1.253 1.873.24.002.482.01.723.013-.416-.633-.831-1.268-1.253-1.899zm20.498 0c.344.63.695 1.255 1.033 1.886.219.002.44-.002.659 0-.333-.626-.67-1.248-1.008-1.873l-.684-.013zm-23.197.065c-.24.006-.484.006-.724.013.414.6.82 1.206 1.227 1.808.241 0 .482-.013.724-.013a411.09 411.09 0 0 0-1.227-1.808zm25.806 0c.329.62.658 1.238.981 1.86.23.006.456.018.685.026-.32-.621-.643-1.24-.969-1.86-.233-.008-.464-.02-.697-.026zm-28.519.077l-.723.026c.41.582.822 1.16 1.227 1.744.24-.006.482-.009.723-.013-.405-.587-.817-1.171-1.227-1.757zm31.115 0c.324.63.65 1.256.968 1.886.232.013.467.037.698.052-.317-.634-.633-1.267-.956-1.899-.237-.011-.473-.028-.71-.039zm-33.814.104c-.243.011-.482.026-.724.038.417.577.83 1.152 1.24 1.731.236-.012.474-.028.71-.039-.406-.576-.814-1.156-1.226-1.73zm36.449.039c.323.646.64 1.302.955 1.95.233.021.466.04.698.064-.32-.66-.642-1.316-.969-1.976-.228-.014-.456-.025-.684-.038zm-39.149.116c-.24.015-.471.035-.71.051.429.582.855 1.16 1.279 1.744.232-.02.464-.034.697-.052-.421-.583-.84-1.162-1.266-1.743zm41.758.077c.33.683.658 1.37.981 2.054.001.001.012-.002.013 0 .234.032.465.068.698.103-.329-.702-.659-1.404-.995-2.105-.232-.02-.465-.034-.697-.052zm-44.444.104c-.234.019-.466.044-.698.064.458.608.904 1.224 1.357 1.834.228-.03.455-.063.684-.09-.445-.604-.893-1.207-1.343-1.808zm47.066.116c.355.759.7 1.525 1.046 2.286.128.025.26.039.387.065.089-.053.16-.103.233-.155-.32-.707-.642-1.413-.969-2.119-.232-.024-.465-.054-.697-.077zm-49.714.129c-.15.016-.303.035-.452.052-.046.073-.077.138-.116.206.454.592.907 1.188 1.356 1.783.214-.04.43-.08.646-.117-.48-.638-.947-1.288-1.434-1.924z"/><path d="M206.753 107.282v.762c.574.474 1.151.942 1.718 1.42-.573.473-1.14.944-1.705 1.421v.762c.86-.73 1.73-1.45 2.609-2.17a192.87 192.87 0 0 0-2.622-2.195zm2.648.013l-.013.749c.568.481 1.131.973 1.692 1.46-.578.465-1.148.924-1.718 1.394l-.013.762c.87-.719 1.748-1.436 2.635-2.144a193.417 193.417 0 0 0-2.583-2.221zm-5.283.012l.013.75c.58.466 1.158.936 1.73 1.407-.566.48-1.133.963-1.691 1.447l.013.762c.85-.74 1.714-1.479 2.583-2.209a190.314 190.314 0 0 0-2.648-2.157zm7.918.026l-.013.762c.562.489 1.111.98 1.666 1.473-.584.458-1.167.919-1.744 1.382l-.013.749c.878-.708 1.765-1.408 2.661-2.105a196.046 196.046 0 0 0-2.557-2.26zm-10.553.026l.013.762c.586.46 1.178.918 1.757 1.382-.56.487-1.127.968-1.68 1.46l.026.762c.84-.752 1.685-1.494 2.545-2.235-.881-.714-1.761-1.428-2.66-2.13zm13.187.052l-.025.762c.556.495 1.104.986 1.653 1.485-.59.451-1.175.913-1.757 1.37l-.026.748c.887-.697 1.783-1.393 2.687-2.08a198.137 198.137 0 0 0-2.532-2.285zm-15.822.039l.026.749c.592.451 1.186.912 1.77 1.369-.554.494-1.108.987-1.654 1.485l.026.762c.83-.762 1.669-1.522 2.519-2.273-.89-.703-1.778-1.402-2.687-2.092zm18.457.077l-.038.75a182.1 182.1 0 0 1 1.64 1.51c-.595.444-1.182.895-1.77 1.344l-.038.749c.895-.687 1.8-1.366 2.712-2.041a200.131 200.131 0 0 0-2.506-2.312zm-21.104.052l.051.749c.598.443 1.193.894 1.783 1.343-.548.501-1.102 1.006-1.64 1.511l.051.75c.82-.773 1.64-1.537 2.48-2.3a184.22 184.22 0 0 0-2.725-2.053zm23.74.09l-.04.75c.544.508 1.079 1.024 1.615 1.536-.6.437-1.202.876-1.795 1.318l-.04.749c.905-.676 1.819-1.35 2.739-2.015-.816-.788-1.645-1.56-2.48-2.338zm-26.375.065l.051.749c.604.436 1.213.876 1.809 1.317a196.95 196.95 0 0 0-1.615 1.537l.052.75a175.99 175.99 0 0 1 2.454-2.338c-.908-.68-1.825-1.349-2.751-2.015zm29.009.103l-.052.75c.538.514 1.072 1.03 1.602 1.55-.605.429-1.21.87-1.808 1.304l-.052.749c.912-.665 1.823-1.323 2.751-1.976a204.024 204.024 0 0 0-2.441-2.377zm-31.631.09l.051.75c.61.427 1.22.858 1.822 1.291-.534.515-1.064 1.03-1.59 1.55l.066.762c.799-.794 1.608-1.592 2.428-2.376a180.115 180.115 0 0 0-2.777-1.977zm34.266.117l-.065.749c.532.521 1.052 1.05 1.576 1.576-.61.422-1.218.838-1.821 1.265l-.065.762c.92-.654 1.854-1.308 2.79-1.95a210.53 210.53 0 0 0-2.415-2.402zm-36.901.116l.077.75c.616.418 1.227.84 1.834 1.265-.526.522-1.057 1.049-1.575 1.576l.077.749c.788-.805 1.58-1.607 2.39-2.403a178.243 178.243 0 0 0-2.803-1.937zm39.523.116l-.078.75c.526.527 1.058 1.057 1.576 1.588-.615.415-1.238.833-1.847 1.253l-.065.749c.928-.643 1.86-1.28 2.803-1.912-.788-.815-1.583-1.62-2.39-2.428zm-42.145.142l.077.75c.622.41 1.234.836 1.847 1.252-.52.53-1.026 1.055-1.537 1.589l.078.749c.777-.816 1.566-1.622 2.364-2.428a177.056 177.056 0 0 0-2.829-1.912zm44.767.13l-.078.749c.52.533 1.039 1.064 1.55 1.601-.62.408-1.247.814-1.86 1.227l-.077.762a208.78 208.78 0 0 1 2.828-1.886 211.188 211.188 0 0 0-2.363-2.454zm-47.389.18l.09.75c.627.402 1.242.805 1.86 1.213-.512.537-1.02 1.074-1.524 1.615l.09.75c.766-.828 1.551-1.65 2.338-2.468a174.78 174.78 0 0 0-2.854-1.86zm-1.95.762v.685c.44.276.881.548 1.317.826-.449.484-.901.973-1.343 1.46l-.013.878c.738-.82 1.488-1.644 2.247-2.454-.73-.472-1.467-.93-2.208-1.395z" fill="gold"/><path d="M222.898 114.515c5.528 6.805 11.357 8.459 17.372 6.897-3.453-1.721-6.678-3.567-8.718-6.02-2.835-.504-5.718-.762-8.654-.877z" stroke="#000" fill="#6495ed" stroke-width=".207"/><path d="M246.922 104.763c-.367 0-.712.027-1.008.09-3.78.814-5.562 9.771-6.677 10.953-1.087 1.152-2.128 2.348-4.017 2.764 1.535 1.023 3.261 1.95 5.05 2.842 3.153-1.306 5.033-6.305 5.399-7.724 1.971-7.642 4.984-7.336 7.633-7.556.087-.018-3.816-1.372-6.38-1.369z" stroke="#000" fill="#00f" stroke-width=".207"/><path d="M253.29 106.132c-1.825.15-3.82.067-5.529 2.493.543-.475 2.862 2.6 3.022 5.618.149 2.79 2.627 2.52 2.92 7.853 1.855.767 3.84-.026 5.786-.336.848.122 1.522-3.769.271-5.334-1.289-1.612-2.724-2.82-3.836-4.56-1.128-1.765-2.604-5.686-2.622-5.734h-.013z" stroke="#000" fill="#6495ed" stroke-width=".207" stroke-linecap="square"/><path d="M259.437 119.173c-2.283-.14-3.613.941-6.683.793-.765.74.302 1.516.97 2.126 2.082.76 3.807.002 5.634-.323-1.007-1.327-.962-2.665.08-2.596z" stroke="#000" fill="#00f" stroke-width=".207" stroke-linecap="square"/><path d="M191.066 114.527c-5.528 6.805-11.357 8.459-17.372 6.897 3.453-1.721 6.679-3.568 8.719-6.02 2.834-.504 5.717-.762 8.653-.877z" stroke="#000" fill="#6495ed" stroke-width=".207"/><path d="M167.043 104.775c.366 0 .71.027 1.007.09 3.78.814 5.563 9.771 6.678 10.953 1.086 1.152 2.128 2.348 4.017 2.764-1.535 1.023-3.262 1.95-5.05 2.842-3.154-1.306-5.033-6.306-5.4-7.724-1.971-7.642-4.983-7.336-7.633-7.556-.086-.018 3.817-1.372 6.38-1.369z" stroke="#000" fill="#00f" stroke-width=".207"/><path d="M160.675 106.144c1.824.15 3.82.067 5.528 2.493-.542-.475-2.862 2.6-3.022 5.618-.149 2.79-2.627 2.52-2.92 7.853-1.855.767-3.84-.026-5.786-.336-.848.122-1.522-3.77-.27-5.334 1.288-1.612 2.724-2.82 3.835-4.56 1.129-1.765 2.604-5.687 2.622-5.734h.013z" stroke="#000" fill="#6495ed" stroke-width=".207" stroke-linecap="square"/><path d="M154.527 119.185c2.283-.14 3.613.941 6.683.793.765.74-.301 1.516-.969 2.126-2.083.76-3.808.002-5.635-.324 1.007-1.326.962-2.664-.079-2.595z" stroke="#000" fill="#00f" stroke-width=".207" stroke-linecap="square"/><path d="M309.153 235.705c.576 2.437.991 4.875 1.041 7.312l2.205 1.065.061.037 5.39 2.634c-.192-.917-.055-1.891.122-2.756-2.149-1.348-4.393-1.596-6.639-1.874l-2.18-6.418z" fill="#7f6b00"/><path d="M309.151 235.7l.347 7.806 9.936 5.185-.367-1.355c-2.899-1.562-5.616-3.486-8.877-4.325-.05-2.437-.463-4.874-1.039-7.311z"/><path d="M309.153 235.705l.343 7.802 8.819 4.593c-.096-.262-.206-.54-.294-.772a3.9 3.9 0 0 1-.196-.673c-2.452-1.402-4.838-2.92-7.63-3.638-.05-2.437-.466-4.875-1.042-7.312z"/><path d="M60.123 61.704l.012.168v314.076c0 15.585 12.63 28.216 28.216 28.216h90.412c15.585 0 28.216 12.63 28.216 28.216 0-15.585 12.63-28.216 28.215-28.216h90.413c15.585 0 28.216-12.63 28.216-28.216V61.764l.012-.06H60.123z" stroke="#000" fill="none" stroke-width="2.067"/><path fill="red" d="M1080 0h270v900h-270z"/></svg>