<svg xmlns="http://www.w3.org/2000/svg" width="800" height="533.333" version="1"><defs><clipPath id="n"><path d="M319.208 557.577c6.423-45.166 13.923-90.585-24.243-125.259-46.763 9.47-280.785 4.415-269.711 120.208l293.954 5.051z" fill="none" stroke="#000" stroke-width="4" stroke-linejoin="round"/></clipPath><clipPath id="m"><path d="M319.208 557.577c6.423-45.166 13.923-90.585-24.243-125.259-46.763 9.47-280.785 4.415-269.711 120.208l293.954 5.051z" fill="none" stroke="#000" stroke-width="4" stroke-linejoin="round"/></clipPath><clipPath id="l"><path d="M287.893 460.602c6.423-45.165-7.29-85.534-52.527-110.106-46.763 9.47-143.404 36.74-129.3 130.31l181.827-20.204z" fill="none" stroke="#000" stroke-width="4" stroke-linejoin="round"/></clipPath><clipPath id="k"><path d="M297.322 187.631c6.423-45.166-7.29-85.534-52.528-110.106-46.762 9.47-143.404 36.74-129.3 130.31l181.828-20.204z" fill="none" stroke="#000" stroke-width="4" stroke-linejoin="round"/></clipPath><clipPath id="j"><path d="M187.888 392.922c-37.832-61.95-199.782-62.494-219.203-4.04-1.176 97.799 1.503 193.579 111.117 233.345l108.086-229.305z" fill="none" stroke="#000" stroke-width="4" stroke-linejoin="round"/></clipPath><clipPath id="i"><path d="M187.888 392.922c-37.832-61.95-199.782-62.494-219.203-4.04-1.176 97.799 1.503 193.579 111.117 233.345l108.086-229.305z" fill="none" stroke="#000" stroke-width="4" stroke-linejoin="round"/></clipPath><clipPath id="h"><path d="M28.284 362.618c-8.557-64.847 102.258-74.943 127.28-76.772 51.7-4.549 89.61 7.094 79.802 74.751-62.585 80.135-137.276 10.946-207.082 2.02z" fill="none" stroke="#000" stroke-width="4" stroke-linejoin="round"/></clipPath><clipPath id="g"><path d="M28.284 362.618c-8.557-64.847 102.258-74.943 127.28-76.772 51.7-4.549 89.61 7.094 79.802 74.751-62.585 80.135-137.276 10.946-207.082 2.02z" fill="none" stroke="#000" stroke-width="4" stroke-linejoin="round"/></clipPath><clipPath id="f"><path d="M94.954 310.09c-35.92-44.817-74.602-37.177-113.137-32.325-9.15 65.295-3.535 116.44 51.518 120.208l61.62-87.883z" fill="none" stroke="#000" stroke-width="4" stroke-linejoin="round"/></clipPath><clipPath id="e"><path d="M94.954 310.09c-35.92-44.817-74.602-37.177-113.137-32.325-9.15 65.295-3.535 116.44 51.518 120.208l61.62-87.883z" fill="none" stroke="#000" stroke-width="4" stroke-linejoin="round"/></clipPath><clipPath id="c"><path d="M-17.173 148.465c35.726-49.377 104.046-10.763 112.127 20.203 16.029 31.305 11.1 98.18 47.478 137.381l-178.797 40.406 19.192-197.99z" fill="none" stroke="#000" stroke-width="4" stroke-linejoin="round"/></clipPath><clipPath id="a"><path d="M-17.173 148.465c35.726-49.377 104.046-10.763 112.127 20.203 16.029 31.305 11.1 98.18 47.478 137.381l-178.797 40.406 19.192-197.99z" fill="none" stroke="#000" stroke-width="4" stroke-linejoin="round"/></clipPath><clipPath id="d"><path d="M193.788.602c.186-17.047-11.707-48.8-23.46-49.173-54.876 2.955-84.356-83.577-88.299-101.867-.358-12.88-3.642-23.62-12.674-30.154 1.774-17.764 21.745-30.945 32.216-29.76 5.074 9.927 15.184 14.816 27.858 17.143 17.47 6.697 98.466 49.082 87.142 102.857-1.432 11.672 28.126 28.287 45 30.714-34.299 10.326-56.338 30.869-67.783 60.24z" fill="none" stroke="#000" stroke-width="4" stroke-linejoin="round"/></clipPath><clipPath id="b"><path d="M184.36 273.573c.185-17.047-11.708-48.8-23.461-49.173-54.875 2.955-84.355-83.577-88.298-101.867-.358-12.88-3.642-23.62-12.675-30.154C61.7 74.615 81.671 61.434 92.143 62.62c5.073 9.927 15.183 14.816 27.857 17.143 17.47 6.697 98.467 49.082 87.143 102.857-1.432 11.672 28.126 28.287 45 30.714-34.3 10.326-56.339 30.869-67.784 60.24z" fill="none" stroke="#000" stroke-width="4" stroke-linejoin="round"/></clipPath></defs><g stroke-linejoin="round"><path fill="#da251d" stroke-width="4.9" d="M-34.286-38.095h880v620h-880z"/><path d="M264.286 220.833c10.453 13.829-32.762 70.688-73.572 62.5-16.533-47.572 17.908-86.044 73.572-62.5z" fill="#fff" stroke="#000" stroke-width="4"/><path clip-path="url(#a)" fill="#ffd400" stroke-width="4" d="M-20.714 108.333H140v203.571H-20.714z"/><path clip-path="url(#b)" fill="#fff" stroke-width="4" d="M35.714 53.333h225V291.19h-225z"/><path d="M110.714 207.976c-12.523-15-57.65-98.904-116.428-60.714-9.216-46.748 37.943-30.246 63.928-37.5 29.049 28.508 55.305 60.337 52.5 98.214z" clip-path="url(#c)" fill="#f19e29" stroke-width="4"/><path d="M-17.173 148.465c35.726-49.377 104.046-10.763 112.127 20.203 16.029 31.305 11.1 98.18 47.478 137.381l-178.797 40.406 19.192-197.99z" fill="none" stroke="#000" stroke-width="4"/><path d="M192.286 6.076c12.6-22.619-.49-57.738-10-67.857-9.229-10.1-37.957-6.698-50-21.428-24.57-25.419-37.026-67.637-47.5-88.215-1.474-6.662-5.778-13.166-13.215-16.785l-7.857 40.714C83.092-71.445 142.51-37.788 192.286 6.076z" clip-path="url(#d)" fill="#ccc" stroke-width="4" transform="translate(-9.429 272.971)"/><path clip-path="url(#e)" fill="#ffd400" stroke-width="4" d="M-22.223 260.592H82.833v114.147H-22.223z"/><path d="M81.822 318.17C63.496 288.108 6.386 284.184-6.06 290.393c-12.03-25.865 20.861-27.542 41.416-35.86 76.094 12.415 48.733 39.848 46.467 63.639z" clip-path="url(#f)" fill="#f19e29" stroke-width="4"/><path d="M94.954 310.09c-35.92-44.817-74.602-37.177-113.137-32.325-9.15 65.295-3.535 116.44 51.518 120.208l61.62-87.883z" fill="none" stroke="#000" stroke-width="4"/><path clip-path="url(#g)" fill="#ffd400" stroke-width="4" d="M15.714 255.476h230.714v136.429H15.714z"/><path d="M237.5 303.333c-43.902-10.681-208.77-14.238-196.786 75C-5.835 354.06 23.934 322.154 30 292.62c72.649-7.946 154.074-39.009 207.5 10.714z" clip-path="url(#h)" fill="#f19e29" stroke-width="4"/><path d="M28.284 362.618c-8.557-64.847 102.258-74.943 127.28-76.772 51.7-4.549 89.61 7.094 79.802 74.751-62.585 80.135-137.276 10.946-207.082 2.02z" fill="none" stroke="#000" stroke-width="4"/><path clip-path="url(#i)" fill="#ffd400" stroke-width="4" d="M-37.376 313.12h206.071v239.406H-37.376z"/><path d="M170.716 388.882c-38.76-42.237-154.854-42.22-196.98 10.101-3.572-80.072 67.259-64.714 122.228-69.7 60.662 5.965 86.817 25.35 74.752 59.599z" clip-path="url(#j)" fill="#f19e29" stroke-width="4"/><path d="M187.888 392.922c-37.832-61.95-199.782-62.494-219.203-4.04-1.176 97.799 1.503 193.579 111.117 233.345l108.086-229.305z" fill="none" stroke="#000" stroke-width="4"/><path clip-path="url(#k)" fill="#ffd400" stroke-width="4" d="M101.352 60.352h212.132v156.574H101.352z" transform="translate(-9.429 272.971)"/><path d="M247.992 352.516c-78.26 23.174-143.635 52.925-128.794 112.127l-55.558-1.01c32.45-77.64 108.826-145.806 184.352-111.117z" clip-path="url(#l)" fill="#f19e29" stroke-width="4"/><path d="M287.893 460.602c6.423-45.165-7.29-85.534-52.527-110.106-46.763 9.47-143.404 36.74-129.3 130.31l181.827-20.204z" fill="none" stroke="#000" stroke-width="4"/><path clip-path="url(#m)" fill="#ffd400" stroke-width="4" d="M15.714 409.048h325v143.571h-325z"/><path d="M158.571 222.619c10.985-18.539 23.712-35.336 47.858-40.714" fill="none" stroke="#000" stroke-width="4"/><path d="M59.286 92.262c-8.759 7.351-30.39-4.24-22.857-19.643 11.15-19.412 26.114-30.105 43.928-34.286C93.012 35.02 107.333 55.643 92.5 62.62" fill="#fff" stroke="#000" stroke-width="4"/><path d="M40.357 89.048c10.462-22.634 29.553-36.638 54.286-45" fill="none" stroke="#000" stroke-width="4"/><path d="M238.396 232.308c48.445 34.385 142.293 78.378 139.401 162.634 24.294 33.335 44.678 66.67 55.558 100.006 5.996 20.203 27.664 40.406 46.467 60.609l-152.533-9.092c41.695-75.042-49.585-197.647-66.67-213.142-21.682-20.274-40.52-46.24-59.599-71.72l37.376-29.295z" fill="#fff" stroke="#000" stroke-width="4"/><path d="M50.003 559.597C17.635 446.54 277.537 442.472 314.663 447.975l-12.627-30.304c-107.419 27.665-272.11-7.083-284.863 123.744l32.83 18.182z" clip-path="url(#n)" fill="#f19e29" stroke-width="4"/><path d="M319.208 557.577c6.423-45.166 13.923-90.585-24.243-125.259-46.763 9.47-280.785 4.415-269.711 120.208l293.954 5.051zm82.221-23.529c-26.696-14.398-43.715-37.088-57.143-62.858m-7.143-16.428c-3.818-59.424-46.419-95.577-76.429-139.286m-42.143-58.571c19.554 27.202 41.684 51.313 70.715 67.143 26.273 12.56 56.562 37.952 80 65m-80-55c47.948 35 75.817 70 91.428 105 14.57 35.214 36.158 66.92 62.143 96.428m-185.714-255c40.165 27.827 84.619 52.794 108.571 91.429m-7.857-25c-25.216-43.694-84.07-65.982-127.857-97.857m-45.64 24.525c.185-17.047-11.708-48.8-23.461-49.173-54.875 2.955-84.355-83.577-88.298-101.867-.358-12.88-3.642-23.62-12.675-30.154C61.7 74.615 81.671 61.434 92.143 62.62c5.073 9.927 15.183 14.816 27.857 17.143 17.47 6.697 98.467 49.082 87.143 102.857-1.432 11.672 28.126 28.287 45 30.714-34.3 10.326-56.339 30.869-67.784 60.24z" fill="none" stroke="#000" stroke-width="4"/><path d="M251.071 213.69c7.625-1.697 17.09 6.234 10.358 8.572-28.981 12.397-53.997 27.021-67.858 56.428-3.571 7.144-10.799.663-9.642-5 14.837-34.278 32.631-47.272 67.142-60z" fill="#fff" stroke="#000" stroke-width="4"/><path d="M192.054 280.565l4.91-7.946m58.393-47.589l7.232-3.482" fill="none" stroke="#fff" stroke-width="4.9"/></g></svg>