<svg xmlns="http://www.w3.org/2000/svg" xmlns:xlink="http://www.w3.org/1999/xlink" width="450" height="300"><defs><path d="M20 0h10v30H20zm10 10h10v10H30zm0 20h30v10H30zm10-10h10v10H40zM0 20h10v10H0zm30 30h10v10H30zM0 30h30v30zm50 20h10v10H50zM30 60h20v20z" id="a" fill="#fff" stroke="#fff" stroke-width=".5"/></defs><path fill="#0080FF" d="M0 0h450v300H0z"/><g transform="rotate(-45 253.228 146.61)"><use xlink:href="#a"/><use x="50" y="50" xlink:href="#a"/><use x="100" y="100" xlink:href="#a"/><use x="150" y="150" xlink:href="#a"/><use x="200" y="200" xlink:href="#a"/><use x="250" y="250" xlink:href="#a"/><use x="300" y="300" xlink:href="#a"/></g><path fill="red" d="M0 250h450v7H0z"/><path fill="#0080FF" d="M0 243h450v7H0z"/></svg>