<svg xmlns="http://www.w3.org/2000/svg" xmlns:xlink="http://www.w3.org/1999/xlink" width="1000" height="600"><g transform="translate(2.953 6.181)" fill-rule="evenodd"><path fill="#000f5d" d="M-2.953-6.181h1000v600h-1000z"/><path d="m425.09 383.144 1.83-2.446 2.198 1.643 7.17-9.59-2.197-1.642 1.83-2.447 8.183 6.12-1.83 2.447-2.217-1.66-7.17 9.589 2.216 1.66-1.829 2.445zm14.774 10.663 1.325-2.754 2.179 1.048 5.19-10.79-2.179-1.048 1.325-2.753 6.83 3.285 1.117 13.061 3.569-7.416-2.121-1.02 1.324-2.753 7.31 3.516-1.323 2.754-2.286-1.099-6.57 13.66-3.633-1.747-1.218-15.46-4.43 9.208 2.051.987-1.325 2.753zm25.365 11.167.64-2.988 2.682.575 2.506-11.708-2.682-.575.64-2.987 8.377 1.794c1.763.377 3.16.79 4.19 1.236 1.03.446 1.957 1.146 2.78 2.098.825.952 1.401 2.113 1.727 3.486.327 1.373.328 2.819.003 4.335a10.211 10.211 0 0 1-1.376 3.382c-.653 1.025-1.36 1.814-2.121 2.364a7.021 7.021 0 0 1-2.555 1.155c-.941.22-1.783.312-2.525.277-.741-.034-1.861-.213-3.362-.534zm7.91-1.43 1.107.236c1.339.286 2.438.34 3.296.16.858-.18 1.619-.657 2.282-1.432.662-.776 1.144-1.871 1.448-3.286.288-1.348.294-2.543.016-3.587-.278-1.043-.787-1.83-1.529-2.362-.741-.53-1.743-.932-3.006-1.201l-1.106-.237zm19.674 6.056.048-3.055 2.743.045.194-11.972-2.742-.045.05-3.054 10.216.165-.05 3.054-2.768-.044-.193 11.972 2.768.045-.05 3.055zm35.351-6.087.505 3.012-8.77 1.47-.504-3.014 2.282-.382-1.36-2.923-4.629.776-.435 3.223 2.385-.399.505 3.012-7.898 1.325-.505-3.014 2.206-.37 1.494-12.391-2.37.398-.507-3.013 11.643-1.95.505 3.013-2.398.401 5.723 11.181zm-9.015-4.33-2.389-5.122-.703 5.64zm16.689 5.363-1.162-2.825 2.236-.92-4.552-11.074-2.236.92-1.162-2.826 7.01-2.882 10.459 7.901-3.13-7.611-2.176.895-1.16-2.826 7.502-3.084 1.162 2.825-2.345.964 5.763 14.02-3.727 1.533-12.31-9.432 3.885 9.45 2.104-.863 1.161 2.825zm38.126-24.363 1.765 2.494-7.26 5.136-1.764-2.495 1.89-1.336-2.496-2.04-3.831 2.71 1.01 3.092 1.973-1.396 1.765 2.494-6.538 4.625-1.764-2.495 1.825-1.29-4.04-11.811-1.962 1.39-1.764-2.494 9.636-6.818 1.765 2.494-1.985 1.404 10.014 7.583zm-10.001.022-4.377-3.577 1.82 5.386z" style="text-align:start;line-height:125%;-inkscape-font-specification:Rockwell Bold" font-size="26.625" font-weight="700" letter-spacing="0" word-spacing="0" fill="#ffe700" font-family="Rockwell"/><g fill="#ffe700"><path d="M505.725 386.26c1.134 2.274 5.138.95 6.015.073.67-.67 6.102-7 6.102-7-.8-1.905-5.186-.281-5.8.42-.613.702-6.317 6.506-6.317 6.506z"/><path d="M498.999 386.389c.951 2.355 5.047 1.35 5.989.546.721-.617 6.633-6.5 6.633-6.5-.647-1.962-5.148-.688-5.815-.036-.667.651-6.807 5.99-6.807 5.99z"/><path d="M492.282 385.99c.764 2.423 4.925 1.743 5.928 1.014.767-.557 7.123-5.959 7.123-5.959-.492-2.007-5.08-1.09-5.795-.492-.717.596-7.256 5.437-7.256 5.437z"/><path d="M485.617 385.065c.572 2.476 4.773 2.125 5.83 1.477.81-.496 7.57-5.382 7.57-5.382-.334-2.039-4.979-1.484-5.74-.946-.76.54-7.66 4.851-7.66 4.851z"/><path d="M479.046 383.62c.375 2.514 4.591 2.493 5.696 1.93.845-.43 7.967-4.771 7.967-4.771-.172-2.06-4.845-1.87-5.647-1.394-.8.479-8.016 4.236-8.016 4.236z"/><path d="M472.607 381.665c.178 2.535 4.382 2.845 5.528 2.37.876-.363 8.317-4.131 8.317-4.131-.01-2.066-4.684-2.245-5.52-1.832s-8.325 3.593-8.325 3.593z"/><path d="M466.343 379.21c-.022 2.541 4.145 3.18 5.325 2.797.902-.293 8.615-3.467 8.615-3.467.152-2.06-4.493-2.605-5.36-2.259-.864.347-8.58 2.93-8.58 2.93z"/><path d="M460.29 376.272c-.221 2.531 3.883 3.495 5.089 3.206.922-.222 8.86-2.78 8.86-2.78.314-2.043-4.275-2.95-5.164-2.673-.89.278-8.785 2.247-8.785 2.247z"/><path d="M454.487 372.867c-.42 2.507 3.596 3.79 4.82 3.595.938-.148 9.053-2.076 9.053-2.076.472-2.01-4.03-3.276-4.94-3.07-.91.207-8.933 1.55-8.933 1.55z"/><path d="M448.967 369.017c-.614 2.466 3.289 4.06 4.525 3.963.946-.075 9.187-1.359 9.187-1.359.628-1.968-3.761-3.583-4.683-3.448-.923.135-9.029.844-9.029.844z"/><path d="M443.769 364.746c-.807 2.41 2.959 4.306 4.199 4.306.949 0 9.264-.634 9.264-.634.782-1.913-3.468-3.867-4.398-3.805-.93.062-9.065.133-9.065.133z"/><path d="M438.92 360.081c-.993 2.34 2.613 4.524 3.85 4.622.944.074 9.285.094 9.285.094.929-1.845-3.154-4.126-4.087-4.137-.932-.012-9.048-.579-9.048-.579zm-4.468-5.031c-1.174 2.253 2.25 4.715 3.475 4.909.937.148 9.25.824 9.25.824 1.07-1.768-2.82-4.363-3.75-4.447-.928-.084-8.975-1.287-8.975-1.287z"/><path d="M430.393 349.683c-1.346 2.155 1.873 4.877 3.08 5.167.921.221 9.156 1.546 9.156 1.546 1.206-1.677-2.47-4.57-3.39-4.727-.918-.156-8.846-1.986-8.846-1.986z"/><path d="M426.768 344.014c-1.512 2.043 1.484 5.01 2.664 5.393.902.292 9.007 2.26 9.007 2.26 1.334-1.578-2.104-4.75-3.008-4.978-.903-.229-8.663-2.675-8.663-2.675z"/><path d="M423.598 338.078c-1.667 1.919 1.087 5.11 2.233 5.586.876.363 8.802 2.96 8.802 2.96 1.454-1.469-1.725-4.9-2.608-5.2-.883-.298-8.427-3.346-8.427-3.346z"/><path d="M420.905 331.912c-1.813 1.781.682 5.18 1.787 5.744.845.43 8.543 3.641 8.543 3.641 1.565-1.35-1.335-5.02-2.192-5.387-.857-.367-8.138-3.998-8.138-3.998z"/><path d="M418.702 325.554c-1.946 1.633.275 5.217 1.332 5.866.809.495 8.23 4.3 8.23 4.3 1.667-1.223-.936-5.109-1.762-5.542-.825-.433-7.8-4.624-7.8-4.624z"/><path d="M417.006 319.043c-2.069 1.476-.136 5.223.867 5.951.768.559 7.869 4.934 7.869 4.934 1.756-1.089-.534-5.168-1.323-5.664-.79-.497-7.413-5.221-7.413-5.221z"/><path d="M415.826 312.418c-2.179 1.309-.546 5.196.398 6.002.721.616 7.456 5.535 7.456 5.535 1.837-.947-.126-5.193-.874-5.75-.747-.557-6.98-5.787-6.98-5.787z"/><path d="M415.17 305.722c-2.275 1.133-.952 5.137-.076 6.014.671.67 7 6.103 7 6.103 1.905-.8.282-5.187-.42-5.8-.701-.615-6.505-6.317-6.505-6.317z"/><path d="M415.04 298.994c-2.357.952-1.352 5.047-.546 5.99.616.72 6.499 6.633 6.499 6.633 1.962-.648.687-5.149.036-5.816-.652-.666-5.99-6.807-5.99-6.807z"/><path d="M415.438 292.276c-2.423.764-1.743 4.926-1.014 5.93.558.766 5.959 7.123 5.959 7.123 2.006-.493 1.09-5.08.492-5.795-.597-.717-5.437-7.258-5.437-7.258z"/><path d="M416.363 285.611c-2.476.572-2.125 4.773-1.476 5.83.495.81 5.381 7.57 5.381 7.57 2.039-.333 1.485-4.977.946-5.74-.54-.758-4.851-7.66-4.851-7.66z"/><path d="M417.808 279.04c-2.513.375-2.492 4.592-1.93 5.695.431.846 4.771 7.97 4.771 7.97 2.06-.172 1.87-4.848 1.393-5.648-.477-.8-4.234-8.017-4.234-8.017z"/><path d="M419.764 272.6c-2.535.178-2.846 4.383-2.37 5.53.362.876 4.13 8.318 4.13 8.318 2.066-.01 2.245-4.686 1.832-5.522-.413-.834-3.592-8.325-3.592-8.325z"/><path d="M422.218 266.336c-2.54-.021-3.18 4.146-2.796 5.325.293.902 3.465 8.616 3.465 8.616 2.061.153 2.606-4.494 2.26-5.359-.347-.866-2.929-8.582-2.929-8.582z"/><path d="M425.157 260.283c-2.531-.22-3.495 3.883-3.206 5.09.222.922 2.78 8.86 2.78 8.86 2.042.313 2.95-4.275 2.673-5.165-.279-.89-2.247-8.785-2.247-8.785z"/><path d="M428.562 254.479c-2.506-.418-3.79 3.598-3.595 4.822.148.936 2.075 9.053 2.075 9.053 2.011.471 3.276-4.033 3.07-4.94-.207-.909-1.55-8.935-1.55-8.935z"/><path d="M432.411 248.961c-2.465-.615-4.06 3.287-3.962 4.524.074.946 1.358 9.188 1.358 9.188 1.97.629 3.583-3.762 3.449-4.684-.135-.922-.845-9.028-.845-9.028z"/><path d="M436.682 243.76c-2.41-.806-4.304 2.96-4.304 4.2 0 .95.633 9.267.633 9.267 1.912.78 3.866-3.47 3.805-4.399-.063-.932-.134-9.068-.134-9.068z"/><path d="M441.347 238.911c-2.338-.991-4.523 2.613-4.621 3.85-.074.945-.095 9.286-.095 9.286 1.845.93 4.127-3.154 4.138-4.086.012-.931.578-9.05.578-9.05z"/><path d="M446.38 234.445c-2.255-1.175-4.716 2.25-4.91 3.475-.148.936-.823 9.249-.823 9.249 1.766 1.071 4.361-2.82 4.446-3.748.084-.93 1.287-8.976 1.287-8.976z"/><path d="M451.746 230.385c-2.155-1.346-4.877 1.874-5.167 3.079-.221.923-1.547 9.157-1.547 9.157 1.678 1.207 4.57-2.469 4.727-3.389.157-.918 1.987-8.847 1.987-8.847z"/><path d="M457.415 226.76c-2.044-1.512-5.01 1.485-5.393 2.663-.293.902-2.26 9.009-2.26 9.009 1.577 1.334 4.749-2.105 4.977-3.007.23-.904 2.676-8.666 2.676-8.666z"/><path d="M463.35 223.591c-1.918-1.669-5.11 1.085-5.585 2.232-.363.876-2.96 8.803-2.96 8.803 1.467 1.454 4.9-1.726 5.198-2.608.299-.882 3.347-8.427 3.347-8.427z"/><path d="M469.515 220.897c-1.78-1.814-5.179.681-5.742 1.786-.43.846-3.642 8.544-3.642 8.544 1.35 1.566 5.02-1.334 5.388-2.192.367-.856 3.996-8.138 3.996-8.138z"/><path d="M475.873 218.695c-1.632-1.948-5.216.275-5.865 1.332-.495.808-4.3 8.23-4.3 8.23 1.222 1.666 5.108-.937 5.542-1.763.433-.824 4.623-7.8 4.623-7.8z"/><path d="M482.385 216.998c-1.475-2.069-5.223-.135-5.951.868-.558.767-4.934 7.868-4.934 7.868 1.088 1.756 5.167-.534 5.663-1.322.497-.79 5.222-7.414 5.222-7.414z"/><path d="M489.01 215.817c-1.309-2.178-5.196-.545-6.002.399-.616.72-5.535 7.457-5.535 7.457.947 1.836 5.193-.126 5.75-.874.557-.747 5.786-6.982 5.786-6.982z"/><path d="M495.706 215.162c-1.134-2.276-5.138-.951-6.014-.075-.67.67-6.104 6.999-6.104 6.999.8 1.905 5.187.283 5.802-.42.613-.701 6.316-6.504 6.316-6.504z"/><path d="M502.433 215.033c-.951-2.358-5.047-1.352-5.99-.546-.72.616-6.633 6.497-6.633 6.497.647 1.964 5.148.69 5.816.038.667-.65 6.807-5.99 6.807-5.99z"/><path d="M509.15 215.431c-.764-2.423-4.925-1.742-5.928-1.014-.768.558-7.124 5.958-7.124 5.958.492 2.007 5.079 1.09 5.795.494.717-.597 7.257-5.438 7.257-5.438z"/><path d="M515.814 216.355c-.57-2.475-4.773-2.123-5.83-1.475-.808.495-7.568 5.382-7.568 5.382.332 2.039 4.977 1.483 5.738.946.76-.54 7.66-4.853 7.66-4.853z"/><path d="M522.386 217.8c-.376-2.512-4.59-2.493-5.696-1.929-.846.43-7.968 4.77-7.968 4.77.172 2.06 4.846 1.873 5.646 1.395.8-.478 8.018-4.235 8.018-4.235z"/><path d="M528.824 219.756c-.177-2.535-4.381-2.843-5.527-2.37-.876.363-8.318 4.132-8.318 4.132.01 2.065 4.684 2.246 5.52 1.832.835-.414 8.325-3.594 8.325-3.594z"/><path d="M535.089 222.213c.022-2.543-4.145-3.18-5.324-2.798-.903.293-8.617 3.467-8.617 3.467-.152 2.06 4.494 2.605 5.36 2.258.864-.346 8.581-2.927 8.581-2.927z"/><path d="M541.141 225.152c.222-2.53-3.883-3.496-5.087-3.208-.923.224-8.863 2.78-8.863 2.78-.312 2.043 4.276 2.951 5.166 2.674.89-.279 8.784-2.246 8.784-2.246z"/><path d="M546.946 228.557c.42-2.507-3.597-3.79-4.822-3.596-.937.15-9.052 2.075-9.052 2.075-.473 2.01 4.03 3.277 4.939 3.07.91-.207 8.935-1.549 8.935-1.549z"/><path d="M552.464 232.406c.615-2.465-3.288-4.06-4.525-3.962-.946.075-9.186 1.36-9.186 1.36-.63 1.967 3.76 3.582 4.683 3.446.923-.135 9.028-.844 9.028-.844z"/><path d="M557.663 236.677c.807-2.41-2.96-4.305-4.199-4.305-.95 0-9.266.633-9.266.633-.781 1.914 3.469 3.867 4.399 3.806.93-.062 9.066-.134 9.066-.134z"/><path d="M562.512 241.345c.992-2.34-2.613-4.526-3.85-4.622-.945-.076-9.286-.098-9.286-.098-.929 1.846 3.154 4.128 4.087 4.14.932.01 9.049.58 9.049.58z"/><path d="M566.979 246.377c1.173-2.255-2.25-4.716-3.475-4.91-.937-.15-9.25-.825-9.25-.825-1.072 1.768 2.82 4.363 3.749 4.446.929.086 8.976 1.289 8.976 1.289z"/><path d="M571.038 251.743c1.347-2.155-1.873-4.879-3.08-5.167-.921-.221-9.157-1.548-9.157-1.548-1.205 1.679 2.471 4.57 3.39 4.728.918.157 8.847 1.987 8.847 1.987z"/><path d="M574.662 257.412c1.513-2.043-1.484-5.01-2.663-5.392-.903-.293-9.008-2.262-9.008-2.262-1.335 1.579 2.104 4.75 3.008 4.98.904.227 8.663 2.674 8.663 2.674z"/><path d="M577.832 263.348c1.667-1.918-1.087-5.11-2.233-5.586-.876-.362-8.802-2.96-8.802-2.96-1.454 1.469 1.725 4.9 2.608 5.198.883.299 8.427 3.348 8.427 3.348z"/><path d="M580.525 269.514c1.813-1.782-.682-5.18-1.787-5.742-.845-.432-8.543-3.644-8.543-3.644-1.565 1.35 1.334 5.022 2.192 5.388.857.366 8.138 3.998 8.138 3.998z"/><path d="M582.727 275.872c1.947-1.633-.274-5.217-1.332-5.866-.808-.496-8.23-4.301-8.23-4.301-1.667 1.223.937 5.11 1.762 5.544.826.432 7.8 4.623 7.8 4.623z"/><path d="M584.423 282.383c2.069-1.475.136-5.222-.866-5.951-.769-.558-7.87-4.934-7.87-4.934-1.755 1.089.533 5.167 1.323 5.665.79.495 7.413 5.22 7.413 5.22z"/><path d="M585.603 289.008c2.179-1.308.545-5.195-.398-6.001-.72-.616-7.456-5.536-7.456-5.536-1.837.948.126 5.193.874 5.75.747.558 6.98 5.787 6.98 5.787z"/><path d="M586.26 295.707c2.273-1.135.951-5.138.074-6.016-.67-.67-7-6.103-7-6.103-1.904.799-.281 5.187.42 5.8.703.616 6.506 6.319 6.506 6.319z"/><path d="M586.388 302.434c2.357-.952 1.352-5.047.547-5.99-.616-.721-6.5-6.635-6.5-6.635-1.96.65-.687 5.15-.036 5.816.65.667 5.99 6.809 5.99 6.809z"/><path d="M585.989 309.15c2.424-.763 1.744-4.924 1.015-5.928-.557-.767-5.959-7.123-5.959-7.123-2.006.492-1.09 5.079-.493 5.795.597.716 5.437 7.257 5.437 7.257z"/><path d="M585.064 315.817c2.476-.572 2.124-4.774 1.476-5.831-.495-.81-5.38-7.57-5.38-7.57-2.04.333-1.485 4.978-.947 5.74.54.76 4.85 7.66 4.85 7.66z"/><path d="M583.62 322.388c2.512-.375 2.491-4.591 1.929-5.696-.431-.846-4.77-7.969-4.77-7.969-2.06.172-1.873 4.846-1.395 5.647.478.8 4.235 8.018 4.235 8.018z"/><path d="M581.663 328.827c2.535-.177 2.844-4.382 2.37-5.529-.363-.876-4.13-8.317-4.13-8.317-2.067.01-2.246 4.684-1.833 5.52.413.836 3.593 8.326 3.593 8.326z"/><path d="M579.207 335.091c2.542.023 3.18-4.144 2.798-5.324-.293-.903-3.466-8.616-3.466-8.616-2.06-.153-2.605 4.493-2.26 5.358.347.866 2.928 8.582 2.928 8.582z"/><path d="M576.268 341.145c2.531.221 3.496-3.883 3.206-5.09-.221-.922-2.779-8.861-2.779-8.861-2.042-.313-2.95 4.276-2.673 5.166.278.89 2.246 8.785 2.246 8.785z"/><path d="M572.863 346.949c2.506.42 3.79-3.597 3.596-4.822-.149-.937-2.075-9.052-2.075-9.052-2.011-.474-3.277 4.03-3.07 4.94.207.908 1.549 8.934 1.549 8.934z"/><path d="M569.014 352.467c2.465.616 4.059-3.288 3.962-4.524-.075-.946-1.359-9.188-1.359-9.188-1.967-.63-3.582 3.761-3.447 4.683.134.923.844 9.03.844 9.03z"/><path d="M564.742 357.667c2.41.807 4.306-2.96 4.306-4.2 0-.948-.634-9.266-.634-9.266-1.913-.78-3.866 3.469-3.805 4.399.062.93.133 9.067.133 9.067z"/><path d="M560.077 362.516c2.338.993 4.523-2.613 4.62-3.85.075-.945.097-9.287.097-9.287-1.846-.929-4.128 3.155-4.139 4.087-.011.932-.578 9.05-.578 9.05z"/><path d="M555.044 366.983c2.254 1.173 4.715-2.25 4.909-3.475.148-.936.824-9.25.824-9.25-1.767-1.072-4.361 2.82-4.446 3.749-.085.928-1.287 8.976-1.287 8.976z"/><path d="M549.677 371.042c2.154 1.347 4.877-1.873 5.167-3.08.221-.922 1.547-9.157 1.547-9.157-1.677-1.206-4.57 2.47-4.727 3.39-.156.918-1.987 8.847-1.987 8.847z"/><path d="M544.008 374.667c2.043 1.512 5.009-1.485 5.393-2.664.293-.902 2.261-9.008 2.261-9.008-1.578-1.334-4.75 2.104-4.978 3.008-.229.904-2.676 8.664-2.676 8.664z"/><path d="M538.073 377.836c1.917 1.667 5.109-1.086 5.585-2.232.362-.876 2.96-8.803 2.96-8.803-1.468-1.454-4.9 1.724-5.198 2.608-.299.882-3.347 8.427-3.347 8.427z"/><path d="M531.906 380.53c1.781 1.812 5.18-.683 5.743-1.787.43-.846 3.642-8.544 3.642-8.544-1.349-1.565-5.02 1.334-5.387 2.192-.367.856-3.998 8.139-3.998 8.139z"/><path d="M525.549 382.731c1.632 1.947 5.216-.274 5.865-1.33.495-.81 4.301-8.232 4.301-8.232-1.222-1.666-5.11.937-5.543 1.763-.433.824-4.623 7.8-4.623 7.8z"/><path d="M519.036 384.427c1.476 2.07 5.223.136 5.952-.867.558-.767 4.934-7.868 4.934-7.868-1.088-1.756-5.167.533-5.664 1.322-.496.789-5.222 7.413-5.222 7.413z"/><path d="M512.411 385.607c1.31 2.178 5.196.546 6.002-.397.616-.722 5.537-7.457 5.537-7.457-.947-1.837-5.194.126-5.75.873-.558.748-5.789 6.981-5.789 6.981z"/></g><path d="m617.564 305.416 3.969.393-.35 3.53 15.555 1.539.35-3.53-5.472-.542.4-4.036 9.44.934-2.108 21.297-9.44-.934.394-3.986 5.472.542.36-3.632-15.555-1.539-.35 3.53-3.969-.393zm-2.006 19.483 3.798 1.219-.903 2.812 14.883 4.778.902-2.812 3.798 1.22-3.487 10.858-3.797-1.22.757-2.358-4.928-1.583-1.966 6.125 4.928 1.582.732-2.279 3.797 1.22-3.465 10.794-3.798-1.22.908-2.827-14.882-4.778-.908 2.828-3.798-1.22 3.466-10.794 3.797 1.22-.731 2.278 6.14 1.971 1.966-6.124-6.14-1.971-.757 2.359-3.798-1.22zm-8.515 25.141 3.458 1.986-1.412 2.458 13.553 7.788 1.412-2.458 3.458 1.988-10.367 18.04-6.49-3.73 2.25-3.913 3.031 1.742 3.645-6.342-4.724-2.715-2.943 5.12-3.458-1.986 2.943-5.121-5.37-3.086-3.645 6.342 3.06 1.758-2.249 3.915-6.519-3.746zm-15.231 57.984-2.88 2.758-5.752-6.006 2.881-2.758c2.883 1.375 5.334 1.096 7.352-.837 1.667-1.596 2.384-3.371 2.15-5.325-.233-1.953-1.109-3.723-2.627-5.308-1.588-1.66-3.325-2.57-5.21-2.73-1.885-.161-3.526.427-4.924 1.765-1.144 1.096-1.773 2.443-1.888 4.04-.115 1.598.338 3.233 1.358 4.903l-4.897 1.61c-2.512-5.175-1.598-9.841 2.741-13.996 3.065-2.934 6.166-4.321 9.303-4.161 3.137.16 5.915 1.503 8.333 4.028 1.721 1.798 2.823 3.758 3.305 5.881.482 2.123.366 4.181-.35 6.174-.715 1.993-1.89 3.772-3.525 5.337-2.035 1.949-4.247 3.05-6.637 3.301zm-21.622-12.92 2.209 3.321-2.982 1.983 8.654 13.016 2.982-1.982 2.208 3.32-11.108 7.386-2.209-3.32 3.01-2.002-8.653-13.017-3.01 2.002-2.209-3.321zm-16.28 10.249 1.64 3.635-3.233 1.46 6.43 14.246 3.232-1.459-2.261-5.012 3.697-1.668 3.902 8.647-19.507 8.803-3.902-8.647 3.65-1.648 2.263 5.012 3.326-1.5-6.43-14.248-3.233 1.46-1.64-3.636zm-22.613 8.93.871 3.892-3.23.722 1.394 6.228 8.264 7.628 2.816-.63.87 3.892-11.526 2.58-.871-3.892 2.269-.508-4.64-4.875-2.167 6.399 2.368-.53.871 3.892-10.152 2.272-.871-3.892 2.832-.634 3.942-10.36-1.394-6.228-3.213.72-.87-3.893zm-43.483 27.744c-4.06-.326-7.16-1.755-9.301-4.287-2.141-2.533-3.076-5.485-2.806-8.857.27-3.383 1.668-6.152 4.19-8.305 2.522-2.153 5.807-3.067 9.856-2.743 4.207.337 7.341 1.8 9.404 4.389 2.063 2.588 2.964 5.507 2.704 8.755-.27 3.36-1.657 6.124-4.163 8.29-2.507 2.166-5.801 3.085-9.884 2.758zm.345-4.297c1.804.144 3.39-.41 4.755-1.662 1.366-1.253 2.154-3.187 2.364-5.804.185-2.312-.287-4.211-1.416-5.698-1.13-1.486-2.614-2.303-4.452-2.45-1.804-.145-3.393.411-4.765 1.669-1.372 1.258-2.16 3.167-2.366 5.727-.183 2.29.272 4.193 1.364 5.71 1.093 1.518 2.598 2.354 4.516 2.508zm-14.185-21.482-1.182 3.81-3.226-1.001-4.632 14.928 3.226 1.001-1.182 3.81-20.18-6.262 2.157-6.954 4.312 1.338-.976 3.144 6.775 2.103 1.62-5.22-4.88-1.514 1.183-3.809 4.879 1.514 1.83-5.9-3.468-1.076 1.181-3.81zm-29.493-10.657-2.147 3.36-2.389-1.525-8.417 13.17 2.388 1.526-2.148 3.36-17.532-11.204 4.03-6.307 3.805 2.431-1.883 2.946 6.163 3.94 2.934-4.59-4.976-3.182 2.147-3.36 4.977 3.18 3.336-5.219-6.164-3.94-1.9 2.975-3.804-2.431 4.048-6.335zm-25.615-18.809-8.699 19.095 2.025 1.959-2.773 2.866-8.66-8.378 2.773-2.867 2.196 2.125 5.37-11.263-11.09 5.728 2.158 2.089-2.773 2.866-7.501-7.257 2.773-2.867 2.061 1.995 18.615-9.502zm-27.558-27.896 3.298-2.243 6.529 9.599-3.298 2.243-1.699-2.498-2.724 3.207 3.446 5.066 4.06-1.242-1.775-2.61 3.297-2.244 5.88 8.645-3.298 2.243-1.641-2.414-15.512 4.988 1.766 2.596-3.298 2.243-8.666-12.742 3.298-2.243 1.784 2.624 10.138-12.888zm-.213 13.055-4.772 5.627 7.073-2.245zm2.955-16.171-3.708 1.47-1.163-2.935-14.53 5.76 1.163 2.934-3.708 1.47-3.646-9.199 10.487-13.521-9.987 3.958 1.132 2.856-3.708 1.47-3.902-9.846 3.707-1.47 1.22 3.077 18.396-7.291 1.939 4.89-12.515 15.914 12.401-4.915-1.094-2.761 3.708-1.47zm-9.7-26.567-7.913 1.451-.723-3.94c1.439-.31 2.435-.883 2.989-1.72.553-.839.746-1.714.579-2.626a2.476 2.476 0 0 0-1.074-1.667c-.585-.399-1.211-.537-1.879-.414-.712.13-1.266.48-1.663 1.047-.396.567-.79 1.542-1.18 2.925-.81 2.921-1.621 4.954-2.435 6.098-.814 1.144-2.061 1.87-3.742 2.18-2.025.37-3.71.024-5.056-1.04-1.346-1.065-2.167-2.404-2.463-4.017-.339-1.848.117-3.41 1.367-4.686l-1.92.353-.72-3.923 7.061-1.296.72 3.923c-1.068.323-1.842.853-2.322 1.59-.48.739-.644 1.525-.49 2.36.118.645.39 1.159.817 1.54.427.383.918.523 1.475.42.478-.087.898-.354 1.26-.8.36-.446.772-1.632 1.236-3.557.453-1.855.905-3.298 1.354-4.33a6.817 6.817 0 0 1 2.004-2.619c.887-.715 1.976-1.19 3.266-1.427 2.293-.42 4.14-.07 5.543 1.053 1.402 1.123 2.27 2.598 2.606 4.423.373 2.036-.09 3.743-1.39 5.12l1.97-.361zm-3.157-26.37-19.76 7.059.005 2.817-3.988.007-.02-12.05 3.988-.007.005 3.055 11.823-3.99-11.836-3.97.005 3.004-3.988.007-.017-10.437 3.988-.007.005 2.868 19.783 6.74zm.33-15.278-3.935-.646.58-3.534-15.424-2.534-.58 3.534-3.936-.647 2.163-13.163 3.935.647-.586 3.567 15.424 2.534.586-3.568 3.936.647zm2.307-14.945-3.783-1.261 1.068-3.205-14.83-4.942-1.067 3.204-3.784-1.26 4.1-12.302 3.784 1.261-1.09 3.269 14.83 4.942 2.205-6.617-6.924-2.308 1.455-4.363 10.707 3.568zm7.305-21.304-3.476-1.957 1.657-2.943-13.62-7.667-1.658 2.943-3.475-1.957 6.36-11.299 3.476 1.957-1.69 3.002 13.62 7.668 3.422-6.079-6.359-3.58 2.256-4.007 9.835 5.536zm11.31-19.693-3.036-2.586 1.838-2.158-11.9-10.135-1.837 2.157-3.036-2.586 13.492-15.84 5.697 4.854-2.927 3.436-2.661-2.267-4.744 5.569 4.148 3.532 3.83-4.496 3.036 2.586-3.83 4.496 4.716 4.017 4.743-5.568-2.688-2.29 2.928-3.436 5.723 4.875z" style="text-align:start;line-height:125%;-inkscape-font-specification:Rockwell Bold" transform="rotate(156.987 434.404 277.458) scale(.76602)" font-size="34.757" font-weight="700" letter-spacing="0" word-spacing="0" fill="#ffe700" font-family="Rockwell"/><path class="fil4" fill="none" d="m444.265 267.127-10.466 40.098m15.437-41.851 10.925 41.851m-13.056-39.565v40.452"/><path style="marker:none" d="M553.332 307.34h-13.397v.913c0 4.633 1.49 8.837 3.9 11.886 2.426 3.072 5.786 4.974 9.497 4.974 3.712 0 7.07-1.902 9.498-4.974 2.41-3.049 3.9-7.253 3.9-11.886v-.914h-13.398z" color="#000" fill="none" stroke="#ffe700" stroke-width="1.468" overflow="visible"/><path d="M502.928 231.662h-6.395c-1.96 4.36-2.647 7.318-2.727 13.414-.08 6.098 1.817 7.898 2.727 11.85h6.395c1.887-3.617 3.203-7.402 3.253-11.85.05-4.448-.526-9.388-3.253-13.414z" fill="none"/><path d="M502.345 238.703h-5.12c-1.568 4.731-2.628 8.043-2.692 14.658-.064 6.616.309 6.625.4 11.118l4.706 4.094 5.253-4.094c-.4-3.925.017-6.394.057-11.22.04-4.827-.421-10.188-2.604-14.556z" fill="none" stroke="#ffe700" stroke-width="1.468"/><path d="M521.307 257.138c-3.77-.065-7.348.815-10.926 1.697-1.75.43-3.505.863-5.284 1.18l-.357.063v3.553l.328.075c1.73.395 3.458.888 5.185 1.38 3.489.995 6.98 1.991 10.732 2.248 5.203.214 13.517-.832 20.674-1.918 6.929-1.051 5.676-1.375 5.601-2.909-.103-2.107 2.385-1.523-5.507-2.78-6.577-1.047-16.068-2.719-20.446-2.589zm-27.489-24.315a5.905 5.905 0 0 1 5.903-5.905 5.906 5.906 0 0 1 5.905 5.905 5.906 5.906 0 0 1-5.905 5.904 5.905 5.905 0 0 1-5.903-5.904z" fill="none" stroke="#ffe700" stroke-width="1.468"/><path transform="matrix(1.23292 0 0 1.04492 -116.917 -17.284)" fill="#000f5d" fill-rule="nonzero" stroke="#ffe700" d="m490.024 329.484.03-.26.033-.341.035-.413.035-.479.036-.541.039-.596.039-.645.039-.689.04-.726.041-.759.04-.786.04-.807.04-.822.04-.832.039-.837.039-.833.037-.828.036-.815.036-.798.033-.772.032-.744.03-.709.028-.667.026-.621.023-.568.021-.511.018-.449.016-.379.011-.304.01-.225.005-.139.002-.047.43.016-.003.047-.004.14-.01.224-.012.305-.015.379-.018.449-.021.512-.023.569-.026.621-.028.667-.03.709-.032.744-.033.772-.036.798-.036.815-.037.827-.039.837-.039.836-.04.833-.04.822-.04.806-.041.788-.04.76-.04.726-.039.691-.039.647-.039.597-.036.543-.037.483-.035.418-.034.346-.031.274zm3.018-18.761-.162 18.793-.43-.005.162-18.792z"/><path transform="matrix(1.22666 .12406 -.10515 1.03961 -77.626 -76.078)" fill="#000f5d" fill-rule="nonzero" stroke="#ffe700" d="m487.888 358.147.036-.504.041-.611.042-.707.043-.798.044-.878.045-.951.046-1.015.046-1.071.048-1.118.047-1.157.047-1.189.046-1.212.046-1.226.046-1.232.045-1.229.043-1.219.042-1.203.042-1.172.039-1.139.036-1.095.036-1.043.032-.984.029-.914.028-.838.024-.754.021-.66.018-.559.014-.449.011-.33.006-.206.002-.07.43.015-.002.069-.006.206-.011.331-.014.448-.018.559-.021.66-.024.754-.028.838-.029.915-.032.983-.036 1.043-.036 1.095-.039 1.139-.042 1.175-.042 1.2-.043 1.221-.045 1.23-.046 1.232-.046 1.226-.046 1.211-.047 1.19-.047 1.158-.048 1.119-.046 1.071-.046 1.017-.045.951-.044.881-.043.797-.043.713-.04.613-.039.509-.036.398-.428-.045z"/><path transform="matrix(1.23292 0 0 1.04492 -116.917 -17.284)" fill="#000f5d" fill-rule="nonzero" stroke="#ffe700" d="m494.759 329.21-.01-.002.023-.169.023-.271.021-.358.018-.437.016-.509.016-.572.012-.632.01-.683.008-.728.008-.766.005-.796.004-.823.004-.841.001-.852v-1.715l-.001-.849-.003-.834-.002-.814-.004-.786-.003-.753-.004-.712-.003-.664-.004-.611-.003-.551-.004-.484-.004-.411-.002-.33-.002-.244-.001-.153v-.05l.429-.005v.053l.002.15.002.245.002.331.004.412.003.484.004.55.004.612.003.664.004.712.003.752.004.787.002.814.002.836.002.849v1.715l-.002.854-.003.841-.004.823-.006.799-.007.766-.008.728-.011.685-.011.634-.016.575-.016.514-.018.442-.021.367-.025.287-.028.207-.07.179z"/><path transform="matrix(1.2315 .05934 -.0503 1.0437 -98.88 -46.001)" fill="#000f5d" fill-rule="nonzero" stroke="#ffe700" d="m491.103 358.559-.43-.002.189-27.683.43.003z"/><path transform="matrix(1.23292 0 0 1.04492 -116.917 -17.284)" fill="#000f5d" fill-rule="nonzero" stroke="#ffe700" d="m496.819 329.255.001-.165.003-.245.005-.321.005-.39.006-.455.009-.513.009-.568.011-.617.01-.658.011-.697.012-.729.012-.754.013-.777.011-.793.012-.802.012-.808.011-.805.01-.801.01-.79.009-.773.007-.751.007-.723.005-.688.004-.652.002-.606v-.559l-.001-.502-.005-.441-.006-.376-.008-.302-.011-.225-.012-.131.426-.061.016.164.011.236.008.309.006.381.005.444.001.504v.559l-.002.608-.004.652-.005.691-.007.723-.007.751-.009.773-.01.79-.01.8-.011.808-.012.808-.012.802-.011.793-.013.777-.012.755-.012.728-.011.697-.01.658-.011.617-.009.568-.009.513-.006.455-.006.39-.004.319-.003.244-.001.161zm-3.479 28.939.004-.056.03-.261.026-.405.025-.531.022-.645.019-.751.017-.846.014-.93.012-1.008.01-1.072.009-1.127.005-1.175.005-1.213.004-1.238.001-1.255.001-1.265-.001-1.263-.001-1.251-.003-1.229-.002-1.199-.004-1.158-.004-1.107-.004-1.049-.005-.979-.004-.9-.004-.812-.005-.713-.003-.605-.002-.487-.003-.36-.002-.223v-.077l.43-.002v.077l.002.223.002.36.003.487.003.604.005.714.004.811.004.9.005.979.004 1.049.004 1.108.004 1.16.002 1.199.003 1.229.001 1.251.001 1.263-.001 1.265-.001 1.255-.004 1.24-.005 1.213-.006 1.175-.008 1.13-.01 1.072-.012 1.008-.014.933-.017.848-.019.753-.022.65-.025.537-.028.417-.032.292-.062.212zm2.416-.016.001-.242.004-.362.005-.471.006-.574.008-.671.009-.757.011-.836.012-.907.013-.971.013-1.026.014-1.073.013-1.113.014-1.144.014-1.167.014-1.182.013-1.19.013-1.189.013-1.18.011-1.163.011-1.139.009-1.104.007-1.066.006-1.015.005-.959.002-.894v-.823l-.002-.74-.005-.651-.007-.555-.009-.449-.013-.333-.016-.204.428-.05.018.231.013.344.009.454.007.557.005.654.002.742v.823l-.002.896-.005.959-.006 1.016-.007 1.065-.009 1.107-.011 1.138-.011 1.164-.013 1.18-.013 1.189-.013 1.189-.014 1.183-.014 1.167-.014 1.144-.013 1.113-.014 1.072-.013 1.027-.013.97-.012.908-.011.836-.009.757-.008.671-.006.574-.005.471-.004.359-.001.24zm3.065-26.668.188 26.413-.43.002-.188-26.413zm3.012-.379-.188 26.54-.43-.002.188-26.541zm2.447-.127-.189 26.667-.43-.002.189-26.667zm2.635 1.396-.187 25.779-.43-.002.187-25.779zm2.071-.263.941 26.413-.43.016-.941-26.413zm-9.47-20.986.162 17.929-.43.005-.162-17.929z"/><path transform="matrix(1.23093 -.07005 .05937 1.04323 -136.4 19.148)" fill="#000f5d" fill-rule="nonzero" stroke="#ffe700" d="m513.127 358.539-.428.038-2.259-26.413.427-.038z"/><path transform="matrix(1.23292 0 0 1.04492 -116.917 -17.284)" fill="#000f5d" fill-rule="nonzero" stroke="#ffe700" d="m502.106 310.897-.162 18.015-.43-.004.162-18.016zm2.103-.087-.161 18.102-.43-.004.162-18.103zm2.267.948-.162 17.499-.43-.004.162-17.5zm1.781-.184.809 17.93-.43.019-.809-17.93z"/><path d="m475.403 287.377.242.788-.25.462-.21.468-.17.47-.137.473-.106.473-.074.473-.049.476-.024.476-.002.478.02.478.04.484.058.478.076.479.09.47.101.463.115.454.122.442.13.425.135.41.14.394.137.372.137.349.135.322.13.3.12.266.111.238.1.209.086.172.07.134.052.098.034.061.01.017-.25.772-.013-.024-.037-.066-.056-.108-.075-.145-.09-.183-.105-.214-.116-.248-.13-.283-.133-.314-.141-.339-.144-.364-.147-.394-.146-.415-.144-.436-.14-.457-.133-.479-.124-.497-.113-.51-.1-.528-.085-.542-.067-.558-.047-.563-.024-.578.002-.584.03-.587.06-.587.093-.584.128-.573.162-.563.2-.55.24-.536.276-.516zm48.593-.536-.21.835-.266-.225-.526-.259-.746-.254-.944-.245-1.129-.233-1.294-.222-1.447-.209-1.585-.193-1.705-.177-1.813-.161-1.904-.143-1.982-.124-2.045-.103-2.091-.084-2.124-.061-2.141-.037-2.143-.015-2.132.01-2.105.037-2.062.061-2.006.093-1.933.119-1.846.15-1.745.18-1.628.212-1.497.246-1.348.277-1.187.312-1.007.349-.813.378-.597.41-.35.401-.242-.787.45-.524.644-.44.838-.395 1.025-.354 1.198-.312 1.358-.282 1.503-.246 1.633-.212 1.75-.18 1.848-.15 1.937-.12 2.009-.092 2.063-.06 2.107-.037 2.135-.011 2.145.015 2.143.037 2.127.06 2.093.086 2.045.103 1.984.124 1.907.142 1.815.162 1.71.177 1.587.193 1.451.209 1.301.222 1.136.238.955.246.764.259.562.28.37.325zm.67 11.205.107-.936-.244.28.001-.01.01-.061.017-.098.02-.13.026-.16.027-.196.03-.23.032-.251.033-.278.032-.304.032-.322.029-.339.026-.356.023-.373.02-.383.012-.389.008-.401.001-.405-.007-.404-.016-.407-.024-.407-.034-.4-.044-.396-.055-.388-.068-.378-.08-.367-.093-.35-.108-.34-.123-.325-.14-.31-.156-.287-.175-.27.21-.835.205.317.186.341.166.367.147.389.127.404.113.423.095.436.079.441.064.452.051.455.04.457.027.46.018.455.007.451v.447l-.009.433-.014.426-.02.415-.026.399-.028.383-.032.365-.034.343-.034.32-.035.299-.034.272-.033.24-.029.212-.027.182-.023.14-.017.109-.01.06-.005.032-.243.28zm.244-.28-.07.391-.174-.111.244-.28zm-5.422-1.573.022-.967.269.037.263.045.262.05.256.058.254.058.249.067.242.066.239.071.232.074.226.077.22.08.214.079.206.08.198.079.191.082.185.08.174.078.167.077.156.074.148.075.138.071.127.064.118.063.106.056.098.055.083.048.07.04.062.034.049.031.03.017.02.01.01.01-.106.935-.004-.002-.02-.01-.037-.024-.044-.026-.057-.034-.071-.04-.083-.048-.093-.05-.104-.055-.116-.064-.126-.064-.136-.071-.144-.069-.156-.074-.164-.077-.172-.08-.18-.079-.19-.076-.195-.08-.204-.08-.212-.078-.217-.08-.222-.071-.23-.074-.234-.072-.24-.066-.245-.066-.25-.058-.253-.053-.257-.05-.259-.045-.264-.037zm-8.04 7.474-.031-.967-.096.077.016-.026.046-.067.072-.106.1-.142.124-.18.148-.21.17-.24.193-.264.21-.283.23-.309.245-.322.261-.333.276-.35.288-.353.3-.36.308-.36.317-.364.325-.357.332-.348.334-.341.338-.325.339-.312.34-.296.342-.27.336-.248.335-.22.33-.19.322-.153.317-.121.31-.08.297-.031.289.01-.023.968-.26-.011-.272.031-.287.074-.296.111-.307.148-.316.18-.321.214-.328.238-.329.264-.332.286-.331.306-.332.32-.33.336-.325.343-.32.352-.312.354-.305.36-.297.353-.284.35-.27.343-.26.333-.243.317-.225.304-.21.283-.188.259-.169.235-.147.209-.122.174-.097.143-.073.106-.043.06-.013.022-.096.076zm.095-.077-.045.067-.05.01.095-.077zm-19.16 2.667.13-.92.096.037.217.034.312.013.395-.004.472-.024.54-.042.602-.058.658-.071.706-.085.75-.098.785-.108.814-.116.836-.122.855-.132.864-.134.868-.138.864-.142.856-.14.84-.143.819-.137.789-.137.755-.132.712-.124.666-.12.611-.108.55-.097.485-.09.41-.075.33-.06.244-.045.15-.027.052-.01.032.967-.052.01-.15.027-.244.045-.33.06-.41.075-.485.09-.55.098-.611.108-.666.119-.714.124-.756.132-.789.137-.818.138-.84.142-.856.14-.866.143-.869.137-.864.135-.854.132-.84.122-.813.116-.787.108-.75.098-.709.085-.66.071-.604.059-.545.042-.476.023-.405.004-.325-.012-.246-.04-.182-.08zm-6.816-10.064v-.967l.364.026.356.082.343.132.335.175.325.222.315.261.304.294.295.33.284.357.275.38.265.405.256.422.246.437.237.449.229.457.218.46.21.462.202.46.194.455.183.449.176.433.169.42.158.402.15.376.142.354.134.32.125.288.116.253.104.207.094.163.08.117.063.063-.132.92-.123-.127-.12-.17-.118-.205-.122-.244-.127-.274-.132-.304-.139-.336-.146-.36-.15-.38-.159-.402-.166-.415-.173-.428-.182-.438-.189-.444-.197-.45-.203-.452-.212-.444-.22-.44-.227-.429-.236-.42-.244-.402-.252-.383-.259-.36-.268-.335-.277-.31-.284-.277-.294-.24-.3-.207-.31-.164-.32-.121-.33-.077-.336-.026zm-9.045 4.509.249-.772-.198-.066.014-.013.047-.042.071-.06.099-.085.124-.106.148-.124.172-.14.192-.156.213-.17.234-.18.252-.193.268-.198.284-.206.3-.214.312-.214.324-.217.338-.217.345-.214.356-.214.363-.206.37-.2.375-.191.378-.183.383-.169.385-.156.384-.14.385-.127.383-.103.38-.087.377-.06.371-.04.367-.013v.967l-.353.013-.36.04-.367.06-.372.083-.374.103-.376.121-.38.14-.378.15-.376.17-.373.177-.37.19-.364.196-.359.206-.35.21-.344.213-.333.217-.322.211-.308.215-.297.208-.282.206-.266.199-.249.188-.23.18-.21.169-.193.15-.167.14-.148.124-.122.1-.096.086-.071.06-.042.037-.015.013-.198-.066zm.198.066-.107.095-.091-.16.198.065z" fill="#000f5d" fill-rule="nonzero" stroke="#ffe700" stroke-width="1.29"/><path style="marker:none" d="M499.252 182.062c-65.294 0-118.21 52.916-118.21 118.21 0 65.293 52.916 118.24 118.21 118.24s118.24-52.947 118.24-118.24c0-65.294-52.946-118.21-118.24-118.21z" color="#000" fill="none" stroke="#ffe700" stroke-width="5.926" overflow="visible"/><path style="marker:none" d="M446.342 307.34h-13.397v.913c0 4.633 1.49 8.837 3.9 11.886 2.427 3.072 5.786 4.974 9.497 4.974 3.713 0 7.07-1.902 9.499-4.974 2.409-3.049 3.899-7.253 3.899-11.886v-.914h-13.398z" color="#000" fill="none" stroke="#ffe700" stroke-width="1.468" overflow="visible"/><path d="M446.229 268.454v38.644m107.076-38.266v38.645m-13.385-.382 12.88-38.386m-119.83 38.386 12.88-38.386m13.89 38.386-12.88-38.386m119.955 38.386-12.879-38.386m-6.762-6.301a5.905 5.905 0 0 1 5.903-5.904 5.906 5.906 0 0 1 5.905 5.904 5.906 5.906 0 0 1-5.905 5.905 5.905 5.905 0 0 1-5.903-5.905zm-68.877-5.147c3.771-.065 7.349.815 10.927 1.697 1.75.43 3.505.863 5.284 1.18l.357.063v3.553l-.328.075c-1.73.395-3.458.888-5.186 1.38-3.488.995-6.98 1.991-10.731 2.248-5.203.214-13.517-.832-20.674-1.918-6.929-1.051-5.676-1.375-5.601-2.909.102-2.107-2.385-1.523 5.507-2.78 6.577-1.047 16.067-2.719 20.445-2.589z" fill="none" stroke="#ffe700" stroke-width="1.468"/><path d="M440.29 262.534a5.905 5.905 0 0 1 5.904-5.904 5.906 5.906 0 0 1 5.904 5.905 5.906 5.906 0 0 1-5.904 5.904 5.905 5.905 0 0 1-5.904-5.905z" fill="none" stroke="#ffe700" stroke-width="1.468"/><path d="m499.268 289.34-.81-.4c-.955-.693-6.21-11.008-6.21-12.265 5.505 0 4.399 1.642 10.321-1.327.217-.058.821-.025.961.016 2.259 5.523.227 7.971-1.81 12.983-.836.147-.922 1.752-2.452.992z" fill="#000f5d" stroke="#ffe700"/><path d="m498.535 296.216-.34-1.768c-1.402-7.28-4.123-15.146-5.654-21.562-.39-.03-.671-.49-.815-1.335-.344-.13-.127.18-.5-.11-2.832.993-3.22 6.337-2.327 11.564 1.1.077 3.883 6.647 4.645 9.842.824 3.454 5.17 4.297 4.991 3.37zm1.118-2 .34-1.768c1.402-7.28 4.123-15.146 5.653-21.562.39-.03.672-.49.816-1.335.344-.13.126.18.499-.11 2.833.993 3.22 6.337 2.328 11.564-1.1.077-3.884 6.647-4.646 9.842-.823 3.454-5.17 4.297-4.99 3.37z" fill="#000f5d" stroke="#ffe700" stroke-width="1.29"/><path transform="matrix(1.23292 0 0 1.04492 -117.078 -17.918)" fill="#000f5d" fill-rule="nonzero" stroke="#ffe700" d="m490.232 326.854.039-.645.039-.689.04-.726.041-.759.04-.786.04-.807.04-.822.04-.832.039-.837.039-.833.037-.828.036-.815.036-.798.033-.772.032-.744.03-.709.028-.667.026-.621.023-.568.021-.511.018-.449.016-.379.011-.304.01-.225.005-.139.002-.047.43.016-.003.047-.004.14-.01.224-.012.305-.015.379-.018.449-.021.512-.023.569-.026.621-.028.667-.03.709-.032.744-.033.772-.036.798-.036.815-.037.827-.039.837-.039.836-.04.833-.04.822-.04.806-.041.788-.04.76-.04.726-.039.691-.039.647-.039.597-.036.543-.037.483-.035.418-.034.346-.031.274-.426-.059.03-.26.033-.341.035-.413.035-.479.036-.541zm2.218 2.657.162-18.792.43.004-.162 18.793zm2.4-2.047.016-.572.012-.632.01-.683.008-.728.008-.766.005-.796.004-.823.004-.841.001-.852v-1.715l-.001-.849-.003-.834-.002-.814-.004-.786-.003-.753-.004-.712-.003-.664-.004-.611-.003-.551-.004-.484-.004-.411-.002-.33-.002-.244-.001-.153v-.05l.429-.005v.053l.002.15.002.245.002.331.004.412.003.484.004.55.004.612.003.664.004.712.003.752.004.787.002.814.002.836.002.849v1.715l-.002.854-.003.841-.004.823-.006.799-.007.766-.008.728-.011.685-.011.634-.016.575-.016.514-.018.442-.021.367-.025.287-.028.207-.07.179-.343-.262-.01-.002.023-.169.023-.271.021-.358.018-.437zm1.998-.298.009-.568.011-.617.01-.658.011-.697.012-.729.012-.754.013-.777.011-.793.012-.802.012-.808.011-.805.01-.801.01-.79.009-.773.007-.751.007-.723.005-.688.004-.652.002-.606v-.559l-.001-.502-.005-.441-.006-.376-.008-.302-.011-.225-.012-.131.426-.061.016.164.011.236.008.309.006.381.005.444.001.504v.559l-.002.608-.004.652-.005.691-.007.723-.007.751-.009.773-.01.79-.01.8-.011.808-.012.808-.012.802-.011.793-.013.777-.012.755-.012.728-.011.697-.01.658-.011.617-.009.568-.009.513-.006.455-.006.39-.004.319-.003.244-.001.161h-.43l.001-.165.003-.245.005-.321.005-.39.006-.455zm-3.382 28.379.017-.846.014-.93.012-1.008.01-1.072.009-1.127.005-1.175.005-1.213.004-1.238.001-1.255.001-1.265-.001-1.263-.001-1.251-.003-1.229-.002-1.199-.004-1.158-.004-1.107-.004-1.049-.005-.979-.004-.9-.004-.812-.005-.713-.003-.605-.002-.487-.003-.36-.002-.223v-.077l.43-.002v.077l.002.223.002.36.003.487.003.604.005.714.004.811.004.9.005.979.004 1.049.004 1.108.004 1.16.002 1.199.003 1.229.001 1.251.001 1.263-.001 1.265-.001 1.255-.004 1.24-.005 1.213-.006 1.175-.008 1.13-.01 1.072-.012 1.008-.014.933-.017.848-.019.753-.022.65-.025.537-.028.417-.032.292-.062.212-.368-.222.004-.056.03-.261.026-.405.025-.531.022-.645zm2.323-.444.011-.836.012-.907.013-.971.013-1.026.014-1.073.013-1.113.014-1.144.014-1.167.014-1.182.013-1.19.013-1.189.013-1.18.011-1.163.011-1.139.009-1.104.007-1.066.006-1.015.005-.959.002-.894v-.823l-.002-.74-.005-.651-.007-.555-.009-.449-.013-.333-.016-.204.428-.05.018.231.013.344.009.454.007.557.005.654.002.742v.823l-.002.896-.005.959-.006 1.016-.007 1.065-.009 1.107-.011 1.138-.011 1.164-.013 1.18-.013 1.189-.013 1.189-.014 1.183-.014 1.167-.014 1.144-.013 1.113-.014 1.072-.013 1.027-.013.97-.012.908-.011.836-.009.757-.008.671-.006.574-.005.471-.004.359-.001.24h-.43l.001-.242.004-.362.005-.471.006-.574.008-.671zm2.79 2.824-.188-26.413.43-.002.188 26.413zm2.636-.256.188-26.541.43.003-.188 26.54zm2.446 0 .189-26.667.43.002-.189 26.667zm2.637.508.187-25.779.43.002-.187 25.779zm3.199.389-.941-26.413.43-.016.941 26.413zm-10.249-29.481-.162-17.929.43-.005.162 17.929zm2.266-.177.162-18.016.43.005-.162 18.015zm2.104 0 .162-18.103.429.005-.161 18.102zm2.266.345.162-17.5.43.005-.162 17.499zm2.752.27-.809-17.93.43-.019.809 17.93z"/><path d="M497.707 286.398s-20.668-.991-23.8-2.77c-3.132-1.78-4.959-1.78-4.959-1.78s2.61-8.9 4.96-9.791c2.348-.887 8.612 4.45 8.612 4.45l16.171 9.488s19.328-14.382 25.07-13.491c5.743.89 6.004 8.009 6.004 8.009s-3.133 2.225-4.438 3.56c-1.305 1.334-27.62 2.325-27.62 2.325z" fill="#000f5d" stroke="#ffe700" stroke-width="1.477"/><path d="m469.17 288.154.117-.933.392.13.512.13.62.128.718.122.809.12.891.118.96.112 1.027.11 1.081.104 1.13.1 1.168.096 1.2.093 1.22.087 1.237.086 1.24.078 1.24.076 1.227.07 1.207.068 1.182.06 1.145.06 1.103.052 1.05.05.986.044.921.04.843.033.757.031.663.026.562.021.451.017.331.01.207.01.07.002-.01.954-.072-.002-.204-.009-.333-.01-.452-.017-.562-.02-.663-.025-.757-.032-.843-.033-.92-.04-.99-.043-1.05-.05-1.102-.052-1.145-.06-1.183-.06-1.21-.068-1.227-.07-1.24-.077-1.243-.078-1.236-.086-1.224-.086-1.2-.094-1.17-.096-1.13-.1-1.085-.104-1.029-.11-.966-.111-.894-.118-.815-.12-.728-.127-.631-.128-.53-.135-.424-.141zm-6.033-2.23.43.574-.215-.764h.061l.046.002.058.002.07.004.08.004.096.006.103.01.117.011.13.015.14.017.15.02.162.024.176.031.185.034.194.036.207.042.217.044.229.052.237.057.248.066.26.068.268.076.278.08.29.09.297.096.309.102.318.11.327.12.336.127.345.133-.118.934-.342-.133-.33-.128-.324-.115-.313-.11-.305-.101-.294-.091-.285-.09-.274-.08-.266-.076-.254-.068-.245-.06-.234-.057-.223-.053-.214-.044-.204-.041-.192-.037-.181-.033-.17-.026-.16-.024-.147-.018-.137-.017-.124-.015-.114-.01-.103-.011-.09-.01-.078-.003-.067-.004-.054-.002-.043-.002h-.051l-.215-.764zm.215.764h-.536l.32-.764.216.764zm5.837-9.062.08.944-.241.084-.248.117-.246.146-.25.18-.25.208-.252.235-.25.258-.248.277-.247.3-.243.315-.24.329-.237.339-.23.35-.224.351-.217.358-.211.36-.204.354-.195.352-.184.345-.176.333-.167.326-.152.305-.143.293-.13.27-.116.248-.104.225-.088.196-.074.167-.06.132-.04.094-.027.06-.007.02-.431-.575.01-.019.027-.065.046-.104.06-.138.077-.172.092-.2.106-.23.12-.253.132-.282.146-.297.158-.316.17-.331.178-.344.19-.355.201-.362.21-.365.217-.37.226-.368.233-.368.239-.36.245-.355.252-.344.256-.331.26-.316.266-.297.269-.279.271-.25.275-.23.279-.2.279-.168.28-.133.282-.094zm10.306 3.693-.12.934-.026-.013-.019-.013-.063-.036-.1-.06-.14-.076-.172-.1-.205-.117-.235-.13-.261-.146-.29-.153-.312-.168-.334-.174-.352-.183-.37-.183-.385-.19-.397-.194-.405-.187-.415-.188-.422-.186-.424-.177-.425-.172-.425-.16-.42-.15-.415-.138-.409-.123-.397-.107-.383-.089-.372-.068-.352-.049-.332-.026-.311-.002-.283.026-.256.05-.08-.945.294-.06.313-.026.335.002.353.026.369.05.383.073.396.088.409.113.417.127.424.138.426.152.431.164.431.172.43.182.425.186.417.188.412.193.4.193.388.19.372.188.356.183.336.175.313.167.292.159.264.146.238.13.208.117.173.1.138.08.103.06.064.037.022.013-.025-.013zm-.12.934-.011-.004-.015-.01.025.013zm19.162 7.862-19.163-7.862.121-.934 19.163 7.863.015.925-.136.01zm.136-.009-.068.037-.068-.029.136-.009zm29.649-12.116-.032.955-.667-.034-.759.04-.843.1-.916.16-.984.22-1.042.268-1.097.315-1.14.358-1.178.399-1.209.432-1.233.46-1.249.485-1.256.506-1.259.518-1.253.532-1.24.54-1.223.543-1.192.54-1.16.529-1.119.522-1.07.506-1.015.484-.95.46-.883.43-.804.399-.72.357-.629.313-.531.269-.427.216-.31.162-.193.099-.066.034-.15-.918.066-.034.192-.1.314-.16.426-.217.532-.269.631-.318.72-.357.808-.4.882-.43.953-.459 1.016-.485 1.073-.506 1.118-.521 1.163-.535 1.196-.54 1.221-.542 1.245-.54 1.255-.532 1.262-.524 1.262-.506 1.251-.485 1.237-.464 1.215-.433 1.183-.4 1.15-.362 1.102-.315 1.054-.274.996-.22.931-.163.86-.102.786-.04.7.035zm7.17 7.576-.145-.923-.195.506-.001-.002-.001-.031-.005-.06-.012-.097-.016-.112-.026-.141-.03-.162-.042-.186-.052-.198-.062-.219-.074-.232-.088-.24-.105-.256-.117-.26-.137-.269-.153-.274-.174-.276-.195-.28-.216-.281-.239-.274-.262-.271-.29-.263-.316-.256-.345-.245-.372-.235-.404-.214-.435-.203-.468-.178-.503-.161-.538-.136-.572-.11-.611-.083.032-.954.629.083.59.115.555.14.52.168.49.188.455.208.425.23.396.245.366.26.34.277.312.284.286.298.263.3.24.307.215.31.194.314.175.31.155.305.137.303.12.292.103.286.088.274.074.256.06.24.05.221.04.199.031.182.022.154.015.122.012.102.005.068v.029l-.194.506zm.194-.506.02.399-.215.107.195-.506zm-5.425 3.437-.2-.886.153-.11.168-.112.176-.115.184-.115.192-.12.2-.122.207-.122.211-.123.216-.125.217-.123.218-.122.222-.123.22-.12.218-.12.218-.12.213-.112.205-.112.205-.107.196-.102.186-.099.18-.094.171-.086.157-.08.146-.077.134-.068.118-.06.104-.052.088-.044.07-.034.048-.026.036-.017.009-.004.144.923-.011.004-.03.013-.051.026-.07.034-.085.044-.103.052-.118.06-.132.068-.146.076-.16.08-.168.087-.177.094-.188.099-.197.102-.199.106-.208.113-.213.112-.215.115-.215.12-.22.12-.219.122-.218.123-.217.122-.213.12-.208.123-.203.122-.195.117-.192.12-.182.115-.17.11-.159.106-.147.105zm-32.834 1.961.01-.954h-.01l.09-.002.261-.01.421-.01.571-.014.708-.02.837-.026.952-.028 1.057-.034 1.15-.036 1.233-.042 1.302-.044 1.365-.05 1.414-.051 1.45-.058 1.479-.057 1.493-.063 1.497-.068 1.492-.068 1.474-.073 1.443-.076 1.405-.078 1.355-.08 1.29-.085 1.217-.086 1.134-.088 1.036-.09.928-.093.81-.097.68-.096.535-.097.376-.096.178-.076.201.886-.282.128-.408.107-.552.102-.69.096-.816.097-.934.094-1.039.089-1.133.088-1.22.086-1.293.084-1.355.08-1.405.08-1.446.075-1.474.073-1.492.068-1.5.068-1.493.063-1.479.057-1.45.058-1.414.052-1.366.05-1.304.043-1.234.042-1.15.036-1.056.034-.952.028-.837.026-.708.02-.571.014-.42.01-.262.01-.09.001h-.01zm.01 0h-.011.01z" fill="#000f5d" fill-rule="nonzero" stroke="#ffe700" stroke-width="1.463"/><path d="M483.249 299.014s-2.789-7.47-.753-12.678c2.036-5.208 31.01-3.54 32.443-.518 1.432 3.02.556 10.43.556 10.43s-1.591-1.512-3.502-1.889c-1.909-.38-5.41 7.553-5.41 7.553s-12.098 3.398-12.735 2.642c-.636-.756-2.068-10.195-4.615-10.195s-5.984 4.655-5.984 4.655z" fill="#000f5d" stroke="#ffe700" stroke-width="1.062"/><path d="m463.976 286.412.357.766-.369.45-.309.454-.252.458-.202.46-.155.46-.11.46-.072.463-.035.463-.003.465.03.466.059.47.085.465.112.466.132.457.15.45.169.442.18.43.192.413.198.399.206.383.203.362.202.34.199.313.19.29.177.26.165.232.147.203.127.167.103.131.077.096.05.059.014.016-.367.75-.02-.023-.054-.064-.083-.105-.11-.141-.134-.178-.154-.208-.171-.242-.19-.275-.198-.306-.208-.329-.212-.354-.217-.383-.216-.404-.212-.424-.205-.445-.197-.465-.182-.484-.167-.496-.148-.514-.125-.527-.099-.542-.068-.548-.037-.563.003-.568.045-.57.088-.571.137-.568.189-.558.239-.548.295-.535.352-.521.41-.502zm71.64-.522-.31.812-.393-.218-.774-.252-1.1-.247-1.393-.24-1.664-.225-1.907-.216-2.134-.204-2.336-.187-2.514-.173-2.672-.156-2.808-.14-2.923-.12-3.014-.1-3.083-.083-3.131-.06-3.157-.035-3.16-.014-3.142.01-3.103.036-3.04.06-2.958.09-2.849.115-2.722.146-2.572.175-2.4.206-2.207.24-1.988.269-1.75.303-1.485.34-1.198.367-.88.399-.516.39-.357-.766.663-.509.95-.429 1.235-.383 1.512-.344 1.766-.304 2.001-.275 2.217-.239 2.407-.206 2.578-.174 2.726-.147 2.856-.116 2.961-.09 3.043-.06 3.106-.035 3.147-.01 3.163.014 3.16.036 3.134.06 3.086.082 3.015.1 2.926.12 2.81.14 2.676.156 2.52.173 2.34.188 2.14.203 1.918.216 1.675.231 1.408.24 1.127.251.828.273.546.316zm.988 10.9.157-.91-.36.272.002-.01.015-.06.025-.095.03-.126.037-.156.04-.19.045-.224.047-.244.048-.27.047-.296.047-.314.044-.329.038-.347.033-.362.03-.373.019-.378.012-.39v-.394l-.01-.393-.023-.396-.035-.396-.05-.388-.065-.386-.082-.378-.1-.367-.117-.358-.138-.339-.159-.332-.182-.316-.205-.3-.23-.28-.26-.263.311-.812.302.308.274.332.245.357.216.378.188.393.166.412.14.424.117.43.095.439.075.442.06.445.038.447.027.442.01.44-.001.434-.012.422-.021.414-.03.403-.037.388-.042.373-.047.355-.05.334-.05.311-.052.29-.05.265-.048.234-.044.206-.04.177-.033.136-.025.106-.015.06-.008.03-.36.272zm.359-.273-.102.38-.257-.107.359-.273zm-7.994-1.53.033-.94.396.036.389.043.386.049.377.056.374.057.367.064.357.064.352.07.342.072.334.075.324.077.316.077.303.077.292.077.283.08.272.078.257.077.245.074.23.073.219.072.204.07.187.061.173.062.157.054.144.054.122.047.105.038.09.033.071.031.045.016.03.01.015.01-.156.91-.006-.002-.03-.01-.056-.023-.065-.025-.083-.033-.105-.039-.122-.047-.137-.048-.153-.054-.17-.062-.188-.062-.2-.07-.212-.067-.23-.072-.242-.074-.254-.078-.265-.077-.28-.074-.288-.078-.3-.077-.312-.077-.321-.077-.327-.07-.339-.072-.345-.07-.354-.064-.36-.064-.368-.056-.374-.052-.379-.048-.382-.044-.389-.036zm-11.852 7.27-.047-.94-.14.074.023-.025.067-.065.107-.102.147-.14.183-.175.217-.203.252-.234.284-.257.309-.275.339-.3.362-.314.386-.324.405-.34.426-.344.44-.35.456-.35.468-.354.479-.347.489-.34.492-.33.5-.317.498-.303.503-.288.502-.263.496-.241.494-.214.486-.184.475-.15.468-.118.455-.077.44-.03.425.01-.033.94-.383-.01-.402.031-.422.072-.437.108-.453.144-.465.175-.474.208-.483.231-.486.257-.489.278-.489.298-.489.311-.485.327-.48.334-.472.342-.46.344-.45.35-.437.344-.419.34-.399.334-.382.324-.359.308-.332.296-.309.275-.277.252-.249.229-.217.203-.18.17-.143.138-.107.103-.064.06-.02.018-.14.074zm.14-.074-.067.064-.074.01.14-.075zm-28.249 2.594.194-.895.14.036.32.033.46.012.582-.004.696-.023.796-.04.888-.058.97-.07 1.042-.082 1.104-.095 1.157-.105 1.2-.113 1.234-.119 1.26-.128 1.274-.131 1.28-.134 1.273-.139 1.262-.136 1.239-.139 1.207-.133 1.163-.134 1.113-.128 1.05-.12.982-.116.901-.106.811-.095.715-.088.604-.072.487-.059.359-.044.222-.025.077-.01.047.94-.077.01-.222.026-.359.044-.487.06-.605.071-.714.088-.811.095-.902.105-.981.116-1.053.12-1.114.13-1.163.133-1.207.133-1.238.139-1.262.136-1.277.139-1.28.134-1.274.13-1.26.13-1.237.117-1.2.113-1.16.106-1.105.095-1.045.082-.973.07-.891.056-.803.04-.703.024-.596.005-.479-.012-.364-.038-.267-.078zm-10.048-9.79v-.94l.537.025.524.08.506.128.494.17.48.216.463.254.45.286.433.321.42.347.405.37.39.394.378.411.364.424.348.437.338.445.322.447.31.45.297.447.286.442.27.438.259.421.249.409.233.39.222.366.209.344.197.311.185.28.17.247.154.2.139.16.118.113.092.062-.194.895-.182-.124-.175-.164-.175-.2-.18-.237-.188-.268-.195-.295-.203-.327-.216-.35-.222-.37-.233-.39-.246-.404-.255-.416-.267-.427-.279-.432-.29-.437-.3-.44-.313-.431-.324-.43-.335-.416-.348-.409-.36-.39-.37-.373-.383-.35-.395-.327-.408-.3-.419-.27-.434-.234-.442-.2-.457-.16-.473-.119-.484-.074-.497-.026zm-13.335 4.386.367-.75-.292-.065.022-.012.068-.04.106-.06.145-.082.184-.103.217-.12.253-.137.284-.151.314-.165.345-.175.37-.187.396-.193.42-.201.44-.208.46-.209.48-.21.497-.211.51-.208.523-.209.536-.2.544-.196.555-.185.557-.177.564-.165.568-.151.566-.136.567-.124.566-.1.56-.085.555-.059.547-.038.541-.012v.941l-.52.012-.531.038-.541.06-.548.08-.552.1-.554.118-.56.136-.557.147-.554.164-.551.173-.544.185-.538.19-.529.2-.517.204-.506.208-.49.21-.476.207-.454.208-.438.203-.415.2-.392.193-.368.183-.339.175-.31.164-.284.147-.247.136-.217.12-.18.099-.142.082-.105.06-.062.035-.022.012-.292-.065zm.292.064-.157.093-.135-.157.292.065z" fill="#000f5d" fill-rule="nonzero" stroke="#ffe700" stroke-width="1.545"/><path d="M474.272 312.435c1.326 1.112 11.504-6.44 13.155-6.318l28.708.042c5.753.422 5.104 7.319 7.034 7.116 1.929-.201.903-13.785-4.002-13.86-4.907-.075-31.204 1.779-36.615 1.928-7.9 1.452-8.578 5.68-8.28 11.092z" fill="#000f5d" stroke="#ffe700" stroke-width=".956"/><path d="m497.057 303.111-.005 1.54-.032-.017-.04.02-.049.047-.055.08-.062.1-.068.123-.072.143-.077.164-.081.177-.085.185-.088.198-.09.197-.093.206-.093.203-.095.202-.094.193-.095.19-.094.172-.093.169-.09.143-.09.122-.086.105-.083.076-.079.046-.075.018-.07-.018-.066-.054-.06-.097-.053-.147-.048-.194-.042-.26-.036-.355.046-1.279.022.21.031.194.041.168.049.131.056.089.062.054.068.017.073-.017.078-.046.082-.076.085-.105.088-.123.09-.143.093-.16.093-.173.095-.189.094-.193.094-.202.094-.203.092-.206.09-.197.087-.198.086-.185.081-.177.078-.164.073-.143.068-.131.062-.102.057-.08.05-.045.044-.02.038.017zm4.935 6.919-4.94-5.379.005-1.54 4.94 5.378zm2.252-8.598.006 1.54-.035.072-.037.105-.04.147-.041.181-.045.21-.046.24-.05.262-.05.282-.054.303-.056.315-.057.333-.06.345-.063.345-.065.35-.067.357-.069.345-.072.349-.074.332-.076.329-.078.312-.08.295-.084.273-.085.249-.088.227-.09.194-.092.168-.095.126-.097.089-.099.05-.102.003-.104-.038-.107-.093.005-1.54.105.093.102.038.1-.003.097-.05.096-.089.092-.126.091-.16.088-.193.086-.219.084-.248.082-.265.079-.294.077-.303.074-.32.073-.333.07-.341.069-.345.066-.35.064-.349.063-.345.06-.336.057-.333.056-.315.054-.312.052-.282.05-.27.047-.24.046-.219.045-.189.042-.156.04-.122.039-.08zm-.911-18.062.091.067.088.168.084.261.08.345c.298 1.651.397 3.338.5 5.016l.045.817.04.841.037.855.033.87.028.864.025.87.02.86.016.85.012.832.006.813.004.778-.001.75-.005.715-.011.673-.016.619-.022.547-.027.467-.033.357-.037.24-.04.126-.006-1.54.027-.084.022-.147.019-.198.015-.257.013-.312.01-.383.007-.446.005-.513v-1.2l-.007-.669-.01-.707-.015-.74-.018-.758-.022-.778-.025-.787-.03-.787-.033-.779-.038-.774-.04-.75-.045-.731-.05-.703c0-1.957-.697-3.687-.696-5.558zm-7.448.425.113-.042c2.392-.407 4.912-.628 7.336-.364 1.191-.008-5.978-.053-7.45.406zm-1.123 21.715-.046 1.28-.029-.443-.024-.53-.019-.61-.014-.67-.01-.723-.006-.77v-1.658l.006-.884.012-.909.014-.93.018-.947.022-.955.026-.972.03-.968.034-.964.038-.96.042-.938.047-.913.05-.892.055-.855c.104-1.657.247-3.313.585-4.932l.092-.286.096-.194.101-.093c-.064 1.74-.539 3.42-.71 5.227l-.058.72-.055.762-.05.803-.048.825-.043.855-.039.87-.036.884-.031.888-.028.893-.024.888-.02.88-.016.853-.012.83-.01.799-.005.766-.001.72v.66l.005.61.006.54.011.466.013.4.014.32.015.257z" fill="#000f5d" fill-rule="nonzero" stroke="#ffe700" stroke-width=".73"/><path d="m469.06 292.304.036.457-.247.018-.244.027-.24.04-.239.049-.232.058-.23.066-.225.073-.219.082-.217.087-.209.093-.202.098-.197.101-.192.104-.184.105-.176.109-.169.107-.16.108-.154.107-.145.105-.135.102-.125.099-.117.095-.108.089-.096.082-.086.076-.076.07-.063.058-.053.051-.045.041-.025.026-.016.018-.007.007-.487-.27.006-.005.02-.023.038-.036.044-.044.057-.054.07-.063.079-.074.093-.082.102-.087.111-.094.125-.1.134-.104.142-.109.155-.11.16-.112.17-.115.18-.115.189-.114.197-.115.205-.112.21-.108.223-.105.228-.1.234-.096.242-.088.248-.084.257-.074.262-.065.268-.054.274-.045.28-.032.283-.02zm62.637-.06-.146.445-.308-.029-.648-.031-.938-.027-1.206-.023-1.453-.02-1.676-.016-1.88-.013-2.067-.01-2.23-.007-2.372-.005-2.498-.002-2.601.002-2.684.002-2.746.005-2.788.007-2.811.008-2.815.01-2.797.01-2.756.013-2.7.014-2.622.015-2.521.015-2.404.016-2.263.015-2.106.016-1.927.018-1.725.016-1.505.015-1.266.016-1.004.014-.723.015-.415.012-.037-.458.433-.012.729-.015 1.007-.014 1.266-.016 1.509-.015 1.725-.016 1.926-.017 2.106-.017 2.263-.015 2.404-.016 2.525-.015 2.62-.015 2.701-.014 2.757-.012 2.797-.011 2.814-.01 2.812-.008 2.791-.007 2.746-.005 2.684-.002 2.6-.002 2.499.002 2.376.005 2.23.007 2.066.009 1.883.012 1.68.016 1.456.02 1.213.024.948.026.67.031.402.041zm4.953 2.778-.45.306-.006-.005-.024-.02-.036-.03-.05-.042-.066-.052-.075-.061-.09-.07-.102-.08-.111-.086-.123-.093-.13-.096-.143-.104-.15-.108-.155-.111-.166-.113-.169-.115-.175-.117-.182-.115-.186-.117-.19-.113-.194-.113-.197-.11-.196-.106-.2-.102-.2-.096-.196-.09-.2-.084-.195-.076-.19-.067-.19-.06-.183-.048-.179-.039.146-.445.215.046.216.059.213.066.217.075.216.084.215.091.214.098.212.101.21.11.209.11.204.115.204.118.197.119.192.121.189.12.182.12.176.118.169.117.162.114.152.11.146.106.134.102.126.095.114.089.103.08.093.072.081.064.067.055.053.044.04.033.023.02.01.006zm-55.81 9.018.074.673-.227.076-.219.084-.21.092-.203.098-.197.105-.189.11-.183.117-.176.123-.171.131-.167.136-.16.14-.157.146-.152.151-.15.157-.146.16-.142.163-.14.17-.14.173-.135.177-.136.181-.134.185-.134.187-.133.188-.132.194-.135.196-.136.198-.134.198-.138.201-.139.203-.141.204-.144.205-.147.205-.256-.53.143-.201.142-.202.14-.2.137-.199.136-.201.137-.202.135-.198.135-.196.135-.194.135-.196.138-.19.137-.188.14-.189.142-.18.144-.182.146-.177.15-.174.154-.167.157-.165.16-.158.167-.157.17-.147.176-.144.183-.138.187-.131.194-.125.2-.118.206-.112.215-.102.22-.095.23-.088.239-.08zm37.523-.887-.082.671-.173-.027-.372-.03-.545-.024-.701-.019-.849-.015-.98-.01-1.101-.006h-1.21l-1.31.002-1.395.007-1.47.01-1.532.014-1.583.02-1.62.023-1.65.028-1.666.03-1.669.035-1.662.037-1.642.04-1.611.044-1.569.047-1.513.05-1.449.052-1.37.056-1.28.058-1.179.06-1.065.064-.942.063-.802.067-.655.071-.49.07-.312.068-.073-.671.342-.077.504-.073.661-.07.808-.067.943-.064 1.068-.064 1.18-.06 1.281-.057 1.372-.056 1.449-.053 1.515-.05 1.57-.047 1.61-.045 1.644-.039 1.663-.037 1.668-.035 1.666-.03 1.65-.028 1.623-.022 1.583-.02 1.532-.016 1.47-.01 1.396-.007 1.31-.002h1.21l1.105.006.982.01.848.014.706.019.55.024.385.03.228.039zm4.161 3.696-.22.575-.01-.01-.022-.027-.041-.04-.055-.06-.07-.075-.081-.088-.093-.1-.105-.11-.116-.122-.124-.13-.133-.139-.14-.144-.15-.15-.152-.154-.159-.158-.162-.159-.166-.162-.168-.16-.17-.16-.17-.158-.17-.155-.168-.149-.167-.144-.162-.136-.16-.129-.154-.121-.147-.108-.142-.1-.132-.085-.123-.07-.113-.057-.099-.04.083-.67.123.05.13.065.137.08.143.093.15.103.157.115.16.126.165.132.167.14.17.148.173.153.173.158.172.159.172.162.17.164.168.162.165.163.161.158.155.159.149.15.142.147.133.138.127.13.116.122.106.113.096.101.081.088.07.074.055.06.041.045.028.03.007.007z" fill="#000f5d" fill-rule="nonzero" stroke="#ffe700" stroke-width="1.074"/><path transform="matrix(.85782 0 0 1.06591 69.818 -24.8)" fill="#000f5d" stroke="#ffe700" d="m486.013 323.537-1.237 8.517h30.943l-.991-8.517z"/><use xlink:href="#a" height="600" width="1000" transform="translate(21.247)" stroke-width="7.2"/><use xlink:href="#a" height="600" width="1000" transform="translate(31.649)" stroke-width="7.2"/><use xlink:href="#a" height="600" width="1000" transform="translate(42.452)" stroke-width="7.2"/><path id="a" d="M476.125 356.406c-.579.076-1.171-.007-1.75.063-.43.008-.853.085-1.281.125-.741.185-1.566.446-1.969 1.156-.394.691-.148 1.504.138 2.184.227.52.413 1.063.725 1.542a14.375 14.375 0 0 0 2.195 3.082c.64.685 1.282 1.375 2.05 1.918.708.572 1.438 1.148 2.273 1.522.863.288 1.779.328 2.682.408.993.03 1.991.059 2.985 0 1.002-.05 2.01-.12 2.994-.323.585-.15 1.282-.37 1.515-.99.335-.61.058-1.326-.2-1.914-.34-.799-.891-1.483-1.348-2.215-.936-1.233-1.896-2.448-2.939-3.592-.543-.574-1.066-1.17-1.701-1.643-.715-.461-1.519-.762-2.337-.983-.503-.095-1.002-.222-1.516-.24-.564-.084-1.136-.056-1.703-.1h-.813zm-.875 2.313c1.172.018 2.352-.06 3.511.102.682.116 1.368.233 1.989.554.578.272 1.012.77 1.46 1.223.513.55.993 1.13 1.492 1.693.81 1.037 1.666 2.046 2.33 3.186.084.175.427.512.027.475-1.02.135-2.048.17-3.075.187-.484.007-.971-.019-1.457-.026-.74-.042-1.499-.058-2.214-.27a13.016 13.016 0 0 1-2.17-1.572c-.671-.618-1.332-1.263-1.884-1.994-.519-.607-.926-1.294-1.325-1.981-.206-.459-.45-.904-.59-1.39.578-.149 1.192-.146 1.792-.164l.114-.023z" fill="#ffe700" fill-rule="nonzero" stroke-width="7.2"/><use xlink:href="#a" height="600" width="1000" transform="translate(10.384)" stroke-width="7.2"/></g></svg>