<svg xmlns="http://www.w3.org/2000/svg" xmlns:xlink="http://www.w3.org/1999/xlink" width="1000" height="600" id="svg2"><defs id="defs4"><style id="style6"/><path style="marker:none" id="path4332-1" d="M617.486 300.277a118.225 118.225 0 1 1-236.45 0 118.225 118.225 0 1 1 236.45 0z" color="#000" fill="none" stroke="#ffe700" stroke-width="5.9259" overflow="visible"/><path style="marker:none" id="path4332-1-7" d="M617.486 300.277a118.225 118.225 0 1 1-236.45 0 118.225 118.225 0 1 1 236.45 0z" color="#000" fill="none" stroke="#ffe700" stroke-width="5.9259" overflow="visible"/><path style="marker:none" id="path4332-1-4" d="M617.486 300.277a118.225 118.225 0 1 1-236.45 0 118.225 118.225 0 1 1 236.45 0z" color="#000" fill="none" stroke="#ffe700" stroke-width="5.9259" overflow="visible"/></defs><g id="layer1" transform="translate(127.953 -226.181)"><g id="g3277" transform="translate(-125 232.362)" fill-rule="evenodd"><path id="rect10" fill="#000f5d" stroke-width="7.2" d="M-2.953-6.181h1000v600h-1000z"/><g transform="rotate(-140.494 498 295.759)" style="text-align:start;line-height:125%;-inkscape-font-specification:Rockwell Bold" id="text4334-8" font-size="26.625" font-weight="700" letter-spacing="0" word-spacing="0" fill="#ffe700" font-family="Rockwell"><path d="M498.663 181.954l.144 3.052-2.74.13.568 11.96 2.74-.13.145 3.052-10.207.484-.145-3.052 2.766-.13-.567-11.96-2.766.13-.145-3.051z" id="path5837"/><path d="M480.481 183.126l.73 2.967-2.348.578 2.859 11.627 2.348-.578.73 2.967-7.36 1.81-9.171-9.366 1.965 7.992 2.285-.562.73 2.966-7.878 1.938-.73-2.967 2.462-.606-3.62-14.72 3.914-.962 10.775 11.153-2.44-9.922-2.21.543-.729-2.967z" id="path5839"/><path d="M453.807 190.646l1.407 2.712-2.435 1.263 5.514 10.628 2.435-1.263 1.407 2.712-7.605 3.945c-1.6.83-2.94 1.401-4.019 1.712-1.078.31-2.239.36-3.48.15-1.242-.21-2.425-.74-3.55-1.592-1.126-.851-2.046-1.966-2.76-3.343a10.211 10.211 0 0 1-1.09-3.484c-.148-1.207-.104-2.265.133-3.174a7.021 7.021 0 0 1 1.236-2.516c.587-.768 1.178-1.375 1.772-1.82.594-.445 1.572-1.02 2.934-1.727zm-5.194 6.136l-1.004.521c-1.215.631-2.097 1.289-2.645 1.973-.548.685-.831 1.537-.849 2.557-.017 1.02.307 2.172.973 3.457.635 1.223 1.391 2.149 2.269 2.777.878.628 1.772.912 2.682.85.91-.062 1.938-.39 3.084-.985l1.004-.521z" id="path5841"/><path d="M429.581 204.624l1.906 2.388-2.145 1.71 7.467 9.361 2.144-1.71 1.905 2.388-7.988 6.372-1.905-2.388 2.165-1.727-7.467-9.36-2.165 1.726-1.905-2.388z" id="path5843"/><path d="M406.178 231.81l-2.306-2.003 5.832-6.713 2.306 2.004-1.518 1.747 2.909 1.39 3.078-3.543-1.715-2.764-1.586 1.825-2.306-2.003 5.251-6.046 2.307 2.004-1.467 1.688 6.73 10.512 1.576-1.816 2.307 2.003-7.742 8.912-2.306-2.004 1.594-1.835-11.528-4.986zm9.71-2.395l5.102 2.433-3.046-4.799z" id="path5845"/><path d="M399.6 235.894l2.694 1.441-1.14 2.132 10.557 5.649 1.14-2.132 2.694 1.441-3.575 6.683-13.096.557 7.256 3.882 1.11-2.075 2.693 1.442-3.826 7.152-2.694-1.44 1.196-2.236-13.366-7.151 1.901-3.554 15.498-.554-9.01-4.82-1.073 2.005-2.694-1.441z" id="path5847"/><path d="M385.682 278.946l-2.948-.801 2.334-8.581 2.948.802-.608 2.233 3.224-.013 1.232-4.528-2.746-1.744-.635 2.333-2.948-.802 2.102-7.727 2.948.802-.587 2.157 10.63 6.543.63-2.321 2.948.802-3.098 11.39-2.948-.801.638-2.346-12.55.52zm7.703-6.379l5.652-.025-4.83-2.998z" id="path5849"/></g><g transform="matrix(.20389 0 0 -.2039 410.143 391.075)" id="g5324" fill="#ffe700"><path d="M468.792 23.619c5.562-11.155 25.2-4.663 29.502-.364 3.286 3.289 29.927 34.331 29.927 34.331-3.921 9.343-25.435 1.379-28.447-2.061-3.008-3.439-30.982-31.906-30.982-31.906z" id="path1320"/><path d="M435.802 22.984c4.666-11.553 24.753-6.626 29.373-2.678 3.54 3.022 32.534 31.877 32.534 31.877-3.174 9.622-25.249 3.372-28.521.178-3.271-3.195-33.386-29.377-33.386-29.377z" id="path1322"/><path d="M402.86 24.94c3.745-11.885 24.153-8.55 29.072-4.976 3.765 2.734 34.937 29.226 34.937 29.226-2.412 9.844-24.912 5.344-28.423 2.415-3.513-2.925-35.586-26.665-35.586-26.665z" id="path1324"/><path d="M370.172 29.474c2.803-12.144 23.408-10.42 28.594-7.241 3.967 2.429 37.122 26.396 37.122 26.396-1.636 9.998-24.414 7.278-28.145 4.636-3.733-2.644-37.571-23.791-37.571-23.791z" id="path1326"/><path d="M337.94 36.559c1.841-12.327 22.52-12.224 27.937-9.463 4.148 2.112 39.077 23.401 39.077 23.401-.845 10.1-23.765 9.172-27.695 6.833-3.923-2.346-39.319-20.771-39.319-20.771z" id="path1328"/><path d="M306.363 46.148c.869-12.432 21.492-13.953 27.112-11.624 4.297 1.782 40.791 20.264 40.791 20.264-.049 10.129-22.974 11.011-27.073 8.982s-40.83-17.622-40.83-17.622z" id="path1330"/><path d="M275.638 58.187c-.107-12.461 20.33-15.593 26.116-13.713 4.424 1.438 42.253 17 42.253 17 .747 10.105-22.036 12.778-26.284 11.079-4.241-1.7-42.085-14.366-42.085-14.366z" id="path1332"/><path d="M245.951 72.601c-1.086-12.415 19.043-17.144 24.958-15.725 4.524 1.089 43.459 13.635 43.459 13.635 1.536 10.017-20.969 14.468-25.332 13.108-4.365-1.362-43.085-11.018-43.085-11.018z" id="path1334"/><path d="M217.489 89.3c-2.058-12.295 17.639-18.586 23.645-17.634 4.597.728 44.395 10.181 44.395 10.181 2.319 9.863-19.766 16.069-24.226 15.056-4.46-1.013-43.814-7.603-43.814-7.603z" id="path1336"/><path d="M190.418 108.18c-3.015-12.095 16.128-19.91 22.192-19.434 4.639.364 45.059 6.663 45.059 6.663 3.081 9.653-18.447 17.571-22.971 16.912-4.526-.662-44.28-4.141-44.28-4.141z" id="path1338"/><path d="M164.92 129.125c-3.958-11.819 14.514-21.116 20.596-21.116 4.653 0 45.439 3.108 45.439 3.108 3.835 9.385-17.009 18.965-21.572 18.662-4.563-.305-44.463-.654-44.463-.654z" id="path1340"/><path d="M141.139 152.005c-4.871-11.472 12.815-22.188 18.879-22.666 4.634-.366 45.544-.464 45.544-.464 4.556 9.05-15.471 20.239-20.044 20.293-4.572.057-44.379 2.837-44.379 2.837z" id="path1342"/><path d="M119.227 176.683c-5.757-11.055 11.035-23.125 17.041-24.077 4.597-.728 45.369-4.041 45.369-4.041 5.251 8.667-13.835 21.396-18.389 21.809-4.554.413-44.021 6.309-44.021 6.309z" id="path1344"/><path d="M99.32 203.001c-6.604-10.566 9.185-23.916 15.1-25.339 4.524-1.086 44.91-7.583 44.91-7.583 5.918 8.225-12.112 22.412-16.621 23.181-4.507.767-43.389 9.741-43.389 9.741z" id="path1346"/><path d="M81.539 230.802c-7.415-10.017 7.28-24.565 13.064-26.445 4.424-1.436 44.177-11.084 44.177-11.084 6.545 7.737-10.317 23.293-14.751 24.412-4.431 1.122-42.49 13.117-42.49 13.117z" id="path1348"/><path d="M65.992 259.916c-8.176-9.409 5.332-25.063 10.952-27.393 4.297-1.78 43.171-14.517 43.171-14.517 7.129 7.2-8.462 24.031-12.791 25.496-4.33 1.465-41.332 16.414-41.332 16.414z" id="path1350"/><path d="M52.782 290.155c-8.892-8.735 3.347-25.403 8.765-28.167 4.146-2.112 41.899-17.859 41.899-17.859 7.676 6.619-6.545 24.619-10.75 26.418-4.204 1.803-39.914 19.608-39.914 19.608z" id="path1352"/><path d="M41.979 321.339c-9.543-8.01 1.348-25.588 6.533-28.767 3.967-2.429 40.369-21.094 40.369-21.094 8.169 5.999-4.597 25.059-8.645 27.185-4.048 2.122-38.257 22.676-38.257 22.676z" id="path1354"/><path d="M33.661 353.272c-10.146-7.239-.667-25.615 4.253-29.189 3.765-2.737 38.591-24.194 38.591-24.194 8.613 5.337-2.615 25.342-6.487 27.776-3.87 2.436-36.357 25.607-36.357 25.607z" id="path1356"/><path d="M27.872 385.763c-10.684-6.418-2.676-25.483 1.951-29.434 3.538-3.022 36.572-27.148 36.572-27.148 9.009 4.644-.62 25.469-4.287 28.201-3.665 2.731-34.236 28.381-34.236 28.381z" id="path1358"/><path d="M24.652 418.604c-11.155-5.559-4.666-25.195-.369-29.495 3.291-3.289 34.333-29.934 34.333-29.934 9.343 3.923 1.382 25.439-2.061 28.45-3.439 3.011-31.903 30.979-31.903 30.979z" id="path1360"/><path d="M24.017 451.598c-11.56-4.666-6.631-24.751-2.678-29.375 3.02-3.535 31.875-32.532 31.875-32.532 9.622 3.176 3.372 25.251.176 28.523-3.194 3.269-29.373 33.384-29.373 33.384z" id="path1362"/><path d="M25.97 484.547c-11.885-3.75-8.55-24.16-4.973-29.082 2.737-3.76 29.226-34.934 29.226-34.934 9.839 2.415 5.342 24.913 2.415 28.42-2.93 3.516-26.668 35.596-26.668 35.596z" id="path1364"/><path d="M30.506 517.232c-12.144-2.803-10.42-23.408-7.241-28.594 2.432-3.965 26.394-37.119 26.394-37.119 10 1.631 7.283 24.404 4.639 28.145-2.644 3.721-23.792 37.568-23.792 37.568z" id="path1366"/><path d="M37.594 549.459c-12.327-1.836-12.224-22.52-9.463-27.93 2.112-4.15 23.398-39.082 23.398-39.082 10.098.84 9.172 23.77 6.833 27.695-2.341 3.926-20.768 39.317-20.768 39.317z" id="path1368"/><path d="M47.186 581.041c-12.434-.869-13.955-21.494-11.626-27.119 1.777-4.297 20.261-40.791 20.261-40.791 10.132.049 11.011 22.979 8.984 27.08-2.028 4.092-17.619 40.83-17.619 40.83z" id="path1370"/><path d="M59.225 611.764c-12.463.107-15.596-20.332-13.716-26.113 1.438-4.424 16.997-42.256 16.997-42.256 10.107-.752 12.778 22.041 11.082 26.279-1.7 4.248-14.363 42.09-14.363 42.09z" id="path1372"/><path d="M73.639 641.451c-12.417 1.084-17.144-19.043-15.725-24.961 1.089-4.521 13.633-43.457 13.633-43.457 10.015-1.533 14.47 20.967 13.11 25.332-1.365 4.365-11.018 43.086-11.018 43.086z" id="path1374"/><path d="M90.338 669.918c-12.292 2.051-18.584-17.646-17.632-23.652.725-4.59 10.178-44.395 10.178-44.395 9.863-2.314 16.067 19.775 15.054 24.229-1.013 4.454-7.6 43.818-7.6 43.818z" id="path1376"/><path d="M109.217 696.979c-12.09 3.018-19.91-16.123-19.434-22.188.366-4.639 6.663-45.059 6.663-45.059 9.656-3.086 17.573 18.447 16.912 22.969-.659 4.522-4.141 44.278-4.141 44.278z" id="path1378"/><path d="M130.165 722.486c-11.819 3.955-21.113-14.521-21.113-20.596-.002-4.658 3.105-45.449 3.105-45.449 9.38-3.828 18.965 17.012 18.662 21.572-.308 4.571-.654 44.473-.654 44.473z" id="path1380"/><path d="M153.045 746.266c-11.47 4.863-22.185-12.813-22.666-18.877-.364-4.639-.464-45.547-.464-45.547 9.048-4.561 20.239 15.469 20.293 20.039.057 4.57 2.837 44.385 2.837 44.385z" id="path1382"/><path d="M177.726 768.17c-11.057 5.762-23.127-11.035-24.082-17.041-.723-4.59-4.033-45.361-4.033-45.361 8.662-5.254 21.389 13.828 21.804 18.379.412 4.56 6.311 44.023 6.311 44.023z" id="path1384"/><path d="M204.046 788.082c-10.571 6.602-23.921-9.189-25.342-15.098-1.086-4.531-7.585-44.912-7.585-44.912 8.228-5.918 22.41 12.109 23.181 16.621.769 4.502 9.746 43.389 9.746 43.389z" id="path1386"/><path d="M231.849 805.865c-10.022 7.412-24.568-7.285-26.45-13.066-1.438-4.424-11.086-44.18-11.086-44.18 7.737-6.543 23.293 10.322 24.414 14.746 1.123 4.434 13.122 42.5 13.122 42.5z" id="path1388"/><path d="M260.958 821.402c-9.404 8.184-25.061-5.322-27.393-10.947-1.777-4.297-14.517-43.174-14.517-43.174 7.197-7.129 24.031 8.467 25.498 12.793 1.463 4.326 16.412 41.328 16.412 41.328z" id="path1390"/><path d="M291.197 834.615c-8.733 8.896-25.4-3.34-28.164-8.76-2.112-4.15-17.861-41.904-17.861-41.904 6.619-7.676 24.622 6.543 26.423 10.752 1.8 4.199 19.602 39.912 19.602 39.912z" id="path1392"/><path d="M322.381 845.416c-8.008 9.551-25.586-1.348-28.765-6.533-2.432-3.965-21.094-40.361-21.094-40.361 5.996-8.174 25.056 4.59 27.183 8.643 2.125 4.042 22.676 38.251 22.676 38.251z" id="path1394"/><path d="M354.317 853.736c-7.234 10.146-25.613.664-29.187-4.258-2.737-3.76-24.197-38.584-24.197-38.584 5.334-8.613 25.339 2.617 27.776 6.484 2.435 3.868 25.608 36.358 25.608 36.358z" id="path1396"/><path d="M386.808 859.527c-6.416 10.684-25.483 2.676-29.434-1.953-3.02-3.535-27.148-36.572-27.148-36.572 4.644-9.004 25.469.615 28.201 4.287 2.731 3.662 28.381 34.238 28.381 34.238z" id="path1398"/><path d="M419.652 862.74c-5.559 11.162-25.198 4.668-29.497.371-3.289-3.291-29.934-34.326-29.934-34.326 3.926-9.346 25.437-1.387 28.452 2.061 3.008 3.437 30.979 31.894 30.979 31.894z" id="path1400"/><path d="M452.645 863.375c-4.665 11.563-24.751 6.631-29.375 2.676-3.538-3.018-32.537-31.865-32.537-31.865 3.176-9.629 25.251-3.379 28.525-.186 3.272 3.193 33.387 29.375 33.387 29.375z" id="path1402"/><path d="M485.589 861.422c-3.745 11.885-24.155 8.545-29.072 4.971-3.77-2.734-34.941-29.219-34.941-29.219 2.412-9.844 24.91-5.342 28.423-2.422 3.515 2.93 35.59 26.67 35.59 26.67z" id="path1404"/><path d="M518.275 856.891c-2.798 12.139-23.408 10.41-28.594 7.236-3.965-2.432-37.119-26.396-37.119-26.396 1.631-10 24.409-7.275 28.145-4.639 3.73 2.646 37.568 23.799 37.568 23.799z" id="path1406"/><path d="M550.506 849.801c-1.841 12.324-22.515 12.227-27.935 9.463-4.15-2.109-39.082-23.398-39.082-23.398.845-10.098 23.77-9.18 27.695-6.836 3.925 2.344 39.322 20.771 39.322 20.771z" id="path1408"/><path d="M582.083 840.211c-.869 12.432-21.489 13.945-27.109 11.621-4.297-1.777-40.796-20.264-40.796-20.264.054-10.127 22.974-11.016 27.075-8.984 4.097 2.031 40.83 17.627 40.83 17.627z" id="path1410"/><path d="M612.811 828.16c.107 12.471-20.332 15.596-26.113 13.721-4.429-1.436-42.261-17.002-42.261-17.002-.747-10.098 22.041-12.773 26.284-11.074 4.243 1.699 42.09 14.355 42.09 14.355z" id="path1412"/><path d="M642.494 813.746c1.089 12.412-19.043 17.148-24.951 15.732-4.526-1.094-43.467-13.633-43.467-13.633-1.533-10.02 20.972-14.473 25.337-13.115 4.365 1.368 43.081 11.016 43.081 11.016z" id="path1414"/><path d="M670.965 797.047c2.056 12.295-17.642 18.584-23.652 17.637-4.595-.732-44.395-10.176-44.395-10.176-2.319-9.863 19.766-16.074 24.224-15.059 4.463 1.016 43.823 7.598 43.823 7.598z" id="path1416"/><path d="M698.026 778.17c3.018 12.09-16.123 19.912-22.192 19.434-4.639-.371-45.054-6.67-45.054-6.67-3.086-9.648 18.442-17.568 22.969-16.904 4.527.664 44.277 4.14 44.277 4.14z" id="path1418"/><path d="M723.529 757.223c3.955 11.816-14.517 21.113-20.596 21.113-4.658 0-45.444-3.105-45.444-3.105-3.833-9.385 17.012-18.965 21.572-18.662 4.56.303 44.468.654 44.468.654z" id="path1420"/><path d="M747.308 734.332c4.868 11.475-12.813 22.197-18.877 22.666-4.639.371-45.547.479-45.547.479-4.556-9.053 15.469-20.244 20.044-20.303 4.571-.049 44.38-2.842 44.38-2.842z" id="path1422"/><path d="M769.217 709.654c5.757 11.055-11.035 23.125-17.041 24.082-4.595.732-45.371 4.043-45.371 4.043-5.254-8.672 13.838-21.396 18.389-21.807 4.556-.419 44.023-6.318 44.023-6.318z" id="path1424"/><path d="M789.125 683.336c6.606 10.566-9.185 23.926-15.103 25.342-4.521 1.084-44.912 7.588-44.912 7.588-5.913-8.232 12.119-22.412 16.621-23.184 4.507-.771 43.394-9.746 43.394-9.746z" id="path1426"/><path d="M806.903 655.533c7.417 10.02-7.28 24.57-13.062 26.445-4.429 1.436-44.18 11.094-44.18 11.094-6.548-7.744 10.317-23.301 14.751-24.424 4.434-1.113 42.491-13.115 42.491-13.115z" id="path1428"/><path d="M822.45 626.422c8.174 9.404-5.332 25.059-10.952 27.393-4.297 1.777-43.174 14.521-43.174 14.521-7.129-7.207 8.462-24.033 12.793-25.498 4.331-1.465 41.333-16.416 41.333-16.416z" id="path1430"/><path d="M835.658 596.178c8.892 8.74-3.345 25.41-8.765 28.164-4.146 2.119-41.899 17.871-41.899 17.871-7.676-6.621 6.543-24.629 10.747-26.426 4.204-1.797 39.917-19.609 39.917-19.609z" id="path1432"/><path d="M846.458 564.996c9.546 8.008-1.343 25.586-6.533 28.77-3.965 2.432-40.366 21.094-40.366 21.094-8.174-5.996 4.595-25.059 8.643-27.188 4.048-2.119 38.256-22.676 38.256-22.676z" id="path1434"/><path d="M854.774 533.063c10.146 7.236.669 25.615-4.248 29.189-3.77 2.734-38.594 24.199-38.594 24.199-8.613-5.342 2.612-25.342 6.484-27.783 3.873-2.432 36.358-25.605 36.358-25.605z" id="path1436"/><path d="M860.56 500.572c10.688 6.416 2.676 25.479-1.948 29.434-3.535 3.018-36.572 27.148-36.572 27.148-9.009-4.648.62-25.469 4.287-28.203 3.667-2.734 34.233-28.379 34.233-28.379z" id="path1438"/><path d="M863.783 467.721c11.152 5.566 4.668 25.195.366 29.502-3.291 3.291-34.331 29.932-34.331 29.932-9.341-3.916-1.382-25.439 2.061-28.447 3.442-3.019 31.904-30.987 31.904-30.987z" id="path1440"/><path d="M864.413 434.73c11.558 4.666 6.631 24.749 2.681 29.377-3.018 3.535-31.875 32.539-31.875 32.539-9.619-3.184-3.374-25.254-.181-28.525 3.193-3.271 29.375-33.391 29.375-33.391z" id="path1442"/><path d="M862.455 401.786c11.89 3.745 8.555 24.153 4.976 29.075-2.729 3.765-29.224 34.937-29.224 34.937-9.839-2.412-5.342-24.91-2.417-28.42 2.929-3.512 26.665-35.592 26.665-35.592z" id="path1444"/><path d="M857.918 369.095c12.144 2.803 10.42 23.411 7.241 28.596-2.427 3.967-26.392 37.124-26.392 37.124-10-1.633-7.28-24.412-4.639-28.147 2.643-3.73 23.79-37.573 23.79-37.573z" id="path1446"/><path d="M850.833 336.864c12.324 1.841 12.222 22.52 9.463 27.939-2.114 4.146-23.398 39.08-23.398 39.08-10.098-.842-9.18-23.767-6.836-27.695 2.344-3.924 20.771-39.324 20.771-39.324z" id="path1448"/><path d="M841.239 305.289c12.432.867 13.95 21.489 11.626 27.112-1.782 4.297-20.259 40.793-20.259 40.793-10.137-.046-11.016-22.971-8.989-27.073 2.026-4.099 17.622-40.832 17.622-40.832z" id="path1450"/><path d="M829.193 274.564c12.466-.112 15.596 20.327 13.721 26.113-1.436 4.426-16.997 42.258-16.997 42.258-10.107.747-12.778-22.036-11.084-26.282 1.699-4.245 14.36-42.089 14.36-42.089z" id="path1452"/><path d="M814.779 244.876c12.412-1.086 17.144 19.043 15.723 24.958-1.084 4.524-13.628 43.462-13.628 43.462-10.015 1.536-14.468-20.969-13.11-25.334 1.361-4.365 11.015-43.086 11.015-43.086z" id="path1454"/><path d="M798.075 216.412c12.295-2.058 18.589 17.639 17.637 23.647-.728 4.595-10.176 44.395-10.176 44.395-9.863 2.322-16.069-19.766-15.059-24.224 1.016-4.46 7.598-43.818 7.598-43.818z" id="path1456"/><path d="M779.198 189.347c12.09-3.018 19.907 16.125 19.434 22.19-.366 4.639-6.665 45.059-6.665 45.059-9.648 3.088-17.568-18.445-16.909-22.969.659-4.524 4.14-44.28 4.14-44.28z" id="path1458"/><path d="M758.246 163.846c11.821-3.958 21.118 14.514 21.118 20.596 0 4.653-3.105 45.444-3.105 45.444-9.385 3.831-18.965-17.012-18.662-21.572.302-4.563.649-44.468.649-44.468z" id="path1460"/><path d="M735.365 140.064c11.47-4.868 22.188 12.817 22.666 18.882.361 4.636.469 45.544.469 45.544-9.053 4.558-20.244-15.471-20.298-20.042-.054-4.572-2.837-44.384-2.837-44.384z" id="path1462"/><path d="M710.682 118.158c11.055-5.757 23.125 11.03 24.077 17.041.728 4.592 4.043 45.369 4.043 45.369-8.667 5.254-21.392-13.835-21.807-18.389-.415-4.554-6.313-44.021-6.313-44.021z" id="path1464"/><path d="M684.359 98.25c10.566-6.606 23.921 9.185 25.342 15.1 1.084 4.524 7.588 44.912 7.588 44.912-8.223 5.918-22.412-12.112-23.184-16.621-.767-4.506-9.746-43.391-9.746-43.391z" id="path1466"/><path d="M656.556 80.472c10.02-7.417 24.565 7.28 26.45 13.064 1.436 4.424 11.089 44.177 11.089 44.177-7.739 6.545-23.296-10.315-24.414-14.749-1.123-4.433-13.125-42.492-13.125-42.492z" id="path1468"/><path d="M627.445 64.93c9.404-8.179 25.059 5.327 27.393 10.947 1.777 4.297 14.521 43.171 14.521 43.171-7.202 7.131-24.033-8.457-25.498-12.788-1.465-4.328-16.416-41.33-16.416-41.33z" id="path1470"/><path d="M597.201 51.717c8.735-8.889 25.405 3.347 28.164 8.765 2.114 4.148 17.866 41.902 17.866 41.902-6.616 7.673-24.619-6.545-26.421-10.75-1.802-4.201-19.609-39.917-19.609-39.917z" id="path1472"/><path d="M566.019 40.921c8.008-9.548 25.586 1.343 28.765 6.528 2.432 3.967 21.099 40.369 21.099 40.369-5.996 8.171-25.063-4.595-27.188-8.645-2.124-4.045-22.676-38.252-22.676-38.252z" id="path1474"/><path d="M534.076 32.604c7.241-10.149 25.62-.667 29.194 4.25 2.734 3.765 24.199 38.591 24.199 38.591-5.337 8.613-25.342-2.615-27.778-6.484-2.436-3.869-25.615-36.357-25.615-36.357z" id="path1476"/><path d="M501.585 26.817c6.421-10.684 25.483-2.676 29.438 1.948 3.022 3.538 27.153 36.572 27.153 36.572-4.644 9.006-25.474-.618-28.203-4.285-2.733-3.666-28.388-34.235-28.388-34.235z" id="path1478"/></g><g transform="rotate(156.987 434.404 277.458) scale(.76602)" style="text-align:start;line-height:125%;-inkscape-font-specification:Rockwell Bold" id="text4334" font-size="34.757" font-weight="700" letter-spacing="0" word-spacing="0" fill="#ffe700" font-family="Rockwell"><path d="M617.564 305.416l3.969.393-.35 3.53 15.555 1.539.35-3.53-5.472-.542.4-4.036 9.44.934-2.108 21.297-9.44-.934.394-3.986 5.472.542.36-3.632-15.555-1.539-.35 3.53-3.969-.393z" style="text-align:start;line-height:125%;-inkscape-font-specification:Rockwell Bold" id="path5852"/><path d="M615.558 324.899l3.798 1.219-.903 2.812 14.883 4.778.902-2.812 3.798 1.22-3.487 10.858-3.797-1.22.757-2.358-4.928-1.583-1.966 6.125 4.928 1.582.732-2.279 3.797 1.22-3.465 10.794-3.798-1.22.908-2.827-14.882-4.778-.908 2.828-3.798-1.22 3.466-10.794 3.797 1.22-.731 2.278 6.14 1.971 1.966-6.124-6.14-1.971-.757 2.359-3.798-1.22z" style="text-align:start;line-height:125%;-inkscape-font-specification:Rockwell Bold" id="path5854"/><path d="M607.043 350.04l3.458 1.986-1.412 2.458 13.553 7.788 1.412-2.458 3.458 1.988-10.367 18.04-6.49-3.73 2.25-3.913 3.031 1.742 3.645-6.342-4.724-2.715-2.943 5.12-3.458-1.986 2.943-5.121-5.37-3.086-3.645 6.342 3.06 1.758-2.249 3.915-6.519-3.746z" style="text-align:start;line-height:125%;-inkscape-font-specification:Rockwell Bold" id="path5856"/><path d="M591.812 408.024l-2.88 2.758-5.752-6.006 2.881-2.758c2.883 1.375 5.334 1.096 7.352-.837 1.667-1.596 2.384-3.371 2.15-5.325-.233-1.953-1.109-3.723-2.627-5.308-1.588-1.66-3.325-2.57-5.21-2.73-1.885-.161-3.526.427-4.924 1.765-1.144 1.096-1.773 2.443-1.888 4.04-.115 1.598.338 3.233 1.358 4.903l-4.897 1.61c-2.512-5.175-1.598-9.841 2.741-13.996 3.065-2.934 6.166-4.321 9.303-4.161 3.137.16 5.915 1.503 8.333 4.028 1.721 1.798 2.823 3.758 3.305 5.881.482 2.123.366 4.181-.35 6.174-.715 1.993-1.89 3.772-3.525 5.337-2.035 1.949-4.247 3.05-6.637 3.301z" style="text-align:start;line-height:125%;-inkscape-font-specification:Rockwell Bold" id="path5858"/><path d="M570.19 395.104l2.209 3.321-2.982 1.983 8.654 13.016 2.982-1.982 2.208 3.32-11.108 7.386-2.209-3.32 3.01-2.002-8.653-13.017-3.01 2.002-2.209-3.321z" style="text-align:start;line-height:125%;-inkscape-font-specification:Rockwell Bold" id="path5860"/><path d="M553.91 405.353l1.64 3.635-3.233 1.46 6.43 14.246 3.232-1.459-2.261-5.012 3.697-1.668 3.902 8.647-19.507 8.803-3.902-8.647 3.65-1.648 2.263 5.012 3.326-1.5-6.43-14.248-3.233 1.46-1.64-3.636z" style="text-align:start;line-height:125%;-inkscape-font-specification:Rockwell Bold" id="path5862"/><path d="M531.297 414.283l.871 3.892-3.23.722 1.394 6.228 8.264 7.628 2.816-.63.87 3.892-11.526 2.58-.871-3.892 2.269-.508-4.64-4.875-2.167 6.399 2.368-.53.871 3.892-10.152 2.272-.871-3.892 2.832-.634 3.942-10.36-1.394-6.228-3.213.72-.87-3.893z" style="text-align:start;line-height:125%;-inkscape-font-specification:Rockwell Bold" id="path5864"/><path d="M487.814 442.027c-4.06-.326-7.16-1.755-9.301-4.287-2.141-2.533-3.076-5.485-2.806-8.857.27-3.383 1.668-6.152 4.19-8.305 2.522-2.153 5.807-3.067 9.856-2.743 4.207.337 7.341 1.8 9.404 4.389 2.063 2.588 2.964 5.507 2.704 8.755-.27 3.36-1.657 6.124-4.163 8.29-2.507 2.166-5.801 3.085-9.884 2.758zm.345-4.297c1.804.144 3.39-.41 4.755-1.662 1.366-1.253 2.154-3.187 2.364-5.804.185-2.312-.287-4.211-1.416-5.698-1.13-1.486-2.614-2.303-4.452-2.45-1.804-.145-3.393.411-4.765 1.669-1.372 1.258-2.16 3.167-2.366 5.727-.183 2.29.272 4.193 1.364 5.71 1.093 1.518 2.598 2.354 4.516 2.508z" style="text-align:start;line-height:125%;-inkscape-font-specification:Rockwell Bold" id="path5866"/><path d="M473.974 416.248l-1.182 3.81-3.226-1.001-4.632 14.928 3.226 1.001-1.182 3.81-20.18-6.262 2.157-6.954 4.312 1.338-.976 3.144 6.775 2.103 1.62-5.22-4.88-1.514 1.183-3.809 4.879 1.514 1.83-5.9-3.468-1.076 1.181-3.81z" style="text-align:start;line-height:125%;-inkscape-font-specification:Rockwell Bold" id="path5868"/><path d="M444.481 405.591l-2.147 3.36-2.389-1.525-8.417 13.17 2.388 1.526-2.148 3.36-17.532-11.204 4.03-6.307 3.805 2.431-1.883 2.946 6.163 3.94 2.934-4.59-4.976-3.182 2.147-3.36 4.977 3.18 3.336-5.219-6.164-3.94-1.9 2.975-3.804-2.431 4.048-6.335z" style="text-align:start;line-height:125%;-inkscape-font-specification:Rockwell Bold" id="path5870"/><path d="M418.866 386.782l-8.699 19.095 2.025 1.959-2.773 2.866-8.66-8.378 2.773-2.867 2.196 2.125 5.37-11.263-11.09 5.728 2.158 2.089-2.773 2.866-7.501-7.257 2.773-2.867 2.061 1.995 18.615-9.502z" style="text-align:start;line-height:125%;-inkscape-font-specification:Rockwell Bold" id="path5872"/><path d="M391.308 358.886l3.298-2.243 6.529 9.599-3.298 2.243-1.699-2.498-2.724 3.207 3.446 5.066 4.06-1.242-1.775-2.61 3.297-2.244 5.88 8.645-3.298 2.243-1.641-2.414-15.512 4.988 1.766 2.596-3.298 2.243-8.666-12.742 3.298-2.243 1.784 2.624 10.138-12.888zm-.213 13.055l-4.772 5.627 7.073-2.245z" style="text-align:start;line-height:125%;-inkscape-font-specification:Rockwell Bold" id="path5874"/><path d="M394.05 355.77l-3.708 1.47-1.163-2.935-14.53 5.76 1.163 2.934-3.708 1.47-3.646-9.199 10.487-13.521-9.987 3.958 1.132 2.856-3.708 1.47-3.902-9.846 3.707-1.47 1.22 3.077 18.396-7.291 1.939 4.89-12.515 15.914 12.401-4.915-1.094-2.761 3.708-1.47z" style="text-align:start;line-height:125%;-inkscape-font-specification:Rockwell Bold" id="path5876"/><path d="M384.35 329.203l-7.913 1.451-.723-3.94c1.439-.31 2.435-.883 2.989-1.72.553-.839.746-1.714.579-2.626-.13-.713-.489-1.268-1.074-1.667-.585-.399-1.211-.537-1.879-.414-.712.13-1.266.48-1.663 1.047-.396.567-.79 1.542-1.18 2.925-.81 2.921-1.621 4.954-2.435 6.098-.814 1.144-2.061 1.87-3.742 2.18-2.025.37-3.71.024-5.056-1.04-1.346-1.065-2.167-2.404-2.463-4.017-.339-1.848.117-3.41 1.367-4.686l-1.92.353-.72-3.923 7.061-1.296.72 3.923c-1.068.323-1.842.853-2.322 1.59-.48.739-.644 1.525-.49 2.36.118.645.39 1.159.817 1.54.427.383.918.523 1.475.42.478-.087.898-.354 1.26-.8.36-.446.772-1.632 1.236-3.557.453-1.855.905-3.298 1.354-4.33a6.817 6.817 0 0 1 2.004-2.619c.887-.715 1.976-1.19 3.266-1.427 2.293-.42 4.14-.07 5.543 1.053 1.402 1.123 2.27 2.598 2.606 4.423.373 2.036-.09 3.743-1.39 5.12l1.97-.361z" style="text-align:start;line-height:125%;-inkscape-font-specification:Rockwell Bold" id="path5878"/><path d="M381.193 302.833l-19.76 7.059.005 2.817-3.988.007-.02-12.05 3.988-.007.005 3.055 11.823-3.99-11.836-3.97.005 3.004-3.988.007-.017-10.437 3.988-.007.005 2.868 19.783 6.74z" style="text-align:start;line-height:125%;-inkscape-font-specification:Rockwell Bold" id="path5880"/><path d="M381.523 287.555l-3.935-.646.58-3.534-15.424-2.534-.58 3.534-3.936-.647 2.163-13.163 3.935.647-.586 3.567 15.424 2.534.586-3.568 3.936.647z" style="text-align:start;line-height:125%;-inkscape-font-specification:Rockwell Bold" id="path5882"/><path d="M383.83 272.61l-3.783-1.261 1.068-3.205-14.83-4.942-1.067 3.204-3.784-1.26 4.1-12.302 3.784 1.261-1.09 3.269 14.83 4.942 2.205-6.617-6.924-2.308 1.455-4.363 10.707 3.568z" style="text-align:start;line-height:125%;-inkscape-font-specification:Rockwell Bold" id="path5884"/><path d="M391.135 251.306l-3.476-1.957 1.657-2.943-13.62-7.667-1.658 2.943-3.475-1.957 6.36-11.299 3.476 1.957-1.69 3.002 13.62 7.668 3.422-6.079-6.359-3.58 2.256-4.007 9.835 5.536z" style="text-align:start;line-height:125%;-inkscape-font-specification:Rockwell Bold" id="path5886"/><path d="M402.445 231.613l-3.036-2.586 1.838-2.158-11.9-10.135-1.837 2.157-3.036-2.586 13.492-15.84 5.697 4.854-2.927 3.436-2.661-2.267-4.744 5.569 4.148 3.532 3.83-4.496 3.036 2.586-3.83 4.496 4.716 4.017 4.743-5.568-2.688-2.29 2.928-3.436 5.723 4.875z" style="text-align:start;line-height:125%;-inkscape-font-specification:Rockwell Bold" id="path5888"/></g><path class="fil4" id="line362" fill="none" d="M444.265 267.127l-10.466 40.098"/><path class="fil4" id="line364" fill="none" d="M449.236 265.374l10.925 41.851"/><path class="fil4" id="line366" fill="none" d="M447.105 267.66v40.452"/><path style="marker:none" id="path430" d="M553.332 307.34h-13.397v.913c0 4.633 1.49 8.837 3.9 11.886 2.426 3.072 5.786 4.974 9.497 4.974 3.712 0 7.07-1.902 9.498-4.974 2.41-3.049 3.9-7.253 3.9-11.886v-.914H553.332z" color="#000" fill="none" stroke="#ffe700" stroke-width="1.468" overflow="visible"/><path id="path434" d="M502.928 231.662h-6.395c-1.96 4.36-2.647 7.318-2.727 13.414-.08 6.098 1.817 7.898 2.727 11.85h6.395c1.887-3.617 3.203-7.402 3.253-11.85.05-4.448-.526-9.388-3.253-13.414z" fill="none"/><path id="1" d="M502.345 238.703h-5.12c-1.568 4.731-2.628 8.043-2.692 14.658-.064 6.616.309 6.625.4 11.118l4.706 4.094 5.253-4.094c-.4-3.925.017-6.394.057-11.22.04-4.827-.421-10.188-2.604-14.556z" fill="none" stroke="#ffe700" stroke-width="1.468"/><path id="path511" d="M521.307 257.138c-3.77-.065-7.348.815-10.926 1.697-1.75.43-3.505.863-5.284 1.18l-.357.063v3.553l.328.075c1.73.395 3.458.888 5.185 1.38 3.489.995 6.98 1.991 10.732 2.248 5.203.214 13.517-.832 20.674-1.918 6.929-1.051 5.676-1.375 5.601-2.909-.103-2.107 2.385-1.523-5.507-2.78-6.577-1.047-16.068-2.719-20.446-2.589z" fill="none" stroke="#ffe700" stroke-width="1.468"/><path id="path515" d="M493.818 232.823a5.905 5.905 0 0 1 5.903-5.905 5.906 5.906 0 0 1 5.905 5.905 5.906 5.906 0 0 1-5.905 5.904 5.905 5.905 0 0 1-5.903-5.904z" fill="none" stroke="#ffe700" stroke-width="1.468"/><path id="path1663" transform="matrix(1.23292 0 0 1.04492 -116.917 -17.284)" fill="#000f5d" fill-rule="nonzero" stroke="#ffe700" d="M490.024 329.484l.03-.26.033-.341.035-.413.035-.479.036-.541.039-.596.039-.645.039-.689.04-.726.041-.759.04-.786.04-.807.04-.822.04-.832.039-.837.039-.833.037-.828.036-.815.036-.798.033-.772.032-.744.03-.709.028-.667.026-.621.023-.568.021-.511.018-.449.016-.379.011-.304.01-.225.005-.139.002-.047.43.016-.003.047-.004.14-.01.224-.012.305-.015.379-.018.449-.021.512-.023.569-.026.621-.028.667-.03.709-.032.744-.033.772-.036.798-.036.815-.037.827-.039.837-.039.836-.04.833-.04.822-.04.806-.041.788-.04.76-.04.726-.039.691-.039.647-.039.597-.036.543-.037.483-.035.418-.034.346-.031.274z"/><path id="path1664" transform="matrix(1.23292 0 0 1.04492 -116.917 -17.284)" fill="#000f5d" fill-rule="nonzero" stroke="#ffe700" d="M493.042 310.723l-.162 18.793-.43-.005.162-18.792z"/><path id="path1651" transform="matrix(1.22666 .12406 -.10515 1.03961 -77.626 -76.078)" fill="#000f5d" fill-rule="nonzero" stroke="#ffe700" d="M487.888 358.147l.036-.504.041-.611.042-.707.043-.798.044-.878.045-.951.046-1.015.046-1.071.048-1.118.047-1.157.047-1.189.046-1.212.046-1.226.046-1.232.045-1.229.043-1.219.042-1.203.042-1.172.039-1.139.036-1.095.036-1.043.032-.984.029-.914.028-.838.024-.754.021-.66.018-.559.014-.449.011-.33.006-.206.002-.07.43.015-.002.069-.006.206-.011.331-.014.448-.018.559-.021.66-.024.754-.028.838-.029.915-.032.983-.036 1.043-.036 1.095-.039 1.139-.042 1.175-.042 1.2-.043 1.221-.045 1.23-.046 1.232-.046 1.226-.046 1.211-.047 1.19-.047 1.158-.048 1.119-.046 1.071-.046 1.017-.045.951-.044.881-.043.797-.043.713-.04.613-.039.509-.036.398-.428-.045z"/><path id="path1665" transform="matrix(1.23292 0 0 1.04492 -116.917 -17.284)" fill="#000f5d" fill-rule="nonzero" stroke="#ffe700" d="M494.759 329.21l-.01-.002.023-.169.023-.271.021-.358.018-.437.016-.509.016-.572.012-.632.01-.683.008-.728.008-.766.005-.796.004-.823.004-.841.001-.852V319.056l-.001-.849-.003-.834-.002-.814-.004-.786-.003-.753-.004-.712-.003-.664-.004-.611-.003-.551-.004-.484-.004-.411-.002-.33-.002-.244-.001-.153v-.05l.429-.005v.053l.002.15.002.245.002.331.004.412.003.484.004.55.004.612.003.664.004.712.003.752.004.787.002.814.002.836.002.849V320.771l-.002.854-.003.841-.004.823-.006.799-.007.766-.008.728-.011.685-.011.634-.016.575-.016.514-.018.442-.021.367-.025.287-.028.207-.07.179z"/><path id="path1652" transform="matrix(1.2315 .05934 -.0503 1.0437 -98.88 -46.001)" fill="#000f5d" fill-rule="nonzero" stroke="#ffe700" d="M491.103 358.559l-.43-.002.189-27.683.43.003z"/><path id="path1666" transform="matrix(1.23292 0 0 1.04492 -116.917 -17.284)" fill="#000f5d" fill-rule="nonzero" stroke="#ffe700" d="M496.819 329.255l.001-.165.003-.245.005-.321.005-.39.006-.455.009-.513.009-.568.011-.617.01-.658.011-.697.012-.729.012-.754.013-.777.011-.793.012-.802.012-.808.011-.805.01-.801.01-.79.009-.773.007-.751.007-.723.005-.688.004-.652.002-.606v-.559l-.001-.502-.005-.441-.006-.376-.008-.302-.011-.225-.012-.131.426-.061.016.164.011.236.008.309.006.381.005.444.001.504v.559l-.002.608-.004.652-.005.691-.007.723-.007.751-.009.773-.01.79-.01.8-.011.808-.012.808-.012.802-.011.793-.013.777-.012.755-.012.728-.011.697-.01.658-.011.617-.009.568-.009.513-.006.455-.006.39-.004.319-.003.244-.001.161z"/><path id="path1653" transform="matrix(1.23292 0 0 1.04492 -116.917 -17.284)" fill="#000f5d" fill-rule="nonzero" stroke="#ffe700" d="M493.34 358.194l.004-.056.03-.261.026-.405.025-.531.022-.645.019-.751.017-.846.014-.93.012-1.008.01-1.072.009-1.127.005-1.175.005-1.213.004-1.238.001-1.255.001-1.265-.001-1.263-.001-1.251-.003-1.229-.002-1.199-.004-1.158-.004-1.107-.004-1.049-.005-.979-.004-.9-.004-.812-.005-.713-.003-.605-.002-.487-.003-.36-.002-.223v-.077l.43-.002v.077l.002.223.002.36.003.487.003.604.005.714.004.811.004.9.005.979.004 1.049.004 1.108.004 1.16.002 1.199.003 1.229.001 1.251.001 1.263-.001 1.265-.001 1.255-.004 1.24-.005 1.213-.006 1.175-.008 1.13-.01 1.072-.012 1.008-.014.933-.017.848-.019.753-.022.65-.025.537-.028.417-.032.292-.062.212z"/><path id="path1654" transform="matrix(1.23292 0 0 1.04492 -116.917 -17.284)" fill="#000f5d" fill-rule="nonzero" stroke="#ffe700" d="M495.756 358.178l.001-.242.004-.362.005-.471.006-.574.008-.671.009-.757.011-.836.012-.907.013-.971.013-1.026.014-1.073.013-1.113.014-1.144.014-1.167.014-1.182.013-1.19.013-1.189.013-1.18.011-1.163.011-1.139.009-1.104.007-1.066.006-1.015.005-.959.002-.894v-.823l-.002-.74-.005-.651-.007-.555-.009-.449-.013-.333-.016-.204.428-.05.018.231.013.344.009.454.007.557.005.654.002.742v.823l-.002.896-.005.959-.006 1.016-.007 1.065-.009 1.107-.011 1.138-.011 1.164-.013 1.18-.013 1.189-.013 1.189-.014 1.183-.014 1.167-.014 1.144-.013 1.113-.014 1.072-.013 1.027-.013.97-.012.908-.011.836-.009.757-.008.671-.006.574-.005.471-.004.359-.001.24z"/><path id="path1655" transform="matrix(1.23292 0 0 1.04492 -116.917 -17.284)" fill="#000f5d" fill-rule="nonzero" stroke="#ffe700" d="M498.821 331.51l.188 26.413-.43.002-.188-26.413z"/><path id="path1656" transform="matrix(1.23292 0 0 1.04492 -116.917 -17.284)" fill="#000f5d" fill-rule="nonzero" stroke="#ffe700" d="M501.833 331.131l-.188 26.54-.43-.002.188-26.541z"/><path id="path1657" transform="matrix(1.23292 0 0 1.04492 -116.917 -17.284)" fill="#000f5d" fill-rule="nonzero" stroke="#ffe700" d="M504.28 331.004l-.189 26.667-.43-.002.189-26.667z"/><path id="path1658" transform="matrix(1.23292 0 0 1.04492 -116.917 -17.284)" fill="#000f5d" fill-rule="nonzero" stroke="#ffe700" d="M506.915 332.4l-.187 25.779-.43-.002.187-25.779z"/><path id="path1659" transform="matrix(1.23292 0 0 1.04492 -116.917 -17.284)" fill="#000f5d" fill-rule="nonzero" stroke="#ffe700" d="M508.986 332.137l.941 26.413-.43.016-.941-26.413z"/><path id="path1667" transform="matrix(1.23292 0 0 1.04492 -116.917 -17.284)" fill="#000f5d" fill-rule="nonzero" stroke="#ffe700" d="M499.516 311.151l.162 17.929-.43.005-.162-17.929z"/><path id="path1660" transform="matrix(1.23093 -.07005 .05937 1.04323 -136.4 19.148)" fill="#000f5d" fill-rule="nonzero" stroke="#ffe700" d="M513.127 358.539l-.428.038-2.259-26.413.427-.038z"/><path id="path1668" transform="matrix(1.23292 0 0 1.04492 -116.917 -17.284)" fill="#000f5d" fill-rule="nonzero" stroke="#ffe700" d="M502.106 310.897l-.162 18.015-.43-.004.162-18.016z"/><path id="path1669" transform="matrix(1.23292 0 0 1.04492 -116.917 -17.284)" fill="#000f5d" fill-rule="nonzero" stroke="#ffe700" d="M504.209 310.81l-.161 18.102-.43-.004.162-18.103z"/><path id="path1670" transform="matrix(1.23292 0 0 1.04492 -116.917 -17.284)" fill="#000f5d" fill-rule="nonzero" stroke="#ffe700" d="M506.476 311.758l-.162 17.499-.43-.004.162-17.5z"/><path id="path1671" transform="matrix(1.23292 0 0 1.04492 -116.917 -17.284)" fill="#000f5d" fill-rule="nonzero" stroke="#ffe700" d="M508.257 311.574l.809 17.93-.43.019-.809-17.93z"/><path id="path10101" d="M475.403 287.377l.242.788-.25.462-.21.468-.17.47-.137.473-.106.473-.074.473-.049.476-.024.476-.002.478.02.478.04.484.058.478.076.479.09.47.101.463.115.454.122.442.13.425.135.41.14.394.137.372.137.349.135.322.13.3.12.266.111.238.1.209.086.172.07.134.052.098.034.061.01.017-.25.772-.013-.024-.037-.066-.056-.108-.075-.145-.09-.183-.105-.214-.116-.248-.13-.283-.133-.314-.141-.339-.144-.364-.147-.394-.146-.415-.144-.436-.14-.457-.133-.479-.124-.497-.113-.51-.1-.528-.085-.542-.067-.558-.047-.563-.024-.578.002-.584.03-.587.06-.587.093-.584.128-.573.162-.563.2-.55.24-.536.276-.516zm48.593-.536l-.21.835-.266-.225-.526-.259-.746-.254-.944-.245-1.129-.233-1.294-.222-1.447-.209-1.585-.193-1.705-.177-1.813-.161-1.904-.143-1.982-.124-2.045-.103-2.091-.084-2.124-.061-2.141-.037-2.143-.015-2.132.01-2.105.037-2.062.061-2.006.093-1.933.119-1.846.15-1.745.18-1.628.212-1.497.246-1.348.277-1.187.312-1.007.349-.813.378-.597.41-.35.401-.242-.787.45-.524.644-.44.838-.395 1.025-.354 1.198-.312 1.358-.282 1.503-.246 1.633-.212 1.75-.18 1.848-.15 1.937-.12 2.009-.092 2.063-.06 2.107-.037 2.135-.011 2.145.015 2.143.037 2.127.06 2.093.086 2.045.103 1.984.124 1.907.142 1.815.162 1.71.177 1.587.193 1.451.209 1.301.222 1.136.238.955.246.764.259.562.28.37.325zm.67 11.205l.107-.936-.244.28.001-.01.01-.061.017-.098.02-.13.026-.16.027-.196.03-.23.032-.251.033-.278.032-.304.032-.322.029-.339.026-.356.023-.373.02-.383.012-.389.008-.401.001-.405-.007-.404-.016-.407-.024-.407-.034-.4-.044-.396-.055-.388-.068-.378-.08-.367-.093-.35-.108-.34-.123-.325-.14-.31-.156-.287-.175-.27.21-.835.205.317.186.341.166.367.147.389.127.404.113.423.095.436.079.441.064.452.051.455.04.457.027.46.018.455.007.451v.447l-.009.433-.014.426-.02.415-.026.399-.028.383-.032.365-.034.343-.034.32-.035.299-.034.272-.033.24-.029.212-.027.182-.023.14-.017.109-.01.06-.005.032-.243.28zm.244-.28l-.07.391-.174-.111.244-.28zm-5.422-1.573l.022-.967.269.037.263.045.262.05.256.058.254.058.249.067.242.066.239.071.232.074.226.077.22.08.214.079.206.08.198.079.191.082.185.08.174.078.167.077.156.074.148.075.138.071.127.064.118.063.106.056.098.055.083.048.07.04.062.034.049.031.03.017.02.01.01.01-.106.935-.004-.002-.02-.01-.037-.024-.044-.026-.057-.034-.071-.04-.083-.048-.093-.05-.104-.055-.116-.064-.126-.064-.136-.071-.144-.069-.156-.074-.164-.077-.172-.08-.18-.079-.19-.076-.195-.08-.204-.08-.212-.078-.217-.08-.222-.071-.23-.074-.234-.072-.24-.066-.245-.066-.25-.058-.253-.053-.257-.05-.259-.045-.264-.037zm-8.04 7.474l-.031-.967-.096.077.016-.026.046-.067.072-.106.1-.142.124-.18.148-.21.17-.24.193-.264.21-.283.23-.309.245-.322.261-.333.276-.35.288-.353.3-.36.308-.36.317-.364.325-.357.332-.348.334-.341.338-.325.339-.312.34-.296.342-.27.336-.248.335-.22.33-.19.322-.153.317-.121.31-.08.297-.031.289.01-.023.968-.26-.011-.272.031-.287.074-.296.111-.307.148-.316.18-.321.214-.328.238-.329.264-.332.286-.331.306-.332.32-.33.336-.325.343-.32.352-.312.354-.305.36-.297.353-.284.35-.27.343-.26.333-.243.317-.225.304-.21.283-.188.259-.169.235-.147.209-.122.174-.097.143-.073.106-.043.06-.013.022-.096.076zm.095-.077l-.045.067-.05.01.095-.077zm-19.16 2.667l.13-.92.096.037.217.034.312.013.395-.004.472-.024.54-.042.602-.058.658-.071.706-.085.75-.098.785-.108.814-.116.836-.122.855-.132.864-.134.868-.138.864-.142.856-.14.84-.143.819-.137.789-.137.755-.132.712-.124.666-.12.611-.108.55-.097.485-.09.41-.075.33-.06.244-.045.15-.027.052-.01.032.967-.052.01-.15.027-.244.045-.33.06-.41.075-.485.09-.55.098-.611.108-.666.119-.714.124-.756.132-.789.137-.818.138-.84.142-.856.14-.866.143-.869.137-.864.135-.854.132-.84.122-.813.116-.787.108-.75.098-.709.085-.66.071-.604.059-.545.042-.476.023-.405.004-.325-.012-.246-.04-.182-.08zm-6.816-10.064v-.967l.364.026.356.082.343.132.335.175.325.222.315.261.304.294.295.33.284.357.275.38.265.405.256.422.246.437.237.449.229.457.218.46.21.462.202.46.194.455.183.449.176.433.169.42.158.402.15.376.142.354.134.32.125.288.116.253.104.207.094.163.08.117.063.063-.132.92-.123-.127-.12-.17-.118-.205-.122-.244-.127-.274-.132-.304-.139-.336-.146-.36-.15-.38-.159-.402-.166-.415-.173-.428-.182-.438-.189-.444-.197-.45-.203-.452-.212-.444-.22-.44-.227-.429-.236-.42-.244-.402-.252-.383-.259-.36-.268-.335-.277-.31-.284-.277-.294-.24-.3-.207-.31-.164-.32-.121-.33-.077-.336-.026zm-9.045 4.509l.249-.772-.198-.066.014-.013.047-.042.071-.06.099-.085.124-.106.148-.124.172-.14.192-.156.213-.17.234-.18.252-.193.268-.198.284-.206.3-.214.312-.214.324-.217.338-.217.345-.214.356-.214.363-.206.37-.2.375-.191.378-.183.383-.169.385-.156.384-.14.385-.127.383-.103.38-.087.377-.06.371-.04.367-.013v.967l-.353.013-.36.04-.367.06-.372.083-.374.103-.376.121-.38.14-.378.15-.376.17-.373.177-.37.19-.364.196-.359.206-.35.21-.344.213-.333.217-.322.211-.308.215-.297.208-.282.206-.266.199-.249.188-.23.18-.21.169-.193.15-.167.14-.148.124-.122.1-.096.086-.071.06-.042.037-.015.013-.198-.066zm.198.066l-.107.095-.091-.16.198.065z" fill="#000f5d" fill-rule="nonzero" stroke="#ffe700" stroke-width="1.29"/><path style="marker:none" id="path3513" d="M499.252 182.062c-65.294 0-118.21 52.916-118.21 118.21 0 65.293 52.916 118.24 118.21 118.24s118.24-52.947 118.24-118.24c0-65.294-52.946-118.21-118.24-118.21z" color="#000" fill="none" stroke="#ffe700" stroke-width="5.9259" overflow="visible"/><path style="marker:none" id="path430-1" d="M446.342 307.34h-13.397v.913c0 4.633 1.49 8.837 3.9 11.886 2.427 3.072 5.786 4.974 9.497 4.974 3.713 0 7.07-1.902 9.499-4.974 2.409-3.049 3.899-7.253 3.899-11.886v-.914H446.342z" color="#000" fill="none" stroke="#ffe700" stroke-width="1.468" overflow="visible"/><path d="M446.229 268.454v38.644" id="path4351" fill="none" stroke="#ffe700" stroke-width="1.468"/><path d="M553.305 268.832v38.645" id="path4351-1" fill="none" stroke="#ffe700" stroke-width="1.468"/><path d="M539.92 307.095l12.88-38.386" id="path4378" fill="none" stroke="#ffe700" stroke-width="1.468"/><path d="M432.97 307.095l12.88-38.386" id="path4378-2" fill="none" stroke="#ffe700" stroke-width="1.468"/><path d="M459.74 307.095l-12.88-38.386" id="path4378-7" fill="none" stroke="#ffe700" stroke-width="1.468"/><path d="M566.815 307.095l-12.879-38.386" id="path4378-6" fill="none" stroke="#ffe700" stroke-width="1.468"/><path id="path515-1" d="M547.174 262.408a5.905 5.905 0 0 1 5.903-5.904 5.906 5.906 0 0 1 5.905 5.904 5.906 5.906 0 0 1-5.905 5.905 5.905 5.905 0 0 1-5.903-5.905z" fill="none" stroke="#ffe700" stroke-width="1.468"/><path id="path511-4" d="M478.297 257.261c3.771-.065 7.349.815 10.927 1.697 1.75.43 3.505.863 5.284 1.18l.357.063v3.553l-.328.075c-1.73.395-3.458.888-5.186 1.38-3.488.995-6.98 1.991-10.731 2.248-5.203.214-13.517-.832-20.674-1.918-6.929-1.051-5.676-1.375-5.601-2.909.102-2.107-2.385-1.523 5.507-2.78 6.577-1.047 16.067-2.719 20.445-2.589z" fill="none" stroke="#ffe700" stroke-width="1.468"/><path id="path515-1-3" d="M440.29 262.534a5.905 5.905 0 0 1 5.904-5.904 5.906 5.906 0 0 1 5.904 5.905 5.906 5.906 0 0 1-5.904 5.904 5.905 5.905 0 0 1-5.904-5.905z" fill="none" stroke="#ffe700" stroke-width="1.468"/><path id="path519" d="M499.268 289.34l-.81-.4c-.955-.693-6.21-11.008-6.21-12.265 5.505 0 4.399 1.642 10.321-1.327.217-.058.821-.025.961.016 2.259 5.523.227 7.971-1.81 12.983-.836.147-.922 1.752-2.452.992z" fill="#000f5d" stroke="#ffe700"/><path id="path521" d="M498.535 296.216l-.34-1.768c-1.402-7.28-4.123-15.146-5.654-21.562-.39-.03-.671-.49-.815-1.335-.344-.13-.127.18-.5-.11-2.832.993-3.22 6.337-2.327 11.564 1.1.077 3.883 6.647 4.645 9.842.824 3.454 5.17 4.297 4.991 3.37z" fill="#000f5d" stroke="#ffe700" stroke-width="1.29"/><path id="path523" d="M499.653 294.216l.34-1.768c1.402-7.28 4.123-15.146 5.653-21.562.39-.03.672-.49.816-1.335.344-.13.126.18.499-.11 2.833.993 3.22 6.337 2.328 11.564-1.1.077-3.884 6.647-4.646 9.842-.823 3.454-5.17 4.297-4.99 3.37z" fill="#000f5d" stroke="#ffe700" stroke-width="1.29"/><path id="path1663-1" transform="matrix(1.23292 0 0 1.04492 -117.078 -17.918)" fill="#000f5d" fill-rule="nonzero" stroke="#ffe700" d="M490.232 326.854l.039-.645.039-.689.04-.726.041-.759.04-.786.04-.807.04-.822.04-.832.039-.837.039-.833.037-.828.036-.815.036-.798.033-.772.032-.744.03-.709.028-.667.026-.621.023-.568.021-.511.018-.449.016-.379.011-.304.01-.225.005-.139.002-.047.43.016-.003.047-.004.14-.01.224-.012.305-.015.379-.018.449-.021.512-.023.569-.026.621-.028.667-.03.709-.032.744-.033.772-.036.798-.036.815-.037.827-.039.837-.039.836-.04.833-.04.822-.04.806-.041.788-.04.76-.04.726-.039.691-.039.647-.039.597-.036.543-.037.483-.035.418-.034.346-.031.274-.426-.059.03-.26.033-.341.035-.413.035-.479.036-.541z"/><path id="path1664-8" transform="matrix(1.23292 0 0 1.04492 -117.078 -17.918)" fill="#000f5d" fill-rule="nonzero" stroke="#ffe700" d="M492.45 329.511l.162-18.792.43.004-.162 18.793z"/><path id="path1665-7" transform="matrix(1.23292 0 0 1.04492 -117.078 -17.918)" fill="#000f5d" fill-rule="nonzero" stroke="#ffe700" d="M494.85 327.464l.016-.572.012-.632.01-.683.008-.728.008-.766.005-.796.004-.823.004-.841.001-.852V319.056l-.001-.849-.003-.834-.002-.814-.004-.786-.003-.753-.004-.712-.003-.664-.004-.611-.003-.551-.004-.484-.004-.411-.002-.33-.002-.244-.001-.153v-.05l.429-.005v.053l.002.15.002.245.002.331.004.412.003.484.004.55.004.612.003.664.004.712.003.752.004.787.002.814.002.836.002.849V320.771l-.002.854-.003.841-.004.823-.006.799-.007.766-.008.728-.011.685-.011.634-.016.575-.016.514-.018.442-.021.367-.025.287-.028.207-.07.179-.343-.262-.01-.002.023-.169.023-.271.021-.358.018-.437z"/><path id="path1666-1" transform="matrix(1.23292 0 0 1.04492 -117.078 -17.918)" fill="#000f5d" fill-rule="nonzero" stroke="#ffe700" d="M496.848 327.166l.009-.568.011-.617.01-.658.011-.697.012-.729.012-.754.013-.777.011-.793.012-.802.012-.808.011-.805.01-.801.01-.79.009-.773.007-.751.007-.723.005-.688.004-.652.002-.606v-.559l-.001-.502-.005-.441-.006-.376-.008-.302-.011-.225-.012-.131.426-.061.016.164.011.236.008.309.006.381.005.444.001.504v.559l-.002.608-.004.652-.005.691-.007.723-.007.751-.009.773-.01.79-.01.8-.011.808-.012.808-.012.802-.011.793-.013.777-.012.755-.012.728-.011.697-.01.658-.011.617-.009.568-.009.513-.006.455-.006.39-.004.319-.003.244-.001.161h-.43l.001-.165.003-.245.005-.321.005-.39.006-.455z"/><path id="path1653-8" transform="matrix(1.23292 0 0 1.04492 -117.078 -17.918)" fill="#000f5d" fill-rule="nonzero" stroke="#ffe700" d="M493.466 355.545l.017-.846.014-.93.012-1.008.01-1.072.009-1.127.005-1.175.005-1.213.004-1.238.001-1.255.001-1.265-.001-1.263-.001-1.251-.003-1.229-.002-1.199-.004-1.158-.004-1.107-.004-1.049-.005-.979-.004-.9-.004-.812-.005-.713-.003-.605-.002-.487-.003-.36-.002-.223v-.077l.43-.002v.077l.002.223.002.36.003.487.003.604.005.714.004.811.004.9.005.979.004 1.049.004 1.108.004 1.16.002 1.199.003 1.229.001 1.251.001 1.263-.001 1.265-.001 1.255-.004 1.24-.005 1.213-.006 1.175-.008 1.13-.01 1.072-.012 1.008-.014.933-.017.848-.019.753-.022.65-.025.537-.028.417-.032.292-.062.212-.368-.222.004-.056.03-.261.026-.405.025-.531.022-.645z"/><path id="path1654-9" transform="matrix(1.23292 0 0 1.04492 -117.078 -17.918)" fill="#000f5d" fill-rule="nonzero" stroke="#ffe700" d="M495.789 355.101l.011-.836.012-.907.013-.971.013-1.026.014-1.073.013-1.113.014-1.144.014-1.167.014-1.182.013-1.19.013-1.189.013-1.18.011-1.163.011-1.139.009-1.104.007-1.066.006-1.015.005-.959.002-.894v-.823l-.002-.74-.005-.651-.007-.555-.009-.449-.013-.333-.016-.204.428-.05.018.231.013.344.009.454.007.557.005.654.002.742v.823l-.002.896-.005.959-.006 1.016-.007 1.065-.009 1.107-.011 1.138-.011 1.164-.013 1.18-.013 1.189-.013 1.189-.014 1.183-.014 1.167-.014 1.144-.013 1.113-.014 1.072-.013 1.027-.013.97-.012.908-.011.836-.009.757-.008.671-.006.574-.005.471-.004.359-.001.24h-.43l.001-.242.004-.362.005-.471.006-.574.008-.671z"/><path id="path1655-2" transform="matrix(1.23292 0 0 1.04492 -117.078 -17.918)" fill="#000f5d" fill-rule="nonzero" stroke="#ffe700" d="M498.579 357.925l-.188-26.413.43-.002.188 26.413z"/><path id="path1656-7" transform="matrix(1.23292 0 0 1.04492 -117.078 -17.918)" fill="#000f5d" fill-rule="nonzero" stroke="#ffe700" d="M501.215 357.669l.188-26.541.43.003-.188 26.54z"/><path id="path1657-9" transform="matrix(1.23292 0 0 1.04492 -117.078 -17.918)" fill="#000f5d" fill-rule="nonzero" stroke="#ffe700" d="M503.661 357.669l.189-26.667.43.002-.189 26.667z"/><path id="path1658-5" transform="matrix(1.23292 0 0 1.04492 -117.078 -17.918)" fill="#000f5d" fill-rule="nonzero" stroke="#ffe700" d="M506.298 358.177l.187-25.779.43.002-.187 25.779z"/><path id="path1659-4" transform="matrix(1.23292 0 0 1.04492 -117.078 -17.918)" fill="#000f5d" fill-rule="nonzero" stroke="#ffe700" d="M509.497 358.566l-.941-26.413.43-.016.941 26.413z"/><path id="path1667-3" transform="matrix(1.23292 0 0 1.04492 -117.078 -17.918)" fill="#000f5d" fill-rule="nonzero" stroke="#ffe700" d="M499.248 329.085l-.162-17.929.43-.005.162 17.929z"/><path id="path1668-2" transform="matrix(1.23292 0 0 1.04492 -117.078 -17.918)" fill="#000f5d" fill-rule="nonzero" stroke="#ffe700" d="M501.514 328.908l.162-18.016.43.005-.162 18.015z"/><path id="path1669-3" transform="matrix(1.23292 0 0 1.04492 -117.078 -17.918)" fill="#000f5d" fill-rule="nonzero" stroke="#ffe700" d="M503.618 328.908l.162-18.103.429.005-.161 18.102z"/><path id="path1670-4" transform="matrix(1.23292 0 0 1.04492 -117.078 -17.918)" fill="#000f5d" fill-rule="nonzero" stroke="#ffe700" d="M505.884 329.253l.162-17.5.43.005-.162 17.499z"/><path id="path1671-1" transform="matrix(1.23292 0 0 1.04492 -117.078 -17.918)" fill="#000f5d" fill-rule="nonzero" stroke="#ffe700" d="M508.636 329.523l-.809-17.93.43-.019.809 17.93z"/><path id="path1008" d="M497.707 286.398s-20.668-.991-23.8-2.77c-3.132-1.78-4.959-1.78-4.959-1.78s2.61-8.9 4.96-9.791c2.348-.887 8.612 4.45 8.612 4.45l16.171 9.488s19.328-14.382 25.07-13.491c5.743.89 6.004 8.009 6.004 8.009s-3.133 2.225-4.438 3.56c-1.305 1.334-27.62 2.325-27.62 2.325z" fill="#000f5d" stroke="#ffe700" stroke-width="1.477"/><path id="path10081" d="M469.17 288.154l.117-.933.392.13.512.13.62.128.718.122.809.12.891.118.96.112 1.027.11 1.081.104 1.13.1 1.168.096 1.2.093 1.22.087 1.237.086 1.24.078 1.24.076 1.227.07 1.207.068 1.182.06 1.145.06 1.103.052 1.05.05.986.044.921.04.843.033.757.031.663.026.562.021.451.017.331.01.207.01.07.002-.01.954-.072-.002-.204-.009-.333-.01-.452-.017-.562-.02-.663-.025-.757-.032-.843-.033-.92-.04-.99-.043-1.05-.05-1.102-.052-1.145-.06-1.183-.06-1.21-.068-1.227-.07-1.24-.077-1.243-.078-1.236-.086-1.224-.086-1.2-.094-1.17-.096-1.13-.1-1.085-.104-1.029-.11-.966-.111-.894-.118-.815-.12-.728-.127-.631-.128-.53-.135-.424-.141zm-6.033-2.23l.43.574-.215-.764h.061l.046.002.058.002.07.004.08.004.096.006.103.01.117.011.13.015.14.017.15.02.162.024.176.031.185.034.194.036.207.042.217.044.229.052.237.057.248.066.26.068.268.076.278.08.29.09.297.096.309.102.318.11.327.12.336.127.345.133-.118.934-.342-.133-.33-.128-.324-.115-.313-.11-.305-.101-.294-.091-.285-.09-.274-.08-.266-.076-.254-.068-.245-.06-.234-.057-.223-.053-.214-.044-.204-.041-.192-.037-.181-.033-.17-.026-.16-.024-.147-.018-.137-.017-.124-.015-.114-.01-.103-.011-.09-.01-.078-.003-.067-.004-.054-.002-.043-.002H463.35l-.215-.764zm.215.764h-.536l.32-.764.216.764zm5.837-9.062l.08.944-.241.084-.248.117-.246.146-.25.18-.25.208-.252.235-.25.258-.248.277-.247.3-.243.315-.24.329-.237.339-.23.35-.224.351-.217.358-.211.36-.204.354-.195.352-.184.345-.176.333-.167.326-.152.305-.143.293-.13.27-.116.248-.104.225-.088.196-.074.167-.06.132-.04.094-.027.06-.007.02-.431-.575.01-.019.027-.065.046-.104.06-.138.077-.172.092-.2.106-.23.12-.253.132-.282.146-.297.158-.316.17-.331.178-.344.19-.355.201-.362.21-.365.217-.37.226-.368.233-.368.239-.36.245-.355.252-.344.256-.331.26-.316.266-.297.269-.279.271-.25.275-.23.279-.2.279-.168.28-.133.282-.094zm10.306 3.693l-.12.934-.026-.013-.019-.013-.063-.036-.1-.06-.14-.076-.172-.1-.205-.117-.235-.13-.261-.146-.29-.153-.312-.168-.334-.174-.352-.183-.37-.183-.385-.19-.397-.194-.405-.187-.415-.188-.422-.186-.424-.177-.425-.172-.425-.16-.42-.15-.415-.138-.409-.123-.397-.107-.383-.089-.372-.068-.352-.049-.332-.026-.311-.002-.283.026-.256.05-.08-.945.294-.06.313-.026.335.002.353.026.369.05.383.073.396.088.409.113.417.127.424.138.426.152.431.164.431.172.43.182.425.186.417.188.412.193.4.193.388.19.372.188.356.183.336.175.313.167.292.159.264.146.238.13.208.117.173.1.138.08.103.06.064.037.022.013-.025-.013zm-.12.934l-.011-.004-.015-.01.025.013zm19.162 7.862l-19.163-7.862.121-.934 19.163 7.863.015.925-.136.01zm.136-.009l-.068.037-.068-.029.136-.009zm29.649-12.116l-.032.955-.667-.034-.759.04-.843.1-.916.16-.984.22-1.042.268-1.097.315-1.14.358-1.178.399-1.209.432-1.233.46-1.249.485-1.256.506-1.259.518-1.253.532-1.24.54-1.223.543-1.192.54-1.16.529-1.119.522-1.07.506-1.015.484-.95.46-.883.43-.804.399-.72.357-.629.313-.531.269-.427.216-.31.162-.193.099-.066.034-.15-.918.066-.034.192-.1.314-.16.426-.217.532-.269.631-.318.72-.357.808-.4.882-.43.953-.459 1.016-.485 1.073-.506 1.118-.521 1.163-.535 1.196-.54 1.221-.542 1.245-.54 1.255-.532 1.262-.524 1.262-.506 1.251-.485 1.237-.464 1.215-.433 1.183-.4 1.15-.362 1.102-.315 1.054-.274.996-.22.931-.163.86-.102.786-.04.7.035zm7.17 7.576l-.145-.923-.195.506-.001-.002-.001-.031-.005-.06-.012-.097-.016-.112-.026-.141-.03-.162-.042-.186-.052-.198-.062-.219-.074-.232-.088-.24-.105-.256-.117-.26-.137-.269-.153-.274-.174-.276-.195-.28-.216-.281-.239-.274-.262-.271-.29-.263-.316-.256-.345-.245-.372-.235-.404-.214-.435-.203-.468-.178-.503-.161-.538-.136-.572-.11-.611-.083.032-.954.629.083.59.115.555.14.52.168.49.188.455.208.425.23.396.245.366.26.34.277.312.284.286.298.263.3.24.307.215.31.194.314.175.31.155.305.137.303.12.292.103.286.088.274.074.256.06.24.05.221.04.199.031.182.022.154.015.122.012.102.005.068v.029l-.194.506zm.194-.506l.02.399-.215.107.195-.506zm-5.425 3.437l-.2-.886.153-.11.168-.112.176-.115.184-.115.192-.12.2-.122.207-.122.211-.123.216-.125.217-.123.218-.122.222-.123.22-.12.218-.12.218-.12.213-.112.205-.112.205-.107.196-.102.186-.099.18-.094.171-.086.157-.08.146-.077.134-.068.118-.06.104-.052.088-.044.07-.034.048-.026.036-.017.009-.004.144.923-.011.004-.03.013-.051.026-.07.034-.085.044-.103.052-.118.06-.132.068-.146.076-.16.08-.168.087-.177.094-.188.099-.197.102-.199.106-.208.113-.213.112-.215.115-.215.12-.22.12-.219.122-.218.123-.217.122-.213.12-.208.123-.203.122-.195.117-.192.12-.182.115-.17.11-.159.106-.147.105zm-32.834 1.961l.01-.954h-.01l.09-.002.261-.01.421-.01.571-.014.708-.02.837-.026.952-.028 1.057-.034 1.15-.036 1.233-.042 1.302-.044 1.365-.05 1.414-.051 1.45-.058 1.479-.057 1.493-.063 1.497-.068 1.492-.068 1.474-.073 1.443-.076 1.405-.078 1.355-.08 1.29-.085 1.217-.086 1.134-.088 1.036-.09.928-.093.81-.097.68-.096.535-.097.376-.096.178-.076.201.886-.282.128-.408.107-.552.102-.69.096-.816.097-.934.094-1.039.089-1.133.088-1.22.086-1.293.084-1.355.08-1.405.08-1.446.075-1.474.073-1.492.068-1.5.068-1.493.063-1.479.057-1.45.058-1.414.052-1.366.05-1.304.043-1.234.042-1.15.036-1.056.034-.952.028-.837.026-.708.02-.571.014-.42.01-.262.01-.09.001h-.01zm.01 0h-.011.01z" fill="#000f5d" fill-rule="nonzero" stroke="#ffe700" stroke-width="1.463"/><path id="path1010" d="M483.249 299.014s-2.789-7.47-.753-12.678c2.036-5.208 31.01-3.54 32.443-.518 1.432 3.02.556 10.43.556 10.43s-1.591-1.512-3.502-1.889c-1.909-.38-5.41 7.553-5.41 7.553s-12.098 3.398-12.735 2.642c-.636-.756-2.068-10.195-4.615-10.195s-5.984 4.655-5.984 4.655z" fill="#000f5d" stroke="#ffe700" stroke-width="1.062"/><path id="path10101-8" d="M463.976 286.412l.357.766-.369.45-.309.454-.252.458-.202.46-.155.46-.11.46-.072.463-.035.463-.003.465.03.466.059.47.085.465.112.466.132.457.15.45.169.442.18.43.192.413.198.399.206.383.203.362.202.34.199.313.19.29.177.26.165.232.147.203.127.167.103.131.077.096.05.059.014.016-.367.75-.02-.023-.054-.064-.083-.105-.11-.141-.134-.178-.154-.208-.171-.242-.19-.275-.198-.306-.208-.329-.212-.354-.217-.383-.216-.404-.212-.424-.205-.445-.197-.465-.182-.484-.167-.496-.148-.514-.125-.527-.099-.542-.068-.548-.037-.563.003-.568.045-.57.088-.571.137-.568.189-.558.239-.548.295-.535.352-.521.41-.502zm71.64-.522l-.31.812-.393-.218-.774-.252-1.1-.247-1.393-.24-1.664-.225-1.907-.216-2.134-.204-2.336-.187-2.514-.173-2.672-.156-2.808-.14-2.923-.12-3.014-.1-3.083-.083-3.131-.06-3.157-.035-3.16-.014-3.142.01-3.103.036-3.04.06-2.958.09-2.849.115-2.722.146-2.572.175-2.4.206-2.207.24-1.988.269-1.75.303-1.485.34-1.198.367-.88.399-.516.39-.357-.766.663-.509.95-.429 1.235-.383 1.512-.344 1.766-.304 2.001-.275 2.217-.239 2.407-.206 2.578-.174 2.726-.147 2.856-.116 2.961-.09 3.043-.06 3.106-.035 3.147-.01 3.163.014 3.16.036 3.134.06 3.086.082 3.015.1 2.926.12 2.81.14 2.676.156 2.52.173 2.34.188 2.14.203 1.918.216 1.675.231 1.408.24 1.127.251.828.273.546.316zm.988 10.9l.157-.91-.36.272.002-.01.015-.06.025-.095.03-.126.037-.156.04-.19.045-.224.047-.244.048-.27.047-.296.047-.314.044-.329.038-.347.033-.362.03-.373.019-.378.012-.39v-.394l-.01-.393-.023-.396-.035-.396-.05-.388-.065-.386-.082-.378-.1-.367-.117-.358-.138-.339-.159-.332-.182-.316-.205-.3-.23-.28-.26-.263.311-.812.302.308.274.332.245.357.216.378.188.393.166.412.14.424.117.43.095.439.075.442.06.445.038.447.027.442.01.44-.001.434-.012.422-.021.414-.03.403-.037.388-.042.373-.047.355-.05.334-.05.311-.052.29-.05.265-.048.234-.044.206-.04.177-.033.136-.025.106-.015.06-.008.03-.36.272zm.359-.273l-.102.38-.257-.107.359-.273zm-7.994-1.53l.033-.94.396.036.389.043.386.049.377.056.374.057.367.064.357.064.352.07.342.072.334.075.324.077.316.077.303.077.292.077.283.08.272.078.257.077.245.074.23.073.219.072.204.07.187.061.173.062.157.054.144.054.122.047.105.038.09.033.071.031.045.016.03.01.015.01-.156.91-.006-.002-.03-.01-.056-.023-.065-.025-.083-.033-.105-.039-.122-.047-.137-.048-.153-.054-.17-.062-.188-.062-.2-.07-.212-.067-.23-.072-.242-.074-.254-.078-.265-.077-.28-.074-.288-.078-.3-.077-.312-.077-.321-.077-.327-.07-.339-.072-.345-.07-.354-.064-.36-.064-.368-.056-.374-.052-.379-.048-.382-.044-.389-.036zm-11.852 7.27l-.047-.94-.14.074.023-.025.067-.065.107-.102.147-.14.183-.175.217-.203.252-.234.284-.257.309-.275.339-.3.362-.314.386-.324.405-.34.426-.344.44-.35.456-.35.468-.354.479-.347.489-.34.492-.33.5-.317.498-.303.503-.288.502-.263.496-.241.494-.214.486-.184.475-.15.468-.118.455-.077.44-.03.425.01-.033.94-.383-.01-.402.031-.422.072-.437.108-.453.144-.465.175-.474.208-.483.231-.486.257-.489.278-.489.298-.489.311-.485.327-.48.334-.472.342-.46.344-.45.35-.437.344-.419.34-.399.334-.382.324-.359.308-.332.296-.309.275-.277.252-.249.229-.217.203-.18.17-.143.138-.107.103-.064.06-.02.018-.14.074zm.14-.074l-.067.064-.074.01.14-.075zm-28.249 2.594l.194-.895.14.036.32.033.46.012.582-.004.696-.023.796-.04.888-.058.97-.07 1.042-.082 1.104-.095 1.157-.105 1.2-.113 1.234-.119 1.26-.128 1.274-.131 1.28-.134 1.273-.139 1.262-.136 1.239-.139 1.207-.133 1.163-.134 1.113-.128 1.05-.12.982-.116.901-.106.811-.095.715-.088.604-.072.487-.059.359-.044.222-.025.077-.01.047.94-.077.01-.222.026-.359.044-.487.06-.605.071-.714.088-.811.095-.902.105-.981.116-1.053.12-1.114.13-1.163.133-1.207.133-1.238.139-1.262.136-1.277.139-1.28.134-1.274.13-1.26.13-1.237.117-1.2.113-1.16.106-1.105.095-1.045.082-.973.07-.891.056-.803.04-.703.024-.596.005-.479-.012-.364-.038-.267-.078zm-10.048-9.79v-.94l.537.025.524.08.506.128.494.17.48.216.463.254.45.286.433.321.42.347.405.37.39.394.378.411.364.424.348.437.338.445.322.447.31.45.297.447.286.442.27.438.259.421.249.409.233.39.222.366.209.344.197.311.185.28.17.247.154.2.139.16.118.113.092.062-.194.895-.182-.124-.175-.164-.175-.2-.18-.237-.188-.268-.195-.295-.203-.327-.216-.35-.222-.37-.233-.39-.246-.404-.255-.416-.267-.427-.279-.432-.29-.437-.3-.44-.313-.431-.324-.43-.335-.416-.348-.409-.36-.39-.37-.373-.383-.35-.395-.327-.408-.3-.419-.27-.434-.234-.442-.2-.457-.16-.473-.119-.484-.074-.497-.026zm-13.335 4.386l.367-.75-.292-.065.022-.012.068-.04.106-.06.145-.082.184-.103.217-.12.253-.137.284-.151.314-.165.345-.175.37-.187.396-.193.42-.201.44-.208.46-.209.48-.21.497-.211.51-.208.523-.209.536-.2.544-.196.555-.185.557-.177.564-.165.568-.151.566-.136.567-.124.566-.1.56-.085.555-.059.547-.038.541-.012v.941l-.52.012-.531.038-.541.06-.548.08-.552.1-.554.118-.56.136-.557.147-.554.164-.551.173-.544.185-.538.19-.529.2-.517.204-.506.208-.49.21-.476.207-.454.208-.438.203-.415.2-.392.193-.368.183-.339.175-.31.164-.284.147-.247.136-.217.12-.18.099-.142.082-.105.06-.062.035-.022.012-.292-.065zm.292.064l-.157.093-.135-.157.292.065z" fill="#000f5d" fill-rule="nonzero" stroke="#ffe700" stroke-width="1.545"/><path id="path1009" d="M474.272 312.435c1.326 1.112 11.504-6.44 13.155-6.318l28.708.042c5.753.422 5.104 7.319 7.034 7.116 1.929-.201.903-13.785-4.002-13.86-4.907-.075-31.204 1.779-36.615 1.928-7.9 1.452-8.578 5.68-8.28 11.092z" fill="#000f5d" stroke="#ffe700" stroke-width=".956"/><path id="path10091" d="M497.057 303.111l-.005 1.54-.032-.017-.04.02-.049.047-.055.08-.062.1-.068.123-.072.143-.077.164-.081.177-.085.185-.088.198-.09.197-.093.206-.093.203-.095.202-.094.193-.095.19-.094.172-.093.169-.09.143-.09.122-.086.105-.083.076-.079.046-.075.018-.07-.018-.066-.054-.06-.097-.053-.147-.048-.194-.042-.26-.036-.355.046-1.279.022.21.031.194.041.168.049.131.056.089.062.054.068.017.073-.017.078-.046.082-.076.085-.105.088-.123.09-.143.093-.16.093-.173.095-.189.094-.193.094-.202.094-.203.092-.206.09-.197.087-.198.086-.185.081-.177.078-.164.073-.143.068-.131.062-.102.057-.08.05-.045.044-.02.038.017zm4.935 6.919l-4.94-5.379.005-1.54 4.94 5.378zm2.252-8.598l.006 1.54-.035.072-.037.105-.04.147-.041.181-.045.21-.046.24-.05.262-.05.282-.054.303-.056.315-.057.333-.06.345-.063.345-.065.35-.067.357-.069.345-.072.349-.074.332-.076.329-.078.312-.08.295-.084.273-.085.249-.088.227-.09.194-.092.168-.095.126-.097.089-.099.05-.102.003-.104-.038-.107-.093.005-1.54.105.093.102.038.1-.003.097-.05.096-.089.092-.126.091-.16.088-.193.086-.219.084-.248.082-.265.079-.294.077-.303.074-.32.073-.333.07-.341.069-.345.066-.35.064-.349.063-.345.06-.336.057-.333.056-.315.054-.312.052-.282.05-.27.047-.24.046-.219.045-.189.042-.156.04-.122.039-.08zm-.911-18.062l.091.067.088.168.084.261.08.345c.298 1.651.397 3.338.5 5.016l.045.817.04.841.037.855.033.87.028.864.025.87.02.86.016.85.012.832.006.813.004.778-.001.75-.005.715-.011.673-.016.619-.022.547-.027.467-.033.357-.037.24-.04.126-.006-1.54.027-.084.022-.147.019-.198.015-.257.013-.312.01-.383.007-.446.005-.513v-1.2l-.007-.669-.01-.707-.015-.74-.018-.758-.022-.778-.025-.787-.03-.787-.033-.779-.038-.774-.04-.75-.045-.731-.05-.703c0-1.957-.697-3.687-.696-5.558zm-7.448.425l.113-.042c2.392-.407 4.912-.628 7.336-.364 1.191-.008-5.978-.053-7.45.406zm-1.123 21.715l-.046 1.28-.029-.443-.024-.53-.019-.61-.014-.67-.01-.723-.006-.77v-1.658l.006-.884.012-.909.014-.93.018-.947.022-.955.026-.972.03-.968.034-.964.038-.96.042-.938.047-.913.05-.892.055-.855c.104-1.657.247-3.313.585-4.932l.092-.286.096-.194.101-.093c-.064 1.74-.539 3.42-.71 5.227l-.058.72-.055.762-.05.803-.048.825-.043.855-.039.87-.036.884-.031.888-.028.893-.024.888-.02.88-.016.853-.012.83-.01.799-.005.766-.001.72v.66l.005.61.006.54.011.466.013.4.014.32.015.257z" fill="#000f5d" fill-rule="nonzero" stroke="#ffe700" stroke-width=".73"/><path id="path1639" d="M469.06 292.304l.036.457-.247.018-.244.027-.24.04-.239.049-.232.058-.23.066-.225.073-.219.082-.217.087-.209.093-.202.098-.197.101-.192.104-.184.105-.176.109-.169.107-.16.108-.154.107-.145.105-.135.102-.125.099-.117.095-.108.089-.096.082-.086.076-.076.07-.063.058-.053.051-.045.041-.025.026-.016.018-.007.007-.487-.27.006-.005.02-.023.038-.036.044-.044.057-.054.07-.063.079-.074.093-.082.102-.087.111-.094.125-.1.134-.104.142-.109.155-.11.16-.112.17-.115.18-.115.189-.114.197-.115.205-.112.21-.108.223-.105.228-.1.234-.096.242-.088.248-.084.257-.074.262-.065.268-.054.274-.045.28-.032.283-.02zm62.637-.06l-.146.445-.308-.029-.648-.031-.938-.027-1.206-.023-1.453-.02-1.676-.016-1.88-.013-2.067-.01-2.23-.007-2.372-.005-2.498-.002-2.601.002-2.684.002-2.746.005-2.788.007-2.811.008-2.815.01-2.797.01-2.756.013-2.7.014-2.622.015-2.521.015-2.404.016-2.263.015-2.106.016-1.927.018-1.725.016-1.505.015-1.266.016-1.004.014-.723.015-.415.012-.037-.458.433-.012.729-.015 1.007-.014 1.266-.016 1.509-.015 1.725-.016 1.926-.017 2.106-.017 2.263-.015 2.404-.016 2.525-.015 2.62-.015 2.701-.014 2.757-.012 2.797-.011 2.814-.01 2.812-.008 2.791-.007 2.746-.005 2.684-.002 2.6-.002 2.499.002 2.376.005 2.23.007 2.066.009 1.883.012 1.68.016 1.456.02 1.213.024.948.026.67.031.402.041zm4.953 2.778l-.45.306-.006-.005-.024-.02-.036-.03-.05-.042-.066-.052-.075-.061-.09-.07-.102-.08-.111-.086-.123-.093-.13-.096-.143-.104-.15-.108-.155-.111-.166-.113-.169-.115-.175-.117-.182-.115-.186-.117-.19-.113-.194-.113-.197-.11-.196-.106-.2-.102-.2-.096-.196-.09-.2-.084-.195-.076-.19-.067-.19-.06-.183-.048-.179-.039.146-.445.215.046.216.059.213.066.217.075.216.084.215.091.214.098.212.101.21.11.209.11.204.115.204.118.197.119.192.121.189.12.182.12.176.118.169.117.162.114.152.11.146.106.134.102.126.095.114.089.103.08.093.072.081.064.067.055.053.044.04.033.023.02.01.006z" fill="#000f5d" fill-rule="nonzero" stroke="#ffe700" stroke-width="1.074"/><path id="path1640" d="M480.84 304.04l.074.673-.227.076-.219.084-.21.092-.203.098-.197.105-.189.11-.183.117-.176.123-.171.131-.167.136-.16.14-.157.146-.152.151-.15.157-.146.16-.142.163-.14.17-.14.173-.135.177-.136.181-.134.185-.134.187-.133.188-.132.194-.135.196-.136.198-.134.198-.138.201-.139.203-.141.204-.144.205-.147.205-.256-.53.143-.201.142-.202.14-.2.137-.199.136-.201.137-.202.135-.198.135-.196.135-.194.135-.196.138-.19.137-.188.14-.189.142-.18.144-.182.146-.177.15-.174.154-.167.157-.165.16-.158.167-.157.17-.147.176-.144.183-.138.187-.131.194-.125.2-.118.206-.112.215-.102.22-.095.23-.088.239-.08zm37.523-.887l-.082.671-.173-.027-.372-.03-.545-.024-.701-.019-.849-.015-.98-.01-1.101-.006h-1.21l-1.31.002-1.395.007-1.47.01-1.532.014-1.583.02-1.62.023-1.65.028-1.666.03-1.669.035-1.662.037-1.642.04-1.611.044-1.569.047-1.513.05-1.449.052-1.37.056-1.28.058-1.179.06-1.065.064-.942.063-.802.067-.655.071-.49.07-.312.068-.073-.671.342-.077.504-.073.661-.07.808-.067.943-.064 1.068-.064 1.18-.06 1.281-.057 1.372-.056 1.449-.053 1.515-.05 1.57-.047 1.61-.045 1.644-.039 1.663-.037 1.668-.035 1.666-.03 1.65-.028 1.623-.022 1.583-.02 1.532-.016 1.47-.01 1.396-.007 1.31-.002h1.21l1.105.006.982.01.848.014.706.019.55.024.385.03.228.039zm4.161 3.696l-.22.575-.01-.01-.022-.027-.041-.04-.055-.06-.07-.075-.081-.088-.093-.1-.105-.11-.116-.122-.124-.13-.133-.139-.14-.144-.15-.15-.152-.154-.159-.158-.162-.159-.166-.162-.168-.16-.17-.16-.17-.158-.17-.155-.168-.149-.167-.144-.162-.136-.16-.129-.154-.121-.147-.108-.142-.1-.132-.085-.123-.07-.113-.057-.099-.04.083-.67.123.05.13.065.137.08.143.093.15.103.157.115.16.126.165.132.167.14.17.148.173.153.173.158.172.159.172.162.17.164.168.162.165.163.161.158.155.159.149.15.142.147.133.138.127.13.116.122.106.113.096.101.081.088.07.074.055.06.041.045.028.03.007.007z" fill="#000f5d" fill-rule="nonzero" stroke="#ffe700" stroke-width="1.074"/><path id="path1012" transform="matrix(.85782 0 0 1.06591 69.818 -24.8)" fill="#000f5d" stroke="#ffe700" d="M486.013 323.537l-1.237 8.517h30.943l-.991-8.517z"/><use xlink:href="#path756" height="600" width="1000" id="use3285" transform="translate(21.247)" stroke-width="7.2"/><use xlink:href="#path756" height="600" width="1000" id="use3287" transform="translate(31.649)" stroke-width="7.2"/><use xlink:href="#path756" height="600" width="1000" id="use3289" transform="translate(42.452)" stroke-width="7.2"/><path id="path756" d="M476.125 356.406c-.579.076-1.171-.007-1.75.063-.43.008-.853.085-1.281.125-.741.185-1.566.446-1.969 1.156-.394.691-.148 1.504.138 2.184.227.52.413 1.063.725 1.542a14.375 14.375 0 0 0 2.195 3.082c.64.685 1.282 1.375 2.05 1.918.708.572 1.438 1.148 2.273 1.522.863.288 1.779.328 2.682.408.993.03 1.991.059 2.985 0 1.002-.05 2.01-.12 2.994-.323.585-.15 1.282-.37 1.515-.99.335-.61.058-1.326-.2-1.914-.34-.799-.891-1.483-1.348-2.215-.936-1.233-1.896-2.448-2.939-3.592-.543-.574-1.066-1.17-1.701-1.643-.715-.461-1.519-.762-2.337-.983-.503-.095-1.002-.222-1.516-.24-.564-.084-1.136-.056-1.703-.1h-.813zm-.875 2.313c1.172.018 2.352-.06 3.511.102.682.116 1.368.233 1.989.554.578.272 1.012.77 1.46 1.223.513.55.993 1.13 1.492 1.693.81 1.037 1.666 2.046 2.33 3.186.084.175.427.512.027.475-1.02.135-2.048.17-3.075.187-.484.007-.971-.019-1.457-.026-.74-.042-1.499-.058-2.214-.27a13.016 13.016 0 0 1-2.17-1.572c-.671-.618-1.332-1.263-1.884-1.994-.519-.607-.926-1.294-1.325-1.981-.206-.459-.45-.904-.59-1.39.578-.149 1.192-.146 1.792-.164l.114-.023z" fill="#ffe700" fill-rule="nonzero" stroke-width="7.2"/><use xlink:href="#path756" height="600" width="1000" id="use4059" transform="translate(10.384)" stroke-width="7.2"/></g></g></svg>