<svg xmlns="http://www.w3.org/2000/svg" width="800" height="533.33" version="1" xmlns:cgf="https://coding.garden/flags"><metadata id="cgf-metadata">

<cgf:flag>
  <cgf:name>Fort Wayne</cgf:name>
  <cgf:route>us/in/fort_wayne</cgf:route>
  <cgf:aspect-ratio>1.5009380863039399</cgf:aspect-ratio>
</cgf:flag>

</metadata><path fill="#002868" d="M0 .002h800V533.33H0z"></path><path d="m0 0 278.094 212.656a132.734 132.734 0 0 0-11.438 54 132.86 132.86 0 0 0 11.438 54L0 533.344h109.719L319.5 372.906C341.876 389.892 369.76 400 400 400c62.087 0 114.31-42.518 129.125-100H800v-66.656H529.125c-14.805-57.497-67.027-100-129.125-100-30.234 0-58.126 10.081-80.5 27.062L109.719 0H0z" fill="#fff"></path><g stroke="#000"><path d="M640.025 371.643c.331.702.646 1.154 1.076 2.475-.472-.677-1.06-.71-1.768-.968.811 1.059.838 3.025.938 4.782.18 3.135 1.311 4.743 2.522 5.566 2.21 1.502 4.24 2.28 6.75 4.982.622.67 1.092 2.42.277 3.29-.413.44-1.893-.646-.938-2.106-2.475.644-1.265 3.557-2.076 6.565-3.407 3.06-6.426 6.488-9.103 10.195-2.595 3.903-3.222 8.035-2.122 12.255 1.284 4.92 5.527 7.018 11.148 7.565.28 1.646 1.138 3.498 3.721 5.612 2.01 1.645 2.272 5.245.723 6.643-2.083 1.88-4.013-1.593-4.46-2.953-.575 1.651-.408 3.344.447 5.367-.914-.287-1.678-.845-2.138-1.63-.088 1.126.117 2.32 1.03 3.26-1.189-.01-2.074-.182-2.783-.784.012.747.636 2.067 1.261 2.444-.594.596-1.13.882-1.83 1 .07.664.36 1.304.97 1.737-.221.387-.633.749-1.016.969.146.505.434.924.8 1.138.529.308 1.276 1.798.584 2.814-.534.785-1.195 1.19-2.23 1.307 2.952.495 4.84 1.8 4.675 4.674 2.08-.92 3.336-.155 4.09.861-.477.853.014 1.527.784 1.922l-.369 1.061c1.297-.36 1.58-1.237 1.6-2.475a2.296 2.296 0 0 1 1.214-.154c.033.497.165 1.06 1.215 1.2l-.154 1.122c.505-.29 1.543-.945 1.138-2.46a1.55 1.55 0 0 1 .8-.508c.215.365.578.664 1.43.477l.23 1.091c.896-.983.918-2.244.077-2.921-.315-.994-.95-1.928-2.599-2.876-.947-.544-1.56-.35-2.321-.107-2.466.785-4.801-.274-5.782-1.922-.981-1.756-.951-4.064-.061-5.274 1.21-1.646 2.768-2.279 4.182-1.66 1.373.599 2.843 2.152 1.46 4.827 1.682-.352 2.846-1.54 3.337-3.828.007 1.126 1.04 1.962 2.06 2.798-.203-1.281-.093-2.512.447-3.644.455.96.859 1.936 2.906 2.46-.831-1.351-.967-2.527-.4-3.629 1.28-2.484 3.358-2.942 4.136-4.859.795-1.957 1.15-4.56.723-6.534 1.687.408 4.606-1.03 4.244 3.69 1.703-1.165 2.836 1.385.892 2.23 1.158 2.423-1.186 3.772-2.63 2.69 1.6 1.89 1.392 3.8-.476 5.551 1.416.55 2.648 1.267 3.106 2.63 2.01-4.788 9.32-3.841 11.378-1.769.044-.786.465-1.372 1.03-1.584.3.945 1.182 1 1.984.662l.569.968c.522-1.134.108-2.446-1.107-2.906.133-.476.417-.909.784-1.184.324.334.777.6 1.614.108l.57.969c.608-1.194-.069-2.939-1.508-2.937.057-.5.293-.996.63-1.338.314.249.74.384 1.446-.03l.57.952c.561-1.145.034-2.71-1.308-2.936-.98-1.026-2.31-1.816-3.29-1.661-1.255.198-2.328.544-2.045 2.399.668 4.398-3.466 5.468-6.09 3.121-2.286-2.045-.39-6.265 2.491-5.72-.613-1.239-.798-2.303-.215-3.229.545-.865 1.715-1.202 2.368 1.369.538-1.323.958-3.205.17-4.706-1.237-2.354-.803-4.26.937-5.443-4.878.113-4.722-2.106-4.182-3.89-4.713.279-7.28-.716-8.795-1.953 3.935-2.466 7.633-5.34 6.642-10.748 1.396.214 2.817.673 4.06 2.384 1.42 1.955 4.75 2.597 6.242 1.06.779-.801 1.503-.745 2.184-.292.4-1.04.958-1.95 2.583-1.875.04.665.244 1.261 1.4 1.368l.168 1.092c1.044-.622 1.033-1.53.738-2.537.143.437.8 1.051 1.553.707l.262 1.092c.839-.692.811-1.9.2-2.783.295.254.43.645 1.184.492l.522 1.045c.565-1.548.588-3.404-1.89-3.705.643-.09 1.04-.375 1.275-.785l.877.354c-.178-1.949-2.761-2.23-3.89-2.091-1.501.185-3.045 1.211-4.152 1.999-2.766 1.967-4.764 1.897-6.689.984-2.426-1.151-3.326-2.288-3.613-3.414.738-.22 1.449-.75 1.922-1.722.754-1.547.822-3.122.308-4.674 1.148-.523 2.23-1.688 2.967-3.767-.755-.433.046-1.823.969-2.23 2.088-.921 2.642-2.8 2.844-3.936-1.199-.597-.915-2.827.154-3.26-.872-.57-1.552-1.268-.968-2.86.65.072 1.27-.03 1.737-1.153l1.107.015c-.268-1.133-1.142-1.274-2.199-1.153.465-.068 1.262-.613 1.169-1.415l1.122-.077c-.4-.944-1.559-1.117-2.598-.66.337-.25.755-.322.845-1.092l1.154-.339c-1.308-.816-3.067-1.151-4.136 1.246.115-.65-.02-1.083-.339-1.384l.6-.815c-1.926-.151-3.007 2.352-3.23 3.49-.294 1.514.21 3.219.616 4.444 1.016 3.06.098 4.711-1.384 6.458-1.362 1.606-2.692 1.572-3.675 1.814-1.033.255-1.908.225-2.706.477-1.932-.674-3.508-.138-5.243-.307-1.874-.184-1.896-2.119-.754-2.737 1.602-.868 2.731.94 3.475 2.183 1.546-.57 1.715-1.836 2.045-3.014-2.208.171-4.202-.437-5.212-1.491-1.87-1.951-.39-2.962 1.937-2.184 1.105.37 2.965 1.229 3.352 2.768.636-1.26 2.104-2.044 3.475-2.568-.604-.099-1.57-.191-1.66-.907l.169-1.522c.513-.127.85-1.047-.554-1.568-1.835-.276-3.152-.871-3.798-1.892-.637-1.155-1.652-.988-2.568-1.168-2.754-.362-3.198-1.888-3.628-3.414-1.636-.204-2.282.904-3.06 1.845-.352-.8-.109-1.598.277-2.398-2.162.561-4.26 1.366-5.69 4.858-.37-.726-.494-1.457-.123-2.183-6.414 5.456-5.991 10.563-4.505 15.53.299.998 1.048 2.31.277 3.214-.663.776-1.655.76-2.46.246 1.494-2.878 1.402-6.361-3.675-9.626-1.25-.804-2.094-.844-2.814-1.522-.87-.82-.815-1.938-.43-3.752.294-1.392-.496-3.87-1.692-3.798-.712-3.223-1.7-3.456-2.814-3.567zm10.425 23.818c.76 1.371 2.52 2.11 4.382 1.753-.016.843.753 1.987 2.4 2.967a3.501 3.501 0 0 1 1.352 1.446c.13.38.256.764.37 1.137.031.19.054.376.06.57.03-.025.05-.053.078-.078.377 1.387.554 2.8.169 4.521-.907 4.05-3.812 8.424-6.858 9.549-2.885 1.065-4.852 3.155-5.535 5.09-3.955.864-7.825-2.095-8.611-5.244-.46-1.841-1.006-4.946 2.199-10.195 2.094-3.43 5.17-6.768 7.903-9.24a16.628 16.628 0 0 0 2.091-2.276z" fill="none" stroke-width="2.5"></path><path d="M640.03 371.646c.331.703.648 1.158 1.079 2.48-.473-.678-1.074-.71-1.782-.969.811 1.06.842 3.025.942 4.782.18 3.135 1.308 4.741 2.519 5.564 2.21 1.502 4.246 2.285 6.756 4.987.622.67 1.098 2.42.283 3.29-.413.44-1.897-.647-.942-2.107-2.475.644-1.269 3.558-2.08 6.566-3.406 3.06-6.421 6.478-9.099 10.185-2.595 3.903-3.228 8.033-2.128 12.252 1.283 4.92 5.524 7.027 11.144 7.574.28 1.646 1.142 3.493 3.725 5.608 2.01 1.645 2.277 5.251.727 6.65-2.083 1.88-4.02-1.599-4.466-2.959-.576 1.65-.406 3.341.449 5.364-.914-.287-1.674-.838-2.133-1.623-.088 1.125.116 2.316 1.03 3.256-1.19-.01-2.08-.18-2.788-.782.012.747.644 2.067 1.27 2.444-.595.596-1.132.885-1.831 1.003.07.664.353 1.302.962 1.735-.221.387-.633.743-1.016.964.146.504.43.92.796 1.134.529.308 1.277 1.805.586 2.821-.534.785-1.197 1.193-2.231 1.31 2.951.495 4.851 1.796 4.686 4.67 2.08-.92 3.327-.15 4.081.865-.477.852.025 1.521.796 1.917l-.376 1.056c1.297-.36 1.576-1.236 1.596-2.474.378-.154.79-.212 1.21-.147.033.497.167 1.063 1.216 1.203l-.146 1.11c.505-.29 1.547-.934 1.142-2.45.209-.254.472-.422.786-.508.215.365.583.661 1.435.474l.24 1.095c.895-.983.903-2.247.063-2.924-.315-.994-.95-1.932-2.597-2.88-.947-.544-1.563-.35-2.324-.107-2.465.785-4.8-.279-5.78-1.926-.98-1.757-.953-4.051-.063-5.261 1.21-1.646 2.77-2.28 4.183-1.663 1.373.6 2.842 2.146 1.46 4.821 1.681-.352 2.847-1.535 3.339-3.823.006 1.126 1.044 1.955 2.065 2.791-.204-1.28-.09-2.5.449-3.632.455.959.852 1.935 2.9 2.46-.832-1.352-.959-2.532-.391-3.634 1.28-2.484 3.351-2.943 4.13-4.86.795-1.957 1.149-4.562.722-6.537 1.687.408 4.604-1.032 4.242 3.687 1.703-1.165 2.838 1.39.893 2.234 1.158 2.424-1.177 3.766-2.621 2.685 1.6 1.89 1.39 3.808-.478 5.559 1.416.55 2.642 1.263 3.1 2.625 2.01-4.788 9.32-3.833 11.378-1.76.044-.786.464-1.382 1.03-1.594.3.945 1.18 1.004 1.982.665l.566.968c.522-1.134.122-2.45-1.094-2.909.134-.476.41-.898.777-1.173.324.333.774.594 1.61.102l.567.968c.609-1.193-.065-2.94-1.504-2.938.057-.5.292-.988.63-1.33.313.25.743.37 1.45-.044l.566.963c.562-1.146.043-2.717-1.298-2.943-.981-1.026-2.32-1.813-3.3-1.658-1.254.199-2.318.546-2.036 2.401.669 4.399-3.478 5.471-6.102 3.124-2.286-2.045-.377-6.265 2.505-5.72-.614-1.239-.798-2.306-.215-3.232.544-.865 1.704-1.201 2.357 1.369.538-1.322.96-3.203.171-4.704-1.236-2.353-.792-4.264.947-5.446-4.878.112-4.723-2.103-4.183-3.887-4.713.279-7.287-.724-8.801-1.96 3.935-2.467 7.635-5.33 6.643-10.738 1.396.214 2.82.661 4.062 2.372 1.42 1.955 4.741 2.602 6.233 1.066.779-.802 1.516-.752 2.197-.299.4-1.04.952-1.942 2.577-1.867.04.665.242 1.252 1.396 1.359l.171 1.1c1.044-.622 1.036-1.536.742-2.543.143.438.79 1.063 1.543.72l.273 1.08c.839-.692.802-1.895.19-2.777.296.254.432.642 1.187.489l.527 1.04c.564-1.547.585-3.394-1.894-3.695.643-.09 1.039-.373 1.274-.783l.883.347c-.177-1.948-2.77-2.227-3.9-2.087-1.5.185-3.037 1.212-4.144 2-2.766 1.967-4.764 1.885-6.688.972-4.9-2.324-3.62-4.566-3.5-6.85l.445-2.605c1.693.038 3.547-1.03 4.637-4.107-.755-.433.049-1.823.971-2.23 2.088-.922 2.633-2.813 2.836-3.95-1.199-.597-.908-2.823.162-3.257-.872-.57-1.56-1.268-.977-2.86.65.072 1.277-.027 1.743-1.149l1.108.015c-.268-1.134-1.145-1.28-2.202-1.16.465-.067 1.27-.6 1.177-1.402l1.123-.088c-.4-.945-1.563-1.112-2.602-.656.337-.249.75-.314.84-1.085l1.161-.352c-1.307-.817-3.07-1.145-4.14 1.252.117-.651-.027-1.088-.346-1.389l.605-.811c-1.925-.152-3.01 2.362-3.231 3.5-.295 1.514.208 3.205.615 4.43 1.016 3.06.1 4.717-1.381 6.464-1.363 1.606-2.693 1.576-3.676 1.818-1.74.429-3.013.037-4.267 1.575l-10.1-2.323-6.687 4.308.908 6.972c.796 2.36 1.627 4.327 1.006 7.1-.907 4.048-3.818 8.429-6.863 9.553-2.886 1.065-4.853 3.155-5.536 5.09-3.955.864-7.82-2.097-8.606-5.247-.46-1.84-1.013-4.946 2.192-10.194 2.094-3.43 5.174-6.773 7.908-9.245 3.402-3.078 7.083-8.522-.591-13.456-1.25-.804-2.082-.842-2.802-1.52-.87-.82-.818-1.941-.434-3.755.294-1.393-.498-3.867-1.694-3.794-.712-3.224-1.692-3.453-2.807-3.565z" fill="#bf0a30" fill-rule="evenodd" stroke-width=".984" stroke-linecap="round"></path><path d="M677.28 380.844c.514-.127.846-1.043-.557-1.565-1.835-.276-3.148-.879-3.794-1.9-.637-1.155-1.65-.992-2.566-1.173-2.754-.362-3.196-1.882-3.626-3.408-1.636-.204-2.29.902-3.068 1.843-.352-.8-.107-1.601.279-2.402-2.161.561-4.261 1.369-5.69 4.861-.371-.726-.484-1.453-.112-2.18-6.415 5.457-6.005 10.567-4.52 15.535.3.998 1.05 2.31.28 3.213-1.06 1.242-2.958.432-3.599-1.146-1.076 3.065 1.576 5.261 4.523 4.697-.016.843.759 1.984 2.404 2.964 1.168.696 1.728 1.904 1.775 3.161 2.041-1.737 1.595-4.136-.26-5.248 1.407.853 2.759.57 3.732.19-.223 1.329.57 2.613 2.367 2.885 1.482.225 2.666-1.027 2.445-2.884-1.038 2.057-3.46.172-1.46-1.423 1.217-.969 2.844-.108 4.103-1.936 1.02 1.464 1.157 3.1-.04 4.228-1.232 1.162-1.88 3.109-1.143 4.11.494.67 2.721 1.763 4.813-.396-1.533.577-2.463-.281-2.242-1.287.254-1.161 1.481-.924 2.636-1.36 1.304-.493 1.937-1.716 2.406-3.359 2.869-.143 3.894 4.729-.04 5.018.165 1.519 3.616 2.467 5.01-.395 1.468-3.012.39-6.138-2.682-8.969-3.467-3.194-5.667-1.965-8.205-2.213-1.874-.183-1.891-2.107-.75-2.726 1.602-.868 2.728.93 3.472 2.173 1.545-.57 1.721-1.825 2.051-3.003-2.208.171-4.197-.447-5.207-1.501-1.87-1.951-.394-2.952 1.933-2.173 1.105.37 2.966 1.226 3.353 2.766.636-1.26 2.1-2.045 3.472-2.569-.604-.098-1.566-.193-1.657-.908l.165-1.52z" fill="#bf0a30" fill-rule="evenodd" stroke-width=".984" stroke-linecap="round"></path><path d="M655.301 377.899c-1.851 2.539-1.711 6.388 3.393 5.531-3.196 2.115-1.526 5.69 2.13 7.033 4.294 1.577 1.162 7.53-2.051 5.453 2.073-.725 1.727-3.01.383-3.42-1.66-.509-3.224-1.253-4.26-2.669-1.67-2.282-.618-4.794.445-6.634m-.498 14.027c1.938-.491 3.107-3.32 1.745-5.838m2.339 1.531c-.019 0-.038 0 0 0z" fill="none" stroke-width=".984" stroke-linecap="round"></path><path d="M660.196 393.933c-.972-1.597-3.992-.075-2.65 2.85.19.415.568.861 1.2 1.313m3.695.191c2.57-.863 3.904-5.317 2.288-7.33-2.889-3.599-2.64-5.112-.591-6.38-.962-2.843 3.968-4.186 5.325-1.62" fill="none" stroke-width=".984" stroke-linecap="round"></path><path d="M664.127 384.579c.41 1.388.911 2.563 3.245 3.988 1.891 1.354 3.788 4.01 2.555 6.351" fill="none" stroke-width=".984" stroke-linecap="round"></path><path d="M676.337 396.864c-1.16-.01-2.256-.258-2.93-1.462-1.047-1.874-1.955-2.452-3.116-2.528m-2.919-16.496c-.985.775-1.536 2.232 1.687 2.609 2.042.239 3.137 1.975 1.824 3.653" fill="none" stroke-width=".984" stroke-linecap="round"></path><path d="M666.721 377.543c.789-.564 2.156-.366 3.57.738.821.641 2.42.372 2.88-.56m-3.373.178c.097.564-.053.88-.253 1.146m1.404 3.587c1.366.154 2.715.762 4.268.182 1.426-.534 1.623-1.322 1.353-2.152m-13.515-2.78c-1.277.426-2.005 1.458-2.762 3.297-1.004-.874-1.305-3.32.168-4.666.058.897.218 1.744 1.227 1.9m2.134 47.453c.112-3.488 2.5-5.25 5.917-6.994" fill="none" stroke-width=".984" stroke-linecap="round"></path><path d="M663.501 420.685c-2.974 1.628-3.592 3.956-2.092 5.923 1.553 2.035 4.484 2.514 5.188 6.174m1.537-30.015c-1.062.916-1.012 3.579.778 4.735 2.547 1.645 5.19.416 7.48.629" fill="none" stroke-width=".984" stroke-linecap="round"></path></g><g stroke="#000"><path d="M666.447 71.71c-4.598 8.528-9.403 17.04-19.957 25.196 7.366 9.136 14.813 18.438 16.144 33.037h-1.925c-1.205-11.567-7.849-27.72-20.777-27.495-11.758.204-17.186 8.513-16.536 15.431 1.067 11.257 8.88 14.508 19.458 10.692-5.874-2.29-7.946-7.578-4.027-10.389 4.307-3.088 10.741-2.017 15.11 3.635 1.085 1.402 2.597 4.573 3.173 8.126h-.713c-1.54 0-2.78 1.24-2.78 2.78 0 1.54 1.24 2.78 2.78 2.78h.677c-.532 2.574-1.895 4.967-4.633 6.663-4.582 2.84-10.849-.48-5.15-7.448-3.45-.997-10.726 4.267-7.965 11.28 1.583 4.019 5.276 6.523 9.89 5.844 8.551-1.258 11.107-10.126 11.6-16.34h1.889c-.388 5.35-2.169 11.066-6.148 16.643 4.106 1.756 7.672 4.786 9.89 9.48 2.217-4.694 5.766-7.724 9.872-9.48-3.98-5.577-5.76-11.294-6.148-16.643h1.907c.493 6.214 3.048 15.082 11.6 16.34 4.613.679 8.307-1.825 9.89-5.844 2.76-7.013-4.516-12.277-7.966-11.28 5.7 6.969-.567 10.287-5.15 7.448-2.738-1.696-4.119-4.089-4.65-6.664h.695c1.54 0 2.78-1.24 2.78-2.78 0-1.54-1.24-2.78-2.78-2.78h-.713c.576-3.552 2.07-6.723 3.154-8.125 4.37-5.652 10.822-6.723 15.128-3.635 3.92 2.81 1.847 8.1-4.027 10.389 10.579 3.816 18.374.565 19.44-10.692.65-6.918-4.759-15.227-16.518-15.431-12.928-.225-19.59 15.928-20.794 27.495h-1.907c1.33-14.599 8.778-23.901 16.144-33.037-10.554-8.156-15.36-16.668-19.957-25.196z" fill="none" stroke-width="2.5" transform="matrix(.9549 0 0 1 30.058 0)"></path><path d="M666.447 71.71c-4.598 8.528-9.403 17.04-19.957 25.196 7.366 9.136 14.813 18.438 16.144 33.037h-1.925c-1.205-11.567-7.849-27.72-20.777-27.495-11.758.204-17.186 8.513-16.536 15.431 1.067 11.257 8.88 14.508 19.458 10.692-5.874-2.29-7.946-7.578-4.027-10.389 4.307-3.088 10.741-2.017 15.11 3.635 1.085 1.402 2.597 4.573 3.173 8.126h-.713c-1.54 0-2.78 1.24-2.78 2.78 0 1.54 1.24 2.78 2.78 2.78h.677c-.532 2.574-1.895 4.967-4.633 6.663-4.582 2.84-10.849-.48-5.15-7.448-3.45-.997-10.726 4.267-7.965 11.28 1.583 4.019 5.276 6.523 9.89 5.844 8.551-1.258 11.107-10.126 11.6-16.34h1.889c-.388 5.35-2.169 11.066-6.148 16.643 4.106 1.756 7.672 4.786 9.89 9.48 2.217-4.694 5.766-7.724 9.872-9.48-3.98-5.577-5.76-11.294-6.148-16.643h1.907c.493 6.214 3.048 15.082 11.6 16.34 4.613.679 8.307-1.825 9.89-5.844 2.76-7.013-4.516-12.277-7.966-11.28 5.7 6.969-.567 10.287-5.15 7.448-2.738-1.696-4.119-4.089-4.65-6.664h.695c1.54 0 2.78-1.24 2.78-2.78 0-1.54-1.24-2.78-2.78-2.78h-.713c.576-3.552 2.07-6.723 3.154-8.125 4.37-5.652 10.822-6.723 15.128-3.635 3.92 2.81 1.847 8.1-4.027 10.389 10.579 3.816 18.374.565 19.44-10.692.65-6.918-4.759-15.227-16.518-15.431-12.928-.225-19.59 15.928-20.794 27.495h-1.907c1.33-14.599 8.778-23.901 16.144-33.037-10.554-8.156-15.36-16.668-19.957-25.196z" fill="#bf0a30" fill-rule="evenodd" stroke-width="1.14" transform="matrix(.9549 0 0 1 30.058 0)"></path></g><g fill-rule="evenodd"><path d="M89.332 240.772c-2.503 2.517-4.242 5.187-7.969 7.458l-.92-1.532c-3.461 1.215-5.542 5.192-8.275 7.867 1.208-3.508 1.086-7.016 3.985-10.523l-1.124-1.226c3.266-2.47 6.336-5.078 11.442-6.232l2.452 1.123.409 3.065z" stroke="#000" stroke-width=".578"></path><path d="M110.264 293.91c.282 2.196-2.738 4.388-5.3 4.994-3.052.722-1.77 2.928-.205 4.29 2.52 2.197 4.638 1.788 6.538.41 2.072-1.503 4.238-1.758 6.845-1.533 6.747.583 12.695 1.615 18.288 3.78 6.649 2.574 12.848 5.969 16.142 11.136 2.486 3.9 5.449 5.068 7.662 4.393 1.65-.503.88-1.907.102-2.35-2.034-1.156-3.841-2.553-4.7-4.188-.967-1.845-2.663-3.844-3.984-5.926-1.635-2.578-.213-3.449 0-4.904.383-2.614.64-5.178-.408-7.866-.467-1.197-1.13-2.006-.511-4.7.693-3.024 4.489-5.436 7.764-6.334 3.714-1.019 5.498-2.019 7.663-3.678 2.367-1.864 2.482-3.994 1.174-6.13-.39-1.566-.63-2.963-.204-4.393 1.146-1.342.98-2.51.664-3.984l.511-3.474c-.164-.86.314-1.207.817-1.533 1.905-1.294 2.952-3.693 1.226-6.232-.46-.676-1.756-1.696-1.894-1.931-1.757-3.006-5.64-5.898-6.79-7.774-.886-1.448-1.045-3.327-.92-5.006.166-2.204-.952-4.148-2.86-5.21-.989-.552-2.259-.992-3.575-2.76-2.572-3.451-5.045-5.838-7.356-7.457l-14.916-3.576-18.696 3.78-12.158 13.18c3.69 15.56 4.581 33.265 8.618 48.825l.463 6.152z" fill="#bf0a30" stroke="#000" stroke-width="1.734"></path><path d="M151.448 274.589c-.044-1.226-.298-2.432-1.124-3.678-1.753-2.646-.392-4.725 0-6.334 4.563.417 5.475-1.996 7.867-5.517-3.304 2.478-5.796 4.743-8.071 2.35-1.667-1.754-3.414-2.252-5.415-1.941-3.806.59-5.102.529-5.21-2.146-.987 1.52-1.55 3.224 3.575 5.108 1.436.528 3.709-.561 4.394 3.27.301 1.689.179 3.672 1.736 5.21 1.443 1.425 1.58 2.452 2.248 3.678zm-2.554-22.885c2.4-4.666 7.572-.916 8.837 1.098-.403-1.507-.955-2.42-1.448-2.914 1.393-2.508 3.001-3.935 4.768-4.314l-.408-3.882c-3.867-.209-7.829.236-10.932 2.554-2.964 2.214-2.867 5.69-.817 7.458zm19.922 2.35c2.036 2.101.959 6.559-3.32 5.057-.74.896-2.297.921-3.985.868.131 1.755 2.437 1.793 3.576 1.328.561.764 2.25 1.026 4.086.511 3.496-2.867 1.831-5.722-.357-7.764zm-1.466 10.772c-1.67.028-3.214.51-4.334 1.608-5.384 2.732-5.163 3.428-6.718 4.768a3.655 3.655 0 0 0-.578-1.012c-.59-.399-2.225.043-2.312 1.373 1.464.377 2.099 2.327 1.879 4.118.873-1.004 1.221-2.04 1.246-2.98 2.118-1.183 4.564-2.393 6.968-4.125 1.259-.831 3.357-1.862 4.5-.48l.072-3.252a9.758 9.758 0 0 0-.722-.018zm-3.539 10.485c-1.795-.267-1.794-1.137-1.878-2.095 3.432-.469 4.1-1.576 5.129-2.6l.217 4.984c-1.18-.55-2.32-.118-3.468-.289zm-34.206-20.147c-1.124.038-2.327.52-3.287 1.156-1.876 1.24-3.325 4.127-1.091 7.598.114-2.295-.098-3.899 1.669-4.636.271-.114.531-.222.794-.325.048 1.838.565 3.319 1.481 5.129.524 1.035 2.98 2.985 4.371 1.697.85-.786.462-2.889-.506-3.575-1.384-.983-1.424-2.525-1.517-4.136.52.018 1.005.118 1.445.343.245-1.132.071-1.866-1.517-2.818-.528-.316-1.168-.456-1.842-.433zm3.045-12.757c.337 1.55.787 3.099-.46 4.649 1.458-.315 3.18.424 4.904 1.174-1.482-4.14-2.963-4.844-4.444-5.823zm8.445 4.066c1.401.728 2.896 1.35 3.403 3.095-.606 1.295-1.45 1.655-2.505 1.179.843-1.81-.363-2.93-.898-4.274z"></path><path d="M108.04 236.31c-10.666 8.921-11.445 22.926-4.695 38.431 2.325 5.34 5.662 14.052 6.213 21.384.885 1.097 1.811 1.434.132 2.422-2.274 1.34-5.263 2.186-4.936 4.64 2.5 2.218 4.637 1.793 6.538.415a9.17 9.17 0 0 1 .849-.542c-.148-1.479-.045-3.018.776-4.262.303-.5.802-.965 1.409-.903.47-.029.938.433.758.939-.377 1.08.09 2.151.253 3.233.88-.097 1.807-.086 2.8 0 4.58.395 8.803.998 12.786 2.022l5.57.856c-3.846-1.614-5.44-3.042-7.228-3.566-2.396-.667-3.598-.784-4.573-2.798-1.161-2.401-.583-5.157-1.426-7.64-.547-1.609-3.817-2.412-3.432-.036.245 1.51 2.036 3.88.38 4.714-1.29.65-3.529.458-4.678-.704-1.673-1.692-1.356 1.822-3.023 1.066-1.801-.818-.367-3.066 1.361-2.547 2.143.644.75-2.465.488-3.594-.364-1.57 1.927-2.668 3.341-3.287 1.444-.632 3.023-.471 4.551-.831 1.889-.445 2.886-1.727 3.305-3.54.525-2.27 3.418-2.334 5.057-3.576 1.693-.827 4.36-.188 5.075 1.644.306 1.626-.624 3.11-1.698 4.208-1.378 1.409.373 2.563 1.644 1.264 1.26-1.287 3.284-.581 4.948-.722 2.36-.2 1.586 2.64 1.644 4.081.065 1.628 1.731 2.27 3.088 2.565 1.536.334 2.741 1.689 3.83 2.8 1.158 1.183 1.67 2.955 1.679 4.568.004.924.614 2.925-.559 6.32.187.016 1.078-1.187 1.39-1.317.382-2.615.633-5.186-.416-7.874-.467-1.196-1.123-2.002-.506-4.696.694-3.024 4.49-5.44 7.766-6.339 3.714-1.019 5.494-2.016 7.64-3.666-4.092 1.907-8.78 2.094-12.155.307-2.164-1.146-4.587-1.114-7.007-.795-1.016.134-2.19.698-2.745-1.59-.282-1.157-.76-1.856-1.95-2.383-.965-.427-1.013-1.122-1.084-1.734-.186-1.596.119-3.372-.74-4.75-2.01-3.218-4.788.32-3.776 1.138.93-.976 2.7-1.16 2.547 1.318-.126 2.028-3.813 2.47-5.039 1.41-2.716-2.352-3.63-4.106-6.285-5.545-4.388-2.38-8.194-6.353-9.03-10.259-.755-3.523 1.707-5.647 3.684-6.43 1.815-.717 4.205-.655 6.14-.433-1.217-1.319-2.125-.635-2.889-1.372-1.482-1.432 1.976-3.132 2.456-4.48.347-.97-1.125-2.204-2.022-1.083-1.186 1.48-.834 4.068-3.035 5.924-1.473 1.243-3.03.178-2.311-1.445l.704-1.59c.532-1.2.768-2.384.867-3.665.095-1.229-1.545-2.72-2.131-1.265-.634 1.575.501 3.248.27 5.003-.18 1.376-1.878 1.162-2.365-.054-.649-1.618-.03-3.642-1.373-4.949-1.172-1.14-2.917-1.789-4.55-1.57-1.393.185-2.371-.768-3.198-1.77-.786-.956-1.185-2.086-1.083-3.07zm10.187 28.191c.242-.002.504.085.686.235.456.376.85.869.993 1.445.25.997.332 2.146-.198 3.034-.467.78-1.765.978-2.474.361-.516-.448-.262-1.221-.09-1.77.304-.975-.017-2.066.487-2.98.125-.226.354-.323.596-.325zm7.116 7.026c1.256-.124 1.98 1 1.788 2.98-.273 2.798-2.99.924-3.667 2.907-.551 1.616-.328 4.858-2.456 5.436-2.749.748-.34-2.337-1.318-3.34-1.509-1.548-2.148-3.878.018-4.606 1.872-.63 2.59-1.797 4.208-2.817.525-.332 1.008-.519 1.427-.56zm-9.735 7.621c.353 0 .71.058 1.03.217.542.268.773.85.776 1.427.004.764.005 1.544-.126 2.293-.176 1.004-1.299 1.126-2.113 1.39-1.183.386-1.27 2.162-2.547 2.493-1.105.287-1.804-.932-1.716-1.896.072-.785.194-1.927.885-2.167.915-.318 1.312-1.201 1.481-2.023.22-1.066 1.271-1.734 2.33-1.734zm8.204-46.906c.808-.104 1.495.805 1.422 1.586-.072.75-.389 1.654-1.186 1.884-.59.17-1.481-.04-1.582-.742-.113-.782.14-1.62.717-2.184.197-.193.345-.508.63-.544z"></path><path d="M138.653 210.916c-3.92-.003-9.753 1.26-14.99 3.594-2.804 1.25-5.398 3.355-10.33 4.19-4.139.701-5.893 2.219-7.658 4.696-1.679 2.355-1.58 4.822-1.011 7.062.595 2.35 2.534 5.002 5.67 4.804 2.92-.185 3.323 2.258 5.888 2.817 3.037.662 5.62-1.214 4.533-3.955-.991-2.503-.451-5.975 2.619-5.707 2.418.21 1.772-2.708 3.955-2.565 4.878.32 10.879-1.022 14.972-.072 2.64.612 4.609 1.748 7.513 5.797 4.488 6.258 6.983 4.491 10.006 5.924-.689-.909-1.81-1.547-3.07-2.276-1.332-.769-2.106-1.61-2.673-2.474a148.27 148.27 0 0 0-3.45-5.057c-1.956-2.736-5.367-5.236-9.391-8.271-1.037-.782-1.332-2.284.09-3.576l2.258-2.041c.78-.71.346-1.685-1.734-2.456-.787-.292-1.89-.433-3.197-.434zm-20.679 17.194c.634-.015 1.253.483 1.463 1.065.2.553-.193 1.121-.614 1.481-.38.325-.856.773-.74 1.319.174.821 1.006 1.263 1.426 1.95.416.68.072 1.65-.632 2.005-.515.26-1.122.317-1.68.253-.72-.083-1.068-.87-1.264-1.5-.144-.464-.635-.687-1.12-.631-.664.075-1.422.228-2.04-.073-.65-.315-.774-1.235-.578-1.896a.76.76 0 0 1 .83-.56c.83.076 1.796.23 2.583-.144.594-.283.558-1.085.813-1.626.289-.613.561-1.41 1.282-1.607.09-.025.18-.034.271-.036zm18.456 77.741 6.079 1.788c2.576 1.171 6.759.889 7.815-2.299l1.328-1.328c-.213 1.455-1.635 2.326 0 4.904 1.32 2.082 3.017 4.08 3.985 5.926.858 1.635 2.665 3.032 4.7 4.188.778.443 1.546 1.847-.103 2.35-2.213.675-5.176-.493-7.662-4.393-3.294-5.167-9.493-8.562-16.142-11.136z"></path><path d="M95.564 282.558c3.469 7.764-2.032 14.916-5.415 22.68l-.92-2.043c-1.17 5.1-4.766 11.396-9.296 15.733-.038-4.018-.242-8.956 1.226-12.975l-2.248.613c1.015-4.955 1.129-10.297 3.882-14.507l-1.94.102c1.251-4.884 2.676-9.466 5.005-12.464l6.232-1.941 3.474 4.802z" stroke="#000" stroke-width=".578"></path><path d="M93.725 239.24c-2.92 2.782-4.76 5.864-5.517 10.267l2.503.41-.102 3.677c-2.453 4.205-5.682 13.157-5.67 19.156l3.065-.715c-2.838 3.503-3.47 6.18-4.189 8.888 1.57 1.878 3.458-.001 5.313-.409.785-.172 2.019-1.726 2.962.716.719 1.859 1.572 3.241 5.109 3.167.769-2.759.044-5.109-.41-7.867l2.044 2.86c3.008-5.82 2.914-10.69 2.554-15.733l1.84 1.737c3.181-9.436 3.401-19.374 2.911-27.993 2.503-1.417 3.842-7.29-.255-8.633-3.78-1.239-6.524 1.62-9.502 2.707l-2.656 7.765z" fill="#bf0a30" stroke="#000" stroke-width="1.734"></path><path d="M97.812 236.89c-3.01 1.638-4.898 7.893-4.087 10.88.823 3.033-.741 6.42-3.692 7.215l-2.234.601c1.11-6.802 4.784-11.063 4.036-16.704l2.196-2.4 3.78.408zm8.581-1.059c-3.292.611-5.876-2.099-4.625-6.092-4.533 2.917.238 10.016 4.625 6.092z"></path><path d="M99.65 231.578c-5.702-1.252-11.187 2.624-15.835 4.801 1.464.334 2.929 1.032 4.393 2.452.27 1.398.192 2.189-.613 4.393 5.51-1.783 11.03-3.346 15.018-6.742-2.024-.733-2.792-2.676-2.962-4.904z" fill="#bf0a30" stroke="#000" stroke-width="1.734"></path><path d="M97.505 253.952c-1.352 1.505-2.668 3.238-2.605 5.261.058 1.857-.122 3.32-.664 4.75.851-.64 2.36-2.64 2.452-4.801.105-2.487.146-3.204.817-5.21zM86.267 220.85c-5.887-.463-9.905 2.319-10.625 10.83 3.58-3.073 7.203-5.942 11.851-3.678l-1.226-7.152z"></path><path d="M86.37 220.442c1.362-.168 4.126-.08 6.027 1.634l.204-1.94c3.372 1.469 7.668 1.505 9.4 6.13 1.205 3.218-.689 5.307-2.555 7.048-5.938 1.1-9.535-1.702-13.996-3.065l3.167-1.123c-1.6-.01-3.201-.586-4.802-1.124 1.226-1.071 2.452-1.195 3.678-3.474.276-1.362-.32-2.724-1.124-4.086z" fill="#bf0a30" stroke="#000" stroke-width="1.734"></path><path d="M102.648 236.17c-1.238 1.6-2.422 3.427-2.21 5.44.195 1.847.124 3.32-.311 4.786.802-.701 2.16-2.808 2.09-4.97-.079-2.488-.09-3.205.43-5.256zm-11.801 43.187c1.063-1.428 2.506-3.559 2.312-5.346-.315-2.901.724-4.547 1.517-7.08-1.475 1.347-2.894 3.487-3.612 5.78l.65 1.083c1.035 1.724-.407 3.751-.867 5.563zm6.79-26.133c-.067-.455-.067-.94.128-1.364.405-.777.868-.918 1.358-.665.243.126.05.665-.088.915-.2.364-.354.52-.693.707-.278.092-.457.246-.705.407zm2.256-5.116c.186.283.18 1.106.017 1.622-.087.259-.219.518-.426.629-.153.086-.349.096-.483-.048-.16-.343-.044-.649.023-1.01.103-.34.304-.62.545-.803.116-.118.26-.489.324-.39zm-5.759-21.332c-2.121-.612-4.758.136-6.386.562.946 1.098 1.95 2.196 3.832 3.422-2.24-4.016.678-3.198 2.554-3.984z"></path></g><path style="text-align:center;line-height:125%;-inkscape-font-specification:Swis721 BT Bold" d="m311.856 219.04-20.105-12.914 9.013-14.031 3.494 2.244-6.391 9.95 4.559 2.928 5.602-8.721 3.494 2.244-5.602 8.722 8.558 5.497-2.622 4.08zm5.501-27.98c1.83 1.886 3.671 2.944 5.522 3.174 1.851.23 3.53-.385 5.035-1.846 1.522-1.476 2.199-3.147 2.032-5.011-.168-1.865-1.166-3.74-2.996-5.626-1.83-1.886-3.675-2.94-5.534-3.164-1.859-.222-3.549.404-5.07 1.88-1.506 1.462-2.173 3.119-2.002 4.972.171 1.854 1.175 3.727 3.013 5.62zm-3.597 3.49c-2.689-2.77-4.067-5.7-4.136-8.792-.068-3.09 1.178-5.878 3.74-8.364 2.56-2.485 5.39-3.65 8.49-3.492 3.098.157 5.988 1.617 8.67 4.38 2.68 2.763 4.054 5.696 4.118 8.798.064 3.102-1.184 5.896-3.745 8.381-2.561 2.486-5.387 3.646-8.478 3.481-3.091-.165-5.978-1.628-8.659-4.391zm25.987-24.003 5.008-2.876c1.088-.625 1.761-1.304 2.02-2.039.257-.734.114-1.575-.43-2.522-.517-.9-1.157-1.44-1.92-1.619-.764-.178-1.639.015-2.623.58l-5.205 2.99 3.15 5.486zm2.435 14.11-11.9-20.722 10.044-5.768c2.26-1.298 4.212-1.776 5.855-1.435 1.642.341 3.034 1.506 4.176 3.494.727 1.266 1.068 2.474 1.023 3.622-.045 1.148-.476 2.163-1.292 3.043 1.083-.198 2.003-.078 2.76.36.757.439 1.562 1.336 2.415 2.691l1.49 2.4.049.084c.739 1.222 1.437 1.818 2.094 1.79l.364.633-4.67 2.682c-.318-.204-.639-.497-.963-.878a11.76 11.76 0 0 1-1.025-1.441l-1.308-2.149c-.785-1.257-1.524-1.986-2.219-2.186-.695-.2-1.61.026-2.744.678l-4.516 2.593 4.63 8.06-4.263 2.449zm25.698-12.647-5.85-18.736-6.767 2.113-1.271-4.073 18.179-5.676 1.271 4.073-6.72 2.098 5.85 18.737-4.692 1.464zm28.332-5.53-5.744-24.184 5.088.234 3.312 17.024 4.223-16.679 5.235.24 2.68 16.995 4.855-16.65 5.04.232-7.917 23.557-4.683-.215-2.857-18.449-4.549 18.11-4.683-.215zm40.672-12.992-6.301 8.643 6.307 2.058-.006-10.7zm-1.23-5.435 5.398 1.761.776 25.389-4.904-1.6-.017-5.176-8.806-2.874-3.02 4.185-4.92-1.605 15.493-20.08zm17.514 33.984-4.231-2.502 4.533-7.666.158-17.32 5.18 3.063-.844 11.468 9.307-6.464 4.831 2.856-14.401 8.898-4.533 7.667zm8.49 5.421 16.463-17.318 3.727 3.543-4.28 18.582 11.31-11.899 3.516 3.342-16.463 17.319-3.68-3.499 4.233-18.626-11.311 11.898-3.516-3.342zm17.371 17.54 19.987-13.096 9.504 14.505-3.474 2.276-6.845-10.448-4.261 2.792 6.259 9.552-3.42 2.24-6.258-9.552-5.143 3.37 7.165 10.936-3.69 2.418-9.824-14.994zM322.304 363.244l14.62-18.9 3.887 3.007-14.62 18.9-3.887-3.007zm11.922 8.935 11.013-21.206 4.564 2.37 1.042 19.04 7.567-14.569 4.304 2.236-11.013 21.206-4.506-2.34-1.1-19.07-7.567 14.568-4.304-2.235zm32.426 9.497 3.828.944c2.215.546 3.962.361 5.24-.555 1.279-.915 2.239-2.675 2.881-5.279.64-2.594.647-4.613.024-6.06-.624-1.445-1.918-2.41-3.881-2.894l-4.41-1.087-3.682 14.93zm-5.71 3.036 5.72-23.2 9.088 2.24c3.56.878 5.976 2.493 7.25 4.846 1.275 2.353 1.431 5.482.468 9.388-.523 2.121-1.307 3.91-2.351 5.368-1.045 1.458-2.303 2.529-3.775 3.213a8.913 8.913 0 0 1-3.54.806c-1.255.03-2.943-.216-5.064-.739l-7.797-1.922zm28.574 5.48 1.527-23.846 4.905.314-1.527 23.846-4.905-.314zm21.685-19.287-2.212 10.465 6.598-.704-4.386-9.761zm-3.347-4.456 5.646-.602 11.1 22.847-5.13.547-2.134-4.716-9.21.983-1.044 5.054-5.145.55 5.917-24.663zm23.887 20.458-7.917-22.546 4.852-1.704 14.592 12.275-5.44-15.489 4.577-1.607 7.918 22.545-4.791 1.683-14.654-12.254 5.44 15.49-4.577 1.607zm24.59-31.832 2.692 10.353 5.59-3.574-8.281-6.779zm-4.983-2.493 4.784-3.059 20.129 15.492-4.346 2.779-4.015-3.268-7.804 4.99 1.322 4.989-4.36 2.787-5.71-24.71z" font-size="33.223" font-weight="700" text-anchor="middle" fill="#002868" font-family="Swis721 BT"></path><path style="text-align:center;line-height:125%;-inkscape-font-specification:Swis721 BT Bold" d="M316.957 281.696v-20.543h-7.176v-4.218h.462c2.616 0 4.522-.405 5.718-1.217 1.196-.811 1.899-2.168 2.108-4.07h4.806v30.048h-5.918zm21.463 0h-6.274c.223-4.099 1.213-8.162 2.969-12.191 1.755-4.03 4.263-7.988 7.522-11.877h-14.772v-5.12h21.298v4.511c-3.301 3.638-5.837 7.485-7.606 11.541-1.77 4.057-2.816 8.436-3.137 13.136z" font-size="42.975" font-weight="700" text-anchor="middle" fill="#002868" font-family="Swis721 BT"></path><path d="M454.021 346.737v-49.478h-31.094V281.55h14.923v-40.839h8.735l-34.577-25.132v-31.022h9.463L400 169.637l-21.471 14.921h9.463v31.022l-34.577 25.132h8.735v40.84h14.923v15.707h-31.094v49.478h108.042z" fill="#bf0a30" fill-rule="evenodd"></path><path style="text-align:center;line-height:125%;-inkscape-font-specification:Swis721 BT Bold" d="M462.175 262.097c0-1.72-.43-3.08-1.29-4.08-.861-1.001-2.033-1.501-3.515-1.501-1.4 0-2.487.482-3.263 1.448-.777.965-1.165 2.315-1.165 4.05 0 1.622.406 2.888 1.217 3.798.811.909 1.951 1.363 3.42 1.363 1.441 0 2.567-.447 3.379-1.342.811-.896 1.217-2.14 1.217-3.736zm.105 7.827a6.75 6.75 0 0 1-2.476 1.574c-.952.35-2.022.525-3.21.525-2.953 0-5.317-.889-7.093-2.665-1.777-1.777-2.665-4.155-2.665-7.135 0-3.161.965-5.714 2.895-7.659 1.93-1.944 4.477-2.916 7.639-2.916 3.665 0 6.452 1.262 8.362 3.787 1.909 2.525 2.864 6.208 2.864 11.048 0 5.204-1.021 9.19-3.064 11.96-2.042 2.77-4.98 4.156-8.813 4.156-2.644 0-4.777-.69-6.4-2.067-1.623-1.378-2.511-3.256-2.665-5.635l6.064.021c.14.966.518 1.686 1.133 2.162.616.475 1.483.713 2.602.713 1.511 0 2.665-.657 3.463-1.972.797-1.315 1.252-3.28 1.364-5.897zm21.529.65v-12.862l-8.163 12.863h8.163zm-.126 11.122v-6.484H471.01v-5.288l11.08-17.416h7.449v17.92h3.483v4.784h-3.483v6.484h-5.855z" font-size="42.975" font-weight="700" text-anchor="middle" fill="#002868" font-family="Swis721 BT"></path></svg>