<svg xmlns="http://www.w3.org/2000/svg" width="502.834" height="301.046" xmlns:cgf="https://coding.garden/flags"><metadata id="cgf-metadata">

<cgf:flag>
  <cgf:name>Lafayette</cgf:name>
  <cgf:route>us/in/lafayette</cgf:route>
  <cgf:aspect-ratio>1.6677740863787376</cgf:aspect-ratio>
</cgf:flag>

</metadata><path fill="#FFF" d="M0 .663h502.834v300.384H0z"></path><path fill="#0000A0" d="M204.821 285.431s1.325-33.775 49.007-33.113 158.277 43.047 249.006-7.284v-141.06l-99.337 5.96s1.325 9.272-36.424 8.609-109.935-13.908-143.709-13.908c-33.775 0-92.053 7.947-137.086 80.132"></path><path d="M2.172 115.894v184.769h228.477zM300.192.663h202.642v213.245L298.198 0" fill="#F00000"></path><path fill="#E6AC00" d="m125.5 4.546 27 76H238l-69 48 27.5 78-71-47.5-69.5 46.5 26-76.5-69.5-49H99z"></path></svg>