<svg xmlns="http://www.w3.org/2000/svg" width="800" height="421.05" version="1" xmlns:cgf="https://coding.garden/flags"><metadata id="cgf-metadata">

<cgf:flag>
  <cgf:name>Birmingham</cgf:name>
  <cgf:route>us/al/birmingham</cgf:route>
  <cgf:aspect-ratio>1.9002375296912113</cgf:aspect-ratio>
</cgf:flag>

</metadata><path fill="#c70f2e" d="M0-.001h800V421.05H0z"></path><path fill="#fff" d="M213-.001h374V421.05H213z"></path><path d="m400 94.267 26.103 80.327 84.463.004-68.33 49.648 26.098 80.33L400 254.932l-68.334 49.644 26.098-80.33-68.33-49.648 84.463-.004L400 94.267z" fill="#c70f2e"></path><path d="M400 171.281c-2.257 0-4.502.174-6.688.594l-2.343 7.688a32.09 32.09 0 0 0-9.531 4.593l-7.5-2.969c-1.691 1.447-3.218 3.11-4.625 4.875-1.408 1.765-2.654 3.593-3.688 5.563l4.531 6.625a32.151 32.151 0 0 0-2.344 10.375l-7 4c.078 2.224.404 4.425.907 6.625.502 2.2 1.167 4.338 2.062 6.375l8.031.563a32.38 32.38 0 0 0 6.625 8.343l-1.218 7.938c1.787 1.326 3.716 2.427 5.75 3.406 2.033.98 4.13 1.805 6.281 2.375l5.438-5.906a32.401 32.401 0 0 0 10.625 0l5.437 5.906c2.151-.57 4.248-1.396 6.281-2.375 2.034-.98 3.963-2.08 5.75-3.406l-1.219-7.938a32.38 32.38 0 0 0 6.625-8.344l8.032-.562c.895-2.037 1.56-4.175 2.062-6.375.503-2.2.83-4.401.906-6.625l-7-4a32.151 32.151 0 0 0-2.343-10.375l4.531-6.625c-1.034-1.97-2.28-3.798-3.688-5.563-1.407-1.764-2.934-3.428-4.625-4.875l-7.5 2.97a32.09 32.09 0 0 0-9.53-4.595l-2.344-7.687c-2.186-.42-4.43-.594-6.688-.594z" fill="#a69439" fill-rule="evenodd"></path><path d="M423.698 210.522a23.698 23.698 0 1 1-47.396 0 23.698 23.698 0 1 1 47.396 0z" fill="#a69439"></path><path d="M381.084 207.455c-.182-.352-.042-.575.161-.774.15-.429.089-.98.934-1.007.491-.326.94-.295 1.314.35.445.188.902 1.006.32 1.43.113.59-.258 1.267-.729 1.008-.35.273-1.21.43-1.357-.38-.612-.035-.642-.325-.643-.627z" fill-rule="evenodd" stroke="#000" stroke-width=".271"></path><path d="M382.923 207.316a.372.372 0 1 1-.744 0 .372.372 0 1 1 .744 0zm1.139.204a.474.474 0 1 1-.949 0 .474.474 0 1 1 .949 0z" fill="#a69439" stroke="#000" stroke-width=".271" stroke-linecap="round"></path><path d="M379.581 208.352c.287-.432.69-.648 1.416-.41.303-.578 1.612-.862 2 .395.515-.645 1.222-.673 1.532-.158.337-.907 1.309-1.347 2.014-.931v3.424h-6.947l-.015-2.32z" fill="#a69439" fill-rule="evenodd" stroke="#000" stroke-width=".271"></path><path d="m378.311 210.682 9.225.015c-.215-.897-1.15-1.244-2.044-.935-.224-.507-1.425-.724-1.956-.292-.554-.833-1.109-.651-1.663-.584-.22-.416-1.051-.584-1.577.146-.605-1.116-1.38-1.137-1.985-.76v2.41z" fill="#a69439" fill-rule="evenodd" stroke="#000" stroke-width=".271"></path><path d="m386.047 204.098.613-.934h1.49l.539.905-2.642.029zm10.231 1.795.715-.934h1.737l.628.905-3.08.03z" fill="#a69439" fill-rule="evenodd" stroke="#000" stroke-width=".271" stroke-linejoin="round"></path><path fill="#a69439" stroke="#000" stroke-width=".271" stroke-linecap="round" d="M396.278 205.937h1.328v4.743h-1.328z"></path><path fill="#a69439" stroke="#000" stroke-width=".271" stroke-linecap="round" d="M397.008 205.937h2.38v4.743h-2.38z"></path><path d="m398.263 206.856-.876.993v2.86h3.927v-3.867l-3.05.014z" fill="#a69439" fill-rule="evenodd" stroke="#000" stroke-width=".271"></path><path d="M401.124 207.834h-1.774l-.897-.963h2.617l.054.963zm-.029-2.824c.022-1.44.879-1.999 1.693-2.036.96-.044 1.495.657 1.474 2.087l-3.167-.05z" fill-rule="evenodd" stroke="#000" stroke-width=".271"></path><path d="M402.89 210.636v-5.632c0-1.188-.497-1.646-.89-1.665-.424-.02-.905.73-.905 1.665v5.662l1.795-.03z" fill="#a69439" fill-rule="evenodd" stroke="#000" stroke-width=".271"></path><path d="M404.262 210.636v-5.632c0-1.188-.384-1.646-.688-1.665-.327-.02-.699.73-.699 1.665v5.662l1.387-.03z" fill="#a69439" fill-rule="evenodd" stroke="#000" stroke-width=".271"></path><path d="M404.218 205.09h-3.007m2.863-.788h-2.859m1.587 2.073h-.656m.613 1.225h-.57m2.058-1.225h-.656m.613 1.225h-.57" fill="none" stroke="#000" stroke-width=".271"></path><path d="M419.324 208.024h.424v1.824h-.424z"></path><path d="M408.31 210.667v-7.555l1.776-.454.536.392v7.596l-2.311.02z" fill-rule="evenodd" stroke="#000" stroke-width=".271"></path><path fill="#a69439" stroke="#000" stroke-width=".271" stroke-linecap="round" d="M404.058 199.281h2.51v11.443h-2.51z"></path><path d="M405.02 200.712v2.18m.497-1.503v3.76m.555-4.933v1.196" fill="none" stroke="#000" stroke-width=".271"></path><path d="m406.1 198.8-.32-.482h-1.314l-.405.69-.003.288 2.48-.044.015-.423-.452-.03z" fill-rule="evenodd" stroke="#000" stroke-width=".271"></path><path d="M405.02 204.915v2.181" fill="none" stroke="#000" stroke-width=".271"></path><path fill="#a69439" stroke="#000" stroke-width=".271" stroke-linecap="round" stroke-linejoin="round" d="M406.1 207.396h2.511v3.328h-2.51zm.351-.853h1.832l.328.846h-2.51l.35-.846z"></path><path d="m406.079 207.47-1.992 2.35v.875h2.029l-.037-3.226z" fill-rule="evenodd"></path><path d="M402.525 209.389h1.832l.328 1.313h-2.51l.35-1.313z" fill="#a69439" stroke="#000" stroke-width=".271" stroke-linecap="round" stroke-linejoin="round"></path><path d="M415.194 210.739v-.763c-.264-.5-.567-.952-1.5-.62-.33-.881-.712-.728-1.084-.763v2.087l2.584.059z" fill="#a69439" fill-rule="evenodd" stroke="#000" stroke-width=".271"></path><path fill="#a69439" stroke="#000" stroke-width=".271" stroke-linecap="round" d="M410.437 206.91h2.29v3.798h-2.29z"></path><path d="m410.52 210.687-.022-2.662-.928-.93-1.074.909v2.704l2.023-.02z" fill="#a69439" fill-rule="evenodd" stroke="#000" stroke-width=".271"></path><path d="M406.762 210.728v-1.01l1.755-1.859v2.828l-1.755.041z" fill-rule="evenodd"></path><path d="M406.305 210.695c.193-.55 1.008-1.572 2.657-.788.811-.42 1.617-.87 2.656 0 .81-.059 1.72-.417 2.306.788h-7.619z" fill="#a69439" fill-rule="evenodd" stroke="#000" stroke-width=".271"></path><path d="M415.658 207.85v1.036h-.057l-.546.728v.673h-1.175v.538h6.22v-.538h-2.19v-.644l.568-.757h-.213v-1.037h-.316v1.037h-.056l-.547.728v.673h-.618v-.644l.567-.757h-.213v-1.037h-.316v1.037h-.056l-.547.728v.673h-.544v-.644l.567-.757h-.213v-1.037h-.315z" fill-rule="evenodd"></path><path d="M421.616 208.564c-.466-.104-1.998.087-2.029.934-.391-.075-.999.252-1.036 1.066h3.123l-.058-2z" fill="#a69439" fill-rule="evenodd" stroke="#000" stroke-width=".271"></path><path d="M415.75 207.148c.155-.604.22-1.741.115-2.408-.144-.906-.27-1.378-.308-2.233-.052-1.196.218-1.791.387-2.408-.075.747-.256 1.46-.125 2.306.15.973.377 1.929.353 3.006-.015.704-.266 1.173-.421 1.737zm1.124 0c.155-.527.22-1.518.114-2.099-.143-.79-.27-1.2-.307-1.946-.052-1.042.218-1.562.387-2.1-.075.652-.256 1.273-.125 2.01.15.849.377 1.682.353 2.621-.015.614-.267 1.023-.422 1.514zm1.197 0c.155-.361.22-1.042.114-1.44-.144-.543-.27-.825-.307-1.337-.052-.715.218-1.072.387-1.44-.076.446-.256.873-.125 1.38.15.581.376 1.153.353 1.798-.015.421-.267.702-.422 1.04z" fill-rule="evenodd"></path><path d="M399.781 207.732v1.708m.672-1.547v.963" fill="none" stroke="#000" stroke-width=".271"></path><path d="M394.98 209.002h3.064l-.408-.628h-2.613l-.044.628z" fill-rule="evenodd" stroke="#000" stroke-width=".271"></path><path fill="#a69439" stroke="#000" stroke-width=".271" stroke-linecap="round" d="M394.731 209.06h3.299v1.606h-3.299z"></path><path fill="#a69439" stroke="#000" stroke-width=".271" stroke-linecap="round" d="M396.512 209.848h3.838v.89h-3.838zm-10.436-5.75h2.598v6.587h-2.598z"></path><path d="M387.915 203.587v-1.678m.263 2.261v6.233m-.496-6.233v6.233" fill="none" stroke="#000" stroke-width=".271"></path><path d="m390.396 210.672-9.224.015c.214-.894 1.15-1.24 2.043-.931.224-.506 1.426-.722 1.956-.291.555-.83 1.11-.65 1.664-.582.219-.415 1.05-.582 1.576.145.606-1.112 1.381-1.132 1.985-.757v2.401z" fill="#a69439" fill-rule="evenodd" stroke="#000" stroke-width=".271"></path><path d="M382.15 206.616a.474.474 0 1 1-.949 0 .474.474 0 1 1 .949 0zm1.27-.117a.372.372 0 1 1-.745 0 .372.372 0 1 1 .745 0z" fill="#a69439" stroke="#000" stroke-width=".271" stroke-linecap="round"></path><path d="M422.14 210.522h-44.272l-.364 2.794 3.5 9.409 5.616 6.345 6.2 3.501 11.524.948 8.898-5.032 6.126-6.856 3.063-7.877-.291-3.232z" fill="#a69439" fill-rule="evenodd" stroke="#000" stroke-width=".271"></path><path d="M377.139 216.525 400 210.522l-22.788 6.952-.073-.949zm2.663 6.273L400 210.522l-19.858 13.164-.34-.888zm4.341 5.252L400 210.522l-15.277 18.282-.58-.754zm5.66 3.795L400 210.522l-9.427 21.88-.77-.557zm6.507 2.023 3.69-23.346-2.793 23.66-.897-.314zm26.551-17.343L400 210.522l22.788 6.952.073-.949zm-2.663 6.273L400 210.522l19.858 13.164.34-.888zm-4.341 5.252L400 210.522l15.277 18.282.58-.754zm-5.66 3.795L400 210.522l9.427 21.88.77-.557zm-6.507 2.023L400 210.522l2.793 23.66.897-.314z" fill-rule="evenodd"></path><path d="M407.59 230.924c-.114-.908-.114-1.909-1.43-1.839-.628-1.07-1.495-1.448-2.745-.73-.171-.617-.626-.87-1.342-.788-.412-.736-.548-1.765-2.219-1.167-.298-.812-.713-1.473-1.78-1.285-.209-.82-1.478-1.316-2.307-.38l-5.78-2.539c-1.156-.414-1.653.114-1.722 1.255-.735-.461-1.748-.313-2.218.789-2.118-.538-1.992.428-2.569.992l3.357 3.386 5.78 3.065 5.546.847 5.955.029 3.474-1.635z" fill="#a69439" fill-rule="evenodd" stroke="#000" stroke-width=".271"></path><path d="M395.592 226.05c.793-.699 1.826-.29 1.84.612 1.116-1.01 2.594-.308 2.743.467" fill="none" stroke="#000" stroke-width=".271" stroke-linecap="round"></path><path d="M385.084 226.137c.422-.692.957-1.16 2.072-.467.394-1.73 2.738-1.804 3.24-.934" fill="none" stroke="#000" stroke-width=".271"></path><path d="m389.63 212.246-.536 16.977h7.513l-.526-16.998-1.476.155h-3.344l-1.63-.134z" fill="#a69439" fill-rule="evenodd" stroke="#000" stroke-width=".271"></path><path d="M392.302 204.687v5.688h3.638l.007-.414-.724-.302c-.021-.284.01-.567.038-.851.236-.287.116-.472 0-.658l.059-2.747-.968-.62-2.05-.096z" fill-rule="evenodd"></path><path d="M394.754 207.815c.112.062.112.041.148.157.03.094.015.222-.063.29-.114.124-.212.09-.405.077-.338-.001-.477.057-.434-.302a.29.29 0 0 1 .04-.15c.05-.133.16-.106.287-.142.155-.033.279.008.427.07zm-.447 1.046c.1.01.202.015.299.045.06.03.134.051.163.117.014.074-.023.088-.028.163-.018.17-.237.11-.362.11a.4.4 0 0 1-.23-.052c-.092-.061-.12-.116-.084-.217.031-.102.138-.167.242-.166z" fill="#a69439" fill-rule="evenodd"></path><path d="m392.263 200.819-1.238.018c-.046.412-.208.678-.097 1.277.06.325-.287.437-.754.677-.351.18-.263.546-.194.793-.136.237-.227.59.02.639.307.06.572.256.348.967h2.012l-.097-4.371z" fill-rule="evenodd"></path><path d="M391.195 203.578c.122 0 .227.03.234.192.01.227.065.29-.162.413-.197.106-.206.078-.393.003-.07-.03-.257-.078-.282-.158-.05-.164-.117-.181.026-.308a.51.51 0 0 1 .354-.135c.07.003.15-.007.223-.007z" fill="#a69439" fill-rule="evenodd"></path><path d="m395.494 200.207-.71.876-.148 1.752c.29.382.537.777.574 1.231a1.54 1.54 0 0 0 .685-.82c-.042-.413-.1-.813-.318-1.086.23-.191.384-.433.465-.667-.054-.531-.135-1.041-.548-1.286z" fill="#a69439" fill-rule="evenodd" stroke="#000" stroke-width=".272"></path><path d="M400.528 192.258c-.63.174-1.13.024-1.508-.439l1.016-1.709c.206-.108.4-.134.554.088l-.062 2.06z" fill-rule="evenodd"></path><path d="M395.178 205.663c.095-1.21.182-2.338.039-3.692.08-.28.192-.545.175-.874.033-.463.111-.903.35-1.263.053-.292.055-.583-.097-.875-.081-.641-.038-1.283-.02-1.924.233-.116.466-.266.7-.777.79-.415 1.168-.83 1.67-1.244.763-.563 1.166-1.127 1.575-1.69.513-.298.482-.849.486-1.147.238-.276.424-.748-.04-.563-.382.361-.908.528-.97 1.282-.486.418-1.168.67-1.458 1.186-.807.254-1.35.64-1.963.99-.955.102-1.194.475-1.593.622l-.195-.447c.305-.187.377-.55.447-.738a4.028 4.028 0 0 0-.738-1.496c-.383-.248-.849-.549-1.322-.311-.914.46-.875.806-.874 1.243 0 .437.472.639.737 1.296-.055.387-.131.76-.29 1.095-.418.057-.922.31-1.186 1.068-.142.412-.267.878-.447 1.322-.154.383-.35.77-.388 1.263-.046.585.096 1.06 1.166 1.458.343.07.53-.117.563-.564l-.505-.758c.159-.44.347-.88.408-1.321l.416.117c.058.132.12.353.234.563.143.265.29.526.158.855-.163.407-.49.916-.38 1.205-.237 1.097.082 1.5.388 1.71-.013.453-.103 1.004.04 1.613.356.034.792.067 1.301 0 .138.317.264.634.603.952.405.12.706-.023 1.01-.156z" fill="#a69439" fill-rule="evenodd" stroke="#000" stroke-width=".272"></path><path d="M394.018 195.618c-.32 1.082-.723 2.064-1.744 3.146m2.134-3.261c-.086.948-.558 2.17-1.402 3.119" fill="none" stroke="#000" stroke-width=".218"></path><path d="M392.573 192.686a.567.567 0 0 0-.302.08 1.521 1.521 0 0 0-.779.669c-.066.205-.126.414-.032.709l.464.618.206.46-.05.52c-.085.222-.165.461-.228.63-.252.04-.682.195-.859.504.398-.365 1.072-.18 1.299.138.293.414.55.692.797.783l.453-.81c-.405.1-.798-.083-1.054-.425a.781.781 0 0 1-.14-.437c.016-.934.186-1.555.452-1.758.15.194.354.202.59.103-.226-.112-.386-.43-.248-.676.14-.248.289-.453.695-.276l-.308-.453-.381-.244c-.2-.073-.396-.136-.575-.135zm.017.16c.185 0 .382.072.463.251-.075.287-.836 1.013-1.276.977-.18-.014-.236-.146-.177-.47.058-.324.577-.667.813-.735a.69.69 0 0 1 .177-.022zm3.159 3.982c-.233.14-.479.196-.725.248.161.05.307.118.544.086l.18-.334z" fill-rule="evenodd"></path><path d="M395.713 199.061c-.59-.613-1.147-.68-1.539-.577-.333.088-.603.227-.934.152-.358-.082-1.14.056-1.377.411m.017 2.515c.49-.154.545-.484.893-.687.275-.16.7-.314.99-.027.34.338.689 1.014 1.442 1.072" fill="none" stroke="#000" stroke-width=".218"></path><path d="M393.838 197.371c-.058.265-.047.43.137.462.157-.185.459-.268.836-.233-.481.222-.893.9-.437.912-.461.242-.795.85-.584 1.429.098.27.06.55-.151.824-.216-.145-.431-.053-.646 0 .014-.288.041-.566.15-.838.117-.287.158-.614.042-.88l-.192-.439c.343-.34.593-.786.845-1.237zm-1.464 7.471c-.026-1.06.377-1.467.715-1.452.87.303 1-.066 1.341-.243-1.108.018-1.452-.751-1.244-1.74-.092.447-.392.594-.116 1.584-.37.259-.953.058-1.108-.194l.204.457.208 1.588z" fill-rule="evenodd"></path><path d="M393.575 204.896c-.136-.499-.083-1.027-.068-1.526" fill="none" stroke="#000" stroke-width=".218"></path><path d="M391.124 197.88c.108-.222.188-.541.467-.522.298.02.193.185.22.37-.37-.342-.48.104-.687.152zm2.604-1.518c-.199-.107-.374-1.078-.356-1.276.14.055.438.053.59-.147.091-.122.166-.167.186-.313l.063.01-.145.354-.258.248.178.413-.258.71z" fill-rule="evenodd"></path><path d="m389.864 205.075 1.323-.175v5.455h-1.323v-5.28z" fill="#a69439" stroke="#000" stroke-width=".272" stroke-linecap="round"></path><path d="m391.16 204.9 1.645.146v5.31h-1.645V204.9z" fill="#a69439" stroke="#000" stroke-width=".272" stroke-linecap="round"></path><path d="M389.052 209.833h6.577l.237.091c.319.123.458.448.479.663h-7.293v-.754z"></path><path d="M389.462 210.535h6.84v1.654l-1.635.206h-3.581l-1.624-.185v-1.675z" fill="#a69439" stroke="#000" stroke-width=".272" stroke-linecap="round"></path><path d="M394.684 210.535v1.86" fill="none" stroke="#000" stroke-width=".272"></path><path d="m394.53 212.404.176 16.762" fill="none" stroke="#000" stroke-width=".271"></path><path d="m389.63 212.235-.536 16.988h1.981l.186-16.843-1.63-.145z" fill-rule="evenodd"></path><path d="M389.448 210.52h1.634v1.853l-1.634-.165v-1.688z" stroke="#000" stroke-width=".271"></path><path d="M390.075 220.328h5.371l2.11-.657v.963l-2.11.657h-5.37v-.963z" fill="#a69439" stroke="#000" stroke-width=".271"></path><path d="m390.075 220.328-2.109-.657v.963l2.11.657v-.963z" stroke="#000" stroke-width=".271"></path><path d="M395.436 220.337v.95" fill="none" stroke="#000" stroke-width=".271"></path><path d="m389.39 219.504 1.78.423h3.43l1.678-.467v-.256l1.285.453-2.146.671h-5.356l-2.088-.671 1.445-.555-.029.402z" fill="#a69439" fill-rule="evenodd" stroke="#000" stroke-width=".271" stroke-linejoin="round"></path><path d="M391.82 217.81v2.187h.492v-1.694h1.078v1.693h.492v-2.186h-2.063z" fill="#a69439" fill-rule="evenodd" stroke="#000" stroke-width=".271"></path><path d="M391.535 213.32c.295-.005.504.088.388.496.456-.198.135-.907-.388-.496zm1.488 1.707c.295-.005.505.088.389.496.456-.198.135-.906-.389-.496zm-.927 1.786c.142-.258.328-.393.623-.089.056-.494-.718-.57-.623.09zm1.846.127c-.187.228-.394.327-.63-.025-.144.476.603.69.63.025zm-1.781-2.554c-.187.228-.394.327-.63-.025-.144.475.604.69.63.025zm1.693-1.372c-.187.228-.394.327-.63-.025-.144.475.604.69.63.025zm-.361 2.807c.193.223.255.444-.132.616.444.224.783-.476.132-.616zm-.803-2.116c.193.223.256.444-.132.616.444.223.783-.477.132-.616zm-.849 1.629c.295-.005.505.088.389.496.456-.198.135-.907-.389-.496zm-.377 1.553c.193.223.256.444-.132.615.444.224.783-.476.132-.615zm2.711-2.471c-.187-.228-.394-.328-.63.025-.144-.476.604-.69.63-.025zm1.169.597c.295-.005.505.088.389.496.456-.198.135-.907-.389-.496zm.13-1.05c-.187.227-.394.327-.63-.026-.144.476.604.69.63.026zm-.375 1.683c.192.223.255.444-.133.616.444.224.783-.476.133-.616zm.011 1.614c.295-.005.505.089.39.496.455-.198.134-.906-.39-.495zm.641 1.549c-.187-.228-.393-.327-.629.025-.144-.476.603-.69.63-.025zm.088-5.59c-.187-.228-.394-.328-.63.025-.144-.476.604-.69.63-.025zm-.231 11.222c-.295-.005-.504.089-.388.496-.456-.198-.135-.906.388-.496zm-.13-1.05c.187.228.394.328.63-.025.144.476-.603.69-.63.025zm.376 1.684c-.193.223-.256.444.132.615-.444.224-.783-.476-.132-.615zm-.012 1.615c-.295-.006-.505.087-.389.495-.456-.198-.135-.906.389-.496zm-.729-4.043c.187-.227.394-.327.63.026.144-.476-.603-.69-.63-.026zm-3.695-.366c.295-.005.504.088.389.496.455-.198.135-.906-.389-.496zm1.43 1.825c.295-.005.505.088.389.496.456-.198.135-.907-.389-.496zm-.869 1.669c.143-.258.328-.393.623-.09.056-.493-.718-.569-.623.09zm1.846.127c-.187.227-.394.327-.63-.026-.144.476.604.69.63.026zm-1.781-2.555c-.187.228-.394.328-.63-.025-.144.476.604.69.63.025zm1.781-1.401c-.187.228-.394.328-.63-.025-.144.476.604.69.63.025zm-.098 2.662c.192.223.255.444-.133.615.444.224.783-.476.133-.615zm-1.153-1.942c.192.224.255.444-.133.616.444.224.783-.476.133-.616zm-.85 1.629c.295-.005.505.089.389.496.456-.198.135-.906-.389-.496zm-.376 1.553c.192.223.255.444-.133.616.444.224.783-.476.133-.616zm2.71-2.471c-.187-.228-.393-.327-.629.025-.145-.475.603-.69.63-.025zm-1.397 3.055c.193.223.255.444-.132.616.444.224.783-.476.132-.616zm1.485.711c-.187-.228-.394-.328-.63.025-.144-.476.604-.69.63-.025zm-2.576.237c.143-.258.328-.393.624-.089.056-.494-.718-.57-.624.09z" fill-rule="evenodd"></path><path d="M403.853 231.742c.24-1.322-.325-2.507-1.547-2.16.03-.362-.058-1.188-.992-.876-.108-.545-.433-.908-.847-.993-.7-.106-1.346.121-1.43.555-.242-.183-.632-.16-.934.029-.238-1.288-1.907-1.124-2.073.117-.196-.208-.643-.092-.7.175.01-.592-.543-.801-.993-.73-.075-1.128-1.235-1.242-1.81-.613-.27-.144-.832-.108-1.167.496-.205-.644-1.705-1.187-2.248-.613-.225-.508-2.05-.876-2.16 1.08l3.05 2.294 4.665 1.403 5.16.413 4.026-.577z" fill="#a69439" fill-rule="evenodd" stroke="#000" stroke-width=".271"></path><path d="M394.322 227.852c-.353.07-.577.389-.656.679-.968-.438-2.67.138-2.482 2.189m3.036.38c.01 0 .02 0 0 0z" fill="none" stroke="#000" stroke-width=".271"></path><path d="M394.629 231.742c-.328-.99.487-2.339 2.364-1.577.483-.824 1.79-1.084 2.686-.087.602-.98 2.058-1.107 2.205.24" fill="none" stroke="#000" stroke-width=".271" stroke-linecap="round"></path><path d="m399.716 198.453-.348.013.659.608-.852.036-.298-.426-.32.013.092.362-.262.005.208.19-.064.038.013.154c.104.02.217.04.336.06l.139.117h.261l-.002-.059c.39.049.836.08 1.319.075l.449.49h.282l.015-.521c.505-.045.663-.124.862-.175v-.205c-.385-.152-.808-.192-1.247-.187l-1.242-.588z" fill-rule="evenodd"></path><path d="M400.001 181.255c-16.155 0-29.268 13.112-29.268 29.268 0 16.155 13.113 29.268 29.268 29.268 16.156 0 29.266-13.113 29.266-29.268 0-16.156-13.11-29.268-29.266-29.268zm0 8.046c11.715 0 21.222 9.507 21.222 21.222 0 11.714-9.507 21.221-21.222 21.221-11.714 0-21.224-9.507-21.224-21.221 0-11.715 9.51-21.222 21.224-21.222z" fill="#a69439" stroke="#000" stroke-width=".985" stroke-linecap="round"></path><path d="M380.62 191.286c.264-.266.573-.448.926-.545a1.945 1.945 0 0 1 1.05-.002c.348.095.662.282.941.56.425.422.641.913.649 1.472.007.56-.193 1.044-.602 1.455a1.983 1.983 0 0 1-1.954.535 2.13 2.13 0 0 1-.949-.57c-.43-.428-.648-.918-.655-1.47a1.932 1.932 0 0 1 .593-1.435zm.194.172a.904.904 0 0 0-.267.52c-.028.194.02.417.14.668.121.25.344.537.668.86.34.338.629.565.864.678.236.114.454.155.653.122a.949.949 0 0 0 .53-.28c.227-.228.31-.508.25-.84-.06-.33-.332-.737-.817-1.22-.34-.337-.623-.56-.852-.671-.229-.11-.443-.15-.642-.117a.95.95 0 0 0-.527.28zm4.432-2.031.526-.378.17.236-.525.379 1.05 1.459c.04.056.08.088.117.094.038.006.085-.011.142-.052l.362-.26.146.204-1.48 1.065-.147-.204.212-.152c.065-.047.1-.09.109-.132.008-.04-.008-.089-.046-.143l-1.05-1.458-.353.253-.17-.236.352-.254-.06-.083c-.197-.275-.319-.528-.365-.76a1.032 1.032 0 0 1 .055-.63 1.27 1.27 0 0 1 .44-.51c.196-.14.382-.202.557-.184a.56.56 0 0 1 .417.24c.08.112.114.228.1.348a.384.384 0 0 1-.16.28.37.37 0 0 1-.278.071.343.343 0 0 1-.238-.146c-.062-.086-.072-.193-.03-.32.018-.063.02-.106.003-.13-.015-.02-.038-.029-.07-.026a.314.314 0 0 0-.155.066.415.415 0 0 0-.154.213.482.482 0 0 0 0 .29c.045.151.117.295.214.43l.31.43zm2.46-1.526.565-.317.143.254-.565.317.88 1.568c.034.061.07.097.107.107.036.01.085-.001.146-.036l.389-.218.123.22-1.591.892-.123-.219.228-.128c.07-.039.11-.078.123-.118.012-.04.002-.09-.03-.147l-.88-1.568-.38.213-.142-.254.38-.213-.051-.09c-.166-.294-.258-.56-.278-.795-.02-.236.022-.442.126-.62a1.27 1.27 0 0 1 .494-.457c.21-.118.402-.158.574-.121a.56.56 0 0 1 .387.284c.068.121.088.24.06.358a.384.384 0 0 1-.19.26.37.37 0 0 1-.284.04.343.343 0 0 1-.22-.172c-.052-.092-.05-.2.005-.322.026-.06.032-.102.018-.127-.012-.022-.034-.034-.066-.035a.314.314 0 0 0-.162.048.415.415 0 0 0-.176.195.482.482 0 0 0-.033.287c.028.156.083.307.165.453l.259.461zm1.68-2.426a.426.426 0 0 1 .335-.003.422.422 0 0 1 .241.237.422.422 0 0 1 .002.337.426.426 0 0 1-.235.24.426.426 0 0 1-.34.002.423.423 0 0 1-.24-.235.422.422 0 0 1-.002-.337.429.429 0 0 1 .238-.24zm-.071 1.613 1.014-.485.837 1.976a.166.166 0 0 0 .103.101c.046.015.104.007.173-.022l.157-.067.098.232-1.397.591-.098-.231.154-.065c.083-.035.133-.08.151-.132.018-.052.007-.126-.033-.22l-.57-1.347a.28.28 0 0 0-.157-.165.307.307 0 0 0-.232.016l-.104.044-.096-.226zm5.404-.143.229.04a1.37 1.37 0 0 1-.314.771c-.179.211-.42.359-.723.442-.411.114-.763.09-1.056-.071-.292-.161-.491-.432-.596-.811-.113-.41-.07-.784.131-1.123.2-.339.526-.57.977-.695.325-.09.59-.092.799-.009.208.084.337.218.388.404a.462.462 0 0 1-.024.353.408.408 0 0 1-.266.2.365.365 0 0 1-.281-.022.333.333 0 0 1-.162-.214.61.61 0 0 1 .023-.325c.016-.055.022-.092.017-.111-.01-.035-.045-.059-.107-.072a.625.625 0 0 0-.317.018c-.229.063-.375.181-.437.355-.084.23-.072.54.036.931.108.39.251.646.431.767s.378.152.593.093a.81.81 0 0 0 .433-.303c.119-.155.194-.36.226-.618zm1.491-3.36a.426.426 0 0 1 .325.085c.098.073.155.17.172.291a.422.422 0 0 1-.086.327.426.426 0 0 1-.29.17.426.426 0 0 1-.327-.086.423.423 0 0 1-.171-.29.422.422 0 0 1 .085-.326.429.429 0 0 1 .292-.17zm-.486 1.54 1.105-.206.295 2.126a.166.166 0 0 0 .073.124c.041.027.099.034.174.024l.168-.023.035.248-1.503.209-.034-.249.166-.023c.089-.012.149-.041.18-.087.03-.046.039-.12.025-.222l-.202-1.449a.28.28 0 0 0-.108-.2.307.307 0 0 0-.228-.045l-.112.016-.034-.243zm5.711 1.866.114.194c-.11.075-.208.128-.295.157a.913.913 0 0 1-.288.044.649.649 0 0 1-.375-.098c-.095-.066-.183-.19-.262-.37-.184.181-.348.305-.494.371-.145.066-.31.1-.493.1-.254 0-.452-.058-.594-.174a.552.552 0 0 1-.215-.445c0-.272.13-.49.393-.654.21-.13.672-.26 1.384-.392v-.364a.465.465 0 0 0-.145-.352.533.533 0 0 0-.383-.135.654.654 0 0 0-.324.079c-.063.034-.094.068-.094.102 0 .018.012.045.035.081.05.081.076.161.076.24a.32.32 0 0 1-.1.245.376.376 0 0 1-.266.093.401.401 0 0 1-.286-.1.341.341 0 0 1-.109-.26c0-.175.094-.329.282-.463.236-.166.529-.249.88-.25.264 0 .5.04.704.123a.662.662 0 0 1 .32.273.89.89 0 0 1 .125.482l.002 1.282c0 .097.019.167.055.21a.183.183 0 0 0 .148.065c.052 0 .12-.029.205-.084zm-1.125-1.032c-.385.053-.645.134-.78.243a.525.525 0 0 0-.203.431c0 .126.032.223.096.29a.35.35 0 0 0 .269.1.579.579 0 0 0 .443-.192c.118-.128.177-.302.176-.524v-.348zm2.513-2.51 1.18.096-.47 3.561a.194.194 0 0 0 .04.16.261.261 0 0 0 .17.078l.158.02-.033.25-1.506-.2.032-.248.172.022c.078.01.14-.003.183-.04.044-.036.072-.098.083-.183l.387-2.925a.287.287 0 0 0-.047-.22.28.28 0 0 0-.194-.1l-.187-.025.032-.246zm7.543 2.228.36-.244.18.068-.467 1.298-.227-.087c.023-.414-.04-.755-.187-1.022a1.161 1.161 0 0 0-.614-.549c-.224-.085-.429-.093-.616-.024a.6.6 0 0 0-.376.358.528.528 0 0 0-.022.309.694.694 0 0 0 .186.318c.101.106.295.25.58.432.333.213.557.375.672.488.181.18.296.372.345.574.048.203.029.419-.059.65-.13.344-.354.574-.669.69-.38.138-.78.128-1.203-.033a1.726 1.726 0 0 1-.91-.81l-.435.256-.185-.07.525-1.382.22.083c-.08.873.218 1.437.893 1.693.276.105.514.122.716.053a.635.635 0 0 0 .41-.388.58.58 0 0 0 .026-.373.744.744 0 0 0-.23-.337c-.066-.06-.24-.18-.521-.362-.378-.247-.636-.452-.775-.616a1.05 1.05 0 0 1-.253-.503 1.068 1.068 0 0 1 .072-.56c.128-.34.348-.574.657-.702.31-.128.656-.119 1.04.027.368.14.657.394.867.765zm3.118 4.394-1.53-.898c-.174.308-.245.57-.211.784a.654.654 0 0 0 .33.487.818.818 0 0 0 .444.11c.163-.003.365-.066.606-.188l.108.204c-.269.156-.517.233-.746.234a1.4 1.4 0 0 1-.71-.216c-.357-.21-.582-.488-.675-.834-.092-.347-.039-.69.16-1.03.2-.34.478-.558.834-.656a1.27 1.27 0 0 1 1.017.138c.224.131.389.29.496.475.107.186.153.393.139.622-.015.228-.102.484-.262.768zm-1.406-1.108.728.428c.069.04.127.052.177.035.05-.017.1-.07.154-.16.105-.18.146-.343.122-.49a.454.454 0 0 0-.228-.332.441.441 0 0 0-.463-.003c-.158.086-.322.26-.49.522zm4.062 4.38-.037.221a1.205 1.205 0 0 1-.328-.068.913.913 0 0 1-.248-.15.649.649 0 0 1-.227-.315c-.031-.111-.02-.262.036-.453-.258.023-.463.014-.617-.029a1.19 1.19 0 0 1-.444-.24c-.195-.16-.31-.332-.345-.513a.552.552 0 0 1 .12-.479c.173-.21.413-.293.72-.251.245.034.683.229 1.314.583l.233-.28a.465.465 0 0 0 .114-.363.533.533 0 0 0-.208-.35.654.654 0 0 0-.3-.145c-.07-.014-.116-.008-.138.018-.011.014-.02.042-.024.085a.453.453 0 0 1-.095.233.318.318 0 0 1-.233.125.376.376 0 0 1-.265-.1.401.401 0 0 1-.156-.26.341.341 0 0 1 .083-.269c.111-.134.282-.193.513-.175.287.023.566.147.836.37.203.17.358.35.463.545a.662.662 0 0 1 .072.415.89.89 0 0 1-.213.45l-.818.987c-.062.075-.093.14-.093.197 0 .056.025.104.073.144.04.033.11.055.212.066zm-.206-1.513c-.33-.205-.581-.31-.755-.312a.525.525 0 0 0-.432.201c-.08.097-.117.192-.111.285a.352.352 0 0 0 .142.25.579.579 0 0 0 .464.135c.172-.023.33-.12.47-.29l.222-.269zm3.537-.321.846.828-2.64 2.436a.194.194 0 0 0-.07.15c0 .055.027.111.08.168l.108.117-.185.17-1.03-1.116.184-.17.118.126c.053.058.109.087.166.087.057 0 .118-.03.181-.088l2.168-2a.29.29 0 0 0 .105-.2.28.28 0 0 0-.085-.2l-.128-.14.182-.168zm-42.117 20.806.39 2.389c.062.37.021.677-.12.92a.834.834 0 0 1-.607.427.785.785 0 0 1-.628-.158c-.188-.144-.354-.378-.498-.702 0 .461-.072.8-.213 1.018a.85.85 0 0 1-.601.39.917.917 0 0 1-.624-.106c-.133-.077-.265-.227-.394-.451a2.415 2.415 0 0 1-.275-.823l-.37-2.259.248-.04.06.362c.01.062.036.106.079.132a.283.283 0 0 0 .194.033l3.05-.5a.133.133 0 0 0 .101-.077c.022-.045.025-.114.01-.208l-.05-.307.248-.04zm-1.554 1.704.073.444c.05.306.15.514.3.624.149.11.37.142.665.093.256-.041.428-.134.515-.278.088-.144.103-.393.045-.746-.028-.169-.06-.273-.098-.313-.037-.04-.096-.054-.176-.041l-1.324.217zm-.245.04-1.433.234a.274.274 0 0 0-.162.076.162.162 0 0 0-.037.14l.083.512c.041.25.142.436.302.556.16.12.373.16.637.116.277-.045.476-.156.598-.333.121-.177.158-.41.11-.702l-.098-.6zm2.879 3.381a.426.426 0 0 1-.027.335.422.422 0 0 1-.257.219.422.422 0 0 1-.336-.028.426.426 0 0 1-.218-.256.427.427 0 0 1 .028-.338.423.423 0 0 1 .256-.218.422.422 0 0 1 .336.028.43.43 0 0 1 .218.258zm-1.6-.213.393 1.053-2.042.658a.166.166 0 0 0-.11.093c-.02.045-.017.103.006.175l.052.162-.238.077-.465-1.444.239-.077.05.16c.028.085.068.14.118.162.05.022.125.018.223-.014l1.392-.448a.28.28 0 0 0 .179-.141.307.307 0 0 0 .004-.233l-.035-.108.234-.075zm-.542 4.875-.228.105-.742-1.601.228-.106.092.199c.038.081.081.133.13.156.05.023.101.022.155-.003l1.357-.629c.11-.05.178-.112.205-.185a.31.31 0 0 0-.021-.245l-.06-.13.215-.1.506.956-.747.346c.276-.058.514-.048.714.032.2.08.34.21.423.387.07.152.085.29.045.416a.446.446 0 0 1-.25.277.42.42 0 0 1-.309.032.32.32 0 0 1-.205-.177.298.298 0 0 1-.006-.243.344.344 0 0 1 .186-.19.392.392 0 0 1 .179-.031.206.206 0 0 0 .076-.009c.023-.01.037-.024.043-.04.006-.015.003-.034-.007-.057-.027-.058-.092-.107-.193-.145-.156-.06-.363-.073-.622-.043a2.43 2.43 0 0 0-.73.205l-.495.23a.196.196 0 0 0-.11.107.196.196 0 0 0 .016.15l.155.336zm3.711 5.815-.204.145-.88-1.239.205-.145.091.128c.055.077.11.121.163.13.053.01.112-.008.176-.053l.896-.636c.166-.117.264-.238.295-.363a.437.437 0 0 0-.083-.37.579.579 0 0 0-.249-.208.651.651 0 0 0-.355-.025.858.858 0 0 0-.364.143l-.808.573c-.053.037-.083.08-.09.13a.203.203 0 0 0 .043.148l.12.17-.205.145-.897-1.266.204-.145.1.14c.054.077.103.12.147.128.056.011.114-.005.175-.048l.929-.658c.148-.106.237-.224.267-.356a.44.44 0 0 0-.075-.367.573.573 0 0 0-.242-.197.682.682 0 0 0-.349-.044.666.666 0 0 0-.319.106l-.808.573c-.082.058-.127.112-.136.163-.01.066.01.136.062.207l.085.122-.204.145-.903-1.273.205-.145.103.145c.055.078.108.122.158.132.05.01.11-.01.178-.059l1.24-.879a.298.298 0 0 0 .11-.126.245.245 0 0 0 .005-.154.84.84 0 0 0-.127-.221l.198-.14.649.816a3.484 3.484 0 0 1-.41.387c.279.014.5.06.663.14.163.08.3.196.407.348a.8.8 0 0 1 .166.497.887.887 0 0 1-.206.505c.282.01.51.055.684.138.173.084.313.2.42.35.147.208.198.419.153.632-.047.214-.191.407-.433.578l-.987.7c-.067.048-.105.097-.113.148-.008.05.01.108.055.171l.095.134zm3.94-1.436a.426.426 0 0 1 .128.31.422.422 0 0 1-.13.312.422.422 0 0 1-.311.128.426.426 0 0 1-.31-.129.427.427 0 0 1-.13-.313c0-.122.044-.226.13-.311a.422.422 0 0 1 .311-.128c.122 0 .226.044.312.131zm-1.522.537.829.76-1.52 1.514a.166.166 0 0 0-.056.133c.004.049.032.1.086.153l.12.12-.178.178-1.07-1.075.177-.177.118.118c.064.064.123.094.179.091.055-.003.119-.04.192-.113l1.036-1.032a.28.28 0 0 0 .095-.207.307.307 0 0 0-.102-.21l-.08-.08.174-.173zm3.034 5.574-.152.2-1.21-.92.152-.199.126.096c.068.051.131.072.19.063.06-.01.114-.047.164-.113l.662-.873c.114-.149.166-.289.159-.42a.421.421 0 0 0-.177-.322.575.575 0 0 0-.496-.11c-.18.04-.352.168-.516.385l-.511.672c-.05.066-.072.13-.064.19.007.06.038.11.09.15l.153.116-.151.2-1.256-.954.152-.2.163.124c.064.048.124.067.183.057.058-.01.112-.048.162-.113l.91-1.198a.26.26 0 0 0 .054-.217.337.337 0 0 0-.137-.2l-.086-.066.142-.187.873.591a3.94 3.94 0 0 1-.266.493c.238-.07.454-.093.647-.071.193.022.363.09.511.202.2.152.308.339.323.56.014.22-.07.45-.25.687l-.709.933c-.054.072-.077.136-.068.193.009.056.05.112.12.166l.113.085zm3.893-.438c.312-.126.561-.14.749-.04.095.05.157.118.185.204a.324.324 0 0 1-.028.26.298.298 0 0 1-.164.152.245.245 0 0 1-.204-.017c-.093-.05-.135-.135-.123-.257.007-.074-.008-.12-.043-.139-.044-.023-.13-.008-.255.045.08.264.069.493-.033.685a.805.805 0 0 1-.336.342.932.932 0 0 1-.521.093 1.754 1.754 0 0 1-.674-.218l-.252-.14c-.19-.1-.328-.148-.415-.145-.088.002-.149.033-.18.093a.143.143 0 0 0 .002.151c.037.065.117.13.24.194l.223.109c.244.112.421.198.533.257.37.196.6.384.69.566a.576.576 0 0 1-.014.551.742.742 0 0 1-.534.405c-.291.058-.69-.047-1.198-.316-.433-.228-.71-.439-.832-.632-.122-.192-.148-.356-.076-.491a.322.322 0 0 1 .23-.163c.108-.024.298 0 .569.072a.798.798 0 0 1-.27-.35.443.443 0 0 1 .037-.36.497.497 0 0 1 .237-.231c.1-.045.243-.056.428-.033a1.032 1.032 0 0 1-.18-.459.74.74 0 0 1 .087-.433.816.816 0 0 1 .337-.345.933.933 0 0 1 .529-.093c.207.016.431.089.673.216a1.885 1.885 0 0 1 .584.467zm-.708-.264c-.11-.058-.231-.057-.364.004-.133.061-.25.188-.352.38-.099.187-.135.35-.11.49a.4.4 0 0 0 .21.299.4.4 0 0 0 .366-.002c.133-.06.249-.182.346-.366.099-.186.135-.352.11-.498a.4.4 0 0 0-.206-.307zm-.405 3.03c.05-.093.033-.19-.05-.288-.055-.068-.206-.167-.452-.297-.446-.236-.749-.357-.91-.365-.16-.007-.265.034-.313.125-.045.086-.033.184.036.295.07.111.245.24.525.389.364.192.649.289.854.29.155-.002.259-.051.31-.148zm3.007-3.452 1.15.32-.62 1.865c.243-.154.45-.246.62-.276a1.06 1.06 0 0 1 .516.042c.239.08.397.213.475.4.088.216.08.476-.021.782l-.379 1.136c-.026.079-.027.143-.003.191.023.049.07.085.137.107l.167.056-.08.238-1.446-.482.08-.238.155.052c.087.029.152.032.193.01a.255.255 0 0 0 .124-.158l.372-1.116a.577.577 0 0 0-.002-.426.442.442 0 0 0-.277-.25.56.56 0 0 0-.482.064c-.16.096-.28.26-.357.493l-.296.888c-.026.077-.027.14-.002.19.024.05.07.086.138.109l.174.058-.079.238-1.49-.496.08-.239.207.07c.073.024.135.023.186-.004a.249.249 0 0 0 .112-.15l.94-2.82a.26.26 0 0 0-.015-.219.316.316 0 0 0-.185-.14l-.171-.057.079-.238zm6.09 5.276.082.21a1.22 1.22 0 0 1-.316.108.913.913 0 0 1-.29-.002.649.649 0 0 1-.356-.156c-.084-.08-.15-.216-.2-.408-.21.151-.392.248-.546.29a1.19 1.19 0 0 1-.503.02c-.25-.04-.437-.128-.56-.266a.552.552 0 0 1-.14-.473c.042-.268.206-.463.49-.584.229-.095.705-.15 1.429-.167l.057-.36a.465.465 0 0 0-.087-.37.533.533 0 0 0-.357-.195.654.654 0 0 0-.332.027c-.067.024-.104.053-.11.086a.184.184 0 0 0 .023.086c.037.088.05.17.037.249a.318.318 0 0 1-.137.226.376.376 0 0 1-.278.05.401.401 0 0 1-.267-.145.341.341 0 0 1-.066-.274c.027-.172.144-.31.352-.412.259-.126.561-.162.908-.107.26.04.486.118.676.232a.662.662 0 0 1 .273.32.89.89 0 0 1 .046.496l-.2 1.266c-.015.096-.008.168.02.216a.183.183 0 0 0 .137.087c.052.009.124-.008.216-.05zm-.947-1.197c-.388-.008-.658.03-.81.117a.525.525 0 0 0-.268.394c-.02.124-.003.224.05.301a.352.352 0 0 0 .25.142.579.579 0 0 0 .468-.12c.136-.108.221-.271.256-.49l.054-.344zm7.177 1.244.009.25-1.519.053-.008-.251.156-.005c.095-.004.162-.025.199-.064.037-.04.055-.098.052-.177l-.038-1.098c-.007-.203-.054-.352-.14-.446a.437.437 0 0 0-.355-.134.579.579 0 0 0-.311.093.651.651 0 0 0-.216.283.858.858 0 0 0-.082.382l.035.99c.002.065.021.114.059.147a.203.203 0 0 0 .147.046l.208-.007.008.25-1.55.054-.01-.25.173-.007c.094-.003.156-.02.188-.052.04-.041.058-.099.056-.172l-.04-1.139c-.006-.181-.055-.32-.149-.418a.44.44 0 0 0-.348-.14.573.573 0 0 0-.297.094.682.682 0 0 0-.229.267.666.666 0 0 0-.087.325l.034.99c.003.1.024.168.06.203.05.045.12.066.208.063l.149-.005.008.25-1.559.054-.008-.25.178-.007c.095-.003.16-.023.196-.06.036-.035.052-.096.05-.18l-.053-1.519a.298.298 0 0 0-.045-.162.245.245 0 0 0-.126-.089.84.84 0 0 0-.254-.015l-.009-.243 1.04-.092c.045.17.078.356.097.555.165-.225.326-.384.482-.477.156-.092.328-.142.515-.148a.797.797 0 0 1 .505.135.887.887 0 0 1 .309.45c.163-.231.327-.396.492-.495.165-.1.339-.152.522-.159.256-.008.46.065.613.22.153.156.234.383.245.68l.041 1.208c.003.083.023.142.061.176.039.035.096.051.174.048l.164-.005zm1.392.873-.118-.142c.193-.168.323-.32.39-.46.068-.138.093-.251.076-.34-.01-.053-.037-.075-.082-.066l-.048.017a.448.448 0 0 1-.457-.038.461.461 0 0 1-.121-.645.47.47 0 0 1 .307-.199.53.53 0 0 1 .438.113.712.712 0 0 1 .263.45c.04.211.009.433-.097.664-.105.231-.289.447-.55.646zm4.325-6.598 2.824 2.66c.08.075.15.119.211.13.06.013.129.003.205-.03l.133-.06.102.23-1.712.76-.102-.229.16-.071c.127-.056.208-.11.243-.158.036-.05.043-.097.023-.143a.368.368 0 0 0-.086-.113l-.584-.55-1.361.606.004.368c.003.152.018.26.046.322a.355.355 0 0 0 .234.208.531.531 0 0 0 .367-.044l.116-.052.102.23-1.383.615-.102-.23.079-.034a.39.39 0 0 0 .197-.189.861.861 0 0 0 .087-.402l-.079-3.701.276-.123zm.014 1.099.035 1.647 1.16-.516-1.195-1.131zm2.114-2.076.968-.681 1.918 3.037c.034.054.08.086.134.095.054.01.115-.007.18-.048l.135-.085.134.212-1.285.812-.134-.213.146-.092c.067-.042.105-.091.116-.148.01-.056-.008-.12-.054-.194l-1.576-2.494c-.049-.078-.108-.124-.177-.139a.28.28 0 0 0-.213.047l-.16.101-.132-.21zm6.508-.242.211.077a1.205 1.205 0 0 1-.128.309.913.913 0 0 1-.193.217.649.649 0 0 1-.352.163c-.115.01-.262-.03-.439-.119-.025.257-.073.458-.143.601a1.19 1.19 0 0 1-.318.391c-.195.162-.385.243-.569.244a.552.552 0 0 1-.448-.207c-.173-.21-.211-.46-.113-.754.08-.235.352-.629.818-1.183l-.232-.28a.465.465 0 0 0-.335-.18.533.533 0 0 0-.382.139.654.654 0 0 0-.2.267c-.026.066-.029.113-.007.14.011.013.038.026.079.039.09.03.16.076.211.137a.32.32 0 0 1 .079.252.376.376 0 0 1-.146.242.401.401 0 0 1-.285.104.341.341 0 0 1-.25-.131c-.11-.135-.136-.313-.076-.537.076-.277.25-.528.52-.752a1.87 1.87 0 0 1 .621-.354.662.662 0 0 1 .421.007.89.89 0 0 1 .402.293l.818.987c.062.075.12.117.176.128a.183.183 0 0 0 .155-.045.418.418 0 0 0 .105-.195zm-1.524-.08c-.263.286-.413.514-.448.684a.525.525 0 0 0 .118.462c.08.097.167.15.259.162a.352.352 0 0 0 .271-.093.579.579 0 0 0 .22-.431c.01-.174-.057-.346-.198-.516l-.222-.268zm-.458-3.094.723-.91 1.406 1.234a1.305 1.305 0 0 1-.004-.562 1.02 1.02 0 0 1 .23-.432 1 1 0 0 1 .792-.355c.32.001.633.137.942.408.326.286.507.606.544.96a1.2 1.2 0 0 1-.312.953c-.13.147-.275.254-.437.322a1.21 1.21 0 0 1-.535.085c.039.147.059.357.06.631l-.164.06a4.964 4.964 0 0 0-.69-.74l-1.752-1.538a.725.725 0 0 0-.247-.161.238.238 0 0 0-.163.006c-.034.015-.104.082-.208.2l-.185-.161zm2.43-.17a.463.463 0 0 0-.113.291.658.658 0 0 0 .1.362c.071.125.216.283.434.474.296.26.538.404.725.432.187.028.335-.019.441-.14.11-.126.14-.293.086-.5-.053-.206-.216-.43-.491-.671-.275-.241-.513-.374-.715-.4-.201-.024-.357.026-.468.152zm4.722-3.262.225.007c.006.133-.003.245-.025.334a.913.913 0 0 1-.116.266.649.649 0 0 1-.283.265c-.106.046-.258.054-.454.025.057.252.074.457.052.615a1.19 1.19 0 0 1-.18.47c-.135.216-.29.352-.464.41a.552.552 0 0 1-.49-.056c-.23-.145-.345-.372-.344-.681.003-.248.138-.707.408-1.38l-.309-.193a.465.465 0 0 0-.374-.067.533.533 0 0 0-.32.252.654.654 0 0 0-.105.316c-.005.072.007.117.036.135.015.01.045.014.087.013a.45.45 0 0 1 .244.064.318.318 0 0 1 .154.214.376.376 0 0 1-.064.276.401.401 0 0 1-.238.189.341.341 0 0 1-.278-.048c-.147-.092-.227-.254-.24-.485-.014-.288.072-.58.258-.877.141-.224.301-.4.48-.53a.662.662 0 0 1 .402-.125.89.89 0 0 1 .474.152l1.085.682c.082.052.151.074.207.066a.183.183 0 0 0 .134-.09c.028-.045.04-.118.038-.22zm-1.472.4c-.161.354-.231.618-.212.79.02.173.106.307.256.402.107.067.206.092.297.073a.352.352 0 0 0 .229-.173.58.58 0 0 0 .074-.478c-.046-.168-.162-.31-.35-.428l-.294-.185zm3.959-6.111.234.09-.547 1.418-.234-.09.056-.146c.035-.09.041-.159.02-.208-.022-.05-.07-.09-.143-.118l-1.025-.395c-.19-.073-.345-.088-.466-.045a.437.437 0 0 0-.261.274.579.579 0 0 0-.037.323c.02.101.079.204.176.31.098.104.204.18.32.224l.924.356c.06.023.113.024.158.003a.203.203 0 0 0 .1-.117l.075-.194.234.09-.558 1.448-.234-.09.062-.162c.034-.087.042-.151.025-.192-.022-.053-.067-.093-.136-.12l-1.063-.41c-.17-.064-.317-.073-.444-.026a.44.44 0 0 0-.264.266.573.573 0 0 0-.03.31c.018.107.07.212.156.315a.666.666 0 0 0 .264.208l.924.356c.094.037.165.044.211.024a.284.284 0 0 0 .14-.166l.053-.139.234.09-.561 1.456-.234-.09.064-.167c.034-.089.042-.157.022-.204-.02-.047-.069-.085-.148-.116l-1.417-.546a.298.298 0 0 0-.167-.023.245.245 0 0 0-.13.081.84.84 0 0 0-.115.228l-.226-.087.322-.992c.175.025.358.067.549.128-.143-.24-.226-.45-.25-.63a1.064 1.064 0 0 1 .065-.532.797.797 0 0 1 .322-.413.887.887 0 0 1 .535-.107c-.149-.24-.236-.456-.263-.647a1.07 1.07 0 0 1 .059-.543c.092-.238.239-.397.441-.477.205-.08.445-.066.722.04l1.128.436c.077.03.14.034.186.012.047-.021.085-.068.112-.14l.06-.154zm.6-3.885.211-.078c.056.121.09.227.103.318a.948.948 0 0 1-.007.29.649.649 0 0 1-.162.353c-.081.083-.218.147-.411.194.147.212.24.396.28.55.04.155.043.323.011.504-.044.25-.136.435-.275.554a.552.552 0 0 1-.476.133c-.268-.047-.46-.214-.575-.501-.091-.23-.139-.707-.143-1.431l-.359-.063a.465.465 0 0 0-.371.08.533.533 0 0 0-.2.354.654.654 0 0 0 .02.332c.023.068.051.105.085.11.017.004.046-.003.086-.02a.453.453 0 0 1 .25-.032.316.316 0 0 1 .222.14c.05.077.065.17.046.28a.401.401 0 0 1-.15.264.341.341 0 0 1-.275.06c-.172-.03-.307-.15-.405-.358-.122-.261-.153-.564-.092-.91a1.87 1.87 0 0 1 .244-.672.662.662 0 0 1 .325-.267.89.89 0 0 1 .496-.038l1.263.222c.095.017.168.012.216-.016a.183.183 0 0 0 .09-.135c.009-.052-.007-.124-.047-.217zm-1.212.927c-.016.388.018.658.102.811a.525.525 0 0 0 .389.275c.124.022.224.008.302-.044a.352.352 0 0 0 .146-.247.579.579 0 0 0-.112-.47c-.105-.138-.267-.227-.485-.265l-.342-.06z" style="text-align:center;line-height:125%;-inkscape-font-specification:Century Schoolbook Bold" font-size="67.319" font-weight="700" text-anchor="middle" font-family="Century Schoolbook"></path><path d="m422.954 196.066-.846 1.015.705 1.118-1.227-.49-.846 1.015.087-1.319-1.227-.49 1.281-.325.088-1.318.704 1.118 1.281-.324zm-45.908 0 .846 1.015-.705 1.118 1.227-.49.846 1.015-.087-1.319 1.227-.49-1.281-.325-.088-1.318-.704 1.118-1.281-.324z"></path><path d="m400 77.043 1.28 3.939h4.142l-3.35 2.435 1.279 3.939L400 84.92l-3.351 2.435 1.28-3.94-3.351-2.434h4.142l1.28-3.94zm12.499.586.906 4.042 4.123.388-3.564 2.11.906 4.042-3.109-2.738-3.564 2.11 1.643-3.802-3.108-2.738 4.124.388 1.643-3.802zm12.389 1.754.523 4.11 4.07.772-3.746 1.767.522 4.109-2.838-3.017-3.746 1.767 1.992-3.632-2.838-3.016 4.069.772 1.992-3.632zm12.171 2.907.136 4.14 3.979 1.15-3.895 1.409.135 4.14-2.543-3.27-3.895 1.409 2.323-3.43-2.543-3.269 3.98 1.15 2.323-3.429zm11.844 4.034-.252 4.134 3.854 1.517-4.01 1.038-.252 4.134-2.226-3.492-4.01 1.037 2.634-3.196-2.226-3.493 3.854 1.517 2.634-3.196zm11.415 5.125-.638 4.092 3.695 1.872-4.09.658-.638 4.092-1.89-3.686-4.088.657 2.921-2.935-1.889-3.686 3.695 1.871 2.922-2.935zm10.885 6.171-1.018 4.015 3.503 2.21-4.133.271-1.019 4.015-1.536-3.847-4.133.272 3.184-2.65-1.535-3.846 3.503 2.209 3.184-2.65zm10.26 7.163-1.39 3.902 3.28 2.528-4.14-.116-1.39 3.901-1.169-3.973-4.14-.117 3.418-2.34-1.169-3.973 3.281 2.528 3.419-2.34zm9.543 8.093-1.75 3.754 3.03 2.825-4.11-.504-1.75 3.754-.792-4.065-4.111-.504 3.622-2.01-.791-4.065 3.03 2.824 3.622-2.009zm8.744 8.951-2.094 3.574 2.753 3.095-4.046-.886-2.094 3.574-.407-4.122-4.046-.886 3.794-1.662-.407-4.121 2.752 3.095 3.795-1.661zm7.867 9.73-2.419 3.362 2.45 3.34-3.945-1.261-2.419 3.362-.02-4.142-3.945-1.261 3.933-1.3-.019-4.141 2.45 3.34 3.934-1.299zm6.921 10.424-2.723 3.121 2.127 3.555-3.81-1.626-2.723 3.121.368-4.125-3.81-1.625 4.038-.925.369-4.126 2.127 3.554 4.037-.924zm5.915 11.027-3.003 2.852 1.785 3.738-3.641-1.975-3.004 2.852.753-4.073-3.64-1.975 4.106-.542.753-4.073 1.785 3.738 4.106-.542zm4.857 11.532-3.258 2.558 1.427 3.889-3.44-2.307-3.257 2.558 1.13-3.984-3.439-2.308 4.14-.155 1.13-3.985 1.427 3.889 4.14-.156zm3.755 11.935-3.483 2.243 1.057 4.005-3.21-2.62-3.482 2.243 1.5-3.861-3.21-2.62 4.136.233 1.5-3.86 1.056 4.004 4.136.233zm2.621 12.235-3.677 1.907.677 4.086-2.95-2.908-3.677 1.907 1.854-3.704-2.95-2.908 4.096.619 1.854-3.704.677 4.086 4.096.62zm1.464 12.427-3.84 1.554.291 4.132-2.664-3.172-3.84 1.554 2.193-3.514-2.664-3.171 4.02 1 2.193-3.514.291 4.131 4.02 1zm.294 12.509-3.968 1.188-.098 4.14-2.355-3.406-3.968 1.187 2.512-3.293-2.356-3.407 3.909 1.372 2.512-3.293-.097 4.14 3.909 1.372zm-.879 12.482-4.062.811-.484 4.114-2.027-3.613-4.062.81 2.81-3.043-2.026-3.612 3.763 1.731 2.81-3.043-.485 4.113 3.763 1.732zm-2.044 12.345-4.12.427-.867 4.05-1.68-3.786-4.12.426 3.083-2.767-1.679-3.786 3.584 2.076 3.082-2.767-.867 4.05 3.584 2.077zm-3.191 12.099-4.142.04-1.242 3.95-1.318-3.927-4.141.04 3.327-2.467-1.316-3.927 3.373 2.403 3.328-2.466-1.242 3.951 3.373 2.403zm-4.31 11.748-4.127-.35-1.607 3.818-.944-4.033-4.127-.35 3.544-2.143-.943-4.033 3.134 2.708 3.544-2.144-1.607 3.818 3.134 2.708zm-5.39 11.291-4.077-.734-1.957 3.65-.562-4.103-4.077-.734 3.73-1.803-.562-4.103 2.867 2.99 3.729-1.803-1.958 3.65 2.867 2.99zm-6.425 10.738-3.99-1.113-2.29 3.451-.175-4.138-3.99-1.113 3.881-1.445-.174-4.138 2.574 3.245 3.881-1.445-2.29 3.45 2.573 3.246zm-7.401 10.088-3.868-1.48-2.604 3.22.213-4.136-3.868-1.481 4-1.076.213-4.136 2.26 3.472 3.999-1.076-2.604 3.222 2.259 3.471zm-8.314 9.352-3.712-1.837-2.895 2.963.6-4.098-3.712-1.837 4.083-.696.6-4.099 1.923 3.668 4.083-.696-2.894 2.964 1.924 3.668zm-9.153 8.531-3.524-2.176-3.159 2.68.98-4.025-3.523-2.176 4.13-.311.98-4.024 1.573 3.832 4.13-.31-3.159 2.678 1.572 3.833zm-9.912 7.638-3.304-2.497-3.396 2.372 1.353-3.915-3.305-2.497 4.141.077 1.354-3.914 1.206 3.962 4.141.078-3.395 2.371 1.205 3.963zm-10.583 6.676-3.056-2.796-3.603 2.043 1.713-3.77-3.056-2.796 4.116.465 1.714-3.77.83 4.057 4.116.465-3.603 2.043.83 4.059zm-11.162 5.655-2.781-3.07-3.778 1.697 2.059-3.593-2.781-3.07 4.054.848 2.06-3.593.446 4.118 4.054.848-3.778 1.697.445 4.118zm-11.642 4.585-2.482-3.316-3.92 1.335 2.386-3.385-2.481-3.316 3.957 1.224 2.387-3.385.059 4.142 3.956 1.224-3.92 1.335.058 4.142zm-12.02 3.475-2.16-3.534-4.03.962 2.694-3.146-2.16-3.534 3.825 1.589 2.693-3.147-.33 4.129 3.826 1.59-4.029.962-.33 4.129zm-12.294 2.334-1.82-3.72-4.1.58 2.976-2.88-1.82-3.721 3.66 1.94 2.976-2.88-.715 4.08 3.66 1.94-4.102.581-.715 4.08zm-12.457 1.173-1.464-3.875-4.137.194 3.233-2.59-1.464-3.874 3.462 2.274 3.233-2.589-1.093 3.995 3.461 2.275-4.137.195-1.094 3.995z" fill="#a69439"></path><path d="M400 51.925V72.3m11.328-13.143-.984 13.444m22.902-10.182-2.931 13.158m24.141-6.739-4.816 12.591m24.865-3.153-6.598 11.756m25.059.501-8.24 10.67m24.719 4.145-9.704 9.357m23.851 7.699-10.963 7.844m22.476 11.09-11.988 6.164m20.622 14.244L530.98 166.1m18.33 17.095-13.257 2.448m15.644 19.582-13.472.493m12.627 21.651-13.4-1.475m9.339 23.259-13.042-3.41m5.854 24.371-12.407-5.272m2.242 24.963-11.507-7.022m-1.415 25.023-10.362-8.623m-5.044 24.551-8.997-10.04m-8.565 23.556-7.438-11.243m-11.903 22.057-5.723-12.206m-14.987 20.088-3.885-12.909M421.86 360.73l-1.964-13.337m3.196-293.778-2.967 20.158m25.566-15.123-5.87 19.51m27.496-11.24-8.647 18.45m28.838-7.118-11.242 16.993m29.568-2.842-13.596 15.174m29.667 1.493-15.661 13.034m29.133 5.797-17.392 10.615m27.979 9.976-18.752 7.97m26.228 13.944-19.712 5.154m23.918 17.614-20.253 2.229m21.099 20.909-20.361-.744m17.829 23.759-20.036-3.7m14.18 26.101-19.284-6.579m10.23 27.888-18.121-9.316m6.059 29.08-16.571-11.855m1.761 29.652-14.669-14.141m-2.575 29.593-12.453-16.127m-6.856 28.902-9.973-17.767m-10.992 27.596-7.279-19.03m-14.892 25.701-4.43-19.888m-18.477 23.26-1.488-20.32" fill="none" stroke="#a69439" stroke-width="1.6"></path><path d="m387.501 77.629-.906 4.042-4.123.388 3.564 2.11-.905 4.042 3.108-2.738 3.564 2.11-1.643-3.802 3.108-2.738-4.124.388-1.643-3.802zm-12.389 1.754-.523 4.11-4.07.772 3.746 1.767-.522 4.109 2.838-3.017 3.746 1.767-1.992-3.632 2.838-3.016-4.069.772-1.992-3.632zm-12.171 2.907-.136 4.14-3.979 1.15 3.895 1.409-.135 4.14 2.543-3.27 3.895 1.409-2.323-3.43 2.543-3.269-3.98 1.15-2.323-3.429zm-11.844 4.034.252 4.134-3.854 1.517 4.01 1.038.252 4.134 2.226-3.492 4.01 1.037-2.634-3.196 2.226-3.493-3.854 1.517-2.634-3.196zm-11.415 5.125.638 4.092-3.695 1.872 4.09.658.638 4.092 1.89-3.686 4.089.657-2.922-2.935 1.889-3.686-3.695 1.871-2.922-2.935zm-10.885 6.171 1.018 4.015-3.503 2.21 4.133.271 1.019 4.015 1.536-3.847 4.133.272-3.184-2.65 1.535-3.846-3.503 2.209-3.184-2.65zm-10.26 7.163 1.39 3.902-3.28 2.528 4.14-.116 1.39 3.901 1.169-3.973 4.14-.117-3.418-2.34 1.169-3.973-3.281 2.528-3.419-2.34zm-9.543 8.093 1.75 3.754-3.03 2.825 4.11-.504 1.75 3.754.792-4.065 4.111-.504-3.622-2.01.791-4.065-3.03 2.824-3.622-2.009zm-8.744 8.951 2.094 3.574-2.753 3.095 4.046-.886 2.094 3.574.407-4.122 4.046-.886-3.794-1.662.407-4.121-2.752 3.095-3.795-1.661zm-7.867 9.73 2.419 3.362-2.45 3.34 3.945-1.261 2.419 3.362.02-4.142 3.945-1.261-3.933-1.3.019-4.141-2.45 3.34-3.934-1.299zm-6.921 10.424 2.723 3.121-2.127 3.555 3.81-1.626 2.723 3.121-.368-4.125 3.81-1.625-4.038-.925-.369-4.126-2.127 3.554-4.037-.924zm-5.915 11.027 3.003 2.852-1.785 3.738 3.641-1.975 3.004 2.852-.753-4.073 3.64-1.975-4.106-.542-.753-4.073-1.785 3.738-4.106-.542zm-4.857 11.532 3.258 2.558-1.427 3.889 3.44-2.307 3.257 2.558-1.13-3.984 3.439-2.308-4.14-.155-1.13-3.985-1.427 3.889-4.14-.156zm-3.755 11.935 3.483 2.243-1.057 4.005 3.21-2.62 3.482 2.243-1.5-3.861 3.21-2.62-4.136.233-1.5-3.86-1.056 4.004-4.136.233zm-2.621 12.235 3.677 1.907-.676 4.086 2.949-2.908 3.677 1.907-1.854-3.704 2.95-2.908-4.096.619-1.854-3.704-.677 4.086-4.096.62zm-1.464 12.427 3.84 1.554-.291 4.132 2.664-3.172 3.84 1.554-2.193-3.514 2.664-3.171-4.02 1-2.193-3.514-.291 4.131-4.02 1zm-.294 12.509 3.969 1.188.097 4.14 2.355-3.406 3.968 1.187-2.512-3.293 2.356-3.407-3.909 1.372-2.512-3.293.097 4.14-3.909 1.372zm.879 12.482 4.062.811.484 4.114 2.027-3.613 4.062.81-2.81-3.043 2.026-3.612-3.763 1.731-2.81-3.043.485 4.113-3.763 1.732zm2.044 12.345 4.12.427.867 4.05 1.68-3.786 4.12.426-3.083-2.767 1.679-3.786-3.584 2.076-3.082-2.767.867 4.05-3.584 2.077zm3.191 12.099 4.142.04 1.242 3.95 1.318-3.927 4.141.04-3.327-2.467 1.316-3.927-3.373 2.403-3.328-2.466 1.242 3.951-3.373 2.403zm4.31 11.748 4.127-.35 1.607 3.818.944-4.033 4.127-.35-3.544-2.143.943-4.033-3.134 2.708-3.544-2.144 1.607 3.818-3.134 2.708zm5.39 11.291 4.077-.734 1.957 3.65.562-4.103 4.077-.734-3.73-1.803.562-4.103-2.867 2.99-3.729-1.803 1.958 3.65-2.867 2.99zm6.425 10.738 3.99-1.113 2.29 3.451.175-4.138 3.99-1.113-3.881-1.445.174-4.138-2.574 3.245-3.881-1.445 2.29 3.45-2.573 3.246zm7.401 10.088 3.868-1.48 2.604 3.22-.213-4.136 3.868-1.481-4-1.076-.213-4.136-2.26 3.472-3.999-1.076 2.604 3.222-2.259 3.471zm8.314 9.352 3.712-1.837 2.895 2.963-.6-4.098 3.712-1.837-4.083-.696-.6-4.099-1.923 3.668-4.083-.696 2.894 2.964-1.924 3.668zm9.153 8.531 3.524-2.176 3.159 2.68-.98-4.025 3.523-2.176-4.13-.311-.98-4.024-1.573 3.832-4.13-.31 3.159 2.678-1.572 3.833zm9.912 7.638 3.304-2.497 3.396 2.372-1.353-3.915 3.305-2.497-4.141.077-1.354-3.914-1.206 3.962-4.141.078 3.395 2.371-1.205 3.963zm10.583 6.676 3.056-2.796 3.603 2.043-1.713-3.77 3.056-2.796-4.116.465-1.714-3.77-.83 4.057-4.116.465 3.603 2.043-.83 4.059zm11.162 5.655 2.781-3.07 3.778 1.697-2.059-3.593 2.781-3.07-4.054.848-2.06-3.593-.446 4.118-4.054.848 3.778 1.697-.445 4.118zm11.642 4.585 2.482-3.316 3.92 1.335-2.386-3.385 2.481-3.316-3.957 1.224-2.387-3.385-.059 4.142-3.956 1.224 3.92 1.335-.058 4.142zm12.02 3.475 2.16-3.534 4.03.962-2.694-3.146 2.16-3.534-3.825 1.589-2.693-3.147.33 4.129-3.826 1.59 4.029.962.33 4.129zm12.294 2.334 1.82-3.72 4.1.58-2.976-2.88 1.82-3.721-3.66 1.94-2.976-2.88.715 4.08-3.66 1.94 4.102.581.715 4.08zm12.457 1.173 1.464-3.875 4.137.194-3.233-2.59 1.464-3.874-3.462 2.274-3.233-2.589 1.094 3.995-3.462 2.275 4.137.195 1.094 3.995z" fill="#a69439"></path><path d="m388.672 59.157.984 13.444m-22.902-10.182 2.931 13.158m-24.141-6.739 4.816 12.591m-24.865-3.153 6.598 11.756m-25.059.501 8.24 10.67m-24.719 4.145 9.704 9.357m-23.851 7.699 10.963 7.844m-22.476 11.09 11.988 6.164m-20.622 14.244 12.759 4.353m-18.33 17.096 13.257 2.448m-15.644 19.582 13.472.493m-12.627 21.651 13.4-1.475m-9.339 23.259 13.042-3.41m-5.854 24.371 12.407-5.272m-2.242 24.963 11.507-7.022m1.415 25.023 10.363-8.623m5.043 24.551 8.997-10.04m8.565 23.556 7.438-11.243m11.903 22.057 5.723-12.206m14.987 20.088 3.885-12.909m17.752 17.693 1.964-13.337M400 362.312v-13.48M376.908 53.615l2.967 20.158M354.309 58.65l5.87 19.51m-27.496-11.24 8.648 18.449m-28.839-7.117 11.242 16.993m-29.568-2.842 13.596 15.174m-29.667 1.493 15.661 13.034m-29.133 5.797 17.392 10.615m-27.979 9.976 18.752 7.97m-26.228 13.944 19.712 5.154m-23.918 17.614 20.253 2.229m-21.099 20.909 20.361-.744m-17.829 23.759 20.036-3.7m-14.18 26.101 19.284-6.579m-10.23 27.888 18.121-9.316m-6.059 29.08 16.571-11.855m-1.761 29.652 14.669-14.141m2.575 29.593 12.453-16.127m6.856 28.902 9.973-17.767m10.992 27.596 7.279-19.03m14.892 25.701 4.43-19.888m18.477 23.26 1.488-20.32" fill="none" stroke="#a69439" stroke-width="1.6"></path></svg>