<svg xmlns="http://www.w3.org/2000/svg" width="800" height="533.33" version="1"><path d="M246.041 533.33L553.96.002H800V533.33H246.041z" fill="#c70f2e" fill-rule="evenodd"/><path d="M246.041 533.33L553.96.002H0V533.33h246.041zM473.125 140.031L326.781 393.5c21.548 12.474 46.546 19.625 73.219 19.625 80.848 0 146.469-65.62 146.469-146.469 0-54.214-29.526-101.406-73.344-126.625z" fill="#666" fill-rule="evenodd"/><path d="M400 120.563c-80.848 0-146.469 65.245-146.469 146.093 0 54.175 29.485 101.507 73.25 126.844l146.344-253.469c-21.526-12.388-46.492-19.469-73.125-19.469z" fill="#c70f2e" fill-rule="evenodd"/><path d="M485.363.012h137.179L314.637 533.32H177.458L485.363.012z" fill="#fff"/><path d="M503.951.012h100.003L296.05 533.32H196.046L503.95.012z" fill="#002673"/><path d="M260.124 484.522l5.497 16.916h17.786l-14.389 10.456 5.496 16.916-14.39-10.454-14.39 10.454 5.495-16.916-14.389-10.456h17.787l5.497-16.916zM287.838 436.522l5.497 16.916h17.786l-14.389 10.456 5.496 16.916-14.39-10.454-14.39 10.454 5.495-16.916-14.389-10.456h17.787l5.497-16.916zM315.552 388.522l5.497 16.916h17.786l-14.389 10.456 5.496 16.916-14.39-10.454-14.39 10.454 5.495-16.916-14.389-10.456h17.787l5.497-16.916zM343.266 340.522l5.497 16.916h17.786l-14.389 10.456 5.496 16.916-14.39-10.454-14.39 10.454 5.495-16.916-14.389-10.456h17.787l5.497-16.916zM370.98 292.522l5.497 16.916h17.786l-14.389 10.456 5.496 16.916-14.39-10.454-14.39 10.454 5.495-16.916-14.389-10.456h17.787l5.497-16.916zM398.694 244.522l5.497 16.916h17.786l-14.389 10.456 5.496 16.916-14.39-10.454-14.39 10.454 5.495-16.916-14.389-10.456h17.787l5.497-16.916zM426.408 196.522l5.497 16.916h17.786l-14.389 10.456 5.496 16.916-14.39-10.454-14.39 10.454 5.495-16.916-14.389-10.456h17.787l5.497-16.916zM454.122 148.522l5.497 16.916h17.786l-14.389 10.456 5.496 16.916-14.39-10.454-14.39 10.454 5.495-16.916-14.389-10.456h17.787l5.497-16.916zM481.836 100.522l5.497 16.916h17.786l-14.389 10.456 5.496 16.916-14.39-10.454-14.39 10.454 5.495-16.916-14.389-10.456h17.787l5.497-16.916zM509.55 52.522l5.497 16.916h17.786l-14.389 10.456 5.496 16.916-14.39-10.454-14.39 10.454 5.495-16.916-14.389-10.456h17.787l5.497-16.916zM537.264 4.522l5.497 16.916h17.786l-14.389 10.456 5.496 16.916-14.39-10.454-14.39 10.454 5.495-16.916-14.389-10.456h17.787l5.497-16.916z" fill="#fff"/><path d="M420.813 116.063c-5.889.124-11.872 1.32-15.032 4.593 5.885 3.277 18.194 11.921 26.781 11.406 4.218-.252 8.276-1.006 11.844-2.562 19.482 6.935 42.523 20.137 61.219 39.781 21.973 23.088 37.733 55.749 37.375 97.344-.716 83.286-64.214 136.316-132.813 142.688-17.2 2.716-32.205 14.74-44.062 26.875l7.688 8c9.964-11.717 20.777-26.035 36.906-28.907C482.044 408.656 548.258 353.01 549 266.687c.372-43.214-17.964-76.305-40.813-100.312-19.68-20.679-42.703-33.314-62.968-40.188-4.79-5.288-11.164-9.288-18.656-9.937a54.05 54.05 0 0 0-5.75-.188z" fill="#f5dc0f" fill-rule="evenodd" stroke="#000"/><path d="M421.523 407.965c.359-5.073 2.486-10.097 5.407-14.859 4.777-7.788 19.797-13.236 26.23-16.365 1.236 6.323-3.807 14.773-8.819 20.767-5.765 6.894-14.347 9.982-22.818 10.457zM455.822 398.243c-.907-5.003-.09-10.398 1.562-15.734 2.702-8.729 15.906-17.724 21.365-22.348 2.762 5.82-.033 15.256-3.406 22.304-3.88 8.106-11.43 13.222-19.521 15.778zM487.581 379.458c-2.131-4.561-2.709-9.932-2.474-15.457.383-9.038 10.754-20.98 14.814-26.785 4.112 4.876 3.817 14.613 2.367 22.211-1.669 8.74-7.607 15.543-14.707 20.03zM513.806 352.932c-3.24-3.853-5.188-8.892-6.392-14.288-1.97-8.83 4.954-23.05 7.372-29.708 5.235 3.644 7.472 13.126 8.038 20.84.652 8.874-3.322 16.982-9.018 23.156zM530.486 324.422c-3.995-2.981-7.013-7.396-9.395-12.325-3.896-8.064-.44-23.336.384-30.3 5.87 2.328 10.17 10.96 12.463 18.267 2.635 8.405.64 17.119-3.452 24.358zM540.887 289.265c-4.622-1.865-8.666-5.364-12.225-9.524-5.823-6.804-6.373-22.453-7.351-29.397 6.269.755 12.628 8.006 16.706 14.488 4.691 7.455 4.983 16.39 2.87 24.433zM541.778 251.85c-4.897-.598-9.662-2.908-14.131-5.972-7.312-5.014-11.85-19.837-14.566-26.226 6.188-.886 14.128 4.418 19.69 9.57 6.396 5.926 8.966 14.395 9.007 22.628zM534.266 215.331c-4.91.862-10.192.031-15.412-1.617-8.54-2.695-17.285-15.685-21.787-21.06 5.72-2.676 14.952.115 21.84 3.459 7.925 3.846 12.898 11.275 15.359 19.218zM515.158 181.006c-4.437 2.044-9.651 2.576-15.01 2.318-8.767-.421-20.3-10.548-25.91-14.518 4.754-3.964 14.2-3.626 21.565-2.177 8.47 1.666 15.039 7.464 19.355 14.377zM491.827 156.725c-3.874 2.975-8.842 4.648-14.125 5.583-8.643 1.53-22.13-5.793-28.48-8.424 3.758-4.917 13.045-6.678 20.548-6.895 8.629-.25 16.318 3.95 22.057 9.736zM464.245 139.066c-3.262 3.57-7.814 6.062-12.802 7.888-8.16 2.988-22.574-1.815-29.219-3.279 2.811-5.444 11.559-8.768 18.834-10.28 8.368-1.738 16.59 1.025 23.187 5.671zM416.763 415.33c3.163 3.981 7.758 6.924 12.858 9.2 8.344 3.726 23.813-.269 30.89-1.324-2.555-5.914-11.491-10.035-19.014-12.147-8.652-2.43-17.478-.126-24.734 4.27zM450.81 407.379c4.002 3.139 9.154 4.935 14.644 5.966 8.98 1.687 23.1-5.79 29.738-8.458-3.857-5.16-13.506-7.094-21.313-7.403-8.98-.354-17.03 3.934-23.068 9.895zM482.5 391.542c4.577 2.096 9.952 2.632 15.475 2.355 9.035-.454 20.897-10.916 26.67-15.02-4.908-4.076-14.642-3.705-22.23-2.196-8.725 1.736-15.482 7.726-19.915 14.86zM509.571 368.62c4.942.96 10.293.217 15.595-1.352 8.674-2.567 17.74-15.527 22.386-20.875-5.728-2.806-15.103-.155-22.121 3.097-8.073 3.74-13.23 11.153-15.86 19.13zM531.235 338.758c4.977-.268 9.936-2.27 14.65-5.053 7.711-4.554 13.298-19.182 16.47-25.436-6.176-1.315-14.54 3.488-20.496 8.3-6.852 5.536-10.02 13.895-10.624 22.19zM544.891 304.441c4.76-1.478 9.078-4.633 12.967-8.486 6.363-6.302 8.198-21.853 9.744-28.693-6.31.237-13.244 6.94-17.842 13.065-5.287 7.044-6.313 15.924-4.869 24.114zM549.78 268.126c4.219-2.558 7.613-6.621 10.428-11.252 4.606-7.576 2.651-22.955 2.501-29.895-6.005 1.736-11.064 9.833-14.017 16.816-3.396 8.032-2.258 16.809 1.087 24.331zM545.945 232.955c3.502-3.477 5.848-8.223 7.499-13.385 2.7-8.445-2.806-22.936-4.58-29.647-5.431 3.096-8.45 12.154-9.682 19.635-1.418 8.604 1.747 16.869 6.763 23.397zM532.732 199.556c2.566-4.156 3.726-9.268 4.12-14.619.644-8.753-8.01-21.428-11.271-27.477-4.511 4.237-5.32 13.655-4.775 21.14.627 8.61 5.586 15.834 11.926 20.956zM514.233 171.781c1.591-4.618 1.601-9.86.81-15.166-1.292-8.682-12.517-19.147-17.027-24.334-3.47 5.124-2.192 14.49-.017 21.674 2.501 8.262 8.925 14.22 16.234 17.826zM492.293 150.969c.598-4.799-.463-9.878-2.313-14.858-3.025-8.146-16.037-15.99-21.464-20.094-2.316 5.673.835 14.484 4.41 20.999 4.11 7.493 11.55 11.952 19.367 13.953zM467.239 135.568c.132-4.834-1.413-9.787-3.734-14.565-3.796-7.817-17.503-14.372-23.3-17.933-1.759 5.87 2.227 14.336 6.412 20.476 4.814 7.062 12.648 10.784 20.622 12.022z" fill="#f5dc0f" fill-rule="evenodd" stroke="#000"/><path d="M379.188 116.063c5.888.124 11.871 1.32 15.03 4.593-5.884 3.277-18.193 11.921-26.78 11.406-4.218-.252-8.276-1.006-11.844-2.562-19.482 6.935-42.523 20.137-61.219 39.781-21.973 23.088-37.733 55.749-37.375 97.344.716 83.286 64.214 136.316 132.813 142.688 17.2 2.716 32.205 14.74 44.062 26.875l-7.688 8c-9.964-11.717-20.777-26.035-36.906-28.907C317.956 408.656 251.742 353.01 251 266.687c-.372-43.214 17.964-76.305 40.813-100.312 19.68-20.679 42.703-33.314 62.968-40.188 4.79-5.288 11.164-9.288 18.656-9.937a54.05 54.05 0 0 1 5.75-.188z" fill="#f5dc0f" fill-rule="evenodd" stroke="#000"/><path d="M378.477 407.965c-.359-5.073-2.486-10.097-5.407-14.859-4.777-7.788-19.797-13.236-26.23-16.365-1.236 6.323 3.807 14.773 8.819 20.767 5.765 6.894 14.347 9.982 22.818 10.457zM344.178 398.243c.907-5.003.09-10.398-1.562-15.734-2.702-8.729-15.906-17.724-21.365-22.348-2.762 5.82.033 15.256 3.406 22.304 3.88 8.106 11.43 13.222 19.521 15.778zM312.419 379.458c2.131-4.561 2.709-9.932 2.474-15.457-.383-9.038-10.754-20.98-14.814-26.785-4.112 4.876-3.817 14.613-2.367 22.211 1.669 8.74 7.607 15.543 14.707 20.03zM286.194 352.932c3.24-3.853 5.188-8.892 6.392-14.288 1.97-8.83-4.954-23.05-7.372-29.708-5.235 3.644-7.472 13.126-8.038 20.84-.652 8.874 3.322 16.982 9.018 23.156zM269.514 324.422c3.995-2.981 7.013-7.396 9.395-12.325 3.896-8.064.44-23.336-.384-30.3-5.87 2.328-10.17 10.96-12.463 18.267-2.635 8.405-.64 17.119 3.452 24.358zM259.113 289.265c4.622-1.865 8.666-5.364 12.225-9.524 5.823-6.804 6.373-22.453 7.351-29.397-6.269.755-12.628 8.006-16.706 14.488-4.691 7.455-4.983 16.39-2.87 24.433zM258.222 251.85c4.897-.598 9.662-2.908 14.131-5.972 7.312-5.014 11.85-19.837 14.566-26.226-6.188-.886-14.128 4.418-19.69 9.57-6.396 5.926-8.966 14.395-9.007 22.628zM265.734 215.331c4.91.862 10.192.031 15.412-1.617 8.54-2.695 17.285-15.685 21.787-21.06-5.72-2.676-14.952.115-21.84 3.459-7.925 3.846-12.898 11.275-15.359 19.218zM284.842 181.006c4.437 2.044 9.651 2.576 15.01 2.318 8.767-.421 20.3-10.548 25.91-14.518-4.754-3.964-14.2-3.626-21.565-2.177-8.47 1.666-15.039 7.464-19.355 14.377zM308.173 156.725c3.874 2.975 8.842 4.648 14.125 5.583 8.643 1.53 22.13-5.793 28.48-8.424-3.758-4.917-13.045-6.678-20.548-6.895-8.629-.25-16.318 3.95-22.057 9.736zM335.755 139.066c3.262 3.57 7.814 6.062 12.802 7.888 8.16 2.988 22.574-1.815 29.219-3.279-2.811-5.444-11.559-8.768-18.834-10.28-8.368-1.738-16.59 1.025-23.187 5.671zM383.237 415.33c-3.163 3.981-7.758 6.924-12.858 9.2-8.344 3.726-23.813-.269-30.89-1.324 2.555-5.914 11.491-10.035 19.014-12.147 8.652-2.43 17.478-.126 24.734 4.27zM349.19 407.379c-4.002 3.139-9.154 4.935-14.644 5.966-8.98 1.687-23.1-5.79-29.738-8.458 3.857-5.16 13.506-7.094 21.313-7.403 8.98-.354 17.03 3.934 23.068 9.895zM317.5 391.542c-4.577 2.096-9.952 2.632-15.475 2.355-9.035-.454-20.897-10.916-26.67-15.02 4.908-4.076 14.642-3.705 22.23-2.196 8.725 1.736 15.482 7.726 19.915 14.86zM290.429 368.62c-4.942.96-10.293.217-15.595-1.352-8.674-2.567-17.74-15.527-22.386-20.875 5.728-2.806 15.103-.155 22.121 3.097 8.073 3.74 13.23 11.153 15.86 19.13zM268.765 338.758c-4.977-.268-9.936-2.27-14.65-5.053-7.711-4.554-13.298-19.182-16.47-25.436 6.176-1.315 14.54 3.488 20.496 8.3 6.852 5.536 10.02 13.895 10.624 22.19zM255.109 304.441c-4.76-1.478-9.078-4.633-12.967-8.486-6.363-6.302-8.198-21.853-9.744-28.693 6.31.237 13.244 6.94 17.842 13.065 5.287 7.044 6.313 15.924 4.869 24.114zM250.22 268.126c-4.219-2.558-7.613-6.621-10.428-11.252-4.606-7.576-2.651-22.955-2.501-29.895 6.005 1.736 11.064 9.833 14.017 16.816 3.396 8.032 2.258 16.809-1.087 24.331zM254.055 232.955c-3.502-3.477-5.848-8.223-7.499-13.385-2.7-8.445 2.806-22.936 4.58-29.647 5.431 3.096 8.45 12.154 9.682 19.635 1.418 8.604-1.747 16.869-6.763 23.397zM267.268 199.556c-2.566-4.156-3.726-9.268-4.12-14.619-.644-8.753 8.01-21.428 11.271-27.477 4.511 4.237 5.32 13.655 4.775 21.14-.627 8.61-5.586 15.834-11.926 20.956zM285.767 171.781c-1.591-4.618-1.601-9.86-.81-15.166 1.292-8.682 12.517-19.147 17.027-24.334 3.47 5.124 2.192 14.49.017 21.674-2.501 8.262-8.925 14.22-16.234 17.826zM307.707 150.969c-.598-4.799.463-9.878 2.313-14.858 3.025-8.146 16.037-15.99 21.464-20.094 2.316 5.673-.835 14.484-4.41 20.999-4.11 7.493-11.55 11.952-19.367 13.953zM332.761 135.568c-.132-4.834 1.413-9.787 3.734-14.565 3.796-7.817 17.503-14.372 23.3-17.933 1.759 5.87-2.227 14.336-6.412 20.476-4.814 7.062-12.648 10.784-20.622 12.022z" fill="#f5dc0f" fill-rule="evenodd" stroke="#000"/><path style="text-align:center;line-height:125%;-inkscape-font-specification:Futura BdCn BT" d="M396.763 500.66l4.589-46.85h12.033l2.44 17.873c.363 2.717.668 5.322.914 7.814s.444 4.915.593 7.268c.385-4.128.712-7.385.98-9.77.267-2.386.486-4.156.657-5.312l3.016-17.873h11.905l3.947 46.85h-9.466l-.995-21.756-.096-2.31c-.278-5.691-.417-10.355-.417-13.992l-6.097 38.058h-6.77l-5.745-38.315c0 3.188-.192 7.745-.577 13.67l-.193 3.017-1.444 21.628h-9.274zm61.066-8.343c2.396 0 4.188-1.252 5.375-3.755 1.187-2.503 1.78-6.268 1.781-11.295 0-5.07-.594-8.857-1.781-11.36-1.187-2.503-2.979-3.754-5.375-3.754s-4.182 1.246-5.359 3.738c-1.176 2.493-1.765 6.285-1.765 11.376 0 5.07.589 8.846 1.765 11.327 1.177 2.482 2.963 3.723 5.359 3.723zm16.494-14.408c0 7.145-1.498 12.82-4.493 17.023-2.995 4.204-6.995 6.306-12 6.306-5.178 0-9.21-2.113-12.099-6.338-2.888-4.225-4.332-10.103-4.332-17.633 0-7.509 1.46-13.397 4.38-17.665 2.92-4.268 6.937-6.402 12.05-6.402 5.134 0 9.167 2.182 12.098 6.546 2.93 4.364 4.396 10.419 4.396 18.163zm5.744 22.751v-46.85h9.466L499 479.032c.278.813.668 2.059 1.17 3.738.503 1.68 1.076 3.653 1.718 5.92-.492-3.315-.856-6.358-1.091-9.129a91.893 91.893 0 0 1-.353-7.75V453.81h8.664v46.85h-8.664l-10.269-26.217c-.171-.385-.62-1.979-1.348-4.781-.342-1.284-.61-2.29-.802-3.017.214 1.819.374 3.867.481 6.146.107 2.278.16 5 .16 8.166v19.703h-8.6zm40.85 0v-38.186h-7.156v-8.664h23.714v8.664h-7.156v38.186h-9.402zm34.4-26.474h17.424c0 .236.01.594.032 1.075.021.482.032.84.032 1.075 0 7.83-1.439 13.938-4.316 18.323-2.878 4.386-6.851 6.579-11.921 6.579-4.942 0-8.857-2.145-11.745-6.434-2.888-4.29-4.332-10.135-4.332-17.537 0-7.466 1.497-13.344 4.492-17.633 2.995-4.29 7.081-6.434 12.259-6.434 3.508 0 6.487 1.027 8.936 3.08 2.45 2.054 4.241 5.039 5.375 8.954l-8.407 3.882c-.364-2.331-1.054-4.075-2.07-5.23-1.016-1.155-2.358-1.733-4.027-1.733-2.503 0-4.337 1.214-5.503 3.642-1.166 2.428-1.75 6.252-1.75 11.472 0 4.985.616 8.76 1.846 11.327 1.23 2.568 3.032 3.851 5.407 3.851 2.075 0 3.696-.872 4.861-2.615 1.166-1.744 1.75-4.198 1.75-7.365h-8.344v-8.279zm38.185 18.13c2.396 0 4.188-1.25 5.375-3.754 1.188-2.503 1.781-6.268 1.781-11.295 0-5.07-.593-8.857-1.78-11.36-1.188-2.503-2.98-3.754-5.376-3.754-2.396 0-4.182 1.246-5.359 3.738-1.176 2.493-1.764 6.285-1.764 11.376 0 5.07.588 8.846 1.764 11.327 1.177 2.482 2.963 3.723 5.36 3.723zm16.494-14.407c0 7.145-1.497 12.82-4.492 17.023-2.995 4.204-6.996 6.306-12.002 6.306-5.177 0-9.21-2.113-12.097-6.338-2.888-4.225-4.332-10.103-4.332-17.633 0-7.509 1.46-13.397 4.38-17.665 2.92-4.268 6.936-6.402 12.05-6.402 5.134 0 9.166 2.182 12.097 6.546 2.93 4.364 4.396 10.419 4.396 18.163zm3.434 22.751l4.589-46.85h12.033l2.439 17.873c.363 2.717.668 5.322.914 7.814s.444 4.915.594 7.268c.385-4.128.711-7.385.979-9.77.267-2.386.486-4.156.658-5.312l3.016-17.873h11.905l3.947 46.85h-9.466l-.995-21.756-.096-2.31c-.279-5.691-.418-10.355-.418-13.992l-6.096 38.058h-6.771l-5.744-38.315c0 3.188-.193 7.745-.578 13.67l-.192 3.017-1.444 21.628h-9.274zm46.208 0v-46.85h19.703v8.664h-10.654v9.466h9.66v8.6h-9.66v10.975h10.654v9.145h-19.703zm35.106-26.538c.107 0 .283.01.53.032.245.022.422.032.529.032 2.032 0 3.562-.566 4.589-1.7 1.026-1.134 1.54-2.803 1.54-5.006 0-2.246-.47-3.883-1.412-4.91-.941-1.027-2.45-1.54-4.525-1.54-.32 0-.567.005-.738.016a6.14 6.14 0 0 0-.481.048l-.032 13.028zm-9.05 26.538v-46.85h9.724c5.348 0 9.225 1.048 11.632 3.144 2.407 2.097 3.61 5.445 3.61 10.044 0 3.338-.615 6.017-1.845 8.039-1.23 2.021-3.086 3.439-5.567 4.252l8.985 21.371h-9.852l-7.637-19.382v19.382h-9.05zm34.625 0v-22.013l-10.846-24.837h9.851l3.08 8.471a78.93 78.93 0 0 1 1.573 4.54c.47 1.51.92 3.044 1.348 4.606a68.946 68.946 0 0 1 1.251-4.846c.45-1.497.91-2.845 1.38-4.043l3.402-8.728h9.145l-10.91 24.837v22.013h-9.274zM160.04 99.426c-.899.364-1.803.636-2.712.818-.909.182-1.823.273-2.743.273-5.969 0-10.82-2.171-14.553-6.514-3.733-4.343-5.6-10.033-5.6-17.072 0-7.316 1.824-13.22 5.472-17.713 3.647-4.492 8.413-6.739 14.296-6.739 1.09 0 2.117.091 3.08.273.963.182 1.883.465 2.76.85v8.76a14.84 14.84 0 0 0-2.615-.801 12.515 12.515 0 0 0-2.487-.257c-3.124 0-5.659 1.38-7.606 4.14-1.946 2.76-2.92 6.417-2.92 10.974 0 4.385 1 7.937 3 10.654 2 2.716 4.573 4.075 7.718 4.075.792 0 1.6-.096 2.423-.289.823-.192 1.652-.47 2.487-.834v9.402zm6.193.513V53.09h9.53v46.85h-9.53zm21.724 0V61.753h-7.155V53.09h23.714v8.664h-7.156V99.94h-9.403zm25.608 0V77.926L202.719 53.09h9.85l3.081 8.472a78.93 78.93 0 0 1 1.573 4.54c.47 1.508.92 3.043 1.348 4.605a68.941 68.941 0 0 1 1.251-4.845c.45-1.498.91-2.846 1.38-4.044l3.401-8.728h9.146l-10.91 24.837V99.94h-9.274zm56.688-8.343c2.396 0 4.187-1.251 5.375-3.754 1.187-2.503 1.78-6.268 1.78-11.296 0-5.07-.593-8.856-1.78-11.36-1.188-2.502-2.98-3.754-5.375-3.754-2.396 0-4.182 1.246-5.36 3.739-1.176 2.492-1.764 6.284-1.764 11.375 0 5.07.588 8.846 1.765 11.328 1.177 2.481 2.963 3.722 5.359 3.722zm16.494-14.408c0 7.145-1.498 12.82-4.493 17.023-2.995 4.204-6.995 6.306-12.001 6.306-5.177 0-9.21-2.113-12.098-6.338s-4.332-10.102-4.332-17.633c0-7.509 1.46-13.397 4.38-17.665 2.92-4.268 6.937-6.402 12.05-6.402 5.134 0 9.167 2.182 12.097 6.547 2.931 4.364 4.397 10.418 4.397 18.162zm5.744 22.751V53.09h20.216v8.664H301.54v9.723h10.204v8.632H301.54V99.94h-9.05z" font-size="65.719" font-weight="400" text-anchor="middle" fill="#fff" font-family="Futura BdCn BT"/></svg>