<svg xmlns="http://www.w3.org/2000/svg" width="800" height="470.59" version="1"><path fill="#c70f2e" d="M0 0h800v470.59H0z"/><path d="M394.625 383.434c-13.456.526-17.7 12.667-19.75 20.035-2.144 7.7-1.335 20.206 7.125 20.308 3.093.038 6-1.703 8.094-3.558l-5.219 22h8.625l10.938-46.438c.517-2.184.284-4.705-.688-6.906-1.805-4.088-5.063-5.6-9.125-5.441zm-1.281 6.347c1.917.054 3.796.965 3.187 3.531l-5.281 22.282c-12.133 5.97-9.821-4.242-7.875-12.625.977-4.207 3.203-10.282 6.938-12.531.714-.431 1.88-.69 3.03-.657zm27.969-5.691h-8.563l-4.813 20.688c-2.758 11.858 1.419 18.491 6.938 19 3.285.302 6.67-1.423 9.004-4.712l-1.129 4.024h8.5l9.313-39H432l-6.558 27.618c-2.028 4.417-5.848 7.233-9.13 4.757-2.653-2.003-1.002-7.211.125-11.938l4.875-20.437zm95.641-.656c-13.456.526-17.699 12.667-19.75 20.035-2.143 7.7-1.334 20.206 7.125 20.308 3.094.038 6.001-1.703 8.094-3.558l-5.219 22h8.625l10.938-46.438c.517-2.184.284-4.705-.688-6.906-1.804-4.088-5.063-5.6-9.125-5.441zm-1.28 6.347c1.917.054 3.795.965 3.187 3.531l-5.282 22.282c-12.132 5.97-9.82-4.242-7.875-12.625.977-4.207 3.203-10.282 6.938-12.531.715-.431 1.88-.69 3.031-.657zm30.09-5.691H537.2l-4.813 20.688c-2.758 11.858 1.418 18.491 6.938 19 3.285.302 6.67-1.423 9.004-4.712l-1.13 4.024h8.5l9.313-39h-8.562l-6.558 27.618c-2.028 4.417-5.849 7.233-9.13 4.757-2.654-2.003-1.002-7.211.125-11.938l4.875-20.437zm-82.639-.684c-7.186.343-10.368 2.907-13.875 6.688-4.392 4.734-7.05 10.92-7.875 18.125-.846 7.385 3.35 15.526 10 15.562 5.385.029 10.077-1.626 14.125-7.437l-2.443-3.215c-1.653 1.885-2.817 2.854-4.66 3.655-3.122 1.357-6.916 2.45-8.657-1.09-.566-1.15-.578-2.851-.428-4.975 14.366.343 20.964-10.159 21.826-14.567 1.606-8.219-2.692-13-8.013-12.746zm.375 14.063c-1.549 4.056-8.038 7.834-13.744 7.885 1.209-8.439 5.145-16.017 10.119-16.385 5.432-.403 4.438 6.369 3.625 8.5zm124.43-14.063c-7.186.343-10.369 2.907-13.876 6.688-4.391 4.734-7.05 10.92-7.875 18.125-.845 7.385 3.35 15.526 10 15.562 5.385.029 10.077-1.626 14.125-7.437l-2.443-3.215c-1.653 1.885-2.817 2.854-4.66 3.655-3.122 1.357-6.916 2.45-8.657-1.09-.565-1.15-.578-2.851-.427-4.975 14.365.343 20.963-10.159 21.825-14.567 1.607-8.219-2.692-13-8.013-12.746zm.374 14.063c-1.548 4.056-8.037 7.834-13.743 7.885 1.208-8.439 5.145-16.017 10.118-16.385 5.432-.403 4.439 6.369 3.625 8.5zm-233.46-13.379h-8.562l-4.813 20.688c-2.758 11.858 1.419 18.491 6.938 19 3.285.302 6.67-1.423 9.004-4.712l-1.129 4.024h8.5l9.312-39h-8.562l-6.558 27.618c-2.028 4.417-5.848 7.233-9.13 4.757-2.654-2.003-1.002-7.211.125-11.938l4.875-20.437zm-39.466 39.688c13.457-.527 17.7-12.668 19.75-20.036 2.144-7.7 1.335-20.205-7.125-20.308-3.093-.038-6 1.703-8.094 3.558l6.344-26.375h-8.625l-11.437 47.438c-1.74 7.806.19 15.29 9.187 15.722zm-1.281-13.254 4.656-18.906c12.133-5.97 9.821 4.241 7.875 12.625-.976 4.206-3.202 10.281-6.937 12.53-5.122 1.897-6.808-1.109-5.594-6.25zm-26.94 6.114 13.468-55.923h8.625l-14.875 62.375c-4.536-.52-6.225-3.535-7.218-6.452zm207.28-32.544c-2.88.172-5.706 1.872-7.75 4.75l1.125-4.031h-8.5l-9.312 39h8.563l6.562-27.625c2.962-5.82 8.463-4.75 11.594-3.035l3.187-7.122c-1.22-1.105-2.656-1.762-4.219-1.906a8.355 8.355 0 0 0-1.25-.031zm-215.093-31.031c-3.986-.006-7.205 1.85-9.594 4.28 6.584-2.444 15.226-1.917 12.375 9.75l-6.75 27.594c-7.537 1.72-13.863 1.649-19.469.094a105.671 105.671 0 0 1 1.594-4.937c4.715-13.24 11.872-24.782 18-30.5a8.147 8.147 0 0 0-.75-.063c-7.828-.189-17.061 8.758-24.25 26.063-3.078 7.41-3.971 16.188-3.594 26.719.092 2.55-.945 3.78-4.156 3.78h-8.938c-3.75 0-6.5 2.766-8.406 5.844-.948 1.531-2.254 2.032-4 2.032h-10.375c-4.453 0-8.291 5.405-9.437 7.969l13.844.03c3.524.009 7.466-1.49 8.406-4.437.614-1.926 1.39-3.437 3.344-3.437h10.062c9.29 0 13.581-12.015 16.906-23.125 5.75 2.517 12.724 2.11 19.438 1.25L270 416.719c.942 3.141 4.014 6.375 7.25 6.375l12.375-51.875c1.554-6.516 2.41-14.02-4.375-16.875-2.12-.893-4.094-1.279-5.906-1.281zM243.78 404.53c.526-15.485 6.595-33.33 18.372-42.1-19.757 3.525-23.62 27.293-18.372 42.1zM140.805 124.443c-.315-7.547-2.848-15.15-6.96-22.296 11.56-18.524 9.312-43.234-6.784-59.33-7.054-7.055-15.741-11.45-24.86-13.193a40.909 40.909 0 0 1 7.536 5.945c12.823 12.823 15.324 32.054 7.535 47.398-7.554-5.9-16.385-10.451-25.7-15.27-6.948-3.594-11.854-10.48-13.766-27.245-6.59-.302-11.678 1.69-15.49 5.502-3.812 3.812-5.804 8.9-5.502 15.49 16.766 1.912 23.651 6.818 27.246 13.767 4.818 9.314 9.37 18.145 15.269 25.699-15.344 7.789-34.575 5.288-47.398-7.536a40.909 40.909 0 0 1-5.945-7.535c1.743 9.118 6.138 17.806 13.192 24.86 16.097 16.096 40.807 18.345 59.331 6.783 7.146 4.113 14.749 6.645 22.296 6.961z" fill="#f5dc0f" fill-rule="evenodd"/><path d="M384.156 22.344v106.781a61.748 61.748 0 0 0-7.656 2.563V46.03h-12v92.156a63.148 63.148 0 0 0-15.906 15.907h-92.156v12h85.656a61.748 61.748 0 0 0-2.563 7.656H232.75v12l104.875-.25a63.069 63.069 0 0 0-.125 4.094c0 1.374.037 2.741.125 4.094l-104.875-.25v12h106.781a61.733 61.733 0 0 0 2.563 7.656h-85.656v12h92.187a63.035 63.035 0 0 0 15.875 15.875v92.187h12V247.47a61.791 61.791 0 0 0 7.656 2.562v106.813h12l-.25-104.906a63.14 63.14 0 0 0 4.094.125 63.14 63.14 0 0 0 4.094-.125l-.25 104.906h12V250.03a61.791 61.791 0 0 0 7.656-2.562v85.687h12V240.97a63.035 63.035 0 0 0 15.875-15.875h92.188v-12h-85.657a61.733 61.733 0 0 0 2.563-7.656H567.25v-12l-104.875.25c.088-1.353.125-2.72.125-4.094s-.037-2.741-.125-4.094l104.875.25v-12H460.469a61.748 61.748 0 0 0-2.563-7.656h85.656v-12h-92.156a63.148 63.148 0 0 0-15.906-15.906V46.03h-12v85.656a61.748 61.748 0 0 0-7.656-2.562V22.344h-12l.25 104.875a63.069 63.069 0 0 0-4.094-.125c-1.374 0-2.741.037-4.094.125l.25-104.875h-12zM400 139.063c27.942 0 50.5 22.59 50.5 50.53 0 27.942-22.558 50.5-50.5 50.5s-50.5-22.558-50.5-50.5c0-27.94 22.558-50.53 50.5-50.53z" fill="#f5dc0f"/><path d="M371.231 205.779c-1.936 5.179-.041 9.9 3.536 12.374 6.772-20.4 12.74-33.784 19.975-46.316h-18.738l-5.126 8.662h13.611c-4.42 7.7-9.174 14.355-13.258 25.28zm32.988-35.529c-6.68 0-12.973 8.406-14.063 18.75-1.09 10.344 3.445 18.719 10.125 18.719s12.973-8.375 14.063-18.719c1.09-10.344-3.445-18.75-10.125-18.75zm-2.75 7.594c3.599 0 6.872 5.008 7.312 11.156.44 6.148-2.12 11.125-5.719 11.125s-6.872-4.977-7.312-11.125c-.44-6.148 2.12-11.156 5.719-11.156zm36.656-17.875c-9.77 7.487-19.071 15.632-20.625 28.125-1.02 8.202 1.568 19.609 9.75 19.625 4.62.009 11.576-2.594 14.375-17.75 2.002-10.839-3.469-18.178-8.25-19.5 2.564-3.377 4.5-5.084 7.625-7.625l-2.875-2.875zm-1.875 29.937c.585 7.562-4.643 13.198-9.125 8.625-3.538-3.61-5.875-11.584.875-20.562 6.447.096 7.853 6.796 8.25 11.937zm-73.416 16.933 6.54-34.913h-7.159l-5.31 27.967c-1.04 5.478 2.406 6.946 5.93 6.946z" fill="#f5dc0f" fill-rule="evenodd"/></svg>