<svg xmlns="http://www.w3.org/2000/svg" width="216" height="161.625" xmlns:cgf="https://coding.garden/flags"><metadata id="cgf-metadata">

<cgf:flag>
  <cgf:name>Roswell</cgf:name>
  <cgf:route>us/nm/roswell</cgf:route>
  <cgf:aspect-ratio>1.3416149068322982</cgf:aspect-ratio>
</cgf:flag>

</metadata><path d="M0 0h216v161.625H0V0z" fill="#55f"></path><path d="m154.796 111.544-.207-.104-.155-.104-.207-.104-.207-.104-1.035-.672-1.034-.673-1.034-.776-1.035-.775-.982-.776-.984-.776-.931-.725-.931-.724-.414-.311-.362-.311-.414-.311-.414-.259-.362-.259-.414-.31-.414-.259-.413-.259-.621-.414-.673-.414-.621-.466-.672-.414-.673-.361-.673-.414-.672-.362-.673-.362-.362-.207-.361-.155-.363-.155-.414-.155-.361-.155-.362-.103-.362-.155-.311-.155-.672-.414-.725-.362-.673-.414-.724-.414-.674-.414-.672-.413-.672-.362-.674-.414-.361-.207-.311-.259-.362-.259-.311-.259-.31-.258-.363-.259-.311-.259-.361-.207-.518-.259-.569-.207-.569-.207-.568-.207-.569-.207-.518-.259-.569-.207-.465-.31-.207-.155-.207-.207-.207-.155-.207-.155-.207-.155-.259-.155-.259-.104-.311-.052-.518-.155-.465-.259-.518-.311-.518-.31-.465-.362-.518-.362-.466-.311-.466-.311-.362-.207-.413-.259-.363-.207-.361-.259-.414-.206-.362-.155-.414-.104-.413-.052-.363.052-.414.104-.361.207-.311.206-.362.259-.362.207-.311.207-.311.207-.672.414-.673.414-.621.414-.673.465-.672.414-.673.414-.724.414-.673.362-.207.104-.207.052-.259.052-.259.052h-.259l-.258.052-.207.052-.207.052-.621.154-.673.155-.621.207-.673.207-.621.259-.673.207-.569.207-.621.155-.465.155-.466.155-.466.155-.465.155-.518.155-.465.206-.414.155-.362.207-.931.466-.931.518-.931.466-.931.517-.932.569-.931.518-.931.569-.931.518-.983.62-.983.673-.983.725-.983.672-1.035.725-.983.673-1.035.621-.983.568-.31.207-.362.155-.414.155-.362.155-.414.104-.414.104-.414.104-.414.052-.362.052h-1.499l-.414-.052H73l-.31.052-.311.052-.362.052-.31.052-.311.052-.311.104-.311.104-.258.155-.516.259-.569.258-.518.311-.569.259-.517.311-.569.311-.517.259-.518.311-.569.311-.518.31-.517.311-.518.311-.518.311-.517.259-.518.311-.517.259-.311.155-.259.155-.311.154-.31.155-.259.155-.311.155-.311.155-.31.155H36.526v-8.174h23.851l-.207-.621-.155-.673-.155-.673-.155-.672-.155-.673-.155-.673-.104-.724-.104-.673H10.295v-8.071h48.271v-1.345l.052-.673.052-.725v-.672l.052-.673.103-.673.052-.672H10.295v-8.02h50.133l.207-.673.207-.673.258-.672.207-.673.259-.673.259-.672.259-.673.258-.673H36.578v-8.174H66.74l.724-1.035.725-1.034.724-1.035.776-.983.828-.931.828-.983.828-.879.879-.932.932-.88.879-.827.983-.828.931-.828.983-.775 1.035-.725 1.035-.725 1.035-.724V26.386h9.105V44.08l.725-.311.724-.259.724-.259.776-.259.776-.259.776-.207.776-.207.776-.207V4.139h9.002v36.578h.362l.362-.052h.776l.362-.052h2.224l.414.052h.723l.414.052h.362V4.139h9.003v37.975l.775.207.776.207.776.207.724.259.776.259.725.259.775.259.725.311V26.386h9.105v22.402l1.035.724 1.034.725.983.776.982.775.983.776.931.88.932.827.88.88.88.88.827.931.88.932.775.982.776.983.776.983.725 1.034.724 1.035h30.214v8.174h-25.867l.258.673.259.673.259.672.259.673.206.673.26.672.207.673.207.673h50.184v8.02h-48.632l.052.672.104.673.051.673.053.672v.725l.051.673v1.345h48.322v8.071h-48.942l-.104.673-.155.724-.104.673-.155.673-.155.672-.154.673-.156.673-.207.621h23.902v8.174h-24.728z" fill="#f55"></path><path d="m145.896 105.129-.361-.311-.362-.259-.362-.311-.414-.259-.361-.259-.363-.258-.414-.259-.361-.207-.673-.414-.673-.414-.621-.466-.672-.414-.673-.413-.673-.414-.724-.362-.673-.414-.311-.155-.361-.207-.363-.104-.361-.155-.414-.155-.362-.103-.362-.207-.361-.155-.674-.362-.672-.362-.673-.414-.673-.414-.672-.362-.673-.465-.673-.414-.672-.414-.363-.207-.31-.207-.362-.259-.311-.259-.311-.258-.361-.259-.311-.207-.363-.207-.568-.259-.569-.259-.569-.207-.568-.207-.569-.259-.569-.207-.518-.259-.518-.31-.207-.155-.154-.207-.207-.155-.207-.155-.207-.155-.207-.155-.259-.104-.31-.052-.518-.104-.569-.259-.518-.259-.466-.311-.518-.361-.518-.362-.465-.311-.466-.311-.362-.207-.361-.259-.363-.259-.361-.259-.414-.206-.414-.207-.414-.104-.414-.052-.361.052-.363.104-.361.207-.311.206-.362.259-.311.259-.31.259-.311.207-.674.414-.672.414-.672.414-.673.413-.724.466-.673.362-.724.414-.672.311-.155.104-.207.104-.259.052-.207.052-.259.052-.258.052-.259.052-.259.051-.621.155-.673.155-.621.155-.673.207-.621.259-.673.207-.569.207-.621.207-.414.104-.466.155-.466.155-.465.104-.466.207-.465.154-.414.155-.362.207-.983.466-.931.518-.931.518-.931.517-.932.569-.931.518-.931.518-.879.518-.983.62-.983.673-1.035.725-.983.724-.983.725-1.035.673-.983.673-.983.568-.362.155-.362.155-.414.155-.414.155-.414.155-.414.104-.362.104-.362.052h-.362l-.414.052-.362-.052h-.776l-.362-.052-.362.052h-.672l-.362.052-.311.052-.362.052-.311.052-.362.104-.259.104-.31.104h-.052l-.052.052h-.051l-.362-.88-.311-.932-.362-.931-.259-.932-.311-.931-.207-.932-.259-.983-.207-.982-.155-.983-.155-.982-.155-.983-.104-1.035-.104-.982-.052-1.035-.052-1.034v-1.035l.052-2.069.155-2.069.259-2.069.362-1.966.465-2.019.569-1.914.621-1.862.725-1.862.828-1.811.879-1.76.983-1.707 1.086-1.655 1.138-1.604 1.19-1.552 1.293-1.448 1.345-1.449 1.449-1.345 1.449-1.294 1.552-1.189 1.604-1.139 1.656-1.086 1.707-.983 1.759-.879 1.811-.828 1.863-.725 1.862-.62 1.915-.569 2.018-.466 1.966-.362 2.069-.259 2.07-.155 2.069-.052 2.07.052 2.069.155 2.069.259 1.966.362 2.018.466 1.915.569 1.861.62 1.863.725 1.811.828 1.76.879 1.707.983 1.655 1.086 1.604 1.139 1.552 1.189 1.449 1.294 1.449 1.345 1.345 1.449 1.293 1.448 1.19 1.552 1.138 1.604 1.087 1.655.982 1.707.88 1.76.827 1.811.725 1.862.621 1.862.569 1.914.466 2.019.361 1.966.26 2.069.154 2.069.053 2.069v.983l-.053.982-.051.983-.104.983-.104.982-.104.983-.156.931-.154.932-.207.983-.207.931-.259.88-.259.931-.259.932-.311.88-.31.879-.359.875z" fill="#ff5"></path><path d="M0 154.175h216v7.45H0v-7.45z" fill="#f55"></path><path d="M0 139.223h216v7.45H0v-7.45z" fill="#0a0"></path><path d="m189.821 130.376-.207-.104-.259-.155-.207-.155-.207-.155-.207-.104-.154-.154-.207-.104-.207-.104-.311-.207-.362-.207-.414-.155-.362-.207-.361-.207-.414-.207-.362-.259-.311-.207-.414-.362-.466-.465-.518-.466-.517-.466-.518-.466-.518-.414-.517-.413-.518-.311H216v14.899H0v-14.899h36.526l-.259.155-.258.104-.311.155-.259.155-.828.413-.828.466-.828.466-.828.466-.828.466-.828.465-.879.362-.879.311-.518.207-.621.207-.673.259-.672.259-.673.311-.672.31-.621.259-.518.259h166.076z" fill="#ff5"></path><circle cx="48.632" cy="22.299" r="3.673" fill="#fff"></circle></svg>