<svg xmlns="http://www.w3.org/2000/svg" version="1" width="800" height="533.33"><path d="M0-.002h800V533.33H0V-.002z" style="marker:none" fill="#fff" fill-rule="evenodd" overflow="visible"/><path d="M0 0v21.406L353.094 240 0 50.406v34.438L349.188 245.53 0 110.281v31.344l347.438 110.469L0 164.719V194l346.125 64.813L0 215.813v28.28l363.875 22.5v.063H436.125v-.062L800 244.094v-28.281l-346.563 43L800 194v-29.281l-347 87.25 347-110.344v-31.344l-349.188 135.25L800 84.844V50.406L446.75 240 800 21.406V0h-25.813l-331.53 234.781L734.656 0h-44.22l-252 229.813L661.345 0h-34.75L433.656 225.313 603.75 0h-28.875l-145.75 220.063L556.188 0h-25.094L422.28 218.75 514.906 0H492.25l-75.5 214.375L477.75 0h-21.031l-46.813 213.938L443.125 0h-20.156l-19.625 211.031L409.844 0h-19.75l6.562 213.219L376.937 0h-20.062l33.219 213.938L343.28 0H322.22l61.031 214.531L307.656 0h-22.562l92.625 218.75L268.906 0h-25.094l127.063 220.063L225.031 0H196.25l170.094 225.313L173.406 0h-34.781l221.75 228.656L109.562 0H65.344l291.844 234.781L25.656 0H0z" fill="#f5dc0f" fill-rule="evenodd"/><path d="M414.952 45.207c-.233-.01-.52.07-.817.248-2.613 1.558-4.489 3.228-9.715 4.245-2.673-.162-5.344-.328-8.023-.263-6.285.153-10.282 4.142-9.672 9.366.5 4.272 2.027 8.085 1.998 12.822-.667-.238-1.665-.113-1.867.744-.139.589.577.593.438 1.196-.253-.15-.488-.244-.715-.175-.354.108-.555.327-.54.759.011.31.14.454.423.73l-.437.568c-.45-.269-.766-.416-1.007-.394-.312.029-.714.1-.656.715.038.408.484.568 1.108.904l-.13.496c-.565-.248-.77-.249-1.182-.291-.802-.083-.905.977-.16 1.181.434.12.688.145 1.064.57-.418 1.39-.11 2.09.642 2.377.491.166.982.054 1.473-.263.407.728.756 1.47 1.897 2.13-.206.621-.22 1.232.262 1.853-.06.439-.053.893.16 1.4-.19.77-.577 1.434-.277 2.538.395 1.454.448 2.909.599 4.362-.86-1.315-1.884-2.368-2.743-3.37-.733-3.284-3.041-4.993-5.587-6.856-.956-2.532-3.84-4.496-6.316-5.383-1.138-.244-2.042-.671-2.539-1.269-.67-1.741-1.832-2.174-3.078-2.348l-2.378-5.106c.128-1.44-.057-2.576-.466-3.647-.19-.494-.635-.7-.934.044-.905 2.255-1.145 4.726-1.21 7.162-1.146-1.928-2.475-3.851-2.174-5.776.118-.758-.402-.698-.57-.278-.744 1.87-1.144 4.185-1.254 6.9-1.242.184-2.492.355-3.734.744-.396.125-.676.262-1.182 1.036-1.027 1.572-2.283 1.59-3.413 1.707-3.838.737-7.872 5.185-9.03 8.636l-2.757 1.342c-4.386.396-7.306 2.046-10.168 3.749-1.25-.042-2.333.363-3.005 1.663-.236.457-.388.892-1.24 1.006-1.712.23-2.8 2.715-.335 4.829-1.665 1.832-1.199 3.152-.584 4.332.588 1.128 1.945 1.002 2.918 1.167l.335.92c1.408.507 3.002-.535 4.085-1.24l.32-1.751c1.403-.45 2.682.098 4.348.204-.457.543-1.1 1.298-2.378 1.036-1.775-.364-1.859.655-2.217 1.59-.393-.13-.867-.108-.744.35.113.423 1.265-.219 1.809.131-.367.359-.602.76-.525 1.284-.354.044-.58.236-.657.613-.456-.077-.637.71-.335.875-.823-.17-1.219.005-1.503.365-1.165-.17-2.434.056-3.282.89-.367.36-1.104 1.336-.263 2.99-.456.278-.79.781-.831 1.532-.073 1.291 1.233 2.945 2.99 2.086.125.131.175.295.452.35-.056.22-.144.452-.043.671.457.31.83.675 1.123 1.109.305.361.648.51 1.036.335.329.39.755.46 1.196.51 2.253 3.325 5.839 7.2 9.744 10.796-1.531 2.889-2.879 5.997-3.792 9.175-3.046 1.938-3.652 5.048-4.304 8.126-1.156 2.31-1.248 5.276-2.67 8.242-.97 2.024-.97 4.466-.612 7.03-4.743-.048-9.374-.961-14.019-1.706-2.81-.45-5.556-1.774-8.752 1.896-2.226 1.109-4.104 2.343-4.333 4.435-.137 1.255-1.135 2.457-2.144 3.705-2.21 2.735-5.318 5.98-8.52 8.242-2.545 1.8-3.57 3.454-3.953 5.66-.305 1.766-.498 3.762-1.24 5.908-.633 1.833-.903 3.866-1.327 5.806-.13.6-.4 1.24.335 1.722.74 1.966.906 5.925 1.663 7.323l1.313 1.546.773-.7-.087-.817c2.436-2.409 4.668-4.84 6.39-7.338l1.05.073.525-.613-.131-1.006-1.11-.773-.743.102c.439-3.915-1.073-2.764-1.75-3.472-.73-.761-1.035-1.698-.292-2.757.4-.57.825-1.123 1.809.438.35.555.645.53 1.342.072.477-.313.884-1.142.875-2.421-.02-2.841 6.083-9.456 12.458-16.163 1.75-.091 3.342-.663 4.916-1.284 1.503.721 3.004 1.278 4.507 1.824-4.624-.328-6.31 1.019-7.191 2.83l-2.16 2.144c-2.597 1.39-2.734 3.147-2.363 4.858.403 1.856-.48 4.956-1.064 7.804a56.368 56.368 0 0 1-2.83 9.497c-.842 2.113-.998 4.136.802 6.053.681 1.463 1.384 2.958 1.721 4.391.418 1.776 1.135 3.73 2.422 5.237-.121.536.497 1.159.904 1.386 1.825 1.019 2.96 2.555 4.187 3.997.844.993 1.811 1.494 2.961 1.663l.234-1.05-.526-.613.949-9.38.656-.379-.102-1.313c-.905-.068-1.445.393-1.78.832-.118-1.027-.7-1.813-1.604-2.349-.42-.248-.839-.003-1.328.117-.478.117-1.063-.045-1.62-.628-.7-.733-.706-1.291-.495-1.735.706.269 1.409.373 2.115.262.111-2.476-1.016-4.901-.744-7.28.286-2.504.269-4.498 1.153-7.862.514-1.956 1.204-3.926 2.188-5.893 1.529-.937 2.678-1.88 3.574-2.816 2.634-.228 5.27.527 7.892 1.196 3.622.926 6.83 2 13.245 2.612 4.586 3.11 9.945 4.43 15.799 4.624l.816.408-2.99 3.137c-1.32-.015-2.417-.165-3.647 0-1.452-.664-2.943-1.367-4.464-1.386-.543-.007-.803.492-.51 1.036.908 1.685 2.64 3.254 4.814 4.755-.326.337-.353.704-.205 1.007-.374-.214-.741-.201-1.035 0-.563.384.063.847.496 1.327 1.17 1.298 2.704 2.332 4.172 3.414l-.905 1.823 1.838 1.167c.85-.016 2.024-.004 2.553-.306.561-.32.698-.938.759-1.488l5.82.117.16.525 1.27.394.7-.409-.263 1.75 3.677 1.372c.516.192 1.035.463 1.648-.51l1.925-3.05h.365l.452-.89-.218-.466c.481-.926.95-1.86.992-2.786.8-.965 1.606-1.924 1.444-2.889 7.38 1.612 14.437 3.526 25.995 1.328 1.74.268 3.158.478 4.522.335l2.188 8.374c-.918-.542-1.666.43-.423 1.43 1.537 1.236.81 3.056 1.138 4.609.348 1.648 1.118 3.365 3.472 3.049 1.62-.217 2.816-1.94 1.284-4.274-.594-.904-1.417-1.55-.992-2.714.419-1.149-.475-1.417-.861-1.05l-.904-4.668c2.424 2.9 3.443 7.417 5.047 12.05 1.188 3.431.733 3.134 7.28 12.749.832 1.223.947 3.208 1.618 4.376.944 1.641 1.018 3.044-1.706 4.668-3.596 2.144-8.4 4.74-13.625 7.104-2.27.519-4.529 1.838-6.798 3.093-4.338 1.412-5.458 2.818-8.096 4.23-.943.22-1.564.678-1.62 1.532l-3.092 6.608.19 1.24 1.283.044.525-.656c3.48.639 6.086.925 9.701.043l-.715 3.224-.393 1.255.35 1.196 1.269-.117.437-.729c3.43.151 6.733-.107 10.095-1.488l.19.788 1.444-.38.554-1.648-.656-.934c1.352-1.12 1.023-2.01.919-2.946-.139-1.25.508-2.411 3.21-1.517 1.74.576 2.039.102 4.77-1.882 1.846-1.342 4.13-2.361 6.812-3.385 5.318-2.03 10.652-4.892 14.66-7.25 2.46-1.446 2.596-3.544 1.43-5.893-3.253-6.553-6.895-13.183-6.9-18.439-.002-1.579.282-2.33 1.882-2.888 12.133-4.238 26.917-17.98 23.194-35.448.621.385 1.367.367 2.261-.204 1.364-.871 1.002-1.404.73-1.984.819-.089 1.627.242 2.465.846.962.693 1.2 1.875 4.274 1.036 4.174-.247 4.188 2.927 8.475 4.113-.623-1.1-1.095-2.211-1.006-3.311.545 1.1 2.128 2.212 4.989 3.311-.351-1.19-1.651-2.384-1.357-3.574 1.337.161 2.324 2.134 3.312 4.041.335 1.796.872 3.56 2.625 5.179-.52 4.42-.365 8.853 2.145 13.274.426 3.114.366 6.196 5.12 9.482.424 3.85 4.077 6.82 9.7 9.234 2.068 1.792 3.986 3.604 8.14 5.048 1.771 1.556 3.397 2.064 4.99 2.378 3.605 3.614 3.217 1.55 5.762 3.282l-.569-1.24c1.047-.222 1.9.005 2.567.67.039-.747-.201-1.42-.67-2.041-.011-.393.413-.465.904-.482-.893-.908-2.164-1.184-3.428-1.473.348-1.727-.762-2.798-1.765-3.91 1.483-.523.747-1.037.714-1.56l1.197-.628c-.477-.834-4.03-.845-5.194-2.334.21-1.553 2.6.501 4.143-.19-1.615-1.009-2.259-2.624-4.522-3.238-.57-6.11-2.88-6.336-5.047-7.046-1.857-1-3.728-1.997-4.1-3.618.568-.462 1.56.05 2.626 1.532.968-2.409-2.373-4.088-2.625-6.01.507-1.555 1.56-3.098-.846-4.653-.472-3.655.783-7.532-1.532-10.956.013-2.203-.466-3.908-.948-5.616.562-4.758-1.122-7.472-3.326-9.715-3.456-5.446-7.786-8.13-12.765-8.753-9.326-2.643-15.61 1.548-21.429 6.185-4.775 3.807-7.741 2.98-10.663.57-8.456-6.976-16.576-11.91-24.478-14.37.71-1.62.88-3.747-.103-4.96-.753-.93-1.566-1.821-2.304-2.684-.13-1.351-.91-2.161-1.27-3.238l-.554-1.649c.064-1.226-.74-2.273-1.327-3.37-.171-2.272-.83-3.335-1.372-4.682-.083-1.214-.568-2.263-1.137-3.282.565-.541 1.126-.541 1.692 0l.744-.409c-.76-.982-1.627-1.635-2.582-2.027-.672-1.277-1.247-2.597-2.772-3.589.272-.902.21-1.637-.219-2.363-.692-1.17-1.154-2.58-.627-3.676l-.642-.627 1.62-3.385c.827-1.66 1.149-3.585 2.187-4.96 3.361-4.444 3.847-10.375 2.612-15.608.49-1.898-.411-3.49-2.145-4.902-.541-.774-1.355-1.576-1.225-2.32.154-.882-.078-1.462-.306-2.144-.402-1.197-.045-1.95.102-2.786.577-.118.84-.55.86-1.225 1.891-.007 2.608-.69 2.553-1.81.217-.873.755-1.47 1.386-1.998 1.014-.417 1.061-.837.832-1.254.275-.74.16-1.334.102-1.94.685-.193.676-1.498.32-3.355-.41-2.709-1.39-4.584-3.398-4.931-.014-.76-.043-1.494-.496-2.13-.29-.407-.702.1-1.124.438-1.05-.464-.485-1.117-.89-1.532-.204-.21-.498-.285-1.619.715-.297-.375-.652-.709-.583-1.284.215-.442-.249-.437-.788-.365-.15-.257-.592-.067-1.123.263.116-.808-.775-.234-1.196.03-.184-.512-1.296.512-1.284 1.152-1.21.793-1.28 1.809-.934 2.757.15.408.323.695-.364 1.08-.312.173-.595.464-.89.874-1.94 1.048-1.726 2.024-1.794 3.005-.828.59-1.413.708-2.583 2.014-.359.4-.486.742-.029 1.02.367.224.695.619 1.007 1.095-.444.304-.75.674-.642 1.254-.594.297-.633.799-.686 1.299-1.634 1.111-1.115 1.627-.802 2.159.476.809 1.473 1.057 2.378 1.342.467.202.988.225.875 1.225-.042.37.017.75.525 1.123-.751.183-1.255.531-1.59.992-.953.202-1.774.568-2.45 1.094-.584.454-.315 4.23.291 4.464-.88.1-1.695.444-2.305 1.138-.253-.08-1.007.451-.933.919-1.364 1.014-1.038 1.8-.57 2.611-.995.726-2.017 1.598-3.165 1.926-.905.259-2.055 1.01-3.005 1.794-.665.549-.853.29-1.24.131-.698-.006-.618-.36-.729-.627-1.05-.922-.67-1.283-.919-1.896-.627-.161-.444-.531-.569-.817-.151-1.94-.597-2.752-.89-4.129.374-.202.68-.42.452-1.05-.626-1.731-1.646-3.215-2.567-4.755a5.36 5.36 0 0 1-.788-2.29c.415-.56.05-.642-.087-.861-.209-.335-.412-.599-.277-.905.174-.396-.123-.58-.365-.773-.635-.504-.382-.895-.467-1.327.245-2.13-.657-4.39-.058-6.39 7.843-7.886 14.665-16.375 20.13-25.66.962-1.633.686-2.493-.014-2.523zm-23.18 50.56a.428.428 0 0 1 .277.088c.052.617-.074 1.12.292 1.926.04 1.122.146 2.248.598 3.37l-.919-1.05v-1.037c.11-1.211-.375-1.931-.642-2.83.117-.327.246-.45.394-.466zm-34.047 6.959c.654.114 1.481.538 2.421.613.087.365-.144.728.7 1.094-.134.54-.578.982.22 1.852-1.433 2.972-4.758 5.402-8.651 9.161-1.767 1.707-4.278 4.716-6.725 8.447-4.749-1.82-8.74-4.398-11.729-7.28-.38-.989-.999-1.564-1.765-1.881-.06-.51-.291-.877-.642-1.138.745-.807.995-2.12.555-2.597a1.42 1.42 0 0 0-1.08-.467c-.295-.768-.186-1.4.059-1.984a8.55 8.55 0 0 1 1.02.176c.593.352 1.246.465 2.014.175 1.688.69 4.232 1.323 6.054-1.197.643.242 1.122.822 1.473 1.649.23.08.434.263.773-.044.34.342.486.328.686.087.132.067.31.19.481.278a.792.792 0 0 0 .278.087.39.39 0 0 0 .306-.102c.23-.217.282-.543.204-.831-.013-.047-.039-.087-.058-.132.085.015.172.031.262.015a.4.4 0 0 0 .277-.175c.16-.273.113-.606-.043-.86.103.007.197.013.306.014.096 0 .196.006.292-.03a.407.407 0 0 0 .233-.233c.108-.297-.005-.608-.204-.831-.007-.008-.022-.007-.03-.015.069-.061.151-.138.19-.16.108-.063.26-.118.409-.205.075-.043.16-.099.219-.175a.439.439 0 0 0 .087-.291.846.846 0 0 0-.044-.22c.472-.067.933-.308 1.372-.743 1.957-.386 3.769-1.058 5.616-1.663 2.48.445 3.32-.06 4.464-.394zm36.308 1.736c.482 1.535 1.34 4.451 4.23 4.07 1.601-.384 3.2-.876 4.8-.73.144.727.344 1.43 1.138 1.882-.522.09-.72 1.615.16 1.605-.473 1.374-.63 2.754-.408 4.128-.837.296-.569 1.655.146 1.561.129 1.303-.92 1.941-2.247 1.911-1.345-.03-3.269.085-3.37.598-.345-.237-.785-.18-1.196-.19-.356-.739-.815-1.356-1.415-1.852-.212-1.592-.602-3.135-1.064-4.712-.373-1.269-.441-2.65-.292-3.939.128-1.532-.13-2.554-.628-3.253-.113-.42-.017-.762.146-1.08zm-49.19.831c-.23.27-.312.62-.262.949-.338.027-.61.146-.788.35a.954.954 0 0 0-.233.598.966.966 0 0 0-.38.19.99.99 0 0 0-.35.743c-.052.027-.099.067-.145.103-.144-.323-.275-.632-.613-.803-.129-.433-.295-.85-.598-1.167.92-.66 2.105-.877 3.37-.963zm.365.117c.237.076.47.139.7.146a.562.562 0 0 1 .074.219c.002.032.004.048-.015.073a.447.447 0 0 1-.117.087c-.109.064-.274.118-.423.204-.119.07-.21.163-.291.234a.994.994 0 0 0-.205-.088c-.096-.315-.012-.637.277-.875zm-.568 1.182h.058c.002.004-.002.01 0 .014.055.11.162.2.277.205a.374.374 0 0 0 .16-.03l.044.044c.133.149.187.328.132.482-.005.012 0 .004-.03.014a.546.546 0 0 1-.16.015c-.15-.001-.348-.028-.54-.03-.04 0-.076.01-.116.015a1.023 1.023 0 0 0-.424-.146c-.046-.005-.086-.013-.13-.014a.592.592 0 0 1 .145-.336c.113-.129.303-.215.584-.233zm-.992.948a.351.351 0 0 0 .13.131c.104.051.211.05.307.044.107-.008.184-.015.277-.03a.676.676 0 0 1 .146.161c.105.17.126.355.044.496-.007.012.001.01-.03.015a.528.528 0 0 1-.174 0c-.095-.018-.218-.056-.336-.088a1.262 1.262 0 0 0-.817-.233.57.57 0 0 1 .453-.496zm-.671.904a.58.58 0 0 0 .291.102c.192.021.392-.005.496.015.016.003.041.01.059.015.098.09.17.209.204.335.052.193.016.384-.102.496-.01.01 0 .003-.03 0a.513.513 0 0 1-.145-.058c-.121-.062-.283-.152-.438-.234-.006-.004-.009-.01-.015-.014l-.029-.015c-.198-.148-.32-.343-.423-.54.04-.036.084-.077.132-.102zm-12.852.059h.175c-.12.705-.09 1.41.19 2.115-.548.17-1.036.567-1.255 1.021a2.258 2.258 0 0 0-1.736-.262c-.697-2.062.818-2.833 2.626-2.874zm1.123 2.509a.81.81 0 0 1 .438.233c.464.497.225 1.246-.409 1.897a.534.534 0 0 0-.291-.117c.009-.419-.18-.66-.482-.788-.432-.182-.448-.392-.467-.598.222-.307.451-.465.671-.554.054.096.11.195.175.292.246.308.668.144.453-.22a4.123 4.123 0 0 1-.088-.145zm-3.443.744a1.2 1.2 0 0 1 .19 0c.309.018.634.134.934.335l-.482.759c-.28.433-.16.93.409 1.152-.144 1.038-.817 1.082-1.4.628-.682-.53-.886-1.375-.7-1.911.12-.35.29-.589.495-.744.037.059.076.114.117.175.222.324.524.04.35-.234-.022-.047-.038-.085-.058-.131.048-.011.095-.025.145-.03zm6.01 6.01c2.983 2.743 6.844 5.176 11.364 6.929a63.335 63.335 0 0 0-2.027 3.414c-3.747-3.47-7.18-7.2-9.336-10.343zm64.843 9.278c.19.004.377.028.569.087-.051.414.632 1.068 2.086 1.021-.1 2.293-.452 4.784.437 6.813-.317.692-.607 1.389-.379 2.421l-.992.438c-.872-7.31-2.148-9.195-3.501-9.963l.102-.788c.535.113 1.106-.042 1.678-.03zm23.967 19.153l.496.86-1.284.424.788-1.284zm2.947 4.187c.497.94 1.354 1.876 2.188 2.815-1.063.067-2.098.215-3.093.628-.835-.27-.685-.548-.729-.817.796-.978 1.167-1.78 1.634-2.626zm-80.524 34.791c.11-.003.211-.006.321 0 1.534.082 3.066.807 4.595.905.989.063 1.785.589 2.45 1.298-2.809-.093-5.266-1.096-7.702-2.188.11-.009.227-.012.336-.015zm14.734 5.135l1.4.89-2.378.686.978-1.576z" fill="#803300" fill-rule="evenodd"/><path d="M0 266.662h800V533.33H0V266.662z" style="marker:none" fill="#f60" fill-rule="evenodd" overflow="visible"/><path d="M44.542 288.596l-2.14 7.109 7.499 13.957 7.108 2.14 6.753-3.628-2.98-5.549-3.937 2.115-2.897-.855-4.495-8.366.877-2.854 17.42-9.36 2.898.854 4.484 8.345-.888 2.888-3.935 2.114 2.98 5.55 6.732-3.617 2.14-7.109-7.5-13.957-7.107-2.14-23.012 12.363zm43.463 13.095l3.444 5.273-30.66 20.026-3.445-5.274 30.66-20.025zm6.832 10.606l14.77 19.41-5.013 3.814-5.485-7.209-24.131 18.362-3.814-5.013 24.13-18.361-5.47-7.19 5.013-3.813zm2.39 60.44l11.624-10.697 22.746-6.036-4.695-5.102-14.796 3.896 5.075-14.459-4.695-5.102-7.847 22.119-11.677 10.746 4.266 4.635zm30.77 22.782l.726 7.388 12.246 10.055 7.387-.725 16.578-20.189-.725-7.388-12.246-10.055-7.387.726-16.578 20.188zm19.432-13.738l2.99-.294 7.34 6.027.293 2.99-12.55 15.283-2.989.293-7.34-6.027-.293-2.99 12.55-15.282zm25.507 9.667l20.096 13.82-3.569 5.19-14.906-10.25-5.022 7.302 11.641 7.976-3.583 5.21-11.627-7.996-8.59 12.492-5.19-3.57 20.75-30.174zm26.075 53.857l2.304 7.056 14.128 7.174 7.056-2.304 14.204-27.972-5.595-2.841-12.755 25.12-2.867.955-8.49-4.311-.92-2.877 2.022-3.984-5.616-2.852-3.471 6.836zM226.756 465l23.805-29.891 7.292 2.937-3.583 38.037-6.069-2.445.755-8.408-10.87-4.378-5.239 6.602-6.091-2.454zm15.36-9.316l7.518 3.029 1.321-14.128-8.84 11.1zm20.612 17.745l3.486 6.554 15.153 4.63 6.554-3.485 2.24-7.331-6.024-1.841-1.305 4.272-2.66 1.434-9.082-2.775-1.387-2.645 5.779-18.912 2.66-1.434 9.058 2.768 1.404 2.676-1.306 4.273 6.024 1.84 2.233-7.308-3.486-6.554-15.153-4.63-6.554 3.486-7.634 24.982zm59.249 20.744l-6.994-1.502-8.161-18.384-2.728 1.886-2.907 13.534-6.135-1.318 7.692-35.804 6.135 1.318-2.985 13.892 16.137-11.067 7.638 1.641-17.435 12.111 9.743 23.693zm8.278-3.961l4.532 5.88 15.714 2.033 5.879-4.531 1.407-10.871-4.531-5.88-12.566-1.627-1.81-2.376.593-4.576 2.382-1.858 9.394 1.216 1.83 2.404-.375 2.905 6.246.809.784-6.053-4.532-5.88-15.713-2.034-5.88 4.532-1.407 10.87 4.531 5.88 12.59 1.63 1.831 2.404-.586 4.527-2.406 1.855-9.419-1.22-1.834-2.378.377-2.906-6.247-.808-.784 6.053zm34.598 4.121l4.986 5.499 15.826.773 5.5-4.987 1.273-26.092-4.986-5.499-15.826-.773-5.5 4.987-1.273 26.092zm7.41-22.615l2.226-2.017 9.485.463 2.018 2.225-.964 19.752-2.226 2.018-9.485-.464-2.018-2.225.964-19.752zm27.57 29.229l-1.038-36.606 9.2-.261 11.593 26.391-.757-26.698 6.297-.179 1.037 36.607-9.152.26-11.64-26.342.756 26.65-6.296.178zm59.173-40.753l-6.921 37.58-7.816.844-14.755-35.242 6.505-.702 11.255 26.927 5.202-28.703 6.53-.704zm5.09-1.041l6.211-1.042 6.056 36.117-6.213 1.042-6.055-36.117zm12.963-2.107l6.142-1.397 6.728 29.566 17.64-4.013 1.397 6.141-23.782 5.412-8.125-35.709zm29.555-6.966l6.01-1.887 9.08 28.93 17.261-5.418 1.887 6.01-23.27 7.305-10.968-34.94zm28.86-9.312l22.598-9.175 2.37 5.836-16.762 6.806 3.334 8.211 13.074-5.308 2.37 5.836-13.075 5.308 3.334 8.212 16.762-6.806 2.37 5.836-22.599 9.175-13.776-33.93zm40.822 13.38l6.1-2.918 2.918 6.101-.81 6.341-3.378-.441.598-4.183-2.511 1.2-2.917-6.1zm15.572-39.721l20.736-12.84 3.316 5.355-15.38 9.524 4.665 7.535 11.984-7.45 3.33 5.376-11.998 7.43 7.981 12.89-5.355 3.315-19.28-31.135zm25.628-16.155l5.065-3.745 18.029 24.38 14.546-10.757 3.745 5.065-19.61 14.501-21.775-29.444zm44.887 5.43l7.408.47 11.889-10.475.468-7.408-17.269-19.601-7.408-.469-11.889 10.474-.468 7.409 17.269 19.6zm-10.445-21.383l.19-2.997 7.125-6.279 2.998.19 13.073 14.838-.19 2.998-7.126 6.278-2.997-.19-13.073-14.838zm40.115 1.72l4.332-4.572-11.005-10.429 5.592-5.9 14.616 6.617 4.601-4.855-14.632-6.6-.2-7.421-7.957-7.54-7.42.2-14.51 15.31 26.583 25.19zm-17.678-25.429l7.994-8.435 3.002-.081 3.35 3.174.08 3.002-7.993 8.436-6.433-6.096zm13.254-23.935l4.016-4.852 28.211 23.35-4.016 4.852-28.211-23.35zm37.977 11.639l12.248-17.174-1.226-7.321-21.268-15.168-7.322 1.226-12.247 17.173 29.815 21.264zm-21.03-22.735l6.748-9.461 2.962-.496 16.1 11.482.497 2.963-6.748 9.461-19.559-13.949zm40.386-4.815l-26.747-27.291 3.81-6.877 37.31 8.22-3.17 5.724-8.252-1.78-5.678 10.25 5.91 6.01-3.183 5.744zM737.6 302.38l3.928-7.09-13.86-3.044 9.932 10.134z" style="text-align:center;line-height:100%;-inkscape-font-specification:Airborne" font-size="54.424" font-weight="400" text-anchor="middle" fill="#f5dc0f" stroke="#f5dc0f" stroke-width=".75" font-family="Airborne"/><path d="M401.48 286.416l-10.225-1.48-95.097 95.603v26.002h95.183c3.916 0 8.843-2.865 10.344-6.293 1.086-2.483 1.74-9.226-1.179-11.44-6.827-5.182-11.59-9.208-9.315-18.408 2.146-8.678 12.37-7.366 18.947-10.701 2.25-1.85 3.51-4.69 2.279-9.826-3.022-5.25-5.772-9.463-.104-13.652 8.195-6.059 19.485.747 28.725 1.317 5.201.32 6.819-3.404 10.284-3.555 3.297-.144 6.993 2.719 10.002 2.668 3.009-.05 8.054-.109 8.054-2.97v-17.864c0-8.679-11.608-12.942-17.043-19.682-1.45-1.798-1.923-4.73-3.613-5.93-1.335-.95-4.56-1.565-5.463-.517-1.548 4.567-1.276 9.25-5.359 9.977-3.494.622-3.729-4.113-6.386-6.198-3.252-2.553-7.547.29-9.008-1.295-.744-5.677 1.892-6.482-4.548-9.678-6.002-2.978-10.31 2.82-16.478 3.922zm16.706 55.31c-2.877-.865-3.536 1.43-3.176 3.067.704 3.209 2.676 7.174 2.685 10.718.007 2.772-.834 6.252-2.64 8.23-1.804 1.976-5.77 1.388-8.33 4.755-3.246 4.27-1.995 10.536.14 15.18 3.004 3.693 5.397 4.979 5.74 9.958.524 6.355-7.405 9.775-7.405 19.795v7.019l30.278 13.673h30.627l.215-46.073 9.728.078-.837-35.585c-2.874-3.682-4.585-10.21-9.933-10.684-3.982-.352-7.044 3.881-10.625 3.393-4.233-.576-6.7-4.683-11.068-2.832-5.625 2.383.816 8.765-4.409 11.226-6.415 3.023-12.67-9.413-20.99-11.917z" fill="#f5dc0f" fill-rule="evenodd"/></svg>