<svg xmlns="http://www.w3.org/2000/svg" width="955.894" height="539.888" version="1"><path d="M.955.955L838.28 46.807 954.94 163.465l-53.255 53.254 53.255 53.255-53.255 53.195 53.255 53.254L838.28 493.081.955 538.933V.955z" fill="#fff"/><path d="M498.873 269.974L728.07 40.777l-55.105-3.045-231.347 231.406 232.899 232.899 53.553-2.926-229.197-229.137z" fill="#c70f2e"/><path d="M615.113 269.974L838.28 46.807l-55.105-3.045-225.914 225.913 226.392 226.392 54.627-2.986-223.167-223.107zM.955 538.933V.955L44.18 3.343v533.202L.955 538.933z" fill="#c70f2e"/><path d="M130.748 531.888V299.885h674.517l-29.97-29.911 29.97-29.97H130.748V8.06L87.464 5.672v528.425l43.284-2.209z" fill="#002673"/><path d="M316.124 18.21l133.852 7.283v488.843l-133.852 7.343V18.209z" fill="#f5dc0f"/><path d="M362.632 20.776l-23.224-1.074v500.723l23.224-1.313V20.776zM403.468 23.045l23.225 1.194v491.35l-23.225 1.314V23.045z" fill="#c70f2e"/><path d="M316.124 18.21l-6.448-.419v504.246l6.448-.358V18.209zM449.976 25.493l6.448.418v488.066l-6.448.359V25.493z" fill="#ffff40"/><path d="M918.341 126.867l36.598 36.598-26.628 26.627-36.597-36.597 26.627-26.628zM928.311 243.347l26.628 26.627-26.628 26.567-26.627-26.567 26.627-26.627zM928.311 349.796l26.628 26.627-36.598 36.598-26.627-26.628 36.597-36.597z" fill="#c70f2e"/><path d="M891.714 153.495l36.597 36.597-26.627 26.627 26.627 26.628-26.627 26.627 26.627 26.567-26.627 26.628 26.627 26.627-36.597 36.597-116.42-116.42 116.42-116.478z" fill="#006b2b"/><path d="M109.136 257.675l-2.806 8.478h-8.896l7.224 5.254-2.746 8.477 7.224-5.253 7.224 5.253-2.806-8.477 7.224-5.254h-8.896l-2.746-8.478zM169.793 257.675l-2.746 8.478h-8.955l7.224 5.254-2.747 8.477 7.224-5.253 7.224 5.253-2.746-8.477 7.224-5.254h-8.955l-2.747-8.478zM230.51 257.675l-2.805 8.478h-8.896l7.224 5.254-2.746 8.477 7.224-5.253 7.224 5.253-2.806-8.477 7.224-5.254h-8.896l-2.746-8.478zM109.136 313.198l-2.806 8.538h-8.896l7.224 5.254-2.746 8.477 7.224-5.253 7.224 5.253-2.806-8.477 7.224-5.254h-8.896l-2.746-8.538zM109.136 368.781l-2.806 8.478h-8.896l7.224 5.254-2.746 8.537 7.224-5.254 7.224 5.254-2.806-8.537 7.224-5.254h-8.896l-2.746-8.478zM109.136 424.364l-2.806 8.478h-8.896l7.224 5.254-2.746 8.477 7.224-5.194 7.224 5.194-2.806-8.477 7.224-5.254h-8.896l-2.746-8.478zM109.136 479.947l-2.806 8.478h-8.896l7.224 5.253-2.746 8.478 7.224-5.254 7.224 5.254-2.806-8.478 7.224-5.253h-8.896l-2.746-8.478zM109.136 202.092l-2.806 8.478h-8.896l7.224 5.254-2.746 8.478 7.224-5.254 7.224 5.254-2.806-8.478 7.224-5.254h-8.896l-2.746-8.478zM109.136 146.51l-2.806 8.477h-8.896l7.224 5.254-2.746 8.537 7.224-5.253 7.224 5.253-2.806-8.537 7.224-5.254h-8.896l-2.746-8.478zM109.136 90.927l-2.806 8.537h-8.896l7.224 5.194-2.746 8.538 7.224-5.254 7.224 5.254-2.806-8.538 7.224-5.194h-8.896l-2.746-8.537zM109.136 35.344l-2.806 8.537h-8.896l7.224 5.254-2.746 8.478 7.224-5.254 7.224 5.254-2.806-8.478 7.224-5.254h-8.896l-2.746-8.537zM530.037 257.675l-2.806 8.478h-8.895l7.224 5.254-2.747 8.477 7.224-5.253 7.224 5.253-2.806-8.477 7.224-5.254h-8.895l-2.747-8.478zM598.038 257.675l-2.806 8.478h-8.895l7.224 5.254-2.747 8.477 7.224-5.253 7.224 5.253-2.806-8.477 7.224-5.254h-8.896l-2.746-8.478zM665.98 257.675l-2.747 8.478h-8.896l7.224 5.254-2.806 8.477 7.224-5.253 7.224 5.253-2.746-8.477 7.224-5.254h-8.896l-2.806-8.478zM733.98 257.675l-2.746 8.478h-8.896l7.224 5.254-2.806 8.477 7.224-5.253 7.224 5.253-2.746-8.477 7.224-5.254h-8.896l-2.806-8.478zM871.355 250.87l-4.418 13.671H852.55l11.642 8.478-4.478 13.672 11.642-8.478 11.642 8.478-4.418-13.672 11.583-8.478h-14.329l-4.478-13.672z" fill="#fff"/><path d="M.955.955L838.28 46.807 954.94 163.465l-53.255 53.254 53.255 53.255-53.255 53.195 53.255 53.254L838.28 493.081.955 538.933V.955" fill="none" stroke="#ccc" stroke-width="1.91"/><path d="M488.73 269.944a105.68 105.68 0 1 1-211.36 0 105.68 105.68 0 1 1 211.36 0z" fill="#fff"/><path d="M318.964 265.95c-1.627 1.998-5.41 3.232-9.118 3.506-.001.163-.008.324-.008.487 0 40.412 32.8 73.213 73.213 73.213 40.412 0 73.213-32.8 73.213-73.213 0-.16-.007-.319-.008-.478-3.725-.267-7.534-1.508-9.168-3.515-1.855 2.278-6.517 3.573-10.67 3.573-4.154 0-8.814-1.295-10.687-3.573-1.873 2.278-6.541 3.573-10.695 3.573s-8.815-1.295-10.67-3.573c-1.855 2.278-6.516 3.573-10.67 3.573s-8.815-1.295-10.67-3.573c-1.855 2.278-6.516 3.573-10.67 3.573s-8.815-1.295-10.67-3.573c-1.855 2.278-6.516 3.573-10.67 3.573s-8.814-1.295-10.687-3.573c-1.873 2.278-6.541 3.573-10.695 3.573s-8.815-1.295-10.67-3.573z" fill="#002673" fill-rule="evenodd" stroke="#fff" stroke-width=".537"/><g stroke="#002673" stroke-width="5"><path d="M371.815 204.503l1.586-.211 7.714 67.21-2.536.317-6.764-67.316z" fill="#fff" fill-rule="evenodd" stroke-width="1.34215"/><path d="M387.729 231.313c-8.668.398-15.974 1.58-23.282 3.458l.233 1.783c7.606-.768 14.813-1.742 23.204-3.578l-.155-1.663z" fill="#fff" fill-rule="evenodd" stroke-width="1.34215"/><path d="M365.374 234.509c.22 3.512 5.122 5.645 7.877 2.752 1.487 2.199 5.726 1.455 6.548-.759 3.812 1.155 7.576-1.677 7.023-5.172-7.34.269-14.204 1.202-21.448 3.179zM402.252 210.42l-1.585.21 6.081 60.555h2.475l-6.97-60.765zM348.986 218.766l-1.585.218 5.243 52.117 2.34-.076-5.998-52.259z" fill="#fff" fill-rule="evenodd" stroke-width="1.34215"/><path d="M372.664 237.609c.995-.797 1.224-1.4 1.816-2.494-.33 1.141-.755 1.902-1.49 2.544l-.326-.05zM379.605 236.628c.477-1.181.416-1.82.331-3.064.271 1.157.31 2.058-.017 2.978l-.314.086z" fill="#002673" fill-rule="evenodd" stroke-width="1.34215"/><path d="M361.27 250.144c1.138 1.115 4.099 2.143 4.004.458-.095-1.684-.01-2.09.196-3.328.072-1.305-.76-2.54-1.449-3.275-.688-.735-.3-1.882.048-2.823.428-1.157-.57-3.084-2.088-2.918.19-4.034-7.355-4.983-9.87-2.895-1.234-1.4-7.141-.57-7.428 1.25-.503-1.04-5 .134-4.228 1.61-1.536-.297-3.291 1.577-3.386 2.241-1.376-1.257-6.306.668-6.003 2.112.144.682.395.834.854 1.02-1.4.403.119 2.183 2.136 2.823 2.016.641 4.46.902 6.358-.07 1.898-.974 3.417-2.017 6.406-2.017 3.25-.167 4.318.972 6.406 1.043 2.088.072 3.274-.664 5.315-.332 2.04.332 2.135 1.258 2.159 1.78.023.522-.57 2.206.57 3.321z" fill="#fff" fill-rule="evenodd" stroke-linecap="round" stroke-linejoin="round" stroke-width="1.34215"/><g fill="#002673" fill-rule="evenodd"><path d="M361.628 250.504l-.314-3.557-.29 3.557h.604zM362.332 251.007l-.314-3.556-.29 3.556h.604zM364.815 250.336l-.314-3.556-.29 3.556h.604zM332.997 244c.79.874 2.824.698 3.434-.026l.018.029c-.879 1.4-2.84 1.175-3.452-.003z" stroke-width="1.34215"/><path d="M335.535 244.582c.79.874 2.825.698 3.434-.026l.018.029c-.878 1.4-2.839 1.175-3.452-.003zM338.399 242.862c.867.992 3.099.793 3.768-.028l.02.032c-.964 1.59-3.116 1.333-3.788-.004z" stroke-width="1.34215"/><path d="M340.21 243.903c.868.991 3.1.792 3.768-.03l.02.033c-.964 1.59-3.115 1.333-3.787-.003zM337.526 245.278c.868.992 3.1.792 3.768-.028l.02.032c-.964 1.589-3.115 1.333-3.788-.004zM333.97 245.547c.76.992 2.714.792 3.3-.03l.018.033c-.845 1.59-2.73 1.333-3.318-.003zM341.976 242.049c.89.992 3.181.792 3.868-.029l.02.033c-.99 1.589-3.198 1.333-3.888-.004zM345.814 242.963c.89.992 3.181.792 3.868-.029l.02.033c-.99 1.589-3.198 1.333-3.888-.004zM349.002 242.057c.89.992 3.18.792 3.868-.029l.02.033c-.99 1.589-3.198 1.333-3.888-.004z" stroke-width="1.34215"/><path d="M349.673 243.528c.567.816 2.028.651 2.466-.023l.013.026c-.631 1.306-2.04 1.096-2.48-.003zM343.465 243.36c.568.816 2.029.652 2.466-.023l.013.027c-.63 1.305-2.038 1.095-2.479-.003z" stroke-width="1.34215"/><path d="M351.988 243.295c.79.874 2.824.698 3.434-.025l.018.028c-.878 1.4-2.84 1.175-3.452-.003zM344.438 239.166c.568.816 2.029.651 2.466-.023l.013.026c-.63 1.306-2.038 1.096-2.479-.003zM356.316 240.039c.568.815 2.029.65 2.466-.024l.013.027c-.63 1.306-2.039 1.095-2.479-.003z" stroke-width="1.34215"/><path d="M354.437 242.258c.89.992 3.182.793 3.868-.028l.02.032c-.989 1.59-3.197 1.333-3.888-.004z" stroke-width="1.34215"/><path d="M355.01 243.73c.568.815 2.028.65 2.466-.024l.013.027c-.63 1.306-2.039 1.095-2.479-.003z" stroke-width="1.34215"/><path d="M357.288 243.397c.567.816 2.028.652 2.466-.023l.013.027c-.631 1.305-2.04 1.095-2.48-.004z" stroke-width="1.34215"/></g><path d="M359.178 267.18v-6.04h1.41l-.202-11.542c1.297-.447 3.87-.492 5.302-.134l.603 10.804 1.208 2.08-.268 4.9-8.053-.068zM336.686 263.929l1.017 3.186 9.219.746v-3.457l-10.236-.475z" fill="#fff" fill-rule="evenodd" stroke-width="1.34215"/><path d="M400.227 266.397l-18.803.18v-1.695l-.805-.873h-.487V262.6h.9v-1.124h-16.418v4.832l-16.24-.403v3.825l51.47-.067.383-3.266z" fill="#fff" fill-rule="evenodd" stroke-width="1.34215"/><path fill="#fff" stroke-linecap="round" d="M349.193 264.505h.813v3.457h-.813zM352.006 264.607h.813v3.457h-.813zM354.82 264.709h.813v3.457h-.814zM357.599 264.776h.813v3.457h-.813zM360.344 264.776h.813v3.457h-.813zM379.562 265.217h.813v3.457h-.813zM382.748 265.217h.813v3.457h-.813zM386.002 265.25h.813v3.458h-.813zM389.391 265.115h.813v3.457h-.813zM392.577 265.115h.813v3.457h-.813zM395.83 265.15h.814v3.456h-.813z" stroke-width="1.34215"/><path d="M399.525 264.98v3.287l21.496-1.855 2.495-2.937-12.84 1.047-11.15.458z" fill="#fff" fill-rule="evenodd" stroke-width="1.34215"/><path d="M421.151 263.082c-9.862 1.152-25.92 1.643-42.705 1.552a.577.577 0 1 0-.008 1.149c16.811.091 32.879-.388 42.847-1.552a.579.579 0 0 0-.134-1.15zm-84.881.067a.577.577 0 0 0 .033 1.149c7.79.565 16.81.986 26.13 1.233a.579.579 0 0 0 .033-1.157c-9.305-.247-18.313-.662-26.079-1.225a.577.577 0 0 0-.117 0z" fill="#fff" fill-rule="evenodd" stroke-linecap="round" stroke-width="1.34215"/><path d="M340.724 276.932l-3.343-10.826c27.986 2.77 56.083 1.789 83.65.288-1.538 5.93-5.548 9.112-10.383 11.691l-69.924-1.153z" fill="#fff" fill-rule="evenodd" stroke-width="1.34215"/><path transform="matrix(.26833 .00717 0 .26843 343.626 126.717)" fill="#fff" stroke-width="5.001" stroke-linecap="round" d="M82.174 525.234h6.658v6.222h-6.658z"/><path transform="matrix(.2684 .00359 0 .26843 343.626 126.717)" fill="#fff" stroke-linecap="round" d="M102.412 526.377h6.657v6.222h-6.657z"/><path fill="#fff" stroke-linecap="round" d="M376.474 268.388h1.786v1.67h-1.786zM381.795 268.367h1.787v1.67h-1.787zM387.002 268.312v1.67l1.787-.048v-1.67l-1.787.048z" stroke-width="1.34215"/><path d="M382.666 209.603c-6.896.316-12.708 1.256-18.522 2.751l.186 1.419c6.05-.612 11.784-1.387 18.458-2.847l-.122-1.323zM411.823 216.682c-6.895.317-12.708 1.257-18.521 2.752l.186 1.418c6.05-.61 11.783-1.386 18.458-2.847l-.123-1.323zM417.949 235.07c-9.098.419-16.766 1.659-24.436 3.63l.245 1.873c7.982-.807 15.546-1.83 24.353-3.757l-.162-1.745zM356.506 223.402c-5.672.26-10.453 1.034-15.236 2.263l.153 1.167c4.977-.503 9.693-1.14 15.184-2.342l-.101-1.088z" fill="#fff" fill-rule="evenodd" stroke-width="1.34215"/><path d="M342.083 225.457c4.518-1.192 9.691-1.88 13.807-2.014.162 2.623-1.672 4.424-4.043 4.144-.722 1.572-3.523 2.019-5.268.671-1.275.822-4.278.453-4.496-2.801z" fill="#fff" fill-rule="evenodd" stroke-width="1.34215"/><path d="M346.002 228.384c1.107-.383 1.242-1.155 1.447-1.896.136.945-.392 1.526-.809 1.88l-.638.016zM351.639 227.736c.322-.643.293-1.256.148-2.01.423.786.274 1.482.142 2.002l-.29.008z" fill="#002673" fill-rule="evenodd" stroke-width="1.34215"/><path d="M394.53 238.416c.495 3.897 5.252 6.128 8.758 3.685 2.815 2.452 7.612 1.152 8.73-1.091 4.695.998 5.667-4.372 4.814-5.974-7.386.522-14.963 1.244-22.302 3.38z" fill="#fff" fill-rule="evenodd" stroke-width="1.34215"/><path d="M403.038 242.115c1.012-.774 1.285-1.355 1.845-2.468-.356 1.134-.782 1.928-1.531 2.554l-.314-.086zM411.78 241.19c.5-1.04.49-1.574.344-2.586.414.86.368 1.695-.061 2.59l-.284-.005z" fill="#002673" fill-rule="evenodd" stroke-width="1.34215"/><path d="M394.107 219.199c.727 3.12 3.702 4.026 5.906 2.45 1.824 1.391 5.442.57 6.173-.772 2.148.782 4.765-.38 4.799-4.195-5.895.37-11.185.973-16.878 2.517z" fill="#fff" fill-rule="evenodd" stroke-width="1.34215"/><path d="M399.64 221.743c.918-.647.965-1.319 1.163-2.255.092.903-.091 1.727-.856 2.356l-.308-.101zM405.93 221.013c.578-.803.533-1.305.55-2.262.261.87.136 1.624-.253 2.244l-.298.018z" fill="#002673" fill-rule="evenodd" stroke-width="1.34215"/><path d="M414.654 263.643l25.518-5.01.544 1.631-19.381 4.777c-3.962.971-6.603-.466-6.68-1.398zM381.876 209.593c-4.227-.067-10.82.345-16.86 2.56-.267 1.96 1.704 5.181 6.194 3.28.512.7 4.486.72 5.694-1.09 3.039.918 5.826-2.515 4.972-4.75z" fill="#fff" fill-rule="evenodd" stroke-width="1.34215"/><path d="M370.73 215.484c.995-.553 1.26-1.436 1.467-2.576.122 1.362-.489 2.114-.863 2.627l-.604-.05zM376.644 214.46c.626-.812.807-1.536.888-2.6.169 1.102.09 1.617-.611 2.651l-.277-.05z" fill="#002673" fill-rule="evenodd" stroke-width="1.34215"/></g><path d="M348.684 225.706c.448 14.197-2.99 31.832-7.174 42.592M348.385 227.499c-.449 12.105-6.128 28.395-10.312 37.213M373.791 213.45c-.448 17.486-4.334 41.398-19.13 55.297" fill="none" stroke="#002673" stroke-width=".53686"/><path d="M371.815 204.503l1.585-.212 7.714 67.21-2.536.317-6.763-67.315z" fill="#fff" fill-rule="evenodd" stroke="#002673" stroke-width=".26843"/><path d="M387.729 231.312c-8.668.398-15.975 1.58-23.282 3.459l.233 1.783c7.605-.769 14.813-1.743 23.203-3.579l-.154-1.663z" fill="#fff" fill-rule="evenodd" stroke="#002673" stroke-width=".26843"/><path d="M401.827 219.403c1.057 15.851-7.503 40.897-15.534 50.196" fill="none" stroke="#002673" stroke-width=".53686"/><path d="M365.373 234.509c.22 3.512 5.122 5.645 7.877 2.752 1.487 2.198 5.726 1.455 6.549-.76 3.812 1.155 7.576-1.676 7.022-5.172-7.339.27-14.203 1.202-21.448 3.18zM402.252 210.42l-1.586.209 6.082 60.555h2.475l-6.971-60.765zM348.986 218.766l-1.585.218 5.242 52.116 2.34-.075-5.997-52.26z" fill="#fff" fill-rule="evenodd" stroke="#002673" stroke-width=".26843"/><path d="M372.664 237.608c.994-.796 1.224-1.4 1.816-2.494-.33 1.142-.756 1.902-1.491 2.544l-.325-.05z" fill="#002673" fill-rule="evenodd"/><path d="M373.928 214.12c5.707 20.5 17.12 42.481 27.37 54" fill="none" stroke="#002673" stroke-width=".53686"/><path d="M379.605 236.628c.476-1.182.416-1.82.331-3.064.271 1.157.309 2.058-.017 2.978l-.314.086z" fill="#002673" fill-rule="evenodd"/><path d="M349.281 226.602c2.093 17.336 9.864 31.235 16.888 43.34" fill="none" stroke="#002673" stroke-width=".53686"/><path d="M361.269 250.144c1.139 1.115 4.1 2.142 4.005.458-.095-1.685-.01-2.091.196-3.329.071-1.305-.761-2.539-1.45-3.274-.687-.736-.3-1.883.048-2.824.429-1.156-.569-3.084-2.087-2.918.19-4.033-7.355-4.982-9.87-2.894-1.234-1.4-7.142-.57-7.428 1.25-.504-1.04-5 .134-4.228 1.61-1.536-.298-3.292 1.576-3.387 2.24-1.376-1.257-6.306.669-6.002 2.112.143.682.395.835.854 1.02-1.4.404.119 2.183 2.135 2.824 2.017.64 4.46.901 6.359-.071 1.898-.973 3.416-2.017 6.406-2.017 3.25-.166 4.318.973 6.406 1.044 2.088.071 3.274-.664 5.314-.332s2.136 1.257 2.16 1.78c.023.521-.57 2.206.569 3.32z" fill="#fff" fill-rule="evenodd" stroke="#002673" stroke-linecap="round" stroke-linejoin="round" stroke-width=".26843"/><g fill="#002673" fill-rule="evenodd"><path d="M361.627 250.504l-.314-3.557-.29 3.557h.604zM362.332 251.007l-.314-3.557-.29 3.557h.604zM364.815 250.336l-.314-3.557-.29 3.557h.604zM332.996 244c.79.873 2.825.697 3.434-.026l.018.029c-.878 1.4-2.839 1.174-3.452-.004z"/><path d="M335.535 244.581c.79.874 2.824.698 3.434-.025l.018.028c-.879 1.4-2.84 1.175-3.452-.003zM338.398 242.862c.868.992 3.1.792 3.768-.029l.02.033c-.964 1.589-3.115 1.332-3.788-.004z"/><path d="M340.21 243.902c.867.992 3.1.792 3.768-.029l.02.033c-.964 1.589-3.115 1.333-3.788-.004zM337.526 245.278c.867.992 3.099.792 3.768-.029l.02.032c-.964 1.59-3.116 1.333-3.788-.003zM333.97 245.546c.759.992 2.714.792 3.3-.029l.017.033c-.844 1.589-2.729 1.333-3.318-.004zM341.976 242.048c.89.992 3.18.793 3.868-.028l.02.032c-.99 1.59-3.198 1.333-3.888-.004zM345.814 242.963c.89.991 3.18.792 3.867-.03l.02.033c-.989 1.59-3.197 1.333-3.887-.003zM349.001 242.057c.89.992 3.181.792 3.868-.03l.02.033c-.989 1.59-3.197 1.333-3.888-.003z"/><path d="M349.672 243.528c.568.815 2.029.65 2.466-.024l.013.027c-.63 1.306-2.039 1.095-2.479-.003zM343.465 243.36c.568.815 2.028.651 2.466-.024l.013.027c-.63 1.306-2.039 1.095-2.479-.003z"/><path d="M351.988 243.295c.79.874 2.824.698 3.433-.026l.019.029c-.879 1.4-2.84 1.174-3.452-.003zM344.438 239.166c.568.815 2.028.651 2.466-.024l.013.027c-.63 1.306-2.039 1.095-2.479-.003zM356.316 240.038c.567.815 2.028.651 2.466-.023l.013.026c-.631 1.306-2.039 1.096-2.48-.003z"/><path d="M354.437 242.258c.89.992 3.181.792 3.868-.029l.02.033c-.99 1.589-3.198 1.333-3.888-.004z"/><path d="M355.01 243.73c.567.814 2.028.65 2.466-.024l.013.026c-.631 1.306-2.04 1.096-2.48-.003z"/><path d="M357.287 243.397c.568.815 2.029.651 2.466-.024l.013.027c-.63 1.306-2.039 1.095-2.479-.003z"/></g><path d="M359.178 267.18v-6.04h1.409l-.201-11.542c1.297-.448 3.87-.492 5.301-.135l.604 10.805 1.208 2.08-.268 4.899-8.053-.067zM336.685 263.929l1.017 3.186 9.22.745v-3.457l-10.237-.474z" fill="#fff" fill-rule="evenodd" stroke="#002673" stroke-width=".26843"/><path d="M373.294 214.436c3.065 18.916 11.942 43.644 20.819 55.903" fill="none" stroke="#002673" stroke-width=".53686"/><path d="M400.227 266.396l-18.803.18v-1.695l-.806-.872h-.486v-1.41h.9v-1.123h-16.419v4.831l-16.24-.402v3.825l51.471-.067.383-3.267z" fill="#fff" fill-rule="evenodd" stroke="#002673" stroke-width=".26843"/><path fill="#fff" stroke="#002673" stroke-linecap="round" d="M349.192 264.505h.814v3.457h-.814zM352.005 264.606h.814v3.458h-.814zM354.819 264.708h.813v3.457h-.813zM357.598 264.776h.813v3.457h-.813zM360.344 264.776h.813v3.457h-.813zM379.561 265.217h.814v3.457h-.814zM382.747 265.217h.814v3.457h-.814zM386.001 265.25h.813v3.457h-.813zM389.39 265.115h.814v3.457h-.813zM392.577 265.115h.813v3.457h-.813zM395.83 265.149h.814v3.457h-.814z" stroke-width=".26843"/><path d="M399.525 264.98v3.287l21.496-1.856 2.494-2.937-12.839 1.048-11.151.457z" fill="#fff" fill-rule="evenodd" stroke="#002673" stroke-width=".26843"/><path d="M421.15 263.081c-9.862 1.152-25.919 1.643-42.704 1.552a.577.577 0 1 0-.009 1.15c16.812.09 32.88-.388 42.848-1.553a.579.579 0 0 0-.134-1.149zm-84.88.067a.577.577 0 0 0 .033 1.15c7.79.565 16.81.985 26.13 1.233a.579.579 0 0 0 .033-1.158c-9.305-.247-18.313-.661-26.08-1.225a.577.577 0 0 0-.117 0z" fill="#fff" fill-rule="evenodd" stroke="#002673" stroke-linecap="round" stroke-width=".26843"/><path d="M340.723 276.931l-3.343-10.825c27.986 2.769 56.084 1.788 83.65.288-1.538 5.929-5.548 9.112-10.382 11.69l-69.925-1.153z" fill="#fff" fill-rule="evenodd" stroke="#002673" stroke-width=".26843"/><path transform="matrix(.26833 .00717 0 .26843 284.42 144.68)" fill="#fff" stroke="#002673" stroke-linecap="round" d="M302.815 452.418h6.658v6.222h-6.658z"/><path transform="matrix(.2684 .00359 0 .26843 284.42 144.68)" fill="#fff" stroke="#002673" stroke-linecap="round" d="M322.994 456.509h6.657v6.222h-6.657z"/><path fill="#fff" stroke="#002673" stroke-linecap="round" d="M376.473 268.387h1.787v1.67h-1.787zM381.795 268.366h1.786v1.67h-1.786zM387.002 268.312v1.669l1.787-.048v-1.67l-1.787.049z" stroke-width=".26843"/><path d="M382.665 209.602c-6.895.317-12.708 1.257-18.521 2.751l.185 1.42c6.05-.612 11.784-1.387 18.459-2.848l-.123-1.323zM411.823 216.682c-6.895.317-12.708 1.257-18.522 2.751l.186 1.419c6.05-.611 11.784-1.387 18.459-2.847l-.123-1.323zM417.948 235.07c-9.097.418-16.766 1.658-24.436 3.63l.245 1.872c7.982-.807 15.547-1.83 24.353-3.756l-.162-1.746zM356.506 223.401c-5.673.26-10.454 1.034-15.236 2.263l.153 1.167c4.976-.502 9.693-1.14 15.184-2.342l-.101-1.088z" fill="#fff" fill-rule="evenodd" stroke="#002673" stroke-width=".26843"/><path d="M342.082 225.456c4.519-1.191 9.692-1.879 13.808-2.013.162 2.623-1.673 4.423-4.044 4.144-.721 1.571-3.523 2.018-5.268.67-1.275.823-4.278.454-4.496-2.8z" fill="#fff" fill-rule="evenodd" stroke="#002673" stroke-width=".26843"/><path d="M346.001 228.384c1.108-.384 1.243-1.155 1.448-1.896.136.944-.393 1.525-.81 1.88l-.638.016zM351.638 227.735c.323-.642.293-1.255.149-2.01.423.786.273 1.482.141 2.002l-.29.008z" fill="#002673" fill-rule="evenodd"/><path d="M394.53 238.415c.495 3.898 5.252 6.129 8.757 3.686 2.816 2.451 7.613 1.151 8.731-1.092 4.695.998 5.667-4.371 4.814-5.974-7.387.522-14.963 1.245-22.302 3.38z" fill="#fff" fill-rule="evenodd" stroke="#002673" stroke-width=".26843"/><path d="M403.037 242.115c1.012-.774 1.285-1.355 1.846-2.468-.356 1.133-.782 1.928-1.532 2.554l-.314-.086zM411.779 241.189c.5-1.039.49-1.573.345-2.585.414.86.368 1.694-.062 2.59l-.283-.005z" fill="#002673" fill-rule="evenodd"/><path d="M402.038 220.777c3.805 14.055 10.99 27.476 22.826 41.636M403.412 220.988c8.454 17.014 18.176 28.533 34.979 38.36M402.461 220.565c5.495 15.852 17.437 31.703 28.85 40.791" fill="none" stroke="#002673" stroke-width=".53686"/><path d="M394.107 219.198c.727 3.12 3.702 4.027 5.905 2.45 1.825 1.392 5.443.57 6.174-.772 2.147.783 4.765-.38 4.798-4.194-5.894.369-11.184.973-16.877 2.516z" fill="#fff" fill-rule="evenodd" stroke="#002673" stroke-width=".26843"/><path d="M399.639 221.742c.919-.647.966-1.318 1.163-2.255.092.903-.09 1.727-.855 2.356l-.308-.1zM405.929 221.013c.578-.803.534-1.306.55-2.262.262.87.137 1.624-.252 2.243l-.298.019z" fill="#002673" fill-rule="evenodd"/><path d="M414.654 263.643l25.518-5.01.544 1.63-19.382 4.778c-3.961.971-6.603-.466-6.68-1.398zM381.876 209.592c-4.228-.067-10.82.346-16.86 2.56-.267 1.96 1.703 5.182 6.194 3.281.511.7 4.485.72 5.694-1.091 3.038.919 5.826-2.515 4.972-4.75z" fill="#fff" fill-rule="evenodd" stroke="#002673" stroke-width=".26843"/><path d="M370.73 215.484c.995-.553 1.26-1.436 1.466-2.577.122 1.362-.488 2.115-.862 2.627l-.604-.05zM376.644 214.46c.626-.813.806-1.536.887-2.601.17 1.102.091 1.617-.61 2.652l-.277-.05z" fill="#002673" fill-rule="evenodd"/><path d="M309.863 271.914c1.046 39.502 33.435 71.242 73.188 71.242 39.13 0 71.13-30.75 73.121-69.388-2.285 1.428-5.833 2.214-9.076 2.214-4.154 0-8.814-1.286-10.687-3.565-1.873 2.279-6.541 3.565-10.695 3.565s-8.815-1.286-10.67-3.565c-1.855 2.279-6.516 3.565-10.67 3.565s-8.815-1.286-10.67-3.565c-1.855 2.279-6.516 3.565-10.67 3.565s-8.815-1.286-10.67-3.565c-1.855 2.279-6.516 3.565-10.67 3.565s-8.813-1.286-10.687-3.565c-1.873 2.279-6.54 3.565-10.695 3.565-4.154 0-8.815-1.286-10.67-3.565-1.854 2.279-6.516 3.565-10.67 3.565-4.362 0-7.99-2.197-9.11-4.068z" fill="#002673" fill-rule="evenodd" stroke="#fff" stroke-width=".537"/><path d="M318.964 278.876c-1.475 1.813-4.727 2.997-8.086 3.406 5.872 34.543 35.966 60.874 72.173 60.874s66.301-26.331 72.173-60.874c-3.376-.404-6.654-1.585-8.136-3.406-1.855 2.279-6.517 3.565-10.67 3.565-4.154 0-8.814-1.286-10.687-3.565-1.873 2.279-6.541 3.565-10.695 3.565s-8.815-1.286-10.67-3.565c-1.855 2.279-6.516 3.565-10.67 3.565s-8.815-1.286-10.67-3.565c-1.855 2.279-6.516 3.565-10.67 3.565s-8.815-1.286-10.67-3.565c-1.855 2.279-6.516 3.565-10.67 3.565s-8.814-1.286-10.687-3.565c-1.873 2.279-6.541 3.565-10.695 3.565s-8.815-1.286-10.67-3.565z" fill="#002673" fill-rule="evenodd" stroke="#fff" stroke-width=".537"/><path d="M329.642 285.344c-1.854 2.278-6.516 3.565-10.67 3.565-3.996 0-6.804-1.502-7.423-3.188 7.223 32.836 36.507 57.435 71.502 57.435 34.287 0 63.087-23.616 71.032-55.455-2.084.783-4.618 1.208-6.987 1.208-4.154 0-8.814-1.287-10.687-3.565-1.873 2.278-6.541 3.565-10.695 3.565s-8.815-1.287-10.67-3.565c-1.855 2.278-6.516 3.565-10.67 3.565s-8.815-1.287-10.67-3.565c-1.855 2.278-6.516 3.565-10.67 3.565s-8.815-1.287-10.67-3.565c-1.855 2.278-6.516 3.565-10.67 3.565s-8.813-1.287-10.687-3.565c-1.873 2.278-6.54 3.565-10.695 3.565-4.154 0-8.815-1.287-10.67-3.565z" fill="#002673" fill-rule="evenodd" stroke="#fff" stroke-width=".537"/><path fill="#fff" d="M309.697 294.688h146.238v26.552H309.697z"/><path d="M336.097 315.063v-14.199h4.536l2.216 9.193 2.215-9.193h4.536v14.199h-2.877l.063-12.594-3.013 12.594h-1.848l-3.014-12.594.074 12.594h-2.888zm19.393-5.698h2.562l-1.291-5.956-1.27 5.956zm-4.326 5.698l3.644-14.199h4.042l3.675 14.199h-3.244l-.798-3.568h-3.465l-.777 3.568h-3.077zm12.642-4.988h3.014v.913c0 .873.124 1.467.372 1.784.249.316.678.475 1.287.475.637 0 1.121-.142 1.454-.425.332-.282.499-.7.499-1.253 0-.425-.116-.789-.347-1.093-.23-.304-.731-.696-1.501-1.176l-1.544-.958c-1.33-.812-2.175-1.482-2.536-2.01-.36-.529-.54-1.193-.54-1.992 0-1.192.402-2.127 1.207-2.803.805-.676 1.915-1.014 3.329-1.014 1.498 0 2.646.36 3.444 1.079s1.197 1.752 1.197 3.098c0 .135-.002.24-.006.313a2.522 2.522 0 0 1-.015.194h-2.856v-.378c0-.768-.144-1.319-.43-1.65-.288-.332-.76-.498-1.418-.498-.483 0-.863.124-1.14.373-.276.249-.414.595-.414 1.037 0 .596.62 1.257 1.858 1.983a.125.125 0 0 1 .032.018l1.659.987c1.183.688 1.984 1.338 2.404 1.95.42.611.63 1.39.63 2.337 0 1.29-.42 2.286-1.26 2.987-.84.7-2.04 1.051-3.601 1.051-1.624 0-2.834-.369-3.628-1.106-.795-.738-1.192-1.863-1.192-3.375 0-.16.014-.424.042-.793v-.055zm18.532-.074h2.93c0 .062.003.152.01.272.007.12.01.214.01.281 0 1.642-.393 2.86-1.18 3.656-.788.796-1.994 1.194-3.618 1.194-.77 0-1.431-.088-1.984-.263a3.732 3.732 0 0 1-1.428-.816c-.546-.491-.931-1.168-1.155-2.028-.224-.86-.336-2.36-.336-4.5 0-1.462.066-2.625.2-3.49.132-.863.339-1.507.619-1.93.434-.652.973-1.124 1.617-1.416.644-.292 1.466-.438 2.467-.438 1.638 0 2.83.375 3.576 1.125.745.75 1.121 1.955 1.128 3.614h-2.919v-.341c0-.768-.141-1.341-.425-1.72-.283-.377-.716-.566-1.297-.566-.72 0-1.212.26-1.475.783-.262.523-.394 1.967-.394 4.334 0 2.557.128 4.112.384 4.665.255.553.743.83 1.464.83.672 0 1.141-.217 1.407-.65.266-.434.4-1.234.4-2.402V310zm8.127-2.037c0 2.335.156 3.806.467 4.411.312.606.888.908 1.728.908.826 0 1.39-.296 1.695-.89.305-.592.457-2.07.457-4.43s-.154-3.841-.462-4.443c-.308-.603-.878-.904-1.711-.904-.833 0-1.404.301-1.712.904-.308.602-.462 2.083-.462 4.444zm-3.076 0c0-1.506.08-2.71.241-3.61.161-.9.413-1.578.756-2.033.47-.645 1.03-1.106 1.68-1.383.651-.277 1.509-.415 2.573-.415s1.921.138 2.572.415c.651.277 1.215.738 1.69 1.383.344.467.594 1.15.751 2.047.158.897.237 2.096.237 3.596 0 1.493-.081 2.69-.242 3.59-.161.901-.41 1.585-.745 2.052-.476.646-1.04 1.107-1.69 1.383-.652.277-1.51.415-2.573.415-1.064 0-1.922-.138-2.573-.415-.65-.276-1.21-.737-1.68-1.383-.343-.455-.595-1.132-.756-2.033-.16-.9-.241-2.103-.241-3.61zm15.266 7.099v-11.857h-3.464v-2.342h9.943v2.342h-3.465v11.857h-3.014zm10.374 0v-11.857h-3.465v-2.342h9.944v2.342h-3.465v11.857h-3.014zm8.075 0v-14.199h8.305v2.36h-5.313v3.283h4.945v2.25h-4.945v3.909h5.439v2.397h-8.431z" style="text-align:center;line-height:125%;-inkscape-font-specification:Swis721 Cn BT Bold" font-size="75.068" font-weight="700" text-anchor="middle" fill="#002673" font-family="Swis721 Cn BT"/><path d="M383.05 169.023c-55.706 0-100.92 45.213-100.92 100.92s45.214 100.92 100.92 100.92c55.708 0 100.921-45.213 100.921-100.92s-45.213-100.92-100.92-100.92zm0 31.884c38.108 0 69.037 30.929 69.037 69.036s-30.929 69.036-69.036 69.036-69.036-30.929-69.036-69.036 30.929-69.036 69.036-69.036z" fill="#002673"/><path d="M384.972 174.87c-42.301-.826-81.62 26.938-93.505 69.505a10.067 10.067 0 1 0 19.386 5.41c11.156-39.958 52.397-63.197 92.355-52.04 26.424 7.377 44.664 25.617 52.041 52.04a10.067 10.067 0 1 0 19.386-5.41c-9.114-32.643-33.374-56.902-66.016-66.016a94.696 94.696 0 0 0-23.647-3.49zM301.005 282.475a10.064 10.064 0 0 0-9.538 13.035c9.114 32.643 33.374 56.903 66.016 66.017a94.697 94.697 0 0 0 23.647 3.49c42.301.824 81.62-26.94 93.505-69.506 1.082-3.5.173-7.309-2.366-9.95a10.063 10.063 0 0 0-17.02 4.539c-11.156 39.958-52.397 63.198-92.355 52.041-26.424-7.377-44.664-25.617-52.041-52.041a10.065 10.065 0 0 0-7.173-7.29 10.058 10.058 0 0 0-2.675-.335z" fill="#fff"/><path style="text-align:center;-inkscape-font-specification:Swis721 Md BT" d="M304.504 257.046a79.598 79.598 0 0 1 157.058-.205" text-anchor="middle" fill="none"/><path d="M298.023 262.952l1.595 4.797 5.055.034-4.07 3 1.53 4.818-4.11-2.944-4.11 2.944 1.53-4.819-4.07-2.999 5.055-.034 1.595-4.797zM468.053 262.952l1.594 4.797 5.055.034-4.07 3 1.53 4.818-4.11-2.944-4.11 2.944 1.53-4.819-4.07-2.999 5.056-.034 1.595-4.797z" fill="#fff"/><path d="M301.558 238.225l-.567 1.75c-.673-.11-1.262.011-1.769.366-.507.356-.883.914-1.13 1.676-.33 1.017-.24 1.916.269 2.696.509.78 1.393 1.374 2.651 1.782 1.268.41 2.357.452 3.268.124.91-.328 1.526-.984 1.844-1.968.253-.78.232-1.5-.064-2.158-.295-.658-.812-1.138-1.55-1.441l.562-1.736c1.191.434 2.033 1.203 2.525 2.308.491 1.105.525 2.311.102 3.617-.492 1.52-1.379 2.554-2.66 3.106-1.282.552-2.795.545-4.54-.02-1.765-.572-2.998-1.462-3.699-2.67-.7-1.206-.795-2.6-.283-4.182.416-1.283 1.071-2.212 1.966-2.787.895-.576 1.92-.73 3.075-.463zm-1.693-4.722l.768-1.706 10.21 4.596-.767 1.706-10.21-4.596zm2.12-4.728l4.337-7.6 1.427.814-1.704 2.985 8.3 4.736-.92 1.611-8.3-4.736-1.714 3.004-1.426-.814zm5.57-9.535l1.392-1.845 5.714.885-2.471-5.18 1.296-1.717 3.088 7.15 3.531 2.667-1.126 1.492-3.465-2.615-7.96-.837zm16.949-16.933c-.824.713-1.222 1.555-1.194 2.525.029.97.484 1.966 1.366 2.985.878 1.016 1.796 1.609 2.754 1.779.958.17 1.849-.101 2.673-.814.82-.71 1.215-1.55 1.185-2.523-.03-.972-.484-1.966-1.363-2.982-.881-1.02-1.8-1.614-2.754-1.784-.954-.17-1.843.102-2.667.814zm-1.06-1.224c1.258-1.088 2.593-1.547 4.005-1.378 1.413.169 2.717.945 3.914 2.33 1.197 1.383 1.777 2.786 1.74 4.208-.037 1.422-.684 2.676-1.94 3.764-1.262 1.09-2.598 1.552-4.009 1.385-1.41-.167-2.716-.944-3.916-2.332-1.2-1.387-1.78-2.791-1.742-4.211.038-1.42.688-2.676 1.949-3.766zm7.817-5.78l6.435-4.118.885 1.383-4.892 3.131 1.62 2.529 4.289-2.746.873 1.364-4.29 2.746 2.66 4.155-1.543.988-6.037-9.431zm14.116-8.085l8.126-3.245.609 1.525-3.191 1.274 3.544 8.874-1.722.688-3.545-8.874-3.212 1.283-.609-1.525zm15.92-3.496l-.423 5.117 3.228-.816-2.805-4.301zm-1.472-1.573l2.034-.514 6.732 9.848-1.93.488-1.683-2.562-4.223 1.068-.241 3.048-1.887.477 1.198-11.853zm9.77-2.18l2.695-.239 3.472 8.682 1.927-9.161 2.695-.24.99 11.154-1.763.157-.819-9.215-1.945 9.46-1.818.162-3.544-8.974.818 9.216-1.718.152-.99-11.153zm17.527.863l-.243 3.526 2.411.166c.754.052 1.3-.047 1.64-.298.34-.251.531-.688.574-1.31.042-.611-.086-1.071-.385-1.379-.299-.307-.792-.485-1.48-.532l-2.517-.173zm-1.747-1.744l4.254.293c.688.048 1.195.114 1.522.2.327.086.617.212.87.376.491.309.851.728 1.079 1.26.227.53.316 1.155.267 1.873-.04.592-.186 1.114-.436 1.567-.25.453-.592.819-1.028 1.099a2.752 2.752 0 0 1-1.024.379c-.386.065-.912.074-1.58.028l-2.533-.174-.302 4.398-1.858-.128.769-11.17zm15.827 3.813l-2.61 4.421 3.26.672-.65-5.093zm-.64-2.057l2.056.423 1.768 11.798-1.951-.402-.398-3.04-4.266-.879-1.546 2.64-1.906-.394 6.244-10.146zm6.34 11.07l1.8.56-.59 1.901c-.19.615-.5 1.069-.927 1.36-.427.292-.953.41-1.578.355l.238-.77c.3.03.572-.05.819-.24a1.51 1.51 0 0 0 .523-.776l.02-.09c.012-.055.025-.106.04-.155l-.922-.285.576-1.86zm14.068-4.688l6.848 3.387-.728 1.472-5.206-2.575-1.331 2.691 4.565 2.258-.718 1.452-4.565-2.259-2.188 4.423-1.642-.813 4.965-10.036zm10.105 5.335l1.554 1.026-5.239 7.929 4.611 3.046-.934 1.415-6.165-4.074 6.173-9.342zm11.912 10.566c-.813-.726-1.698-1.013-2.657-.86-.959.152-1.887.731-2.785 1.737-.895 1.001-1.366 1.987-1.412 2.96-.045.97.338 1.82 1.15 2.546.809.722 1.693 1.007 2.654.852.96-.154 1.888-.732 2.783-1.734.898-1.005 1.37-1.992 1.416-2.96.047-.968-.337-1.815-1.149-2.54zm1.079-1.207c1.24 1.107 1.866 2.372 1.88 3.795.013 1.422-.59 2.815-1.809 4.18-1.22 1.364-2.536 2.119-3.951 2.265-1.415.146-2.742-.335-3.982-1.443-1.243-1.11-1.872-2.377-1.887-3.797-.016-1.42.588-2.815 1.81-4.183 1.223-1.368 2.54-2.124 3.954-2.268 1.413-.144 2.742.34 3.985 1.45zm6.796 9.547l-2.672 2.172 1.682 2.07c.492.606.952.954 1.378 1.045.427.091.878-.056 1.354-.443.464-.377.696-.78.695-1.206-.001-.427-.243-.938-.725-1.532l-1.712-2.106zm.066-2.414l3.044 3.746a8.607 8.607 0 0 1 .352.469c.623.767.897 1.542.821 2.325-.075.783-.489 1.48-1.24 2.09-.492.4-1 .633-1.526.701a2.346 2.346 0 0 1-1.503-.306c.173.446.2.847.08 1.202-.119.355-.445.772-.977 1.25l-1.183 1.088-.011.01c-.524.464-.757.853-.7 1.165l-.253.206-1.313-1.616c.063-.156.158-.314.286-.473.128-.16.355-.385.68-.676l1-.89c.534-.486.81-.905.83-1.258.02-.352-.165-.77-.559-1.254l-.225-.278-1.553-1.911-3.575 2.905-1.165-1.434 8.69-7.061zm7.727 10.169l1.016 1.57-9.401 6.083-1.016-1.57 9.401-6.083zm2.82 7.744l-7.115 3.567 1.025 2.045c.498.992 1.16 1.574 1.99 1.746.828.171 1.865-.056 3.111-.68 1.133-.568 1.875-1.235 2.228-2.001.353-.767.301-1.605-.155-2.516l-1.084-2.161zm.6-2.35l1.938 3.867c.736 1.468.873 2.778.41 3.931-.462 1.153-1.52 2.144-3.174 2.973-1.617.81-3.063 1.031-4.337.66-1.274-.37-2.29-1.311-3.049-2.825l-1.799-3.588 10.01-5.018zm5.203 16.662l-5.135-.048 1.05 3.16 4.085-3.112zm1.46-1.583l.662 1.991-9.33 7.434-.628-1.89 2.433-1.866-1.374-4.133-3.058-.018-.613-1.846 11.908.328z" style="text-align:start;line-height:125%;-inkscape-font-specification:Swis721 Md BT" font-size="58" font-weight="400" fill="#002673" font-family="Swis721 Md BT"/><path d="M293.93 285.51c6.697 38.34 35.152 66.816 73.485 73.542 49.187 8.63 96.112-24.285 104.743-73.473" fill="none" stroke="#e6e6e6" stroke-width=".266" stroke-linecap="round" stroke-linejoin="round"/><path d="M306.085 294.048c-.317-1.043-.925-1.748-1.823-2.115-.899-.368-1.993-.355-3.282.037-1.285.39-2.2.99-2.743 1.796-.544.807-.658 1.731-.34 2.774.315 1.037.924 1.74 1.824 2.106.901.367 1.994.355 3.28-.036 1.289-.393 2.205-.99 2.747-1.794.542-.803.655-1.726.337-2.768zm1.55-.472c.483 1.59.362 2.997-.365 4.22-.728 1.222-1.966 2.1-3.717 2.632-1.75.533-3.267.494-4.552-.116-1.285-.61-2.17-1.71-2.654-3.301-.485-1.595-.365-3.004.36-4.225.724-1.222 1.964-2.1 3.72-2.634 1.754-.534 3.273-.496 4.556.115 1.282.611 2.166 1.714 2.652 3.31zm1.525 9.609l-3.114 1.469 1.138 2.413c.333.706.696 1.154 1.088 1.344.392.19.866.155 1.42-.106.541-.256.862-.59.964-1.005.101-.415-.012-.969-.338-1.66l-1.158-2.455zm.642-2.329l2.06 4.366a8.604 8.604 0 0 1 .228.54c.422.893.502 1.711.242 2.453-.261.743-.83 1.32-1.705 1.733-.573.27-1.122.376-1.65.316a2.346 2.346 0 0 1-1.385-.658c.061.476-.008.871-.21 1.188-.2.316-.617.642-1.248.98l-1.408.773-.014.006c-.62.326-.939.648-.957.965l-.296.14-.889-1.885c.099-.136.23-.266.392-.39.163-.125.437-.289.822-.493l1.184-.626c.634-.344 1.003-.684 1.107-1.022.104-.338.023-.789-.243-1.352l-.152-.323-1.051-2.228-4.167 1.965-.788-1.67 10.128-4.778zm7.338 19.8l-1.027-1.535c.472-.487.725-1.042.756-1.664.032-.622-.16-1.245-.578-1.868-.623-.93-1.415-1.446-2.376-1.547-.96-.1-2.001.224-3.122.974-1.099.736-1.79 1.574-2.076 2.515-.285.94-.127 1.86.474 2.757.51.762 1.16 1.222 1.949 1.38.788.158 1.589-.013 2.4-.514l-1.704-2.545 1.282-.859 2.66 3.973-5.022 3.363-.685-1.024 1.002-1.045a4.098 4.098 0 0 1-1.903-.547c-.57-.332-1.062-.808-1.477-1.427-.86-1.284-1.107-2.626-.742-4.026.364-1.4 1.277-2.59 2.739-3.568 1.49-.998 2.95-1.392 4.377-1.183 1.427.21 2.59.986 3.49 2.33.75 1.12 1.088 2.214 1.016 3.28-.073 1.067-.55 1.994-1.433 2.78zm5.785 4.308l-4.711 2.043 2.243 2.46 2.468-4.503zm.692-2.04l1.413 1.55-5.503 10.584-1.342-1.471 1.464-2.693-2.935-3.22-2.8 1.228-1.312-1.438 11.015-4.54zm5.312 5.591l1.53 1.25-1.262 9.788 5.3-6.488 1.396 1.14-7.085 8.672-1.519-1.241 1.239-9.806-5.3 6.487-1.384-1.13 7.085-8.672zm9.629 7.382l1.571 1.014-6.071 9.41-1.571-1.015 6.071-9.409zm3.922 2.544l7.48 3.839-.749 1.46-9.345 4.092 5.695 2.922-.753 1.468-7.717-3.96.712-1.387 9.464-4.158-5.526-2.835.74-1.44zm9.314 4.589l7.552 2.722-.557 1.545-5.828-2.101-.992 2.753 5.377 1.939-.53 1.473-5.379-1.939-1.147 3.183 6.022 2.17-.57 1.581-7.745-2.792 3.797-10.534zm11.412 5.358l-1.682 7.78 2.237.483c1.084.234 1.953.082 2.606-.456.653-.538 1.127-1.488 1.421-2.85.268-1.238.214-2.235-.162-2.99-.376-.756-1.062-1.241-2.058-1.456l-2.362-.511zm-1.455-1.94l4.227.914c1.605.347 2.712 1.062 3.32 2.144.609 1.083.718 2.529.327 4.337-.382 1.768-1.117 3.033-2.204 3.793-1.088.76-2.459.962-4.113.605l-3.923-.848 2.366-10.945zm21.08 2.788l1.869.035-.148 8.019c-.023 1.2-.31 2.075-.862 2.622-.553.547-1.407.81-2.562.789-1.18-.022-2.04-.325-2.576-.91-.537-.586-.793-1.507-.77-2.764l.01-.547 1.794.033-.013.715c-.012.618.106 1.082.354 1.39.248.309.63.468 1.147.478.583.01.993-.13 1.232-.422.238-.293.366-.9.383-1.822l.141-7.616zm4.59.001l1.858-.207.77 6.921c.106.962.392 1.65.856 2.062.464.412 1.129.57 1.995.474.872-.097 1.49-.399 1.854-.906.364-.507.493-1.239.387-2.196l-.77-6.92 1.859-.207.781 7.026c.157 1.41-.105 2.541-.785 3.392-.681.85-1.726 1.354-3.137 1.511-1.445.16-2.58-.09-3.406-.75-.826-.66-1.32-1.718-1.481-3.173l-.782-7.027zm11.562-1.558l1.808-.448 2.282 9.225 5.365-1.328.407 1.646-7.173 1.775-2.69-10.87zm7.663-1.886l2.158-.825 4.375 3.78.653-5.702 2.01-.768-1.175 7.7 1.58 4.133-1.748.668-1.55-4.055-6.303-4.931zm18.366-8.242l1.15-.715 5.747 9.245-1.479.92-4.01-6.45-2.168 1.348-.667-1.071c.822-.511 1.341-1.018 1.558-1.52.216-.5.173-1.087-.131-1.757zm5.683-3.43l4.66-3.715.953 1.195-3.685 2.938 1.325 2.248c.074-.33.21-.643.406-.936a3.74 3.74 0 0 1 .783-.828c.845-.673 1.735-.954 2.673-.843.938.111 1.751.599 2.44 1.463.685.86.957 1.792.815 2.796-.142 1.005-.671 1.872-1.587 2.602-.828.66-1.682.973-2.561.939-.88-.035-1.65-.408-2.308-1.12l1.367-1.09c.359.368.767.561 1.225.578.458.018.898-.143 1.322-.48.516-.411.8-.892.853-1.443.053-.552-.135-1.097-.565-1.636-.423-.53-.908-.831-1.453-.902-.546-.07-1.078.101-1.597.515-.293.234-.51.5-.65.8-.14.3-.204.633-.191.998l-1.247.936-2.978-5.015zm13.122.191l1.359-1.307 1.38 1.435c.447.464.695.954.744 1.469.049.515-.102 1.033-.452 1.553l-.559-.58c.17-.248.231-.526.185-.833a1.51 1.51 0 0 0-.427-.834 2.736 2.736 0 0 0-.069-.06 1.763 1.763 0 0 1-.116-.11l-.696.67-1.349-1.403zm3.041-16.79l.81-1.085 8.721 6.515-1.041 1.395-6.085-4.545-1.528 2.046-1.011-.755c.58-.776.878-1.436.897-1.982.019-.546-.236-1.076-.763-1.59zm10.256-4.875c-.309.535-.406 1.04-.291 1.517.114.475.426.86.936 1.154.5.289.987.363 1.46.223.472-.14.859-.47 1.16-.993.317-.549.418-1.064.304-1.545-.115-.481-.435-.874-.962-1.178-.492-.284-.972-.352-1.44-.204-.469.148-.858.49-1.167 1.026zm.361-2.223c.456-.363.961-.557 1.517-.582.555-.025 1.107.121 1.656.438.913.526 1.464 1.242 1.653 2.147.189.905-.016 1.875-.613 2.91-.578 1.002-1.301 1.64-2.17 1.913-.869.274-1.76.148-2.673-.38-.549-.316-.948-.714-1.197-1.195-.25-.48-.338-1.021-.266-1.623-.428.285-.853.437-1.275.453-.422.017-.855-.102-1.299-.358-.777-.448-1.235-1.074-1.374-1.877-.14-.803.06-1.672.6-2.607.52-.9 1.164-1.488 1.934-1.763.77-.275 1.533-.195 2.288.24.444.257.766.573.967.95.201.376.285.82.252 1.334zm-4.193.012c-.263.456-.357.887-.28 1.29.077.405.315.722.715.953.421.243.827.3 1.217.171.39-.129.72-.426.989-.89.268-.466.361-.904.279-1.314-.082-.41-.328-.733-.736-.969-.408-.235-.806-.285-1.195-.15-.388.136-.718.439-.989.909zm8.328-6.77c-.243.568-.28 1.081-.11 1.54.17.459.526.804 1.066 1.035.531.228 1.023.244 1.476.05.453-.195.798-.57 1.035-1.124.25-.582.29-1.106.119-1.57-.17-.465-.535-.817-1.094-1.056-.522-.224-1.007-.234-1.455-.032-.448.203-.793.588-1.037 1.156zm.096-2.25c.409-.415.888-.668 1.437-.758.548-.09 1.114-.01 1.696.239.969.415 1.6 1.06 1.895 1.937.295.876.207 1.863-.264 2.963-.455 1.062-1.098 1.78-1.928 2.155-.83.375-1.73.355-2.7-.06-.582-.25-1.025-.598-1.33-1.046-.304-.447-.456-.974-.456-1.58-.39.334-.795.534-1.212.6-.418.067-.861 0-1.332-.202-.824-.353-1.353-.92-1.587-1.7-.233-.782-.137-1.668.288-2.66.409-.956.98-1.615 1.712-1.98.732-.364 1.499-.375 2.3-.032.47.202.828.478 1.072.828.245.35.38.782.409 1.295zm-4.163.507c-.207.485-.249.923-.125 1.315.125.392.399.68.823.861.447.192.856.2 1.229.026.372-.174.664-.508.876-1.002.211-.493.252-.939.122-1.337-.13-.397-.412-.689-.845-.874-.434-.186-.835-.188-1.205-.008-.37.181-.661.52-.875 1.019zm1.06-5.693l2.134-7.24 1.393.41c.945 1.563 2.039 2.882 3.283 3.96 1.243 1.077 2.674 1.947 4.291 2.608l-.533 1.809a14.343 14.343 0 0 1-4.106-2.538c-1.223-1.077-2.33-2.406-3.322-3.988l-1.602 5.433-1.538-.454z" style="text-align:start;line-height:125%;-inkscape-font-specification:Swis721 Md BT" font-size="58" font-weight="400" fill="#002673" font-family="Swis721 Md BT"/></svg>