<svg xmlns="http://www.w3.org/2000/svg" height="345.656" width="576" xmlns:cgf="https://coding.garden/flags"><metadata id="cgf-metadata">

<cgf:flag>
  <cgf:name>Chattanooga</cgf:name>
  <cgf:route>us/tn/chattanooga</cgf:route>
  <cgf:aspect-ratio>1.6695652173913043</cgf:aspect-ratio>
</cgf:flag>

</metadata><path d="M0 0v345.656h532.813V0H0z" fill="#cc0001" fill-rule="evenodd"></path><path fill="#002d65" fill-rule="evenodd" d="M540 0h36v345.656h-36z"></path><path fill="#fff" fill-rule="evenodd" d="M532.828 0H540v345.656h-7.172zM207.281 101.25l3.516-2.812 3.656-2.532 3.656-2.39 3.938-2.25 3.937-1.969 4.219-1.828 4.219-1.688 4.219-1.547 4.5-1.125 4.5-1.125 4.5-.703 4.64-.703 4.782-.28 4.781-.142 4.781.141 4.781.281 4.641.703 4.5.703 4.5 1.125 4.359 1.125 4.36 1.547 4.218 1.688 4.079 1.828 4.078 1.97 3.797 2.25 3.796 2.39 3.657 2.531 3.515 2.812 3.375 2.813 3.094 3.093 3.094 3.235 2.953 3.375 2.672 3.515 2.672 3.657 2.39 3.656 2.25 3.937 1.969 3.938 1.828 4.22 1.688 4.217 1.406 4.22 1.266 4.5 1.125 4.5.703 4.5.703 4.64.281 4.781.141 4.781-.141 4.781-.281 4.782-.703 4.64-.703 4.5-1.125 4.5-1.266 4.5-1.406 4.22-1.688 4.218-1.828 4.22-1.969 3.936-2.25 3.938-2.39 3.656-2.672 3.656-2.672 3.516-2.953 3.375-3.094 3.234-3.094 3.094-3.375 2.812-3.515 2.813-3.657 2.531-3.796 2.391-3.797 2.25-4.078 1.968-4.079 1.97-4.218 1.546-4.36 1.547-4.359 1.125-4.5 1.125-4.5.703-4.641.703-4.781.281-4.781.141-4.781-.14-4.782-.282-4.64-.703-4.5-.703-4.5-1.125-4.5-1.125-4.219-1.547-4.219-1.547-4.219-1.969-3.937-1.968-3.938-2.25-3.656-2.39-3.656-2.532-3.516-2.813-3.375-2.812-3.234-3.094-3.094-3.234-2.812-3.375-2.813-3.516-2.531-3.656-2.391-3.656-2.25-3.938-1.968-3.937-1.829-4.219-1.687-4.219-1.547-4.219-1.125-4.5-1.125-4.5-.703-4.5-.703-4.64-.281-4.782-.141-4.78.141-4.782.281-4.78.703-4.642.703-4.5 1.125-4.5 1.125-4.5 1.547-4.219 1.687-4.218 1.829-4.219 1.968-3.938 2.25-3.937 2.391-3.656 2.531-3.657 2.813-3.515 2.812-3.375 3.094-3.235 3.234-3.093z"></path><path fill="#002d65" fill-rule="evenodd" d="m212.625 107.578 3.094-2.53 3.375-2.25 3.375-2.25 3.515-1.97 3.657-1.969 3.797-1.687 3.796-1.547 3.938-1.266 4.078-1.125 4.078-.984 4.078-.703 4.36-.563 4.218-.28 4.36-.14 4.359.14 4.36.28 4.218.563 4.078.703 4.219.984 3.938 1.125 3.937 1.266 3.938 1.547 3.656 1.687 3.656 1.97 3.516 1.968 3.515 2.25 3.235 2.25 3.234 2.531 3.094 2.672 2.953 2.813 2.813 2.953 2.671 3.093 2.532 3.094 2.25 3.375 2.25 3.375 1.968 3.516 1.969 3.656 1.688 3.797 1.547 3.797 1.265 3.937 1.125 4.078.985 4.08.703 4.077.562 4.36.281 4.218.141 4.36-.141 4.36-.281 4.358-.562 4.22-.703 4.077-.985 4.22-1.125 3.936-1.265 3.938-1.547 3.937-1.688 3.656-1.969 3.657-1.968 3.515-2.25 3.516-2.25 3.234-2.532 3.235-2.671 3.093-2.813 2.953-2.953 2.813-3.094 2.672-3.234 2.531-3.235 2.25-3.515 2.25-3.516 1.97-3.656 1.968-3.656 1.687-3.938 1.547-3.937 1.266-3.938 1.125-4.219.984-4.078.703-4.218.563-4.36.281-4.359.14-4.36-.14-4.218-.28-4.36-.564-4.078-.703-4.078-.984-4.078-1.125-3.938-1.266-3.796-1.547-3.797-1.687-3.657-1.969-3.515-1.969-3.375-2.25-3.375-2.25-3.094-2.53-3.094-2.673-2.953-2.813-2.812-2.953-2.672-3.093-2.531-3.235-2.25-3.234-2.25-3.516-1.969-3.515-1.969-3.657-1.687-3.656-1.547-3.937-1.266-3.938-1.125-3.937-.984-4.219-.703-4.078-.563-4.219-.281-4.359-.141-4.36.141-4.359.281-4.219.563-4.359.703-4.078.984-4.079 1.125-4.078 1.266-3.937 1.547-3.797 1.687-3.797 1.969-3.656 1.969-3.516 2.25-3.375 2.25-3.375 2.531-3.094 2.672-3.093 2.812-2.953 2.953-2.813z"></path><path fill="#fff" fill-rule="evenodd" d="M293.063 209.672 289.406 207l-3.234-2.39-3.094-2.11-2.672-1.969-2.39-1.828-2.25-1.547-1.969-1.406-1.688-1.125-1.406-1.125-1.265-.844-.985-.703-.703-.562-.703-.422-.422-.28-.141-.283h-.14l-26.438 19.266v-.14l1.407-4.219 1.265-3.797 1.125-3.516.985-3.234.843-2.813.844-2.672.703-2.25.703-1.968.563-1.688.422-1.406.281-1.266.422-.844.14-.843.141-.422.141-.28v-.142l-26.86-19.266h32.907l10.406-31.218v-.422l10.265 31.64h33.329l-3.657 2.532-3.234 2.39-3.094 2.11-2.672 1.968-2.531 1.828-2.109 1.547-1.969 1.407-1.828 1.125-1.406 1.125-1.266.843-1.125.844-.844.563-.562.421-.563.282-.14.281h-.141l10.266 31.36z"></path><g fill="#fff" stroke="#002d65" stroke-miterlimit="10" stroke-linecap="square"><g stroke-width=".25"><path fill-rule="evenodd" d="m244.828 243.563 1.688-.422 1.125-.844 1.125-.984 1.265-1.125 1.407-1.125 2.109-1.125 2.953-.985 4.078-.703v-1.125l-2.25-.28-1.406-.564-.703-.703-.281-.984v-.985l-.141-.843-.281-.703-.844-.282-1.547.282-1.266.843-1.125.985-.984.14-.422-.422-.14-.703v-2.25l-.282-1.125-.562-.984-.985-.844-1.828-.562-1.406-.14-.984.421-.422.562-.422.844-.281.844-.282.562-.562.422-.984-.14-1.266-1.125-.703-1.969-.985-1.828-1.968-.985-2.11.563-1.125 1.687-.422 1.83v.842l-.281-.984-1.265-.563-.985.563-1.125.281-1.406.141-1.547.14-1.406.282-1.406.422-1.125.703-.704 1.265-.281 2.532.563 1.968 1.125 1.547 1.265.985 1.407.421h2.25l1.265.282.703 1.125 1.266 1.265h1.828l1.406-.843-.14 1.687-.141 1.688.703 1.546 2.25 1.125 2.672.282 1.547-.985.984-1.547.844-1.546 1.547 2.11z"></path><path d="M255.375 236.531h-1.828l-1.828.141-1.969.141h-1.969l-2.109.14h-2.109l-2.11-.14-2.109-.14-2.25-.282-2.25-.422-2.11-.563-2.25-.703-2.109-.844-2.109-1.125-2.11-1.265-2.109-1.547m12.516-4.359.984 2.812.984 1.547m3.797 7.594-1.828 1.125-.844 1.547-.281 1.546v.563m10.828-3.937-1.547 1.124-.281.563"></path><path d="m243.844 229.22.703 1.264.844 1.266.703 1.266.844.984.843.844.985.562 1.265.422h1.266m-21.234-7.312 1.265 2.11 1.547 1.546 1.547 1.125 1.406.703 1.266.422 1.125.281.703.141h.281m14.485-3.374-.141 1.264.422 1.266.703.984.422.422"></path></g><g stroke-width=".25"><path fill-rule="evenodd" d="m225.844 229.36.562.281.703.14.704.141.703.141.843.14.704.281.984.141.844.422.984.422 1.125.703 1.266.703 1.265 1.125 1.407 1.266 1.546 1.547.844-.282-1.265-1.968-.282-1.547.282-.985.562-.843.844-.704.703-.703.562-.843v-.985l-1.406-1.125-1.547-.422-1.547-.28-.703-.563.141-.704.562-.562.844-.563.844-.703.844-.843.562-1.125.141-1.407-.422-1.828-.844-1.265-.844-.422-.843-.14-.844.28-.844.282h-.703l-.562-.14-.563-.845-.141-.844.422-.843.563-.844.562-.844.563-.984.422-.844.14-.984-.422-1.125-1.546-1.407-2.11.141-1.687.703-.703.422.562-.844-.562-1.125-.844-.422-.844-.843-.844-1.125-.984-1.266-.984-.984-1.125-.844-1.266-.422-1.406.141-2.391 1.125-1.266 1.547-.562 1.687v1.547l1.125 2.531.844 1.97-.422 1.405-.563 1.688 1.266 1.265 1.547.563-1.406.984-1.266.985-.984 1.406.281 2.531 1.265 2.25 1.688.844h1.687l1.688-.14-.422 2.25.563 1.546.703.563z"></path><path d="m236.391 232.734-1.125-1.406-1.125-1.406-1.266-1.547-1.125-1.687-1.266-1.688-1.265-1.687-1.125-1.829-1.125-1.828-.985-1.968-.984-2.11-.844-2.109-.562-2.11-.563-2.39-.422-2.25-.14-2.53v-2.533m10.687 7.594-1.547 2.531-.703 1.547m-4.218 7.735-1.969-.985-1.688.281-1.265.563-.563.281m9 6.61-2.25-.282"></path><path d="m235.547 219.094-.563 1.265-.562 1.266-.563 1.266-.421 1.265-.141 1.266.141 1.266.281 1.125.844 1.265m-6.188-21.375-.844 2.11-.422 1.968v1.828l.141 1.688.281 1.406.422.985.281.703.141.281m11.109 9.844-1.968 1.547-.703 1.687"></path></g><g stroke-width=".25"><path fill-rule="evenodd" d="m211.219 221.625-.281 1.547.421 1.125.704.703.703.422.703.281.703.141.703.14h.703l.703-.14.563-.14.844-.14.703-.142.984-.14.984-.14 1.125.14 1.125.14 1.547.281 1.547.422 1.828.563 1.969.843.563-.843-1.688-1.407-.844-1.125-.14-.984.281-.984.422-.844.422-.844.14-.844-.422-.843-1.546-.563h-1.547l-1.547.141-1.125-.422-.141-.563.422-.703.563-.844.703-.843.422-1.125v-1.266l-.563-1.406-1.266-1.406-1.125-.844-.843-.14-.844.28-.563.563-.703.562-.562.282h-.703l-.703-.703-.422-.704-.141-.843.281-.985.282-.984.14-1.125.141-.984-.422-.844-.703-.844-1.969-.703-1.828.844-1.266 1.125-.562.703.14-.985-.843-.843h-1.125L207 202.22l-1.266-.703-1.265-.703-1.266-.704-1.265-.42-1.125.14-1.125.562-1.969 2.11-.563 1.968.141 1.828.703 1.406 1.688 1.828 1.687 1.266v1.547l.281 1.97 1.547.561 1.406.141-.843 1.265-.703 1.407-.141 1.687 1.125 2.25.984 1.125.985.563.984.14.844-.14.844-.282.843-.562.844-.422z"></path><path d="m225.141 224.578-1.547-.844-1.688-.984-1.687-.844-1.688-.984-1.828-1.125-1.687-1.125-1.828-1.125-1.688-1.406-1.687-1.407-1.688-1.406-1.547-1.687-1.406-1.688-1.406-1.969-1.266-1.968-1.125-2.25-.984-2.39m12.937 2.952-.422 2.953v1.97m-1.265 8.437h-2.11l-1.687.703-.985 1.125-.421.422m11.531 2.672-1.969.421-.844.422"></path><path d="m219.375 212.625-.141 1.406v1.547l-.14 1.266.14 1.406.282 1.266.422 1.125.843.984 1.125.844m-13.781-17.859v2.25l.422 2.11.703 1.686.844 1.547.844 1.125.843.844.563.562.14.141m13.922 4.922-.984.844-.141 1.547v1.265l.141.563"></path></g><g stroke-width=".25"><path fill-rule="evenodd" d="m206.578 203.906.985.703 1.125.985 1.125 1.125 1.406 1.828 1.406 2.531 1.406 3.516h.703l-.14-2.11.281-1.406.703-.844.844-.42.844-.423.703-.282.562-.42.282-.845-.422-1.266-1.125-.844-.985-.843-.422-.985.282-.422.703-.28.984-.14.985-.142.984-.422.844-.703.562-1.125.281-1.688-.14-1.265-.563-.703-.562-.282-.703-.14-.844-.14-.563-.14-.421-.423-.141-.844.844-1.266 1.547-.984 1.546-1.266.563-1.828-.844-1.687-1.547-.563h-1.547l-.703.141.844-.563-.141-.984-.562-.844-.563-1.125-.281-1.265-.281-1.407-.422-1.265-.562-1.125-.844-.844-1.125-.563-2.391.141-1.687.984-1.125 1.266-.563 1.406-.14 2.11.14 1.968-.844.985-.984 1.265.281 1.688.985 1.125-1.547.141-1.406.281-1.407.984-.703 2.25.141 2.11 1.125 1.125 1.547.562 1.406.703-1.266 1.688.282 1.265.562 1.266z"></path><path d="m213.188 209.531-.422-1.547-.282-1.546-.421-1.688-.422-1.828-.422-1.688-.281-1.828-.282-1.968-.14-1.829-.141-1.968v-1.969l.141-2.109.281-1.969.281-2.11.703-1.968.703-2.11.985-2.109m5.906 10.266-2.391 1.406-1.265 1.265m-6.047 4.5-1.406-1.406-1.688-.562-1.406-.14h-.563m5.485 9.14-1.406-.985-.844-.28"></path><path d="m217.547 198.422-.984.844-1.125.843-.844.844-.844.844-.562.844-.422.984-.141 1.125.281 1.125m2.953-19.547-1.406 1.406-1.125 1.547-.703 1.407-.422 1.406-.281 1.265-.141.985v.844m5.203 12.375-1.125-.14-.984.702-.984.703-.282.422"></path></g><g stroke-width=".25"><path fill-rule="evenodd" d="m196.313 199.547.562.281.563.141.562.14.703.141.703.141.703.14.704.141.843.281.844.422.984.563 1.125.843 1.125.844 1.266 1.266 1.406 1.406.844-.422-.984-1.687-.141-1.266.281-.844.563-.703.562-.562.563-.563.281-.703-.141-.844-.984-1.125-1.266-.422-1.265-.28-.563-.423.141-.703.562-.562.704-.422.843-.703.844-.704.422-.984.141-1.125-.563-1.687-.703-1.125-.703-.563-.844-.14-.703.14-.844.281-.562.141-.563-.14-.281-.704.281-1.547.985-1.547.984-1.828-.281-1.828-1.547-1.406-1.828.141-1.547.562-.703.422.422-.703-.422-.985-.844-.562-.703-.703-.844-1.125-.703-.985-.844-.984-.984-.844-.985-.422h-1.125l-2.25 1.125-1.265 1.547-.563 1.547v1.547l.844 2.11.984 1.546-.703 1.266-.281 1.687.984 1.266 1.407.703-1.266.703-1.266.844-.843 1.266.281 2.25 1.125 2.11 1.406.702 1.688-.14 1.406-.14-.422 2.25.563 1.405.562.563z"></path><path d="m205.875 202.5-.984-1.266-.985-1.265-1.125-1.406-.984-1.407-1.125-1.547-.984-1.546-1.125-1.688-.844-1.687-.985-1.688-.843-1.828-.703-1.969-.563-1.969-.562-1.968-.282-2.11-.14-2.25v-2.25m9.703 6.891-1.547 2.25-.703 1.547m-3.797 6.89-1.688-.984-1.546.281-1.266.563-.422.281m8.016 5.766-2.25-.282"></path><path d="m205.313 190.547-.563 1.125-.562.984-.563 1.125-.422 1.125-.281 1.125.141 1.125.281.985.703.984M199.125 180l-.844 1.828-.422 1.828-.14 1.688.281 1.406.281 1.266.422.843.281.704.141.14m9.281 9.281-1.547 1.407-.703 1.406"></path></g><g stroke-width=".25"><path fill-rule="evenodd" d="m199.125 178.594.563.844.843 1.125.844 1.265.563 1.828.562 2.532.141 3.375.984.14.281-1.828.563-.984.703-.563h2.391l.562-.14.281-.704v-1.406l-.562-1.125-.563-.844.141-.703.281-.422.563-.14.843.14.844.141h.985l.984-.28.844-.704.703-1.407.14-1.265-.14-.703-.563-.563-.562-.28-.563-.282-.422-.282-.281-.42.281-.705.844-.984 1.688-.422 1.687-.562.985-1.407-.141-1.687-1.266-1.125-1.265-.563-.703-.14.703-.28.14-.845-.14-.844-.141-1.125.141-1.125v-2.391l-.141-1.125-.422-.843-.844-.703-2.109-.563-1.687.141-1.266.843-.984.985-.563 1.97-.562 1.686-1.125.563-1.266.562.141 1.688.562 1.125-1.406-.282-1.406-.14-1.266.422-1.266 1.687-.422 2.11.563 1.406 1.125.984.844.984-1.407.985-.562 1.125.141 1.265z"></path><path d="m203.344 185.063.14-1.407.141-1.547.141-1.546.14-1.547.141-1.688.281-1.687.281-1.688.422-1.687.422-1.688.563-1.687.562-1.688.844-1.687.984-1.547.985-1.688 1.265-1.406 1.407-1.547m1.968 10.125-2.25.703-1.547.703m-6.187 2.111-2.109-2.25-1.688-.423m2.109 9-.984-1.266-.562-.562"></path><path d="m210.094 176.766-2.11.843-1.828 1.125-1.547 1.407-.562 2.11m8.016-16.173-2.954 1.828-1.828 2.11-.843 1.828-.282.703m1.266 11.953-2.109-.14-1.266.703"></path></g><g stroke-width=".25"><path fill-rule="evenodd" d="m190.406 168.75.844.703.984.844.985 1.125.984 1.547 1.125 2.25.985 3.234h.703v-1.828l.281-1.125.562-.703.844-.28.844-.142.703-.14.563-.422.281-.844-.281-1.266-.985-.844-.984-.703-.422-.843.422-.422.844-.14h.843l.985-.142.843-.14.844-.563.703-.984.282-1.547-.141-1.125-.422-.703-.562-.422-.704-.14-.703-.282-.562-.14-.281-.422v-.844l.984-1.125 1.687-.563 1.547-.843.703-1.688-.703-1.547-1.406-.703-1.547-.14h-.703l.563-.422.14-1.266-.562-.703-.282-.984-.281-1.125-.14-1.125-.282-1.125-.422-.985-.703-.844-.984-.42-2.109-.142-1.547.562-1.125 1.125-.422 1.125-.281 1.97.14 1.827-1.265.844-.844 1.266.281 1.125.563.984h-1.266l-1.406.141-1.125.843-.703 1.83-.141 1.967.984 1.266 1.266.844 1.266.562-1.407 1.406v1.266l.422 1.266z"></path><path d="m195.609 174.234-.14-1.406-.281-1.547-.141-1.547-.281-1.687-.141-1.688-.141-1.687v-5.203l.141-1.828.281-1.828.422-1.829.563-1.828.703-1.828.844-1.687.984-1.828m4.219 9.562-1.828 1.266-1.125 1.125m-6.047 3.515-1.125-1.547-1.407-.562-1.125-.14h-.562m4.078 8.438-1.828-1.126"></path><path d="m200.391 164.25-1.828 1.406-1.547 1.547-1.125 1.688-.282 1.968m4.5-17.718-2.531 2.531-1.406 2.672-.422 1.97-.141.842m4.079 11.532-2.25.562-1.125.984"></path></g><g stroke-width=".25"><path fill-rule="evenodd" d="m198 149.484-.141.985-.281 1.125-.281 1.265-.703 1.547-1.406 1.828-1.969 2.25.14.422 1.407-.843.984-.14.703.14.563.421.562.563.422.562.703.282.703-.14.985-1.97.703-1.547.844.422.843 1.266 1.407 1.125 2.25-.28 1.406-1.267v-1.266l-.281-1.125.703-.562 1.265.141 1.266.843 1.266.703 1.546-.28.985-1.266-.141-1.547-.562-1.266-.282-.562.704.421.843-.42.985-1.267 1.687-1.266 1.406-1.406.282-1.969-.985-1.828-1.125-.984-1.265-.28h-1.125l-1.547.842-1.688.703-.984-.42-1.406-.423-.985.843-.281 1.266-.562-.984-.704-1.125-1.125-.563-1.687.141-1.828.984-.703 1.266.14 1.265.141 1.266-1.688-.28-.843.561-.844.844z"></path><path d="m196.172 155.953.984-.703.985-.844 1.125-.843 1.125-.844 1.265-.844 1.125-.844 1.266-.843 1.406-.844 1.406-.844 1.407-.562 1.547-.704 1.546-.42 1.547-.423 1.688-.282 1.828-.14h1.828m-5.062 8.015-1.969-1.265-1.266-.563m-5.625-3.234.703-1.406-.14-1.266-.422-.984-.281-.422m-4.5 7.172.14-2.11"></path><path d="m205.875 155.531-1.828-.843-1.969-.704-1.828-.14-1.828.703m15.609-4.219-2.953-.984-2.531.14-1.688.563-.703.281m-7.031 7.735-1.406-1.266-1.406-.422"></path></g><g stroke-width=".25"><path fill-rule="evenodd" d="m198.844 141.61.422 1.124.281 1.407v1.968l-.141 2.532.422.281.563-1.266.703-.703.703-.28h.562l.704.28.421.141.563-.14.281-.423.281-.984-.281-.984-.422-.985.141-.703.844-.14 1.265.421h1.547l1.547-1.406.281-1.406-.562-.985-.844-.703v-.843l.984-.563 1.407-.14 1.406-.14 1.266-.986-.141-1.406-.844-1.125-1.125-.562-.422-.282.985-.42.14-1.689.422-1.969.141-1.828-.703-1.406-1.547-.844-1.406-.14-1.125.421-.844.563-.703 1.547-.703 1.406-1.969.563-.422 2.11-.844-.423-.984-.28-.985.14-.984.984-.844 1.687.282 1.125.703.985.703.843-1.547.704-.422 1.125-.141 1.125.141.843.422.844z"></path><path d="m200.109 145.406.282-1.125.422-1.125.281-1.265.422-1.266.422-1.266.421-1.265.563-1.406.562-1.266.563-1.266.844-1.265.703-1.266.984-1.266.985-1.125 1.125-.984 1.265-.984 1.406-.985m0 8.439h-1.968l-1.266.14m-5.625 1.124-1.125-2.39-1.266-.703m.141 7.593-.562-1.265"></path><path d="m207.141 139.781-1.969.282-1.688.562-1.406.844-.703 1.547m8.719-11.672-2.531 1.125-1.829 1.547-.984 1.265-.281.563m-.844 9.844-1.969-.422-1.265.422"></path></g><g stroke-width=".25"><path fill-rule="evenodd" d="m203.625 141.188-1.969 1.406v.422l1.266-.422h.984l.563.281.422.563.281.421.281.422.281.282h.563l1.266-1.407.703-1.125.843.563.563 1.265.984.985h1.828l1.125-.703.141-.985.141-.843.703-.563.844.281.843.985.985.703 1.265.14 1.125-1.968-.281-1.407.984.422 1.125-1.125 1.547-.984 1.266-.984.281-1.407-1.125-2.39-1.687-.844-1.547.422-1.406.562-1.407-1.125-1.687 1.547-.703-2.109-2.11-.563-1.547.422-.703.844-.281.984-.141.703h-2.109l-.703.563-.422.703-.281.844-.281.844-.563.984-.844 1.125z"></path><path d="m204.328 141.188.985-.563.984-.422.984-.562.985-.563 1.125-.562 1.125-.422 1.265-.563 1.125-.28 1.266-.423 1.266-.28 1.406-.282 1.406-.14h2.813l1.406.14 1.547.281m-5.766 5.484-1.266-1.406-.843-.703m-4.078-3.234.984-1.829-.281-1.265m-5.063 4.781.422-1.687"></path><path d="m212.484 142.172-1.406-.844-1.406-.844-1.547-.42-1.687.42m13.359-1.124-2.25-1.407-2.109-.28-1.407.14-.562.14m-7.172 5.344-.844-1.266-.844-.422"></path></g><g stroke-width=".25"><path fill-rule="evenodd" d="m210.938 130.36-.141 1.124-.563 1.407-.984 1.547-1.547 1.968.141.282 2.109-.844 1.125.422.844.843h.984l.844-1.546.281-1.407.844.422.844.844 1.265.703 1.829-.562.984-.844-.141-.985-.281-.843.563-.703h.984l.984.562 1.125.563 1.266-.422.703-.985-.141-1.265-.421-1.125-.282-.422h1.266l.703-1.125 1.125-1.125.984-1.266v-1.547l-.703-1.406-.984-.703-1.125-.28-1.125.14-1.125.843-1.266.563-1.828-.422-.844 1.828-.703-.703-.703-.844-.984-.563-1.547.282-1.125.984-.281 1.125V126l.14.844-1.265-.14-.985.562-.562.703-.141.703v.844z"></path><path d="m210.094 134.438.703-.704.703-.843.844-.703.844-.844.984-.844.844-.844 1.125-.703.984-.844 1.125-.703 1.125-.703 1.266-.562 1.265-.422 1.407-.422 1.406-.422 1.406-.14 1.547-.14m-4.078 6.468-1.688-.704-.843-.28m-4.641-2.109.141-2.25-.704-1.126m-3.375 6.047.282-1.688"></path><path d="m217.969 133.031-1.688-.562-1.547-.422h-1.546l-1.407.844m12.516-4.641-2.531-.562-2.11.281-1.265.562-.422.282m-5.203 7.171-1.266-1.125-1.266-.28"></path></g><g stroke-width=".25"><path fill-rule="evenodd" d="M213.469 120.234v1.969l-.281 1.406-.563 1.83-1.125 2.25.141.28.984-.985.844-.42h.562l.563.14.562.421.422.281H216l.563-.14.562-1.828.281-1.407.703.141.985.844 1.265.422 1.688-.704.844-1.125-.282-.843-.421-.844.281-.844 1.125-.14 1.125.421 1.265.282 1.125-.563.422-.984-.422-1.125-.703-.844-.281-.28 1.547-.142.422-1.406.984-1.547.703-1.406-.281-1.547-.984-1.266-1.125-.562h-1.125l-.844.281-1.125.984-.844 1.125-1.265-.28-.844.14-.985 1.687-.562-.703-.844-.703-.984-.14-1.406.421-.985 1.125-.14.985.281.984.422.844-1.547.422-.844.703-.281.844-.141.703z"></path><path d="m213.328 124.734.563-.843.703-.844.703-.844.703-.984.844-.844.703-.984.984-.844.844-.984.984-.844.985-.844 1.125-.703 1.125-.703 1.125-.563 1.265-.562 1.407-.563 1.406-.28m-2.672 7.171-1.547-.563-1.125-.14m-5.203-1.125.141-2.53-.844-.986m-2.531 6.75-.282-1.687"></path><path d="m221.063 122.344-1.829-.422-1.546-.14-1.547.421-1.125.985m11.39-6.61-2.672-.14-1.968.562-1.266.703-.422.422m-4.219 8.156-1.125-1.265-1.125-.14"></path></g><g stroke-width=".25"><path fill-rule="evenodd" d="M219.516 118.266v.703l1.265-.422h.985l.562.281.422.422.141.422.281.422.422.281.562-.14 1.407-1.126.562-1.125.844.563.422 1.125.843.844h1.829l1.265-.703.141-.844v-.844l.844-.422.843.281.844.844.984.844 1.125.141 1.125-.844.282-1.125-.141-1.125-.141-.563.844.282 1.125-.985 1.406-.844 1.266-.843.563-1.407-1.266-2.67-1.688-.705-1.546.422-1.407.422-1.406-.984-1.687 1.406-.563-1.828-2.25-.563-2.109 1.266-.282 1.828-1.406-.422-.844.282-.703.562-.422.703-.281.703-.281.844-.563.984-.843.985-1.407 1.265z"></path><path d="m222.047 117.141.984-.422.985-.563.984-.562 1.125-.563 1.125-.422 1.125-.562 1.125-.422 1.266-.422 1.265-.422 1.266-.28 1.266-.282 1.406-.14 1.406-.14 1.406.14 1.547.14 1.547.281m-6.047 5.344-1.265-1.266-.985-.703m-3.656-3.094.703-2.25-.422-1.406m-4.5 5.063.281-1.547"></path><path d="M230.063 118.125 228.656 117l-1.265-.844-1.547-.28-1.547.28m13.219-.984-2.25-1.266-1.969-.28-1.406.28-.563.141m-7.172 5.344-.843-1.407-.985-.703"></path></g><g stroke-width=".25"><path fill-rule="evenodd" d="m232.734 111.516.844.422.703.562.844.141.703-1.125.281-1.266.844.281.563.844.984.703 1.547-.28.703-.845v-.844l-.281-.703.422-.562.843.14.844.704.985.421h.984l.562-1.968-.703-1.266h1.266l.562-.703.985-.984.844-.985.14-1.125-1.125-1.828-1.547-.14-2.109.703-1.547-.282-1.266 1.266-.703-1.266-1.968-.14-1.547 1.406.14 1.687-1.687.141-.422.563-.281.703-.141.703-.141.703-.281.844-.422.984-.843 1.266-1.407 1.406.282.562z"></path><path d="m232.875 110.25 1.406-1.125 1.547-1.125 1.547-1.125 1.828-1.125 1.828-.984 2.11-.844 2.25-.422 2.39-.14m-3.797 4.921-1.968-.984m-3.657-1.547.282-1.969-.563-.984m-2.953 4.5.141-.984"></path><path d="m239.344 109.828-1.266-.562-1.125-.563h-1.125l-1.125.422m9.985-2.812-1.969-.704-1.688.141-1.125.281-.422.282m-4.64 5.484-1.547-1.266"></path></g><path fill-rule="evenodd" stroke-width=".25" d="m256.609 251.625.985-.984.844-1.125-1.125-2.532-1.688-1.828-2.109-1.125-1.969-.422-.984.844-.844 1.125-.703 1.266-.422 1.406-.281 1.406v1.266l.281.984.703.844.844.422 1.125.281 1.406-.14 1.266-.282 1.406-.562z"></path><path fill-rule="evenodd" stroke-width=".25" d="m261.422 249.328.422-1.265-.141-1.407-.562-1.265-.703-1.266-.844-.984-.703-.563-1.969-1.125-1.688-.703-1.406-.28h-1.125l-.984.28-.703.703-.563.985-.281 1.125 1.969.14 1.828.563 1.406.843 1.125 1.125.984 1.125.563 1.266.422 1.266.14 1.125 1.829-.703z"></path><path stroke-width=".5" d="m258.328 243.141 1.266-2.11v-.984"></path><path fill-rule="evenodd" stroke-width=".25" d="m244.797 215.703 1.266.281 1.265.704 1.266.843 1.125.985.844 1.125.562 1.406-.703 1.125-.703.984-1.125.844-.985.703-1.265.422-1.125.422h-2.391l-.562-1.125-.282-1.266-.421-1.406-.141-1.547v-1.406l.141-1.266.421-1.125.704-.703.984-.14z"></path><path fill-rule="evenodd" stroke-width=".25" d="M254.109 222.188v1.265l-.421 1.266-.704 1.125-.984.984-1.125.703-.844.422-2.109.703-1.688.422h-1.406l-1.125-.28-.844-.564-.562-.703-.281-.984v-.984l2.109.14 1.828-.14L247.5 225l1.266-.844 1.125-.984.703-1.125.562-.984.282-1.125 1.687.984z"></path><path stroke-width=".5" d="m249.75 227.531.703 2.25-.422.985"></path><path fill-rule="evenodd" stroke-width=".25" d="m245.188 236.391-1.969 1.265-.703 1.547.703 1.828 1.828 1.547 2.391 1.125 2.531.141.984-2.25.281-2.39-.281-2.25-.984-1.829-2.391.281z"></path><path fill-rule="evenodd" stroke-width=".25" d="m252.141 245.391.984-.422.844-.985.562-1.125.422-1.265.141-1.266v-.844l-.422-1.828-.703-1.547-.563-.984-.703-.703-.844-.422h-.843l-.844.141-.844.562 1.125 1.547.563 1.547.281 1.406v1.406l-.422 1.125-.422 1.125-.562.844-.563.563 1.547.984z"></path><path stroke-width=".5" d="m254.25 239.766 2.109-.422.422-.422"></path></g><g fill="#fff" stroke="#002d65" stroke-miterlimit="10" stroke-linecap="square"><g stroke-width=".25"><path fill-rule="evenodd" d="m287.859 243.563-1.687-.422-1.125-.844-1.125-.984-1.125-1.125-1.547-1.125-2.109-1.125-2.813-.985-3.937-.703-.141-1.125 2.25-.28 1.266-.564.703-.703.281-.984.141-.985v-.843l.281-.703.844-.282 1.687.282 1.406.843 1.125.985.844.14.422-.422.141-.703v-1.125l.14-1.125.141-1.125.703-.984 1.125-.844 1.969-.562 1.406-.14.844.421.562.562.282.844.281.844.281.562.422.422.844-.14 1.265-1.125.703-1.969.985-1.828 1.828-.985 2.109.563 1.125 1.687.422 1.83v.842l.422-.984 1.125-.563.984.563 1.125.281 1.407.141 1.547.14 1.406.282 1.406.422 1.125.703.703 1.265.281 2.532-.562 1.968-.984 1.547-1.125.985-1.407.421H306l-1.266.282-.562 1.125-1.406 1.265h-1.688l-1.406-.843.141 1.687v1.688l-.704 1.546-2.25 1.125-2.531.282-1.547-.985-.984-1.547-.984-1.546-1.547 2.11z"></path><path d="m279 231.47.281 1.264-.422 1.266-.703.984-.422.422m24.891-6.89-1.266 2.11-1.546 1.546-1.407 1.125-1.547.703-1.265.422-.985.281-.703.141h-.281m-4.641-5.624-.703 1.264-.703 1.266-.703 1.266-.703.984-.984.844-.985.562-1.265.422h-1.407m3.094 2.532 1.406 1.124.422.563m5.906-2.531 1.829 1.125.984 1.547.141 1.546v.563m2.812-16.734-.844 2.812-.843 1.547"></path><path d="M277.734 236.531h1.688l1.828.141 1.828.141h1.969l2.109.14h1.969l2.25-.14 2.109-.14 2.11-.282 2.25-.422 2.25-.563 2.109-.703 2.25-.844 2.11-1.125 2.109-1.265 2.109-1.547"></path></g><g stroke-width=".25"><path fill-rule="evenodd" d="m308.25 228.375-.703.563-.703.421-.563.282-.703.14-.703.141-.703.141-.844.14-.703.281-.984.141-.844.422-.984.422-1.125.703-1.266.703-1.266 1.125-1.406 1.266-1.547 1.547-.844-.282 1.266-1.968.281-1.547-.281-.985-.562-.843-.844-.704-.703-.703-.422-.843v-.985l1.265-1.125 1.688-.422 1.406-.28.703-.563-.14-.704-.422-.562-.844-.563-.984-.703-.844-.843-.563-1.125-.14-1.407.422-1.828.843-1.265.985-.422.844-.14.843.28.844.282h.703l.703-.14.563-.845v-.844l-.281-.843-.563-.844-.703-.844-.563-.984-.421-.844-.141-.984.422-1.125 1.547-1.407 1.968.141 1.688.703.703.422-.562-.844.562-1.125.984-.422.844-.843.844-1.125.984-1.266.985-.984 1.125-.844 1.125-.422 1.406.141 2.391 1.125 1.265 1.547.563 1.687v1.547l-1.125 2.531-.844 1.97.562 1.405.563 1.688-1.266 1.265-1.687.563 1.547.984 1.265.985.844 1.406-.281 2.531-1.266 2.25-1.687.844h-1.688l-1.687-.14.703 1.124-.141 1.125-.422.985z"></path><path d="m293.203 228.516 2.11 1.547.703 1.687m8.297-24.047.843 2.11.422 1.968.141 1.828-.141 1.688-.422 1.406-.281.985-.281.703-.141.281m-7.172.422.703 1.265.563 1.266.422 1.266.422 1.265.14 1.266-.14 1.266-.422 1.125-.844 1.265m4.359-1.265 2.25-.282m1.266-6.468 1.969-.985 1.687.281 1.266.563.562.281m-11.812-11.953 1.547 2.531.562 1.547"></path><path d="m296.719 232.734 1.125-1.406 1.125-1.406 1.125-1.547 1.265-1.687 1.125-1.688 1.125-1.687 1.125-1.829 1.125-1.828.985-1.968.844-2.11.843-2.109.703-2.11.422-2.39.422-2.25.141-2.53v-2.533"></path></g><g stroke-width=".25"><path d="m306.281 219.797.985.844.281 1.547v1.265l-.141.563"></path><path fill-rule="evenodd" d="m321.891 221.625.14 1.547-.562 1.125-.844.703-.703.422-.703.281-.703.141-.703.14h-.704l-.703-.14-.562-.14-.844-.14-.703-.142-.984-.14-.985-.14-1.125.14-1.125.14-1.547.281-1.547.422-1.828.563-1.968.843-.563-.843 1.688-1.407.843-1.125.141-.984-.281-.984-.422-.844-.422-.844-.141-.844.422-.843 1.688-.563h1.547l1.406.141 1.125-.422.14-.563-.421-.703-.563-.844-.703-.843-.422-1.125v-1.266l.563-1.406 1.265-1.406 1.125-.844.844-.14.844.28.703.563.562.562.703.282h.563l.703-.703.422-.704.141-.843-.141-.985-.281-.984-.282-1.125v-.984l.282-.844.703-.844 1.969-.703 1.828.844 1.265 1.125.563.703-.141-.985.844-.843h1.125l1.266-.422 1.265-.703 1.266-.703 1.265-.704 1.266-.42 1.125.14 1.125.562 1.969 2.11.703 1.968-.281 1.828-.563 1.406-1.828 1.828-1.687 1.266v1.547l-.282 1.97-1.547.561-1.406.141.844 1.265.703 1.407.141 1.687-1.125 2.25-.844 1.125-.984.563-.844.14-.985-.14-.843-.282-.844-.562-.703-.422z"></path><path d="m308.109 224.578 1.407-.844 1.687-.984 1.547-.844 1.688-.984 1.687-1.125 1.688-1.125 1.687-1.125 1.828-1.406 1.547-1.407 1.688-1.406 1.546-1.687 1.407-1.688 1.406-1.969 1.266-1.968 1.125-2.25.984-2.39m-12.938 2.952.422 2.953v1.97m1.266 8.437h2.109l1.688.703.984 1.125.422.422M315 222.61l1.828.421.703.422"></path><path d="m313.313 212.625.14 1.406v1.547l.141 1.266-.141 1.406-.14 1.266-.563 1.125-.703.984-1.125.844m13.641-17.859v2.25l-.422 2.11-.703 1.686-.844 1.547-.844 1.125-.844.844-.562.562-.141.141"></path></g><g stroke-width=".25"><path fill-rule="evenodd" d="m326.25 203.906-.984.703-1.125.985-1.266 1.125-1.406 1.828-1.406 2.531-1.407 3.516h-.703l.141-2.11-.281-1.406-.704-.844-.703-.42-.984-.423-.703-.282-.563-.42-.281-.845.422-1.266 1.125-.844.984-.843.422-.985-.281-.422-.703-.28-.985-.14-.984-.142-.984-.422-.844-.703-.563-1.125-.281-1.688.141-1.265.562-.703.563-.282.703-.14.844-.14.562-.14.422-.423.141-.844-.844-1.266-1.547-.984-1.547-1.266-.562-1.828.843-1.687 1.547-.563h1.547l.703.141-.703-.563v-.984l.563-.844.562-1.125.281-1.265.282-1.407.422-1.265.562-1.125.844-.844 1.125-.563 2.39.141 1.829.984.984 1.266.562 1.406.141 2.11-.141 1.968.985.985.844 1.265-.282 1.688-.984 1.125 1.547.141 1.406.281 1.406.984.703 2.25-.14 2.11-1.125 1.125-1.547.562-1.406.703 1.265 1.688-.14 1.265-.563 1.266z"></path><path d="m319.5 209.531.422-1.547.281-1.546.422-1.688.422-1.828.422-1.688.281-1.828.281-1.968.141-1.829.141-1.968v-1.969l-.141-2.109-.281-1.969-.282-2.11-.703-1.968-.703-2.11-.984-2.109m-5.906 10.266 2.39 1.406 1.266 1.265m6.328 4.5 1.266-1.406 1.546-.562 1.407-.14h.562m-5.344 9.14 1.266-.985.844-.28"></path><path d="m315.141 198.422.984.844 1.125.843.844.844.844.844.562.844.422.984.141 1.125-.282 1.125m-2.953-19.547 1.406 1.406 1.125 1.547.844 1.407.422 1.406.281 1.265.141.985v.844m-5.344 12.375 1.125-.14.985.702.984.703.281.422"></path></g><g stroke-width=".25"><path fill-rule="evenodd" d="m336.375 199.547-.562.281-.563.141-.562.14-.704.141-.703.141-.703.14-.703.141-.844.281-.843.422-.985.563-1.125.843-1.125.844-1.265 1.266-1.407 1.406-.843-.422.984-1.687.141-1.266-.282-.844-.422-.703-.703-.562-.562-.563-.281-.703.14-.844.985-1.125 1.406-.422 1.125-.28.703-.423-.141-.703-.562-.562-.844-.422-.844-.703-.703-.704-.422-.984-.14-1.125.562-1.687.703-1.125.703-.563.704-.14.843.14.703.281.563.141.562-.14.282-.704.14-.844-.14-.703-.563-.843-.562-.704-.563-.843-.422-.985-.14-.843.281-.985 1.547-1.406 1.969.141 1.406.562.703.422-.422-.703.422-.985.844-.562.703-.703.844-1.125.843-.985.844-.984.844-.844 1.125-.422h1.125l2.25 1.125 1.265 1.547.422 1.547v1.547l-.843 2.11-.985 1.546.703 1.266.282 1.687-.985 1.266-1.406.703 1.266.703 1.406.844.703 1.266-.281 2.25-1.125 2.11-1.407.702-1.687-.14-1.406-.14.562 2.25-.703 1.405-.562.563z"></path><path d="m326.813 202.5.984-1.266.984-1.265 1.125-1.406.985-1.407 1.125-1.547.984-1.546 1.125-1.688.984-1.687.844-1.688.844-1.828.703-1.969.563-1.969.562-1.968.281-2.11.141-2.25v-2.25m-9.703 6.891 1.547 2.25.703 1.547m3.797 6.89 1.687-.984 1.688.281 1.125.563.422.281m-8.016 5.766 2.25-.282"></path><path d="m327.375 190.547.563 1.125.562.984.563 1.125.421 1.125.282 1.125-.141 1.125-.281.985-.703.984M333.563 180l.984 1.828.422 1.828.14 1.688v1.406l-.281 1.266-.281.843-.141.704-.14.14m-9.985 9.281 1.547 1.407.703 1.406"></path></g><g stroke-width=".25"><path fill-rule="evenodd" d="m333.563 178.594-.563.844-.844 1.125-.703 1.265-.703 1.828-.422 2.532-.281 3.375-.984.14-.282-1.828-.562-.984-.703-.563h-2.25l-.563-.14-.422-.704v-1.406l.563-1.125.562-.844-.14-.703-.282-.422-.562-.14-.844.14-.844.141h-.984l-.844-.28-.843-.704-.704-1.407-.281-1.265.281-.703.422-.563.563-.28.562-.282.422-.282.281-.42-.281-.705-.844-.984-1.687-.422-1.688-.562-.984-1.407.141-1.687 1.265-1.125 1.266-.563.703-.14-.844-1.125.282-.844v-2.25l-.141-1.266v-1.125l.141-1.125.421-.843.844-.703 2.11-.563 1.828.141 1.265.843.844.985.563 1.97.562 1.686 1.266.563 1.125.562-.141 1.688-.562 1.125 1.406-.282 1.406-.14 1.266.422 1.265 1.687.422 2.11-.562 1.406-1.125.984-.844.984 1.406.985.563 1.125-.141 1.265z"></path><path d="m329.344 185.063-.141-1.407-.14-1.547-.141-1.546-.141-1.547-.14-1.688-.282-1.687-.281-1.688-.281-1.687-.563-1.688-.562-1.687-.563-1.688-.843-1.687-.985-1.547-.984-1.688-1.266-1.406-1.406-1.547m-1.969 10.125 2.391.703 1.406.703m6.188 2.111 2.109-2.25 1.688-.423m-2.11 9 .985-1.266.562-.562"></path><path d="m322.594 176.766 2.109.843 1.828 1.125 1.547 1.407.563 2.11m-8.016-16.173 2.953 1.828 1.828 2.11.844 1.828.281.703m-1.265 11.953 2.109-.14 1.266.703"></path></g><g stroke-width=".25"><path fill-rule="evenodd" d="m342.281 168.75-.843.703-.844.844-1.125 1.125-.985 1.547-.984 2.25-.984 3.234h-.844v-1.828l-.281-1.125-.563-.703-.844-.28-.843-.142-.703-.14-.563-.422-.281-.844.281-1.266.984-.844.985-.703.422-.843-.422-.422-.844-.14h-.844l-.984-.142-.844-.14-.844-.563-.703-.984-.281-1.547.141-1.125.422-.703.562-.422.703-.14.703-.282.563-.14.281-.422v-.844l-.984-1.125-1.547-.563-1.547-.843-.844-1.688.703-1.547 1.547-.703 1.406-.14h.704l-.563-.422-.141-1.266.563-.703.281-.984.281-1.125.141-1.125.281-1.125.422-.985.703-.844.985-.42 2.109-.142 1.547.562 1.125 1.125.422 1.125.281 1.97-.141 1.827 1.266.844.844 1.266-.141 1.125-.703.984h1.266l1.406.141 1.125.843.703 1.83.141 1.967-.844 1.266-1.406.844-1.266.562 1.406 1.406v1.266l-.422 1.266z"></path><path d="m337.078 174.234.141-1.406.281-1.547.141-1.547.281-1.687.141-1.688.14-1.687v-5.203l-.14-1.828-.282-1.828-.422-1.829-.562-1.828-.703-1.828-.844-1.687-.984-1.828m-4.219 9.562 1.969 1.266.984 1.125m6.188 3.515.984-1.547 1.406-.562 1.125-.14h.563m-4.078 8.438 1.828-1.126"></path><path d="m332.297 164.25 1.828 1.406 1.688 1.547.984 1.688.281 1.968m-4.5-17.718 2.672 2.531 1.406 2.672.422 1.97v.842M333 172.688l2.25.562 1.266.984"></path></g><g stroke-width=".25"><path fill-rule="evenodd" d="m334.688 149.484.281.985.14 1.125.422 1.265.703 1.547 1.266 1.828 1.969 2.25-.141.422-1.406-.843-.984-.14-.704.14-.562.421-.563.563-.421.562-.563.282-.703-.14-.844-.845-.281-1.125-.281-1.125-.422-.422-.844.422-.844 1.266-1.406 1.125-2.25-.28-1.406-1.267.14-1.266.141-1.125-.703-.562-1.266.141-1.125.843-1.406.703-1.547-.28-.984-1.266.14-1.547.563-1.266.281-.562-.703.421-.844-.42-.984-1.267-1.688-1.266-1.406-1.406-.281-1.969.984-1.828 1.266-.984 1.125-.28h1.125l1.687.842 1.547.703.985-.42 1.406-.423.984.843.563 1.266.422-.984.703-1.125.984-.563 1.688.141 1.828.984.703 1.266-.141 1.265-.14 1.266 1.687-.28.844.561.844.844z"></path><path d="m336.656 155.953-.984-.703-1.125-.844-1.125-.843-1.125-.844-1.125-.844-1.266-.844-1.265-.843-1.407-.844-1.406-.844-1.406-.562-1.547-.704-1.547-.42-1.547-.423-1.687-.282-1.828-.14h-1.828m5.062 8.015 2.109-1.265 1.125-.563m5.625-3.234-.703-1.406.141-1.266.422-.984.281-.422m4.781 7.172-.422-2.11"></path><path d="m326.813 155.531 1.968-.843 1.828-.704 1.969-.14 1.828.703m-15.75-4.219 2.953-.984 2.532.14 1.687.563.703.281m7.032 7.735 1.406-1.266 1.406-.422"></path></g><g stroke-width=".25"><path fill-rule="evenodd" d="m334.266 140.625-.422.984-.281 1.125-.282 1.407-.14 1.968.281 2.532-.563.281-.562-1.266-.703-.703-.703-.28h-.563l-.703.28-.422.141-.562-.14-.282-.423-.281-.984.281-.984.422-.985-.14-.703-.844-.14-1.266.421h-1.547l-1.546-1.406-.282-1.406.703-.985.704-.703v-.843l-.985-.563-1.406-.14-1.406-.14-1.266-.986.141-1.406.984-1.125.984-.562.422-.282-.984-.42-.141-1.689-.422-1.969-.14-1.828.703-1.406 1.547-.844 1.406-.14 1.125.421.844.563.703 1.547.703 1.406 1.969.563.562 1.125-.14.984.984-.422.984-.28.844.14.985.984.984 1.687-.281 1.125-.703.985-.704.843 1.547.704.282 1.125.14 1.125-.14.843z"></path><path d="m332.578 145.406-.281-1.125-.281-1.125-.422-1.265-.281-1.266-.422-1.266-.563-1.265-.422-1.406-.562-1.266-.703-1.266-.703-1.265-.844-1.266-.985-1.266-.984-1.125-1.125-.984-1.266-.984-1.406-.985m0 8.439h2.11l1.125.14m5.625 1.124 1.125-2.39 1.265-.703m-.14 7.593.562-1.265"></path><path d="m325.547 139.781 1.969.282 1.828.562 1.265.844.704 1.547m-8.719-11.672 2.672 1.125 1.687 1.547 1.125 1.265.281.563m.704 9.844 1.968-.422 1.266.422"></path></g><g stroke-width=".25"><path fill-rule="evenodd" d="m329.063 141.188 1.968 1.406v.422l-1.265-.422h-.985l-.562.281-.422.563-.281.421-.282.422-.281.282h-.562l-1.266-1.407-.703-1.125-.844.563-.562 1.265-.985.985h-1.828l-1.125-.703-.14-.985-.141-.843-.703-.563-.844.281-.703.985-.844.703-1.265.14-1.125-.843-.282-1.125.141-.985.141-.422-.985.422-.984-1.125-1.547-.984-1.266-.984-.422-1.407 1.266-2.39 1.547-.844 1.547.422 1.406.562 1.406-1.125 1.688 1.547.844-2.109 1.968-.563 1.547.422.703.844.282.984.14.703h2.11l.703.563.422.703.281.844.422.844.422.984.984 1.125z"></path><path d="m328.359 141.188-.984-.563-.984-.422-.985-.562-.984-.563-1.125-.562-1.125-.422-1.266-.563-1.125-.28-1.265-.423-1.266-.28-1.406-.282-1.406-.14h-2.813l-1.406.14-1.547.281m5.906 5.484 1.266-1.406.984-.703m3.797-3.234-.984-1.829.281-1.265m5.062 4.781-.421-1.687"></path><path d="m320.203 142.172 1.547-.844 1.547-.844 1.406-.42 1.547.42m-13.359-1.124 2.39-1.407 1.969-.28 1.406.14.563.14m7.172 5.344.843-1.266.985-.422"></path></g><g stroke-width=".25"><path fill-rule="evenodd" d="m321.75 130.36.141 1.124.562 1.407.985 1.547 1.546 1.968-.14.282-2.11-.844-1.125.422-.843.843h-.985l-.703-1.546-.422-1.407-.843.422-.844.844-1.266.703-1.828-.562-.984-.844.281-.985.281-.843-.562-.703h-.985l-1.125.562-1.125.563-1.265-.422-.703-.985.14-1.265.563-1.125.281-.422h-1.266l-.703-1.125-1.125-1.125-.984-1.266-.141-1.547.844-1.406.984-.703.985-.28 1.125.14 1.406.843.984.563 1.828-.422.844 1.828.703-.703.703-.844.985-.563 1.547.282 1.125.984.281 1.125V126l-.141.844 1.407-.14.843.562.563.703.14.703v.844z"></path><path d="m322.594 134.438-.703-.704-.703-.843-.844-.703-.844-.844-.984-.844-.844-.844-.984-.703-1.125-.844-1.125-.703-1.125-.703-1.266-.562-1.266-.422-1.265-.422-1.407-.422-1.406-.14-1.547-.14m3.938 6.468 1.828-.704.984-.28m4.5-2.109-.281-2.25.703-1.126m3.375 6.047-.281-1.688"></path><path d="m314.719 133.031 1.687-.562 1.547-.422h1.547l1.406.844m-12.375-4.641 2.532-.562 1.968.281 1.266.562.422.282m5.203 7.171 1.266-1.125 1.265-.28"></path></g><g stroke-width=".25"><path fill-rule="evenodd" d="M319.219 121.078v1.125l.281 1.406.563 1.83 1.125 2.25-.141.28-.984-.985-.844-.42h-.563l-.562.14-.563.421-.422.281h-.421l-.563-.14-.562-1.828-.282-1.407-.703.141-.984.844-1.266.422-1.687-.704-.844-1.125.281-.843.422-.844-.281-.844-1.125-.14-1.125.421-1.125.282-.985-.563-.562-.984.281-1.125.703-.844.282-.28-1.407-.142-.422-1.406-.843-1.547-.703-1.406v-1.547l1.125-1.266 1.125-.562h1.125l.843.281 1.125.984 1.407 1.125 1.406-.14.984 1.687.703-.703.703-.703.985-.14 1.406.421.984 1.125.141.985-.281.984-.422.844 1.687.422.704.703.281.844.14.703-.14.843z"></path><path d="m319.359 124.734-.562-.843-.703-.844-.703-.844-.703-.984-.704-.844-.843-.984-.844-.844-.844-.984-.984-.844-.985-.844-.984-.703-1.125-.703-1.266-.563-1.265-.562-1.266-.563-1.406-.28m2.391 7.171 1.687-.563.984-.14m5.204-1.125v-2.53l.843-.986m2.391 6.75.281-1.687"></path><path d="m311.906 122.344 1.688-.422 1.687-.14 1.266.421 1.125.985m-11.109-6.61 2.531-.14 1.969.562 1.125.703.421.422m4.219 8.156 1.125-1.265 1.125-.14"></path></g><g stroke-width=".25"><path fill-rule="evenodd" d="m313.313 118.266-.141.703-1.266-.422h-.984l-.563.281-.281.422-.281.422-.281.422-.422.281-.563-.14-1.265-1.126-.703-1.125-.704.563-.421 1.125-.985.844h-1.828l-1.266-.703-.14-.844.14-.844-.703-.422-.984.281-.844.844-.984.844-1.125.141-1.125-.844-.141-1.125.141-1.125.14-.563-1.125.282-.984-.985-1.547-.844-1.265-.843-.422-1.407 1.125-2.67 1.828-.705 1.406.422 1.406.422 1.547-.984 1.547 1.406.703-1.828 2.391-.563 1.828 1.266.281 1.828 1.406-.422.844.282.703.562.422.703.281.703.422.844.422.984.985.985 1.265 1.265z"></path><path d="m310.641 117.141-.985-.422-.843-.563-1.125-.562-.985-.563-1.125-.422-1.125-.562-1.125-.422-1.265-.422-1.266-.422-1.266-.28-1.265-.282-1.407-.14-1.406-.14-1.406.14-1.406.14-1.547.281m5.765 5.344 1.266-1.266.984-.703m3.657-3.094-.703-2.25.421-1.406m4.5 5.063-.281-1.547"></path><path d="m302.766 118.125 1.265-1.125 1.407-.844 1.406-.28 1.547.28m-13.219-.984 2.25-1.266 1.969-.28 1.406.28.562.141m7.172 5.344.844-1.407.984-.703"></path></g><g stroke-width=".25"><path fill-rule="evenodd" d="m300.094 111.516-.844.422-.703.562-.844.141-.703-1.125-.281-1.266-.703.281-.703.844-.985.703-1.687-.28-.703-.845.14-.844.281-.703-.421-.562-.844.14-.844.704-.844.421h-.984l-.703-.984v-.984l.422-.985.281-.28-.422.421-.984-.422-.563-.703-.844-.984-.984-.985-.141-1.125 1.407-1.828 1.828-.14 2.25.703.844-.282 1.406 1.266.562-1.266 2.11-.14 1.406 1.406-.141 1.687 1.688.141.562.563.282.703v.703l.14.703.281.844.422.984.844 1.266 1.406 1.406-.14.562z"></path><path d="m299.813 110.25-1.266-1.125L297 108l-1.547-1.125-1.687-1.125-1.969-.984-1.969-.844-2.25-.422-2.531-.14m3.656 4.921 1.969-.984m3.797-1.547-.281-1.969.421-.984m3.094 4.5-.281-.984"></path><path d="m293.344 109.828 1.265-.562 1.266-.563H297l.984.422M288 106.313l1.969-.704 1.687.141 1.125.281.422.282m4.641 5.484 1.547-1.266"></path></g><path stroke-width=".5" d="m278.578 239.766-2.109-.422-.563-.422"></path><path fill-rule="evenodd" stroke-width=".25" d="m280.828 245.391-1.125-.422-.703-.985-.703-1.125-.422-1.265-.141-1.266v-.844l.422-1.828.563-1.547.703-.984.703-.703.844-.422h.844l.843.141.844.562-1.125 1.547-.703 1.547-.141 1.406v1.406l.282 1.125.562 1.125.563.844.562.563-1.406.984z"></path><path fill-rule="evenodd" stroke-width=".25" d="m287.625 236.641 1.969 1.265.703 1.547-.703 1.828-1.828 1.547-2.391 1.125-2.531.141-.985-2.25-.281-2.39.281-2.25.985-1.829 2.39.281z"></path><path stroke-width=".5" d="m274.359 243.141-1.265-2.11.14-.984"></path><path fill-rule="evenodd" stroke-width=".25" d="m271.406 249.328-.422-1.265.141-1.407.563-1.265.703-1.266.843-.984.704-.563 1.968-1.125 1.688-.703 1.406-.28h1.125l.844.28.703.703.562.985.282 1.125-2.11.14-1.687.563-1.406.843-1.125 1.125-.844 1.125-.703 1.266-.282 1.266-.14 1.125-1.828-.703z"></path><path fill-rule="evenodd" stroke-width=".25" d="m276.234 251.625-.984-.984-.844-1.125 1.125-2.532 1.688-1.828 1.969-1.125 1.968-.422.844.844.844 1.125.703 1.266.562 1.406.282 1.406v1.266l-.282.984-.562.844-.984.422-1.125.281-1.266-.14-1.406-.282-1.266-.562z"></path><path stroke-width=".5" d="m283.078 227.531-.703 2.25.281.985"></path><path fill-rule="evenodd" stroke-width=".25" d="m278.719 222.188-.141 1.265.563 1.266.703 1.125 1.125.984.984.703.844.422 2.109.703 1.688.422h1.265l1.125-.28.844-.564.563-.703.281-.984v-.984l-2.109.14-1.829-.14-1.546-.563-1.266-.844-1.125-.984-.703-1.125-.563-.984-.281-1.125-1.687.984z"></path><path fill-rule="evenodd" stroke-width=".25" d="m287.641 215.953-1.266.281-1.266.704-1.125.843-1.125.985-.843 1.125-.563 1.406.703 1.125.844.984 1.125.844 1.125.703 1.125.422 1.125.422h2.109l.563-1.125.422-1.266.281-1.406.141-1.547v-1.406l-.141-1.266-.422-1.125-.703-.703-.984-.14z"></path></g></svg>