<svg xmlns="http://www.w3.org/2000/svg" height="345.656" width="576"><path d="M0 0v345.656h532.813V0H0z" fill="#cc0001" fill-rule="evenodd"/><path fill="#002d65" fill-rule="evenodd" d="M540 0h36v345.656h-36z"/><path fill="#fff" fill-rule="evenodd" d="M532.828 0H540v345.656h-7.172zM207.281 101.25l3.516-2.812 3.656-2.532 3.656-2.39 3.938-2.25 3.937-1.969 4.219-1.828 4.219-1.688 4.219-1.547 4.5-1.125 4.5-1.125 4.5-.703 4.64-.703 4.782-.28 4.781-.142 4.781.141 4.781.281 4.641.703 4.5.703 4.5 1.125 4.359 1.125 4.36 1.547 4.218 1.688 4.079 1.828 4.078 1.97 3.797 2.25 3.796 2.39 3.657 2.531 3.515 2.812 3.375 2.813 3.094 3.093 3.094 3.235 2.953 3.375 2.672 3.515 2.672 3.657 2.39 3.656 2.25 3.937 1.969 3.938 1.828 4.22 1.688 4.217 1.406 4.22 1.266 4.5 1.125 4.5.703 4.5.703 4.64.281 4.781.141 4.781-.141 4.781-.281 4.782-.703 4.64-.703 4.5-1.125 4.5-1.266 4.5-1.406 4.22-1.688 4.218-1.828 4.22-1.969 3.936-2.25 3.938-2.39 3.656-2.672 3.656-2.672 3.516-2.953 3.375-3.094 3.234-3.094 3.094-3.375 2.812-3.515 2.813-3.657 2.531-3.796 2.391-3.797 2.25-4.078 1.968-4.079 1.97-4.218 1.546-4.36 1.547-4.359 1.125-4.5 1.125-4.5.703-4.641.703-4.781.281-4.781.141-4.781-.14-4.782-.282-4.64-.703-4.5-.703-4.5-1.125-4.5-1.125-4.219-1.547-4.219-1.547-4.219-1.969-3.937-1.968-3.938-2.25-3.656-2.39-3.656-2.532-3.516-2.813-3.375-2.812-3.234-3.094-3.094-3.234-2.812-3.375-2.813-3.516-2.531-3.656-2.391-3.656-2.25-3.938-1.968-3.937-1.829-4.219-1.687-4.219-1.547-4.219-1.125-4.5-1.125-4.5-.703-4.5-.703-4.64-.281-4.782-.141-4.78.141-4.782.281-4.78.703-4.642.703-4.5 1.125-4.5 1.125-4.5 1.547-4.219 1.687-4.218 1.829-4.219 1.968-3.938 2.25-3.937 2.391-3.656 2.531-3.657 2.813-3.515 2.812-3.375 3.094-3.235 3.234-3.093z"/><path fill="#002d65" fill-rule="evenodd" d="M212.625 107.578l3.094-2.53 3.375-2.25 3.375-2.25 3.515-1.97 3.657-1.969 3.797-1.687 3.796-1.547 3.938-1.266 4.078-1.125 4.078-.984 4.078-.703 4.36-.563 4.218-.28 4.36-.14 4.359.14 4.36.28 4.218.563 4.078.703 4.219.984 3.938 1.125 3.937 1.266 3.938 1.547 3.656 1.687 3.656 1.97 3.516 1.968 3.515 2.25 3.235 2.25 3.234 2.531 3.094 2.672 2.953 2.813 2.813 2.953 2.671 3.093 2.532 3.094 2.25 3.375 2.25 3.375 1.968 3.516 1.969 3.656 1.688 3.797 1.547 3.797 1.265 3.937 1.125 4.078.985 4.08.703 4.077.562 4.36.281 4.218.141 4.36-.141 4.36-.281 4.358-.562 4.22-.703 4.077-.985 4.22-1.125 3.936-1.265 3.938-1.547 3.937-1.688 3.656-1.969 3.657-1.968 3.515-2.25 3.516-2.25 3.234-2.532 3.235-2.671 3.093-2.813 2.953-2.953 2.813-3.094 2.672-3.234 2.531-3.235 2.25-3.515 2.25-3.516 1.97-3.656 1.968-3.656 1.687-3.938 1.547-3.937 1.266-3.938 1.125-4.219.984-4.078.703-4.218.563-4.36.281-4.359.14-4.36-.14-4.218-.28-4.36-.564-4.078-.703-4.078-.984-4.078-1.125-3.938-1.266-3.796-1.547-3.797-1.687-3.657-1.969-3.515-1.969-3.375-2.25-3.375-2.25-3.094-2.53-3.094-2.673-2.953-2.813-2.812-2.953-2.672-3.093-2.531-3.235-2.25-3.234-2.25-3.516-1.969-3.515-1.969-3.657-1.687-3.656-1.547-3.937-1.266-3.938-1.125-3.937-.984-4.219-.703-4.078-.563-4.219-.281-4.359-.141-4.36.141-4.359.281-4.219.563-4.359.703-4.078.984-4.079 1.125-4.078 1.266-3.937 1.547-3.797 1.687-3.797 1.969-3.656 1.969-3.516 2.25-3.375 2.25-3.375 2.531-3.094 2.672-3.093 2.812-2.953 2.953-2.813z"/><path fill="#fff" fill-rule="evenodd" d="M293.063 209.672L289.406 207l-3.234-2.39-3.094-2.11-2.672-1.969-2.39-1.828-2.25-1.547-1.969-1.406-1.688-1.125-1.406-1.125-1.265-.844-.985-.703-.703-.562-.703-.422-.422-.28-.141-.283h-.14l-26.438 19.266v-.14l1.407-4.219 1.265-3.797 1.125-3.516.985-3.234.843-2.813.844-2.672.703-2.25.703-1.968.563-1.688.422-1.406.281-1.266.422-.844.14-.843.141-.422.141-.28v-.142l-26.86-19.266h32.907l10.406-31.218v-.422l10.265 31.64H309.938l-3.657 2.532-3.234 2.39-3.094 2.11-2.672 1.968-2.531 1.828-2.109 1.547-1.969 1.407-1.828 1.125-1.406 1.125-1.266.843-1.125.844-.844.563-.562.421-.563.282-.14.281h-.141l10.266 31.36z"/><g fill="#fff" stroke="#002d65" stroke-miterlimit="10" stroke-linecap="square"><g stroke-width=".25"><path fill-rule="evenodd" d="M244.828 243.563l1.688-.422 1.125-.844 1.125-.984 1.265-1.125 1.407-1.125 2.109-1.125 2.953-.985 4.078-.703v-1.125l-2.25-.28-1.406-.564-.703-.703-.281-.984v-.985l-.141-.843-.281-.703-.844-.282-1.547.282-1.266.843-1.125.985-.984.14-.422-.422-.14-.703v-2.25l-.282-1.125-.562-.984-.985-.844-1.828-.562-1.406-.14-.984.421-.422.562-.422.844-.281.844-.282.562-.562.422-.984-.14-1.266-1.125-.703-1.969-.985-1.828-1.968-.985-2.11.563-1.125 1.687-.422 1.83v.842l-.281-.984-1.265-.563-.985.563-1.125.281-1.406.141-1.547.14-1.406.282-1.406.422-1.125.703-.704 1.265-.281 2.532.563 1.968 1.125 1.547 1.265.985 1.407.421h2.25l1.265.282.703 1.125 1.266 1.265h1.828l1.406-.843-.14 1.687-.141 1.688.703 1.546 2.25 1.125 2.672.282 1.547-.985.984-1.547.844-1.546 1.547 2.11z"/><path d="M255.375 236.531h-1.828l-1.828.141-1.969.141h-1.969l-2.109.14h-2.109l-2.11-.14-2.109-.14-2.25-.282-2.25-.422-2.11-.563-2.25-.703-2.109-.844-2.109-1.125-2.11-1.265-2.109-1.547M234.563 225.563l.984 2.812.984 1.547M240.328 237.516l-1.828 1.125-.844 1.547-.281 1.546v.563M248.203 238.36l-1.547 1.124-.281.563"/><path d="M243.844 229.22l.703 1.264.844 1.266.703 1.266.844.984.843.844.985.562 1.265.422h1.266M230.063 228.516l1.265 2.11 1.547 1.546 1.547 1.125 1.406.703 1.266.422 1.125.281.703.141h.281M253.688 231.47l-.141 1.264.422 1.266.703.984.422.422"/></g><g stroke-width=".25"><path fill-rule="evenodd" d="M225.844 229.36l.562.281.703.14.704.141.703.141.843.14.704.281.984.141.844.422.984.422 1.125.703 1.266.703 1.265 1.125 1.407 1.266 1.546 1.547.844-.282-1.265-1.968-.282-1.547.282-.985.562-.843.844-.704.703-.703.562-.843v-.985l-1.406-1.125-1.547-.422-1.547-.28-.703-.563.141-.704.562-.562.844-.563.844-.703.844-.843.562-1.125.141-1.407-.422-1.828-.844-1.265-.844-.422-.843-.14-.844.28-.844.282h-.703l-.562-.14-.563-.845-.141-.844.422-.843.563-.844.562-.844.563-.984.422-.844.14-.984-.422-1.125-1.546-1.407-2.11.141-1.687.703-.703.422.562-.844-.562-1.125-.844-.422-.844-.843-.844-1.125-.984-1.266-.984-.984-1.125-.844-1.266-.422-1.406.141-2.391 1.125-1.266 1.547-.562 1.687v1.547l1.125 2.531.844 1.97-.422 1.405-.563 1.688 1.266 1.265 1.547.563-1.406.984-1.266.985-.984 1.406.281 2.531 1.265 2.25 1.688.844h1.687l1.688-.14-.422 2.25.563 1.546.703.563z"/><path d="M236.391 232.734l-1.125-1.406-1.125-1.406-1.266-1.547-1.125-1.687-1.266-1.688-1.265-1.687-1.125-1.829-1.125-1.828-.985-1.968-.984-2.11-.844-2.109-.562-2.11-.563-2.39-.422-2.25-.14-2.53v-2.533M233.156 209.25l-1.547 2.531-.703 1.547M226.688 221.063l-1.969-.985-1.688.281-1.265.563-.563.281M230.203 227.813l-2.25-.282"/><path d="M235.547 219.094l-.563 1.265-.562 1.266-.563 1.266-.421 1.265-.141 1.266.141 1.266.281 1.125.844 1.265M228.375 207.703l-.844 2.11-.422 1.968v1.828l.141 1.688.281 1.406.422.985.281.703.141.281M239.484 228.516l-1.968 1.547-.703 1.687"/></g><g stroke-width=".25"><path fill-rule="evenodd" d="M211.219 221.625l-.281 1.547.421 1.125.704.703.703.422.703.281.703.141.703.14h.703l.703-.14.563-.14.844-.14.703-.142.984-.14.984-.14 1.125.14 1.125.14 1.547.281 1.547.422 1.828.563 1.969.843.563-.843-1.688-1.407-.844-1.125-.14-.984.281-.984.422-.844.422-.844.14-.844-.422-.843-1.546-.563h-1.547l-1.547.141-1.125-.422-.141-.563.422-.703.563-.844.703-.843.422-1.125v-1.266l-.563-1.406-1.266-1.406-1.125-.844-.843-.14-.844.28-.563.563-.703.562-.562.282h-.703l-.703-.703-.422-.704-.141-.843.281-.985.282-.984.14-1.125.141-.984-.422-.844-.703-.844-1.969-.703-1.828.844-1.266 1.125-.562.703.14-.985-.843-.843h-1.125L207 202.22l-1.266-.703-1.265-.703-1.266-.704-1.265-.42-1.125.14-1.125.562-1.969 2.11-.563 1.968.141 1.828.703 1.406 1.688 1.828 1.687 1.266v1.547l.281 1.97 1.547.561 1.406.141-.843 1.265-.703 1.407-.141 1.687 1.125 2.25.984 1.125.985.563.984.14.844-.14.844-.282.843-.562.844-.422z"/><path d="M225.141 224.578l-1.547-.844-1.688-.984-1.687-.844-1.688-.984-1.828-1.125-1.687-1.125-1.828-1.125-1.688-1.406-1.687-1.407-1.688-1.406-1.547-1.687-1.406-1.688-1.406-1.969-1.266-1.968-1.125-2.25-.984-2.39M213.328 204.328l-.422 2.953v1.97M211.641 217.688h-2.11l-1.687.703-.985 1.125-.421.422M217.969 222.61l-1.969.421-.844.422"/><path d="M219.375 212.625l-.141 1.406v1.547l-.14 1.266.14 1.406.282 1.266.422 1.125.843.984 1.125.844M208.125 204.61v2.25l.422 2.11.703 1.686.844 1.547.844 1.125.843.844.563.562.14.141M226.406 219.797l-.984.844-.141 1.547v1.265l.141.563"/></g><g stroke-width=".25"><path fill-rule="evenodd" d="M206.578 203.906l.985.703 1.125.985 1.125 1.125 1.406 1.828 1.406 2.531 1.406 3.516h.703l-.14-2.11.281-1.406.703-.844.844-.42.844-.423.703-.282.562-.42.282-.845-.422-1.266-1.125-.844-.985-.843-.422-.985.282-.422.703-.28.984-.14.985-.142.984-.422.844-.703.562-1.125.281-1.688-.14-1.265-.563-.703-.562-.282-.703-.14-.844-.14-.563-.14-.421-.423-.141-.844.844-1.266 1.547-.984 1.546-1.266.563-1.828-.844-1.687-1.547-.563h-1.547l-.703.141.844-.563-.141-.984-.562-.844-.563-1.125-.281-1.265-.281-1.407-.422-1.265-.562-1.125-.844-.844-1.125-.563-2.391.141-1.687.984-1.125 1.266-.563 1.406-.14 2.11.14 1.968-.844.985-.984 1.265.281 1.688.985 1.125-1.547.141-1.406.281-1.407.984-.703 2.25.141 2.11 1.125 1.125 1.547.562 1.406.703-1.266 1.688.282 1.265.562 1.266z"/><path d="M213.188 209.531l-.422-1.547-.282-1.546-.421-1.688-.422-1.828-.422-1.688-.281-1.828-.282-1.968-.14-1.829-.141-1.968v-1.969l.141-2.109.281-1.969.281-2.11.703-1.968.703-2.11.985-2.109M219.375 189.563l-2.391 1.406-1.265 1.265M209.672 196.734l-1.406-1.406-1.688-.562-1.406-.14h-.563M210.094 203.766l-1.406-.985-.844-.28"/><path d="M217.547 198.422l-.984.844-1.125.843-.844.844-.844.844-.562.844-.422.984-.141 1.125.281 1.125M215.859 186.328l-1.406 1.406-1.125 1.547-.703 1.407-.422 1.406-.281 1.265-.141.985V195.188M216.984 207.563l-1.125-.14-.984.702-.984.703-.282.422"/></g><g stroke-width=".25"><path fill-rule="evenodd" d="M196.313 199.547l.562.281.563.141.562.14.703.141.703.141.703.14.704.141.843.281.844.422.984.563 1.125.843 1.125.844 1.266 1.266 1.406 1.406.844-.422-.984-1.687-.141-1.266.281-.844.563-.703.562-.562.563-.563.281-.703-.141-.844-.984-1.125-1.266-.422-1.265-.28-.563-.423.141-.703.562-.562.704-.422.843-.703.844-.704.422-.984.141-1.125-.563-1.687-.703-1.125-.703-.563-.844-.14-.703.14-.844.281-.562.141-.563-.14-.281-.704.281-1.547.985-1.547.984-1.828-.281-1.828-1.547-1.406-1.828.141-1.547.562-.703.422.422-.703-.422-.985-.844-.562-.703-.703-.844-1.125-.703-.985-.844-.984-.984-.844-.985-.422h-1.125l-2.25 1.125-1.265 1.547-.563 1.547v1.547l.844 2.11.984 1.546-.703 1.266-.281 1.687.984 1.266 1.407.703-1.266.703-1.266.844-.843 1.266.281 2.25 1.125 2.11 1.406.702 1.688-.14 1.406-.14-.422 2.25.563 1.405.562.563z"/><path d="M205.875 202.5l-.984-1.266-.985-1.265-1.125-1.406-.984-1.407-1.125-1.547-.984-1.546-1.125-1.688-.844-1.687-.985-1.688-.843-1.828-.703-1.969-.563-1.969-.562-1.968-.282-2.11-.14-2.25v-2.25M203.344 181.547l-1.547 2.25-.703 1.547M197.297 192.234l-1.688-.984-1.546.281-1.266.563-.422.281M200.391 198.141l-2.25-.282"/><path d="M205.313 190.547l-.563 1.125-.562.984-.563 1.125-.422 1.125-.281 1.125.141 1.125.281.985.703.984M199.125 180l-.844 1.828-.422 1.828-.14 1.688.281 1.406.281 1.266.422.843.281.704.141.14M208.406 198.984l-1.547 1.407-.703 1.406"/></g><g stroke-width=".25"><path fill-rule="evenodd" d="M199.125 178.594l.563.844.843 1.125.844 1.265.563 1.828.562 2.532.141 3.375.984.14.281-1.828.563-.984.703-.563h2.391l.562-.14.281-.704v-1.406l-.562-1.125-.563-.844.141-.703.281-.422.563-.14.843.14.844.141h.985l.984-.28.844-.704.703-1.407.14-1.265-.14-.703-.563-.563-.562-.28-.563-.282-.422-.282-.281-.42.281-.705.844-.984 1.688-.422 1.687-.562.985-1.407-.141-1.687-1.266-1.125-1.265-.563-.703-.14.703-.28.14-.845-.14-.844-.141-1.125.141-1.125v-2.391l-.141-1.125-.422-.843-.844-.703-2.109-.563-1.687.141-1.266.843-.984.985-.563 1.97-.562 1.686-1.125.563-1.266.562.141 1.688.562 1.125-1.406-.282-1.406-.14-1.266.422-1.266 1.687-.422 2.11.563 1.406 1.125.984.844.984-1.407.985-.562 1.125.141 1.265z"/><path d="M203.344 185.063l.14-1.407.141-1.547.141-1.546.14-1.547.141-1.688.281-1.687.281-1.688.422-1.687.422-1.688.563-1.687.562-1.688.844-1.687.984-1.547.985-1.688 1.265-1.406 1.407-1.547M214.031 169.453l-2.25.703-1.547.703M204.047 172.97l-2.109-2.25-1.688-.423M202.359 179.297l-.984-1.266-.562-.562"/><path d="M210.094 176.766l-2.11.843-1.828 1.125-1.547 1.407-.562 2.11M212.063 166.078l-2.954 1.828-1.828 2.11-.843 1.828-.282.703M207.422 184.5l-2.109-.14-1.266.703"/></g><g stroke-width=".25"><path fill-rule="evenodd" d="M190.406 168.75l.844.703.984.844.985 1.125.984 1.547 1.125 2.25.985 3.234h.703v-1.828l.281-1.125.562-.703.844-.28.844-.142.703-.14.563-.422.281-.844-.281-1.266-.985-.844-.984-.703-.422-.843.422-.422.844-.14h.843l.985-.142.843-.14.844-.563.703-.984.282-1.547-.141-1.125-.422-.703-.562-.422-.704-.14-.703-.282-.562-.14-.281-.422v-.844l.984-1.125 1.687-.563 1.547-.843.703-1.688-.703-1.547-1.406-.703-1.547-.14h-.703l.563-.422.14-1.266-.562-.703-.282-.984-.281-1.125-.14-1.125-.282-1.125-.422-.985-.703-.844-.984-.42-2.109-.142-1.547.562-1.125 1.125-.422 1.125-.281 1.97.14 1.827-1.265.844-.844 1.266.281 1.125.563.984h-1.266l-1.406.141-1.125.843-.703 1.83-.141 1.967.984 1.266 1.266.844 1.266.562-1.407 1.406v1.266l.422 1.266z"/><path d="M195.609 174.234l-.14-1.406-.281-1.547-.141-1.547-.281-1.687-.141-1.688-.141-1.687v-5.203l.141-1.828.281-1.828.422-1.829.563-1.828.703-1.828.844-1.687.984-1.828M202.641 156.375l-1.828 1.266-1.125 1.125M193.641 162.281l-1.125-1.547-1.407-.562-1.125-.14h-.562M193.5 168.47l-1.828-1.126"/><path d="M200.391 164.25l-1.828 1.406-1.547 1.547-1.125 1.688-.282 1.968M200.109 153.141l-2.531 2.531-1.406 2.672-.422 1.97-.141.842M199.688 172.688l-2.25.562-1.125.984"/></g><g stroke-width=".25"><path fill-rule="evenodd" d="M198 149.484l-.141.985-.281 1.125-.281 1.265-.703 1.547-1.406 1.828-1.969 2.25.14.422 1.407-.843.984-.14.703.14.563.421.562.563.422.562.703.282.703-.14.985-1.97.703-1.547.844.422.843 1.266 1.407 1.125 2.25-.28 1.406-1.267v-1.266l-.281-1.125.703-.562 1.265.141 1.266.843 1.266.703 1.546-.28.985-1.266-.141-1.547-.562-1.266-.282-.562.704.421.843-.42.985-1.267 1.687-1.266 1.406-1.406.282-1.969-.985-1.828-1.125-.984-1.265-.28h-1.125l-1.547.842-1.688.703-.984-.42-1.406-.423-.985.843-.281 1.266-.562-.984-.704-1.125-1.125-.563-1.687.141-1.828.984-.703 1.266.14 1.265.141 1.266-1.688-.28-.843.561-.844.844z"/><path d="M196.172 155.953l.984-.703.985-.844 1.125-.843 1.125-.844 1.265-.844 1.125-.844 1.266-.843 1.406-.844 1.406-.844 1.407-.562 1.547-.704 1.546-.42 1.547-.423 1.688-.282 1.828-.14h1.828M213.188 153.984l-1.969-1.265-1.266-.563M204.328 148.922l.703-1.406-.14-1.266-.422-.984-.281-.422M199.688 152.016l.14-2.11"/><path d="M205.875 155.531l-1.828-.843-1.969-.704-1.828-.14-1.828.703M214.031 150.328l-2.953-.984-2.531.14-1.688.563-.703.281M199.125 158.063l-1.406-1.266-1.406-.422"/></g><g stroke-width=".25"><path fill-rule="evenodd" d="M198.844 141.61l.422 1.124.281 1.407v1.968l-.141 2.532.422.281.563-1.266.703-.703.703-.28h.562l.704.28.421.141.563-.14.281-.423.281-.984-.281-.984-.422-.985.141-.703.844-.14 1.265.421h1.547l1.547-1.406.281-1.406-.562-.985-.844-.703v-.843l.984-.563 1.407-.14 1.406-.14 1.266-.986-.141-1.406-.844-1.125-1.125-.562-.422-.282.985-.42.14-1.689.422-1.969.141-1.828-.703-1.406-1.547-.844-1.406-.14-1.125.421-.844.563-.703 1.547-.703 1.406-1.969.563-.422 2.11-.844-.423-.984-.28-.985.14-.984.984-.844 1.687.282 1.125.703.985.703.843-1.547.704-.422 1.125-.141 1.125.141.843.422.844z"/><path d="M200.109 145.406l.282-1.125.422-1.125.281-1.265.422-1.266.422-1.266.421-1.265.563-1.406.562-1.266.563-1.266.844-1.265.703-1.266.984-1.266.985-1.125 1.125-.984 1.265-.984 1.406-.985M211.359 134.72h-1.968l-1.266.14M202.5 135.984l-1.125-2.39-1.266-.703M200.25 140.484l-.562-1.265"/><path d="M207.141 139.781l-1.969.282-1.688.562-1.406.844-.703 1.547M210.094 131.344l-2.531 1.125-1.829 1.547-.984 1.265-.281.563M203.625 145.688l-1.969-.422-1.265.422"/></g><g stroke-width=".25"><path fill-rule="evenodd" d="M203.625 141.188l-1.969 1.406v.422l1.266-.422h.984l.563.281.422.563.281.421.281.422.281.282h.563l1.266-1.407.703-1.125.843.563.563 1.265.984.985h1.828l1.125-.703.141-.985.141-.843.703-.563.844.281.843.985.985.703 1.265.14 1.125-1.968-.281-1.407.984.422 1.125-1.125 1.547-.984 1.266-.984.281-1.407-1.125-2.39-1.687-.844-1.547.422-1.406.562-1.407-1.125-1.687 1.547-.703-2.109-2.11-.563-1.547.422-.703.844-.281.984-.141.703h-2.109l-.703.563-.422.703-.281.844-.281.844-.563.984-.844 1.125z"/><path d="M204.328 141.188l.985-.563.984-.422.984-.562.985-.563 1.125-.562 1.125-.422 1.265-.563 1.125-.28 1.266-.423 1.266-.28 1.406-.282 1.406-.14H221.063l1.406.14 1.547.281M218.25 142.031l-1.266-1.406-.843-.703M212.063 136.688l.984-1.829-.281-1.265M207.703 138.375l.422-1.687"/><path d="M212.484 142.172l-1.406-.844-1.406-.844-1.547-.42-1.687.42M219.797 139.36l-2.25-1.407-2.109-.28-1.407.14-.562.14M206.297 143.297l-.844-1.266-.844-.422"/></g><g stroke-width=".25"><path fill-rule="evenodd" d="M210.938 130.36l-.141 1.124-.563 1.407-.984 1.547-1.547 1.968.141.282 2.109-.844 1.125.422.844.843h.984l.844-1.546.281-1.407.844.422.844.844 1.265.703 1.829-.562.984-.844-.141-.985-.281-.843.563-.703h.984l.984.562 1.125.563 1.266-.422.703-.985-.141-1.265-.421-1.125-.282-.422h1.266l.703-1.125 1.125-1.125.984-1.266v-1.547l-.703-1.406-.984-.703-1.125-.28-1.125.14-1.125.843-1.266.563-1.828-.422-.844 1.828-.703-.703-.703-.844-.984-.563-1.547.282-1.125.984-.281 1.125V126l.14.844-1.265-.14-.985.562-.562.703-.141.703v.844z"/><path d="M210.094 134.438l.703-.704.703-.843.844-.703.844-.844.984-.844.844-.844 1.125-.703.984-.844 1.125-.703 1.125-.703 1.266-.562 1.265-.422 1.407-.422 1.406-.422 1.406-.14 1.547-.14M223.594 131.063l-1.688-.704-.843-.28M216.422 127.97l.141-2.25-.704-1.126M212.484 130.641l.282-1.688"/><path d="M217.969 133.031l-1.688-.562-1.547-.422h-1.546l-1.407.844M224.297 128.25l-2.531-.562-2.11.281-1.265.562-.422.282M212.766 135.984l-1.266-1.125-1.266-.28"/></g><g stroke-width=".25"><path fill-rule="evenodd" d="M213.469 120.234V122.203l-.281 1.406-.563 1.83-1.125 2.25.141.28.984-.985.844-.42h.562l.563.14.562.421.422.281H216l.563-.14.562-1.828.281-1.407.703.141.985.844 1.265.422 1.688-.704.844-1.125-.282-.843-.421-.844.281-.844 1.125-.14 1.125.421 1.265.282 1.125-.563.422-.984-.422-1.125-.703-.844-.281-.28 1.547-.142.422-1.406.984-1.547.703-1.406-.281-1.547-.984-1.266-1.125-.562h-1.125l-.844.281-1.125.984-.844 1.125-1.265-.28-.844.14-.985 1.687-.562-.703-.844-.703-.984-.14-1.406.421-.985 1.125-.14.985.281.984.422.844-1.547.422-.844.703-.281.844-.141.703z"/><path d="M213.328 124.734l.563-.843.703-.844.703-.844.703-.984.844-.844.703-.984.984-.844.844-.984.984-.844.985-.844 1.125-.703 1.125-.703 1.125-.563 1.265-.562 1.407-.563 1.406-.28M226.125 119.672l-1.547-.563-1.125-.14M218.25 117.844l.141-2.53-.844-.986M215.016 121.078l-.282-1.687"/><path d="M221.063 122.344l-1.829-.422-1.546-.14-1.547.421-1.125.985M226.406 116.578l-2.672-.14-1.968.562-1.266.703-.422.422M215.859 126.281l-1.125-1.265-1.125-.14"/></g><g stroke-width=".25"><path fill-rule="evenodd" d="M219.516 118.266v.703l1.265-.422h.985l.562.281.422.422.141.422.281.422.422.281.562-.14 1.407-1.126.562-1.125.844.563.422 1.125.843.844h1.829l1.265-.703.141-.844v-.844l.844-.422.843.281.844.844.984.844 1.125.141 1.125-.844.282-1.125-.141-1.125-.141-.563.844.282 1.125-.985 1.406-.844 1.266-.843.563-1.407-1.266-2.67-1.688-.705-1.546.422-1.407.422-1.406-.984-1.687 1.406-.563-1.828-2.25-.563-2.109 1.266-.282 1.828-1.406-.422-.844.282-.703.562-.422.703-.281.703-.281.844-.563.984-.843.985-1.407 1.265z"/><path d="M222.047 117.141l.984-.422.985-.563.984-.562 1.125-.563 1.125-.422 1.125-.562 1.125-.422 1.266-.422 1.265-.422 1.266-.28 1.266-.282 1.406-.14 1.406-.14 1.406.14 1.547.14 1.547.281M235.828 117.844l-1.265-1.266-.985-.703M229.922 112.781l.703-2.25-.422-1.406M225.703 114.188l.281-1.547"/><path d="M230.063 118.125L228.656 117l-1.265-.844-1.547-.28-1.547.28M237.516 115.172l-2.25-1.266-1.969-.28-1.406.28-.563.141M224.156 119.391l-.843-1.407-.985-.703"/></g><g stroke-width=".25"><path fill-rule="evenodd" d="M232.734 111.516l.844.422.703.562.844.141.703-1.125.281-1.266.844.281.563.844.984.703 1.547-.28.703-.845v-.844l-.281-.703.422-.562.843.14.844.704.985.421h.984l.562-1.968-.703-1.266h1.266l.562-.703.985-.984.844-.985.14-1.125-1.125-1.828-1.547-.14-2.109.703-1.547-.282-1.266 1.266-.703-1.266-1.968-.14-1.547 1.406.14 1.687-1.687.141-.422.563-.281.703-.141.703-.141.703-.281.844-.422.984-.843 1.266-1.407 1.406.282.562z"/><path d="M232.875 110.25l1.406-1.125 1.547-1.125 1.547-1.125 1.828-1.125 1.828-.984 2.11-.844 2.25-.422 2.39-.14M243.984 108.281l-1.968-.984M238.359 105.75l.282-1.969-.563-.984M235.125 107.297l.141-.984"/><path d="M239.344 109.828l-1.266-.562-1.125-.563h-1.125l-1.125.422M244.688 106.313l-1.969-.704-1.688.141-1.125.281-.422.282M234.844 111.797l-1.547-1.266"/></g><path fill-rule="evenodd" stroke-width=".25" d="M256.609 251.625l.985-.984.844-1.125-1.125-2.532-1.688-1.828-2.109-1.125-1.969-.422-.984.844-.844 1.125-.703 1.266-.422 1.406-.281 1.406v1.266l.281.984.703.844.844.422 1.125.281 1.406-.14 1.266-.282 1.406-.562z"/><path fill-rule="evenodd" stroke-width=".25" d="M261.422 249.328l.422-1.265-.141-1.407-.562-1.265-.703-1.266-.844-.984-.703-.563-1.969-1.125-1.688-.703-1.406-.28h-1.125l-.984.28-.703.703-.563.985-.281 1.125 1.969.14 1.828.563 1.406.843 1.125 1.125.984 1.125.563 1.266.422 1.266.14 1.125 1.829-.703z"/><path stroke-width=".5" d="M258.328 243.141l1.266-2.11v-.984"/><g><path fill-rule="evenodd" stroke-width=".25" d="M244.797 215.703l1.266.281 1.265.704 1.266.843 1.125.985.844 1.125.562 1.406-.703 1.125-.703.984-1.125.844-.985.703-1.265.422-1.125.422h-2.391l-.562-1.125-.282-1.266-.421-1.406-.141-1.547v-1.406l.141-1.266.421-1.125.704-.703.984-.14z"/><path fill-rule="evenodd" stroke-width=".25" d="M254.109 222.188v1.265l-.421 1.266-.704 1.125-.984.984-1.125.703-.844.422-2.109.703-1.688.422h-1.406l-1.125-.28-.844-.564-.562-.703-.281-.984v-.984l2.109.14 1.828-.14L247.5 225l1.266-.844 1.125-.984.703-1.125.562-.984.282-1.125 1.687.984z"/><path stroke-width=".5" d="M249.75 227.531l.703 2.25-.422.985"/></g><g><path fill-rule="evenodd" stroke-width=".25" d="M245.188 236.391l-1.969 1.265-.703 1.547.703 1.828 1.828 1.547 2.391 1.125 2.531.141.984-2.25.281-2.39-.281-2.25-.984-1.829-2.391.281z"/><path fill-rule="evenodd" stroke-width=".25" d="M252.141 245.391l.984-.422.844-.985.562-1.125.422-1.265.141-1.266v-.844l-.422-1.828-.703-1.547-.563-.984-.703-.703-.844-.422h-.843l-.844.141-.844.562 1.125 1.547.563 1.547.281 1.406v1.406l-.422 1.125-.422 1.125-.562.844-.563.563 1.547.984z"/><path stroke-width=".5" d="M254.25 239.766l2.109-.422.422-.422"/></g></g><g fill="#fff" stroke="#002d65" stroke-miterlimit="10" stroke-linecap="square"><g stroke-width=".25"><path fill-rule="evenodd" d="M287.859 243.563l-1.687-.422-1.125-.844-1.125-.984-1.125-1.125-1.547-1.125-2.109-1.125-2.813-.985-3.937-.703-.141-1.125 2.25-.28 1.266-.564.703-.703.281-.984.141-.985v-.843l.281-.703.844-.282 1.687.282 1.406.843 1.125.985.844.14.422-.422.141-.703v-1.125l.14-1.125.141-1.125.703-.984 1.125-.844 1.969-.562 1.406-.14.844.421.562.562.282.844.281.844.281.562.422.422.844-.14 1.265-1.125.703-1.969.985-1.828 1.828-.985 2.109.563 1.125 1.687.422 1.83v.842l.422-.984 1.125-.563.984.563 1.125.281 1.407.141 1.547.14 1.406.282 1.406.422 1.125.703.703 1.265.281 2.532-.562 1.968-.984 1.547-1.125.985-1.407.421H306l-1.266.282-.562 1.125-1.406 1.265h-1.688l-1.406-.843.141 1.687v1.688l-.704 1.546-2.25 1.125-2.531.282-1.547-.985-.984-1.547-.984-1.546-1.547 2.11z"/><path d="M279 231.47l.281 1.264-.422 1.266-.703.984-.422.422M302.625 228.516l-1.266 2.11-1.546 1.546-1.407 1.125-1.547.703-1.265.422-.985.281-.703.141h-.281M288.984 229.22l-.703 1.264-.703 1.266-.703 1.266-.703.984-.984.844-.985.562-1.265.422h-1.407M284.625 238.36l1.406 1.124.422.563M292.359 237.516l1.829 1.125.984 1.547.141 1.546v.563M298.125 225.563l-.844 2.812-.843 1.547"/><path d="M277.734 236.531h1.688l1.828.141 1.828.141h1.969l2.109.14h1.969l2.25-.14 2.109-.14 2.11-.282 2.25-.422 2.25-.563 2.109-.703 2.25-.844 2.11-1.125 2.109-1.265 2.109-1.547"/></g><g stroke-width=".25"><path fill-rule="evenodd" d="M308.25 228.375l-.703.563-.703.421-.563.282-.703.14-.703.141-.703.141-.844.14-.703.281-.984.141-.844.422-.984.422-1.125.703-1.266.703-1.266 1.125-1.406 1.266-1.547 1.547-.844-.282 1.266-1.968.281-1.547-.281-.985-.562-.843-.844-.704-.703-.703-.422-.843v-.985l1.265-1.125 1.688-.422 1.406-.28.703-.563-.14-.704-.422-.562-.844-.563-.984-.703-.844-.843-.563-1.125-.14-1.407.422-1.828.843-1.265.985-.422.844-.14.843.28.844.282h.703l.703-.14.563-.845v-.844l-.281-.843-.563-.844-.703-.844-.563-.984-.421-.844-.141-.984.422-1.125 1.547-1.407 1.968.141 1.688.703.703.422-.562-.844.562-1.125.984-.422.844-.843.844-1.125.984-1.266.985-.984 1.125-.844 1.125-.422 1.406.141 2.391 1.125 1.265 1.547.563 1.687v1.547l-1.125 2.531-.844 1.97.562 1.405.563 1.688-1.266 1.265-1.687.563 1.547.984 1.265.985.844 1.406-.281 2.531-1.266 2.25-1.687.844h-1.688l-1.687-.14.703 1.124-.141 1.125-.422.985z"/><path d="M293.203 228.516l2.11 1.547.703 1.687M304.313 207.703l.843 2.11.422 1.968.141 1.828-.141 1.688-.422 1.406-.281.985-.281.703-.141.281M297.281 219.094l.703 1.265.563 1.266.422 1.266.422 1.265.14 1.266-.14 1.266-.422 1.125-.844 1.265M302.484 227.813l2.25-.282M306 221.063l1.969-.985 1.687.281 1.266.563.562.281M299.672 209.25l1.547 2.531.562 1.547"/><path d="M296.719 232.734l1.125-1.406 1.125-1.406 1.125-1.547 1.265-1.687 1.125-1.688 1.125-1.687 1.125-1.829 1.125-1.828.985-1.968.844-2.11.843-2.109.703-2.11.422-2.39.422-2.25.141-2.53v-2.533"/></g><g stroke-width=".25"><path d="M306.281 219.797l.985.844.281 1.547v1.265l-.141.563"/><path fill-rule="evenodd" d="M321.891 221.625l.14 1.547-.562 1.125-.844.703-.703.422-.703.281-.703.141-.703.14h-.704l-.703-.14-.562-.14-.844-.14-.703-.142-.984-.14-.985-.14-1.125.14-1.125.14-1.547.281-1.547.422-1.828.563-1.968.843-.563-.843 1.688-1.407.843-1.125.141-.984-.281-.984-.422-.844-.422-.844-.141-.844.422-.843 1.688-.563h1.547l1.406.141 1.125-.422.14-.563-.421-.703-.563-.844-.703-.843-.422-1.125v-1.266l.563-1.406 1.265-1.406 1.125-.844.844-.14.844.28.703.563.562.562.703.282h.563l.703-.703.422-.704.141-.843-.141-.985-.281-.984-.282-1.125v-.984l.282-.844.703-.844 1.969-.703 1.828.844 1.265 1.125.563.703-.141-.985.844-.843h1.125l1.266-.422 1.265-.703 1.266-.703 1.265-.704 1.266-.42 1.125.14 1.125.562 1.969 2.11.703 1.968-.281 1.828-.563 1.406-1.828 1.828-1.687 1.266v1.547l-.282 1.97-1.547.561-1.406.141.844 1.265.703 1.407.141 1.687-1.125 2.25-.844 1.125-.984.563-.844.14-.985-.14-.843-.282-.844-.562-.703-.422z"/><path d="M308.109 224.578l1.407-.844 1.687-.984 1.547-.844 1.688-.984 1.687-1.125 1.688-1.125 1.687-1.125 1.828-1.406 1.547-1.407 1.688-1.406 1.546-1.687 1.407-1.688 1.406-1.969 1.266-1.968 1.125-2.25.984-2.39M319.359 204.328l.422 2.953v1.97M321.047 217.688h2.109l1.688.703.984 1.125.422.422M315 222.61l1.828.421.703.422"/><path d="M313.313 212.625l.14 1.406v1.547l.141 1.266-.141 1.406-.14 1.266-.563 1.125-.703.984-1.125.844M324.563 204.61v2.25l-.422 2.11-.703 1.686-.844 1.547-.844 1.125-.844.844-.562.562-.141.141"/></g><g stroke-width=".25"><path fill-rule="evenodd" d="M326.25 203.906l-.984.703-1.125.985-1.266 1.125-1.406 1.828-1.406 2.531-1.407 3.516h-.703l.141-2.11-.281-1.406-.704-.844-.703-.42-.984-.423-.703-.282-.563-.42-.281-.845.422-1.266 1.125-.844.984-.843.422-.985-.281-.422-.703-.28-.985-.14-.984-.142-.984-.422-.844-.703-.563-1.125-.281-1.688.141-1.265.562-.703.563-.282.703-.14.844-.14.562-.14.422-.423.141-.844-.844-1.266-1.547-.984-1.547-1.266-.562-1.828.843-1.687 1.547-.563h1.547l.703.141-.703-.563v-.984l.563-.844.562-1.125.281-1.265.282-1.407.422-1.265.562-1.125.844-.844 1.125-.563 2.39.141 1.829.984.984 1.266.562 1.406.141 2.11-.141 1.968.985.985.844 1.265-.282 1.688-.984 1.125 1.547.141 1.406.281 1.406.984.703 2.25-.14 2.11-1.125 1.125-1.547.562-1.406.703 1.265 1.688-.14 1.265-.563 1.266z"/><path d="M319.5 209.531l.422-1.547.281-1.546.422-1.688.422-1.828.422-1.688.281-1.828.281-1.968.141-1.829.141-1.968v-1.969l-.141-2.109-.281-1.969-.282-2.11-.703-1.968-.703-2.11-.984-2.109M313.313 189.563l2.39 1.406 1.266 1.265M323.297 196.734l1.266-1.406 1.546-.562 1.407-.14h.562M322.734 203.766l1.266-.985.844-.28"/><path d="M315.141 198.422l.984.844 1.125.843.844.844.844.844.562.844.422.984.141 1.125-.282 1.125M316.828 186.328l1.406 1.406 1.125 1.547.844 1.407.422 1.406.281 1.265.141.985V195.188M315.703 207.563l1.125-.14.985.702.984.703.281.422"/></g><g stroke-width=".25"><path fill-rule="evenodd" d="M336.375 199.547l-.562.281-.563.141-.562.14-.704.141-.703.141-.703.14-.703.141-.844.281-.843.422-.985.563-1.125.843-1.125.844-1.265 1.266-1.407 1.406-.843-.422.984-1.687.141-1.266-.282-.844-.422-.703-.703-.562-.562-.563-.281-.703.14-.844.985-1.125 1.406-.422 1.125-.28.703-.423-.141-.703-.562-.562-.844-.422-.844-.703-.703-.704-.422-.984-.14-1.125.562-1.687.703-1.125.703-.563.704-.14.843.14.703.281.563.141.562-.14.282-.704.14-.844-.14-.703-.563-.843-.562-.704-.563-.843-.422-.985-.14-.843.281-.985 1.547-1.406 1.969.141 1.406.562.703.422-.422-.703.422-.985.844-.562.703-.703.844-1.125.843-.985.844-.984.844-.844 1.125-.422h1.125l2.25 1.125 1.265 1.547.422 1.547v1.547l-.843 2.11-.985 1.546.703 1.266.282 1.687-.985 1.266-1.406.703 1.266.703 1.406.844.703 1.266-.281 2.25-1.125 2.11-1.407.702-1.687-.14-1.406-.14.562 2.25-.703 1.405-.562.563z"/><path d="M326.813 202.5l.984-1.266.984-1.265 1.125-1.406.985-1.407 1.125-1.547.984-1.546 1.125-1.688.984-1.687.844-1.688.844-1.828.703-1.969.563-1.969.562-1.968.281-2.11.141-2.25v-2.25M329.344 181.547l1.547 2.25.703 1.547M335.391 192.234l1.687-.984 1.688.281 1.125.563.422.281M332.297 198.141l2.25-.282"/><path d="M327.375 190.547l.563 1.125.562.984.563 1.125.421 1.125.282 1.125-.141 1.125-.281.985-.703.984M333.563 180l.984 1.828.422 1.828.14 1.688v1.406l-.281 1.266-.281.843-.141.704-.14.14M324.281 198.984l1.547 1.407.703 1.406"/></g><g stroke-width=".25"><path fill-rule="evenodd" d="M333.563 178.594l-.563.844-.844 1.125-.703 1.265-.703 1.828-.422 2.532-.281 3.375-.984.14-.282-1.828-.562-.984-.703-.563h-2.25l-.563-.14-.422-.704v-1.406l.563-1.125.562-.844-.14-.703-.282-.422-.562-.14-.844.14-.844.141h-.984l-.844-.28-.843-.704-.704-1.407-.281-1.265.281-.703.422-.563.563-.28.562-.282.422-.282.281-.42-.281-.705-.844-.984-1.687-.422-1.688-.562-.984-1.407.141-1.687 1.265-1.125 1.266-.563.703-.14-.844-1.125.282-.844v-2.25l-.141-1.266v-1.125l.141-1.125.421-.843.844-.703 2.11-.563 1.828.141 1.265.843.844.985.563 1.97.562 1.686 1.266.563 1.125.562-.141 1.688-.562 1.125 1.406-.282 1.406-.14 1.266.422 1.265 1.687.422 2.11-.562 1.406-1.125.984-.844.984 1.406.985.563 1.125-.141 1.265z"/><path d="M329.344 185.063l-.141-1.407-.14-1.547-.141-1.546-.141-1.547-.14-1.688-.282-1.687-.281-1.688-.281-1.687-.563-1.688-.562-1.687-.563-1.688-.843-1.687-.985-1.547-.984-1.688-1.266-1.406-1.406-1.547M318.656 169.453l2.391.703 1.406.703M328.641 172.97l2.109-2.25 1.688-.423M330.328 179.297l.985-1.266.562-.562"/><path d="M322.594 176.766l2.109.843 1.828 1.125 1.547 1.407.563 2.11M320.625 166.078l2.953 1.828 1.828 2.11.844 1.828.281.703M325.266 184.5l2.109-.14 1.266.703"/></g><g stroke-width=".25"><path fill-rule="evenodd" d="M342.281 168.75l-.843.703-.844.844-1.125 1.125-.985 1.547-.984 2.25-.984 3.234h-.844v-1.828l-.281-1.125-.563-.703-.844-.28-.843-.142-.703-.14-.563-.422-.281-.844.281-1.266.984-.844.985-.703.422-.843-.422-.422-.844-.14h-.844l-.984-.142-.844-.14-.844-.563-.703-.984-.281-1.547.141-1.125.422-.703.562-.422.703-.14.703-.282.563-.14.281-.422v-.844l-.984-1.125-1.547-.563-1.547-.843-.844-1.688.703-1.547 1.547-.703 1.406-.14h.704l-.563-.422-.141-1.266.563-.703.281-.984.281-1.125.141-1.125.281-1.125.422-.985.703-.844.985-.42 2.109-.142 1.547.562 1.125 1.125.422 1.125.281 1.97-.141 1.827 1.266.844.844 1.266-.141 1.125-.703.984h1.266l1.406.141 1.125.843.703 1.83.141 1.967-.844 1.266-1.406.844-1.266.562 1.406 1.406v1.266l-.422 1.266z"/><path d="M337.078 174.234l.141-1.406.281-1.547.141-1.547.281-1.687.141-1.688.14-1.687v-5.203l-.14-1.828-.282-1.828-.422-1.829-.562-1.828-.703-1.828-.844-1.687-.984-1.828M330.047 156.375l1.969 1.266.984 1.125M339.188 162.281l.984-1.547 1.406-.562 1.125-.14h.563M339.188 168.47l1.828-1.126"/><path d="M332.297 164.25l1.828 1.406 1.688 1.547.984 1.688.281 1.968M332.578 153.141l2.672 2.531 1.406 2.672.422 1.97v.842M333 172.688l2.25.562 1.266.984"/></g><g stroke-width=".25"><path fill-rule="evenodd" d="M334.688 149.484l.281.985.14 1.125.422 1.265.703 1.547 1.266 1.828 1.969 2.25-.141.422-1.406-.843-.984-.14-.704.14-.562.421-.563.563-.421.562-.563.282-.703-.14-.844-.845-.281-1.125-.281-1.125-.422-.422-.844.422-.844 1.266-1.406 1.125-2.25-.28-1.406-1.267.14-1.266.141-1.125-.703-.562-1.266.141-1.125.843-1.406.703-1.547-.28-.984-1.266.14-1.547.563-1.266.281-.562-.703.421-.844-.42-.984-1.267-1.688-1.266-1.406-1.406-.281-1.969.984-1.828 1.266-.984 1.125-.28h1.125l1.687.842 1.547.703.985-.42 1.406-.423.984.843.563 1.266.422-.984.703-1.125.984-.563 1.688.141 1.828.984.703 1.266-.141 1.265-.14 1.266 1.687-.28.844.561.844.844z"/><path d="M336.656 155.953l-.984-.703-1.125-.844-1.125-.843-1.125-.844-1.125-.844-1.266-.844-1.265-.843-1.407-.844-1.406-.844-1.406-.562-1.547-.704-1.547-.42-1.547-.423-1.687-.282-1.828-.14h-1.828M319.5 153.984l2.109-1.265 1.125-.563M328.359 148.922l-.703-1.406.141-1.266.422-.984.281-.422M333.281 152.016l-.422-2.11"/><path d="M326.813 155.531l1.968-.843 1.828-.704 1.969-.14 1.828.703M318.656 150.328l2.953-.984 2.532.14 1.687.563.703.281M333.563 158.063l1.406-1.266 1.406-.422"/></g><g stroke-width=".25"><path fill-rule="evenodd" d="M334.266 140.625l-.422.984-.281 1.125-.282 1.407-.14 1.968.281 2.532-.563.281-.562-1.266-.703-.703-.703-.28h-.563l-.703.28-.422.141-.562-.14-.282-.423-.281-.984.281-.984.422-.985-.14-.703-.844-.14-1.266.421h-1.547l-1.546-1.406-.282-1.406.703-.985.704-.703v-.843l-.985-.563-1.406-.14-1.406-.14-1.266-.986.141-1.406.984-1.125.984-.562.422-.282-.984-.42-.141-1.689-.422-1.969-.14-1.828.703-1.406 1.547-.844 1.406-.14 1.125.421.844.563.703 1.547.703 1.406 1.969.563.562 1.125-.14.984.984-.422.984-.28.844.14.985.984.984 1.687-.281 1.125-.703.985-.704.843 1.547.704.282 1.125.14 1.125-.14.843z"/><path d="M332.578 145.406l-.281-1.125-.281-1.125-.422-1.265-.281-1.266-.422-1.266-.563-1.265-.422-1.406-.562-1.266-.703-1.266-.703-1.265-.844-1.266-.985-1.266-.984-1.125-1.125-.984-1.266-.984-1.406-.985M321.328 134.72h2.11l1.125.14M330.188 135.984l1.125-2.39 1.265-.703M332.438 140.484l.562-1.265"/><path d="M325.547 139.781l1.969.282 1.828.562 1.265.844.704 1.547M322.594 131.344l2.672 1.125 1.687 1.547 1.125 1.265.281.563M329.063 145.688l1.968-.422 1.266.422"/></g><g stroke-width=".25"><path fill-rule="evenodd" d="M329.063 141.188l1.968 1.406v.422l-1.265-.422h-.985l-.562.281-.422.563-.281.421-.282.422-.281.282h-.562l-1.266-1.407-.703-1.125-.844.563-.562 1.265-.985.985h-1.828l-1.125-.703-.14-.985-.141-.843-.703-.563-.844.281-.703.985-.844.703-1.265.14-1.125-.843-.282-1.125.141-.985.141-.422-.985.422-.984-1.125-1.547-.984-1.266-.984-.422-1.407 1.266-2.39 1.547-.844 1.547.422 1.406.562 1.406-1.125 1.688 1.547.844-2.109 1.968-.563 1.547.422.703.844.282.984.14.703h2.11l.703.563.422.703.281.844.422.844.422.984.984 1.125z"/><path d="M328.359 141.188l-.984-.563-.984-.422-.985-.562-.984-.563-1.125-.562-1.125-.422-1.266-.563-1.125-.28-1.265-.423-1.266-.28-1.406-.282-1.406-.14H311.625l-1.406.14-1.547.281M314.578 142.031l1.266-1.406.984-.703M320.625 136.688l-.984-1.829.281-1.265M324.984 138.375l-.421-1.687"/><path d="M320.203 142.172l1.547-.844 1.547-.844 1.406-.42 1.547.42M312.891 139.36l2.39-1.407 1.969-.28 1.406.14.563.14M326.391 143.297l.843-1.266.985-.422"/></g><g stroke-width=".25"><path fill-rule="evenodd" d="M321.75 130.36l.141 1.124.562 1.407.985 1.547 1.546 1.968-.14.282-2.11-.844-1.125.422-.843.843h-.985l-.703-1.546-.422-1.407-.843.422-.844.844-1.266.703-1.828-.562-.984-.844.281-.985.281-.843-.562-.703h-.985l-1.125.562-1.125.563-1.265-.422-.703-.985.14-1.265.563-1.125.281-.422h-1.266l-.703-1.125-1.125-1.125-.984-1.266-.141-1.547.844-1.406.984-.703.985-.28 1.125.14 1.406.843.984.563 1.828-.422.844 1.828.703-.703.703-.844.985-.563 1.547.282 1.125.984.281 1.125V126l-.141.844 1.407-.14.843.562.563.703.14.703v.844z"/><path d="M322.594 134.438l-.703-.704-.703-.843-.844-.703-.844-.844-.984-.844-.844-.844-.984-.703-1.125-.844-1.125-.703-1.125-.703-1.266-.562-1.266-.422-1.265-.422-1.407-.422-1.406-.14-1.547-.14M309.094 131.063l1.828-.704.984-.28M316.406 127.97l-.281-2.25.703-1.126M320.203 130.641l-.281-1.688"/><path d="M314.719 133.031l1.687-.562 1.547-.422h1.547l1.406.844M308.531 128.25l2.532-.562 1.968.281 1.266.562.422.282M319.922 135.984l1.266-1.125 1.265-.28"/></g><g stroke-width=".25"><path fill-rule="evenodd" d="M319.219 121.078v1.125l.281 1.406.563 1.83 1.125 2.25-.141.28-.984-.985-.844-.42h-.563l-.562.14-.563.421-.422.281h-.421l-.563-.14-.562-1.828-.282-1.407-.703.141-.984.844-1.266.422-1.687-.704-.844-1.125.281-.843.422-.844-.281-.844-1.125-.14-1.125.421-1.125.282-.985-.563-.562-.984.281-1.125.703-.844.282-.28-1.407-.142-.422-1.406-.843-1.547-.703-1.406v-1.547l1.125-1.266 1.125-.562h1.125l.843.281 1.125.984 1.407 1.125 1.406-.14.984 1.687.703-.703.703-.703.985-.14 1.406.421.984 1.125.141.985-.281.984-.422.844 1.687.422.704.703.281.844.14.703-.14.843z"/><path d="M319.359 124.734l-.562-.843-.703-.844-.703-.844-.703-.984-.704-.844-.843-.984-.844-.844-.844-.984-.984-.844-.985-.844-.984-.703-1.125-.703-1.266-.563-1.265-.562-1.266-.563-1.406-.28M306.563 119.672l1.687-.563.984-.14M314.438 117.844v-2.53l.843-.986M317.672 121.078l.281-1.687"/><path d="M311.906 122.344l1.688-.422 1.687-.14 1.266.421 1.125.985M306.563 116.578l2.531-.14 1.969.562 1.125.703.421.422M316.828 126.281l1.125-1.265 1.125-.14"/></g><g stroke-width=".25"><path fill-rule="evenodd" d="M313.313 118.266l-.141.703-1.266-.422h-.984l-.563.281-.281.422-.281.422-.281.422-.422.281-.563-.14-1.265-1.126-.703-1.125-.704.563-.421 1.125-.985.844h-1.828l-1.266-.703-.14-.844.14-.844-.703-.422-.984.281-.844.844-.984.844-1.125.141-1.125-.844-.141-1.125.141-1.125.14-.563-1.125.282-.984-.985-1.547-.844-1.265-.843-.422-1.407 1.125-2.67 1.828-.705 1.406.422 1.406.422 1.547-.984 1.547 1.406.703-1.828 2.391-.563 1.828 1.266.281 1.828 1.406-.422.844.282.703.562.422.703.281.703.422.844.422.984.985.985 1.265 1.265z"/><path d="M310.641 117.141l-.985-.422-.843-.563-1.125-.562-.985-.563-1.125-.422-1.125-.562-1.125-.422-1.265-.422-1.266-.422-1.266-.28-1.265-.282-1.407-.14-1.406-.14-1.406.14-1.406.14-1.547.281M296.859 117.844l1.266-1.266.984-.703M302.766 112.781l-.703-2.25.421-1.406M306.984 114.188l-.281-1.547"/><path d="M302.766 118.125l1.265-1.125 1.407-.844 1.406-.28 1.547.28M295.172 115.172l2.25-1.266 1.969-.28 1.406.28.562.141M308.531 119.391l.844-1.407.984-.703"/></g><g stroke-width=".25"><path fill-rule="evenodd" d="M300.094 111.516l-.844.422-.703.562-.844.141-.703-1.125-.281-1.266-.703.281-.703.844-.985.703-1.687-.28-.703-.845.14-.844.281-.703-.421-.562-.844.14-.844.704-.844.421h-.984l-.703-.984v-.984l.422-.985.281-.28-.422.421-.984-.422-.563-.703-.844-.984-.984-.985-.141-1.125 1.407-1.828 1.828-.14 2.25.703.844-.282 1.406 1.266.562-1.266 2.11-.14 1.406 1.406-.141 1.687 1.688.141.562.563.282.703v.703l.14.703.281.844.422.984.844 1.266 1.406 1.406-.14.562z"/><path d="M299.813 110.25l-1.266-1.125L297 108l-1.547-1.125-1.687-1.125-1.969-.984-1.969-.844-2.25-.422-2.531-.14M288.703 108.281l1.969-.984M294.469 105.75l-.281-1.969.421-.984M297.703 107.297l-.281-.984"/><path d="M293.344 109.828l1.265-.562 1.266-.563H297l.984.422M288 106.313l1.969-.704 1.687.141 1.125.281.422.282M297.844 111.797l1.547-1.266"/></g><path stroke-width=".5" d="M278.578 239.766l-2.109-.422-.563-.422"/><path fill-rule="evenodd" stroke-width=".25" d="M280.828 245.391l-1.125-.422-.703-.985-.703-1.125-.422-1.265-.141-1.266v-.844l.422-1.828.563-1.547.703-.984.703-.703.844-.422h.844l.843.141.844.562-1.125 1.547-.703 1.547-.141 1.406v1.406l.282 1.125.562 1.125.563.844.562.563-1.406.984z"/><path fill-rule="evenodd" stroke-width=".25" d="M287.625 236.641l1.969 1.265.703 1.547-.703 1.828-1.828 1.547-2.391 1.125-2.531.141-.985-2.25-.281-2.39.281-2.25.985-1.829 2.39.281z"/><g><path stroke-width=".5" d="M274.359 243.141l-1.265-2.11.14-.984"/><path fill-rule="evenodd" stroke-width=".25" d="M271.406 249.328l-.422-1.265.141-1.407.563-1.265.703-1.266.843-.984.704-.563 1.968-1.125 1.688-.703 1.406-.28h1.125l.844.28.703.703.562.985.282 1.125-2.11.14-1.687.563-1.406.843-1.125 1.125-.844 1.125-.703 1.266-.282 1.266-.14 1.125-1.828-.703z"/><path fill-rule="evenodd" stroke-width=".25" d="M276.234 251.625l-.984-.984-.844-1.125 1.125-2.532 1.688-1.828 1.969-1.125 1.968-.422.844.844.844 1.125.703 1.266.562 1.406.282 1.406v1.266l-.282.984-.562.844-.984.422-1.125.281-1.266-.14-1.406-.282-1.266-.562z"/></g><g><path stroke-width=".5" d="M283.078 227.531l-.703 2.25.281.985"/><path fill-rule="evenodd" stroke-width=".25" d="M278.719 222.188l-.141 1.265.563 1.266.703 1.125 1.125.984.984.703.844.422 2.109.703 1.688.422h1.265l1.125-.28.844-.564.563-.703.281-.984v-.984l-2.109.14-1.829-.14-1.546-.563-1.266-.844-1.125-.984-.703-1.125-.563-.984-.281-1.125-1.687.984z"/><path fill-rule="evenodd" stroke-width=".25" d="M287.641 215.953l-1.266.281-1.266.704-1.125.843-1.125.985-.843 1.125-.563 1.406.703 1.125.844.984 1.125.844 1.125.703 1.125.422 1.125.422h2.109l.563-1.125.422-1.266.281-1.406.141-1.547v-1.406l-.141-1.266-.422-1.125-.703-.703-.984-.14z"/></g></g></svg>