<svg xmlns="http://www.w3.org/2000/svg" version="1" width="800" height="480"><path fill="#fff" d="M0 0h800v480H0z"/><path d="M333.328 240L400 0h400v240H333.328z" fill="#c70f2e" fill-rule="evenodd"/><path d="M266.672 480H800V240H333.328l-66.656 240z" fill="#002673" fill-rule="evenodd"/><path d="M432.285 338.961c-16.627 16.627-55.782 20.152-98.968 20.152-43.186 0-82.34-3.525-98.96-20.146-16.622-16.622-20.147-55.776-20.147-98.962s3.525-82.339 20.153-98.966c16.629-16.627 55.782-20.152 98.968-20.152 43.186 0 82.34 3.525 98.961 20.146 16.622 16.622 20.146 55.776 20.146 98.962s-3.526 82.339-20.153 98.966z" fill="#f5dc0f" fill-rule="evenodd" stroke="#000" stroke-width="3" transform="matrix(.99491 0 0 .99492 1.082 1.22)"/><path d="M409.048 164.288c13.796 13.796 12.74 56.951 12.74 75.712 0 18.76 1.162 61.813-12.74 75.716-13.903 13.902-56.954 12.736-75.714 12.736-18.76 0-61.78 1.166-75.683-12.736-13.903-13.903-12.768-56.956-12.768-75.716 0-18.76-1.135-61.81 12.768-75.712 13.902-13.903 56.953-12.74 75.714-12.74 18.76 0 61.886-1.057 75.683 12.74z" fill="none" stroke="#000" stroke-width="1.5" transform="matrix(.99491 0 0 .99492 1.082 1.22)"/><path d="M291.02 145.698l-.117.132c-.906.125-2.307.366-4.203.72-1.941.364-3.335.647-4.18.85l-.14-.073-.135-.722.116-.131c.918-.216 1.442-.35 1.573-.404.252-.106.382-.266.389-.48.023-.53-.124-1.638-.439-3.32l-1.342-7.17-2.127 5.415c-.122.301-.527 1.401-1.213 3.301l-1.696 4.709-.912.17a81.245 81.245 0 0 0-2.54-2.96l-2.495-2.793-4.648-5.113 1.378 7.36c.315 1.683.58 2.768.793 3.255.083.197.262.299.536.306.141.003.679-.061 1.612-.192l.156.08.135.722-.118.12a73.23 73.23 0 0 0-6.056 1.134l-.154-.07-.135-.72.116-.132c.918-.216 1.442-.35 1.572-.404.253-.106.383-.266.39-.48.022-.53-.124-1.638-.439-3.32l-1.05-5.611c-.315-1.683-.58-2.768-.793-3.255-.084-.196-.262-.298-.536-.306-.141-.002-.679.062-1.612.192l-.156-.08-.135-.721.118-.121a83.8 83.8 0 0 0 3.591-.607 58.35 58.35 0 0 0 2.887-.606c.4.481.968 1.158 1.704 2.03l1.145 1.3 5.648 6.244 1.466-3.678 2.238-6.029c.26-.715.503-1.477.727-2.288a62.695 62.695 0 0 0 2.08-.323c1.778-.333 3.135-.609 4.07-.828l.154.07.137.732-.118.12c-.917.216-1.441.351-1.572.405-.253.106-.382.265-.39.479-.022.531.124 1.638.44 3.32l1.05 5.611c.315 1.683.579 2.768.792 3.255.084.197.263.299.536.306.142.003.68-.061 1.612-.192l.156.08.133.711zm14.946-4.148c-.159 1.058-.21 2.248-.155 3.57l-.133.114-10.06.358c-1.678.07-2.862.142-3.552.214l-.142-.102-.013-.302.064-.132c.668-.366 1.028-.594 1.08-.682.077-.14.107-.62.091-1.44l-.06-2.417-.23-5.466c-.071-1.71-.178-2.822-.32-3.335-.055-.206-.217-.333-.487-.379-.14-.023-.68-.036-1.623-.04l-.143-.102-.03-.733.134-.103c.933.004 2.373-.035 4.318-.116a1355.3 1355.3 0 0 0 9.888-.48l.156.079-.13 1.204c-.04.384-.067.709-.084.976l-.054 1.006-.134.125-.802.034-.143-.102c-.05-.977-.147-1.531-.291-1.662-.106-.096-.605-.155-1.497-.175a36.974 36.974 0 0 0-2.349.013c-.802.033-1.612.093-2.43.177-.07.76-.077 1.807-.021 3.144l.094 2.232a37.56 37.56 0 0 0 1.772-.02l1.812-.088c.848-.043 1.325-.117 1.432-.222.142-.136.218-.625.23-1.468l.133-.113.857-.036.143.102c-.003.806.01 1.544.038 2.212.03.726.082 1.52.155 2.38l-.134.103-.927.04-.142-.103c-.035-.826-.13-1.314-.284-1.462-.154-.149-.605-.232-1.354-.251a28.304 28.304 0 0 0-1.8.022c-.674.028-1.3.072-1.88.133l.138 3.288c.04.941.102 1.853.185 2.735l1.881-.079c2.693-.113 4.34-.265 4.942-.456a.469.469 0 0 0 .216-.128c.088-.104.166-.324.236-.658l.275-1.35.134-.125.843-.035.157.1zm28.235 3.12l-.138.109c-.914-.044-2.335-.065-4.264-.065-1.976 0-3.397.021-4.264.065l-.125-.097v-.734l.138-.108c.942-.043 1.482-.08 1.62-.108.268-.058.425-.19.47-.4.12-.517.18-1.632.18-3.344v-7.295l-3.086 4.932c-.176.273-.776 1.28-1.8 3.02l-2.534 4.317h-.927a81.234 81.234 0 0 0-1.953-3.377l-1.938-3.205-3.627-5.88v7.488c0 1.712.06 2.827.18 3.345.046.208.203.341.47.399.139.029.679.065 1.62.108l.139.108v.734l-.139.097a73.194 73.194 0 0 0-6.16 0l-.139-.097v-.734l.139-.108c.941-.043 1.48-.08 1.62-.108.267-.058.424-.19.47-.4.12-.517.18-1.632.18-3.344v-5.708c0-1.712-.06-2.827-.18-3.345-.046-.209-.203-.342-.47-.4-.14-.028-.679-.064-1.62-.108l-.139-.107v-.734l.139-.097c.96.043 2.173.064 3.64.064 1.127 0 2.11-.021 2.95-.064.304.546.738 1.316 1.301 2.309l.886 1.489 4.403 7.175 2.118-3.345 3.309-5.513c.387-.655.766-1.36 1.135-2.115a62.71 62.71 0 0 0 2.104.064c1.81 0 3.194-.021 4.154-.064l.138.097v.744l-.138.097c-.942.044-1.482.08-1.62.108-.268.058-.425.191-.47.4-.12.518-.18 1.633-.18 3.345v5.708c0 1.712.06 2.827.18 3.345.045.208.202.341.47.399.138.029.678.065 1.62.108l.138.108v.723zm17.583-11.804c0 1.482-.648 2.638-1.945 3.47-1.297.83-2.762 1.245-4.396 1.245-.554 0-1.112-.05-1.675-.15-.083-.195-.245-.454-.485-.777l.291-.238c.388.1.743.151 1.066.151.932 0 1.68-.257 2.243-.771.563-.515.844-1.236.844-2.164 0-2.007-1.158-3.01-3.475-3.01-.276 0-.83.043-1.66.13-.084.172-.125 1.348-.125 3.528v5.708c0 1.712.06 2.827.18 3.345.046.208.203.341.47.399.083.014.716.05 1.897.108l.152.119v.712l-.138.108a135.822 135.822 0 0 0-4.541-.065c-1.985 0-3.406.021-4.264.065l-.139-.097v-.723l.152-.12c.933-.042 1.468-.078 1.606-.107.268-.058.425-.19.471-.4.12-.517.18-1.632.18-3.344v-5.708c0-1.712-.06-2.827-.18-3.345-.046-.209-.203-.342-.47-.4-.139-.028-.679-.064-1.62-.108l-.139-.118v-.712l.152-.108c.905.043 2.294.064 4.168.064.775 0 1.892-.01 3.35-.032 1.458-.021 2.298-.032 2.52-.032 2.529 0 4.172.5 4.929 1.5.387.518.581 1.143.581 1.877zm23.196 12.908l-.144.101c-.91-.086-2.33-.175-4.256-.266-1.973-.094-3.394-.14-4.262-.138l-.134-.104.035-.732.157-.101c.942.001 1.483-.009 1.623-.031.27-.045.433-.17.49-.376.144-.512.256-1.623.338-3.333l.123-2.598c-.469-.058-1.961-.147-4.478-.266-2.323-.11-3.855-.165-4.594-.164l-.123 2.597c-.082 1.71-.074 2.827.02 3.35.037.21.187.35.452.421.137.035.675.097 1.613.185l.133.114-.034.722-.13.102c-.92-.087-2.338-.176-4.256-.267-1.982-.094-3.403-.14-4.262-.137l-.134-.104.035-.733.143-.101c.943.001 1.484-.009 1.623-.031.27-.045.433-.17.49-.377.144-.511.257-1.622.338-3.332l.27-5.702c.082-1.71.075-2.827-.02-3.35-.037-.21-.187-.35-.452-.42-.137-.036-.675-.098-1.613-.185l-.133-.115.035-.733.143-.09c.883.085 2.301.174 4.256.267 2 .095 3.421.14 4.262.137l.12.103-.035.744-.143.09c-.942-.001-1.483.01-1.623.031-.27.045-.433.17-.49.377-.144.511-.256 1.622-.338 3.332l-.084 1.779c.975.082 2.32.164 4.035.245 2.693.128 4.371.19 5.037.185l.084-1.778c.081-1.71.074-2.827-.02-3.35-.037-.21-.188-.35-.452-.42-.137-.036-.675-.098-1.613-.185l-.147-.115.035-.733.143-.09c.892.085 2.31.174 4.256.266 2.01.096 3.43.141 4.262.138l.134.103-.035.744-.13.091c-.96-.002-1.506.008-1.636.03-.27.045-.433.17-.49.377-.144.511-.257 1.622-.338 3.333l-.27 5.701c-.082 1.71-.075 2.827.02 3.35.037.21.187.35.452.421.137.035.674.097 1.613.185l.133.114-.034.722zm10.205 1.393l-.136.093c-.912-.15-2.326-.338-4.242-.562-1.907-.223-3.32-.367-4.243-.431l-.11-.122.083-.718.15-.091c.94.066 1.48.094 1.622.081.272-.026.444-.14.514-.342.18-.5.368-1.6.567-3.301l.664-5.67c.199-1.7.27-2.814.21-3.343-.021-.212-.162-.363-.421-.451-.134-.045-.666-.143-1.596-.296l-.125-.123.085-.729.149-.08c.875.146 2.284.333 4.228.56 1.934.226 3.344.37 4.229.43l.126.112-.085.73-.15.09c-.94-.066-1.481-.093-1.622-.08-.272.025-.444.14-.514.341-.18.5-.368 1.601-.568 3.301l-.663 5.67c-.2 1.7-.27 2.815-.21 3.343.021.213.162.363.42.451.135.045.667.143 1.597.296l.125.123-.084.718zm16.078-1.398c-.317 1.144-1.014 2.037-2.091 2.68-.942.568-2.057.875-3.344.923-1.18.046-2.523-.138-4.026-.553a16.303 16.303 0 0 1-5.222-2.518l-.097-.273c.47-.729.907-1.828 1.313-3.298l.162-.067.854.236.092.137-.066.24c-.108.387-.196.915-.266 1.583.198.532.666 1.072 1.406 1.62a7.705 7.705 0 0 0 2.557 1.244c1.762.487 3.113.345 4.053-.425.483-.396.798-.858.943-1.385.246-.888-.055-1.654-.902-2.298-.42-.317-1.137-.684-2.152-1.099-2.297-.94-3.76-1.729-4.388-2.365-.95-.964-1.236-2.13-.858-3.495.393-1.422 1.32-2.386 2.781-2.892 1.544-.529 3.473-.473 5.786.166 2.082.575 3.691 1.3 4.829 2.174l.024.275c-.442.766-.845 1.722-1.209 2.868l-.176.063-.84-.232-.105-.14c.203-.84.308-1.393.315-1.66-.186-.402-.59-.812-1.211-1.23a7.652 7.652 0 0 0-2.184-.985c-1.193-.33-2.204-.344-3.034-.043-.777.285-1.268.795-1.47 1.53-.221.797-.014 1.485.62 2.064.414.375 1.484.92 3.211 1.637.181.072.682.285 1.504.64.506.214.963.448 1.371.703.826.512 1.39 1.1 1.695 1.767.326.725.368 1.527.125 2.408zM233.195 281.084c1.177-.153 2.27.142 3.281.885.89.648 1.606 1.555 2.15 2.722.502 1.07.854 2.379 1.055 3.926.25 1.922.153 3.852-.291 5.79l-.214.195c-.854-.15-2.037-.126-3.549.071l-.125-.123-.114-.879.09-.137.247-.032c.4-.052.92-.176 1.562-.371.414-.39.73-1.03.946-1.924.227-.933.278-1.88.153-2.84-.236-1.813-.891-3.003-1.966-3.57-.553-.291-1.1-.401-1.643-.33-.913.118-1.502.693-1.767 1.723-.13.51-.188 1.314-.176 2.41.026 2.482-.132 4.136-.474 4.963-.52 1.25-1.482 1.966-2.887 2.149-1.463.19-2.711-.29-3.746-1.44-1.087-1.217-1.785-3.016-2.095-5.395-.279-2.142-.236-3.907.127-5.294l.245-.13c.877.11 1.914.11 3.112 0l.126.137.113.865-.09.151c-.852.139-1.402.257-1.65.355-.299.327-.52.858-.664 1.594a7.652 7.652 0 0 0-.058 2.395c.16 1.226.54 2.164 1.139 2.811.565.606 1.225.86 1.981.762.82-.107 1.374-.565 1.66-1.375.185-.527.273-1.725.261-3.594-.003-.195-.002-.74.005-1.634.001-.55.04-1.062.116-1.537.15-.96.474-1.71.97-2.249.54-.582 1.264-.932 2.17-1.05zm4.144-24.158l.112.135c-.02.915-.003 2.337.048 4.265.052 1.974.11 3.395.177 4.26l-.094.142-.733.02-.112-.15c-.068-.94-.118-1.479-.15-1.617-.065-.266-.202-.419-.412-.46-.521-.106-1.637-.136-3.349-.091l-2.6.068c-.023.472-.001 1.967.065 4.486.061 2.325.12 3.856.175 4.593l2.6-.068c1.711-.045 2.824-.135 3.339-.268.207-.052.336-.212.387-.482.025-.139.046-.68.065-1.622l.104-.14.723-.02.11.122c-.018.924-.002 2.345.048 4.264.053 1.984.112 3.404.178 4.261l-.094.141-.733.02-.112-.136c-.068-.94-.118-1.479-.15-1.617-.065-.266-.202-.419-.412-.46-.52-.106-1.637-.136-3.348-.091l-5.707.15c-1.711.045-2.824.135-3.339.268-.207.052-.336.212-.386.481-.025.14-.047.68-.065 1.623l-.105.14-.733.02-.1-.136c.019-.887.003-2.308-.049-4.264-.052-2.002-.111-3.423-.177-4.261l.094-.127.744-.02.101.136c.068.94.118 1.479.15 1.616.065.266.202.42.412.46.521.107 1.637.137 3.349.092l1.78-.047c.01-.979-.008-2.326-.053-4.042-.071-2.695-.134-4.373-.187-5.037l-1.78.047c-1.711.045-2.824.135-3.339.268-.207.052-.336.212-.387.481-.025.14-.046.68-.065 1.623l-.104.155-.733.019-.1-.136c.019-.896.003-2.317-.048-4.264-.054-2.012-.113-3.432-.178-4.261l.094-.141.744-.02.1.122c.069.959.12 1.502.151 1.63.065.266.202.42.412.46.52.107 1.637.137 3.348.092l5.706-.15c1.712-.046 2.825-.135 3.34-.269.207-.051.336-.212.386-.48.025-.14.047-.68.065-1.623l.105-.141.722-.02zm-3.27-16.848c1.05.203 2.237.305 3.561.305l.108.138-.065 10.065c0 1.68.022 2.866.065 3.558l-.108.139h-.302l-.13-.07c-.338-.683-.55-1.052-.636-1.107-.137-.083-.615-.134-1.435-.152l-2.417-.042h-5.471c-1.712 0-2.827.06-3.345.18-.209.046-.342.203-.4.47-.028.14-.064.68-.107 1.62l-.108.14h-.734l-.097-.14c.043-.932.065-2.371.065-4.319 0-1.735-.022-5.035-.065-9.899l.086-.152 1.198.18c.381.055.705.097.971.124l1.004.097.118.139v.803l-.107.138c-.979.01-1.536.083-1.673.222-.1.101-.18.597-.237 1.488-.058.89-.087 1.673-.087 2.347 0 .803.026 1.615.076 2.436.755.102 1.802.153 3.14.153h2.233c.036-.73.054-1.32.054-1.772l-.01-1.814c-.008-.85-.062-1.33-.162-1.44-.13-.148-.615-.245-1.457-.29l-.108-.14v-.858l.108-.138a48.59 48.59 0 0 0 2.212.055c.727 0 1.521-.018 2.385-.055l.097.138v.928l-.108.138c-.827 0-1.318.074-1.473.222-.155.148-.257.595-.308 1.343a28.324 28.324 0 0 0-.053 1.8c0 .674.018 1.301.053 1.883h3.292c.942 0 1.855-.023 2.74-.07v-1.882c0-2.696-.082-4.348-.248-4.957a.469.469 0 0 0-.119-.221c-.1-.093-.316-.18-.647-.263l-1.338-.333-.119-.138v-.845l.108-.152zm0-17.168c1.05.203 2.237.305 3.561.305l.108.138-.065 10.066c0 1.68.022 2.866.065 3.558l-.108.138h-.302l-.13-.069c-.338-.683-.55-1.052-.636-1.108-.13-.083-.608-.133-1.435-.152l-2.417-.041h-5.471c-1.712 0-2.827.06-3.345.18-.209.046-.342.203-.4.47-.028.139-.064.679-.107 1.62l-.108.139h-.734l-.097-.139c.043-.95.065-2.344.065-4.181 0-1.901-.022-3.346-.065-4.333l.097-.139h.745l.097.139c.043.941.079 1.48.108 1.62.057.267.19.424.399.47.518.12 1.633.18 3.345.18h6.453c.942 0 1.855-.023 2.74-.07v-1.882c0-2.695-.082-4.347-.248-4.956a.469.469 0 0 0-.119-.222c-.1-.092-.316-.18-.647-.263l-1.338-.332-.119-.139v-.844l.108-.153zm-.898-17.883c-2.28-.057-3.577 1.809-3.802 5.607-.111-.723-.205-1.376-.37-1.99a5.967 5.967 0 0 0-.68-1.577c-.658-1.042-1.521-1.539-2.542-1.564-.626-.016-1.202.145-1.695.558-.933.78-1.442 2.49-1.507 5.063-.014.563 0 1.228.01 2.041a96.3 96.3 0 0 1-.026 3.42c-.05 2.003-.103 3.437-.166 4.258l.117.123.72.018.122-.117c.067-.94.069-1.48.1-1.618.065-.267.223-.429.433-.47.52-.107 1.651-.138 3.363-.096l5.458.137 2.398.12c.826.039 1.309.07 1.436.155.085.058.31.465.632 1.156l.118.063.3.008.123-.117c-.027-.647-.02-1.58.009-2.76l.142-3.298c.016-.36.02-.826.035-1.38.043-1.743-.152-3.157-.614-4.276-.936-2.267-2.31-3.419-4.114-3.464zm.195 4.206c1.064.027 1.906.413 2.493 1.083.616.717.917 1.731.885 3.023-.017.683-.1 1.18-.159 1.556-.519.024-1.022.035-1.56.021l-4.98-.124c-.009-.471-.037-.892-.028-1.261.073-2.907 1.191-4.352 3.349-4.298zm-7.153.422c.547.013 1.013.2 1.488.517.82.547 1.218 1.66 1.177 3.33-.016.637-.012 1.048-.032 1.26l-2.999-.075a43.695 43.695 0 0 1-2.097-.112c-.046-.49-.033-1.1-.016-1.801.054-2.122.89-3.159 2.479-3.12zm-1.06-25.11c1.408 1.593 3.151 3.355 5.229 5.287 1.172 1.089 1.929 1.7 2.27 1.833.182.072.448.124.799.156l1.064.097c2.099.191 3.274.215 3.526.07a.505.505 0 0 0 .222-.299c.07-.225.169-.786.294-1.683l.12-.128.72.066.095.147c-.126.907-.276 2.32-.451 4.241-.18 1.967-.287 3.385-.323 4.253l-.108.115-.73-.067-.095-.147c.039-.905.044-1.475.014-1.709a.505.505 0 0 0-.164-.335c-.221-.187-1.382-.376-3.48-.567l-1.269-.115c-.272-.025-1.427.597-3.464 1.867-2.075 1.293-3.5 2.345-4.274 3.155-.375.392-.593.66-.653.803-.06.143-.115.485-.164 1.027l-.132.141-.602-.054-.106-.15c-.14-2.273-.252-3.734-.337-4.381.223-.462.494-.868.815-1.219.666-.727 2.087-1.654 4.262-2.781l2.98-1.55c-.63-.604-1.905-1.763-3.822-3.476l-1.999-1.725c-.221-.187-.527-.442-.916-.765l.183-2.013.12-.128.376.034zM427.836 195.98l-1.173-.492c-1.075-1.825-1.766-3.932-2.073-6.322-.613-4.779.308-8.22 2.766-10.321 1.137-.974 2.43-1.554 3.878-1.74 2.34-.3 4.334.458 5.981 2.275 1.696 1.858 2.771 4.553 3.225 8.087a23.214 23.214 0 0 1-.109 6.7l-.137.199c-1.025-.185-2.202-.23-3.531-.133l-.123-.11-.104-.81.1-.153c.86-.138 1.453-.265 1.779-.381.859-1.274 1.15-2.99.873-5.151-.286-2.225-1.06-3.899-2.32-5.02-1.261-1.123-2.833-1.563-4.717-1.322-2.547.327-4.358 1.704-5.431 4.131-.574 1.293-.732 2.946-.473 4.96.235 1.831.832 3.574 1.791 5.228l-.202.375zm6.31 1.902c-2.465.108-4.332 1.09-5.637 2.949-1.304 1.859-1.91 4.37-1.772 7.524.146 3.339 1.01 5.893 2.56 7.756 1.597 1.916 3.714 2.84 6.366 2.724 2.343-.102 4.136-1.123 5.394-2.998 1.237-1.847 1.79-4.361 1.65-7.58-.098-2.25-.477-4.141-1.148-5.655-1.478-3.325-3.957-4.871-7.413-4.72zm.845 4.227c1.222-.053 2.321.097 3.326.515 1.958.81 2.996 2.59 3.116 5.329.09 2.075-.473 3.689-1.652 4.817-1.178 1.127-2.82 1.744-4.904 1.836-1.337.058-2.536-.13-3.628-.562-2.059-.816-3.115-2.576-3.23-5.204-.095-2.167.484-3.796 1.766-4.942 1.24-1.107 2.986-1.692 5.206-1.789zm7.133 38.98l-.108-.139c0-1.089-.227-1.703-.68-1.841-.252-.074-.799-.13-1.64-.166a65.905 65.905 0 0 0-2.709-.042h-3.323c-2.136 0-3.661-.54-4.575-1.62-1.209-1.43-1.813-3.47-1.813-6.119 0-2.418.313-4.306.939-5.663.532-1.144 1.288-1.892 2.266-2.242.626-.222 2.259-.333 4.899-.333h2.784c1.712 0 2.827-.06 3.345-.18.208-.046.341-.203.399-.47.029-.139.065-.679.108-1.62l.108-.139h.723l.107.139c-.043.886-.064 2.307-.064 4.264 0 1.994.021 3.41.064 4.25l-.107.139h-.723l-.108-.139c-.043-.941-.08-1.481-.108-1.62-.058-.267-.19-.424-.4-.47-.517-.12-1.632-.18-3.344-.18h-2.223c-2.72 0-4.385.157-4.996.47-1.209.628-1.813 2.174-1.813 4.638 0 1.616.31 2.876.928 3.78.295.425.594.72.896.886.302.166.77.296 1.402.388.59.083 1.187.124 1.792.124h2.244c1.885 0 3.172-.009 3.863-.027.647-.019 1.068-.074 1.262-.166.144-.074.256-.236.335-.485.065-.212.119-.78.162-1.703l.108-.138h.723l.107.138a46.17 46.17 0 0 0-.064 2.478c0 .637.021 1.86.064 3.67l-.107.138h-.723zm-.282 23.497l-.107-.153c-.033-.942-.064-1.483-.09-1.621-.056-.269-.187-.427-.395-.475-.517-.126-1.631-.197-3.343-.215l-4.38-.046c-3.23-.033-5.335.005-6.314.114l-.096-.18c.148-1.042.253-1.83.316-2.365 2.191-2.45 6.184-6.632 11.98-12.544l-7.057-.073c-1.712-.018-2.827.03-3.347.145-.209.044-.343.2-.404.466-.03.139-.072.678-.125 1.62l-.109.136-.734-.007-.095-.14a73.225 73.225 0 0 0 .064-6.16l.099-.138.733.008.107.14c.033.941.063 1.482.09 1.62.055.269.187.427.395.475.517.126 1.631.197 3.343.215l5.708.06c1.712.018 2.827-.03 3.346-.145.21-.044.344-.2.404-.467.03-.138.072-.678.125-1.619l.11-.137.733.008.096.14a60.992 60.992 0 0 0-.058 5.607c-3.488 3.286-7.23 7.151-11.225 11.595l6.312.066c1.712.018 2.827-.03 3.346-.145.21-.044.344-.2.405-.467.03-.138.071-.677.124-1.618l.11-.137.733.007.096.14a70.763 70.763 0 0 0-.095 2.948 71.412 71.412 0 0 0 .03 3.212l-.098.138-.733-.008zm-.648 19.228a8.785 8.785 0 0 0-1.636-.29l-1.796-.147-.098-.145.058-.87.107-.146c.922.015 1.463 0 1.625-.044.295-.091.483-.375.565-.85.034-.183.102-1.048.206-2.595l.123-1.851c-.25-.035-1.247-.111-2.991-.228l-6.115-.408c-1.708-.114-2.825-.128-3.35-.043-.211.032-.354.18-.43.443-.037.136-.11.673-.215 1.61l-.117.13-.721-.048-.099-.145c.104-.91.22-2.326.349-4.25.131-1.972.205-3.391.22-4.26l.104-.118.733.05.098.145c-.02.942-.02 1.483 0 1.623.04.27.162.436.367.496.509.154 1.617.289 3.325.403l6.116.408c1.772.118 2.771.17 2.995.158l.132-1.975c.11-1.649.135-2.614.074-2.895-.033-.15-.08-.256-.14-.315-.11-.09-.335-.175-.676-.253a9.69 9.69 0 0 0-1.165-.203l-.099-.145.058-.87.118-.145 1.843.095a9.9 9.9 0 0 0 1.615-.059l.1.132c-.108.538-.276 2.516-.504 5.933l-.374 5.594c-.21 3.15-.306 5.132-.288 5.947l-.117.131zm-3.538 20.655c-1.263-1.71-2.844-3.619-4.744-5.726-1.072-1.188-1.772-1.863-2.1-2.025-.175-.088-.436-.163-.783-.226l-1.05-.19c-2.075-.375-3.243-.502-3.507-.38a.505.505 0 0 0-.247.278c-.09.218-.238.769-.441 1.651l-.131.117-.711-.128-.082-.156c.205-.891.479-2.286.822-4.184.351-1.944.583-3.347.695-4.208l.117-.106.722.131.082.155c-.118.898-.173 1.465-.165 1.701a.505.505 0 0 0 .135.348c.204.206 1.343.496 3.417.87l1.253.227c.269.049 1.474-.47 3.614-1.555 2.181-1.107 3.693-2.03 4.536-2.768.408-.358.648-.605.72-.742.073-.137.157-.474.254-1.01l.144-.128.595.107.092.157c-.06 2.278-.077 3.743-.049 4.395-.262.44-.568.821-.919 1.143-.727.665-2.224 1.464-4.49 2.396l-3.105 1.282c.576.657 1.743 1.923 3.503 3.798l1.84 1.894c.203.206.485.487.845.843l-.36 1.989-.13.117-.372-.067zM266.937 330.138c-.36.408-.684.857-.972 1.347l-.914 1.553-.174.025-.759-.43-.084-.16c.415-.824.637-1.318.667-1.483.046-.305-.127-.598-.52-.879-.15-.11-.899-.547-2.247-1.313l-1.613-.917c-.14.21-.642 1.075-1.506 2.595l-3.027 5.329c-.846 1.488-1.344 2.487-1.496 2.997-.063.204.008.397.212.58.106.093.558.391 1.355.894l.067.162-.357.629-.174.025c-.773-.489-1.998-1.21-3.675-2.163-1.718-.975-2.964-1.659-3.74-2.05l-.06-.146.362-.638.174-.025c.84.427 1.327.663 1.462.706.26.082.463.044.606-.114.36-.392.963-1.331 1.809-2.82l3.027-5.329c.878-1.545 1.36-2.421 1.446-2.629l-1.721-.978c-1.437-.816-2.295-1.258-2.575-1.326-.15-.035-.265-.038-.345-.01-.129.06-.303.226-.521.498-.245.3-.475.62-.69.961l-.173.026-.759-.43-.079-.17.888-1.618c.247-.455.464-.948.65-1.48l.16-.032c.439.331 2.147 1.343 5.124 3.034l4.875 2.77c2.745 1.56 4.488 2.508 5.23 2.847l.067.162zm14.625 14.762c-.418.984-.765 2.124-1.042 3.418l-.158.077-9.83-2.165c-1.642-.35-2.807-.577-3.493-.68l-.112-.134.063-.295.094-.112c.739-.188 1.144-.319 1.216-.392.11-.116.26-.573.449-1.371l.545-2.355 1.142-5.35c.358-1.675.532-2.778.523-3.31-.002-.213-.128-.376-.377-.488-.13-.057-.65-.205-1.562-.444l-.113-.134.153-.718.156-.066c.903.237 2.306.559 4.21.965 1.698.362 4.93 1.03 9.695 2.003l.131.117-.426 1.133c-.134.362-.242.67-.325.924l-.304.961-.16.088-.785-.168-.113-.135c.195-.958.24-1.519.132-1.681-.078-.12-.547-.301-1.406-.543a36.919 36.919 0 0 0-2.277-.575 39.845 39.845 0 0 0-2.398-.435c-.257.718-.525 1.731-.805 3.04l-.466 2.184c.706.187 1.28.328 1.722.423l1.776.368c.832.17 1.312.217 1.442.142.171-.096.367-.55.588-1.364l.158-.077.84.18.112.134c-.204.78-.376 1.498-.516 2.152-.151.71-.3 1.492-.443 2.344l-.156.066-.907-.194-.113-.134c.173-.81.203-1.305.09-1.487-.111-.182-.528-.376-1.248-.581a28.29 28.29 0 0 0-1.75-.429 30.605 30.605 0 0 0-1.852-.34l-.687 3.218c-.197.922-.365 1.82-.504 2.695l1.841.393c2.636.563 4.269.827 4.899.792a.468.468 0 0 0 .241-.07c.112-.079.242-.271.393-.578l.604-1.239.16-.087.826.176.127.138zm25.395-9.09l-.158.098c-.943-.014-1.484-.01-1.624.01-.27.04-.435.164-.494.37-.151.51-.279 1.619-.383 3.327l-.266 4.373c-.196 3.224-.264 5.328-.203 6.312l-.186.086c-1.033-.2-1.814-.345-2.345-.435-2.338-2.311-6.313-6.51-11.925-12.595l-.429 7.044c-.104 1.709-.112 2.826-.023 3.35.033.21.182.353.445.427.137.037.674.106 1.61.206l.132.116-.044.732-.144.089a73.203 73.203 0 0 0-6.15-.374l-.132-.105.044-.733.145-.1c.942.015 1.484.012 1.624-.008.27-.042.435-.165.494-.37.15-.51.278-1.62.382-3.328l.347-5.698c.104-1.709.112-2.825.023-3.35-.033-.21-.182-.353-.445-.427-.137-.037-.673-.106-1.61-.206l-.132-.116.044-.732.145-.089a60.996 60.996 0 0 0 5.597.34c3.106 3.649 6.778 7.58 11.016 11.795l.383-6.301c.104-1.709.112-2.826.024-3.35-.034-.21-.182-.353-.446-.427-.136-.037-.673-.106-1.61-.206l-.132-.116.045-.733.144-.088a70.8 70.8 0 0 0 2.94.244c1.188.072 2.258.115 3.21.13l.132.105-.045.733zm23.672.174l-.152.108c-.941.043-1.481.08-1.62.108-.267.057-.424.19-.47.4-.12.517-.18 1.632-.18 3.344v4.381c0 3.23.06 5.334.18 6.312l-.18.097a111.721 111.721 0 0 0-2.368-.29c-2.474-2.166-6.696-6.115-12.668-11.849v7.057c0 1.712.06 2.827.18 3.345.046.209.203.342.47.4.14.028.68.064 1.62.107l.14.108v.734l-.14.097a73.193 73.193 0 0 0-6.16 0l-.139-.097v-.734l.139-.108c.941-.043 1.481-.079 1.62-.108.267-.057.424-.19.47-.399.12-.518.18-1.633.18-3.345v-5.708c0-1.712-.06-2.827-.18-3.345-.046-.209-.203-.342-.47-.4-.139-.028-.679-.064-1.62-.107l-.139-.108v-.734l.139-.097a60.99 60.99 0 0 0 5.607 0c3.323 3.453 7.227 7.154 11.713 11.103v-6.312c0-1.712-.06-2.827-.18-3.345-.047-.209-.204-.342-.471-.4-.139-.028-.679-.064-1.62-.107l-.138-.108v-.734l.138-.097a70.78 70.78 0 0 0 2.949.065c1.19 0 2.261-.022 3.212-.065l.138.097v.734zm17.07 10.79c-.202 1.05-.304 2.238-.304 3.561l-.138.108-10.065-.065c-1.68 0-2.866.022-3.558.065l-.139-.108v-.302l.07-.13c.682-.338 1.052-.55 1.107-.636.083-.137.134-.615.152-1.435l.042-2.417v-5.47c0-1.713-.06-2.828-.18-3.346-.046-.209-.203-.342-.47-.4-.14-.028-.68-.064-1.62-.107l-.14-.108v-.734l.14-.097c.931.043 2.371.065 4.319.065 1.735 0 5.035-.022 9.899-.065l.152.086-.18 1.198c-.055.381-.097.705-.125.971l-.096 1.004-.139.119h-.803l-.138-.108c-.01-.979-.083-1.536-.222-1.673-.101-.1-.597-.18-1.488-.237a36.96 36.96 0 0 0-2.347-.087c-.803 0-1.615.026-2.437.076-.101.755-.152 1.802-.152 3.14v2.234c.73.036 1.32.054 1.772.054l1.814-.011c.85-.007 1.33-.061 1.44-.162.147-.13.244-.615.29-1.457l.139-.108h.858l.139.108a48.605 48.605 0 0 0-.056 2.212c0 .727.019 1.522.056 2.385l-.139.097h-.927l-.139-.108c0-.827-.074-1.318-.221-1.473-.148-.154-.595-.257-1.343-.307a28.308 28.308 0 0 0-1.8-.054c-.674 0-1.301.018-1.883.054v3.29c0 .943.023 1.857.07 2.741h1.882c2.695 0 4.348-.082 4.957-.248a.469.469 0 0 0 .221-.118c.093-.101.18-.317.263-.648l.333-1.338.138-.119h.845l.152.108zm17.57-1.898c.073 1.185-.295 2.257-1.105 3.215-.707.843-1.66 1.497-2.862 1.96-1.101.428-2.43.69-3.988.787a16.302 16.302 0 0 1-5.757-.683l-.18-.227c.207-.841.264-2.023.17-3.545l.131-.117.885-.054.13.1.016.248c.025.402.113.93.264 1.583.36.44.979.798 1.856 1.075.915.29 1.856.404 2.823.345 1.824-.113 3.055-.686 3.694-1.72.328-.532.475-1.07.442-1.617-.057-.919-.59-1.545-1.6-1.88-.5-.163-1.298-.276-2.393-.338-2.478-.143-4.118-.413-4.92-.81-1.21-.603-1.86-1.611-1.947-3.026-.091-1.472.472-2.685 1.69-3.64 1.288-1.001 3.13-1.576 5.525-1.724 2.155-.133 3.913.029 5.273.485l.112.253c-.168.868-.238 1.903-.21 3.105l-.146.117-.87.054-.145-.1c-.08-.86-.161-1.417-.242-1.671-.306-.32-.822-.576-1.545-.77a7.652 7.652 0 0 0-2.386-.22c-1.234.076-2.195.391-2.882.945-.643.523-.941 1.165-.894 1.926.05.826.47 1.409 1.26 1.75.512.22 1.701.388 3.567.503.195.01.738.049 1.63.116a9.873 9.873 0 0 1 1.526.22c.947.215 1.673.588 2.177 1.12.545.578.845 1.324.901 2.235zm17.411-1.187c.101 1.183-.242 2.262-1.03 3.239-.686.86-1.625 1.535-2.815 2.026-1.091.454-2.414.747-3.968.88a16.303 16.303 0 0 1-5.772-.549l-.185-.222c.187-.846.216-2.03.087-3.549l.128-.119.883-.075.134.097.02.247c.035.402.135.927.302 1.577.37.43.997.775 1.88 1.031a7.705 7.705 0 0 0 2.83.28c1.821-.156 3.04-.757 3.654-1.806.315-.54.45-1.082.403-1.626-.078-.918-.626-1.532-1.643-1.842-.504-.152-1.304-.247-2.4-.283-2.48-.085-4.126-.317-4.937-.695-1.225-.575-1.898-1.568-2.018-2.98-.125-1.47.41-2.695 1.605-3.678 1.264-1.032 3.092-1.65 5.483-1.853 2.152-.183 3.913-.062 5.283.363l.119.25c-.148.871-.195 1.908-.139 3.109l-.142.12-.87.074-.146-.096c-.101-.858-.195-1.413-.281-1.665-.314-.313-.835-.557-1.563-.734a7.652 7.652 0 0 0-2.39-.164c-1.233.105-2.186.442-2.86 1.012-.63.537-.913 1.186-.848 1.946.07.824.503 1.397 1.3 1.72.517.208 1.71.348 3.578.42.195.005.74.031 1.633.078a9.873 9.873 0 0 1 1.53.184c.952.193 1.686.549 2.203 1.068.557.566.875 1.305.952 2.215zm19.225-3.358c.078 1.067.29 2.24.635 3.517l-.106.14-9.733 2.565c-1.621.438-2.76.769-3.418.991l-.161-.068-.08-.291.034-.144c.57-.504.872-.805.903-.903.044-.154-.031-.629-.228-1.425l-.59-2.344-1.428-5.282c-.447-1.652-.796-2.713-1.047-3.182-.099-.189-.285-.276-.559-.262-.14.008-.671.114-1.591.318l-.162-.068-.192-.708.109-.13c.91-.201 2.306-.556 4.186-1.065 1.675-.453 4.855-1.335 9.54-2.646l.169.044.139 1.203c.046.383.09.706.133.97l.168.994-.102.15-.776.21-.161-.068c-.265-.942-.481-1.46-.65-1.556-.125-.071-.625-.018-1.5.159-.874.177-1.637.353-2.287.529a39.84 39.84 0 0 0-2.333.709c.1.756.323 1.78.673 3.07l.583 2.157a37.56 37.56 0 0 0 1.724-.41l1.748-.484c.818-.229 1.267-.406 1.348-.532.109-.164.076-.658-.1-1.482l.106-.14.829-.225.161.068c.175.788.35 1.504.524 2.15.19.702.415 1.464.676 2.288l-.108.13-.896.242-.161-.068c-.216-.799-.416-1.254-.599-1.364-.183-.111-.641-.093-1.376.053a28.29 28.29 0 0 0-1.752.418c-.65.176-1.251.357-1.803.543l.859 3.177c.246.91.506 1.786.782 2.628l1.817-.491c2.602-.704 4.175-1.215 4.72-1.533a.468.468 0 0 0 .183-.173c.063-.121.091-.352.085-.693l-.028-1.379.102-.15.815-.22.176.063zm18.361-9.484c.35 1.011.858 2.09 1.521 3.235l-.066.162-8.742 4.988c-1.454.842-2.47 1.455-3.047 1.84l-.174-.025-.151-.261-.005-.147c.422-.635.635-1.004.64-1.106.003-.16-.193-.6-.588-1.318l-1.175-2.113-2.742-4.734c-.858-1.481-1.468-2.416-1.832-2.804-.144-.158-.347-.194-.607-.11-.134.044-.62.284-1.456.718l-.174-.024-.367-.635.07-.153c.829-.43 2.086-1.133 3.771-2.109 1.502-.87 4.346-2.541 8.534-5.016l.175-.002.445 1.127c.143.358.269.658.378.903l.42.917-.061.172-.695.402-.174-.024c-.498-.842-.841-1.287-1.03-1.336-.138-.036-.607.144-1.406.54-.8.397-1.491.764-2.074 1.101-.695.403-1.386.832-2.071 1.287.29.704.77 1.636 1.441 2.793l1.12 1.933c.649-.334 1.169-.614 1.56-.841l1.564-.918c.732-.432 1.12-.72 1.165-.862.063-.186-.096-.655-.478-1.406l.066-.163.742-.43.174.024a48.55 48.55 0 0 0 1.06 1.942c.365.629.78 1.307 1.244 2.036l-.071.153-.803.465-.174-.024c-.414-.716-.724-1.104-.93-1.163-.205-.06-.644.075-1.316.406-.505.251-1.033.537-1.585.856-.583.337-1.117.667-1.602.99l1.65 2.848c.472.815.95 1.594 1.433 2.337l1.63-.944c2.331-1.35 3.72-2.25 4.164-2.698a.468.468 0 0 0 .132-.214c.03-.133-.003-.364-.097-.692l-.383-1.324.06-.172.731-.424.186.017z" style="text-align:center;line-height:125%" font-size="13.038" font-weight="400" text-anchor="middle" font-family="Bitstream Vera Sans"/><g fill-rule="evenodd"><path d="M314.938 167.294c-1.15.894-.329 1.33 0 1.92 1.812 3.26 2.57 6.247.9 8.82-.49.753-.619 1.212 0 1.8h7.56c.618-.588.488-1.047 0-1.8-1.671-2.573-.733-5.56 1.08-8.82.328-.59 1.15-1.026 0-1.92h-9.54zm.9 14.22v2.58h7.74v-2.58h-7.74zm.96 4.5v46.618c3.33.31 5.003.24 10.86.24l23.818.06c2.078-2.026 5.376-4.231 8.34-5.04h-37.199v-1.26h10.8v-2.58h2.52v2.58h48.958v-2.46h-44.098v-4.14h-12.24v4.14h-5.94v-38.158h-5.82zm10.26 25.019v2.76h15.119v-2.76h-15.12zm1.5 4.32v2.82h4.919v-2.82h-4.92zm7.319 0v2.82h4.92v-2.82h-4.92zm34.799 12.54c2.977.811 6.327 3.056 8.22 4.98l6 .06v-5.04h-14.22zm-5.4 1.32c-4.796 0-8.814 1.817-12 4.8h-25.619c-18.254 0-36.892-1.39-46.918-3.48l-.06 3.84c10.63 2.215 28.514 3.6 46.978 3.6h22.62a12.95 12.95 0 0 0-.78 1.56h-1.56v3.84h.48c-.106.655-.182 1.31-.24 1.98h-.24v3.719h.42c.081.528.163 1.048.3 1.56h-28.68c-25.355 0-48.409-.92-64.197-6 1.046 4.118 3.888 7.91 9.06 11.22h86.096c3.176 4.638 8.157 7.68 14.34 7.68 6.182 0 11.085-3.043 14.28-7.68h24.839c1.956-1.554 3.03-3.174 3.3-5.22h-25.8l.3-1.56h1.26v-3.72h-1.08l-.24-1.98h1.32v-3.84h-2.46l-.78-1.56h25.44v-3.96h-28.44c-3.203-2.978-7.147-4.8-11.939-4.8zm-84.177 6.84v4.8c1.673.223 3.527.4 5.46.6v-4.56c-1.917-.273-3.78-.538-5.46-.84zm7.5 1.08v4.56c1.667.157 3.532.34 5.34.48v-4.32c-1.865-.2-3.617-.494-5.34-.72zm7.38.9v4.26c1.823.128 3.534.251 5.46.36v-4.14a291.34 291.34 0 0 1-5.46-.48zm7.439.6v4.08c1.769.09 3.573.167 5.4.24v-3.96c-1.827-.104-3.631-.231-5.4-.36zm7.44.48v3.96c1.792.062 3.516.075 5.34.12v-3.84c-1.811-.063-3.562-.151-5.34-.24zm7.44.3v3.84c1.802.035 3.589.044 5.4.06v-3.84c-1.819-.023-3.595-.01-5.4-.06zm7.38.12v3.84c.66.002 1.32 0 1.98 0h3.42v-3.84h-3.42c-.66 0-1.32.003-1.98 0zm7.439 0v3.84h5.46v-3.84h-5.46zm7.44 0v3.84h5.4v-3.84h-5.4zm44.878 0v3.84h5.4v-3.84h-5.4zm7.44 0v3.84h5.4v-3.84h-5.4zm7.44 0v3.84h5.34v-3.84h-5.34zm-119.216 3.3v4.799c1.777.168 3.613.288 5.46.42v-4.62c-1.925-.198-3.779-.378-5.46-.6zm7.5.78v4.619c1.77.114 3.513.214 5.34.3v-4.5c-1.805-.14-3.67-.261-5.34-.42zm7.38.66v4.319c1.803.075 3.61.127 5.46.18v-4.14a366.63 366.63 0 0 1-5.46-.36zm7.439.42v4.199c1.786.044 3.578.033 5.4.06v-4.02c-1.818-.074-3.638-.147-5.4-.24zm7.44.36v3.959c1.763.02 3.548.052 5.34.06v-3.9c-1.82-.045-3.55-.055-5.34-.12zm7.44.18v3.839h5.4v-3.78c-1.82-.016-3.59-.023-5.4-.06zm7.38.12v3.719h5.4v-3.72h-3.42c-.663 0-1.318.003-1.98 0zm7.439 0v3.719h5.46v-3.72h-5.46zm7.44 0v3.719h5.4v-3.72h-5.4zm44.878 0v3.719h5.4v-3.72h-5.4zm7.44 0v3.719h5.4v-3.72h-5.4zm7.44 0v3.719h5.34v-3.72h-5.34zm-46.139 10.499h22.14c-2.788 3.133-6.438 5.1-11.04 5.1-4.602 0-8.33-1.967-11.1-5.1z"/><path d="M392.688 342.25l-1.25.219-.094 1.406-.938.344-1-1.031-1.094.656.375 1.375-.75.594-1.28-.594-.813.969.844 1.156-.5.844-1.407-.157-.437 1.219 1.187.781-.187.969-1.375.344v1.281l1.375.344.187.969-1.187.78.437 1.22 1.406-.157.47.875-.813 1.125.812.969 1.281-.594.75.625-.375 1.344 1.094.656.969-1 .938.344.125 1.375 1.25.219.562-1.281h1l.563 1.28 1.25-.218.125-1.375.937-.344.969 1 1.094-.656-.375-1.344.75-.625 1.28.594.813-.969-.812-1.125.469-.875 1.406.156.437-1.218-1.187-.781.187-.97 1.375-.343v-1.281l-1.375-.344-.187-.969 1.187-.781-.437-1.219-1.406.156-.5-.843.843-1.156-.812-.97-1.281.594-.75-.593.375-1.375-1.094-.656-1 1.03-.938-.343-.094-1.406-1.25-.219-.562 1.313h-1l-.563-1.313zm1.062 2.406c4.042 0 7.313 3.302 7.313 7.344a7.308 7.308 0 0 1-7.313 7.313 7.308 7.308 0 0 1-7.313-7.313c0-4.042 3.271-7.344 7.313-7.344zm0 .875c-3.56 0-6.437 2.91-6.437 6.47a6.431 6.431 0 0 0 6.437 6.437 6.431 6.431 0 0 0 6.437-6.438c0-3.56-2.877-6.469-6.437-6.469zm0 1.738c2.6 0 4.699 2.132 4.699 4.731 0 2.6-2.1 4.7-4.699 4.7-2.6 0-4.699-2.1-4.699-4.7 0-2.599 2.1-4.73 4.699-4.73zm0 .762a3.985 3.985 0 0 0-3.968 3.968c0 2.18 1.79 3.939 3.968 3.939 2.179 0 3.968-1.76 3.968-3.939a3.985 3.985 0 0 0-3.968-3.968zm0 .955a3.016 3.016 0 0 1 3.013 3.013c0 1.663-1.35 2.984-3.013 2.984-1.662 0-3.013-1.321-3.013-2.984a3.016 3.016 0 0 1 3.013-3.013z" stroke="#000" stroke-width=".131" transform="matrix(1.91994 0 0 1.91995 -391.959 -476.61)"/><path d="M286.259 176.354c-.83 6.41.107 8.986-.84 12.6-2.78-1.035-5.32-.655-7.98-4.92.916 4.15 4.667 4.27 7.86 6.9v7.92c-3.998-1.579-7.6-1.225-11.22-3 2.172 2.097 7.098 2.656 11.22 4.92v7.439c-3.625-.662-5.907-.311-9.18-1.5 2.031 1.688 5.104 1.438 9.18 3.06v12.9h-2.145v-7.02c-.095-4.324-3.753-4.395-6.975-4.74-2.913-.312-4.958-3.065-3.06-5.82 1.464-2.126 3.744-1.762 5.28-.78 1.038.664 2.488.167 2.94-.48.62-.887-.34-1.782-1.32-2.34-1.167-.663-2.133-.96-3.48-.96-1.33 0-3.333-.31-4.38-1.32-.638-.616-2.878-2.988-.78-5.7 1.244-1.607 4.699-1.38 6.367.32 1.009 1.029 2.921.938 3.23.392.585-1.038.179-2.243-.957-3.172-2.234-1.826-4.458-2.67-5.58-5.34-.586-1.393.119-3.296 1.2-4.08 1.367-.99 4.307-1.264 5.22 1.5.431 1.307 1.155 2.169 1.98 1.44.757-.669.37-2.285 0-3.36-.822-2.382-1.082-3.41-.72-5.34.463-2.47 2.653-3.12 4.14-3.12 1.486 0 3.676.65 4.14 3.12.361 1.93.101 2.958-.72 5.34-.371 1.075-.758 2.691 0 3.36.824.729 1.548-.133 1.98-1.44.913-2.764 3.852-2.49 5.22-1.5 1.08.784 1.785 2.687 1.2 4.08-1.123 2.67-3.346 3.514-5.58 5.34-1.137.93-1.543 2.134-.958 3.172.309.546 2.221.637 3.23-.391 1.669-1.7 5.123-1.928 6.367-.32 2.098 2.71-.142 5.083-.78 5.7-1.047 1.01-3.05 1.319-4.38 1.32-1.346 0-2.312.296-3.48.96-.98.557-1.94 1.452-1.32 2.34.452.646 1.902 1.143 2.94.48 1.537-.983 3.816-1.347 5.28.78 1.898 2.754-.147 5.507-3.06 5.819-3.222.345-6.88.416-6.975 4.74v7.02h-2.144v-12.9c4.075-1.622 7.148-1.372 9.18-3.06-3.274 1.189-5.556.838-9.18 1.5v-7.44c4.121-2.263 9.047-2.822 11.22-4.92-3.621 1.776-7.223 1.422-11.22 3v-7.92c3.192-2.63 6.943-2.75 7.86-6.9-2.66 4.266-5.2 3.886-7.98 4.92-.948-3.613-.01-6.188-.84-12.6zM310.558 259.152c-5.474 2.75-4.573 7.123-4.14 11.64-3.66-4.919-8.164-3.94-11.04-1.92 3.835 2.404 4.447 5.898 6.24 9.06 1.177 2.074 2.97 3.87 7.2 4.26v2.28h-37.619v3.779h37.619v2.28c-4.23.39-6.023 2.185-7.2 4.26-1.793 3.16-2.405 6.655-6.24 9.06 2.876 2.02 7.38 2.998 11.04-1.92-.433 4.516-1.334 8.89 4.14 11.64 5.474-2.75 4.572-7.124 4.14-11.64 3.66 4.918 8.163 3.94 11.04 1.92-3.836-2.405-4.447-5.9-6.24-9.06-1.178-2.075-2.97-3.87-7.2-4.26v-2.28h33.599c.57 6.83 4.233 12.725 10.2 13.32 2.267 1.094 5.328 1.881 7.379 1.98 2.437.117 4.85-.31 7.02-1.02 4.34-1.42 8.144-4.274 8.34-8.34.147-3.08-.332-5.673-2.64-7.8 1.9-2.33 3.01-4.555 2.64-7.86-.454-4.047-4-6.92-8.34-8.34-2.17-.71-4.583-1.137-7.02-1.02-2.051.099-5.112.886-7.38 1.98-5.948.594-9.612 6.506-10.2 13.32h-33.598v-2.28c4.23-.39 6.022-2.185 7.2-4.26 1.793-3.16 2.404-6.654 6.24-9.06-2.877-2.02-7.38-2.998-11.04 1.92.432-4.516 1.334-8.89-4.14-11.64zm0 8.94c.77 2.039.83 4.7.84 9.48 2.13-.097 3.787-4.573 7.26-4.98-3.56 2.099-3.334 6.84-8.1 6.84-4.767 0-4.54-4.741-8.1-6.84 3.472.407 5.13 4.883 7.26 4.98.01-4.78.069-7.441.84-9.48zm53.038 4.14c2.07-.122 4.153.175 6 .78 3.694 1.207 6.275 3.655 6.36 5.82.113 2.918-.666 4.633-3 6.36l-1.26 1.199 1.26 1.14c2.008 1.848 3.34 3.305 3 6.36-.24 2.154-2.666 4.612-6.36 5.82-3.576 1.169-7.968 1.108-11.64-.6-2.14-2.678-5.098-5.254-4.98-9.42 2.419-.457 8.276-.46 11.04-3.3-2.764-2.84-8.621-2.903-11.04-3.36-.117-4.166 2.84-6.742 4.98-9.42 1.775-.826 3.703-1.266 5.64-1.38zm-53.038 21.059c4.766 0 4.54 4.74 8.1 6.84-3.473-.408-5.13-4.884-7.26-4.98-.01 4.78-.07 7.44-.84 9.48-.771-2.04-.83-4.7-.84-9.48-2.13.096-3.788 4.572-7.26 4.98 3.56-2.1 3.333-6.84 8.1-6.84z"/></g></svg>