<svg xmlns="http://www.w3.org/2000/svg" xmlns:xlink="http://www.w3.org/1999/xlink" width="900" height="600" xmlns:cgf="https://coding.garden/flags"><metadata id="cgf-metadata">

<cgf:flag>
  <cgf:name></cgf:name>
  <cgf:route>be/bru</cgf:route>
  <cgf:aspect-ratio>1.5</cgf:aspect-ratio>
</cgf:flag>

</metadata><path fill="#0900bd" d="M0 0h900v600H0z"></path><path fill="#fff202" id="a" d="M436.5 465.19c-.05 7.015-2.785 12.616-9.658 12.614-7.264-.002-15.488-14.137-35.87-23.848-18.223-8.682-36.069-12.586-52.23-12.614-19.97-.035-53.65 9.634-85.54 10.052-30.08.394-57.29-13.939-74.502-32.718-12.846-14.016-21.77-36.238-21.68-56.369.114-25.378 9.941-50.264 32.324-68.983 16.294-13.627 35.116-19.246 56.96-19.315 32.721-.103 65.657 16.73 86.525 33.309 30.61 24.319 58.744 56.638 78.247 91.649 11.101 19.929 25.516 53.222 25.425 66.224z"></path><use xlink:href="#a" transform="matrix(-1 0 0 1 900 0)"></use><path fill="#fff" d="M507.06 123.03c26.469-.153 45.029 10.159 60.393 25.228 16.558 16.24 24.63 37.548 24.752 61.691.118 23.288-7.952 39.95-17.032 52.509-14.835 20.519-31.873 33.736-49.341 49.783-28.278 25.979-45.83 49.119-60.556 78.05-3.634 7.138-6.754 17.776-15.279 17.776s-11.645-10.638-15.279-17.776c-14.726-28.93-32.278-52.071-60.556-78.05-17.468-16.048-34.507-29.265-49.341-49.783-9.08-12.558-17.15-29.221-17.032-52.509.123-24.143 8.195-45.451 24.752-61.691 15.364-15.069 33.924-25.381 60.393-25.228 27.318.158 44.667 9.595 57.063 25.425 12.395-15.83 29.745-25.268 57.063-25.425z"></path><path fill="#b9b9bc" d="M471.39 159.1c9.1-6.703 20.826-11.023 32.126-10.84 16.275.263 31.576 5.521 42.572 16.162 12.214 11.818 20.415 27.555 19.907 47.106-.7 26.9-15.259 41.209-35.477 61.888-13.801 14.115-26.907 21.435-46.909 43.755-7.838 8.746-23.607 31.089-33.608 52.039-10.002-20.95-25.771-43.293-33.608-52.039-20.002-22.32-33.107-29.64-46.909-43.755-20.218-20.678-34.778-34.988-35.477-61.888-.508-19.55 7.693-35.287 19.907-47.106 10.997-10.64 26.297-15.899 42.572-16.162 11.3-.182 23.027 4.137 32.126 10.84 9.226 6.796 15.679 15.399 21.389 26.805 5.71-11.406 12.163-20.009 21.389-26.805z"></path></svg>