<svg xmlns="http://www.w3.org/2000/svg" width="600" height="400" viewBox="0 0 6 4" xmlns:cgf="https://coding.garden/flags"><metadata id="cgf-metadata">

<cgf:flag>
  <cgf:name></cgf:name>
  <cgf:route>be/van</cgf:route>
  <cgf:aspect-ratio>1.5</cgf:aspect-ratio>
</cgf:flag>

</metadata><path fill="#FFF" d="M0 0h6v4H0z"></path><path d="M0 0v3h1v1h5V1H5V0" fill="#0038A8"></path><path d="M0 0v2h1v1h1v1h4V2H5V1H4V0" fill="#F9DD16"></path><path d="M0 0v1h1v1h1v1h1v1h3V3H5V2H4V1H3V0" fill="#D81E05"></path><path d="M1 0v1h1v1h1v1h1v1h1V3H4V2H3V1H2V0" fill="#FFF"></path></svg>