<svg xmlns="http://www.w3.org/2000/svg" width="500.374" height="333.402"><path d="M.2.2h499.974v333.002H.2z"/><path d="M280.813 265.886s10.102-9.47 16.036 1.136c5.935 10.607-4.924 4.799-4.924 4.799s-1.894-9.344-11.112-5.935zm-3.662 30.81s-3.03-12.249 10.102-13.511c13.132-1.263 1.01 7.45 1.01 7.45s-7.955-3.283-11.112 6.06zm25.38 14.647s-10.101-6.44-3.788-15.279c6.314-8.839 6.566 2.904 6.566 2.904s-4.166 2.778-2.778 12.375zm12.501-.758s10.6-2.226 8.965-14.142c-.884-6.44-7.197 1.01-7.197 1.01s3.157 4.925-1.768 13.132zm-153.164-73.362s10.985-1.515 13.132 8.081c2.146 9.596-7.45 3.157-7.45 3.157s1.641-5.809-5.682-11.238zm-19.067 34.345s-.126-11.49 10.986-10.985c11.111.505.252 7.955.252 7.955s-6.818-3.789-11.238 3.03zm18.309 21.971s-7.323-8.208 1.894-14.9c9.218-6.692 4.925 5.43 4.925 5.43s-6.945 2.272-6.819 9.47zm29.547 2.021s-11.743.63-10.733-11.87c1.01-12.5 8.587.505 8.587.505s-4.041 4.546 2.146 11.364zM129.74 153.843s10.893-1.607 11.785 10c.893 11.608-7.946 1.608-7.946 1.608s1.786-8.75-3.84-11.608zm-21.16 33.572s1.338-10.982 12.945-10.804c11.608.179.358 8.929.358 8.929s-7.858-3.393-13.304 1.875zm15.535 25.089s-6.518-10.803 2.768-16.518c9.285-5.714 4.553 6.072 4.553 6.072s-6.875 2.768-7.321 10.446zm15.446 2.679s9.551 1.093 10.982-10.357c.893-7.143-8.125-1.429-8.125-1.429s3.125 6.34-2.857 11.786zm-27.443-147.54s4.167 5.304 11.364 1.768c7.197-3.535 1.894 8.081 1.894 8.081s-13.385 1.894-13.258-9.849zm3.282-20.708s8.713-5.303 14.9 2.778c6.188 8.081-4.924 4.798-4.924 4.798s-1.894-6.692-9.975-7.576zm20.835-13.132s10.48-3.156 11.87 8.713c1.388 11.87-7.45.758-7.45.758s1.894-6.945-4.42-9.47zm34.345 17.931s6.44-8.587-2.399-14.648c0 0 .505 8.082-4.04 10.986-4.546 2.904 6.44 3.662 6.44 3.662z" fill="#da251d" stroke="#000"/><path d="M167.171 57.037s-5.05 34.093 14.647 45.204c0 0-9.091 6.061-10.859 10.354-1.768 4.293-11.364 16.668-21.97 12.627 0 0 2.777-1.263 1.767-7.07 0 0-8.839 4.545-13.89-1.264 0 0 9.092-2.525 7.577-10.606 0 0-5.304 3.535-9.597-2.526 0 0 10.86-2.02 8.334-12.121 0 0-4.798 7.828-10.354.505 0 0 8.16-5.067 6.818-11.365-1.641-7.702-8.333-5.05-8.333-5.05s-3.788 5.682-7.324 2.525c0 0-2.02-6.06-.253-9.849 1.768-3.788 5.556-.252 5.556-.252s3.788 2.02 4.799-3.03c1.01-5.052-3.776-5.557-6.314-5.557-2.399 0-3.662-1.641-3.535-4.545.088-2.035 2.272-5.051 5.555-5.556 3.283-.505 5.177.379 5.304 2.525.133 2.269 1.767 6.061 6.06 3.536 4.294-2.526.047-5.621-1.01-6.819-1.894-2.146-.252-4.798-.252-4.798s1.768-2.273 7.576-1.768c3.182.277 4.798 1.01 4.293 4.546-.505 3.535-2.525 3.03.505 5.05s6.566 4.041 8.082 1.263c1.515-2.778-.758-4.42 2.525-5.556 2.636-.912 7.829 1.516 8.586 3.788.758 2.273 1.01 3.536-4.293 5.809zm24.444 90.021s-13.215 23.571-42.857 27.5c0 0-4.694 1.803-5.073-3.374-.379-5.177 2.778-6.945-1.136-7.576-3.915-.631-8.208.631-9.092 1.768-.884 1.136-.631 2.525.758 3.409 1.389.884 2.904 2.652 2.651 4.924-.252 2.273-.757 4.294-4.671 5.304-3.915 1.01-6.061-5.177-8.334-4.798-2.273.378-2.778 1.767-2.778 1.767s-1.768 4.293 0 10.354c0 0 1.641 3.03 4.04.38 2.4-2.652 4.294-3.41 6.44-1.263 2.147 2.146 2.904 6.944-.505 8.08-3.41 1.137-3.535-1.262-4.672.885-1.136 2.146 1.39 6.313 5.05 8.838 3.663 2.526 2.274-5.05 3.789-6.566 1.515-1.515 3.662-2.651 6.818-2.272 3.157.378 2.147 3.03 1.137 4.166-1.01 1.137-2.147 1.768-2.147 4.041 0 2.273 4.167 2.525 4.167 2.525s2.4.632 5.304.127c2.904-.505 1.388-3.283.252-3.915-1.136-.63-3.914-7.828 3.283-10.101 7.197-2.273 7.829 7.07 7.197 9.596 0 0 6.061 0 6.693-11.238 0 0-1.01-3.283 2.02-3.914 3.03-.631 5.808 2.525 4.04 11.112 0 0 5.809-1.516 6.314-11.49 0 0-.253-3.284 3.283-3.41 3.536-.126 6.313 5.303 1.642 11.364 0 0 8.965 2.147 8.46-11.995 0 0-.38-4.294 2.904-4.672 3.283-.38 6.818 2.525 5.934 6.313 0 0 6.693-1.515 10.48-7.955 3.789-6.44-3.661-23.486-3.661-23.486zm31.872 48.37s-18.94-5.556-31.062 5.808-8.839 13.637-21.718 21.213c0 0 10.859 4.04 17.425-3.283 0 0 8.333 10.607 23.233 3.788 0 0-20.708-1.515-10.354-13.637 0 0 .758 16.163 16.668 6.314 0 0 4.04 11.87-19.698 13.384 0 0 8.08 10.102-1.516 19.95-9.596 9.85-17.425 3.031-18.182 1.011-.758-2.02.757-6.819-2.526-5.556s-6.06 1.01-8.333 3.283c-2.273 2.273.505 3.788 2.525 4.546 2.02.757 3.03 4.798-.758 6.566-3.788 1.768-7.576 4.293-10.101 2.02-2.526-2.273-5.809-4.04-5.809-1.515 0 2.525-1.01 8.081.253 10.607 1.263 2.525 4.798.757 5.556-1.768.757-2.526 6.06-3.536 8.081-.505 2.02 3.03 1.768 6.313-1.263 7.07-3.03.758-5.05 2.021-3.535 4.799 1.515 2.778 5.303 5.303 7.323 5.05 2.02-.252-.505-6.565 2.02-9.09 2.526-2.526 13.638-4.294 9.092 2.777-4.546 7.071-2.02 6.314-2.02 6.314s7.07 1.515 10.859.252c3.788-1.262-2.525-6.313-2.778-7.828-.253-1.516-.505-7.071 5.556-7.324 6.06-.253 8.586 1.768 6.566 9.344 0 0 6.566-.505 5.05-11.364 0 0 6.314-1.516 5.809 7.323 0 0 3.536-1.01 4.293-10.859.758-9.849 9.092-3.283 7.324 2.273 0 0 3.03-1.515 2.273-12.122 0 0-1.01-5.303 5.05-6.06 6.061-.758 2.273 9.343 9.092 9.596 0 0 4.04-9.092 2.778-17.93-1.263-8.84-15.405-10.607-14.648-18.688.758-8.082 10.354-12.88 10.354-12.88z" fill="#f8c300" stroke="#000"/><path d="M212.628 238.864s5.808-2.273 6.566 5.051-16.163 10.607-17.425 17.93c0 0-2.273-5.556 2.273-9.091 4.545-3.536 11.616-3.03 12.374-9.091.758-6.061-3.788-4.799-3.788-4.799z" stroke="#000"/><path d="M141.412 142.142s9.525 7.248 16.163-3.03c7.975-12.35 10.859-25.002 29.041-36.113 0 0 7.072-2.526 23.487-3.536 16.414-1.01 35.355-2.525 34.597-18.94 0 0-2.525 7.071-11.87 8.081-9.343 1.01-11.11-.505-14.646.758-3.536 1.262-2.778-7.071-2.778-7.071s1.01-3.03 4.04-.505c3.03 2.525 6.061 3.535 10.102 2.778 4.04-.758 9.596-5.304 9.849-10.102.252-4.798-7.071-13.89-19.698-6.313 0 0-1.894-2.905.253-5.304 0 0-2.02-1.136-2.02-6.187 0-5.05 8.964-4.04 11.995-6.818 0 0-9.47 1.894-8.713-1.263.758-3.157 3.41-3.788 20.456-5.43 0 0 1.894.884 1.768-.884-.127-1.767-3.157-8.333 4.924-7.955 8.081.38 9.218 3.03 11.996 3.03 2.778 0 10.48 2.021 19.698 0 9.217-2.02 8.712-2.272 8.838 2.274.127 4.545.505 7.576-8.46 14.647 0 0 4.167 8.965 13.259 6.06 0 0-.505 3.284-7.577 7.324-7.07 4.041-1.767 21.971 5.051 16.668 0 0 2.02 4.546-9.091 5.05 0 0 1.515 9.345 8.586 7.577 0 0-1.263 5.303-9.596 4.293 0 0-3.03 5.05 5.05 12.627 8.082 7.576 15.405 24.749 15.405 24.749s12.122 18.435 23.991 39.396c11.87 20.96 24.497 24.243 29.042 18.687 4.546-5.555 5.556-8.586 1.768-14.647-3.788-6.06-20.708-26.769-21.466-40.658-.757-13.89 10.102-34.346 10.102-34.346S364.15 78.25 364.403 61.33c.253-16.92-16.162-13.637-16.162-13.637s-7.324 2.525-7.324 10.86c0 8.333 5.809 9.343 7.576 8.838 0 0-17.425 10.354-10.859-17.173 0 0-7.828 3.03-7.323 14.648.505 11.616 1.767 18.94-3.03 29.799 0 0 .504-7.829-1.516-13.89-2.02-6.06-3.788-21.213 4.546-32.072 0 0-7.829 1.263-9.597 25.001-1.768 23.739-9.849 42.174-9.849 42.174s-4.798-2.02-2.525-10.354 6.06-18.435 6.566-26.011c.505-7.576.252-34.345 15.152-42.174 0 0-10.859.505-14.395 17.172-3.535 16.668.506 31.063-13.132 37.881 0 0 5.051-14.142 6.061-26.516 1.01-12.375 5.809-39.901 35.86-38.134 30.053 1.768 28.538 29.8 28.538 29.8s4.293 11.617-15.658 47.477c0 0 14.142-3.283 26.517-21.466 0 0 2.778 14.395-20.203 29.295 0 0-14.142 8.334-13.89 21.97 0 0 11.112-20.96 30.052-5.05 0 0-21.354-4.552-21.97 10.859-.506 12.627 5.05 12.88 5.05 12.88-1.278 1.17 6.25-18.6 19.95-5.556 0 0-14.394-.758-15.152 12.121-.757 12.88 17.173 30.558 2.526 44.7 0 0 10.354 9.091 6.818 19.193 0 0-3.535-14.395-19.698-14.648-16.162-.252-13.132-1.767-18.688-5.808-5.555-4.04-15.404-15.152-19.95-15.657 0 0 8.839 18.687-1.01 30.304 0 0 13.132-2.02 14.9 8.839 0 0 12.626-2.778 17.172 8.334 0 0 14.647-6.819 17.425 8.081 2.778 14.9-1.515 7.324-1.01 18.94 0 0-3.535 1.01-4.546-6.06-1.01-7.072-8.333-7.324-9.596-1.01-1.263 6.313 8.081 13.384 1.01 21.213 0 0-3.788-12.122-8.586-7.324s3.283 4.04-.505 15.91c0 0-1.263-4.546-4.04-5.556-2.779-1.01-6.062-1.768-6.062 2.02 0 3.788 4.04 10.354.253 15.91 0 0-.505-6.06-5.809-8.839-5.303-2.778-7.828 1.01-7.323 2.02.505 1.01 5.303 2.779 4.545 5.051-.757 2.273-9.849 3.536-10.101 2.02-.253-1.515 2.02-3.787 2.02-3.787s-1.768-5.304-5.556-4.294c-3.788 1.01-6.818 3.031-5.05 5.809 1.767 2.778-.253 4.04-2.526 4.04-2.273 0-8.334-2.525-7.576-4.293.758-1.767 6.819-6.566 2.778-8.586-4.04-2.02-6.566 1.263-6.566 1.263s-1.263 4.293-3.788 4.04c-2.525-.252-3.788-6.313-3.03-10.101.757-3.788 3.283-.253 5.808-.505 2.525-.253 5.808-2.02 3.283-4.798-2.526-2.778-6.061-3.283-4.293-5.051 1.767-1.768 1.01-3.536 5.303-5.809 4.293-2.272 3.03 5.556 9.849 5.051 6.819-.505 17.173-1.263 17.425-14.647.253-13.385-5.556-14.142-7.829-14.142-2.272 0-7.323 4.798-13.132.252 0 0 6.314-3.03 4.799-13.89 0 0-17.173 7.324-19.193-5.808 0 0-5.809 15.405 12.627 12.122 0 0-1.01 11.112-13.637 4.798 0 0-7.829 15.405-20.708 5.556 0 0 10.859-3.535 11.111-19.445.253-15.91-1.768-20.708-1.768-20.708l-29.547-89.904s-2.02-3.788 4.041-8.586 6.314-9.85 5.808-14.647c-.505-4.799 2.526-2.526 1.516-6.314 0 0-2.526 4.546-5.051 4.546 0 0 2.273 8.081-2.778 14.395 0 0 .758-5.051-4.04-3.789 0 0 2.02 7.577-3.789 13.385 0 0 1.768-6.819-5.05-8.081 0 0 4.798 4.545 2.272 11.111 0 0-2.525-5.808-8.838-7.323 0 0 4.04 4.798 2.525 10.101 0 0-10.86-10.606-15.152-10.606l.757 7.828-9.344 14.143s-21.97.252-6.06 17.172c0 0-13.89-1.768-11.87-15.657 2.02-13.89 10.354-18.436 10.354-18.436s-5.556-.757-12.374 11.87c-6.819 12.627-5.05 13.384-12.88 18.94 0 0-1.262-15.152 13.385-34.093 0 0-7.324 1.263-12.88 17.173-5.555 15.91-12.874 26.001-23.486 26.012 0 0-10.162 1.382-11.869-11.87z" fill="#f8c300" stroke="#000"/><path d="M336.08 249.2s6.963-1.25 6.07 5.715c-.892 6.964-14.464 7.143-17.142 17.321 0 0-3.036-4.643 2.678-8.75s9.107-3.035 11.607-8.928c2.5-5.893-3.214-5.357-3.214-5.357zM249.115 67.058s12.321 5.893.357 16.785c0 0 4.821-9.821-.357-16.785zm3.035-4.465c-.714 0-7.678-1.428-10-7.5 0 0-6.964 4.286.893 10.536 0 0-1.785-2.5-.535-5.178 0 0 3.571 3.214 9.642 2.142z" stroke="#000"/><path d="M243.75 42.765s17.732 2.647 20.015 12.002c0 0-20.19 9.355-20.015-12.002z" fill="#fff" stroke="#000" stroke-width="2"/><path d="M257.329 50.986a3.75 3.75 0 1 1-7.5 0 3.75 3.75 0 0 1 7.5 0z" fill="none" stroke="#000" stroke-width="3" stroke-linecap="square" stroke-linejoin="round"/><path d="M228.033 82.543s-.253-10.606-16.415-10.606c-16.163 0-14.647-.758-13.637-2.273 1.01-1.515 1.01-10.86-6.061-9.85-7.071 1.01-7.175 12.667-1.01 14.9 8.712 3.157 28.284-1.767 37.123 7.83zm73.582 30.943h-94.286v48.75s-.536 38.036 46.964 61.25c48.036-23.035 47.322-61.25 47.322-61.25z" fill="#da251d"/><path d="M207.329 152.772h94.286c.113 10.714-.111 21.429-6.072 32.143H213.4c-5.809-9.798-6.511-20.783-6.071-32.143z" fill="#fff"/></svg>