<svg xmlns="http://www.w3.org/2000/svg" height="627.46" width="941.19" version="1" viewBox="-74.91 -50.106 744.094 496.062" xmlns:cgf="https://coding.garden/flags"><metadata id="cgf-metadata">

<cgf:flag>
  <cgf:name></cgf:name>
  <cgf:route>be/vlg</cgf:route>
  <cgf:aspect-ratio>1.5007974481658692</cgf:aspect-ratio>
</cgf:flag>

</metadata><path fill="#feea28" d="M-74.91-50.106h744v496h-744z"></path><path d="M419.42-5.82c-.738 0-1.512.017-2.303.052-9.843.281-12.673 1.037-21.69 5.677-8.26 4.272-13.675 9.229-19.81 18.229-5.59 8.173-9.491 18.86-10.599 28.879-1.722 15.784-4.5 29.934-7.224 36.736-1.652 4.165-6.1 10.282-8.665 11.934-.967.633-1.705 1.39-1.582 1.723.263.791 4.13 1.441 6.573 1.09 3.393-.492 8.684-2.76 12.445-5.29 2.76-1.864 3.393-1.829 2.953.21-1.125 5.379-1.388 7.822-1.529 14.431-.175 8.613.492 11.917 3.832 18.597 1.863 3.744 5.677 8.876 6.187 8.35.123-.124-.123-1.512-.51-3.112-1.634-6.416-1.863-9.755-1.054-15.415 1.424-10.16 3.902-17.401 9.457-27.438 1.265-2.32 2.935-5.449 3.673-6.943.756-1.494 2.268-4.236 3.34-6.1 3.076-5.272 3.304-4.464 2.953 10.934-.14 7.03-.51 13.78-.774 15.01-.263 1.231-.369 2.338-.246 2.461.352.352 2.426-2.337 4.64-6.01 3.78-6.258 7.541-15.469 8.21-20.039.21-1.353.58-3.023.843-3.691.387-1.037.492-10.388.21-17.35-.07-1.687-.034-1.74 1.67-1.599 1.846.159 9.317-1.212 10.16-1.863.282-.21 1.214-.615 2.092-.914 2.866-.967 9.58-6.205 9.58-7.488 0-.299-.58-.562-1.265-.562-3.182 0-7.313-3.234-8.174-6.416-.281-1.055-.37-3.164-.193-4.658.457-3.937 3.146-6.855 7.84-8.525 8.577-3.076 15.274 0 19.51 8.947 1.775 3.744 1.863 4.219 1.828 8.666-.088 9.773-2.338 14.695-13.359 29.108-1.635 2.144-3.638 4.886-4.464 6.117-.81 1.23-1.618 2.355-1.776 2.478-.158.14-1.722 2.373-3.48 4.974a864.135 864.135 0 0 1-6.89 10.02c-10.634 15.168-13.904 22.937-17.42 41.323-1.124 5.941-1.177 9.527-.21 15.046 2.373 13.447 9.298 24.643 27.069 43.732 8.068 8.666 14.009 16.77 17.26 23.554 1.477 3.076 1.688 3.955 1.706 7.611.017 4.57-.405 5.484-3.744 8.191-2.549 2.057-5.467 2.25-10.353.686-6.117-1.952-10.09-4.447-15.064-9.492-2.461-2.479-5.326-5.73-6.346-7.242-2.812-4.113-10.335-15.556-11.952-18.228-1.986-3.252-3.234-5.238-6.046-9.544-1.336-2.057-2.514-3.92-2.62-4.166-.245-.545-8.56-13.43-10.071-15.574-3.059-4.324-3.973-5.537-8.508-11.302-4.921-6.24-17.63-19.493-22.692-23.66-5.8-4.763-12.726-8.946-24.485-14.764-6.714-3.322-12.199-6.293-12.18-6.61 0-.35 1.247-.597 3.41-.667 3.603-.088 7.452-1.564 9.843-3.762 1.107-1.002 1.177-1.019 2.988-.158 3.832 1.828 9.298 1.512 11.267-.668.808-.896.738-.966-1.371-1.898-3.41-1.512-4.57-3.55-4.57-7.998v-3.69l2.478-.58c3.094-.722 7.013-3.13 8.841-5.432 1.635-2.092 3.287-5.555 3.305-6.96 0-.792-.264-.634-1.46.808-1.599 1.95-5.22 3.902-7.223 3.902-2.408 0-5.695-2.479-5.695-4.307 0-.334 1.037-.738 2.355-.931 3.744-.545 6.504-2.443 7.277-4.992.299-.967.158-1.037-2.11-.809-5.36.51-6.063-1.142-6.151-14.15l-.07-9.685 1.195-.967c.668-.544 2.232-1.494 3.498-2.126 2.724-1.389 5.185-4.078 6.538-7.12 1.125-2.53 1.863-10.475.967-10.475-.281 0-.668.492-.861 1.107-.616 2.057-3.13 5.572-4.623 6.451-2.092 1.248-4.394 1.107-6.346-.387-.914-.703-1.67-1.582-1.67-1.95s.756-1.319 1.688-2.092c5.361-4.412 8.683-15.046 7.277-23.29-.65-3.867-2.338-9.44-3.304-10.986-.053-.088-1.758.843-3.797 2.091s-5.256 2.865-7.137 3.604c-3.234 1.283-3.831 1.353-11.829 1.353-4.64 0-13.007-.158-18.614-.334-5.59-.193-12.146-.14-14.554.106-5.097.51-6.398 1.195-11.794 6.362-1.915 1.829-4.517 3.938-5.8 4.676-2.848 1.652-7.418 2.865-10.67 2.865-1.352 0-3.884.264-5.641.598-3.568.65-4.36 1.441-3.674 3.691.246.791.72 2.69 1.055 4.219.615 2.777.597 2.83-.897 4.71-2.127 2.707-2.46 4.342-2.795 13.94-.123 3.339-.035 6.186.211 6.327.229.14 1.354-.088 2.479-.545 2.601-1.037 6.38-.65 8.507.861.844.598 2.18 2.092 2.97 3.323 1.214 1.915 1.424 2.777 1.424 5.624 0 1.846-.316 4.307-.703 5.484-.386 1.16-.86 2.848-1.037 3.727-.175.896-1.318 2.953-2.513 4.587-3.832 5.203-10.37 8.42-17.19 8.437h-2.83l-1.828-2.847c-2.215-3.515-4.29-5.783-6.89-7.488-1.758-1.16-2.461-1.318-5.96-1.266-7.03.07-12.004 2.848-14.395 8.016-1.178 2.548-1.3 3.322-1.143 7.312l.159 4.464-1.899-.07c-2.18-.07-4.535-2.056-8.964-7.628-7.558-9.475-10.67-16.206-12.515-27.28-.897-5.274-.88-4.975-.281-7.7.931-4.393 2.9-7.522 7.452-12.004 5.168-5.062 5.783-6.486 3.973-9.246-.633-.967-1.705-2.039-2.39-2.373-.88-.44-1.442-.72-1.758-1.054l-10.81-6.873-3.27-.281c-3.076-.246-3.34-.176-4.623 1.107-1.16 1.16-1.37 1.775-1.37 4.06 0 1.477-.23 3.112-.51 3.639-.703 1.3-2.285 1.23-3.2-.176-.826-1.248-1.142-5.273-.51-6.292.23-.37.475-1.758.546-3.041.193-3.235-1.125-4.64-4.799-5.115l-15.38.14c-.633-.052-1.142.088-2.162.492-1.951 1.16-3.111 2.725-3.533 4.817-.228 1.125.176 2.373 1.723 5.308 1.107 2.092 2.039 4.201 2.039 4.658 0 1.248-1.494 2.654-2.795 2.654-1.178 0-1.723-.598-4.184-4.605-1.863-3.006-3.48-3.691-5.993-2.549-4.852 2.848-7.506 7.717-9.615 13.113-1.02 2.9-.95 3.867.545 6.855 1.81 3.639 3.199 4.254 8.788 3.92 5.15-.281 6.293.334 6.293 3.34 0 1.353-.334 1.968-1.67 2.97-1.845 1.424-3.955 1.705-8.296 1.072-2.531-.351-2.883-.298-4.219.844-1.265 1.09-1.424 1.547-1.353 3.762l.07 2.53c1.53 4.184-5.73 3.165 4.57 12.533.686.457 2.145.967 3.252 1.142 2.162.352 2.531.123 7.505-4.341 4.272-3.832 8.139-1.565 7.893 4.623-.246 5.677-3.78 8.823-11.144 9.825-2.479.334-4.729.475-5.01.3-.299-.177-.527-.089-.527.21 0 .756 4.166 3.305 7.417 4.535 2.233.844 3.48 1.002 6.54.791 2.09-.123 4.253-.51 4.833-.809 1.793-.966 2.197-.21 1.863 3.428-.351 3.885-1.23 6.275-2.865 7.752-2.707 2.478-4.728 2.706-9.966 1.212-1.846-.527-3.358-.843-3.358-.703 0 .123.334.862.721 1.617 1.195 2.32 3.973 4.36 7.558 5.52 1.864.615 3.586 1.283 3.832 1.529.264.246-.246 1.037-1.23 1.916-2.145 1.898-4.518 1.968-8.648.263-3.727-1.546-3.902-1.546-3.516.123.176.756.422 2.233.545 3.305.264 2.303 1.81 5.466 3.586 7.347 4.2 4.447 13.745 4.87 20.776.897 1.459-.826 2.883-1.494 3.164-1.494.861 0 .545 3.902-.475 5.906-.527 1.054-1.916 2.724-3.076 3.708l-2.091 1.793h2.46c3.164-.017 10.423-1.564 14.906-3.181 4.06-1.477 4.447-1.53 4.799-.615.351.931-3.797 16.997-5.133 19.845-.632 1.318-2.144 3.515-3.392 4.85-2.021 2.18-2.601 2.497-5.133 2.901-2.109.334-3.462.281-5.132-.228-2.83-.844-3.973-1.864-5.256-4.676-.843-1.846-.966-2.777-.685-5.607.21-2.11.14-3.375-.158-3.375-.827 0-4.008 4.06-5.22 6.68-2.743 5.888-2.848 10.827-.37 16.293 2.338 5.168 7.664 8.947 14.466 10.265 2.531.493 4.148.51 7.629.053 9.245-1.248 15.503-4.517 19.388-10.16 1.564-2.285 2.25-2.847 4.394-3.533 4.306-1.389 9.263-4.43 13.464-8.279 1.564-1.424 2.742-1.177 2.742.58 0 .897 2.953 7.453 4.096 9.105.544.809.158 1.336-3.428 4.764-2.232 2.127-5.906 5.29-8.191 7.03-5.01 3.85-15.468 10.864-16.189 10.864-.299 0-.826.28-1.195.615-1.002.914-2.285 1.652-5.607 3.27-6.434 3.11-10.265 4.147-15.837 4.235-3.182.053-3.762-.07-5.397-1.318-2.003-1.53-2.197-2.46-1.09-5.15 1.126-2.69.967-5.238-.404-6.539-1.845-1.723-4.042-2.162-6.45-1.266-4.658 2.32-10.09.053-16.013 5.485-3.797 2.671-4.237 5.343-1.582 9.35 1.898 2.883 2.091 5.239.51 6.82-1.02 1.003-1.249 1.038-3.446.44-1.3-.351-2.46-.79-2.601-.984-.844-1.178-3.34-2.567-4.57-2.567-2.988 0-4.887 1.811-6.1 5.836-1.441 8.912.194 11.232 1.125 14.853.264 1.758 2.338 3.621 4.06 3.621 1.952 0 3.006-.562 6.592-3.55 4.06-3.375 6.68-3.323 7.558.158.774 3.076-2.917 6.345-8.314 7.312-2.97.545-4.833 1.3-5.449 2.232-.21.299-.369 1.371-.386 2.39.79 4.536 5.115 7.242 7.751 10.969l2.69 2.496c3.11 2.794 5.976 3.462 8.525 1.968 2.566-1.511 3.673-4.007 4.042-9.245.457-6.117.668-6.908 2.338-8.736 1.107-1.213 1.635-1.477 2.25-1.125.685.386.844 1.37.896 5.607.036 4.904.123 5.29 1.653 7.77 3.216 3.99 12.322 3.444 18.403-.335 3.128-2.021 4.13-3.85 4.183-7.716.035-2.356-.229-3.55-1.037-4.94-1.652-2.794-1.441-3.445 1.441-4.482l2.531-.896 1.319 1.3c1.248 1.249 1.283 1.53 1.142 5.678-.123 3.217.053 4.904.686 6.45.72 1.829 2.724 4.061 3.638 4.061.158 0 .229-1.336.14-2.988-.193-3.533.915-6.24 5.204-12.533 1.459-2.127 2.777-4.465 2.935-5.203.545-2.496.668-2.654 2.039-2.496.914.106 1.67.686 2.32 1.81.932 1.6.932 1.776.106 6.487-.809 4.623-.739 7.628.228 9.456.281.528.738-.017 1.67-1.986 1.67-3.533 2.83-5.396 5.238-8.455 2.11-2.654 3.498-6.398 3.498-9.403 0-2.637.861-4.746 2.215-5.361 2.408-1.09 2.97 1.968 2.039 11.126-.44 4.183-.07 8.63.72 8.63.246 0 .809-.844 1.248-1.863.422-1.02 1.758-3.445 2.988-5.414 3.656-5.87 7.242-14.8 6.856-17.085-.124-.65.28-2.637.914-4.412.86-2.496 1.37-3.252 2.214-3.375 1.899-.28 2.795 1.828 2.443 5.73-.58 6.363-.562 8.192.07 9.668l.616 1.494 1.547-2.918c.844-1.6 2.197-4.095 2.97-5.572 1.266-2.373 1.442-3.199 1.442-7.048 0-3.287.175-4.553.773-5.133 1.055-1.054 1.547-.984 2.426.37.58.878.633 1.529.246 2.847-.264.95-.72 3.146-1.002 4.922-.44 2.654-.387 3.568.299 5.325.44 1.178.966 2.127 1.195 2.127.21 0 .545-.914.72-2.056.176-1.125 1.46-4.412 2.848-7.312 1.986-4.113 2.566-5.854 2.637-7.998.158-4.2.21-4.465 1.002-4.465 1.388 0 1.88 1.951 1.529 5.994-.299 3.305-.194 4.184.72 6.328.598 1.371 1.495 2.883 2.022 3.357.914.826.949.774.967-1.336.017-2.25.72-4.482 3.374-10.74 1.635-3.849 2.373-7.241 2.813-12.779.246-3.199.967-4.71 2.232-4.71.158 0 .686.28 1.143.615.65.474.896 1.67 1.107 5.08.246 4.464.615 7.066 1.09 7.874.14.246 1.125-1.318 2.197-3.462a283.175 283.175 0 0 1 3.92-7.647c2.425-4.552 3.603-10.388 3.11-15.275l-.333-3.199 1.37.334c.757.194 2.514.897 3.92 1.582 6.17 3.006 9.58 4.166 12.762 4.36 2.232.14 4.64.738 7.68 1.968 2.444.984 6.557 2.355 9.159 3.059 5.94 1.6 8.964 3.093 12.954 6.38 3.287 2.707 8.366 8.261 8.366 9.14 0 .281-2.337.598-5.572.756-3.076.14-6.785.51-8.261.791-7.84 1.494-16.681 5.607-22.868 10.6-6.17 4.991-9 7.68-14.642 13.991-6.398 7.172-8.261 8.683-11.988 9.668-1.143.298-7.505.755-14.15 1.001-7.26.282-13.13.756-14.782 1.178-3.744.967-7.558 2.303-8.314 2.918-.334.281-1.53.984-2.637 1.582-2.935 1.582-7.98 6.257-11.689 10.863-1.775 2.232-5.624 6.591-8.542 9.685-8.261 8.841-12.866 11.882-18.632 12.339-4.06.334-7.875-.791-10.546-3.076l-2.074-1.758-1.143 1.863c-.967 1.547-1.16 2.55-1.16 5.871 0 3.603.158 4.254 1.512 6.433 1.863 3.041 6.046 5.397 10.476 5.906 8.296.967 20.864-2.9 27.596-8.49 1.898-1.564 2.654-1.458 3.62.458 1.67 3.322 3.34 4.956 6.487 6.433 2.443 1.142 3.199 1.758 3.427 2.777 1.178 5.185 1.916 6.521 5.256 9.44l1.81 1.581-1.195 4.342c-.65 2.372-1.81 5.202-2.584 6.31-1.986 2.847-7.171 6.521-10.476 7.47-1.53.422-3.463.984-4.324 1.248-2.531.756-10.775 1.16-11.882.563-.879-.475-.967-.862-.685-3.656.351-3.569-.07-5.678-1.53-7.541-1.16-1.459-3.902-2.338-6.31-2.022-5.273.897-9.369 3.85-11.935 7.154l-1.793 2.162c-1.828 2.215-2.18 3.938-1.125 5.309.334.422 1.951 1.511 3.604 2.39 3.34 1.758 4.956 3.867 4.464 5.783-.387 1.53-1.353 2.04-4.746 2.461-2.425.299-3.023.176-5.59-1.178-3.655-1.933-5.571-2.267-8.032-1.406-1.494.527-2.232 1.195-3.094 2.83-.632 1.178-1.142 2.76-1.142 3.516-.422 5.466 1.178 13.306 2.478 16.312 1.037 2.056 2.233 2.689 4.852 2.583 2.144-.07 3.41-.755 6.134-3.41 1.81-1.74 2.584-2.162 3.709-2.039 1.968.229 2.672 2.233 1.582 4.535-.65 1.336-1.442 1.934-3.938 2.936-3.568 1.424-4.798 2.953-4.85 6.011-.036 1.108.403 2.725 1.036 3.832 1.371 2.83 6.17 6.592 12.48 7.716 4.307.704 7.892-3.181 8.49-9.228.281-2.917.545-3.62 1.617-4.482 1.494-1.177 2.9-.949 4.271.65.686.81.897 1.758.826 4.043-.175 5.397-.07 5.96 1.547 7.611 2.742 2.549 12.286-.931 16.101-3.69 1.688-1.108 3.2-3.745 3.2-5.608 0-.879-.669-3.27-1.495-5.326-1.793-4.5-1.845-5.642-.28-7.453 1.001-1.142 1.388-1.3 2.108-.843 1.74 1.037 3.2 4.517 3.568 8.454.3 3.094.58 3.955 1.512 4.711 1.635 1.336 2.742 1.23 2.25-.193-.65-1.864-.475-5.432.404-8.543.475-1.635.862-4.43.862-6.24 0-3.129.65-6.134 1.511-7.101.229-.246.72.316 1.09 1.23.545 1.319.598 2.742.229 6.662-.493 5.45-.053 8.191 1.6 10.23 1.16 1.424 1.897.879 1.106-.844-.51-1.125-.316-1.828 1.74-5.976 2.25-4.57 2.338-4.869 2.55-10.142.122-2.988.368-5.449.562-5.449.193 0 .738.844 1.23 1.863.633 1.283.984 3.41 1.143 6.82.193 4.465.369 5.133 1.582 6.662 2.18 2.76 2.478 2.531 2.162-1.635-.246-3.287-.123-4.042.966-6.363 2.602-5.554 4.324-10.283 4.887-13.482.914-5.255 1.687-3.955 1.775 2.953.088 6.521.879 9.316 3.375 11.812 1.687 1.688 2.355 1.67 1.916-.07-.826-3.217-.37-6.24 1.547-10.3 2.917-6.117 4.324-10.107 4.816-13.64 1.02-7.136.949-6.925 2.25-7.242 4.007-1.02 7.294.14 8.226 2.9.351 1.09.035 2.057-2.004 5.748-3.691 6.68-4.043 8.05-3.058 11.62.615 2.179.949 2.302 1.95.667.405-.65 3.323-3.832 6.47-7.066 9.79-10.054 12.092-13.904 11.371-19.089-.527-3.92-2.865-7.312-9.984-14.554-6.644-6.767-8.595-9.28-10.529-13.622-5.466-12.18 2.233-20.003 20.776-21.145 3.252-.21 7.611-.088 10.775.246 6.258.668 13.675.809 16.646.316l2.11-.369.984 2.338c.931 2.18 4.166 12.954 5.712 19.071.37 1.512 1.284 5.08 2.004 7.945 1.67 6.61 2.022 11.372.95 13.43-.95 1.81-3.463 3.427-5.344 3.427-3.023.017-7.101-3.569-8.683-7.646-.528-1.354-1.16-2.532-1.389-2.602-.246-.088-.949.615-1.582 1.547-1.88 2.76-1.388 8.789 1.143 13.675 1.107 2.144 4.464 5.73 6.925 7.418 5.361 3.656 13.376 4.658 20.108 2.496 3.182-1.02 4.148-1.635 6.732-4.201 1.653-1.653 3.34-3.551 3.762-4.219l.756-1.213 3.673 1.705c2.918 1.354 4.447 1.74 7.4 1.881 3.762.193 5.73-.387 10.335-3.076.862-.51 1.617-.563 2.883-.21 2.549.702 6.732-.37 10.546-2.673 1.793-1.107 3.674-2.337 4.148-2.76 1.195-1.054 1.88-.298 3.322 3.604 1.705 4.623 1.477 11.038-.65 17.736-2.373 7.505-6.31 13.025-11.882 16.751-2.777 1.88-3.322 2.056-5.467 1.846-3.005-.282-4.728-1.846-6.257-5.695-2.022-5.063-2.531-6.03-3.639-6.803-1.617-1.142-4.148-.914-6.82.58l-2.83 1.547c-4.2 4.43-11.285 9.351-12.216 15.064-.246 1.002-.017 1.687.914 2.795 1.055 1.248 1.74 1.547 4.342 1.828 1.705.193 3.48.562 3.955.808 2.531 1.336 2.004 4.483-.984 5.73-1.618.686-2.461.704-6.627.159-2.619-.352-5.308-.51-5.994-.334-2.039.51-3.867 2.25-3.884 3.709-.159 5.923 3.023 13.007 5.73 18.456 1.248 2.478 2.601 3.462 4.763 3.462 1.195 0 2.584-1.37 6.978-7.013 3.27-4.166 5.502-5.818 7.084-5.203 1.318.51.879 2.988-.967 5.431-3.199 4.184-3.48 6.152-1.142 8.438 3.884 3.638 11.355 6.837 16.487 6.82 2.83-.106 5.203-1.424 6.117-3.34.685-1.442.72-2.285.193-6.644-.633-5.45-.211-7.014 2.004-7.594 2.32-.597 3.867 1.758 3.867 5.924 0 4.306.967 7.26 3.04 9.175 1.934 1.898 14.836-2.97 16.77-4.64 3.093-2.883 3.744-6.38 2.021-10.775-.545-1.389-1.002-2.742-1.002-3.006 0-.281.967-.932 2.162-1.441 1.389-.598 2.566-1.565 3.305-2.76 1.054-1.705 1.107-2.11.703-6.363-.668-7.295-.545-10.054.527-11.232 2.303-2.549 4.904.053 5.449 5.45.404 4.042 1.617 7.24 3.322 8.665 1.371 1.16 3.234 1.74 2.777.878-1.634-3.199-1.968-4.552-1.74-7.153.14-1.547.703-3.674 1.23-4.711.528-1.055 1.618-3.182 2.409-4.746.79-1.564 1.6-2.848 1.793-2.848.58-.017 1.247 1.6 1.634 3.938.194 1.23.528 2.566.72 2.988 2.778 5.941 4.483 7.945 6.75 7.945 1.442 0 1.46.158.176-3.076-1.388-3.48-1.37-6.363.053-10.564 1.459-4.307 1.617-11.267.316-14.325-1.81-4.236-.246-5.871 2.25-2.338.967 1.353 1.582 3.181 2.11 6.24.421 2.373 1.195 5.273 1.705 6.45 1.001 2.233 2.952 3.938 4.2 3.657.65-.158.65-.422.018-2.162-.861-2.39-.95-7.945-.158-9.949.316-.809.562-3.181.562-5.29.018-3.657-.105-4.096-2.724-9.422-3.2-6.504-3.691-8.877-2.531-11.917 1.424-3.709 3.55-4.693 6.662-3.094 2.566 1.336 3.55 4.13 3.99 11.443.474 7.523 1.511 11.003 4.2 13.851.967 1.02 1.864 1.723 2.022 1.565.14-.14.035-1.407-.264-2.795-.756-3.516-.685-8.595.158-10.546.37-.897 1.442-4.078 2.356-7.084 1.283-4.253 1.652-6.328 1.652-9.439 0-3.638-.14-4.218-1.635-6.697-2.32-3.796-4.939-5.537-10.265-6.732-4.693-1.054-9.456-.861-12.744.492-1.546.633-3.005 1.02-3.234.862-.21-.159-1.441-1.565-2.724-3.094-3.762-4.465-6.838-6.275-11.83-6.978-4.13-.598-4.253-.668-6.679-3.146-4.605-4.729-11.214-7.453-21.058-8.719-2.338-.299-4.746-.738-5.36-.984-1.055-.404-1.073-.51-.423-2.057 2.18-5.027 3.34-8.525 4.043-12.286.844-4.605 1.002-13.956.281-18.35-.246-1.512-.351-2.848-.228-2.971.299-.299 3.99 3.691 8.015 8.665 9.527 11.777 16.927 19.16 22.481 22.446 6.89 4.078 12.919 5.871 28.387 8.525 9.896 1.705 12.515 2.62 14.308 5.063 1.723 2.337 2.25 4.64 2.883 12.339.685 8.49 1.388 10.51 4.165 12.146 2.989 1.757 3.358 1.634 2.514-.774-1.3-3.709-1.371-7.734-.246-14.853 1.846-11.689 1.318-17.278-2.092-21.567-1.88-2.39-2.601-2.953-6.52-5.238-1.67-.967-3.024-2.004-3.024-2.302s1.195-1.846 2.672-3.446c6.714-7.277 9.632-14.027 10.212-23.64.597-9.598-4.026-21.04-13.816-34.066-4.448-5.923-4.729-6.696-4.043-11.425.65-4.482 1.459-6.099 4.377-8.788 5.255-4.851 11.302-3.867 15.222 2.496 1.142 1.828 1.511.844.966-2.602-1.09-6.872-3.462-10.353-8.718-12.814-2.514-1.177-3.515-1.353-7.382-1.335-3.78.017-4.904.246-7.436 1.388-5.519 2.531-8.929 7.154-10.792 14.624-.615 2.496-1.265 4.535-1.459 4.553-.544 0-2.794-4.746-3.673-7.752-1.705-5.87-.598-16.294 2.197-20.776 3.04-4.886 6.785-8.103 11.742-10.054 3.04-1.195 4.13-1.336 8.683-1.318 5.713.035 7.963.65 11.69 3.164 1.212.808 2.196 1.265 2.196 1.02 0-1.477-3.392-5.713-6.187-7.7-10.792-7.698-23.905-6.784-36.719 2.602-3.744 2.76-5.695 3.884-5.695 3.322 0-1.143 6.1-6.943 13.851-13.113a235.24 235.24 0 0 0 3.955-3.234c.984-.844 3.445-2.848 5.467-4.465 9.632-7.751 20.16-19.317 24.362-26.788 5.413-9.632 9.35-21.708 10.933-33.485.51-3.902.158-9.913-.598-9.913-.246 0-.44.298-.44.65 0 1.758-5.923 15.327-9.35 21.427-.932 1.635-5.186 7.804-7.541 10.915-5.098 6.732-15.784 17.402-21.11 21.093-.58.404-2.25 1.635-3.727 2.742-3.234 2.443-10.072 5.906-10.792 5.467-.316-.211.176-1.582 1.283-3.657 1.846-3.392 6.24-11.16 7.102-12.497 13.2-20.917 20.495-38.617 21.18-51.308.475-8.788-1.44-17.806-5.202-24.573-2.602-4.64-10.16-12.076-15.503-15.24-9.21-5.43-15.503-7.136-26.7-7.013zM173.9 30.09v.386c-.035-.07-.035-.21 0-.387z"></path><path d="M176.97 358.82c-1.9 8.03-2.49 14.75 4.08 20.02.09-5.4 1.2-9.95 4.41-15.68-2.14-2.11-5.46-4.17-8.49-4.34z" stroke="#000" stroke-width="1.969" fill="red"></path><path d="M398.651 1.06c-.53-.018-1.74.666-4.15 2.248-5.82 3.832-12.507 10.306-15.986 15.49-2.957 4.393-6.617 12.432-8.104 17.341-.6 2.143-1.201 4.317-1.454 6.428-.071.75-.498 3.265-.941 5.581-.459 2.324-.822 4.562-.838 4.965-.071 2.253-1.542 11.013-2.427 14.357-.538 2.127-1.1 4.309-1.21 4.815-.75 3.344-1.968 7.036-3.28 10.182-.847 2-1.669 4.198-1.835 4.863l-.245 1.264 1.067-1.336c.593-.72 1.676-2.727 2.467-4.45 4.064-9.045 6.285-16.824 7.29-25.465.948-8.128 3.43-20.287 4.94-24.31 1.795-4.767 5.005-10.935 7.582-14.556 2.941-4.13 10.784-12.34 13.614-14.255 1.162-.808 2.198-1.617 2.3-1.828.088-.193.475-.37.862-.37s.696-.231.696-.495c0-.28-.103-.452-.348-.469zm4.918 9.388c-.617 0-5.732 5.028-7.487 7.313-3.637 4.78-5.85 14.093-5.36 22.703.213 3.676.806 6.83 2.3 12.159 4.76 16.926 5.708 22.144 5.605 30.88-.055 3.25.095 4.348.57 4.348.387 0 .917-1.162 1.28-2.814.791-3.574.72-8.357-.245-14.776-.735-5.06-1.225-6.981-4.127-16.405-4.04-13.132-3.929-23.472.396-31.994 1.375-2.707 4.957-7.833 6.404-9.116 1.011-.932 1.415-2.298.664-2.298zm9.755 8.227c-.387.017-.94.11-1.628.321-2.815.862-6.467 4.444-8.23 8.03-3.74 7.61-1.51 21.589 3.953 24.806 2.466 1.44 6.973 2.3 6.973 1.328 0-.245-.633-.672-1.384-.933-4.237-1.533-7.66-6.032-8.404-11.044-.545-3.747-.458-8.768.245-11.195.846-2.933 4.918-8.128 7.463-9.534 1.898-1.037 2.159-1.814 1.012-1.779zm7.44 21.124c-.356-.04-.474.625-.3 1.977.371 2.704 2.45 4.894 4.648 4.894.878 0 1.74-.198 1.874-.42.142-.229-.498-.774-1.431-1.217-2.364-1.21-2.91-3.731-4.791-5.234zm-36.146 2.688c-.948-.047-3.123 7.313-4.245 14.603-.459 2.87-1.154 6.648-1.558 8.427-.41 1.755-.814 3.787-.917 4.475-.19 1.297-1.739 6.791-3.905 13.859-.49 1.62-.925 3.289-1.13 4.324-.27.965-.776 2.404-.965 3.534a59.07 59.07 0 0 1-.396 2.317c-.142.83-.363 2.419-.474 3.557a796.193 796.193 0 0 1-.767 6.72c-.474 3.866-.427 5.614.23 10.01.822 5.55 1.106 6.767 1.652 6.767.19 0 .356-4.072.371-9.068 0-11.772.838-16.832 3.756-22.532 1.154-2.27 2.956-5.242 3.976-6.594 1.036-1.375 1.874-2.6 1.874-2.743 0-.79-1.557.048-3.21 1.755-1.067 1.091-1.984 1.882-2.071 1.779-.11-.087.387-2.016 1.107-4.3 2.024-6.38 2.6-8.784 3.708-15.939.56-3.637 1.217-7.503 1.486-8.594 1.352-5.905 2.119-11.977 1.55-12.325-.032-.024-.04-.032-.072-.032zM283.19 13.317c-.02 0-.02.017-.02.017-.11.088-.55.879-1.02 1.934-1.3 2.742-.93 5.923.97 8.736 1.65 2.425 6.8 6.357 11.33 8.648 6.91 3.492 8.76 7.013 9.96 9.808 1.21 2.795 2.52 2.619 2.72 2.636.21 0 .37-.843.37-1.863-.04-4.623-3.1-8.764-10.87-12.824-5.73-3.006-9.01-5.334-11.19-8.041-1.35-1.688-2.01-2.091-2.1-5.237-.07-1.951-.12-3.656-.14-3.797l-.01-.017zM147.97 14.85c-.14 0-.3.035-.46.07.34-.07.62-.087.93-.07-.15 0-.31-.017-.47 0zm294.91 6.732c-.09.018-.14.035-.17.07-.16.159.15.528.7.809.53.299 2.44 2.004 4.22 3.814 3.6 3.639 4.58 5.836 5.52 12.463.86 6.046.24 10.757-2.32 17.858-1.45 3.972-5.24 10.037-12.26 19.581-4.86 6.662-12.02 16.857-12.91 18.439-.34.58-1.92 3.146-3.52 5.674-9.72 15.35-14.76 28.06-16.21 40.8-1.67 14.73 4.63 27.1 26.05 51.17 10.5 11.79 13.38 15.66 16.86 22.57 2.97 5.88 3.94 12.65 2.46 17.31-.56 1.83.79 1.09 1.88-1.02 1.11-2.13 1.3-7.94.39-11.3-.83-3.06-4.5-10.41-7.1-14.17-1.39-2-5.26-6.57-12.31-14.55-14.04-15.89-20.42-25.07-24.06-34.61-3.09-8.12-1.76-21.99 3.39-34.91 3.31-8.31 11.22-21.603 21.67-36.474 1.16-1.634 2.69-3.867 3.43-4.974.74-1.09 2.15-2.988 3.13-4.219 2.73-3.339 8.26-11.688 9.83-14.817 6.29-12.515 5.9-26.12-.99-34.821-1.35-1.687-6.54-4.798-7.68-4.693zM173.9 30.476c-.04-.07-.04-.211 0-.386-.04.175-.04.316 0 .386zm81.17-6.626c-.39-.036-.99.175-1.65.668-.72.527-.85 1.072-.62 2.531.16 1.019.6 2.197.95 2.636.54.668.69.422.95-1.67-.65-3.058.23-2.285.67-3.304.23-.527.07-.826-.3-.861zm.82 8.911c-.31.035-.82.317-1.51.897-3.11 2.654-4.69 7.048-4.69 13.095-.02 5.167.47 6.152 2.39 4.939.56-.352.51-.844-.16-2.83-1.3-3.832.21-10.037 3.48-14.308.9-1.195.99-1.845.49-1.793z" fill="#fff"></path><path d="M294.45 34.823c-.91.071-3.63 1.199-4.32 2.411-1.69 2.936-.91 3.357 1.69 3.357 1.23 0 4.76-.582 6.14-.881 3.17-.668 3.22-1.53.18-3.445-1.62-1.037-2.78-1.53-3.69-1.442z" fill="#fff"></path><path fill="#fff" d="M281.54 39.985c-.791 0-3.252 2.443-3.252 3.322 0 .703.553.773 2.417-.37 1.705-1.054 1.995-2.284.976-2.917-.036-.035-.088-.035-.141-.035zm1.67-11.144c-.141.018-.3.053-.458.123-1.424.545-1.875 7.767-.65 10.124 1.95 3.752 6.105 5.307 11.938 4.527a29.817 29.817 0 0 0 3.213-.625c1.213-.3 2.285-.79 2.39-1.107.141-.44-1.019-.527-4.481-.316-5.291.316-8.822-.899-10.104-2.85-1.442-2.197-1.644-4.852-.853-7.155.668-1.933-.064-2.827-.996-2.721zm50.55 21.919c-.158.018-.246.264-.246.72 0 .95 1.635 6.118 2.232 7.102.387.615 1.248.65 1.248.053 0-.246-.44-1.899-1.002-3.674-.773-2.514-1.793-4.271-2.232-4.201zm13.64-9.369c-.316.035-.791.211-1.424.528-1.74.914-3.41.984-5.29.263-1.952-.738-2.18-.088-.493 1.354 1.178 1.037 1.793 1.213 3.41.984 1.196-.158 2.479-.756 3.234-1.512 1.073-1.072 1.23-1.687.563-1.617zm-8.472-27.403c-.264 0-.686.159-1.248.475-1.547.826-3.973 4.2-4.447 6.205-.194.79-.475 1.67-.633 1.933-.37.668-.65 5.766-.352 6.556.317.827 1.248.827 1.477.018.088-.334.404-1.916.703-3.533.563-2.988 1.846-6.064 3.92-9.404.949-1.511 1.142-2.25.58-2.25zm2.83-8.982c-.44 0-.791.3-.791.668 0 1.02-4.201 4.711-5.8 5.098-1.864.44-2.215.65-1.881 1.195.492.791 2.39.527 4.675-.65 2.373-1.196 3.762-2.813 4.271-4.957.246-1.055.14-1.354-.474-1.354zM127.79 58.758c-.299-.053-.598.457-.773 1.494-.282 1.74.439 4.43 2.056 7.664.51 1.002 1.072 2.724 1.283 3.796.194 1.09.563 2.373.826 2.865.563 1.038 2.918 1.178 2.918.176 0-.369-.316-.931-.72-1.265-.387-.334-.967-1.828-1.284-3.322-.298-1.495-1.195-3.92-1.986-5.414-.773-1.477-1.494-3.41-1.6-4.289-.122-1.09-.421-1.652-.72-1.705zm13.324-10.107c-.58 0-.563.193.123.932.932 1.037 1.195 3.199.615 4.904-.457 1.318 0 1.423 1.248.28 1.354-1.194 1.248-4.34-.176-5.343-.615-.421-1.423-.773-1.81-.773zm-14.15-6.68c-.193.036-.299.247-.299.669 0 1.195 2.232 3.954 3.674 4.535 1.388.562 3.27.58 3.27.035 0-.246-1.003-1.02-2.216-1.74-1.212-.704-2.513-1.688-2.865-2.18-.65-.914-1.23-1.371-1.564-1.318zm8.824-14.623c-.686-.018-1.986 1.652-6.38 7.54-.967 1.3-1.758 2.461-1.758 2.602 0 .685 1.195.07 2.97-1.53 1.072-.984 2.443-2.601 3.04-3.603.599-1.002 1.53-2.285 2.058-2.883s.808-1.318.632-1.617c-.193-.28-.334-.492-.562-.51zm45.666-3.006c-.738 0-.018 1.512 1.388 2.847 2.408 2.338 7.805 4.535 7.805 3.2 0-.212-.826-.774-1.863-1.231-1.02-.457-3.041-1.723-4.465-2.812-1.441-1.09-2.724-2.004-2.865-2.004zm-5.256-1.934a.866.866 0 0 0-.263.053c-.686.123-.985.791-1.23 2.883-.194 1.494-.493 3.34-.686 4.095-.07.264-.106.475-.123.65v.387c.052.176.21.159.51.053.404-.158.966-.773 1.247-1.371.3-.615.686-2.39.862-3.99.263-2.303.246-2.777-.317-2.76zm-29.319-4.007c-.44.017-.966.474-1.16 1.195-.193.809.211 2.268 1.178 4.342.826 1.74 1.635 3.638 1.828 4.253.51 1.705 1.195 1.336 1.02-.58-.089-.931-.633-3.04-1.213-4.71-.58-1.653-1.038-3.358-1.038-3.762 0-.527-.28-.773-.615-.738zm15.538-.95c-.597 0-1.705.23-3.234.756-1.67.563-3.27.739-5.414.545l-3.058-.28 1.178.966c1.687 1.37 6.468 1.3 9.052-.14 2.074-1.178 2.478-1.846 1.476-1.846zm103.563 43.17c-.19-.035-.24.914-.33 3.481-.33 9.315-2.78 14.677-8.79 19.211-1.76 1.336-3.04 2.549-2.88 2.707.42.44 3.06-1.002 5.55-3.023 3.47-2.795 4.56-4.148 6.21-7.558 1.37-2.883 1.53-3.709 1.53-7.681 0-2.848-.27-5.08-.74-6.135-.26-.615-.44-.984-.55-1.002zM150.708 77.423c-.427 0-.744.451-.744 1.068 0 1.723-2.055 5.352-4.08 7.162-2.56 2.317-2.331 2.957.499 1.479 2.04-1.052 3.415-2.767 4.293-5.384.988-2.973.996-4.325.032-4.325zm4.419 15.393c-.514 0-.68.3-.467.965.364 1.146-.909 6.459-2.182 8.918-1.24 2.458-3.336 4.403-4.862 4.593-.703.071-1.36.419-1.486.767-.293.917 2.672.774 4.325-.198 1.794-1.051 4.364-5.044 5.312-8.222.902-3.028.538-6.823-.64-6.823zm-.024 16.429c-.371 0-1.154.877-2.348 2.624-1.02 1.47-3.067 3.526-4.546 4.538-4.293 2.957-3.028 3.858 1.629 1.186 2.799-1.597 4.878-4.23 5.384-6.815.213-1.035.182-1.55-.119-1.533zm-18.484 9.368c-.031.016-.047.016-.047.071 0 1.494 3.051 5.4 5.336 6.847 2.317 1.454 4.103 1.929 4.103 1.083 0-.245-.885-1.036-1.976-1.755-1.075-.72-3.21-2.546-4.72-4.072-1.32-1.336-2.45-2.23-2.696-2.174zm28.833 5.51c-.332 0-.593.633-.593 1.827 0 1.02-.3 3.02-.664 4.443-.561 2.142-.57 2.593-.024 2.593.364 0 .973-.625 1.352-1.384.973-1.913 1.344-4.917.822-6.324-.316-.79-.632-1.178-.893-1.155zm53.808-46.206c-1.31 0-4.78 3.006-5.81 5.027-1.59 3.111-2.03 11.566-.55 10.652.23-.141.56-1.441.7-2.883.37-3.445 1.95-7.03 4.36-9.913 2.15-2.531 2.31-2.883 1.3-2.883zm-19.81 15.486c-.51.035-.932.967-1.547 3.375-.633 2.478-1.529 4.324-3.076 6.398-1.213 1.6-2.197 3.04-2.197 3.217 0 .685 2.936-1.248 4.236-2.778 3.111-3.69 4.728-9.825 2.69-10.212h-.106zm-4.746-4.886c-.492.087-1.125 1.283-1.687 3.427-.862 3.322-2.531 6.504-4.5 8.666-.896.984-.914 1.125-.193 1.125.457 0 1.757-.914 2.865-2.04 2.513-2.495 4.535-6.854 4.324-9.315-.106-1.319-.422-1.916-.809-1.863zm-4.64-6.54a1.224 1.224 0 0 0-.334.106c-.246.159-.545 2.162-.668 4.465-.123 2.32-.44 4.5-.72 4.851-.757.985-1.196 2.39-.739 2.39.228 0 .756-.386 1.178-.86 1.107-1.266 2.865-6.346 2.865-8.262 0-1.459-.809-2.742-1.582-2.69zm-3.656-5.43c-.492.07-.791.86-1.213 2.97-.598 2.953-1.635 5.361-3.674 8.455-1.02 1.547-.79 1.705.932.58 1.09-.703 2.18-2.215 4.113-5.678 1.037-1.828 1.09-6.117.07-6.31a.506.506 0 0 0-.228-.017zm70.012 19.844c-.14.035-.316.264-.562.598-1.248 1.687-.827 4.113 1.582 9.087 1.265 2.619 2.425 5.73 2.548 6.908.282 2.496.88 2.777 1.354.65.422-1.916-.018-3.955-1.758-7.927-.756-1.775-1.652-4.342-1.986-5.713-.65-2.812-.844-3.69-1.178-3.603zm6.943-6.416c-.72-.052-1.336 2.654-1.037 4.729.457 3.023.51 3.251 2.215 8.525.826 2.583 1.511 5.66 1.511 6.82 0 2.32.791 2.83 1.284.808.492-1.898-.141-6.345-1.547-11.109-.686-2.32-1.371-5.396-1.547-6.837-.176-1.442-.51-2.743-.738-2.883-.053-.035-.106-.035-.141-.053zm6.61-8.577c-1.073-.053-.669 7.523 1.019 15.31.826 3.92 1.494 7.382 1.458 7.699-.035.298-.035 1.001-.017 1.529.123 1.793 1.072.035 1.37-2.514.212-1.758-.157-4.623-1.247-10-.861-4.15-1.547-8.262-1.564-9.159 0-.896-.211-1.95-.458-2.355-.21-.351-.404-.51-.562-.51zm5.975-11.794c-.334.088-.474 1.002-.474 3.164 0 3.04 1.09 7.646 3.99 16.839.263.843.474 2.513.474 3.726.018 1.213.159 2.724.334 3.357.598 2.25 1.143-.07 1.143-4.886 0-4.764-.528-7.33-3.129-15.626-.685-2.18-1.318-4.5-1.406-5.15-.088-.668-.44-1.301-.774-1.424-.07-.018-.105-.018-.158 0zm7.47-7.435c-.316 0-.492.86-.474 2.689 0 3.41.264 4.517 2.883 12.11 1.072 3.147 2.127 7.05 2.32 8.666.44 3.692.773 4.29 1.371 2.461.316-.949.299-2.619-.053-4.939-.298-1.916-1.16-5.502-1.898-7.962-.738-2.461-1.793-6.346-2.39-8.648-.721-2.883-1.354-4.36-1.758-4.377zm9.176-7.453c-1.283.369.018 8.384 3.586 22.218.175.685.246 1.968.175 2.847-.175 2.162.721 2.057 1.46-.176.755-2.285.351-5.396-1.618-12.076-.843-2.882-1.88-6.978-2.32-9.087-.44-2.127-1.002-3.814-1.283-3.726zM243.66 100.36c-.03 0-.05.02-.09.02-.21.07-.33.53-.31 1.42.01 3.29.95 5.54 4.41 10.8 1.95 2.93 4.22 6.99 5.08 9.01 1.46 3.48 1.51 3.89 1.26 8.63-.15 2.78-.61 5.96-1.09 7.21-.45 1.23-1.17 3.57-1.61 5.2-.43 1.64-.86 3.08-.97 3.2-.11.13-1.2-.93-2.43-2.32-2.63-3.02-6.2-4.88-10.26-5.34-2.39-.26-3.25-.12-5.45.88-5.82 2.69-8.31 6.41-8.44 12.67-.1 6.14 1.67 9.86 6.81 14.26 1.51 1.26 2.61 2.53 2.47 2.76-.44.7-7.52.52-9.31-.23-3.03-1.27-6.63-6.38-8.56-12.18-1.18-3.47-2.43-4.49-2.95-2.39-.66 2.58 2.77 9.77 6.64 13.88 3.11 3.34 5.01 4.13 10.28 4.27 1.97.06 3.25-.3 5.71-1.54 1.74-.9 3.22-1.95 3.31-2.36.07-.47-.65-1.07-2.02-1.63-2.97-1.22-7.3-5.19-8.7-8-1.43-2.87-1.92-7.38-1.08-10.02 2.01-6.24 9.13-9.37 15.12-6.64 2.41 1.09 6.07 4.95 8.1 8.56.74 1.28 1.55 2.28 1.81 2.19.25-.08.76-1.81 1.09-3.85.36-2.02 1.22-5.69 1.96-8.15 2.14-7.26 2.3-8.23 2.03-12.89-.31-5.67-1.67-9.05-6.59-16.4-2.02-3-4.09-6.68-4.62-8.15-.65-1.86-1.23-2.85-1.6-2.87z"></path><path fill="#fff" d="M214.27 113.27c-1.16.176-7.453 6.258-9.72 9.544-4.13 5.977-6.68 14.554-8.455 28.528-.773 6.064-.931 6.873-1.74 8.807-1.283 3.093-.598 3.62 1.336.984 2.144-2.9 2.707-4.623 3.181-9.65.405-4.377 2.092-13.113 3.252-16.874 1.213-3.902 3.814-9.28 5.52-11.337 1.581-1.916 6.82-9.492 6.82-9.86 0-.124-.07-.159-.194-.141zm24.028-6.627c-.299 0-.334.914-.351 3.639-.018 2.918-.317 4.957-1.09 7.03-1.02 2.83-1.424 6.733-.739 7.418.457.457.352.721 2.162-5.484 1.758-6.064 1.916-10.845.422-12.339-.158-.158-.298-.263-.404-.263zm-9.58-2.285c-.333.123-.562.65-.51 1.16.141 1.213-1.23 9.334-1.933 11.601-1.213 3.885-5.836 12.357-7.294 13.394-.475.334-4.623 7.33-5.397 9.088-.72 1.6-.826 6.785-.158 6.785.246 0 .844-1.178 1.319-2.602 1.177-3.568 2.935-6.68 7.417-13.288 4.447-6.539 5.52-8.824 6.486-13.798.914-4.693.95-12.656.07-12.339zm-19.774-2.443c-.123 0-.263.035-.439.07-4.676.88-12.568 5.783-16.892 10.494-4.816 5.256-8.595 13.165-10.617 22.253-.422 1.899-.967 4.026-1.213 4.711s-.931 2.918-1.529 4.957c-1.933 6.626-3.726 10.933-5.853 14.009-2.074 3.04-.932 3.216 1.635.246 1.001-1.16 2.777-4.008 3.92-6.31 2.09-4.236 2.706-6.082 6.046-18.122 2.812-10.142 5.677-15.608 11.337-21.585 3.357-3.55 6.433-6.012 10.828-8.596 2.918-1.705 3.603-2.214 2.777-2.126zM261.8 124.3c-.18.07-.21.51-.21 1.52 0 1.91-1.21 6.48-3.2 12.12-2.92 8.23-3.37 14.35-1.39 18.64 1.58 3.41 2.62 5.18 3.06 5.18.23 0 .56-1.14.74-2.51.68-5.1 2.64-9.13 6.48-13.38 4.33-4.8 5.95-7.65 6.7-11.83.56-3.13.28-7.24-.47-6.78-.21.14-.5 1.33-.62 2.63-.12 1.32-.82 3.98-1.56 5.91-1.16 3.04-1.97 4.16-5.82 8.03-2.71 2.74-4.85 5.4-5.45 6.77-.54 1.23-1.21 2.13-1.48 1.97-.26-.16-.45-1.64-.45-3.27 0-2.22.58-4.8 2.3-10.02 2.57-7.79 3.3-13.55 1.9-14.73-.25-.19-.41-.28-.53-.25zm35.96 15.65c-1.705 0-3.34.176-3.973.51-1.757.931-10.37 1.16-12.726.316-2.583-.896-2.812-.21-.632 1.863 2.021 1.934 5.36 2.198 10.757.809 6.837-1.758 10.458-1.23 13.447 1.951 2.074 2.197 3.005 1.934 1.933-.562-.843-1.987-2.513-3.639-4.464-4.377-.88-.334-2.655-.51-4.342-.51zm-17.155-16.118c-.053-.018-.105-.018-.123.018-.44.439 1.072 2.76 2.496 3.814 1.793 1.336 5.045 1.6 10.582.861 5.888-.79 8.753-.387 10.845 1.494 1.828 1.635 2.355.967 1.107-1.441s-3.287-3.182-7.417-2.813c-11.32 1.002-11.425 1.002-14.501-.65-1.354-.738-2.602-1.265-2.988-1.283zm15.134-16.628a.817.817 0 0 0-.176.088c-.756.72.352 4.886 1.899 7.189 2.882 4.289 6.31 5.59 10.037 3.832.914-.44 1.933-1.108 2.232-1.477.492-.58.053-.65-2.584-.404-2.76.246-3.357.14-4.886-.879-1.53-1.037-5.432-6.152-6.065-7.962-.105-.264-.28-.405-.457-.387zm11.25-5.924c-.193 0-.264.176-.264.493 0 1.054 3.428 5.818 4.975 6.925 3.498 2.478 8.19 3.78 9.878 2.724.984-.615.527-1.248-.896-1.248-2.285 0-7.295-2.935-10.353-6.046-1.934-1.969-2.918-2.83-3.34-2.848zm23.22-1.757c-.088 0-.193.052-.299.158-.422.422-.404 1.037.07 2.425 1.23 3.604 2.268 5.08 4.272 6.082 2.091 1.037 4.728 1.319 4.728.51 0-.264-.861-.932-1.916-1.459-2.25-1.16-4.869-4.008-5.87-6.398-.405-.967-.686-1.354-.985-1.318zm3.305-12.673c-.264 0-.493.422-.493.914 0 4.324 4.606 7.593 8.578 6.081.668-.246 1.354-.826 1.512-1.248.246-.65-.053-.773-1.547-.703-1.02.053-2.46-.088-3.217-.298-1.336-.387-4.324-3.323-4.324-4.254a.507.507 0 0 0-.51-.492zm1.406-12.392c-.598 0-.51 2.355.123 3.533 1.142 2.126 4.957 3.357 6.837 2.214.826-.527.211-1.283-1.037-1.283-1.353 0-4.13-1.898-4.904-3.357-.334-.615-.79-1.107-1.02-1.107zM150.48 154.75c-.1-.02-.26.21-.45.56-.46.81-.72 2.86-.76 5.96-.03 4.38.07 4.96 1.58 8.03 1.67 3.39 4.56 6.35 6.19 6.35.69 0 .4-.6-1.3-2.69-3.13-3.85-4.36-7.4-4.73-13.68-.19-3.32-.26-4.5-.53-4.53zm317.62 1.54c-3.674 0-6.591 1.424-9.896 4.834-2.531 2.583-4.166 5.888-5.607 11.302-.598 2.302-.51 2.583-.264 3.673 1.055-.668 1.6-2.338 1.951-3.27 2.936-8.12 7.928-13.252 14.536-15.01 2.953-.791 2.62-1.53-.72-1.53zm-10.406-28.159c-4.781-.088-10.828 2.092-15.802 5.713-3.27 2.39-8.226 7.171-9.474 9.157-1.916 3.059-1.459 3.217 1.53.528 4.235-3.797 9.508-7.945 11.688-9.193 3.744-2.18 11.021-4.201 15.872-4.447 2.531-.123 2.637-.176 1.582-.791-.633-.352-2.636-.774-4.465-.932-.316-.017-.615-.035-.931-.035zm28.229-65.756c-.246 0-1.283 1.652-2.426 3.85-5.115 9.948-18.14 25.715-26.7 32.323-1.916 1.477-4.605 3.569-5.958 4.676-3.112 2.478-9.668 6.45-12.78 7.716-4.816 1.952-1.37 2.11 4.008.159 4.201-1.512 6.293-2.83 12.954-8.174.422-.351 2.443-1.95 4.5-3.586 4.113-3.269 9.826-9.087 13.64-13.886a283.063 283.063 0 0 1 3.55-4.43c3.657-4.376 10.073-17.295 9.246-18.631 0 0-.017-.018-.035-.018zM216.38 172.75c-.05 0-.09 0-.14.01-.76.11-2.02 1.13-4.34 3.34-6.66 6.28-7.56 7.02-13.8 11.13-6.12 4.03-12.69 7.45-20.72 10.79-2.24.93-4.08 1.87-4.08 2.09-.02.22.39.29.86.14.47-.12 3.32-.96 6.33-1.82 8.44-2.48 11.62-3.94 18.35-8.42 8.66-5.79 18.89-15.01 18.31-16.54-.17-.44-.42-.71-.77-.72zm111.11 7.03c-.264.018-.422.105-.422.264 0 .545 4.816 4.236 7.629 5.835 2.214 1.266 6.134 1.582 8.472.703 2.11-.808 1.441-1.37-1.846-1.581-3.023-.194-4.271-.668-9.28-3.516-1.881-1.055-3.744-1.722-4.553-1.705zm-10.88-7.54c-1.125.087-.703 1.036 1.143 1.986 7.083 3.62 10.248 4.113 15.767 2.408 4.745-1.477 4.693-1.442 4.13-2.004-.334-.334-2.267-.317-5.906.07-5.36.58-5.449.58-9.14-.773-2.039-.756-4.289-1.477-5.01-1.617-.28-.036-.527-.07-.738-.07h-.246zm-15.626-6.469c-.457.053-.703.281-.703.685 0 1.038 3.762 3.094 7.224 3.955 3.41.844 6.96.633 11.636-.738 1.776-.51 5.344-1.23 7.928-1.617 4.5-.668 4.658-.738 3.234-1.318-1.899-.791-8.595-.37-11.654.72-3.656 1.301-9.58 1.09-13.271-.439-2.18-.914-3.621-1.318-4.395-1.248zm4.553-5.449c-.07-.018-.159 0-.282.018-.51.052-1.494.334-3.48.896-3.674 1.02-6.697 1.037-12.515.088-2.303-.37-3.726-.387-4.658-.035-1.88.72-1.09 1.23 3.533 2.355 4.588 1.125 7.066 1.266 10.107.563 2.531-.58 7.506-2.918 7.506-3.516 0-.21 0-.351-.211-.369zm-29.547-3.199a1.07 1.07 0 0 0-.387.053c-.914.298-.756 1.968.246 2.601 1.23.756 7.593.281 9.544-.738 2.162-1.108 1.53-1.512-2.126-1.318-1.688.07-3.955-.053-5.045-.3-.826-.193-1.705-.298-2.232-.298zm-126.698 29.82c-.334-.035-1.544.753-2.915 1.878-1.951 1.6-3.625 2.494-5.435 2.915-2.479.598-2.544.652-1.384 1.162 2.25.966 4.764.71 6.4-.643 1.74-1.476 3.68-4.471 3.433-5.262-.017-.035-.046-.05-.099-.05zm-14.823 6.103c-.809-.053-.294 2.354 1.112 5.114.808 1.617 1.482 3.575 1.482 4.348 0 1.723 1.476 2.002 1.581.297.194-2.707-.271-4.264-1.976-6.918-1.02-1.564-1.988-2.841-2.2-2.841zm-12.72 13.463c-1.073.194-1.29 2.819-.569 6.844.492 2.672.467 3.55-.148 5.238-.774 2.161-.579 4.669.37 4.669.317 0 .86-1.046 1.211-2.347.79-2.813.866-6.058.321-10.945-.334-2.918-.535-3.582-1.186-3.459zm13.637 10.507c-1.353.334-1.781 1.285-.568 1.285.861 0 2.5 2.273 2.94 4.101.58 2.426 1.45 1.581 1.186-1.161-.264-2.724-1.32-4.281-2.866-4.299-.245-.049-.478.045-.692.074zm18.11 16.603c-.827.193-.396 7.682.641 9.265l.84 1.26 6.053-.223c3.322-.123 6.674-.4 7.412-.593.756-.176 1.384-.612 1.384-.963 0-.932-4.693-1.442-9.685-1.038l-4.126.346c-.548-1.755-1.06-3.605-1.334-5.337-.176-1.142-.62-2.351-.988-2.668-.07-.052-.145-.067-.198-.05zm-28.141 1.186c-.72.738.599 2.522 2.99 4.051 1.74 1.108 3.16 2.573 4.249 4.349 3.164 5.202 5.255 6.405 7.856 4.595 1.582-1.125 1.448-2.399-.222-1.977-1.775.44-3.337-.694-5.41-3.928-1.881-2.935-3.339-4.296-5.782-5.262-.896-.352-2.02-.955-2.495-1.36-.373-.41-.987-.655-1.186-.469zM321.62 191.29c-5.72 0-6.58.14-10.88 1.62-9.74 3.37-15.6 7.47-27.34 19.03-4.23 4.19-8.01 8-8.36 8.48-1.02 1.33.14 1.05 2-.48.91-.75 1.78-1.49 1.92-1.63.56-.6 10.82-9.74 11.7-10.43.53-.4 1.88-1.46 3.01-2.35 4.44-3.48 9.47-4.54 13.04-2.73 2.67 1.37 3.59 3.03 3.96 7.19.01.21.26.39.52.39.28 0 .51-1.28.51-2.87 0-4.43-2.28-7.27-6.45-8.06l-1.74-.34 1.39-.56c2.99-1.23 6.87-.09 8.77 2.58 1.28 1.8 2.04 4.91 1.72 7.14-.35 2.55.06 2.71 1.04.39 1.88-4.56.09-9.35-4.48-11.89l-1.5-.82 2.87.19c4.83.32 7.01 3.39 6.91 9.72-.04 2.73.07 3.08.67 2.46.38-.38.91-1.79 1.16-3.13.75-4.13-1.04-8.2-4.68-10.58-.86-.58-.76-.61 1.02-.44 3.23.34 5.5 1.57 6.96 3.76 1.14 1.73 1.35 2.57 1.35 5.51 0 3.74.44 4.37 1.3 1.89 1.27-3.62.27-9.08-1.89-10.44-.57-.35-1.02-.79-1.02-.98 0-.39 3.04-.04 5.02.58 1.59.51 2.04.18 1.41-.98-.88-1.67-3.43-2.24-9.91-2.22zm12.37.72c-.37 0-.44.34-.21.88.21.47.65 2.11.98 3.64.81 3.71.27 6.99-2.56 15.06-3.66 10.44-4.61 14.06-5.29 20.11-1.23 10.7-.57 17.1 3 29.27.69 2.32 1.41 4.88 1.64 5.71.23.81 1.1 3.6 1.95 6.2 2.18 6.67 2.41 7.63 3 12.64.34 2.92.37 5.33.06 6.94-.83 4.38.45 4.29 1.74-.12 1.51-5.17.42-11.04-5.33-28.79-2.62-8.16-3.43-12.8-3.76-21.67-.39-10.62.23-14.45 4.18-26.05 3.17-9.23 3.31-9.88 3.32-14.38.02-3.81-.19-5.17-1.07-7.08-.6-1.29-1.33-2.36-1.65-2.36zM180.65 223.9c-.07.018-.14.053-.21.07-.774.3-.774.405.087 1.336.633.703.967 1.986 1.09 4.324.21 4.043.457 4.922 1.142 4.219.281-.281.65-2.18.791-4.184.264-3.462.194-3.726-1.002-4.833-.703-.65-1.37-.985-1.898-.932zm16.593-7.593a.826.826 0 0 0-.527.246c-.176.176-.106.615.158.967 2.127 2.9 2.39 3.533 2.425 5.923.018 1.406-.158 3.515-.386 4.658-.528 2.724.404 2.865 1.53.264 1.16-2.69 1.089-7.893-.124-9.95-.756-1.265-2.18-2.179-3.076-2.108zm15.204-6.416c-.316 0-.668.053-1.037.105-1.16.211-1.16.211.176.774 2.496 1.037 3.058 2.619 2.689 7.453-.176 2.373-.44 4.921-.615 5.677-.404 1.81.562 1.775 1.53-.07 1.036-2.022 1.74-6.926 1.317-9.246-.615-3.322-1.81-4.728-4.06-4.693zm16.575-11.83a2.938 2.938 0 0 0-.527.124c-.616.246-.37.685 1.107 2.11 2.248 1.633 1.79 2.814 1.6 5.413-.159 1.969-.159 3.726 0 3.885.527.527 1.107-.264 1.652-2.285 1.107-4.149-1.23-9.475-3.832-9.246zm10.494-4.552c-.422-.017-.756.141-.967.475-.158.264.123.703.668.984 1.67.897 2.25 3.674 1.336 6.486-.422 1.319-.79 2.654-.79 2.936 0 1.072 1.001.492 1.792-1.037.44-.862.914-2.813 1.055-4.342.193-2.32.07-2.988-.844-4.13-.668-.862-1.547-1.337-2.25-1.372zm8.296-6.222c-.685.264-.58.51.616 1.459 1.336 1.072 1.441 1.424 1.652 5.484.193 3.797.316 4.236.95 3.603.509-.492.737-1.828.755-4.165.017-4.43-1.02-6.75-3.024-6.592-.347.007-.674.138-.949.211zm13.94-13.13c-1.53 0-1.46.422.369 1.951 1.16.984 1.582 1.81 1.793 3.516.333 2.917.51 3.462 1.195 3.462.404 0 .51-1.002.369-3.199-.229-3.586-1.617-5.73-3.727-5.73zM249.06 227.82c-2.514.053-6.96.492-10.687 1.143-9.826 1.722-16.505 6.609-27.104 19.792-5.08 6.345-8.666 10.23-12.919 13.956-1.459 1.265-1.459 1.3-.246.984.668-.193 2.021-.844 3.006-1.477 2.214-1.441 7.68-7.066 12.497-12.902 4.864-5.916 11.196-12.586 16.857-15.362 4.429-2.162 11.742-4.218 17.876-5.044 1.3-.176 2.513-.545 2.689-.809.088-.158-.299-.263-1.037-.281-.333-.023-.657-.004-.932 0zm-125.75 11.76zm3.92 4.53c.79.84 1.56 1.7 2.21 2.64-.65-.94-1.42-1.8-2.21-2.64zm99.31 13.08c-.02 0-.02 0-.03.02-.16.15.1 1.59.59 3.19 1.23 4.1 4.03 7.21 8.3 9.27 5.33 2.55 7.29 2.62 14.2.45 1.16-.35 1.16-.35.39 1.18-.93 1.78-3.13 3.48-6.24 4.84-3.53 1.52-10.72 1.33-14.8-.39-3.69-1.57-7.47-4.61-9.58-7.68-.84-1.22-1.78-2.11-2.09-2.01-2.8.94 3.92 8.48 10.42 11.73 2.67 1.33 6.52 2.02 10.58 1.88 3.54-.12 4.73-.41 7.51-1.74 1.83-.88 3.93-2.3 4.69-3.2 1.65-1.95 3.62-6.17 4.01-8.54.31-1.95-.23-2.24-1.53-.79-.48.51-2.23 1.54-3.92 2.3-4.29 1.93-8.35 1.88-12.78-.18-4.08-1.88-5.96-3.67-7.91-7.52-.81-1.6-1.58-2.79-1.81-2.81zm241.11 5.27c-2.25 0-2.11.563.44 1.758 1.282.597 2.812 1.916 3.937 3.41 1.968 2.636 2.25 3.867 3.41 14.185.615 5.52.72 5.94 1.511 5.94.317 0 .44-2.864.334-8.085-.14-7.892-.193-8.173-1.652-11.038-1.775-3.48-5.256-6.17-7.98-6.17zm-66.301-38.881c-.527-.018-.615.475.088.914.246.158 1.74 2.004 3.322 4.113 5.642 7.576 14.044 16.487 19.546 20.706 4.728 3.639 14.396 9.158 17.894 10.212 4.236 1.283 7.119 1.74 12.234 1.88 3.27.089 4.095-.034 4.095-.597 0-.474-.773-.79-2.355-.967-5.906-.667-13.85-2.882-18.087-5.062-10.23-5.238-17.226-10.898-25.733-20.847-2.637-3.076-9.246-9.562-10.353-10.16-.246-.123-.475-.193-.65-.193zM175.34 262.9c-.55-.02-1.06 1.27-1.06 3.94 0 2.84.86 5.01 2.87 7.15 1.14 1.23 2.58 1.83 2.58 1.09 0-.16-.58-1.05-1.32-2-1.07-1.41-1.35-2.41-1.54-5.43-.2-3.1-.9-4.75-1.53-4.75zm85.76 4.2c-.3.05-.58.55-.76 1.5-.35 1.81.16 3.81 1.92 7.71.56 1.25.96 2.64.89 3.1-.07.45.11.96.39 1.14.9.56.58 3.39-.7 6.13-.69 1.46-2.8 4.36-4.68 6.45-3.43 3.83-5.01 6.61-5.01 8.86 0 1.57.81 1.06 1.69-1.07.39-.91 2.55-3.64 4.78-6.05 7.7-8.29 8.33-10.74 4.85-19.17-1.14-2.78-2.19-5.82-2.35-6.75-.21-1.3-.64-1.94-1.02-1.85zm86.71.9c-.27.07-.36.98-.13 2.72.74 6.14 4.99 12.43 10.04 14.89 2.51 1.25 3.37 1.41 7.56 1.39 5.24-.02 7.89-.63 10.58-2.44l1.81-1.24v1.43c0 2.65-1.92 7.71-3.73 9.82-2.62 3.06-4.22 3.73-9.79 3.99-4.88.23-5.73.58-3.74 1.64 3.13 1.69 7.7 1.72 11.35.09 4.84-2.18 7.53-6.66 8.32-13.91.4-3.69.23-10.02-.28-10.53-.14-.14-.6.32-1.04.99-2.95 4.62-7.51 6.94-13.57 6.94-7.26 0-12.59-4.18-15.42-12.11-.91-2.53-1.6-3.78-1.96-3.67zm-118.72 13.94c-.04 0-.04.01-.05.01-.57.57 2.47 4.98 4.25 6.17 1.76 1.2 3.23 1.44 3.73.65.15-.24-.21-.73-.83-1.05-.63-.32-2.41-1.81-3.97-3.34-1.46-1.42-2.81-2.48-3.13-2.44zm194.72 9.54c-1.35 0-1.21 4.15.23 6.45 5.1 8.19 4.96 10.25-1.44 19.86-2.09 3.17-4.41 9.62-3.92 10.9.21.55.95-.53 2.35-3.32 1.13-2.27 3.5-6.12 5.24-8.56 3.53-4.94 4.41-6.96 4.45-10.09.03-2.55-.67-4.34-3.61-9.18-1.23-2.02-2.3-4.2-2.39-4.85-.1-.66-.51-1.21-.91-1.21zm-187.73 1.88c-.08 0-.17.04-.28.11-.28.16-.51.72-.51 1.21 0 2.06-4.43 9.77-7.2 12.53-2.69 2.69-6.82 5.12-9.74 5.7-.77.16-1.41.47-1.41.7 0 .91 4.06.39 6.7-.86 5.33-2.53 11.57-10.11 12.67-15.38.51-2.46.41-4.03-.23-4.01zm82.13 1.95c-.37.13.14 1.97 1.63 5.06 2.18 4.45 5.61 7.88 9.49 9.48 3.82 1.56 6.87 1.56 10.37.02 1.51-.67 2.74-1.46 2.74-1.74 0-.34-1.68-.53-4.55-.53-6.48 0-9.74-1.02-13.15-4.13-1.49-1.39-3.39-3.69-4.21-5.13-1.23-2.2-2.04-3.13-2.32-3.03zm81.29 2.31c-.28.1-.16 1.26.58 3.56.84 2.55 1.06 4.42 1.04 9.14 0 6.59-.46 8.44-3.5 14.56-1.83 3.67-7.42 10.4-10.11 12.16-1.47.95-1.84 1.83-.79 1.81.35 0 1.74-.67 3.13-1.46 4.9-2.79 10.13-9.89 12.25-16.64 1.57-4.92 1.53-14.57-.05-18.64-1.11-2.88-2.09-4.44-2.5-4.49h-.05zm-43.1 32.65c-.95.9-1.93 1.8-2.86 2.73.93-.93 1.91-1.85 2.86-2.73zm-5.5 5.54zm-124.96.65c-.334.035-.65.193-.95.492-.439.44-.228.967.897 2.233.809.931 1.477 2.091 1.477 2.583 0 .493.14 1.037.316 1.23.791.774 1.16.176 1.16-1.845 0-2.69-1.494-4.834-2.9-4.693zm9.14-8.472c-.492.017-.914.263-1.265.703-.528.615-.44.738.544.738 1.565 0 2.426 1.477 2.743 4.64.386 4.06.65 5.01 1.248 4.412.316-.316.456-2.144.333-4.57-.158-3.62-.298-4.148-1.406-4.992-.843-.65-1.564-.966-2.197-.931zm9.263-4.922c-.949.018-1.16.862-.193 1.81 1.107 1.126 2.549 5.414 2.549 7.612 0 1.933.861 1.775 1.423-.264.897-3.252-.79-8.332-3.005-9.035a2.608 2.608 0 0 0-.774-.123zm12.312-10.082c-.315.048-.517.21-.517.572 0 .264.211.493.492.493s.95.72 1.494 1.617c.756 1.23.985 2.496.985 5.449 0 .386 0 .826.017 1.142-.035 1.336-.158 2.672-.334 3.375-.158.703-.176.756-.176.826 0 .264.211.492.493.492a.49.49 0 0 0 .457-.351c.316-.791.457-1.6.896-2.97.44-1.372.738-6.645.158-8.016-.567-1.374-2.712-2.648-3.826-2.64-.048-.001-.095.008-.139.011zm19.978-11.802c-.72 0-1.16.14-1.16.457 0 .281.317.51.668.51.37 0 1.547.756 2.602 1.687 1.828 1.582 1.933 1.846 1.915 4.36-.017 2.091-.386 3.34-1.617 5.519-.878 1.547-1.581 2.918-1.581 3.058 0 .756 1.107.053 2.214-1.424 4.957-6.486 4.904-12.286-.14-13.693-1.16-.316-2.162-.474-2.9-.474zM421.45 337.87c-.879.035-1.617.264-1.81.738-.194.545.07.738.984.738 2.004 0 4.025 2.409 4.412 5.256.422 3.129.597 3.674 1.23 3.674.281 0 .51-1.178.51-2.742 0-2.69-.809-5.027-2.373-6.803-.545-.615-1.846-.914-2.953-.861zm13.306-7.418c-.475 0-.896.123-1.178.405-.351.351-.105.668.809 1.02 1.758.667 2.32 2.249 2.9 8.471.562 5.977.668 6.451 1.424 6.451.404 0 .51-1.95.386-6.68-.14-5.817-.298-6.837-1.212-8.05-.739-1.019-2.074-1.617-3.129-1.617zm9.474-13.34c-1.02 0-1.828.298-1.828.913 0 .405.492.809 1.107.897 1.776.246 3.973 2.69 4.57 5.08.535 1.658 1.04 3.27 1.495 4.939.28 0 .544-.281.562-.633.299-3.726-1.178-8.93-2.918-10.3-.773-.615-1.968-.896-2.988-.896zm8.894-24.258c-.773.053-1.512.334-2.566.932l-2.092 1.16 3.55.281c2.409.194 3.973.616 4.905 1.284 1.968 1.423 3.533 4.904 3.867 8.612.158 1.776.386 3.498.492 3.85.37 1.16 1.107.615 1.353-1.002.141-.879.194-3.111.106-4.94-.229-5.677-3.058-9.07-8.314-10.053-.444-.102-.911-.103-1.3-.123zM176.97 354.32c.013.36.237.857.457 1.125.545.668 1.898 1.652 3.217 2.285 1.406.703 3.287 1.969 4.183 2.795 1.283 1.213 3.146 2.53 3.691 2.619.036.017.65-.194 1.354-.457 1.652-.633 1.617-1.318-.07-1.74-.756-.194-2.391-1.301-3.639-2.461-1.67-1.565-2.97-2.285-4.974-2.742-1.445-.37-2.889-.78-4.219-1.424zm27.139-4.096c-.105-.017-.193.018-.281.106-.176.158-.07 1.283.193 2.478.281 1.196.633 3.234.791 4.518.422 3.55 1.107 3.99 4.43 2.83 1.494-.528 4.007-.967 5.571-.967 2.286 0 3.182-.246 4.36-1.195 1.828-1.46 1.406-2.075-.897-1.319-1.125.37-2.373.422-3.656.123-1.406-.316-2.601-.228-4.254.3-1.265.404-2.619.614-3.005.474-.405-.158-.826-1.336-1.02-2.76-.28-2.074-1.494-4.447-2.232-4.587zm-22.218-1.37c-.211.017-.457.07-.756.122-1.634.317-3.375 1.582-3.375 2.426 0 .58 3.446-.018 4.324-.756.352-.28.633-.843.633-1.248 0-.44-.21-.597-.826-.545zm3.094-9.422c-.317-.035-.317.598-.106 2.021.211 1.442.088 2.567-.422 3.533-.422.791-.756 1.512-.756 1.618 0 .527 1.108.07 1.987-.809 1.23-1.213 1.353-4.535.21-5.677-.439-.44-.738-.668-.913-.686zm-15.626-15.872c-.229.018-.58.246-1.073.703-1.142 1.037-1.142 3.076.018 8.385.316 1.37.422 3.779.246 5.36-.387 3.376.387 5.801 1.828 5.801.51 0 .932-.105.932-.246s-.281-.668-.598-1.195c-.457-.72-.44-1.547.07-3.639.756-3.164.563-4.974-.966-9.052-.914-2.443-1.002-3.234-.563-4.43.44-1.16.457-1.722.106-1.687zm18.93-7.26c-.351.018-.368.598.159 1.618.879 1.687.879 2.004 0 3.691-.598 1.16-.615 1.371-.035 1.371.386 0 1.037-.492 1.459-1.107 1.054-1.494.966-2.97-.264-4.535-.563-.72-1.037-1.055-1.318-1.037zm-6.59-8.155c-.282.017-.58.44-.792 1.265-.404 1.67.211 2.69 2.356 3.762 1.88.932 2.917 1.107 2.917.457 0-.598-2.32-3.059-2.9-3.059-.246 0-.598-.544-.773-1.23-.194-.808-.51-1.213-.809-1.195zm13.463-7.172c-.404 0-2.11 1.055-3.972 2.444-2.057 1.546-4.096 2.689-4.781 2.689-1.213 0-1.547.492-.844 1.213.738.756 4.236-.158 5.959-1.547 2.232-1.81 4.27-4.447 3.69-4.799h-.052zM375.61 381.09c-.475 0-.773.088-.984.281-.405.405-.036.826 1.37 1.565 2.426 1.283 4.254 1.318 5.344.123.879-.967.334-1.934-.703-1.284-.299.176-1.652.036-3.006-.298-.666-.193-1.373-.307-2.021-.387zm16.206-14.976c-.44-.035-.492.545-.018 1.705.387.914 1.037 3.884 1.442 6.574.562 3.884.949 5.062 1.81 5.765 1.336 1.072 1.037 1.09 3.832-.369 1.283-.668 3.691-1.37 5.326-1.547 2.918-.316 5.045-1.037 4.552-1.511-.703-.721-7.136-.616-9.087.14-2.9 1.09-3.48.72-3.885-2.39-.51-4.06-1.107-5.889-2.302-7.172-.756-.79-1.318-1.177-1.67-1.195zm-24.046-2.97c-.334.017-.51.298-.264.878.985 2.285.774 3.533-1.23 7.523-2.69 5.344-2.355 6.38 2.303 7.418 2.39.527 3.322-.158 1.793-1.318a158.28 158.28 0 0 0-3.323-2.426l1.424-2.9c1.53-3.111 1.828-6.152.826-8.05-.404-.757-1.09-1.16-1.529-1.126zm-23.87-2.83c-.51-.018-.387.562.422 1.704 1.213 1.705 2.584 5.66 2.601 7.488.018.739.44 2.285.967 3.446 1.107 2.443 2.25 2.706 4.517 1.09 1.653-1.16 1.916-2.163.475-1.706-1.775.563-2.883-.562-3.498-3.515-.967-4.588-2.232-6.96-4.377-8.086-.51-.28-.86-.421-1.107-.421zm8.525-20.812a.996.996 0 0 0-.598.123c-.755.475-.51 2.145.457 3.112.528.527 2.04 1.072 3.533 1.283 3.27.422 5.485 2.355 5.485 4.763 0 2.443 1.212 1.53 1.37-1.054.124-1.864-.052-2.39-1.248-3.551-.913-.861-2.337-1.512-4.025-1.828-3.04-.58-3.55-.826-3.55-1.723 0-.562-.756-1.072-1.424-1.124zm11.496-11.056c-.387.07-1.037.791-1.916 2.092-.756 1.16-2.46 3.076-3.779 4.272-1.318 1.177-2.268 2.355-2.127 2.583.334.545 2.39-.21 4.324-1.6 1.371-.966 3.832-5.29 3.85-6.731 0-.457-.124-.65-.352-.615zm2.724-2.496c-.826 0-.298 1.108 1.97 4.078 2.548 3.358 3.48 3.059 1.651-.527-.949-1.828-2.689-3.55-3.62-3.55zm-20.337 28.863a4.41 4.41 0 0 0-.966.105c-1.828.37-2.9 1.143-2.9 2.11 0 .913.21.86 2.495-.44 1.916-1.09 2.409-1.793 1.371-1.775z"></path><path d="M364.29 380.51c-.01 7.31-.61 15.5 12.41 22.71-2.26-7.21-3.51-13.03-2.79-18.91-3.03-2.48-6.77-3.68-9.62-3.8zm29.83 16.1c1.95-3.8 2.83-8.68 2.15-13.31 3.93-2.97 8.56-3.55 11.61-2.84-.77 7.06-2.91 12.35-13.76 16.15zm-33.55-68.55c-7.49-4.15-12.82-7.1-18.67-5.19 3.46 4.27 7.05 7.93 9.9 15.07 4.76-2.82 8.15-6.08 8.77-9.88zm-142.43 32.76c-1.76 8.39-8.26 14.28-16.59 16.14 3.07-4.98 5.23-8.84 5.43-13.47 3.06-1.65 6.98-2.98 11.16-2.67zM116.82 22.549c6.35-.826 10.99 2.18 15.88 4.746-1.67 3.621-4.12 6.539-7.11 9.281-1.89-5.713-4.83-9.984-8.77-14.027zM165 329.11c-6.64 2.66-12.06 7.42-15.55 13.78 5.59-1.05 11.3-2 16.89-2.49.72-3.46 1.55-7.19-1.34-11.29zm-18.91-142.25c-3.73-6.61-8.28-10.51-15.78-10.04 2.77 4.36 5.18 7.56 5.8 13.01 3.81 3.69 9.05-.4 9.98-2.97zm45.58 112.71c-5.63-6.23-12.39-8.99-19.78-8.19 3.71 4.57 7.91 8.85 10.97 14.07 5.57-2.21 6.63-3.99 8.81-5.88z" stroke="#000" stroke-width="1.969" fill="red"></path><path d="M244.86 76.265c-9.37-9.123-26.95-8.191-33.89-16.962-2.45-3.199-3.57-6.293-3.96-9.158-2.27-16.136 24.8-22.464 24-3.691-.22 2.971-1.97 5.326-3.26 7.892 7.25 5.396 14.65 10.599 17.11 21.919z" stroke="#000" stroke-width="2.478" fill="red"></path><path fill="#fff" d="M232.59 65.947c-5.94-4.552-19.53-4.693-20.62-18.069-.39-4.816 3.76-9.615 14.82-6.838-6.68-7.33-17.84-.879-17.25 6.996.6 7.998 4.01 14.325 23.05 17.911z"></path><path d="M190.17 10.456c2.78 4.025 2.71 10.388 1.16 16.575-1.6 2.303-10.31-4.429-9.12-5.818 2.99-3.146 5.56-7.031 7.96-10.757zm-44.41-8.859c7.25.826 12.26 7.207 15.39 13.939-3.16 2.162-7.2 2.654-12.02.615.23-6.064-1.85-9.562-3.37-14.554zm-20.01 63.295c-4.76-.193-9.03-1.494-12.97-4.833-.35 11.073 8.19 15.925 15.33 15.063.17-2.953-.41-6.275-2.36-10.23zm-6.96 145.098c-6.91 1.85-16.43 4.8-17.89 11.41 6.38-1.41 12.27-1.35 17.94-.23 1.45-3.23 1.08-6.89-.05-11.18zm1.13 47.2c-2.71-8.26-.34-13.22 2.79-19.04 2.45 1.21 5.27 3.69 7.26 6.94-4.01 3.63-7.36 7.47-10.05 12.1zm47.24-11.6c-1.61 4.2-4.51 10.1-17.54 12.58 2.62-3.5 4.56-6.77 5.21-10.6 4.16-1.54 9.42-2.39 12.33-1.98zm173.67 113.62c-6.17 5.69-13.34 11.68-12.71 20.17 4.96-5.44 11.11-7.29 17.31-8.29-.19-5.22-1.98-8.63-4.6-11.88z" stroke="#000" stroke-width="1.969" fill="red"></path><path fill="#fff" d="M184.83 21.67c1.3-1.424 2.69-3.761 3.8-5.343.47 1.353-.94 4.64-1.64 5.818-.37.896-1.55 1.054-2.07.457-.32-.422-.3-.633-.09-.932zm-33.8-7.224c.09-2.725-.65-5.062-1.46-7.383 2.16 1.371 3.6 3.656 4.32 6.908.37 1.125-2.93 1.899-2.86.475zm-25.24 17.665c-.95-2.162-2.36-4.236-3.76-6.31 2.4.211 3.95 2.408 5.43 4.886.82 1.459-1 2.584-1.67 1.424zm.21 41.271c-3.32.44-8.77-2.531-8.97-5.396 2.31 1.23 5.4 2.531 8.48 3.146.91.299 1.35 2.11.49 2.25zm14.59 114.238c-1.43-3.34-2.9-5.49-5.17-6.37 1.04 2.43 1.85 5.08 2.5 7.77.21.69 3.6.2 2.67-1.4zm-23.22 27.26c-3.22.14-6.26 1.09-8.63 1.86 1.16-3.06 4.57-3.18 7.4-4.01 1.33-.38 2.79 2.22 1.23 2.15zm5.62 27.14c-1.75 1.76-3.13 5.48-1.74 9.1.67-2.26 1.74-4.87 3.54-7.08.44-.53-1.11-2.62-1.8-2.02zm30.97 13.01c1.02-2.04 2.11-3.8 2.78-6.37.25-.75 2.25-.47 2.18.3-.37 3.48-2.34 5.89-4.96 6.07zm31.84 45.84c-2.46-4.15-5.22-6.24-8.28-6.17 2.41 2.84 5.15 5.41 5.76 7.78.34 1.27 3.22-.1 2.52-1.61zm-22.41 31.6c-3.13.7-5.91 3.2-7.42 6.26 2.76-1.34 5.52-2.94 8.28-3.99 1-.41.44-2.48-.86-2.27zm15.5 39.32c.51-2.51.54-5.13 1.69-8.47.59-1.62-2.38-1.78-2.5-.3-.11 2.36-.86 7.14.81 8.77zm27.63.09c.69-1.86 1.79-4.13 2.41-6.94.16-.92 2.55-1.38 2.49-.65-.35 3.56-2.35 6.2-4.9 7.59zm148.47-39.99c-2.28-4.55-5.27-5.64-8.03-6.38 2.32 2.62 4.75 5.24 5.77 8.44.44 1.14 2.65-.99 2.26-2.06zm-13.78 33.77c-2.49.98-4.76 2.91-7.08 4.67.35-2.6 2.39-5.36 6.15-6.89 1.07-.44 1.8 1.97.93 2.22zm27.95 18.47c.27 3.62 1.18 8.17 2.04 12.52-4.04-5.26-4.11-8.58-4.71-12.17 0-.95 2.58-1.21 2.67-.35zm28.93 8.28c1.59-2 3.41-4.48 3.03-7.86-.11-.82-2.36-.56-2.36.28-.03 2.31.02 5.03-.67 7.58z"></path><path d="m427.15 281.09.05-2.3.36.09.37 1.38.55 1.19.97.83 1.74.18.18.6-1.56.09-1.33-.55-.73-.6-.6-.91z" stroke="#000" fill="none"></path></svg>