<svg xmlns="http://www.w3.org/2000/svg" width="545.893" height="333.365"><path d="M.2.2h545.493v332.965H.2z" fill="#00923f"/><path d="M.2 104.04h545.493v12.053H.2zm0 112.678h545.493v12.054H.2zm0-88.214h545.493v12.054H.2zm0 24.822h545.493v50.625H.2z" fill="#fff"/><path d="M252.469 38.986s10.354-1.262 13.132 1.01c0 0 0 5.809-8.586 10.607l-2.273.758-5.556-7.83zM231.508 30.4s-1.262-8.839 1.768-14.647c0 0 9.849 1.262 11.364 10.354 1.515 9.091-13.132 4.293-13.132 4.293zm-9.596 5.556s-12.627-1.515-15.91 4.798c0 0 2.273 7.576 13.384 6.566 11.112-1.01 2.526-11.364 2.526-11.364zM203.73 77.12s-1.769-10.355 7.323-14.395c9.091-4.04 7.576 10.606 7.576 10.606s-6.061 5.556-14.9 3.789zm38.132 62.376s2.778-11.869 8.84-12.374c0 0 6.313 5.303 2.777 14.647-3.535 9.344-11.617-2.273-11.617-2.273zm-29.294 2.778s5.556-7.576 14.647-4.545c9.091 3.03-3.03 14.9-3.03 14.9s-9.597-2.526-11.617-10.355zm10.354 21.214s-5.808 4.545-3.788 14.9c0 0 7.829 2.02 13.89-7.83 6.06-9.848-10.102-7.07-10.102-7.07zm17.425 22.981s-1.768 7.07 8.839 12.879c0 0 5.303-3.03 5.556-13.385.252-10.354-14.395.506-14.395.506zm17.425 75.761s-3.283-8.334-13.384-8.334c0 0-4.04 10.354 1.767 15.153 5.809 4.798 11.617-6.819 11.617-6.819zm-25.001 6.819s-8.081-3.789-14.395 4.545c0 0 1.768 7.829 12.122 7.576 10.354-.252 2.273-12.121 2.273-12.121zm1.01 25.506s-3.788 7.323 4.293 14.9c0 0 7.324-2.02 8.84-11.365 1.514-9.344-13.133-3.535-13.133-3.535zm21.213 4.545s-.505 9.344 7.829 13.89c0 0 5.05-4.546 6.06-13.89 1.011-9.343-13.889 0-13.889 0zm159.352-34.597s-8.081-4.546-14.395-.758c0 0 .253 7.071 7.576 10.354 7.324 3.283 6.819-9.596 6.819-9.596zm-24.749 19.95s-7.323 2.778-4.293 15.658c0 0 6.566 1.767 13.385-8.082 6.818-9.849-9.092-7.576-9.092-7.576zm13.89 18.436s-3.788 8.08 3.283 15.91c0 0 8.081-3.536 9.344-13.132 1.262-9.597-12.627-2.778-12.627-2.778zm33.587-6.314s1.768 6.819 11.112 6.566c0 0 5.808-7.323.758-14.395-5.051-7.07-11.112 4.799-11.112 4.799z" fill="red" stroke="#fff" stroke-width="2"/><path d="M287.572 80.908 278.48 66.26l-31.82-1.767s-7.07-3.536-6.06-8.334c1.01-4.798 2.272-5.556 3.535-3.788 1.263 1.768 10.102 6.313 14.142-1.515 0 0-5.808-3.283-3.535-11.87 0 0-.253-4.545-4.293-3.788-4.041.758-4.799 2.02-6.566 4.04-1.768 2.021-2.273 2.021-2.526.506-.252-1.515.505-3.283 3.03-4.293 2.526-1.01 8.334-7.576 1.768-13.132 0 0-11.616 10.354-18.182 1.768 0 0-3.536 1.515-2.273 5.05 1.263 3.536 2.525 6.566 4.798 7.829s2.525 2.778 1.01 2.778-6.06-12.88-13.637-8.334c0 0 3.283 9.597-1.768 17.93 0 0 1.263 4.293 9.597 1.263 0 0-7.829 1.515-6.819 3.283 1.01 1.768 3.283 4.293 3.283 4.293s-10.859-3.283-16.415 3.788c0 0 11.112 4.798 9.092 12.88 0 0 2.273 3.788 5.05 2.525 2.778-1.263 4.546-3.283 5.051-5.05.505-1.768 3.03.757 3.03.757s6.82 8.839 11.365 10.607c0 0-6.061.252-9.344-3.03 0 0 1.768 5.807 11.364 12.12 0 0-1.262 4.294.758 7.072 0 0 4.798-3.536 7.07-.505 0 0-.252 7.576 4.294 9.344 0 0-1.515-6.061 3.536-6.566 0 0-.505 4.545 3.788 7.828 4.293 3.283 26.769-29.041 26.769-29.041zm77.276 55.052s12.627-1.514 14.143 6.062c1.515 7.576 5.303 8.586 7.07 9.091 1.768.505 19.951 9.344 24.75 22.981 0 0 7.323.758 9.09 2.778 1.768 2.02 9.597 1.515 11.87-2.525 2.273-4.04-3.283-10.607-1.768-4.293 0 0-5.808 1.515-5.303-2.526.505-4.04.505-4.04 2.525-4.798 0 0-7.576-9.344-7.323-18.183.252-8.839-.505-13.384 6.06-23.99 6.567-10.608 8.334-41.922 8.334-46.973 0-5.05.758-41.669-11.111-40.911-11.87.757-10.102 16.162-10.102 16.162s-.505 8.587 2.526 27.274c0 0 .252 4.546 2.02 6.314 1.768 1.768 6.06 6.818 5.303 15.152-.757 8.334 0 9.344-6.818 25.001-6.819 15.658 0 26.012 0 26.012s-8.334-5.809-8.587-15.152c0 0-4.545 12.121 10.102 25.506 0 0-17.678-3.03-19.446-20.96-1.767-17.931 9.597-27.022 10.102-45.458.505-18.435-2.273-40.153-2.273-42.931 0-2.778-.252-24.496 13.89-25.001 14.142-.505 15.91.252 16.415 3.788.505 3.535 4.545 18.435 4.798 60.861 0 0 0 14.9-8.081 32.578-8.082 17.677-7.324 19.445-2.526 31.314 0 0-1.01-6.818 1.516-10.606 0 0 2.777 8.081 6.818 12.122 4.04 4.04 6.819 8.08 6.566 15.152-.252 7.071-2.778 14.395-15.91 15.657 0 0-1.515 5.809-10.354 3.283 0 0 2.778-1.262 1.768-4.04s-3.788-2.02-3.788-2.02-3.283-1.01-3.536 2.525c-.252 3.535-1.01 15.152-11.869 23.233 0 0-.253 11.617-1.768 15.91 0 0 15.152-14.394 25.76-14.142 10.606.253 11.616-6.06 11.616-6.06s4.04 5.303.505 11.616c0 0 4.04-.758 3.535-6.061 0 0 5.809 4.546 1.516 14.647 0 0 2.273-1.262 2.778-4.04 0 0 7.07 5.303 6.06 17.93-1.01 12.627-2.777 31.82 5.304 32.83 0 0-1.01 4.798-6.314 2.273 0 0 .253 6.06-6.818 6.06s-3.03 3.284-1.515 3.031c1.515-.253 8.08 1.01 8.586 4.798.505 3.788-2.525 3.03-2.525 3.03s-7.83-.757-7.83 5.304c0 6.06.506 6.819.506 6.819s-2.02 1.262-4.04 1.01c-2.021-.253-6.567-2.02-5.304-5.556s4.546-6.566 2.778-7.576c-1.768-1.01-3.536-1.516-3.788.252-.253 1.768-.253 5.809-2.526 7.071-2.272 1.263-6.818-2.778-6.818-2.778s4.04 10.86-3.283 14.143c0 0-6.566-4.041-15.91-2.778 0 0-4.293-2.02-2.778-6.314 1.515-4.293 4.546-6.818 6.314-5.808 1.767 1.01 2.02-.253 1.262-1.263-.757-1.01-2.02-1.515-2.525-.505-.505 1.01-2.02 4.546-3.283 4.546S387.072 284.2 387.072 284.2s.252-4.293 3.788-5.809c3.535-1.515 9.849-.252 10.606 1.263.758 1.515 2.526 4.798 4.294 4.546 1.767-.253 5.555 1.01 2.778-1.515-2.778-2.526-6.314-3.03-6.566-5.809-.253-2.778.505-4.545.505-4.545s6.818 2.02 8.08-7.324c0 0 1.011-3.788 4.799-3.03 3.788.757 7.576 2.777 7.071 6.06-.505 3.283-.252 3.536-2.778 5.556-2.525 2.02 0 5.556 4.546 4.798 4.546-.757 6.06-2.777 7.323-7.07 1.263-4.294-11.869-16.163-12.374-23.992 0 0 .253 3.788-2.778 6.566 0 0-1.263-3.535-3.283-3.535s-4.04 2.778-4.04 2.778l-11.87 16.162s-13.384 2.273-15.152 11.112c0 0-1.263-7.071-4.04-8.587 0 0 3.535 9.85-6.314 14.9 0 0 .252-5.05-4.04-7.829 0 0 1.767 15.405-8.334 21.971 0 0 .505-9.596-3.283-11.111-3.789-1.516-12.627-9.344-15.405-18.183 0 0-2.526 1.263-6.819.757 0 0 4.546-3.535 3.536-15.152-1.01-11.617 4.798-36.618 24.496-48.74 0 0 1.515-.757.505-3.788-1.01-3.03-2.525-2.525-2.525-2.525s-3.283 13.132-17.93 10.101l-.758-3.03s-2.273 3.03-3.536 6.06c-1.262 3.031-4.545 7.072-10.859 11.113-6.313 4.04-11.112 5.303-12.88 8.838-1.767 3.536-1.515 6.061-1.515 6.061s1.263 11.617-6.313 25.254c0 0-2.02 4.546-1.768 16.92 0 0-.505-5.05-5.808-6.818 0 0 1.515 4.545-.758 8.838 0 0-1.01-3.535-2.778-3.535 0 0-5.808 12.627-14.647 17.173 0 0-1.01-6.314-5.556-9.092-4.545-2.778-4.545-1.01-2.02 1.01s6.566 5.556 2.778 9.092c-3.788 3.535-5.05 5.05-5.05 5.05s-4.041-10.354-15.658-2.525c0 0-4.293 1.768-2.273-4.04 2.02-5.809 2.273-6.314 4.798-7.83 2.526-1.514 1.263-3.282.253-2.777-1.01.505-1.768 2.778-3.536 2.02-1.768-.757-3.03-1.01-3.03-1.01s2.525 6.566 1.01 11.87l-6.566.504s-1.768-7.828-13.89-3.283c0 0-3.283-4.04 1.01-8.08 4.294-4.041 2.778-3.284 5.809-4.547 3.03-1.262 1.768-2.525 0-1.262-1.768 1.262-4.293 3.535-7.324 2.273-3.03-1.263-3.03-3.788-3.283-5.304 0 0 5.556-4.798 1.515-12.88 0 0 1.01-3.535 4.546-3.03 3.536.506 6.314.506 8.081 4.041 1.768 3.536 2.778 2.02 3.03 5.05.253 3.031 5.304 3.031 5.304 3.031s.758-2.02-.758-1.768c-1.515.253-6.566-.505-6.313-10.101 0 0 8.586 3.536 12.374-5.808 0 0 4.294-2.02 6.819 2.272 2.525 4.294-1.768 11.365-1.768 11.365s-1.768 3.03.253 1.515c2.02-1.515 1.767-3.283 4.545-2.778 2.778.505 3.03 4.798 3.03 4.798s.758 1.768 3.536-.252 4.041-1.768 6.061-5.556c0 0 1.263-2.02-.757-5.051-2.02-3.03-2.273-11.617-2.273-11.617s-1.768 2.526-4.546 2.778c0 0 .758-8.081-1.768-15.91 0 0-7.323 7.829-19.445 8.082 0 0 4.04-4.546 4.293-9.344.253-4.799-3.03-15.658 4.798-24.244 0 0-12.374-6.313 0-18.435 0 0 .253 10.101 5.556 7.07 0 0-3.535-5.303-.757-9.09 0 0 1.515 7.07 6.06 5.303 4.546-1.768 3.789-4.293 10.102-8.334 6.313-4.04 11.617-8.081 25.001-11.364 0 0 6.061-1.516 22.224 0 0 0 1.767 1.262 2.525-.758s-.253-4.293 6.819-4.546c7.07-.252 19.95 1.01 22.98 5.051 3.03 4.04 4.546 5.303 4.294 8.334 0 0-1.263-10.102-5.556-16.163 0 0 8.081 1.01 14.394 17.426 0 0-2.777-20.203-22.223-22.981 0 0-1.768-.505-4.04 1.01-2.273 1.515-2.526 1.768-6.819 2.02-4.293.253-25.506-9.596-25.506-9.596s-6.061 4.04 1.262 6.566c0 0-3.03 6.06-15.657-.758 0 0-1.01 4.04 4.04 4.293 0 0-2.272 5.556-10.354 1.768 0 0-3.535.505-2.777 5.808 0 0-5.051 1.263-6.566-3.535 0 0-2.778 4.798-14.143 3.03 0 0 3.536-1.01 6.819-7.07 0 0-7.071 5.302-18.183 6.313 0 0-1.262 0-.252 2.525s2.02 7.071-3.283 9.596c0 0-5.556-5.555-13.385 1.01 0 0-3.788 1.01-3.788-1.262 0-2.273-.252-8.839 1.515-10.354 1.768-1.515 5.051-4.546 5.051-4.546s-.758-1.768-2.778-.252c-2.02 1.515-4.04-.253-4.04-.253s2.777-3.283 2.272-7.576c0 0-1.767 6.818-6.06 9.091 0 0-2.02-8.586-12.122-9.091-10.102-.505 2.273-8.586 4.04-9.091 1.768-.506 5.809 1.262 6.314-.253.505-1.515 1.767-1.768-.253-1.768s-11.617 4.798-13.637-2.778c0 0 10.354-3.788 7.071-15.657 0 0-.757-1.263 1.515-1.768 2.273-.505 9.597-.505 9.85 5.304.252 5.808 0 7.576 2.02 7.828 2.02.253 2.273-1.515 1.262-2.778-1.01-1.262-2.02-9.849 2.02-9.849 4.041 0 5.051 4.799 12.88 3.283 7.829-1.515 2.526 11.617-2.273 12.627-4.798 1.01-3.535 4.04-.757 5.809 2.778 1.767 7.576 2.272 10.101-1.01 2.526-3.284 13.89-19.193 13.89-19.193l10.606-3.789z" stroke="#fff" stroke-width="2"/><path d="M272.925 39.491s23.486-10.606 32.324-2.525c8.84 8.081 18.183 16.667 28.537 16.415 10.354-.253 13.89 2.273 14.9 4.04 1.01 1.768 3.03 5.556 3.03 5.556l-3.788 2.02s-4.798-7.323-9.849-7.07c-5.05.252-12.88 3.535-18.687 3.03-5.809-.505-12.627-1.01-22.476-12.88-9.85-11.869-23.991-8.586-23.991-8.586z" fill="red" stroke="#fff" stroke-width="2"/><path d="M386.188 30.2s6.786-6.07 12.143-3.57c0 0 6.072 46.785-7.5 76.785 0 0-3.214 7.5 2.5 7.5 0 0-2.143 6.428-9.285 6.786 0 0-.358 2.857 2.142 3.928 0 0-.714 5.357-10.357 6.072 0 0 .357 4.285 2.143 5.357 0 0-1.428 3.928-14.643 2.857 0 0-1.785 4.643.357 7.5 0 0-6.428 1.786-9.285-1.429 0 0-3.215.357-6.429 8.215 0 0-6.428-1.072-10.714-3.929 0 0-3.929 2.143-5.714 7.857 0 0-8.215-2.5-13.215-7.5 0 0-3.928 1.786-2.857 7.143 0 0-6.428-.357-10.714-6.786 0 0-8.214.357-10.714 4.286 0 0-6.429-2.143-6.072-10.714 0 0-5 .357-9.286 5.714 0 0-3.571-3.571-3.928-12.857 0 0-3.572-3.929-7.5 2.143 0 0-5.714-4.286-3.214-15.357 0 0-5.358-1.072-7.5 2.142 0 0-3.215-15 8.928-22.142 0 0-1.071-2.5-2.857-1.072 0 0 .357-12.857 13.214-13.571 0 0-2.5-3.929-.714-9.286 0 0 8.571 3.214 17.5-1.786s25-10.714 35-5.714 9.286 5 9.286 5-7.143-8.214 0-15c0 0 2.857.357 2.857 1.786 0 1.428-.714 8.214 3.571 7.5 4.286-.715 6.429-5.357 6.072-10.715-.357-5.357-1.786-12.5-4.643-12.5-2.857 0-2.857 2.858-3.572 5.358-.714 2.5-4.285 2.142-4.285 2.142l-.357-3.928s-5.715-3.214-5.715-6.786c0-3.571 2.143-7.5 2.143-7.5s-5-.714-3.928-3.214c1.071-2.5 1.785-3.929 5.357-3.572 3.571.358 5.714-.714 5.714-.714l8.929-.357s-1.429-6.071 3.571-5.714c5 .357 18.929.714 18.929.714s11.071.714 14.642 8.929z" stroke="#fff" stroke-width="2"/><path d="M349.403 26.272s5.357 3.571 8.214 2.5c2.857-1.071 8.929-1.786 8.214 6.786 0 0-3.571 1.428-3.571-1.429s-5.714-1.428-6.786-2.857c-1.071-1.429-6.071-5-6.071-5zm11.071 16.071s-8.571-1.428-6.071 5c2.5 6.429 6.785 23.215 3.214 24.286-3.571 1.072-13.571-.357-15.714 1.072-2.143 1.428-5 1.428-5 1.428s4.285 2.857 11.785 2.5c7.5-.357 14.286-1.071 14.286-5 0-3.928 0-12.143-2.857-15.357-2.857-3.214-2.5-14.286.357-13.929zm35-7.857s-4.286 5-9.643 6.786c-5.357 1.786 6.786 3.214 9.643-6.786zm3.036-1.071s-1.607 6.964-5.536 11.071c-3.928 4.107 7.679-.893 5.536-11.071zM293.38 83.18s6.061 1.516 2.525 4.294c-3.535 2.778-9.343 5.303-9.343 13.384 0 0 7.07-8.334 13.637-11.617 6.566-3.283 4.798-5.808 2.272-6.06-2.525-.253-5.808-2.273-9.09 0zm14.142 39.649s7.576-9.344 8.587-12.88c1.01-3.535 3.283 7.072 2.272 9.597-1.01 2.525 7.577-10.354 8.84-16.415 1.262-6.061 4.04 6.313 4.04 7.576s3.283-6.06 1.515-17.678c0 0 31.062 1.263 47.982-20.96 0 0-7.07 25.001-43.689 23.99 0 0 2.273 15.658-6.818 21.972l-2.526-5.809s-4.798 12.627-13.637 14.9c0 0 1.263-8.334.253-10.354-1.01-2.02 1.515 2.273-6.819 6.06zm94.45 85.105s-5.304 4.293-11.365 5.809c0 0-7.323 29.547-12.627 39.396 0 0 12.627-20.961 15.153-37.376 0 0 2.778-.253 8.839-7.829z" fill="#fff"/><path d="M361.565 184.196s5.051 11.111-6.566 25.506" fill="none" stroke="#fff" stroke-width="2"/></svg>