<svg xmlns="http://www.w3.org/2000/svg" width="750" height="500"><path fill="#ff0" d="M0 0h750v500H0z"/><path d="M499.651 312.375c-10.389 14.16-22.481 26.543-50.806 21.987-12.485 13.816-23.66 17.142-34.168 15.152 6.497 6.537 16.247 5.212 27.483.297-7.405 8.943-15.77 17.126-30.603 20.204 4.422 8.034 26.927 7.968 42.933-15.598-12.537 27.072-8.489 48.736-3.12 69.97.416-26.715 4.151-46.658 16.787-65.81-1.682 7.215-2.47 15.921-2.971 25.105 3.33-10.944 6.735-21.589 10.845-29.414-.857 8.753.099 18.956 1.188 29.266 1.2-12.253 2.065-24.308 9.805-40.408-4.282 1.106-7.55 1.217-10.25-.445 16.214-11.095 19.913-20.77 22.877-30.306zm-50.6-104.184c77.662.833 86.676 123.314 34.036 133.618 12.8-11.648 19.391-23.93 20.588-36.766-32.286 45.271-69.943 22.963-72.06 15.127 68.117 16.369 68.323-58.286 32.984-85.717-3.829-9.531-11.065-13.555-18.909-16.598 6.287-.455 14.826 1.168 28.993 7.984-6.624-11.641-15.972-15.11-25.631-17.648zm-10.263-2.772c18.486-8.15 48.88-7.573 67.724 5.103 33.163 22.31 40.628 55.87 33.486 115.009-3.717 30.783-21.005 39.423-17.068 112.722-11.121-22.856-15.63-45.85-10.01-67.031-11.353 9.766-20.41 21.991-23.95 40.127-18.085-26.891 33.058-59.248 33.156-108.48-.364-48.553-21.69-103.271-83.338-97.45zm-6.507-20.506c2.862-2.327 5.718-4.673 8.096-8.356 2.671-.447 9.198-.181 14.596.632-.302 2.06-2.302 3.838-3.677 5.719-6.274 1.318-12.646 1.652-19.015 2.005zm18.198-22.134c4.456-4.529 6.634-10.072 9.582-15.543 3.116-.372 8.628-.526 12.701-.056-2.902 5.67-7.539 11.34-12.181 17.01-2.685-.536-7.532-1.625-10.102-1.411zm-80.632 61.59c6.183-8.36 12.866-15.592 20.17-21.43 1.413-14.8 9.16-27.814 15.126-36.03-19.439 15.06-30.512 33.76-35.296 57.46zm41.71-109.277c23.173-9.106 43.417-9.427 62.245-5.497 22.375-9.794 35.714-21.51 47.538-32.237-17.278 9.565-33.617 8.972-48.726 14.262 20.117-14.938 34.298-32.112 37.733-53.332-7.104 9.21-13.726 19.286-22.135 26.146 1.007-1.26 1.351-3.34 1.634-5.497-15.058 17.809-45.743 32.378-78.29 56.155zM284.016 93.164c6.353-1.426-1.872-7.943-1.539-1.539-2.264-.904-.942-3.74-2.07-4.112-3.533-.715-5.078 1.155-4.827 5.359-1.796 1.061-1.923 1.87-.239 2.573-.023 1.795.642 2.574 1.963 2.388.274 2.942 1.238 5.134 3.37 5.889.468.239-.311 3.564.132 4.191 2.662-.414 4.48-2.359 4.88-6.87 2.713 1.478 6.647 2.182 7.243-.902-3.308-.128-5.105-.797-5.774-2.035-.934-1.726.888-3.412.167-4.528-1.338.897-3.24.652-3.306-.414zm-13.433 17.781c8.622.42 11.517-5.023 4.727-10.204-1.835.958-2.386 1.88-5.4 2.27-1.324.171-4.266-.278-6.08.206-1.358.407-2.662 1.123-4.164 2.626 1.034 1.384 3.221 1.529 4.797 2.215 2.34 1.019 5.051.252 8.446-1.09-.045 2.735-1.174 1.753-2.326 3.977zM350.4 411.552c-.78 1.96-2.249 4.697-3.317 6.467 5.33 1.061 17.185.422 18.09-2.765-7.423-.602-11.59-1.619-14.773-3.702zm-2.624-40.299c-.08 0-.158.006-.237.014-1.52 6.652-8.923 31.3-14.207 41.322-4.751 8.954-7.904 8.761-10.203 13.183-.444 1.108-2.821 5.272-2.928 6.447-.468 1.67-1.096 4.92-6.092 4.964-7.946.012-19.385-.24-21.39 2.468-1.451.444-3.074.683-3.65.539-1.705-.428-5.507.915-6.737 2.376-1.116 1.328-1.464 3.547-.604 3.834.35.117.328.583-.078 1.707-.46 1.98-.257 4.68 1.378 5.949.561-.672.58-1.32.84-2.35.361-1.422 1.69-2.703 2.587-2.68.085.034-.12.526-.288.972-.35 1.511.878 1.802 1.89 1.484 1.033-.333 2.276-1.214 5.686-3.348 1.475-.923 3.259-2.01 5.45-1.09 5.33 1.984 14.63-3.218 19.039-2.18-1.808 3.594-6.36 7.709-6.946 8.141-5.477 3.17-13.577 6.612-7.774 13.262.187 3.135 2.482 5.233 5.069 5.673-.41-3.142-.477-5.109 1.181-6.382-.035.285-.719 1.024.998 1.103 3.276.279 2.963-3.33 2.994-6.565 7.028-4.42 9.235-10.743 14.365-16.663.367-.347 1.257.122.775.67-1.011 1.538-2.717 4.232-2.285 6.263.615.007 2.5-.033 2.941.709 1.065-1.435 2.807-3.226 5.542-3.06.38-.01 1.278-.693 1.995-1.51 1.02-1.162 1.313-1.874 1.313-3.269 0-1.588-.526-2.793-1.168-3.309-.106-.185.036-.54.407-.67 3.183 1.463 4.999 4.704 6.815 7.944.652 4.083 3.01 6.768 6.657 7.577.977.217 1.852-.295 2.285-.079.84 1.519 1.985 3.722 1.772 6.053 2.865-.57 4.156-3.833 3.178-6.329-.38-.91-.47-1.718-.25-2.114.476-.849-.227-3.886-1.129-4.884-.757-.838-4.363-2.797-5.147-2.797-5.356-2.73-7.037-9.034-9.717-14.326-.208-.37-1.14.14-1.326.565-.488 1.209-.224-1.73.315-3.506 5.136-13.213 13.743-26.768 20.826-39.103 2.885-2.955 8.598-4.369 8.114-9.113-5.198-1.133-8.353-1.215-11.069.026-2.366 1.081-4.065 4.477-5.751 8.128.832-3.02 3.463-7.707 2.337-9.769-2.122-2.755-5.299-6.271-7.773-6.276zm-82.224-44.342c-.626-.107-2.395.128-4.15.066-3.666-.13-5.518-.188-6.542-.092-12.875-1.742-33.7-7.051-46.265-10.8-2.18-.73-4.246-1.576-6.097-2.62-1.406-.828-3.466-1.846-4.583-2.258-.904-.334-1.465-.513-2.048-.538-.583-.026-1.293-.153-2.154.354-1.194.703-3.377 1.302-4.845.473-3.696-.144-7.564 2.138-9.874 3.952-4.407 3.365-7.847 4.739-18.33 7.314-5.167 1.06-12.294 3.802-14.05 6.42-.899 1.283-.824 2.944.197 4.242.696.576 1.526 1.66 1.326 2.469.583 1.69 2.46 4.11 3.177 4.11.344 0 .526-.655.526-1.904 0-2.512.95-4.391 2.074-4.097.741.194 2.752-.791 7.537-3.69.605-.366 2.173-.79 3.493-.945 4.515-.528 11.308-3.13 16.177-6.185.51-.32 1.06-.45 1.221-.289.465.465-1.847 3.552-5.764 7.682-5.59 5.572-3.965 6.43-6.066 6.933-3.024 2.08-3.84 4.621-2.495 7.839.655 1.568 1.427 2.26 3.991 3.637.81.434 1.58.975 1.72 1.195.298.467 3.743.998 3.743.578 0-.157-.473-1.174-1.05-2.259-1.149-2.157-1.344-3.446-.526-3.466.289-.007.832-.427 1.208-.946.716-.987 2.889-6.153 2.889-6.867 0-.36 1.54-2.309 4.78-6.04.501-.578 1.733-2.233 2.744-3.677 1.93-2.885 3.197-3.577 2.455-1.667-3.175 5.741 10.5 3.07 11.568-.408 1.601 2.379 1.322 7.217 1.353 9.323.09 8.075 1.53 11.237 5.777 12.645 2.488.825 3.224 1.548 3.244 3.217.009.756.231 1.156.656 1.156.892 0 2.71-1.888 2.705-2.81-.006-1.116-1.982-5.174-2.521-5.174-.255 0-.329-.204-.17-.46.2-.324.39-.292.643.106.294.464.37.447.367-.066-.005-.926-1.48-4-2.665-5.567-1.556-2.057-2.083-4.619-1.747-8.483.16-1.838.554-3.722.88-4.189.412-.587.54-.76.592-.45.158 1.059.312 2.187.55 3.418.106.105 2.797.84 5.975 1.641 3.582.902 5.198 1.026 6.282 1.195 1.09-.125 2.386-.424 3.072-.525.435.559.667 1.33.914 1.89.796 1.8 2.127 9.82 2.127 12.843v1.3l.985-1.064c1.194-1.288 2.959-9.65 2.731-12.934-.08-1.152-.092-2.1-.026-2.1.827 1.315 1.691 2.586 1.725 4.26 8.385 1.758 18.032 5.527 26.611 9.028 3.872 1.962 13.936 5.396 14.825 5.055.818-.314.273-1.948-1.143-3.414-1.275-1.321-2.528-4.835-2.337-6.552.078-.7-.09-1.02-.551-1.025-.37-.004-1.39-.545-2.259-1.208-1.023-.853-3.966-7.082-4.582-9.572zm275.532-18.764c-.086.032-.145.26-.131.591.02.49.128.585.262.25.122-.304.1-.662-.04-.801-.034-.035-.063-.05-.091-.04zm-238.19 21.312-5.22-4.258c-2.645-4.233-4.99-9.498-7.817-12.724-.795-.469-4.418-.268-5.53-.43-3.246-.473-8.886-2.68-12.685-4.95-1.96-1.172-3.124-1.745-3.86-1.72-.736.025-1.053.657-1.326 1.904-.466 2.125-.005 4.592 2.022 10.767.537 2.477 3.439 6.427.341 7.445-1.806.812-1.403 3.21 1.405 7.077 1.734 1.864 3.097 2.554 4.714 3.44 1.384.716 1.587 1.696.814 3.914-.61 1.751.474 4.011 2.587 5.41.867.573 1.792 1.57 2.061 2.219.706 1.702 2.47 3.202 4.57 3.9 2.802.93 5.208.24 11.108-3.218 2.029-1.188 5.849-2.14 10.177-2.534 4.354-.396 7.27-1.11 7.55-1.838-.08-6.661-6.605-11.325-10.912-14.404zm67.08-41.542c-.38 3.283-3.089 14.498-5.323 15.984.227.48 1.564.568 2.337-.12.631-.563 2.233-1.254 3.042-.952 4.437-1.79 1.601-14.44-.056-14.912zm-4.49 29.469c1.96-.547 3.716-1.72 4.712-2.617 1.725-1.553 1.57-5.417 1.62-9.26-3.318.105-9.072 1.377-9.287-.287-2.86 2.28-7.564 4.96-10.201 4.588 1.666-1.362 4.236-6.498 4.4-8.1-5.404 5.242-12.35 10.197-19.117 9.037-1.648-.33-1.675-.97-.066-2.048 1.62-1.085 1.946-1.89.749-1.89-.766 0-.331-.359 1.838-2.837 4.575-5.227 6.563-8.76 6.53-10.574-12.671 1.525-25.174-1.993-38.158-7.443-10.046 4.497-21.85 1.71-24.376 1.307 3.317 7.79 25.738 11.88 38.31 14.88-2.069.996-12.937.021-14.405-.393 1.446 4.41 14.632 7.241 16.772 9.917 5.966 5.614 25.2 7.26 40.679 5.72zm10.875 21.858c-6.782 4.303-10.606 7.871-17.581 7.061 2.756-1.696 7.273-8.495 8.154-11.44-2.482.095-5.263-.146-6.614-.728 1.02-.377 4.428-.775 4.876-1.01 1.638-1.111 8.223-7.651 5.776-14.618-30.337 4.038-33.761-.785-44.693-3.807-9.756 3.986-19.895-2.026-26.995-1.368-1.846.312-3.742 1.622-3.742 2.587 0 .905 2.922 6.432 5.87 8.64 11.67 8.675 14.339 17.576 22.072 22.887 9.764 5.643 20.537 11.01 23.53 19.184 1.714 2.66 7.211 6.74 10.423 9.025 1.747.73 3.727.68 5.636.048 2.545-.419 3.857.442 6.33 1.247 5.062-1.572 6.817-8.031 5.711-12.198-1.265-3.307-3.798-8.008-2.206-9.638 2.951-2.901 3.108-12.862 3.453-15.872zm-50.356-61.534a.492.492 0 0 0-.157.027c-3.893 2.76-10.411 5.455-13.499 7.287 8.7 4.356 18.874 8.356 32.491 6.427 2.747-2.504 3.92-7.074 3.949-9.906-10.203.093-19.933-2.274-22.784-3.834zm65.575-3.066c1.83 7.048 3.09 14.724 6.365 20.948 4.3 7.983 18.49 21.547 25.003 18.978-18.058-14.582-23.06-33.934-28.027-40.968-.995.517-2.126.887-3.34 1.042zm-41.756-1.66c-1.371 1.845-2.659 3.72-3.586 5.622.624.027 2.508-.16 3.155-.29.238-1.899.32-3.383.431-5.333zm-15.773-2.995c-1.125 1.319-4.107 3.987-5.898 5.804 3.872 2.829 9.208 2.757 13.399 2.653 1.055-1.629 1.997-6.942 1.799-8.21-3.576.105-6.344-.103-9.3-.247zm7.501-14.26c-3.186 3.617-5.301 4.63-8.095 6.465-.847.705-.418 1.085 1.12.98a9.524 9.524 0 0 0 3.07-.703c.027 2.101-1.239 4.383-1.767 5.982 2.848.437 5.561.382 6.854-.078.5-2.875 1.338-10.74-1.182-12.645zm41.388 0c2.012 3.519 3.854 7.174 5.672 11.004 2.326 5.232 5.007 5.212 7.892 2.298 6.004-6.48 18.85-2.418 18.654 10.424-.022.846-2.944 3.023-4.554 3.634 8.615 3.816 12.424-5.369 16.442-9.895 1.76 6.217-1.537 7.793-3.999 11.944 7.855-2.632 9.59-8.53 11.549-13.192 6.556 19.493-1.406 22.553-8.715 25.527 13.688 3.71 24.914-6.676 27.925-10.508-1.85 7.165-5.18 13.489-10.839 16.716 8.935.092 17.248-12.616 17.38-14.864 2.149 10.845 4.589 22.546-2.904 29.796-.997.919-1.812 1.753-1.812 1.864 16.14-5.01 18.794-10.328 17.504-22.875 1.444 1.724 2.013 4.006 2.434 9.167 9.01-8.182 4.269-20.433 1.426-29.584 3.997 4.288 6.221 11.912 6.632 13.868 4.67-20.042-7.047-47.135-22.815-55.938-24.182-13.502-60.688-4.947-77.872 20.615zm18.883 26.13c-1.53-2.195-3.557-6.898-5.226-10.136 6.7-4.899 12.247-3.167 16.204 3.072.565 1.222-7.778 3.621-10.978 7.064zm22.702-71.39c-13.442 3.738-32.595 12.137-48.308 35.295.606 1.148 4.144 5.785 5.125 7.661 14.68-21.657 52.005-34.366 79.887-21.57-3.127-6.81-20.476-14.19-22.789-14.734 11.523-3.874 21.796.909 29.494 3.457-12.001-10.741-29.66-14.062-43.41-10.11zm-120.38-8.97c19.5 6.81 44.296 32.388 29.634 57.986 3.911-.09 6.638-5.605 8.544-8.924 3.408 6.779 3.792 20.853 1.551 26.938 4.234-2.216 5.632-7.26 7.164-11.312.471-.006.47 11.46-.295 17.721-.58 4.627-3.164 18.55-11.12 24.44 5.682 3.241 16.569-10.736 18.907-12.648.101 3.98-.431 6.988-1.773 10.399 5.322 3.136 12.846-20.084 12.92-27.26 11.534 28.72 2.226 60.011-5.904 65.428 6.595.968 14.505-12.853 17.488-16.66.83 6.06-1.248 11.397-2.7 16.022 6.356-1.823 7.969-18.878 8.47-23.692.7 15.479.483 44.961 8.029 58.407-3.823-22.586.836-32.123 1.053-49.93 2.096 4.917 9.791 12.657 12.109 13.23-5.213-10.696-11.032-21.207-10.831-28.009 12.579 19.954 23.312 17.45 22.906 14.407-9.9-.218-17.985-18.557-22.178-25.646-4.283-11.016-5.73-28.081-23.82-54.124-1.956-3.834-12.794-15.34-16.88-18.355-1.525-1.126-1.965-.988-3.655-2.989-7.818-12.484-37.379-28.681-49.62-25.428zm-25.226.342c-.278.247-.441 1.189-.957 1.125-1.804-.452-4.959.105-6.12 1.685-.426 2.033 1.46 2.065 2.373 3.129-.748 5.145-12.706 6.955-14.546 7.231-9.627 1.394-13.98 4.055-17.356 7.42-4.353 4.34-4.766 14.703-.62 19.787 2.422 4.33 6.919 8.338 9.869 11.97-.306.576-1.578 1.538-1.175 1.922 17.026 21.472 28.808 28.65 43.474 30.976 3.34.426 11.019-.456 11.093-2.805-2.032.124-8.616-3.295-8.584-5.19 10.053 5.416 20.19 2.585 27.009-2.853-4.964-.146-10.711-2.576-11.03-3.977 12.213 2.452 17.931-.073 22.873-7.084-1.897.165-6.952.099-7.162-.525 6.626-7.387 8.847-17.911 7.728-26.242-.883-5.72-5.21-14.428-9.849-19.814-3.45-4.232-21.019-17.953-24.207-16.169.11.941.353 2.359-.346 2.499-4.486-5.011-16.704-7.052-22.467-3.085zm88.87 32.59c.416.854 6.055 8.161 6.734 8.746 15.15-19.612 30.697-32.955 55.293-36.57.943-.146 2.507-1.186 3.795-2.06 10.838-6.726 21.16-7.794 31.461-7.262 1.878.117 7.353.162 10.152.425 11.875 1.115 24.837 6.562 31.998 9.03-46.168-41.356-123.72-13.352-139.433 27.69zm-69.111-68.57c-7.963 6.099-17.683 17.022-20.553 25.592-4.088-6.211-1.398-11.094.899-15.164-7.62 2.247-11.417 12.067-9.428 19.276 1.613 2.115 3.733 3.906 5.972 5.432 6.859-3.744 14.334-4.41 20.073-1.413 2.06-.331 4.97-.819 6.546-.654-.902-2.69-4.757-3.008-5.93-6.029 1.055-.298 2.99.988 4.566.42-4.123-7.036-1.485-19.9-2.145-27.46zm95.134 35.875c9.419-6.517 18.909-12.121 32.407-15.258 4.062-2.988 6.912-5.168 10.924-9.585-1.786-1.11-3.844-.374-5.75-1.173 21.465-4.13 53.201 5.335 63.149 13.936-10.084-18.839-39.135-26.472-54.764-25.462 1.728-1.07 3.713-1.486 7.206-1.7 4.443-4.727 8.147-9.756 10.62-15.241-29.328.615-63.166 18.617-63.792 54.483zm-130.947 71.58c-2.49-3.1-5.328-4.559-7.88-8.03-2.158-2.534-6-6.415-6.083-9.11 0-.87-1.909-4.316-3.138-5.672-1.62-1.787-5.53-7.25-6.644-9.284-.583-1.063-1.397-3.28-1.8-4.937-.721-2.97-.673-4.034.261-7.239 1.407-4.823 3.165-6.962 5.307-9.358 2.804-3.137 4.046-4.01 11.41-4.753 2.884-.292 5.75-.869 6.75-1.182 3.072-1.27 7.317-2.518 9.163-4.917-1.607.35-4.545.163-5.37-.106 3.732-2.15 8.506-5.766 4.676-9.96-.948-1.004-1.99-1.84-2.15-2.246-.426-2.169-.8-4.215-1.677-5.997-.885 1.853-1.556 3.634-2.282 5.513l-.561-2.259c-.337-.809-.697-3.091-.814-5.081-.3-5.078.623-8.863 3.69-15.048 2.558-5.098 3.596-6.873 8.123-11.66-5.738 1.715-10.988 2.066-16.396.893-1.817-.421-4.15-1.113-5.187-1.55-2.228-.938-6.25-3.296-8.032-5.128 9.655-.832 19.972-1.12 25.183-6.768-3.078-.163-6.483-.84-9.143-2.705 6.234-1.756 18.872-7.425 20.67-13.112-2.055.643-3.142.864-4.825 1.086-1.185.15-3.076.096-6.22.184-10.556.227-10.537-2.796-12.95-4.232-.337 0-3.176 1.303-6.022 2.773-18.866 9.742-28.053 16.338-33.733 24.226-6.29 9.697-7.595 18.095-6.943 24.813-1.603 3.515-2.701 8.24-3.758 13.082-3.827 13.715-3.779 21.702.184 29.74.512 1.04 1.246 2.852 1.628 4.019.381 1.166 1.554 3.624 2.613 5.462a731.976 731.976 0 0 1 3.768 6.631c2.154 3.85 7.296 10.906 9.166 12.58.717.642 2.76 2.019 4.53 3.046 1.77 1.027 3.282 2.02 3.361 2.219.08.198 2.224 2 4.766 4.005 5.274 4.158 10.718 7.103 16.808 9.086 2.33.828 5.53 1.093 6.215 3.402.685-1.444 2.097-2.473 3.336-2.427zm-35.813-15.031c2.14 14.424 23.879 37.518 47.55 47.623 3.532.776 6.29 4.801 10.834 4.46 1.643-.384 7.935.831 10.946.629 4.312.03 5.601.241 11.976 1.917 7.389 1.942 7.07 1.906 13.656 1.274 1.97-.322 2.089-1.776 1.056-2.372-.87-.654-2.93-1.592-7.78-3.747a2680.27 2680.27 0 0 1-6.722-2.994c-1.264-.569-2.379-1.527-3.362-2.902-.987-1.382-1.954-2.224-2.941-2.547-14.397-5.208-27.548-14.77-37.39-23.704-15.009 3.435-33.928-16.34-37.823-17.637zm166.694-124.71c-1.173 2.234-1.873 4.07-2.52 4.065-.514-1.282-.232-2.168-.257-3.47-18.735 16.046-29.861 43.922-28.245 57.286-.647.1-1.597-.092-1.728-.37-3.065 10.721-2.371 19.027-.326 28.18-.98 1.778-2.87 3.949-3.4 6.183 2.077 2.898 4.195 4.272 7.064 6.107 2.22-4.06 3.19-5.486 4.371-8.09 3.536-27.784 22.64-53.81 48.756-67.464 14.008-7.256 21.442-8.586 42.083-11.027 3.595-.352 9.265-.701 14.076-.186 7.016.748 16.693 2.86 23.61 5.16 30.77 11.496 36.25 36.14 30.463 57.21 23.357-18.95 3.257-60.25-14.47-68.7 2.746-.249 8.455 3.607 10.418 4.987-31.148-51.625-118.334-35.88-129.895-9.871zm-119.337-20.598c-3.489-.42-7.406-.183-10.131.547-5.342 1.648-14.91 4.405-12.75 17.687.985-.884 5.205-1.61 5.686-1.414.03-10.506 11.687-11.323 17.195-16.82zm-9.777 7.375c-3.36 2.607-4.238 3.723-4.74 6.027-.837 3.842 1.637 6.42 6.237 6.513 3.585-.156 4.982 1.303 7.656.998 2.732-.387 8.743-6.254 9.31-9.086.43-2.154.054-4.836-.652-7.843-.314-1.283-.494-6.063-.288-7.63-.768.076-1.722-.14-2.527-.744-1.562 2.808-5.502 5.74-7.564 6.946m172.669-10.78c.146-.007.321.031.473.092.335.134.227.23-.263.25-.443.018-.691-.084-.551-.224.07-.07.195-.112.34-.118zm-148.18-8.876c-2.017 4.403-1.857 8.678-7.143 8.115-7.45 1.001-5.207 14.04-5.042 15.835.346 3.4-.7 8.444-2.692 11.174 1.549.4 3.121-.101 4.193-.844-2.275 9.743-14.47 15.881-17.901 16.813 2.053.235 5.576.345 8.068-.666-5.644 8.834-18.724 11.193-25.393 12.57 10.637 4.441 24.072-.054 28.94-2.343-4.773 8.095-15.248 18.615-15.87 31.91 6.765-9.22 11.19-13.929 19.63-16.961.07 2.097-6.478 11.795-4.927 15.614 6.383-15.591 16.49-16.862 23.77-30.08.229-.414.638-1.325.68-1.187-.796 4.294-4.795 24.904-1.161 30.417.31-6.459 1.658-11.973 4.98-15.854-.61 7.322-.82 18.966 3.592 23.082-2.04-9.481-.022-18.023 2.096-22.044.854-1.62 4.992-12.794 6.095-16.516.548-1.848 1.288-5.346 1.654-7.773 1.435-9.818 4.322-25.496.158-32.46-1.008-1.975-3.96-6.102-4.963-6.945-4.805-4.435-12.347-5.768-16.992-10.387-.892-.803-1.688-1.47-1.772-1.47zm-6.316-15.678c-5.787.226-10.682 2.984-8.51 7.254 6.95-3.228 7.41 1.835 6.894 5.055 1.426 1.494.841 3.56.507 5.203 5.26 1.064 6.051-1.383 6.532-5.016 8.702 9.498 20.414 10.399 25.54 18.612-.609-15.856-12.658-31.35-30.963-31.108zM266.83 91.854c.736-1.493 3.963-1.052 3.697.174-.015.413.74 1.042 1.758.684.95-.334 1.086-.727 1.429-2.231.071-2.455.598-3.606 1.847-4.275-.033-3.93 2.185-9.497 4.462-10.511-.358 1.354-2.841 6.905-1.015 9.42 1.66-6.004 6.91-5.863 14.534-7.545 1.132-.305 9.026-2.64 13.82-4.94-1.18 1.274-6.394 3.702-6.794 3.932-2.888 1.658-2.691 2.459 1.024 4.214 18.609 3.139 37.2-13.148 31.593-28.598-1.804-2.983-6.795-13.122-6.776-15.153-.015-.924-.897-1.406-1.93-1.786-8.333-1.268-14.32 7.46-15.927 13.735-.518 2.183-.568 3.207-1.458 2.421-3.478-5.566-.042-12.978-.715-15.374-.363-.945-1.118-.763-3.67.65-4.8 2.655-7.936 6.79-9.758 14.267-.626 2.572-.622 6.292-1.561 6.384-.898.3-1.313-3.003-1.313-7.81 0-5.132-.734-6.312-2.233-6.83-1.186.3-1.674.39-3.468 2.667-3.755 4.764-5.644 9.545-5.644 13.21 0 4.284-1.004 4.938-3.502 2.126-.767-.807-3.089-3.177-3.767-3.24-.973 0-2.997 2.795-4.956 6.472-1.02 1.916-2.744 4.552-3.834 5.856-4.262 4.62-5.39 8.18-5.32 9.236-.011 7.51 2.128 7.486 2.787 12.337.693 3.485 5.427 2.919 6.69.508zm2.945 9.487c3.65-.343 4.187-1.08 3.282-3.121 1.72-4.482-2.058-1.196-2.652-2.87-.188-1.55-.8-2.415-1.744-2.415-.674 0-1.467.74-1.61.973-.563.81-2.346 2.21-3.466 1.292-.347-.274-1.008-.446-1.569-.269-3.447 1.324-8.002 9.564-4.838 12.741 3.313-4.977 6.8-5.722 12.597-6.331zm88.301 112.69c.83 1.511 1.3 3.428 1.337 5.83-1.54 1.87-2.962 3.21-4.79 4.606-.934.416-1.513-.745-1.263-1.449 1.58-2.813 3.407-5.705 4.716-8.987z" fill="red"/></svg>