<svg xmlns="http://www.w3.org/2000/svg" width="600.51" height="531.59" xmlns:xlink="http://www.w3.org/1999/xlink"><g transform="translate(.5 .202)"><path stroke="#000" stroke-width="1.004" fill="#ff0" d="M.002.299h599.51v530.59H.002z"/><path d="M299.81 1.5h.1-.1zm.03.094L29.16 530.884h541.4L299.84 1.594z" stroke="#000" stroke-width="1.004"/><g id="a" fill="#ff0030"><path d="M114.84 243.31c-31.574-6.33-64.38-34.33-63.585-70.08.723-14.71 5.239-10.67 6.441-21.82-3.06-26.7 25.833-42.69 41.871-50.55 9.023-.945 13.713 2.78 28.703 1.86-10.21 4.62-17.54 8.33-17.22 12.03l8.49-.92s5.05 6.44-21.887 11.11c8.457 8.37 13.397 8.33 22.957 6.48 12.44-3.7-34.016 16.15-1.95 39.04.98 18.25-28.97-3.01-34.879 28.29-2.722 13.35 17.989 31.96 31.059 44.56z" transform="matrix(-.42845 0 0 .42845 187.018 30.921)"/><path d="M88.086 204.11c.985 8.69 26.784 37.96 45.924 47.22 20.08 6.48 45.92-9.26 49.74-18.52 5.18-11.22 6.02-29.26.96-36.65-1.68-2.83-20.05-24.24-30.62-25.85-25.78-3.94-21.04 2.31-31.56.93 0 5.55-1.92 9.72-5.75 11.57-3.82 1.85-8.6 0-17.692 2.78-2.87.92-12.348 6.64-11.002 18.52zM74.554 228.4c13.244 34.96 65.456 55.82 95.386 52.05-15.56-15.06-27.74-11.46-52.09-32.41-9.47-1.31-32.758-9.56-43.296-19.64zM100.26 95.485c-3.382-3.273.67-8.512 8.79-12.441 8.12-3.928 12.86-2.618 16.24-2.618 17.59-4.91 7.1-4.583 24.69-15.386 3.72 2.4 18.6 12.331 24.01 18.004.45 44.956-11.72 44.956-13.53 75.946-3.83-5.67-3.6-19.85-7.44-34.04-7.66 10.69-13.98 10.91-20.97 19.64 0-5.24-2.7-5.24-4.06-7.86-.9 4.15-9.92 9.61-14.88 17.68-2.93-12.33 17.82-21.39 15.56-28.81-6.09-.22-13.53 3.5-21.65 1.31 21.65-6.76 14.21-8.95 20.3-15.06-3.38-.65-4.06-1.15-8.6-.65 8.8-5.24 17.63-7.66 17.39-11.13 0-4.668-1.8-9.169-2.7-13.752-1.36 4.146-3.57 7.58-6.22 10.588-2.28 2.903-13.69 3.093-15.19 1.852-3.62-3.548-.92-6.984 4.49-13.094-8.79 2.619-12.17 13.095-16.23 9.821z" transform="matrix(-.42845 0 0 .42845 187.018 30.921)"/><path d="M115.48 159.65c1.35 3.27 6.09 5.89 10.15 7.2 2.7-3.93 27.73-2.62 27.06-2.62-2.71-7.53-4.06-15.71-2.03-29.79-4.06 3.28-13.87 9.5-21.31 22.59-2.03-3.93 0-6.55-2.03-11.78-2.82 5.02-11.05 9.38-11.84 14.4zm1.02 114.58c1.35 30.34 18.94 46.27 21.64 45.18 6.88.32 9.02-6.55 30.78-6.88-9.92-7.64-24.58-24.44-27.06-30.12-5.07-.76-12.17-.87-25.36-8.18zM1.787 292.83c-1.477-9.01 2.318-13.03 21.58-15.17 16.303-4.9 12.868-6.32 23.015-6.86 11.972-.68 17.103 11.62 68.208 18.43.24 5.71 3.05 12.15 10.05 21.01-17.01-3.53-25.668-10.41-35.01-13.03-4.396-.32-2.585 7.66-6.983 9.96-2.028-4.37.678-14.04-2.704-14.8l-18.831-5.76c-1.587 8.53 2.383 13.6 6.642 22.85-10.45-.96-13.3-9.64-12.177-23.38-9.02.83-14.378.19-14.095 1.12-2.82 1.85-14.318 18.87-12.176 22.58-5.3-1.35-7.108-3.88-7.333-9.23-.451-2.29 6.104-6.74 11.064-14.27-10.887-1.19-20.553 2.34-31.25 6.55zm145.613-9.56c28.22 36.27 46.84 39.28 54.71 51.08 2.97 4.73 6.76 8.38 8.91 9.11 6.22.31 14.83.15 18.65-.46 4.79-6.18-.48-10.5-1.43-15.28-.16-7.72 3.51-11.27 1.91-17.59-4.46 2.93-8.93 6.79-15.78 6.01.95-7.4 7.17-6.94 5.74-14.35 5.58-6.48 4.18-9.99 4.5-12.77-32.37 3.84-44.46-5.21-50.5-4.55-4.5.45-15.59 1.56-26.71-1.2zm52.22 56.38c-15.53 37.3-30.5 51.33-38.96 59.67-4.23 4.12-19.02.37-26.62.8-14.08.69-13.5 7.45-14.64 12.6 8-.93 10.18-5.4 15.62-5.24 7.5 1.03 11.33.67 16.99 1 4.17-1.18 6.21-.76 9.31-1.15-.24 3.79-12.34 9.79-18.51 14.68-3.21 5.03-.56 9.42 1.02 10.86 3.4-2.68 4.01-2.44 7.71-3.68.15-8.77 8.38-9.04 14.18-16.63 7.18 4.19 12.88 1.03 17.19-2.47 3.61 1.94 7.11 12.27 16.84 19.19 2.62-4.18 1.51-5.56 1.53-8.21-5.65-3.6-11.48-9.55-14.65-17.5-2.75-11.79 2.99-18.29 5.99-22.34 5.86 5.73 8.47 7.93 17.56 5.98-7.67-4.09-11.78-5.87-13.59-10.61 3.37-4.39 12.37-15.06 25.4-27.09-6.22-1.03-12.14-.62-14.91-2.14-2.98-1.24-5.13-5.17-7.46-7.72zM104.21 71.423c1.1-3.413 6.6-6.5 13.11-10.241 2.26 2.198 2.48 3.741 4.39 5.284-6.06 1.544-11.44 3.414-17.5 4.957zm1.12 2.126c6.32-1.746 12.63-2.835 18.27-4.909 2.48 2.618 3.94 5.564 7.1 7.528-2.25.654-3.83 1.31-6.43 1.964-.67 0-2.7-.653-3.04-3.273-6.93.492-15.22-.654-15.9-1.31zm28.75.982c-3.27-2.399-9.92-10.911-12.51-15.058 3.61-1.964 9.24-6.875 13.19-9.167 12.18-5.675 10.82.765 18.94.655 12.74.109 19.05 13.641 19.62 26.518-4.29-2.402-7.22-5.457-15.56-10.804-3.04-1.964-7.44-6.875-11.16-4.255-2.82 3.055-8.68 6.438-12.52 12.111z" transform="matrix(-.42845 0 0 .42845 187.018 30.921)"/><path d="M118.36 57.673c-4.06 1.636-7.11 1.964-8.8.654-2.03-2.292-3.38-3.928-4.06-10.149 2.14-7.966 7.67-13.313 14.21-22.588 1.35-1.091 4.4 3.055 8.12 5.237-1.02-6.928-.34-8.948 1.35-11.621 2.37-4.038 7.44-11.675 8.45-10.476 2.26 3.875-.22 12.331 2.37 11.949 5.13.164 4.51-16.04 15.39-19.151 2.6-.764-2.59 14.187.68 14.405 7.44 1.309 9.13-15.059 16.23-12.768 5.87.382 13.42 14.841 13.53 18.824.12 9.276-4.84 18.552-9.13 20.298-7.72 4.146-14.43 6.984-25.2 5.238.9-6.548-12.06-3.493-14.2-1.965-3.5 1.637-4.63 2.619-7.78 4.583-1.36-1.418-2.71-6.111-4.06-4.256-.34 5.893-2.37 8.839-7.1 11.786zm18.56 199.617c6.06 2.78 21.02 11.61 36.31 9.32-2.55 2.16-4.43 3.34-6.98 5.5 7.94 8.7 14.64 7.92 24.49 11.76 12.42 3.1 32.44 1.49 35.65 1.85-1.02-8.51 1.74-6.16-.06-30.23-4.34 8.84-4.66 17.76-15.49 22.34-.95-2.47-.56-4.61.18-9.37-4.15 2.78-5.93 10.14-20.9 10.3 2.04-4.98 4.06-8.97 8.8-13.62-4.33-4.18-15.09.15-26.52-6.65 12.71.73 22.04-.83 30.01-2.07-.32-4.32.04-7-1.63-11-6.83 5.18-12.64 2.84-21.33.82-24.94 13.01-32.63 10.64-42.53 11.05zm45.87-14.49c5.41-6.11 6.76-12.22 8.79-18.99 3.05 4.7 7.44 13.97 7.78 18.01-3.04 1.42-8.12 4.8-16.57.98z" transform="matrix(-.42845 0 0 .42845 187.018 30.921)"/><path d="M164.86 170.45c19.06 14.3 23.9 23.35 25.37 27.83 2.48 7.64 2.26 13.97 2.03 18.99 6.2 6.87 12.4 19.64 13.87 27.82 2.25 20.3-8.35 26.19-9.47 29.47 4.73-.88 11.5-8.3 17.59-12.44.45 3.27-.46 6.54-.68 9.82 3.27-2.08 10.6-19.86 11.84-23.9 6.54-2.51 6.54 30.66 4.73 42.23.45 2.62-6.54 14.4-9.47 20.3 3.83-.55 10.37-6.99 15.56-15.39 0 5.68.68 11.35 2.03 13.1 2.71-4.37.87-19.04 6.76-18.34-2.8 22.53.91 30.56 3.72 51.4 2.82-6.22.91-31.43 4.4-42.23 2.48-.22 10.37 11.35 15.56 13.09-4.96-10.15-13.98-15.71-14.88-28.48 1.35-2.07 10.14 9.6 16.23 13.42 3.61 2.41 6.54.88 8.8-.65-9.36-1.96-24.13-20.95-26.05-27.5-7.21-21.22-7.74-40.58-40.1-70.62-19.95-18.52-26.08-24.75-47.84-27.92zm54.29 27.64c-11.35-13.26-1.84-49.54 8.61-73.15 7.03-15.26 31.16-44.622 79.4-49.08 34.48-2.524 64.23 12.894 80.36 31.48-3.25-.93-6.32-2.28-9.56 0 3.17.96 38.15 30.36 16.26 63.89 4.67-23.34-13.15-47.94-32.53-55.55-25.57-11.14-56.37-8.68-84.18 2.78-19.55 9.11-48.32 34.1-50.71 60.18 9.08-19.59 22.96-34.63 28.7-38.89-12.05 22.62-10.94 26.07-11.48 29.63-7.43 9.71-18.37 16.99-24.87 28.71z" transform="matrix(-.42845 0 0 .42845 187.018 30.921)"/><path d="M268.42 81.416C283.56 66.91 357.07 31.107 370.3 3.638c-3.82 33.025-33.48 46.605-37.31 51.852 10.69 2.315 32.85-8.333 49.27-12.5-12.44 13.271-36.35 27.47-44 31.482-32.53-7.253-53.58.308-69.84 6.944zm-19.61 85.654c8.33-48.04 58.5-52.77 66.2-53.98-2.23 7.86-8.88 15.2-13.11 18.79 31.89.58 39.36 9.61 56.92 25.93-28.22-16.05-45.94-16.9-63.06-16.94-9.56 14.97-25.43 11.69-46.95 26.2z" transform="matrix(-.42845 0 0 .42845 187.018 30.921)"/><path d="M320.45 112.83c-1.35 1.31-7.44 13.75-10.82 16.37 5.41 0 8.45.66 11.16 1.31 3.49-6 6.99-12 12.51-17.35-3.61-.76-8.57-.87-12.85-.33zm-22.32 30.78c-1.69 2.62-3.39 4.25-5.08 6.22 4.4 0 13.22.29 17.25-.66.95-3.12 1.58-2.94 2.71-4.58-2.93-.44-8.23-.87-14.88-.98zm-75.63 57.72c8.13-14.51 38.88-44.55 72.23-47.22 13.74-1.03 55.96-4.17 73.18 19.9-23.44-16.2-63.14-12.5-81.31-1.39-27.75 3.4-46.88 25.31-56.45 37.04-2.55-3.09-3.19-4.32-7.65-8.33z" transform="matrix(-.42845 0 0 .42845 187.018 30.921)"/><path d="M232.07 211.51l5.73 8.34c2.56-2.17 33.81-38.58 77.97-24.54-7.33-7.41-11.8-10.19-17.22-10.19.64-1.85 7.02-3.7 20.09-3.7-43.21-15.9-72.06 14.51-86.57 30.09z" transform="matrix(-.42845 0 0 .42845 187.018 30.921)"/><path d="M301.42 171.7c3.99-4.17 38.59-6.48 48.31-2.32 24.56 6.64 50.08 29.89 54.53 61.58 10.37 71.64-22 100.31-17.22 174.07-12.75-24.38-13.07-41.35-10.52-62.96-12.75 10.03-21.68 19.14-25.83 38.43-7.81-33.18 18.92-47.5 29.18-76.86 11.1-31.75 6.15-62.15.96-78.24-9.8-30.37-31.89-54.01-79.41-53.7z" transform="matrix(-.42845 0 0 .42845 187.018 30.921)"/><path d="M309.08 185.12c6.61 2.78 10.01 8.15 15.58 15.77 11.17 10.89 23.61 22.54 25.08 37.01 2.16 22.8-4.01 37.86-13.88 45.84-10.68 7.86-22.96 11.42-47.35 4.63 13.71 11.26 19.21 11.29 29.65 11.57 10.52.31 27.75-3.7 46.4-24.54 2.87 22.23-18.17 32.41-17.22 32.41.96.93 32.53-1.85 32.53-52.78 0-44.75-30.93-74.69-61.23-78.7 13.24 4.78 14.03 11.42 13.88 16.2-7.18-8.33-15.31-7.41-23.44-7.41z" transform="matrix(-.42845 0 0 .42845 187.018 30.921)"/><path d="M240.2 222.16c12.75-12.65 33.34-23.35 49.74-25 36.09-3.54 61.55 38.58 55.97 58.33-2.87-6.79-5.74-10.8-9.57-11.11 16.42 28.86-10.04 42.13-17.7 43.06 5.11-6.48 6.38-24.07 2.87-29.63-6.69 6.17-9.56 12.35-18.17 12.04 8.93-6.18 6.37-8.64 9.56-12.97-4.78.93-12.43 8.34-25.83 8.34 10.21-4.63 7.98-20.37 7.66-25-5.42 1.85-5.1 8.33-10.53 13.89 1.6-6.79.32-8.03 0-12.04-5.1 8.95-12.11 10.49-15.3 8.33 5.1-3.7 3.43-12.88.95-14.81-5.81-4.55-15.3-2.78-21.04 3.7-1.92-5.4-5.74-12.65-8.61-17.13zm33 97.23c14.19-1.09 22.64-4.02 33.01-15.28 21.04 1.23 33.48-1.24 51.66-14.82-.64 6.17-13.72 17.9-19.14 19.45 3.51 2.16 7.02 4.32 10.53 2.77-4.79 9.57-7.66 19.14-8.61 42.6-3.83-6.48-5.27-17.13-3.35-31.02-7.66 2.78-7.18 28.24-7.18 28.24-2.55-8.02-3.19-5.86-1.91-21.3-9.88 11.42-14.03 28.4-15.31 60.19-11.64-16.05-4.14-48.77-1.43-60.19-5.74 6.49-30.14 19.91-41.62 7.87 9.57-.92 23.92-7.4 30.62-18.52-12.6 2.78-21.37 4.64-27.27.01z" transform="matrix(-.42845 0 0 .42845 187.018 30.921)"/><path d="M249.76 243c5.11 30.24 18.34 34.66 35.88 37.6-17.56-10.68-25.9-24.15-29.66-33.44 5.1 1.08 6.38-1.54 11.96-2.78.32-3.39-.8-6.79-3.83-6.94-7.65-.31-10.04 2.16-14.35 5.56z" transform="matrix(-.42845 0 0 .42845 187.018 30.921)"/><path fill="#ff0" d="M135.1 55.708c-2.14 1.365-2.14 5.234-.34 6.875 2.15 1.96 5.41.219 4.06-1.637-1.58-2.291.22-5.565-3.72-5.238z" transform="matrix(-.42845 0 0 .42845 187.018 30.921)"/></g><use xlink:href="#a" transform="matrix(-1 0 0 1 598.794 .855)"/><g stroke="#000" stroke-width=".81"><g fill="#ff0"><path d="M344.19 333.59c-2.6-7.04-4.98-14.25-3.04-22.43l5.6 2.59c-4.2-6.32-5.73-14.75-4.18-22.22 1.72.93 5.17 4.1 8.49 5.84-3.94-8.63-1.86-17.25-2.15-25.88l-1.3-5.6 4.44-.13c-6.98-8.21-5.56-21.16-13.36-27.16l4.18-5.48c.91-1.73-.26-3.45-.86-5.18-2.11-4.97-6.29-6.12-9.91-8.06l-4.75 2.03-5.6 5.6c-10.12-2.34-14.36-2.17-18.97-2.15l-5.6 3.02-3.02 3.88-.86 3.88-13.36 6.46c-.5 1.37-1.4 2.87.43 3.45 1.49.68 2.93 1.42 3.57 3.22-.82 1.8-1.31 3.61-.98 5.41.21 1.94.4 3.89 1.74 5.55 15.28-3.85 10.2-5.47 16.04-5.66 3.33.14 4.54.42 6.03 2.16l.88 3.43c-2.48-.38-4.97-.12-7.45-1.6-4.62-.4-8.15 1.75-11.64 3.88-14.6 9.14-44.33-.21-17.66-13.2-18.82-1.27-29.25 24.26-5.67 26.81 10.65.79 12.68-2.68 21.83-5.87 2.68.68 1.98 5.19 3.22 5.37.65 1.67 2.25 2.49 3.7 3.35 4.9-.19 8.8.26 9.67 2.08.84 1.35.33 2.04-.43 2.59-1.51 2.47-3.65 4.3-6.37 5.55-3.14.55-6.29.12-9.43-.1-5.57-3.25-8.01-6.51-10.4-9.76-.15 3.77-.1 8.4 1.32 10.6-4.96-.09-9.54 1.15-13.69 3.9-8.14 4.91-16.16 12.61-23.15 19.43-5.38 2.54-10.59 5.82-16.74 4.87-10.97-5.5-5.21-11.4-3.44-15.09-4.04.22-5.69 3.82-7.31 8.47-.26 3.94-.18 7.34 1.98 10.88 4.49 4.02 7.46 3.8 10.35 4.34 6.97-.32 13.39-1.46 19.55-2.99-4.4 2.52-5.83 3.86-6.22 5.58 15.49 2.4 21.56-3.15 32.33-4.75-2.24 3.24-5.78 6.66-5.42 9.52 18.12.98 32.14-7.44 37.9-8.91-2.37 2.57-4.56 5.1-2.15 6.47 7.85.17 17.76-6.78 19.88-8.77 6.56 3.05 13.43 7.98 21.98 10.78z"/><path d="M262.18 291.24c-13.37-9.52-22.49-21.03-26.08-35.14.72-2.16 2.15-3.88 4.31-5.18l.21-3.01c-1.76-1.11-3.25-2.5-3.88-4.75-.73-3.44-2.93-6.15-4.74-9.05-2.38-2.22-4.65-2.13-6.46-2.37.52 3.52-.04 7.04-.65 10.56-.65 2.94-1.72 5.32-3.23 7.11l3.66 5.18.54 2.37-5.39-.22c-1.13-.73-.94-1.79-.97-2.8l1.08-4.09c-.01-1.76-1.25-2.9-2.37-4.1l-3.45-.22c-3.39-5.04-8.76-3.83-13.79-3.66-.4.75-1.12 1.18-.43 3.02l4.74 4.74.21 7.33c1.49 1.42 3.28 2.59 6.47 2.59 1.96 3.5.82 4.31-1.51 4.09-2.2-.4-2.34-2.44-3.23-3.88-2.31-.91-3.43-.87-4.31-.64l-3.45 3.88c-3.01.36-5.04 1-6.9 2.8.34 2.21 2.15 2.57 3.56 3.45 1.58-.03 2.9.69 4.2 1.51.53 1.24 1.49 2.38 2.59 3.34 2.53-.8 4.93-1.32 6.89-.97 1.85.59 2.1 1.42.22 2.59-3.87-.14-4.97 1.1-6.04 2.37.58 2.3.58 4.17 0 5.6-2.01 3.92-4.02 5.69-6.03 7.98 3.14.17 6.2.19 9.05-.21 1.45-.71 2.93-1.34 4.1-2.59h4.31c.93-1.28 1.87-2.83 2.8-4.96 1.7-.21 3.23-1 6.03 2.37-.17 3.54-.9 6.89-1.94 10.13 2.67.79 4.8-.83 6.9-2.58.86 3.93.21 6.49-.21 9.91 3.16-1.94 5.31-2.58 6.46-1.94l2.37 10.14c8.54-4.9 15.83-15.24 24.36-20.7z"/><path d="M334.18 334.21c-3.07-3.72-7.08-6.25-11.28-8.54-8.71 7.06-19.09 10.75-29.5 11.26 1.43-1.83 3.82-3.44 4.13-6.38-10.43 4.36-22.2 7.16-35.5 6.92.38-2.84 1.85-5.69 3.35-8.53-7.44 2.01-15.12 3.93-29.04 3.13-6.72 5.26-13.47 10.49-28.04 10.98-1.29-.32-.67-1.6-.31-2.74 1.84-.97 3.05-3.2 4.34-5.28-1.26-1.71-2.58-3.36-4.97-3.94-.9-2.91-2.72-5.83-5.05-8.74-1.56-.96-2.69-.47-4.25-.32-.09 3.35-.26 6.7.48 10.04-2.04 1.01-3.72 1.7-4.35 3.84 1.43 2.02 2.92 4.01 5.48 5.18.3 1.41.86 2.93-.21 3.79-2.34 1.21-4.68 1.4-7.01.3-.16-3.28 2.15-7.43-2.44-9.14-5.61-.78-10.81-.33-15.85.61-1.11.02-1.89.69-2.72 1.26-.7.8-.8 1.6-.63 2.4 2.56.53 5.11 1.09 6.83 3.31.93 2.38.22 3.61.03 5.71l2.63 1.19 3.61-.15c3.31 1.83 1.75 3.66.31 5.49-3.05-.72-5.1-1.43-7.01-2.14.42 2.83-.22 4.38-1.22 5.49-3.46 1.21-6.91 1.44-10.37 1.22.7 3.68 4.78 5.95 8.84 8.23 2.57.96 4.37.76 5.79 0 3.39-.17 5.95.26 7.32 1.53.28-1.94.17-3.87 1.52-5.8 1.66-.92 2.88-.49 3.97.31.17 3.19-2.27 4.89-3.97 7.01.09 2.35.39 4.53 2.75 5.18-.96 3.61-1.37 7.03-.61 10.06 5.75-.95 9.94-4.15 13.1-8.84 2.36-1.72 5.01-3.29 4.88-6.4-2.28-1.04-4.75-2.06-3.96-3.66 3.74-3.92 7.76-5.15 12.08-4.2 1.06 3.83-1.8 5.03-3.05 7.32 2.16-.27 3.98-.77 4.99-1.9 3.3-3.85 6.82-7.33 10.97-9.76 1.23.37 1.72 1.23 1.22 2.75l-5.88 5.54c3.56 1.09 6.21-1.12 9.21-2.82 4.07-6.45 7.54-10.29 9.88-9.56 1.92 4.16 6.88 6.68 12.5 8.85l-3.46-7.5c2.75-5.97 11.75-6.74 17.68-10.06 2.66 5.95 7.92 10.72 13.71 15.24 10.39 5.66 28.05 12.13 29.26 16.77-17.12.35-32.72-6.44-49.07-9.75-13.3-1.55-17.7 2.77-21.03 5.18-5.86 7.94-5.53 14.84-8.23 22.26-2.54 1.54-5.08 1.35-7.62.91-6.45-3.86-6.19-8.61-5.56-13.61-4.24 1.36-6.94 6.57-6.7 13.72.38 4.81 3.28 7.7 7.39 9.65 5.96 2.7 11.64 3.49 16.45-1.53 3.65 2.85 6.3 6.4 7.93 10.67-1 12.64-15.16 18.86-18.9 20.43-1.27-2.13-.34-4.27 0-6.4-.08-2.55-.91-4.73-2.13-6.71l-5.79-.3c-2.87-5.08-7.71-2.67-11.89-2.75 1.46 2 3.62 3.4 4.05 6.42-.52 3-2.37 3.77-3.66 5.49 4.23 4.1 6.4 6.35 7.77 7.87.72 2.74-.74 2.42-1.67 2.68-1.87 1.4-4.88-2.84-7.32-4.27-2.04-.16-4.08.73-6.13 2.29-7.53.5-9.01 5.36-11.63 9.4 3.54.11 7.11-.53 9.84.67 2.59 2.36 5.1 4.7 4.88 6.22 2.6.27 4.55-.91 6-3.23 3.26-.32 4.16.42 4.27 1.53-4.07 2.02-7.2 4.09-6.7 6.4l2.74 3.96c-1.06 2.95-.98 5.9-.61 8.84 1.01 2.72 1.7 2.51 2.44 2.75 3.3-4.87 4.4-5.71 6.09-7.62 5.71-1.41 6.63-5.58 4.88-11.28 1.48-3.28 4.11-2.81 6.71-2.44.24 3.15-.2 6.31-1.38 9.47 1.42 1.85 2.17 1.93 4.17 2.34-.5 3.58-1.02 6.82.45 10.12 6.29-.85 6.09-6.03 8.53-9.45 1.87-1.98 2.05-5.19 1.9-7.46l-3.92-6.24c2.27-4.86 7.11-5.76 13.11-4.88-1.45 2.54-.42 5.08-.31 7.62 3.3 2.9 6.44 6.64 9.45 10.98.7-2.1 1.88-3.82 1.52-6.71-2.7-3.24-5.25-6.43-4.57-8.54.21-4.87 2.79-4.98 4.57-6.71-.87 3.15-.55 6.31 0 9.46.14 2.54 1.55 4.38 4.27 5.48 5.69-1.52 8.69.32 12.19 1.53-.29-2.56-2.3-4.73-5.18-6.71-4.83-1.7-3.71-4.51-4.27-7.01-.38-3.54.53-4.06.92-5.79 2.27 2.22 2.35 6.2 3.35 9.45 5.85 3.2 8.83 3.54 12.19 4.27 1.01-.82 1.03-1.97.31-3.36-2.32-1.71-4.91-2.76-6.71-5.79-2.26-3.42-1.08-4.95-.3-6.71 4.87-1.72 10.01-3.18 10.45-6.29 3.06-3.77 4.2-8.45 4.57-13.42-1.66-5.19-4.12-8.84-8.93-8.03.92 3.25 2.51 6.5 1.83 9.75.85 4.72-1.8 5.58-3.66 7.32.26-1.94.28-3.83-.61-5.49-4.32-6.7-9.47-13.23-8.83-21.04 1.71-4.27 5.14-4.52 8.53-4.87l19.18-.54c6.02-3.55 11.28-4.07 16.77-5.49-6.03 10.93-13.5 21.69-15.22 33.16.33 6.3 1.27 11.89 3.04 16.47 3.22 5.39 1.79 7.69 1.83 10.97-2.83 1.34-7.39-.42-11.58-1.52-.98 4.21 3.29 6.26 7.01 8.53 6.18-.12 7.73-1.17 9.75-2.13 3.77-3.3 4.52-8.11 4.88-13.11 9.45 1.34 18.47.84 27.92.18-.36 9.04-8.42 18.09-13.72 27.13-1.87.46-3.37.43-3.53-1.39l.91-2.14c.4-1.64-.18-2.89-1.22-3.96-6.24-.5-12.38-1.37-19.18.05-1.33 1.28-2.52 2.55-2.44 3.82 3.79 1.86 6.45 3.72 8.52 5.58.41 1.72.85 3.39 1.83 4.27l6.4.91c.7 1.73 1.05 3.46.61 5.19-2.74-.02-5.16-.98-7.62-1.83-1.41 1.67-3.39 3.26-1.22 5.48-2.85 1.91-3.69 3.57-4.27 5.19-.85 3.76-.57 6.85 0 9.75.27 2.14 1.65 2.61 3.05 3.05 3.41-3.94 6.44-7.32 7.01-7.01 2.37-2.68 3.95-1.82 5.79-2.13.97-2.99 1.1-7.31 3.35-8.24 1.2.15 2.62-.15 2.44 2.75-2.47 2.03-2.8 4.06-3.66 6.1 3.33 2.57 5.66 5.03 6.4 7.31 4.2 2.95 7.94 4.52 11.28 4.88-.98-3.75-1.3-7.27-3.05-11.28 2.4-1.31 1.88-2.99 2.14-4.57-.45-1.44-.94-2.88-3.36-4.88-1.39.45-1.54-1.26-1.82-2.74 2.97-2.16 4.52-.91 6.09.3.8 1.38.98 2.56.92 3.66-.99 1.42-.4 2.84.3 4.27 2.11.38 4.49-.06 5.79 2.74-.59 4.04-.14 6.71 2.14 7.01 1.91-.93 3.19-2.82 3.96-5.48 1.3-5.19 1.64-10.7 1.22-16.47-1.8-1.68-3.77-3.03-6.71-2.44-1.48-1.72-.71-3.12 1.83-4.27 3.99-.69 5.53-2.79 7.62-4.57 1.93 1.63 4.72 7.42 6.65 6.39 3.66.15 4.4 3.34 5.19 3.66l-.26-7.31c-3.58-2.65-6.44-5.8-5.48-11.58l6.7 7.01c4.63.37 4.68 3.91 5.79 6.71 2.12-.75 2.96-3.04 3.66-5.49-3.36-4.67-6.54-9.4-7.92-14.63-1.19-4.82 1.27-4.38 2.43-5.8.87 5.74 3.28 9.61 7.01 11.89 4.15 1.22 7.98 1.65 10.98 0 4.76-4.88 9.2-9.95 9.45-17.38-7.1 4.96-15.35 17.58-19.51 3.05-.65-3.81.49-7.11 1.83-10.36.39-4.62-.18-9.43-1.22-14.33 2.7.03 4.88 1.62 7.01 3.35.96 2.18 1.5 4.79 2.2 7.23 1.09-3.27 2.32-6.48 1.46-10.58-3.36-6.77-8.49-10.1-16.16-8.54-9.77 2.14-17.71 5.65-27.61 8.52-4.67-3.3-3.44-9.45-1.34-16.14 9.58-.93 15.7-5.51 20.42-11.59 2.12-6.83 2.85-14.29 3.82-22.85-2.24-7.63-3.75-15.25-8.7-22.88-4.75-10.33-4.24-16.78-3.66-23.18 3.48-14.84 10.55-25.33 17.99-35.36 2.88-6.26 5.93-12.35 5.18-21.96-3.79-8.33-12.93-21.55-9.04-23.49.73-3.42 2.98-2.27 5.08-2.12 3.99.05 6.19 2.98 8.84 5.19.57-3.47-3.2-8.14-5.92-12.99-2.24-3.3-5.68-4.88-9.93-5.31-6.59 1.14-7.86 6.26-10.06 10.67-3.08-1.86-6.8-2.82-11.89-1.83-2.67-.14-4.23-2.86-6.1-4.87-.22 4.62.64 9.07 2.14 13.41.74 2.93 1.6 5.8 4.87 7.32l3.66 1.22c-1.31 2.24-4.06 3.52-3.05 7.32 2.37 3.21 4.21 6.58 4.58 10.36-.19 3.17-1.44 5.28-2.75 7.32 3.05.1 6.01.1 7.93-1.22 2.39-.95 3.25-3.13 4.26-5.18-.3-4.98-1.29-9.96 0-14.94 2.7-.54 4.21.7 5.19 2.74 4.3 8.75 2 14.4 1.83 21.04-5.5 13.62-13.6 27.24-20.43 40.86-1.93 5.76-.52 10.96.92 16.16 5.35 10.18 6.46 17.95 7.92 25.91 2.9 7.44.83 14.47.61 21.65.04 2.58-1.08 4.34-3.05 5.49-2.5 1.91-5.47 3.2-8.83 3.96-.61-3.76-.62-7.52-3.97-11.28-9.92-12.39-23.07-25.01-21.33-36.59-.02-5.56-.93-11.42.61-16.46z"/><path d="M285.45 399.79c.1 8.5 10.93 6.27 19.4 4.42-.63 4.36 1.6 5.49 8.08 3.02l7.33-13.69c-4.93 1.31-9.42 1.31-16.49 5.28-6.1.7-11.93.3-18.32.97z"/></g><path d="M301.62 261.38l-6.47-.43c-6.32 3.29-12.41 6.53-19.83 7.11-11.76.52-24.56-6.84-10.56-16.71-20.16 7.85-12.73 24.93 8.62 22.43 13.81-5.79 18.83-8.27 28.24-12.4zm-74.57-17.14c2.37-.8 4.74-.86 7.11-.22v-2.04c-1.62-3.56-3.81-6.26-6.58-8.09.22 3.55.38 7.08-.53 10.35zm-15.2 1.94c-1.57 1.96-3.43 2.46-5.28 3.02-.75-2.05-2.09-3.81-3.99-5.28 1.64-.37 3.3-.69 5.5-.22 1.38.45 2.93.41 3.77 2.48zm-12.5 18.54c-.67 1.13-.97 2.18-.21 3.02-1.41.04-2.81.23-4.21-1.4.76-1.43 2.53-1.61 4.42-1.62zm6.57 19.84c1.13 1.26 2.54 2.33 4.53 3.01-1.32.9-2.61 1.88-4.2 1.94-1.27.5-2.76.11-4.31-.53 2.06-1.11 3.04-2.76 3.98-4.42zm-5.4 39.59c-.74 2.08-.67 4.16.61 6.25 1.74.88 2.9.06 4.27-.16-1.02-2.33-2.25-4.56-4.88-6.09zm-26.21 14.33c2.34-1.26 4.67-2.22 7.01-1.07.05 1.5.02 2.96-1.52 3.66-1.57-1.9-3.52-2.29-5.49-2.59zm-3.96 23.47c2.14 1.87 4.43 3.49 7.77 3.36.01-1.27.13-2.54-1.83-3.81l-5.94.45zm24.23 14.94c.06 2.5-1 4.43-1.68 6.56 3.21-1.41 6.23-3.14 8.23-6.56-2.18.63-4.37.98-6.55 0zm18.74 44.37c-.45 2 1.24 3.57 2.75 5.18l2.74-3.81c-1.23-1.45-3.03-1.96-5.49-1.37zm-11.27 22.1c-2.87.18-5.41 1.35-7.47 3.96 3-.04 5.53.55 7.31 2.14.62-1.89 1.14-3.81.16-6.1zm11.12 23.17c-1.13 2.7-.59 5.39-.15 8.08 1.61-1.67 3.29-3.24 4.11-6.1-1.32.27-2.64-.63-3.96-1.98zm23.17 1.07c.82.54 2.27.47 4.72-.61-.43 3.16-2.39 5.56-4.42 7.93-.44-2.44-2.08-4.88-.3-7.32zm85.34-1.22c-3.67-.63-6.58.25-9.45 1.22 3.73 1.27 4.51 2.54 5.94 3.81 2.51-1.41 2.99-3.22 3.51-5.03zm-4.57 25.92c-1.27 3.39-1.68 6.61-.92 9.6 2.15-1.74 3.89-3.7 4.42-6.25-.2-1.12-1.69-2.24-3.5-3.35zm21.94 10.06c1.34-1.84 3.04-2.58 5.19-1.98 1.06 2.59 1.96 5.12 1.82 7.31-2.84-.76-4.97-2.96-7.01-5.33zm17.83-7.01l.96-1.36c.54 0 1.71-1.24 2.7-1.54.16 2.92-.16 5.51-1.22 7.62-.81.29-1.62-2.79-2.44-4.72z" fill="#ff0030"/><path d="M297.91 239.84c1.05-2.08 9.67-1.52 9.6-1.22 2.54.84 2.73 2.61 3.2 4.27l.3 1.98-1.06-1.22c-.92.87-2.17.89-3.36 1.07l-1.37.15c-1.68-1.22-2.51-2.93-3.2-4.72-1.8 0-2.84-.18-4.11-.31z" fill="red"/><path d="M305.5 264.18c-3.79-.13-7.79-.15-13.26 2.81.97.89 2 2.3 3.23 2.15h3.56c4.03-1.18 5.88-2.91 6.47-4.96z" fill="#fcef3c"/></g></g></svg>