<svg xmlns="http://www.w3.org/2000/svg" xmlns:xlink="http://www.w3.org/1999/xlink" width="600" height="600" viewBox="0 0 1024 1024" xmlns:cgf="https://coding.garden/flags"><metadata id="cgf-metadata">

<cgf:flag>
  <cgf:name></cgf:name>
  <cgf:route>be/wht</cgf:route>
  <cgf:aspect-ratio>1</cgf:aspect-ratio>
</cgf:flag>

</metadata><path fill="#ff0" stroke="#000" stroke-width="12" d="M6 6h1012v1012H6z"></path><path d="M0 512h1024M512 0v1024" stroke="#000" stroke-width="6"></path><g id="e"><path id="a" d="M396.08 42.736c-.82 0-1.68.02-2.56.059-10.943.312-14.089 1.153-24.113 6.311-9.184 4.749-15.203 10.26-22.022 20.264-6.214 9.087-10.552 20.967-11.783 32.105-1.915 17.547-5.002 33.278-8.031 40.84-1.837 4.631-6.78 11.431-9.634 13.268-1.074.704-1.895 1.544-1.758 1.915.293.88 4.592 1.603 7.308 1.212 3.771-.547 9.653-3.068 13.835-5.882 3.068-2.071 3.771-2.032 3.283.235-1.25 5.979-1.544 8.695-1.7 16.043-.196 9.574.547 13.249 4.26 20.674 2.071 4.162 6.311 9.868 6.878 9.281.137-.136-.137-1.68-.567-3.458-1.817-7.133-2.071-10.845-1.172-17.137 1.583-11.294 4.338-19.345 10.513-30.503 1.407-2.58 3.263-6.058 4.084-7.719.84-1.66 2.52-4.71 3.713-6.78 3.42-5.863 3.673-4.964 3.282 12.154-.156 7.816-.566 15.32-.86 16.688-.292 1.367-.41 2.598-.273 2.735.39.391 2.697-2.599 5.159-6.683 4.201-6.956 8.383-17.196 9.125-22.276.235-1.504.645-3.36.938-4.103.43-1.153.547-11.548.235-19.287-.078-1.876-.04-1.935 1.856-1.778 2.052.175 10.357-1.349 11.294-2.072.313-.234 1.348-.684 2.325-1.016 3.185-1.074 10.65-6.898 10.65-8.324 0-.332-.645-.625-1.407-.625-3.536 0-8.128-3.596-9.086-7.133-.313-1.172-.41-3.517-.215-5.178.508-4.377 3.498-7.62 8.715-9.477 9.536-3.42 16.981 0 21.69 9.946 1.974 4.162 2.071 4.69 2.032 9.634-.097 10.865-2.599 16.336-14.85 32.359-1.818 2.384-4.046 5.432-4.964 6.8-.899 1.367-1.798 2.618-1.974 2.755-.175.156-1.915 2.638-3.869 5.53a959.53 959.53 0 0 1-7.66 11.138c-11.821 16.864-15.456 25.5-19.364 45.94-1.251 6.605-1.31 10.59-.235 16.727 2.638 14.949 10.337 27.396 30.093 48.617 8.97 9.633 15.574 18.642 19.19 26.184 1.64 3.42 1.875 4.396 1.894 8.46.02 5.082-.449 6.098-4.162 9.107-2.833 2.286-6.077 2.501-11.509.762-6.8-2.17-11.216-4.944-16.746-10.552-2.735-2.755-5.92-6.37-7.054-8.05-3.126-4.573-11.49-17.294-13.288-20.265-2.208-3.615-3.595-5.823-6.722-10.61-1.485-2.287-2.794-4.358-2.912-4.632-.273-.606-9.516-14.929-11.197-17.313-3.4-4.807-4.416-6.155-9.457-12.565-5.472-6.937-19.6-21.67-25.227-26.302-6.449-5.295-14.147-9.946-27.22-16.414-7.465-3.693-13.561-6.995-13.542-7.347 0-.39 1.387-.664 3.79-.743 4.007-.097 8.286-1.739 10.944-4.181 1.23-1.114 1.309-1.134 3.322-.176 4.26 2.032 10.337 1.68 12.526-.743.899-.996.82-1.074-1.525-2.11-3.79-1.68-5.08-3.947-5.08-8.891v-4.104l2.755-.644c3.44-.802 7.797-3.479 9.829-6.038 1.817-2.326 3.654-6.175 3.674-7.739 0-.879-.294-.703-1.622.9-1.779 2.168-5.804 4.337-8.032 4.337-2.677 0-6.33-2.755-6.33-4.787 0-.371 1.152-.82 2.618-1.036 4.162-.605 7.23-2.716 8.09-5.55.332-1.074.175-1.152-2.345-.898-5.96.567-6.742-1.27-6.84-15.73l-.078-10.767 1.33-1.075c.742-.606 2.48-1.66 3.888-2.364 3.028-1.544 5.764-4.534 7.269-7.914 1.25-2.814 2.071-11.646 1.074-11.646-.312 0-.742.547-.957 1.231-.684 2.286-3.478 6.194-5.14 7.171-2.325 1.388-4.884 1.231-7.053-.43-1.017-.781-1.857-1.758-1.857-2.168 0-.41.84-1.466 1.876-2.326 5.96-4.904 9.653-16.727 8.09-25.89-.723-4.3-2.599-10.494-3.674-12.214-.058-.097-1.954.938-4.22 2.326s-5.843 3.185-7.934 4.005c-3.596 1.427-4.26 1.505-13.151 1.505-5.159 0-14.46-.176-20.693-.371-6.214-.215-13.503-.157-16.18.117-5.667.567-7.113 1.329-13.112 7.074-2.13 2.032-5.022 4.377-6.448 5.197-3.166 1.837-8.247 3.185-11.861 3.185-1.505 0-4.319.294-6.273.665-3.967.723-4.846 1.602-4.084 4.103.274.88.801 2.99 1.172 4.69.684 3.087.665 3.146-.996 5.237-2.364 3.01-2.736 4.826-3.107 15.496-.137 3.713-.04 6.878.234 7.035.254.156 1.505-.098 2.756-.606 2.892-1.153 7.093-.723 9.457.957.938.665 2.423 2.326 3.303 3.693 1.348 2.13 1.582 3.088 1.582 6.253 0 2.052-.351 4.788-.781 6.097-.43 1.29-.958 3.166-1.153 4.143-.196.996-1.466 3.283-2.794 5.1-4.26 5.784-11.53 9.36-19.111 9.38H195.3l-2.033-3.166c-2.462-3.908-4.768-6.43-7.66-8.325-1.954-1.29-2.735-1.465-6.624-1.406-7.816.078-13.346 3.165-16.004 8.91-1.309 2.833-1.446 3.693-1.27 8.129l.176 4.963-2.11-.078c-2.423-.078-5.042-2.286-9.966-8.48-8.403-10.533-11.861-18.017-13.913-30.328-.997-5.862-.977-5.53-.313-8.558 1.036-4.886 3.224-8.364 8.285-13.346 5.745-5.628 6.43-7.21 4.417-10.278-.704-1.075-1.896-2.267-2.658-2.638-.977-.489-1.602-.801-1.954-1.173l-12.1-7.626-3.64-.313c-3.42-.273-3.713-.195-5.14 1.231-1.289 1.29-1.523 1.974-1.523 4.514 0 1.642-.254 3.459-.567 4.045-.782 1.446-2.54 1.368-3.556-.195-.919-1.388-1.27-5.862-.567-6.996.254-.41.527-1.954.606-3.38.215-3.596-1.251-5.159-5.335-5.687l-17.098.155c-.703-.058-1.27.098-2.404.548-2.169 1.29-3.458 3.028-3.927 5.354-.254 1.25.195 2.638 1.915 5.901 1.23 2.325 2.266 4.67 2.266 5.178 0 1.388-1.66 2.95-3.107 2.95-1.309 0-1.915-.663-4.65-5.119-2.072-3.341-3.87-4.103-6.664-2.833-5.393 3.166-8.343 8.578-10.689 14.577-1.133 3.224-1.055 4.299.606 7.62 2.013 4.046 3.557 4.73 9.77 4.358 5.726-.312 6.996.372 6.996 3.713 0 1.505-.371 2.188-1.856 3.302-2.052 1.583-4.397 1.896-9.224 1.192-2.813-.39-3.204-.332-4.69.938-1.406 1.212-1.582 1.72-1.504 4.182l.078 2.814c1.7 4.65-6.37 3.517 5.08 13.932.763.508 2.385 1.074 3.616 1.27 2.403.39 2.814.137 8.344-4.827 4.748-4.26 9.047-1.739 8.773 5.14-.273 6.311-4.2 9.809-12.389 10.923-2.755.37-5.256.527-5.569.332-.332-.196-.586-.098-.586.234 0 .84 4.631 3.674 8.246 5.042 2.482.938 3.87 1.114 7.27.88 2.325-.138 4.728-.568 5.373-.9 1.993-1.074 2.443-.234 2.071 3.81-.39 4.32-1.368 6.977-3.185 8.618-3.01 2.755-5.256 3.01-11.08 1.348-2.052-.586-3.732-.938-3.732-.781 0 .136.371.957.801 1.797 1.329 2.58 4.416 4.846 8.403 6.136 2.07.684 3.986 1.427 4.26 1.7.292.274-.274 1.153-1.368 2.13-2.384 2.11-5.022 2.189-9.614.293-4.143-1.72-4.338-1.72-3.909.137.196.84.47 2.481.606 3.673.293 2.56 2.013 6.078 3.987 8.168 4.67 4.944 15.28 5.413 23.097.997 1.621-.918 3.204-1.661 3.517-1.661.957 0 .606 4.338-.528 6.566-.586 1.172-2.13 3.028-3.42 4.123l-2.325 1.993h2.736c3.517-.02 11.588-1.74 16.57-3.537 4.514-1.641 4.944-1.7 5.335-.684.39 1.036-4.221 18.896-5.706 22.061-.704 1.466-2.384 3.908-3.771 5.393-2.248 2.423-2.892 2.775-5.706 3.225-2.345.37-3.85.312-5.706-.255-3.146-.937-4.416-2.07-5.843-5.197-.938-2.052-1.074-3.088-.762-6.234.235-2.345.157-3.752-.176-3.752-.918 0-4.455 4.514-5.803 7.426-3.049 6.546-3.166 12.037-.41 18.114 2.598 5.745 8.52 9.946 16.081 11.412 2.814.547 4.612.567 8.481.058 10.278-1.387 17.235-5.021 21.553-11.294 1.74-2.54 2.501-3.165 4.885-3.927 4.788-1.544 10.298-4.924 14.968-9.204 1.74-1.583 3.049-1.309 3.049.645 0 .997 3.282 8.285 4.553 10.122.605.899.175 1.485-3.81 5.296-2.482 2.364-6.566 5.881-9.107 7.816-5.569 4.28-17.196 12.076-17.997 12.076-.332 0-.918.312-1.329.684-1.113 1.016-2.54 1.836-6.233 3.634-7.152 3.459-11.412 4.612-17.606 4.71-3.537.058-4.182-.079-5.999-1.466-2.228-1.7-2.443-2.736-1.211-5.726 1.25-2.99 1.074-5.823-.45-7.269-2.052-1.915-4.494-2.403-7.171-1.407-5.179 2.58-11.216.06-17.801 6.097-4.221 2.97-4.71 5.94-1.759 10.396 2.11 3.205 2.325 5.823.567 7.582-1.134 1.114-1.388 1.153-3.83.488-1.446-.39-2.736-.879-2.892-1.094-.938-1.31-3.713-2.853-5.08-2.853-3.323 0-5.433 2.013-6.781 6.488-1.603 9.907.214 12.486 1.25 16.512.293 1.954 2.6 4.025 4.514 4.025 2.17 0 3.341-.625 7.328-3.947 4.514-3.752 7.425-3.693 8.402.176.86 3.42-3.243 7.054-9.242 8.129-3.303.605-5.374 1.446-6.058 2.481-.235.332-.41 1.524-.43 2.658.88 5.041 5.686 8.05 8.617 12.193l2.99 2.775c3.459 3.107 6.644 3.85 9.477 2.188 2.853-1.68 4.084-4.455 4.495-10.278.508-6.8.742-7.68 2.599-9.712 1.23-1.348 1.817-1.64 2.5-1.25.763.43.939 1.524.997 6.233.04 5.452.137 5.882 1.837 8.637 3.576 4.436 13.698 3.83 20.46-.371 3.477-2.247 4.591-4.28 4.65-8.578.039-2.619-.254-3.948-1.153-5.491-1.837-3.107-1.602-3.83 1.602-4.983l2.814-.997 1.466 1.446c1.387 1.388 1.426 1.7 1.27 6.312-.137 3.576.058 5.452.762 7.171.801 2.033 3.029 4.514 4.045 4.514.176 0 .254-1.485.156-3.322-.215-3.927 1.016-6.936 5.784-13.932 1.622-2.364 3.087-4.963 3.263-5.784.606-2.774.743-2.95 2.267-2.774 1.016.117 1.856.762 2.58 2.012 1.035 1.779 1.035 1.974.117 7.21-.9 5.14-.821 8.481.254 10.514.312.586.82-.02 1.856-2.208 1.857-3.928 3.146-6 5.823-9.4 2.345-2.95 3.889-7.112 3.889-10.453 0-2.931.957-5.276 2.462-5.96 2.677-1.212 3.302 2.188 2.267 12.369-.489 4.65-.078 9.594.8 9.594.274 0 .9-.938 1.388-2.071.47-1.133 1.954-3.83 3.322-6.019 4.064-6.526 8.05-16.453 7.62-18.993-.136-.723.314-2.93 1.017-4.904.957-2.775 1.524-3.615 2.462-3.752 2.11-.313 3.107 2.032 2.716 6.37-.645 7.074-.625 9.106.078 10.747l.684 1.661 1.72-3.244c.938-1.778 2.442-4.553 3.302-6.194 1.407-2.638 1.602-3.556 1.602-7.836 0-3.654.196-5.06.86-5.706 1.173-1.172 1.72-1.094 2.697.41.645.978.703 1.7.273 3.166-.293 1.056-.8 3.498-1.113 5.472-.489 2.95-.43 3.966.332 5.92.488 1.31 1.075 2.365 1.329 2.365.234 0 .605-1.016.8-2.286.196-1.25 1.623-4.905 3.166-8.13 2.208-4.572 2.853-6.506 2.931-8.89.176-4.67.235-4.963 1.114-4.963 1.544 0 2.091 2.169 1.7 6.663-.332 3.674-.215 4.65.801 7.035.665 1.524 1.661 3.204 2.248 3.732 1.016.918 1.055.86 1.074-1.485.02-2.501.802-4.983 3.752-11.94 1.818-4.279 2.638-8.05 3.127-14.205.273-3.557 1.074-5.237 2.481-5.237.176 0 .763.313 1.27.684.724.527.997 1.856 1.232 5.647.273 4.963.684 7.855 1.211 8.754.156.274 1.25-1.465 2.443-3.85 1.172-2.383 3.126-6.213 4.357-8.5 2.697-5.06 4.006-11.548 3.46-16.98l-.372-3.557 1.524.371c.84.215 2.794.997 4.358 1.759 6.858 3.341 10.65 4.631 14.186 4.846 2.481.156 5.158.82 8.539 2.189 2.716 1.094 7.288 2.618 10.18 3.4 6.605 1.778 9.966 3.439 14.402 7.093 3.654 3.01 9.301 9.184 9.301 10.161 0 .313-2.599.664-6.194.84-3.42.157-7.543.567-9.184.88-8.716 1.66-18.544 6.233-25.422 11.783-6.86 5.549-10.005 8.539-16.277 15.554-7.113 7.972-9.185 9.653-13.327 10.747-1.27.332-8.344.84-15.73 1.113-8.07.313-14.597.84-16.434 1.31-4.163 1.074-8.403 2.56-9.243 3.243-.371.313-1.7 1.095-2.931 1.759-3.264 1.759-8.872 6.956-12.994 12.076-1.974 2.481-6.253 7.328-9.497 10.767-9.184 9.829-14.304 13.209-20.713 13.717-4.514.371-8.754-.88-11.724-3.42l-2.306-1.954-1.27 2.071c-1.075 1.72-1.29 2.834-1.29 6.527 0 4.006.176 4.729 1.681 7.152 2.071 3.38 6.722 5.999 11.646 6.565 9.223 1.075 23.195-3.224 30.679-9.438 2.11-1.739 2.95-1.622 4.025.508 1.857 3.694 3.713 5.51 7.21 7.152 2.717 1.27 3.557 1.954 3.811 3.088 1.31 5.764 2.13 7.25 5.843 10.493l2.013 1.758-1.33 4.827c-.722 2.638-2.012 5.784-2.872 7.015-2.208 3.165-7.972 7.25-11.646 8.305-1.7.469-3.85 1.094-4.807 1.387-2.814.84-11.978 1.29-13.209.625-.977-.527-1.074-.957-.762-4.064.391-3.967-.078-6.312-1.7-8.383-1.29-1.622-4.338-2.599-7.015-2.247-5.862.996-10.415 4.28-13.268 7.953l-1.993 2.403c-2.032 2.462-2.423 4.377-1.25 5.902.37.469 2.168 1.68 4.005 2.657 3.713 1.954 5.51 4.299 4.963 6.429-.43 1.7-1.504 2.267-5.276 2.736-2.696.332-3.36.195-6.213-1.31-4.065-2.15-6.195-2.52-8.93-1.563-1.661.586-2.482 1.329-3.44 3.146-.703 1.31-1.27 3.068-1.27 3.908-.469 6.077 1.31 14.792 2.755 18.134 1.153 2.286 2.482 2.99 5.394 2.873 2.384-.078 3.79-.84 6.82-3.791 2.012-1.935 2.872-2.404 4.122-2.267 2.189.254 2.97 2.482 1.76 5.042-.724 1.485-1.603 2.15-4.378 3.263-3.967 1.583-5.335 3.283-5.393 6.683-.04 1.231.45 3.029 1.153 4.26 1.524 3.146 6.859 7.327 13.874 8.578 4.787.782 8.773-3.537 9.438-10.259.313-3.244.606-4.025 1.798-4.983 1.66-1.309 3.224-1.055 4.748.723.762.899.997 1.954.918 4.494-.195 6-.078 6.625 1.72 8.462 3.048 2.833 13.659-1.036 17.899-4.104 1.876-1.23 3.556-4.162 3.556-6.233 0-.977-.742-3.635-1.66-5.921-1.994-5.003-2.052-6.273-.313-8.285 1.114-1.27 1.543-1.446 2.345-.938 1.934 1.153 3.556 5.022 3.966 9.399.333 3.439.645 4.396 1.68 5.237 1.818 1.485 3.05 1.367 2.502-.215-.723-2.072-.528-6.038.45-9.497.527-1.817.957-4.924.957-6.937 0-3.478.723-6.82 1.68-7.894.254-.274.802.351 1.212 1.368.606 1.465.664 3.048.254 7.405-.547 6.058-.059 9.106 1.778 11.373 1.29 1.583 2.11.977 1.231-.938-.566-1.25-.352-2.032 1.935-6.643 2.5-5.08 2.599-5.413 2.833-11.275.137-3.322.41-6.058.625-6.058s.821.938 1.368 2.071c.704 1.427 1.095 3.791 1.27 7.582.215 4.963.41 5.706 1.759 7.406 2.423 3.068 2.755 2.814 2.404-1.817-.274-3.654-.137-4.495 1.074-7.074 2.892-6.175 4.807-11.43 5.433-14.988 1.016-5.843 1.875-4.397 1.973 3.283.098 7.25.977 10.357 3.752 13.13 1.876 1.877 2.618 1.857 2.13-.077-.919-3.576-.41-6.937 1.72-11.451 3.243-6.8 4.806-11.236 5.354-15.164 1.133-7.934 1.055-7.7 2.5-8.05 4.456-1.134 8.11.155 9.146 3.223.39 1.212.039 2.287-2.228 6.39-4.103 7.425-4.494 8.95-3.4 12.916.684 2.423 1.055 2.56 2.169.743.45-.723 3.693-4.26 7.19-7.856 10.885-11.177 13.445-15.457 12.644-21.22-.586-4.358-3.185-8.13-11.1-16.18-7.385-7.524-9.554-10.318-11.704-15.145-6.077-13.542 2.482-22.237 23.097-23.507 3.615-.234 8.461-.097 11.978.274 6.956.742 15.203.899 18.505.352l2.345-.41 1.094 2.598c1.036 2.423 4.631 14.401 6.35 21.202.411 1.68 1.427 5.647 2.228 8.832 1.857 7.348 2.248 12.643 1.056 14.93-1.056 2.012-3.85 3.81-5.94 3.81-3.362.02-7.895-3.967-9.654-8.5-.586-1.505-1.29-2.814-1.543-2.892-.274-.098-1.056.684-1.76 1.72-2.09 3.067-1.543 9.77 1.271 15.202 1.231 2.384 4.963 6.37 7.699 8.246 5.96 4.065 14.87 5.179 22.354 2.775 3.537-1.133 4.612-1.817 7.484-4.67 1.837-1.837 3.713-3.947 4.182-4.69l.84-1.348 4.084 1.895c3.244 1.505 4.944 1.935 8.227 2.091 4.181.215 6.37-.43 11.49-3.42.957-.566 1.797-.625 3.204-.234 2.834.782 7.484-.41 11.724-2.97 1.993-1.231 4.084-2.599 4.612-3.068 1.329-1.172 2.09-.332 3.693 4.006 1.895 5.139 1.641 12.27-.723 19.716-2.638 8.344-7.015 14.48-13.21 18.622-3.086 2.09-3.692 2.286-6.076 2.052-3.342-.313-5.257-2.052-6.957-6.332-2.247-5.627-2.813-6.702-4.044-7.562-1.798-1.27-4.612-1.016-7.582.645l-3.146 1.72c-4.67 4.924-12.545 10.396-13.581 16.746-.274 1.113-.02 1.876 1.016 3.107 1.172 1.387 1.934 1.72 4.826 2.032 1.896.215 3.87.625 4.397.899 2.814 1.485 2.228 4.982-1.094 6.37-1.798.762-2.736.782-7.367.176-2.912-.391-5.901-.567-6.663-.372-2.267.567-4.3 2.502-4.319 4.124-.176 6.585 3.361 14.46 6.37 20.518 1.388 2.755 2.892 3.85 5.296 3.85 1.329 0 2.872-1.525 7.757-7.798 3.635-4.63 6.117-6.468 7.875-5.784 1.466.567.977 3.322-1.074 6.038-3.557 4.651-3.87 6.84-1.27 9.38 4.318 4.045 12.622 7.601 18.328 7.582 3.146-.118 5.784-1.583 6.8-3.713.763-1.602.802-2.54.215-7.386-.703-6.058-.234-7.797 2.228-8.442 2.58-.664 4.299 1.954 4.299 6.585 0 4.788 1.075 8.07 3.38 10.2 2.15 2.11 16.492-3.302 18.642-5.158 3.44-3.205 4.163-7.094 2.248-11.978-.606-1.544-1.114-3.049-1.114-3.342 0-.312 1.075-1.036 2.403-1.602 1.544-.665 2.853-1.74 3.674-3.068 1.172-1.895 1.231-2.345.782-7.074-.743-8.11-.606-11.177.586-12.486 2.56-2.833 5.452.059 6.057 6.058.45 4.494 1.798 8.05 3.694 9.633 1.524 1.29 3.595 1.935 3.087.977-1.817-3.556-2.188-5.06-1.934-7.953.156-1.72.781-4.084 1.367-5.236.587-1.173 1.798-3.537 2.677-5.276.88-1.74 1.779-3.166 1.994-3.166.644-.02 1.387 1.778 1.817 4.377.215 1.368.586 2.853.801 3.322 3.087 6.605 4.983 8.832 7.504 8.832 1.602 0 1.621.176.195-3.42-1.544-3.868-1.524-7.073.059-11.743 1.621-4.788 1.797-12.526.351-15.926-2.012-4.71-.273-6.527 2.502-2.6 1.074 1.505 1.758 3.538 2.344 6.938.47 2.638 1.33 5.862 1.896 7.171 1.114 2.482 3.283 4.377 4.67 4.065.723-.176.723-.47.02-2.404-.958-2.657-1.056-8.832-.176-11.06.351-.899.625-3.537.625-5.882.02-4.064-.117-4.553-3.029-10.474-3.556-7.23-4.103-9.868-2.814-13.249 1.583-4.123 3.948-5.217 7.406-3.439 2.853 1.485 3.948 4.592 4.436 12.721.528 8.364 1.68 12.232 4.67 15.398 1.075 1.134 2.072 1.915 2.247 1.74.157-.157.04-1.564-.293-3.108-.84-3.908-.762-9.555.176-11.724.41-.996 1.603-4.533 2.619-7.875 1.426-4.728 1.836-7.034 1.836-10.493 0-4.045-.156-4.69-1.817-7.445-2.58-4.22-5.49-6.155-11.412-7.484-5.217-1.172-10.513-.957-14.167.547-1.72.704-3.341 1.134-3.595.958-.235-.176-1.603-1.74-3.03-3.44-4.18-4.963-7.6-6.975-13.15-7.757-4.592-.664-4.729-.742-7.426-3.498-5.12-5.256-12.467-8.285-23.41-9.692-2.598-.332-5.276-.82-5.96-1.094-1.172-.45-1.191-.567-.468-2.286 2.423-5.589 3.712-9.478 4.494-13.66.938-5.119 1.114-15.514.312-20.4-.273-1.68-.39-3.165-.254-3.302.333-.332 4.436 4.104 8.911 9.634 10.591 13.092 18.818 21.299 24.992 24.953 7.66 4.533 14.362 6.526 31.558 9.477 11.001 1.895 13.913 2.912 15.906 5.628 1.915 2.599 2.501 5.158 3.205 13.718.762 9.438 1.543 11.685 4.63 13.503 3.323 1.954 3.733 1.817 2.795-.86-1.446-4.123-1.524-8.598-.274-16.512 2.052-12.994 1.466-19.208-2.325-23.976-2.09-2.658-2.892-3.283-7.25-5.823-1.856-1.075-3.36-2.228-3.36-2.56 0-.332 1.328-2.052 2.97-3.83 7.464-8.09 10.708-15.593 11.353-26.282.664-10.669-4.475-23.39-15.36-37.87-4.943-6.585-5.256-7.445-4.494-12.701.723-4.983 1.622-6.78 4.866-9.77 5.843-5.394 12.565-4.3 16.922 2.774 1.27 2.033 1.68.938 1.075-2.892-1.212-7.64-3.85-11.509-9.692-14.245-2.795-1.309-3.908-1.504-8.207-1.485-4.202.02-5.452.274-8.266 1.544-6.136 2.814-9.927 7.953-11.998 16.258-.684 2.775-1.407 5.042-1.622 5.061-.606 0-3.107-5.276-4.084-8.617-1.895-6.527-.664-18.114 2.443-23.097 3.38-5.433 7.542-9.009 13.053-11.177 3.38-1.33 4.592-1.485 9.653-1.466 6.35.04 8.852.723 12.994 3.517 1.348.9 2.442 1.407 2.442 1.134 0-1.642-3.771-6.351-6.878-8.56-11.998-8.558-26.575-7.542-40.82 2.893-4.162 3.068-6.331 4.318-6.331 3.693 0-1.27 6.78-7.718 15.398-14.577a251.54 251.54 0 0 0 4.396-3.595c1.095-.938 3.83-3.166 6.077-4.964 10.708-8.617 22.413-21.475 27.083-29.78 6.019-10.708 10.396-24.133 12.154-37.225.567-4.338.176-11.02-.664-11.02-.273 0-.488.331-.488.722 0 1.954-6.586 17.04-10.396 23.82-1.036 1.818-5.765 8.676-8.383 12.135-5.667 7.484-17.547 19.345-23.468 23.45-.645.449-2.501 1.817-4.143 3.048-3.595 2.716-11.197 6.565-11.998 6.077-.352-.235.196-1.759 1.427-4.065 2.051-3.771 6.937-12.408 7.894-13.893 14.675-23.253 22.784-42.93 23.546-57.039.528-9.77-1.602-19.795-5.784-27.318-2.892-5.158-11.294-13.424-17.235-16.942-10.239-6.038-17.235-7.933-29.682-7.796zM123.14 82.657v.43c-.04-.078-.04-.235 0-.43zm3.244 360.43c.02-.02.097 0 .176.02l.508 1.25c-.059-.078-.098-.137-.137-.195-.45-.704-.645-1.036-.547-1.075z"></path><g fill="#fff"><g id="c"><path d="M270.02 81.414c-1.072-.053-.668 7.524 1.02 15.312.826 3.92 1.494 7.383 1.459 7.7-.036.299-.036 1.002-.018 1.53.123 1.792 1.072.034 1.371-2.515.211-1.758-.158-4.623-1.248-10.003-.861-4.148-1.547-8.262-1.564-9.159 0-.896-.211-1.95-.457-2.355-.211-.352-.405-.51-.563-.51zm6.01 75.736a1.07 1.07 0 0 0-.387.053c-.914.299-.756 1.969.246 2.601 1.231.756 7.595.282 9.546-.738 2.162-1.107 1.53-1.512-2.127-1.318-1.688.07-3.956-.053-5.045-.3-.827-.193-1.706-.298-2.233-.298zm25 8.65c-.457.053-.703.281-.703.686 0 1.037 3.762 3.094 7.225 3.955 3.41.844 6.962.633 11.638-.738 1.776-.51 5.344-1.23 7.928-1.618 4.5-.668 4.659-.738 3.235-1.318-1.899-.791-8.596-.37-11.655.72-3.657 1.302-9.58 1.09-13.272-.439-2.18-.914-3.621-1.318-4.395-1.248zm-39.24 8.38c-1.53 0-1.46.422.37 1.951 1.16.985 1.581 1.811 1.792 3.516.334 2.918.51 3.463 1.196 3.463.404 0 .51-1.002.369-3.2-.229-3.585-1.617-5.73-3.727-5.73zm-112.47 12.8c-.334-.035-1.547.738-2.918 1.863-1.952 1.6-3.622 2.514-5.432 2.936-2.479.598-2.55.65-1.389 1.16 2.25.967 4.764.704 6.399-.65 1.74-1.477 3.692-4.465 3.445-5.256-.017-.036-.052-.053-.105-.053zm99.44.12a3.104 3.104 0 0 0-.914.211c-.686.264-.58.51.615 1.459 1.336 1.072 1.442 1.424 1.653 5.485.193 3.797.316 4.236.949 3.604.51-.493.738-1.829.756-4.167.017-4.43-1.055-6.75-3.059-6.592zm-9.21 6.44c-.422-.018-.756.14-.967.475-.158.263.123.703.668.984 1.67.897 2.25 3.674 1.336 6.487-.422 1.318-.79 2.654-.79 2.936 0 1.072 1.001.492 1.792-1.038.44-.86.914-2.812 1.055-4.342.193-2.32.07-2.988-.844-4.13-.668-.862-1.547-1.337-2.25-1.372zm-10.49 4.55c-.176.018-.352.07-.527.123-.616.246-.37.686 1.107 2.11l1.864 1.81-.264 3.604c-.158 1.969-.158 3.727 0 3.885.527.528 1.107-.264 1.652-2.285 1.108-4.149-1.23-9.475-3.832-9.247zm.07 83.89c-.035 0-.035.018-.053.018-.562.562 2.479 4.975 4.255 6.17 1.758 1.195 3.234 1.442 3.726.65.159-.246-.21-.738-.826-1.054-.633-.317-2.408-1.811-3.973-3.34-1.459-1.424-2.813-2.48-3.129-2.444zM398.72 1.076c-.527-.017-1.758.668-4.166 2.25-5.82 3.833-12.5 10.302-15.98 15.488-3.815 5.66-8.772 17.351-8.772 20.638 0 .616-.159 1.248-.335 1.424s-.369.95-.457 1.705c-.07.756-.492 3.27-.931 5.59-.457 2.321-.827 4.554-.844 4.958-.07 2.25-1.547 11.022-2.426 14.362-.545 2.127-1.108 4.29-1.213 4.8-.756 3.34-1.969 7.049-3.287 10.195-.844 2.004-1.653 4.202-1.811 4.87l-.264 1.248 1.073-1.319c.597-.72 1.687-2.742 2.478-4.465 4.061-9.053 6.276-16.824 7.278-25.473.95-8.122 3.428-20.287 4.94-24.312 1.793-4.764 4.993-10.917 7.577-14.538 2.936-4.131 10.794-12.358 13.624-14.275 1.16-.808 2.197-1.617 2.303-1.828.088-.193.474-.37.861-.37s.703-.228.703-.491c0-.282-.105-.44-.351-.458zm-56.91 3.938c-.44 0-.791.299-.791.668 0 1.02-4.202 4.711-5.801 5.098-1.864.44-2.215.65-1.881 1.195.492.791 2.39.528 4.676-.65 2.373-1.196 3.762-2.813 4.272-4.958.246-1.054.14-1.353-.475-1.353zm61.83 5.45c-.615 0-5.748 5.01-7.506 7.295-3.64 4.782-5.854 14.1-5.362 22.713.21 3.675.809 6.839 2.303 12.165 4.764 16.93 5.713 22.15 5.608 30.887-.053 3.253.088 4.343.562 4.343.387 0 .914-1.16 1.283-2.813.792-3.569.721-8.35-.246-14.767-.738-5.063-1.213-6.997-4.113-16.42-4.044-13.131-3.92-23.468.404-31.994 1.371-2.707 4.957-7.84 6.399-9.124 1.02-.932 1.424-2.285.668-2.285zm-120.68 2.953c-.018 0-.018.018-.018.018-.105.087-.545.879-1.02 1.933-1.3 2.743-.93 5.925.968 8.737 1.652 2.426 6.803 6.364 11.339 8.65 6.908 3.498 9.387 5.66 11.18 9.809.616 1.441 1.302 2.619 1.495 2.637.21 0 .369-.844.369-1.864-.035-4.623-3.446-8.42-11.216-12.48-5.73-3.007-9.124-5.45-11.304-8.158-1.354-1.687-1.547-2.32-1.635-5.467-.07-1.951-.123-3.656-.14-3.797l-.018-.018zm56.02.58c-.264 0-.686.158-1.248.475-1.547.826-3.973 4.201-4.448 6.205-.193.791-.474 1.67-.633 1.934-.369.668-.65 5.766-.351 6.557.316.826 1.248.826 1.477.018.087-.334.404-1.917.703-3.534.562-2.988 1.846-6.065 3.92-9.405.95-1.512 1.143-2.25.58-2.25zM162.45 17.46c-.598 0-1.705.229-3.235.756-1.67.562-3.27.738-5.414.545l-3.059-.281 1.178.966c1.687 1.372 6.47 1.301 9.053-.14 2.075-1.178 2.479-1.846 1.477-1.846zm-15.54.949c-.44.018-.967.475-1.16 1.195-.194.81.21 2.268 1.178 4.342.826 1.74 1.634 3.64 1.828 4.255.51 1.705 1.195 1.336 1.02-.58-.088-.932-.633-3.042-1.214-4.712-.58-1.652-1.037-3.357-1.037-3.762 0-.527-.281-.773-.615-.738z" transform="translate(-70.195 49.2) scale(1.11156)"></path><path d="M413.38 18.673c-.387.018-.932.123-1.617.334-2.813.861-6.47 4.43-8.227 8.016-3.745 7.612-1.53 21.605 3.937 24.822 2.461 1.442 6.98 2.303 6.98 1.336 0-.246-.616-.668-1.372-.932-4.237-1.529-7.682-6.047-8.42-11.057-.545-3.744-.44-8.754.263-11.18.844-2.936 4.905-8.14 7.454-9.546 1.898-1.037 2.145-1.828 1.002-1.793zm29.57 2.918c-.088.018-.14.035-.176.07-.158.159.158.528.703.809.528.299 2.444 2.004 4.22 3.815 3.603 3.639 4.588 5.836 5.52 12.464.86 6.047.246 10.759-2.321 17.86-1.442 3.974-5.239 10.039-12.253 19.585-4.87 6.662-12.024 16.859-12.921 18.44-.334.58-1.916 3.147-3.516 5.679-9.721 15.347-14.767 28.057-16.208 40.802-1.67 14.732 4.623 27.108 26.053 51.174 10.495 11.796 13.378 15.663 16.859 22.572 2.97 5.889 3.938 12.657 2.461 17.316-.562 1.828.791 1.09 1.881-1.02 1.108-2.127 1.301-7.946.387-11.304-.826-3.059-4.5-10.407-7.102-14.169-1.39-2.004-5.256-6.574-12.306-14.556-14.046-15.892-20.427-25.068-24.066-34.614-3.094-8.121-1.758-21.992 3.393-34.913 3.304-8.315 11.216-21.605 21.675-36.477 1.16-1.635 2.69-3.867 3.428-4.975.738-1.09 2.144-2.988 3.129-4.219 2.724-3.34 8.262-11.69 9.827-14.819 6.293-12.517 5.906-26.123-.985-34.825-1.354-1.687-6.54-4.799-7.682-4.694zm-266.72.827a.868.868 0 0 0-.264.053c-.685.123-.984.79-1.23 2.883-.194 1.494-.493 3.34-.686 4.096-.07.263-.105.474-.123.65v.387c.053.176.211.158.51.053.404-.159.967-.774 1.248-1.372.299-.615.686-2.39.861-3.99.264-2.303.246-2.778-.316-2.76z" transform="translate(-70.195 49.2) scale(1.11156)"></path><path d="M173.93 30.487c-.035-.07-.035-.211 0-.387-.035.176-.035.317 0 .387zm81.18-6.628c-.387-.035-.984.176-1.653.668-.72.527-.843 1.072-.615 2.531.158 1.02.598 2.198.95 2.637.544.668.685.422.949-1.67-.65-3.058.228-2.285.668-3.305.228-.527.07-.826-.299-.861zm-73.62.492c-.738 0-.018 1.512 1.389 2.848 2.408 2.338 7.805 4.535 7.805 3.2 0-.212-.826-.774-1.863-1.231-1.02-.457-3.042-1.723-4.466-2.813-1.441-1.09-2.724-2.004-2.865-2.004zm-45.67 3.006c-.686-.018-1.986 1.653-6.381 7.542-.967 1.3-1.758 2.46-1.758 2.601 0 .686 1.195.07 2.97-1.529 1.073-.984 2.444-2.602 3.042-3.604s1.53-2.285 2.057-2.883c.527-.598.808-1.318.632-1.617-.193-.281-.334-.492-.562-.51zm147.43 1.495c-.14.018-.299.053-.457.123-1.424.545-1.881 7.77-.65 10.126 2.285 4.412 7.629 5.784 15.153 3.903 1.213-.3 2.285-.791 2.39-1.108.14-.44-1.02-.527-4.482-.316-5.292.316-9.194-.65-10.477-2.602-1.442-2.197-1.846-4.957-1.055-7.26.668-1.934.51-2.971-.422-2.866zm-27.31 3.92c-.316.035-.826.316-1.512.897-3.111 2.654-4.693 7.049-4.693 13.097-.018 5.168.474 6.152 2.39 4.94.563-.352.51-.844-.158-2.831-1.3-3.832.211-10.038 3.48-14.31.897-1.195.985-1.846.493-1.793z" transform="translate(-70.195 49.2) scale(1.11156)"></path><path d="M294.31 34.811c-.914.07-1.6.72-2.285 1.934-1.688 2.936-1.53 3.48 1.072 3.48 1.23 0 3.34-.228 4.729-.527 3.164-.668 3.217-1.53.176-3.446-1.618-1.037-2.778-1.529-3.692-1.441zm126.5 4.993c-.352-.035-.457.633-.281 1.986.369 2.708 2.443 4.888 4.64 4.888.88 0 1.741-.194 1.882-.422.14-.229-.51-.756-1.442-1.196-1.002-.492-2.215-1.705-3.006-3.059-.826-1.423-1.441-2.144-1.793-2.197zm-139.05.105c-.791 0-3.252 2.443-3.252 3.322 0 .704.422.598 2.285-.544 1.705-1.055 2.127-2.11 1.108-2.743-.036-.035-.088-.035-.141-.035zm65.69 1.494c-.316.035-.791.211-1.424.527-1.74.915-3.41.985-5.291.264-1.952-.738-2.18-.088-.493 1.354 1.178 1.037 1.794 1.213 3.41.984 1.196-.158 2.48-.756 3.235-1.512 1.073-1.072 1.231-1.687.563-1.617zm-220.46.58c-.193.035-.299.246-.299.668 0 1.195 2.233 3.955 3.674 4.536 1.389.562 3.27.58 3.27.035 0-.246-1.002-1.02-2.215-1.74-1.213-.704-2.514-1.688-2.865-2.18-.65-.915-1.23-1.372-1.565-1.32zm257.68.51c-.95-.053-3.112 7.313-4.237 14.609-.457 2.866-1.16 6.663-1.564 8.438-.405 1.758-.809 3.78-.914 4.465-.194 1.301-1.74 6.804-3.903 13.87-.703 2.303-1.283 4.659-1.283 5.239 0 .58-.158 1.213-.352 1.389-.176.193-.387.738-.457 1.213a62.14 62.14 0 0 1-.404 2.338c-.14.826-.37 2.408-.475 3.551a1531.15 1531.15 0 0 1-.773 6.715c-.475 3.868-.422 5.626.228 10.02.826 5.555 1.125 6.768 1.67 6.768.194 0 .334-4.078.352-9.07 0-11.778.844-16.841 3.762-22.537 1.16-2.268 2.97-5.257 3.99-6.61 1.037-1.372 1.881-2.585 1.881-2.725 0-.791-1.564.035-3.217 1.74-1.072 1.09-2.004 1.899-2.092 1.793-.105-.088.405-2.021 1.125-4.307 2.022-6.381 2.585-8.772 3.692-15.927.563-3.639 1.23-7.506 1.494-8.596 1.354-5.907 2.127-11.99 1.565-12.341-.035-.018-.053-.035-.088-.035zm-243.53 6.171c-.58 0-.563.193.123.932.932 1.037 1.195 3.2.615 4.904-.457 1.319 0 1.424 1.248.282 1.354-1.196 1.249-4.342-.175-5.345-.616-.421-1.424-.773-1.811-.773zm192.67 2.109c-.158.018-.246.264-.246.72 0 .95 1.635 6.118 2.232 7.103.387.615 1.249.65 1.249.053 0-.247-.44-1.899-1.002-3.674-.774-2.514-1.793-4.272-2.233-4.202zm-41.17 3.956c-1.283.37.018 8.385 3.586 22.22.176.686.246 1.969.176 2.848-.176 2.162.72 2.057 1.46-.176.755-2.285.35-5.397-1.618-12.077-.844-2.883-1.881-6.979-2.32-9.088-.44-2.128-1.003-3.815-1.284-3.727zm-164.82 4.043c-.299-.053-.598.457-.773 1.494-.282 1.74.439 4.43 2.056 7.665.51 1.002 1.073 2.725 1.284 3.797.193 1.09.562 2.373.826 2.866.562 1.037 2.918 1.177 2.918.175 0-.369-.316-.931-.72-1.265-.387-.334-.968-1.829-1.284-3.323-.299-1.494-1.195-3.92-1.987-5.414-.773-1.477-1.494-3.41-1.6-4.29-.122-1.09-.421-1.652-.72-1.705zm138.21 1.863c-.193-.035-.246.914-.334 3.48-.334 9.318-2.778 14.68-8.79 19.215-1.758 1.336-3.04 2.549-2.883 2.707.422.44 3.06-1.002 5.555-3.024 3.464-2.795 4.553-4.149 6.206-7.559 1.371-2.883 1.53-3.71 1.53-7.682 0-2.848-.264-5.08-.739-6.135-.264-.616-.44-.985-.545-1.002zm17.44 1.547c-.316 0-.492.861-.475 2.69 0 3.41.264 4.518 2.883 12.112 1.073 3.146 2.127 7.05 2.32 8.666.44 3.692.774 4.29 1.372 2.461.316-.949.299-2.619-.053-4.94-.299-1.916-1.16-5.502-1.898-7.963-.739-2.46-1.793-6.346-2.391-8.649-.72-2.883-1.354-4.36-1.758-4.377zm202.53.211c-.246 0-1.283 1.653-2.426 3.85-5.116 9.95-18.142 25.719-26.703 32.329-1.916 1.477-4.606 3.568-5.96 4.676-3.111 2.479-9.668 6.452-12.78 7.717-4.816 1.952-1.37 2.11 4.009.159 4.201-1.512 6.293-2.83 12.956-8.175.422-.351 2.443-1.951 4.5-3.586 4.114-3.27 9.827-9.089 13.642-13.888a283.363 283.363 0 0 1 3.551-4.43c3.657-4.377 10.073-17.298 9.247-18.634 0 0-.018-.018-.035-.018zm-210.01 7.225c-.334.088-.475 1.002-.475 3.164 0 3.041 1.09 7.647 3.99 16.841.265.844.476 2.514.476 3.727.017 1.213.158 2.725.334 3.358.597 2.25 1.142-.07 1.142-4.887 0-4.764-.527-7.33-3.129-15.628-.685-2.18-1.318-4.5-1.406-5.151-.088-.668-.44-1.301-.774-1.424-.07-.018-.105-.018-.158 0zm58.98 4.852c-.598 0-.51 2.356.123 3.534 1.143 2.127 4.957 3.357 6.838 2.214.827-.527.211-1.283-1.037-1.283-1.353 0-4.13-1.898-4.904-3.357-.334-.616-.792-1.108-1.02-1.108zm-148.53 2.092c-.492.07-.791.861-1.213 2.97-.598 2.954-1.635 5.363-3.674 8.457-1.02 1.547-.791 1.705.932.58 1.09-.703 2.18-2.215 4.113-5.678 1.037-1.829 1.09-6.118.07-6.311a.506.506 0 0 0-.228-.018zm-35.7.879c-.422 0-.738.457-.738 1.072 0 1.723-2.057 5.344-4.079 7.155-2.566 2.32-2.338 2.971.493 1.494 2.039-1.054 3.41-2.777 4.289-5.397.984-2.97 1.002-4.324.035-4.324zm68.56.492c-1.319 0-4.782 3.006-5.819 5.028-1.582 3.111-2.021 11.567-.545 10.653.229-.14.563-1.442.703-2.883.37-3.446 1.952-7.032 4.36-9.915 2.145-2.531 2.303-2.883 1.301-2.883zm-29.2 4.061a1.225 1.225 0 0 0-.334.105c-.246.159-.545 2.163-.668 4.466-.123 2.32-.44 4.5-.72 4.852-.757.984-1.196 2.39-.74 2.39.23 0 .757-.386 1.179-.861 1.107-1.266 2.865-6.346 2.865-8.262 0-1.46-.809-2.743-1.582-2.69zm143.47 4.87c-.264 0-.492.422-.492.914 0 4.325 4.606 7.594 8.579 6.083.668-.246 1.353-.827 1.511-1.248.246-.65-.052-.774-1.547-.704-1.02.053-2.46-.088-3.217-.299-1.336-.386-4.324-3.322-4.324-4.254a.507.507 0 0 0-.51-.492zm-138.83 1.67c-.492.088-1.125 1.283-1.688 3.428-.861 3.322-2.531 6.504-4.5 8.667-.896.984-.914 1.125-.193 1.125.457 0 1.758-.914 2.865-2.04 2.514-2.496 4.536-6.855 4.325-9.316-.106-1.319-.422-1.917-.809-1.864zm68.67 1.459c-.72-.053-1.336 2.655-1.037 4.729.457 3.024.51 3.252 2.215 8.526.826 2.584 1.512 5.66 1.512 6.82 0 2.321.79 2.831 1.283.81.492-1.9-.14-6.347-1.547-11.11-.686-2.321-1.371-5.398-1.547-6.84-.176-1.44-.51-2.741-.738-2.882-.053-.035-.106-.035-.141-.053zm-108.26 2.83c-.51 0-.668.299-.457.967.37 1.143-.932 6.47-2.197 8.93-1.249 2.461-3.323 4.395-4.852 4.588-.704.07-1.372.422-1.495.774-.298.914 2.673.773 4.325-.193 1.793-1.055 4.36-5.046 5.309-8.228.896-3.023.545-6.838-.633-6.838zm44.34.598c-.51.035-.932.967-1.547 3.375-.633 2.479-1.53 4.325-3.076 6.4-1.213 1.599-2.198 3.04-2.198 3.216 0 .686 2.936-1.248 4.237-2.777 3.111-3.692 4.729-9.827 2.69-10.214h-.106zm56.97 2.988c-.14.035-.316.264-.563.598-1.248 1.687-.826 4.113 1.583 9.088 1.265 2.62 2.426 5.731 2.549 6.909.28 2.496.879 2.778 1.353.65.422-1.916-.017-3.955-1.758-7.928-.756-1.775-1.652-4.342-1.986-5.713-.65-2.813-.844-3.692-1.178-3.604zm73.8 3.13c-.088 0-.193.053-.299.158-.422.422-.404 1.037.07 2.426 1.231 3.604 2.268 5.08 4.272 6.083 2.092 1.037 4.73 1.318 4.73.51 0-.264-.862-.932-1.917-1.46-2.25-1.16-4.87-4.008-5.872-6.398-.404-.967-.685-1.354-.984-1.319zm-86.56.841c-.035 0-.053.018-.088.018-.21.07-.334.527-.316 1.424.017 3.287.949 5.537 4.412 10.793 1.951 2.936 4.22 6.997 5.08 9.019 1.46 3.48 1.512 3.885 1.266 8.631-.158 2.778-.615 5.96-1.09 7.208-.457 1.23-1.177 3.568-1.617 5.203-.422 1.635-.861 3.077-.967 3.2-.105.123-1.195-.932-2.426-2.32-2.637-3.024-6.205-4.888-10.266-5.345-2.39-.263-3.252-.123-5.45.88-5.818 2.689-8.315 6.416-8.438 12.674-.105 6.135 1.67 9.862 6.804 14.257 1.511 1.266 2.619 2.532 2.478 2.76-.44.703-7.524.528-9.317-.228-3.023-1.266-6.627-6.382-8.56-12.183-1.179-3.464-2.427-4.483-2.954-2.391-.65 2.584 2.777 9.774 6.645 13.888 3.111 3.34 5.01 4.131 10.284 4.272 1.969.052 3.252-.3 5.713-1.547 1.74-.897 3.217-1.952 3.305-2.356.07-.475-.65-1.072-2.022-1.635-2.97-1.213-7.295-5.186-8.702-7.998-1.423-2.866-1.916-7.384-1.072-10.02 2.004-6.241 9.124-9.37 15.118-6.645 2.408 1.09 6.065 4.957 8.104 8.56.739 1.284 1.547 2.286 1.81 2.198.247-.088.757-1.81 1.09-3.85.352-2.021 1.214-5.695 1.952-8.157 2.145-7.26 2.303-8.227 2.04-12.886-.317-5.678-1.67-9.053-6.593-16.402-2.022-3.006-4.096-6.68-4.623-8.157-.65-1.863-1.231-2.847-1.6-2.865zm63.34.92c-.193 0-.264.176-.264.492 0 1.055 3.428 5.819 4.975 6.927 3.499 2.478 8.192 3.78 9.88 2.724.984-.615.527-1.248-.897-1.248-2.285 0-7.295-2.936-10.354-6.047-1.933-1.969-2.918-2.83-3.34-2.848zm-98.06.63c-.123 0-.264.035-.44.07-4.676.88-12.568 5.784-16.893 10.495-4.817 5.257-8.597 13.167-10.618 22.256-.422 1.899-.967 4.026-1.213 4.712-.247.685-.932 2.918-1.53 4.957-1.934 6.627-3.727 10.934-5.854 14.011-2.074 3.041-.932 3.217 1.635.246 1.002-1.16 2.778-4.008 3.92-6.31 2.092-4.237 2.707-6.083 6.048-18.125 2.812-10.143 5.678-15.61 11.339-21.588 3.357-3.55 6.434-6.012 10.829-8.596 2.918-1.705 3.603-2.215 2.777-2.127zm19.78 2.44c-.334.123-.563.65-.51 1.16.14 1.213-1.23 9.335-1.934 11.602-1.213 3.885-5.836 12.358-7.295 13.396-.475.334-4.623 7.33-5.397 9.089-.72 1.6-.826 6.786-.158 6.786.246 0 .844-1.178 1.318-2.602 1.178-3.569 2.936-6.68 7.419-13.29 4.447-6.54 5.52-8.825 6.487-13.8.914-4.694.949-12.657.07-12.341z" transform="translate(-70.195 49.2) scale(1.11156)"></path><path d="M238.34 106.66c-.299 0-.334.914-.352 3.639-.017 2.918-.316 4.957-1.09 7.032-1.02 2.83-1.423 6.733-.738 7.418.457.457.352.721 2.162-5.485 1.758-6.064 1.917-10.846.422-12.34-.158-.159-.298-.264-.404-.264zm57.45.56a.821.821 0 0 0-.176.088c-.756.72.352 4.887 1.899 7.19 2.883 4.29 6.31 5.59 10.038 3.832.914-.44 1.934-1.107 2.232-1.476.493-.58.053-.65-2.584-.405-2.76.246-3.357.14-4.887-.879-1.53-1.037-5.432-6.153-6.065-7.963-.105-.264-.281-.405-.457-.387zm-140.65 2.06c-.37 0-1.16.879-2.356 2.62-1.02 1.476-3.058 3.515-4.535 4.535-4.29 2.953-3.024 3.85 1.635 1.178 2.795-1.6 4.87-4.22 5.38-6.804.21-1.037.175-1.547-.124-1.529zm59.17 4.01c-1.16.176-7.454 6.258-9.721 9.546-4.132 5.977-6.68 14.556-8.456 28.53-.774 6.065-.932 6.874-1.74 8.808-1.284 3.094-.598 3.621 1.336.984 2.144-2.9 2.707-4.623 3.181-9.65.405-4.378 2.092-13.115 3.253-16.877 1.213-3.902 3.814-9.282 5.52-11.339 1.582-1.916 6.82-9.493 6.82-9.862 0-.123-.07-.158-.193-.14zm-77.65 5.34c-.035.018-.053.035-.053.088 0 1.494 3.042 5.397 5.327 6.838 2.32 1.46 4.096 1.916 4.096 1.073 0-.246-.88-1.02-1.969-1.74-1.072-.721-3.2-2.55-4.711-4.08-1.319-1.335-2.444-2.232-2.69-2.179zm143.99 5.22c-.053-.018-.105-.018-.123.018-.44.44 1.072 2.76 2.496 3.814 1.793 1.336 5.046 1.6 10.583.862 5.89-.791 8.755-.387 10.847 1.494 1.829 1.635 2.356.967 1.108-1.442s-3.288-3.181-7.419-2.812c-11.32 1.002-11.427 1.002-14.503-.65-1.353-.739-2.602-1.266-2.988-1.284zm-115.18.28c-.334 0-.58.633-.58 1.828 0 1.02-.299 3.041-.668 4.465-.563 2.145-.563 2.585-.018 2.585.37 0 .967-.616 1.354-1.372.967-1.916 1.336-4.94.809-6.346-.317-.79-.633-1.177-.897-1.16zm96.37.2c-.176.07-.211.51-.211 1.512 0 1.916-1.213 6.487-3.2 12.13-2.918 8.227-3.375 14.345-1.388 18.634 1.582 3.41 2.619 5.186 3.059 5.186.228 0 .562-1.143.738-2.514.685-5.098 2.637-9.124 6.487-13.378 4.324-4.8 5.941-7.647 6.697-11.831.563-3.13.282-7.243-.474-6.786-.211.14-.492 1.336-.615 2.637-.123 1.319-.827 3.973-1.565 5.907-1.16 3.04-1.969 4.166-5.819 8.033-2.707 2.743-4.852 5.397-5.45 6.769-.544 1.23-1.212 2.127-1.476 1.969-.264-.159-.457-1.635-.457-3.27 0-2.215.58-4.8 2.303-10.02 2.566-7.788 3.305-13.554 1.898-14.732-.246-.194-.404-.282-.527-.246zm195.93 3.83c-4.782-.088-10.829 2.092-15.804 5.713-3.27 2.391-8.227 7.173-9.475 9.16-1.916 3.058-1.46 3.216 1.53.527 4.236-3.798 9.51-7.946 11.69-9.194 3.743-2.18 11.021-4.202 15.873-4.448 2.532-.123 2.637-.176 1.582-.791-.633-.352-2.637-.774-4.465-.932-.316-.017-.615-.035-.932-.035zm-159.96 11.81c-1.705 0-3.34.176-3.973.51-1.758.932-10.372 1.16-12.728.316-2.584-.896-2.813-.21-.633 1.864 2.022 1.933 5.362 2.197 10.76.808 6.838-1.758 10.46-1.23 13.447 1.952 2.075 2.197 3.006 1.933 1.934-.563-.844-1.986-2.514-3.639-4.465-4.377-.88-.334-2.655-.51-4.342-.51zm-147.3 14.8c-.105-.018-.264.211-.457.563-.457.808-.72 2.865-.756 5.959-.035 4.377.07 4.957 1.582 8.034 1.67 3.393 4.553 6.346 6.188 6.346.686 0 .405-.598-1.3-2.69-3.13-3.85-4.36-7.4-4.73-13.677-.193-3.322-.263-4.5-.527-4.535zm317.66 1.55c-3.674 0-6.592 1.424-9.897 4.834-2.532 2.585-4.167 5.89-5.608 11.304-.598 2.303-.51 2.585-.264 3.674 1.055-.668 1.6-2.338 1.952-3.27 2.935-8.121 7.928-13.254 14.538-15.012 2.953-.791 2.619-1.53-.721-1.53zm-162.59 4.03c-.07-.018-.158 0-.281.018-.51.052-1.494.334-3.481.896-3.674 1.02-6.698 1.037-12.517.088-2.303-.37-3.727-.387-4.659-.035-1.88.72-1.09 1.23 3.534 2.355 4.588 1.126 7.067 1.266 10.108.563 2.531-.58 7.506-2.918 7.506-3.516 0-.21 0-.351-.21-.37zm11.08 11.91c-1.125.088-.703 1.037 1.143 1.986 7.084 3.622 10.249 4.114 15.769 2.409 4.746-1.477 4.693-1.442 4.13-2.004-.333-.334-2.267-.317-5.906.07-5.361.58-5.45.58-9.141-.773-2.04-.756-4.29-1.477-5.01-1.618-.282-.035-.528-.07-.739-.07h-.246zm-100.24.51c-.053 0-.088 0-.14.018-.757.105-2.022 1.125-4.343 3.34-6.662 6.276-7.559 7.014-13.8 11.128-6.117 4.025-12.692 7.453-20.726 10.794-2.232.931-4.078 1.863-4.078 2.092-.018.21.387.281.861.14.475-.123 3.323-.967 6.329-1.828 8.438-2.479 11.62-3.938 18.353-8.42 8.667-5.784 18.898-15.014 18.318-16.543-.176-.44-.422-.703-.774-.72zm111.12 7.04c-.264.018-.422.105-.422.264 0 .545 4.817 4.236 7.63 5.836 2.215 1.266 6.135 1.582 8.473.703 2.11-.808 1.441-1.37-1.846-1.582-3.024-.193-4.272-.668-9.282-3.516-1.88-1.055-3.744-1.723-4.553-1.705zm-5.87 11.51c-5.713 0-6.575.14-10.882 1.617-9.739 3.375-15.593 7.472-27.336 19.04-4.237 4.183-8.016 7.998-8.368 8.473-1.02 1.336.14 1.054 2.004-.475.914-.756 1.776-1.494 1.916-1.635.563-.598 10.83-9.739 11.708-10.425a253.61 253.61 0 0 0 3.007-2.356c4.447-3.48 9.475-4.535 13.044-2.724 2.672 1.37 3.586 3.023 3.955 7.19.018.21.264.386.527.386.282 0 .51-1.283.51-2.865 0-4.43-2.285-7.278-6.452-8.069l-1.74-.334 1.389-.563c2.988-1.23 6.873-.087 8.772 2.585 1.283 1.793 2.04 4.904 1.723 7.137-.352 2.549.053 2.707 1.037.387 1.881-4.553.088-9.353-4.483-11.884l-1.494-.827 2.865.194c4.835.316 7.015 3.393 6.91 9.721-.036 2.725.07 3.077.667 2.461.387-.386.914-1.793 1.16-3.129.756-4.131-1.037-8.21-4.676-10.583-.861-.58-.756-.615 1.02-.44 3.235.335 5.502 1.565 6.961 3.763 1.143 1.723 1.354 2.566 1.354 5.502 0 3.745.44 4.377 1.3 1.899 1.267-3.622.265-9.089-1.898-10.442-.562-.352-1.02-.791-1.02-.985 0-.386 3.042-.035 5.028.58 1.583.51 2.04.176 1.407-.984-.88-1.67-3.428-2.233-9.915-2.215zm12.37.72c-.37 0-.44.334-.211.879.211.475.65 2.11.984 3.639.81 3.71.264 6.997-2.566 15.066-3.657 10.442-4.606 14.064-5.292 20.111-1.23 10.706-.562 17.105 3.007 29.27.685 2.32 1.406 4.887 1.634 5.713.229.809 1.108 3.604 1.952 6.206 2.18 6.662 2.408 7.63 3.006 12.64.334 2.918.37 5.326.053 6.944-.827 4.377.457 4.29 1.74-.123 1.512-5.169.422-11.04-5.327-28.795-2.619-8.157-3.428-12.798-3.762-21.675-.386-10.618.229-14.45 4.184-26.053 3.165-9.23 3.305-9.88 3.323-14.38.017-3.815-.194-5.169-1.072-7.085-.598-1.283-1.336-2.355-1.653-2.355zm-199.54 1.04c-.809-.053-.281 2.356 1.125 5.116.809 1.617 1.477 3.568 1.477 4.342 0 1.722 1.459 2.004 1.564.299.194-2.708-.263-4.255-1.968-6.91-1.02-1.564-1.987-2.847-2.198-2.847zm-12.73 13.46c-1.072.193-1.283 2.813-.563 6.838.493 2.673.475 3.569-.14 5.257-.774 2.162-.598 4.658.351 4.658.317 0 .862-1.054 1.213-2.355.791-2.813.88-6.048.334-10.934-.334-2.918-.545-3.586-1.195-3.463zm90.71 3.38c-.316 0-.668.053-1.037.105-1.16.211-1.16.211.176.774 2.496 1.037 3.058 2.62 2.69 7.454-.177 2.373-.44 4.922-.616 5.678-.404 1.81.562 1.775 1.53-.07 1.037-2.022 1.74-6.927 1.318-9.247-.616-3.323-1.811-4.73-4.061-4.694zm-15.21 6.42a.826.826 0 0 0-.527.246c-.176.176-.106.615.158.967 2.127 2.9 2.39 3.533 2.426 5.924.017 1.407-.158 3.516-.387 4.659-.527 2.725.404 2.865 1.53.264 1.16-2.69 1.09-7.894-.124-9.95-.755-1.266-2.18-2.18-3.076-2.11zm-61.17.63a1.889 1.889 0 0 0-.686.088c-1.353.334-1.775 1.283-.562 1.283.861 0 2.496 2.268 2.936 4.096.58 2.426 1.441 1.582 1.177-1.16-.263-2.725-1.318-4.29-2.865-4.307zm265.31 6.64c-.527-.018-.615.475.088.914.246.158 1.74 2.004 3.322 4.114 5.643 7.577 14.046 16.49 19.548 20.709 4.73 3.639 14.398 9.159 17.896 10.214 4.237 1.283 7.12 1.74 12.235 1.88 3.27.089 4.096-.034 4.096-.597 0-.475-.773-.791-2.355-.967-5.907-.668-13.853-2.883-18.09-5.063-10.23-5.238-17.227-10.899-25.735-20.849-2.637-3.076-9.247-9.563-10.354-10.16-.246-.124-.475-.194-.65-.194zm-220.73.32c-.07.018-.14.053-.211.07-.773.3-.773.405.088 1.336.633.703.967 1.987 1.09 4.325.21 4.043.457 4.922 1.143 4.219.28-.281.65-2.18.79-4.184.264-3.463.194-3.727-1.001-4.834-.704-.65-1.372-.985-1.899-.932zm68.42 3.92c-2.514.053-6.962.492-10.688 1.143-9.827 1.722-16.507 6.61-27.108 19.794-5.08 6.346-8.667 10.23-12.921 13.958-1.46 1.265-1.46 1.3-.246.984.668-.193 2.021-.844 3.006-1.477 2.215-1.441 7.682-7.066 12.499-12.903 2.022-2.46 5.59-6.398 7.946-8.772 3.586-3.639 5.01-4.693 8.913-6.592 4.43-2.162 11.743-4.22 17.878-5.045 1.3-.176 2.514-.545 2.69-.809.087-.158-.3-.264-1.038-.281a8.186 8.186 0 0 0-.932 0zm-95.58 5.8c-.826.193-.387 7.682.65 9.264l.844 1.266 6.048-.228c3.322-.123 6.68-.387 7.418-.58.756-.176 1.371-.633 1.371-.985 0-.932-4.693-1.424-9.686-1.02l-4.114.334-.51-1.617c-.28-.914-.65-2.584-.826-3.727-.175-1.142-.633-2.338-1.002-2.654-.07-.053-.14-.07-.193-.053zm-27.95 1.14a.297.297 0 0 0-.176.053c-.72.738.598 2.514 2.989 4.043 1.74 1.107 3.146 2.567 4.236 4.342 3.165 5.204 5.257 6.417 7.858 4.606 1.583-1.125 1.46-2.409-.21-1.987-1.776.44-3.34-.685-5.415-3.92-1.881-2.936-3.34-4.29-5.784-5.256-.896-.352-2.021-.967-2.496-1.371-.37-.3-.756-.51-1.002-.51zm101.01 22.44c-.018 0-.018 0-.035.018-.158.158.105 1.6.597 3.2 1.231 4.095 4.026 7.207 8.298 9.264 5.327 2.549 7.295 2.619 14.204.457 1.16-.352 1.16-.352.387 1.177-.932 1.776-3.13 3.481-6.241 4.835-3.533 1.53-10.723 1.336-14.802-.387-3.692-1.565-7.471-4.606-9.58-7.682-.845-1.213-1.776-2.11-2.093-2.004-2.795.931 3.92 8.473 10.425 11.726 2.672 1.336 6.522 2.021 10.583 1.88 3.534-.122 4.73-.404 7.507-1.74 1.828-.879 3.937-2.303 4.693-3.2 1.653-1.95 3.622-6.17 4.008-8.543.317-1.951-.228-2.232-1.529-.79-.475.509-2.233 1.546-3.92 2.302-4.29 1.934-8.35 1.881-12.78-.176-4.079-1.88-5.96-3.674-7.911-7.524-.809-1.6-1.582-2.795-1.81-2.812zm241.14 5.27c-2.25 0-2.11.563.44 1.758 1.283.598 2.812 1.916 3.937 3.41 1.97 2.637 2.25 3.868 3.41 14.187.616 5.52.721 5.942 1.512 5.942.317 0 .44-2.865.334-8.086-.14-7.894-.193-8.175-1.652-11.04-1.776-3.481-5.256-6.17-7.981-6.17zm-292.35.44c-.545-.018-1.055 1.266-1.055 3.938 0 2.848.862 5.01 2.866 7.155 1.142 1.23 2.584 1.828 2.584 1.09 0-.159-.58-1.055-1.319-2.005-1.072-1.406-1.353-2.408-1.547-5.432-.193-3.094-.896-4.746-1.53-4.746zm85.77 4.2c-.299.053-.58.545-.756 1.494-.351 1.81.158 3.815 1.916 7.718.563 1.248.967 2.636.897 3.094-.07.457.105.966.387 1.142.896.563.58 3.393-.704 6.135-.685 1.46-2.795 4.36-4.676 6.452-3.428 3.832-5.01 6.61-5.01 8.86 0 1.565.809 1.055 1.688-1.072.387-.914 2.549-3.64 4.781-6.048 7.7-8.297 8.333-10.74 4.852-19.179-1.142-2.777-2.197-5.818-2.355-6.75-.211-1.3-.633-1.934-1.02-1.846zm86.72.9c-.264.07-.352.984-.123 2.725.738 6.135 4.993 12.429 10.038 14.89 2.514 1.248 3.375 1.406 7.56 1.389 5.238-.018 7.892-.633 10.582-2.444l1.81-1.23v1.423c0 2.655-1.915 7.718-3.726 9.827-2.62 3.059-4.219 3.727-9.792 3.99-4.887.23-5.73.58-3.744 1.636 3.129 1.687 7.7 1.722 11.356.088 4.834-2.18 7.524-6.663 8.315-13.905.404-3.692.228-10.02-.281-10.53-.141-.141-.598.316-1.038.984-2.953 4.623-7.506 6.944-13.57 6.944-7.26 0-12.588-4.184-15.418-12.112-.914-2.532-1.6-3.78-1.968-3.674zm76.01 23.48c-1.354 0-1.213 4.149.229 6.452 5.098 8.192 4.957 10.249-1.442 19.865-2.092 3.164-4.412 9.616-3.92 10.899.21.545.95-.528 2.355-3.323 1.126-2.267 3.499-6.117 5.24-8.561 3.533-4.94 4.412-6.961 4.447-10.091.035-2.549-.668-4.342-3.604-9.177-1.23-2.021-2.303-4.201-2.39-4.851-.106-.668-.51-1.213-.915-1.213zm29.33 1.38c-.773.053-1.512.334-2.567.932l-2.092 1.16 3.551.281c2.409.194 3.973.615 4.905 1.283 1.969 1.424 3.534 4.905 3.868 8.614.158 1.776.386 3.499.492 3.85.369 1.16 1.107.616 1.353-1.002.141-.879.194-3.111.106-4.94-.229-5.678-3.059-9.07-8.315-10.055a6.707 6.707 0 0 0-.95-.123h-.351zm-217.08.5a.51.51 0 0 0-.281.105c-.282.159-.51.721-.51 1.213 0 2.057-4.43 9.775-7.208 12.534-2.69 2.69-6.82 5.116-9.739 5.696-.773.158-1.406.475-1.406.703 0 .914 4.06.387 6.698-.861 5.326-2.531 11.567-10.108 12.675-15.382.51-2.461.404-4.026-.229-4.008zm82.14 1.96c-.37.123.14 1.969 1.635 5.063 2.18 4.448 5.608 7.876 9.493 9.475 3.815 1.565 6.873 1.565 10.372.018 1.512-.668 2.742-1.46 2.742-1.74 0-.335-1.687-.528-4.553-.528-6.487 0-9.739-1.02-13.149-4.131-1.494-1.389-3.393-3.692-4.219-5.133-1.23-2.198-2.04-3.13-2.32-3.024zm81.3 2.3c-.281.105-.158 1.266.58 3.569.844 2.549 1.055 4.412 1.037 9.14 0 6.593-.457 8.439-3.498 14.557-1.828 3.674-7.418 10.407-10.108 12.165-1.477.95-1.846 1.828-.791 1.81.352 0 1.74-.667 3.13-1.458 4.904-2.796 10.125-9.898 12.252-16.648 1.565-4.923 1.53-14.573-.053-18.634-1.107-2.883-2.092-4.448-2.496-4.5h-.053zm-204.36 3.36c-.404 0-2.11 1.055-3.973 2.444-2.057 1.547-4.096 2.69-4.782 2.69-1.213 0-1.547.491-.843 1.212.738.756 4.236-.158 5.959-1.547 2.233-1.81 4.272-4.447 3.692-4.799h-.053zm81.48.21c-.72 0-1.16.14-1.16.457 0 .281.316.51.668.51.369 0 1.547.756 2.602 1.687 1.828 1.583 1.933 1.846 1.916 4.36-.018 2.092-.387 3.34-1.617 5.52-.88 1.547-1.583 2.918-1.583 3.059 0 .756 1.108.053 2.215-1.424 4.958-6.487 4.905-12.288-.14-13.694-1.16-.316-2.163-.475-2.9-.475zm-94.95 6.96c-.281.018-.58.44-.791 1.266-.404 1.67.21 2.69 2.356 3.762 1.88.931 2.918 1.107 2.918.457 0-.598-2.32-3.059-2.9-3.059-.247 0-.599-.545-.774-1.23-.194-.81-.51-1.214-.809-1.196zm75.03 4.83c-.352.035-.58.193-.58.58 0 .264.21.492.492.492s.95.721 1.494 1.618c.756 1.23.985 2.496.985 5.45 0 .386 0 .825.017 1.142-.035 1.336-.158 2.672-.334 3.375-.158.703-.175.756-.175.826 0 .264.21.493.492.493a.49.49 0 0 0 .457-.352c.316-.791.457-1.6.896-2.97s.739-6.646.159-8.017c-.58-1.406-2.813-2.707-3.903-2.637zm-68.43 3.33c-.352.018-.37.598.158 1.617.88 1.688.88 2.004 0 3.692-.597 1.16-.615 1.371-.035 1.371.387 0 1.037-.492 1.46-1.107 1.054-1.494.966-2.971-.265-4.536-.562-.72-1.037-1.055-1.318-1.037zm255.97.8c-1.02 0-1.828.299-1.828.914 0 .404.492.809 1.107.897 1.776.246 3.973 2.69 4.57 5.08.3 1.213.774 2.602 1.056 3.094.281.475.369 1.09.193 1.354-.158.263-.053.492.246.492.281 0 .545-.281.563-.633.299-3.727-1.178-8.93-2.918-10.302-.774-.615-1.97-.896-2.989-.896zm-199.91 5.96c-.95.018-1.16.861-.193 1.81 1.107 1.126 2.549 5.415 2.549 7.613 0 1.933.861 1.775 1.424-.264.896-3.252-.792-8.333-3.007-9.036a2.609 2.609 0 0 0-.773-.123zm-75 .5c-.229.018-.58.246-1.072.703-1.143 1.037-1.143 3.077.017 8.386.317 1.37.422 3.78.246 5.361-.386 3.376.387 5.801 1.829 5.801.51 0 .931-.105.931-.246 0-.14-.28-.668-.597-1.195-.457-.72-.44-1.547.07-3.639.756-3.164.563-4.975-.967-9.053-.914-2.444-1.002-3.235-.562-4.43.44-1.16.457-1.723.105-1.688zM366.7 326c-.826 0-.299 1.107 1.969 4.078 2.549 3.358 3.48 3.06 1.652-.527-.949-1.828-2.69-3.551-3.621-3.551zm-131.58 2.04c-.492.018-.914.264-1.266.703-.527.615-.44.739.545.739 1.565 0 2.426 1.476 2.743 4.64.386 4.061.65 5.01 1.248 4.413.316-.317.457-2.145.334-4.57-.158-3.622-.3-4.15-1.407-4.993-.843-.65-1.564-.967-2.197-.932zm128.86.45c-.387.07-1.037.791-1.916 2.092-.756 1.16-2.461 3.076-3.78 4.272-1.318 1.178-2.268 2.355-2.127 2.584.334.545 2.39-.211 4.325-1.6 1.37-.967 3.832-5.291 3.85-6.733 0-.457-.123-.65-.352-.615zm70.84 2.01c-.475 0-.897.123-1.178.404-.351.352-.105.668.809 1.02 1.758.668 2.32 2.25 2.9 8.473.563 5.977.668 6.452 1.424 6.452.405 0 .51-1.951.387-6.68-.14-5.82-.299-6.839-1.213-8.052-.738-1.02-2.074-1.617-3.13-1.617zm-208.84 6.01c-.334.035-.65.193-.95.492-.439.44-.228.967.897 2.233.809.932 1.477 2.092 1.477 2.584s.14 1.037.316 1.23c.791.774 1.16.176 1.16-1.845 0-2.69-1.494-4.834-2.9-4.694zm195.54 1.41c-.879.035-1.617.264-1.81.738-.194.545.07.739.984.739 2.004 0 4.025 2.408 4.412 5.256.422 3.13.598 3.674 1.23 3.674.282 0 .51-1.178.51-2.742 0-2.69-.808-5.028-2.373-6.804-.545-.615-1.845-.914-2.953-.86zm-236.5 1.56c-.316-.035-.316.598-.105 2.022.21 1.441.087 2.566-.422 3.533-.422.791-.756 1.512-.756 1.617 0 .528 1.107.07 1.986-.808 1.23-1.213 1.354-4.536.211-5.678-.44-.44-.738-.668-.914-.686zm167.46.07a.996.996 0 0 0-.598.123c-.756.475-.51 2.145.457 3.112.528.527 2.04 1.072 3.534 1.283 3.27.422 5.485 2.356 5.485 4.764 0 2.443 1.213 1.53 1.37-1.055.124-1.863-.052-2.39-1.247-3.55-.914-.862-2.338-1.513-4.026-1.83-3.041-.58-3.55-.825-3.55-1.722 0-.562-.757-1.072-1.425-1.125zm-170.55 9.35c-.211.018-.457.07-.756.123-1.635.316-3.375 1.582-3.375 2.426 0 .58 3.445-.018 4.324-.756.352-.281.633-.844.633-1.248 0-.44-.21-.598-.826-.545zm22.22 1.37c-.105-.018-.193.018-.281.105-.176.159-.07 1.284.193 2.48.281 1.195.633 3.234.791 4.517.422 3.551 1.108 3.99 4.43 2.83 1.494-.527 4.008-.966 5.573-.966 2.285 0 3.182-.247 4.36-1.196 1.828-1.459 1.406-2.074-.897-1.318-1.125.369-2.373.422-3.656.123-1.407-.317-2.602-.229-4.255.299-1.265.404-2.619.615-3.006.474-.404-.158-.826-1.336-1.02-2.76-.28-2.074-1.494-4.447-2.232-4.588zm-27.15 4.1.457 1.107v.018c.545.668 1.899 1.653 3.217 2.285 1.406.704 3.287 1.97 4.184 2.796 1.283 1.213 3.147 2.53 3.692 2.619.035.017.65-.194 1.353-.457 1.653-.633 1.618-1.319-.07-1.74-.756-.194-2.39-1.302-3.639-2.462-1.67-1.564-2.97-2.285-4.975-2.742-1.477-.352-3.13-.88-3.674-1.16a12.214 12.214 0 0 0-.545-.264zm169.37.49a4.43 4.43 0 0 0-.967.105c-1.828.37-2.9 1.143-2.9 2.11 0 .914.21.861 2.496-.44 1.916-1.09 2.408-1.793 1.371-1.775zm-2.41 5.5c-.51-.018-.387.563.422 1.705 1.213 1.705 2.584 5.66 2.602 7.489.017.738.44 2.285.967 3.446 1.107 2.443 2.25 2.707 4.517 1.09 1.653-1.16 1.917-2.163.475-1.706-1.775.563-2.883-.562-3.498-3.516-.967-4.588-2.233-6.961-4.377-8.086-.51-.281-.862-.422-1.108-.422zm23.87 2.84c-.334.018-.51.299-.264.879.985 2.285.774 3.533-1.23 7.524-2.69 5.344-2.356 6.381 2.303 7.418 2.39.528 3.322-.158 1.793-1.318-.616-.457-1.6-1.195-2.215-1.635l-1.108-.79 1.424-2.902c1.53-3.111 1.828-6.152.826-8.05-.404-.757-1.09-1.161-1.53-1.126zm24.05 2.97c-.44-.035-.492.545-.018 1.705.387.914 1.038 3.885 1.442 6.575.562 3.885.95 5.063 1.81 5.766 1.337 1.072 1.038 1.09 3.833-.37 1.283-.667 3.692-1.37 5.326-1.546 2.919-.317 5.046-1.037 4.554-1.512-.704-.72-7.138-.615-9.089.14-2.9 1.09-3.48.721-3.885-2.39-.51-4.06-1.108-5.89-2.303-7.173-.756-.79-1.319-1.177-1.67-1.195zm-16.21 14.97c-.475 0-.773.088-.984.281-.405.405-.036.827 1.37 1.565 2.427 1.283 4.255 1.318 5.345.123.879-.967.334-1.934-.703-1.283-.3.175-1.653.035-3.006-.3-.897-.245-1.547-.368-2.022-.386z" transform="translate(-70.195 49.2) scale(1.11156)"></path></g></g><g fill="red"><g id="b" stroke="#000" stroke-width="1.969"><path d="M126.551 448.105c-2.11 8.93-2.775 16.394 4.533 22.256.098-5.999 1.33-11.06 4.905-17.43-2.384-2.345-6.077-4.631-9.438-4.827zm208.251 24.109c-.02 8.13-.684 17.235 13.795 25.247-2.52-8.012-3.908-14.48-3.107-21.025-3.36-2.755-7.523-4.084-10.689-4.22zm33.158 17.907c2.168-4.22 3.145-9.653 2.383-14.792 4.377-3.302 9.517-3.947 12.917-3.166-.86 7.855-3.244 13.737-15.301 17.959zm-37.305-76.208c-8.324-4.612-14.244-7.894-20.751-5.764 3.85 4.748 7.836 8.812 11.001 16.746 5.296-3.126 9.067-6.76 9.75-10.982zm-158.33 36.415c-1.954 9.32-9.184 15.867-18.446 17.938 3.42-5.53 5.823-9.829 6.038-14.968 3.4-1.837 7.757-3.322 12.408-2.97zM59.69 74.274c7.055-.918 12.214 2.423 17.646 5.276-1.857 4.026-4.573 7.27-7.895 10.318-2.11-6.351-5.373-11.1-9.75-15.593zm53.556 340.806c-7.387 2.95-13.406 8.246-17.294 15.32 6.214-1.173 12.565-2.228 18.779-2.775.801-3.85 1.72-7.992-1.485-12.545zm-21.02-158.141c-4.142-7.348-9.203-11.686-17.547-11.158 3.088 4.846 5.765 8.402 6.448 14.46 4.24 4.104 10.064-.45 11.1-3.302zm50.665 125.295c-6.253-6.918-13.777-9.986-21.983-9.106 4.123 5.08 8.793 9.848 12.194 15.652 6.194-2.463 7.366-4.436 9.79-6.547zM141.235 60.83c3.087 4.476 3.009 11.549 1.29 18.427-1.779 2.56-11.47-4.924-10.142-6.468 3.322-3.497 6.175-7.816 8.852-11.959zm-49.387-9.848c8.07.918 13.64 8.012 17.118 15.496-3.517 2.404-8.011 2.95-13.365.684.254-6.741-2.052-10.63-3.752-16.18zm-22.231 70.366c-5.295-.215-10.044-1.662-14.421-5.374-.391 12.31 9.106 17.704 17.039 16.747.195-3.283-.45-6.976-2.619-11.373zM61.88 282.66c-7.679 2.052-18.27 5.335-19.892 12.682 7.093-1.563 13.639-1.505 19.952-.254 1.602-3.596 1.192-7.66-.059-12.428zm1.246 52.466c-3.01-9.184-.372-14.695 3.107-21.163 2.716 1.348 5.862 4.103 8.07 7.718-4.455 4.026-8.188 8.305-11.177 13.445zm52.532-12.906c-1.798 4.67-5.022 11.236-19.501 13.992 2.911-3.889 5.06-7.523 5.784-11.783 4.63-1.72 10.473-2.657 13.717-2.208zm193.055 126.318c-6.858 6.331-14.831 12.994-14.128 22.432 5.51-6.057 12.35-8.109 19.248-9.223-.215-5.803-2.208-9.594-5.12-13.21z" stroke-width="2.189"></path><path d="M202.026 133.99c-10.415-10.141-29.955-9.106-37.674-18.856-2.716-3.557-3.967-6.996-4.397-10.18-2.52-17.94 27.572-24.974 26.673-4.104-.234 3.302-2.188 5.92-3.615 8.773 8.05 6 16.278 11.783 19.013 24.368z" stroke-width="2.756"></path></g></g><path d="M232.63 65.962c-5.942-4.553-19.531-4.694-20.621-18.072-.387-4.817 3.762-9.616 14.819-6.838-6.68-7.331-17.843-.88-17.245 6.996.598 7.999 4.008 14.327 23.047 17.913zm-47.77-44.283c1.3-1.424 2.69-3.762 3.797-5.344.475 1.353-.932 4.64-1.635 5.819-.369.896-1.547 1.054-2.074.457-.317-.422-.299-.633-.088-.932zm-33.8-7.225c.088-2.725-.65-5.063-1.46-7.383 2.163 1.37 3.605 3.656 4.326 6.908.369 1.125-2.936 1.899-2.866.475zm-25.25 17.667c-.95-2.162-2.356-4.237-3.762-6.311 2.408.211 3.955 2.408 5.432 4.887.826 1.46-1.002 2.584-1.67 1.424zm.21 41.277c-3.322.44-8.772-2.531-8.966-5.397 2.303 1.23 5.397 2.531 8.474 3.147.914.299 1.353 2.11.492 2.25zm14.6 114.252c-1.424-3.34-2.9-5.485-5.168-6.364 1.037 2.426 1.845 5.08 2.496 7.77.21.686 3.604.194 2.672-1.406zm-23.23 27.26c-3.217.14-6.258 1.09-8.632 1.863 1.16-3.058 4.571-3.181 7.402-4.008 1.335-.386 2.795 2.215 1.23 2.145zm5.63 27.15c-1.758 1.758-3.13 5.485-1.74 9.106.668-2.268 1.74-4.87 3.533-7.084.44-.528-1.107-2.62-1.793-2.022zm30.97 13c1.02-2.04 2.11-3.797 2.778-6.364.246-.756 2.25-.474 2.18.3-.37 3.48-2.339 5.888-4.958 6.064zm31.84 45.85c-2.461-4.149-5.221-6.24-8.28-6.17 2.409 2.848 5.15 5.414 5.766 7.787.334 1.266 3.217-.105 2.514-1.617zm-22.41 31.61c-3.13.703-5.907 3.2-7.418 6.258 2.76-1.336 5.52-2.936 8.28-3.99 1.001-.405.439-2.479-.862-2.268zm15.5 39.32c.51-2.514.545-5.133 1.688-8.473.597-1.618-2.374-1.776-2.497-.3-.105 2.356-.861 7.138.809 8.773zm27.64.09c.686-1.863 1.793-4.131 2.408-6.944.159-.914 2.55-1.371 2.497-.65-.352 3.568-2.356 6.205-4.905 7.594zm148.49-39.99c-2.285-4.553-5.274-5.643-8.034-6.381 2.32 2.619 4.747 5.238 5.766 8.438.44 1.142 2.655-.985 2.268-2.057zm-13.78 33.77c-2.496.984-4.764 2.918-7.085 4.676.352-2.602 2.391-5.362 6.153-6.891 1.073-.44 1.793 1.969.932 2.215zm27.95 18.48c.264 3.621 1.178 8.174 2.04 12.517-4.044-5.256-4.114-8.579-4.712-12.165 0-.95 2.584-1.213 2.672-.352zm28.93 8.28c1.582-2.004 3.41-4.483 3.024-7.858-.106-.826-2.356-.563-2.356.281-.035 2.303.018 5.028-.668 7.577z" transform="translate(-70.195 49.2) scale(1.11156)" id="d" fill="#fff"></path></g><g id="f" transform="translate(501.76)"><use xlink:href="#a" fill="red" stroke="#000" stroke-width="3.3"></use><use xlink:href="#b" fill="#00f"></use><use xlink:href="#c"></use><use xlink:href="#d"></use></g><use xlink:href="#e" x="501.76" y="501.76"></use><use xlink:href="#f" x="-501.76" y="501.76"></use></svg>