<svg xmlns="http://www.w3.org/2000/svg" xmlns:xlink="http://www.w3.org/1999/xlink" width="450" height="300"><path fill="#efd600" d="M0 0h450v300H0z"/><path d="M0 300c11.119 0 225-39.391 225-162V0H0z" fill="#fff"/><path fill="#d60021" d="M0 0h450v138H0z"/><path fill="#fff" d="M225 46h225v46H225z"/><path d="M450 152.821H226.645c.853 5.855 2.609 11.342 4.41 16.786h218.87l.075-16.786zm0 32.523H237.558c3.06 5.846 6.507 11.46 10.54 16.786H450v-16.786zm0 32.524H261.927c6.073 5.998 12.706 11.539 19.734 16.786h168.34v-16.786zm0 32.523H305.507c10.841 6.305 21.922 11.814 33.19 16.786H450v-16.786zm0 32.523h-70.191C414.076 294.103 441.519 299.197 450 300v-17.086z" fill="#d60021"/><g fill="#fcef3c"><path d="M152.027 63.274c-.188-.067-.274-.232-.191-.366s.017-.491-.144-.794c-.162-.303-.232-.55-.156-.55.173 0 1.04 1.658.92 1.759-.048.04-.241.018-.429-.049zm-11.216-.326c-2.853-.561-4.692-2.718-5.709-6.699-.7-2.741-1.227-4.156-1.781-4.782-.32-.361-.262-.632.404-1.907.427-.818.927-2.222 1.11-3.121.689-3.362 2.407-6.041 4.483-6.986 1.386-.632 4.187-.671 5.385-.077.478.238 1.135.749 1.459 1.135l.59.703.398-.958c.654-1.568 2.998-2.81 3.995-2.117.363.252.363.278 0 .24-1.665-.179-3.265 1.102-3.858 3.087l-.31 1.036-.702-.658c-1.44-1.347-3.514-1.896-4.972-1.313-.789.315-2.66 2.247-3.183 3.285-1.29 2.565-1.297 11.018-.01 13.761.328.7.904 1.516 1.28 1.812.71.56 1.697.726 1.697.286 0-.156.341-.154.884.003 1.823.531 3.51-.388 4.008-2.182.663-2.394-.077-5.319-1.512-5.974-.817-.374-1.558-1.96-1.27-2.722.166-.44.26-.468.538-.166.212.23.237.427.068.532-.424.262-.314.68.179.68.246 0 .84.403 1.319.898.927.957 2.741 1.665 3.573 1.394.398-.13.422-.106.114.113-.47.335-.507 4.511-.054 6.2l.287 1.068-.556-.749c-.635-.856-1.262-.969-1.518-.273-.545 1.481-2.675 3.152-4.293 3.366-1.022.135-2.99-.351-4.167-1.031-1.389-.802-1.796-.627-.82.352.422.423 1.532.945 2.84 1.336 2.061.616 2.112.822.104.428z"/><path d="M143.262 62.926c.224-.145.591-.258.816-.25.268.01.222.095-.136.25-.748.322-1.177.322-.68 0zm2.31-.862c.598-.311 1.332-.766 1.631-1.01.544-.445.544-.445 0 .206-.299.358-.937.818-1.418 1.022-1.316.558-1.447.424-.213-.218zm4.649-3.662c-.097-.253-.115-.52-.04-.596.075-.075.215.07.312.323s.115.521.04.596c-.075.075-.215-.07-.312-.323zm-10.925-.788c-.302-.462-.473-1.445-.535-3.066l-.09-2.387.27 2.453c.15 1.349.451 2.729.671 3.066.22.337.339.613.264.613-.075 0-.336-.306-.58-.68zm10.783-.524c-.012-.288.052-.449.143-.358.09.09.1.325.021.522-.087.217-.151.153-.164-.165zm-.272-1.636c-.012-.287.052-.448.143-.357.09.09.1.325.021.522-.087.217-.151.153-.164-.165zm-11.113-9.015c-.005-.45.05-.667.125-.482.075.184.08.552.01.817-.068.265-.13.114-.135-.335zm9.292-.069c-.098-.412-.299-.902-.446-1.09-.194-.247-.126-.34.251-.34.418 0 .528.214.563 1.09.05 1.265-.112 1.415-.368.34zm-9.071-1.35c-.009-1.084 1.885-3.624 2.701-3.622.232 0 .018.248-.476.55-.57.348-1.14 1.07-1.56 1.975-.364.784-.664 1.278-.665 1.098zm6.793-2.17c-1.193-1.23-1.042-1.397.229-.254.557.501 1.287 1.536 1.072 1.52-.043-.002-.628-.572-1.301-1.266zm2.72-1.398c-.002-.392.757-1.962.948-1.962.145 0-.11.7-.594 1.635-.194.374-.353.521-.354.327zM74.939 61.941c0-.077.129-.383.287-.68.356-.666.6-18.278.265-19.16-.128-.336-.61-.97-1.072-1.407-1.126-1.065-1.058-1.3.316-1.093 1.644.247 3.77-.23 6.157-1.382 1.136-.548 2.475-1.09 2.974-1.203.992-.224 2.49.165 2.49.647 0 .204-.105.195-.327-.027-.479-.48-.76-.4-.76.218 0 .3-.092.526-.205.502-.112-.024-.448.047-.747.156-1.714.629-2.38 1.077-3.119 2.1-.902 1.248-1.06 1.22-.395-.071.235-.456.358-.9.274-.984-.293-.294-1.324.89-1.96 2.249-.63 1.341-.64 1.499-.642 10.158l-.003 8.795.731.279c.405.154 2.275.242 4.192.197 3.237-.075 3.507-.124 4.165-.744.388-.365.833-1.162.99-1.772.798-3.094 1.635-4.946 2.688-5.944 1.05-.997 2.23-1.34 2.591-.753.095.155-.014.2-.256.107-.62-.239-1.84.134-1.698.52.067.181.259.3.427.262.168-.038.306.054.306.204s-.287.273-.638.273c-.712 0-1.537.767-1.537 1.43 0 .237-.121.473-.27.523-.426.144-1.09 3.097-1.09 4.855 0 1.298-.09 1.626-.475 1.726-.669.174-13.66.192-13.66.02zm36.86 62.928c-.068-1.647-.989-2.345-1.992-1.51-.494.411-.575.358-.46-.3.092-.534-.082-.784-.526-.751-.474.034-.601-.191-.446-.788.17-.652.068-.778-.462-.574-.374.143-.68.102-.68-.093 0-.194.258-.452.573-.574.647-.248.813-3.151.181-3.151-.216 0-.27-.199-.12-.442.174-.283.61-.122 1.217.45.646.608 1.217.804 1.8.619.47-.15.85-.398.847-.552-.014-.639-.74-1.369-1.468-1.476-1.09-.16-1.16-1.127-.16-2.203.984-1.059 2.136-1.172 3.01-.296.337.338.79.616 1.005.616.215 0 .477.452.582 1.004.16.837.014 1.026-.87 1.13-.586.068-1.118.422-1.188.79-.156.828 1.062 1.349 1.773.757.615-.511.81-.258 1.197 1.553.294 1.374-.296 1.896-.763.676-.148-.388-.511-.559-.884-.416-.347.134-.527.074-.4-.134.381-.617-.53-.925-1.866-.63-.817.18-1.174.465-1.035.83.137.358.002.475-.38.327-1.03-.396-.678 1.352.415 2.07 1.136.746 2.267.872 2.267.253 0-.226.277-.41.614-.41.87 0 .765.388-.379 1.389-.546.477-1.071 1.423-1.167 2.1-.16 1.141-.178 1.122-.235-.264zm-33.132.383c-.35-.423.11-.53 2.29-.53 1.502 0 3.162-.156 3.689-.347.804-.291.936-.225.815.41-.123.645-.61.776-3.25.877-2.16.083-3.24-.042-3.544-.41zm12.92.205c.712-.137.88-.372.69-.97-.19-.602-.053-.79.572-.79.452 0 .936.184 1.075.41.378.612 1.434.495 1.434-.159 0-.313-.645-.876-1.434-1.25-1.804-.86-1.813-1.098-.03-.87 1.666.214 3.102 1.334 3.102 2.42 0 .625-.115.685-.578.3-.642-.534-1.298.072-.856.79.16.26-.699.39-2.33.355-1.42-.031-2.16-.137-1.644-.236zm43.083.134c0-.086.368-.254.819-.372.45-.118.819-.047.819.158 0 .204-.369.372-.82.372-.45 0-.818-.071-.818-.158zm7.997-.172c-.399-.4-.223-1.365.2-1.102.23.142 1.428.259 2.662.259 1.595 0 2.244.158 2.244.546 0 .395-.675.542-2.444.53-1.344-.007-2.542-.113-2.662-.233zM86.5 124.196c-.367-.59-.273-.968.47-1.902.562-.707 1.121-1.046 1.42-.86.271.168 1.213.295 2.093.283 1.59-.022 1.595-.016.908.896-.516.687-.995.873-1.901.74-.893-.131-1.384.052-1.871.7-.624.83-.686.837-1.119.143zm44.895-.98c0-1.186.973-2.004 2.327-1.957.588.02.546.106-.204.407-1.196.481-.732 1.352.586 1.1.537-.103.976-.073.976.067 0 .47-1.833 1.456-2.764 1.487-.74.024-.921-.193-.921-1.104zm7.374.49c-.336-.212-1.047-.277-1.58-.142-.845.212-.918.145-.57-.53.219-.426.323-.981.232-1.233-.09-.253.44-.58 1.179-.728.865-.174 1.4-.102 1.5.202.086.259.468.783.848 1.164 1.255 1.258-.03 2.27-1.61 1.268zm-55.857-2.025c.193-1.38.102-1.643-.648-1.882-.634-.202-.757-.415-.452-.784.583-.704-.65-2.438-1.5-2.11-.509.195-.535.127-.14-.35.391-.473.342-.676-.246-1.005-.404-.228-.59-.559-.413-.736.177-.178.7-.087 1.162.202.462.29.884.468.937.395.052-.072.403-.587.779-1.146.498-.74.683-.832.683-.338 0 .373.322.762.716.865.54.141.49.2-.204.235-.507.027-.922.21-.922.408 0 .606 1.185 1.387 1.765 1.164.567-.218 1.746 1.251 1.335 1.663-.128.129-.233-.004-.233-.295 0-.42-.125-.426-.606-.025-.48.4-.509.686-.138 1.384.414.778.393.818-.176.348-.795-.657-1.296-.03-.922 1.152.3.946-.089 2.46-.63 2.46-.204 0-.27-.722-.147-1.605zm61.389.68c-.095-.281-.227-.974-.294-1.539-.068-.564-.347-1.026-.621-1.026-.847 0-2.224-1.436-2.085-2.174.072-.385.545-.882 1.05-1.105.505-.223.919-.72.919-1.104 0-.385.184-.814.41-.954.225-.14.409-.704.409-1.255 0-.729.224-1.003.819-1.003.953 0 1.107 1.033.205 1.38-.773.298-.81 1.494-.047 1.494.312 0 .868.46 1.235 1.023.647.99.638 1.02-.26.924-.775-.083-.933.104-.96 1.132-.016.677-.175 1.555-.35 1.951-.177.396-.205 1.18-.064 1.745.259 1.034-.047 1.463-.366.512zM94.846 119.7l-1.945-.154v-3.24h12.94l.536 1.488c.447 1.24.444 1.546-.02 1.841-.538.341-7.515.38-11.511.065zm23.576-.031c-1.278-.183-1.907-1.118-1.594-2.368l.268-1.07 8.48.218c4.663.12 8.486.229 8.495.243.288.48.053 2.526-.318 2.76-.487.307-13.416.49-15.331.217zm-32.661-3.653c-.223-.585-.176-.632.229-.23.28.279.406.61.28.736-.127.127-.356-.101-.51-.506zm60.988-.942c.14-.225.427-.41.639-.41.212 0 .385.185.385.41s-.287.411-.638.411c-.351 0-.525-.185-.386-.41zm-57.784-.585c-.123-.323-.164-1.015-.09-1.54l.135-.953 10.135-.12c5.861-.07 10.135.035 10.135.25 0 .204-.461.283-1.026.175-1.285-.247-2.25.524-2.25 1.797v.976h-8.407c-6.905 0-8.448-.104-8.632-.585zm28.369.312c-.15-.15-.273-.552-.273-.892 0-.34-.305-.955-.678-1.368-.654-.724-.466-.75 5.28-.75 6.427 0 6.454.01 6.454 2.29v.993h-5.255c-2.89 0-5.378-.123-5.528-.273zm17.417-.22c-.72-.721-.63-2.79.123-2.79.444 0 .614.455.614 1.641 0 1.813-.03 1.859-.737 1.15zm-41.017-4.424c-.268-.166-.425-.924-.352-1.694l.133-1.394 15.274-.046 15.275-.046-.123 1.688-.123 1.688-14.8.052c-8.14.029-15.018-.083-15.284-.248zm36.803-.111c-.328-.896-.318-2.772.014-2.772.238 0 .433.647.433 1.437s-.092 1.437-.205 1.437c-.113 0-.222-.046-.242-.102zM100.27 98.465V91.26l8.293.104 8.292.104.112 7.033.112 7.032-8.404.067-8.405.067v-7.204zm22.932-.017c0-5.747.093-6.773.615-6.773.515 0 .614.892.614 5.566 0 3.606-.144 5.477-.41 5.312-.225-.14-.41.024-.41.363s.185.73.41.87c.633.391.484 1.436-.204 1.436-.522 0-.615-1.026-.615-6.774zm-24.98-9.613c0-.884.248-1.296.922-1.533 1.424-.501 26.614-.16 27.25.37.293.243.478.828.41 1.3-.12.847-.274.858-14.352.964l-14.23.108v-1.209zm6.143-12.136c0-10.282-.557-9.359 5.528-9.16l3.686.121.11 8.929.11 8.929h-9.434v-8.819zm13.943.3c.003-8.267.213-9.956 1.163-9.367.31.192.455 3.069.455 9.084 0 8.498-.028 8.802-.81 8.802s-.811-.302-.808-8.518zm-14.546-11.332c-.476-.35-.66-.815-.493-1.251.24-.629 1.116-.683 9.178-.573l8.912.122.13 1.13.13 1.128h-8.55c-6.546 0-8.725-.13-9.307-.556zm1.105-10.22.112-7.082 4.197-.117c2.309-.064 4.208.028 4.221.206.014.177.12 3.416.237 7.198l.213 6.876h-9.092l.112-7.081zm13.42-.103c0-6.112.092-7.184.615-7.184s.614 1.072.614 7.184c0 6.113-.092 7.184-.614 7.184-.523 0-.614-1.071-.614-7.184zm-10.783-8.447c-3.849-.226-5.13-.706-4.521-1.694.11-.18 4.337-.327 9.391-.327 9.352 0 9.782.073 8.875 1.502-.365.575-7.932.86-13.745.519zm-2.96-4.382c-.472-2.159-.973-3.43-1.83-4.636-1.31-1.843.043-1.588 1.547.292 1.452 1.813 2.54 1.7 2.314-.242-.26-2.233 2.023-1.218 2.532 1.126a26.31 26.31 0 0 0 1.197 3.87c.245.607.058.72-1.195.72-1.188 0-1.58-.207-1.952-1.027-.257-.564-.601-1.026-.766-1.026-.165 0-.415.462-.556 1.026-.34 1.357-.984 1.305-1.292-.103zm10.676.036c.174-.64.444-1.94.6-2.887.306-1.86 1.02-2.999 1.878-2.999.382 0 .473.4.314 1.385-.343 2.117.509 2.227 2.286.298.852-.926 1.851-1.683 2.22-1.683.595 0 .58.152-.133 1.327-.443.73-1.11 2.3-1.483 3.49-.5 1.592-.88 2.162-1.442 2.162-.575 0-.763-.304-.763-1.231 0-1.539-.605-1.586-1.312-.103-.318.667-.936 1.186-1.51 1.267-.883.126-.942.034-.655-1.026zm-1.846-2.725c0-3.117.014-3.16 1.048-3.16.584 0 .937.178.798.404-.137.222-.42 1.456-.629 2.74-.597 3.683-1.217 3.691-1.217.016zm-13.85-5.31.131-.93h12.9c12.626 0 12.899.018 12.899.822 0 .801-.31.823-13.031.929l-13.03.108.13-.93zm2.793-2.716c0-.727.913-2.935 1.213-2.935.725 0 2.473 1.763 2.473 2.493 0 .933-1.036 1.066-1.377.176-.13-.339-.426-.616-.658-.616s-.422.277-.422.616-.277.616-.615.616c-.337 0-.614-.158-.614-.35zm5.733-.042c0-.93 1.01-2.487 1.771-2.73.982-.312 1.915.746 1.915 2.174 0 1.123-.605 1.238-1.209.23-.409-.685-.45-.685-.86 0-.453.757-1.617.992-1.617.326zm5.324-.245c0-.983 1.19-3.059 1.75-3.052.848.01 1.455.575 1.91 1.774.61 1.611.55 1.915-.384 1.915-.601 0-.82-.274-.82-1.027 0-.564-.154-1.026-.343-1.026-.19 0-.554.462-.81 1.026-.519 1.141-1.303 1.376-1.303.39zm5.733.076c0-.765 1.58-2.724 2.197-2.724.275 0 .697.74.937 1.643.24.903.279 1.642.085 1.642s-.363-.416-.374-.924l-.022-.924-.643.924c-.703 1.011-2.18 1.257-2.18.363zm-13.674-2.942c-.426-.315-.96-.635-1.185-.71-.445-.149.27-1.746 1.195-2.675.754-.756 1.949-.043 2.61 1.558.403.974.412 1.383.043 1.753-.37.37-.538.27-.721-.433-.316-1.212-.876-1.168-1.038.081-.117.903-.204.944-.904.426zm11.953-.45c-.515-.517-.572-.915-.26-1.811.612-1.76 1.588-1.888 2.929-.383 1.096 1.23 1.116 1.323.41 1.86-.876.666-1.514.766-1.154.181.14-.225.115-.634-.054-.908-.206-.335-.456-.134-.76.611-.415 1.02-.505 1.057-1.111.45zm-6.162-.198c-1.005-.57-.892-1.7.28-2.803l.996-.938 1.08 1.082c1.176 1.18 1.221 2.41.096 2.627-.491.095-.712-.126-.712-.714 0-1.19-.737-1.067-.894.15-.107.824-.257.93-.846.596zm-3.325-3.45c-.682-.505-.699-.637-.152-1.185.973-.975 2.54-1.213 3.149-.478.432.523.433.761.007 1.276-.364.44-.655.502-.951.205-.59-.592-.998-.535-1.155.16-.113.503-.243.506-.899.021zm8.137-.2c-.313-.987-.913-1.074-1.096-.16-.115.576-.225.559-.846-.13-.607-.675-.632-.904-.166-1.543.636-.872 2.105-.663 3.477.494l.859.724-.984.717c-.948.69-.994.686-1.244-.103zm-4.267-2.218c-.39-.471-.314-.64.386-.863 1.12-.357 1.28-.17.626.726-.452.62-.597.639-1.012.137zm.377-4.12v-1.825l-1.74-.126c-2.185-.158-1.929-.947.307-.947h1.638l-.026-1.95c-.022-1.658.092-1.95.76-1.95.514 0 .709.204.562.587-.123.322-.347 1.241-.497 2.042l-.272 1.457 2.09-.227c1.934-.209 2.092-.16 2.092.651 0 .807-.148.855-1.843.6l-1.842-.277v1.894c0 1.41-.157 1.894-.615 1.894-.454 0-.614-.476-.614-1.824z"/></g><path d="M150.75 63.507c-.523-.28-1.304-.881-1.736-1.336l-.785-.828-.892.682c-3.66 2.799-9.144 2.057-11.411-1.543-.716-1.137-1.476-3.106-1.482-3.843-.01-1.05-1.389-4.49-2.023-5.044-.534-.466-.602-.65-.325-.88.665-.554 1.745-2.896 2.087-4.525.189-.9.446-1.752.572-1.894.126-.143.231-.45.235-.682.003-.232.248-.729.545-1.103.536-.678.536-.674-.003.576-.298.692-.706 2.04-.907 2.998-.2.957-.749 2.47-1.219 3.362-.733 1.393-.8 1.682-.48 2.044.562.636 1.142 2.188 1.809 4.842 1.17 4.656 3.514 6.889 7.233 6.889 2.383 0 4.095-.58 5.252-1.777l.906-.936 1.04 1.13c.572.62 1.11 1.059 1.194.974.117-.117-1.22-2.118-1.933-2.893-.049-.053-.433.231-.854.632-1.759 1.672-4.661 2.631-6.378 2.107a25.61 25.61 0 0 0-1.607-.431c-.736-.162-2.512-1.53-1.988-1.531.169 0 .446.167.615.372.528.638 3.228 1.34 4.57 1.19 1.54-.175 3.252-1.351 3.957-2.72.29-.563.679-1.023.865-1.023.185 0 .675.46 1.088 1.022l.75 1.022-.162-.817c-.836-4.225-.822-6.866.037-7.153.242-.08.328.529.323 2.295-.004 1.323.047 2.712.114 3.086.173.97 1.137 3.619 1.574 4.325.308.497.309.635.007.824-.288.18-.27.261.09.4.74.284 1.224.2 1.224-.212 0-.212-.091-.427-.204-.477-.333-.148-1.393-2.694-1.854-4.45-.24-.915-.426-2.703-.422-4.056l.007-2.42-1.226.17c-1.509.207-2.844-.302-3.809-1.451-.382-.456-.863-.828-1.07-.828-.223 0-.31-.167-.217-.412.087-.227.023-.575-.142-.775-.165-.199-.209-.47-.098-.6.11-.132-.013-.075-.274.126-1.04.799-.276 3.522 1.113 3.964.711.226 1.401 1.883 1.4 3.36-.003 3.049-1.125 4.575-3.19 4.344-2.62-.293-3.215-1.333-3.641-6.372-.403-4.766-.17-7.493.807-9.424.824-1.63 2.293-2.562 3.548-2.25.936.23 3.764 3.154 4.002 4.135.103.424.352 1.012.554 1.308.32.469.368.208.374-2.044.007-2.82.559-4.604 1.705-5.505l.6-.471-.594-.006c-1.103-.011-2.236 2.417-2.254 4.831-.004.487-.13.886-.279.886-.15 0-.272-.162-.272-.36 0-.681-1.892-2.575-3.03-3.03-1.493-.6-2.93-.355-4.014.684-1.587 1.52-1.737 2.248-1.765 8.565-.014 3.147.066 6.049.178 6.448.111.399.64 1.176 1.175 1.728 1.142 1.18 1.117 1.407-.07.654-1.343-.853-1.98-2.566-2.254-6.063-.296-3.784-.297-3.677.06-6.31.33-2.445.652-3.238 1.882-4.643 1.963-2.24 4.44-2.393 6.519-.401.956.916 1.105.864 1.567-.542.674-2.056 2.637-3.37 3.806-2.548.695.488.74.096.082-.719-.452-.558-.572-.578-1.693-.275-1.28.346-2.986 1.87-2.986 2.668 0 .354-.089.323-.418-.147-.622-.891-2.694-1.705-4.34-1.705-1.824 0-3.118.55-4.681 1.988-.756.694-1.126.916-.94.563.377-.713 1.723-1.873 2.858-2.461.496-.258 1.568-.447 2.618-.462 1.44-.02 2.056.118 3.25.73l1.474.757.933-.963c1.062-1.097 2.816-1.702 3.862-1.334.917.324 1.309 1.494.812 2.424-.323.606-.53.698-1.388.616-1.58-.151-1.954.727-1.908 4.47.033 2.643-.013 2.967-.416 2.89-.249-.049-.857-.885-1.351-1.86-2.343-4.616-5.164-5.408-6.94-1.946-.598 1.167-.63 1.508-.63 6.833 0 5.01.055 5.695.514 6.454 1.1 1.822 3.56 2.39 4.692 1.085.737-.85 1.05-2.996.651-4.478-.202-.752-.615-1.36-1.26-1.853-2.37-1.813-2.3-4.994.112-5.063 1.474-.042 1.999.926 1.532 2.827-.162.66-.064.775 1.106 1.294 1.2.532 1.361.543 2.483.16.66-.224 1.238-.407 1.286-.407.047 0 .091 1.318.098 2.93.015 3.418.439 5.253 1.818 7.858.74 1.398.894 1.9.633 2.065-.546.347-1.356.244-2.383-.305zm-78.11.153c0-.058.484-.693 1.074-1.409.721-.875 1.1-1.623 1.156-2.278.05-.6.148-.813.255-.554.24.582-.416 2.381-1.102 3.022-.768.717-.727.785.452.754.874-.024.922-.055.34-.217-1.659-.464.723-.698 7.146-.704 5.688-.005 6.778-.07 6.995-.415.142-.225.262-1.144.266-2.044.01-1.86.532-3.88 1.119-4.33a.874.874 0 0 0 .296-.792c-.074-.361.195-.607 1.017-.93 1.017-.401 1.417-1.133.525-.961-.224.043-.172-.086.128-.322.568-.446 1.265-.292 1.265.28 0 .208.122.379.272.379.473 0 .293-1.06-.228-1.34-.98-.525-2.997.482-3.683 1.838-.397.786-1.269 3.317-1.76 5.112-.522 1.906-1.005 2.143-4.583 2.249-1.722.05-3.544.014-4.05-.08l-.919-.174V52.06c0-7.939.044-8.787.517-9.866.563-1.289 1.363-2.441 1.377-1.985.005.157-.138.433-.317.613-.35.351-.988 18.994-.66 19.322a.237.237 0 0 0 .334.008c.09-.09.156-3.82.147-8.289-.018-9.026.101-9.857 1.671-11.638.98-1.113 2.64-1.666 2.64-.881 0 .243.112.442.25.442.136 0 .442.075.679.166.24.092.43.025.43-.152 0-.175-.117-.246-.259-.158-.142.088-.386-.08-.543-.375-.385-.72-.36-.855.122-.67.285.11.408-.02.408-.433 0-.324.122-.514.272-.421.15.092.271.467.271.833 0 .366.13.665.289.665.167 0 .252-.43.204-1.022-.074-.894-.2-1.059-1.019-1.324-1.172-.38-2.635-.007-5.363 1.366-1.07.54-2.172.972-2.446.961-.279-.01-.075-.176.46-.373.528-.195 1.62-.69 2.427-1.1 2.343-1.19 3.5-1.52 4.681-1.33 1.336.214 1.984 1.069 1.72 2.27-.361 1.65-1.48 2.08-2.858 1.095l-.766-.547-.878.74c-1.807 1.525-1.875 1.946-1.881 11.74l-.006 8.798 3.194-.077 3.194-.077.589-1.226c.323-.674.735-1.717.915-2.316.814-2.717 1.459-4.002 2.399-4.779 1.287-1.064 2.81-1.123 3.456-.134.41.625.405.746-.061 1.703-.416.852-.7 1.073-1.65 1.285-1.108.246-1.157.303-1.465 1.681-.263 1.179-.238 1.868.144 3.96.254 1.395.592 2.692.751 2.884.234.282-1.58.349-9.53.349-5.4 0-9.82-.048-9.82-.107z"/><path d="M75.087 48.47v-6.304l-.912-.863c-.935-.883-1.673-2.014-1.457-2.23.066-.067 1.085-.001 2.264.146l2.144.268-1.97-.108c-1.297-.07-1.972-.006-1.972.187 0 .162.49.827 1.088 1.477l1.087 1.183V48.5c0 3.45-.061 6.274-.136 6.274-.075 0-.136-2.837-.136-6.304zm35.543 79.47c-4.404-.08-6.86-.276-6.86-.55 0-.612.862-2.17 1.39-2.513.246-.16.9-.177 1.452-.037l1.005.252-.9-1.146c-.494-.63-.899-1.471-.899-1.868 0-.996-.467-1.09-4.914-.994-4.971.107-4.75.052-3.917.975.393.435.864 1.457 1.047 2.27.555 2.468-.074 2.75-5.459 2.44-2.513-.145-4.876-.423-5.25-.619-.42-.22-1.052-.162-1.655.152-.658.343-2.135.441-4.53.303-3.015-.174-3.698-.35-4.488-1.153-.925-.94-.926-.951-.116-1.555.45-.334 1.186-.554 1.638-.489.664.095.914-.237 1.299-1.73a78.65 78.65 0 0 1 .77-2.792c.266-.856.193-.92-.77-.677-.924.233-1.156.078-1.75-1.173-.754-1.584-.568-2.617.547-3.042.4-.152 1.062-.702 1.473-1.222a2.469 2.469 0 0 1 1.922-.946c.727 0 1.403-.326 1.774-.857l.598-.856.299.96c.36 1.158 2.656 4.448 3.104 4.448.176 0 .375-1.062.442-2.36l.123-2.361 1.638-.035c2.724-.059 2.662-.002 2.662-2.428v-2.258h3.084c2.109 0 3.135-.162 3.245-.513.3-.962.588-11.759.351-13.22-.131-.813-.474-1.457-.776-1.457-.76 0-1.304-1.135-1.088-2.272.297-1.555 1.554-2.366 3.98-2.568l2.231-.185.117-9.29c.107-8.451.052-9.338-.6-9.826-.957-.717-.907-2.351.103-3.364.693-.694.819-1.368.819-4.379 0-4.513.465-4.22.55.347l.064 3.416 4.607.117 4.607.116V48.168l-4.607.116-4.607.116.043 1.117c.024.614-.114 1.018-.307.9-.192-.12-.35-.742-.35-1.381 0-.661-.268-1.267-.62-1.402-.342-.132-.808-.734-1.038-1.338-.342-.904-.269-1.256.416-1.987 1.698-1.811.92-4.368-2.252-7.399l-2.245-2.145.852-1.085c.468-.597 1.207-1.085 1.64-1.085.555 0 .79-.286.79-.96 0-1.502 2.258-5.66 3.974-7.319.855-.826 2.475-2.038 3.602-2.693 1.903-1.107 2.056-1.315 2.176-2.966l.128-1.775-1.664.266-1.664.267v-1.842c0-1.808.02-1.834 1.05-1.442.578.22 1.431.4 1.897.4.727 0 .814-.186.622-1.333-.123-.734-.351-1.658-.507-2.053-.244-.619-.032-.718 1.535-.718 1 0 1.917.099 2.038.22.12.12-.016.906-.303 1.743-.287.838-.425 1.682-.306 1.874.214.348 1.706.172 3.085-.363.626-.243.717-.008.717 1.862 0 1.874-.09 2.105-.717 1.857-.394-.156-1.329-.387-2.077-.513l-1.36-.229.287 1.598c.35 1.942.845 2.624 1.905 2.624 1.003 0 4.983 4.035 5.995 6.076.413.835.99 2.396 1.28 3.469.422 1.565.702 1.95 1.415 1.95 2.161 0 2.573 2.458.612 3.653-1.595.973-2.185 1.827-3.27 4.736-.802 2.148-.82 2.397-.22 3.062.948 1.049.804 2.407-.37 3.497-1.013.942-1.023 1.02-1.023 7.821v6.87l1.187 1.111c.925.867 1.139 1.362.97 2.248-.12.624-.561 1.351-.982 1.615-.71.445-.766 1.136-.766 9.617v9.138l1.74.049c.958.027 1.967.02 2.243-.016.905-.116 2.915 1.172 3.191 2.045.42 1.326-.09 2.661-1.215 3.175-1.385.632-1.515 1.422-1.373 8.303l.124 5.944 3.464.41 3.465.411-.12 2.2c-.09 1.67.011 2.158.418 2.022.295-.099 1.277.04 2.183.308 1.558.462 1.648.577 1.69 2.15.063 2.32.346 2.852 1.454 2.73.527-.057 1.453-.12 2.058-.139.93-.029 1.093-.21 1.066-1.18-.04-1.422.796-3.066 1.446-2.842.266.092 1.014.017 1.662-.167 1.316-.372 2.712.168 2.712 1.05 0 .309.553.755 1.229.99.92.323 1.228.686 1.228 1.451 0 1.704-.73 3.127-1.604 3.127-1.323 0-1.476.88-.301 1.738.746.545 1.086 1.169 1.086 1.991 0 .77.211 1.197.591 1.197.549 0 1.866 1.48 1.866 2.098 0 1.411-9.16 2.34-9.68.981-.293-.766-1.376-.815-1.376-.062 0 .416-1.18.62-4.785.827-2.663.152-4.947.112-5.15-.091-.212-.213-.18-1.361.077-2.756.243-1.315.288-2.544.101-2.732-.187-.187-2.978-.29-6.202-.226-4.73.092-5.917.233-6.149.73a53.299 53.299 0 0 1-.774 1.556c-.592 1.142-.31 1.72.708 1.452.973-.255 2.108.881 2.108 2.109 0 .927-.806 1.545-1.774 1.36-.263-.052-3.565-.148-7.337-.216zm-4.476-1.586c.235.145.53.098.655-.106.252-.408-1.215-.924-1.581-.556-.126.126-.226.521-.222.879.005.529.072.545.363.084.197-.311.55-.447.785-.301zm6.216-1.197c0-1.08.142-1.345.62-1.162.442.17.546.05.365-.423-.14-.364-.063-.662.17-.662s.508.324.61.719.212.072.242-.719c.042-1.128.146-1.304.483-.82.34.486.378.428.181-.278-.16-.574-.03-1.016.362-1.236.48-.27.535-.68.254-1.928-.196-.871-.26-1.835-.144-2.14.117-.306-.083-.852-.445-1.215-.693-.695-.493-1.62.25-1.158.25.154.353.027.243-.302-.105-.313-.544-.581-.975-.595-.43-.014-1.059-.135-1.397-.269-1.586-.628-2.025-.613-3.207.107-.697.425-1.372.603-1.5.395-.128-.207-.476-.284-.774-.17-.389.15-.223.55.587 1.42.62.666 1.308 1.21 1.528 1.21.22 0 .627.275.905.611.412.498.372.663-.218.89-.484.186-.963-.017-1.443-.611-.395-.49-.9-.89-1.12-.89-.564 0-.947 1.155-.479 1.444.567.352.345 2.345-.353 3.175-.538.64-.53.718.08.718.54 0 .63.241.421 1.13-.218.927-.169 1.037.279.615.848-.8 1.073-.616.877.718-.108.74.002 1.232.276 1.232.25 0 .456-.266.456-.592 0-.325.213-.723.474-.885.33-.205.399.005.225.694-.241.957-.23.962.359.172.58-.779.603-.76.514.423-.052.68.046 1.466.219 1.746.516.838 1.075.129 1.075-1.364zm-1.97-3.905c-1.157-1.08-1.13-1.29.128-.973 1.093.275 1.337-.174.532-.981-.382-.383-.19-.493.87-.493 1.199 0 1.295.078.817.656-.474.572-.42.637.423.513 1.472-.217 1.457.72-.023 1.46-1.653.826-1.67.825-2.747-.182zm2.463-4.029c-.74-.47.482-1.477 1.375-1.133.579.222.582.318.035.867-.711.713-.709.712-1.41.266zm2.924 8.935c.715-.837.71-.85-.216-.571-.522.157-1.218.542-1.548.857-.523.498-.495.572.216.572.449 0 1.145-.386 1.548-.858zm-30.154-1.195c.284-.564.52-.795.523-.513.01.746 1.13.629 1.573-.165.285-.51.735-.62 1.823-.443 1.219.199 1.48.104 1.665-.604.18-.69.425-.79 1.37-.557 1.22.3 2.712 1.46 1.877 1.46a.952.952 0 0 1-.726-.41c-.139-.225-.61-.41-1.048-.41-.576 0-.794.284-.794 1.034 0 1.047-.42 1.105-2.765.381-.966-.298-.505.432.597.945 1.14.53 4.495.695 5.589.274.354-.136.53-.534.41-.923-.188-.606-.145-.602.378.034.867 1.056 1.182.881 1.038-.576-.204-2.05-1.72-2.894-5.522-3.072-1.763-.082-3.438-.237-3.722-.344-.283-.106-.928.452-1.433 1.24-1.11 1.735-2.016 2.033-6.164 2.033h-3.198l1.032.89c.874.753 1.486.879 4.005.82 2.728-.062 3.016-.152 3.492-1.094zm46.474-.41c.2 0 .31.323.244.718-.095.567.183.724 1.313.743 1.873.032 2.867-.226 2.867-.744 0-.263-.722-.32-1.943-.152l-1.944.267 1.534-1.267c1.951-1.612 1.95-2.129-.002-1.835-1.43.216-1.465.197-.512-.268l1.024-.5-1.358-.151c-1.97-.22-2.544.454-2.44 2.862.072 1.642.163 1.873.47 1.183.21-.47.546-.857.747-.857zm16.259.56c1.285-1.285.895-1.592-1.313-1.034-1.214.306-2.246.323-3.187.053-1.927-.554-2.012-.53-2.012.592 0 1.196.368 1.349 3.276 1.361 1.837.008 2.434-.171 3.236-.973zm-9.992-.15c-.14-.226-.52-.41-.844-.41s-.59.184-.59.41c0 .226.38.41.843.41s.73-.184.59-.41zm2.79-.975c.118-.31-.268-1.245-.86-2.078-.81-1.142-1.28-1.46-1.912-1.289a8.448 8.448 0 0 1-1.78.231c-.77.005-.87.134-.546.714.25.449.253.974.006 1.436-.329.617-.213.73.752.736.627.003 1.417.185 1.754.404.9.582 2.337.497 2.586-.154zm-57.462-.868c.326-.393.407-1.14.229-2.093-.188-1.004-.137-1.395.158-1.212.24.149.436.813.436 1.477s.184 1.208.41 1.208c.536 0 .526-2.297-.015-3.311-.529-.99-.06-1.043.673-.076.497.657.545.63.557-.328.007-.576-.209-1.269-.479-1.54-.382-.383-.337-.492.205-.492.78 0 .863-.332.305-1.216-.324-.514-.496-.492-1.207.153-.557.505-1.068.644-1.56.424-.653-.292-.633-.344.19-.489.68-.119.92-.443.92-1.241 0-.785-.122-.957-.45-.628s-.663.239-1.228-.329c-.935-.937-2.129-1.006-2.826-.164-.44.531-.334.58.77.359 1.31-.263 1.547.016.893 1.052-.303.48-.488.492-.998.068-.8-.665-2.343-.214-2.033.595.125.327.52.594.88.594.507 0 .543.11.16.493-.724.726-.598 1.1.293.867 1.05-.275 1.911 1.215 1.096 1.894-.309.257-.654.969-.767 1.583-.202 1.092-.194 1.097.385.236.385-.573.87-.806 1.39-.67.819.215 1.12.934.39.934-.223 0-.329.416-.235.924.095.508.186 1.062.203 1.232.05.509.716.348 1.255-.304zm61.172-1.466c-.177-1.11-.107-1.617.222-1.617.331 0 .394-.466.2-1.496-.206-1.104-.152-1.418.207-1.196.267.166.774.19 1.126.055.482-.186.53-.382.189-.793-.542-.654-.196-1.117.605-.809.38.147.574-.07.574-.644 0-.964-.47-1.08-1.697-.423-.453.244-1.131.325-1.506.18-.591-.227-.551-.361.3-1.005.655-.495.894-.976.716-1.44-.382-.998-2.113-.681-2.113.387 0 .451-.23 1.065-.512 1.363-.281.298-.512.794-.512 1.101 0 .308-.353.671-.784.809-1.008.32-1.92 2.68-1.037 2.68.326 0 .593.287.593.64s.184.525.41.385c.247-.153.409.407.409 1.413 0 2.096.799 2.212.875.127.038-1.065.107-1.223.221-.513.235 1.451 1.011 2.885 1.423 2.63.192-.12.233-.944.091-1.834zm1.894 1.29c0-.71-.497-1.676-.863-1.676-.424 0-.496 1.375-.092 1.78.395.396.955.335.955-.104zm-65.272-1.565c-.136-.136-.233.107-.215.54.02.478.117.575.247.247.119-.296.104-.65-.032-.787zm65.887-.521c-.14-.226-.438-.41-.663-.41-.225 0-.296.184-.156.41.139.226.437.41.662.41.225 0 .296-.184.157-.41zm-41.157-.82c.99-.531 1.026-1.106.177-2.812l-.644-1.295H92.305v4.062l2.15.125c6.126.353 11.025.32 11.77-.08zm27.131.046c.567-.037.717-.425.717-1.85 0-1.73-.054-1.808-1.331-1.95-.732-.08-4.643-.147-8.69-.147h-7.36l-.393 1.116c-.527 1.497.546 2.695 2.564 2.864 1.337.112 12.707.086 14.493-.033zm-27.204-5.896c.092-.804.422-1.202 1.145-1.384.559-.14 1.128-.142 1.266-.005.298.298 1.35-.504 1.35-1.03 0-.205-4.66-.354-10.645-.34-10.634.027-10.644.028-10.812.93-.37 1.995-.199 2.7.702 2.88.492.098 4.487.155 8.88.127l7.984-.05.13-1.129zm21.917.74c.125-.325.12-1.255-.012-2.067l-.239-1.475-7.315.049c-4.13.027-7.315.212-7.315.425 0 .207.516.377 1.147.377 1.381 0 2.13.666 2.13 1.895 0 .5.23 1.003.511 1.117.282.114 2.842.222 5.69.24 4.153.025 5.222-.085 5.403-.56zm7.642-1.46c0-1.755-.115-2.052-.792-2.052-.961 0-1.41 1.233-1.049 2.883.184.838.515 1.222 1.054 1.222.671 0 .787-.302.787-2.053zm-11.978-3.003c.594-.383.695-2.993.129-3.344-.34-.21-16.252-.362-27.156-.259l-3.992.038v1.622c0 1.042.228 1.75.638 1.98.8.448 29.682.414 30.381-.037zm7.395-1.852c.096-1.305-.02-1.713-.488-1.713-.891 0-1.072.502-.795 2.21.322 1.992 1.122 1.683 1.283-.497zm-14.456-2.797c.51-.196.612-1.423.612-7.376V91.3H99.676v7.15c0 5.342.13 7.199.512 7.344.74.282 15.759.301 16.485.022zm7.899-7.44.12-7.076h-2.102l.04 6.94c.021 3.818.155 7.057.296 7.199.141.142.543.203.891.136.538-.104.653-1.2.756-7.199zm-6.221-6.554c-.416-.418-.76.21-.418.765.258.418.354.418.493.001.095-.285.061-.63-.075-.766zm8.678-2.596c.267-2.297-.144-2.369-14.249-2.496-7.094-.063-13.304.025-13.8.196-1.026.354-1.526 1.534-1.151 2.717.248.783.663.804 14.667.718l14.412-.087.121-1.048zm-13.126-12.088c.057-4.801-.067-8.884-.28-9.216-.482-.755-7.684-1.155-8.915-.495-.78.419-.82.866-.83 9.501l-.012 9.061 4.968-.115 4.969-.115.1-8.62zm6.152-.513.11-9.134h-.986c-.683 0-1.059.285-1.218.924-.126.508-.235 4.676-.24 9.263l-.012 8.34 1.118-.13 1.118-.129.11-9.134zm-5.367-7.184c-.113-.282-.206-.051-.206.513 0 .565.093.796.206.513a1.588 1.588 0 0 0 0-1.026zm7.022-4.077c.085-.738-.118-1.23-.614-1.488-1.027-.534-16.094-.627-17.458-.107-1.335.509-1.408 1.404-.184 2.264.769.54 2.266.624 9.52.536l8.61-.104.126-1.101zm-2.062-9.886.111-7.282h-2.066v7.116c0 3.914.13 7.246.287 7.404.158.158.573.233.922.166.539-.104.65-1.215.746-7.404zm1.52-8.771c.367-.368.564-.937.439-1.265-.126-.328-.228-.674-.228-.769 0-.094-4.22-.171-9.375-.171-7.667 0-9.415.105-9.595.576-.25.654.447 1.685 1.361 2.013.338.12 4.24.234 8.673.252 6.929.028 8.152-.061 8.725-.636zm-15.35-3.368c0-1.192.5-1.38.996-.374.35.705.874.951 2.241 1.05 1.7.123 1.772.084 1.489-.821-.163-.523-.542-1.813-.842-2.868-.746-2.625-1.278-3.521-2.277-3.84-1.094-.347-1.4-.01-1.412 1.554-.01 1.47-.821 1.971-1.209.748-.47-1.485-3.49-3.317-3.49-2.118 0 .209.453.92 1.007 1.58.555.661 1.207 2.09 1.45 3.177.243 1.086.537 2.13.654 2.32.395.641 1.393.35 1.393-.408zm11.126.073c.412-.374.77-.974.797-1.334.027-.36.167-.101.312.576.205.962.482 1.232 1.266 1.232.862 0 1.12-.349 1.838-2.493.46-1.37 1.165-2.99 1.567-3.599.644-.976.656-1.136.099-1.35-.782-.3-2.44.75-3.329 2.11-1.005 1.54-1.536 1.272-1.234-.62.23-1.442.165-1.643-.533-1.643-1.047 0-2.03 1.024-2.292 2.39-.117.605-.393 1.888-.615 2.85-.222.963-.403 1.933-.403 2.156 0 .65 1.712.465 2.527-.275zm-2.799-1.27c.313-.622.668-1.869.79-2.772.121-.903.356-1.979.52-2.39.261-.65.117-.731-1.085-.616l-1.386.133-.123 2.832c-.172 3.984.24 4.886 1.284 2.812zm11.357-6.911c.39-.472.42-.838.108-1.335-.384-.61-1.79-.695-13.031-.792-8.956-.078-12.763.026-13.162.358-.701.583-.73 1.871-.049 2.147.282.114 6.156.222 13.054.24 10.97.028 12.61-.05 13.08-.618zm-21.875-3.262c.21-.55.304-.54.747.066.631.867 1.853.47 1.853-.601 0-.889-1.887-2.943-2.703-2.943-.743 0-1.392 1.327-1.392 2.847 0 1.352 1.049 1.795 1.495.63zm5.832-.09c.383-.678.44-.674.982.062.692.938 1.52.55 1.52-.714 0-1.375-1.167-2.803-2.17-2.656-1.003.146-2.526 2.526-2.185 3.416.318.83 1.357.769 1.853-.109zm4.72.468c.356-.137.648-.495.648-.796 0-.302.151-.642.337-.757.186-.115.324.197.307.694-.023.698.203.903.994.903.917 0 1.012-.149.916-1.437-.106-1.418-1.287-2.873-2.332-2.873-1.123 0-2.675 3.116-2.054 4.124.285.461.338.468 1.184.142zm7-.674c.575-.8.647-.819.534-.145-.071.428.128.868.443.978.46.16.518-.149.292-1.56-.347-2.178-.513-2.455-1.47-2.455-.908 0-2.647 2.63-2.314 3.5.348.908 1.76.73 2.514-.318zm-14.422-2.874.178-.923.055.923c.073 1.197.602 1.177 1.255-.047.43-.806.408-1.184-.136-2.237-1.268-2.458-2.905-2.459-4.173-.002-.547 1.061-.565 1.337-.106 1.602.305.176.923.604 1.373.95 1.11.855 1.347.814 1.554-.266zm11.706-.41c.297-1.029.393-1.123.422-.41.044 1.1.172 1.122 1.476.265.857-.563.934-.784.535-1.53-1.112-2.084-2.487-2.623-3.61-1.415-.985 1.06-1.049 2.274-.184 3.511.828 1.186.906 1.161 1.361-.421zm-5.977-.616.17-1.13.062 1.14c.06 1.117.08 1.126 1.085.465 1.245-.818 1.28-1.372.175-2.78-1.032-1.316-1.868-1.366-3.118-.19-1.196 1.127-1.205 2.112-.026 2.936 1.279.895 1.457.847 1.652-.441zm-3.352-2.898c.027-.445.138-.35.31.261.266.949.275.946 1.233-.353l.965-1.309-.835-.837c-.742-.744-.976-.78-2.08-.321-2.043.848-2.362 1.522-1.272 2.685.996 1.063 1.612 1.016 1.68-.126zm8.19-.255 1.184-.999-1.077-.849c-1.458-1.15-3.654-1.131-4.277.036-.403.755-.33.994.498 1.63.9.69 1.007.695 1.482.062.46-.613.512-.591.512.218 0 1.142.224 1.13 1.679-.098zm-4.525-3.448c-.494-.074-1.187-.024-1.539.111-.562.217-.547.35.123 1.092l.763.845.776-.957c.768-.946.766-.957-.123-1.091zm.694-2.841c-.058-1.125.074-1.922.31-1.884.225.037 1.1.196 1.945.354 1.508.282 1.536.264 1.536-.994v-1.28l-2.254.265-2.254.265.624-1.773c.668-1.898.397-2.624-.884-2.373-.642.125-.738.462-.616 2.152l.144 2.004-1.885-.259c-1.797-.247-1.884-.212-1.884.747 0 .905.154.997 1.535.916l1.536-.09.125 1.95c.112 1.759.222 1.95 1.123 1.95.932 0 .991-.13.899-1.95zm-9.62 35.408c-.005-.904.076-1.321.179-.929.102.393.106 1.132.008 1.642s-.182.19-.187-.713z"/><g id="a"><g fill="#5ab532" stroke="#000" stroke-width=".43"><path d="M90.64 169.86c-.434-1.175-.83-2.378-.507-3.742l.933.431c-.7-1.054-.954-2.462-.697-3.709.287.156.862.685 1.415.975-.656-1.44-.31-2.88-.359-4.319l-.215-.935.739-.021c-1.163-1.37-.926-3.532-2.226-4.534l.697-.915c.152-.288-.044-.576-.143-.863-.352-.831-1.048-1.022-1.652-1.347l-.79.339-.932.936c-1.686-.392-2.393-.363-3.16-.36l-.932.504-.503.647-.144.648-2.225 1.08c-.083.227-.234.477.072.575.248.112.488.237.595.537-.137.301-.218.602-.164.903.035.324.067.649.29.927 2.545-.644 1.7-.914 2.67-.945.556.023.758.07 1.006.36l.147.572c-.414-.063-.828-.02-1.242-.267-.77-.066-1.356.293-1.938.648-2.432 1.526-7.383-.034-2.94-2.202-3.135-.213-4.873 4.048-.945 4.474 1.773.132 2.112-.447 3.635-.98.446.113.33.867.537.896.107.279.374.415.616.56.815-.033 1.464.043 1.61.347.14.226.056.34-.072.432-.25.412-.608.717-1.06.926-.524.092-1.048.02-1.571-.016-.928-.544-1.334-1.087-1.732-1.63-.026.63-.017 1.403.22 1.77a3.89 3.89 0 0 0-2.28.651c-1.356.82-2.692 2.104-3.856 3.243-.895.423-1.763.971-2.787.813-1.828-.918-.868-1.904-.574-2.519-.672.037-.947.637-1.216 1.414-.044.658-.03 1.226.329 1.816.747.67 1.242.634 1.723.724 1.16-.053 2.23-.244 3.256-.5-.732.421-.97.645-1.035.932 2.58.402 3.59-.526 5.384-.792-.374.54-.963 1.11-.903 1.588 3.019.165 5.353-1.242 6.313-1.486-.395.429-.76.85-.36 1.08 1.308.027 2.959-1.133 3.312-1.465 1.093.51 2.237 1.332 3.66 1.799z"/><path d="M76.98 162.792c-2.225-1.588-3.743-3.51-4.342-5.865.12-.361.359-.647.717-.864l.036-.504c-.294-.185-.542-.416-.646-.792-.122-.574-.489-1.026-.79-1.51-.396-.371-.774-.356-1.076-.397.086.588-.007 1.176-.108 1.764-.108.49-.287.888-.538 1.187l.61.864.09.395-.898-.036c-.188-.122-.156-.3-.161-.467l.18-.684c-.002-.293-.21-.483-.396-.684l-.574-.036c-.565-.842-1.459-.64-2.297-.611-.067.125-.186.197-.072.503l.79.792.036 1.223c.247.238.545.433 1.076.432.327.585.137.72-.25.684-.367-.067-.39-.408-.54-.648-.383-.152-.57-.146-.717-.108l-.574.648c-.502.061-.839.167-1.15.468.057.369.36.43.593.576.263-.005.484.115.7.251.09.208.249.398.43.558.423-.132.822-.22 1.15-.162.308.098.349.238.035.432-.645-.023-.827.185-1.005.396.096.384.096.696 0 .936-.335.652-.67.948-1.005 1.33.523.03 1.033.032 1.508-.035.24-.117.487-.222.682-.432h.718c.155-.213.31-.471.466-.828.284-.035.538-.166 1.005.396-.029.59-.15 1.15-.323 1.692.444.13.8-.14 1.149-.432.142.657.034 1.083-.036 1.655.526-.324.885-.432 1.077-.324l.395 1.691c1.421-.816 2.635-2.543 4.056-3.454z"/><path d="M88.972 169.963c-.51-.62-1.179-1.042-1.878-1.425a8.42 8.42 0 0 1-4.912 1.88c.237-.305.635-.575.687-1.066-1.738.728-3.697 1.195-5.913 1.156.063-.475.309-.95.559-1.425-1.24.337-2.52.657-4.838.524-1.118.877-2.243 1.75-4.67 1.832-.215-.054-.111-.267-.05-.458.306-.162.507-.534.722-.88-.21-.286-.43-.561-.827-.659-.15-.486-.453-.972-.842-1.458-.26-.161-.448-.08-.708-.054-.014.56-.044 1.118.08 1.677-.34.168-.62.283-.725.64.24.338.487.669.914.865.05.236.143.488-.036.632-.39.202-.778.233-1.167.051-.027-.548.358-1.24-.407-1.527-.934-.13-1.8-.055-2.64.102-.183.004-.314.115-.453.211a.435.435 0 0 0-.105.4c.427.09.852.182 1.138.553.155.397.038.603.006.952l.437.2.602-.026c.552.305.292.61.05.916a8.919 8.919 0 0 1-1.167-.356c.07.471-.035.73-.203.916-.575.202-1.15.24-1.726.203.117.615.795.994 1.473 1.375.427.16.727.127.964 0 .563-.028.99.042 1.218.254.048-.322.029-.645.254-.967.277-.153.478-.082.66.05.028.533-.377.817-.66 1.171.015.392.065.757.457.866-.16.601-.228 1.173-.102 1.679.958-.159 1.656-.694 2.183-1.476.394-.288.834-.55.812-1.069-.38-.174-.79-.343-.66-.61.624-.654 1.294-.86 2.013-.7.177.638-.3.838-.508 1.22.359-.044.663-.129.83-.317.55-.643 1.136-1.224 1.828-1.628.204.061.286.205.203.458l-.98.925c.594.181 1.035-.187 1.535-.47.677-1.077 1.255-1.718 1.646-1.596.32.694 1.145 1.115 2.081 1.476l-.576-1.249c.458-.997 1.956-1.125 2.944-1.68.444.993 1.319 1.79 2.284 2.545 1.73.945 4.671 2.024 4.873 2.799-2.852.058-5.45-1.075-8.172-1.628-2.215-.258-2.95.463-3.503.865-.976 1.325-.921 2.478-1.37 3.715-.424.258-.847.226-1.27.152-1.074-.645-1.031-1.437-.925-2.272-.706.228-1.157 1.098-1.117 2.29.064.804.546 1.286 1.23 1.61.993.451 1.939.583 2.741-.254a4.053 4.053 0 0 1 1.32 1.781c-.167 2.11-2.524 3.148-3.147 3.41-.212-.356-.056-.712 0-1.069a2.218 2.218 0 0 0-.356-1.12l-.964-.05c-.478-.847-1.283-.445-1.98-.458.243.334.604.566.675 1.072-.086.5-.395.628-.61.916.705.684 1.067 1.06 1.294 1.314.12.456-.123.402-.278.446-.312.233-.812-.474-1.218-.713-.34-.025-.681.122-1.022.383-1.254.082-1.5.895-1.937 1.57.59.018 1.184-.09 1.639.11.432.394.85.785.812 1.038.433.045.759-.151 1-.538.543-.055.692.07.711.254-.677.337-1.198.684-1.116 1.069l.456.661c-.175.492-.163.984-.101 1.476.169.454.283.418.406.458.55-.812.733-.952 1.015-1.272.95-.234 1.104-.93.812-1.883.247-.546.684-.468 1.117-.407a3.635 3.635 0 0 1-.23 1.58c.238.31.363.323.696.392-.083.598-.17 1.139.075 1.689 1.047-.142 1.014-1.007 1.421-1.578.311-.33.34-.866.316-1.245l-.653-1.042c.378-.81 1.184-.96 2.182-.814-.24.424-.07.848-.05 1.272.55.485 1.071 1.108 1.573 1.832.117-.349.314-.637.254-1.12-.45-.54-.874-1.072-.761-1.424.034-.813.465-.831.761-1.12-.145.526-.092 1.052 0 1.578.023.424.257.731.71.916.948-.254 1.448.053 2.031.254-.049-.426-.384-.788-.863-1.12-.804-.283-.617-.752-.71-1.17-.064-.59.087-.677.152-.966.38.37.392 1.035.558 1.577.974.535 1.47.592 2.03.713.168-.137.171-.328.052-.56-.387-.287-.818-.462-1.117-.967-.378-.57-.18-.826-.051-1.12.811-.287 1.668-.531 1.74-1.05.51-.63.701-1.41.762-2.24-.276-.866-.687-1.476-1.487-1.34.153.542.418 1.085.305 1.628.142.787-.3.93-.61 1.221.043-.324.046-.639-.1-.916-.72-1.12-1.578-2.208-1.473-3.511.285-.713.857-.756 1.421-.814l3.195-.09c1.002-.593 1.879-.68 2.792-.916-1.004 1.825-2.248 3.62-2.535 5.535.057 1.051.212 1.984.508 2.748.535.9.297 1.284.304 1.832-.471.224-1.23-.07-1.929-.255-.164.704.548 1.046 1.168 1.425 1.03-.02 1.287-.196 1.624-.356.627-.551.752-1.353.813-2.188 1.573.223 3.075.14 4.649.03-.059 1.51-1.401 3.019-2.285 4.529-.311.077-.561.07-.588-.234l.153-.356c.066-.274-.031-.483-.204-.661-1.04-.084-2.063-.228-3.194.009-.222.212-.42.424-.407.637.632.31 1.074.62 1.419.93.068.288.142.567.304.713l1.066.153c.118.288.175.577.102.865-.456-.003-.86-.163-1.27-.305-.234.28-.564.544-.202.916-.475.318-.614.594-.711.865-.142.628-.096 1.143 0 1.628.045.356.275.435.508.51.568-.66 1.072-1.223 1.167-1.171.395-.448.658-.303.965-.356.161-.498.182-1.22.558-1.374.2.024.436-.027.406.458-.412.339-.466.678-.609 1.017.554.43.942.84 1.066 1.222.7.492 1.322.754 1.878.814-.163-.626-.216-1.215-.507-1.883.399-.22.313-.5.355-.763-.075-.24-.156-.481-.558-.815-.232.076-.258-.21-.305-.458.495-.36.754-.15 1.015.051.132.231.163.428.153.611-.166.238-.067.475.05.713.351.064.748-.01.965.458-.099.673-.024 1.12.355 1.17.319-.157.533-.471.66-.916.216-.866.274-1.786.203-2.748-.3-.28-.628-.506-1.117-.407-.246-.288-.118-.521.305-.713.664-.116.92-.466 1.269-.763.321.271.787 1.238 1.108 1.066.609.025.733.558.863.61l-.042-1.218c-.597-.443-1.074-.969-.914-1.934l1.117 1.17c.77.062.78.652.964 1.12.353-.126.493-.506.61-.916-.56-.78-1.09-1.568-1.32-2.442-.197-.804.212-.73.406-.967.143.957.545 1.603 1.167 1.984.69.204 1.328.274 1.828 0 .793-.815 1.533-1.66 1.574-2.9-1.182.826-2.556 2.934-3.25.508-.107-.636.083-1.188.305-1.73.066-.77-.03-1.573-.203-2.392.45.006.813.272 1.168.56.16.365.25.799.367 1.207.182-.546.385-1.082.242-1.767-.559-1.13-1.414-1.685-2.69-1.424-1.627.357-2.95.942-4.599 1.421-.778-.55-.573-1.577-.224-2.694 1.596-.154 2.616-.92 3.401-1.934.353-1.14.475-2.385.636-3.813-.372-1.273-.624-2.547-1.448-3.82-.792-1.724-.706-2.8-.61-3.868.58-2.478 1.757-4.228 2.996-5.903.48-1.044.988-2.06.863-3.664-.63-1.392-2.153-3.598-1.505-3.921.12-.571.495-.379.845-.354.665.01 1.03.498 1.472.865.096-.579-.533-1.358-.986-2.167-.373-.55-.946-.815-1.654-.886-1.096.19-1.308 1.044-1.675 1.781-.513-.312-1.132-.471-1.98-.305-.444-.024-.704-.478-1.015-.814-.037.772.106 1.514.356 2.239.122.49.266.967.812 1.221l.609.204c-.22.373-.676.588-.508 1.221.394.537.7 1.098.762 1.73-.03.53-.24.88-.457 1.222.507.016 1 .016 1.32-.204.399-.158.542-.522.71-.865-.05-.831-.215-1.662 0-2.494.45-.09.7.118.863.458.718 1.461.334 2.403.305 3.512-.915 2.273-2.265 4.546-3.401 6.819-.322.961-.087 1.83.152 2.697.891 1.7 1.077 2.997 1.32 4.326.482 1.242.137 2.414.101 3.613.007.431-.18.724-.507.916-.417.32-.912.534-1.472.662-.102-.628-.104-1.256-.66-1.883-1.653-2.069-3.844-4.175-3.554-6.107-.003-.929-.155-1.907.102-2.748z"/></g><path d="m83.55 157.808-1.077-.072c-1.053.55-2.068 1.09-3.303 1.187-1.96.086-4.091-1.141-1.759-2.788-3.357 1.31-2.12 4.16 1.436 3.742 2.3-.965 3.135-1.38 4.702-2.069zm-12.42-2.861c.395-.133.79-.143 1.185-.036v-.342c-.27-.593-.634-1.044-1.095-1.35.035.593.062 1.183-.09 1.728zm-2.53.324c-.262.327-.572.41-.88.504a1.966 1.966 0 0 0-.664-.882c.272-.062.55-.115.915-.036.23.075.488.068.628.414zm-2.083 3.095c-.111.188-.162.364-.035.504-.234.007-.467.038-.7-.234.126-.239.42-.268.736-.27zm1.095 3.31c.188.21.423.389.754.504-.22.15-.434.313-.7.324-.211.083-.46.017-.718-.09.345-.185.507-.46.664-.738zm-.899 6.608a1.15 1.15 0 0 0 .101 1.043c.29.148.484.012.711-.025-.17-.39-.375-.762-.812-1.018zm-4.366 2.392c.39-.21.779-.37 1.168-.178.008.25.003.493-.254.61-.261-.317-.586-.38-.914-.432zm-.66 3.918c.357.312.738.583 1.295.56.002-.212.021-.424-.305-.636l-.99.076zm4.036 2.494c.01.417-.166.74-.28 1.094.535-.234 1.037-.524 1.371-1.094-.364.105-.727.163-1.091 0zm3.122 7.404c-.076.334.206.597.457.865l.457-.636c-.206-.242-.506-.326-.914-.229zm-1.878 3.69c-.478.03-.901.225-1.244.662.5-.007.921.091 1.218.356.103-.316.189-.636.026-1.018zm1.853 3.868c-.19.45-.1.9-.026 1.349.268-.28.548-.542.685-1.018-.22.045-.44-.106-.66-.331zm3.857.178c.138.09.38.078.787-.102-.072.528-.398.929-.736 1.323-.073-.407-.347-.814-.05-1.221zm14.213-.204c-.61-.105-1.095.042-1.573.204.622.212.751.424.99.636.417-.236.497-.539.584-.84zm-.76 4.326c-.211.566-.28 1.104-.153 1.603.358-.291.647-.617.736-1.043-.033-.187-.282-.373-.584-.56zm3.654 1.679c.223-.307.506-.43.863-.33.178.432.328.855.305 1.22-.474-.128-.828-.495-1.168-.89zm2.97-1.17.159-.227c.09 0 .284-.206.45-.256.027.487-.027.92-.203 1.272-.135.049-.27-.467-.406-.789z" fill="#e20909" stroke="#000" stroke-width=".2"/><path d="M84.195 158.276c-.63-.022-1.296-.026-2.207.468.162.149.333.384.538.36h.593c.671-.198.978-.487 1.076-.828zm-1.264-4.063c.176-.348 1.612-.255 1.6-.204.423.14.455.435.532.713l.051.33-.177-.203c-.153.144-.361.148-.559.178l-.228.026c-.28-.204-.419-.49-.533-.79-.3.002-.473-.029-.686-.05z" fill="#fff" stroke="#000" stroke-width=".2"/><path fill="#fcef3c" stroke="#000" stroke-width=".42" d="M82.653 152.604c3.223-.522 4.857-.193 6.74.002.115-1.253.666-1.338 1.133-1.647 1.007-.79 1.945-1.115 2.883-1.441-1.222-.383-2.255-.123-2.944 1.08-.457.135-.879.119-1.243-.138 1.833-1.074 1.165-1.462 1.387-2.094-1.513.147-2.342.672-2.2 1.735-.593.083-1.17.222-1.874-.104 1.655-.42 1.267-1.503.854-2.255-2.701.483-1.95 1.89-1.44 2.314-.538.21-1.055.218-1.751.206.42-.306.725-.686.658-1.312-.267-.612-.792-.879-1.574-.802-.436.39-.889.77-.598 1.672l1.084.525-1.348.027c-.423-1.691-1.542-1.36-2.677-.979 1.103.285 1.896.686 2.09 1.312.581.658.747 1.282.82 1.9z"/><path fill="#c8b80f" stroke="#cea301" stroke-width=".19" d="M82.33 151.425a19.791 19.791 0 0 1 4.169-.432c1.152.005 2.302.115 3.449.33"/></g><use xlink:href="#a" x="58"/><use xlink:href="#a" x="21.25" y="60.5"/><g id="b" fill="#fff" stroke="#fff" stroke-width=".6"><path fill="#e20909" d="M184.307 242.871c10.287 13.799 19.6 9.711 26.143-2.563l1.51.7c-6.924 20.513-23.792 20.699-36.367 8.153l8.714-6.29z"/><path d="M184.026 242.476c1.027 1.516-.17 4.098-2.671 5.767-2.503 1.668-5.363 1.792-6.39.275-1.027-1.516.17-4.098 2.672-5.766 2.502-1.669 5.363-1.792 6.389-.276z"/><path d="M183.462 242.847c.897 1.328-.148 3.59-2.334 5.053-2.186 1.462-4.685 1.57-5.582.242-.897-1.329.148-3.591 2.334-5.053 2.186-1.463 4.686-1.57 5.582-.242zm3.399 3.23c.645 1.256.007 3.413-1.594 5.103-1.507 1.591-3.535 2.361-4.837 1.968.067.093.782.64 1.075.726 1.274.373 3.175-.415 4.646-1.968 1.502-1.585 2.178-3.582 1.676-4.826-.103-.255-.788-.92-.966-1.003zm18.214 1.726c-.33.32-.663.621-1.001.903 1.301.359 2.126 1.193 2.099 2.883.32-.363.634-.743.94-1.14-.178-1.223-.785-2.154-2.038-2.646z"/><path stroke-width=".4" d="M195.479 225.051c-7.247 2.158-5.27 9.113-2.312 12.94 2.649 3.427 7.153 7.692 8.373 9.025l2.99 1.295c.132-.119.264-.241.396-.367l-1.184-1.481-6.12-6.132-1.286-1.351c-2.423-3.125-5.438-7.561-3.242-11.044.479-1.131 4.508-3.353 6.855 0 .601 1.572 1.21 3.137.06 5.826-.858 1.508-1.792 3.006-3.612 5.157l1.256 1.412c2.89-2.675 6.467-8.794 3.198-13.501-1.51-1.824-4.025-2.076-5.372-1.779zm-.502 15.135-5.188 3.822-2.301 2.6c.175.177.35.352.524.52l3-1.093c1.14-.95 4.117-3.401 5.257-4.364l-1.292-1.485z"/><path stroke-width="1.2" d="m211.389 238.355-.763 2.035 1.104.511.793-2.12-1.134-.426z"/></g><use xlink:href="#b" x="62"/><use xlink:href="#b" x="29.5" y="36.75"/></svg>