<svg xmlns="http://www.w3.org/2000/svg" width="500" height="300"><path fill="#00a3dd" d="M0 200h500v100H0z"/><path fill="#fff" d="M0 100h500v100H0z"/><path fill="#ef2b2d" d="M0 0h500v100H0z"/><path d="M245.092 210.611h-31.206c-3 0-5.433-2.433-5.433-5.433l.03-89.204h82.225v89.204c0 3-2.385 5.433-5.385 5.433h-31.199l.078.01c-1.777 0-4.59 1.435-4.59 4.428h-.005c0-2.993-2.814-4.428-4.59-4.428l.075-.01z" fill="#fff" stroke="#000" stroke-width="1.5"/><path d="M294.504 90.609a2.711 2.711 0 0 0-2.711-2.711c-.041 0-.08.004-.121.006a2.704 2.704 0 0 0 1.075-2.159 2.711 2.711 0 0 0-2.711-2.711 2.7 2.7 0 0 0-1.854.737 3.004 3.004 0 0 0-2.61-4.487c-.89 0-1.686.388-2.236 1.002.003-.06.009-.118.009-.179a3.004 3.004 0 0 0-5.792-1.116 3.003 3.003 0 1 0-4.189 2.798 119.048 119.048 0 0 0-3.254-.163 2.995 2.995 0 0 0 1.168-2.374 3.004 3.004 0 0 0-5.984-.368 3.004 3.004 0 0 0-5.95.584c0 1.208.715 2.247 1.743 2.724a593.556 593.556 0 0 0-6.916 1.045l-1.15-1.916-.014-.067a5.288 5.288 0 0 0-1.855-9.372l.384.047-.048-2.467h1.15v-2.18h-1.15v-2.228l-1.522.01v.007l-1.454-.009v2.228h-1.15v2.18h1.15l-.048 2.468.384-.047a5.288 5.288 0 0 0-1.855 9.372l-.014.066-1.15 1.917s-3.634-.574-6.916-1.046a3.002 3.002 0 0 0-1.261-5.727 3.005 3.005 0 0 0-2.947 2.42 3.003 3.003 0 1 0-4.815 2.742c-1.07.037-2.177.094-3.254.162a3.004 3.004 0 1 0-4.19-2.797 3.003 3.003 0 0 0-5.791 1.116c0 .06.006.119.009.178a2.993 2.993 0 0 0-2.236-1.002 3.004 3.004 0 0 0-2.61 4.487 2.7 2.7 0 0 0-1.854-.737 2.711 2.711 0 0 0-2.711 2.712c0 .882.423 1.663 1.075 2.158-.04-.002-.08-.006-.12-.006a2.711 2.711 0 1 0 0 5.422l.026-.001a2.704 2.704 0 0 0-1.069 2.153 2.711 2.711 0 0 0 2.711 2.712c.15 0 .295-.016.438-.039a2.71 2.71 0 0 0 1.928 4.381 4.18 4.18 0 0 0-.72.262s6.707 8.433 8.432 12.65h30.11v-.009h29.982c1.725-4.216 8.433-12.65 8.433-12.65a4.18 4.18 0 0 0-.721-.26 2.71 2.71 0 0 0 1.928-4.382c.142.023.288.039.437.039a2.711 2.711 0 0 0 2.712-2.712 2.7 2.7 0 0 0-1.07-2.153l.028.001a2.711 2.711 0 0 0 2.71-2.711zm-84.54-2.144c.437 0 .848-.106 1.213-.29a9.946 9.946 0 0 0-.36 1.715 2.709 2.709 0 0 0-.973-1.431c.04.001.08.006.12.006zm-.088 4.304l-.026.001c.48-.366.832-.888.984-1.492.028.146.062.284.112.401.129.3.429.98.817 1.857a2.7 2.7 0 0 0-1.887-.767zm3.531-7.651a9.55 9.55 0 0 0-.738.495 2.695 2.695 0 0 0-.322-1.155c.3.29.66.515 1.06.66zm-.967 12.003c-.15 0-.295.016-.438.039a2.697 2.697 0 0 0 .586-1.68c0-.033-.004-.066-.005-.099l.86 1.934a2.701 2.701 0 0 0-1.003-.194zm1.25 5.116a2.717 2.717 0 0 0 1.293-1.47l.563 1.262s-.877.059-1.856.208zm3.583-18.982c.102-.302.16-.624.16-.96 0-.06-.006-.118-.01-.178.279.31.62.563 1.004.736-.387.122-.772.257-1.154.402zm4.558-1.068a2.99 2.99 0 0 0 .83-2.033 3.007 3.007 0 0 0 2.007 1.781 113.62 113.62 0 0 0-2.837.252zm13.457-.474a19.727 19.727 0 0 0-1.684-.11 3 3 0 0 0 1.068-1.758 2.995 2.995 0 0 0 1.034 1.919 64.027 64.027 0 0 0-.418-.051zm29.425-.008l-.419.05a2.997 2.997 0 0 0 1.034-1.918c.14.707.527 1.324 1.068 1.758-.638.019-1.21.054-1.683.11zm10.62.222a3.008 3.008 0 0 0 2.006-1.782c.01.79.324 1.504.83 2.034-.812-.083-1.783-.17-2.837-.252zm6.24.918a3.007 3.007 0 0 0 1.004-.736c-.004.06-.01.118-.01.178 0 .336.058.658.16.96a21.58 21.58 0 0 0-1.153-.402zm6.08 1.605a2.7 2.7 0 0 0-.321 1.155 9.894 9.894 0 0 0-.74-.495c.4-.145.761-.37 1.061-.66zm-3.199 17.57l.564-1.262c.233.636.697 1.16 1.292 1.47-.979-.148-1.856-.207-1.856-.207zm3.106-4.907a2.7 2.7 0 0 0-1.003.195l.86-1.935c0 .033-.004.066-.004.1a2.7 2.7 0 0 0 .586 1.68 2.69 2.69 0 0 0-.439-.04zm2.564-4.352a2.7 2.7 0 0 0-1.887.766c.389-.876.688-1.557.817-1.856.05-.117.084-.255.112-.401.152.604.504 1.126.984 1.492h-.026zm-.94-2.88a9.983 9.983 0 0 0-.36-1.713c.365.183.776.289 1.212.289.04 0 .08-.005.12-.006a2.707 2.707 0 0 0-.973 1.43z"/><path d="M279.024 103.937c-3.282 1.641-3.6 2.13-3.598 2.258-.26-.54-3.28-6.745-6.944-9.86 0 0-1.66-.192-4.28 1.47-2.935 1.86-5.239 5.494-6.261 7.538 0 0-2.94-5.878-4.984-7.667-1.622-1.42-2.57-1.877-2.893-2.006v-.038s-.018.005-.053.018c-.048-.018-.075-.026-.075-.026v.054c-.323.13-1.27.587-2.893 2.006-2.045 1.79-4.983 7.667-4.983 7.667-1.023-2.045-3.326-5.677-6.261-7.539-2.62-1.66-4.28-1.47-4.28-1.47-3.665 3.116-6.686 9.32-6.945 9.861.002-.129-.316-.617-3.597-2.258-4.089-2.044-8.306-.639-8.306-.639.691.395 2.106 2.22 3.583 4.31l.109-.072c.38-.236.563-.737 1.064-.591-.127-.842-1.243-1.094-1.104-2.016 1.275.633 2.101 2.039 2.351 3.377.137 1.455 1.925 5.606 2.665 6.4l-.189.195-.046.025s6.134-2.556 12.842-3.706c8.315-1.425 15.01-.988 15.99-.912v.002l.014-.001.114.009v-.019c.98-.075 7.675-.513 15.99.913 6.709 1.15 12.842 3.705 12.842 3.705l-.046-.024-.189-.195c.74-.794 2.528-4.946 2.665-6.4.25-1.338 1.076-2.745 2.35-3.377.14.922-.975 1.174-1.103 2.015.5-.146.685.355 1.065.591l.109.072c1.476-2.09 2.891-3.914 3.582-4.309 0 0-4.217-1.405-8.306.639z" fill="#fff"/><circle transform="translate(205.496 65.054) scale(.19166)" cx="137.021" cy="74.167" r="12.54" fill="#f5c900"/><circle transform="translate(205.496 65.054) scale(.19166)" cx="167.729" cy="76.167" r="12.54" fill="#f5c900"/><circle transform="translate(205.496 65.054) scale(.19166)" cx="104.396" cy="73" r="12.539" fill="#f5c900"/><circle transform="translate(205.496 65.054) scale(.19166)" cx="74.438" cy="78.664" r="12.539" fill="#f5c900"/><circle transform="translate(205.496 65.054) scale(.19166)" cx="46.146" cy="89.623" r="12.54" fill="#f5c900"/><circle transform="translate(205.496 65.054) scale(.19166)" cx="23.271" cy="107.498" r="10.157" fill="#f5c900"/><circle transform="translate(205.496 65.054) scale(.19166)" cx="14.104" cy="133.074" r="10.157" fill="#f5c900"/><circle transform="translate(205.496 65.054) scale(.19166)" cx="22.771" cy="158.407" r="10.157" fill="#f5c900"/><circle transform="translate(205.496 65.054) scale(.19166)" cx="36.104" cy="181.074" r="10.157" fill="#f5c900"/><path d="M245.524 76.573c-.06-1.456 1.79-3.73 2.972-3.73l-.032 3.695-2.94.035zm.012.54h2.928v1.278l-2.72.038z" fill="#f5c900"/><path d="M233.323 78.424c-.028.652-.047 1.956-1.229 2.395l-.92.014c-.126-.803 1.031-.284 1.368-.826.607-.43-.176-1.53.781-1.583zm-6.435.365c.045.42-.216.885-.444 1.042-.3.426-.675.968-1.365 1.017l-.194-.189c.682-.547 1.557-.943 1.467-1.862l.536-.008zm-5.231 1.381c-.563.776-1.47 1.71-2.544 1.61l-.273-.302c.606-.469 2.102-.415 2.083-1.68.34-.35.954-.282.734.373zm-5.254 2.269c-.564.775-1.47 1.709-2.545 1.61l-.273-.303c.607-.469 2.103-.415 2.083-1.68.34-.35.955-.282.734.373zm22.837-3.107c.358.8-.132 1.344-.623 1.85-.38.274-.836.472-1.374.403-.358-.876.764-.203.987-.666.531-.315.675-.969.743-1.583l.268-.004z"/><path d="M247.474 79.08c-.072.347-.26.618-.177 1-.58-.298-.85-.448-1.202-.902.304-.158 1.187-.095 1.379-.098zm.032 12.312s-1.17-4.154-1.279-6.338c-.11-1.52 1.279-3.293 1.279-3.293v9.63zm-6.56-8.29c1.693.434 2.92.492 4.538.928l-.086.75c-4.003-1.052-7.475-1.534-11.89-1.682-5.597-.03-11.126.276-16.252 2.065-2.097.798-4.16 2.05-4.584 4.472-.199 2.111.375 4.351 1.241 5.833.954 2.248 2.482 4.487 3.205 6.661l-1.112-.06c-.32-.915-4.676-9.623-4.612-11.284.141-3.338 2.683-5.814 5.43-6.645 4.472-1.469 10.343-2.097 15.557-2.098 3.482.294 4.584.39 8.565 1.06z" fill="#f5c900"/><path d="M247.768 95.765c-.17-3.677-1.75-6.797-2.265-10.432-2.345-.463-3.818-.687-6.83-1.129-3.569-.452-6.3-.207-9.406-.199-4.84.007-13.145 1.477-15.384 4.371-.892 1.067-.61 2.808-.475 4.071.132 1.186 4.243 9.405 4.745 9.666 0 0 5.635 1.705 6.018 2.599.384.894 1.79-6.005 7.156-9.328 0 0 4.6.64 6.516 2.556 1.917 1.916 4.217 4.983 4.217 4.983s2.473-4.86 5.708-7.158z" fill="#c20017"/><path d="M211.177 86.845c-.378.35-.95.551-1.451.405-.122-.496.297-.656.523-.928l.197.342c.803-.127-.012-.766.365-1.193.804-.089.398.952.366 1.374zm-1.757 3.731c.04.115.193.112.27.111.086.65-.478 1.426-1.166 1.551-.232-.15-.805-.026-.66-.527.261-.502.196.227.46-.007.38-.197.724-.279.834-.664l-.202-.649c.23-.003.537-.008.463.185z"/><path d="M249.214 95.015c-.074.193-.651.048-.53.468l-.192.003-.286-1.184c.198.38.586.681 1.008.713z" fill="#f5c900"/><path d="M211.458 95.704c-.301.388-.487.812-.904 1.125-.46-.031-1.185.171-1.041-.444.808.218 1.298-.326 1.48-.942-.233-.265-.047-.613.143-.731.348.225.277.57.322.992zm2.501 3.622c-.452.543.252 1.491-.819 1.66-.307-.033-.802.166-.734-.372.305-.158.805-.012.913-.474l.103-.806.537-.008z"/><path fill="none" stroke="#000" stroke-width=".5" d="M219.551 102.854l-1.856-3.907"/><path fill="none" stroke="#000" stroke-width=".4" d="M221.792 103.67l-3.547-7.458"/><path fill="none" stroke="#000" stroke-width=".5" d="M224.555 105.606l-3.578-7.794m4.983 4.472l-3.705-7.794m4.768 5.678l-1.688-3.62m3.053 2.159l-.895-1.917m5.146-.595l-.864-4.167m2.908 4.412l-.795-3.733m3.316 5.616l-.894-4.088m3.793 7.608l-1.298-7.885m3.574 10.115l-2.108-13.033m4.025 9.264l-1.086-6.581m3.194 4.217l-.511-3.194"/><path d="M233.68 102.149c.288 1.337.392 3.137-.008 4.6-.383.044-.031.5-.259.656-.3.426-.48 1.234-.9 1.317.044-2.186-.405-3.981-1.845-5.416-.166-.88-.992-2.209-.043-2.837h.077c-.256.847.06 1.379.226 2.296.45-.658 1.525-.598 2.09-1.258l-.552-.988-.075.077s-.315-.493.067-.614c.81.295.673 1.408 1.221 2.167z"/><circle transform="translate(205.496 65.054) scale(.19166)" cx="327.382" cy="74.125" r="12.539" fill="#f5c900"/><circle transform="translate(205.496 65.054) scale(.19166)" cx="296.673" cy="76.125" r="12.539" fill="#f5c900"/><circle transform="translate(205.496 65.054) scale(.19166)" cx="360.007" cy="72.958" r="12.54" fill="#f5c900"/><circle transform="translate(205.496 65.054) scale(.19166)" cx="389.966" cy="78.623" r="12.54" fill="#f5c900"/><circle transform="translate(205.496 65.054) scale(.19166)" cx="418.257" cy="89.581" r="12.539" fill="#f5c900"/><circle transform="translate(205.496 65.054) scale(.19166)" cx="441.132" cy="107.456" r="10.157" fill="#f5c900"/><circle transform="translate(205.496 65.054) scale(.19166)" cx="450.298" cy="133.032" r="10.157" fill="#f5c900"/><circle transform="translate(205.496 65.054) scale(.19166)" cx="441.632" cy="158.365" r="10.157" fill="#f5c900"/><circle transform="translate(205.496 65.054) scale(.19166)" cx="428.298" cy="181.032" r="10.157" fill="#f5c900"/><path d="M254.477 76.565c.06-1.456-1.79-3.73-2.973-3.73l.032 3.695 2.94.035zm-.013.54h-2.928v1.278l2.72.038z" fill="#f5c900"/><path d="M270.137 78.776c-.029.652-.047 1.955-1.23 2.395l-.919.013c-.127-.803 1.031-.283 1.368-.825.607-.431-.177-1.531.781-1.583zm6.263.436c.044.421-.217.885-.445 1.042-.3.426-.675.969-1.365 1.017l-.195-.188c.683-.547 1.558-.944 1.468-1.863l.536-.008zm5.765 1.167c-.563.775-1.47 1.708-2.544 1.61l-.273-.303c.606-.47 2.102-.415 2.083-1.68.34-.35.954-.283.734.373zm5.478 2.171c-.563.776-1.47 1.71-2.544 1.61l-.273-.302c.606-.47 2.102-.415 2.083-1.68.34-.35.954-.282.734.373zm-23.256-3.322c.357.8-.133 1.344-.624 1.85-.379.274-.836.472-1.374.403-.358-.876.764-.203.987-.666.532-.315.675-.969.743-1.583l.268-.004z"/><path d="M252.527 79.072c.071.347.259.618.176 1 .58-.298.85-.447 1.202-.902-.304-.158-1.187-.095-1.378-.098zm-.032 12.312s1.169-4.154 1.278-6.338c.111-1.52-1.278-3.293-1.278-3.293v9.63zm6.559-8.29c-1.693.434-2.92.493-4.537.928l.086.75c4.003-1.052 7.474-1.534 11.888-1.682 5.598-.03 11.127.276 16.254 2.065 2.096.798 4.16 2.05 4.584 4.472.198 2.111-.376 4.351-1.242 5.833-.953 2.248-2.482 4.487-3.205 6.661l1.113-.06c.32-.915 4.675-9.623 4.611-11.284-.141-3.338-2.683-5.814-5.43-6.644-4.472-1.47-10.343-2.097-15.557-2.1-3.481.295-4.583.39-8.565 1.06z" fill="#f5c900"/><path d="M252.232 95.757c.17-3.677 1.75-6.797 2.265-10.432 2.345-.463 3.818-.687 6.83-1.129 3.57-.452 6.301-.207 9.406-.199 4.84.007 13.146 1.477 15.384 4.371.892 1.067.61 2.808.476 4.071-.133 1.186-4.243 9.405-4.746 9.666 0 0-5.634 1.705-6.018 2.599-.383.894-1.789-6.005-7.155-9.328 0 0-4.6.64-6.517 2.556-1.916 1.917-4.216 4.983-4.216 4.983s-2.473-4.86-5.709-7.158z" fill="#c2001a"/><path d="M291.257 86.79c-.378.35-.95.55-1.45.404-.123-.496.297-.656.523-.928l.197.343c.802-.128-.012-.767.365-1.194.804-.089.397.952.365 1.374zm1.765 3.706c.04.115.193.112.27.111.086.65-.477 1.426-1.165 1.551-.233-.15-.806-.026-.66-.527.26-.502.195.227.46-.007.38-.197.724-.279.834-.664l-.202-.648c.23-.004.537-.008.463.184z"/><path d="M250.787 95.007c.073.193.65.048.53.468l.19.003.287-1.184c-.197.38-.585.681-1.007.713z" fill="#f5c900"/><path d="M291.563 95.96c-.301.387-.486.812-.904 1.125-.46-.032-1.186.171-1.041-.445.808.218 1.298-.326 1.48-.942-.233-.265-.047-.613.143-.73.348.224.277.57.322.991zm-2.559 3.641c-.451.544.253 1.492-.818 1.661-.307-.034-.802.165-.734-.372.305-.158.805-.012.913-.474l.103-.807.536-.008z"/><path fill="none" stroke="#000" stroke-width=".5" d="M280.45 102.884l1.854-3.944m-4.021 4.608l3.476-7.388m-6.313 9.438l3.578-7.794m-4.984 4.472l3.706-7.794m-4.77 5.64l1.691-3.583m-3.054 2.16l.894-1.917m-5.067-.634l.865-4.129m-2.953 4.38l.766-3.706m-3.322 5.622l.895-4.089m-4.015 7.672l1.464-7.971m-3.519 10.138l2.109-13.033m-4.025 9.264l1.086-6.581m-3.194 4.217l.511-3.194"/><path d="M266.32 102.14c-.288 1.339-.391 3.139.008 4.601.383.044.03.5.258.656.3.426.48 1.234.9 1.317-.043-2.186.405-3.981 1.845-5.416.167-.88.992-2.209.043-2.836l-.077-.001c.256.847-.058 1.379-.226 2.296-.45-.658-1.525-.598-2.09-1.258l.552-.988.076.077s.314-.493-.068-.614c-.81.295-.673 1.408-1.221 2.167z"/><path fill="#f5c900" d="M249.295 65.824v1.961h-1.198v1.294l1.167.008v8.953h1.515v-8.953l1.167-.008v-1.294h-1.198v-1.961z"/><g transform="translate(205.496 65.054) scale(.19166)"><path d="M245.104 84.392c.406-1.27.631-2.621.631-4.025 0-7.29-5.91-13.199-13.201-13.199-7.288 0-13.198 5.909-13.198 13.199v62.551h.021c-.004.136-.021.27-.021.407 0 7.29 5.91 13.199 13.198 13.199 7.291 0 13.201-5.909 13.201-13.199 0-1.404-.225-2.756-.631-4.025V84.392z"/><circle cx="233.147" cy="143.917" r="10.665" fill="#f5c900"/><path d="M232.642 77.417c4.598 0 10.768 5.078 10.768 5.078-1.105-6.217-3.42-12.328-10.768-12.328h-.107c-7.347 0-9.66 6.111-10.767 12.328 0 0 6.17-5.078 10.767-5.078h.107z" fill="#fff"/><path d="M242.237 138.909c1.449 3.179-.545 3.608.102 6.6-2.402.036-1.156 3.018-2.742 4.041-2.58 1.239-6.746 3.502-9.57 1.944-.619-1.191.975-1.615 1.363-2.421 4.002.14 3.377-1.65 6.764-2.502 2.375-1.636 2.322-5.235 2.285-7.635l1.798-.027z"/><path d="M232.687 86.292c3.662 0 10.451 2.75 10.451 2.75v-4.875s-4.518-3.125-10.451-3.125h.1c-5.934 0-10.451 3.125-10.451 3.125v4.875s6.791-2.75 10.451-2.75h-.1zm0 8.125c3.662 0 10.451 2.75 10.451 2.75v-4.875s-4.518-3.125-10.451-3.125h.1c-5.934 0-10.451 3.125-10.451 3.125v4.875s6.791-2.75 10.451-2.75h-.1zm0 8.125c3.662 0 10.451 2.75 10.451 2.75v-4.875s-4.518-3.125-10.451-3.125h.1c-5.934 0-10.451 3.125-10.451 3.125v4.875s6.791-2.75 10.451-2.75h-.1zm0 8.375c3.662 0 10.451 2.75 10.451 2.75v-4.875s-4.518-3.125-10.451-3.125h.1c-5.934 0-10.451 3.125-10.451 3.125v4.875s6.791-2.75 10.451-2.75h-.1zm0 20c3.662 0 10.451 2.75 10.451 2.75v-4.875s-4.518-3.125-10.451-3.125h.1c-5.934 0-10.451 3.125-10.451 3.125v4.875s6.791-2.75 10.451-2.75h-.1z" fill="#fff"/><path d="M232.687 123.042c3.662 0 10.451 2.75 10.451 2.75v-8.875s-4.518-3.125-10.451-3.125h.1c-5.934 0-10.451 3.125-10.451 3.125v8.875s6.791-2.75 10.451-2.75h-.1z" fill="#fff"/></g><path d="M251.335 100.964c.198.457.284 1.069.101 1.647.306 2.525-1.933 4.016-3.294 5.301-.395-.76.824-1.277.772-2.197.58-2.232-1.205-3.662-.546-5.703.154-.002.228-.157.188-.272-.159-.342.186-.347.376-.465.007.498-.362 1.385-.083 2.11.493-.315 1.256-.633 1.834-.412.257-.732-.449-1.795-.3-2.104.727-.087.902 1.29.952 2.095z"/><path d="M208.719 203.13v2.135a5.429 5.429 0 0 0 5.417 5.116h31.206l-.076.01c1.344 0 3.279.823 4.143 2.518h.9c.864-1.695 2.799-2.518 4.142-2.518l-.077-.01h31.198c3 0 5.385-2.433 5.385-5.433v-1.818H208.72zm.127-77.966h82.303v9.779h-82.303zm0 19.422h82.303v9.779h-82.303zm0 19.421h82.303v9.779h-82.303zm0 19.422h82.303v9.779h-82.303z" fill="#005ea8"/><path d="M231.953 119.163c-.23.499-.077.997-.384 1.265-.268.613.192 1.112.269 1.687.958-.46 2.223-.115 2.491-1.38.115-.345-.268-1.265.383-1.035.307.537.92 1.61.537 2.568-.958 1.533 0 3.22-.805 4.715-.307.69-.882 1.304-1.571 1.572.153.92 0 2.223.536 3.105 1.265 2.53 4.984 2.76 5.635 5.52.498.268 1.035.23 1.457.574-.345-1.686-.307-3.756.996-4.906.614-.268 1.457-.958 2.224-.46 0 .46.766.805.268 1.227-.46-.307-.958-.269-1.38-.116-.076.46-.268.844-.076 1.304.536 1.226 1.916 2.146 3.104 2.3l.575-.192c-.115-.728-.613-1.648-.268-2.568.613.076.652.843.997 1.265.843.805 1.456 1.418 2.568 1.763.882-.153 2.185.077 2.76-.92 1.226-1.533-1.879-1.418-.652-3.028.383-.499.728-.652 1.227-.92-4.638-.575-9.775-.307-12.727-3.872-1.15-.882-2.3-2.76-2.184-4.6-.154-3.258 2.645-5.174 4.868-6.248 2.798 1.342 5.136 3.565 5.443 7.092v1.38c-.499.191-.728-.345-.767-.575-.383.038-.575-.422-.996-.269-.499 2.722 2.415 3.757 4.216 4.792.69.307 1.84.46 2.415 0-.038-.115.077-.307-.115-.383h-.153c-.116-.767.115-1.61.268-2.377l.729-.575c-.5-.307-.538-1.073-.384-1.648.575-.307.23-1.572 1.227-1.112.115.307.92.383 1.38.575 1.648.46 3.373.46 5.06-.115v-.153c.153-.039.267.191.46-.116.152-1.84-.538-4.331.996-5.711.652-.038.881.038 1.188.383.537.537.076 1.457.728 1.84.345.499.92 1.304.575 2.109-.153.421-.268.92-.728 1.111.345.154.843.154 1.189 0v-.191c.191.268.306-.116.46-.192.46-.383-.116-.958-.193-1.188.959-1.227 2.454.958 3.297-.805.652-.307 1.15-.345 1.763-.384.268.805-.038 1.917-.46 2.569.728.191 1.188.996 1.38 1.648-.038.422.154.805-.383.843-.498-.076-.69-.613-1.265-.268v.192c-.191-.077-.345.076-.268.268-.192.575.498.307.728.651 1.15-.076 1.84-1.073 3.296-.575.077.384.575.269.192.729.844-.038 1.342.46 1.84.766-.153.69-.843.959-1.38 1.38-1.188.537-2.683 0-4.063.805-.038 1.074-.499 1.879-1.073 2.568l-.115.115c.996 2.76 1.111 5.674.115 8.472l-.46.076c.23 1.572-1.457 3.834.536 4.409.039.268.346.498.077.728-1.112-.077-2.223-.077-2.913-.92l-.383-.729c-1.189.116-.728 1.764-1.38 2.492-.307.499-.269 1.304-.269 1.84.192.652 1.38.997 1.84.46.767-.537.307-1.38 1.112-1.763.153 1.457.153 3.105-.46 4.332-.69.728-1.342 1.264-2.492 1.303.959 1.495.997 3.757 0 5.328-.996.882-1.61 2.032-3.22 2.032-.65 1.15-.345 2.99-.267 4.408.575 2.607 1.456 5.673 3.833 6.708 2.108.729 4.714 1.993 6.631-.076.575-1.112.575-2.377-.192-3.22-.613-.384-1.763-.805-2.644-.384-.614.115-1.074.805-1.38 1.304-.498.958.652 1.494.268 2.3-.958-.345-.958-1.495-1.572-2.224-.421-1.303.882-2.837-.536-4.025-.46-2.146 1.035-3.22 1.571-4.983.346-.076.383.153.537.384-.077 1.303-.038 3.373 1.303 4.024 2.568.077 4.523 1.687 5.52 3.949.345-.077.613-.729.805-1.189.614-1.725.69-4.408-.536-6.056-2.109-.844-.614-4.14-3.412-3.68-.384.23-1.112.958-.537 1.457v.192c-.651-.039-1.073-.575-.767-1.189.384-1.111 1.227-1.572 2.032-2.224a11.13 11.13 0 0 1-.537-3.028c.46-.268.575-1.073.652-1.648.306-1.649-.537-3.22-.843-4.6-.038-2.338-.077-4.715 1.112-6.554-1.189-.537-1.764-1.994-1.955-3.297-.192-2.492.421-4.332 2.223-5.788a8.498 8.498 0 0 1 2.3-.92v-.192c.843.192 1.955.307 2.836.652 1.457.651 2.837 2.261 3.22 4.025.23.651.69 1.686 1.035 2.491.537-1.15.92-3.066.077-4.14l-.077.115c-.383-1.341-1.456-2.3-1.648-3.68-.039-.92-.422-1.495 0-2.491 1.188-.268.307 1.341 1.073 1.725.345.345.613.69 1.035.766-.882-1.303-1.495-3.986-.575-5.52.767-1.648 1.993-2.99 3.872-3.603 1.111.192 2.07.077 2.76 1.112.613 1.15.115 2.837-.652 3.757-.191 0-.422.038-.537-.192.346-.652.69-1.418.537-2.185-.077-.498-.498-.92-.997-1.035-.958.115-1.265.92-1.648 1.687 0 1.648 1.38 3.028 1.648 4.6-.076.536-.498 1.303-.46 1.916.614-1.265 1.457-2.223 1.38-3.756.077-.192.307-.077.46-.115.269 2.108.844 4.753-.537 6.554-.69.729-1.57 1.534-2.223 2.454-.575.23-.767 1.073-1.188 1.571-.307.46-.154 1.112-.46 1.572.652.153 1.802.153 2.3-.383.077-.154.613-.46.652-.805l-.384-.729c.153.039.192-.115.269-.191v-.192c.498-.077.498.077.728.46.383 1.571-.46 3.258-1.457 3.948-.766 1.188-3.373-.268-2.837 2.109-.575 1.494-1.38 2.99-2.491 4.063 1.84 2.031 2.376 4.753 3.412 7.167-.116 1.189-.499 2.722-.767 3.796.651.038 1.763-.192 2.031.536.614 1.342-.23 2.376-.996 3.22h-.383v-.92c.383-.038.038-.499.268-.651-.192-.422-.882-.652-1.265-.268-.307 1.418-.038 3.257-1.303 4.14a6.521 6.521 0 0 0-1.917 1.916l.077.115c1.034-.69 2.184-.882 3.334-1.495.346-.422 1.112-.882.805-1.84-.268-.115-.537-.038-.537-.46v-.345l.729.076c.268.346.613.077.996.269.614.345 1.15.805 1.38 1.495.345 1.227-.153 2.377-.613 3.296-.652.805-2.836.499-2.146 2.224-.46 1.38-1.802 2.415-3.105 2.76-.23-.92 1.418-1.38.805-2.415-.268-.46-.92-.614-1.189-.537-2.415 2.491-5.175 5.366-8.816 6.632-2.453.88-5.673.344-8.088-.384-.23-.345-.69-.422-1.035-.652-.268.307-.268.92 0 1.227.383.69.767 1.265 1.572 1.457 1.648.421 3.718-1.764 4.6.46 1.341.114 3.258-.269 3.948-1.84 1.073-.154.499 1.38 1.571 1.457 1.84.958 4.6 1.954 6.364.766.344-.997.842-1.916.268-2.952-.23-.728-1.265-.421-1.649-.383-.575.307-1.073.997-.843 1.763.115.039.077.192.077.269.038-.077-.039-.154-.077-.192-.153.076-.076.268-.076.383-.116-.038-.153.039-.192.077-.383-.46-.46-1.15-.268-1.725.613-1.495 1.878-2.185 3.488-2.147 1.84.269 3.565 1.112 4.408 2.952.23 1.763.882 3.91-.537 5.175.614 1.15 1.112 2.76.614 4.216-.46 1.802-1.879 2.952-3.565 3.489-.806.114-1.649.23-2.224-.077.115-.613 1.112-.307 1.572-.652.767-.46 1.112-.882 1.456-1.763-.421-1.035-.958-2.07-1.725-2.76-.23 1.035-.497 2.262-1.647 2.492-.116-.46-.077-1.227-.575-1.649-.614-.191-1.496-1.188-2.109-.536.613 1.456-1.112 4.063 1.457 4.216.498.729.996 1.725.652 2.568-1.304.575.114 1.304.268 2.032.191 1.265.92 2.99-.268 3.757 1.15 1.38.996 4.025.46 5.826-1.035.422-.423-1.188-1.113-1.571l-.613-.383c.077 1.072.269 2.76-.843 3.41-.498.653-.154 1.304-.652 1.918-.651.153-.88 1.61-1.571.843.192-.652.92-1.266.115-1.84-.882-.039-1.802-.192-2.3-.92-.958 1.073-2.952 1.035-4.408.728-.613.69-1.495 1.303-2.491 1.572-.46.536-.23 1.61-.575 2.031-.69-.575-2.032-1.341-1.65-2.875l-1.11-.537c-.384.5-.537.767-1.074.997h-1.38l-.767-.805c-.996.499-1.878 1.15-2.568 1.917-.46-.537-.23-1.648-.192-2.376.23-.652.729-.959 1.38-1.304-.345-.69.23-1.38.575-1.725.115-.421.844-.307.729-.843-.614-.537-1.112-1.341-1.917-1.303-.115-.192-.307-.307-.115-.537.958-.422 2.645-.767 3.68-.076.728-.192 1.61-.116 2.223.268.422-.154.498.191.729.345l1.916.766c1.303-3.986 1.993-8.624-.805-11.806.077-.422 1.227-.498 1.188-1.265l.192-.652c-1.572-.536-3.68.077-4.715.92h-.153c-.23 2.032-1.457 4.14-2.952 4.677-.575.306-1.495.306-2.031 0l-.383-.46c-.614 2.032-1.036 4.025-2.838 5.443-.728.383-1.188 1.495-2.03 1.648-.116-.92.958-1.15 1.187-1.916.537-1.342 1.189-2.684.92-4.255-.843 2.76-6.018 5.481-3.028 8.74v.651c-1.112-.191-2.3-1.303-2.951-2.376l-.537-1.649c-1.878 2.07-5.29 3.45-4.217 7.168.729.767 2.224 1.725 3.374 1.189.498-.575.268-1.534.191-2.224-.498-.23-.766-1.303-1.265-1.265h.077v-.651h.383c.843 1.303 1.725 2.184 1.38 4.063-.421.92-1.15 1.38-2.223 1.84-2.032.268-3.795-.92-4.6-2.3-1.572-4.791 2.453-7.091 4.408-10.043.805-1.993 1.15-4.331 2.032-6.248-.959-.958-1.457-2.3-.997-3.872 1.035-1.188-.498-2.07.268-3.297.077-.766.23-1.38.997-1.686l1.303-2.645-.651-.46c-1.572-.383-3.604.153-4.868.92-.384.345-.499 1.188-.575 1.572-.767-.384-1.764-.46-2.645-.307-.269.959-1.725 1.227-1.572 2.492.383.805.307 2.146 1.112 2.951.421 1.38.805 2.837 0 4.217-.575.46-.69 1.38-.46 2.146.345.767.69 1.879 1.571 1.84 0-.421.346-.69.346-1.111h.46c-.116.92.766 2.146-.077 2.951-.652.805-1.495 1.418-2.683 1.265.038 1.227-.422 2.683 0 3.949-.192.421-.652 0-.997 0l-.575-.537-.077 1.648c-.345.192-.728.805-1.303.575-.422-.536-.46-.345-.728-.92-.844.153-1.035 1.303-2.109 1.265.499.613.269 1.303.192 2.032-.46.958-1.035 1.648-2.032 1.763.307-.843.614-1.61 0-2.415-1.111-.345-2.76-.307-3.603-1.457-1.073.307-1.457-.92-2.3-.728-.153.383-.843.46-1.265.728-1.265 1.035-2.683-1.035-3.603.729-.537.345-.383 1.571-1.188 1.188-.154-.767-.844-1.227-.46-2.108.651-.384.498-1.917 1.571-1.457-.153-.422-.46-.537-.268-.92-.345-.422-1.035-.307-1.226-.652-1.38 0 .115-1.84-1.189-1.763-.958.077-1.495.652-2.376.92.076-1.571 1.571-2.568 3.028-3.028.115-.499 1.38-.882.652-1.571.23-1.342.805-2.224 2.185-2.492.191-.154.076-.422.114-.614-.306-.536-1.15-.651-.843-1.38.23-.076.575.269.729.345 1.265.575 2.184 1.764 3.603 1.955.383.46 1.227.805.652 1.649.651 0 .92-.805 1.265-1.38.076-1.38-.115-2.799.383-3.68-.882-.613-.882-1.878-.843-2.875.153.077.191-.115.306-.153-.23-.23-.69-.652-.766-1.112l.306-1.188c-.306-.46-1.188-1.112-.843-1.84l.192-.307c-.422-.115-.652-.153-1.035-.077-.345.307-.728.729-.92 1.304.307.537 1.342.383 1.226 1.265-1.533.345-2.606-.345-3.411-1.572-.153-.421-.268-.728-.268-1.188-1.15.153-3.604-.805-4.332.843-.076.307.115.537.192.805.268.307.882.537.92 1.035-.499.46-1.342.23-1.955.192-.767-.46-1.572-.92-1.917-1.763-.115-1.074-.307-2.492.268-3.297.499-.23.614-.805 1.189-.843.345-.729-.422-.997-.537-1.648-.69-2.646.728-4.6.997-7.016.115-.766-.537-1.073-.805-1.648-.345-.192-.805-.383-1.227-.192-.613.537-1.342 1.189-1.457 2.224.384.421.882.345 1.38.191.154-.076.039-.268.269-.191h.268c.153.651-.843.651-1.38.843-.575-.383-1.303-.652-.997-1.686.767-.959 1.227-2.53 2.76-2.3 1.265-.23 2.952.344 4.063.92.69.805.959 2.031.805 3.143-.306.996-.996 1.8-1.111 2.836 1.61.077 3.603-.268 4.983.767 0 .23-.077.383-.268.537-.614.038-1.15-.844-1.764-.077-.191.613.575 1.265 1.112 1.533 3.642.307 5.06-3.603 8.203-4.6 1.303-.65 3.603-1.571 5.06-.536 1.763-1.879 4.6-1.265 7.245-1.38.881.23 1.61 1.112 2.76.843v.077c3.526.153 8.854-.652 10.311-4.217-3.22-.882-4.83-3.373-7.436-4.907-.039-.153.038-.345-.116-.46h-.191c0-.076.038-.23-.077-.268h-.191c-1.266-.766-.767-2.99-2.569-3.028-.881-.537-1.341-.805-1.648-1.84-1.073.728-1.725 2.223-1.572 3.871.154.959.997 1.074 1.764 1.38l1.456.077v.192h-.076v.383l-1.304.076v-.076c-1.073.23-2.721-1.342-3.296.268-.46.422-.192 1.725-1.035 1.457l-.268-.805c-.115.038-.077.153-.077.268-.537.307-.958 1.188-1.035 1.649-.076.46.115 1.188.575 1.38l.997-1.188c.307.191.268.267.268.728-.421.153-.651.651-.537.997.077.421-.575.344-.843.574-1.15 0-2.453.077-3.488-.728-.767-.805-.728-2.07-.843-2.875-.843.076-1.917-.345-2.454-.92.269-.498.844-.115 1.189-.537l.651-1.188c-.536-.23-1.226.077-1.686-.307.076 1.035-1.764.959-1.074 1.84.039.384-.307.652-.46.844.154.996-.613 1.648-.92 2.491-.115 0-.23-.038-.306.077-.269.345-.805.498-1.189.728h-.268c-.422-.69.537-2.453-.843-2.3-.383-.115-.69-.383-.805-.805-.345.422-1.15.384-1.763.652-.269-.077-.575-.307-.729-.46-.307.536-.728.728-1.111 1.188-1.917-.345-1.764 2.377-3.68 2.3-.23-1.418.153-2.76-.652-3.871-.115-.384.23-.806.115-1.304-.881-.038-1.495.077-2.415-.345-.958.039-1.303-1.111-2.453-1.111h-1.763c-.154-.614.191-1.074.536-1.457.844-1.15 3.067-.307 3.335-1.955.614-.345 1.15-.843 2.032-.652-.69-1.686 1.418-4.063-.115-5.328-.23-.23-.077-.383 0-.651.92.421 2.3.651 2.875 1.84.383-.499 1.035-.038 1.38 0 .613.537 1.073 1.418.92 2.415.383.23.613-.038.92-.116 1.686-.651 2.146 2.416 3.22.307 1.456-1.035 2.951-2.491 4.868-3.143.345-.46.958-.23 1.38-.536-2.684-1.112-5.558-1.687-8.088-2.875-.92-.154-1.572.23-2.224.651-.498.959 1.687.959.843 1.571-.843-.037-1.494-.958-1.954-1.494-.115-1.419.958-2.07 1.648-2.837 2.951-.766 6.286.268 9.506.192l3.565-.575c-.345-.69-1.111-.729-1.188-1.533-.69.038-1.571.65-2.376.153-.23-.499-.69-.767-.384-1.38.077-.154.575-.728 0-.805-.383.077-.728.537-1.188.651-1.917.192-3.833.614-5.712.729-1.264-.345-2.376 2.338-3.028.268v-.997c-.958-.153-1.725-1.111-2.491-1.303-.192-.805-1.074-1.533-1.38-2.376v-2.3c.307-.575.843-1.15 1.303-1.495.69-.039 1.418.038 1.84.46l.077.575c-.614-.23-1.304-.422-1.917-.192v.192c-.46-.116-.23.383-.46.536.843 1.687 2.683 1.687 4.293 2.109 0-.959.307-1.994.843-2.569-.153.307.307.269.269.269 0 .728-.077 1.418.728 1.571 1.265.154 1.533-1.073 2.147-1.648.728-2.223-2.377-.958-2.952-2.492-.536-.421-.383-1.571-1.188-1.648-.268-.345-.498-.728-.843-.843-.269-.652-1.15-.46-1.112-1.457.997-.115 1.955-.537 2.951-.383.652-.345 1.649-.652 1.764-1.572-.882-.422-1.84-.69-2.224-1.725-.843-1.073.729-3.795-1.38-4.408-.345-.153-.115-.498-.191-.767 1.035-.153 1.84.652 2.875.767 0 .077-.039.23.076.268h.192c0 .077-.038.23.077.268.076-.421.536-.728 1.034-.46.116.23.575.307.805.269l-.076.115.268.153c-.383-1.226.882-1.993 1.648-2.836.882-.23 1.764.153 2.3-.652.345-.537.844-1.112.652-1.725.767.154.422 1.496.652 2.11zm43.698 14.911c-.115.46-.191 1.035-.651 1.265-.537.077-1.342.307-1.764-.191l.307.46c.843.23 1.917.076 2.377-.537.038-.46-.038-.767-.269-.997zm-1.955 3.029c.384.536.69 1.456 1.38 1.571.268-.345.575-.881.843-1.303-.728.153-1.648.192-2.223-.268zm4.983 2.491c-.268 1.035-.958 2.3-1.763 3.297.805.996 1.227 1.61 2.147 2.3.46-.959 1.112-1.917 1.38-3.143.345-1.036-1.495-1.342-1.764-2.454zm-3.22 5.674l-1.11 1.226c.114 2.645.076 5.558-2.186 7.168.498.767 1.495 1.61 2.645 1.38-.192-3.105 1.227-5.29 2.683-7.36l-2.031-2.414zm3.68 4.254c-.536 1.496-1.648 3.259-1.188 5.252.575-.422.652-1.38 1.265-1.955.077.23.23.115.384.268-.384 1.533-.192 3.22.536 4.255l1.304-1.955c-.307-.115-.039-.307-.077-.537-.537-1.878-.652-3.986-2.223-5.328zm-22.998-18.207l.92.076c1.188.422 1.648 1.112 2.376 2.224.46-.882.345-1.802.191-2.684-.92-1.725-2.184-.421-3.487.384zm-.652.153c-.345.192-1.112.345-1.457.767l.92.345c-.192-.499.23-.767.537-1.112zm.728 3.143c.153.537.805.69 1.111.652-.46-.115-.766-.345-1.111-.652z"/><path d="M243.07 118.588c2.375 1.495 4.254 3.45 4.599 6.44-.652-.23-1.188-.268-1.725-.153-.345 1.226.153 2.376.613 3.373 1.725 1.725 4.102 3.565 7.015 2.683l.537.384c-.192.46-.46-.116-.728.153-1.112.575-2.416-.153-3.872-.077-3.22.154-6.057-.958-8.28-2.683-.268-.575-1.265-.651-1.38-1.457-1.111-.536-1.226-1.993-1.38-3.296.077-2.952 2.185-4.025 4.064-5.367h.536zm-11.96 1.572c-.23 0-.307-.345-.537-.345l.728-1.112c.268.46-.038.882-.192 1.457zm32.467.383c-.153.154-.46.46-.345.805.153.192.536.077.651.115v-.115c.537.115.384.805.537 1.227l-.077.613c-.115 0-.23 0-.307.115-.115.268-.804.422-.536.997.038.115.192.115.268.115.153.345.805.498 1.112.536.652.039 1.112-.536 1.648-.843.268-.498.307-.843.268-1.38.882-.268.767.767 1.687.575.115-.805 1.303-.881 1.84-1.38.154.997-.652 1.649-.766 2.568h.306c.345.039.92.384 1.073.92-.344-.153-1.073-.153-1.533 0-.307 1.112 0 2.416 1.265 2.492 1.304.307 1.457-1.341 2.76-.651h-.076c.306.153-1.074.766-.192 1.188.614-.422 1.15-.345 1.764-.192-.73.997-2.722.575-3.988 1.112-.153.115-.42.268-.728.191-.345-.23-.345-.651-.805-.843l-.192.307c-.842-.843-2.491-1.342-3.603-1.955-1.226-.307-2.261-1.457-3.105-2.185-.345-.881-.536-2.07-.383-2.951 0-1.035.268-1.994.843-2.683.652.267.46.727.614 1.302z" fill="#f5c900"/><path d="M230.381 120.62c-.077.307.077.498.383.575.614.345.269 1.571.614 2.108.536-.268.805-.613 1.38-.728.881.038 1.303.843 1.495 1.265.076 1.111-.039 2.376-.652 3.335-.613.728-1.303.498-2.032.153-.575.115-.076.575-.076.843.038.115.191.077.268.077 1.303 1.648-1.648 2.491-.077 4.14 1.266 2.07 2.875 3.756 5.06 4.983.345.767 1.534.422 1.917 1.303.076.422-.077.575-.46.613-1.418-.115-1.84-1.533-2.952-2.453-.804-.728-2.031-1.456-3.22-.843.346.997 1.649.728 1.955 1.917-.076 1.495-.421 2.721.537 3.794.537.882 1.61.575 2.492.652-.23.383-.767.69-.575 1.265l2.031.383c-.69.499-1.61.882-2.491 1.112.191-.345-.614-.46-.997-.92-.575-.421-.307-1.84-1.303-1.226-.422 0-1.265.766-1.84.114.191-.383.345-1.073.651-1.303.039-.191 0-.651-.345-.728-.651.115-1.725-.728-1.955.383-2.721.882-5.864.384-8.164 1.84-.116-.46.191-1.15-.192-1.686-1.763-.154-2.913-1.572-3.795-3.22v-1.189c.268.116.077.537.46.46.192.307.537.575.843.652 1.227.498 2.798.882 4.14 1.112.498-.346-.077-1.035-.077-1.495.46.46 1.227.651 1.994.575.766-.805 2.146-1.457 1.955-2.952-.23-.498-.269-1.188-.844-1.38-1.15-.153-2.415-.613-2.951-1.763-.192-.805-.345-.997-.268-1.917.421.23.498-.383.575-.536.766-.575 1.763-.997 2.185-2.032-.192-1.265-2.032-.805-2.492-2.032l-.268-1.188c.23-.345.843-.422.92-.843.69.038.536-.92 1.188-.997-.498-.038.23-.345 0-.383 1.035 0 1.342 1.035 1.955 1.38.383-.92-.499-2.76.728-3.297.613-1.111 1.61-.23 2.3.077z" fill="#e2001a"/><path d="M234.713 122.268l-.268.384c-.116-.23-.537-.23-.384-.652.192-.345.728-.537.652-1.112.421.422 0 .92 0 1.38z" fill="#f5c900"/><path d="M287.496 121.808c-.613-.46-1.342.077-1.84.307-.766.843-1.188 2.146-.729 3.488.614 1.112 1.802 2.683 1.035 4.217-.306.69-.498 1.303-.92 1.763.23.383-.383.575-.574.728.038.268.306.422.383.652.92-.268 1.418-1.15 1.917-1.955.728-.384.843-1.342 1.303-1.993.652 4.791-4.217 5.328-4.715 9.468-.038-.115-.69-.115-.729-.46 1.189-2.492.346-5.29-1.38-7.168l-.345-1.764c.077.92.844 1.304 1.649 1.649h.997c-.039-1.15-2.185-3.067-1.265-5.06.46-2.032 1.724-3.526 3.68-4.14.46.153 1.15-.077 1.533.268z" fill="#e2001a"/><path d="M224.325 122.92c-.422.268-.767.613-1.035.728.153-.805-.23-1.457-.729-1.916.575.306 1.457.306 1.764 1.188z" fill="#f5c900"/><path d="M261.66 125.22c1.495 1.15 2.108 2.338 4.064 2.76.383.344 1.111.498 1.456.92-.269.498-1.917.421-1.112 1.303.614-.154 1.342-.422 1.649-.843.46-.23.92.383 1.303.46-.421.536-.882 1.226-1.763 1.188-.346.191-.115.575-.154.843.575 0 1.496-.268 1.725-.843.268-.23.614-.46.729-.92.421.882-.307 1.725-.537 2.223-.69.038-.651.613-.537 1.112.805.23.652 1.341.805 2.108-.077 1.418.154 3.143-.192 4.217-.306-.767-.766-1.342-1.38-1.649-.345.115-.383.499-.345.843 1.917 1.879-.23 5.06.729 6.9-.537-.307-.767-.498-1.112-.92-.192-.46.46-1.15-.192-1.571-.843.192-.88 1.303-1.724 1.38 1.533-3.488-2.76-6.44.46-9.2-.039-.268-.269-.537-.575-.537-.997 1.572-3.067 2.99-5.329 2.645-.115.959 1.035.422 1.496.843.843-.23 1.878-.613 2.453-1.111-.575 2.453 2.415 5.558.306 8.088-.191.153-.076.46-.115.651.384.23.806-.038 1.112-.268-.345 1.38-1.572 2.99-.537 4.331.614.767 1.38.575 2.3.346l.345-.46c-.038.805-.192 1.648-.728 2.3-.69 1.188-2.722 0-3.028 1.303.996.652 1.61 1.571 1.456 3.028-.114.997-.498 2.262-1.38 2.76.116-.767-.076-1.802-.536-2.3-.039-.767-.537-.728-1.112-1.111.039-1.266-.153-2.453.268-3.488-.23-.192-.307-.882-.728-.537l-.192.268c.038 1.457-.076 3.335.116 4.408.843.077.843.997.536 1.572-.345.651-.191 1.457-.728 2.032.076-1.15-.69-2.76-1.84-3.68-1.534-.767-2.76-1.725-3.489-3.144-.115-.153-.344-.076-.46-.191-.574 1.15.346 1.648-.306 2.76-.384-.69-1.15-.882-1.725-1.38.191 1.111-.192 2.76-1.112 3.335.153-.805-.191-1.304-.728-1.687.613-1.304-.383-2.185-.192-3.488-.383-.115-.69-.192-.92.115-.038.23.115.92-.46 1.188-.076 0-.23-.038-.268.076 0 .23-.537.346-.575.384.307-1.073.23-1.993 0-2.952h-.153c-.422-.153-.192-1.073-.767-.843-.92.537-2.223 1.15-2.76 2.3-.153 1.112-.613 2.377-.153 3.527-.843-.116-1.572-.652-1.84-1.303v-.384h.077c.268-.154-.384-.268.076-.345-.23-.345-.651-.115-.996-.192-.116.039-.077.192-.077.268h-.192c-1.456 1.227-1.993 3.489-1.495 5.329-1.763-.499-2.836-1.649-3.373-3.68.23-1.265.153-3.182 1.073-4.025l.92-.115c.192-.269.115-.805-.268-.92-2.607.23-4.562 1.188-6.171 3.143.153-1.035.575-2.262 1.571-2.951.422.038.843.038 1.112-.345-.154-.882-.958-.46-1.457-.652-3.143-1.456-7.053-2.031-10.12-3.412-1.265-.076-2.07.499-2.76 1.112.116-.805.729-1.533 1.457-1.955 2.799-.652 5.329.46 8.088.46 2.76-.69 6.593-.268 8.932-2.453-.039-.805-.843-.767-1.303-1.112-.345.115-.537-.23-.92-.115.383-1.035 1.495-.499 1.686-1.648.154-.652-.46-.115-.651-.268-.844.268-2.262 1.072-3.22.383 0-.115 0-.23-.115-.307-.307-.23-.499-.575-.537-1.073.038-1.112.46-2.76-.537-3.335 1.763.881 2.952 4.83 5.328 2.683.116-.537.192-1.418-.46-1.572 1.112.077 2.07.997 2.837 1.764.767-.997-.882-1.725-.728-2.875-.154-1.572.153-2.875 1.303-3.565-.46.076-.307.69-.383.92-.192 1.38.958 2.3 1.84 3.028 1.112.728 2.108.345 3.22.805.23-.23.306-.537.268-.92-.46-.038-.422-.805-.537-.805.997 1.112 2.415 2.185 4.409 1.725a2.608 2.608 0 0 0 1.763-1.38c-.116-.575.613-1.533-.307-1.725 0-.115.038-.23-.077-.268-.153-.077-.46-.307-.383-.46.192-.575.613-.767 1.112-.92.498-.345.881.23 1.38.153 1.265.997.843 2.492 2.491 2.875 1.342 0 1.917-.613 2.684-1.571.076 0 .23.038.268-.077 0-.115-.038-.153-.115-.192.574-1.111.996-3.488 0-4.523-.575-.613-1.495-.613-2.377-.46-1.035.154-1.226 1.955-2.76 1.304-.575-.154-1.226-.805-1.38-1.38.077-.69.077-1.649.729-1.84 0 .345.498.421.728.536.652.154 1.687.499 2.147.115.038-.268-.422-.153-.115-.383-.575-.575-1.878-.383-2.3-.843-.384-.498-.805-1.188-.345-1.84.575-.192 1.303.307 1.993.383 1.648.614 4.063.422 5.443-.191z" fill="#e2001a"/><path d="M261.009 126.6c.153.575.804.575 1.188.92-.115.153-.077.383-.077.575-.767.038-1.303-.959-1.917-.192-.268.651.346.958.806 1.112h.191c-.076.153-.191.306-.191.536h-.729c0-.076.039-.23-.077-.268-.383-.192-.46-.728-.65-1.035.075-.421.114-.996.65-1.188h.154c0-.537-.613-.307-.268-.997.498-.153.574.46.92.537z"/><path d="M222.561 131.2c-.115-.614-.728-.614-1.188-.997.422.076.805-.537 1.265-.192l-.077 1.188z" fill="#f5c900"/><path d="M237.28 135.723l.998 1.188c-1.074.46-1.994-.843-2.837-1.303-.997-1.572-4.293-2.76-3.028-5.213.345 2.683 2.568 3.986 4.868 5.328zm42.396-2.223c.805 1.264 1.035 3.334 1.955 4.714.23.767 1.342.69 1.725 1.38 1.112.115 2.952-.076 3.527-.92-.499 1.419-1.687 1.955-3.067 2.185-1.495.115-3.105-.077-3.948-.92-.614-.422-.575-1.38-1.457-1.457-.384.499-.46.997-.575 1.572-.345.192-.384.843-.613 1.265-1.533 1.533-2.108 3.526-3.795 5.06.383 1.955.191 3.794-.652 5.52.422-1.993-1.035-3.872-.92-6.057-.077-2.07.345-4.063 1.687-5.328.728-.46 1.188-1.112 1.993-1.227.613-.728 1.687-1.84 1.112-2.836-.882-.039-1.61.575-2.569.076.307-.076 1.764-.153 2.3-.92.346-.728.307-1.648-.191-2.3-.498 0-.805-1.188-1.265-.268.268.23.192.843.076 1.188-.383.537-.728.537-1.188.46l-.92-.92c-.613.192-.422.767-.268 1.035-.191 1.572.498 3.182 1.456 4.217-.306.575-.958.843-1.303 1.303-1.418-.805-1.61-2.568-1.725-4.14-.038-1.878 1.227-3.565 2.645-4.332 1.955-1.111 3.067-.191 4.907.537l1.073 1.112z" fill="#e2001a"/><path d="M257.444 132.388c.344.421.92.843 1.073 1.38.077.651.23.306.575.651l-.729.46c.039-.498-.536-.307-.843-.345-.728-.69-2.261-1.035-1.763-2.415.537-.076 1.15.077 1.687.269z" fill="#f5c900"/><path d="M245.56 141.587c-.574.537-1.303 1.112-2.108 1.227-.268.46-.958.23-1.38.537.077-.269-.345-.422-.115-.652.92-.422 1.955-.422 2.607-1.188.307-.154.422-.652.92-.729-.153.345.268.575.077.805z"/><path d="M282.743 141.78c-.307 2.95-2.76 4.79-4.064 7.09-.613 1.534-1.801 3.412-1.456 4.984-.383.882.345 1.38-.191 1.993l-.575 1.572c-.46-1.15-1.342-.997-2.186-1.38-.69-.192-1.686.92-1.954-.269.076-.268-.307-.537-.154-.996.575.766 1.38 1.15 2.453 1.073l-.076.115c.192-.153 1.226.038.996-.728-.383-2.607 1.227-5.137 2.492-7.092.115-.038.499-.038.575-.383-.076-.882.729-1.457 1.074-2.185.65-1.035 1.417-2.606 1.494-3.986.537.076.997.268 1.572.191z" fill="#e2001a"/><path d="M278.68 145.727c-.115.537-.69.652-.729 1.227-.766-.575-1.571-1.572-2.032-2.223l.652-1.188c.537.88 1.227 1.571 2.108 2.184z" fill="#e2001a"/><path d="M241.957 148.22c-1.495.842-3.258 2.337-5.136 1.494l-.077-.46c2.185.307 3.91-.767 5.137-1.84.115.23.076.537.076.805z"/><path d="M282.628 151.707c.23 1.112 1.188 2.492.46 3.412 0 .153-.307.076-.46.115-.307-.345-.115-1.265-.805-1.112-.46-1.993-.805-3.794-2.223-5.175.153-.575.613-.92.843-1.265 1.303 1.112 1.38 2.76 2.185 4.025z" fill="#e2001a"/><path d="M218.498 151.822l-.92.46-.153-1.38c.46.307.843.46 1.073.92z" fill="#f5c900"/><path d="M233.601 151.17c-.767.806-1.418 1.572-1.457 2.76-3.181-.038-5.481 2.53-8.663 2.109-.651-.077-.383-1.112-1.188-.806-.46.46.46.959.652 1.265 1.15 1.074 2.568-.076 3.833-.076 1.725-.69 3.22-1.648 5.251-1.648 0 .345.077.728-.076.996.153.384.575.23.728.077.958-1.955 2.453-2.913 4.6-3.374-.613 1.42-1.227 4.064-.192 5.789.499.805 1.534 1.648 2.3 2.108 0 .307-.306.536-.46.843 0 .153.115-.191 0-.383-.996 0-1.38 1.342-2.031 1.917-.039 1.111-1.189 2.491.306 3.142-.805 0-1.725.116-2.491-.46-.384-.382-.767-1.073-.729-1.762-.038-.345.269-1.036.729-1.457-.384-.038.076-.422-.268-.46-.767.345-1.342.843-2.3.383.498-.69 1.495-1.725.996-2.76-.498-.23-.766.383-1.303.154-.154-.269-.46-.154-.805-.154 0-.575-.345-.115-.652-.306-.536.306.077.69-.191 1.111-.805.269-1.534.844-1.112 1.649-.153.575-1.112-.039-1.188.575-.077 0-.23-.039-.269.076-.383.345-.575.805-1.303.728-.805-.191-.613-.958-.92-1.456-.077-.115-.23-.153-.345-.192-.115.422-.498.92-.728 1.112-.767.038-1.457.307-1.687-.537-.958 0-.613 1.648-1.917 1.38.154-.076.077-.268.077-.383-.192-.077-.422-.383-.613-.192-.575-.92-.882.843-1.84.115-.154-.46-.422-.23-.575-.651-.23-.729.92-1.342.115-1.84-.882.307-1.84.115-2.683-.115v-.997c.92-.153 1.993.728 2.568-.077-.384-.268-.039-.23-.269-.575-.996.23-1.763-.345-2.491-.536-.307-.23-.498-.652-.268-1.035.345-.613 1.265-.92 2.031-.613.077.153.23.038.345.076.537-.268-.038-.767 0-1.188-.268-.729.116-1.418.384-2.223.191-.614 1.341-.614 1.916-1.112v-.269c.767.346 1.495.767 1.572 1.65.115.497-.307 1.225.383 1.494.614-.268 1.419-.383 2.108-.192.729.077.652 1.227 1.572.997 2.032-1.802 4.523-3.757 6.976-4.6.652 0 .92-.344 1.572-.077zm14.719 2.952c-.114.805-1.533.614-1.111 1.649.92.038 2.453-.69 3.335-1.38.383.651.038 1.495-.192 2.031.69.614 1.304.882.92 2.032.077.843-1.955 1.035-.575 1.84 1.073-1.035 2.76-1.916 2.952-3.604.153.039.23-.153.192-.267v-.269c.88.038.153 1.802 1.303 1.38.345-.805.422-1.686.613-2.492 1.61 2.032 5.52 2.99 4.331 6.785-.268.384-.191.69-.076 1.112.882.038.23 1.725.537 2.492.345 3.028 1.84 6.9 4.868 7.628v.115c1.84.882 4.561 1.111 6.286-.192 1.035-.997 1.265-2.492.729-3.871-.307-.882-1.496-1.265-2.415-1.457-1.304-.077-2.568.575-3.22 1.725v.46c-.345-.575-.154-1.61.191-2.108.115-.307.652-.192.46-.652-.23-.307-.996-.422-1.265-1.112-.498-1.341.384-2.453.805-3.488.038 1.342.383 2.875 1.572 3.411 2.453.077 4.561 1.687 5.443 3.604-.192.499.191.843.537.92l.383-.307-.115-.076c1.61-2.032 2.108-5.942.651-8.357-2.032-.69-1.15-4.14-3.603-4.254 1.073-.384 2.837-.882 3.68.114 1.15.729.882 2.492 1.304 3.565.497.23.229-.421.536-.46-.575-2.223 0-4.178 1.38-5.71-.613 1.034 1.687 2.72.46 4.253.115.614-.192.614.115 1.113.537.23.651-.346.805-.652-.23-1.763 1.457-2.492 1.84-3.948.307.153.728.69 1.226.345-.076 1.303-1.303 2.491-.767 3.603h-.076c.498 2.568-.997 3.833-2.568 5.328-.614.882-1.495 2.261-1.648 3.488.268.115.613.307.92.115-.192-.575.383-1.342.805-1.763 1.533-1.15 5.174-1.188 4.791-3.948.728.115 1.189.728 1.457 1.265.153 1.38-.23 2.376-1.38 2.951-.307.499-1.418 0-1.649.575.729.728-.114 1.878-.344 2.453l-.575.575c.115-.69-.154-1.226-.46-1.763-.422-.345-.959-.843-1.457-.651-1.418 1.917-3.297 3.642-5.252 4.983-2.07 1.917-5.328 2.262-7.82 2.3-1.15-.422-2.606-.269-3.603-.844l-1.457-.92c-.46 1.112-.69 1.38-.268 2.607l.46.729.077-.116c.383.959 1.341.805 2.108 1.227.882-.422 1.725-.307 2.76-.575.345.767 1.303.805 2.032 1.035.881-.192 2.146-.345 2.76-1.035l.575-.536c1.725 1.57 4.101 2.645 6.593 2.376.651-.384 1.84-.613 2.032-1.572.229-1.15.46-2.683-.538-3.565l-1.034-.115c.651-.268 1.801-.191 2.606-.076 1.572.728 2.875 1.993 2.913 3.68.115.996.27 2.338-.46 3.028-.612-.192-.575.307-.804.652 1.226.92 1.456 2.453 1.265 3.948l-.997 1.955-.076-.115c-.346.574-1.189.804-1.764 1.188.575-.384.843-1.035 1.112-1.725-.613-1.955-1.303-3.297-3.335-3.948.077.345-.46.23-.268.613.23.192.575.23.575.575.038.46 0 1.15-.383 1.571-.307-1.303-1.495-1.61-2.569-2.223l-1.303.077v.191c-.306-.076-.153.192-.268.268.46.422.23 1.342.537 1.764-.269.651-.154 1.686-.154 2.683.69.345 1.649.345 2.108 1.189.039.575.23 1.341-.383 1.571-.345-.192-1.112-.805-1.188-.192-.077.729.881.882 1.188 1.38.766 1.074 1.265 2.683.651 4.025-.306-.038-.651.077-.728.383 1.265 1.035 1.38 2.837 1.265 4.6-.345-.69-1.034-1.226-1.916-1.38-.307.077-.499.307-.537.652.46.69.23 1.763.153 2.568-.881.805-1.303 1.495-2.836 1.188-.498-.23-1.265-.613-1.457-1.111h-.307c-.498.498-1.034 1.111-1.993 1.111l-1.763-.076c.038-.115-.039-.153-.077-.192h-.191l.076-.077-.344-.306c-.614 1.035-1.342 1.763-2.3 1.686l-.46.077c0-.422-.346-.307-.576-.537-.038-.421.46-.575.269-1.035-.154 0-.346-.344-.537-.076-.115.038-.077.191-.077.268-.191-.077-.344.077-.307.268-.229.46-.344.384-.728.46-.805-.076-1.112-1.15-1.725-.345.269.46-.46.728-.65.997-.5.038-1.036 0-1.19-.46.077.115.345 0 .46-.077-.498-.115.346-.69-.383-.651-.076-.575.958-.384.46-1.035-.498-.345-1.648 1.418-1.84 0-.613-.038-.038-.537-.077-.997.077 0 .23.038.269-.076.115-.46.881-.345 1.111-.767.728.192 1.15-.652 1.649-.92-.039-.345.076-.766-.115-1.073 1.188.038 2.491.958 3.526 1.265.499 0 .46.805.92.383v-.191h.268c1.112-3.872 1.955-8.664-.383-12.152.575-.613.767-1.763 1.111-2.645l-.383-.383c-2.07-.23-4.178.23-5.865 1.38.154 1.61-.728 3.028-1.648 4.063-.766.154-1.38.767-2.3.537-.345-.192-.652-.805-.383-1.112-.038-.421-.23-.69-.537-.805-.651.268-.23 1.226-.46 1.917-.575 1.226-.575 3.526-2.146 4.408.46-1.572 1.38-4.294-.154-5.712-.69.613 0 1.572-.46 2.415-1.418 2.415-4.906 4.715-3.603 8.012-.843-.997-1.955-2.185-1.38-3.68.92-1.763 1.112-3.833 2.108-5.52-.076-.268.154-.613-.191-.767-.728.154-.805 1.15-.997 1.687h-.076c-.69 2.3-1.38 5.099-3.604 6.325-.613.805-1.993 1.725-2.376 2.76-.46.038-.307.651-.575.92-.23.882-.345 2.146.115 2.951.268.46.843 1.035 1.457 1.189.268.345.728.498 1.188.575-.652.23-1.303.267-2.032.153-.843-.575-1.993-1.188-2.453-2.3-.192-1.15-.077-2.032.153-3.105.422-.039.192-.46.384-.652 1.303-1.303 2.261-3.756 3.68-4.676 1.494-2.185 1.073-5.366 2.836-7.207-.038-.766-1.035-.65-1.38-1.38-.421-.804-.192-1.533 0-2.3.192-.344.92-.344.575-.92-.92-.881-.268-1.954-.192-3.028.767-.536 1.035-1.342 1.304-2.108 1.571-2.76 4.216-6.133 7.704-6.823-.268-.844 1.074-.269.46-1.38-.383-1.572-.076-3.489.115-5.136.46-.27.269-.959.269-1.304-.384-.383-.767.498-1.035-.077-2.568-.575-4.638-2.644-6.708-4.408-1.993-1.61-3.067-4.676-2.3-7.091.383-.882 1.15-1.342 1.955-1.84.997.421.345 1.648.537 2.491z" fill="#e2001a"/><path d="M262.388 159.834l-.728.536c.268-.766.537-1.725.843-2.567.23.536.346 1.494-.115 2.03z" fill="#e2001a"/><path d="M214.665 158.914c-.115.422-.422.766-.307 1.265-.882-.805-1.61-1.035-2.913-1.112.613-.728 2.722-1.763 3.22-.153z" fill="#f5c900"/><path d="M285.043 159.067c-.116.498-.192.537-.192.92.23-.038-.383-.728-.728-.92l-1.227.115c.652-.345 1.495-.92 2.147-.115z" fill="#e2001a"/><path d="M228.733 162.862c0 1.035-.729 1.725-1.572 2.3-.46-1.265.729-1.649 1.112-2.224.191.115.23-.191.46-.076zm-8.932 1.111c-.268.729-.996 1.266-1.571 1.725l.115-1.84 1.456.115z" fill="#f5c900"/><path d="M217.693 168.65c.268 1.418-.805 2.492-.92 3.603-.728 1.265-.191 2.492.192 3.757.498.537.728 1.303 1.533 1.38l.383-.537c-.306-.345-1.035-.651-1.111-1.111l-.537-.652h.077l-.192-1.38c.767-.345 1.725-.115 2.607-.192-.537.192-.422.92-.307 1.304.46 0-.115.766.46.651.345.575 1.418 1.074 2.031.997v-.192c3.45-.46 5.405-3.91 8.472-4.944.69-.767 2.262-.537 3.296-.575.729.038.767 1.073 1.495.575-.076-.575.077-.806.46-1.112 2.568-.805 5.559-.959 7.897.46 3.22.651 7.053-.499 10.12-2.224v-.191c.115 0 .23.038.268-.077v-.192c.115 0 .23.039.307-.076v-.192c.383 0 .306-.307.536-.537-.038 1.304-.345 3.144-.076 4.6-1.112 1.074-3.949.46-5.175.613.268-.114.306-.498.268-.804-2.377-.422-5.29-.69-7.973-.843-1.188.46-2.147.69-3.412.843-.422-.652-1.648-.346-2.415-.268-1.341.23-2.453.996-3.68 1.073-.23.191-.115.498.115.766 1.61-.306 2.3-.92 3.949-1.226.306 0-.499.23-.077.575 2.799.192 5.098-1.572 8.088-.92 1.495.191 2.76.307 4.217.651-.384.307-.077.959.383.997l3.297-.077c-1.61 1.112-2.99 2.76-4.217 4.14-1.61-1.035-4.408-.536-5.98.346-.345.46-1.111.958-1.111 1.571-.959-.268-1.649-.345-2.569.076-.69.652-1.456 1.266-1.648 2.3-.537 2.76 2.99 5.29.805 7.82v.307h-.192c-.46 1.648.307 3.297 1.38 4.217.499.191.767.076 1.227-.077.268.958-.767 1.303-1.304 1.916-.996.92-2.491-1.878-2.031.27 1.035 1.149-.422 2.414.191 3.794-.536 0-1.073-1.495-1.84-1.035 0 .805.844 2.108 0 2.76-1.418-1.38-1.265-4.447-1.111-6.785 0-.575.805-.92.383-1.572-1.073-.92-1.035-2.568-.728-3.87a.693.693 0 0 0 .268-.653h.077c.345-.613.805-1.418 1.034-2.108-.804-.651-1.725-1.725-1.38-3.028.077-.115.384-.115.269-.384-.039-.115-.192-.076-.268-.076 0-.115 0-.23-.116-.268-.536.076-.92.574-1.111.996.115.499-.115.959-.345 1.188-.154.154-.537.039-.575.384.306.804.881 1.341.92 2.3.268.766-.345 1.035-.805 1.457-.23-.077-.422.114-.46.268.46.46.996 1.571.651 2.491-.268.613-1.38 1.035-1.303 1.763.92.345.613 1.227.268 1.84-.575.537-.92 1.342-1.38 2.032.154.269.46.269.729.269.536-1.457 2.836-2.914 1.303-4.409 1.15-.69 1.227-2.223.997-3.526-.077-.115-.23-.192-.154-.345.077 0 .23 0 .269-.115v-.154c.345-.115.46-.613.651-.92.499-1.456-1.38-2.415-.191-3.411-.23.92 1.61 1.456.805 2.3-.537 1.648-1.649 3.181-.805 5.06l.728 1.187c-.92 2.3-.613 4.37-.268 6.824-.039.46-.575.958-1.035 1.265-1.342-.614-1.265 1.303-2.3 1.303-1.533.537-2.453-.46-3.565-1.303-1.112.613-1.304-1.073-2.3-.805-.652.766-1.648 1.15-2.683 1.073-.805-.383.23-2.108-1.265-1.188-.345-.23-.882-.23-.767-.805.077-.536.575-.69 0-1.035-.728.268-1.648-.115-1.917-.651.537-.383.844-.844 1.572-.729l.537-.651c-.652-.153-1.265-.345-1.725-.92h.153c.268-.154-.038-.345-.076-.537h-.192c.307-.421 1.456-.23 1.035-1.112-.039-.46-.805-.537-.307-.92-.153-.23.192-.46.307-.728.421-.46.958-.652 1.648-.536.345.191.498.728 1.112.536.498-.268.92-.805 1.648-.46.345.038.46.613.268.92.115.268-.153.192-.268.268-.345-.114-.23.269-.383.383.038.307.307.422.575.46 1.456.077 2.146-1.15 2.645-2.223.191-1.303-.46-2.683.575-3.565.23-.613-.384-.46-.575-.843-.422-.498-.69-1.188-.46-1.84.306-.115.843-.077.843-.537l.077-.115c-.46-.421-1.725-.498-1.265-1.571.23-.154.23-.345.613-.269v-.268l.115.077c.422-.767-.69-.345-.92-.805-.268-.345-.69-.729-.383-1.189.46.039.383-.536.46-.65-.46-.384-1.227-.5-1.917-.576-.498.153-.882.767-1.112 1.112-.421.038-.268.651-.536.92l.345.728c-.652-.383-.997-.805-1.38-1.265v-1.111c.153.038.191-.116.268-.192-.498-.115.307-.69-.345-.729-1.418 1.457-3.22-.536-4.868.652-.69.383-.92 1.303-.843 2.032l.536.728c-.613.076-1.035-.46-1.533-.652-.575-1.073-1.035-2.376-.192-3.488.422-.958 1.457-.115 1.649-1.034-.997-1.266-1.725-3.336-.997-5.137.46-1.457 1.533-3.067.728-4.6l-1.035-1.304c1.573.383 3.336.345 3.796 2.223z" fill="#e2001a"/><path d="M260.549 177.006c-.499 1.189 1.533 2.262-.346 2.492-.536.498-.191 1.303-.306 1.955.345.153.115.69.574.613.078.23-.076.46-.268.46-.804-.076-1.15-.843-1.686-1.38-.154-1.073-.92-2.683 0-3.488.498-.077.191.46.383.651-.537.422-.383 1.189-.268 1.764.192.153.345.996.728 1.265.192-.843-.191-2.338.92-2.645-.652-.997-.038-2.645.537-3.68.805.498-.307 1.188-.268 1.993zm8.931 8.395c-.153 1.15.537 1.802 1.38 2.492h1.457c0 .46.076.651-.268.996-.346 1.879-.23 3.642.65 5.252-.153.23-.075.767-.536.537-.345.613-.92.651-.92 1.38-.153 0-.307.153-.307.268v2.76c-.345.575-1.15-.345-1.648.115-.306.191-.652.421-.805.728-.307.192-.537.882-1.034.843-.23-.881.497-1.763.65-2.683.729-.613.883-2.147 1.572-2.837-.383-2.261-.46-4.6-.268-7.091-.345-.843-.843-1.917-.383-2.76h.46z"/><path d="M271.396 188.621c-.23 1.572-.383 4.025.46 5.52-1.418.843-1.724 2.875-1.648 4.408-.422-.191-1.15-.077-1.572.268l-.076.116c.038-1.112 1.38-1.572 1.303-2.76.958-.192.269-1.265.345-1.764-.498-1.686-.191-4.523-.268-6.248.345.307 1.112.575 1.456.46z" fill="#fff"/><path d="M221.718 191.38c-.268.5-.69.23-1.073 0 .191-.076.23-.344.076-.574l.997.575zm-3.948 5.597c-.269.46-.537-.076-.805-.076h-1.495c.498-.46 1.955-1.15 2.3.076zm42.97 3.22c-.383.23-.613.69-1.188.575-.345-.651-.805-1.034-1.189-1.571.959-.46 1.802.345 2.377.728v.268zm-40.402 1.189c.307.805-.767.383-1.073.766l-1.035 1.38c-.537-.766.153-1.495.46-2.146.651-.269.958.191 1.648 0zm10.503 3.68c.307-.383-.115-1.15-.383-1.649.46.038.575-.345.843-.537.498.844-.077 1.572-.46 2.186zm28.136-.614l-2.3 1.457c-.23-.767.383-.958.575-1.572.651-.92.92.346 1.725.115zm16.751.998c0-.154.077-.384-.076-.461.191.115.23-.192.46-.076l-.384.536zm-11.116 1.302v.345h-.192c-.192-.306-.767-.805-.537-1.456l.269-.269c.076.575 1.456.69.46 1.38z" fill="#f5c900"/><path d="M245 210.43h-31.207c-3 0-5.433-2.433-5.433-5.433l.03-89.204h82.225v89.204c0 3-2.385 5.433-5.385 5.433h-31.2l.079.01c-1.777 0-4.59 1.435-4.59 4.427h-.005c0-2.992-2.814-4.427-4.59-4.427l.075-.01z" fill="none" stroke="#000" stroke-width="1.5"/></svg>