<svg xmlns="http://www.w3.org/2000/svg" xmlns:xlink="http://www.w3.org/1999/xlink" width="1000" height="600" version="1"><path fill="#004a9c" fill-rule="evenodd" d="M0 0h1000v600H0z"/><path fill="#fff" fill-rule="evenodd" d="M0 172.5h1000v255H0z"/><path d="M356.5 187.5c12.742-9.436 28.384-22.79 60.553-27.214C486.76 150.7 638.325 161.312 672.5 183c-104.844-14-137.127-5.386-166 5.5-38.674-4.69-77.477-9.33-150-1z" fill="#ffce18" fill-rule="evenodd"/><path d="M528.5 193c118.039-38.157 294.949 49.014 306 67-22.398-11.736-45.348-22.644-73-26.5L789 245c-4.36.118-22.747-5.453-48.901-9.609-44.514-1.904-78.479-11.146-98.028-18.832C586.761 194.814 531.467 193.58 528.5 193zM423 207.25c22.353-25.376 51.547-13.719 66.75-3.25-2.323.194-18.204-6.351-26.75.25-7.684 5.935-10.9 5.841-14.667 2.525-7.553-6.651-18.169 2.128-25.333.475zm-8 22.25c-89.816-54.352-183.176-4.962-186 75.5 18.264-34.921 47.855-52.094 106-36 11.692-25.951 43.093-36.11 80-39.5zm-66 50c41.862-38.696 104.242-32.515 149.99-7.938C577.958 313.985 661.52 424.16 667.5 465.5c-18.528-25.472-63.641-80.332-85-83-6.267-.783 37.798 32.798 46.5 43.5-21.512-12-62.64-28.623-91.5-40.5-36.64-15.078-53.743-25.832-91-59.5-33.23-30.03-67.729-44.434-97.5-46.5z" fill="#ffce18" fill-rule="evenodd"/><path id="a" d="m200.5 231.989 10.107 31.1 32.701.002-26.455 19.222 10.104 31.102-26.457-19.22-26.457 19.22 10.104-31.102-26.455-19.222 32.701-.001 10.107-31.101z" transform="translate(14.285 19.357) scale(.92875)" fill="#004a9c" fill-rule="evenodd" stroke-width="3" stroke-linecap="square" stroke-linejoin="bevel" stroke-dashoffset="1"/><use xlink:href="#a" transform="translate(189.5 108)" width="1000" height="600" fill="#004a9c"/><use height="600" width="1000" transform="translate(126.333 72)" xlink:href="#a" fill="#004a9c"/><use xlink:href="#a" transform="translate(63.167 36)" width="1000" height="600" fill="#004a9c"/><path style="text-align:center;line-height:100%" d="m283.02 489.06-.253.228c-1.727.102-2.717.186-2.971.254-.491.135-.779.449-.863.94-.22 1.235-.33 3.859-.33 7.87v18.891c0 3.403-.364 6.052-1.092 7.947-.83 2.167-2.32 4.19-4.47 6.069-2.352 2.065-4.603 3.097-6.753 3.097-.71 0-1.405-.127-2.082-.38.085-1.27.127-2.836.127-4.698l.584-.355c1.371 1.236 2.581 1.853 3.63 1.853 1.457 0 2.269-.77 2.438-2.31.22-1.998.33-4.994.33-8.988v-21.125c0-4.012-.11-6.636-.33-7.872-.084-.49-.372-.804-.863-.939-.118-.034-1.303-.118-3.555-.254l-.254-.254v-1.726l.254-.229c2.336.102 5.13.152 8.38.152 3.69 0 6.296-.05 7.82-.152l.253.229v1.752m321.116 37.203-.228.254c-3.758-.102-6.026-.153-6.805-.153-3.114 0-6.009.051-8.683.153l-.229-.254v-1.6l.254-.28 2.209-.126c.93-.05 1.396-.381 1.396-.99 0-.356-.237-1.151-.71-2.387l-2.057-5.358c-2.336-.033-4.723-.05-7.16-.05-1.32 0-3.284.017-5.89.05l-1.118 3.098c-.846 2.353-1.27 3.826-1.27 4.418 0 .643.398 1.024 1.194 1.143.44.067 1.303.135 2.59.203l.253.254v1.625l-.253.254c-3.132-.102-5.146-.153-6.043-.153-.694 0-2.413.051-5.155.153l-.254-.229v-1.65l.28-.254c1.743-.102 2.81-.449 3.199-1.041.406-.593 1.904-4.122 4.494-10.588l6.627-16.58c.49-1.287 1.236-3.225 2.234-5.815h3.606l13.457 31.662c.525 1.202.999 1.88 1.422 2.032.558.203 1.362.304 2.412.304l.228.28v1.625m-16.097-13.66-5.434-13.305-5.205 13.305c1.388.05 3.19.076 5.408.076 2.15 0 3.893-.026 5.23-.076m-269.451 1.38c0 4.325-1.26 7.717-3.78 10.178-2.449 2.39-5.795 3.586-10.037 3.586-4.008 0-7.154-1.125-9.44-3.375-2.284-2.262-3.427-5.402-3.427-9.422 0-5.637 2.15-9.539 6.451-11.707 1.957-.984 4.365-1.476 7.225-1.476 4.09 0 7.271 1.072 9.545 3.216 2.308 2.18 3.463 5.18 3.463 9m-5.414.914c0-3.398-.686-6.093-2.057-8.085-1.36-2.004-3.357-3.006-5.994-3.006-3.48 0-5.79 1.564-6.926 4.693-.586 1.606-.879 3.404-.879 5.397 0 3.62.668 6.48 2.004 8.578 1.383 2.168 3.451 3.252 6.205 3.252 3.34 0 5.584-1.647 6.733-4.94.609-1.746.914-3.709.914-5.889m44.927 12.006-.175.176c-1.16-.07-2.965-.105-5.415-.105-2.507 0-4.312.035-5.414.105l-.175-.158v-1.195l.193-.176c1.195-.07 1.88-.13 2.057-.176.34-.094.539-.31.597-.65.153-.844.229-2.66.229-5.45v-4.236c-.598-.058-2.496-.088-5.696-.088-2.953 0-4.898.03-5.835.088v4.236c0 2.79.076 4.606.228 5.45.059.34.258.556.598.65.175.047.861.105 2.056.176l.176.176v1.177l-.158.176c-1.172-.07-2.977-.105-5.414-.105-2.52 0-4.324.035-5.414.105l-.176-.158v-1.195l.176-.176c1.195-.07 1.88-.13 2.056-.176.34-.094.54-.31.598-.65.152-.844.229-2.66.229-5.45v-9.298c0-2.79-.077-4.606-.229-5.45-.059-.34-.258-.556-.598-.65-.175-.047-.86-.105-2.056-.176l-.176-.176v-1.195l.176-.158c1.125.07 2.93.105 5.414.105 2.543 0 4.348-.035 5.414-.105l.158.158v1.213l-.176.158c-1.195.07-1.88.13-2.056.176-.34.094-.54.31-.598.65-.152.844-.228 2.66-.228 5.45v2.9c1.242.059 2.953.088 5.132.088 3.422 0 5.555-.03 6.399-.088v-2.9c0-2.79-.076-4.606-.229-5.45-.058-.34-.258-.556-.597-.65-.176-.047-.862-.105-2.057-.176l-.193-.176v-1.195l.175-.158c1.137.07 2.942.105 5.414.105 2.555 0 4.36-.035 5.415-.105l.175.158v1.213l-.158.158c-1.219.07-1.91.13-2.074.176-.34.094-.54.31-.598.65-.152.844-.228 2.66-.228 5.45v9.298c0 2.79.076 4.606.228 5.45.059.34.258.556.598.65.176.047.861.105 2.057.176l.175.176v1.177m38.953-23.379-.193.176c-1.195.07-1.88.13-2.057.176-.34.094-.539.31-.597.65-.153.844-.229 2.66-.229 5.45v7.136c0 5.262.076 8.69.229 10.284l-.229.158a111.757 111.757 0 0 0-3.006-.475c-3.14-3.527-8.502-9.96-16.084-19.3v11.495c0 2.79.077 4.606.229 5.45.058.34.258.556.598.65.175.047.86.105 2.056.176l.176.176v1.195l-.176.158a72.502 72.502 0 0 0-7.822 0l-.176-.158v-1.195l.176-.176c1.195-.07 1.88-.13 2.057-.176.34-.094.539-.31.597-.65.153-.844.229-2.66.229-5.45v-9.298c0-2.79-.076-4.606-.229-5.45-.058-.34-.258-.556-.597-.65-.176-.047-.862-.105-2.057-.176l-.176-.176v-1.195l.176-.158c1.113.07 2.174.105 3.182.105 1.582 0 2.894-.035 3.937-.105 4.219 5.625 9.176 11.654 14.871 18.088v-10.283c0-2.79-.076-4.606-.228-5.45-.059-.34-.258-.556-.598-.65-.176-.047-.861-.105-2.057-.176l-.175-.176v-1.195l.175-.158c1.313.07 2.56.105 3.745.105 1.511 0 2.87-.035 4.078-.105l.175.158v1.195m30.27 15.329c0 1.933-.55 3.638-1.652 5.115-.961 1.3-2.221 2.267-3.78 2.9-1.43.586-3.134.88-5.115.88-2.46 0-4.875-.563-7.242-1.688l-.211-.387c.328-1.348.492-3.264.492-5.748l.176-.176h1.125l.158.176v.404c0 .656.07 1.524.211 2.602.422.75 1.178 1.394 2.268 1.933a7.91 7.91 0 0 0 3.55.844c2.32 0 3.926-.809 4.817-2.426.457-.832.685-1.693.685-2.584 0-1.5-.627-2.572-1.88-3.217-.622-.316-1.624-.58-3.006-.79-3.13-.481-5.186-1.085-6.17-1.811-1.489-1.102-2.233-2.807-2.233-5.115 0-2.403.809-4.319 2.426-5.748 1.711-1.5 4.09-2.25 7.137-2.25 2.742 0 4.957.44 6.644 1.318l.123.422c-.28 1.394-.45 3.07-.51 5.027l-.193.176h-1.107l-.176-.176c-.035-1.406-.094-2.32-.176-2.742-.363-.55-.996-1.02-1.898-1.406a7.774 7.774 0 0 0-3.006-.598c-1.57 0-2.813.416-3.727 1.248-.855.785-1.283 1.799-1.283 3.041 0 1.348.487 2.338 1.46 2.97.632.411 2.126.804 4.482 1.179a95.7 95.7 0 0 1 2.056.351c.692.117 1.33.287 1.916.51 1.184.445 2.074 1.125 2.672 2.039.645.996.967 2.238.967 3.727m34.172-16.577a18.22 18.22 0 0 0-.229 2.69l-.035 2.935-.176.176h-1.107l-.193-.158c-.059-1.5-.123-2.379-.194-2.637-.14-.469-.515-.744-1.125-.826-.234-.035-1.336-.053-3.304-.053h-2.356c-.023.41-.035 2.04-.035 4.887v9.984c0 2.79.076 4.606.228 5.45.059.34.258.556.598.65.176.047.861.105 2.057.176l.176.176v1.177l-.176.176c-1.16-.07-2.965-.105-5.414-.105-2.508 0-4.313.035-5.414.105l-.159-.158v-1.195l.176-.176c1.195-.07 1.881-.13 2.057-.176.34-.094.539-.31.597-.65.153-.844.229-2.66.229-5.45v-9.984c0-2.894-.018-4.523-.053-4.887h-2.513c-2.098 0-3.323.065-3.674.194-.188.07-.317.158-.387.263-.105.188-.193.563-.264 1.125a20.11 20.11 0 0 0-.158 1.916l-.176.176h-1.107l-.193-.176-.036-3.005a20.545 20.545 0 0 0-.21-2.62l.158-.175c.691.117 3.21.175 7.558.175h7.12c4.007 0 6.527-.058 7.558-.175l.176.175m38.056 11.707c0 4.325-1.26 7.717-3.779 10.178-2.45 2.39-5.795 3.586-10.037 3.586-4.008 0-7.154-1.125-9.44-3.375-2.285-2.262-3.427-5.402-3.427-9.422 0-5.637 2.15-9.539 6.451-11.707 1.957-.984 4.365-1.476 7.225-1.476 4.09 0 7.271 1.072 9.545 3.216 2.308 2.18 3.462 5.18 3.462 9m-5.414.914c0-3.398-.685-6.093-2.056-8.085-1.36-2.004-3.358-3.006-5.994-3.006-3.48 0-5.79 1.564-6.926 4.693-.586 1.606-.88 3.404-.88 5.397 0 3.62.669 6.48 2.005 8.578 1.383 2.168 3.451 3.252 6.205 3.252 3.34 0 5.584-1.647 6.732-4.94.61-1.746.914-3.709.914-5.889m44.896-11.373-.193.176c-1.196.07-1.881.13-2.057.176-.34.094-.54.31-.598.65-.152.844-.228 2.66-.228 5.45v7.136c0 5.262.076 8.69.228 10.284l-.228.158a111.757 111.757 0 0 0-3.006-.475c-3.14-3.527-8.502-9.96-16.084-19.3v11.495c0 2.79.076 4.606.228 5.45.059.34.258.556.598.65.176.047.861.105 2.057.176l.176.176v1.195l-.176.158a72.503 72.503 0 0 0-7.823 0l-.175-.158v-1.195l.175-.176c1.196-.07 1.881-.13 2.057-.176.34-.094.54-.31.598-.65.152-.844.228-2.66.228-5.45v-9.298c0-2.79-.076-4.606-.228-5.45-.059-.34-.258-.556-.598-.65-.176-.047-.861-.105-2.057-.176l-.175-.176v-1.195l.175-.158c1.114.07 2.174.105 3.182.105 1.582 0 2.895-.035 3.938-.105 4.218 5.625 9.175 11.654 14.87 18.088v-10.283c0-2.79-.076-4.606-.228-5.45-.058-.34-.258-.556-.597-.65-.176-.047-.862-.105-2.057-.176l-.176-.176v-1.195l.176-.158c1.312.07 2.56.105 3.744.105 1.512 0 2.871-.035 4.078-.105l.176.158v1.195m96.451-1.248a18.22 18.22 0 0 0-.228 2.69l-.036 2.935-.175.176h-1.108l-.193-.158c-.059-1.5-.123-2.379-.193-2.637-.141-.469-.516-.744-1.125-.826-.235-.035-1.336-.053-3.305-.053h-2.356c-.023.41-.035 2.04-.035 4.887v9.984c0 2.79.076 4.606.229 5.45.058.34.258.556.597.65.176.047.862.105 2.057.176l.176.176v1.177l-.176.176c-1.16-.07-2.965-.105-5.414-.105-2.508 0-4.313.035-5.414.105l-.158-.158v-1.195l.175-.176c1.196-.07 1.881-.13 2.057-.176.34-.094.54-.31.598-.65.152-.844.228-2.66.228-5.45v-9.984c0-2.894-.017-4.523-.052-4.887h-2.514c-2.098 0-3.322.065-3.674.194-.187.07-.316.158-.387.263-.105.188-.193.563-.263 1.125a20.11 20.11 0 0 0-.159 1.916l-.175.176h-1.108l-.193-.176-.035-3.005a20.545 20.545 0 0 0-.211-2.62l.158-.175c.691.117 3.21.175 7.559.175h7.119c4.008 0 6.527-.058 7.558-.175l.176.175m38.057 11.707c0 4.325-1.26 7.717-3.78 10.178-2.449 2.39-5.794 3.586-10.037 3.586-4.007 0-7.154-1.125-9.44-3.375-2.284-2.262-3.427-5.402-3.427-9.422 0-5.637 2.15-9.539 6.451-11.707 1.957-.984 4.366-1.476 7.225-1.476 4.09 0 7.271 1.072 9.545 3.216 2.308 2.18 3.463 5.18 3.463 9m-5.414.914c0-3.398-.686-6.093-2.057-8.085-1.36-2.004-3.357-3.006-5.994-3.006-3.48 0-5.79 1.564-6.926 4.693-.586 1.606-.879 3.404-.879 5.397 0 3.62.668 6.48 2.004 8.578 1.383 2.168 3.451 3.252 6.205 3.252 3.34 0 5.584-1.647 6.733-4.94.609-1.746.914-3.709.914-5.889m36.545 6.206c-.258 1.71-.387 3.644-.387 5.8l-.176.176-12.78-.105c-2.132 0-3.638.035-4.517.105l-.176-.176v-.492l.088-.21c.868-.552 1.336-.897 1.407-1.038.105-.21.17-.99.193-2.338l.053-3.937v-8.912c0-2.79-.076-4.606-.229-5.45-.058-.34-.258-.556-.597-.65-.176-.047-.862-.105-2.057-.176l-.176-.176v-1.195l.176-.158c1.207.07 2.976.105 5.308.105 2.415 0 4.249-.035 5.502-.105l.176.158v1.213l-.176.158c-1.195.07-1.88.13-2.056.176-.34.094-.54.31-.598.65-.152.844-.228 2.66-.228 5.45v10.511c0 1.535.029 3.024.087 4.465h2.391c3.422 0 5.52-.135 6.293-.404a.574.574 0 0 0 .281-.194c.117-.164.229-.515.334-1.054l.422-2.18.176-.193h1.072l.194.176m30.814 0c-.258 1.71-.387 3.644-.387 5.8l-.175.176-12.78-.105c-2.133 0-3.638.035-4.517.105l-.176-.176v-.492l.088-.21c.867-.552 1.336-.897 1.406-1.038.106-.21.17-.99.193-2.338l.053-3.937v-8.912c0-2.79-.076-4.606-.228-5.45-.059-.34-.258-.556-.598-.65-.176-.047-.861-.105-2.057-.176l-.175-.176v-1.195l.175-.158c1.207.07 2.977.105 5.309.105 2.414 0 4.248-.035 5.502-.105l.176.158v1.213l-.176.158c-1.195.07-1.881.13-2.057.176-.34.094-.539.31-.597.65-.153.844-.229 2.66-.229 5.45v10.511c0 1.535.03 3.024.088 4.465h2.39c3.422 0 5.52-.135 6.294-.404a.574.574 0 0 0 .28-.194c.118-.164.23-.515.335-1.054l.422-2.18.175-.193h1.073l.193.176" font-size="52" font-weight="700" text-anchor="middle" fill="#ffce18" font-family="Palatino Linotype"/></svg>