<svg xmlns="http://www.w3.org/2000/svg" width="800" height="480" version="1"><g fill-rule="evenodd"><path fill="#227adc" d="M0 0h800v295H0z"/><path fill="#01a9cd" d="M0 330h800v150H0z"/><path fill="#fff" d="M0 295h800v35H0z"/><path d="M368.263 128.25c0 2.147 11.906-.488 19.723 1.1 3.261.662 4.665 5.513 7.867 7.968 6.59 5.052 30.466 21.315 23.787 29.262-9.654 11.487-32.272 19.91-57.848 27.053-13.921 3.888-29.247 5.286-42.62 11.448-25.038 11.54-51.8 50.438-50.064 56.669 1.14 4.093 12.017-5.557 26.207-13.342 8.862-4.862 15.588-11.457 28.181-15.89 17.495-6.158 36.277-7.106 55.282-12.348 33.824-9.33 64.785-21.698 74.18-25.972 5.276 3.265 15.683 11.119 25.634 16.855 10.015 5.773 11.071 4.775 15.749 8.897 3.33 2.935 7.327 7.366 9.888 10.13 9.753 10.527 16.513 16.762 25.536 13.482 4.786-1.739.565-11.684-4.728-19.544-3.017-4.48-6.89-7.777-8.369-9.76-3.89-5.22-15.422-12.083-19.607-23.331-3.841-10.324-8.82-13.287-9.31-19.166-1.034-12.397 33.89-36.108 51.846-49.435 23.722-17.607 38.815-37.572 44.812-41.025 13.873-7.989 25.917-13.513 41.08-18.4 14.863-4.79 17.703-11.275 17.703-12.651 0-1.457-31.445 3.32-51.791 4.867-19.941 1.516-25.011 8.662-33.169 15.202-18.646 14.949-38.94 31.099-62.479 48.499-19.99 14.776-39.843 19.648-46.356 19.648-12.223 0-22.491-11.54-34.908-16.167-11.176-4.165-26.891-1.49-36.838-1.866-9.73-.367-9.388 4.768-9.388 7.817z" fill="#4e4418"/><path d="M389.843 123.585c-.108 1.468-.667 3.713-4.729 3.212.013-1.82 5.148 1.992 11.365 8.613 9.13 9.724 23.805 16.5 28.11 30.176 19.33 21.56 43.574 37.165 68.99 50.121 9.695 4.942 17.041 25.84 31.444 27.375-3.413-3.207-12.362-8.749-22.265-21.433.839-.293-.279-.085.994-.487 10.873 13.385 20.792 21.175 23.572 21.117 1.787-.038-20.973-19.098-22.033-21.639.603-.233.514-.266 1.431-.082.71.902 17.457 18.608 21.871 20.514 2.763 1.192-17.835-18.08-20.124-20.954.387.093-.72.364.741.075 4.84 3.783 22.946 24.117 20.778 19.01-.951-2.24-17-16.92-18.978-19.998.362-.16.494-.271 1.295-.666 1.34 1.756 14.78 16.342 17.585 18.663-.254-5.026-14.03-19.036-14.81-19.841-8.535-8.82-18.585-19.254-22.357-30.916-11.16-15.019-22.737-33.487-41.01-39.914-4.263-.707-15.709 1.835-9.87-3.504 2.346-1.7 16.027.517 2.406-3.105-15.655-7.032-30.457-20.808-49.059-17.537-6.608.641-3.497 1.186-5.347 1.2z" fill="#e8d2d2"/><path d="M481.73 200.532c9.237 5.748 31.792 14.99 31.013 14.184-8.535-8.82-16.248-16.609-20.02-28.27-6.877-9.255-15.262-21.578-24.722-29.933-5.893-5.204-13.306-8.554-17.657-9.628-1.097-.27-6.015.87-8.974-.643-3.21-1.642-8.194-2.839-10.002 2.168-.906 2.51 5.863 14.165 16.48 25.376 9.595 10.132 22.428 19.618 33.882 26.746zm-87.27-67.572c3.288 2.113-.64-4.242 2.77-2.237 4.636 2.725 11.168 6.954 25.764 13.223 9.999 4.294 14.72-6.788 10.693-9.168-14.43-8.531-19.895-15.664-38.497-12.393-6.608.641-6.737 6.718-.73 10.576z" fill="#fff"/><path d="M369.017 127.712c0 .382 5.18 1.815 5.17-.81-.009-2.439 2.72-2.733 4.589-2.765 3.64-.063 9.687-.948 9.687 1.262-3.02 0-11.871-1.078-11.871 1.375 0 1.46 9.92 1.007 11.286 1.284 3.261.663 6.228-3.698 4.606-5.629-1.525-1.814-13.238-1.065-17.57-1.065-4.439 0-5.897 3.3-5.897 6.348z" fill="#f9b127" stroke="#4e4418" stroke-width=".625"/><path d="M399.555 122.48c-.425 1.143-1.438 1.371-1.804 2.83-.39 1.559-.863 1.8 2.319 1.8 1.316 0 2.242-1.013 2.834-1.8 1.171-1.56-.016-2.195-1.288-2.83-.906-.452-.963-.22-2.061 0z" stroke="#000" stroke-width="1.876"/><path d="M278.122 250.688c1.22-2.344 5.164-6.657 7.887-8.813 2.723-2.156 4.226-2.156 3.005.188-1.22 2.343-5.164 7.03-7.887 9.187-2.723 2.156-4.226 1.781-3.005-.563zm7.318-12.095a4.984 1.444-48.712 1 1-6.562 7.502 4.984 1.444-48.712 1 1 6.562-7.502zm7.137 3.937a4.984 1.444-48.712 1 1-6.562 7.502 4.984 1.444-48.712 1 1 6.562-7.502zm14.613-5.072a3.89 1.165-20.96 1 1-7.244 2.834 3.89 1.165-20.96 1 1 7.244-2.834zm-16.674-4.208c-5.352 6 4.176 4.73 9.202 2.625 5.822-2.438 6.082-3.895 12.864-6.375 6.667-2.438 12.718-4.442 14.272-4.969 1.524-.516 1.16-2.909 2.522-3.11 1.461-.216 1.144 2.108 2.063 2.087 1.616-.037.776-3.337 2.126-3.3.895.024 1.125 3.524 3.143 3.272 2.101-.263-.257-3.419 1.175-3.536 1.325-.108 1.19 3.152 2.573 2.925 1.384-.226-.58-3.319.88-3.545 1.125-.174.617 3.401 3.135 2.666.677-.197-.105-2.827 1.05-2.958.63-.072 2.86 2.425 4.092 2.385 1.305-.043.242-4.656.716-4.76.872-.194 2.823 3.623 4.007 3.047 1.16-.565.99-4.028 1.8-3.83 1.433.35 1.484 3.426 3.078 2.926.701-.22-.076-3.29.663-3.722.844-.492 1.807 1.373 3.7 1.049.659-.113.243-2.91 1.101-3.473.423-.277 1.23 2.173 2.087 2.97.522.485.916-3.227 1.4-3.353.364-.094.842 3.43 1.111 3.446 1.026.059.78-3.397 1.414-3.548 3.074-.729 1.491 2.474 2.297 2.377 1.989-.24 1.033-2.716 1.789-2.876.894-.19 1.05 2.638 3.061 2.32.331-.052.316-2.953.984-3.225.699-.283 2.085 2.066 2.527 1.318.628-1.062.053-3.275 1.001-3.573.886-.277 2.065 3.534 3.557 3.284 1.491-.25.596-2.629 1.875-3.214 2.29-1.049 8.99.992 9.026-1.58.022-1.496-17.184-4.78-26.054-4.738-2.938.014-2.256 2.186-3.32 2.144-2.037-.079-3.043-3.588-3.476-3.548-2.458.224.83 4.858-.466 4.919-.986.046-3.174-4.097-3.773-3.57-.924.81-.157 4.017-1.278 4.317-.584.157-2.568-3.973-3.009-3.674-1.565 1.064.203 5.026-1.34 5.322-1.78.341-2.82-4.244-4.14-3.712-1.912.772.23 3.1-1.348 3.381-1.714.304-1.382-4.197-2.595-3.663-2.064.909.829 4.659-.646 4.91-2.584.438-1.48-4.758-2.59-4.312-3.23 1.299-.448 2.824-.711 5.006-2.758.356-4.723-4.285-5.384-3.556-.98 1.08-.094 2.586.164 5.346-2.284.688-4.962-4.298-5.836-3.626-1.575 1.212.268 3.967.935 5.654-2.398 1.264-3.214-4.379-4.567-3.635-1.353.744-.766 4.79-.541 6.3-2.267-2.574-3.009-4.788-5.45-4.12-2.384.652 1.592 7.014 1.98 8.894-1.683.88-5.641-6.108-7.13-5.266-1.49.842-1.157.536 2.593 9.164-3.878-.939-5.209-6.484-6.778-5.7-1.57.783.124 6.292.32 7.61-.96-.051-2.149.927-2.41-.503-.641-3.52-2.093-5.15-2.438-5.063-2.277.58-1.682 6.559-1.618 9.14-1.664 1.518-2.65-5.45-2.89-5.291-1.216.802-.712 4.48-.467 7.175-3.896.454-4.232-5.742-5.156-4.631-1.812 2.177.077 5.88-1.091 6.468-.701.352-1.91-1.566-3.28-2.016-.911-.3-2.103.679-2.5 1.124z" fill="#fff"/><path d="M401.328 191.936c1.075-.9 1.698 4.525 3.679 3.083 1.98-1.442-2.618-4.313-.122-5.717 2.638-1.483.771 4.57 5.3 4.57.354-.001-2.056-5.63-1.186-5.948 2.36-.86 4.62 6.755 4.857 5.95.575-1.959-.725-8.11.05-8.125 1.111-.022 3.015 8.347 3.371 7.307.674-1.968-2.279-8.198-.269-9.027.924-.381 2.708 7.211 5.095 8.473 1.581.836-3.884-8.265-1.627-9.724.54-.349 3.73 8.433 4.125 8.413.859-.043-3.596-8.472-2.178-9.331 1.128-.684 4.705 7.46 5.959 5.871.567-.72-3.56-4.242-3.427-6.122.054-.748 3.781 1.924 3.56.98-.208-.892-2.944-5.02-2.08-5.69 1.54-1.195 5.843 5.042 5.646 4.252-.646-2.587-6.02-8.692-5.38-8.418 7.666 3.288 18.238 16.633 18.94 17.657.059.087-3.583 1.989-4.928 1.673-1.504-.353-.794-2.915-2.092-2.534-1.597.469-.733 3.613-2.177 3.482-1.948-.176-1.29-3.885-3.305-3.305-1.137.328-1.377 4.226-2.478 4.957-1.626 1.08-3.195 1.669-5.345 2.138-2.477.541-1.123-2.43-3.697-1.55-.7.24 1.502 2.267.664 2.907-2.183 1.669-2.921-1.162-4.12-.8-1.295.39-.716 3.397-3.095 3.774-2.555.404-3.55-2.375-4.776-1.535-1.809 1.24-1.986 3.986-3.333 4.45-1.458.501-.77-4.078-2.054-3.353-.879.497-1.339 3.046-2.115 3.65-3.037 2.368-5.807 3.217-5.994 2.918-1.07-1.708 2.225-1.427 4.075-5.209 1.35-2.759-.618-9.217.457-10.117zm78.589-28.799c6.502-7.152 7.317-7.35 9.785-10.826-4.407-4.005-9.278-10.936-16.132-11.707-2.44-.274 12.196 9.748 10.316 10.539-1.347.566-11.921-10.186-13.93-8.848-1.574 1.048 11.534 10.51 10.457 11.12-.666.375-12.5-11.814-13.442-10.376-.58.885 10.939 12.258 10.293 12.458-.907.282-9.604-10.191-11.517-8.865-1.561 1.082 9.5 9.656 8.872 9.873-1.914.662-10.585-9.833-11.363-8.771-3.234 4.41 10.6 9.616 16.661 15.403z" fill="#e8d2d2"/><path d="M505.321 126.997c-.653.288-2.555-3.965-3.047-2.617-.404 1.108 1.997 3.757 1.509 4.055-.576.352-3.38-3.056-3.936-2.747-1.108.616 2.794 3.33 1.804 4.041-.99.712-2.22-3.653-3.5-2.032-1.244 1.574 2.32 4.123 1.333 5.23-.693.778-2.262-2.96-3.688-1.365-1.38 1.543 2.934 4.007 2.253 4.726-1.89 1.997-2.595-3.549-4.264-1.424-.897 1.141 1.637 2.662.65 3.518-1.266 1.098-3.875-4.526-5.885-2.92-1.921 1.536 3.774 4.779 2.987 5.508-.693.643-5.184-3.442-5.724-2.864-1.574 1.685 2.973 6.26 2.03 5.991-2.408-.685-5.666-6.079-7.186-5.056-1.478.995 5.94 8.048 6.86 9.213 2.726 3.459 5.366 2.385 6.446 1.442.277-.241-3.23-3.915-1.94-4.83 1.675-1.185 1.432 4.508 3.694 2.932 2.263-1.576-3.376-3.43-.384-5.523.463-.324 2.551 3.75 4.259 2.781 1.688-.957-2.493-3.442-1.08-4.311.655-.403 3.247 3.552 4.256 2.684.847-.73-1.65-4.413-1.295-4.86.313-.392 3.515 2.422 3.692 2.225 1.398-1.553-2.088-4.639-.446-5.716 1.055-.692 2.244 4.747 3.859 3.744 1.615-1.004-1.037-3 .272-4.006 1.31-1.006 2.502 2.283 4.56.886 3.097-2.101 4.862-3.403 4.912-3.438.51-.353-3.456-3.861-7.396-5.644-1.26-.57-4.44-2.96-5.365-2.795-.992.176.298 2.935-.24 3.172zm19.382.216s2.294-2.121 7.13-6.367c.489-.43 2.39-.167 2.825-.979.351-.655-.776-2.402-.311-2.74.852-.619 3.124.81 3.968.299 2.157-1.304-1.607-1.48-.392-2.449.652-.52 1.894 1.174 3.443.68.876-.278-2.463-2.021-1.61-2.765.585-.51 3.51 1.291 4.77 1.005 1.153-.261-1.477-2.827-.985-3.77.859-1.646 5.922-.895 8.438-2.91 1.342-1.073 3.436-5.116 7.532-9.732 1.493-1.682 4.327-1.753 6.193-3.47 2.727-2.511 4.56-6.624 6.81-8.604 1.94-1.709 4.988-2.096 6.838-3.44 6.44-4.681 10.893-8.453 13.448-10.28 6.32-4.515 8.48-7.71 10.94-11.297-2.609-4.149-4.702-5.49-8.216-3.688-3.367 1.725 1.152 6.566-.591 7.611-.403.242-2.096-3.447-2.943-2.793-.82.633-.789 5.617-1.547 5.29-1.084-.467-1.673-4.485-2.085-3.877-.822 1.211-.183 6.48-1.175 6.912-1.048.456-3.837-2.514-4.114-1.904-.676 1.483 1.866 4.94.589 4.884-1.573-.07-4.417-4.685-5.037-3.96-1.039 1.213 2.163 5.579.928 5.546-1.741-.046-5.51-5.603-6.664-5.01-1.775.914.724 5.895-.928 6.071-2.717.29-4.402-3.787-7.799-1.952-3.507 1.894 4.302 6.028 3.498 6.684-1.532 1.247-5.809-4.183-7.717-3.199-.288.15 1.185 4.28.548 4.438-.675.168-2.162-3.527-2.673-2.677-.73 1.213-.461 4.64-1.255 4.967-1.287.53-2.676-3.458-3.377-2.574-.576.727 1.027 3.043.537 3.694-.546.726-1.492-1.42-1.878-.528-.143.33-.067 3.147-.36 3.407-.89.789-3.04-.172-4.1.305-1.026.46-.504 3.003-1.24 3.88-.768.917-2.79.18-3.636 1.143-.84.954-.441 2.68-1.236 3.67-.692.862-2.585.985-3.232 1.867-.357.487-.538 3.736-1.418 4.709-1.028 1.135-2.771.054-3.214 1.369-.524 1.557.563 4.433-1.13 6.569-4.301 5.426-7.572 15.965-7.572 15.965zm92.54-71.468a4.851 1.071 3.318 1 1-9.687-.561 4.851 1.071 3.318 1 1 9.687.561zm-2.418 3.445a4.292 1.071 0 1 1-8.583 0 4.292 1.071 0 1 1 8.583 0zm-1.33 3.234a3.312.978-6.915 1 1-6.576.798 3.312.978-6.915 1 1 6.576-.798z" fill="#fff"/></g></svg>