<svg xmlns="http://www.w3.org/2000/svg" width="900" height="600" version="1"><path fill="#fff" fill-rule="evenodd" d="M0 0h900v600H0z"/><path fill="#bf0a30" fill-rule="evenodd" d="M0 300h900v300H0z"/><path d="M0 600h285s97.17-301.325 95-299.908L285 0H0v600z" fill="#002868"/><path d="M261 300a112.5 90 0 1 1-225 0 112.5 90 0 1 1 225 0z" fill="#f3e529"/><path d="M124.13 252.22c3.915 3.354 6.992 8.107 6.992 10.344 0 2.516 3.076 4.473 6.992 5.032 3.915.56 9.789 2.237 13.425 3.914 4.755 2.517 6.992 2.517 9.51 0 1.957-1.957 6.992-3.355 11.467-3.355 7.551 0 8.11.84 6.992 8.108-.839 6.151.56 9.227 6.713 14.259 4.195 3.355 7.831 8.108 7.831 10.345 0 3.075-1.678 2.236-5.314-2.237-4.755-5.871-5.035-5.871-4.755-1.118.28 3.075 2.238 8.946 4.475 13.14 2.797 6.15 3.077 8.387 0 12.022-3.636 4.473-18.18 6.15-15.662 1.678.839-1.398-3.636-2.237-10.35-1.678-7.271.28-14.823-1.118-20.137-4.194-4.475-2.796-13.145-5.87-19.019-6.71-5.873-1.118-11.467-3.914-12.306-6.15-.84-1.958-3.077-3.915-5.314-3.915-2.238 0-11.188-5.591-19.858-12.301-8.67-6.99-17.062-11.743-18.18-10.904-3.077 1.677-3.636 1.398 14.823 14.818 8.111 6.15 16.222 11.183 18.18 11.183 1.958 0 5.314 2.237 7.272 4.753 4.755 6.43 26.291 15.936 44.191 19.57 3.916.84 16.782 6.431 28.809 12.303 12.026 5.87 22.934 10.903 23.773 10.903 1.12 0 2.238-9.785 2.518-21.528.559-17.334-.28-23.205-4.755-30.474-3.077-4.753-7.552-9.506-9.51-10.345-2.517-1.118-3.356-3.914-2.517-7.269 2.517-9.785-1.398-19.57-8.67-21.528-3.636-.839-11.188.56-16.782 2.796l-10.348 4.473-15.104-11.183c-15.942-11.742-27.13-15.377-15.383-4.753z" fill="#002868"/><path style="text-align:start;line-height:125%;-inkscape-font-specification:Arial Black Heavy" d="M71.497 242.226l5.594-3.58 8.834 9.364-3.878-12.536 5.581-3.571 9.771 8.765-4.802-11.945 5.568-3.564 8.003 21.76-5.776 3.697-11.027-9.868 4.354 14.14-5.777 3.696-16.445-16.358zm63.288-6.583l-7.918.91-.663 3.838-7.104.816 5.87-23.465 7.58-.871 11.04 21.523-7.274.836-1.531-3.587zm-2.017-4.696l-3.414-7.801-1.542 8.37 4.956-.57zm27.914-14.015l6.89 1.218-1.49 8.426 8.715-7.149 9.155 1.619-9.608 6.975 6.032 15.386-8.487-1.5-3.078-10.002-4.218 3.097-.962 5.445-6.89-1.218 3.941-22.297zm43.084 12.552l15.293 10.848-2.798 3.943-9.573-6.791-2.083 2.935 8.881 6.3-2.672 3.767-8.88-6.3-2.583 3.64 9.85 6.988-2.966 4.182-15.57-11.045 13.1-18.467zM70.113 320.057l4.574 5.315-17.163 14.769-4.574-5.315 17.163-14.769zm1.695 27.146l5.563 3.68c-.537.95-.8 1.784-.787 2.503.022 1.165.568 2.152 1.636 2.958.796.603 1.552.88 2.265.832.714-.048 1.257-.319 1.63-.812.354-.468.465-1.042.333-1.722-.131-.68-.82-1.75-2.067-3.208-2.033-2.4-3.226-4.45-3.58-6.15-.363-1.707-.01-3.266 1.057-4.68.701-.928 1.633-1.601 2.795-2.02 1.162-.42 2.462-.457 3.899-.113 1.437.343 3.096 1.226 4.978 2.647 2.308 1.745 3.744 3.504 4.307 5.278.563 1.774.252 3.684-.933 5.731l-5.495-3.667c.475-.92.628-1.733.46-2.44-.168-.708-.647-1.36-1.436-1.956-.649-.49-1.241-.722-1.778-.695-.537.027-.954.237-1.252.631-.217.288-.277.65-.18 1.084.083.437.54 1.13 1.37 2.08 2.043 2.37 3.39 4.223 4.039 5.558.649 1.336.912 2.584.791 3.744-.122 1.16-.555 2.233-1.3 3.219a7.179 7.179 0 0 1-3.381 2.477c-1.38.494-2.836.559-4.367.195-1.532-.364-3.173-1.207-4.923-2.529-3.073-2.321-4.754-4.52-5.043-6.597-.29-2.077.177-4.086 1.4-6.028zm36.994 6.347l6.701 2.011-4.904 16.347 10.459 3.138-1.602 5.34-17.161-5.148 6.507-21.688zm43.701 26.318l-7.97-.03-1.11 3.733-7.15-.027 8.595-22.61 7.63.029 8.424 22.674-7.32-.027-1.099-3.742zm-1.448-4.902l-2.472-8.149-2.517 8.13 4.989.02zm22.787-16.784l6.243-1.929 11.842 9.452-3.696-11.968 6.3-1.946 6.683 21.634-6.3 1.946-11.772-9.377 3.67 11.88-6.287 1.941-6.683-21.633zm36.125-18.014l8.094-6.521c1.596-1.286 3.06-2.108 4.39-2.466a8.092 8.092 0 0 1 3.938-.098c1.294.293 2.518.86 3.672 1.703a16.844 16.844 0 0 1 3.185 3.067c1.518 1.884 2.48 3.518 2.888 4.902.408 1.384.513 2.734.317 4.05-.197 1.314-.638 2.44-1.325 3.377-.936 1.283-1.89 2.316-2.86 3.097l-8.095 6.521-14.204-17.632zm8.665-.396l7.761 9.634 1.335-1.076c1.139-.917 1.847-1.696 2.125-2.336.277-.64.299-1.385.065-2.234-.235-.849-.92-1.979-2.058-3.39-1.505-1.869-2.84-2.902-4.005-3.1-1.164-.2-2.453.27-3.864 1.407l-1.359 1.095z" font-size="31.631" font-weight="900" fill="#002868" font-family="Arial Black"/><path d="M148.5 124.75l5.768 17.345 18.279.126-14.714 10.846 5.529 17.422-14.862-10.642-14.862 10.642 5.529-17.422-14.714-10.846 18.279-.126 5.768-17.345zm0 300l5.768 17.345 18.279.126-14.714 10.846 5.529 17.422-14.862-10.642-14.862 10.642 5.529-17.422-14.714-10.846 18.279-.126 5.768-17.345zm173.75-150l5.768 17.345 18.279.126-14.714 10.846 5.529 17.422-14.862-10.642-14.862 10.642 5.529-17.422-14.714-10.846 18.279-.126 5.768-17.345z" fill="#f3e529" fill-rule="evenodd"/></svg>