<svg xmlns="http://www.w3.org/2000/svg" xmlns:xlink="http://www.w3.org/1999/xlink" width="2000" height="1200" xmlns:cgf="https://coding.garden/flags"><metadata id="cgf-metadata">

<cgf:flag>
  <cgf:name></cgf:name>
  <cgf:route>gb/cam</cgf:route>
  <cgf:aspect-ratio>1.6666666666666667</cgf:aspect-ratio>
</cgf:flag>

</metadata><path fill="red" d="M0 0h2000v1200H0z"></path><use xlink:href="#a" transform="rotate(-45 623.107 1129.114)"></use><use xlink:href="#a" x="-402.5"></use><path id="a" d="m1000.07 30.5-1.092 1.29c-18.301 19.651-30.597 42.373-25.296 69.025 2.923 14.703 9.998 28.351 15.001 42.515 2.904 8.265 3.786 16.828 3.6 25.503h-1.358c-.4-14.165-3.922-27.346-10.485-39.842-8.145-17.064-24.126-25.95-37.614-25.976-15.286-.029-27.376 11.315-21.159 34.969 4.311 16.406 19.014 26.049 36.413 27.705-1.255-4.325-8.168-19.619-2.589-22.61 8.916.338 19.98 15.702 22.644 23.018.318.873.309 1.836.537 2.736h42.678c.26-.9.2-1.863.51-2.736 2.67-7.316 13.76-22.68 22.67-23.018 5.58 2.991-1.33 18.285-2.58 22.61 17.4-1.656 32.06-11.299 36.38-27.705 11.7-44.525-41.4-45.399-58.78-8.993-6.56 12.496-10.08 25.677-10.48 39.842h-1.42c-.4-8.711 1.2-17.149 3.7-25.503 4.75-14.253 11.99-27.803 14.99-42.515 5.61-27.511-7.51-48.281-25.2-68.963z" fill="gold"></path><use xlink:href="#a" transform="translate(402.5)"></use><use xlink:href="#a" transform="rotate(45 1376.893 1129.114)"></use><use xlink:href="#a" transform="rotate(90 1186.5 786.5)"></use><use xlink:href="#a" transform="rotate(135 1219.166 756.114)"></use><use xlink:href="#a" transform="rotate(180 1201.25 600)"></use><use xlink:href="#a" transform="rotate(180 1000 600)"></use><use xlink:href="#a" transform="rotate(180 798.75 600)"></use><use xlink:href="#a" transform="rotate(-135 780.834 756.114)"></use><use xlink:href="#a" transform="rotate(-90 813.5 786.5)"></use><path fill="gold" d="M195 168h1610v864H195z"></path><g fill="#5881bb"><clipPath id="b"><path d="M195 168h1610v864H195z"></path></clipPath><path id="c" d="M376 114q-43.2 54 0 108t0 108 0 108 0 108 0 108 0 108 0 108 0 108 0 108h108q-43.2-54 0-108t0-108 0-108 0-108 0-108 0-108 0-108 0-108 0-108z" clip-path="url(#b)"></path><path d="M665 168h100v864H665z"></path><use xlink:href="#c" x="570"></use><path d="M1235 168h100v864h-100z"></path><use xlink:href="#c" x="1140"></use></g></svg>