<svg xmlns="http://www.w3.org/2000/svg" width="956.482" height="574"><path fill="#0D4039" d="M.329 0h956.482v574H.329z"/><path fill="#398541" d="M478.026 83.685h401.99V494.25h-401.99z"/><path fill="#0866B7" d="M77.316 83.685h400.71V494.21H77.316z"/><path fill="#FFD649" d="M344.915 83.93c44.36-.42 88.74-.15 133.11-.14.11 7.11.1 14.21.09 21.32v1.82c-2.319 1.17-4.62 2.38-6.779 3.81-16 11-32.25 21.61-48.28 32.56-26.33 17.41-52.21 35.5-78.73 52.6-17.35-23.57-21.85-55.65-12.31-83.24 2.689-10.21 7.54-19.69 12.899-28.73zm33.571 182.86c33.32-22.21 66.13-45.18 99.63-67.11.04 32.03-.109 64.06.08 96.08l-.029 3.08c-5.58 2.32-10.25 6.221-15.271 9.49-36.08 24.24-72.18 48.47-108.26 72.72-3.36 2.47-6.92 5.44-11.41 4.66-.75-.95-1.51-1.89-2.26-2.819-6.851-11.94-12.561-24.94-13.431-38.851-1.439-14.72 2.23-29.479 8.351-42.79 2.64-4.26 4.24-9.811 9.17-12.01 11.37-7.13 22.32-14.92 33.43-22.45zm-32.281 213.66c43.931-29.44 87.49-59.42 131.461-88.81.199 4.119.529 8.239.479 12.369-.15 30.07.1 60.141-.12 90.2-46.46.1-92.93.1-139.39 0 1.771-4.889 2.78-10.819 7.57-13.759z"/><path fill="#fff" d="M77.646 198.04c44.01-30.61 87.92-61.37 131.96-91.93 13.91 8.57 27.16 18.16 40.83 27.1 30.92 20.74 61.77 41.63 92.75 62.29 4.81 4.92 7.71 11.37 10.76 17.46 3.78 7.15 5.351 15.17 7.01 23.01 2.37 18.98-4.199 38.48-16.34 53.091-.479.299-1.45.879-1.939 1.18-3.87-.16-6.65-3.45-9.721-5.44-40.449-28.55-80.729-57.32-121.229-85.79-29.75 20.63-59.71 40.96-89.47 61.58-10.01 7.01-20.33 13.58-30.21 20.78-4.92 3.24-9.561 6.91-14.73 9.739-.31-30.899.04-61.81-.18-92.719l.509-.351zm0 191.91c44.65-31.181 89.3-62.351 134.03-93.41 4.479 3 9.229 5.59 13.54 8.84 26.729 17.95 53.42 35.97 80.189 53.87 11.851 7.87 23.49 16.08 35.561 23.641.75.93 1.51 1.869 2.26 2.819 7.8 10.45 14.189 22.36 16.04 35.42 2.18 15.14.64 31.2-6.351 44.97-2.239 5.471-5.859 10.17-8.97 15.15-4.74-2.6-8.979-5.97-13.37-9.1-32.43-22.92-64.819-45.9-97.209-68.881-6.561-4.489-12.82-9.43-19.591-13.619-13.409 8.68-26.27 18.18-39.62 26.959-15.81 11.24-32.029 21.881-47.88 33.061-16.449 10.94-32.39 22.64-48.97 33.35-.3-30.89.061-61.8-.18-92.699l.521-.371z"/><path d="M616.016 84c17.53-.63 35.1-.09 52.64-.27 70.42.03 140.83-.06 211.25.04.05 36.84.15 73.69-.05 110.52-6.18-3.48-11.79-7.85-17.63-11.85-33.53-23.49-67.16-46.83-100.73-70.26-4.479-3.22-8.909-6.5-13.689-9.26-31.7 22.38-63.32 44.88-95.01 67.26-12.11 8.54-24.08 17.28-36.36 25.56l-.93-1.29c-6-9.47-11.261-19.6-13.67-30.62-3.391-10.77-3.341-22.23-2.41-33.37 2.438-16.39 8.269-32.15 16.589-46.46zm130.979 115.58c4.9 1.49 8.49 5.64 12.74 8.37 40.07 29.01 79.9 58.35 120.12 87.149.23 24.631.03 49.271.1 73.9-.02 4.891.12 9.79-.199 14.68l-.851-.619c-33.05-23.051-66.13-46.051-99.18-69.11-10.09-6.66-19.55-14.261-29.9-20.521-42.31 29.87-84.63 59.73-126.75 89.851-2.279 1.72-5.239 1.36-7.92 1.569-.52-.699-1.04-1.39-1.56-2.08-10.721-17.029-17.351-37.67-13.71-57.89 2.31-10.35 5.2-20.76 10.819-29.86 3.07-4.31 8.04-6.569 12.15-9.72 41.482-28.419 82.592-57.439 124.141-85.719zm-.079 191.68c1.159-.79 2.67-1.39 4-.55 3.859 1.97 7.02 5.01 10.52 7.5 38.66 28 77.14 56.25 115.87 84.15 3.899 2.58 2.149 7.96 2.71 11.89-87.771.07-175.55-.03-263.32.05-1.99-.29-4.54.66-6.16-.609l-.069-.771c1.38-4.18 2.81-8.79 6.46-11.57 43.318-30.04 86.698-60.02 129.989-90.09z" fill="#FFD649"/><path d="M478.115 105.11c28.92 18.85 57.82 37.74 86.74 56.59 16.92 10.85 33.47 22.3 50.65 32.75.229.32.699.97.93 1.29 12.77 17.97 20.64 41.02 15.03 63.01-2.181 6.46-4.16 13.1-7.851 18.89-3.24 5.57-6.89 11.34-12.88 14.27-3.92-2.33-7.68-4.9-11.31-7.65-37.53-26.81-75.09-53.55-112.59-80.38-2.801-2.06-5.641-4.08-8.7-5.74-.021-30.4.01-60.81-.021-91.21.002-.46.002-1.37.002-1.82zm.081 190.65c4.221.71 7.55 3.49 11.061 5.7 41.359 27.24 83.04 54.01 124.34 81.31.52.69 1.04 1.381 1.56 2.08 5.47 7.4 10.5 15.37 13.17 24.25 1.57 5.541 3.79 11.01 3.891 16.851.08 7.79.659 15.81-1.95 23.31-3.05 12.271-8.25 24.54-17.42 33.51-40.561-28.75-80.96-57.72-121.44-86.58-4.22-3.039-8.27-6.68-13.489-7.83.539-29.829.02-59.689.25-89.52.007-1.03.017-2.051.027-3.081z" fill="#fff"/><path fill="#E6E6E6" stroke="#000" stroke-width=".469" d="M44.851 501.997c-2.57 3.106-18.831 12.487-7.302 16.594 4.152 1.479.245 5.313-.438 5.759-.656.429-5.242 3.912-5.61-.924-.961-12.62-14.429-.124-18.269 1.51 2.4 3.999 6.521 22.156 14.077 11.502 2.188-3.086 4.371.748 4.942 2.451.823 2.452.914 6.326-2.74 5.272-11.904-3.433-4.232 17.452-4.232 17.452 4.164-.501 21.746.978 15.727-9.555-1.973-3.452 1.502-3.977 3.738-4.126 2.37-.159 5.619-.049 3.424 3.804-6.217 10.91 10.802 9.284 16.066 10.141.767-4.258 7.806-20.715-4.217-18.054-4.208.932-3.26-2.879-2.525-4.712.644-1.606 1.456-6.197 4.695-2.369 8.022 9.482 11.553-7.872 14.085-11.766-4.034-1.961-17.614-14.119-18.261-2.262-.241 4.374-3.686 2.744-5.561 1.461-1.66-1.135-4.691-3.889-.298-5.751 10.66-4.517-4.454-13.343-7.301-16.427z"/><circle fill="#E6E6E6" stroke="#000" stroke-width=".469" cx="44.851" cy="535.002" r="6.601"/><g fill="none" stroke="#7F7F7F" stroke-width=".469"><path d="M44.663 509.403c-.087 11.36.066 11.831.066 11.831-.277 1.563-.786 2.973-2.808 3.388"/><path d="M44.649 507.05c.086 11.36-.066 14.185-.066 14.185.277 1.563.786 2.973 2.807 3.388"/></g><g fill="none" stroke="#7F7F7F" stroke-width=".469"><path d="M20.545 527.174c10.779 3.593 11.274 3.593 11.274 3.593 1.4.746 2.584 1.665 2.354 3.716"/><path d="M18.303 526.46c10.83 3.429 13.47 4.448 13.47 4.448 1.572.219 3.07.172 4.089-1.624"/></g><g fill="none" stroke="#7F7F7F" stroke-width=".469"><path d="M29.556 555.797c6.748-9.14 6.9-9.611 6.9-9.611 1.143-1.101 2.383-1.944 4.262-1.09"/><path d="M28.185 557.71c6.608-9.241 8.392-11.438 8.392-11.438.694-1.427 1.11-2.867-.28-4.39"/></g><g fill="none" stroke="#7F7F7F" stroke-width=".469"><path d="M59.842 555.746c-6.607-9.241-7.008-9.532-7.008-9.532-.694-1.427-1.112-2.867.28-4.39"/><path d="M61.237 557.642c-6.746-9.14-8.284-11.515-8.284-11.515-1.142-1.1-2.381-1.942-4.262-1.09"/></g><g fill="none" stroke="#7F7F7F" stroke-width=".469"><path d="M69.315 527.007c-10.83 3.429-11.23 3.72-11.23 3.72-1.572.219-3.07.172-4.09-1.623"/><path d="M71.55 526.266c-10.777 3.593-13.511 4.32-13.511 4.32-1.4.746-2.584 1.666-2.353 3.716"/></g><path fill="#B1B1B1" stroke="#7F7F7F" stroke-width=".352" d="M44.844 528.406A6.59 6.59 0 0 0 38.25 535c0 3.644 2.95 6.594 6.594 6.594s6.594-2.949 6.594-6.594a6.591 6.591 0 0 0-6.594-6.594z"/><path fill="#E6E6E6" stroke="#000" stroke-width=".469" d="M912.289 501.997c2.57 3.106 18.831 12.487 7.302 16.594-4.151 1.479-.245 5.313.438 5.759.657.429 5.243 3.912 5.611-.924.96-12.62 14.428-.124 18.269 1.51-2.4 3.999-6.521 22.156-14.077 11.502-2.189-3.086-4.371.748-4.942 2.451-.823 2.452-.914 6.326 2.739 5.272 11.905-3.433 4.233 17.452 4.233 17.452-4.165-.501-21.746.978-15.727-9.555 1.973-3.452-1.503-3.977-3.738-4.126-2.371-.159-5.62-.049-3.425 3.804 6.217 10.91-10.801 9.284-16.065 10.141-.767-4.258-7.806-20.715 4.217-18.054 4.208.932 3.259-2.879 2.525-4.712-.644-1.606-1.456-6.197-4.695-2.369-8.022 9.482-11.553-7.872-14.085-11.766 4.033-1.961 17.613-14.119 18.26-2.262.242 4.374 3.686 2.744 5.562 1.461 1.66-1.135 4.691-3.889.297-5.751-10.659-4.517 4.456-13.343 7.301-16.427z"/><circle fill="#E6E6E6" stroke="#000" stroke-width=".469" cx="912.289" cy="535.002" r="6.601"/><path fill="none" stroke="#7F7F7F" stroke-width=".469" d="M912.478 509.403c.086 11.36-.066 11.831-.066 11.831.277 1.563.786 2.973 2.807 3.388"/><path fill="none" stroke="#7F7F7F" stroke-width=".469" d="M912.492 507.05c-.087 11.36.066 14.185.066 14.185-.277 1.563-.786 2.973-2.807 3.388"/><g fill="none" stroke="#7F7F7F" stroke-width=".469"><path d="M936.596 527.174c-10.778 3.593-11.272 3.593-11.272 3.593-1.4.746-2.584 1.665-2.353 3.716"/><path d="M938.84 526.46c-10.832 3.43-13.471 4.448-13.471 4.448-1.572.219-3.07.172-4.089-1.623"/></g><g fill="none" stroke="#7F7F7F" stroke-width=".469"><path d="M927.586 555.797c-6.748-9.14-6.902-9.611-6.902-9.611-1.142-1.101-2.382-1.944-4.262-1.09"/><path d="M928.957 557.71c-6.607-9.241-8.393-11.437-8.393-11.437-.694-1.428-1.11-2.867.281-4.39"/></g><g fill="none" stroke="#7F7F7F" stroke-width=".469"><path d="M897.298 555.746c6.608-9.241 7.009-9.532 7.009-9.532.693-1.427 1.111-2.867-.28-4.39"/><path d="M895.904 557.641c6.748-9.14 8.283-11.514 8.283-11.514 1.143-1.1 2.382-1.943 4.262-1.09"/></g><g fill="none" stroke="#7F7F7F" stroke-width=".469"><path d="M887.826 527.007c10.83 3.43 11.231 3.72 11.231 3.72 1.571.22 3.07.171 4.089-1.623"/><path d="M885.592 526.266c10.777 3.592 13.51 4.32 13.51 4.32 1.402.744 2.585 1.665 2.354 3.714"/></g><path fill="#B1B1B1" stroke="#7F7F7F" stroke-width=".352" d="M912.297 528.406a6.59 6.59 0 0 1 6.594 6.594c0 3.644-2.95 6.594-6.594 6.594s-6.594-2.949-6.594-6.594a6.591 6.591 0 0 1 6.594-6.594z"/><path fill="#E6E6E6" stroke="#000" stroke-width=".469" d="M478.34 10.898c-2.57 3.106-18.831 12.488-7.302 16.594 4.151 1.479.245 5.314-.438 5.759-.657.429-5.243 3.912-5.611-.924-.96-12.621-14.428-.124-18.269 1.509 2.4 3.999 6.521 22.157 14.077 11.503 2.189-3.086 4.371.748 4.942 2.45.823 2.453.914 6.326-2.739 5.272-11.905-3.432-4.233 17.453-4.233 17.453 4.165-.501 21.746.977 15.727-9.555-1.973-3.451 1.503-3.976 3.738-4.125 2.371-.159 5.62-.049 3.425 3.804-6.217 10.91 10.801 9.284 16.065 10.141.767-4.259 7.806-20.715-4.217-18.054-4.208.932-3.259-2.878-2.525-4.712.644-1.605 1.456-6.196 4.695-2.368 8.022 9.482 11.553-7.873 14.085-11.766-4.033-1.961-17.613-14.12-18.26-2.261-.242 4.374-3.686 2.744-5.562 1.461-1.66-1.135-4.691-3.889-.297-5.751 10.659-4.519-4.455-13.346-7.301-16.43z"/><circle fill="#E6E6E6" stroke="#000" stroke-width=".469" cx="478.34" cy="43.904" r="6.601"/><g fill="none" stroke="#7F7F7F" stroke-width=".469"><path d="M478.152 18.305c-.086 11.36.066 11.832.066 11.832-.277 1.562-.786 2.972-2.807 3.387"/><path d="M478.137 15.951c.087 11.36-.066 14.185-.066 14.185.277 1.562.786 2.972 2.807 3.387"/></g><g fill="none" stroke="#7F7F7F" stroke-width=".469"><path d="M454.035 36.075c10.777 3.593 11.272 3.593 11.272 3.593 1.4.746 2.584 1.665 2.354 3.716"/><path d="M451.791 35.361c10.83 3.43 13.471 4.448 13.471 4.448 1.572.218 3.07.172 4.089-1.623"/></g><g fill="none" stroke="#7F7F7F" stroke-width=".469"><path d="M463.044 64.699c6.748-9.14 6.902-9.611 6.902-9.611 1.142-1.101 2.382-1.943 4.261-1.09"/><path d="M461.673 66.611c6.608-9.24 8.393-11.437 8.393-11.437.693-1.427 1.11-2.867-.282-4.39"/></g><g fill="none" stroke="#7F7F7F" stroke-width=".469"><path d="M493.33 64.647c-6.607-9.241-7.007-9.532-7.007-9.532-.694-1.427-1.111-2.866.28-4.39"/><path d="M494.726 66.544c-6.747-9.14-8.284-11.516-8.284-11.516-1.143-1.1-2.382-1.942-4.262-1.09"/></g><g fill="none" stroke="#7F7F7F" stroke-width=".469"><path d="M502.804 35.909c-10.83 3.427-11.231 3.718-11.231 3.718-1.572.22-3.07.172-4.09-1.623"/><path d="M505.038 35.167c-10.777 3.592-13.511 4.32-13.511 4.32-1.4.746-2.584 1.666-2.353 3.715"/></g><path fill="#B1B1B1" stroke="#7F7F7F" stroke-width=".352" d="M478.332 37.308a6.59 6.59 0 0 0-6.594 6.594c0 3.644 2.95 6.594 6.594 6.594s6.594-2.95 6.594-6.594a6.59 6.59 0 0 0-6.594-6.594z"/><path fill="#3B8536" d="M456.115 565.294c-.391-6 1.559-12.808 5.914-18.801s10.222-9.942 16.05-11.426c.392 6.001-1.544 12.806-5.899 18.799-4.356 5.994-10.236 9.946-16.065 11.428z"/><path fill="#3B8536" d="M499.808 565.125c-5.828-1.482-11.702-5.44-16.057-11.433-4.354-5.993-6.299-12.793-5.908-18.793 5.829 1.481 11.703 5.424 16.059 11.418 4.355 5.996 6.296 12.808 5.906 18.808z"/><path fill="#3B8536" d="M513.542 523.703c-3.211 5.084-8.79 9.446-15.837 11.736-7.047 2.289-14.116 2.036-19.702-.189 3.211-5.085 8.777-9.452 15.824-11.742 7.049-2.29 14.128-2.031 19.715.195z"/><path fill="#3B8536" d="M477.939 497.839c3.843 4.625 6.269 11.278 6.269 18.687s-2.426 14.051-6.269 18.677c-3.844-4.626-6.279-11.267-6.278-18.677-.001-7.41 2.433-14.062 6.278-18.687z"/><path fill="#3B8536" d="M442.94 523.48c5.586-2.226 12.665-2.476 19.711-.187 7.047 2.29 12.616 6.648 15.827 11.732-5.587 2.226-12.657 2.489-19.704.199-7.047-2.287-12.623-6.659-15.834-11.744z"/><path fill="#D60000" stroke="#000" stroke-width=".033" d="M1282.51 586.71c14.325 0 14.853-7.291 13.133-10.273-1.731-2.997-3.875-5.82-5.815-8.728-6.635-10.564-9.143-9.952-14.859 0-1.939 2.909-4.091 5.729-5.822 8.729-1.723 2.98-.581 10.272 13.363 10.272z" transform="matrix(.17055 .52485 .5249 -.17053 -32.15 -42.617)"/><path d="M487.867 531.745c.894.643.893.563.488 1.502.663-.493 1.327-.985 1.992-1.477l-2.48-.025z"/><path fill="#3C4919" d="M487.65 533.332a.652.652 0 1 0-.404-1.24c-.341.11-.813.699-1.13 1.052.426.063 1.192.299 1.533.188z"/><path d="M492.124 538.649c1.141-.278 2.483-.917 2.283-3.358-.06-1.196-1.079-2.422-1.63-4.312-.666-1.853-.563-3.442-1.217-4.447-1.272-2.091-2.733-1.82-3.73-1.404.817-.357 2.277-.629 3.55 1.463.654 1.003.55 2.593 1.216 4.446.55 1.89 1.569 3.116 1.63 4.313.202 2.44-1.14 3.08-2.102 3.299z"/><path fill="#630000" d="M491.783 538.76c1.142-.278 2.484-.916 2.283-3.358-.06-1.195-1.078-2.42-1.63-4.311-.665-1.853-.562-3.443-1.216-4.446-1.272-2.092-2.733-1.82-3.73-1.405.817-.357 2.092-.493 3.365 1.599.654 1.003-.03 2.68.636 4.534.55 1.89 2.112 2.913 2.174 4.109.2 2.44-.92 3.058-1.882 3.277z"/><path fill="#D60000" stroke="#000" stroke-width=".033" d="M1034.926-488.513c14.325 0 14.854-7.293 13.133-10.273-1.73-2.998-3.875-5.82-5.814-8.728-6.633-10.566-9.142-9.952-14.859 0-1.939 2.907-4.091 5.73-5.821 8.728-1.723 2.981-.584 10.273 13.361 10.273z" transform="matrix(.55192 0 0 -.55185 -92.108 249.577)"/><path d="M478.253 525.924c.89-.652.813-.677 1.58 0-.262-.784-.526-1.567-.79-2.35l-.79 2.35z"/><path fill="#3C4919" d="M479.696 526.62a.652.652 0 1 0-1.305 0c0 .36.413.99.652 1.4.192-.386.653-1.04.653-1.4z"/><path d="M486.136 524.007c.089-1.172-.104-2.645-2.488-3.208-1.156-.312-2.636.278-4.604.218-1.969.06-3.45-.53-4.605-.218-2.383.563-2.577 2.036-2.488 3.113-.089-.888.104-2.361 2.488-2.924 1.156-.312 2.636.278 4.605.217 1.967.06 3.448-.53 4.604-.217 2.384.564 2.577 2.038 2.488 3.019z"/><path fill="#630000" d="M486.136 524.366c.089-1.172-.104-2.644-2.488-3.209-1.156-.312-2.636.278-4.604.218-1.969.06-3.45-.53-4.605-.218-2.383.564-2.577 2.037-2.488 3.113-.089-.887.177-2.143 2.56-2.707 1.156-.311 2.54.858 4.508.797 1.968.06 3.424-1.108 4.581-.797 2.384.565 2.625 1.82 2.536 2.803z"/><path fill="#D60000" stroke="#000" stroke-width=".033" d="M-65.701-587.234c14.325 0 14.852-7.291 13.132-10.273-1.731-2.998-3.875-5.819-5.814-8.728-6.635-10.565-9.144-9.951-14.859 0-1.94 2.908-4.091 5.729-5.823 8.729-1.723 2.981-.58 10.271 13.364 10.272z" transform="matrix(.17055 -.52485 -.5249 -.17053 166.275 395.364)"/><path d="M469.483 532.87c-.346-1.047-.393-.98.488-1.503-.827.009-1.653.016-2.48.026l1.992 1.477z"/><path fill="#3C4919" d="M470.59 531.713a.653.653 0 0 0-.403 1.242c.342.11 1.07-.088 1.533-.189-.308-.3-.788-.942-1.13-1.053z"/><path d="M470.096 524.782c-1.087-.447-2.548-.717-3.82 1.375-.655 1.003-.551 2.593-1.216 4.446-.55 1.89-1.57 3.116-1.63 4.313-.2 2.44 1.14 3.079 2.193 3.327-.872-.19-2.212-.83-2.012-3.27.06-1.196 1.078-2.421 1.63-4.311.664-1.854.56-3.443 1.215-4.447 1.272-2.092 2.733-1.821 3.64-1.433z"/><path fill="#630000" d="M470.437 524.893c-1.087-.447-2.548-.718-3.82 1.374-.654 1.003-.552 2.593-1.216 4.446-.552 1.89-1.57 3.116-1.63 4.312-.2 2.44 1.14 3.08 2.192 3.328-.871-.19-1.983-.831-1.783-3.272.061-1.195 1.6-2.15 2.151-4.04.666-1.853.004-3.6.658-4.602 1.272-2.092 2.541-1.934 3.448-1.546z"/><path fill="#D60000" stroke="#000" stroke-width=".033" d="M-497.585 430.23c14.323.001 14.852-7.29 13.132-10.272-1.731-2.997-3.874-5.82-5.814-8.728-6.634-10.566-9.144-9.953-14.86.001-1.938 2.908-4.09 5.729-5.823 8.728-1.721 2.981-.578 10.27 13.365 10.271z" transform="matrix(-.44651 -.32437 -.3244 .44646 386.597 194.903)"/><path d="M473.85 543.408c-1.103.005-1.055.07-1.278-.928l-.743 2.365 2.021-1.437z"/><path fill="#3C4919" d="M473.092 541.998a.652.652 0 0 0 1.055.767c.212-.292.248-1.045.297-1.518-.383.201-1.141.46-1.352.751z"/><path d="M466.346 540.326c-.76.896-1.47 2.2.127 4.057.752.932 2.296 1.326 3.854 2.532 1.628 1.107 2.478 2.454 3.598 2.881 2.258.945 3.28-.133 3.842-1.058-.45.771-1.472 1.849-3.732.905-1.119-.428-1.97-1.775-3.597-2.883-1.557-1.205-3.102-1.598-3.854-2.53-1.596-1.856-.886-3.161-.238-3.904z"/><path fill="#630000" d="M466.557 540.036c-.76.895-1.47 2.2.127 4.057.752.932 2.296 1.325 3.854 2.531 1.628 1.108 2.478 2.454 3.597 2.882 2.26.944 3.281-.133 3.843-1.057-.45.77-1.403 1.63-3.662.685-1.12-.427-1.55-2.187-3.179-3.295-1.558-1.205-3.423-1.116-4.175-2.047-1.596-1.855-1.055-3.014-.405-3.756z"/><path fill="#D60000" stroke="#000" stroke-width=".033" d="M335.538 1154.649c14.325 0 14.853-7.29 13.134-10.271-1.731-2.999-3.875-5.821-5.816-8.73-6.633-10.565-9.143-9.953-14.858-.002-1.94 2.91-4.091 5.73-5.824 8.73-1.72 2.983-.579 10.274 13.364 10.273z" transform="matrix(-.44651 .32437 .3244 .44646 263.68 -75.636)"/><path d="M485.137 542.751c-.336 1.051-.26 1.025-1.278.93l2.021 1.437-.743-2.367z"/><path fill="#3C4919" d="M483.562 543.036c.212.291.62.356.911.145a.65.65 0 0 0 .145-.91c-.212-.292-.916-.559-1.352-.75.072.423.084 1.224.296 1.515z"/><path d="M479.887 548.935c.617 1 1.64 2.078 3.898 1.133 1.12-.428 1.97-1.775 3.598-2.882 1.557-1.206 3.102-1.599 3.854-2.53 1.598-1.856.888-3.162.183-3.981.593.665 1.302 1.97-.294 3.828-.752.932-2.296 1.324-3.853 2.53-1.628 1.108-2.479 2.455-3.597 2.883-2.262.943-3.283-.135-3.79-.981z"/><path fill="#630000" d="M479.676 548.645c.616 1 1.639 2.078 3.898 1.133 1.12-.427 1.97-1.774 3.598-2.882 1.558-1.206 3.102-1.599 3.854-2.53 1.597-1.857.888-3.163.182-3.981.594.666 1.117 1.838-.48 3.694-.752.932-2.56.799-4.117 2.005-1.628 1.108-2.118 2.91-3.236 3.337-2.26.945-3.193.07-3.7-.776z"/><g fill="#3B8536"><path d="M463.81 516.586c-.248 3.824.993 8.164 3.769 11.984 2.776 3.82 6.516 6.338 10.23 7.284.25-3.825-.984-8.163-3.76-11.983-2.775-3.822-6.524-6.34-10.239-7.285z"/><path d="M491.657 516.693c-3.714.945-7.458 3.468-10.233 7.289-2.776 3.82-4.015 8.155-3.766 11.98 3.715-.946 7.458-3.459 10.235-7.28 2.777-3.822 4.014-8.163 3.764-11.99z"/><path d="M500.411 543.097c-2.047-3.24-5.602-6.02-10.094-7.48-4.49-1.46-8.996-1.298-12.556.12 2.047 3.242 5.594 6.026 10.085 7.485 4.492 1.46 9.005 1.295 12.565-.125z"/><path d="M477.719 559.582c2.45-2.947 3.995-7.188 3.995-11.91 0-4.721-1.545-8.956-3.995-11.904-2.45 2.947-4.002 7.181-4.002 11.904.001 4.723 1.553 8.963 4.002 11.91z"/><path d="M455.412 543.24c3.56 1.417 8.073 1.578 12.564.118 4.49-1.46 8.041-4.238 10.087-7.478-3.56-1.42-8.066-1.587-12.558-.127-4.492 1.459-8.045 4.245-10.093 7.486z"/></g><path fill="#fff" stroke="#000" stroke-width=".01" d="M509.911 545.315c4.939-15.2-2.615-18.275-6.371-17.477-3.778.802-7.513 2.104-11.268 3.158-13.496 3.397-13.711 6.271-5.123 15.769 2.418 3.06 4.669 6.316 7.255 9.187 2.571 2.856 10.702 4.157 15.507-10.637z"/><path d="M505.006 528.736c2.308.561 5.02 1.853 4.614 6.787-.124 2.418-2.182 4.896-3.295 8.717-1.346 3.747-1.136 6.961-2.459 8.989-2.571 4.229-5.525 3.68-7.541 2.837 1.651.724 4.604 1.272 7.177-2.955 1.322-2.029 1.114-5.243 2.459-8.99 1.113-3.822 3.17-6.298 3.295-8.717.406-4.932-2.308-6.224-4.25-6.668z"/><path fill="#3A6673" d="M504.317 528.513c2.307.563 5.021 1.854 4.614 6.787-.123 2.418-2.182 4.895-3.294 8.717-1.346 3.747-1.139 6.96-2.459 8.99-2.573 4.228-5.524 3.68-7.541 2.837 1.651.725 4.232.997 6.803-3.231 1.322-2.029-.061-5.42 1.284-9.166 1.113-3.821 4.271-5.891 4.395-8.31.405-4.933-1.858-6.181-3.802-6.624z"/><path fill="#fff" stroke="#000" stroke-width=".01" d="M478.65 568.125c15.981 0 16.572-8.135 14.652-11.46-1.933-3.346-4.324-6.493-6.487-9.739-7.401-11.786-10.202-11.104-16.579 0-2.163 3.245-4.564 6.394-6.495 9.739-1.919 3.325-.645 11.46 14.909 11.46z"/><path d="M492.902 558.335c.18 2.369-.211 5.348-5.028 6.488-2.339.628-5.331-.563-9.31-.439-3.979-.123-6.972 1.068-9.309.439-4.817-1.141-5.207-4.119-5.029-6.296-.179 1.795.212 4.773 5.029 5.912 2.337.63 5.33-.562 9.309-.439 3.979-.121 6.971 1.069 9.31.439 4.816-1.139 5.207-4.118 5.028-6.104z"/><path fill="#3A6673" d="M492.902 557.612c.18 2.367-.211 5.347-5.028 6.485-2.339.632-5.331-.562-9.31-.439-3.979-.123-6.972 1.07-9.309.439-4.817-1.139-5.207-4.118-5.029-6.293-.179 1.793.358 4.332 5.177 5.472 2.337.628 5.134-1.734 9.112-1.612 3.979-.122 6.923 2.242 9.26 1.612 4.817-1.14 5.306-3.678 5.127-5.664z"/><path fill="#fff" stroke="#000" stroke-width=".01" d="M446.763 546.242c4.94 15.2 12.857 13.247 15.426 10.393 2.585-2.87 4.84-6.119 7.257-9.177 8.923-10.683 7.407-13.133-5.123-15.767-3.755-1.055-7.491-2.366-11.27-3.167-3.753-.8-11.097 2.923-6.29 17.718z"/><path d="M460.476 556.77c-2.197.902-5.15 1.452-7.721-2.779-1.324-2.027-1.113-5.242-2.458-8.988-1.113-3.821-3.173-6.3-3.294-8.717-.406-4.932 2.306-6.225 4.432-6.727-1.762.383-4.472 1.676-4.067 6.609.123 2.418 2.18 4.896 3.294 8.717 1.346 3.747 1.135 6.96 2.457 8.989 2.572 4.229 5.526 3.68 7.357 2.897z"/><path fill="#3A6673" d="M461.166 556.546c-2.195.903-5.15 1.452-7.722-2.777-1.321-2.03-1.113-5.242-2.46-8.988-1.113-3.823-3.17-6.301-3.293-8.718-.405-4.934 2.306-6.227 4.432-6.73-1.76.384-4.01 1.68-3.605 6.615.124 2.416 3.235 4.346 4.348 8.17 1.345 3.744.007 7.275 1.33 9.304 2.572 4.23 5.137 3.91 6.97 3.124z"/><path fill="#fff" stroke="#000" stroke-width=".01" d="M458.672 509.048c-12.93 9.394-8.626 16.323-5.117 17.885 3.529 1.572 7.315 2.712 10.972 4.066 12.915 5.184 14.779 2.987 13.412-9.744-.158-3.896-.065-7.856-.47-11.698-.4-3.818-6.212-9.65-18.797-.51z"/><path d="M452.897 525.347c-1.538-1.811-2.973-4.45.255-8.203 1.52-1.885 4.643-2.68 7.79-5.117 3.29-2.241 5.01-4.962 7.272-5.826 4.567-1.91 6.633.271 7.768 2.136-.91-1.556-2.977-3.737-7.543-1.826-2.26.865-3.983 3.587-7.272 5.826-3.148 2.44-6.268 3.233-7.789 5.117-3.228 3.752-1.793 6.391-.481 7.893z"/><path fill="#3A6673" d="M453.323 525.933c-1.538-1.813-2.972-4.45.254-8.204 1.522-1.883 4.643-2.679 7.79-5.115 3.292-2.24 5.01-4.963 7.274-5.827 4.567-1.91 6.634.268 7.768 2.136-.91-1.557-2.837-3.295-7.405-1.386-2.262.865-3.135 4.422-6.425 6.662-3.147 2.437-6.918 2.255-8.44 4.14-3.226 3.752-2.128 6.092-.816 7.594z"/><path fill="#fff" stroke="#000" stroke-width=".01" d="M497.551 508.4c-12.93-9.396-18.189-3.16-18.59.658-.401 3.84-.319 7.793-.475 11.691-.937 13.887 1.728 14.98 13.414 9.745 3.657-1.354 7.45-2.491 10.978-4.06 3.507-1.56 7.257-8.89-5.327-18.035z"/><path d="M480.268 507.942c1.248-2.02 3.314-4.2 7.88-2.291 2.261.864 3.983 3.586 7.273 5.826 3.147 2.438 6.267 3.232 7.789 5.117 3.227 3.753 1.792 6.393.368 8.047 1.199-1.345 2.634-3.984-.593-7.739-1.523-1.882-4.644-2.678-7.79-5.114-3.29-2.24-5.011-4.963-7.274-5.83-4.564-1.91-6.632.273-7.653 1.984z"/><path fill="#3A6673" d="M479.842 508.528c1.247-2.02 3.313-4.2 7.882-2.292 2.26.866 3.981 3.587 7.27 5.827 3.147 2.438 6.27 3.233 7.79 5.116 3.229 3.752 1.794 6.392.369 8.05 1.2-1.347 2.258-3.717-.97-7.47-1.52-1.883-5.172-1.616-8.319-4.054-3.29-2.24-4.283-5.881-6.545-6.746-4.568-1.91-6.456-.142-7.477 1.569z"/><path fill="#3B8536" d="M467.188 521.236c2.819.717 5.658 2.631 7.765 5.529 2.105 2.897 3.045 6.187 2.856 9.088-2.819-.717-5.659-2.623-7.766-5.522-2.105-2.898-3.045-6.192-2.855-9.095z"/><path fill="#3B8536" d="M460.624 541.438c1.553-2.459 4.25-4.568 7.657-5.676s6.824-.984 9.527.092c-1.553 2.46-4.243 4.572-7.652 5.679-3.407 1.106-6.83.982-9.532-.095z"/><path fill="#3B8536" d="M477.809 553.923c-1.859-2.236-3.032-5.454-3.032-9.036 0-3.583 1.173-6.796 3.032-9.033 1.858 2.237 3.037 5.449 3.035 9.033 0 3.582-1.178 6.799-3.035 9.036z"/><path fill="#3B8536" d="M494.992 541.438c-2.701 1.077-6.123 1.197-9.531.091-3.407-1.107-6.101-3.214-7.652-5.675 2.701-1.076 6.119-1.204 9.527-.096 3.407 1.107 6.104 3.221 7.656 5.68z"/><path fill="#3B8536" d="M488.429 521.236c.189 2.901-.753 6.194-2.859 9.093-2.104 2.898-4.942 4.808-7.761 5.524-.189-2.901.745-6.191 2.853-9.091 2.105-2.897 4.947-4.808 7.767-5.526z"/><path fill="#D60000" stroke="#630000" stroke-width=".5" d="M489.766 540.544c2.373 3.942 1.915 8.689-1.178 10.933-3.095 2.258-7.742 1.211-10.754-2.243-3.027 3.454-7.675 4.501-10.77 2.243-3.094-2.243-3.551-6.99-1.18-10.933-4.221-1.785-6.66-5.894-5.466-9.542 1.18-3.635 5.55-5.532 10.034-4.501.409-4.584 3.552-8.151 7.381-8.151 3.813 0 6.972 3.552 7.381 8.134 4.485-1.014 8.839.884 10.034 4.519 1.178 3.647-1.244 7.756-5.482 9.541z"/><path fill="#EED706" stroke="#6B2910" stroke-width=".287" d="M482.466 532.145a5.728 5.728 0 1 1-9.27 6.733 5.73 5.73 0 0 1 9.27-6.733z"/><path fill="#3B8536" d="M19.45 72.201c-.391-6 1.559-12.808 5.914-18.801s10.222-9.942 16.05-11.426c.392 6.001-1.544 12.806-5.899 18.799-4.356 5.994-10.237 9.945-16.065 11.428z"/><path fill="#3B8536" d="M63.143 72.032c-5.828-1.482-11.702-5.44-16.057-11.433-4.354-5.993-6.299-12.793-5.908-18.793 5.829 1.481 11.703 5.424 16.059 11.418 4.355 5.996 6.296 12.808 5.906 18.808z"/><path fill="#3B8536" d="M76.877 30.61c-3.211 5.084-8.79 9.446-15.837 11.736-7.047 2.289-14.116 2.036-19.702-.189 3.211-5.085 8.777-9.452 15.824-11.742 7.049-2.29 14.128-2.032 19.715.195z"/><path fill="#3B8536" d="M41.274 4.746c3.843 4.625 6.269 11.278 6.269 18.687s-2.426 14.051-6.269 18.677c-3.844-4.626-6.279-11.267-6.278-18.677-.001-7.41 2.433-14.062 6.278-18.687z"/><path fill="#3B8536" d="M6.275 30.387c5.586-2.226 12.665-2.476 19.711-.187 7.047 2.29 12.616 6.648 15.827 11.732-5.587 2.226-12.657 2.489-19.704.199-7.047-2.288-12.624-6.659-15.834-11.744z"/><path fill="#D60000" stroke="#000" stroke-width=".033" d="M188.234 110.368c14.325 0 14.853-7.291 13.133-10.273-1.731-2.997-3.875-5.82-5.815-8.728-6.635-10.564-9.143-9.952-14.859 0-1.939 2.909-4.091 5.729-5.822 8.729-1.722 2.98-.581 10.272 13.363 10.272z" transform="matrix(.17055 .52485 .5249 -.17053 -32.15 -42.617)"/><path d="M51.202 38.651c.894.644.893.563.488 1.503l1.991-1.477-2.48-.026z"/><path fill="#3C4919" d="M50.984 40.238a.652.652 0 1 0-.403-1.24c-.342.11-.813.699-1.13 1.052.426.063 1.192.3 1.533.188z"/><path d="M55.46 45.555c1.14-.277 2.483-.917 2.282-3.358-.06-1.196-1.079-2.421-1.63-4.312-.666-1.853-.562-3.442-1.217-4.446-1.272-2.092-2.733-1.821-3.73-1.405.817-.357 2.277-.629 3.55 1.463.655 1.003.551 2.593 1.216 4.446.55 1.891 1.57 3.116 1.63 4.313.202 2.44-1.14 3.08-2.102 3.299z"/><path fill="#630000" d="M55.118 45.666c1.141-.278 2.483-.916 2.283-3.358-.061-1.195-1.079-2.42-1.63-4.31-.666-1.854-.562-3.443-1.216-4.447-1.273-2.092-2.734-1.82-3.73-1.404.817-.358 2.092-.493 3.364 1.598.655 1.004-.03 2.68.636 4.534.551 1.89 2.113 2.913 2.174 4.11.2 2.44-.92 3.058-1.88 3.277z"/><path fill="#D60000" stroke="#000" stroke-width=".033" d="M243.748 405.008c14.325 0 14.854-7.293 13.132-10.273-1.73-2.998-3.875-5.82-5.814-8.728-6.633-10.566-9.142-9.952-14.859 0-1.939 2.907-4.091 5.73-5.821 8.728-1.722 2.98-.583 10.273 13.362 10.273z" transform="matrix(.55192 0 0 -.55185 -92.108 249.577)"/><path d="M41.588 32.83c.89-.651.812-.676 1.58 0l-.79-2.35-.79 2.35z"/><path fill="#3C4919" d="M43.03 33.526a.652.652 0 1 0-1.304 0c0 .36.413.99.652 1.4.192-.385.653-1.04.653-1.4z"/><path d="M49.47 30.914c.09-1.172-.103-2.645-2.487-3.208-1.156-.313-2.636.277-4.604.218-1.969.06-3.45-.53-4.605-.218-2.383.563-2.577 2.036-2.488 3.113-.089-.888.104-2.361 2.488-2.923 1.156-.313 2.636.277 4.605.217 1.967.06 3.448-.53 4.604-.217 2.384.563 2.577 2.037 2.488 3.018z"/><path fill="#630000" d="M49.47 31.273c.09-1.172-.103-2.645-2.487-3.209-1.156-.311-2.636.278-4.604.218-1.969.06-3.45-.53-4.605-.218-2.383.563-2.577 2.037-2.488 3.114-.089-.887.177-2.143 2.56-2.707 1.156-.312 2.54.858 4.509.797 1.967.06 3.424-1.109 4.58-.797 2.384.564 2.625 1.82 2.536 2.802z"/><path fill="#D60000" stroke="#000" stroke-width=".033" d="M539.599 441.333c14.325 0 14.852-7.291 13.132-10.273-1.731-2.998-3.875-5.819-5.814-8.728-6.635-10.565-9.144-9.951-14.859 0-1.94 2.908-4.091 5.729-5.823 8.729-1.722 2.982-.579 10.272 13.364 10.272z" transform="matrix(.17055 -.52485 -.5249 -.17053 166.275 395.364)"/><path d="M32.817 39.777c-.345-1.047-.392-.98.489-1.503l-2.48.025 1.991 1.478z"/><path fill="#3C4919" d="M33.925 38.62a.653.653 0 0 0-.403 1.241c.342.11 1.07-.087 1.533-.188-.308-.3-.788-.942-1.13-1.053z"/><path d="M33.43 31.688c-1.086-.446-2.547-.717-3.82 1.376-.654 1.003-.55 2.592-1.215 4.446-.55 1.89-1.57 3.116-1.63 4.312-.2 2.44 1.14 3.08 2.193 3.328-.871-.19-2.212-.83-2.012-3.27.06-1.197 1.078-2.422 1.63-4.312.665-1.853.561-3.442 1.215-4.446 1.271-2.092 2.732-1.822 3.64-1.434z"/><path fill="#630000" d="M33.771 31.8c-1.087-.447-2.547-.718-3.82 1.374-.653 1.002-.55 2.592-1.216 4.446-.551 1.89-1.569 3.116-1.63 4.311-.2 2.44 1.141 3.08 2.193 3.328-.872-.19-1.984-.83-1.784-3.272.062-1.195 1.601-2.15 2.152-4.04.666-1.853.004-3.6.658-4.602 1.272-2.091 2.542-1.933 3.447-1.545z"/><path fill="#D60000" stroke="#000" stroke-width=".033" d="M667.689 172.4c14.323.001 14.852-7.29 13.132-10.272-1.731-2.997-3.874-5.82-5.814-8.728-6.634-10.566-9.144-9.953-14.86.001-1.938 2.908-4.09 5.729-5.823 8.727-1.72 2.982-.578 10.271 13.365 10.272z" transform="matrix(-.44651 -.32437 -.3244 .44646 386.597 194.903)"/><path d="M37.185 50.315c-1.103.005-1.055.07-1.279-.929l-.742 2.365c.673-.478 1.347-.956 2.02-1.436z"/><path fill="#3C4919" d="M36.427 48.905a.652.652 0 0 0 1.055.766c.212-.292.248-1.045.297-1.517-.383.201-1.141.459-1.352.751z"/><path d="M29.68 47.232c-.759.896-1.469 2.201.128 4.058.751.931 2.296 1.325 3.853 2.531 1.628 1.108 2.479 2.454 3.598 2.882 2.259.944 3.281-.133 3.843-1.058-.45.77-1.473 1.848-3.732.905-1.119-.428-1.97-1.775-3.597-2.883-1.557-1.205-3.102-1.598-3.854-2.53-1.597-1.856-.887-3.162-.238-3.905z"/><path fill="#630000" d="M29.892 46.943c-.76.895-1.47 2.2.127 4.057.752.932 2.296 1.325 3.854 2.531 1.628 1.108 2.478 2.454 3.597 2.882 2.26.944 3.282-.133 3.843-1.057-.45.77-1.403 1.63-3.662.685-1.12-.427-1.55-2.187-3.179-3.295-1.558-1.206-3.423-1.116-4.175-2.048-1.597-1.855-1.055-3.013-.405-3.755z"/><path fill="#D60000" stroke="#000" stroke-width=".033" d="M450.416-33.266c14.325 0 14.853-7.29 13.134-10.271-1.731-2.999-3.875-5.821-5.816-8.73-6.633-10.565-9.143-9.953-14.858-.002-1.94 2.91-4.091 5.73-5.824 8.731-1.72 2.982-.578 10.273 13.364 10.272z" transform="matrix(-.44651 .32437 .3244 .44646 263.68 -75.636)"/><path d="M48.472 49.658c-.336 1.05-.26 1.024-1.278.93l2.021 1.436-.743-2.366z"/><path fill="#3C4919" d="M46.897 49.943c.212.29.619.355.911.144a.65.65 0 0 0 .145-.91c-.213-.291-.916-.558-1.352-.75.072.424.083 1.225.296 1.516z"/><path d="M43.222 55.841c.617 1 1.64 2.079 3.898 1.133 1.12-.428 1.97-1.775 3.598-2.882 1.557-1.206 3.102-1.598 3.854-2.53 1.597-1.856.887-3.162.182-3.981.594.665 1.303 1.97-.293 3.828-.753.932-2.297 1.324-3.853 2.53-1.628 1.108-2.478 2.455-3.598 2.883-2.26.944-3.282-.134-3.788-.98z"/><path fill="#630000" d="M43.011 55.551c.616 1 1.639 2.078 3.899 1.134 1.119-.428 1.969-1.775 3.597-2.883 1.558-1.205 3.102-1.598 3.854-2.53 1.597-1.857.888-3.162.182-3.98.594.665 1.117 1.837-.48 3.694-.752.931-2.56.798-4.117 2.005-1.628 1.108-2.118 2.909-3.236 3.336-2.26.945-3.193.071-3.699-.776z"/><g fill="#3B8536"><path d="M27.146 23.493c-.25 3.824.993 8.164 3.768 11.984 2.777 3.82 6.516 6.338 10.23 7.284.25-3.826-.984-8.162-3.76-11.983-2.776-3.822-6.525-6.341-10.238-7.285z"/><path d="M54.992 23.6c-3.714.944-7.458 3.467-10.233 7.288-2.777 3.82-4.015 8.155-3.766 11.98 3.715-.945 7.458-3.458 10.235-7.28 2.777-3.821 4.013-8.163 3.764-11.989z"/><path d="M63.746 50.003c-2.047-3.24-5.602-6.02-10.094-7.48-4.49-1.46-8.996-1.297-12.556.121 2.047 3.241 5.594 6.025 10.085 7.484 4.492 1.46 9.005 1.295 12.565-.125z"/><path d="M41.054 66.489c2.45-2.947 3.995-7.189 3.995-11.91 0-4.722-1.545-8.957-3.996-11.905-2.449 2.947-4.002 7.182-4.001 11.904 0 4.723 1.552 8.963 4.002 11.91z"/><path d="M18.747 50.146c3.561 1.418 8.074 1.579 12.564.12 4.49-1.46 8.041-4.24 10.087-7.48-3.56-1.42-8.066-1.586-12.558-.126-4.492 1.459-8.046 4.245-10.093 7.486z"/></g><path fill="#fff" stroke="#000" stroke-width=".01" d="M73.246 52.222c4.939-15.2-2.615-18.275-6.371-17.477-3.778.802-7.513 2.104-11.268 3.158-13.496 3.397-13.711 6.271-5.123 15.769 2.418 3.06 4.669 6.316 7.255 9.187 2.571 2.855 10.701 4.157 15.507-10.637z"/><path d="M68.341 35.643c2.308.561 5.02 1.853 4.614 6.787-.124 2.418-2.182 4.896-3.295 8.717-1.346 3.747-1.136 6.961-2.459 8.989-2.571 4.229-5.525 3.68-7.541 2.837 1.651.724 4.604 1.272 7.177-2.955 1.322-2.029 1.114-5.243 2.459-8.99 1.113-3.822 3.17-6.298 3.295-8.717.406-4.933-2.308-6.225-4.25-6.668z"/><path fill="#3A6673" d="M67.651 35.419c2.307.563 5.021 1.854 4.614 6.787-.123 2.418-2.182 4.895-3.294 8.717-1.346 3.747-1.139 6.96-2.459 8.99-2.573 4.228-5.524 3.68-7.541 2.837 1.651.725 4.232.997 6.803-3.231 1.322-2.029-.061-5.42 1.284-9.166 1.113-3.821 4.271-5.891 4.395-8.31.405-4.932-1.857-6.18-3.802-6.624z"/><path fill="#fff" stroke="#000" stroke-width=".01" d="M41.984 75.032c15.981 0 16.572-8.135 14.652-11.46-1.933-3.346-4.324-6.493-6.487-9.739-7.401-11.786-10.202-11.104-16.579 0-2.163 3.245-4.564 6.394-6.495 9.739-1.919 3.325-.644 11.46 14.909 11.46z"/><path d="M56.236 65.242c.18 2.369-.211 5.348-5.028 6.488-2.339.628-5.331-.563-9.31-.439-3.979-.123-6.972 1.068-9.309.439-4.817-1.141-5.207-4.119-5.029-6.296-.179 1.795.212 4.773 5.029 5.912 2.337.63 5.33-.562 9.309-.439 3.979-.121 6.971 1.069 9.31.439 4.816-1.139 5.208-4.118 5.028-6.104z"/><path fill="#3A6673" d="M56.236 64.519c.18 2.367-.211 5.347-5.028 6.485-2.339.632-5.331-.562-9.31-.439-3.979-.123-6.972 1.07-9.309.439-4.817-1.139-5.207-4.118-5.029-6.293-.179 1.793.358 4.332 5.177 5.472 2.337.628 5.134-1.734 9.112-1.612 3.979-.122 6.923 2.242 9.26 1.612 4.818-1.14 5.307-3.679 5.127-5.664z"/><path fill="#fff" stroke="#000" stroke-width=".01" d="M10.098 53.15c4.94 15.2 12.857 13.246 15.426 10.392 2.585-2.87 4.84-6.119 7.257-9.177 8.923-10.683 7.406-13.133-5.123-15.767-3.755-1.055-7.491-2.366-11.27-3.167-3.753-.8-11.097 2.923-6.29 17.719z"/><path d="M23.81 63.678c-2.196.901-5.149 1.45-7.72-2.78-1.324-2.027-1.113-5.242-2.458-8.988-1.114-3.82-3.173-6.3-3.294-8.717-.407-4.932 2.305-6.225 4.432-6.727-1.762.383-4.473 1.676-4.068 6.609.123 2.419 2.18 4.896 3.295 8.718 1.346 3.746 1.135 6.96 2.457 8.988 2.571 4.228 5.525 3.68 7.357 2.897z"/><path fill="#3A6673" d="M24.502 63.453c-2.195.902-5.15 1.451-7.723-2.778-1.32-2.029-1.113-5.242-2.459-8.988-1.113-3.822-3.17-6.301-3.294-8.718-.404-4.933 2.307-6.226 4.433-6.73-1.76.385-4.01 1.68-3.606 6.615.125 2.417 3.236 4.346 4.35 8.169 1.344 3.745.006 7.276 1.329 9.305 2.57 4.23 5.136 3.91 6.97 3.125z"/><path fill="#fff" stroke="#000" stroke-width=".01" d="M22.006 15.955C9.077 25.349 13.38 32.278 16.89 33.839c3.528 1.573 7.314 2.713 10.97 4.067 12.917 5.183 14.78 2.986 13.413-9.745-.158-3.896-.065-7.855-.469-11.698-.4-3.817-6.212-9.65-18.797-.508z"/><path d="M16.231 32.253c-1.538-1.81-2.972-4.45.256-8.203 1.52-1.885 4.642-2.68 7.789-5.116 3.29-2.242 5.01-4.963 7.273-5.827 4.566-1.91 6.633.271 7.767 2.136-.91-1.556-2.976-3.737-7.542-1.825-2.26.864-3.983 3.586-7.272 5.826-3.148 2.438-6.269 3.233-7.789 5.116-3.228 3.753-1.793 6.391-.482 7.893z"/><path fill="#3A6673" d="M16.657 32.84c-1.537-1.813-2.972-4.452.255-8.205 1.522-1.883 4.642-2.679 7.79-5.115 3.292-2.24 5.01-4.963 7.274-5.827 4.566-1.91 6.634.268 7.767 2.136-.91-1.557-2.837-3.294-7.404-1.385-2.262.864-3.136 4.42-6.426 6.66-3.146 2.438-6.918 2.256-8.438 4.14-3.227 3.754-2.13 6.095-.818 7.595z"/><path fill="#fff" stroke="#000" stroke-width=".01" d="M60.886 15.306c-12.93-9.395-18.189-3.159-18.59.66-.402 3.839-.32 7.792-.475 11.69-.938 13.887 1.727 14.98 13.414 9.745 3.657-1.354 7.45-2.491 10.978-4.06 3.507-1.562 7.258-8.891-5.327-18.035z"/><path d="M43.603 14.848c1.248-2.02 3.314-4.2 7.88-2.291 2.261.864 3.983 3.587 7.273 5.827 3.148 2.438 6.267 3.23 7.789 5.116 3.227 3.753 1.792 6.393.368 8.048 1.199-1.346 2.634-3.984-.593-7.74-1.523-1.882-4.644-2.677-7.79-5.114-3.29-2.24-5.011-4.962-7.274-5.829-4.564-1.909-6.632.272-7.653 1.983z"/><path fill="#3A6673" d="M43.177 15.434c1.247-2.02 3.313-4.2 7.882-2.291 2.26.866 3.981 3.587 7.27 5.827 3.148 2.438 6.27 3.232 7.79 5.115 3.229 3.753 1.794 6.392.369 8.05 1.2-1.347 2.258-3.717-.97-7.47-1.52-1.883-5.172-1.616-8.319-4.053-3.29-2.24-4.283-5.882-6.545-6.747-4.568-1.908-6.455-.142-7.477 1.57z"/><path fill="#3B8536" d="M30.522 28.143c2.819.717 5.658 2.631 7.765 5.529 2.105 2.897 3.045 6.187 2.856 9.088-2.819-.717-5.659-2.623-7.766-5.522-2.105-2.899-3.044-6.193-2.855-9.095z"/><path fill="#3B8536" d="M23.959 48.344c1.553-2.459 4.25-4.568 7.657-5.676s6.824-.984 9.527.092c-1.553 2.46-4.243 4.572-7.652 5.679-3.407 1.106-6.83.982-9.532-.095z"/><path fill="#3B8536" d="M41.144 60.83c-1.859-2.236-3.032-5.454-3.032-9.036 0-3.583 1.173-6.796 3.032-9.033 1.858 2.237 3.037 5.449 3.035 9.033 0 3.582-1.178 6.798-3.035 9.036z"/><path fill="#3B8536" d="M58.327 48.344c-2.701 1.077-6.123 1.197-9.531.091-3.407-1.107-6.101-3.214-7.652-5.675 2.701-1.076 6.119-1.204 9.527-.096 3.407 1.108 6.103 3.221 7.656 5.68z"/><path fill="#3B8536" d="M51.764 28.143c.189 2.901-.753 6.194-2.859 9.093-2.104 2.898-4.942 4.808-7.761 5.524-.189-2.901.745-6.191 2.853-9.091 2.105-2.897 4.947-4.808 7.767-5.526z"/><path fill="#D60000" stroke="#630000" stroke-width=".5" d="M53.101 47.451c2.373 3.942 1.915 8.689-1.178 10.933-3.095 2.258-7.742 1.211-10.754-2.243-3.027 3.454-7.675 4.501-10.77 2.243-3.094-2.243-3.551-6.99-1.18-10.933-4.221-1.785-6.66-5.894-5.466-9.542 1.18-3.635 5.55-5.532 10.034-4.501.409-4.584 3.552-8.151 7.381-8.151 3.813 0 6.972 3.552 7.381 8.134 4.485-1.014 8.839.884 10.034 4.519 1.178 3.647-1.244 7.756-5.482 9.541z"/><path fill="#EED706" stroke="#6B2910" stroke-width=".287" d="M45.801 39.052a5.728 5.728 0 1 1-9.27 6.733 5.73 5.73 0 0 1 9.27-6.733z"/><g><path fill="#3B8536" d="M891.501 72.201c-.391-6 1.559-12.808 5.914-18.801s10.222-9.942 16.05-11.426c.392 6.001-1.544 12.806-5.899 18.799-4.356 5.994-10.237 9.945-16.065 11.428z"/><path fill="#3B8536" d="M935.193 72.032c-5.828-1.482-11.702-5.44-16.057-11.433-4.354-5.993-6.299-12.793-5.908-18.793 5.829 1.481 11.703 5.424 16.059 11.418 4.356 5.996 6.297 12.808 5.906 18.808z"/><path fill="#3B8536" d="M948.928 30.61c-3.211 5.084-8.79 9.446-15.837 11.736-7.047 2.289-14.116 2.036-19.702-.189 3.211-5.085 8.777-9.452 15.824-11.742 7.049-2.29 14.128-2.032 19.715.195z"/><path fill="#3B8536" d="M913.324 4.746c3.843 4.625 6.269 11.278 6.269 18.687s-2.426 14.051-6.269 18.677c-3.844-4.626-6.279-11.267-6.278-18.677 0-7.41 2.433-14.062 6.278-18.687z"/><path fill="#3B8536" d="M878.325 30.387c5.586-2.226 12.665-2.476 19.711-.187 7.047 2.29 12.616 6.648 15.827 11.732-5.587 2.226-12.657 2.489-19.704.199-7.047-2.288-12.623-6.659-15.834-11.744z"/><path fill="#D60000" stroke="#000" stroke-width=".033" d="M676.493 1613.072c14.325 0 14.853-7.291 13.133-10.273-1.731-2.997-3.875-5.82-5.815-8.728-6.635-10.564-9.143-9.952-14.859 0-1.939 2.909-4.091 5.729-5.822 8.729-1.722 2.98-.58 10.272 13.363 10.272z" transform="matrix(.17055 .52485 .5249 -.17053 -32.15 -42.617)"/><path d="M923.252 38.652c.895.644.893.563.489 1.503l1.99-1.478c-.826-.007-1.653-.017-2.479-.025z"/><path fill="#3C4919" d="M923.035 40.239a.652.652 0 1 0-.403-1.24c-.341.11-.813.699-1.13 1.052.426.063 1.191.3 1.533.188z"/><path d="M927.51 45.556c1.142-.278 2.483-.917 2.283-3.358-.06-1.196-1.08-2.422-1.63-4.312-.666-1.853-.563-3.442-1.217-4.447-1.272-2.091-2.733-1.82-3.73-1.404.817-.357 2.276-.629 3.55 1.463.654 1.003.55 2.593 1.215 4.446.551 1.89 1.57 3.116 1.63 4.313.202 2.44-1.14 3.08-2.101 3.299z"/><path fill="#630000" d="M927.17 45.667c1.14-.278 2.482-.916 2.282-3.358-.061-1.195-1.078-2.42-1.63-4.311-.666-1.853-.562-3.442-1.216-4.446-1.272-2.092-2.734-1.82-3.73-1.405.817-.357 2.092-.493 3.365 1.599.654 1.003-.03 2.68.636 4.534.55 1.89 2.112 2.913 2.173 4.11.2 2.44-.919 3.057-1.88 3.277z"/><path fill="#D60000" stroke="#000" stroke-width=".033" d="M1823.786 405.008c14.325 0 14.854-7.293 13.132-10.273-1.73-2.998-3.875-5.82-5.814-8.728-6.633-10.566-9.142-9.952-14.859 0-1.939 2.907-4.091 5.73-5.821 8.728-1.722 2.98-.583 10.273 13.362 10.273z" transform="matrix(.55192 0 0 -.55185 -92.108 249.577)"/><path d="M913.639 32.83c.89-.651.812-.676 1.58 0l-.79-2.35-.79 2.35z"/><path fill="#3C4919" d="M915.081 33.526a.652.652 0 1 0-1.304 0c0 .36.412.99.652 1.4.191-.385.652-1.04.652-1.4z"/><path d="M921.522 30.914c.088-1.172-.105-2.645-2.488-3.208-1.156-.312-2.636.277-4.605.218-1.968.06-3.449-.53-4.605-.218-2.382.563-2.576 2.036-2.487 3.113-.09-.888.104-2.361 2.487-2.923 1.157-.313 2.637.277 4.605.217 1.968.06 3.449-.53 4.605-.217 2.383.563 2.576 2.037 2.488 3.018z"/><path fill="#630000" d="M921.522 31.273c.088-1.172-.105-2.644-2.488-3.209-1.156-.311-2.636.278-4.605.218-1.968.06-3.449-.53-4.605-.218-2.382.563-2.576 2.037-2.487 3.114-.09-.887.176-2.143 2.56-2.707 1.156-.312 2.54.858 4.508.797 1.968.06 3.424-1.109 4.581-.797 2.383.564 2.624 1.82 2.536 2.802z"/><path fill="#D60000" stroke="#000" stroke-width=".033" d="M1027.857-1061.372c14.325 0 14.852-7.291 13.132-10.273-1.731-2.998-3.875-5.819-5.814-8.728-6.635-10.565-9.144-9.951-14.859 0-1.94 2.908-4.091 5.729-5.823 8.729-1.722 2.982-.579 10.272 13.364 10.272z" transform="matrix(.17055 -.52485 -.5249 -.17053 166.275 395.364)"/><path d="M904.869 39.777c-.346-1.047-.393-.98.488-1.503l-2.48.025c.663.493 1.327.986 1.992 1.478z"/><path fill="#3C4919" d="M905.976 38.62a.653.653 0 0 0-.403 1.24c.342.111 1.07-.086 1.533-.188-.308-.3-.789-.94-1.13-1.052z"/><path d="M905.482 31.688c-1.087-.446-2.548-.717-3.82 1.376-.655 1.003-.551 2.592-1.216 4.446-.552 1.89-1.57 3.116-1.63 4.312-.2 2.44 1.14 3.08 2.193 3.328-.872-.19-2.213-.83-2.013-3.27.06-1.197 1.079-2.422 1.63-4.312.665-1.853.562-3.442 1.216-4.446 1.271-2.092 2.732-1.821 3.64-1.434z"/><path fill="#630000" d="M905.823 31.8c-1.087-.447-2.548-.718-3.82 1.374-.654 1.003-.552 2.593-1.217 4.446-.551 1.89-1.569 3.116-1.63 4.311-.2 2.44 1.141 3.08 2.193 3.328-.871-.19-1.983-.83-1.783-3.271.061-1.195 1.6-2.15 2.151-4.04.666-1.854.004-3.6.658-4.603 1.272-2.091 2.541-1.933 3.448-1.545z"/><path fill="#D60000" stroke="#000" stroke-width=".033" d="M-610.588-756.323c14.323.001 14.852-7.29 13.132-10.272-1.731-2.997-3.874-5.82-5.814-8.728-6.634-10.566-9.144-9.953-14.86.001-1.938 2.908-4.09 5.729-5.823 8.727-1.721 2.982-.578 10.272 13.365 10.272z" transform="matrix(-.44651 -.32437 -.3244 .44646 386.597 194.903)"/><path d="M909.236 50.315c-1.103.005-1.055.07-1.279-.929l-.742 2.366c.673-.479 1.347-.957 2.02-1.437z"/><path fill="#3C4919" d="M908.478 48.905a.652.652 0 0 0 1.054.766c.213-.292.249-1.045.297-1.517-.383.201-1.14.459-1.351.751z"/><path d="M901.731 47.232c-.76.896-1.47 2.201.127 4.057.752.932 2.296 1.326 3.854 2.532 1.628 1.108 2.479 2.454 3.598 2.882 2.259.944 3.28-.133 3.842-1.058-.45.77-1.472 1.848-3.731.904-1.12-.427-1.97-1.774-3.598-2.883-1.556-1.205-3.101-1.597-3.854-2.53-1.596-1.855-.886-3.16-.238-3.904z"/><path fill="#630000" d="M901.942 46.943c-.76.895-1.47 2.2.127 4.057.753.933 2.296 1.325 3.854 2.531 1.628 1.108 2.479 2.455 3.598 2.882 2.26.945 3.28-.133 3.843-1.057-.45.77-1.404 1.63-3.663.685-1.119-.427-1.55-2.187-3.178-3.295-1.558-1.205-3.423-1.115-4.175-2.047-1.597-1.855-1.055-3.014-.406-3.756z"/><path fill="#D60000" stroke="#000" stroke-width=".033" d="M-827.86 895.457c14.325 0 14.853-7.29 13.134-10.271-1.731-2.999-3.875-5.821-5.816-8.73-6.633-10.565-9.143-9.953-14.858-.002-1.94 2.91-4.091 5.73-5.824 8.731-1.72 2.982-.579 10.272 13.364 10.272z" transform="matrix(-.44651 .32437 .3244 .44646 263.68 -75.636)"/><path d="M920.523 49.658c-.336 1.051-.26 1.025-1.278.93l2.021 1.437-.743-2.367z"/><path fill="#3C4919" d="M918.947 49.943c.212.291.62.355.911.144a.65.65 0 0 0 .145-.91c-.212-.291-.916-.558-1.351-.75.071.424.084 1.225.295 1.516z"/><path d="M915.272 55.841c.618 1 1.64 2.079 3.899 1.133 1.12-.427 1.97-1.774 3.598-2.881 1.556-1.206 3.101-1.599 3.854-2.53 1.597-1.857.887-3.162.182-3.982.594.665 1.303 1.97-.294 3.828-.751.932-2.296 1.325-3.852 2.53-1.628 1.11-2.478 2.456-3.598 2.884-2.261.943-3.283-.135-3.789-.982z"/><path fill="#630000" d="M915.062 55.552c.616 1 1.639 2.078 3.898 1.133 1.12-.427 1.97-1.774 3.598-2.883 1.558-1.205 3.102-1.598 3.854-2.53 1.596-1.856.887-3.162.182-3.98.594.666 1.117 1.838-.48 3.694-.753.932-2.56.799-4.117 2.005-1.628 1.108-2.118 2.91-3.236 3.337-2.26.944-3.193.07-3.7-.776z"/><g fill="#3B8536"><path d="M899.196 23.493c-.249 3.824.993 8.164 3.769 11.984 2.776 3.82 6.516 6.338 10.23 7.283.25-3.825-.984-8.162-3.76-11.982-2.776-3.822-6.525-6.34-10.239-7.285z"/><path d="M927.042 23.6c-3.714.944-7.457 3.467-10.233 7.288-2.776 3.82-4.015 8.155-3.766 11.98 3.715-.945 7.459-3.458 10.235-7.28 2.777-3.82 4.014-8.162 3.764-11.989z"/><path d="M935.797 50.004c-2.047-3.24-5.603-6.02-10.094-7.48-4.491-1.46-8.996-1.298-12.556.12 2.047 3.242 5.594 6.026 10.085 7.485 4.492 1.46 9.004 1.295 12.565-.125z"/><path d="M913.104 66.49c2.45-2.948 3.996-7.19 3.995-11.911 0-4.721-1.545-8.956-3.995-11.904-2.45 2.947-4.002 7.181-4.002 11.904.001 4.722 1.553 8.963 4.002 11.91z"/><path d="M890.798 50.146c3.56 1.418 8.073 1.579 12.563.12 4.49-1.46 8.042-4.239 10.088-7.48-3.561-1.419-8.067-1.586-12.559-.126-4.492 1.459-8.045 4.245-10.092 7.486z"/></g><path fill="#fff" stroke="#000" stroke-width=".01" d="M945.297 52.222c4.939-15.2-2.615-18.275-6.371-17.477-3.778.802-7.513 2.104-11.268 3.158-13.496 3.397-13.711 6.271-5.123 15.769 2.418 3.06 4.669 6.316 7.255 9.187 2.57 2.855 10.701 4.157 15.507-10.637z"/><path d="M940.392 35.643c2.308.561 5.02 1.853 4.614 6.787-.124 2.418-2.182 4.896-3.295 8.717-1.346 3.747-1.136 6.961-2.459 8.989-2.571 4.229-5.525 3.68-7.541 2.837 1.651.724 4.604 1.272 7.177-2.955 1.322-2.029 1.114-5.243 2.459-8.99 1.113-3.822 3.17-6.298 3.295-8.717.406-4.932-2.308-6.224-4.25-6.668z"/><path fill="#3A6673" d="M939.702 35.42c2.307.563 5.021 1.854 4.614 6.787-.123 2.418-2.182 4.895-3.294 8.717-1.346 3.747-1.139 6.96-2.459 8.99-2.573 4.228-5.524 3.68-7.541 2.837 1.651.725 4.232.997 6.803-3.231 1.322-2.029-.061-5.42 1.284-9.166 1.113-3.821 4.271-5.891 4.395-8.31.405-4.933-1.858-6.181-3.802-6.624z"/><path fill="#fff" stroke="#000" stroke-width=".01" d="M914.035 75.032c15.981 0 16.572-8.135 14.652-11.46-1.933-3.346-4.324-6.493-6.487-9.739-7.401-11.786-10.202-11.104-16.579 0-2.163 3.245-4.564 6.394-6.495 9.739-1.919 3.325-.645 11.46 14.909 11.46z"/><path d="M928.287 65.242c.18 2.369-.211 5.348-5.028 6.488-2.339.628-5.331-.563-9.31-.439-3.979-.123-6.972 1.068-9.309.439-4.817-1.141-5.207-4.119-5.029-6.296-.179 1.795.212 4.773 5.029 5.912 2.337.63 5.33-.562 9.309-.439 3.979-.121 6.971 1.069 9.31.439 4.816-1.139 5.208-4.118 5.028-6.104z"/><path fill="#3A6673" d="M928.287 64.519c.18 2.367-.211 5.347-5.028 6.485-2.339.632-5.331-.562-9.31-.439-3.979-.123-6.972 1.07-9.309.439-4.817-1.139-5.207-4.118-5.029-6.293-.179 1.793.358 4.332 5.177 5.472 2.337.628 5.134-1.734 9.112-1.612 3.979-.122 6.923 2.242 9.26 1.612 4.817-1.14 5.307-3.678 5.127-5.664z"/><path fill="#fff" stroke="#000" stroke-width=".01" d="M882.148 53.15c4.94 15.2 12.857 13.246 15.427 10.391 2.584-2.87 4.84-6.118 7.256-9.177 8.923-10.683 7.406-13.132-5.123-15.767-3.755-1.054-7.49-2.365-11.27-3.166-3.752-.8-11.096 2.924-6.29 17.718z"/><path d="M895.861 63.677c-2.196.902-5.15 1.451-7.721-2.779-1.323-2.027-1.113-5.242-2.457-8.988-1.114-3.821-3.174-6.3-3.295-8.718-.406-4.932 2.306-6.225 4.432-6.726-1.762.382-4.472 1.675-4.067 6.609.123 2.418 2.18 4.896 3.294 8.717 1.346 3.747 1.136 6.96 2.457 8.988 2.572 4.23 5.526 3.68 7.357 2.897z"/><path fill="#3A6673" d="M896.552 63.452c-2.195.903-5.15 1.452-7.722-2.777-1.321-2.029-1.113-5.242-2.46-8.988-1.113-3.823-3.17-6.301-3.293-8.718-.405-4.934 2.306-6.227 4.432-6.73-1.76.384-4.01 1.68-3.605 6.615.124 2.416 3.235 4.346 4.349 8.169 1.345 3.744.007 7.275 1.329 9.304 2.57 4.231 5.137 3.911 6.97 3.125z"/><path fill="#fff" stroke="#000" stroke-width=".01" d="M894.057 15.954c-12.929 9.395-8.626 16.324-5.117 17.885 3.53 1.573 7.315 2.713 10.972 4.067 12.915 5.183 14.779 2.986 13.412-9.745-.158-3.896-.065-7.855-.469-11.697-.4-3.818-6.212-9.65-18.798-.51z"/><path d="M888.282 32.253c-1.538-1.811-2.973-4.45.255-8.202 1.52-1.885 4.643-2.68 7.79-5.117 3.29-2.242 5.01-4.962 7.272-5.827 4.567-1.91 6.633.272 7.768 2.137-.91-1.556-2.977-3.738-7.543-1.826-2.26.864-3.983 3.587-7.272 5.826-3.147 2.439-6.268 3.233-7.789 5.116-3.227 3.753-1.793 6.392-.481 7.893z"/><path fill="#3A6673" d="M888.708 32.84c-1.537-1.813-2.972-4.45.254-8.204 1.522-1.884 4.643-2.68 7.79-5.116 3.292-2.24 5.01-4.962 7.274-5.827 4.567-1.91 6.634.269 7.768 2.137-.91-1.558-2.837-3.295-7.405-1.386-2.262.864-3.135 4.421-6.425 6.661-3.147 2.437-6.918 2.256-8.439 4.14-3.226 3.753-2.128 6.093-.817 7.595z"/><path fill="#fff" stroke="#000" stroke-width=".01" d="M932.937 15.307c-12.93-9.396-18.188-3.16-18.59.66-.402 3.839-.32 7.792-.476 11.69-.937 13.888 1.728 14.98 13.414 9.746 3.657-1.354 7.45-2.492 10.978-4.06 3.507-1.563 7.258-8.893-5.326-18.036z"/><path d="M915.653 14.848c1.249-2.02 3.314-4.2 7.88-2.29 2.262.863 3.984 3.586 7.273 5.826 3.148 2.438 6.267 3.232 7.79 5.116 3.227 3.753 1.792 6.393.368 8.048 1.198-1.346 2.634-3.984-.594-7.74-1.523-1.882-4.644-2.677-7.789-5.113-3.291-2.241-5.011-4.963-7.274-5.83-4.565-1.91-6.632.272-7.654 1.983z"/><path fill="#3A6673" d="M915.227 15.434c1.248-2.02 3.314-4.2 7.882-2.291 2.261.866 3.982 3.587 7.271 5.827 3.147 2.438 6.27 3.232 7.789 5.115 3.23 3.753 1.794 6.393.37 8.05 1.2-1.347 2.258-3.717-.971-7.47-1.52-1.883-5.172-1.615-8.318-4.053-3.291-2.24-4.284-5.881-6.546-6.747-4.568-1.909-6.455-.142-7.477 1.57z"/><path fill="#3B8536" d="M902.573 28.143c2.819.717 5.658 2.631 7.765 5.529 2.105 2.897 3.045 6.187 2.856 9.088-2.819-.717-5.659-2.623-7.766-5.522-2.105-2.899-3.044-6.192-2.855-9.095z"/><path fill="#3B8536" d="M896.01 48.344c1.553-2.459 4.25-4.568 7.657-5.676s6.824-.984 9.527.092c-1.553 2.46-4.243 4.572-7.652 5.679-3.407 1.107-6.83.983-9.532-.095z"/><path fill="#3B8536" d="M913.194 60.83c-1.859-2.236-3.032-5.454-3.032-9.036 0-3.583 1.173-6.796 3.032-9.033 1.858 2.237 3.037 5.449 3.035 9.033 0 3.582-1.177 6.798-3.035 9.036z"/><path fill="#3B8536" d="M930.378 48.344c-2.701 1.077-6.123 1.197-9.531.091-3.407-1.107-6.101-3.214-7.652-5.675 2.701-1.076 6.119-1.204 9.527-.096 3.407 1.108 6.103 3.221 7.656 5.68z"/><path fill="#3B8536" d="M923.814 28.143c.189 2.901-.753 6.194-2.859 9.093-2.104 2.898-4.942 4.808-7.761 5.524-.189-2.901.745-6.191 2.853-9.091 2.105-2.897 4.948-4.808 7.767-5.526z"/><path fill="#D60000" stroke="#630000" stroke-width=".5" d="M925.151 47.451c2.373 3.942 1.915 8.689-1.178 10.933-3.095 2.258-7.742 1.211-10.754-2.243-3.027 3.454-7.675 4.501-10.77 2.243-3.094-2.243-3.551-6.99-1.18-10.933-4.221-1.785-6.66-5.894-5.466-9.542 1.18-3.635 5.55-5.532 10.034-4.501.409-4.584 3.552-8.151 7.381-8.151 3.813 0 6.972 3.552 7.381 8.134 4.485-1.014 8.839.884 10.034 4.519 1.178 3.647-1.243 7.756-5.482 9.541z"/><path fill="#EED706" stroke="#6B2910" stroke-width=".287" d="M917.852 39.052a5.728 5.728 0 1 1-9.27 6.734 5.73 5.73 0 0 1 9.27-6.734z"/></g></svg>