<svg xmlns="http://www.w3.org/2000/svg" xmlns:xlink="http://www.w3.org/1999/xlink" width="900" height="600"><path fill="#7daed7" d="M0 0h900v600H0z"/><path d="M450 0v600M0 300h900" stroke="#fff" stroke-width="220"/><path d="M450 0v600M0 300h900" stroke="#006e39" stroke-width="190"/><g id="a" fill="#fc0"><path d="M450 245.735h.976l.976-.081.894-.162.895-.244.894-.244.813-.326.895-.406.813-.488.813-.488.894-.569.895-.732.894-.732.895-.813.976-.895.975-.975 1.057-1.057 1.058-1.058 1.138-.894 1.057-.813 1.057-.732.976-.569 1.057-.488.976-.325.894-.244.976-.163.813-.081.813.081.814.163.731.325.651.325.65.488.57.569.732.895.569 1.057.406 1.22.326 1.219.244 1.383.081 1.545-.081 1.545-.163 1.707-.325 1.708-.488 1.87-.651 1.87-.732 1.871-.975 2.033-1.058 2.033-1.219 2.032-1.464 2.115-6.017 8.456 3.171 2.277 5.936-8.213 1.952-2.764 1.707-2.684 1.545-2.602 1.383-2.602 1.138-2.439.895-2.44.731-2.277.407-2.277.244-2.114v-2.114l-.244-1.952-.407-1.951-.731-1.789-.976-1.708-1.301-1.707-1.464-1.545-.813-.813-.895-.732-.975-.813-1.139-.814-1.22-.731-1.382-.814-1.464-.731-1.707-.651-1.87-.65-2.115-.57-2.358-.569-2.683-.406-2.846-.407-3.172-.244-3.496-.163-3.822-.081-3.822.081-3.496.163-3.172.244-2.846.407-2.602.406-2.358.569-2.114.57-1.87.65-1.708.651-1.545.731-1.382.814-1.22.731-1.057.814-1.057.813-.895.732-.813.813-1.464 1.545-1.301 1.707-.976 1.708-.65 1.789-.488 1.951-.244 1.952v2.114l.244 2.114.488 2.277.65 2.277.976 2.44 1.057 2.439 1.383 2.602 1.545 2.602 1.707 2.684 1.952 2.764 5.936 8.213 3.253-2.277-6.099-8.456-1.464-2.115-1.219-2.032-1.058-2.033-.975-2.033-.732-1.871-.651-1.87-.488-1.87-.325-1.708-.163-1.707-.081-1.545.081-1.545.244-1.383.326-1.219.406-1.22.651-1.057.65-.895.57-.569.65-.488.651-.325.731-.325.814-.163.813-.081.813.081.976.163.894.244.976.325 1.057.488.976.569 1.057.732 1.057.813 1.138.894 1.058 1.058 1.057 1.057.975.975.976.895.895.813.894.732.895.732.894.569.813.488.813.488.895.406.813.326.894.244.895.244.894.162.976.081H450zm.244 121.242l.081 1.382.326 1.301.406 1.301.569 1.301.732 1.301.813 1.383 1.057 1.382 1.139 1.464.325.406.163.326.162.325.082.325-.082.325-.081.326-.081.325-.244.325-.569.813-.57.814-.569.731-.65.732-.732.732-.813.732-.814.732-.894.732-.894-.732-.814-.732-.813-.732-.732-.732-.65-.732-.569-.731-.57-.814-.569-.813-.244-.325-.081-.325-.081-.326-.082-.325.082-.325.162-.325.163-.326.325-.406 1.139-1.464 1.057-1.382.894-1.383.732-1.301.488-1.301.488-1.301.244-1.301.081-1.382h.488z"/><path d="M467.889 275.416l-.813-.732-.732-.732-.569-.813-.488-.976-.406-1.057-.326-1.22-.325-1.464-.244-1.545-.325-1.626-.407-1.382-.569-1.139-.732-.894-.731-.651-.814-.487-.813-.163-.894.081-.651.163-.569.325-.65.407-.57.488-.488.569-.569.65-.488.732-.488.813-.406.895-.407.976-.325 1.057-.244 1.138-.244 1.138-.163 1.302-.162 1.382v1.382l-.081 5.855-2.196-.081v-7.481l.163-1.789.162-1.708.163-1.626.325-1.464.407-1.382.406-1.301.57-1.139.569-1.057.732-.976.731-.813.814-.732.975-.569 1.057-.488 1.058-.325 1.219-.244.651-.081.65-.082h1.464l.813.082.813.081.976.163.976.244 1.057.325 1.138.406 1.22.57 1.383.65 1.382.732 1.545.976 1.626 1.057 1.789 1.22 1.708 1.301 1.545 1.219 1.382 1.139 1.139 1.138 1.057 1.057.894 1.057.732.895.65.976.57.894.406.813.407.814.244.731.244.732.244.651.081.65.163.651.162 1.219v1.139l-.162 1.138-.244 1.057-.407 1.058-.569.975-.651.895-.813.894-.976.895-1.057.813-1.219.732-1.301.813-1.464.65-1.545.732-1.708.569-1.789.651-5.367 1.789-.731-2.114 5.529-1.789 2.602-1.057 2.196-1.139 1.87-1.301 1.545-1.301 1.22-1.464.813-1.382.406-1.382.082-1.301-.163-.813-.406-.814-.651-.569-.894-.569-1.058-.325-1.301-.163h-1.463l-1.627.163-1.545.244-1.463.162-1.22.082-1.138-.082-1.058-.162-.975-.244-.976-.488-.895-.569zm-17.726-13.011l.081-.732.081-.732.244-.731.325-.732.407-.732.488-.732.569-.813.651-.813.244-.407.162-.406-.081-.326-.163-.406-.325-.407-.325-.406-.325-.488-.326-.407-.406-.406-.488-.407-.488-.407-.488-.406-.488.406-.488.407-.406.407-.407.406-.407.407-.325.488-.325.406-.325.407-.163.406-.081.326.162.406.244.407.651.813.569.813.488.732.407.732.325.732.244.731.162.732.082.732h.244z"/></g><use xlink:href="#a" transform="rotate(72 450 300)"/><use xlink:href="#a" transform="rotate(144 450 300)"/><use xlink:href="#a" transform="rotate(216 450 300)"/><use xlink:href="#a" transform="rotate(288 450 300)"/><circle cx="450" cy="300" r="24" fill="#fc0"/></svg>