<svg xmlns="http://www.w3.org/2000/svg" xmlns:xlink="http://www.w3.org/1999/xlink" width="429" height="260"><path d="M0 0h429v260H0z" fill="red"/><use height="100%" width="100%" xlink:href="#a" x="-120" transform="matrix(.95 0 0 .95 -15.259 6.62)"/><g id="a"><path d="M179.125 32.8l4.667-3.333s1.666-5.917 5.75-5.917c4.083 0 10.833 2.75 10.833 6.917v10s.75 5.25 8.084 6c7.333.75 29.249 2.5 29.249 2.5l-16.333 11.75 28.167 12.667-16.5 2.417 5.583 12.667s-24.916-15.167-25.583-15.25c.083 2.583.083 6.333.083 6.333l-6.583-4.5-4.25 6.5-2.25-14.75s-1.25.583-1.167 1.583c.084 1 1.25 9 1.25 9l-5.75-5.5-3.5 3.25-.083-7.667 3.917-.167s-13.667-9.5-14.334-15.5c-.644-5.798-.307-3.751 0-5.833.305-2.063 3.334-6 3.5-6.417.167-.417.584-1.25-.25-2.25-.833-1-4.5-4.5-4.5-4.5z" stroke-miterlimit="10" fill="#fcc917" stroke="#000" transform="matrix(.95 0 0 .95 10.741 78.82)"/><path d="M190.625 43.8s-9.583 9.298 16.25 18.167c7.373 2.531 27.095-.739 34-1.417 0 0-33.6-10.116-39.258-17.433" stroke-miterlimit="10" fill="#fcc917" stroke="#000" stroke-linecap="square" transform="matrix(.95 0 0 .95 10.741 78.82)"/><path d="M198.625 45.966c3.993 2.171 7.84 4.466 11.794 6.551a82.911 82.911 0 0 0 6.001 2.933c2.047.865 4.125 1.654 6.371 2.016-2.282.267-4.605-.235-6.779-.919-2.191-.693-4.276-1.651-6.296-2.706a55.975 55.975 0 0 1-5.805-3.58c-1.856-1.307-3.649-2.709-5.286-4.295zm-2.417 1.25a103.884 103.884 0 0 0 4.89 3.82c1.664 1.199 3.351 2.348 5.117 3.352 3.515 2.044 7.272 3.58 11.409 4.245-2.085.283-4.242.058-6.295-.487-2.063-.536-4.023-1.411-5.864-2.46a30.389 30.389 0 0 1-5.103-3.745c-1.556-1.416-2.997-2.967-4.154-4.725zm-3.083 1.917a63.523 63.523 0 0 0 4.433 3.858c1.529 1.19 3.099 2.313 4.758 3.276a32.436 32.436 0 0 0 5.173 2.499c1.802.676 3.678 1.165 5.637 1.535-1.979.256-4.024.081-5.984-.417-1.967-.486-3.843-1.309-5.588-2.326a24.944 24.944 0 0 1-4.767-3.693c-1.424-1.412-2.712-2.972-3.662-4.732zm20 20.385l18.167.865-18.167.865.864-.84.053 2.838-2-.059.218-2.83.068-.877zm-30.417-36.135c.665-.398 1.406-.399 2.101-.206.343.114.684.28.961.543.277.254.499.603.521.996-.362-.146-.646-.24-.931-.331l-.846-.253c-.568-.188-1.151-.358-1.806-.749zm10.979-2.979s-3.25-1.146-6.625-.729c1.5-1.209 3.75-3.334 6.625.729z" transform="matrix(.95 0 0 .95 10.741 78.82)"/></g><use height="100%" width="100%" xlink:href="#a" x="120" transform="matrix(.95 0 0 .95 36.741 6.62)"/><g transform="translate(-2)"><use transform="matrix(.95 0 0 .95 -.259 -23.63)" y="75" x="-60" xlink:href="#a" width="100%" height="100%"/><use transform="matrix(.95 0 0 .95 31.741 -23.63)" y="75" x="60" xlink:href="#a" width="100%" height="100%"/></g><use height="100%" width="100%" xlink:href="#a" y="150" transform="matrix(.95 0 0 .95 10.741 -53.88)"/><path style="line-height:normal;text-indent:0;text-align:start;text-decoration-line:none;text-decoration-style:solid;text-decoration-color:#000;text-transform:none;block-progression:tb;isolation:auto;mix-blend-mode:normal" d="M2.148 67.734s-.91.012-2.148.047v13.031c1.224-.048 2.161-.075 2.18-.076.053.001 7.357.11 12.345 1.06 14.558 2.775 28.71 7.781 43.725 10.528 6.887 1.26 14.695 1.281 14.695 1.281l.07.002.07-.002s7.81-.02 14.696-1.28c15.015-2.748 29.168-7.754 43.725-10.528 4.989-.95 12.292-1.06 12.346-1.06.056 0 7.356.11 12.343 1.06 14.558 2.774 28.71 7.78 43.725 10.527 6.887 1.26 14.697 1.281 14.697 1.281l.069.002.07-.002s7.81-.02 14.697-1.28c15.015-2.748 29.167-7.754 43.725-10.528 4.987-.95 12.287-1.06 12.343-1.06.057 0 7.357.11 12.344 1.06 14.558 2.774 28.712 7.78 43.727 10.527 6.887 1.26 14.695 1.281 14.695 1.281l.07.002.07-.002s7.81-.02 14.696-1.28c15.014-2.748 29.167-7.754 43.725-10.528 4.987-.95 12.287-1.06 12.343-1.06.016 0 .774.02 1.809.058V67.768c-1.05-.027-1.775-.034-1.775-.034h-.065s-7.803-.032-14.746 1.291c-15.804 3.012-30.006 8.02-43.63 10.512-5.039.922-12.308 1.064-12.427 1.067-.118-.003-7.387-.145-12.425-1.067-13.626-2.493-27.827-7.5-43.631-10.512-6.943-1.323-14.746-1.29-14.746-1.29h-.067s-7.801-.033-14.744 1.29c-15.804 3.012-30.006 8.02-43.63 10.512-5.04.922-12.313 1.064-12.428 1.067-.119-.003-7.388-.145-12.426-1.067-13.625-2.493-27.827-7.5-43.631-10.512-6.943-1.323-14.746-1.29-14.746-1.29h-.065s-7.803-.033-14.746 1.29c-15.804 3.012-30.005 8.02-43.63 10.512-5.039.922-12.308 1.064-12.426 1.067-.119-.003-7.388-.145-12.426-1.067-13.625-2.493-27.827-7.5-43.631-10.512-6.943-1.323-14.746-1.29-14.746-1.29h-.065z" color="#000" font-weight="400" font-family="sans-serif" white-space="normal" overflow="visible" fill="#fff" fill-rule="evenodd"/><path d="M180.983 57.73l-1.048-11.516c4.743-6.51 23.545-8.099 34.565-8.706 11.02.607 29.822 2.197 34.565 8.706l-1.048 11.516z" fill="#fcc917" fill-rule="evenodd" stroke="#000" stroke-width=".95"/><g transform="translate(-.378)" stroke="#000"><path d="M215.018 19.663l-1.837-2.82h3.148z" fill-rule="evenodd"/><path d="M220.102 15.17c2.137.05 3.87 1.733 3.871 3.87a3.872 3.872 0 0 1-3.87 3.874 3.872 3.872 0 0 1-2.548-.963c.772 6.38 2.37 10.7 6.033 13.717a3.937 3.937 0 0 1 1.223 2.837 3.872 3.872 0 0 1-3.871 3.873 5.49 5.49 0 0 1-2.645-.689c.29.781.516 1.428.516 2.19 0 2.137-1.734 3.87-3.933 3.87s-3.933-1.733-3.933-3.87c0-.762.225-1.409.515-2.19a5.49 5.49 0 0 1-2.644.69 3.872 3.872 0 0 1-3.871-3.874c0-1.072.447-2.096 1.222-2.837 3.663-3.017 5.262-7.338 6.034-13.717-.705.618-1.61.96-2.547.963a3.872 3.872 0 0 1-3.871-3.873c0-2.138 1.734-3.821 3.87-3.871 2.27-.054 3.23 1.62 5.225 4.197 1.996-2.578 2.955-4.25 5.224-4.197z" fill="#fcc917" stroke-width=".95"/><circle cx="214.878" cy="13.715" r="3.582" fill="#fcc917" stroke-width=".95"/><circle r="1.769" cy="13.715" cx="214.878" fill="none" stroke-width=".7"/><g transform="translate(-.035)" fill="none" stroke-width=".5"><circle r="1.333" cy="38.558" cx="208.913"/><circle cx="220.913" cy="38.558" r="1.333"/></g><circle cx="214.878" cy="43.93" r="1.333" fill="none" stroke-width=".5"/></g><g transform="translate(-.365)"><path d="M258.338 21.42c-3.812 3.943-3.735 9.727-4.777 14.982l-1.652-14.45z" fill-rule="evenodd"/><path d="M248.675 53.072c-2.155-.438-3.509-2.48-3.084-4.576.152-.746.5-1.336.94-2.043a5.49 5.49 0 0 1-2.728.15 3.872 3.872 0 0 1-3.023-4.566 3.937 3.937 0 0 1 1.762-2.538c4.19-2.228 6.617-6.144 8.642-12.243a3.872 3.872 0 0 1-2.688.437 3.872 3.872 0 0 1-3.023-4.565c.426-2.095 2.46-3.4 4.564-3.024 4.056 1.618 4.126 7.357 3.994 11.162-.125 3.584-1.766 18.618-5.356 21.806z" fill="#fcc917" stroke="#000" stroke-width=".95"/><circle transform="rotate(11.474)" cx="254.263" cy="-31.492" r="3.582" fill="#fcc917" stroke="#000" stroke-width=".95"/><circle transform="rotate(11.474)" r="1.769" cy="-31.492" cx="254.263" fill="none" stroke="#000" stroke-width=".7"/><circle transform="rotate(11.474)" cx="248.263" cy="-6.649" r="1.333" fill="none" stroke="#000" stroke-width=".5"/><circle transform="rotate(11.474)" cx="254.263" cy="-1.277" r="1.333" fill="none" stroke="#000" stroke-width=".5"/></g><g transform="matrix(-1 0 0 1 429.365 0)"><path d="M258.338 21.42c-3.812 3.943-3.735 9.727-4.777 14.982l-1.652-14.45z" fill-rule="evenodd"/><path d="M248.675 53.072c-2.155-.438-3.509-2.48-3.084-4.576.152-.746.5-1.336.94-2.043a5.49 5.49 0 0 1-2.728.15 3.872 3.872 0 0 1-3.023-4.566 3.937 3.937 0 0 1 1.762-2.538c4.19-2.228 6.617-6.144 8.642-12.243a3.872 3.872 0 0 1-2.688.437 3.872 3.872 0 0 1-3.023-4.565c.426-2.095 2.46-3.4 4.564-3.024 4.056 1.618 4.126 7.357 3.994 11.162-.125 3.584-1.766 18.618-5.356 21.806z" fill="#fcc917" stroke="#000" stroke-width=".95"/><circle r="3.582" cy="-31.492" cx="254.263" transform="rotate(11.474)" fill="#fcc917" stroke="#000" stroke-width=".95"/><circle cx="254.263" cy="-31.492" r="1.769" transform="rotate(11.474)" fill="none" stroke="#000" stroke-width=".7"/><circle r="1.333" cy="-6.649" cx="248.263" transform="rotate(11.474)" fill="none" stroke="#000" stroke-width=".5"/><circle r="1.333" cy="-1.277" cx="254.263" transform="rotate(11.474)" fill="none" stroke="#000" stroke-width=".5"/></g><ellipse ry="6.998" rx="32.787" cy="57.245" cx="214.5" fill="#fcc917" stroke="#000" stroke-width=".5"/><path d="M214.5 50.246a32.787 6.998 0 0 0-32.787 7 32.787 6.998 0 0 0 7.172 4.365 27.227 5.944 0 0 1-1.612-1.996 27.227 5.944 0 0 1 27.227-5.943 27.227 5.944 0 0 1 27.227 5.943 27.227 5.944 0 0 1-1.598 1.985 32.787 6.998 0 0 0 7.158-4.354 32.787 6.998 0 0 0-32.787-7z"/><path d="M214.499 49.424a33.63 7.82 0 0 0-33.629 7.82 33.63 7.82 0 0 0 33.629 7.822 33.63 7.82 0 0 0 33.63-7.822 33.63 7.82 0 0 0-33.63-7.82zm0 2.54a29.72 5.28 0 0 1 29.72 5.28 29.72 5.28 0 0 1-29.72 5.28 29.72 5.28 0 0 1-29.719-5.28 29.72 5.28 0 0 1 29.719-5.28z" fill="#fcc917" stroke="#000" stroke-width=".95"/></svg>