<svg xmlns="http://www.w3.org/2000/svg" xmlns:xlink="http://www.w3.org/1999/xlink" version="1" width="450" height="300"><defs><radialGradient cx="416.133" cy="119.931" r="24.143" fx="416.133" fy="119.931" id="b" xlink:href="#a" gradientUnits="userSpaceOnUse" gradientTransform="matrix(.7965 0 0 2.9782 84.683 -237.25)"/><linearGradient id="a"><stop offset="0" stop-color="#1a472b"/><stop offset="1" stop-color="#337321"/></linearGradient></defs><path fill="#cf142b" d="M0 0h450v150H0z"/><path fill="#fcc917" d="M0 150h450v150H0z"/><g transform="matrix(.625 0 0 -.625 37.502 318.748)"><g transform="matrix(.77098 0 0 -.77098 -20.827 287.029)" id="e" fill="#337321"><path d="M416.113 48.028c-11.78 17.8-19.213 43.41-19.213 71.924 0 28.513 7.434 54.083 19.214 71.883 11.783-17.8 19.245-43.365 19.245-71.883 0-28.519-7.462-54.124-19.245-71.924z" id="c" fill="url(#b)" fill-rule="evenodd" stroke-width="1.727"/><use transform="rotate(72 414.86 191.572)" width="600" height="300" xlink:href="#c"/><use transform="rotate(-72 417.395 191.556)" width="600" height="300" xlink:href="#c"/><use transform="rotate(-144 415.923 191.487)" width="600" height="300" xlink:href="#c"/><use transform="rotate(144 416.317 191.494)" width="600" height="300" xlink:href="#c"/></g><g transform="matrix(.77098 0 0 -.77098 -22.957 286.524)" id="f"><g id="d" fill-rule="evenodd"><path d="M419.19 303.531c55.127 0 57.162-28.06 50.54-39.531-6.664-11.54-14.913-22.4-22.376-33.594-25.533-40.656-35.19-38.298-57.187 0C382.704 241.6 374.423 252.46 367.76 264c-6.622 11.47-2.23 39.531 51.43 39.531z" fill="#cf142b" stroke="#000" stroke-width=".125"/><g fill="#fff" stroke-width=".375"><path d="M468.088 269.764c.617 8.17-.73 18.443-17.347 22.373-8.064 2.174-18.385-1.937-32.11-1.516-13.724-.421-24.046 3.69-32.11 1.516-16.616-3.93-17.964-14.203-17.346-21.713-.618 6.189.73 16.462 17.346 20.392 8.064 2.174 18.386-1.937 32.11-1.516 13.725-.421 24.046 3.69 32.11 1.516 16.617-3.93 17.964-14.203 17.347-21.052z" fill="#000" transform="translate(.26)"/><path d="M468.088 267.264c.617 8.17-.73 18.443-17.347 22.373-8.064 2.174-18.385-1.937-32.11-1.516-13.724-.421-24.046 3.69-32.11 1.516-16.616-3.93-17.964-14.203-17.346-21.713-.618 6.189 1.235 14.946 17.852 18.876 8.064 2.174 17.711-5.979 31.436-5.558 13.724-.42 23.877 7.732 31.941 5.558 16.617-3.93 18.301-12.687 17.684-19.536z" fill="#87212e" transform="translate(.26)"/></g></g><use transform="rotate(72 418.83 189.797)" width="600" height="300" xlink:href="#d" fill="#144d29"/><use transform="rotate(-72 418.036 189.48)" width="600" height="300" xlink:href="#d"/><use transform="rotate(144 418.872 189.453)" width="600" height="300" xlink:href="#d"/><use transform="rotate(-144 419.14 189.254)" width="600" height="300" xlink:href="#d"/></g><use transform="matrix(.4919 0 0 -.4919 152.43 209.5)" width="600" height="300" xlink:href="#e"/><use transform="matrix(.558 0 0 -.558 132.599 218.07)" width="600" height="300" xlink:href="#f"/><g fill="#f7e017" stroke="#000" fill-rule="evenodd"><g stroke-width="1.244"><path d="M300.857 121.212a3.096 3.096 0 1 1-6.191 0 3.096 3.096 0 1 1 6.191 0zm14.798 31.879a3.096 3.096 0 1 1-6.191 0 3.096 3.096 0 1 1 6.191 0z"/><path d="M310.266 156.288a3.096 3.096 0 1 1-6.191 0 3.096 3.096 0 1 1 6.191 0zm-6.303 1.462a3.096 3.096 0 1 1-6.191 0 3.096 3.096 0 1 1 6.191 0zm-6.759-1.279a3.096 3.096 0 1 1-6.192 0 3.096 3.096 0 1 1 6.192 0z"/><path d="M291.632 153.73a3.096 3.096 0 1 1-6.192 0 3.096 3.096 0 1 1 6.192 0z"/><path d="M287.338 149.255a3.096 3.096 0 1 1-6.191 0 3.096 3.096 0 1 1 6.191 0z"/><path d="M285.237 143.683a3.096 3.096 0 1 1-6.191 0 3.096 3.096 0 1 1 6.191 0z"/><path d="M284.78 137.745a3.096 3.096 0 1 1-6.19 0 3.096 3.096 0 1 1 6.19 0zm1.828-6.485a3.096 3.096 0 1 1-6.192 0 3.096 3.096 0 1 1 6.192 0zm3.836-5.024a3.096 3.096 0 1 1-6.191 0 3.096 3.096 0 1 1 6.191 0z"/><path d="M295.194 122.49a3.096 3.096 0 1 1-6.191 0 3.096 3.096 0 1 1 6.191 0zm11.966-1.278a3.096 3.096 0 1 1-6.191 0 3.096 3.096 0 1 1 6.191 0zm12.332 26.764a3.096 3.096 0 1 1-6.191 0 3.096 3.096 0 1 1 6.191 0zm1.918-6.303a3.096 3.096 0 1 1-6.191 0 3.096 3.096 0 1 1 6.191 0z"/><path d="M321.228 135.462a3.096 3.096 0 1 1-6.192 0 3.096 3.096 0 1 1 6.192 0zm-3.106-6.395a3.096 3.096 0 1 1-6.192 0 3.096 3.096 0 1 1 6.192 0zm-4.932-4.841a3.096 3.096 0 1 1-6.192 0 3.096 3.096 0 1 1 6.191 0z"/></g><path d="M314.786 139.471c0 8.176-6.627 14.803-14.802 14.803s-14.802-6.627-14.802-14.803c0-8.175 6.627-14.802 14.802-14.802s14.802 6.627 14.802 14.802z" stroke-width="1.028"/><path d="M307.255 139.471a7.271 7.271 0 1 1-14.543 0 7.271 7.271 0 0 1 14.543 0z" stroke-width="1.028"/><g stroke="none"><path d="M305.709 144.745c.809-1.25 1.406-2.67 1.406-4.27 0-4.417-3.591-7.982-8.01-7.982-2.002 0-3.767.798-5.17 2.016 1.426-2.202 3.786-3.74 6.603-3.74 4.418 0 8.009 3.591 8.009 8.01 0 2.414-1.145 4.498-2.838 5.966z" fill="#000"/><path d="M300.26 143.861a2.01 2.01 0 1 0-4.019 0 2.01 2.01 0 0 0 4.02 0z" fill="#fff"/></g></g></g><g stroke="#000"><path d="M219.678 54.532c-1.932.058-4.191.383-6.566.862-3.53.068-7.486.716-12.105 3.276-.022.012-.046.015-.068.027a182.532 182.532 0 0 0-6.134 2.09h-.013c-5.635-1.8-21.74-5.23-23.2 13.79-.01.118.037.31.134.553v.014c-.537 2.99.593 8.237.593 8.237.67.48 1.152 1.534 1.28 1.874.002.005 0 .02 0 .027.01.38-1.36 1.891-1.118 2.52.001.003.012.011.013.014.005.01.008.03.014.04.001.003.012.011.013.014.004.005.01.022.014.027l.013.013.014.014.013.013c.007.007.02.008.027.014.484.367.908 1.924 1.24 3.29.003.008-.002.018 0 .026 0 .005.002.008 0 .014-.103.522-.067.98.23 1.294.044.047.08.094.121.148.378 1.684 4.18 17.786 3.963 18.644-.214.861 1.29 1.942 2.656 2.373.16.05.542.102 1.133.148.019.007.034.007.053.014 8.066 2.848 14.995.962 29.955.31 3.905-.034 8.086-.085 12.497-.162h.162c.094-.002.19.001.283 0 4.41.077 8.591.128 12.496.162 14.96.652 21.89 2.538 29.955-.31.018-.002.036-.013.054-.014.59-.046.973-.098 1.132-.148 1.366-.43 2.87-1.512 2.656-2.373-.217-.858.283-4.226.283-5.446 0-1.22.86-2.649 1.362-3.222.147-.17.324-.532.485-.984.704.26 1.61.745 1.9.768h.068c.003-.001.012-.011.014-.013v-.014c0-.003.013-.01.013-.013v-.014c0-.006-.011-.02-.013-.027-.002-.004.002-.021 0-.027l-.014-.013c-.073-.149-.321-.44-.822-.93a.722.722 0 0 1-.014-.014c-.606-.71.323-7.011.702-8.695.041-.054.076-.1.12-.148.297-.315.334-.772.23-1.294v-.014c-.002-.01.002-.016 0-.027.332-1.365.756-2.922 1.24-3.29.008-.005.02-.006.027-.013l.014-.013.013-.014.014-.013.013-.027.014-.014a.454.454 0 0 0 .027-.053c.24-.63-1.13-2.142-1.12-2.521.002-.01.011-.02.014-.027.129-.34.598-1.394 1.267-1.874 0 0 1.13-5.248.594-8.237v-.014c.097-.242.143-.435.134-.552-1.46-19.021-17.566-15.59-23.2-13.791-.004-.002-.01.001-.014 0a182.528 182.528 0 0 0-6.134-2.09l-.054-.027c-4.619-2.562-8.575-3.207-12.105-3.276-4.274-.863-8.182-1.223-10.462-.43-.368.127-.745.235-1.118.323-.37-.088-.741-.197-1.106-.324-1.013-.352-2.337-.478-3.882-.431z" font-size="12" fill="#cf142b" stroke-width=".703"/><g fill-rule="evenodd"><path d="M195.798 69.861c-1.149.41-2.303 10.272-1.312 13.455.686 2.203 1.513 3.691 1.99 4.607-.988-1.524-3.225-4.443-5.755-4.216-3.18.286-2.337 10.517-2.178 11.166l.002.011c0 .002.008.009.008.01h.008c.112-.257.88-4.586 4.026-4.869 2.071-.185 3.98 2.065 4.698 3.031.04.322.083.632.124.947-.348 1.004-.365 3.313-1.451 6.314-1.313 3.627-6.599 4.461-7.49 4.577l11.53-1.035c.01-.001.025-.001.036-.003l.014-.002 11.566-1.038c-.9.046-2.541-2.188-7.726-3.545-2.855-2.417-3.086-4.6-3.671-5.52-.037-.315-.07-.626-.11-.948.467-1.073 1.786-3.613 3.857-3.799 3.146-.282 4.952 3.817 5.124 4.047h.008l.006-.012-.002-.01c-.002-.663-1.668-10.821-4.849-10.536-2.53.227-4.007 3.48-4.603 5.146.244-.981.64-3.01.749-4.854.197-3.34-3.356-13.033-4.541-12.93-.019.003-.04 0-.058.006zm.716 18.123c.102.16.192.297.264.418.002.002.251 1.002.253 1.004.002.022 1.038 3.413 1.04 3.434-.078-.127-1.453-4.658-1.557-4.856zm3.113-.279c-.054.211-.347 4.892-.392 5.031-.003-.022.24-4.544.236-4.565l.022 1.014c.041-.13.072-1.306.134-1.48zm54.308-17.265c-1.208.162-4.388 9.57-4.08 12.889.213 2.297.712 3.925.989 4.92-.65-1.696-2.232-5.016-4.753-5.32-3.17-.382-4.473 9.801-4.452 10.47l-.001.01.006.011s.007.002.008.001c.163-.227 1.815-4.302 4.95-3.924 2.065.249 3.464 2.846 3.965 3.941-.028.323-.05.636-.075.951-.55.91-2.7 4.465-5.923 5.757-3.58 1.435-4.192 3.11-5.087 3.038l11.492 1.385c.011.001.026.004.037.004.005.001.01 0 .014.002l.036.004 11.493 1.385c-.89-.143-3.492-1.452-6.167-4.372-2.366-2.584-2.716-5.843-3.097-6.865.03-.315.063-.627.09-.95.68-.952 2.499-3.162 4.563-2.913 3.136.378 4.05 4.762 4.17 5.023l.008.001c0-.001.008-.008.008-.01l.001-.01c.136-.65.618-10.932-2.553-11.314-2.521-.304-4.642 2.57-5.572 4.076.442-.909 1.251-2.81 1.741-4.591.888-3.227-.572-13.447-1.753-13.591-.019-.003-.039-.01-.058-.007zm-3.068 17.877c.067.177.127.33.172.463l.038 1.035c-.002.022.306 3.554.304 3.575-.05-.14-.453-4.859-.514-5.073zm3.104.374c-.097.195-1.357 4.713-1.43 4.84.002-.022 1.179-4.395 1.18-4.417l-.19.997c.068-.12.343-1.262.44-1.42z" fill="#f7e017" stroke-width=".351"/><g fill="#f7e017"><path d="m174.66 86.791 4.539-5.533s.423.547 0 0c-9.305-12.03-9.776-18.93-8.728-22.425 1.047-3.495 3.142-7.28 8.728-11.94 5.586-4.66 9.44-2.07 14.678-2.07 5.237 0 6.633 1.164 11.172 1.747 4.538.582 16.758 1.165 16.758 1.165V44.53s.482.09 0 0c-5.395-1.006-12.22 0-16.758-1.165-4.539-1.165-8.38-1.456-13.267-1.456-4.888 0-8.394-1.425-11.536.614-3.142 2.039-6.982 5.533-9.775 8.446-2.793 2.912-4.19 8.737-3.84 12.523.348 3.786 1.745 6.99 3.84 9.902 2.094 2.912 1.745 5.242 2.443 7.28.699 2.039 1.746 6.407 1.746 6.116zm100.68 0-4.539-5.533s-.423.547 0 0c9.305-12.03 9.776-18.93 8.728-22.425-1.047-3.495-3.142-7.28-8.728-11.94-5.586-4.66-9.44-2.07-14.678-2.07-5.237 0-6.633 1.164-11.172 1.747-4.539.582-16.758 1.165-16.758 1.165V44.53s-.482.09 0 0c5.395-1.006 12.22 0 16.758-1.165 4.539-1.165 8.38-1.456 13.267-1.456 4.888 0 8.394-1.425 11.536.614 3.142 2.039 6.982 5.533 9.775 8.446 2.793 2.912 4.19 8.737 3.84 12.523-.348 3.786-1.745 6.99-3.84 9.902-2.094 2.912-1.745 5.242-2.444 7.28-.698 2.039-1.745 6.407-1.745 6.116z" stroke-width=".335"/><path stroke-width=".391" d="M217.399 41.892h16.189v33.206h-16.19z"/><path d="M219.334 12.617s1.742 1.418 3.08 3.242c1.337 1.824 2.269 4.053 2.269 4.053s-2.229-.932-4.053-2.27c-1.823-1.337-3.242-3.08-3.242-3.08v12.32s1.419-1.742 3.242-3.08c1.824-1.337 4.053-2.27 4.053-2.27s-.718 1.84-1.182 4.053c-.417 1.991-3.833 6.588-3.833 6.588l9.978.67s-1.659-5.267-2.327-7.258c-.72-2.144-1.015-4.052-1.015-4.052s2.229.932 4.053 2.27c1.823 1.337 3.242 3.08 3.242 3.08v-12.32s-1.419 1.742-3.242 3.08c-1.824 1.337-4.053 2.269-4.053 2.269s.932-2.23 2.27-4.053c1.337-1.824 3.08-3.242 3.08-3.242h-12.32z" stroke-width=".234"/><path d="M233.523 34.573a8.03 8.03 0 1 1-16.059 0 8.03 8.03 0 1 1 16.06 0z" stroke-width=".351"/><path d="M217.643 35.725h15.973s.231-3.09-.925-4.246h-4.962l-.084-4.631h-4.703l-.084 4.631s-3.338.167-4.876.167c-.698 1.893-.59 2.052-.59 2.052l.25 2.027z" stroke-width=".234"/><path d="M215.208 73.986s2.91 2.368 5.143 5.413c2.233 3.045 3.79 6.767 3.79 6.767s-3.722-1.557-6.767-3.79c-3.045-2.233-5.413-5.142-5.413-5.142v20.57s2.368-2.91 5.413-5.143c3.045-2.233 6.766-3.789 6.766-3.789s-1.556 3.722-3.789 6.767c-2.233 3.045-5.143 5.413-5.143 5.413h20.57s-2.909-2.368-5.142-5.413c-2.233-3.045-3.79-6.767-3.79-6.767s3.722 1.556 6.767 3.79c3.045 2.232 5.414 5.142 5.414 5.142v-20.57s-2.369 2.91-5.414 5.142c-3.045 2.233-6.766 3.79-6.766 3.79s1.556-3.722 3.79-6.767c2.232-3.045 5.142-5.413 5.142-5.413h-20.57zm-39.174 34.923 10.129-1.786s-3.277-1.827-6.005-4.438c-2.728-2.611-4.906-6.006-4.906-6.006s3.935.887 7.321 2.557c3.387 1.67 6.224 4.124 6.224 4.124l-3.572-20.257s-1.827 3.276-4.438 6.004c-2.61 2.728-6.005 4.907-6.005 4.907s.886-3.936 2.556-7.322 4.125-6.224 4.125-6.224l-10.13 1.786 4.7 26.655zm93.49-28.441s2.455 2.838 4.125 6.224 2.557 7.322 2.557 7.322-3.395-2.18-6.006-4.907c-2.611-2.728-4.438-6.004-4.438-6.004l-3.572 20.257s2.837-2.454 6.224-4.124c3.386-1.67 7.322-2.557 7.322-2.557s-2.18 3.395-4.907 6.006c-2.728 2.61-6.004 4.438-6.004 4.438l10.128 1.786 4.7-26.655-10.129-1.786z" stroke-width=".351"/></g><path d="m176.138 107.856.07 14.758s24.66-8.398 49.32-8.398 49.32 8.398 49.32 8.398v-14.758s-24.677-8.397-49.354-8.397c-24.678 0-49.356 8.397-49.356 8.397z" fill="#f7e017" stroke-width=".351"/><g fill="#fff" stroke-width=".465"><path d="M173.852 78.935a3.754 3.754 0 1 1-7.509.001 3.754 3.754 0 0 1 7.509-.001zm-4.816-8.563a3.754 3.754 0 1 1-7.508.001 3.754 3.754 0 0 1 7.508-.001zm-1.003-10.037a3.754 3.754 0 1 1-7.51.001 3.754 3.754 0 0 1 7.51-.001zm3.011-9.368a3.754 3.754 0 1 1-7.509.001 3.754 3.754 0 0 1 7.509-.001zm6.356-7.695a3.754 3.754 0 1 1-7.508.001 3.754 3.754 0 0 1 7.508-.001zm8.7-5.353a3.754 3.754 0 1 1-7.51.001 3.754 3.754 0 0 1 7.51-.001zm9.702.669a3.754 3.754 0 1 1-7.51.001 3.754 3.754 0 0 1 7.51-.001zm9.702 1.606a3.754 3.754 0 1 1-7.509.001 3.754 3.754 0 0 1 7.509-.001zm9.702 1.004a3.754 3.754 0 1 1-7.508.001 3.754 3.754 0 0 1 7.508-.001zm60.942 37.737a3.754 3.754 0 1 0 7.509.001 3.754 3.754 0 0 0-7.509-.001zm4.816-8.563a3.754 3.754 0 1 0 7.508.001 3.754 3.754 0 0 0-7.508-.001zm1.003-10.037a3.754 3.754 0 1 0 7.509.001 3.754 3.754 0 0 0-7.509-.001zm-3.011-9.368a3.754 3.754 0 1 0 7.509.001 3.754 3.754 0 0 0-7.509-.001zm-6.356-7.695a3.754 3.754 0 1 0 7.508.001 3.754 3.754 0 0 0-7.509-.001zm-8.7-5.353a3.754 3.754 0 1 0 7.51.001 3.754 3.754 0 0 0-7.51-.001zm-9.702.669a3.754 3.754 0 1 0 7.509.001 3.754 3.754 0 0 0-7.509-.001zm-9.702 1.606a3.754 3.754 0 1 0 7.509.001 3.754 3.754 0 0 0-7.51-.001zm-9.703 1.004a3.754 3.754 0 1 0 7.51.001 3.754 3.754 0 0 0-7.51-.001zm-5.545 29.306a3.754 3.754 0 1 1-7.509 0 3.754 3.754 0 0 1 7.509 0z"/><path d="M229.248 63.814a3.754 3.754 0 1 1-7.509.002 3.754 3.754 0 0 1 7.509-.002z"/><path d="M229.248 58.461a3.754 3.754 0 1 1-7.509.002 3.754 3.754 0 0 1 7.509-.002z"/><path d="M229.248 53.577a3.754 3.754 0 1 1-7.509.001 3.754 3.754 0 0 1 7.509-.001zm0-15.658a3.754 3.754 0 1 1-7.509.001 3.754 3.754 0 0 1 7.509-.001z"/><path d="M229.248 38.588a3.754 3.754 0 1 1-7.509.001 3.754 3.754 0 0 1 7.509-.001z"/><path d="M229.248 42.068a3.754 3.754 0 1 1-7.509 0 3.754 3.754 0 0 1 7.509 0z"/><path d="M229.248 46.818a3.754 3.754 0 1 1-7.509.002 3.754 3.754 0 0 1 7.509-.002z"/></g><path fill="#002b7f" stroke-width=".363" d="M218.439 103.133h14.996v6.537h-14.996z"/><path d="M16.043 233.11c0 4.726-10.295 8.557-22.995 8.557-12.7 0-22.995-3.83-22.995-8.556 0-4.726 10.296-8.556 22.995-8.556 12.7 0 22.995 3.83 22.995 8.556z" transform="matrix(-.29255 -.0297 .01028 .41314 244.618 12.142)" fill="#3e8225" stroke-width="1.5"/><path d="m176.226 111.41-3.757 3.758 4.357 2.516 10.135-2.716-1.806-5.739-8.93 2.182zm99.422 0 3.757 3.758-4.358 2.516-10.134-2.716 1.806-5.739 8.929 2.182z" fill="#c00" stroke-width=".468"/><path d="M16.043 233.11c0 4.726-10.295 8.557-22.995 8.557-12.7 0-22.995-3.83-22.995-8.556 0-4.726 10.296-8.556 22.995-8.556 12.7 0 22.995 3.83 22.995 8.556z" transform="matrix(.29255 -.0297 -.01028 .41314 207.255 12.142)" fill="#3e8225" stroke-width="1.5"/><path d="M215.196 103.621a1.846 1.846 0 1 1-3.691 0 1.846 1.846 0 0 1 3.69 0zm.576 5.883a1.846 1.846 0 1 1-3.69 0 1.846 1.846 0 0 1 3.69 0zm-23.645-1.731a1.846 1.846 0 1 1-3.691 0 1.846 1.846 0 0 1 3.69 0zm2.307 5.537a1.846 1.846 0 1 1-3.691 0 1.846 1.846 0 0 1 3.69 0zm42.158-9.689a1.846 1.846 0 1 0 3.691 0 1.846 1.846 0 0 0-3.69 0zm-.577 5.883a1.846 1.846 0 1 0 3.691 0 1.846 1.846 0 0 0-3.69 0zm23.646-1.731a1.846 1.846 0 1 0 3.691 0 1.846 1.846 0 0 0-3.691 0zm-2.307 5.537a1.846 1.846 0 1 0 3.691 0 1.846 1.846 0 0 0-3.69 0z" fill="#fff" stroke-width=".302"/><path d="m273.566 99.493 1.173.56c-.439.581-3.101 7.081-12.673 5.067-9.666-2.033-10.358-11.337-10.358-11.337l1.794.653s1.049 7.18 8.646 9.216c7.52 2.015 11.418-4.16 11.418-4.16z" fill="#f7e017" stroke-width=".431"/><path d="m251.87 93.865-1.793.245s-1.85 6.76-11.541 5.383c-9.53-1.356-9.92-8.483-10.236-9.706-1.866.897-1.468 1.223-1.468 1.223s1.1 8.648 11.337 9.87c10.154 1.22 13.62-4.324 13.702-7.015z" fill="#f7e017" stroke-width=".431"/><path d="M253.839 92.985s-.853-.716-1.784-.8c-.931-.083-1.94.466-1.94.466l-.208 1.686s1.01-.55 1.94-.466c.931.084 1.784.8 1.784.8l.208-1.686z" fill="#f7e017" stroke-width=".351"/><path d="M271.058 95.464a4.851 4.851 0 1 0 9.702 0 4.851 4.851 0 1 0-9.702 0z" fill="#fff" stroke-width=".468"/><path d="m177.093 99.493-1.172.56c.438.581 3.1 7.081 12.672 5.067 9.667-2.033 10.359-11.337 10.359-11.337l-1.795.653s-1.049 7.18-8.645 9.216c-7.52 2.015-11.419-4.16-11.419-4.16z" fill="#f7e017" stroke-width=".431"/><path d="m198.788 93.865 1.795.245s1.85 6.76 11.54 5.383c9.531-1.356 9.92-8.483 10.237-9.706 1.865.897 1.468 1.223 1.468 1.223s-1.101 8.648-11.337 9.87c-10.155 1.22-13.621-4.324-13.703-7.015z" fill="#f7e017" stroke-width=".431"/><path d="M196.82 92.985s.853-.716 1.785-.8c.93-.083 1.94.466 1.94.466l.207 1.686s-1.009-.55-1.94-.466c-.931.084-1.784.8-1.784.8l-.208-1.686z" fill="#f7e017" stroke-width=".351"/><path d="M179.601 95.464a4.851 4.851 0 1 1-9.702 0 4.851 4.851 0 1 1 9.702 0zm50.707-8.799a4.851 4.851 0 1 1-9.702 0 4.851 4.851 0 1 1 9.702 0z" fill="#fff" stroke-width=".468"/></g><path d="m182.941 123.657 42.508-7.626 44.278 7.626-20.545 8.543-37.902.61-28.339-9.153z" fill="#96877d" fill-rule="evenodd" stroke-width=".435"/><path d="M263.194 133.549c1.41-.245 9.912-2.266 11.702-3.348-1.155-2.083-3.228-3.712-1.614-3.027.868.369 1.555-2.502-.967-4.696-7.322 2.402-24.882 6.79-46.947 6.79-22.58 0-40.362-4.619-47.684-7.02-2.521 2.194-1.736 4.686-1.888 5.618-.002.007.001 1.175.46 2.105 2.483 2.696 10.524 4.025 11.934 4.27 6.623 1.15 13.246 2.89 37.163 2.89 22.126 0 31.218-2.432 37.841-3.582z" font-size="12" fill="#fff" stroke-width=".739"/><path d="M187.454 118.359c-1.41.244-10.373 3.42-12.163 4.5.001.007-.002.022 0 .03.152.93-1.556 5.269.966 7.463 7.322-2.401 27.881-9.558 49.946-9.558 22.581 0 41.285 7.157 48.607 9.558 2.521-2.194.813-6.532.966-7.464.001-.007-.002-.022 0-.028-1.79-1.082-10.754-4.257-12.164-4.501-6.623-1.15-13.477-5.427-37.394-5.427-22.125 0-32.14 4.276-38.764 5.427z" font-size="12" fill="#fff" stroke-width=".739"/><g fill-rule="evenodd"><path d="M115.508 301.56a1.872 1.872 0 1 1-3.743 0 1.872 1.872 0 0 1 3.743 0z" transform="matrix(.32396 -.03352 .0366 .29667 132.555 38.147)" stroke-width="1.6"/><path d="M115.508 301.56a1.872 1.872 0 1 1-3.743 0 1.872 1.872 0 0 1 3.743 0z" transform="matrix(.32396 -.03352 .0366 .29667 131.865 39.665)" stroke-width="1.6"/><path d="M115.508 301.56a1.872 1.872 0 1 1-3.743 0 1.872 1.872 0 0 1 3.743 0z" transform="matrix(.32396 -.03352 .0366 .29667 133.196 40.492)" stroke-width="1.6"/><path d="m113.518 303.669 8.526-3.166-4.185 2.392 2.686-.083-2.492 1.168 4.001.275-8.536-.586z" transform="matrix(.64844 -.0671 .07327 .59381 84.627 -47.645)"/></g><g fill-rule="evenodd"><path d="M115.508 301.56a1.872 1.872 0 1 1-3.743 0 1.872 1.872 0 0 1 3.743 0z" transform="matrix(.32396 -.03352 .0366 .29667 152.038 32.571)" stroke-width="1.6"/><path d="M115.508 301.56a1.872 1.872 0 1 1-3.743 0 1.872 1.872 0 0 1 3.743 0z" transform="matrix(.32396 -.03352 .0366 .29667 151.347 34.09)" stroke-width="1.6"/><path d="M115.508 301.56a1.872 1.872 0 1 1-3.743 0 1.872 1.872 0 0 1 3.743 0z" transform="matrix(.32396 -.03352 .0366 .29667 152.679 34.917)" stroke-width="1.6"/><path d="m113.518 303.669 8.526-3.166-4.185 2.392 2.686-.083-2.492 1.168 4.001.275-8.536-.586z" transform="matrix(.64844 -.0671 .07327 .59381 104.11 -53.22)"/></g><g fill-rule="evenodd"><path d="M115.508 301.56a1.872 1.872 0 1 1-3.743 0 1.872 1.872 0 0 1 3.743 0z" transform="matrix(.32256 .04501 -.03548 .2968 198.117 20.847)" stroke-width="1.6"/><path d="M115.508 301.56a1.872 1.872 0 1 1-3.743 0 1.872 1.872 0 0 1 3.743 0z" transform="matrix(.32256 .04501 -.03548 .2968 197.083 22.156)" stroke-width="1.6"/><path d="M115.508 301.56a1.872 1.872 0 1 1-3.743 0 1.872 1.872 0 0 1 3.743 0z" transform="matrix(.32256 .04501 -.03548 .2968 198.178 23.278)" stroke-width="1.6"/><path d="m113.518 303.669 8.526-3.166-4.185 2.392 2.686-.083-2.492 1.168 4.001.275-8.536-.586z" transform="matrix(.64564 .0901 -.07102 .59408 172.12 -73.924)"/></g><g fill-rule="evenodd"><path d="M115.508 301.56a1.872 1.872 0 1 1-3.743 0 1.872 1.872 0 0 1 3.743 0z" transform="matrix(.32396 .03352 .0366 -.29667 198.627 205.78)" stroke-width="1.6"/><path d="M115.508 301.56a1.872 1.872 0 1 1-3.743 0 1.872 1.872 0 0 1 3.743 0z" transform="matrix(.32396 .03352 .0366 -.29667 197.936 204.261)" stroke-width="1.6"/><path d="M115.508 301.56a1.872 1.872 0 1 1-3.743 0 1.872 1.872 0 0 1 3.743 0z" transform="matrix(.32396 .03352 .0366 -.29667 199.267 203.434)" stroke-width="1.6"/><path d="m113.518 303.669 8.526-3.166-4.185 2.392 2.686-.083-2.492 1.168 4.001.275-8.536-.586z" transform="matrix(.64844 .0671 .07327 -.59381 150.698 291.572)"/></g><g fill-rule="evenodd"><path d="M115.508 301.56a1.872 1.872 0 1 1-3.743 0 1.872 1.872 0 0 1 3.743 0z" transform="matrix(.32396 .03352 .0366 -.29667 218.29 210.915)" stroke-width="1.6"/><path d="M115.508 301.56a1.872 1.872 0 1 1-3.743 0 1.872 1.872 0 0 1 3.743 0z" transform="matrix(.32396 .03352 .0366 -.29667 217.599 209.396)" stroke-width="1.6"/><path d="M115.508 301.56a1.872 1.872 0 1 1-3.743 0 1.872 1.872 0 0 1 3.743 0z" transform="matrix(.32396 .03352 .0366 -.29667 218.93 208.57)" stroke-width="1.6"/><path d="m113.518 303.669 8.526-3.166-4.185 2.392 2.686-.083-2.492 1.168 4.001.275-8.536-.586z" transform="matrix(.64844 .0671 .07327 -.59381 170.36 296.706)"/></g></g></svg>