<svg xmlns="http://www.w3.org/2000/svg" xmlns:xlink="http://www.w3.org/1999/xlink" version="1.0" width="450" height="300"><defs><radialGradient cx="416.133" cy="119.931" r="24.143" fx="416.133" fy="119.931" id="b" xlink:href="#a" gradientUnits="userSpaceOnUse" gradientTransform="matrix(.7965 0 0 2.9782 84.683 -237.25)"/><linearGradient id="a"><stop style="stop-color:#1a472b;stop-opacity:1" offset="0"/><stop style="stop-color:#337321;stop-opacity:1" offset="1"/></linearGradient></defs><path style="fill:#cf142b;fill-opacity:1;fill-rule:nonzero;stroke:none;stroke-width:5;stroke-miterlimit:4;stroke-dasharray:none;stroke-opacity:1" d="M0 0h450v150H0z"/><path style="fill:#fcc917;fill-opacity:1;fill-rule:nonzero;stroke:none;stroke-width:5;stroke-miterlimit:4;stroke-dasharray:none;stroke-opacity:1" d="M0 150h450v150H0z"/><g transform="matrix(.625 0 0 -.625 37.502 318.748)"><g transform="matrix(.77098 0 0 -.77098 -20.827 287.029)" style="fill:#337321" id="e"><path d="M416.113 48.028c-11.78 17.8-19.213 43.41-19.213 71.924 0 28.513 7.434 54.083 19.214 71.883 11.783-17.8 19.245-43.365 19.245-71.883 0-28.519-7.462-54.124-19.245-71.924z" style="fill:url(#b);fill-opacity:1;fill-rule:evenodd;stroke:none;stroke-width:1.29519119pt;stroke-opacity:1" id="c"/><use transform="rotate(72 414.86 191.572)" width="600" height="300" xlink:href="#c"/><use transform="rotate(-72 417.395 191.556)" width="600" height="300" xlink:href="#c"/><use transform="rotate(-144 415.923 191.487)" width="600" height="300" xlink:href="#c"/><use transform="rotate(144 416.317 191.494)" width="600" height="300" xlink:href="#c"/></g><g transform="matrix(.77098 0 0 -.77098 -22.957 286.524)" id="f"><g id="d"><path d="M418.929 303.531c55.128 0 57.162-28.06 50.54-39.531-6.663-11.54-14.912-22.4-22.375-33.594-25.534-40.656-35.191-38.298-57.188 0C382.443 241.6 374.163 252.46 367.5 264c-6.622 11.47-2.23 39.531 51.429 39.531z" style="fill:#cf142b;fill-opacity:1;fill-rule:evenodd;stroke:#000;stroke-width:.125;stroke-dasharray:none;stroke-opacity:1" transform="translate(.26)"/><g style="fill:#fff;fill-opacity:1"><path d="M468.088 269.764c.617 8.17-.73 18.443-17.347 22.373-8.064 2.174-18.385-1.937-32.11-1.516-13.724-.421-24.046 3.69-32.11 1.516-16.616-3.93-17.964-14.203-17.346-21.713-.618 6.189.73 16.462 17.346 20.392 8.064 2.174 18.386-1.937 32.11-1.516 13.725-.421 24.046 3.69 32.11 1.516 16.617-3.93 17.964-14.203 17.347-21.052z" style="fill:#000;fill-opacity:1;fill-rule:evenodd;stroke:none;stroke-width:.375;stroke-opacity:1" transform="translate(.26)"/><path d="M468.088 267.264c.617 8.17-.73 18.443-17.347 22.373-8.064 2.174-18.385-1.937-32.11-1.516-13.724-.421-24.046 3.69-32.11 1.516-16.616-3.93-17.964-14.203-17.346-21.713-.618 6.189 1.235 14.946 17.852 18.876 8.064 2.174 17.711-5.979 31.436-5.558 13.724-.42 23.877 7.732 31.941 5.558 16.617-3.93 18.301-12.687 17.684-19.536z" style="fill:#87212e;fill-opacity:1;fill-rule:evenodd;stroke:none;stroke-width:.375;stroke-opacity:1" transform="translate(.26)"/></g></g><use transform="rotate(72 418.83 189.797)" style="fill:#144d29" width="600" height="300" xlink:href="#d"/><use transform="rotate(-72 418.036 189.48)" width="600" height="300" xlink:href="#d"/><use transform="rotate(144 418.872 189.453)" width="600" height="300" xlink:href="#d"/><use transform="rotate(-144 419.14 189.254)" width="600" height="300" xlink:href="#d"/></g><use transform="matrix(.4919 0 0 -.4919 152.43 209.5)" width="600" height="300" xlink:href="#e"/><use transform="matrix(.558 0 0 -.558 132.599 218.07)" width="600" height="300" xlink:href="#f"/><g style="fill:#f7e017;stroke:#000;stroke-opacity:1"><g style="fill:#f7e017;stroke:#000;stroke-opacity:1"><path d="M415.391 165.065a3.317 3.317 0 1 1-6.635 0 3.317 3.317 0 1 1 6.635 0z" transform="translate(-86.772 -32.821) scale(.93317)" style="fill:#f7e017;fill-opacity:1;fill-rule:evenodd;stroke:#000;stroke-width:1pt;stroke-opacity:1"/><path d="M415.391 165.065a3.317 3.317 0 1 1-6.635 0 3.317 3.317 0 1 1 6.635 0z" transform="translate(-71.974 -.942) scale(.93317)" style="fill:#f7e017;fill-opacity:1;fill-rule:evenodd;stroke:#000;stroke-width:1pt;stroke-opacity:1"/><path d="M415.391 165.065a3.317 3.317 0 1 1-6.635 0 3.317 3.317 0 1 1 6.635 0z" transform="translate(-77.364 2.255) scale(.93317)" style="fill:#f7e017;fill-opacity:1;fill-rule:evenodd;stroke:#000;stroke-width:1pt;stroke-opacity:1"/><path d="M415.391 165.065a3.317 3.317 0 1 1-6.635 0 3.317 3.317 0 1 1 6.635 0z" transform="translate(-83.666 3.717) scale(.93317)" style="fill:#f7e017;fill-opacity:1;fill-rule:evenodd;stroke:#000;stroke-width:1pt;stroke-opacity:1"/><path d="M415.391 165.065a3.317 3.317 0 1 1-6.635 0 3.317 3.317 0 1 1 6.635 0z" transform="translate(-90.426 2.438) scale(.93317)" style="fill:#f7e017;fill-opacity:1;fill-rule:evenodd;stroke:#000;stroke-width:1pt;stroke-opacity:1"/><path d="M415.391 165.065a3.317 3.317 0 1 1-6.635 0 3.317 3.317 0 1 1 6.635 0z" transform="translate(-95.998 -.302) scale(.93317)" style="fill:#f7e017;fill-opacity:1;fill-rule:evenodd;stroke:#000;stroke-width:1pt;stroke-opacity:1"/><path d="M415.391 165.065a3.317 3.317 0 1 1-6.635 0 3.317 3.317 0 1 1 6.635 0z" transform="translate(-100.291 -4.778) scale(.93317)" style="fill:#f7e017;fill-opacity:1;fill-rule:evenodd;stroke:#000;stroke-width:1pt;stroke-opacity:1"/><path d="M415.391 165.065a3.317 3.317 0 1 1-6.635 0 3.317 3.317 0 1 1 6.635 0z" transform="translate(-102.392 -10.35) scale(.93317)" style="fill:#f7e017;fill-opacity:1;fill-rule:evenodd;stroke:#000;stroke-width:1pt;stroke-opacity:1"/><path d="M415.391 165.065a3.317 3.317 0 1 1-6.635 0 3.317 3.317 0 1 1 6.635 0z" transform="translate(-102.849 -16.288) scale(.93317)" style="fill:#f7e017;fill-opacity:1;fill-rule:evenodd;stroke:#000;stroke-width:1pt;stroke-opacity:1"/><path d="M415.391 165.065a3.317 3.317 0 1 1-6.635 0 3.317 3.317 0 1 1 6.635 0z" transform="translate(-101.022 -22.773) scale(.93317)" style="fill:#f7e017;fill-opacity:1;fill-rule:evenodd;stroke:#000;stroke-width:1pt;stroke-opacity:1"/><path d="M415.391 165.065a3.317 3.317 0 1 1-6.635 0 3.317 3.317 0 1 1 6.635 0z" transform="translate(-97.186 -27.797) scale(.93317)" style="fill:#f7e017;fill-opacity:1;fill-rule:evenodd;stroke:#000;stroke-width:1pt;stroke-opacity:1"/><path d="M415.391 165.065a3.317 3.317 0 1 1-6.635 0 3.317 3.317 0 1 1 6.635 0z" transform="translate(-92.436 -31.542) scale(.93317)" style="fill:#f7e017;fill-opacity:1;fill-rule:evenodd;stroke:#000;stroke-width:1pt;stroke-opacity:1"/><path d="M415.391 165.065a3.317 3.317 0 1 1-6.635 0 3.317 3.317 0 1 1 6.635 0z" transform="translate(-80.47 -32.821) scale(.93317)" style="fill:#f7e017;fill-opacity:1;fill-rule:evenodd;stroke:#000;stroke-width:1pt;stroke-opacity:1"/><path d="M415.391 165.065a3.317 3.317 0 1 1-6.635 0 3.317 3.317 0 1 1 6.635 0z" transform="translate(-68.138 -6.057) scale(.93317)" style="fill:#f7e017;fill-opacity:1;fill-rule:evenodd;stroke:#000;stroke-width:1pt;stroke-opacity:1"/><path d="M415.391 165.065a3.317 3.317 0 1 1-6.635 0 3.317 3.317 0 1 1 6.635 0z" transform="translate(-66.22 -12.36) scale(.93317)" style="fill:#f7e017;fill-opacity:1;fill-rule:evenodd;stroke:#000;stroke-width:1pt;stroke-opacity:1"/><path d="M415.391 165.065a3.317 3.317 0 1 1-6.635 0 3.317 3.317 0 1 1 6.635 0z" transform="translate(-66.402 -18.571) scale(.93317)" style="fill:#f7e017;fill-opacity:1;fill-rule:evenodd;stroke:#000;stroke-width:1pt;stroke-opacity:1"/><path d="M415.391 165.065a3.317 3.317 0 1 1-6.635 0 3.317 3.317 0 1 1 6.635 0z" transform="translate(-69.508 -24.966) scale(.93317)" style="fill:#f7e017;fill-opacity:1;fill-rule:evenodd;stroke:#000;stroke-width:1pt;stroke-opacity:1"/><path d="M415.391 165.065a3.317 3.317 0 1 1-6.635 0 3.317 3.317 0 1 1 6.635 0z" transform="translate(-74.44 -29.807) scale(.93317)" style="fill:#f7e017;fill-opacity:1;fill-rule:evenodd;stroke:#000;stroke-width:1pt;stroke-opacity:1"/></g><g style="fill:#f7e017;stroke:#000;stroke-opacity:1"><path d="M434.51 188.393c0 10.604-8.595 19.2-19.199 19.2-10.603 0-19.199-8.596-19.199-19.2 0-10.603 8.596-19.2 19.2-19.2 10.603 0 19.199 8.597 19.199 19.2z" style="fill:#f7e017;fill-opacity:1;fill-rule:evenodd;stroke:#000;stroke-width:1pt;stroke-opacity:1" transform="translate(-20.213 -5.776) scale(.77098)"/><g style="fill:#f7e017;stroke:#000;stroke-opacity:1"><path d="M424.743 188.393a9.431 9.431 0 1 1-18.863 0 9.431 9.431 0 0 1 18.863 0z" style="fill:#f7e017;fill-rule:evenodd;stroke:#000;stroke-width:1pt;stroke-opacity:1" transform="translate(-20.213 -5.776) scale(.77098)"/><g stroke="none"><path d="M422.969 182.054c1.049 1.622 1.823 3.465 1.823 5.538 0 5.73-4.658 10.354-10.388 10.354-2.598 0-4.886-1.035-6.707-2.614 1.85 2.856 4.91 4.85 8.564 4.85 5.73 0 10.389-4.658 10.389-10.388 0-3.133-1.485-5.836-3.681-7.74z" style="fill:#000;fill-opacity:1;fill-rule:evenodd;stroke:none;stroke-width:1pt;stroke-opacity:1" transform="matrix(.77098 0 0 -.77098 -20.391 285.105)"/><path d="M415.984 182.955a2.607 2.607 0 1 1-5.213 0 2.607 2.607 0 0 1 5.213 0z" transform="matrix(.77098 0 0 -.77098 -20.454 284.916)" style="fill:#fff;fill-opacity:1;fill-rule:evenodd;stroke:none;stroke-width:1pt;stroke-opacity:1"/></g></g></g></g></g><path d="M137.662 97.434c-4.477.134-9.714.887-15.219 2-8.183.156-17.355 1.658-28.062 7.593-.05.028-.107.035-.156.063a423.126 423.126 0 0 0-14.219 4.844c-.01-.003-.022.002-.031 0-13.061-4.171-50.394-12.124-53.782 31.968-.02.271.088.719.313 1.282.003.008-.003.023 0 .03-1.245 6.93 1.375 19.095 1.375 19.095 1.551 1.112 2.67 3.555 2.969 4.343.003.013-.002.048 0 .063.023.88-3.153 4.384-2.594 5.844.003.006.028.024.031.03.012.026.017.071.031.095l.032.03c.008.012.022.052.031.063.004.006.027.026.031.032l.031.03.032.032c.016.014.044.018.062.031 1.123.851 2.105 4.461 2.875 7.625.005.02-.005.043 0 .063-.002.012.003.019 0 .031-.24 1.211-.155 2.27.531 3 .104.11.185.218.282.344.876 3.902 9.69 41.229 9.187 43.219-.496 1.995 2.991 4.502 6.156 5.5.37.116 1.256.237 2.625.343.045.016.081.016.125.032 18.697 6.602 34.76 2.231 69.438.718a3262.92 3262.92 0 0 0 28.969-.375c.122-.002.253.002.375 0 .218-.003.44.004.656 0 10.224.179 19.915.298 28.969.375 34.678 1.513 50.741 5.884 69.437-.718.042-.004.084-.029.125-.032 1.37-.106 2.255-.227 2.625-.343 3.166-.998 6.652-3.505 6.156-5.5-.502-1.99.657-9.797.657-12.625 0-2.83 1.993-6.14 3.156-7.47.342-.392.751-1.233 1.125-2.28 1.632.602 3.733 1.727 4.406 1.78h.094c.004 0 .027.002.031 0 .004 0 .028.002.031 0 .007-.003.027-.026.032-.03.002-.003-.002-.029 0-.032.002-.006.03-.023.031-.031v-.031c-.002-.014-.027-.047-.031-.063-.004-.011.005-.05 0-.062-.003-.007-.028-.025-.032-.031-.169-.345-.745-1.019-1.906-2.157a1.674 1.674 0 0 1-.031-.031c-1.407-1.648.749-16.254 1.625-20.156.096-.126.177-.233.281-.344.687-.73.772-1.789.531-3 .003-.01-.002-.021 0-.031-.005-.025.006-.038 0-.063.771-3.164 1.753-6.774 2.875-7.625.018-.013.047-.017.063-.031l.031-.031.031-.031.032-.032c.008-.01.023-.051.031-.062.004-.006.028-.026.031-.031.021-.036.047-.087.063-.125.559-1.46-2.617-4.964-2.594-5.844.002-.022.024-.044.031-.063.299-.788 1.387-3.231 2.938-4.343 0 0 2.62-12.165 1.375-19.094-.002-.01.001-.022 0-.031.225-.563.333-1.01.312-1.282-3.387-44.092-40.72-36.14-53.781-31.968-.009-.004-.022.003-.031 0a423.118 423.118 0 0 0-14.219-4.844c-.045-.025-.08-.038-.125-.063-10.708-5.939-19.879-7.435-28.063-7.593-9.907-2.003-18.964-2.838-24.25-1a26.66 26.66 0 0 1-2.593.75 26.254 26.254 0 0 1-2.563-.75c-2.349-.817-5.418-1.108-9-1z" style="font-size:12px;fill:#cf142b;fill-opacity:1;stroke:#000;stroke-width:1.62866855;stroke-miterlimit:4;stroke-dasharray:none;stroke-opacity:1" transform="translate(160.292 12.5) scale(.43139)"/><path d="M82.306 132.969c-2.661.949-5.337 23.811-3.04 31.188 1.591 5.107 3.508 8.557 4.614 10.681-2.292-3.532-7.477-10.299-13.342-9.773-7.372.662-5.416 24.38-5.048 25.884.002.006.002.02.003.025.002.004.019.02.02.023l.017-.001c.261-.594 2.042-10.63 9.335-11.285 4.8-.43 9.224 4.786 10.89 7.026.09.746.192 1.466.286 2.194-.806 2.329-.845 7.68-3.364 14.638-3.044 8.407-15.296 10.34-17.362 10.608l26.727-2.398c.026-.003.06-.003.084-.008.012 0 .022-.003.034-.003.025 0 26.287-2.359 26.811-2.406-2.086.105-5.891-5.073-17.911-8.219-6.617-5.602-7.154-10.661-8.51-12.796-.085-.73-.161-1.452-.253-2.197 1.082-2.487 4.14-8.375 8.94-8.805 7.293-.655 11.479 8.846 11.879 9.38 0 .001.016-.002.017-.001 0-.003.013-.022.013-.026l-.003-.025c-.005-1.537-3.868-25.084-11.24-24.422-5.865.526-9.29 8.065-10.67 11.928.564-2.274 1.481-6.975 1.734-11.251.458-7.745-7.778-30.212-10.526-29.971-.043.003-.093-.003-.135.012zm1.66 42.011c.238.37.446.688.613.967.004.006.582 2.323.585 2.329.005.05 2.407 7.91 2.412 7.96-.18-.295-3.368-10.799-3.61-11.256zm7.217-.647c-.126.49-.804 11.34-.909 11.662-.007-.05.555-10.533.547-10.583l.051 2.352c.096-.303.168-3.027.311-3.431zm125.891-40.021c-2.801.375-10.172 22.182-9.458 29.875.494 5.326 1.652 9.1 2.292 11.407-1.507-3.932-5.173-11.629-11.018-12.333-7.349-.886-10.367 22.72-10.32 24.269l-.002.024c0 .004.014.024.015.027.001 0 .016.003.017.002.379-.526 4.207-9.973 11.477-9.097 4.785.577 8.028 6.599 9.19 9.137-.065.748-.116 1.473-.175 2.205-1.273 2.11-6.258 10.35-13.73 13.344-8.3 3.327-9.716 7.209-11.792 7.041l26.641 3.211c.026.003.059.01.084.01.012.003.022.002.034.004.025.006.058.007.084.01l26.641 3.211c-2.062-.331-8.095-3.366-14.296-10.136-5.485-5.988-6.295-13.543-7.178-15.913.068-.731.144-1.453.209-2.201 1.576-2.208 5.79-7.331 10.576-6.755 7.27.876 9.388 11.04 9.668 11.646.001.001.016 0 .017.002.001-.003.018-.02.02-.023l.001-.025c.314-1.504 1.432-25.34-5.917-26.225-5.846-.705-10.763 5.958-12.917 9.448 1.025-2.106 2.9-6.514 4.036-10.644 2.058-7.48-1.327-31.169-4.065-31.505-.043-.005-.09-.022-.134-.016zm-7.111 41.439c.155.41.293.765.398 1.073.003.007.086 2.393.089 2.4-.006.05.71 8.238.704 8.288-.115-.327-1.05-11.264-1.191-11.761zm7.194.867c-.225.453-3.145 10.925-3.314 11.218.003-.05 2.732-10.187 2.735-10.237l-.439 2.31c.157-.276.794-2.926 1.018-3.291z" style="fill:#f7e017;fill-opacity:1;fill-rule:evenodd;stroke:#000;stroke-width:.81433398;stroke-linecap:butt;stroke-linejoin:miter;stroke-miterlimit:4;stroke-dasharray:none;stroke-opacity:1" transform="translate(160.292 12.5) scale(.43139)"/><g style="fill:#f7e017"><g style="fill:#f7e017"><g style="fill:#f7e017"><path d="m24.308 134.56 9.69-11.814s.903 1.168 0 0C14.132 97.065 13.128 82.331 15.363 74.87c2.236-7.461 6.709-15.544 18.635-25.493 11.926-9.948 20.156-4.419 31.336-4.419 11.181 0 14.163 2.487 23.852 3.73 9.69 1.244 35.778 2.488 35.778 2.488v-6.84s1.029.192 0 0c-11.518-2.147-26.088 0-35.778-2.487-9.69-2.487-17.889-3.108-28.324-3.108-10.435 0-17.92-3.043-24.628 1.31-6.709 4.352-14.908 11.813-20.87 18.031C9.4 64.3 6.418 76.735 7.163 84.818c.746 8.083 3.727 14.923 8.2 21.14 4.472 6.218 3.726 11.192 5.217 15.544 1.49 4.353 3.727 13.68 3.727 13.058zm214.947 0-9.69-11.814s-.904 1.168 0 0c19.865-25.681 20.87-40.415 18.634-47.876-2.236-7.461-6.708-15.544-18.634-25.493-11.926-9.948-20.156-4.419-31.337-4.419-11.18 0-14.162 2.487-23.852 3.73-9.69 1.244-35.778 2.488-35.778 2.488v-6.84s-1.029.192 0 0c11.519-2.147 26.088 0 35.778-2.487 9.69-2.487 17.89-3.108 28.324-3.108 10.436 0 17.92-3.043 24.629 1.31 6.708 4.352 14.907 11.813 20.87 18.031 5.963 6.218 8.945 18.653 8.2 26.736-.746 8.083-3.728 14.923-8.2 21.14-4.472 6.218-3.727 11.192-5.217 15.544-1.491 4.353-3.727 13.68-3.727 13.058z" style="fill:#f7e017;fill-opacity:1;fill-rule:evenodd;stroke:#000;stroke-width:.71481037;stroke-linecap:butt;stroke-linejoin:miter;stroke-miterlimit:4;stroke-dasharray:none;stroke-opacity:1" transform="translate(163.275 23.764) scale(.4684)"/><path style="fill:#f7e017;fill-opacity:1;fill-rule:evenodd;stroke:#000;stroke-width:.83496058;stroke-linecap:butt;stroke-linejoin:miter;stroke-miterlimit:4;stroke-dasharray:none;stroke-opacity:1" d="M115.553 38.701h34.563v70.894h-34.563z" transform="translate(163.275 23.764) scale(.4684)"/></g><g style="fill:#f7e017"><path d="M119.684-15.8s3.72 3.03 6.575 6.923c2.856 3.893 4.846 8.652 4.846 8.652s-4.759-1.99-8.652-4.846c-3.894-2.855-6.922-6.575-6.922-6.575v26.302s3.028-3.72 6.922-6.575c3.893-2.856 8.652-4.846 8.652-4.846s-1.534 3.927-2.524 8.653c-.891 4.25-8.183 14.064-8.183 14.064l21.303 1.429s-3.542-11.243-4.969-15.493c-1.536-4.578-2.167-8.653-2.167-8.653s4.76 1.99 8.653 4.846c3.893 2.855 6.921 6.575 6.921 6.575v-26.302s-3.028 3.72-6.921 6.575c-3.894 2.856-8.653 4.846-8.653 4.846s1.99-4.759 4.846-8.652c2.855-3.894 6.575-6.922 6.575-6.922h-26.302z" style="fill:#f7e017;fill-opacity:1;fill-rule:evenodd;stroke:#000;stroke-width:.5;stroke-linecap:butt;stroke-linejoin:miter;stroke-miterlimit:4;stroke-dasharray:none;stroke-opacity:1" transform="translate(163.275 20.017) scale(.4684)"/><g style="fill:#f7e017"><path d="M150 23.076c.005 9.471-7.672 17.152-17.143 17.152-9.47 0-17.147-7.68-17.143-17.152-.004-9.47 7.672-17.15 17.143-17.15s17.148 7.68 17.143 17.15z" transform="translate(163.264 23.764) scale(.4684)" style="fill:#f7e017;fill-opacity:1;fill-rule:evenodd;stroke:#000;stroke-width:.75;stroke-linecap:butt;stroke-linejoin:miter;stroke-miterlimit:4;stroke-dasharray:none;stroke-opacity:1"/><path d="M116.074 33.535h34.102s.494-6.596-1.974-9.064h-10.595l-.178-9.888h-10.042l-.179 9.888s-7.127.357-10.41.357c-1.49 4.041-1.26 4.38-1.26 4.38l.536 4.327z" style="fill:#f7e017;fill-opacity:1;fill-rule:evenodd;stroke:#000;stroke-width:.5;stroke-linecap:butt;stroke-linejoin:miter;stroke-miterlimit:4;stroke-dasharray:none;stroke-opacity:1" transform="translate(163.275 20.017) scale(.4684)"/></g></g></g><g style="fill:#f7e017"><path d="M110.877 107.22s6.212 5.057 10.979 11.558c4.767 6.5 8.09 14.446 8.09 14.446s-7.946-3.323-14.446-8.09c-6.501-4.767-11.557-10.979-11.557-10.979v43.916s5.056-6.211 11.557-10.979c6.5-4.767 14.446-8.09 14.446-8.09s-3.323 7.946-8.09 14.447c-4.767 6.5-10.98 11.557-10.98 11.557h43.917s-6.212-5.057-10.979-11.557c-4.767-6.501-8.09-14.447-8.09-14.447s7.946 3.323 14.446 8.09c6.501 4.768 11.557 10.98 11.557 10.98v-43.917s-5.056 6.212-11.557 10.98c-6.5 4.766-14.446 8.089-14.446 8.089s3.323-7.945 8.09-14.446c4.767-6.501 10.98-11.557 10.98-11.557h-43.917zM27.24 181.78l21.625-3.813s-6.995-3.9-12.82-9.475c-5.823-5.574-10.475-12.822-10.475-12.822s8.402 1.892 15.632 5.458c7.23 3.566 13.288 8.806 13.288 8.806l-7.626-43.25s-3.9 6.996-9.475 12.82c-5.574 5.824-12.822 10.475-12.822 10.475s1.892-8.401 5.458-15.631c3.566-7.23 8.806-13.288 8.806-13.288l-21.625 3.813L27.24 181.78zm199.6-60.72s5.239 6.058 8.805 13.288 5.458 15.631 5.458 15.631-7.248-4.651-12.822-10.475c-5.574-5.824-9.475-12.82-9.475-12.82l-7.626 43.25s6.058-5.24 13.288-8.806c7.23-3.566 15.632-5.458 15.632-5.458s-4.652 7.248-10.476 12.822c-5.823 5.574-12.819 9.475-12.819 9.475l21.625 3.813 10.034-56.907-21.625-3.813z" style="fill:#f7e017;fill-opacity:1;fill-rule:evenodd;stroke:#000;stroke-width:.75;stroke-linecap:butt;stroke-linejoin:miter;stroke-miterlimit:4;stroke-dasharray:none;stroke-opacity:1" transform="translate(163.275 23.764) scale(.4684)"/></g></g><path d="m36.734 221.045.163 34.209s57.164-19.466 114.329-19.466c57.164 0 114.328 19.466 114.328 19.466v-34.21s-57.205-19.465-114.41-19.465-114.41 19.466-114.41 19.466z" style="fill:#f7e017;fill-opacity:1;fill-rule:evenodd;stroke:#000;stroke-width:.81433427;stroke-linecap:butt;stroke-linejoin:miter;stroke-miterlimit:4;stroke-dasharray:none;stroke-opacity:1" transform="translate(160.292 12.5) scale(.43139)"/><path d="M2.02 723.052c.002 6.696-5.426 12.124-12.122 12.124-6.695 0-12.123-5.428-12.121-12.124-.002-6.695 5.426-12.124 12.121-12.124 6.696 0 12.124 5.429 12.122 12.124z" transform="translate(173.226 -145.007) scale(.30972)" style="fill:#fff;fill-opacity:1;fill-rule:evenodd;stroke:#000;stroke-width:1.5;stroke-linecap:butt;stroke-linejoin:miter;stroke-miterlimit:4;stroke-dasharray:none;stroke-opacity:1"/><path d="M2.02 723.052c.002 6.696-5.426 12.124-12.122 12.124-6.695 0-12.123-5.428-12.121-12.124-.002-6.695 5.426-12.124 12.121-12.124 6.696 0 12.124 5.429 12.122 12.124z" transform="translate(168.41 -153.57) scale(.30972)" style="fill:#fff;fill-opacity:1;fill-rule:evenodd;stroke:#000;stroke-width:1.5;stroke-linecap:butt;stroke-linejoin:miter;stroke-miterlimit:4;stroke-dasharray:none;stroke-opacity:1"/><path d="M2.02 723.052c.002 6.696-5.426 12.124-12.122 12.124-6.695 0-12.123-5.428-12.121-12.124-.002-6.695 5.426-12.124 12.121-12.124 6.696 0 12.124 5.429 12.122 12.124z" transform="translate(167.407 -163.607) scale(.30972)" style="fill:#fff;fill-opacity:1;fill-rule:evenodd;stroke:#000;stroke-width:1.5;stroke-linecap:butt;stroke-linejoin:miter;stroke-miterlimit:4;stroke-dasharray:none;stroke-opacity:1"/><path d="M2.02 723.052c.002 6.696-5.426 12.124-12.122 12.124-6.695 0-12.123-5.428-12.121-12.124-.002-6.695 5.426-12.124 12.121-12.124 6.696 0 12.124 5.429 12.122 12.124z" transform="translate(170.418 -172.975) scale(.30972)" style="fill:#fff;fill-opacity:1;fill-rule:evenodd;stroke:#000;stroke-width:1.5;stroke-linecap:butt;stroke-linejoin:miter;stroke-miterlimit:4;stroke-dasharray:none;stroke-opacity:1"/><path d="M2.02 723.052c.002 6.696-5.426 12.124-12.122 12.124-6.695 0-12.123-5.428-12.121-12.124-.002-6.695 5.426-12.124 12.121-12.124 6.696 0 12.124 5.429 12.122 12.124z" transform="translate(176.775 -180.67) scale(.30972)" style="fill:#fff;fill-opacity:1;fill-rule:evenodd;stroke:#000;stroke-width:1.5;stroke-linecap:butt;stroke-linejoin:miter;stroke-miterlimit:4;stroke-dasharray:none;stroke-opacity:1"/><path d="M2.02 723.052c.002 6.696-5.426 12.124-12.122 12.124-6.695 0-12.123-5.428-12.121-12.124-.002-6.695 5.426-12.124 12.121-12.124 6.696 0 12.124 5.429 12.122 12.124z" transform="translate(185.473 -186.023) scale(.30972)" style="fill:#fff;fill-opacity:1;fill-rule:evenodd;stroke:#000;stroke-width:1.5;stroke-linecap:butt;stroke-linejoin:miter;stroke-miterlimit:4;stroke-dasharray:none;stroke-opacity:1"/><path d="M2.02 723.052c.002 6.696-5.426 12.124-12.122 12.124-6.695 0-12.123-5.428-12.121-12.124-.002-6.695 5.426-12.124 12.121-12.124 6.696 0 12.124 5.429 12.122 12.124z" transform="translate(195.176 -185.354) scale(.30972)" style="fill:#fff;fill-opacity:1;fill-rule:evenodd;stroke:#000;stroke-width:1.5;stroke-linecap:butt;stroke-linejoin:miter;stroke-miterlimit:4;stroke-dasharray:none;stroke-opacity:1"/><path d="M2.02 723.052c.002 6.696-5.426 12.124-12.122 12.124-6.695 0-12.123-5.428-12.121-12.124-.002-6.695 5.426-12.124 12.121-12.124 6.696 0 12.124 5.429 12.122 12.124z" transform="translate(204.878 -183.748) scale(.30972)" style="fill:#fff;fill-opacity:1;fill-rule:evenodd;stroke:#000;stroke-width:1.5;stroke-linecap:butt;stroke-linejoin:miter;stroke-miterlimit:4;stroke-dasharray:none;stroke-opacity:1"/><path d="M2.02 723.052c.002 6.696-5.426 12.124-12.122 12.124-6.695 0-12.123-5.428-12.121-12.124-.002-6.695 5.426-12.124 12.121-12.124 6.696 0 12.124 5.429 12.122 12.124z" transform="translate(214.58 -182.744) scale(.30972)" style="fill:#fff;fill-opacity:1;fill-rule:evenodd;stroke:#000;stroke-width:1.5;stroke-linecap:butt;stroke-linejoin:miter;stroke-miterlimit:4;stroke-dasharray:none;stroke-opacity:1"/><path d="M2.02 723.052c.002 6.696-5.426 12.124-12.122 12.124-6.695 0-12.123-5.428-12.121-12.124-.002-6.695 5.426-12.124 12.121-12.124 6.696 0 12.124 5.429 12.122 12.124z" transform="matrix(-.30972 0 0 .30972 276.774 -145.007)" style="fill:#fff;fill-opacity:1;fill-rule:evenodd;stroke:#000;stroke-width:1.5;stroke-linecap:butt;stroke-linejoin:miter;stroke-miterlimit:4;stroke-dasharray:none;stroke-opacity:1"/><path d="M2.02 723.052c.002 6.696-5.426 12.124-12.122 12.124-6.695 0-12.123-5.428-12.121-12.124-.002-6.695 5.426-12.124 12.121-12.124 6.696 0 12.124 5.429 12.122 12.124z" transform="matrix(-.30972 0 0 .30972 281.59 -153.57)" style="fill:#fff;fill-opacity:1;fill-rule:evenodd;stroke:#000;stroke-width:1.5;stroke-linecap:butt;stroke-linejoin:miter;stroke-miterlimit:4;stroke-dasharray:none;stroke-opacity:1"/><path d="M2.02 723.052c.002 6.696-5.426 12.124-12.122 12.124-6.695 0-12.123-5.428-12.121-12.124-.002-6.695 5.426-12.124 12.121-12.124 6.696 0 12.124 5.429 12.122 12.124z" transform="matrix(-.30972 0 0 .30972 282.593 -163.607)" style="fill:#fff;fill-opacity:1;fill-rule:evenodd;stroke:#000;stroke-width:1.5;stroke-linecap:butt;stroke-linejoin:miter;stroke-miterlimit:4;stroke-dasharray:none;stroke-opacity:1"/><path d="M2.02 723.052c.002 6.696-5.426 12.124-12.122 12.124-6.695 0-12.123-5.428-12.121-12.124-.002-6.695 5.426-12.124 12.121-12.124 6.696 0 12.124 5.429 12.122 12.124z" transform="matrix(-.30972 0 0 .30972 279.582 -172.975)" style="fill:#fff;fill-opacity:1;fill-rule:evenodd;stroke:#000;stroke-width:1.5;stroke-linecap:butt;stroke-linejoin:miter;stroke-miterlimit:4;stroke-dasharray:none;stroke-opacity:1"/><path d="M2.02 723.052c.002 6.696-5.426 12.124-12.122 12.124-6.695 0-12.123-5.428-12.121-12.124-.002-6.695 5.426-12.124 12.121-12.124 6.696 0 12.124 5.429 12.122 12.124z" transform="matrix(-.30972 0 0 .30972 273.225 -180.67)" style="fill:#fff;fill-opacity:1;fill-rule:evenodd;stroke:#000;stroke-width:1.5;stroke-linecap:butt;stroke-linejoin:miter;stroke-miterlimit:4;stroke-dasharray:none;stroke-opacity:1"/><path d="M2.02 723.052c.002 6.696-5.426 12.124-12.122 12.124-6.695 0-12.123-5.428-12.121-12.124-.002-6.695 5.426-12.124 12.121-12.124 6.696 0 12.124 5.429 12.122 12.124z" transform="matrix(-.30972 0 0 .30972 264.526 -186.023)" style="fill:#fff;fill-opacity:1;fill-rule:evenodd;stroke:#000;stroke-width:1.5;stroke-linecap:butt;stroke-linejoin:miter;stroke-miterlimit:4;stroke-dasharray:none;stroke-opacity:1"/><path d="M2.02 723.052c.002 6.696-5.426 12.124-12.122 12.124-6.695 0-12.123-5.428-12.121-12.124-.002-6.695 5.426-12.124 12.121-12.124 6.696 0 12.124 5.429 12.122 12.124z" transform="matrix(-.30972 0 0 .30972 254.824 -185.354)" style="fill:#fff;fill-opacity:1;fill-rule:evenodd;stroke:#000;stroke-width:1.5;stroke-linecap:butt;stroke-linejoin:miter;stroke-miterlimit:4;stroke-dasharray:none;stroke-opacity:1"/><path d="M2.02 723.052c.002 6.696-5.426 12.124-12.122 12.124-6.695 0-12.123-5.428-12.121-12.124-.002-6.695 5.426-12.124 12.121-12.124 6.696 0 12.124 5.429 12.122 12.124z" transform="matrix(-.30972 0 0 .30972 245.122 -183.748)" style="fill:#fff;fill-opacity:1;fill-rule:evenodd;stroke:#000;stroke-width:1.5;stroke-linecap:butt;stroke-linejoin:miter;stroke-miterlimit:4;stroke-dasharray:none;stroke-opacity:1"/><path d="M2.02 723.052c.002 6.696-5.426 12.124-12.122 12.124-6.695 0-12.123-5.428-12.121-12.124-.002-6.695 5.426-12.124 12.121-12.124 6.696 0 12.124 5.429 12.122 12.124z" transform="matrix(-.30972 0 0 .30972 235.42 -182.744)" style="fill:#fff;fill-opacity:1;fill-rule:evenodd;stroke:#000;stroke-width:1.5;stroke-linecap:butt;stroke-linejoin:miter;stroke-miterlimit:4;stroke-dasharray:none;stroke-opacity:1"/><path d="M2.02 723.052c.002 6.696-5.426 12.124-12.122 12.124-6.695 0-12.123-5.428-12.121-12.124-.002-6.695 5.426-12.124 12.121-12.124 6.696 0 12.124 5.429 12.122 12.124z" transform="translate(228.622 -153.438) scale(.30972)" style="fill:#fff;fill-opacity:1;fill-rule:evenodd;stroke:#000;stroke-width:1.5;stroke-linecap:butt;stroke-linejoin:miter;stroke-miterlimit:4;stroke-dasharray:none;stroke-opacity:1"/><path d="M2.02 723.052c.002 6.696-5.426 12.124-12.122 12.124-6.695 0-12.123-5.428-12.121-12.124-.002-6.695 5.426-12.124 12.121-12.124 6.696 0 12.124 5.429 12.122 12.124z" transform="translate(228.622 -160.128) scale(.30972)" style="fill:#fff;fill-opacity:1;fill-rule:evenodd;stroke:#000;stroke-width:1.5;stroke-linecap:butt;stroke-linejoin:miter;stroke-miterlimit:4;stroke-dasharray:none;stroke-opacity:1"/><path d="M2.02 723.052c.002 6.696-5.426 12.124-12.122 12.124-6.695 0-12.123-5.428-12.121-12.124-.002-6.695 5.426-12.124 12.121-12.124 6.696 0 12.124 5.429 12.122 12.124z" transform="translate(228.622 -165.48) scale(.30972)" style="fill:#fff;fill-opacity:1;fill-rule:evenodd;stroke:#000;stroke-width:1.5;stroke-linecap:butt;stroke-linejoin:miter;stroke-miterlimit:4;stroke-dasharray:none;stroke-opacity:1"/><path d="M2.02 723.052c.002 6.696-5.426 12.124-12.122 12.124-6.695 0-12.123-5.428-12.121-12.124-.002-6.695 5.426-12.124 12.121-12.124 6.696 0 12.124 5.429 12.122 12.124z" transform="translate(228.622 -170.365) scale(.30972)" style="fill:#fff;fill-opacity:1;fill-rule:evenodd;stroke:#000;stroke-width:1.5;stroke-linecap:butt;stroke-linejoin:miter;stroke-miterlimit:4;stroke-dasharray:none;stroke-opacity:1"/><path d="M2.02 723.052c.002 6.696-5.426 12.124-12.122 12.124-6.695 0-12.123-5.428-12.121-12.124-.002-6.695 5.426-12.124 12.121-12.124 6.696 0 12.124 5.429 12.122 12.124z" transform="translate(228.622 -186.023) scale(.30972)" style="fill:#fff;fill-opacity:1;fill-rule:evenodd;stroke:#000;stroke-width:1.5;stroke-linecap:butt;stroke-linejoin:miter;stroke-miterlimit:4;stroke-dasharray:none;stroke-opacity:1"/><path d="M2.02 723.052c.002 6.696-5.426 12.124-12.122 12.124-6.695 0-12.123-5.428-12.121-12.124-.002-6.695 5.426-12.124 12.121-12.124 6.696 0 12.124 5.429 12.122 12.124z" transform="translate(228.622 -185.354) scale(.30972)" style="fill:#fff;fill-opacity:1;fill-rule:evenodd;stroke:#000;stroke-width:1.5;stroke-linecap:butt;stroke-linejoin:miter;stroke-miterlimit:4;stroke-dasharray:none;stroke-opacity:1"/><path d="M2.02 723.052c.002 6.696-5.426 12.124-12.122 12.124-6.695 0-12.123-5.428-12.121-12.124-.002-6.695 5.426-12.124 12.121-12.124 6.696 0 12.124 5.429 12.122 12.124z" transform="translate(228.622 -181.874) scale(.30972)" style="fill:#fff;fill-opacity:1;fill-rule:evenodd;stroke:#000;stroke-width:1.5;stroke-linecap:butt;stroke-linejoin:miter;stroke-miterlimit:4;stroke-dasharray:none;stroke-opacity:1"/><path d="M2.02 723.052c.002 6.696-5.426 12.124-12.122 12.124-6.695 0-12.123-5.428-12.121-12.124-.002-6.695 5.426-12.124 12.121-12.124 6.696 0 12.124 5.429 12.122 12.124z" transform="translate(228.622 -177.124) scale(.30972)" style="fill:#fff;fill-opacity:1;fill-rule:evenodd;stroke:#000;stroke-width:1.5;stroke-linecap:butt;stroke-linejoin:miter;stroke-miterlimit:4;stroke-dasharray:none;stroke-opacity:1"/><path style="fill:#002b7f;fill-opacity:1;fill-rule:evenodd;stroke:#000;stroke-width:.84141195;stroke-linecap:butt;stroke-linejoin:miter;stroke-miterlimit:4;stroke-dasharray:none;stroke-opacity:1" d="M134.791 210.096h34.762v15.153h-34.762z" transform="translate(160.292 12.5) scale(.43139)"/><path d="M16.043 233.11c0 4.726-10.295 8.557-22.995 8.557-12.7 0-22.995-3.83-22.995-8.556 0-4.726 10.296-8.556 22.995-8.556 12.7 0 22.995 3.83 22.995 8.556z" transform="matrix(-.29255 -.0297 .01028 .41314 244.618 12.142)" style="fill:#3e8225;fill-opacity:1;fill-rule:evenodd;stroke:#000;stroke-width:1.5;stroke-linecap:butt;stroke-linejoin:miter;stroke-miterlimit:4;stroke-dasharray:none;stroke-opacity:1"/><path d="m36.937 229.285-8.71 8.71 10.102 5.831 23.493-6.294-4.187-13.304-20.698 5.057zm230.469 0 8.71 8.71-10.102 5.831-23.493-6.294 4.187-13.304 20.698 5.057z" style="fill:#c00;fill-opacity:1;fill-rule:evenodd;stroke:#000;stroke-width:1.08577895px;stroke-linecap:butt;stroke-linejoin:miter;stroke-opacity:1" transform="translate(160.292 12.5) scale(.43139)"/><path d="M16.043 233.11c0 4.726-10.295 8.557-22.995 8.557-12.7 0-22.995-3.83-22.995-8.556 0-4.726 10.296-8.556 22.995-8.556 12.7 0 22.995 3.83 22.995 8.556z" transform="matrix(.29255 -.0297 -.01028 .41314 207.255 12.142)" style="fill:#3e8225;fill-opacity:1;fill-rule:evenodd;stroke:#000;stroke-width:1.5;stroke-linecap:butt;stroke-linejoin:miter;stroke-miterlimit:4;stroke-dasharray:none;stroke-opacity:1"/><path d="M126.203 214.704a4.278 4.278 0 1 1-8.556 0 4.278 4.278 0 0 1 8.556 0z" transform="translate(160.753 11) scale(.43139)" style="fill:#fff;fill-opacity:1;fill-rule:evenodd;stroke:#000;stroke-width:.69999999;stroke-linecap:butt;stroke-linejoin:miter;stroke-miterlimit:4;stroke-dasharray:none;stroke-opacity:1"/><path d="M126.203 214.704a4.278 4.278 0 1 1-8.556 0 4.278 4.278 0 0 1 8.556 0z" transform="translate(161.33 16.883) scale(.43139)" style="fill:#fff;fill-opacity:1;fill-rule:evenodd;stroke:#000;stroke-width:.69999999;stroke-linecap:butt;stroke-linejoin:miter;stroke-miterlimit:4;stroke-dasharray:none;stroke-opacity:1"/><path d="M126.203 214.704a4.278 4.278 0 1 1-8.556 0 4.278 4.278 0 0 1 8.556 0z" transform="translate(137.684 15.153) scale(.43139)" style="fill:#fff;fill-opacity:1;fill-rule:evenodd;stroke:#000;stroke-width:.69999999;stroke-linecap:butt;stroke-linejoin:miter;stroke-miterlimit:4;stroke-dasharray:none;stroke-opacity:1"/><path d="M126.203 214.704a4.278 4.278 0 1 1-8.556 0 4.278 4.278 0 0 1 8.556 0z" transform="translate(139.99 20.69) scale(.43139)" style="fill:#fff;fill-opacity:1;fill-rule:evenodd;stroke:#000;stroke-width:.69999999;stroke-linecap:butt;stroke-linejoin:miter;stroke-miterlimit:4;stroke-dasharray:none;stroke-opacity:1"/><path d="M126.203 214.704a4.278 4.278 0 1 1-8.556 0 4.278 4.278 0 0 1 8.556 0z" transform="matrix(-.43139 0 0 .43139 291.035 11)" style="fill:#fff;fill-opacity:1;fill-rule:evenodd;stroke:#000;stroke-width:.69999999;stroke-linecap:butt;stroke-linejoin:miter;stroke-miterlimit:4;stroke-dasharray:none;stroke-opacity:1"/><path d="M126.203 214.704a4.278 4.278 0 1 1-8.556 0 4.278 4.278 0 0 1 8.556 0z" transform="matrix(-.43139 0 0 .43139 290.458 16.883)" style="fill:#fff;fill-opacity:1;fill-rule:evenodd;stroke:#000;stroke-width:.69999999;stroke-linecap:butt;stroke-linejoin:miter;stroke-miterlimit:4;stroke-dasharray:none;stroke-opacity:1"/><path d="M126.203 214.704a4.278 4.278 0 1 1-8.556 0 4.278 4.278 0 0 1 8.556 0z" transform="matrix(-.43139 0 0 .43139 314.104 15.153)" style="fill:#fff;fill-opacity:1;fill-rule:evenodd;stroke:#000;stroke-width:.69999999;stroke-linecap:butt;stroke-linejoin:miter;stroke-miterlimit:4;stroke-dasharray:none;stroke-opacity:1"/><path d="M126.203 214.704a4.278 4.278 0 1 1-8.556 0 4.278 4.278 0 0 1 8.556 0z" transform="matrix(-.43139 0 0 .43139 311.797 20.69)" style="fill:#fff;fill-opacity:1;fill-rule:evenodd;stroke:#000;stroke-width:.69999999;stroke-linecap:butt;stroke-linejoin:miter;stroke-miterlimit:4;stroke-dasharray:none;stroke-opacity:1"/><path d="m262.58 201.657 2.719 1.3c-1.016 1.347-7.189 16.414-29.376 11.746-22.408-4.714-24.012-26.28-24.012-26.28l4.16 1.512s2.43 16.646 20.04 21.365c17.433 4.67 26.47-9.643 26.47-9.643z" style="fill:#f7e017;fill-opacity:1;fill-rule:evenodd;stroke:#000;stroke-width:1px;stroke-linecap:butt;stroke-linejoin:miter;stroke-opacity:1" transform="translate(160.292 12.5) scale(.43139)"/><path d="m212.29 188.612-4.16.567s-4.29 15.673-26.753 12.478c-22.093-3.142-22.995-19.663-23.728-22.499-4.325 2.08-3.403 2.836-3.403 2.836s2.552 20.046 26.28 22.877c23.54 2.832 31.574-10.02 31.763-16.26z" style="fill:#f7e017;fill-opacity:1;fill-rule:evenodd;stroke:#000;stroke-width:1px;stroke-linecap:butt;stroke-linejoin:miter;stroke-opacity:1" transform="translate(160.292 12.5) scale(.43139)"/><path d="M216.852 186.572s-1.978-1.66-4.136-1.854c-2.159-.194-4.498 1.08-4.498 1.08l-.481 3.908s2.339-1.273 4.497-1.08c2.159.194 4.137 1.855 4.137 1.855l.48-3.909z" style="fill:#f7e017;fill-opacity:1;fill-rule:evenodd;stroke:#000;stroke-width:.81433398;stroke-linecap:butt;stroke-linejoin:miter;stroke-miterlimit:4;stroke-dasharray:none;stroke-opacity:1" transform="translate(160.292 12.5) scale(.43139)"/><path d="M143.571 136.29c.004 5.723-4.634 10.364-10.357 10.364-5.722 0-10.36-4.64-10.357-10.363-.003-5.723 4.635-10.364 10.357-10.364 5.723 0 10.361 4.641 10.357 10.364z" transform="matrix(-.4684 0 0 .4684 338.306 31.627)" style="fill:#fff;fill-opacity:1;fill-rule:evenodd;stroke:#000;stroke-width:1;stroke-linecap:butt;stroke-linejoin:miter;stroke-miterlimit:4;stroke-dasharray:none;stroke-opacity:1"/><path d="m38.948 201.657-2.718 1.3c1.016 1.347 7.188 16.414 29.376 11.746 22.407-4.714 24.011-26.28 24.011-26.28l-4.16 1.512s-2.43 16.646-20.04 21.365c-17.432 4.67-26.47-9.643-26.47-9.643z" style="fill:#f7e017;fill-opacity:1;fill-rule:evenodd;stroke:#000;stroke-width:1px;stroke-linecap:butt;stroke-linejoin:miter;stroke-opacity:1" transform="translate(160.292 12.5) scale(.43139)"/><path d="m89.24 188.612 4.159.567s4.289 15.673 26.752 12.478c22.093-3.142 22.996-19.663 23.728-22.499 4.325 2.08 3.403 2.836 3.403 2.836s-2.552 20.046-26.28 22.877c-23.539 2.832-31.574-10.02-31.763-16.26z" style="fill:#f7e017;fill-opacity:1;fill-rule:evenodd;stroke:#000;stroke-width:1px;stroke-linecap:butt;stroke-linejoin:miter;stroke-opacity:1" transform="translate(160.292 12.5) scale(.43139)"/><path d="M84.677 186.572s1.978-1.66 4.136-1.854c2.158-.194 4.497 1.08 4.497 1.08l.481 3.908s-2.338-1.273-4.497-1.08c-2.158.194-4.136 1.855-4.136 1.855l-.481-3.909z" style="fill:#f7e017;fill-opacity:1;fill-rule:evenodd;stroke:#000;stroke-width:.81433398;stroke-linecap:butt;stroke-linejoin:miter;stroke-miterlimit:4;stroke-dasharray:none;stroke-opacity:1" transform="translate(160.292 12.5) scale(.43139)"/><path d="M143.571 136.29c.004 5.723-4.634 10.364-10.357 10.364-5.722 0-10.36-4.64-10.357-10.363-.003-5.723 4.635-10.364 10.357-10.364 5.723 0 10.361 4.641 10.357 10.364z" transform="translate(112.353 31.627) scale(.4684)" style="fill:#fff;fill-opacity:1;fill-rule:evenodd;stroke:#000;stroke-width:1;stroke-linecap:butt;stroke-linejoin:miter;stroke-miterlimit:4;stroke-dasharray:none;stroke-opacity:1"/><path d="M143.571 136.29c.004 5.723-4.634 10.364-10.357 10.364-5.722 0-10.36-4.64-10.357-10.363-.003-5.723 4.635-10.364 10.357-10.364 5.723 0 10.361 4.641 10.357 10.364z" transform="translate(163.06 22.828) scale(.4684)" style="fill:#fff;fill-opacity:1;fill-rule:evenodd;stroke:#000;stroke-width:1;stroke-linecap:butt;stroke-linejoin:miter;stroke-miterlimit:4;stroke-dasharray:none;stroke-opacity:1"/><path d="m52.504 257.674 98.536-17.68 102.642 17.68-47.626 19.801-87.861 1.415-65.691-21.216z" style="fill:#96877d;fill-opacity:1;fill-rule:evenodd;stroke:#000;stroke-width:1.00763929px;stroke-linecap:butt;stroke-linejoin:miter;stroke-opacity:1" transform="translate(160.292 12.5) scale(.43139)"/><path d="M238.538 280.603c3.267-.567 22.977-5.253 27.127-7.76-2.678-4.829-7.484-8.606-3.744-7.018 2.014.855 3.607-5.799-2.24-10.885-16.972 5.567-57.679 15.739-108.828 15.739-52.344 0-93.562-10.707-110.535-16.274-5.846 5.086-4.025 10.865-4.378 13.024-.003.017.003 2.724 1.07 4.88 5.753 6.25 24.393 9.33 27.66 9.898 15.353 2.667 30.706 6.698 86.15 6.698 51.288 0 72.365-5.636 87.718-8.302z" style="font-size:12px;fill:#fff;fill-opacity:1;stroke:#000;stroke-width:1.71374691;stroke-miterlimit:4;stroke-dasharray:none;stroke-opacity:1" transform="translate(160.292 12.5) scale(.43139)"/><path d="M132.906 289.655c-3.01.523-22.147 7.3-25.969 9.61.004.014-.002.045 0 .06.326 1.99-3.321 11.252 2.063 15.936 15.632-5.127 59.525-20.406 106.634-20.406 48.209 0 88.14 15.279 103.772 20.406 5.384-4.684 1.737-13.947 2.063-15.935.003-.016-.004-.047 0-.061-3.822-2.31-22.96-9.087-25.969-9.61-14.14-2.455-28.772-11.586-79.835-11.586-47.237 0-68.62 9.13-82.759 11.586z" style="font-size:12px;fill:#fff;fill-opacity:1;stroke:#000;stroke-width:1.57835698;stroke-miterlimit:4;stroke-dasharray:none;stroke-opacity:1" transform="translate(125.202 -17.314) scale(.4684)"/><path d="M115.508 301.56a1.872 1.872 0 1 1-3.743 0 1.872 1.872 0 0 1 3.743 0z" transform="matrix(.32396 -.03352 .0366 .29667 132.555 38.147)" style="opacity:1;fill:#000;fill-opacity:1;fill-rule:evenodd;stroke:#000;stroke-width:1.60000002;stroke-linecap:butt;stroke-linejoin:miter;stroke-miterlimit:4;stroke-dasharray:none;stroke-opacity:1"/><path d="M115.508 301.56a1.872 1.872 0 1 1-3.743 0 1.872 1.872 0 0 1 3.743 0z" transform="matrix(.32396 -.03352 .0366 .29667 131.865 39.665)" style="opacity:1;fill:#000;fill-opacity:1;fill-rule:evenodd;stroke:#000;stroke-width:1.60000002;stroke-linecap:butt;stroke-linejoin:miter;stroke-miterlimit:4;stroke-dasharray:none;stroke-opacity:1"/><path d="M115.508 301.56a1.872 1.872 0 1 1-3.743 0 1.872 1.872 0 0 1 3.743 0z" transform="matrix(.32396 -.03352 .0366 .29667 133.196 40.492)" style="opacity:1;fill:#000;fill-opacity:1;fill-rule:evenodd;stroke:#000;stroke-width:1.60000002;stroke-linecap:butt;stroke-linejoin:miter;stroke-miterlimit:4;stroke-dasharray:none;stroke-opacity:1"/><path d="m113.518 303.669 8.526-3.166-4.185 2.392 2.686-.083-2.492 1.168 4.001.275-8.536-.586z" style="fill:#000;fill-opacity:1;fill-rule:evenodd;stroke:#000;stroke-width:1px;stroke-linecap:butt;stroke-linejoin:miter;stroke-opacity:1" transform="matrix(.64844 -.0671 .07327 .59381 84.627 -47.645)"/><path d="M115.508 301.56a1.872 1.872 0 1 1-3.743 0 1.872 1.872 0 0 1 3.743 0z" transform="matrix(.32396 -.03352 .0366 .29667 152.038 32.571)" style="opacity:1;fill:#000;fill-opacity:1;fill-rule:evenodd;stroke:#000;stroke-width:1.60000002;stroke-linecap:butt;stroke-linejoin:miter;stroke-miterlimit:4;stroke-dasharray:none;stroke-opacity:1"/><path d="M115.508 301.56a1.872 1.872 0 1 1-3.743 0 1.872 1.872 0 0 1 3.743 0z" transform="matrix(.32396 -.03352 .0366 .29667 151.347 34.09)" style="opacity:1;fill:#000;fill-opacity:1;fill-rule:evenodd;stroke:#000;stroke-width:1.60000002;stroke-linecap:butt;stroke-linejoin:miter;stroke-miterlimit:4;stroke-dasharray:none;stroke-opacity:1"/><path d="M115.508 301.56a1.872 1.872 0 1 1-3.743 0 1.872 1.872 0 0 1 3.743 0z" transform="matrix(.32396 -.03352 .0366 .29667 152.679 34.917)" style="opacity:1;fill:#000;fill-opacity:1;fill-rule:evenodd;stroke:#000;stroke-width:1.60000002;stroke-linecap:butt;stroke-linejoin:miter;stroke-miterlimit:4;stroke-dasharray:none;stroke-opacity:1"/><path d="m113.518 303.669 8.526-3.166-4.185 2.392 2.686-.083-2.492 1.168 4.001.275-8.536-.586z" style="fill:#000;fill-opacity:1;fill-rule:evenodd;stroke:#000;stroke-width:1px;stroke-linecap:butt;stroke-linejoin:miter;stroke-opacity:1" transform="matrix(.64844 -.0671 .07327 .59381 104.11 -53.22)"/><path d="M115.508 301.56a1.872 1.872 0 1 1-3.743 0 1.872 1.872 0 0 1 3.743 0z" transform="matrix(.32256 .04501 -.03548 .2968 198.117 20.847)" style="opacity:1;fill:#000;fill-opacity:1;fill-rule:evenodd;stroke:#000;stroke-width:1.60000002;stroke-linecap:butt;stroke-linejoin:miter;stroke-miterlimit:4;stroke-dasharray:none;stroke-opacity:1"/><path d="M115.508 301.56a1.872 1.872 0 1 1-3.743 0 1.872 1.872 0 0 1 3.743 0z" transform="matrix(.32256 .04501 -.03548 .2968 197.083 22.156)" style="opacity:1;fill:#000;fill-opacity:1;fill-rule:evenodd;stroke:#000;stroke-width:1.60000002;stroke-linecap:butt;stroke-linejoin:miter;stroke-miterlimit:4;stroke-dasharray:none;stroke-opacity:1"/><path d="M115.508 301.56a1.872 1.872 0 1 1-3.743 0 1.872 1.872 0 0 1 3.743 0z" transform="matrix(.32256 .04501 -.03548 .2968 198.178 23.278)" style="opacity:1;fill:#000;fill-opacity:1;fill-rule:evenodd;stroke:#000;stroke-width:1.60000002;stroke-linecap:butt;stroke-linejoin:miter;stroke-miterlimit:4;stroke-dasharray:none;stroke-opacity:1"/><path d="m113.518 303.669 8.526-3.166-4.185 2.392 2.686-.083-2.492 1.168 4.001.275-8.536-.586z" style="fill:#000;fill-opacity:1;fill-rule:evenodd;stroke:#000;stroke-width:1px;stroke-linecap:butt;stroke-linejoin:miter;stroke-opacity:1" transform="matrix(.64564 .0901 -.07102 .59408 172.12 -73.924)"/><path d="M115.508 301.56a1.872 1.872 0 1 1-3.743 0 1.872 1.872 0 0 1 3.743 0z" transform="matrix(.32396 .03352 .0366 -.29667 198.627 205.78)" style="opacity:1;fill:#000;fill-opacity:1;fill-rule:evenodd;stroke:#000;stroke-width:1.60000002;stroke-linecap:butt;stroke-linejoin:miter;stroke-miterlimit:4;stroke-dasharray:none;stroke-opacity:1"/><path d="M115.508 301.56a1.872 1.872 0 1 1-3.743 0 1.872 1.872 0 0 1 3.743 0z" transform="matrix(.32396 .03352 .0366 -.29667 197.936 204.261)" style="opacity:1;fill:#000;fill-opacity:1;fill-rule:evenodd;stroke:#000;stroke-width:1.60000002;stroke-linecap:butt;stroke-linejoin:miter;stroke-miterlimit:4;stroke-dasharray:none;stroke-opacity:1"/><path d="M115.508 301.56a1.872 1.872 0 1 1-3.743 0 1.872 1.872 0 0 1 3.743 0z" transform="matrix(.32396 .03352 .0366 -.29667 199.267 203.434)" style="opacity:1;fill:#000;fill-opacity:1;fill-rule:evenodd;stroke:#000;stroke-width:1.60000002;stroke-linecap:butt;stroke-linejoin:miter;stroke-miterlimit:4;stroke-dasharray:none;stroke-opacity:1"/><path d="m113.518 303.669 8.526-3.166-4.185 2.392 2.686-.083-2.492 1.168 4.001.275-8.536-.586z" style="fill:#000;fill-opacity:1;fill-rule:evenodd;stroke:#000;stroke-width:1px;stroke-linecap:butt;stroke-linejoin:miter;stroke-opacity:1" transform="matrix(.64844 .0671 .07327 -.59381 150.698 291.572)"/><path d="M115.508 301.56a1.872 1.872 0 1 1-3.743 0 1.872 1.872 0 0 1 3.743 0z" transform="matrix(.32396 .03352 .0366 -.29667 218.29 210.915)" style="opacity:1;fill:#000;fill-opacity:1;fill-rule:evenodd;stroke:#000;stroke-width:1.60000002;stroke-linecap:butt;stroke-linejoin:miter;stroke-miterlimit:4;stroke-dasharray:none;stroke-opacity:1"/><path d="M115.508 301.56a1.872 1.872 0 1 1-3.743 0 1.872 1.872 0 0 1 3.743 0z" transform="matrix(.32396 .03352 .0366 -.29667 217.599 209.396)" style="opacity:1;fill:#000;fill-opacity:1;fill-rule:evenodd;stroke:#000;stroke-width:1.60000002;stroke-linecap:butt;stroke-linejoin:miter;stroke-miterlimit:4;stroke-dasharray:none;stroke-opacity:1"/><path d="M115.508 301.56a1.872 1.872 0 1 1-3.743 0 1.872 1.872 0 0 1 3.743 0z" transform="matrix(.32396 .03352 .0366 -.29667 218.93 208.57)" style="opacity:1;fill:#000;fill-opacity:1;fill-rule:evenodd;stroke:#000;stroke-width:1.60000002;stroke-linecap:butt;stroke-linejoin:miter;stroke-miterlimit:4;stroke-dasharray:none;stroke-opacity:1"/><path d="m113.518 303.669 8.526-3.166-4.185 2.392 2.686-.083-2.492 1.168 4.001.275-8.536-.586z" style="fill:#000;fill-opacity:1;fill-rule:evenodd;stroke:#000;stroke-width:1px;stroke-linecap:butt;stroke-linejoin:miter;stroke-opacity:1" transform="matrix(.64844 .0671 .07327 -.59381 170.36 296.706)"/></svg>