<svg xmlns="http://www.w3.org/2000/svg" width="2000" height="1209.302" xmlns:cgf="https://coding.garden/flags"><metadata id="cgf-metadata">

<cgf:flag>
  <cgf:name></cgf:name>
  <cgf:route>gb/hrt</cgf:route>
  <cgf:aspect-ratio>1.6542597187758479</cgf:aspect-ratio>
</cgf:flag>

</metadata><g style="display:inline"><path style="color:#000;fill:#fff;stroke:none;stroke-width:4;marker:none;visibility:visible;display:inline;overflow:visible;enable-background:accumulate" transform="matrix(1 0 0 -1 297.857 632.654)" d="M-291.989-576.494h1998v1198h-1998z"></path><path style="color:#000;fill:#003f87;fill-opacity:1;stroke:none;stroke-width:2;marker:none;visibility:visible;display:inline;overflow:visible;enable-background:accumulate" d="M5.875 11.156v125.719c55.344-11.964 70.957-39.184 109.281-67.938.104-.071.209-.147.313-.218 53.033-36.397 94.17-14.547 134.75 21.437v-.687c.26.231.521.455.781.687 32.611 29.122 58.06 46.959 85.906 46.781 24.57-.156 51.03-14.34 85.875-47.125v.344c1.816-1.86 3.59-3.654 5.375-5.375 55.385-50.65 97.867-39.294 138.281-8.344 5.41 4.324 10.749 8.946 16.094 13.72 61.386 54.816 97.445 69.594 171.782-.344v.343a251.002 251.002 0 0 1 5.406-5.375C814.662 34.536 856.874 45.296 897 75.687l.031.032c.101.077.211.142.313.219 5.615 4.461 11.173 9.266 16.718 14.218 61.348 54.783 97.384 69.57 171.625-.219v.22a257.182 257.182 0 0 1 3.188-3.22c54.822-51.525 97.03-42.497 136.906-13.28 6.618 5.098 13.176 10.684 19.688 16.5 30.039 26.824 53.985 44.053 79.343 46.468v.188c.759.042 1.52.077 2.282.093.936.02 1.87-.01 2.812-.031 24.917.406 51.64-13.544 87.031-46.781v.062c.332-.34.639-.665.97-1 .409-.387.837-.764 1.25-1.156 27.924-26.586 52.556-37.5 75.28-38 .301.004.606-.007.907 0 28.57.678 54.169 17.666 79.531 40.156v-.687c.26.231.522.455.781.687 31.799 28.396 56.772 46.052 83.813 46.75.999.042 1.994.067 3 .063a66.13 66.13 0 0 0 5.625-.281v-.157c22.747-2.433 47.543-16.829 79.312-46.719v.344a251.119 251.119 0 0 1 5.406-5.375c55.385-50.65 97.836-39.294 138.25-8.344 5.41 4.324 10.749 8.946 16.094 13.72 36.768 32.833 64.455 51.277 96.719 45.78V11.157h-1998zm165.094 227.656a70.828 70.828 0 0 0-2.875.032c-16.042.391-33.28 6.38-52.25 20.343-.08.059-.14.13-.219.188-.051.035-.105.059-.156.094-7.576 5.2-15.375 11.607-23.469 19.312-35.01 33.33-61.565 48.097-86.125 48.875V471.22c55.344-11.965 70.957-39.185 109.281-67.938l.313-.219c53.032-36.397 94.17-14.546 134.75 21.438v-.688c.26.232.521.456.781.688 32.611 29.122 58.06 46.958 85.906 46.781 24.57-.156 51.03-14.341 85.875-47.125v.344c1.816-1.86 3.59-3.654 5.375-5.375 55.385-50.65 97.867-39.294 138.281-8.344 5.41 4.323 10.749 8.945 16.094 13.719 61.386 54.817 97.445 69.595 171.782-.344v.344a251.488 251.488 0 0 1 5.406-5.375c54.943-50.246 97.155-39.485 137.281-9.094.01.008.021.023.031.031.101.077.211.142.313.22 5.615 4.46 11.173 9.266 16.718 14.218 61.348 54.782 97.384 69.569 171.625-.219v.219a258.619 258.619 0 0 1 3.188-3.219c54.822-51.526 97.03-42.497 136.906-13.281 6.618 5.099 13.176 10.685 19.688 16.5 30.039 26.825 53.985 44.053 79.343 46.469v.187c.759.043 1.52.078 2.282.094.936.02 1.87-.01 2.812-.031 24.917.406 51.64-13.544 87.031-46.782v.063c.332-.34.639-.665.97-1 .409-.387.837-.764 1.25-1.156 27.924-26.586 52.556-37.5 75.28-38 .301.004.606-.007.907 0 28.57.678 54.169 17.666 79.531 40.156v-.688c.26.232.522.456.781.688 31.799 28.396 56.772 46.051 83.813 46.75.999.042 1.994.067 3 .062a66.13 66.13 0 0 0 5.625-.28v-.157c22.747-2.433 47.543-16.83 79.312-46.719v.344a251.835 251.835 0 0 1 5.406-5.375c55.385-50.65 97.836-39.294 138.25-8.344 5.41 4.323 10.749 8.945 16.094 13.719 36.768 32.834 64.455 51.277 96.719 45.781V326.75c-32.145 5.47-59.732-12.85-96.281-45.438v-.406a303.756 303.756 0 0 0-15.625-12.969c-39.334-31.708-81.185-48.038-138.813 7.282a235.365 235.365 0 0 0-3.812 3.562c-34.28 32.635-60.47 47.477-84.594 48.813-.274.015-.54.02-.813.03-28.163.751-53.753-16.868-86.53-46.062v-.656c-7.656-6.789-15.322-13.045-23.095-18.531-17.947-13.405-36.594-22.979-57.124-23.5-.084-.003-.168.003-.25 0a68.84 68.84 0 0 0-4.188-.031c-16.042.39-33.28 6.38-52.25 20.343-.079.059-.17.13-.25.188-.051.035-.106.059-.156.094-7.577 5.2-15.375 11.606-23.469 19.312-35.129 33.444-61.746 48.19-86.375 48.875-27.247-.311-52.322-17.824-84.219-46.25v-.5c-6.587-5.841-13.178-11.28-19.844-16.187-38.775-30.005-80.412-43.354-137.437 13.125-.332.311-.668.62-1 .937-75.477 71.857-111.593 57.478-173.25 2.5v-.375a300.204 300.204 0 0 0-16.25-13.437c-39.161-31.394-80.85-47.291-138.188 7.75a234.536 234.536 0 0 0-3.812 3.562c-75.464 71.845-111.643 57.487-173.281 2.531v-.406a303.491 303.491 0 0 0-15.625-12.969C528.01 236.23 486.159 219.9 428.53 275.22a235.36 235.36 0 0 0-3.844 3.562c-75.649 72.022-111.771 57.415-173.687 2.125-25.163-22.47-50.621-41.6-80.031-42.094zm0 332.25a70.828 70.828 0 0 0-2.875.032c-16.042.391-33.28 6.38-52.25 20.343-.08.059-.14.13-.219.188-.051.035-.105.059-.156.094-7.576 5.2-15.375 11.607-23.469 19.312-35.01 33.33-61.565 48.097-86.125 48.875V803.47c55.344-11.965 70.957-39.185 109.281-67.938l.313-.219c53.033-36.397 94.17-14.546 134.75 21.438v-.688c.26.232.521.456.781.688 32.611 29.121 58.06 46.958 85.906 46.781 24.57-.156 51.03-14.341 85.875-47.125v.344c1.816-1.86 3.59-3.654 5.375-5.375 55.385-50.65 97.867-39.294 138.281-8.344 5.41 4.323 10.749 8.945 16.094 13.719 61.386 54.817 97.445 69.595 171.782-.344v.344a251.488 251.488 0 0 1 5.406-5.375c54.943-50.246 97.155-39.485 137.281-9.094.01.008.021.024.031.031.101.077.211.142.313.22 5.615 4.46 11.173 9.266 16.718 14.218 61.348 54.782 97.384 69.569 171.625-.219v.219a258.619 258.619 0 0 1 3.188-3.219c54.822-51.526 97.03-42.497 136.906-13.281 6.618 5.099 13.176 10.685 19.688 16.5 30.039 26.825 53.985 44.053 79.343 46.469v.187c.759.043 1.52.078 2.282.094.936.02 1.87-.01 2.812-.031 24.917.406 51.64-13.544 87.031-46.782v.063c.332-.34.639-.665.97-1 .409-.387.837-.764 1.25-1.156 27.924-26.586 52.556-37.5 75.28-38 .301.004.606-.007.907 0 28.57.678 54.169 17.666 79.531 40.156v-.688c.26.232.522.456.781.688 31.799 28.396 56.772 46.051 83.813 46.75.999.042 1.994.067 3 .062a66.13 66.13 0 0 0 5.625-.28v-.157c22.747-2.433 47.543-16.83 79.312-46.719v.344a251.604 251.604 0 0 1 5.406-5.375c55.385-50.65 97.836-39.294 138.25-8.344 5.41 4.323 10.749 8.945 16.094 13.719 36.768 32.834 64.455 51.277 96.719 45.781V659c-32.145 5.47-59.732-12.85-96.281-45.438v-.406a303.67 303.67 0 0 0-15.625-12.969c-39.334-31.708-81.185-48.038-138.813 7.282a235.365 235.365 0 0 0-3.812 3.562c-34.28 32.635-60.47 47.477-84.594 48.813-.274.015-.54.02-.813.03-28.163.751-53.753-16.868-86.53-46.062v-.656c-7.656-6.789-15.322-13.045-23.095-18.531-17.947-13.405-36.594-22.979-57.124-23.5-.084-.003-.168.003-.25 0a68.921 68.921 0 0 0-4.188-.031c-16.042.39-33.28 6.38-52.25 20.343-.079.059-.17.13-.25.188-.051.035-.106.059-.156.094-7.577 5.2-15.375 11.606-23.469 19.312-35.129 33.444-61.746 48.19-86.375 48.875-27.247-.311-52.322-17.824-84.219-46.25v-.5c-6.587-5.841-13.178-11.28-19.844-16.187-38.775-30.005-80.413-43.354-137.437 13.125-.332.311-.668.62-1 .937-75.477 71.857-111.593 57.478-173.25 2.5v-.375a300.27 300.27 0 0 0-16.25-13.437c-39.161-31.394-80.85-47.291-138.188 7.75a234.536 234.536 0 0 0-3.812 3.562c-75.464 71.845-111.643 57.487-173.281 2.531v-.406a303.453 303.453 0 0 0-15.625-12.969c-39.334-31.708-81.185-48.038-138.813 7.282a235.36 235.36 0 0 0-3.844 3.562c-75.649 72.022-111.771 57.415-173.687 2.125-25.163-22.47-50.621-41.6-80.031-42.094zm0 329.438c-.949-.016-1.918.008-2.875.031-16.042.391-33.28 6.38-52.25 20.344-.08.058-.14.13-.219.187-.051.035-.105.06-.156.094-7.576 5.2-15.375 11.607-23.469 19.313-35.01 33.33-61.565 48.097-86.125 48.875v143.562c55.344-11.964 70.957-39.185 109.281-67.937l.313-.22c53.033-36.396 94.17-14.545 134.75 21.438v-.687c.26.231.521.455.781.687 32.611 29.122 58.06 46.959 85.906 46.782 24.57-.157 51.03-14.342 85.875-47.125v.343c1.816-1.86 3.59-3.654 5.375-5.375 55.385-50.649 97.867-39.294 138.281-8.343 5.41 4.323 10.749 8.945 16.094 13.718 61.386 54.818 97.445 69.595 171.782-.343v.343a251.233 251.233 0 0 1 5.406-5.375c54.943-50.245 97.155-39.485 137.281-9.093.01.01.021.023.031.03.101.078.211.142.313.22 5.615 4.46 11.173 9.266 16.718 14.218 61.348 54.783 97.384 69.57 171.625-.218v.218a256.496 256.496 0 0 1 3.188-3.218c54.822-51.527 97.03-42.498 136.906-13.282 6.618 5.1 13.176 10.685 19.688 16.5 30.039 26.825 53.985 44.054 79.343 46.469v.188c.759.041 1.52.077 2.282.093.936.02 1.87-.01 2.812-.03 24.917.406 51.64-13.544 87.031-46.782v.062c.332-.34.639-.665.97-1 .409-.387.837-.764 1.25-1.156 27.924-26.585 52.556-37.499 75.28-38 .301 0 .606-.01.907 0 28.57.678 54.169 17.666 79.531 40.156v-.687c.26.231.522.455.781.687 31.799 28.396 56.772 46.052 83.813 46.75.999.042 1.994.068 3 .062a66.662 66.662 0 0 0 5.625-.28v-.157c22.747-2.433 47.543-16.83 79.312-46.719v.344a251.35 251.35 0 0 1 5.406-5.375c55.385-50.65 97.836-39.294 138.25-8.344 5.41 4.323 10.749 8.945 16.094 13.719 36.768 32.834 64.455 51.277 96.719 45.781V988.437c-32.145 5.47-59.732-12.85-96.281-45.438v-.406a303.67 303.67 0 0 0-15.625-12.969c-39.334-31.708-81.185-48.038-138.813 7.282a235.365 235.365 0 0 0-3.812 3.562c-34.28 32.635-60.47 47.477-84.594 48.813-.274.015-.54.02-.813.03-28.163.751-53.753-16.868-86.53-46.062v-.656c-7.656-6.789-15.322-13.045-23.095-18.531-17.947-13.405-36.594-22.979-57.124-23.5-.084-.003-.168.003-.25 0a68.921 68.921 0 0 0-4.188-.031c-16.042.39-33.28 6.38-52.25 20.343-.079.059-.17.13-.25.188-.051.035-.106.059-.156.094-7.577 5.2-15.375 11.606-23.469 19.312-35.129 33.444-61.746 48.19-86.375 48.875-27.247-.312-52.322-17.824-84.219-46.25v-.5c-6.587-5.841-13.178-11.28-19.844-16.187-38.775-30.005-80.413-43.354-137.437 13.125-.332.311-.668.62-1 .937-75.477 71.857-111.593 57.478-173.25 2.5v-.375a300.27 300.27 0 0 0-16.25-13.437c-39.161-31.394-80.85-47.292-138.188 7.75a234.536 234.536 0 0 0-3.812 3.562c-75.464 71.846-111.643 57.488-173.281 2.532v-.406a303.453 303.453 0 0 0-15.625-12.969c-39.334-31.708-81.185-48.038-138.813 7.281-1.27 1.157-2.56 2.34-3.844 3.563-75.649 72.022-111.771 57.415-173.687 2.125-25.163-22.47-50.62-41.6-80.031-42.094z"></path><path d="M355.047-417.354h694.192v387.339c-2.929 202.36-252.544 369.75-345.084 391.363-136.9-39.11-340.708-240.768-345.084-391.363z" style="color:#000;fill:#f9d90f;fill-opacity:1;stroke:#000;stroke-width:8;marker:none;visibility:visible;display:inline;overflow:visible;enable-background:accumulate" transform="translate(297.857 632.654)"></path><path d="M904.723 657.158c-22.39 2.403-46.493 1.196-67.432-6.386-9.2-3.407-15.145-11.185-22.87-1.804-2.951 3.583-7.979 5.941-11.592 8.78-23.011 18.081-51.533 28.403-73.088 48-2.928 2.66-14.677 9.528-15.479 13.535-.1.503 8.695.632 8.98.632 5.328 0 7.628 2.594 13.12 2.594 19.212 0 9.86-3.51 18.227-17.456 9.433-9.582 13.729-5.166 19.262-6.594 6.723-1.834 16.76-6.765 21.447-12.39 6.537-5.899 17.246-17.428 23.912-20.06 16.449 6.728 42.02 12.552 64.325 16.642 15.512 2.844 33.236 14.423 35.348 12.198 7.864-12.459-10.018-26.562-14.16-37.69z" style="color:#000;fill:#844e00;fill-opacity:1;stroke:#000;stroke-width:4;stroke-linecap:round;stroke-linejoin:round;stroke-miterlimit:4;stroke-opacity:1;stroke-dasharray:none;stroke-dashoffset:0;marker:none;visibility:visible;display:inline;overflow:visible;enable-background:accumulate"></path><path d="M820.969 656c-24.54 20.439-47.193 33.674-76.313 45.5-1.36.68-3.55.013-4.375-.813-1.123-1.123-3.292-.432-4.875.25a118.308 118.308 0 0 0-5.656 4.813c-2.927 2.661-14.699 9.525-15.5 13.531-.1.503 8.715.625 9 .625 5.327 0 7.633 2.594 13.125 2.594 19.212 0 9.851-3.491 18.219-17.438 9.432-9.582 13.717-5.165 19.25-6.593 6.723-1.834 16.781-6.782 21.468-12.407 6.537-5.898 17.241-17.43 23.907-20.062 16.448 6.729 42.008 12.567 64.312 16.656 15.512 2.844 33.233 14.412 35.344 12.188 3.524-5.583 1.856-11.485-1.406-17.313-.17-.05-.333-.101-.5-.156-27.742-5.225-64.905-18.391-96-21.375z" style="color:#000;fill:#4e0400;fill-opacity:1;stroke:none;stroke-width:4;marker:none;visibility:visible;display:inline;overflow:visible;enable-background:accumulate"></path><path style="color:#000;fill:none;stroke:#000;stroke-width:4;stroke-linecap:round;stroke-linejoin:round;stroke-miterlimit:4;stroke-opacity:1;stroke-dasharray:none;stroke-dashoffset:0;marker:none;visibility:visible;display:inline;overflow:visible;enable-background:accumulate" d="M904.723 657.158c-22.39 2.403-46.493 1.196-67.432-6.386-9.2-3.407-15.145-11.185-22.87-1.804-2.951 3.583-7.979 5.941-11.592 8.78-23.011 18.081-51.533 28.403-73.088 48-2.928 2.66-14.677 9.528-15.479 13.535-.1.503 8.695.632 8.98.632 5.328 0 7.628 2.594 13.12 2.594 19.212 0 9.86-3.51 18.227-17.456 9.433-9.582 13.729-5.166 19.262-6.594 6.723-1.834 16.76-6.765 21.447-12.39 6.537-5.899 17.246-17.428 23.912-20.06 16.449 6.728 42.02 12.552 64.325 16.642 15.512 2.844 33.236 14.423 35.348 12.198 7.864-12.459-10.018-26.562-14.16-37.69z"></path><path d="M998.656 425.313c-5.106.034-13.309 11.805-15.125 13.937-12.866 15.105-20.873 28.097-40.187 36.375-4.667 2-8.15 10.832-12.969 13.938-20.82 40.686-31.53 96.862-36.875 126.5-4.526 4.526-8.69 6.118-5.969 14.28 2.617 7.852 10.236 9.988 12.782 17.626 6.546 19.641-6.509 21.74 13.125 41.375.691.691 1.361 1.75 2.156 2.906-17.429 2.726-44.421 5.196-32.469 23.125 15.767 23.651 35.788 2.366 55.313 8.875 8.285 2.762 15.39 3.819 23.53 4.719 16.042 1.773 54.895 2.962 59.813-4.782.325-.511-20.338-16.935-22-16.437-1.82.546-17.285 12.167-25.555 6.944.89-.266 2.963-1.308 3.899-1.819 3.886-2.12 7.739-4.739 10.906-7.906.555-.555 1.146-1.104 1.719-1.657 18.849 2.217 53.735 2.59 66.281 2.688 9.654.761 9.1-.618 13.906-.188-11.019 5.564-16.28 14.063-16.28 14.063s11.941 5.782 19.624 7.063c-1.369 5.7 2.439 5.605 10.719 8.562 18.439 6.585 20.327-6.537 32.969-11.594 2.941-1.176 14.03 4.506 17.562 5.469 10.382 2.831 25-.469 36.25-.469 26.639-1.246 41.797 2.319 69.75-1.312 6.708-.872 19.137-4.168 23.657-8.688 14.685-14.686 13.15-56.616 8.625-75.625-2.06-8.648-18.688-41.742-18.688-43.218 21.647 19.92 15.9 59.24 34.031 76.343 1.82 1.619 14.413 12.771 15.063 8.469.23-1.521-4.907-20.291-5.438-25.656-.871-8.811-2.9-21.246-5.61-29.834-11.795-37.38-35.678-55.472-77.108-67.01-16.821-4.685-26.029-4.88-43.505-5.235-46.263-.939-93.248 8.605-125.402 7.797-17.998-13.17-28.178-11.428-44.531-15.343-4.503-40.74 26.622-103.318-2.5-123.907-.452-.27-.94-.378-1.469-.375z" style="color:#000;fill:#844e00;fill-opacity:1;stroke:#000;stroke-width:4;stroke-linecap:round;stroke-linejoin:round;stroke-miterlimit:4;stroke-opacity:1;stroke-dasharray:none;stroke-dashoffset:0;marker:none;visibility:visible;display:inline;overflow:visible;enable-background:accumulate"></path><path d="M1274.813 667.094c-3.755.159-5.328 6.967-6.688 9.687-2.016 4.032-9.97 15.995-11.799 20.199-5.528 12.716-22.113 16.628-34.76 18.936-35.458 9.304-71.803 1.288-103.504 6.209-3.007.668-4.83 3.99-7.874 4.594h2.093c-1.193 0-.817.136-.062.406 1.692-1.221 3.552-2.34 5.75-3.219 2.942-1.176 14.03 4.505 17.563 5.469 10.381 2.831 24.999-.469 36.25-.469 26.638-1.246 41.796 2.319 69.75-1.312 6.707-.872 19.136-4.168 23.656-8.688 9.868-9.868 12.39-32.03 11.625-51.281-.09-.048-.157-.115-.25-.156-.63-.28-1.214-.398-1.75-.375z" style="color:#000;fill:#54261c;fill-opacity:1;fill-rule:nonzero;stroke:none;stroke-width:4;marker:none;visibility:visible;display:inline;overflow:visible;enable-background:accumulate"></path><path d="M1067.426 706.886c4.897-1.313 9.226-4.245 13.743-5.94 7.692-2.884 69.839-.686 82.405-.686 6.144 0 17.935-3.518 23.166-1.276 2.502 1.072 8.954-1.964 8.098-1.964-.615 0-1.871-3.702-2.993-4.123-6.598-2.474-15.954-17.446-20.995-21.48-6.143-4.914-22.76-.18-30.343-3.551-7.573-3.366-16.202-4.399-23.951-7.166-6.889-2.46-11.508-6.612-18.602-8.639-20.759-5.931-77.224 10.532-95.902 20.91-6.668 3.704-8.652 13.576-16.688 16.049-9.833 3.026-20.562 4.74-30.479 6.724-8.16.004-40.866 10.988-45.3 15.363-2.36 1.871 24.081 3.55 27.926 5.448 8.306 4.1 12.744 4.025 19.338 4.025 10.057 0 18.873-3.386 28.76-.344 4.36 1.342 5.488 6.27 9.031 8.295 4.655 2.66 22.234-1.154 25.67-3.73 1.093-.82-6.672-4.021-6.97-4.32-2.405-2.404-10.295-13.895-15.608-11.534-7.185 3.194-11.568 5.448-20.22 5.448-.213 0-2.718.229-2.504-.147 1.355-2.37 6.195-2.723 8.148-4.025 1.937-1.291 3.473-4.505 5.987-5.448 1.245-.467.954-3.379 2.896-2.65 7.218 2.707 26.096.568 32.786 2.798 4.915 1.638 37.705 2.895 42.601 1.963z" style="color:#000;fill:#4e0400;fill-opacity:1;stroke:none;stroke-width:4;marker:none;visibility:visible;display:inline;overflow:visible;enable-background:accumulate"></path><path d="M947.25 473.813a71.862 71.862 0 0 1-3.906 1.812c-4.667 2-8.15 10.832-12.969 13.938-6.73 13.152-12.379 27.936-17.156 42.906a33.238 33.238 0 0 0 2.093-.282c25.615-4.269 35.231-23.188 45.532-46.78.204-4.594-6.295-9.234-13.594-11.594z" style="color:#000;fill:#4e0400;fill-opacity:1;fill-rule:nonzero;stroke:none;stroke-width:4;marker:none;visibility:visible;display:inline;overflow:visible;enable-background:accumulate"></path><path d="M871.507 494.628c-2.341 32.224 45.697 12.229 52.127-3.054m49.831-84.764c-7.257-23.304-77.555-34.261-95.785-75.833 1.232-1.232 10.485-3.58 14.714-7.809 8.696-8.696 11.776-25.014 13.258-33.908-6.071 5.205-17.674 28.129-31.408 29.223-.898.071-3.542 2.1-4.442 1.458-6.141-4.387-4.545-42.513-10.169-48.138-2.362-2.362-2.483 8.229-2.533 8.885-.31 4.026 1.815 36.295.243 37.344-19.505-.694-27.076-18.015-35.99-24.33 10.48 33.637 32.308 35.88 40.362 39.358 8.731 13.096 16.763 26.687 29.152 36.754 1.757 1.426 20.025 13.827 20.025 14.889 0 5.451-16.133 3.375-19.296 2.672-10.012-2.225-17.335-16.642-18.671-25.995-.223-1.56-.192-6.3-1.25-7.358-1.943-1.944-4.671 7.935-4.789 8.434-5.084 21.61 14.105 37.813 35.426 36.064 10.577-1.934 15.15-4.766 21.668-7.297 3.73 1.48 19.126 8.178 21.409 9.202 1.4 1.322 9.795 5.93 7.323 4.373" style="color:#000;fill:#673701;fill-opacity:1;stroke:#000;stroke-width:4;stroke-linecap:round;stroke-linejoin:round;stroke-miterlimit:4;stroke-opacity:1;stroke-dasharray:none;stroke-dashoffset:0;marker:none;visibility:visible;display:inline;overflow:visible;enable-background:accumulate"></path><path style="color:#000;fill:#4e0400;fill-opacity:1;fill-rule:nonzero;stroke:none;stroke-width:4;marker:none;visibility:visible;display:inline;overflow:visible;enable-background:accumulate" d="M867.656 320.156c-1.59.182-4.623 2.211-5.906 2.438-4.72.833-8.457-.594-12.875-.594-1.996 0-3.948.313-5.938.313-.932 0-3.714.062-2.78.062 1.529 0 2.351 1.758 4 2.5 4.196 1.889 7.27 3.617 9.937 5.531 3.08 1.1 5.736 1.841 7.625 2.656 2.316 3.475 4.594 6.969 6.906 10.438 2.03 1.238 4.296 2.31 7.031 4.688 2.4 2.087 3.868 4.89 6 7.156 7.836 9.407 18.301 15.347 26.157 22.219 3.289 2.905 3.853 3.562 3.093 7.125-1.043 4.89-13.469 3.703-18.156 2.906-2.173-.12-4.287-.474-6-1.031 5.047 1.711 10.046 2.925 12.438 3.125 3.75.312 14.917 1.232 18.03-.844.74-.493 2.542-2.887 3.438-2.375 3.458 1.975 7.585 3.41 10.625 6.281.837.79 1.578 1.68 2.313 2.563 5.159 2.222 10.5 4.55 11.781 5.125 1.4 1.322 9.816 5.931 7.344 4.375l13.281 1.28c-.092-.063-.247-.166-.25-.187-.053-.34.333-1.114 0-1.031-9-8.468-18.996-15.567-30.094-20.5-5.449-2.422-11.245-3.599-16.593-6.719-9.237-5.388-16.856-13.347-25.47-19.5-5.027-3.591-10.323-6.81-14.25-11.719-5.837-7.297-4.764-10.288-.843-13.656-.288-.594-.546-1.205-.813-1.812.714-.714 4.127-1.796 7.688-3.406 2.56-1.805 7.301-5.33 5.781-6.47-.179-.134-.994.764-1.156.876-2.676 1.84-7.635 3.695-10.875 4.344-6.809 1.361-7.58-4.858-10.875-6.094a1.3 1.3 0 0 0-.594-.063z"></path><path d="M973.465 406.81c-7.257-23.304-77.555-34.261-95.785-75.833 1.232-1.232 10.485-3.58 14.714-7.809 8.696-8.696 11.776-25.014 13.258-33.908-6.071 5.205-17.674 28.129-31.408 29.223-.898.071-3.542 2.1-4.442 1.458-6.141-4.387-4.545-42.513-10.169-48.138-2.362-2.362-2.483 8.229-2.533 8.885-.31 4.026 1.815 36.295.243 37.344-19.505-.694-27.076-18.015-35.99-24.33 10.48 33.637 32.308 35.88 40.362 39.358 8.731 13.096 16.763 26.687 29.152 36.754 1.757 1.426 20.025 13.827 20.025 14.889 0 5.451-16.133 3.375-19.296 2.672-10.012-2.225-17.335-16.642-18.671-25.995-.223-1.56-.192-6.3-1.25-7.358-1.943-1.944-4.671 7.935-4.789 8.434-5.084 21.61 14.105 37.813 35.426 36.064 10.577-1.934 15.15-4.766 21.668-7.297 3.73 1.48 19.126 8.178 21.409 9.202 1.4 1.322 9.795 5.93 7.323 4.373" style="color:#000;fill:none;stroke:#000;stroke-width:4;stroke-linecap:round;stroke-linejoin:round;stroke-miterlimit:4;stroke-opacity:1;stroke-dasharray:none;stroke-dashoffset:0;marker:none;visibility:visible;display:inline;overflow:visible;enable-background:accumulate"></path><path style="color:#000;fill:#673701;fill-opacity:1;stroke:#000;stroke-width:4;stroke-linecap:round;stroke-linejoin:round;stroke-miterlimit:4;stroke-opacity:1;stroke-dasharray:none;stroke-dashoffset:0;marker:none;visibility:visible;display:inline;overflow:visible;enable-background:accumulate" d="M942.853 395.912c-4.017-10.09 10.565-46.239 13.282-44.273-4.892 12.835-3.69 39.896-3.558 45.18-.222 1.938-3.138 4.22-8.718 2.11z"></path><path d="M937.047 419.006c-3.102-1.697-7.024-3.739-9.162-6.733-1.03-1.442-11.35-13.833-10.516-14.333 3.795-2.277 28.102 1.346 32.519 2.499 2.469.644 15.07 6.66 12.771 8.086" style="color:#000;fill:#844e00;fill-opacity:1;stroke:#000;stroke-width:4;stroke-linecap:round;stroke-linejoin:round;stroke-miterlimit:4;stroke-opacity:1;stroke-dasharray:none;stroke-dashoffset:0;marker:none;visibility:visible;display:inline;overflow:visible;enable-background:accumulate"></path><path d="M683.018-141.498c-6.477 12.761-8.32 27.428-16.328 39.556-14.924 28.457-40.454 50.93-50.66 81.855-3.584 15.852 6.546 1.73 6.292-5.899 13.932-30.604 40.138-53.855 53.225-85.047 2.419-8.353 11.907-23.54 7.47-30.465z" style="font-size:medium;font-style:normal;font-variant:normal;font-weight:400;font-stretch:normal;text-indent:0;text-align:start;text-decoration:none;line-height:normal;letter-spacing:normal;word-spacing:normal;text-transform:none;direction:ltr;block-progression:tb;writing-mode:lr-tb;text-anchor:start;baseline-shift:baseline;color:#000;fill:#000;fill-opacity:1;stroke:none;stroke-width:4;marker:none;visibility:visible;display:inline;overflow:visible;enable-background:accumulate;font-family:Sans;-inkscape-font-specification:Sans" transform="translate(297.857 632.654)"></path><path d="M969.669 577.035c-6.957 2.248-19.478 14.117-23.183 20.268-12.314 20.444-23.07 37.129-13.327 66.775 1.586 4.825 3.71 11.138 6.663 14.091 4.328 4.328-10.335 9.566-11.869 10.759-7.84 6.098-60.714 2.632-44.839 26.446 15.767 23.652 35.795 2.377 55.32 8.885 8.285 2.762 15.389 3.82 23.53 4.72 16.042 1.774 54.913 2.954 59.831-4.79.325-.511-20.341-16.949-22.003-16.45-1.82.546-19.69 9.41-26.271 7.034 3.023-.444 3.68-1.387 4.616-1.898 3.885-2.12 7.73-4.745 10.897-7.913 15.04-15.04 37.17-29.188 39.216-51.018" style="color:#000;fill:none;stroke:#000;stroke-width:4;stroke-linecap:round;stroke-linejoin:round;stroke-miterlimit:4;stroke-opacity:1;stroke-dasharray:none;stroke-dashoffset:0;marker:none;visibility:visible;display:inline;overflow:visible;enable-background:accumulate"></path><path d="M660.112 70.877c-8.155.315-15.621 4.064-23.596 5.39-2.144.404-4.325.654-6.51.612-1.615-1.496-5.986-.48-4.632 2.18 1.57 2.202 4.594 1.764 6.943 1.729 9.045-.483 17.37-4.574 26.27-5.847 2.876-.038 4.932 2.3 7.193 3.729 2.751 1.992 5.575 3.989 8.805 5.126 1.576 1.841 5.17-.616 3.512-2.653-1.84-1.636-4.654-1.545-6.48-3.268-3.763-2.429-7.082-5.773-11.505-6.998zm52.125 9.187a2 2 0 0 0-1.25.563c-.524.5-1.315 1.316-2.125 2.094-.81.778-1.777 1.54-1.875 1.593-.994.542-3.527 1.498-4.938 2.125-.353.157-.6.262-1 .532-.1.067-.194.124-.375.312-.18.189-.62.547-.594 1.5.013.476.248 1.006.532 1.313.284.306.556.422.75.5.387.154.566.148.718.156.611.031.865-.028 1.407-.125.541-.097 1.252-.261 2.187-.469 1.506-.334 3.639-.526 5.656-.719 2.018-.192 3.838-.31 5.344-.812a2.011 2.011 0 0 0-1.281-3.813c-.11.037-.672.085-.875.125.207-1.054.407-2.431-.438-3.875a2 2 0 0 0-1.843-1zm-23.469.032a2 2 0 0 0-1.594 2.656c2.391 7.142 9.063 12.738 12.438 16.406a2.001 2.001 0 0 0 2.937-2.719c-3.7-4.023-9.744-9.443-11.594-14.968a2 2 0 0 0-2.187-1.375z" style="font-size:medium;font-style:normal;font-variant:normal;font-weight:400;font-stretch:normal;text-indent:0;text-align:start;text-decoration:none;line-height:normal;letter-spacing:normal;word-spacing:normal;text-transform:none;direction:ltr;block-progression:tb;writing-mode:lr-tb;text-anchor:start;baseline-shift:baseline;color:#000;fill:#000;fill-opacity:1;stroke:none;stroke-width:4;marker:none;visibility:visible;display:inline;overflow:visible;enable-background:accumulate;font-family:Sans;-inkscape-font-specification:Sans" transform="translate(297.857 632.654)"></path><path d="M875.325 497.821c2.321 12.842 25.179.92 29.638-2.29" style="color:#000;fill:#673701;fill-opacity:1;stroke:#000;stroke-width:4;stroke-linecap:round;stroke-linejoin:round;stroke-miterlimit:4;stroke-opacity:1;stroke-dasharray:none;stroke-dashoffset:0;marker:none;visibility:visible;display:inline;overflow:visible;enable-background:accumulate"></path><path d="M1075.094 703.875c-2.715.223-5.097 3.453-7.563 4.094-.21.061-.414.093-.625.125-8.283 5.334-12.25 11.781-12.25 11.781s11.942 5.782 19.625 7.063c-1.368 5.7 2.439 5.605 10.719 8.562 16.099 5.75 19.587-3.532 28.625-9.344-.939-1.594-2.636-3.23-5.031-5.062-1.374-1.051-3.658-3.376-5.25-3.907-4.07-1.356-8.781-.234-12.406-1.593-5.742-2.154-8.52-9.989-14.657-11.625a3.46 3.46 0 0 0-1.187-.094z" style="color:#000;fill:#4e0400;fill-opacity:1;fill-rule:nonzero;stroke:none;stroke-width:4;marker:none;visibility:visible;display:inline;overflow:visible;enable-background:accumulate"></path><path style="color:#000;fill:none;stroke:none;stroke-width:4;marker:none;visibility:visible;display:inline;overflow:visible;enable-background:accumulate" d="M998.656 425.313c-5.106.034-13.309 11.805-15.125 13.937-12.866 15.105-20.873 28.097-40.187 36.375-4.667 2-8.15 10.832-12.969 13.938-20.82 40.686-31.53 96.862-36.875 126.5-4.526 4.526-8.69 6.118-5.969 14.28 2.617 7.852 10.236 9.988 12.782 17.626 6.546 19.641-6.509 21.74 13.125 41.375.691.691 1.361 1.75 2.156 2.906-17.429 2.726-44.421 5.196-32.469 23.125 15.767 23.651 35.788 2.366 55.313 8.875 8.285 2.762 15.39 3.819 23.53 4.719 16.042 1.773 54.895 2.962 59.813-4.782.325-.511-20.338-16.935-22-16.437-1.82.546-17.285 12.167-25.555 6.944.89-.266 2.963-1.308 3.899-1.819 3.886-2.12 7.739-4.739 10.906-7.906.555-.555 1.146-1.104 1.719-1.657 18.849 2.217 53.735 2.59 66.281 2.688 9.654.761 9.1-.618 13.906-.188-11.019 5.564-16.28 14.063-16.28 14.063s11.941 5.782 19.624 7.063c-1.369 5.7 2.439 5.605 10.719 8.562 18.439 6.585 20.327-6.537 32.969-11.594 2.941-1.176 14.03 4.506 17.562 5.469 10.382 2.831 25-.469 36.25-.469 26.639-1.246 41.797 2.319 69.75-1.312 6.708-.872 19.137-4.168 23.657-8.688 14.685-14.686 13.15-56.616 8.625-75.625-2.06-8.648-18.688-41.742-18.688-43.218 0-.084 4.073 6.363 7.656 10.843 4.034 5.042 6.023 10.118 7.844 16.188 4.582 15.275 6.733 38.825 18.531 49.312 1.82 1.619 14.413 12.771 15.063 8.469.23-1.521-5.784-20.276-5.438-25.656-1.736-8.682-.134-17.725-2.843-26.313-11.795-37.38-39.64-55.341-79.875-70.531-8.64-3.262-24.962-3.458-42.438-3.813-46.263-.938-94.315 7.183-126.469 6.375-17.998-13.17-28.178-11.428-44.531-15.343-4.503-40.74 26.622-103.318-2.5-123.907-.452-.27-.94-.378-1.469-.375z"></path><path d="M1004.15 448.816c-3.141 16.477-11.916 33.306-27.348 41.023-17.003 8.501-39.451 1.886-40.397 1.735-7.082-1.133-8.356-2.307-12.007-1.18-14.434 4.455-56.037 12.063-63.336-4.967-.79-1.843-1.784-4.728-1.701-7.11.216-6.216 41.004-28.116 51.036-31.763 2.53-.92 4.724-1.849 5.74-2.87.192-1.887 1.094-5.367 1.736-7.293 1.37-4.112 6.654-11.231 9.093-14.646 15.643-20.942 65.47-26.643 73.019-5.9" style="color:#000;fill:#844e00;fill-opacity:1;stroke:#000;stroke-width:4;stroke-linecap:round;stroke-linejoin:round;stroke-miterlimit:4;stroke-opacity:1;stroke-dasharray:none;stroke-dashoffset:0;marker:none;visibility:visible;display:inline;overflow:visible;enable-background:accumulate"></path><path d="M972.533 408.063c23.187-33.094 71.718-27.004 103.698-44.772 9.148-5.082 38.731-18.895 38.731-30.055 0-1.28 2.537.416 3.817.416 1.736 0-3.35-.976-5.027-1.423-2.101-.56-9.963-5.901-11.7-7.67-3.648-3.714-16.595-27.279-11.93-37.734.16-.16 5.74 12.582 6.308 13.717 2.049 4.1 22.34 27.775 28.18 21.935 2.455-2.456 14.688-42.897 15.409-42.897 1.817 0-2.539 28.85-3.054 31.582-1.18 6.257-4.72 13.614-4.72 13.05 13.169 1.637 35.87-22.185 38.661-22.976.575 0-7.572 14.108-8.606 15.271-6.524 7.34-14.96 17.284-26.654 17.284-2.455 0-5.616-.01-8.468-.416-2.2 2.367-6.091 10.332-10.342 14.09-7.312 6.464-30.569 32.416-37.828 32.416-1.305 0 7.54 4.373 10.689 4.373 7.18 0 12.05-.993 18.532-4.234 8.752-4.376 5.366-29.39 8.399-25.058 4.379 6.256 5.138 17.626 1.666 24.572-12.236 24.473-38.875 19.015-56.083 6.108-3.352-2.514-15.31 2.925-18.88 3.818-19.746 4.937-41.62 11.655-56.291 23.392-1.964 1.57-8.108 6.816-11.661 3.262-3.495-3.494-2.96-8.795-2.29-4.442l-.556-3.61z" style="color:#000;fill:#673701;fill-opacity:1;stroke:none;stroke-width:4;marker:none;visibility:visible;display:inline;overflow:visible;enable-background:accumulate"></path><path d="M1000.332 433.736c8.478-10.983 20.595-7.751 32.414-11.297 4.46-1.338 9.448-1.868 13.674-3.679 6.169-2.644 13.793-5.029 16.901-11.245 1.079-2.157 1.729-2.688 3.47-6.75-.694-1.639-11.694-5.204-13.933-1.614-7.187 11.525-61.604 14.516-52.526 34.585z" style="color:#000;fill:#4e0400;fill-opacity:1;stroke:#000;stroke-width:4;stroke-linecap:round;stroke-linejoin:round;stroke-miterlimit:4;stroke-opacity:1;stroke-dasharray:none;stroke-dashoffset:0;marker:none;visibility:visible;display:inline;overflow:visible;enable-background:accumulate"></path><path d="M1101.531 322.438c-.371.325.662 1.796 1.844 3.25 2.859 2.269 8.615 6.062 10.375 6.53 1.677.447 6.766 1.438 5.031 1.438-1.106 0-3.152-1.263-3.687-.781 5.175 1.42 8.19 2.341-.157 10.688-11.706 11.707-28.196 22.582-43.03 30-5.359 2.679-12.67 2.724-18.47 4.062-18.55 4.28-50.842 13.34-65.968 25.281-4.673 3.69-8.846 7.949-12.782 12.406.216.273.43.555.688.813 3.554 3.554 9.693-1.71 11.656-3.281 14.671-11.738 36.567-18.439 56.313-23.375 3.57-.893 15.523-6.327 18.875-3.813 10.262 7.697 23.866 12.744 35.781 10.375.314-.257.622-.528.906-.812 2.426-2.427-14.363-2.457-15.094-2.594-2.388-.448-13.123-10.688-8.937-12.781 2.826-1.413 7.495-1.156 10.594-3.063 9.637-6.84 24.627-23.155 30.781-28.781 1.9-3.433 4.01-6.644 6.719-8.75.103-.08.266-.188.406-.281 1.507-2.37 2.846-4.554 3.812-5.594 2.852.406 6.014.406 8.47.406 3.496 0 6.674-.901 9.624-2.344.472-.447.932-.984 1.406-1.593.164-.21 1.265-1.022 1.094-1.25-5.449 1.293-11.547 1.48-17.953.837-1.23-.123 7.096-18.843 6.211-17.94-.949.967-10.17 17.208-13.105 16.96-6.505-.549-14.527-3.058-21.403-6.014z" style="color:#000;fill:#4e0400;fill-opacity:1;fill-rule:nonzero;stroke:none;stroke-width:4;marker:none;visibility:visible;display:inline;overflow:visible;enable-background:accumulate"></path><path d="M876.387 481.137c-4.567.905-1.889 2.85-.63 2.893 7.56.255 3.661-4.197.63-2.893z" style="color:#000;fill:#844e00;fill-opacity:1;fill-rule:nonzero;stroke:#000;stroke-width:4;stroke-linecap:round;stroke-linejoin:round;stroke-miterlimit:4;stroke-opacity:1;stroke-dasharray:none;stroke-dashoffset:0;marker:none;visibility:visible;display:inline;overflow:visible;enable-background:accumulate"></path><path d="M640.42-184.314c-8.76 8.088-45.89 19.972-45.88 25.856 14.915-6.726 38.81-15.465 45.88-25.856z" style="font-size:medium;font-style:normal;font-variant:normal;font-weight:400;font-stretch:normal;text-indent:0;text-align:start;text-decoration:none;line-height:normal;letter-spacing:normal;word-spacing:normal;text-transform:none;direction:ltr;block-progression:tb;writing-mode:lr-tb;text-anchor:start;baseline-shift:baseline;color:#000;fill:#000;fill-opacity:1;fill-rule:nonzero;stroke:none;stroke-width:4;marker:none;visibility:visible;display:inline;overflow:visible;enable-background:accumulate;font-family:Sans;-inkscape-font-specification:Sans" transform="translate(297.857 632.654)"></path><path d="M648.34-189.701c-.543-1.525-.551-1.62-.311-2.66 1.637-7.095 11.514-5.102 16.135-3.37 3.15 1.182 7.258.721 6.915 1.065-6.617 6.617-17.23 21.89-22.74 4.965z" style="color:#000;fill:#b1b1b1;fill-opacity:1;fill-rule:nonzero;stroke:none;stroke-width:4;marker:none;visibility:visible;display:inline;overflow:visible;enable-background:accumulate" transform="translate(297.857 632.654)"></path><path d="M649.216-192.264c-.384.347-.76.747-.93 1.494-.169.747.208 1.719.677 2.141.937.846 1.68.803 2.508.874.828.07 1.733.062 2.62-.028.89-.09 1.755-.242 2.537-.48.783-.237 1.584-.29 2.283-1.55.35-.628.279-1.738-.113-2.31-.391-.572-.837-.812-1.296-1.043-3.287-1.447-5.345-1.695-8.286.902z" style="font-size:medium;font-style:normal;font-variant:normal;font-weight:400;font-stretch:normal;text-indent:0;text-align:start;text-decoration:none;line-height:normal;letter-spacing:normal;word-spacing:normal;text-transform:none;direction:ltr;block-progression:tb;writing-mode:lr-tb;text-anchor:start;baseline-shift:baseline;color:#000;fill:#000;fill-opacity:1;fill-rule:nonzero;stroke:none;stroke-width:4;marker:none;visibility:visible;display:inline;overflow:visible;enable-background:accumulate;font-family:Sans;-inkscape-font-specification:Sans" transform="translate(297.857 632.654)"></path><path d="M655.012-199.005c-5.076.014-9.82 4.827-7.945 10.03 1.516 4.204 4.849 8.145 9.928 6.702 6.26-1.722 9.964-5.656 14.418-9.897 3.177-3.664-2.872-4.237-5.407-4.557-3.666-.462-7.179-2.289-10.994-2.278zm-.084 2.022c3.232.502 11.95 3.57 13.856 4.26-2.718 3.142-10.12 8.682-13.874 8.903-4.106-.11-7.677-6.636-5.943-10.164.796-1.62 4.227-3.269 5.961-3z" style="font-size:medium;font-style:normal;font-variant:normal;font-weight:400;font-stretch:normal;text-indent:0;text-align:start;text-decoration:none;line-height:normal;letter-spacing:normal;word-spacing:normal;text-transform:none;direction:ltr;block-progression:tb;writing-mode:lr-tb;text-anchor:start;baseline-shift:baseline;color:#000;fill:#000;fill-opacity:1;stroke:none;stroke-width:4;marker:none;visibility:visible;display:inline;overflow:visible;enable-background:accumulate;font-family:Sans;-inkscape-font-specification:Sans" transform="translate(297.857 632.654)"></path><path d="M993.877 446.248c7.098-4.987 5.382-18.906 12.285-23.948 7.487-5.468 18.709-9.837 31.651-12.494 9.725-1.997 17.77-13 17.77-12.494-22.598-1.518-53.156 8.49-67.05 26.307" style="color:#000;fill:#844e00;fill-opacity:1;stroke:#000;stroke-width:4;stroke-linecap:round;stroke-linejoin:round;stroke-miterlimit:4;stroke-opacity:1;stroke-dasharray:none;stroke-dashoffset:0;marker:none;visibility:visible;display:inline;overflow:visible;enable-background:accumulate"></path><path style="color:#000;fill:none;stroke:#000;stroke-width:4;stroke-linecap:round;stroke-linejoin:round;stroke-miterlimit:4;stroke-opacity:1;stroke-dasharray:none;stroke-dashoffset:0;marker:none;visibility:visible;display:inline;overflow:visible;enable-background:accumulate" d="M972.533 408.063c23.187-33.094 71.718-27.004 103.698-44.772 9.148-5.082 38.731-18.895 38.731-30.055 0-1.28 2.537.416 3.817.416 1.736 0-3.35-.976-5.027-1.423-2.101-.56-9.963-5.901-11.7-7.67-3.648-3.714-16.595-27.279-11.93-37.734.16-.16 5.74 12.582 6.308 13.717 2.049 4.1 22.34 27.775 28.18 21.935 2.455-2.456 14.688-42.897 15.409-42.897 1.817 0-2.539 28.85-3.054 31.582-1.18 6.257-4.72 13.614-4.72 13.05 13.169 1.637 35.87-22.185 38.661-22.976.575 0-7.572 14.108-8.606 15.271-6.524 7.34-14.96 17.284-26.654 17.284-2.455 0-5.616-.01-8.468-.416-2.2 2.367-6.091 10.332-10.342 14.09-7.312 6.464-30.569 32.416-37.828 32.416-1.305 0 7.54 4.373 10.689 4.373 7.18 0 12.05-.993 18.532-4.234 8.752-4.376 5.366-29.39 8.399-25.058 4.379 6.256 5.138 17.626 1.666 24.572-12.236 24.473-38.875 19.015-56.083 6.108-3.352-2.514-15.31 2.925-18.88 3.818-19.746 4.937-41.62 11.655-56.291 23.392-1.964 1.57-8.108 6.816-11.661 3.262-3.495-3.494-2.96-8.795-2.29-4.442l-.556-3.61z"></path><path d="M1002.518 393.625c5.617-13.486 2.894-29.466 3.956-42.516 5.233 12.323 6.466 33.8 2.638 47.097-2.577.799-6.618 1.048-6.594-4.581z" style="color:#000;fill:#673701;fill-opacity:1;stroke:#000;stroke-width:4;stroke-linecap:round;stroke-linejoin:round;stroke-miterlimit:4;stroke-opacity:1;stroke-dasharray:none;stroke-dashoffset:0;marker:none;visibility:visible;display:inline;overflow:visible;enable-background:accumulate"></path><path d="M597.987-31.686c-4.393 10.647-.18 22.327 2.466 32.843.058 4.942 11.77 14.57 6.738 5.961-6.07-9.442-8.675-24.314-7.7-35.274-.22-1.592-.138-2.622-1.504-3.53z" style="font-size:medium;font-style:normal;font-variant:normal;font-weight:400;font-stretch:normal;text-indent:0;text-align:start;text-decoration:none;line-height:normal;letter-spacing:normal;word-spacing:normal;text-transform:none;direction:ltr;block-progression:tb;writing-mode:lr-tb;text-anchor:start;baseline-shift:baseline;color:#000;fill:#000;fill-opacity:1;stroke:none;stroke-width:4;marker:none;visibility:visible;display:inline;overflow:visible;enable-background:accumulate;font-family:Sans;-inkscape-font-specification:Sans" transform="translate(297.857 632.654)"></path><path d="M703.018-86.123c-12.377 8.471-25.656 15.61-39.496 21.382-7.685 3.035 1.546 3.74 6.468 1.734 11.87-6.031 26.498-11.204 36.948-19.607 1.02-1.204-2.29-3.705-3.92-3.51zm47.844 17.563c-4.538.7-.9 11.831-2.327 17.47-2 7.9-3.563 13.697-7.027 21.018 1.842 3.601 6.996-8.014 6.907-7.393 4.166-10.1 6.645-19.079 4.348-29.978-.336-.693-1.095-1.268-1.901-1.118zm95.5 92c-5.585 4.85 6.215 4.436 9.359 5.36 6.32 1.11 12.452 4.399 15.688 10.118 6.975 8.497 14.165 16.998 23.046 23.584-13.373 6.253-28.515 3.878-42.78 4.223-23.887-.425-48.133-3.322-71.766 1.293-3.457.423-14.574 3.61-8.834 7.39 6.565-2.142 15.165 1.634 18.588 7.608-4.909 3.899-13.874 7.581-14.156 14.105 4.917 1.402 7.43-5.966 11.796-7.862 4.457-3.129 10.453-7.912 15.594-3.44 5.33 1.673 8.608 8.178 13.346 9.257 3.076-5.368-5.412-8.742-9.22-11.185-6.956-3.973 4.936-4.093 7.78-4.546 22.306-1.936 44.716 3.771 66.94-.173 13.954-1.722 27.856-3.912 41.868-5.139 1.109-8.038-11.536-1.376-15.047-6.572-5.381-2.86-9.81-7.203-14.863-10.581-9.92-8.012-16.88-18.95-25.963-27.751-6.32-4.146-14.089-4.744-21.376-5.69zm51.406 41.562c1.802 2.845 9.492 3.961 8.615 7.124-15.496 1.658-30.98 4.5-46.648 4.43-19.068-.01-38.58-4.397-57.332.98-4.742 1.455-8.567 4.555-11.992-.622-1.805-1.387-12.001-5.468-4.833-5.875 33.161-4.506 66.647 2.53 99.826-1.325 4.372-.743 8.694-2.171 12.364-4.712z" style="font-size:medium;font-style:normal;font-variant:normal;font-weight:400;font-stretch:normal;text-indent:0;text-align:start;text-decoration:none;line-height:normal;letter-spacing:normal;word-spacing:normal;text-transform:none;direction:ltr;block-progression:tb;writing-mode:lr-tb;text-anchor:start;baseline-shift:baseline;color:#000;fill:#000;fill-opacity:1;fill-rule:nonzero;stroke:none;stroke-width:4;marker:none;visibility:visible;display:inline;overflow:visible;enable-background:accumulate;font-family:Sans;-inkscape-font-specification:Sans" transform="translate(297.857 632.654)"></path><path d="M435.268 73.69c-.001 0-.41.006-.531.03-.242.05-.324.12-.407.157-.166.075-.225.09-.28.125-.112.07-.183.136-.25.187-.137.102-.293.2-.47.344-.352.288-.812.706-1.375 1.188a304.784 304.784 0 0 0-4.093 3.593c-1.5 1.336-3.022 2.687-4.22 3.813a54.814 54.814 0 0 0-1.53 1.5c-.41.416-.602.521-1 1.219a2 2 0 0 0 3.375 2.125 2 2 0 0 0 3.156.812c.283-.238.334-.318.5-.5.166-.182.366-.394.594-.656.454-.525 1.017-1.203 1.625-1.938 1.215-1.468 2.573-3.143 3.437-4.343.93-1.293 1.566-2.494 2.281-3.47-.181.249-.019.007.063-.093.081-.1.201-.23.312-.375.111-.145.211-.31.344-.531.067-.11.151-.202.25-.5.05-.15.143-.344.125-.75-.017-.406-.29-1.184-.906-1.594l-1-.344zm4.875-9.188a2 2 0 0 0-.406 3.875c2.147.797 5 1.72 7.593 2.75 2.594 1.03 4.959 2.303 5.657 3.031a2 2 0 1 0 2.875-2.75c-1.71-1.785-4.272-2.903-7.032-4s-5.71-2.036-7.718-2.781a2 2 0 0 0-.97-.125z" style="font-size:medium;font-style:normal;font-variant:normal;font-weight:400;font-stretch:normal;text-indent:0;text-align:start;text-decoration:none;line-height:normal;letter-spacing:normal;word-spacing:normal;text-transform:none;direction:ltr;block-progression:tb;writing-mode:lr-tb;text-anchor:start;baseline-shift:baseline;color:#000;fill:#000;fill-opacity:1;stroke:none;stroke-width:4;marker:none;visibility:visible;display:inline;overflow:visible;enable-background:accumulate;font-family:Sans;-inkscape-font-specification:Sans" transform="translate(297.857 632.654)"></path></g></svg>