<svg xmlns="http://www.w3.org/2000/svg" width="400" height="300" xmlns:cgf="https://coding.garden/flags"><metadata id="cgf-metadata">

<cgf:flag>
  <cgf:name></cgf:name>
  <cgf:route>gb/ken</cgf:route>
  <cgf:aspect-ratio>1.3333333333333333</cgf:aspect-ratio>
</cgf:flag>

</metadata><path fill="#d40000" d="M0 0h400v300H0z"></path><path d="M202.438 25.063c-1.628.644-2.595 2.607-4.563 3.156-5.516 1.58-7.575 4.081-6.156 7.562.549.937 1.045 2.063 1.594 3.094.468.937.615 1.884.375 2.594-1.041 7.818-.884 13.34-13.48 19.343-10.423 5.91-10.822 12.055-5.8 16.849 8.018 5.374 15.39-5.664 22.665-.474.448.803-8.186 6.729-17.48 12.094-3.935 1.955-5.269 3.482-9.124 1.5-3.387-1.727-8.985-4.81-16.938-9.469-6.536-4.566-9.589-5.478-16.966-6.415-14.146 1.09-29.125 10.128-35.292 20.655.162 11.087-.486 11.12 10.331 4.708 1.58-1.352.155-2.918 1.655-4.337 4.645-4.498 14.637-10.232 22.262-11.362 12.24 9.506 16.574 18.097 25.7 26.96-1.348 2.712-9.722 4.858-15.315 5.791-6.466 1.192-11.582 3.789-13.562 8.594-2.345 5.69-2.2 13.039-1.25 21.406 1.298 13.506 7.663 23.247 18.594 31.094 8.97 3.869 3.16-15.726-.924-15.616-2.905-3.949-3.894-7.738-5.702-12.477-2.45-6.306-.588-16.427 2.799-20.297 12.35 3.249 14.782 1.696 22.388 2.224 3.997 6.189 8.285 12.373 12.724 18.219 1.097 1.445 1.363 3.39 1.152 4.416-.16 1.03-.63 1.741-1.406 1.969-6.614 1.981-12.643 5.096-12.362 11.06.396 8.433 17.546 26.042 11.822 28.558-11.694 5.139-21.559 15.567-29.794 26.095-1.178 10.349 1.955 14.31 2.99 14.1 1.074-1.039 6.59-4.958 7.649-6.668 1.752-2.828-.837-3.84 1.956-6.91 7.484-7.337 13.815-14.991 23.655-19.972.63-.308 9.418-2.327 9.9-2.408 6.09-2.129 8.029-4.605 7.649-6.025-3.48-8.7 1.403-5.534 7.066-2.455 3.24 7.76 8.344 14.553 14.031 20.75 5.516 5.676 12.424 12.823 13.531 15.687 3.183 8.228 1.761 13.789.72 24.531-.687 7.07-3.387 9.83-9.795 17.746.254 5.463 1.042 7.522 2.301 8.097 7.017-2.474 5.966-1.955 6.867-2.876.98-1.002 2.74-7.087 3.536-8.17 10.23-13.91 6.669-28.427 8.693-38.293 1.42-9.238 1.231-18.38-1.446-24.379 2.677-6.399 4.24-14.606 4.562-24.312.08-1.017 1.036-1.728 2.938-1.969 4.953 1.017 9.608-9.427 11.04-8.477 3.29 1.136-2.554 13.63-2.822 17.165-.846 9.65.739 13.992 6.4 22.672 1.641 3.793 5.12 7.601 6.254 8.577 1.66 3.108 4.786 8.31 7.523 11.352 3.75-9.21 6.993-12.414 7.073-24.57 0-.469-.77-7.509-.622-8.138 2.52-3.45 1.532-2.578-1.159-18.206-.228-6.854-2.08-9.581.517-13.771 4.092-7.878 5.147-18.632 1.58-25.763-2.1-4.198-4.803-11.245-14.414-11.245-6.92 0-15.154 2.25-15.222 28.595-.014 5.372-7.506 10.04-12.006 6.524-9.338-7.637-18.35-19.2-25.31-29.176-3.347-5.615 2.39-9.236 8.386-10.226 5.744 3.628 11.738 2.689 16.063-4.031 5.12-8.013 4.757-15.743 5.39-24.148.465-6.155 1.137-11.892 1.742-16.624.752-5.874.283-12.322-1.398-19.076-.233-4.824-1.435-6.374-10.147-13.413-1.93-3.031-6.036-8.65-11.665-10.49-4.644-4.3-6.639-9.358-13.227-9.777-7.327-3.864-14.376-3.446-18.726-1.723zm76.085 127.977c4.445 1.322 3.849 9.611.85 9.443-2.491-.14-8.176 7.805-9.296 6.813-2.41-2.134 4.4-15.196 8.446-16.256z"></path><path d="M249.697 166.173c-9.086-9.446-19.977-19.745-27.363-32.551l-2.332-.833c-1.807 2.839-4.096 5.128-6.935 6.855-2.436 1.58-5.904 1.82-10.469.79-7.952-1.888-15.115-4.646-21.501-8.435-1.58 1.259-1.259 2.919 1.178 5.048.71.71 1.03 1.5.71 2.289-1.42 4.016-2.839 3.16-4.485-2.838-.87-3-3-4.499-6.614-4.499 2.356 5.838 5.355 10.965 8.823 15.624 3.45 5.146 8.174 9.567 12.839 13.723-2.758-2.597-4.338-6.226-4.887-10.965 8.132 4.517 12.605 13.44 20.792 17.686 2.643 1.834 5.41 1.154 8.26.629-2.833 6.786-4.826 13.332-3.925 18.862 2.431 14.913 15.815 27.645 25.413 37.021 3.146 5.47 3.74 11.09 2.925 20.449-.441 5.07-.632 10.152-1.573 12.523-2.054 5.175-5.452 10.038-8.598 13.987-.432.707.05 5.245.662 5.068 1.863-.687 5.712-.836 5.934-3.58.39-4.807 6.372-11.841 7.407-15.51 1.887-6.319 1.45-7.107 2.159-14.926.482-6.238.93-13.775-.02-16.774-2.056-3.382-5.07-6.152-6.761-9.767-2.124-5.56-1.234-11.67 0-16.902 2.397-8.945 5.987-5.34 8.012-13.823 1.346-5.637 1.996-13.783.349-19.151z" fill="#fff"></path><path d="M209.219 37.281c-1.494.091-2.753.606-3.688 1.594-4.498 2.597-8.05 6.22-10.5 10.719-2.758 5.06-6.698 8.93-11.812 11.781-1.42.79-2.831 1.478-4.25 2.188-4.58 2.16-9.937 8.655-2.889 12.62-.06-.407 8.402-3.833 8.974-4.077.533-.228.859.43 1.13.777-2.279.827-9.087 4.283-9.088 4.376 1.942 2.082 18.183-4.853 23.779-6.353.549 0 .929.099 1.25.406 6.212 4.58 10.872 3.48 14.031-3.468 2.839-2.919 3.518-6.024 2.031-9.344-1.58-3.708-3.996-6.371-7.156-8.031-4.404-2.45-5.758-5.305-4.031-8.532 5.104 2.589 12.743 7.564 13.938 13.657 2.096 6.612 1.827 15.658-5.125 19.031-4.726 1.74-9.578 3.38-14.625 4.813-1.969.629-3.93 1.495-5.657 2.593-6.854 4.499-13.725 8.926-20.5 13.344-2.918-.228-5.286-1.01-7.094-2.281-7.799-3.99-23.717-17.112-32.53-15.938-13.533 2.417-24.771 7.85-32.032 19.719v3.938c-.08.71.16 1.129.469.968.16-.16 3.656-1.505 4.687-2.375 1.567-1.272.112-1.822 1.531-3.469 3.42-5.209 22.887-17.077 27.782-12.812 6.987 6.088 11.09 12.634 23.656 23.281 1.727 1.74 2.674 2.861 3.156 1.281 1.567-4.9 3.993-6.463 7.219-4.656-1.807 2.691-2.978 5.818-3.688 9.219l-.093.719c2.209-4.03 4.97-7.327 8.437-9.938 6.373-.24 7.32 1.104 2.594 3.781-7.404 4.11-6.693 6.407 1.969 6.876 1.03 0 1.973.067 2.844.374 2.516.79 2.512 1.273.156 1.5-8.194.71-11.543-1.535-18.625-.906-9.915 4.41-20.765 3.8-28.031 8.844-2.012 1.396-4.224 7.546-4.157 11.563.072 8.384 1.068 17.804 4.156 24.78.362 1.254 9.641 16.448 14.188 15.75-.843-11.19-3.925-7.514-5.344-10.124-2.128-3.548-3.835-7.18-5.094-10.969-3.547-9.947-2.588-19.577 1.97-25.906 1.817-2.525 9.894 1.716 19.53 1.469 6.47-.167 15.097-.916 22.97-1.063 8.402 7.413 25.43 15.321 31.35 2.082 2.678-12.317 7.465-21.731 17.4-26.55 2.571.945 2.03 3.053.78 5.28-1.032 1.841 2.768 3.006 2.688 5.376-.388 8.447 2.042 10.493 7.25 6.156 4.947-8.303 3.099-16.706-4.563-22.969-.629-2.048-.236-2.857 1.25-2.375 3 1.258 5.586 3.068 7.875 5.438.47.481.813 1.044.813 1.593.308 6.788 1.072 8.289 2.25 4.5-.047-1.844.433-3.766.563-5.531-2.437-4.431-4.64-9.234-6.688-14.281-1.424.108-2.103-.67-2.844-1.563 4.566-.562 7.47.917 8.969 4.625.95 2.29 1.527 1.82 1.688-1.5.08-2.838-.255-4.889-1.125-6.469-.389-.79-.849-1.321-1.25-1.562-4.726-2.678-6.616-5.684-5.438-8.844 5.596 3.95 8.2 2.918 7.813-3-.08-1.03-.411-1.59-.72-1.75-3.226-1.419-6.076-2.813-8.593-4.312.857-1.821 2.836-2.76 6.063-3 1.98-.08 2.28-1.336.78-3.625-2.677-4.19-5.89-5.062-9.905-2.625-4.178-.228-5.285.33-3.157 1.75 1.883 2.997 2.256 6.925 2.125 10.406-.71 19.975-9.028 33.328-24.062 39.406-6.184 3.564-12.045 4.745-19.094 3.438.241-3.24 2.832-4.58 7.719-4.031 3.775.401 6.92.021 9.437-1.157 16.955-8.507 23.49-25.678 22.656-41.312-.537-10.009-18.2-25.163-27.812-25.313-.222-.003-.443-.013-.656 0zm-1.875 13.625c1.2-.03 1.263.83.156 2.563-.321 1.386-1.188-.031-1.656.437-2.21 2.129-3.085 2.396-3.406-1.312 2.342-1.101 3.972-1.663 4.906-1.688zm5.719 64.344c3.869 2.048 3.078 4.523-2.438 7.281-1.42.71-2.357 1.898-3 3.625-1.178 3.709-3.457 5.987-6.844 6.938-1.58.401-1.955-.385-1.406-2.594 2.986-6.158 7.082-11.135 12.438-14.844.401-.308.78-.406 1.25-.406z" fill="#fff"></path><path d="M241.343 48.726c1.04-3.034-2.572-5.4-5.355-5.998-4.807.643-7.324-.629-7.632-3.855 1.406-3-.629-4.74-6.225-5.141-1.968-.148-3.628.16-5.128.79-2.516 1.352-2.905.401-1.258-2.598.447-4.763-5.144-4.222-8.742-3.789.95 1.031 1.419 2.598 1.58 4.58-.08 1.017.08 1.579.24 1.579 11.019 2.437 19.051 7.578 24.018 15.302 2.919 4.499 4.954 4.499 6.146-.08 1.017 0 1.807-.228 2.356-.79zm5.194 158.407c1.192-6.64-.28-8.568-3.427-5.168-.71 5.677.602 10.443 2.65 13.683 3.455 5.61 3.857 5.448 1.26-.55-.951-2.289-1.192-4.9-.483-7.965zm-42.6-171.34c0-6.238-3.066-7.189-9.13-3.079 2.436 5.288 5.194 6.547 8.34 3.789zm30.484 77.892c.696-2.129-2.998-3.622-4.337-2.912-5.516 2.838-6.373 7.879-9.372 13.568-.63 2.21-.241 2.92 1.017 2.13 5.436-2.92 9.693-7.177 12.692-12.786zm31.341 39.615c.469 10.817-4.43 16.628-12.544 18.047 1.098 5.596 5.116 6.97 8.448 1.687 4.096-5.048 7.323-11.046 9.68-17.914 6.753-12.284 15.71-1.116 12.21 9.158-12.233.651-12.932 13.864-16.16 22.88-3.48 10.934 4.33 18.038 8.207 27.392.468-.563.79-1.031.79-1.58 0-1.031-.08-2.062-.08-3.16-.242-2.677-.63-4.82-1.018-6.319-1.58-5.676-1.5-10.094.308-13.415 1.66.79 2.517 2.839 2.597 6.079-1.458 1.847-.968 12.014 1.225 16.124 1.208 4.97-.355 5.356 5.431 13.571 2.692-6.25 3.217-6.853 4.329-10.87 1.566-6.319.756-11.877.127-15.746-1.901-3.24-4.177-5.998-7.015-8.368-3.468-2.999-4.177-6.305-2.13-9.947a7.525 7.525 0 0 1 1.741-1.339c3.066-1.887 3.454-.95 1.098 2.691-.321.55-.549.937-.388 1.098 2.048 3.789 6.01 8.682 9.478 11.36-2.106-4.32-5.402-18.678-5.863-26.033 2.128-3 3.936-6.48 5.435-10.349 1.259-3.066 1.42-7.256.71-12.625-1.204-6.761-6.686-15.124-13.636-14.994-13.053 1.178-13.107 14.849-12.98 22.572zm-58.759 24.553c2.128 2.276 3.306 2.758 3.306 1.42.322-7.578-3.306-11.608-10.938-12.157 0 .549.08.87.308 1.018 3.548 2.142 5.985 5.368 7.324 9.72zm0 7.645c-1.727-3.468-4.084-6.627-7.163-9.626-5.349-2.81-7.085-11.701-12.518-13.656-6.579-3.729-18.56 1.862-14.646 9.947 4.097 6.868 8.624 13.606 11.42 20.912.98 2.561-.562 4.66-2.53 5.69-1.808.87-3.776 1.888-6.065 3.08-9.343 6.026-17.954 13.44-23.39 23.696 0 2.53.242 4.793.63 7.23l1.03.094c1.5-2.049 3.71-2.277 4.968-4.339.539-1.313-.29-3.319.599-4.615 7.117-10.374 23.137-21.407 26.672-24.155 5.542.223 10.383-1.892 14.86-5.1-.929-3.393-4.205-5.808-5.207-8.998.482-3.306 3.24-3.949 8.274-1.66z" fill="#fff"></path></svg>