<svg xmlns="http://www.w3.org/2000/svg" xmlns:xlink="http://www.w3.org/1999/xlink" version="1" width="538" height="339"><defs><radialGradient cx="416.133" cy="119.931" r="24.143" fx="416.133" fy="119.931" id="b" xlink:href="#a" gradientUnits="userSpaceOnUse" gradientTransform="matrix(.7965 0 0 2.9782 84.683 -237.25)"/><linearGradient id="a"><stop offset="0" stop-color="#1a472b"/><stop offset="1" stop-color="#337321"/></linearGradient></defs><path style="marker:none" color="#000" fill="#f9d90f" overflow="visible" d="M0 0h538v339H0z"/><g transform="matrix(.99721 0 0 -.99721 -30.164 308.358)"><g transform="matrix(.77098 0 0 -.77098 -20.827 287.029)" id="e" fill="#337321"><path d="M416.113 48.028c-11.78 17.8-19.213 43.41-19.213 71.924 0 28.513 7.434 54.083 19.214 71.883 11.783-17.8 19.245-43.365 19.245-71.883 0-28.519-7.462-54.124-19.245-71.924z" id="c" fill="url(#b)" fill-rule="evenodd" stroke-width="1.727"/><use transform="rotate(72 414.86 191.572)" width="600" height="300" xlink:href="#c"/><use transform="rotate(-72 417.395 191.556)" width="600" height="300" xlink:href="#c"/><use transform="rotate(-144 415.923 191.487)" width="600" height="300" xlink:href="#c"/><use transform="rotate(144 416.317 191.494)" width="600" height="300" xlink:href="#c"/></g><g transform="matrix(.77098 0 0 -.77098 -22.957 286.524)" id="f"><g id="d" fill-rule="evenodd"><path d="M419.19 303.531c55.127 0 57.162-28.06 50.54-39.531-6.664-11.54-14.913-22.4-22.376-33.594-25.533-40.656-35.19-38.298-57.187 0C382.704 241.6 374.423 252.46 367.76 264c-6.622 11.47-2.23 39.531 51.43 39.531z" fill="#cf142b" stroke="#000" stroke-width=".125"/><g fill="#fff" stroke-width=".375"><path d="M468.088 269.764c.617 8.17-.73 18.443-17.347 22.373-8.064 2.174-18.385-1.937-32.11-1.516-13.724-.421-24.046 3.69-32.11 1.516-16.616-3.93-17.964-14.203-17.346-21.713-.618 6.189.73 16.462 17.346 20.392 8.064 2.174 18.386-1.937 32.11-1.516 13.725-.421 24.046 3.69 32.11 1.516 16.617-3.93 17.964-14.203 17.347-21.052z" fill="#000" transform="translate(.26)"/><path d="M468.088 267.264c.617 8.17-.73 18.443-17.347 22.373-8.064 2.174-18.385-1.937-32.11-1.516-13.724-.421-24.046 3.69-32.11 1.516-16.616-3.93-17.964-14.203-17.346-21.713-.618 6.189 1.235 14.946 17.852 18.876 8.064 2.174 17.711-5.979 31.436-5.558 13.724-.42 23.877 7.732 31.941 5.558 16.617-3.93 18.301-12.687 17.684-19.536z" fill="#87212e" transform="translate(.26)"/></g></g><use transform="rotate(72 418.83 189.797)" width="600" height="300" xlink:href="#d" fill="#144d29"/><use transform="rotate(-72 418.036 189.48)" width="600" height="300" xlink:href="#d"/><use transform="rotate(144 418.872 189.453)" width="600" height="300" xlink:href="#d"/><use transform="rotate(-144 419.14 189.254)" width="600" height="300" xlink:href="#d"/></g><use transform="matrix(.4919 0 0 -.4919 152.43 209.5)" width="600" height="300" xlink:href="#e"/><use transform="matrix(.558 0 0 -.558 132.599 218.07)" width="600" height="300" xlink:href="#f"/><g fill="#f7e017" stroke="#000" fill-rule="evenodd"><g stroke-width="1.244"><path d="M300.857 121.212a3.096 3.096 0 1 1-6.191 0 3.096 3.096 0 1 1 6.191 0zm14.798 31.879a3.096 3.096 0 1 1-6.191 0 3.096 3.096 0 1 1 6.191 0z"/><path d="M310.266 156.288a3.096 3.096 0 1 1-6.191 0 3.096 3.096 0 1 1 6.191 0zm-6.303 1.462a3.096 3.096 0 1 1-6.191 0 3.096 3.096 0 1 1 6.191 0zm-6.759-1.279a3.096 3.096 0 1 1-6.192 0 3.096 3.096 0 1 1 6.192 0z"/><path d="M291.632 153.73a3.096 3.096 0 1 1-6.192 0 3.096 3.096 0 1 1 6.192 0z"/><path d="M287.338 149.255a3.096 3.096 0 1 1-6.191 0 3.096 3.096 0 1 1 6.191 0z"/><path d="M285.237 143.683a3.096 3.096 0 1 1-6.191 0 3.096 3.096 0 1 1 6.191 0z"/><path d="M284.78 137.745a3.096 3.096 0 1 1-6.19 0 3.096 3.096 0 1 1 6.19 0zm1.828-6.485a3.096 3.096 0 1 1-6.192 0 3.096 3.096 0 1 1 6.192 0zm3.836-5.024a3.096 3.096 0 1 1-6.191 0 3.096 3.096 0 1 1 6.191 0z"/><path d="M295.194 122.49a3.096 3.096 0 1 1-6.191 0 3.096 3.096 0 1 1 6.191 0zm11.966-1.278a3.096 3.096 0 1 1-6.191 0 3.096 3.096 0 1 1 6.191 0zm12.332 26.764a3.096 3.096 0 1 1-6.191 0 3.096 3.096 0 1 1 6.191 0zm1.918-6.303a3.096 3.096 0 1 1-6.191 0 3.096 3.096 0 1 1 6.191 0z"/><path d="M321.228 135.462a3.096 3.096 0 1 1-6.192 0 3.096 3.096 0 1 1 6.192 0zm-3.106-6.395a3.096 3.096 0 1 1-6.192 0 3.096 3.096 0 1 1 6.192 0zm-4.932-4.841a3.096 3.096 0 1 1-6.192 0 3.096 3.096 0 1 1 6.191 0z"/></g><path d="M314.786 139.471c0 8.176-6.627 14.803-14.802 14.803s-14.802-6.627-14.802-14.803c0-8.175 6.627-14.802 14.802-14.802s14.802 6.627 14.802 14.802z" stroke-width="1.028"/><path d="M307.255 139.471a7.271 7.271 0 1 1-14.543 0 7.271 7.271 0 0 1 14.543 0z" stroke-width="1.028"/><g stroke="none"><path d="M305.709 144.745c.809-1.25 1.406-2.67 1.406-4.27 0-4.417-3.591-7.982-8.01-7.982-2.002 0-3.767.798-5.17 2.016 1.426-2.202 3.786-3.74 6.603-3.74 4.418 0 8.009 3.591 8.009 8.01 0 2.414-1.145 4.498-2.838 5.966z" fill="#000"/><path d="M300.26 143.861a2.01 2.01 0 1 0-4.019 0 2.01 2.01 0 0 0 4.02 0z" fill="#fff"/></g></g></g></svg>