<svg xmlns="http://www.w3.org/2000/svg" xmlns:xlink="http://www.w3.org/1999/xlink" width="276" height="264" viewBox="-138 -146 276 264" xmlns:cgf="https://coding.garden/flags"><metadata id="cgf-metadata">

<cgf:flag>
  <cgf:name></cgf:name>
  <cgf:route>gb/lan</cgf:route>
  <cgf:aspect-ratio>1.0454545454545454</cgf:aspect-ratio>
</cgf:flag>

</metadata><g transform="rotate(36)"><path id="a" fill="#3b8536" d="M0 0c-15 18-24 43-24 72s9 54 24 72c15-18 24-43 24-72S15 18 0 0z"></path><use xlink:href="#a" transform="rotate(72)"></use><use xlink:href="#a" transform="rotate(144)"></use><use xlink:href="#a" transform="rotate(216)"></use><use xlink:href="#a" transform="rotate(288)"></use><g id="c"><g id="b"><path style="fill:#d60000;stroke:#000;stroke-width:.2" d="M0-115c-53 0-59.73 28.85-52 40L0 0l52-75c7.73-11.15 1-40-52-40z"></path><path d="M0-100c14 0 24-4 32-2 17 4 18 14 18 21 0-8-1-18-18-22-8-2-18 1-32 1s-24-3-32-1c-17 4-18 14-18 22 0-7 1-17 18-21 8-2 18 2 32 2z"></path><path fill="#630000" d="M0-99c14 0 24-4 32-2 17 4 18 15 18 22 0-6-1-15-18-19-8-2-18 6-32 6s-24-8-32-6c-17 4-18 13-18 19 0-7 1-18 18-22 8-2 18 2 32 2z"></path><path d="m0-84-6 16c6-4 6-4 12 0z"></path><path fill="#3c4919" d="M-5-63c0-2 2-4 5-4s5 2 5 4c0 3-3 7-5 10-2-3-5-7-5-10z"></path></g><use xlink:href="#b" transform="rotate(72)"></use><use xlink:href="#b" transform="rotate(144)"></use><use xlink:href="#b" transform="rotate(216)"></use><use xlink:href="#b" transform="rotate(288)"></use></g><use xlink:href="#c" transform="rotate(36) scale(.55)"></use><circle r="20" style="fill:#fff;stroke:#6b2910;stroke-width:1.5;stroke-opacity:.4"></circle><circle r="10" style="fill:#fff;stroke:#6b2910;stroke-width:1.5;stroke-opacity:.4"></circle><g id="d" style="fill:#fff;stroke:#6b2910;stroke-width:1.25;stroke-opacity:.4"><circle r="4" cy="25"></circle><circle r="4" cy="-25"></circle></g><use xlink:href="#d" transform="rotate(20)"></use><use xlink:href="#d" transform="rotate(40)"></use><use xlink:href="#d" transform="rotate(60)"></use><use xlink:href="#d" transform="rotate(80)"></use><use xlink:href="#d" transform="rotate(100)"></use><use xlink:href="#d" transform="rotate(120)"></use><use xlink:href="#d" transform="rotate(140)"></use><use xlink:href="#d" transform="rotate(160)"></use></g></svg>