<svg version="1" xmlns="http://www.w3.org/2000/svg" width="792" height="472" overflow="visible"><path fill="#FFF" d="M0 0h792v471.6H0z"/><ellipse fill="#CD202D" cx="194.941" cy="111.278" rx="96.358" ry="96.243"/><path d="M245.695 181.064l-2.36-.638c-2.149-.581-4.469-.863-7.093-.863-2.789 0-5.638.317-8.393.624-1.349.15-2.744.306-4.119.423a66.36 66.36 0 0 1-5.545.252c-8.709 0-14.558-2.221-17.881-6.791-4.737-6.511-4.95-15.057-4.295-21.08.07-.64.14-1.262.208-1.866.461-4.089.938-8.318-.027-9.397-.077-.086-.312-.349-1.249-.349-.938 0-1.172.263-1.249.349-.966 1.079-.488 5.309-.027 9.398.068.603.138 1.225.208 1.864.656 6.023.442 14.57-4.293 21.081-3.325 4.57-9.174 6.79-17.883 6.79-1.705 0-3.57-.084-5.545-.252a158.575 158.575 0 0 1-4.144-.426c-2.757-.308-5.606-.626-8.397-.626-2.618 0-4.932.282-7.076.861l-2.359.638-.122-2.438c-.265-5.317-2.447-10.13-4.557-14.784-.56-1.235-1.14-2.513-1.676-3.784-4.678-11.082-5-18.795-1.014-24.275 4.735-6.511 12.808-9.354 18.745-10.593.631-.131 1.245-.257 1.842-.378 4.036-.826 8.21-1.68 8.939-2.93.059-.1.235-.404-.054-1.294-.359-1.104-.755-1.185-1.364-1.185-1.734 0-4.782 1.383-8.311 2.985-.554.251-1.125.51-1.712.774-3.523 1.581-8.912 3.467-14.568 3.467-2.422 0-4.72-.347-6.831-1.032-6.45-2.093-10.728-8.523-13.465-20.235-.315-1.35-.6-2.731-.875-4.067-1.03-5.002-2.095-10.175-5.005-14.625l-1.336-2.044 2.284-.869c4.98-1.895 8.89-5.455 12.668-8.896 1.003-.915 2.042-1.86 3.085-2.762 7.216-6.234 13.096-9.139 18.506-9.139a13.9 13.9 0 0 1 4.294.673c7.663 2.487 12.866 9.276 15.879 14.533l.931 1.634c2.124 3.737 4.319 7.603 5.707 7.603.343 0 .766-.255 1.061-.468.758-.551.794-.901.806-1.016.146-1.44-2.729-4.581-5.509-7.618-.411-.449-.833-.911-1.266-1.388-4.075-4.488-8.931-11.527-8.931-19.576 0-6.773 4.799-12.823 15.105-19.042a157.444 157.444 0 0 1 3.602-2.088c4.445-2.525 9.041-5.135 12.38-9.275l1.534-1.901 1.533 1.901c3.344 4.145 7.94 6.757 12.385 9.284 1.181.671 2.402 1.365 3.584 2.079 10.306 6.219 15.106 12.27 15.106 19.042 0 8.048-4.857 15.087-8.932 19.576-.433.477-.855.939-1.266 1.388-2.78 3.038-5.656 6.178-5.509 7.618.011.115.046.465.805 1.016.294.213.717.468 1.06.468 1.388 0 3.584-3.868 5.708-7.606.3-.528.608-1.072.928-1.629 3.016-5.257 8.217-12.046 15.88-14.534a13.874 13.874 0 0 1 4.293-.673c5.411 0 11.291 2.904 18.507 9.139 1.049.906 2.092 1.856 3.101 2.775 3.777 3.443 7.683 7.003 12.657 8.896l2.285.869-1.337 2.044c-2.914 4.458-3.981 9.632-5.014 14.637a162.085 162.085 0 0 1-.871 4.043c-2.736 11.711-7.016 18.141-13.464 20.234-2.111.686-4.41 1.033-6.832 1.033-5.656 0-11.044-1.886-14.567-3.467-.588-.265-1.159-.523-1.713-.775-3.529-1.601-6.576-2.983-8.311-2.983-.609 0-1.004.08-1.363 1.184-.29.89-.112 1.195-.054 1.294.729 1.251 4.903 2.105 8.941 2.93.595.121 1.209.247 1.839.378 5.938 1.24 14.01 4.083 18.746 10.593 3.986 5.48 3.663 13.193-1.014 24.275a161.873 161.873 0 0 1-1.685 3.802c-2.111 4.651-4.293 9.463-4.559 14.773l-.12 2.437z"/><path fill="#FFF" d="M194.941 137.445c1.791 0 3.199.559 4.186 1.662 2.139 2.391 1.663 6.614 1.003 12.459-.067.599-.137 1.215-.206 1.85-.475 4.367-.645 12.558 3.564 18.344 2.53 3.478 7.338 5.169 14.696 5.169 1.594 0 3.347-.081 5.212-.239 1.324-.112 2.692-.265 4.017-.412 2.862-.319 5.821-.649 8.829-.649 2.092 0 4.027.163 5.856.492.692-5.081 2.72-9.55 4.689-13.892a150.34 150.34 0 0 0 1.643-3.707c4.089-9.687 4.552-16.18 1.458-20.435-4.209-5.785-12.06-8.156-16.366-9.055a970.68 970.68 0 0 0-1.824-.375c-5.77-1.179-9.938-2.032-11.554-4.803-.745-1.277-.842-2.788-.289-4.49 1.05-3.225 3.358-3.901 5.109-3.901 2.587 0 5.831 1.472 9.939 3.335.55.25 1.116.506 1.699.768 3.171 1.425 7.994 3.123 12.953 3.123 2.008 0 3.897-.283 5.615-.84 5.007-1.625 8.453-7.15 10.846-17.387.302-1.292.58-2.641.849-3.944.963-4.669 1.956-9.478 4.389-13.998-4.623-2.227-8.252-5.535-11.777-8.747-.989-.901-2.013-1.834-3.023-2.707-6.37-5.503-11.581-8.179-15.93-8.179a9.94 9.94 0 0 0-3.076.48c-6.81 2.21-11.494 8.936-13.68 12.748-.316.553-.623 1.091-.92 1.616-3.165 5.572-5.452 9.598-9.133 9.599-1.125 0-2.259-.411-3.375-1.22-1.45-1.052-2.26-2.331-2.41-3.801-.324-3.191 2.547-6.328 6.521-10.669.407-.445.826-.903 1.255-1.376 2.955-3.254 7.911-9.781 7.911-16.933 0-5.259-4.196-10.24-13.204-15.676a152.722 152.722 0 0 0-3.495-2.026c-4.148-2.357-8.419-4.785-11.971-8.492-3.549 3.703-7.819 6.128-11.967 8.483a152.042 152.042 0 0 0-3.512 2.035c-9.009 5.437-13.204 10.417-13.204 15.676 0 7.152 4.956 13.679 7.91 16.933.43.473.849.931 1.255 1.376 3.974 4.341 6.844 7.478 6.521 10.669-.149 1.47-.96 2.749-2.409 3.801-1.115.81-2.251 1.22-3.375 1.22-3.681 0-5.967-4.024-9.132-9.595-.298-.525-.605-1.065-.922-1.619-2.186-3.812-6.87-10.538-13.679-12.748a9.952 9.952 0 0 0-3.078-.481c-4.349 0-9.56 2.676-15.93 8.179-1.005.869-2.023 1.797-3.008 2.693-3.526 3.213-7.158 6.521-11.787 8.749 2.43 4.516 3.419 9.321 4.38 13.989.27 1.311.55 2.667.853 3.965 2.392 10.238 5.839 15.762 10.847 17.387 1.717.558 3.605.84 5.614.84 4.959 0 9.781-1.697 12.955-3.122.582-.261 1.148-.518 1.697-.767 4.108-1.864 7.353-3.336 9.939-3.336 1.751 0 4.061.677 5.109 3.902.554 1.702.457 3.212-.289 4.49-1.615 2.771-5.784 3.624-11.553 4.803-.591.122-1.2.246-1.826.376-4.305.898-12.155 3.269-16.364 9.055-3.095 4.254-2.632 10.747 1.457 20.434a155 155 0 0 0 1.635 3.69c1.969 4.344 3.997 8.815 4.688 13.901 1.824-.329 3.752-.49 5.838-.49 3.01 0 5.971.331 8.835.65 1.331.148 2.708.302 4.04.416a62.28 62.28 0 0 0 5.211.238c7.358 0 12.166-1.69 14.696-5.168 4.208-5.786 4.041-13.977 3.565-18.344-.069-.634-.139-1.25-.207-1.849-.659-5.845-1.136-10.068 1.003-12.459.988-1.105 2.396-1.664 4.188-1.664z"/><path d="M194.941 130.553c-10.641 0-19.298-8.646-19.298-19.275s8.657-19.275 19.298-19.275c10.64 0 19.297 8.646 19.297 19.275s-8.656 19.275-19.297 19.275zm57.893-22.766c-4.226 0-8.074-10.406-8.074-21.832a.985.985 0 0 0-1.969 0c0 11.426-3.849 21.832-8.074 21.832a.983.983 0 1 0 0 1.966c4.452 0 8.074 3.794 8.074 8.458a.984.984 0 0 0 1.969 0c0-4.664 3.622-8.458 8.074-8.458a.984.984 0 1 0 0-1.966zm-16.147-18.882c1.846 0 3.348-1.5 3.348-3.343s-1.502-3.344-3.348-3.344-3.347 1.5-3.347 3.344 1.501 3.343 3.347 3.343zm14.178 0c1.846 0 3.348-1.5 3.348-3.343s-1.501-3.344-3.348-3.344-3.348 1.5-3.348 3.344 1.502 3.343 3.348 3.343zm-7.089-8.703c1.846 0 3.348-1.5 3.348-3.344s-1.502-3.344-3.348-3.344c-1.845 0-3.347 1.5-3.347 3.344s1.502 3.344 3.347 3.344zm-106.728 27.585c4.226 0 8.073-10.406 8.073-21.832a.985.985 0 0 1 1.969 0c0 11.426 3.847 21.832 8.073 21.832a.984.984 0 0 1 0 1.966c-4.452 0-8.073 3.794-8.073 8.458a.984.984 0 0 1-1.969 0c0-4.664-3.622-8.458-8.073-8.458a.984.984 0 1 1 0-1.966zm16.147-18.882c-1.846 0-3.348-1.5-3.348-3.343s1.502-3.344 3.348-3.344 3.348 1.5 3.348 3.344-1.502 3.343-3.348 3.343zm-14.178 0c-1.845 0-3.348-1.5-3.348-3.343s1.502-3.344 3.348-3.344 3.347 1.5 3.347 3.344-1.502 3.343-3.347 3.343zm7.088-8.703c-1.845 0-3.347-1.5-3.347-3.344s1.502-3.344 3.347-3.344c1.846 0 3.348 1.5 3.348 3.344s-1.501 3.344-3.348 3.344zM204 72.925c-4.226 0-8.074-10.406-8.074-21.832a.983.983 0 0 0-.984-.983.983.983 0 0 0-.985.983c0 11.425-3.848 21.832-8.073 21.832a.984.984 0 1 0 0 1.966c4.451 0 8.073 3.794 8.073 8.458a.983.983 0 0 0 1.969 0c0-4.664 3.622-8.458 8.074-8.458a.983.983 0 1 0 0-1.966zm-16.148-18.882c1.845 0 3.348-1.5 3.348-3.343s-1.502-3.344-3.348-3.344c-1.846 0-3.348 1.5-3.348 3.344s1.502 3.343 3.348 3.343zm14.178 0c1.846 0 3.348-1.5 3.348-3.343s-1.502-3.344-3.348-3.344-3.347 1.5-3.347 3.344 1.501 3.343 3.347 3.343zm-7.089-8.703a3.35 3.35 0 0 0 3.347-3.344 3.35 3.35 0 0 0-3.347-3.344 3.35 3.35 0 0 0-3.348 3.344 3.35 3.35 0 0 0 3.348 3.344zm38.202 117.272c-4.226 0-8.073-10.406-8.073-21.832a.984.984 0 0 0-1.969 0c0 11.426-3.848 21.832-8.074 21.832a.984.984 0 1 0 0 1.967c4.452 0 8.074 3.794 8.074 8.457a.984.984 0 1 0 1.969 0c0-4.663 3.621-8.457 8.073-8.457a.984.984 0 1 0 0-1.967zm-16.148-18.881a3.35 3.35 0 0 0 3.348-3.344 3.35 3.35 0 0 0-3.348-3.344 3.35 3.35 0 0 0-3.347 3.344 3.35 3.35 0 0 0 3.347 3.344zm14.178 0a3.35 3.35 0 0 0 3.348-3.344c0-1.844-1.502-3.344-3.348-3.344s-3.348 1.5-3.348 3.344a3.351 3.351 0 0 0 3.348 3.344zm-7.089-8.704a3.35 3.35 0 0 0 3.348-3.343c0-1.844-1.502-3.344-3.348-3.344s-3.348 1.5-3.348 3.344a3.35 3.35 0 0 0 3.348 3.343zm-67.345 27.585c4.226 0 8.074-10.406 8.074-21.832a.984.984 0 1 1 1.969 0c0 11.426 3.848 21.832 8.073 21.832a.983.983 0 1 1 0 1.967c-4.452 0-8.073 3.794-8.073 8.457a.984.984 0 0 1-1.969 0c0-4.663-3.623-8.457-8.074-8.457a.984.984 0 1 1 0-1.967zm16.147-18.881a3.35 3.35 0 0 1-3.348-3.344 3.35 3.35 0 0 1 3.348-3.344 3.35 3.35 0 0 1 3.348 3.344 3.35 3.35 0 0 1-3.348 3.344zm-14.178 0a3.349 3.349 0 0 1-3.347-3.344 3.349 3.349 0 0 1 3.347-3.344 3.35 3.35 0 0 1 3.347 3.344 3.348 3.348 0 0 1-3.347 3.344zm7.089-8.704a3.35 3.35 0 0 1-3.348-3.343c0-1.844 1.502-3.344 3.348-3.344s3.348 1.5 3.348 3.344a3.35 3.35 0 0 1-3.348 3.343z"/><path fill="#010101" d="M513.058 256.331c2.728-.421 7.872-.646 10.142 1.279s4.626 3.683 7.688 5.496c3.064 1.812 11.005 3.966 16.678 7.932s19.854 18.243 24.165 21.076c4.312 2.832 5.784 2.38 7.26 3.626 1.476 1.247 1.815 3.06 1.815 3.173s2.495-2.267 4.879-2.039c2.382.227 3.63 2.039 3.63 2.039s4.537-8.385 12.365-13.483c7.828-5.1 12.934-6.573 20.988-10.651 8.055-4.08 13.613-7.593 23.483-10.312s19.513-4.986 28.248-4.986c8.736 0 13.387 8.84 14.748 13.258 1.362 4.42-5.332 17.678-7.601 27.423-2.271 9.743-6.92 35.013-8.736 52.235-1.815 17.226-10.209 24.363-16.449 30.483-6.239 6.118-13.841 12.576-15.201 18.244-1.361 5.665-9.076 10.99-11.8 12.123-2.722 1.134-2.836-1.926-1.361-3.513 1.476-1.587 3.177-7.14 2.61-14.392s-.341-14.503 5.105-23.568c5.445-9.064 7.828-12.756 6.352-23.568-1.701-12.465-5.559-19.264-4.424-27.876 0 0-9.274 5.157-13.273 7.253-6.92 3.625-13.954 3.966-22.575 12.465-7.198 7.094-11.799 14.17-18.948 14.049-6.692-.111-8.848-2.152-11.116-5.212-2.269-3.059-7.94-7.364-13.272-9.857-5.333-2.493-10.21-5.666-13.047-9.065s-4.198-4.985-4.198-4.985-1.134 13.938-.112 20.962c1.02 7.026 3.176 11.22 6.012 17.563 2.837 6.346 5.02 9.9 9.958 17.035 5.514 7.967 7.483 35.502 4.136 41.009-3.146 5.178-3.993 8.091-7.968 17.197-3.856 8.839-4.181 13.359-7.827 17.224-2.322 2.458-5.079 2.948-8.13 3.048-3.053.098-7.779-1.377-14.08 4.426 0 0-.689-4.328 2.658-7.77 3.347-3.441 7.975-3.049 9.452-7.376 1.477-4.327.674-7.659-1.183-10.13-1.771-2.359-3.938-5.408-7.876-9.933-3.938-4.522-11.913-11.8-16.049-15.636-4.135-3.835-10.042-13.373-10.042-22.815 0-9.44.492-14.259 2.363-25.077 1.87-10.816 5.021-22.716 6.891-31.468 1.872-8.754 5.416-12.687 5.416-21.34 0-8.655-2.56-22.226-5.907-25.569s-7.976-4.426-9.747-8.457c-1.772-4.032-2.561-9.245 1.279-13.965 3.838-4.723 9.577-7.106 12.601-7.575z"/><path fill="#C1C0C0" d="M672.184 333.245c-3.003 18.951-2.155 20.735-4.766 28.439-2.608 7.707-7.827 14.731-12.365 18.584-4.538 3.854-3.857 3.966-4.765 4.76-.757.661 1.326-2.3 2.499-4.091.235-.358.411-.99-.377-.225-2.388 2.312-8.801 9.395-16.303 19.612-3.517-6.572-.917-15.921 2.27-22.55 4.084-8.498 10.777-16.091 10.096-27.421-.68-11.331-6.919-23.456-6.126-29.802.794-6.346 3.631-13.257 4.539-16.543.907-3.287-.647-17.008-.229-19.831.453-3.059 3.857-6.458 4.651-7.704.794-1.247-.339-1.699-1.587-.227-1.249 1.472-3.631 4.306-4.879 7.818s-2.723 18.583-4.084 22.662c-1.36 4.08-2.496 4.307-2.496.34 0-3.966.907-13.71 1.361-16.77.454-3.059-1.134-1.813-1.475.113-.341 1.926-2.609 15.864-3.291 18.923-.68 3.06-3.855 6.119-3.403-.227.456-6.346.682-13.485.796-16.544.113-3.06-.796-2.266-1.702 0-.908 2.267-3.29 14.392-3.063 18.924s-3.176 6.912-3.29 0-.453-10.651-.114-13.938c.342-3.286-1.02-2.039-1.473 1.473-.455 3.513-1.249 14.278-1.476 17.791-.228 3.512-2.836 5.241-3.403-3.061-.567-8.272-.342-11.332 0-13.145.34-1.812-1.136-1.699-1.815 1.247-.681 2.946-1.135 11.104-1.248 15.523-.113 4.42-2.836 7.252-3.517.681-.681-6.572-.567-10.425-1.021-13.146-.453-2.719-1.134-1.586-1.021 1.021.113 2.606-.682 12.917-1.361 16.317-.68 3.399-3.402 6.685-4.424-.114-1.021-6.798-.795-9.631-.795-11.783 0-2.154-1.588-.567-1.588 5.892 0 6.46-.453 10.425-.566 12.805-.114 2.379-2.496 4.758-2.949.566-.454-4.193-.342-6.911-.568-9.404-.227-2.494-1.021-3.627-1.361.452-.341 4.08-.908 7.252-1.134 8.611-.228 1.359-1.361 1.36-3.291 2.381-1.928 1.02-5.218 1.586-3.855-.341 1.359-1.927 1.021-2.152-.568-1.359-1.587.793-2.156 1.473-4.083 1.473-1.93 0-2.61-1.021-4.426-2.04-1.813-1.019-1.588 1.474.682 2.493 2.269 1.021 5.218 4.192 3.856 5.778-1.361 1.588-5.219-3.399-5.672-4.418-.454-1.021.34-2.607-1.362-1.813-1.701.793-1.474 3.852-1.815 4.646-.34.793-4.083-1.586-3.517-2.946.568-1.36 3.631-2.039 5.105-3.513 1.475-1.473.711-1.516-.566-1.02-2.042.793-3.063 1.247-4.084 1.586-1.021.341-2.836-1.473-1.702-2.491a24.555 24.555 0 0 0 2.495-2.606c.567-.68-.34-.454-1.814.453-1.475.906-3.064 1.359-3.971 1.699s-3.404-1.699-2.269-2.832c1.134-1.134 2.27-1.588 2.95-2.381.679-.793-.341-.793-1.816 0s-4.65 2.153-7.261 1.588c-2.61-.567-2.949-2.269-.907-2.721 2.042-.454 3.63-2.04 1.588-1.812-2.041.227-4.197 1.02-5.445.68-1.248-.341-1.474-1.587.113-2.946 1.59-1.36 4.652-2.947 1.59-2.833-3.063.113-9.077.68-6.354-1.699 2.722-2.381 5.104-3.626 2.949-3.4-2.155.228-8.281 1.699-5.898-.794 2.381-2.492 5.332-3.965 2.949-3.737-2.384.225-5.105 1.585-6.013.906-.907-.682-1.248-2.266.112-3.061 1.361-.793 1.815-2.492-.68-1.926-2.496.567-7.147.339-4.311-1.586 2.834-1.927 3.176-3.061.339-2.606-2.836.453-6.692-.113-4.763-1.699 1.927-1.587 1.814-2.267-.454-1.813-2.27.454-5.221 1.134-4.879-1.02.341-2.153 4.084-3.626 1.814-3.4-2.268.228-4.537 1.699-5.444.681-.908-1.021.453-1.7-.34-2.267-.795-.566.11-1.587 1.701-2.493 1.587-.905 1.021-1.246-1.248-.68-2.269.567-3.857 1.812-5.332.906-1.476-.906-2.837-1.699-1.59-2.492 1.249-.794 2.157-1.587 3.632-2.38s.793-1.473-1.022-.453-2.948 1.7-4.196 2.606c-1.247.905-.567-.34-2.042-.68-1.475-.341-5.787.566-9.53-2.493-3.744-3.06-1.587-10.879 1.587-13.484 3.178-2.605 8.396-6.799 12.026-6.458 3.63.339 8.963 4.418 10.097 6.345 1.136 1.926-.34 4.418-2.041 6.346-1.701 1.926-1.589 3.059.566 1.699 2.156-1.359 3.389-3.032 5.446-1.927 1.475.793 1.134 2.834.113 4.42-1.021 1.587.453 2.493 1.588.565 1.135-1.925 1.589-4.418 2.156-3.173.565 1.248-.113 3.627-.453 4.986-.343 1.36 2.835-.452 4.31-1.133s2.155.906 1.475 2.833c-.682 1.927 1.003.985 2.27.227 1.135-.68 2.382-.566 2.156 1.813-.228 2.379-.228 3.738 1.588 1.698 1.815-2.039 3.63-1.812 3.856.795.227 2.605-.908 5.665 1.136 4.079 2.041-1.587 2.041-2.606 3.175-2.041 1.136.567.228 2.606 0 3.4-.227.794 1.361-1.134 1.249 1.02-.113 2.153-1.361 5.439.227 4.193 1.588-1.247 1.814-2.947 3.403-2.267 1.589.68 1.589 1.36 1.475 3.853-.114 2.493-.454 4.418 1.361 3.059s3.29-1.926 3.855-.453c.569 1.474.342 8.612 1.816 6.573 1.475-2.04 2.155-4.985 3.745-3.967 1.587 1.02.34 2.946 1.134 2.833.793-.113.793 3.4 1.248 5.665.453 2.267 1.021.228 1.248-1.473s1.247-3.173 2.723-1.472c1.475 1.699 1.475 5.097.567 7.704-.908 2.606.567 2.493 2.041.34 1.476-2.153 1.589-4.078 3.063-3.286 1.476.794 2.155 2.607 1.929 4.306-.226 1.7 1.588 0 1.588-1.698 0-1.7-1.021-4.193-.681-5.894.341-1.7 1.476-1.812 2.61.34 1.135 2.154 2.495 2.38 1.361-.112-1.135-2.493-2.157-2.493-1.702-3.286.454-.795.454-2.381 1.021-1.7.566.68 1.588 2.606 1.474 1.02-.113-1.587-.68-2.493.114-3.966.793-1.474 9.87-11.444 14.748-14.164 4.879-2.72 12.139-5.779 20.08-9.745 7.942-3.966 15.429-9.065 24.392-10.99 8.963-1.928 16.108-3.4 17.585-3.4 1.474 0-1.022 1.247.565 1.247 1.589 0 3.403-1.7 5.447-1.7 2.041 0 5.785 1.247 8.281 4.759 2.496 3.513 4.765 6.573 2.041 14.051-2.721 7.479-7.6 20.967-12.591 52.467z"/><path fill="#010101" d="M512.108 261.738c1.732-.982 4.438-1.787 5.728-1.015 1.701 1.019 4.599 2.038 3.917 4.644-.68 2.606-2.722 5.553-4.765 7.139-2.041 1.588-3.743 2.72-4.65 2.72s-1.589-1.02 1.814-3.172c3.404-2.152 5.786-5.779 4.198-6.006-1.589-.227-.747-1.477-2.27-2.04-1.143-.423-2.481-.719-3.286-.925-1.354-.346-1.238-1.03-.686-1.345z"/><path fill="#C1C0C0" d="M531.396 266.047c3.063 3.739 14.155 9.01 17.471 11.671 6.353 5.1 11.572 12.578 17.017 16.544 5.445 3.966 7.601 4.532 9.984 6.686 2.382 2.152 4.764 5.892 6.693 6.23 1.927.342 2.949-2.038 3.176-3.059.228-1.02 1.021 0 1.815.68s.794-.793-.227-2.832c-1.021-2.04-1.249-2.833-3.403-2.04-2.156.794-2.043 2.833-3.291 2.154-1.247-.681-2.495 0-2.382-2.041.113-2.039-.795-2.493-3.29-3.173-2.496-.68-9.53-5.213-13.387-9.744-3.856-4.533-10.098-11.444-17.357-15.07-7.259-3.627-12.819-6.006-12.819-6.006zm7.941 42.265c1.929 8.952 10.438 17.564 15.771 21.19s12.478 9.178 15.655 12.237c3.176 3.06 6.126 10.198 11.799 9.859 5.672-.341 6.807-3.174 7.941-4.76 1.134-1.587-.114-1.133-2.043-.453-1.928.68-6.126 2.152-9.643.793-3.518-1.36-1.929-2.606-5.104-6.007-3.177-3.398-7.034-6.231-14.182-10.084s-9.756-8.499-14.636-15.184c-4.876-6.684-5.558-7.591-5.558-7.591z"/><path fill="#C1C0C0" d="M576.071 338.938c-.783-2.544.787-1.771 1.674-1.278.886.491 2.166.688 2.166 1.771 0 1.081.492.786 1.083.786.59 0 .787 2.36-.886 3.245-1.675.885-2.954 1.181-3.348.196-.394-.984-.295-3.442-.689-4.72zm8.368 3.049c-1.388 1.65.689 1.181 1.772 1.181s3.348.196 4.136-.296c.786-.491 1.771 0 2.361-.885.592-.886 2.364-2.852 3.447-4.917s-.1-2.852-1.28-3.344c-1.181-.491-2.114.354-3.445 1.475-1.87 1.574-4.923 4.327-6.991 6.786z"/><path fill="#010101" d="M592.514 310.222c-.517 2.009.787 2.459 1.477.59.689-1.868 1.576-4.523 1.772-1.967.197 2.557 1.279-.294 1.969-1.867.689-1.574 1.182-1.181.985-.1-.198 1.082 1.771 0 2.657-3.343.887-3.344 2.266-4.623 1.084-.296-1.182 4.328.591 2.558 1.871-1.376 1.279-3.934 1.87-4.426 2.362-1.869s1.083.688 1.772-2.262c.688-2.951 1.575-3.344 1.476-1.082-.097 2.262 1.674 2.065 2.56-2.064.887-4.131 1.576-4.131 1.38-1.082-.197 3.048 1.575 2.558 2.166-.59.59-3.146 1.182-4.032 1.476-1.869.297 2.163 1.479 1.476 1.971-1.573.492-3.048 1.083-4.13 1.279-1.278.197 2.852.887 2.164 2.462-1.081 1.574-3.246 2.462-4.327 1.771-.493-.688 3.836.395 2.459 1.871-.59 1.477-3.048 2.265-3.54 2.166-1.868s.886 1.278 1.575-1.376c.689-2.656 2.56-2.656 2.56-1.476 0 1.18 1.281 1.278 1.773-.983s.886-2.163 1.674-1.573c.787.59 1.377-.197 2.263-1.181.887-.982 1.183-1.277 1.872-.688.688.59 1.378-.59 3.149-1.869 1.773-1.278 4.629-2.753 6.008-3.441 1.377-.689 3.544-1.082 1.969-1.672-1.575-.591-2.265-.786-3.545.393-1.279 1.181-3.938 1.672-6.203 1.771s-6.399 1.181-8.27 2.163c-1.871.983-12.604 6.688-17.625 10.03-5.021 3.345-16.442 11.507-19.1 15.834-2.659 4.326-3.741 6.687-4.627 10.128z"/><path fill="#C1C0C0" d="M514.47 285.54c.991.741 4.595 3.409 5.382 3.67.788.263 1.444.132 1.051 1.442-.394 1.312.131 1.443 1.444 1.312 1.312-.131 1.049.132.918.918-.13.787.264 1.18 1.052 1.05.786-.132 1.049.262.394 1.311-.657 1.05-.526 2.098 1.049 1.442 1.576-.656 1.444 0 .92 1.312-.525 1.311-.394 1.311.524 1.311.919 0 1.05.263.132 1.573-.919 1.312-.262 1.312 1.049.655 1.313-.655 1.971.132 1.84 1.181-.133 1.05.654.919 1.182 1.573.524.656-.133 1.18-.92 1.837-.788.655-.788 1.31.525.917 1.312-.394 1.837 0 1.05 1.049-.788 1.05-.524 1.181.525 1.312s1.05.524.132 1.573c-.919 1.049-1.053 2.229.524 1.18 1.575-1.048.918.395.787 1.312-.13.918 1.575.393.919 1.835-.655 1.442-3.019 5.639-.655 3.672 2.362-1.968 1.969-.918 1.444.523-.526 1.443 0 .918.918.918.919 0 0 1.312-1.312 3.017-1.313 1.704-3.413 3.408-1.05 2.491 2.362-.917 2.362-2.491 3.281-1.573.92.917-.262 1.966-.524 2.884-.264.919 1.575.133 1.05 1.706s-2.231 2.754-3.938 4.063c-1.707 1.312-2.101 2.754-.262 1.705 1.838-1.049 2.099-1.573 3.413-1.967 1.312-.394.655 3.146.655 4.589s-3.807 4.065-4.987 5.114c-1.182 1.049-1.182 1.704.131.787 1.312-.918 2.493-1.574 3.807-2.623s.919.918.919 1.836.131 2.36-1.051 3.934-2.363 3.016-3.15 4.196c-.788 1.179.394.787 1.444 0s3.414-2.36 3.808-1.181c.394 1.181.524 2.099.655 3.147.132 1.048-3.545 5.9-4.595 7.474-1.049 1.573-.788 2.098.656.787 1.445-1.312 2.889-3.279 3.938-2.624 1.051.657 1.708 2.23 1.313 3.279-.394 1.048-2.625 6.031-3.677 7.736-1.049 1.704.395 1.049 1.445 0s2.1-3.541 3.02-4.196c.919-.655 1.969 3.147 2.23 4.589.264 1.443-2.757 7.999-3.806 9.965-1.051 1.967.261.918 1.706-.786 1.443-1.704 3.414-6.03 4.726-4.589 1.312 1.441 2.627 2.754.264 8.392-2.363 5.639-5.646 11.933-.526 5.113 5.12-6.817 6.958-2.097 6.17 1.573-.787 3.672-3.281 7.867-6.17 10.49-2.888 2.623-1.443 2.229.394.918 1.839-1.312 3.938-3.408 5.515-5.114 1.575-1.704 3.807.787 2.889 3.147-.92 2.361-6.828 10.884-10.634 12.719-3.808 1.836-1.575 1.705-.263 1.312 1.312-.394 7.482-4.066 9.583-5.901s4.201 2.624.656 6.426c-3.545 3.803-5.645 4.326-6.958 4.982-1.312.656-.131 1.181 1.574.262 1.708-.918 2.758-1.049 4.596-2.491 1.839-1.442 2.757 5.639-3.15 9.573-5.907 3.933-11.814 4.195-15.753 3.802-3.938-.395-8.533-4.852-2.101-5.507 6.433-.656 12.864-.787 7.089-1.968s-8.797-.523-11.946-1.181c-3.15-.654-4.069-3.934-.655-3.934 3.412 0 3.412-.522.394-1.31-3.021-.787-3.677-1.312-5.514-1.968-1.839-.655-4.464-3.672.131-3.146 4.595.523 6.564.395.263-1.574-6.301-1.967-8.665-5.506-3.676-4.982 4.988.525 5.907.263 1.181-1.441-4.726-1.705-7.483-5.246-2.23-4.459 5.25.787 2.493-.654-.657-1.967-3.15-1.311-4.989-7.735-1.312-6.555 3.675 1.18 1.706-.789-1.575-3.541-3.283-2.754-3.021-7.476.262-5.77 3.283 1.704 3.02.393.526-1.05-2.496-1.441-2.758-4.064.262-3.933 3.02.131 1.182-.656-.525-2.491-1.706-1.837-1.838-4.065.657-3.934 2.494.13 1.837-1.05-.263-3.278-2.101-2.229-3.282-6.949.918-4.327 4.201 2.622 1.839-.262-.131-2.229-1.969-1.967-1.312-2.492.395-2.36 1.706.131 2.756.131 1.051-2.099-1.708-2.229-1.839-4.327.13-4.195 1.969.131.788-.263-.13-1.312-.92-1.049-.657-1.836.524-1.573 1.181.262 1.444-.655.657-1.573-.788-.918-.657-1.443.787-1.312 1.443.131.788-1.049.788-2.754 0-1.704.394-4.981.918-5.77.524-.786 2.757-.393 1.312-1.442-1.443-1.049-3.544-3.933-1.049-2.229 2.493 1.706 3.15 2.099 1.575-1.573-1.575-3.671-.92-3.409.13-2.49 1.051.917 1.051-.132.788-2.492-.264-2.359-.395-6.687-1.312-12.062-.92-5.377-1.969-1.574-2.232-.131-.263 1.441-1.705 9.047-2.493 17.832-.789 8.785-3.021 17.045-5.776 26.486-2.757 9.44-2.889 15.08-3.021 15.866-.131.787-.655.132-.655.787s.787.786.787 1.573c0 .786-1.707.131-1.443.918.261.786 1.837.523 1.705 1.835-.13 1.312-1.049-.524-.918.786.131 1.312.262 1.836.262 2.492 0 .655-3.019-.918-2.888 0 .132.918 3.544 1.05 3.414 2.098-.132 1.05-1.182.132-1.182 1.18 0 1.05.918.525.787 1.181-.132.656-.92 1.311-.657 2.623.264 1.31 1.182 1.703 1.445 2.36.263.654-.92.655-.788 1.311.131.656 1.182 1.049 1.312 1.836.132.786-.131 1.441-.131 2.229s-.919-.392-.919.262c0 .656.919.919 1.05 1.705.132.787-.918.263-.918.918s4.988 7.998 6.301 9.572c1.312 1.572 2.494 4.72-1.575 1.572-4.069-3.146-10.109-11.013-8.795-29.764 1.312-18.75 7.088-33.042 9.977-49.563 2.888-16.521 4.331-23.472 2.362-33.567-1.969-10.097-3.15-11.015-3.413-11.67-.265-.658-.004-1.182.522-.787zm32.295 143.184c2.399-.959 5.119-1.967 7.218-3.409 2.102-1.442 2.102.655.659 2.097-1.445 1.443-5.07 2.655-7.615 3.673-2.625 1.049-5.382 1.441-7.745 1.704-2.662.295-4.07-.525.525-1.836 4.594-1.311 4.332-1.18 6.958-2.229z"/><path fill="#010101" d="M662.023 279.376c.133-1.312-.13-3.017-.13-4.197 0-1.18-.523-1.31-1.181-.393-.657.919-1.183 3.803-.919 4.326.262.526-1.97.132-3.15.526-1.182.393-.396 1.048.787.917 1.182-.131 1.312.787-.263 1.311-1.575.525-2.101.787-1.312 1.312.788.525.788.525-.263.918-1.052.394-1.312 1.443.131 1.573 1.444.131.657.525-.656 1.181-1.314.655-2.757 2.099-.395 1.441 2.363-.655 1.971.263 0 1.443-1.969 1.18-3.019 2.622-1.049 1.966 1.969-.655 2.231.132.394 1.705-1.839 1.573-2.363 2.754-.265 1.967 2.103-.786.527.787-1.442 2.886-1.97 2.097-3.546 6.687.655 2.754 4.202-3.934 2.233-.919-.918 3.146-3.15 4.063-4.332 7.997.524 2.229 4.858-5.77 1.969.131-.787 3.408-2.757 3.278-3.544 7.605.657 1.837 4.201-5.771 3.281-1.968.656 2.229-2.626 4.196-3.283 6.426 0 2.36 3.282-4.065 2.888-.655.262 2.754-2.625 3.409-2.888 5.113-.395 2.753 2.496-2.359 2.89-1.704-.655 2.623-3.546 4.326-1.693 5.42.788 1.704 2.625-3.934 3.149-2.753.394 2.36-2.757 5.113-2.1 6.556.525 1.967 2.626-4.589 3.15-1.048.13 4.195-2.983 5.186-1.837 5.508.525 2.1 2.363-3.409 2.363-2.623.656 1.573-1.705 4.195-2.363 7.342 0 3.146s1.839.786.133 3.802c-1.709 3.017-3.02 5.508-.263 2.754s2.362-1.311.524 1.705c-1.838 3.015-3.413 5.113-.395 2.885 3.021-2.229 1.314.393-.918 3.016-2.232 2.621-2.363 3.408 0 1.705 2.363-1.705 2.363-1.05 1.051 1.966-1.314 3.017-2.231 7.343-3.02 8.917-.788 1.572-3.938 2.229-1.313 2.359 2.624.131 0 1.18-3.545 6.031-3.544 4.852-5.119 7.213-6.826 9.311-1.706 2.098.788 1.966 2.101-.395 1.312-2.359 1.707-3.277 6.694-9.047 4.988-5.77 8.666-8.391 10.635-18.355 1.969-9.966 1.969-18.096 1.969-25.701s-.394-18.095-1.181-25.307c-.788-7.211-1.575-10.883-1.445-15.473.133-4.588 2.092-8.14 2.495-12.193zm16.746-13.832c-5.307 3.268-11.788 6.779-13.347 20.764-1.652 14.812 2.931 32.074 2.567 49.218-.204 9.542-3.453 22.859-5.589 29.81-.514 1.668-1.611 3.736-1.246 3.876.369.139.863-1.176 1.719-3.462 2.429-6.501 7.026-20.45 7.979-30.332.669-6.959.995-13.186 2.117-14.803.826-1.192-.874-1.237-2.414.043-1.54 1.281 2.5-4.964 3.783-6.76 1.283-1.795-1.353-.693-2.615-.124-1.653.747 1.335-2.369 2.241-3.98 1.121-1.989.484-1.895-1.369-1.368-1.928.548 1.829-2.69 3.113-4.229s-.818-1.772-2.614-.747c-1.797 1.026 2.444-4.183 3.984-5.721s-2.087.342-3.114 1.367c-1.025 1.026 2.446-5.062 3.986-6.343 1.54-1.282-1.744-.373-3.547.476-1.869.882 2.61-3.98 4.293-6.197 1.678-2.209-2.702.716-3.984 1.741s2.517-3.747 3.799-5.542c1.284-1.794-1.283-.769-2.567-.513-1.282.257 2.731-2.929 3.501-3.186s.863 2.16.863 3.442c0 1.281 1.283 1.026 2.053-1.282.771-2.307 1.246-7.673 0-10.51-1.672-3.803-3.592-5.638-3.592-5.638z"/><path fill="#CD202D" d="M396 248.641l20.842-25.682 20.841 25.682 20.843-25.682 20.842 25.682 20.842-25.682 20.842 25.682 20.843-25.682 20.841 25.682 20.842-25.682 20.843 25.682 20.842-25.682 20.841 25.682 20.842-25.682 20.842 25.682 20.843-25.682 20.842 25.682 20.841-25.682 20.844 25.682L792 222.959V0H396z"/><path d="M684.854 106.892c-.228-.557-.78-.49-1.262-.464l-1.761.094c-1.592.085-3.183.144-4.775.008-1.949-.166-3.948-.57-5.657-1.56a8.002 8.002 0 0 1-2.122-1.763c-.57-.673-.964-1.448-1.552-2.109.471-.154 1.063-.138 1.554-.212a32.14 32.14 0 0 0 1.685-.304 24.599 24.599 0 0 0 2.885-.775c1.553-.529 3.071-1.251 4.341-2.303 1.367-1.132 2.356-2.658 2.739-4.4l.598-2.729a.795.795 0 0 0-.662-.951c-.303-.042-.525.112-.759.274-.408.285-.817.571-1.228.856 1.019-1.888 1.672-4.109 1.06-6.234-.285-.993-.827-1.895-1.523-2.653a9.049 9.049 0 0 0-1.238-1.109c-.317-.238-.67-.537-1.061-.646-2.045-.575-4.354-.911-6.42-.251-1.859.592-3.197 2.047-3.724 3.916-.132.449-.258.9-.387 1.351-.15.525-.429 1.207.217 1.541.452.233 1.06-.111 1.491-.265.437-.154.873-.311 1.309-.464.691-.246 1.793-.652 2.514-.303.717.346.644 1.378.487 2.012-.413 1.675-2.046 2.539-3.566 3.04-2.189.722-4.555.902-6.847.961 1.205-2.097.725-4.423-.574-6.348-1.21-1.794-3.318-2.949-5.472-3.125-2.076-.17-4.087.762-5.474 2.288-.671.742-1.345 1.484-2.018 2.227-.368.404-.701.991-.118 1.419.377.278.896.084 1.311.003l1.818-.358c.438-.086.914-.227 1.362-.187.476.042.899.294 1.26.595.287.239.849.692.616 1.129-.183.34-.669.566-.996.722-.833.394-1.743.628-2.642.822a31.795 31.795 0 0 0-3.42.968 23.49 23.49 0 0 0-2.955 1.247c-.107.055-.213.111-.32.168-.16.086-.184-.013-.309-.125a17.102 17.102 0 0 1-1.742-1.826 15.492 15.492 0 0 1-3.016-5.893c-.146-.559-.252-1.069-.238-1.648.015-.591.043-1.181.088-1.771.077-1.046.206-2.091.4-3.123.334-1.768.865-3.516 1.717-5.105.812-1.508 1.919-2.84 3.316-3.839.933-.667 1.977-1.166 3.062-1.536 1-.34 2.048-.626 3.116-.574 1.936.093 2.979 1.594 3.599 3.272l.598 1.623c.049.13.09.268.146.396a.796.796 0 0 0 1.152.398c.28-.172.471-.561.652-.821.269-.383.535-.767.803-1.15.834-1.194 1.527-2.518 1.627-3.997.961.296 3.063.5 2.89 1.923-.156 1.274-1.068 2.388-1.807 3.383l-.998 1.342c-.436.586-.051 1.393.713 1.312 1.055-.109 2.126-.177 3.174-.35 2.035-.337 4.079-1.234 5.396-2.864 1.337-1.655 1.68-3.752.97-5.755 2.328.347 4.749.154 6.91-.824 1.96-.888 3.591-2.398 4.771-4.189 1.006-1.526 1.544-3.331 1.188-5.155-.279-1.453-1.091-2.624-1.93-3.802-.361-.51-.724-1.019-1.087-1.528-.199-.278-.394-.667-.667-.883-.62-.488-1.281.097-1.275.753.004.506.008 1.014.01 1.52l.014 1.714c.002.278.002.507-.107.771-.354.85-1.102 1.549-1.78 2.146-.44.387-.851.726-1.396.957a7.72 7.72 0 0 1-1.748.523 6.008 6.008 0 0 1-2.318-.066c-.708-.165-1.755-.471-2.245-1.039 3.023-1.098 5.735-3.233 6.182-6.59a8.165 8.165 0 0 0 .067-1.249c-.006-.255.168-.501.299-.716.226-.367.521-.726.924-.908.512-.233 1.117-.101 1.627.066.571.187 1.143.74 1.514 1.209l1.024 1.297.838 1.06c.467.592 1.376.27 1.42-.463l.178-2.947c.108-1.785-.126-3.677-1.214-5.154a5.674 5.674 0 0 0-2.096-1.733 7.034 7.034 0 0 0-1.339-.487 8.78 8.78 0 0 0-.747-.158c-.188-.031-.266.034-.251-.184.013-.191.022-.382.03-.573.164-4.005-.859-8.068-3.873-10.874-1.431-1.332-3.169-2.296-4.994-2.973-2.122-.786-4.474-1.228-6.722-1.434-1.558-.142-3.122-.109-4.618.374l-3.105 1.002c-.534.173-1.032.648-.649 1.245.231.365.729.399 1.113.487l2.991.683c2.515.574 5.106 1.471 7.08 3.188 1.684 1.465 2.592 3.478 2.721 5.692-1.468-.717-3.107-.858-4.718-.885l-1.562-.026c-.726-.012-1.057.708-.683 1.292.713 1.113 1.477 2.212 2.02 3.421.342.76.687 1.673.548 2.52-.156.966-1.155 1.38-1.997 1.613-.126-2.001-.757-3.993-2.17-5.462-1.32-1.373-3.137-2.113-4.986-2.443-2.221-.397-4.734-.251-6.795.715-1.181.555-2.145 1.45-3.141 2.272-.3.248-.729.498-.952.824-.468.683.216 1.25.868 1.224.998-.039 1.998-.077 2.996-.117 1.055-.042 2.13-.018 3.167.206.841.181 1.762.515 2.229 1.289.503.831.549 2.225.141 3.092a10.862 10.862 0 0 1-1.842 2.743c-1.386 1.505-3.156 2.613-5.013 3.445-1.849.828-3.6 2.217-4.436 4.107a5.93 5.93 0 0 0-.472 2.937c.047.515.156 1.022.311 1.515.083.264.18.522.286.777-.241.241-.48.485-.714.731-1.607 1.685-3.065 3.516-4.303 5.489a29.651 29.651 0 0 0-3.053 6.458 47.004 47.004 0 0 0-1.017 3.483 14.54 14.54 0 0 0-.421 3.458c-.01 4.541 2.083 8.76 4.732 12.337a40.901 40.901 0 0 0 2.282 2.803c.203.228.405.454.613.677.153.167.579.473.467.678a10.91 10.91 0 0 0-.675 1.515 11.692 11.692 0 0 0-.648 3.204 13.635 13.635 0 0 0-.004 1.667c.011.194.025.388.043.581.021.246-.133.439-.234.661a10.163 10.163 0 0 0-.875 3.304c-.1 1.156.121 2.23.254 3.368.252 2.149 1.061 4.177 2.229 5.99 1.205 1.865 2.749 3.496 4.429 4.942.452.389.894.749 1.283 1.202.405.47.78.968 1.112 1.494.616.983 1.054 2.105 1.098 3.273.045 1.17-.34 2.15-.979 3.113-.557.838-1.309 1.634-2.311 1.907-.997.272-2.078-.038-2.998-.435-1.008-.435-1.94-1.037-2.817-1.695-1.753-1.316-2.623-3.453-3.187-5.504-.154-.563-.298-1.119-.339-1.702a18.427 18.427 0 0 0-.2-1.705c-.167-1-.431-1.985-.812-2.925-1.529-3.788-4.792-6.511-8.17-8.633-1.11-.697-2.188-1.365-3.165-2.249a19.114 19.114 0 0 1-2.69-3.029c-1.396-1.939-2.535-4.155-3.096-6.486.296.634.952 2.868 2.013 2.002.338-.274.517-.867.706-1.24l.635-1.259c1.991-3.937 2.546-8.396 2.127-12.754-.427-4.453-1.777-8.791-3.488-12.907-.236-.57-.48-1.135-.732-1.697-.122-.272-.26-.423-.035-.669.116-.128.361-.064.507-.033.401.088.788.265 1.153.454 1.342.696 2.504 1.679 3.664 2.636.429.353.968.98 1.574.614.427-.257.554-1.02.707-1.451.645-1.794 1.202-3.608 1.6-5.474.99-4.641 1.094-9.438.463-14.134a48.146 48.146 0 0 0-.645-3.696c-.066-.314-.284-.65.084-.801.366-.149.801-.15 1.187-.111 1.203.123 2.104.941 3.217 1.328a5.533 5.533 0 0 0 2.336.272l1.714-.149c.665-.059 1.215-.729.675-1.333-.898-1.009-1.825-2-2.624-3.091-1.726-2.362-2.876-5.103-3.256-8.007-.093-.708-.088-1.425-.183-2.13a14.473 14.473 0 0 0-.446-2.14c-.385-1.315-.996-2.571-1.889-3.619 1.523-.94 2.262-2.468 2.586-4.171.096-.515.42-1.337-.001-1.773-.415-.431-1.224-.152-1.736-.075-1.9.284-3.786.367-5.682-.011-1.1-.22-2.172-.571-3.193-1.034a16.252 16.252 0 0 1-1.483-.768c-.397-.232-.769-.521-1.178-.73-.383-.197-.824-.306-1.235-.438a36.222 36.222 0 0 0-5.438-1.287 36.824 36.824 0 0 0-7.425-.386 40.118 40.118 0 0 0-3.85.373c-1.13.165-2.285.11-3.427.212-1.547.138-3.194.391-4.551 1.192-.472.277-.898.63-1.235 1.062a3.29 3.29 0 0 0-.71 1.77c-.011.138-.015.277-.011.415a27.985 27.985 0 0 1-4.267.317c-1.224-.007-2.438-.189-3.659-.189-1.591 0-3.362.359-4.358 1.715-.487.662-.705 1.472-.701 2.288.008 1.03.222 2.1 1.028 2.809-1.017.965-1.767 2.25-1.765 3.681.002 1.391.701 2.875 1.812 3.722-2.243.124-4.496.19-6.744.105-1.697-.064-3.441-.188-5.085-.65-.558-.157-1.444-.392-1.709-.983-.146-.325-.097-.789-.091-1.133a7.426 7.426 0 0 1 .273-1.869c.294-1.042.743-2.053 1.124-3.066.185-.495.371-1.114-.269-1.397-.468-.207-.887.142-1.268.37-.903.541-1.82 1.062-2.708 1.626-1.786 1.137-3.374 2.784-3.669 4.961-.138 1.015.02 2.048.373 3.005.354.959.807 1.635 1.58 2.299 2.699 2.316 6.473 2.894 9.917 2.928 3.85.037 7.623-.794 11.463-.901a4.377 4.377 0 0 0-.497.686c-.084.146-.161.128-.315.18a2.759 2.759 0 0 0-1.072.649c-.632.621-.84 1.494-.784 2.356.112 1.718.79 3.283 2.31 4.196 3.188 1.917 6.933.284 10.325.198-.141.793-1 1.063-1.69 1.207-.785.163-1.596.189-2.395.174a27.456 27.456 0 0 1-3.251-.28c-1.273-.178-2.493-.573-3.748-.849-4.671-1.03-9.518-1.22-14.229-.336a32.703 32.703 0 0 0-3.562.877 24.658 24.658 0 0 1-3.536.294c-1.936.01-3.986-.246-5.658-1.292-1.158-.725-1.864-1.791-2.619-2.884-.313-.455-.627-.909-.942-1.364-.358-.521-1.173-.739-1.479-.007-.103.246-.099.563-.131.823-.06.472-.117.943-.177 1.414-.125 1.01-.26 2.019-.273 3.038-3.585-1.896-6.694-4.58-9.326-7.647-.606-.707-1.126-1.484-1.725-2.198-.7-.837-1.443-1.645-2.258-2.373-1.312-1.172-2.849-2.188-4.586-2.577.569-.917 1.582-1.532 2.385-2.23a34.227 34.227 0 0 0 2.244-2.115c1.354-1.411 2.983-3.278 2.929-5.368a3.264 3.264 0 0 0-.559-1.758 5.685 5.685 0 0 0 .321-1.424c.1-1.1-.179-2.185-.754-3.125-.673-1.101-1.731-1.971-2.65-2.864-.323-.313-.69-.819-1.195-.765-.7.075-.704.731-.701 1.262.008 1.227.173 2.633-.157 3.826-.095.337-.239.679-.495.927-.286.279-.647.231-1.021.311a4.557 4.557 0 0 0-2.016.96c-1.541 1.307-1.573 3.264-1.971 5.095a12.573 12.573 0 0 1-.42 1.526c-1.052-3.537-2.741-7.859-6.362-9.483a6.694 6.694 0 0 0-1.035-.365c-.25-.064-.364-.093-.559-.271a7.516 7.516 0 0 0-.732-.592 6.08 6.08 0 0 0-3.038-1.107c-1.464-.109-2.864.395-4.253.783-.538.15-1.219.4-.978 1.127.15.457.813.697 1.197.917l1.244.71c.436.249.861.519 1.239.85.143.126.286.262.396.419.118.169.017.203-.098.372-.552.81-.852 1.854-.585 2.819.203.737.655 1.389 1.169 1.946.273.296.569.576.895.815.956.705 1.931 1.352 2.767 2.207.336.345.653.714.907 1.124-1.708-1.475-3.507-2.872-5.459-4.014-1.665-.974-3.5-1.799-5.448-1.944-.99-.073-1.998.042-2.925.407a5.843 5.843 0 0 0-1.205.646c-.411.288-1.148.207-1.652.307-1.979.39-3.696 1.659-3.92 3.774-.127 1.213.237 2.541.429 3.738.105.664.847 1.141 1.392.546l.988-1.081c.341-.372.673-.755 1.028-1.112a5.33 5.33 0 0 1 .842-.717c.172-.113.43.379.545.517 1.221 1.484 3.046 2.421 4.979 2.405 1.869-.016 4.068.111 5.573 1.362a4.386 4.386 0 0 1 1.271 1.755c.104.264.315.688.069.918-.527.496-1.359.711-2.036.92-1.015.313-2.029.423-3.087.477-1.825.093-3.618.807-4.329 2.624a4.756 4.756 0 0 0-.303 1.375c-.019.249.021.469-.247.59-.077.035-.161.035-.244.039l-1.622.072c-.146.007-.294.003-.438.02a.794.794 0 0 0-.704 1.056c.165.453.64.877.931 1.247.383.489.755.969 1.278 1.323.805.545 1.781.767 2.744.771a8.47 8.47 0 0 0 1.49-.136c.276-.048.55-.108.822-.175.305-.076.707-.283 1.011-.211.946.219 1.94.151 2.859-.156.933-.311 1.776-.848 2.527-1.473.905-.753 1.599-1.689 2.446-2.496.354-.338.792-.733 1.286-.849a.43.43 0 0 1 .3.033c.493.236.952.731 1.314 1.133.676.748 1.124 1.655.992 2.683-.088.67-.401 1.298-.655 1.919-.333.815.396 1.083 1.005 1.253.773.216 1.552.454 2.364.433.233-.006.467-.036.694-.089.215.225.433.451.647.677.456.484.908.973 1.354 1.466.83.916 1.64 1.848 2.43 2.799a68.367 68.367 0 0 1 4.134 5.497c2.612 3.89 4.802 8.145 5.962 12.702.183.711.254 1.508 1.187 1.452 1.229-.073 2.387-.185 3.458-.865a70.463 70.463 0 0 0 .544 2.502c.046.204-.008.185-.165.295a7.1 7.1 0 0 1-.424.271c-.756.447-1.596.747-2.449.952-1.56.377-3.154.417-4.751.425l-1.761.01c-.131.001-.269-.01-.399.01a.794.794 0 0 0-.634 1.03c.134.399.672.718.975.976l1.254 1.063c4.158 3.53 9.292 5.962 14.852 5.614-4.114 1.729-8.026 3.92-11.791 6.307a119.658 119.658 0 0 0-4.619 3.076c-.507.354-1.001.689-1.61.838-.878.213-1.77-.03-2.551-.442a8.166 8.166 0 0 1-1.295-.866c-.531-.427-.872-.928-1.268-1.475-1.201-1.658-2.476-3.294-3.961-4.709-.715-.682-1.493-1.316-2.369-1.783-.412-.219-.85-.4-1.304-.513a5.11 5.11 0 0 0-.317-.067c-.156-.027-.145-.109-.217-.242a3.113 3.113 0 0 0-.465-.651c-1.262-1.372-3.347-1.407-5.062-1.192l-2.942.37c-.368.046-.876.031-1.157.306-.521.509-.122 1.123.409 1.364l2.928 1.329c.392.177.84.375 1.089.745.414.619.005 1.385-.188 2.007-.468 1.5-.088 2.986 1.091 4.035.995.886 2.337 1.332 3.505 1.942 1.064.557 2.139 1.149 3.078 1.903-2.4.176-4.825-.052-7.173-.566-.585-.128-1.123-.386-1.694-.562a9.54 9.54 0 0 0-1.684-.364c-.975-.114-1.972-.038-2.893.314a5.215 5.215 0 0 0-2.309 1.773c-.994.352-1.974.802-2.793 1.477-1.546 1.272-1.916 3.145-1.115 4.962.201.457.401.913.603 1.369a.797.797 0 0 0 1.04.408c.199-.087.367-.276.528-.419.398-.355.789-.723 1.2-1.063.289-.239.604-.468.955-.612.368-.15.52-.046.805.231 1.567 1.526 3.655 2.204 5.81 1.754a8.32 8.32 0 0 0 1.528-.483c.265-.111.526-.235.781-.369.297-.156.612-.425.941-.479a64.56 64.56 0 0 1 3.363-.469 23.302 23.302 0 0 1 2.145-.153c-1.018 1.759-2.709 3.086-4.384 4.18-.482.315-.988.69-1.523.902a6.398 6.398 0 0 0-1.573.886 4.542 4.542 0 0 0-1.576 2.265 5.013 5.013 0 0 0-.203 1.356c-.003.204.086.538-.048.689a7.001 7.001 0 0 0-.565.721c-.647.945-1.027 2.066-.921 3.219.117 1.281.878 2.466 1.441 3.597.29.582 1.076.839 1.464.168l.756-1.309c.295-.512.565-1.05 1.012-1.45a2.944 2.944 0 0 1 1.24-.634c.551-.142 1.033-.101 1.592-.073 2.005.1 3.973-.57 5.269-2.147.596-.725 1.019-1.575 1.317-2.46.165-.488.293-.989.393-1.494.09-.469.303-.826.567-1.229 1.028-1.546 2.474-2.456 4.353-2.45-1.171 1.704-2.152 3.859-1.53 5.953.253.848.756 1.595 1.403 2.194.349.323.735.604 1.143.851.472.286 1.036.465 1.456.828.429.372.234.86.043 1.316-.222.525-.443 1.049-.663 1.574-.15.357-.471.862-.414 1.267a.798.798 0 0 0 1.012.642c.139-.042.273-.122.404-.186 2.622-1.271 6.097-2.548 6.308-5.948a5.41 5.41 0 0 0-.169-1.652c.359-.413.617-.909.738-1.442.215-.937-.013-1.895-.404-2.751a9.536 9.536 0 0 0-.778-1.36c-.314-.465-.579-.797-.673-1.367-.067-.398-.025-.617.343-.764.698-.276 1.714-.388 2.393-.061.538.26.39.856.374 1.359-.016.455-.13 1.021-.021 1.471a.796.796 0 0 0 1.051.551c.166-.064.321-.175.474-.263 1.279-.738 2.597-1.436 3.729-2.394.78-.661 1.494-1.459 1.863-2.425a17.239 17.239 0 0 0 3.479-.208c2.354-.379 4.615-1.213 6.728-2.304.916-.473 1.673-1.157 2.503-1.764a39.073 39.073 0 0 1 3.032-2.016c3.886-2.323 8.578-4.051 13.109-2.71.488.144.964.328 1.442.502.517.189.867.033 1.191-.387.918-1.191 1.913-2.347 3.195-3.165.442 2.958 2.957 5.082 5.347 6.586 1.8 1.134 3.734 2.05 5.693 2.869 2.156.9 4.417 1.482 6.537 2.486.298.142.596.288.888.44l-2.283-.25c-.658-.072-2.276-.454-2.08.773.056.359.34.532.606.725l1.138.827c.607.44 1.226.868 1.821 1.325-9.309-.581-18.808-.747-28.033.808-3.957.667-7.918 1.68-11.523 3.476-2.893 1.441-5.577 3.448-7.344 6.192-.966 1.5-1.828 3.309-2.013 5.092-.1.979.04 1.985.522 2.852.37.668 1.153 1.405.573 2.194-.729.99-2.124 1.355-3.237 1.752l-3.074 1.096c-.51.182-.813.752-.458 1.236.221.302.565.32.9.37l2.905.426c2.922.429 6.163.728 8.803-.886a14.134 14.134 0 0 0 3.149 4.122 16.057 16.057 0 0 0 2.183 1.657c.708.45 1.567.761 2.097 1.436-.499.335-1.125.512-1.697.668-1.064.291-2.131.441-3.225.562-2.396.266-4.775.757-7.063 1.524a28.25 28.25 0 0 0-5.938 2.782 29.691 29.691 0 0 0-2.623 1.862c-.843.663-1.835.222-2.641-.28-.962-.6-1.796-1.394-2.573-2.211-.207-.218-.41-.438-.61-.662-.198-.224-.329-.512-.481-.77a26.955 26.955 0 0 0-.993-1.549c-1.107-1.602-2.444-3.18-4.191-4.107-.966-.513-2.048-.794-3.143-.745-.214.01-.38-.269-.55-.404a3.483 3.483 0 0 0-.58-.371c-.462-.239-.97-.385-1.481-.48-1.742-.324-3.568-.179-5.319-.01l-3.271.314c-.322.032-.725.01-1.033.129-.748.287-.58 1.234.071 1.498l3.02 1.224c1.27.515 2.771 1.042 3.51 2.274.088.149.293.472.254.652-.061.281-.124.562-.158.847a4.692 4.692 0 0 0 .087 1.703 4.357 4.357 0 0 0 1.289 2.147c1.02.939 2.291 1.229 3.513 1.79 1.109.509 2.217 1.04 3.262 1.67-1.794.071-3.589-.489-5.234-1.155-1.125-.456-2.178-1.044-3.277-1.554a7.672 7.672 0 0 0-3.346-.723c-1.045.017-2.079.258-3.044.652a11.21 11.21 0 0 0-1.479.739c-.553.329-1.054.75-1.619 1.052-1.866 1-2.843 2.854-2.575 4.953.145 1.132.547 2.254.849 3.351.187.681 1.01.886 1.443.292.312-.424.622-.848.933-1.273.317-.433.625-.879.97-1.29.332-.394.714-.814 1.161-1.078.507-.299.658.16.96.5a5.677 5.677 0 0 0 2.626 1.749c1.091.339 2.191.294 3.309.139 1.343-.186 2.692-.332 4.048-.367.85-.021 1.792-.042 2.608.243-1.389.325-2.753.849-4.088 1.34-1.554.573-3.08 1.228-4.416 2.223-1.261.939-1.739 2.525-1.65 4.043.018.281.051.562.099.84-.16.248-.309.503-.438.77a5.516 5.516 0 0 0-.524 1.61 3.943 3.943 0 0 0 .563 2.69c.647 1.021 1.772 1.75 2.698 2.503.178.146.349.281.594.297.431.03.797-.3.838-.723.052-.513.102-1.026.153-1.54.046-.459.063-.963.257-1.388.351-.782 1.217-.952 1.991-.936 1.833.024 3.949-.328 5.263-1.729.67-.715 1.057-1.642 1.314-2.573.104-.379.111-.94.361-1.245.248-.3.502-.564.842-.762.813-.473 1.812-.583 2.736-.564.437.009 1.015-.044 1.422.16.246.124.408.354.521.599.091.198.154.41.202.622.082.358-.09.638-.212.977-.34.955-.626 1.952-.695 2.968-.065.959.096 1.951.691 2.731.636.834 1.648 1.242 2.675 1.315.325.267.631.607.752 1.019.133.448-.012.847-.129 1.277-.13.47-.258.94-.386 1.41-.188.686.295 1.165.976 1.075l1.603-.212c1.745-.231 3.35-1.09 4.088-2.755.424-.954.518-2.024.447-3.055-.016-.242-.117-.545.013-.75.143-.228.268-.466.367-.714a3.848 3.848 0 0 0 .28-1.619c-.044-1.003-.477-1.933-1.074-2.726a9.327 9.327 0 0 0-1.129-1.23c-.199-.185-.354-.676-.094-.881.613-.48 1.622-.551 2.365-.619.551-.05 1.103-.069 1.653-.073.479-.023.96-.111 1.436-.172 4.939-.639 9.87-1.357 14.771-2.242 4.221-.762 8.434-1.635 12.565-2.794 2.562-.719 5.044-1.617 7.515-2.598l1.681-.666c.361-.144.816-.25.984-.642a.79.79 0 0 0 .062-.303c.002-.176.116-.138.274-.183.277-.08.553-.17.824-.271.393-.145.775-.313 1.151-.497l1.455-.708c.59-.287.891-1.073.196-1.474l-1.357-.783c-1.804-1.042-3.554-2.176-5.141-3.532-2.202-1.883-4.154-4.269-4.828-7.144 1.693.785 3.503 1.139 5.271.416l1.496-.613c.711-.291.62-1.106.051-1.474-1.279-.827-2.585-1.625-3.738-2.626-1.494-1.297-3.085-3.177-2.392-5.29.586-1.783 2.25-2.988 3.756-3.98 1.551-1.021 3.237-1.826 4.979-2.459 1.989-.723 4.055-1.229 6.139-1.583a47.481 47.481 0 0 1 2.064-.302c.21-.026.145.04.172.219.029.196.055.396.12.585.246.82.987 1.625 1.647 2.14a5.665 5.665 0 0 0 1.694.898c-1.221 1.755-2.421 3.533-3.481 5.39-.446.784-.881 1.586-1.203 2.43-.367.956-.606 1.969-.805 2.973-.908 4.605-.239 9.348 2.218 13.382.606 1.018 1.405 1.909 1.947 2.962.532 1.033.954 2.146 1.057 3.31.093 1.037-.093 2.081-.588 3.001-.251.464-.568.896-.858 1.335-.237.358-.724.869-.731 1.326-.014.812.77.807 1.343.743 1.458-.167 2.943-.261 4.326-.791 2.273-.869 3.891-2.686 4.72-4.946 2.023 1.167 4.345 1.682 6.665 1.739a22.03 22.03 0 0 0 3.629-.231c.551-.08 1.13.245 1.624.489a6.34 6.34 0 0 1 1.339.866c.668.578 1.094 1.339 1.187 2.22.02.192-.388.295-.553.379a20.99 20.99 0 0 0-2.151 1.27c-1.89 1.27-3.588 2.806-5.154 4.451-1.613 1.695-3.095 3.513-4.49 5.389-.308.411-.609.824-.904 1.242-.237.337-.284.831-.446 1.207-.185.427-.432.87-.825 1.139-.4.274-.921.257-1.381.181-.507-.083-.999-.255-1.47-.457-.525-.224-.852-.986-1.182-1.45a32.672 32.672 0 0 0-2.189-2.787c-1.341-1.512-2.955-3.021-4.935-3.625a5.656 5.656 0 0 0-1.13-.225 5.423 5.423 0 0 0-.979.004c-.187.019-.264-.111-.408-.225a5.71 5.71 0 0 0-2.784-1.177c-1.712-.228-3.312.314-4.874.948-.551.224-1.103.449-1.656.672-.123.051-.259.094-.375.162a.793.793 0 0 0-.19 1.207c.274.305.871.379 1.244.491l1.673.499c1.172.349 2.772 1.045 2.309 2.554-.553 1.792 1.008 3.261 2.322 4.189-1.889.016-3.875.135-5.654.824-.621.24-1.217.562-1.716 1.004a4.038 4.038 0 0 0-.578.627c-.298.402-.854.646-1.264.939-1.628 1.163-3.554 2.746-3.857 4.858-.084.58.014 1.131.117 1.698.086.469.142.956.258 1.418.11.593.83.835 1.29.457.24-.2.481-.399.723-.598.741-.613 1.475-1.243 2.265-1.793a8.568 8.568 0 0 1 1.147-.693c.197-.096.294-.168.479-.034.279.206.564.401.863.578 1.366.806 2.962 1.203 4.537.9-1.487.912-3.142 2.305-3.111 4.213.004.224-.208.491-.305.696-.117.252-.226.51-.317.773a6.447 6.447 0 0 0-.355 1.628 5.49 5.49 0 0 0 .489 2.743c.63 1.36 1.763 2.288 2.861 3.25.339.297.784.848 1.279.821.737-.04.749-.782.812-1.327.156-1.336.135-3.09 1.028-4.164.583-.701 1.344-.254 2.115-.176 1.054.105 2.136-.011 3.093-.487.875-.436 1.58-1.138 2.067-1.981.247-.429.443-.89.594-1.361.075-.238.095-.567.279-.737.234-.214.477-.42.727-.616.769-.602 1.848-1.323 2.878-1.088.521.119.915.581 1.272.955.407.427.778.903 1.052 1.428.517.991.491 2.003.069 3.021-.412.993-.462 2.126.123 3.062.527.841 1.451 1.351 2.381 1.627a8.2 8.2 0 0 0 .772.19c.21.042.522.016.638.21.178.298.179.648.129.982l-.241 1.59c-.028.176-.077.37-.056.548a.796.796 0 0 0 1.108.622c.964-.361 1.978-.84 2.873-1.35 1.81-1.031 3.133-2.749 2.987-4.915-.02-.28-.06-.56-.119-.833.188-.226.361-.462.516-.711.286-.462.5-.973.572-1.513a3.068 3.068 0 0 0-.643-2.319c-.598-.757-1.478-1.274-2.359-1.634-.675-.275-1.452-.599-1.957-1.148-.26-.283.004-.496.24-.727.446-.435 1.015-.762 1.535-1.101.852-.556 1.729-1.083 2.649-1.519.743-.352 1.605-.735 2.443-.706.533.018.77.829.979 1.231.334.634.845.671 1.43.347.613-.341 1.229-.68 1.841-1.026 3.929-2.228 7.753-4.701 11.197-7.63 2.616-2.224 5.064-4.745 6.835-7.704.479-.799.951-1.602 1.427-2.403.054-.09.195-.09.288-.118.262-.083.521-.171.779-.268a13.54 13.54 0 0 0 1.584-.712c.922-.49 1.78-1.095 2.547-1.804 1.417-1.31 2.479-2.937 3.251-4.696l.66-1.509c.064-.145.146-.293.188-.446a.795.795 0 0 0-.73-.997c-.441-.017-.954.206-1.375.312-.471.117-.942.26-1.421.347-.462.092-.968.16-1.433.051-.05-.011-.554-.188-.387-.255.115-.047.236-.077.358-.101.39-.077.783-.07 1.176-.108a11.1 11.1 0 0 0 1.741-.335c1.858-.494 3.621-1.456 4.799-3.007 1.083-1.426 1.562-3.198 1.655-4.965.053-.989.082-2.031.014-3.017a.794.794 0 0 0-.863-.781c-.237.022-.405.16-.585.297l-1.389 1.06c-1.022.779-2.086 1.428-3.311 1.845-1.707.581-3.529.754-5.322.696-3.785-.122-7.52-1.17-11.061-2.453a4.13 4.13 0 0 0 1.264-2.562c.066-.643-.029-1.273-.112-1.909-.062-.471-.092-.957-.186-1.421a.797.797 0 0 0-.967-.663c-.222.053-.38.212-.548.352-1.017.849-2.065 1.956-3.396 2.258-.888.201-1.793-.011-2.604-.385-.964-.444-2.037-1.128-2.711-1.954-1.275-1.565-2.049-3.436-2.104-5.464-.029-1.028.111-2.056.363-3.051.134-.527.3-1.045.489-1.553.213-.569.554-1.068.842-1.602 2.314 3.637 6.25 6.023 10.529 6.499 1.202.134 2.426.123 3.622-.053a13.096 13.096 0 0 0 1.732-.376c.427-.123.822-.351 1.263-.289 2.303.322 4.667.383 6.948-.12 3.312-.73 6.046-2.749 7.602-5.774a14.97 14.97 0 0 0 1.005-2.516c.301-.998.759-1.89 1.471-2.663 1.254-1.358 3.001-2.181 4.737-2.734 1.156-.369 2.353-.612 3.533-.887.662-.153 2.971-.34 2.312-1.558-.207-.383-.704-.45-1.083-.564l-1.775-.533c-1.386-.415-2.766-.838-4.205-1.026-1.233-.16-2.502-.167-3.719.112.345-2.985-.071-6.099-1.832-8.603a17.372 17.372 0 0 0-.278-.376c-.123-.158.146-.324.263-.466.246-.299.461-.623.647-.963.365-.674.615-1.406.794-2.15.319-1.331-.178-2.885-.85-4.041.962.489 1.796 1.201 2.512 2 .789.877 1.592 1.693 2.539 2.406 1.751 1.319 3.819 2.217 6.026 2.338 2.217.122 4.383-.576 6.281-1.686 1.411-.826 2.635-1.887 3.86-2.956l1.002-.873c.322-.279.624-.607.434-1.078-.127-.311.125.311 0 0zM583.441 45.441c-.493-.113-.755-.224-.925-.684 1.295.113 2.619.319 3.821.83-.956.051-1.957.072-2.896-.146-.446-.104.689.16 0 0zm71.171 86.024a3.832 3.832 0 0 1-.955 1.167c.325-1.866.356-3.895-.026-5.756-.356-1.733-1.078-3.372-2.027-4.86-1.104-1.729-2.5-3.26-4.024-4.629-.411-.37-.832-.727-1.263-1.074a27.08 27.08 0 0 0-.673-.531c-.252-.194-.618-.38-.777-.657-.483-.836-1.094-2.011-.75-2.999.306-.884 1.383-1.321 2.194-1.595.249-.083.499-.156.751-.221.146-.038.604-.22.728-.139.461.298.904.625 1.323.978 1.15.966 1.993 2.084 2.863 3.285.979 1.351 1.678 2.918 2.256 4.477.418 1.125.806 2.275.979 3.464.165 1.135.29 2.279.333 3.427.071 1.873.003 3.979-.932 5.663-.27.488.754-1.359 0 0z"/><path fill="#FFF" d="M662.533 125.868c-.976.573-1.676 1.562-2.409 2.4.752-2.748 1.546-5.535 1.172-8.415-.21-1.609-1.069-3.506-2.09-4.779 0 0-.553.104-.731.141a5.295 5.295 0 0 1-.762.098c-1.003.056-2.005-.139-2.959-.433 1.117 1.908 1.629 3.416 2.247 5.534.346 1.178.49 2.4.608 3.62.109 1.148.162 2.303.113 3.456-.078 1.814-.395 3.729-1.399 5.281-.945 1.459-2.438 2.307-4.115 2.585 0 0-.07.09-.152.258a9.987 9.987 0 0 1-.548.972 9.572 9.572 0 0 1-.964 1.26c-.68.755-1.357 1.412-2.235 1.925.135.016.089.01.134.013 3.688.389 7.072-.187 9.594-3.177a9.939 9.939 0 0 0 1.359-2.138c.422-.886.624-1.835.995-2.735.762-1.844 2.182-3.297 3.872-4.319 1.378-.832 2.903-1.4 4.454-1.813-1.981-.517-4.332-.823-6.184.266zm-8.611-14.397a3.377 3.377 0 0 0-2.769-1.938 12.512 12.512 0 0 0-.85-.059c1.519 1.083 2.033 1.711 3.17 3.35.374-.135.631-.818.449-1.353zm-3.149-18.866c-2.987.677-6.062 1.722-8.454 3.699-2.428 2.006-3.602 4.907-3.467 8.033 1.499-1.925 3.554-2.997 5.688-4.072 2.079-1.047 4.284-1.857 6.564-2.346 3.952-.847 8.343-.75 11.992 1.152.853.11 1.71.208 2.569.239.404.015.835.032 1.233-.06 1.534-.35 3.124-.471 4.662-.858 2.861-.724 6.147-2.107 7.113-5.174a5.838 5.838 0 0 1-2.653.741 7.73 7.73 0 0 1-1.35-.063c-.305-.041-.741.395-1.015.549-.711.406-1.533.736-2.366.684-.507-.032-.976-.255-1.445-.432.622-.073 1.242-.132 1.847-.311 1.009-.299 1.932-.844 2.728-1.525 1.608-1.379 2.92-3.387 3.41-5.456.457-1.931-.147-3.711-1.667-4.989a8.3 8.3 0 0 0-.688-.518c-.243-.164-.578-.199-.862-.262a12.643 12.643 0 0 0-1.861-.28c-.962-.065-1.99-.004-2.867.436-.802.401-1.368 1.112-1.676 1.943 1.726-.551 3.971-.773 5.102.961.929 1.424.664 3.3-.201 4.695-1.826 2.938-5.979 3.622-9.138 3.918-2.654.25-5.316.179-7.975.062 1.931-1.272 4.387-2.89 3.588-5.569-.5-1.679-1.711-2.92-3.341-3.52-1.727-.635-3.391-.182-4.697 1.078 1.269-.088 2.44.425 3.372 1.264.43.388.805.781 1.01 1.328.188.5.259 1.045.116 1.564-.252.922-1.067 1.539-1.877 1.961-1.058.556-2.232.879-3.394 1.128-4.392.996 2.176-.466 0 0zm-20.206-44.503c-1.302-1.696-2.353-3.589-3.049-5.613a18.362 18.362 0 0 1-.759-2.991c-.173-1.039-.163-2.093-.324-3.129-.291-1.876-.991-3.763-2.446-5.049-.843-.748-1.904-1.185-2.904-1.678.928-.023 1.904.029 2.816-.16 1.437-.295 2.405-1.284 2.745-2.698-2.189.291-4.425.181-6.562-.377a17.15 17.15 0 0 1-3.107-1.145c-1.04-.5-1.977-1.243-3.067-1.602-4.581-1.502-9.45-1.967-14.241-1.485-.747.075-1.491.172-2.232.29-.662.105-1.369.04-2.038.075-1.109.059-2.233.165-3.306.467-.645.181-1.353.445-1.801.969-.69.808-.199 1.784.222 2.589-1.81.402-3.633.685-5.486.772a29.23 29.23 0 0 1-3.401-.038c-1.015-.071-2.038-.218-3.046-.001-.645.138-1.275.454-1.511 1.111-.135.38-.131.799-.078 1.195.045.333.054.696.343.926.652.519 1.735.158 2.366-.2.691-.383 1.038-.875 1.272-1.604.164.252.369.504.412.81.067.475-.258.861-.612 1.129a4.65 4.65 0 0 1-1.09.616c-.497.194-.701.54-.975.957-.231.354-.605.602-.939.851-.416.31-.781.639-1.071 1.074-.627.944-.579 1.917-.082 2.895.737 1.448 3.001 1.152 5.016 1.135 2.186-.019 4.453-.367 6.595.16 1.806.444 3.983 1.588 4.634 3.449.312.892.194 1.908-.175 2.767-.359.838-1.068 1.46-1.84 1.917-.913.541-1.887.908-2.94 1.015-1.064.107-2.139.175-3.208.13-1.177-.049-2.13.053-3.308.021-.365-.01-.731-.021-1.099-.03-.301-.025-.815-.252-1.12-.214-.587.07-.672.601-.627 1.103.083.917.306 1.815 1.078 2.396.754.568 1.757.715 2.677.743 2.074.063 4.078-.568 6.139-.696 1.851-.114 3.645.258 5.209 1.29l1.181.779c-1.213-.396-2.416-.81-3.677-1.025.099.808.015 1.656-.416 2.363-.435.71-1.155 1.174-1.92 1.464-1.548.583-3.307.577-4.934.479a34.801 34.801 0 0 1-3.483-.404c-1.173-.19-2.321-.602-3.489-.843a34.92 34.92 0 0 0-7.287-.749c-2.142.015-4.281.25-6.374.705-.98.213-1.952.598-2.941.741a28.072 28.072 0 0 1-3.17.289c-3.514.106-7.312-.644-9.592-3.555-.205 2.035-.098 4.418 1.309 6.046 1.094 1.266 2.65 1.622 4.225 1.904-.932.946-1.889 1.823-3.054 2.48-1.533.864-3.255 1.333-5.003 1.484-1.914.165-3.853-.035-5.733-.402-1.796-.351-3.61-.956-5.064-2.096 1.251 3.739 3.361 7.284 6.771 9.415 3.059 1.912 6.732 2.456 10.285 2.257 2.596-.145 5.163-.699 7.721-1.145-2.151.82-4.391 1.548-6.458 2.56-1.961.958-3.772 2.223-5.277 3.807a16.185 16.185 0 0 0-1.9 2.42c-.223.347-.397.74-.673 1.048a8.002 8.002 0 0 1-1.275 1.15c-2.193 1.592-5.025 2.063-7.677 2.133 3.474 2.846 7.725 4.859 12.297 4.707 2.255-.074 4.443-.653 6.511-1.531 1.595-.677 3.066-1.579 4.535-2.487.845-.522 1.71-1.028 2.518-1.607-.405.981-1.508 1.757-2.324 2.377-1.077.822-2.249 1.489-3.472 2.074 4.255 1.757 8.846 2.617 13.451 2.307 4.161-.28 8.076-1.523 11.851-3.24-.157.522-.296 1.054-.516 1.555-.378.859-.962 1.619-1.648 2.255-1.403 1.302-3.193 2.145-4.982 2.775 7.423 1.277 16.58 1.332 21.775-5.073 1.084-1.336 1.826-2.856 2.588-4.385.094 1.335.105 2.705.623 3.961.604 1.467 1.787 2.521 3.22 3.159 1.728.771 3.669.998 5.543 1.041 1.146.027 2.27-.024 3.4.226a7.93 7.93 0 0 1 2.848 1.238c1.243.877 2.187 2.112 2.87 3.46 3.964-8.281 1.028-18.071-2.572-25.921l-.243-.521c-.048-.102.069-.335.101-.426.153-.44.368-.867.682-1.217.707-.794 1.771-.932 2.766-.7 1.773.414 3.364 1.631 4.749 2.753 1.543-4.408 2.123-9.099 1.952-13.755a50.306 50.306 0 0 0-.834-7.33c-.098-.52-.321-1.119-.288-1.648.029-.455.306-.862.616-1.178.658-.671 1.498-.893 2.424-.868.865.023 1.769.164 2.583.458.927.336 1.656 1.035 2.672 1.156a20.604 20.604 0 0 1-.871-1.062z"/><path fill="#FFF" d="M632.84 77.438c-.565 1.831-.86 3.652-.679 5.573.176 1.869.74 3.683 1.533 5.378 1.557 3.325 3.407 5.813 5.946 8.438a11.781 11.781 0 0 1 2.381-2.188c-1.67-1.368-2.62-2.561-3.737-4.411a16.978 16.978 0 0 1-1.385-2.875 18.836 18.836 0 0 1-.517-1.626c-.137-.511-.329-1.08-.323-1.614.042-3.901.584-7.977 2.452-11.459 1.652-3.083 4.327-5.242 7.629-6.385 1.84-.637 3.938-1.013 5.812-.289 1.673.647 2.806 2.121 3.462 3.742.996-1.56 1.357-3.394.154-4.95-.463-.6-1.004-1.055-1.228-1.814-.115-.387-.122-.829.149-1.156.142-.174.352-.302.53-.438-.049.423-.11.833.02 1.249.187.594.645 1.058 1.136 1.417.7.511 1.513.858 2.324 1.148.836.299 1.719.459 2.547.774 1.229.47 2.374 1.333 2.54 2.722.186 1.544-.735 3.086-1.588 4.294 2.388-.367 5.168-1.933 5.068-4.689-.077-2.096-1.697-3.465-2.649-5.173.494.079.942.148 1.413.321 1.025.378 2.084.68 3.164.857 1.875.309 3.836.227 5.607-.512 1.889-.787 3.55-2.379 4.477-4.206.789-1.557.754-3.255-.155-4.757-.204.986-.864 1.833-1.535 2.555-.72.773-1.572 1.62-2.537 2.072-2.108.989-4.467 1.289-6.7.547-.99-.33-2.003-.789-2.694-1.578a11.68 11.68 0 0 0-2.157-1.936 10.058 10.058 0 0 0-5.171-1.732c-2.189-.116-4.375.401-6.411 1.165-.553.207-1.098.433-1.635.676-.515.233-.995.584-1.472.89a52.075 52.075 0 0 0-2.83 1.943c-3.317 2.449-6.347 5.337-8.705 8.731a28.295 28.295 0 0 0-4.236 9.296s.287-1.151 0 0z"/><path fill="#FFF" d="M652.798 46.905c-1.294 3.17-3.896 5.533-6.891 7.091-.805.418-1.657.724-2.406 1.238-.709.487-1.371 1.065-1.847 1.788-.961 1.461-.771 3.17-.045 4.688a46.83 46.83 0 0 1 5.413-4.215c.937-.63 1.893-1.326 2.929-1.782a24.34 24.34 0 0 1 3.415-1.228c.57-.155 1.146-.285 1.729-.386.579-.1 1.213-.081 1.777-.229a30.014 30.014 0 0 0 3.205-1.026c1.663-.646 3.301-1.479 4.637-2.679.629-.566 1.186-1.221 1.599-1.964.546-.984.761-2.037.83-3.148.31.231.596.45.698.847.127.493-.034 1.01-.191 1.476-.383 1.123-1.041 2.125-1.874 2.967-1.753 1.777-4.116 2.873-6.451 3.663 1.078.16 2.135.479 3.116.954a10.687 10.687 0 0 1 1.686 1.018c.126-.027.252-.058.379-.087.285-.067.567-.141.848-.22 1.587-.45 3.21-1.113 4.4-2.291.972-.963 1.502-2.23 1.545-3.593.008-.253-.107-.698-.011-.922.213-.501.429-.988.738-1.441.555-.815 1.338-1.463 2.306-1.711 1.79-.461 3.55.345 4.809 1.588.025-1.595-.362-3.331-1.8-4.236-1.229-.774-2.715-.788-4.117-.752.523-3.728.5-7.834-1.918-10.952-2.613-3.37-7.122-4.518-11.173-4.946-.979-.104-1.988-.151-2.966.001 3.739.967 7.635 2.781 9.5 6.359.797 1.53 1.14 3.251 1.144 4.968 0 .457-.021.916-.062 1.371-.047.515-.205 1.005-.295 1.515-.15.863-.291 2.042.326 2.765.194.245.408.476.609.713-.517-.25-1.142-.468-1.538-.897-.61-.66-.323-1.632-.558-2.429-.588-1.985-2.791-2.494-4.614-2.574 1.165 1.891 2.615 4.75 1.149 6.866-1.261 1.825-3.808 2.109-5.827 2.311.176-2.588.014-5.497-2.306-7.14-1.243-.881-2.797-1.234-4.3-1.306-1.646-.08-3.386.125-4.799 1.037 1.991-.018 4.284.182 5.874 1.514a4.25 4.25 0 0 1 1.396 2.311c.219.937.251 2.185-.068 3.105z"/><path d="M602.154 52.697c.448-.067 2.042-.301 2.462-.39.217-.046.429-.096.636-.147 1.857-.47 3.277-1.205 4.222-2.184a5.047 5.047 0 0 0 1.441-3.329c.051-.983-.04-1.763-.049-1.917 0 0 .543 1.082.606 1.875.152 1.903-.228 3.377-1.457 4.423-1.141.963-2.937 1.577-5.352 1.81-1.573.154-2.509-.141-2.509-.141zm10.16-10.909c.46-.096 2.906-.775 3.29-.875 2.116-.551 3.365-1.228 3.893-2.098.574-.947.331-2.11.023-3.581-.346-1.66-.768-3.692-.218-6.124-1.437.508-3.162.721-5.14.637 0 0-2.677-.262-3.044-.724a.542.542 0 0 1-.104-.472l.042-.182.183.032c.528.084 1.037.153 1.535.206.51.055.988.091 1.42.109 2.314.098 4.251-.216 5.759-.929l.92-.438-.278.919c-.831 2.725-.358 4.999.021 6.827.348 1.662.537 3.374-.414 4.639-.762 1.014-2.177 1.65-4.401 1.967-.429.061-2.996.049-3.487.087z"/><path d="M612.293 38.795l.937-.518c2.45-1.356 3.857-2.702 4.178-4 .162-.654.056-1.291-.324-1.938-1.172.685-2.617.444-4.295-.717l-.865-.598 1.022.245c2.444.585 3.991.409 4.601-.522l.225-.343.129.388c.767 2.326.74 4.174-.08 5.493-.778 1.254-2.281 2.048-4.468 2.358l-1.06.152zm-13.658-6.049a5.02 5.02 0 0 1-.498-.024l-.178-.019a3.935 3.935 0 0 1-.793-.188c-.848-.299-1.513-.883-1.976-1.734-.192-.347-.399-.96-.53-1.446l-.092.002c-1.006 0-3.378-.794-3.525-2.102l-.055-.506.382.337c.992.875 2.079.966 2.82.966.24 0 .455-.032.62-.091a51 51 0 0 0 1.173-.445c1.564-.608 3.337-1.296 5.021-1.296 1.793 0 3.242.992 4.31 2.58l.479.712-.743-.433a24.786 24.786 0 0 1-1.194-.753c-.985-.646-1.695-1.114-2.792-1.114-.563 0-1.229.125-2.042.388l.095.002.348.019a4.692 4.692 0 0 1 1.239.262c.253.089.5.205.749.354l.032.025c.304.19.976.667 1.393 1.077.104.099.186.188.252.276.112.143.214.294.313.446.133.199.258.387.417.565l.095.107-.071.123c-.395.681-1.726 1.298-3.755 1.736a7.091 7.091 0 0 1-1.494.174c-.172 0 .462 0 0 0zm15.564 88.34c-1.067-4.418-3.14-6.432-5.818-6.911l-.655-.117.485.455a20.23 20.23 0 0 1 1.74 1.839c.642.78 1.174 1.562 1.582 2.323 2.014 3.726 1.617 7.696-1.176 11.802l-.659.967 1.223-.907a7.175 7.175 0 0 0 1.074-1.02c1.659-1.907 3.072-4.842 2.204-8.431zm42.204-10.902l-.053-.56a5.87 5.87 0 0 0-.208-1.114c-.306-1.024-.9-1.744-1.817-2.201-.94-.469-2.23-.652-3.836-.545-.94.065-1.987.223-3.108.47l-.623.137.437-.464c.629-.667 2.104-.896 3.229-.972 1.777-.119 3.236.098 4.331.643.575.287 1.847 1.373 2.176 2.588.152.572.081 1.093-.219 1.548l-.309.47zm9.038-43.675l-1.685-.382c-1.226-.559-5.807-3.117-5.84-4.551-.004-.191.066-.46.429-.644l.286-.147-.006.375a.745.745 0 0 0 .01.356c.031.139.101.287.214.456.637.947 2.421 2.097 5.31 3.414l.047.032 1.235 1.091z"/><path fill="#FFF" d="M599.084 31.714c.82-.823 1.077-1.927.7-3.026.61.118 1.104.411 1.592.777.255.19.511.39.729.624.154.167.234.396.369.58-1.067.499-2.205.945-3.39 1.045.672-.673 0 0 0 0zm-3.243-2.392c.265 1.004.818 1.919 1.844 2.266-.357-.969-.417-2.088.313-2.904-.358.059-.71.147-1.053.264-.369.127-.713.319-1.104.374.1.382 0 0 0 0zm-16.329 9.639c0 .178-.714 1.172-.714 1.172-.267-.314-.228-1.172-.228-1.172h.942zm2.366 7.883c-.48-.22-1.121-1.368-1.121-1.368-.635.53-.588 1.258-.588 1.258l1.709.11zm-35.543 130.287c.389-.481.706-1.086.784-1.705.107-.838-.391-1.573-.905-2.187a10.239 10.239 0 0 0-.711-.761c-.109-.106-.285-.215-.369-.341-.113-.169-.157-.455-.217-.647-.112-.377-.222-.758-.178-1.156.225-2.083 3.134-2.382 4.751-2.484.589-.037 1.173-.027 1.759-.102a408.133 408.133 0 0 0 5.65-.758c4.868-.689 9.723-1.48 14.531-2.502 4.085-.87 8.158-1.88 12.103-3.267a47.325 47.325 0 0 0 2.818-1.086c-1.637-.174-3.096-.556-4.518-1.402-.855-.509-1.632-1.153-1.907-2.152.519.438 1.114.907 1.767 1.116.658.21 1.312.439 1.984.602 2.482.596 5.102.524 7.426-.601-3.866-2.237-7.633-5.104-9.685-9.175-.4-.795-.728-1.631-.94-2.497a8.84 8.84 0 0 1-.206-1.153c-.037-.338-.153-.868.061-1.163.501-.688 1.576-.406 2.196-.099.834.413 1.67.834 2.599.99.495.083 1.023.088 1.498-.104-1.94-1.252-3.943-2.792-5.015-4.889-.999-1.954-.704-4.054.512-5.837.969-1.421 2.493-2.511 3.923-3.439a25.127 25.127 0 0 1 4.736-2.375c2.344-.889 4.796-1.471 7.271-1.852a48.184 48.184 0 0 1 3.123-.379c.209-.019.163-.137.212-.321.036-.134.077-.267.126-.396.382-1.035 1.197-1.787 2.297-1.983-.372-.991-.789-1.964-1.299-2.892a18.132 18.132 0 0 0-.53-.908 223.534 223.534 0 0 0-9.736-.556c-4.219-.139-8.445-.138-12.661.117-3.458.21-6.916.59-10.315 1.273-3.759.754-7.548 1.867-10.841 3.873-2.588 1.575-4.698 3.72-5.925 6.507-.448 1.017-.88 2.119-.768 3.253.043.419.171.829.4 1.183.216.33.432.542.599.914.443.991.441 2.074-.207 2.974-.549.762-1.389 1.282-2.221 1.683-.413.199-.839.372-1.272.524 1.803.264 3.757.377 5.505-.225.737-.254 1.423-.655 1.965-1.218.396-.413.671-.903.956-1.393.487 1.756 1.157 3.401 2.283 4.853 1.267 1.631 2.939 2.897 4.767 3.842.763.394 1.753 1.419 1.686 2.342-.068.954-1.123 1.485-1.899 1.8-1.958.793-4.038.92-6.102 1.219-4.47.646-8.815 2.216-12.468 4.907-.861.635-1.607 1.341-2.727 1.448-1.025.098-2.034-.271-2.909-.775-.979-.563-1.847-1.303-2.648-2.091a26.83 26.83 0 0 1-1.159-1.225c-.385-.433-.635-.928-.937-1.422-1.007-1.648-2.213-3.371-3.872-4.425-.926-.588-2.015-.891-3.101-.635-.604.143-.995.465-1.478.838-.3.23-.595.469-.875.722a5.92 5.92 0 0 0-.378.365c-.15.159-.233.222-.197.437.141.811-.184 1.597-.072 2.4.251 1.918 2.231 2.287 3.696 2.956 1.383.63 2.774 1.289 4.049 2.124.484.317.995.672 1.338 1.146.523.719.011 1.308-.726 1.53-1.89.634-3.976.376-5.86-.144a22.904 22.904 0 0 1-3.018-1.087c-1.021-.444-1.982-1.032-3.011-1.447a5.49 5.49 0 0 0-3.296-.249 7.62 7.62 0 0 0-1.597.577c-.184.089-.3.063-.217.28l.163.427.383.996c.109.285.221.569.329.854.066.173.156.628.304.731.273.19.505.47.732.711.642.682 1.273 1.249 2.217 1.459.973.217 1.947-.006 2.917-.125 1.159-.142 2.324-.253 3.491-.278 1.499-.032 3.308-.039 4.463 1.057.341.321.691.756.653 1.253-.036.479-.429.816-.82 1.037-.8.449-1.726.619-2.597.873-1.686.491-3.423 1.049-4.967 1.895-.582.318-1.25.726-1.683 1.231-.565.66-.669 1.562-.591 2.397.023.243.025.95.238 1.088.248.161.497.318.75.473.342.21.688.417 1.041.608.159.087.32.17.483.247.186.085.643-.124.853-.162.435-.078.863-.017 1.304-.027a7.386 7.386 0 0 0 1.594-.194c.827-.206 1.604-.617 2.113-1.317.254-.349.432-.746.547-1.16.063-.23.109-.466.14-.704.026-.216-.017-.509.047-.711.117-.364.463-.751.715-1.029a4.71 4.71 0 0 1 1.124-.907c.797-.467 1.708-.704 2.622-.798.945-.098 2.097-.174 3.001.172.791.303 1.411.935 1.82 1.664a4.99 4.99 0 0 1 .58 1.702c.033.227-.139.523-.212.738-.432 1.263-1.75 4.468.333 4.987.458.115.904.062 1.361.008l1.711-.199 2.443-.287z"/><path fill="#CD202D" d="M194.941 95.937c-8.47 0-15.36 6.881-15.36 15.341s6.89 15.341 15.36 15.341c8.469 0 15.359-6.882 15.359-15.341s-6.89-15.341-15.359-15.341zM0 222.959l20.843 25.682 20.842-25.682 20.842 25.682 20.842-25.682 20.842 25.682 20.842-25.682 20.842 25.682 20.842-25.682 20.842 25.682 20.842-25.682 20.842 25.682 20.842-25.682 20.842 25.682 20.842-25.682 20.842 25.682 20.843-25.682 20.841 25.682 20.843-25.682L396 248.641V471.6H0z"/><path d="M240.008 303.211c3.174-5.929 2.806-14.994-3.796-17.957a11.1 11.1 0 0 0 .009-.482l.014-.019c5.721-8.726-3.453-17.51-10.722-21.256-11.042-5.689-23.52-3.484-33.607 3.014-4.142-3.643-9.027-6.061-14.498-6.974-6.413-1.071-12.944.702-18.524 3.836-4.327 2.43-10.849 7.87-8.946 13.546-4.042 4.517-6.117 10.102-1.601 15.569-1.623 4.729.982 9.179 5.07 12.214.349 6.102 4.78 10.541 10.903 11.575.005.001.009-.001.013.001 2.944 3.585 8.131 4.103 12.781 3.632.271 2.647.963 5.021 2.158 7.168-2.445 3.926-1.674 8.524.639 12.251-2.67 3.494-1.769 8.302.489 12.024-2.669 3.662-1.792 8.519.604 12.164-2.449 4.176-2.155 8.487.479 12.272-1.928 3.879-1.861 8.389.521 12.012-2.328 3.514-2.209 8.103.213 11.605.114.165.242.321.367.479-2.115 3.15-2.504 7.825-.516 11.005.831 1.33 2.03 2.389 3.311 3.332-1.88 5.499-.318 11.211 5.027 14.258 4.951 2.822 8.658 7.086 12.082 11.558-.037 5.201.072 10.413.687 15.56.403 3.379 3.076 11.479 7.961 8.389 3.99-2.524 3.791-9.004 4.055-13.128.233-3.651.371-7.316.432-10.981.068-.064.137-.138.205-.229 2.024-2.674 4.151-5.264 6.652-7.51 1.952-1.755 4.184-2.984 6.342-4.443 4.596-3.11 5.259-8.716 3.975-13.681.479-.367.937-.765 1.356-1.219 3.346-3.614 4.034-9.064 1.184-13.084 2.571-3.599 2.732-7.919.69-11.922 2.508-3.446 2.758-8.591.508-12.208 2.464-3.646 2.691-8.27.615-12.267 2.145-3.546 2.641-7.723.736-11.673 2.277-3.65 2.266-8.833.729-12.757 1.899-3.634 2.185-8.199.432-11.842 2.141-3.765 2.656-8.298.735-12.362 1.796-3.585 2.197-7.818.236-11.47z"/><path fill="#FFF" d="M165.126 312.704c-1.604-3.166-.951-7.313.204-10.519.542-1.505-1.342-3.525-2.041-1.589-1.366 3.794-2.004 8.159-.814 12.078-4.293-1.431-7.177-5.147-6.683-9.984.244-2.397 1.57-4.007 3.285-5.662 2.563-2.479 5.346-4.552 7.654-7.31.981-1.17-.406-3.736-1.67-2.226-2.749 3.283-6.356 5.621-9.114 8.875-1.273 1.503-1.984 3.09-2.322 4.883-1.73-1.387-3.332-3.132-3.487-5.392-.141-2.05 1.162-3.898 2.431-5.371 1.732-2.012 4.099-3.413 6.319-4.814 2.604-1.643 5.02-3.395 7.103-5.677 1.033-1.13-.343-3.68-1.671-2.225-4.319 4.731-11.003 6.692-14.643 12.083-1.071-1.405-1.789-2.991-1.543-4.844.277-2.085 1.603-3.898 2.933-5.452.307-.358.627-.705.959-1.045a1.02 1.02 0 0 0 .17-.165c2.226-2.227 4.94-4.044 7.63-5.608 1.285-.746.395-3.639-1.192-2.716-2.143 1.244-4.472 2.865-6.552 4.748.019-.435.097-.89.243-1.315 1.392-4.055 6.195-6.682 9.775-8.402 9.941-4.779 21.087-2.739 29.116 4.622.348.321.837.238 1.193 0 8.82-5.918 19.323-8.225 29.48-4.467 4.39 1.624 8.57 4.339 11.442 8.066 1.636 2.123 2.695 4.821 2.061 7.355-2.758-7.078-11.913-12.892-19.566-12.936-1.579-.01-1.581 3.137 0 3.146 8.297.048 23.199 9.702 16.312 18.523a11.677 11.677 0 0 0-.591-2.35c-1.949-5.384-7.456-9.273-12.338-11.763-1.465-.748-1.965 2.353-.628 3.034 3.959 2.02 7.697 4.817 10.099 8.607 2.425 3.829.898 7.176-2.128 9.64 0-.585-.043-1.185-.138-1.801-.804-5.217-5.384-9.272-9.673-11.819-1.578-.938-2.471 1.956-1.192 2.717 3.462 2.058 6.742 4.766 8.241 8.609 1.425 3.656-.656 6.86-3.325 9.208.642-5.212-2.438-10.322-5.917-13.949-1.361-1.419-2.732 1.118-1.671 2.226 2.975 3.102 5.895 7.262 5.154 11.794-.67 4.099-4.326 6.637-8.04 8.229 1.662-3.57 2.167-7.815 1.94-11.838-.109-1.939-2.474-1.97-2.363 0 .396 7.032-1.547 13.999-8.767 16.502-4.131 1.431-9.032 1.152-13.206-.318.146-.207.285-.423.418-.647 2.924.751 6.086.453 8.997-.189 7.493-1.655 8.766-10.097 8.466-16.508-.091-1.945-2.455-1.97-2.363 0 .262 5.582-.479 11.78-6.732 13.472-3.09.836-6.569.751-9.546-.423-2.965-1.171-5.286-3.656-7.306-6.025-1.279-1.499-2.663 1.062-1.671 2.225 2.203 2.583 4.595 4.991 7.647 6.507-1.876 2.313-4.773 2.478-7.458.73-3.165-2.06-5.168-6.075-4.667-9.833.233-1.746-2.005-2.892-2.279-.836-.615 4.611 1.062 9.254 4.48 12.354-4.092.263-8.515-.386-10.455-4.215z"/><path fill="#FFF" d="M232.4 330.09c-5.281 3.729-9.808 7.805-13.492 13.19-.849 1.242.564 3.842 1.67 2.226 2.407-3.519 5.209-6.678 8.48-9.416 2.463-2.062 5.384-3.548 7.614-5.879.248-.258.486-.525.715-.799.875 2.291.422 4.927-.509 7.15-1.001 2.392-2.932 3.76-4.93 5.253-4.875 3.645-9.206 7.736-12.936 12.56-.929 1.203.468 3.782 1.671 2.226 4.21-5.444 9.22-9.519 14.609-13.693a11.532 11.532 0 0 0 1.568-1.477c.399 1.494.503 3.092.349 4.604-.3 2.938-1.906 4.768-4.088 6.582-4.732 3.938-9.729 7.341-13.473 12.324-.911 1.213.49 3.798 1.67 2.225 4.12-5.482 9.99-8.723 14.8-13.416 2.118 4.785-1.438 9.391-5.355 12.216-3.901 2.814-7.434 5.547-10.481 9.33-.956 1.187.435 3.76 1.67 2.226 2.042-2.534 4.307-4.764 6.928-6.69 1.732-1.272 3.577-2.384 5.179-3.824.503-.452.97-.927 1.405-1.42 2.036 4.33-.401 8.395-4.083 11.172-3.974 2.998-7.646 5.921-10.784 9.843-.951 1.188.441 3.762 1.671 2.225a41.32 41.32 0 0 1 7.136-7.024c1.758-1.351 3.636-2.545 5.265-4.058.029-.026.056-.055.083-.081 2.271 3.718.124 8.084-3.16 10.637-3.627 2.819-7.538 4.782-10.36 8.552-.909 1.212.493 3.799 1.671 2.225 3.025-4.038 7.753-5.94 11.316-9.287 2.052 4.072.038 7.689-3.262 10.561-3.029 2.638-6.468 4.645-9.38 7.456-1.052 1.016-.095 3.958 1.192 2.717 3.343-3.227 7.438-5.522 10.749-8.749 2.278 3.259 1.064 7.283-2.083 9.668-3.015 2.284-6.237 4.103-9.118 6.613-1.111.97-.169 3.904 1.193 2.717 2.151-1.874 4.393-3.598 6.81-5.116l.342-.214c.473 1.975.619 4.001-.106 5.962-.956 2.587-3.375 3.818-5.559 5.202-3.669 2.328-6.659 5.512-9.354 8.892-.002-.888.002-1.775-.01-2.662-.027-1.957-2.39-1.965-2.363 0 .065 4.807-.055 9.616-.264 14.417-.171 3.941.079 8.717-1.597 12.389-1.052 2.304-3.105 2.074-4.437.235-1.323-1.827-1.495-4.46-1.689-6.625-.614-6.769-.459-13.63-.334-20.416.037-1.966-2.327-1.956-2.363 0-.018.97-.037 1.94-.053 2.915-2.63-3.284-5.508-6.402-8.992-8.775-1.604-1.093-3.426-1.851-4.762-3.295-2.131-2.306-2.237-5.244-1.313-8.008l.163.109c2.534 1.697 4.897 3.482 7.078 5.626 1.273 1.25 2.234-1.694 1.193-2.718-3.012-2.96-6.527-5.028-9.835-7.597-1.753-1.361-2.863-2.776-2.912-5.062-.029-1.382.404-3.061 1.268-4.244 1.121.961 2.363 1.807 3.529 2.613 2.568 1.776 4.991 3.609 7.046 5.983 1.289 1.489 2.671-1.069 1.67-2.225-2.968-3.432-6.669-5.66-10.201-8.42-3.254-2.54-4.984-6.307-2.725-9.818 3.708 3.686 8.87 5.464 11.89 10.003 1.083 1.628 2.501-.977 1.67-2.226-2.517-3.783-6.257-5.976-9.901-8.517-3.876-2.702-6.242-6.896-4.179-11.297 1.855 1.886 4.032 3.352 6.212 4.834 2.581 1.758 4.644 3.849 6.408 6.427 1.106 1.616 2.521-.983 1.671-2.226-2.623-3.831-5.947-6.17-9.658-8.821-2.048-1.462-3.911-3.174-5.29-5.292-1.542-2.368-1.148-4.874.148-7.137.131.135.264.266.399.393 1.809 1.701 3.859 3.086 5.831 4.584 2.747 2.089 5.046 4.632 7.217 7.299 1.244 1.528 2.633-1.043 1.671-2.225-3.166-3.89-6.632-6.966-10.621-9.953-3.545-2.654-8.234-7.678-5.169-12.149.16.183.322.362.487.532 1.99 2.056 4.456 3.662 6.682 5.449 2.823 2.267 5.274 4.896 7.584 7.674 1.259 1.516 2.646-1.052 1.67-2.225-3.428-4.123-7.224-7.517-11.438-10.798-2.205-1.718-4.207-3.45-5.464-5.999-1.018-2.063-1.468-4.797-.018-6.699.245.279.499.55.76.812 2.255 2.257 4.938 4.067 7.421 6.058 2.913 2.335 5.438 4.982 7.385 8.179 1.012 1.66 2.445-.957 1.671-2.225-3.066-5.03-7.586-8.423-12.141-12.007-3.728-2.935-8.553-7.979-5.784-12.921.748.932 1.609 1.82 2.603 2.666 2.711 2.309 5.76 4.133 8.367 6.584 2.26 2.125 4.079 4.646 5.919 7.126 1.171 1.577 2.574-1.008 1.671-2.226-3.532-4.76-7.263-8.785-12.151-12.21-2.207-1.547-4.311-3.251-5.857-5.48-1.289-1.857-1.793-4.092-1.983-6.317.073-.014.146-.025.22-.039.146-.025.274-.082.393-.154a6.838 6.838 0 0 0 2.349.094c.072.102.157.193.258.269 5.66 4.213 11.155 8.905 14.889 14.969 1.02 1.658 2.451-.958 1.671-2.225-3.32-5.392-8.03-9.773-13.006-13.663 5.03 2.007 11.116 2.247 16.137.27a13.583 13.583 0 0 0 4.794-3.162c.136.014.28.007.44-.043 4.596-1.457 9.129-3.918 11.451-8.087.233.046.498-.008.785-.208 2.702-1.885 4.914-4.263 6.007-7.107a1.23 1.23 0 0 0 .447-.184c2.72-1.732 4.704-4.007 5.541-6.665a1.31 1.31 0 0 0 .278-.203c1.757-1.658 2.895-3.395 3.526-5.146 2.871 1.402 4.011 4.802 4.013 7.837.002 3.994-2.472 7.06-5.31 9.577-2.279 2.022-4.748 3.816-7.026 5.843-3.398 3.02-6.346 6.493-9.013 10.165-.889 1.223.516 3.813 1.67 2.225 2.999-4.127 6.346-7.872 10.254-11.158 2.657-2.235 5.434-4.283 7.836-6.805.112-.117.219-.241.326-.365 2.257 5.462-2.245 10.245-6.379 13.501-4.991 3.933-10.135 8.082-13.602 13.485-.808 1.259.617 3.867 1.67 2.226 4.239-6.606 10.854-10.446 16.424-15.71a15.726 15.726 0 0 0 1.655-1.837c1.665 5.014-1.474 9.797-5.721 12.797z"/><path d="M214.694 343.363c-2.794 0-5.339-6.883-5.339-14.438a.65.65 0 0 0-1.302 0c0 7.556-2.545 14.438-5.339 14.438a.65.65 0 1 0 0 1.3c2.944 0 5.339 2.509 5.339 5.593a.65.65 0 0 0 1.302 0c0-3.084 2.395-5.593 5.339-5.593a.65.65 0 1 0 0-1.3zm-10.678-12.488a2.215 2.215 0 0 0 2.214-2.212c0-1.218-.993-2.211-2.214-2.211s-2.214.993-2.214 2.211a2.214 2.214 0 0 0 2.214 2.212zm9.375 0a2.215 2.215 0 0 0 2.215-2.212 2.215 2.215 0 0 0-4.428 0c0 1.221.992 2.212 2.213 2.212zm-4.687-5.755a2.215 2.215 0 0 0 2.213-2.213 2.215 2.215 0 0 0-4.427 0c0 1.22.993 2.213 2.214 2.213zm5.99 57.908c-2.794 0-5.339-6.881-5.339-14.438a.65.65 0 0 0-1.302 0c0 7.557-2.545 14.438-5.339 14.438a.65.65 0 1 0 0 1.301c2.944 0 5.339 2.509 5.339 5.593a.651.651 0 0 0 1.302 0c0-3.084 2.395-5.593 5.339-5.593a.651.651 0 0 0 0-1.301z"/><circle cx="204.016" cy="368.33" r="2.211"/><circle cx="213.391" cy="368.33" r="2.211"/><circle cx="208.704" cy="362.574" r="2.211"/><path d="M214.694 423.487c-2.794 0-5.339-6.882-5.339-14.438a.65.65 0 0 0-1.302 0c0 7.557-2.545 14.438-5.339 14.438a.65.65 0 0 0 0 1.3c2.944 0 5.339 2.509 5.339 5.593a.65.65 0 0 0 1.302 0c0-3.084 2.395-5.593 5.339-5.593a.65.65 0 1 0 0-1.3z"/><circle cx="204.016" cy="408.789" r="2.211"/><circle cx="213.391" cy="408.789" r="2.211"/><circle cx="208.704" cy="403.033" r="2.211"/><path d="M187.577 298.828c-3.042-1.204-2.837-9.794.431-18.02a.763.763 0 0 0-1.418-.561c-3.268 8.227-9.013 14.618-12.055 13.413a.763.763 0 0 0-.563 1.415c3.206 1.271 4.728 5.036 3.394 8.392a.762.762 0 1 0 1.418.562c1.333-3.357 5.025-5.056 8.23-3.785a.763.763 0 0 0 .563-1.416zm-6.224-18.199a2.596 2.596 0 0 0 3.365-1.453 2.59 2.59 0 0 0-4.82-1.908 2.59 2.59 0 0 0 1.455 3.361zm10.205 4.045a2.599 2.599 0 0 0 3.367-1.453 2.592 2.592 0 0 0-1.454-3.362 2.598 2.598 0 0 0-3.366 1.453 2.591 2.591 0 0 0 1.453 3.362z"/><circle cx="189.9" cy="273.979" r="2.59"/><path fill="#FFF" d="M539.928 72.568a14.963 14.963 0 0 1-2.466-1.96c-1.519-1.496-2.799-3.39-3.8-5.631-.601-1.342-.909-2.865-1.207-4.337-.171-.842-.347-1.712-.573-2.512a.296.296 0 0 1 .523-.254c.484.667.952 1.176 1.67 1.815 1.713 1.524 3.153 2.37 4.669 2.742 4.801 1.178 8.461.71 11.163-1.434-1.828-.638-2.974-1.91-3.586-3.965l-.062-.207a2.06 2.06 0 0 0-.244-.059c-4.083-1.724-7.385-4.688-10.534-8.052-1.601-1.71-2.873-3.695-4.566-5.323-1.322-1.273-2.959-2.488-4.864-2.564-.286-.011-.518-.32-.674-.542-.283-.402-.356-.89-.255-1.367.23-1.066 1.021-1.828 1.809-2.521 1.688-1.485 3.499-2.862 4.839-4.691.493-.674 1.064-1.535 1.027-2.407-.018-.43-.229-.798-.557-1.07-.38-.316-.958-.347-1.432-.44-1.117-.22-2.464-.521-3.466.212-.741.541-.986 1.443-1.113 2.305-.154 1.048-.349 2.097-.662 3.111-.219.704-.496 1.422-.949 2.011-.695.901-1.698 1.074-2.693.564-.118-.061-.094-.105-.133-.229a34.168 34.168 0 0 0-.225-.877c-.155-.58-.32-1.157-.502-1.729a25.414 25.414 0 0 0-1.289-3.32c-.766-1.602-1.786-3.302-3.354-4.238-.502-.3-1.287-.682-1.887-.546-.6.134-1.179.422-1.67.793-.226.171-.147.324-.236.573-.125.349-.325.668-.466 1.011-.341.828-.435 1.593.147 2.324.647.813 1.637 1.316 2.441 1.956.87.689 1.708 1.449 2.345 2.364.529.767.95 1.662 1.018 2.604.047.662-.072 1.73-.874 1.872-1.035.182-1.887-.266-2.577-1.025a48.586 48.586 0 0 0-2.8-2.325c-1.494-1.144-3.084-2.223-4.824-2.959-.928-.393-1.919-.692-2.932-.702a4.25 4.25 0 0 0-1.354.196 3.795 3.795 0 0 0-.599.255c-.289.157-.42.363-.593.64a9.907 9.907 0 0 0-.776 1.535c.46.292.686.775 1.038 1.169.713.799 1.624 1.458 2.71 1.605.551.075 1.129.02 1.686.047.57.029 1.139.082 1.703.166.93.141 1.855.37 2.717.753 1.797.8 3.036 2.428 3.598 4.293.657 2.185-2.025 3.181-3.63 3.662a13.48 13.48 0 0 1-3.202.553c-.778.04-1.677.142-2.299.663-.242.203-.42.468-.526.765a2.41 2.41 0 0 0-.123.516 20.007 20.007 0 0 0 1.94 1.857c.351.291.673.58 1.104.734 1.741.625 3.437-.705 4.575-1.879 1.255-1.292 2.633-3.274 4.697-3.079.899.085 1.615.658 2.258 1.246.75.685 1.421 1.499 1.817 2.442.495 1.179.451 2.484.012 3.672.33.078 1.223.314 1.304-.222.042-.213-.002-.475-.002-.692.191.12.384.238.577.356.377.232.661.589.969.905.885.91 1.753 1.836 2.601 2.78a80.204 80.204 0 0 1 4.544 5.506c2.823 3.762 5.296 7.829 6.98 12.23a35.581 35.581 0 0 1 1.054 3.187l.102.378c.048.179.085.125.248.096.234-.038.463-.102.681-.193a3.288 3.288 0 0 0 1.103-.783c.88-.93.994-1.911 1.396-3.055-.622-.197-2.469-1.262-2.489-1.275zm9.535 2.435c-.229.007-.461.015-.682.015-1.999 0-3.696-.291-5.618-.928-.061 1.439.596 4.607.991 6.341 1.468-2.409 2.713-3.896 5.309-5.428zm119.489 30.816a9.638 9.638 0 0 1-2.19-2.458c-.595-.956-1.401-1.758-2.292-2.438-1.803-1.38-3.992-2.185-6.228-2.514-4.762-.703-9.499.673-13.729 2.789-2.067 1.033-4.008 2.19-5.318 4.154a8.623 8.623 0 0 0-1.249 2.875c-.259 1.15-.19 2.277-.014 3.433.181 1.186.372 2.332.817 3.454a14.06 14.06 0 0 0 1.641 2.969 20.091 20.091 0 0 0 2.191 2.559c.801.798 1.738 1.448 2.514 2.27 1.514 1.603 2.744 3.576 3.057 5.788.299 2.117-.486 4.03-1.833 5.644-1.381 1.66-3.346 2.487-5.502 2.106-1.139-.2-2.217-.667-3.219-1.232-.987-.556-1.968-1.188-2.798-1.965-1.694-1.586-2.619-3.86-3.212-6.057-.156-.574-.328-1.159-.364-1.756a16.21 16.21 0 0 0-.213-1.851 11.977 11.977 0 0 0-1.006-3.125c-.993-2.052-2.6-3.717-4.377-5.113-1.791-1.406-3.848-2.404-5.591-3.869-3.463-2.911-6.172-7.161-7.022-11.626-.186-.971-.285-1.976-.148-2.959a5.46 5.46 0 0 1 .133-.657.725.725 0 0 1 .088-.196 9.053 9.053 0 0 0-.984-.517c-1.285-.475-2.762-.483-4.189-.49-.781-.004-1.59-.008-2.356-.089-2.113-.222-3.945-.885-5.445-1.968-.955-.691-2.076-1.662-2.619-3.191-2.049 3.083-5.146 5.131-9.448 6.251-1.922.5-4.076.75-6.496.75-2.601 0-5.507-.289-8.762-.868-.4-.071-.935-.156-1.493-.245a68.15 68.15 0 0 1-2.183-.367.297.297 0 0 1-.238-.278.293.293 0 0 1 .216-.295c.413-.116.837-.229 1.271-.344 2.492-.662 5.272-1.401 7.345-3.204-3.918 1.417-7.982 1.928-12.675 1.6-1.275-.089-3.106-.38-4.354-.629a33.344 33.344 0 0 1-1.738-.398 50.732 50.732 0 0 1-.654-.178l-.343-.094c-2.409.431-4.757 1.159-7.035 2.041-4.576 1.77-8.886 4.177-13.017 6.805a120.224 120.224 0 0 0-3.158 2.081c-.93.633-1.835 1.351-2.885 1.778-2.236.91-4.57.007-6.375-1.398-.943-.735-1.545-1.661-2.252-2.61-.705-.947-1.435-1.884-2.227-2.761-.756-.834-1.584-1.631-2.527-2.252-.42-.277-.889-.523-1.396-.584-.584-.07-1.062.196-1.543.487-.368.222-.825.38-1.102.723-.304.376-.402 1.017-.476 1.481-.157 1.014.168 1.752 1.049 2.287.953.58 2.019.991 3.002 1.52 1.056.567 2.109 1.172 3.042 1.928.716.581 1.701 1.459 1.502 2.493-.091.472-.293.746-.77.823-.62.101-1.248.168-1.875.218-2.535.2-5.093-.011-7.58-.526-2.103-.435-4.612-1.981-6.433-.009-.318.346-.274.767-.225 1.202a9.14 9.14 0 0 0 .395 1.819c.326 1.01 1.172 1.715 2.151 2.092 1.105.424 2.285.256 3.353-.201.495-.213.938-.525 1.41-.784.458-.252.954-.237 1.456-.314 1.863-.29 3.766-.582 5.658-.557.8.01 2.795.112 2.293 1.408-.187.485-.47.986-.724 1.441a9.809 9.809 0 0 1-1.002 1.463c-.752.919-1.64 1.721-2.579 2.445-.944.728-1.961 1.447-3.018 2.003-.468.246-.961.391-1.393.71-.431.32-.758.745-.93 1.255-.152.458-.181.95-.127 1.427.066.602.437.889.879 1.278.399.352.823.696 1.3.939.237.121.419.154.683.116.304-.045.599-.021.905-.009 1.087.045 2.142-.082 3.011-.793.697-.571 1.151-1.382 1.452-2.219.331-.919.385-1.912.862-2.776a8.532 8.532 0 0 1 2.106-2.475 6.732 6.732 0 0 1 3.045-1.37c.861-.151 1.846-.207 2.688.077.864.292 1.329 1.079 1.055 1.976-.3.974-1.074 1.761-1.471 2.703-.418.998-.594 2.149-.026 3.124.233.399.558.74.923 1.02.182.139.368.298.579.39.287.125.575-.006.854-.096a64.755 64.755 0 0 0 1.706-.587c.554-.198 1.135-.355 1.668-.604.896-.418 1.257-1.247.955-2.188-.222-.689-.625-1.298-1.044-1.881-.393-.548-.61-1.017-.727-1.684-.228-1.297.223-2.423 1.453-2.969 1.96-.87 5.77-.728 5.987 2.054.814-.491 1.624-1.031 2.247-1.758.674-.789.776-1.568.569-2.558 2.528.396 5.034.285 7.488-.461a19.963 19.963 0 0 0 3.292-1.31c1.025-.526 1.896-1.259 2.823-1.935 3.645-2.66 7.817-4.94 12.376-5.419 2.008-.211 4.052-.037 5.975.585.121.039.319.163.42.032.121-.157.241-.313.372-.464.312-.359.64-.702.984-1.028.734-.7 1.534-1.292 2.411-1.808 1.694-.998 3.549-1.809 5.452-2.309.928-.244 1.88-.404 2.84-.433 1.066-.031 2.108.182 3.154.359-2.507.231-4.993.519-7.389 1.341-.472.163-.838.204-1.026.706a4.207 4.207 0 0 0-.273 1.841c.091 1.087.649 2.068 1.347 2.882 1.5 1.744 3.58 2.943 5.611 3.963 1.107.557 2.241 1.082 3.402 1.512 1.164.431 2.352.787 3.511 1.224 3.297 1.243 6.595 2.943 8.965 5.612 1.081 1.213 1.941 2.636 2.366 4.21.515 1.9.356 3.801-.595 5.528-.305-2.346-.8-4.783-2.213-6.737-1.209-1.67-3.037-2.762-5.059-3.127 2.396 2.057 3.659 5.044 4.756 7.927-.906.117-1.888.263-2.458 1.062-.546.763-.531 1.783-.404 2.672.124.873.955 1.596 1.726 1.953 1.071.496 2.267.391 3.41.322-1.415 1.994-2.863 3.968-4.173 6.035-1.291 2.042-2.429 4.112-2.936 6.496-1.017 4.79-.145 9.762 2.827 13.706 2.109 2.797 3.328 6.834 1.436 10.062 1.958-.315 3.632-1.493 4.545-3.258 1.161-2.243 1.14-4.912 1.038-7.37.284.419.571.844.744 1.323.217.596.23 1.25.181 1.876-.022.297-.229.726-.065 1.009.105.184.375.343.539.472.24.188.488.364.745.527 1.934 1.235 4.22 1.699 6.492 1.683.601-.004 1.198-.04 1.795-.1.293-.03.585-.065.876-.106.274-.039.583-.153.859-.136.435.026.941.304 1.342.465.476.191.939.41 1.383.666 1.873 1.08 3.144 2.831 3.14 5.048 0 .279.064.663-.064.918-.075.149-.435.212-.582.272-.301.122-.596.254-.889.396a18.662 18.662 0 0 0-2.91 1.795c-1.891 1.403-3.579 3.073-5.133 4.835a57.676 57.676 0 0 0-2.328 2.825c-.369.476-.733.958-1.09 1.442-.178.243-.356.486-.53.731a8.61 8.61 0 0 1-.28.83c-.385.961-1.002 1.867-1.934 2.365-.864.461-1.868.489-2.812.31a8.943 8.943 0 0 1-1.37-.388 18.013 18.013 0 0 1-.71-.279c-.204-.083-.665-.18-.793-.37-.663-.989-1.328-1.978-2.048-2.927-.687-.907-1.428-1.778-2.265-2.552-.808-.749-1.732-1.493-2.805-1.819a3.4 3.4 0 0 0-1.336-.144c-.555.06-.904.431-1.315.772-.431.359-.856.725-1.254 1.123a9.093 9.093 0 0 0-.286.302c-.128.139-.072.177-.073.354-.002.298-.085.587-.137.879-.207 1.156.851 1.854 1.698 2.422.474.317.968.603 1.466.878.443.245 1.101.153 1.588.25.692.137 1.431.361 1.956.853.576.54.586 1.227.531 1.963-2.513-.285-5.039-.488-7.57-.456-1.166.015-2.346.098-3.476.403-.538.146-1.084.332-1.553.64-.148.097-.379.231-.453.403-.085.198.054.543.083.743.076.519.146 1.048.16 1.572.011.359-.027.879.251 1.157.351.35.924.594 1.367.801.544.254 1.12.486 1.729.509.563.022 1.111-.132 1.613-.382.527-.263.923-.666 1.407-.979.432-.28 1.012-.404 1.495-.556a13.443 13.443 0 0 1 1.685-.413c1.631-.285 3.796-.329 4.785 1.276.767 1.244-.81 1.922-1.769 2.206-.545.16-1.101.271-1.661.359-.289.045-.579.085-.868.121-.284.101-.567.204-.849.312-.587.221-1.169.456-1.74.715-1.048.474-2.095 1.002-2.972 1.759-.363.314-.715.682-.894 1.136-.057.144-.189.459-.068.598.124.141.382.174.541.267.454.264.834.626 1.25.943.469.357.956.541 1.537.627.526.079 1.045.148 1.567.257.583.121 1.177.227 1.772.128.977-.16 1.704-.859 2.114-1.731a6.72 6.72 0 0 0 .481-1.563c.171-.453.702-.771 1.057-1.071 1.604-1.351 3.883-2.549 5.978-1.568.953.446 1.772 1.406 2.383 2.239.683.932 1.141 2.007 1.196 3.169a5.436 5.436 0 0 1-.393 2.286c.109-.275.23-.573.335-.834l-.335.834c-.029.081-.035.1-.026.081-.127.365-.221.771-.119 1.15.135.513.658.768 1.125.92.552.18.989.242 1.541.046.579-.206 1.159-.42 1.731-.646a15.179 15.179 0 0 0 1.576-.714c.438-.235.688-.647.972-1.036.525-.718.976-1.518.192-2.238-.594-.546-1.426-.76-2.131-1.119-.741-.378-1.482-.852-2.005-1.51-1.39-1.751.408-3.37 1.85-4.298 1.724-1.107 3.555-2.292 5.58-2.749.835-.188 1.762-.235 2.542.168.394.202.721.509.965.874.149.223 1.203-.54 1.41-.658 4.204-2.423 8.303-5.14 11.854-8.463 1.693-1.583 4.641-5.144 5.459-6.97-.944.126-2.178.307-3.152.189-2.079-.251-3.402-.756-3.402-.756s4.854-.44 5.897-.737c1.942-.554 4.422-1.319 6.063-2.507 1.538-1.114 2.721-2.654 3.526-4.364-1.494.305-4.069.238-4.442-1.672-.159-.816.08-1.626.791-2.101.723-.483 1.594-.527 2.432-.616 1.664-.174 3.378-.677 4.616-1.854 1.302-1.237 1.814-3.041 1.869-4.791-3.615 2.573-8.324 2.774-12.571 2.146-4.722-.698-9.203-2.432-13.568-4.296 1.894-.268 4.993-.491 4.893-3.082-1.787 1.364-4.092 1.7-6.186.874-2.078-.821-3.886-2.355-5.01-4.283-1.167-1.998-1.633-4.324-1.396-6.62.129-1.255.444-2.487.876-3.67.406-1.106 1.098-2.067 1.576-3.143.747-1.678 1.175-3.518.806-5.347.35.153.703.352.911.684.293.465.24 1.072.155 1.588-.045.274-.163.567-.118.846.042.246.143.49.225.725.189.537.414 1.062.674 1.568a12.016 12.016 0 0 0 4.188 4.644c3.4 2.186 7.961 2.676 11.615.815a9.066 9.066 0 0 0 4.276-4.61c.887-2.127 1.089-4.652.729-6.918-.364-2.287-1.484-4.381-2.915-6.178-1.465-1.836-3.245-3.256-5.062-4.716-.786-.633-1.254-1.799-1.528-2.739-.285-.975-.32-2.035.146-2.959.838-1.661 2.834-2.458 4.548-2.83 2.104-.46 4.634-.43 6.571.616 1.371.74 2.976 2.938 1.485 4.354a2.02 2.02 0 0 1-.257.204c1.25.404 2.693.691 3.961.206.692-.265 1.245-.769 1.637-1.391.393-.624.765-1.464.803-2.208.072-1.376-.782-2.852-1.858-3.655-1.274-.951-2.862-1.092-4.38-1.346 2.249-.748 4.467-1.358 6.829-.744a8.868 8.868 0 0 1 2.972 1.413c.939.682 1.663 1.527 2.438 2.377 1.501 1.649 3.597 2.966 5.827 3.282 2.272.322 4.463-.503 6.327-1.753.48-.322.942-.671 1.389-1.038-3.956.141-8.333-.246-11.546-2.801z"/></svg>