<svg xmlns="http://www.w3.org/2000/svg" width="650" height="390"><path d="M0 0h650v390H0z"/><path fill="#ffc627" d="M0 0h325v390H0z"/><g><path d="M-38.587 64.312L0 0l38.587-64.312 651.693 391.02-38.587 64.312-38.587 64.311z" fill="#fff"/><path d="M39.509 23.706L71.76 59.128l4.577-7.203 14.557 2.612-9.155-11.616 4.202-7.427L39.51 23.706zM28.55 11.882a4.497 4.497 0 0 1 1.538 6.171A4.497 4.497 0 0 1 23.92 19.6a4.497 4.497 0 0 1-1.539-6.17 4.497 4.497 0 0 1 6.17-1.547zM37.493 28.036a4.497 4.497 0 0 1 1.539 6.17 4.497 4.497 0 0 1-6.17 1.547 4.497 4.497 0 0 1-1.538-6.171 4.497 4.497 0 0 1 6.17-1.546zM47.011 12.172a4.497 4.497 0 0 1 1.54 6.171 4.497 4.497 0 0 1-6.17 1.546 4.497 4.497 0 0 1-1.539-6.17 4.497 4.497 0 0 1 6.17-1.547zM117.657 114.619l32.251 35.422 4.577-7.203 14.557 2.612-9.155-11.615 4.202-7.428-46.432-11.788zM106.698 102.795a4.497 4.497 0 0 1 1.539 6.171 4.497 4.497 0 0 1-6.17 1.547 4.497 4.497 0 0 1-1.538-6.171 4.497 4.497 0 0 1 6.169-1.547zM115.642 118.949a4.497 4.497 0 0 1 1.538 6.17 4.497 4.497 0 0 1-6.169 1.547 4.497 4.497 0 0 1-1.539-6.17 4.497 4.497 0 0 1 6.17-1.547zM125.16 103.085a4.497 4.497 0 0 1 1.538 6.171 4.497 4.497 0 0 1-6.169 1.547 4.497 4.497 0 0 1-1.538-6.171 4.497 4.497 0 0 1 6.169-1.547z"/><g><path d="M156.502 49.878l32.251 35.423 4.577-7.203 14.557 2.612-9.155-11.616 4.202-7.428-46.432-11.788zM145.543 38.055a4.497 4.497 0 0 1 1.538 6.17 4.497 4.497 0 0 1-6.169 1.547 4.497 4.497 0 0 1-1.539-6.17 4.497 4.497 0 0 1 6.17-1.547zM154.486 54.208a4.497 4.497 0 0 1 1.539 6.171 4.497 4.497 0 0 1-6.17 1.547 4.497 4.497 0 0 1-1.538-6.171 4.497 4.497 0 0 1 6.17-1.547zM164.004 38.345a4.497 4.497 0 0 1 1.54 6.17 4.497 4.497 0 0 1-6.17 1.547 4.497 4.497 0 0 1-1.539-6.171 4.497 4.497 0 0 1 6.17-1.546z"/></g><g><path d="M234.65 140.791l32.251 35.423 4.577-7.203 14.557 2.612-9.155-11.616 4.202-7.428-46.432-11.788zM223.69 128.968a4.497 4.497 0 0 1 1.54 6.171 4.497 4.497 0 0 1-6.17 1.546 4.497 4.497 0 0 1-1.538-6.17 4.497 4.497 0 0 1 6.169-1.547zM232.635 145.121a4.497 4.497 0 0 1 1.538 6.172 4.497 4.497 0 0 1-6.169 1.546 4.497 4.497 0 0 1-1.539-6.171 4.497 4.497 0 0 1 6.17-1.547zM242.153 129.258a4.497 4.497 0 0 1 1.538 6.171 4.497 4.497 0 0 1-6.169 1.546 4.497 4.497 0 0 1-1.538-6.17 4.497 4.497 0 0 1 6.169-1.547z"/></g><g><path d="M312.798 231.705l32.252 35.422 4.576-7.203 14.558 2.612-9.155-11.615 4.202-7.428-46.433-11.788zM301.84 219.881a4.497 4.497 0 0 1 1.538 6.171 4.497 4.497 0 0 1-6.17 1.547 4.497 4.497 0 0 1-1.538-6.171 4.497 4.497 0 0 1 6.17-1.547zM310.783 236.035a4.497 4.497 0 0 1 1.538 6.17 4.497 4.497 0 0 1-6.169 1.547 4.497 4.497 0 0 1-1.538-6.17 4.497 4.497 0 0 1 6.169-1.547zM320.301 220.171a4.497 4.497 0 0 1 1.539 6.171 4.497 4.497 0 0 1-6.17 1.547 4.497 4.497 0 0 1-1.538-6.172 4.497 4.497 0 0 1 6.17-1.546z"/><g><path d="M351.643 166.964l32.251 35.423 4.577-7.203 14.557 2.612-9.155-11.616 4.202-7.428-46.432-11.788zM340.684 155.14a4.497 4.497 0 0 1 1.539 6.172 4.497 4.497 0 0 1-6.17 1.546 4.497 4.497 0 0 1-1.538-6.171 4.497 4.497 0 0 1 6.169-1.546zM349.628 171.294a4.497 4.497 0 0 1 1.538 6.171 4.497 4.497 0 0 1-6.169 1.547 4.497 4.497 0 0 1-1.539-6.171 4.497 4.497 0 0 1 6.17-1.547zM359.146 155.43a4.497 4.497 0 0 1 1.538 6.172 4.497 4.497 0 0 1-6.169 1.546 4.497 4.497 0 0 1-1.538-6.171 4.497 4.497 0 0 1 6.169-1.546z"/></g></g><g><path d="M429.792 257.877l32.25 35.423 4.577-7.203 14.558 2.612-9.155-11.616 4.202-7.428-46.432-11.788zM418.832 246.054a4.497 4.497 0 0 1 1.539 6.171 4.497 4.497 0 0 1-6.17 1.546 4.497 4.497 0 0 1-1.538-6.17 4.497 4.497 0 0 1 6.17-1.547zM427.776 262.207a4.497 4.497 0 0 1 1.538 6.171 4.497 4.497 0 0 1-6.169 1.547 4.497 4.497 0 0 1-1.538-6.171 4.497 4.497 0 0 1 6.169-1.547zM437.294 246.344a4.497 4.497 0 0 1 1.539 6.17 4.497 4.497 0 0 1-6.17 1.547 4.497 4.497 0 0 1-1.538-6.17 4.497 4.497 0 0 1 6.17-1.547z"/></g><g><path d="M507.94 348.79l32.251 35.423 4.577-7.203 14.557 2.612-9.155-11.616 4.202-7.427-46.432-11.788zM496.98 336.967a4.497 4.497 0 0 1 1.54 6.171 4.497 4.497 0 0 1-6.17 1.547 4.497 4.497 0 0 1-1.539-6.172 4.497 4.497 0 0 1 6.17-1.546zM505.924 353.12a4.497 4.497 0 0 1 1.539 6.172 4.497 4.497 0 0 1-6.17 1.546 4.497 4.497 0 0 1-1.538-6.171 4.497 4.497 0 0 1 6.17-1.546zM515.442 337.257a4.497 4.497 0 0 1 1.539 6.171 4.497 4.497 0 0 1-6.17 1.546 4.497 4.497 0 0 1-1.538-6.17 4.497 4.497 0 0 1 6.17-1.547z"/><g><path d="M546.785 284.05l32.25 35.423 4.577-7.203 14.558 2.611-9.155-11.615 4.202-7.428-46.432-11.788zM535.825 272.227a4.497 4.497 0 0 1 1.539 6.17 4.497 4.497 0 0 1-6.17 1.547 4.497 4.497 0 0 1-1.538-6.171 4.497 4.497 0 0 1 6.17-1.546zM544.769 288.38a4.497 4.497 0 0 1 1.538 6.171 4.497 4.497 0 0 1-6.169 1.546 4.497 4.497 0 0 1-1.538-6.17 4.497 4.497 0 0 1 6.169-1.547zM554.287 272.516a4.497 4.497 0 0 1 1.539 6.172 4.497 4.497 0 0 1-6.17 1.546 4.497 4.497 0 0 1-1.538-6.171 4.497 4.497 0 0 1 6.17-1.547z"/></g></g></g></svg>