<svg xmlns="http://www.w3.org/2000/svg" width="650" height="390"><path d="M0 0h650v390H0z"/><path fill="#ffc627" d="M0 0h325v390H0z"/><path d="M-38.587 64.312 0 0l38.587-64.312 651.693 391.02-38.587 64.312-38.587 64.311z" fill="#fff"/><path d="M39.509 23.706 71.76 59.128l4.577-7.203 14.557 2.612-9.155-11.616 4.202-7.427L39.51 23.706zM28.55 11.882a4.497 4.497 0 0 1 1.538 6.171A4.497 4.497 0 0 1 23.92 19.6a4.497 4.497 0 0 1-1.539-6.17 4.497 4.497 0 0 1 6.17-1.547zm8.943 16.154a4.497 4.497 0 0 1 1.539 6.17 4.497 4.497 0 0 1-6.17 1.547 4.497 4.497 0 0 1-1.538-6.171 4.497 4.497 0 0 1 6.17-1.546zm9.518-15.864a4.497 4.497 0 0 1 1.54 6.171 4.497 4.497 0 0 1-6.17 1.546 4.497 4.497 0 0 1-1.539-6.17 4.497 4.497 0 0 1 6.17-1.547zm70.646 102.447 32.251 35.422 4.577-7.203 14.557 2.612-9.155-11.615 4.202-7.428-46.432-11.788zm-10.959-11.824a4.497 4.497 0 0 1 1.539 6.171 4.497 4.497 0 0 1-6.17 1.547 4.497 4.497 0 0 1-1.538-6.171 4.497 4.497 0 0 1 6.169-1.547zm8.944 16.154a4.497 4.497 0 0 1 1.538 6.17 4.497 4.497 0 0 1-6.169 1.547 4.497 4.497 0 0 1-1.539-6.17 4.497 4.497 0 0 1 6.17-1.547zm9.518-15.864a4.497 4.497 0 0 1 1.538 6.171 4.497 4.497 0 0 1-6.169 1.547 4.497 4.497 0 0 1-1.538-6.171 4.497 4.497 0 0 1 6.169-1.547zm31.342-53.207 32.251 35.423 4.577-7.203 14.557 2.612-9.155-11.616 4.202-7.428-46.432-11.788zm-10.959-11.823a4.497 4.497 0 0 1 1.538 6.17 4.497 4.497 0 0 1-6.169 1.547 4.497 4.497 0 0 1-1.539-6.17 4.497 4.497 0 0 1 6.17-1.547zm8.943 16.153a4.497 4.497 0 0 1 1.539 6.171 4.497 4.497 0 0 1-6.17 1.547 4.497 4.497 0 0 1-1.538-6.171 4.497 4.497 0 0 1 6.17-1.547zm9.518-15.863a4.497 4.497 0 0 1 1.54 6.17 4.497 4.497 0 0 1-6.17 1.547 4.497 4.497 0 0 1-1.539-6.171 4.497 4.497 0 0 1 6.17-1.546zm70.646 102.446 32.251 35.423 4.577-7.203 14.557 2.612-9.155-11.616 4.202-7.428-46.432-11.788zm-10.96-11.823a4.497 4.497 0 0 1 1.54 6.171 4.497 4.497 0 0 1-6.17 1.546 4.497 4.497 0 0 1-1.538-6.17 4.497 4.497 0 0 1 6.169-1.547zm8.945 16.153a4.497 4.497 0 0 1 1.538 6.172 4.497 4.497 0 0 1-6.169 1.546 4.497 4.497 0 0 1-1.539-6.171 4.497 4.497 0 0 1 6.17-1.547zm9.518-15.863a4.497 4.497 0 0 1 1.538 6.171 4.497 4.497 0 0 1-6.169 1.546 4.497 4.497 0 0 1-1.538-6.17 4.497 4.497 0 0 1 6.169-1.547zm70.645 102.447 32.252 35.422 4.576-7.203 14.558 2.612-9.155-11.615 4.202-7.428-46.433-11.788zm-10.958-11.824a4.497 4.497 0 0 1 1.538 6.171 4.497 4.497 0 0 1-6.17 1.547 4.497 4.497 0 0 1-1.538-6.171 4.497 4.497 0 0 1 6.17-1.547zm8.943 16.154a4.497 4.497 0 0 1 1.538 6.17 4.497 4.497 0 0 1-6.169 1.547 4.497 4.497 0 0 1-1.538-6.17 4.497 4.497 0 0 1 6.169-1.547zm9.518-15.864a4.497 4.497 0 0 1 1.539 6.171 4.497 4.497 0 0 1-6.17 1.547 4.497 4.497 0 0 1-1.538-6.172 4.497 4.497 0 0 1 6.17-1.546zm31.342-53.207 32.251 35.423 4.577-7.203 14.557 2.612-9.155-11.616 4.202-7.428-46.432-11.788zm-10.959-11.824a4.497 4.497 0 0 1 1.539 6.172 4.497 4.497 0 0 1-6.17 1.546 4.497 4.497 0 0 1-1.538-6.171 4.497 4.497 0 0 1 6.169-1.546zm8.944 16.154a4.497 4.497 0 0 1 1.538 6.171 4.497 4.497 0 0 1-6.169 1.547 4.497 4.497 0 0 1-1.539-6.171 4.497 4.497 0 0 1 6.17-1.547zm9.518-15.864a4.497 4.497 0 0 1 1.538 6.172 4.497 4.497 0 0 1-6.169 1.546 4.497 4.497 0 0 1-1.538-6.171 4.497 4.497 0 0 1 6.169-1.546zm70.646 102.447 32.25 35.423 4.577-7.203 14.558 2.612-9.155-11.616 4.202-7.428-46.432-11.788zm-10.96-11.823a4.497 4.497 0 0 1 1.539 6.171 4.497 4.497 0 0 1-6.17 1.546 4.497 4.497 0 0 1-1.538-6.17 4.497 4.497 0 0 1 6.17-1.547zm8.944 16.153a4.497 4.497 0 0 1 1.538 6.171 4.497 4.497 0 0 1-6.169 1.547 4.497 4.497 0 0 1-1.538-6.171 4.497 4.497 0 0 1 6.169-1.547zm9.518-15.863a4.497 4.497 0 0 1 1.539 6.17 4.497 4.497 0 0 1-6.17 1.547 4.497 4.497 0 0 1-1.538-6.17 4.497 4.497 0 0 1 6.17-1.547zM507.94 348.79l32.251 35.423 4.577-7.203 14.557 2.612-9.155-11.616 4.202-7.427-46.432-11.788zm-10.96-11.823a4.497 4.497 0 0 1 1.54 6.171 4.497 4.497 0 0 1-6.17 1.547 4.497 4.497 0 0 1-1.539-6.172 4.497 4.497 0 0 1 6.17-1.546zm8.944 16.153a4.497 4.497 0 0 1 1.539 6.172 4.497 4.497 0 0 1-6.17 1.546 4.497 4.497 0 0 1-1.538-6.171 4.497 4.497 0 0 1 6.17-1.546zm9.518-15.863a4.497 4.497 0 0 1 1.539 6.171 4.497 4.497 0 0 1-6.17 1.546 4.497 4.497 0 0 1-1.538-6.17 4.497 4.497 0 0 1 6.17-1.547zm31.343-53.207 32.25 35.423 4.577-7.203 14.558 2.611-9.155-11.615 4.202-7.428-46.432-11.788zm-10.96-11.823a4.497 4.497 0 0 1 1.539 6.17 4.497 4.497 0 0 1-6.17 1.547 4.497 4.497 0 0 1-1.538-6.171 4.497 4.497 0 0 1 6.17-1.546zm8.944 16.153a4.497 4.497 0 0 1 1.538 6.171 4.497 4.497 0 0 1-6.169 1.546 4.497 4.497 0 0 1-1.538-6.17 4.497 4.497 0 0 1 6.169-1.547zm9.518-15.864a4.497 4.497 0 0 1 1.539 6.172 4.497 4.497 0 0 1-6.17 1.546 4.497 4.497 0 0 1-1.538-6.171 4.497 4.497 0 0 1 6.17-1.547z"/></svg>