<svg xmlns="http://www.w3.org/2000/svg" width="650" height="390"><path style="fill:#000;fill-opacity:1;stroke:none" d="M0 0h650v390H0z"/><path style="fill:#ffc627;fill-opacity:1;stroke:none" d="M0 0h325v390H0z"/><path style="fill:#fff;fill-opacity:1;stroke:none" d="M235.7-660h150v760h-150z" transform="rotate(-59.036 738.196 -55.621)"/><path d="m314-614-13.781 45.938 8.531.218L314-554l5.25-13.844 8.531-.218L314-614z" style="fill:#000;stroke:none" transform="matrix(.5145 -.8575 .85642 .51386 403.797 608.465)"/><path transform="matrix(.5145 -.8575 .85642 .51386 403.026 609.751)" d="M320-629.5a4.5 4.5 0 1 1-9 0 4.5 4.5 0 0 1 9 0z" style="fill:#000;fill-opacity:1;stroke:none"/><g style="fill:#000"><path style="fill:#000;fill-opacity:1;stroke:none" d="M320-629.5a4.5 4.5 0 1 1-9 0 4.5 4.5 0 0 1 9 0z" transform="matrix(.5145 -.8575 .85642 .51386 411.969 625.905)"/><path style="fill:#000;fill-opacity:1;stroke:none" d="M320-629.5a4.5 4.5 0 1 1-9 0 4.5 4.5 0 0 1 9 0z" transform="matrix(.5145 -.8575 .85642 .51386 421.487 610.042)"/></g><path style="fill:#000;stroke:none" d="m314-614-13.781 45.938 8.531.218L314-554l5.25-13.844 8.531-.218L314-614z" transform="matrix(.5145 -.8575 .85642 .51386 481.946 699.379)"/><path style="fill:#000;fill-opacity:1;stroke:none" d="M320-629.5a4.5 4.5 0 1 1-9 0 4.5 4.5 0 0 1 9 0z" transform="matrix(.5145 -.8575 .85642 .51386 481.174 700.665)"/><g style="fill:#000"><path transform="matrix(.5145 -.8575 .85642 .51386 490.117 716.818)" d="M320-629.5a4.5 4.5 0 1 1-9 0 4.5 4.5 0 0 1 9 0z" style="fill:#000;fill-opacity:1;stroke:none"/><path transform="matrix(.5145 -.8575 .85642 .51386 499.635 700.954)" d="M320-629.5a4.5 4.5 0 1 1-9 0 4.5 4.5 0 0 1 9 0z" style="fill:#000;fill-opacity:1;stroke:none"/></g><path style="fill:#000;stroke:none" d="m314-614-13.781 45.938 8.531.218L314-554l5.25-13.844 8.531-.218L314-614z" transform="matrix(.5145 -.8575 .85642 .51386 520.79 634.639)"/><path style="fill:#000;fill-opacity:1;stroke:none" d="M320-629.5a4.5 4.5 0 1 1-9 0 4.5 4.5 0 0 1 9 0z" transform="matrix(.5145 -.8575 .85642 .51386 520.019 635.925)"/><g style="fill:#000"><path transform="matrix(.5145 -.8575 .85642 .51386 528.962 652.077)" d="M320-629.5a4.5 4.5 0 1 1-9 0 4.5 4.5 0 0 1 9 0z" style="fill:#000;fill-opacity:1;stroke:none"/><path transform="matrix(.5145 -.8575 .85642 .51386 538.48 636.213)" d="M320-629.5a4.5 4.5 0 1 1-9 0 4.5 4.5 0 0 1 9 0z" style="fill:#000;fill-opacity:1;stroke:none"/></g><path d="m314-614-13.781 45.938 8.531.218L314-554l5.25-13.844 8.531-.218L314-614z" style="fill:#000;stroke:none" transform="matrix(.5145 -.8575 .85642 .51386 598.939 725.55)"/><path transform="matrix(.5145 -.8575 .85642 .51386 598.167 726.837)" d="M320-629.5a4.5 4.5 0 1 1-9 0 4.5 4.5 0 0 1 9 0z" style="fill:#000;fill-opacity:1;stroke:none"/><g style="fill:#000"><path style="fill:#000;fill-opacity:1;stroke:none" d="M320-629.5a4.5 4.5 0 1 1-9 0 4.5 4.5 0 0 1 9 0z" transform="matrix(.5145 -.8575 .85642 .51386 607.11 742.991)"/><path style="fill:#000;fill-opacity:1;stroke:none" d="M320-629.5a4.5 4.5 0 1 1-9 0 4.5 4.5 0 0 1 9 0z" transform="matrix(.5145 -.8575 .85642 .51386 616.628 727.128)"/></g><path style="fill:#000;stroke:none" d="m314-614-13.781 45.938 8.531.218L314-554l5.25-13.844 8.531-.218L314-614z" transform="matrix(.5145 -.8575 .85642 .51386 677.087 816.465)"/><path style="fill:#000;fill-opacity:1;stroke:none" d="M320-629.5a4.5 4.5 0 1 1-9 0 4.5 4.5 0 0 1 9 0z" transform="matrix(.5145 -.8575 .85642 .51386 676.315 817.75)"/><g style="fill:#000"><path transform="matrix(.5145 -.8575 .85642 .51386 685.26 833.904)" d="M320-629.5a4.5 4.5 0 1 1-9 0 4.5 4.5 0 0 1 9 0z" style="fill:#000;fill-opacity:1;stroke:none"/><path transform="matrix(.5145 -.8575 .85642 .51386 694.777 818.04)" d="M320-629.5a4.5 4.5 0 1 1-9 0 4.5 4.5 0 0 1 9 0z" style="fill:#000;fill-opacity:1;stroke:none"/></g><path style="fill:#000;stroke:none" d="m314-614-13.781 45.938 8.531.218L314-554l5.25-13.844 8.531-.218L314-614z" transform="matrix(.5145 -.8575 .85642 .51386 715.932 751.724)"/><path style="fill:#000;fill-opacity:1;stroke:none" d="M320-629.5a4.5 4.5 0 1 1-9 0 4.5 4.5 0 0 1 9 0z" transform="matrix(.5145 -.8575 .85642 .51386 715.16 753.01)"/><g style="fill:#000"><path transform="matrix(.5145 -.8575 .85642 .51386 724.104 769.164)" d="M320-629.5a4.5 4.5 0 1 1-9 0 4.5 4.5 0 0 1 9 0z" style="fill:#000;fill-opacity:1;stroke:none"/><path transform="matrix(.5145 -.8575 .85642 .51386 733.621 753.3)" d="M320-629.5a4.5 4.5 0 1 1-9 0 4.5 4.5 0 0 1 9 0z" style="fill:#000;fill-opacity:1;stroke:none"/></g><path d="m314-614-13.781 45.938 8.531.218L314-554l5.25-13.844 8.531-.218L314-614z" style="fill:#000;stroke:none" transform="matrix(.5145 -.8575 .85642 .51386 794.08 842.638)"/><path transform="matrix(.5145 -.8575 .85642 .51386 793.308 843.924)" d="M320-629.5a4.5 4.5 0 1 1-9 0 4.5 4.5 0 0 1 9 0z" style="fill:#000;fill-opacity:1;stroke:none"/><g style="fill:#000"><path style="fill:#000;fill-opacity:1;stroke:none" d="M320-629.5a4.5 4.5 0 1 1-9 0 4.5 4.5 0 0 1 9 0z" transform="matrix(.5145 -.8575 .85642 .51386 802.252 860.077)"/><path style="fill:#000;fill-opacity:1;stroke:none" d="M320-629.5a4.5 4.5 0 1 1-9 0 4.5 4.5 0 0 1 9 0z" transform="matrix(.5145 -.8575 .85642 .51386 811.77 844.214)"/></g><path style="fill:#000;stroke:none" d="m314-614-13.781 45.938 8.531.218L314-554l5.25-13.844 8.531-.218L314-614z" transform="matrix(.5145 -.8575 .85642 .51386 872.229 933.55)"/><path style="fill:#000;fill-opacity:1;stroke:none" d="M320-629.5a4.5 4.5 0 1 1-9 0 4.5 4.5 0 0 1 9 0z" transform="matrix(.5145 -.8575 .85642 .51386 871.456 934.837)"/><g style="fill:#000"><path transform="matrix(.5145 -.8575 .85642 .51386 880.4 950.99)" d="M320-629.5a4.5 4.5 0 1 1-9 0 4.5 4.5 0 0 1 9 0z" style="fill:#000;fill-opacity:1;stroke:none"/><path transform="matrix(.5145 -.8575 .85642 .51386 889.918 935.127)" d="M320-629.5a4.5 4.5 0 1 1-9 0 4.5 4.5 0 0 1 9 0z" style="fill:#000;fill-opacity:1;stroke:none"/></g><path style="fill:#000;stroke:none" d="m314-614-13.781 45.938 8.531.218L314-554l5.25-13.844 8.531-.218L314-614z" transform="matrix(.5145 -.8575 .85642 .51386 911.073 868.81)"/><path style="fill:#000;fill-opacity:1;stroke:none" d="M320-629.5a4.5 4.5 0 1 1-9 0 4.5 4.5 0 0 1 9 0z" transform="matrix(.5145 -.8575 .85642 .51386 910.3 870.096)"/><g style="fill:#000"><path transform="matrix(.5145 -.8575 .85642 .51386 919.245 886.25)" d="M320-629.5a4.5 4.5 0 1 1-9 0 4.5 4.5 0 0 1 9 0z" style="fill:#000;fill-opacity:1;stroke:none"/><path transform="matrix(.5145 -.8575 .85642 .51386 928.763 870.386)" d="M320-629.5a4.5 4.5 0 1 1-9 0 4.5 4.5 0 0 1 9 0z" style="fill:#000;fill-opacity:1;stroke:none"/></g></svg>