<svg xmlns="http://www.w3.org/2000/svg" width="600" height="360"><path fill="#9e1b34" d="M0 0h600v360H0z"/><path d="M252 0h96v360h-96z"/><path d="M0 228v-96h600v96z"/><g fill="#ffc726"><path d="M264 0h72v360h-72z"/><path d="M0 216v-72h600v72z"/></g><g><path d="M300 132.687c-.05-.001-.226.002-.438.25-.655.769-1.574 4.187-4.906 6.187l5.344 42 5.344-42c-3.332-2-4.148-5.403-4.907-6.187-.242-.251-.394-.25-.437-.25zm0 48.437l41.594-7.906c.872-3.787 3.863-5.599 4.375-6.563.163-.308.106-.458.093-.5-.014-.047-.566-.08-.375-.343-.934-.386-4.474-.2-7.406-2.75L300 181.124zm0 0l20.375 37.125c3.87-.34 6.519 1.936 7.594 2.125.343.06.464-.038.5-.062.04-.029-.091-.57.218-.47.079-1.007-1.207-4.298.313-7.874l-29-30.844zm0 0l-29 30.844c1.52 3.576.16 6.794.312 7.875.05.345.185.442.22.469.039.03.5-.264.5.062.982-.237 3.722-2.465 7.593-2.125L300 181.124zm0 0l-38.281-18.062c-2.932 2.55-6.426 2.27-7.407 2.75-.313.152-.36.303-.375.343-.016.047-.076.223.094.5.53.861 3.503 2.776 4.375 6.563L300 181.124z" fill="#00af3a"/><path d="M300 181.124c-22 31-21.55 30.047-22 31-.333.707-1.14 2.69-1.125 4.156.02 1.911 2.571 6.386 4.781 8.407 1.598 1.46 5.215 2.683 8.625 2.625 3-.052 6.7-.818 9.719-.818 3.018 0 6.72.766 9.719.818 3.41.058 7.027-1.165 8.625-2.625 2.21-2.021 4.76-6.496 4.781-8.407.015-1.466-.792-3.45-1.125-4.156-.45-.953 0 0-22-31z" fill="#9e1b34"/><path d="M292 222.124c4-1 6-2 8-4 2 2 4 3 8 4" fill="none" stroke="#405" stroke-width=".8"/><path d="M300 181.124c22.684 30.503 21.917 29.78 22.684 30.503.57.535 2.207 1.916 3.606 2.354 1.823.571 6.867-.472 9.472-1.95 1.883-1.067 4.164-4.13 5.162-7.391.878-2.869 1.293-6.625 2.226-9.496.932-2.87 2.804-6.154 3.78-8.99 1.11-3.226 1.065-7.044.169-9.014-1.24-2.727-4.706-6.536-6.517-7.145-1.39-.468-3.526-.313-4.3-.215-1.047.133 0 0-36.282 11.344z" fill="#9e1b34"/><path d="M336.521 201.402c.285-4.113-.048-6.324-1.332-8.844 2.52-1.284 4.09-2.878 6.276-6.373" fill="none" stroke="#405" stroke-width=".8"/><path d="M300 181.124c36.02-12.148 35.096-11.641 36.02-12.148.685-.376 2.504-1.506 3.353-2.701 1.107-1.558 1.673-6.678 1.073-9.612-.434-2.12-2.641-5.236-5.435-7.193-2.457-1.721-5.901-3.277-8.343-5.051s-4.986-4.57-7.382-6.374c-2.725-2.052-6.37-3.189-8.521-2.946-2.976.336-7.67 2.457-8.81 3.99-.873 1.177-1.386 3.257-1.532 4.024-.197 1.036 0 0-.423 38.011z" fill="#9e1b34"/><path d="M330.571 152.657c-3.824-1.543-6.03-1.91-8.823-1.467-.442-2.793-1.473-4.778-4.12-7.938" fill="none" stroke="#405" stroke-width=".8"/><g><path d="M300 181.124c-.423-38.01-.226-36.975-.423-38.01-.146-.768-.659-2.848-1.533-4.025-1.14-1.533-5.833-3.654-8.809-3.99-2.151-.243-5.796.894-8.52 2.946-2.397 1.805-4.94 4.6-7.383 6.374-2.442 1.774-5.886 3.33-8.343 5.051-2.794 1.957-5.001 5.073-5.435 7.193-.6 2.934-.034 8.054 1.073 9.612.85 1.195 2.668 2.325 3.353 2.7.924.508 0 0 36.02 12.149z" fill="#9e1b34"/><path d="M282.373 143.252c-2.648 3.16-3.679 5.145-4.121 7.938-2.794-.442-5-.076-8.823 1.467" fill="none" stroke="#405" stroke-width=".8"/></g><g><path d="M300 181.124c-36.281-11.344-35.235-11.21-36.281-11.344-.775-.098-2.911-.253-4.3.215-1.812.61-5.279 4.418-6.518 7.145-.896 1.97-.94 5.788.169 9.014.976 2.836 2.848 6.12 3.78 8.99.933 2.87 1.348 6.627 2.226 9.496.998 3.261 3.28 6.324 5.162 7.392 2.605 1.477 7.649 2.52 9.472 1.95 1.4-.44 3.037-1.82 3.606-2.355.767-.723 0 0 22.684-30.503z" fill="#9e1b34"/><path d="M258.535 186.185c2.187 3.495 3.756 5.089 6.276 6.373-1.284 2.52-1.617 4.73-1.332 8.844" fill="none" stroke="#405" stroke-width=".8"/></g><path d="M282.375 156.843c.733 4.411.483 8.31-.375 11.406l18 12.875-6.688-21.094c-3.209-.14-6.968-1.127-10.937-3.187zM300 181.124l18-12.875c-.858-3.096-1.108-6.995-.375-11.406-3.97 2.06-7.728 3.047-10.938 3.187L300 181.124zm0 0l17.812 13.156c2.68-1.773 6.297-3.209 10.72-3.875-3.187-3.138-5.282-6.428-6.407-9.437l-22.125.156zm0 0l-7 21c2.514 2 5 5 7 9 2-4 4.486-7 7-9l-7-21zm0 0l-22.125-.156c-1.125 3.009-3.22 6.3-6.406 9.437 4.422.666 8.04 2.103 10.718 3.875L300 181.124z" fill="#00ab39" stroke="#050" stroke-width=".5"/><g><path d="M300 145.124c-.26 0-1 2-2 3l-5 5c-1 1-2.479 2-2.5 5-.036 5 2.012 6 1.937 7-.085 1.137-.434 2-1.906 3-1.385 1.064-2.308 1.143-3.406.875-.974-.238-1.296-2.52-6.063-4.031-2.86-.907-4.27.201-5.53.844l-6.313 3.218c-1.26.642-3.388.721-3.469.969-.08.248 1.608 1.584 2.25 2.844l3.219 6.281c.642 1.26 1.122 2.99 3.968 3.938 4.745 1.579 6.323-.068 7.25.312 1.055.432 1.786 1.041 2.282 2.75.572 1.63.34 2.544-.25 3.5-.527.853-2.778.465-5.688 4.531-1.746 2.44-1.127 4.103-.906 5.5l1.125 7c.221 1.397-.417 3.594-.156 3.594.21.153 1.978-1.029 3.375-1.25l7-1.094c1.397-.22 3.157-.179 4.937-2.593 2.968-4.025 1.914-6.048 2.563-6.813.737-.87 1.533-1.337 3.312-1.281 1.732-.042 2.522.422 3.25 1.281.649.765-.405 2.788 2.563 6.813 1.78 2.414 3.54 2.372 4.937 2.593l7 1.094c1.397.221 3.19 1.434 3.375 1.25.211-.153-.377-2.197-.156-3.594l1.125-7c.221-1.397.84-3.06-.906-5.5-2.91-4.066-5.16-3.678-5.688-4.531-.59-.956-.822-1.87-.25-3.5.007-.023.025-.04.031-.062.496-1.656 1.21-2.262 2.25-2.688.928-.38 2.506 1.267 7.25-.312 2.847-.948 3.327-2.678 3.97-3.938l3.218-6.281c.642-1.26 2.384-2.62 2.25-2.844-.08-.248-2.209-.327-3.469-.969l-6.312-3.218c-1.26-.643-2.672-1.75-5.532-.844-4.766 1.51-5.088 3.793-6.062 4.031-1.098.268-2.02.189-3.406-.875-.013-.009-.019-.022-.031-.031-1.44-.99-1.791-1.842-1.875-2.969-.075-1 1.973-2 1.937-7-.021-3-1.5-4-2.5-5l-5-5c-1-1-1.74-3-2-3z" fill="#ffc726"/><path d="M312.639 181.124c0 6.98-5.659 12.639-12.639 12.639-6.98 0-12.639-5.659-12.639-12.639 0-6.98 5.659-12.639 12.639-12.639 6.98 0 12.639 5.659 12.639 12.639z" fill="#9e1b34"/></g></g></svg>