<svg xmlns="http://www.w3.org/2000/svg" width="2609" height="1445" xml:space="preserve" xmlns:cgf="https://coding.garden/flags"><metadata id="cgf-metadata">

<cgf:flag>
  <cgf:name></cgf:name>
  <cgf:route>gb/ntt</cgf:route>
  <cgf:aspect-ratio>1.8055363321799307</cgf:aspect-ratio>
</cgf:flag>

</metadata><path fill="#FFF" d="M.021-1.252h2608.928v1446.145H.021z"></path><path fill="#1A5A06" d="M0 900h958.8l4.4 17c22.2 87 73.5 164 147.5 219l10 8v301H0V900z"></path><path fill="#CC0001" fill-opacity=".941" d="m1157.7 1167 12 6c32 16 69 28 103 32 23 2 56 1 81-3 26-5 59-16 83-28l10-5v276h-289v-278z"></path><path fill="#1A5A06" d="m1482.7 1147 7-5c19-13 45-36 61-53 47-51 78-108 95-172l4-17H2609v545H1482.7v-298zm-60.8-746c-.2 0-.2 1-.2 3 1 5 3 8 10 12 28 18 45 36 59 63 7 13 14 34 17 48 1 8 1 14 1 47v39c-1 0-43 2-95 3-93 2-93 2-96 0-2-1-4-2-7-2h-6l1-6 2-8c1-1 1-2 1-4s1-3 3-3c1-1 2-1 2-4 0-2-1-4-2-6-2-3-2-4-1-8 2-7 1-19-2-25-4-8-13-14-26-17-4 0-9-2-11-3-12-6-30-9-45-7-10 1-24.011 5-29.011 7l-3 1 5 4c10.011 6 20.011 9 32.011 9h11s-2 3-4 7c-2 6-3 9-4 16 0 9 2 21 6 30l2 6-16-1c-8-1-19-1-23.011-1-29 1-28 1-35-2-5-2-8-2-18-2s-13 0-21 3c-10 4-12 5-14.002 8-1 3-1 6 1 14 3.002 13 9.002 20 24.002 27 12 6 34 14 52 18l11 3v3c1 6 1 31 0 41-1 5-2 14-4 21-4 22-4 54 1 75 5 24 5 24 4 33-1 4-1 8-1 10s2 3 4.011 0c0-1 2-1 4-1s3 1 3 3c0 1 0 4 1 6 6 14 9 20 10 25l1 6-5 5c-3 2-11 8-18.011 13-10 7-12 9-14 8s-3 0-10 5c-4 4-7 8-7 8 0 1 1 2 2 3 1 2 1 2 0 3-1 2-2 2-4 1s-2-1-3 1-2 3-3 3l-6 6c-5 7-16 19-23 24l-4 4v10c-1 12-1 11 15 34 10 14 11 15 16 16 2 1 7 2 9 3h16c11 0 12 0 14-3 1-1 2-4 2-5 0-4-3-5-12-9l-7-3-4-10c-2-6-3-11-3-12 0 0 4-4 9-7s12-7 14-9c3-2 7.011-3 11.011-4 5 0 6-1 15-8 6-5 9-9 9-10v-4c0-2-1-3-2-3-2-1-3-4-1-6s5-1 6 0c0 2 2 1 6-3 3-3 8-8 10-11s8-10 13-15c10-10 12-14 13-24 1-8 0-24-2-32 0-2 0-2 7-2 8 1 8 1 13-2 12-6 17-4 33 11 10 11 27 32 25 32 0 0-1 0-2 1-2 1-2 2 0 14 2 9 3 13 4 14 2 2 3 6 4 14 2 11 4 15 11 23 2 1 3 3 3 4s1 7 3 14c5 17 6 24 7 36 1 13 2 15 8 15h32c15-1 30-1 33-2 5 0 8-3 8-8v-3l-15-7c-8-3-16-7-18-9-4-3-9-12-10-19-1-5-3-34-2-39 0-1-1-5-2-9-2-3-4-11-5-18-4-16-5-17-8-17-1 0-2 0-2-2 0-6-2-14-7-20-1-2-3-6-4-9-1-4-8-18-15-31-8-16-13-25-12-26 2-2 0-5-17-22l-17-18-2-7c-1-4-2-9-2-11 0-6-1-10-5-16-2-3-3-6-3-8s-1-4-1-6c-4-6-4-9-2-26 1-9 3-17 3-17 1 0 29 18 32 21 1 1 5 5 8 10l6 7 10-20c5-11 10-21 10-22 1-2 2-2 18-3 15-1 29-1 41 0 1 1 5 0 9-1l7-1v-8h9c6 0 11 1 13 2 5 2 9 2 17-1 3-2 6-3 6-2 2 1 2 59 1 72-3 49-30 96-68 121-12 8-16 11-18 15-2 5-1 7 1 2 2-4 5-6 18-15 8-6 18-13 22-16 21-18 42-52 49-78 5-19 7-41 8-78l1-32 4-5c7-6 8-11 5-20-2-7-4-10-7-10s-3 0-3-3v-3h10c10 0 10 0 7-1-2-1-7-2-10-2l-7-1v-18c0-32-3-59-8-81-2-9-5-15-10-26-15-30-32-49-60-67-16-11-18-13-20-19-.4-1-.6-1-.8-1z"></path><path fill="#CC0001" fill-opacity=".941" d="M0 574h951.7l1.5 287 .399 3H0V574zm1655.7 288c0-1 1-66 1-144 0-109 0-142 1-143 1 0 215-1 476.3-1h475v290h-477c-454.3 0-477.3 0-476.3-2z"></path><path fill="#1A5A06" d="M0 0h1120.7v355h-169v183H0V0zm1656.7 355h-174V0H2609v538h-952.3V355z"></path><path fill="#CC0001" fill-opacity=".941" d="M1157.7 354V0h289l-2 354-3 1-284-1z"></path></svg>