<svg xmlns="http://www.w3.org/2000/svg" width="2000" height="1200" xmlns:cgf="https://coding.garden/flags"><metadata id="cgf-metadata">

<cgf:flag>
  <cgf:name></cgf:name>
  <cgf:route>gb/nyk</cgf:route>
  <cgf:aspect-ratio>1.6666666666666667</cgf:aspect-ratio>
</cgf:flag>

</metadata><defs><filter id="a"><feGaussianBlur stdDeviation="3.29"></feGaussianBlur></filter></defs><path d="M0 1200V0h2000v1200z" fill="green"></path><path d="m830 550 170-120 170 120-70 200H895z" fill="#fff"></path><path d="m1182.582 358.697 100.6-138.463" fill="none" stroke="#003100" stroke-width="5"></path><path d="M1197.538 335.154c.148-.121 18.87-25.828 41.607-57.126l41.334-56.908-38.171 12.301c-20.994 6.765-38.205 12.367-38.245 12.45-.041.08.452 2.319 1.096 4.973 3.775 15.546 4.358 30.968 1.8 47.642-1.627 10.61-4.64 22.284-8.394 32.515-1.396 3.806-1.597 4.614-1.03 4.151z" fill="#217200"></path><path d="M1285 305v-87l-82.742 26.884" fill="none" stroke="#003100" stroke-width="5" stroke-linecap="square"></path><path d="M1200.001 337.651c.069-.178 18.732-25.928 41.473-57.223l41.346-56.9.096 40.105c.054 22.057.044 40.156-.022 40.22-.064.065-2.345.287-5.068.494-15.951 1.214-30.8 5.426-45.867 13.01-9.588 4.826-19.759 11.3-28.33 18.032-3.187 2.503-3.894 2.944-3.63 2.262z" fill="#5ab124"></path><path d="M817.417 358.697 716.82 220.234" fill="none" stroke="#003100" stroke-width="5"></path><path d="M799.648 337.198c-.069-.178-18.732-25.928-41.473-57.223l-41.35-56.897-.096 40.104c-.054 22.057-.044 40.156.022 40.22.065.065 2.346.287 5.07.495 15.95 1.214 30.798 5.425 45.866 13.01 9.588 4.826 19.759 11.3 28.33 18.031 3.187 2.504 3.894 2.944 3.63 2.263z" fill="#217200"></path><path d="m797.998 244.699-82.742-26.885v87" fill="none" stroke="#003100" stroke-width="5" stroke-linecap="square"></path><path d="M802.785 335.627c-.149-.12-18.871-25.827-41.607-57.126l-41.338-56.905 38.17 12.301c20.995 6.765 38.206 12.367 38.246 12.45.042.08-.452 2.319-1.096 4.973-3.775 15.546-4.358 30.968-1.8 47.642 1.627 10.61 4.64 22.284 8.394 32.515 1.396 3.806 1.597 4.614 1.03 4.151z" fill="#5ab124"></path><path d="m704.575 705.99-162.772 52.887" fill="none" stroke="#003100" stroke-width="5"></path><path d="M678.638 716.246c-.19.01-30.448 9.802-67.238 21.76l-66.89 21.744 38.111 12.484c20.961 6.867 38.177 12.45 38.259 12.408.08-.042.997-2.142 2.036-4.668 6.084-14.796 14.678-27.616 26.547-39.602 7.553-7.627 16.852-15.3 25.903-21.371 3.366-2.258 4.004-2.794 3.274-2.753z" fill="#217200"></path><path d="m590.156 689.231-51.138 70.385L621.76 786.5" fill="none" stroke="#003100" stroke-width="5" stroke-linecap="square"></path><path d="M678.113 712.777c-.16.104-30.395 9.966-67.187 21.918l-66.895 21.73 23.495-32.502c12.921-17.876 23.568-32.513 23.659-32.526.09-.015 2.066 1.146 4.391 2.58 13.618 8.393 28.106 13.713 44.754 16.434 10.594 1.731 22.627 2.472 33.518 2.064 4.05-.152 4.88-.093 4.266.303z" fill="#5ab124"></path><path d="m1295.425 705.99 162.772 52.887" fill="none" stroke="#003100" stroke-width="5"></path><path d="M1322.437 712.937c.16.104 30.395 9.967 67.187 21.918l66.896 21.725-23.495-32.5c-12.92-17.877-23.567-32.514-23.659-32.527-.09-.014-2.066 1.147-4.39 2.58-13.619 8.394-28.107 13.714-44.754 16.434-10.595 1.731-22.628 2.473-33.519 2.064-4.05-.152-4.88-.093-4.266.303z" fill="#217200"></path><path d="m1378.142 786.8 82.742-26.884-51.137-70.384" fill="none" stroke="#003100" stroke-width="5" stroke-linecap="square"></path><path d="M1320.823 716.052c.19.01 30.448 9.803 67.238 21.76l66.891 21.74-38.11 12.484c-20.962 6.867-38.178 12.45-38.26 12.408-.08-.04-.997-2.142-2.036-4.668-6.084-14.795-14.677-27.615-26.546-39.601-7.554-7.628-16.853-15.3-25.904-21.372-3.366-2.258-4.003-2.793-3.273-2.752z" fill="#5ab124"></path><path d="M1000 920.628v171.15" fill="none" stroke="#003100" stroke-width="5"></path><path d="M1001.74 948.465c-.05.185-.087 31.987-.084 70.672l.01 70.335 23.65-32.388c13.009-17.813 23.64-32.461 23.624-32.552-.015-.09-1.73-1.61-3.81-3.38-12.192-10.357-21.729-22.492-29.46-37.484-4.92-9.54-9.344-20.756-12.321-31.24-1.108-3.899-1.42-4.67-1.607-3.964z" fill="#217200"></path><path d="m948.705 1024.27 51.137 70.384 51.137-70.385" fill="none" stroke="#003100" stroke-width="5" stroke-linecap="square"></path><path d="M998.278 947.893c.05.184.086 31.987.083 70.671l-.005 70.336-23.65-32.389c-13.009-17.812-23.64-32.461-23.624-32.552.014-.09 1.73-1.61 3.81-3.379 12.192-10.358 21.729-22.492 29.46-37.485 4.92-9.54 9.344-20.755 12.321-31.24 1.107-3.899 1.42-4.67 1.606-3.963z" fill="#5ab124"></path><g fill="#fff" stroke="#6a5000" stroke-width="10"><path d="M840 390c-130-180 50-245 160-245s290 65 160 245"></path><path d="M741.325 694.185C529.962 762.2 523.767 570.923 557.759 466.307c33.992-104.616 151.433-255.72 282.451-76.46"></path><path d="M1000.13 882.03c-.63 222.034-184.458 168.82-273.45 104.163-88.992-64.656-196.409-223.044 14.565-292.255"></path><path d="M1258.755 693.938c210.974 69.211 103.557 227.599 14.565 292.255s-272.82 117.872-273.45-104.164"></path><path d="M1159.79 389.847c131.018-179.26 248.46-28.156 282.451 76.46 33.992 104.616 27.797 295.893-183.566 227.878"></path></g><path d="m893.847 752.409-58.464 80.469" fill="none" stroke="#003100" stroke-width="2.906"></path><path d="M885.155 766.091c-.086.07-10.967 15.01-24.18 33.2l-24.022 33.072 22.184-7.149c12.2-3.931 22.203-7.187 22.226-7.235.024-.047-.262-1.348-.637-2.89-2.194-9.035-2.532-17.998-1.046-27.688.945-6.166 2.697-12.95 4.878-18.897.812-2.211.928-2.68.6-2.412z" fill="#217200"></path><path d="M834.326 783.615v50.561l48.086-15.624" fill="none" stroke="#003100" stroke-width="2.906" stroke-linecap="square"></path><path d="M883.724 764.64c-.04.103-10.887 15.068-24.103 33.256l-24.029 33.067-.055-23.307c-.032-12.818-.026-23.337.012-23.374.038-.038 1.363-.167 2.946-.287 9.27-.706 17.9-3.153 26.656-7.561 5.572-2.805 11.483-6.567 16.464-10.48 1.853-1.454 2.263-1.71 2.11-1.314z" fill="#5ab124"></path><path d="M1105 245c-30 0-63 20-105 20s-75-20-105-20-45 20-5 80c-95-70-35-117 5-117s63 17 105 17 65-17 105-17 100 47 5 117c40-60 25-80-5-80z" fill="#d1d159" stroke="#d1d159" stroke-width="3.2" filter="url(#a)"></path><path d="M999.957 425.837V326.37" fill="none" stroke="#003100" stroke-width="2.906"></path><path d="M998.946 409.659c.028-.108.05-18.59.048-41.072l-.006-40.876-13.744 18.823c-7.56 10.352-13.738 18.865-13.73 18.918.01.052 1.006.936 2.215 1.964 7.085 6.02 12.628 13.071 17.121 21.784 2.86 5.545 5.43 12.063 7.16 18.156.644 2.266.826 2.714.934 2.303z" fill="#217200"></path><path d="m1029.767 365.604-29.719-40.904-29.719 40.904" fill="none" stroke="#003100" stroke-width="2.906" stroke-linecap="square"></path><path d="M1000.957 409.991c-.028-.107-.05-18.59-.048-41.071l.003-40.876 13.745 18.823c7.56 10.352 13.738 18.865 13.729 18.918-.008.052-1.005.936-2.215 1.963-7.085 6.02-12.627 13.072-17.12 21.785-2.86 5.545-5.43 12.062-7.16 18.155-.644 2.266-.826 2.715-.935 2.304z" fill="#5ab124"></path><path d="M890 325c-95-70-35-117 5-117s63 17 105 17 65-17 105-17 100 47 5 117" fill="none" stroke="#6a5000" stroke-width="10"></path><path d="M1105 245c-30 0-63 20-105 20s-75-20-105-20-45 20-5 80c-95-70-35-117 5-117s63 17 105 17 65-17 105-17 100 47 5 117c40-60 25-80-5-80z" fill="#d1d159" stroke="#d1d159" stroke-width="3.2" filter="url(#a)" transform="rotate(-72 1000 610)"></path><path d="M694.957 626.546c-95.93 68.72-122.09-2.868-109.729-40.91 12.361-38.042 35.637-54.664 48.615-94.607 12.979-39.944 3.918-67.072 16.28-105.115 12.36-38.042 75.6-80.582 112.818 31.4" fill="none" stroke="#6a5000" stroke-width="10"></path><path d="M1105 245c-30 0-63 20-105 20s-75-20-105-20-45 20-5 80c-95-70-35-117 5-117s63 17 105 17 65-17 105-17 100 47 5 117c40-60 25-80-5-80z" fill="#d1d159" stroke="#d1d159" stroke-width="3.2" filter="url(#a)" transform="rotate(-144 1000 610)"></path><path d="M921.473 905.226c35.712 112.471-40.455 115.228-72.816 91.716-32.36-23.511-40.976-50.784-74.954-75.47-33.979-24.687-62.579-24.453-94.94-47.965-32.36-23.511-53.275-96.802 64.726-97.594" fill="none" stroke="#6a5000" stroke-width="10"></path><path d="m1106.066 752.409 58.465 80.469" fill="none" stroke="#003100" stroke-width="2.906"></path><path d="M1116.393 764.903c.04.104 10.886 15.069 24.102 33.256l24.032 33.066.055-23.307c.032-12.818.026-23.337-.012-23.374-.038-.038-1.364-.167-2.946-.287-9.27-.706-17.9-3.154-26.656-7.561-5.572-2.805-11.483-6.567-16.464-10.48-1.853-1.455-2.263-1.71-2.11-1.314z" fill="#217200"></path><path d="m1117.352 818.66 48.087 15.624v-50.56" fill="none" stroke="#003100" stroke-width="2.906" stroke-linecap="square"></path><path d="M1114.57 765.816c.086.07 10.968 15.01 24.18 33.2l24.024 33.07-22.183-7.148c-12.2-3.932-22.203-7.188-22.227-7.236-.024-.047.263-1.348.638-2.89 2.193-9.034 2.532-17.998 1.046-27.688-.946-6.166-2.697-12.95-4.879-18.896-.811-2.212-.928-2.681-.598-2.413z" fill="#5ab124"></path><path d="M1105 245c-30 0-63 20-105 20s-75-20-105-20-45 20-5 80c-95-70-35-117 5-117s63 17 105 17 65-17 105-17 100 47 5 117c40-60 25-80-5-80z" fill="#d1d159" stroke="#d1d159" stroke-width="3.2" filter="url(#a)" transform="rotate(144 1000 610)"></path><path d="M1256.51 775.913c118.002.792 97.087 74.083 64.726 97.594-32.36 23.512-60.96 23.278-94.939 47.965-33.978 24.686-42.593 51.959-74.954 75.47-32.36 23.512-108.528 20.755-72.816-91.716" fill="none" stroke="#6a5000" stroke-width="10"></path><path d="m1171.646 550.576 94.597-30.736" fill="none" stroke="#003100" stroke-width="2.906"></path><path d="M1186.72 544.616c.11-.006 17.695-5.697 39.076-12.646l38.874-12.637-22.15-7.256c-12.18-3.99-22.186-7.235-22.234-7.21-.047.023-.58 1.244-1.183 2.712-3.536 8.599-8.53 16.05-15.428 23.015-4.39 4.433-9.794 8.892-15.054 12.42-1.956 1.313-2.327 1.624-1.903 1.6z" fill="#217200"></path><path d="m1238.142 560.315 29.719-40.905-48.086-15.624" fill="none" stroke="#003100" stroke-width="2.906" stroke-linecap="square"></path><path d="M1187.025 546.631c.093-.06 17.664-5.792 39.046-12.737l38.877-12.629-13.655 18.889c-7.509 10.389-13.696 18.895-13.75 18.903-.051.008-1.2-.667-2.551-1.5-7.915-4.878-16.334-7.97-26.01-9.55-6.156-1.007-13.15-1.437-19.479-1.2-2.354.088-2.836.054-2.479-.176z" fill="#5ab124"></path><path d="M1105 245c-30 0-63 20-105 20s-75-20-105-20-45 20-5 80c-95-70-35-117 5-117s63 17 105 17 65-17 105-17 100 47 5 117c40-60 25-80-5-80z" fill="#d1d159" stroke="#d1d159" stroke-width="3.2" filter="url(#a)" transform="rotate(72 1000 610)"></path><path d="M1237.06 417.314c37.217-111.982 100.457-69.442 112.818-31.4 12.36 38.042 3.3 65.17 16.279 105.114 12.978 39.944 36.254 56.566 48.615 94.608 12.36 38.042-13.798 109.63-109.729 40.91" fill="none" stroke="#6a5000" stroke-width="10"></path><path d="M828.267 550.576 733.67 519.84" fill="none" stroke="#003100" stroke-width="2.906"></path><path d="M812.569 546.538c-.093-.06-17.664-5.792-39.047-12.737l-38.877-12.626 13.654 18.888c7.51 10.389 13.697 18.895 13.75 18.903.052.008 1.2-.666 2.552-1.5 7.914-4.877 16.334-7.97 26.009-9.55 6.157-1.006 13.15-1.437 19.48-1.2 2.353.088 2.836.054 2.479-.176z" fill="#217200"></path><path d="m780.195 503.612-48.086 15.624 29.719 40.904" fill="none" stroke="#003100" stroke-width="2.906" stroke-linecap="square"></path><path d="M813.507 544.728c-.11-.006-17.695-5.697-39.076-12.646l-38.875-12.634 22.149-7.256c12.182-3.99 22.187-7.236 22.235-7.21.047.023.58 1.244 1.183 2.712 3.535 8.599 8.53 16.05 15.428 23.015 4.39 4.433 9.794 8.892 15.054 12.42 1.956 1.312 2.326 1.624 1.902 1.6z" fill="#5ab124"></path><path d="M907.093 734.305c-76.142 104.18-144.395 16.364-164.15-44.435-19.754-60.799-16.154-171.961 106.682-132.434" fill="#fff" stroke="#6a5000" stroke-width="5.812"></path><path d="M1092.942 734.217c75.551 104.609-29.058 142.384-92.985 142.384-63.928 0-168.537-37.775-92.986-142.384" fill="#fff" stroke="#6a5000" stroke-width="5.812"></path><path d="M1150.288 557.436c122.836-39.527 126.436 71.635 106.682 132.434-19.755 60.799-88.008 148.615-164.15 44.435" fill="#fff" stroke="#6a5000" stroke-width="5.812"></path><path d="M999.881 448.269c.366-129.038 107.2-98.112 158.918-60.536 51.719 37.576 114.146 129.624-8.464 169.847" fill="#fff" stroke="#6a5000" stroke-width="5.812"></path><path d="M849.578 557.58c-122.61-40.223-60.183-132.271-8.464-169.847 51.718-37.576 158.552-68.503 158.918 60.536" fill="#fff" stroke="#6a5000" stroke-width="5.812"></path><path d="M1000 442v110" fill="none" stroke="#6a5000" stroke-width="5.812"></path><path d="M1105 245c-30 0-63 20-105 20s-75-20-105-20-45 20-5 80c-95-70-35-117 5-117s63 17 105 17 65-17 105-17 100 47 5 117c40-60 25-80-5-80z" transform="rotate(-108 882.05 328.298) scale(.58116)" fill="#d1d159" stroke="#d1d159" stroke-width="3.2" filter="url(#a)"></path><path d="M862.187 718.343c-21.63 65.08-58.382 40.357-65.566 18.248-7.183-22.108-1.918-37.874-9.46-61.088-7.543-23.214-21.07-32.874-28.253-54.982-7.184-22.109 8.019-63.713 63.77-23.776" fill="none" stroke="#6a5000" stroke-width="5.812"></path><path d="M1105 245c-30 0-63 20-105 20s-75-20-105-20-45 20-5 80c-95-70-35-117 5-117s63 17 105 17 65-17 105-17 100 47 5 117c40-60 25-80-5-80z" fill="#d1d159" stroke="#d1d159" stroke-width="3.2" filter="url(#a)" transform="translate(1581.117 960.87) scale(.58116)"></path><path d="M1063.884 771.992c55.21 40.681 20.34 67.996-2.906 67.996s-36.613-9.88-61.021-9.88c-24.409 0-37.776 9.88-61.022 9.88-23.247 0-58.116-27.315-2.906-67.996" fill="none" stroke="#6a5000" stroke-width="5.812"></path><path d="M1105 245c-30 0-63 20-105 20s-75-20-105-20-45 20-5 80c-95-70-35-117 5-117s63 17 105 17 65-17 105-17 100 47 5 117c40-60 25-80-5-80z" fill="#d1d159" stroke="#d1d159" stroke-width="3.2" filter="url(#a)" transform="rotate(108 699.067 632.571) scale(.58116)"></path><path d="M1177.235 596.745c55.752-39.937 70.954 1.667 63.77 23.776-7.183 22.108-20.71 31.768-28.253 54.982-7.542 23.214-2.277 38.98-9.46 61.088-7.184 22.109-43.937 46.831-65.566-18.248" fill="none" stroke="#6a5000" stroke-width="5.812"></path><path d="M1105 245c-30 0-63 20-105 20s-75-20-105-20-45 20-5 80c-95-70-35-117 5-117s63 17 105 17 65-17 105-17 100 47 5 117c40-60 25-80-5-80z" fill="#d1d159" stroke="#d1d159" stroke-width="3.2" filter="url(#a)" transform="rotate(36 402.994 1124.895) scale(.58116)"></path><path d="M1045.593 434.787c-20.754-65.363 23.511-66.965 42.318-53.301 18.807 13.664 23.814 29.513 43.56 43.86 19.747 14.347 36.369 14.211 55.176 27.875 18.806 13.664 30.961 56.258-37.617 56.718" fill="none" stroke="#6a5000" stroke-width="5.812"></path><path d="M1105 245c-30 0-63 20-105 20s-75-20-105-20-45 20-5 80c-95-70-35-117 5-117s63 17 105 17 65-17 105-17 100 47 5 117c40-60 25-80-5-80z" fill="#d1d159" stroke="#d1d159" stroke-width="3.2" filter="url(#a)" transform="rotate(-36 1178.12 -164.028) scale(.58116)"></path><path d="M850.883 509.939c-68.578-.46-56.423-43.054-37.616-56.718 18.806-13.664 35.428-13.528 55.174-27.875 19.747-14.347 24.754-30.196 43.561-43.86 18.807-13.664 63.072-12.062 42.318 53.301M835.174 552.963l104.616 33.992m-41.061 158.668 64.656-88.992m136.239 86.992-64.656-88.992m123.073-99.547-104.616 33.992M1000 734v-54m117.931-31.682-51.357-16.687m6.311-121.949-31.74 43.687m-114.03-43.687 31.74 43.687m-76.786 94.949 51.357-16.687" fill="none" stroke="#6a5000" stroke-width="5.812"></path><path d="m925.754 634.749 49.497 49.497m49.498-148.492 49.497 49.497m-81.317-53.033 84.853 84.853M968.18 535.754l106.066 106.066m-152.028-38.891 84.853 84.853M925.754 578.18l106.066 106.066m-95.46-123.743 113.137 113.137m14.143-14.143L950.503 546.36m74.246 137.886 49.497-49.497m-148.492-49.498 49.497-49.497m-53.033 81.317 84.853-84.853M925.754 641.82l106.066-106.066m-38.891 152.028 84.853-84.853M968.18 684.246l106.066-106.066m-123.743 95.46 113.137-113.138m-14.143-14.142L936.36 659.497" fill="none" stroke="#6a5000" stroke-width="2"></path></svg>