<svg xmlns="http://www.w3.org/2000/svg" xmlns:xlink="http://www.w3.org/1999/xlink" viewBox="0 0 60 30" width="1200" height="600"><defs><radialGradient gradientTransform="matrix(1.04498 0 0 1.11405 -51.291 -34.248)" gradientUnits="userSpaceOnUse" xlink:href="#c" id="k" fy="226.331" fx="221.445" r="300" cy="226.331" cx="221.445"/><linearGradient id="c"><stop offset="0" stop-color="#fff" stop-opacity=".314"/><stop offset=".19" stop-color="#fff" stop-opacity=".251"/><stop offset=".6" stop-color="#6b6b6b" stop-opacity=".125"/><stop offset="1" stop-opacity=".125"/></linearGradient><linearGradient id="h"><stop offset="0" stop-color="#fd0000"/><stop offset=".5" stop-color="#e77275" stop-opacity=".659"/><stop offset="1" stop-opacity=".323"/></linearGradient><linearGradient id="d"><stop offset="0"/><stop offset="1" stop-color="#ffe000"/></linearGradient><linearGradient id="g"><stop offset="0" stop-opacity=".314"/><stop offset=".06" stop-color="#6b6b6b" stop-opacity=".125"/><stop offset=".6" stop-color="#fff" stop-opacity=".125"/><stop offset="1" stop-color="#fff" stop-opacity=".125"/></linearGradient><linearGradient id="b"><stop offset="0" stop-opacity=".314"/><stop offset=".3" stop-color="#6b6b6b" stop-opacity=".125"/><stop offset=".529" stop-color="#fff" stop-opacity=".125"/><stop offset="1" stop-color="#fff" stop-opacity=".125"/></linearGradient><linearGradient id="a"><stop offset="0" stop-color="#0f0" stop-opacity="0"/><stop offset="1"/></linearGradient><linearGradient id="e"><stop offset="0" stop-opacity=".314"/><stop offset=".385" stop-color="#6b6b6b" stop-opacity=".125"/><stop offset=".529" stop-color="#fff" stop-opacity=".125"/><stop offset="1" stop-color="#fff" stop-opacity=".125"/></linearGradient><linearGradient id="f"><stop offset="0" stop-opacity=".314"/><stop offset=".217" stop-color="#6b6b6b" stop-opacity=".125"/><stop offset=".529" stop-color="#fff" stop-opacity=".125"/><stop offset="1" stop-color="#fff" stop-opacity=".125"/></linearGradient><radialGradient xlink:href="#d" id="j" gradientUnits="userSpaceOnUse" gradientTransform="matrix(1.27142 0 0 .38584 -17.625 103.369)" cx="64.938" cy="161.179" fx="64.938" fy="161.179" r="9.699"/></defs><clipPath id="i"><path d="M30 15h30v15zv15H0zH0V0zV0h30z"/></clipPath><path d="M0 0v30h60V0z" fill="#00247d"/><path d="M0 0l60 30m0-30L0 30" stroke="#fff" stroke-width="6"/><path d="M0 0l60 30m0-30L0 30" clip-path="url(#i)" stroke="#cf142b" stroke-width="4" fill="#eed316"/><path d="M30 0v30M0 15h60" stroke="#fff" stroke-width="10"/><path d="M30 0v30M0 15h60" stroke="#cf142b" stroke-width="6"/><path d="M27 23.975v-6H0V12.1h27V.1h6v12h27v5.875H33v12h-6v-6z" fill="#eed316"/><path d="M10.125 25.038l9.813-4.924h4.125l-9.813 4.923-9.813 4.924H.313l9.813-4.923zM15.875 25.475c4.916-2.467 8.98-4.49 9.031-4.493.052-.004.094 2.018.094 4.493v4.5l-9.031-.007-9.031-.007 8.937-4.486zM0 23.288V20.1l6.406.007 6.407.007L6.5 23.288C3.028 25.033.145 26.464.094 26.468.042 26.472 0 25.041 0 23.288zM0 6.725c0-1.787.042-3.247.094-3.243.051.004 2.99 1.463 6.531 3.243l6.438 3.236-6.532.007L0 9.975v-3.25zM16 4.538L7.187.114l8.907-.007L25 .1v4.438c0 2.44-.042 4.434-.094 4.43-.051-.004-4.06-1.997-8.906-4.43zM7.781 6.062L0 2.163V.1l9.781 4.889c5.38 2.688 9.805 4.91 9.834 4.937.028.027-.872.046-2 .042l-2.052-.007L7.78 6.062z" fill="#eed316"/><path d="M7.719 5.968L0 2.1v-.938C0 .647.042.228.094.232.145.236 4.49 2.398 9.75 5.038l9.563 4.798h-3.876L7.72 5.968zM35 4.538V.1l8.906.007 8.907.007L44 4.538c-4.847 2.433-8.855 4.426-8.906 4.43-.052.004-.094-1.99-.094-4.43zM45.625 5.038L55.438.114h4.125L49.75 5.038 39.937 9.96h-4.125l9.813-4.923zM53.375 6.725c3.54-1.78 6.48-3.24 6.531-3.243.052-.004.094 1.456.094 3.243v3.25l-6.531-.007-6.532-.007 6.438-3.236zM53.5 23.288l-6.313-3.174 6.407-.007L60 20.1v3.188c0 1.753-.042 3.184-.094 3.18-.051-.004-2.934-1.435-6.406-3.18zM50.125 24.975l-9.688-4.861 2.032-.007 2.032-.007 7.75 3.875L60 27.85v1c0 .55-.042.997-.094.993-.051-.004-4.453-2.194-9.781-4.868zM35 25.475c0-2.475.042-4.497.094-4.493.051.004 4.115 2.026 9.031 4.493l8.938 4.486-9.032.007-9.031.007v-4.5z" fill="#eed316"/><path fill="#eed316" d="M-.125 0h60.5v30.625h-60.5z"/><g transform="matrix(.05 0 0 .05 18.334 .295)"><path d="M470.83 37.806V244.73c0 176.27-114.358 280.492-230.508 335.677C124.172 525.222 9.814 420.999 9.814 244.73V37.806H470.83z" fill="red"/><g id="l" transform="matrix(4.0571 0 0 3.91396 -172.828 -532.075)"><path style="marker:none" d="M64.938 165.125c4.46 0 8.227 1.044 9.53 2.438-1.295.952-5.06 1.656-9.53 1.656s-8.236-.704-9.532-1.656c1.304-1.394 5.07-2.438 9.532-2.438z" fill="url(#j)" fill-rule="evenodd" stroke-width=".335" overflow="visible"/><path d="M52.225 150.388l1-3.77 4.456 5.68-.684 3.776-4.772-5.686z" fill="#ffe000" fill-rule="evenodd" stroke="#000" stroke-width=".316"/><path transform="matrix(.64288 .76597 -.76342 .6459 0 0)" d="M169.013 57.818h-22.017v-.94h21.895" fill="#ffe000" fill-rule="evenodd" stroke="#000" stroke-width=".316"/><path transform="matrix(-.64288 .76597 .76342 .6459 0 0)" d="M63.059 156.418h15.623v.94H63.059v-.94z" fill="#ffe000" fill-rule="evenodd" stroke="#000" stroke-width=".316"/><path d="M51.187 151.26l-3.887.329 4.821 5.375 3.837-.018-4.77-5.687z" fill="#ffe000" fill-rule="evenodd" stroke="#000" stroke-width=".316"/><path d="M56.551 156.575l-5.327-6.35" fill="#ffe000" fill-rule="evenodd" stroke="#000" stroke-width=".272"/><path d="M56.381 154.287l.518-2.081M55.613 153.324l.518-2.082M54.769 152.243l.518-2.081M53.907 151.216l.518-2.081M53.147 150.31l.518-2.081M54.314 156.056l-2.14.149M53.5 155.133l-2.14.148M52.581 154.113l-2.14.149M51.72 153.086l-2.14.15M50.96 152.18l-2.14.149" fill="#ffe000" fill-rule="evenodd" stroke="#000" stroke-width=".105"/><path d="M78.277 182.325s-1.321-2.479-2.619-5.443c-1.298-2.965-2.572-6.415-2.572-6.415.566 1.888-.088 2.756-.426 4.254l-.458.394-.016.013-.458.394c-1.682-.277-2.57.53-4.405-.364 0 0 3.057 1.764 5.796 3.555a109 109 0 0 1 5.158 3.612z" fill="#ffe000" fill-rule="evenodd" stroke="#000" stroke-width=".316"/><path d="M77.567 181.517l-5.38-6.39" fill="#ffe000" fill-rule="evenodd" stroke="#000" stroke-width=".211"/><rect transform="rotate(139.326) skewX(-.172)" y="-179.871" x="57.972" ry=".183" height=".367" width="1.759" opacity=".9" fill="#ffe000" stroke="#000" stroke-width=".211"/><path d="M72.393 174.468l-.975-1.482-1.235 1.062 1.296 1.183.914-.763zM77.727 150.388l-1-3.77-4.456 5.68.684 3.776 4.772-5.686zM78.765 151.26l3.887.329-4.82 5.375-3.838-.018 4.77-5.687z" fill="#ffe000" fill-rule="evenodd" stroke="#000" stroke-width=".316"/><path d="M73.401 156.575l5.328-6.35" fill="#ffe000" fill-rule="evenodd" stroke="#000" stroke-width=".272"/><path d="M73.571 154.287l-.518-2.081M74.339 153.324l-.518-2.082M75.183 152.243l-.518-2.081M76.045 151.216l-.518-2.081M76.805 150.31l-.518-2.081M75.638 156.056l2.14.149M76.453 155.133l2.14.148M77.37 154.113l2.14.149M78.233 153.086l2.14.15M78.993 152.18l2.14.149" fill="#ffe000" fill-rule="evenodd" stroke="#000" stroke-width=".105"/><path d="M51.675 182.325s1.321-2.479 2.619-5.443c1.298-2.965 2.572-6.415 2.572-6.415-.566 1.888.088 2.756.426 4.254l.458.394.016.013.458.394c1.682-.277 2.57.53 4.405-.364 0 0-3.057 1.764-5.795 3.555-2.739 1.792-5.159 3.612-5.159 3.612z" fill="#ffe000" fill-rule="evenodd" stroke="#000" stroke-width=".316"/><path d="M52.385 181.517l5.38-6.39" fill="#ffe000" fill-rule="evenodd" stroke="#000" stroke-width=".211"/><rect transform="matrix(.75843 .65175 .64948 -.76038 0 0)" y="-95.174" x="156.786" ry=".183" height=".367" width="1.759" opacity=".9" fill="#ffe000" stroke="#000" stroke-width=".211"/><path d="M57.559 174.468l.975-1.482 1.235 1.062-1.296 1.183-.914-.763z" fill="#ffe000" fill-rule="evenodd" stroke="#000" stroke-width=".316"/><path style="marker:none" d="M61.337 158.111c-.086-.866 1.012-.788 1.012-.788s-.574-.173-.474-.638c.1-.466 1.208-.685 1.42.484.032.18.012.375-.357.512.387-.068.502.092.564.263.4 1.12-.67 1.485-.988 1.132-.319-.353.092-.79.092-.79s-.912.618-1.27-.175z" fill="#ffe000" fill-rule="evenodd" stroke="#000" stroke-width=".285" overflow="visible"/><path style="marker:none" d="M75.79 165.116s1.728-3.032 1.804-3.162c.076-.13.239-.424.239-.424s.337-.772 1.076-2.032c.739-1.26 1.945-.044 1.673-1.098s-1.858-.924-2.206-.391c-.348.532-.152.815-.206 1.337-.055.521-.348.565-.522.434-.174-.13-.207-.304-.098-1.021.109-.717-.728-.717-.902-.022-.174.696.37.967.609 1.359.239.39-.427 1.876-.427 1.876-.63.984-.983.753-.983.753-.292-.784-1.138-.569-1.138-.569.738.769.385 1.215.385 1.215-3.689 1.536-4.058-2.075-4.058-2.075l-.653-.223c.007.007-2.144 2.628-4.518.507 0 0-.561-.53-.361-1.406 0 0 .384.292.937.061 0 0 .062-.174.062-.418.017-.305-.062-.527-.062-.527-.553-.23-.938.061-.938.061-.073-.324-.043-.6.024-.82.068-.22-1.269-.22-1.201 0 .067.22.097.496.023.82 0 0-.384-.292-.937-.061 0 0-.079.222-.062.527 0 .244.062.418.062.418.553.23.937-.061.937-.061.2.876-.361 1.406-.361 1.406-2.374 2.121-4.525-.5-4.518-.507l-.653.223s-.37 3.611-4.058 2.075c0 0-.353-.446.385-1.215 0 0-.846-.215-1.138.57 0 0-.353.23-.983-.754 0 0-.666-1.485-.427-1.876.24-.392.783-.663.609-1.359-.174-.695-1.01-.695-.902.022.108.717.076.89-.098 1.021-.174.13-.467.087-.522-.434-.054-.522.142-.805-.206-1.337-.348-.533-1.935-.663-2.206.391-.272 1.054.934-.163 1.673 1.098.74 1.26 1.076 2.032 1.076 2.032s.163.293.24.424l1.803 3.162m-.994-4.324a.893.893 0 0 0 .111-.535c-.113-.927.449-1.295.808-1.209.359.087.475.52.366.766.185-.528.932-1.053 1.281-.378.461.892-.86 1.015-.86 1.015.276-.047.66.184.645.553-.015.369-.507.768-1.383.445-.876-.322-1.091.216-1.091.216m23.838-.873a.893.893 0 0 1-.111-.535c.113-.927-.449-1.295-.808-1.209-.359.087-.475.52-.366.766-.186-.528-.932-1.053-1.281-.378-.462.892.86 1.015.86 1.015-.276-.047-.66.184-.645.553.015.369.507.768 1.383.445.876-.322 1.091.216 1.091.216" fill="#ffe000" fill-rule="evenodd" stroke="#000" stroke-width=".285" overflow="visible"/><path style="marker:none" d="M68.516 158.111c.086-.866-1.012-.788-1.012-.788s.574-.173.474-.638c-.1-.466-1.208-.685-1.42.484-.032.18-.012.375.357.512-.387-.068-.503.092-.564.263-.4 1.12.67 1.485.988 1.132.319-.353-.092-.79-.092-.79s.912.618 1.27-.175z" fill="#ffe000" fill-rule="evenodd" stroke="#000" stroke-width=".285" overflow="visible"/><path style="marker:none" d="M63.114 157.639s-.125.27-.695.167c.417-.367.695-.167.695-.167zm3.625 0s.125.27.695.167c-.417-.367-.695-.167-.695-.167z" fill-rule="evenodd" stroke="#000" stroke-width=".285" overflow="visible"/><path style="marker:none" d="M76.51 161.36a.891.891 0 1 0 1.783 0 .891.891 0 0 0-1.783 0z" fill="#ffe000" fill-rule="evenodd" stroke="#000" stroke-width=".28480725" overflow="visible"/><path style="marker:none" d="M64.948 156.015c-.059.554-.25.654-.507.675-1.676.139-1.783-1.46-1.184-1.767.6-.307 1.045.415 1.045.415s-.73-1.655.646-1.675c1.377.02.646 1.675.646 1.675s.446-.722 1.045-.415c.6.307.492 1.906-1.183 1.767-.257-.02-.45-.12-.508-.675z" fill="#ffe000" fill-rule="evenodd" stroke="#000" stroke-width=".285" overflow="visible"/><path style="marker:none" d="M53.343 161.36a.891.891 0 1 1-1.783 0 .891.891 0 0 1 1.783 0z" fill="#ffe000" fill-rule="evenodd" stroke="#000" stroke-width=".28480725" overflow="visible"/><g fill-rule="evenodd"><path style="marker:none" d="M56.302 161.99c-.283-.647.582-.862.582-.862s-.485.01-.524-.373c-.04-.384.76-.83 1.215.018.07.13.103.286-.147.483.282-.148.41-.055.5.062.59.763-.143 1.312-.477 1.12-.334-.192-.127-.632-.127-.632s-.548.705-1.022.183zM61.835 160.191c-.15-.689-.977-.354-.977-.354s.399-.276.205-.61c-.194-.334-1.103-.226-.973.729.02.146.085.292.403.304-.315.046-.364.197-.368.345-.028.962.887.977 1.045.625.157-.352-.269-.586-.269-.586s.857.248.934-.453z" fill="#ffe000" stroke="#000" stroke-width=".28490991" overflow="visible"/><path style="marker:none" d="M57.553 161.18s-.028.24-.493.303c.229-.387.493-.303.493-.303zm2.794-.908s.164.177.578-.045c-.413-.178-.578.045-.578.045z" stroke="#000" stroke-width=".28490991" overflow="visible"/><path style="marker:none" d="M58.56 159.469c.094.442-.03.567-.222.648-1.256.526-1.74-.679-1.354-1.066.385-.387.91.058.91.058s-.978-1.092.077-1.453c1.067-.329.918 1.13.918 1.13s.162-.669.701-.582c.54.087.857 1.346-.47 1.659-.202.048-.375.019-.56-.394z" fill="#ffe000" stroke="#000" stroke-width=".28490991" overflow="visible"/><path d="M81.91 74.53c1.05-1.437.004-4.712.004-4.712h-.004c-.004 0-1.05 3.275 0 4.713z" transform="rotate(-17.999 478.606 -21.877) scale(.28181)"/><path style="marker:none" transform="matrix(.32924 -.10696 .07975 .24539 20.513 154.461)" d="M103.989 68.578a3.934 3.934 0 1 1-7.867 0 3.933 3.933 0 1 1 7.867 0z" fill="#ffe000" stroke="#000" stroke-width=".953" overflow="visible"/></g><g fill-rule="evenodd"><path style="marker:none" d="M73.551 161.99c.283-.647-.582-.862-.582-.862s.484.01.524-.373c.04-.384-.76-.83-1.215.018-.07.13-.103.286.147.483-.282-.148-.41-.055-.5.062-.59.763.143 1.312.477 1.12.334-.192.127-.632.127-.632s.548.705 1.022.183zM68.017 160.191c.151-.689.978-.354.978-.354s-.399-.276-.205-.61c.194-.334 1.102-.226.973.729-.02.146-.085.292-.403.304.315.046.364.197.368.345.028.962-.887.977-1.045.625-.157-.352.269-.586.269-.586s-.857.248-.935-.453z" fill="#ffe000" stroke="#000" stroke-width=".28490991" overflow="visible"/><path style="marker:none" d="M72.3 161.18s.028.24.493.303c-.229-.387-.493-.303-.493-.303zm-2.794-.908s-.164.177-.578-.045c.413-.178.578.045.578.045z" stroke="#000" stroke-width=".28490991" overflow="visible"/><path style="marker:none" d="M71.293 159.469c-.094.442.03.567.222.648 1.256.526 1.74-.679 1.354-1.066-.385-.387-.91.058-.91.058s.978-1.092-.078-1.453c-1.066-.329-.917 1.13-.917 1.13s-.163-.669-.701-.582c-.54.087-.857 1.346.469 1.659.203.048.376.019.56-.394z" fill="#ffe000" stroke="#000" stroke-width=".28490991" overflow="visible"/><path d="M81.91 74.53c1.05-1.437.004-4.712.004-4.712h-.004c-.004 0-1.05 3.275 0 4.713z" transform="scale(-.28181 .28181) rotate(-18 1467.934 1377.027)"/><path style="marker:none" transform="matrix(-.32924 -.10696 -.07975 .24539 109.34 154.461)" d="M103.989 68.578a3.934 3.934 0 1 1-7.867 0 3.933 3.933 0 1 1 7.867 0z" fill="#ffe000" stroke="#000" stroke-width=".953" overflow="visible"/></g><path d="M64.948 156.276c.365-.5.001-1.639.001-1.639-.002 0-.366 1.139 0 1.639zM53.26 160.92c.453.049 1.045-.602 1.045-.602-.001-.002-.86.186-1.045.602zm23.333 0c-.453.049-1.045-.602-1.045-.602.001-.002.86.186 1.045.602z" fill-rule="evenodd"/><path style="marker:none" transform="matrix(.43416 0 0 .32364 21.509 135.272)" d="M103.989 68.578a3.934 3.934 0 1 1-7.867 0 3.933 3.933 0 1 1 7.867 0z" fill="#ffe000" fill-rule="evenodd" stroke="#000" stroke-width=".76" overflow="visible"/><path style="marker:none" d="M75.16 167.235a3.692 3.692 0 0 0-.213-.21c-1.641-1.503-5.508-2.563-10.012-2.563-4.504 0-8.37 1.06-10.012 2.562-.075.07-.147.14-.213.211l-.845-1.375c1.32-1.476 5.78-2.57 11.07-2.57s9.75 1.094 11.07 2.57l-.845 1.375z" fill="#ffe000" fill-rule="evenodd" stroke-width=".335" overflow="visible"/><path style="marker:none" d="M64.938 164.469c-4.714 0-8.726 1.161-10.22 2.781a.316.316 0 0 0-.124.25c0 .019-.003.045 0 .063-.002.01 0 .02 0 .03.004.02.023.046.031.063.005.01-.006.022 0 .031.017.031.037.039.063.063.01.008.018.024.03.031.027.02.063.05.094.063 1.556 1.071 5.498 1.812 10.126 1.812 4.63 0 8.571-.74 10.124-1.812.011-.007.021-.024.032-.032.018-.01.046-.018.062-.03.013-.008.02-.024.031-.032.026-.024.046-.032.063-.063.006-.009-.005-.02 0-.03.008-.018.027-.044.031-.063 0-.01.002-.022 0-.031.003-.018 0-.044 0-.063a.316.316 0 0 0-.125-.25c-1.493-1.62-5.505-2.781-10.219-2.781zm0 .656c4.46 0 8.227 1.044 9.53 2.438-1.295.952-5.06 1.656-9.53 1.656s-8.236-.704-9.532-1.656c1.304-1.394 5.07-2.438 9.532-2.438zM63.37 162.66c.92-.06 1.566-1.37 1.578-1.37h.012s.646 1.31 1.566 1.37H63.37zm-4.695.884c.661-.25.842-1.343.85-1.346l.01-.003s.765.806 1.453.644l-2.313.705zm12.546 0c-.661-.25-.842-1.343-.85-1.346l-.01-.003s-.765.806-1.453.644l2.313.705z" fill="#ffe000" fill-rule="evenodd" stroke="#000" stroke-width=".285" overflow="visible"/><path style="marker:none" d="M64.933 163.29c5.292 0 9.752 1.094 11.072 2.57.063.086.192.15.338.15.229 0 .414-.157.414-.35a.332.332 0 0 0-.143-.265c-1.706-1.62-6.294-2.78-11.68-2.78-5.387 0-9.975 1.16-11.682 2.78a.332.332 0 0 0-.142.265c0 .193.185.35.414.35a.424.424 0 0 0 .338-.15c1.32-1.476 5.78-2.57 11.071-2.57zM76.005 165.86l-.845 1.375m-20.45 0l-.845-1.375" fill="#ffe000" fill-rule="evenodd" stroke="#000" stroke-width=".285" overflow="visible"/><path transform="matrix(.64288 .76597 -.76342 .6459 0 0)" d="M169.118 56.878h9.124v.94h-9.028" fill="#ffe000" fill-rule="evenodd" stroke="#000" stroke-width=".316"/><path transform="matrix(-.64288 .76597 .76342 .6459 0 0)" d="M83.655 156.418h10.65v.94h-11.37" fill="#ffe000" fill-rule="evenodd" stroke="#000" stroke-width=".316"/><path style="marker:none" d="M55.406 167.563c1.304-1.394 5.07-2.438 9.532-2.438 4.46 0 8.227 1.044 9.53 2.438" fill="none" stroke="#000" stroke-width=".285" overflow="visible"/></g><g fill="#ffe000" fill-rule="evenodd" stroke="#000"><g stroke-width=".285"><path style="marker:none" d="M105.522 233.496c8.322-6.91-1.57-86.835-1.57-86.835h-.002s-9.893 79.926-1.57 86.835" overflow="visible" transform="matrix(4.0571 0 0 3.91396 -182.932 -532.075)"/><path style="marker:none" d="M78.563 171.469s6.064 8.003 4.03 15.781c-2.032 7.778-1.48 14.044 2.813 19.438 3.62 4.546 7.416 10.24 7.563 14.687a28.215 28.215 0 0 1 7.844-2.031c-1.423-2.174-1.688-7.719-1.688-7.719s1.295-5.301-5.688-10.781c-6.982-5.48-2.102-11.736-4.312-18.719-1.717-5.426-6.96-8.878-9.875-10.313-.246-.12-.478-.251-.688-.343zm50.78 0c-.208.092-.441.223-.687.344-2.914 1.434-8.158 4.886-9.875 10.312-2.21 6.983 2.64 13.239-4.344 18.719-6.982 5.48-5.656 10.781-5.656 10.781s-.264 5.545-1.687 7.719a28.381 28.381 0 0 1 7.844 2.031c.147-4.448 3.942-10.14 7.562-14.688 4.293-5.393 4.845-11.659 2.813-19.437-2.033-7.778 4.03-15.781 4.03-15.781zm-77.968 24.094c-.25-.063 5.494 4.17 8.25 11.062 4.062 10.157 16.925 20.374 24.094 22.125.8-.81 1.64-2.697 2.531-3.406l-7.844-11.156c-4.071-.819-7.585-2.665-9.531-6.188-7.25-13.125-17.25-12.375-17.5-12.438zm104.625 0c-2.18.077-10.625.953-16.969 12.437-1.946 3.523-5.46 5.37-9.531 6.188l-7.844 11.156c.892.71 1.732 2.596 2.531 3.406 7.17-1.75 20.032-11.968 24.094-22.125 2.756-6.891 8.5-11.125 8.25-11.063-.031.008-.22-.01-.531 0zm-22.219 38.843a40.382 40.382 0 0 0-2.25.031c-.727.03-1.5.114-2.281.188 1.445 2.806 2.464 5.874 2.906 9.125l.938 1.281c1.397 0 3.098-.271 5.219-.906-.496-1.992-1.321-3.853.062-4.656 2.74-1.591 10.438-.25 10.438-.25s-4.271-4.656-15.032-4.813zm-59.937.031c-10.536.238-14.75 4.782-14.75 4.782s7.697-1.341 10.437.25c1.355.786.593 2.587.094 4.531 2.105.66 3.812.952 5.219 1l.906-1.219a28.25 28.25 0 0 1 2.906-9.156 42.287 42.287 0 0 0-4.812-.188z" overflow="visible" transform="matrix(4.0571 0 0 3.91396 -182.932 -532.075)"/><path style="marker:none" d="M60.313 181.688l22.968 46.25c2.938-3.084 6.536-5.532 10.594-7.063l-33.563-39.188zm87.28 0l-33.562 39.187c4.058 1.531 7.656 3.979 10.594 7.063l22.969-46.25zm-94.53 34.687l24 21.5c1.345-3.7 3.475-7.036 6.124-9.844l-30.124-11.656zm101.78 0l-30.124 11.656a28.596 28.596 0 0 1 6.094 9.844l24.03-21.5z" overflow="visible" transform="matrix(4.0571 0 0 3.91396 -182.932 -532.075)"/></g><path style="marker:none" transform="matrix(4.03563 0 0 3.89325 -172.462 -541.008)" d="M131.587 251.24c.007 16.395-13.283 29.69-29.678 29.69-16.395 0-29.684-13.295-29.678-29.69-.006-16.396 13.283-29.69 29.678-29.69 16.395 0 29.684 13.294 29.678 29.69z" stroke-width=".287" overflow="visible"/></g><path d="M175.14 401.038c-1.7.078-3.385.211-5.198.489-34.007 5.215-29.756 34.764-83.424 16.512-14.141-4.81-25.71-6.129-35.119-5.626a336.296 336.296 0 0 0 23.962 37.427c5.884.79 12.407 2.222 19.652 4.648 50.66 16.962 46.632-10.443 78.733-15.29 27.383-4.133 40.153 16.98 66.435 15.779 24.049-.581 36.94-19.734 63.138-15.778 32.101 4.846 28.074 32.251 78.733 15.289 8.92-2.987 16.707-4.554 23.582-5.137 8.515-11.584 16.467-23.803 23.582-36.694-9.998-1.108-22.687-.053-38.67 5.382-53.667 18.252-49.416-11.297-83.423-16.512-27.755-4.256-41.338 16.376-66.815 17.001-26.103 1.21-39.674-18.661-65.168-17.49zm.888 67.271c-1.676.065-3.41.259-5.198.49-29.193 3.766-29.823 22.73-64.407 17.612a403.257 403.257 0 0 0 38.036 34.614c9.988-4.103 16.448-11.288 32.837-13.332 25.902-3.23 37.898 13.291 62.758 12.354 22.748-.454 34.934-15.444 59.715-12.354 17.65 2.201 23.816 10.334 35.246 14.188 13.971-11.1 27.373-23.135 39.937-36.204-38.873 7.388-38.49-12.963-68.843-16.879-27.368-3.53-40.68 13.547-65.801 14.066-25.738 1.004-39.143-15.527-64.28-14.555zm6.593 66.048a39.391 39.391 0 0 0-4.565.49c-4.169.689-7.683 1.902-10.776 3.302 23.529 16.466 48.241 30.42 73.028 42.197 24.265-11.529 48.424-25.2 71.506-41.219-3.591-1.87-7.652-3.429-12.805-4.28-24.47-4.047-36.494 15.55-58.955 16.144-23.013 1.151-34.958-17.747-57.433-16.634z" fill="#fff"/><path d="M240.322 580.407s230.508-92.763 230.508-328.51V38.365H9.814v213.532c0 235.747 230.508 328.51 230.508 328.51z" fill="url(#k)" fill-rule="evenodd"/><path d="M405.634 449.35c-.244-.235-26.298 33.886-30.682 36.327-38.873 7.388-38.49-12.963-68.843-16.879-27.368-3.53-40.68 13.547-65.801 14.066-25.738 1.004-39.143-15.527-64.28-14.555-1.676.065-3.41.259-5.198.49-29.193 3.766-29.823 22.73-64.407 17.612.37.618-31.23-36.29-31.062-36.571 5.884.79 12.407 2.222 19.652 4.648 50.66 16.962 46.632-10.443 78.733-15.29 27.383-4.133 40.153 16.98 66.435 15.779 24.049-.581 36.94-19.734 63.138-15.778 32.101 4.846 28.074 32.251 78.733 15.289 8.92-2.987 16.707-4.554 23.582-5.137zm-70.619 72.531c.17.052-22.876 17.379-23.201 17.246-3.591-1.87-7.652-3.429-12.805-4.28-24.47-4.047-36.494 15.55-58.955 16.144-23.013 1.151-34.958-17.747-57.433-16.634a39.391 39.391 0 0 0-4.565.49c-4.169.689-7.683 1.902-10.776 3.302.286-.013-22.787-17.15-22.821-17.124 9.988-4.103 16.448-11.288 32.837-13.332 25.902-3.23 37.898 13.291 62.758 12.354 22.748-.454 34.934-15.444 59.715-12.354 17.65 2.201 23.816 10.334 35.246 14.188z" fill="#2b5df2"/><path d="M75.361 449.84c5.884.79 12.407 2.222 19.652 4.648 50.66 16.962 46.632-10.443 78.733-15.29 27.383-4.133 40.153 16.98 66.435 15.779 24.049-.581 36.94-19.734 63.138-15.778 32.101 4.846 28.074 32.251 78.733 15.289 8.92-2.987 16.707-4.554 23.582-5.137M144.46 521.025c9.988-4.103 16.448-11.288 32.837-13.332 25.902-3.23 37.898 13.291 62.758 12.354 22.748-.454 34.934-15.444 59.715-12.354 17.65 2.201 23.816 10.334 35.246 14.188m94.201-109.224c-9.998-1.108-22.687-.053-38.67 5.382-53.667 18.252-49.416-11.297-83.423-16.512-27.755-4.256-41.338 16.376-66.815 17.001-26.103 1.21-39.674-18.661-65.168-17.49-1.7.078-3.385.211-5.198.489-34.007 5.215-29.756 34.764-83.424 16.512-14.141-4.81-25.71-6.129-35.119-5.626m323.553 73.264c-38.873 7.388-38.49-12.963-68.843-16.879-27.368-3.53-40.68 13.547-65.801 14.066-25.738 1.004-39.143-15.527-64.28-14.555-1.676.065-3.41.259-5.198.49-29.193 3.766-29.823 22.73-64.407 17.612m205.39 52.716c-3.59-1.87-7.651-3.429-12.804-4.28-24.47-4.047-36.494 15.55-58.955 16.144-23.013 1.151-34.958-17.747-57.433-16.634a39.391 39.391 0 0 0-4.565.49c-4.169.689-7.683 1.902-10.776 3.302" fill="none" stroke="#000" stroke-width="1.248"/><use xlink:href="#l" height="304" width="209" transform="translate(299.072)"/><path d="M470.83 37.806V244.73c0 176.27-114.358 280.492-230.508 335.677C124.172 525.222 9.814 420.999 9.814 244.73V37.806H470.83z" fill="none" stroke="#000" stroke-width="1.248"/></g></svg>