<svg xmlns="http://www.w3.org/2000/svg" width="531.496" height="318.897"><defs><clipPath id="a"><path d="M0 255.118h425.197V0H0v255.118z"/></clipPath></defs><path d="M0 318.897h531.496V0H0v318.897z" fill="#fcd213"/><path d="M265.748 14.818l-.163-.344L0 159.522v159.376l265.585-145.049.163-.287v.287l265.584 145.049V159.522L265.748 14.474v.344z" fill="#e22739"/><g clip-path="url(#a)" transform="matrix(1.25 0 0 -1.25 0 318.897)"><path d="M160.925 193.468c-1.038-.35-2.196-.891-3.48-1.462-1.681-.701-3.562-1.583-5.294-2.211-.367-.112-.948-.316-1.61-.498a23.097 23.097 0 0 0-2.454-.435c-.571-.07-1.484-.118-2.206-.143l.34.728-2.658-.19.016.029.545.934-1.046.283-.043.01.413.416 2.098.785-.88.917c1.498.283 3.147 1.034 4.488 1.714a5.952 5.952 0 0 0-2.394.46l-.021-.011c-.34.175-.787.369-1.224.544l.845.635s-1.767.59-2.141.693c.747.319 1.517.794 1.883.86l1.95.7-3.098 1.302 1.057.436-.402.447.248.008.763.022c.592.012 1.378.004 2.283-.053a57.116 57.116 0 0 0 3.702-.428 20.608 20.608 0 0 0 2.692-.7 23.094 23.094 0 0 1-2.166-.811c-.718-.297-1.4-.716-2.077-1.123l-1.513-.93c1.354.18 2.543.474 3.556.654a34.82 34.82 0 0 1 2.4.532c1.316.5 2.659.69 3.897.726.518.013 1.033.003 1.538-.024.509-.054 1.01-.147 1.49-.24.963-.2 1.85-.4 2.598-.671 1.493-.587 2.432-1.097 2.432-1.097l-.745-1.684s-.981-.068-2.177-.226c-.3-.04-.61-.082-.926-.136l-.957-.235a20.167 20.167 0 0 1-1.722-.527m-2.543-6.785c-1.33.234-2.447.498-3.312.834-.918.259-1.602.559-2.076.809.863.34 1.754.743 2.606 1.115a74.7 74.7 0 0 1 2.436 1.053c1.308.624 2.416 1.013 3.47 1.42 1.697.687 3.222.843 4.465 1.02l-2.807-6.342-.334-.039a12.1 12.1 0 0 0-1.2-.079c-.39-.007-.762.02-1.159.002a9.053 9.053 0 0 0-2.089.206" fill="#fcd213"/><path d="M158.382 186.683a9.053 9.053 0 0 1 2.09-.206c.396.017.767-.01 1.158-.002.39.006.792.032 1.2.079l.334.038-.73-1.65c-.834-.108-1.585-.088-2.333-.067a9.63 9.63 0 0 0-2.1.197c-.46.113-.965.149-1.391.25l-.01.002c-.664.137-1.252.305-1.775.492-.554.15-1.044.315-1.47.493a8.099 8.099 0 0 0-1.861 1.054c-.2.135-.34.257-.445.37a24.393 24.393 0 0 0-2.784-.517l-1.7-.19a19.703 19.703 0 0 0-.822-.073l-1.323-.013.37.795-3.163.024.823 1.267.135.211-.355.06-1.53.298 1.704 1.705-1.023.658 2.35.504-.63.967 1.949.582c.08-.003.164.007.246.01l-.591.218-1.458.516.93.697c-.371.074-.745.135-1.043.175l-1.364.292.873 1.098c.493.522 1.147.927 1.796 1.233l-2.53.967 2.468 1.31-1.055 1.175s1.405.34 2.486.372l.758.02a21.71 21.71 0 0 0 1.923-.045l1.993-.162.092-.006.257-.025.347-.031.205-.017c.052-.004.11-.014.17-.025 1.31-.124 2.573-.448 3.633-.76 1.066-.324 1.922-.592 2.578-.913l.449-.21c.346.034.685.058 1.018.069 2.506.164 4.374-.401 5.955-.861 1.32-.496 2.599-1.101 2.946-1.296l-.68-1.536s-.94.51-2.432 1.097c-.747.272-1.635.473-2.597.672-.481.092-.982.186-1.49.239a19.66 19.66 0 0 1-1.54.024c-1.237-.035-2.58-.225-3.896-.726a34.2 34.2 0 0 0-2.4-.531c-1.013-.181-2.202-.473-3.556-.655.51.314 1.013.624 1.513.93.678.407 1.359.826 2.077 1.123.714.309 1.44.58 2.166.81-.81.265-1.67.513-2.692.7-1.008.159-2.194.295-3.702.429-.904.058-1.691.065-2.283.053l-.763-.022-.248-.007.402-.447-1.057-.436 3.098-1.303-1.95-.7c-.366-.066-1.136-.54-1.883-.86.374-.102 2.14-.693 2.14-.693l-.844-.634c.437-.176.884-.37 1.224-.544l.02.01a5.97 5.97 0 0 1 2.395-.46c-1.341-.68-2.99-1.431-4.488-1.714l.88-.916-2.098-.786-.413-.415.043-.011 1.046-.283-.545-.934-.016-.028 2.658.189-.34-.728c.722.025 1.635.075 2.206.144a23.13 23.13 0 0 1 2.454.434c.662.183 1.243.387 1.61.498 1.732.628 3.613 1.51 5.295 2.21 1.283.572 2.44 1.114 3.479 1.463.493.18 1.092.36 1.722.527l.957.236a40.003 40.003 0 0 0 3.103.362l-.735-1.66c-1.243-.176-2.768-.332-4.466-1.018-1.053-.408-2.161-.797-3.47-1.421a74.7 74.7 0 0 0-2.435-1.053c-.852-.372-1.743-.775-2.606-1.115a10.7 10.7 0 0 1 2.076-.81c.865-.335 1.98-.6 3.312-.833" fill="#e22739"/><path d="M166.706 194.592l.745 1.684c.787-.402 1.472-.86 2.733-1.8a38.24 38.24 0 0 1-1.56.094c-.532.02-1.112.07-1.918.022m6.91-2.565c1.845-.628 3.672-1.834 5.023-3.198.352-.337.69-.678 1.007-1.02a28.684 28.684 0 0 0 2.13-2.904c-1.442.564-2.934 1.03-4.544 1.28l-2.959.416c-1.005.126-2.09.193-3.2.294l-.85.067-.91.013-1.89.014h-.488l-.516-.041-1.052-.09c-.719-.081-1.409-.091-2.203-.266l2.808 6.342.787.066c1.526.027 2.773-.04 3.853-.204 1.05-.213 1.975-.47 3.004-.77m2.801-19.034a25.639 25.639 0 0 0-1.355 1.614 15.426 15.426 0 0 0-2.086 3.393c.908-.267 1.827-.612 2.743-.884.911-.286 1.824-.52 2.653-.762 1.393-.387 2.622-.688 3.71-.959a40.665 40.665 0 0 0 4.285-1.383l-5.459-4.276-.339.171c-1.652.833-3.173 2.036-4.152 3.086m2.406 4.948a47.792 47.792 0 0 0-3.13.92c-1.047.342-2.1.648-3.053 1.006-.237.09-.472.18-.704.266l-.682.23c-.442.152-.856.31-1.238.473-.384.155-.726.351-1.05.49a5.466 5.466 0 0 0-.843.456 12.47 12.47 0 0 0-.737.538l-.33.272-.322.23a9.493 9.493 0 0 0-1.075.922c-.155.152-.294.31-.43.452a10.065 10.065 0 0 0-1.012 1.073l1.779.187 1.669.012c.548-.004 1.102.01 1.634-.017l1.555-.132c.527-.046 1.043-.09 1.552-.136.514-.053 1.003-.139 1.513-.207 1-.152 2.074-.272 3.12-.463 1.366-.243 2.764-.602 3.976-1.088 1.204-.485 2.32-1.067 3.223-1.72 3.13-2.3 5.007-5.438 5.007-5.438l-1.45-1.136s-.822.34-1.894.742c-1.071.403-2.395.87-3.417 1.123a214.02 214.02 0 0 0-3.661.944" fill="#fcd213"/><path d="M174.064 173.165l.007-.008-.007.008z" fill="#231f20"/><path d="M174.071 173.157l-.007.008c-.572.688-1.03 1.288-1.403 1.869-.372.57-.655 1.119-.876 1.547-.44.889-.617 1.594-.687 2.033l-.007.043c-.832.334-1.61.562-2.276.894-.335.149-.64.339-.927.478a5.71 5.71 0 0 0-.776.443c-.345.237-.662.484-.954.737-.298.233-.582.428-.838.654-.518.434-.932.928-1.338 1.277-.782.758-1.27 1.514-1.548 1.802l.73 1.65c.795.175 1.484.186 2.203.266l1.052.09.516.042.488-.001 1.89-.014.91-.012.85-.068c1.11-.101 2.195-.168 3.201-.294l2.96-.416c1.608-.25 3.1-.716 4.542-1.28a28.417 28.417 0 0 1-2.13 2.905 25.32 25.32 0 0 1-1.006 1.019c-1.352 1.364-3.179 2.57-5.024 3.198-1.029.299-1.953.556-3.004.769-1.079.164-2.327.23-3.853.205l-.787-.067.734 1.658c.806.047 1.386-.001 1.917-.021a38.276 38.276 0 0 0 1.561-.096c-1.26.94-1.946 1.399-2.732 1.8l.68 1.537c.654-.315 1.39-.804 2.233-1.387.421-.295.866-.622 1.33-.99.458-.372.894-.843 1.363-1.334l.215-.23.653-.188c1.102-.3 2.062-.826 3.036-1.4.474-.293.973-.596 1.393-.934.418-.34.821-.693 1.206-1.057 1.282-1.162 2.201-2.41 2.976-3.516.192-.277.375-.546.54-.803l.423-.737a30.1 30.1 0 0 0 .64-1.212l.207-.414c.281-.17.552-.344.81-.523 1.875-1.331 3-2.538 3.86-3.638.72-.915 1.387-1.856 1.55-2.147l-1.322-1.036s-1.877 3.139-5.007 5.439c-.903.653-2.019 1.235-3.224 1.72-1.21.486-2.609.844-3.975 1.088-1.047.19-2.119.31-3.12.463-.51.068-1 .154-1.513.207l-1.552.136-1.555.13c-.532.027-1.086.015-1.635.019l-1.668-.013-1.778-.187c.171-.21.374-.445.617-.693a8.53 8.53 0 0 1 .394-.38c.135-.142.275-.3.43-.451a9.494 9.494 0 0 1 1.397-1.152 11.738 11.738 0 0 1 1.067-.811c.24-.162.523-.313.844-.456.323-.138.664-.335 1.048-.49.382-.163.797-.321 1.24-.474l.681-.228.703-.267c.954-.358 2.006-.663 3.053-1.005a47.032 47.032 0 0 1 3.131-.921c1.377-.367 2.582-.678 3.661-.945 1.022-.252 2.345-.72 3.416-1.123 1.073-.402 1.895-.741 1.895-.741l-1.428-1.12a40.665 40.665 0 0 1-4.285 1.384c-1.089.27-2.317.57-3.71.958-.829.243-1.742.476-2.653.762-.916.272-1.835.618-2.743.885a15.363 15.363 0 0 1 2.086-3.393c.387-.496.834-1.05 1.355-1.614.98-1.051 2.5-2.253 4.152-3.087l.34-.171-1.422-1.113c-1.732.916-3.255 2.173-4.322 3.289-.405.429-.767.845-1.094 1.246" fill="#e22739"/><path d="M187.795 175.13l1.45 1.136c.387-.663.77-1.199 1.376-2.39-.88.405-1.517.65-2.826 1.254m4.833-4.201c2.933-1.765 5.089-5.116 6.217-7.271a27.505 27.505 0 0 1-4.22 1.396c-3.688.889-7.285 1.952-13.717 4.68l5.46 4.278.68-.281c2.714-1.066 4.008-1.87 5.58-2.802m.75-19.11c-2.218 2.38-3.245 4.298-3.668 5.404a40.837 40.837 0 0 1 5.543-1.975 58.388 58.388 0 0 1 3.747-.91 47.55 47.55 0 0 0 4.337-1.152l-5.197-4.592-.353.16c-1.714.785-3.367 1.947-4.409 3.065m2.309 5.031c-4.106 1.107-8.99 3.407-10.886 5.503-2.095 2.306-2.92 4.28-3.343 5.497 5.161-2.17 8.657-3.404 12.763-4.397 2.671-.67 5.145-1.61 6.863-2.82a18.132 18.132 0 0 0 2.04-1.688 21.632 21.632 0 0 0 1.585-1.616 18.303 18.303 0 0 0 1.368-1.724l-1.38-1.22s-3.297 1.12-5.344 1.562a82.349 82.349 0 0 0-3.666.903" fill="#fcd213"/><path d="M190.958 152.039l.007-.01-.007.01z" fill="#231f20"/><path d="M190.965 152.03l-.007.009c-1.245 1.489-2.027 2.774-2.5 3.807-.465 1.037-.64 1.817-.705 2.292l-.005.046c-1.758.938-3.265 2.023-4.214 3.103-2.897 3.26-3.799 6.37-4.048 7.335l1.421 1.113c6.432-2.73 10.03-3.793 13.717-4.682a27.397 27.397 0 0 0 4.22-1.396c-1.128 2.156-3.284 5.506-6.217 7.272-1.57.932-2.866 1.736-5.578 2.802l-.682.28 1.428 1.119c1.31-.603 1.945-.848 2.825-1.254-.606 1.19-.988 1.727-1.376 2.39l1.322 1.036c.628-1.026 1.498-2.34 2.335-4.436l.097-.242.486-.284c1.581-.935 2.963-2.24 4.073-3.62 1.776-2.22 2.956-4.62 3.536-5.863l.177-.39a17.657 17.657 0 0 0 2.957-2.208c.6-.546 1.09-1.06 1.531-1.567.73-.837 1.41-1.703 1.577-1.975l-1.258-1.112s-.494.736-1.369 1.724c-.437.495-.97 1.053-1.584 1.616a18.132 18.132 0 0 1-2.04 1.689c-1.719 1.209-4.193 2.15-6.863 2.819-4.106.993-7.602 2.227-12.764 4.397.422-1.217 1.25-3.191 3.343-5.497 1.897-2.096 6.781-4.396 10.887-5.503a82.485 82.485 0 0 1 3.666-.904c2.047-.44 5.344-1.56 5.344-1.56l-1.36-1.201a47.508 47.508 0 0 1-4.337 1.154 58.16 58.16 0 0 0-3.747.909 40.985 40.985 0 0 0-5.543 1.975c.423-1.106 1.45-3.024 3.668-5.404 1.042-1.118 2.695-2.281 4.41-3.065l.351-.16-1.352-1.195c-1.812.882-3.478 2.102-4.637 3.31-.436.455-.829.896-1.185 1.32" fill="#e22739"/><path d="M223.491 136.156l1.124 1.458c.491-.493.97-.878 1.796-1.808-.9.116-1.553.157-2.92.35m5.499-2.384c3.126-.539 5.95-2.526 7.734-3.632a29.71 29.71 0 0 1-1.955-.407 43.226 43.226 0 0 1-2.096-.44c-3.553-.79-7.337-1.292-14.524-.066l4.235 5.492.717-.079a39.659 39.659 0 0 0 3.367-.438c.918-.123 1.688-.273 2.523-.43m9.831-16.497c-.93.172-1.806.302-2.533.573-.738.247-1.392.501-1.963.75-.58.236-1.043.52-1.44.775a13.14 13.14 0 0 0-.98.689c2.229.049 4.458.53 6.185 1.095.734.267 1.392.534 1.989.793l.85.382.78.425 2.146 1.175 1.66 1.007-.178-6.933-.406-.144a15.944 15.944 0 0 0-1.547-.456c-.528-.117-1.061-.166-1.591-.216a18.932 18.932 0 0 0-1.56-.065c-.501.007-.97.083-1.412.15m-1.338 5.46a25.67 25.67 0 0 0-1.617-.446c-.566-.138-1.159-.267-1.739-.325-1.163-.13-2.428-.258-3.593-.199-1.164.058-2.321.167-3.342.374-.995.235-1.883.53-2.584.876-3.027 1.58-4.553 3.356-5.332 4.472l2.079-.299a60.572 60.572 0 0 1 1.953-.167c1.254-.073 2.358-.163 3.48-.106a43.86 43.86 0 0 1 3.144.21c1.025.142 2.027.34 3.02.567l.963.211.948.237c.62.147 1.215.271 1.783.366 1.138.205 2.177.423 3.076.408.796.066 1.548.066 2.237.002.692-.012 1.321-.04 1.858-.115.535-.089.986-.075 1.298-.132.314-.04.493-.076.493-.076l-.047-1.84-1.587-.967-3.014-1.575a40.197 40.197 0 0 0-1.573-.743c-.578-.255-1.218-.535-1.904-.733" fill="#fcd213"/><path d="M236.418 116.047l.014-.003-.013.003z" fill="#231f20"/><path d="M236.432 116.044l-.014.003a25.926 25.926 0 0 0-2.9 1.041c-.825.358-1.456.79-2.005 1.15-.54.371-.967.715-1.299 1.016a6.105 6.105 0 0 0-.699.803l-.03.042c-1.087.098-2.17.252-3.136.498a14.33 14.33 0 0 0-2.533.966c-1.122.54-1.995 1.211-2.808 1.825-.799.624-1.49 1.228-2.005 1.825-1.06 1.172-1.683 2.128-1.957 2.585l1.102 1.43c7.188-1.227 10.972-.726 14.524.065.723.174 1.422.312 2.097.44.683.165 1.335.302 1.955.407-1.783 1.107-4.608 3.094-7.733 3.632-.835.158-1.605.307-2.523.43-.905.158-1.944.311-3.368.438l-.717.08 1.108 1.436c1.367-.193 2.02-.235 2.92-.35-.827.93-1.305 1.314-1.796 1.808l1.026 1.33c.383-.369.845-.79 1.362-1.33a39.982 39.982 0 0 0 1.727-1.98l.147-.183.508-.087c.825-.149 1.616-.403 2.382-.634.762-.243 1.475-.61 2.146-.946 1.08-.502 2.04-1.206 2.87-1.695.413-.268.79-.537 1.121-.787.332-.243.623-.417.856-.59l.29-.209c.253.03.5.05.736.058.447 0 .853.064 1.225.076.372.018.711.014 1.028-.006.632-.043 1.177-.03 1.688-.116l.622-.094.567-.044a5.66 5.66 0 0 0 .736-.105l-.043-1.679s-.18.036-.493.076c-.313.057-.763.043-1.298.132-.537.074-1.167.103-1.858.115-.689.064-1.442.064-2.237-.002-.899.015-1.938-.203-3.077-.408a27.381 27.381 0 0 1-1.782-.366l-.949-.237-.962-.21a35.276 35.276 0 0 0-3.02-.568 43.86 43.86 0 0 0-3.144-.21c-1.122-.057-2.227.033-3.48.106-.622.045-1.275.095-1.953.167l-2.079.3c.778-1.117 2.304-2.893 5.332-4.473.701-.346 1.59-.64 2.584-.876 1.02-.207 2.177-.317 3.341-.374 1.165-.059 2.431.07 3.594.2.58.057 1.172.186 1.738.324.566.137 1.107.286 1.618.446.686.198 1.326.478 1.903.733a38.87 38.87 0 0 1 1.573.743c.87.453 2.05 1.07 3.015 1.575l1.587.966-.047-1.813-1.66-1.007c-.653-.358-1.37-.752-2.144-1.175l-.78-.425-.852-.383a34.665 34.665 0 0 0-1.989-.792c-1.726-.565-3.956-1.046-6.185-1.095.26-.202.585-.435.981-.689.397-.255.86-.54 1.44-.775a24.09 24.09 0 0 1 1.963-.75c.727-.27 1.603-.4 2.533-.573.442-.067.91-.143 1.413-.15.504 0 1.028.021 1.558.065.53.05 1.063.1 1.592.215.53.13 1.05.282 1.547.457l.406.144-.046-1.804c-1.112-.348-2.3-.633-3.453-.674-1.158-.078-2.298-.074-3.289.114a32.97 32.97 0 0 0-2.118.402" fill="#e22739"/><path d="M245.562 126.752l.047 1.841c.584-.163 1.16-.128 2.286-.338l-1.019-.695-.588-.395c-.214-.134-.447-.259-.726-.413m5.375 1.562c.316.198.641.371.973.52.328.162.647.347.98.487.331.145.666.27 1.004.377.34.103.682.188.998.317a13.09 13.09 0 0 0 1.91.504c.596.16 1.142.315 1.64.407a33.731 33.731 0 0 1-.966-1.675 50.476 50.476 0 0 1-1.086-1.767 34.682 34.682 0 0 0-.714-1.168c-.256-.382-.542-.727-.84-1.104-.603-.725-1.274-1.562-2.112-2.325-.839-.742-1.817-1.583-3.015-2.425-.6-.387-1.255-.79-1.974-1.21-.723-.415-1.494-.887-2.397-1.246l.177 6.933.591.335c1.164.775 2.021 1.334 2.775 1.76.38.201.722.43 1.056.648l1 .632m18.468-4.384c-1.459-1.31-2.923-2.023-4.082-2.58-.575-.29-1.129-.434-1.602-.564a13.66 13.66 0 0 0-1.22-.268c1.588 1.683 2.734 3.72 3.481 5.377.557 1.492.945 2.69 1.171 3.798.336 1.813.651 3.185.754 4.321l5.22-4.567-.146-.413c-.326-1.04-.924-1.968-1.535-2.865-.315-.437-.622-.884-.975-1.249a15.672 15.672 0 0 0-1.066-.99" fill="#fcd213"/><path d="M264.38 126.49a23.17 23.17 0 0 0-.755-1.515l-.443-.782c-.157-.258-.336-.487-.512-.732-.358-.484-.74-.968-1.142-1.445-.402-.478-.82-.957-1.276-1.341-.902-.795-1.842-1.584-2.775-2.142-.938-.53-1.848-.938-2.646-1.176a7.042 7.042 0 0 0-1.273-.286 22.674 22.674 0 0 0-1.181-.152 19.968 19.968 0 0 0-2.061-.106 16.957 16.957 0 0 0-2.884.48 29.893 29.893 0 0 1 6.38 4.412 35.29 35.29 0 0 1 2.173 2.317c.64.8 1.194 1.674 1.715 2.525l.505.82.46.849c.305.549.604 1.06.902 1.53.312.446.558.955.832 1.374.269.427.542.805.825 1.13.468.61.918 1.193 1.398 1.654.248.222.452.475.655.7a11.672 11.672 0 0 0 1.13 1.092c.166.138.28.287.395.39.218.219.354.335.354.335l1.386-1.212-.062-.524c-.038-.33-.088-.801-.206-1.293l-.347-1.666-.178-.872c-.071-.272-.14-.531-.201-.77a35.489 35.489 0 0 0-.456-1.682l-.301-.951c-.12-.315-.261-.628-.41-.961" fill="#fcd213"/><path d="M268.71 121.275l.011.008-.012-.008z" fill="#231f20"/><path d="M268.722 121.283l-.012-.008a26.944 26.944 0 0 0-2.82-1.545c-.854-.383-1.65-.57-2.315-.74a12.627 12.627 0 0 0-1.704-.286 6.877 6.877 0 0 0-1.12.045l-.054.007c-.892-.716-1.823-1.426-2.758-1.918a15.861 15.861 0 0 0-2.712-1.087c-.64-.204-1.263-.284-1.863-.363a25.754 25.754 0 0 0-1.728-.164c-1.104-.101-2.08.015-2.928.132-.847.118-1.56.266-2.127.408-.561.13-1.02.337-1.29.438l.047 1.804c.903.359 1.674.832 2.397 1.246.72.42 1.374.824 1.974 1.21 1.199.842 2.176 1.683 3.016 2.425.837.763 1.508 1.6 2.112 2.325.298.378.583.722.839 1.105.252.394.489.78.715 1.167.368.629.732 1.216 1.086 1.767.327.605.648 1.165.964 1.675-.497-.092-1.043-.246-1.638-.407a12.975 12.975 0 0 1-1.911-.504c-.315-.13-.658-.213-.997-.317a9.757 9.757 0 0 1-1.004-.377c-.333-.14-.653-.324-.981-.487a7.783 7.783 0 0 1-.972-.52l-1-.631c-.334-.22-.676-.448-1.056-.648-.754-.426-1.611-.986-2.776-1.76l-.59-.336.046 1.813c.279.155.512.279.727.414l.587.394 1.019.695c-1.126.21-1.702.175-2.286.338l.043 1.679c.223-.038.446-.11.727-.132.28-.025.584-.057.915-.105.33-.047.689-.11 1.08-.196.39-.09.817-.21 1.262-.283l.209-.043.396.266c1.316.788 2.62 1.445 3.94 1.78.997.392 2.069.499 2.92.76.442.104.864.18 1.247.236.385.054.685.163.956.208l.33.069c.135.203.272.393.41.569.13.169.265.313.38.47.11.165.218.318.325.462.214.286.423.534.63.753.44.41.766.833 1.135 1.166.292.289.624.535.86.775.23.245.422.428.518.5l1.264-1.106s-.136-.116-.354-.333c-.114-.105-.23-.254-.394-.392a11.795 11.795 0 0 1-1.131-1.091c-.203-.226-.407-.48-.655-.701-.48-.461-.93-1.044-1.398-1.653a9.222 9.222 0 0 1-.825-1.131c-.274-.42-.521-.928-.832-1.374a29.645 29.645 0 0 1-.901-1.53l-.461-.848-.505-.821c-.521-.85-1.075-1.725-1.715-2.524a35.02 35.02 0 0 0-2.172-2.318 29.893 29.893 0 0 0-6.381-4.412 16.957 16.957 0 0 1 2.884-.48c.619-.001 1.307.029 2.06.106.379.039.772.089 1.182.153.41.056.835.14 1.273.285.798.238 1.707.648 2.645 1.176.934.558 1.874 1.347 2.776 2.142.456.384.874.863 1.276 1.34.402.478.784.962 1.142 1.446.176.245.355.474.512.732l.443.783c.28.517.534 1.024.756 1.514.149.333.29.646.41.96l.3.953c.183.608.33 1.167.457 1.682l.2.77a511.243 511.243 0 0 0 .526 2.537c.118.492.168.963.206 1.293l.062.524 1.365-1.195c-.102-1.135-.417-2.507-.754-4.321-.226-1.107-.613-2.305-1.171-3.797-.747-1.658-1.892-3.694-3.48-5.377.337.057.744.142 1.219.268.474.13 1.028.272 1.603.564 1.158.556 2.623 1.27 4.08 2.579.352.295.71.628 1.068.99.353.366.659.812.975 1.25.61.896 1.209 1.824 1.535 2.865l.145.413 1.359-1.188c-.223-.55-.45-1.121-.752-1.636a21.293 21.293 0 0 0-.988-1.487 19.073 19.073 0 0 0-1.083-1.37 20.82 20.82 0 0 0-1.198-1.108c-.603-.508-1.172-.986-1.743-1.376" fill="#e22739"/><path d="M266.542 135.208l-1.386 1.212c.445.393.875.71 1.645 1.451-.022-.409-.01-.788-.05-1.19a28.967 28.967 0 0 0-.21-1.473m1.987 4.986c.022.362.085.706.143 1.057a9.082 9.082 0 0 0 .479 2.068c.116.328.184.677.301 1 .108.327.23.645.36.952.067.153.133.304.2.452.053.154.107.305.16.454.218.59.461 1.13.693 1.596.385-1.132 1.028-2.423 1.531-3.737.17-.41.336-.828.498-1.262.165-.435.327-.886.431-1.338.23-.913.468-1.93.617-3.075.194-2.244.29-5.133-.814-8.913l-5.22 4.566.103.676c.092.664.17 1.226.191 1.768.038.528.08.985.13 1.402.126.812.13 1.573.197 2.334m14.578 11.948a29.745 29.745 0 0 0-.084-2.558 22.154 22.154 0 0 0-.403-2.069c-.153-.607-.299-1.134-.468-1.58-.19-.447-.37-.815-.53-1.113-.12.561-.216 1.108-.393 1.646a33.28 33.28 0 0 1-.552 1.56c-.383 1.001-.773 1.913-1.269 2.715-.794 1.336-1.462 2.382-2.2 3.264-.577.71-1.044 1.356-1.519 1.93l-1.234 1.506 6.884.845.2-.37c.484-.91.917-1.918 1.148-2.914.258-.996.438-1.982.42-2.862" fill="#fcd213"/><path d="M278 149.857c.486-.943.955-2.017 1.371-3.166.354-1.14.61-2.35.808-3.565a22.04 22.04 0 0 0 .083-3.49 11.531 11.531 0 0 0-.633-2.857c-.293-.88-.736-1.619-1.133-2.292-.413-.664-.785-1.266-1.209-1.75a17.542 17.542 0 0 0-2.209-2.098c.148.801.27 1.554.37 2.264.105.707.187 1.373.187 2.042.018.658.021 1.28.011 1.873l-.023.868c-.024.29-.064.577-.099.856-.159 1.122-.3 2.131-.58 3.124a31.501 31.501 0 0 1-1 2.87 54.773 54.773 0 0 0-1.47 3.445c-.486 1.08-.762 2.046-.99 2.941a12.571 12.571 0 0 0-.386 2.251 14.802 14.802 0 0 0-.197 1.944c-.034.566-.079 1.03-.079 1.361-.006.33.004.52.004.52l1.827.224 1.184-1.459c.65-.843 1.43-1.939 2.068-2.75.624-.856 1.35-1.874 2.094-3.156" fill="#fcd213"/><path d="M284.734 150.042v.014-.014z" fill="#231f20"/><path d="M284.735 150.056l-.001-.014c-.373-4.653-2.04-6.86-2.695-7.652l-.038-.038a23.037 23.037 0 0 0-.095-3.343c-.142-1.057-.437-2.024-.75-2.864-1.019-2.509-2.448-4.41-3.75-5.658-1.233-1.306-2.421-1.92-2.92-2.228l-1.358 1.19c1.103 3.78 1.008 6.668.814 8.912-.15 1.146-.388 2.162-.617 3.075-.105.452-.267.903-.431 1.338-.163.434-.33.852-.5 1.261-.503 1.315-1.146 2.606-1.53 3.738a16.375 16.375 0 0 1-.694-1.597l-.16-.453-.2-.453c-.13-.307-.252-.624-.36-.95-.116-.324-.185-.673-.3-1a9.436 9.436 0 0 1-.298-1.009 8.7 8.7 0 0 1-.181-1.06c-.057-.352-.121-.695-.142-1.057-.068-.762-.072-1.523-.2-2.334-.048-.418-.09-.874-.128-1.402-.02-.542-.1-1.105-.19-1.768l-.104-.676-1.365 1.194c.105.626.162 1.077.21 1.474.039.401.028.78.049 1.19-.77-.742-1.2-1.059-1.645-1.45l-1.264 1.104.54.457c.195.167.431.33.637.553.424.433 1.02.863 1.711 1.411l.155.132.016.46c.027.744.183 1.417.277 2.131.109.702.383 1.32.55 1.984.164.517.366 1.01.59 1.478.173.487.357.953.557 1.382.436.847.714 1.62.98 2.132l.158.321a9.19 9.19 0 0 0-.178.71 11.547 11.547 0 0 0-.49 2.266c-.086.654-.164 1.241-.17 1.792-.025.913-.112 1.792-.066 2.058l1.668.205s-.01-.19-.004-.52c-.001-.332.045-.795.078-1.36.02-.569.076-1.23.197-1.945a12.54 12.54 0 0 1 .385-2.25c.23-.896.505-1.863.99-2.942.41-1.06.895-2.212 1.47-3.446.372-.923.703-1.87 1-2.869.28-.993.422-2 .581-3.124.035-.279.074-.567.098-.856l.024-.868c.01-.593.006-1.215-.012-1.873.001-.669-.08-1.335-.186-2.042a55.274 55.274 0 0 0-.37-2.264c.583.464 1.349 1.13 2.21 2.097.424.485.795 1.087 1.209 1.751.397.673.84 1.412 1.133 2.292.282.794.539 1.767.633 2.856.054 1.101.05 2.292-.084 3.491-.2 1.214-.453 2.425-.807 3.565a27.15 27.15 0 0 1-1.373 3.166c-.745 1.282-1.47 2.3-2.094 3.156-.639.811-1.42 1.908-2.069 2.75l-1.183 1.46 1.801.22 1.233-1.506c.476-.573.943-1.22 1.52-1.93.737-.88 1.406-1.928 2.2-3.264.495-.8.886-1.714 1.268-2.715.192-.5.377-1.022.553-1.56.177-.538.272-1.085.392-1.646.16.298.341.666.531 1.112.17.447.315.974.467 1.581.147.608.293 1.297.404 2.07.06.77.092 1.624.084 2.557.018.88-.162 1.866-.42 2.862-.232.996-.664 2.004-1.15 2.913l-.199.371 1.792.22c1.037-2.04 1.597-4.36 1.633-6.344.014-.748.002-1.45-.028-2.108" fill="#e22739"/><path d="M272.654 157.222l-1.828-.224c.06.64-.058 1.172.027 2.308.539-.632 1.02-1.053 1.8-2.084m-2.333 5.033c-.25.275-.475.563-.68.862-.215.295-.437.59-.624.897-.195.305-.353.626-.526.938-.182.308-.347.622-.496.938-.276.642-.591 1.246-.824 1.843-.22.604-.474 1.14-.65 1.631 1.16-.497 2.383-1.044 3.765-1.578.804-.35 1.637-.728 2.492-1.192.807-.484 1.71-1.024 2.61-1.725.883-.708 1.884-1.536 2.852-2.61.5-.534 1.039-1.119 1.529-1.78.493-.66 1.074-1.383 1.57-2.19l-6.883-.846-.21.274c-.1.137-.22.268-.22.268-.941 1.036-1.537 1.804-2.142 2.455-.571.657-1.005 1.233-1.562 1.815m1.909 18.821a29.328 29.328 0 0 0 1.693-1.892c.465-.617.844-1.205 1.166-1.734.33-.523.564-1.023.747-1.465.186-.44.323-.821.424-1.138-.968.614-1.919 1.184-2.916 1.603-.975.439-1.905.802-2.805 1.038-.742.206-1.409.385-2.054.508-.649.118-1.247.211-1.799.29-.876.14-1.712.229-2.442.33-.732.098-1.363.202-1.937.256l4.428 5.338.4-.118c.968-.308 1.922-.771 2.814-1.273.859-.548 1.65-1.148 2.28-1.743" fill="#fcd213"/><path d="M270.146 175.868c2.037-.636 4.371-1.74 6.255-3.246 1.937-1.462 3.422-3.283 4.11-4.793.408-.82.62-1.633.841-2.364.222-.733.326-1.42.39-2.044.069-.622.098-1.18.106-1.672a17.616 17.616 0 0 0-.105-1.29c-.876 1.279-1.859 2.339-2.704 3.279-.932.917-1.771 1.716-2.66 2.393-1.768 1.356-3.48 2.339-5.392 3.089-2.453 1.009-4.708 1.85-6.242 2.855-1.366.869-2.516 1.86-3.383 2.632-.434.383-.774.726-1.007.973l-.382.379 1.176 1.417.547-.064 1.33-.203c1.085-.143 2.39-.404 3.41-.55a17.317 17.317 0 0 0 1.725-.303 32.62 32.62 0 0 0 1.985-.488" fill="#fcd213"/><path d="M274.835 180.71l-.01.01.01-.01z" fill="#231f20"/><path d="M274.826 180.72l.009-.01c1.48-1.752 2.326-3.34 2.79-4.593.503-1.23.57-2.177.609-2.706v-.052c1.753-1.474 3.093-3.273 3.8-4.883.289-.6.485-1.207.665-1.791.179-.585.332-1.151.457-1.693.19-1.097.297-2.094.335-2.961-.022-1.747-.186-2.961-.362-3.522l-1.791-.22c-.496.808-1.078 1.53-1.571 2.19-.49.662-1.028 1.246-1.528 1.78-.968 1.075-1.97 1.903-2.853 2.61-.898.702-1.802 1.242-2.61 1.726a31.28 31.28 0 0 1-2.491 1.192c-1.382.533-2.605 1.08-3.765 1.578.175-.492.43-1.027.65-1.632.233-.596.548-1.2.824-1.842.149-.316.314-.63.496-.938.173-.312.33-.633.526-.938.187-.308.409-.603.625-.897.204-.3.43-.587.68-.862.557-.582.99-1.158 1.56-1.815.606-.652 1.203-1.42 2.145-2.455 0 0 .119-.131.219-.268l.209-.274-1.8-.221c-.782 1.03-1.262 1.452-1.801 2.084-.085-1.136.033-1.67-.027-2.308l-1.667-.205c.02.939-.043 2.165.13 3.994l.024.214c-.097.12-.22.232-.323.345-.547.552-.927 1.167-1.367 1.753a8.639 8.639 0 0 0-.551.915c-.164.31-.356.607-.5.92-.961 1.972-1.62 4.026-2.043 5.116l-.118.34c-.226.124-.435.254-.64.382a16.734 16.734 0 0 0-3.337 2.502c-.7.622-1.338 1.296-1.533 1.49l1.072 1.294.382-.38a15.2 15.2 0 0 1 1.008-.972c.867-.772 2.016-1.763 3.382-2.632 1.534-1.005 3.789-1.846 6.243-2.855 1.912-.75 3.623-1.732 5.39-3.088.89-.678 1.729-1.477 2.66-2.394.846-.94 1.829-2 2.705-3.277.043.364.083.793.105 1.289a17.387 17.387 0 0 1-.106 1.67 10.718 10.718 0 0 1-.39 2.046c-.221.73-.433 1.544-.84 2.363-.69 1.51-2.174 3.33-4.111 4.793-1.884 1.508-4.218 2.61-6.255 3.246-.71.202-1.374.356-1.984.489a17.7 17.7 0 0 1-1.725.303c-1.021.145-2.326.407-3.411.55l-1.33.202-.547.064 1.158 1.396c.574-.053 1.204-.158 1.937-.256.73-.1 1.565-.19 2.443-.33a48.111 48.111 0 0 0 1.799-.29c.644-.123 1.31-.302 2.054-.507.899-.237 1.829-.6 2.805-1.038.997-.42 1.948-.99 2.916-1.604-.101.317-.24.697-.425 1.137a9.5 9.5 0 0 1-.746 1.466 21.125 21.125 0 0 1-1.166 1.735 29.63 29.63 0 0 1-1.694 1.892c-.63.595-1.422 1.194-2.281 1.743-.893.502-1.846.965-2.814 1.273l-.4.118 1.152 1.388c1.066-.336 2.064-.88 3.02-1.431a18.308 18.308 0 0 0 2.495-1.921c.522-.525.995-1.036 1.424-1.527" fill="#e22739"/><path d="M261.149 177.476l-1.176-1.417-.692.734c-.251.277-.547.599-.95 1.033a32.021 32.021 0 0 0 2.818-.35m-5.311 2.331c-1.548.251-3.04.865-4.408 1.571-.668.375-1.342.718-1.93 1.101-.587.384-1.136.737-1.602 1.06 1.337.18 2.725.383 4.208.741.892.19 1.796.358 2.77.51.972.145 1.983.22 3.138.286 2.275.057 5.047-.007 8.72-.866l-4.427-5.339-.7.098a85.507 85.507 0 0 0-5.77.838m-9.05 16.718c1.668-.427 2.98-1.044 4.006-1.555a14.435 14.435 0 0 0 2.217-1.489 31.242 31.242 0 0 1-3.16-.286 34.851 34.851 0 0 1-2.846-.577 49.71 49.71 0 0 1-3.713-1.17c-1.705-.642-3.13-1.05-4.234-1.417l1.745 6.712.395.065c1.926.298 4.032.16 5.59-.283m.663-5.521c1.036.26 2.171.492 3.324.608.58.065 1.168.116 1.758.152a25.4 25.4 0 0 0 1.745.006c.575-.017 1.146-.04 1.694-.099.545-.066 1.072-.15 1.573-.247 1.007-.184 1.889-.48 2.584-.831 1.541-.736 2.689-1.645 3.585-2.413a16.02 16.02 0 0 0 1.89-2.127c-3.015.529-5.415.7-7.619.618a43.994 43.994 0 0 1-1.598-.078 32.949 32.949 0 0 1-1.551-.175 27.839 27.839 0 0 1-3.026-.546 36.7 36.7 0 0 0-1.944-.396 26.209 26.209 0 0 0-1.863-.305c-1.187-.132-2.323-.235-3.307-.15-1.743.108-3.357.495-4.57.822-1.198.354-1.988.65-1.988.65l.463 1.783a147.82 147.82 0 0 0 1.879.56 90.98 90.98 0 0 1 3.355 1.047c1.026.355 2.221.783 3.616 1.12" fill="#fcd213"/><path d="M249.095 197.553l-.012.004.012-.004z" fill="#231f20"/><path d="M249.083 197.558l.012-.004c.984-.366 1.835-.732 2.558-1.117.721-.4 1.32-.79 1.814-1.152a8.317 8.317 0 0 0 1.84-1.808l.028-.04a15.839 15.839 0 0 0 3.043-.466 10.643 10.643 0 0 0 2.53-.92 16.939 16.939 0 0 0 2.87-1.822c.833-.615 1.51-1.297 2.076-1.895.283-.301.538-.588.762-.857.22-.283.41-.545.575-.783.33-.475.557-.852.695-1.095l-1.152-1.39c-3.673.86-6.445.925-8.72.867-1.155-.065-2.166-.14-3.138-.287a49.729 49.729 0 0 1-2.77-.508c-1.483-.358-2.872-.563-4.208-.742.465-.322 1.015-.675 1.602-1.06.588-.383 1.262-.725 1.93-1.101 1.368-.706 2.86-1.32 4.408-1.57a84.815 84.815 0 0 1 5.77-.838l.7-.098-1.159-1.396a31.731 31.731 0 0 1-2.817.35c.402-.434.698-.756.948-1.033l.693-.734-1.072-1.293c-.34.356-.735.776-1.202 1.293-.494.493-1 1.137-1.616 1.909l-.143.178c-.167.026-.335.05-.499.076-.406.063-.796.156-1.189.257-.4.092-.79.204-1.17.335-.75.275-1.5.575-2.196.935-.549.299-1.09.6-1.609.9-.517.303-.984.64-1.439.93-.91.578-1.635 1.175-2.154 1.548l-.317.238c-.284-.004-.56 0-.827.015-1 .065-1.857.133-2.594.276-.734.146-1.379.305-1.983.477-.498.145-.989.303-1.39.442a9.061 9.061 0 0 0-.859.294l.423 1.625s.79-.297 1.988-.652c1.213-.326 2.827-.713 4.57-.821.984-.085 2.12.018 3.307.149.598.075 1.221.179 1.862.307.632.11 1.281.24 1.944.396a27.9 27.9 0 0 0 3.027.545c.508.066 1.027.132 1.551.175.518.035 1.05.06 1.598.078 2.204.083 4.604-.09 7.62-.618a16.04 16.04 0 0 1-1.892 2.127c-.895.767-2.044 1.676-3.584 2.412-.695.352-1.577.648-2.584.83-.5.1-1.029.183-1.573.25-.548.059-1.119.082-1.695.099a26.06 26.06 0 0 1-1.745-.007 34.847 34.847 0 0 1-1.757-.153c-1.153-.115-2.288-.346-3.324-.607-1.395-.337-2.59-.765-3.617-1.12a87.966 87.966 0 0 0-3.355-1.047 54.207 54.207 0 0 1-1.336-.396l-.542-.165.456 1.756c1.105.367 2.53.775 4.234 1.417a49.6 49.6 0 0 0 3.714 1.17 35.18 35.18 0 0 0 2.845.576c1.016.153 2.08.235 3.161.287-.48.398-1.2.924-2.217 1.488-1.027.512-2.338 1.128-4.006 1.556-1.559.443-3.665.58-5.59.283l-.395-.065.454 1.746c1.047.158 2.11.155 3.131.089 1.024-.055 2-.237 2.87-.466.654-.177 1.265-.338 1.826-.555" fill="#e22739"/><path d="M238.6 188.276l-.463-1.782c-.652.263-1.234.476-2.38.98.891.269 1.505.46 2.843.802m-6.088.108c-3.2-.634-6.856.275-9.115.939.627.269 1.27.58 1.917.919.646.325 1.298.685 1.952 1.078.804.488 1.615.952 2.485 1.399.87.446 1.808.935 2.853 1.367a47.424 47.424 0 0 0 8.197 2.658l-1.744-6.712-.691-.2c-1.358-.403-2.39-.706-3.299-.916-.904-.202-1.694-.353-2.555-.532m-13.904 13.069c3.36.036 5.522-.63 6.642-1.11-1.97-.718-3.861-1.681-5.382-2.588-1.272-.77-2.322-1.506-3.235-2.14a59.087 59.087 0 0 0-3.738-2.45v6.936l.36.155c.88.38 1.823.679 2.744.889.92.204 1.82.292 2.609.308m2.134-5.118c1.826 1.106 4.04 2.109 6.19 2.791 1.073.326 2.131.606 3.104.75.973.142 1.864.191 2.604.126 3.256-.34 5.307-1.388 6.462-2.076-5.656-1.499-9.033-3.031-12.643-5.179-2.347-1.405-4.675-2.505-6.674-2.931-.874-.169-1.742-.312-2.549-.366a34.445 34.445 0 0 0-2.2-.07c-1.286.007-2.142.13-2.142.13v1.841l1.697 1.008c.958.592 2.14 1.31 2.987 1.896.897.63 1.928 1.353 3.164 2.08" fill="#fcd213"/><path d="M220.484 203.08l-.012.001.012-.001z" fill="#231f20"/><path d="M220.472 203.08h.012a22.257 22.257 0 0 0 2.669-.325 15.288 15.288 0 0 0 1.992-.554c1.116-.39 1.82-.826 2.217-1.131l.038-.03c1.99.56 3.932.76 5.46.602 4.622-.518 7.562-2.52 8.396-3.152l-.454-1.746a47.41 47.41 0 0 1-8.198-2.658c-1.044-.432-1.983-.921-2.853-1.367a39.784 39.784 0 0 1-2.484-1.4 30.045 30.045 0 0 0-1.952-1.077c-.648-.34-1.29-.65-1.918-.92 2.26-.663 5.916-1.572 9.116-.938.86.179 1.65.33 2.555.532.908.21 1.94.513 3.298.917l.69.198-.456-1.755c-1.337-.341-1.952-.533-2.844-.802 1.147-.504 1.729-.717 2.38-.98l-.422-1.625c-.502.197-1.094.422-1.79.72-.704.282-1.505.65-2.422 1.175l-.215.114-.523-.114a15.226 15.226 0 0 0-5.118-.11c-2.652.349-5.06 1.175-6.316 1.625l-.387.14a12.445 12.445 0 0 0-.828-.22c-1.018-.226-1.89-.38-2.667-.45-.78-.073-1.463-.06-2.113-.06-1.074.014-2.136.085-2.44.142v1.679s.855-.123 2.14-.13c.644.003 1.394.015 2.2.07.808.054 1.677.197 2.55.366 2 .426 4.328 1.526 6.674 2.93 3.61 2.149 6.988 3.68 12.643 5.18-1.155.688-3.206 1.736-6.461 2.076-.74.065-1.631.016-2.604-.126-.974-.144-2.032-.424-3.105-.75a29.561 29.561 0 0 1-6.19-2.791c-1.235-.727-2.266-1.45-3.164-2.08-.847-.585-2.03-1.304-2.986-1.895l-1.697-1.008v1.813c.983.59 2.268 1.408 3.738 2.45.913.634 1.963 1.37 3.235 2.14 1.52.907 3.412 1.87 5.383 2.588-1.121.48-3.283 1.146-6.643 1.11a13.451 13.451 0 0 1-2.61-.308 15.852 15.852 0 0 1-2.743-.89l-.36-.154v1.805c1.91.774 3.992 1.177 5.73 1.202.657.017 1.27.016 1.847-.027" fill="#e22739"/><path d="M212.896 191.351v-1.84c-.731.095-1.382.112-2.673.351.835.454 1.412.816 2.673 1.49m-6.181-1.381c-3.082-1.385-6.963-1.378-9.367-1.237a33.967 33.967 0 0 1 3.396 2.851c1.384 1.295 2.811 2.567 4.688 3.936 1.88 1.385 4.203 2.863 7.464 4.58v-6.935l-.642-.371c-2.514-1.495-3.88-2.101-5.539-2.823m-17.06 9.385c3.39.853 5.716.723 6.951.528-1.804-1.188-3.48-2.539-4.783-3.82-1.093-1.04-1.962-2.024-2.712-2.879-1.213-1.355-2.265-2.513-3.082-3.334l-1.803 6.697.323.248a15.61 15.61 0 0 0 2.548 1.588c.883.422 1.766.754 2.559.972m3.383-4.447a29.948 29.948 0 0 0 5.538 4.181c.994.601 1.99 1.07 2.924 1.452.935.388 1.808.635 2.559.731 1.65.233 3.046.203 4.187.08 1.143-.11 2.032-.35 2.688-.55-5.184-2.829-8.231-5.103-11.333-8.023-2.017-1.93-4.083-3.525-5.952-4.439a24.146 24.146 0 0 0-4.558-1.588 17.32 17.32 0 0 0-2.113-.43l-.48 1.777 1.406 1.42c.787.83 1.788 1.79 2.48 2.592.734.858 1.598 1.76 2.654 2.797" fill="#fcd213"/><path d="M191.159 201.388l-.012-.002.012.002z" fill="#231f20"/><path d="M191.146 201.386l.012.002a17.03 17.03 0 0 0 2.773.327c.816.032 1.525.016 2.131-.044 1.215-.139 2.022-.394 2.488-.586l.045-.019c.93.521 1.866.903 2.762 1.23.897.326 1.755.535 2.531.624a19.76 19.76 0 0 0 5.898-.139c1.542-.294 2.614-.678 3.11-.876v-1.804c-3.262-1.718-5.586-3.196-7.465-4.58-1.877-1.369-3.304-2.64-4.687-3.935a33.7 33.7 0 0 0-3.396-2.85c2.404-.142 6.284-.15 9.367 1.235 1.66.722 3.024 1.33 5.538 2.823l.642.371v-1.814c-1.26-.672-1.838-1.035-2.673-1.488 1.291-.239 1.942-.256 2.673-.353v-1.679c-1.133.112-2.663.257-4.78.782l-.247.063-.502-.227c-1.642-.747-3.429-1.148-5.142-1.328-2.75-.248-5.33-.049-6.683.104l-.417.051a16.31 16.31 0 0 0-.763-.42c-1.898-.95-3.28-1.384-4.556-1.66-1.039-.266-2.08-.47-2.39-.495l-.437 1.622s.863.103 2.113.431c1.261.3 2.913.816 4.56 1.588 1.867.914 3.934 2.51 5.95 4.44 3.103 2.92 6.15 5.193 11.333 8.022-.655.2-1.544.44-2.687.55a16.753 16.753 0 0 1-4.187-.08c-.752-.096-1.625-.343-2.559-.73a21.036 21.036 0 0 1-2.925-1.453 30.015 30.015 0 0 1-5.538-4.18c-1.055-1.039-1.92-1.94-2.653-2.798-.693-.803-1.694-1.762-2.48-2.593l-1.405-1.419-.472 1.751c.817.821 1.87 1.98 3.083 3.334.75.856 1.62 1.838 2.712 2.88 1.302 1.281 2.98 2.631 4.783 3.82-1.235.194-3.562.324-6.95-.529a15.643 15.643 0 0 1-2.56-.972 15.474 15.474 0 0 1-2.548-1.588l-.322-.247-.469 1.742c.868.63 1.807 1.19 2.75 1.645.942.434 1.887.78 2.763 1.03.661.175 1.286.306 1.876.42" fill="#e22739"/><path d="M186.5 188.101l.48-1.778c-.719-.082-1.33-.246-2.61-.347.664.65 1.106 1.161 2.13 2.125m-5.436-2.976c-2.475-2.165-5.985-3.3-8.183-3.976.366.559.725 1.16 1.077 1.798.352.638.723 1.272 1.067 1.959a30.03 30.03 0 0 0 1.407 2.507 29.587 29.587 0 0 0 1.805 2.659c.35.465.724.952 1.134 1.457.415.489.862 1 1.35 1.539.973 1.096 2.129 2.207 3.505 3.482l1.803-6.697-.261-.256-.257-.264c-2-2.105-3.112-3.044-4.447-4.208m-19.264 3.031c1.472 1.101 2.79 1.867 3.908 2.336 1.107.503 2.002.743 2.642.863a24.06 24.06 0 0 1-1.846-2.706 22.275 22.275 0 0 1-1.385-2.656c-.643-1.384-1.043-2.663-1.39-3.733-.283-.862-.506-1.697-.739-2.403a41.858 41.858 0 0 1-.577-1.909l-4.609 5.182.19.385c.452.955 1.088 1.807 1.736 2.63.66.798 1.394 1.463 2.07 2.011m4.893-2.764c.447 1.006 1.029 2.008 1.667 3.043.659.99 1.39 1.98 2.165 2.874 1.555 1.775 3.269 3.194 4.687 3.858 1.562.707 2.941 1.121 4.104 1.312 1.158.221 2.097.243 2.796.224-2.186-2.055-3.81-3.903-5.166-5.657a34.664 34.664 0 0 1-3.377-5.366c-.629-1.223-1.254-2.409-1.904-3.433-.622-1.067-1.296-1.944-1.93-2.71a14.536 14.536 0 0 0-.876-.919c-.292-.29-.569-.58-.854-.839a16.433 16.433 0 0 0-.833-.72 21.374 21.374 0 0 0-.737-.635 50.937 50.937 0 0 0-1.593-1.208l-1.223 1.376.156.535c.09.342.246.793.423 1.314l.564 1.704c.208.57.411 1.14.567 1.64.319 1.076.763 2.241 1.364 3.607" fill="#fcd213"/><path d="M162.497 190.673l-.011-.007.01.007z" fill="#231f20"/><path d="M162.486 190.666l.01.007a16.757 16.757 0 0 0 2.607 1.413c.786.36 1.493.603 2.115.753 1.24.319 2.11.385 2.635.343l.05-.003c1.504 1.594 3.174 2.829 4.653 3.509a19.747 19.747 0 0 0 5.89 1.605c1.61.138 2.769.072 3.31-.001l.47-1.742c-1.376-1.275-2.532-2.386-3.504-3.482a63.845 63.845 0 0 1-1.351-1.54 51.633 51.633 0 0 1-1.134-1.456 29.587 29.587 0 0 1-1.805-2.66 30.03 30.03 0 0 1-1.407-2.506c-.344-.687-.715-1.321-1.067-1.96a28.292 28.292 0 0 0-1.076-1.797c2.197.677 5.707 1.81 8.182 3.976 1.335 1.164 2.448 2.103 4.447 4.208l.257.264.26.256.472-1.752c-1.023-.964-1.465-1.474-2.13-2.125 1.28.102 1.89.265 2.609.347l.437-1.621c-1.092-.17-2.553-.431-4.666-.49l-.247-.004-.403-.35a12.932 12.932 0 0 0-2.08-1.543 13.889 13.889 0 0 0-2.22-1.171c-2.38-1.066-4.735-1.674-5.974-1.997l-.386-.092-.511-.64c-.63-.777-1.224-1.344-1.731-1.861-.517-.505-1.032-.877-1.477-1.26a23.155 23.155 0 0 0-1.091-.83c-.311-.242-.551-.432-.671-.502l-1.116 1.255s.645.462 1.592 1.207c.234.19.479.405.738.635.27.219.55.459.833.72.284.259.56.548.853.84.297.285.59.59.876.918.635.766 1.309 1.644 1.93 2.71.65 1.024 1.276 2.21 1.904 3.433a34.664 34.664 0 0 0 3.377 5.366c1.356 1.754 2.98 3.602 5.166 5.657a12.775 12.775 0 0 1-2.796-.224c-1.163-.191-2.541-.605-4.104-1.312-1.418-.664-3.132-2.083-4.686-3.858a28.532 28.532 0 0 1-2.165-2.874c-.638-1.034-1.221-2.036-1.668-3.043-.601-1.366-1.045-2.531-1.364-3.607-.156-.5-.358-1.07-.567-1.64l-.564-1.704c-.176-.521-.333-.972-.423-1.313l-.156-.535-1.205 1.355c.156.557.343 1.203.577 1.909.233.707.456 1.54.738 2.403.348 1.07.748 2.349 1.39 3.733a22.21 22.21 0 0 0 1.386 2.657 24.242 24.242 0 0 0 1.846 2.706c-.64-.12-1.535-.361-2.642-.864-1.118-.47-2.436-1.235-3.908-2.336-.676-.548-1.41-1.212-2.071-2.012-.647-.822-1.283-1.674-1.736-2.63l-.19-.383-1.2 1.348c1.07 2.04 2.685 3.794 4.207 5.002.57.465 1.14.829 1.675 1.185" fill="#e22739"/><path d="M163.619 176.592l1.224-1.376-2.011-1.377.302 1.228c.118.42.267.884.485 1.525m-3.065-4.933c-.394-1.496-1.127-2.838-1.849-4.087a13.602 13.602 0 0 0-.57-.898 333.58 333.58 0 0 1-.542-.852 17.157 17.157 0 0 0-.546-.771l-.474-.699c-.057.317-.114.638-.17.963-.053.328-.105.659-.157.993-.116.678-.273 1.401-.38 2.118-.145.885-.309 1.827-.336 2.79-.049.978-.07 2.043.048 3.192.185 2.34.755 5.134 2.226 8.722l4.61-5.182-.217-.682c-.209-.669-.367-1.267-.509-1.802a32.367 32.367 0 0 0-.427-1.418c-.228-.884-.484-1.594-.707-2.387m-16.914-9.307c.192.948.369 1.817.629 2.58.264.76.534 1.435.797 2.023a15.071 15.071 0 0 0 1.555 2.514c.028-1.188.064-2.327.248-3.417.198-1.096.373-2.09.687-2.994.247-.752.494-1.426.736-2.038.256-.615.54-1.176.79-1.685l.575-1.172.563-1.06c.358-.667.635-1.248.919-1.75l-6.922.421-.073.205c-.037.103-.064.206-.064.206-.285 1.006-.52 2.1-.583 3.166-.033 1.063-.036 2.11.144 3.001" fill="#fcd213"/><path d="M149.14 163.673c-.29 1.048-.584 2.243-.673 3.456-.055.61-.113 1.245-.115 1.87.009.619.037 1.245.084 1.866.035.627.134 1.225.25 1.806.113.583.244 1.15.39 1.689.346 1.039.738 1.979 1.185 2.695a24.643 24.643 0 0 0 1.526 2.037c.525.566 1.033 1.05 1.508 1.466.948.835 1.833 1.312 2.468 1.677-.264-.75-.5-1.46-.712-2.134-.205-.684-.361-1.361-.512-1.991-.318-1.248-.451-2.477-.584-3.577a28.493 28.493 0 0 1-.078-3.235c.083-1.061.17-2.06.374-3.082.492-2.67 1.027-5.04 1.04-6.881.065-.828-.016-1.594-.04-2.324-.015-.733-.136-1.386-.18-1.965a14.732 14.732 0 0 0-.188-1.386 8.374 8.374 0 0 1-.095-.527l-1.838.11s-.112.184-.26.483l-.617 1.21c-.536.979-1.03 2.21-1.521 3.155-.261.498-.466 1.028-.715 1.623-.227.59-.514 1.253-.697 1.959" fill="#fcd213"/><path d="M142.474 164.803l-.003-.014.003.014z" fill="#231f20"/><path d="M142.47 164.79l.003.013c.33 1.154.728 2.146 1.102 2.997a19.84 19.84 0 0 0 1.233 2.096c.803 1.127 1.534 1.738 1.962 2.074l.043.032c.15 1.165.456 2.264.78 3.302.382.994.812 1.913 1.29 2.67 1.498 2.227 3.174 3.817 4.611 4.801a13.635 13.635 0 0 0 3.111 1.704l1.2-1.349c-1.473-3.588-2.043-6.382-2.227-8.722-.119-1.149-.097-2.214-.048-3.192.027-.963.191-1.905.335-2.79.107-.717.265-1.44.381-2.118l.156-.994.171-.962c.147.216.306.45.474.7.181.24.364.498.545.77l.542.852c.198.287.39.586.571.898.722 1.25 1.455 2.591 1.85 4.087.222.793.477 1.503.705 2.387.14.424.28.886.427 1.417.143.536.301 1.134.51 1.803l.216.682 1.205-1.356a29.454 29.454 0 0 1-.485-1.525c-.104-.423-.195-.793-.3-1.228l2.01 1.377 1.115-1.254c-.404-.287-.916-.602-1.465-1.01-.567-.398-1.273-.814-2.09-1.308l-.195-.11-.137-.47c-.218-.764-.456-1.512-.789-2.186-.262-.713-.658-1.338-.999-1.963-.27-.503-.62-.95-.899-1.409a16.874 16.874 0 0 0-.886-1.265c-.512-.81-1.088-1.46-1.4-1.943l-.21-.292c.023-.258.04-.508.044-.749.054-.917.071-1.675.017-2.337a10.977 10.977 0 0 0-.178-1.8c-.077-.923-.256-1.823-.307-2.09l-1.677.102s.027.195.096.527c.062.334.137.81.188 1.387.044.578.164 1.232.18 1.964.024.731.104 1.497.041 2.325-.015 1.84-.549 4.212-1.042 6.88-.203 1.024-.29 2.022-.373 3.083a28.48 28.48 0 0 0 .078 3.234c.132 1.101.266 2.33.584 3.577.151.631.307 1.307.511 1.991.213.675.45 1.384.712 2.135-.634-.366-1.519-.842-2.468-1.677a20.644 20.644 0 0 1-1.507-1.466 24.643 24.643 0 0 1-1.526-2.037c-.448-.716-.839-1.656-1.185-2.695a24.379 24.379 0 0 1-.39-1.689 12.812 12.812 0 0 1-.25-1.807 31.512 31.512 0 0 1-.085-1.866c.002-.624.06-1.259.115-1.869.09-1.214.383-2.408.674-3.456.183-.706.47-1.369.697-1.959.248-.596.454-1.125.715-1.624.491-.944.985-2.175 1.52-3.154l.618-1.21c.147-.299.26-.482.26-.482l-1.81.11c-.286.502-.562 1.083-.92 1.75l-.563 1.06-.575 1.171c-.249.51-.535 1.07-.79 1.685-.242.613-.49 1.287-.736 2.038-.314.905-.49 1.9-.688 2.994-.183 1.091-.22 2.23-.248 3.418a15.165 15.165 0 0 1-1.554-2.516 25.363 25.363 0 0 1-.798-2.023c-.26-.762-.436-1.63-.627-2.579-.18-.89-.178-1.937-.144-3 .063-1.066.298-2.16.583-3.167 0 0 .026-.103.064-.206l.072-.204-1.8.11c-.32 1.115-.5 2.3-.586 3.456-.02 1.155 0 2.293.181 3.306.14.765.294 1.478.46 2.142" fill="#e22739"/><path d="M152.95 155.244l1.838-.112c-.11-.641-.204-1.221-.434-2.361-.485.744-.77 1.276-1.404 2.473m1.38-5.581c.2-.328.372-.665.521-1.008.143-.345.272-.694.431-1.034.298-.683.468-1.4.658-2.085.22-.673.372-1.344.481-1.985.15-.62.295-1.192.378-1.708-.507.35-1.063.703-1.663 1.065-.549.386-1.133.782-1.759 1.183-.379.248-.782.5-1.15.78-.357.282-.719.581-1.089.901-.737.64-1.545 1.36-2.263 2.25-.745.886-1.595 1.915-2.327 3.183a40.985 40.985 0 0 0-1.198 2.082c-.365.756-.743 1.58-1.134 2.487l6.923-.42.342-.632.9-1.624a29.494 29.494 0 0 0 1.338-2.391c.171-.356.408-.692.611-1.044m-4.765-18.713c-.596.797-1.158 1.525-1.55 2.249-.385.728-.7 1.4-.957 2.006-.127.304-.243.59-.34.862a19.01 19.01 0 0 0-.204.785c-.116.489-.192.907-.24 1.252.858-.823 1.71-1.587 2.671-2.194.463-.311.92-.6 1.36-.862a9.329 9.329 0 0 1 1.32-.69c1.483-.634 2.65-1.105 3.811-1.348l2.41-.598 1.945-.356-4.696-5.104-.413.17c-.506.208-1.015.45-1.516.716-.482.284-.928.619-1.37.953-.879.674-1.689 1.398-2.232 2.16" fill="#fcd213"/><path d="M152.23 135.95c-.485.25-.987.53-1.498.84-.502.314-1.057.637-1.513 1.03-.477.384-.954.793-1.422 1.22-.471.429-.94.873-1.319 1.352-.398.474-.779.958-1.137 1.445-.362.486-.697.974-.939 1.466-.517.978-.925 1.92-1.143 2.746-.796 3.666-.25 6.22.159 7.627.669-1.443 1.411-2.697 2.059-3.803a41.33 41.33 0 0 1 2.167-2.93c.751-.857 1.534-1.61 2.288-2.304.364-.351.79-.67 1.212-.974.421-.307.844-.6 1.272-.881l.817-.548.842-.508a30.653 30.653 0 0 0 1.517-.992c.456-.332.969-.605 1.378-.91.426-.295.785-.605 1.125-.9.639-.485 1.182-1 1.64-1.514a12.96 12.96 0 0 0 1.317-1.326l.249-.3.249-.245c.155-.156.286-.296.392-.414.212-.235.324-.381.324-.381l-1.247-1.355-1.854.329-3.333.884a37.34 37.34 0 0 0-1.674.55c-.589.225-1.295.446-1.928.797" fill="#fcd213"/><path d="M146.91 131.77l.008-.012-.008.012z" fill="#231f20"/><path d="M146.919 131.758l-.008.012c-.651 1.052-1.107 2.049-1.491 2.923a7.248 7.248 0 0 0-.436 1.26 18.88 18.88 0 0 0-.267 1.115c-.141.69-.214 1.27-.247 1.745-.012.481.03.862.067 1.14l.008.054c-.358.466-.7.944-1.02 1.425-.155.245-.31.486-.46.724-.14.243-.253.489-.371.732-.462.976-.825 1.934-1.054 2.811a27.596 27.596 0 0 0-.443 3.713c.025 1.132.118 2.147.242 3.022.1.878.343 1.599.515 2.178.183.577.349 1.003.462 1.272l1.8-.109c.39-.907.77-1.732 1.135-2.488.402-.759.815-1.449 1.198-2.082.73-1.268 1.582-2.297 2.327-3.183.717-.891 1.525-1.61 2.263-2.25.37-.32.732-.618 1.089-.901.368-.28.77-.532 1.149-.78a49.575 49.575 0 0 0 1.76-1.182 33.84 33.84 0 0 0 1.663-1.066c-.083.516-.228 1.087-.378 1.708a14.058 14.058 0 0 1-.482 1.986c-.19.685-.36 1.402-.657 2.085-.16.339-.29.688-.431 1.033-.15.344-.323.68-.521 1.008-.203.353-.44.689-.611 1.045-.178.355-.367.717-.585 1.107-.217.391-.462.81-.753 1.284-.27.484-.565 1.018-.9 1.623l-.342.632 1.81-.11c.636-1.197.919-1.729 1.405-2.473.229 1.14.324 1.72.433 2.361l1.676-.102c-.083-.478-.165-1.043-.318-1.717-.116-.669-.248-1.435-.537-2.362l-.065-.215c.07-.142.176-.278.257-.414.432-.67.744-1.364 1.008-2.057.32-.675.549-1.361.693-2.052.377-1.047.478-2.152.723-3.049.095-.461.164-.9.214-1.299.08-.38.157-.711.205-.989l.06-.345c.202-.15.389-.301.563-.454.688-.55 1.269-.985 1.685-1.449.444-.44.854-.8 1.174-1.201.137-.162.27-.327.394-.487l.399-.4a5.63 5.63 0 0 0 .484-.558l-1.137-1.236s-.112.145-.324.381a11.389 11.389 0 0 1-.641.66l-.25.299c-.352.413-.792.867-1.315 1.326a11.66 11.66 0 0 1-1.641 1.514c-.34.294-.7.604-1.125.9-.41.305-.922.578-1.378.91a29.96 29.96 0 0 1-1.517.991l-.841.509-.817.548c-.428.281-.852.574-1.272.881-.423.305-.848.623-1.213.974-.753.694-1.537 1.446-2.288 2.304a41.41 41.41 0 0 0-2.167 2.93c-.648 1.106-1.39 2.36-2.06 3.803-.407-1.408-.954-3.961-.157-7.627.217-.825.625-1.768 1.142-2.746.243-.492.578-.981.94-1.466.357-.487.738-.971 1.136-1.445.379-.479.848-.924 1.319-1.351.469-.428.946-.837 1.422-1.221.456-.393 1.01-.717 1.513-1.03.51-.31 1.013-.59 1.498-.839.633-.351 1.339-.572 1.929-.797a36.91 36.91 0 0 1 1.673-.55l3.333-.884 1.855-.329-1.23-1.335-1.944.355-2.41.599c-1.161.243-2.328.713-3.811 1.349a9.394 9.394 0 0 0-1.32.689 30.02 30.02 0 0 0-1.36.862c-.961.607-1.812 1.371-2.671 2.194.049-.346.125-.763.24-1.252.058-.244.125-.506.204-.785.097-.272.213-.558.34-.862.257-.606.572-1.278.958-2.006.39-.724.952-1.452 1.549-2.248.542-.762 1.353-1.486 2.232-2.16.442-.335.888-.669 1.37-.953.5-.266 1.01-.508 1.516-.716l.413-.17-1.222-1.328c-1.107.499-2.23 1.105-3.144 1.89-.94.761-1.842 1.55-2.467 2.413a34.925 34.925 0 0 0-1.344 1.831" fill="#e22739"/><path d="M161.02 133.391l1.246 1.355c.184-.243.358-.477.585-.74.243-.245.52-.539.868-.968-.817.092-1.483.046-2.7.353m5.035-2.168c.35-.058.728-.082 1.093-.134a8.617 8.617 0 0 0 1.064-.225c.672-.227 1.393-.375 2.05-.621.331-.12.652-.253.962-.394.322-.115.642-.217.943-.337a20.373 20.373 0 0 0 1.634-.73 34.709 34.709 0 0 1-1.837-.685c-.638-.25-1.325-.585-1.99-.816a34.394 34.394 0 0 0-2.66-.9c-.939-.23-1.95-.39-3.133-.533-.601-.09-1.193-.076-1.851-.074-.655.007-1.36.03-2.126.08-.75.07-1.523.224-2.386.384-.434.09-.88.185-1.341.28-.448.125-.901.277-1.381.435l4.696 5.104.675-.142c.325-.071.65-.11.959-.137l.851-.098c.529-.065.985-.132 1.402-.202a85.881 85.881 0 0 0 2.376-.255m12.248-14.687a30.595 30.595 0 0 0-2.602.09c-.787.09-1.494.264-2.115.41-1.243.308-2.152.638-2.76 1.002l.85.16c.282.069.561.16.836.242a33.773 33.773 0 0 1 3.06 1.112c.463.205.902.46 1.311.687.684.388 1.295.762 1.848 1.118l.79.519c.251.183.49.373.716.549.73.582 1.387 1.063 1.965 1.534l1.506 1.28 1.031-6.858-.386-.212c-.472-.26-.972-.5-1.485-.72-.512-.222-1.046-.35-1.574-.494a19.845 19.845 0 0 0-1.57-.331 11.36 11.36 0 0 0-1.42-.088" fill="#fcd213"/><path d="M175.974 121.64a27.045 27.045 0 0 0-3.241-1.342c-.59-.224-1.188-.343-1.8-.468a30.861 30.861 0 0 0-1.852-.312c-.31-.04-.621-.085-.928-.109l-.906-.008c-.6.006-1.186.032-1.75.08-1.137.055-2.125.363-2.936.682-1.801.66-3.107 1.666-4.143 2.471-.527.393-.908.87-1.26 1.254a18.1 18.1 0 0 0-.857 1.063 54.818 54.818 0 0 1 2.283-.489c.713-.142 1.443-.167 2.102-.228.668-.048 1.298-.08 1.899-.097.615.013 1.214.066 1.78.115 1.138.104 2.168.228 3.2.531.51.135 1.005.278 1.49.431.487.157.955.298 1.443.531.63.28 1.242.54 1.828.774.587.233 1.144.424 1.704.674a18.35 18.35 0 0 0 1.584.575c.504.153.979.256 1.45.394a13.71 13.71 0 0 0 2.344.378c.714.1 1.346.184 1.904.201.554.02 1.013.101 1.339.103.325.015.514.01.514.01l.273-1.82-1.44-1.228c-.42-.338-.904-.676-1.388-1.043-.486-.35-.97-.756-1.39-1.03a41.354 41.354 0 0 0-3.246-2.093" fill="#fcd213"/><path d="M176.166 114.914l.014-.001h-.014z" fill="#231f20"/><path d="M176.18 114.913l-.014.001-.85.053-.805.135a24.84 24.84 0 0 0-1.45.31c-.897.234-1.656.421-2.287.747-1.264.594-2.024 1.145-2.44 1.502l-.04.035c-.594-.074-1.173-.04-1.748-.01-.574.031-1.14.083-1.685.155-1.103.107-2.09.446-2.948.8a22.04 22.04 0 0 0-1.83.85 28.87 28.87 0 0 0-1.558 1.025 26.76 26.76 0 0 0-1.342 1.012c-.4.35-.744.72-1.065 1.056a22.106 22.106 0 0 0-1.52 1.797 15.6 15.6 0 0 0-.724 1.243l1.222 1.328c.479-.157.932-.31 1.38-.434l1.34-.28c.864-.16 1.637-.314 2.388-.385.765-.048 1.47-.073 2.125-.08.658 0 1.25-.016 1.852.074 1.183.144 2.193.304 3.133.534.96.282 1.83.582 2.66.9.665.23 1.352.565 1.989.815.643.263 1.252.483 1.837.685-.48.234-1.028.498-1.634.73-.301.12-.621.222-.943.337-.31.142-.631.274-.962.394-.657.246-1.378.394-2.05.622-.345.096-.7.172-1.064.225-.365.051-.742.075-1.093.133a82.19 82.19 0 0 1-2.376.255c-.416.071-.873.137-1.401.202l-.852.098a7.8 7.8 0 0 0-.96.138l-.674.141 1.229 1.335c1.216-.308 1.883-.26 2.7-.353-.35.43-.626.723-.87.968-.225.263-.4.497-.584.74l1.137 1.236.44-.579c.179-.194.37-.404.58-.63.42-.459.829-1.097 1.412-1.762l.129-.163.459-.036c.376-.023.71-.113 1.086-.144.37-.037.73-.094 1.076-.172a9.933 9.933 0 0 0 1.008-.292 8.633 8.633 0 0 0 1.01-.284 85.523 85.523 0 0 0 5.134-2.176l.33-.162c.254.073.492.11.737.182.923.271 1.688.415 2.37.48.352.02.644.075.928.11.284.033.555.05.819.06.438-.003.87.044 1.228.077.357.027.638.035.766.024l.25-1.66s-.19.004-.514-.01c-.326-.002-.785-.085-1.34-.104-.557-.017-1.188-.102-1.903-.2a13.587 13.587 0 0 1-2.343-.379c-.472-.138-.947-.24-1.451-.394a18.35 18.35 0 0 1-1.584-.575c-.56-.25-1.117-.44-1.704-.674a53.758 53.758 0 0 1-1.828-.774c-.488-.233-.956-.374-1.443-.53-.485-.154-.98-.297-1.49-.432-1.032-.303-2.062-.427-3.2-.53-.566-.05-1.165-.103-1.78-.116-.6.018-1.231.05-1.9.097-.658.061-1.388.086-2.101.228-.715.137-1.474.298-2.283.49a18.1 18.1 0 0 1 .857-1.064c.352-.384.733-.86 1.26-1.254 1.036-.805 2.342-1.812 4.143-2.47.81-.32 1.8-.628 2.937-.684a24.025 24.025 0 0 1 1.75-.079l.905.008c.307.024.618.068.928.11.62.084 1.242.19 1.853.311.61.125 1.209.244 1.799.468 1.175.406 2.274.858 3.24 1.342a41.354 41.354 0 0 1 3.248 2.093c.42.274.903.68 1.389 1.03.484.368.968.705 1.388 1.043l1.44 1.227.27-1.794-1.506-1.28c-.578-.472-1.236-.953-1.965-1.534-.227-.177-.465-.367-.716-.549l-.79-.52a38.597 38.597 0 0 0-1.848-1.117c-.41-.226-.848-.482-1.312-.687a32.292 32.292 0 0 0-3.06-1.112c-.274-.083-.554-.173-.835-.242l-.851-.16c.609-.365 1.517-.694 2.76-1.002.622-.146 1.329-.32 2.115-.409a31.014 31.014 0 0 1 2.603-.092c.448.008.916.017 1.42.09.512.084 1.04.195 1.57.33.529.144 1.063.272 1.575.495.513.22 1.013.46 1.485.72l.385.211.268-1.785c-1.064-.529-2.211-1.035-3.376-1.27-.58-.137-1.16-.25-1.724-.339-.571-.097-1.076-.089-1.586-.107-.76-.012-1.472.001-2.14.033" fill="#e22739"/><path d="M183.438 127.033l-.274 1.821c.633-.06 1.173.09 2.317.06l-.872-.852c-.308-.3-.659-.653-1.171-1.029m5.068 2.534a9.461 9.461 0 0 0 1.832 1.413c.649.425 1.327.835 2.016 1.153.694.297 1.367.674 2.02.93.65.286 1.283.463 1.813.693-.645-1.187-1.29-2.444-1.877-3.883-.772-1.638-1.595-3.383-2.984-5.232-.348-.463-.707-.998-1.143-1.468a44.93 44.93 0 0 0-1.43-1.526c-.518-.557-1.115-1.066-1.782-1.605-.67-.53-1.39-1.153-2.233-1.661l-1.03 6.859.54.433c1.026.998 1.775 1.623 2.43 2.245.65.63 1.225 1.093 1.828 1.649m19.078-2.232a29.076 29.076 0 0 0-1.933-1.464c-.608-.413-1.214-.725-1.743-1.001-1.077-.536-1.912-.874-2.557-1.029.631.915 1.16 1.896 1.653 2.82.243.465.469.923.679 1.368.198.458.372.91.534 1.339.531 1.442.929 2.66 1.233 3.76a57.39 57.39 0 0 0 1.351 4.343l4.496-5.282-.187-.359c-.922-1.745-2.207-3.464-3.526-4.496m-4.953 2.551c-.819-1.993-1.985-4.26-3.48-6.118-.368-.47-.73-.94-1.124-1.358a22.86 22.86 0 0 0-1.206-1.15c-.802-.714-1.584-1.31-2.353-1.644a23.238 23.238 0 0 0-2.33-.953 21.386 21.386 0 0 0-2.079-.464c-1.247-.244-2.297-.177-3.05-.137.643.5 1.251.94 1.786 1.435.535.498 1.03.976 1.492 1.44.938.891 1.668 1.881 2.353 2.76.69.868 1.241 1.807 1.76 2.712.518.903.983 1.797 1.386 2.794 1.096 2.513 2.22 4.81 3.507 6.382.556.71 1.155 1.342 1.745 1.892.594.541 1.145 1.084 1.65 1.487a17.815 17.815 0 0 0 1.743 1.291l1.194-1.403-.673-1.878c-.38-1.058-.807-2.439-1.118-3.417a58.125 58.125 0 0 0-1.203-3.67" fill="#fcd213"/><path d="M207.074 124.822l.01.008-.01-.008z" fill="#231f20"/><path d="M207.084 124.83l-.01-.008c-.84-.651-1.719-1.11-2.464-1.505a16.951 16.951 0 0 0-2.029-.889c-1.243-.384-2.126-.483-2.65-.497l-.052-.001c-.692-.874-1.5-1.616-2.308-2.262-.805-.647-1.593-1.211-2.409-1.556a18.082 18.082 0 0 0-6.47-1.721c-1.818-.084-3.082.047-3.686.206l-.268 1.784c.843.508 1.563 1.131 2.232 1.661.667.539 1.264 1.048 1.783 1.604.525.537.998 1.044 1.43 1.527.435.469.794 1.004 1.143 1.468 1.388 1.848 2.212 3.594 2.983 5.232.59 1.438 1.233 2.696 1.878 3.883-.53-.23-1.164-.407-1.812-.692-.655-.258-1.328-.635-2.022-.932-.689-.318-1.366-.727-2.016-1.152a9.492 9.492 0 0 1-1.832-1.413c-.603-.556-1.177-1.019-1.828-1.649-.655-.622-1.404-1.247-2.43-2.245l-.54-.433-.269 1.793c.512.377.863.729 1.17 1.029l.873.852c-1.144.029-1.684-.12-2.317-.06l-.249 1.661c.46-.04.997.037 1.652.049.328.011.686-.005 1.08-.013.394.019.823.022 1.3.002l.22-.008.353.323c1.15 1.112 2.462 1.955 3.84 2.668.277.136.556.253.834.375.275.14.55.271.823.393.546.243 1.083.451 1.593.629 1.014.391 1.906.725 2.532.906l.387.118.501.672c1.245 1.693 2.337 2.572 3.34 3.435.836.684 1.701 1.315 1.973 1.469l1.088-1.279s-.743-.461-1.743-1.29c-.505-.404-1.056-.947-1.65-1.488a16.557 16.557 0 0 1-1.745-1.892c-1.288-1.572-2.41-3.868-3.507-6.381-.403-.998-.868-1.892-1.387-2.795-.518-.905-1.07-1.843-1.759-2.712-.686-.879-1.415-1.869-2.354-2.76a54.56 54.56 0 0 0-1.49-1.44c-.537-.495-1.144-.935-1.787-1.435.752-.04 1.803-.107 3.05.138.63.106 1.325.256 2.078.463.726.249 1.505.566 2.331.953.77.334 1.551.931 2.353 1.643.401.355.806.742 1.206 1.151.393.418.756.889 1.123 1.359 1.496 1.857 2.662 4.125 3.481 6.117a58.713 58.713 0 0 1 1.202 3.672c.312.978.738 2.358 1.12 3.417l.672 1.878 1.176-1.381a57.536 57.536 0 0 1-1.35-4.343 47.224 47.224 0 0 0-1.235-3.761 27.33 27.33 0 0 0-.534-1.337 35.3 35.3 0 0 0-.678-1.369c-.493-.924-1.022-1.905-1.653-2.819.645.154 1.48.492 2.557 1.028.528.275 1.135.587 1.742 1 .604.417 1.251.902 1.934 1.465 1.318 1.031 2.603 2.751 3.526 4.496l.186.359 1.17-1.375a19.108 19.108 0 0 0-1.775-2.642 17.58 17.58 0 0 0-1-1.155 19.08 19.08 0 0 0-1.069-.973 31.595 31.595 0 0 0-1.538-1.215" fill="#e22739"/><path d="M205.625 138.852l-1.194 1.402c.618.393 1.115.813 2.243 1.47-.335-.887-.53-1.547-1.049-2.872m3.786 5.078c.725 1.547 1.875 2.904 3.056 4.135 1.19 1.213 2.484 2.18 3.466 2.922-.364-1.393-.684-2.85-.876-4.403-.12-.95-.25-1.9-.411-2.9-.163-.998-.386-2.015-.652-3.15-.277-1.125-.58-2.38-1.027-3.74a84.506 84.506 0 0 0-1.67-4.605l-4.496 5.281.126.347.12.35c.909 2.803 1.6 4.08 2.365 5.762m19.106 3.397c-2.087-2.639-3.954-3.938-4.999-4.556a42.88 42.88 0 0 1 1.323 5.881c.204 1.492.31 2.79.407 3.922.15 1.832.411 3.345.6 4.526l5.288-4.487-.11-.382c-.558-1.848-1.54-3.658-2.509-4.904m-5.348 1.514c-.593-4.277-2.37-9.583-4.408-11.81-1.117-1.216-2.157-2.12-3.105-2.767a16.255 16.255 0 0 0-2.413-1.324c.523 1.394 1.001 2.632 1.364 3.832.365 1.197.677 2.31.95 3.375.562 2.111.867 4.141 1.151 6.247.184 1.374.427 2.72.744 3.964.322 1.237.73 2.358 1.227 3.303a21.652 21.652 0 0 0 2.827 4.157c.442.514.833.923 1.113 1.204l.441.443 1.404-1.192-.367-2.008c-.199-1.132-.425-2.533-.513-3.589-.095-1.118-.193-2.4-.415-3.836" fill="#fcd213"/><path d="M228.615 144.844l.008.01-.008-.01z" fill="#231f20"/><path d="M228.623 144.853l-.008-.009c-2.72-2.986-4.84-3.936-5.816-4.196l-.047-.012c-.792-1.913-1.716-3.636-2.795-4.752-1.586-1.704-3.172-2.918-4.558-3.694-1.364-.79-2.419-1.207-2.933-1.375l-1.17 1.374a84.506 84.506 0 0 1 1.67 4.604c.447 1.361.75 2.616 1.027 3.741.266 1.136.49 2.152.652 3.15.161 1 .291 1.95.411 2.9.192 1.553.512 3.01.877 4.403-.982-.743-2.277-1.709-3.466-2.922-1.18-1.23-2.33-2.587-3.056-4.136-.764-1.682-1.456-2.959-2.363-5.76 0 0-.06-.177-.122-.352l-.125-.346-1.176 1.381c.52 1.325.714 1.985 1.048 2.873-1.127-.658-1.624-1.079-2.242-1.47l-1.088 1.278c.935.637 2.15 1.551 4.132 2.494l.227.117.231.51c.762 1.665 1.903 3.098 3.124 4.394.987 1.023 2.055 1.878 3.004 2.61a29.439 29.439 0 0 0 2.39 1.69l.365.23c.12.283.246.555.377.816.981 1.97 1.892 3.231 2.807 4.261.75.861 1.538 1.672 1.781 1.896l1.28-1.087-.44-.443c-.28-.28-.672-.689-1.114-1.203a21.683 21.683 0 0 1-2.827-4.157c-.497-.945-.905-2.067-1.227-3.304a35.248 35.248 0 0 1-.744-3.964c-.283-2.106-.588-4.135-1.15-6.247a76.158 76.158 0 0 0-.95-3.375c-.364-1.199-.842-2.438-1.365-3.832.626.28 1.451.687 2.413 1.325.95.646 1.99 1.55 3.105 2.765 2.037 2.23 3.815 7.535 4.408 11.81.222 1.436.32 2.718.415 3.836.088 1.056.314 2.458.513 3.59l.367 2.008 1.383-1.174c-.188-1.18-.45-2.694-.599-4.526-.097-1.133-.203-2.43-.407-3.922a42.88 42.88 0 0 0-1.323-5.88c1.045.617 2.912 1.916 5 4.555.968 1.246 1.95 3.056 2.508 4.904l.11.382 1.375-1.168c-.629-1.969-1.677-3.795-2.72-5.174-.398-.517-.774-.995-1.169-1.417" fill="#e22739"/><path d="M224.465 158.273l-1.404 1.19c.563.51 1.013 1.01 2.055 1.863-.215-.951-.326-1.64-.65-3.053m3.134 5.676c.548 1.66 1.542 3.214 2.638 4.562a25.446 25.446 0 0 0 3.233 3.332 27.324 27.324 0 0 1-.494-4.522c-.125-3.865-.322-7.635-1.84-14.71l-5.288 4.488.14.734c.505 2.924 1.015 4.355 1.612 6.116m18.685 5.164c-1.864-2.672-3.534-4.1-4.54-4.776.429 2.032.676 4.112.799 5.898.098 1.487.139 2.77.177 3.909.052 1.836.269 3.38.454 4.579l5.369-4.39-.094-.371c-.46-1.791-1.294-3.6-2.165-4.85m-5.409 1.194c-.276-4.297-1.458-9.65-3.153-12.047-1.82-2.638-3.69-3.935-4.808-4.649.59 2.843 1.005 5.175 1.257 7.363.265 2.18.416 4.178.47 6.335.079 2.807.536 5.482 1.414 7.498.769 1.763 1.842 3.328 2.705 4.438a21.646 21.646 0 0 0 1.584 1.792l1.426-1.166s-.171-.903-.35-2.065a34.715 34.715 0 0 1-.371-3.648c-.038-1.125-.08-2.393-.174-3.85" fill="#fcd213"/><path d="M246.576 166.698l.007.009-.007-.01z" fill="#231f20"/><path d="M246.583 166.707l-.007-.009c-2.38-3.07-4.404-4.16-5.311-4.51l-.044-.017c-.537-1.955-1.308-3.694-2.175-4.907a19.71 19.71 0 0 0-3.911-4.104c-1.191-.938-2.16-1.479-2.622-1.716l-1.376 1.168c1.518 7.074 1.715 10.844 1.84 14.709.043 1.575.214 3.105.494 4.522a25.446 25.446 0 0 1-3.233-3.332c-1.096-1.348-2.09-2.901-2.637-4.562-.597-1.761-1.107-3.192-1.612-6.116l-.14-.734-1.383 1.174c.324 1.414.435 2.102.65 3.053-1.042-.853-1.491-1.352-2.054-1.862l-1.281 1.087c.86.814 1.969 1.959 3.848 3.229l.218.147.18.539c.59 1.774 1.556 3.451 2.698 4.867 1.818 2.306 3.956 4.06 5.108 4.948l.355.271c.103.299.212.589.328.868.864 2.099 1.81 3.455 2.697 4.586.757.947 1.577 1.858 1.833 2.093l1.3-1.063s-.687-.671-1.585-1.791c-.862-1.11-1.935-2.676-2.704-4.438-.878-2.016-1.335-4.692-1.414-7.498a64.79 64.79 0 0 0-.47-6.336c-.252-2.188-.668-4.52-1.257-7.363 1.119.714 2.988 2.011 4.808 4.65 1.695 2.395 2.877 7.75 3.153 12.046.095 1.458.135 2.727.174 3.852.04 1.06.19 2.487.372 3.648.178 1.162.349 2.065.349 2.065l1.404-1.148c-.185-1.198-.402-2.743-.455-4.579-.037-1.14-.078-2.423-.177-3.909a43.711 43.711 0 0 0-.797-5.899c1.005.677 2.675 2.105 4.539 4.777.87 1.249 1.705 3.057 2.164 4.849l.095.371 1.397-1.143a17.283 17.283 0 0 0-1.006-2.715 16.534 16.534 0 0 0-1.317-2.342 29.175 29.175 0 0 0-1.036-1.426" fill="#e22739"/><path d="M241.772 179.87l-1.426 1.167c.582.546 1.035 1.08 2.169 1.995-.275-.995-.418-1.708-.743-3.161m3.517 5.925c.733 1.734 2.143 3.352 3.655 4.69a29.805 29.805 0 0 0 2.399 1.74c.802.483 1.61.85 2.282 1.16a21.564 21.564 0 0 1-1.271-2.175 22.083 22.083 0 0 1-.864-2.377c-1.108-3.96-1.702-7.63-2.945-14.502l-5.369 4.39.139.746c.243 1.49.58 2.605.885 3.59.161.49.313.947.495 1.393l.594 1.345m18.779-.226a14.975 14.975 0 0 0-.86-.39 89.79 89.79 0 0 1-.409-.162l-.369-.185a11.27 11.27 0 0 0-1.349-.558c-.425-.124-.786-.271-1.11-.386a8.146 8.146 0 0 0-.863-.241c.71 1.653 1.583 3.285 2.388 4.804.714 1.17 1.352 2.323 2.007 3.229 1.06 1.43 2.183 2.698 3.111 3.464l1.56-6.758-.278-.221-.509-.393a13.154 13.154 0 0 0-1.482-1.124c-.327-.218-.665-.395-.973-.575a7.63 7.63 0 0 0-.864-.503m-3.972 3.708l-.747-1.417c-.251-.471-.513-.917-.731-1.43l-.682-1.438c-.23-.457-.452-.901-.648-1.38a29.367 29.367 0 0 0-.612-1.311c-.205-.405-.41-.783-.601-1.183-.39-.768-.792-1.401-1.211-1.86-.894-1.124-1.778-1.891-2.565-2.56a13.764 13.764 0 0 0-2.038-1.425c1.01 5.442 1.629 8.959 2.912 13.225.104.353.217.706.339 1.056.13.34.288.663.445.992.319.653.675 1.293 1.062 1.907.37.638.853 1.128 1.313 1.647.47.504.96.969 1.462 1.384.902.649 1.87 1.198 2.798 1.673.464.255.923.404 1.36.564.437.154.855.29 1.242.408.773.223 1.433.43 1.883.478.454.07.715.097.715.097l.414-1.794-.484-.402c-.298-.236-.707-.625-1.148-1.07a37.044 37.044 0 0 1-1.351-1.421 24.438 24.438 0 0 1-.623-.72c-.193-.24-.361-.5-.512-.726l-.98-1.544c-.335-.542-.692-1.088-1.012-1.75" fill="#fcd213"/><path d="M263.498 183.494l.008.003-.008-.003z" fill="#231f20"/><path d="M263.506 183.497l-.008-.003a9.807 9.807 0 0 0-1.745-.765c-.544-.17-.992-.387-1.431-.483a7.13 7.13 0 0 0-1.152-.206 5.378 5.378 0 0 0-.801-.101l-.041-.002a18.69 18.69 0 0 0-.535-1.112l-.277-.503-.274-.517c-.37-.672-.76-1.24-1.173-1.682a16.809 16.809 0 0 0-1.865-1.915c-.62-.547-1.221-1.076-1.778-1.472-1.115-.794-2.04-1.324-2.484-1.545l-1.397 1.142c1.243 6.87 1.837 10.54 2.945 14.5.238.799.529 1.596.864 2.379.376.745.807 1.472 1.27 2.174-.671-.31-1.478-.677-2.281-1.161a30.032 30.032 0 0 1-2.4-1.738c-1.511-1.34-2.92-2.956-3.654-4.691l-.594-1.345a20.932 20.932 0 0 1-.495-1.394c-.305-.984-.642-2.098-.885-3.588l-.14-.746-1.403 1.148c.324 1.453.467 2.166.743 3.16-1.135-.914-1.587-1.448-2.17-1.994l-1.3 1.063c.873.879 2.127 2.147 4.15 3.527l.249.159.257.578c.44.94.95 1.868 1.607 2.74.686.868 1.45 1.689 2.245 2.432a30.35 30.35 0 0 0 2.117 1.593c.356.237.684.478 1.047.678a37.097 37.097 0 0 0 2.977 1.444c.583.23 1.122.375 1.542.504l.525.15c.277.263.559.516.844.755 2.187 1.694 4.06 2.516 5.696 2.964.683.206 1.368.393 1.93.536.555.108.987.166 1.183.183l.378-1.637s-.261-.027-.715-.097c-.45-.047-1.11-.255-1.883-.478a30.601 30.601 0 0 1-1.242-.408c-.438-.16-.897-.31-1.36-.564-.928-.475-1.896-1.024-2.798-1.673-.501-.415-.992-.88-1.462-1.384-.46-.52-.943-1.01-1.313-1.647a20.276 20.276 0 0 1-1.062-1.907c-.157-.33-.315-.651-.445-.992-.122-.35-.236-.703-.34-1.056-1.282-4.266-1.901-7.784-2.911-13.226a13.86 13.86 0 0 1 2.038 1.426c.787.669 1.67 1.436 2.565 2.56.419.459.82 1.092 1.21 1.86.192.4.397.778.602 1.183.204.409.408.848.612 1.31.196.48.419.924.648 1.38l.682 1.439c.218.513.48.959.73 1.43l.748 1.417c.32.662.677 1.208 1.012 1.75l.979 1.544c.152.227.32.487.513.726.194.234.404.476.623.72.437.487.91.98 1.35 1.42.442.446.85.835 1.149 1.07l.484.403.408-1.767c-.928-.767-2.051-2.034-3.11-3.464-.656-.907-1.294-2.058-2.008-3.23-.805-1.518-1.678-3.15-2.387-4.803.247.054.536.13.862.24.324.116.685.263 1.11.387.418.14.868.322 1.349.558l.369.185.41.162c.277.116.563.245.859.39.279.138.568.306.864.503.308.18.646.358.973.576a12.955 12.955 0 0 1 1.482 1.124l.51.393.277.22.406-1.757c-.723-.52-1.363-1.08-2.023-1.5a10.747 10.747 0 0 0-.976-.564 9.391 9.391 0 0 0-.861-.515c-.423-.22-.826-.401-1.214-.553" fill="#e22739"/><path d="M266.2 196.937l-.414 1.793c.864.07 1.628.222 3.135.248 0 0-.172-.11-.434-.309l-.947-.707-1.34-1.025m14.515 2.208l-.333-.49-1.78-1.226.663-.61a9.802 9.802 0 0 1-1.272-.636c-.132-.077-.217-.163-.334-.23-.05-.037-.125-.076-.137-.11l-.213-.117c-.287-.16-.567-.327-.842-.5a24.957 24.957 0 0 1-1.587-1.102c.074.024.151.05.224.072 1.34.38 2.338.332 2.96.222.65-.079.974-.276.974-.276l-.035-.04c.006 0 .01-.002.015-.003l-.276-.303s-.419-.497-.44-.5c0 0 .094-.02.207-.056l.43-.125.623-.182c.284-.082.663-.128 1.063-.153-.692-.464-1.078-.906-1.435-1.045l-.26-.189c-.087-.058-.153-.12-.285-.196-.14-.075-.289-.168-.445-.234-.082-.036-.146-.069-.243-.106-.158-.042-.19-.072-.239-.104l-.273-.17-.264-.169.423-.102.205-.05c.01-.01.141-.013.231-.017l.184-.023a3.46 3.46 0 0 1 .386-.035c.13-.006.285-.009.355-.025l1.443-.21-.686-.653c-.357-.329-.648-.647-.74-.662.092.015.534-.35.548-.348l-.25-.058-.14-.03-.472-.093-.755-.087a13.308 13.308 0 0 0-.799-.1 38.507 38.507 0 0 0-1.823-.156c-.612-.03-1.22-.052-1.804-.103a12.594 12.594 0 0 0-2.072.037c-.274.026-.552.065-.823.106-.09.01-.58.142-.644.084.311.298.628.602.973.867 1.1.885 2.222 1.841 3.383 2.763l.078.06c-2.393-.673-4.62-2.03-5.774-2.978-.092-.086-.35-.259-.44-.343l-.01.044-.06.26-1.49 6.454.593.495c.552.472 1.127.935 1.73 1.382a22.533 22.533 0 0 0 2.695 1.595c1.274.666 2.603 1.063 3.975 1.387.338.08.746.158 1.17.232l.317.055.16.026-.1-.002s.01.006.013.01l.063.03.03.016c.002.004.08.02.116.03.015.002-.085-.203-.065-.387l.007-.375 2.64.516-.01-.03-.378-.935 1.107-.067.044-.002z" fill="#fcd213"/><path d="M281.012 200.54c0-.004-.036-.09-.094-.237l.37.011 1.594.02-1.24-1.632 1.158-.438-2.557-1.215.773-.988-1.502-.55c-.082-.016-.164-.042-.246-.06.26-.04.489-.073.638-.095l1.57-.21-.8-.873c.389.003.844-.176 1.153-.154l1.293-.064-.59-1.005c-.392-.612-.972-1.14-1.568-1.574l2.504-.675-2.381-2.207 1.355-.87-1.558-.506a23.415 23.415 0 0 0-1.314-.387l-.171-.042-.298-.06c-.196-.048-.395-.066-.591-.089l-.44-.044-.134-.02-.267-.035c-.71-.089-1.424-.14-2.335-.219-.827-.05-1.59-.137-2.368-.15-.771-.022-1.58.056-2.344.136a13.702 13.702 0 0 0-2.048.345l-.406 1.758c.092.086.35.261.444.347 1.158.95 3.379 2.296 5.765 2.97l-.073-.056c-1.161-.922-2.283-1.878-3.382-2.763-.345-.265-.662-.569-.974-.867.063.06.553-.075.644-.084.27-.04.55-.08.824-.106.693-.07 1.386-.08 2.072-.037.583.051 1.192.072 1.804.104.608.036 1.215.088 1.823.154.267.028.535.057.799.101l.755.087.47.092c.085.02.14.031.14.031l.252.058c-.014-.003-.456.363-.55.348.094.015.385.333.742.662l.686.653-1.443.21c-.071.016-.227.02-.355.025a3.46 3.46 0 0 0-.386.035l-.184.023c-.091.004-.222.007-.231.018l-.205.05-.423.101.264.168c.08.05.173.11.272.171.049.032.082.062.24.104.097.037.16.07.243.106.156.066.305.16.445.234.132.076.198.138.284.196l.26.19c.358.138.744.58 1.436 1.045-.401.024-.78.071-1.063.152l-.624.182-.43.126a3.181 3.181 0 0 1-.206.055c.02.003.44.501.44.501l.276.302c-.005.002-.01.002-.016.002l.036.041s-.325.198-.974.276c-.622.11-1.62.158-2.961-.222l-.23-.076c.512.383 1.04.755 1.59 1.103.275.174.556.342.843.502l.215.118c.013.034.086.072.137.108.117.07.203.155.334.232.409.24.833.458 1.273.636l-.664.61 1.78 1.227.334.49-.044.001-1.108.067.378.934.01.031-2.64-.516-.006.375c-.02.185.08.39.064.386-.035-.009-.113-.025-.115-.029l-.03-.016-.063-.03a.16.16 0 0 0-.013-.009l.1.001-.16-.026-.32-.054c-.421-.074-.83-.153-1.168-.233-1.371-.324-2.7-.72-3.975-1.387a22.466 22.466 0 0 1-2.694-1.595 31.825 31.825 0 0 1-1.73-1.382l-.593-.495-.41 1.768 1.34 1.025.948.707c.262.2.434.31.434.31-1.506-.027-2.271-.18-3.135-.249l-.377 1.636c.699.078 1.516.184 2.483.255.969.08 2.04-.01 3.302-.14l.25-.029c.377.158.897.377 1.528.59.622.191 1.362.396 2.202.591.37.086.742.158 1.09.22.176.027.345.055.506.081l.235.035c.06.01.232.03.008.014-.027.008-.006.013-.011.018v.007c-.018 0 .073.015.099.021l.286.054 1.452.246-.282-.704 3.03.32-.574-1.406z" fill="#e22739"/><path d="M204.697 154.386l1.38 1.22c.402-.618.8-1.14 1.478-2.242-.899.314-1.549.51-2.858 1.022m5.036-3.742c3.032-1.446 5.437-4.485 6.801-6.416-1.322.372-2.8.626-4.312.827-1.853.252-3.707.536-5.945 1.041a74.253 74.253 0 0 0-8.137 2.497l5.198 4.592.686-.236c2.752-.878 4.101-1.508 5.71-2.305m3.033-18.917c-1.312 1.047-2.314 2.018-3.043 2.865-.704.864-1.164 1.588-1.454 2.12a38.236 38.236 0 0 1 2.971-.812 38.17 38.17 0 0 1 2.842-.478c1.478-.185 2.722-.303 3.86-.337 1.816-.072 3.295-.255 4.44-.366l-4.234-5.492-.393.093c-1.846.513-3.76 1.421-4.99 2.407m1.508 5.344c-2.147.243-4.443.873-6.572 1.616-2.1.767-3.901 1.743-4.99 2.706-2.338 2.154-3.343 4.124-3.884 5.314 2.72-.928 4.933-1.633 7.037-2.147 2.115-.5 4.04-.874 6.125-1.134 2.754-.3 5.23-.966 7.085-1.834a17.026 17.026 0 0 0 2.205-1.313 19.563 19.563 0 0 0 2.915-2.27c.266-.26.42-.394.42-.394l-1.123-1.46s-.217.014-.562.061l-1.38.175c-1.098.134-2.477.282-3.518.332a64.727 64.727 0 0 0-3.758.348" fill="#fcd213"/><path d="M210.292 131.628l.01-.008-.01.008z" fill="#231f20"/><path d="M210.301 131.62l-.009.008c-1.535 1.331-2.476 2.563-3.09 3.558-.619.995-.905 1.76-1.036 2.228l-.012.046c-1.882.768-3.498 1.75-4.602 2.753-3.245 3.081-4.473 6.203-4.765 7.186l1.353 1.194c3.316-1.23 5.948-1.949 8.137-2.498 2.238-.504 4.092-.788 5.945-1.04 1.512-.2 2.99-.455 4.312-.827-1.364 1.931-3.769 4.97-6.8 6.416-1.609.797-2.959 1.427-5.71 2.305l-.687.236 1.36 1.201c1.31-.512 1.96-.708 2.858-1.023-.679 1.103-1.076 1.625-1.478 2.242l1.258 1.112c.635-.967 1.581-2.167 2.535-4.134l.111-.228.497-.236c1.603-.806 3.094-1.866 4.29-3.108a31.888 31.888 0 0 0 2.486-2.934c.684-.92 1.201-1.772 1.554-2.335l.22-.346a16.15 16.15 0 0 0 3.144-1.651 18.14 18.14 0 0 0 1.682-1.218c.816-.658 1.578-1.385 1.787-1.583l-1.026-1.33s-.154.134-.42.394a19.623 19.623 0 0 1-2.915 2.271c-.662.46-1.4.918-2.205 1.312-1.855.868-4.332 1.534-7.085 1.835-2.084.26-4.01.634-6.126 1.134-2.104.514-4.316 1.22-7.037 2.147.542-1.19 1.546-3.16 3.884-5.314 1.09-.963 2.891-1.938 4.99-2.705 2.13-.743 4.425-1.374 6.572-1.617a65.648 65.648 0 0 1 3.76-.349c1.04-.05 2.418-.197 3.517-.33l1.38-.176c.345-.047.561-.06.561-.06l-1.108-1.437c-1.145.11-2.625.294-4.44.365-1.139.035-2.383.153-3.86.337-.882.114-1.844.273-2.842.48-.975.222-1.978.496-2.972.81a14 14 0 0 1 1.455-2.119c.728-.848 1.73-1.818 3.042-2.865 1.231-.987 3.143-1.894 4.99-2.407l.392-.093-1.102-1.429c-1.022.28-1.978.693-2.89 1.144-.9.458-1.76.954-2.432 1.498-.518.403-.99.797-1.423 1.18" fill="#e22739"/></g></svg>