<svg xmlns="http://www.w3.org/2000/svg" xml:space="preserve" width="531.496" height="318.897"><defs><clipPath clipPathUnits="userSpaceOnUse" id="a"><path d="M0 255.118h425.197V0H0v255.118Z"/></clipPath></defs><path d="M0 0h425.197v255.118H0V0Z" style="fill:#fcd213;fill-opacity:1;fill-rule:nonzero;stroke:none" transform="matrix(1.25 0 0 -1.25 0 318.897)"/><path d="m0 0-.13.275-212.468-116.038v-127.501L-.13-127.225l.13.23v-.23l212.468-116.039v127.501L0 .275V0Z" style="fill:#e22739;fill-opacity:1;fill-rule:nonzero;stroke:none" transform="matrix(1.25 0 0 -1.25 265.748 14.818)"/><g clip-path="url(#a)" transform="matrix(1.25 0 0 -1.25 0 318.897)"><path d="M0 0c-1.038-.349-2.196-.891-3.479-1.462-1.682-.701-3.563-1.583-5.295-2.211-.367-.112-.948-.316-1.61-.498a23.097 23.097 0 0 0-2.454-.435c-.571-.069-1.484-.118-2.206-.143l.34.728-2.658-.189.016.028.545.934-1.046.283-.043.01.413.416 2.098.785-.88.917c1.498.283 3.147 1.034 4.488 1.714a5.952 5.952 0 0 0-2.394.461l-.021-.012c-.34.175-.787.369-1.224.544l.845.635s-1.767.591-2.141.693c.747.319 1.517.794 1.883.861l1.95.699-3.098 1.302 1.057.436-.402.447.248.008.763.022c.592.012 1.378.004 2.283-.053a57.116 57.116 0 0 0 3.702-.428 20.608 20.608 0 0 0 2.692-.7 23.094 23.094 0 0 1-2.166-.811c-.718-.297-1.399-.716-2.077-1.123l-1.513-.93c1.354.181 2.543.474 3.556.654 1.013.189 1.831.383 2.4.532 1.316.501 2.659.69 3.897.726.518.013 1.033.003 1.538-.024.509-.054 1.01-.147 1.491-.239.962-.2 1.85-.401 2.597-.672 1.493-.587 2.432-1.097 2.432-1.097l-.745-1.684s-.981-.068-2.177-.226c-.299-.04-.61-.082-.926-.136L1.722.527A20.167 20.167 0 0 1 0 0" style="fill:#fcd213;fill-opacity:1;fill-rule:nonzero;stroke:none" transform="translate(160.925 193.468)"/><path d="M0 0c-1.331.234-2.447.498-3.312.834-.918.259-1.602.559-2.076.809.863.34 1.754.743 2.606 1.115A74.7 74.7 0 0 1-.346 3.811c1.308.624 2.416 1.013 3.469 1.421 1.698.686 3.223.842 4.466 1.019L4.782-.091l-.335-.038a12.1 12.1 0 0 0-1.199-.079c-.391-.007-.762.019-1.159.002A9.053 9.053 0 0 0 0 0" style="fill:#fcd213;fill-opacity:1;fill-rule:nonzero;stroke:none" transform="translate(158.382 186.683)"/><path d="M0 0a9.053 9.053 0 0 1 2.089-.206c.397.017.768-.009 1.159-.002.39.006.792.032 1.199.079l.335.038-.731-1.65c-.834-.108-1.585-.088-2.333-.067a9.63 9.63 0 0 0-2.1.197c-.459.113-.965.149-1.391.251l-.009.001c-.665.137-1.253.305-1.776.492-.554.15-1.044.315-1.469.493A8.099 8.099 0 0 0-6.889.68c-.2.135-.34.257-.445.37a24.393 24.393 0 0 0-2.784-.517l-1.7-.19A19.703 19.703 0 0 0-12.64.27l-1.323-.013.371.795-3.164.025.823 1.266.135.212-.355.06-1.529.298 1.703 1.705-1.023.658 2.351.504-.631.967 1.949.582c.081-.003.164.007.246.01l-.591.218-1.458.516.93.697c-.371.074-.745.135-1.043.175l-1.364.292.873 1.098c.493.522 1.147.927 1.796 1.233l-2.53.967 2.468 1.309-1.055 1.175s1.405.341 2.486.372l.758.021c.558.016 1.223-.003 1.923-.046l1.993-.162.092-.006.257-.025.347-.031.205-.017c.052-.004.111-.014.171-.025 1.309-.124 2.572-.448 3.632-.759 1.066-.325 1.922-.593 2.578-.914l.449-.209c.346.033.685.057 1.018.068 2.506.164 4.374-.401 5.955-.861 1.321-.496 2.599-1.101 2.946-1.296l-.68-1.536s-.939.511-2.432 1.097c-.747.272-1.635.473-2.597.672-.481.092-.982.186-1.49.239a19.66 19.66 0 0 1-1.539.024c-1.238-.035-2.581-.225-3.897-.726a34.2 34.2 0 0 0-2.4-.531c-1.013-.181-2.202-.473-3.556-.655l1.513.931c.678.406 1.359.825 2.077 1.122.714.309 1.44.58 2.166.811-.81.264-1.67.512-2.692.7-1.008.158-2.194.294-3.702.428-.904.058-1.691.065-2.283.053l-.763-.022-.248-.007.402-.447-1.057-.436 3.098-1.303-1.95-.699c-.366-.067-1.136-.541-1.883-.861.374-.102 2.141-.693 2.141-.693l-.845-.634c.437-.176.884-.37 1.224-.544l.021.011a5.97 5.97 0 0 1 2.394-.461c-1.341-.68-2.99-1.431-4.488-1.714l.88-.916-2.098-.786-.413-.415.043-.011 1.046-.283-.545-.934-.016-.028 2.658.189-.34-.728c.722.025 1.635.075 2.206.144a23.13 23.13 0 0 1 2.454.434c.662.183 1.243.387 1.61.498 1.732.628 3.613 1.51 5.295 2.211 1.283.571 2.441 1.113 3.479 1.462.493.181 1.092.361 1.722.527l.957.236a40.003 40.003 0 0 0 3.103.362l-.735-1.659c-1.243-.177-2.768-.333-4.466-1.019C2.07 4.824.962 4.435-.346 3.811a74.7 74.7 0 0 0-2.436-1.053c-.852-.372-1.743-.775-2.606-1.115.474-.25 1.158-.55 2.076-.809C-2.447.498-1.331.234 0 0" style="fill:#e22739;fill-opacity:1;fill-rule:nonzero;stroke:none" transform="translate(158.382 186.683)"/><path d="m0 0 .745 1.684c.787-.402 1.472-.86 2.733-1.801a38.24 38.24 0 0 1-1.561.095C1.386-.002.806.047 0 0" style="fill:#fcd213;fill-opacity:1;fill-rule:nonzero;stroke:none" transform="translate(166.706 194.592)"/><path d="M0 0c1.845-.628 3.672-1.834 5.023-3.198.352-.337.689-.678 1.007-1.019a28.684 28.684 0 0 0 2.13-2.904c-1.442.563-2.934 1.03-4.544 1.279l-2.959.416c-1.005.126-2.091.193-3.201.294l-.85.067-.909.013-1.89.014h-.488l-.516-.041-1.052-.09c-.719-.081-1.409-.091-2.203-.266L-7.644.907l.787.066C-5.331 1-4.084.933-3.004.769-1.954.556-1.029.299 0 0" style="fill:#fcd213;fill-opacity:1;fill-rule:nonzero;stroke:none" transform="translate(173.616 192.027)"/><path d="M0 0a25.639 25.639 0 0 0-1.355 1.614 15.426 15.426 0 0 0-2.086 3.393c.908-.267 1.827-.612 2.743-.884.911-.286 1.824-.52 2.653-.762 1.393-.387 2.622-.688 3.71-.959A40.665 40.665 0 0 0 9.95 1.019L4.491-3.257l-.339.171C2.5-2.253.979-1.05 0 0" style="fill:#fcd213;fill-opacity:1;fill-rule:nonzero;stroke:none" transform="translate(176.417 172.992)"/><path d="M0 0a47.792 47.792 0 0 0-3.13.921c-1.047.342-2.099.648-3.053 1.006l-.704.266-.682.229c-.442.153-.856.31-1.238.474-.384.155-.726.351-1.049.489a5.466 5.466 0 0 0-.844.457 12.47 12.47 0 0 0-.737.538l-.33.272-.322.229a9.493 9.493 0 0 0-1.075.923c-.155.152-.294.309-.429.452a10.065 10.065 0 0 0-1.012 1.073l1.778.187 1.669.012c.548-.004 1.102.009 1.634-.017l1.555-.132 1.552-.136c.514-.053 1.003-.139 1.513-.207 1.001-.152 2.074-.272 3.121-.463C-.418 6.33.98 5.971 2.192 5.485 3.396 5 4.512 4.418 5.415 3.765c3.13-2.3 5.007-5.438 5.007-5.438L8.973-2.809s-.823.339-1.895.742c-1.071.403-2.395.87-3.417 1.123A214.02 214.02 0 0 0 0 0" style="fill:#fcd213;fill-opacity:1;fill-rule:nonzero;stroke:none" transform="translate(178.823 177.94)"/><path d="m0 0 .007-.008L0 0Z" style="fill:#231f20;fill-opacity:1;fill-rule:nonzero;stroke:none" transform="translate(174.064 173.165)"/><path d="m0 0-.007.008C-.579.696-1.038 1.296-1.41 1.877c-.372.57-.655 1.119-.876 1.547-.44.889-.617 1.594-.687 2.033l-.007.043c-.832.334-1.611.562-2.276.894-.335.149-.64.339-.927.478a5.71 5.71 0 0 0-.776.443c-.345.237-.662.484-.954.737-.298.233-.582.428-.838.654-.518.434-.932.928-1.338 1.277-.782.758-1.27 1.514-1.548 1.802l.73 1.65c.795.175 1.484.186 2.203.266l1.052.091.516.041.488-.001 1.89-.014.91-.012.85-.068c1.109-.101 2.195-.168 3.201-.294l2.959-.416c1.609-.249 3.101-.716 4.543-1.279a28.417 28.417 0 0 1-2.13 2.904 25.32 25.32 0 0 1-1.006 1.019C3.217 17.036 1.39 18.243-.455 18.87c-1.029.299-1.953.556-3.004.769-1.079.164-2.327.231-3.853.205l-.787-.067.734 1.658c.806.047 1.386-.001 1.917-.021a38.276 38.276 0 0 0 1.561-.096c-1.26.941-1.946 1.399-2.732 1.801l.679 1.536c.655-.315 1.39-.804 2.234-1.387.421-.295.866-.622 1.329-.989.459-.373.895-.844 1.364-1.335l.215-.23.653-.188c1.102-.299 2.062-.826 3.036-1.4.474-.293.973-.596 1.393-.934.418-.339.821-.693 1.206-1.057 1.282-1.162 2.201-2.409 2.976-3.516.192-.277.375-.546.54-.803l.423-.737a30.1 30.1 0 0 0 .64-1.212l.207-.414c.281-.17.552-.344.81-.523 1.875-1.331 3-2.538 3.859-3.638.72-.915 1.388-1.856 1.551-2.147l-1.322-1.036s-1.877 3.139-5.007 5.439c-.903.653-2.019 1.235-3.224 1.72-1.211.486-2.609.844-3.975 1.088-1.047.191-2.119.311-3.12.463-.51.068-1 .154-1.513.207l-1.552.136-1.555.131c-.532.026-1.086.014-1.635.018l-1.668-.013-1.778-.187c.171-.209.374-.445.617-.693a8.53 8.53 0 0 1 .394-.379c.135-.143.275-.3.429-.452a9.494 9.494 0 0 1 1.398-1.152l.33-.272c.228-.181.473-.361.737-.539.24-.162.523-.313.844-.456.323-.138.664-.335 1.048-.49.382-.163.797-.321 1.239-.474l.682-.228.703-.267c.954-.358 2.006-.663 3.053-1.005a47.032 47.032 0 0 1 3.131-.921c1.377-.367 2.582-.678 3.661-.945 1.022-.252 2.345-.72 3.416-1.123 1.073-.402 1.895-.741 1.895-.741L12.296.855a40.665 40.665 0 0 1-4.285 1.383c-1.089.271-2.317.571-3.71.958-.829.243-1.742.476-2.653.762-.916.272-1.835.618-2.743.885A15.363 15.363 0 0 1 .991 1.45C1.378.954 1.825.401 2.346-.164c.979-1.051 2.5-2.253 4.152-3.087l.339-.171-1.421-1.113c-1.732.916-3.255 2.173-4.322 3.289C.689-.817.327-.401 0 0" style="fill:#e22739;fill-opacity:1;fill-rule:nonzero;stroke:none" transform="translate(174.071 173.157)"/><path d="m0 0 1.45 1.136c.387-.663.769-1.199 1.376-2.39C1.945-.849 1.309-.604 0 0" style="fill:#fcd213;fill-opacity:1;fill-rule:nonzero;stroke:none" transform="translate(187.795 175.13)"/><path d="M0 0c2.933-1.765 5.089-5.116 6.217-7.271a27.505 27.505 0 0 1-4.22 1.396c-3.688.889-7.285 1.952-13.717 4.681l5.46 4.277.681-.281C-2.866 1.736-1.572.932 0 0" style="fill:#fcd213;fill-opacity:1;fill-rule:nonzero;stroke:none" transform="translate(192.628 170.929)"/><path d="M0 0c-2.218 2.38-3.245 4.298-3.668 5.404A40.837 40.837 0 0 1 1.875 3.43a58.388 58.388 0 0 1 3.747-.91 47.55 47.55 0 0 0 4.337-1.153L4.762-3.225l-.353.16C2.695-2.28 1.042-1.118 0 0" style="fill:#fcd213;fill-opacity:1;fill-rule:nonzero;stroke:none" transform="translate(193.378 151.819)"/><path d="M0 0c-4.106 1.107-8.99 3.407-10.886 5.503-2.095 2.306-2.921 4.28-3.343 5.497 5.161-2.17 8.657-3.404 12.763-4.397 2.671-.669 5.145-1.61 6.863-2.819a18.132 18.132 0 0 0 2.04-1.689A21.632 21.632 0 0 0 9.022.479a18.303 18.303 0 0 0 1.368-1.724L9.01-2.464S5.713-1.344 3.666-.903A82.349 82.349 0 0 0 0 0" style="fill:#fcd213;fill-opacity:1;fill-rule:nonzero;stroke:none" transform="translate(195.687 156.85)"/><path d="m0 0 .007-.009L0 0Z" style="fill:#231f20;fill-opacity:1;fill-rule:nonzero;stroke:none" transform="translate(190.958 152.039)"/><path d="m0 0-.007.009c-1.245 1.489-2.027 2.774-2.501 3.807-.464 1.037-.639 1.817-.704 2.292l-.005.046c-1.758.938-3.265 2.023-4.214 3.103-2.897 3.261-3.799 6.37-4.048 7.335l1.421 1.113c6.432-2.73 10.03-3.793 13.717-4.682a27.397 27.397 0 0 0 4.22-1.396c-1.128 2.156-3.284 5.506-6.217 7.272-1.571.932-2.866 1.736-5.578 2.802l-.682.281L-3.17 23.1c1.309-.603 1.945-.848 2.825-1.254-.606 1.191-.988 1.727-1.376 2.39l1.322 1.036c.628-1.026 1.498-2.34 2.335-4.436l.097-.242.486-.284c1.581-.935 2.963-2.24 4.073-3.619 1.776-2.22 2.956-4.621 3.536-5.864l.177-.389a17.657 17.657 0 0 0 2.957-2.208c.6-.547 1.09-1.06 1.531-1.568.73-.837 1.41-1.703 1.577-1.975l-1.258-1.112s-.494.736-1.369 1.724c-.437.495-.97 1.053-1.584 1.616a18.132 18.132 0 0 1-2.04 1.689c-1.719 1.209-4.193 2.15-6.863 2.819-4.106.993-7.602 2.227-12.764 4.397.422-1.217 1.249-3.191 3.343-5.497C-4.268 8.227.616 5.927 4.722 4.82a82.485 82.485 0 0 1 3.666-.904c2.047-.44 5.344-1.56 5.344-1.56l-1.36-1.201a47.508 47.508 0 0 1-4.337 1.154 58.16 58.16 0 0 0-3.747.909 40.985 40.985 0 0 0-5.543 1.975C-.832 4.087.195 2.169 2.413-.211c1.042-1.118 2.695-2.281 4.409-3.065l.352-.16-1.352-1.195c-1.812.882-3.478 2.102-4.637 3.31C.749-.866.356-.425 0 0" style="fill:#e22739;fill-opacity:1;fill-rule:nonzero;stroke:none" transform="translate(190.965 152.03)"/><path d="m0 0 1.124 1.458C1.615.965 2.093.58 2.92-.35 2.02-.234 1.367-.193 0 0" style="fill:#fcd213;fill-opacity:1;fill-rule:nonzero;stroke:none" transform="translate(223.491 136.156)"/><path d="M0 0c3.125-.539 5.95-2.526 7.733-3.632a29.71 29.71 0 0 1-1.955-.407 43.226 43.226 0 0 1-2.096-.44C.129-5.27-3.655-5.771-10.842-4.545L-6.607.947l.717-.079A39.659 39.659 0 0 0-2.523.43C-1.605.307-.835.157 0 0" style="fill:#fcd213;fill-opacity:1;fill-rule:nonzero;stroke:none" transform="translate(228.99 133.772)"/><path d="M0 0c-.93.172-1.806.302-2.533.573-.738.247-1.392.501-1.963.75-.58.236-1.043.52-1.439.775a13.14 13.14 0 0 0-.981.689c2.229.049 4.458.53 6.185 1.095.734.267 1.392.534 1.989.793l.851.382.78.425 2.145 1.175 1.66 1.007L6.516.731 6.11.587A15.944 15.944 0 0 0 4.563.131C4.035.014 3.502-.035 2.972-.085A18.932 18.932 0 0 0 1.413-.15C.911-.143.442-.067 0 0" style="fill:#fcd213;fill-opacity:1;fill-rule:nonzero;stroke:none" transform="translate(238.822 117.275)"/><path d="M0 0a25.67 25.67 0 0 0-1.617-.446c-.566-.138-1.159-.267-1.739-.325-1.163-.13-2.428-.258-3.593-.199-1.164.058-2.321.167-3.342.374-.995.235-1.883.53-2.584.876-3.027 1.58-4.553 3.356-5.332 4.472l2.079-.299a60.572 60.572 0 0 1 1.953-.167c1.254-.073 2.358-.163 3.48-.106a43.86 43.86 0 0 1 3.144.21c1.025.142 2.027.34 3.02.567l.963.211.948.237c.62.147 1.215.271 1.783.366 1.138.205 2.177.423 3.076.408.796.066 1.548.066 2.237.002.692-.012 1.321-.04 1.858-.115.535-.089.986-.075 1.298-.132.314-.04.493-.076.493-.076l-.047-1.841-1.587-.966-3.014-1.575A40.197 40.197 0 0 0 1.904.733C1.326.478.686.198 0 0" style="fill:#fcd213;fill-opacity:1;fill-rule:nonzero;stroke:none" transform="translate(237.484 122.735)"/><path d="m0 0 .014-.003L0 0Z" style="fill:#231f20;fill-opacity:1;fill-rule:nonzero;stroke:none" transform="translate(236.418 116.047)"/><path d="m0 0-.014.003a25.926 25.926 0 0 0-2.901 1.041c-.824.358-1.455.79-2.004 1.15-.541.371-.967.715-1.299 1.016a6.105 6.105 0 0 0-.699.803l-.03.042c-1.087.098-2.17.252-3.136.498a14.33 14.33 0 0 0-2.533.966c-1.122.54-1.995 1.211-2.808 1.825-.799.624-1.491 1.228-2.005 1.825-1.061 1.172-1.683 2.128-1.957 2.585l1.102 1.429c7.188-1.226 10.972-.725 14.524.066.723.174 1.422.312 2.097.44.683.165 1.335.302 1.955.407-1.783 1.107-4.608 3.094-7.733 3.632-.835.158-1.605.307-2.523.43-.905.158-1.944.311-3.368.438l-.717.079 1.108 1.437c1.367-.193 2.019-.235 2.92-.35-.827.93-1.305 1.314-1.796 1.808l1.026 1.33c.383-.369.845-.79 1.362-1.33a39.982 39.982 0 0 0 1.727-1.98l.147-.183.508-.087c.825-.149 1.616-.403 2.382-.634.762-.243 1.475-.61 2.146-.946 1.08-.502 2.039-1.206 2.87-1.695.413-.268.79-.537 1.121-.787.332-.243.623-.417.856-.591l.289-.208c.254.03.5.049.737.058.447 0 .853.064 1.225.076.372.018.711.014 1.028-.006.632-.043 1.177-.03 1.688-.116l.622-.094.567-.044a5.66 5.66 0 0 0 .736-.105l-.043-1.679s-.18.036-.493.076c-.313.057-.763.043-1.298.132-.537.074-1.167.103-1.858.115-.689.064-1.442.064-2.237-.002-.899.015-1.938-.203-3.077-.408a27.381 27.381 0 0 1-1.782-.366l-.949-.237-.962-.211a35.276 35.276 0 0 0-3.02-.567 43.86 43.86 0 0 0-3.144-.21c-1.122-.057-2.227.033-3.481.106-.621.045-1.274.095-1.952.167l-2.079.299c.778-1.116 2.304-2.892 5.332-4.472.701-.346 1.589-.641 2.584-.876 1.02-.207 2.177-.317 3.341-.374 1.165-.059 2.431.069 3.594.199.58.058 1.172.187 1.738.325.566.137 1.107.286 1.618.446.686.198 1.326.478 1.903.733a38.87 38.87 0 0 1 1.573.743l3.015 1.575 1.587.966-.047-1.813-1.66-1.007-2.144-1.175-.781-.425-.851-.383a34.665 34.665 0 0 0-1.989-.792c-1.726-.565-3.956-1.046-6.185-1.095.26-.202.585-.435.981-.689.397-.255.86-.54 1.44-.775a24.09 24.09 0 0 1 1.963-.751c.727-.27 1.603-.4 2.533-.572.442-.067.91-.143 1.413-.15.504 0 1.028.021 1.558.065.53.05 1.063.099 1.592.215.529.129 1.05.282 1.547.457l.406.144L8.86.158C7.748-.19 6.559-.475 5.407-.516 4.249-.594 3.109-.59 2.118-.402A32.97 32.97 0 0 0 0 0" style="fill:#e22739;fill-opacity:1;fill-rule:nonzero;stroke:none" transform="translate(236.432 116.044)"/><path d="m0 0 .047 1.841c.584-.163 1.159-.128 2.286-.338L1.314.808.726.413C.512.279.279.154 0 0" style="fill:#fcd213;fill-opacity:1;fill-rule:nonzero;stroke:none" transform="translate(245.562 126.752)"/><path d="M0 0c.316.198.641.371.973.52.328.162.647.347.98.487.331.145.666.27 1.004.377.339.103.682.188.998.317a13.09 13.09 0 0 0 1.91.504c.596.16 1.142.315 1.639.407A33.731 33.731 0 0 1 6.539.937 50.476 50.476 0 0 1 5.453-.83a34.682 34.682 0 0 0-.714-1.168c-.256-.382-.542-.727-.84-1.104-.603-.725-1.274-1.562-2.112-2.325C.948-6.169-.03-7.01-1.228-7.852c-.6-.387-1.255-.79-1.974-1.21-.723-.415-1.494-.887-2.397-1.246l.177 6.933.591.335c1.164.775 2.021 1.334 2.775 1.76.38.201.722.429 1.056.648L0 0" style="fill:#fcd213;fill-opacity:1;fill-rule:nonzero;stroke:none" transform="translate(250.937 128.314)"/><path d="M0 0c-1.459-1.31-2.923-2.023-4.082-2.58-.575-.291-1.129-.434-1.602-.564a13.66 13.66 0 0 0-1.22-.268C-5.316-1.729-4.17.308-3.423 1.965c.557 1.492.945 2.69 1.171 3.798.336 1.813.651 3.185.754 4.321l5.22-4.567-.146-.413c-.326-1.04-.924-1.968-1.535-2.865-.315-.437-.622-.884-.975-1.249A15.672 15.672 0 0 0 0 0" style="fill:#fcd213;fill-opacity:1;fill-rule:nonzero;stroke:none" transform="translate(269.405 123.93)"/><path d="M0 0c-.222-.49-.475-.997-.756-1.515l-.443-.782c-.157-.258-.336-.487-.512-.732-.358-.484-.74-.968-1.142-1.445-.402-.478-.82-.957-1.276-1.341-.902-.795-1.842-1.584-2.775-2.142-.938-.529-1.848-.938-2.646-1.176a7.042 7.042 0 0 0-1.273-.286 22.674 22.674 0 0 0-1.181-.152 19.968 19.968 0 0 0-2.061-.106 16.957 16.957 0 0 0-2.884.48 29.893 29.893 0 0 1 6.381 4.412c.807.789 1.52 1.554 2.172 2.317.64.8 1.194 1.674 1.715 2.525l.505.821.461.848c.304.549.603 1.061.901 1.53.312.446.558.955.832 1.374.269.427.542.805.825 1.131.468.609.918 1.192 1.398 1.653.248.222.452.475.655.701A11.672 11.672 0 0 0 .027 9.206c.165.138.28.287.394.391.218.218.354.334.354.334l1.386-1.212-.062-.524c-.038-.33-.088-.801-.206-1.293l-.347-1.666-.178-.872-.201-.769a35.489 35.489 0 0 0-.456-1.683L.41.961C.29.646.149.333 0 0" style="fill:#fcd213;fill-opacity:1;fill-rule:nonzero;stroke:none" transform="translate(264.38 126.49)"/><path d="m0 0 .012.008L0 0Z" style="fill:#231f20;fill-opacity:1;fill-rule:nonzero;stroke:none" transform="translate(268.71 121.275)"/><path d="m0 0-.012-.008a26.944 26.944 0 0 0-2.82-1.545c-.854-.383-1.649-.57-2.315-.74a12.627 12.627 0 0 0-1.704-.286 6.877 6.877 0 0 0-1.12.045l-.054.007c-.892-.716-1.823-1.426-2.758-1.918a15.861 15.861 0 0 0-2.712-1.087c-.64-.204-1.263-.284-1.863-.363a25.754 25.754 0 0 0-1.728-.164c-1.104-.101-2.08.015-2.928.132-.847.118-1.56.266-2.127.408-.561.131-1.02.337-1.289.438l.046 1.804c.903.359 1.674.832 2.397 1.246.72.421 1.374.824 1.974 1.211 1.199.841 2.176 1.682 3.016 2.424.837.763 1.508 1.6 2.112 2.325.298.378.583.722.839 1.105.252.394.489.781.715 1.167.368.629.732 1.216 1.086 1.767.327.605.648 1.165.964 1.675-.497-.092-1.043-.246-1.638-.407a12.975 12.975 0 0 1-1.911-.504c-.315-.129-.658-.213-.997-.317a9.757 9.757 0 0 1-1.004-.377c-.333-.139-.653-.324-.981-.487a7.783 7.783 0 0 1-.972-.52l-1-.631c-.334-.219-.676-.448-1.056-.648-.754-.426-1.611-.986-2.776-1.76l-.59-.336.046 1.813c.279.155.512.279.727.414l.587.394 1.019.695c-1.126.21-1.702.175-2.286.338l.043 1.679c.223-.038.446-.109.727-.132.28-.025.584-.057.915-.105.33-.047.689-.11 1.08-.196.391-.089.817-.209 1.262-.283l.209-.043.396.266c1.316.788 2.62 1.445 3.94 1.78.997.392 2.069.499 2.921.761.441.103.863.179 1.246.235.385.054.685.163.956.208l.33.069c.135.203.272.393.411.569.129.169.264.313.379.471.11.164.218.317.325.461.214.286.423.534.631.753.439.41.765.833 1.134 1.166.292.289.624.535.861.775.23.245.421.428.517.5l1.264-1.106s-.136-.116-.354-.333c-.114-.105-.229-.254-.394-.392a11.795 11.795 0 0 1-1.131-1.091c-.203-.226-.407-.479-.655-.701-.48-.461-.93-1.044-1.398-1.653a9.222 9.222 0 0 1-.825-1.131c-.274-.419-.521-.928-.832-1.374a29.645 29.645 0 0 1-.901-1.53l-.461-.848-.505-.821c-.521-.85-1.075-1.725-1.715-2.524A35.02 35.02 0 0 0-14.909.422 29.893 29.893 0 0 0-21.29-3.99a16.957 16.957 0 0 1 2.884-.48c.619-.001 1.307.029 2.061.106.378.039.771.089 1.181.153.41.056.835.141 1.273.285.798.238 1.707.648 2.645 1.176.934.558 1.874 1.347 2.776 2.142.456.384.874.863 1.276 1.341.402.477.784.961 1.142 1.445.176.245.355.474.512.732l.443.783c.281.517.534 1.024.756 1.514.149.333.29.646.41.961l.301.952c.182.608.329 1.167.456 1.682l.201.77a511.243 511.243 0 0 0 .525 2.537c.118.492.168.963.206 1.293l.062.524 1.365-1.195c-.102-1.135-.417-2.507-.754-4.321-.226-1.107-.613-2.305-1.171-3.797C-3.487 2.955-4.632.919-6.22-.764c.337.057.744.142 1.219.268.474.13 1.028.272 1.603.564C-2.24.624-.775 1.338.683 2.647c.351.295.71.628 1.067.99.353.366.659.812.975 1.25.611.896 1.209 1.824 1.535 2.865l.145.413 1.359-1.188c-.223-.549-.45-1.121-.752-1.636a21.293 21.293 0 0 0-.988-1.487 19.073 19.073 0 0 0-1.083-1.369c-.398-.398-.801-.77-1.198-1.109C1.14.868.571.39 0 0" style="fill:#e22739;fill-opacity:1;fill-rule:nonzero;stroke:none" transform="translate(268.722 121.283)"/><path d="m0 0-1.386 1.212c.445.393.875.709 1.645 1.451-.022-.409-.01-.788-.05-1.19A28.967 28.967 0 0 0 0 0" style="fill:#fcd213;fill-opacity:1;fill-rule:nonzero;stroke:none" transform="translate(266.542 135.208)"/><path d="M0 0c.022.362.085.706.143 1.057a9.082 9.082 0 0 0 .479 2.068c.116.328.184.677.301 1 .108.327.229.645.359.952l.2.452.16.454c.219.591.462 1.131.694 1.596.385-1.132 1.028-2.423 1.531-3.737.17-.409.336-.828.498-1.262.165-.435.327-.886.431-1.338.229-.913.468-1.929.617-3.075.194-2.244.289-5.133-.814-8.913L-.621-6.18l.103.676c.092.664.17 1.226.191 1.768.038.528.08.985.129 1.402C-.071-1.522-.068-.761 0 0" style="fill:#fcd213;fill-opacity:1;fill-rule:nonzero;stroke:none" transform="translate(268.528 140.194)"/><path d="M0 0a29.745 29.745 0 0 0-.084-2.558 22.154 22.154 0 0 0-.403-2.069c-.153-.607-.299-1.134-.468-1.581-.19-.446-.371-.814-.531-1.112-.12.561-.215 1.108-.392 1.646a33.28 33.28 0 0 1-.552 1.56c-.383 1.001-.773 1.913-1.269 2.715C-4.493-.063-5.161.983-5.9 1.865c-.576.709-1.043 1.356-1.518 1.93l-1.234 1.506 6.884.845.199-.371c.485-.909.918-1.917 1.149-2.913C-.162 1.866.018.88 0 0" style="fill:#fcd213;fill-opacity:1;fill-rule:nonzero;stroke:none" transform="translate(283.106 152.142)"/><path d="M0 0c.487-.943.956-2.017 1.372-3.166.354-1.14.609-2.351.808-3.565a22.04 22.04 0 0 0 .083-3.491 11.531 11.531 0 0 0-.633-2.856c-.293-.88-.736-1.619-1.133-2.292-.413-.664-.785-1.266-1.209-1.751a17.542 17.542 0 0 0-2.209-2.097c.148.801.27 1.554.37 2.264.105.707.187 1.373.187 2.042.018.658.021 1.28.011 1.873l-.023.868c-.024.289-.064.577-.099.856-.159 1.122-.301 2.131-.581 3.124a31.501 31.501 0 0 1-1 2.869 54.773 54.773 0 0 0-1.469 3.446c-.486 1.079-.762 2.046-.99 2.941a12.571 12.571 0 0 0-.386 2.251 14.802 14.802 0 0 0-.197 1.944c-.034.566-.079 1.029-.079 1.361-.006.329.004.52.004.52l1.827.224 1.184-1.459c.649-.843 1.429-1.939 2.068-2.75C-1.47 2.3-.744 1.282 0 0" style="fill:#fcd213;fill-opacity:1;fill-rule:nonzero;stroke:none" transform="translate(278 149.857)"/><path d="m0 0 .001.014L0 0Z" style="fill:#231f20;fill-opacity:1;fill-rule:nonzero;stroke:none" transform="translate(284.734 150.042)"/><path d="m0 0-.001-.014C-.374-4.667-2.04-6.875-2.696-7.666l-.038-.038a23.037 23.037 0 0 0-.095-3.343c-.142-1.057-.437-2.024-.749-2.864-1.019-2.509-2.448-4.41-3.751-5.658-1.233-1.306-2.421-1.92-2.92-2.228l-1.358 1.189c1.103 3.78 1.008 6.669.814 8.913-.15 1.146-.388 2.162-.617 3.075-.105.452-.267.903-.431 1.338-.163.434-.329.852-.499 1.261-.503 1.315-1.146 2.606-1.531 3.738a16.375 16.375 0 0 1-.694-1.597l-.159-.453-.201-.453c-.13-.307-.251-.624-.359-.951-.116-.323-.185-.672-.301-1a9.436 9.436 0 0 1-.298-1.008 8.7 8.7 0 0 1-.181-1.061c-.057-.351-.121-.694-.142-1.056-.068-.762-.072-1.523-.199-2.334-.048-.418-.09-.874-.128-1.402-.021-.542-.1-1.105-.191-1.768l-.104-.676-1.365 1.194c.105.626.162 1.077.21 1.474.039.401.028.78.049 1.189-.77-.741-1.2-1.058-1.645-1.45l-1.264 1.105.541.457c.195.167.431.33.637.553.424.433 1.019.863 1.711 1.411l.154.132.016.459c.027.745.183 1.418.277 2.132.109.702.383 1.319.55 1.984.164.517.366 1.01.59 1.478.173.487.357.953.557 1.382.436.847.714 1.619.981 2.132l.157.321a9.19 9.19 0 0 0-.178.709 11.547 11.547 0 0 0-.49 2.267c-.086.654-.164 1.241-.169 1.792-.025.913-.112 1.792-.066 2.058l1.667.205s-.01-.191-.004-.52c-.001-.332.045-.795.078-1.361.021-.568.077-1.229.198-1.944.056-.706.175-1.466.385-2.251.229-.895.505-1.862.99-2.941.41-1.061.895-2.212 1.47-3.446.372-.923.703-1.87 1-2.869.28-.993.422-2.001.581-3.124.035-.279.074-.567.098-.856l.024-.868c.009-.593.006-1.215-.012-1.873.001-.669-.081-1.335-.186-2.042a55.274 55.274 0 0 0-.37-2.264c.582.464 1.348 1.13 2.209 2.097.424.485.795 1.087 1.209 1.751.397.673.84 1.412 1.133 2.292.282.794.539 1.767.633 2.856.054 1.101.05 2.292-.084 3.491-.199 1.214-.453 2.425-.807 3.565A27.15 27.15 0 0 1-6.735-.199c-.745 1.282-1.471 2.3-2.094 3.156-.639.811-1.42 1.908-2.069 2.75l-1.183 1.459 1.801.221 1.233-1.506c.476-.573.943-1.221 1.519-1.93.738-.881 1.407-1.928 2.201-3.264.495-.801.886-1.714 1.268-2.715.192-.5.377-1.022.553-1.56.177-.538.272-1.085.392-1.646.16.298.341.666.531 1.112.169.447.315.974.467 1.581.147.608.293 1.297.404 2.069.06.771.092 1.625.084 2.558.018.88-.162 1.866-.42 2.862-.232.996-.664 2.004-1.15 2.913l-.199.371 1.792.22C-.568 6.411-.008 4.091.028 2.108.042 1.36.03.658 0 0" style="fill:#e22739;fill-opacity:1;fill-rule:nonzero;stroke:none" transform="translate(284.735 150.056)"/><path d="m0 0-1.828-.224c.06.639-.058 1.172.027 2.308C-1.262 1.452-.781 1.031 0 0" style="fill:#fcd213;fill-opacity:1;fill-rule:nonzero;stroke:none" transform="translate(272.654 157.222)"/><path d="M0 0c-.25.275-.476.563-.68.862-.216.295-.438.589-.625.897-.195.305-.353.626-.526.938-.182.308-.347.622-.496.938-.276.642-.591 1.246-.824 1.843-.219.604-.474 1.14-.65 1.631 1.161-.497 2.383-1.044 3.765-1.578.804-.35 1.637-.728 2.492-1.192.807-.484 1.711-1.024 2.61-1.725.883-.708 1.884-1.536 2.852-2.611.5-.533 1.039-1.118 1.529-1.78.493-.66 1.074-1.382 1.57-2.19l-6.883-.845-.209.274c-.1.137-.22.268-.22.268-.942 1.036-1.538 1.804-2.143 2.455C.991-1.158.557-.582 0 0" style="fill:#fcd213;fill-opacity:1;fill-rule:nonzero;stroke:none" transform="translate(270.32 162.255)"/><path d="M0 0a29.328 29.328 0 0 0 1.694-1.892c.465-.617.844-1.205 1.166-1.734.33-.523.564-1.023.747-1.465.186-.44.323-.821.424-1.138-.968.614-1.919 1.184-2.916 1.603-.975.439-1.905.802-2.805 1.038-.742.206-1.409.385-2.054.508-.649.118-1.247.211-1.799.29-.877.14-1.713.229-2.443.33-.732.098-1.363.202-1.937.256l4.428 5.338.401-.118c.967-.308 1.921-.771 2.813-1.273C-1.422 1.195-.63.595 0 0" style="fill:#fcd213;fill-opacity:1;fill-rule:nonzero;stroke:none" transform="translate(272.23 181.076)"/><path d="M0 0c2.037-.636 4.371-1.739 6.255-3.246 1.937-1.462 3.422-3.283 4.11-4.793.408-.819.62-1.633.841-2.364.222-.733.326-1.42.39-2.044.069-.622.098-1.18.106-1.672a17.616 17.616 0 0 0-.105-1.289c-.876 1.278-1.859 2.338-2.704 3.278-.932.917-1.771 1.716-2.66 2.393C4.465-8.381 2.753-7.398.841-6.648c-2.453 1.009-4.708 1.85-6.242 2.855-1.366.869-2.516 1.86-3.383 2.632-.434.383-.774.726-1.007.973l-.382.379 1.176 1.417.547-.064 1.33-.203c1.085-.143 2.39-.404 3.41-.549A17.317 17.317 0 0 0-1.985.488 32.62 32.62 0 0 0 0 0" style="fill:#fcd213;fill-opacity:1;fill-rule:nonzero;stroke:none" transform="translate(270.146 175.868)"/><path d="m0 0-.009.01L0 0Z" style="fill:#231f20;fill-opacity:1;fill-rule:nonzero;stroke:none" transform="translate(274.835 180.71)"/><path d="m0 0 .009-.01C1.49-1.762 2.335-3.349 2.8-4.603c.502-1.23.57-2.177.608-2.706l.001-.052c1.752-1.474 3.092-3.273 3.799-4.883.289-.599.485-1.207.665-1.791.179-.585.332-1.151.457-1.693.191-1.097.297-2.094.335-2.961-.022-1.747-.186-2.961-.362-3.522l-1.791-.22c-.496.808-1.078 1.53-1.571 2.19-.489.662-1.028 1.246-1.528 1.78-.968 1.075-1.969 1.903-2.853 2.61-.898.702-1.802 1.242-2.61 1.726a31.28 31.28 0 0 1-2.491 1.192c-1.382.533-2.605 1.081-3.765 1.578.175-.492.431-1.027.65-1.632.233-.596.548-1.2.824-1.842.149-.316.314-.63.496-.938.173-.312.331-.633.526-.938.187-.308.409-.603.625-.897.204-.299.43-.587.68-.862.557-.582.991-1.158 1.561-1.815.605-.652 1.202-1.419 2.144-2.455 0 0 .119-.131.219-.268l.209-.274-1.8-.221c-.782 1.031-1.262 1.452-1.801 2.084-.085-1.136.033-1.669-.027-2.308l-1.667-.205c.021.939-.043 2.165.13 3.994l.024.214c-.097.121-.22.232-.323.345-.547.552-.927 1.167-1.367 1.753a8.639 8.639 0 0 0-.551.915c-.164.311-.356.607-.5.92-.961 1.972-1.619 4.026-2.043 5.116l-.118.34c-.226.124-.435.254-.639.382a16.734 16.734 0 0 0-3.338 2.502c-.699.622-1.338 1.296-1.533 1.491l1.072 1.293.382-.379c.233-.247.573-.59 1.008-.973.867-.772 2.016-1.763 3.382-2.632 1.534-1.005 3.789-1.846 6.243-2.855 1.912-.75 3.623-1.732 5.391-3.088.889-.678 1.728-1.477 2.66-2.394.845-.939 1.828-1.999 2.704-3.277.043.364.083.793.105 1.289a17.387 17.387 0 0 1-.106 1.671 10.718 10.718 0 0 1-.39 2.045c-.221.731-.433 1.544-.84 2.363-.689 1.51-2.174 3.331-4.111 4.793C-.309-6.59-2.643-5.488-4.68-4.852c-.709.202-1.374.356-1.984.489a17.7 17.7 0 0 1-1.725.303c-1.021.145-2.326.407-3.411.55l-1.33.202-.547.064 1.158 1.396c.574-.053 1.204-.158 1.937-.256.73-.1 1.565-.189 2.443-.33a48.111 48.111 0 0 0 1.799-.289c.644-.124 1.311-.303 2.054-.508.899-.237 1.829-.6 2.805-1.038.997-.419 1.948-.99 2.916-1.604-.101.318-.239.698-.425 1.138a9.5 9.5 0 0 1-.746 1.466A21.125 21.125 0 0 1-.902-1.535 29.63 29.63 0 0 1-2.596.357c-.63.595-1.422 1.194-2.281 1.743-.893.502-1.846.965-2.814 1.273l-.4.118 1.152 1.389c1.066-.337 2.064-.881 3.021-1.432a18.308 18.308 0 0 0 2.494-1.921C-.902 1.002-.429.491 0 0" style="fill:#e22739;fill-opacity:1;fill-rule:nonzero;stroke:none" transform="translate(274.826 180.72)"/><path d="m0 0-1.176-1.417-.692.734c-.251.277-.547.599-.949 1.033A32.021 32.021 0 0 0 0 0" style="fill:#fcd213;fill-opacity:1;fill-rule:nonzero;stroke:none" transform="translate(261.149 177.476)"/><path d="M0 0c-1.548.251-3.039.865-4.408 1.571-.668.375-1.342.718-1.93 1.101-.587.384-1.136.737-1.602 1.059 1.337.18 2.725.384 4.208.742.892.19 1.796.358 2.77.509.972.146 1.983.221 3.138.287 2.275.057 5.047-.007 8.721-.866L6.469-.936l-.699.098A85.507 85.507 0 0 0 0 0" style="fill:#fcd213;fill-opacity:1;fill-rule:nonzero;stroke:none" transform="translate(255.838 179.807)"/><path d="M0 0c1.668-.427 2.979-1.044 4.006-1.555a14.435 14.435 0 0 0 2.217-1.489 31.242 31.242 0 0 1-3.161-.286 34.851 34.851 0 0 1-2.846-.577 49.71 49.71 0 0 1-3.713-1.17c-1.705-.642-3.129-1.05-4.234-1.417L-5.986.218l.395.065C-3.665.581-1.559.443 0 0" style="fill:#fcd213;fill-opacity:1;fill-rule:nonzero;stroke:none" transform="translate(246.787 196.525)"/><path d="M0 0c1.036.261 2.171.492 3.324.608.58.065 1.168.116 1.758.152.586.027 1.167.02 1.745.007C7.402.75 7.973.727 8.521.668 9.066.601 9.593.518 10.094.42c1.007-.184 1.889-.48 2.584-.831 1.541-.736 2.689-1.645 3.585-2.413a16.02 16.02 0 0 0 1.89-2.127c-3.015.529-5.415.701-7.619.618a43.994 43.994 0 0 1-1.598-.078 32.949 32.949 0 0 1-1.551-.175 27.839 27.839 0 0 1-3.026-.545 36.7 36.7 0 0 0-1.944-.396 26.209 26.209 0 0 0-1.863-.306c-1.187-.132-2.323-.235-3.307-.15-1.743.108-3.357.495-4.57.822-1.198.354-1.988.651-1.988.651l.463 1.782a147.82 147.82 0 0 0 1.879.561A90.98 90.98 0 0 1-3.616-1.12C-2.59-.765-1.395-.337 0 0" style="fill:#fcd213;fill-opacity:1;fill-rule:nonzero;stroke:none" transform="translate(247.45 191.004)"/><path d="m0 0-.012.004L0 0Z" style="fill:#231f20;fill-opacity:1;fill-rule:nonzero;stroke:none" transform="translate(249.095 197.553)"/><path d="m0 0 .012-.004C.996-.37 1.847-.736 2.57-1.121c.721-.399 1.32-.789 1.814-1.152a8.317 8.317 0 0 0 1.84-1.808l.028-.04a15.839 15.839 0 0 0 3.043-.466 10.643 10.643 0 0 0 2.53-.919 16.939 16.939 0 0 0 2.87-1.823c.833-.615 1.509-1.297 2.076-1.895.283-.301.538-.588.762-.857.219-.283.41-.545.575-.783.33-.475.557-.852.695-1.095l-1.152-1.389c-3.673.86-6.445.924-8.72.866-1.155-.065-2.166-.14-3.138-.287a49.729 49.729 0 0 1-2.77-.508c-1.483-.358-2.872-.563-4.208-.742.465-.322 1.015-.675 1.602-1.06.588-.383 1.262-.725 1.93-1.101 1.368-.706 2.86-1.319 4.408-1.57a84.815 84.815 0 0 1 5.769-.838l.7-.098-1.158-1.396a31.731 31.731 0 0 1-2.817.35c.402-.434.698-.756.948-1.033l.693-.734-1.072-1.293c-.34.356-.735.776-1.202 1.293-.494.493-1.001 1.137-1.616 1.909l-.143.178-.499.076c-.406.063-.796.156-1.189.257-.4.092-.791.204-1.171.335-.75.275-1.499.575-2.195.935-.549.299-1.091.6-1.609.901-.517.302-.984.639-1.439.929-.91.578-1.635 1.175-2.154 1.548l-.317.238c-.284-.004-.56.001-.827.015-1 .065-1.857.133-2.594.276-.734.146-1.379.305-1.983.477-.498.145-.989.303-1.39.442a9.061 9.061 0 0 0-.859.294l.423 1.625s.79-.297 1.988-.652c1.213-.326 2.827-.713 4.57-.821.984-.085 2.12.018 3.307.149.598.075 1.221.179 1.862.307.632.111 1.281.241 1.944.396a27.9 27.9 0 0 0 3.027.545c.508.066 1.027.132 1.551.175.518.035 1.049.06 1.598.078 2.204.083 4.604-.09 7.619-.618a16.04 16.04 0 0 1-1.891 2.127c-.895.767-2.044 1.676-3.584 2.412-.695.352-1.577.648-2.584.831-.501.099-1.029.182-1.573.249-.548.059-1.119.082-1.695.099a26.06 26.06 0 0 1-1.745-.007 34.847 34.847 0 0 1-1.757-.153c-1.153-.115-2.288-.346-3.324-.607-1.395-.337-2.59-.765-3.617-1.12a87.966 87.966 0 0 0-3.355-1.047 54.207 54.207 0 0 1-1.336-.396l-.542-.165.456 1.756c1.105.367 2.53.775 4.234 1.417a49.6 49.6 0 0 0 3.714 1.17 35.18 35.18 0 0 0 2.845.576c1.016.153 2.08.235 3.161.287-.481.398-1.201.924-2.217 1.488C.683-2.076-.628-1.46-2.296-1.032c-1.559.443-3.665.58-5.59.283l-.395-.065.454 1.746c1.047.158 2.109.155 3.131.089 1.024-.055 2-.237 2.869-.466C-1.172.378-.561.217 0 0" style="fill:#e22739;fill-opacity:1;fill-rule:nonzero;stroke:none" transform="translate(249.083 197.558)"/><path d="m0 0-.463-1.782c-.652.263-1.234.476-2.381.98C-1.952-.533-1.338-.341 0 0" style="fill:#fcd213;fill-opacity:1;fill-rule:nonzero;stroke:none" transform="translate(238.6 188.276)"/><path d="M0 0c-3.2-.634-6.856.275-9.115.939.627.269 1.269.58 1.917.919.646.325 1.298.685 1.952 1.078.804.488 1.615.952 2.485 1.399.87.446 1.808.935 2.853 1.367A47.424 47.424 0 0 0 8.289 8.36L6.544 1.648l-.691-.199C4.496 1.045 3.463.742 2.555.532 1.651.33.861.179 0 0" style="fill:#fcd213;fill-opacity:1;fill-rule:nonzero;stroke:none" transform="translate(232.512 188.384)"/><path d="M0 0c3.36.036 5.522-.63 6.642-1.11-1.97-.718-3.861-1.681-5.382-2.588-1.272-.77-2.322-1.506-3.235-2.14a59.087 59.087 0 0 0-3.738-2.45v6.936l.36.155c.88.381 1.823.679 2.744.889C-1.688-.104-.788-.016 0 0" style="fill:#fcd213;fill-opacity:1;fill-rule:nonzero;stroke:none" transform="translate(218.608 201.453)"/><path d="M0 0c1.826 1.106 4.039 2.109 6.189 2.791 1.074.326 2.132.606 3.105.75.973.142 1.864.191 2.604.126 3.256-.34 5.307-1.388 6.462-2.076C12.704.092 9.327-1.44 5.717-3.588 3.37-4.993 1.042-6.093-.957-6.519c-.874-.169-1.742-.312-2.549-.366a34.445 34.445 0 0 0-2.201-.07c-1.285.007-2.141.13-2.141.13v1.841l1.697 1.008c.958.592 2.139 1.31 2.987 1.896C-2.267-1.45-1.236-.727 0 0" style="fill:#fcd213;fill-opacity:1;fill-rule:nonzero;stroke:none" transform="translate(220.742 196.335)"/><path d="m0 0-.012.001L0 0Z" style="fill:#231f20;fill-opacity:1;fill-rule:nonzero;stroke:none" transform="translate(220.484 203.08)"/><path d="m0 0 .012-.001a22.257 22.257 0 0 0 2.669-.325A15.288 15.288 0 0 0 4.673-.88c1.116-.389 1.821-.826 2.217-1.131l.038-.029c1.99.559 3.932.759 5.46.601 4.622-.518 7.562-2.52 8.396-3.152l-.454-1.746a47.41 47.41 0 0 1-8.198-2.658c-1.044-.432-1.983-.921-2.853-1.367a39.784 39.784 0 0 1-2.484-1.399 30.045 30.045 0 0 0-1.952-1.078c-.648-.339-1.29-.65-1.918-.919 2.26-.664 5.916-1.573 9.116-.939.861.179 1.65.33 2.555.532.908.21 1.941.513 3.298.917l.691.198-.457-1.755c-1.337-.341-1.952-.533-2.844-.802 1.147-.504 1.729-.717 2.381-.98l-.423-1.625c-.502.197-1.094.422-1.79.72-.704.282-1.505.65-2.422 1.175l-.215.114-.523-.114a15.226 15.226 0 0 0-5.118-.11c-2.652.349-5.06 1.175-6.316 1.625l-.387.14a12.445 12.445 0 0 0-.828-.22c-1.018-.226-1.889-.379-2.667-.45-.779-.073-1.463-.059-2.113-.06-1.074.014-2.136.085-2.44.142v1.679s.855-.123 2.141-.13c.643.003 1.393.015 2.2.07.807.054 1.676.197 2.55.366 1.999.426 4.327 1.526 6.673 2.931 3.611 2.148 6.988 3.68 12.643 5.179-1.155.688-3.206 1.736-6.461 2.076-.74.065-1.631.016-2.604-.126-.974-.144-2.032-.424-3.105-.749C4.309-4.636 2.097-5.639.27-6.746c-1.235-.727-2.266-1.45-3.164-2.08-.847-.585-2.029-1.304-2.986-1.895l-1.697-1.008v1.813c.983.59 2.268 1.408 3.738 2.45.913.634 1.963 1.37 3.235 2.14 1.521.907 3.412 1.87 5.383 2.588-1.121.48-3.283 1.146-6.643 1.11a13.451 13.451 0 0 1-2.609-.308 15.852 15.852 0 0 1-2.744-.889l-.36-.155v1.805C-5.667-.401-3.585.002-1.846.027-1.19.044-.576.043 0 0" style="fill:#e22739;fill-opacity:1;fill-rule:nonzero;stroke:none" transform="translate(220.472 203.08)"/><path d="M0 0v-1.841c-.731.096-1.382.113-2.673.352C-1.838-1.035-1.261-.673 0 0" style="fill:#fcd213;fill-opacity:1;fill-rule:nonzero;stroke:none" transform="translate(212.896 191.351)"/><path d="M0 0c-3.082-1.385-6.963-1.378-9.367-1.237a33.967 33.967 0 0 1 3.396 2.851C-4.587 2.909-3.16 4.181-1.283 5.55.596 6.934 2.92 8.412 6.181 10.129V3.194l-.642-.371C3.025 1.328 1.659.722 0 0" style="fill:#fcd213;fill-opacity:1;fill-rule:nonzero;stroke:none" transform="translate(206.715 189.971)"/><path d="M0 0c3.389.853 5.716.723 6.951.528C5.147-.66 3.47-2.011 2.168-3.292 1.075-4.333.206-5.316-.544-6.171-1.758-7.526-2.81-8.684-3.627-9.505L-5.43-2.808l.323.248A15.61 15.61 0 0 0-2.559-.972C-1.676-.55-.793-.218 0 0" style="fill:#fcd213;fill-opacity:1;fill-rule:nonzero;stroke:none" transform="translate(189.655 199.357)"/><path d="M0 0a29.948 29.948 0 0 0 5.538 4.181c.994.601 1.99 1.069 2.924 1.452.935.388 1.808.635 2.559.731 1.65.233 3.046.203 4.187.079 1.143-.11 2.032-.35 2.688-.55C12.712 3.065 9.665.791 6.563-2.129 4.546-4.059 2.48-5.654.611-6.568a24.146 24.146 0 0 0-4.558-1.588 17.32 17.32 0 0 0-2.113-.431l-.479 1.778 1.405 1.419c.787.831 1.788 1.79 2.481 2.593C-1.92-1.939-1.056-1.038 0 0" style="fill:#fcd213;fill-opacity:1;fill-rule:nonzero;stroke:none" transform="translate(193.039 194.91)"/><path d="m0 0-.012-.002L0 0Z" style="fill:#231f20;fill-opacity:1;fill-rule:nonzero;stroke:none" transform="translate(191.159 201.388)"/><path d="m0 0 .012.002a17.03 17.03 0 0 0 2.773.327C3.601.361 4.31.345 4.916.285 6.131.146 6.938-.109 7.404-.301l.045-.019c.93.521 1.866.903 2.762 1.23.897.326 1.755.535 2.531.624a19.76 19.76 0 0 0 5.898-.139c1.542-.294 2.614-.678 3.109-.876v-1.804c-3.261-1.718-5.585-3.196-7.464-4.58-1.877-1.369-3.304-2.64-4.687-3.935a33.7 33.7 0 0 0-3.396-2.851c2.404-.141 6.284-.149 9.367 1.236 1.659.722 3.024 1.329 5.538 2.823l.642.371v-1.814c-1.261-.672-1.838-1.035-2.673-1.488 1.291-.239 1.942-.256 2.673-.353v-1.679c-1.133.112-2.663.257-4.781.782l-.246.063-.502-.227c-1.642-.747-3.429-1.148-5.142-1.328-2.751-.248-5.33-.049-6.683.104l-.417.051a16.31 16.31 0 0 0-.763-.42c-1.898-.951-3.28-1.384-4.556-1.66-1.039-.266-2.081-.471-2.39-.495l-.437 1.622s.863.103 2.113.431c1.261.299 2.913.816 4.559 1.588 1.868.914 3.935 2.509 5.951 4.439 3.103 2.92 6.149 5.194 11.333 8.023-.655.199-1.544.439-2.687.549a16.753 16.753 0 0 1-4.187-.079c-.752-.096-1.625-.343-2.559-.731A21.036 21.036 0 0 1 7.43-2.295a30.015 30.015 0 0 1-5.538-4.181C.837-7.514-.028-8.415-.761-9.273c-.693-.803-1.694-1.762-2.481-2.593l-1.404-1.419-.472 1.751c.817.821 1.869 1.979 3.083 3.334.75.856 1.619 1.838 2.712 2.88 1.302 1.281 2.98 2.631 4.783 3.819-1.235.195-3.562.325-6.951-.528a15.643 15.643 0 0 1-2.559-.972 15.474 15.474 0 0 1-2.548-1.588l-.322-.247-.469 1.742c.868.629 1.807 1.19 2.749 1.645.943.434 1.888.78 2.764 1.029C-1.215-.244-.59-.113 0 0" style="fill:#e22739;fill-opacity:1;fill-rule:nonzero;stroke:none" transform="translate(191.146 201.386)"/><path d="m0 0 .479-1.778C-.239-1.86-.85-2.024-2.13-2.125-1.466-1.475-1.024-.964 0 0" style="fill:#fcd213;fill-opacity:1;fill-rule:nonzero;stroke:none" transform="translate(186.5 188.101)"/><path d="M0 0c-2.475-2.165-5.985-3.299-8.183-3.976.366.559.725 1.16 1.077 1.798.352.638.723 1.272 1.067 1.959a30.03 30.03 0 0 0 1.407 2.507 29.587 29.587 0 0 0 1.805 2.659c.35.465.724.952 1.134 1.457.415.489.862 1 1.351 1.539.972 1.096 2.128 2.207 3.504 3.482l1.803-6.697-.261-.256-.257-.264C2.447 2.103 1.335 1.164 0 0" style="fill:#fcd213;fill-opacity:1;fill-rule:nonzero;stroke:none" transform="translate(181.064 185.125)"/><path d="M0 0c1.472 1.101 2.79 1.867 3.908 2.336 1.107.503 2.002.743 2.642.863A24.06 24.06 0 0 1 4.704.493a22.275 22.275 0 0 1-1.385-2.656c-.643-1.384-1.043-2.663-1.391-3.733-.282-.862-.505-1.697-.738-2.403a41.858 41.858 0 0 1-.577-1.909l-4.609 5.182.189.385c.453.955 1.089 1.807 1.737 2.629C-1.41-1.213-.676-.548 0 0" style="fill:#fcd213;fill-opacity:1;fill-rule:nonzero;stroke:none" transform="translate(161.8 188.156)"/><path d="M0 0c.447 1.006 1.029 2.008 1.667 3.043.659.989 1.39 1.98 2.165 2.874 1.555 1.775 3.269 3.194 4.687 3.858 1.562.707 2.941 1.121 4.104 1.312 1.158.221 2.097.243 2.796.224-2.186-2.055-3.81-3.903-5.166-5.657A34.664 34.664 0 0 1 6.876.288C6.247-.935 5.622-2.121 4.972-3.145c-.622-1.067-1.296-1.944-1.93-2.71a14.536 14.536 0 0 0-.876-.919c-.292-.291-.569-.581-.854-.839a16.433 16.433 0 0 0-.833-.72 21.374 21.374 0 0 0-.737-.635 50.937 50.937 0 0 0-1.593-1.208L-3.074-8.8l.156.535c.09.342.246.793.423 1.314l.564 1.704c.208.57.411 1.14.567 1.64C-1.045-2.531-.601-1.366 0 0" style="fill:#fcd213;fill-opacity:1;fill-rule:nonzero;stroke:none" transform="translate(166.693 185.392)"/><path d="m0 0-.011-.007L0 0Z" style="fill:#231f20;fill-opacity:1;fill-rule:nonzero;stroke:none" transform="translate(162.497 190.673)"/><path d="m0 0 .011.007A16.757 16.757 0 0 0 2.617 1.42c.786.361 1.493.603 2.115.753 1.24.319 2.11.385 2.635.343l.051-.003c1.503 1.594 3.173 2.829 4.652 3.509a19.747 19.747 0 0 0 5.89 1.605c1.61.138 2.769.072 3.311-.001l.469-1.742c-1.376-1.275-2.532-2.386-3.504-3.482A63.845 63.845 0 0 1 16.885.863a51.633 51.633 0 0 1-1.134-1.457 29.587 29.587 0 0 1-1.805-2.659 30.03 30.03 0 0 1-1.407-2.507c-.344-.687-.715-1.321-1.067-1.959a28.292 28.292 0 0 0-1.076-1.798c2.197.677 5.707 1.811 8.182 3.976 1.335 1.164 2.448 2.103 4.447 4.208l.257.264.261.256.471-1.752c-1.023-.964-1.465-1.474-2.129-2.125 1.28.102 1.89.265 2.608.347l.437-1.621c-1.092-.169-2.553-.431-4.666-.489l-.247-.005-.403-.35a12.932 12.932 0 0 0-2.08-1.543 13.889 13.889 0 0 0-2.219-1.171c-2.38-1.066-4.736-1.674-5.975-1.997l-.386-.092-.511-.64c-.629-.777-1.224-1.344-1.731-1.861-.517-.505-1.032-.877-1.477-1.259a23.155 23.155 0 0 0-1.091-.83c-.311-.243-.551-.433-.671-.503l-1.116 1.255s.645.462 1.592 1.207c.234.19.479.405.738.635.271.219.55.459.833.72.284.259.561.548.853.84.297.285.591.591.876.918.635.766 1.309 1.644 1.93 2.71.651 1.024 1.276 2.21 1.904 3.433A34.664 34.664 0 0 0 14.46.38c1.356 1.754 2.98 3.602 5.166 5.657a12.775 12.775 0 0 1-2.796-.224c-1.163-.191-2.541-.605-4.104-1.312C11.308 3.837 9.594 2.418 8.04.643a28.532 28.532 0 0 1-2.165-2.874c-.638-1.034-1.221-2.036-1.668-3.043-.601-1.366-1.045-2.531-1.364-3.607-.156-.5-.358-1.07-.567-1.64l-.564-1.704c-.176-.521-.333-.972-.423-1.313l-.156-.535-1.205 1.355c.156.557.343 1.203.577 1.909.233.707.456 1.541.738 2.403.348 1.071.748 2.349 1.391 3.733a22.21 22.21 0 0 0 1.385 2.657A24.242 24.242 0 0 0 5.865.69C5.225.57 4.33.329 3.223-.174 2.105-.643.787-1.409-.685-2.51c-.676-.548-1.41-1.212-2.071-2.012-.647-.822-1.283-1.674-1.736-2.629l-.189-.384-1.2 1.348c1.069 2.04 2.684 3.794 4.206 5.002C-1.105-.72-.534-.356 0 0" style="fill:#e22739;fill-opacity:1;fill-rule:nonzero;stroke:none" transform="translate(162.486 190.666)"/><path d="m0 0 1.224-1.376-2.011-1.377.302 1.228c.118.42.267.884.485 1.525" style="fill:#fcd213;fill-opacity:1;fill-rule:nonzero;stroke:none" transform="translate(163.619 176.592)"/><path d="M0 0c-.394-1.496-1.127-2.838-1.849-4.087a13.602 13.602 0 0 0-.571-.898 333.58 333.58 0 0 1-.541-.852 17.157 17.157 0 0 0-.546-.771l-.474-.699-.171.963-.156.993c-.116.678-.273 1.401-.381 2.118-.144.885-.308 1.827-.335 2.79-.049.978-.071 2.043.048 3.192.185 2.34.755 5.134 2.226 8.722l4.609-5.182-.216-.682c-.209-.669-.367-1.267-.509-1.802a32.367 32.367 0 0 0-.427-1.418C.479 1.503.223.793 0 0" style="fill:#fcd213;fill-opacity:1;fill-rule:nonzero;stroke:none" transform="translate(160.554 171.659)"/><path d="M0 0c.191.948.368 1.817.628 2.579.264.761.534 1.435.797 2.023A15.071 15.071 0 0 0 2.98 7.117c.028-1.188.064-2.327.248-3.417.198-1.096.373-2.09.687-2.994.247-.752.494-1.426.736-2.038.256-.615.541-1.176.791-1.685l.574-1.172.563-1.06c.358-.667.635-1.248.919-1.75l-6.922.421-.073.205c-.037.103-.064.206-.064.206-.285 1.006-.52 2.1-.583 3.166C-.177-1.938-.18-.892 0 0" style="fill:#fcd213;fill-opacity:1;fill-rule:nonzero;stroke:none" transform="translate(143.64 162.352)"/><path d="M0 0c-.29 1.048-.584 2.243-.673 3.456-.055.61-.113 1.245-.115 1.87.009.619.037 1.245.084 1.866.035.627.134 1.225.25 1.806.113.583.244 1.15.391 1.689.345 1.039.737 1.979 1.184 2.695a24.643 24.643 0 0 0 1.526 2.037c.525.566 1.033 1.05 1.508 1.466.948.835 1.833 1.312 2.468 1.677-.264-.75-.5-1.46-.712-2.134-.205-.684-.361-1.361-.512-1.991-.318-1.248-.451-2.477-.584-3.577a28.493 28.493 0 0 1-.078-3.235c.083-1.061.17-2.059.374-3.082.492-2.669 1.027-5.04 1.041-6.881.064-.828-.017-1.594-.041-2.324-.015-.733-.136-1.386-.18-1.965a14.732 14.732 0 0 0-.188-1.386 8.374 8.374 0 0 1-.095-.527l-1.838.111s-.112.183-.259.482l-.618 1.211c-.536.978-1.029 2.209-1.521 3.154-.261.498-.466 1.028-.715 1.623C.47-1.369.183-.706 0 0" style="fill:#fcd213;fill-opacity:1;fill-rule:nonzero;stroke:none" transform="translate(149.14 163.673)"/><path d="m0 0-.003-.014L0 0Z" style="fill:#231f20;fill-opacity:1;fill-rule:nonzero;stroke:none" transform="translate(142.474 164.803)"/><path d="m0 0 .003.014c.33 1.154.728 2.146 1.102 2.997a19.84 19.84 0 0 0 1.233 2.096C3.141 6.234 3.872 6.845 4.3 7.181l.043.032c.15 1.165.456 2.264.78 3.302.382.994.812 1.913 1.289 2.669 1.499 2.228 3.175 3.818 4.612 4.802a13.635 13.635 0 0 0 3.111 1.704l1.199-1.349c-1.472-3.588-2.042-6.382-2.226-8.722-.119-1.149-.097-2.214-.048-3.192.027-.963.191-1.905.335-2.79.107-.717.265-1.44.381-2.118l.156-.994.171-.962.474.699c.181.241.364.499.545.771l.542.852c.198.287.39.586.571.898.722 1.249 1.455 2.591 1.849 4.087.223.793.478 1.503.706 2.387.14.424.28.886.427 1.417.143.536.301 1.134.51 1.803l.216.682 1.205-1.356a29.454 29.454 0 0 1-.485-1.525l-.301-1.228 2.01 1.377 1.116-1.254c-.404-.287-.916-.602-1.465-1.011-.567-.397-1.273-.813-2.091-1.307l-.194-.111-.137-.469c-.218-.764-.456-1.512-.789-2.186-.262-.713-.658-1.338-.999-1.963-.271-.503-.621-.951-.899-1.409a16.874 16.874 0 0 0-.886-1.265c-.512-.811-1.088-1.461-1.4-1.943l-.211-.292c.024-.258.04-.508.045-.749.054-.917.071-1.675.017-2.337a10.977 10.977 0 0 0-.178-1.8c-.077-.923-.256-1.823-.307-2.09l-1.677.102s.027.195.096.527c.062.334.137.81.188 1.387.044.578.164 1.232.179 1.964.025.731.105 1.497.042 2.325-.015 1.84-.549 4.212-1.042 6.88-.203 1.024-.29 2.022-.373 3.083a28.48 28.48 0 0 0 .078 3.234c.132 1.101.266 2.33.584 3.577.151.631.307 1.307.511 1.991.213.675.449 1.384.712 2.135-.634-.366-1.519-.842-2.468-1.677a20.644 20.644 0 0 1-1.507-1.466 24.643 24.643 0 0 1-1.526-2.037c-.448-.716-.839-1.656-1.185-2.695a24.379 24.379 0 0 1-.391-1.689 12.812 12.812 0 0 1-.249-1.807 31.512 31.512 0 0 1-.085-1.866c.002-.624.06-1.259.115-1.869.09-1.214.383-2.408.674-3.456.183-.706.47-1.369.697-1.959.248-.596.454-1.125.715-1.624.491-.944.985-2.175 1.52-3.154l.618-1.21c.147-.299.259-.482.259-.482l-1.81.11c-.285.502-.561 1.083-.919 1.749l-.563 1.06-.575 1.172c-.249.51-.535 1.07-.79 1.685-.242.613-.49 1.287-.736 2.038-.314.905-.49 1.899-.688 2.994-.183 1.091-.22 2.229-.248 3.418a15.165 15.165 0 0 1-1.554-2.516A25.363 25.363 0 0 1 1.798.142c-.26-.762-.436-1.631-.627-2.579-.18-.891-.178-1.937-.144-3.001.063-1.065.298-2.159.583-3.166 0 0 .026-.103.064-.206l.072-.204-1.801.109c-.319 1.116-.499 2.3-.585 3.457-.02 1.155-.001 2.293.181 3.306C-.32-1.377-.165-.664 0 0" style="fill:#e22739;fill-opacity:1;fill-rule:nonzero;stroke:none" transform="translate(142.47 164.79)"/><path d="m0 0 1.838-.112c-.109-.641-.204-1.221-.434-2.361C.919-1.729.635-1.197 0 0" style="fill:#fcd213;fill-opacity:1;fill-rule:nonzero;stroke:none" transform="translate(152.95 155.244)"/><path d="M0 0c.199-.328.372-.665.521-1.008.143-.345.272-.694.431-1.034.298-.683.468-1.4.658-2.085.219-.673.372-1.344.481-1.985.15-.621.295-1.192.378-1.708-.507.349-1.063.703-1.663 1.065-.549.386-1.133.782-1.759 1.183-.379.248-.782.5-1.15.779-.357.283-.719.582-1.089.902-.737.64-1.545 1.359-2.263 2.25C-6.2-.755-7.05.274-7.782 1.542A40.985 40.985 0 0 0-8.98 3.624c-.365.756-.743 1.58-1.134 2.487l6.923-.42.342-.632.9-1.624A29.494 29.494 0 0 0-.611 1.044C-.44.688-.203.352 0 0" style="fill:#fcd213;fill-opacity:1;fill-rule:nonzero;stroke:none" transform="translate(154.33 149.663)"/><path d="M0 0c-.596.796-1.158 1.524-1.549 2.248-.386.728-.701 1.4-.958 2.006-.127.304-.243.59-.34.862a19.01 19.01 0 0 0-.204.785c-.115.489-.191.907-.24 1.252.859-.823 1.71-1.587 2.672-2.194.463-.311.919-.599 1.36-.862a9.329 9.329 0 0 1 1.319-.689c1.484-.635 2.651-1.106 3.812-1.349l2.409-.598 1.946-.356-4.696-5.104-.413.17c-.506.208-1.015.45-1.516.716-.482.284-.928.619-1.37.953C1.353-1.486.543-.762 0 0" style="fill:#fcd213;fill-opacity:1;fill-rule:nonzero;stroke:none" transform="translate(149.565 130.95)"/><path d="M0 0c-.485.249-.987.529-1.498.839-.502.314-1.057.637-1.513 1.03-.477.384-.954.793-1.422 1.221-.471.428-.94.872-1.319 1.351-.398.474-.779.958-1.137 1.445-.362.486-.697.974-.939 1.466-.517.978-.925 1.921-1.143 2.746-.796 3.666-.25 6.22.159 7.627.669-1.443 1.411-2.697 2.059-3.803a41.33 41.33 0 0 1 2.167-2.93c.751-.857 1.534-1.61 2.288-2.304.364-.351.79-.669 1.212-.974.421-.307.844-.599 1.272-.881l.817-.548.842-.508a30.653 30.653 0 0 0 1.517-.992c.456-.332.969-.605 1.378-.91.426-.295.785-.605 1.125-.9.639-.485 1.182-1 1.64-1.514A12.96 12.96 0 0 0 8.822.135l.249-.299.249-.246c.155-.156.286-.296.392-.414.212-.235.324-.381.324-.381L8.789-2.56l-1.854.329-3.333.884a37.34 37.34 0 0 0-1.674.55C1.339-.572.633-.351 0 0" style="fill:#fcd213;fill-opacity:1;fill-rule:nonzero;stroke:none" transform="translate(152.23 135.95)"/><path d="m0 0 .008-.012L0 0Z" style="fill:#231f20;fill-opacity:1;fill-rule:nonzero;stroke:none" transform="translate(146.91 131.77)"/><path d="m0 0-.008.012c-.651 1.052-1.107 2.049-1.491 2.923a7.248 7.248 0 0 0-.436 1.26 18.88 18.88 0 0 0-.267 1.115c-.141.69-.214 1.27-.247 1.745-.012.481.031.862.067 1.14l.008.054c-.358.466-.699.944-1.019 1.425l-.461.724c-.14.243-.253.489-.371.732-.462.976-.825 1.934-1.054 2.811a27.596 27.596 0 0 0-.443 3.713c.025 1.132.118 2.147.242 3.022.1.878.343 1.599.515 2.178.183.577.349 1.003.462 1.272l1.801-.109c.39-.907.769-1.732 1.134-2.488.402-.759.815-1.449 1.198-2.082.731-1.268 1.582-2.297 2.327-3.183.717-.891 1.525-1.61 2.263-2.25.37-.32.732-.618 1.089-.901.368-.28.771-.532 1.149-.78a49.575 49.575 0 0 0 1.76-1.182 33.84 33.84 0 0 0 1.663-1.066c-.083.516-.228 1.087-.378 1.708a14.058 14.058 0 0 1-.482 1.986c-.189.685-.359 1.402-.657 2.085-.159.339-.289.688-.431 1.033-.15.344-.323.68-.521 1.008-.203.353-.44.689-.611 1.045-.178.355-.367.717-.585 1.107-.217.391-.462.81-.753 1.284l-.9 1.623-.342.632 1.81-.11c.636-1.197.919-1.729 1.405-2.473.229 1.14.324 1.72.433 2.361l1.676-.102c-.083-.478-.165-1.043-.318-1.717-.116-.669-.248-1.435-.537-2.362l-.065-.215c.071-.142.176-.278.257-.414.432-.67.744-1.364 1.008-2.057.32-.675.549-1.361.693-2.052.377-1.047.478-2.152.723-3.049.095-.461.164-.9.214-1.299.081-.38.157-.711.205-.989l.061-.345c.201-.15.388-.301.562-.454.688-.55 1.269-.985 1.685-1.449.444-.44.854-.8 1.174-1.201.137-.162.27-.327.394-.487l.399-.4a5.63 5.63 0 0 0 .484-.558l-1.137-1.236s-.112.145-.324.381a11.389 11.389 0 0 1-.641.66l-.249.299c-.353.413-.793.867-1.316 1.326a11.66 11.66 0 0 1-1.641 1.514c-.34.294-.699.604-1.125.9-.409.305-.922.578-1.378.91a29.96 29.96 0 0 1-1.517.991l-.841.509-.817.548c-.428.281-.852.574-1.272.881-.423.305-.848.623-1.213.974-.753.694-1.537 1.446-2.288 2.304a41.41 41.41 0 0 0-2.167 2.93c-.648 1.106-1.39 2.36-2.059 3.803-.408-1.408-.955-3.961-.158-7.627.217-.825.625-1.768 1.142-2.746.243-.492.578-.981.94-1.466.357-.487.738-.971 1.136-1.445.379-.479.848-.924 1.319-1.351.469-.428.946-.837 1.422-1.221.456-.393 1.011-.717 1.513-1.03.511-.31 1.013-.59 1.498-.839.633-.351 1.339-.572 1.929-.797a36.91 36.91 0 0 1 1.673-.55l3.333-.884 1.855-.329L12.872.298l-1.945.355-2.409.599c-1.162.243-2.329.713-3.812 1.349a9.394 9.394 0 0 0-1.32.689 30.02 30.02 0 0 0-1.359.862C1.065 4.759.214 5.523-.645 6.346c.049-.346.125-.763.24-1.252.058-.244.125-.506.204-.785.097-.272.213-.558.34-.862.257-.606.572-1.278.958-2.006.391-.724.952-1.452 1.549-2.248.542-.762 1.353-1.486 2.232-2.16.442-.335.888-.669 1.37-.953.501-.266 1.01-.508 1.516-.716l.413-.17-1.222-1.328c-1.107.499-2.23 1.105-3.144 1.89-.939.761-1.842 1.55-2.467 2.413A34.925 34.925 0 0 0 0 0" style="fill:#e22739;fill-opacity:1;fill-rule:nonzero;stroke:none" transform="translate(146.919 131.758)"/><path d="m0 0 1.247 1.355c.184-.243.358-.477.585-.74.243-.245.519-.539.868-.968C1.883-.261 1.217-.307 0 0" style="fill:#fcd213;fill-opacity:1;fill-rule:nonzero;stroke:none" transform="translate(161.02 133.391)"/><path d="M0 0c.35-.058.728-.082 1.093-.134a8.617 8.617 0 0 0 1.064-.225c.672-.227 1.393-.375 2.05-.621.331-.12.652-.253.962-.394.322-.115.642-.217.943-.337a20.373 20.373 0 0 0 1.634-.73 34.709 34.709 0 0 1-1.837-.685c-.638-.25-1.325-.585-1.99-.816a34.394 34.394 0 0 0-2.66-.899c-.939-.231-1.95-.39-3.133-.534-.601-.09-1.193-.076-1.851-.074-.655.007-1.36.031-2.126.08-.75.071-1.523.224-2.386.384l-1.341.281c-.448.124-.901.276-1.381.434L-6.263.834l.675-.142c.325-.071.65-.109.959-.137l.851-.098c.529-.065.985-.132 1.402-.202A85.881 85.881 0 0 0 0 0" style="fill:#fcd213;fill-opacity:1;fill-rule:nonzero;stroke:none" transform="translate(166.054 131.223)"/><path d="M0 0a30.595 30.595 0 0 0-2.602.091c-.787.089-1.494.263-2.115.41-1.243.307-2.152.637-2.761 1.001l.851.161c.282.068.561.159.836.241a33.773 33.773 0 0 1 3.059 1.112c.464.205.903.461 1.312.687.684.388 1.295.762 1.848 1.118l.79.519c.251.183.489.373.716.549.73.582 1.387 1.063 1.965 1.534l1.506 1.281 1.031-6.859-.386-.212c-.472-.259-.972-.5-1.485-.719C4.053.691 3.519.564 2.991.419a19.845 19.845 0 0 0-1.57-.331A11.36 11.36 0 0 0 0 0" style="fill:#fcd213;fill-opacity:1;fill-rule:nonzero;stroke:none" transform="translate(178.302 116.536)"/><path d="M0 0a27.045 27.045 0 0 0-3.241-1.342c-.59-.224-1.188-.343-1.799-.468a30.861 30.861 0 0 0-1.853-.312c-.31-.041-.621-.085-.928-.109l-.906-.008c-.599.006-1.186.032-1.749.079-1.138.056-2.126.364-2.937.683-1.801.659-3.107 1.666-4.143 2.471-.527.393-.908.87-1.26 1.254a18.1 18.1 0 0 0-.857 1.063 54.818 54.818 0 0 1 2.283-.489c.713-.142 1.443-.167 2.102-.228.668-.048 1.298-.08 1.899-.097.615.013 1.214.066 1.781.115 1.137.104 2.167.228 3.2.531.509.135 1.004.278 1.489.431.487.157.955.298 1.443.531.631.28 1.242.54 1.828.774.587.233 1.144.424 1.704.674a18.35 18.35 0 0 0 1.584.575c.504.153.979.256 1.45.394a13.71 13.71 0 0 0 2.344.378c.714.099 1.346.184 1.904.201.554.019 1.013.101 1.339.103.325.015.514.01.514.01l.273-1.821-1.44-1.227c-.42-.338-.904-.676-1.388-1.043-.486-.35-.969-.756-1.389-1.03A41.354 41.354 0 0 0 0 0" style="fill:#fcd213;fill-opacity:1;fill-rule:nonzero;stroke:none" transform="translate(175.974 121.64)"/><path d="m0 0 .014-.001L0 0Z" style="fill:#231f20;fill-opacity:1;fill-rule:nonzero;stroke:none" transform="translate(176.166 114.914)"/><path d="m0 0-.014.001-.85.053-.805.135a24.84 24.84 0 0 0-1.45.309c-.897.235-1.656.422-2.287.748-1.264.594-2.024 1.145-2.44 1.502l-.04.035c-.594-.074-1.173-.04-1.748-.011-.574.032-1.139.084-1.685.156-1.103.107-2.09.446-2.948.799-.643.273-1.26.545-1.83.85a28.87 28.87 0 0 0-1.558 1.026 26.76 26.76 0 0 0-1.342 1.012c-.4.349-.744.72-1.065 1.056a22.106 22.106 0 0 0-1.519 1.797 15.6 15.6 0 0 0-.725 1.243l1.222 1.328c.479-.157.932-.31 1.38-.434l1.341-.28c.863-.161 1.636-.314 2.387-.385.765-.048 1.47-.073 2.125-.08.658-.001 1.25-.016 1.852.074 1.183.144 2.193.304 3.133.534.961.282 1.83.582 2.66.9.665.23 1.352.565 1.989.815.643.263 1.252.483 1.837.685-.479.234-1.028.498-1.634.73-.301.12-.621.222-.943.337-.31.142-.631.274-.962.394-.657.246-1.378.394-2.05.622-.345.096-.7.172-1.064.225-.365.051-.742.075-1.093.133a82.19 82.19 0 0 1-2.376.255c-.416.071-.873.137-1.401.202l-.852.098a7.8 7.8 0 0 0-.959.138l-.675.141 1.229 1.335c1.216-.308 1.883-.261 2.7-.353-.35.429-.626.723-.869.968-.226.263-.4.497-.585.74l1.137 1.236.441-.579.579-.631c.42-.458.829-1.096 1.412-1.761l.129-.163.459-.036c.376-.023.711-.113 1.086-.144.371-.037.73-.094 1.076-.172a9.933 9.933 0 0 0 1.008-.292 8.633 8.633 0 0 0 1.01-.284 85.523 85.523 0 0 0 5.134-2.176l.331-.162c.253.073.491.109.736.182.923.271 1.688.415 2.371.48.351.019.643.075.927.109.284.034.555.051.819.061.438-.003.871.044 1.228.077.357.027.638.035.766.024l.25-1.661s-.189.005-.514-.01c-.326-.001-.785-.084-1.339-.103-.558-.017-1.189-.102-1.904-.201a13.587 13.587 0 0 1-2.343-.378c-.472-.138-.947-.241-1.451-.394a18.35 18.35 0 0 1-1.584-.575c-.56-.25-1.117-.441-1.704-.674a53.758 53.758 0 0 1-1.828-.774c-.488-.233-.956-.374-1.443-.531-.485-.153-.98-.296-1.489-.431-1.033-.303-2.063-.427-3.2-.531-.567-.049-1.166-.102-1.781-.115-.6.018-1.231.049-1.899.097-.659.061-1.389.086-2.102.228-.715.137-1.474.298-2.283.489a18.1 18.1 0 0 1 .857-1.063c.352-.384.733-.861 1.26-1.254 1.036-.805 2.342-1.812 4.143-2.471.811-.319 1.8-.627 2.937-.683a24.025 24.025 0 0 1 1.75-.079l.905.008c.307.024.618.068.928.109.621.085 1.242.19 1.853.312.611.125 1.209.244 1.799.468 1.175.406 2.274.858 3.241 1.342A41.354 41.354 0 0 1 3.041 8.82c.42.274.903.68 1.389 1.03.484.368.968.705 1.388 1.043l1.44 1.227.27-1.794-1.506-1.28c-.578-.472-1.236-.953-1.965-1.534-.227-.177-.465-.367-.716-.549l-.79-.52A38.597 38.597 0 0 0 .703 5.326c-.41-.226-.848-.482-1.312-.687a32.292 32.292 0 0 0-3.06-1.112c-.274-.083-.554-.173-.835-.242l-.851-.161c.609-.364 1.517-.693 2.761-1.001.621-.146 1.328-.32 2.114-.409a31.014 31.014 0 0 1 2.603-.092c.448.008.916.017 1.421.089.511.085 1.04.196 1.569.331.529.144 1.063.272 1.575.495.513.219 1.013.46 1.485.719l.385.212.268-1.785C7.762 1.154 6.615.648 5.45.413 4.87.276 4.291.163 3.726.074 3.155-.023 2.65-.015 2.14-.033 1.38-.045.668-.032 0 0" style="fill:#e22739;fill-opacity:1;fill-rule:nonzero;stroke:none" transform="translate(176.18 114.913)"/><path d="m0 0-.274 1.821c.633-.06 1.173.089 2.317.06l-.872-.852C.863.729.512.376 0 0" style="fill:#fcd213;fill-opacity:1;fill-rule:nonzero;stroke:none" transform="translate(183.438 127.033)"/><path d="M0 0a9.461 9.461 0 0 0 1.832 1.413c.649.425 1.327.835 2.016 1.153.694.297 1.367.674 2.021.931.649.285 1.282.462 1.812.692C7.036 3.002 6.392 1.745 5.804.306 5.032-1.332 4.209-3.077 2.82-4.926c-.348-.463-.707-.998-1.143-1.468A44.93 44.93 0 0 0 .248-7.92c-.519-.557-1.116-1.066-1.783-1.605-.669-.529-1.389-1.153-2.233-1.661l-1.03 6.859.54.433c1.026.998 1.775 1.623 2.43 2.245C-1.177-1.019-.603-.556 0 0" style="fill:#fcd213;fill-opacity:1;fill-rule:nonzero;stroke:none" transform="translate(188.506 129.567)"/><path d="M0 0a29.076 29.076 0 0 0-1.933-1.464c-.608-.413-1.214-.725-1.743-1.001C-4.753-3-5.588-3.338-6.233-3.493c.631.914 1.16 1.895 1.653 2.819.243.466.469.924.679 1.369.198.457.372.909.534 1.338.531 1.442.929 2.66 1.233 3.76a57.39 57.39 0 0 0 1.351 4.343l4.496-5.281-.187-.359C2.604 2.751 1.319 1.032 0 0" style="fill:#fcd213;fill-opacity:1;fill-rule:nonzero;stroke:none" transform="translate(207.584 127.335)"/><path d="M0 0c-.819-1.993-1.985-4.26-3.48-6.118-.368-.47-.731-.941-1.124-1.358-.4-.409-.805-.796-1.206-1.151-.802-.713-1.584-1.309-2.353-1.643a23.238 23.238 0 0 0-2.33-.953 21.386 21.386 0 0 0-2.079-.464c-1.247-.244-2.297-.177-3.05-.137.643.499 1.251.939 1.786 1.435.535.498 1.03.976 1.492 1.439.938.892 1.668 1.882 2.353 2.761.689.868 1.241 1.807 1.759 2.712.519.903.984 1.797 1.387 2.794 1.096 2.513 2.219 4.81 3.507 6.382.556.71 1.155 1.342 1.745 1.892.594.541 1.145 1.084 1.65 1.487A17.815 17.815 0 0 0 1.8 10.369l1.194-1.403-.673-1.878C1.94 6.03 1.514 4.649 1.203 3.671A58.125 58.125 0 0 0 0 0" style="fill:#fcd213;fill-opacity:1;fill-rule:nonzero;stroke:none" transform="translate(202.631 129.885)"/><path d="m0 0 .01.008L0 0Z" style="fill:#231f20;fill-opacity:1;fill-rule:nonzero;stroke:none" transform="translate(207.074 124.822)"/><path d="m0 0-.01-.008c-.841-.651-1.719-1.11-2.464-1.505a16.951 16.951 0 0 0-2.029-.889c-1.243-.384-2.126-.483-2.65-.497l-.052-.001c-.692-.874-1.501-1.616-2.308-2.262-.805-.647-1.593-1.211-2.409-1.556a18.082 18.082 0 0 0-6.471-1.721c-1.817-.084-3.081.047-3.685.206l-.268 1.784c.843.508 1.563 1.131 2.232 1.661.667.539 1.264 1.048 1.783 1.604.525.537.998 1.044 1.429 1.527.436.469.795 1.004 1.144 1.468 1.388 1.848 2.212 3.594 2.983 5.232.589 1.438 1.233 2.696 1.878 3.883-.531-.23-1.164-.407-1.812-.692-.655-.258-1.328-.635-2.022-.932-.689-.318-1.366-.727-2.016-1.152a9.492 9.492 0 0 1-1.832-1.413c-.603-.556-1.177-1.019-1.828-1.649-.655-.622-1.404-1.247-2.43-2.245l-.54-.433-.269 1.793c.512.377.863.729 1.17 1.029l.873.852c-1.144.029-1.684-.12-2.317-.06l-.249 1.661c.46-.04.997.037 1.652.049.328.011.686-.005 1.08-.013.394.019.823.022 1.299.002l.221-.008.353.323c1.149 1.112 2.462 1.955 3.84 2.668.277.136.556.253.834.375.275.14.55.271.823.393.546.243 1.083.451 1.593.629 1.014.391 1.906.725 2.532.906l.387.118.501.672c1.245 1.693 2.337 2.572 3.339 3.435.837.684 1.702 1.315 1.974 1.469l1.088-1.279s-.743-.461-1.743-1.29c-.505-.404-1.056-.947-1.65-1.488a16.557 16.557 0 0 1-1.745-1.892c-1.288-1.572-2.411-3.868-3.507-6.381-.403-.998-.868-1.892-1.387-2.795-.518-.905-1.07-1.843-1.759-2.712-.686-.879-1.415-1.869-2.354-2.76a54.56 54.56 0 0 0-1.491-1.44c-.536-.495-1.143-.935-1.786-1.435.752-.04 1.803-.107 3.05.138.63.106 1.325.256 2.078.463.726.249 1.505.566 2.331.953.769.334 1.551.931 2.353 1.643.401.355.806.742 1.206 1.151.393.418.756.889 1.123 1.359C-6.438.795-5.272 3.063-4.453 5.055a58.713 58.713 0 0 1 1.202 3.672c.312.978.738 2.358 1.119 3.417l.673 1.878 1.176-1.381a57.536 57.536 0 0 1-1.351-4.343 47.224 47.224 0 0 0-1.234-3.761A27.33 27.33 0 0 0-3.402 3.2a35.3 35.3 0 0 0-.678-1.369C-4.573.907-5.102-.074-5.733-.988c.645.154 1.48.492 2.557 1.028.528.275 1.135.587 1.742 1C-.83 1.457-.183 1.942.5 2.505c1.318 1.031 2.603 2.751 3.526 4.496l.186.359 1.17-1.375a19.108 19.108 0 0 0-1.775-2.642 17.58 17.58 0 0 0-1-1.155 19.08 19.08 0 0 0-1.069-.973A31.595 31.595 0 0 0 0 0" style="fill:#e22739;fill-opacity:1;fill-rule:nonzero;stroke:none" transform="translate(207.084 124.83)"/><path d="m0 0-1.194 1.402c.618.393 1.115.813 2.243 1.471C.714 1.985.519 1.325 0 0" style="fill:#fcd213;fill-opacity:1;fill-rule:nonzero;stroke:none" transform="translate(205.625 138.852)"/><path d="M0 0c.725 1.548 1.875 2.905 3.056 4.136C4.245 5.349 5.54 6.315 6.522 7.058c-.365-1.393-.685-2.85-.877-4.403-.12-.95-.25-1.9-.411-2.9-.163-.998-.386-2.015-.652-3.15-.277-1.125-.58-2.38-1.027-3.741a84.506 84.506 0 0 0-1.67-4.604l-4.496 5.281.126.347.121.35C-1.456-2.959-.765-1.682 0 0" style="fill:#fcd213;fill-opacity:1;fill-rule:nonzero;stroke:none" transform="translate(209.411 143.93)"/><path d="M0 0c-2.087-2.639-3.954-3.938-4.999-4.556a42.88 42.88 0 0 1 1.323 5.881c.204 1.492.31 2.789.407 3.922.149 1.832.411 3.345.599 4.526l5.289-4.487-.11-.382C1.951 3.056.969 1.246 0 0" style="fill:#fcd213;fill-opacity:1;fill-rule:nonzero;stroke:none" transform="translate(228.518 147.326)"/><path d="M0 0c-.593-4.276-2.371-9.582-4.408-11.81-1.117-1.215-2.157-2.12-3.105-2.766A16.255 16.255 0 0 0-9.926-15.9c.523 1.394 1.001 2.632 1.364 3.832.365 1.197.677 2.309.949 3.375.563 2.111.868 4.141 1.152 6.247.184 1.374.427 2.72.744 3.964.322 1.237.73 2.358 1.227 3.303a21.652 21.652 0 0 0 2.827 4.157c.442.514.833.923 1.113 1.204l.441.443 1.404-1.192-.367-2.008C.729 6.293.503 4.892.415 3.836.32 2.718.222 1.436 0 0" style="fill:#fcd213;fill-opacity:1;fill-rule:nonzero;stroke:none" transform="translate(223.17 148.84)"/><path d="m0 0 .008.009L0 0Z" style="fill:#231f20;fill-opacity:1;fill-rule:nonzero;stroke:none" transform="translate(228.615 144.844)"/><path d="m0 0-.008-.009c-2.721-2.986-4.841-3.936-5.816-4.196l-.047-.012c-.792-1.913-1.716-3.636-2.795-4.752-1.586-1.704-3.172-2.918-4.558-3.694-1.364-.79-2.419-1.207-2.933-1.375l-1.17 1.374a84.506 84.506 0 0 1 1.67 4.604c.447 1.361.75 2.616 1.027 3.741.266 1.136.49 2.152.652 3.15.161 1 .291 1.95.411 2.9.192 1.553.512 3.01.877 4.403-.982-.743-2.277-1.709-3.466-2.922-1.18-1.231-2.331-2.587-3.056-4.136-.764-1.682-1.456-2.959-2.363-5.761l-.122-.351-.125-.346-1.176 1.381c.519 1.325.714 1.985 1.048 2.873-1.127-.658-1.624-1.079-2.242-1.471L-25.28-3.32c.935.637 2.149 1.551 4.132 2.494l.227.117.231.509c.762 1.666 1.903 3.099 3.124 4.395.987 1.023 2.055 1.878 3.004 2.61a29.439 29.439 0 0 0 2.389 1.689l.366.231c.12.283.246.555.377.816.981 1.97 1.892 3.231 2.807 4.261.75.861 1.538 1.672 1.781 1.896l1.28-1.087-.441-.443c-.28-.28-.671-.689-1.113-1.203a21.683 21.683 0 0 1-2.827-4.157c-.497-.945-.905-2.067-1.227-3.304a35.248 35.248 0 0 1-.744-3.964c-.283-2.106-.588-4.135-1.151-6.247a76.158 76.158 0 0 0-.95-3.375c-.363-1.199-.841-2.438-1.364-3.832.626.279 1.451.687 2.413 1.325.949.646 1.989 1.55 3.105 2.765 2.037 2.229 3.815 7.535 4.408 11.81.222 1.436.32 2.718.415 3.836.088 1.056.314 2.458.513 3.59l.367 2.008 1.383-1.174c-.188-1.181-.45-2.694-.599-4.526-.097-1.133-.203-2.43-.407-3.922a42.88 42.88 0 0 0-1.323-5.881c1.045.618 2.912 1.917 4.999 4.556.969 1.246 1.951 3.056 2.509 4.904l.11.382 1.375-1.168c-.629-1.969-1.677-3.795-2.72-5.174C.771.9.395.422 0 0" style="fill:#e22739;fill-opacity:1;fill-rule:nonzero;stroke:none" transform="translate(228.623 144.853)"/><path d="m0 0-1.404 1.191C-.841 1.701-.391 2.2.651 3.053.436 2.102.325 1.414 0 0" style="fill:#fcd213;fill-opacity:1;fill-rule:nonzero;stroke:none" transform="translate(224.465 158.273)"/><path d="M0 0c.547 1.661 1.541 3.214 2.637 4.562A25.446 25.446 0 0 0 5.87 7.894a27.324 27.324 0 0 1-.494-4.522c-.125-3.865-.322-7.635-1.84-14.709L-1.752-6.85l.14.734C-1.107-3.192-.597-1.761 0 0" style="fill:#fcd213;fill-opacity:1;fill-rule:nonzero;stroke:none" transform="translate(227.6 163.949)"/><path d="M0 0c-1.864-2.672-3.534-4.099-4.539-4.776.428 2.032.675 4.112.798 5.898.098 1.487.139 2.77.177 3.909.052 1.836.269 3.381.454 4.579l5.369-4.39-.094-.371C1.706 3.058.871 1.249 0 0" style="fill:#fcd213;fill-opacity:1;fill-rule:nonzero;stroke:none" transform="translate(246.286 169.113)"/><path d="M0 0c-.276-4.297-1.458-9.651-3.153-12.047-1.82-2.638-3.689-3.935-4.808-4.649.59 2.843 1.005 5.175 1.257 7.363.265 2.18.416 4.178.47 6.335.079 2.807.536 5.482 1.414 7.498.769 1.763 1.842 3.328 2.705 4.438A21.646 21.646 0 0 0-.531 10.73L.895 9.564S.724 8.661.546 7.499a34.715 34.715 0 0 1-.372-3.648C.136 2.726.095 1.458 0 0" style="fill:#fcd213;fill-opacity:1;fill-rule:nonzero;stroke:none" transform="translate(240.877 170.306)"/><path d="m0 0 .007.009L0 0Z" style="fill:#231f20;fill-opacity:1;fill-rule:nonzero;stroke:none" transform="translate(246.576 166.698)"/><path d="m0 0-.007-.009c-2.379-3.07-4.404-4.16-5.311-4.51l-.044-.017C-5.899-6.491-6.67-8.23-7.537-9.443a19.71 19.71 0 0 0-3.911-4.104c-1.191-.938-2.159-1.479-2.622-1.716l-1.376 1.168c1.518 7.074 1.715 10.844 1.84 14.709.043 1.575.214 3.105.494 4.522a25.446 25.446 0 0 1-3.233-3.332c-1.096-1.348-2.09-2.901-2.637-4.562-.597-1.761-1.107-3.192-1.612-6.116l-.14-.734-1.383 1.174c.324 1.414.435 2.102.65 3.053-1.042-.853-1.491-1.352-2.054-1.862l-1.281 1.087c.861.814 1.969 1.959 3.848 3.229l.218.147.18.539c.59 1.774 1.556 3.451 2.698 4.867 1.818 2.306 3.956 4.06 5.108 4.948l.355.271c.103.299.212.589.328.868.864 2.099 1.81 3.455 2.697 4.586.757.947 1.577 1.858 1.833 2.093l1.3-1.063s-.687-.671-1.585-1.791c-.862-1.11-1.935-2.676-2.704-4.438-.878-2.016-1.335-4.692-1.414-7.498a64.79 64.79 0 0 0-.47-6.336c-.252-2.188-.668-4.52-1.257-7.363 1.119.714 2.988 2.011 4.808 4.65 1.695 2.395 2.877 7.75 3.153 12.046.095 1.458.135 2.727.174 3.852.041 1.06.191 2.487.372 3.648.178 1.162.349 2.065.349 2.065l1.404-1.148c-.185-1.198-.402-2.743-.455-4.579-.037-1.14-.078-2.423-.177-3.909a43.711 43.711 0 0 0-.797-5.899c1.005.677 2.675 2.105 4.539 4.777.871 1.249 1.705 3.057 2.164 4.849l.095.371 1.397-1.143a17.283 17.283 0 0 0-1.006-2.715 16.534 16.534 0 0 0-1.317-2.342A29.175 29.175 0 0 0 0 0" style="fill:#e22739;fill-opacity:1;fill-rule:nonzero;stroke:none" transform="translate(246.583 166.707)"/><path d="m0 0-1.426 1.166c.582.546 1.035 1.08 2.169 1.995C.468 2.166.325 1.453 0 0" style="fill:#fcd213;fill-opacity:1;fill-rule:nonzero;stroke:none" transform="translate(241.772 179.87)"/><path d="M0 0c.733 1.734 2.143 3.352 3.655 4.69a29.805 29.805 0 0 0 2.399 1.739c.802.484 1.61.851 2.282 1.161a21.564 21.564 0 0 1-1.271-2.175 22.083 22.083 0 0 1-.864-2.377C5.093-.922 4.499-4.593 3.256-11.464l-5.369 4.39.139.746c.243 1.49.58 2.605.885 3.589.161.49.313.948.495 1.394L0 0" style="fill:#fcd213;fill-opacity:1;fill-rule:nonzero;stroke:none" transform="translate(245.289 185.796)"/><path d="M0 0a14.975 14.975 0 0 0-.86-.391 89.79 89.79 0 0 1-.409-.162l-.369-.185a11.27 11.27 0 0 0-1.349-.558c-.425-.124-.786-.271-1.11-.386a8.146 8.146 0 0 0-.863-.241c.71 1.653 1.583 3.285 2.388 4.804.714 1.171 1.352 2.323 2.007 3.229 1.06 1.43 2.183 2.698 3.111 3.464l1.559-6.758-.277-.221-.509-.393a13.154 13.154 0 0 0-1.482-1.124C1.51.86 1.172.683.864.503A7.63 7.63 0 0 0 0 0" style="fill:#fcd213;fill-opacity:1;fill-rule:nonzero;stroke:none" transform="translate(264.068 185.57)"/><path d="m0 0-.747-1.417c-.251-.471-.513-.917-.731-1.43l-.682-1.438c-.229-.457-.452-.901-.648-1.38a29.367 29.367 0 0 0-.612-1.311c-.205-.405-.41-.783-.601-1.183-.39-.768-.792-1.401-1.211-1.86-.894-1.124-1.778-1.891-2.565-2.56a13.764 13.764 0 0 0-2.038-1.425C-8.824-8.562-8.206-5.045-6.923-.779c.104.353.217.706.339 1.056.131.341.288.663.445.992.319.653.675 1.293 1.062 1.907.37.638.853 1.128 1.313 1.647.47.504.961.969 1.462 1.384C-1.4 6.856-.431 7.405.496 7.88c.464.255.923.404 1.36.564.437.154.855.29 1.242.408.773.223 1.433.431 1.883.478.454.07.715.097.715.097l.414-1.794-.484-.402c-.298-.236-.707-.625-1.148-1.07A37.044 37.044 0 0 1 3.127 4.74a24.438 24.438 0 0 1-.623-.72c-.193-.239-.361-.499-.512-.726l-.98-1.544C.677 1.208.32.662 0 0" style="fill:#fcd213;fill-opacity:1;fill-rule:nonzero;stroke:none" transform="translate(260.096 189.279)"/><path d="m0 0 .008.003L0 0Z" style="fill:#231f20;fill-opacity:1;fill-rule:nonzero;stroke:none" transform="translate(263.498 183.494)"/><path d="m0 0-.008-.003a9.807 9.807 0 0 0-1.745-.765c-.544-.169-.992-.387-1.431-.483a7.13 7.13 0 0 0-1.152-.206 5.378 5.378 0 0 0-.801-.101l-.041-.002a18.69 18.69 0 0 0-.535-1.112l-.277-.503-.274-.517c-.369-.672-.76-1.239-1.173-1.682a16.809 16.809 0 0 0-1.865-1.915c-.619-.547-1.221-1.076-1.778-1.472-1.115-.794-2.04-1.324-2.484-1.545l-1.397 1.142c1.243 6.87 1.837 10.541 2.945 14.501.238.798.529 1.595.864 2.378.376.745.807 1.472 1.271 2.174-.672-.31-1.479-.677-2.282-1.161a30.032 30.032 0 0 1-2.399-1.738c-1.512-1.339-2.921-2.956-3.655-4.691l-.594-1.345a20.932 20.932 0 0 1-.495-1.394c-.305-.984-.642-2.098-.885-3.588l-.139-.746-1.404 1.148c.324 1.453.467 2.166.743 3.161-1.135-.915-1.587-1.449-2.169-1.995l-1.3 1.063c.872.879 2.126 2.147 4.15 3.527l.248.159.257.578c.44.941.95 1.868 1.607 2.74.686.868 1.45 1.689 2.245 2.432a30.35 30.35 0 0 0 2.117 1.593c.356.237.684.478 1.047.678a37.097 37.097 0 0 0 2.977 1.444c.583.231 1.122.375 1.542.504l.525.15c.277.263.559.516.844.755 2.187 1.694 4.06 2.516 5.696 2.964.683.206 1.368.393 1.93.536.555.108.987.166 1.183.183l.378-1.637s-.261-.027-.715-.097c-.45-.047-1.11-.255-1.883-.478a30.601 30.601 0 0 1-1.242-.408c-.438-.16-.897-.309-1.36-.564-.928-.475-1.896-1.024-2.798-1.673-.501-.415-.992-.88-1.462-1.384-.46-.519-.943-1.009-1.313-1.647a20.276 20.276 0 0 1-1.062-1.907c-.157-.329-.315-.651-.445-.992-.122-.35-.236-.703-.339-1.056-1.283-4.266-1.902-7.784-2.912-13.226a13.86 13.86 0 0 1 2.038 1.426c.787.669 1.67 1.436 2.565 2.56.419.459.821 1.092 1.211 1.86.191.4.396.778.601 1.183.204.409.408.848.612 1.311.196.479.419.923.648 1.38l.682 1.438c.218.513.48.959.731 1.43l.747 1.417c.32.662.677 1.208 1.012 1.75l.979 1.544c.152.227.32.487.513.726.194.234.404.476.623.72.437.487.91.98 1.351 1.421.441.445.85.834 1.148 1.07l.484.402.408-1.767c-.928-.767-2.051-2.034-3.11-3.464-.656-.907-1.294-2.058-2.008-3.229-.805-1.519-1.678-3.151-2.387-4.804.247.054.536.131.862.241.324.115.685.262 1.111.386.417.141.867.322 1.348.558l.369.185.41.162c.277.116.563.245.859.391.279.137.568.305.864.502.308.181.646.358.973.576a12.955 12.955 0 0 1 1.482 1.124l.51.393.277.221.406-1.758c-.723-.52-1.363-1.08-2.023-1.5a10.747 10.747 0 0 0-.976-.564 9.391 9.391 0 0 0-.861-.515C.791.333.388.152 0 0" style="fill:#e22739;fill-opacity:1;fill-rule:nonzero;stroke:none" transform="translate(263.506 183.497)"/><path d="m0 0-.414 1.793c.864.069 1.628.222 3.135.248 0 0-.172-.111-.434-.309l-.947-.707L0 0" style="fill:#fcd213;fill-opacity:1;fill-rule:nonzero;stroke:none" transform="translate(266.2 196.937)"/><path d="m0 0-.333-.49-1.781-1.226.664-.61a9.802 9.802 0 0 1-1.272-.636c-.132-.077-.217-.163-.334-.231-.05-.036-.125-.075-.137-.109l-.213-.117c-.287-.16-.567-.327-.842-.501a24.957 24.957 0 0 1-1.587-1.101l.224.072c1.34.38 2.338.332 2.96.222.649-.079.974-.276.974-.276l-.035-.041.015-.002-.276-.303s-.419-.497-.44-.501c0 0 .094-.02.207-.055l.429-.125.624-.182c.284-.082.663-.128 1.063-.153-.692-.464-1.078-.906-1.435-1.045l-.261-.189c-.086-.058-.152-.12-.284-.196-.14-.075-.289-.168-.445-.234-.082-.036-.146-.069-.243-.106-.158-.042-.191-.072-.239-.104l-.273-.171-.264-.168.423-.102.205-.05c.009-.01.141-.013.231-.017l.184-.023a3.46 3.46 0 0 1 .386-.035c.129-.006.285-.009.355-.025l1.443-.21-.686-.653c-.357-.329-.648-.647-.741-.662.093.015.535-.351.549-.348l-.251-.058-.14-.031-.471-.092-.755-.087a13.308 13.308 0 0 0-.799-.101 38.507 38.507 0 0 0-1.823-.155c-.612-.031-1.221-.052-1.804-.103a12.594 12.594 0 0 0-2.072.037c-.274.026-.552.065-.823.106-.091.009-.581.142-.644.084.311.298.628.602.973.867 1.099.885 2.222 1.841 3.383 2.763l.078.06c-2.393-.673-4.621-2.031-5.774-2.978-.092-.086-.35-.259-.44-.343l-.011.044-.06.26-1.489 6.454.593.495c.552.472 1.127.935 1.73 1.382A22.533 22.533 0 0 0-9.089-.504C-7.815.162-6.486.559-5.114.883c.338.079.746.158 1.169.232l.318.055.16.026-.1-.002.013.009.063.031.03.016c.002.004.08.02.116.029.015.003-.085-.202-.065-.386l.007-.375 2.64.516-.011-.031-.377-.934L-.044.002 0 0Z" style="fill:#fcd213;fill-opacity:1;fill-rule:nonzero;stroke:none" transform="translate(280.715 199.145)"/><path d="m0 0-.094-.236.369.011 1.594.02-1.24-1.632 1.158-.438L-.77-3.49l.773-.988-1.502-.551c-.082-.015-.164-.041-.246-.06l.638-.094 1.571-.21-.8-.873c.388.003.843-.176 1.152-.154l1.293-.064-.59-1.005C1.127-8.101.547-8.63-.049-9.063l2.504-.675-2.381-2.207 1.355-.87-1.558-.506a23.415 23.415 0 0 0-1.314-.387l-.171-.042-.298-.061c-.196-.047-.395-.065-.591-.088l-.44-.044-.134-.02-.267-.035c-.71-.089-1.424-.141-2.335-.219-.827-.05-1.59-.137-2.368-.15-.771-.022-1.579.056-2.344.136a13.702 13.702 0 0 0-2.048.345l-.406 1.758c.092.086.351.261.444.347 1.158.949 3.379 2.296 5.765 2.969l-.073-.055c-1.161-.922-2.283-1.878-3.382-2.763-.345-.265-.662-.569-.974-.867.063.059.553-.075.644-.084.271-.041.55-.08.824-.106.693-.07 1.386-.08 2.072-.037.583.051 1.192.072 1.804.104.608.036 1.215.088 1.823.154.267.028.535.057.799.101l.755.087.471.092.14.031.251.058c-.014-.003-.456.363-.549.348.093.015.384.333.741.662l.686.653-1.443.21c-.071.016-.227.019-.355.025a3.46 3.46 0 0 0-.386.035l-.184.023c-.091.004-.222.007-.231.018l-.205.049-.423.102.264.168.272.171c.049.032.082.062.24.104.097.037.161.07.243.106.156.066.305.159.445.234.132.076.198.138.284.196l.261.189c.357.139.743.581 1.435 1.046-.401.024-.779.071-1.063.152l-.624.182-.43.126a3.181 3.181 0 0 1-.206.055c.021.003.44.501.44.501l.276.302c-.005.002-.009.002-.016.002l.036.041s-.325.198-.974.276c-.622.11-1.62.158-2.961-.222l-.229-.076c.512.383 1.039.755 1.589 1.103.275.174.556.342.843.502l.215.118c.013.034.086.072.137.108.117.069.203.155.334.232.409.239.833.458 1.273.636l-.664.61L-.63-1.883l.333.489-.044.002-1.108.067.378.934.01.031-2.64-.516-.006.375c-.02.185.08.389.064.386-.035-.009-.113-.025-.115-.029l-.03-.016-.063-.031a.16.16 0 0 0-.013-.008l.1.001-.16-.026-.319-.054c-.422-.074-.83-.153-1.169-.233-1.371-.324-2.7-.721-3.975-1.387a22.466 22.466 0 0 1-2.694-1.595 31.825 31.825 0 0 1-1.73-1.382l-.593-.495-.409 1.768 1.34 1.025.947.707c.262.199.434.309.434.309-1.506-.026-2.271-.179-3.135-.248l-.377 1.636c.699.078 1.516.184 2.483.255.969.079 2.04-.01 3.302-.14l.251-.029c.376.158.896.377 1.527.589.622.192 1.362.397 2.202.592.371.086.742.158 1.091.219l.505.082.235.035c.06.009.232.029.008.014-.027.008-.006.013-.011.018l.001.007c-.019-.001.072.015.098.021l.286.054 1.452.246-.282-.704 3.031.32L0 0Z" style="fill:#e22739;fill-opacity:1;fill-rule:nonzero;stroke:none" transform="translate(281.012 200.54)"/><path d="m0 0 1.38 1.219C1.782.602 2.179.08 2.858-1.022 1.959-.708 1.309-.512 0 0" style="fill:#fcd213;fill-opacity:1;fill-rule:nonzero;stroke:none" transform="translate(204.697 154.386)"/><path d="M0 0c3.032-1.446 5.437-4.485 6.801-6.416-1.322.372-2.8.626-4.312.827-1.853.252-3.707.536-5.945 1.041a74.253 74.253 0 0 0-8.137 2.497l5.198 4.592.686-.236C-2.957 1.427-1.608.797 0 0" style="fill:#fcd213;fill-opacity:1;fill-rule:nonzero;stroke:none" transform="translate(209.733 150.644)"/><path d="M0 0c-1.312 1.047-2.314 2.018-3.043 2.865-.704.864-1.164 1.588-1.454 2.12a38.236 38.236 0 0 1 2.972-.812 38.17 38.17 0 0 1 2.842-.478c1.477-.185 2.721-.303 3.859-.337 1.816-.072 3.295-.255 4.441-.366L5.382-2.5l-.393.093C3.143-1.894 1.23-.986 0 0" style="fill:#fcd213;fill-opacity:1;fill-rule:nonzero;stroke:none" transform="translate(212.767 131.727)"/><path d="M0 0c-2.147.243-4.443.873-6.572 1.616-2.099.767-3.901 1.743-4.99 2.706-2.338 2.154-3.343 4.124-3.884 5.314 2.721-.928 4.933-1.633 7.037-2.147 2.115-.5 4.041-.874 6.125-1.134 2.754-.301 5.23-.967 7.085-1.835a17.026 17.026 0 0 0 2.205-1.312A19.563 19.563 0 0 0 9.921.937c.266-.26.421-.394.421-.394L9.218-.916s-.217.014-.562.061L7.277-.68c-1.099.133-2.478.281-3.519.331A64.727 64.727 0 0 0 0 0" style="fill:#fcd213;fill-opacity:1;fill-rule:nonzero;stroke:none" transform="translate(214.274 137.071)"/><path d="m0 0 .009-.008L0 0Z" style="fill:#231f20;fill-opacity:1;fill-rule:nonzero;stroke:none" transform="translate(210.292 131.628)"/><path d="m0 0-.009.008C-1.544 1.339-2.485 2.571-3.1 3.566c-.618.995-.904 1.759-1.035 2.228l-.012.046c-1.882.768-3.498 1.749-4.602 2.753-3.245 3.081-4.473 6.203-4.765 7.186l1.353 1.194c3.316-1.23 5.948-1.949 8.137-2.498 2.238-.504 4.092-.788 5.945-1.04 1.512-.201 2.99-.455 4.312-.827-1.364 1.931-3.769 4.97-6.801 6.416-1.608.797-2.958 1.427-5.709 2.305l-.687.236 1.36 1.201c1.309-.512 1.959-.708 2.858-1.023-.679 1.103-1.076 1.625-1.478 2.242l1.258 1.112c.635-.967 1.581-2.167 2.535-4.134l.111-.228.497-.236c1.603-.806 3.094-1.866 4.29-3.108a31.888 31.888 0 0 0 2.486-2.934c.684-.92 1.201-1.772 1.554-2.335l.22-.346a16.15 16.15 0 0 0 3.144-1.651 18.14 18.14 0 0 0 1.682-1.218c.816-.658 1.578-1.385 1.787-1.583l-1.026-1.33s-.154.134-.421.394a19.623 19.623 0 0 1-2.915 2.271c-.661.459-1.4.918-2.204 1.312-1.855.868-4.332 1.534-7.085 1.835-2.084.26-4.011.634-6.126 1.134-2.104.514-4.316 1.219-7.037 2.147.542-1.19 1.546-3.16 3.884-5.314C-6.5 8.81-4.699 7.835-2.6 7.068c2.129-.743 4.425-1.374 6.572-1.617a65.648 65.648 0 0 1 3.759-.349c1.04-.05 2.419-.197 3.518-.331l1.38-.175c.345-.047.561-.06.561-.06l-1.108-1.437c-1.145.11-2.625.294-4.44.365-1.139.035-2.383.153-3.86.337-.882.114-1.844.273-2.842.479-.975.223-1.978.497-2.972.811A14 14 0 0 1-.577 2.972c.728-.848 1.73-1.818 3.042-2.865C3.696-.88 5.608-1.787 7.454-2.3l.393-.093-1.102-1.429c-1.022.279-1.978.693-2.89 1.144-.9.458-1.76.954-2.432 1.498C.905-.777.432-.383 0 0" style="fill:#e22739;fill-opacity:1;fill-rule:nonzero;stroke:none" transform="translate(210.301 131.62)"/></g></svg>