<svg xmlns="http://www.w3.org/2000/svg" width="1000pt" height="800" viewBox="0 0 1250 750" xmlns:cgf="https://coding.garden/flags"><metadata id="cgf-metadata">

<cgf:flag>
  <cgf:name></cgf:name>
  <cgf:route>gb/war</cgf:route>
  <cgf:aspect-ratio>1.25</cgf:aspect-ratio>
</cgf:flag>

</metadata><path style="opacity:1;fill:#dd221d;fill-opacity:1;stroke:none;stroke-width:1.39999998;stroke-linecap:round;stroke-linejoin:miter;stroke-miterlimit:4;stroke-dasharray:none;stroke-dashoffset:0;stroke-opacity:1" d="M0 0h1250v750H0z"></path><path style="fill:#fff;stroke:#2b2b28;stroke-width:2;stroke-miterlimit:4;stroke-dasharray:none;stroke-opacity:1" d="M625.145 655.013c1.783-1.762 4.186.72 5.268 1.134 1.114.428 3.319-3.3 3.319-4.407 0-1.263-.227-3.42-7.517-3.194-3.815.119-6.586 1.745-8.824 6.132-1.28 2.51-1.193 5.969-.663 6.514.969-.334 3.79-1.192 5.501-2.482 1.383-1.043 1.61-2.407 2.916-3.697z"></path><path style="fill:#fff;stroke:#2b2b28;stroke-width:2;stroke-miterlimit:4;stroke-dasharray:none;stroke-opacity:1" d="M671.332 655.407c.961-.962-7.304-.758-10.546-1.267-2.495-.392-5.894-1.37-8.38-1.76-2.488-.39-7.627-1.852-11.284-3.525-3.656-1.672-8.137-3.493-9.983-3.493-.324 0-1.697.739-1.067 1.474 3.058 3.57 3.31 9.85-.974 10.15 5.38 2.924 31.162 6.524 41.74 5.793zm-153.13 29.354c3.061-3.061 3.556-4.504 2.844-18.84-1.575-31.714-4.246-54.54-5.345-58.127-2.846-9.283 1.295-13.652 20.438-27.85 35.189-26.1 36.068-25.98 35.634-43.582-.177-7.166-.195-13.92-1.386-15.22-1.506-1.646-14.789.004-24.756 2.596-6.777 1.763-13.616 3.194-18.223 4.464-15.07 4.153-16.023 4.25-15.63-25.135.174-12.981 1.381-25.415.35-27.382-2.469-4.705.473-11.426 5.78-15.532 2.306-1.783 9.376-7.115 15.297-11.433 15.75-11.486 26.533-20.458 29.267-25.817 1.78-3.49 2.295-8.219 2.295-15.573 0-5.471-.596-11.28-.985-12.378-1.262-3.558-3.966-4.527-27.618 1.4-14.216 3.564-25.574 5.927-27.12 4.158-2.93-3.351-.936-15.35-1.638-32.816 0 0-.21-20.417-1.39-29.63-.253-1.966 3.56-3.953 5.452-4.54 4.11-1.274 32.01-13.833 44.33-28.437 2.296-2.722 4.406-2.54 4.698-19.16.1-5.737.69-15.635-5.485-15.02-5.463.543-7.947-.923-19.741 2.206-.731.194-8.417 2.077-15.83 3.61-6.17 1.276-15.277 5.594-15.31 2.305-.19-19.67-3.466-42.482-4.602-51.683-2.184-17.622-.132-16.676 20.346-29.01 7.22-4.347 8.492-5.83 13.2-8.57 7.3-5.716 18.413-7.732 21.174-13.293.652-1.312-.094-6.99.327-8.419 3.013-10.23-.749-27.42-8.085-26.782-34.75 3.021-54.9 8.502-53.254 5.282l.45-20.76c.363-16.768-.72-22.13-2.217-23.074-1.031-.65-9.388-1.87-14.976-1.88-7.9-.015-10.537.436-11.858 2.028-1.31 1.578-.524 11.459-2.119 33.943-.422 5.949 1.142 12.663 1.27 19.538.237 12.633-2.761 24.294-2.424 33.33.684 18.33.837 21.871-.685 21.447-6.903-1.928-29.303-3.986-37.373-6.898-11.688-4.217-13.107-1.316-12.584 15.004.538 16.787 1.944 18.135 10.74 24.25 12.928 8.989 35.578 24.782 37.889 27.377 2.153 2.416 3.663 5.395 3.407 22.987-.166 11.454.2 31.175-.173 38.224-.227 4.311.59 8.127-6.07 6.39-2.627-.684-5.335-.96-12.403-2.504-7.491-1.637-17.266-3.926-22.182-4.237-8.642-.546-15.064.325-15.685 3.705-.39 2.126-1.105 4.27-1.66 8.104-1.635 11.313 4.548 20.082 17.937 29.828 3.846 2.8 13.084 7.024 16.309 12.52 3.834 6.534 8.208 8.166 13.75 11.945 6.62 4.515 10.08 9.95 10.148 30.883.031 9.818-2.358 22.319-2.268 27.85l-.854 10c-4.452-.024-9.357-1.18-13.81-1.204-7.906-.04-19.55.147-26.422.506-6.35.332-7.117-2.599-10.21-2.655-1.63-.03-2.709 1.121-3.308 2.329-1.602 3.23-.738 11.146-.738 11.146.108 5.282-.276 13.058.118 14.346.697 2.28 8.294 6.59 15.448 11.978 10.921 8.226 12.13 11.56 35.792 29.491 2.158 1.636 2.628 5.577 2.498 19.596-.081 8.765-.535 20.905-.08 29.05.454 8.147 1.629 16.05.868 16.97-.494.597-5.852-1.091-12.726-2.14-6.489-.991-17.644-3.033-24.788-4.123-14.404-2.197-18.443-2.23-19.193 2.962-.584 4.05-.513 25.965.633 27.454 1.41 1.834 5.932 3.666 10.4 6.585 4.47 2.919 11.594 8.702 15.893 13.47 5.16 5.723 13.46 10.358 18.807 13.898 3.001 1.987 8.355 4.35 9.003 6.867.355 1.378-.138 2.493-.372 3.897-.55 3.286-1.425 7.25-1.88 10.103-.752 4.7.395 6.301 3.471 8.317 1.868 1.224 4.374 2.93 10.455 3.791 7.4 1.049 33.1 2.192 37.818.857 4.718-1.335 9.206-3.569 10.92-5.283z"></path><path style="fill:#fff;stroke:#2b2b28;stroke-width:2;stroke-miterlimit:4;stroke-dasharray:none;stroke-opacity:1" d="M530.724 331.922c2.184-1.597 5.378-4.989 2.526-8.29l-14.62-13.484-1.535 2.587c-2.884 4.862-5.755 7.006-5.755 7.006-3.171 2.976-1.445 4.987 3.965 8.905 5.575 4.039 11.763 5.95 15.42 3.276z"></path><path style="fill:#fff;stroke:#2b2b28;stroke-width:2;stroke-miterlimit:4;stroke-dasharray:none;stroke-opacity:1" d="m543.665 324.784 6.436-4.826-7.151-7.963-15.543-13.359c-3.48 2.414-7.867 6.665-9.425 10.183-.93 2.1.43 5.61 1.72 6.39 1.236.745 3.713 3.826 7.211 6.787 6.568 5.559 8.938 8.649 16.752 2.788zm-38.909-154.676c0-1.182 1.615-5.896 3.382-11.307 2.051-6.28 6.243-11.694 5.11-13.091-.862-1.063-10.014-.13-13.29.117-1.906.143-4.217.702-5.476 1.427-.871.5-.818 1.36-1.263 2.31-4.73 10.093-7.205 15.542-6.362 18.442.334 1.15 1.12 2.118 1.807 2.289 4.177 1.04 4.18 3.094 10.166 3.59 3.552.294 5.926-1.468 5.926-3.777z"></path><path style="fill:#fff;stroke:#2b2b28;stroke-width:2;stroke-miterlimit:4;stroke-dasharray:none;stroke-opacity:1" d="M511.516 168.923c1.24-.517 5.428-1.584 7.233-1.476 2.896.175 2.843-2.615 4.827-6.09 2.046-3.585 8.055-14.698 8.513-16.537.79-3.174-3.916-1.198-10.98-.637-3.972.316-7.146-.38-10.262 1.582-1.755 1.104-2.765 4.54-3.524 8.05-.85 3.933-2.284 7.27-3.362 10.237-1.078 2.968-1.642 7.759-1.115 8.572 4.623 1.765 4.27-1.87 8.67-3.701z"></path><path style="fill:#fff;stroke:#2b2b28;stroke-width:2;stroke-miterlimit:4;stroke-dasharray:none;stroke-opacity:1" d="M645.273 270.523c3.535-3.536 19.212-9.3 19.212-9.907 3.187-21.98 5.467-48.747 7.716-71.016.368-3.78-10.57.4-10.927.043-.357-.358-7.9 2.452-14.962 3.892-16.211 3.307-19.026 2.362-36.264-8.293-7.018-4.337-17.686-10.848-24.419-14.303-11.064-5.676-14.603-8.235-19.41-14.554-12.042-15.826-16.08-17.03-29.022-14.991 0 0-6.442.035-7.645 2.077-2.19 3.716-4.406 10.886-4.406 10.886-2.232 5.523-4.061 6.73-4.994 9.426-1.937 5.598.725 5.863 2.609 7.296.634.482 3.673.044 4.062-1.624.98-4.192 5.009-5.911 6.037-1.979.796 3.044 4.981.98 8.168-1.35 1.744-1.275 1.894-3.432 1.678-7.085-.341-5.787 1.233-7.859 5.677-6.743 2.507.629 1.56 1.365 2.228 6.93 1.464 12.189 1.174 20.115-.972 20.939-1.193.458-.533-.459-1.672-2.084-2.1-2.999-3.425-3.634-6.034-2.308-1.221.62-2.132.778-4.16 2.006-1.576.954-6.988 3.328-7.203 7.25 0 2.944 6.25 10.07 11.397 12.202 2.94 1.218 3.804 1.512 8.452-1.355 3.646-2.25 9.283-5.75 9.283-5.75s12.46 16.379 24.868 27.814c26.942 24.83 35.577 32.65 41.146 43.605 5.107 10.05 9.607 17.893 12.686 18.12.553.04 3.335-5.608 6.87-9.144z"></path><path style="fill:#fff;fill-rule:evenodd;stroke:#2b2b28;stroke-width:2;stroke-linecap:butt;stroke-linejoin:miter;stroke-miterlimit:4;stroke-dasharray:none;stroke-opacity:1" d="m741.892 662.4.565-6.676c-3.318-.754-6.476-1.216-8.598-.565-4.54 1.393-7.995 5.355-4.073 9.503z"></path><path style="fill:#fff;fill-rule:evenodd;stroke:#2b2b28;stroke-width:2;stroke-linecap:butt;stroke-linejoin:miter;stroke-miterlimit:4;stroke-dasharray:none;stroke-opacity:1" d="M772.838 660.778c-3.96-.98-8.022-1.614-11.88-2.941-3.302-1.136-6.906-2.808-9.729-4.865-1.533-1.117-3.008-2.237-4.751-2.376-1.359-.107-3.054-.32-4.413-.226-3.046.211-5.43 11.087-5.43 11.087l33.035 7.693z"></path><path style="fill:#fff;stroke:#2b2b28;stroke-width:2;stroke-miterlimit:4;stroke-dasharray:none;stroke-opacity:1" d="M675.296 683.234c11.868-1.097 14.693-1.855 18.372-5.248.8 3.806 4.828 6.992 6.194 6.992.603 0 .01-4.602 1.017-7.336 1.123-3.051 3.45-7.257 11.323-20.49 9.707-16.321-1.997-30.338-5.308-46.12-.94-4.478.525-5.014 3.384-9.909 3.364-5.76 13.675-23.556 14.475-28.933 5.682-23.192-9.013-75.902-20.215-106.53-1.857-3.797-11.795 8.674-12.389 9.04-1.933 1.195-12.487 16.501-17.571 24.818-7.557 12.36-14.982 28.773-20.3 48.285-4.832 17.726-14.22 35.606-19.74 43.417-2.311 3.27-.399 2.318 1.768 2.318 2.09 0 12.423-3.393 16.639-4.762.537 3.43 6.32 31.012 13.43 45.63 4.528 9.308 6.472 8.762 5.208 12.503-.768 2.273-3.143 7.98-4.716 9.471-2.434 2.307-5.609 2.759-13.16 2.87-10.03.148-13.004-.653-18.866-2.714-5.352-1.88-8.963-2.913-10.677-1.995-3.012 1.611-2.505 6.03-3.068 8.983-8.883 13.637 5.125 8.172 3.423 21.274-3.186 1.99 2.377 9.964 6.002 10.947 8.225 2.23 13.854.92 23.808-5.224 9.954-6.143 13.298-6.577 20.967-7.287z"></path><path style="fill:#fff;stroke:#2b2b28;stroke-width:2;stroke-miterlimit:4;stroke-dasharray:none;stroke-opacity:1" d="M799.795 681.94c.796 1.172.986 1.87 3.108 2.877.662.314 1.252-5.201 2.669-8.405 1.417-3.203 4.538-8.345 7.032-11.818 6.197-8.625 10.104-16.005 10.137-21.96.023-4.164-2.473-7.503-10.101-18.929-5.046-7.558-11.618-18.465-14.88-24.652-5.165-9.797-6.622-11.896-5.934-16.25.518-3.277 18.66-44.05 18.66-44.05s.972 4.555 1.894 7.756c3.405 11.813 14.287 25.512 22.86 30.293 2.145 1.196 3.298.607 2.575-3.223-.435-2.306-3.171-11.964-3.591-19.526-.691-12.446-.436-14.995 2.693-26.875 6.087-23.113 7.99-33.938 9.454-53.75 1.898-25.71.835-57.776-2.548-76.875-3.439-19.414-5.03-24.862-13.954-47.788-4.076-10.471-10.886-29.002-14.92-41.25-5.455-16.564-4.788-19.586-6.567-23.508 1.278-.214 2.876.851 4.155.637 3.245.791 1.932.469 6.629 2.193-6.032-8.029-7.168-22.004-6.411-47 .629-20.781.724-27.696-.87-35.21-2.565-12.085-10.374-28.706-20.752-41.58-3.708-4.6-6.533-9.405-9.27-13.24l8.33.077-10.678-9.875c-6.42-5.937-11.598-12.184-16.173-20.004-10.818-18.492-23.323-34.461-37.389-50.572-7.981-9.142-17.921-13.907-27.889-16.631-8.468-2.314-25.722-4.645-32.566-2.252-2.595.908-6.363 3.434-6.752 4.448-.389 1.014.687 8.003 1.861 10.413-3.625 1.45-25.925 12.806-33.642 26.18-1.08 1.872-2.243 5.583-1.441 7.808-11.136 4.366-36.491 16.428-42.253 25.074-.406 1.03 1.284 5.032 4.296 4.767 3.43-.3 2.826 1.624 3.364 4.072.432 1.967 1.78 4.485 2.57 4.791 1.925.748 6.958.717 13.564.528 8.747-.25 14.354.417 15.644 1.3 1.078.738-3.722.998-10.98 2.01-9.558 1.333-12.295 2.178-11.677 5.008 1.831 8.39 6.663 10.984 34.162 11.577 8.944.193 18.299 1.2 20.803 1.795 1.518.361 4.476.562 5.994.923.272 3.132-.495 7.699-.303 10.837.412 6.731 3.118 17.065 1.575 19.514-1.338 2.122-2.88 5.015-4.354 7.045-1.63 2.248-2.857 3.045-5.025 5.008 2.24-.224 4.141-.222 6.608-1.011-2.127 14.371-2.198 33.63-2.045 36.07.121 1.942.687 6.237.687 6.237-1.446 4.003-2.752 8.48-6.373 20.811-4.224 19.732-4.538 20.386-7.305 19.447-1.27-.43-15.64-2.282-34.203-2.322-18.562-.04-34.003 2.074-34.866 1.515-.863-.558-5.774-6.186-8.347-10.161-9.189-14.193-13.537-15.875-23.52-14.61-4.812.609-10.229 8.604-9.842 12.612.31 3.213 4.196 4.413 8.222 6.936 1.619 1.014 2.536 2.09 5.952 2.09 2.512 0 5.064-.885 5.665-3.89.883-4.412.323-5.515 3.276-4.382 1.922.738 1.438.815.667 12.01-.475 6.898-.41 13.11-.754 13.666-.344.557-3.371.22-5.76.22-3.617 0-4.029-.77-5.332-4.32-1.682-4.585-5.282-6.75-8.475-4.805-3.482 2.12-4.595 2.884-8.708 6.003-1.213.92-3.882 2.084-2.292 4.383 1.917 2.771 8.355 7.92 14.023 13.634 13.505 13.616 11.479 12.605 22.887 1.918 6.295-5.897 6.745-7.12 11.477-5.815 2.655.733 9.4 4.309 14.712 6.98 35.17 17.679 51.814 25.666 71.997 29.457.023 26.832 8.205 71.731 20.514 101.819 3.295 8.053 7.859 17.564 12.363 26.164 7.42 14.166 12.277 22.982 15.836 24.83l1.172 10.427c-1.405 15.672-.288 29.547 3.785 46.992 3.714 15.913 5.449 28.779 4.796 35.576-.333 3.464-3.21 7.904-1.36 7.419 3.05-.8 8.523-5.599 10.94-8.111 2.896 7.247 22.2 30.496 42.497 50.465 3.563 3.505 4.185 5.277 3.565 7.756-.303 1.211-.651 2.621-1.37 4.147-1.907 4.047-2.106 6.073-3.757 8.557-1.008 1.516-3.163 3.535-4.978 3.394-8.976-.698-15.875-2.685-25.569-5.77-.035-.01-.755-.104-.791-.113-6.833-1.598-8.97 1.878-10.409 6.223-1.519 4.587-5.998 6.772-6.788 11.54-.51 3.082 2.218 6.343 4.073 8.371 1.98 2.164 4.123 4.102 5.883 6.449 1.114 1.485.828 3.573 2.263 4.751 1.991 1.637 4.694 2.652 7.24 3.055 2.795.442 5.831.138 8.598-.453 5.773-1.232 9.862-3.203 13.463-5.43 1.485-.918 6.74-1.834 10.263-1.913 17.75-.4 24.875-6.264 26.31-10.527z"></path><path style="fill:#fff;stroke:#2b2b28;stroke-width:2;stroke-miterlimit:4;stroke-dasharray:none;stroke-opacity:1" d="M740.28 685.89c.895-5.262-.272-6.676-3.363-6.994-6.58-.677-11.33 4.974-10.55 11.043.264 2.055.302 3.997 1.132 6.165l4.348-1.84c2.4-1.016 5.035.458 6.99-1.008s.95-4.458 1.443-7.365z"></path><path style="fill:none;fill-rule:evenodd;stroke:#2b2b28;stroke-width:2;stroke-linecap:round;stroke-linejoin:miter;stroke-miterlimit:4;stroke-dasharray:none;stroke-opacity:1" d="M734.877 675.183c.453-1.206 1.598-3.088 3.281-4.412.987-.776 2.82-1.02 3.847-.792 6.432 1.433 10.748 2.715 17.875 2.942"></path><path style="fill:#fff;stroke:#2b2b28;stroke-width:2;stroke-miterlimit:4;stroke-dasharray:none;stroke-opacity:1" d="M729.46 679.56c3.717 1.443 7.14-5.334 7.309-8.573.136-2.603-1.418-4.974-5.208-5.102-8.489-.287-12.354 5.27-12.354 12.555 0 1.024.102 3.734 1.36 5.376 1.493-2 2.542-2.664 3.999-3.755 1.188-.89 3.148-1.18 4.895-.502zm-109.133-2.718c2.277-.23 5.075-.115 5.162-1.687.113-2.055.843-6.604 2.092-7.64 4.983-4.135 1.577-6.285-1.79-6.738-6.881-.927-11.312 2.192-12.685 10.78-.5 3.122-.696 6.6-.04 8.583 1.869-2.498 5.002-3.072 7.26-3.298z"></path><path style="fill:#fff;stroke:#2b2b28;stroke-width:2;stroke-miterlimit:4;stroke-dasharray:none;stroke-opacity:1" d="M630.707 689.755c1.642-.467 5.421-8.646 4.364-13.209-.433-1.87-2.996-2.285-4.783-2.643-5.006-1.002-11.877 6.068-12.768 12.714-.34 2.539.54 7.066.761 7.672 2.145-2.334 3.404-3.612 4.5-4.082 1.308-.563 5.808.15 7.926-.452zM518.398 318.257c.974-3.345-5.663-5.68-8.545-11.057-1.03 1.03-1.913 6.136-.95 8.646 2.332 6.084 8.243 6.715 9.495 2.411zm18.522-20.642c1.025-1.282 2.16-2.529-2.427-8.102-2.344-2.848-3.637-5.198-4.725-7.068-4.86 4.948-5.84 8.265-.426 14.075 3.01 3.232 5.277 3.97 7.125 1.66zm-11.32 10.163c.74-.892 2.32-2.758.707-5.16-1.948-2.9-4.869-5.182-7.04-9.655-2.142 2.14-6.72 5.997-1.559 13.529 2.704 3.945 5.812 3.792 7.892 1.286zm18.777-27.826c3.964-5.508-.237-9.743-4.063-9.19-1.242.18-1.423-.164-2.182 1.446-.212.45-1.508 2.384-1.769 3.61-.541 2.545-.271 4.68.584 6.384.774 1.542 2.226 2.567 3.638 3.056.79-.981 2.31-3.246 3.792-5.306zm-3.944-98.762c.683-1.413.548-3.947-.326-6.244-.923-2.43-2.724-5.29-3.445-4.964-.72.327-2.724 5.584-3.021 8.327-.21 1.941.466 4.38.984 4.815 1.475 1.237 4.615.535 5.808-1.934zm-9.034-10.814c1.953-2.59 3.25-4.592 3.015-5.616-.265-1.16-2.134-1.556-3.886-1.496-1.062.036-2.125-.197-2.936.374-1.946 1.369-3.154 5.067-3.154 8.356 0 4.143 4.564 5.517 5.383 5.234.819-.283-.115-4.607 1.578-6.852zm-34.686 3.278c1.026-5.005 1.637-8.08.361-8.57-.892-.342-3.905-.366-4.629.074-5.127 3.118-1.49 16.624 2.435 16.33 1.059-.08 1.117-4.334 1.833-7.834zm17.267 1.164c.437-3.889 1.022-7.188.273-8.424-.677-1.118-2.487-.424-5.738.81-5.199 1.975-1.98 13.235.714 15.206 1.167.854 5.28 1.417 5.407 1.253.127-.165-1.102-4.892-.657-8.845z"></path><path style="fill:none;fill-rule:evenodd;stroke:#2b2b28;stroke-width:2;stroke-linecap:round;stroke-linejoin:miter;stroke-miterlimit:4;stroke-dasharray:none;stroke-opacity:1" d="M670.43 109.527c.052 4.213-.389 7.192-1.12 11.04-2.334 12.267-7.147 25.545-8.32 40.478m120.796-10.88c-6.4-1.44-10.08-2.88-10.08-2.88m-91.357-97.117c6.613 3.68 10.405 8.764 12.64 13.44 1.71 3.58 4.336 7.482 7.322 9.882-3.573 1.513-5.404 1.426-8.517-.16m108.071 204.512c3.04 3.04 5.44 4.32 8.96 6.4M661.31 346.32c9.706 1.173 16.212 2.026 25.119 2.08"></path><path style="fill:none;fill-rule:evenodd;stroke:#2b2b28;stroke-width:2;stroke-linecap:round;stroke-linejoin:miter;stroke-miterlimit:4;stroke-dasharray:none;stroke-opacity:1" d="M746.267 273.522c-1.813 15.466-6.357 20.245-13.92 31.999-4.647 7.223-11.459 22.06-14.56 34.879-5.257 21.743-17.133 30.284-27.678 32.959-.54.137-.697-1.087-.48-1.6 4.763-11.295 2.106-16.619-2.72-23.36-2.77-3.867-7.04-9.706-4.32-13.599m43.519 99.997c-4.214 8.747-9.303 34.876-15.916 64.582m29.298 79.535c-5.12 7.52-9.92 12.16-9.92 12.16M658.063 203.01c10.613-2.506 16.825-7.098 22.126-19.406 1.363-3.165 2.56-6.4 3.84-9.6h0m12.319-2.399c-14.56 21.706-25.458 47.708-37.938 72.774m8.02-159.652c-1.014-5.92-3.787-13.28-5.92-19.2m30.319 595.143c-.235 6.694.619 9.668 2.72 16.4m-28.959-95.077c-3.52 2.827-7.04 4.453-11.44 6.8m143.836 76.957c-1.36 8.187.16 12.454 2.56 16.16M625.79 99.527c4.214 5.146 12.115 6.672 14.32 6.32 3.636-.582 5.493-6.32 3.76-11.12"></path><path style="fill:none;fill-rule:evenodd;stroke:#2b2b28;stroke-width:2;stroke-linecap:round;stroke-linejoin:miter;stroke-miterlimit:4;stroke-dasharray:none;stroke-opacity:1" d="M645.39 93.367c-5.454 2.208-15.82 4.468-15.84 9.2"></path><path style="fill:none;fill-rule:evenodd;stroke:#2b2b28;stroke-width:2;stroke-linecap:butt;stroke-linejoin:miter;stroke-miterlimit:4;stroke-dasharray:none;stroke-opacity:1" d="M637.95 96.567c.613 4.48.187 6.96-.8 8.64"></path><path style="fill:none;fill-rule:evenodd;stroke:#2b2b28;stroke-width:2;stroke-linecap:round;stroke-linejoin:miter;stroke-miterlimit:4;stroke-dasharray:none;stroke-opacity:1" d="M566.195 188.821c-2.187-.453-4.262-.113-6.336 1.244m250.705 349.018 4.299-11.879M630.229 664.549c7.24 2.602 16.404 1.584 25.794 1.018"></path></svg>