<svg id="Layer_1" xmlns="http://www.w3.org/2000/svg" viewBox="0 0 800 481.2"><style>.st1{fill:#48b8e7}.st2{fill:#fff}</style><path fill="#009639" d="M0 0h800v481.2H0z"/><path class="st1" d="M747.3 280.1c-12 6.8-23.3 13.2-46.4 13.2-23.1 0-34.4-6.4-46.4-13.2-13.2-7.5-26.8-15.2-53.9-15.2-27.1 0-40.7 7.8-53.9 15.2-12 6.8-23.3 13.2-46.4 13.2-23 0-34.4-6.4-46.4-13.2-13.2-7.5-26.8-15.2-53.9-15.2s-40.7 7.8-53.9 15.2c-12 6.8-23.3 13.2-46.4 13.2-23 0-34.4-6.4-46.4-13.2-13.2-7.5-26.8-15.2-53.9-15.2s-40.7 7.8-53.9 15.2c-12 6.8-23.3 13.2-46.4 13.2-23 0-34.4-6.4-46.4-13.2-13-7.4-26.4-15-52.7-15.2V371c22.2.2 33.4 6.5 45.2 13.2 13.2 7.5 26.8 15.2 53.9 15.2s40.7-7.8 53.9-15.2c12-6.8 23.3-13.2 46.4-13.2s34.4 6.4 46.4 13.2c13.2 7.5 26.8 15.2 53.9 15.2s40.7-7.8 53.9-15.2c12-6.8 23.3-13.2 46.4-13.2 23 0 34.4 6.4 46.4 13.2 13.2 7.5 26.8 15.2 53.9 15.2s40.7-7.8 53.9-15.2c12-6.8 23.3-13.2 46.4-13.2 23 0 34.4 6.4 46.4 13.2 13.2 7.5 26.8 15.2 53.9 15.2 27.1 0 40.7-7.8 53.9-15.2 11.8-6.7 22.9-13 45.2-13.2V264.9c-26.3.2-39.7 7.9-52.7 15.2z"/><path class="st2" d="M700.9 384.2c-23.1 0-34.4-6.4-46.4-13.2-13.2-7.5-26.8-15.2-53.9-15.2-27.1 0-40.7 7.8-53.9 15.2-12 6.8-23.3 13.2-46.4 13.2-23 0-34.4-6.4-46.4-13.2-13.2-7.5-26.8-15.2-53.9-15.2s-40.7 7.8-53.9 15.2c-12 6.8-23.3 13.2-46.4 13.2-23 0-34.4-6.4-46.4-13.2-13.2-7.5-26.8-15.2-53.9-15.2s-40.7 7.8-53.9 15.2c-12 6.8-23.3 13.2-46.4 13.2-23 0-34.4-6.4-46.4-13.2-13-7.4-26.4-15-52.7-15.2v15.3c22.2.2 33.4 6.5 45.2 13.2 13.2 7.5 26.8 15.2 53.9 15.2s40.7-7.8 53.9-15.2c12-6.8 23.3-13.2 46.4-13.2s34.4 6.4 46.4 13.2c13.2 7.5 26.8 15.2 53.9 15.2s40.7-7.8 53.9-15.2c12-6.8 23.3-13.2 46.4-13.2 23 0 34.4 6.4 46.4 13.2 13.2 7.5 26.8 15.2 53.9 15.2s40.7-7.8 53.9-15.2c12-6.8 23.3-13.2 46.4-13.2 23 0 34.4 6.4 46.4 13.2 13.2 7.5 26.8 15.2 53.9 15.2 27.1 0 40.7-7.8 53.9-15.2 11.8-6.7 22.9-13 45.2-13.2v-15.3c-26.3.2-39.7 7.9-52.7 15.2-12 6.8-23.4 13.2-46.4 13.2zm0-90.8c-23.1 0-34.4-6.4-46.4-13.2-13.2-7.5-26.8-15.2-53.9-15.2-27.1 0-40.7 7.8-53.9 15.2-12 6.8-23.3 13.2-46.4 13.2-23 0-34.4-6.4-46.4-13.2-13.2-7.5-26.8-15.2-53.9-15.2s-40.7 7.8-53.9 15.2c-12 6.8-23.3 13.2-46.4 13.2-23 0-34.4-6.4-46.4-13.2-13.2-7.5-26.8-15.2-53.9-15.2s-40.7 7.8-53.9 15.2c-12 6.8-23.3 13.2-46.4 13.2-23 0-34.4-6.4-46.4-13.2-13-7.4-26.4-15-52.7-15.2v15.3c22.2.2 33.4 6.5 45.2 13.2 13.2 7.5 26.8 15.2 53.9 15.2s40.7-7.8 53.9-15.2c12-6.8 23.3-13.2 46.4-13.2s34.4 6.4 46.4 13.2c13.2 7.5 26.8 15.2 53.9 15.2s40.7-7.8 53.9-15.2c12-6.8 23.3-13.2 46.4-13.2 23 0 34.4 6.4 46.4 13.2 13.2 7.5 26.8 15.2 53.9 15.2s40.7-7.8 53.9-15.2c12-6.8 23.3-13.2 46.4-13.2 23 0 34.4 6.4 46.4 13.2 13.2 7.5 26.8 15.2 53.9 15.2 27.1 0 40.7-7.8 53.9-15.2 11.8-6.7 22.9-13 45.2-13.2V265c-26.3.2-39.7 7.9-52.7 15.2-12 6.8-23.4 13.2-46.4 13.2z"/><path class="st1" d="M747.3 97.7c-12 6.8-23.3 13.2-46.4 13.2-23.1 0-34.4-6.4-46.4-13.2-13.2-7.5-26.8-15.2-53.9-15.2-27.1 0-40.7 7.8-53.9 15.2-12 6.8-23.3 13.2-46.4 13.2-23 0-34.4-6.4-46.4-13.2-13.2-7.5-26.8-15.2-53.9-15.2s-40.7 7.8-53.9 15.2c-12 6.8-23.3 13.2-46.4 13.2-23 0-34.4-6.4-46.4-13.2-13.2-7.5-26.8-15.2-53.9-15.2s-40.7 7.8-53.9 15.2c-12 6.8-23.3 13.2-46.4 13.2-23 0-34.4-6.4-46.4-13.2-13-7.4-26.4-15-52.7-15.2v106.2c22.2.2 33.4 6.5 45.2 13.2 13.2 7.5 26.8 15.2 53.9 15.2s40.7-7.8 53.9-15.2c12-6.8 23.3-13.2 46.4-13.2s34.4 6.4 46.4 13.2c13.2 7.5 26.8 15.2 53.9 15.2s40.7-7.8 53.9-15.2c12-6.8 23.3-13.2 46.4-13.2 23 0 34.4 6.4 46.4 13.2 13.2 7.5 26.8 15.2 53.9 15.2s40.7-7.8 53.9-15.2c12-6.8 23.3-13.2 46.4-13.2 23 0 34.4 6.4 46.4 13.2 13.2 7.5 26.8 15.2 53.9 15.2 27.1 0 40.7-7.8 53.9-15.2 11.8-6.7 22.9-13 45.2-13.2V82.5c-26.3.2-39.7 7.8-52.7 15.2z"/><path class="st2" d="M700.9 201.7c-23.1 0-34.4-6.4-46.4-13.2-13.2-7.5-26.8-15.2-53.9-15.2-27.1 0-40.7 7.8-53.9 15.2-12 6.8-23.3 13.2-46.4 13.2-23 0-34.4-6.4-46.4-13.2-13.2-7.5-26.8-15.2-53.9-15.2s-40.7 7.8-53.9 15.2c-12 6.8-23.3 13.2-46.4 13.2-23 0-34.4-6.4-46.4-13.2-13.2-7.5-26.8-15.2-53.9-15.2s-40.7 7.8-53.9 15.2c-12 6.8-23.3 13.2-46.4 13.2-23 0-34.4-6.4-46.4-13.2-13-7.4-26.4-15-52.7-15.2v15.3c22.2.2 33.4 6.5 45.2 13.2C58.4 209.3 72 217 99.1 217s40.7-7.8 53.9-15.2c12-6.8 23.3-13.2 46.4-13.2s34.4 6.4 46.4 13.2c13.2 7.5 26.8 15.2 53.9 15.2s40.7-7.8 53.9-15.2c12-6.8 23.3-13.2 46.4-13.2 23 0 34.4 6.4 46.4 13.2 13.2 7.5 26.8 15.2 53.9 15.2s40.7-7.8 53.9-15.2c12-6.8 23.3-13.2 46.4-13.2 23 0 34.4 6.4 46.4 13.2 13.2 7.5 26.8 15.2 53.9 15.2 27.1 0 40.7-7.8 53.9-15.2 11.8-6.7 22.9-13 45.2-13.2v-15.3c-26.3.2-39.7 7.9-52.7 15.2-12 6.8-23.4 13.2-46.4 13.2zm0-90.8c-23.1 0-34.4-6.4-46.4-13.2-13.2-7.5-26.8-15.2-53.9-15.2-27.1 0-40.7 7.8-53.9 15.2-12 6.8-23.3 13.2-46.4 13.2-23 0-34.4-6.4-46.4-13.2-13.2-7.5-26.8-15.2-53.9-15.2s-40.7 7.8-53.9 15.2c-12 6.8-23.3 13.2-46.4 13.2-23 0-34.4-6.4-46.4-13.2-13.2-7.5-26.8-15.2-53.9-15.2s-40.7 7.8-53.9 15.2c-12 6.8-23.3 13.2-46.4 13.2-23 0-34.4-6.4-46.4-13.2-13-7.4-26.4-15-52.7-15.2v15.3c22.2.2 33.4 6.5 45.2 13.2 13.2 7.5 26.8 15.2 53.9 15.2s40.7-7.8 53.9-15.2c12-6.8 23.3-13.2 46.4-13.2s34.4 6.4 46.4 13.2c13.2 7.5 26.8 15.2 53.9 15.2s40.7-7.8 53.9-15.2c12-6.8 23.3-13.2 46.4-13.2 23 0 34.4 6.4 46.4 13.2 13.2 7.5 26.8 15.2 53.9 15.2s40.7-7.8 53.9-15.2c12-6.8 23.3-13.2 46.4-13.2 23 0 34.4 6.4 46.4 13.2 13.2 7.5 26.8 15.2 53.9 15.2 27.1 0 40.7-7.8 53.9-15.2 11.8-6.7 22.9-13 45.2-13.2V82.4c-26.3.2-39.7 7.9-52.7 15.2-12 6.9-23.4 13.3-46.4 13.3z"/><path class="st2" d="M535 67.4c-55.4 13.5-100.3 2.9-121.6-4.3-4.6-2.4-11.9-5.1-12.3-5.2l-1.1-.2-1.1.2c-.3 0-7.7 2.8-12.3 5.2-21.3 7.2-66.2 17.7-121.6 4.3-16.3-4-52.6-22.4-52.6-22.4v168.3c-.4 51.8 17.7 96.1 52.3 134.3 17.7 19.5 37.9 35.6 61.8 47.2 19.5 9.5 38.8 19.3 58.1 29.2 3.9 2.5 13.9 6.3 14.3 6.3l1.1.2 1.1-.2c.4 0 10.5-3.8 14.3-6.3 19.3-9.9 38.6-19.8 58.1-29.2 23.9-11.6 44.1-27.7 61.8-47.2 34.6-38.2 52.7-82.5 52.3-134.3V45S551.3 63.4 535 67.4z"/><path d="M344.1 166.4c-7.4-9-14-18.4-18.9-29-4.1-8.9-7.9-14.3-21.3-11.1l-4.2-19.4c0-.2-.2-.3-.3-.2l-4.2.9c-.2 0-.3.2-.2.3l2.9 13.5c.4 2.2.8 4.5 1.3 6.7-8.7 3.7-12.2 6.8-13.1 13.6-2.2 15.3-7 29.8-11.9 44.3-2.7 7.9-4 16.1-2.4 24.4 3.6 19.1 20.6 32.7 40.4 32.4 19.2-.3 33.6-9.4 39.7-25.7 6.7-18.4 4.7-35.4-7.8-50.7zm175.8 0c-7.4-9-14-18.4-18.9-29-4.1-8.9-7.9-14.3-21.3-11.1l-4.2-19.4c0-.2-.2-.3-.3-.2l-4.2.9c-.2 0-.3.2-.2.3l2.9 13.5c.4 2.2.8 4.5 1.3 6.7-8.7 3.7-12.2 6.8-13.1 13.6-2.2 15.3-7 29.8-11.9 44.3-2.7 7.9-4 16.1-2.4 24.4 3.6 19.1 20.6 32.7 40.4 32.4 19.2-.3 33.6-9.4 39.7-25.7 6.7-18.4 4.7-35.4-7.8-50.7zM432.8 302c-7.4-9-14-18.4-18.9-29-4.1-8.9-7.9-14.3-21.3-11.1l-4.2-19.4c0-.2-.2-.3-.3-.2l-4.2.9c-.2 0-.3.2-.2.3l2.9 13.5c.4 2.2.8 4.5 1.3 6.7-8.7 3.7-12.2 6.8-13.1 13.6-2.2 15.3-7 29.8-11.9 44.3-2.7 7.9-4 16.1-2.4 24.4 3.6 19.1 20.6 32.7 40.4 32.4 19.2-.3 33.6-9.4 39.7-25.7 6.7-18.4 4.8-35.4-7.8-50.7z"/><path d="M589.8 41.3c-1.3-.8-2.8-.8-4.2-.2-.4.2-36 18.3-51.7 22.1-53.8 13.1-97.5 3.1-118.9-4.1-3.4-1.7-11.2-5-13.3-5.4l-1.1-.2c-.4-.1-.8-.1-1.2 0l-1.1.2c-2.1.4-9.9 3.7-13.3 5.4-21.4 7.2-65.1 17.1-118.9 4.1-15.6-3.8-51.3-21.9-51.7-22.1-1.3-.7-2.9-.6-4.2.2s-2 2.1-2 3.6v168.6c-.4 51.3 17.6 97.4 53.4 136.8 19.2 21.1 39.8 36.9 63.1 48.2 19.7 9.6 39.1 19.5 57.8 29.1 3.8 2.4 13.6 6.4 15.9 6.9l1.1.2h1.2l1.1-.2c2.3-.4 12.1-4.5 15.8-6.9 18.8-9.6 38.2-19.5 57.8-29.1 23.3-11.3 43.9-27.1 63.1-48.2 35.8-39.5 53.8-85.5 53.4-136.8V45c0-1.5-.8-2.9-2.1-3.7zm-6.4 171.6v.4c.4 50-16.3 92.9-51.2 131.4-18.4 20.3-38.2 35.4-60.5 46.3-19.8 9.6-39.3 19.6-58.2 29.3-.1.1-.3.1-.4.2-2.9 1.9-11 5.1-12.9 5.7h-.4c-1.9-.6-10-3.8-12.9-5.7-.1-.1-.3-.2-.4-.2-18.9-9.7-38.4-19.6-58.2-29.3-22.3-10.8-42.1-26-60.5-46.3-34.9-38.4-51.6-81.4-51.2-131.4V51.8c11.2 5.5 34.7 16.6 47.3 19.7 56.2 13.6 101.8 3.1 124-4.4l.6-.3c3.8-2 9.8-4.3 11.2-4.8h.4c1.4.5 7.4 2.8 11.2 4.8l.6.3c22.2 7.5 67.8 18 124 4.4 12.6-3.1 36.1-14.2 47.3-19.7v161.1h.2z"/></svg>