<svg xmlns="http://www.w3.org/2000/svg" xmlns:xlink="http://www.w3.org/1999/xlink" width="429" height="260" xmlns:cgf="https://coding.garden/flags"><metadata id="cgf-metadata">

<cgf:flag>
  <cgf:name></cgf:name>
  <cgf:route>gb/wsx</cgf:route>
  <cgf:aspect-ratio>1.65</cgf:aspect-ratio>
</cgf:flag>

</metadata><path d="M0 0h429v260H0z" fill="#fcc917"></path><path d="M0 86h429v174H0z" fill="#00f"></path><use height="100%" width="100%" xlink:href="#a" x="-120" transform="matrix(.95 0 0 .95 -15.259 6.62)"></use><g id="a"><path d="m179.125 32.8 4.667-3.333s1.666-5.917 5.75-5.917c4.083 0 10.833 2.75 10.833 6.917v10s.75 5.25 8.084 6c7.333.75 29.249 2.5 29.249 2.5l-16.333 11.75 28.167 12.667-16.5 2.417 5.583 12.667s-24.916-15.167-25.583-15.25c.083 2.583.083 6.333.083 6.333l-6.583-4.5-4.25 6.5-2.25-14.75s-1.25.583-1.167 1.583c.084 1 1.25 9 1.25 9l-5.75-5.5-3.5 3.25-.083-7.667 3.917-.167s-13.667-9.5-14.334-15.5c-.644-5.798-.307-3.751 0-5.833.305-2.063 3.334-6 3.5-6.417.167-.417.584-1.25-.25-2.25-.833-1-4.5-4.5-4.5-4.5z" stroke-miterlimit="10" fill="#fcc917" stroke="#000" transform="matrix(.95 0 0 .95 10.741 78.82)"></path><path d="M190.625 43.8s-9.583 9.298 16.25 18.167c7.373 2.531 27.095-.739 34-1.417 0 0-33.6-10.116-39.258-17.433" stroke-miterlimit="10" fill="#fcc917" stroke="#000" stroke-linecap="square" transform="matrix(.95 0 0 .95 10.741 78.82)"></path><path d="M198.625 45.966c3.993 2.171 7.84 4.466 11.794 6.551a82.911 82.911 0 0 0 6.001 2.933c2.047.865 4.125 1.654 6.371 2.016-2.282.267-4.605-.235-6.779-.919-2.191-.693-4.276-1.651-6.296-2.706a55.975 55.975 0 0 1-5.805-3.58c-1.856-1.307-3.649-2.709-5.286-4.295zm-2.417 1.25a103.884 103.884 0 0 0 4.89 3.82c1.664 1.199 3.351 2.348 5.117 3.352 3.515 2.044 7.272 3.58 11.409 4.245-2.085.283-4.242.058-6.295-.487-2.063-.536-4.023-1.411-5.864-2.46a30.389 30.389 0 0 1-5.103-3.745c-1.556-1.416-2.997-2.967-4.154-4.725zm-3.083 1.917a63.523 63.523 0 0 0 4.433 3.858c1.529 1.19 3.099 2.313 4.758 3.276a32.436 32.436 0 0 0 5.173 2.499c1.802.676 3.678 1.165 5.637 1.535-1.979.256-4.024.081-5.984-.417-1.967-.486-3.843-1.309-5.588-2.326a24.944 24.944 0 0 1-4.767-3.693c-1.424-1.412-2.712-2.972-3.662-4.732zm20 20.385 18.167.865-18.167.865.864-.84.053 2.838-2-.059.218-2.83.068-.877zm-30.417-36.135c.665-.398 1.406-.399 2.101-.206.343.114.684.28.961.543.277.254.499.603.521.996-.362-.146-.646-.24-.931-.331l-.846-.253c-.568-.188-1.151-.358-1.806-.749zm10.979-2.979s-3.25-1.146-6.625-.729c1.5-1.209 3.75-3.334 6.625.729z" transform="matrix(.95 0 0 .95 10.741 78.82)"></path></g><use height="100%" width="100%" xlink:href="#a" x="120" transform="matrix(.95 0 0 .95 36.741 6.62)"></use><g transform="translate(-2)"><use transform="matrix(.95 0 0 .95 -.259 -23.63)" y="75" x="-60" xlink:href="#a" width="100%" height="100%"></use><use transform="matrix(.95 0 0 .95 31.741 -23.63)" y="75" x="60" xlink:href="#a" width="100%" height="100%"></use></g><use height="100%" width="100%" xlink:href="#a" y="150" transform="matrix(.95 0 0 .95 10.741 -53.88)"></use></svg>