<svg xmlns="http://www.w3.org/2000/svg" width="350" height="200" version="1"><path d="M350 0v200H0V0h350z" fill="#fff" fill-rule="evenodd"/><path d="M132.822 57.968h82.881v54.954c-.008 24.315-17.878 43.98-40.008 43.98-21.628 0-42.084-17.818-42.873-40.107V57.968z" stroke-miterlimit="3.864" fill="#0071bc" stroke="#000" stroke-width=".561" stroke-linecap="round"/><g fill-rule="evenodd"><path d="m139.59 126.2-.053 7.517-4.165.054-.054-19.524h22.823l.27 19.092-4.38.054-.054-7.085c.023-8.692-13.705-10.544-14.386-.109z" fill="#eac102" stroke="#000" stroke-width=".247"/><path d="m135.27 116.577 22.968-.073" fill="none" stroke="#232118" stroke-width=".124"/><path d="m158.112 115.264-22.864-.147" fill="none" stroke="#232118" stroke-width=".149"/><path d="M137.78 126.862c-.058-12.865 17.606-12.817 17.994-.024" fill="none" stroke="#232118" stroke-width=".22"/><path d="m158.296 130.853-4.088.074" fill="none" stroke="#232118" stroke-width=".147"/><path d="m135.124 127.034 4.356-.064m14.68-.046 4.146-.052" fill="none" stroke="#232118" stroke-width=".11"/><path d="m154.162 130.95 4.284-2.831" fill="none" stroke="#232118" stroke-width=".147"/><path d="m154.093 132.109 4.29.008" fill="none" stroke="#000" stroke-width=".103"/><path d="M156.163 130.976v1.206" fill="none" stroke="#232118" stroke-width=".189"/><path d="M154.97 132.072v1.142" fill="none" stroke="#232118" stroke-width=".158"/><path d="M157.355 132.127v1.117" fill="none" stroke="#232118" stroke-width=".156"/><path d="M139.536 131.278h-4.33" fill="none" stroke="#232118" stroke-width=".106"/><path d="m135.222 128.472 4.271 2.771" fill="none" stroke="#232118" stroke-width=".152"/><path d="M136.244 132.414v1.217" fill="none" stroke="#232118" stroke-width=".163"/><path d="m135.386 132.457 4.211.014" fill="none" stroke="#000" stroke-width=".096"/><path d="M137.436 131.272v1.203" fill="none" stroke="#232118" stroke-width=".166"/><path d="M138.673 132.478v1.117" fill="none" stroke="#232118" stroke-width=".156"/><path d="M155.803 125.716h2.383m-2.653-1.475h2.572m-3.022-1.701h3.146m-4.274-1.467 4.155-.018m-5.15-1.451 5.118-.03m-7.293-1.445 7.285-.103" fill="none" stroke="#000" stroke-width=".11"/><path d="M156.883 124.195v1.578" fill="none" stroke="#000" stroke-width=".13"/><path d="M156.793 121.126v1.361" fill="none" stroke="#000" stroke-width=".11"/><path d="M156.613 118.182v1.362" fill="none" stroke="#000" stroke-width=".102"/><path d="M155.533 119.596v1.478" fill="none" stroke="#000" stroke-width=".114"/><path d="M154.273 115.17v1.332" fill="none" stroke="#000" stroke-width=".103"/><path d="M151.304 115.16v1.493m5.579-1.62v1.52" fill="none" stroke="#000" stroke-width=".11"/><path d="M154.004 118.153v1.44" fill="none" stroke="#000" stroke-width=".098"/><path d="M155.263 116.57v1.462" fill="none" stroke="#000" stroke-width=".116"/><path d="M152.654 116.532v1.698m-4.049-3.094v1.314" fill="none" stroke="#000" stroke-width=".11"/><path d="M146.22 115.149v1.488" fill="none" stroke="#000" stroke-width=".103"/><path d="m135.12 126.946 4.278-.073" fill="none" stroke="#232118" stroke-width=".11"/><path d="M135.394 125.728h2.438" fill="none" stroke="#000" stroke-width=".115"/><path d="M135.213 124.253h2.758" fill="none" stroke="#000" stroke-width=".11"/><path d="M135.215 122.55h3.246" fill="none" stroke="#000" stroke-width=".114"/><path d="m135.279 121.09 4.065-.03m-4.212-1.439 5.398-.041" fill="none" stroke="#000" stroke-width=".11"/><path d="m135.285 118.146 7.393-.042" fill="none" stroke="#000" stroke-width=".109"/><path d="M136.502 124.315v1.475" fill="none" stroke="#000" stroke-width=".11"/><path d="M136.517 121.145v1.434" fill="none" stroke="#000" stroke-width=".118"/><path d="M136.322 118.187v1.362" fill="none" stroke="#000" stroke-width=".11"/><path d="M136.322 115.23v1.249" fill="none" stroke="#000" stroke-width=".101"/><path d="M139.021 115.045v1.519m-1.08 2.906v1.52m-.211-4.403v1.518" fill="none" stroke="#000" stroke-width=".11"/><path d="M140.281 116.508v1.556" fill="none" stroke="#000" stroke-width=".111"/><path d="M139.111 118.108v1.433" fill="none" stroke="#000" stroke-width=".103"/><path d="M141.54 115.258v1.326" fill="none" stroke="#000" stroke-width=".115"/><path d="M144.06 115.029v1.537" fill="none" stroke="#000" stroke-width=".119"/><path d="M150.08 116.6v1.248" fill="none" stroke="#000" stroke-width=".11"/><path d="M147.392 116.658v.651" fill="none" stroke="#000" stroke-width=".128"/><path d="M144.927 116.588v.871" fill="none" stroke="#000" stroke-width=".092"/><path d="M142.573 116.572v1.545" fill="none" stroke="#000" stroke-width=".122"/><path d="M141.618 118.142v.652" fill="none" stroke="#000" stroke-width=".079"/><path d="M158.31 127.023h-4.087" fill="none" stroke="#232118" stroke-width=".147"/><path d="m154.108 128.206 4.142-.066" fill="none" stroke="#000" stroke-width=".103"/><path d="M156.178 127.073v1.206" fill="none" stroke="#232118" stroke-width=".189"/><path d="M154.986 128.168v1.143" fill="none" stroke="#232118" stroke-width=".158"/><path d="M157.37 128.19v.622" fill="none" stroke="#232118" stroke-width=".116"/><path d="M154.23 129.32h2.327" fill="none" stroke="#000" stroke-width=".106"/><path d="m139.238 126.99-3.844-.071" fill="none" stroke="#232118" stroke-width=".088"/><path d="m139.5 128.136-4.24.028" fill="none" stroke="#000" stroke-width=".135"/><path d="M137.439 126.875v1.242" fill="none" stroke="#232118" stroke-width=".142"/><path d="M138.599 128.21v1.142" fill="none" stroke="#232118" stroke-width=".158"/><path d="M136.214 128.253v.78" fill="none" stroke="#232118" stroke-width=".13"/><path d="M139.534 129.36h-2.908" fill="none" stroke="#000" stroke-width=".119"/><path d="m137.897 125.637 1.682.146m14.389.205 1.637-.41m-7.639-8.146-.396 1.64" fill="none" stroke="#000" stroke-width=".123"/><path d="m145.882 117.15.481 1.91" fill="none" stroke="#000" stroke-width=".142"/><path d="m138.007 124.247 1.682.146m-1.144-1.756 1.63.442" fill="none" stroke="#000" stroke-width=".123"/><path d="m139.353 120.944 1.549.83" fill="none" stroke="#000" stroke-width=".119"/><path d="m140.712 119.387 1.463 1.458" fill="none" stroke="#000" stroke-width=".152"/><path d="m142.462 118.244.814 1.478" fill="none" stroke="#000" stroke-width=".123"/><path d="m144.25 117.47.601 1.93" fill="none" stroke="#000" stroke-width=".136"/><path d="m153.727 124.592 1.681-.543" fill="none" stroke="#000" stroke-width=".123"/><path d="m153.186 122.826 1.447-.667" fill="none" stroke="#000" stroke-width=".185"/><path d="m150.786 120.264.982-1.246" fill="none" stroke="#000" stroke-width=".086"/><path d="m149.32 119.386.699-1.537m2.167 3.507 1.4-.944" fill="none" stroke="#000" stroke-width=".123"/></g><g fill-rule="evenodd"><path d="m196.74 126.149-.053 7.517-4.165.055-.054-19.525h22.824l.27 19.092-4.38.054-.055-7.085c.023-8.691-13.704-10.543-14.386-.108z" fill="#eac102" stroke="#000" stroke-width=".247"/><path d="m192.421 116.527 22.967-.073" fill="none" stroke="#232118" stroke-width=".124"/><path d="m215.263 115.214-22.864-.147" fill="none" stroke="#232118" stroke-width=".149"/><path d="M194.931 126.81c-.058-12.864 17.605-12.816 17.993-.023" fill="none" stroke="#232118" stroke-width=".22"/><path d="m215.446 130.803-4.088.073" fill="none" stroke="#232118" stroke-width=".147"/><path d="m192.275 126.983 4.355-.063m14.68-.047 4.147-.052" fill="none" stroke="#232118" stroke-width=".11"/><path d="m211.312 130.9 4.284-2.832" fill="none" stroke="#232118" stroke-width=".147"/><path d="m211.243 132.058 4.29.008" fill="none" stroke="#000" stroke-width=".103"/><path d="M213.314 130.925v1.207" fill="none" stroke="#232118" stroke-width=".189"/><path d="M212.121 132.021v1.142" fill="none" stroke="#232118" stroke-width=".158"/><path d="M214.506 132.076v1.118" fill="none" stroke="#232118" stroke-width=".156"/><path d="M196.686 131.227h-4.33" fill="none" stroke="#232118" stroke-width=".105"/><path d="m192.372 128.422 4.272 2.77" fill="none" stroke="#232118" stroke-width=".152"/><path d="M193.394 132.363v1.218" fill="none" stroke="#232118" stroke-width=".163"/><path d="m192.536 132.406 4.212.014" fill="none" stroke="#000" stroke-width=".096"/><path d="M194.586 131.222v1.202" fill="none" stroke="#232118" stroke-width=".166"/><path d="M195.824 132.427v1.118" fill="none" stroke="#232118" stroke-width=".156"/><path d="M212.954 125.666h2.382m-2.652-1.476h2.572m-3.022-1.701h3.145m-4.274-1.466 4.156-.019m-5.15-1.451 5.117-.03m-7.292-1.445 7.284-.103" fill="none" stroke="#000" stroke-width=".11"/><path d="M214.033 124.144v1.578" fill="none" stroke="#000" stroke-width=".13"/><path d="M213.943 121.075v1.362" fill="none" stroke="#000" stroke-width=".11"/><path d="M213.763 118.131v1.363" fill="none" stroke="#000" stroke-width=".102"/><path d="M212.684 119.545v1.478" fill="none" stroke="#000" stroke-width=".114"/><path d="M211.424 115.12v1.331" fill="none" stroke="#000" stroke-width=".103"/><path d="M208.454 115.11v1.492m5.579-1.619v1.519" fill="none" stroke="#000" stroke-width=".11"/><path d="M211.154 118.103v1.44" fill="none" stroke="#000" stroke-width=".098"/><path d="M212.414 116.519v1.463" fill="none" stroke="#000" stroke-width=".116"/><path d="M209.804 116.481v1.699m-4.049-3.095v1.314" fill="none" stroke="#000" stroke-width=".11"/><path d="M203.37 115.098v1.488" fill="none" stroke="#000" stroke-width=".104"/><path d="m192.27 126.895 4.278-.073" fill="none" stroke="#232118" stroke-width=".11"/><path d="M192.544 125.677h2.439" fill="none" stroke="#000" stroke-width=".115"/><path d="M192.363 124.202h2.758" fill="none" stroke="#000" stroke-width=".11"/><path d="M192.365 122.5h3.247" fill="none" stroke="#000" stroke-width=".114"/><path d="m192.43 121.04 4.064-.03m-4.212-1.44 5.398-.041" fill="none" stroke="#000" stroke-width=".11"/><path d="m192.436 118.096 7.393-.042" fill="none" stroke="#000" stroke-width=".109"/><path d="M193.652 124.264v1.475" fill="none" stroke="#000" stroke-width=".11"/><path d="M193.668 121.094v1.434" fill="none" stroke="#000" stroke-width=".118"/><path d="M193.472 118.136v1.362" fill="none" stroke="#000" stroke-width=".11"/><path d="M193.472 115.178v1.25" fill="none" stroke="#000" stroke-width=".101"/><path d="M196.172 114.994v1.52m-1.08 2.906v1.519m-.212-4.403v1.519" fill="none" stroke="#000" stroke-width=".11"/><path d="M197.431 116.457v1.556" fill="none" stroke="#000" stroke-width=".111"/><path d="M196.262 118.057v1.433" fill="none" stroke="#000" stroke-width=".103"/><path d="M198.691 115.207v1.327" fill="none" stroke="#000" stroke-width=".115"/><path d="M201.21 114.978v1.537" fill="none" stroke="#000" stroke-width=".119"/><path d="M207.231 116.55v1.247" fill="none" stroke="#000" stroke-width=".11"/><path d="M204.543 116.607v.652" fill="none" stroke="#000" stroke-width=".128"/><path d="M202.077 116.538v.87" fill="none" stroke="#000" stroke-width=".092"/><path d="M199.723 116.522v1.545" fill="none" stroke="#000" stroke-width=".122"/><path d="M198.768 118.092v.651" fill="none" stroke="#000" stroke-width=".079"/><path d="M215.461 126.973h-4.088" fill="none" stroke="#232118" stroke-width=".147"/><path d="m211.258 128.155 4.143-.066" fill="none" stroke="#000" stroke-width=".103"/><path d="M213.328 127.022v1.206" fill="none" stroke="#232118" stroke-width=".189"/><path d="M212.136 128.118v1.142" fill="none" stroke="#232118" stroke-width=".158"/><path d="M214.52 128.14v.621" fill="none" stroke="#232118" stroke-width=".116"/><path d="M211.381 129.27h2.326" fill="none" stroke="#000" stroke-width=".106"/><path d="m196.389 126.94-3.844-.072" fill="none" stroke="#232118" stroke-width=".088"/><path d="m196.65 128.085-4.24.029" fill="none" stroke="#000" stroke-width=".135"/><path d="M194.589 126.825v1.241" fill="none" stroke="#232118" stroke-width=".142"/><path d="M195.75 128.159v1.142" fill="none" stroke="#232118" stroke-width=".158"/><path d="M193.365 128.202v.78" fill="none" stroke="#232118" stroke-width=".13"/><path d="M196.684 129.31h-2.908" fill="none" stroke="#000" stroke-width=".118"/><path d="m195.048 125.586 1.681.146m14.389.205 1.638-.41m-7.639-8.147-.397 1.642" fill="none" stroke="#000" stroke-width=".123"/><path d="m203.033 117.1.48 1.91" fill="none" stroke="#000" stroke-width=".142"/><path d="m195.158 124.197 1.681.146m-1.144-1.756 1.63.441" fill="none" stroke="#000" stroke-width=".123"/><path d="m196.504 120.894 1.548.83" fill="none" stroke="#000" stroke-width=".119"/><path d="m197.863 119.337 1.462 1.458" fill="none" stroke="#000" stroke-width=".151"/><path d="m199.612 118.193.815 1.479" fill="none" stroke="#000" stroke-width=".123"/><path d="m201.401 117.42.6 1.929" fill="none" stroke="#000" stroke-width=".135"/><path d="m210.877 124.541 1.682-.542" fill="none" stroke="#000" stroke-width=".123"/><path d="m210.337 122.776 1.446-.668" fill="none" stroke="#000" stroke-width=".185"/><path d="m207.937 120.214.982-1.246" fill="none" stroke="#000" stroke-width=".086"/><path d="m206.47 119.335.699-1.536m2.167 3.506 1.4-.943" fill="none" stroke="#000" stroke-width=".123"/></g><g stroke-width=".765" fill="#eac102" fill-rule="evenodd" stroke="#000" stroke-linecap="round" stroke-linejoin="round"><path d="M278.481 337.109v65.288l-9.79-8.33V334.7l9.79 2.408z" transform="matrix(.20352 0 0 .18248 130.266 19.128)"/><path d="m273.824 336.377 4.8 3.045 5.369-5.085-5.538-3.12-4.631 5.16z" transform="matrix(.20352 0 0 .18248 130.266 19.128)"/><path d="m278.455 320.638 5.513 4.007v9.685l-5.513-3.112v-10.58zm-32.95 16.471v65.288l10.07-8.61V334.42l-10.07 2.688z" transform="matrix(.20352 0 0 .18248 130.266 19.128)"/><path d="m250.163 336.377-4.801 3.045-5.369-5.085 5.538-3.12 4.632 5.16z" transform="matrix(.20352 0 0 .18248 130.266 19.128)"/><path d="m245.531 320.638-5.513 4.007v9.685l5.513-3.112v-10.58z" transform="matrix(.20352 0 0 .18248 130.266 19.128)"/><path d="m245.45 331.146 4.436 5.22h24.169l4.428-5.243-33.034.023zm.054-10.509h6.238v4.833h7v-4.833h6.4v4.833h6.84v-4.833h6.446v10.443h-32.924v-10.443zm4.573 15.739v61.967h23.781v-61.967h-23.78zm11.938 11.069c2.663.073 5.133 1.295 5.25 6.622.116 5.326-.032 15.326-.032 15.326h-10.437s-.197-10.423-.125-15.452c.071-5.027 2.68-6.569 5.344-6.496zm-24.825-31.189v86.509l-9.51-7.49v-80.586l9.51 1.567z" transform="matrix(.20352 0 0 .18248 130.266 19.128)"/><path d="m232.533 315.525 4.8 3.044 5.37-5.084-5.539-3.12-4.631 5.16z" transform="matrix(.20352 0 0 .18248 130.266 19.128)"/><path d="m237.164 299.785 5.513 4.008v9.685l-5.513-3.113v-10.58zm-32.95 16.471v86.294l9.23-7.77v-80.372l-9.23 1.848z" transform="matrix(.20352 0 0 .18248 130.266 19.128)"/><path d="m208.872 315.525-4.801 3.044-5.369-5.084 5.538-3.12 4.632 5.16z" transform="matrix(.20352 0 0 .18248 130.266 19.128)"/><path d="m204.24 299.785-5.513 4.008v9.685l5.513-3.113v-10.58z" transform="matrix(.20352 0 0 .18248 130.266 19.128)"/><path d="m204.158 310.294 4.437 5.22h24.17l4.427-5.243-33.034.023zm.055-10.51h6.238v4.834h7v-4.834h6.4v4.834h6.84v-4.834h6.446v10.443h-32.924v-10.443z" transform="matrix(.20352 0 0 .18248 130.266 19.128)"/><path d="M208.765 315.5v83.624h23.812V315.5h-23.812zm11.968 11.32c2.663.072 5.134 1.287 5.25 6.584.117 5.295-.03 15.238-.03 15.238l-10.438-.031s-.197-10.332-.125-15.333c.071-4.998 2.68-6.531 5.343-6.459z" transform="matrix(.20352 0 0 .18248 130.266 19.128)"/><path d="M278.481 337.109v65.288l-9.79-8.33V334.7l9.79 2.408z" transform="matrix(.20352 0 0 .18248 113.46 19.128)"/><path d="m273.824 336.377 4.8 3.045 5.369-5.085-5.538-3.12-4.631 5.16z" transform="matrix(.20352 0 0 .18248 113.46 19.128)"/><path d="m278.455 320.638 5.513 4.007v9.685l-5.513-3.112v-10.58zm-32.95 16.471v65.288l10.07-8.61V334.42l-10.07 2.688z" transform="matrix(.20352 0 0 .18248 113.46 19.128)"/><path d="m250.163 336.377-4.801 3.045-5.369-5.085 5.538-3.12 4.632 5.16z" transform="matrix(.20352 0 0 .18248 113.46 19.128)"/><path d="m245.531 320.638-5.513 4.007v9.685l5.513-3.112v-10.58z" transform="matrix(.20352 0 0 .18248 113.46 19.128)"/><path d="m245.45 331.146 4.436 5.22h24.169l4.428-5.243-33.034.023zm.054-10.509h6.238v4.833h7v-4.833h6.4v4.833h6.84v-4.833h6.446v10.443h-32.924v-10.443zm4.573 15.739v61.967h23.781v-61.967h-23.78zm11.938 11.069c2.663.073 5.133 1.295 5.25 6.622.116 5.326-.032 15.326-.032 15.326h-10.437s-.197-10.423-.125-15.452c.071-5.027 2.68-6.569 5.344-6.496z" transform="matrix(.20352 0 0 .18248 113.46 19.128)"/></g><g stroke-width=".765" fill-rule="evenodd" stroke="#000" stroke-linecap="round" stroke-linejoin="round"><path d="m232.682 361.173 4.509 2.85m-4.509-11.9 4.509 2.849m-4.509-11.9 4.509 2.85m-4.509-11.901 4.509 2.85m-4.509-11.901 4.509 2.85m-28.469 33.353-4.508 2.85m4.508-11.9-4.508 2.849m4.508-11.9-4.508 2.85m4.508-11.901-4.508 2.85m4.508-11.901-4.508 2.85" fill="none" transform="matrix(.20352 0 0 .18248 130.274 19.128)"/><path d="M220.506 351.81v-2.996m-11.816-23.715h23.716m-5.926 8.913h5.752m-6.039 9.31h5.879m-23.382 8.593h23.716m-23.716 9.31h23.716m-11.731 8.173v-7.913m-3.95-.541v-8.789m8.746 8.876v-8.876m-8.746-27.451v-9.08m8.577 8.984.17-8.963" fill="#eac102" transform="matrix(.20352 0 0 .18248 130.274 19.128)"/><path d="m232.682 369.913 4.509 2.85m-28.469-2.85-4.508 2.85" fill="none" transform="matrix(.20352 0 0 .18248 130.274 19.128)"/><path d="M208.69 369.706h23.716" fill="#eac102" transform="matrix(.20352 0 0 .18248 130.274 19.128)"/><path d="m232.682 379.178 4.509 2.85m-28.469-2.85-4.508 2.85" fill="none" transform="matrix(.20352 0 0 .18248 130.274 19.128)"/><path d="M208.69 379.23h23.716m-15.681-.281v-8.789m8.746 8.876v-8.876m-4.796 28.44v-18.96m-11.512-45.628h5.752m-5.815 9.31h5.879m5.527-16.801v-1.384" fill="#eac102" transform="matrix(.20352 0 0 .18248 130.274 19.128)"/><path d="m273.973 382.026 4.508 2.849m-4.508-11.9 4.508 2.85m-4.508-11.901 4.508 2.85m-4.508-11.9 4.508 2.85m-4.508-11.901 4.508 2.85m-28.468 33.353-4.508 2.849m4.508-11.9-4.508 2.85m4.508-11.901-4.508 2.85m4.508-11.9-4.508 2.85m4.508-11.901-4.508 2.85" fill="none" transform="matrix(.20352 0 0 .18248 130.274 19.128)"/><path d="M261.797 372.277v-2.723m-11.816-23.603h23.716m-6.302 8.914h5.809m-5.468 9.309h5.584m-23.339 8.594h23.716m-23.716 9.31h23.716m-11.9 15.967v-15.999m-3.781-.249v-8.789m8.746 8.876v-8.876m-8.746-27.025v-9.485m8.577 9.485.17-9.485m-16.288 18.367h5.809m-5.925 9.309h5.583m5.855-16.871v-1.134" fill="#eac102" transform="matrix(.20352 0 0 .18248 130.274 19.128)"/><path d="m273.973 382.026 4.508 2.849m-4.508-11.9 4.508 2.85m-4.508-11.901 4.508 2.85m-4.508-11.9 4.508 2.85m-4.508-11.901 4.508 2.85m-28.468 33.353-4.508 2.849m4.508-11.9-4.508 2.85m4.508-11.901-4.508 2.85m4.508-11.9-4.508 2.85m4.508-11.901-4.508 2.85" fill="none" transform="matrix(.20352 0 0 .18248 113.467 19.128)"/><path d="M261.797 372.277v-2.723m-11.816-23.603h23.716m-6.302 8.914h5.809m-5.468 9.309h5.584m-23.339 8.594h23.716m-23.716 9.31h23.716m-11.9 15.967v-15.999m-3.781-.249v-8.789m8.746 8.876v-8.876m-8.746-27.025v-9.485m8.577 9.485.17-9.485m-16.288 18.367h5.809m-5.925 9.309h5.583m5.855-16.871v-1.134" fill="#eac102" transform="matrix(.20352 0 0 .18248 113.467 19.128)"/></g><path d="M165.714 86.48s-.036-1.882-.021-2.791c.014-.91.542-1.188 1.084-1.175.542.013 1.047.233 1.07 1.197.025.963-.006 2.77-.006 2.77h-2.127zm16.833.023s-.036-1.882-.022-2.791c.015-.91.543-1.188 1.085-1.175.542.013 1.047.233 1.07 1.197.024.963-.006 2.77-.006 2.77h-2.127zm-8.429-3.782s-.036-1.882-.022-2.791c.015-.91.542-1.188 1.084-1.175.542.013 1.048.234 1.071 1.197.024.963-.006 2.77-.006 2.77h-2.127z" fill="#0071bc" fill-rule="evenodd" stroke="#000" stroke-width=".147" stroke-linecap="round" stroke-linejoin="round"/><path d="m165.344 91.526-4.509 1.083 1.33 1.192v30.888l-2.144 1.916v4.311l4.802 2.492h8.363c-.018-1.46-.051-3.29-.032-4.784a4.49 4.49 0 0 1 .191-1.306c.056-.176.12-.334.197-.473.078-.14.167-.26.261-.365.095-.104.197-.19.305-.262a1.63 1.63 0 0 1 .337-.177c.236-.089.49-.122.745-.114.253.007.499.045.731.13a1.675 1.675 0 0 1 .636.423c.092.102.173.221.248.359.076.138.142.3.197.479.11.36.18.804.191 1.357.032 1.577.008 3.312-.006 4.733h8.35l4.808-2.492v-4.31l-2.143-1.917V93.801l1.323-1.192-4.503-1.083h-19.678zm4.192 4.721a1.45 1.45 0 0 1 .133 0c.719.021 1.387.373 1.418 1.91.032 1.537-.006 4.426-.006 4.426l-2.818-.006s-.05-3.002-.031-4.454c.018-1.36.635-1.839 1.304-1.876zm11.028 0a1.45 1.45 0 0 1 .133 0c.719.021 1.387.373 1.418 1.91.032 1.537-.012 4.426-.012 4.426l-2.817-.006s-.045-3.002-.026-4.454c.018-1.36.635-1.839 1.304-1.876z" fill="#eac102" fill-rule="evenodd" stroke="#000" stroke-width=".147" stroke-linecap="round" stroke-linejoin="round"/><path d="M166.991 97.858h16.547m-23.499 28.746 4.8 2.45v4.323m-2.669-8.684 4.75 1.131m-2.104 3.228 2.097-3.221" fill="none" stroke="#000" stroke-width=".147" stroke-linecap="round" stroke-linejoin="round"/><path d="M166.914 125.797V93.024" fill="none" stroke="#000" stroke-width=".146" stroke-linecap="round" stroke-linejoin="round"/><path d="m165.387 91.534 1.512 1.375m-4.739.9 4.772-.89m23.396 33.685-4.8 2.45v4.323m2.668-8.684-4.748 1.131m2.103 3.228-2.097-3.221" fill="none" stroke="#000" stroke-width=".147" stroke-linecap="round" stroke-linejoin="round"/><path d="M183.452 125.796v-32.82" fill="none" stroke="#000" stroke-width=".146" stroke-linecap="round" stroke-linejoin="round"/><path d="m184.98 91.534-1.512 1.375m4.738.9-4.771-.89m-16.528 32.909h16.546M166.907 92.92h16.546m-5.814 36.129h7.839m-20.595 0h7.838" fill="none" stroke="#000" stroke-width=".147" stroke-linecap="round" stroke-linejoin="round"/><g stroke-width=".765" fill="#eac102" stroke="#000" stroke-linecap="round" stroke-linejoin="round"><path d="m436.374 623.78-3.668.983v7.178l5.329-1.428v-4.62l-1.661-2.113z" fill-rule="evenodd" transform="matrix(.20352 0 0 .18248 99.465 -24.694)"/><path d="m419.934 616.544 8.473 3.75v6.267l7.959 2.5v-5.257l6.488 2.867v15.917l-22.967-5.378.047-20.666zM307.72 623.78l3.669.983v7.178l-5.33-1.428v-4.62l1.662-2.113z" fill-rule="evenodd" transform="matrix(.20352 0 0 .18248 99.465 -24.694)"/><path d="m324.16 616.544-8.473 3.75v6.267l-7.958 2.5v-5.257l-6.488 2.867v15.917l22.967-4.82-.048-21.224z" fill-rule="evenodd" transform="matrix(.20352 0 0 .18248 99.465 -24.694)"/><path d="M343.469 616.563H324.03v20.968h96.031v-20.968h-19.25v8.656h-19.28v-8.657h-18.75v8.657h-19.313v-8.657z" transform="matrix(.20352 0 0 .18248 99.465 -24.694)"/></g><path d="m188.127 115.61-4.63-.233m4.633 2.495-4.595.12m4.605 2.164-4.71.45m4.68 1.82-4.68.794m2.117 8 4.773-2.476m-4.487-13.245v2.388m0 2.51v2.389m0 2.494 2.111 2.524m-.008 4.349v-2.137m-3.49-17.112v2.511m2.962-2.158v2.275m-2.962 2.458v2.482m2.962-2.528v2.304m-2.962 2.791v2.51m2.962-2.966v2.33m-.901 3.639v2.144m2.963-3.629v2.148m-24.652 1.993-4.771-2.501m2.148-13.125 4.736-.233m-4.74 2.496 4.702.118m-4.711 2.165 4.71.45m-4.681 1.821 4.682.793m-2.067 8.002-4.771-2.478m4.485-13.245v2.389m0 2.51v2.388m0 2.495-2.11 2.523m.008 4.35v-2.138m3.49-17.112v2.512m-2.963-2.158v2.274m2.963 2.459v2.482m-2.963-2.529v2.305m2.963 2.79v2.511m-2.963-2.966v2.33m.902 3.638v2.145m-2.962-3.629v2.148m17.624 2.044h7.008m-18.695-25.869h16.546m-16.546 15.242h16.546m-16.546 2.615h16.546m-11.026-5.257v-2.586m5.513 2.586v-2.586m-5.513 7.841v-2.586m5.513 2.586v-2.586m-2.692-5.285v-2.54m0 7.761v-2.54m5.427 2.477v-.623m-10.99 5.926v-2.54m5.563 1.501v-1.5m5.427 2.539v-2.54m-12.039 5.729 1.065-3.154m12.016 3.154-1.064-3.154m-12.041 7.601v-2.19m13.117 2.19v-2.19m-15.117-.053v-2.122m3.445 2.122v-2.122m10.246 2.122v-2.122m3.445 2.122v-2.122m-18.844 2.153h6.872" fill="none" stroke="#000" stroke-width=".147" stroke-linecap="round" stroke-linejoin="round"/><g stroke-width=".742" fill="none" stroke="#000"><g stroke-width=".508" stroke-linecap="round" stroke-linejoin="round"><path transform="matrix(.31412 0 0 .2688 -167.833 52.621)" d="M1066.725 149.687a3.746 3.746 0 0 1 7.491 0h-3.746z"/><path transform="matrix(.31412 0 0 .2688 -165.102 52.621)" d="M1066.725 149.687a3.746 3.746 0 0 1 7.491 0h-3.746z"/><path transform="matrix(.31412 0 0 .2688 -154.177 52.621)" d="M1066.725 149.687a3.746 3.746 0 0 1 7.491 0h-3.746z"/><path transform="matrix(.31412 0 0 .2688 -156.908 52.621)" d="M1066.725 149.687a3.746 3.746 0 0 1 7.491 0h-3.746z"/><path transform="matrix(.31412 0 0 .2688 -159.64 52.621)" d="M1066.725 149.687a3.746 3.746 0 0 1 7.491 0h-3.746z"/><path transform="matrix(.31412 0 0 .2688 -162.37 52.621)" d="M1066.725 149.687a3.746 3.746 0 0 1 7.491 0h-3.746z"/></g><path d="M158.48 407.611s-4.64-5.155-.192-6.35c4.324-1.16 8.76 4.498 8.76 4.498m1.749-.661s-4.638-5.156-.19-6.35c4.323-1.16 8.76 4.498 8.76 4.498m105.558 4.365s4.639-5.155.191-6.35c-4.324-1.16-8.76 4.498-8.76 4.498m-1.749-.661s4.639-5.156.191-6.35c-4.324-1.16-8.76 4.498-8.76 4.498" transform="matrix(.20352 0 0 .18248 130.339 19.324)" stroke-width=".765"/></g><path transform="matrix(.31578 -.00236 .00428 .31576 58.427 -59.155)" fill="#eac102" stroke="#000" stroke-width=".493" stroke-linecap="round" d="M365.021 574.752h20.163v54.632h-20.163z"/><path d="m176.233 125.371 1.59-.005m1.557-3.885.294 17.197m1.306-17.241.18 17.2m-3.371-17.147.18 17.2m-1.725-15.272 1.59-.005m-1.566-.959 1.476-.005m-1.487 1.958 1.476-.005m-1.4 2.857 1.59-.005m-1.566-.959 1.476-.005m-1.511 2.922 1.59-.005m-1.566-.959 1.476-.005m-1.434 3.038 1.59-.005m-1.567-.959 1.477-.004m-1.511 2.922 1.59-.005m-1.567-.96 1.477-.004m-.044-9.302 1.59-.005m-1.567-.959 1.477-.005m-1.511 2.922 1.59-.005m-1.566-.959 1.476-.004m-1.4 2.856 1.59-.005m-1.567-.96 1.477-.004m-1.512 2.922 1.591-.005m-1.566-.959 1.476-.004m-1.435 3.037 1.59-.005m-1.566-.959 1.477-.004m-1.511 2.921 1.59-.004m-1.567-.96 1.477-.004m-3.021 2.348 1.41-.004m.123-.431 1.59-.005m-.19-10.325 1.59-.005m-1.567-.96 1.477-.004m-1.511 2.922 1.59-.005m-1.567-.959 1.477-.005m-1.4 2.857 1.59-.005m-1.567-.959 1.477-.005m-1.511 2.921 1.59-.004m-1.566-.959 1.476-.005m-1.435 3.038 1.59-.005m-1.566-.959 1.476-.005m-1.511 2.922 1.59-.005m-1.566-.959 1.477-.005m-1.487 1.913 1.59-.005m-.106-11.16 1.59-.004m-1.566-.96 1.476-.004m-1.511 2.922 1.59-.005m-1.567-.959 1.477-.005m-1.4 2.856 1.59-.004m-1.567-.96 1.477-.004m-1.511 2.922 1.59-.005m-1.566-.96 1.476-.004m-1.435 3.038 1.59-.005m-1.566-.959 1.477-.005m-1.512 2.922 1.59-.005m-1.566-.959 1.477-.004m-1.488 1.912 1.59-.005" fill="none" stroke="#000" stroke-width=".093"/><path d="m162.151 98.459 4.693-.57m-2.353-2.124v2.388m1.388-.122v2.512m-2.963-2.158v2.274m-.765.293 4.693-.569" stroke-width=".147" fill="none" stroke="#000" stroke-linecap="round" stroke-linejoin="round"/><g fill="#eac102" stroke="#000" stroke-width=".703" fill-rule="evenodd"><path d="M417.747 790.396c2.566 5.952 3.91 12.641 2.634 15.54 2.38-1.341 3.556-.672 6.062.085-.526-3.35-4.396-15.829-8.233-15.432-.042.366-.421-.558-.463-.193z" transform="matrix(-.25802 0 0 .17185 261.158 -49.357)"/><path d="M422.768 798.596c-.48-.13-2.146-.3-3.453-.3-1.618 0-3.095.962-4.219 1.572-1.126.61-1.756 1.08-3.34 1.08-3.103 0-4.314-2.875-4.314-5.193a9.6 9.6 0 0 1 .83-4.005c-.256-.394-.609-.554-.947-.554-1.068 0-2.294 1.703-2.294 5.126 0 5.253 2.583 7.685 5.127 7.685 2.33 0 4.553-1.84 5.543-2.503.993-.656 2.381-1.259 3.248-1.259 1.553 0 3.218.281 3.908.586.012-.137.028-.399.028-.623 0-.704-.052-1.173-.117-1.612" transform="matrix(-.25802 0 0 .17185 261.158 -49.357)"/><path d="M362.162 1003.22c1.853.999 3.489 2.546 5.499 7.932 2.88-.55 7.932-5.991 7.932-11.07 0-1.066-.38-3.676-1.708-5.587-1.473-1.32-4.025-1.938-5.747-1.938-2.219 0-6.44 3.912-5.976 10.663m-158.697-45.06c-3.755 0-8.33 7.966-8.34 7.924 2.04 2.361 1.912 4.853.318 9.922 5.365-.176 14.451-7.852 13.901-12.636 0 0-2.09-5.21-5.88-5.21m-43.827 7.371c-4.377 0-6.568 4.122-7.017 6.037-.09 4.525 5.445 13.345 8.482 15.234 2.309-1.9 3.66-8.27 4.431-10.186 1.17-3.448-.98-11.085-5.896-11.085m-22.061-31.94c-3.358.673-12.688 6.085-12.688 13.547 0 5.494 3.23 9.872 5.305 12.767 1.588-4.592 6.611-7.617 8.514-9.185-3.11-5.019-3.658-12.655-1.131-17.129m27.971-19.516c-.862-.782-5.132-3.93-7.904-3.93-6.07 0-16.198 5.72-16.643 11.565 1.798-.355 11.996-.087 13.865.825-.035-5.415 4.998-6.436 9.577-8.46M132.567 799.25c-5.622 0-5.204 6.068-5.024 9.576.694 2.189 1.6 1.376 1.996 9.7 5.728-4.3 9.153-8.842 9.964-12.628-1.273-4.377-3.639-6.647-6.936-6.647m169.718 176.688c-.798-.57-2.513-.996-4.163-.996-8.024 0-16.251 8.788-14.458 19.521 2.029-2.876 8.843-4.572 11.036-5.178-.55-5.06 3.082-11.325 7.585-13.347m-4.548 37.502c-1.007 0-2.427.217-3.848.826-1.904 1.762-3.404 4.215-3.404 9.724 0 4.349 2.03 8.416 4.38 9.626 3.14-5.696 6.493-8.362 8.194-9.398 1.61-5.135-.34-10.778-5.322-10.778m33.151 7.549c-2.592 0-4.543 2.057-6.337 5.587 1.932 4.75 3.26 9.44 3.444 13.89 4.667-3.329 7.467-7.798 8.306-12.368-.288-3.328-1.99-7.11-5.413-7.11M81.433 786.986c-3.787 1.52-9.237 6.337-9.237 10.218 0 5.258 2.66 9.434 6.634 13.272 1.26-5.657 7.778-9.12 9.534-10.263 1.247-4.027-1.065-12.241-6.93-13.227m20.564 23.871c-4.066 0-6.852 4.52-7.35 5.927-.573 6.139 8.196 14.52 14.176 14.187-.29-3.836-.044-12.773.884-15.66-1.184-4.263-4.784-4.454-7.71-4.454m-6.005-58.59c-1.024-.227-4.496-2.924-6.503-2.924-7.041 0-15.245 3.847-17.557 8.924 3.848-.173 10.534 1.046 12.652 2.089.393-3.074 5.341-5.215 11.408-7.75m31.229-165.686c-6.095-5.768-11.616-6.317-13.423-5.656 1.949-6.396 4.565-8.212 10.28-8.212 5.551 0 10.172 8.183 11.915 11.65-3.552 2.442-12.293-1.408-11.58.886m-10.75 7.371c-3.338-3.711-8.279-5.217-14.65-5.217-9.555 0-17.986 5.837-18.938 11.192 4.44.142 12.97 1.44 15.748 2.596 3.607-3.303 8.34-8.958 17.84-8.571m-19.319 23.118c-8.463.995-18.214 4.302-18.214 10.996 0 5.372 3.13 6.884 6.759 9.425 2.07-5.133 5.084-7.313 9.756-8.583-4.503-3.554-.388-3.906 2.804-10.18m5.809 26.428c-3.335 1.93-7.699 2.829-15.956 3.986 1.776 2.236 12.11 9.861 20.166 9.861 6.152 0 11.393-4.434 15.615-8.833-10.73.08-15.813-2.542-19.825-5.014" transform="matrix(-.06038 0 0 .06529 168.622 47.27)" stroke-width="2.357"/><path d="M427.522 871.506c-1.637 1.519.578 1.47 1.34 2.173 1.437.84 2.64 2.492 3.369 4.566 1.609-.805 3.1.317 4.46 1.531-1.696-5.154-5.218-8.453-8.978-8.561l-.191.291z" transform="matrix(-.25802 0 0 .17185 261.158 -49.357)"/><g stroke-width="2.357"><path d="M292.981 816.58c-3.735 7.431-13.72 2.314-20.244 3.493-27.987-2.504-56.848 14.027-64.498 39.695-5.356 13.402 2.455 29.916-8.343 41.422 1.578 2.432 6.084 3.465 7.362 4.953-5.809 8.38-17.314 13.447-27.689 13.129-4.647-3.262-9.08-8.82-15.787-7.064-8.092.513-13.81 8.462-11.41 15.817-11.106-3.596-20.065 8.607-16.974 18.004.48 6.087 6.58 12.051 12.106 11.67-2.955 6.23-.105 13.314 5.113 17.66-.123-5.137 7.285-11.602 11.533-6.334 2.343 2.885 1.157 6.711 1.104 10.02 10.256-1.209 15.986-10.992 15.583-19.541 3.183-1.229 4.799-1.239 5.848 2.073 1.783 2.545 6.617 7.054 8.979 5.106.971-4.65 7.808-9.436 11.062-3.8 1.978 7.55 5.012.49 6.666-3.072 1.584-2.585.415-6.3.982-8.522 7.594-2.781 14.961-6.087 21.676-10.442.99 5.866 4.054 7.55 8.589 3.608 3-1.614 6.045-5.625 7.894-6.948 1.754 2.758-1.364 13.982 2.936 10.196 14.864-9.937 24.52-26.67 22.42-44.056.426-9.67-9.068-18.063-4.09-27.794 2.603-8.273 11.623-13.72 20.691-11.415 2.66-2.658 2.04-9.42 4.38-13.653 3.227-8.32 8.654-17.113 18.078-20.116-4.853-8.032-13.525-13.131-22.862-15.471l-.786.983-.319.399z" transform="matrix(-.06038 0 0 .06529 168.622 47.373)"/><path d="M454.405 564.246c-3.538 10.764-12.306 19.761-22.78 25.183 1.64-6.114.76-12.499-.655-18.58-12.858 9.072-29.827 14.632-36.972 29.214-4.793 8.965-5.822 19.294-4.867 29.253-24.115 22.085-31.689 58.763-17.546 87.72 9.41 20.622 23.518 40.371 44.703 51.787 14.093 8.497 27.237 22.42 24.13 39.273-.744 15.584-13.364 32.637-31.492 31.594-3.277-.113-10.264-1.136-10.43-4.453 6.774-16.856-4.983-34.357-18.69-44.57-16.96-14.19-38.158-23.301-54.191-38.39-2.974-3.152-4.54-8.074-8.998-4.3-8.882 2.516-18.099.172-26.257-3.3-19.072 19.328-50.313 27.902-76.933 18.128-9.95-2.768-22.79-2.509-29.527 5.98-6.301-6.278-5.86-16.215-2.822-23.84-8.62-1.326-15.536-6.841-19.508-13.974-10.051 8.158-20.985 15.044-33.481 19.36-6.453 1.81-12.503 8.53-19.483 7.167-4.936-3.123-10.746-9.944-17.26-5.297-8.294 4.234-10.599 15.416-4.621 21.958-6.78.618-10.464 9.766-6.951 13.773 6.44 1.331 6.415 9.073 6.664 13.791 1.752 2.312 5.182 2.412 3.313 6.066-.445 5.046 2.183 9.842 6.503 12.822-.086-4.582 6.468-9.922 9.57-4.338 1.2 2.586 1.97 5.567 5.563 2.956 6.505-2.386 3.892-11.272 6.748-14.473 2.17 3.157 6.411 4.067 9.897 5.413-1.569-3.912.165-13.126 6.462-9.751 2.701 2.292 2.91 8.257 7.199 3.954 5.591-3.517 3.834-11.346 3.312-15.778 11.143-6.53 24.61-1.447 33.05 6.597 3.752.207 6.165-6.075 7.522-8.248 4.053 3.726 6.366 8.961 9.489 13.475 5.64-3.014 8.762-9.5 9.979-14.588 6.572.878 12.584 4.348 17.71 8.33 4.01-1.905 6.605-5.59 7.606-9.635 16.563 18.361 41.495 28.71 66.946 29.906 11.728.182 25.446 6.98 30.68 15.585-12.36-3.62-23.748 5.354-28.343 15.586-11.014 22.475-6.684 50.965 11.03 69.263 6.957 6.915 11.922 15.826 10.458 25.674 1.69 2.138 8.405-2.872 10.209-3.723 1.377 6.669 5.552 13.563 12.924 15.624 1.792-3.668 3.342-7.367 5.685-10.749-1.625 15.341-12.616 31.631-29.161 35.626-5.852-.16-10.177-6.663-16.523-3.954-11.083 2.717-14.368 17.1-7.853 24.415-5.3 3.855-5.89 10.656-4.949 16.47 5.123-2.549 10.612 1.164 10.307 6.18-.053 3.44-1.505 6.755 3.517 6.526 3.518.79 7.265-1.712 9.734-2.457 2.298 3.413 8.737 7.445 10.02 1.344 2.425-4.82 9.794-3.117 9.734 2.188.752 4.912 7.469-.065 8.957-2.88 3.017-3.299 2.43-8.36 3.558-11.746 2.746-1.49 4.298-5.96 5.89-7.064 3.388 3.778 12.437 3.035 10.879-3.148.199-5.132 6.044-10.921 11.33-6.624 3.273.283 4.131-6.253 3.189-9.307-.627-3.136-5.084-5.214-.736-7.448 3.968-3.308 6.935-10.388 9.693-12.553 2.57 3.528 8.09 5.212 10.224.537 2.373-2.134.812-8.097 5.235-5.95 6.226 1.142 13.695-1.315 15.583-7.486-9.286-8.22-1.596-20.81-1.35-30.865 1.762-10.785-4.839-25.537-18.24-24.954-4.701.154-9.35 2.485-12.516 5.375-19.195-5.755-22.445-33.973-6.789-45.261 4.791-5.527 11.046 1.61 17.055 1.612 10.372 2.431 22.452 1.462 31.042-4.491 9.238 7.465 23.553.743 27.525-8.868a69.164 69.164 0 0 1 11.534-13.59c-3.684-2.677-8.301-4.61-13.047-3.532 7.175-14.002 4.406-29.84 4.499-44.762 2.364-12.395 14.883-22.865 11.001-36.278-1.049-4.723-2.894-9.21-6.42-2.65-5.536 5.698-16.084 5.777-19.918 13.706-1.93 1.643-1.322 8.22-4.336 4.261-8.17-5.998-16.897-17.62-9.856-27.065 8.1-7.454 23.586-9.221 25.725-21.498.184-3.535 2.262-16.93-1.401-9.797-2.7 5.643-8.03 12.872-15.613 10.104-9.928-3.87-23.617-5.068-30.633 4.223-4.674 4.476-3.923 12.863-3.967 17.122-15.28-13.571-11.68-41.62 8.425-49.522 13.425-6.692 32.172-10.647 36.318-26.528 3.858-9.739 1.137-9.158-5.562-2.341-10.186 9.63-26.029 3.532-37.75 8.906 2.093-3.37 5.47-5.912 8.18-8.868-9.331.685-19.354 1.77-26.748 7.601 4.213-12.869 16.206-23.33 30.879-24.646 24.654-3.87 43.498-24.406 45.234-47.603 1.233-12.634-.326-25.382-4.704-37.353l-2.74 7.448z" transform="matrix(-.06038 0 0 .06529 168.622 47.373)"/><path d="M129.628 581.751c-7.3-.482-12.538 6.286-10.225 12.707.319 2.949 2.334 7.58 1.84 9.367-3.838-5.367-1.126-14.162-8.63-17.275-11.957-4.642-24.788 12.647-15.377 21.537 1.52 1.782 5.148 3.57 5.766 4.99-8.354-2.62-17.667 3.754-16.645 12.208-.77 8.101 5.828 15.422 13.66 17.199.278 9.861 10.18 22.014 21.635 17.927 2.642.096 3.66 5.872 5.44 8.177 5.163 10.554 7.435 21.922 7.157 33.514 4.029.24 8.81-.08 11.493-3.301 2.15 10.34 1.066 21.18-2.372 31.21 5.794 1.722 12.54.219 16.523-4.145 3.097 5.765 2.442 12.334 2.699 18.58 8.753-11.176 9.704-25.895 19.468-36.393 4.614-5.663 10.607-10.863 18.24-12.438-1.628-7.952-2.506-16.24.042-24.07-14.03-9.18-29.778-17.441-40.223-30.537-5.715-11.371-18.004-20.042-20.144-32.768-.143-7.712 6.731-18.451-1.963-24.224-2.411-1.605-5.427-2.47-8.384-2.265z" transform="matrix(-.06038 0 0 .06529 168.622 47.373)"/><path d="M349.447 678.251c3.102-27.39 2.415-40.08.648-44.79 4.562-.287 8.437-1.009 11.965-2.778-3.934-4.368-10.23-13.438-12.24-21.4-1.662-6.57-5.491-16.982-10.204-19.01 3.122-1.136 5.361-2.704 8.057-7.087-8.057-4.36-11.532-9.896-19.635-14.593 2.572-1.709 4.817-4.78 5.563-7.962-4.208-.647-8.234-2.484-12.226-4.705-.642 3.601-1.76 6.915-5.158 11.224l-.515-1.585c2.114-2.793 4.581-6.834 4.581-10.36 0-4.9-5.264-10.723-7.639-12.294-2.58-1.702-5.981-2.115-11.4 2.1-3.975.795-6.027 4.869-8.45 7.247l-.616-.614c2.362-2.607 5.372-5.364 6.826-6.777a16.98 16.98 0 0 0-3.874-.445c-4.562 0-9.02.696-12.58 3.867-22.77 0-34.495 14.788-36.966 21.792-8.746 5.891-18.416 14.87-18.416 21.318 0 1.701.207 2.779.538 3.534 2.346-1.38 6.07-2.647 8.125-4.734l-.055.766c-1.747 2.027-6.088 3.92-7.617 5.038-1.132 1.71-.693 5.89-.693 8.318 0 7.188 6.527 13.366 13.296 13.366 9.655 0 13.066-10.21 12.503-14.911 5.243-.483 20.127 5.56 20.127 22.989 0 10.876-10.44 12.028-14.091 12.028-3.672 0-6.381-1.287-10.425-1.287-4.048 0-5.913 1.639-5.913 4.747 0 4.218 4.264 8.01 8.894 8.01 4.558 0 4.89-4.293 8.537-4.293 2.145 0 5.799 1.282 5.799 8.104 0 6.762-6.208 9.615-12.38 9.615-14.265 0-24.07-11.877-28.221-11.877v14.862c-13.22 0-17.608-4.215-23.096-9.97-4.525 4.21-9.493 12.311-9.493 21.485 0 6.362.459 11.594 1.59 15.237-11.296 1.836-22.938 14.417-28.474 29.149-3.547 9.38-4.508 14.365-11.763 17.903 4.063 11.474 13.1 17.304 21.67 17.67-5.399 7.01-2.245 22.362 1.734 23.035 5.225-5.482 10.8-6.706 16.817-6.706 13.883 0 21.377 5.63 34.84 5.63 25.617 0 41.947-9.956 54.33-22.389 5.635 3.086 23.084 5.234 26.927 5.234 7.56 0 14.026-3.269 17.311-8.474-2.598-3.931-5.786-13.576-3.534-20.619 3.122 2.906 8.954 5.038 13.457 3.916-.97-11.957-7.533-22.93-4.496-27.524 3.455-5.261 5.655-12.023 6.46-16.545h12.625c-1.839-3.212-3.79-8.075-3.05-14.455z" transform="matrix(-.06038 0 0 .06529 168.622 47.373)"/></g><path d="M414.584 797.124c.039.232-.093 2.492.76 2.089 0 0 .27-1.963.27-1.975m.894 7.592c-.111-.326-.774-1.256-.649-1.997-.87.377-.429 1.642-.28 2.723m5.224-22.716s-.798-1.243-1.123-1.81c-3.923-3.3.55.012-1.522 1.131-.814 0-.945-.006-.945-1.244 0-.574.153-1.482.393-1.992.972.166 2.268 1.164 3.266 3.763a1.37 1.37 0 0 0-.07.153z" transform="matrix(-.25802 0 0 .17185 261.158 -49.357)"/></g><path d="M166.898 117.983h16.547m-2.605 2.555v-2.54" fill="none" stroke="#000" stroke-width=".147" stroke-linecap="round" stroke-linejoin="round"/><g stroke="#000"><path fill="#eac102" stroke-linecap="round" d="M357.381 575.312h24.4v149.687h-24.4z" transform="matrix(.25972 -.01158 .15021 .18562 -7.33 13.462)"/><path d="m357.476 618.358 5.951.077m6.024-42.704.425 146.104m5.564-146.461v146.137m-11.946-145.823v146.136m-5.878-124.998 5.95.076m-5.813-10.703 5.526.07m-5.666 21.462 5.526.072m-5.385 31.377 5.95.076m-5.814-10.704 5.527.071m-5.803 32.089 5.951.077m-5.815-10.704 5.527.071m-5.523 33.374 5.95.077m-5.814-10.704 5.527.071m-5.803 32.089 5.951.076m-5.815-10.703 5.527.07m.307-102.555 5.951.077m-5.815-10.704 5.527.071m-5.803 32.089 5.951.076m-5.814-10.703 5.526.07m-5.385 31.378 5.951.076m-5.814-10.704 5.526.072m-5.803 32.088 5.951.077m-5.813-10.704 5.525.071m-5.523 33.374 5.951.077m-5.814-10.704 5.526.071m-5.803 32.089 5.951.077m-5.813-10.705 5.525.072m-11.422 25.646 5.951.077m-.191-4.757 5.951.077m-.19-113.849 5.951.077m-5.814-10.703 5.526.07m-5.803 32.09 5.951.076m-5.814-10.704 5.526.071m-5.385 31.377 5.951.077m-5.813-10.704 5.525.071m-5.803 32.089 5.951.076m-5.813-10.703 5.525.07m-5.523 33.374 5.951.077m-5.813-10.704 5.525.072m-5.803 32.088 5.951.077m-5.813-10.704 5.525.071m-5.662 20.966 5.951.077m.17-123.044 5.951.077m-5.814-10.703 5.526.07m-5.803 32.089 5.952.077m-5.814-10.704 5.526.071m-5.386 31.377 5.951.076m-5.813-10.703 5.525.07m-5.803 32.089 5.952.077m-5.814-10.704 5.526.072m-5.524 33.373 5.951.077m-5.813-10.704 5.525.072m-5.803 32.088 5.952.077m-5.814-10.704 5.526.071m-5.663 20.966 5.951.077" fill="none" stroke-width=".6" transform="matrix(.25972 -.01158 .15021 .18562 -7.33 13.462)"/></g><path d="m176.398 129.523-.036 8.981-4.102-5.098-.098-17.263 22.484 28.14.31 13.29-4.316-5.364-.07-4.875c.004-5.87-13.524-24.052-14.172-17.811z" fill="#eac102" fill-rule="evenodd" stroke="#000" stroke-width=".201"/><path d="m172.12 117.667 22.626 28.268" fill="none" stroke="#232118" stroke-width=".101"/><path d="m194.62 144.938-22.525-28.29" fill="none" stroke="#232118" stroke-width=".122"/><path d="M174.617 127.74c-.087-8.802 17.313 13.009 17.725 22.169" fill="none" stroke="#232118" stroke-width=".179"/><path d="m194.836 155.745-4.028-4.992" fill="none" stroke="#232118" stroke-width=".12"/><path d="m172 124.582 4.29 5.327m14.462 18.068 4.085 5.078" fill="none" stroke="#232118" stroke-width=".09"/><path d="m190.764 150.713 4.213 3.361" fill="none" stroke="#232118" stroke-width=".12"/><path d="m190.698 151.414 4.225 5.294" fill="none" stroke="#000" stroke-width=".084"/><path d="m192.735 153.198.003.819" fill="none" stroke="#232118" stroke-width=".154"/><path d="m191.563 152.472.003.775" fill="none" stroke="#232118" stroke-width=".129"/><path d="m193.912 155.45.003.757" fill="none" stroke="#232118" stroke-width=".127"/><path d="m176.355 132.901-4.265-5.338" fill="none" stroke="#232118" stroke-width=".086"/><path d="m172.099 125.678 4.215 7.148" fill="none" stroke="#232118" stroke-width=".124"/><path d="m173.115 129.613.003.827" fill="none" stroke="#232118" stroke-width=".133"/><path d="m172.27 128.585 4.15 5.203" fill="none" stroke="#000" stroke-width=".078"/><path d="m174.287 130.309.003.816" fill="none" stroke="#232118" stroke-width=".135"/><path d="m175.508 132.653.003.758" fill="none" stroke="#232118" stroke-width=".127"/><path d="m192.368 149.185 2.347 2.937m-2.616-4.271 2.534 3.171m-2.981-4.881 3.099 3.878m-4.214-6.264 4.093 5.11m-5.076-7.333 5.041 6.289m-7.187-9.973 7.176 8.913" fill="none" stroke="#000" stroke-width=".09"/><path d="m193.429 149.484.003 1.07" fill="none" stroke="#000" stroke-width=".106"/><path d="m193.333 147.29.003.924" fill="none" stroke="#000" stroke-width=".09"/><path d="m193.15 145.07.002.925" fill="none" stroke="#000" stroke-width=".083"/><path d="m192.088 144.698.004 1.003" fill="none" stroke="#000" stroke-width=".093"/><path d="m190.837 140.142.004.903" fill="none" stroke="#000" stroke-width=".084"/><path d="m187.912 136.473.003 1.013m5.493 5.78.003 1.031" fill="none" stroke="#000" stroke-width=".09"/><path d="m190.578 141.833.003.977" fill="none" stroke="#000" stroke-width=".08"/><path d="m191.816 142.312.003.993" fill="none" stroke="#000" stroke-width=".095"/><path d="m189.245 139.069.004 1.153m-3.996-7.093.003.891" fill="none" stroke="#000" stroke-width=".09"/><path d="m182.904 130.197.003 1.01" fill="none" stroke="#000" stroke-width=".084"/><path d="m171.995 124.517 4.214 5.225" fill="none" stroke="#232118" stroke-width=".09"/><path d="m172.263 124.028 2.402 3.007" fill="none" stroke="#000" stroke-width=".094"/><path d="m172.08 122.804 2.718 3.4" fill="none" stroke="#000" stroke-width=".09"/><path d="m172.079 121.652 3.198 4.002" fill="none" stroke="#000" stroke-width=".093"/><path d="m172.139 120.74 4.004 4.992m-4.153-6.171 5.318 6.627" fill="none" stroke="#000" stroke-width=".09"/><path d="m172.139 118.75 7.282 9.086" fill="none" stroke="#000" stroke-width=".089"/><path d="m173.35 124.435.004 1.001" fill="none" stroke="#000" stroke-width=".09"/><path d="m173.359 122.303.003.973" fill="none" stroke="#000" stroke-width=".096"/><path d="m173.16 120.055.003.924" fill="none" stroke="#000" stroke-width=".09"/><path d="m173.153 118.047.003.849" fill="none" stroke="#000" stroke-width=".082"/><path d="m175.812 121.25.003 1.032m-1.057.641.004 1.03m-.219-3.248.003 1.03" fill="none" stroke="#000" stroke-width=".09"/><path d="m177.056 123.797.004 1.056" fill="none" stroke="#000" stroke-width=".091"/><path d="m175.907 123.44.003.973" fill="none" stroke="#000" stroke-width=".084"/><path d="m178.295 124.502.002.9" fill="none" stroke="#000" stroke-width=".094"/><path d="m180.776 127.453.003 1.043" fill="none" stroke="#000" stroke-width=".097"/><path d="m186.71 135.943.003.846" fill="none" stroke="#000" stroke-width=".09"/><path d="m184.062 132.667.001.442" fill="none" stroke="#000" stroke-width=".105"/><path d="m181.633 129.58.002.59" fill="none" stroke="#000" stroke-width=".075"/><path d="m179.314 126.666.003 1.049" fill="none" stroke="#000" stroke-width=".1"/><path d="m178.377 126.555.002.442" fill="none" stroke="#000" stroke-width=".065"/><path d="m194.842 153.163-4.028-5.04" fill="none" stroke="#232118" stroke-width=".12"/><path d="m190.704 148.784 4.08 5.063" fill="none" stroke="#000" stroke-width=".084"/><path d="m192.74 150.567.004.82" fill="none" stroke="#232118" stroke-width=".154"/><path d="m191.569 149.841.002.775" fill="none" stroke="#232118" stroke-width=".129"/><path d="m193.918 152.796.001.422" fill="none" stroke="#232118" stroke-width=".095"/><path d="m190.827 149.691 2.292 2.868" fill="none" stroke="#000" stroke-width=".087"/><path d="m176.052 129.626-3.786-4.79" fill="none" stroke="#232118" stroke-width=".072"/><path d="m176.314 130.726-4.179-5.21" fill="none" stroke="#000" stroke-width=".11"/><path d="m174.28 127.328.002.843" fill="none" stroke="#232118" stroke-width=".116"/><path d="m175.426 129.664.002.775" fill="none" stroke="#232118" stroke-width=".129"/><path d="m173.077 126.754.001.529" fill="none" stroke="#232118" stroke-width=".106"/><path d="m176.35 131.598-2.866-3.585" fill="none" stroke="#000" stroke-width=".097"/><path d="m174.729 127.053 1.657 2.173m14.175 17.88 1.612 1.741M184.63 133.9l-.388.624" fill="none" stroke="#000" stroke-width=".101"/><path d="m182.575 131.14.479 1.889" fill="none" stroke="#000" stroke-width=".116"/><path d="m174.834 126.245 1.656 2.173m-1.13-2.602 1.606 2.309" fill="none" stroke="#000" stroke-width=".101"/><path d="m176.152 125.664 1.527 2.472" fill="none" stroke="#000" stroke-width=".097"/><path d="m177.488 126.283 1.443 2.792" fill="none" stroke="#000" stroke-width=".123"/><path d="m179.208 127.664.806 2.008" fill="none" stroke="#000" stroke-width=".101"/><path d="m180.969 129.344.596 2.05" fill="none" stroke="#000" stroke-width=".111"/><path d="m190.32 145.861 1.656 1.706" fill="none" stroke="#000" stroke-width=".101"/><path d="m189.784 143.997 1.423 1.33" fill="none" stroke="#000" stroke-width=".151"/><path d="m187.414 139.299.964.365" fill="none" stroke="#000" stroke-width=".07"/><path d="m185.966 136.894.686-.18m2.143 5.052 1.377 1.085" fill="none" stroke="#000" stroke-width=".101"/><g stroke="#000"><path fill="#eac102" stroke-linecap="round" d="M357.381 575.312h24.4v149.687h-24.4z" transform="matrix(.26713 -.002 .00439 .0907 96.315 92.435)"/><path d="m357.476 618.358 5.951.077m6.024-42.704.425 146.104m5.564-146.461v146.137m-11.946-145.823v146.136m-5.878-124.998 5.95.076m-5.813-10.703 5.526.07m-5.666 21.462 5.526.072m-5.385 31.377 5.95.076m-5.814-10.704 5.527.071m-5.803 32.089 5.951.077m-5.815-10.704 5.527.071m-5.523 33.374 5.95.077m-5.814-10.704 5.527.071m-5.803 32.089 5.951.076m-5.815-10.703 5.527.07m.307-102.555 5.951.077m-5.815-10.704 5.527.071m-5.803 32.089 5.951.076m-5.814-10.703 5.526.07m-5.385 31.378 5.951.076m-5.814-10.704 5.526.072m-5.803 32.088 5.951.077m-5.813-10.704 5.525.071m-5.523 33.374 5.951.077m-5.814-10.704 5.526.071m-5.803 32.089 5.951.077m-5.813-10.705 5.525.072m-11.422 25.646 5.951.077m-.191-4.757 5.951.077m-.19-113.849 5.951.077m-5.814-10.703 5.526.07m-5.803 32.09 5.951.076m-5.814-10.704 5.526.071m-5.385 31.377 5.951.077m-5.813-10.704 5.525.071m-5.803 32.089 5.951.076m-5.813-10.703 5.525.07m-5.523 33.374 5.951.077m-5.813-10.704 5.525.072m-5.803 32.088 5.951.077m-5.813-10.704 5.525.071m-5.662 20.966 5.951.077m.17-123.044 5.951.077m-5.814-10.703 5.526.07m-5.803 32.089 5.952.077m-5.814-10.704 5.526.071m-5.386 31.377 5.951.076m-5.813-10.703 5.525.07m-5.803 32.089 5.952.077m-5.814-10.704 5.526.072m-5.524 33.373 5.951.077m-5.813-10.704 5.525.072m-5.803 32.088 5.952.077m-5.814-10.704 5.526.071m-5.663 20.966 5.951.077" fill="none" stroke-width=".6" transform="matrix(.26713 -.002 .00439 .0907 96.315 92.435)"/></g><g fill-rule="evenodd"><path d="M188.384 44.712c-6.51-.617-11.001-2.662-16.258-4.166-13.68-3.893-14.713 18.701.758 14.704 5.57-1.783 11.122-4.17 16.74-4.185l-1.24-6.353z" fill="#008f4c" stroke="#000" stroke-width=".247"/><path d="m170.516 48.21-2.855-.44 2.855-.44v.88zm4.875-1.379-2.77-.816 2.888-.054-.118.87zm-1.42 3.039-2.77.816 2.887.054-.117-.87zm-4.173-6.158-2.77-.816 2.888-.054-.118.87zm12.225 4.063-2.77-.816 2.888-.054-.118.87zm-2.781-3.111-2.771-.816 2.888-.054-.117.87zm-4.438-2.4-2.282-1.771 2.709 1.003-.427.768zm-6.616-1.187-2.77-.816 2.887-.055-.117.871zm11.42 8.573-2.77.816 2.887.055-.117-.871zm6.442-1.098-2.77.816 2.887.054-.117-.87zm-16.252 3.807-2.77.816 2.888.054-.118-.87zm-2.727-2.301-2.878-.239 2.817-.638.061.876zm20.15-2.905-2.77-.816 2.887-.055-.117.871zm-21.107-.72-2.827-.59 2.874-.287-.047.877zm17.108-1.637-2.099-1.985 2.599 1.262-.5.723zm.471 6.255-2.1 1.985 2.6-1.262-.5-.723zm-7.923 2.415-1.84 2.227 2.424-1.571-.584-.656zm-7.655 1.308-2.771.817 2.888.054-.117-.87zm-4.682-1.697-2.496-1.455 2.818.638-.322.817zm-.243-9.649-2.496 1.455 2.817-.638-.322-.817z"/></g><path d="M181.257 299.511c.155 91.385-.31 182.788.237 274.166 2.911 82.01 65.672 156.897 145.827 174.216 74.154 18.066 157.184-14.403 199.04-78.428 25.066-35.807 34.302-80.113 32.235-123.247V299.511H181.257zm63.052 75.684h251.306v164.33c1.377 28.732-4.78 58.266-21.474 82.117-27.876 42.647-83.15 64.256-132.536 52.222-53.383-11.536-95.192-61.43-97.13-116.057-.365-60.868-.063-121.74-.166-182.612z" style="marker:none" fill="#eac102" fill-rule="evenodd" stroke="#000" stroke-width=".781" overflow="visible" transform="translate(58.427 -59.155) scale(.31579)"/><g fill-rule="evenodd"><path d="M146.85 44.831c-6.51-.617-11.002-2.662-16.259-4.166-13.68-3.893-14.712 18.7.759 14.704 5.568-1.783 11.121-4.171 16.739-4.185l-1.24-6.353z" fill="#008f4c" stroke="#000" stroke-width=".247"/><path d="m128.982 48.328-2.855-.439 2.855-.44v.88zm4.875-1.378-2.771-.817 2.888-.054-.117.87zm-1.42 3.038-2.771.817 2.888.054-.117-.87zm-4.173-6.157-2.771-.816 2.888-.054-.117.87zm12.225 4.063-2.771-.816 2.888-.054-.117.87zm-2.782-3.111-2.77-.817 2.887-.054-.117.87zm-4.437-2.401-2.283-1.77 2.71 1.003-.427.767zm-6.617-1.186-2.77-.817 2.888-.054-.118.87zm11.42 8.573-2.77.816 2.888.054-.118-.87zm6.442-1.099-2.77.817 2.888.054-.118-.87zm-16.251 3.807-2.771.817 2.888.054-.117-.87zm-2.727-2.301-2.879-.238 2.817-.638.062.876zm20.15-2.904-2.771-.817 2.888-.054-.117.87zm-21.107-.72-2.828-.59 2.874-.287-.046.877zm17.108-1.637-2.1-1.985 2.6 1.262-.5.723zm.47 6.255-2.099 1.984 2.599-1.262-.5-.722zm-7.923 2.414-1.84 2.227 2.425-1.57-.585-.657zm-7.655 1.309-2.77.817 2.887.054-.117-.87zm-4.682-1.697-2.495-1.455 2.817.638-.322.817zm-.243-9.649-2.495 1.455 2.817-.638-.322-.817z"/></g><g fill-rule="evenodd"><path d="M228.662 44.344c-6.51-.618-11.002-2.663-16.259-4.166-13.68-3.893-14.712 18.7.759 14.704 5.569-1.783 11.121-4.171 16.739-4.185l-1.24-6.353z" fill="#008f4c" stroke="#000" stroke-width=".247"/><path d="m210.794 47.84-2.855-.438 2.855-.44v.879zm4.875-1.377-2.771-.817 2.888-.054-.117.87zm-1.42 3.038-2.771.817 2.888.054-.117-.871zm-4.173-6.157-2.771-.817 2.888-.054-.117.87zm12.224 4.063-2.77-.816 2.888-.055-.117.87zm-2.78-3.111-2.772-.817 2.889-.054-.118.87zm-4.438-2.401-2.283-1.77 2.71 1.002-.427.768zm-6.617-1.187-2.77-.816 2.888-.054-.118.87zm11.42 8.573-2.77.817 2.888.054-.118-.87zm6.442-1.098-2.77.817 2.888.054-.118-.87zm-16.251 3.807-2.771.816 2.888.055-.117-.871zm-2.727-2.3-2.879-.24 2.817-.637.062.876zm20.15-2.905-2.771-.817 2.888-.054-.117.87zm-21.107-.72-2.828-.59 2.874-.288-.046.878zm17.108-1.638-2.1-1.984 2.6 1.262-.5.722zm.47 6.256-2.099 1.984 2.599-1.262-.5-.722zm-7.923 2.414-1.84 2.227 2.425-1.57-.585-.657zm-7.655 1.309-2.77.816 2.887.054-.117-.87zm-4.682-1.697-2.495-1.456 2.817.638-.322.818zm-.243-9.649-2.495 1.455 2.817-.638-.322-.818z"/></g><g fill-rule="evenodd"><path d="M118.813 223.812c.617-6.51 2.662-11.002 4.166-16.259 3.893-13.68-18.7-14.712-14.704.759 1.783 5.569 4.17 11.121 4.185 16.739l6.353-1.24z" fill="#008f4c" stroke="#000" stroke-width=".247"/><path d="m115.316 205.944.439-2.855.44 2.855h-.88zm1.378 4.875.816-2.77.054 2.887-.87-.117zm-3.039-1.42-.816-2.771-.054 2.888.87-.117zm6.158-4.173.816-2.77.054 2.887-.87-.117zm-4.063 12.225.816-2.77.054 2.887-.87-.117zm3.111-2.781.816-2.771.055 2.888-.871-.117zm2.4-4.438 1.771-2.282-1.003 2.709-.768-.427zm1.187-6.616.817-2.771.054 2.888-.871-.117zm-8.573 11.42-.816-2.771-.054 2.888.87-.117zm1.098 6.442-.816-2.771-.054 2.888.87-.117zm-3.806-16.252-.817-2.77-.054 2.887.87-.117zm2.3-2.727.24-2.879.637 2.818-.876.061zm2.905 20.15.816-2.77.055 2.887-.871-.117zm.72-21.107.59-2.828.287 2.874-.877-.046zm1.638 17.108 1.984-2.099-1.262 2.599-.723-.5zm-6.256.47-1.985-2.098 1.263 2.598.722-.5zm-2.414-7.923-2.227-1.84 1.57 2.425.656-.584zm-1.31-7.655-.816-2.77-.054 2.888.87-.118zm1.698-4.682 1.455-2.495-.638 2.817-.817-.322zm9.649-.243-1.455-2.495.638 2.817.817-.322z"/></g><g fill-rule="evenodd"><path d="M119.094 262.787c.617-6.51 2.662-11.001 4.166-16.258 3.893-13.68-18.701-14.713-14.704.758 1.783 5.57 4.17 11.122 4.185 16.74l6.353-1.24z" fill="#008f4c" stroke="#000" stroke-width=".247"/><path d="m115.597 244.92.439-2.856.439 2.855h-.878zm1.378 4.874.816-2.77.054 2.888-.87-.118zm-3.039-1.42-.816-2.77-.054 2.887.87-.117zm6.157-4.172.817-2.771.054 2.888-.87-.117zm-4.063 12.224.817-2.77.054 2.888-.87-.118zm3.112-2.781.816-2.77.054 2.887-.87-.117zm2.4-4.438 1.77-2.282-1.002 2.709-.768-.427zm1.187-6.616.816-2.77.054 2.887-.87-.117zm-8.573 11.42-.817-2.77-.054 2.887.87-.117zm1.098 6.442-.816-2.77-.055 2.887.871-.117zm-3.807-16.251-.816-2.771-.054 2.888.87-.117zm2.301-2.728.239-2.878.638 2.817-.877.061zm2.905 20.15.816-2.77.054 2.888-.87-.118zm.72-21.107.59-2.827.287 2.874-.877-.047zm1.637 17.108 1.985-2.098-1.262 2.598-.723-.5zm-6.255.471-1.985-2.099 1.262 2.598.723-.5zm-2.415-7.923-2.227-1.84 1.571 2.424.656-.584zm-1.308-7.655-.817-2.771-.054 2.888.87-.117zm1.697-4.682 1.455-2.495-.638 2.817-.817-.322zm9.649-.244-1.455-2.495.638 2.818.817-.323z"/></g><g fill-rule="evenodd"><path d="M217.901 223.315c.618-6.51 2.663-11.001 4.167-16.258 3.892-13.68-18.701-14.713-14.705.758 1.784 5.57 4.172 11.122 4.186 16.74l6.352-1.24z" fill="#008f4c" stroke="#000" stroke-width=".247"/><path d="m214.404 205.447.44-2.855.439 2.855h-.879zm1.379 4.875.816-2.77.054 2.888-.87-.118zm-3.039-1.42-.816-2.77-.054 2.887.87-.117zm6.157-4.172.817-2.771.054 2.888-.87-.118zm-4.063 12.224.817-2.77.054 2.888-.87-.118zm3.112-2.781.816-2.771.054 2.888-.87-.117zm2.4-4.438 1.77-2.282-1.002 2.709-.768-.427zm1.187-6.616.816-2.77.054 2.887-.87-.117zm-8.573 11.42-.817-2.77-.054 2.887.87-.117zm1.098 6.441-.817-2.77-.054 2.888.87-.117zm-3.807-16.25-.816-2.771-.054 2.888.87-.118zm2.301-2.728.239-2.878.637 2.817-.876.061zm2.904 20.15.817-2.77.054 2.887-.87-.117zm.72-21.107.59-2.827.288 2.874-.877-.047zm1.638 17.108 1.984-2.099-1.261 2.599-.723-.5zm-6.255.471-1.985-2.1 1.262 2.6.723-.5zm-2.415-7.924-2.227-1.84 1.571 2.425.656-.584zm-1.308-7.654-.817-2.771-.054 2.888.87-.117zm1.696-4.682 1.456-2.496-.638 2.818-.818-.322zm9.65-.244-1.456-2.495.638 2.817.818-.322z"/></g><g fill-rule="evenodd"><path d="M218.182 262.29c.617-6.51 2.662-11.001 4.166-16.258 3.893-13.68-18.7-14.712-14.704.759 1.783 5.568 4.17 11.121 4.185 16.739l6.353-1.24z" fill="#008f4c" stroke="#000" stroke-width=".247"/><path d="m214.685 244.423.439-2.855.44 2.855h-.88zm1.378 4.875.816-2.771.054 2.888-.87-.117zm-3.039-1.42-.816-2.771-.054 2.888.87-.117zm6.158-4.173.816-2.771.054 2.888-.87-.117zm-4.063 12.225.816-2.771.054 2.888-.87-.117zm3.111-2.782.816-2.77.055 2.888-.871-.118zm2.4-4.438 1.771-2.282-1.003 2.71-.768-.427zm1.187-6.616.817-2.77.054 2.888-.871-.118zm-8.573 11.42-.816-2.77-.054 2.888.87-.118zm1.098 6.442-.816-2.77-.054 2.888.87-.118zm-3.806-16.251-.817-2.771-.054 2.888.87-.117zm2.301-2.727.238-2.879.638 2.817-.876.062zm2.904 20.15.816-2.771.055 2.888-.87-.117zm.72-21.108.59-2.827.287 2.874-.877-.046zm1.637 17.109 1.985-2.1-1.262 2.6-.723-.5zm-6.255.471-1.985-2.1 1.263 2.599.722-.5zm-2.415-7.924-2.226-1.84 1.57 2.425.656-.585zm-1.308-7.655-.817-2.77-.054 2.887.87-.117zm1.697-4.682 1.455-2.495-.638 2.817-.817-.322zm9.649-.243-1.455-2.495.638 2.817.817-.322z"/></g><g fill-rule="evenodd"><path d="M163.995 168.157c6.51.618 11.002 2.663 16.259 4.166 13.68 3.893 14.712-18.7-.759-14.704-5.569 1.783-11.121 4.171-16.739 4.185l1.24 6.353z" fill="#008f4c" stroke="#000" stroke-width=".247"/><path d="m181.863 164.66 2.855.44-2.855.438v-.878zm-4.875 1.378 2.77.817-2.887.054.117-.87zm1.42-3.038 2.771-.817-2.888-.054.117.87zm4.172 6.157 2.772.816-2.888.055.117-.871zm-12.224-4.063 2.77.816-2.887.055.117-.871zm2.782 3.111 2.77.817-2.888.054.118-.87zm4.437 2.401 2.282 1.77-2.709-1.002.427-.768zm6.617 1.186 2.77.817-2.888.054.118-.87zm-11.421-8.572 2.771-.817-2.888-.054.117.87zm-6.441 1.098 2.77-.817-2.888-.054.117.87zm16.25-3.808 2.772-.816-2.888-.054.117.87zm2.728 2.302 2.879.238-2.818.638-.061-.876zm-20.15 2.904 2.77.817-2.887.054.117-.87zm21.107.72 2.828.59-2.874.287.046-.877zm-17.108 1.638 2.099 1.984-2.598-1.262.499-.722zm-.47-6.256 2.098-1.984-2.598 1.262.5.722zm7.923-2.414 1.84-2.227-2.425 1.57.584.657zm7.655-1.309 2.77-.816-2.888-.054.118.87zm4.682 1.697 2.495 1.456-2.817-.639.322-.817zm.243 9.65 2.495-1.456-2.817.638.322.818z"/></g><g fill-rule="evenodd"><path d="M129.02 143.56c3.9 5.249 5.39 9.954 7.793 14.865 6.269 12.766 23.74-1.596 10.412-10.41-5.053-2.942-10.545-5.467-14.317-9.63l-3.888 5.175z" fill="#008f4c" stroke="#000" stroke-width=".247"/><path d="m143.582 154.488 1.586 2.415-2.239-1.826.653-.589zm-4.288-2.698 1.249 2.605-1.974-2.109.725-.495zm3.207-.98 2.462 1.512-1.894-2.181-.568.67zm-1.778 7.223 1.249 2.604-1.974-2.108.725-.496zm-5.169-11.8 1.25 2.604-1.975-2.108.725-.496zm-.448 4.149 1.249 2.605-1.974-2.109.725-.496zm1.189 4.903.213 2.881-1.07-2.683.857-.198zm3.549 5.709 1.249 2.604-1.974-2.108.725-.496zm-1.28-14.222 2.461 1.51-1.893-2.18-.568.67zm-5.13-4.05 2.462 1.512-1.894-2.182-.568.67zm13.71 9.521 2.462 1.511-1.894-2.18-.568.67zm.117 3.567 1.75 2.297-2.36-1.665.61-.633zm-15.65-13.02 1.25 2.604-1.975-2.109.725-.496zm13.599 16.157 1.456 2.495-2.138-1.942.682-.553zm-12.672-11.609-.068 2.887-.803-2.774.871-.113zm4.331-4.538 2.88.23-2.678-1.085-.202.855zm7.099 4.267 2.886-.125-2.79-.748-.096.873zm6.098 4.809 2.462 1.511-1.894-2.181-.568.67zm1.874 4.614.59 2.827-1.412-2.52.823-.307zm-7.003 6.642 2.752.878-2.36-1.665-.392.787z"/></g><g fill-rule="evenodd"><path d="M221.346 144.225c-3.901 5.25-5.39 9.954-7.793 14.865-6.27 12.767-23.741-1.596-10.413-10.41 5.054-2.942 10.546-5.466 14.318-9.629l3.888 5.174z" fill="#008f4c" stroke="#000" stroke-width=".247"/><path d="m206.784 155.154-1.586 2.414 2.238-1.826-.652-.588zm4.288-2.698-1.25 2.605 1.975-2.11-.725-.495zm-3.208-.98-2.462 1.511 1.894-2.18.568.67zm1.779 7.222-1.25 2.605 1.975-2.109-.725-.496zm5.169-11.8-1.25 2.605 1.975-2.109-.725-.496zm.448 4.15-1.25 2.604 1.975-2.109-.725-.495zm-1.19 4.902-.212 2.882 1.069-2.684-.856-.197zm-3.548 5.71-1.25 2.604 1.975-2.109-.726-.496zm1.28-14.223-2.462 1.511 1.894-2.181.568.67zm5.13-4.049-2.462 1.511 1.893-2.181.569.67zm-13.71 9.52-2.462 1.512 1.893-2.182.569.67zm-.118 3.567-1.75 2.297 2.36-1.665-.61-.632zm15.651-13.02-1.25 2.604 1.975-2.108-.725-.496zm-13.6 16.157-1.455 2.496 2.138-1.943-.683-.553zm12.672-11.609.069 2.888.803-2.775-.872-.113zm-4.33-4.538-2.88.23 2.678-1.085.202.855zm-7.099 4.267-2.886-.125 2.79-.748.096.873zm-6.098 4.809-2.462 1.511 1.894-2.181.568.67zm-1.875 4.614-.59 2.828 1.413-2.52-.823-.308zm7.003 6.642-2.751.879 2.36-1.665.391.786z"/></g><path d="m162.2 113.305 4.693-.57m-2.353-2.125V113m-2.348-4.61 4.693-.569m-2.353-2.125v2.389m1.388-.122v2.51m-2.962-2.157v2.275m-.766.293 4.693-.57m-4.655-6.884 4.692-.568m-2.352-2.125v2.389m1.387-.123v2.512m-2.962-2.158v2.275m-.765.293 4.692-.57m-.965-12.238v2.51m-2.963-2.069v2.275m-.764.205 4.692-.57m.069-.077h16.547m-16.488 4.999h16.547m-16.8 2.484h16.546" stroke-width=".147" fill="none" stroke="#000" stroke-linecap="round" stroke-linejoin="round"/><path d="M168.252 102.629s-.048-3.004-.029-4.455c.02-1.45.72-1.896 1.437-1.875.718.021 1.388.373 1.42 1.91.031 1.537-.01 4.422-.01 4.422l-2.818-.002zm11.051-.092s-.048-3.004-.029-4.455c.02-1.451.719-1.896 1.437-1.875.718.02 1.388.372 1.42 1.91.031 1.537-.01 4.421-.01 4.421l-2.818-.001z" fill="#0071bc" fill-rule="evenodd" stroke="#000" stroke-width=".147" stroke-linecap="round" stroke-linejoin="round"/><path d="M167 107.843h16.546m-16.648 2.484h16.547M167 112.66h16.546m-16.699 2.75h16.547" fill="none" stroke="#000" stroke-width=".147" stroke-linecap="round" stroke-linejoin="round"/><path d="M173.214 116.072s-.067-2.691-.04-4.779c.027-2.087 1.016-2.727 2.031-2.697 1.015.03 1.962.536 2.006 2.748.044 2.211-.013 4.73-.013 4.73l-3.984-.002z" fill="#0071bc" fill-rule="evenodd" stroke="#000" stroke-width=".147" stroke-linecap="round" stroke-linejoin="round"/><path d="M175.126 107.504c-1.693-.04-3.344.797-3.39 3.53a87.92 87.92 0 0 0 .07 5.103h1.38c-.018-1.46-.051-3.285-.032-4.778a4.49 4.49 0 0 1 .191-1.306 2.088 2.088 0 0 1 .458-.839 1.69 1.69 0 0 1 .305-.262 1.63 1.63 0 0 1 .337-.177c.236-.088.49-.121.745-.114.253.008.499.045.731.132a1.675 1.675 0 0 1 .636.421c.092.102.173.221.248.36.076.138.142.3.197.479.11.359.18.804.191 1.357.032 1.577.008 3.312-.006 4.733h1.259s.093-2.146.019-5.041c-.074-2.896-1.646-3.558-3.34-3.598z" fill="#eac102" fill-rule="evenodd" stroke="#000" stroke-width=".147" stroke-linecap="round" stroke-linejoin="round"/><path d="M220.702 488.789v-5.565m-16.793 40.913h6.59m-6.59-6.007h6.59m-6.555-18.023h7.06m-7.095 6.008h6.59m-6.59 6.007h6.59m4.459-22.459-3.167-4.782m-.742 9.469-5.573-2.83m31.376 32.617h-6.59m6.59-6.007h-6.59m6.59-18.023h-6.59m6.59 6.008h-6.59m6.59 6.007h-6.59m-5.176-21.532 3.884-5.709m-.15 9.982 6.465-3.343" transform="matrix(.20352 0 0 .20743 130.395 7.28)" stroke-width=".718" fill="none" stroke="#000"/><path d="m188.305 98.376-4.693-.569m2.353-2.125v2.389m-1.388-.122v2.511m2.963-2.158v2.275m.765.293-4.693-.57m4.643 12.995-4.692-.57m2.352-2.124v2.388m2.348-4.609-4.692-.569m2.352-2.124v2.388m-1.387-.122v2.511m2.962-2.158v2.275m.765.293-4.692-.57m4.656-6.955-4.693-.57m2.353-2.124v2.388m-1.387-.122v2.511m2.961-2.158v2.275m.766.293-4.693-.57m.966-12.238v2.511m2.962-2.07v2.275m.765.205-4.693-.57" stroke-width=".147" fill="none" stroke="#000" stroke-linecap="round" stroke-linejoin="round"/><g fill="#eac102" stroke="#000" stroke-width=".703" fill-rule="evenodd"><path d="M417.747 790.396c2.566 5.952 3.91 12.641 2.634 15.54 2.38-1.341 3.556-.672 6.062.085-.526-3.35-4.396-15.829-8.233-15.432-.042.366-.421-.558-.463-.193z" transform="matrix(.25802 0 0 .17185 89.187 -49.357)"/><path d="M422.768 798.596c-.48-.13-2.146-.3-3.453-.3-1.618 0-3.095.962-4.219 1.572-1.126.61-1.756 1.08-3.34 1.08-3.103 0-4.314-2.875-4.314-5.193a9.6 9.6 0 0 1 .83-4.005c-.256-.394-.609-.554-.947-.554-1.068 0-2.294 1.703-2.294 5.126 0 5.253 2.583 7.685 5.127 7.685 2.33 0 4.553-1.84 5.543-2.503.993-.656 2.381-1.259 3.248-1.259 1.553 0 3.218.281 3.908.586.012-.137.028-.399.028-.623 0-.704-.052-1.173-.117-1.612" transform="matrix(.25802 0 0 .17185 89.187 -49.357)"/><path d="M362.162 1003.22c1.853.999 3.489 2.546 5.499 7.932 2.88-.55 7.932-5.991 7.932-11.07 0-1.066-.38-3.676-1.708-5.587-1.473-1.32-4.025-1.938-5.747-1.938-2.219 0-6.44 3.912-5.976 10.663m-158.697-45.06c-3.755 0-8.33 7.966-8.34 7.924 2.04 2.361 1.912 4.853.318 9.922 5.365-.176 14.451-7.852 13.901-12.636 0 0-2.09-5.21-5.88-5.21m-43.827 7.371c-4.377 0-6.568 4.122-7.017 6.037-.09 4.525 5.445 13.345 8.482 15.234 2.309-1.9 3.66-8.27 4.431-10.186 1.17-3.448-.98-11.085-5.896-11.085m-22.061-31.94c-3.358.673-12.688 6.085-12.688 13.547 0 5.494 3.23 9.872 5.305 12.767 1.588-4.592 6.611-7.617 8.514-9.185-3.11-5.019-3.658-12.655-1.131-17.129m27.971-19.516c-.862-.782-5.132-3.93-7.904-3.93-6.07 0-16.198 5.72-16.643 11.565 1.798-.355 11.996-.087 13.865.825-.035-5.415 4.998-6.436 9.577-8.46M132.567 799.25c-5.622 0-5.204 6.068-5.024 9.576.694 2.189 1.6 1.376 1.996 9.7 5.728-4.3 9.153-8.842 9.964-12.628-1.273-4.377-3.639-6.647-6.936-6.647m169.718 176.688c-.798-.57-2.513-.996-4.163-.996-8.024 0-16.251 8.788-14.458 19.521 2.029-2.876 8.843-4.572 11.036-5.178-.55-5.06 3.082-11.325 7.585-13.347m-4.548 37.502c-1.007 0-2.427.217-3.848.826-1.904 1.762-3.404 4.215-3.404 9.724 0 4.349 2.03 8.416 4.38 9.626 3.14-5.696 6.493-8.362 8.194-9.398 1.61-5.135-.34-10.778-5.322-10.778m33.151 7.549c-2.592 0-4.543 2.057-6.337 5.587 1.932 4.75 3.26 9.44 3.444 13.89 4.667-3.329 7.467-7.798 8.306-12.368-.288-3.328-1.99-7.11-5.413-7.11M81.433 786.986c-3.787 1.52-9.237 6.337-9.237 10.218 0 5.258 2.66 9.434 6.634 13.272 1.26-5.657 7.778-9.12 9.534-10.263 1.247-4.027-1.065-12.241-6.93-13.227m20.564 23.871c-4.066 0-6.852 4.52-7.35 5.927-.573 6.139 8.196 14.52 14.176 14.187-.29-3.836-.044-12.773.884-15.66-1.184-4.263-4.784-4.454-7.71-4.454m-6.005-58.59c-1.024-.227-4.496-2.924-6.503-2.924-7.041 0-15.245 3.847-17.557 8.924 3.848-.173 10.534 1.046 12.652 2.089.393-3.074 5.341-5.215 11.408-7.75m31.229-165.686c-6.095-5.768-11.616-6.317-13.423-5.656 1.949-6.396 4.565-8.212 10.28-8.212 5.551 0 10.172 8.183 11.915 11.65-3.552 2.442-12.293-1.408-11.58.886m-10.75 7.371c-3.338-3.711-8.279-5.217-14.65-5.217-9.555 0-17.986 5.837-18.938 11.192 4.44.142 12.97 1.44 15.748 2.596 3.607-3.303 8.34-8.958 17.84-8.571m-19.319 23.118c-8.463.995-18.214 4.302-18.214 10.996 0 5.372 3.13 6.884 6.759 9.425 2.07-5.133 5.084-7.313 9.756-8.583-4.503-3.554-.388-3.906 2.804-10.18m5.809 26.428c-3.335 1.93-7.699 2.829-15.956 3.986 1.776 2.236 12.11 9.861 20.166 9.861 6.152 0 11.393-4.434 15.615-8.833-10.73.08-15.813-2.542-19.825-5.014" transform="matrix(.06038 0 0 .06529 181.723 47.27)" stroke-width="2.357"/><path d="M427.522 871.506c-1.637 1.519.578 1.47 1.34 2.173 1.437.84 2.64 2.492 3.369 4.566 1.609-.805 3.1.317 4.46 1.531-1.696-5.154-5.218-8.453-8.978-8.561l-.191.291z" transform="matrix(.25802 0 0 .17185 89.187 -49.357)"/><g stroke-width="2.357"><path d="M292.981 816.58c-3.735 7.431-13.72 2.314-20.244 3.493-27.987-2.504-56.848 14.027-64.498 39.695-5.356 13.402 2.455 29.916-8.343 41.422 1.578 2.432 6.084 3.465 7.362 4.953-5.809 8.38-17.314 13.447-27.689 13.129-4.647-3.262-9.08-8.82-15.787-7.064-8.092.513-13.81 8.462-11.41 15.817-11.106-3.596-20.065 8.607-16.974 18.004.48 6.087 6.58 12.051 12.106 11.67-2.955 6.23-.105 13.314 5.113 17.66-.123-5.137 7.285-11.602 11.533-6.334 2.343 2.885 1.157 6.711 1.104 10.02 10.256-1.209 15.986-10.992 15.583-19.541 3.183-1.229 4.799-1.239 5.848 2.073 1.783 2.545 6.617 7.054 8.979 5.106.971-4.65 7.808-9.436 11.062-3.8 1.978 7.55 5.012.49 6.666-3.072 1.584-2.585.415-6.3.982-8.522 7.594-2.781 14.961-6.087 21.676-10.442.99 5.866 4.054 7.55 8.589 3.608 3-1.614 6.045-5.625 7.894-6.948 1.754 2.758-1.364 13.982 2.936 10.196 14.864-9.937 24.52-26.67 22.42-44.056.426-9.67-9.068-18.063-4.09-27.794 2.603-8.273 11.623-13.72 20.691-11.415 2.66-2.658 2.04-9.42 4.38-13.653 3.227-8.32 8.654-17.113 18.078-20.116-4.853-8.032-13.525-13.131-22.862-15.471l-.786.983-.319.399z" transform="matrix(.06038 0 0 .06529 181.723 47.373)"/><path d="M454.405 564.246c-3.538 10.764-12.306 19.761-22.78 25.183 1.64-6.114.76-12.499-.655-18.58-12.858 9.072-29.827 14.632-36.972 29.214-4.793 8.965-5.822 19.294-4.867 29.253-24.115 22.085-31.689 58.763-17.546 87.72 9.41 20.622 23.518 40.371 44.703 51.787 14.093 8.497 27.237 22.42 24.13 39.273-.744 15.584-13.364 32.637-31.492 31.594-3.277-.113-10.264-1.136-10.43-4.453 6.774-16.856-4.983-34.357-18.69-44.57-16.96-14.19-38.158-23.301-54.191-38.39-2.974-3.152-4.54-8.074-8.998-4.3-8.882 2.516-18.099.172-26.257-3.3-19.072 19.328-50.313 27.902-76.933 18.128-9.95-2.768-22.79-2.509-29.527 5.98-6.301-6.278-5.86-16.215-2.822-23.84-8.62-1.326-15.536-6.841-19.508-13.974-10.051 8.158-20.985 15.044-33.481 19.36-6.453 1.81-12.503 8.53-19.483 7.167-4.936-3.123-10.746-9.944-17.26-5.297-8.294 4.234-10.599 15.416-4.621 21.958-6.78.618-10.464 9.766-6.951 13.773 6.44 1.331 6.415 9.073 6.664 13.791 1.752 2.312 5.182 2.412 3.313 6.066-.445 5.046 2.183 9.842 6.503 12.822-.086-4.582 6.468-9.922 9.57-4.338 1.2 2.586 1.97 5.567 5.563 2.956 6.505-2.386 3.892-11.272 6.748-14.473 2.17 3.157 6.411 4.067 9.897 5.413-1.569-3.912.165-13.126 6.462-9.751 2.701 2.292 2.91 8.257 7.199 3.954 5.591-3.517 3.834-11.346 3.312-15.778 11.143-6.53 24.61-1.447 33.05 6.597 3.752.207 6.165-6.075 7.522-8.248 4.053 3.726 6.366 8.961 9.489 13.475 5.64-3.014 8.762-9.5 9.979-14.588 6.572.878 12.584 4.348 17.71 8.33 4.01-1.905 6.605-5.59 7.606-9.635 16.563 18.361 41.495 28.71 66.946 29.906 11.728.182 25.446 6.98 30.68 15.585-12.36-3.62-23.748 5.354-28.343 15.586-11.014 22.475-6.684 50.965 11.03 69.263 6.957 6.915 11.922 15.826 10.458 25.674 1.69 2.138 8.405-2.872 10.209-3.723 1.377 6.669 5.552 13.563 12.924 15.624 1.792-3.668 3.342-7.367 5.685-10.749-1.625 15.341-12.616 31.631-29.161 35.626-5.852-.16-10.177-6.663-16.523-3.954-11.083 2.717-14.368 17.1-7.853 24.415-5.3 3.855-5.89 10.656-4.949 16.47 5.123-2.549 10.612 1.164 10.307 6.18-.053 3.44-1.505 6.755 3.517 6.526 3.518.79 7.265-1.712 9.734-2.457 2.298 3.413 8.737 7.445 10.02 1.344 2.425-4.82 9.794-3.117 9.734 2.188.752 4.912 7.469-.065 8.957-2.88 3.017-3.299 2.43-8.36 3.558-11.746 2.746-1.49 4.298-5.96 5.89-7.064 3.388 3.778 12.437 3.035 10.879-3.148.199-5.132 6.044-10.921 11.33-6.624 3.273.283 4.131-6.253 3.189-9.307-.627-3.136-5.084-5.214-.736-7.448 3.968-3.308 6.935-10.388 9.693-12.553 2.57 3.528 8.09 5.212 10.224.537 2.373-2.134.812-8.097 5.235-5.95 6.226 1.142 13.695-1.315 15.583-7.486-9.286-8.22-1.596-20.81-1.35-30.865 1.762-10.785-4.839-25.537-18.24-24.954-4.701.154-9.35 2.485-12.516 5.375-19.195-5.755-22.445-33.973-6.789-45.261 4.791-5.527 11.046 1.61 17.055 1.612 10.372 2.431 22.452 1.462 31.042-4.491 9.238 7.465 23.553.743 27.525-8.868a69.164 69.164 0 0 1 11.534-13.59c-3.684-2.677-8.301-4.61-13.047-3.532 7.175-14.002 4.406-29.84 4.499-44.762 2.364-12.395 14.883-22.865 11.001-36.278-1.049-4.723-2.894-9.21-6.42-2.65-5.536 5.698-16.084 5.777-19.918 13.706-1.93 1.643-1.322 8.22-4.336 4.261-8.17-5.998-16.897-17.62-9.856-27.065 8.1-7.454 23.586-9.221 25.725-21.498.184-3.535 2.262-16.93-1.401-9.797-2.7 5.643-8.03 12.872-15.613 10.104-9.928-3.87-23.617-5.068-30.633 4.223-4.674 4.476-3.923 12.863-3.967 17.122-15.28-13.571-11.68-41.62 8.425-49.522 13.425-6.692 32.172-10.647 36.318-26.528 3.858-9.739 1.137-9.158-5.562-2.341-10.186 9.63-26.029 3.532-37.75 8.906 2.093-3.37 5.47-5.912 8.18-8.868-9.331.685-19.354 1.77-26.748 7.601 4.213-12.869 16.206-23.33 30.879-24.646 24.654-3.87 43.498-24.406 45.234-47.603 1.233-12.634-.326-25.382-4.704-37.353l-2.74 7.448z" transform="matrix(.06038 0 0 .06529 181.723 47.373)"/><path d="M129.628 581.751c-7.3-.482-12.538 6.286-10.225 12.707.319 2.949 2.334 7.58 1.84 9.367-3.838-5.367-1.126-14.162-8.63-17.275-11.957-4.642-24.788 12.647-15.377 21.537 1.52 1.782 5.148 3.57 5.766 4.99-8.354-2.62-17.667 3.754-16.645 12.208-.77 8.101 5.828 15.422 13.66 17.199.278 9.861 10.18 22.014 21.635 17.927 2.642.096 3.66 5.872 5.44 8.177 5.163 10.554 7.435 21.922 7.157 33.514 4.029.24 8.81-.08 11.493-3.301 2.15 10.34 1.066 21.18-2.372 31.21 5.794 1.722 12.54.219 16.523-4.145 3.097 5.765 2.442 12.334 2.699 18.58 8.753-11.176 9.704-25.895 19.468-36.393 4.614-5.663 10.607-10.863 18.24-12.438-1.628-7.952-2.506-16.24.042-24.07-14.03-9.18-29.778-17.441-40.223-30.537-5.715-11.371-18.004-20.042-20.144-32.768-.143-7.712 6.731-18.451-1.963-24.224-2.411-1.605-5.427-2.47-8.384-2.265z" transform="matrix(.06038 0 0 .06529 181.723 47.373)"/><path d="M349.447 678.251c3.102-27.39 2.415-40.08.648-44.79 4.562-.287 8.437-1.009 11.965-2.778-3.934-4.368-10.23-13.438-12.24-21.4-1.662-6.57-5.491-16.982-10.204-19.01 3.122-1.136 5.361-2.704 8.057-7.087-8.057-4.36-11.532-9.896-19.635-14.593 2.572-1.709 4.817-4.78 5.563-7.962-4.208-.647-8.234-2.484-12.226-4.705-.642 3.601-1.76 6.915-5.158 11.224l-.515-1.585c2.114-2.793 4.581-6.834 4.581-10.36 0-4.9-5.264-10.723-7.639-12.294-2.58-1.702-5.981-2.115-11.4 2.1-3.975.795-6.027 4.869-8.45 7.247l-.616-.614c2.362-2.607 5.372-5.364 6.826-6.777a16.98 16.98 0 0 0-3.874-.445c-4.562 0-9.02.696-12.58 3.867-22.77 0-34.495 14.788-36.966 21.792-8.746 5.891-18.416 14.87-18.416 21.318 0 1.701.207 2.779.538 3.534 2.346-1.38 6.07-2.647 8.125-4.734l-.055.766c-1.747 2.027-6.088 3.92-7.617 5.038-1.132 1.71-.693 5.89-.693 8.318 0 7.188 6.527 13.366 13.296 13.366 9.655 0 13.066-10.21 12.503-14.911 5.243-.483 20.127 5.56 20.127 22.989 0 10.876-10.44 12.028-14.091 12.028-3.672 0-6.381-1.287-10.425-1.287-4.048 0-5.913 1.639-5.913 4.747 0 4.218 4.264 8.01 8.894 8.01 4.558 0 4.89-4.293 8.537-4.293 2.145 0 5.799 1.282 5.799 8.104 0 6.762-6.208 9.615-12.38 9.615-14.265 0-24.07-11.877-28.221-11.877v14.862c-13.22 0-17.608-4.215-23.096-9.97-4.525 4.21-9.493 12.311-9.493 21.485 0 6.362.459 11.594 1.59 15.237-11.296 1.836-22.938 14.417-28.474 29.149-3.547 9.38-4.508 14.365-11.763 17.903 4.063 11.474 13.1 17.304 21.67 17.67-5.399 7.01-2.245 22.362 1.734 23.035 5.225-5.482 10.8-6.706 16.817-6.706 13.883 0 21.377 5.63 34.84 5.63 25.617 0 41.947-9.956 54.33-22.389 5.635 3.086 23.084 5.234 26.927 5.234 7.56 0 14.026-3.269 17.311-8.474-2.598-3.931-5.786-13.576-3.534-20.619 3.122 2.906 8.954 5.038 13.457 3.916-.97-11.957-7.533-22.93-4.496-27.524 3.455-5.261 5.655-12.023 6.46-16.545h12.625c-1.839-3.212-3.79-8.075-3.05-14.455z" transform="matrix(.06038 0 0 .06529 181.723 47.373)"/></g><path d="M414.584 797.124c.039.232-.093 2.492.76 2.089 0 0 .27-1.963.27-1.975m.894 7.592c-.111-.326-.774-1.256-.649-1.997-.87.377-.429 1.642-.28 2.723m5.224-22.716s-.798-1.243-1.123-1.81c-3.923-3.3.55.012-1.522 1.131-.814 0-.945-.006-.945-1.244 0-.574.153-1.482.393-1.992.972.166 2.268 1.164 3.266 3.763a1.37 1.37 0 0 0-.07.153z" transform="matrix(.25802 0 0 .17185 89.187 -49.357)"/></g><path d="M169.595 120.52v-2.54m0-2.632v-2.54" fill="none" stroke="#000" stroke-width=".147" stroke-linecap="round" stroke-linejoin="round"/><path d="M169.493 110.281v-2.437" fill="none" stroke="#000" stroke-width=".145" stroke-linecap="round" stroke-linejoin="round"/><path d="M169.595 105.31v-2.54m0-7.498v-2.54m5.525 7.677v-2.54m.037 7.496v-2.54m.107-7.463v-2.54m5.326 2.585v-2.54m.18 12.543v-2.54m.035 7.523v-2.54m.035 7.379v-2.54" fill="none" stroke="#000" stroke-width=".147" stroke-linecap="round" stroke-linejoin="round"/><path d="m176.437 135.227 1.41-.005m.123-.432 1.59-.004m-.045.436 1.59-.005m.04-.4 1.59-.004m-6.227 1.633 1.411-.005m.123-.431 1.59-.005m-.045.435 1.59-.004m.04-.4 1.59-.005m-6.299 1.741 1.411-.005m.123-.431 1.59-.005m-.045.436 1.59-.005m.04-.399 1.59-.005" fill="none" stroke="#000" stroke-width=".093"/><path d="m172.314 129.465 4.149 5.203m-4.149-3.805 4.149 5.203m-4.149-3.804 4.149 5.202" fill="none" stroke="#000" stroke-width=".078"/><path d="m172.917 131.745.003 1.001m1.216-.821.002 1.18m1.181 1.598.003 1.18m-1.366-1.538.003 1.18" fill="none" stroke="#000" stroke-width=".09"/><g fill-rule="evenodd"><path d="M188.031 44.77c-6.51-.618-11.002-2.663-16.258-4.167-13.68-3.893-14.713 18.7.758 14.704 5.569-1.783 11.122-4.171 16.74-4.185l-1.24-6.353z" fill="#008f4c" stroke="#000" stroke-width=".247"/><path d="m170.163 48.266-2.855-.439 2.855-.44v.88zm4.875-1.378-2.77-.816 2.888-.054-.118.87zm-1.42 3.038-2.77.817 2.887.054-.117-.87zm-4.173-6.156-2.77-.817 2.888-.054-.118.87zm12.225 4.062-2.77-.816 2.888-.054-.118.87zm-2.781-3.111-2.771-.816 2.888-.055-.117.871zm-4.438-2.401-2.282-1.77 2.709 1.003-.427.768zm-6.616-1.186-2.771-.817 2.888-.054-.117.87zm11.42 8.573-2.771.816 2.888.054-.117-.87zm6.442-1.098-2.77.816 2.887.054-.117-.87zm-16.252 3.806-2.77.817 2.888.054-.118-.87zm-2.727-2.301-2.878-.238 2.817-.638.061.876zm20.15-2.904-2.77-.817 2.887-.054-.117.87zm-21.107-.72-2.828-.59 2.875-.287-.047.877zm17.109-1.637-2.1-1.985 2.599 1.262-.5.723zm.47 6.255-2.1 1.985 2.6-1.263-.5-.722zm-7.923 2.415-1.84 2.226L176 54.18l-.584-.656zm-7.656 1.308-2.77.817 2.888.054-.117-.87zm-4.681-1.697-2.496-1.455 2.818.638-.323.817zm-.244-9.649-2.495 1.455 2.817-.638-.322-.817z"/></g><path style="marker:none" d="M181.257 299.511c.155 91.385-.31 182.788.237 274.166 2.911 82.01 65.672 156.897 145.827 174.216 74.154 18.066 157.184-14.403 199.04-78.428 25.066-35.807 34.302-80.113 32.235-123.247V299.511H181.257z" fill="none" stroke="#000" stroke-width="2.343" overflow="visible" transform="translate(58.427 -59.155) scale(.31579)"/></svg>