<svg xmlns="http://www.w3.org/2000/svg" height="533.33" width="800"><path d="M-.004-.002H800V533.33H-.004z"/><g fill="#ebab00" fill-rule="evenodd"><path d="M133.332 177.775-.004 88.885V533.33h133.336V177.775zM400 355.553l-133.332-88.888V533.33H400V355.553zM666.668 533.33l-133.336-88.89v88.89h133.336z"/><path d="M133.332 177.775V-.002l133.336 88.89v177.786l-133.336-88.899zM400 355.552V177.774l133.336 88.89V444.45L400 355.552zM666.668 533.33V355.553l133.336 88.89L800 533.33H666.668z"/><path d="m533.332 266.663 133.336 88.89V-.002H533.332v266.665zM266.664 88.885l133.332 88.888L400-.002H266.668l-.004 88.887z"/></g><path d="m515.035 101.09-.152 213.977c-.022 30.68-3.201 35.191-24.2 48.186L400 419.374l-90.684-56.121c-20.998-12.995-24.177-17.507-24.199-48.186l-.152-213.977h230.07z" fill-rule="evenodd"/><path d="M495.06 121.1v193.99c0 21.881-.987 22.466-15.195 31.268L400 395.832l-79.865-49.474c-14.208-8.802-15.195-9.387-15.195-31.268V121.1h190.12z" fill="none" stroke="#ebab00" stroke-width="8"/><path d="M396.469 134.6c-.632-.009-1.119.317-1.438.75-.699.302-.958.747-1.5 1.312-.118.148-.437.784-.437 1.094.098 1.29-.446 2.7.125 4.03.517.513 1.244.919 1.906 1.22-.963 3.072-.877 7.258-.531 11.343.19 2.25 1.116 3.78 2.25 4.563a63.165 63.165 0 0 1-.094 2.656c-.445-.133-.899-.273-1.344-.406-.157-.316-.052-.769.125-1.125-.38-.034-.48.196-.781.344.164-.565 1.3-.742 1.187-1.125-.564-.169-.869-.09-1.375.125-.577-.142-.814.506-1.156 1.03-.486-.214-.87-.161-1.219.188.204.545.83.646 1.25.97.066.665.474 1.226 1.032 1.468-.657 1.493.3 2.854 1.218 3.5-.743.304-1.283 1.681-1.312 2.312h-.219v2.282h-1.187v5.343h-1.313c-.73 0-1.312.584-1.312 1.313 0 .73.583 1.312 1.312 1.312h-.594v8.407h.313a1.287 1.287 0 0 0-1.031 1.28c0 .73.583 1.313 1.312 1.313h.219l-.031 1.438a16.075 16.075 0 0 1-.594-.969l-.063 3.406c.198.302.414.586.625.875l-.218 12.375c-.215.274-.423.556-.625.844l-.063 3.375c.008-.012.024-.02.031-.031l-.062 3.031c.197.275.417.548.625.813l-.219 12.562c-.22.291-.452.6-.656.906l-.031 3.032c.195-.317.43-.625.656-.938l-.031.938h-1.094v1.75h.344v9.406h-.719a.937.937 0 0 0-.938.937c0 .389.227.734.563.875h-.563v1.532c-.589.056-.891.618-.78 1.156-.248 1.187-1.08 2.532-2.032 2.562-.635-.385-.986-.679-1-1.343-.012-.556.134-1.093.781-1.532.188-.191.036-.2-.25-.218-.147-.005-.403.015-.531.062.17-.158.203-.286.156-.437a.81.81 0 0 0-.469-.125c-.125-.11-.255-.178-.375-.188-.04-.003-.054.028-.093.031-.263.025-.518.182-.782.188-.605.202-.836 1.084-1.25 1.625.147.228.184.097.344.031-.049.3-.21.606-.125.906-.066.284-.3.58-.219.844-.23.198-.238.664-.062.875.154.168.198.331.094.531-.247.392-.099.858.031.97.094.227.03.566-.094.75-.332 1.103.1 2.016.688 2.75-.092.487.18 2.477.312 3.062-.283.122-.647.262-.812.53h-.313v2.376h-2.312v4.562h-3.688v1.375h1.438c1.046.881 2.13 2.026 2.312 3.282h-1.25v1.125h1.25l-.812 11.875h-3.344v.937h.406v1.813h.906v3.156l-1.28 17.844H338.03c.18-.277-.297-.817-.625-.813-.058-.327-.216-.45-.5-.469-.284.02-.41.142-.469.47-.436-.006-1.143.949-.218.968l-.063.969h-.125c-.154 0-.281.098-.281.218 0 .121.127.22.281.22h.125l-.25 4.874c-.121.024-.219.085-.219.188 0 .102.098.164.22.187l-.032.344c-.051-.02-.095-.063-.156-.063-.216 0-.375.144-.375.313v.969c0 .169.159.312.375.312.025 0 .038-.028.062-.031v.312c-.116.027-.219.088-.219.188 0 .09.088.154.188.187l-.188 3.844h-.03c-.155 0-.25.098-.25.219 0 .09.063.154.155.187h-.125v2.344h-.25v10.25h3.688v-.062h122.5v.062h3.687v-10.25h-.25v-2.344h-.156c.101-.033.188-.097.188-.187 0-.121-.127-.219-.282-.219l-.187-3.844c.1-.033.187-.097.187-.187 0-.1-.102-.161-.218-.188v-.312c.015.001.015.031.031.031.216 0 .406-.143.406-.312v-.97c0-.168-.19-.312-.406-.312-.052 0-.08.017-.125.032v-.313c.107-.03.187-.093.187-.187 0-.103-.097-.164-.218-.188l-.25-4.875h.125c.154 0 .281-.098.281-.219 0-.12-.127-.218-.281-.218h-.125l-.063-.97c.925-.018.218-.973-.219-.968-.057-.327-.184-.45-.468-.469-.285.02-.442.142-.5.47-.328-.005-.805.535-.625.812h-37.407l-1.28-17.844v-3.156h.905v-1.813h.407v-.937h-3.563l-.812-11.875h1.25v-1.125h-1.25c.182-1.256 1.266-2.4 2.312-3.282h1.438v-1.375h-3.688v-4.562h-2.312v-2.375h-.313c-.165-.269-.53-.409-.812-.531.131-.585.404-2.575.312-3.063.588-.733 1.02-1.646.688-2.75-.124-.183-.188-.522-.094-.75.13-.11.278-.577.031-.969-.104-.2-.06-.363.094-.53.176-.212.136-.678-.094-.876.081-.264-.121-.56-.187-.844.085-.3-.108-.606-.157-.906h.032c.16.066.196.197.343-.031-.413-.541-.644-1.423-1.25-1.625-.263-.006-.518-.163-.78-.188-.04-.003-.086-.034-.126-.03-.12.01-.218.078-.344.187a.81.81 0 0 0-.468.125c-.047.15-.014.28.156.437-.128-.047-.416-.067-.563-.062-.285.019-.406.027-.218.218.647.44.793.976.781 1.532-.014.664-.365.958-1 1.343-.952-.03-1.784-1.375-2.031-2.562.11-.538-.192-1.1-.782-1.156v-1.532h-.562a.945.945 0 0 0 .562-.875.937.937 0 0 0-.937-.937h-.719v-9.406h.344v-1.75h-.5l-.063-3.125c-.189-.28-.391-.546-.593-.813l-.188-12.531c.191-.242.35-.5.531-.75l-.062-3.188c.028.043.066.083.094.125l-.063-3.406a19.7 19.7 0 0 0-.625-.844l-.219-12.406c.203-.28.435-.553.625-.844l-.093-3.562c-.173.304-.362.599-.563.906l-.031-1.219h.219c.729 0 1.312-.583 1.312-1.312 0-.638-.461-1.16-1.062-1.281h.343v-8.407h-.593c.729 0 1.312-.583 1.312-1.312 0-.73-.583-1.313-1.312-1.313h-1.313v-5.343h-1.187v-2.282h-.032c-.093-1.464-.034-3.022.094-4.343.132-1.473 1.346-2.205 1.438-3.594.046-.71-.63-1.265-1.844-1.406.354-.962.452-1.905.531-2.907.453-.302.836-.549.875-1.093.013-.62-.548-.869-.594-1.407-.196-2.179.057-4.403-.593-6.562.531-.646-.912-2.895-1.719-3.5.026-.531-.47-1.091-1.094-1.219-.465.072-.594-.33-.75-.781a.498.498 0 0 0 .063-.094c.19-.256.492-.4.656-1.25.536.169.683-1.278.25-1.5a1.57 1.57 0 0 0-.5-.781l.125-1.188-.469.407-.281-.657-.406.563-.407-.563-.406.625-.531-.343.062 1.187c-.225.172-.452.357-.625.625-.262.214-.401 1.571.25 1.563.145.678.2.7.72 1.25.022.037.062.062.093.093-.176.511-.62.65-1.219.438-.197-.222-.692-.257-1.125-.156-.532-.586-1.43-1.084-2.375-1.407-.21.162-.276.31-.25.532-.492-.303-.909-.554-1.5-.594.19-1.13-.164-1.938-.25-2.906.033-.35.196-.64.406-.688.054-.002.106-.025.157-.031.211 1.411 1.124 1.865 1.968 1.875.599.007 1.771-.815 1.782-2.031.007-.786-.598-2.391-1.875-2.407zm0 .687c.763.01 1.098 1.111 1.093 1.656-.006.843-.673 1.411-1.03 1.406-.529-.007-1.132-.345-1.22-1.437.157-.104.291-.226.407-.375a1.844 1.844 0 0 0-.188-.594c.187-.36.507-.662.938-.656zm-4.907 75.25-.03 1.187c-.136-.202-.253-.422-.376-.625.131-.186.267-.377.406-.562zm16.875.031c.107.144.211.293.313.438-.09.154-.185.314-.281.468l-.032-.906zm.313 20.594c.134.197.273.393.406.594h-.406v-.594z" fill="#fff" stroke="#fff" stroke-width="2"/><path d="M373.905 320.506v-3.29h1.06l1.979-27.542v-3.161h-.902v-1.809h-.423v-.923h48.98v.923h-.423v1.809h-.902v3.161l1.98 27.543h1.06v3.289h-52.41zm17.311-88.223.665-42.342h16.238l.665 42.342h-17.568z" fill="#fff" fill-rule="evenodd" stroke="#000"/><path stroke-linecap="round" stroke="#000" fill="#fff" d="M388.816 244.746h22.369v16.055h-22.369z"/><path stroke-linecap="round" stroke="#000" fill="#fff" d="M382.04 259.398h35.921v2.264H382.04z"/><path d="M389.006 254.706h21.988" fill="none" stroke="#000" stroke-width=".5"/><path stroke-linecap="round" stroke="#000" fill="#fff" d="M379.716 261.562h40.567v4.491h-40.567z"/><path d="m376.635 318.317 3.188-47.06c.083-1.833-1.951-3.528-3.27-4.508h46.895c-1.32.98-3.354 2.675-3.271 4.508l3.188 47.06h-46.73z" fill="#fff" fill-rule="evenodd" stroke="#000" stroke-linejoin="round"/><path stroke-width=".49" stroke="#000" fill="none" d="M391.331 284.254h17.338v2.193h-17.338z"/><path stroke="#000" fill="#fff" d="M376.038 266.125h47.924v1.358h-47.924zm2.506 4.639h42.913v1.15h-42.913z"/><path stroke-width=".49" stroke="#000" fill="none" d="M392.166 286.443h15.669v3.228h-15.669zm17.784 30.665-1.978-27.434h-15.944l-1.979 27.434"/><path d="m407.346 317.147-1.862-24.752h-10.968l-1.862 24.752h14.692z" fill="#0c0000" fill-rule="evenodd" stroke="#000" stroke-width=".49"/><path d="m408.668 317.147-1.94-26.151h-13.456l-1.94 26.15m-14.256-2.342H390.2m-12.968-2.382h13.123m-12.987-2.383h13.182m-13.007-2.382h13.181m-13.026-2.383h13.182m-12.987-2.382h13.123m-13.007-2.383h13.22m-13.025-2.382h13.181m-13.026-2.383h13.201m-13.026-2.382h13.24m-13.104-2.383h13.24m-13.084-2.382h13.265m-13.038-2.383h12.307m-12.197-2.382h11.971m-11.778-2.383h41.288m-41.151-2.383h41.014m-40.822-2.382h40.63m-40.465-2.383h40.3m2.774 40.503H409.8m12.968-2.382h-13.123m12.987-2.383H409.45m13.007-2.382h-13.181m13.026-2.383H409.12m12.987-2.382h-13.123m13.007-2.383h-13.22m13.025-2.382h-13.181m13.026-2.383H408.44m13.026-2.382h-13.24m13.104-2.383h-13.24m13.084-2.382H407.91m13.038-2.383h-12.23m12.12-2.382h-11.971" stroke-width=".49" stroke="#000" fill="none"/><path stroke-width=".49" stroke="#000" fill="#fff" d="M390.909 283.815h18.182v.932h-18.182zm-15.154 33.403h48.49v3.299h-48.49z"/><path d="M387.877 272.389v1.842m8.194-1.804v1.765m.234 2.969v1.834m-.038 3.015v1.557m-8.66-6.406v1.91m-.192 2.9v1.635m-3.925-8.793v1.911m8.312-1.91v1.91m-8.582 2.785v1.876m8.428-1.8v1.635m-4.425 5.504v1.945m-4.195-4.408v1.945m-.27 2.847v1.945m4.234.44v1.946m-4.426.44v1.946m4.233.44v1.946m-4.502.402v1.945m4.31.441v1.945m-4.541.518v1.876m4.349.395v1.876m-4.58.548v2.463m4.349 0v1.876m-4.541.433v1.876m4.387.51v1.876m5.772-42.323v1.911m20.321-4.335v1.842m-8.09-1.804v1.765m-.338 2.969v1.834m.039 3.015v1.557m8.658-6.406v1.91m.193 2.9v1.635m3.925-8.793v1.911m-8.312-1.91v1.91m8.582 2.785v1.945m-8.428-1.868v1.634m4.425 5.504v1.842m4.195-4.305v1.842m.27 2.95v1.841m-4.234.545v1.841m4.426.545v1.841m-4.233.545v1.841m4.502.506v1.842m-4.31.544v1.842m4.541.621v1.842m-4.349.429v1.841m4.58.583v1.842m-4.349.621v1.842m4.541.467v1.842m-4.387.544v1.842m-5.772-42.288v1.91M400 274.89v1.719m0 3.015v1.795m-6.531-21.991v2.095m13.062-2.096v2.096" fill="none" stroke="#000" stroke-width=".49"/><path d="M389.75 242.815h20.5c.517 0 .934.417.934.935a.933.933 0 0 1-.934.934h-20.5a.933.933 0 0 1-.934-.934c0-.518.417-.935.934-.935z" fill="#fff" stroke="#000" stroke-linecap="round"/><rect ry="0" rx=".935" y="233.407" x="390.465" height="9.387" width="19.07" stroke-linecap="round" stroke="#000" fill="#fff"/><rect ry="0" rx=".935" y="234.289" x="391.669" height="7.621" width="16.662" fill="#fff" stroke="#000" stroke-width=".5" stroke-linecap="round"/><path d="M392.573 234.406v7.389m14.854-7.39v7.39m-11.849-9.648.571-42.18m1.579 42.262.326-42.234m-4.109 42.125.599-42.234m-1.742 42.261.79-42.18m-1.66 42.262.707-42.261m11.783 42.18-.571-42.18m-1.579 42.26-.326-42.233m4.109 42.125-.599-42.234m1.742 42.261-.79-42.18m1.66 42.262-.707-42.261m-7.361.082v42.124" fill="none" stroke="#000" stroke-width=".5"/><path d="M409.009 210.504c-2.058 3.804-6.333 7.636-9.008 9.549-2.613-1.869-6.919-5.64-9.062-9.366l-.068 3.663c2.162 3.02 5.074 5.376 7.334 7.01-2.325 1.645-5.409 4.014-7.565 7.247l-.054 3.035c2.269-3.688 6.879-7.187 9.415-8.973 2.58 1.817 7.162 5.53 9.361 9.313l-.054-3.466c-2.154-3.188-5.207-5.526-7.51-7.155 2.238-1.62 5.123-3.941 7.279-6.92l-.068-3.937z" fill="#fff" fill-rule="evenodd" stroke="#000" stroke-width=".5"/><path stroke-linecap="round" stroke="#000" fill="#fff" d="M390.138 231.66h19.723v1.737h-19.723z"/><path d="M408.736 190.295c-2.051 3.616-6.245 7.576-8.735 9.444-2.511-1.885-6.727-5.68-8.749-9.287l-.054 3.414c2.013 3.074 4.789 5.504 7.034 7.208-2.138 1.55-5.097 3.794-7.265 6.88l-.055 3.374c2.457-3.653 6.796-7.26 9.09-8.92 2.321 1.68 6.675 5.282 9.088 8.96l-.054-3.414c-2.169-3.086-5.127-5.33-7.266-6.88 2.246-1.704 5.021-4.134 7.034-7.208l-.068-3.57z" fill="#fff" fill-rule="evenodd" stroke="#000" stroke-width=".5"/><path d="m399.484 202.812 2.286-1.741m-2.367 22.042 2.72-1.987m-4.244.476 2.585-1.877m-2.327-18.559 2.096-1.592" fill="none" stroke="#000" stroke-width=".5"/><path d="M391.657 187.37h16.686c.73 0 1.317.587 1.317 1.316 0 .73-.588 1.317-1.317 1.317h-16.686c-.73 0-1.316-.587-1.316-1.317s.587-1.316 1.316-1.316z" stroke-linecap="round" stroke="#000" fill="#fff"/><path d="M401.93 187.853c.454-.02.908.08 1.237.409-.208.3-.426.288-.684.433.258.152.5.136.684.457-.362.28-.758.393-1.187.336m2.9-1.635c.386-.02.772.08 1.052.409-.177.3-.362.288-.582.433.22.152.426.136.582.457-.308.28-.645.393-1.01.336m2.145-1.635c.236-.02.472.08.643.409-.108.3-.221.288-.356.433.135.152.26.136.356.457-.188.28-.394.393-.617.336m1.186-1.635c.236-.02.472.08.644.409-.11.3-.222.288-.356.433.134.152.26.136.356.457-.19.28-.395.393-.618.336m-10.236-1.635c-.453-.02-.907.08-1.236.409.208.3.426.288.684.433-.258.152-.5.136-.684.457.362.28.758.393 1.187.336m-2.9-1.635c-.386-.02-.772.08-1.052.409.177.3.362.288.582.433-.22.152-.426.136-.582.457.308.28.645.393 1.01.336m-2.145-1.635c-.236-.02-.472.08-.643.409.108.3.221.288.356.433-.135.152-.26.136-.356.457.188.28.394.393.617.336m-1.186-1.635c-.236-.02-.472.08-.643.409.108.3.221.288.356.433-.135.152-.26.136-.356.457.188.28.394.393.617.336" fill="none" stroke="#000" stroke-width=".5"/><path d="M391.657 176.363h16.686c.73 0 1.317.587 1.317 1.317s-.588 1.316-1.317 1.316h-16.686c-.73 0-1.316-.587-1.316-1.316 0-.73.587-1.317 1.316-1.317z" stroke-linecap="round" stroke="#000" fill="#fff"/><path d="M401.93 176.846c.454-.02.908.08 1.237.41-.208.3-.426.288-.684.432.258.153.5.137.684.457-.362.28-.758.393-1.187.337m2.9-1.636c.386-.02.772.08 1.052.41-.177.3-.362.288-.582.432.22.153.426.137.582.457-.308.28-.645.393-1.01.337m2.145-1.636c.236-.02.472.08.643.41-.108.3-.221.288-.356.432.135.153.26.137.356.457-.188.28-.394.393-.617.337m1.186-1.636c.236-.02.472.08.644.41-.11.3-.222.288-.356.432.134.153.26.137.356.457-.19.28-.395.393-.618.337m-10.236-1.636c-.453-.02-.907.08-1.236.41.208.3.426.288.684.432-.258.153-.5.137-.684.457.362.28.758.393 1.187.337m-2.9-1.636c-.386-.02-.772.08-1.052.41.177.3.362.288.582.432-.22.153-.426.137-.582.457.308.28.645.393 1.01.337m-2.145-1.636c-.236-.02-.472.08-.643.41.108.3.221.288.356.432-.135.153-.26.137-.356.457.188.28.394.393.617.337m-1.186-1.636c-.236-.02-.472.08-.643.41.108.3.221.288.356.432-.135.153-.26.137-.356.457.188.28.394.393.617.337" fill="none" stroke="#000" stroke-width=".5"/><rect ry="0" rx=".935" y="178.993" x="391.052" height="8.341" width="17.895" stroke-linecap="round" stroke="#000" fill="#fff"/><rect rx="0" y="171.022" x="392.957" height="5.311" width="14.085" stroke-linecap="round" stroke="#000" fill="#fff"/><path stroke-linecap="round" stroke="#000" fill="#fff" d="M394.15 168.752h11.699v2.232H394.15zM370.288 319.8h59.423v7.47h-59.423z"/><path fill="#fff" stroke="#000" stroke-linecap="round" d="M388.301 324.79h23.398v2.47h-23.398z"/><path stroke-linecap="round" stroke-width=".49" stroke="#000" fill="#fff" d="M388.301 322.28h23.398v2.47h-23.398z"/><path stroke-linecap="round" stroke-width=".49" stroke="#000" fill="#fff" d="M388.301 319.81h23.398v2.47h-23.398z"/><path d="M459.997 323.103V308.8l-.23-.549.418-1.12.419 1.12-.23.549v14.302h-.377z" fill-rule="evenodd"/><path d="M462.434 323.933H337.992v9.708h124.442v-9.708z" stroke-linecap="round" stroke="#000" fill="#fff"/><path d="M338.428 325.548h124.698" fill="none" stroke="#000" stroke-width=".5"/><path d="M462.928 321.39v.448H337.555v-.448h125.373zm0-12.667v.448H337.555v-.448h125.373z" fill-rule="evenodd"/><path d="M423.997 323.103V308.8l-.23-.549.418-1.12.418 1.12-.23.549v14.302h-.376zm1.895 0V308.8l-.23-.549.418-1.12.418 1.12-.23.549v14.302h-.376zm1.894 0V308.8l-.23-.549.419-1.12.418 1.12-.23.549v14.302h-.377zm1.895 0V308.8l-.23-.549.418-1.12.419 1.12-.23.549v14.302h-.377zm1.895 0V308.8l-.23-.549.418-1.12.418 1.12-.23.549v14.302h-.376zm1.895 0V308.8l-.23-.549.418-1.12.418 1.12-.23.549v14.302h-.376zm1.894 0V308.8l-.23-.549.419-1.12.418 1.12-.23.549v14.302h-.377zm1.895 0V308.8l-.23-.549.418-1.12.419 1.12-.23.549v14.302h-.377zm1.895 0V308.8l-.23-.549.418-1.12.418 1.12-.23.549v14.302h-.376zm1.895 0V308.8l-.23-.549.418-1.12.418 1.12-.23.549v14.302h-.376zm1.894 0V308.8l-.23-.549.419-1.12.418 1.12-.23.549v14.302h-.377zm1.895 0V308.8l-.23-.549.418-1.12.419 1.12-.23.549v14.302h-.377zm1.895 0V308.8l-.23-.549.418-1.12.418 1.12-.23.549v14.302h-.376zm1.895 0V308.8l-.23-.549.418-1.12.418 1.12-.23.549v14.302h-.376zm1.894 0V308.8l-.23-.549.419-1.12.418 1.12-.23.549v14.302h-.377zm1.895 0V308.8l-.23-.549.418-1.12.419 1.12-.23.549v14.302h-.377zm1.895 0V308.8l-.23-.549.418-1.12.418 1.12-.23.549v14.302h-.376zm1.895 0V308.8l-.23-.549.418-1.12.418 1.12-.23.549v14.302h-.376zm1.894 0V308.8l-.23-.549.419-1.12.418 1.12-.23.549v14.302h-.377zm-57.341 0V308.8l-.23-.549.418-1.12.418 1.12-.23.549v14.302h-.376zm1.894 0V308.8l-.23-.549.419-1.12.418 1.12-.23.549v14.302h-.377zm1.895 0V308.8l-.23-.549.418-1.12.419 1.12-.23.549v14.302h-.377zm1.895 0V308.8l-.23-.549.418-1.12.418 1.12-.23.549v14.302h-.376zm1.895 0V308.8l-.23-.549.418-1.12.418 1.12-.23.549v14.302h-.376zm1.894 0V308.8l-.23-.549.419-1.12.418 1.12-.23.549v14.302h-.377zm1.895 0V308.8l-.23-.549.418-1.12.419 1.12-.23.549v14.302h-.377zm1.895 0V308.8l-.23-.549.418-1.12.418 1.12-.23.549v14.302h-.376zm1.895 0V308.8l-.23-.549.418-1.12.418 1.12-.23.549v14.302h-.376zm1.894 0V308.8l-.23-.549.419-1.12.418 1.12-.23.549v14.302h-.377zm-18.574 0V308.8l.23-.549-.418-1.12-.418 1.12.23.549v14.302h.376zm-1.894 0V308.8l.23-.549-.419-1.12-.418 1.12.23.549v14.302h.377zm-1.895 0V308.8l.23-.549-.418-1.12-.419 1.12.23.549v14.302h.377zm-1.895 0V308.8l.23-.549-.418-1.12-.418 1.12.23.549v14.302h.376zm-1.895 0V308.8l.23-.549-.418-1.12-.418 1.12.23.549v14.302h.376zm-1.894 0V308.8l.23-.549-.419-1.12-.418 1.12.23.549v14.302h.377zm-1.895 0V308.8l.23-.549-.418-1.12-.419 1.12.23.549v14.302h.377zm-1.895 0V308.8l.23-.549-.418-1.12-.418 1.12.23.549v14.302h.376zm-1.895 0V308.8l.23-.549-.418-1.12-.418 1.12.23.549v14.302h.376zm-1.894 0V308.8l.23-.549-.419-1.12-.418 1.12.23.549v14.302h.377zm-6.184 0V308.8l.23-.549-.418-1.12-.419 1.12.23.549v14.302h.377zm-1.895 0V308.8l.23-.549-.418-1.12-.418 1.12.23.549v14.302h.376zm-1.894 0V308.8l.23-.549-.419-1.12-.418 1.12.23.549v14.302h.377zm-1.895 0V308.8l.23-.549-.418-1.12-.419 1.12.23.549v14.302h.377zm-1.895 0V308.8l.23-.549-.418-1.12-.419 1.12.23.549v14.302h.377zm-1.895 0V308.8l.23-.549-.418-1.12-.418 1.12.23.549v14.302h.376zm-1.894 0V308.8l.23-.549-.419-1.12-.418 1.12.23.549v14.302h.377zm-1.895 0V308.8l.23-.549-.418-1.12-.419 1.12.23.549v14.302h.377zm-1.895 0V308.8l.23-.549-.418-1.12-.418 1.12.23.549v14.302h.376zm-1.895 0V308.8l.23-.549-.418-1.12-.418 1.12.23.549v14.302h.376zm-1.894 0V308.8l.23-.549-.419-1.12-.418 1.12.23.549v14.302h.377zm-1.895 0V308.8l.23-.549-.418-1.12-.419 1.12.23.549v14.302h.377zm-1.895 0V308.8l.23-.549-.418-1.12-.418 1.12.23.549v14.302h.376zm-1.895 0V308.8l.23-.549-.418-1.12-.418 1.12.23.549v14.302h.376zm-1.894 0V308.8l.23-.549-.419-1.12-.418 1.12.23.549v14.302h.377zm-1.895 0V308.8l.23-.549-.418-1.12-.419 1.12.23.549v14.302h.377zm-1.895 0V308.8l.23-.549-.418-1.12-.418 1.12.23.549v14.302h.376zm-1.895 0V308.8l.23-.549-.418-1.12-.418 1.12.23.549v14.302h.376zm-1.894 0V308.8l.23-.549-.419-1.12-.418 1.12.23.549v14.302h.377zm-1.895 0V308.8l.23-.549-.418-1.12-.419 1.12.23.549v14.302h.377zm80.34-15.971-.419 1.119.23.548v14.306h1.879v-14.306l.23-.548-.42-1.12-.183.5-.189-.5-.189.504-.189-.503-.189.5-.183-.5-.19.503-.188-.503zm-40.686 0 .418 1.119-.23.548v14.306h-1.878v-14.306l-.23-.548.42-1.12.183.5.189-.5.189.504.189-.503.188.5.184-.5.19.503.188-.503z" fill-rule="evenodd"/><path d="M338.08 329.889h124.815" fill="none" stroke="#000" stroke-width=".5"/><path d="M382 323.873h-6.187v9.855H382v-9.855z" stroke-linecap="round" stroke="#000" fill="#fff"/><path d="M381.217 323.017h-4.62v.841h4.62v-.841z" fill="#fff" stroke="#000" stroke-width=".49" stroke-linecap="round"/><path d="M338.756 323.459h-3.68v10.264h3.68v-10.264zm79.244.414h6.187v9.855H418v-9.855z" stroke-linecap="round" stroke="#000" fill="#fff"/><path d="M418.783 323.017h4.62v.841h-4.62v-.841z" fill="#fff" stroke="#000" stroke-width=".49" stroke-linecap="round"/><path d="M461.244 323.459h3.68v10.264h-3.68v-10.264z" fill="#fff" stroke="#000" stroke-linecap="round"/><path d="m397.305 161.628-1.89-.565c-.158-.316-.06-.774.118-1.13-.381-.034-.467.195-.769.343.165-.565 1.294-.747 1.182-1.13-.564-.168-.873-.094-1.378.121-.578-.141-.821.504-1.162 1.029-.486-.215-.874-.148-1.221.202.203.545.84.645 1.26.968.066.666.466 1.21 1.024 1.453-.656 1.493.302 2.865 1.221 3.51-.788.323-1.369 1.72-1.33 2.285l1.901-.01 1.044-7.076z" fill="#f9f9f9" fill-rule="evenodd" stroke="#000" stroke-width=".75" stroke-linecap="round" stroke-linejoin="round"/><path d="m400.318 138.349-.059-1.21.532.366.394-.636.413.557.414-.541.276.636.453-.398-.099 1.194-2.324.032z" fill="#f9f9f9" fill-rule="evenodd" stroke="#000" stroke-width=".5"/><path d="M395.454 141.977c-1.313 3.12-1.248 7.758-.867 12.266.302 3.562 2.495 5.3 4.333 5.165l1.024-10.975-4.49-6.456z" stroke="#000" fill-rule="evenodd" fill="#fff"/><path d="M396.47 134.502c-1.353-.017-1.975 1.53-1.923 2.266.116 1.65 1.132 2.143 2.033 2.154.599.007 1.747-.796 1.758-2.012.007-.786-.59-2.393-1.868-2.408zm-.014 1.02c.763.01.901.706.897 1.25-.006.844-.446 1.16-.803 1.155-.539-.008-.876-.037-.945-1.18-.031-.51.043-1.237.851-1.226z" stroke-width=".625" stroke="#000" fill-rule="evenodd" fill="#f9f9f9"/><path d="M405.813 168.71c-.105-1.5-.033-2.94.098-4.298.132-1.473 1.347-2.223 1.438-3.612.047-.709-.637-1.27-1.851-1.412.354-.962.453-1.883.532-2.885.453-.303.846-.545.886-1.09.013-.618-.565-.894-.61-1.432-.198-2.179.058-4.378-.592-6.537.532-.645-.906-2.905-1.713-3.51.026-.532-.48-1.103-1.103-1.23-.564.087-.656-.492-.866-1.05h-1.221c-.112.706-.598.908-1.28.666-.197-.222-.69-.283-1.123-.182-.532-.585-1.418-1.07-2.363-1.392-.21.161-.302.323-.276.545-.493-.303-.886-.565-1.477-.605.19-1.13.036-1.868-.05-2.837.034-.35.185-.639.395-.686.551-.02.797-.351 1.092-.734a1.672 1.672 0 0 0-.699-1.17c-.699.302-1.103.622-1.644 1.187-.119.148-.414.78-.414 1.09.099 1.29-.315 2.827.256 4.158.598.592 1.47 1.043 2.206 1.352-.374 2.192.906 3.86 1.95 4.277-.095.619.243 1.48.66 1.856-.601 1.19-1.459 1.815-1.29 4.54.281 4.558.085 10.706-1.11 14.983l10.169.007z" fill="#f9f9f9" fill-rule="evenodd" stroke="#000"/><path d="M398.792 149.084c2.442-.874 4.648-.094 5.436 1.977-1.536-1.315-2.968-1.991-5.436-1.977zm3.04 10.792c-.03.232.36.607.712.46.289-.12.792-.962.67-1.654-.357.691-.766 1.452-1.382 1.194zm.358 3.325c.97-.379 1.783-2.124 1.232-3.222-.106 1.2-.557 2.194-1.233 3.222zm-.474 3.148c.166-1.088 1.506-3.475 1.852-3.834.623-.711.165 3.249-.867 4.035.575-1.141 1.053-3.796-.985-.201zm-3.584-7.304c-.026.135.694 1.558 1.3 1.533.603.077.68-1.07.748-1.21-.585.869-1.438.615-2.048-.323zm1.654 2.018c.075 1.276-.51 2.227-1.654 2.179.65-.702 1.323-1.306 1.654-2.18zm-1.733 4.156c-.093.072 1.454-1.555 1.615-1.776.348-.223-.48 2.985-.748 3.35-.045-1.062.52-2.514-.867-1.574zm.62-21.173c.386 1.223-.305 2.208-1.21 2.611.697-.692.945-1.556 1.21-2.61z" fill-rule="evenodd"/><path d="M405.495 147.512c-.446-1.304-1.624-.415-1.279 1.96.954 2.956.96 7.069.573 10.017-.349 2.66-.814 5.528-.63 8.191" fill="none" stroke="#000" stroke-width=".5"/><path d="M399.944 140.532c-.652.009-.519-1.34-.256-1.554.414-.643 1.004-1.05 1.654-1.03.946-.05 1.576.415 1.773 1.137.433.221.313 1.683-.223 1.514-.164.85-.473.974-.663 1.23-.25.471-1.267.45-1.576-.043-.519-.55-.565-.575-.709-1.254z" fill="#fefefe" fill-rule="evenodd" stroke="#000" stroke-width=".75"/><path d="M402.575 139.897c-.546-.127-.842-.23-1.104-.646-.315.484-.522.573-1.133.714.505-.296.912-.653 1.147-1.144.246.379.6.794 1.09 1.076z" fill-rule="evenodd"/><path d="M399.826 142.574c.39 1.208 2.534 1.474 2.84.285" fill="none" stroke="#000" stroke-width=".5"/><path d="M399.213 145.57c.028 1.502 1.337 2.891 3.008 2.967-1.417-.61-2.264-1.564-3.008-2.967zm.585-.314c.4.973 1.45 1.982 2.45 1.427-.799-.424-1.72-.624-2.45-1.427zm1.328 6.405c.702 2.05.418 4.213-.63 6.053.405-2.018.713-4.035.63-6.053z" fill-rule="evenodd"/><path d="M405.842 156.24c-.381.03-.846-.745-.836-1.515" fill="none" stroke="#000" stroke-width=".5"/><path d="M400.59 140.155c.227-.21.552-.244.78-.082-.052.271-.12.439-.213.838-.163-.418.026-.737-.568-.756zm1.1-.01c.194-.372.79-.19.762.088-.143-.117-.456-.2-.763-.089zm-.554.745c.2.073.39.083.585.007-.041.354-.583.38-.563-.014m-.114.487c.272-.207.665-.125.846.018-.226.068-.665.093-.846-.018z" fill-rule="evenodd"/><path d="M400.758 317.455v-8.656l-.23-.548.418-1.12.418 1.12-.23.548v8.656h-.376zm1.895 0v-8.656l-.23-.548.418-1.12.418 1.12-.23.548v8.656h-.376zm1.894 0v-8.656l-.23-.548.419-1.12.418 1.12-.23.548v8.656h-.377zm1.895 0v-8.656l-.23-.548.418-1.12.419 1.12-.23.548v8.656h-.377zm-7.205 0v-8.656l.23-.548-.419-1.12-.418 1.12.23.548v8.656h.377zm-1.895 0v-8.656l.23-.548-.418-1.12-.419 1.12.23.548v8.656h.377zm-1.895 0v-8.656l.23-.548-.418-1.12-.418 1.12.23.548v8.656h.376zm-1.895 0v-8.656l.23-.548-.418-1.12-.418 1.12.23.548v8.656h.376z" fill-rule="evenodd" fill="#fff"/><path d="M338.52 321.184h-3.208v2.262h3.208v-2.262z" stroke-linecap="round" stroke-width=".8" stroke="#000" fill="#fff"/><path d="M338.487 315.897v-.961c0-.17-.174-.306-.39-.306-.216 0-.39.136-.39.306v.96c0 .17.174.306.39.306.216 0 .39-.136.39-.305zm-2.362 0v-.961c0-.17-.174-.306-.39-.306-.216 0-.39.136-.39.306v.96c0 .17.174.306.39.306.216 0 .39-.136.39-.305z" fill="#fff" stroke="#000" stroke-width=".4" stroke-linecap="round"/><path d="m335.567 320.731.66-13.056c-.924-.019-.23-.962.207-.956.057-.328.198-.452.482-.47.284.018.424.142.482.47.437-.006 1.131.937.206.956l.66 13.056h-2.697z" fill="#fff" fill-rule="evenodd" stroke="#000" stroke-width=".8"/><path d="M337.8 308.647h-1.767c-.155 0-.279.097-.279.218s.124.218.279.218h1.766c.154 0 .279-.097.279-.218 0-.12-.125-.218-.279-.218zm.073 5.283h-1.914c-.155 0-.279.097-.279.218 0 .12.124.218.279.218h1.914c.154 0 .279-.097.279-.218 0-.12-.125-.218-.279-.218zm.117 2.536h-2.149c-.154 0-.278.097-.278.218s.124.218.278.218h2.15c.154 0 .278-.097.278-.218 0-.12-.124-.218-.279-.218zm.293 4.249h-2.735c-.154 0-.278.097-.278.218s.124.218.278.218h2.735c.155 0 .279-.097.279-.218 0-.12-.124-.218-.279-.218z" stroke-linecap="round" stroke-width=".4" stroke="#000" fill="#fff"/><path d="M337.354 306.716h-.876m1.108.954h-1.34" stroke-width=".4" stroke="#000" fill="none"/><path d="M337.306 315.897v-.961c0-.17-.174-.306-.39-.306-.216 0-.39.136-.39.306v.96c0 .17.174.306.39.306.216 0 .39-.136.39-.305z" fill="#fff" stroke="#000" stroke-width=".4" stroke-linecap="round"/><path d="M464.688 321.184h-3.208v2.262h3.208v-2.262z" fill="#fff" stroke="#000" stroke-width=".8" stroke-linecap="round"/><path d="M463.474 315.897v-.961c0-.17-.174-.306-.39-.306-.216 0-.39.136-.39.306v.96c0 .17.174.306.39.306.216 0 .39-.136.39-.305z" fill="#fff" stroke="#000" stroke-width=".4" stroke-linecap="round"/><path d="M463.474 315.897v-.961c0-.17-.174-.306-.39-.306-.216 0-.39.136-.39.306v.96c0 .17.174.306.39.306.216 0 .39-.136.39-.305z" fill="#fff" stroke="#000" stroke-width=".4" stroke-linecap="round"/><path d="m461.735 320.731.66-13.056c-.924-.019-.23-.962.207-.956.058-.328.198-.452.482-.47.284.018.425.142.482.47.437-.006 1.131.937.207.956l.66 13.056h-2.698z" fill="#fff" fill-rule="evenodd" stroke="#000" stroke-width=".8"/><path d="M463.967 308.647h-1.766c-.155 0-.279.097-.279.218s.124.218.279.218h1.766c.155 0 .279-.097.279-.218 0-.12-.124-.218-.279-.218zm.074 5.283h-1.914c-.154 0-.279.097-.279.218 0 .12.125.218.279.218h1.914c.154 0 .279-.097.279-.218 0-.12-.125-.218-.279-.218zm.117 2.536h-2.148c-.155 0-.279.097-.279.218s.124.218.279.218h2.148c.155 0 .279-.097.279-.218 0-.12-.124-.218-.279-.218zm.294 4.249h-2.735c-.155 0-.279.097-.279.218s.124.218.279.218h2.735c.154 0 .278-.097.278-.218 0-.12-.124-.218-.278-.218z" fill="#fff" stroke="#000" stroke-width=".4" stroke-linecap="round"/><path d="M463.522 306.716h-.876m1.108.954h-1.34" fill="none" stroke="#000" stroke-width=".4"/><path d="M463.474 315.897v-.961c0-.17-.174-.306-.39-.306-.216 0-.39.136-.39.306v.96c0 .17.174.306.39.306.216 0 .39-.136.39-.305z" fill="#fff" stroke="#000" stroke-width=".4" stroke-linecap="round"/><path d="M414.334 246.752z" fill="none" stroke="#000" stroke-width=".5" stroke-linecap="round" stroke-linejoin="round"/><path d="M415.506 246.104a.632.632 0 0 0-.367.166.82.82 0 0 0-.473.121c-.047.151-.08.031.09.189-.127-.047-.32.184-.468.188-.285.02-.436.026-.249.218.648.439.804.99.793 1.546-.014.665-.35.962-.986 1.347-.952-.03-1.796-1.398-2.043-2.585.145-.705-.416-1.41-1.41-1.03-.946.192-2.579.801-2.35 1.337-.62.476-1.458 1.241-1.21 1.7-.302.53-1.544 2.205-.996 2.73-.277 1.597-.861 3.12-1.59 4.627-.687 1.302-.344 2.297.054 1.79-.126.482.235.766.47.435-.045.319.303.313.669.072.31.099.874-.209 1.012-.543.344.112 1.004-.183 1.248-.56-.054.464-.15.946-.204 1.41h10.068c-.124-.336-.573-.474-.889-.611.132-.584.396-2.574.304-3.062.588-.733 1.023-1.632.69-2.736-.123-.183-.182-.545-.089-.773.13-.111.273-.56.026-.953-.105-.2-.05-.381.105-.55.176-.21.15-.651-.08-.85.08-.264-.132-.566-.198-.85.085-.3-.098-.6-.147-.9l.006-.007c.16.066.205.177.352-.051-.414-.542-.635-1.421-1.24-1.624-.264-.005-.517-.165-.78-.19a.658.658 0 0 0-.118 0zm-5.363 7.711c.248.142.562.23.744.131.252.102.559.128.821.044-.32.61-.751 1.076-.963 1.828a1.056 1.056 0 0 0-1.018.033l-.525-.131.941-1.905zm4.854 3.76.236.235.076 1.045-.476-.147-.202-.789.366-.345z" fill="#fff" fill-rule="evenodd" stroke="#000" stroke-width=".75" stroke-linecap="round" stroke-linejoin="round"/><path d="M414.154 254.02c.325.65.325 1.319.325 1.952-.06.88.078 1.832.362 2.748.403.09.843.217 1.048.542" fill="none" stroke="#000" stroke-width=".5" stroke-linecap="round" stroke-linejoin="round"/><path d="M414.894 257.74c.54-.716.698-1.29 1.049-2.012.735-.281 1.584-1.975 1.152-2.79.031.92-.762 2.322-1.445 2.436-.264.743-.516 1.487-1.04 1.763l.284.603zm-.394-2.634c.715-.488 1.21-1.132 1.086-2.106-.262.72-.688 1.403-1.157 1.567l.07.54zm-1.942-5.172c-.468-.008-.668-.745-1.084-1.393-.314-.489-.147-1.227-.536-1.66-.231-.257-.725-.063-1.039.08-.484.223-.975.312-1.288.768 1.409-.404 1.99-.048 2.224.652.172.932.896 1.83 1.723 1.553z" fill-rule="evenodd"/><path d="M412.53 254.078c-.183.54-.3 1.495.306 2.21.007.519.32 1.146.678 1.686-.277.35-.401.744-.24 1.248m-2.358-3.415c.832 1.087.153 2.459-.59 3.393m-.002-3.165c.46.963-.219 2.255-.788 3.152m-1.779-1.476c.004-.064.022-.26.022-.394 0-.136-.108-.26-.153-.35-.085-.169.045-.33.153-.438.12-.12.313-.254.46-.328.154-.077.222-.123.306-.263.112-.187.39-.453.548-.262m4.848-5.815c-.604.283-1.038 1.758-1.103 2.271-.057.449-.181.904-.48 1.254-.11.129-.217.26-.332.385" fill="none" stroke="#000" stroke-width=".5" stroke-linecap="round" stroke-linejoin="round"/><path d="M406.262 252.744c.47 1.644-.455 4.072-1.635 4.552.74-1.402 1.378-3.15 1.635-4.552zm3.654-2.954c-.376.573-.745.594-.949.477-.323-.186-.02-.667-.096-.644-.255.173-.55.234-.645.102-.095-.132-.087-.491.333-.86-.057.508.175.615.629.358-.086.49.145.748.728.566zm4.901-3.32c.58.077 1.078.9 1.253 1.217-.34-.223-.856-.79-1.433-.578l.18-.638zm1.817.033-.537.29.819.515-.282-.805zm-7.304 5.167c-.376.572-.745.594-.948.477-.324-.187-.234-.787.22-1.044-.086.49.145.748.729.566zm2.784-1.466c-.376.574-.746.595-.95.478-.323-.186-.233-.787.22-1.044-.085.49.147.748.73.566zm-.049 1.172c-.376.574-.746.595-.95.478-.323-.186-.233-.787.221-1.044-.086.49.146.748.729.566zm-.684.952c-.376.574-.745.595-.949.478-.324-.186-.02-.667-.096-.644-.256.173-.55.234-.645.102-.095-.132-.087-.491.333-.86-.057.509.175.615.628.358-.085.49.146.748.73.566zm-1.025-1.391c-.376.573-.746.594-.95.477-.323-.186-.233-.786.221-1.043-.086.49.146.747.729.566zm.342-2.539c-.376.573-.746.594-.95.477-.323-.186-.233-.786.22-1.043-.085.49.147.747.73.566zm4.702 1.697c-.082.681.188.935.419.976.367.066.444-.497.488-.43.084.296.27.533.427.493.158-.04.383-.32.3-.873-.285.426-.53.359-.712-.13-.25.43-.593.478-.922-.036zm.932-1.079c-.081.68.188.934.42.976.367.066.684-.452.502-.94-.25.43-.592.478-.922-.036zm.049 2.344c-.081.68.188.934.419.976.368.066.685-.452.503-.94-.25.43-.593.478-.922-.037zm-6.708 5.14c-.094.68-.42.858-.653.84-.372-.03-.548-.612-.248-1.038.132.48.452.613.9.199z" fill-rule="evenodd"/><path d="M385.666 246.752z" fill="none" stroke="#000" stroke-width=".5" stroke-linecap="round" stroke-linejoin="round"/><path d="M384.494 246.104c.12.01.242.057.367.166a.82.82 0 0 1 .473.121c.047.151.08.031-.09.189.128-.047.32.184.468.188.285.02.436.026.249.218-.648.439-.804.99-.793 1.546.014.665.35.962.986 1.347.952-.03 1.796-1.398 2.043-2.585-.145-.705.416-1.41 1.41-1.03.946.192 2.579.801 2.35 1.337.62.476 1.458 1.241 1.211 1.7.301.53 1.543 2.205.995 2.73.277 1.597.861 3.12 1.59 4.627.688 1.302.344 2.297-.054 1.79.127.482-.235.766-.47.435.045.319-.303.313-.669.072-.31.099-.874-.209-1.012-.543-.344.112-1.004-.183-1.248-.56.055.464.15.946.204 1.41h-10.068c.124-.336.573-.474.889-.611-.132-.584-.396-2.574-.304-3.062-.588-.733-1.023-1.632-.69-2.736.123-.183.183-.545.089-.773-.13-.111-.273-.56-.026-.953.105-.2.05-.381-.105-.55-.175-.21-.15-.651.08-.85-.08-.264.132-.566.198-.85-.085-.3.098-.6.147-.9l-.006-.007c-.16.066-.204.177-.351-.051.413-.542.634-1.421 1.239-1.624.264-.005.517-.165.78-.19a.658.658 0 0 1 .118 0zm5.363 7.711c-.248.142-.562.23-.744.131a1.244 1.244 0 0 1-.821.044c.32.61.752 1.076.963 1.828a1.056 1.056 0 0 1 1.018.033l.525-.131-.94-1.905zm-4.854 3.76-.236.235-.076 1.045.476-.147.202-.789-.366-.345z" fill="#fff" fill-rule="evenodd" stroke="#000" stroke-width=".75" stroke-linecap="round" stroke-linejoin="round"/><path d="M385.846 254.02c-.325.65-.325 1.319-.325 1.952.06.88-.078 1.832-.362 2.748-.403.09-.843.217-1.048.542" fill="none" stroke="#000" stroke-width=".5" stroke-linecap="round" stroke-linejoin="round"/><path d="M385.106 257.74c-.54-.716-.698-1.29-1.048-2.012-.735-.281-1.585-1.975-1.153-2.79-.031.92.762 2.322 1.445 2.436.264.743.516 1.487 1.04 1.763l-.284.603zm.394-2.634c-.714-.488-1.21-1.132-1.086-2.106.262.72.688 1.403 1.157 1.567l-.07.54zm1.942-5.172c.468-.008.668-.745 1.084-1.393.315-.489.147-1.227.536-1.66.231-.257.725-.063 1.039.08.484.223.975.312 1.288.768-1.409-.404-1.99-.048-2.224.652-.172.932-.895 1.83-1.723 1.553z" fill-rule="evenodd"/><path d="M387.47 254.078c.183.54.3 1.495-.306 2.21-.007.519-.32 1.146-.678 1.686.277.35.401.744.24 1.248m2.358-3.415c-.832 1.087-.153 2.459.59 3.393m.002-3.165c-.46.963.219 2.255.788 3.152m1.779-1.476c-.004-.064-.022-.26-.022-.394 0-.136.108-.26.153-.35.085-.169-.045-.33-.153-.438a1.992 1.992 0 0 0-.46-.328c-.154-.077-.222-.123-.306-.263-.112-.187-.389-.453-.547-.262m-4.849-5.815c.604.283 1.038 1.758 1.103 2.271.057.449.181.904.48 1.254.11.129.217.26.332.385" fill="none" stroke="#000" stroke-width=".5" stroke-linecap="round" stroke-linejoin="round"/><path d="M393.738 252.744c-.469 1.644.455 4.072 1.635 4.552-.74-1.402-1.378-3.15-1.635-4.552zm-3.654-2.954c.376.573.745.594.949.477.323-.186.02-.667.096-.644.256.173.55.234.645.102.095-.132.087-.491-.333-.86.057.508-.175.615-.628.358.085.49-.146.748-.73.566zm-4.901-3.32c-.58.077-1.077.9-1.253 1.217.34-.223.856-.79 1.433-.578l-.18-.638zm-1.817.033.537.29-.819.515.282-.805zm7.304 5.167c.376.572.745.594.949.477.323-.187.233-.787-.22-1.044.085.49-.146.748-.73.566zm-2.784-1.466c.376.574.746.595.95.478.323-.186.233-.787-.22-1.044.085.49-.147.748-.73.566zm.049 1.172c.376.574.746.595.95.478.323-.186.233-.787-.22-1.044.085.49-.147.748-.73.566zm.684.952c.376.574.745.595.949.478.324-.186.02-.667.096-.644.256.173.55.234.645.102.095-.132.087-.491-.333-.86.057.509-.175.615-.628.358.085.49-.146.748-.73.566zm1.025-1.391c.376.573.746.594.95.477.323-.186.233-.786-.221-1.043.086.49-.146.747-.729.566zm-.342-2.539c.376.573.746.594.95.477.323-.186.233-.786-.22-1.043.085.49-.147.747-.73.566zm-4.702 1.697c.082.681-.188.935-.419.976-.367.066-.444-.497-.488-.43-.084.296-.27.533-.427.493-.158-.04-.383-.32-.3-.873.285.426.53.359.712-.13.25.43.593.478.922-.036zm-.932-1.079c.081.68-.188.934-.42.976-.367.066-.684-.452-.502-.94.25.43.593.478.922-.036zm-.049 2.344c.081.68-.188.934-.419.976-.368.066-.685-.452-.503-.94.25.43.593.478.922-.037zm6.708 5.14c.094.68.42.858.653.84.372-.03.548-.612.248-1.038-.132.48-.452.613-.9.199z" fill-rule="evenodd"/></svg>