<svg xmlns="http://www.w3.org/2000/svg" version="1" width="360" height="216" xmlns:cgf="https://coding.garden/flags"><metadata id="cgf-metadata">

<cgf:flag>
  <cgf:name>Ocean City</cgf:name>
  <cgf:route>us/md/ocean_city</cgf:route>
  <cgf:aspect-ratio>1.6666666666666667</cgf:aspect-ratio>
</cgf:flag>

</metadata><path fill="#fff" d="M0 216h360V0H0z"></path><path d="M.958 70.303s115.024-.649 167.442 0c12.972.16 33.272 9.717 43.135 26.992 0 0 14.084-28.144 51.947-28.854 49.147-.932 57.44 45.848 44.99 53.984 0 0-11.11-27.923-39.436-23.734-17.73 2.621-33.053 17.484-32.92 36.764.222 31.995 39.842 40.663 55.211 38.161 44.077-7.174 68.173-13.961 68.173-13.961V215.5H.5L.958 70.303z" fill="#10a5ff" fill-rule="evenodd" stroke="#10a5ff"></path><path d="M155.571 352.189a4.862 36.867 0 1 1-9.723 0 4.862 36.867 0 1 1 9.723 0z" transform="matrix(7.57982 0 0 .99954 -994.35 -215.82)" fill="#fff" stroke="#fff" stroke-width=".836" stroke-linecap="round"></path></svg>