<svg xmlns="http://www.w3.org/2000/svg" width="1300" height="868" xmlns:cgf="https://coding.garden/flags"><metadata id="cgf-metadata">

<cgf:flag>
  <cgf:name>Rockville</cgf:name>
  <cgf:route>us/md/rockville</cgf:route>
  <cgf:aspect-ratio>1.4976958525345623</cgf:aspect-ratio>
</cgf:flag>

</metadata><path fill="#fff" d="M0 0h1300v868H0z"></path><path d="M0 665.862V463.725l5.75.67c4.084.476 7.214 1.64 10.801 4.016 2.779 1.84 7.054 4.365 9.5 5.61 14.152 7.206 33.748 24.117 42.2 36.417 2.243 3.266 6.466 8.534 9.382 11.707 3.1 3.37 7.228 9.6 9.933 14.987 12.542 24.971 29.481 43.568 55.434 60.856 17.425 11.608 26.649 16.388 34.88 18.078 3.091.634 9.67 2.473 14.62 4.085 4.95 1.612 11.7 3.573 15 4.356 41.772 9.918 51.614 13.537 70 25.74 13.261 8.802 28.168 22.61 34.75 32.191 2.244 3.266 6.467 8.534 9.383 11.707 3.1 3.37 7.228 9.6 9.933 14.987 12.542 24.971 29.481 43.568 55.434 60.856 17.425 11.608 26.649 16.388 34.88 18.078 3.091.634 9.67 2.473 14.62 4.085 4.95 1.612 11.7 3.573 15 4.356 27.679 6.572 38.73 9.734 49 14.02 13.079 5.458 31.107 17.818 42.78 29.329 9.543 9.41 19.72 23.062 19.72 26.452 0 1.585-17.745 1.692-281.5 1.692H0V665.862zm1026.975 199.573c-.536-1.41-.975-2.916-.975-3.345 0-.429-1.832-3.615-4.072-7.08-2.239-3.464-4.957-8.546-6.04-11.293-3.692-9.369-13.374-21.915-27.657-35.841-9.98-9.73-15.507-14.31-20.231-16.765-3.575-1.856-9.464-5.37-13.087-7.808-5.021-3.38-11.438-6.081-27-11.369-11.247-3.821-23.659-7.372-27.641-7.907-3.975-.535-11.254-2.332-16.174-3.994-4.92-1.662-11.343-3.515-14.272-4.12-8.163-1.681-18.532-5.616-23.157-8.786-2.293-1.572-6.437-4.003-9.21-5.403-9.627-4.862-21.018-13.646-31.645-24.405-14.031-14.206-30.035-35.705-33.878-45.512-1.144-2.919-3.752-7.332-5.796-9.807-2.043-2.475-5.791-7.425-8.328-11-6.602-9.303-23.778-25.628-34.488-32.78-16.491-11.012-41.907-22.179-50.63-22.244-1.757-.013-4.994-.5-7.194-1.083s-7.375-1.877-11.5-2.876c-4.125-1-11.07-3.01-15.434-4.467-4.364-1.458-10.214-3.119-13-3.692-9.958-2.048-18.841-5.963-29.063-12.81-5.708-3.823-12.77-8.157-15.691-9.63-6.44-3.246-23.338-19.451-29.111-27.918-2.25-3.3-6.185-8.25-8.744-11-6.25-6.716-13.508-17.778-20.013-30.5-4.866-9.515-6.627-11.787-18.772-24.214-13.675-13.993-26.596-23.933-39.726-30.56-8.832-4.46-44.925-16.32-52.66-17.306-3.694-.471-10.747-2.218-15.675-3.882-4.928-1.665-11.356-3.52-14.285-4.124-10.23-2.108-19.02-5.965-29.323-12.865-5.708-3.824-12.77-8.158-15.691-9.63-6.44-3.247-23.338-19.452-29.111-27.919-2.25-3.3-6.185-8.25-8.744-11-6.236-6.702-13.497-17.761-20.005-30.467-4.636-9.052-6.854-12.01-16.406-21.874-6.075-6.274-13.971-13.48-17.546-16.014-3.575-2.534-8.89-6.536-11.812-8.894-2.92-2.358-8.32-5.802-12-7.652-9.418-4.737-33.414-12.667-41.403-13.682-3.693-.47-10.893-2.27-16-4-5.107-1.731-12.34-3.535-16.075-4.01-9.328-1.185-29.841-8.322-37.71-13.12a4021.07 4021.07 0 0 1-11.636-7.125c-15.116-9.305-31.75-24-38.67-34.162-2.246-3.3-6.176-8.25-8.733-11-6.124-6.588-12.433-16.085-14.984-22.56-4.885-12.393-23.938-34.937-32.578-38.547L0 115.973V0h126c125.997 0 126 0 126 2.032 0 4.358 3.25 9.316 12.11 18.475 7.12 7.36 12.995 12.07 25.75 20.645 18.301 12.305 27.594 17.184 36.02 18.914 3.091.634 9.67 2.473 14.62 4.085 4.95 1.612 11.7 3.573 15 4.356 41.772 9.918 51.614 13.537 70 25.74 13.261 8.802 28.168 22.61 34.75 32.191 2.244 3.266 6.467 8.534 9.383 11.707 3.1 3.37 7.228 9.6 9.933 14.987 12.542 24.971 29.481 43.568 55.434 60.856 17.425 11.608 26.649 16.388 34.88 18.078 3.091.634 9.67 2.473 14.62 4.085 4.95 1.612 11.7 3.573 15 4.356 3.3.784 9.663 2.283 14.14 3.332 4.478 1.05 8.594 2.188 9.148 2.53.554.343 4.541 1.105 8.86 1.694 11.898 1.623 20.2 5.086 33.67 14.045 13.55 9.011 31.967 26.199 38.93 36.33 2.246 3.266 6.469 8.534 9.385 11.707 3.1 3.37 7.228 9.6 9.933 14.987 12.542 24.971 29.481 43.568 55.434 60.856 17.425 11.608 26.649 16.388 34.88 18.078 3.091.634 9.67 2.473 14.62 4.085 4.95 1.612 11.7 3.573 15 4.356 41.772 9.918 51.614 13.537 70 25.74 13.261 8.802 28.168 22.61 34.75 32.191 2.244 3.266 6.467 8.534 9.383 11.707 3.1 3.37 7.228 9.6 9.933 14.987 12.539 24.966 29.476 43.56 55.434 60.861 17.447 11.628 26.518 16.277 36 18.45 6.063 1.389 11.154 2.637 31.5 7.723 4.4 1.1 11.375 2.834 15.5 3.853 28.38 7.01 38.946 11.241 55.5 22.229 13.261 8.801 28.168 22.61 34.75 32.19 2.244 3.266 6.467 8.534 9.383 11.707 3.1 3.37 7.228 9.6 9.933 14.987 12.531 24.95 29.462 43.542 55.434 60.874 14.862 9.918 22.73 13.994 27.01 13.994 1.965 0 1.99.778 1.99 62v62h-272.049l-.976-2.565zM1294 378.078c-.825-.474-4.2-1.403-7.5-2.064-3.3-.662-9.903-2.508-14.674-4.103-4.77-1.595-11.07-3.393-14-3.997-10.23-2.108-19.02-5.965-29.323-12.865-5.708-3.824-12.77-8.155-15.691-9.624-6.421-3.23-27.132-23.181-33.077-31.863-2.236-3.266-6.429-8.51-9.318-11.652-3.705-4.03-7.54-10.231-13.018-21.044-7.733-15.268-7.82-15.388-21.197-29.062-13.702-14.008-26.636-23.956-39.756-30.579-8.804-4.444-44.914-16.318-52.61-17.299-3.664-.467-13.34-3.082-21.5-5.812-8.16-2.729-17.552-5.588-20.871-6.354-4.453-1.028-8.829-3.264-16.688-8.528-5.86-3.925-13.044-8.338-15.965-9.807-6.421-3.23-27.132-23.181-33.077-31.863-2.236-3.266-6.429-8.51-9.318-11.652-3.705-4.03-7.54-10.231-13.018-21.044-7.733-15.268-7.82-15.388-21.197-29.062-13.702-14.008-26.636-23.956-39.756-30.579-8.804-4.444-44.914-16.318-52.61-17.299-3.664-.467-13.34-3.082-21.5-5.812-8.16-2.729-17.536-5.594-20.836-6.368-3.762-.881-8.771-3.209-13.429-6.24C736.2 8.383 729 2.354 729 .884 729 .374 849.897 0 1014.5 0H1300v379l-2.25-.03c-1.238-.017-2.925-.418-3.75-.892z" fill="#0062cd"></path><path d="M628.2 851.87c-2.888-1.43-5.563-3.976-8.14-7.75-4.287-6.278-6.454-8.403-13.21-12.95-5.367-3.611-9.85-11.426-9.85-17.17 0-6.008 4.452-13.498 10.552-17.754 6.884-4.802 7.948-6.927 7.948-15.87 0-6.285-.322-7.643-2.278-9.598-1.955-1.956-3.313-2.278-9.598-2.278-8.943 0-11.068 1.064-15.87 7.948C583.498 782.548 576.008 787 570 787c-5.744 0-13.559-4.483-17.17-9.85-4.55-6.76-6.672-8.923-12.974-13.227-13.565-9.262-12.866-23.4 1.683-34.018 6.171-4.505 7.825-6.153 12.353-12.316 5.18-7.05 8.17-8.974 13.95-8.974 7.501 0 15.245 4.248 19.895 10.913 4.82 6.909 6.938 7.972 15.887 7.972 6.285 0 7.643-.322 9.598-2.278 1.956-1.955 2.278-3.313 2.278-9.598 0-8.943-1.064-11.068-7.948-15.87-3.836-2.677-6.109-5.23-7.96-8.946-5.42-10.875-3.123-16.415 13.84-33.377 13.137-13.137 18.052-16.37 24.95-16.409 3.275-.019 4.525.646 8 4.254 2.265 2.351 5.693 6.5 7.618 9.218 1.925 2.718 6.276 6.878 9.67 9.242C670.593 668.561 675 675.666 675 682c0 6.008-4.452 13.498-10.552 17.754-6.884 4.802-7.948 6.927-7.948 15.87 0 6.285.322 7.643 2.278 9.598 1.955 1.956 3.313 2.278 9.598 2.278 8.943 0 11.068-1.064 15.87-7.948C688.502 713.452 695.992 709 702 709c6.18 0 13.565 4.473 17.924 10.857 4.303 6.301 6.466 8.423 13.227 12.973 12.036 8.1 11.57 22.506-1.007 31.093-6.302 4.304-8.424 6.467-12.973 13.227-3.612 5.367-11.427 9.85-17.171 9.85-6.008 0-13.498-4.452-17.754-10.552-4.802-6.884-6.927-7.948-15.87-7.948-6.285 0-7.643.322-9.598 2.278-1.956 1.955-2.278 3.313-2.278 9.598 0 8.943 1.064 11.068 7.948 15.87C670.548 800.502 675 807.992 675 814c0 6.18-4.473 13.565-10.857 17.924-6.301 4.303-8.423 6.466-12.973 13.227-5.542 8.236-14.57 10.876-22.97 6.719zm-248-176c-2.888-1.43-5.563-3.976-8.14-7.75-4.287-6.278-6.454-8.403-13.21-12.95-5.367-3.611-9.85-11.426-9.85-17.17 0-6.008 4.452-13.498 10.552-17.754 6.884-4.802 7.948-6.927 7.948-15.87 0-6.285-.322-7.643-2.278-9.598-1.955-1.956-3.313-2.278-9.598-2.278-8.943 0-11.068 1.064-15.87 7.948C335.498 606.548 328.008 611 322 611c-5.744 0-13.559-4.483-17.17-9.85-4.553-6.764-6.672-8.923-12.997-13.242-7.165-4.892-11.41-12.573-10.538-19.069.63-4.695 6.828-11.764 14.829-16.911 2.576-1.657 6.197-5.344 8.176-8.325C308.342 537.516 315.88 533 322 533c6.008 0 13.498 4.452 17.754 10.552 4.802 6.884 6.927 7.948 15.87 7.948 6.285 0 7.643-.322 9.598-2.278 1.956-1.955 2.278-3.313 2.278-9.598 0-8.943-1.064-11.068-7.948-15.87-6.095-4.253-10.567-11.769-10.53-17.7.046-7.406 6.105-16.36 14.88-21.99 2.801-1.799 6.345-5.368 8.398-8.461 4.13-6.219 11.584-10.603 18.028-10.603 3.324 0 4.574.663 8.054 4.276 2.265 2.351 5.693 6.5 7.618 9.218 1.925 2.718 6.276 6.878 9.67 9.242C422.593 492.561 427 499.666 427 506c0 6.008-4.452 13.498-10.552 17.754-6.884 4.802-7.948 6.927-7.948 15.87 0 6.285.322 7.643 2.278 9.598 1.955 1.956 3.313 2.278 9.598 2.278 8.943 0 11.068-1.064 15.87-7.948C440.502 537.452 447.992 533 454 533c6.18 0 13.565 4.473 17.924 10.857 4.303 6.301 6.466 8.423 13.227 12.973 12.036 8.1 11.57 22.506-1.007 31.093-6.302 4.304-8.424 6.467-12.973 13.227-3.612 5.367-11.427 9.85-17.171 9.85-6.008 0-13.498-4.452-17.754-10.552-4.802-6.884-6.927-7.948-15.87-7.948-6.285 0-7.643.322-9.598 2.278-1.956 1.955-2.278 3.313-2.278 9.598 0 8.943 1.064 11.068 7.948 15.87C422.548 624.502 427 631.992 427 638c0 6.18-4.473 13.565-10.857 17.924-6.301 4.303-8.423 6.466-12.973 13.227-5.542 8.236-14.57 10.876-22.97 6.719zm768.014-103.993c-2.66-1.317-5.466-3.877-7.397-6.75-4.396-6.538-7.557-9.752-13.074-13.292-7.865-5.047-12.85-16.012-10.777-23.71.782-2.904 3.15-5.865 9.461-11.827 9.108-8.606 10.376-11.274 9.272-19.508-.88-6.552-3.411-8.29-12.075-8.29-8.943 0-11.068 1.064-15.87 7.948-4.256 6.1-11.746 10.552-17.754 10.552-5.744 0-13.559-4.483-17.17-9.85-4.553-6.764-6.672-8.923-12.997-13.242-7.165-4.892-11.41-12.573-10.538-19.069.63-4.695 6.828-11.764 14.829-16.911 2.576-1.657 6.197-5.344 8.176-8.325 4.042-6.087 11.58-10.603 17.7-10.603 6.008 0 13.498 4.452 17.754 10.552 4.802 6.884 6.927 7.948 15.87 7.948 6.285 0 7.643-.322 9.598-2.278 1.956-1.955 2.278-3.313 2.278-9.598 0-8.943-1.064-11.068-7.948-15.87-3.836-2.677-6.109-5.23-7.96-8.946-5.42-10.875-3.123-16.415 13.84-33.377 13.137-13.137 18.052-16.37 24.95-16.409 3.275-.019 4.525.646 8 4.254 2.265 2.351 5.693 6.5 7.618 9.218 1.925 2.718 6.276 6.878 9.67 9.242 6.923 4.825 11.33 11.93 11.33 18.264 0 6.008-4.452 13.498-10.552 17.754-6.884 4.802-7.948 6.927-7.948 15.87 0 6.285.322 7.643 2.278 9.598 1.955 1.956 3.313 2.278 9.598 2.278 8.943 0 11.068-1.064 15.87-7.948 4.256-6.1 11.746-10.552 17.754-10.552 6.18 0 13.565 4.473 17.924 10.857 4.303 6.301 6.466 8.423 13.227 12.973 12.036 8.1 11.57 22.506-1.007 31.093-6.302 4.304-8.424 6.467-12.973 13.227-3.612 5.367-11.427 9.85-17.171 9.85-6.008 0-13.498-4.452-17.754-10.552-4.802-6.884-6.927-7.948-15.87-7.948-6.285 0-7.643.322-9.598 2.278-1.956 1.955-2.278 3.313-2.278 9.598 0 8.943 1.064 11.068 7.948 15.87 6.1 4.256 10.552 11.746 10.552 17.754 0 6.18-4.473 13.565-10.857 17.924-6.301 4.303-8.423 6.466-12.973 13.227-5.538 8.23-14.571 10.876-22.956 6.726zM136.199 503.87c-2.887-1.43-5.562-3.976-8.138-7.75-4.29-6.283-6.453-8.401-13.236-12.966-8.762-5.898-13.118-20.205-8.192-26.908 1.11-1.51 4.763-4.771 8.118-7.246 3.355-2.475 6.696-5.58 7.425-6.901.76-1.378 1.324-5.522 1.324-9.723 0-6.285-.322-7.643-2.278-9.598-1.955-1.956-3.313-2.278-9.598-2.278-8.943 0-11.068 1.064-15.87 7.948C91.498 434.548 84.008 439 78 439c-5.744 0-13.559-4.483-17.17-9.85-4.55-6.76-6.672-8.923-12.974-13.227-12.576-8.587-13.043-22.993-1.007-31.093 6.761-4.55 8.924-6.672 13.227-12.973C64.436 365.473 71.819 361 78 361c6.008 0 13.498 4.452 17.754 10.552 4.802 6.884 6.927 7.948 15.87 7.948 6.285 0 7.643-.322 9.598-2.278 1.956-1.955 2.278-3.313 2.278-9.598 0-8.943-1.064-11.068-7.948-15.87C109.452 347.498 105 340.008 105 334c0-5.744 4.483-13.559 9.85-17.17 6.76-4.55 8.923-6.672 13.226-12.973 4.45-6.517 11.746-10.857 18.252-10.857 3.324 0 4.574.663 8.054 4.276 2.265 2.351 5.693 6.5 7.618 9.218 1.925 2.718 6.276 6.878 9.67 9.242C178.593 320.561 183 327.666 183 334c0 6.008-4.452 13.498-10.552 17.754-6.884 4.802-7.948 6.927-7.948 15.87 0 6.285.322 7.643 2.278 9.598 1.955 1.956 3.313 2.278 9.598 2.278 8.943 0 11.068-1.064 15.87-7.948C196.502 365.452 203.992 361 210 361c6.18 0 13.565 4.473 17.924 10.857 4.303 6.301 6.466 8.423 13.227 12.973 12.036 8.1 11.57 22.506-1.007 31.093-6.302 4.304-8.424 6.467-12.973 13.227-3.612 5.367-11.427 9.85-17.171 9.85-6.008 0-13.498-4.452-17.754-10.552-4.802-6.884-6.927-7.948-15.87-7.948-6.285 0-7.643.322-9.598 2.278-1.956 1.955-2.278 3.313-2.278 9.598 0 8.943 1.064 11.068 7.948 15.87C178.548 452.502 183 459.992 183 466c0 6.18-4.473 13.565-10.857 17.924-6.301 4.303-8.423 6.466-12.973 13.227-5.542 8.236-14.57 10.876-22.97 6.719zm764-108c-2.887-1.43-5.562-3.976-8.138-7.75-4.288-6.278-6.455-8.403-13.211-12.95-5.367-3.611-9.85-11.426-9.85-17.17 0-6.008 4.452-13.498 10.552-17.754 6.884-4.802 7.948-6.927 7.948-15.87 0-6.285-.322-7.643-2.278-9.598-1.955-1.956-3.313-2.278-9.598-2.278-8.943 0-11.068 1.064-15.87 7.948C855.498 326.548 848.008 331 842 331c-5.744 0-13.559-4.483-17.17-9.85-4.553-6.764-6.672-8.923-12.997-13.242-7.165-4.892-11.41-12.573-10.538-19.069.63-4.695 6.828-11.764 14.829-16.911 2.576-1.657 6.197-5.344 8.176-8.325C828.342 257.516 835.88 253 842 253c6.008 0 13.498 4.452 17.754 10.552 4.802 6.884 6.927 7.948 15.87 7.948 6.285 0 7.643-.322 9.598-2.278 1.956-1.955 2.278-3.313 2.278-9.598 0-8.943-1.064-11.068-7.948-15.87-6.095-4.253-10.567-11.769-10.53-17.7.046-7.406 6.105-16.36 14.88-21.99 2.801-1.799 6.345-5.368 8.398-8.461 4.13-6.219 11.584-10.603 18.028-10.603 3.324 0 4.574.663 8.054 4.276 2.265 2.351 5.693 6.5 7.618 9.218 1.925 2.718 6.276 6.878 9.67 9.242C942.593 212.561 947 219.666 947 226c0 6.008-4.452 13.498-10.552 17.754-6.884 4.802-7.948 6.927-7.948 15.87 0 6.285.322 7.643 2.278 9.598 1.955 1.956 3.313 2.278 9.598 2.278 8.943 0 11.068-1.064 15.87-7.948C960.502 257.452 967.992 253 974 253c6.18 0 13.565 4.473 17.924 10.857 4.303 6.301 6.466 8.423 13.227 12.973 12.036 8.1 11.57 22.506-1.007 31.093-6.302 4.304-8.424 6.467-12.973 13.227-3.612 5.367-11.427 9.85-17.171 9.85-6.008 0-13.498-4.452-17.754-10.552-4.802-6.884-6.927-7.948-15.87-7.948-6.285 0-7.643.322-9.598 2.278-1.956 1.955-2.278 3.313-2.278 9.598 0 8.943 1.064 11.068 7.948 15.87C942.548 344.502 947 351.992 947 358c0 6.18-4.473 13.565-10.857 17.924-6.301 4.303-8.423 6.466-12.973 13.227-5.542 8.236-14.57 10.876-22.97 6.719zm-244-172c-2.887-1.43-5.562-3.976-8.138-7.75-4.288-6.278-6.455-8.403-13.211-12.95-5.367-3.611-9.85-11.426-9.85-17.17 0-6.008 4.452-13.498 10.552-17.754 6.884-4.802 7.948-6.927 7.948-15.87 0-6.285-.322-7.643-2.278-9.598-1.955-1.956-3.313-2.278-9.598-2.278-8.943 0-11.068 1.064-15.87 7.948C611.498 154.548 604.008 159 598 159c-5.744 0-13.559-4.483-17.17-9.85-4.55-6.76-6.672-8.923-12.974-13.227-12.576-8.587-13.043-22.993-1.007-31.093 6.761-4.55 8.924-6.672 13.227-12.973C584.436 85.473 591.819 81 598 81c6.008 0 13.498 4.452 17.754 10.552 4.802 6.884 6.927 7.948 15.87 7.948 6.285 0 7.643-.322 9.598-2.278 1.956-1.955 2.278-3.313 2.278-9.598 0-8.943-1.064-11.068-7.948-15.87C629.452 67.498 625 60.008 625 54c0-6.12 4.516-13.658 10.603-17.7 3.052-2.026 6.661-5.595 8.402-8.308 1.679-2.616 5.487-7.059 8.464-9.874 4.59-4.34 5.998-5.118 9.275-5.118 5.986 0 13.752 4.389 17.427 9.85 4.549 6.76 6.67 8.923 12.972 13.226C698.527 40.436 703 47.819 703 54c0 6.008-4.452 13.498-10.552 17.754-6.884 4.802-7.948 6.927-7.948 15.87 0 6.285.322 7.643 2.278 9.598 1.955 1.956 3.313 2.278 9.598 2.278 8.943 0 11.068-1.064 15.87-7.948C716.502 85.452 723.992 81 730 81c6.18 0 13.565 4.473 17.924 10.857 4.303 6.301 6.466 8.423 13.227 12.973 12.036 8.1 11.57 22.506-1.007 31.093-6.302 4.304-8.424 6.467-12.973 13.227-3.612 5.367-11.427 9.85-17.171 9.85-6.008 0-13.498-4.452-17.754-10.552-4.802-6.884-6.927-7.948-15.87-7.948-6.285 0-7.643.322-9.598 2.278-1.956 1.955-2.278 3.313-2.278 9.598 0 8.943 1.064 11.068 7.948 15.87C698.548 172.502 703 179.992 703 186c0 6.18-4.473 13.565-10.857 17.924-6.301 4.303-8.423 6.466-12.973 13.227-5.542 8.236-14.57 10.876-22.97 6.719z" fill="#cd0000"></path></svg>