<svg xmlns="http://www.w3.org/2000/svg" width="900" height="540" version="1"><path fill="#0063ae" d="M0 0h900v540H0z"/><path d="m450 8.344-13.969 139.25h27.938L450 8.344zM334.844 20.719l51.031 144.062 25.344-11.719L334.844 20.72zm230.312 0-76.375 132.344 25.344 11.718L565.156 20.72zM228.344 50.562l124.781 143.313 19.594-19.844L228.344 50.562zm443.312 0-144.375 123.47 19.594 19.843L671.656 50.562zm-525.281 82.22 186.281 99.593 11.5-25.438-197.781-74.156zm607.25 0-197.781 74.155 11.5 25.438 186.281-99.594zM450 153.811c-64.186 0-116.281 52.096-116.281 116.282 0 61.948 48.537 112.635 109.625 116.094v-45.625c0-5.09-1.372-7.256-5.594-9-9.468-4.652-19.656-12.992-19.656-23.188V287.75s-.053-13.406 7.75-13.406c6.93 0 8.937 9.843 8.937 9.844v14.687s-.114 2.75 2.969 2.75c3.083 0 3.531-3.25 3.531-3.25v-59.844c0-10.689 4.13-12.718 8.688-12.719 12.95 0 11.781 12.938 11.781 12.938v77.688s-.938 6.718 3.219 6.718 4.094-3.812 4.094-3.812 3.209-38.637 3.5-47.469c.28-8.537 4.75-17.281 9.687-17.281 9.02 0 8.156 9.343 8.156 9.344v56.75c0 11.1-5.7 23.706-15.156 27.406-9.455 3.7-10.281 10.281-10.281 10.281v27.031c57.127-7.349 101.312-56.196 101.312-115.312 0-64.186-52.095-116.281-116.281-116.281zM115.5 221l211.344 45.438 3.969-27.625L115.5 221zm669 0-215.313 17.813 3.97 27.625L784.5 221zm-589.781 55.281C180.03 344.163 98.41 396.156 0 396.156V540h900V396.156c-98.41 0-180.031-51.993-194.719-119.875H577.75c-3.272 67.697-59.247 121.625-127.75 121.625s-124.478-53.928-127.75-121.625H194.719z" fill="#ffd419"/></svg>