<svg xmlns="http://www.w3.org/2000/svg" width="374" height="216" overflow="visible" xmlns:cgf="https://coding.garden/flags"><metadata id="cgf-metadata">

<cgf:flag>
  <cgf:name>Provo</cgf:name>
  <cgf:route>us/ut/provo</cgf:route>
  <cgf:aspect-ratio>1.7314814814814814</cgf:aspect-ratio>
</cgf:flag>

</metadata><path fill="#FFF" d="M0 0h374v216H0z"></path><path fill="#999" d="m223.88 66.103-1.563.388-4.871 24.816-7.26-22.068-13.912 3.455.104.238-1.723.428 16.77 38.335 11.847-2.942.077-.283 1.54-.383 12.531-45.61-13.487 3.349-.053.277zm-108.64 15.21c-2.85-2.417-6.967-2.957-12.351-1.62l-24.729 6.14.014.261-1.631.405 3.14 57.91 14.915-3.704-.014-.261 1.631-.405-1.149-21.206 6.521-1.619a29.296 29.296 0 0 0 5.023-1.732c4.275-1.598 7.528-3.988 9.723-7.2 2.747-4.021 3.963-8.956 3.646-14.806-.311-5.692-1.89-9.747-4.739-12.163zm-12.796 21.977c-.629.85-1.56 1.569-2.77 2.167-.5.172-1.023.332-1.593.474l-3.667.91-.686-12.656 2.629-.653c2.796-.694 4.735-.534 5.817.478 1.082 1.012 1.672 2.427 1.771 4.244.101 1.869-.399 3.548-1.501 5.036zm45.434-19.528a9.178 9.178 0 0 0-2.106.826c-1.66.506-3.059 1.391-4.169 2.697-.678.797-1.327 1.888-1.95 3.251l-.202-3.732-12.521 3.108.015.261-1.632.405 2.274 41.935 13.44-3.337-.014-.261 1.632-.405-.762-14.051c-.364-6.709.078-11.458 1.325-14.248.595-1.352 1.401-2.334 2.41-2.965.912-.203 2.146-.117 3.716.268l.262-.931c.424.063.869.146 1.355.265l3.519-12.491c-2.424-.886-4.621-1.085-6.592-.595zm44.23-3.584c-3.825-3.982-9.22-5.109-16.188-3.379-1.652.41-3.194.961-4.646 1.63-4.646 1.755-8.372 4.694-11.147 8.855-3.357 5.033-4.862 10.747-4.516 17.14.372 6.868 2.792 11.893 7.258 15.076 3.636 2.563 8.25 3.151 13.842 1.763 1.724-.429 3.326-1 4.828-1.688 4.712-1.783 8.45-4.707 11.181-8.81 3.325-4.999 4.813-10.722 4.464-17.168-.31-5.736-2.002-10.208-5.076-13.419zm-11.362 26.399c-.783 1.428-1.755 2.467-2.91 3.136-.015.003-.028.009-.042.013-1.892.47-3.512-.034-4.86-1.513s-2.123-4.086-2.325-7.822c-.2-3.684.281-6.583 1.446-8.698.807-1.468 1.806-2.533 2.986-3.215l.045-.014c1.826-.453 3.407.055 4.744 1.522 1.336 1.469 2.103 4.018 2.299 7.648.211 3.895-.25 6.875-1.383 8.943zm98.313-33.311c-.312-5.735-2.003-10.208-5.077-13.418-3.823-3.983-9.22-5.11-16.187-3.38-1.652.41-3.194.961-4.646 1.63-4.646 1.755-8.372 4.694-11.148 8.855-3.357 5.033-4.862 10.747-4.516 17.14.373 6.868 2.793 11.894 7.26 15.076 3.636 2.563 8.251 3.151 13.841 1.763 1.725-.429 3.327-1 4.829-1.688 4.711-1.784 8.45-4.706 11.179-8.81 3.325-4.999 4.814-10.722 4.465-17.168zm-16.439 12.98c-.783 1.428-1.756 2.467-2.911 3.135l-.041.014c-1.894.47-3.513-.034-4.861-1.513-1.347-1.479-2.122-4.086-2.324-7.822-.199-3.684.282-6.583 1.445-8.698.809-1.468 1.806-2.533 2.986-3.215l.046-.014c1.826-.453 3.407.055 4.743 1.522 1.336 1.469 2.103 4.018 2.3 7.648.211 3.895-.25 6.875-1.383 8.943z"></path><path d="m227.438 61.103-1.563.388-4.87 24.816-7.261-22.068-13.912 3.455.104.238-1.721.428 16.77 38.335 11.846-2.942.077-.283 1.54-.383 12.532-45.61-13.487 3.349-.055.277zm-108.641 15.21c-2.85-2.417-6.966-2.957-12.351-1.62l-24.729 6.141.014.261-1.631.404 3.14 57.91 14.915-3.704-.014-.261 1.631-.405-1.149-21.206 6.521-1.619a29.296 29.296 0 0 0 5.023-1.732c4.275-1.598 7.528-3.988 9.723-7.2 2.747-4.021 3.963-8.956 3.646-14.806-.31-5.692-1.889-9.747-4.739-12.163zM106.001 98.29c-.629.85-1.56 1.569-2.77 2.167-.5.172-1.024.332-1.593.474l-3.667.91-.687-12.656 2.629-.653c2.796-.694 4.735-.534 5.817.478 1.082 1.012 1.672 2.427 1.771 4.244.103 1.869-.397 3.548-1.5 5.036zm45.435-19.528a9.178 9.178 0 0 0-2.106.826c-1.66.506-3.059 1.391-4.169 2.697-.678.797-1.327 1.888-1.95 3.251l-.202-3.732-12.521 3.108.014.261-1.632.405 2.274 41.935 13.441-3.337-.015-.261 1.632-.405-.762-14.051c-.364-6.709.078-11.458 1.325-14.248.595-1.352 1.401-2.334 2.41-2.965.912-.203 2.147-.117 3.716.268l.262-.931c.424.063.869.146 1.355.265l3.519-12.491c-2.423-.886-4.62-1.085-6.591-.595zm44.23-3.584c-3.825-3.982-9.22-5.109-16.188-3.379-1.652.41-3.194.961-4.646 1.63-4.646 1.755-8.372 4.694-11.147 8.855-3.357 5.033-4.862 10.747-4.516 17.14.372 6.868 2.792 11.893 7.258 15.076 3.636 2.563 8.25 3.151 13.842 1.763 1.725-.429 3.326-1 4.828-1.688 4.713-1.783 8.45-4.707 11.181-8.81 3.325-4.999 4.813-10.722 4.464-17.168-.31-5.736-2.003-10.208-5.076-13.419zm-11.363 26.399c-.782 1.428-1.755 2.467-2.91 3.136-.015.003-.028.009-.042.013-1.892.47-3.512-.034-4.86-1.513s-2.123-4.086-2.325-7.822c-.2-3.684.281-6.583 1.446-8.698.807-1.468 1.806-2.533 2.986-3.215l.045-.014c1.827-.453 3.407.055 4.744 1.522 1.336 1.469 2.103 4.018 2.299 7.648.212 3.895-.249 6.875-1.383 8.943zm98.314-33.311c-.312-5.735-2.003-10.208-5.077-13.418-3.825-3.983-9.221-5.11-16.188-3.38-1.651.41-3.194.961-4.645 1.63-4.647 1.755-8.374 4.694-11.148 8.855-3.357 5.033-4.863 10.747-4.516 17.14.372 6.868 2.792 11.894 7.258 15.076 3.637 2.563 8.251 3.151 13.843 1.763 1.724-.429 3.326-1 4.828-1.688 4.713-1.784 8.449-4.706 11.18-8.81 3.326-4.999 4.815-10.722 4.465-17.168zm-16.439 12.98c-.783 1.428-1.756 2.467-2.91 3.135l-.043.014c-1.892.47-3.512-.034-4.859-1.513-1.349-1.479-2.122-4.086-2.324-7.822-.201-3.684.28-6.583 1.445-8.698.808-1.468 1.806-2.533 2.985-3.215.017-.004.029-.01.046-.014 1.826-.453 3.408.055 4.744 1.522 1.336 1.469 2.102 4.018 2.298 7.648.212 3.895-.249 6.875-1.382 8.943z"></path><linearGradient id="a" gradientUnits="userSpaceOnUse" y1="144.05" x2="282.666" y2="144.05"><stop offset=".004" stop-color="#391665"></stop><stop offset=".054" stop-color="#371b69"></stop><stop offset=".113" stop-color="#302976"></stop><stop offset=".176" stop-color="#24418c"></stop><stop offset=".241" stop-color="#1461aa"></stop><stop offset=".306" stop-color="#0089ce"></stop><stop offset=".525" stop-color="#4cb72d"></stop><stop offset=".686" stop-color="#dad908"></stop><stop offset=".797" stop-color="#e88d0c"></stop><stop offset=".801" stop-color="#e9870c"></stop><stop offset=".832" stop-color="#f05e08"></stop><stop offset=".864" stop-color="#f53c05"></stop><stop offset=".896" stop-color="#f92203"></stop><stop offset=".929" stop-color="#fd0f01"></stop><stop offset=".963" stop-color="#fe0400"></stop><stop offset="1" stop-color="red"></stop></linearGradient><path fill="url(#a)" d="M0 171.164v13.993l282.666-68.221v-13.994z"></path></svg>