<svg xmlns="http://www.w3.org/2000/svg" width="1050" height="700" xmlns:cgf="https://coding.garden/flags"><metadata id="cgf-metadata">

<cgf:flag>
  <cgf:name>Taunton</cgf:name>
  <cgf:route>us/ma/taunton</cgf:route>
  <cgf:aspect-ratio>1.5</cgf:aspect-ratio>
</cgf:flag>

</metadata><path fill="#bf0a30" d="M0 0h1050v700H0z"></path><path fill="#002868" d="M0 0h376.923v376.923H0z"></path><g fill="#fff"><path d="M0 0h38.051l338.872 338.872v38.051h-38.051L0 38.051"></path><path d="M376.923 0h-38.051L0 338.872v38.051h38.051L376.923 38.051"></path><path d="M0 138.205h376.923v100.513H0z"></path><path d="M138.205 0h100.513v376.923H138.205z"></path></g><g fill="#bf0a30"><path d="M0 163.333h379.077v50.257H0z"></path><path d="M163.333 0h50.257v379.077h-50.257z"></path></g><path d="M79.677 519.825h16.918v52.822h29.707v12.788H79.676zm57.304 0H153.9v65.61h-16.919zm67.984 18.457c0-4.762-3.11-6.944-8.13-6.944h-9.361v13.887h9.361c5.049 0 8.13-2.128 8.13-6.943zm2.681 26.982c0-6.062-3.814-8.525-10.24-8.525h-9.932v17.182h9.932c5.278 0 10.24-1.731 10.24-8.657zm14.239-28.081c-.002 6.854-3.484 11.133-8.747 13.14 6.896 2.001 11.426 7.724 11.426 16.303 0 15.047-12.252 18.809-25.928 18.809h-28.081v-65.61h25.402c20.742 0 25.926 6.941 25.928 17.358zm17.225-17.358h45.66v12.788h-28.74v12.217h27.025v12.788H256.03v15.029h29.706v12.788H239.11zm95.494 20.61c0-6.68-3.973-8.35-9.932-8.35h-7.12v16.831h7.12c5.958.002 9.932-1.696 9.932-8.481zm16.918-2.505c0 9.482-4.853 14.407-12.612 16.831 2.314.528 4.387 1.721 6.218 3.582 1.831 1.86 3.685 4.68 5.56 8.459l9.184 18.633h-18.018l-7.998-16.304c-2.244-4.57-4.605-8.525-11.513-8.525h-4.791v24.829h-16.917v-65.61h25.838c20.039 0 25.049 7.242 25.049 18.105zm10.547-18.105h60.469v12.788h-21.753v52.822h-16.919v-52.822h-21.797zm65.029 0h18.501l14.943 23.379 14.94-23.379h18.545l-25.005 37.968v27.642h-16.918v-27.642zm118.025 59.235h-14.111l-2.226 6.375h-9.069l12.96-34.992h10.757l12.962 34.992h-9.071zm-11.861-6.492h9.586l-4.781-13.922zm27.75-22.125h10.08l12.725 24v-24h8.556v34.992h-10.079l-12.727-24v24h-8.555zm63.844 17.461c0-7.074-4.152-10.641-11.366-10.641h-3.235v21.352h3.235c7.207 0 11.366-3.628 11.366-10.711zm9.305 0c0 16.322-13.337 17.531-23.413 17.531h-9.517v-34.992h9.517c13.666 0 23.413 3.204 23.413 17.461zm70.316 18.805c-18.909 0-28.258-8.789-28.258-27.553v-39.331h16.919v39.331c0 9.07 2.268 15.117 11.339 15.117 9.105 0 11.381-6.047 11.381-15.117v-39.331h16.919v39.331c0 18.782-9.356 27.553-28.3 27.553zm44.867-66.884h18.897l23.863 45v-45h16.04v65.61h-18.896l-23.863-45v45h-16.041zm75.411 0h16.92v65.61h-16.92zm79.849 32.871c0-12.498-4.9-21.797-16.303-21.797-11.333 0-16.26 9.361-16.26 21.797 0 12.437 4.919 21.753 16.26 21.753 11.359 0 16.303-9.337 16.303-21.753zm-50.053 0c0-21.004 12.83-34.058 33.75-34.058 20.966 0 33.748 13.043 33.75 34.058-.002 20.977-12.806 34.013-33.75 34.013-20.903 0-33.75-13.058-33.75-34.013zm80.241-32.871h18.899l23.861 45v-45h16.04v65.61h-18.891l-23.869-45v45h-16.04z" fill="#fff"></path></svg>