<svg xmlns="http://www.w3.org/2000/svg" version="1.0" width="600" height="400"><path transform="matrix(5.27242 0 0 5.21966 -256.31 -112.1)" style="fill:#193783;fill-rule:evenodd" d="M162.413 98.11h-113.8V21.476h113.8V98.11z"/><path d="M162.767 43.068s-3.009-1.593-16.106-1.593c-13.097 0-23.715 4.07-41.413 4.07-17.699 0-26.37-3.893-41.945-3.893-9.382 0-14.866 1.593-14.866 1.593V31.211s5.484-1.593 14.866-1.593c15.574 0 24.246 3.893 41.945 3.893 17.698 0 28.316-4.07 41.413-4.07 13.097 0 16.106 1.592 16.106 1.592v12.035zm0 22.477s-3.009-1.593-16.106-1.593c-13.097 0-23.715 4.07-41.413 4.07-17.699 0-26.37-3.893-41.945-3.893-9.382 0-14.866 1.593-14.866 1.593V53.687s5.484-1.593 14.866-1.593c15.574 0 24.246 3.894 41.945 3.894 17.698 0 28.316-4.07 41.413-4.07 13.097 0 16.106 1.592 16.106 1.592v12.035zm0 22.476s-3.009-1.592-16.106-1.592c-13.097 0-23.715 4.07-41.413 4.07-17.699 0-26.37-3.893-41.945-3.893-9.382 0-14.866 1.592-14.866 1.592V76.164s5.484-1.593 14.866-1.593c15.574 0 24.246 3.893 41.945 3.893 17.698 0 28.316-4.07 41.413-4.07 13.097 0 16.106 1.593 16.106 1.593V88.02z" transform="translate(-254.192 -114.718) scale(5.24794)" style="fill:#fff;fill-rule:evenodd"/><path d="M90.684 49.425h28.398s.353 17.022.353 21.96c0 4.94-3.792 14.288-14.111 14.288s-14.552-8.82-14.552-14.023c0-5.203-.088-22.225-.088-22.225z" transform="translate(-251.374 -112.572) scale(5.24794)" style="fill:#fff;fill-rule:evenodd"/><path d="M119.491 69.542c-.058-6.375-.342-20.109-.342-20.109h-28.4s.07 13.47.086 20.108c0 0 6.618-1.146 8.029-.617 1.41.53 5.733 1.852 8.025 1.411 2.294-.44 5.645-1.852 7.938-1.852s4.664 1.059 4.664 1.059z" transform="translate(-251.374 -112.572) scale(5.24794)" style="fill:#fff500;fill-rule:evenodd;stroke:#1f1a17;stroke-width:.17640001"/><path d="M102.303 52.961c-.176.353-.353.882 0 1.147.353.264.441.529.794.529h1.323c.617 0 .882-.265 1.234.088.353.353.882.441.882.441s-1.234-.265-1.763-.088c-.53.176-.882.44-1.764.529-.882.088-2.029-.441-2.117-1.235-.088-.794.088-1.058.44-1.323.354-.264.971-.088.971-.088zm-4.939-2.469s.441 0 .618.352c.176.353.264 1.147.264 1.147l-.793-.353s.188-.395.088-.705c-.077-.238-.177-.441-.177-.441zm-2.734.97s.658-.25.922-.162c.265.088.666.603.666.603l-.53.176s-.154-.248-.44-.4a3.26 3.26 0 0 0-.618-.217zm-1.322 2.998s.264-.793.617-.97c.353-.176 1.146-.352 1.146-.352l-.088.793s-.192-.024-.721.064c-.53.089-.954.465-.954.465zm1.049 2.572s-.168-1.072.009-1.425c.176-.353.44-.617.44-.617l.53.705s-.144.084-.467.407c-.312.312-.512.93-.512.93zm2.351 5.404h.794s-.154-.974-.507-1.15c-.353-.177-1.08-.261-1.08-.261s.322.382.587.735c.264.353.206.676.206.676zm-.755.491-.529.53s-.265-.177-.617-.354c-.353-.176-1.059-.088-1.059-.088s.97-.705 1.411-.617c.441.088.794.53.794.53zm-2.074 3.105s0-.705.265-.882c.264-.176.705-.176.705-.176l.265.53s-.165-.048-.606.128c-.44.176-.629.4-.629.4zm2.566-.4s.063.432.152.873c.088.441-.203.92-.203.92s.791-.32.791-.672c0-.353-.085-.915-.085-.915l-.655-.206z" transform="translate(-251.374 -112.572) scale(5.24794)" style="fill:#193783;fill-rule:evenodd;stroke:#1f1a17;stroke-width:.17640001"/><path d="M115.18 67.513s0-.794.176-1.058c.177-.265.53-.265.706-.706.176-.44.088-1.852-.176-2.205-.265-.352-.53-.705-.265-.97.265-.264.706-.264.706-.264s.44-.706-.177-.882c-.617-.177-1.323.264-1.323.264s-.176-.088-.352-.529c-.177-.44-.618-1.234-.882-1.852-.265-.617-.618-2.028-.353-2.557.264-.53.794-1.235 1.058-1.059.265.176.177.617.088 1.147-.088.529-.088 1.587.177 1.852.264.264 1.146.176 1.234.617.089.441.353.882.353 1.5 0 .617.441 1.146.794 1.146.353 0 0-.706.176-1.235.12-.361.159-.683.087-.99a1.485 1.485 0 0 0-.175-.42c-.264-.442-.44-.971-.44-.971s.705 1.94.97 2.028c.264.089.528.441.528 1.059 0 .617.706.176.53-.441l-.177-.618s-.088-.529-.529-1.058c-.44-.53-.97-1.235-.97-1.94 0-.706-.706-1.676-1.147-2.117-.44-.44-1.234-.794-1.852-.44-.617.352-1.587 1.322-1.587 2.116s.264 2.293.617 2.998c.353.706.882 1.676.882 1.676s-.53-.353-.97.177c-.441.529-.794 1.675-.794 1.675l.177.618s.352-.706.705-.882c.353-.177.618.44.618.44v1.235c0 .53 0 .882.352 1.147.353.264.353.353.265.882-.088.529-.441 1.323 0 1.323.44 0 .97-.706.97-.706z" transform="translate(-251.374 -112.572) scale(5.24794)" style="fill:#d93141;fill-rule:evenodd;stroke:#1f1a17;stroke-width:.17640001"/><path transform="translate(-251.374 -112.572) scale(5.24794)" style="fill:#fff500;fill-rule:evenodd;stroke:#1f1a17;stroke-width:.17640001" d="M118.475 47.142H91.871l-1.454-2.034h29.63l-1.572 2.034zm-28.058-2.7h29.543s.61-.523 1.22-.785c.61-.261 2.005-1.83 2.005-1.83s.697-1.394 1.132-1.917c.436-.523 1.308-1.133 1.656-1.307.349-.175.698-.087.698-.087s-.698-.262-1.133-.349c-.436-.087-1.046-.262-1.482 0-.436.261-1.394 1.133-1.394 1.133s.435-.697-.088-1.046c-.523-.349-1.045-.871-1.83-.174-.784.697-.871 1.394-1.22 1.655-.349.262-.436.785-.174.872.262.087-.523.436-.175 1.046.349.61 1.395.697 1.395.697s-.261.175-.784.349-.262.697-.523.958c-.262.262-.959.262-1.22.087-.262-.174-.436-.784-.349-1.133.087-.348-.087-1.132-.349-.697-.26.436-.26.872-.784 1.308-.523.435-.959.61-1.569.348-.61-.261-.61-1.656-.26-2.004.348-.349.174-1.308.174-1.569 0-.262.348-.261.697.436.348.697.87.871 1.307.61.435-.262.655-.755 1.004-.929.348-.174.235-.54.235-1.411s-.106-1.756-.542-1.582c-.436.175-.61.261-.436-.523s-.407-1.427-.668-1.776c-.262-.348-.51-.967-1.294-.705-.784.261-1.872.303-2.047.651-.174.349.088 1.656.088 1.656s-.349-.697-.96-.61c-.61.087-.61.523-.958 1.133s-1.046.871-1.046.871.436-.087.61.61c.175.698.262 1.57.61 1.744.35.174.872.348 1.308.174.436-.174.61.087.262.349-.35.26-1.046.348-1.046.348s.522.349.522.784c0 .436-.174 1.569-1.045 1.569-.872 0-1.482-.959-1.482-1.394 0-.436-.436-1.395-.436-1.395s-.174.61-.435 1.133c-.262.523-.872 1.395-1.57 1.569-.697.174-2.178-.436-1.83-1.307.35-.872.698-1.482.698-1.744 0-.26-.436-1.045-.436-1.045s.436.697 1.307.61c.872-.088.959-.436 1.308-1.046.348-.61.697-.959.697-.959s-.349-.261-.61-.871c-.262-.61-.61-1.482-1.22-1.395-.61.088-1.22.61-1.22.61s.697-.784.61-1.307c-.087-.523-.262-.871-.785-.958-.523-.087-1.046 0-1.22-.262-.174-.261-.261-.261-.523.087-.261.349-.522.349-.958.523-.436.175-.61.872-.523 1.22l.174.697s-.261-.87-.871-.87-.872.435-1.046 1.045c-.174.61-.523.871-.697 1.133-.175.261.174.349.523.697.348.349.174.959.435 1.394.262.436.872.785 1.307.61.436-.174.872-.871.872-.871s-.436.523-.349 1.133c.088.61.698.523.698 1.046s.087.871-.349 1.307c-.436.436-.523.958-1.046.958a1.712 1.712 0 0 1-1.481-.87c-.349-.611-.349-1.047-.436-1.395-.087-.349-.697-.698-.697-.175 0 .523.087 1.22-.174 1.656-.262.436-1.22.697-1.482.349-.261-.349-.61-.959-.523-1.395.087-.435.523-1.045.262-1.307-.262-.261-1.133-1.046-1.133-1.046s.61.349 1.22.349 1.045-.523 1.133-1.133c.087-.61.435-1.22.435-1.22s0-.261-.348-.784c-.349-.523-.785-1.22-1.133-1.133-.349.087-1.046.784-1.046.784s.523-.959.174-1.569c-.348-.61-1.133-.348-1.743-.523-.61-.174-.959-.348-1.22.175-.261.522-.958.174-1.045.784-.088.61.958 1.569.958 1.569s-.261-.61-.959-.262c-.697.349-.871.61-1.045 1.57-.175.958-.087.87.523 1.22.61.347.697 1.132 1.133 1.306.435.175.697.262 1.132 0 .436-.261.61-.61.61-.61s0 .436-.261.872c-.261.435-.349.523.087.784.436.262.61.348.262.871-.349.523-.698.698-1.395.61-.697-.087-1.046-.522-1.307-.87-.261-.35-.087-.175-.349.435-.261.61-.697 1.22-1.481.871-.784-.348-.697-.784-.784-1.046-.088-.26-.698-.435-.698-.435s.088-.262.61-.61c.523-.349.524-.872.088-2.005-.436-1.133-.349-1.656-1.22-1.742-.872-.088-1.395.697-1.395.697s.174-.523-.959-.785c-1.133-.261-1.309-.54-2.16-.154-1.014.46-1.224.89-1.224.89s.964.24 1.78.546c.94.353 2.476 1.943 2.563 2.553.087.61.262.697 1.046 1.307s1.569 1.569 1.569 1.569z"/><path d="M87.976 40.781a.697.697 0 1 1-1.394 0 .697.697 0 0 1 1.394 0zm8.802-2.527a.697.697 0 1 1-1.394 0 .697.697 0 0 1 1.394 0z" transform="translate(-251.374 -112.572) scale(5.24794)" style="fill:#d93141;fill-rule:evenodd;stroke:#1f1a17;stroke-width:.17640001"/><path d="M93.293 41.827a.697.697 0 1 1-1.395 0 .697.697 0 0 1 1.395 0z" transform="translate(-251.374 -112.572) scale(5.24794)" style="fill:#fff;fill-rule:evenodd;stroke:#1f1a17;stroke-width:.17640001"/><path d="M93.205 46.01a.697.697 0 1 1-1.394 0 .697.697 0 0 1 1.394 0zm8.279 0a.697.697 0 1 1-1.394 0 .697.697 0 0 1 1.394 0zm8.279 0a.697.697 0 1 1-1.395 0 .697.697 0 0 1 1.395 0zm8.28 0a.697.697 0 1 1-1.394 0 .697.697 0 0 1 1.394 0z" transform="translate(-251.374 -112.572) scale(5.24794)" style="fill:#009261;fill-rule:evenodd;stroke:#1f1a17;stroke-width:.17640001"/><path d="M100.961 41.043a.697.697 0 1 1-1.394 0 .697.697 0 0 1 1.394 0zm9.325-.436a.697.697 0 1 1-1.394 0 .697.697 0 0 1 1.394 0zm8.105 1.221a.697.697 0 1 1-1.394 0 .697.697 0 0 1 1.394 0z" transform="translate(-251.374 -112.572) scale(5.24794)" style="fill:#fff;fill-rule:evenodd;stroke:#1f1a17;stroke-width:.17640001"/><path d="M105.58 37.644a.697.697 0 1 1-1.394 0 .697.697 0 0 1 1.394 0zm9.5.872a.697.697 0 1 1-1.394 0 .697.697 0 0 1 1.394 0zm8.889 2.788a.697.697 0 1 1-1.395 0 .697.697 0 0 1 1.395 0z" transform="translate(-251.374 -112.572) scale(5.24794)" style="fill:#d93141;fill-rule:evenodd;stroke:#1f1a17;stroke-width:.17640001"/><path transform="translate(-251.374 -112.572) scale(5.24794)" style="fill:#fff500;fill-rule:evenodd;stroke:#1f1a17;stroke-width:.17640001" d="M120.047 45.139h-29.63v-.697h29.63v.697z"/><path transform="translate(-251.374 -112.572) scale(5.24794)" style="fill:#d93141;fill-rule:evenodd;stroke:#1f1a17;stroke-width:.17640001" d="m94.463 46.063 1.994-.763 2.112.763-2.17.703-1.936-.703zm8.506 0 1.995-.763 2.112.763-2.171.703-1.936-.703zm8.507 0 1.994-.763 2.112.763-2.17.703-1.936-.703zm-5.06 14.688s-.497.589-1.114.765c-.617.176-.97.53-1.411.353-.441-.177-1.5-.265-1.764-.265-.265 0-.706-.088-.618-.353.089-.264.618-.793.618-.793s-1.058.882-1.411 1.146c-.353.265-.794.53-1.323.441-.53-.088-.882-.529-.882-.529s.705-.088 1.146-.441c.441-.353.706-.97.706-.97s.176-.882.176-1.323c0-.441 0-.617.177-.882.176-.265.617-.265.882-.265.264 0 .44-.44.529-.705.088-.265.353-.353.529 0 .176.353.53.353 1.058.529.53.176.618.353 1.059.353.44 0 1.058-.706 1.234-.97.177-.265-.44-.177-.793-.088-.353.088-.882-.353-.882-.618s.353-.353.705-.353c.353 0 .794.177 1.147.088.353-.088.264-.44.353-.705.088-.265.176-.97-.177-1.058-.353-.089-.882-.177-1.146-.089-.265.089-.706.265-.706 0 0-.264.088-1.146.088-1.41 0-.265.265-.177.618-.265.352-.088.793-.441 1.234-.53.441-.088 1.147-.352 1.5-.352s.882.088 1.234 0c.353-.088.97-.353 1.323-.53.353-.176.706-.352.882 0 .177.353.177.883-.088 1.059l-.794.53-.44.087s.881-.176.881.089c0 .264-.088.97.177 1.322.264.353.97.353.97.706s-.441.97-.794.97c-.353 0-.97-.529-.97-.529s.794.44.794.882c0 .44.176.882 0 1.146-.177.265-.794.53-.53.882.265.353.265.794.618.706.353-.088-.353.53-.794.44-.44-.087-.882-.881-.882-.881s.177.44 0 .794c-.176.352-.44.529-.529 1.058-.088.53.265 1.147.088 1.5-.176.352-.264.793-.793.529-.53-.265-.883-.265-1.147-.706-.265-.441-.738-.765-.738-.765z"/><path d="M109.094 54.108s-.353.088-.53.44c-.175.353.089.442.265.794.177.353.089.706-.176.706s.088.44.088.44-.353.09-.176.53c.176.441.794.353.794.353s-.177.264 0 .617l.176.353m-2.469-6.085s0 .529.265.529h.264m-.176 1.587s-.353.177-.353.441c0 .265.088.882.088.882" transform="translate(-251.374 -112.572) scale(5.24794)" style="fill:none;fill-rule:evenodd;stroke:#1f1a17;stroke-width:.17640001"/><path class="fil5 str0" style="fill:none;fill-rule:evenodd;stroke:#1f1a17;stroke-width:.17640001" transform="translate(-251.374 -112.572) scale(5.24794)" d="M107.066 54.813h-.441"/><path d="M103.714 58.253c.265 0 .706-.353.706-.353" transform="translate(-251.374 -112.572) scale(5.24794)" style="fill:none;fill-rule:evenodd;stroke:#1f1a17;stroke-width:.17640001"/><path class="fil5 str0" style="fill:none;fill-rule:evenodd;stroke:#1f1a17;stroke-width:.17640001" transform="translate(-251.374 -112.572) scale(5.24794)" d="m104.42 57.9.353-.088"/><path d="M106.774 60.822s.557 1.047.91 1.135c.352.088.881.353 1.058.706.176.352.97 1.94 1.146 2.734.177.793 1.059 1.94 1.059 1.94s.882.264.088.794c-.794.529-2.381.793-2.734.882-.353.088-.53.176-1.147-.353-.617-.53-1.323-.794-2.028-1.411-.706-.618-1.588-1.235-1.588-1.588s-.168-.677.449-.765a2.614 2.614 0 0 0 1.858-1.287c.441-.794.412-1.434.5-1.786.089-.353.429-1 .429-1z" transform="translate(-251.374 -112.572) scale(5.24794)" style="fill:#d93141;fill-rule:evenodd;stroke:#1f1a17;stroke-width:.17640001"/><path d="M102.127 61.604c.53-.088.97-.176 1.323-.088s.882.44 1.5.088c.617-.353.9-.89 1.252-1.067.353-.176.6.097.6.538 0 .441 0 .882-.265 1.411-.265.53 0 1.411-.882 1.764s-1.588.706-1.94.706c-.353 0-.882.352-1.412.352-.529 0-1.146.088-1.234.441l-.265 1.059s0-.706-.353-.882c-.352-.177-.617-.088-.705.264-.088.353-.441.97-.441.97s0-1.146-.353-1.146-.353.705-.353.705l-.617-.176-.212-.423-.14-.282s.175.617-.09.617c-.264 0-.705-.265-.705-.265s-.44-.176-.529-.44c-.088-.265-.264 0-.529.088s-.706.264-.794-.089c-.088-.352-.44-.705-.353-1.146.089-.441.177-.53.53-.441.352.088.617.176.617.176s-.53-.264-.706-.529c-.176-.265-.176-.706.265-.882.441-.176.97-.264.97 0 0 .265-.264-.617.177-.706.44-.088.529-.264.97-.176.44.088.529.265.529.617 0 .353-.088 1.323-.088 1.323s-.265-.44.264-.44c.53 0 1.059-.353 1.5-.53.44-.176.793-.352 1.41-.705.618-.353 1.059-.706 1.059-.706zm-1.676-3.087s.088.53 0 1.059c-.088.529-.882.882-1.146 1.058-.265.176-.618.176-.97 0-.353-.176-.706-.44-.706-.794 0-.353.264-.44.617-.264s.53.44.882.176c.353-.265.618-.882.97-1.058l.353-.177z" transform="translate(-251.374 -112.572) scale(5.24794)" style="fill:#d93141;fill-rule:evenodd;stroke:#1f1a17;stroke-width:.17640001"/><path d="M99.216 63.985h1.147" transform="translate(-251.374 -112.572) scale(5.24794)" style="fill:none;fill-rule:evenodd;stroke:#1f1a17;stroke-width:.17640001"/><path class="fil5 str0" style="fill:none;fill-rule:evenodd;stroke:#1f1a17;stroke-width:.17640001" transform="translate(-251.374 -112.572) scale(5.24794)" d="m100.363 63.985.617-.176"/><path d="M105.302 65.397c0 .352-.088.793.176.881.265.089.618 0 .618.353v.618" transform="translate(-251.374 -112.572) scale(5.24794)" style="fill:none;fill-rule:evenodd;stroke:#1f1a17;stroke-width:.17640001"/><path d="M99.922 59.047s.265.088.53-.53c.264-.617.617-.882.881-.882.265 0 .794-.705.794-.705s-.176-.088-.97-.353c-.794-.264-1.764-1.411-1.94-1.852-.177-.441-.53-1.5-.53-1.94 0-.441-.176-.53-.44-.794-.265-.265-.353-.53-.794-.353-.441.177-.53.706-.53.706s-.088-.265-.44-.353c-.353-.088-.618-.265-.794.088-.177.353-.177.617 0 .882.176.265.529.53.529.53s-.882-.618-1.147-.353c-.264.264-.617.352-.352.793.264.441.705.794.705.794s-.44-.176-.617.265c-.177.44-.441.617-.088.793.352.177.44.353.882.265.44-.088.617-.353.97-.177.352.177.617-.088.617.353 0 .441-.176.706.176 1.059.353.352.177.529.794.882.617.352.794.705 1.147.793.352.089.617.089.617.089z" transform="translate(-251.374 -112.572) scale(5.24794)" style="fill:#d93141;fill-rule:evenodd;stroke:#1f1a17;stroke-width:.17640001"/><path d="m97.982 56.489.529.794m-2.117-1.941c0 .265.177.53.177.53" transform="translate(-251.374 -112.572) scale(5.24794)" style="fill:none;fill-rule:evenodd;stroke:#1f1a17;stroke-width:.17640001"/><path d="M119.501 71.16c-1.505-.486-3.315-.913-5.027-.913-3.969 0-6.438 2.029-9.26 2.029-2.823 0-6.527-2.205-9.614-2.205-1.735 0-3.526.725-4.762 1.36 0-.813-.002-1.871-.006-3.084 1.236-.635 3.03-1.363 4.769-1.363 3.086 0 6.79 2.205 9.613 2.205 2.822 0 5.291-2.029 9.26-2.029 1.702 0 3.5.422 5.001.904.015 1.23.024 2.296.026 3.095zm-1.035 5.336c-1.263-.345-2.657-.604-3.992-.604-3.969 0-6.438 2.028-9.26 2.028-2.823 0-6.527-2.205-9.614-2.205-1.298 0-2.627.406-3.731.876-.37-.922-.636-1.84-.806-2.716 1.223-.605 2.905-1.246 4.537-1.246 3.087 0 6.791 2.204 9.614 2.204 2.822 0 5.291-2.028 9.26-2.028 1.628 0 3.345.386 4.804.841a16.244 16.244 0 0 1-.812 2.85zm-3.149 5.073a11.31 11.31 0 0 0-.842-.033c-3.97 0-6.438 2.029-9.26 2.029-2.823 0-6.527-2.205-9.614-2.205-.224 0-.448.012-.672.034a14.791 14.791 0 0 1-1.996-2.647c.847-.278 1.765-.474 2.668-.474 3.087 0 6.791 2.205 9.613 2.205 2.823 0 5.292-2.029 9.26-2.029.96 0 1.95.135 2.901.338a14.823 14.823 0 0 1-2.058 2.782z" transform="translate(-251.374 -112.572) scale(5.24794)" style="fill:#193783;fill-rule:evenodd"/><path d="M112.799 63.809c0 .53.176.97-.088 1.411-.265.441.882-.353.882-.353s.44.089.529-.44c.088-.53.53-1.853-.088-1.94-.618-.09-1.235 1.322-1.235 1.322z" transform="translate(-251.374 -112.572) scale(5.24794)" style="fill:#d93141;fill-rule:evenodd;stroke:#1f1a17;stroke-width:.17640001"/><path class="fil5 str0" style="fill:none;fill-rule:evenodd;stroke:#1f1a17;stroke-width:.17640001" transform="translate(-251.374 -112.572) scale(5.24794)" d="M90.684 49.425h28.398"/><path d="M119.082 49.425s.353 17.022.353 21.96c0 4.94-3.793 14.288-14.111 14.288-10.319 0-14.552-8.82-14.552-14.023 0-5.203-.088-22.225-.088-22.225" transform="translate(-251.374 -112.572) scale(5.24794)" style="fill:none;fill-rule:evenodd;stroke:#1f1a17;stroke-width:.17640001"/><path d="M107.545 52.774s.066.03.081-.052c.015-.081.052-.252-.059-.237-.11.015-.222.237-.222.237l.111.008.133.036-.044.008z" transform="translate(-251.374 -112.572) scale(5.24794)" style="fill:#1f1a17;fill-rule:evenodd;stroke:#1f1a17;stroke-width:.17640001"/><path d="M119.402 47.605a.54.54 0 0 1-.54.54H91.33a.54.54 0 0 1 0-1.08h27.532a.54.54 0 0 1 .54.54z" transform="translate(-251.374 -112.572) scale(5.24794)" style="fill:#fff500;fill-rule:evenodd;stroke:#1f1a17;stroke-width:.17640001"/></svg>