<svg xmlns="http://www.w3.org/2000/svg" width="336" height="224"><path d="M0 0v224h336V0H0z" fill="#e3b500"/><path d="M144.656 22.732c-.851 2.258-3.522 4.368-8.125 3.562-.727-.127-2.125.625-2.125.625-.254-.544-1.479-1.293-2.594-1.531-4.372-.934-8.24-2.45-9.875.75 0 0-5.579.056-7.687 0-2.716-.072-3.843 4.318-1.031 5.312l.093 8 1.594.063c-.704 2.505.712 3.58 1.813 4.844-.424-1.313-.578-2.997.968-3.782.076 1.751 1.052 3.154 2.188 3.844-.286-1.29.37-2.313 1-3.375 0 0 1.3-.085 2.25-.062 1.422.033 2.385 2.007 2.781 4.406-1.575-.29-3.582-.361-6.875.469-3.794.991-7.883 2.563-10.219.375-1.359-1.274.467-3.132 2.657-2.844.989-2.974-6.083-5.385-8.469-1.156-1.349 2.39-.055 5.314 1.656 6.875 3.412 3.11 9.132 1.143 13.469 0 4.024-1.062 6.273-1.06 7.969-.75-.094 2.92-1.01 5.6-3 5.656-.854.024-2.563 0-2.563 0-.738-1.021-.36-2.29-.437-3.531-1.137.53-1.951 1.616-2.5 2.968-.55-.489-.912-1.713-.688-2.875-.34.482-1.354.71-1.375 1.938-4.909-.866-5.216 3.617-4.875 6.469 3.992-.75 4.421.181 6.344 1.218.975.526 2.906 1.594 2.906 1.594-1.528 2.231-4.471 2.204-6.625 1.5-4.671-1.526-9.967-4.844-15.687-3.844-2.806.49-4.507 3.51-5.219 5.625-1.746-.99-3.643-1.986-5.969-.28-1.904-1.741-5.81-1.852-8.094-2.75-3.024-1.191-5.855-3.068-7.562-6.157-.558-.795-.497-2.254.094-3.344.473-.873.52-2.244.093-3.219-.89-2.028-2.828-3.518-5.812-3.187-.498-1.32-2.162-1.82-4.188-1.688.962.589 2.704 1.093 1.438 2.594-1.42.096-2.818-.386-4.313.688-1.43-.52-2.68-1.583-4.906.437.382.172 1.917.013 2.281 1.375-.516.85-1.33 1.79-1.437 2.969-.848.643-1.235 1.878-1.438 2.844-1.8.168-3.596.917-3.343 2.968 1.404-.691 1.507-.45 2.343.157.18 1.817.662 3.62 3.782 4.843-.231 2.101.202 3.616 1.718 4.22.209 1.364-.737 2.018-1.843 2.562 1.59.417 2.93.64 4.437-.75 2.243.296 4.63-.14 6.219-2.125l3.281 3.406c-.364 3.561-1.519 6.903 1.906 9.812 1.21 1.028 1.244 2.725 1.563 4.5 2.11-2.465 3.296-5.344 3.625-8.218 2.034 1.61 5.58 4.157 8.656 5.03-1.091 3.095-2.535 6.213-5.969 7.095 4.593 2.648 6.742-.357 8.875-2.657.457-.492.921-1.412 2.032-.625-2.03 1.675-1.244 4.251-1.844 6.063-.554 1.67-2.27 3.109-3.938 3.312.484.607.77.605 1.904 1.018 0 0-3.466 3.215-4.872 5.389-1.505 2.324-1.936 5.236-3.438 7.562-1.02 1.579-2.268 3.056-3.719 4.25-1.932 1.591-4.437 1.137-5.468-.375-1.085-1.59-3.507-3.192-6.125-2.469-1.012.28-1.75 1.813-1.75 1.813-2.284-.313-2.965.412-3.375 1.437.977-.162 1.87-.48 2.656.125l.062 1.5c-2.316.187-2.366 2.397-2.156 4.844-1.095.166-1.461 1.646-1.5 3.344 1.326-1.87 2.572-.765 3.594-.5.66 1.445 1.814 1.526 2.875 1.719.152.835.458 1.562 1.281 2.062-.71 1.875-.107 3.222.844 3.75-.078-.74.067-1.738.531-1.687 2.786 1.74 5.767 1.466 8.219.25 1.167-.58 1.281-2.315 2.25-3.188.931-.839 2.292-1.073 3.281-1.844 2.959-2.305 7.781-8.156 7.781-8.156 1.063 1.575.767 3.016.72 4.656 2.259-2.198 3.849-4.817 5.562-7.28.963 1.03.767 1.458 1 2.124 2.686-3.343 2.63-7.436 4.75-10.719.815-1.262 3-3.343 3-3.343.084 1.94-.16 3.28-2.032 4.343 2.58.656 4.307.202 6.282-1.093 0 0 2.676 5.107 4.718 7.062 2.368 2.267 8.375 5.125 8.375 5.125-1.357 1.03-1.79 2.181-1.53 3.75 0 0-6.145-.265-8.845.438-9.905 2.578-14.553 11.157-18.125 20.937-1.502 4.114-5.115 2.093-5.718-.094-.353-1.279 1.288-2.43 2.812-2.812-5.09-.813-6.549 4.883-1.656 6.937-1.864.944-2.795 3.034-3.188 4.97-.478 2.356-1.443 4.014-4.125 4.374 1.493.977 2.633 1.503 4.625 1.281.004 2.39-1.304 3.033-3.625 3.563 2.358 1.273 4.575.24 5.532-1.094.683-.952 1.792-.898 2.625-1.031 0 0-2.522 5.354-2.75 8.906-.11 1.713-2.056 6.623-4.828 6.023-5.275-1.142-10.311-.942-10.311-.942-1.651-2.418-3.75-4.26-6.236-4.112-1.387.083-3.183 2.692-3.183 2.692-1.522-.357-2.107 1.235-2.498 2.362.897-.267 1.047-.556 1.74.575 0 0-.073.718-.346.746-1.23.128-1.02 1.495-1.057 3.13-1.52.614-1.594 1.282-.23 2.986.216-.863.65-1.113 1.324-1.429.355.71.858 1.174 1.5 1.407l.25 3.03c-1.445.823-.446 2.34.157 3.05.283-1.07.68-1.747 1.343-1.487 2.965 2.412 5.957 1.594 7.718.287.636-.473 2.733-.265 2.733-.265.386 1.745 1.392 3.393 3.148 2.981 1.803 1.603 1.262 2.459 1.09 3.08 1.435-.112 2.558-.913 2.578-3.153 2.965-.401 3.261-1.74 2.691-4.35 3.061.13 5.306-1.658 6.823-3.767 1.04-1.445 1.882-4.218 3.375-4.344.866 1.363.834 2.826 1.156 4.25.939-2.256 1.222-5.26 3.167-6.542.355 1.807 1.238 1.792 1.9 2.357-.04-2.144-.924-4.078 1.902-6.346 3.364 3.616 5.448 1.86 7.715.546-2.253.155-3.896.59-4.34-2.39 2.218-2.708 4.794-4.123 6.969-6.094 1.59-1.44 1.146-5.599-1.768-5.652-.456-.008-1.42-.098-1.42-.098-.256-3.266-.547-6.603.17-9.617.908-3.815 4.497-7.058 8.15-8.485 2.877-1.125 6.679-.203 9.249.56-.897 5.17-.239 9.606.38 14.352.511 3.928 2.906 7.724 2.739 11.565-3.731 2.518-5.062.499-6.046-1.684-.723 2.92-.184 6.77 5.497 5.909.179 2.617.238 5.746 3.418 7.189.766-2.623 1.919-3.33 3.6-3.789 1.831-.499 3.829-1.676 3.687-4.343 2.001 1.718 4.999.775 6.656-.72 2.173-1.957 6.504-1.839 8.469.188 2.48 2.558 1.923 7.751-.094 10.688-1.686 2.455-4.264 3.798-8.312 3.281-3.013-3.783-6.065-6.268-9.344-1.25-1.734-.548-3.254.765-3.592 2.295 1.414-.582 2.38-.12 3.405.205-2.813 1.148-2.356 3.542-2.47 5.719-1.029.799-1.65 1.684-.143 3.018.501-1.271 1.703-1.442 3.144-1.237.009 2.085 1.881 1.496 3.867 1.604.235.303.638.578 1.057.745-.823 1.627.03 3.44 1.094 3.9l1.044-1.561c3.133 1.125 6.056 1.355 8.063-.438.88-.787.825-2.267.588-3.494-.338-1.757 1.338-1.812 2.207-1.833 1.291-.032 4.44.425 4.517-4.048 0 0 1.842-.176 2.599.253 1.792 1.017 3.44 3.629 5.767 1.272-1.622-.413-2.088-1.534-2.522-2.681-.354-.936.094-3 .094-3 1.26-.395 2.52-.833 3.781.094-.327-2.667-2.467-2.628-2.187-8.938 1.145-1.632 1.785-1.035 2.526.18 3.143-2.411.224-5.835-3.151-7.867 2.433-1.07 4.311-.101 6.375.187-3.534-2.741-1.264-6.464-5.594-8.406 4.064-1.516 3.983-5.833 2.456-7.507-.318 1.407-.886 3.067-3.144 3.163-2.144.092-5.127-.597-7.093.906-1.141-5.5-4.983-5.329-8.75-5.312v-2.563c4.078.439 5.12-.56 6.165-1.196-2.727.288-4.197-3.408-4.679-6.095.08.801 12.227-.088 13.845 2.29 1.4 2.059 4.594 3.697 4.594 3.697-.351-1.18-1.471-3.021-.819-4.96a12.17 12.17 0 0 0 .456-6.017c2.845.897 3.263-1.233 4.406-2.469.958-1.034 2.086-2.328 3.532.25.778-2.391 1.044-4.49-3.438-3.875-.425-1.168.771-2.81 1.938-2.937 1.471-.16 2.65 1.078 3.187 3.094 1.064-2.467 1.526-4.82-.437-6.72 5.315-6.959.323-9.658-2.01-8.738 1.421 1.529 3.344 4.159-2.428 5.301h-3.719c-.793-3.19-2.98-5.142-5.031-7.25-1.938-1.991-5.083-2.69-6.719-4.937-1.59-2.184-2.163-5.19-2.562-7.688-1.94 1.626-2.763 3.97-2.031 7.313-2.915-1.274-4.925-3.47-6.094-6.094-.637-1.43-.432-3.239-.25-4.687 5.507 1.61 11.813-1.367 14.271-4.84 1.42-2.006 4.017-4.106 6.666-4.442 1.883-.238 3.942-.004 5.375 1.875.483-2.306.358-4.54-2.375-6.468 4.745-4.919 2.438-5.92 2.469-8.22 4.08-1.2 6.426-5.976 6.281-9.874-.19-5.11-4.478-8.436-6.865-6.278.996.843 2.042 4.299-.005 5.88-1.308 1.012-2.65 1.421-4.88 1.804-1.123-6.867-6.612-6.972-8.471-5.502 3.341 4.2 2.114 7.771-.9 8.416-2.528.541-5.364.827-5.472 3.711-1.659-5.615-5.234-5.189-6.455-4.27 2.485 2.41 1.794 5.368 1.15 7.975-.699 2.829-4.427 4.249-5.133 7.076-.794 3.179-1.547 5.376.344 10.063-3.772 4.142-1.76 9.76.812 13.437 2.826 4.041 7.281 7.134 11.706 9.62 5.095 2.863 9.936 9.18 7.013 14.474-2.502 4.532-8.85 4.693-12.969 1.375-2.536-2.043-3.481-4.49-8.593-4.687l-7.782-9.094c-.943-6.286-2.645-11.328-6-16.594 5.686-.477 5.87-4.109 5.781-7.719-4.126 3.318-6.882.392-7.156-2.218-.299-2.856 1.226-6.679 3.688-8.75.503 2.208 1.612 4.006 2.812 5.75.107-1.297.596-3.448 2.219-4.688 1.606-1.227 2.63-3.522 2.187-5.906 2.08-.863 4.418-1.746 5.594-4.094.665-1.327.671-3.494 2.469-4.594-2.759-2.978-3.41-5.756 1.687-8.03-2.065-1.853-2.199-5.392-1.687-9.47 1.09-.871 2.16.09 3.25.532-.27-2.438-.577-4.84-4.188-6.125-.604-1.573-.493-3.75-.906-5.47-.388-1.615-2.2-3.153-2.219-3.062 2.576-3.046 5.494-5.98 2.47-10.968z"/><path d="M111.593 96.653c-.487 2.467-1.175 4.893-3.542 6.984 1.244 3.093 3.818 5.682 6.376 7.895 3.122 2.7 7.903 4.194 10.122 7.996 2.964 5.08 3.64 8.787 3.453 17.302-.071 3.213-.585 5.471-.416 8.204.239 3.879.394 8.803 2.016 11.483 1.47 2.43 2.547 7.786-1.01 9.54 1.276.096 1.944-.032 2.494-.697.858-1.036 1.657-.84 3-.868.4 1.382-.864 1.79-2.458 2.357-2.557.91-1.212 4.74-.242 5.533.87-1.446 2.178-2.18 3.588-2.651 1.881-.63 3.716-2.476 3.34-6.174.958 1.826 2.81 3.021 5.359 1.786 2.065-1.001 4.127-2.595 6.633-2.62 3.188-.03 7.254 2.645 7.602 5.913.482 4.52-.993 9.705-4.858 12.543-2.085 1.53-7.65 1.305-7.65 1.305s-2.333-2.816-3.911-3.643c-1.846-.966-4.178.69-2.359 2.274 1.502 1.309 4.176.775 5.359 3.495 0 0-2.146.04-3.174-.221-.85-.217-1.81-.344-2.393-1.095-.333-.427-2.936-.562-2.578 1.708.183 1.155 1.357 2.175 2.156 3.258.586.794 1.502 1.942 2.547-.108 0 0 1.173-1.57 2.025-1.976 1.338-.637 3.362-1.073 4.417-.508 0 0-1.99 2.614-3.304 2.687-2.273.126-2.543 1.705-.72 2.203 1.078.295 2.883 1.623 4.465 2.453 2.377.55 3.12-1.476 2.786-2.9-.327-1.397-.157-3.013 1.971-3.983 4.565.612 5.297-.86 5.532-3.27 3.292-1.79 4.735.506 5.382-.022-.492-1.498-.06-3.15.177-4.32.31-.52.974-.837 1.865-.991-.037-3.647-2.773-8.896 3.258-8.937-.936-2.218-2.635-4.04-4.473-4.525.924-1.2 1.02-3.014 4.353-2.43-.191-3.104-1.134-5.502-4.454-5.667-.246-1.58 3.518-1.514 3.413-3.538-3.431 1.776-6.606-1.728-10.6 3.538-.19-4.1.318-8.652-7.995-7.49v-8.3c.616.968 1.679 1.266 2.863 1.381-.937-1.12-1.271-1.646-1.886-3.415-1.133-3.262-7.315-10.47-10.277-14.727-1.829-2.628-4.256-4.709-6.085-7.43-.979-1.456-1.872-3.11-2.025-4.858-.353-4.047-2.575-9.757-6.174-14.07-1.66-.346-3.2-1.222-4.858-3.744-.536.613-.367 1.942-.632 2.893-.413 1.484-1.49 2.638-2.53 3.716-1.744-.262-2.792-.724-4.095-2.006-.394-.388-.978-1.424-1.853-1.263zm6.661 25.87c1.53 1.648 1.672 3.289 1.933 5.082.161 1.11-.302 2.293-.252 3.357.093 1.955 2.365 2.792 4.033 2.622.789-.08 2.16.033 2.16.033l.07 2.147c-5.522-1.39-9.51-1.495-13.846 1.727-3.409 2.533-6.088 6.827-6.408 11.013-.183 2.404.1 4.834.59 7.127.202.944 1.181 2.327 2.13 1.962 2.01-.772 3.148 1.539-.644 3.65-2.309 1.286-4.558 3.093-5.082 6.084-4.468-.267-6.247 1.833-7.371 4.509-3.084-3.496-5.47 4.646-7.086 6.298-1.983 2.028-4.595 4.639-6.656 1.933-.511-.671-1.138-1.493-2.219-1.217-.676 2.573.047 2.65.788 3.65.558.755 1.42 2.143.787 2.934-1.104 1.38-4.048 1.036-5.296-.214-.439-.44-.235-1.262-.072-1.861.21-.766 1.088-1.236 1.288-2.004.2-.763-.143-2.362-.143-2.362-.985.395-2.271 1.174-2.218 2.219.123 2.438-1.801 2.008-2.884 1.873-1.98-.247-2.98.858-3.886 1.166-1.177.4-3.013.06-3.601-1.035-1.058-1.97-.523-4.19 2.072-2.931 1.48.718 4.03 1.353 4.935.14-.624-1.944-1.875-1.584-3.006-1.575-1.436.012-2.604-1.227-3.848-.812-1.227.41-2.467.466-3.238.096-1.033-.496-1.034-2.588.143-3.435 1.024-.44 2.2-.47 2.973.328 1.457 1.504 3.578 2.373 5.401 2.177 0 0-1.597-1.902-2.576-2.648-1.015-.773-2.305-1.124-3.352-1.844-1.829-1.257-.182-4.605 2.85-2.522 1.122.77 1.307 2.578 2.506 3.22 1.982 1.063 4.487.305 6.727.501 2.18.192 4.515 1.51 6.532.66 2.565-1.08 5.206-6.528 5.206-6.528.733-3.196.504-7.074 3.006-9.018 1.192-.927.65-3.25-1.407-2.786-1.25.281-1.998.448-3.406.197.402-.697.366-1.285.232-1.849-.9.075-1.55.301-3.077 0 1.203-1.118 1.92-2.307 2.147-3.721.346-2.162 2.218-3.62 4.437-3.22-.363-.473-.832-.99-.796-1.862 2.11-.01 2.913-2.06 3.62-3.557 1.307-2.763 3.01-7.79 5.407-11.115a21.387 21.387 0 0 1 11.666-8.087c2.812-.768 5.812-.373 8.731-.501zm27.044-32.854c-2.946 7.126 2.135 12.894 6.36 16.617 2.512 2.214 5.722 3.822 8.596 5.984 4.69 3.53 10.92 13.658 2.251 18.594-2.938 1.673-8.08 1.8-10.931-.202-2.794-1.962-5.02-5.425-7.591-4.656 3.208 4.164 5.815 9.647 11.74 9.21 4.13-.304 11.315.265 12.045 3.037.324-2.244 1.524-4.589-.493-7.544 2.606-.446 5.799-.31 5.828-3.205-.694.5-1.176.362-1.488-.284.101-2.294.106-4.902 1.923-5.87 1.666-.889 4.72-2.005 5.781-6.157-1.805 1.954-4.798 2.788-9.526 1.906-1.62-4.835-4.76-7.695-6.656-8.89-2.903-1.83-4.64-3.361-6.15-5.537-.944 1.269-.72 1.889-.816 2.632-3.72-1.828-10.775-5.78-9.104-13.825l-1.769-1.81zm19.093-31.55c5.39.59 3.295 10.48-1.548 12.275-2.422.898-7.299 4.756-4.542 6.278 1.744-1.926 3.585-4.255 6.117-4.892 3.498-.88 4.73 1.473 3.852 5.284-9.216.462-10.627 4.124-10.652 5.38 11.17-6.59 14.452-2.529 15.817-.69-4.08-1.316-9.353-.422-11.893 3.326-1.929 2.847-5.427 5.026-9.077 5.06-4.42.043-7.297-2.731-7.216-6.702.058-2.851 1.88-5.223 3.924-7.435 2.06-2.23 3.189-5.18 2.362-8.732 2.317.351 1.954 5.359 1.79 10.02 1.972-.15 2.134-2.906 1.86-4.509-.346-2.016.714-5.441 4.015-5.915 4.744-.682 6.931-5.007 5.191-8.748zm12.766-1.798c-.117 4.464-2.12 6.434-7.873 6.8-.018 2.498-.336 4.754-2.576 6.512 2.982 1.517 3.792 4.033 3.22 7.444 1.975.065 5.942-4.575 1.647-7.587 9.308-3.16 8.94-10.765 5.582-13.169zm-53.215-25.737c2.844-.57 4.094.098 3.871 1.746-.706.319-1.18.604-1.973.658-1.234.083-1.998-.608-1.898-2.404zm19.863-4.18c-1.256 1.093-3.044 2.118-4.795 2.148-1.611.027-4.132-.89-4.509 1.86-.914-1.93-1.475-2.586-3.579-3.113-1.308-.327-2.766-.992-4.007-1.252-1.52-.319-3.377.045-3.15 2.004 3.425-.444 4.825.788 5.44 2.72.514 1.615.933 2.4 2.147 2.576 1.117.161 1.296 1.292.215 1.145-1.549.515-2.05-1.586-3.543-.859-1.46 1.038-2.902 1.44-4.33.43-.76-.81-1.857-1.4-1.61-3.4l-1.11-.179c-.773-.202-.371-1.159 0-1.145.722.027 1.187-.153.573-.644-2.24-1.13-5.197-.798-6.907-.68-1.228.084-2.123 2.588.394 3.364l.071 6.835c7.32.737 11.437.49 15.245 3.65 3.578 2.969 2.847 10.94-2.04 13.67-2.758 1.54-6.975.789-8.123.537-2.01-.442-4.012-2.149-5.976-1.54-1.058.33-1.826.763-2.183 2.506 2.601-.415 5.142.28 6.942 1.86 2.228 1.956 5.703 2.765 8.302-.214 1.453 1.783.116 2.813-1.932 3.65l-4.151.143c-1.957 4.079-6.23 3.5-9.447 2.004-3.474-1.615-6.761-2.964-11.094-3.006-4.103-.04-5.86 1.808-6.782 4.51-.331.97.054 3.077.054 3.077-1.016-1.845-3.07-2.997-5.044-3.12-1.698-.105-2.263.824-4.638 2.126.916.707 1.105 1.848 1.452 2.854.47 1.364 1.07 2.648 2.72 3.364 1.12-1.762 3.117-2.53 5.01-2.934 2.809-.601 5.632-1.782 7.514-4.509.577.125.599 4.105-3.006 5.081-4.316 1.17-10.313 3.32-10.592 8.231-.14 2.47-1.848 4.354-3.432 6.581 3.148-.833 3.984-3.339 5.15-3.647 1.644-.434 3.149.112 4.723 1.933-2.676.176-2.911 2.124-3.507 3.722-.506 1.358.039 2.722-1.216 4.509 2.169 1.181 3.164 3.406 3.721 5.393 2.553-.457 3.756-2.152 5.01-5.367.51-1.309.264-3.713 1.503-4.392 1.215.06 1.625 1.402 1.646 2.362.054 2.441-.452 5.17 2.004 6.37 1.76.858.645 3.968.215 5.868 2.892.275 4.672-1.85 5.583-3.936 1.435-3.289.62-7.762-2.07-9.78 3.162-1.183 4.312 1.306 5.29 3.124 1.048 1.946 1.213 3.576 4.796 4.58 3.229-2.742 2.59-6.037 1.145-9.447 2.881-1.12 3.241 3.551 5.153 5.368 3.38 3.21 8.947 2.073 9.494-.746-2.712 1.543-6.774-.184-7.136-5.266-.299-4.192 1.157-7.244 6.015-10.879.458 2.667 1.217 3.223 1.933 4.08.295-1.018 1.189-1.435 1.79-2.148 1.317-1.564 1.516-3.579.93-5.797 2.137-.244 4.526-.873 5.725-2.863.86-1.427 1.286-3.112 2.434-4.365-3.33-3.638-2.046-6.55.947-8.976-1.49-2.517-1.358-5.524-1.162-8.56.276-.97.998-1.556 2.219-1.717-.23-1.507-.843-2.656-3.078-2.29 0 0 .334-4.197-.286-6.155-.358-1.129-.936-2.266-1.907-2.996 0 0-1.79.968-2.295 1.295-2.181 1.418-3.689-.108-2.526-1.09.975-.824 8.226-3.364 7.658-8.517zm-34.39 16.032c-5.618 2.688-.486 6.123.967 6.513-3.31.738-4.98-.855-5.798-2.54-1.726-3.56 2.272-6.947 4.832-3.973zm10.342 78.513c-1.036-1.654 1.098-3.511 2.148-2.111 2.317 3.09 4.513 8.085 4.115 11.451-.237 2.008-5.06 2.425-3.669-.905.57-1.366.496-3.502-2.594-8.435zM91.55 100.884c1.75-.135 4.268-.545 5.233-2.193.95-1.622 2.092-3.25 3.006-2.791.42 1.215.98 2.148 1.53 3.102-2.201 1.826-5.054 5.323-5.68 8.778-.227 1.25.007 1.352-1.032 3.668-.418-1.541-1.17-2.863-2.261-3.596-.533 2.686-.123 5.147-3.301 8.463-.228-1.299-.808-2.398-1.566-3.167-.022.05-7.534 8.52-10.306 9.662-1.194.492-2.278.231-2.976 1.285-.845 1.275-.029 3.887-4.008 4.193-1.757.135-2.756-1.076-4.038-2.042-1.116-.842-1.631-2.172.072-2.577 1.779-.423 4.628.27 5.296-1.431.247-.629-.583-2.182-1.074-1.718-2.26 2.14-4.187.263-5.579 1.726-1.006 1.059-3.002 1.836-3.653-.223-.46-1.45-1.966-2.705-2.046-3.617-.165-1.878 2.165-2.35 3.62-1.823 1.207.438 1.665 2.115 2.863 2.577 1.01.39 2.562.849 3.25.012.343-.416.223-1.55-.315-1.587-1.656-.112-5.678-.75-5.94-3.22-.12-1.124 1.304-2.307 2.433-2.362 1.644-.08 2.3 2.563 3.864 3.077 1.837.605 4.097.706 5.798-.214 3.16-1.711 4.72-5.54 6.226-8.803 1.33-2.883 3.265-6.796 7.294-9.561.368.025 1.118-.01 1.664.076.645 1.207 1.68 2.753 1.626 4.305zm-4.425-25.322c-.816 1.61-1.33 2.317-1.311 3.944-2.615.604-7.882-3.388-10.939-6.069-1.867.9-.884 4.314-.938 6.813-2.452-.19-4.435-3.551-3.437-6.438.471-1.363.731-2.96.812-4.25-3.03-1.12-4.766-3.072-4.5-6.312-2.126.605-2.366 3.192-3.65 4.386-1.965 1.827-7.855-1.867-5.38-4.355.704-.709 2.01-1.21 1.836-2.534-1.662-.914-1.38.948-3.764.71-2.511-.251-2.481-6.823-.148-6.96 2.51-.149 4.064 1.963 4.544 2.815.921 1.639 3.73 1.397 3.698 1.269-.971-2.252-2.335-2.937-3.812-4.063-.94-.715-2.117-.986-3.135-1.65-1.936-1.263 2.235-4.451 4.936-3.93 1.931.371 1.63 3.4 2.099 5.246.197.777 1.082 1.154 2.019 1.308.345-1.046-.226-2.512-.711-3.492-.33-.664-.367-1.384-.344-2.125.075-2.405 4.814-1.524 4.031 1-.844 2.723-.267 5.584 1.98 7.904 2.564 2.648 5.769 5.297 9.666 5.643 1.886.168 3.885 1.566 3.635 1.89-1.131.331-2.144 1.02-3.161 1.694 1.453.394 1.355 1.302 1.786 2.119.942 1.781 1.495 4.676 4.188 5.437zm40.844-26.737c-.181 1.575-.723 3.302-1.782 5.282 2.115.783 3.82-1.736 4.375-4.657-.98-.129-1.78-.37-2.593-.625zm-1.344-6.687c.568 1.157 1.055 2.374 1.281 3.719.886.267 1.73.518 2.781.593-.264-2.356-1.47-4.33-4.062-4.312z" fill="#e00003"/></svg>