<svg xmlns="http://www.w3.org/2000/svg" width="1500" height="1050" xmlns:cgf="https://coding.garden/flags"><metadata id="cgf-metadata">

<cgf:flag>
  <cgf:name></cgf:name>
  <cgf:route>br/df</cgf:route>
  <cgf:aspect-ratio>1.4285714285714286</cgf:aspect-ratio>
</cgf:flag>

</metadata><path fill="#FFF" d="M0 0h1500v1050H0z"></path><path fill="#00923F" d="M490 265h520v520H490z"></path><path d="M713 488V383l26-26v-48h-26l37-37 37 37h-26v48l26 26v105h105l26 26h48v-26l37 37-37 37v-26h-48l-26 26H787v105l-26 26v48h26l-37 37-37-37h26v-48l-26-26V562H608l-26-26h-48v26l-37-37 37-37v26h48l26-26h105z" fill="#F8C300"></path><path d="m676 525 74-74 74 74-74 74-74-74z" fill="#00923F"></path></svg>