<svg xmlns="http://www.w3.org/2000/svg" width="2000" height="1400" xmlns:cgf="https://coding.garden/flags"><metadata id="cgf-metadata">

<cgf:flag>
  <cgf:name></cgf:name>
  <cgf:route>br/es</cgf:route>
  <cgf:aspect-ratio>1.4285714285714286</cgf:aspect-ratio>
</cgf:flag>

</metadata><path fill="#fff" d="M0 0h2000v1400H0z"></path><path fill="#00a3ce" d="M0 0h2000v466.667H0z"></path><path fill="#ef5a8d" d="M0 933.333h2000V1400H0z"></path><path d="m324.394 808.485-32.727-65.606-25.758 10.606L259.242 740l69.091-28.333L335 725l-25.758 10.606 32.728 65.606-17.576 7.273m54.697-22.121-35.152-80.758 37.88-13.485c9.393-3.485 16.666-5.151 21.514-5.303 5-.151 9.546 1.212 13.788 3.94 4.243 2.878 7.273 6.666 9.394 11.363 2.576 6.06 2.879 11.818.606 17.121-2.121 5.303-6.97 10-14.242 13.788 4.697.606 8.94 1.818 12.424 3.334 3.636 1.515 8.94 4.697 16.06 9.394l17.728 11.818-21.515 7.727-20.606-12.879c-7.425-4.697-12.273-7.424-14.697-8.485-2.425-1.06-4.697-1.515-6.818-1.363-2.122 0-5.303.757-9.394 2.272l-3.637 1.364 14.697 33.636-18.03 6.516m-2.273-53.03 13.182-4.85c8.636-3.03 13.94-5.302 15.758-6.666 1.818-1.515 3.03-3.182 3.484-5.303.606-1.97.303-4.242-.757-6.667-1.212-2.727-2.879-4.696-5.303-5.757-2.273-1.06-5-1.364-8.03-.758-1.667.303-6.061 1.819-13.334 4.394l-13.94 5.152 8.94 20.454m173.94-3.636-20 6.06-14.697-16.212-36.213 10.91-.606 20.909-19.545 5.909 5.151-93.03 19.394-5.758 66.516 71.212M505 707.424l-23.636-26.818-1.061 34.242L505 707.424m30.91-63.94 36.817-9.09c7.425-1.818 12.88-2.879 16.667-3.182 3.636-.454 7.273 0 10.606 1.06 3.333 1.061 6.364 2.728 9.242 5.304 2.728 2.424 4.697 5.454 5.758 8.94 1.06 3.939 1.06 7.878-.303 11.666-1.364 3.94-3.788 7.121-7.273 9.697 6.06.151 11.212 1.666 15.303 4.394 4.091 2.879 6.818 6.666 8.182 11.515 1.212 3.788 1.364 7.879.455 11.97-.91 3.939-2.728 7.575-5.455 10.606-2.727 2.878-6.515 5.303-11.212 6.97-3.03 1.06-10.455 3.03-22.273 6.06l-31.515 7.727-25-83.636m22.879 9.242 5.757 19.394 12.122-3.03c7.272-1.818 11.818-3.03 13.485-3.636 3.03-1.061 5.303-2.728 6.666-4.697 1.212-2.122 1.515-4.546.758-7.273-.758-2.576-2.273-4.546-4.243-5.758-2.12-1.212-4.697-1.666-7.878-1.212-1.97.303-7.273 1.515-16.061 3.637l-10.606 2.575m9.848 33.334 6.819 22.424 17.12-4.243c6.819-1.666 10.91-2.878 12.728-3.636 2.576-1.212 4.545-2.879 5.606-5 1.364-2.273 1.515-4.848.606-7.879a12.38 12.38 0 0 0-3.94-5.909c-1.817-1.363-4.242-2.121-6.969-2.273-2.879-.151-8.485.758-16.818 2.88l-15.152 3.636m169.849 2.575-20.455 3.94-12.727-17.728-37.273 7.122-3.333 20.757-20 3.788 16.818-91.818 20-3.788 56.97 77.727m-42.576-26.97-20.151-29.09-5.303 33.94 25.454-4.85m53.636 25.607-14.393-85.152 19.09-2.576 11.97 70.607 47.424-6.516 2.425 14.394-66.516 9.243m80.303-10.91L820.758 590 840 588.333l3.485 34.091 37.727-3.333-3.636-33.94 19.242-1.666 9.091 86.363-19.242 1.667-3.94-37.727L845 636.97l3.94 37.727-19.092 1.667m182.122-10.303-20.91.606-9.09-19.394-38.182 1.06-7.121 20-20.455.606 33.94-87.878 20.454-.606 41.364 85.606m-36.818-33.182-14.243-31.818-11.818 32.575 26.06-.757m121.516 35.303 6.97-86.515 70.605 4.848-1.06 14.546-51.515-3.485-1.515 19.242L1168.03 620l-1.212 14.545-47.879-3.181-1.97 23.636 53.334 3.485-1.212 14.697-72.424-5m228.636-6.212 17.424 8.333c-4.697 8.94-10.757 15-18.333 18.485-7.424 3.485-16.212 4.394-26.212 2.727-12.576-2.121-21.97-7.727-28.485-16.667-6.515-9.09-8.485-20.454-5.758-33.787 2.88-14.243 9.091-24.546 18.788-31.061 9.546-6.667 21.06-8.788 34.243-6.667 11.363 1.97 20.151 6.515 26.06 13.94 3.637 4.242 5.758 10 6.515 17.272l-19.545.91c-.303-4.546-1.97-8.485-5-11.516-2.879-3.181-6.97-5.151-11.97-6.06-6.97-1.06-13.181.303-18.333 4.09-5.303 3.789-8.94 10.758-10.91 20.91-2.12 10.909-1.514 18.94 1.819 24.242 3.333 5.303 8.485 8.485 15.303 9.546 5 .909 9.697.151 13.94-2.273 4.09-2.273 7.727-6.364 10.454-12.424m35.91-4.849c2.272-8.636 5.605-15.454 10.15-20.757 3.182-3.788 7.122-6.97 11.667-9.546 4.546-2.576 9.243-4.242 14.091-5 6.364-.909 13.333-.454 20.91 1.212 13.636 3.03 23.484 9.243 29.696 18.788 6.06 9.546 7.273 21.212 3.637 34.849-3.637 13.636-10.606 23.485-20.91 29.242-10.151 5.91-22.12 7.273-35.757 4.243-13.788-3.03-23.636-9.243-29.848-18.788-6.061-9.394-7.273-20.91-3.637-34.243m19.394 3.637c-2.576 9.545-1.97 17.424 1.515 23.484 3.485 5.91 8.94 9.697 16.515 11.364 7.425 1.667 14.243.606 20.303-3.182 6.061-3.788 10.455-10.606 13.182-20.454 2.576-9.546 2.121-17.273-1.212-23.182-3.333-5.758-8.94-9.546-16.667-11.212-7.727-1.667-14.545-.758-20.606 3.03-6.06 3.788-10.303 10.455-13.03 20.152m73.94 61.97 28.333-82.88 18.182 5 18.484 65.758 18.182-55.303 18.182 4.849-28.788 82.878-18.485-5.151-18.485-64.394-18.484 53.94-17.122-4.698m92.273 26.364 33.333-81.364 60.607 20.455-4.546 13.788-43.94-14.546-7.575 19.394 37.879 12.424-6.06 13.788-37.88-12.424L1565 755.152l-18.182-6.061M1622.576 775l36.363-80.455 16.667 6.516-34.848 80.454-18.182-6.515m113.636 44.545-19.697-7.878 1.515-21.06-34.848-14.092-15.152 15.152-19.697-7.576 72.728-65.455 19.697 7.425-4.546 93.484M1719.545 775l1.516-34.242-25.758 24.545 24.242 9.697" fill="#00a3ce"></path></svg>