<svg xmlns="http://www.w3.org/2000/svg" height="700" width="1000" version="1" xmlns:cgf="https://coding.garden/flags"><metadata id="cgf-metadata">

<cgf:flag>
  <cgf:name></cgf:name>
  <cgf:route>br/se</cgf:route>
  <cgf:aspect-ratio>1.4285714285714286</cgf:aspect-ratio>
</cgf:flag>

</metadata><path fill="#00923f" d="M0 0h1000v175H0zm0 350h1000v175H0z"></path><path fill="#f8c300" d="M0 175h1000v175H0zm0 350h1000v175H0z"></path><path fill="#28166f" d="M0 0h350v350H0z"></path><path d="M222.023 239.721 175 205.557l-47.023 34.164 17.961-55.278-47.023-34.164h58.124L175 95l17.961 55.279h58.124l-47.023 34.164 17.96 55.278zM83.511 322.36 60 305.28l-23.511 17.08 8.98-27.64-23.511-17.082h29.061L60 250l8.98 27.64h29.062l-23.511 17.08 8.98 27.64zm230-230L290 75.28l-23.511 17.08 8.98-27.64-23.511-17.082h29.061L290 20l8.98 27.64h29.062l-23.511 17.08 8.98 27.64zm-230 0L60 75.28 36.489 92.36l8.98-27.64-23.511-17.08h29.061L60 20l8.98 27.64h29.062L74.531 64.72l8.98 27.64zm230 230L290 305.28l-23.511 17.082 8.98-27.64-23.511-17.082h29.061L290 250l8.98 27.64h29.062l-23.511 17.081 8.98 27.64z" fill="#fff"></path></svg>