<svg xmlns="http://www.w3.org/2000/svg" xmlns:xlink="http://www.w3.org/1999/xlink" width="780" height="520" viewBox="0 0 1950 1300"><defs><g id="c" transform="scale(75)"><g id="b"><path id="a" fill="#FFEC00" transform="rotate(18 3.157 -.5)" d="M0 0v1h.5z"/><use xlink:href="#a" transform="scale(-1 1)"/></g><use xlink:href="#b" transform="rotate(72)"/><use xlink:href="#b" transform="rotate(-72)"/><use xlink:href="#b" transform="rotate(144)"/><use xlink:href="#b" transform="rotate(-144)"/></g></defs><path fill="#FFF" d="M0 0h1950v1300H0z"/><path stroke="#212125" stroke-dasharray="100,100" stroke-width="1950" d="M975 0v1300"/><path fill="#C40008" d="M0 0h750v500H0z"/><use xlink:href="#c" x="100" y="100"/><use xlink:href="#c" x="100" y="400"/><use xlink:href="#c" x="650" y="100"/><use xlink:href="#c" x="650" y="400"/><circle fill="#FFF" cx="375" cy="250" r="200"/><path fill="#294292" d="M219.096 217.984c.464.928 1.392 1.392 2.088 2.088.464.696.928 1.624 1.392 2.552s1.392 1.624 1.392 2.552c0 .696-1.16 1.16-1.392 1.856 0 .464 0 .928.232 1.624l.696.696c.928 0 1.16-.928 1.856-1.392h1.16c.464.232.464 1.16.928 1.16.232.232.696-.696 1.16-.464.464 0 .928.232 1.16.696.696.928.464 2.088 1.16 3.016.464.696 1.392.928 2.32 1.16.696 0 1.624-.232 2.088-.696.696-.696.696-1.624 1.16-2.088s1.16-.232 1.624-.464.928-.696 1.624-.928c.232-.232.928-.928 1.16-.696.696.928.464 2.088.464 3.016.232 2.784-.696 5.8.232 8.352.232.928 1.624.696 2.552.464s1.624-1.16 2.552-1.16c1.16-.232 2.32 0 3.248 0 1.392.232 3.016.232 4.408.232 1.624.232 3.248.464 4.872 0 .696 0 1.392-.928 1.624-1.624.464-.464 0-1.392.464-1.856.232-.232 1.16-.232 1.624-.232s.696.696.928.464c.928-.232 1.624-.928 2.088-1.392.696-.696.928-1.856 1.624-2.32.464-.232.928.696 1.16.464.696-.464.928-1.392 1.392-2.088.696-.696 1.624-1.392 2.32-1.624 1.16-.464 2.552-.696 3.712-.928.696 0 1.16-.232 1.856-.232s1.392.232 2.088.232c.464 0 .928-.464 1.392-.464.232-.232.696-.696.928-.232.696.696.928 2.088.928 3.016s-.928 1.392-.928 2.088c-.232.928 0 1.856.232 2.552s.928.928 1.16 1.624.232 1.392 0 2.088c-.232.464-1.16.232-1.16.696 0 .928.464 1.624.696 2.32.464.928.464 1.856 1.16 2.784.696 1.16 1.624 2.32 2.784 3.016.928.696 2.088.696 3.016 1.16.464.464.232 1.624.928 2.088s1.624.464 2.32.232c.928 0 1.624-.232 2.32-.464.232 0 .464-.464.928-.464.928.232 2.088.928 3.016 1.392.696.464.928 1.392 1.624 1.856.696.232 1.392-.232 1.856.232.928.232 1.392 1.392 2.32 1.624.696.464 1.624.696 2.32.696.464.232 1.16-.232 1.624.232.928.696 1.392 2.088 2.552 2.784.696.464 1.856.696 3.016.464.464-.232.464-1.392 1.16-1.392.928-.232 1.624.464 2.552.696l2.088 1.392c.928.464 2.32.696 2.784 1.624.464.696-.464 1.856-.232 2.784.232 1.16 1.16 2.088 1.624 3.248.232.696 0 1.856 0 2.784 0 .232.232.464 0 .696-.696.232-1.392-.232-1.856 0-.232.232 0 .928.232 1.16.232.464.928.696 1.16 1.392.464.928.696 2.088.696 3.248.232.928 0 1.856.232 2.552.232.928.928 1.856 1.624 2.088 1.856.464 3.944 0 6.032 0 1.856.232 3.712.232 5.568.232.464.232 1.624-.464 1.624.232.232.696-1.16 1.16-1.392 2.088 0 .696.696 1.16.928 1.624.464.928.464 2.088.928 2.784s1.16.928 1.856 1.392c.696.696 1.16 1.392 1.856 2.088s1.392 1.624 1.856 2.552.464 1.856.464 3.016c0 .928-.232 1.856-.696 2.784-.232 1.16-.928 2.32-1.392 3.48-.232 1.392-.696 2.552-1.16 3.712-.232.696-.928 1.624-.696 2.32s1.16.696 1.624.928c.232.464.464.928.232 1.16-.232.464-.928 0-1.392.464s-.696 1.392-.464 2.088c0 .928.696 1.624.928 2.552.232.464.464.928.696 1.624.232.464.696.928.696 1.624.232.928.232 1.856 0 3.016 0 .464-.232.928-.464 1.624 0 .464.232 1.16.232 1.624 0 .696-.464 1.392-.464 2.088s0 1.624.696 2.088c.696.232 1.392-.696 2.088-.696s1.624.232 2.552.232c.696.232 1.624 0 2.32.232.696 0 1.16.464 1.624.464.464.232 1.16.464 1.624.464.464-.232.464-1.624 1.16-1.392.696 0 .696 1.16 1.392 1.624.928.464 2.32 0 3.248.464.696.696 1.16 2.088 1.392 3.016.696 1.856.696 3.48 1.16 5.336.232.928.232 2.32 1.16 3.016.464.464 1.624.464 2.552.696 1.16 0 2.32-.464 3.248-.232s2.32.696 2.552 1.624c.464 1.16-.928 2.32-.928 3.48 0 .928.696 1.624.464 2.552 0 .696-.696 1.392-.696 2.32-.232.464.696.696.464 1.16s-.928.232-1.16.696-.232 1.16 0 1.856c0 .696 0 1.392.696 1.624.928.232 2.32-.928 3.248-.464 1.16.696 1.624 2.32 2.088 3.48.464.696.696 1.624.696 2.32-.232.464-.928.696-.928 1.16-.232.696.232 1.392.232 2.32 0 .696-.232 1.392-.464 2.088-.464.928-.696 1.624-1.392 2.32-.464.464-.928.696-1.624.928s-1.624 0-2.552.232c-.928.464-1.624 1.392-2.32 1.856s-1.16 1.16-1.856 1.624c-.928.696-2.088 1.16-3.248 1.856-.464.464-.696 1.16-1.392 1.856-.464.696-1.16 1.392-1.624 2.088-.464.464-.696.928-1.16 1.392-.696.696-1.392.928-2.088 1.392-.464.696-.696 1.624-1.16 2.088-.464.696-1.16.928-1.624 1.624s-.464 1.856-1.16 2.552-1.856.464-2.32 1.16c-.696.464-.696 1.392-.928 2.088-.232.464-.696 1.16-.232 1.392.464.464 1.16-.464 1.624-.232.464 0 .696.696.928.696.464 0 .696-.464.928-.696s.232-.696.464-.928c.464-.232 1.16-.464 1.624-.464s.464.696.928.928c.232.232.696.232.928.464.464.464.232 1.16.696 1.624s1.392.464 1.624.696c.464.464.464 1.16.696 1.624.232.696.464 1.392.696 1.624s.696.232 1.16 0c.232 0 .696-.232 1.16-.464.232-.232.464-.232.464-.464.232-.232 0-.696 0-.928.232-.232.464-.232.696-.232.464 0 1.392 0 1.392.464.232.464-.696.928-.928 1.392 0 .464.232.928.464 1.16.696.928 1.624 1.856 2.784 2.32.696.464 1.856.464 2.552.928s1.392 1.16 1.856 1.624c.464.696.696 1.392 1.392 1.856.696.696 1.856.696 2.552 1.624.928.696.928 2.088 1.624 3.016 1.856 2.552 4.408 1.16 2.552 4.176 0 .232-.464.464-.696.696-.464.232-.696.232-.928.464-.232.464-.464.696-.464 1.16s-.232 1.16 0 1.856c0 .464.464.928.696 1.16.464.232.696.232 1.16 0 .232 0 .464-.464.696-.696.696-.232 1.392-.464 1.856-.696.696-.464 1.624-.928 2.088-1.624.464-.464.464-1.16.464-1.856.232-.464.232-.928.232-1.392.232-.464.464-.928.464-1.392.464-.928 1.16-1.856 1.16-2.784.232-.464-.464-.928-.464-1.624 0-.464.464-.696.464-.928.232-.696.232-1.392.696-2.088.464-.928 1.392-2.088 2.088-3.016.464-.464 1.16-.464 1.392-.696.464-.232.696-.464.928-.928s0-1.16.232-1.856.928-1.16 1.16-1.856c.232-.464.696-.696.696-1.392 0-.232-.464-.464-.464-.696-.464-.464-.696-.928-.928-1.624 0-.232-.232-.464 0-.696.696 0 1.392 0 1.856.464.696.696.464 1.624.928 2.32.464.464.928.696 1.16.696.464 0 .232-.464.232-.696.232-.232 0-.928.232-.696.464 0 .464.696.928.928.232 0 .464-.696.696-.464s.232.696 0 1.16c-.232.232-1.16 0-1.392.464-.232.232.232.928 0 1.392s-.696.696-1.16 1.392c-.232.232 0 .696-.464.928-.696.464-1.856 0-2.32.696s.464 1.856.232 2.552c-.232.464-1.16.232-1.624.464s-.696.696-.928.928c-.696.696-1.856 1.16-2.552 1.856-.232.464-.232 1.16 0 1.624.464.464 1.392.696 1.856.232.464 0 .464-.928.928-1.392s1.16-.928 1.624-1.392c.928-.464 1.624-.928 2.32-1.624.696-.464.928-1.16 1.392-1.624.696-.696 1.392-.696 1.856-1.16.696-.928 1.16-1.856 1.624-3.016.464-.464.928-1.16.928-1.856.464-.928.464-1.856.696-2.784 0-.232-.232-.696 0-.928.232-.464.928-.464 1.16-.928.232-.232.232-.696.464-.928.464-.696 1.16-.696 1.392-1.392.232-.464-.464-1.16-.464-1.624 0-.232 0-.696.232-.696.464 0 .928.464 1.624.464.464-.232.696-.928.928-1.16.464-.696.928-1.16 1.392-1.624.928-.464 1.856-.464 2.784-.928.464-.464.928-1.16 1.392-1.856.232-.464.696-.928.928-1.392.232-.928 0-1.856.232-2.552.232-1.16.928-2.088.928-3.248.232-.696-.464-.928-.464-1.624.232-.696 1.16-1.392 1.16-2.32 0-.464-.696-.928-.696-1.392-.232-.928-.232-1.856-.232-2.784s0-1.624.232-2.552c0-1.16.232-2.088.696-3.248.232-.696 1.392-.928 1.392-1.856 0-.464-.928-.696-1.392-1.16v-.696l.696-.696c.928 0 1.856 1.624 2.784 1.392 1.392-.232 1.16-2.32 1.856-3.248.928-.928 1.856-1.392 3.016-2.088 1.16-.928 2.552-1.624 3.944-2.552.696-.464 1.392-1.16 2.088-1.624.464-.464.928-.928 1.624-1.16.696-.464 1.624-.696 2.552-1.16.696-.464 1.392-1.392 2.32-1.392.928-.232 2.088.464 3.016.464s2.088 0 2.784-.464c.928-.464 1.16-1.624 1.856-2.088.696-.696 1.856-.696 2.552-1.392.464-.464.232-1.16.696-1.856.232-.464.464-.928.928-1.16.696 0 1.392.464 2.088.696.464 0 1.16.464 1.856.464.464 0 .928-.928 1.624-1.16.464 0 1.16 0 1.624.232s.464.928.928 1.392c.232.232.696.464 1.16.464 1.16-.232 2.552-.232 3.48-.928.464-.232.232-1.16.696-1.392.464 0 .696.928 1.16 1.16.696.232 1.856.232 2.552.464s.928 1.16 1.392.928c1.16-.232 2.32-.928 3.016-1.856.464-.696 0-1.856.464-2.32.464-.696 1.392-.696 1.856-1.16 1.624-.696 3.248-1.16 4.408-2.32.464-.232.232-.928.232-1.392s-.696-.464-.696-.696c0-.464.464-1.16.928-1.16s.928 1.16 1.16.696c.464-.464-.232-1.392 0-2.32 0-.232.232-.696.464-1.16.696-.928 1.392-1.856 2.32-2.784.696-.928 1.856-1.856 2.552-2.784.232-.464.232-1.16.696-1.624.928-1.16 2.088-2.552 3.016-3.712 1.16-1.16 2.32-2.088 3.016-3.248s.696-2.552.928-3.944c.232-.928 0-2.088.232-3.248s.464-2.32 1.16-3.248c.464-1.392 1.392-2.552 2.088-3.712.696-.696 1.624-1.392 1.856-2.32.464-.928 0-2.088.232-3.016.232-2.088.928-3.944 1.624-5.568.464-1.624 1.392-3.016 1.856-4.408.232-.464.696-.928.696-1.392 0-.928-.464-1.624-.464-2.552 0-.696.696-1.392.696-2.088-.232-1.16-1.16-2.088-1.16-3.248 0-.928.464-2.088.928-3.016.232-1.624 1.16-3.016 1.16-4.408s-1.392-2.32-1.392-3.712c0-1.16.928-2.32 1.392-3.48.232-.696.232-1.392.464-1.856.464-.464 1.392-.696 1.392-1.16 0-.696-.928-1.16-.928-1.856 0-.464.696-1.16 1.16-.928.928.464.464 2.088 1.392 2.552.696.464 1.856-.232 2.552-.696s1.16-1.392 1.856-1.856c1.16-1.16 2.552-1.624 3.48-2.784.928-.928 1.392-2.32 2.088-3.48v-.232c0-.696.232-1.624.464-2.32s.928-1.392 1.16-2.32c.232-.464-.232-.928 0-1.16.464-.232.928.696 1.16.464.696-.464.696-1.624 1.16-2.32.696-.696 1.624-1.392 2.552-2.088 1.392-1.392 2.784-2.784 4.408-3.944.696-.464 1.392-.928 2.088-1.624.464-.464.232-1.392.696-1.856.464-.232 1.16 0 1.624-.232.464-.464.928-.928 1.16-1.624.232-.232-.232-.928 0-1.392.928-1.16 2.32-1.856 3.248-3.016.928-.928 1.856-2.088 2.32-3.248.928-1.392 1.16-2.784 1.856-4.408s1.624-3.248 2.088-5.104c.232-1.856.232-3.712 0-5.336 0-2.32 0-4.408-.232-6.728-.232-1.16-.464-2.552-.696-3.944-.232-.928-.232-1.856-.464-3.016-.696-1.856-1.392-3.712-2.32-5.336-.464-.696-1.16-1.16-1.856-1.392-1.856-.696-3.712-.928-5.568-1.16-1.392-.232-2.784.464-4.176.232-1.624-.464-3.016-1.624-4.408-2.32-1.624-1.16-2.784-2.32-4.176-3.248a33.924 33.924 0 0 1-4.408-3.712c-1.392-1.16-2.552-2.552-3.944-3.944-1.16-.928-2.32-2.088-3.712-2.784-1.392-.928-3.248-.928-4.872-1.624-.928-.696-1.856-1.624-3.016-2.088-1.392-.464-2.784-.464-4.176-.696-1.392 0-3.016.232-4.408.464-.928.232-1.856 1.16-3.016 1.16-1.16-.232-2.088-1.392-3.248-1.856-.696-.232-1.624-.696-2.552-.696-.928-.232-2.088.464-3.016.232-.464-.232-.696-1.16-1.16-1.16-.928-.464-2.088 0-3.016-.232-.464-.232-.464-1.16-.928-1.392-1.16-.464-2.552-.464-3.712-.928-.232 0-.464-.696-.928-.696-.464.232-.232 1.392-.696 1.624-.696.232-1.392-.232-1.856-.696-.464-.232-.232-1.392-.696-1.16-.696.464-.464 1.624-.928 2.32a1.479 1.479 0 0 1-1.392 0c-.464 0-.928-.464-1.16-.696-.464-.232-.928-.464-1.392-.232-.464.696-.464 1.856-.696 2.784-.464.696-.696 1.392-1.392 2.088-.464.464-1.392.696-1.856 1.392-.464.928-.232 3.944-.696 3.016-.464-1.16 0-2.552.464-3.712 0-.464.464-1.16.696-1.856.232-.464 0-.928.232-1.392.232-.696.696-1.392 1.16-2.088.232-.464.696-.928 1.16-1.392.232-.232.928-.464.928-.696-.232-.464-.696-.928-1.16-.928-.464.232-.928 1.392-1.392.928-.464-.232.232-.928.464-1.392s.928-.696.928-1.16c0-.696-.464-1.16-.928-1.624-.232-.232-.928 0-1.16-.232-.464-.696-.696-1.624-1.16-2.088-.232-.232-.696 0-.928-.232-.464 0-.696-.696-1.16-.464-.696 0-1.16.464-1.392 1.16s.928 1.856.232 2.088c-.928.232-1.392-1.16-1.624-1.856s.928-1.16.928-1.856c-.232-.464-.696-.696-1.392-.696-.232-.232-.232.464-.464.464-.464-.232 0-1.16-.464-1.16-.696-.232-1.392.464-2.088.464s-1.392-.928-2.088-.928c-.232 0-.464.928-.696.696-.464-.464 0-1.624-.464-1.856-.696-.232-1.392 1.16-2.088.928s-.696-1.856-1.624-2.32c-1.16-.696-2.32-.696-3.712-.928-1.16-.464-2.32-1.16-3.48-1.392-.464 0 .696 1.16.232.928-.928 0-1.856-1.16-2.784-1.392-.696 0-.928.928-1.16.928-.696.464-1.392.232-1.856.696-.696.232-.928.928-1.392 1.392l-2.088 2.088c-.464.464-1.392.928-1.392 1.392 0 1.16 2.088 1.856 1.392 2.552-.464.696-1.624-.928-2.32-.928-.928.232-1.392 1.392-2.088 1.856-.464.232-.696 0-.928 0-.928 0-1.856-.232-2.784.232-.928.232-1.624 1.392-2.552 1.856-.696.232-1.392 0-2.088 0-.928 0-1.856-.696-2.784-.464-.696.464-.464 2.32-1.392 2.088-1.392 0-1.624-2.32-2.784-2.552-.696-.232-.696 1.624-1.392 1.856s-1.16-.696-1.16-1.392c.232-.696 1.624-.696 2.088-1.624.232-.696.232-1.856 0-2.552s-.464-1.624-1.16-1.624c-1.856 0-3.48 1.16-5.336 1.856-1.624.464-3.48 1.392-5.104 1.624-1.16.232-2.32.696-3.248 0-.464-.232.696-1.16 1.16-1.392 1.16-.464 2.784.232 3.944-.464.928-.928.928-2.32 1.392-3.712 0-.232 0-.696.232-.928.928-1.624 1.856-3.48 3.016-4.872 1.392-1.856 2.784-3.248 4.408-4.872.696-.696 1.856-1.16 2.552-2.088 1.392-1.16 2.32-2.552 3.248-3.944.928-1.16 2.088-2.552 2.32-4.176 0-.928-.696-1.856-1.392-2.32-1.392-.696-3.016.232-4.176-.464-.928-.464-1.16-1.624-1.392-2.552-.232-.464.232-.928.232-1.624-.232-.928-.696-1.856-1.16-2.784-.696-1.392-1.392-2.552-1.856-4.176-.232-1.392-.232-2.784-.464-4.176-.232-.928 0-2.088-.464-3.016-.696-1.392-1.624-3.48-3.248-3.712-.928 0 1.16 2.32.696 3.248-.464.696-1.16-1.624-1.856-1.392-1.624 1.16-2.552 3.248-3.712 4.872l-3.48 6.264c-.464 1.16-.928 2.088-1.392 3.016s-.464 2.088-1.16 2.552c-.928.696-2.32 1.16-3.48.928s-1.392-1.624-2.32-1.856c-.464-.232-.928.696-1.392.696s-.928-.928-1.392-.928c-1.392.232-2.088 1.856-3.248 1.856-1.16.232-1.856-.928-3.016-1.392-.232 0-.696.696-.928.464-1.16-.696-1.856-2.784-3.248-2.784-1.856-.232-3.712 1.856-5.568 2.088-.928 0-1.624-1.624-2.32-1.392a2.98 2.98 0 0 0-2.32 2.32c0 1.16 1.624 2.088 1.624 3.248 0 .464-.928.928-1.392.696-1.16-.464-1.856-2.088-3.016-2.32-.464-.232.464 1.16 0 1.624s-1.624.928-2.552.928c-.696 0-1.392-.928-2.32-.928-1.16-.232-2.784-.464-3.944.232-.464.232.696 1.392 0 1.624-1.16.696-3.016 0-4.408.464-.464 0 .464.928 0 1.16-.696.232-1.392-.696-1.856-.464-1.392.696-1.624 2.552-3.016 3.016-.928.464-2.32-.232-3.248-.696-1.392-.696-2.784-1.624-3.712-2.784-.696-.696-.928-1.624-1.16-2.552 0-.928.928-1.856.696-2.784-.232-.696-1.624-.928-1.856-1.624-.464-1.16-.696-2.784-.696-3.944.232-.696 1.16-.928 1.392-1.392.464-.696-.232-1.392.232-2.088.696-.928 2.32-.928 2.552-1.856.464-1.392-.464-2.552-.696-3.944-.232-.928-.696-1.856-.928-2.552-.464-.464-.696-1.16-1.16-1.392s-1.392.232-1.856-.232c-.928-.928-1.392-2.088-1.392-3.248-.232-.928.928-1.624.696-2.552-.232-.464-1.16-.928-1.856-.928-.696.232-.928 1.16-1.624 1.624a1.479 1.479 0 0 1-1.392 0c-.696-.232-1.16-1.624-1.392-1.16-.464.696.696 1.392.696 2.088.232.696.232 1.392-.232 1.856-.696.928-1.624 1.624-2.784 2.088-1.16.696-2.784.696-3.944 1.392-.696.464-.696 1.624-1.392 2.088-.928.464-2.32.464-3.248.696-1.392.232-2.552-.464-3.712 0s-2.088 1.16-2.784 2.088c-.232.696.464 1.392.232 2.088-.232.464-.928.232-1.16 0-.696-.464-.928-1.624-1.624-1.856-.696-.464-1.624 0-2.32-.232-1.392-.232-2.784-.696-3.944-1.392-.928-.464-1.16-2.32-2.32-2.32s-2.32 1.392-3.016 2.552c-.464.696-.232 2.088.464 2.552.928.696 2.552-.464 3.48.464.696.464.464 1.624.232 2.552-.232.696-.696 1.16-1.16 1.856-.232.696-.696 1.392-.696 2.32 0 1.16.232 2.088.464 3.248.232.696.464 1.16.928 1.624.232.464.928.464 1.392.464.464.232 1.16.928 1.856.696.464 0 .928-.928 1.392-.928.928.232 2.088 1.392 1.392 1.856-1.16 1.16-3.248 0-4.408 1.16-1.624 1.16-1.16 4.176-2.784 5.336-.696.696-.696-1.856-1.624-1.856s-1.16 1.624-1.856 2.32c-1.624 1.392-3.248 2.32-4.64 3.48-.696.696-.928 2.552-1.856 2.32-1.16 0-.464-2.088-1.392-2.784-.696-.464-1.624-.696-2.32 0s0 3.016-1.16 3.016c-1.624.232-2.552-1.624-3.944-2.552-1.16-.696-2.552-1.16-3.248-2.32-.464-.464.232-1.392 0-2.088-.928-1.856-1.624-4.408-3.48-5.104-1.392-.464-1.624 2.784-3.016 3.016-.928.232-1.16-1.624-2.088-2.088-.696-.232-1.624-.232-1.856.464s1.624 2.088.696 2.32c-3.016 1.16-6.264.464-9.512.464-1.16 0-3.016-.928-3.48.232-.696 1.856-.232 4.176.696 6.264.232.696 1.624 0 2.32 0 .696-.232 1.392-.696 1.856-.232.696.464.464 1.624.464 2.32-.232.696-.696 1.624-1.392 1.624s-1.16-1.624-2.088-1.624c-1.16.232-2.784.928-3.248 2.088-.696 1.856-.232 3.944 0 5.8.232.696.696 1.16 1.392 1.856.464.232 1.392.232 1.624.928.696.696.464 1.624.928 2.552.232.696.928 1.16.928 1.856 0 1.16-.696 2.088-.696 3.248 0 .928.464 2.088.232 3.016-.696 5.104-1.624 10.44-2.784 15.544-.464 2.088-.464 4.64-1.856 6.032-.696.696-1.856-1.856-2.784-1.624-1.392.232-1.856 2.088-3.248 2.32-.696.232-1.392-1.16-2.088-.928-.696 0-.928.928-1.624 1.16-.696.464-1.624-.232-2.32 0-1.392.696-2.32 1.856-3.48 2.784s-2.552 1.392-3.48 2.552c-1.16 1.16-1.856 2.784-2.32 4.176-.464 1.16-.696 2.32-.928 3.48 0 .928.232 1.856 0 2.784-.232 1.16-.232 2.552-1.16 3.48-.464.928-2.088.464-2.552 1.392-.696 1.16-.464 2.552-.464 3.712 0 .696.464 1.624 0 2.088-.464.696-1.624.232-1.856.928-.232.464.232 1.16.464 1.624.464.464 1.16.464 1.624.928s.232 1.392.464 1.856c.232.696.464 1.392.928 1.856zm178.64-67.976c.696-1.16 1.392-2.552 2.32-3.712.696-.696 1.856-2.784 2.552-2.088.928 1.16-.232 3.016-.696 4.176-.464 1.392-1.392 2.784-2.552 3.712-.928.928-2.552 3.248-3.48 2.088-1.16-1.16 1.16-2.784 1.856-4.176zm7.656-3.248c-.232.928.696 1.856.696 2.784-.232.928-1.392 1.392-1.392 2.088-.232 1.16 0 2.552.696 3.48.464.464 1.624 0 2.088.464s-.464 1.392 0 1.624c1.16.464 2.32 0 3.248.232.696 0 1.16.696 1.856.464.464 0 .232-.928.696-1.392.928-.464 1.856-.232 2.552-.696.928-.232 1.392-1.16 2.32-1.16.464 0 .696.928 1.392.928.464 0 1.16-.464 1.392-1.16 0-.696-1.16-1.856-.696-2.552.696-1.16 2.552-1.16 3.48-2.32s3.016-2.784 2.088-4.176c-1.16-1.624-4.176-2.088-6.032-1.16-1.392.928 0 3.712-1.16 5.104-.464.696-.928-1.624-.928-2.552 0-.464 1.16-.232 1.16-.696 0-.696-.464-1.392-.928-1.624-1.624-.696-3.248-.464-4.872-.464a14.046 14.046 0 0 0-4.408 0c-.696.232-1.16.928-1.856 1.392-.464.464-1.392.696-1.392 1.392zm4.408-4.176c1.392-.232 2.784.232 3.712-.464.696-.464 1.392-1.856.928-2.32-1.16-.928-3.016.232-4.176-.464-.464-.464 1.392-2.088.696-2.088-1.392 0-2.552.928-3.48 1.856-.696.464-1.392 1.16-1.392 2.088-.232.696 0 1.624.696 1.856.464.232.464-.928.696-1.392.464-.464.464-1.16 1.16-1.392.232-.232.928.232.696.696 0 .696-1.392 1.16-1.16 1.624 0 .696 1.16 0 1.624 0zm-6.264-.232c-.928.232-.464 2.32 0 3.016s1.856.232 1.856-.232c0-1.16-.696-3.016-1.856-2.784z"/></svg>