<svg xmlns="http://www.w3.org/2000/svg" height="1400" width="2000" xmlns:cgf="https://coding.garden/flags"><metadata id="cgf-metadata">

<cgf:flag>
  <cgf:name></cgf:name>
  <cgf:route>br/to</cgf:route>
  <cgf:aspect-ratio>1.4285714285714286</cgf:aspect-ratio>
</cgf:flag>

</metadata><path fill="#fff" d="M0 0h2000v1400H0z"></path><path fill="#1946b4" d="M1300 0H0v900z"></path><path fill="#ff9600" d="M700 1400h1300V500zm700-700-242.43 27.784 63.242 36.577-72.991-3.132 53.826 49.398-70.583-18.855 151.779 191.07-191.07-151.778 18.854 70.583-49.398-53.826 3.132 72.99-36.577-63.242L1000 1100l-27.784-242.43-36.577 63.241 3.132-72.99-49.398 53.826 18.855-70.583-191.07 151.779 151.778-191.07-70.583 18.854 53.826-49.398-72.99 3.132 63.242-36.577L600 700l242.43-27.784-63.241-36.577 72.99 3.132-53.826-49.398 70.583 18.855-151.779-191.07 191.07 151.778-18.854-70.583 49.398 53.826-3.132-72.99 36.577 63.242L1000 300l27.784 242.43 36.577-63.241-3.132 72.99 49.398-53.826-18.855 70.583 191.07-151.779-151.778 191.07 70.583-18.854-53.826 49.398 72.99-3.132-63.242 36.577z"></path></svg>