<svg xmlns="http://www.w3.org/2000/svg" width="1000" height="600" shape-rendering="geometricPrecision" text-rendering="geometricPrecision" image-rendering="optimizeQuality" fill-rule="evenodd" clip-rule="evenodd"><path d="M134.402.005.001.208l.514 285.87s-1.954-.515 3.492-1.034c5.344-.518-2.567.623-2.158.623.411 0 10.995-2.176 16.955-3.21 5.856-.932 18.907-3.624 25.073-4.656 6.268-1.037 20.652-4.039 26.408-4.45 5.753-.52 16.542-1.763 21.886-2.073 5.443-.415 18.29-1.346 23.324-1.448 4.355-.18 15.466-.054 18.392-.014v.014s.12-.007.347-.009h.02c.23.002.354.01.354.01v-.015c2.926-.04 13.941-.167 18.29.014 5.138.102 17.879 1.033 23.325 1.448 5.446.31 16.236 1.552 21.988 2.072 5.757.412 20.04 3.414 26.306 4.45 6.165 1.033 19.214 3.725 25.176 4.656 5.856 1.035 18.186 3.415 23.22 4.245 5.037.724 14.285 1.758 19.319 2.483 4.83.725 16.852 2.484 22.194 3.002 5.447.414 17.571 2.485 22.605 2.898 4.176.169 15.08.47 19.011.577v.354s15.516-.311 20.55-.62c5.242-.311 17.572-2.382 22.913-2.9 5.344-.411 17.572-2.378 22.607-3 4.83-.62 14.282-1.657 19.318-2.588 5.24-.724 17.674-3.105 23.53-4.14 6.165-1.035 19.215-3.624 25.484-4.658 6.371-1.035 20.857-4.036 26.716-4.555 5.753-.516 16.646-1.654 22.092-2.069 5.548-.207 18.494-1.242 23.53-1.449 4.584-.18 15.93-.048 18.7-.01v.114s13.977-.208 19.114 0c5.034.207 17.878 1.138 23.222 1.448 5.445.312 16.234 1.554 21.989 2.07 5.652.415 20.036 3.416 26.202 4.45 6.267 1.035 19.319 3.727 25.176 4.66 5.958 1.034 18.29 3.415 23.325 4.243 5.034.827 14.282 1.864 19.318 2.484 4.828.726 16.85 2.589 22.192 3.105 5.447.517 17.571 2.484 22.606 2.795 5.037.309 20.449.62 20.449.62v-.385c3.271.12 15.39.535 19.729.178 5.034-.312 17.262-2.278 22.605-2.795 5.447-.413 17.366-2.38 22.3-3 4.828-.621 14.18-1.657 19.213-2.588 5.035-.724 17.365-3.105 23.327-4.142 5.856-1.032 18.905-3.621 25.174-4.656 6.267-1.034 20.551-4.037 26.305-4.554 5.753-.519 16.542-1.656 21.885-1.965 5.446-.312 14.385-2.485 14.385-2.485V.209H804.46v.206C792.05.408 594.56.322 582.1.316V.209L357.48.41V.209S147.64.019 134.527.005c.045 0 .08-.003.08-.003h-.205v.003zM.001.208 134.047.005.001.208zM134.047.005h.047V0h-.206s.04.004.159.004z" fill="#0f37a8"/><path d="M999.948 269.632v51.327H.052l.462-34.88s-1.951-.516 3.492-1.035c5.345-.518-2.566.623-2.158.623.411 0 10.997-2.176 16.956-3.21 5.855-.932 18.906-3.624 25.073-4.658 6.268-1.035 20.653-4.037 26.408-4.449 5.753-.52 16.543-1.762 21.886-2.072 5.444-.415 18.29-1.346 23.324-1.448 4.355-.18 15.466-.054 18.392-.014v.014s.12-.007.348-.009h.019c.23.002.355.01.355.01v-.015c2.927-.04 13.94-.167 18.29.014 5.137.102 17.878 1.033 23.325 1.448 5.445.31 16.236 1.552 21.988 2.072 5.755.412 20.04 3.414 26.305 4.45 6.164 1.033 19.214 3.725 25.175 4.656 5.857 1.035 18.186 3.415 23.222 4.245 5.036.724 14.283 1.758 19.318 2.483 4.83.725 16.852 2.484 22.194 3.002 5.447.414 17.571 2.485 22.605 2.898 4.177.167 15.08.47 19.012.577v.355s15.515-.312 20.55-.62c5.242-.312 17.573-2.384 22.913-2.9 5.343-.412 17.57-2.38 22.606-3.001 4.83-.622 14.282-1.657 19.318-2.588 5.24-.724 17.674-3.105 23.531-4.14 6.164-1.035 19.214-3.624 25.484-4.658 6.37-1.035 20.857-4.036 26.715-4.555 5.754-.516 16.647-1.654 22.094-2.069 5.546-.206 18.493-1.242 23.529-1.449 4.583-.18 15.93-.048 18.7-.01v.114s13.977-.208 19.114 0c5.034.207 17.877 1.139 23.22 1.448 5.446.312 16.235 1.554 21.99 2.07 5.652.415 20.035 3.416 26.203 4.45 6.267 1.035 19.318 3.727 25.175 4.66 5.959 1.034 18.29 3.415 23.326 4.243 5.033.827 14.282 1.862 19.318 2.484 4.827.725 16.85 2.589 22.193 3.105 5.446.516 17.57 2.484 22.605 2.795 5.037.309 20.448.62 20.448.62v-.385c3.27.121 15.39.536 19.73.178 5.033-.312 17.26-2.278 22.604-2.796 5.448-.412 17.366-2.379 22.3-3 4.828-.62 14.18-1.656 19.214-2.587 5.035-.724 17.366-3.105 23.327-4.142 5.855-1.032 18.904-3.621 25.174-4.656 6.268-1.034 20.55-4.037 26.304-4.554 5.753-.519 16.542-1.656 21.887-1.967 5.209-.297 13.613-2.3 14.333-2.474z" fill="#fefefe"/><path fill="#089e5f" d="M.001 320.959h999.28v279.04H.001z"/><path d="m434.443 490.494-3.595 31.982-29.902 5.485 27.333 14.387-4.316 31.258 20.139-22.667 27.539 13.352-13.975-28.463 20.14-22.563-28.464 5.796zm-74.599.622-15.413 27.117-29.49-7.452L334.566 535l-15.617 26.186 26.921-11.903 20.242 23.495-2.055-31.464 26.921-11.799-28.256-6.625zm-67.817-28.153-23.633 19.251-24.867-17.285 9.967 28.981-23.531 18.112 29.286-1.138 10.892 28.566 8.733-29.394 29.183-1.139-24.148-16.043zm-52.919-49.474-28.667 10.039-17.572-24.839-.513 30.636-28.258 8.901 27.949 9.109.514 30.428 18.291-24.529 27.743 9.005-17.161-23.392zm-30.825-63.447-30.416-.828-7.809-29.498-10.994 28.67-29.697-1.551 23.121 18.216-10.173 28.773 25.585-16.561 22.914 18.216-7.912-28.048zM504.11 465.861l7.501 29.601-26.1 15.732 30.416 2.899 6.679 29.187 11.098-27.428 30.312 1.863-22.915-20.182 11.201-27.221-24.661 15.421zm55.898-51.647 17.058 25.357-19.216 23.703 29.491-7.66 16.029 25.151 1.336-29.497 29.08-8.592-28.258-11.178 1.336-29.394-17.981 22.873zm30.93-64.689 25.174 17.078-9.043 29.187 24.559-18.216 24.249 17.388-9.762-27.842 23.84-18.94-30.415.206-9.659-27.842-8.22 28.049zM437.012 106.09l-4.008-30.326-30.003-4.658 27.025-14.18-4.624-29.601 20.55 21.218 27.23-13.145-13.564 27.324 20.346 21.011-28.464-4.968zm-75.113 1.242-13.974-27.221-29.696 5.693 20.756-22.46-14.283-26.29 26.305 13.041 21.374-21.734-3.7 30.324 26.305 12.938-28.565 5.072zm-66.995 26.393-22.298-20.701-26.099 15.422 12.022-28.255-22.195-19.77 29.183 3.21 12.843-27.532 6.679 29.705 28.977 3.311-25.175 14.284zm-51.891 47.507-28.257-10.971-18.496 24.219.617-30.74-27.95-9.833 28.258-8.177 1.542-30.326 17.365 25.048 28.051-7.866-17.879 22.666zm-34.216 62.721h-30.313l-8.735 29.396-10.171-28.981-29.697.621 23.531-17.596-9.248-28.979 24.969 17.284 23.531-17.595-8.734 27.738zm295.519-110.125 7.398-29.602-26.1-15.628 30.416-3.001 6.474-29.187 11.303 27.323 30.209-1.966-22.709 20.286 11.2 27.117-24.66-15.214zm53.123 49.06 17.263-25.254-19.009-23.806 29.491 7.969 16.337-25.046.924 29.497 28.978 8.902-28.258 10.971 1.027 29.394-17.878-22.977zm33.602 63.343 24.66-17.802-9.865-28.877 25.073 17.491 23.735-18.112-8.94 28.255 24.251 18.114-30.312.724-8.837 27.945-9.043-27.635z" style="fill:#fefefe"/></svg>