<svg xmlns="http://www.w3.org/2000/svg" width="800" height="480" version="1" xmlns:cgf="https://coding.garden/flags"><metadata id="cgf-metadata">

<cgf:flag>
  <cgf:name>Richmond</cgf:name>
  <cgf:route>us/va/richmond</cgf:route>
  <cgf:aspect-ratio>1.6666666666666667</cgf:aspect-ratio>
</cgf:flag>

</metadata><path fill="#002673" d="M0 0h800v480H0z"></path><path d="M303.406 85.5c-2.666-.21-6.406 3.347-4.625 5.531l26.002 31.879c1.16 1.422 2.217 3.036 2.219 5.312.003 3.323 3.695 7.796 8.687 9.656.877.327 1.911.696 2.813 1.782l2.906 3.5c7.421 8.937 9.76 17.211 19.303 25.927 2.105 1.922 5.06 3.963 6.883 6.194l18.687 22.875c6.556 8.025 5.108 14.717.281 19.656L366.5 238.345c-2.964 3.033-5.19 7.274-4.938 11.562l.256 4.33c.264 4.458-.658 7.625-1.818 7.045-6.216-3.11-10.375-1.846-14.5 2.531l-16.375 17.375c-4.016 4.262-2.64 8.927-.25 13.032l14.719 25.281c1.449 2.489-1.212 8.5-6.594 8.5h-14.25c-3.132 0-5.992-2.51-8.375-5.125l-5.125-5.625-5.25 5.875c-2.294 2.567-4.876 4.875-9 4.875h-6.125c-2.684 0-7.106-4.587-8.5-6.75-1.56 2.413-5.178 6.75-9 6.75H0v152h800V328H594.25c-5.131 0-9.044-3.896-14.375-9.125-6.14 5.217-8.1 9.125-15.36 9.125-10.196 0-13.519-7.294-16.624-10.75-8.72 8.154-22.417 11.515-37.875 10.75l-7.751-.011-63.593-78.333c-2.65-3.264-5.734-6.218-1.672-12.375l15.031-22.781c3.343-5.067 2.26-10.275-2.031-16.563l-17.063-25c-3.063-4.488-6.915-6.252-11.343-7.125l-8.406-1.656c-1.813-.357-3.006-1.825-3.438-3.562-1.199-4.825 3.944-9.633 3.688-17.063-.263-7.602-4.02-12.466-10.313-12.75-7.172-.323-11.512 4.676-12.25 9.313-1.362 8.553 3.222 12.714 2.188 16.687-.375 1.44-1.785 4.633-4.844 3.813l-15.995-4.29c-2.181-.586-4.127-2.33-5.719-3.938-6.125-6.185-13.717-4.965-20.268-18.908-2.855-6.077-4.46-8.887-8.437-10.625-2-.874-3.447-.578-4.531-1.906L305 86.312c-.42-.513-.978-.763-1.594-.812zm128.219 113.813c.844-.077 1.703.192 2.313.906l3.656 4.281c1.476 1.729 1.078 3.905 0 5.906l-5.875 10.906c-.95 1.764-6.26 1.345-5.531-3.437l2.468-16.188c.185-1.208 1.563-2.247 2.969-2.375zm-27.75 46.093c3.096-.097 5.45 1.55 5.938 4.281l4.218 23.594c.431 2.41.38 4.196.406 6.094.042 3.084-2.914 5.934-6.03 4.5l-23.438-10.781c-3.922-1.804-3.635-6.186-3.607-7.969l.075-4.781c.059-3.693 1.636-7.582 5.125-8.906l14-5.313c1.151-.437 2.28-.686 3.313-.719zm33.875 17.063c.651-.002 1.342.334 1.938 1.062l52.696 64.458L480.5 328c-3.026.003-3.127-3.354-3-6 .23-4.77-2.191-6.63-6.25-8.5L441 299.562c-3.047-1.404-4.92-4.286-5.222-7.452l-.684-7.173c-.194-2.026-.464-4.364-.25-7.78l.75-11.97c.11-1.757 1.07-2.715 2.156-2.718z" fill="#fff" fill-rule="evenodd"></path><path d="m506.735 345.492 21.515 26.383c2.214 2.715 8.323-1.902 5.938-4.813l-17.686-21.57H800v58.504H0v-58.504h506.735z" fill="#c70f2e" fill-rule="evenodd"></path><path fill="#c70f2e" d="M0 421.5h800V480H0z"></path><path d="m400 39.284 3.803 11.702h12.303l-9.953 7.233 3.801 11.702L400 62.689l-9.954 7.232 3.801-11.702-9.953-7.233h12.303L400 39.284zM257.662 121.72l12.036 2.557 6.152-10.655 1.287 12.236 12.035 2.559-11.24 5.005 1.285 12.236-8.233-9.143-11.24 5.004 6.151-10.656-8.233-9.143zm-22.453 82.356 11.701-3.803V187.97l7.233 9.954 11.702-3.802-7.232 9.955 7.232 9.954-11.702-3.802-7.232 9.954v-12.304l-11.702-3.802zm22.453 82.356 8.233-9.144-6.151-10.656 11.24 5.004 8.233-9.143-1.285 12.237 11.24 5.004-12.035 2.559-1.287 12.236-6.152-10.655-12.036 2.558zM482.356 61.738l-2.558 12.035 10.656 6.153-12.237 1.286-2.558 12.035-5.005-11.24-12.237 1.286 9.144-8.233-5.004-11.24 10.655 6.15 9.144-8.232zm59.982 59.982-8.233 9.143 6.152 10.656-11.24-5.004-8.234 9.143 1.285-12.236-11.24-5.005 12.035-2.559 1.287-12.236 6.152 10.655 12.036-2.557zM317.644 61.738l9.144 8.233 10.655-6.152-5.004 11.24 9.144 8.234-12.237-1.286-5.005 11.24-2.558-12.035-12.237-1.286 10.656-6.153-2.558-12.035zm247.147 142.338-11.701 3.802v12.304l-7.233-9.954-11.702 3.802 7.232-9.954-7.232-9.955 11.702 3.802 7.232-9.954v12.304l11.702 3.803zm-22.453 82.356-12.036-2.558-6.152 10.655-1.287-12.236-12.035-2.559 11.24-5.004-1.285-12.237 8.233 9.143 11.24-5.004-6.151 10.656 8.233 9.144z" fill="#fff"></path></svg>