<svg xmlns="http://www.w3.org/2000/svg" viewBox="0 0 1000 666.667" height="711.111" width="1066.667" xmlns:cgf="https://coding.garden/flags"><metadata id="cgf-metadata">

<cgf:flag>
  <cgf:name></cgf:name>
  <cgf:route>dk/81</cgf:route>
  <cgf:aspect-ratio>1.49929676511955</cgf:aspect-ratio>
</cgf:flag>

</metadata><defs><clipPath id="c"><path d="M0 0h841.89v595.276H0V0z"></path></clipPath><clipPath id="b"><path d="M0 0h841.89v595.276H0V0z"></path></clipPath><clipPath id="a"><path d="M0 0h841.89v595.276H0V0z"></path></clipPath></defs><path style="isolation:auto;mix-blend-mode:normal" color="#000" overflow="visible" fill="#84092b" fill-opacity=".988" d="M0 0h1000v666.667H0z"></path><g fill="#fff"><path d="M147.03 457.147c-3.118 0-4.493.374-7.526 1.467-3.025 1.1-5.592 3.95-5.592 3.95l-.459-4.768h-12.659v4.859s1.375.091 2.75.458c1.376.374 3.301.91 3.301.91v27.892l-5.317 2.744v3.59h18.526v-3.492l-4.859-2.567s.12-19.323.12-22.42c0-3.088 1.686-4.28 2.624-4.964 1.41-1.037 3.857-2.06 7.715-2.06.317 0 .628.022.931.064a24.505 24.505 0 0 1 9.062-3.604c-2.517-1.573-5.994-2.06-8.618-2.06"></path><path d="M159.967 423.413c-33.069 0-59.967 26.898-59.967 59.974 0 33.062 26.898 59.967 59.967 59.967 33.076 0 59.974-26.905 59.974-59.967 0-33.076-26.898-59.974-59.974-59.974m0 115.448c-30.594 0-55.482-24.888-55.482-55.474 0-30.594 24.888-55.489 55.482-55.489 30.6 0 55.489 24.895 55.489 55.489 0 30.586-24.888 55.474-55.489 55.474m65.017 40.556h-5.056V538.33c1.431 0 7.778-.198 11.086-.198 6.347 0 10.043.452 12.575 3.04 2.136 2.087 3.173 5.317 3.173 8.04 0 7.715-6.481 10.374-8.752 11.276 3.822 6.813 7.906 11.863 9.845 13.936.459.388 2.278 2.271 5.706 2.856l-.642 2.003c-.134.452-.585.452-1.037.452-6.22 0-9.14-1.037-19.055-18.076-1.425.198-3.174.452-7.843.261v17.497zm0-20.931c1.037.127 2.525.197 4.337.197 5.128 0 11.863-.72 11.863-8.886 0-8.096-6.22-8.294-10.494-8.294-.974 0-3.83.07-5.706.198v16.785zm40.376 17.238h21.58v3.695h-26.636v-41.087h26.44v3.625H265.36v13.801h18.992v3.625H265.36v16.34z"></path><g clip-path="url(#a)" transform="matrix(7.05245 0 0 -7.05245 -1999.077 719.108)"><path d="M330.375 22.693v-2.739c-.698-.137-1.516-.248-2.14-.248-1.389 0-2.16.405-2.657 1.03-.505.635-.597 1.351-.597 1.801 0 1.314.81 3.207 3.575 3.207.744 0 1.452-.156 1.516-.184.046-.019.11-.045.11-.11l.028-.45c0-.092-.129-.156-.129-.156-.027 0-.22.091-.266.11a3.993 3.993 0 0 1-1.47.303c-1.48 0-2.546-.938-2.546-2.564 0-1.379.845-2.509 2.62-2.509.578 0 1.001.102 1.23.156v2.353h.726z"></path></g><path d="M342.286 579.42h5.05v-41.095h-5.05v41.095z"></path><g clip-path="url(#b)" transform="matrix(7.05245 0 0 -7.05245 -1999.077 719.108)"><path d="M340.338 22.795c0-1.618-1.158-3.144-3.152-3.144-1.811 0-3.023 1.47-3.023 3.042 0 1.334.983 3.097 3.244 3.097 1.828 0 2.93-1.443 2.93-2.995m-4.456 2.03c-.551-.423-.9-1.148-.9-1.985 0-1.405.982-2.656 2.352-2.656 1.406 0 2.187 1.268 2.187 2.445 0 1.112-.7 2.628-2.17 2.628-.44 0-.963-.045-1.47-.431"></path></g><path d="m445.858 579.218-2.271.782-29.613-34.218.973 33.633h-4.535v-41.087h3.759l28.125 32.666-.973-32.666h4.535v40.89zm64.551 0-2.271.782-29.62-34.218.973 33.633h-4.535v-41.087h3.759l28.125 32.666-.966-32.666h4.535v40.89z"></path><g clip-path="url(#c)" transform="matrix(7.05245 0 0 -7.05245 -1999.077 719.108)"><path d="M363.362 22.795c0-1.618-1.157-3.144-3.152-3.144-1.811 0-3.023 1.47-3.023 3.042 0 1.334.983 3.097 3.243 3.097 1.83 0 2.932-1.443 2.932-2.995m-4.457 2.03c-.552-.423-.9-1.148-.9-1.985 0-1.405.983-2.656 2.352-2.656 1.406 0 2.187 1.268 2.187 2.445 0 1.112-.698 2.628-2.168 2.628-.442 0-.965-.045-1.471-.431m6.499-5.019h-.717v5.826c.203 0 1.103.028 1.572.028.901 0 1.424-.064 1.783-.43.303-.297.45-.755.45-1.14 0-1.095-.919-1.472-1.24-1.6.542-.966 1.121-1.682 1.396-1.976.064-.055.322-.322.81-.405l-.093-.284c-.018-.064-.083-.064-.147-.064-.882 0-1.295.147-2.702 2.563-.202-.028-.45-.064-1.112-.037v-2.48zm0 2.968c.147-.018.36-.028.616-.028.726 0 1.682.102 1.682 1.26 0 1.148-.882 1.176-1.489 1.176-.138 0-.542-.01-.809-.028v-2.38zm5.009 2.859c.376 0 1.01.047 2.04.047.882 0 1.636 0 2.279-.561.588-.505.909-1.37.909-2.28 0-1.231-.624-2.002-.992-2.324-.8-.708-2.04-.708-2.51-.708h-1.726v5.826zm.717-5.366h1.057c.79 0 1.497.184 1.865.504.524.46.772 1.315.772 2.033 0 .42-.083 1.11-.533 1.699-.542.717-1.36.717-1.94.717-.366 0-.477 0-1.221-.037v-4.916zm6.744 5.366v-4.962c0-.891 0-1.461-.606-2.068-.294-.294-.69-.533-1.204-.533-.45 0-.745.193-.745.349 0 .11 0 .11.055.156l.24.239c.027.029.036.029.147.029.018 0 .027-.01.12-.055a.945.945 0 0 1 .458-.121c.818 0 .818.718.818 2.04v4.926h.717z"></path></g><path d="m676.882 538.329 11.601 19.634 12.243-19.634h5.705l-16.199 23.012v18.075h-5.12v-17.828l-14.063-23.26h5.833zm38.558 0v37.329h20.677v3.758h-25.734V538.33h5.057zm31.947 0v37.329h20.678v3.758H742.33V538.33h5.056zm27.271 41.088h-5.191l19.056-41.087h4.02l15.875 41.087h-5.508l-4.86-13.287h-17.884l-5.508 13.287zm22.165-16.524-7.193-19.253-8.103 19.253h15.296zm53.208 16.325-2.264.782-29.62-34.218.973 33.633h-4.541v-41.087h3.759l28.132 32.666-.973-32.666h4.534v40.89zm13.092-40.889c2.651 0 7.13-.332 14.387-.332 6.22 0 11.538 0 16.072 3.957 4.147 3.561 6.418 9.662 6.418 16.072 0 8.689-4.408 14.126-7.003 16.397-5.635 4.993-14.387 4.993-17.695 4.993h-12.18V538.33zm5.056 37.843h7.448c5.578 0 10.571-1.297 13.16-3.554 3.695-3.244 5.444-9.274 5.444-14.338 0-2.969-.585-7.835-3.759-11.982-3.822-5.056-9.591-5.056-13.675-5.056-2.595 0-3.37 0-8.618.26v34.67zM160.33 491.9s-.127-21.516-.218-23.258a18.689 18.689 0 0 0-.367-2.786c-2.722.035-5.29.691-7.582 1.834.007.098.022.204.022.296 0 2.44-.022 24.013-.022 24.013l-4.492 2.744v3.505l17.61-.007v-3.618l-4.95-2.722z"></path></g></svg>