<svg xmlns="http://www.w3.org/2000/svg" width="1066.667" height="711.111" viewBox="0 0 1000 666.667"><defs><clipPath id="a"><path d="M431.716 24.674h132.449v68.948H431.716V24.674z"/></clipPath></defs><path style="isolation:auto;mix-blend-mode:normal" color="#000" overflow="visible" fill="#fff" d="M0 0h1000v666.667H0z"/><path style="isolation:auto;mix-blend-mode:normal" color="#000" overflow="visible" fill="#fff" d="M0 33.333h1000v600H0z"/><g clip-path="url(#a)" transform="matrix(6.04008 0 0 -6.04008 -2507.604 688.942)"><path d="M544.626 51.82c-1.74-3.69-3.17-5.46-3.619-5.527-.359.34-.539.98-.539 1.923 0 1.95.76 5.174 2.272 9.637 0 0 .158.48.218.657l.588.54c2.948 2.73 3.698 2.526 3.703 2.523.127-.168.186-.46.186-.856 0-1.694-1.092-5.259-2.809-8.898m-10.369 3.615c-.904.754-1.912 2.905-1.912 8.754 0 .772.02 1.607.055 2.515.027.621.041 1.231.041 1.835 0 1.537-.094 3.001-.262 4.39 2.518 2.41 4.901 3.23 6.9 2.345 2.396-1.064 3.933-4.457 3.933-8.564 0-.228-.004-.46-.012-.693-.082-1.912-.47-4.292-1.148-7.062-5.316-4.638-6.672-4.286-7.594-3.52m-12.038 0c-3.545-2.536-6.426-3.956-8.109-4.003-1.449-.039-2.635.377-3.526 1.241-1.252 1.221-1.916 3.31-1.916 6.038 0 7.268-2.117 10.558-3.985 13.465-1.595 2.476-2.97 4.616-3.023 8.785.081 2.857 1.404 5.428 3.538 6.846 2.82 1.877 7.031 1.822 12.18-.16 7.34-2.83 11.521-7.504 12.796-14.269-4.168-4.426-7.439-13.407-7.955-17.944m1.98.047 1.407.96c1.598 1.028 2.004 1.028 2.098 1.001.03-.055.058-.147.058-.325 0-.565-.273-1.942-1.607-5.318-1.53-3.89-2.352-4.065-2.362-4.065-.172.138-.505.988-.505 3.16 0 .304.005.641.021 1.005.037.856.14 1.902.307 3.182.205.138.582.4.582.4m24.05 7.476c-.345.211-1.343.82-4.61-2.183.714 2.785 1.085 5.338 1.085 7.557 0 4.137-1.225 7.162-3.613 8.591-2.614 1.564-6.186.77-9.276-1.99-1.5 7.151-7.216 13.572-14.806 16.505-5.647 2.186-10.299 2.186-13.459-.002-2.634-1.825-4.004-5.023-3.962-9.253-.13-4.36 1.691-6.995 3.616-9.783 2.2-3.182 4.47-6.475 4.027-12.843-.279-4.065-.52-7.575 1.352-9.375 1.041-1 2.64-1.37 4.891-1.129 3.414.372 6.927 3.308 8.55 4.767l-.017-.155c-.186-1.559-.336-3.017-.336-4.26 0-1.664.271-2.937 1.09-3.523.338-.243.812-.3 1.302-.157.936.275 2.362 1.394 3.856 5.186 1.523 3.864 1.783 6.855 1.256 7.7a1.055 1.055 0 0 1-.744.477c-.879.134-2.375-.64-4.547-2.369.84 4.12 3.205 9.826 6.592 14.254a30.734 30.734 0 0 0 .091-4.19 59.202 59.202 0 0 1-.06-2.616c0-5.08.76-8.123 2.345-9.484 2.055-1.75 4.33-1.162 8.395 2.314-.07-.249-.174-.606-.174-.606-1.006-3.387-1.877-6.595-1.877-8.84 0-1.446.362-2.489 1.285-2.915 1.774-.82 4.344 2.502 6.157 5.885 1.672 3.114 2.93 6.681 2.93 9.268 0 1.45-.395 2.587-1.339 3.17" fill="#6ea31b"/><path d="M437.524 38.567c0 1.356-.677 2.037-2.035 2.037h-1.816v-4.113h1.816c1.358 0 2.035.693 2.035 2.076m2.057-10.039h-2.176l-2.115 6.087h-1.617v-6.087h-1.956v13.969h3.93c1.12 0 2.023-.301 2.715-.898.785-.679 1.178-1.67 1.178-2.974 0-1.876-.732-3.1-2.196-3.672l2.236-6.425zm6.102 6.247c-.026.798-.197 1.44-.509 1.926-.313.486-.737.73-1.268.73-1.012 0-1.597-.886-1.758-2.656h3.535zm1.956-.979a7.97 7.97 0 0 0-.02-.678h-5.47c.12-1.98.777-2.973 1.969-2.973.703 0 1.332.258 1.89.778l1.174-1.217c-.84-.933-1.878-1.399-3.116-1.399-1.223 0-2.175.493-2.854 1.478-.665.944-.997 2.254-.997 3.93 0 1.782.345 3.16 1.038 4.13.651.917 1.55 1.377 2.693 1.377 1.091 0 1.97-.445 2.635-1.336.705-.97 1.058-2.334 1.058-4.09m5.981-2.732v5.427c-.413.625-.966.94-1.657.94-1.012 0-1.518-1.154-1.518-3.455 0-2.58.54-3.87 1.618-3.87.653 0 1.172.32 1.558.958m1.916-1.622c0-1.529-.312-2.653-.938-3.372-.665-.756-1.777-1.223-3.333-1.396l-.54 1.537c1.145.146 1.914.427 2.305.84.394.412.59 1.118.59 2.117v.078c-.56-.626-1.211-.939-1.956-.939-2.103 0-3.154 1.856-3.154 5.568 0 1.73.286 3.052.857 3.97.572.917 1.385 1.377 2.436 1.377.706 0 1.31-.258 1.816-.776v.556h1.916v-9.56zm3.632-.914h-1.915v10.474h1.915V28.528zm.22 13.294c0-.318-.117-.594-.35-.828a1.129 1.129 0 0 0-.827-.349c-.333 0-.616.116-.849.349-.233.234-.349.51-.349.828 0 .333.116.617.349.851.233.232.516.348.849.348.318 0 .595-.116.827-.348.233-.234.35-.518.35-.851m6.811-8.064c0 2.421-.62 3.632-1.857 3.632-1.213 0-1.819-1.21-1.819-3.632 0-2.409.614-3.613 1.838-3.613.586 0 1.04.326 1.36.978.317.652.478 1.53.478 2.635m1.934.037c0-1.796-.343-3.159-1.028-4.09-.685-.932-1.62-1.398-2.804-1.398-1.13 0-2.022.446-2.673 1.338-.693.93-1.039 2.288-1.039 4.07 0 1.796.34 3.172 1.018 4.13.653.917 1.576 1.377 2.775 1.377 1.143 0 2.048-.447 2.714-1.336.691-.959 1.037-2.322 1.037-4.09m8.024-5.268h-1.917v6.446c0 .878-.097 1.504-.288 1.877-.193.373-.53.558-1.008.558-.652 0-1.172-.319-1.557-.957v-7.924h-1.915v10.474h1.915v-.715c.492.623 1.17.935 2.035.935.985 0 1.687-.317 2.106-.949.419-.63.629-1.626.629-2.982v-6.763zm12.731 3.612c0-1.145-.333-2.07-.998-2.775-.665-.706-1.604-1.058-2.814-1.058-1.57 0-2.801.76-3.692 2.277l1.537 1.237c.65-1.037 1.41-1.557 2.273-1.557 1.117 0 1.677.592 1.677 1.776 0 .547-.156 1.018-.47 1.418-.312.398-.937.907-1.875 1.526-.938.62-1.6 1.18-1.986 1.686-.546.705-.818 1.557-.818 2.555 0 1.037.32 1.88.957 2.525.64.645 1.498.967 2.575.967 1.397 0 2.528-.63 3.393-1.896l-1.437-1.277c-.346.467-.66.785-.947.96-.288.171-.643.258-1.069.258-.97 0-1.456-.49-1.456-1.477 0-.518.143-.958.43-1.317.284-.36.82-.792 1.605-1.298 1.037-.665 1.777-1.27 2.215-1.815.6-.746.9-1.65.9-2.716m7.811 6.863-4.13-14.16h-1.877l1.138 3.688-2.915 10.472h2.036l1.217-4.968c.253-1.01.46-1.96.62-2.85.146.824.358 1.781.64 2.871l1.236 4.947h2.034zm5.353-7.938v5.427c-.41.625-.964.94-1.657.94-1.01 0-1.516-1.154-1.516-3.455 0-2.58.538-3.87 1.617-3.87.652 0 1.171.32 1.556.958m1.917-2.536h-1.917v.7c-.57-.614-1.222-.92-1.955-.92-2.1 0-3.153 1.855-3.153 5.567 0 1.73.286 3.052.858 3.97.572.917 1.384 1.377 2.434 1.377.705 0 1.312-.258 1.816-.776v3.622l1.917.995V28.528zm6.506 2.536v5.427c-.414.625-.967.94-1.656.94-1.014 0-1.52-1.154-1.52-3.455 0-2.58.541-3.87 1.617-3.87.654 0 1.173.32 1.56.958m1.916-2.536h-1.916v.7c-.572-.614-1.225-.92-1.957-.92-2.102 0-3.152 1.855-3.152 5.567 0 1.73.286 3.052.859 3.97.57.917 1.383 1.377 2.436 1.377.703 0 1.308-.258 1.814-.776v3.622l1.916.995V28.528zm6.073 2.494v2.096c-.439.266-.965.4-1.576.4-1.012 0-1.518-.552-1.518-1.657 0-1.21.44-1.816 1.317-1.816.812 0 1.404.327 1.777.977m1.916-2.494h-1.916v.718c-.545-.626-1.265-.939-2.156-.939-.81 0-1.475.294-1.996.88-.57.625-.858 1.502-.858 2.633 0 1.106.32 1.964.96 2.576.611.572 1.427.858 2.455.858.584 0 1.115-.113 1.595-.34v1.02c0 .997-.453 1.496-1.357 1.496-.639 0-1.324-.22-2.055-.659l-.82 1.455c.998.665 2.002.996 3.013.996 1.147 0 1.954-.233 2.426-.698.473-.466.71-1.278.71-2.434v-7.562zm8.521 0h-1.916v6.446c0 .878-.096 1.504-.29 1.877-.194.373-.53.558-1.01.558-.65 0-1.17-.319-1.555-.957v-7.924h-1.915v10.474h1.916v-.715c.492.623 1.172.935 2.035.935.985 0 1.688-.317 2.108-.949.416-.63.627-1.626.627-2.982v-6.763zm12.87 0h-1.914v6.446c0 .786-.029 1.303-.08 1.556-.147.586-.487.879-1.018.879-.652 0-1.172-.319-1.558-.957v-7.924h-1.914v6.446c0 .786-.026 1.303-.08 1.556-.147.586-.487.879-1.018.879-.652 0-1.17-.319-1.557-.957v-7.924h-1.916v10.474h1.916v-.715c.492.623 1.145.935 1.955.935.985 0 1.692-.372 2.116-1.115.652.743 1.47 1.115 2.453 1.115 1.011 0 1.711-.338 2.097-1.017.346-.611.518-1.65.518-3.112v-6.565zm6.051 2.494v2.096c-.442.266-.967.4-1.577.4-1.01 0-1.517-.552-1.517-1.657 0-1.21.44-1.816 1.316-1.816.813 0 1.405.327 1.778.977m1.914-2.494h-1.914v.718c-.547-.626-1.266-.939-2.157-.939-.812 0-1.476.294-1.996.88-.572.625-.857 1.502-.857 2.633 0 1.106.318 1.964.957 2.576.613.572 1.43.858 2.455.858.586 0 1.117-.113 1.598-.34v1.02c0 .997-.453 1.496-1.36 1.496-.638 0-1.324-.22-2.054-.659l-.819 1.455c.998.665 2.004.996 3.014.996 1.144 0 1.951-.233 2.424-.698.472-.466.71-1.278.71-2.434v-7.562zm7.044 10.336-.46-1.914c-.37.214-.816.32-1.337.32-.625 0-1.123-.273-1.496-.818v-7.924h-1.914v10.474h1.914v-.715c.492.623 1.11.935 1.857.935.57 0 1.05-.119 1.436-.358m7.383-10.336h-2.095l-1.737 4.891-1.039-1.657v-3.234h-1.914v13.538l1.914.997v-6.277c0-.808-.013-1.56-.039-2.251.147.306.432.845.86 1.615l1.576 2.852h2.174l-2.254-3.632 2.554-6.842z" fill="#5a6771"/></g></svg>