<svg xmlns="http://www.w3.org/2000/svg" width="600" height="400"><defs><linearGradient id="a" gradientUnits="userSpaceOnUse" x1="82.289" y1="167.234" x2="195.417" y2="268.604"><stop stop-color="#0e3e5a" offset="0"/><stop stop-color="#4f5f84" offset=".436"/><stop stop-color="#979dc1" offset="1"/></linearGradient></defs><path fill="#0e3e5a" d="M0 0h600v400H0z"/><path fill="url(#a)" stroke="#fff" stroke-width="2" d="M35 120v160h51.755v-53.445h56.49V280H195V120h-51.755v54.608h-56.49V120H35z"/><path d="M63.785 262.86H74.87v6.574H46.9v-12.25c0-2.259.264-4.072.79-5.44.526-1.368 1.492-2.5 2.9-3.4 1.406-.897 2.97-1.346 4.691-1.346 3.36 0 5.772 1.612 7.234 4.838l12.355-5.145v7.207l-11.085 4.287zm-11.905 0h7.13v-4.001c0-1.307-.092-2.256-.276-2.848-.184-.592-.594-1.12-1.23-1.582a3.61 3.61 0 0 0-2.182-.694 3.38 3.38 0 0 0-2.09.694c-.614.462-.993.966-1.137 1.51-.143.545-.215 1.565-.215 3.063zm.348-40.851v13.29h5.738v-10.452h5.266v10.452h6.106v-13.29h5.532v19.925H46.9v-19.925zm7.684-25.641h5.039c4.133-.025 10.395 3.506 10.35 11.514 0 3.634-1.305 6.461-3.914 8.482-2.61 2.022-5.983 3.032-10.122 3.032-4.454 0-8.032-1.079-10.737-3.236s-4.057-5.086-4.057-8.788c0-3.103.874-5.608 2.622-7.513a10.53 10.53 0 0 1 3.693-2.595l.837 6.457c-1.203.828-1.804 2.045-1.804 3.65 0 1.77.802 3.107 2.407 4.012 1.605.905 3.897 1.358 6.875 1.358 2.868 0 5.06-.49 6.577-1.47 1.516-.98 2.275-2.375 2.275-4.185 0-1.17-.383-2.215-1.148-3.134-.765-.919-1.987-1.378-3.668-1.378v5.247h-5.225v-11.453zM46.9 184.691h27.97v6.512H46.9zm28.4-16.046c0 3.756-1.413 6.662-4.241 8.717-2.828 2.055-6.25 3.083-10.266 3.083-4.084 0-7.492-1.041-10.224-3.124-2.732-2.082-4.098-5.049-4.098-8.9 0-3.893 1.458-6.83 4.374-8.81 2.917-1.98 6.253-2.97 10.01-2.97 4.057 0 7.479 1.02 10.265 3.062 2.787 2.042 4.18 5.022 4.18 8.942zm-23.481-.184c0 3.43 3.019 5.145 9.056 5.145 6.052 0 9.078-1.715 9.078-5.145 0-3.32-3.02-4.981-9.057-4.981-6.052 0-9.077 1.66-9.077 4.981zM46.9 130.959h27.97v5.573l-18.892 10.922c.478-.013.792-.027.943-.04a11.02 11.02 0 0 1 1.209-.082h16.74v5.083H46.9v-7.043l16.496-9.493c-.82.082-1.442.122-1.865.122h-14.63z" fill="#fff"/><path d="M279.87 188.757h-7.299l-5.951-15.446h-9.714v15.446H250v-37.583h16.62c4.622 0 8.019 1.024 10.19 3.07 2.171 2.047 3.256 4.695 3.256 7.944 0 4.827-2.302 8.15-6.905 9.967zm-22.964-20.87h8.59c2.49 0 4.343-.514 5.56-1.542 1.216-1.028 1.824-2.441 1.824-4.24 0-1.652-.6-2.987-1.797-4.006-1.198-1.019-2.873-1.528-5.025-1.528h-9.152zm47.696 12.004 5.783.77c-.749 2.516-2.208 4.59-4.38 6.223-2.17 1.634-4.893 2.45-8.169 2.45-3.93 0-7.093-1.293-9.488-3.881-2.396-2.588-3.594-6.094-3.594-10.518 0-4.203 1.208-7.682 3.622-10.435 2.414-2.753 5.69-4.13 9.825-4.13 4.043 0 7.168 1.358 9.377 4.075 2.208 2.717 3.312 6.204 3.312 10.463l-.028.715h-19.454c0 1.891.182 3.405.547 4.543.365 1.138 1.09 2.13 2.176 2.974 1.085.844 2.442 1.267 4.07 1.267 3.163 0 5.297-1.506 6.401-4.516zm-.393-8.315c-.019-2-.632-3.634-1.839-4.9-1.207-1.267-2.7-1.9-4.477-1.9-1.76 0-3.229.591-4.408 1.775-1.179 1.184-1.871 2.86-2.077 5.025zm38.432-15.941v4.818h-1.965c-.861 0-1.614.101-2.26.303-.646.202-1.277.854-1.895 1.955 2.246 1.799 3.369 3.8 3.369 6.002 0 2.46-1.053 4.497-3.158 6.113-2.106 1.615-4.89 2.422-8.352 2.422-1.497 0-3.247-.238-5.25-.715-1.31.587-1.965 1.496-1.965 2.725 0 .68.318 1.304.955 1.873.636.569 1.6.853 2.891.853h8.422c2.882 0 5.142.73 6.78 2.189 1.637 1.46 2.456 3.272 2.456 5.438 0 2.625-1.24 4.8-3.72 6.525-2.48 1.726-6.152 2.588-11.018 2.588-9.152 0-13.728-2.505-13.728-7.516 0-2.478 1.376-4.36 4.127-5.645-1.76-1.468-2.639-3-2.639-4.598 0-2.422 1.507-4.35 4.52-5.782-2.62-1.56-3.93-3.707-3.93-6.442 0-2.313.963-4.286 2.891-5.92 1.928-1.633 4.857-2.45 8.787-2.45 1.797 0 3.621.192 5.474.578.861-3.543 3.135-5.314 6.822-5.314zm-14.542 17.896c3.481 0 5.222-1.606 5.222-4.818 0-1.23-.435-2.267-1.306-3.111-.87-.844-2.138-1.267-3.804-1.267-1.684 0-2.99.441-3.916 1.322-.926.881-1.39 1.982-1.39 3.304 0 1.358.46 2.46 1.376 3.304.917.844 2.19 1.267 3.818 1.266zm-7.018 13.712c-.917.826-1.376 1.624-1.376 2.395 0 1.267.768 2.382 2.302 3.346 1.535.963 3.977 1.445 7.327 1.445 4.923 0 7.384-1.239 7.384-3.717 0-.918-.43-1.61-1.292-2.079-.86-.468-1.843-.702-2.947-.702h-6.794c-1.291 0-2.826-.23-4.604-.688zm31.835-29.544h-6.4v-6.525h6.4zm0 31.057h-6.4v-27.808h6.4zm18.752.579c-4.192 0-7.393-1.478-9.601-4.433-2.208-2.955-3.313-6.342-3.313-10.16 0-4.111 1.222-7.534 3.664-10.27 2.442-2.734 5.666-4.102 9.671-4.102 3.8 0 6.92 1.331 9.362 3.993 2.443 2.661 3.664 6.121 3.664 10.38 0 4.386-1.268 7.915-3.804 10.586-2.536 2.67-5.75 4.006-9.643 4.006zm.225-5.176c4.304 0 6.456-3.148 6.456-9.444 0-2.845-.514-5.09-1.544-6.732-1.029-1.643-2.61-2.464-4.744-2.464-2.208 0-3.846.849-4.913 2.547-1.067 1.698-1.6 3.95-1.6 6.76 0 3.028.566 5.34 1.698 6.937 1.133 1.597 2.681 2.396 4.647 2.396zm42.587 4.598h-6.4v-17.373c0-1.836-.431-3.217-1.292-4.144-.86-.927-1.9-1.39-3.116-1.39-1.666 0-3.126.715-4.38 2.147-1.253 1.432-1.88 3.589-1.88 6.47v14.29h-6.401v-27.808h5.84v6.442c2.04-4.68 4.903-7.02 8.59-7.02 2.489 0 4.617.77 6.386 2.312 1.769 1.542 2.653 4.25 2.653 8.122zm-135.207 55.552h-6.906v-16.327h-14.626v16.327h-6.906v-37.583h6.906v15.446h14.626v-15.446h6.906zm19.118.579c-4.192 0-7.393-1.478-9.601-4.433-2.208-2.955-3.313-6.342-3.313-10.16 0-4.111 1.222-7.534 3.664-10.27 2.442-2.734 5.666-4.102 9.671-4.102 3.8 0 6.92 1.331 9.362 3.993 2.443 2.661 3.664 6.121 3.664 10.38 0 4.386-1.268 7.915-3.804 10.586-2.536 2.67-5.75 4.006-9.643 4.006zm.225-5.176c4.304 0 6.456-3.148 6.456-9.444 0-2.845-.514-5.09-1.544-6.732-1.029-1.643-2.61-2.464-4.744-2.464-2.208 0-3.846.849-4.913 2.547-1.067 1.698-1.6 3.95-1.6 6.76 0 3.028.566 5.34 1.699 6.937 1.132 1.597 2.68 2.396 4.646 2.396zm40.453-23.211-9.629 27.808h-5.306l-9.853-27.808h6.68l6.626 18.86 6.457-18.86zm22.289 18.943 5.783.77c-.749 2.516-2.208 4.59-4.38 6.223-2.17 1.634-4.893 2.45-8.169 2.45-3.93 0-7.093-1.293-9.488-3.881-2.396-2.588-3.594-6.094-3.594-10.518 0-4.203 1.208-7.682 3.622-10.435 2.414-2.753 5.69-4.13 9.825-4.13 4.043 0 7.168 1.358 9.377 4.075 2.208 2.717 3.312 6.204 3.312 10.463l-.028.715h-19.454c0 1.891.182 3.405.547 4.543.365 1.138 1.09 2.13 2.176 2.974 1.085.844 2.442 1.267 4.07 1.267 3.163 0 5.297-1.506 6.401-4.516zm-.393-8.315c-.019-2-.632-3.634-1.839-4.9-1.207-1.267-2.7-1.9-4.477-1.9-1.76 0-3.229.591-4.408 1.775-1.179 1.184-1.871 2.86-2.077 5.025zm35.878 17.18h-5.98v-5.617c-1.647 4.13-4.435 6.195-8.365 6.195-3.481 0-6.148-1.422-8.001-4.267-1.853-2.845-2.78-6.379-2.78-10.6 0-3.929.965-7.352 2.892-10.27 1.928-2.919 4.67-4.378 8.226-4.378 3.65 0 6.185 1.633 7.607 4.9v-13.546h6.401zm-6.4-16.41c0-2.257-.548-4.015-1.643-5.272-1.095-1.258-2.512-1.886-4.253-1.886-1.89 0-3.369.807-4.436 2.423-1.066 1.615-1.6 4.029-1.6 7.24 0 6.205 1.984 9.307 5.952 9.307 1.572 0 2.961-.665 4.169-1.996 1.207-1.33 1.81-3.033 1.81-5.108zm10.639 10.023 6.008-1.129c.917 2.258 2.938 3.387 6.063 3.387 3.968 0 5.952-1.147 5.952-3.442 0-.734-.309-1.34-.927-1.817-.617-.477-1.347-.799-2.19-.964l-5.165-.963c-5.727-1.083-8.59-3.827-8.59-8.233 0-2.46.908-4.547 2.723-6.264 1.815-1.716 4.52-2.574 8.113-2.574 5.989 0 9.648 2.157 10.977 6.47l-5.7 1.13c-.598-2.093-2.301-3.14-5.108-3.14-3.407 0-5.11 1.047-5.11 3.14 0 1.45 1.376 2.45 4.127 3l6.092 1.24c4.735.954 7.102 3.615 7.102 7.984 0 3.065-1.216 5.355-3.65 6.87-2.432 1.514-5.324 2.27-8.674 2.27-2.9 0-5.465-.573-7.692-1.72-2.227-1.147-3.677-2.896-4.351-5.245zm42.755 1.487v4.9c-1.909.405-3.387.607-4.436.607-1.721 0-3.2-.335-4.435-1.005-1.235-.67-2.138-1.588-2.71-2.754-.57-1.165-.855-2.96-.855-5.382v-14.4h-3.538V216.5h3.903l-.037-2.44 5.876-5.269v7.71h5.699v4.873h-5.7v13.574c0 1.743.324 2.932.97 3.565.645.633 1.866.95 3.663.95.505 0 1.039-.018 1.6-.055zm29.645 4.9h-6.092c-.543-1.689-.87-3.56-.982-5.617-1.704 4.13-4.904 6.195-9.601 6.195-2.826 0-5.096-.812-6.808-2.436-1.713-1.625-2.569-3.667-2.569-6.127 0-6.387 5.718-9.581 17.153-9.581.449 0 1.057.009 1.825.027v-2.092c0-2.882-2.003-4.323-6.008-4.323-3.893 0-6.101 1.441-6.625 4.323l-5.446-.799c.299-2.312 1.516-4.217 3.65-5.713 2.133-1.496 5.22-2.244 9.263-2.244 2.19 0 3.977.18 5.362.537 1.385.358 2.555.964 3.51 1.817.954.854 1.613 1.781 1.978 2.781.365 1 .548 2.694.548 5.08v12.555c0 1.817.28 3.69.842 5.617zm-7.074-14.152c-8.273 0-12.409 1.937-12.409 5.81 0 1.156.417 2.142 1.25 2.96.832.816 2.091 1.225 3.775 1.225 2.433 0 4.272-.758 5.517-2.272 1.244-1.514 1.867-3.235 1.867-5.162zm37.224 14.152h-5.98v-5.617c-1.647 4.13-4.435 6.195-8.365 6.195-3.481 0-6.148-1.422-8.001-4.267-1.853-2.845-2.78-6.379-2.78-10.6 0-3.929.965-7.352 2.892-10.27 1.928-2.919 4.67-4.378 8.226-4.378 3.649 0 6.185 1.633 7.607 4.9v-13.546h6.401zm-6.4-16.41c0-2.257-.548-4.015-1.643-5.272-1.095-1.258-2.512-1.886-4.253-1.886-1.89 0-3.369.807-4.436 2.423-1.066 1.615-1.6 4.029-1.6 7.24 0 6.205 1.984 9.307 5.952 9.307 1.572 0 2.961-.665 4.169-1.996 1.207-1.33 1.81-3.033 1.81-5.108zm32.115 7.545 5.783.77c-.749 2.516-2.208 4.59-4.38 6.223-2.17 1.634-4.893 2.45-8.169 2.45-3.93 0-7.093-1.293-9.488-3.881-2.396-2.588-3.594-6.094-3.594-10.518 0-4.203 1.208-7.682 3.622-10.435 2.414-2.753 5.69-4.13 9.825-4.13 4.043 0 7.168 1.358 9.377 4.075 2.208 2.717 3.312 6.204 3.312 10.463l-.028.715h-19.454c0 1.891.182 3.405.547 4.543.365 1.138 1.09 2.13 2.176 2.974 1.085.844 2.442 1.267 4.07 1.267 3.163 0 5.297-1.506 6.401-4.516zm-.393-8.315c-.019-2-.632-3.634-1.839-4.9-1.207-1.267-2.7-1.9-4.477-1.9-1.76 0-3.229.591-4.408 1.775-1.179 1.184-1.871 2.86-2.077 5.025zM565 244.309h-6.4v-17.373c0-1.836-.431-3.217-1.292-4.144-.86-.927-1.9-1.39-3.116-1.39-1.666 0-3.126.715-4.38 2.147-1.253 1.432-1.88 3.589-1.88 6.47v14.29h-6.401V216.5h5.84v6.442c2.04-4.68 4.903-7.02 8.59-7.02 2.489 0 4.617.77 6.386 2.312 1.769 1.542 2.653 4.25 2.653 8.122z" fill="#fff" stroke="#fff" stroke-width="2"/></svg>