<svg xmlns="http://www.w3.org/2000/svg" width="1200" height="600" viewBox="0 0 48 24" xmlns:cgf="https://coding.garden/flags"><metadata id="cgf-metadata">

<cgf:flag>
  <cgf:name></cgf:name>
  <cgf:route>us/hi</cgf:route>
  <cgf:aspect-ratio>2</cgf:aspect-ratio>
</cgf:flag>

</metadata><clipPath id="a"><path d="M0 0v6h22v6h-1zm21 0H10.5v13H0v-1z"></path></clipPath><path fill="#00247d" d="M0 0h48v24H0z"></path><path d="m0 0 21 12m0-12L0 12" stroke="#fff" stroke-width="2.4"></path><path d="m0 0 21 12m0-12L0 12" stroke="#cf142b" stroke-width="1.6" clip-path="url(#a)"></path><path d="M10.5 0v15M0 6h24" stroke="#fff" stroke-width="4"></path><path d="M10.5 0v15M0 6h24" stroke="#cf142b" stroke-width="2.4"></path><path d="M21 12V9l3-3-3-3V0h27v24H0v-6z" fill="#fff"></path><path d="M21 6v3h27V3zM0 15v3h48v-6z" fill="#00247d"></path><path d="M21 4.5h27m-48 9h48m-48 9h48" stroke="#cf142b" stroke-width="3"></path></svg>