<svg viewBox="0 0 360 240" width="750" height="500" xmlns="http://www.w3.org/2000/svg" xmlns:xlink="http://www.w3.org/1999/xlink" xmlns:cgf="https://coding.garden/flags"><metadata id="cgf-metadata">

<cgf:flag>
  <cgf:name></cgf:name>
  <cgf:route>us/md</cgf:route>
  <cgf:aspect-ratio>1.5</cgf:aspect-ratio>
</cgf:flag>

</metadata><defs><path id="a" transform="scale(.24)" d="M0 215a32 32 0 0 0 32-32v-16h31a32 32 0 0 0 0-64H32V32h199v31a32 32 0 0 0 64 0V32h28a32 32 0 0 0 32-32H0z"></path></defs><g id="c"><path d="M0 0h180v120H0z"></path><path fill="#EAAB00" d="M0 120V20l30 20v80h30V0h30v120h30V0h30v120h30v-20L30 0v40l120 80z"></path></g><g id="b"><path fill="#fff" d="M180 0h180v120H180z"></path><path fill="#981E32" d="M270 0h90v60H180v60h90z"></path><g transform="translate(270 60)"><use fill="#981E32" xlink:href="#a"></use><use fill="#fff" transform="scale(-1 1)" xlink:href="#a"></use><use fill="#fff" transform="scale(1 -1)" xlink:href="#a"></use><use fill="#981E32" transform="scale(-1)" xlink:href="#a"></use></g></g><use x="-180" y="120" xlink:href="#b"></use><use x="180" y="120" xlink:href="#c"></use></svg>