<svg xmlns="http://www.w3.org/2000/svg" xmlns:xlink="http://www.w3.org/1999/xlink" width="900" height="600" viewBox="0 0 1107 738" xmlns:cgf="https://coding.garden/flags"><metadata id="cgf-metadata">

<cgf:flag>
  <cgf:name></cgf:name>
  <cgf:route>us/ms</cgf:route>
  <cgf:aspect-ratio>1.5</cgf:aspect-ratio>
</cgf:flag>

</metadata><defs><clipPath id="a"><path d="M0 0h60.5v60.5H0z"></path></clipPath><path id="b" transform="scale(3)" fill="#fff" d="M0-1 .588.809-.952-.309H.952L-.588.809z"></path></defs><path fill="#bf0a30" d="M0 0h1107v738H0z"></path><g clip-path="url(#a)" transform="scale(8)"><path stroke="#fff" stroke-width="12" d="m0 0 60 60M0 60 60 0"></path><path stroke="#002868" stroke-width="9" d="m0 0 60 60M0 60 60 0"></path><g id="c"><use xlink:href="#b" x="6" y="6"></use><use xlink:href="#b" x="14" y="14"></use><use xlink:href="#b" x="22" y="22"></use><use xlink:href="#b" x="38" y="38"></use><use xlink:href="#b" x="46" y="46"></use><use xlink:href="#b" x="54" y="54"></use></g><use xlink:href="#c" transform="scale(-1 1)" x="-60"></use><use xlink:href="#b" x="30" y="30"></use></g><path fill="#fff" d="M480 0h627v492H0v-12h480z"></path><path fill="#002868" d="M492 0h615v246H492z"></path></svg>