<svg xmlns="http://www.w3.org/2000/svg" xmlns:xlink="http://www.w3.org/1999/xlink" width="520" height="320" viewBox="0 0 26 16" xmlns:cgf="https://coding.garden/flags"><metadata id="cgf-metadata">

<cgf:flag>
  <cgf:name></cgf:name>
  <cgf:route>us/oh</cgf:route>
  <cgf:aspect-ratio>1.625</cgf:aspect-ratio>
</cgf:flag>

</metadata><defs><clipPath id="d"><path d="M0 16V0l26 3-6 5 6 5z"></path></clipPath><g id="e"><g id="c"><g id="b"><path d="M0-4.625V-4h.3z" transform="rotate(18 0 -4.625)" fill="#fff" id="a"></path><use xlink:href="#a" transform="scale(-1 1)"></use></g><use xlink:href="#b" transform="rotate(72 0 -4)"></use></g><use xlink:href="#b" transform="rotate(-72 0 -4)"></use><use xlink:href="#c" transform="rotate(144 0 -4)"></use></g></defs><g fill="#fff" stroke="#c1133d" clip-path="url(#d)"><path d="M26 3 0 0v16l26-3" stroke-width="4"></path><path d="M0 8h26" stroke-width="2"></path></g><path d="M0 0v16l16-8z" fill="#001c5a"></path><g transform="translate(4.944 8)"><circle r="3" fill="#fff"></circle><circle r="2" fill="#c1133d"></circle><g id="f"><use xlink:href="#e"></use><use xlink:href="#e" transform="rotate(30)"></use><use xlink:href="#e" transform="rotate(-60)"></use><g id="g"><use xlink:href="#e" transform="rotate(-30)"></use><use xlink:href="#e" y="-2" transform="rotate(-39.56)"></use><use xlink:href="#e" y="-2" transform="rotate(-20.44)"></use></g></g><use xlink:href="#f" transform="rotate(240)"></use><use xlink:href="#g" transform="rotate(120)"></use><use xlink:href="#e" transform="rotate(150)"></use><use xlink:href="#e" y="-4" transform="rotate(90)"></use></g></svg>