<svg xmlns="http://www.w3.org/2000/svg" xmlns:xlink="http://www.w3.org/1999/xlink" version="1" width="600" height="400" xmlns:cgf="https://coding.garden/flags"><metadata id="cgf-metadata">

<cgf:flag>
  <cgf:name></cgf:name>
  <cgf:route>cl/ai</cgf:route>
  <cgf:aspect-ratio>1.5</cgf:aspect-ratio>
</cgf:flag>

</metadata><path fill="#fff" d="M0 0h600v400H0z"></path><path d="M215.145 76.04v188.02s6.714 36.906 84.855 59.9c79.609-22.75 84.855-59.9 84.855-59.9V76.04h-169.71z" fill="#fc0" fill-rule="evenodd" stroke="#000" stroke-width="3"></path><path d="M233.447 113.978V262.24S253.14 294.237 300 305.657c48.01-12.555 66.553-43.417 66.553-43.417V113.978H233.447z" fill="#fc0" fill-rule="evenodd" stroke="#000" stroke-width="2"></path><path d="M246.751 178.84v65.246H300l53.941-27.382-.486-37.864H246.75z" fill="#00aad4" fill-rule="evenodd"></path><path d="m246.923 163.094 106.532 1.371-.206-25.192H332.36c-2.491 3.004-8.05 7.107-17.388 5.858-3.016-.403-15.617-6.017-15.871-5.858-7.83 4.876-18.05 6.364-20.027 6.644-1.257.179-4.331-2.057-12.147-6.644H246.75l.172 23.821z" fill="#80e5ff" fill-rule="evenodd"></path><path d="m285.925 179.004-.16-18.28h-35.022l.136 19.446 35.046-1.166z" fill="#d7eef4" fill-rule="evenodd"></path><path d="M246.798 240.765c9.753 1.692 17.618-5.034 27.377-3.755 28.687 10.487 57.87-30.123 79.76-17.96v36.69c-13.171 9.335-26.87 17.954-40.836 26.058-3.977 1.97-7.82 4.94-12.318 5.335-10.623-3.198-20.555-5.917-30.41-10.947-8.49-4.73-17.403-11.74-24.102-18.937-1.504-1.551.225-12.93.53-16.484z" fill="#008400" fill-rule="evenodd" stroke="#000" stroke-width=".5"></path><path d="M247.61 177.537c4.076-.77 9.472 2.37 12.458-.942 4.603-2.649 10.217-.008 12.28 4.567 2.558 2.785 15.8 7.454 19.705 6.836 3.115.18 4.486 3.72 7.485 3.855.536 1.982-5.06.056-6.756.66h-12.526c2.81.046 6.22 2.348 1.375 3.174-9.822.453-19.688-.147-29.505.307-2.044.512-2.819.397-5.025.158" fill="#d7eef4" fill-rule="evenodd" stroke="#000" stroke-width=".5"></path><path d="M246.798 178.856c-.88-3.317.19-21.928.033-24.843 3.088 1.954 8.305 7.276 10.819 11.877 1.342 2.457 14.479 12.057 6.49 10.705-5.123-.868-4.159 4.27-12.391 4.27-8.904 0-4.07 1.308-4.95-2.009zm85.897-32.459c-3.063 3.408-5.612 6.362-7.886 10.19-2.604-1.062-7.34-9.44-7.95-6.82-2.335 4.728-8.834 10.8-13.705 12.687-1.863-2.64-3.344-6.325-4.994-7.554-3.19 2.411-6.369 4.228-8.674 7.758-1.338 3.5-.792-4.726-4.587-7.517-1.81 2.039-4.025 2.937-5.904 4.7-2.9-.914-5.095-3.691-8.287-4.362-1.679 1.894-8.841 2.582-8.723 6.126.659 4.433 7.104 4.402 7.821 8.863-.098 3.729 3.836 5.323 6.876 6.007 3.176.989 4.92 3.269 8.323 3.112l68.17.688c.336-8.433-.287-16.88.25-25.309 2.958-4.552-5.627-4.305-6.897-8.172-6.96 5.462-4.979 3.818-8.049 6.66-1.85-2.607-4.857-6.236-5.784-7.057z" fill="#0062ad" fill-rule="evenodd" stroke="#000" stroke-width=".5"></path><path d="M353.243 155.907c-4.077.565-5.607 4.68-6.976 7.972-1.577 4.919-8.007 2.154-10.19 6.307-1.991 3.566-4.992 6.017-9.058 6.559-4.87 2.613-8.528 7.024-13.665 9.206-2.476.906-3.214 2.962.12 2.317 4.288-.545 7.37 2.945 11.324 3.371 7.239.342 14.58-1.926 21.74-.202 2.036 1.727 4.17 1.256 6.705 1.075" fill="#214478" fill-rule="evenodd" stroke="#000" stroke-width=".5"></path><path d="M258.768 230.737c.437.567 2.887 3.445-1.166 5.824-.382 2.788.565 4.67-.07 7.11-.266 1.024-.985 2.549-.36 3.714 1.738.376 4.412-4.189 3.619-2.997-.1.15-1.42-5.202-1.17-5.76.768-1.227 3.844-.02 3.133 1.763-.942 2.36-.157 3.19.136 3.819 1.668 3.58 2.226 2.964 1.312-.984.629-.27 1.887-1.096 1.317-1.827-5.499-7.052.496-3.533.472-6.673 1.24-1.056 1.01-2.988 1.721-3.925 7.496 1.315 11.521-2.438 11.386-2.448 6.834 7.382 3.572 2.688 10.625 11.848 1.596 1.236 2.515.666 2.154-.318-1.8-2.986-5.756-6.756-5.385-8.953 1.45.956 3.283 2.212 4.88 2.574 1.21.275 1.87 1.582 2.529 2.4.376.467.675-.63 1.165-.44 1.682.656 2.964.99 3.514-.304-1.363-.837-4.668-3.094-6.347-3.945-1.582-1.164-7.072-4.54-7.964-7.456-.045-1.05-.16-1.855.38-2.798.52-.908 1.672-1.96 2.953-2.636 2.99-.539.206 1.344 5.127.426 1.515-.214 2.085-.58 1.267-2.07-1.07-1.435-3.443-3.382-4.42-4.913-1.79-1.172.42-1.7-2.754.468-.235-.536-2.538-1.964-2.27-.82.064.276-.469 1.228-.696.739-.338-.726-1.57-1.938-1.616-1.224-.043.687-.957 2.358-.884 1.683.182-1.672-1.499 1.35-3.22.604-.186-.081-.07.424-.118.66-.399 1.975-1.4 4.764-4.113 2.185.439 2.82-2.468 1.084-4.122 2.087l-1.856-1.154c-.168-.62-2.553 1.91-4.038 3.8-.338.43.087 1.086.579 1.587-3.828 2.059-4.668 3.387-5.11 4.175-3.734 1.578-3.862 1.472-5.967 4.754-1.215 2.245-2.382 6.075-4.582 6.933 5.213.165 8.908-4.9 9.959-7.508zm81.992-31.446c-.068-.007-.322.395-1.91 1.479-.235-.537-2.42-.957-2.152.187.065.276-.465 1.219-.692.73-.338-.726-1.135-1.482-1.18-.767-.043.687-1.402 1.91-1.328 1.235.181-1.672-1.499 1.346-3.22.599-.187-.081-.065.42-.112.655-9.118 4.581-10.07-1.906-15.797 5.035-2.557 2.207-2.168 2.225-5.765 6.101-1.602 2.547-.024 2.493-3.181 5.297-1.216 2.245-.384 7.302-2.583 8.16 5.213.165 6.904-8.678 7.954-11.286 1.845 1.734 2.725 5.088 5.54 5.204 1.095.044-.013 2.018-.093 2.564 9.644 3.324 3.99 5.065 5.82 4.585 1.65-.432 3.351-2.064 4.942-.561.32.302 1.35 3.36 3.032 1.03.552-.766-.544-2.084-.936-3.594-.183-.708 1.327.611 2.358.337.963-.257 1.798-.161 3.8-4.137.939-1.864.069-5.243.15-9.845-.046-1.05.086-1.765.393-2.807.325-1.104 1.152-3.348 3.837-2.62 3.067-.629.364-.745 3.78.093 1.515-.215 3.439-.25 2.62-1.74-1.069-1.435-3.457-3.392-4.435-4.923-.895-.586-.775-1.003-.842-1.01zm-13.158 18.605c1.188 1.018.499 4.83-1.666 6.57-.556.165-1.4.39-1.385-.02.035-.912.269-2.733-2.078-2.395-1.37.197.008-2.885-.336-3.819 1.567-.321 3.724-.069 5.465-.336zm4.904 2.451c.903 2.139-1.095 5.288-2.228 2.677.856-.642 1.07-2.511 2.228-2.677zm-13.701.45c.92.697 2.259 1.114 1.441 2.227.075.376-1.037 1.728-1.329.561-.618-1.116-.21-1.55-.112-2.788z" fill="#a40" fill-rule="evenodd" stroke="#000" stroke-width=".5"></path><path d="M310.006 207.556c-.057-1.29 6.694-7.95 9.568-8.724 1.64-4.011 1.026-3.183 4.189-5.042 5.16 5.407 2.166 3.05 3.027 5.244 1.671 0 5.974 5.294 6.182 5.8-2.735 2.637-4.694 8.146-6.538 10.082-.92-3.363-7.454-6.036-12.217-6.036-4.537 0-4.765-.215-4.21-1.324z" fill="#a40" fill-rule="evenodd" stroke="#000" stroke-width=".5"></path><path d="M253.892 160.898h7.84m10.027 18.554h12.457m-10.462-14.702c2.84 1.04 1.853-2.163 3.252-2.163.605 0 1.5-2.273 1.74-2.828m.194 11.363c.024 0 3.104-4.473 6.2-4.473.554 0 3.783-3.292 3.783-3.847m-2.039 13.026c1.732 0 14.77-11.443 16.638-13.31m-45.496 16.632v.145c0 5.291 11.69 12.995 15.714 13.532 3.29.439 3.818 1.164 5.966 1.164m40.861-29.374c.194 0 .194 0 0 0-1.98 0 2.55-1.323 3.783-7.858m-20.055 16.651c1.03-2.405 16.49-7.13 22.844-7.13" fill="none" stroke="#000" stroke-width=".5"></path><path d="M317.96 171.966c2.312 0 8.706-5.607 9.604-5.965 1.633-.654 10.508-12.373 10.767-12.805" fill="none" stroke="#000" stroke-width=".5"></path><path d="M350.815 259.032c.952-.307-4.27-2.049-5.287-2.24-2.437-1.83-4.292-3.061-6.712-4.831 1.07-1.774-.884-2.556-1.123-4.243-.45-2.767-3.906-5.04-4.187-6.313-.154-3.232-3.102-.367-3.541 1.528.247 2.68.791 4.336-.956 7.049-2.702.701-4.225 4.986-2.378 7.13-1.672 1.393-2.982 3.156-3.992 6.08-2.841.889-4.023 3.456-3.881 6.416-1.606.86-3.248-1.88-7.562 2.301-1.458 1.487-2.262 2.547-4.067 6.073.171 2.932-3.765 3.845-5.125 1.341-.828-3.59-1.701-4.434-2.22-5.412-2.015-1.905.15-2.81-1.448-4.962-.426-2.192-4.831-5.42-3.662-7.917-.4-3.635-3.238-3.248-6.292-2.01 2.103 3.486-2.658 1.918-4.297 3.872-2.208.274-2.87 2.516-4.592 3.051-3.023-.526-5.397.57-6.837 3.23 1.888.144-4.766.344-7.48 3.674-11.327-4.386 27.825 16.657 35.51 20.813 0 0 44.775-19.502 50.13-34.63z" fill="#050" fill-rule="evenodd" stroke="#000" stroke-width=".5"></path><path d="M245.718 138.228v119.436c14.65 16.888 35.428 26.257 54.802 36.502 18.76-7.308 37.522-17.141 50.37-33.071 4.714-3.964 3.228-9.944 3.392-15.316V138.228h-23.415s-10.783 13.244-30.867 0c-21.138 13.74-32.42 0-32.42 0h-21.862zm2.08 2.08h18.58s11.17 14.388 33.622 0c19.856 13.65 31.987 0 31.987 0h20.216V255.48c-9.914 15.49-26.537 25.034-42.78 32.692-5.326 3.303-10.728 4.41-15.777.037-16.442-8.49-33.364-17.313-45.849-31.325V140.308z" fill-rule="evenodd"></path><path d="M279.293 270.56c1.354 1.65-1.638 1.58.474 1.58h.632c.215 0 .877.517 1.106.632m7.109-1.738c.519 0-.682 2.553-1.58 3.002m7.741 3.475c-.017.008-.107 2.3-.632 3.002-.157.209-1.04.158-1.422.158m-1.896-.316c-.029.039-1.02 0-1.58 0m13.745.158c-.94 1.252 3.539 1.956 3.16 3.475-.378 1.507 1.953.731.473 2.212-.074.074-.21 0-.316 0" fill="none" stroke="#000" stroke-width=".5"></path><path d="M306.465 284.304c-.783.783-3.424 1.215-3.791 2.686-.244.974-1.638 1.538-2.054 2.37-.25.5-2.606 1.657-3.002 2.053m-2.843-4.581c-.237.473.315-1.343-.158-1.58-1.593-.796-3.301-1.094-4.581-2.054m7.74-2.369c-.66-.331.158-1.473.158-2.212 0-.372.106-.737.158-1.106m-2.053-5.055c0-.693-1.11-1.747-1.422-2.528m42.969-9.794c0-.086.072 2.254-2.053 3.317-.316.158-.316.632-.474.948m-10.269 6.477c-.576.288-2.361 2.307-3.001 3.16-.336.447-.737.842-1.106 1.263m-3.476 4.898c-.509.679.444-2.148-.315-2.528m-1.264-1.896c-.031.042-2.224-1.506-3.95-2.37m21.643-23.063c-.452.602-.291 1.48-.474 2.21m-3.317 6.004c-.306 1.222-.152.941-1.106 1.896-.685.685-.948.834-.948 1.737m16.114-2.527c-1.05 1.05-.704 3.36-1.738 4.739m-12.322 12.796c-.712.711.56-2.025.316-3.001-.19-.756-.509-1.128-.316-1.896" fill="none" stroke="#000" stroke-width=".5"></path><path d="M329.53 274.51c-.241-.964 1.7-1.03 2.527-1.58.634-.423 1.114-.956 1.422-1.264m-20.221 15.166c.873-.582-2.26-.206-3.001-.948-.306-.305-.316-.995-.316-1.264" fill="none" stroke="#000" stroke-width=".5"></path><path d="M290.664 249.154c2.364-.9 3.71-2.367 4.98-3.265 2.37-1.91 4.197-2.182 8.04-2.758 1.423-.213 2.82-1.192 4.427-2.437 1.152-.302 1.253-.733 2.187-2.11.634.55 1.477.564 1.962.07.344.967.224 1.134 3.846 3.145-.129 1.058-2.126.879-3.7.713-1.15-.063-1.243.37-.178 1.455.61-.203 1.77-.089 6.669.341.279 1.288-.057 1.994-.914 1.623-1.469-.37-5.46-.538-6.553-.722 1.706.36 3.592 2.555 5.553 2.47 1.364.797.593-1.004 1.397.399.342 1.267-2.022.074-2.083.442-1.178-.294-4.3-.984-6.024-1.083-2.376.816-8.467.794-8.189.518-2.248 1.998-3.661 3.92-5.189 4.566-2.413 1.021-2.263 2.74-2.723 2.903-2.828 1.007 0-2.879-1.213-2.17-.16-1.436-2.837.045-1.256-.735-1.53-1.2 4.64-1.179 4.362-4.594-2.641.72-2.612 1.44-5.401 1.23zm2.395 4.081c.748-.803 1.265-1.124 1.95-1.994.357-.45 1.047-1.568.9-2.128m28.121-55.23c-.759-.189 1.866-1.785 1.233-2.706-.438-.44-1.818-1.4-1.394-1.593 1.186-.41 3.468.08 4.859-.538 1.297-.222 1.883.841 1.769 1.988.51 1.124.673 2.642 1.727 3.366-.703.977-2.632.26-2.695.807-.059.5-.241.834-.643.866-1.083.085-1.698 1.216-2.028 1.075-1.251-.697-2.11-2.052-2.828-3.265z" fill="#a40" fill-rule="evenodd" stroke="#000" stroke-width=".5"></path><path d="m237.835 143.564-.605 1.033 2.19 2.19h1.46l.366.366-.365.365h-.73l1.46 1.46h1.46l.365.365-.365.365h-1.46l1.46 1.46v.731h-.73l-1.46-1.46v1.46l-.365.365-.365-.365v-1.46l-1.46-1.46v.73l-.366.364-.365-.365v-1.46l-2.19-2.19-1.033.604v3.098l1.033 1.033v.516h-.517l-.516-.516v2.065l1.033 1.033v.516h-.517l-1.032-1.032v2.065l-.517.516-.516-.516v-2.065l-1.033 1.032h-.516v-.516l1.033-1.033v-2.065l-.517.516h-.516v-.516l1.033-1.033v-3.098l-1.033-.605-2.19 2.19v1.461l-.366.365-.365-.365v-.73l-1.46 1.46v1.461l-.365.365-.365-.365v-1.46l-1.46 1.46h-.731v-.73l1.46-1.46h-1.46l-.365-.366.365-.365h1.46l1.46-1.46h-.73l-.364-.365.365-.366h1.46l2.19-2.19-.604-1.033h-3.098l-1.033 1.033h-.516v-.517l.516-.516h-2.065l-1.033 1.033h-.516v-.517l1.032-1.032h-2.065l-.516-.517.516-.516h2.065l-1.032-1.033v-.516h.516l1.033 1.033h2.065l-.516-.517v-.516h.516l1.033 1.033h3.098l.605-1.033-2.191-2.19h-1.46l-.365-.366.365-.365h.73l-1.46-1.46h-1.461l-.365-.365.365-.365h1.46l-1.46-1.46v-.731h.73l1.46 1.46v-1.46l.366-.365.365.365v1.46l1.46 1.46v-.73l.365-.365.365.366v1.46l2.19 2.19 1.034-.604v-3.098l-1.033-1.033v-.516h.516l.517.516v-2.065l-1.033-1.033v-.516h.516l1.033 1.032v-2.065l.516-.516.517.516v2.065l1.032-1.032h.517v.516l-1.033 1.033v2.065l.516-.516h.517v.516l-1.033 1.033v3.098l1.033.605 2.19-2.191v-1.46l.365-.366.365.366v.73l1.46-1.46v-1.461l.366-.365.365.365v1.46l1.46-1.46h.73v.73l-1.46 1.46h1.46l.365.366-.365.365h-1.46l-1.46 1.46h.73l.365.365-.365.365h-1.46l-2.191 2.191.605 1.033h3.098l1.032-1.033h.517v.516l-.517.517h2.066l1.032-1.033h.517v.516l-1.033 1.033h2.065l.517.516-.517.517h-2.065l1.033 1.032v.517h-.517l-1.032-1.033h-2.066l.517.516v.517h-.517l-1.032-1.033h-3.098z" id="a" fill="#fff" fill-rule="evenodd" stroke="#000" stroke-width=".3"></path><use transform="translate(0 28.749)" width="900" height="600" xlink:href="#a" stroke="#000" stroke-width=".3"></use><use transform="translate(0 56.3)" id="b" width="900" height="600" xlink:href="#a" stroke="#000" stroke-width=".3"></use><use transform="translate(0 26.353)" id="c" width="900" height="600" xlink:href="#b" stroke="#000" stroke-width=".3"></use><use transform="translate(0 27.55)" id="d" width="900" height="600" xlink:href="#c" stroke="#000" stroke-width=".3"></use><use transform="translate(11.979 22.76)" id="e" width="900" height="600" xlink:href="#d" stroke="#000" stroke-width=".3"></use><use transform="translate(22.76 16.77)" width="900" height="600" xlink:href="#e" stroke="#000" stroke-width=".3"></use><use transform="translate(-.872 -38.386) scale(1.11111)" width="900" height="600" xlink:href="#a" stroke="#000" stroke-width=".27"></use><path d="m362.537 143.564.605 1.033-2.191 2.19h-1.46l-.365.366.365.365h.73l-1.46 1.46h-1.46l-.366.365.365.365h1.46l-1.46 1.46v.731h.73l1.46-1.46v1.46l.366.365.365-.365v-1.46l1.46-1.46v.73l.365.364.365-.365v-1.46l2.191-2.19 1.033.604v3.098l-1.033 1.033v.516h.516l.517-.516v2.065l-1.033 1.033v.516h.516l1.033-1.032v2.065l.516.516.517-.516v-2.065l1.032 1.032h.517v-.516l-1.033-1.033v-2.065l.516.516h.517v-.516l-1.033-1.033v-3.098l1.033-.605 2.19 2.19v1.461l.365.365.365-.365v-.73l1.46 1.46v1.461l.366.365.365-.365v-1.46l1.46 1.46h.73v-.73l-1.46-1.46h1.46l.366-.366-.366-.365h-1.46l-1.46-1.46h.73l.365-.365-.365-.366h-1.46l-2.191-2.19.605-1.033h3.098l1.032 1.033h.517v-.517l-.517-.516h2.066l1.032 1.033h.517v-.517l-1.033-1.032h2.065l.517-.517-.517-.516h-2.065l1.033-1.033v-.516h-.517l-1.032 1.033h-2.066l.517-.517v-.516h-.517l-1.032 1.033h-3.098l-.605-1.033 2.19-2.19h1.46l.366-.366-.365-.365h-.73l1.46-1.46h1.46l.366-.365-.366-.365h-1.46l1.46-1.46v-.731h-.73l-1.46 1.46v-1.46l-.365-.365-.365.365v1.46l-1.46 1.46v-.73l-.366-.365-.365.366v1.46l-2.19 2.19-1.033-.604v-3.098l1.033-1.033v-.516h-.517l-.516.516v-2.065l1.033-1.033v-.516h-.517l-1.032 1.032v-2.065l-.517-.516-.516.516v2.065l-1.033-1.032h-.516v.516l1.033 1.033v2.065l-.517-.516h-.516v.516l1.033 1.033v3.098l-1.033.605-2.19-2.191v-1.46l-.366-.366-.365.366v.73l-1.46-1.46v-1.461l-.365-.365-.365.365v1.46l-1.46-1.46h-.73v.73l1.46 1.46h-1.46l-.366.366.365.365h1.46l1.46 1.46h-.73l-.364.365.365.365h1.46l2.19 2.191-.604 1.033h-3.098l-1.033-1.033h-.516v.516l.516.517h-2.065l-1.033-1.033h-.516v.516l1.032 1.033h-2.065l-.516.516.516.517h2.065l-1.032 1.032v.517h.516l1.033-1.033h2.065l-.516.516v.517h.516l1.033-1.033h3.098z" fill="#fff" fill-rule="evenodd" stroke="#000" stroke-width=".3"></path><use transform="matrix(-1 0 0 1 600.371 28.749)" width="900" height="600" xlink:href="#a" stroke="#000" stroke-width=".3"></use><use transform="matrix(-1 0 0 1 600.371 56.3)" width="900" height="600" xlink:href="#a" stroke="#000" stroke-width=".3"></use><use transform="matrix(-1 0 0 1 600.371 26.353)" width="900" height="600" xlink:href="#b" stroke="#000" stroke-width=".3"></use><use transform="matrix(-1 0 0 1 600.371 27.55)" width="900" height="600" xlink:href="#c" stroke="#000" stroke-width=".3"></use><use transform="matrix(-1 0 0 1 588.393 22.76)" width="900" height="600" xlink:href="#d" stroke="#000" stroke-width=".3"></use><use transform="matrix(-1 0 0 1 577.612 16.77)" width="900" height="600" xlink:href="#e" stroke="#000" stroke-width=".3"></use><use transform="matrix(-1.11111 0 0 1.11111 601.244 -38.386)" width="900" height="600" xlink:href="#a" stroke="#000" stroke-width=".27"></use><path d="m310.316 120.3.15-12.689-10.763-5.783-10.78 5.783.168 12.69 10.594 5.783" fill-rule="evenodd"></path><g transform="translate(214.543 30.742) scale(.59893)" id="x" stroke-width=".835"><path d="m121.872 124.89 14.886-8.879-3.608 8.827-11.278.051z" fill-rule="evenodd"></path><path d="m121.44 120.158 11.596-6.917-2.81 6.876-8.787.04z" fill-rule="evenodd"></path><path d="m119.275 116.503 11.275-6.724-2.733 6.685-8.542.039z" fill-rule="evenodd"></path><path d="m118.843 113.04 9.197-5.484-2.23 5.453-6.967.032z" fill-rule="evenodd"></path><path d="m118.237 110.184 7.379-4.4-1.789 4.375-5.59.025zm-.952-2.402 6.254-3.73-1.516 3.708-4.738.022zm.007-2.251 4.948-2.95-1.199 2.933-3.749.017zm-.657-1.673 4.48-2.672-1.086 2.656-3.394.016z" fill-rule="evenodd"></path><path d="m116.34 102.466 3.595-2.143-.872 2.131-2.723.012zm-.463-1.17 3.046-1.816-.739 1.806-2.307.01zm.003-1.096 2.41-1.437-.584 1.429-1.826.008z" fill-rule="evenodd"></path><path d="m115.446 99.53 2.12-1.265-.514 1.257-1.606.008z" fill-rule="evenodd"></path><path d="m115.306 98.871 1.701-1.014-.412 1.008-1.289.006zm-.219-.554 1.442-.86-.35.855-1.092.005zm.002-.518 1.14-.68-.276.676-.864.004z" fill-rule="evenodd"></path><path d="m114.868 97.508 1.097-.654-.266.65-.83.004z" fill-rule="evenodd"></path><path d="m114.796 97.167.88-.524-.213.521-.667.003zm-.113-.286.745-.445-.18.442-.565.003zm.001-.268.59-.352-.143.35-.447.002z" fill-rule="evenodd"></path><path d="m121.872 124.89 14.886-8.879-3.608 8.827-11.278.051z" id="f" fill-rule="evenodd"></path><path d="m121.44 120.158 11.596-6.917-2.81 6.876-8.787.04z" id="g" fill-rule="evenodd"></path><path d="m119.275 116.503 11.275-6.724-2.733 6.685-8.542.039z" id="h" fill-rule="evenodd"></path><path d="m118.843 113.04 9.197-5.484-2.23 5.453-6.967.032z" id="i" fill-rule="evenodd"></path><path d="m118.237 110.184 7.379-4.4-1.789 4.375-5.59.025z" id="j" fill-rule="evenodd"></path><path d="m117.285 107.782 6.254-3.73-1.516 3.708-4.738.022z" id="k" fill-rule="evenodd"></path><path d="m117.292 105.531 4.948-2.95-1.199 2.933-3.749.017z" id="l" fill-rule="evenodd"></path><path d="m116.635 103.858 4.48-2.672-1.086 2.656-3.394.016z" id="m" fill-rule="evenodd"></path><path d="m116.34 102.466 3.595-2.143-.872 2.131-2.723.012z" id="n" fill-rule="evenodd"></path><path d="m115.877 101.296 3.046-1.816-.739 1.806-2.307.01z" id="o" fill-rule="evenodd"></path><path d="m115.88 100.2 2.41-1.437-.584 1.429-1.826.008z" id="p" fill-rule="evenodd"></path><path d="m115.446 99.53 2.12-1.265-.514 1.257-1.606.008z" id="q" fill-rule="evenodd"></path><path d="m115.306 98.871 1.701-1.014-.412 1.008-1.289.006z" id="r" fill-rule="evenodd"></path><path d="m115.087 98.317 1.442-.86-.35.855-1.092.005z" fill-rule="evenodd"></path><path d="m115.089 97.799 1.14-.68-.276.676-.864.004z" id="s" fill-rule="evenodd"></path><path d="m114.868 97.508 1.097-.654-.266.65-.83.004z" id="t" fill-rule="evenodd"></path><path d="m114.796 97.167.88-.524-.213.521-.667.003z" id="u" fill-rule="evenodd"></path><path d="m114.683 96.881.745-.445-.18.442-.565.003z" id="v" fill-rule="evenodd"></path><path d="m114.684 96.613.59-.352-.143.35-.447.002z" id="w" fill-rule="evenodd"></path><use width="900" height="600" xlink:href="#f"></use><use width="900" height="600" xlink:href="#g"></use><use width="900" height="600" xlink:href="#h"></use><use width="900" height="600" xlink:href="#i"></use><use width="900" height="600" xlink:href="#j"></use><use width="900" height="600" xlink:href="#k"></use><use width="900" height="600" xlink:href="#l"></use><use width="900" height="600" xlink:href="#m"></use><use width="900" height="600" xlink:href="#n"></use><use width="900" height="600" xlink:href="#o"></use><use width="900" height="600" xlink:href="#p"></use><use width="900" height="600" xlink:href="#q"></use><use width="900" height="600" xlink:href="#r"></use><use width="900" height="600" xlink:href="#s"></use><use width="900" height="600" xlink:href="#t"></use><use width="900" height="600" xlink:href="#u"></use><use width="900" height="600" xlink:href="#v"></use><use width="900" height="600" xlink:href="#w"></use></g><use transform="rotate(-60 298.81 113.22)" id="y" width="900" height="600" xlink:href="#x" stroke-width=".835"></use><use transform="rotate(-60 298.622 114.868)" id="z" width="900" height="600" xlink:href="#y" stroke-width=".835"></use><use transform="rotate(-60 299.215 111.613)" id="A" width="900" height="600" xlink:href="#z" stroke-width=".835"></use><use transform="rotate(-60 300.794 113.969)" id="B" width="900" height="600" xlink:href="#A" stroke-width=".835"></use><use transform="rotate(-60 300.503 113.489)" width="900" height="600" xlink:href="#B" stroke-width=".835"></use><path d="M300.487 111.119c-3.576-1.786-8.276-2.673-12.137-.375-.426 1.78-.396 6.01 0 8.386 5.268-4.735 8.292-3.238 11.388-1.218 6.545 3.64 7.69 3.478 11.21 2.244-.293-1.713.687-3.772.228-7.13-1.778.956-3.645 1.548-10.69-1.907z" fill="#fff" fill-rule="evenodd" stroke="#000" stroke-width=".5"></path><path d="m291.245 113.457.822.622c.227.172.388.274.48.308a.493.493 0 0 0 .311.002l.024.07-1.085.374-.023-.07a.518.518 0 0 0 .152-.077.162.162 0 0 0 .047-.073.125.125 0 0 0 0-.079.248.248 0 0 0-.046-.08 1.545 1.545 0 0 0-.159-.129l-.652-.5-.296.861a1.085 1.085 0 0 0-.05.18.19.19 0 0 0 .009.08c.013.04.042.067.084.082.043.014.112.007.207-.022l.024.07-.896.309-.024-.07a.58.58 0 0 0 .15-.095.999.999 0 0 0 .175-.206c.051-.08.102-.19.152-.334l.337-.96-.75-.556c-.203-.151-.363-.24-.479-.27a.655.655 0 0 0-.36.015l-.023-.07 1.168-.402.024.068c-.098.039-.16.078-.187.12-.027.04-.035.079-.023.113.016.046.07.103.16.17l.587.447.253-.724c.03-.085.045-.142.049-.17a.185.185 0 0 0-.01-.083.119.119 0 0 0-.046-.062.159.159 0 0 0-.09-.03.686.686 0 0 0-.183.043l-.023-.069.896-.31.024.07a.56.56 0 0 0-.306.272c-.04.068-.088.185-.145.35l-.28.815zm2.891.664.015.072-1.123.226-.015-.072.093-.018c.108-.022.18-.07.217-.143.022-.047.018-.15-.014-.307l-.34-1.693a.886.886 0 0 0-.078-.258.178.178 0 0 0-.096-.067.373.373 0 0 0-.188-.01l-.092.018-.015-.071 1.123-.226.015.071-.095.02c-.107.02-.179.068-.215.141-.024.048-.02.15.012.307l.34 1.694a.886.886 0 0 0 .079.258c.019.03.052.052.097.066.062.02.124.024.186.011l.094-.019zm3.826.415-.703-.126-.67-1.39a3.945 3.945 0 0 1-.162-.025l-.054-.01-.06-.015-.137.765c-.03.166-.03.272 0 .319.039.065.107.107.206.125l.103.018-.013.072-1.128-.202.013-.072.099.018c.111.02.197-.002.258-.066.034-.035.065-.128.092-.278l.304-1.7c.03-.166.03-.272 0-.319-.04-.066-.11-.108-.21-.126l-.098-.017.013-.072.959.171c.28.05.482.108.607.172.125.065.224.16.297.286a.595.595 0 0 1 .07.416.624.624 0 0 1-.234.393c-.127.1-.306.155-.536.164l.409.853c.093.195.179.33.258.402.08.073.19.13.33.172l-.013.072zm-1.627-1.688.064.013a.981.981 0 0 0 .044.009c.251.044.45.024.597-.062a.53.53 0 0 0 .266-.381.55.55 0 0 0-.083-.428.561.561 0 0 0-.38-.228 1.748 1.748 0 0 0-.312-.018l-.196 1.095zm3.31-.298-.392.982.546.217c.141.057.244.073.309.05.086-.031.16-.116.225-.255l.067.027-.345.865-.067-.027a1.04 1.04 0 0 0 .041-.253.247.247 0 0 0-.068-.144.594.594 0 0 0-.216-.129l-.545-.218-.327.819a.82.82 0 0 0-.066.206c0 .028.01.054.029.078a.342.342 0 0 0 .13.076l.422.168c.14.056.246.087.317.093a.485.485 0 0 0 .23-.042c.106-.046.229-.129.369-.25l.073.03-.463.536-1.913-.763.027-.068.088.035a.38.38 0 0 0 .183.024.166.166 0 0 0 .115-.056.926.926 0 0 0 .117-.231l.644-1.614c.063-.157.085-.26.068-.31-.024-.066-.088-.12-.19-.161l-.088-.035.027-.068 1.914.764-.19.555-.071-.029a.922.922 0 0 0 .022-.303.315.315 0 0 0-.094-.167.894.894 0 0 0-.247-.13l-.681-.272zm4.053 1.718-.339.776-.06-.033c.038-.218.033-.4-.013-.546a.846.846 0 0 0-.431-.494c-.3-.161-.592-.165-.876-.012-.238.13-.432.333-.58.61a1.607 1.607 0 0 0-.202.684c-.012.232.028.43.122.591a.93.93 0 0 0 .364.363 1.088 1.088 0 0 0 .556.131l.367-.68c.063-.119.096-.2.097-.247a.204.204 0 0 0-.038-.128.548.548 0 0 0-.183-.136l.035-.066.912.491-.036.066-.043-.023c-.09-.049-.169-.052-.235-.01-.046.03-.103.108-.17.234l-.389.721c-.171 0-.331-.018-.479-.054a1.958 1.958 0 0 1-.46-.183c-.454-.244-.721-.576-.8-.995a1.328 1.328 0 0 1 .142-.9 1.43 1.43 0 0 1 .47-.515c.239-.162.494-.249.766-.26a1.35 1.35 0 0 1 .692.178c.086.047.16.095.223.147.062.052.145.136.248.252.052.06.089.095.11.107a.078.078 0 0 0 .073 0c.027-.012.058-.047.093-.104l.064.035zm.172 3.24-.038.062-.979-.596.038-.063.081.05c.095.057.18.071.256.042.049-.02.115-.098.198-.234l.899-1.476a.886.886 0 0 0 .117-.242.174.174 0 0 0-.024-.115.374.374 0 0 0-.13-.134l-.082-.05.038-.062.979.596-.038.062-.083-.05c-.093-.057-.177-.07-.254-.042-.05.02-.116.097-.2.234l-.898 1.475a.886.886 0 0 0-.118.243.175.175 0 0 0 .027.115.361.361 0 0 0 .129.134l.082.05zm2.612-1.569c.306.163.51.42.612.772.102.351.06.702-.124 1.05-.19.36-.46.598-.813.715a1.24 1.24 0 0 1-1.01-.08 1.233 1.233 0 0 1-.637-.78c-.1-.349-.052-.706.143-1.074.198-.375.488-.614.869-.715.33-.089.65-.051.96.112zm-.1.11a.706.706 0 0 0-.634-.034c-.263.111-.494.355-.693.731-.204.386-.278.727-.223 1.022a.692.692 0 0 0 .376.503.776.776 0 0 0 .688.03c.236-.096.453-.33.65-.704.214-.404.294-.748.24-1.03a.732.732 0 0 0-.405-.518zm.841-.634-.832.33-.06-.032.502-.505.39.207zm-.299 1.11.712.142 1.21 2.287.302-1.512c.032-.161.034-.265.006-.313-.037-.063-.107-.105-.21-.126l-.09-.018.013-.072.913.183-.014.071-.093-.018c-.111-.022-.196-.004-.256.053-.037.036-.07.127-.1.274l-.441 2.21-.07-.014-1.306-2.457-.323 1.614c-.032.161-.035.265-.008.312.038.064.108.106.21.127l.093.018-.015.072-.912-.183.014-.071.091.018c.112.022.198.005.258-.053.036-.036.07-.127.099-.274l.365-1.823a1.222 1.222 0 0 0-.138-.21.649.649 0 0 0-.157-.115.63.63 0 0 0-.167-.051l.014-.072z" font-size="10.114"></path></svg>