<svg xmlns="http://www.w3.org/2000/svg" width="900" height="600" viewBox="-50 -30 90 60"><path opacity=".99" fill="#03a" d="M-50-30h90v60h-90z"/><path d="M-5-15c8.284 0 15 6.716 15 15 0 8.284-6.716 15-15 15-8.284 0-15-6.716-15-15 0-8.284 6.716-15 15-15z" fill="gold"/><path d="M-5-14.7C3.119-14.7 9.7-8.119 9.7 0S3.119 14.7-5 14.7-19.7 8.119-19.7 0-13.119-14.7-5-14.7z" fill="#03a"/><path d="M-5-10C.523-10 5-5.523 5 0S.523 10-5 10-15 5.523-15 0s4.477-10 10-10z" fill="gold"/><g fill="#fff" color="#000" stroke="#000"><path style="marker:none" d="M-10.35 4.222l.164.072s.144-.006.202.03c.041.024.104.07.087.114-.018.046-.096.024-.145.03-.057.005-.173 0-.173 0s-.1-.044-.115.028-.056.112-.029.159c.036.062.132.06.202.072.057.01.115 0 .173 0 .067 0 .136-.014.202 0 .046.01.13.058.13.058s.061-.085.086-.13c.028-.051.072-.159.072-.159s.072-.1.087-.159c.007-.027 0-.086 0-.086s-.103-.048-.159-.058c-.042-.007-.13 0-.13 0l.13-.13.101-.13.101-.115-.26-.1s-.216-.058-.273-.058c-.058 0-.136.137-.136.137l-.158.212z" stroke-width=".025" overflow="visible"/><path style="marker:none" d="M-10.313 4.466l.171-.172m.442-.1l-.201.252" fill="none" stroke-width=".025" overflow="visible"/><path d="M-9.805 4.306a2.152 2.152 0 0 0 .091-.117 3.88 3.88 0 0 1-.243-.06.38.38 0 0 0-.074.03.88.88 0 0 0-.15.1c-.016.012-.017.014-.013.016.005.004.012.005.06.006.089.003.133.014.18.044a.25.25 0 0 1 .064.065l.007.012.078-.096z" style="marker:none" fill="#ececec" fill-rule="evenodd" stroke-width=".001" overflow="visible"/><path d="M-9.633 4.734a.984.984 0 0 0 .11-.202.434.434 0 0 1 .04-.076c.057-.09.069-.123.064-.176l-.001-.02-.023-.01a.547.547 0 0 0-.113-.028.384.384 0 0 0-.111-.017l-.02.002-.106.13c-.102.124-.106.129-.119.135a.087.087 0 0 1-.03.008l-.146.002h-.128l-.02-.007a.118.118 0 0 0-.037-.006c-.029 0-.038.008-.046.041a.724.724 0 0 1-.02.057c-.012.033-.014.04-.014.054 0 .018.005.029.02.043.022.022.053.032.14.044.05.008.06.008.1.008.045 0 .127-.003.205-.008a.318.318 0 0 1 .2.042.49.49 0 0 0 .032.015l.023-.031z" style="marker:none" fill="#ececec" fill-rule="evenodd" stroke-width=".001" overflow="visible"/><path style="marker:none" d="M.352 4.222l-.166.072s-.143-.006-.201.03c-.042.024-.104.07-.087.114.018.046.095.024.144.03.058.005.173 0 .173 0s.101-.044.116.028c.014.072.055.112.029.159-.036.062-.132.06-.202.072-.057.01-.116 0-.173 0-.068 0-.137-.014-.202 0a.645.645 0 0 0-.13.058s-.061-.085-.087-.13c-.028-.051-.072-.159-.072-.159s-.071-.1-.086-.159c-.007-.027 0-.086 0-.086s.103-.048.158-.058c.043-.007.13 0 .13 0l-.13-.13-.1-.13-.102-.115.26-.1s.216-.058.274-.058c.058 0 .136.137.136.137l.158.212z" stroke-width=".025" overflow="visible"/><path style="marker:none" d="M.314 4.466l-.172-.172m-.442-.1l.202.252" fill="none" stroke-width=".025" overflow="visible"/><path d="M-.194 4.306a2.152 2.152 0 0 1-.092-.117 3.88 3.88 0 0 0 .244-.06.38.38 0 0 1 .073.03.88.88 0 0 1 .15.1c.016.012.017.014.014.016-.006.004-.012.005-.06.006-.09.003-.134.014-.18.044a.25.25 0 0 0-.065.065l-.006.012-.078-.096z" style="marker:none" fill="#ececec" fill-rule="evenodd" stroke-width=".001" overflow="visible"/><path d="M-.366 4.734a.984.984 0 0 1-.11-.202.434.434 0 0 0-.04-.076c-.058-.09-.07-.123-.065-.176l.002-.02.023-.01a.547.547 0 0 1 .113-.028.384.384 0 0 1 .11-.017l.022.002.105.13c.102.124.106.129.118.135a.087.087 0 0 0 .03.008l.146.002h.129l.02-.007a.118.118 0 0 1 .036-.006c.03 0 .038.008.047.041.002.01.011.036.019.057.012.033.014.04.014.054 0 .018-.004.029-.02.043-.021.022-.052.032-.139.044a.505.505 0 0 1-.1.008c-.045 0-.127-.003-.205-.008a.318.318 0 0 0-.2.042.49.49 0 0 1-.032.015l-.023-.031z" style="marker:none" fill="#ececec" fill-rule="evenodd" stroke-width=".001" overflow="visible"/></g><path d="M-5 5.792c.042-.021.083.008.093-.158.154-.104.156-.219.147-.339.13-.101.173-.088.173-.307-.11.061-.224.13-.27.03.193-.46.03-.534.042-.798.096-.433.206-.86.8-1.1.126.06.19.133.024.258.09.103.673-.236.129-.505.193-.004.45-.06.663-.08.164-.016.302-.01.364.056.434.282.38.191.965.27.525.08.704 1.538.03 1.734-.143-.05-.324-.091.025-.252-.082-.031-.167-.06-.154-.203l-.258.025c-.119.227-.189.457.08.7-.224.033-.316-.035-.455-.055a.233.233 0 0 0-.215.086c-.251-.222-.166-.405-.154-.596l-.338-.664c-.038-.21.384-1.068.818-.105l.442-.08c-.125-.231-.32-.82-1.125-.547l-.012-.258c-.239.178-.358.52-.72.529.67.771-.38.849-.582 1.268-.09.265-.006.88.51.565-.197-.019-.426-.38.049-.39.441.235.764.678 1.325.705.79.034 2.133-1.325 1.314-2.313.172-.04.35-.028.565.445.173-.155.224-.567.521-.461-.037.188.019.152.049.179.146.038.177-.05.179-.169.704-.038.466 1.096-.489.763.286.1.415-.01.753.314.337.325 1.297.52 1.26.617-.01.109-.13.14-.265.161.16.217.604.207.517-.256.494-.136.713-.538 1.256-.625.228.034.21.286.033.332.21.01.404-.017.403-.38-.017-.186-.237-.292-.422-.28-.152.002-.325.082-.502.185.057-.33.062-.678-.323-.663-.368.02-.463.736-.056.645a.237.237 0 0 0 .104-.342c.262.75-.547.743-.76.784-.212.04-.853-.11-.971-.407.066-.068.05-.15.418-.163-.133.142-.087.257.157.342.317-.146.297-.426-.027-.483a.647.647 0 0 0-.445.021c.128-.306.039-.648-.554-1.07-.037.068-.15.593-.206-.027.05-.456-.765-.189-.294.136.024.18-.26.154-.385.185-.723-.229-.804-.895-1.88-.804-.91.013-1.643.323-2.079.62.564-.056.092.38-.267.063-.359.317-.83-.12-.267-.064-.436-.296-1.169-.606-2.08-.619-1.075-.091-1.156.575-1.879.804-.124-.031-.409-.005-.385-.185.47-.325-.344-.592-.294-.136-.057.62-.169.095-.206.028-.593.422-.682.763-.554 1.07a.647.647 0 0 0-.445-.022c-.324.057-.344.337-.027.483.244-.085.29-.2.157-.342.368.013.352.095.418.163-.118.297-.759.448-.972.407-.212-.04-1.021-.034-.759-.784a.237.237 0 0 0 .104.342c.407.09.312-.624-.056-.645-.385-.015-.38.333-.323.664-.177-.103-.35-.184-.502-.185-.185-.013-.405.093-.422.28 0 .362.192.39.403.379-.178-.046-.195-.297.033-.332.543.087.762.49 1.256.625-.087.463.356.473.517.256-.135-.02-.255-.052-.266-.16-.035-.098.924-.293 1.261-.617.338-.325.467-.214.753-.315-.955.333-1.193-.801-.489-.762.002.119.033.207.18.168.029-.027.085.01.048-.18.297-.105.348.307.521.462.216-.473.393-.485.565-.445-.82.988.523 2.347 1.314 2.313.561-.026.884-.47 1.325-.706.475.011.246.372.049.391.516.314.6-.3.51-.564-.202-.42-1.251-.498-.583-1.269-.361-.01-.48-.351-.72-.529l-.011.259c-.804-.274-1 .315-1.125.547l.442.08c.434-.963.856-.107.818.104l-.338.664c.012.191.097.374-.154.596 0 0-.076-.106-.215-.086-.14.02-.231.088-.455.055.27-.243.199-.473.08-.7l-.258-.025c.013.143-.072.172-.154.203.349.16.168.202.025.252-.674-.196-.495-1.653.03-1.734.584-.079.53.013.965-.27.062-.066.2-.072.364-.056.213.02.47.076.663.08-.544.27.039.608.13.505-.167-.125-.103-.199.024-.259.593.24.703.668.799 1.1.012.265-.151.34.043.8-.047.098-.16.03-.27-.03-.001.219.041.205.172.307-.01.12-.007.235.147.338.01.166.05.137.093.158z" fill="#b08429" fill-rule="evenodd" stroke="#000" stroke-width=".016"/><g fill="#69521b" fill-rule="evenodd"><path d="M3.258 4.489c.45-.633-.617-.393-.834-.176.817-.924 1.412-.03.834.176zm-1.237-.934c.034.2.075.367.282.424-.233.243-.523.007-.282-.424z"/><path d="M2.698 4.343c-.356.154-.648.432-1.11.453.534.052.687-.233 1.11-.453zm-1.136.637C1.72 4.72.796 4.704.37 4.236l-.131.055c.443.433 1.286.488 1.324.69z"/><path d="M-.174 3.128c.508-.277 1.041 1.027.03.788l-.211.105c1.309.515.961-1.27.18-.893zm-.5.053c.427-.117.703-.26.461-.494-.162-.07-.266.168.011.209-.047.122-.314.19-.472.285zm0 0c-.362.095-1.095-.678-1.856-.692 1.071.07 1.78.789 1.856.692zm-.52.379c-.146-.574-.904-.475-1.34-.823.234.417.956.123 1.208.835l.132-.011zm-.096.753c-.27.414-.307.957-1.306 1.032.199-.08.841.189 1.384-1.032h-.077z"/><path d="M-2.497 5.115c-.145.183-.29.403.105.445l-.19.011c-.149.026-.274-.21.085-.456zm.537-.495c-.307.18.06.241.21.34-.478-.007-.561-.36-.21-.34zm-.285-.9c-.298-.215-.364-.698-1.175-.319.1-.112.157-.283.198-.483.003.12.007.27.01.307.783-.157.712.283.967.495zm-.587-.882c-.04-.106.042-.393.06-.587-.066.142-.032.244-.09.356-.123-.026-.082-.193-.101-.325-.009.193-.015.29-.052.336-.106-.023-.19-.087-.209-.285-.02.077-.048.16-.01.209-.137.01-.232.061-.341.098.167.007.485-.035.412.132.124.009.266.01.331.066zm-.248 1.705c-.082.278-.06.526.242.692a.896.896 0 0 1-.242-.692zm-.466.05c.145.26.247.538.675.774-.502-.135-.988-.73-1.347-.39.22-.271.526-.21.853.06l-.181-.444zm-.127-1.181c.017.111.094.333.143.505-.087-.158-.126-.364-.285-.45l.142-.055zm-.208-.099c.241-.314-.191-.385-.302-.353-.146.29-.304.283-.445.376.283-.225.554-.373.175-.693.043.01.06.021.142.039.217-.04.447-.04.627-.105.016.047.023.092-.01.132-.088-.078-.389.015-.583.022l.094.164c.337-.129.672.338.302.418zm-.853-.146c-.034.062-.116.109-.113.181-.022.076.004.153.085.176.028.029.115.041.108.084-.067.007-.111-.066-.174-.084-.056-.015-.015.086-.027.122.024.065-.067.075-.05.144.003.076.092.037.139.045.036.028-.068.029-.095.021-.085-.01-.037.092-.048.139-.047.049-.023-.084-.026-.116.003-.06-.014-.149.009-.191.067-.012.043-.095.044-.143V3.27c.046-.026.09-.156.148-.104zm-8.524 1.322c-.45-.633.617-.393.835-.176-.818-.924-1.412-.03-.835.176zm1.237-.934c-.034.2-.075.367-.282.424.233.243.523.007.282-.424z"/><path d="M-12.698 4.343c.356.154.648.432 1.11.453-.534.052-.687-.233-1.11-.453zm1.136.637c-.157-.26.766-.276 1.193-.744l.131.055c-.443.433-1.286.488-1.324.69z"/><path d="M-9.826 3.128c-.508-.277-1.04 1.027-.03.788l.211.105c-1.308.515-.961-1.27-.18-.893zm.5.054c-.427-.118-.703-.261-.461-.495.162-.07.266.168-.011.209.047.123.314.19.472.286zm0 0c.362.095 1.095-.68 1.856-.692-1.071.07-1.78.788-1.856.692zm.52.378c.146-.574.904-.475 1.34-.823-.233.417-.956.123-1.208.835l-.132-.011zm.096.753c.27.414.307.957 1.306 1.032-.199-.08-.841.189-1.384-1.032h.077z"/><path d="M-7.503 5.115c.145.183.291.403-.105.445l.19.011c.149.026.274-.21-.085-.456zm-.537-.495c.307.18-.06.241-.21.34.478-.007.561-.36.21-.34zm.285-.9c.298-.215.365-.698 1.175-.319-.1-.112-.157-.283-.198-.483-.003.12-.007.27-.01.307-.783-.157-.712.283-.967.495zm.587-.882c.04-.106-.042-.393-.06-.587.066.142.033.244.09.356.123-.026.083-.193.101-.325.009.193.015.29.052.336.106-.023.19-.087.209-.285.02.077.048.16.011.209.136.01.231.061.34.098-.167.007-.485-.035-.412.132-.124.009-.266.01-.331.066zm.248 1.705c.082.278.06.526-.242.692a.896.896 0 0 0 .242-.692zm.466.05c-.145.26-.247.539-.675.774.502-.135.988-.73 1.347-.39-.22-.271-.526-.21-.853.06l.181-.444zm.127-1.181c-.017.111-.094.333-.143.505.087-.158.126-.364.285-.45l-.142-.055zm.208-.099c-.241-.314.191-.385.302-.353.147.29.304.283.445.376-.283-.225-.554-.373-.175-.693-.043.01-.06.021-.142.039-.217-.04-.447-.04-.627-.105-.016.047-.023.092.01.132.088-.078.389.015.583.022l-.094.164c-.337-.129-.672.338-.302.418zm.853-.146c.034.062.116.109.113.181.022.076-.004.153-.085.176-.028.029-.115.041-.108.084.067.007.111-.066.174-.084.056-.015.016.086.027.122-.023.065.067.075.05.144-.003.076-.092.037-.139.045-.036.028.068.029.095.021.085-.01.037.092.048.139.047.049.023-.084.026-.116-.003-.06.014-.149-.009-.191-.067-.012-.043-.095-.044-.143V3.27c-.046-.026-.09-.156-.148-.104zm-.144 1.821c-.001.22.04.206.17.308-.01.12-.007.235.147.338.01.166.045.137.087.158.06-.002.093-.035.099-.159.027-.01.125-.1.135-.168-.06.052-.119-.024-.187.187-.05-.04-.032-.094-.01-.148-.283.019-.255-.139-.127-.285-.114-.02-.228.05-.314-.23z"/></g><g stroke="#000"><path d="M-5 4.737c.47.01 1.23-.015 3.062-.285 1.831-.27 2.053-.342 2.244-.53-.31-.442-.547-.491-.915-.525-.808.269-3.62.604-4.39.604-.77 0-3.364-.25-4.391-.604-.369.034-.605.083-.916.525.192.188.414.26 2.245.53.287.063 2.451.295 3.061.285z" fill="#fff" stroke-width=".025" fill-rule="evenodd"/><path d="M-9.325 3.696l-.141-.049-.005.011c.04.012.04.023.028.057l-.07.214c-.017.04-.017.04-.062.03l-.005.01.163.055.006-.011c-.051-.016-.051-.022-.04-.062l.038-.101.074.027c.084.027.118.004.134-.036.022-.062-.018-.112-.12-.145zm.058.107c-.01.045-.05.062-.1.046l-.046-.01.038-.109c.017-.033.017-.033.05-.022.046.016.08.043.058.095zm.349-.009a.175.175 0 0 0-.218.127c-.033.096.036.191.12.212.097.027.197-.024.219-.12a.18.18 0 0 0-.12-.219zm.042.197c-.017.068-.055.142-.128.12-.074-.016-.075-.1-.059-.168.022-.063.06-.142.134-.12.074.022.075.106.053.168zm.458.209l-.052-.14c0-.011-.006-.011-.011-.017v-.006c.039.006.078-.006.09-.051.01-.057-.03-.107-.138-.123l-.14-.032-.006.017c.04.005.04.011.035.05l-.043.22c-.011.046-.011.046-.05.04v.012l.152.032.006-.017c-.046-.005-.051-.01-.04-.05l.02-.108.035.006c.022.005.028.016.034.044l.04.14.108.017.006-.012c-.034-.005-.04-.01-.046-.022zm-.143-.184l-.033-.011.026-.13.029.005c.056.005.079.034.068.084-.005.04-.038.057-.09.052zm.617.282c-.05 0-.056-.01-.05-.05l.025-.22c.005-.045.01-.05.056-.04v-.011l-.164-.02v.01c.045.005.046.011.04.05l-.025.226c-.006.04-.011.04-.05.04l-.006.011.31.037.038-.097-.01-.005c-.051.068-.079.085-.164.07zm.592.028l-.115-.304v-.011c-.006 0-.006 0-.012.006-.019.024-.017.026-.039.057l-.105.187c-.027.05-.038.068-.078.068v.017l.107.005.006-.012c-.028 0-.045-.01-.04-.027l.011-.029.017-.034.152.01.017.039c0 .011.012.028.006.04 0 .005-.005.016-.039.011v.011l.164.021v-.016c-.029-.006-.04-.006-.052-.04zm-.232-.1l.078-.124.047.14-.125-.016zm3.726.217c-.05 0-.057-.005-.062-.04l-.014-.23c0-.04.005-.045.044-.046V4.11l-.163.013v.012c.045 0 .05.005.051.044l.014.226c.006.04 0 .045-.039.05v.012l.31-.02.021-.102h-.01c-.04.074-.068.091-.152.098zm.585-.08l-.161-.28c-.006-.011-.012-.011-.012-.011-.005 0-.005 0-.005.006a.226.226 0 0 0-.033.062l-.071.203c-.016.057-.027.074-.061.086v.01l.107-.006v-.017c-.023 0-.04 0-.04-.016 0-.006 0-.023.005-.04l.01-.034.153-.007.017.034c.012.005.018.022.018.033 0 .011-.006.017-.034.023v.011l.164-.013v-.011c-.029 0-.046-.005-.057-.033zm-.243-.06l.049-.135.069.123-.118.012zM-3 4.028v.012c.039 0 .044 0 .05.044l.02.22c.006.045 0 .05-.045.05v.018l.175-.019-.006-.01c-.045.005-.05 0-.057-.04l-.006-.113h.016c.05-.006.107-.007.12.061l.01-.006-.012-.146h-.012c.001.068-.055.074-.106.08h-.017l-.018-.13c0-.016.005-.016.04-.022.067-.006.129.004.174.066l.006-.006-.04-.084-.293.025zm.703-.068c.033-.001.05-.001.056.038l.03.18c.007.073-.06.107-.117.114-.056.006-.112-.01-.12-.095l-.023-.168c-.007-.034-.007-.04.039-.052v-.01l-.152.023v.012c.028-.006.04.01.045.039l.024.162c.013.096.086.113.17.105.074-.011.158-.046.151-.136l-.03-.18c-.006-.034.01-.04.04-.045l-.001-.012-.113.013v.011zm.424.237l-.044.006c-.018 0-.023 0-.024-.016l-.023-.135.028-.006c.067-.012.101.01.113.06h.006l-.019-.157h-.017c.006.056-.038.08-.084.086h-.028l-.024-.14.08-.013c.05-.006.078.016.13.06l.01-.005-.051-.084-.27.048v.011c.034-.006.034-.006.04.04l.036.219c.006.045.006.05-.027.05l.005.018.287-.049.01-.096-.01-.005c-.034.068-.045.096-.124.108zm.551-.123l-.102-.117c-.006-.006-.012-.011-.018-.011.034-.012.073-.035.067-.08-.012-.056-.063-.09-.175-.071l-.14.024.005.011c.034-.006.034 0 .045.034l.036.23c.007.039.007.039-.033.051l.006.01.152-.023v-.017c-.045.006-.05 0-.057-.033l-.018-.107.04-.012c.016 0 .028.011.039.034l.092.117.112-.018v-.017c-.034.006-.045 0-.051-.005zm-.204-.127l-.028.005-.03-.135.034-.006c.05-.005.084.01.09.056.012.045-.016.073-.066.08zm.486.099l-.074.012.154-.351V3.69l-.27.054-.01.096h.011c.017-.04.05-.097.1-.103l.085-.012-.148.345v.011l.275-.048.01-.107h-.01c-.017.034-.034.102-.123.12zm.555-.173l-.194-.263-.006-.005c-.006 0-.006 0-.011.005-.015.032-.015.038-.022.063l-.048.209c-.011.056-.016.073-.05.09v.012l.107-.024-.006-.011c-.022.006-.034 0-.04-.011 0-.006 0-.023.006-.034l.005-.04.146-.03.029.034a.078.078 0 0 1 .017.028c.005.012-.006.023-.034.029v.017l.163-.036v-.01c-.033 0-.039 0-.062-.023zm-.254-.025l.033-.141.091.117zm-5.989.557l-.072-.141a.012.012 0 0 0-.011-.012v-.005c.04 0 .079-.017.085-.056.006-.062-.039-.107-.152-.114l-.146-.012v.011c.04 0 .045.006.04.051l-.02.225c-.005.04-.005.045-.045.04v.01l.158.019v-.017c-.045 0-.045-.006-.045-.046l.012-.112.04.006c.016 0 .022.017.033.04l.056.135.112.012v-.017c-.033 0-.04-.012-.045-.017zm-.168-.176h-.028l.012-.135h.029c.05.006.084.029.078.074-.006.045-.034.067-.09.061zm.636.2l-.122-.306c-.005-.005-.005-.005-.011-.005l-.006.005c-.02.012-.028.029-.04.05l-.097.192c-.028.05-.04.067-.08.073v.01l.114.013v-.012c-.028-.005-.04-.017-.04-.028 0-.006.006-.017.012-.034l.017-.033.152.012.017.034c0 .01.01.028.01.04 0 .01-.01.016-.044.01v.017l.168.012v-.01c-.033-.007-.04-.012-.05-.04zm-.241-.098l.068-.124.055.136-.123-.012zm.528.144l-.073-.006.227-.308V4.15l-.276-.008-.029.09h.012c.022-.028.062-.073.118-.073l.085.001-.222.309v.016l.282.008.034-.101h-.011c-.028.028-.057.09-.147.083zm1.489-.305a.18.18 0 0 0-.17.184c0 .102.09.176.185.17a.172.172 0 0 0 .17-.178.175.175 0 0 0-.185-.176zm.015.332c-.073 0-.1-.085-.106-.153 0-.067.024-.152.097-.151.073 0 .095.08.1.147.006.068-.017.152-.09.157zm-.527-.314V4.2c.034 0 .05.012.05.046 0-.04.011-.045.045-.045V4.19h-.095zm.05.057l-.002.191-.217-.242-.13-.001v.011c.011 0 .045-.001.045.016l.005.255c0 .028-.017.045-.046.044v.016h.117V4.52c-.033 0-.056-.012-.056-.045l-.002-.255.284.317h.006l-.005-.292z" stroke-width=".016"/></g><g stroke="#000" stroke-width=".016"><path d="M-5.56 4.164a.189.189 0 0 0-.181.174c0 .1.083.18.18.181.095 0 .18-.072.18-.173a.178.178 0 0 0-.179-.182zm-.002.327c-.073 0-.095-.08-.095-.147 0-.073.03-.152.097-.152.08 0 .101.085.1.153-.005.068-.029.146-.102.146z"/><path style="marker:none" d="M-5.624 4.13l.194-.005c.002-.022-.014-.025-.027-.032z" color="#000" overflow="visible"/></g><g stroke="#4d4d4d"><path d="M-4.221-2.296c.936-1.194 1.466-1.449 1.717-.79.099.258-.543.547.02 1.014.256.115.39-.076.556-.184.73-.041 1.936.506 2.244-.439.034-.184-.11-.3-.117-.416-.014-.2.143-.507.409-.47 1.128.155 2.128 4.636.416 7.248.077-.209.165-.554.263-1.037-.203.405-.406.71-.61.777.086-.174.22-.253.23-.578-.27.406-.352.384-.483.475.483-.853.357-1.257.483-1.846-.08.094-.159.255-.238.214.067-.1.094-.22.12-.341-.07.065-.146.122-.278.103.053-.061.132-.079.127-.238-.072.009-.154.06-.206-.008.125-.095.078-.19.11-.285C.474.94.405.998.336.935.408.855.494.81.526.634.38.697.277.716.234.674.348.612.42.493.471.347.384.37.297.44.21.364.274.241.243.142.226.04.039.08.014.24-.028.341c.355.536.613 1.51.887 2.408-.132-.057-.27-.106-.34-.245-.058.202-.114.389-.15.404.046-.08.007-.16-.05-.24a.273.273 0 0 1-.178.247 4.969 4.969 0 0 0-.296-1.22c-.175.19-.27.495-.214 1.023-.18-.085-.222-.319-.222-.317-.047.11-.095.247-.142.237-.074-.055-.131-.247-.178-.306-.018-.021-.016.15-.041.14-.22-.088-.172-.422-.28-.594-.126-.088-.077.268-.333.46l-.048-.357-.11.15c-.04-.215-.08-.32-.12-.388l.008.103c-.067.002-.118-.086-.142-.317l-.048.119c-.082-.252-.127-.276-.19-.412-.038-.107-.058-.152-.016-.238-.008.077-.2.107-.312.121.265-.382.077-.376.146-1.095.04-.157.18-.19.3-.246-.192-.05-.235-.12-.284-.19.009.127.034.31-.016.237-.025.003-.03.022-.238-.118.018.083.027.171.127.214-.163.059-.19-.073-.254-.151-.049.077-.125.078-.095.372-.082-.138-.188-.27-.19-.427-.04.054-.13.06-.095.19-.749.901-1.245 1.803-1.476 2.704-.092-.13-.152-.014-.252-.002-.16.02-.277.101-.494-1.072.113-1.134.53-2.696 1.142-3.83z" stroke-width=".016"/><g stroke-width=".031"><path d="M-1.993-2.031C-3.129-.083-1.054.65-.323 1.433c-.062-.11-.096-.156-.224-.421.083.136.224.23.403.296C-.263.957-.437.8-.601.608c.04-.027.089.002.107-.206.066.226.186.326.323.386C-.237.689-.353.603-.332.483c.011.048.044.089.197.09-.057-.054-.1-.105-.063-.135.063.003.113-.006.197.018C-.132.338-.155.183-.144.017-.17.052-.203.065-.252.035l.018-.126c-.15.115-.303.258-.43.189.028-.06.006-.095-.045-.117a.505.505 0 0 1-.233 0c.03-.039.026-.078 0-.116-.069.027-.123.012-.179 0 .09-.199.111-.432.332-.565-.073 0-.071-.009-.072-.018.057-.064.038-.185.009-.314-.035.065-.033.123-.116.158a.195.195 0 0 0 .026-.14.616.616 0 0 1-.143.135.864.864 0 0 0 .018-.359.387.387 0 0 1-.17.072c.06-.1.02-.191.026-.287-.076.067-.144.093-.206.09a.414.414 0 0 0 .054-.233c-.089.053-.176.085-.161.08.019-.048.051-.094.018-.152a.305.305 0 0 0-.188.045c.019-.051.055-.097.026-.161-.036-.018-.08.016-.125.053-.008-.052-.015-.104.027-.17-.043.01-.083.013-.153.08-.02-.028-.012-.068.018-.116-.041.016-.078-.024-.092-.094z" fill="#1a1a1a" fill-rule="evenodd"/><path d="M-3.38-3.164c-.003.026-.031.076.016.075.075.01.178.002.231-.004.004.076.003.153.027.223.14.033.238-.067.332-.152-.109.204.137.151.202.1m-.822-.152c-.235.257-.57.573-.712.89.07.125.07.139.07.139m.31-.58c.111.122-.166.36-.255.235m.082.048c-.016.042.003.118.028.159m-.165.138c.04-.123.274-.151.276-.366m.027-.041c.102-.008.176-.083.221-.166m-.09-.242c.045.117-.026.265-.04.38m.344-.539c-.143.091-.076.26-.034.387m-.124-.194c-.049.345-.185.284.076.07" fill="none"/><path d="M-3.23-2.841l-.083.172-.02.037-.008-.016m.154-.302c-.04.04-.177.182-.193.2m.352-.138c-.049.14-.133.349-.31.352m.054.001c-.016.123-.035.256.028.373m.11-.422a.48.48 0 0 1-.11.4m.2-.635c-.043.207.116.442-.069.608m.083-.207c.183-.11.307-.246.338-.463m-.227.242c.013-.094.078-.162.13-.235m.007.242c.002.331.02.125.09.09m-.876.09c.081.239-.337.274-.36.428m.29-.23c-.033.062.072.163.07.223m.124-.594c.092.133-.043.293.013.421-.074.081-.046.111-.043.153m.043-.146c.05-.062.058-.152.132-.2" fill="none"/><path d="M-2.942-2.492c.03.092.045.238.016.297a.232.232 0 0 0 .155-.058c.003.12-.011.208-.023.3.038-.006.073-.005.122-.046-.013.14.015.198.042.26.056-.097.127-.128.194-.176" fill="none"/><path d="M-2.504-1.854c-.115.691.055.714.059.714-.058-.526.088-.593.192-.757m-.032.043a2.728 2.728 0 0 0-.058.49m-.107.197c.007.223.019.482.096.704m-.013.061c-.169-.095-.144-.458-.185-.705m-.06.845c-.187-.274-.014-.814-.057-1.22m-.091.145c.061.403-.059.692.022 1.13-.114-.066-.12-.622-.17-.98m-.118.949c-.07-.177-.05-.386-.037-.576m1.002-.076c-.075.108-.058.226-.005.347-.013-.122.028-.2.101-.25m-.237-.769a.432.432 0 0 0 .018.3c.013-.109.062-.146.118-.17-.05.126-.024.238-.006.351.043-.019.051-.073.038-.15.028.17.05.27.064.283m.208.246c.052.136.06.285.202.395-.06.021-.103-.008-.15-.027.082.142.279.234.454.336m-.714-.336c.055.077.135.21.217.3l-.207-.124c.108.048.474.295.496.368" fill="none"/><path d="M-1.32-.862c.004.141.007.283.08.41"/><path d="M-1.48-1.145c-.04.243-.039.447.048.576m-.106-.896a2.59 2.59 0 0 1-.059.518m-.187-.806c-.053.314-.068.56.08.71m-.209-.772c-.02.085-.032.266.044.323m-.036-.448c-.025.06-.125.246-.055.305M-2.17-.02c.025.158.041.32-.045.463m.218-.438c-.086.117-.095.268-.075.407-.003.085-.035.218-.128.258m.875-.37c.077.128.166.256.341.384-.104-.05-.225-.037-.304-.176" fill="none"/><path d="M-.14 1.295c.316.675.357.493.453 1.388m.221-.168C.426 1.755.126 1.42-.19.773M.527 2.5C.51 1.75.258 1.212-.144.562"/><path d="M-2.354.128c.129.04.139.195.147.308.028.19-.017.576-.036.592m.049-.095c.15.112.1.32.166.474" fill="none"/><path d="M-2.076.46c.016.144.173.296.118.448-.02.064-.09.127-.14.169m.12-.128c-.107.12.068.355.041.491m.155-.396c-.036.137-.17.458-.197.48m.154-.24c.002.146-.103.334-.017.468m.25-.603c-.088.12-.112.273-.117.418-.016.075-.093.12-.129.188M-1.69.706c-.035.065-.11.26-.124.084-.111-.13-.075-.445-.067-.502" fill="none"/><path d="M-1.628.46c-.056.167.053.322.095.477.007.278.028.53-.118.77-.037.08-.028.174-.07.253m.295-1.37c.003.107-.062.251-.117.342" fill="none"/><path d="M-1.413.792c.108.117.087.288.15.422a.3.3 0 0 0 .083.095"/><path d="M-1.327.675c.099.143.089.338.214.467.07.134-.115.533-.134.603"/><path d="M-1.475 1.185c.11.119.218.616.16.735m-.197-.365a.55.55 0 0 1-.072.484.126.126 0 0 0-.008.069" fill="none"/><path d="M-1.343 1.504c-.003.057.104.132.129.166m.452-.35c.038.16.109.31.147.468.083.178.162.243.251.418m-.238-.726c.062.127.192.459.172.493m.037-.406c.023.081.028.167.061.246m.032-.32a.34.34 0 0 1-.073.177m-.107-.306a.518.518 0 0 1-.08.22m-.319-.552c.029.129.151.208.19.332M-1.081.86c.024.093.058.193.024.289m.099-.099c.017.086-.044.168-.019.252m.062-.067c-.008.126.03.249.03.375m.019-.203c.027.06.155.018.157.098m-.022.111c-.1.075-.046.207-.017.304.025.088.004.192.08.26.075.084.103.108.07.236m-.17-.37a.325.325 0 0 0 .062.394m-.148-.714c-.107.103-.161.5-.05.604m-.246-.628c.04.11.151.2.195.31m-.095-.525c.074.098.06.239.132.34m-.088-.273c-.003.079-.064.18-.1.246m.043.136c-.017.085.05.18-.012.258m2.299-.805c-.118.529-.054 1.052-.33 1.455m.6-1.154c-.06.34-.044.603-.224.99"/><path d="M-1.651-2.093c-.11.113.024.19-.017.315m.364-.118c-.07.068-.166.119-.203.226" fill="none"/><path d="M-1.38-1.587c.136-.078.125-.322.332-.394m-.068.177c-.089.11.046.274-.096.349m.192-.293c-.08.167-.021.332-.05.507m.327-.753c-.065.152-.136.336-.32.371m.433-.293a.648.648 0 0 1-.228.147"/><path d="M-.49-1.955c-.033.198-.27.38-.454.37l.03-.122"/><path d="M-.878-1.59c-.13.065-.158.615.019.367.121-.092.066-.308.133-.428m-.062.318c.103.103 0 .208-.063.297m-.089-.126c.036.047-.01.127 0 .164m.524-.844c-.08.153-.185.343-.362.416m.234-.404c.235-.162.588-.086.786-.356.061-.136.436-.451.07-.508"/><path d="M-.021-1.995c.215.197-.301.77-.249.304-.045-.075 0-.167.011-.243m.125-.033c.022.084-.02.156-.05.231m-.142.034c-.113.198-.326.321-.43.523M-.27-1.6c-.11.133-.17.299-.31.41"/><path d="M-.706-1.258c.114.135-.21.597.061.357.089-.209.332-.332.421-.536m-.046.077c-.09.251-.378.717-.547.954"/><path d="M-.855-.137C-.65-.241-.463-.58-.4-.818c.081-.165.146-.293.092-.458m.112.3c-.004.295-.22.577-.45.749m.1.107c.094-.29.442-.404.494-.691.046-.036.103-.116.052-.17m.096-.485c.072.149-.173.434-.293.555m.113-.662c.17.177.031.34-.101.496"/><path d="M.063-1.248c.25.28.012.564-.188.768-.073.14-.194.239-.302.349M.05-2.027c.07.11.104.56.074.49-.047-.06-.099-.122-.118-.198m.191-.023c.088.172-.012.42.04.62"/><path d="M.27-1.983c-.013.289.248.475.147.793.023.29-.278.45-.36.71-.072.131-.216.204-.299.32m.67-2.161c.105.152.097.31.073.484"/><path d="M.512-2.53c.155.193.106.463.045.687 0 .09-.124.234-.155.318m.159-.305c.11.281-.086.584-.026.86"/><path d="M.636-1.893c.065.25.172.512.064.764-.042.134-.227.52-.216.17"/><path d="M-.124.015c.197-.188.438-.372.461-.673a.908.908 0 0 1 .157-.179M.017.066c.163-.22.392-.43.445-.704m.011.231c.012.205-.18.404-.246.454m.089.097C.368.024.514.062.55-.28.491-.254.812.185.526.636M.53.077C.513.177.521.27.464.35M.54-.598c-.016.226.12.348.158.551M.563-.773c.084.293.165.447.242.703l.016.047.007.049M.693-.897a.937.937 0 0 1-.068.305m.13-.513c-.088.219.07.475-.07.68m.12-.235c.054.119.04.328-.056.434M.732.071C.79.357.697.663.538.917m.095.285c.07-.321.26-.634.27-.967.023-.142 0-.287.016-.429m-.473-2.44c.158-.214-.241-.628.146-.707.321-.003.514.3.618.562.077.13.09.376.318.362m-.851-.922c-.062.263.238.54.24.821m-.444-.777c.039.09.14.22.243.238m-.12-.061c-.071.216.073.542.31.594M.63-2.732c-.04.084-.024.212-.072.287m.18-.152c-.073.254.05.48.011.726"/><path d="M.84-2.53c.022.312.122.612-.08.856l-.024.015-.032.008m.15-1.539c.184.097.187.45.382.464m-.481-.4c.217.2.296.508.292.793-.007.089-.093.21.02.432"/><path d="M.924-2.023c.037.251.317.349.242.017.017-.21.205-.407 0-.59l-.002-.148m.221.288c.02.179-.064.472.048.56a.592.592 0 0 1 .098-.33m-.099.332c.016.291.042 1.232.466 1.14"/><path d="M1.272-2.074c-.02.295.044.576.098.863.02.142-.062.446-.075.134-.066-.204-.15-.569-.14-.676M.85-1.764c.114.19.152.49.198.732.016.149-.125.237-.108.388m-.157-.883c.182.241.003.543.062.765.008.032.01.08.022.096m.049.016c.19.587.027 1.907-.011 2.133m-.123-.145A2.32 2.32 0 0 0 .916.725m-.043.905c.128-.134.413-.212.465-.403a.536.536 0 0 0 .075.375m.098-.246c.033.113.09.267-.024.286-.066.01.234.343.248.372M1.404 1.6c.014-.06.083-.195.109-.252m-.197-2.29c.042.178.116.269.237.423m.04-.411c-.005.125.021.264-.08.36"/><path d="M1.554-.526c-.009.629.076 1.263-.04 1.886-.114-.28-.05-.598-.067-.894.003-.329.01-.658.017-.986m-.461-1.333c.056.341.123.71.18 1.052m.027.259c.024.663.051 1.33-.061 1.987m.123-2.269c.216.664.034 1.375.062 2.055"/><path d="M1.052-.863c.05.076.212.502.152.257-.009-.034.066-.143.078-.194m-.174.226C1.21-.24 1.125.398.996.48"/><path d="M.669 2.651l.178.088-.09-.302" fill-rule="evenodd"/><path d="M-4.688 1.159c-.05.54-.27 1.018-.13 1.486m-.22-1.283c-.047.343-.142.589-.089 1.01m2.332-4.502c-.147.113-.188.266-.218.439"/><path d="M-2.812-2.354c-.206.136-.242.408-.253.64-.027.086.048.26.05.35m-.057-.34c-.191.235-.097.584-.238.827"/><path d="M-3.124-1.786c-.138.219-.32.435-.295.708 0 .14.058.565.154.228m-.159.529c-.074.191.047.439.096.507m-.115.066c-.012-.131-.163-.14-.092-.477.047.044-.393.364-.258.88m.168-.533c-.016.101-.052.186-.023.28m.218-.926c-.053.22-.22.295-.318.477m.35-.651c-.169.254-.293.376-.445.596l-.03.04-.021.044m.411-.837a.937.937 0 0 0-.029.311m.034-.528c.016.235-.213.43-.142.67m-.042-.262c-.088.097-.14.3-.08.43m-.074.289c-.144.254-.148.574-.075.865m-.177.242c.03-.328-.054-.684.038-1.004.023-.141.09-.272.118-.412"/><path d="M-3.123-2.454c-.117.29-.304.544-.187.839l.02.02.027.018m-.619-.453c-.104.272-.416 1.16-.792.942m.999-1.065c-.07.287-.218.535-.356.792-.062.13-.078.443.03.15.125-.174.317-.495.34-.6m.293.083c-.166.146-.294.42-.412.636-.06.137.047.264-.016.402m.42-.793c-.247.175-.169.516-.293.71-.017.028-.033.073-.05.084m-.052.001c-.36.501-.61 1.807-.642 2.034m.161-.1a2.325 2.325 0 0 1 .06-.625m-.236.875c-.08-.167-.329-.328-.32-.526a.536.536 0 0 1-.186.334m-.018-.264c-.065.097-.167.226-.063.28.059.03-.329.254-.351.278m.442-.292c.005-.063-.019-.213-.026-.275m.887-2.12c-.094.157-.192.22-.355.33m.088-.404c-.033.121-.1.246-.034.368"/><path d="M-4.416-.765c-.184.6-.46 1.179-.54 1.807.194-.231.23-.554.338-.83.098-.314.192-.63.286-.944m.846-1.128c-.158.308-.334.638-.492.946m-.107.238c-.224.625-.455 1.25-.549 1.91m.577-2.197C-4.465-.397-4.51.335-4.745.974"/><path d="M-3.836-.932c-.07.056-.355.412-.223.198.02-.03-.018-.157-.015-.209m.097.269c-.2.285-.314.92-.216 1.037"/><path d="M-4.273 2.527l-.196.03.178-.26" fill-rule="evenodd"/></g></g><path d="M-7.117.212h4.234l.235 1.062-.235.848L-5 2.901l-2.117-.779-.235-.848z" opacity=".99" fill="#c00"/><path d="M-6.906-1.915h3.812l.424.71-.424.91.21.53h-4.233l.21-.53-.423-.91z" opacity=".99" fill="#0c3d91"/><path d="M-4.98-2.218c.419-.008.776.312 1.198.256.17-.03.328-.107.49-.167.296.3.594.601.889.904-.194.212-.44.407-.511.698-.077.38.093.75.223 1.1.165.415.227.906.027 1.32-.202.4-.637.625-1.063.71-.289.048-.598.063-.854.223-.142.095-.259.219-.396.322A.043.043 0 0 1-5 3.163a.043.043 0 0 1-.023-.015c-.137-.103-.254-.227-.396-.322-.256-.16-.565-.175-.854-.223-.426-.085-.86-.31-1.063-.71-.2-.414-.138-.905.027-1.32.13-.35.3-.72.223-1.1-.071-.29-.317-.486-.51-.698.294-.303.592-.604.889-.904.161.06.318.137.49.167.421.056.778-.264 1.196-.256h.041zm-.02.316a2.827 2.827 0 0 0-.67.082 2.405 2.405 0 0 1-.142.045l-.066.016a.92.92 0 0 1-.432.004l-.057-.015a1.63 1.63 0 0 1-.089-.026l-.062-.023a3.867 3.867 0 0 1-.134-.052l-.639.648.173.189.03.035.029.035v.001l.017.021.011.016.011.015.015.022v.002l.022.034.001.002.004.006.018.033.006.012c.004.01.01.019.013.028a.94.94 0 0 1 .017.037l.001.002a.99.99 0 0 1 .01.025l.007.016.003.01.007.02.006.021.001.004.01.03.001.007.008.037h.001l.004.025c0 .005.002.01.003.014l.004.026.002.012.002.013v.008l.004.033v.005l.002.02v.009l.002.028v.058a1.4 1.4 0 0 1-.027.254l-.009.046-.01.045a2.185 2.185 0 0 1-.012.051l-.001.006-.013.043-.001.004-.014.046-.007.023-.008.03c-.03.09-.066.183-.108.282-.23.54-.246 1.045-.042 1.354.2.301.582.493 1.104.552.52.075.618.143.994.457.376-.314.473-.382.994-.457.522-.06.904-.25 1.104-.552.204-.31.189-.815-.042-1.354a3.437 3.437 0 0 1-.108-.283l-.008-.03-.007-.022-.014-.046-.001-.004-.013-.043V.084a2.185 2.185 0 0 1-.013-.05l-.01-.046-.01-.046a1.68 1.68 0 0 1-.026-.254V-.37l.002-.028v-.008l.002-.02v-.006l.003-.033.001-.008.002-.013.002-.012.004-.026c0-.005.002-.01.003-.014l.004-.024v-.001c.004-.012.006-.025.009-.037l.002-.006.009-.03v-.005l.007-.02.007-.022.003-.009.007-.016a.99.99 0 0 1 .01-.025v-.002a.94.94 0 0 1 .018-.037l.013-.028.006-.012.018-.033.004-.006v-.002l.022-.034.001-.002.015-.022.01-.015c.005-.005.008-.01.012-.016l.016-.02.001-.002.029-.035.03-.035.173-.189-.639-.648c-.047.02-.092.036-.134.052l-.062.023c-.03.01-.06.018-.09.026l-.056.015a.976.976 0 0 1-.432-.004l-.066-.016a1.91 1.91 0 0 1-.143-.045A2.827 2.827 0 0 0-5-1.902z" fill="#b08429" stroke="#000" stroke-width=".019"/><g stroke="#000"><g stroke-width=".567"><path d="M389.2 454.48l4.788-104.02 33.894 24.898-1.768 10.324c1.578 1.826 3.777 2.173 3.692 7.961 1.88 3.004 1.294 5.511.097 7.895 1.483 1.885 2.859 5.182-.267 7.715.832 2.32 3.352 4.224-1.064 7.715 5.868 9.274-6.474 9.443-9.843 14.1 1.835 7.1-1.555 8.23-4.522 9.843-.346 3.551-1.003 6.947-6.917 7.715-1.098 2.394-1.07 4.788-4.789 7.183l-13.3-1.33z" transform="matrix(.02284 .00204 -.00238 .02723 -12.72 -15.38)" fill="#ca0000"/><path d="M406.23 370.95l-6.917 83.267m13.297-81.407l-11.17 83" transform="matrix(.02284 .00204 -.00238 .02723 -12.72 -15.38)" fill="none"/><path d="M310.47 502.416s13.555-3.89 19.331-6.886c13.396-6.948 6.681-17.642 34.904-19.816 8.495-.654 17.777 2.04 24.504 6.321 3.462 2.204 6.804 9.105 6.804 9.105 11.359 6.82 4.024 19.426-2.506 26.57-4.024 4.404-12.16 6.276-19.02 6.124-6.5-.144-17.751-6.593-17.751-6.593s-1.947 5.807-4.322 8.39c-7.5 8.16-16.582 1.532-16.582 1.532l-25.363-24.747z" fill="#ca0000" stroke-width=".44" transform="matrix(.02855 .00255 .00297 -.03404 -15.076 11.58)"/><path d="M357.049 517.637c-11.6-15.495-7.231-20.929-2.08-25.87" fill="none" stroke-width=".44" transform="matrix(.02855 .00255 .00297 -.03404 -15.076 11.58)"/><path d="M402.78 448.05l9.302-1.58m-8.952-4.04l15.093-4.388m-8.073-4.202l8.95-3.159m-12.11-1.761l21.762-12.285M411.2 419.09l18.779-10.004m-20.492 3.58l20.415-11.128m-19.955 2.973l19.859-10.868" transform="matrix(.02284 .00204 -.00238 .02723 -12.72 -15.38)" fill="none"/><path d="M327.506 474.566l13.385 8.888m-12.651-3.432l10.638 7.306m-9.825-1.263l6.978 4.77m-14.167 11.578l.032 5.034m4.622-5.014c.772 4.334.341 8.661 6.803 13.02 2.428 6.032 5.516 6.836 8.333 9.78m4.026-17.359c-1.303 7.597-7.21 7.068-12.53 7.578" fill="none" stroke-width=".44" transform="matrix(.02855 .00255 .00297 -.03404 -15.076 11.58)"/><path d="M332.011 498.727c1.018 5.417.085 10.176 8.886 15.302-.54 6.281 3.49 8.25 8.846 8.97m-12.755-26.361c1.295 7.178 3.552 12.524 8.013 13.675.544 7.71 7.335 8.31 8.16 9.616m3.428-2.912c-9.248-7.987-14.05-16.2-15.493-24.587m24.384 13.262c6.939.705 10.201 4.355 8.005 12.376m-4.934-17.238c8.017-.976 11.254 5.934 10.634 19.207m-2.16-14.619c7.83-2.77 15.307-5.983 19.037-13.883m-26.158 5.729c5.11-.526 10.337-1.745 14.163 5.257m-1.887 1.292c4.386 3.387 3.203 9.095 1.798 17.523" fill="none" stroke-width=".44" transform="matrix(.02855 .00255 .00297 -.03404 -15.076 11.58)"/><path d="M375.223 493.88c1.05.558 12.455-.584 12.279 7.036 4.54 4.443 1.401 15.903 1.332 19.654" fill="none" stroke-width=".44" transform="matrix(.02855 .00255 .00297 -.03404 -15.076 11.58)"/><path d="M377.794 491.94c.317.052 12.647-1.234 13.14 7.04 4.124 2.968 1.878 10.601 2.344 16.247m-48.854-33.86l4.837 1.97m2.552.706l-3.304-4.723m.936.17l3.467 3.262.137-5.358m1.827-.188l-.65 6.168m1.249.926l2.534-7.947m-.039 5.502l3.238-5.669m-.256 5.293l3.753-5.83m-2.044 6.861l6.16-6.794m-5.882 9.456c3.37-3.178 6.988-6.238 12.178-8.554m-6.027 8.453c2.855-3.124 6.569-5.439 10.808-7.26m-12.852 12.986c5.504-5.778 12.102-9.765 21.305-9.488m-17.269 10.157c5.778-3.94 11.77-7.548 20.285-7.22" fill="none" stroke-width=".44" transform="matrix(.02855 .00255 .00297 -.03404 -15.076 11.58)"/><path d="M383.12 489.687c4.544-.953 8.235-.077 9.176 6.698 6.453 1.502 4.01 7.872 5.591 12.04m-20.619-18.597c6.62-3.861 13.138-7.015 17.6 3.973" fill="none" stroke-width=".44" transform="matrix(.02855 .00255 .00297 -.03404 -15.076 11.58)"/></g><g stroke-width=".567"><path style="marker:none" transform="matrix(-.02284 .00204 .00238 .02723 2.714 -15.38)" d="M389.2 454.48l4.788-104.02 33.894 24.898-1.768 10.324c1.578 1.826 3.777 2.173 3.692 7.961 1.88 3.004 1.294 5.511.097 7.895 1.483 1.885 2.859 5.182-.267 7.715.832 2.32 3.352 4.224-1.064 7.715 5.868 9.274-6.474 9.443-9.843 14.1 1.835 7.1-1.555 8.23-4.522 9.843-.346 3.551-1.003 6.947-6.917 7.715-1.098 2.394-1.07 4.788-4.789 7.183l-13.3-1.33z" color="#000" fill="#0c3d91" fill-opacity=".988" overflow="visible"/><path transform="matrix(-.02284 .00204 .00238 .02723 2.714 -15.38)" d="M406.23 370.95l-6.917 83.267m13.297-81.407l-11.17 83" fill="none"/><path style="marker:none" d="M310.47 502.416s13.555-3.89 19.331-6.886c13.396-6.948 6.681-17.642 34.904-19.816 8.495-.654 17.777 2.04 24.504 6.321 3.462 2.204 6.804 9.105 6.804 9.105 11.359 6.82 4.024 19.426-2.506 26.57-4.024 4.404-12.16 6.276-19.02 6.124-6.5-.144-17.751-6.593-17.751-6.593s-1.947 5.807-4.322 8.39c-7.5 8.16-16.582 1.532-16.582 1.532l-25.363-24.747z" color="#000" fill="#0c3d91" fill-opacity=".988" stroke-width=".454" overflow="visible" transform="matrix(-.02855 .00255 -.00297 -.03404 5.07 11.58)"/><path d="M357.049 517.637c-11.6-15.495-7.231-20.929-2.08-25.87" fill="none" stroke-width=".44" transform="matrix(-.02855 .00255 -.00297 -.03404 5.07 11.58)"/><path transform="matrix(-.02284 .00204 .00238 .02723 2.714 -15.38)" d="M402.78 448.05l9.302-1.58m-8.952-4.04l15.093-4.388m-8.073-4.202l8.95-3.159m-12.11-1.761l21.762-12.285M411.2 419.09l18.779-10.004m-20.492 3.58l20.415-11.128m-19.955 2.973l19.859-10.868" fill="none"/><path d="M327.506 474.566l13.385 8.888m-12.651-3.432l10.638 7.306m-9.825-1.263l6.978 4.77m-14.167 11.578l.032 5.034m4.622-5.014c.772 4.334.341 8.661 6.803 13.02 2.428 6.032 5.516 6.836 8.333 9.78m4.026-17.359c-1.303 7.597-7.21 7.068-12.53 7.578" fill="none" stroke-width=".44" transform="matrix(-.02855 .00255 -.00297 -.03404 5.07 11.58)"/><path d="M332.011 498.727c1.018 5.417.085 10.176 8.886 15.302-.54 6.281 3.49 8.25 8.846 8.97m-12.755-26.361c1.295 7.178 3.552 12.524 8.013 13.675.544 7.71 7.335 8.31 8.16 9.616m3.428-2.912c-9.248-7.987-14.05-16.2-15.493-24.587m24.384 13.262c6.939.705 10.201 4.355 8.005 12.376m-4.934-17.238c8.017-.976 11.254 5.934 10.634 19.207m-2.16-14.619c7.83-2.77 15.307-5.983 19.037-13.883m-26.158 5.729c5.11-.526 10.337-1.745 14.163 5.257m-1.887 1.292c4.386 3.387 3.203 9.095 1.798 17.523" fill="none" stroke-width=".44" transform="matrix(-.02855 .00255 -.00297 -.03404 5.07 11.58)"/><path d="M375.223 493.88c1.05.558 12.455-.584 12.279 7.036 4.54 4.443 1.401 15.903 1.332 19.654" fill="none" stroke-width=".44" transform="matrix(-.02855 .00255 -.00297 -.03404 5.07 11.58)"/><path d="M377.794 491.94c.317.052 12.647-1.234 13.14 7.04 4.124 2.968 1.878 10.601 2.344 16.247m-48.854-33.86l4.837 1.97m2.552.706l-3.304-4.723m.936.17l3.467 3.262.137-5.358m1.827-.188l-.65 6.168m1.249.926l2.534-7.947m-.039 5.502l3.238-5.669m-.256 5.293l3.753-5.83m-2.044 6.861l6.16-6.794m-5.882 9.456c3.37-3.178 6.988-6.238 12.178-8.554m-6.027 8.453c2.855-3.124 6.569-5.439 10.808-7.26m-12.852 12.986c5.504-5.778 12.102-9.765 21.305-9.488m-17.269 10.157c5.778-3.94 11.77-7.548 20.285-7.22" fill="none" stroke-width=".44" transform="matrix(-.02855 .00255 -.00297 -.03404 5.07 11.58)"/><path d="M383.12 489.687c4.544-.953 8.235-.077 9.176 6.698 6.453 1.502 4.01 7.872 5.591 12.04m-20.619-18.597c6.62-3.861 13.138-7.015 17.6 3.973" fill="none" stroke-width=".44" transform="matrix(-.02855 .00255 -.00297 -.03404 5.07 11.58)"/></g><g stroke-width=".454"><path d="M335.06 343.32l-9.989 10.206 14.549 18.241s-.285 10.974 1.839 15.494c1.879 4.001 8.367 7.958 8.367 7.958s-2.432 4.09-1.737 6.08c.41 1.176 3.04 2.172 3.04 2.172s-1.95 3.968-1.303 5.863c.365 1.07 2.606 2.171 2.606 2.171s-2.495 2.854-2.068 5.5c.44 2.735 4.022 5.358 4.022 5.358l4.343 1.737s1.197 2.84 2.389 3.692c.97.694 3.474.868 3.474.868s.187 2.392.652 3.475c3.17 7.384 14.115 19.544 14.115 19.544l8.251 1.52s21.681-15.495 21.84-19.326c.155-3.718-6.205-8.903-6.205-8.903s8.245-4.114 8.757-7.894c.413-3.05-5.282-5.353-5.282-5.353s4.253-3.147 4.147-5.814c-.029-.735-1.983-2.305-2.77-3.68-.786-1.374.659-2.954-.287-4.242-1.89-2.576-4.565-3.853-4.565-3.853 2.021-3.95 4.608-7.899 1.412-11.86 3.25-3.014 3.354-6.274 1.157-9.713 3.437-4.092 1.63-6.411.51-8.964 2.545-3.87 1.23-6.515.533-9.356l.312-5.471-72.11-5.45z" transform="matrix(.02149 .00305 -.0036 .02536 -11.692 -14.909)" fill="#fff" stroke-width=".567"/><path d="M281.609 509.974c38.514-38.374 32.595-63.255 25.776-78.504m-16.519 74.918c16.33-21.582 32.393-45.096 17.833-74.176" style="marker:none" color="#000" fill="none" overflow="visible" transform="matrix(.02686 .00381 .0045 -.0317 -15.254 10.194)"/><path d="M266.31 512.3c7.12-2.188 14.248-4.455 21.631-9.166M265.1 505.88c10.207-2.591 20.688-4.12 29.745-11.179m-24.885 1.969c9.712.55 19.115-2.156 29.21-7.34m-27.74-.71c16.383-.136 20.538-2.377 32.284-7.306m-23.854-5.664c10.992 2.306 21.23-3.19 31.763-14.638m-30.893 7.518c10.91-1.324 15.421.8 31.603-18.71m-30.213 12.63c11.17.072 20.705-4.276 29.56-16.24m-26.95 7.2c7.987.197 15.422 3.895 26.058-12.682m-22.408 9.032c6.543 3.48 14.364-1.794 20.907-12.621m-12.105 60.22l1.961 2.265m2.406-8.542l6.985 8.889m-4.064-12.797c2.084 5.262 6.029 11.901 12.895 16.566m-9.792-22.368c2.28 6.807 7.82 13.963 17.238 19.822m-14.901-24.892c4.058 7.235 6.777 12.745 14.43 17.584m-12.76-22.141l12.024 14.54m-10.298-19.416l9.297 9.822m-8.351-15.531l11.834 10.494m-11.564-18.712l11.378 10.025m-12.265-16.849l9.658 6.422m-11.806-14.369c5.62 4.167 9.281 10.479 15.319 8.809" fill="none" transform="matrix(.02686 .00381 .0045 -.0317 -15.254 10.194)"/><g stroke-width=".567"><path d="M332.99 309.29c11.678-14.698 23.356-8.349 35.034-4.584l-7.765 10.692-27.269-6.108z" transform="matrix(.02149 .00305 -.0036 .02536 -11.686 -14.908)" fill="#fff"/><path d="M338.94 371.01s-13.781.07-23.308-13.261c-9.938-12.704-.851-41.421 11.787-46.821 12.005-5.13 31.76 3.274 31.76 3.274s6.292-13.729 13.097-16.044c7.917-2.693 10.837 1.262 11.132.655 1.653-3.402 4.404-7.79 8.185-7.858 14.295-.254 22.116 12.799 29.14 25.866 2.914 5.42 4.591 24.92-12.769 36.67-10.033 6.791-22.608 14.65-34.379 11.788-12.115-2.947-19.45-10.235-29.468-14.734-6.404-3.077-11.563-5.364-13.752 3.274-.971 7.015 8.554 16.987 8.554 16.987z" transform="matrix(.02149 .00305 -.0036 .02536 -11.686 -14.908)" fill="#fff"/><path d="M317.49 339.4l-.852-17.039m9.942 12.789c-1.417-8.614-1.913-17.228 7.1-25.842m1.98 24.132c-1.874-8.404-.582-16.491 5.112-24.138m2.838 17.888c-.826-5.585 1.871-11.17 7.1-16.755m1.99 20.455c-1.879-7.213-1.334-13.516 2.84-18.459m3.69 19.019c-1.248-5.65-.281-10.017-1.42-17.039m23.57-7.661c.103 1.055.534 1.913 2.272 1.988m-6.862 1.642c1.03 1.96 1.767 4.107 6.306 3.833m-12.366 1.477c14.757 7.575 28.326 12.869 27.205-10.016m-6.185 10.886c12.651 10.682 17.415 23.909 9.645 41.178M368.13 323.73c9.72 6.632 29.881 18.141 36.232-12.86" transform="matrix(.02149 .00305 -.0036 .02536 -11.686 -14.908)" fill="none"/><path d="M378.15 333.01c7.062 4.885 18.94 9.405 24.732-4.204 4.425-4.682 8.447-9.866 10.264-17.807" transform="matrix(.02149 .00305 -.0036 .02536 -11.686 -14.908)" fill="none"/><path d="M377.16 329.42c1.872 12.431 7.542 33.724 26.957 19.662 6.512-4.349 13.503-7.39 12.984-30.914" transform="matrix(.02149 .00305 -.0036 .02536 -11.686 -14.908)" fill="none"/><path d="M379.13 338.2c3.595 3.032 15.325 13.908 25.968-1.608 6.149-4.257 7.908-8.531 10.635-14.344" transform="matrix(.02149 .00305 -.0036 .02536 -11.686 -14.908)" fill="none"/></g><path d="M272.99 482.529c19.096-1.573 21.828-.302 36.041-12.04" style="marker:none" color="#000" fill="none" overflow="visible" transform="matrix(.02686 .00381 .0045 -.0317 -15.254 10.194)"/></g></g><g fill-rule="evenodd"><path style="marker:none" d="M298.008 142.51s2.67 1.589 3.97 1.793c.69.108 1.65-.052 2.316-.26.538-.167 1.128-.542 1.53-.925.528-.502 1.171-1.286 1.41-1.96.247-.694.298-1.815.217-2.543a4.042 4.042 0 0 0-.977-2.186c-.601-.685-1.78-1.343-2.701-1.482-.747-.113-1.683-.06-2.37.24-.223.098-.653.472-.653.472s-.633-.748-.97-.959c-.314-.196-.612-.379-.98-.443-.492-.087-1.187-.178-1.666-.041-.525.149-1.206.748-1.648 1.058-.456.321-1.487 1.113-1.487 1.113l4.009 6.123z" color="#000" fill="#fff" fill-rule="nonzero" stroke="#000" stroke-width=".504" overflow="visible" transform="matrix(.03316 .00073 -.00057 .04215 -14.186 -8.268)"/><path d="M-4.242-2.175a.04.04 0 0 0 .019.005.032.032 0 0 0 .02-.006.036.036 0 0 0 .011-.018.053.053 0 0 0 .003-.022.036.036 0 0 0-.01-.022l-.008-.008-.013-.008s.005.007.007.013l.005.01c.004.005.003.016.003.017v.009a.023.023 0 0 1-.007.01.022.022 0 0 1-.012.002.03.03 0 0 1-.013-.003c-.009-.005-.013-.015-.018-.028a.101.101 0 0 1-.004-.026c0-.01-.004-.022-.007-.031a.251.251 0 0 0-.01-.03l-.008-.02-.012.009a.907.907 0 0 0 .017.046.147.147 0 0 1 .002.025c0 .01 0 .02.004.03.005.016.015.037.03.046z"/><g stroke-width="2.894"><path style="marker:none" d="M195.12 551.13s7.896-4.483 11.42-5.505c4.017-1.166 9.833-1.394 13.931-.558 3.444.703 8.09 3.35 8.09 3.35s4.407-4.511 6.607-5.928c3.798-2.445 8.786-2.26 13.173-1.181 3.926.965 11.396 3.91 14.654 6.304 5.147 3.782 12.147 4.928 16.198 9.867 3.092 3.769 5.173 7.36 8.485 12.47 1.889 2.915 5.502 10.695 7.071 12.99 4.379 6.403 7.97 17.739 7.97 17.739s-8.382 3.781-13.096 4.807c-3.757.817-6.697.97-10.284-.417-2.318-.896-6.962-4.948-6.962-4.948s-5.838 5.267-8.507 6.051c-3.69 1.084-9.934.94-13.712.224-3.708-.702-8.217-1.808-11.34-3.928-5.871-3.987-9.678-7.807-14.1-13.357-2.418-3.034-5.585-10.294-8.432-15.487-1.946-3.551-5.414-8.21-7.072-10.28-3.16-3.948-6.255-5.724-9.778-9.351-1.153-1.188-4.317-2.86-4.317-2.86z" color="#000" fill="#fff" fill-rule="nonzero" stroke="#000" stroke-width="3.645" overflow="visible" transform="matrix(.00468 .0001 -.00008 .0057 -6.3 -5.564)"/><path d="M-5.272-2.425l-.01.018s.037.028.049.04a2.6 2.6 0 0 1 .051.06s-.008-.027-.019-.048c-.006-.014-.014-.022-.02-.028a.477.477 0 0 0-.051-.042zm.121.193s.003.02.013.043a.28.28 0 0 0 .031.05c.01.014.029.035.029.035l.02-.006-.042-.049-.051-.073z"/></g><path style="marker:none" d="M276.18 134.3s1.215-.581 1.72-.694a4.814 4.814 0 0 1 1.968.026c.48.12 1.115.511 1.115.511s.655-.577.976-.753c.554-.303 1.256-.241 1.866-.064.546.16 1.075.553 1.516.9.697.548 1.674 1.063 2.208 1.76.407.531.642.875 1.07 1.59.244.407.555 1.09.76 1.412.568.897 1.663 2.755 1.663 2.755s-1.21.45-1.883.555c-.536.083-.951.083-1.447-.13-.32-.139-.944-.72-.944-.72s-.862.67-1.245.756c-.528.12-1.407.055-1.934-.07-.518-.121-1.145-.303-1.57-.612-.797-.582-1.372-1.093-1.954-1.875-.318-.428-.71-1.432-1.071-2.154-.248-.494-.701-1.149-.92-1.44-.415-.557-.838-.82-1.307-1.335-.154-.169-.587-.418-.587-.418z" color="#000" fill="#fff" stroke="#000" stroke-width=".504" overflow="visible" transform="matrix(.03316 .00073 -.00057 .04215 -14.186 -8.268)"/><path d="M-4.943-2.42l-.01.018s.035.03.047.043l.048.063s-.007-.027-.016-.049c-.007-.014-.014-.022-.02-.03-.015-.017-.049-.045-.049-.045zm.114.199a.242.242 0 0 0 .04.096l.027.036.021-.004-.04-.052-.048-.076z"/><g stroke-width="2.894"><path style="marker:none" d="M208.75 551.56s-21.73-4.832-30.913-3.212c-4.88.861-10.912 4.224-14.854 7.226-3.19 2.43-6.22 6.43-7.974 10.037-2.305 4.737-4.689 11.71-4.642 16.977.048 5.41 2.439 13.35 4.757 18.237 2.532 5.337 6.792 9.953 11.874 12.963 5.691 3.372 15.173 5.203 21.68 4.015 5.262-.96 11.39-3.527 15.255-7.226 1.255-1.201 3.212-4.818 3.212-4.818s6.06 3.734 8.833 4.416c2.573.633 5.01 1.214 7.628.803 3.499-.548 8.369-1.54 11.24-3.613 3.145-2.27 6.238-8.043 8.431-11.241 2.268-3.306 7.227-11.241 7.227-11.241l-41.753-33.322z" color="#000" fill="#fff" stroke="#000" stroke-width="3.645" overflow="visible" transform="matrix(.00468 .0001 -.00008 .0057 -6.59 -5.525)"/><path d="M-5.753-2.167a.036.036 0 0 0-.02.003.037.037 0 0 0-.016.013.041.041 0 0 0-.006.021c0 .008 0 .016.003.022.004.01.01.013.015.017l.01.004.014.003-.01-.01-.007-.007a.031.031 0 0 1-.008-.015l-.001-.008c0-.006.001-.01.003-.012a.03.03 0 0 1 .024-.01c.01.001.016.009.024.02a.09.09 0 0 1 .01.022c.004.009.011.019.016.027a.214.214 0 0 0 .03.039l.01-.013-.012-.014a.232.232 0 0 1-.017-.022.135.135 0 0 1-.009-.023c-.003-.009-.006-.019-.011-.026-.01-.013-.025-.03-.042-.031z"/></g><path d="M257.69 135.22s1.09-.412 1.587-.55a4.814 4.814 0 0 1 1.967-.076c.486.095 1.142.453 1.142.453s.622-.61.932-.802c.536-.33 1.24-.306 1.86-.16.554.13 1.104.497 1.564.82a11.975 11.975 0 0 1 2.085 1.877c.437.51.69.841 1.158 1.533.266.394.615 1.06.837 1.371.618.867 2.033 2.434 2.033 2.434s-1.184.511-1.85.65c-.53.11-.945.131-1.451-.056-.327-.122-.983-.67-.983-.67s-.824.713-1.2.819c-.522.147-1.403.127-1.937.03-.523-.095-1.16-.244-1.6-.531-.83-.54-1.367-1.057-1.991-1.808-.341-.41-.788-1.393-1.19-2.096-.275-.48-.765-1.11-.999-1.391a19.645 19.645 0 0 0-1.355-1.46c-.163-.16-.61-.387-.61-.387z" fill="#fff" stroke="#000" stroke-width=".504" transform="matrix(.03316 .00073 -.00057 .04215 -14.186 -8.268)"/><path d="M-5.559-2.395l-.009.018s.037.027.048.04a2.6 2.6 0 0 1 .051.06s-.008-.027-.018-.048c-.007-.014-.015-.022-.021-.028a.477.477 0 0 0-.05-.042zm.119.193s.004.02.014.043a.28.28 0 0 0 .03.05c.01.014.029.035.029.035l.02-.006-.042-.049a2.18 2.18 0 0 1-.05-.073z"/><path d="M285.98 134.54s1.184-.471 1.695-.55a4.812 4.812 0 0 1 1.962.156c.47.152 1.075.585 1.075.585s.696-.533 1.029-.687c.574-.265 1.27-.158 1.866.06.533.195 1.032.622 1.447.998a11.795 11.795 0 0 1 1.83 2.107c.367.558.577.917.952 1.658.214.423.376 1.259.556 1.593.186.345.383.837.633 1.32.427.823.934 1.583.934 1.583s-1.08.043-1.759.103c-.54.047-.875-.038-1.354-.284-.309-.159-.89-.78-.89-.78s-.909.61-1.296.671c-.536.085-1.408-.038-1.925-.197-.508-.156-1.12-.38-1.521-.716-.754-.633-1.22-1.21-1.744-2.028-.287-.447-.605-1.475-.914-2.22-.21-.51-.616-1.192-.812-1.498-.375-.583-.778-.873-1.209-1.418-.14-.179-.555-.456-.555-.456z" fill="#fff" stroke="#000" stroke-width=".504" transform="matrix(.03316 .00073 -.00057 .04215 -14.186 -8.268)"/><path d="M-4.617-2.39l-.01.017s.033.033.043.047l.045.067s-.006-.028-.014-.05a.122.122 0 0 0-.017-.031.513.513 0 0 0-.047-.05zm.1.212s0 .02.009.045c.006.02.019.045.025.055l.025.038.021-.002-.037-.055a2.328 2.328 0 0 1-.043-.08z"/></g><g stroke="#333" stroke-opacity=".6"><path style="marker:none" d="M602.268 272.69l.145 3.887s.062 2.227.032 2.437c-.03.209.01 1.695.155 1.986.146.292.7.197.694-.046-.006-.244-.007-.918-.032-1.602a70.448 70.448 0 0 1-.037-1.893c0-.292.012-1.784.02-1.98l.095-1.72z" color="#000" fill="#ffd5d5" stroke="#f55" stroke-width=".1" stroke-opacity="1" overflow="visible" transform="matrix(.01109 .04353 -.04265 .01294 3.65 -33.29)"/><path d="M604.938 280.035c-.136.74-.058 1.5-.21 2.237-.11.526-.192 1.094-.502 1.54-.14.203-.577.462-.577.462s.12-.956.082-1.225c-.272-2.463-.506-4.597-.506-7.018 0-.231.203-2.353.203-2.507 0-.154-.156-.971-.156-.971s1.147 2.515 1.301 2.746c.154.231.616 1.002.616 1.002s.309.732.309.886c0 .154.077.539.077.539s-.493 1.527-.637 2.31z" fill="#e6e6e6" stroke="#000" stroke-width=".351" stroke-opacity="1" transform="matrix(.01109 .04353 -.04265 .01294 3.65 -33.29)"/><path style="marker:none" d="M603.038 272.572s-.317 2.093-.457 3.14c-.079.585-.096 1.177-.216 1.757-.098.47-.34.911-.409 1.389-.103.719.021 1.453 0 2.179-.013.473-.13.946-.081 1.416.05.487.157.982.381 1.417.124.24.518.626.518.626s-1.09.119-1.607 0c-.802-.183-1.6-.525-2.202-1.072-.423-.384-.684-.932-.901-1.466-.185-.453-.264-.95-.33-1.439-.086-.643-.069-1.3-.082-1.953-.013-.61 0-1.697 0-1.833 0-.136.818-1.171 1.472-1.253.653-.082 1.552-.436 1.688-.735.137-.3.355-1.853.355-1.853l.108-.953z" color="#000" fill="#e6e6e6" stroke="#000" stroke-width=".351" stroke-opacity="1" overflow="visible" transform="matrix(.01109 .04353 -.04265 .01294 3.65 -33.29)"/><path d="M628.515 269.487c-1.684-4.845-4.18-10.127-8.821-12.036-4.27-1.756-8.647-3.38-15.368-.93 0 0-3.94.932-5.448 2.18-1.195.989-2.506 3.922-2.506 3.922s-1.195.082-1.634.436c-1.05.845-1.608 2.27-1.852 3.595-.24 1.294.153 2.638.436 3.923.37 1.683.627 3.505 1.634 4.903.637.884 1.53 1.863 2.615 1.961 1.132.102-1.207-1.68 3.05-1.525 1.067.039 2.054-2.23 2.054-2.23 1.492 1.042 1.276 1.252 1.727 2.019.44.746.917 2.447.917 2.447l-.274 1.584 1.896-.987s1.941.203 2.833-.11c.81-.282 1.467-.916 2.07-1.525.568-.573 1.112-1.214 1.417-1.96.277-.681.327-2.18.327-2.18l2.506 1.852s.872 1.417 1.09 1.853c.217.435.98 1.525.98 1.525l5.241 9.004s6.755-5.376 7.518-6.356c.762-.98 1.598-5.943 1.598-5.943l-3.482-4.292z" fill="#f4d7d7" stroke="#000" stroke-width=".351" stroke-opacity="1" transform="matrix(.01109 .04353 -.04265 .01294 3.65 -33.29)"/><path style="marker:none" d="M597.25 277.209c-.917-.253-2.047-1.385-2.699-2.702-.37-.75-.612-1.599-1.112-3.917-.39-1.803-.437-2.065-.48-2.647-.061-.82.03-1.499.323-2.388.255-.777.586-1.396 1.027-1.925.403-.484.702-.664 1.312-.792.623-.13.542-.153.99.266l.392.367.059.303c.195.996.349 1.407 1.069 2.846.516 1.033.58 1.183.721 1.671l.154.537v2.013l-.14.222c-.202.32-.306.619-.306.88 0 .242.103.488.457 1.082.105.176.2.377.212.446.011.07-.002.25-.031.402-.067.354-.247.713-.788 1.569-.647 1.022-.629.983-.654 1.4-.012.196-.03.37-.041.386-.027.043-.278.033-.465-.02z" color="#000" fill="#9d93ac" stroke="#d5f" stroke-width=".039" stroke-opacity="1" overflow="visible" transform="matrix(.01109 .04353 -.04265 .01294 3.65 -33.29)"/><path d="M-1.323-3.052a.456.456 0 0 1-.123-.068.111.111 0 0 1-.03-.036.305.305 0 0 1-.024-.107l.052-.024c.027-.012.102-.026.118-.035.188-.01.151.026.185.13.01.037-.013.103-.035.13-.043.02-.066.017-.095.019h-.015s-.022-.004-.033-.009z" style="marker:none" color="#000" fill="#caa1e6" overflow="visible" stroke="none"/><g stroke-width=".016"><path d="M-2.113-2.12c.07-.116.17-.23.264-.341.1-.095.171-.113.305-.112.064 0 .08-.032.085.022-.062.03-.102.155-.05.118.03-.022.093-.084.135-.094.119-.028.2-.02.284-.004.211.066.38-.14.585-.097.049.042.076.097.104.153.032.074.015.135-.006.209-.021.097.101.107.03.17-.073.083-.318.162-.441.164h-.536c-.066-.05-.239.002-.112-.076.04-.024-.307.075-.132 0 .05-.022-.107.01-.16.02-.001 0 .217-.053.063-.027-.066.01-.135.007-.202.007-.03 0-.064 0-.09-.014-.001 0 .093-.035.013-.035-.065.003-.081-.04-.14-.063z" fill="#fff" fill-rule="evenodd" stroke="#000" stroke-opacity="1"/><path d="M-1.863-2.21c.052.01.178-.037.146-.105-.025-.054.134-.212.193-.189m.1.336c.033-.025.067-.098.09-.146m.16.124c.01-.018.097-.058.112-.132m.278-.139c.036-.013.048.213-.055.216m.25-.118c-.016.022-.07.112-.111.167" fill="none"/></g></g><path d="M-1.998-2.021c.005-.04.033-.081.061-.142" fill="none" stroke="#000" stroke-width=".009"/><path style="marker:none" d="M-1.05-2.533a.109.109 0 0 1-.025-.007s.003-.02.018-.036c.05-.054.087-.2-.158-.266-.076-.02.015-.097.047-.18.04-.103.396-.097.382-.22-.004-.028.029-.055.042-.111a.821.821 0 0 0 .022-.135c0-.01.005-.077-.038-.1a.52.52 0 0 0-.059-.028c-.003 0 .045.075-.046.16a.796.796 0 0 1-.31.16c-.053.033-.095.04-.145.05a.328.328 0 0 1-.101.006c-.027-.003-.079-.01-.079-.023a.12.12 0 0 0-.025-.034c-.023-.026-.024-.027-.013-.03a.122.122 0 0 1 .025-.003c.034 0 .144-.097.168-.148a.193.193 0 0 0 .015-.039c0-.004-.011-.009-.029-.012-.035-.008-.08-.028-.085-.04a.294.294 0 0 1-.013-.04.312.312 0 0 0-.018-.051c-.011-.022-.011-.022.025-.011a.244.244 0 0 0 .053.008c.025.001.027 0 .054-.026l.029-.027.03.003a.242.242 0 0 0 .164-.06l.014-.012.073.006c.176.014.28.033.332.061.038.02.039.021.036.039-.001.01.024.062.02.117-.008.097-.014.093-.02.157-.012.113-.008.231-.014.262-.008.039-.047.21-.068.275a.746.746 0 0 1-.233.303c-.03.02-.015.035-.031.036a.195.195 0 0 1-.04-.004zm.122-1.051c.05-.023.047-.08-.006-.105-.02-.01-.028-.011-.056-.009-.03.002-.035.004-.05.021s-.017.021-.014.039c.006.049.073.077.126.054z" color="#000" fill="#e8c2d7" overflow="visible"/><g stroke-width=".15" color="#000" fill="#ffc707" fill-rule="evenodd" stroke="#000" stroke-linecap="square" stroke-linejoin="bevel"><path d="M-1.532-4.293a.108.108 0 0 1 .114.044.23.23 0 0 1 .018.068.156.156 0 0 1-.015.09c-.012.024-.032.04-.056.061a.07.07 0 0 0-.016.027l-.01.002-.035-.292zm.929.068l-.015.035s-.041-.017-.063-.02c-.01-.001-.021.004-.031.002-.01-.002-.016-.012-.025-.014-.012-.004-.04-.004-.04-.004s.028-.009.042-.007c.01.002.019.01.03.012s.024-.006.036-.007a.494.494 0 0 1 .066.003zm.083.137l-.246-.08-.004.013.246.08.004-.013z" style="marker:none" overflow="visible" stroke-width=".006"/><path d="M-.609-4.23l-.116.387.011.004.117-.388-.012-.004z" style="marker:none" overflow="visible" stroke-width=".006"/><path d="M-.562-4.098l-.178-.06c.029.125-.015.2-.109.242.094-.006.185-.005.237.083.035-.06.04-.166.05-.265z" style="marker:none" overflow="visible" stroke-width=".006"/><path d="M-.562-4.098c-.27-.072-.128.312-.015.148.007-.046.01-.098.015-.148z" style="marker:none" overflow="visible" stroke-width=".006"/><path d="M-.562-4.098l-.178-.06c.029.125-.015.2-.109.242.094-.006.185-.005.237.083.035-.06.04-.166.05-.265zm-.655-.27l-.006.039a.374.374 0 0 0-.072-.024c-.01-.001-.021.004-.031.002-.01-.003-.016-.012-.025-.015-.012-.003-.04-.003-.04-.003s.028-.009.042-.007c.01.002.019.01.029.012.012.002.025-.006.037-.007a.494.494 0 0 1 .066.003zm-.133.09l.256.034-.002.014-.255-.034.002-.014z" style="marker:none" overflow="visible" stroke-width=".006"/><path d="M-1.213-4.37l-.046.404-.012-.001.047-.404.011.002z" style="marker:none" overflow="visible" stroke-width=".006"/><path d="M-1.307-4.27l.185.025c-.075.1-.065.188.004.267-.083-.046-.166-.085-.248-.028-.008-.07.028-.169.059-.264z" style="marker:none" overflow="visible" stroke-width=".006"/><path d="M-1.307-4.27c.274.054-.006.341-.044.142.012-.045.028-.094.044-.142z" style="marker:none" overflow="visible" stroke-width=".006"/><path d="M-1.307-4.27l.185.025c-.075.1-.065.188.004.267-.083-.046-.166-.085-.248-.028-.008-.07.028-.169.059-.264zm.331.335a.059.059 0 0 1 .023-.019c.028-.009.052-.015.07-.032a.146.146 0 0 0 .042-.08.25.25 0 0 0 .006-.071.124.124 0 0 0-.09-.092.117.117 0 0 0-.118.044.246.246 0 0 0-.023.067.151.151 0 0 0 .006.092c.01.023.03.04.052.06.006.006.01.016.013.026l.02.005z" style="marker:none" overflow="visible" stroke-width=".006"/><path d="M-.976-3.935a.059.059 0 0 1 .023-.019c.028-.009.052-.015.07-.032a.146.146 0 0 0 .042-.08.25.25 0 0 0 .006-.071.124.124 0 0 0-.09-.092.117.117 0 0 0-.118.044.246.246 0 0 0-.023.067.151.151 0 0 0 .006.092c.01.023.03.04.052.06.006.006.01.016.013.026l.02.005z" style="marker:none" overflow="visible" stroke-width=".006"/><path d="M-.93-4.21l.026.007-.006.016.027.006-.009.02.028.006-.01.02.038.011v-.013a.123.123 0 0 0-.09-.092.117.117 0 0 0-.116.044.532.532 0 0 0-.006.013l.04.005-.002-.022.028.006v-.02l.027.005v-.017l.026.006z" style="marker:none" overflow="visible" stroke-width=".006"/><path d="M-.961-4.06a.43.43 0 0 0 .096.052L-.867-4a.431.431 0 0 1-.098-.054l.004-.007zm0 .013a.28.28 0 0 0 .08.06l-.003.007a.285.285 0 0 1-.081-.06l.004-.007zm-.003.017c.015.017.016.023.06.059l-.004.006C-.952-4-.954-4.007-.97-4.024l.005-.006zm0 .022a.13.13 0 0 0 .029.046l-.004.007a.142.142 0 0 1-.031-.048l.006-.005z" style="text-indent:0;text-align:start;line-height:normal;text-transform:none;block-progression:tb;marker:none;-inkscape-font-specification:Bitstream Vera Sans" font-weight="400" overflow="visible" font-family="Bitstream Vera Sans" stroke-width=".006"/><path d="M-.958-4.06a.414.414 0 0 1-.109.006v.008a.41.41 0 0 0 .109-.006v-.008zm-.006.012a.266.266 0 0 1-.096.02v.007a.271.271 0 0 0 .097-.02v-.007zm-.004.017c-.02.008-.024.014-.077.028v.007c.055-.013.059-.019.08-.027l-.003-.008zm-.009.02a.128.128 0 0 1-.044.03l.001.007a.133.133 0 0 0 .047-.03l-.004-.007z" style="text-indent:0;text-align:start;line-height:normal;text-transform:none;block-progression:tb;marker:none;-inkscape-font-specification:Bitstream Vera Sans" font-weight="400" overflow="visible" font-family="Bitstream Vera Sans" stroke-width=".006"/><path transform="matrix(-.0403 -.00926 -.00833 .0405 -16.609 -9.758)" style="marker:none" overflow="visible" d="M-398.734 48.505h.464V52.5h-.464z"/><path d="M-.958-4.07c.04.009.08.02.119.036l-.004.013a.914.914 0 0 0-.24-.055l.003-.013c.041.004.082.01.122.019zm.008-.037a.73.73 0 0 1 .116.035l-.004.014a.878.878 0 0 0-.234-.054l.002-.014c.04.004.08.01.12.019zm.004-.053a.73.73 0 0 1 .117.036l-.004.013a.797.797 0 0 0-.223-.051l.002-.014c.04.004.069.008.109.016z" style="text-indent:0;text-align:start;line-height:normal;text-transform:none;block-progression:tb;marker:none;-inkscape-font-specification:Bitstream Vera Sans" font-weight="400" overflow="visible" font-family="Bitstream Vera Sans" stroke-width=".006"/><path transform="matrix(-.0403 -.00926 -.00833 .0405 -16.609 -9.758)" style="marker:none" overflow="visible" d="M-400.875 47.77h.402v.418h-.402zm.815-.073h.402v.418h-.402zm.887-.036h.402v.418h-.402z"/><path transform="matrix(.0403 .00926 -.00833 .0405 -16.609 -9.758)" style="marker:none" overflow="visible" d="M396.129 47.77h.402v.418h-.402zm.814-.073h.402v.418h-.402zm.888-.036h.402v.418h-.402z"/><path d="M-.925-4.23l.02-.009.018-.038-.018-.016.003-.016-.004-.011-.01.008-.002.016-.023.007.001.042.015.016zm.098.101l.016-.009.016-.039-.014-.014.004-.017-.004-.01-.007.008-.003.016-.019.008v.042l.01.015zm-.227-.052l.016-.009.016-.039-.013-.015.003-.016-.003-.011-.008.009-.003.016-.018.008-.001.042.011.015zm.706.161a.106.106 0 0 0-.12-.01.217.217 0 0 0-.044.053.155.155 0 0 0-.023.09c.002.026.014.05.028.079.004.008.004.02.004.03l.008.007.147-.25z" style="marker:none" overflow="visible" stroke-width=".006"/><path d="M-.348-4.02a.106.106 0 0 0-.12-.01.217.217 0 0 0-.044.053.155.155 0 0 0-.023.09c.002.026.014.05.028.079.004.008.004.02.004.03l.008.007.147-.25z" style="marker:none" overflow="visible" stroke-width=".006"/><path d="M-.348-4.02a.106.106 0 0 0-.12-.01.443.443 0 0 0-.01.01l.035.022.005-.022.024.019.006-.02.023.017.005-.016.022.017.01-.017z" style="marker:none" overflow="visible" stroke-width=".006"/><path d="M-.432-3.875a.418.418 0 0 1-.1-.042l-.004.007a.42.42 0 0 0 .102.043l.002-.008zm-.009.01a.255.255 0 0 1-.093-.025l-.003.007a.26.26 0 0 0 .095.025l.001-.008zm-.008.013c-.022 0-.027.003-.08-.008l-.001.008c.053.011.058.007.08.009v-.009zm-.015.016a.108.108 0 0 1-.05.008l-.001.008a.113.113 0 0 0 .052-.008l-.001-.008z" style="text-indent:0;text-align:start;line-height:normal;text-transform:none;block-progression:tb;marker:none;-inkscape-font-specification:Bitstream Vera Sans" font-weight="400" overflow="visible" font-family="Bitstream Vera Sans" stroke-width=".006"/><path style="marker:none" d="M-.413-3.91l-.007-.007-.041.07-.041.068.008.007.081-.139z" overflow="visible" stroke-width=".006"/><path d="M-.433-3.87a1.354 1.354 0 0 0-.106-.074l.006-.013c.036.023.074.049.107.075l-.007.012zm.02-.031a1.343 1.343 0 0 0-.106-.073l.007-.013c.035.022.073.048.106.074l-.007.012zm.025-.045a1.22 1.22 0 0 0-.1-.069l.006-.012a1.02 1.02 0 0 1 .101.07l-.007.011z" style="text-indent:0;text-align:start;line-height:normal;text-transform:none;block-progression:tb;marker:none;-inkscape-font-specification:Bitstream Vera Sans" font-weight="400" overflow="visible" font-family="Bitstream Vera Sans" stroke-width=".006"/><path transform="matrix(.03244 .02565 -.02105 .0356 -16.609 -9.758)" style="marker:none" stroke-width=".151" overflow="visible" d="M410.375-133.908h.417v.407h-.417zm.845-.072h.417v.407h-.417zm.921-.034h.417v.407h-.417z"/><path d="M-.347-4.022l.045-.076-.01.004-.009.014-.022-.004-.012.04.008.022zm-.133-.01h.018l.026-.03-.007-.02.008-.014v-.013l-.01.006-.007.014-.02-.002-.013.04.005.02zm-1.052-.261a.108.108 0 0 1 .114.044.23.23 0 0 1 .018.068.156.156 0 0 1-.015.09c-.012.024-.032.04-.056.061a.07.07 0 0 0-.016.027l-.01.002-.035-.292z" style="marker:none" overflow="visible" stroke-width=".006"/><path d="M-1.532-4.292a.108.108 0 0 1 .113.043.47.47 0 0 1 .005.013l-.04.006.003-.023-.028.007.002-.021-.028.006.001-.017-.026.006-.002-.02z" style="marker:none" overflow="visible" stroke-width=".006"/><path d="M-1.513-4.124c.037.006.074.01.108.006v.008a.41.41 0 0 1-.109-.006l.001-.008zm.004.013c.033.01.065.02.095.018v.008a.258.258 0 0 1-.096-.019l.001-.007zm.003.017c.02.008.023.014.075.027l-.001.007c-.053-.013-.057-.018-.077-.027l.003-.007zm.007.02c.015.014.03.025.042.029l-.001.008a.118.118 0 0 1-.045-.03l.004-.007z" style="text-indent:0;text-align:start;line-height:normal;text-transform:none;block-progression:tb;marker:none;-inkscape-font-specification:Bitstream Vera Sans" font-weight="400" overflow="visible" font-family="Bitstream Vera Sans" stroke-width=".006"/><path style="marker:none" d="M-1.517-4.164l.01-.003.01.081.01.081-.01.002-.02-.161z" overflow="visible" stroke-width=".006"/><path d="M-1.514-4.119a1.29 1.29 0 0 1 .126-.02l-.001-.014a1.35 1.35 0 0 0-.127.02l.002.014zm-.006-.037a1.28 1.28 0 0 1 .125-.02v-.014a1.74 1.74 0 0 0-.126.02l.001.014zm-.005-.051c.037-.008.077-.014.118-.019v-.014a.974.974 0 0 0-.12.019l.002.014z" style="text-indent:0;text-align:start;line-height:normal;text-transform:none;block-progression:tb;marker:none;-inkscape-font-specification:Bitstream Vera Sans" font-weight="400" overflow="visible" font-family="Bitstream Vera Sans" stroke-width=".006"/><path transform="matrix(-.0403 .00926 .00509 .04104 -16.609 -9.758)" style="marker:none" overflow="visible" d="M-349.762 213.906h.41v.413h-.41zm.831-.073h.41v.413h-.41zm.904-.035h.41v.413h-.41z"/><path d="M-1.533-4.294l-.01-.09.007.01.002.015.022.006-.005.043-.016.016zm.125.049l-.015-.009-.013-.038.015-.015-.002-.016.004-.012.007.01.002.015.018.008-.003.042-.013.015zm.874.619l.055-.131c-.328-.164-.678-.224-1.038-.239l-.001.144c.382.026.698.097.984.226z" style="marker:none" overflow="visible" stroke-width=".006"/><path d="M-.534-3.626l.055-.131A2.054 2.054 0 0 0-.8-3.884l-.03.148c.1.029.199.068.296.11zm-.643-.34a3.454 3.454 0 0 0-.34-.03l-.001.144c.109.007.212.018.312.033l.029-.147z" style="marker:none" overflow="visible" stroke-width=".006"/><path d="M-1.346-3.985s-.114-.008-.17-.01l-.002.143.16.014.012-.147zm.665.299l.147.06.055-.131a3.693 3.693 0 0 0-.159-.071l-.043.142z" style="marker:none" overflow="visible" stroke-width=".006"/><path d="M-.534-3.626l.055-.131c-.328-.164-.678-.224-1.038-.239l-.001.144c.382.026.698.097.984.226z" style="marker:none" overflow="visible" stroke-width=".006"/><path d="M-.987-3.795a2.4 2.4 0 0 1 .459.153c.008.02 0 .027-.012.033-.284-.13-.599-.2-.98-.226-.013-.015-.006-.025.004-.034.191.013.366.037.53.074zm.005-.155c.174.038.345.095.51.177.004.01.006.022-.012.032-.327-.163-.675-.223-1.033-.237-.014-.015-.01-.026.003-.035.18.007.358.026.532.064z" style="text-indent:0;text-align:start;line-height:normal;text-transform:none;block-progression:tb;marker:none;-inkscape-font-specification:Bitstream Vera Sans" font-weight="400" overflow="visible" font-family="Bitstream Vera Sans" stroke-width=".006"/></g><g stroke="#333" stroke-opacity=".6" color="#000"><path transform="matrix(.0117 -.0628 -.05356 -.00874 4.904 43.322)" d="M711.514 264.994c0 .67-.345 1.214-.77 1.214-.426 0-.771-.544-.771-1.214 0-.67.345-1.213.77-1.213.426 0 .77.543.77 1.213z" style="marker:none" fill="#918a6f" stroke="#000" stroke-width=".1" stroke-opacity="1" overflow="visible"/><path transform="matrix(-.01278 -.0502 -.04918 .01492 21.122 28.08)" d="M711.167 264.513a.5.5 0 1 1-1.001 0 .5.5 0 0 1 1.001 0z" style="marker:none" fill="#2b1100" stroke="#000" stroke-width=".1" stroke-opacity="1" overflow="visible"/><path d="M-.93-3.62c.01.004.02.002.022-.004.002-.006-.005-.014-.015-.017-.01-.004-.02-.002-.021.004-.002.006.005.014.015.017z" style="marker:none" opacity=".771" fill="#e6e6e6" overflow="visible" stroke="none"/><path style="marker:none" d="M711.514 264.994c0 .67-.345 1.214-.77 1.214-.426 0-.771-.544-.771-1.214 0-.67.345-1.213.77-1.213.426 0 .77.543.77 1.213z" transform="matrix(.01434 -.07696 -.06562 -.01071 6.227 53.901)" fill="none" stroke="#000" stroke-width=".077" stroke-opacity="1" overflow="visible"/></g><g fill-rule="evenodd" stroke-width=".016"><g fill="#cca066" stroke="#000" stroke-linecap="round" stroke-linejoin="round"><path d="M-2.004.678l-.34-.01s-.13-.155-.168-.204c-.02-.026-.085-.096-.12-.183A.412.412 0 0 0-2.72.14c-.028-.026-.056-.043-.093-.033-.038.01-.05.018-.063.056-.008.021.004.053.01.074.031.114.063.064.104.175.016.04.051.091.077.127.028.039.06.109.06.109s-.002.099-.026.116c-.053.041-.138.04-.192.08-.021.017-.081.045-.086.073-.008.044-.022.052.005.087.014.019.044.04.067.044.089.013.289-.074.289-.074s-.06.175-.065.244a.21.21 0 0 0 .032.126c.032.042.077-.02.09-.044.049-.1.108-.198.145-.304.007-.02.109-.064.109-.064h.26l-.008-.253z"/><path d="M-2.502 1.246c-.003-.018-.023-.033-.04-.04-.021-.01-.046-.004-.067.005-.013.006-.02.021-.025.035-.013.03 0 .082-.012.114a.09.09 0 0 1-.027.041c-.014.01-.054.014-.054.014s.064.039.095.04a.096.096 0 0 0 .058-.022.258.258 0 0 0 .072-.187zM-2.759.147c.007.018-.004.04-.016.055-.013.019-.038.025-.061.026C-2.85.23-2.864.22-2.875.21-2.9.19-2.915.14-2.939.116a.09.09 0 0 0-.044-.023C-3 .09-3.037.106-3.037.106s.038-.065.064-.08a.096.096 0 0 1 .062-.01.258.258 0 0 1 .152.13zm-.09.89c.016-.01.02-.035.02-.054C-2.83.959-2.848.94-2.866.925c-.01-.009-.027-.009-.042-.008-.033.003-.073.035-.107.04A.09.09 0 0 1-3.063.95c-.014-.008-.036-.043-.036-.043s-.007.075.006.103a.097.097 0 0 0 .045.044.256.256 0 0 0 .199-.017z"/></g><g fill="#cca066" stroke="#000" stroke-linecap="round" stroke-linejoin="round"><path d="M-.56 2.05l-.088.735.145.222c.018.027.066.11.138.17a.412.412 0 0 1 .11.124c.017.035.024.067.005.1-.021.033-.033.042-.073.043-.023 0-.049-.02-.068-.033-.1-.063-.042-.078-.136-.15a.623.623 0 0 1-.098-.111c-.029-.04-.086-.09-.086-.09s-.095-.027-.12-.01c-.054.039-.078.12-.133.159-.022.016-.067.065-.094.061-.045-.005-.056.006-.082-.03a.126.126 0 0 1-.022-.078c.014-.088.156-.254.156-.254s-.185.006-.252-.01a.21.21 0 0 1-.11-.068c-.031-.044.041-.068.068-.072.11-.018.222-.045.333-.05.022 0 .094-.084.094-.084l.104-.762.209.188z"/><path d="M-1.247 2.765c.017.008.025.032.027.05.003.024-.01.045-.026.062-.009.011-.026.013-.04.014-.033.003-.078-.023-.112-.023a.09.09 0 0 0-.048.015c-.013.01-.029.047-.029.047s-.018-.073-.01-.103a.096.096 0 0 1 .038-.05.258.258 0 0 1 .2-.012zm.973.572c-.015-.011-.04-.007-.057-.001-.022.008-.035.03-.043.05-.006.014 0 .03.005.043.013.031.057.06.072.09a.09.09 0 0 1 .008.049.167.167 0 0 1-.029.047s.074-.017.097-.038a.096.096 0 0 0 .027-.056.258.258 0 0 0-.08-.184zm-.876-.178c.014-.012.039-.008.057-.002.022.007.035.029.044.05.006.013 0 .029-.004.042-.013.032-.056.06-.07.09a.09.09 0 0 0-.008.05c.004.016.03.047.03.047s-.074-.016-.097-.037a.097.097 0 0 1-.028-.055.256.256 0 0 1 .076-.185z"/></g><path d="M-2.195.663c-.041.268.032.245.094.409.213-.1.162-.325.091-.429" stroke="#4f4f4f"/><path d="M-.783 1.811c.01.087-.02.14.192.59.125-.042.098-.377.065-.426" stroke="#4f4f4f" stroke-linecap="round"/></g><g stroke="#000"><path d="M198.28 223.62c-.407.584-2.16 2.012-2.98 2.831-1.796 1.37-.997 2.964-.447 4.768.117 1.678 0 3.377 0 5.067.288 1.444 1.291 2.409 1.639 3.874 3.512 2.738 9.357-7.735 9.834-11.027.427-4.446-4.998-4.18-8.046-5.514zm29.3-79.2c.865 1.727 1.527 3.302 3.479 3.358 2.139.236 3.214-1.976 5.215-2.086 5.964 2.136 6.728-.809 9.686-4.917-.672-1.17-8.687-4.864-10.58-3.726-1.209.613-2.554 1.166-3.725 1.938-1.254.756-.374 1.82-1.788 4.47-.935.888-2.081-.295-2.287.963z" fill-rule="evenodd" stroke-width=".4" transform="matrix(.0314 0 0 .03136 -13.748 -6.526)"/><path style="marker:none" d="M196.31 126.94c-2.242.173-3.919 2.563-6.219 3.563-3.504 2.376-11.864 20.023-15.656 12.219l5.5 24.28c3.278-.966 5.119-3.723 7.156-6.406 3.063-6.75 5.351-16.438 6.72-19.219.526-1.07 2.011-.568 2.968-1.187.334-.217 2.254-2.864 2.688-2.844 3.58.163 5.425.952 10.28 1.031 4.857.08 7.252 2.137 10.594 4.5 1.693 1.197 5.308-1.103 6.844 1.188.586 1.172 1.645-.02 2.375-.75 1.978-1.728.296-4.362 3.281-4.781.981-.263 3.126-.721 2.375-1.782-6.972-4.69-8.542-6.484-16.969-6.25-5.581.833-14.556-2.84-20.28-3.28-.59-.24-1.14-.322-1.657-.282zm-65.406 90.531l-35.281.438 13.156 28.656c8.925-.021 12.661 6.398 12.844 12.219 0 .924-1.11 1.78-.938 2.468.127 2.03 1.056 3.532 2.313 4.813 1.962 1.998 2.851 2.794 6.656 4.781 7.176 6.94 16.381 10.3 23.531 17.031 2.132 1.59 3.861-.427 6.656-.938 1.309-.327 2.424 1.43 3.72.782 1.299-1.1 7.859-5.46 6.343-7.563-1.803-.883-2.814-2.645-5.094-3.125-2.28-.48-4.925-.144-6.781-.406-9.027-2.369-18.7-7.42-24.219-15.25-4.661-7.066-3.982-13.032-2.469-18.875 2.025-7.817 3.822-16.474-.437-25.031z" color="#000" fill="#cf9662" fill-rule="evenodd" stroke-width=".4" overflow="visible" transform="matrix(.0314 0 0 .03136 -13.748 -6.526)"/><path transform="matrix(.0314 0 0 .03136 -13.489 -6.44)" d="M120.94 110.978c3.279 5.977 5.208 29.233 9.027 34.562-1.267 7.335-1.911 8.455-5.762 11.48-4.476 3.13-17.82 16.113-28.019 24.632-10.199 8.52-30.48 21.545-33.649 34.98-.016 5.18-.484 8.037-.044 13.206.869 8.052 12.093 10.425 13.647 19.013 1.293 10.546-.885 11.75-9.545 16.934-2.352 1.92-4.098 5.693-3.42 8.786-.506 2.582 2.552 3.04 2.705 5.268-1.09 6.086-1.14 1.779 1.87 11.018-.083 6.044 3.663 18.603.858 19.69 1.583 11.118 3.128 4.742 7.918 9.753.49.018.966.05 1.44.011.541-.044 1.062-.144 1.529-.362.233-.11.455-.246.66-.418.203-.173.393-.388.56-.638.237-.35.486-.664.759-.946a6.84 6.84 0 0 1 .869-.759c.606-.445 1.27-.772 1.968-1.033.204-.077.428-.111.638-.176-2.173-3.393-4.434-6.354-5.531-6.543-2.79.812-3.904-2.187-4.377-6.004-.527-5.958-.123-13.958-3.244-19.327.278-11.135 14.314-21.219 21.509-28.756 7.037-7.455 11.359-15.189 12.195-23.994 8.952-2.165 11.269-6.078 18.672-10.985 12.737-9.68 26.754-12.812 34.496-28.096 4.06-7.007 13.282-18.46 13.592-27.744-1.526-21.316-7.545-27.412-14.702-35.87-3.63-4.29-6.6-6.323-9.756-7.897z" style="marker:none" color="#000" fill="#cf9662" fill-rule="evenodd" stroke-width=".4" overflow="visible"/><path d="M93.304 318.79c-.21.065-.433.1-.638.176-.698.261-1.361.588-1.968 1.034a6.84 6.84 0 0 0-.869.758 6.936 6.936 0 0 0-.759.946 3.08 3.08 0 0 1-.56.638 2.938 2.938 0 0 1-.66.418c-.467.218-.988.318-1.529.363-.474.038-.95.006-1.44-.011.586.613 1.027 4.402 1.717 5.412 1.483 2.31 10.317.842 12.887.942.827-.053-3.112-5.884-6.18-10.676z" fill-rule="evenodd" stroke-width=".4" transform="matrix(.0314 0 0 .03136 -13.748 -6.526)"/><path style="marker:none" d="M72.393 215.772c-6.429 2.55-10.447-.731-11.202-3.264-1.009-2.907 7.694-7.733 2.663-13.157-.682 1.065-2.29 3.14-2.932 4.124-2.774 3.5-3.946.925-6.53 7.3-1.627 4.012 1.113 9.84 4.519 12.837 3.584 3.154 9.957 5.732 14.004 2.996m80.805-38.018c6.95 6.096 12.884 6.502 21.5 5.313 3.692-.477 6.442-2.081 11.438-2.594 1.568-.088 5.25-.96 6.031.906.291.695.663 1.515.969 2.187 1.145 1.91 3.03 1.956 4.625 3.032-.405 4.832 2.17 12.37 2.031 15.03 1.138 3.576-4.256 2.288-3.031 5.657-1.159 2.736-.016 4.075.469 6.031 3.54 2.168 5.465-.207 8.156 4.281.018.035.017.087.031.125.546-2.842 2.49-5.074 3.688-8.125 1.23-1.877 1.11-3.952 1.406-6.062-.52-8.04-4.25-15.39-5.03-23.37-.185-3.394-.608-6.19-4.031-9.156-3.423-2.967-9.002-4.568-12.75-6.72-3.372-2.115-7.22-4.255-8.032-8.437-.344-9.327-4.728-11.469-12.75-15.5-.24-.093-.484-.172-.718-.281" color="#000" fill="#cf9662" fill-rule="evenodd" stroke-width=".4" overflow="visible" transform="matrix(.0314 0 0 .03136 -13.748 -6.526)"/><path d="M205.944 228.564c-.004.02.004.043 0 .062.034.226.082.294.094.313a1.693 1.693 0 0 0-.094-.375z" fill="#e2c888" fill-rule="evenodd" stroke-width=".4" transform="matrix(.0314 0 0 .03136 -13.748 -6.526)"/><path style="marker:none" d="M108.82 210.38c2.289 4.041 8.38 19.039 2.362 33.677" color="#000" fill="#cf9662" fill-rule="evenodd" stroke-width=".4" overflow="visible" transform="matrix(.0314 0 0 .03136 -13.748 -6.526)"/><path d="M89.692 257.44c-1.381 6.186-6.319 8.859-10.489 12.82" fill="none" stroke-width=".2" transform="matrix(.0314 0 0 .03136 -13.748 -6.526)"/><path d="M162.94 287.88l6.656-7.585c5.524.842 8.823 2.529 11.454 4.334-4.097 3.233-6.194 9.8-14.86 5.418-.9-.906-1.938-1.673-3.25-2.167z" fill-rule="evenodd" stroke-width=".4" transform="matrix(.0314 0 0 .03136 -13.748 -6.526)"/></g><path d="M133.693 60.046c2.45 5.914-3.438 10.909.895 17.463-1.976 2.649-2.849 3.967-5.865 4.241-2.524-.116-3.327-2.232-4.01-4.307-.54-3.847.374-5.21-2.683-8.417 1.34 4.276-.564 6.84-.829 9.444-1.505-.877-3.084-2.026-4.274-4.374.05 4.43 1.644 4.756 3.943 7.886.96 1.963 1.858 4.053.133 5.899-2.35 1.91-5.451-.18-8.715-.696-1.475-7.717-9.985-7.144-12.36-13.09 1.03 4.87 1.466 6.048 5.5 8.848 9.084 8.165-.024 7.02-4.208 9.344-.764.305 5.454 1.423 8.88-.762 2.863-.887 6.814.752 9.71 1.856.142.7.473 1.345.696 2.021l6.13-1.822c-.608-.871-1.24-1.52-1.558-2.287.594-2.406.85-4.245.895-5.732.657.469 1.388.94 2.22 1.458.307.77.324 1.67.497 2.717l5.633-2.95c-.313-.638-.507-1.354-.894-1.954 2.506-4.642 3.808-6.364 4.407-6.959-.582-.051-1.588-1.25-1.922-7.654.933-4.822.442-5.968-2.22-10.173zm4.142 17.827c.471.042.645-.641 0 0z" fill="#69521b" fill-rule="evenodd" stroke="#000" stroke-width=".318" transform="matrix(.0314 0 0 .03136 -13.489 -6.44)"/><g style="marker:none" color="#000" fill="#e2c888" fill-rule="evenodd" stroke="#000" stroke-width=".713" overflow="visible"><path d="M-9.27-3.727a.046.046 0 0 0-.017.004c-.033.016-.117.065-.117.065l-.107.115-.152.063-.216.129-.024.209s.2.238.322.334c.059.047.127.08.194.115.06.032.12.068.184.088.05.016.114.025.155.025.041 0 .127-.045.162-.056.025-.008.069.002.11.003h-.004.007l.027-.001c.043-.003.108-.008.14-.001.04.009.122-.012.15-.016.016-.002.034-.008.065-.012.023-.003.03-.058.03-.058.016-.222-.008-.088-.007-.243-.157-.11-.393-.227-.522-.378 0 0-.024-.1-.058-.135a.312.312 0 0 0-.104-.05s-.024-.09-.046-.134c-.019-.038-.124-.07-.172-.066z" style="marker:none" fill="#cf9662" stroke-width=".013" overflow="visible"/><path style="marker:none" d="M594.735 63.676l-11.617-10.75 5.722 18.206" fill="#cf9662" overflow="visible" transform="matrix(.01574 -.00789 .0079 .01572 -19.642 .307)"/><g stroke-width=".15" fill="#ffc707" stroke-linecap="square" stroke-linejoin="bevel"><path style="marker:none" d="M-9.132-4.066a.108.108 0 0 0-.106.062.228.228 0 0 0-.006.07c.002.04.013.067.029.087.016.021.039.034.065.05a.07.07 0 0 1 .02.024h.01l-.012-.293zm-.906.221l.02.032s.039-.024.06-.03c.01-.003.021 0 .03-.004.01-.004.014-.013.023-.018.011-.006.038-.01.038-.01s-.029-.004-.042 0c-.01.004-.017.014-.026.017-.012.004-.026-.002-.038-.001-.022.002-.065.014-.065.014zm-.059.15l.23-.121.005.012-.229.12-.006-.012z" overflow="visible" stroke-width=".006"/><path style="marker:none" d="M-10.033-3.852l.179.363-.01.006-.18-.363.01-.006z" overflow="visible" stroke-width=".006"/><path style="marker:none" d="M-10.057-3.713l.166-.088c-.008.127.047.195.147.22-.094.01-.183.026-.22.12-.044-.053-.068-.156-.093-.252z" overflow="visible" stroke-width=".006"/><path style="marker:none" d="M-10.057-3.713c.255-.116.178.287.04.143-.015-.044-.027-.095-.04-.143z" overflow="visible" stroke-width=".006"/><path style="marker:none" d="M-10.057-3.713l.166-.088c-.008.127.047.195.147.22-.094.01-.183.026-.22.12-.044-.053-.068-.156-.093-.252zm.6-.375l.014.037a.375.375 0 0 1 .067-.035c.01-.003.021 0 .03-.004.01-.003.014-.013.022-.018.012-.006.039-.01.039-.01s-.029-.004-.042 0c-.01.004-.017.014-.027.017-.011.004-.025-.002-.038-.001-.022.002-.064.014-.064.014zm.147.067l-.247.076.004.013.247-.076-.004-.013z" overflow="visible" stroke-width=".006"/><path style="marker:none" d="M-9.46-4.089l.112.39.012-.003-.113-.39-.012.003z" overflow="visible" stroke-width=".006"/><path style="marker:none" d="M-9.35-4.006l-.18.055c.091.087.096.175.04.264.075-.06.15-.112.24-.069-.003-.07-.055-.161-.1-.25z" overflow="visible" stroke-width=".006"/><path style="marker:none" d="M-9.35-4.006c-.262.099.062.335.066.133-.019-.043-.044-.088-.067-.133z" overflow="visible" stroke-width=".006"/><path style="marker:none" d="M-9.35-4.006l-.18.055c.091.087.096.175.04.264.075-.06.15-.112.24-.069-.003-.07-.055-.161-.1-.25zm-.272.385a.06.06 0 0 0-.026-.015c-.029-.004-.053-.006-.074-.02a.146.146 0 0 1-.055-.072.25.25 0 0 1-.017-.07.124.124 0 0 1 .073-.105.117.117 0 0 1 .124.024.248.248 0 0 1 .034.063.151.151 0 0 1 .009.091c-.007.025-.023.044-.041.068a.062.062 0 0 0-.01.028l-.017.008z" overflow="visible" stroke-width=".006"/><path style="marker:none" d="M-9.622-3.621a.06.06 0 0 0-.026-.015c-.029-.004-.053-.006-.074-.02a.146.146 0 0 1-.055-.072.25.25 0 0 1-.017-.07.124.124 0 0 1 .073-.105.117.117 0 0 1 .124.024.248.248 0 0 1 .034.063.151.151 0 0 1 .009.091c-.007.025-.023.044-.041.068a.062.062 0 0 0-.01.028l-.017.008z" overflow="visible" stroke-width=".006"/><path style="marker:none" d="M-9.713-3.884l-.025.01.01.015-.026.01.012.018-.027.011.013.018-.035.018a.422.422 0 0 1-.002-.013.124.124 0 0 1 .072-.106.117.117 0 0 1 .123.025.423.423 0 0 1 .008.01l-.038.013-.002-.022-.027.01-.003-.02-.026.01-.003-.017-.024.01z" overflow="visible" stroke-width=".006"/><path style="text-indent:0;text-align:start;line-height:normal;text-transform:none;block-progression:tb;marker:none;-inkscape-font-specification:Bitstream Vera Sans" d="M-9.657-3.743a.429.429 0 0 1-.086.069l.003.007a.43.43 0 0 0 .087-.07l-.004-.006zm.002.014a.28.28 0 0 1-.069.071l.004.008a.286.286 0 0 0 .07-.074l-.005-.005zm.006.016c-.013.02-.012.026-.05.068l.006.006c.037-.043.037-.05.05-.069l-.006-.005zm.004.022a.136.136 0 0 1-.021.05l.005.006a.142.142 0 0 0 .022-.053l-.006-.003z" font-weight="400" overflow="visible" font-family="Bitstream Vera Sans" stroke-width=".006"/><path style="text-indent:0;text-align:start;line-height:normal;text-transform:none;block-progression:tb;marker:none;-inkscape-font-specification:Bitstream Vera Sans" d="M-9.66-3.742a.415.415 0 0 0 .108-.012l.002.008a.415.415 0 0 1-.109.012v-.008zm.008.012c.034.005.068.01.097.002l.002.008a.272.272 0 0 1-.1-.003v-.007zm.006.016c.022.005.026.01.081.014v.008c-.055-.005-.06-.01-.081-.014v-.008zm.012.018c.019.012.035.02.049.022v.008a.133.133 0 0 1-.051-.023l.002-.007z" font-weight="400" overflow="visible" font-family="Bitstream Vera Sans" stroke-width=".006"/><path style="marker:none" transform="matrix(.03821 -.01582 .01494 .03856 4.828 -11.954)" overflow="visible" d="M-398.734 48.505h.464V52.5h-.464z"/><path style="text-indent:0;text-align:start;line-height:normal;text-transform:none;block-progression:tb;marker:none;-inkscape-font-specification:Bitstream Vera Sans" d="M-9.662-3.751a.745.745 0 0 0-.111.055l.006.013a.912.912 0 0 1 .227-.094l-.005-.014a1.23 1.23 0 0 0-.117.04zm-.013-.036a.728.728 0 0 0-.11.055l.006.012a.878.878 0 0 1 .223-.092l-.005-.013a1.143 1.143 0 0 0-.115.038zm-.014-.05a.727.727 0 0 0-.11.054l.007.012a.797.797 0 0 1 .212-.087l-.005-.014a.935.935 0 0 0-.104.034z" font-weight="400" overflow="visible" font-family="Bitstream Vera Sans" stroke-width=".006"/><path style="marker:none" transform="matrix(.03821 -.01582 .01494 .03856 4.828 -11.954)" overflow="visible" d="M-400.875 47.77h.402v.418h-.402zm.815-.073h.402v.418h-.402zm.887-.036h.402v.418h-.402z"/><path style="marker:none" transform="matrix(-.03821 .01582 .01494 .03856 4.828 -11.954)" overflow="visible" d="M396.129 47.77h.402v.418h-.402zm.814-.073h.402v.418h-.402zm.888-.036h.402v.418h-.402z"/><path style="marker:none" d="M-9.721-3.904l-.021-.005-.024-.034.015-.019-.006-.015.003-.012.01.007.006.015.023.002.006.042-.012.019zm-.08.116l-.017-.006-.022-.035.01-.017-.005-.016.001-.011.009.007.006.016.02.004.007.042-.009.016zm.215-.089l-.017-.006-.022-.035.01-.017-.005-.016.001-.011.009.007.006.016.019.004.008.042-.009.016zm-.67.276a.106.106 0 0 1 .118-.03.218.218 0 0 1 .051.045.156.156 0 0 1 .038.084c.002.027-.006.053-.014.083-.003.01-.001.02.001.032l-.007.007-.186-.221z" overflow="visible" stroke-width=".006"/><path style="marker:none" d="M-10.255-3.601a.106.106 0 0 1 .117-.03.218.218 0 0 1 .051.045.156.156 0 0 1 .038.084c.002.027-.006.053-.014.083-.003.01-.001.02.001.032l-.007.007-.186-.221z" overflow="visible" stroke-width=".006"/><path style="marker:none" d="M-10.255-3.601a.106.106 0 0 1 .117-.03.464.464 0 0 1 .01.008l-.03.028-.009-.02-.02.022-.01-.02-.019.022-.008-.015-.018.02-.013-.015z" overflow="visible" stroke-width=".006"/><path style="text-indent:0;text-align:start;line-height:normal;text-transform:none;block-progression:tb;marker:none;-inkscape-font-specification:Bitstream Vera Sans" d="M-10.148-3.472a.42.42 0 0 0 .092-.058l.004.006a.42.42 0 0 1-.093.06l-.003-.008zm.01.008a.256.256 0 0 0 .088-.04l.004.007a.26.26 0 0 1-.09.04l-.002-.007zm.01.013c.022-.005.027-.002.078-.022l.003.007c-.051.02-.057.018-.078.022l-.002-.007zm.018.012c.02.004.037.004.05 0l.003.007a.113.113 0 0 1-.053.001v-.008z" font-weight="400" overflow="visible" font-family="Bitstream Vera Sans" stroke-width=".006"/><path d="M-10.173-3.504l.006-.007.052.061.052.062-.007.007-.103-.123z" style="marker:none" overflow="visible" stroke-width=".006"/><path style="text-indent:0;text-align:start;line-height:normal;text-transform:none;block-progression:tb;marker:none;-inkscape-font-specification:Bitstream Vera Sans" d="M-10.147-3.467a1.354 1.354 0 0 1 .093-.091l-.008-.011c-.032.028-.065.06-.094.091l.01.01zm-.024-.028a1.343 1.343 0 0 1 .092-.09l-.009-.01c-.03.027-.064.06-.092.09l.009.01zm-.032-.039a1.22 1.22 0 0 1 .087-.085l-.008-.011a1.012 1.012 0 0 0-.082.078l-.006.007.009.011z" font-weight="400" overflow="visible" font-family="Bitstream Vera Sans" stroke-width=".006"/><path style="marker:none" transform="matrix(-.02774 .03067 .02666 .03162 4.828 -11.954)" stroke-width=".151" overflow="visible" d="M410.375-133.908h.417v.407h-.417zm.845-.072h.417v.407h-.417zm.921-.034h.417v.407h-.417z"/><path style="marker:none" d="M-10.256-3.602l-.057-.068.01.002.01.013.022-.008.02.038-.005.023zm.13-.032l-.018.002-.032-.025.005-.021-.01-.013-.003-.011.01.003.01.012.019-.004.02.037-.002.02zm.994-.432a.108.108 0 0 0-.106.062.228.228 0 0 0-.006.07c.002.04.013.067.029.087.016.021.039.034.065.05a.07.07 0 0 1 .02.024h.01l-.012-.293z" overflow="visible" stroke-width=".006"/><path style="marker:none" d="M-9.132-4.066a.108.108 0 0 0-.105.062.44.44 0 0 0-.003.013h.041l-.007-.022.029.002-.006-.02h.029l-.004-.016.026.001v-.02z" overflow="visible" stroke-width=".006"/><path style="text-indent:0;text-align:start;line-height:normal;text-transform:none;block-progression:tb;marker:none;-inkscape-font-specification:Bitstream Vera Sans" d="M-9.124-3.896a.409.409 0 0 1-.105.023v.008a.413.413 0 0 0 .108-.023l-.003-.008zm-.002.013a.253.253 0 0 1-.09.034l.001.008a.258.258 0 0 0 .092-.035l-.003-.007zm0 .017c-.018.011-.02.018-.07.04l.004.006c.05-.021.052-.028.07-.039l-.003-.007zm-.003.021a.113.113 0 0 1-.037.036l.003.007a.118.118 0 0 0 .039-.037l-.005-.006z" font-weight="400" overflow="visible" font-family="Bitstream Vera Sans" stroke-width=".006"/><path d="M-9.127-3.937h-.01l.004.081.003.081h.01l-.007-.162z" style="marker:none" overflow="visible" stroke-width=".006"/><path style="text-indent:0;text-align:start;line-height:normal;text-transform:none;block-progression:tb;marker:none;-inkscape-font-specification:Bitstream Vera Sans" d="M-9.122-3.892a1.3 1.3 0 0 0-.127.001l-.002-.014a1.35 1.35 0 0 1 .129 0v.013zm0-.037a1.276 1.276 0 0 0-.127.001l-.001-.014c.04-.002.086-.003.127 0v.013zm-.003-.051a1.165 1.165 0 0 0-.12 0l-.002-.013a.976.976 0 0 1 .112-.002h.01v.015z" font-weight="400" overflow="visible" font-family="Bitstream Vera Sans" stroke-width=".006"/><path style="marker:none" transform="matrix(.04128 .00244 .00179 .04132 4.828 -11.954)" overflow="visible" d="M-349.762 213.906h.41v.413h-.41zm.831-.073h.41v.413h-.41zm.904-.035h.41v.413h-.41z"/><path style="marker:none" d="M-9.132-4.068l-.004-.09-.007.01v.017l-.02.01.012.04.019.013zm-.115.07l.013-.011.007-.04-.018-.013v-.016l-.006-.01-.005.01v.015l-.016.01.01.042.015.013zm-.76.755l-.076-.12c.297-.216.632-.334.984-.408l.025.142a2.789 2.789 0 0 0-.932.386z" overflow="visible" stroke-width=".006"/><path style="marker:none" d="M-10.006-3.243l-.077-.12a2.053 2.053 0 0 1 .296-.179l.055.141a2.38 2.38 0 0 0-.274.158zm.578-.442c.107-.034.217-.062.33-.086l.024.142a3.767 3.767 0 0 0-.301.084l-.053-.14z" overflow="visible" stroke-width=".006"/><path style="marker:none" d="M-9.265-3.732s.11-.027.166-.039l.025.142-.155.04-.036-.143zm-.607.405s-.09.055-.134.084l-.077-.12c.048-.035.146-.097.146-.097l.065.133z" overflow="visible" stroke-width=".006"/><path style="marker:none" d="M-10.006-3.243l-.077-.12c.297-.216.632-.334.984-.408l.025.142a2.789 2.789 0 0 0-.932.386z" overflow="visible" stroke-width=".006"/><path style="text-indent:0;text-align:start;line-height:normal;text-transform:none;block-progression:tb;marker:none;-inkscape-font-specification:Bitstream Vera Sans" d="M-9.588-3.485a2.401 2.401 0 0 0-.427.227c-.005.02.005.027.017.03a2.77 2.77 0 0 1 .929-.384c.01-.017.002-.026-.01-.034a3.394 3.394 0 0 0-.51.161zm-.03-.151c-.166.066-.325.15-.474.258-.003.012-.002.023.017.03.295-.215.629-.332.98-.405.01-.017.005-.027-.009-.034a3.135 3.135 0 0 0-.514.15z" font-weight="400" overflow="visible" font-family="Bitstream Vera Sans" stroke-width=".006"/></g><path style="marker:none" d="M587.626 82.23s-7.912-4.084-11.097-7.11c-3.567-3.39-6.657-7.48-8.59-12.008-1.594-3.731-2.147-7.906-2.254-11.964-.075-2.841.327-5.726 1.134-8.452.345-1.165 1.56-3.295 1.56-3.295l7.11 5.375c5.117 4.216 6.454 6.813 8.496 9.71l6.415 18.727" fill="#cf9662" overflow="visible" transform="matrix(.01574 -.00789 .0079 .01572 -19.642 .307)"/><path style="marker:none" d="M608.787 76.364c1.782-1.498 3.155-.75 4.535-.917 1.371-.166 2.697.47 3.796 1.217 1.454.989 2.757 2.423 3.347 4.08.435 1.221-.012 3.889-.012 3.889" fill="#cf9662" stroke-width=".714" stroke-linecap="round" overflow="visible" transform="matrix(.01574 -.00789 .0079 .01572 -19.642 .307)"/><path style="marker:none" d="M-10.254-3.384l.14.096c.017.013.06.056.085.075a.316.316 0 0 0 .103.055c.022 0 .088-.006.088-.006s-.051-.007-.098-.036a.208.208 0 0 1-.078-.069c-.02-.028-.032-.118-.032-.118l-.017-.034s-.037.045-.058.056c-.021.01-.067-.004-.086-.01-.02-.007-.047-.01-.047-.01z" fill="#502d16" overflow="visible" stroke="none"/><path style="marker:none" d="M598.448 91.099s2.15 10.483 5.445 14.43c2.713 3.25 6.963 4.954 10.891 6.534 3.023 1.217 6.331 1.556 9.53 2.179 2.797.544 8.44 1.36 8.44 1.36l3.932.419" fill="#cf9562" stroke="#825228" overflow="visible" transform="matrix(.01574 -.00789 .0079 .01572 -19.642 .307)"/></g><path style="marker:none" d="M128.986 102.562s1.202-2.17 2.258-2.657c1.522-.7 4.07-.13 4.947 1.386l3.02 4.3-2.963-3.954s-1.715 2.133-2.954 2.353c-1.49.265-4.308-1.428-4.308-1.428z" color="#000" fill="#b3b3b3" fill-rule="evenodd" stroke="#000" stroke-width=".4" stroke-linecap="round" overflow="visible" transform="matrix(.0314 0 0 .03136 -13.489 -6.44)"/><path transform="matrix(.01728 -.00785 .00867 .01564 -20.643 .223)" style="marker:none" d="M616.274 85.697a2.986 2.986 0 1 1-5.972 0 2.986 2.986 0 0 1 5.972 0z" color="#000" fill-rule="evenodd" stroke="#000" stroke-width=".713" overflow="visible"/><path d="M-8.79-3.044a.332.332 0 0 1-.1-.05.468.468 0 0 1-.126-.115c-.012-.014-.162-.075-.168-.09-.003-.008-.046-.036-.08-.07-.02-.021.17.079.21.082.042.004.08.027.115.027.04 0 .06 0 .089-.014l.01-.005.015.014a1.526 1.526 0 0 0 .22.15c.004 0 0 .005-.017.018a.239.239 0 0 1-.063.035l-.046.02h-.021a.417.417 0 0 1-.037-.002z" style="marker:none" color="#000" fill="#6c5d53" fill-rule="evenodd" overflow="visible"/><g color="#000" stroke="#000" stroke-width=".013"><path style="marker:none" d="M-8.432-2.972c-.016 0-.06.006-.075.027-.015.02-.034.039-.038.057-.003.017.034.027.034.027s.043-.038.057-.017c.015.02.01.065.01.065s-.014.03-.034.032c-.02.002-.038.003-.049-.019-.01-.021.005-.037.008-.055.003-.017-.04-.012-.04-.012s-.015.033-.017.055c-.002.021 0 .054.017.07a.205.205 0 0 0 .1.032.442.442 0 0 1 .072-.013c.046-.021.06.035.08-.027-.004-.025.007-.128.007-.128-.016-.078-.055-.091-.132-.094z" fill="#2b1100" fill-rule="evenodd" overflow="visible"/><path style="marker:none" d="M-8.616-2.687l.16-.023" fill="none" overflow="visible"/></g><path d="M158.621 116.4c-.432-.25-.5-.693-.221-1.448.158-.43.228-.511.733-.858.308-.211.658-.407.78-.435.197-.047.233-.02.347.252.07.167.146.63.17 1.03l.043.726-.356.394c-.34.376-.377.395-.83.421-.305.018-.543-.011-.666-.082z" style="marker:none" color="#000" stroke="#000" stroke-width=".032" stroke-linecap="round" overflow="visible" transform="matrix(.0314 0 0 .03136 -13.489 -6.44)"/><path d="M-9.076-2.59a1.602 1.602 0 0 1-.093-.015l-.031-.006-.034-.016a.634.634 0 0 1-.034-.017l.06-.004c.152-.01.228-.02.303-.036.137-.031.225-.088.268-.172a.321.321 0 0 0 .02-.053c.02-.065.026-.08.047-.102a.167.167 0 0 1 .017-.014.177.177 0 0 1 .041-.021 1.123 1.123 0 0 1 .11.07.156.156 0 0 0-.101.018.393.393 0 0 0-.043.055c-.006.012-.006.018-.003.027 0 .001 0 .002-.007.002l-.008.001-.003.009a.293.293 0 0 0-.014.043.16.16 0 0 0 .002.057c.006.02.014.03.034.039a.288.288 0 0 0 .039.016l-.095.014-.016.002.001.006.001.007a3.293 3.293 0 0 0 .244-.037l-.007.028a.043.043 0 0 1-.011.017.3.3 0 0 1-.217.03 1.14 1.14 0 0 0-.174.002 1.007 1.007 0 0 1-.081-.006c-.024 0-.027.001-.083.025a.58.58 0 0 1-.079.03.137.137 0 0 1-.053.002z" style="marker:none" color="#000" fill="#6c5d53" fill-rule="evenodd" overflow="visible"/><path d="M-8.483-2.216a.642.642 0 0 1-.099-.074c-.081-.073-.121-.093-.272-.136-.156-.045-.212-.073-.251-.128l-.015-.021h.052a.223.223 0 0 0 .109-.022c.083-.034.099-.037.13-.029.082.022.245.176.414.39l.03.038h-.031a.164.164 0 0 1-.067-.018z" style="marker:none" color="#000" fill="#6c5d53" fill-rule="evenodd" overflow="visible"/><path style="marker:none" d="M-9.366-3.22c.02-.005.033-.019.029-.03s-.024-.016-.044-.01c-.02.006-.032.02-.028.03.004.012.023.016.043.01z" opacity=".771" color="#000" fill="#e6e6e6" overflow="visible"/><path d="M-4.995-1.103l.287.971 1.013-.016-.835.573.329.959-.804-.617-.81.609.339-.955-.83-.583 1.014.027.297-.968z" fill="#fff"/><path d="M-4.708-.132l-1.107 1.507.81-.608.01-1.87.287.971zm-.768.552l1.782-.568-.836.573.33.959-.82-1.14-1.285-.406.829.582z" fill="#b3b3b3"/><path style="text-align:start;line-height:125%" d="M-15.863-3.124L-17.5-3.61l.064-.217 1.636.487-.064.216zm.168-.598l-1.575-.656.089-.213 1.58-.314-1.236-.514.083-.2 1.576.655-.09.214-1.582.313 1.239.515-.084.2zm.917-1.953l-1.295-.768-.286.483-.174-.103.69-1.163.174.103-.288.485 1.294.768-.115.195zm.543-.874l-1.336-1.062.767-.966.158.125-.627.79.41.325.587-.74.156.125-.587.74.455.36.652-.82.157.125-.792.998zm1.005-1.23l-1.167-1.245.17-.158 1.57.365-.916-.978.158-.148 1.166 1.246-.169.158-1.57-.366.916.979-.158.148zm1.28-1.158l-.965-1.408.485-.333c.11-.075.197-.125.264-.151a.578.578 0 0 1 .276-.04.694.694 0 0 1 .331.126c.104.072.199.171.285.297.073.107.125.21.157.31s.046.19.044.27a.619.619 0 0 1-.04.216.634.634 0 0 1-.12.186c-.055.06-.125.12-.21.179l-.508.348zm.072-.294l.3-.206a.884.884 0 0 0 .201-.176.379.379 0 0 0 .076-.16.539.539 0 0 0-.018-.248 1.056 1.056 0 0 0-.15-.297c-.1-.147-.202-.244-.304-.29a.442.442 0 0 0-.285-.038.883.883 0 0 0-.261.137l-.296.202.737 1.076zm1.371-.656l-.75-1.533 1.109-.543.088.181-.905.443.23.47.847-.415.088.18-.848.415.256.522.94-.46.09.18-1.145.56zm1.435-.678l-.519-1.626.221-.07 1.261 1.004-.407-1.277.206-.066.52 1.626-.222.07-1.261-1.004.408 1.277-.207.066zm2.763-1.279l.232.022a.76.76 0 0 1-.186.458.704.704 0 0 1-.423.215.81.81 0 0 1-.46-.041.701.701 0 0 1-.311-.28 1.16 1.16 0 0 1-.16-.439 1.006 1.006 0 0 1 .028-.475.698.698 0 0 1 .24-.343.847.847 0 0 1 .392-.166.7.7 0 0 1 .446.062.677.677 0 0 1 .297.324l-.211.087a.527.527 0 0 0-.213-.242.46.46 0 0 0-.294-.04.552.552 0 0 0-.31.145.498.498 0 0 0-.144.279 1 1 0 0 0-.002.332c.023.143.063.265.122.366.059.1.136.17.233.209.096.039.196.05.298.034a.486.486 0 0 0 .3-.158.56.56 0 0 0 .126-.349zm.637.558l-.085-1.704.225-.012.085 1.705-.225.011zm.436-.045l.74-1.672.243.013.612 1.74-.257-.014-.173-.526-.713-.036-.213.507-.24-.012zm.527-.675l.578.029-.154-.481a4.665 4.665 0 0 1-.104-.36 2.176 2.176 0 0 1-.108.321l-.212.49zm3.215 1.26l.544-1.618.214.072-.544 1.618-.214-.072zm.623.223l.636-1.584.21.084-.637 1.584-.21-.084zm1.18.519l.887-1.458.646.394c.13.08.221.153.273.22a.38.38 0 0 1 .077.237.484.484 0 0 1-.073.257.43.43 0 0 1-.26.2c-.11.03-.24.012-.392-.054.036.056.06.104.072.144.025.086.039.183.042.291l.012.551-.243-.147-.008-.421a3.211 3.211 0 0 0-.017-.286.51.51 0 0 0-.038-.157.339.339 0 0 0-.065-.092.678.678 0 0 0-.103-.073l-.224-.136-.394.647-.193-.117zm.688-.697l.415.253a.728.728 0 0 0 .223.098.261.261 0 0 0 .285-.125.254.254 0 0 0 .029-.216c-.023-.075-.089-.145-.197-.21l-.461-.282-.294.482zm.767 1.622l1.093-1.31.948.79-.13.154-.774-.645-.334.401.725.605-.128.154-.726-.605-.372.446.805.671-.129.155-.978-.816zm2.24 1.188l.15-.132.479.54-.475.42a1.277 1.277 0 0 1-.377-.125 1.019 1.019 0 0 1-.512-.642.712.712 0 0 1 .028-.439.98.98 0 0 1 .272-.38 1.07 1.07 0 0 1 .418-.23.695.695 0 0 1 .438.013.94.94 0 0 1 .377.268c.082.093.14.19.177.291a.555.555 0 0 1 .03.286.74.74 0 0 1-.124.282l-.177-.116a.63.63 0 0 0 .09-.207.39.39 0 0 0-.018-.2.598.598 0 0 0-.122-.207.692.692 0 0 0-.212-.17.5.5 0 0 0-.214-.054.591.591 0 0 0-.198.031.893.893 0 0 0-.3.179.833.833 0 0 0-.235.311.503.503 0 0 0-.02.323c.03.108.082.204.156.288a.758.758 0 0 0 .232.177.74.74 0 0 0 .23.08l.239-.21-.332-.377zm.177 1.3l1.396-.982.13.185-1.396.981-.13-.185zm1.065.043c.248-.136.48-.176.693-.12.213.056.378.19.494.4a.82.82 0 0 1 .106.428.737.737 0 0 1-.137.406 1.023 1.023 0 0 1-.354.307 1.006 1.006 0 0 1-.457.132.715.715 0 0 1-.415-.111.848.848 0 0 1-.292-.313.807.807 0 0 1-.105-.433.75.75 0 0 1 .14-.405.963.963 0 0 1 .327-.29zm.109.206c-.18.099-.296.225-.346.38a.546.546 0 0 0 .044.45.545.545 0 0 0 .36.281c.157.039.332.005.524-.1a.874.874 0 0 0 .285-.237.541.541 0 0 0 .041-.605.577.577 0 0 0-.343-.282c-.152-.048-.34-.01-.565.113zM6.43-6.43l.36-.021.133.24-.41-.067-.083-.152zM5.41-4.448l1.607-.577.078.218-.958 1.297L7.4-3.963l.073.204-1.606.576-.078-.218.96-1.296-1.263.453-.073-.204zm-18.626 14.962l1.507-1.034.2.138-.391 1.802-.212-.146.129-.539-.588-.404-.448.32-.197-.137zm.803-.298l.476.328.121-.49c.037-.15.07-.27.101-.36-.08.077-.167.15-.26.216l-.438.306zm.674 1.289l.77-1.523.208.105.194 1.6.605-1.196.194.098-.77 1.523-.208-.105-.194-1.601-.605 1.197-.194-.098zm1.963.897l.51-1.416-.53-.19.069-.19 1.272.458-.068.19-.531-.191-.51 1.416-.212-.077zm1.084-.49c.063-.276.186-.475.37-.598a.776.776 0 0 1 .628-.104.817.817 0 0 1 .39.204.737.737 0 0 1 .213.371c.035.146.033.303-.005.47a1.006 1.006 0 0 1-.204.429.715.715 0 0 1-.358.237.848.848 0 0 1-.428.011.807.807 0 0 1-.394-.209.75.75 0 0 1-.21-.373.963.963 0 0 1-.002-.437zm.227.056c-.046.2-.028.37.054.51s.204.229.367.265c.165.038.315.01.449-.082.133-.092.224-.245.273-.46a.874.874 0 0 0 .011-.37.541.541 0 0 0-.425-.431.577.577 0 0 0-.44.07c-.136.081-.233.247-.29.498zm1.483 1.148l.177-1.698 1.145.12-.02.2-.921-.096-.055.526.797.083-.021.2-.797-.083-.08.771-.225-.023zm1.253.134l.648-1.71h.243l.706 1.703-.257.001-.201-.516-.714.003-.185.518-.24.001zm.49-.703l.578-.003-.18-.471a4.673 4.673 0 0 1-.123-.354c-.021.11-.051.219-.09.327l-.185.501zm1.999-.084l-.026-.199.717-.093.08.628a1.276 1.276 0 0 1-.315.242 1.018 1.018 0 0 1-.819.064.712.712 0 0 1-.347-.27.98.98 0 0 1-.161-.438 1.056 1.056 0 0 1 .044-.475.693.693 0 0 1 .257-.356.94.94 0 0 1 .433-.16.892.892 0 0 1 .34.016.555.555 0 0 1 .254.136c.065.064.12.15.163.26l-.195.082a.63.63 0 0 0-.12-.191.392.392 0 0 0-.177-.098.598.598 0 0 0-.239-.014.692.692 0 0 0-.26.08.5.5 0 0 0-.165.146.591.591 0 0 0-.085.181.893.893 0 0 0-.021.35c.02.15.061.273.126.368.065.095.15.16.256.197a.708.708 0 0 0 .326.034.758.758 0 0 0 .277-.092.74.74 0 0 0 .195-.147l-.04-.315-.498.064zm.946.547l.208-1.817.236-.06 1.102 1.478-.249.064-.322-.45-.69.177-.053.548-.232.06zm.301-.802l.56-.145-.29-.413a4.668 4.668 0 0 1-.205-.312c.006.111.003.224-.008.338l-.056.532zm1.146-.146l.192-.095a.47.47 0 0 0 .142.17.384.384 0 0 0 .208.06.65.65 0 0 0 .263-.047.628.628 0 0 0 .198-.12.316.316 0 0 0 .099-.151.244.244 0 0 0-.008-.154.222.222 0 0 0-.095-.113.345.345 0 0 0-.18-.038c-.049 0-.153.01-.313.033a1.49 1.49 0 0 1-.345.02.462.462 0 0 1-.228-.081.39.39 0 0 1-.133-.176.434.434 0 0 1-.02-.252.454.454 0 0 1 .138-.237.813.813 0 0 1 .27-.168.856.856 0 0 1 .334-.065.483.483 0 0 1 .45.306l-.197.095a.35.35 0 0 0-.199-.185c-.082-.027-.185-.017-.307.031-.127.05-.21.11-.25.179a.225.225 0 0 0-.022.203.194.194 0 0 0 .117.116c.055.021.175.018.361-.01.187-.029.317-.04.392-.037.11.007.199.034.268.082.07.049.121.115.155.2a.46.46 0 0 1 .02.268.513.513 0 0 1-.14.256.78.78 0 0 1-.282.182.982.982 0 0 1-.386.079.544.544 0 0 1-.303-.1.576.576 0 0 1-.199-.251zm2.128-.327L.57 10.41l-.495.266-.096-.177 1.192-.64.095.177-.497.267.712 1.326-.199.107zm.741-.392l-.456-1.77.198-.141 1.56.985-.21.149-.462-.306-.582.414.148.53-.196.14zm-.005-.856l.471-.336-.42-.281a4.671 4.671 0 0 1-.303-.218c.046.101.084.208.114.318l.138.517z" font-size="24" font-weight="400" fill="gold" font-family="Arial"/></svg>