<svg xmlns="http://www.w3.org/2000/svg" xmlns:xlink="http://www.w3.org/1999/xlink" version="1" width="900" height="600" xmlns:cgf="https://coding.garden/flags"><metadata id="cgf-metadata">

<cgf:flag>
  <cgf:name></cgf:name>
  <cgf:route>cl/ar</cgf:route>
  <cgf:aspect-ratio>1.5</cgf:aspect-ratio>
</cgf:flag>

</metadata><path fill="#d52b1e" d="M0 400h900v200H0z"></path><path fill="#fff" d="M0 200h900v200H0z"></path><path fill="#0039a6" d="M0 0h900v200H0z"></path><path d="M439.51 346.26h-8.288s-10.494 7.424-11.181 8.32c-.804 1.045-1.202 3.187 0 4.25 1.201 1.063 3.714 1.031 4.952 0 1.238-1.032 0-4.126 0-4.126l5.749-.049s-1.081 3.168 0 4.223c1.08 1.056 3.242 1.05 4.323 0 1.08-1.05 0-4.201 0-4.201l6.3-.022s-.634 2.55 0 4.03c.634 1.479 3.973 1.377 4.71.242.856-1.317 0-4.249 0-4.249l6.785-.048s-1.128 2.951 0 4.226c1.128 1.274 3.34 1.274 4.468 0 1.13-1.275 0-4.226 0-4.226l5.556-.049s-1.074 2.94.097 4.226c1.17 1.287 3.737 1.565 4.587.097.808-1.394.729-2.454 0-4.324-.532-1.366-10.143-8.32-10.143-8.32h-9.275v-2.583l-8.64.116v2.468zm1.855 0h4.71v4.107h-4.71v-4.106zm-20.579-82.047v72.692h-2.599v-2.536h13.88v2.536h-2.535v-9.436h2.536v2.314h-13.88v-2.314h11.344v-6.917h2.536v2.122h-13.88v-2.122h11.344v-7.314h2.536v2.536h-13.88v-2.536h11.344v-6.762h2.536v2.177h-13.88v-2.177h11.344v-7.193h2.536v2.398h-13.88v-2.398h11.344v-7.038h2.536v2.397h-13.88v-2.397h11.344v-7.038h2.536v2.317h-13.88v-2.317h11.344v-7.055h2.536v2.397h-13.88v-2.397h11.344v-7.177h2.536v2.536h-13.88v-2.536h11.344v-6.762h9.855l-.138 2.043h-21.062v-2.043h2.6z" fill="#fff" fill-rule="evenodd"></path><path d="M439.56 264.213v72.692h-2.599v-2.536h13.88v2.536h-2.535v-9.436h2.535v2.314h-13.88v-2.314h11.345v-6.917h2.535v2.122h-13.88v-2.122h11.345v-7.314h2.535v2.536h-13.88v-2.536h11.345v-6.762h2.535v2.177h-13.88v-2.177h11.345v-7.193h2.535v2.398h-13.88v-2.398h11.345v-7.038h2.535v2.397h-13.88v-2.397h11.345v-7.038h2.535v2.317h-13.88v-2.317h11.345v-7.055h2.535v2.397h-13.88v-2.397h11.345v-7.177h2.535v2.536h-13.88v-2.536h11.345v-6.762h9.855l.138 2.319-21.338-.276v-2.043h2.6z" fill="#fff" fill-rule="evenodd"></path><path d="M458.334 264.213v72.692h-2.6v-2.536h13.881v2.536h-2.536v-9.436h2.536v2.314h-13.88v-2.314h11.344v-6.917h2.536v2.122h-13.88v-2.122h11.344v-7.314h2.536v2.536h-13.88v-2.536h11.344v-6.762h2.536v2.177h-13.88v-2.177h11.344v-7.193h2.536v2.398h-13.88v-2.398h11.344v-7.038h2.536v2.397h-13.88v-2.397h11.344v-7.038h2.536v2.317h-13.88v-2.317h11.344v-7.055h2.536v2.397h-13.88v-2.397h11.344v-7.177h2.536v2.536h-13.88v-2.536h11.344v-6.762h2.536v2.043h-13.88v-2.043h2.599z" fill="#fff" fill-rule="evenodd"></path><path d="M420.234 336.905h46.98l2.045 3.381-6.762 2.536h-14.37v1.186h-.845v-2.031h13.524v-2.536h-33.81v2.536h13.524v2.535h-.845v-1.69h-14.37l-6.289-2.536 1.218-3.38zm23.514-93.781c.677-.058 11.118 3.31 10.484 4.046-.633.736-3.24 3.151-2.724 3.894.517.743 1.362 3.64 3.381 3.006 2.02-.634 2.585-10.906 7.31-10.983 3.923-.062 7.17 21.374 7.17 21.374l-51.32-.11s2.899-21.22 7.282-21.264c3.906-.037 4.2 8.78 7.582 10.983 3.38 2.203 3.17-1.527 4.226-3.006 1.057-1.479-2.113-3.122-2.536-3.756-.422-.634 8.468-4.126 9.145-4.184zm.319 9.045c-1.294.03-6.415 1.901-7.374 3.592-.959 1.69-.088 4.437.446 5.917.534 1.479 1.366-3.589 2.178-5.072.813-1.483 8.509-1.69 9.253 0 .745 1.69 1.359 6.447 2.093 5.072.735-1.376 1.057-4.127.845-5.917-.21-1.79-6.147-3.622-7.441-3.592z" fill="#fff" fill-rule="evenodd"></path><path d="m365.49 200.83 1.849-9.675c25.174-9.642 50.034-23.03 70.988-39.817 4.009-2.033 9.187-.613 13.54-.467 26.403 16.448 48.615 28.914 79.375 38.286l3.268 9.805" fill="#e3e4e5" fill-rule="evenodd" stroke="#000" stroke-width=".506"></path><g stroke="#000" stroke-width=".253" stroke-linecap="round" stroke-linejoin="bevel"><path d="M476.326 203.238h-51.798v8.453h51.798v-8.453z" fill="#dc241f"></path><path d="M469.745 195.209h-44.718v8.03h47.197c-.826-2.677 1.728-7.505-2.479-8.03z" fill="#e3e4e5"></path><path d="M424.18 195.209c15.226 0 30.451-.447 45.677-.122 1.404.476 3.03 1.847 4.545 1.895 1.542-3.738 2.576-9.339-1.442-10.226h-45.01c-5.309.1-3.354 4.431-3.769 8.453z" fill="#0035ad"></path></g><g transform="translate(327.912 145.735) scale(.84525)"><g id="a" fill-rule="evenodd" stroke="#000"><path d="M121.266 58.523c-1.91.055-2.805.886-2.893 2.57-.796 2.024-2.395-2.726-2.684-3.93" fill="#0035ad" stroke-width=".299" stroke-linecap="round"></path><path d="M118.901 65.935c5.723-.063-4.496-8.501-5.035-13.324.37 5.323 0 10.46 0 15.69" fill="#0035ad" stroke-width=".299"></path><path d="M125.831 67.947c-1.91.055-3.198.951-3.286 2.636-.797 2.023-2.395-2.726-2.684-3.93" fill="#e3e4e5" stroke-width=".299"></path><g stroke-width=".339"><path d="M124.563 80.906c-1.888.289-3.77.59-5.657.75-2.752.233-5.5.375-8.25.406-5.499.063-11.007-.21-16.5-.437-5.493-.228-10.978-.42-16.469-.25-2.745.085-5.473.249-8.218.563-1.518.173-3.044.517-4.563.78-.67 3.64-1.45 7.15-2.687 9.532 10.355-5.777 39.422 2.364 61.343-2.906-.33-.646.322-4.31 1-8.438z" fill="#ed1c24" transform="matrix(.8617 0 0 .90546 -33.427 -3.413)"></path><path d="M125.531 72.094c-1.087.186-2.209.492-3.281.625-2.785.346-5.512.53-8.219.594-5.412.126-10.692-.213-16-.563-5.307-.35-10.641-.701-16.125-.656a91.37 91.37 0 0 0-8.375.437c-2.227.224-4.506.65-6.812 1.094-.62 2.88-1.225 5.907-1.813 9.094 1.519-.264 3.045-.608 4.563-.781 2.745-.314 5.473-.478 8.219-.563 5.49-.17 10.975.022 16.468.25s11.001.5 16.5.438c2.75-.032 5.498-.174 8.25-.407 1.887-.16 3.769-.461 5.656-.75.488-2.968.786-5.863.97-8.812z" fill="#e3e4e5" transform="matrix(.8617 0 0 .90546 -33.427 -3.413)"></path><path d="M81.906 63.594c-4.222.176-8.17.761-11.75 2.125-1.7.927-2.633 4.173-3.437 7.906 2.306-.444 4.585-.87 6.812-1.094a91.37 91.37 0 0 1 8.375-.437c5.484-.045 10.818.306 16.125.656 5.308.35 10.588.69 16 .563a82.022 82.022 0 0 0 8.219-.594c1.072-.133 2.194-.44 3.281-.625.235-3.776.116-7.127-1.437-8.031-14.465 2.253-29.52-.998-42.188-.47z" fill="#0035ad" transform="matrix(.8617 0 0 .90546 -33.427 -3.413)"></path></g><path d="M64.952 65.164c2.417-3.517 6.966-6.112 8.757-10.634 3.94 7.99.95 12.785 3.232 13.032-3.245 1.125-9.06-.817-11.99-2.398z" fill="#0035ad" stroke-width=".299" stroke-linejoin="bevel"></path><g stroke-width=".299"><path d="M65.49 80.906c1.888.289 3.77.59 5.656.75 2.752.233 5.5.375 8.25.406 5.5.063 11.007-.21 16.5-.437 5.493-.228 10.979-.42 16.469-.25 2.745.085 5.474.249 8.219.563 1.518.173 3.044.517 4.562.78.671 3.64 1.45 7.15 2.688 9.532-10.356-5.777-39.422 2.364-61.344-2.906.33-.646-.322-4.31-1-8.438z" fill="#ed1c24"></path><path d="M64.521 72.094c1.088.186 2.21.492 3.282.625 2.785.346 5.512.53 8.218.594 5.413.126 10.693-.213 16-.563 5.308-.35 10.642-.701 16.125-.656a91.37 91.37 0 0 1 8.375.437c2.227.224 4.507.65 6.813 1.094a310.18 310.18 0 0 1 1.812 9.094c-1.518-.264-3.044-.608-4.562-.781-2.745-.314-5.474-.478-8.219-.563-5.49-.17-10.976.022-16.469.25s-11 .5-16.5.438c-2.75-.032-5.498-.174-8.25-.407-1.886-.16-3.768-.461-5.656-.75-.488-2.968-.785-5.863-.969-8.812z" fill="#e3e4e5"></path><path d="M108.146 63.594c4.251.117 8.377 1.16 12.612 1.435.04.659.553 2.23 1.027 3.185.626 1.453 1.107 3.359 1.549 5.411-2.306-.444-4.586-.87-6.813-1.094a91.37 91.37 0 0 0-8.375-.437c-5.483-.045-10.817.306-16.125.656-5.307.35-10.587.69-16 .563a82.022 82.022 0 0 1-8.218-.594c-1.072-.133-2.194-.44-3.282-.625-.235-3.776-.115-7.127 1.438-8.031 14.464 2.253 29.52-.998 42.187-.47z" fill="#0035ad"></path></g><path d="M117.586 48.265c-10.344 3.13 4.03 13.415 3.123 16.999" fill="none" stroke-width=".299"></path></g><use transform="matrix(-1 0 0 1 288.88 0)" width="287.084" height="362.919" xlink:href="#a"></use></g><path d="m447.966 169.904-1.347 11.331v21.977l-16.905-25.358 6.762 16.906-11.332-10.989L450 221.808l24.856-38.037-11.332 10.989 6.762-16.906-16.905 25.358v-21.977l-1.347-11.331-.343 10.486h-3.382l-.343-10.486z" fill="#eac102" fill-rule="evenodd" stroke="#000" stroke-width=".253"></path><g transform="translate(328.67 145.735) scale(.84525)"><path d="M143.498 93.781H62.936c.066 39.01-.109 78.024.125 117.031 1.243 35.009 28.032 66.982 62.25 74.375 5.976 1.456 12.085 1.871 18.187 1.844V93.781z" style="marker:none" fill-rule="evenodd" stroke="#000" stroke-width=".599" overflow="visible"></path><path d="M143.498 93.781v193.25c26.222-.117 52.287-13.172 66.782-35.344 10.7-15.285 14.632-34.18 13.75-52.593V93.78h-80.532z" style="marker:none" fill="#ed1c24" fill-rule="evenodd" stroke="#000" stroke-width=".599" overflow="visible"></path><rect width="5.533" height="5.48" ry="0" x="85.275" y="118.52" fill="#e3e4e5"></rect><path fill="#e3e4e5" d="M85.275 165.76h5.533v5.48h-5.533zm0 47.24h5.533v5.48h-5.533z"></path><g transform="translate(-.458)" id="c"><path d="M196.719 102v6h-5.563v5h-5.594v5.531H180v5.969h5.563v5.5h5.593v5.563h5.563V141h5.562v-5.438h5.563V130h5.594v-5.5H219v-5.969h-5.563V113h-5.593v-5h-5.563v-6h-5.562zm.281 11h5.281v2.766h2.781v2.765h2.782v5.969h-2.781v2.75h-2.782V130H197v-2.75h-3v-2.75h-3v-5.969h3v-2.765h3V113z" id="b" fill="#e3e4e5" fill-rule="evenodd" stroke="#000" stroke-width=".299"></path><use transform="translate(0 47.216)" width="287.084" height="362.919" xlink:href="#b"></use><use transform="translate(0 94.433)" width="287.084" height="362.919" xlink:href="#b"></use><path fill="#fff" stroke="#000" stroke-width=".299" stroke-linecap="round" stroke-linejoin="bevel" d="m195.982 242.353-25.3 25.301 6.827 6.827 25.3-25.3z"></path></g><use transform="matrix(-1 0 0 1 286.959 0)" width="287.084" height="362.919" xlink:href="#c"></use></g><g stroke="#000" stroke-width="1.215" fill-rule="evenodd"><path d="M430.329 247.414s-.442-1.325.567-1.955c1.01-.631 8.767 1.387 10.28.441 1.515-.946 4.163-2.964 4.163-3.91 0-.946.064-2.775 1.325-2.586 1.261.19 1.64.568 1.514.883-.127.315.441 2.081 1.198 2.46.757.378 1.135.441 1.766.063.63-.379 1.261-1.072 1.009-1.83-.252-.756 0-2.396 1.072-1.954 1.072.441 1.388 2.522 1.83 3.216.44.694 4.54 3.974 6.685 3.974 2.144 0 8.262-.127 8.262-.127s.82.568-.315 1.892c-1.136 1.325-12.236 3.848-13.497 2.586-1.262-1.261 1.198-2.396-2.839-2.586-4.036-.189-6.496-.441-7.19.127-.693.567.631 1.45-2.775 2.649-3.406 1.198-7.442 2.775-9.65.504-2.207-2.27-3.531-3.721-3.405-3.847z" fill="#bbb" stroke-width=".152"></path><path d="M447.519 314.644c-4.817.156-4.889 4.108-4.939 4.787h-13.636v5.042h10.712l-.235.097c-10.256 4.312-11.476 17.243-11.519 17.733-1.078.539-1.8 1.519-1.8 2.642 0 1.701 1.656 3.083 3.697 3.083 1.224 0 2.3-.498 2.973-1.262l1.628-.055c.342.603 1.077 1.027 1.931 1.027.915 0 1.689-.484 1.993-1.158l1.621-.056c.325.64 1.08 1.09 1.966 1.09.945 0 1.746-.511 2.028-1.22l1.559-.056c.305.674 1.085 1.159 2 1.159.975 0 1.799-.545 2.055-1.29l.435-.014h.462l.442.014c.256.745 1.08 1.29 2.055 1.29.915 0 1.688-.485 1.993-1.159l1.56.055c.281.71 1.082 1.221 2.027 1.221.885 0 1.648-.45 1.973-1.09l1.614.056c.305.674 1.085 1.158 2 1.158.854 0 1.589-.424 1.931-1.027l1.621.055c.673.764 1.756 1.262 2.98 1.262 2.041 0 3.697-1.382 3.697-3.083 0-1.123-.73-2.103-1.807-2.642-.043-.49-1.256-13.421-11.512-17.733l-.235-.097h10.712v-5.042h-13.643c-.05-.68-.122-4.631-4.939-4.787-2.943.021-2.926.06-5.4 0zm-2.449 1.408h10.305v2.18H445.07v-2.18zm-15.526 4.138h10.298v2.18h-10.298v-2.18zm31.06 0H470.9v2.18h-10.298v-2.18zm-31.68 23.948c.76 0 1.379.544 1.379 1.214 0 .67-.618 1.214-1.38 1.214-.761 0-1.38-.544-1.38-1.214 0-.67.619-1.214 1.38-1.214zm42.625.462c.762 0 1.38.544 1.38 1.214 0 .67-.618 1.214-1.38 1.214-.761 0-1.38-.544-1.38-1.214 0-.67.619-1.214 1.38-1.214zm-24.01.655c.5 0 .904.383.904.856 0 .472-.403.855-.904.855-.5 0-.91-.383-.91-.855 0-.473.41-.856.91-.856zm5.594.035c.5 0 .91.383.91.855s-.41.855-.91.855-.903-.383-.903-.855.403-.855.903-.855zm5.45.062c.5 0 .903.383.903.855s-.404.855-.904.855-.91-.383-.91-.855.41-.855.91-.855zm-16.624.096c.5 0 .904.383.904.856 0 .472-.403.855-.904.855-.5 0-.91-.383-.91-.855 0-.473.41-.856.91-.856zm-5.697.042c.5 0 .904.383.904.855s-.404.855-.904.855-.91-.383-.91-.855.41-.855.91-.855zm27.935 0c.5 0 .91.383.91.855s-.41.855-.91.855-.904-.383-.904-.855.403-.855.904-.855zm-15.871-107.518s-1.829-1.198-4.194.442v.552s.993.883.883 2.648c-.11 1.766-3.09 3.311-5.077 3.642-1.986.331-3.641-1.986-3.641-2.207 0-.22-.11-1.986-2.98-1.876-2.444.094-2.961 4.087-3.063 5.276 1.676.29 4.82.686 8.802 1.014 2.98-.993 4.966-1.655 6.952-6.07.386.552 1.05.537 1.49.387.041 1.476-1.435 7.45-5.739 7.946-1.765.165-3.82-1.118-4.69-1.876-2.322-.238-4.853-.556-6.856-.96-.016.128-.438 3.433-.98 8.63-.551 5.297-.22 7.283-.22 7.283l10.815.221s-.553 2.312 1.27 2.759c2.924.717 3.255-2.318 3.255-2.318l.993.11.662-3.42h8.429l.662 3.42.993-.11s.331 3.035 3.256 2.318c1.822-.447 1.269-2.759 1.269-2.759l10.815-.22s.331-1.987-.22-7.284a403.998 403.998 0 0 0-.98-8.63c-2.003.404-4.534.722-6.856.96-.87.758-2.925 2.041-4.69 1.876-4.304-.497-5.78-6.47-5.739-7.946.44.15 1.104.165 1.49-.386 1.986 4.414 3.973 5.076 6.952 6.07 3.981-.329 7.125-.725 8.802-1.015-.102-1.19-.62-5.182-3.063-5.276-2.87-.11-2.98 1.655-2.98 1.876 0 .22-1.655 2.538-3.641 2.207-1.987-.33-4.967-1.876-5.077-3.642-.11-1.765.883-2.648.883-2.648v-.552c-2.018-1.388-4.194-.442-4.194-.442l-1.897 3.477-1.896-3.477zM447 239.89c.453 0 .821.352.821.793 0 .441-.368.8-.82.8a.812.812 0 0 1-.821-.8c0-.44.368-.793.82-.793zm6.443 0c.452 0 .82.352.82.793 0 .441-.368.8-.82.8a.812.812 0 0 1-.821-.8c0-.44.368-.793.82-.793zm-6.443.483a.317.317 0 0 0-.324.31c0 .173.147.317.324.317a.317.317 0 0 0 .318-.317c0-.173-.14-.31-.318-.31zm6.443 0a.311.311 0 0 0-.318.31c0 .173.14.317.318.317a.323.323 0 0 0 .324-.317.317.317 0 0 0-.324-.31zm-4.615.834a.188.188 0 0 1 .159.035l1.234.897 1.235-.897a.188.188 0 0 1 .159-.035.195.195 0 0 1 .145.152.185.185 0 0 1-.083.186l-1.456 1.056-1.455-1.056a.185.185 0 0 1-.083-.186.195.195 0 0 1 .145-.152zm.324 1.932c.102 0 .198.04.276.117l.793.793.794-.793a.393.393 0 0 1 .558 0 .393.393 0 0 1 0 .559l-.793.793.793.793a.393.393 0 0 1 0 .559.393.393 0 0 1-.558 0l-.794-.794-.793.794a.393.393 0 0 1-.558 0 .393.393 0 0 1 0-.559l.793-.793-.793-.793a.393.393 0 0 1 0-.56.4.4 0 0 1 .282-.116zm-2.331 5.787a.188.188 0 0 1 .172.096s.179.287.297.642c.043.128.1.42.172.89.074.468.152 1.089.194 1.779.083 1.38.032 3.043-.483 4.36-.411 1.05-1.536 1.865-2.766 2.49l-.035 3.068a.182.182 0 0 1-.082.18.199.199 0 0 1-.207 0 .182.182 0 0 1-.083-.18l.028-2.89a21.29 21.29 0 0 1-2.304.911v2.255a.182.182 0 0 1-.083.18.199.199 0 0 1-.207 0 .182.182 0 0 1-.083-.18v-2.138c-.568.175-.968.272-1.069.297l-.158 2.124v.007l-.373-.02v-.022l.331-6.601a.188.188 0 0 1 .09-.18c.018-.109-.177-.645-.152-.917.028-.303.276-.359.635-.58.358-.22 2.51-1.958 2.731-1.986.083-.01.255-.058.47-.062.355-.006.82.114 1.13.752.497 1.02-.165 2.042-2.566 2.897-1.134.404-1.696.405-1.98.297l-.192 3.91c.133-.032.545-.136 1.103-.31v-2.214a.195.195 0 0 1 .056-.138.18.18 0 0 1 .13-.055.18.18 0 0 1 .132.055.196.196 0 0 1 .055.138v2.09c.418-.139.874-.299 1.386-.51.308-.128.619-.27.924-.421l.021-1.876a.188.188 0 0 1 .166-.194.181.181 0 0 1 .145.049c.04.037.063.09.062.145l-.021 1.683c1.115-.6 2.09-1.35 2.42-2.194.48-1.222.538-2.842.456-4.193a19.023 19.023 0 0 0-.186-1.746 8.296 8.296 0 0 0-.166-.827 3.49 3.49 0 0 0-.255-.573.188.188 0 0 1-.014-.186.192.192 0 0 1 .159-.103zm6.8 0a.193.193 0 0 1 .16.103c.03.06.022.13-.014.186 0 0-.153.265-.255.573a8.31 8.31 0 0 0-.166.827 18.99 18.99 0 0 0-.186 1.746c-.082 1.351-.023 2.97.455 4.193.33.844 1.306 1.594 2.421 2.194l-.02-1.683a.193.193 0 0 1 .061-.145.181.181 0 0 1 .145-.049.188.188 0 0 1 .166.194l.02 1.876c.306.151.617.293.925.42.512.212.968.372 1.386.51v-2.09a.196.196 0 0 1 .055-.137.18.18 0 0 1 .131-.055.18.18 0 0 1 .131.055.195.195 0 0 1 .056.138v2.214c.558.174.97.278 1.103.31l-.193-3.91c-.283.108-.845.107-1.98-.297-2.4-.855-3.062-1.876-2.565-2.897.31-.638.775-.758 1.13-.752.215.004.387.052.47.062.22.028 2.373 1.766 2.731 1.987.359.22.607.276.635.58.025.271-.17.807-.152.916a.188.188 0 0 1 .09.18l.33 6.6v.021l-.372.021v-.007l-.158-2.124a17.77 17.77 0 0 1-1.07-.297v2.138a.182.182 0 0 1-.082.18.199.199 0 0 1-.207 0 .182.182 0 0 1-.083-.18v-2.255a21.29 21.29 0 0 1-2.304-.911l.028 2.89a.182.182 0 0 1-.083.18.199.199 0 0 1-.207 0 .182.182 0 0 1-.082-.18l-.035-3.069c-1.23-.624-2.355-1.44-2.766-2.49-.515-1.316-.566-2.98-.483-4.36.042-.689.12-1.31.193-1.779.074-.469.13-.76.173-.89.118-.354.296-.64.296-.64a.188.188 0 0 1 .173-.097zm-22.905 10.725 8.18.2-.11 1.91-8.18-.096.11-2.014zm39.011 0 .11 2.014-8.18.097-.11-1.91 8.18-.2zm-27.893 3.821c.431 0 .78.336.78.745 0 .41-.35.738-.78.738-.43 0-.78-.329-.78-.738s.35-.745.78-.745zm16.775 0c.43 0 .78.336.78.745 0 .41-.35.738-.78.738-.431 0-.78-.329-.78-.738s.349-.745.78-.745z" style="marker:none" fill="#e3e4e5" overflow="visible" stroke-width=".152"></path><g fill="#e3e4e5" stroke-width=".152"><path d="M445.254 269.497c-.28 0-.503.23-.503.51 0 .144.056.274.151.366a3.381 3.381 0 0 0-.158.641.5.5 0 0 0-.42.497.5.5 0 0 0 .413.497c.047.247.129.442.214.6a.505.505 0 0 0-.2.407.5.5 0 0 0 .503.503c.25 0 .454-.177.497-.414h1.786v-.414h-1.78c-.01-.14-.046-.255-.179-.282.029-.62.036-1.156-.006-1.911a.23.23 0 0 0 .144-.097h1.821v-.413h-1.772a.513.513 0 0 0-.51-.49zm0-5.081c-.28 0-.503.23-.503.51 0 .144.056.274.151.366a3.381 3.381 0 0 0-.158.642.5.5 0 0 0-.42.496.5.5 0 0 0 .413.497c.047.247.129.443.214.6a.505.505 0 0 0-.2.407c0 .28.223.504.503.504.25 0 .454-.177.497-.414h1.786v-.414h-1.78c-.01-.14-.046-.256-.179-.283.029-.62.036-1.156-.006-1.91a.23.23 0 0 0 .144-.097h1.821v-.414h-1.772a.513.513 0 0 0-.51-.49zm0 15.242c-.28 0-.503.23-.503.51 0 .144.056.273.151.366a3.381 3.381 0 0 0-.158.641.5.5 0 0 0-.42.497.5.5 0 0 0 .413.496c.047.247.129.443.214.6a.505.505 0 0 0-.2.407c0 .28.223.504.503.504.25 0 .454-.177.497-.414h1.786v-.414h-1.78c-.01-.14-.046-.255-.179-.283.029-.619.036-1.155-.006-1.91a.23.23 0 0 0 .144-.097h1.821v-.414h-1.772a.513.513 0 0 0-.51-.49zm0 10.161c-.28 0-.503.23-.503.51 0 .144.056.273.151.366a3.381 3.381 0 0 0-.158.641.5.5 0 0 0-.42.497.5.5 0 0 0 .413.496c.047.247.129.443.214.6a.505.505 0 0 0-.2.407c0 .28.223.504.503.504.25 0 .454-.177.497-.414h1.786v-.414h-1.78c-.01-.14-.046-.255-.179-.283.029-.619.036-1.155-.006-1.91a.23.23 0 0 0 .144-.097h1.821v-.414h-1.772a.513.513 0 0 0-.51-.49zm0 10.161c-.28 0-.503.23-.503.51 0 .143.056.273.151.366a3.381 3.381 0 0 0-.158.641.5.5 0 0 0-.42.497.5.5 0 0 0 .413.496c.047.247.129.443.214.6a.505.505 0 0 0-.2.407c0 .28.223.504.503.504.25 0 .454-.177.497-.414h1.786v-.414h-1.78c-.01-.14-.046-.256-.179-.283.029-.619.036-1.155-.006-1.91a.23.23 0 0 0 .144-.097h1.821v-.414h-1.772a.513.513 0 0 0-.51-.49zm0 10.16c-.28 0-.503.23-.503.51 0 .144.056.274.151.366a3.381 3.381 0 0 0-.158.642.5.5 0 0 0-.42.497.5.5 0 0 0 .413.496c.047.247.129.443.214.6a.505.505 0 0 0-.2.407c0 .28.223.504.503.504.25 0 .454-.177.497-.414h1.786v-.414h-1.78c-.01-.14-.046-.256-.179-.283.029-.62.036-1.155-.006-1.91a.23.23 0 0 0 .144-.097h1.821v-.414h-1.772a.513.513 0 0 0-.51-.49zm0-35.563c-.28 0-.503.23-.503.51 0 .144.056.274.151.366a3.381 3.381 0 0 0-.158.642.5.5 0 0 0-.42.496.5.5 0 0 0 .413.497c.047.247.129.443.214.6a.505.505 0 0 0-.2.407c0 .28.223.504.503.504.25 0 .454-.177.497-.414h1.786v-.414h-1.78c-.01-.14-.046-.256-.179-.283.029-.62.036-1.156-.006-1.91a.23.23 0 0 0 .144-.097h1.821v-.414h-1.772a.513.513 0 0 0-.51-.49zm0 10.161c-.28 0-.503.23-.503.51 0 .144.056.274.151.366a3.381 3.381 0 0 0-.158.642.5.5 0 0 0-.42.496.5.5 0 0 0 .413.497c.047.247.129.443.214.6a.505.505 0 0 0-.2.407.5.5 0 0 0 .503.503c.25 0 .454-.177.497-.413h1.786v-.414h-1.78c-.01-.14-.046-.256-.179-.283.029-.62.036-1.156-.006-1.91a.23.23 0 0 0 .144-.097h1.821v-.414h-1.772a.513.513 0 0 0-.51-.49zm0 10.162c-.28 0-.503.23-.503.51 0 .143.056.273.151.365a3.381 3.381 0 0 0-.158.642.5.5 0 0 0-.42.496.5.5 0 0 0 .413.497c.047.247.129.443.214.6a.505.505 0 0 0-.2.407.5.5 0 0 0 .503.503c.25 0 .454-.177.497-.413h1.786v-.414h-1.78c-.01-.14-.046-.256-.179-.283.029-.62.036-1.156-.006-1.91a.23.23 0 0 0 .144-.097h1.821v-.414h-1.772a.513.513 0 0 0-.51-.49zm0 10.16c-.28 0-.503.23-.503.51 0 .144.056.274.151.366a3.381 3.381 0 0 0-.158.642.5.5 0 0 0-.42.496.5.5 0 0 0 .413.497c.047.247.129.443.214.6a.505.505 0 0 0-.2.407.5.5 0 0 0 .503.503c.25 0 .454-.177.497-.414h1.786v-.413h-1.78c-.01-.14-.046-.256-.179-.283.029-.62.036-1.156-.006-1.91a.23.23 0 0 0 .144-.097h1.821v-.414h-1.772a.513.513 0 0 0-.51-.49zm9.622-35.563c-.273 0-.5.219-.51.49h-1.773v.413h1.821a.23.23 0 0 0 .145.097 17.252 17.252 0 0 0-.007 1.91c-.133.028-.168.144-.18.283h-1.779v.414h1.787a.502.502 0 0 0 .496.414c.28 0 .504-.223.504-.503a.505.505 0 0 0-.2-.407c.085-.158.166-.353.213-.6a.5.5 0 0 0 .414-.497.5.5 0 0 0-.42-.497c-.04-.26-.097-.47-.159-.641a.503.503 0 0 0 .152-.366c0-.28-.224-.51-.504-.51zm0-5.081c-.273 0-.5.22-.51.49h-1.773v.414h1.821a.23.23 0 0 0 .145.097 17.252 17.252 0 0 0-.007 1.91c-.133.027-.168.143-.18.283h-1.779v.414h1.787a.502.502 0 0 0 .496.414c.28 0 .504-.224.504-.504a.505.505 0 0 0-.2-.407c.085-.157.166-.353.213-.6a.5.5 0 0 0 .414-.497.5.5 0 0 0-.42-.496 3.41 3.41 0 0 0-.159-.642.503.503 0 0 0 .152-.365c0-.28-.224-.51-.504-.51zm0 15.242c-.273 0-.5.219-.51.49h-1.773v.413h1.821a.23.23 0 0 0 .145.097 17.252 17.252 0 0 0-.007 1.91c-.133.028-.168.144-.18.283h-1.779v.414h1.787a.502.502 0 0 0 .496.414c.28 0 .504-.224.504-.504a.505.505 0 0 0-.2-.406 2.07 2.07 0 0 0 .213-.6.5.5 0 0 0 .414-.497.5.5 0 0 0-.42-.497c-.04-.26-.097-.47-.159-.641a.503.503 0 0 0 .152-.366c0-.28-.224-.51-.504-.51zm0 10.161c-.273 0-.5.219-.51.49h-1.773v.413h1.821a.23.23 0 0 0 .145.097 17.252 17.252 0 0 0-.007 1.91c-.133.028-.168.144-.18.283h-1.779v.414h1.787a.502.502 0 0 0 .496.414c.28 0 .504-.224.504-.504a.505.505 0 0 0-.2-.407c.085-.157.166-.353.213-.6a.5.5 0 0 0 .414-.496.5.5 0 0 0-.42-.497c-.04-.26-.097-.47-.159-.641a.503.503 0 0 0 .152-.366c0-.28-.224-.51-.504-.51zm0 10.161c-.273 0-.5.219-.51.49h-1.773v.413h1.821a.23.23 0 0 0 .145.097 17.252 17.252 0 0 0-.007 1.91c-.133.027-.168.144-.18.283h-1.779v.414h1.787a.502.502 0 0 0 .496.414c.28 0 .504-.224.504-.504a.505.505 0 0 0-.2-.407c.085-.157.166-.353.213-.6a.5.5 0 0 0 .414-.496.5.5 0 0 0-.42-.497c-.04-.26-.097-.47-.159-.641a.503.503 0 0 0 .152-.366c0-.28-.224-.51-.504-.51zm0 10.16c-.273 0-.5.22-.51.49h-1.773v.414h1.821a.23.23 0 0 0 .145.097 17.252 17.252 0 0 0-.007 1.91c-.133.027-.168.143-.18.283h-1.779v.414h1.787a.502.502 0 0 0 .496.414c.28 0 .504-.224.504-.504a.505.505 0 0 0-.2-.407c.085-.157.166-.353.213-.6a.5.5 0 0 0 .414-.496.5.5 0 0 0-.42-.497 3.41 3.41 0 0 0-.159-.642.503.503 0 0 0 .152-.365c0-.28-.224-.51-.504-.51zm0-35.563c-.273 0-.5.22-.51.49h-1.773v.414h1.821a.23.23 0 0 0 .145.096 17.252 17.252 0 0 0-.007 1.911c-.133.027-.168.143-.18.283h-1.779v.414h1.787a.502.502 0 0 0 .496.414c.28 0 .504-.224.504-.504a.505.505 0 0 0-.2-.407c.085-.157.166-.353.213-.6a.5.5 0 0 0 .414-.497.5.5 0 0 0-.42-.496 3.41 3.41 0 0 0-.159-.642.503.503 0 0 0 .152-.365c0-.28-.224-.51-.504-.51zm0 10.161c-.273 0-.5.22-.51.49h-1.773v.414h1.821a.23.23 0 0 0 .145.096 17.252 17.252 0 0 0-.007 1.91c-.133.028-.168.144-.18.284h-1.779v.414h1.787a.502.502 0 0 0 .496.413c.28 0 .504-.223.504-.503a.505.505 0 0 0-.2-.407c.085-.157.166-.353.213-.6a.5.5 0 0 0 .414-.497.5.5 0 0 0-.42-.496 3.41 3.41 0 0 0-.159-.642.503.503 0 0 0 .152-.365c0-.28-.224-.51-.504-.51zm0 10.162c-.273 0-.5.218-.51.489h-1.773v.414h1.821a.23.23 0 0 0 .145.096 17.252 17.252 0 0 0-.007 1.91c-.133.028-.168.144-.18.284h-1.779v.414h1.787a.502.502 0 0 0 .496.413c.28 0 .504-.223.504-.503a.505.505 0 0 0-.2-.407c.085-.157.166-.353.213-.6a.5.5 0 0 0 .414-.497.5.5 0 0 0-.42-.496 3.41 3.41 0 0 0-.159-.642.503.503 0 0 0 .152-.365c0-.28-.224-.51-.504-.51zm0 10.16c-.273 0-.5.22-.51.49h-1.773v.414h1.821a.23.23 0 0 0 .145.096 17.252 17.252 0 0 0-.007 1.91c-.133.028-.168.144-.18.284h-1.779v.413h1.787a.502.502 0 0 0 .496.414c.28 0 .504-.223.504-.503a.505.505 0 0 0-.2-.407c.085-.157.166-.353.213-.6a.5.5 0 0 0 .414-.497.5.5 0 0 0-.42-.496 3.41 3.41 0 0 0-.159-.642.503.503 0 0 0 .152-.366c0-.28-.224-.51-.504-.51z" style="marker:none" overflow="visible"></path><path style="marker:none" overflow="visible" d="M446.203 272.1h7.725v3.974h-7.725zm0-10.186h7.725v3.973h-7.725zm0 5.094h7.725v3.972h-7.725zm0 20.372h7.725v3.973h-7.725zm0 15.28h7.725v3.973h-7.725zm0-25.466h7.725v3.973h-7.725zm0 15.28h7.725v3.972h-7.725zm0 15.279h7.725v3.973h-7.725zm0-25.466h7.725v3.973h-7.725zm0 15.28h7.725v3.973h-7.725zm0 15.279h7.725v3.973h-7.725zm14.658-43.661c-.28 0-.503.23-.503.51 0 .144.056.273.152.366a3.381 3.381 0 0 0-.159.641.5.5 0 0 0-.42.497.5.5 0 0 0 .413.496c.047.247.129.443.214.6a.505.505 0 0 0-.2.407c0 .28.223.504.503.504.25 0 .454-.177.497-.414h1.786v-.414h-1.78c-.01-.14-.046-.255-.178-.283a17.46 17.46 0 0 0-.007-1.91.23.23 0 0 0 .145-.097h1.82v-.414h-1.772a.513.513 0 0 0-.51-.49zm0-5.081c-.28 0-.503.23-.503.51 0 .144.056.274.152.366a3.381 3.381 0 0 0-.159.642.5.5 0 0 0-.42.496.5.5 0 0 0 .413.497c.047.247.129.443.214.6a.505.505 0 0 0-.2.407.5.5 0 0 0 .503.503c.25 0 .454-.177.497-.413h1.786v-.414h-1.78c-.01-.14-.046-.256-.178-.283a17.46 17.46 0 0 0-.007-1.91.23.23 0 0 0 .145-.097h1.82v-.414h-1.772a.513.513 0 0 0-.51-.49zm0 15.242c-.28 0-.503.23-.503.51 0 .143.056.273.152.366a3.381 3.381 0 0 0-.159.641.5.5 0 0 0-.42.497.5.5 0 0 0 .413.496c.047.247.129.443.214.6a.505.505 0 0 0-.2.407c0 .28.223.504.503.504.25 0 .454-.177.497-.414h1.786v-.414h-1.78c-.01-.14-.046-.255-.178-.283a17.46 17.46 0 0 0-.007-1.91.23.23 0 0 0 .145-.097h1.82v-.414h-1.772a.513.513 0 0 0-.51-.49zm0 10.161c-.28 0-.503.23-.503.51 0 .143.056.273.152.366a3.381 3.381 0 0 0-.159.641.5.5 0 0 0-.42.497.5.5 0 0 0 .413.496c.047.247.129.443.214.6a.505.505 0 0 0-.2.407c0 .28.223.504.503.504.25 0 .454-.177.497-.414h1.786v-.414h-1.78c-.01-.14-.046-.256-.178-.283a17.46 17.46 0 0 0-.007-1.91.23.23 0 0 0 .145-.097h1.82v-.414h-1.772a.513.513 0 0 0-.51-.49zm0 10.16c-.28 0-.503.23-.503.51 0 .144.056.274.152.366a3.381 3.381 0 0 0-.159.642.5.5 0 0 0-.42.497.5.5 0 0 0 .413.496c.047.247.129.443.214.6a.505.505 0 0 0-.2.407c0 .28.223.504.503.504.25 0 .454-.177.497-.414h1.786v-.414h-1.78c-.01-.14-.046-.256-.178-.283a17.46 17.46 0 0 0-.007-1.91.23.23 0 0 0 .145-.097h1.82v-.414h-1.772a.513.513 0 0 0-.51-.49zm0 10.161c-.28 0-.503.23-.503.51 0 .144.056.274.152.366a3.381 3.381 0 0 0-.159.642.5.5 0 0 0-.42.496.5.5 0 0 0 .413.497c.047.247.129.443.214.6a.505.505 0 0 0-.2.407c0 .28.223.504.503.504.25 0 .454-.177.497-.414h1.786v-.414h-1.78c-.01-.14-.046-.256-.178-.283a17.46 17.46 0 0 0-.007-1.91.23.23 0 0 0 .145-.097h1.82v-.414h-1.772a.513.513 0 0 0-.51-.49zm0-35.563c-.28 0-.503.23-.503.51 0 .144.056.274.152.366a3.381 3.381 0 0 0-.159.642.5.5 0 0 0-.42.496.5.5 0 0 0 .413.497c.047.247.129.443.214.6a.505.505 0 0 0-.2.407.5.5 0 0 0 .503.503c.25 0 .454-.177.497-.413h1.786v-.414h-1.78c-.01-.14-.046-.256-.178-.283a17.46 17.46 0 0 0-.007-1.91.23.23 0 0 0 .145-.097h1.82v-.414h-1.772a.513.513 0 0 0-.51-.49zm0 10.161c-.28 0-.503.23-.503.51 0 .144.056.274.152.366a3.381 3.381 0 0 0-.159.642.5.5 0 0 0-.42.496.5.5 0 0 0 .413.497c.047.247.129.443.214.6a.505.505 0 0 0-.2.407.5.5 0 0 0 .503.503c.25 0 .454-.177.497-.414h1.786v-.413h-1.78c-.01-.14-.046-.256-.178-.283a17.46 17.46 0 0 0-.007-1.91.23.23 0 0 0 .145-.097h1.82v-.414h-1.772a.513.513 0 0 0-.51-.49zm0 10.161c-.28 0-.503.23-.503.51 0 .144.056.274.152.366a3.381 3.381 0 0 0-.159.641.5.5 0 0 0-.42.497.5.5 0 0 0 .413.497c.047.247.129.443.214.6a.505.505 0 0 0-.2.407.5.5 0 0 0 .503.503c.25 0 .454-.177.497-.414h1.786v-.413h-1.78c-.01-.14-.046-.256-.178-.283a17.46 17.46 0 0 0-.007-1.91.23.23 0 0 0 .145-.097h1.82v-.414h-1.772a.513.513 0 0 0-.51-.49zm0 10.161c-.28 0-.503.23-.503.51 0 .144.056.274.152.366a3.381 3.381 0 0 0-.159.641.5.5 0 0 0-.42.497.5.5 0 0 0 .413.497c.047.247.129.443.214.6a.505.505 0 0 0-.2.407.5.5 0 0 0 .503.503c.25 0 .454-.177.497-.414h1.786v-.414h-1.78c-.01-.14-.046-.255-.178-.282a17.46 17.46 0 0 0-.007-1.91.23.23 0 0 0 .145-.098h1.82v-.413h-1.772a.513.513 0 0 0-.51-.49zm0 10.161c-.28 0-.503.23-.503.51 0 .144.056.274.152.366a3.381 3.381 0 0 0-.159.641.5.5 0 0 0-.42.497.5.5 0 0 0 .413.497c.047.247.129.442.214.6a.505.505 0 0 0-.2.407.5.5 0 0 0 .503.503c.25 0 .454-.177.497-.414h1.786v-.414h-1.78c-.01-.14-.046-.255-.178-.282.028-.62.035-1.156-.007-1.911a.23.23 0 0 0 .145-.097h1.82v-.413h-1.772a.513.513 0 0 0-.51-.49zm9.622-45.724c-.273 0-.5.219-.51.49H468.2v.413h1.821a.23.23 0 0 0 .145.097 17.252 17.252 0 0 0-.007 1.91c-.133.028-.168.144-.18.283H468.2v.414h1.787a.502.502 0 0 0 .496.414c.28 0 .504-.224.504-.504a.505.505 0 0 0-.2-.407c.085-.157.166-.353.214-.6a.5.5 0 0 0 .413-.496.5.5 0 0 0-.42-.497c-.04-.26-.097-.47-.159-.641a.503.503 0 0 0 .152-.366c0-.28-.224-.51-.504-.51zm0-5.081c-.273 0-.5.22-.51.49H468.2v.414h1.821a.23.23 0 0 0 .145.096 17.252 17.252 0 0 0-.007 1.911c-.133.027-.168.143-.18.283H468.2v.414h1.787a.502.502 0 0 0 .496.413c.28 0 .504-.223.504-.503a.505.505 0 0 0-.2-.407c.085-.157.166-.353.214-.6a.5.5 0 0 0 .413-.497.5.5 0 0 0-.42-.496 3.41 3.41 0 0 0-.159-.642.503.503 0 0 0 .152-.365c0-.28-.224-.51-.504-.51zm0 15.242c-.273 0-.5.219-.51.49H468.2v.413h1.821a.23.23 0 0 0 .145.097 17.252 17.252 0 0 0-.007 1.91c-.133.028-.168.144-.18.283H468.2v.414h1.787a.502.502 0 0 0 .496.414c.28 0 .504-.224.504-.504a.505.505 0 0 0-.2-.407c.085-.157.166-.353.214-.6a.5.5 0 0 0 .413-.496.5.5 0 0 0-.42-.497c-.04-.26-.097-.47-.159-.641a.503.503 0 0 0 .152-.366c0-.28-.224-.51-.504-.51zm0 10.161c-.273 0-.5.219-.51.49H468.2v.413h1.821a.23.23 0 0 0 .145.097 17.252 17.252 0 0 0-.007 1.91c-.133.027-.168.143-.18.283H468.2v.414h1.787a.502.502 0 0 0 .496.414c.28 0 .504-.224.504-.504a.505.505 0 0 0-.2-.407c.085-.157.166-.353.214-.6a.5.5 0 0 0 .413-.496.5.5 0 0 0-.42-.497c-.04-.26-.097-.47-.159-.641a.503.503 0 0 0 .152-.366c0-.28-.224-.51-.504-.51zm0 10.16c-.273 0-.5.22-.51.49H468.2v.414h1.821a.23.23 0 0 0 .145.097 17.252 17.252 0 0 0-.007 1.91c-.133.027-.168.143-.18.283H468.2v.414h1.787a.502.502 0 0 0 .496.414c.28 0 .504-.224.504-.504a.505.505 0 0 0-.2-.407c.085-.157.166-.353.214-.6a.5.5 0 0 0 .413-.496.5.5 0 0 0-.42-.497 3.41 3.41 0 0 0-.159-.642.503.503 0 0 0 .152-.365c0-.28-.224-.51-.504-.51zm0 10.161c-.273 0-.5.22-.51.49H468.2v.414h1.821a.23.23 0 0 0 .145.097 17.252 17.252 0 0 0-.007 1.91c-.133.027-.168.143-.18.283H468.2v.414h1.787a.502.502 0 0 0 .496.414c.28 0 .504-.224.504-.504a.505.505 0 0 0-.2-.407c.085-.157.166-.353.214-.6a.5.5 0 0 0 .413-.497.5.5 0 0 0-.42-.496 3.41 3.41 0 0 0-.159-.642.503.503 0 0 0 .152-.365c0-.28-.224-.51-.504-.51zm0-35.563c-.273 0-.5.22-.51.49H468.2v.414h1.821a.23.23 0 0 0 .145.096 17.252 17.252 0 0 0-.007 1.91c-.133.028-.168.144-.18.284H468.2v.414h1.787a.502.502 0 0 0 .496.413c.28 0 .504-.223.504-.503a.505.505 0 0 0-.2-.407c.085-.157.166-.353.214-.6a.5.5 0 0 0 .413-.497.5.5 0 0 0-.42-.496 3.41 3.41 0 0 0-.159-.642.503.503 0 0 0 .152-.365c0-.28-.224-.51-.504-.51zm0 10.161c-.273 0-.5.22-.51.49H468.2v.414h1.821a.23.23 0 0 0 .145.096 17.252 17.252 0 0 0-.007 1.91c-.133.028-.168.144-.18.284H468.2v.413h1.787a.502.502 0 0 0 .496.414c.28 0 .504-.223.504-.503a.505.505 0 0 0-.2-.407c.085-.157.166-.353.214-.6a.5.5 0 0 0 .413-.497.5.5 0 0 0-.42-.496 3.41 3.41 0 0 0-.159-.642.503.503 0 0 0 .152-.366c0-.28-.224-.51-.504-.51zm0 10.161c-.273 0-.5.22-.51.49H468.2v.414h1.821a.23.23 0 0 0 .145.096 17.252 17.252 0 0 0-.007 1.91c-.133.028-.168.144-.18.284H468.2v.413h1.787a.502.502 0 0 0 .496.414c.28 0 .504-.223.504-.503a.505.505 0 0 0-.2-.407c.085-.157.166-.353.214-.6a.5.5 0 0 0 .413-.497.5.5 0 0 0-.42-.497c-.04-.26-.097-.47-.159-.641a.503.503 0 0 0 .152-.366c0-.28-.224-.51-.504-.51zm0 10.161c-.273 0-.5.219-.51.49H468.2v.413h1.821a.23.23 0 0 0 .145.097 17.252 17.252 0 0 0-.007 1.91c-.133.028-.168.144-.18.283H468.2v.414h1.787a.502.502 0 0 0 .496.414c.28 0 .504-.223.504-.503a.505.505 0 0 0-.2-.407c.085-.157.166-.353.214-.6a.5.5 0 0 0 .413-.497.5.5 0 0 0-.42-.497c-.04-.26-.097-.47-.159-.641a.503.503 0 0 0 .152-.366c0-.28-.224-.51-.504-.51zm0 10.161c-.273 0-.5.219-.51.49H468.2v.413h1.821a.23.23 0 0 0 .145.097 17.252 17.252 0 0 0-.007 1.91c-.133.028-.168.144-.18.283H468.2v.414h1.787a.502.502 0 0 0 .496.414c.28 0 .504-.223.504-.503a.505.505 0 0 0-.2-.407c.085-.158.166-.353.214-.6a.5.5 0 0 0 .413-.497.5.5 0 0 0-.42-.497c-.04-.26-.097-.47-.159-.641a.503.503 0 0 0 .152-.366c0-.28-.224-.51-.504-.51z"></path><path style="marker:none" overflow="visible" d="M461.81 271.789h7.725v3.973h-7.725zm0-10.187h7.725v3.973h-7.725zm0 5.093h7.725v3.973h-7.725zm0 20.373h7.725v3.973h-7.725zm0 15.28h7.725v3.973h-7.725zm0 15.279h7.725v3.973h-7.725zm0-40.745h7.725v3.973h-7.725zm0 15.279h7.725v3.973h-7.725zm0 15.279h7.725v3.974h-7.725zm0-25.465h7.725v3.973h-7.725zm0 15.279h7.725v3.973h-7.725zm0 15.28h7.725v3.973h-7.725zm-31.85-43.661c-.28 0-.504.23-.504.51 0 .143.056.273.151.366a3.381 3.381 0 0 0-.158.641.5.5 0 0 0-.42.497.5.5 0 0 0 .413.496c.047.247.129.443.214.6a.505.505 0 0 0-.2.407c0 .28.223.504.503.504.25 0 .454-.177.497-.414h1.786v-.414h-1.78c-.01-.14-.046-.256-.179-.283.029-.62.036-1.155-.006-1.91a.23.23 0 0 0 .144-.097h1.821v-.414h-1.772a.513.513 0 0 0-.51-.49zm0-5.081c-.28 0-.504.23-.504.51 0 .144.056.274.151.366a3.381 3.381 0 0 0-.158.642.5.5 0 0 0-.42.496.5.5 0 0 0 .413.497c.047.247.129.443.214.6a.505.505 0 0 0-.2.407.5.5 0 0 0 .503.503c.25 0 .454-.177.497-.414h1.786v-.413h-1.78c-.01-.14-.046-.256-.179-.283.029-.62.036-1.156-.006-1.91a.23.23 0 0 0 .144-.097h1.821v-.414h-1.772a.513.513 0 0 0-.51-.49zm0 15.241c-.28 0-.504.23-.504.51 0 .144.056.274.151.366a3.381 3.381 0 0 0-.158.642.5.5 0 0 0-.42.497.5.5 0 0 0 .413.496c.047.247.129.443.214.6a.505.505 0 0 0-.2.407c0 .28.223.504.503.504.25 0 .454-.177.497-.414h1.786v-.414h-1.78c-.01-.14-.046-.256-.179-.283.029-.62.036-1.155-.006-1.91a.23.23 0 0 0 .144-.097h1.821v-.414h-1.772a.513.513 0 0 0-.51-.49zm0 10.161c-.28 0-.504.23-.504.51 0 .144.056.274.151.366a3.381 3.381 0 0 0-.158.642.5.5 0 0 0-.42.496.5.5 0 0 0 .413.497c.047.247.129.443.214.6a.505.505 0 0 0-.2.407c0 .28.223.504.503.504.25 0 .454-.177.497-.414h1.786v-.414h-1.78c-.01-.14-.046-.256-.179-.283.029-.62.036-1.156-.006-1.91a.23.23 0 0 0 .144-.097h1.821v-.414h-1.772a.513.513 0 0 0-.51-.49zm0 10.161c-.28 0-.504.23-.504.51 0 .144.056.274.151.366a3.381 3.381 0 0 0-.158.642.5.5 0 0 0-.42.496.5.5 0 0 0 .413.497c.047.247.129.443.214.6a.505.505 0 0 0-.2.407c0 .28.223.504.503.504.25 0 .454-.177.497-.414h1.786v-.414h-1.78c-.01-.14-.046-.256-.179-.283.029-.62.036-1.156-.006-1.91a.23.23 0 0 0 .144-.097h1.821v-.414h-1.772a.513.513 0 0 0-.51-.49zm0 10.161c-.28 0-.504.23-.504.51 0 .144.056.274.151.366a3.381 3.381 0 0 0-.158.642.5.5 0 0 0-.42.496.5.5 0 0 0 .413.497c.047.247.129.443.214.6a.505.505 0 0 0-.2.407.5.5 0 0 0 .503.503c.25 0 .454-.177.497-.413h1.786v-.414h-1.78c-.01-.14-.046-.256-.179-.283.029-.62.036-1.156-.006-1.91a.23.23 0 0 0 .144-.097h1.821v-.414h-1.772a.513.513 0 0 0-.51-.49zm0-35.563c-.28 0-.504.23-.504.51 0 .144.056.274.151.366a3.381 3.381 0 0 0-.158.641.5.5 0 0 0-.42.497.5.5 0 0 0 .413.497c.047.247.129.443.214.6a.505.505 0 0 0-.2.407.5.5 0 0 0 .503.503c.25 0 .454-.177.497-.414h1.786v-.413h-1.78c-.01-.14-.046-.256-.179-.283.029-.62.036-1.156-.006-1.91a.23.23 0 0 0 .144-.097h1.821v-.414h-1.772a.513.513 0 0 0-.51-.49zm0 10.161c-.28 0-.504.23-.504.51 0 .144.056.274.151.366a3.381 3.381 0 0 0-.158.641.5.5 0 0 0-.42.497.5.5 0 0 0 .413.497c.047.247.129.443.214.6a.505.505 0 0 0-.2.407.5.5 0 0 0 .503.503c.25 0 .454-.177.497-.414h1.786v-.414h-1.78c-.01-.14-.046-.255-.179-.282.029-.62.036-1.156-.006-1.91a.23.23 0 0 0 .144-.097h1.821v-.414h-1.772a.513.513 0 0 0-.51-.49zm0 10.161c-.28 0-.504.23-.504.51 0 .144.056.274.151.366a3.381 3.381 0 0 0-.158.641.5.5 0 0 0-.42.497.5.5 0 0 0 .413.497c.047.247.129.442.214.6a.505.505 0 0 0-.2.407.5.5 0 0 0 .503.503c.25 0 .454-.177.497-.414h1.786v-.414h-1.78c-.01-.14-.046-.255-.179-.282.029-.62.036-1.156-.006-1.911a.23.23 0 0 0 .144-.097h1.821v-.413h-1.772a.513.513 0 0 0-.51-.49zm0 10.161c-.28 0-.504.23-.504.51 0 .144.056.273.151.366a3.381 3.381 0 0 0-.158.641.5.5 0 0 0-.42.497.5.5 0 0 0 .413.496c.047.247.129.443.214.6a.505.505 0 0 0-.2.407c0 .28.223.504.503.504.25 0 .454-.177.497-.414h1.786v-.414h-1.78c-.01-.14-.046-.255-.179-.283.029-.619.036-1.155-.006-1.91a.23.23 0 0 0 .144-.097h1.821v-.414h-1.772a.513.513 0 0 0-.51-.49zm0 10.161c-.28 0-.504.23-.504.51 0 .144.056.273.151.366a3.381 3.381 0 0 0-.158.641.5.5 0 0 0-.42.497.5.5 0 0 0 .413.496c.047.247.129.443.214.6a.505.505 0 0 0-.2.407c0 .28.223.504.503.504.25 0 .454-.177.497-.414h1.786v-.414h-1.78c-.01-.14-.046-.255-.179-.283.029-.619.036-1.155-.006-1.91a.23.23 0 0 0 .144-.097h1.821v-.414h-1.772a.513.513 0 0 0-.51-.49zm9.621-45.724c-.273 0-.5.219-.51.49h-1.773v.413h1.821a.23.23 0 0 0 .145.097 17.252 17.252 0 0 0-.007 1.91c-.133.027-.168.143-.18.283h-1.779v.414h1.787a.502.502 0 0 0 .496.414c.28 0 .504-.224.504-.504a.505.505 0 0 0-.2-.407c.085-.157.166-.353.213-.6a.5.5 0 0 0 .414-.496.5.5 0 0 0-.42-.497c-.04-.26-.097-.47-.159-.641a.503.503 0 0 0 .152-.366c0-.28-.224-.51-.504-.51zm0-5.081c-.273 0-.5.22-.51.49h-1.773v.414h1.821a.23.23 0 0 0 .145.096 17.252 17.252 0 0 0-.007 1.91c-.133.028-.168.144-.18.284h-1.779v.413h1.787a.502.502 0 0 0 .496.414c.28 0 .504-.223.504-.503a.505.505 0 0 0-.2-.407c.085-.157.166-.353.213-.6a.5.5 0 0 0 .414-.497.5.5 0 0 0-.42-.496 3.41 3.41 0 0 0-.159-.642.503.503 0 0 0 .152-.365c0-.28-.224-.51-.504-.51zm0 15.241c-.273 0-.5.22-.51.49h-1.773v.414h1.821a.23.23 0 0 0 .145.097 17.252 17.252 0 0 0-.007 1.91c-.133.027-.168.143-.18.283h-1.779v.414h1.787a.502.502 0 0 0 .496.414c.28 0 .504-.224.504-.504a.505.505 0 0 0-.2-.407c.085-.157.166-.353.213-.6a.5.5 0 0 0 .414-.496.5.5 0 0 0-.42-.497 3.41 3.41 0 0 0-.159-.642.503.503 0 0 0 .152-.365c0-.28-.224-.51-.504-.51zm0 10.161c-.273 0-.5.22-.51.49h-1.773v.414h1.821a.23.23 0 0 0 .145.097 17.252 17.252 0 0 0-.007 1.91c-.133.027-.168.143-.18.283h-1.779v.414h1.787a.502.502 0 0 0 .496.414c.28 0 .504-.224.504-.504a.505.505 0 0 0-.2-.407c.085-.157.166-.353.213-.6a.5.5 0 0 0 .414-.497.5.5 0 0 0-.42-.496 3.41 3.41 0 0 0-.159-.642.503.503 0 0 0 .152-.365c0-.28-.224-.51-.504-.51zm0 10.161c-.273 0-.5.22-.51.49h-1.773v.414h1.821a.23.23 0 0 0 .145.096 17.252 17.252 0 0 0-.007 1.911c-.133.027-.168.143-.18.283h-1.779v.414h1.787a.502.502 0 0 0 .496.414c.28 0 .504-.224.504-.504a.505.505 0 0 0-.2-.407c.085-.157.166-.353.213-.6a.5.5 0 0 0 .414-.497.5.5 0 0 0-.42-.496 3.41 3.41 0 0 0-.159-.642.503.503 0 0 0 .152-.365c0-.28-.224-.51-.504-.51zm0 10.161c-.273 0-.5.22-.51.49h-1.773v.414h1.821a.23.23 0 0 0 .145.096 17.252 17.252 0 0 0-.007 1.911c-.133.027-.168.143-.18.283h-1.779v.414h1.787a.502.502 0 0 0 .496.413c.28 0 .504-.223.504-.503a.505.505 0 0 0-.2-.407c.085-.157.166-.353.213-.6a.5.5 0 0 0 .414-.497.5.5 0 0 0-.42-.496 3.41 3.41 0 0 0-.159-.642.503.503 0 0 0 .152-.365c0-.28-.224-.51-.504-.51zm0-35.563c-.273 0-.5.22-.51.49h-1.773v.414h1.821a.23.23 0 0 0 .145.096 17.252 17.252 0 0 0-.007 1.91c-.133.028-.168.144-.18.284h-1.779v.413h1.787a.502.502 0 0 0 .496.414c.28 0 .504-.223.504-.503a.505.505 0 0 0-.2-.407c.085-.157.166-.353.213-.6a.5.5 0 0 0 .414-.497.5.5 0 0 0-.42-.497c-.04-.26-.097-.47-.159-.641a.503.503 0 0 0 .152-.366c0-.28-.224-.51-.504-.51zm0 10.161c-.273 0-.5.219-.51.49h-1.773v.414h1.821a.23.23 0 0 0 .145.096 17.252 17.252 0 0 0-.007 1.91c-.133.028-.168.144-.18.283h-1.779v.414h1.787a.502.502 0 0 0 .496.414c.28 0 .504-.223.504-.503a.505.505 0 0 0-.2-.407c.085-.157.166-.353.213-.6a.5.5 0 0 0 .414-.497.5.5 0 0 0-.42-.497c-.04-.26-.097-.47-.159-.641a.503.503 0 0 0 .152-.366c0-.28-.224-.51-.504-.51zm0 10.161c-.273 0-.5.219-.51.49h-1.773v.413h1.821a.23.23 0 0 0 .145.097 17.252 17.252 0 0 0-.007 1.91c-.133.028-.168.144-.18.283h-1.779v.414h1.787a.502.502 0 0 0 .496.414c.28 0 .504-.223.504-.503a.505.505 0 0 0-.2-.407c.085-.158.166-.353.213-.6a.5.5 0 0 0 .414-.497.5.5 0 0 0-.42-.497c-.04-.26-.097-.47-.159-.641a.503.503 0 0 0 .152-.366c0-.28-.224-.51-.504-.51zm0 10.161c-.273 0-.5.219-.51.49h-1.773v.413h1.821a.23.23 0 0 0 .145.097 17.252 17.252 0 0 0-.007 1.91c-.133.028-.168.144-.18.283h-1.779v.414h1.787a.502.502 0 0 0 .496.414c.28 0 .504-.224.504-.504a.505.505 0 0 0-.2-.406 2.07 2.07 0 0 0 .213-.6.5.5 0 0 0 .414-.497.5.5 0 0 0-.42-.497c-.04-.26-.097-.47-.159-.641a.503.503 0 0 0 .152-.366c0-.28-.224-.51-.504-.51zm0 10.161c-.273 0-.5.219-.51.49h-1.773v.413h1.821a.23.23 0 0 0 .145.097 17.252 17.252 0 0 0-.007 1.91c-.133.028-.168.144-.18.283h-1.779v.414h1.787a.502.502 0 0 0 .496.414c.28 0 .504-.224.504-.504a.505.505 0 0 0-.2-.407c.085-.157.166-.353.213-.6a.5.5 0 0 0 .414-.496.5.5 0 0 0-.42-.497c-.04-.26-.097-.47-.159-.641a.503.503 0 0 0 .152-.366c0-.28-.224-.51-.504-.51z"></path><path style="marker:none" overflow="visible" d="M430.908 271.477h7.725v3.972h-7.725zm0-10.187h7.725v3.973h-7.725zm0 5.093h7.725v3.973h-7.725zm0 20.373h7.725v3.973h-7.725zm0 15.28h7.725v3.973h-7.725zm0 15.279h7.725v3.973h-7.725zm0-40.745h7.725v3.973h-7.725zm0 15.28h7.725v3.972h-7.725zm0 15.279h7.725v3.973h-7.725zm0-25.466h7.725v3.973h-7.725zm0 15.279h7.725v3.973h-7.725zm0 15.28h7.725v3.973h-7.725z"></path></g><path d="M441.17 325.94s-3.961 2.15-6.224 5.544c-2.264 3.395-4.527 9.506-4.753 10.411-.227.905-.227 1.018-.227 1.018h40.512s0-.113-.226-1.018-2.49-7.016-4.753-10.41c-2.263-3.396-6.224-5.546-6.224-5.546H441.17z" fill="#e3e4e5" stroke-width=".152"></path><g style="marker:none" fill="#e3e4e5" stroke-width=".152"><path d="M428.58 348.544c-1.096 0-1.986.89-1.986 1.987 0 .594.263 1.126.676 1.49a4.24 4.24 0 0 0-2.931 4.028 4.245 4.245 0 0 0 4.242 4.242 4.245 4.245 0 0 0 4.242-4.242 4.24 4.24 0 0 0-2.932-4.028 1.98 1.98 0 0 0 .676-1.49c0-1.097-.89-1.987-1.986-1.987z" style="marker:none" overflow="visible"></path><path d="M428.526 345.758a.464.464 0 0 0-.407.469v3.531a.464.464 0 1 0 .924 0v-3.531a.464.464 0 0 0-.517-.47z" style="marker:none" overflow="visible"></path></g><g fill="#e3e4e5" stroke-width=".152"><path d="M432.07 356.241c.001 1.91-1.581 3.458-3.533 3.458s-3.534-1.548-3.533-3.458c0-1.909 1.581-3.457 3.533-3.457s3.534 1.548 3.533 3.457z" style="marker:none" overflow="visible"></path><path d="M429.041 356.241a.499.499 0 0 1-.504.494.499.499 0 0 1-.504-.494c0-.272.226-.493.504-.493.279 0 .504.22.504.493z" style="marker:none" overflow="visible"></path></g><g style="marker:none" fill="#e3e4e5" stroke-width=".152"><path d="M436.164 349.123c-1.096 0-1.986.89-1.986 1.986 0 .594.262 1.126.676 1.49a4.24 4.24 0 0 0-2.932 4.028 4.245 4.245 0 0 0 4.242 4.242 4.245 4.245 0 0 0 4.242-4.242 4.24 4.24 0 0 0-2.931-4.028 1.98 1.98 0 0 0 .676-1.49c0-1.096-.89-1.986-1.987-1.986z" style="marker:none" overflow="visible"></path><path d="M436.109 346.336a.464.464 0 0 0-.407.47v3.53a.464.464 0 1 0 .924 0v-3.53a.464.464 0 0 0-.517-.47z" style="marker:none" overflow="visible"></path></g><g fill="#e3e4e5" stroke-width=".152"><path d="M439.733 356.746c.001 1.91-1.581 3.458-3.533 3.458s-3.534-1.549-3.533-3.458c0-1.91 1.581-3.458 3.533-3.458s3.534 1.549 3.533 3.458z" style="marker:none" overflow="visible"></path><path d="M436.704 356.746a.499.499 0 0 1-.504.493.499.499 0 0 1-.504-.493c0-.272.226-.493.504-.493.279 0 .504.22.504.493z" style="marker:none" overflow="visible"></path></g><g style="marker:none" fill="#e3e4e5" stroke-width=".152"><path d="M441.956 349.006a1.986 1.986 0 0 0-1.311 3.476 4.24 4.24 0 0 0-2.931 4.028 4.245 4.245 0 0 0 4.242 4.242 4.245 4.245 0 0 0 4.242-4.242 4.24 4.24 0 0 0-2.932-4.028 1.98 1.98 0 0 0 .676-1.49c0-1.096-.89-1.986-1.986-1.986z" style="marker:none" overflow="visible"></path><path d="M441.9 346.22a.464.464 0 0 0-.406.468v3.532a.464.464 0 1 0 .924 0v-3.532a.464.464 0 0 0-.517-.469z" style="marker:none" overflow="visible"></path></g><g fill="#e3e4e5" stroke-width=".152"><path d="M445.535 356.494c.001 1.91-1.58 3.458-3.532 3.458s-3.534-1.549-3.533-3.458c-.001-1.91 1.58-3.458 3.533-3.458 1.951 0 3.533 1.548 3.532 3.458z" style="marker:none" overflow="visible"></path><path d="M442.507 356.494a.499.499 0 0 1-.504.493.499.499 0 0 1-.505-.493.5.5 0 0 1 .505-.494.5.5 0 0 1 .504.494z" style="marker:none" overflow="visible"></path></g><g style="marker:none" fill="#e3e4e5" stroke-width=".152"><path d="M447.514 349.084c-1.097 0-1.987.89-1.987 1.986 0 .594.263 1.126.676 1.49a4.24 4.24 0 0 0-2.931 4.028 4.245 4.245 0 0 0 4.242 4.242 4.245 4.245 0 0 0 4.242-4.242 4.24 4.24 0 0 0-2.932-4.028 1.98 1.98 0 0 0 .676-1.49c0-1.096-.89-1.986-1.986-1.986z" style="marker:none" overflow="visible"></path><path d="M447.459 346.297a.464.464 0 0 0-.407.47v3.53a.464.464 0 1 0 .924 0v-3.53a.464.464 0 0 0-.517-.47z" style="marker:none" overflow="visible"></path></g><g fill="#e3e4e5" stroke-width=".152"><path d="M450.96 356.683c0 1.91-1.582 3.458-3.533 3.458-1.952 0-3.534-1.549-3.533-3.458-.001-1.91 1.58-3.458 3.533-3.458 1.951 0 3.533 1.549 3.532 3.458z" style="marker:none" overflow="visible"></path><path d="M447.93 356.683a.499.499 0 0 1-.503.493.499.499 0 0 1-.505-.493.5.5 0 0 1 .505-.494.5.5 0 0 1 .504.494z" style="marker:none" overflow="visible"></path></g><g style="marker:none" fill="#e3e4e5" stroke-width=".152"><path d="M453.02 349.045c-1.097 0-1.987.89-1.987 1.986 0 .594.262 1.126.676 1.49a4.24 4.24 0 0 0-2.932 4.028 4.245 4.245 0 0 0 4.242 4.242 4.245 4.245 0 0 0 4.242-4.242 4.24 4.24 0 0 0-2.931-4.028 1.98 1.98 0 0 0 .676-1.49c0-1.096-.89-1.986-1.987-1.986z" style="marker:none" overflow="visible"></path><path d="M452.964 346.258a.464.464 0 0 0-.407.47v3.53a.464.464 0 1 0 .924 0v-3.53a.464.464 0 0 0-.517-.47z" style="marker:none" overflow="visible"></path></g><g fill="#e3e4e5" stroke-width=".152"><path d="M456.541 356.683c.001 1.91-1.58 3.458-3.533 3.458-1.952 0-3.534-1.549-3.532-3.458-.002-1.91 1.58-3.458 3.532-3.458s3.534 1.549 3.533 3.458z" style="marker:none" overflow="visible"></path><path d="M453.512 356.683a.499.499 0 0 1-.504.493.499.499 0 0 1-.504-.493.5.5 0 0 1 .504-.494c.279 0 .504.221.504.494z" style="marker:none" overflow="visible"></path></g><g style="marker:none" fill="#e3e4e5" stroke-width=".152"><path d="M458.662 349.201c-1.097 0-1.987.89-1.987 1.986 0 .594.262 1.126.676 1.49a4.24 4.24 0 0 0-2.931 4.028 4.245 4.245 0 0 0 4.242 4.242 4.245 4.245 0 0 0 4.242-4.242 4.24 4.24 0 0 0-2.932-4.028 1.98 1.98 0 0 0 .676-1.49c0-1.096-.89-1.986-1.986-1.986z" style="marker:none" overflow="visible"></path><path d="M458.606 346.414a.464.464 0 0 0-.406.47v3.531a.464.464 0 1 0 .924 0v-3.532a.464.464 0 0 0-.518-.469z" style="marker:none" overflow="visible"></path></g><g fill="#e3e4e5" stroke-width=".152"><path d="M462.28 356.778c.002 1.909-1.58 3.458-3.532 3.458s-3.534-1.549-3.533-3.458c-.001-1.91 1.58-3.458 3.533-3.458 1.952 0 3.534 1.548 3.532 3.458z" style="marker:none" overflow="visible"></path><path d="M459.252 356.777a.499.499 0 0 1-.504.494.499.499 0 0 1-.504-.494c0-.272.225-.493.504-.493.278 0 .504.221.504.493z" style="marker:none" overflow="visible"></path></g><g style="marker:none" fill="#e3e4e5" stroke-width=".152"><path d="M464.265 349.318c-1.096 0-1.986.89-1.986 1.987 0 .594.262 1.125.676 1.49a4.24 4.24 0 0 0-2.932 4.028 4.245 4.245 0 0 0 4.242 4.241 4.245 4.245 0 0 0 4.242-4.241 4.24 4.24 0 0 0-2.931-4.029 1.98 1.98 0 0 0 .676-1.49c0-1.096-.89-1.986-1.987-1.986z" style="marker:none" overflow="visible"></path><path d="M464.21 346.532a.464.464 0 0 0-.407.469v3.531a.464.464 0 1 0 .924 0v-3.531a.464.464 0 0 0-.517-.47z" style="marker:none" overflow="visible"></path></g><g fill="#e3e4e5" stroke-width=".152"><path d="M467.768 356.81c0 1.909-1.581 3.457-3.533 3.457s-3.534-1.548-3.533-3.458c-.001-1.91 1.58-3.458 3.533-3.458 1.952 0 3.534 1.549 3.533 3.458z" style="marker:none" overflow="visible"></path><path d="M464.739 356.809a.499.499 0 0 1-.504.493.499.499 0 0 1-.504-.493c0-.272.225-.493.504-.493.278 0 .504.22.504.493z" style="marker:none" overflow="visible"></path></g><g style="marker:none" fill="#e3e4e5" stroke-width=".152"><path d="M471.42 348.81c-1.097 0-1.987.89-1.987 1.987 0 .594.262 1.126.676 1.49a4.24 4.24 0 0 0-2.932 4.028 4.245 4.245 0 0 0 4.242 4.242 4.245 4.245 0 0 0 4.242-4.242 4.24 4.24 0 0 0-2.931-4.028 1.98 1.98 0 0 0 .676-1.49c0-1.096-.89-1.986-1.987-1.986z" style="marker:none" overflow="visible"></path><path d="M471.364 346.024a.464.464 0 0 0-.407.47v3.53a.464.464 0 1 0 .924 0v-3.53a.464.464 0 0 0-.517-.47z" style="marker:none" overflow="visible"></path></g><g fill="#e3e4e5" stroke-width=".152"><path d="M458.646 267.319c-1.098 0-1.986.842-1.986 1.876 0 1.034.888 1.87 1.986 1.87-.167.403-.548.981-1.365.744-1.21-.35-2.497-.862-2.497-.862l.041 4.297s1.755-1.176 2.263-.786c.507.39-.162 1.444-.318 1.6-.156.156-1.165 1.993-1.165 1.993l3.159.042h.158l3.16-.042s-1.017-1.837-1.173-1.993c-.156-.156-.818-1.21-.31-1.6.507-.39 2.262.786 2.262.786l.041-4.297s-1.287.511-2.497.862c-.84.244-1.22-.375-1.38-.78.917-.166 1.615-.923 1.615-1.834 0-1.034-.895-1.876-1.994-1.876zm.049.545c.513 0 .93.369.93.82 0 .453-.417.822-.93.822-.513 0-.931-.37-.931-.821 0-.452.418-.821.93-.821z" style="marker:none" overflow="visible"></path><path d="M458.584 264.118a.464.464 0 0 0-.407.47v3.53a.464.464 0 1 0 .925 0v-3.53a.464.464 0 0 0-.518-.47z" style="marker:none" overflow="visible"></path></g><g fill="#e3e4e5" stroke-width=".152"><path d="M441.888 267.311c-1.099 0-1.987.843-1.987 1.877 0 1.033.888 1.869 1.987 1.869-.167.404-.549.982-1.366.745-1.21-.351-2.497-.862-2.497-.862l.042 4.297s1.755-1.177 2.262-.787c.507.39-.161 1.444-.317 1.6-.156.157-1.166 1.994-1.166 1.994l3.16.041h.158l3.159-.041s-1.017-1.837-1.173-1.993c-.156-.157-.817-1.21-.31-1.6.507-.39 2.262.786 2.262.786l.042-4.297s-1.288.51-2.497.862c-.84.244-1.221-.376-1.38-.78.917-.167 1.614-.923 1.614-1.834 0-1.034-.895-1.877-1.993-1.877zm.048.545c.513 0 .931.369.931.821 0 .452-.418.82-.93.82-.514 0-.932-.368-.932-.82 0-.452.418-.82.931-.82z" style="marker:none" overflow="visible"></path><path d="M441.826 264.11a.464.464 0 0 0-.407.47v3.531a.464.464 0 1 0 .924 0v-3.531a.464.464 0 0 0-.517-.47z" style="marker:none" overflow="visible"></path></g><g fill="#e3e4e5" stroke-width=".152"><path d="M474.989 356.462c.001 1.91-1.58 3.458-3.533 3.458-1.952 0-3.534-1.548-3.532-3.458-.002-1.91 1.58-3.458 3.532-3.458s3.534 1.549 3.533 3.458z" style="marker:none" overflow="visible"></path><path d="M471.96 356.462a.499.499 0 0 1-.504.493.499.499 0 0 1-.504-.493c0-.272.226-.493.504-.493.279 0 .504.22.504.493z" style="marker:none" overflow="visible"></path></g><path d="M442.19 326.896s-3.514 1.908-5.522 4.92c-2.008 3.012-4.016 8.434-4.216 9.237-.201.803-.201.903-.201.903h35.944s0-.1-.202-.903c-.2-.803-2.208-6.225-4.216-9.237-2.008-3.012-5.523-4.92-5.523-4.92h-16.063z" fill="#e3e4e5" stroke-width=".152"></path><g stroke-width=".688"><path d="M450.222 335.254c-.426 0-.772-.37-.772-.828 0-.457.346-.828.772-.828.427 0 .773.371.773.828 0 .457-.346.828-.773.828z" style="marker:none" fill="#e3e4e5" stroke-width=".253" overflow="visible"></path><path d="M450.226 329.98c-.118 0-.208.095-.276.215-.068.12-.118.277-.166.476-.094.397-.151.94-.151 1.538 0 .185.003.365.014.538l.013.262.138-.22c.124-.197.277-.311.428-.311.15 0 .304.114.428.31l.138.22.013-.261c.01-.173.014-.353.014-.538 0-.598-.057-1.14-.152-1.538a1.85 1.85 0 0 0-.172-.476c-.068-.12-.15-.214-.27-.214zm0 .166c.023 0 .07.034.124.131.055.098.107.246.152.435.09.379.152.91.152 1.497 0 .113-.004.217-.007.324-.121-.125-.26-.22-.421-.22-.162 0-.3.095-.42.22-.004-.107-.008-.211-.008-.324 0-.588.055-1.118.145-1.497.045-.19.104-.337.159-.435.054-.097.1-.13.124-.13zm2.214 3.684c-.185 0-.358.003-.531.013l-.262.021.22.138c.196.123.304.277.304.428 0 .15-.108.297-.303.42l-.221.138.262.021c.173.01.346.014.531.014.598 0 1.14-.057 1.538-.152a1.91 1.91 0 0 0 .483-.172c.12-.068.214-.151.214-.27 0-.118-.094-.208-.214-.275a1.91 1.91 0 0 0-.483-.173c-.397-.094-.94-.151-1.538-.151zm0 .172c.587 0 1.118.055 1.497.145.19.045.344.097.441.152.097.054.124.108.124.13 0 .024-.027.07-.124.125a1.83 1.83 0 0 1-.441.152c-.379.09-.91.144-1.497.144-.11 0-.212-.003-.317-.006.124-.121.22-.253.22-.414 0-.161-.096-.3-.22-.421.105-.003.206-.007.317-.007zm-.814 1.028.062.255c.052.226.017.41-.09.517-.106.107-.284.134-.51.083l-.255-.055.172.193c.115.13.235.262.366.393.423.423.845.765 1.193.98.174.107.33.183.462.22.133.037.262.036.345-.048.084-.084.079-.205.042-.338a1.915 1.915 0 0 0-.221-.462c-.214-.348-.557-.77-.98-1.193-.13-.131-.256-.258-.386-.373l-.2-.172zm.235.441c.078.074.154.141.234.221.415.415.748.834.952 1.166.102.165.177.306.207.413.03.108.01.163-.007.18-.016.016-.065.03-.172 0a1.783 1.783 0 0 1-.421-.2c-.332-.204-.744-.544-1.159-.959a10.19 10.19 0 0 1-.22-.228c.17.002.335-.032.448-.144.114-.115.14-.275.138-.449zm-3.035-.441-.2.172c-.13.115-.256.242-.387.373-.422.423-.765.845-.979 1.193-.107.174-.184.33-.22.462-.038.133-.043.254.04.338.084.084.213.085.346.048.132-.037.288-.113.462-.22.348-.215.77-.557 1.193-.98.13-.13.25-.263.366-.393l.172-.193-.255.055c-.226.051-.411.024-.518-.083-.106-.106-.134-.291-.082-.517l.062-.255zm-.235.441c-.003.174.024.334.138.449.113.112.277.146.449.144-.072.077-.143.15-.221.228-.416.415-.828.755-1.159.959-.166.102-.313.17-.42.2-.108.03-.164.016-.18 0-.016-.017-.03-.072 0-.18a1.75 1.75 0 0 1 .2-.413c.204-.332.543-.75.959-1.166.08-.08.156-.147.234-.22zm1.069.373-.013.262a8.91 8.91 0 0 0-.014.538c0 .598.057 1.14.151 1.538.048.199.098.356.166.476s.158.214.276.214c.118 0 .201-.094.269-.214a1.85 1.85 0 0 0 .172-.476c.095-.398.152-.94.152-1.538 0-.185-.003-.365-.014-.538l-.013-.262-.138.22c-.124.196-.277.31-.428.31-.15 0-.304-.114-.428-.31l-.138-.22zm.145.476c.121.125.26.22.42.22.163 0 .3-.095.422-.22.003.107.007.21.007.324 0 .587-.062 1.118-.152 1.497a1.814 1.814 0 0 1-.152.441c-.055.097-.101.124-.124.124-.023 0-.07-.027-.124-.124a1.795 1.795 0 0 1-.159-.441c-.09-.38-.145-.91-.145-1.497 0-.113.004-.217.007-.324zm-1.793-2.49c-.598 0-1.14.057-1.538.151a1.91 1.91 0 0 0-.483.173c-.12.067-.214.157-.214.276 0 .118.094.201.214.269.12.067.284.125.483.172.397.095.94.152 1.538.152.185 0 .358-.003.531-.014l.262-.02-.22-.139c-.197-.123-.304-.27-.304-.42 0-.15.107-.305.303-.428l.221-.138-.262-.02a8.671 8.671 0 0 0-.531-.014zm0 .172c.11 0 .212.004.317.007-.124.12-.22.26-.22.42 0 .162.096.294.22.415-.105.003-.206.006-.317.006-.588 0-1.125-.054-1.504-.144a1.76 1.76 0 0 1-.434-.152c-.097-.055-.124-.101-.124-.124 0-.023.027-.077.124-.131a1.76 1.76 0 0 1 .434-.152c.379-.09.916-.145 1.504-.145zm-.586-2.766c-.133-.037-.262-.035-.345.048-.084.084-.079.206-.042.338.037.133.114.289.221.463.214.347.557.77.98 1.193.13.13.256.258.386.372l.2.173-.062-.255c-.052-.226-.024-.411.082-.518.107-.106.292-.134.518-.083l.255.056-.172-.193a8.785 8.785 0 0 0-.366-.394c-.423-.423-.845-.765-1.193-.98a1.915 1.915 0 0 0-.462-.22zm-.228.166c.016-.017.072-.03.18 0 .107.03.254.098.42.2.331.204.743.543 1.159.959.078.077.149.15.22.227-.17-.001-.335.032-.448.145-.114.114-.14.274-.138.448-.078-.073-.155-.14-.234-.22-.416-.416-.755-.835-.959-1.166a1.758 1.758 0 0 1-.2-.414c-.03-.107-.016-.163 0-.18zm5.828-.166a1.915 1.915 0 0 0-.462.22c-.348.215-.77.557-1.193.98-.13.131-.25.264-.366.394l-.172.193.255-.056c.226-.05.404-.023.51.083.107.107.142.292.09.518l-.062.255.2-.173c.13-.114.256-.241.386-.372.423-.423.766-.846.98-1.193.107-.174.184-.33.22-.463.038-.132.043-.254-.04-.338-.084-.083-.213-.085-.346-.048zm.049.166c.107-.03.156-.017.172 0 .016.016.037.072.007.18-.03.106-.105.247-.207.413a6.84 6.84 0 0 1-.952 1.166c-.08.08-.156.147-.234.22.002-.174-.024-.334-.138-.448-.113-.113-.277-.146-.449-.145a9.29 9.29 0 0 1 .221-.227c.415-.416.827-.755 1.159-.96.166-.101.313-.17.42-.2z" style="marker:none" stroke-width=".101" overflow="visible"></path><path d="M442.68 334.271a.156.156 0 0 0 .035.31h2.531a.155.155 0 0 0 0-.31h-2.531a.155.155 0 0 0-.035 0zm12.484 0a.156.156 0 0 0 .035.31h2.531a.155.155 0 0 0 0-.31h-2.53a.155.155 0 0 0-.035 0zm-1.454 3.518a.155.155 0 0 0-.077.262l1.794 1.793a.155.155 0 1 0 .213-.214l-1.793-1.793a.155.155 0 0 0-.138-.048zm1.792-8.829a.155.155 0 0 0-.075.048l-1.794 1.794a.155.155 0 1 0 .214.213l1.793-1.793a.154.154 0 0 0-.138-.262zm-10.622 0a.155.155 0 0 0-.075.262l1.793 1.793a.155.155 0 1 0 .214-.213l-1.794-1.794a.155.155 0 0 0-.138-.048zm1.794 8.829a.155.155 0 0 0-.076.048l-1.793 1.793a.155.155 0 1 0 .213.214l1.794-1.793a.154.154 0 0 0-.138-.262z" stroke="none"></path></g></g><g transform="translate(328.837 148.213) scale(.84525)"><g fill="#ed1c24" fill-rule="evenodd" stroke="#000" stroke-width=".599"><path d="M156.666 346.95c6.34 4.811 14.456 4.927 15.504 4.927.125.09 2.617-11.945 1-14.434 0-1.054-13.534-17.971-16-20 .776 4.607.941 20.987-.504 29.507z"></path><path d="M147.885 305.443c10.4 17.565 27.767 33.26 1.19 51.295 4.38-26.358-5.821-34.573-3.905-46.295.706-4.323 1.978-4.41 2.715-5z"></path><path d="M163.896 312.46c4.948 9.352 11.893 20.078 22.878 22.207-20.704 13.173-31.829-15.383-38.705-29.647 2.667-1.58 10.394-2.714 15.827 7.44z"></path></g><g fill="#ed1c24" fill-rule="evenodd" stroke="#000" stroke-width=".804"><path d="M155.496 352.507c6.34 4.811 14.456 4.927 15.504 4.927.125.09 2.617-11.945 1-14.434 0-1.054-13.534-17.971-16-20 .776 4.608.941 20.987-.504 29.507z" transform="matrix(-.73318 .1835 .17813 .71169 188.679 59.505)"></path><path d="M146.715 311c10.4 17.565 27.767 33.26 1.19 51.296 4.38-26.359-5.821-34.573-3.905-46.296.706-4.322 1.978-4.41 2.715-5z" transform="matrix(-.73318 .1835 .17813 .71169 188.679 59.505)"></path><path d="M162.726 318.018c4.948 9.351 11.893 20.077 22.878 22.207-20.704 13.173-31.829-15.383-38.705-29.648 2.667-1.58 10.394-2.714 15.827 7.441z" transform="matrix(-.73318 .1835 .17813 .71169 188.679 59.505)"></path></g><g id="i"><use transform="matrix(-.75734 -.0198 .02135 -.7579 80.73 313.558)" width="479.843" height="561.823" xlink:href="#d" stroke-width=".79"></use><path d="M52.405 224.707c-1.17-32.503-2.72-134.518-2.2-172.938.256.542.539 1.086.846 1.63 2.923 5.19 8.253 10.336 17.682 14.397a2.233 2.233 0 0 0 2.2.872c.008.003.02-.003.028 0 1.39.538 2.843 1.084 4.4 1.574a2.26 2.26 0 0 0 2.34-.365 2.235 2.235 0 0 0 .705-2.25 2.259 2.259 0 0 0-1.692-1.659 71.17 71.17 0 0 1-3.384-1.18c.092-.119.204-.215.31-.31.425-.379 1.065-.645 1.861-.73a6.13 6.13 0 0 1 2.425.252c.712.233 1.196.652 1.213.675a2.263 2.263 0 0 0 3.159.478 2.248 2.248 0 0 0 .479-3.15c-.885-1.202-2.114-1.842-3.44-2.277a10.32 10.32 0 0 0-4.315-.45c-1.513.164-3.081.707-4.371 1.856a6.7 6.7 0 0 0-1.495 1.968 48.442 48.442 0 0 1-2.623-1.321l-.056-.028c-3.168-2.101-6.162-4.208-8.686-6.608-.023-.025-.034-.059-.056-.084a32.642 32.642 0 0 1-1.27-1.547c-.086-.112-.168-.225-.253-.337-.04-.057-.074-.113-.113-.169a22.09 22.09 0 0 1-2.143-3.852c2.211 1.622 4.462 2.422 6.091 2.671a2.27 2.27 0 0 0 2.595-1.884 2.264 2.264 0 0 0-1.89-2.587c-1.623-.248-6.593-2.134-8.883-8.407-.047-.668-.091-1.352-.141-1.968a2.244 2.244 0 0 0-.028-.225c11.45 9.912 19.958 14.651 25.832 16.87 3.171 1.199 5.57 1.677 7.247 1.828.839.076 1.499.058 1.974.028a7.86 7.86 0 0 0 .593-.056c.075-.01.139-.017.197-.028.03-.005.05-.02.085-.028.017-.004.021.008.056 0 .017-.004.036-.014.085-.028.048-.014.79-.422.79-.422a2.258 2.258 0 0 0 .591-2.756 2.235 2.235 0 0 0-2.538-1.18h-.028c-.038.003-.052-.004-.113 0a8.213 8.213 0 0 1-1.269-.029c-1.234-.11-3.263-.478-6.091-1.546-3.16-1.194-7.358-3.282-12.634-6.86 1.807-.348 3.548-.933 5.217-1.604.046.036.092.08.141.113 2.014 1.356 3.154 2.703 5.612 3.683 2.458.981 5.72 1.364 11.957 1.322a2.26 2.26 0 0 0 1.974-1.125 2.214 2.214 0 0 0-.028-2.25 2.26 2.26 0 0 0-1.974-1.124c-6.025.04-8.717-.378-10.237-.984-.992-.396-1.746-.975-2.792-1.772 2.198-1.113 4.216-2.205 5.866-2.84 1.03-.38 1.612-1.454 1.41-2.53a2.224 2.224 0 0 0-3.046-1.66c-6.294 2.423-13.636 7.535-19.74 6.496-.104-.028-.206-.07-.31-.084a147.438 147.438 0 0 1-5.895-4.837 160.13 160.13 0 0 0-.507-3.683c1.02.968 2.14 2.075 3.356 3.093 1.376 1.152 2.93 2.215 4.766 2.784 1.835.569 4.03.52 6.035-.535.744-.357 1.256-1.089 1.297-1.912a2.302 2.302 0 0 0-1.1-2.052 2.226 2.226 0 0 0-2.284-.028c-.999.525-1.702.51-2.623.225-.92-.286-2.042-.982-3.187-1.94-1.463-1.226-2.867-2.807-4.427-4.19.794.327 1.614.55 2.425.731 3.973.885 8.295.974 10.012 1.996a2.267 2.267 0 0 0 2.34.14 2.221 2.221 0 0 0 1.185-1.995 2.247 2.247 0 0 0-1.213-1.997c-3.683-2.194-8.259-1.845-11.337-2.53-1.539-.343-2.54-.823-3.017-1.406-.407-.498-.717-1.236-.536-2.84.953.521 1.984.905 3.074 1.237 3.86 1.175 8.469 1.65 11.872 2.559.797.277 1.7.1 2.313-.478a2.233 2.233 0 0 0 .62-2.25 2.304 2.304 0 0 0-1.748-1.603c-3.46-.923-7.403-1.406-10.463-2.165.425-.106.81-.209 1.27-.337 11.209 3.176 16.238-.692 23.406-1.153a1.354 1.354 0 0 0 1.27-1.434 1.355 1.355 0 0 0-1.44-1.265c-9.34.6-13.32 5.76-28.256-.788-2.126-2.047-4.779-2.584-6.898-4.042-3.335-2.293-6.037-1.102-9.318-1.16-3.816 1.493-6.002 4.153-8.291 5.765-2.29 1.612-4.547 2.61-9.617 1.603a2.256 2.256 0 0 0-2.65 1.771 2.25 2.25 0 0 0 1.776 2.643c2.326.462 4.376.522 6.176.31-4.032 2.58-8.823 4.959-15.003 6.804a2.261 2.261 0 0 0-1.664 1.63 2.26 2.26 0 0 0 2.961 2.671c6.757-2.016 12.037-4.688 16.442-7.535 1.347 1.8-.987 3.6-3.695 5.4-4.824 2.229-8.56 3.562-11.224 4.33-1.917.551-3.303.822-4.173.955-.436.067-.746.098-.931.113-.093.007-.138.026-.17.028a2.255 2.255 0 0 0-2.34 2.165 2.254 2.254 0 0 0 2.171 2.334s.28.004.367 0c.087-.004.192-.016.339-.028a16.89 16.89 0 0 0 1.24-.141c1.074-.164 2.645-.494 4.738-1.097 4.186-1.205 10.464-3.563 19.092-8.182.656-.74 2.94-.715 1.326.197-1.889 1.583-6.132 4.342-10.576 6.467-4.443 2.125-9.276 3.556-11.9 3.262a2.278 2.278 0 0 0-2.144.871 2.228 2.228 0 0 0-.225 2.278 2.263 2.263 0 0 0 1.889 1.322c4.472.5 9.568-1.395 14.354-3.684 4.045-1.934 7.734-4.224 10.237-6.102.134 2.584.593 3.731-2.171 3.965-5.043 1.487-9.589 5.449-14.27 8.042-4.68 2.593-8.826 3.922-13.565 1.237a2.269 2.269 0 0 0-2.312-.056c-.72.408-1.145 1.199-1.128 2.024a2.219 2.219 0 0 0 1.213 1.94c6.384 3.618 12.76 1.674 17.964-1.209 5.203-2.882 9.895-6.615 13.395-7.648 1.485.09-1.484.66-2.397 1.715-.485.611-1.24 1.607-2.256 2.869-2.03 2.522-5.063 6.093-8.545 9.475-3.482 3.382-7.428 6.573-11.14 8.295-3.711 1.722-6.865 2.018-9.7.31a2.262 2.262 0 0 0-3.103.759 2.248 2.248 0 0 0 .762 3.093c4.387 2.643 9.442 1.998 13.931-.085 4.49-2.082 8.723-5.558 12.409-9.138 3.685-3.58 6.818-7.298 8.911-9.898.892-1.108 1.49-1.87 1.946-2.446l-.705 181.739" fill="#008f4c" fill-rule="evenodd" stroke="#000" stroke-width=".599"></path><path d="M45.564 68.17c1.302 9.293 3.205 12.477 10.752 16.596.619-1.357-2.186-3.752-3.308-5.444-1.714-3.202-3.444-6.911-3.902-10.562m-1.952 26.896c-.732 4.187 3.958 5.701 5.905 8.83-3.311.004-4.945-1.78-6.79-4.12m1.39-43.788c-1.463-1.459-3.602 2.149-5.61 2.65-2.116.527-2.47.588 0 .588 2.16 0 3.153.095 4.429-1.178.632-.63.766-1.025 1.18-2.06z" fill="#008f4c" fill-rule="evenodd" stroke="#000" stroke-width=".599"></path><path d="M50.125 126.563a2 2 0 0 0-1.75 2.03c.066 5.983-4.015 10.779-9.688 13.376a2.007 2.007 0 1 0 1.657 3.656c6.742-3.087 12.117-9.238 12.031-17.063a2 2 0 0 0-2.25-2zm.656 15.562a2 2 0 0 0-1.593 1.313c-1.84 4.76-6.052 9.506-10.532 11.687a2 2 0 1 0 1.75 3.594c5.582-2.718 10.293-8.047 12.532-13.844a2 2 0 0 0-2.157-2.75zm.032 13.813a2 2 0 0 0-1.532 1.093c-2.81 5.382-7.059 8.203-11.687 12.813a2 2 0 1 0 2.812 2.812c4.302-4.284 9.133-7.453 12.438-13.781a2 2 0 0 0-2.032-2.938zm.312 12.781a2 2 0 0 0-.875.375c-4.256 2.876-5.736 9.064-10.875 10.687a2 2 0 1 0 .656 3.938c6.134-1.289 8.224-7.642 12.532-11.375a2 2 0 0 0-1.438-3.625zM51 181.813a2 2 0 0 0-1.75 1.843c-1.734 6.06-7.54 10.075-11.594 14.625a2 2 0 1 0 3.032 2.594c4.619-5.315 11.058-9.575 12.53-16.844A2 2 0 0 0 51 181.812zm1.031 15.906a2 2 0 0 0-1.812 1c-3.203 5.25-7.967 9.502-12.875 13.687a2 2 0 1 0 2.593 3.031c4.944-4.215 10.103-8.696 13.72-14.625a2 2 0 0 0-1.626-3.093z" fill="#008f4c" fill-rule="evenodd" stroke="#000" stroke-width=".599" stroke-linecap="round"></path><use transform="matrix(-.75734 -.0198 .02135 -.7579 101.168 417.959)" width="479.843" height="561.823" xlink:href="#d" stroke-width=".79"></use><use transform="matrix(-.75734 -.0198 .02135 -.7579 123.816 431.769)" width="479.843" height="561.823" xlink:href="#d" stroke-width=".79"></use><use transform="matrix(-.3827 -.3707 .37177 -.38226 2.009 321.832)" width="479.843" height="561.823" xlink:href="#d" stroke-width="1.123"></use><use transform="rotate(64.414 -24.976 200.597)" width="479.843" height="561.823" xlink:href="#e" stroke-width=".599"></use><path d="M40.93 218.864a2 2 0 0 0-.563 3.907c3.492 1.262 3.994 2.466 5.32 5.354 1.312 2.855 1.803 6.41 1.75 10.031v.125c-1.457 20.03 8.465 34.977 22.75 45.219 14.317 10.264 33.004 16.102 49.75 18.656l.157.031.187-.03c-.189.004 1.122.176 2.656.53 1.535.355 3.555.874 5.844 1.438 4.405 1.086 9.866 2.346 15.063 3.25a2.006 2.006 0 0 0 3.625 1.719c.223-.462.436-.71.656-1.125 3.904.504 7.566.764 10.406.094 1.871-.442 3.665-1.346 4.5-3.157.835-1.81.425-3.933-.687-6.094v-.03c-.361-.666-.403-.506-.531-.626a5.4 5.4 0 0 0-.438-.375 7.99 7.99 0 0 0-1.313-.781 8.39 8.39 0 0 0-4.468-.813c-2.993.29-6.37 2.434-9.594 7.47-.32-.05-.584-.04-.906-.094-5.185-.873-10.785-2.22-15.344-3.344-2.28-.562-4.31-1.069-5.906-1.438-1.447-.334-2.295-.507-3.313-.531v-.063c-16.283-2.483-34.447-8.22-48-17.937-13.552-9.716-22.495-23.122-21.094-41.781v-.125c.073-4.056-.436-8.231-2.124-11.906-1.689-3.676-3.127-5.831-7.602-7.449a2 2 0 0 0-.781-.125zM156 300.156c.959-.092 1.731.156 2.313.438.263.128.455.243.593.344.643 1.36.61 2.042.5 2.28-.118.258-.535.644-1.781.938-1.583.374-4.252.3-7.219.031 2.26-3.004 4.24-3.9 5.594-4.03z" fill="#008f4c" fill-rule="evenodd" stroke="#000" stroke-width=".299" stroke-linecap="round"></path><use transform="matrix(.75734 -.0198 -.02135 -.7579 12.545 277.087)" width="479.843" height="561.823" xlink:href="#d" stroke-width=".79"></use><use transform="translate(17.08 57.46)" id="h" width="479.843" height="561.823" xlink:href="#f" stroke-width=".599"></use><use transform="translate(3.123 52.833)" id="g" width="479.843" height="561.823" xlink:href="#e" stroke-width=".599"></use><use transform="rotate(24.192 -137.623 360.027)" width="479.843" height="561.823" xlink:href="#g" stroke-width=".599"></use><use transform="translate(-12.905 -17.873)" width="479.843" height="561.823" xlink:href="#h" stroke-width=".599"></use><g id="d" stroke-width=".994" fill-rule="evenodd" stroke="#000"><path d="M20.29 92.05c-8.786-6.182-13.39-.101-15.052 8.484-1.81 9.348 2.323 18.722 3.436 24.352.322 1.124.4 2.49.31 4.027" fill="#008f4c" transform="matrix(.48446 .35943 -.35837 .48304 71.576 129.605)"></path><path d="M19.98 91.895c7.932-.097 13.742 4.888 10.068 15.386-.584 1.885-1.364 3.567-2.674 5.023-2.673 2.877-3.358 2.632-4.864 3.59-5.72 2.793-10.07 7.392-13.991 13.174" fill="#008f4c" transform="matrix(.48446 .35943 -.35837 .48304 71.576 129.605)"></path><path d="M13.165 112.65c.107-6.371 3.26-17.811 7.745-20.6" fill="none" transform="matrix(.48446 .35943 -.35837 .48304 71.576 129.605)"></path></g><use transform="translate(3.432 28.082)" width="479.843" height="561.823" xlink:href="#e" stroke-width=".599"></use><g id="f" stroke-width=".994" fill-rule="evenodd" stroke="#000"><path d="M20.29 92.05c-8.786-6.182-13.39-.101-15.052 8.484-1.81 9.348 2.323 18.722 3.436 24.352.322 1.124.4 2.49.31 4.027" fill="#008f4c" transform="matrix(.50138 .33543 -.33444 .4999 72.061 168.766)"></path><path d="M19.98 91.895c7.932-.097 13.742 4.888 10.068 15.386-.584 1.885-1.364 3.567-2.674 5.023-2.673 2.877-3.358 2.632-4.864 3.59-5.72 2.793-10.07 7.392-13.991 13.174" fill="#008f4c" transform="matrix(.50138 .33543 -.33444 .4999 72.061 168.766)"></path><path d="M13.165 112.65c.107-6.371 3.26-17.811 7.745-20.6" fill="none" transform="matrix(.50138 .33543 -.33444 .4999 72.061 168.766)"></path></g><g id="e" stroke-width="1.175" fill-rule="evenodd" stroke="#000"><path d="M20.29 92.05c-8.786-6.182-13.39-.101-15.052 8.484-1.81 9.348 2.323 18.722 3.436 24.352.322 1.124.4 2.49.31 4.027" fill="#008f4c" transform="matrix(-.51008 0 0 .50858 56.842 103.108)"></path><path d="M19.98 91.895c7.932-.097 13.742 4.888 10.068 15.386-.584 1.885-1.364 3.567-2.674 5.023-2.673 2.877-3.358 2.632-4.864 3.59-5.72 2.793-10.07 7.392-13.991 13.174" fill="#008f4c" transform="matrix(-.51008 0 0 .50858 56.842 103.108)"></path><path d="M13.165 112.65c.107-6.371 3.26-17.811 7.745-20.6" fill="none" transform="matrix(-.51008 0 0 .50858 56.842 103.108)"></path></g><use transform="translate(73.666 76.944)" width="479.843" height="561.823" xlink:href="#f" stroke-width=".599"></use><use transform="translate(60.598 143.462)" width="479.843" height="561.823" xlink:href="#e" stroke-width=".599"></use><use transform="translate(30.77 132.415)" width="479.843" height="561.823" xlink:href="#e" stroke-width=".599"></use><use transform="translate(8.674 112.529)" width="479.843" height="561.823" xlink:href="#e" stroke-width=".599"></use><use transform="matrix(-.75734 -.0198 .02135 -.7579 83.492 391.997)" width="479.843" height="561.823" xlink:href="#d" stroke-width=".79"></use><use transform="matrix(-.3827 -.3707 .37177 -.38226 25.357 369.927)" width="479.843" height="561.823" xlink:href="#d" stroke-width="1.123"></use><use transform="matrix(.3827 .3707 -.37177 .38226 91.274 117.832)" width="479.843" height="561.823" xlink:href="#d" stroke-width="1.123"></use><use transform="matrix(.3827 .3707 -.37177 .38226 91.274 78.612)" width="479.843" height="561.823" xlink:href="#d" stroke-width="1.123"></use><use transform="matrix(.3827 .3707 -.37177 .38226 92.931 60.383)" width="479.843" height="561.823" xlink:href="#d" stroke-width="1.123"></use><use transform="matrix(.3827 .3707 -.37177 .38226 101.77 171.414)" width="479.843" height="561.823" xlink:href="#d" stroke-width="1.123"></use><use transform="matrix(.3827 .3707 -.37177 .38226 148.722 207.319)" width="479.843" height="561.823" xlink:href="#d" stroke-width="1.123"></use><use transform="matrix(.3827 .3707 -.37177 .38226 100.664 151.528)" width="479.843" height="561.823" xlink:href="#d" stroke-width="1.123"></use></g><use transform="matrix(-1 0 0 1 286.69 0)" width="287.084" height="362.919" xlink:href="#i"></use><use transform="translate(93.148 153.575)" width="479.843" height="561.823" xlink:href="#e" stroke-width=".599"></use><use transform="translate(105.392 151.35)" width="479.843" height="561.823" xlink:href="#e" stroke-width=".599"></use><use transform="matrix(-1 0 0 1 178.469 145.783)" width="479.843" height="561.823" xlink:href="#e" stroke-width=".599"></use></g></svg>