<svg xmlns="http://www.w3.org/2000/svg" xmlns:xlink="http://www.w3.org/1999/xlink" width="900" height="600" xmlns:cgf="https://coding.garden/flags"><metadata id="cgf-metadata">

<cgf:flag>
  <cgf:name></cgf:name>
  <cgf:route>cl/co</cgf:route>
  <cgf:aspect-ratio>1.5</cgf:aspect-ratio>
</cgf:flag>

</metadata><defs><linearGradient id="b"><stop offset="0" stop-color="#0a44a8"></stop><stop offset="1" stop-color="#0e5ee8"></stop></linearGradient><linearGradient id="c"><stop offset="0" stop-color="#ff7f2a"></stop><stop offset="1" stop-color="#ffd92a"></stop></linearGradient><linearGradient id="a"><stop offset="0" stop-color="#ccf307"></stop><stop offset="1" stop-color="#5baf00"></stop></linearGradient><linearGradient xlink:href="#a" id="g" x1="561.527" y1="188.378" x2="620.773" y2="299.489" gradientUnits="userSpaceOnUse"></linearGradient><linearGradient xlink:href="#a" id="h" x1="695.665" y1="263.409" x2="763.768" y2="385.148" gradientUnits="userSpaceOnUse"></linearGradient><linearGradient xlink:href="#b" id="e" x1="142.995" y1="-.388" x2="162.115" y2="325.216" gradientUnits="userSpaceOnUse"></linearGradient><linearGradient xlink:href="#b" id="i" gradientUnits="userSpaceOnUse" x1="370.048" y1="430.464" x2="855.556" y2="649.787"></linearGradient><linearGradient xlink:href="#c" id="d" gradientUnits="userSpaceOnUse" gradientTransform="translate(-108.834 81.904) scale(1.41284)" x1="223.596" y1="46.659" x2="388.406" y2="47.343"></linearGradient><linearGradient xlink:href="#a" id="f" gradientUnits="userSpaceOnUse" x1="553.788" y1="53.419" x2="613.043" y2="160.665"></linearGradient></defs><path fill="#fff" d="M0 0h900v600H0z"></path><path d="M291.125 0c-5.061 0-10.069.257-15 .75v170.031c49.914.837 103.452-22.904 160.313-54.094C421.755 49.945 362.28 0 291.125 0z" fill="url(#d)"></path><path d="M0 0v220.938l162.5 50.75L276.094 170.78l.031.156V0z" fill="url(#e)"></path><path d="M659.875 0C516.039 52.895 387.144 172.665 276.094 170.781L304 319.25l188.969 67.219-134.844 45.594c19.347 15.008 38.646 29.955 55.406 46.187l441.531 2.906L900 437.344V0H659.875z" fill="url(#f)"></path><path d="M828.563 72.406c-155.362.52-312.659 179.76-524.5 246.813-.022.002-.042-.003-.063 0v.031l188.969 67.219-125.031 42.281c27.067 12.386 52.848 24.116 70.718 34.063L900 394.156V85.781c-23.892-9.35-47.643-13.454-71.438-13.375z" fill="url(#g)"></path><path d="M852.875 200.25c-131.53-.632-207.671 133.513-360.813 185.906l.907.313-2.969 1-26.219 79.187 386.469 35.75L900 489.47V206c-16.55-3.86-32.196-5.678-47.125-5.75z" fill="url(#h)"></path><path d="M3.656 271.938 42 372.467l-36.406 98.47 68.844-96.188L3.656 271.937zM492.72 386.563l-189.313 64-8 77.968c95.857-11.636 185.469 57.49 295.563 71.469H900V425.656c-25.258 34.577-86.853 36.743-125 35.219-106.053-7.708-192.626-70.752-282.281-74.313zm-329.281 98.75L0 531.125v33.844l163.938-40.094L244.28 600l-80.844-114.688z" fill="url(#i)"></path><path d="m282.52 654.238-117.318-169.43-212.078 59.429L74.427 374.752-40.09 208.392l202.602 63.29 113.597-100.9 27.888 148.459 188.982 67.232-189.567 64.084z" fill="#fff"></path><path style="text-indent:0;text-align:start;line-height:normal;text-transform:none;block-progression:tb;marker:none;-inkscape-font-specification:Sans" d="M482.094 384.375a2.002 2.002 0 1 0 .156 4l10.031.156h.031c88.89 3.379 175.635 66.575 282.532 74.344h.062c19.154.765 44.228.6 67.813-4.125 22.633-4.535 44.036-13.266 57.281-29.781v-7.063l-1.625 2.563c-12.184 16.679-33.374 25.754-56.438 30.375-23.04 4.616-47.796 4.787-66.78 4.031-.022-.002-.042.002-.063 0-105.463-7.687-192.029-70.912-282.688-74.344h-.031l-10.063-.156a2 2 0 0 0-.218 0z" font-weight="400" color="#000" fill="#fff" overflow="visible" font-family="Sans"></path><path d="M275.625.5v218.357M670.59-3.795C522.44 46.898 389.9 172.712 276.103 170.782" fill="none" stroke="#fff" stroke-width="4"></path><g transform="rotate(.551) scale(.04233)" fill="#fff"><use xlink:href="#j" transform="matrix(120 0 0 120 22680 12600)" width="1" height="1"></use><use xlink:href="#j" transform="matrix(120 0 0 120 18900 6615)" width="1" height="1"></use><use xlink:href="#j" transform="matrix(120 0 0 120 22680 2520)" width="1" height="1"></use><use xlink:href="#j" transform="matrix(120 0 0 120 26040 5607)" width="1" height="1"></use><use height="1" width="1" xlink:href="#j" transform="translate(24183.691 8181.45) scale(71.6488)"></use></g><g transform="rotate(.551) scale(.04233)" fill="#fff"><use xlink:href="#j" transform="matrix(120 0 0 120 22680 12600)" width="1" height="1"></use><use xlink:href="#j" transform="matrix(120 0 0 120 18900 6615)" width="1" height="1"></use><use xlink:href="#j" transform="matrix(120 0 0 120 22680 2520)" width="1" height="1"></use><use xlink:href="#j" transform="matrix(120 0 0 120 26040 5607)" width="1" height="1"></use><use height="1" width="1" xlink:href="#j" transform="translate(24183.691 8181.45) scale(71.6488)"></use></g><g transform="matrix(-.01374 .00748 -.00748 -.01374 461.239 57.286)"><use height="15120" width="30240" transform="translate(8911.948 4786.688) scale(.56064)" xlink:href="#j"></use><use height="15120" width="30240" transform="translate(-3360 6993)" xlink:href="#j"></use><use height="15120" width="30240" transform="translate(-7140 1008)" xlink:href="#j"></use><use height="15120" width="30240" transform="translate(-3360 -3087)" xlink:href="#j"></use><path transform="matrix(120 0 0 120 24509.13 5039.607)" id="j" fill="#fff" d="m0-9 1.736 5.396 5.3-2.007L3.9-.891l4.874 2.894-5.647.491.778 5.615L0 4l-3.905 4.109.778-5.615-5.647-.491L-3.9-.89l-3.136-4.721 5.3 2.007L0-9z"></path></g></svg>