<svg xmlns="http://www.w3.org/2000/svg" width="600" height="400" version="1"><path fill="#fff" d="M0 0h600v400H0z"/><path d="M395 224.583l-95 54.848-95-54.848V114.886l95-54.848 95 54.848v109.697z" fill="#faa"/><path d="M205 167.734v29.438l23.75-6.875 11.875 54.844 11.875 6.875 47.5-84.282h95v-27.437H286.934l-32.749 58.297-7.363-42.938L205 167.734z" fill="#da121a"/><path d="M300 60.047l-35.094 20.25-.875 1.75 8.531-2.219-2.343 9.031 7.875-3.937-.438 9.344 6.906-5.532 1.5 9.25 5.594-6.843 3.406 8.718 4.063-7.843 5.125 7.812 2.344-8.5 6.656 6.563.5-8.813 7.906 5.063-1.344-8.75 8.75 3.312-3.125-8.25 9.25 1.406-1.53-2.375L300 60.047z" fill="#fff"/><path d="M300 169.734l-47.5 82.282 11.875 6.843 2.969 1.72 44.531-77.126H395v-13.719h-95z" fill="#078930"/><path d="M311.875 183.453l-44.531 77.125L300 279.422l95-54.844v-41.125h-83.125zm-83.125 6.844L205 197.172v27.406l35.625 20.563-11.875-54.844z" fill="#fcdd09"/><path d="M205.5 169.234l39.719-11.03 7 40.718.937 5.562 2.781-4.906 32.157-57.281H394.5v23.437h-95.656l-.563 1-47.875 83.5-10.25-5.906-4.469-2.594-30.187-17.437v-55.063zM300 54.828l-1.25.719-97 56-1.25.75v114.875l1.25.719 34.875 20.125v.312l1 .563 11.875 6.843 1.719 1 .125-.218 47.406 27.375 1.25.75 1.25-.75 97-56 1.25-.72V112.298l-1.25-.75-97-56-1.25-.719zm0 5.781l94.5 54.563v23.125H285.75l-.563 1.031-30 53.375-6.406-37.375-.375-2.219-2.125.625-40.781 11.782v-50.344L300 60.609zm1.156 109.125H394.5v54.563L300 278.859l-46.156-26.656 47.312-82.469z" fill="#fff" stroke="#000" stroke-linecap="round"/><g fill="#fff"><path d="M261.676 112.211l-4.5 12.977 6.488 2.25-1.988-15.227z"/><path d="M261.676 112.211l3.987 13.143-6.572 1.994 2.585-15.137z"/><path d="M274.55 121.956l-13.732-.27-.135 6.866 13.867-6.596z"/><path d="M274.55 121.956l-11.268 7.853-3.927-5.634 15.195-2.219z"/><path d="M248.43 121.443l10.95 8.29 4.146-5.476-15.096-2.814z"/><path d="M248.43 121.443l13.732.27-.135 6.866-13.597-7.136z"/><path d="M269.26 137.211l-3.987-13.143-6.572 1.993 10.558 11.15z"/><path d="M269.26 137.211l-10.951-8.29 4.145-5.475 6.805 13.765z"/><path d="M253.117 136.894l11.268-7.853-3.927-5.634-7.341 13.487z"/><path d="M253.117 136.894l4.5-12.977 6.488 2.25-10.988 10.727z"/></g><g stroke="#000" stroke-width=".5" fill="#fff"><path d="M321.218 208.28l-1.036 6.526-2.41-6.162.337 6.61-3.613-5.546 1.708 6.387-4.678-4.65 2.97 5.882-5.547-3.585 4.146 5.154-6.162-2.353 5.126 4.173-6.555-1.036 5.882 3.025-6.582.364 6.386 1.737-6.386 1.709 6.582.364-5.882 3.025 6.555-1.036-5.126 4.173 6.162-2.353-4.146 5.154 5.547-3.585-2.97 5.882 4.678-4.65-1.708 6.387 3.613-5.546-.336 6.61 2.409-6.162 1.036 6.526 1.037-6.526 2.409 6.162-.337-6.61 3.614 5.546-1.709-6.387 4.678 4.65-2.97-5.882 5.547 3.585-4.146-5.154 6.163 2.353-5.126-4.173 6.526 1.036-5.854-3.025 6.583-.364-6.387-1.709 6.387-1.737-6.583-.364 5.854-3.025-6.526 1.036 5.126-4.173-6.163 2.353 4.146-5.154-5.546 3.585 2.97-5.882-4.679 4.65 1.709-6.387-3.614 5.546.337-6.61-2.41 6.162-1.036-6.526zm0 8.823c4.244 0 7.675 3.46 7.675 7.703a7.669 7.669 0 0 1-7.675 7.675 7.669 7.669 0 0 1-7.675-7.675c0-4.244 3.432-7.703 7.675-7.703z"/><path d="M350.651 217.215c-5.763 0-10.507 1.238-11.092 6.443h-15.35v2.24h15.35c.585 5.209 5.329 6.471 11.092 6.471v-3.11c-4.45 0-8.067-.03-8.067-4.481 0-4.45 3.617-4.482 8.067-4.482v-3.081z"/><path d="M353.06 216.187c-1.692.107-2.969.586-2.969 1.148v3.305c0 .643 1.644 1.149 3.697 1.149h11.905c2.053 0 3.726-.506 3.726-1.149v-3.305c0-.643-1.673-1.148-3.726-1.148h-11.905c-.256 0-.486-.016-.728 0zm10.565.952h3.385c.492 0 .896.412.896.924v1.849c0 .512-.404.924-.896.924h-3.385c-.492 0-.868-.412-.868-.924v-1.849c0-.512.376-.924.868-.924zm-10.565 10.663c-1.692.108-2.969.586-2.969 1.149v3.305c0 .643 1.644 1.148 3.697 1.148h11.905c2.053 0 3.726-.505 3.726-1.148v-3.305c0-.643-1.673-1.149-3.726-1.149h-11.905c-.256 0-.486-.015-.728 0zm10.565.953h3.385a.91.91 0 0 1 .896.924v1.849c0 .512-.404.924-.896.924h-3.385c-.492 0-.868-.412-.868-.924v-1.85c0-.512.376-.923.868-.923zm-42.413-7.338c-1.863 0-3.362 1.526-3.362 3.389a3.353 3.353 0 0 0 3.362 3.361c1.863 0 3.389-1.498 3.389-3.361a3.4 3.4 0 0 0-3.39-3.39zm-.224 2.269c.073-.015.146 0 .224 0 .62 0 1.12.499 1.12 1.12 0 .621-.5 1.12-1.12 1.12-.621 0-1.12-.499-1.12-1.12 0-.543.383-1.015.896-1.12z"/></g><path style="text-align:center" d="M177.867 322.917v-.738c.68-.059 1.07-.115 1.17-.167a.308.308 0 0 0 .14-.167c.058-.141.1-.616.123-1.424.03-1.254.044-2.241.044-2.962 0-.973-.012-2.21-.035-3.71-.024-1.118-.08-1.804-.167-2.056a.3.3 0 0 0-.141-.175c-.094-.06-.472-.124-1.134-.194v-.738c1.213.047 1.995.07 2.347.07l4.403-.079c.955 0 1.651.092 2.088.277.436.185.782.48 1.037.888.255.407.382.886.382 1.437 0 .703-.204 1.32-.61 1.85-.408.53-1.116 1-2.123 1.41l1.872 2.822 1.459 2.162c.275.351.48.564.615.637.135.073.354.113.66.119v.676l-.52.01c-1.488.01-2.446.028-2.873.052-.51-.815-1.272-1.995-2.286-3.542l-1.81-2.751c.053-.1.096-.205.132-.316.234.029.407.044.518.044.545 0 1.081-.22 1.609-.66.527-.44.79-1.066.79-1.88 0-.71-.207-1.26-.623-1.653-.416-.392-1.04-.589-1.872-.589-.264 0-.622.02-1.073.062l-.061 2.593-.08 3.287c0 .744.03 1.696.089 2.856.046.873.093 1.362.14 1.468.035.076.1.138.194.184.123.07.521.123 1.195.159v.738a73.054 73.054 0 0 0-2.804-.062c-.867 0-1.799.02-2.795.062zm13.588 0v-.475c.31-.14.595-.304.853-.492.117-.914.175-2.836.175-5.765 0-1.999-.02-3.323-.061-3.973-.018-.346-.078-.564-.18-.655-.103-.09-.538-.168-1.305-.233v-.738c1.382.053 2.475.079 3.278.079l4.843-.053c.51 0 .97.02 1.38.062l.061.096c-.129.64-.223 1.489-.281 2.55h-.695c-.029-.856-.063-1.313-.1-1.372-.039-.058-.172-.114-.4-.167-.487-.105-1.231-.158-2.233-.158-.492 0-1.066.02-1.723.062-.076 1.81-.12 3.251-.131 4.324a27.14 27.14 0 0 0 1.766.061c.815 0 1.304-.026 1.468-.079.1-.035.17-.12.21-.255.036-.105.077-.474.124-1.107h.756c-.03.99-.044 1.635-.044 1.933l.044 1.978h-.756c-.041-.768-.094-1.21-.158-1.327-.035-.07-.115-.12-.238-.15-.293-.064-.952-.096-1.977-.096-.322 0-.7.017-1.134.052-.012.311-.018.627-.018.95 0 1.675.03 2.965.088 3.867l1.74.026c.99 0 1.896-.052 2.716-.158.147-.539.288-1.151.422-1.837h.73a28.347 28.347 0 0 0-.238 2.97 14.09 14.09 0 0 1-1.538.089c-.322 0-.958-.012-1.907-.035a81.97 81.97 0 0 0-5.537.026zm18.571-4.333v-.712c1.067.023 2.019.035 2.857.035.773 0 1.608-.012 2.505-.035v.563a5.86 5.86 0 0 0-.739.29 13.16 13.16 0 0 0-.105 1.511c0 .3.035.89.105 1.776-1.16.422-2.13.707-2.913.857-.782.149-1.592.224-2.43.224-2.262 0-4.033-.588-5.313-1.762-1.28-1.175-1.92-2.697-1.92-4.566 0-1.922.653-3.46 1.96-4.615 1.306-1.154 3.18-1.731 5.624-1.731.862 0 1.688.067 2.479.202.79.135 1.544.34 2.259.615l.079.132c-.17.744-.296 1.67-.378 2.777h-.739a9.83 9.83 0 0 0-.114-1.476 3.442 3.442 0 0 0-1.446-.976c-.589-.216-1.284-.325-2.087-.325-1.506 0-2.706.457-3.6 1.371-.893.914-1.34 2.165-1.34 3.753 0 1.693.47 3.057 1.411 4.091.94 1.035 2.1 1.552 3.476 1.552.733 0 1.512-.179 2.338-.536.047-.452.07-.88.07-1.284 0-.902-.052-1.4-.158-1.494-.105-.094-.732-.173-1.88-.237zm6.865 4.333v-.738c.808-.041 1.265-.109 1.37-.202.106-.094.17-.326.194-.695.041-.773.062-2.215.062-4.324 0-.809-.012-1.98-.036-3.516-.011-1.048-.035-1.624-.07-1.727a.383.383 0 0 0-.184-.224c-.13-.064-.575-.12-1.336-.167v-.738c1.207.047 2.13.07 2.768.07 1.102 0 2.098-.023 2.988-.07v.738c-.796.047-1.246.11-1.349.19-.102.078-.168.261-.197.548-.053.563-.08 1.703-.08 3.42 0 2.285.01 3.877.027 4.776.017.9.07 1.434.158 1.604.035.076.11.136.224.18.114.044.52.09 1.217.137v.738l-1.037-.026a49.786 49.786 0 0 0-1.757-.036l-2.962.062zm13.755.176c-2.163 0-3.818-.555-4.966-1.666-1.149-1.11-1.723-2.638-1.723-4.583 0-1.36.278-2.515.835-3.468a5.608 5.608 0 0 1 2.316-2.192c.987-.51 2.257-.765 3.81-.765 1.494 0 2.716.245 3.665.734.95.489 1.68 1.169 2.193 2.039.513.87.769 1.938.769 3.203 0 1.372-.281 2.557-.844 3.556a5.832 5.832 0 0 1-2.377 2.32c-1.023.548-2.249.822-3.678.822zm.333-.958c1.178 0 2.117-.435 2.817-1.305.7-.87 1.05-2.193 1.05-3.969 0-1.863-.4-3.293-1.203-4.289-.65-.803-1.653-1.204-3.006-1.204-1.266 0-2.246.42-2.94 1.257-.695.838-1.042 2.127-1.042 3.867 0 1.254.19 2.316.572 3.186.38.87.865 1.497 1.454 1.881.589.384 1.355.576 2.298.576zm-1.502-12.402h-.87l2.039-1.968c.48-.463.804-.743.97-.84a1.03 1.03 0 0 1 .524-.145.75.75 0 0 1 .54.198.659.659 0 0 1 .207.497.635.635 0 0 1-.172.448c-.114.123-.473.343-1.076.659l-2.162 1.151zm9.386 13.184v-.738c.715-.03 1.134-.077 1.257-.141a.43.43 0 0 0 .185-.228c.064-.141.105-.636.123-1.486.035-1.406.052-2.467.052-3.181l-.017-3.718c0-.985-.032-1.553-.097-1.705a.364.364 0 0 0-.167-.194c-.117-.07-.562-.137-1.336-.202v-.738a69.4 69.4 0 0 0 2.057.044c.492 0 1.052-.015 1.679-.044a199.05 199.05 0 0 0 4.57 5.607 86.427 86.427 0 0 0 2.927 3.34v-3.48a94.57 94.57 0 0 0-.053-3.41c-.023-.569-.07-.917-.14-1.046a.303.303 0 0 0-.194-.15c-.094-.03-.504-.07-1.23-.123v-.738c.638.03 1.274.044 1.907.044.867 0 1.652-.015 2.355-.044v.738c-.656.041-1.052.088-1.186.14a.465.465 0 0 0-.185.124.51.51 0 0 0-.105.202c-.041.14-.065.592-.07 1.353l-.027 3.516-.018 3.542c0 .95.02 1.899.062 2.848l-.114.123a43.325 43.325 0 0 0-1.503-.255 263.79 263.79 0 0 1-5.458-6.293 82.202 82.202 0 0 1-2.61-3.226v3.42c0 .931.014 2.053.043 3.366.018.966.059 1.523.123 1.67a.273.273 0 0 0 .132.149c.112.064.533.123 1.266.176v.738a53.86 53.86 0 0 0-2.04-.062c-.34 0-1.069.02-2.188.062zm20.162 0v-.448c.405-.235.692-.41.862-.528.082-1.03.123-2.962.123-5.792 0-1.224-.013-2.248-.04-3.071-.026-.824-.066-1.294-.118-1.411a.253.253 0 0 0-.115-.132c-.088-.047-.518-.117-1.292-.21v-.748c.885.03 1.902.044 3.05.044l4.333-.044c1.576 0 2.773.2 3.59.598.818.398 1.467 1.008 1.947 1.828.48.82.72 1.816.72 2.988 0 1.506-.374 2.804-1.124 3.894-.75 1.09-1.664 1.866-2.742 2.329a8.662 8.662 0 0 1-3.454.694l-3.331-.053c-.534 0-1.336.02-2.409.062zm3.56-1.081a9.18 9.18 0 0 0 1.512.123c1.306 0 2.302-.188 2.988-.563.686-.375 1.24-.988 1.665-1.84.425-.853.638-1.9.638-3.143 0-1.635-.422-2.88-1.266-3.735-.744-.762-1.96-1.143-3.647-1.143-.364 0-.994.03-1.89.088l-.07 5.484c0 2.309.023 3.885.07 4.729zm11.417 1.08v-.474c.31-.14.595-.304.852-.492.118-.914.176-2.836.176-5.765 0-1.999-.02-3.323-.061-3.973-.018-.346-.078-.564-.18-.655-.103-.09-.538-.168-1.306-.233v-.738c1.383.053 2.476.079 3.279.079l4.842-.053c.51 0 .97.02 1.38.062l.062.096c-.129.64-.223 1.489-.281 2.55h-.695c-.029-.856-.063-1.313-.1-1.372-.039-.058-.172-.114-.4-.167-.487-.105-1.231-.158-2.233-.158-.492 0-1.066.02-1.723.062-.076 1.81-.12 3.251-.132 4.324.627.04 1.216.061 1.767.061.814 0 1.304-.026 1.468-.079.1-.035.17-.12.21-.255.036-.105.077-.474.124-1.107h.756a85.06 85.06 0 0 0-.044 1.933l.044 1.978h-.756c-.041-.768-.094-1.21-.158-1.327-.036-.07-.115-.12-.238-.15-.293-.064-.952-.096-1.977-.096-.323 0-.7.017-1.134.052-.012.311-.018.627-.018.95 0 1.675.03 2.965.088 3.867l1.74.026c.99 0 1.896-.052 2.716-.158.147-.539.287-1.151.422-1.837h.73a28.342 28.342 0 0 0-.238 2.97 14.09 14.09 0 0 1-1.538.089c-.322 0-.958-.012-1.907-.035a81.97 81.97 0 0 0-5.537.026zm10.986 0v-.456c.323-.152.627-.331.914-.536.077-1.588.115-3.243.115-4.966 0-1.354-.015-2.63-.044-3.832-.018-.856-.059-1.348-.123-1.477a.307.307 0 0 0-.18-.171c-.091-.038-.518-.09-1.28-.154v-.738c1.131.03 2.18.044 3.147.044.938 0 1.825-.015 2.663-.044v.738c-.808.053-1.274.123-1.397.211-.076.053-.13.16-.163.32-.032.162-.057 1.11-.075 2.844l-.052 4.28c0 .803.02 1.732.061 2.787.768.04 1.336.061 1.705.061 1.108 0 2.04-.085 2.795-.255.153-.533.302-1.169.448-1.907h.774a44.41 44.41 0 0 0-.343 3.12c-.557.082-1.07.123-1.538.123l-3.182-.035-1.423-.018a64.312 64.312 0 0 0-2.822.062zm15.504 0v-.456c.322-.152.627-.331.914-.536.076-1.588.115-3.243.115-4.966 0-1.354-.015-2.63-.044-3.832-.018-.856-.059-1.348-.123-1.477a.307.307 0 0 0-.18-.171c-.091-.038-.518-.09-1.28-.154v-.738c1.131.03 2.18.044 3.147.044.938 0 1.825-.015 2.663-.044v.738c-.808.053-1.274.123-1.397.211-.077.053-.13.16-.163.32-.032.162-.057 1.11-.075 2.844l-.052 4.28c0 .803.02 1.732.061 2.787.768.04 1.336.061 1.705.061 1.108 0 2.04-.085 2.795-.255a24.13 24.13 0 0 0 .448-1.907h.774a44.422 44.422 0 0 0-.343 3.12c-.557.082-1.07.123-1.538.123l-3.182-.035-1.424-.018a64.311 64.311 0 0 0-2.82.062zm10.442 0v-.737c.808-.041 1.265-.109 1.37-.202.106-.094.17-.326.194-.695.041-.773.062-2.215.062-4.324 0-.809-.012-1.98-.036-3.516-.011-1.048-.035-1.624-.07-1.727a.383.383 0 0 0-.184-.224c-.13-.064-.575-.12-1.336-.167v-.738c1.207.047 2.13.07 2.768.07 1.102 0 2.098-.023 2.988-.07v.738c-.796.047-1.246.11-1.349.19-.102.078-.168.261-.197.548-.053.563-.08 1.703-.08 3.42 0 2.285.01 3.877.027 4.776.017.9.07 1.434.158 1.604.035.076.11.136.224.18.114.044.52.09 1.217.137v.738l-1.037-.026a49.786 49.786 0 0 0-1.757-.036l-2.962.062zm7.716 0v-.412c.334-.2.59-.381.765-.545.07-.809.106-2.596.106-5.361 0-2.004-.03-3.422-.088-4.254-.03-.451-.091-.715-.185-.791-.129-.118-.574-.194-1.336-.229v-.738l1.688.035 1.292.026c.392 0 .972-.014 1.74-.044a46.42 46.42 0 0 1 1.6-.043c1.3 0 2.232.218 2.794.654.563.437.844 1.033.844 1.789 0 .78-.278 1.415-.835 1.907-.556.492-1.342.844-2.355 1.055v.07c1.043.106 1.775.264 2.197.475.422.21.762.539 1.02.984.257.445.386.952.386 1.52 0 .698-.212 1.357-.637 1.978a4.122 4.122 0 0 1-1.688 1.424c-.7.328-1.686.492-2.957.492-.252 0-.63-.009-1.134-.026a31.914 31.914 0 0 0-1.151-.027c-.334 0-1.023.02-2.066.062zm3.367-7.25h.457c.99 0 1.686-.179 2.087-.536.401-.358.602-.917.602-1.679 0-.668-.163-1.16-.488-1.476-.325-.317-.86-.475-1.604-.475-.275 0-.612.023-1.01.07-.036 1.8-.053 2.9-.053 3.305l.009.791zm.017 6.249c.34.088.66.132.958.132.832 0 1.47-.239 1.916-.716.446-.478.668-1.18.668-2.105 0-.604-.1-1.098-.303-1.481a1.984 1.984 0 0 0-.835-.857c-.355-.188-.86-.282-1.516-.282l-.888.01v.228l-.017 2.276.017 2.303v.492zm8.5 1.002v-.475c.31-.14.594-.304.852-.492.117-.914.176-2.836.176-5.765 0-1.999-.021-3.323-.062-3.973-.018-.346-.078-.564-.18-.655-.103-.09-.538-.168-1.305-.233v-.738c1.382.053 2.475.079 3.278.079l4.843-.053c.51 0 .97.02 1.38.062l.061.096c-.129.64-.223 1.489-.281 2.55h-.694c-.03-.856-.063-1.313-.102-1.372-.038-.058-.17-.114-.4-.167-.486-.105-1.23-.158-2.232-.158-.492 0-1.066.02-1.722.062-.077 1.81-.12 3.251-.132 4.324.627.04 1.215.061 1.766.061.815 0 1.304-.026 1.468-.079.1-.035.17-.12.211-.255.035-.105.076-.474.123-1.107h.756a85.06 85.06 0 0 0-.044 1.933l.044 1.978h-.756c-.041-.768-.094-1.21-.158-1.327-.035-.07-.114-.12-.237-.15-.293-.064-.953-.096-1.978-.096-.322 0-.7.017-1.134.052a24.64 24.64 0 0 0-.017.95c0 1.675.029 2.965.088 3.867l1.74.026c.99 0 1.895-.052 2.716-.158a26.51 26.51 0 0 0 .421-1.837h.73a28.342 28.342 0 0 0-.237 2.97 14.09 14.09 0 0 1-1.538.089c-.323 0-.958-.012-1.908-.035a81.97 81.97 0 0 0-5.537.026zm10.423 0v-.738c.68-.059 1.07-.115 1.169-.167a.308.308 0 0 0 .14-.167c.06-.141.1-.616.124-1.424.029-1.254.044-2.241.044-2.962 0-.973-.012-2.21-.036-3.71-.023-1.118-.079-1.804-.167-2.056a.3.3 0 0 0-.14-.175c-.094-.06-.472-.124-1.134-.194v-.738c1.213.047 1.995.07 2.347.07l4.403-.079c.955 0 1.65.092 2.087.277.437.185.783.48 1.038.888.254.407.382.886.382 1.437 0 .703-.204 1.32-.611 1.85-.407.53-1.115 1-2.123 1.41l1.873 2.822 1.459 2.162c.275.351.48.564.615.637.135.073.354.113.659.119v.676l-.519.01c-1.488.01-2.446.028-2.874.052-.51-.815-1.271-1.995-2.285-3.542l-1.81-2.751c.052-.1.096-.205.131-.316.235.029.408.044.519.044.545 0 1.081-.22 1.608-.66.528-.44.791-1.066.791-1.88 0-.71-.208-1.26-.624-1.653-.416-.392-1.04-.589-1.872-.589-.263 0-.62.02-1.072.062l-.061 2.593-.08 3.287c0 .744.03 1.696.088 2.856.047.873.094 1.362.141 1.468.035.076.1.138.193.184.123.07.522.123 1.196.159v.738a73.054 73.054 0 0 0-2.804-.062c-.867 0-1.799.02-2.795.062zm15.39 0v-.738c.334 0 .682-.03 1.046-.088.17-.03.29-.078.36-.145.07-.068.123-.192.158-.374.041-.252.076-1.178.106-2.777.017-1.137.026-2.297.026-3.48 0-2.327-.007-3.512-.022-3.556-.015-.044-.221-.066-.62-.066-.814 0-1.514.024-2.1.07-.34.03-.532.06-.576.089a.279.279 0 0 0-.101.153c-.023.074-.073.588-.15 1.543h-.755c.011-1.12-.02-2.083-.097-2.892l.097-.07c1.845.082 3.641.123 5.387.123 1.74 0 3.689-.041 5.845-.123l.097.14c-.111.803-.19 1.744-.237 2.822h-.73c-.053-.979-.105-1.509-.158-1.591-.041-.064-.135-.108-.281-.132-.47-.076-1.4-.114-2.795-.114-.118 0-.188.017-.211.053-.024.04-.035.196-.035.465l-.053 5.907c0 1.71.014 2.76.044 3.15.03.39.1.626.21.708.077.053.537.114 1.38.185v.738a57.777 57.777 0 0 0-2.742-.062c-1.271 0-2.302.02-3.093.062zm9.562-.8c.551-.03.89-.085 1.02-.167.088-.058.225-.281.413-.668a75.81 75.81 0 0 0 1.37-3.173l3.112-7.62h1.292l3.973 9.44c.515 1.224.833 1.895.953 2.012.12.118.491.197 1.112.238v.738a63.247 63.247 0 0 0-5.598 0v-.738c.697-.03 1.1-.07 1.208-.119.109-.05.163-.14.163-.268 0-.111-.123-.492-.37-1.143l-.58-1.503a152.198 152.198 0 0 0-4.561 0l-.387 1.011a15.27 15.27 0 0 0-.386 1.23 1.227 1.227 0 0 0-.053.335c0 .134.057.23.171.285.114.056.526.113 1.235.172v.738a30.977 30.977 0 0 0-2.144-.062c-.815 0-1.462.02-1.943.062v-.8zm5.766-8.516l-1.855 4.508a40.586 40.586 0 0 0 3.736 0l-1.881-4.508zm8.92 9.316v-.448c.405-.235.692-.41.862-.528.082-1.03.123-2.962.123-5.792 0-1.224-.013-2.248-.04-3.071-.026-.824-.065-1.294-.118-1.411a.253.253 0 0 0-.114-.132c-.088-.047-.519-.117-1.292-.21v-.748c.884.03 1.901.044 3.05.044l4.332-.044c1.577 0 2.773.2 3.59.598.818.398 1.467 1.008 1.948 1.828.48.82.72 1.816.72 2.988 0 1.506-.375 2.804-1.125 3.894-.75 1.09-1.664 1.866-2.742 2.329a8.662 8.662 0 0 1-3.454.694l-3.331-.053c-.533 0-1.336.02-2.408.062zm3.56-1.081a9.18 9.18 0 0 0 1.512.123c1.307 0 2.303-.188 2.988-.563.686-.375 1.241-.988 1.666-1.84.425-.853.637-1.9.637-3.143 0-1.635-.422-2.88-1.266-3.735-.744-.762-1.96-1.143-3.647-1.143-.363 0-.993.03-1.89.088l-.07 5.484c0 2.309.023 3.885.07 4.729zm17.596 1.257c-2.162 0-3.817-.555-4.966-1.666-1.148-1.11-1.723-2.638-1.723-4.583 0-1.36.279-2.515.835-3.468a5.608 5.608 0 0 1 2.316-2.192c.988-.51 2.258-.765 3.81-.765 1.495 0 2.716.245 3.665.734.95.489 1.68 1.169 2.193 2.039.513.87.77 1.938.77 3.203 0 1.372-.282 2.557-.844 3.556a5.832 5.832 0 0 1-2.378 2.32c-1.022.548-2.248.822-3.678.822zm.334-.958c1.178 0 2.117-.435 2.817-1.305.7-.87 1.05-2.193 1.05-3.969 0-1.863-.401-3.293-1.204-4.289-.65-.803-1.652-1.204-3.006-1.204-1.265 0-2.245.42-2.94 1.257-.694.838-1.041 2.127-1.041 3.867 0 1.254.19 2.316.571 3.186.38.87.866 1.497 1.455 1.881.588.384 1.355.576 2.298.576zm7.919.782v-.738c.68-.059 1.07-.115 1.169-.167a.308.308 0 0 0 .14-.167c.06-.141.1-.616.124-1.424.029-1.254.043-2.241.043-2.962 0-.973-.011-2.21-.035-3.71-.023-1.118-.079-1.804-.167-2.056a.3.3 0 0 0-.14-.175c-.094-.06-.472-.124-1.134-.194v-.738c1.213.047 1.995.07 2.347.07l4.403-.079c.955 0 1.65.092 2.087.277.437.185.783.48 1.037.888.255.407.383.886.383 1.437 0 .703-.204 1.32-.611 1.85-.407.53-1.115 1-2.123 1.41l1.872 2.822 1.46 2.162c.275.351.48.564.615.637.134.073.354.113.659.119v.676l-.519.01c-1.488.01-2.446.028-2.874.052-.51-.815-1.271-1.995-2.285-3.542l-1.81-2.751c.052-.1.096-.205.131-.316.235.029.408.044.519.044.545 0 1.081-.22 1.608-.66.528-.44.791-1.066.791-1.88 0-.71-.208-1.26-.624-1.653-.416-.392-1.04-.589-1.872-.589-.263 0-.62.02-1.072.062l-.062 2.593-.079 3.287c0 .744.03 1.696.088 2.856.047.873.094 1.362.14 1.468.036.076.1.138.194.184.123.07.522.123 1.196.159v.738a73.054 73.054 0 0 0-2.804-.062c-.867 0-1.799.02-2.795.062zm-217.195 22.5v-.413c.334-.2.588-.381.764-.545.07-.809.106-2.596.106-5.361 0-2.004-.03-3.422-.088-4.254-.03-.451-.091-.715-.185-.791-.129-.118-.574-.194-1.336-.229v-.738l1.688.035 1.292.026c.392 0 .972-.014 1.74-.044a46.42 46.42 0 0 1 1.6-.043c1.3 0 2.232.218 2.795.654.562.437.843 1.033.843 1.789 0 .78-.278 1.415-.835 1.907-.556.492-1.341.844-2.355 1.055v.07c1.043.106 1.775.264 2.197.475.422.21.762.539 1.02.984.257.445.386.952.386 1.52 0 .698-.212 1.357-.637 1.978a4.122 4.122 0 0 1-1.687 1.424c-.7.328-1.686.492-2.958.492-.252 0-.63-.009-1.134-.026a31.913 31.913 0 0 0-1.151-.027c-.334 0-1.022.02-2.065.062zm3.366-7.251h.457c.99 0 1.686-.179 2.087-.536.402-.358.602-.917.602-1.679 0-.668-.162-1.16-.488-1.476-.325-.317-.86-.475-1.604-.475-.275 0-.612.023-1.01.07a259.5 259.5 0 0 0-.053 3.305l.009.791zm.017 6.249c.34.088.66.132.958.132.832 0 1.471-.239 1.916-.716.446-.478.668-1.18.668-2.105 0-.604-.1-1.098-.303-1.481a1.984 1.984 0 0 0-.835-.857c-.354-.188-.86-.282-1.516-.282l-.888.01v.228l-.017 2.276.017 2.303v.492zm8.5 1.002v-.475c.31-.14.594-.304.852-.492.117-.914.176-2.836.176-5.765 0-1.999-.02-3.323-.062-3.973-.017-.346-.077-.564-.18-.655-.103-.09-.538-.168-1.305-.233v-.738c1.383.053 2.475.079 3.278.079l4.843-.053c.51 0 .97.02 1.38.062l.061.096c-.129.64-.222 1.489-.28 2.55h-.695c-.03-.856-.063-1.313-.101-1.372-.038-.058-.172-.114-.4-.167-.487-.105-1.23-.158-2.233-.158-.492 0-1.066.02-1.722.062-.076 1.81-.12 3.251-.132 4.324a27.14 27.14 0 0 0 1.766.061c.815 0 1.304-.026 1.468-.079.1-.035.17-.12.211-.255.035-.105.076-.474.123-1.107h.756c-.03.99-.044 1.635-.044 1.933l.044 1.978h-.756c-.04-.768-.094-1.21-.158-1.327-.035-.07-.114-.12-.237-.15-.293-.064-.952-.096-1.978-.096-.322 0-.7.017-1.134.052-.011.311-.017.627-.017.95 0 1.675.03 2.965.088 3.867l1.74.026c.99 0 1.895-.052 2.716-.158.146-.539.287-1.151.422-1.837h.73a28.347 28.347 0 0 0-.238 2.97 14.09 14.09 0 0 1-1.538.089c-.323 0-.958-.012-1.907-.035a81.97 81.97 0 0 0-5.537.026zm10.423 0v-.738c.68-.059 1.07-.115 1.17-.167a.308.308 0 0 0 .14-.167c.058-.141.1-.616.123-1.424.03-1.254.044-2.241.044-2.962 0-.973-.012-2.21-.035-3.71-.024-1.118-.08-1.804-.167-2.056a.3.3 0 0 0-.141-.175c-.094-.06-.472-.124-1.134-.194v-.738c1.213.047 1.995.07 2.347.07l4.403-.079c.955 0 1.651.092 2.088.277.436.185.782.48 1.037.888.255.407.382.886.382 1.437 0 .703-.204 1.32-.61 1.85-.408.53-1.116 1-2.123 1.41l1.872 2.822 1.459 2.162c.275.351.48.564.615.637.135.073.354.113.66.119v.676l-.52.01c-1.488.01-2.446.028-2.873.052-.51-.815-1.272-1.995-2.286-3.542l-1.81-2.751c.053-.1.097-.205.132-.316.234.029.407.044.518.044.545 0 1.081-.22 1.609-.66.527-.44.79-1.066.79-1.88 0-.71-.207-1.26-.623-1.653-.416-.392-1.04-.589-1.872-.589-.264 0-.622.02-1.073.062l-.061 2.593-.08 3.287c0 .744.03 1.696.089 2.856.046.873.093 1.362.14 1.468.035.076.1.138.194.184.123.07.521.123 1.195.159v.738a73.054 73.054 0 0 0-2.804-.062c-.867 0-1.799.02-2.795.062zm12.973 0v-.738c.715-.03 1.134-.077 1.257-.141a.43.43 0 0 0 .184-.228c.065-.141.106-.636.123-1.486.036-1.406.053-2.467.053-3.181l-.018-3.718c0-.985-.032-1.553-.096-1.705a.364.364 0 0 0-.167-.194c-.117-.07-.563-.137-1.336-.202v-.738c.926.03 1.611.044 2.057.044.492 0 1.051-.015 1.678-.044a199.066 199.066 0 0 0 4.57 5.607 86.434 86.434 0 0 0 2.927 3.34v-3.48a94.57 94.57 0 0 0-.052-3.41c-.024-.569-.07-.917-.141-1.046a.303.303 0 0 0-.193-.15c-.094-.03-.504-.07-1.23-.123v-.738c.638.03 1.274.044 1.906.044.868 0 1.653-.015 2.356-.044v.738c-.656.041-1.052.088-1.187.14a.465.465 0 0 0-.184.124.51.51 0 0 0-.106.202c-.04.14-.064.592-.07 1.353l-.026 3.516-.018 3.542c0 .95.02 1.899.062 2.848l-.115.123a43.325 43.325 0 0 0-1.503-.255 263.79 263.79 0 0 1-5.458-6.293 82.202 82.202 0 0 1-2.61-3.226v3.42c0 .931.015 2.053.044 3.366.018.966.059 1.523.123 1.67a.273.273 0 0 0 .132.149c.111.064.533.123 1.265.176v.738a53.86 53.86 0 0 0-2.039-.062c-.34 0-1.069.02-2.188.062zm14.968-.8c.55-.03.89-.085 1.02-.167.087-.058.225-.281.412-.668a74.27 74.27 0 0 0 1.371-3.173l3.112-7.62h1.292l3.972 9.44c.516 1.224.834 1.895.954 2.012.12.118.49.197 1.112.238v.738a63.246 63.246 0 0 0-5.599 0v-.738c.697-.03 1.1-.07 1.209-.119.108-.05.162-.14.162-.268 0-.111-.123-.492-.369-1.143l-.58-1.503a152.198 152.198 0 0 0-4.561 0l-.387 1.011c-.106.276-.235.686-.387 1.23a1.227 1.227 0 0 0-.053.335c0 .134.057.23.172.285.114.056.526.113 1.235.172v.738a30.977 30.977 0 0 0-2.145-.062c-.814 0-1.462.02-1.942.062v-.8zm5.765-8.516l-1.854 4.508a40.514 40.514 0 0 0 3.735 0l-1.88-4.508zm8.306 9.316v-.738c.68-.059 1.07-.115 1.169-.167a.308.308 0 0 0 .14-.167c.06-.141.1-.616.124-1.424.029-1.254.044-2.241.044-2.962 0-.973-.012-2.21-.036-3.71-.023-1.118-.079-1.804-.167-2.056a.3.3 0 0 0-.14-.175c-.094-.06-.472-.124-1.134-.194v-.738c1.213.047 1.995.07 2.347.07l4.403-.079c.955 0 1.65.092 2.087.277.437.185.783.48 1.037.888.255.407.383.886.383 1.437 0 .703-.204 1.32-.611 1.85-.407.53-1.115 1-2.123 1.41l1.872 2.822 1.46 2.162c.275.351.48.564.615.637.134.073.354.113.659.119v.676l-.519.01c-1.488.01-2.446.028-2.874.052-.51-.815-1.271-1.995-2.285-3.542l-1.81-2.751c.052-.1.096-.205.131-.316.235.029.408.044.519.044.545 0 1.081-.22 1.608-.66.528-.44.791-1.066.791-1.88 0-.71-.208-1.26-.624-1.653-.416-.392-1.04-.589-1.872-.589-.263 0-.62.02-1.072.062l-.062 2.593-.079 3.287c0 .744.03 1.696.088 2.856.047.873.094 1.362.14 1.468.036.076.1.138.194.184.123.07.522.123 1.196.159v.738a73.054 73.054 0 0 0-2.804-.062c-.867 0-1.799.02-2.795.062zm13.623 0v-.448c.404-.235.691-.41.861-.528.082-1.03.123-2.962.123-5.792 0-1.224-.013-2.248-.04-3.071-.026-.824-.065-1.294-.118-1.411a.253.253 0 0 0-.114-.132c-.088-.047-.519-.117-1.292-.21v-.748c.885.03 1.901.044 3.05.044l4.333-.044c1.576 0 2.773.2 3.59.598.817.398 1.466 1.008 1.947 1.828.48.82.72 1.816.72 2.988 0 1.506-.374 2.804-1.124 3.894-.75 1.09-1.665 1.866-2.743 2.329a8.662 8.662 0 0 1-3.454.694l-3.33-.053c-.534 0-1.337.02-2.409.062zm3.56-1.081a9.18 9.18 0 0 0 1.511.123c1.307 0 2.303-.188 2.989-.563.685-.375 1.24-.988 1.665-1.84.425-.853.637-1.9.637-3.143 0-1.635-.422-2.88-1.265-3.735-.744-.762-1.96-1.143-3.648-1.143-.363 0-.993.03-1.89.088l-.07 5.484c0 2.309.024 3.885.07 4.729zm17.595 1.257c-2.162 0-3.817-.555-4.966-1.666-1.148-1.11-1.722-2.638-1.722-4.583 0-1.36.278-2.515.835-3.468a5.608 5.608 0 0 1 2.316-2.192c.987-.51 2.257-.765 3.81-.765 1.494 0 2.716.245 3.665.734.949.489 1.68 1.169 2.193 2.039.512.87.769 1.938.769 3.203 0 1.372-.282 2.557-.844 3.556a5.832 5.832 0 0 1-2.377 2.32c-1.023.548-2.25.822-3.679.822zm.334-.958c1.178 0 2.117-.435 2.817-1.305.7-.87 1.05-2.193 1.05-3.969 0-1.863-.4-3.293-1.204-4.289-.65-.803-1.652-1.204-3.006-1.204-1.265 0-2.245.42-2.94 1.257-.694.838-1.041 2.127-1.041 3.867 0 1.254.19 2.316.571 3.186.381.87.866 1.497 1.455 1.881.589.384 1.355.576 2.298.576zm19.178.958c-2.162 0-3.817-.555-4.966-1.666-1.148-1.11-1.722-2.638-1.722-4.583 0-1.36.278-2.515.834-3.468a5.608 5.608 0 0 1 2.316-2.192c.988-.51 2.258-.765 3.81-.765 1.495 0 2.716.245 3.665.734.95.489 1.68 1.169 2.193 2.039.513.87.77 1.938.77 3.203 0 1.372-.282 2.557-.844 3.556a5.832 5.832 0 0 1-2.378 2.32c-1.022.548-2.248.822-3.678.822zm.334-.958c1.178 0 2.117-.435 2.817-1.305.7-.87 1.05-2.193 1.05-3.969 0-1.863-.401-3.293-1.204-4.289-.65-.803-1.652-1.204-3.006-1.204-1.265 0-2.245.42-2.94 1.257-.694.838-1.041 2.127-1.041 3.867 0 1.254.19 2.316.571 3.186.38.87.866 1.497 1.455 1.881.589.384 1.355.576 2.298.576zm8.824-6.671l-.422-2.953a5.861 5.861 0 0 1-.052-.756c0-.434.092-.768.276-1.002a.854.854 0 0 1 .7-.352c.28 0 .513.118.698.352.184.234.277.562.277.984 0 .246-.02.504-.062.774l-.413 2.953c-.04.299-.21.448-.51.448-.287 0-.45-.15-.492-.448zm3.155 7.453v-.738c.768-.036 1.203-.087 1.306-.154.102-.068.171-.207.206-.418.059-.322.088-1.133.088-2.434l-.009-4.808c-.006-1.623-.035-2.508-.088-2.654a.378.378 0 0 0-.149-.202c-.117-.076-.568-.138-1.354-.185v-.738c1.172.04 2.101.061 2.787.061 1.084 0 2.074-.02 2.97-.061v.738c-.72.047-1.145.1-1.274.158a.338.338 0 0 0-.167.159c-.059.11-.1.45-.123 1.02a61.84 61.84 0 0 0-.053 2.566v.729c.61.03 1.576.044 2.9.044 1.178 0 2.045-.015 2.602-.044.006-1.904-.015-3.17-.061-3.797-.024-.334-.085-.539-.185-.615-.135-.111-.592-.185-1.371-.22v-.738c1.459.04 2.446.061 2.962.061.885 0 1.82-.02 2.804-.061v.738c-.75.047-1.187.103-1.31.167a.345.345 0 0 0-.158.158c-.053.123-.091.6-.115 1.433a100.851 100.851 0 0 0-.061 3.103l.053 3.99c.011.902.038 1.42.079 1.555a.47.47 0 0 0 .202.286c.094.056.53.11 1.31.163v.738l-.976-.026a57.181 57.181 0 0 0-1.723-.036c-.867 0-1.89.02-3.067.062v-.738c.785-.036 1.232-.098 1.34-.19.109-.09.175-.329.198-.716.041-.662.067-2.074.08-4.236a61.795 61.795 0 0 0-2.19-.035c-1.26 0-2.364.012-3.313.035v.58c0 1.535.02 2.687.062 3.454.029.516.1.816.21.901.112.085.56.154 1.345.207v.738l-1.037-.026a49.787 49.787 0 0 0-1.758-.036l-2.962.062zm15.03 0v-.738c.808-.041 1.265-.109 1.37-.202.106-.094.17-.326.194-.695.041-.773.062-2.215.062-4.324 0-.809-.012-1.98-.035-3.516-.012-1.048-.036-1.624-.07-1.727a.383.383 0 0 0-.185-.224c-.13-.064-.575-.12-1.336-.167v-.738c1.207.047 2.13.07 2.768.07 1.102 0 2.098-.023 2.989-.07v.738c-.797.047-1.247.11-1.35.19-.102.078-.168.261-.197.548-.053.563-.08 1.703-.08 3.42 0 2.285.01 3.877.027 4.776.018.9.07 1.434.158 1.604.035.076.11.136.224.18.115.044.52.09 1.218.137v.738l-1.038-.026a49.786 49.786 0 0 0-1.757-.036l-2.962.062zm15.143-4.333v-.712c1.067.023 2.019.035 2.857.035.773 0 1.608-.012 2.505-.035v.563a5.859 5.859 0 0 0-.739.29 13.16 13.16 0 0 0-.105 1.511c0 .3.035.89.105 1.776-1.16.422-2.131.707-2.913.857-.782.149-1.592.224-2.43.224-2.262 0-4.033-.588-5.313-1.762-1.28-1.175-1.92-2.697-1.92-4.566 0-1.922.653-3.46 1.96-4.615 1.306-1.154 3.18-1.731 5.624-1.731.862 0 1.688.067 2.479.202.79.135 1.544.34 2.258.615l.08.132c-.17.744-.296 1.67-.378 2.777h-.739a9.832 9.832 0 0 0-.114-1.476 3.442 3.442 0 0 0-1.446-.976c-.589-.216-1.284-.325-2.087-.325-1.506 0-2.706.457-3.6 1.371-.893.914-1.34 2.165-1.34 3.753 0 1.693.47 3.057 1.411 4.091.94 1.035 2.1 1.552 3.476 1.552.733 0 1.512-.179 2.338-.536.047-.452.07-.88.07-1.284 0-.902-.052-1.4-.158-1.494-.105-.094-.732-.173-1.88-.237zm15.012 0v-.712c1.066.023 2.019.035 2.856.035.774 0 1.609-.012 2.505-.035v.563a5.859 5.859 0 0 0-.738.29 13.16 13.16 0 0 0-.105 1.511c0 .3.035.89.105 1.776-1.16.422-2.131.707-2.913.857-.783.149-1.593.224-2.43.224-2.262 0-4.033-.588-5.314-1.762-1.28-1.175-1.92-2.697-1.92-4.566 0-1.922.653-3.46 1.96-4.615 1.307-1.154 3.182-1.731 5.625-1.731.861 0 1.687.067 2.478.202.791.135 1.544.34 2.26.615l.078.132c-.17.744-.296 1.67-.378 2.777h-.738a9.831 9.831 0 0 0-.114-1.476 3.442 3.442 0 0 0-1.446-.976c-.589-.216-1.285-.325-2.087-.325-1.506 0-2.706.457-3.6 1.371-.893.914-1.34 2.165-1.34 3.753 0 1.693.47 3.057 1.41 4.091.941 1.035 2.1 1.552 3.477 1.552.732 0 1.512-.179 2.338-.536.047-.452.07-.88.07-1.284 0-.902-.053-1.4-.158-1.494-.106-.094-.733-.173-1.881-.237zm6.864 4.333v-.738c.809-.041 1.266-.109 1.371-.202.106-.094.17-.326.194-.695.04-.773.061-2.215.061-4.324 0-.809-.011-1.98-.035-3.516-.012-1.048-.035-1.624-.07-1.727a.383.383 0 0 0-.185-.224c-.129-.064-.574-.12-1.336-.167v-.738c1.207.047 2.13.07 2.769.07 1.101 0 2.098-.023 2.988-.07v.738c-.797.047-1.246.11-1.349.19-.103.078-.168.261-.198.548-.052.563-.079 1.703-.079 3.42 0 2.285.009 3.877.027 4.776.017.9.07 1.434.158 1.604.035.076.11.136.224.18.114.044.52.09 1.217.137v.738l-1.037-.026a49.786 49.786 0 0 0-1.758-.036l-2.962.062zm6.961 0v-.738c.715-.03 1.134-.077 1.257-.141a.43.43 0 0 0 .185-.228c.064-.141.105-.636.123-1.486a138.7 138.7 0 0 0 .052-3.181l-.017-3.718c0-.985-.032-1.553-.097-1.705a.364.364 0 0 0-.167-.194c-.117-.07-.562-.137-1.336-.202v-.738a69.4 69.4 0 0 0 2.057.044c.492 0 1.052-.015 1.679-.044a199.049 199.049 0 0 0 4.57 5.607 86.426 86.426 0 0 0 2.927 3.34v-3.48c0-1.319-.018-2.455-.053-3.41-.024-.569-.07-.917-.14-1.046a.303.303 0 0 0-.194-.15c-.094-.03-.504-.07-1.23-.123v-.738c.638.03 1.274.044 1.907.044.867 0 1.652-.015 2.355-.044v.738c-.656.041-1.052.088-1.186.14a.465.465 0 0 0-.185.124.51.51 0 0 0-.105.202c-.041.14-.065.592-.07 1.353l-.027 3.516-.018 3.542c0 .95.02 1.899.062 2.848l-.114.123a43.321 43.321 0 0 0-1.503-.255 263.814 263.814 0 0 1-5.458-6.293 82.211 82.211 0 0 1-2.61-3.226v3.42c0 .931.014 2.053.043 3.366.018.966.059 1.523.123 1.67a.273.273 0 0 0 .132.149c.111.064.533.123 1.266.176v.738a53.86 53.86 0 0 0-2.04-.062c-.34 0-1.069.02-2.188.062zm15.671-3.718h.774c.005.867.033 1.376.083 1.525.05.15.218.346.505.589.288.243.66.44 1.117.593.457.153.925.229 1.406.229.826 0 1.487-.22 1.982-.66.495-.439.743-.987.743-1.643 0-.604-.165-1.066-.493-1.389-.334-.322-.966-.55-1.898-.685-1.383-.2-2.316-.416-2.8-.65a2.647 2.647 0 0 1-1.142-1.055c-.278-.47-.417-1.032-.417-1.688 0-1.101.388-2.034 1.164-2.8.776-.764 2.017-1.146 3.722-1.146.668 0 1.261.05 1.78.15a7.33 7.33 0 0 1 1.56.491l.088.211c-.094.37-.16.704-.198 1.002-.038.3-.072.815-.1 1.547h-.766c-.029-.902-.073-1.409-.131-1.52-.112-.194-.394-.397-.849-.611-.454-.214-.974-.32-1.56-.32-.802 0-1.425.194-1.867.584-.443.39-.664.892-.664 1.507 0 .375.091.702.273.98a1.6 1.6 0 0 0 .76.615c.325.132 1.024.283 2.096.453.973.146 1.632.29 1.978.43.568.229.999.578 1.292 1.046.293.47.44 1.06.44 1.776 0 1.242-.476 2.275-1.425 3.098-.949.823-2.247 1.235-3.893 1.235-.733 0-1.398-.07-1.995-.211a8.41 8.41 0 0 1-1.855-.695c.106-.41.176-.782.211-1.116a21.44 21.44 0 0 0 .08-1.872z" font-size="12" font-weight="400" text-anchor="middle" font-family="Book Antiqua"/></svg>