<svg xmlns="http://www.w3.org/2000/svg" xmlns:xlink="http://www.w3.org/1999/xlink" version="1" width="900" height="600" viewBox="0 0 27 18" xmlns:cgf="https://coding.garden/flags"><metadata id="cgf-metadata">

<cgf:flag>
  <cgf:name></cgf:name>
  <cgf:route>cl/lr</cgf:route>
  <cgf:aspect-ratio>1.5</cgf:aspect-ratio>
</cgf:flag>

</metadata><defs><g id="c"><g id="b"><path d="M0 0v1h.5L0 0z" transform="rotate(18 3.157 -.5)" id="a"></path><use transform="scale(-1 1)" width="27" height="18" xlink:href="#a"></use></g><use transform="rotate(72)" width="27" height="18" xlink:href="#b"></use><use transform="rotate(144)" width="27" height="18" xlink:href="#b"></use><use transform="rotate(-144)" width="27" height="18" xlink:href="#b"></use><use transform="rotate(-72)" width="27" height="18" xlink:href="#b"></use></g></defs><path d="M0 0v18h27V0H0z" fill="#fff"></path><path d="M3.076 6c-.162 0-.317.016-.468.044-.15.028-.293.068-.435.116a5.199 5.199 0 0 0-.419.164c-.136.06-.27.122-.405.186s-.272.128-.408.188a5.3 5.3 0 0 1-.417.164 3.166 3.166 0 0 1-.436.115L0 6.99v1.28a2.975 2.975 0 0 0 .524-.13 5.15 5.15 0 0 0 .417-.163c.136-.06.273-.127.408-.191.135-.064.269-.127.405-.186.137-.06.277-.117.419-.164.142-.048.285-.088.435-.116a2.537 2.537 0 0 1 .934 0c.15.028.298.068.44.116.141.047.278.104.415.164.136.06.271.122.406.186s.27.13.407.19c.137.06.275.115.417.163.142.048.286.088.436.115a2.536 2.536 0 0 0 .936 0 3.03 3.03 0 0 0 .438-.115c.142-.048.279-.103.416-.162.08-.035.158-.075.237-.111l.02.032c.074-.037.15-.074.222-.112.122-.064.242-.127.366-.186a4.47 4.47 0 0 1 .385-.164h.002c.142-.048.285-.088.435-.116a2.56 2.56 0 0 1 .45-.044c.155.001.304.017.449.044.15.028.297.068.439.116.141.047.278.104.415.164.137.06.272.122.407.186.135.064.271.128.408.188.137.06.274.116.415.164.142.047.29.087.44.115.123.023.25.037.38.041l.087.003.036.002c.162 0 .316-.017.466-.045a3.19 3.19 0 0 0 .437-.115c.142-.048.279-.103.415-.162.137-.06.274-.127.409-.191.135-.064.27-.127.407-.186.136-.06.273-.117.415-.164a3.19 3.19 0 0 1 .437-.116 2.56 2.56 0 0 1 .45-.044c.155.001.304.017.449.044.15.028.297.068.438.116.142.047.279.104.416.164a15.538 15.538 0 0 1 .566.26c.068.038.137.08.207.117.048.025.097.042.147.066l.014-.018a3.341 3.341 0 0 0 .736.228 2.537 2.537 0 0 0 .933 0 3.19 3.19 0 0 0 .437-.115c.142-.048.28-.105.417-.164.137-.06.27-.124.405-.188s.272-.127.409-.186c.137-.06.273-.117.415-.164a3.19 3.19 0 0 1 .437-.116 2.537 2.537 0 0 1 .936 0c.15.028.294.068.436.116a5.2 5.2 0 0 1 .418.164c.137.06.272.122.407.186.135.064.27.128.407.188.137.06.275.116.417.164.142.047.287.087.437.115.076.014.153.025.232.032L27 7.01a2.601 2.601 0 0 1-.234-.033 3.19 3.19 0 0 1-.437-.115 5.164 5.164 0 0 1-.417-.164 14.99 14.99 0 0 1-.407-.188 12.41 12.41 0 0 0-.407-.186 5.199 5.199 0 0 0-.418-.164 3.166 3.166 0 0 0-.436-.116 2.536 2.536 0 0 0-.936 0 3.19 3.19 0 0 0-.437.116 5.126 5.126 0 0 0-.415.164c-.137.06-.274.122-.409.186-.135.064-.268.128-.405.188a5.01 5.01 0 0 1-.417.164 3.19 3.19 0 0 1-.437.115 2.324 2.324 0 0 1-.91 0 3.201 3.201 0 0 1-.427-.115c-.28-.096-.55-.225-.826-.352a15.007 15.007 0 0 0-.418-.186 5.371 5.371 0 0 0-.536-.198A2.397 2.397 0 0 0 16.9 6h-.037c-.162 0-.316.016-.466.044a3.19 3.19 0 0 0-.438.116 5.126 5.126 0 0 0-.415.164c-.137.06-.272.122-.407.186a15.05 15.05 0 0 1-.408.188c-.137.06-.274.116-.415.164a3.19 3.19 0 0 1-.438.115 2.592 2.592 0 0 1-.552.041 2.566 2.566 0 0 1-.346-.041 3.19 3.19 0 0 1-.437-.115 5.2 5.2 0 0 1-.419-.164c-.137-.06-.27-.124-.405-.188a15.548 15.548 0 0 0-.409-.186 5.125 5.125 0 0 0-.415-.164 3.213 3.213 0 0 0-.439-.116A2.537 2.537 0 0 0 9.988 6h-.035c-.162 0-.314.016-.458.044a2.704 2.704 0 0 0-.41.116h-.002a3.542 3.542 0 0 0-.1.038 5.74 5.74 0 0 0-.315.126c-.137.06-.272.122-.407.186-.135.064-.272.128-.408.188a5.13 5.13 0 0 1-.416.164 3.213 3.213 0 0 1-.439.115 2.341 2.341 0 0 1-.91 0 3.177 3.177 0 0 1-.425-.115c-.28-.096-.552-.225-.827-.352a14.905 14.905 0 0 0-.417-.186 5.41 5.41 0 0 0-.427-.164 3.355 3.355 0 0 0-.446-.116A2.592 2.592 0 0 0 3.076 6z" style="marker:none" fill="#fc0" fill-rule="evenodd" overflow="visible"></path><path d="M3.076 7.85c-.162 0-.317.017-.468.045a3.16 3.16 0 0 0-.435.115 5.199 5.199 0 0 0-.419.164c-.136.06-.27.123-.405.187-.135.063-.272.128-.408.187-.137.06-.276.117-.417.164a3.166 3.166 0 0 1-.436.116L0 8.84v1.279a2.98 2.98 0 0 0 .524-.13 5.15 5.15 0 0 0 .417-.163c.136-.06.273-.127.408-.19.135-.064.269-.127.405-.187.137-.06.277-.116.419-.164a3.16 3.16 0 0 1 .435-.115 2.537 2.537 0 0 1 .934 0c.15.028.298.067.44.115.141.048.278.105.415.164.136.06.271.123.406.186.135.064.27.131.407.191.137.06.275.115.417.163.142.048.286.087.436.115a2.536 2.536 0 0 0 .936 0c.15-.028.297-.067.438-.115.142-.048.279-.103.416-.163.08-.035.158-.074.237-.11l.02.032c.074-.038.15-.074.222-.113.122-.063.242-.126.366-.186a4.469 4.469 0 0 1 .385-.164h.002a3.16 3.16 0 0 1 .435-.115 2.56 2.56 0 0 1 .45-.044c.155 0 .304.017.449.044.15.028.297.067.439.115.141.048.278.105.415.164.137.06.272.123.407.186.135.064.271.128.408.188.137.06.274.116.415.164.142.048.29.088.44.116.123.022.25.036.38.04.029.002.059.004.087.004l.036.001c.162 0 .316-.016.466-.044a3.19 3.19 0 0 0 .437-.115c.142-.048.279-.103.415-.163.137-.06.274-.127.409-.19.135-.064.27-.127.407-.187.136-.06.273-.116.415-.164a3.19 3.19 0 0 1 .437-.115 2.56 2.56 0 0 1 .45-.044c.155 0 .304.017.449.044.15.028.297.067.438.115.142.048.279.105.416.164a15.537 15.537 0 0 1 .566.26c.068.039.137.08.207.117.048.026.097.043.147.067.004-.007.01-.012.014-.018.097.04.196.078.296.112.142.048.289.088.44.116a2.537 2.537 0 0 0 .933 0 3.19 3.19 0 0 0 .437-.116c.142-.048.28-.104.417-.164.137-.06.27-.124.405-.188.135-.063.272-.126.409-.186.137-.06.273-.116.415-.164a3.19 3.19 0 0 1 .437-.115 2.537 2.537 0 0 1 .936 0c.15.028.294.067.436.115a5.2 5.2 0 0 1 .418.164c.137.06.272.123.407.186.135.064.27.128.407.188.137.06.275.116.417.164.142.048.287.088.437.116.076.014.153.025.232.032L27 8.86a2.601 2.601 0 0 1-.234-.032 3.19 3.19 0 0 1-.437-.116 5.164 5.164 0 0 1-.417-.164c-.137-.06-.272-.124-.407-.187-.135-.064-.27-.127-.407-.187a5.199 5.199 0 0 0-.418-.164 3.166 3.166 0 0 0-.436-.115 2.536 2.536 0 0 0-.936 0 3.19 3.19 0 0 0-.437.115 5.126 5.126 0 0 0-.415.164c-.137.06-.274.123-.409.187-.135.063-.268.128-.405.187-.136.06-.275.117-.417.164a3.19 3.19 0 0 1-.437.116 2.324 2.324 0 0 1-.91 0 3.201 3.201 0 0 1-.427-.116c-.28-.095-.55-.224-.826-.351a15.007 15.007 0 0 0-.418-.187 5.371 5.371 0 0 0-.536-.198 2.397 2.397 0 0 0-.771-.126h-.037c-.162 0-.316.017-.466.045a3.19 3.19 0 0 0-.438.115 5.126 5.126 0 0 0-.415.164c-.137.06-.272.123-.407.187-.135.063-.271.128-.408.187-.137.06-.274.117-.415.164a3.19 3.19 0 0 1-.438.116 2.592 2.592 0 0 1-.552.041 2.566 2.566 0 0 1-.346-.041 3.19 3.19 0 0 1-.437-.116 5.2 5.2 0 0 1-.419-.164c-.137-.06-.27-.124-.405-.187a15.549 15.549 0 0 0-.409-.187 5.125 5.125 0 0 0-.415-.164 3.213 3.213 0 0 0-.439-.115 2.537 2.537 0 0 0-.466-.044h-.035c-.162 0-.314.016-.458.044a2.704 2.704 0 0 0-.41.115h-.002a3.542 3.542 0 0 0-.1.039 5.73 5.73 0 0 0-.315.125c-.137.06-.272.123-.407.187-.135.063-.272.128-.408.187-.137.06-.274.117-.416.164a3.213 3.213 0 0 1-.439.116 2.341 2.341 0 0 1-.91 0 3.177 3.177 0 0 1-.425-.116c-.28-.095-.552-.224-.827-.351a14.905 14.905 0 0 0-.417-.187 5.41 5.41 0 0 0-.427-.164 3.355 3.355 0 0 0-.446-.115 2.592 2.592 0 0 0-.47-.044z" style="marker:none" fill="#008f4c" fill-rule="evenodd" overflow="visible"></path><path d="M3.076 9.701c-.162 0-.317.017-.468.045-.15.027-.293.067-.435.115a5.198 5.198 0 0 0-.419.164c-.136.06-.27.123-.405.186-.135.064-.272.128-.408.188a5.3 5.3 0 0 1-.417.164 3.166 3.166 0 0 1-.436.115 1.34 1.34 0 0 1-.088.014v1.278a2.976 2.976 0 0 0 .524-.13 5.15 5.15 0 0 0 .417-.162c.136-.06.273-.127.408-.19.135-.065.269-.127.405-.187.137-.06.277-.116.419-.164.142-.048.285-.088.435-.116a2.537 2.537 0 0 1 .934 0c.15.028.298.068.44.116.141.048.278.104.415.164.136.06.271.122.406.186s.27.131.407.19a4.8 4.8 0 0 0 .417.163c.142.048.286.088.436.116a2.536 2.536 0 0 0 .936 0c.15-.028.297-.068.438-.116.142-.047.279-.103.416-.162.08-.035.158-.074.237-.111l.02.032c.074-.037.15-.074.222-.112.122-.064.242-.126.366-.186a4.47 4.47 0 0 1 .385-.164h.002c.142-.048.285-.088.435-.116a2.56 2.56 0 0 1 .45-.044c.155.001.304.018.449.044.15.028.297.068.439.116.141.048.278.104.415.164.137.06.272.122.407.186.135.064.271.128.408.188.137.06.274.116.415.164.142.048.29.087.44.115.123.023.25.037.38.042l.087.003.036.001c.162 0 .316-.016.466-.044a3.19 3.19 0 0 0 .437-.116c.142-.047.279-.103.415-.162.137-.06.274-.127.409-.19.135-.065.27-.127.407-.187.136-.06.273-.116.415-.164a3.19 3.19 0 0 1 .437-.116 2.56 2.56 0 0 1 .45-.044c.155.001.304.018.449.044.15.028.297.068.438.116.142.048.279.104.416.164a15.541 15.541 0 0 1 .566.26c.068.039.137.08.207.117.048.025.097.042.147.066l.014-.017c.097.04.196.078.296.112.142.048.289.087.44.115a2.537 2.537 0 0 0 .933 0 3.19 3.19 0 0 0 .437-.115c.142-.048.28-.104.417-.164.137-.06.27-.124.405-.188s.272-.126.409-.186c.137-.06.273-.116.415-.164a3.19 3.19 0 0 1 .437-.116 2.537 2.537 0 0 1 .936 0c.15.028.294.068.436.116.141.048.282.104.418.164.137.06.272.122.407.186.135.064.27.128.407.188.137.06.275.116.417.164a3.188 3.188 0 0 0 .669.148L27 10.71a2.601 2.601 0 0 1-.234-.033 3.19 3.19 0 0 1-.437-.115 5.164 5.164 0 0 1-.417-.164 14.99 14.99 0 0 1-.407-.188 15.45 15.45 0 0 0-.407-.186 5.199 5.199 0 0 0-.418-.164 3.166 3.166 0 0 0-.436-.115 2.536 2.536 0 0 0-.936 0 3.19 3.19 0 0 0-.437.115 5.125 5.125 0 0 0-.415.164c-.137.06-.274.123-.409.186-.135.064-.268.128-.405.188a5.01 5.01 0 0 1-.417.164 3.19 3.19 0 0 1-.437.115 2.324 2.324 0 0 1-.91 0 3.201 3.201 0 0 1-.427-.115c-.28-.096-.55-.224-.826-.352a15.009 15.009 0 0 0-.418-.186 5.371 5.371 0 0 0-.536-.198A2.397 2.397 0 0 0 16.9 9.7h-.037c-.162 0-.316.017-.466.045a3.19 3.19 0 0 0-.438.115 5.125 5.125 0 0 0-.415.164c-.137.06-.272.123-.407.186a15.05 15.05 0 0 1-.408.188c-.137.06-.274.116-.415.164a3.19 3.19 0 0 1-.438.115 2.592 2.592 0 0 1-.552.042 2.566 2.566 0 0 1-.346-.042 3.19 3.19 0 0 1-.437-.115 5.2 5.2 0 0 1-.419-.164c-.137-.06-.27-.124-.405-.188a15.55 15.55 0 0 0-.409-.186 5.125 5.125 0 0 0-.415-.164 3.213 3.213 0 0 0-.439-.115 2.537 2.537 0 0 0-.466-.045h-.035c-.162 0-.314.017-.458.045a2.704 2.704 0 0 0-.41.115h-.002a3.54 3.54 0 0 0-.1.038 5.74 5.74 0 0 0-.315.126c-.137.06-.272.123-.407.186-.135.064-.272.128-.408.188a5.13 5.13 0 0 1-.416.164 3.213 3.213 0 0 1-.439.115 2.341 2.341 0 0 1-.91 0 3.177 3.177 0 0 1-.425-.115c-.28-.096-.552-.224-.827-.352a14.907 14.907 0 0 0-.417-.186 5.41 5.41 0 0 0-.427-.164 3.355 3.355 0 0 0-.446-.115 2.592 2.592 0 0 0-.47-.045z" style="marker:none" fill="#0071bc" fill-rule="evenodd" overflow="visible"></path><path d="M18.45 9a4.95 4.95 0 1 1-9.9 0 4.95 4.95 0 1 1 9.9 0z" fill="#fff"></path><g transform="translate(13.5 9.062) scale(.65175)" fill="#fc0"><use transform="translate(0 -6)" width="27" height="18" xlink:href="#c"></use><g id="d"><use transform="rotate(72 -5.076 .534)" width="27" height="18" xlink:href="#c"></use><use transform="rotate(72 -4.663 -2.076)" width="27" height="18" xlink:href="#c"></use><use transform="translate(6)" width="27" height="18" xlink:href="#c"></use><use transform="rotate(144 -2.11 -2.344)" width="27" height="18" xlink:href="#c"></use><use transform="rotate(-144 -2.344 -2.11)" width="27" height="18" xlink:href="#c"></use></g><use transform="translate(0 6)" width="27" height="18" xlink:href="#c"></use><use transform="scale(-1 1)" width="27" height="18" xlink:href="#d"></use></g></svg>