<svg xmlns="http://www.w3.org/2000/svg" xmlns:xlink="http://www.w3.org/1999/xlink" width="900" height="600" xmlns:cgf="https://coding.garden/flags"><metadata id="cgf-metadata">

<cgf:flag>
  <cgf:name></cgf:name>
  <cgf:route>cl/ma</cgf:route>
  <cgf:aspect-ratio>1.5</cgf:aspect-ratio>
</cgf:flag>

</metadata><defs><g id="c" transform="rotate(46.848)"><g id="b"><path id="a" fill="#fff" d="M0 0v1h.5z" transform="rotate(18 3.157 -.5)"></path><use xlink:href="#a" transform="scale(-1 1)"></use></g><use xlink:href="#b" transform="rotate(72)"></use><use xlink:href="#b" transform="rotate(144)"></use><use xlink:href="#b" transform="rotate(216)"></use><use xlink:href="#b" transform="rotate(288)"></use></g></defs><path fill="#fff" d="M0 0h900v600H0z"></path><path fill="#00c" d="M0 0v460l75-80 75 80 75-80 75 80 75-80 75 80 75-80 75 80 75-80 75 80 75-80 75 80V0z"></path><path fill="#fdcb00" d="M0 600V490l75-80 75 80 75-80 75 80 75-80 75 80 75-80 75 80 75-80 75 80 75-80 75 80v110z"></path><use xlink:href="#c" transform="matrix(44 0 0 44 112 259)"></use><use xlink:href="#c" transform="matrix(44 0 0 44 204 88)"></use><use xlink:href="#c" transform="matrix(44 0 0 44 305 305)"></use><use xlink:href="#c" transform="matrix(22 0 0 22 350 130)"></use><use xlink:href="#c" transform="matrix(44 0 0 44 513 74)"></use></svg>