<svg xmlns="http://www.w3.org/2000/svg" xmlns:xlink="http://www.w3.org/1999/xlink" version="1" width="900" height="600"><defs><linearGradient x1="375.088" y1="711.929" x2="392.492" y2="735.666" id="b" xlink:href="#a" gradientUnits="userSpaceOnUse"/><linearGradient id="a"><stop offset="0" stop-color="#fc0"/><stop offset="1" stop-color="#ff5400"/></linearGradient><linearGradient x1="375.088" y1="711.929" x2="392.492" y2="735.666" id="c" xlink:href="#a" gradientUnits="userSpaceOnUse" gradientTransform="matrix(-1 0 0 1 521.985 0)"/></defs><path fill="#fff" d="M0 0h900v600H0z"/><path d="M447.734 118.497c-11.184.184-20.86 3.663-37.677 10.292-23.941 8.35-35.845 6.134-58.307-3.038L313.847 164.2l10.246 11.176c20.294 22.156 21.434 50.636 3.718 92.107-13.665 31.988-14.588 61.995-2.47 80.318 11.823 17.88 34.483 29.224 65.47 32.758 31.004 4.437 36.675 8.448 59.19 27.294 22.514-18.846 28.162-22.857 59.167-27.294 30.986-3.534 53.647-14.879 65.47-32.758 12.118-18.323 11.217-48.33-2.448-80.318-17.716-41.471-16.576-69.95 3.718-92.107l10.246-11.176-37.926-38.448c-22.461 9.172-34.343 11.387-58.284 3.038-17.94-7.071-27.76-10.565-39.944-10.292a58.366 58.366 0 0 0-2.266 0z" fill="#fff" stroke="#000" stroke-width="16.015"/><path d="M333.66 264.13h116.036v140.761c-46.933-37.201-154.314-13.074-116.036-140.76z" fill="#ed1c24" fill-rule="evenodd" stroke="#000" stroke-width=".66"/><path d="M568.295 264.13H449.696v140.761c46.933-37.201 170.01-15.635 118.599-140.76z" fill="#008f4c" fill-rule="evenodd"/><path d="M449.696 264.13h115.81c-29.365-47.122 27.37-78.9 15.086-96.652L547.16 119.16c-17.197 12.861-26.56 23.34-97.463-7.934V264.13z" fill="#eac102" fill-rule="evenodd" stroke="#000" stroke-width=".66"/><path d="M327.108 301.519h26.267l21.015-21.343 27.143 35.856h48.157m-122.582-2.276h26.267l18.971-17.36 25.684 31.873h51.66m-122.582-2.277h26.267l16.928-13.375 24.225 27.888h55.162m-122.582-2.276h26.267l14.885-9.391 22.766 23.904h58.664" fill="none" stroke="#fff" stroke-width="4.207"/><g stroke-miterlimit="10"><path d="M78 354.002h144.001l18-18V102h-162v252zm180.001 0h144.001V102h-162v234l18 18z" fill="none" stroke="#000" stroke-width="8" stroke-linejoin="round" transform="matrix(.19043 0 0 .21048 457.636 166.524)"/><path d="M96 330.002l-18 24h144.001l18-18-18-6h-126zm288.002 0h-126l-18 6 18 18h144l-18-24z" fill="#e9ddaf" fill-rule="evenodd" stroke="#202020" stroke-width="1.65" transform="matrix(.19043 0 0 .21048 457.636 166.524)"/><path d="M402.002 102l-18-24v252.002l18 24V102z" fill="#e9ddaf" fill-rule="evenodd" stroke="#202020" stroke-width="1.65" transform="matrix(.19043 0 0 .21048 457.636 166.524)"/><path d="M78 102v252.002l18-24V78l-18 24z" fill="#e9ddaf" fill-rule="evenodd" stroke="#000" stroke-width="1.65" transform="matrix(.19043 0 0 .21048 457.636 166.524)"/><path d="M96 330.002h126.001l18 6V84l-18-6h-126v252.002z" fill="#fff" fill-rule="evenodd" stroke="#202020" stroke-width="1.65" transform="matrix(.19043 0 0 .21048 457.636 166.524)"/><path d="M240.001 336.002l18-6h126V78h-126l-18 6v252.002z" fill="#fff" fill-rule="evenodd" stroke="#202020" stroke-width="1.65" transform="matrix(.19043 0 0 .21048 457.636 166.524)"/></g><g fill-rule="evenodd"><path d="M577.52 323.554l-127.824-.854v92.524c46.934-37.2 138.96-23.743 127.825-91.67z" fill="#fff"/><path d="M581.498 321.099c-5.896 5.313-8.486-5.603-14.653 0-5.896 5.313-8.486-5.603-14.652 0-5.896 5.313-8.486-5.603-14.653 0-5.896 5.313-8.485-5.603-14.652 0-5.896 5.313-8.486-5.603-14.652 0-5.896 5.313-8.486-5.603-14.653 0-5.896 5.313-8.485-5.603-14.652 0-5.896 5.313-8.486-5.603-14.652 0-5.896 5.313-8.486-5.603-14.583 0v4.885h127.756l4.046-4.885zm0 16.107c-5.896 5.313-8.486-5.603-14.653 0-5.896 5.313-8.486-5.603-14.652 0-5.896 5.313-8.486-5.603-14.653 0-5.896 5.313-8.485-5.603-14.652 0-5.896 5.313-8.486-5.603-14.652 0-5.896 5.313-8.486-5.603-14.653 0-5.896 5.313-8.485-5.603-14.652 0-5.896 5.313-8.486-5.603-14.652 0-5.896 5.313-8.486-5.603-14.583 0v4.885h127.756l4.046-4.885zm-14.653 16.107c-5.896 5.313-8.486-5.603-14.652 0-5.896 5.313-8.486-5.603-14.653 0-5.896 5.313-8.485-5.603-14.652 0-5.896 5.313-8.486-5.603-14.652 0-5.896 5.313-8.486-5.603-14.653 0-5.896 5.313-8.485-5.603-14.652 0-5.896 5.313-8.486-5.603-14.652 0-5.896 5.313-8.486-5.603-14.583 0v4.885h111.337l5.812-4.885zm-43.957 16.107c-5.896 5.313-8.486-5.603-14.652 0-5.896 5.313-8.486-5.603-14.653 0-5.896 5.313-8.485-5.603-14.652 0-5.896 5.313-8.486-5.603-14.652 0-5.896 5.313-8.486-5.603-14.583 0v4.885h62.032l11.16-4.885zm-43.957 16.107c-5.896 5.313-8.486-5.603-14.652 0-5.896 5.313-8.486-5.603-14.583 0v4.885h23.921l5.314-4.885z" fill="#00007d"/></g><g fill="#e3e4e5" stroke="#000" stroke-width="1.494" fill-rule="evenodd"><path d="M244.52 664.76c13.787-7.845 31.23 2.979 36.243 5.489 11.951 5.984 15.214 5.876 46.328 35.353l-5.677 1.005c6.27 1.658 11.62 5.178 16.868 8.909 13.737 11.274 23.31 20.53 32.265 30.429l-7.387 2.28 12.082 3.087c2.905 3.656 5.654 7.158 9.054 11.304-11.441-5.613-21.728-7.82-32.143-10.407l37.257 16.641c6.17 6.206 12.187 12.877 17.336 22.199l-18.027-2.26c5.401 1.576 12.543 4.15 20.059 8.862 5.239 5.82 9.83 14.45 13.201 24.803 2.161 6.625 6.562 17.306-12.656 11.604-11.559-3.762-23.92-10.419-35.322-21.722-2.859-4.16-4.245-11.306-6.164-17.37.405 4.338-.915 6.29 1.839 13.88-9.965-6.528-21.252-16.956-32.217-26.432l-7.115-14.045-.745 7.045c-19.271-18.663-36.525-35.961-54.708-59.524-2.802-6.199-4.016-6.78-4.737-10.14-.624 1.099-1.073 4.27-1.073 4.27-15.266-18.156-31.878-36.256-24.56-45.26zm29.2 22.376c13.876-.077 25.554 5.426 37.43 10.426m-28.933-3.192c9.519-1.263 19.698 3.14 29.737 6.335m-22.232-.473c7.016.153 14.11.685 21.657 3.427m-5.638 12.816c18.37 1.828 27.968 6.63 38.81 11.01m-32.875-4.746c3.822.455 7.874.206 11.223 2.105m34.856 44.668c6.978 1.165 13.895 2.27 23.44 5.975m12.155 29.641c4.052.302 8 .436 13.591 3.273m-41.871-32.042c3.822.455 7.874.206 11.223 2.105m-76.366-58.192c.47 3.022.542 8.692 2.57 15.301m3.881-9.313c.053 2.009.325 4.865 1.423 7.909" transform="matrix(-.02094 -.21988 .22011 -.02084 377.284 261.947)"/><path d="M187.363 612.247l12.429 21.437c75.43 58.558 146.019 132.018 217.292 195.712-87.02-97.389-151.657-155.056-229.72-217.15z" transform="matrix(-.02094 -.21988 .22011 -.02084 377.284 261.947)"/></g><path d="M380.776 180.217c.971 22.83 3.265 55.593 4.48 62.637 1.216 7.043.73 15.301.487 16.515 1.459.973 3.765.73 4.738 0-.73-13.359-3.977-19.471-5.224-35.703-.973-12.63-2.538-40.05-2.538-43.45 0-3.402-1.943 0-1.943 0zm16.509 79.019c.243-3.4-.242-8.258-.242-18.702 0-10.444 3.485-44.38 5.428-50.939 1.944-6.556 1.216.488 1.216.488-2.671 12.386-4.215 41.95-4.215 50.208 0 8.258 1.7 17.487 1.7 18.459-.73.729-3.157 1.457-3.887.486z" fill="#742e00" stroke="#000" stroke-width=".331"/><path d="M377.442 169.414c.098.074.192.156.283.248a2.075 2.075 0 0 0-.008-.534l-.275.286z" fill="#009036"/><path d="M403.648 193.263c-.687 1.232-.308 2.212.321 2.124.63-.087-1.562.733-1.667 2.297-.102 1.564-.148 1.983-.9 1.777-.754-.204-1.592-2.05-1.842-.983-.25 1.067.368 1.705-.418 1.194-.786-.51-1.594-.399-1.594-.399s-1.02-.993-.956.443c.064 1.436.015 3.509-1.006 3.34-1.023-.167-.58-1.983-1.728-.79-1.15 1.19-1.684-1.213-2.292-.096-.61 1.118-.84 4.041.407 3.765 1.249-.278.863 1.222-.136 1.257-1.001.036-1.513-2.164-1.929-2.624-.414-.458-.788-3.916.794-3.62 1.583.296 1.016-2.412 2.442-1.89 1.428.526 3.372-.88 3.105-1.668-.27-.79.98-1.892 1.43-1.954.45-.063 2.107 2.599 3.483.962 1.37-1.637.91-1.676.305-2.212-.605-.535.164-2.707.611-1.943.448.765 2.258-.21 1.57 1.02zm-16.566 24.05c-.323-.066-.673-.196-.958-.277-.94-.267.234.532-.468 2.128-.708 1.597-3.294 1.597-4.47-.266-1.176-1.861-1.41 1.863-2.82 0-1.413-1.861-2.823 0-3.057 1.597-.222 1.497-3.546 2.058-3.956.804.481 3.753-3.318 4.46-2.629 2.122-3.056 0-5.64-2.128-3.996-2.926 1.41-2.394-.47-2.66-1.645-2.394-1.123.253-1.176-3.37.46-3.238-2.824-.596 1.271-2.551 4.476-.22-.94-1.598-2.587-2.394-4.937-2.394-2.351 0-2.586-.533-.706-2.395-1.88-1.596 1.41-2.127 4.233-1.596-5.174-1.598-4.703-2.927-2.586-3.725 2.115-.797.469-1.064-1.41-1.862-2.589-1.064-2.353-2.926-.471-2.66-3.293-2.926.234-5.852 2.115-5.852-1.881-1.064 0-3.725 4.466-2.66 1.178-1.33-.704-1.33-3.527-2.395-2.82-1.064-.235-3.724.471-5.055 1.411.798 6.584 0 3.762-1.064-2.117-1.596-2.82-3.192-.235-2.66.32-1.09 2.144-1.464 4.19-1.496.03.508.239.926.73.904 1.527-.07-.4 2.362 1.598 2.903 1.997.54-.083 1.334.508 2.721.59 1.388 2.629-.079 3.968-1.218 1.34-1.139 1.133.856 1.133.856s.704.918.79 2.264c.086 1.347.247.115 1.46-.363 1.216-.478.052 1.919.408 3 .357 1.082.794.83 2.383-.193 1.585-1.025 3.995 1.081 3.445.367-.547-.713.119-1.905 1.813-1.96 1.697-.06-.58-1.58-.17-2.697.407-1.116-2.258-.465-2.328.677-.069 1.145.23 1.743-2.362 1.25-2.593-.492-1.245-4.503-1.636-5.012-.392-.51-2.377-1.241-2.943-.33-.564.915-4.403 1.832-4.947-.317-.423-1.676-1.218-1.796-1.963-2.798 1.843.123 3.555.429 4.224.643-2.117-1.329-3.766-2.66-.71-3.459-2.22.472-7.163-.17-7.94-.774l-1.446 1.71c-3.409 2.163-3.409-3.48-.75-4.796-.997-1.317.832-2.634 1.996-1.693 1.83-2.07-1.662-1.505-1.496-2.823.166-1.316 2.494-2.069 1.33-3.008-1.163-.94-.499-2.822 1.33-1.882 1.83.942 1.164-1.316.997-2.256-.165-.941 1.497-3.576 2.66-2.635-.83-1.316-2.493-4.325 1.498-2.068-1.163-2.446-.832-2.446-.334-3.386.5-.942 1.497.94 2.993.376 1.496-.565.665-2.634 1.496-3.197.833-.566 2.826-1.694 3.325 0 .916-2.069 2.387-2.242 2.884-1.1.908-.286 1.812.811 1.538 2.895 1.267-1.063 2.329 1.156 2.725 2.158.394 1-1.336 2.156-.396 3.59.94 1.434 1.866 1.663 1.799 2.757l.839-1.021c.138-.102 1.322-.175 1.548-.196-.761-2.204-.146-4.888 1.213-4.625l.056-2.856c-.704-3.325 1.175-5.454 1.998-3.591 1.025-.994 1.503-.08 1.973.977l-.263-4.787c.706-2.394 1.41 1.996 1.763.532.354-1.462 1.41-5.852 2.352-4.256.94 1.596.94 5.055 1.999 4.122 1.058-.93 1.292-4.255 2.937-2.66.822-1.86 2.706.267 2 3.593l.056 2.857c1.358-.265 2.978 2.425 2.215 4.629 1.528.132 1.058 2.526-.352 2.792 0 2.926 2.114-.266 2.82.799.705 1.064-.47 3.458.941 3.192 1.413-.266 2.116 1.596.235 2.394-1.882.799 0 1.863.706 2.396.705.53 1.175 3.723-.236 3.99 1.401.264 4.424 1.052.322 2.626l.064.086c1.967.68 1.99.974 2.14 1.78.26.005.483.034.6.168.352.399-.821 1.596-2.116 2.128-.106-.168-3.5-.309-3.669-.424-.134.15-.255.33-.354.552-.208.47-.19.87-.069 1.23.186.143.495.15.962-.028 1.058-.4 2.235.267 2 1.199.588.664 5.01 1.195 3.599 2.527 2.117-1.332 4.115-.667 4.115 1.064 1.647-.798 2.116 3.059 0 4.389 2.234-.532 3.173-.266 2.234 1.861 1.88-1.462 4.82-.132 2.94 1.864-1.51 1.6-2.566 1.06-2.923.58.424.92.734 1.154-1.075 2.479 1.293-.798 2.234-1.33 2.234-.399.94-1.331 1.764-1.73 2.115.132 2.94-.266.471 2.261-.704 2.527.569 2.447-1.507 3.025-2.601 3.42 1.953.484 2.31 1.69 1.543 2.433 1.174 1.597-5.525 4.39-7.173 2.66-1.058-.399-2.703.532-.586 1.331 2.116.798-1.764 1.595-.472 1.995 1.294.399 5.174 1.596 3.762 2.66-1.41 1.063-4.467 1.063-3.643 2.262.823 1.197 3.761 1.461 2.35 3.324 1.646.931-.235 3.06-3.174 2.262l-2.527.063c.236 1.539-2.14 3.37-4.092 2.508-.114 1.728-2.231 1.196-2.467-.4-2.585 0 .236 2.395-.705 3.192-.94.799-3.056-.53-2.82 1.065.234 1.595-1.412 2.393-2.117.266-.705-2.128-1.645 0-2.115.797-.471.798-3.293 1.33-3.527-.265-.236 1.596-.94 5.055-2.351.265-.707 2.661-.942 2.396-1.882 2.661-.94.266-.47-1.863-1.88-2.661-1.41-.797-2.116 1.33-3.057 1.064-.94-.266-3.057-1.064-2.351-2.66-2.116.8-3.292-.532-2.586-1.86-.706-1.065-.471-2.13 1.645-1.598-.481-.438-.527-1.279-.3-2.027z" fill="#009036" stroke="#000" stroke-width=".331"/><path d="M402.971 173.636c1.099.103 1.612-.525 1.308-.976-.303-.45 1.105.942 2.2.484 1.096-.458 1.398-.568 1.552.077.155.646-.767 1.92.052 1.745.818-.176 1.008-.867.97-.091-.039.775.352 1.355.352 1.355s-.274 1.121.67.577c.945-.544 2.364-1.22 2.649-.38.284.837-1.115 1.125.137 1.593 1.252.466-.163 1.702.829 1.783.99.08 3.054-.75 2.38-1.606-.672-.859.49-1.081.905-.33.414.752-.874 1.901-1.022 2.376-.147.475-2.337 1.951-2.754.64-.415-1.313-2.025.053-2.225-1.216-.2-1.27-1.907-2.273-2.336-1.796-.428.475-1.659-.098-1.876-.421-.217-.322.934-2.504-.705-2.99-1.64-.486-1.487-.121-1.614.526-.125.646-1.89.807-1.55.203.34-.606-1.02-1.653.078-1.553z" fill="#fff"/><path d="M333.66 264.13h116.036v140.761c-46.933-37.201-154.314-13.074-116.036-140.76z" fill="none" stroke="#000" stroke-width=".66"/><path d="M447.558 108.46c-13.167.217-24.255 4.32-41.178 10.99-11.242 3.92-18.46 5.344-25.604 4.744-7.145-.6-14.307-3.26-25.244-7.727l-5.625-2.282-.58-.26-.46.46-4.265 4.344-37.895 38.436-6.066 6.126-.64.64.62.681 5.825 6.366 10.25 11.19c8.776 9.581 12.971 19.467 13.493 32.41.52 12.924-3.11 29.067-11.611 48.967-14.488 33.914-16.61 67.088-1.602 89.783 13.997 21.166 39.867 33.45 72.708 37.195 30.361 4.345 31.435 6.243 53.87 25.023l5.826 4.865.62.52.621-.52 5.826-4.865c22.435-18.78 23.79-20.718 54.15-25.063 32.84-3.745 58.414-15.994 72.408-37.155 15.005-22.69 12.907-55.866-1.582-89.783-8.5-19.9-12.131-36.043-11.61-48.966.52-12.944 4.716-22.83 13.492-32.41l10.25-11.19 5.825-6.367.62-.68-.64-.641-6.066-6.146-37.915-38.456-4.264-4.304-.46-.46-.581.26-5.625 2.282c-21.87 8.93-28.703 10.704-51.188 2.863-17.873-7.045-29.058-11.1-43.08-10.87-.18-.004-.27.001-.38 0a74.46 74.46 0 0 0-2.243 0zm.04 1.922a72.067 72.067 0 0 1 2.182 0c.174.002.29-.003.4 0h.04c13.636-.224 24.507 3.713 42.36 10.75h.02l.02.02c22.694 7.914 30.623 6.05 52.55-2.903l5.024-2.062 3.803 3.864 37.936 38.435 5.405 5.506-5.205 5.685-10.25 11.19c-9.018 9.846-13.456 20.308-13.993 33.632-.537 13.344 3.18 29.723 11.751 49.786 14.338 33.563 16.244 66.083 1.762 87.982-13.587 20.546-38.562 32.61-71.046 36.314h-.04c-30.438 4.356-32.693 6.717-55.112 25.484L450 418.43l-5.204-4.364c-22.415-18.763-24.433-21.088-54.872-25.444h-.02c-32.484-3.705-57.742-15.813-71.326-36.354-14.485-21.903-12.555-54.422 1.781-87.982 8.571-20.063 12.289-36.442 11.751-49.786-.536-13.324-4.974-23.786-13.993-33.632l-10.25-11.19-5.204-5.685 5.405-5.465 37.915-38.456 3.804-3.884 5.025 2.062c10.959 4.475 18.294 7.237 25.804 7.867 7.51.63 15.078-.907 26.424-4.864h.04c16.907-6.664 27.732-10.66 40.518-10.87z"/><path d="M447.575 109.422c-12.977.214-23.936 4.26-40.85 10.926-22.589 7.878-29.655 5.95-51.552-2.992l-5.622-2.29-4.262 4.33-37.903 38.448-6.053 6.12 5.826 6.371 10.247 11.176c8.897 9.714 13.209 19.896 13.738 33.03.529 13.133-3.14 29.393-11.675 49.374-14.412 33.737-16.447 66.589-1.7 88.888 13.79 20.853 39.359 33.045 72.02 36.77 30.4 4.35 31.96 6.46 54.385 25.231l5.827 4.874 5.826-4.874c22.427-18.774 24.234-20.926 54.633-25.276 32.663-3.725 57.96-15.872 71.75-36.725 14.744-22.295 12.736-55.148-1.678-88.888-8.535-19.981-12.204-36.24-11.675-49.374.53-13.134 4.841-23.316 13.738-33.03l10.247-11.176 5.826-6.37-6.053-6.144-37.926-38.447-4.262-4.308-5.622 2.29c-21.898 8.942-29.279 10.757-51.868 2.88-17.863-7.042-28.904-11.04-42.732-10.814-.145-.004-.266.002-.409 0a74.16 74.16 0 0 0-2.221 0zm.317 18.135a49.383 49.383 0 0 1 1.904 0h.409c10.341-.231 18.57 2.627 36.407 9.658l.181.068.159.068c23.126 8.065 38.87 6.506 58.986-.998l27.703 28.065-4.42 4.829c-11.398 12.443-17.791 27.555-18.477 44.568-.685 17.014 3.923 35.729 13.103 57.219 12.917 30.237 12.71 57.42 3.22 71.772-9.857 14.904-29.61 25.402-58.919 28.745l-.136.022h-.136c-28.707 4.109-39.267 9.456-57.875 24.552-18.614-15.097-29.192-20.443-57.899-24.552h-.136l-.136-.022c-29.31-3.343-49.061-13.84-58.918-28.745-9.488-14.347-9.677-41.532 3.242-71.772 9.18-21.49 13.788-40.205 13.103-57.219-.686-17.013-7.08-32.125-18.476-44.568l-4.42-4.829 27.679-28.065c20.12 7.504 35.881 9.063 59.009.998l.159-.068.181-.068c16.721-6.591 25.113-9.503 34.503-9.658z" fill="#0071bc" stroke="#000" stroke-width=".66"/><path d="M522.117 477.322c-.873 7.791 56.585 9.57 59.838 3.71-6.205-3.507-8.561-5.652-10.29-8.578 7.567-4.78 8.327-9.393 9-15.57-6.196 7.654-48.915-2.43-50.708-6.93l-7.84 27.368z" fill="#eac102" fill-rule="evenodd" stroke="#000" stroke-width=".469"/><path d="M370.147 765.244c8.058-14.949 9.587-32.702 21.126-33.311 4.306-5.96-9.276-18.855-5.576-28.143-16.318 11.29-18.6 23.915-27.648 35.896l12.098 25.558z" fill="url(#b)" fill-rule="evenodd" stroke="#000" stroke-width=".732" transform="translate(282.81 -.662) scale(.6406)"/><path d="M377.884 477.322c.873 7.791-56.585 9.57-59.838 3.71 6.205-3.507 8.561-5.652 10.29-8.578-7.567-4.78-8.327-9.393-9-15.57 6.196 7.654 48.915-2.43 50.708-6.93l7.84 27.368z" fill="#eac102" fill-rule="evenodd" stroke="#000" stroke-width=".469"/><path d="M151.838 765.244c-8.058-14.949-9.588-32.702-21.126-33.311-4.306-5.96 9.276-18.855 5.576-28.143 16.317 11.29 18.6 23.915 27.647 35.896l-12.097 25.558z" fill="url(#c)" fill-rule="evenodd" stroke="#000" stroke-width=".732" transform="translate(282.81 -.662) scale(.6406)"/><path d="M449.995 459.868c27.204.093 49.844 4.673 69.776 31.47 3.803-9.938 7.295-20.707 13.873-23.283-30.43-29.363-51.232-35.547-83.649-35.653-32.413.107-53.2 6.291-83.628 35.653 6.578 2.576 10.07 13.345 13.873 23.282 19.931-26.795 42.553-31.376 69.755-31.47z" style="marker:none" color="#000" fill="#eac102" fill-rule="evenodd" stroke="#000" stroke-width=".423" overflow="visible"/><path d="M396.824 448.922l4.185-1.402 7.425 9.177.291-11.763 4.043-1.354.27.807-.34.114c-.412.138-.677.265-.796.383a.776.776 0 0 0-.215.478c-.024.202.031.502.165.9l2.925 8.732c.185.55.338.897.46 1.039.12.142.273.23.457.263.184.034.484-.02.902-.16l.341-.114.268.797-5.059 1.695-.267-.797.36-.12c.323-.109.55-.213.682-.314a.86.86 0 0 0 .286-.375.709.709 0 0 0 .044-.421 5.648 5.648 0 0 0-.156-.623l-3.266-9.747-.35 13.29-.94.316-8.267-10.214 3.145 9.386c.159.475.308.782.446.922a.91.91 0 0 0 .515.26c.205.034.532-.025.98-.175l.304-.102.268.797-4.67 1.565-.267-.797.266-.09c.449-.15.754-.305.915-.465a.9.9 0 0 0 .278-.541c.024-.202-.05-.559-.222-1.071l-2.897-8.646c-.16-.481-.302-.788-.424-.92a.722.722 0 0 0-.462-.23c-.187-.021-.486.036-.897.174l-.456.153-.27-.807zm32.875-7.757l1.645-.15 5.369 11.233c.265.566.515.933.748 1.103.233.17.532.238.898.205l.22-.02.075.838-4.954.449-.076-.838c.158-.028.314-.048.467-.062.319-.03.525-.081.619-.157.18-.143.263-.312.245-.504-.012-.14-.136-.474-.372-1.002l-1.16-2.608-5.045.456-.804 3.108c-.084.323-.121.544-.11.664a.595.595 0 0 0 .136.34.64.64 0 0 0 .304.198c.124.039.32.046.585.022.18-.016.326-.026.44-.03l.076.838-4.157.376-.076-.837c.385-.035.66-.098.822-.19.162-.092.3-.228.41-.41.11-.18.245-.552.401-1.116l3.294-11.906zm-1.04 7.933l4.296-.389-2.695-5.786-1.601 6.175zm17.816-8.81l5.393.161-.026.85-.36-.01c-.44-.013-.755.02-.944.102a.659.659 0 0 0-.34.33c-.079.158-.125.477-.14.957l-.188 6.283c-.034 1.12.076 1.955.33 2.504.254.548.69 1.015 1.31 1.4a4.05 4.05 0 0 0 2.06.613 4.252 4.252 0 0 0 2.178-.525c.692-.373 1.183-.826 1.473-1.358.29-.532.452-1.381.487-2.549l.181-6.043c.014-.44-.02-.758-.101-.954a.874.874 0 0 0-.382-.442c-.174-.099-.448-.154-.822-.165l-.39-.012.026-.85 4.672.14-.026.85-.32-.009c-.527-.016-.892.073-1.094.268-.203.194-.313.568-.33 1.121l-.192 6.433c-.036 1.174-.285 2.147-.749 2.917s-1.123 1.372-1.977 1.803c-.854.432-1.838.631-2.952.598-1.053-.032-2.01-.294-2.87-.787-.86-.494-1.484-1.095-1.874-1.804-.389-.71-.568-1.591-.536-2.645l.205-6.843c.014-.44-.017-.75-.092-.93a.779.779 0 0 0-.339-.395c-.15-.085-.416-.133-.796-.144l-.5-.015.025-.85zm24.877 1.516l5.318 1.02-.16.835-.492-.094c-.38-.073-.655-.089-.826-.047a.717.717 0 0 0-.405.249c-.098.124-.181.363-.25.716l-1.833 9.565c-.084.44-.118.705-.102.796a.42.42 0 0 0 .207.305c.084.057.346.127.785.211l.737.142c.846.162 1.603.18 2.273.053a4.597 4.597 0 0 0 1.817-.762c.542-.382 1.112-.998 1.71-1.848l.819.462-2.357 4.002-9.87-1.892.158-.826.433.083c.42.08.708.099.866.054a.745.745 0 0 0 .403-.295c.11-.152.205-.43.283-.837l1.788-9.33c.09-.47.115-.794.074-.968a.69.69 0 0 0-.249-.405c-.124-.095-.41-.185-.855-.27l-.432-.084.16-.835zm21.472 5.304l10.363 4.63-.301 3.889-.94-.058c.045-.638.018-1.167-.08-1.587a3.774 3.774 0 0 0-.497-1.181 3.243 3.243 0 0 0-.81-.888c-.305-.224-.899-.534-1.782-.929l-3.09-1.38-2.086 4.67 1.536.686c.566.253 1.037.349 1.412.286s.682-.213.92-.45c.18-.175.389-.528.625-1.058l.094-.21.896.4-2.499 5.593-.895-.4.216-.484c.19-.427.296-.749.316-.966a1.501 1.501 0 0 0-.113-.692 1.49 1.49 0 0 0-.4-.59c-.17-.15-.493-.33-.968-.542l-1.536-.686-1.853 4.149c-.194.432-.292.705-.294.817a.418.418 0 0 0 .104.293c.073.084.313.217.721.399l1.91.853c1.066.477 1.957.72 2.671.733a4.727 4.727 0 0 0 2.112-.47c.545-.254 1.15-.685 1.817-1.294l.701.664-3.21 3.357-10.756-4.806.343-.767.365.163c.427.19.704.282.832.273a.878.878 0 0 0 .537-.22c.116-.095.264-.346.447-.755l3.92-8.773c.176-.396.255-.679.236-.848-.02-.17-.11-.334-.273-.494-.084-.09-.437-.273-1.058-.55l.347-.777z"/></svg>