<svg xmlns="http://www.w3.org/2000/svg" width="900" height="600" version="1"><path fill="#585867" d="M0 0h900v600H0z"/><path d="M514.392 207.798l20.482-35.478c3.252 7.285 4.344 14.926-1.53 35.988l-18.952-.51zm-128.852 0l-20.482-35.478c-3.251 7.285-4.344 14.926 1.531 35.988l18.952-.51z" fill="#0035ad" fill-rule="evenodd" stroke="#fc0" stroke-width="2.333"/><path d="M524.387 190.487c71.12 41.062 95.516 132.108 54.454 203.228-41.061 71.12-132.107 95.516-203.228 54.455-71.12-41.061-95.516-132.108-54.454-203.228 13.687-23.707 30.748-40.768 54.454-54.455L450 319.33l74.387-128.842z" fill="#0035ad" stroke="#fc0" stroke-width="2.439"/><path d="M565.532 319.329c0 63.774-51.758 115.532-115.532 115.532-63.774 0-115.532-51.758-115.532-115.532 0-63.774 51.758-115.533 115.532-115.533 63.774 0 115.532 51.759 115.532 115.533z" fill="#fff" stroke="#fc0" stroke-width="2"/><g fill="#fc0" fill-rule="evenodd" stroke="#000"><path d="M217.288 91.627V37.234c-.112-2.075-2.349-2.255 1.496-3.968l62.19-34.014v63.97l-63.686 28.405z" transform="matrix(-.66663 .128 0 .66663 649.402 126.284)"/><path d="M217.288 93.627V39.234c-.112-2.075-.297-2.988 1.496-3.968l62.19-34.014v63.97l-63.686 28.405z" transform="matrix(-.66663 .128 0 .66663 649.402 126.284)"/><path d="M217.288 91.627V43.234c-.112-2.075-.297-2.988 1.496-3.968l62.482-34.695-.293 58.651-63.685 28.405z" transform="matrix(-.66663 .128 0 .66663 649.402 126.284)"/><path d="M271.5 13.473c-2.648.047-3.055 2.978-2.938 3.875v14.188l5.875-3.188v-11c.118-.897-.289-3.828-2.937-3.875zm-14.406 8.281c-2.648.048-3.055 3.01-2.938 3.907v13.656l5.875-3.156v-10.5c.118-.898-.289-3.86-2.937-3.907zm-14.406 8.282c-2.649.047-3.056 3.009-2.938 3.906v13.187l5.875-3.187v-10c.118-.897-.29-3.86-2.938-3.906zm-14.407 8.312c-2.648.047-3.055 2.978-2.937 3.875v12.719l5.875-3.188v-9.53c.117-.898-.29-3.829-2.938-3.876z" stroke-width="1.016" transform="matrix(-.66663 .128 0 .66663 649.402 126.284)"/><path d="M214.707 82.209V56.553c-.194-2.21-.088-2.893 1.747-3.953l66.52-35.996v32.618L214.706 82.21z" transform="matrix(-.66663 .128 0 .66663 649.402 126.284)"/><path d="M271.5 27.473c-2.648.047-3.055 2.978-2.938 3.875v14.188l5.875-3.188v-11c.118-.897-.289-3.828-2.937-3.875zm-14.406 8.281c-2.648.048-3.055 3.01-2.938 3.907v13.656l5.875-3.156v-10.5c.118-.898-.289-3.86-2.937-3.907zm-14.406 8.282c-2.649.047-3.056 3.009-2.938 3.906v13.187l5.875-3.187v-10c.118-.897-.29-3.86-2.938-3.906zm-14.407 8.312c-2.648.047-3.055 2.978-2.937 3.875v12.719l5.875-3.188v-9.53c.117-.898-.29-3.829-2.938-3.876z" stroke-width="1.016" transform="matrix(-.66663 .128 0 .66663 649.402 126.284)"/><path d="M280.969 42.594l-66.5 36c-1.836 1.06-1.945 1.76-1.75 3.969V102l68.25-36.938V42.594z" transform="matrix(-.66663 .128 0 .66663 649.402 126.284)"/><path d="M274.438 51.469l-5.875 3.187v12.875l5.875-3.187V51.469zM260.03 59.28l-5.875 3.188v12.843l5.875-3.156V59.281zm-14.406 7.813l-5.875 3.156v12.875l5.875-3.188V67.094zm-14.406 7.781l-5.875 3.188v12.874l5.875-3.187V74.875z" stroke-width="1.016" transform="matrix(-.66663 .128 0 .66663 649.402 126.284)"/></g><g fill="#fc0" fill-rule="evenodd" stroke="#000"><path d="M217.288 91.627V37.234c-.112-2.075-2.349-2.255 1.496-3.968l62.19-34.014v63.97l-63.686 28.405z" transform="matrix(.66663 .128 0 .66663 250.01 126.284)"/><path d="M217.288 93.627V39.234c-.112-2.075-.297-2.988 1.496-3.968l62.19-34.014v63.97l-63.686 28.405z" transform="matrix(.66663 .128 0 .66663 250.01 126.284)"/><path d="M217.288 91.627V43.234c-.112-2.075-.297-2.988 1.496-3.968l62.482-34.695-.293 58.651-63.685 28.405z" transform="matrix(.66663 .128 0 .66663 250.01 126.284)"/><path d="M271.5 13.473c-2.648.047-3.055 2.978-2.938 3.875v14.188l5.875-3.188v-11c.118-.897-.289-3.828-2.937-3.875zm-14.406 8.281c-2.648.048-3.055 3.01-2.938 3.907v13.656l5.875-3.156v-10.5c.118-.898-.289-3.86-2.937-3.907zm-14.406 8.282c-2.649.047-3.056 3.009-2.938 3.906v13.187l5.875-3.187v-10c.118-.897-.29-3.86-2.938-3.906zm-14.407 8.312c-2.648.047-3.055 2.978-2.937 3.875v12.719l5.875-3.188v-9.53c.117-.898-.29-3.829-2.938-3.876z" stroke-width="1.016" transform="matrix(.66663 .128 0 .66663 250.01 126.284)"/><path d="M214.707 82.209V56.553c-.194-2.21-.088-2.893 1.747-3.953l66.52-35.996v32.618L214.706 82.21z" transform="matrix(.66663 .128 0 .66663 250.01 126.284)"/><path d="M271.5 27.473c-2.648.047-3.055 2.978-2.938 3.875v14.188l5.875-3.188v-11c.118-.897-.289-3.828-2.937-3.875zm-14.406 8.281c-2.648.048-3.055 3.01-2.938 3.907v13.656l5.875-3.156v-10.5c.118-.898-.289-3.86-2.937-3.907zm-14.406 8.282c-2.649.047-3.056 3.009-2.938 3.906v13.187l5.875-3.187v-10c.118-.897-.29-3.86-2.938-3.906zm-14.407 8.312c-2.648.047-3.055 2.978-2.937 3.875v12.719l5.875-3.188v-9.53c.117-.898-.29-3.829-2.938-3.876z" stroke-width="1.016" transform="matrix(.66663 .128 0 .66663 250.01 126.284)"/><path d="M280.969 42.594l-66.5 36c-1.836 1.06-1.945 1.76-1.75 3.969V102l68.25-36.938V42.594z" transform="matrix(.66663 .128 0 .66663 250.01 126.284)"/><path d="M274.438 51.469l-5.875 3.187v12.875l5.875-3.187V51.469zM260.03 59.28l-5.875 3.188v12.843l5.875-3.156V59.281zm-14.406 7.813l-5.875 3.156v12.875l5.875-3.188V67.094zm-14.406 7.781l-5.875 3.188v12.874l5.875-3.187V74.875z" stroke-width="1.016" transform="matrix(.66663 .128 0 .66663 250.01 126.284)"/></g><path d="M440.627 246.01c.112-.02.226-.007.338-.01 2.148.115 1.023 2.87 2.325 3.874 1.762-.114 3.76-.051 5.423-.815 1.035-1.16 2.534-.863 3.885-.824 1.436-.552 2.094 1.109 1.966 2.265 1.209 1.001 2.39 2.208 3.348 3.496 1.755.966-.47 3.16.974 4.192 2.339.733 1.86 3.685 3.496 5.056 1.685 1.08 2.247-1.417 3.447-1.897-.047-1.52 1.013-2.813 1.748-4.112 1.133-2.055 4.578-1.202 4.59 1.162.364 1.165-1.096 2.28-.05 3.169.902 1.48 2.064 4.274 4.232 3.745 1.096-1.102 2.494-.657 3.675.03 1.227.318 1.587 1.562 2.504 2.175 2.038.605 1.387 2.97 2.125 4.49-.05.812.387 2.105 1.48 1.719.41-1.084 1.027-2.259 1.67-3.318-.51-1.226.203-2.775 1.52-3.259.871-.915 1.763-2.085 3.109-2.483 1.267-.292 2.57-.776 2.949-2.183.91-1.37 2.305-3.29 4.243-2.903.523 2.243 2.983 3.655 2.761 6.139-.432 1.012-1.169 2.931.368 3.417 1.466.46.611 2.071-.12 2.811.708 1.512.495 3.367.378 5.047-.324 1.511 1.225 1.957 2.245 2.493 2.026 1.07-.283 3.442.844 4.927 1.327.339 2.114 1.667 2.096 3.04-.038 1.832 2.456 1.27 3.249.298 1.357-1.945 3.418-3.2 5.086-4.878 1.158 1.582 3.316 2.268 5.175 1.7.806-.581 1.893-1.068 2.821-.378.776 1.02 2.301.698 2.98 1.847.423 1.308.653 2.716 1.778 3.676 1.578 2.283.77 6.572-2.384 6.834-.166.357.912 1.514.577 2.374-.511 1.031-1.558 1.869-1.332 3.179.412 1.844-1.194 3.095-1.291 4.818.48 1.623-.542 3.107-1.917 3.894-2.178 1.682-.852 4.649-1.093 6.963-.782 2.06-.606 4.255-.238 6.388.409 1.933-1.403 3.732-.189 5.563 1.644 2.166.457 5.078-1.252 6.814-1.43.984-.716 2.791-.238 4.093.78 1.644-.077 3.308-.308 4.957.391 1.312 2.069 2.057 2.543 3.466 1.443 1.058.69 3.125-.596 3.964-1.504.571-1.033 2.294-1.46 3.507-.792.823-1.387 2.607-.02 3.238 1.193-.283 2.727-.61 3.795.358 1.17.674.83 2.085 1.5 3.03 1.84 2.251-2.694 3.759-1.351 6.079 1.976.452 1.454 3.594-.338 3.814-.989.858-1.666 2.284-1.63 3.606.968 3.043 4.923 4.078 5.554 7.361.997 2.591-.967 5.505-3.656 5.841-1.613.01-2.889 1.158-4.49 1.073-1.213-.373-.956 1.171-1.897 1.44-2.426.572-3.365-2.492-4.977-3.626-1.715-.597-3.482.993-4.679 2.116-.8.472-1.332 2.838-2.185 1.262-1.73-1.598-1.073-4.057-1.55-6.1-.59-1.034-.848-2.927-2.404-2.85-1.13.765-2.545.24-3.258-.855-.83-.403-2.152-.352-2.642-1.42-.265-1.233-1.289-2.116-1.46-3.407-.323-1.426 1.167-1.933 1.708-2.94-1.304-.136-2.342-1.76-1.758-3.1a6.73 6.73 0 0 1-.904-4.103c.201-2.092-2.663-2.392-4.173-2.116-1.124-.217-2.228.382-2.374 1.63.008 1.385-1.429 2.987-2.83 1.996-.598-1.22-1.977.187-2.882-.606-1.074.195-2.934.085-2.88-1.43.705-1.28-1.225-.838-1.997-1.202 1.132-.606 2.704-.596 3.546-1.65.206-1.178.1-2.716-.526-3.784-1.415.05-2.016-1.407-1.719-2.692-1.566-.42-1.833-2.37-3.08-3.238.866-.88 1.264-2.212.855-3.398.123-1.187-1.143-1.977-2.202-1.411-1.217-.445-1.752-2.831-3.47-3.029-1.248.871-2.9 1.15-4.46 1.053-1.022-.274-1.647.385-1.689 1.351-.346 1.648-2.252 1.626-3.437.944-1.54-.776-1.983 1.665-3.506 1.47-.907-.284-1.892-.392-2.603.427-1.645.849-2.31 2.554-3.417 3.854-1.853 1.105-3.209-1.124-3.825-2.543-.874-1.314-2.078.076-2.94.646-1.225.527-2.088 1.367-2.88 2.394-1.508 1.38-2.718-1.523-4.223-.517-.058.87-.607 1.671-1.56 1.828-1.145.921.691 1.756 1.342 2.305 1.54 1.39.396 3.415.03 5.026.773 1.632-.776 1.288-1.948 1.21-1.981-.28-5.128.098-5.403 2.585.674 1.521-.757 2.754-2.235 2.503-2.574.845-2.325 4.68-.656 6.268.516.686 3.116 1.634 1.19 1.56-2.186-.378-3.465 1.725-5.193 2.464-1.927.482-3.806-.512-5.603-.755-1.44.628-2.781 2.742-4.56 1.668-1.189-1.62-3.282-1.818-5.185-1.788-2.457.162-4.582-1.134-6.198-2.859-1.856-.9-1.397-3.346-2.92-4.462-1.576-.147-2.333-1.718-2.276-3.179.28-1.945-2.272-1.697-2.97-3.089-.527 1.435-2.446 1.549-3.665 2.166-.876 1.639-3.292.277-4.401 1.738-1.728-.204-2.268-2.064-2.315-3.536-.84-.377-1.88-.85-2.572-1.61-1.839-.718-3.923-1.287-5.93-1.37-1.15.37-2.556.552-3.468-.487-.624-.172-1.1-2.283-1.708-1.371.126 1.649-1.607 4.057-3.368 2.742-.57-1.343-2.298-.558-3.208-1.52-.876-.497-3.151-.107-2.583-1.55.697-.938-.983-1.45-1.669-1.043-1.934.116-1.23-2.688-3.05-2.88 3.829-2.401 7.411-5.227 11.03-7.958.72-.031 1.723.854 2.709.398.183-3.075.11-6.191.198-9.248-.448-1.452.993-3.147 2.474-2.275.307 1.367 2.034.64 2.87.258 1.08 1.423 2.952 1.596 4.61 1.689 1.403.385 2.83.376 4.222-.209 1.65.491 3.167-1.103 3.099-2.702.42-2.036-2.426-1.807-2.93-3.447-.893-1.085-3.206-2.105-2.385-3.953-1.844-.358-1.443-3.194.13-3.914 1.001-1.06.762.899 1.718.616-.126-1.567 1.825-2.708 1.371-4.381.897.085 1.878.079 2.662-.397 2.94-1.637 2.274-5.49 1.878-8.245-.51-.927-2.221-1.727-1.381-3.05-.207-.934-.935-1.802-.278-2.801.92-2.06 1.408-4.353.526-6.507-.448-1.55 1.309-2.557 2.623-1.917 2.386 1.002 3.68-1.726 5.245-2.95 1.027.702 1.557-1.084 2.622-.964 1.003-.682.314-2.458 1.232-3.348-.185-1.015.617-1.888.944-2.84-1.052-1.835-1.915-3.914-2.256-6.078-1.071-1.924.883-3.564 2.603-3.866 1.924-.051 4.022-.103 5.92.487 1.12-.32 1.758-2.057 3.2-1.63.633.718 1.91 1.521 2.89.706.363-.924 1.208-2.043 2.364-1.64.942.847.822-.72 1.59-1.052 1.453.026 2.719-1.383 2.284-2.861-1.725-2.506-3.051-5.655-2.324-8.732-1.094-1.126-.575-2.995.556-3.963 1.16-2.5-1.707-4.624-1.649-7.123-.314-1.963 1.994-2.58 3.507-2.195 1.688.579 3.104-1.636 4.748-.497 1.668-.42 1.443-2.793 2.424-3.993 1.737.805 3.321-.565 4.987-.855 2.14.344 4.345-.712 6.467-.06.971 1.259 2.334-.387 3.456-.555z" fill="#fc0" fill-rule="evenodd"/><g font-size="12" font-weight="400" stroke="#fc0" stroke-width="1.95" font-family="Bitstream Vera Sans"><path d="M449.391 298.115h18.096l3.624 13.368h.393l3.624-13.368h20.156l4.75 42.428h-14.912l-2.081-23.24h-.282l-4.919 15.44h-12.344l-3.288-10.15-12.817-24.478z" fill="#dc241f"/><path d="M429.484 298.115h18.626c2.4 0 4.67.262 6.809.787 2.138.525 4.014 1.378 5.627 2.56 1.613 1.182 2.888 2.711 3.826 4.587.938 1.876 1.406 4.145 1.406 6.808 0 1.613-.159 3.001-.478 4.165-.319 1.163-.816 2.176-1.491 3.038-.676.863-1.53 1.594-2.56 2.195-.671.39-1.425.757-2.262 1.1l10.392 17.188h-17.782l-6.752-13.618h-.282l-15.079-28.81z" fill="#fff"/><path d="M446.501 315.558a377.53 377.53 0 0 1-.14 4.98 26.84 26.84 0 0 1-.563 4.643 18.527 18.527 0 0 1-1.52 4.361c-.694 1.407-1.66 2.785-2.898 4.135a20.38 20.38 0 0 1-3.798 3.265 25.353 25.353 0 0 1-9.257 3.798c-1.65.318-3.3.478-4.952.478-3.226 0-6.265-.488-9.116-1.463-2.85-.976-5.336-2.392-7.456-4.249-2.12-1.857-3.789-4.117-5.008-6.78-1.218-2.664-1.828-5.703-1.828-9.117 0-3.45.6-6.545 1.801-9.283 1.2-2.738 2.85-5.064 4.952-6.978 2.1-1.914 4.586-3.377 7.455-4.39 2.87-1.012 5.974-1.518 9.314-1.518 1.837 0 3.797.225 5.879.675a28.051 28.051 0 0 1 6.049 2.053c1.95.92 3.714 2.064 5.29 3.433 1.576 1.37 2.776 2.954 3.602 4.755l-14.406 5.29c-.6-1.088-1.416-1.904-2.447-2.449-1.032-.544-2.167-.816-3.406-.816-1.387 0-2.606.272-3.657.816a8.202 8.202 0 0 0-2.673 2.195 9.728 9.728 0 0 0-1.66 3.151 12.117 12.117 0 0 0-.562 3.686c0 1.164.178 2.289.534 3.376a9.147 9.147 0 0 0 1.548 2.898 7.55 7.55 0 0 0 2.503 2.026c.994.506 2.11.759 3.349.759.6 0 1.228-.075 1.885-.225a7.845 7.845 0 0 0 1.857-.675 5.839 5.839 0 0 0 1.547-1.153c.45-.469.769-1.022.957-1.66h-6.978v-10.017h23.803z" fill="#0035ad"/></g><path d="M428.807 413.992l2.09 1.278c-.659 1.179-1.468 1.975-2.428 2.39-.96.414-2.061.468-3.304.162-1.539-.38-2.673-1.216-3.405-2.511-.731-1.295-.872-2.854-.423-4.676.475-1.928 1.342-3.303 2.6-4.124 1.258-.822 2.699-1.032 4.321-.633 1.417.35 2.465 1.052 3.143 2.107.405.625.625 1.434.66 2.426l-2.451-.018c.01-.634-.158-1.178-.507-1.633-.35-.455-.834-.759-1.456-.912-.859-.211-1.631-.075-2.318.41-.686.484-1.2 1.417-1.54 2.797-.36 1.464-.354 2.572.02 3.323.373.752.982 1.231 1.824 1.439a2.413 2.413 0 0 0 1.75-.198c.545-.284 1.02-.827 1.424-1.627zm7.852 5.883l.988-11.888 2.4.199-.388 4.68 4.703.39.389-4.68 2.4.2-.987 11.889-2.4-.2.431-5.198-4.703-.39-.432 5.198-2.4-.2zm16.558.71l-.507-11.92 2.407-.102.507 11.92-2.407.102zm9.362-.655l-1.864-11.685 2.378-.38 1.548 9.7 5.914-.944.317 1.985-8.293 1.324zm14.477-2.797l-3.542-11.391 8.446-2.627.6 1.927-6.147 1.911.785 2.526 5.72-1.779.596 1.92-5.719 1.778.965 3.1 6.364-1.979.597 1.92-8.665 2.694z" style="text-align:start;line-height:125%" font-size="25" font-weight="700" fill="#fc0" font-family="Arial"/><path d="M326.816 269.724l2.68 1.093-2.314 5.675-6.337-2.585c-.44-.846-.688-1.892-.745-3.138-.056-1.247.13-2.398.561-3.454.525-1.288 1.305-2.294 2.34-3.02 1.033-.726 2.299-1.119 3.796-1.179 1.496-.06 3.098.258 4.806.954 1.75.714 3.129 1.616 4.135 2.706 1.007 1.09 1.628 2.224 1.864 3.405.236 1.18.09 2.418-.438 3.712-.635 1.556-1.539 2.64-2.713 3.254-1.174.613-2.583.741-4.225.384l.465-2.848c.897.138 1.669.035 2.315-.308.647-.344 1.117-.878 1.412-1.601.458-1.121.392-2.207-.196-3.257-.589-1.05-1.776-1.94-3.563-2.668-1.917-.782-3.528-1-4.833-.655-1.123.293-1.91.989-2.358 2.088-.21.514-.306 1.097-.289 1.75a5.4 5.4 0 0 0 .389 1.885l2.018.823 1.23-3.016zm-2.191 12.431c1.994.463 3.567 1.14 4.72 2.029 1.153.889 1.934 1.882 2.345 2.98.41 1.098.459 2.324.144 3.679-.456 1.963-1.577 3.389-3.363 4.277-1.786.889-4.064 1.011-6.834.368-2.8-.65-4.836-1.813-6.108-3.487-1.125-1.473-1.46-3.195-1.002-5.166.462-1.986 1.514-3.393 3.159-4.222 1.879-.943 4.192-1.096 6.939-.458zm-.549 2.88c-1.925-.447-3.454-.417-4.586.09-1.132.507-1.824 1.3-2.075 2.381-.252 1.088.016 2.101.805 3.038.788.937 2.172 1.635 4.15 2.095 1.941.45 3.456.436 4.546-.045 1.09-.48 1.766-1.284 2.028-2.41.261-1.127.006-2.152-.765-3.077-.772-.925-2.14-1.616-4.103-2.072zm5.17 17.722l-.515 5.613c-.14 1.533-.38 2.597-.716 3.194-.338.597-.88 1.077-1.627 1.44-.747.362-1.568.503-2.463.42-.824-.075-1.552-.326-2.184-.753-.632-.426-1.08-.946-1.346-1.559a3.805 3.805 0 0 1-1.696 1.816c-.759.405-1.652.56-2.679.466-1.244-.115-2.269-.51-3.074-1.188-.804-.678-1.27-1.435-1.398-2.27-.087-.581-.037-1.906.153-3.976l.438-4.772 17.107 1.57zm-3.106 2.563l-3.956-.363-.171 1.867c-.103 1.12-.147 1.815-.133 2.083.034.49.204.885.51 1.188.305.302.742.48 1.31.532.505.046.926-.027 1.261-.22.336-.193.557-.443.663-.75.107-.309.229-1.21.366-2.703l.15-1.634zm-6.803-.624l-4.575-.42-.24 2.626c-.106 1.151-.114 1.896-.023 2.233.09.338.303.634.636.888.334.255.773.407 1.318.457.56.051 1.032-.025 1.415-.23.384-.203.661-.496.834-.876.172-.38.314-1.177.425-2.39l.21-2.288zm-8.314 16.054l17.176-.3.05 2.836-17.177.3-.05-2.836zm.435 11.057l17.047-2.13 1.296 10.372-2.884.36-.944-7.558-3.78.473.878 7.023-2.872.359-.877-7.023-4.64.58.977 7.813-2.873.36-1.328-10.629zm2.846 18.391l16.588-4.467 1.557 5.782c.398 1.479.534 2.575.407 3.289-.128.714-.504 1.373-1.13 1.979-.626.605-1.452 1.046-2.478 1.322-1.297.35-2.426.32-3.385-.09-.96-.408-1.696-1.159-2.208-2.25a7.106 7.106 0 0 1-.993 1.832c-.399.52-1.157 1.287-2.276 2.3l-2.79 2.523-.881-3.27 3.073-2.963c1.112-1.068 1.797-1.775 2.056-2.12.26-.344.413-.677.46-.997.047-.32-.014-.797-.185-1.43l-.152-.566-6.925 1.864-.738-2.738zm10.31.16l.549 2.037c.335 1.245.603 2.022.804 2.332.2.31.495.526.884.648s.859.109 1.41-.04c.527-.142.923-.362 1.187-.66.264-.297.407-.643.43-1.038.014-.278-.144-1.033-.476-2.262l-.578-2.15-4.21 1.134zm-4.608 18.707l15.788-6.77 1.09 2.54-8.27 9.821 10.543-4.521 1.043 2.434-15.788 6.77-1.127-2.628 8.06-9.627-10.295 4.415-1.044-2.434zm15.202 12.916c1.744-1.07 3.34-1.694 4.784-1.87 1.446-.177 2.7-.018 3.763.475 1.064.493 1.959 1.332 2.686 2.518 1.054 1.718 1.257 3.52.61 5.407-.649 1.887-2.184 3.574-4.608 5.06-2.45 1.504-4.716 2.106-6.797 1.806-1.836-.257-3.283-1.249-4.34-2.973-1.067-1.738-1.306-3.48-.718-5.225.676-1.99 2.216-3.723 4.62-5.198zm1.632 2.435c-1.685 1.034-2.753 2.129-3.203 3.285-.45 1.156-.385 2.207.195 3.152.585.952 1.486 1.485 2.706 1.598 1.22.114 2.695-.36 4.427-1.423 1.698-1.042 2.766-2.117 3.204-3.224.439-1.108.356-2.155-.249-3.14-.604-.986-1.506-1.537-2.705-1.653-1.199-.117-2.658.351-4.375 1.405zm9.882 28.32l12.293-11.999 4.183 4.285c1.07 1.096 1.723 1.986 1.96 2.672.238.685.231 1.444-.019 2.278-.25.834-.756 1.622-1.516 2.364-.962.939-1.961 1.464-2.998 1.576-1.037.111-2.046-.184-3.027-.887.113.742.123 1.437.03 2.085-.094.648-.382 1.687-.863 3.118l-1.204 3.565-2.365-2.424 1.234-4.087c.45-1.475.703-2.426.76-2.853.058-.428.03-.793-.086-1.095-.115-.303-.402-.689-.86-1.158l-.41-.42-5.132 5.01-1.98-2.03zm9.075-4.895l1.473 1.51c.9.922 1.514 1.47 1.84 1.642.327.172.69.217 1.089.133.398-.083.802-.324 1.21-.723.391-.382.63-.767.714-1.155.085-.389.041-.76-.131-1.116-.124-.25-.631-.831-1.52-1.742l-1.556-1.594-3.12 3.045zm5.103 18.55l10.537-13.569 8.256 6.411-1.783 2.296-6.016-4.672-2.335 3.008 5.59 4.34-1.776 2.287-5.59-4.341-2.868 3.692 6.22 4.83-1.775 2.286-8.46-6.569zm23.83 8.761l1.433-2.514 5.324 3.035-3.39 5.945c-.895.326-1.965.435-3.208.329-1.244-.106-2.36-.442-3.351-1.007-1.208-.689-2.105-1.593-2.69-2.713-.584-1.12-.808-2.426-.672-3.918.135-1.492.66-3.038 1.573-4.64.936-1.642 2.01-2.892 3.222-3.747 1.212-.856 2.418-1.324 3.62-1.404 1.2-.08 2.408.227 3.623.92 1.46.832 2.416 1.87 2.871 3.114.456 1.244.399 2.657-.17 4.239l-2.763-.833c.254-.871.253-1.65-.004-2.336-.256-.685-.724-1.222-1.402-1.609-1.052-.6-2.137-.676-3.255-.23-1.118.447-2.154 1.508-3.11 3.184-1.025 1.799-1.452 3.367-1.28 4.706.143 1.152.73 2.022 1.762 2.61.482.275 1.048.447 1.696.515a5.4 5.4 0 0 0 1.921-.139l1.08-1.893-2.83-1.614zm9.53 11.837l6.737-15.802 2.609 1.112-6.738 15.802-2.609-1.112zm12.118-4.14c.58-1.963 1.35-3.493 2.306-4.59.957-1.098 1.996-1.82 3.116-2.164 1.12-.344 2.347-.319 3.68.076 1.933.573 3.29 1.777 4.07 3.613.78 1.836.766 4.118-.042 6.844-.816 2.757-2.098 4.72-3.846 5.888-1.537 1.036-3.275 1.266-5.215.692-1.955-.58-3.298-1.714-4.027-3.405-.83-1.932-.843-4.25-.042-6.954zm2.842.72c-.561 1.895-.623 3.422-.184 4.583.438 1.16 1.189 1.898 2.253 2.213 1.07.318 2.098.11 3.08-.621.983-.732 1.762-2.071 2.34-4.019.565-1.91.64-3.423.226-4.54-.415-1.117-1.177-1.84-2.285-2.168-1.109-.328-2.148-.135-3.117.58-.97.715-1.74 2.039-2.313 3.971zm15.45 12.86l2.446-17.003 2.737.394 4.074 12.176 1.633-11.356 2.621.377-2.445 17.004-2.83-.407-4.02-11.896-1.594 11.089-2.621-.377zm32.23 2.255l-3.095-.008-1.22-3.905-5.624-.015-1.17 3.899-3.024-.008 5.53-17.164 3.01.008 5.592 17.193zm-5.221-6.81l-1.917-6.38-1.927 6.37 3.844.01zm12.273 6.187l-2.239-16.89 2.812-.373 1.858 14.021 7.016-.93.38 2.87-9.827 1.302zm27.802-5.597l-5.952-16.115 3.99-1.473 6.457 10.107-1.686-11.87 4.001-1.477 5.952 16.114-2.473.914-4.686-12.685 2.059 13.655-2.573.95-7.29-11.723 4.685 12.686-2.484.917zm20.308-8.28l-8.226-15.08 9.176-5.006 1.392 2.551-6.687 3.648 1.824 3.343 6.213-3.39 1.386 2.542-6.213 3.389 2.239 4.105 6.913-3.771 1.386 2.54-9.403 5.13zm18.61-11.27l-8.393-11.546-3.384 2.46-1.708-2.35 9.052-6.58 1.708 2.35-3.374 2.453 8.392 11.545-2.294 1.667zm11.331-8.837l-11.852-12.435 4.334-4.131c1.109-1.057 2.007-1.7 2.695-1.93.688-.228 1.447-.213 2.278.047.83.26 1.613.775 2.346 1.544.927.973 1.44 1.979 1.54 3.017.099 1.038-.208 2.044-.922 3.016a7.106 7.106 0 0 1 2.084-.004c.647.1 1.683.4 3.107.899l3.551 1.246-2.451 2.336-4.072-1.283c-1.47-.466-2.418-.73-2.845-.793-.427-.063-.792-.039-1.096.073-.303.111-.693.393-1.168.846l-.424.404 4.948 5.192-2.053 1.956zm-4.787-9.133l1.527-1.455c.933-.89 1.488-1.496 1.664-1.82.176-.325.225-.687.146-1.087-.078-.4-.315-.806-.708-1.219-.377-.396-.76-.638-1.147-.728-.388-.09-.76-.05-1.118.119-.251.12-.838.62-1.76 1.499l-1.611 1.536 3.007 3.155zm11.61-9.633c-1.611-1.262-2.751-2.54-3.42-3.833-.67-1.293-.959-2.524-.867-3.692.091-1.169.566-2.3 1.423-3.395 1.243-1.587 2.861-2.406 4.856-2.457 1.994-.05 4.11.801 6.35 2.554 2.263 1.773 3.617 3.687 4.062 5.741.398 1.81-.027 3.512-1.274 5.105-1.257 1.606-2.806 2.437-4.647 2.494-2.101.06-4.262-.778-6.483-2.517zm1.714-2.379c1.556 1.219 2.955 1.837 4.195 1.856 1.24.019 2.203-.408 2.887-1.282.688-.88.873-1.91.554-3.093-.319-1.183-1.278-2.4-2.877-3.652-1.569-1.229-2.948-1.855-4.14-1.88-1.19-.025-2.143.418-2.855 1.328-.713.91-.915 1.948-.607 3.112.309 1.165 1.256 2.368 2.843 3.611zm17.608-9.62l-14.888-8.57 2.28-3.96c.85-1.476 1.476-2.4 1.879-2.772.647-.592 1.482-.907 2.504-.945 1.023-.038 2.126.284 3.311.966 1.077.62 1.862 1.342 2.356 2.167.494.826.713 1.628.657 2.406-.057.78-.513 1.914-1.37 3.403l-.93 1.615 5.616 3.233-1.415 2.457zm-10.955-9.578l4.225 2.432.783-1.36c.526-.915.82-1.573.88-1.975.06-.403-.017-.805-.23-1.208-.215-.403-.566-.745-1.054-1.025-.494-.285-.973-.416-1.436-.394-.463.022-.844.158-1.142.41-.298.252-.744.893-1.336 1.922l-.69 1.198zm11.7-9.425c-1.901-.758-3.354-1.664-4.36-2.717-1.006-1.053-1.629-2.153-1.87-3.3-.24-1.147-.102-2.367.413-3.658.746-1.872 2.07-3.113 3.97-3.722 1.9-.609 4.17-.387 6.81.667 2.671 1.065 4.509 2.521 5.513 4.368.89 1.626.961 3.378.212 5.257-.756 1.894-2.009 3.127-3.759 3.699-2 .649-4.31.45-6.929-.594zm.977-2.764c1.835.732 3.351.933 4.547.602 1.196-.33 1.999-1.01 2.41-2.041.414-1.038.301-2.08-.337-3.125-.639-1.045-1.901-1.944-3.788-2.696-1.85-.738-3.35-.952-4.5-.64-1.15.31-1.94 1.002-2.368 2.076-.429 1.074-.331 2.127.292 3.157.624 1.031 1.871 1.92 3.744 2.667zm14.19-14.266l-16.546-4.066.677-2.754 13.735 3.375 1.69-6.873 2.81.69-2.366 9.628zm3.572-16.988l-17.013-2.382.393-2.808 17.013 2.382-.393 2.808zm1.4-14.151l-14.262-.542-.159 4.18-2.904-.11.425-11.182 2.904.11-.159 4.169 14.263.54-.108 2.835zm-1.158-27.002l.297 3.079-3.767 1.599.54 5.599 3.996.78.29 3.01-17.626-3.81-.289-2.999 16.559-7.258zm-6.263 5.866l-6.16 2.536 6.529 1.29-.369-3.826zm4.992-12.786l-16.691 4.063-.654-2.687 9.783-8.315-11.147 2.713-.626-2.573 16.692-4.063.676 2.778-9.544 8.16 10.885-2.65.626 2.574zm-12.853-15.245c-1.897.768-3.572 1.121-5.027 1.057-1.455-.063-2.666-.426-3.633-1.088-.968-.661-1.713-1.636-2.236-2.925-.757-1.868-.66-3.679.29-5.434.949-1.754 2.74-3.165 5.376-4.234 2.665-1.08 4.999-1.3 7.002-.663 1.768.557 3.032 1.772 3.792 3.648.766 1.89.715 3.646-.152 5.27-.994 1.853-2.798 3.31-5.412 4.369zm-1.209-2.671c1.832-.743 3.065-1.647 3.7-2.713.633-1.067.742-2.114.325-3.142-.42-1.035-1.221-1.709-2.406-2.021-1.184-.313-2.718-.087-4.6.676-1.846.748-3.077 1.632-3.692 2.653-.614 1.02-.705 2.066-.27 3.138.434 1.071 1.233 1.763 2.396 2.076 1.164.312 2.68.09 4.547-.667z" style="text-align:start;line-height:125%" font-size="36" font-weight="700" fill="#fc0" stroke="#fc0" font-family="Arial Narrow" stroke-width=".667"/><path d="M436.873 159.753v47.019h25.665v-45.686c-1.535-7.29-23.02-7.822-25.665-1.333z" fill="#fc0" fill-rule="evenodd" stroke="#000" stroke-width=".667"/><path d="M438.183 159.087v47.685h22.999c-.16-13.874.281-34.465-.146-48.31-12.172-5.864-16.076-.704-22.853.625z" fill="#fc0" fill-rule="evenodd" stroke="#000" stroke-width=".667"/><path d="M439.487 158.42v48.352H459.8c-.328-14.925.757-32.705-.5-47.519-13.496-18.565-14.168-1.375-19.812-.833z" fill="#fc0" fill-rule="evenodd" stroke="#000" stroke-width=".667"/><path d="M449.547 168.056c-3.271.022-4.78 3.899-4.327 6.707v9.871h8.995c-.145-6.61.335-6.484-.221-13.044-.543-1.97-2.261-3.75-4.447-3.534zm-4.339 24.845v13.87h8.995l-.221-13.87h-8.774z" fill="#fc0" fill-rule="evenodd" stroke="#000" stroke-width=".667"/><path d="M436.759 156.369v3.488h6.718c.142-3.336 2.879-6 6.25-6a6.277 6.277 0 0 1 6.27 6h6.648v-3.488c.125-2.14-1.22-2.365-3.296-2.365h-19.295c-2.178-.231-3.295.41-3.295 2.365zm6.278 31.617h13.338v1.73h-13.338z" fill="#fc0" stroke="#000" stroke-width=".667"/><g stroke="#000" stroke-width=".667"><path d="M454.028 160.122a4.323 4.323 0 1 1-8.645 0 4.323 4.323 0 1 1 8.645 0z" fill="#fc0"/><path d="M449.706 157.103v3.019l1.4 1.8" fill="none" stroke-linecap="round"/></g><path d="M446.39 140.358v5.042h.77v-5.042h-.77zm5.722 0v5.042h.771v-5.042h-.77z" fill="#fc0" stroke="#000" stroke-width=".333"/><path d="M452.717 140.635a3.08 3.08 0 1 0-6.161 0h3.08z" fill="#fc0" stroke="#000" stroke-width=".666"/><path d="M449.303 132.005v5.853h.667v-5.853l-.334-1.334-.333 1.334zm-11.426 16.324v5.854h.667v-5.854l-.334-1.333-.333 1.333zm22.991 0v5.854h.666v-5.854l-.333-1.333-.333 1.333z" fill-rule="evenodd"/><path d="M459.035 153.809a9.398 9.398 0 1 0-18.797 0h9.398z" fill="#fc0" stroke="#000" stroke-width=".667"/></svg>