<svg xmlns="http://www.w3.org/2000/svg" xmlns:xlink="http://www.w3.org/1999/xlink" version="1" width="600" height="400"><g fill="#ed1c24" stroke="#000" stroke-width="2.929" stroke-linecap="round" stroke-linejoin="round"><path transform="matrix(.8262 0 0 1.1475 -111.567 9.249)" d="M16.558 863.691c0 2.166-2.439 3.922-5.447 3.922s-5.447-1.756-5.447-3.922c0-2.166 2.439-3.921 5.447-3.921s5.447 1.755 5.447 3.921z" fill="navy" stroke-width="3.008"/><path d="M-114.294 995.834a4.502 4.502 0 0 0-4.5 4.5c0 2.484 2.016 4.5 4.5 4.5s4.5-2.016 4.5-4.5-2.016-4.5-4.5-4.5zm0 1.5a3.001 3.001 0 0 1 0 6 3.001 3.001 0 0 1 0-6z"/><path d="M-112.84 998.834h9v3h-9z"/></g><g fill="#ed1c24" stroke="#000" stroke-width="2.929" stroke-linecap="round" stroke-linejoin="round"><path transform="matrix(.8262 0 0 1.1475 -111.567 193.249)" d="M16.558 863.691c0 2.166-2.439 3.922-5.447 3.922s-5.447-1.756-5.447-3.922c0-2.166 2.439-3.921 5.447-3.921s5.447 1.755 5.447 3.921z" stroke-width="3.008"/><path d="M-114.294 1179.834a4.502 4.502 0 0 0-4.5 4.5c0 2.484 2.016 4.5 4.5 4.5s4.5-2.016 4.5-4.5-2.016-4.5-4.5-4.5zm0 1.5a3.001 3.001 0 0 1 0 6 3.001 3.001 0 0 1 0-6z"/><path d="M-112.84 1182.834h9v3h-9z"/></g><path fill="#fff" d="M0 0h600v400H0z"/><g transform="translate(214.438 99.54) scale(.50192)"><g id="a" fill="#008f4c" stroke="#000" stroke-width="1.735" fill-rule="evenodd"><g stroke-width="1.587"><path d="M801.236 330.354c32.51 24.962 84.632 72.44 109.676 114.367 46.2 77.34 56.812 178.253 8.779 270.297-39.135 74.994-134.289 128.413-152.787 142.92-18.978 14.885-108.948 63.282-114.644 75.687-2.56-5.875-5.064-10.85-.88-19.243 15.284-14.894 86.857-45.834 125.055-69.815 76.756-48.19 152.477-111.988 166.187-220.502C960.5 482.566 888.796 403.382 800.57 331.152l.667-.798z" transform="matrix(.39008 .16352 -.13273 .47844 18.366 -154.32)"/><path d="M794.76 839.662s16.89-14.63 64.2-13.76c47.309.868 91.806-11.34 91.806-11.34s-41.923 24.757-79.168 28.13c-37.244 3.372-74.191-3.95-76.838-3.03zm27.507-23.092s15.27-15.61 60.421-17.566c45.152-1.956 86.878-16.798 86.878-16.798s-38.557 27.214-73.872 32.804c-35.315 5.589-70.956.484-73.427 1.56zm34.671-27.276s13.101-15.746 54.053-20.2c40.95-4.455 78.143-20.986 78.143-20.986s-33.693 28.135-65.52 35.486c-31.826 7.35-64.483 4.533-66.676 5.7zm26.462-24.297s10.679-17.48 50.55-27.828c39.872-10.348 74.273-32.1 74.273-32.1s-29.255 32.725-59.678 44.615c-30.424 11.89-63.145 13.84-65.145 15.313zm22.06-25.111s8.41-18.678 46.675-33.93c38.265-15.25 69.677-41.133 69.677-41.133s-24.934 36.126-53.633 51.726c-28.698 15.6-60.918 21.626-62.718 23.337zm16.025-30.67s6.016-19.581 42.081-39.483c36.066-19.902 64.006-49.499 64.006-49.499s-20.236 38.953-46.766 58.009c-26.53 19.056-57.748 29.05-59.32 30.973zm13.352-35.156s4.223-23.384 40.824-50.37c36.601-26.985 63.316-64.354 63.316-64.354s-17.323 47.406-43.736 72.384c-26.413 24.978-58.93 39.94-60.404 42.34zm11.301-36.001s.976-22.455 33.176-52.47c32.2-30.016 53.313-68.481 53.313-68.481s-10.559 46.655-33.052 73.472c-22.492 26.817-52.318 45.039-53.437 47.479zm3.662-38.349s-1.346-21.23 26.331-52.7c27.677-31.47 43.921-69.782 43.921-69.782s-5.343 44.964-24.083 72.453c-18.74 27.488-45.348 47.62-46.169 50.029zm-3.173-29.853s-4.129-20.114 20.792-53.398c24.921-33.284 37.005-71.765 37.005-71.765s.172 43.557-15.91 71.995c-16.083 28.439-41.338 50.773-41.887 53.168zm-1.215-35.483s-7.843-17.5 11.217-51.659c19.06-34.158 24.217-70.911 24.217-70.911s8.137 39.333-2.89 67.665c-11.028 28.332-32.427 52.65-32.544 54.905zm-7.34-31.594s-10.403-16.11 3.263-52.761c13.667-36.652 13.198-73.762 13.198-73.762s14 37.647 7.39 67.323c-6.608 29.675-24.077 56.954-23.851 59.2zm-11.905-29.794s-12.54-14.51-4.095-52.704 2.827-74.88 2.827-74.88 19.093 35.339 16.668 65.645c-2.424 30.306-15.936 59.745-15.4 61.939zm-15.096-30.703s-14.387-12.68-11.187-51.665c3.2-38.985-7.33-74.573-7.33-74.573s23.698 32.43 25.396 62.785c1.698 30.355-7.706 61.352-6.879 63.453zm-19.656-26.824s-17.102-10.325-18.523-47.22c-1.422-36.897-17.226-69.116-17.226-69.116s29.612 27.828 35.238 56.102c5.625 28.273-.644 58.354.511 60.234zm-26.249-29.009s-16.304-7.45-21.296-40.064c-4.992-32.616-22.348-59.635-22.348-59.635s29.235 21.734 37.109 46.272c7.873 24.537 5.315 51.875 6.535 53.427zm-28.468-26.581s-14.584-4.514-22.873-33.311c-8.29-28.798-26.22-50.855-26.22-50.855s27.207 15.664 36.89 36.769c9.681 21.104 10.986 46.16 12.203 47.397zm-34.934-32.132s-4.264-12.081-29.86-17.829c-25.595-5.748-45.42-19.898-45.42-19.898s14.354 22.23 33.18 29.478c18.827 7.248 40.984 7.278 42.1 8.25z" transform="matrix(.39008 .16352 -.13273 .47844 18.366 -154.32)"/><path d="M813.31 339.963s-12.785-.817-25.279-23.884c-12.493-23.067-31.502-38.295-31.502-38.295s25.295 7.766 37.392 23.911c12.096 16.145 18.15 37.459 19.39 38.268zm12.974 12.997s-6.2-11.212-32.393-12.656c-26.193-1.445-48.081-12.128-48.081-12.128s17.826 19.555 37.59 23.596c19.766 4.042 41.623.413 42.884 1.187zm28.717 28.687S848.191 370 819.42 368.5c-28.771-1.5-52.814-12.599-52.814-12.599s19.58 20.314 41.291 24.512c21.71 4.198 45.72.429 47.105 1.233zm31.769 33.496s-7.096-13.816-40.225-17.45c-33.13-3.636-60.164-17.969-60.164-17.969s21.272 24.61 46.068 30.871c24.797 6.26 52.775 3.533 54.321 4.548zm16.835 24.757s-7.096-13.817-40.226-17.452c-33.13-3.635-60.164-17.967-60.164-17.967s21.272 24.61 46.069 30.87c24.796 6.26 52.774 3.533 54.32 4.548z" transform="matrix(.39008 .16352 -.13273 .47844 18.366 -154.32)"/><path d="M923.83 472.656s-5.904-14.581-41.708-22.25c-35.805-7.67-63.484-25.21-63.484-25.21s19.975 27.033 46.295 36.287c26.319 9.253 57.34 9.977 58.898 11.173z" transform="matrix(.39008 .16352 -.13273 .47844 18.366 -154.32)"/><path d="M934.322 502.8s-4.039-15.204-38.607-27.282c-34.567-12.077-59.841-32.933-59.841-32.933s16.445 29.313 41.404 41.78c24.96 12.465 55.648 17.053 57.044 18.435zm6.931 28.717s-3.754-15.204-35.887-27.281c-32.134-12.078-55.628-32.934-55.628-32.934s15.287 29.313 38.489 41.78c23.201 12.465 51.73 17.054 53.026 18.435z" transform="matrix(.39008 .16352 -.13273 .47844 18.366 -154.32)"/><path d="M946.704 570.871s-2.264-17.945-35.085-35.785c-32.821-17.84-55.45-44.713-55.45-44.713s12.932 35.588 36.204 52.777c23.272 17.188 53.108 25.973 54.331 27.721zm0 27.727s-2.165-17.945-33.55-35.786c-31.385-17.84-53.023-44.713-53.023-44.713s12.366 35.589 34.62 52.778c22.253 17.188 50.783 25.973 51.953 27.721z" transform="matrix(.39008 .16352 -.13273 .47844 18.366 -154.32)"/><path d="M941.343 637.174s.482-18.07-27.956-40.308c-28.439-22.238-45.914-51.986-45.914-51.986s7.028 37.014 26.529 57.272c19.5 20.258 46.44 33.122 47.34 35.022z" transform="matrix(.39008 .16352 -.13273 .47844 18.366 -154.32)"/><path d="M933.642 672.909s2.617-17.886-22.99-43.333c-25.607-25.448-39.439-57.055-39.439-57.055s2.599 37.586 19.565 60.01c16.966 22.423 42.193 38.384 42.864 40.378zm-16.165 34.531s5.07-17.35-16.766-46.099c-21.836-28.749-31.158-61.967-31.158-61.967s-2.631 37.584 11.066 62.14c13.697 24.558 36.47 43.859 36.858 45.926zm-14.059 25.438s5.935-14.355-12.233-40.114c-18.168-25.76-24.427-54.485-24.427-54.485s-5.123 31.64 5.807 53.32 30.642 39.503 30.853 41.279zm-25.115 32.517s8.795-12.803-3.606-41.783-12.537-58.378-12.537-58.378-11.604 29.877-5.431 53.359c6.172 23.481 21.737 45.021 21.574 46.802zm-23.373 21.629s9.728-10.114 1.125-36.187c-8.602-26.073-5.534-51.298-5.534-51.298s-14.246 24.48-10.95 45.226c3.297 20.744 15.707 40.748 15.359 42.259zm-36.192 29.673s12.002-7.272 10.393-34.68c-1.61-27.408 7.842-50.997 7.842-50.997s-20.062 19.995-22.21 40.89c-2.149 20.895 4.7 43.417 3.975 44.787zm-31.372 21.478s12.861-5.615 14.905-32.994c2.043-27.38 14.542-49.504 14.542-49.504s-22.539 17.154-27.442 37.58c-4.903 20.424-1.104 43.656-2.005 44.918z" transform="matrix(.39008 .16352 -.13273 .47844 18.366 -154.32)"/></g><path d="M386.851 1041.57c-10.907-10.17-8.026-17.124-5.547-20.804" transform="matrix(-.3861 0 0 .4516 298.358 -71.531)"/></g><use xlink:href="#a" transform="matrix(-1 0 0 1 340.937 0)" width="710" height="897.072"/></g><path d="M286.597 135.022c8.98-7.706 23.917-5.026 33.363 5.985 9.445 11.011 9.82 26.183.837 33.885-8.979 7.706-23.917 5.026-33.362-5.985-9.446-11.011-9.82-26.183-.838-33.885z" fill="none"/><path d="M311.22 114.174c-1.47-2.162-4.657-2.888-6.75-2.807-2.79.071-4.483 1.473-5.083 3.011a3.932 3.932 0 0 0-.22 2.07c-.159 0-.257.006-.423 0-.669-.02-1.363-.09-1.804-.188-.11-.024-.122-.04-.188-.062l-.172-.189c-.708-.825-1.723-.954-2.573-.988-2.413-.251-4.614.608-6.854 1.333-2.043.645-4.381 1.149-5.521.941-1.307-.237-2.283-.94-2.886-1.74-2.15-3.266 1.45-6.779 3.506-9.083l30.687.755c12.355-6.308 19.815-.566 29.227.369 11.385 5.962 1.404 13.849.185 14.797-5.547-2.905-6.583-5.81-9.874-8.715l-21.256.496z" fill="#fff" fill-rule="evenodd"/><path d="M278.28 108.564c-2.121 2.364-2.922 5.487-1.134 8.214.89 1.178 2.303 2.162 4.125 2.494 1.988.361 4.376-.335 6.494-1.004 1.058-.334 2.033-.688 2.776-.925 2.922-1.173 4.6-.202 5.96.878.673.149 1.458.212 2.196.235a20.64 20.64 0 0 0 1.882-.031c.23-.015.305.004.612-.079.038-.01.077-.011.157-.047.08-.035.215-.061.423-.36.052-.075.141-.282.142-.283l.03-.408-.109-.36s-.12-.166-.172-.22c-.212-.215-.32-.225-.393-.25-.022-.009-.012.005-.031 0-.016-.027-.066-.086-.094-.22-.056-.27-.032-.694.125-1.098.315-.809 1.065-1.67 3.263-1.726 1.767-.099 3.803.637 5.026 1.929.57-.352 2.579 1.6 1.663-1.13-1.47-2.16-4.658-2.887-6.752-2.806-2.789.071-4.482 1.473-5.082 3.011a3.932 3.932 0 0 0-.22 2.07c-.159 0-.257.006-.423 0-.669-.02-1.363-.09-1.804-.188-.11-.024-.122-.04-.188-.062l-.172-.189c-.708-.825-1.723-.954-2.573-.988-2.413-.251-4.614.608-6.854 1.333-2.043.645-4.381 1.149-5.521.941-1.307-.237-2.283-.94-2.886-1.74-2.15-3.266 1.45-6.779 3.506-9.083-1.356.52-3.609-1.408-3.971 2.092z" fill="#cecece" fill-rule="evenodd"/><path d="M295.795 115.884l6.777-.002.119 15.812 22.351-.951v-7.966l6.892-.119v11.797h-65.752v-13.05c-2.24-1.35-3.936-2.008-6.525-2.008-3.219 0-10.065-1.397-10.065-8.955 0-5.767 8.08-8.26 11.36-8.352 6.623-.184 7.626 3.398 10.25 3.253 5.24-.288 13.191-6.624 20.076-4.517 1.237.379 8.765 3.012 17.357 3.012 3.143 0 8.06-4.033 15.599-3.83 3.36.09 8.938 2.715 9.707 3.034 0 .762 6.448-.208 8.533-.208 2.642 0 4.408 1.902 5.02 3.513 3.804 10.024-5.049 16.598-4.261 15.058.793-1.551 1.702-6.829.713-8.969-1.462-3.164-2.542-3.076-5.87-2.945-5.174.204-7.558-3.474-13.646-3.474-4.672 0-7.289 2.93-7.554 3.088-2.265 1.355-9.035.756-9.536.756-3.347 0-15.888-3.329-18.215-3.329-3.284 0-8.89.986-9.391 1.321-1.252.835-9.321 4.3-7.027 7.79.951 1.45.458 4.495.502 6.264l.211 8.533h22.375v-14.556z" fill="#0000ad" fill-rule="evenodd"/><path d="M260.366 143.972l4.518-4.807-1.212-3.725 7.53-6.525 4.516 1.004 5.139-3.514v-2.814l9.417-3.924 3.012 2.972h12.504l3.011-2.972 9.418 3.924v2.814l5.138 3.514 4.517-1.004 7.53 6.525-1.212 3.725 4.518 4.807h-78.344z" fill="#dedede" fill-rule="evenodd" stroke="#000" stroke-width=".251"/><path d="M293.662 134.066a.805.805 0 1 0 .173 1.6c.718-.044 1.152.06 1.411.204.26.143.396.324.518.643.244.639.235 1.819.235 3.09v3.513a.803.803 0 1 0 1.6 0v-3.513c0-1.215.114-2.51-.33-3.67-.221-.58-.626-1.136-1.238-1.475-.612-.338-1.373-.448-2.29-.392a.805.805 0 0 0-.079 0zm-3.952 1.208a.803.803 0 0 0-.408 1.474c1.127.807 1.472 1.494 1.631 2.432.159.937.047 2.16.047 3.654v.784a.803.803 0 1 0 1.6 0v-.784c0-1.398.15-2.666-.063-3.921-.212-1.255-.872-2.48-2.274-3.482a.803.803 0 0 0-.533-.157zm-3.75 2.008a.803.803 0 0 0-.72.815c0 .442.186.529.25.596.065.068.102.096.141.126.078.06.144.103.22.157.153.107.332.231.502.392.34.32.612.7.612 1.239v2.51a.803.803 0 1 0 1.6 0v-2.51c0-1.1-.594-1.909-1.114-2.4a6.08 6.08 0 0 0-.675-.549l-.11-.078a.803.803 0 0 0-.705-.298zm-3.638 2.023a.803.803 0 0 0-.157 1.537c.402.17.49.286.612.69.122.405.172 1.114.172 2.086a.803.803 0 1 0 1.6 0c0-1-.013-1.805-.235-2.54a2.7 2.7 0 0 0-1.522-1.71.803.803 0 0 0-.47-.063zm26.756-4.215a.803.803 0 0 1 .408 1.474c-1.128.806-1.472 1.493-1.631 2.431-.16.938-.047 2.16-.047 3.655v.784a.803.803 0 1 1-1.6 0v-.784c0-1.399-.15-2.666.063-3.922.212-1.255.872-2.479 2.274-3.482a.803.803 0 0 1 .533-.156zm3.749 2.007c.416.043.73.398.721.816 0 .441-.186.529-.25.596-.065.067-.103.095-.142.125-.078.06-.143.103-.22.157-.152.108-.332.232-.501.392-.34.321-.612.7-.612 1.24v2.51a.803.803 0 1 1-1.6 0v-2.51c0-1.1.594-1.91 1.114-2.4.26-.246.505-.43.674-.55.054-.037.079-.056.11-.078a.803.803 0 0 1 .706-.298zm3.639 2.024a.803.803 0 0 1 .157 1.537c-.402.17-.49.286-.612.69-.122.404-.173 1.114-.173 2.086a.803.803 0 1 1-1.6 0c0-1.001.014-1.805.236-2.541a2.7 2.7 0 0 1 1.521-1.71.803.803 0 0 1 .47-.062zm-11.34-5.24a.805.805 0 1 1-.173 1.6c-.719-.043-1.152.061-1.412.205-.259.143-.395.323-.517.643-.245.639-.236 1.819-.236 3.09v3.513a.803.803 0 1 1-1.6 0v-3.513c0-1.215-.114-2.51.33-3.67.222-.58.627-1.137 1.24-1.475.611-.339 1.372-.448 2.29-.392a.805.805 0 0 1 .078 0z" fill="#848484" fill-rule="evenodd" stroke="#000" stroke-width=".251" stroke-linecap="round" stroke-linejoin="round"/><path d="M325.144 123.267c-.166-2.626-9.537-2.364-11.544-2.364-2.515 0-5.031-2.818-4.451-5.26.403-1.696 7.32-11.42 30.754-1.545 3.283 1.384.853 4.99.853 6.079 0 1.95 3.006 2.395 3.461 3.236.08.147.335 0 .502 0 .678 1.253-4.01 1.004-4.517 1.004-4.093 0-4.016-3.44-4.016-4.518 0-3.961-9.805-7.626-11.544-1.506-.605 2.13 9.978 4.41 5.64 4.622l-5.138.252z" fill="#ce1029" fill-rule="evenodd"/><path d="M286.91 134.754l-2.65-3.401.686-.535 2.65 3.4-.686.536zm2.764-1.945l-1.677-3.972 1.688-.713c.424-.179.748-.273.97-.283a.99.99 0 0 1 .623.186c.193.133.338.317.438.552.125.298.142.581.048.85-.093.268-.303.5-.63.698.216.028.406.079.57.152.164.074.407.224.728.452l.813.57-.96.405-.944-.62c-.337-.221-.56-.356-.67-.405a.668.668 0 0 0-.31-.063 1.435 1.435 0 0 0-.423.126l-.162.068.7 1.658-.802.339zm-.166-2.63l.593-.251c.385-.163.618-.28.7-.353a.469.469 0 0 0 .154-.263.561.561 0 0 0-.044-.332.517.517 0 0 0-.244-.28.533.533 0 0 0-.368-.027 7.332 7.332 0 0 0-.59.233l-.627.264.426 1.008zm4.225 1.053l-.766-4.242 3.146-.568.13.717-2.29.414.17.94 2.13-.384.129.715-2.13.384.208 1.155 2.37-.428.13.715-3.227.582zm6.028-2.176l.02-.726 1.875.051-.047 1.717c-.187.171-.455.32-.805.444-.35.125-.702.183-1.056.173-.451-.012-.841-.118-1.171-.316a1.804 1.804 0 0 1-.734-.832 2.623 2.623 0 0 1-.221-1.155c.012-.449.117-.845.315-1.189.197-.343.48-.603.848-.78.28-.135.626-.197 1.037-.186.535.014.95.138 1.245.37.295.233.48.549.555.947l-.869.138a.913.913 0 0 0-.328-.51 1.036 1.036 0 0 0-.623-.201c-.38-.01-.686.102-.917.336-.23.235-.353.59-.366 1.064-.014.512.09.899.31 1.16.22.263.515.399.883.409a1.5 1.5 0 0 0 .551-.093 1.88 1.88 0 0 0 .48-.247l.014-.547-.996-.027zm2.595 1.82l.703-4.253.859.142-.704 4.254-.858-.142zm2.122-1.848c.125-.42.293-.755.503-1.004a2.03 2.03 0 0 1 .553-.452c.213-.12.427-.19.645-.214.29-.033.603 0 .94.1.609.181 1.04.515 1.293 1.001.254.486.28 1.066.081 1.739-.198.667-.534 1.135-1.009 1.405-.474.269-1.015.314-1.622.133-.615-.182-1.048-.514-1.3-.997-.251-.483-.28-1.053-.084-1.71zm.868.227c-.139.468-.136.855.009 1.16.144.306.383.509.716.607.332.099.64.06.925-.116.285-.177.498-.504.64-.984.14-.473.142-.858.003-1.152-.138-.295-.38-.493-.724-.595-.344-.102-.656-.067-.936.107-.28.173-.492.498-.633.973zm1.319-2.118l.639-.728.888.264-1.025.613-.502-.149zm1.849 5.409l1.886-3.877.762.37.327 3.362 1.26-2.59.727.355-1.886 3.876-.786-.382-.333-3.288-1.23 2.528-.727-.354z"/><path d="M320.108 296.36c1.754-11.822-43.128-9.762-40.343-.001.208.655-25.026-4.793-54.118-3.436-.229 0-6.483-5.95-6.528-12.409l.557.112c2.8 6.86 43.557 2.429 56.48.443 1.812-4.172 40.992-5.108 47.56 0 7.46 2.545 54.24 6.307 57.04-.554-.046 6.459-6.3 12.41-6.529 12.41-29.092-1.358-54.22 4.115-54.119 3.435z" fill="#fff" fill-rule="evenodd" stroke="#000" stroke-width=".502"/><path d="M300.062 272.484c-13.87.363-26.65-2.969-25.288 7.982-8.283.109-19.103-1.928-25.581-1.497-23.631.326-26.151 9.122-29.71-.465-.52 4.323-1.32 9.49 5.529 8.668 6.85-.822 21.731-4.98 41.888-1.461 4.25.364 9.137-.51 9.862-3.909.138-3.863 15.334-3.11 23.174-2.793 7.84-.316 23.037-1.069 23.175 2.794.724 3.4 5.612 4.273 9.862 3.909 20.156-3.52 35.038.639 41.887 1.461 6.85.822 6.05-4.345 5.529-8.668-3.558 9.586-6.078.791-29.71.465-6.477-.431-17.297 1.606-25.58 1.497 1.361-10.951-11.418-7.62-25.037-7.983z" fill="#0000ad" fill-rule="evenodd" stroke="#000400" stroke-width=".251"/><path d="M299.81 286.537c4.039.001-7.815-.235-15.65.064-3.052.206-8.732 1.03-6.732 6.367-8.993-1.383-15.286-3.581-27.11-3.232-11.654.35-22.283 6.22-33.144-.627 1.017 3.907 2.24 8.767 14.63 8.756 23.324-3.54 33.598-3.983 41.418.561 13.106 3.555 7.616-1.857 8.432-4.446 7.635-3.238 19.708-3.427 18.157-3.429-1.551 0 11.275-.498 19.426 3.427.816 2.588-4.675 8 8.432 4.446 7.82-4.545 18.093-4.1 41.416-.562 12.391.012 13.614-4.848 14.632-8.756-10.862 6.848-21.49.977-33.144.628-11.825-.35-18.118 1.849-27.11 3.231 2-5.336-3.681-6.16-6.732-6.366-7.835-.3-20.958-.063-16.92-.062z" fill="#ce1029" fill-rule="evenodd" stroke="#000400" stroke-width=".251"/><path d="M274.607 280.412c2.463 7.044 2.273 7.776 7.14 13.617m43.263-13.615c-.901 7.044-.823 7.887-5.69 13.728" fill="none" stroke="#000" stroke-width=".251"/><path style="text-align:start;line-height:125%" d="M240.263 286.967c.021.173.01.34-.032.502a1.164 1.164 0 0 1-.208.426c-.12.153-.27.275-.447.367a2.042 2.042 0 0 1-.69.19l-.45.055.18 1.485-.53.064-.484-3.984 1-.122c.236-.029.439-.034.61-.015.17.02.324.065.462.137.16.084.292.199.395.344.102.146.167.33.194.551zm-.55.08a.85.85 0 0 0-.114-.35.602.602 0 0 0-.246-.222.842.842 0 0 0-.307-.082 2.105 2.105 0 0 0-.42.016l-.44.053.194 1.592.362-.044c.214-.026.385-.064.513-.115a.705.705 0 0 0 .306-.226.762.762 0 0 0 .14-.283.945.945 0 0 0 .013-.338zm4.488 2.364l-.69.064-1.413-1.472-.607.056.147 1.589-.532.049-.369-3.997 1.031-.095a3.71 3.71 0 0 1 .58-.016c.157.01.31.055.457.134a1 1 0 0 1 .364.315c.094.134.151.306.17.515.027.294-.024.546-.155.756-.13.211-.319.376-.566.494l1.583 1.608zm-1.414-2.766a.744.744 0 0 0-.09-.304.525.525 0 0 0-.211-.204.739.739 0 0 0-.273-.082 1.904 1.904 0 0 0-.376.003l-.526.05.14 1.508.466-.043a1.86 1.86 0 0 0 .407-.079.632.632 0 0 0 .296-.195.695.695 0 0 0 .146-.284 1.1 1.1 0 0 0 .021-.37zm1.735 2.751l-.243-4.006 2.505-.152.029.474-1.973.119.067 1.098 1.838-.111.029.473-1.838.111.09 1.489 1.972-.12.029.474-2.505.151zm4.21-.134a2.651 2.651 0 0 1-.745-.069 3.66 3.66 0 0 1-.581-.205l-.02-.668.038-.002a1.918 1.918 0 0 0 1.257.484c.295-.008.516-.076.663-.204a.597.597 0 0 0 .212-.493.614.614 0 0 0-.13-.387.706.706 0 0 0-.383-.213 6.113 6.113 0 0 0-.343-.079c-.103-.02-.232-.048-.388-.083a1.842 1.842 0 0 1-.376-.126 1.049 1.049 0 0 1-.297-.21.942.942 0 0 1-.202-.306 1.151 1.151 0 0 1-.08-.411 1.04 1.04 0 0 1 .356-.83c.246-.227.567-.346.96-.358.225-.006.438.01.64.049.2.039.388.097.561.175l.019.639h-.04a1.77 1.77 0 0 0-.5-.29 1.552 1.552 0 0 0-.632-.113c-.247.007-.446.071-.595.191a.547.547 0 0 0-.216.464.59.59 0 0 0 .147.403.787.787 0 0 0 .397.21c.114.026.253.057.418.09a7.3 7.3 0 0 1 .41.095c.279.077.485.198.617.365.133.167.203.376.21.625a1.194 1.194 0 0 1-.339.863 1.43 1.43 0 0 1-.43.282c-.16.067-.363.105-.608.112zm1.952-.117l.012-4.014 2.51.007-.001.474-1.976-.005-.004 1.1 1.842.005-.002.474-1.841-.005-.004 1.49 1.976.007-.002.474-2.51-.007zm5.965.13l-.598-.024-1.638-3.527-.135 3.458-.498-.019.156-4.011.757.03 1.49 3.238.124-3.176.498.02-.156 4.01zm1.75.122l.27-3.53-1.345-.102.036-.473 3.22.245-.035.473-1.344-.102-.27 3.53-.531-.041zm2.278.188l.44-3.99 2.495.276-.052.471-1.964-.216-.12 1.093 1.83.202-.052.472-1.83-.202-.164 1.481 1.964.217-.052.472-2.495-.276zm32.101-8.548l-1.868-.01-.006 1.132 1.79.01-.003.474-1.79-.01-.01 1.933-.534-.003.022-4.014 2.402.013-.003.475zm1.858 3.67a1.859 1.859 0 0 1-.615-.109 1.198 1.198 0 0 1-.443-.288 1.165 1.165 0 0 1-.283-.51 2.584 2.584 0 0 1-.068-.723l.065-2.504.533.014-.064 2.504c-.005.185.003.34.023.468.02.127.063.242.128.345a.68.68 0 0 0 .286.252c.122.06.272.091.45.096.167.004.316-.02.446-.073a.672.672 0 0 0 .309-.237.943.943 0 0 0 .144-.336 2.42 2.42 0 0 0 .049-.455l.065-2.517.533.014-.064 2.504a2.651 2.651 0 0 1-.104.714 1.121 1.121 0 0 1-.31.5c-.131.12-.283.209-.454.265-.171.057-.38.082-.626.076zm3.174.02l.135-3.536-1.347-.052.018-.474 3.227.123-.018.475-1.347-.052-.135 3.537-.533-.02zm3.652.168a1.859 1.859 0 0 1-.619-.082 1.198 1.198 0 0 1-.455-.269 1.165 1.165 0 0 1-.305-.497 2.584 2.584 0 0 1-.1-.72l-.044-2.503.534-.01.044 2.504c.004.185.018.34.044.467.025.126.073.24.143.339a.68.68 0 0 0 .297.24c.124.053.275.078.453.075.167-.003.315-.033.443-.091a.672.672 0 0 0 .298-.251.954.954 0 0 0 .13-.342 2.42 2.42 0 0 0 .028-.456l-.045-2.518.534-.01.045 2.505a2.65 2.65 0 0 1-.072.718c-.053.2-.15.371-.29.512a1.23 1.23 0 0 1-.44.286 1.855 1.855 0 0 1-.623.103zm5.343-.28l-.693.024-1.324-1.553-.61.02.054 1.595-.534.018-.133-4.012 1.034-.034a3.71 3.71 0 0 1 .58.018c.156.02.306.074.449.16.143.086.258.198.344.337.086.14.133.314.14.524.01.295-.056.543-.199.746-.142.202-.34.355-.594.46l1.486 1.698zm-1.25-2.844a.744.744 0 0 0-.072-.31.525.525 0 0 0-.198-.215.739.739 0 0 0-.268-.098 1.904 1.904 0 0 0-.375-.018l-.528.017.05 1.514.469-.015c.152-.005.29-.023.41-.054a.632.632 0 0 0 .308-.178.695.695 0 0 0 .162-.275 1.1 1.1 0 0 0 .043-.368zm4.359-.76c.155.175.277.391.365.65.089.26.135.557.14.89.005.326-.032.62-.111.884a1.81 1.81 0 0 1-.35.666c-.16.189-.349.33-.566.422-.217.092-.457.14-.72.144a1.871 1.871 0 0 1-.734-.127 1.5 1.5 0 0 1-.567-.402 1.834 1.834 0 0 1-.365-.652 2.92 2.92 0 0 1-.137-.883 2.862 2.862 0 0 1 .112-.891c.08-.256.196-.477.348-.663.152-.18.336-.318.553-.414a1.89 1.89 0 0 1 .73-.15c.273-.003.52.04.74.133.222.092.409.223.562.394zm-.05 1.549a2.62 2.62 0 0 0-.097-.705 1.477 1.477 0 0 0-.25-.506 1.016 1.016 0 0 0-.388-.306 1.192 1.192 0 0 0-.507-.096 1.193 1.193 0 0 0-.507.108c-.144.07-.27.176-.38.32-.104.138-.182.31-.236.518a2.656 2.656 0 0 0-.075.702c.008.527.124.928.35 1.204.224.277.523.412.895.407.372-.006.666-.15.882-.432.216-.283.32-.688.313-1.214zm34.2 4.742c.028.365-.02.7-.145 1.006-.125.306-.305.55-.542.735a1.871 1.871 0 0 1-.596.303 4.09 4.09 0 0 1-.795.127l-.922.072-.312-4.002.911-.071c.376-.03.674-.024.892.015.219.04.407.103.565.19.272.15.49.361.653.632.163.271.26.602.29.993zm-.555.035a1.852 1.852 0 0 0-.214-.777 1.16 1.16 0 0 0-.494-.474 1.55 1.55 0 0 0-.469-.15 2.713 2.713 0 0 0-.606-.01l-.406.032.24 3.088.406-.031c.237-.019.442-.054.617-.105a1.33 1.33 0 0 0 .47-.248c.175-.14.3-.317.378-.533.076-.216.103-.48.078-.792zm1.287 1.938l-.165-4.01 2.508-.104.02.474-1.975.081.045 1.1 1.84-.077.02.474-1.84.076.061 1.49 1.974-.082.02.475-2.508.103zm6.386-.045a1.932 1.932 0 0 1-.722-.14 1.54 1.54 0 0 1-.566-.4 1.804 1.804 0 0 1-.365-.656 2.8 2.8 0 0 1-.122-.9 2.72 2.72 0 0 1 .138-.877c.088-.248.215-.464.38-.648a1.6 1.6 0 0 1 .574-.405 1.84 1.84 0 0 1 .737-.133 2.363 2.363 0 0 1 .97.217c.09.041.179.087.267.136l-.008.645h-.043a4.65 4.65 0 0 0-.179-.16 1.739 1.739 0 0 0-.6-.325 1.465 1.465 0 0 0-.417-.057 1.15 1.15 0 0 0-.892.405 1.465 1.465 0 0 0-.27.512 2.404 2.404 0 0 0-.102.697c-.003.275.028.512.092.711.065.2.154.368.267.506.11.134.24.236.39.305.15.07.31.105.479.106.155.002.298-.015.43-.051a1.64 1.64 0 0 0 .61-.308c.072-.057.129-.107.17-.148h.041l-.007.637-.25.116a2.895 2.895 0 0 1-.611.19c-.1.019-.23.027-.39.025zm4.665.096l-.533-.025.093-1.963-1.845-.087-.093 1.963-.533-.025.19-4.01.533.025-.075 1.573 1.845.087.074-1.572.534.025-.19 4.01zm2.212.17l-1.553-.119.03-.408.511.039.243-3.186-.51-.039.03-.408 1.554.118-.03.409-.511-.04-.243 3.186.51.04-.03.408zm2.97.285l-2.315-.23.396-3.994.531.053-.35 3.522 1.785.177-.047.472zm.421.051l.5-3.983 2.49.312-.06.47-1.96-.245-.137 1.091 1.827.23-.059.47-1.827-.229-.185 1.48 1.96.245-.058.47-2.49-.311z" font-size="13" font-weight="400" font-family="Tahoma"/><path d="M299.048 274.222c0-8.17 4.995-6.343 11.15-6.343h25.488c6.156 0 11.151-6.63 11.151-14.8V143.278h-95.579v109.8c0 8.17 4.996 14.801 11.151 14.801h25.488c6.155 0 11.15-1.827 11.15 6.343z" fill="#fff" stroke="#000" stroke-width="1.506" stroke-linecap="round" stroke-linejoin="round"/><path d="M343.213 249.897l-42.53.084.177 12.906h31.72l6.38-.944 2.781-4.109 1.472-7.937z" fill="#8a0" fill-rule="evenodd" stroke="#001c24" stroke-width=".251"/><path fill="#7bd6ff" d="M300.815 215.98h42.33v33.283h-42.33z"/><path d="M327.062 250.8c5.23-.42 12.098 7.116 15.475 6.742l.817-9.283h-16.677l.385 2.54z" fill="#20acf7" fill-rule="evenodd" stroke="#001c24" stroke-width=".251"/><path d="M297.066 216.852l-41.753-.197-.197 20.698 41.358 16.342m4.355-83.775l-.197 42.577 42.38-.59.395-41.987h-42.578zm-.36 58.882l-.231 25.287h28.696s-.197-1.527 0-8.476c.207-7.276-5.22-14.646-10.644-19.317-2.89-2.488-17.821 2.506-17.821 2.506z" fill="#ffa521" fill-rule="evenodd" stroke="#001c24" stroke-width=".251"/><g fill-rule="evenodd"><path d="M261.062 254.046c2.486-1.621 3.123-4.31 6.212-4.447 1.487.053 1.96 2.057 3.637 1.761 1.588-.148 2.667 1.404 4.384 1.174 2.414.217 4.923-.26 7.266.493.833.568 1.283 1.796 2.466.857.802-.318 1.532-.413 1.364-1.408 1.29-.643 2.732.364 4.086.416 1.091.017.403 1.905 1.782 1.814 1.645.692 3.291 1.853 5.142 1.666l-.282-7.854c-1.65-1.991 3.646-2.495-3.917-2.904-8.023-.65-14.826-.094-21.82-4.895-1.73-.856-3.632-1.49-5.56-1.7-1.48.707-9.278-3.031-11.05-2.785l.238 19.107c.53 1.222 5.71-1.15 6.052-1.295z" fill="#de7300" stroke="#001c24" stroke-width=".251"/><path d="M274.825 238.777v1.208h2.322v1.443l-2.227 4.078.627.36 1.6-2.917v2.714h.737v-2.667l1.569 2.87.643-.36-2.212-4.047v-1.474h7.294v1.443l-2.228 4.078.628.36 1.6-2.917v2.714h.737v-2.667l1.568 2.87.643-.36-2.211-4.047v-1.474h7.293v1.443l-2.227 4.078.627.36 1.6-2.917v2.714h.738v-2.667l1.568 2.87.643-.36-2.211-4.047v-1.474h3.544v-1.208h-22.665z" fill="#850404" stroke="#001c24" stroke-width=".251"/><path d="M288.232 264.02c-1.294-1.933-3.076-1.926-3.596-3.407-1.514-.295-.14-1.25-.052-1.866l.113-.98c-.18-.569 1.229-.222 2.067-.29-.11-.191-.113-.516-.294-.67-1.273-1.086-1.524-3.528-2.276-5.275-.496-.82-1.648-1.11-2.709-1.51-1.06.4-2.213.69-2.708 1.51-.753 1.747-1.003 4.189-2.276 5.275-.181.154-.184.479-.294.67.838.068 2.247-.279 2.067.29l.113.98c.087.615 1.461 1.57-.052 1.866-.52 1.48-2.303 1.474-3.596 3.406" stroke="gray" stroke-width=".096"/><path d="M297.906 264.026a4.588 4.588 0 0 0-1.09-1.139c-.863-.648-1.71-.916-2.024-1.81-1.31-.256-.12-1.083-.045-1.615l.098-.85c-.155-.491 1.064-.19 1.79-.25-.096-.166-.098-.447-.255-.58-1.102-.94-1.319-3.054-1.97-4.567-.429-.71-1.427-.96-2.345-1.307-.918.347-1.916.598-2.345 1.307-.651 1.513-.868 3.627-1.97 4.567-.157.133-.159.414-.254.58.725.06 1.944-.241 1.789.25l.098.85c.075.532 1.265 1.36-.045 1.614-.45 1.283-1.994 1.277-3.113 2.95" stroke="#666" stroke-width=".083"/><path d="M273.427 250.88a2.873 2.873 0 0 0-1.7.621c-1.947 1.3-1.925 2.734-3.847 3.874l-.185.564 1.533-.05c-.35.644-.668 1.208-.988 1.776.63-.137.51.144.541.341l-.049 1.776c.439.722 1.828-.898 1.84.295-2.562 1.848-4.261 1.29-5.058 2.843l12.34 1.171c-.237-.197-.756-3.169-3.348-3.275-1.73-.298-.195-1.534-.159-2.34.11-1.14.202-2.308.511-3.097l1.121-.353c1.436-2.055-.484-4.205-2.552-4.146z" stroke="gray" stroke-width=".088"/><path d="M267.75 235.77h29.746v1.207h-30.7l.953-1.208z" fill="#850404" stroke="#001c24" stroke-width=".251"/><path d="M259.313 224.676v6.023l-1.506 1.506v23.089s4.517-1.166 4.517-2.26v-6.07l6.525-.203v4.643h1.726v-22.712h-1.726v3.513l-2.007-2.008-1.004-1.505V225.9h-1.004v2.792l-1.506 1.505h-2.792v-5.52h-1.223zm.847 16.69h2.51v4.517h-2.51v-4.518zm4.015 0h4.518v4.517h-4.518v-4.518z" fill="#850404" stroke="#001c24" stroke-width=".251"/><path d="M263.176 220.125c1.425-.812 3.236-1.146 4.825-.656 1.39.36 1.215 2.176-.147 2.441-1.786.923-4.04-.058-5.683 1.218-1.004.624-1.334 2.882-2.843 1.954-.186-1.015 2.488-3.494 3.848-4.957zm1.582 5.834c.615-1.262 1.744-2.548 3.263-2.53 1.37-.351 2.642-1.263 3.236-2.571.506-6.289 11.982-.643 15.285.064 1.534.078 3.14-.128 4.477-.93.454-1.4 2.803-.973 2.822.473.59 1.489.476 3.187-.095 4.663-1.06 1.154-2.653.08-3.944.453-1.424.34-2.792 1.073-4.297.906-1.395.057-2.79-.02-4.184-.026-1.415.655-3.273.524-4.308 1.863-1.599 1.293-3.771.9-5.664.813-.905-.364-3.114.505-2.947-1.061.925-1.211 2.57-1.487 3.994-1.606 1.692-.032 3.583.276 5.047-.785 1.01-1.274 2.798-1.03 4.232-.964 1.225.055 2.723.673 3.727-.335 1.039-3.286-6.27-.536-7.79-.11-2.404.36-4.847.395-7.24.85-1.415.18-2.803.543-4.148.997-.494.058-.99-.04-1.466-.164z" fill="#797176" stroke="#001c24" stroke-width=".251"/></g><path style="text-align:center;line-height:125%" d="M282.319 156.038v-4.135h-1.51v-.974h4.303v.974h-1.51v4.135h-1.283zm2.78 0l1.725-5.11h1.4l1.726 5.11h-1.321l-.32-1.043h-1.605l-.32 1.043h-1.286zm2.93-1.97l-.522-1.684-.522 1.684h1.043zm7.16 1.97h-1.565l-1.423-1.874h-.46v1.874h-1.277v-5.11h2.056c.283 0 .53.019.74.054.211.035.406.11.584.221.183.117.328.265.436.445.107.18.161.407.161.684 0 .391-.088.709-.264.952a1.86 1.86 0 0 1-.707.582l1.72 2.172zm-2.065-3.545a.697.697 0 0 0-.074-.33.486.486 0 0 0-.246-.215.884.884 0 0 0-.267-.065 4.08 4.08 0 0 0-.367-.014h-.43v1.376h.368c.178 0 .33-.011.455-.033a.675.675 0 0 0 .5-.369.86.86 0 0 0 .06-.35zm1.897 3.545l1.726-5.11h1.4l1.726 5.11h-1.321l-.32-1.043h-1.605l-.32 1.043h-1.286zm2.93-1.97l-.521-1.684-.522 1.684h1.043zm6.368-1.527c0 .238-.037.465-.113.68a1.43 1.43 0 0 1-.326.538c-.087.09-.182.172-.286.248-.105.075-.22.14-.345.192a2.173 2.173 0 0 1-.41.123c-.148.03-.313.045-.496.045h-.673v1.67h-1.283v-5.108h1.983c.295 0 .55.027.764.08.214.054.408.14.581.256.193.128.341.3.446.513a1.7 1.7 0 0 1 .158.763zm-1.317.031a.66.66 0 0 0-.103-.372.542.542 0 0 0-.247-.214 1.07 1.07 0 0 0-.349-.091 6.613 6.613 0 0 0-.45-.012h-.183v1.53h.09c.12 0 .235-.001.343-.003.107-.003.201-.01.281-.025a.941.941 0 0 0 .218-.066.567.567 0 0 0 .177-.112.675.675 0 0 0 .176-.264 1.19 1.19 0 0 0 .047-.37zm1.461 3.466l1.726-5.11h1.4l1.726 5.11h-1.321l-.32-1.043h-1.605l-.319 1.043h-1.287zm2.93-1.97l-.521-1.684-.522 1.684h1.044zm4.64 2.07c-.767 0-1.375-.232-1.826-.696-.45-.463-.676-1.114-.676-1.954 0-.81.226-1.455.678-1.936.452-.482 1.06-.723 1.827-.723a3.662 3.662 0 0 1 1.016.13c.116.035.243.082.38.141.138.06.248.111.333.155v1.218h-.13a7.57 7.57 0 0 0-.234-.197 2.938 2.938 0 0 0-.319-.225 2.113 2.113 0 0 0-.393-.187 1.431 1.431 0 0 0-.957.01 1.22 1.22 0 0 0-.44.304 1.45 1.45 0 0 0-.315.528 2.286 2.286 0 0 0-.121.786c0 .318.042.585.126.801.085.216.196.39.333.523.133.128.281.221.445.278.163.057.326.086.489.086.169 0 .33-.028.483-.084.154-.056.283-.118.388-.187a2.65 2.65 0 0 0 .302-.216c.087-.073.162-.139.226-.196h.117v1.201l-.326.15c-.123.055-.25.103-.38.142a4.3 4.3 0 0 1-.45.11c-.14.025-.332.037-.577.037zm1.941-.1l1.726-5.11h1.4l1.726 5.11h-1.321l-.32-1.043h-1.605l-.319 1.043h-1.287zm2.93-1.97l-.521-1.684-.522 1.684h1.044zm.56-5.057l-1.03 1.348h-.816l.71-1.348h1.136zm-24.612 11.854c0 .204-.032.398-.097.583a1.226 1.226 0 0 1-.279.461 1.896 1.896 0 0 1-.246.212 1.43 1.43 0 0 1-.295.165c-.108.045-.225.08-.352.106a2.16 2.16 0 0 1-.424.038h-.577v1.432h-1.1v-4.379h1.7c.253 0 .471.023.654.07.184.045.35.118.499.218.165.11.292.257.382.44.09.183.135.401.135.654zm-1.129.027c0-.124-.03-.23-.088-.32a.465.465 0 0 0-.212-.183.918.918 0 0 0-.298-.078 5.668 5.668 0 0 0-.387-.01h-.156v1.311h.077c.103 0 .201 0 .294-.003a1.61 1.61 0 0 0 .24-.02.807.807 0 0 0 .188-.058.486.486 0 0 0 .151-.095.579.579 0 0 0 .151-.227c.027-.078.04-.184.04-.317zm1.253 2.97l1.48-4.379h1.2l1.479 4.38h-1.133l-.273-.895h-1.377l-.273.894h-1.103zm2.512-1.688l-.447-1.444-.447 1.444h.894zm6.56 1.688h-1.093v-2.903l-.797 1.874h-.75l-.797-1.874v2.903h-1.035v-4.379h1.267l.97 2.162.968-2.162h1.268v4.38zm4.274-2.997c0 .204-.032.398-.097.583a1.226 1.226 0 0 1-.28.461 1.897 1.897 0 0 1-.245.212c-.09.065-.188.12-.296.165-.107.045-.225.08-.351.106a2.16 2.16 0 0 1-.425.038h-.576v1.432h-1.1v-4.379h1.7c.252 0 .47.023.654.07.183.045.35.118.498.218.165.11.293.257.383.44.09.183.135.401.135.654zm-1.13.027a.569.569 0 0 0-.088-.32.465.465 0 0 0-.211-.183.918.918 0 0 0-.299-.078 5.668 5.668 0 0 0-.387-.01h-.155v1.311h.076c.104 0 .202 0 .294-.003.092-.002.173-.008.241-.02a.807.807 0 0 0 .187-.058.486.486 0 0 0 .152-.095.579.579 0 0 0 .151-.227c.026-.078.04-.184.04-.317zm1.254 2.97l1.479-4.379h1.2l1.48 4.38h-1.133l-.274-.895h-1.376l-.274.894h-1.102zm2.511-1.688l-.447-1.444-.447 1.444h.894z" font-size="14" font-weight="700" text-anchor="middle" font-family="Tahoma"/><path d="M335.325 206.978c-4.621 2.057-2.607.451-3.864.695-9.333 2.137-23.285-2.988-30.372 5.111l41.524-.247.239-9.217c-2.694 1.446-4.833 2.213-7.527 3.658z" fill="#850404" stroke="#001c24" stroke-width=".251"/><path d="M334.333 206.978c.347 1.11-2.62 1.673-2.872.695-.015-2.24-.226-5.918-.157-8.157-1.468-3.46-2.513-5.21-3.388-6.504-1.429-2.113-2.157-1.572-3.785-6.719 1.943.534 1.075 3.805 3.353 3.429-.35-1.214-.708-3.684.756-5.148.607-.265.415.685.313 1.265-1.154 1.547.58 3.382-.154 5.232.072 1.33 1.73 3.84 2.767 5.125.163-4.22-.062-6.717-.078-8.303-.06-6.272-1.724-5.044-1.687-9.112.393.551.362 1.932 1.286 2.544 2.236 1.219 2.355-6.818 4.8-5.96-.472 1.29-2.044 5.189-2.909 6.213-.335.397-.28.593-.284 1.147-.013 2.357.217 7.073.459 11.666.287 1.709 1.386.744 2.187.056 1.527-1.163 1.279-10.238 2.984-11.333.08 2.293.04 7.695-1.122 11.384-.564 1.79-1.616 3.176-2.617 3.61 0 2.957.148 5.913.148 8.87z" fill="green" stroke="#001c24" stroke-width=".251"/><g fill-rule="evenodd"><path d="M307.99 186.239c-.177-.194-.453-.565-.315-.057.137.508-.194 1.396.55 1.797.06-.162.156-.153.144-.342-.353-.096-.112-1.133-.38-1.4" fill="#9e5205" stroke="#630" stroke-width=".225"/><path d="M320.896 196.174c-.089.166.106.542.378.979a.755.755 0 0 1-.52-.302c.123.371.29.598.47.781-.122.047-.264-.002-.442-.277v.201c.05.16.155.39.208.551.148.074.185.399.287.637.213-.36.391-.762.155-1.692.203-.168-.026-.531-.213-.806.055.015.208.134.264.15-.051-.395-.136-.79-.47-1.188-.26-.152-.497-.154-.677.175-.047.198-.058.285.338.484.404.278.377.31.217.302" fill="#c63"/><path d="M308.217 201.147c.97.396 1.623 3.026 2.016 3.785.22.433.706 1.43.247 2.061-.2.279-.548.377-.569.603-.674.107-1.043.43-.99.925.274.444 1.254.352 1.73.086-.007-.117.066-.234.218-.35.035-.112.071-.226.109-.338 1.415-.71.43-1.606.601-3.555l.277 1.077c.095.82.199 1.647.132 2.39-.192.307-.407.596-.76.749-.306.114-.308.226-.627.685-.035.105-.2.383-.077.489.171.242.224.387 1.358.087.018-.148.04-.296.06-.444.138.056.24 0 .3-.175.026-.205.17-.412.435-.62-.016-.311.396-.314.52-.748.123-.435-.117-1.228-.175-1.842-.187-.974-.38-1.893-.35-2.853.463-.417.5-1.132.477-2.003.89.36 2.248-.352 2.673-.64.425-.29.22 1.888 1.776 2.782.34.316.486.514.62 1.008.532.517-.333 2.345-.884 2.927-.268.294-.682.833-.95 1.13-.416.248-1.013.548-.978 1.018.509.25 1.44.188 1.884 0 .035-.196.347-.546.093-.745.298.026.788-.222.862-.352.167-.457 1.344-2.88 1.665-3.305.208-.008.296-.564.278-.763-.035-.367-.079.04-.523-1.198.31.59 1.177 1.104 1.126 1.861-.1.56-.645 1.904-.744 2.467-.345.282-.218.577-.997.87-.366.294-.955.83-.966 1.185.395.202 1.417.353 1.942.086.115-.254.148-.638.263-.892.17-.038.096-.253.267-.293.184-.112.663-.085.85-.197.285-1.273.62-3.356.907-4.63.097-.267-.116-.995-.37-1.107-.57-.334-.955-1.091-1.353-1.56-.659-.479-.314-1.769.291-2.446.267.368.102.487.216.545.31.164.746-.721.598-1.156-.101-.556.02-.977-.115-1.7-.22-1.18-.906-1.432-1.572-.829-.856-.755-1.991-1.28-3.166-1.107-1.966-.578-3.374.054-4.225.343-1.154.233-1.72.728-2.418 1.306-.329.271-.734.06-.981-.253-.014-1.828.143-3.723.978-5.656-.332-.658-.119-.676-.303-1.59-.395-.603-1.082-.599-1.753-.628-.506-.052-1.015.249-1.523.712-.211.318-1.048.413-1.21.59-.162.176-.025.627.06.932.114.248.402.373.696.407.174.056.384.016.558.072.039.161.307.314.536.423-.513 1.33-.86 3.553-.738 5.656.026 1.062.065 2.494 1.256 3.419.453.352.169.927.426 1.31" fill="#630"/><path d="M309.579 188.383c-.595-.544-1.33-.737-2.37-.161-.477.515-.896.515-1.418.71-.016.2-.194.307-.301.291.037.07.06.27.1.338.169.175.642.13 1.084.128-.353.108-.733.162-1.001.096.092.173.393.518 1.117.355.19.383.571.705 1.334.403.226.042.555-.14.784-.193-.365.388-.814.66-1.225.703-.132.403-1.027 3.26-.895 5.038-.066.661.224 1.978.605 2.879.185.437.513.5.687.737.435.595.303 1.156.492 1.429 1.245.172 1.354 3.743 2.047 3.575.514-.123.752-1.933.102-2.307-2.162-1.244-1.374-4.28-1.487-4.017.47 1.626.146 3.195 1.226 3.114.867-.354 1.285 2.141 1.269 2.543-.019.589.139.696.254 1.149.089.351.118.916.222 2.047.026.282.01.46-.064.701-.227.323-.465.686-.909.851-.465.173-.68.733-.557.896.104.14.522.328 1.043.034.025-.085.115-.193.113-.452.356-.027.365-.49.685-.789-.074-.287.566-.372.559-.921-.005-.56-.28-1.787-.507-2.822-.247-.553-.245-1.136-.282-1.438.156-.417-.354-.423-.018-.74.684-.645.601-1.724-.344-2.777.191-.108.281-.417.425-.628l-.003.767.766.905c.744.174 2.361-.3 2.89-.995.384-.293.715-.638.68-1.337-.004-.117.428 0 .354.092-.157.201.114.39.044.707-.05.236-.638.404-.61.623l.16 1.255c.099.79.672 1.59 1.512 2.385l.596 1.288c.05.76-1.047 2.23-1.612 2.915-.2.163-.384.544-.585.71-.245.083-.617.333-.934.762.291.096.856.192 1.503-.007.162-.153.144-.563 0-.692.38-.077.71-.153.941-.401a39.554 39.554 0 0 1 1.79-3.43c.2-.26.146-.692-.173-1.044-.685-1.447-.847-2.56-.489-3.336.581-.192 1.094-1.224 1.231-2.175.164-1.142-.067-2.383-.694-2.887-.573-.61-1.78-.972-2.823-.826-1.561-.632-4.69.302-5.187.652-.934.13-1.163 1.12-1.887 1.056-.462-.037-.811-.4-.867-.922.012-4.267 1.073-4.738.955-5.45-.088-.226-.277-.388-.5-.484.178-.166.329-.334.282-.502-.036-.139-.076-.28-.115-.419" fill="#b36633"/><path d="M306.839 189.046c.485-.168.497-.385 1.07-.226.384.199.338.253.463.452-.211-.107-.276-.177-.4-.111-.22.125-.618.091-.697-.097-.161-.054-.275.036-.436-.016" fill="#630"/><path d="M310.406 201.817c-.13.461-.125.678.144 1.142-.312.453-.333 1.001.178 1.59-.421.751.155 1.156.115 2.128-.238.608-.7.612-.71 1.006-.577.094-.998.234-1.01.672-.03.068.118-.145.3-.094-.186.115-.244.231-.185.265.158.087.447.123.826.114.146-.05.357-.056.426-.307-.02-.096-.084-.287-.102-.383.578-.116.796-.405.819-1.004.064.233.168.37.177.491.146-.21.315-.486.236-.777-.277-1.028-.277-1.69-.166-2.43.011-1.806-.5-2.08-1.048-2.415m10.478-5.558c-.088.166.106.542.38.98a.755.755 0 0 1-.521-.304 1.9 1.9 0 0 0 .47.782c-.123.048-.264-.002-.442-.278v.202c.05.16.155.39.207.551.148.074.186.399.288.636.21-.358.39-.761.155-1.69.203-.169-.026-.532-.214-.807.056.015.209.134.266.15-.05-.394-.136-.791-.47-1.188-.26-.152-.496-.154-.676.175-.047.197-.058.285.337.484.405.278.377.309.217.303" fill="#b36633"/><path d="M318.886 199.388c-.03.95-.238 1.56-.222 2.375.016.768.402 1.606.82 2.476-.129-.144-.311-.413-.44-.353-.072-.58-.368-.889-.57-1.328-.229-.497-.351-1.106-.16-1.425a4.735 4.735 0 0 0 .574-1.742" fill="#9e5205"/><path d="M321.102 204.366c.034.183.066.37.103.556-.185 1.055-.437 1.964-.832 2.55-.234.169-.398.337-.495.505l-.39.378c-.486.209-.792.538-1.07.883.487.244.975.135 1.46-.025l.337-.882.26-.202c.233-.1.86-.327.91-.58.09-1.355.355-2.432.703-3.788.15-.508.15-.954-.182-1.261-.493-.359-.941-.732-1.225-1.16a2.15 2.15 0 0 1-.704-1.414c-.286.379-.432.757-.441 1.136-.2.598-.035 1.196.183 1.794l1.38 1.514" fill="#b36633"/><path d="M320.139 200.829c.088 1.218 1.538 1.951 1.573 3.174.028-.406.106-.79-.213-1.499-.497-.342-.934-.97-1.358-1.675m1.389 1.603c.264.348.423.695.481 1.04.04-.235.137-.469-.042-.708a.665.665 0 0 0-.437-.332" fill="#9e5205"/><path d="M308.745 188.136c.105-.145.36-.657.256-1.06-.115-.442-.315-.447-.447-.95-.087-.233-.144-.217-.167.046-.06.586-.232 1.338.21 1.891a12.605 12.605 0 0 0-.037-1.053c.154.526.212.64.187 1.126" fill="#be6b46" stroke="#630" stroke-width=".22"/></g><path d="M317.278 216.743l-.148.594a.14.14 0 0 0 .056.11l-.002.255a.124.124 0 0 0-.057.103l-.079 11.673.289.017.078-11.673a.14.14 0 0 0-.056-.11l.002-.255a.124.124 0 0 0 .057-.103l-.14-.611z" stroke="#000" stroke-width=".078" stroke-linecap="round" stroke-linejoin="round"/><path d="M328.934 221.66c0 .786 3.07.127 3.514-.502 1.023-1.449 4.015-.339 4.015 1.004 0 1.433 2.172-.324 1.254 1.506-.325.65-5.952.208-6.775.208-3.687 0-9.02-.208-7.529-.208.374 0 5.521-5.934 5.521-2.008zm8.533 8.533h-9.536c-1.174 0 4.015-6.82 4.015-3.012 0 .853 1.8.029 2.51.502 1.23.821 3.011 1.176 3.011 2.51z" fill="#fff" fill-rule="evenodd" stroke="#001c24" stroke-width=".251"/><path d="M321.404 220.357a13.57 13.57 0 0 0-.963-.378 8.986 8.986 0 0 0-1.033-.291 5.64 5.64 0 0 0-1.489-.132 4.26 4.26 0 0 0-.478.053l-.027.02.089 1.74c2.113-.635 3.82.758 3.841.755-.017-.01.054-.89.06-1.767z" fill="#d40000" stroke="#000" stroke-width=".078" stroke-linecap="round" stroke-linejoin="round"/><path d="M319.677 218.086l.087 1.698.028-.021c.008.013.018.025.025.038.208.056.414.106.624.178.318.11.64.238.963.378.004-.744-.035-1.488-.235-1.674-.468-.359-.986-.518-1.492-.597z" fill="#fff" stroke="#000" stroke-width=".078" stroke-linecap="round" stroke-linejoin="round"/><path d="M317.327 217.924l.087 1.705.027-.02a4.392 4.392 0 0 1 .965-.055 5.64 5.64 0 0 1 1.002.134c.134.028.273.077.41.113l-.026-.038-.028.02-.087-1.697c-.995-.155-1.94.032-2.35-.162z" fill="navy" stroke="#000" stroke-width=".078" stroke-linecap="round" stroke-linejoin="round"/><path d="M322.787 221.34a3.504 3.504 0 0 1-.256-.054 4.505 4.505 0 0 1-.634-.218c-.398-.168-.775-.373-1.165-.554.01.822.027 1.538.043 1.423.486.322 3.149 1.825 3.776 1.45l-1.764-2.047z" fill="#d40000" stroke="#000" stroke-width=".078" stroke-linecap="round" stroke-linejoin="round"/><path d="M320.733 218.585c-.014.335-.01 1.178-.001 1.93.39.18.767.385 1.165.553.204.086.413.162.634.218.083.022.17.038.256.054l-.026-.032 1.699-1.39c-1.66.686-3.787-.72-3.727-1.333z" fill="#fff" stroke="#000" stroke-width=".078" stroke-linecap="round" stroke-linejoin="round"/><path d="M318.777 219.227l-.315-.21-.279.205.104-.364-.282-.203.378-.013.105-.33.13.355.347-.002-.298.233.11.33z" fill="#fff"/><g stroke="#000"><path d="M315.106 241.857l.012.685-.346.365.359.175.038 1.874-.191.199.196.094.03 1.492-.086.238.093.231.033 1.69-.128.209.138.217.015.726-.077.187.085.258v.007c.046.248.08.497.105.746-.22.201-.129.228-.048.383.037.578.099 1.115.07 1.692l-.16.32.135.14c-.017.28-.038.56-.057.84.003.3-.007.579-.025.843l-.06.252-.684-.066-.09-.456c.038-.306.072-.623.101-.951l.12-.14-.105-.43-.025-1.27.034-.236-.044-.246-.028-1.286.13-.169-.135-.175c-.008-.425-.018-.849-.027-1.273l.043-.193-.056-.316-.02-.986.049-.228-.061-.295-.025-1.208.18-.249-.19-.213-.025-1.161.16-.21-.17-.22-.016-.711.176-.23-.186-.24-.015-.705h.778z" fill="#784421" stroke-width=".072"/><path d="M312.417 238.333s.573.306.72.423c0 0-.355.031-.575.222 0 0 .697.058.856.146 0 0-.562.176-.648.264 0 0 .82.028.967.087 0 0-.49.133-.648.206 0 0 .88.088.977.161.098.059-.732.146-.732.146s.829.176.927.293l-.55.103s.733.175.782.41c0 0-1.21-.601-1.857-.748-.648-.146-1.672-.366-2.173-.058-.5.293-1.002.981-.953 1.406 0 0 .305-.66.806-.996l-.5.821.573-.6s-.208.31-.287.55c.087-.137.628-.98.74-1.034 0 0-.356.63-.405.82 0 0 .721-.88.856-.88 0 0-.475.66-.524.938 0 0 .696-.819 1.05-.878 0 0-.5.483-.574.659l.598-.571s-.305.512-.329.63c0 0 .402-.6.732-.63 0 0-.354.424-.403.57 0 0 .574-.512.745-.541 0 0-.343.337-.429.484 0 0 .502-.353.624-.397l-.218.424.403-.32-.306.322.013.002-.11-.004a3.796 3.796 0 0 0-.722.03c-.598.118-2.029.792-2.383 1.994-.196.659.05.835.05.835s.048-.88.255-.997c0 0-.097.674 0 .836l.124-.571.121.336s.024-.57.098-.746c0 0 .024.718.097.777 0 0-.01-1.04.16-1.29 0 0-.159.6.024.82 0 0 .05-.968.343-1.203 0 0-.32.836-.124 1.07 0 0 .184-1.01.587-1.29 0 0-.402.631-.231.939 0 0 .427-1.085.769-1.202 0 0-.342.484-.293.777 0 0 .402-.777.622-.806l-.219.63s.403-.601.537-.63c0 0-.183.294-.17.411 0 0 .355-.353.452-.44l-.118.22c-.096.06-.211.135-.335.22a6.25 6.25 0 0 0-.953.79c-.489.528-1.185 1.319-1.014 2.726 0 0 .074-.719.147-.777 0 0 0 .44.074.499 0 0-.026-.747.048-.864 0 0 .05.6.147.658 0 0-.025-.996.024-1.113 0 0 .037.527.11.63 0 0 .146-1.144.293-1.29 0 0-.171.763-.098 1.276 0 0 .123-.659.171-.761 0 0 0 .395.158.512 0 0-.06-.776 0-.967 0 0 .075.279.148.455 0 0-.072-.573-.047-.69 0 0 .058.374.216.509-.045.017-.076.037-.085.058l.648.055-.795.355.526-.054s-.695.476-.597 1.43c0 0 .122-.628.476-.873 0 0-.087.777.071 1.008 0 0 .172-1.035.245-1.24 0 0 .161.647.161.885.006-.076.071-.888.071-.98 0 0 .185.132.248.27-.033-.221-.086-.753-.05-.842.048-.11.168.573.168.573l.124-.79.182.722s.073-.859.073-.94c0-.08.122.377.172.561a.456.456 0 0 0-.108.1l.142.022.002.01v-.01c.132.022.307.05.356.05 0 0-.525.147-.574.323 0 0 .293.059.403 0 0 0-.33.366-.427.659 0 0 .305-.293.427-.352 0 0-.354.498-.33.864l.28-.336s-.306.542-.306.733l.306-.367s-.121.997.05 1.144l.074-1.086s.195 0 .402.835l-.231-1.068s.329.263.329.57c0 .294.097-.453-.306-1.054 0 0 .434.52.543.781-.046-.137-.322-.957-.435-1.171l.467.726s-.011-.696-.324-1.06l.508.505s-.141-.551-.258-.767l.282.384s-.218-.607-.367-.818l.367.467s-.093-.65-.182-.892l.182.336-.098-.645.171.204s-.011-.381-.06-.454c-.05-.074.097.03.097.03l.071-.586s.063.513-.084.938c0 0 .234-.18.292-.343l-.12.724.318-.352-.282.704.44-.542s-.27.775-.343.82c-.085.058.367-.236.367-.236l-.306.705s.231-.175.38-.342c-.112.259-.266.66-.32.727.031-.025.275-.226.372-.408-.068.174-.255.644-.345.74 0 0 .395-.331.482-.567-.044.164-.278 1.036-.41 1.17 0 0 .252-.136.323-.228-.05.1-.384.777-.543.886 0 0 .427-.176.561-.513 0 0-.073.79-.342 1.084 0 0 .43-.454.503-.981 0 0 .182.776.145 1.157 0 0 .134-1.216 0-1.612 0 0 .272.506.324.77-.011-.22-.061-1.086-.242-1.422.074.111.233.364.31.598-.072-.281-.267-1.007-.44-1.296l.5.72s-.313-.87-.51-1.244l.28.394s-.222-.747-.393-.835a.928.928 0 0 1-.269-.206l.477.235s-.1-.17-.227-.367c.423.262.472.802.472.802.073-.081.073-.394.073-.394.098.095.098.761.098.761.073-.095.074-.475.074-.475.073.231.036.815.036.815.062 0 .182-.516.182-.516.086.122.087.763.087.763.073-.109.171-.45.171-.45.025.108.048.776.048.776.11-.027.208-.435.208-.435.049.082.22.72.22.72.05-1.007-.453-1.537-.697-1.959-.088-.14-.269-.245-.469-.324a.994.994 0 0 0-.179-.713s.564.718.6.909c0 0-.042-.553-.134-.736.073.108.505.753.561.969 0 0-.03-.548-.2-.862.158.234.51.789.566 1.142 0 0-.048-.698-.131-1.022.098.225.47 1.082.534 1.315 0 0 .002-.652-.073-.85.057.105.356.663.4.928-.006-.122-.035-.666-.113-.892.095.183.39.761.41.96 0 0-.041-.556-.105-.704.042.07.243.416.29.641l-.087-.596s.234.425.292.6l-.084-.41s.208.22.287.333c-.077-.13-.538-.89-.74-1.051-.16-.122-.764-.492-1.23-.73a3.756 3.756 0 0 0-.226-.556c.116.15.34.446.358.554 0 0-.037-.453-.1-.626.081.148.348.637.368.787 0 0-.02-.59-.081-.771.047.095.364.726.387.916 0 0-.051-.718-.1-.806 0 0 .324.58.324.773.014-.069.084-.441.034-.687.08.175.184.456.169.72l.023-.425s.093.35.1.515c.015-.117.048-.338.048-.338s.071.093.123.214c-.043-.244-.113-.576-.194-.75.073.13.453.81.497 1.035.05.22.024-.25.024-.25s.124.263.124.541c0 0 .08-.56-.087-.96.104.182.225.444.245.727l.074-.28s.123.338.147.72c0 0 .146-.602-.208-1.07 0 0 .463.439.524 1.318v-.79s.257.57.282.819c0 0 .05-1.142-.598-1.567-.504-.32-1.09-.47-1.585-.52-.055-.205-.345-.397-.345-.397.195.068.721.408.721.408-.049-.19-.318-.395-.318-.395.17.123.745.422.745.422 0-.075-.268-.33-.43-.478l.282.233c.367.3.43.354.43.354 0-.218-.527-.775-.527-.775.293.027.977.815.977.815.049-.15-.255-.68-.255-.68.207.055.684.816.684.816.098-.081-.258-.707-.258-.707.135.055.6.68.6.68.05-.258-.331-.68-.331-.68.183.096.808.517.808.517-.88-1.185-1.675-.98-2.725-1.008-1.054.041-1.488.33-2.344.72l.095-.102c.122-.044.295-.146.295-.146l.352-.161c.025-.03.258-.103.356-.132.11-.03-.33-.249-.5-.249 0 0 .585-.161.963.03 0 0-.428-.31-.721-.339 0 0 .854.088 1.074.22 0 0-.17-.248-.45-.307 0 0 .549.03.83.235 0 0-.418-.387-.611-.472.096.028.654.193.855.353 0 0-.164-.204-.308-.334.14.063.308.13.308.13s-.218-.235-.352-.308c0 0 .756.25.903.425 0 0-.365-.572-.522-.715.104.063.358.218.432.3-.025-.034-.234-.305-.303-.333 0 0 .551.25.722.412 0 0-.5-.808-1.148-.676-.66.103-1.662.676-1.833.866-.171.176-.792.572-1.025 1.348 0 0-.294-.718-.526-.996-.22-.264-.793-1.216-1.844-1.348zm6 3.48c.027.157.047.286.047.286a.48.48 0 0 0-.048-.285zm-5.815 2.178c.012.082.02.128.02.083a.207.207 0 0 0-.02-.083zm-2.5-2.822l-.031.05s-.037.322 0 .088a.567.567 0 0 1 .031-.138zm6.921-.847c.168.023.51.363.606.462a4.01 4.01 0 0 0-.224-.015 3.578 3.578 0 0 0-.382-.447zm-.25.064c.004 0 .01.001.019.004.095.01.426.263.571.377l-.097-.002-.248-.002c-.017-.021-.305-.365-.245-.377zm-.276.058l.513.319-.513-.002v-.317zm-.38.082c.069 0 .331.207.366.235h-.36c-.027-.088-.066-.235-.006-.235zm-.034.235c-.369.003-.004-.014-.285.017.206-.168.038-.16.285-.017zm.4.276c.093.123.198.276.23.374h-.003a4.589 4.589 0 0 0-.227-.374zm-3.041.386h.413c-.226.082-.5.177-.83.282l.246.136-.77.136c-.003 0-.004.002-.007.004.008-.045.099-.499.192-.527v.394s.122-.306.208-.365l.047.249s.39-.309.5-.309zm2.21.262c.076.09.337.397.44.614a3.048 3.048 0 0 0-.333-.105c-.008-.148-.032-.392-.108-.509zm-3.187.018s-.021.189.02.281c-.07.05.443.197.443.197s-.732.042-.806.11c-.073.055.598.136.598.136s-.462.069-.764.142c-.034-.165-.083-.417-.065-.47l.22.352s-.171-.514.085-.66l.063.425s.035-.337.206-.513zm1.532.062c.001-.001.007.01.016.023h-.008v-.002l-.008-.021zm.177.023l.013.002h-.013v-.002zm4.071.156c-.006.053-.01.09-.002.052a.246.246 0 0 0 .002-.052zm-2.775.056l.15.163-.048-.01c-.034-.05-.067-.103-.102-.153zm-1.454.008a.266.266 0 0 1 .1.017s-.042.008-.103.024l.003-.041zm-.224.083l.008.022c-.003 0-.005 0-.008.002v-.024zm.2.179c.02 0 .037.001.05.004l-.052.02.002-.024zm-.137.012c.01.025.01.03.019.054a2.69 2.69 0 0 0-.124.05c.007-.03.016-.06.02-.089.03-.005.058-.012.085-.015zm-2.122.021l.168.278a1.265 1.265 0 0 0-.118.037 1.57 1.57 0 0 1-.05-.315zm1.75.052l.022.154-.024.015c.004-.06.005-.12.003-.169zm-.178.11c.005.005.035.076.068.156l-.002.004h.002c.029.07.048.114.06.146a.852.852 0 0 0-.12.07c0-.162 0-.313-.006-.36-.004-.013-.004-.019-.002-.017zm-1.694.073s.083.232.174.31l-.126.028.695.081s-.452.034-.68.105c-.022-.103-.083-.403-.063-.524zm2.202.05a.525.525 0 0 1 .132.008s-.121.029-.264.076l.021-.078.111-.006zm-.295.022l.016.116-.074.031c.004-.034.01-.066.016-.143l.042-.004zm-.858.048l-.825.18c-.004-.02-.02-.079-.037-.147.046.003.105.003.172.002l.02.035-.007-.035c.283-.004.677-.035.677-.035zm.998.266c.118-.002.218.006.237.04 0 0-.363.14-.585.285l.003-.3c.066-.007.157-.015.247-.02l.016.11s.017-.053.034-.113l.048-.002zm2.552 1.92zm-.072.829l.006.074a.293.293 0 0 0-.006-.074z" fill="#008f4c" stroke-width=".036"/></g><g stroke="#000"><path d="M325.435 247.658l.013.685-.346.364.359.176.037 1.873-.19.199.195.094.03 1.492-.085.238.093.231.032 1.691-.128.208.138.217.016.726-.077.187.084.258v.007c.046.249.081.497.105.746-.22.201-.128.228-.047.384.036.577.098 1.114.07 1.691l-.16.321.135.138c-.018.28-.038.56-.058.84.003.302-.006.58-.025.845l-.06.25-.684-.065-.089-.455c.037-.307.072-.624.1-.952l.12-.14-.104-.43c-.01-.423-.016-.847-.025-1.27l.033-.236-.043-.246c-.01-.429-.02-.857-.028-1.286l.13-.169-.135-.175-.028-1.273.043-.192-.055-.317-.02-.986.048-.228-.06-.295c-.01-.402-.017-.805-.026-1.208l.18-.249-.19-.213-.025-1.161.16-.21-.17-.219-.015-.712.176-.23-.186-.24-.015-.704h.777z" fill="#784421" stroke-width=".072"/><path d="M322.747 244.133s.572.306.719.424c0 0-.354.03-.574.221 0 0 .697.058.856.146 0 0-.563.176-.648.264 0 0 .82.029.966.087 0 0-.489.133-.648.206 0 0 .88.088.977.161.098.059-.732.146-.732.146s.83.176.927.293l-.55.103s.733.176.782.41c0 0-1.21-.601-1.857-.748-.647-.146-1.671-.366-2.172-.058-.501.293-1.002.981-.954 1.406 0 0 .305-.66.806-.996l-.5.821.574-.6s-.208.31-.287.55c.087-.137.627-.98.74-1.033 0 0-.357.629-.406.82 0 0 .722-.88.856-.88 0 0-.475.66-.524.938 0 0 .697-.82 1.051-.878 0 0-.5.482-.574.658l.598-.571s-.305.512-.33.63c0 0 .403-.6.733-.63 0 0-.354.425-.403.571 0 0 .574-.513.745-.542 0 0-.344.337-.43.484 0 0 .503-.352.625-.396l-.219.423.403-.32-.305.322.013.002-.11-.004c-.293-.007-.556-.001-.722.031-.599.117-2.03.791-2.384 1.993-.195.66.05.835.05.835s.048-.88.256-.996c0 0-.098.674 0 .835l.124-.571.12.336s.025-.57.098-.746c0 0 .024.718.098.777 0 0-.01-1.04.16-1.29 0 0-.16.6.024.82 0 0 .05-.968.342-1.202 0 0-.319.835-.123 1.07 0 0 .184-1.012.587-1.29 0 0-.403.63-.232.938 0 0 .427-1.085.77-1.202 0 0-.342.484-.293.777 0 0 .401-.777.621-.806l-.218.631s.403-.602.537-.631c0 0-.183.294-.171.412 0 0 .355-.353.453-.441l-.119.221c-.095.059-.21.134-.334.22a6.25 6.25 0 0 0-.954.79c-.488.528-1.184 1.318-1.013 2.725 0 0 .074-.718.147-.777 0 0 0 .44.074.5 0 0-.026-.748.047-.865 0 0 .05.6.148.658 0 0-.025-.995.023-1.113 0 0 .038.527.111.63 0 0 .146-1.143.292-1.29 0 0-.17.763-.097 1.276 0 0 .122-.659.171-.761 0 0 0 .395.158.513 0 0-.061-.777 0-.968 0 0 .074.279.148.455 0 0-.072-.572-.048-.69 0 0 .059.374.216.51-.044.017-.076.036-.084.057l.648.055-.796.355.527-.054s-.696.476-.598 1.43c0 0 .123-.628.477-.873 0 0-.088.777.071 1.008 0 0 .172-1.035.245-1.239 0 0 .16.646.16.884.007-.076.072-.888.072-.979 0 0 .185.131.247.27-.032-.222-.085-.754-.05-.843.049-.109.169.573.169.573l.123-.79.182.722s.074-.858.074-.94c0-.079.122.377.171.561a.456.456 0 0 0-.108.1l.142.023.003.01v-.01c.132.021.306.05.356.05 0 0-.526.147-.575.323 0 0 .293.058.403 0 0 0-.329.365-.426.658 0 0 .304-.293.426-.352 0 0-.353.498-.329.865l.28-.336s-.306.541-.306.732l.305-.367s-.12.997.05 1.144l.074-1.086s.195 0 .403.835l-.232-1.068s.33.263.33.571c0 .293.097-.454-.306-1.055 0 0 .433.52.542.781-.046-.137-.322-.957-.434-1.171l.466.726s-.01-.695-.324-1.06l.508.505s-.14-.551-.258-.767l.282.384s-.217-.607-.366-.817l.366.466s-.093-.65-.182-.892l.182.336-.097-.645.17.204s-.01-.38-.06-.454c-.049-.073.098.031.098.031l.07-.587s.063.514-.083.939c0 0 .233-.182.292-.344l-.121.724.318-.351-.281.703.44-.542s-.27.776-.343.82c-.085.058.366-.235.366-.235l-.305.705s.23-.176.379-.342c-.111.258-.265.66-.319.726.03-.025.275-.226.372-.408-.069.174-.255.644-.345.74 0 0 .395-.331.481-.567-.043.164-.277 1.036-.41 1.17 0 0 .252-.135.324-.228-.05.1-.384.777-.543.886 0 0 .427-.176.561-.513 0 0-.074.79-.342 1.084 0 0 .43-.454.503-.981 0 0 .181.776.144 1.157 0 0 .135-1.216 0-1.612 0 0 .273.506.324.77-.01-.22-.06-1.086-.242-1.422.074.111.233.364.31.598-.071-.281-.266-1.007-.439-1.295l.5.72s-.314-.871-.51-1.245l.279.394s-.222-.747-.393-.835a.928.928 0 0 1-.268-.206l.476.235s-.1-.17-.226-.367c.423.262.471.802.471.802.074-.081.074-.394.074-.394.098.096.097.762.097.762.074-.096.074-.476.074-.476.073.231.037.815.037.815.061 0 .182-.516.182-.516.085.122.087.763.087.763.073-.109.17-.45.17-.45.025.108.048.776.048.776.11-.027.208-.435.208-.435.05.082.222.72.222.72.048-1.007-.454-1.537-.698-1.959-.088-.14-.27-.245-.47-.324a.994.994 0 0 0-.178-.713s.564.719.6.909c0 0-.043-.553-.134-.736.072.108.505.754.56.97 0 0-.029-.55-.2-.863.158.235.51.79.567 1.142 0 0-.048-.698-.132-1.022.098.225.47 1.083.535 1.315 0 0 .002-.652-.074-.85.057.105.357.663.4.928-.005-.122-.034-.665-.113-.892.095.184.39.762.411.96 0 0-.042-.556-.105-.703.041.07.243.415.29.64l-.088-.596s.234.425.293.6l-.085-.41s.209.22.288.333c-.078-.129-.539-.89-.74-1.051-.16-.121-.764-.492-1.23-.73a3.756 3.756 0 0 0-.227-.556c.117.15.34.446.358.554 0 0-.037-.453-.1-.626.082.148.348.637.369.787 0 0-.02-.59-.082-.771.048.095.365.727.387.917 0 0-.05-.718-.1-.806 0 0 .324.58.324.773.014-.07.085-.442.035-.688.08.175.183.456.168.72l.024-.425s.093.35.1.515c.014-.116.047-.338.047-.338s.072.094.124.214c-.044-.244-.113-.575-.195-.75.074.13.454.81.498 1.035.049.22.024-.25.024-.25s.123.263.123.542c0 0 .08-.56-.087-.96.105.181.225.443.245.726l.074-.28s.123.338.148.72c0 0 .146-.602-.208-1.07 0 0 .463.439.524 1.318v-.79s.257.57.281.82c0 0 .05-1.143-.597-1.568-.505-.32-1.091-.47-1.586-.52-.055-.205-.345-.397-.345-.397.196.068.722.408.722.408-.05-.19-.319-.394-.319-.394.171.122.745.421.745.421 0-.075-.267-.33-.429-.478.055.047.123.102.282.233.366.3.43.354.43.354 0-.218-.528-.775-.528-.775.294.027.978.816.978.816.048-.15-.256-.68-.256-.68.208.054.685.816.685.816.098-.082-.258-.707-.258-.707.134.054.6.68.6.68.049-.26-.332-.68-.332-.68.184.095.809.516.809.516-.88-1.184-1.675-.98-2.726-1.008-1.053.042-1.488.33-2.344.72l.095-.102c.122-.044.295-.146.295-.146l.353-.161c.024-.03.258-.103.355-.132.11-.03-.329-.249-.5-.249 0 0 .585-.161.964.03 0 0-.428-.31-.722-.338 0 0 .855.087 1.075.219 0 0-.17-.248-.45-.307 0 0 .548.03.83.235 0 0-.419-.387-.612-.472.097.028.655.193.856.354 0 0-.164-.204-.308-.334.14.062.308.13.308.13s-.219-.236-.353-.31c0 0 .757.25.903.426 0 0-.364-.571-.521-.714.104.062.357.217.432.299-.026-.034-.234-.305-.303-.332 0 0 .55.25.722.411 0 0-.501-.807-1.149-.676-.66.103-1.662.676-1.833.867-.17.175-.792.57-1.024 1.348 0 0-.295-.718-.527-.997-.22-.264-.793-1.216-1.843-1.348zm5.999 3.48c.028.157.047.286.047.286a.48.48 0 0 0-.047-.285zm-5.815 2.178c.012.083.021.128.021.083a.207.207 0 0 0-.02-.083zm-2.499-2.822l-.032.05s-.036.322 0 .088a.567.567 0 0 1 .032-.138zm6.92-.847c.169.024.51.363.607.462a4.01 4.01 0 0 0-.224-.015 3.578 3.578 0 0 0-.382-.447zm-.25.064l.02.004c.094.01.425.263.57.377l-.097-.002-.247-.002c-.018-.02-.305-.364-.245-.377zm-.276.058l.514.319-.514-.002v-.317zm-.38.082c.07 0 .332.207.367.235h-.36c-.028-.088-.067-.235-.006-.235zm-.033.235c-.37.004-.005-.014-.286.018.207-.169.038-.16.286-.018zm.4.276c.092.123.197.276.23.375h-.004a4.589 4.589 0 0 0-.226-.375zm-3.042.386h.414c-.227.082-.5.178-.83.282l.245.136s-.61.109-.769.136c-.004 0-.005.003-.008.004.009-.045.1-.499.192-.527v.395s.123-.307.209-.365l.047.248s.39-.309.5-.309zm2.21.263c.077.089.338.396.44.613a3.048 3.048 0 0 0-.332-.105c-.009-.148-.033-.392-.108-.508zm-3.187.017s-.02.189.021.282c-.07.05.443.196.443.196s-.733.042-.806.11c-.073.055.598.136.598.136s-.462.07-.764.142c-.034-.165-.084-.417-.066-.47l.221.352s-.172-.514.085-.66l.063.425s.034-.337.205-.513zm1.533.062l.016.023h-.008v-.001c-.006-.014-.009-.02-.008-.022zm.176.023l.014.002h-.014v-.002zm4.072.156c-.007.053-.01.09-.003.052a.246.246 0 0 0 .003-.052zm-2.776.056l.15.163-.047-.01c-.034-.05-.068-.103-.103-.153zm-1.454.008a.266.266 0 0 1 .1.017s-.042.008-.102.024l.002-.041zm-.223.083l.007.022c-.002 0-.005 0-.007.002v-.024zm.2.18c.019 0 .037 0 .05.003l-.053.02.003-.024zm-.137.01l.018.055-.124.05c.007-.03.016-.06.021-.089l.085-.015zm-2.123.022l.169.278a1.265 1.265 0 0 0-.119.037 1.57 1.57 0 0 1-.05-.315zm1.751.053l.022.153-.024.016c.003-.06.004-.121.002-.17zm-.179.108c.005.006.035.077.069.158l-.003.004h.003l.06.145a.852.852 0 0 0-.12.07c0-.162-.001-.313-.006-.36-.005-.013-.004-.018-.003-.017zm-1.693.074s.082.232.174.31l-.127.028.696.082s-.452.033-.68.105c-.022-.104-.083-.403-.063-.525zm2.202.05a.525.525 0 0 1 .131.008s-.12.029-.263.076c.007-.028.014-.048.021-.078.038-.002.077-.005.11-.005zm-.295.022l.015.117-.073.03c.004-.034.01-.066.016-.143l.042-.004zm-.859.049l-.824.178c-.005-.019-.021-.078-.037-.145.046.003.105.002.171.002l.021.035-.008-.035c.283-.005.677-.035.677-.035zm.998.266c.119-.003.219.006.237.039 0 0-.362.14-.584.285l.002-.3c.067-.007.157-.015.248-.02l.016.11.034-.112.047-.002zm2.552 1.919zm-.071.829c0 .019.005.074.005.074a.293.293 0 0 0-.005-.074z" fill="#008f4c" stroke-width=".036"/></g><g stroke="#000"><path d="M307.075 249.888l.013.685-.346.365.358.175.038 1.873-.19.2.195.094.03 1.492-.086.238.094.23.032 1.692-.128.207.138.218.015.725-.076.187.084.259v.007c.046.248.08.497.105.745-.22.202-.129.229-.047.384.036.577.098 1.115.07 1.692l-.161.32.136.139c-.018.28-.039.56-.058.84.003.301-.007.58-.025.844l-.06.251-.684-.065-.089-.456c.037-.307.072-.623.1-.952l.12-.139-.105-.431-.025-1.269.034-.236-.044-.247-.027-1.285.13-.17-.135-.175-.028-1.272.043-.193-.055-.317-.02-.985.048-.228-.061-.295-.025-1.208.18-.25-.19-.213-.025-1.16.16-.21-.17-.22-.015-.711.175-.23-.185-.24-.015-.705h.777z" fill="#784421" stroke-width=".072"/><path d="M304.387 246.364s.572.306.719.423c0 0-.355.031-.575.222 0 0 .698.057.856.145 0 0-.562.177-.648.264 0 0 .82.03.967.088 0 0-.49.132-.648.206 0 0 .88.088.977.16.098.06-.732.147-.732.147s.83.176.927.293l-.55.103s.733.175.782.41c0 0-1.21-.602-1.857-.748-.647-.147-1.672-.366-2.173-.058-.5.293-1.002.98-.953 1.406 0 0 .305-.66.806-.997l-.5.822.574-.6s-.208.31-.287.55c.086-.137.627-.98.74-1.034 0 0-.357.63-.406.82 0 0 .722-.88.856-.88 0 0-.475.66-.524.938 0 0 .697-.82 1.05-.878 0 0-.5.483-.573.659l.597-.571s-.304.512-.329.629c0 0 .403-.6.732-.63 0 0-.354.425-.403.572 0 0 .575-.513.746-.542 0 0-.344.337-.43.483 0 0 .502-.352.625-.396l-.219.424.403-.32-.306.321.014.002-.111-.003a3.8 3.8 0 0 0-.722.03c-.598.118-2.029.792-2.383 1.993-.195.66.05.835.05.835s.048-.879.256-.996c0 0-.098.674 0 .835l.123-.57.122.335s.024-.57.097-.746c0 0 .024.719.097.777 0 0-.01-1.04.161-1.29 0 0-.16.6.024.82 0 0 .049-.967.342-1.202 0 0-.32.836-.124 1.07 0 0 .185-1.011.588-1.29 0 0-.403.631-.232.939 0 0 .427-1.085.769-1.203 0 0-.341.484-.292.777 0 0 .401-.776.621-.806l-.219.632s.403-.602.538-.632c0 0-.184.295-.171.412 0 0 .355-.353.452-.44l-.118.22c-.096.06-.21.135-.334.22a6.25 6.25 0 0 0-.954.79c-.488.528-1.185 1.319-1.014 2.726 0 0 .074-.719.148-.777 0 0 0 .44.073.499 0 0-.025-.747.048-.865 0 0 .05.6.147.659 0 0-.025-.996.024-1.113 0 0 .037.527.11.63 0 0 .146-1.144.293-1.29 0 0-.17.763-.097 1.276 0 0 .122-.66.17-.762 0 0 0 .396.159.513 0 0-.061-.777 0-.967 0 0 .074.278.147.454 0 0-.072-.572-.047-.69 0 0 .059.375.216.51-.045.017-.076.036-.085.058l.648.054-.795.356.527-.055s-.696.477-.598 1.43c0 0 .122-.627.477-.872 0 0-.088.776.07 1.008 0 0 .172-1.035.246-1.24 0 0 .16.647.16.884.006-.076.071-.887.071-.978 0 0 .185.131.248.27-.033-.222-.086-.754-.05-.843.049-.11.168.573.168.573l.124-.791.182.723s.074-.859.074-.94c0-.08.122.376.17.56a.456.456 0 0 0-.107.1l.142.023.003.01v-.01c.132.022.306.05.355.05 0 0-.525.147-.574.323 0 0 .293.059.403 0 0 0-.329.365-.427.658 0 0 .305-.292.427-.351 0 0-.354.498-.33.864l.28-.336s-.305.542-.305.732l.305-.367s-.121.998.05 1.144l.074-1.085s.195 0 .403.835l-.232-1.068s.33.263.33.57c0 .294.097-.453-.306-1.054 0 0 .433.52.542.78-.046-.137-.322-.957-.434-1.17l.466.726s-.01-.696-.324-1.06l.508.504s-.141-.55-.258-.767l.282.385s-.217-.607-.366-.818l.366.466s-.093-.65-.182-.891l.182.336-.098-.645.172.204s-.012-.381-.061-.455c-.049-.073.097.032.097.032l.072-.587s.062.513-.085.938c0 0 .234-.181.293-.344l-.122.725.32-.352-.283.703.44-.542s-.269.776-.342.82c-.086.059.366-.235.366-.235l-.306.705s.231-.176.38-.342c-.112.259-.266.66-.32.727.031-.025.276-.227.372-.408-.068.173-.255.644-.345.74 0 0 .395-.331.482-.567-.043.164-.277 1.036-.41 1.169 0 0 .252-.135.323-.227-.05.1-.384.776-.542.885 0 0 .426-.175.56-.512 0 0-.073.79-.342 1.083 0 0 .43-.453.503-.98 0 0 .182.776.145 1.157 0 0 .135-1.216 0-1.612 0 0 .273.505.324.77-.01-.22-.061-1.087-.242-1.423.074.112.233.365.31.599-.071-.282-.267-1.007-.44-1.296l.501.72s-.314-.87-.51-1.244l.278.394s-.221-.747-.392-.835a.928.928 0 0 1-.269-.206l.477.235s-.1-.17-.226-.367c.422.262.47.802.47.802.074-.082.075-.394.075-.394.097.095.097.761.097.761.073-.095.074-.476.074-.476.073.232.037.816.037.816.06 0 .181-.517.181-.517.086.123.087.764.087.764.074-.11.172-.45.172-.45.024.108.047.776.047.776.11-.027.208-.435.208-.435.049.082.221.72.221.72.05-1.007-.453-1.537-.698-1.96-.087-.139-.269-.244-.468-.324a.994.994 0 0 0-.18-.712s.564.718.6.909c0 0-.042-.554-.133-.737.072.108.504.754.56.97 0 0-.029-.549-.2-.863.158.235.51.79.567 1.142 0 0-.048-.697-.132-1.021.098.225.47 1.082.535 1.315 0 0 .001-.653-.074-.851.057.106.356.664.4.928-.006-.122-.034-.665-.113-.891.095.183.39.761.41.96 0 0-.041-.556-.105-.704.042.07.244.416.29.641l-.087-.596s.234.425.292.6l-.084-.41s.208.22.287.332c-.077-.128-.538-.889-.74-1.05-.16-.122-.764-.492-1.23-.73a3.756 3.756 0 0 0-.226-.556c.117.15.34.446.358.553 0 0-.037-.452-.1-.625.082.148.348.637.369.787 0 0-.02-.59-.082-.772.048.095.364.727.387.917 0 0-.051-.718-.1-.806 0 0 .324.58.324.773.014-.069.085-.442.034-.687.08.175.184.455.169.72l.023-.425s.094.35.1.515c.015-.117.048-.338.048-.338s.071.093.124.213c-.044-.243-.113-.575-.195-.75.073.13.453.81.498 1.036.048.22.023-.25.023-.25s.124.263.124.541c0 0 .08-.56-.087-.96.104.181.225.444.245.727l.074-.28s.123.338.147.719c0 0 .146-.601-.208-1.07 0 0 .463.44.524 1.319v-.79s.258.57.282.819c0 0 .05-1.143-.598-1.568-.504-.32-1.09-.47-1.585-.52-.055-.204-.345-.396-.345-.396.195.068.721.407.721.407-.048-.19-.318-.394-.318-.394.17.123.745.422.745.422 0-.076-.268-.331-.43-.478l.283.233.429.353c0-.217-.527-.775-.527-.775.293.028.977.816.977.816.05-.15-.255-.68-.255-.68.207.055.684.816.684.816.098-.082-.258-.707-.258-.707.135.055.6.68.6.68.05-.259-.331-.68-.331-.68.183.096.809.517.809.517-.88-1.185-1.675-.98-2.726-1.008-1.053.041-1.488.33-2.344.72l.095-.103c.122-.044.295-.145.295-.145l.353-.161c.024-.03.257-.103.355-.132.11-.03-.33-.25-.5-.25 0 0 .585-.16.964.03 0 0-.429-.309-.722-.338 0 0 .855.088 1.075.22 0 0-.17-.249-.45-.307 0 0 .548.03.829.235 0 0-.418-.388-.611-.472.097.028.654.192.856.353 0 0-.164-.204-.308-.334.14.062.308.13.308.13s-.219-.235-.353-.309c0 0 .757.25.903.426 0 0-.365-.572-.521-.715.104.062.357.217.432.3-.026-.035-.234-.305-.303-.333 0 0 .55.25.721.412 0 0-.5-.808-1.148-.676-.66.103-1.662.676-1.833.866-.17.176-.792.571-1.024 1.348 0 0-.295-.718-.527-.996-.22-.264-.793-1.216-1.843-1.348zm5.999 3.48c.028.156.047.286.047.286a.48.48 0 0 0-.047-.286zm-5.815 2.177c.012.083.021.128.021.084a.207.207 0 0 0-.021-.084zm-2.5-2.822l-.03.05s-.038.323 0 .088a.567.567 0 0 1 .03-.138zm6.922-.846c.168.023.508.363.605.462a4.01 4.01 0 0 0-.224-.016 3.645 3.645 0 0 0-.381-.446zm-.25.064c.004-.001.01.001.018.004.095.01.426.263.571.376l-.097-.002-.248-.001c-.017-.021-.305-.365-.245-.377zm-.277.058l.513.319c-.155-.002-.322-.002-.513-.002v-.317zm-.38.082c.07 0 .331.207.367.235h-.361c-.027-.088-.066-.235-.005-.235zm-.034.235c-.368.003-.004-.014-.285.017.207-.168.038-.16.285-.017zm.4.275c.093.124.198.276.23.375h-.003a4.589 4.589 0 0 0-.226-.375zm-3.041.387h.413c-.226.082-.5.177-.83.282l.246.135s-.61.11-.77.136l-.007.004c.009-.044.1-.498.192-.526v.394s.123-.306.208-.365l.048.249s.39-.31.5-.31zm2.21.262c.076.09.337.396.44.614a3.048 3.048 0 0 0-.333-.105c-.008-.149-.032-.393-.107-.509zm-3.187.018s-.02.188.021.281c-.07.05.442.196.442.196s-.732.043-.805.111c-.074.055.597.136.597.136s-.462.069-.763.142c-.034-.166-.084-.417-.066-.47l.221.351s-.172-.514.084-.66l.064.425s.034-.337.205-.512zm1.533.062c0-.002.007.01.015.023h-.007v-.002c-.007-.014-.009-.02-.008-.021zm.176.023l.013.002h-.013v-.002zm4.072.155c-.007.054-.01.09-.003.053a.246.246 0 0 0 .003-.053zm-2.776.057l.15.163-.047-.01c-.034-.051-.068-.103-.103-.153zm-1.454.007a.266.266 0 0 1 .1.018s-.042.008-.103.023l.003-.04zm-.224.084l.008.021-.008.002v-.023zm.2.179c.02 0 .037 0 .05.004l-.052.019.002-.023zm-.137.011l.019.055c-.039.015-.08.031-.124.05.007-.031.016-.06.021-.09.03-.004.057-.01.084-.015zm-2.122.022l.168.277a1.265 1.265 0 0 0-.118.037 1.57 1.57 0 0 1-.05-.314zm1.751.052l.021.154-.024.015c.004-.06.005-.12.003-.169zm-.179.109c.005.006.035.077.069.157l-.003.004h.003l.06.146a.852.852 0 0 0-.121.07c0-.162 0-.313-.005-.36-.005-.013-.004-.019-.003-.017zm-1.693.074s.082.232.174.31l-.127.028.695.081s-.451.033-.68.105c-.021-.103-.083-.403-.062-.524zm2.201.05a.525.525 0 0 1 .132.008s-.12.028-.263.076l.02-.078.111-.006zm-.295.022l.016.116-.074.031c.004-.035.01-.066.016-.144l.042-.003zm-.858.048l-.824.179c-.005-.02-.021-.078-.037-.146.045.003.105.003.17.002l.022.035-.008-.035c.283-.004.677-.035.677-.035zm.998.266c.119-.002.219.006.237.04 0 0-.363.14-.585.285l.003-.3c.067-.007.157-.016.248-.02l.015.11.035-.113.047-.002zm2.552 1.92zm-.071.828c0 .02.005.074.005.074a.293.293 0 0 0-.005-.074z" fill="#008f4c" stroke-width=".036"/></g><path fill="#7bd6ff" d="M255.253 170.586h41.794v37.06h-41.794z"/><path d="M261.791 202.953c-.267 0-.532.007-.815.015a36.762 36.762 0 0 0-3.028.204c-.894.1-1.693.228-2.415.377v4.768c-.495 1.054-.758 2.345-.753 3.937h41.989l-.126-5.255c.278 0 .536-.009.832 0v-4.03a27.014 27.014 0 0 0-2.98.062 19.177 19.177 0 0 0-4.361.847c-.616.192-1.19.4-1.772.612-.583.212-1.172.423-1.788.627a21.25 21.25 0 0 1-1.977.565c-.716.163-1.517.296-2.4.392a27.06 27.06 0 0 1-2.964.157c-1.116 0-2.101-.061-2.98-.157a20.389 20.389 0 0 1-2.369-.392 20.876 20.876 0 0 1-1.96-.565 64.059 64.059 0 0 1-1.773-.627c-.578-.213-1.157-.434-1.772-.628a19.791 19.791 0 0 0-4.376-.831 26.479 26.479 0 0 0-2.212-.078z" fill="#20acf7" stroke="#000" stroke-width=".251" stroke-linecap="round" stroke-linejoin="round"/><g stroke="#000" stroke-linecap="round" stroke-linejoin="round"><path d="M1128.781 219.563c-3.325-3.051-6.663-5.955-10.031-8.594-3.695-2.896-7.428-5.519-11.188-7.781a81.275 81.275 0 0 0-5.656-3.125 67.682 67.682 0 0 0-5.75-2.532 56.876 56.876 0 0 0-5.781-1.906 50.164 50.164 0 0 0-5.875-1.219l-.406.156-5.375 22.407c27.443.31 42.549 24.73 42.812 24.781-.161-.205 3.936-11.073 7.25-22.188z" fill="#d40000" transform="matrix(.0804 0 0 .07527 192.47 160.554)"/><path d="M1116.688 183.938l-5.25 21.875.406-.157c.041.2.114.394.156.594 2.258 1.531 4.517 2.968 6.75 4.719 3.368 2.64 6.706 5.543 10.031 8.594 2.805-9.408 5.088-19 3.407-22.157-4.232-6.396-9.788-10.47-15.5-13.469z" fill="#fff" transform="matrix(.0804 0 0 .07527 192.47 160.554)"/><path d="M1089.375 172.594l-5.281 21.969.406-.157c1.967.282 3.933.698 5.875 1.219a56.884 56.884 0 0 1 5.781 1.906 67.696 67.696 0 0 1 5.75 2.531 81.275 81.275 0 0 1 5.657 3.125c1.487.896 2.959 2.06 4.437 3.063-.042-.2-.115-.394-.156-.594l-.407.156 5.25-21.875c-11.243-5.902-23.167-7.264-27.312-11.343z" fill="navy" transform="matrix(.0804 0 0 .07527 192.47 160.554)"/><path d="M1141.563 237.5c-.969-.536-1.936-1.089-2.844-1.688-2.408-1.587-4.61-3.379-6.719-5.28-4.096-3.697-7.815-7.793-11.781-11.626-2.932 10.464-5.376 19.609-4.75 18.219 4.571 6.003 30.628 35.6 39.468 33.313l-13.374-32.938z" fill="#d40000" transform="matrix(.0804 0 0 .07527 192.47 160.554)"/><path d="M1127.375 194.438c-1.4 4.196-4.477 14.91-7.156 24.468 3.966 3.833 7.685 7.93 11.781 11.625 2.108 1.902 4.31 3.694 6.719 5.281.908.6 1.875 1.152 2.843 1.688l-.187-.5 25.313-10.906c-22.251 2.13-42.299-24.117-39.313-31.656z" fill="#fff" transform="matrix(.0804 0 0 .07527 192.47 160.554)"/><path d="M1094.025 149.65l-4.224 6.766c-.186.543-.098 1.14.19 1.627l-1.085 3.175a1.577 1.577 0 0 0-1.103 1.038l-49.823 145.66 3.306 1.505 49.823-145.66c.185-.543.097-1.141-.191-1.627l1.086-3.175a1.574 1.574 0 0 0 1.102-1.038l.919-8.271z" transform="matrix(.0804 0 0 .07527 192.47 160.554)"/></g><g fill="#ed1c24" stroke="#000" stroke-width="2.929" stroke-linecap="round" stroke-linejoin="round"><path d="M16.558 863.691c0 2.166-2.439 3.922-5.447 3.922s-5.447-1.756-5.447-3.922c0-2.166 2.439-3.921 5.447-3.921s5.447 1.755 5.447 3.921z" transform="matrix(.02382 .01325 -.00822 .03375 287.016 144.328)" fill="navy" stroke-width="3.008"/><path d="M-3.906 855.862a4.502 4.502 0 0 0-4.5 4.5c0 2.484 2.016 4.5 4.5 4.5s4.5-2.016 4.5-4.5-2.016-4.5-4.5-4.5zm0 1.5a3.001 3.001 0 0 1 0 6 3.001 3.001 0 0 1 0-6z" transform="matrix(.02883 .01604 -.00716 .02941 286.114 148.193)"/><path d="M-2.453 858.862h9v3h-9z" transform="matrix(.02883 .01604 -.00716 .02941 286.114 148.193)"/></g><g fill="#ed1c24" stroke="#000" stroke-width="2.929" stroke-linecap="round" stroke-linejoin="round"><path d="M16.558 863.691c0 2.166-2.439 3.922-5.447 3.922s-5.447-1.756-5.447-3.922c0-2.166 2.439-3.921 5.447-3.921s5.447 1.755 5.447 3.921z" transform="matrix(.02382 .01325 -.00822 .03375 286.072 147.486)" stroke-width="3.008"/><path d="M-3.906 1039.862a4.502 4.502 0 0 0-4.5 4.5c0 2.484 2.016 4.5 4.5 4.5s4.5-2.016 4.5-4.5-2.016-4.5-4.5-4.5zm0 1.5a3.001 3.001 0 0 1 0 6 3.001 3.001 0 0 1 0-6z" transform="matrix(.02883 .01604 -.00716 .02941 286.488 145.937)"/><path d="M-2.453 1042.862h9v3h-9z" transform="matrix(.02883 .01604 -.00716 .02941 286.488 145.937)"/></g><path d="M281.054 175.22l-.237-.294-.328.113.207-.317-.209-.277.366.1.198-.285.019.379.332.1-.354.135.006.347z" fill="#fff"/><path d="M277.291 176.11l-3.573 23.523c1.907.442 2.239 1.026 2.703 1.507.15.75-.32.724-.128 1.075l-.523.015-.01 3.56-6.788-.58.41-3.84-.354-.489c-.012-.424-.022-.846.2-1.192 1.227-.24 2.08-.274 3.303-.22l3.367-20.241c-.35-.117-.517-.302-.356-.61l.336-3.08c.479-.755 1.689.125 1.413.572z" fill-rule="evenodd" stroke="#000" stroke-width=".059"/><path d="M269.971 201.208l-.51 3.902.452.087.436-3.64c.213.381.389 1.468.568 2.344l-.174 1.296.45.073.452-3.64c.213.381.388 1.468.568 2.344l.029-.087-.19 1.426.437.073.452-3.64c.195.351.359 1.308.524 2.14l-.19 1.398.452.073.437-3.64c.128.232.252.734.363 1.282l-.32 2.402.451.087.219-1.878.014-.029c-.001-.004.002-.01 0-.014l.204-1.733c.071.128.183.345.277.597-.035-.116.081-.819-.379-.932l-.262-.014-.13.932c-.111-.507-.24-.961-.54-1.034l-.261-.015-.248 1.864c-.192-.75-.272-1.71-.728-1.82l-.262-.014-.247 1.95c-.25-.766-.281-1.93-.786-2.052l-.262-.015-.262 1.936c-.232-.765-.28-1.875-.772-1.994l-.262-.015z" fill="#fff" fill-rule="evenodd" stroke="#fff" stroke-width=".055"/><g stroke="#000" stroke-width=".129"><path d="M268.176 189.052l12.407 1.575a6.527 6.527 0 0 1-6.793 3.848 6.524 6.524 0 0 1-5.614-5.423z" fill="#ce1029" stroke-linecap="round" stroke-linejoin="bevel"/><path d="M268.642 185.379l12.407 1.575c.099.604.117 1.233.036 1.871a6.513 6.513 0 0 1-.502 1.802l-12.407-1.575a6.513 6.513 0 0 1-.036-1.87 6.514 6.514 0 0 1 .502-1.803z" fill="#fff" stroke-linecap="round" stroke-linejoin="bevel"/><path d="M275.433 181.53a6.53 6.53 0 0 1 5.616 5.424l-12.407-1.575a6.526 6.526 0 0 1 6.791-3.849z" fill="#0000ad" stroke-linecap="round" stroke-linejoin="bevel"/><path d="M274.753 181.48l-1.634 12.873a6.505 6.505 0 0 1-.664-.191l1.607-12.66c.228-.019.459-.027.691-.022zm1.461.199c.227.057.447.127.663.206l-1.601 12.609a6.478 6.478 0 0 1-.692.032l1.63-12.847zm-3.678.14l-1.48 11.653a6.526 6.526 0 0 1-.629-.465l1.383-10.894c.235-.112.477-.21.726-.295zm5.736.783c.22.15.428.313.627.486l-1.364 10.744a6.497 6.497 0 0 1-.728.314l1.465-11.544zm-8.091.619l-1.055 8.307a6.545 6.545 0 0 1-.552-1.069l.805-6.344a6.49 6.49 0 0 1 .802-.894zm10.009 1.406c.216.358.399.738.544 1.134l-.754 5.942a6.52 6.52 0 0 1-.811.964l1.02-8.04z" fill="#fff" fill-rule="evenodd"/></g><path d="M255.266 148.29v18.163h87.554V148.29h-87.554zm0 22.1v42.24h41.675v-42.24h-41.675zm45.612 0v42.24h41.942v-42.24h-41.942zm-45.612 46.177v36.5c-.381 3.809 1.894 8.832 5.794 9.743 11.918.344 23.933.459 35.881.514v-46.757h-41.675zm45.612 0v46.742l33.01-.432c1.923-.163 3.772-.507 5.45-1.168 5.2-4.714 3.149-12.499 3.482-18.713v-26.429h-41.942z" fill="none" stroke="#000" stroke-width="1.506"/></svg>