<svg xmlns="http://www.w3.org/2000/svg" xmlns:xlink="http://www.w3.org/1999/xlink" version="1" width="900" height="600"><defs><linearGradient xlink:href="#a" id="b" gradientUnits="userSpaceOnUse" x1="370.614" y1="448.321" x2="365.672" y2="402.976"/><linearGradient id="a"><stop offset="0" stop-color="#80660f"/><stop offset="1" stop-color="#fff"/></linearGradient></defs><path fill="#0035ad" d="M0 0h900v600H0z"/><path d="m308.539 441.6.773-.85c.843.644 1.35.988 1.52 1.031a.479.479 0 0 0 .336-.045c.215-.1.759-.604 1.632-1.51a208.99 208.99 0 0 0 3.15-3.363 382.755 382.755 0 0 0 3.84-4.305c1.145-1.313 1.798-2.16 1.96-2.542a.466.466 0 0 0 .023-.35c-.047-.165-.414-.635-1.103-1.409l.773-.85c1.347 1.324 2.223 2.17 2.627 2.537l5.151 4.517c1.1 1 1.803 1.834 2.113 2.503.309.67.397 1.372.264 2.107-.132.735-.487 1.42-1.063 2.054-.736.81-1.616 1.306-2.64 1.49-1.023.184-2.33-.015-3.918-.597l-.798 5.206-.583 4.015c-.051.693-.038 1.152.04 1.377.08.226.29.501.635.827l-.708.778-.606-.532c-1.725-1.544-2.846-2.526-3.363-2.947.266-1.47.624-3.627 1.077-6.468l.794-5.06c.165-.06.326-.136.483-.227.24.279.423.477.551.593.627.57 1.474.879 2.541.925 1.067.046 2.026-.4 2.879-1.337.742-.816 1.079-1.668 1.01-2.555-.067-.887-.58-1.766-1.538-2.637a19.478 19.478 0 0 0-1.298-1.051l-2.784 2.92-3.531 3.7a91.418 91.418 0 0 0-2.888 3.38c-.86 1.054-1.318 1.666-1.374 1.836a.617.617 0 0 0 .03.415c.067.21.47.687 1.21 1.433l-.773.85a113.672 113.672 0 0 0-3.163-3.005 106.049 106.049 0 0 0-3.281-2.854zm15.804 14.053.446-.588a7.52 7.52 0 0 0 1.52.192c1.004-1.023 2.884-3.35 5.64-6.98 1.878-2.475 3.098-4.135 3.659-4.98.303-.445.434-.772.392-.98-.041-.21-.507-.715-1.398-1.517l.695-.914a141.328 141.328 0 0 0 3.987 3.18l6.05 4.49c.632.479 1.183.937 1.653 1.373l-.015.178c-.76.67-1.676 1.635-2.745 2.894l-.86-.653c.767-1.088 1.155-1.686 1.163-1.794.008-.109-.105-.303-.338-.583-.504-.588-1.376-1.353-2.618-2.296a43.67 43.67 0 0 0-2.192-1.543 227.71 227.71 0 0 0-4.23 5.234c.738.64 1.449 1.22 2.131 1.737 1.01.766 1.64 1.194 1.893 1.283.157.05.324.01.501-.118.143-.097.541-.516 1.194-1.256l.937.71c-.968 1.2-1.592 1.985-1.873 2.355l-1.805 2.492-.937-.711c.671-.99 1.022-1.587 1.052-1.793.023-.12-.028-.257-.153-.409-.303-.355-1.09-1.015-2.36-1.979a21.758 21.758 0 0 0-1.454-1c-.307.373-.612.76-.915 1.159-1.575 2.076-2.751 3.701-3.527 4.874l2.131 1.67a33.283 33.283 0 0 0 3.514 2.357 41.574 41.574 0 0 0 2.25-1.879l.904.686a44.094 44.094 0 0 0-3.087 3.458 21.928 21.928 0 0 1-1.989-1.338c-.4-.303-1.176-.915-2.33-1.837a144.282 144.282 0 0 0-2.995-2.341c-1.212-.92-2.51-1.865-3.891-2.833zm27.23 10.77.581-.943c1.393.9 2.645 1.693 3.755 2.376 1.024.631 2.14 1.297 3.347 1.997l-.46.745a9.114 9.114 0 0 0-1.214-.218 20.407 20.407 0 0 0-1.372 1.916c-.244.396-.68 1.209-1.309 2.438-1.88-.387-3.4-.801-4.558-1.241a20.11 20.11 0 0 1-3.402-1.685c-2.995-1.845-4.862-4.068-5.6-6.668-.738-2.6-.344-5.138 1.18-7.614 1.568-2.546 3.688-4.05 6.36-4.514 2.672-.463 5.626.302 8.863 2.295 1.14.702 2.18 1.465 3.118 2.289.938.824 1.768 1.71 2.49 2.657l-.003.24c-.832.846-1.754 1.97-2.765 3.37l-.978-.602c.446-.742.797-1.425 1.053-2.05-.143-.88-.517-1.703-1.12-2.47-.603-.768-1.436-1.48-2.5-2.134-1.994-1.228-3.956-1.601-5.885-1.12-1.93.483-3.541 1.775-4.836 3.879-1.382 2.243-1.871 4.433-1.469 6.57.402 2.136 1.516 3.766 3.34 4.89.97.597 2.148.996 3.533 1.196.43-.56.81-1.107 1.14-1.642.736-1.196 1.072-1.898 1.01-2.109-.064-.21-.83-.826-2.299-1.848zm5.74 11.051.519-1.024c1.15.512 1.832.74 2.045.684.212-.056.464-.332.756-.828.601-1.044 1.643-3.03 3.127-5.956a387.2 387.2 0 0 0 2.424-4.903c.721-1.463 1.093-2.278 1.117-2.445a.596.596 0 0 0-.099-.441c-.133-.18-.712-.57-1.736-1.172l.52-1.024c1.641.914 2.905 1.596 3.791 2.045a89.111 89.111 0 0 0 4.196 2.004l-.52 1.024c-1.138-.495-1.806-.724-2.004-.686-.198.037-.418.245-.66.623-.47.743-1.308 2.306-2.515 4.688-1.607 3.17-2.715 5.386-3.323 6.646-.608 1.26-.911 2.04-.909 2.337-.005.13.057.266.184.408.128.14.659.49 1.593 1.045l-.519 1.024-1.42-.766a77.47 77.47 0 0 0-2.414-1.285l-4.153-1.998zm19.286 9.303c-3.116-1.267-5.176-3.037-6.18-5.31-1.004-2.273-.936-4.811.204-7.614.796-1.959 1.875-3.461 3.235-4.507a8.724 8.724 0 0 1 4.622-1.803c1.721-.156 3.7.221 5.938 1.131 2.153.876 3.77 1.944 4.851 3.205 1.081 1.262 1.736 2.67 1.965 4.224.229 1.554-.027 3.243-.77 5.066-.803 1.976-1.902 3.519-3.298 4.629a9.072 9.072 0 0 1-4.786 1.95c-1.794.19-3.721-.133-5.781-.971zm1.042-1.185c1.697.69 3.305.614 4.824-.23 1.519-.843 2.798-2.544 3.839-5.102 1.092-2.685 1.351-4.98.778-6.886-.467-1.538-1.675-2.704-3.625-3.497-1.824-.742-3.482-.712-4.973.088-1.492.8-2.747 2.455-3.767 4.962-.735 1.807-1.083 3.45-1.044 4.926.039 1.477.37 2.665.994 3.563.623.898 1.615 1.623 2.974 2.176zm5.102-18.75-1.254-.51 4.092-1.642c.963-.386 1.594-.6 1.891-.64.297-.042.577-.01.839.097.32.13.542.33.663.602.12.27.123.55.006.836a.988.988 0 0 1-.51.546c-.236.11-.882.216-1.937.319l-3.79.392zm5.868 24.409.31-1.106c1.083.256 1.73.362 1.942.317a.67.67 0 0 0 .372-.265c.156-.183.425-.908.808-2.173a215.766 215.766 0 0 0 1.415-4.743l1.534-5.576c.413-1.475.604-2.34.571-2.595a.567.567 0 0 0-.169-.36c-.146-.154-.785-.442-1.916-.863l.31-1.106c1.374.432 2.395.742 3.062.93a57.14 57.14 0 0 0 2.533.638 309.69 309.69 0 0 0 4.491 10.318c1.128 2.493 2.122 4.57 2.982 6.231l1.461-5.213a147.128 147.128 0 0 0 1.353-5.13c.203-.861.28-1.403.228-1.626a.472.472 0 0 0-.227-.305c-.128-.083-.725-.316-1.791-.7l.31-1.106c.944.312 1.89.6 2.838.866 1.3.364 2.481.672 3.547.923l-.31 1.106c-1-.214-1.612-.31-1.836-.287a.723.723 0 0 0-.329.106.793.793 0 0 0-.242.259c-.12.193-.345.86-.674 1.998l-1.515 5.254-1.514 5.298a102.529 102.529 0 0 0-1.103 4.292l-.223.136a67.456 67.456 0 0 0-2.144-1.013c-1.555-3.133-3.399-7.04-5.533-11.717-1.079-2.366-1.93-4.342-2.556-5.927l-1.435 5.12a247.12 247.12 0 0 0-1.348 5.061c-.38 1.456-.552 2.307-.517 2.553.009.106.053.2.135.28.14.142.747.407 1.822.794l-.31 1.106a83.781 83.781 0 0 0-3.028-.949c-.51-.142-1.61-.418-3.304-.826zm31.045-10.446.15-1.14c1.708.29 3.277.528 4.704.716 1.266.166 2.657.317 4.174.452l-.15 1.14c-1.057-.066-1.694-.065-1.91.003-.216.068-.337.206-.364.414-.035.262.204 1.378.718 3.349l2.606 9.857 4.058-7.16c1.495-2.636 2.28-4.233 2.354-4.793a.465.465 0 0 0-.233-.486c-.182-.116-.83-.28-1.942-.49l.15-1.138c1.645.28 2.748.458 3.308.531.588.077 1.64.184 3.158.319l-.15 1.138c-.925-.03-1.468.01-1.629.117-.24.143-.9 1.114-1.982 2.911l-5.473 9.43c-1.109 1.858-1.922 3.355-2.439 4.491l-1.979-.26-3.287-12.126c-.758-2.765-1.297-4.643-1.617-5.632-.181-.584-.356-.95-.525-1.096-.17-.146-.736-.329-1.7-.547zm19.962 19.472c.858-.023 1.389-.096 1.592-.218.14-.088.363-.428.67-1.022.587-1.17 1.34-2.796 2.26-4.878l5.148-11.724 2.01.053 5.794 14.84c.752 1.925 1.219 2.98 1.401 3.168.182.187.755.325 1.72.414l-.03 1.148a98.443 98.443 0 0 0-8.707-.227l.03-1.148c1.086-.017 1.714-.062 1.884-.135.17-.074.259-.21.264-.41.005-.174-.171-.771-.528-1.792l-.84-2.361a236.914 236.914 0 0 0-7.094-.185l-.642 1.556c-.176.424-.393 1.057-.652 1.898a1.89 1.89 0 0 0-.095.517c-.006.21.08.36.255.451.175.091.813.197 1.913.317l-.03 1.148a48.187 48.187 0 0 0-3.332-.183c-1.267-.033-2.274-.027-3.023.017l.032-1.244zm9.311-13.01-3.066 6.937a51.54 51.54 0 0 0 2.772.14 64.43 64.43 0 0 0 3.036.011l-2.742-7.087zm13.43 14.565-.048-.71a9.22 9.22 0 0 0 1.363-.927 161.385 161.385 0 0 0-.343-7.72c-.142-2.1-.298-4.08-.47-5.942-.116-1.326-.231-2.086-.345-2.279a.477.477 0 0 0-.298-.247c-.144-.05-.811-.084-2-.105l-.078-1.146c1.759-.073 3.388-.16 4.888-.26a121.3 121.3 0 0 0 4.129-.348l.077 1.146c-1.25.166-1.965.324-2.147.474-.112.09-.185.261-.218.515-.034.253.027 1.727.181 4.42l.367 6.649c.084 1.246.213 2.685.387 4.318a54.972 54.972 0 0 0 2.653-.084c1.718-.115 3.156-.345 4.31-.688.181-.843.347-1.846.497-3.007l1.2-.08c-.112 1.313-.18 2.94-.205 4.878-.855.185-1.647.303-2.374.352l-4.942.278-2.212.122c-1.019.06-2.476.19-4.372.39zm16.295-1.188-.171-1.135c1.06-.243 1.656-.42 1.786-.533.1-.07.167-.177.2-.32.057-.24-.018-1.182-.225-2.828-.207-1.647-.427-3.24-.66-4.782-.433-2.875-.772-4.925-1.017-6.15-.245-1.227-.444-1.902-.596-2.026-.152-.125-.557-.16-1.212-.108l-.795.05-.17-1.135 1.535-.176c.95-.116 1.705-.216 2.264-.3.766-.116 1.996-.329 3.692-.64a58.296 58.296 0 0 1 2.02-.36c1.613-.243 2.828-.27 3.644-.08.817.19 1.473.566 1.968 1.128.495.56.812 1.306.952 2.234.253 1.676-.128 3.17-1.142 4.48-1.015 1.31-2.437 2.102-4.266 2.378a5.509 5.509 0 0 1-.752.058 11.99 11.99 0 0 1-.86-.022 15.73 15.73 0 0 0-.63-.873l.26-.385c.205.015.393.024.564.026.17.002.324-.008.459-.028.91-.137 1.606-.563 2.089-1.276.482-.713.638-1.633.468-2.76-.189-1.253-.627-2.143-1.315-2.67-.688-.528-1.609-.705-2.763-.531a8.664 8.664 0 0 0-1.62.438c.32 2.79.625 5.15.915 7.08.098.648.446 2.711 1.045 6.188.235 1.375.4 2.161.494 2.36.068.146.17.24.305.285.214.07.993.044 2.34-.076l.17 1.135a105.93 105.93 0 0 0-4.042.513c-.487.074-2.131.354-4.934.841zm16.452-3.706c.82-.25 1.312-.462 1.476-.634.11-.122.235-.51.373-1.164.254-1.284.548-3.052.88-5.304l1.84-12.67 1.95-.485 9.538 12.761c1.237 1.655 1.969 2.55 2.194 2.68.225.133.815.113 1.768-.058l.276 1.115a98.386 98.386 0 0 0-8.452 2.1l-.277-1.115c1.042-.306 1.635-.517 1.78-.633.145-.115.194-.27.145-.465-.041-.168-.37-.697-.985-1.587l-1.44-2.051a236.816 236.816 0 0 0-6.886 1.71l-.205 1.671c-.056.455-.097 1.123-.122 2.003-.007.199.008.373.045.524.05.203.173.325.366.367.193.04.836-.027 1.929-.205l.276 1.115c-.882.153-1.969.39-3.26.711-1.23.306-2.2.58-2.91.821l-.3-1.207zm5.51-15.02-1.109 7.503a51.47 51.47 0 0 0 2.71-.603 64.479 64.479 0 0 0 2.93-.798l-4.53-6.101zm16.02 10.81-.389-1.08c.964-.443 1.505-.73 1.623-.86a.479.479 0 0 0 .118-.318c.012-.236-.177-.953-.568-2.149a208.9 208.9 0 0 0-1.494-4.359 382.578 382.578 0 0 0-2.003-5.411c-.623-1.626-1.065-2.6-1.326-2.923a.466.466 0 0 0-.298-.183c-.168-.037-.756.068-1.762.313l-.388-1.08c1.8-.57 2.958-.947 3.472-1.132l6.405-2.432c1.398-.503 2.465-.734 3.201-.693.736.04 1.398.292 1.985.754.588.462 1.026 1.096 1.316 1.903.37 1.029.396 2.039.079 3.03-.317.99-1.106 2.05-2.365 3.18l4.224 3.146 3.273 2.398c.588.37 1 .573 1.236.61.236.035.579-.022 1.028-.174l.356.99-.755.286c-2.172.8-3.566 1.33-4.18 1.59a341.065 341.065 0 0 0-5.208-3.984l-4.097-3.075c.024-.173.033-.35.026-.532.359-.08.62-.15.782-.209.798-.286 1.467-.89 2.008-1.81.541-.921.597-1.978.169-3.17-.373-1.038-.967-1.735-1.783-2.09-.815-.357-1.832-.316-3.05.122-.386.139-.899.357-1.538.654l1.274 3.828 1.613 4.854c.392 1.09.936 2.468 1.632 4.135.528 1.254.854 1.945.978 2.075a.613.613 0 0 0 .38.168c.217.039.828-.094 1.833-.397l.388 1.08a115.65 115.65 0 0 0-4.137 1.386c-1.269.456-2.622.976-4.059 1.56zm18.395-7.977c.754-.412 1.193-.718 1.319-.92.084-.141.127-.546.13-1.214-.01-1.31-.08-3.1-.208-5.373l-.755-12.781 1.812-.868 11.917 10.573c1.546 1.372 2.442 2.1 2.69 2.183.247.084.82-.054 1.719-.414l.496 1.036a98.438 98.438 0 0 0-7.854 3.762l-.497-1.036c.959-.51 1.498-.836 1.616-.978.119-.143.135-.305.048-.486-.075-.156-.503-.608-1.285-1.355l-1.824-1.719a237.007 237.007 0 0 0-6.4 3.065l.137 1.678c.037.458.132 1.12.284 1.986.033.197.084.365.15.504.091.19.235.285.433.286.198.001.813-.195 1.848-.59l.496 1.037c-.834.328-1.85.78-3.05 1.354-1.143.547-2.038 1.011-2.684 1.392l-.538-1.122zm2.367-15.823.428 7.572c.776-.321 1.62-.7 2.532-1.137a64.492 64.492 0 0 0 2.708-1.373l-5.668-5.062zm17.79 7.223-.577-.993c1.056-.686 1.619-1.134 1.687-1.342.069-.209-.025-.57-.282-1.085-.548-1.073-1.646-3.029-3.292-5.867a387.098 387.098 0 0 0-2.792-4.703c-.834-1.402-1.315-2.158-1.442-2.269a.596.596 0 0 0-.423-.157c-.224.014-.867.286-1.928.818l-.577-.994a117.961 117.961 0 0 0 3.78-2.066 89.1 89.1 0 0 0 3.966-2.427l.577.993c-1.036.685-1.592 1.121-1.668 1.308-.076.186-.022.484.163.893.368.798 1.222 2.352 2.562 4.662 1.784 3.075 3.038 5.21 3.764 6.407.726 1.196 1.214 1.875 1.465 2.035.107.075.254.097.442.067s.77-.285 1.744-.767l.577.994-1.417.774c-.9.48-1.698.922-2.392 1.325l-3.938 2.394zm-8.115-19.001-1.17.68 1.206-4.242c.285-.997.502-1.627.652-1.887.149-.26.346-.462.59-.603.3-.174.594-.226.882-.156.288.07.51.239.665.507a.987.987 0 0 1 .12.737c-.058.255-.37.83-.935 1.727l-2.01 3.237zm15.13 8.229.998-.673c.761 1.114 1.24 1.745 1.434 1.894.194.15.582.257 1.163.32.582.064 1.234-.004 1.956-.205a6.85 6.85 0 0 0 2.013-.928c1.065-.718 1.726-1.576 1.983-2.574.256-.997.099-1.919-.472-2.765-.524-.779-1.139-1.233-1.842-1.363-.711-.126-1.726.13-3.045.766-1.957.946-3.349 1.477-4.176 1.595a4.118 4.118 0 0 1-2.39-.366c-.767-.363-1.436-.967-2.007-1.814-.957-1.42-1.268-2.962-.932-4.623.337-1.661 1.605-3.233 3.804-4.716.861-.581 1.67-1.033 2.425-1.355a11.403 11.403 0 0 1 2.44-.722l.297.196c.2.557.406 1.046.616 1.464.211.419.616 1.113 1.215 2.083l-.986.665c-.822-1.138-1.32-1.754-1.492-1.846-.312-.153-.854-.17-1.625-.05-.772.118-1.536.432-2.291.942-1.036.698-1.67 1.49-1.901 2.378-.232.887-.08 1.728.455 2.521.326.484.727.826 1.203 1.027.477.201.982.245 1.516.133.534-.113 1.566-.526 3.097-1.24 1.382-.656 2.357-1.044 2.925-1.163.932-.2 1.79-.125 2.576.225s1.49.986 2.11 1.908c1.08 1.602 1.367 3.347.858 5.234-.508 1.887-1.824 3.547-3.948 4.978-.945.637-1.863 1.125-2.757 1.463-.893.339-1.891.578-2.995.717a12.23 12.23 0 0 0-.699-1.623c-.342-.638-.85-1.465-1.526-2.483zm24.956-10.685c-2.594 2.14-5.13 3.113-7.607 2.918-2.477-.195-4.68-1.459-6.605-3.793-1.346-1.63-2.157-3.293-2.432-4.986a8.724 8.724 0 0 1 .608-4.924c.68-1.59 1.95-3.153 3.813-4.69 1.793-1.48 3.5-2.396 5.124-2.749 1.623-.353 3.173-.26 4.65.275 1.477.537 2.842 1.564 4.095 3.082 1.357 1.645 2.193 3.346 2.508 5.101a9.072 9.072 0 0 1-.555 5.138c-.684 1.67-1.884 3.212-3.6 4.628zm-.548-1.48c1.413-1.166 2.108-2.618 2.087-4.355-.022-1.738-.911-3.671-2.67-5.801-1.844-2.236-3.741-3.553-5.69-3.954-1.576-.319-3.175.192-4.8 1.532-1.518 1.253-2.278 2.726-2.282 4.419-.003 1.693.857 3.583 2.58 5.67 1.241 1.505 2.521 2.59 3.84 3.257 1.318.667 2.52.94 3.607.817 1.087-.123 2.196-.651 3.328-1.585z" fill="#eac102"/><g stroke="#000"><path d="M450.72 163.032c-13.182 0-24.298.337-33.667.922a354.47 354.47 0 0 0-5.42.383c-20.835 1.624-32.006 4.495-37.993 7.118a31.913 31.913 0 0 0-1.402.644c-2.14 1.07-3.457 2.093-4.258 2.924a7.18 7.18 0 0 0-.414.47c-.125.155-.23.297-.32.435-.536.812-.521 1.305-.521 1.305l4.552 21.564h158.886l4.552-21.564s.015-.493-.52-1.305a5.53 5.53 0 0 0-.32-.435c-.733-.91-2.103-2.11-4.673-3.394-.004-.002-.01.002-.013 0-5.584-2.785-16.81-6.002-39.382-7.762h-.013a351.704 351.704 0 0 0-5.406-.383c-9.37-.585-20.485-.922-33.668-.922z" fill="#eac102" fill-rule="evenodd" stroke-width=".394"/><path d="m29.522 2.522.894-1.022 4.729-.512 1.15 9.585-2.173-.128-.51-7.54-4.09-.383zm3.706.638 2.045-1.916" transform="matrix(2.2544 0 0 2.33809 347.475 97.555)" stroke-width=".172" fill="#eac102" fill-rule="evenodd"/><path d="M412.471 157.396c-1.406.044-2.813.076-4.219.113l-.646 22.124c0 .008.006.014.014.014l5.674-.163c.007 0 .013-.007.012-.016l-.82-22.058a.014.014 0 0 0-.015-.014z" fill="#eac102" stroke-width=".394"/><path d="m46.902.86 1.084-1.278 4.028-.255.04 15.718-3.672 2.13 2.71 15.933-4.31.128-.926-17.468L46.902.861zm5.24-1.533-2.212 1.79m2.14 13.945-1.653-.08" transform="matrix(2.2544 0 0 2.33809 328.604 99.797)" stroke-width=".172" fill="#eac102" fill-rule="evenodd"/><path d="M437.366 155.069c1.4-.149 2.798-.308 4.197-.463L445 176.451c0 .008-.005.016-.012.017l-5.645.61c-.008 0-.015-.006-.015-.014l-1.975-21.979c0-.008.005-.015.012-.016z" fill="#eac102" stroke-width=".394"/><path d="m29.522 2.522.894-1.022 3.45-.384 2.43 9.457-2.174.384-1.916-7.796-2.684-.64zm2.811 1.022 1.79-2.428" transform="matrix(2.2544 0 0 2.33809 328.604 99.797)" stroke-width=".172" fill="#eac102" fill-rule="evenodd"/><path d="m394.98 105.18 4.152 34.22 10.465 2.305 2.82 37.903 25.727-1.803-3.922-38.791 8.124-4.34.417-33.825-8.629.758-1.956 19.314-5.734.74-1.792-19.533-10.356 1.213.458 19.214-6.713 1.105-4.056-19.367-9.005.887zm2.287 20.03 10.862-1.539m6.59-.965 12.05-1.018m5.167-.932 10.838-.971m-33.252 21.535 24.706-2.252m-22.841-15.771 1.069 14.497m17.492-16.601.752 14.779m-9.445 4.707.752 12.825" fill="#eac102" fill-rule="evenodd" stroke-width=".394"/><g stroke-width=".415" fill="#eac102" fill-rule="evenodd"><path d="M120.732 20.062V2.35c.514-3.252 1.863-5.294 5.06-6.145 5.873-1.043 11.597 1.645 11.387 6.145.395.184.73 12.095.723 17.892l-17.17-.18z" transform="matrix(.8333 -.10912 .02036 1.07726 315.923 170.665)"/><path d="M123.762 19.938V4.792c.328-2.78 1.186-4.526 3.22-5.254 3.738-.892 7.13.1 7.247 5.254.479.515.465 10.343.46 15.3l-10.927-.154zm.765-23.372 1.627 3.073m-5.556 2.221 3.547 1.353m-3.413 5.282h3.072m-2.879 6.005 2.698-.041m11.157.337 3.122.205m-3.254-6.506 2.892.18m-3.585-5.105 3.043-1.763M131.756-.18l1.446-2.893" transform="matrix(.8333 -.10912 .02036 1.07726 315.923 170.665)"/></g><path d="m410.249 153.79 7.368 2.242m-6.541 7.886 5.89.057m-5.269 7.049 4.725-.515m19.049-19.371-5.844 4.29m6.878 6.98-5.384.464m6.054 6.563-6.125.349" fill="none" stroke-width=".394"/><path d="m399.126 139.3 43.188-4.427m-.793 19.667 5.633 8.763-2.16-.298.648 10.732-.914.325-3.207-19.523z" fill="#eac102" fill-rule="evenodd" stroke-width=".394"/><path d="m434.197 139.1 3.543 1.052" fill="none" stroke-width=".394"/><path d="m29.522 2.522.894-1.022 4.729-.512 1.15 9.585-2.173-.128-.51-7.54-4.09-.383zm3.706.638 2.045-1.916" transform="matrix(2.21353 -.4273 .44316 2.2957 287.628 123.552)" stroke-width=".172" fill="#eac102" fill-rule="evenodd"/><path d="m46.902.86 1.084-1.278 4.028-.255.04 15.718-3.672 2.13 2.71 15.933-4.31.128-.926-17.468L46.902.861zm5.24-1.533-2.212 1.79m2.14 13.945-1.653-.08" transform="matrix(2.21353 -.4273 .44316 2.2957 269.524 129.33)" stroke-width=".172" fill="#eac102" fill-rule="evenodd"/><path d="M386.79 162.985c1.346-.411 2.69-.832 4.033-1.25l7.517 20.798c.002.008-.002.017-.01.018l-5.426 1.669c-.008.002-.015-.003-.018-.01l-6.104-21.207a.013.013 0 0 1 .009-.018z" fill="#eac102" stroke-width=".394"/><path d="m29.522 2.522.894-1.022 3.45-.384 2.43 9.457-2.174.384-1.916-7.796-2.684-.64zm2.811 1.022 1.79-2.428" transform="matrix(2.21353 -.4273 .44316 2.2957 269.524 129.33)" stroke-width=".172" fill="#eac102" fill-rule="evenodd"/><path d="m335.716 122.035 10.564 32.813 10.712.28 9.952 36.68 24.92-6.646-11.203-37.345 7.154-5.8-6.002-33.291-8.329 2.38 1.74 19.334-5.49 1.813-5.462-18.839-9.938 3.154 4.091 18.778-6.381 2.358-7.653-18.247-8.675 2.578zm6.043 19.233 10.374-3.57m6.287-2.197 11.638-3.283m4.897-1.894 10.457-3.008m-28.567 27.448 23.831-6.894m-25.416-11.157 3.797 14.032m14.028-19.615 3.54 14.368m-8.381 6.412 3.17 12.45" fill="#eac102" fill-rule="evenodd" stroke-width=".394"/><g stroke-width=".415" fill="#eac102" fill-rule="evenodd"><path d="M120.732 20.062V2.35c.514-3.252 1.863-5.294 5.06-6.145 5.873-1.043 11.597 1.645 11.387 6.145.395.184.73 12.095.723 17.892l-17.17-.18z" transform="matrix(.7975 -.26509 .22418 1.05388 270.505 201.317)"/><path d="M123.762 19.938V4.792c.328-2.78 1.186-4.526 3.22-5.254 3.738-.892 7.13.1 7.247 5.254.479.515.465 10.343.46 15.3l-10.927-.154zm.765-23.372 1.627 3.073m-5.556 2.221 3.547 1.353m-3.413 5.282h3.072m-2.879 6.005 2.698-.041m11.157.337 3.122.205m-3.254-6.506 2.892.18m-3.585-5.105 3.043-1.763M131.756-.18l1.446-2.893" transform="matrix(.7975 -.26509 .22418 1.05388 270.505 201.317)"/></g><path d="m359.922 166.869 7.66.806m-4.928 8.982 5.793-1.06m-3.837 7.92 4.542-1.402m15.033-22.63-4.925 5.32m8.077 5.55-5.2 1.476m7.189 5.296-5.948 1.504" fill="none" stroke-width=".394"/><path d="m346.255 154.75 41.566-12.532m2.949 19.46 6.63 4.162-2.742 1.523 3.796 12.383-.835.493-6.85-18.561z" fill="#eac102" fill-rule="evenodd" stroke-width=".394"/><path d="m380.652 147.907 3.679.361" fill="none" stroke-width=".394"/><path d="m29.522 2.522.894-1.022 4.729-.512 1.15 9.585-2.173-.128-.51-7.54-4.09-.383zm3.706.638 2.045-1.916" transform="matrix(-2.21353 -.42734 -.4432 2.29569 612.373 123.191)" stroke-width=".172" fill="#eac102" fill-rule="evenodd"/><path d="m46.902.86 1.084-1.278 4.028-.255.04 15.718-3.672 2.13 2.71 15.933-4.31.128-.926-17.468L46.902.861zm5.24-1.533-2.212 1.79m2.14 13.945-1.653-.08" transform="matrix(-2.21353 -.42734 -.4432 2.29569 630.478 128.97)" stroke-width=".172" fill="#eac102" fill-rule="evenodd"/><path d="M513.212 162.62c-1.346-.411-2.689-.833-4.033-1.25l-7.516 20.798c-.003.008.001.016.009.018l5.427 1.669a.014.014 0 0 0 .017-.01l6.105-21.207c.002-.007-.002-.016-.009-.018z" fill="#eac102" stroke-width=".394"/><path d="m29.522 2.522.894-1.022 3.45-.384 2.43 9.457-2.174.384-1.916-7.796-2.684-.64zm2.811 1.022 1.79-2.428" transform="matrix(-2.21353 -.42734 -.4432 2.29569 630.478 128.97)" stroke-width=".172" fill="#eac102" fill-rule="evenodd"/><path d="m564.286 121.67-10.563 32.813-10.712.28-9.953 36.68-24.92-6.647 11.204-37.344-7.154-5.8 6.001-33.291 8.33 2.38-1.74 19.334 5.49 1.813 5.461-18.839 9.938 3.154-4.09 18.778 6.38 2.358 7.654-18.247 8.674 2.578zm-6.042 19.233-10.374-3.57m-6.287-2.197-11.638-3.283m-4.897-1.894-10.458-3.008m28.567 27.447-23.831-6.893m25.416-11.157-3.797 14.032m-14.028-19.616-3.54 14.369m8.381 6.412-3.169 12.45" fill="#eac102" fill-rule="evenodd" stroke-width=".394"/><g stroke-width=".415" fill="#eac102" fill-rule="evenodd"><path d="M120.732 20.062V2.35c.514-3.252 1.863-5.294 5.06-6.145 5.873-1.043 11.597 1.645 11.387 6.145.395.184.73 12.095.723 17.892l-17.17-.18z" transform="matrix(-.7975 -.26509 -.22418 1.05388 629.497 200.952)"/><path d="M123.762 19.938V4.792c.328-2.78 1.186-4.526 3.22-5.254 3.738-.892 7.13.1 7.247 5.254.479.515.465 10.343.46 15.3l-10.927-.154zm.765-23.372 1.627 3.073m-5.556 2.221 3.547 1.353m-3.413 5.282h3.072m-2.879 6.005 2.698-.041m11.157.337 3.122.205m-3.254-6.506 2.892.18m-3.585-5.105 3.043-1.763M131.756-.18l1.446-2.893" transform="matrix(-.7975 -.26509 -.22418 1.05388 629.497 200.952)"/></g><path d="m540.08 166.504-7.66.805m4.928 8.983-5.793-1.06m3.837 7.919-4.542-1.4m-15.032-22.631 4.925 5.32m-8.077 5.55 5.2 1.476m-7.189 5.296 5.947 1.504" fill="none" stroke-width=".394"/><path d="m553.748 154.385-41.567-12.532m-2.948 19.46-6.63 4.162 2.741 1.523-3.796 12.383.835.493 6.85-18.561z" fill="#eac102" fill-rule="evenodd" stroke-width=".394"/><path d="m519.351 147.541-3.679.362" fill="none" stroke-width=".394"/><path d="m29.522 2.522.894-1.022 4.729-.512 1.15 9.585-2.173-.128-.51-7.54-4.09-.383zm3.706.638 2.045-1.916" transform="matrix(-2.2544 0 0 2.33809 551.963 97.471)" stroke-width=".172" fill="#eac102" fill-rule="evenodd"/><path d="M486.967 157.312c1.406.044 2.813.076 4.219.113l.646 22.124c0 .008-.006.015-.014.014l-5.674-.163c-.007 0-.013-.007-.012-.016l.821-22.057a.014.014 0 0 1 .014-.015z" fill="#eac102" stroke-width=".394"/><path d="m46.902.86 1.084-1.278 4.028-.255.04 15.718-3.672 2.13 2.71 15.933-4.31.128-.926-17.468L46.902.861zm5.24-1.533-2.212 1.79m2.14 13.945-1.653-.08" transform="matrix(-2.2544 0 0 2.33809 570.834 99.713)" stroke-width=".172" fill="#eac102" fill-rule="evenodd"/><path d="M462.072 154.985c-1.4-.149-2.798-.308-4.197-.463l-3.438 21.846c0 .007.005.015.012.016l5.646.61a.016.016 0 0 0 .015-.014l1.974-21.979c.001-.008-.004-.015-.012-.016z" fill="#eac102" stroke-width=".394"/><path d="m29.522 2.522.894-1.022 3.45-.384 2.43 9.457-2.174.384-1.916-7.796-2.684-.64zm2.811 1.022 1.79-2.428" transform="matrix(-2.2544 0 0 2.33809 570.834 99.713)" stroke-width=".172" fill="#eac102" fill-rule="evenodd"/><path d="m504.458 105.096-4.152 34.22-10.465 2.305-2.82 37.903-25.727-1.803 3.922-38.791-8.124-4.339-.417-33.825 8.629.758 1.956 19.313 5.734.74 1.793-19.533 10.355 1.213-.458 19.214 6.713 1.105 4.056-19.367 9.005.887zm-2.287 20.03-10.862-1.539m-6.589-.965-12.05-1.018m-5.167-.932-10.839-.971m33.252 21.535-24.706-2.251m22.841-15.772-1.068 14.497m-17.493-16.601-.752 14.779m9.445 4.707-.752 12.825" fill="#eac102" fill-rule="evenodd" stroke-width=".394"/><g stroke-width=".415" fill="#eac102" fill-rule="evenodd"><path d="M120.732 20.062V2.35c.514-3.252 1.863-5.294 5.06-6.145 5.873-1.043 11.597 1.645 11.387 6.145.395.184.73 12.095.723 17.892l-17.17-.18z" transform="matrix(-.8333 -.10912 -.02036 1.07726 583.515 170.581)"/><path d="M123.762 19.938V4.792c.328-2.78 1.186-4.526 3.22-5.254 3.738-.892 7.13.1 7.247 5.254.479.515.465 10.343.46 15.3l-10.927-.154zm.765-23.372 1.627 3.073m-5.556 2.221 3.547 1.353m-3.413 5.282h3.072m-2.879 6.005 2.698-.041m11.157.337 3.122.205m-3.254-6.506 2.892.18m-3.585-5.105 3.043-1.763M131.756-.18l1.446-2.893" transform="matrix(-.8333 -.10912 -.02036 1.07726 583.515 170.581)"/></g><path d="m489.19 153.705-7.369 2.243m6.541 7.886-5.889.057m5.268 7.049-4.725-.515m-19.049-19.371 5.844 4.29m-6.878 6.98 5.385.464m-6.055 6.562 6.125.35" fill="none" stroke-width=".394"/><path d="m500.312 139.216-43.188-4.427m.793 19.666-5.633 8.764 2.161-.298-.648 10.732.913.325 3.207-19.523z" fill="#eac102" fill-rule="evenodd" stroke-width=".394"/><path d="m465.242 139.016-3.544 1.053" fill="none" stroke-width=".394"/><path d="M54.91 31.73c-10.727.141-21.578.154-32.113 2.997-2.351.94-5.712 1.463-6.595 4.788-.29 2.778 2.369 3.955 4.03 4.718 7.91 3.003 16.267 3.258 24.463 3.727 12.751.324 25.584.455 38.24-1.788 3.458-.845 7.265-1.366 10.109-4.213 1.698-2.103-.182-5.045-2.059-5.65-6.438-3.125-13.46-3.46-20.27-4.097-5.262-.363-10.534-.478-15.804-.483z" fill="#eac102" fill-rule="evenodd" stroke-width=".166" transform="matrix(2.2544 0 0 2.33809 326.557 99.797)"/><path d="M54.944 35.143c-5.847 0-10.778.144-14.934.395-.832.05-1.634.106-2.405.164-9.241.694-14.197 1.922-16.852 3.044-.222.094-.432.184-.622.275-.95.458-1.534.896-1.889 1.251a3.085 3.085 0 0 0-.326.387c-.237.347-.23.558-.23.558l2.019 9.223h70.478l2.02-9.223s.006-.21-.232-.558a2.376 2.376 0 0 0-.142-.186c-.325-.389-.932-.903-2.072-1.452h-.006c-2.477-1.19-7.457-2.567-17.469-3.32h-.006a173.1 173.1 0 0 0-2.398-.163c-4.156-.25-9.087-.395-14.934-.395z" fill="#eac102" fill-rule="evenodd" stroke-width=".166" transform="matrix(2.2544 0 0 2.33809 326.557 99.797)"/><path d="M-518.584 630.117s37.062-17.868 171.525-17.868c134.018 0 171.525 17.868 171.525 17.868s-31.348 17.868-171.525 17.868c-140.623 0-171.525-17.868-171.525-17.868z" fill="#eac102" fill-rule="evenodd" transform="matrix(.427 0 0 .59348 598.202 -155.558)"/><path d="M-390.717 650.838v-41.34" font-size="12" fill="none" stroke-width=".52" transform="matrix(.427 0 0 .59348 598.202 -155.558)"/><path d="M-398.598 650.838v-41.34" font-size="12" fill="none" stroke-width=".766" transform="matrix(.427 0 0 .59348 598.202 -155.558)"/><path d="M-406.039 650.838v-41.34" font-size="12" fill="none" stroke-width="1.026" transform="matrix(.427 0 0 .59348 598.202 -155.558)"/><path d="M-413.415 650.838v-41.34" font-size="12" fill="none" stroke-width="1.286" transform="matrix(.427 0 0 .59348 598.202 -155.558)"/><path d="M-419.987 650.838v-41.34" font-size="12" fill="none" stroke-width="1.546" transform="matrix(.427 0 0 .59348 598.202 -155.558)"/><path d="m-432.522 648.609-.173-37.627m6.116 38.122v-39.358" font-size="12" fill="none" stroke-width="1.806" transform="matrix(.427 0 0 .59348 598.202 -155.558)"/><path d="M-444.094 646.917V612.25m5.863 35.657-.174-36.893" font-size="12" fill="none" stroke-width="2.051" transform="matrix(.427 0 0 .59348 598.202 -155.558)"/><path d="M-459.62 644.937V614.48m5.094 30.953V613.49m5.248 32.933V613.24" font-size="12" fill="none" stroke-width="2.311" transform="matrix(.427 0 0 .59348 598.202 -155.558)"/><path d="M-465.061 644.688v-29.465" font-size="12" fill="none" stroke-width="2.572" transform="matrix(.427 0 0 .59348 598.202 -155.558)"/><path d="M-470.136 643.203v-27.485" font-size="12" fill="none" stroke-width="2.832" transform="matrix(.427 0 0 .59348 598.202 -155.558)"/><path d="M-475.577 642.459v-25.505" font-size="12" fill="none" stroke-width="3.092" transform="matrix(.427 0 0 .59348 598.202 -155.558)"/><path d="m-486.718 640.233-.173-20.306m5.882 21.296v-22.78" font-size="12" fill="none" stroke-width="3.337" transform="matrix(.427 0 0 .59348 598.202 -155.558)"/><path d="M-492.427 638.5v-17.832" font-size="12" fill="none" stroke-width="3.525" transform="matrix(.427 0 0 .59348 598.202 -155.558)"/><path d="M-497.655 637.053v-14.849" font-size="12" fill="none" stroke-width="3.785" transform="matrix(.427 0 0 .59348 598.202 -155.558)"/><path d="M-503.364 635.073v-11.63" font-size="12" fill="none" stroke-width="4.031" transform="matrix(.427 0 0 .59348 598.202 -155.558)"/><path d="M-509.232 634.084v-8.66" font-size="12" fill="none" stroke-width="4.276" transform="matrix(.427 0 0 .59348 598.202 -155.558)"/><path d="M-515.443 632.106v-4.209" font-size="12" fill="none" stroke-width="5.042" transform="matrix(.427 0 0 .59348 598.202 -155.558)"/><path d="M-359.358 648.609v-37.873m-13.353 39.112.174-40.102m-9.906 40.597v-40.846" font-size="12" fill="none" stroke-width=".26" transform="matrix(.427 0 0 .59348 598.202 -155.558)"/><path d="M-303.401 650.838v-41.34" font-size="12" fill="none" stroke-width=".52" transform="matrix(.427 0 0 .59348 598.202 -155.558)"/><path d="M-295.52 650.838v-41.34" font-size="12" fill="none" stroke-width=".766" transform="matrix(.427 0 0 .59348 598.202 -155.558)"/><path d="M-288.08 650.838v-41.34" font-size="12" fill="none" stroke-width="1.026" transform="matrix(.427 0 0 .59348 598.202 -155.558)"/><path d="M-280.703 650.838v-41.34" font-size="12" fill="none" stroke-width="1.286" transform="matrix(.427 0 0 .59348 598.202 -155.558)"/><path d="M-274.13 650.838v-41.34" font-size="12" fill="none" stroke-width="1.546" transform="matrix(.427 0 0 .59348 598.202 -155.558)"/><path d="m-261.596 648.609.173-37.627m-6.116 38.122v-39.358" font-size="12" fill="none" stroke-width="1.806" transform="matrix(.427 0 0 .59348 598.202 -155.558)"/><path d="M-250.024 646.917V612.25m-5.863 35.657.174-36.893" font-size="12" fill="none" stroke-width="2.051" transform="matrix(.427 0 0 .59348 598.202 -155.558)"/><path d="M-234.498 644.937V614.48m-5.094 30.953V613.49m-5.248 32.933V613.24" font-size="12" fill="none" stroke-width="2.311" transform="matrix(.427 0 0 .59348 598.202 -155.558)"/><path d="M-229.057 644.688v-29.465" font-size="12" fill="none" stroke-width="2.572" transform="matrix(.427 0 0 .59348 598.202 -155.558)"/><path d="M-223.982 643.203v-27.485" font-size="12" fill="none" stroke-width="2.832" transform="matrix(.427 0 0 .59348 598.202 -155.558)"/><path d="M-218.541 642.459v-25.505" font-size="12" fill="none" stroke-width="3.092" transform="matrix(.427 0 0 .59348 598.202 -155.558)"/><path d="m-207.4 640.233.173-20.306m-5.882 21.296v-22.78" font-size="12" fill="none" stroke-width="3.337" transform="matrix(.427 0 0 .59348 598.202 -155.558)"/><path d="M-201.691 638.5v-17.832" font-size="12" fill="none" stroke-width="3.525" transform="matrix(.427 0 0 .59348 598.202 -155.558)"/><path d="M-196.463 637.053v-14.849" font-size="12" fill="none" stroke-width="3.785" transform="matrix(.427 0 0 .59348 598.202 -155.558)"/><path d="M-190.754 635.073v-11.63" font-size="12" fill="none" stroke-width="4.031" transform="matrix(.427 0 0 .59348 598.202 -155.558)"/><path d="M-184.886 634.084v-8.66" font-size="12" fill="none" stroke-width="4.276" transform="matrix(.427 0 0 .59348 598.202 -155.558)"/><path d="M-178.675 632.106v-4.209" font-size="12" fill="none" stroke-width="5.042" transform="matrix(.427 0 0 .59348 598.202 -155.558)"/><path d="M-334.76 648.609v-37.873m13.353 39.112-.174-40.102m9.906 40.597v-40.846" font-size="12" fill="none" stroke-width=".26" transform="matrix(.427 0 0 .59348 598.202 -155.558)"/><path d="M-347.212 599.983c-52.175.52-104.944.576-156.185 11.012-11.435 3.445-27.791 5.364-32.084 17.569-1.408 10.194 11.509 14.521 19.585 17.323 38.472 11.026 79.14 11.965 119.003 13.689 62.016 1.188 124.408 1.648 185.964-6.585 16.817-3.101 35.333-5.016 49.162-15.465 8.258-7.722-.865-18.518-9.993-20.739-31.314-11.47-65.465-12.692-98.584-15.028-25.596-1.333-51.237-1.759-76.868-1.776zm.144 12.269c134.017 0 171.535 17.87 171.535 17.87s-31.358 17.869-171.535 17.869c-140.623 0-171.507-17.87-171.507-17.87s37.043-17.87 171.507-17.87z" fill="#eac102" fill-rule="evenodd" transform="matrix(.427 0 0 .59348 598.202 -155.558)"/><path d="M532.137 206.893s.015-.494-.506-1.306a5.581 5.581 0 0 0-.311-.435c-.713-.91-2.045-2.11-4.545-3.394-.004-.002-.01.001-.013 0-5.43-2.786-16.35-6.004-38.302-7.764h-.013a334.494 334.494 0 0 0-5.258-.383c-9.113-.585-19.924-.922-32.744-.922s-23.633.337-32.745.922c-1.823.117-3.582.248-5.272.383-20.263 1.625-31.128 4.496-36.951 7.12-.485.218-.945.43-1.363.644-2.082 1.069-3.363 2.093-4.142 2.924a7.08 7.08 0 0 0-.402.47 5.39 5.39 0 0 0-.312.435c-.52.812-.506 1.306-.506 1.306" fill="none" stroke-width=".394"/><path d="M385.324 198.013c1.162 7.791 1.743 7.791 1.743 7.791m23.032-11.979 1.028 8.249m24.336-9.428.576 8.217m26.218-8.217-.288 7.768m24.777-6.573-.576 8.366m25.023-5.229-2.161 8.218M368.62 192.944l4.467 8.218 8.93-3.138-1.151-10.159-8.067 2.838-4.178 2.241zm9.94-4.332 2.306 9.711m-11.093-3.586 9.364-3.884m-8.211 6.573 8.931-3.286m-7.347 5.677 7.923-2.69m10.498-11.102 2.646 9.025 9.374-1.059.995-10.177-8.469.96-4.546 1.251zm10.609-1.999.224 9.998m-10.081-5.99 9.952-1.691m-9.389 4.575 9.406-1.205m-8.357 3.895 8.296-.848m13.312-9.239 2.06 9.188 9.422-.41 1.645-10.085-8.51.374-4.617.933zm10.871-.819-.14 9.684m-10.111-6.808 10.039-1m-9.662 3.917 9.463-.553m-8.589 3.308 9.053-.296m15.292-8.665 2.26 9.62 10.721.17 2.365-9.932-8.515-.283-6.831.425zm12.935-.283-1.134 9.932m-9.17-7.401 10.084-.223m-9.916 3.161 9.476.179m-8.802 2.636 8.328.371m-9.525-8.658 1.134 9.931m85.463.474-4.466 8.218-8.931-3.138 1.153-10.16 8.067 2.84 4.177 2.24zm-9.939-4.332-2.306 9.71m11.093-3.585-9.364-3.884m8.212 6.573-8.932-3.286m7.347 5.676-7.923-2.689m-10.498-11.102-2.646 9.025-9.374-1.06-.995-10.177 8.469.961 4.546 1.25zm-10.608-1.999-.225 9.998m10.081-5.99-9.951-1.691m9.388 4.575-9.406-1.205m8.358 3.895-8.297-.848m-13.312-9.238-2.06 9.187-9.421-.409-1.646-10.086 8.51.374 4.618.933zm-10.87-.819.139 9.683m10.111-6.808-10.039-1m9.661 3.917-9.461-.553m8.589 3.308-9.053-.296" fill="none" stroke-width=".394"/></g><path d="M43.025 310.608c.204 120.277-.41 240.567.311 360.835 3.833 107.937 86.48 206.523 192.018 229.318 97.635 23.777 206.936-18.953 262.045-103.22 33.005-47.127 45.16-105.45 42.438-162.221V310.608H43.025z" style="marker:none" fill="#eac102" fill-rule="evenodd" overflow="visible" transform="translate(335.52 97.942) scale(.39375)"/><path d="M450.334 425.818c40.668 0 73.42-32.75 73.42-73.419V249.612h-146.84v102.787c0 40.668 32.751 73.42 73.42 73.42z" fill="#0071bc" stroke="#000" stroke-width=".386" stroke-linecap="round"/><path d="M450.334 425.818c40.668 0 73.42-32.75 73.42-73.419V249.612h-73.42v176.206z" fill="#008f4c" stroke="#000" stroke-width=".386" stroke-linecap="round"/><g stroke="#000"><path d="m376.69 348.465 23.096 13.3 21.336 12.293 29.002 16.698v26.775l-22.813-13.13c-6.244-35.46-17.297-21.428-27.525-15.86L376.69 375.24v-26.775z" font-size="12" fill="#c8c4b7" fill-rule="evenodd" stroke-width=".197"/><path d="m450.072 394.124-8.911-5.153c-.569-.276-.811-.629-.784-1.045v-1.677m9.695 11.175-8.911-5.153c-.569-.276-.811-.629-.784-1.045v-1.678m-.727-1.45-8.91-5.154c-.57-.275-.812-.628-.784-1.045v-1.677m9.694 11.175-8.911-5.153c-.569-.276-.812-.628-.784-1.045v-1.678m-.727-1.45-8.911-5.154c-.568-.275-.811-.628-.784-1.045v-1.677m9.695 11.175-8.911-5.153c-.568-.276-.811-.628-.784-1.045v-1.677m-.727-1.451-8.91-5.153c-.569-.276-.812-.629-.784-1.045v-1.678m9.694 11.175-8.91-5.153c-.569-.275-.812-.628-.784-1.045v-1.677m-.727-1.451-8.911-5.153c-.569-.276-.811-.628-.784-1.045v-1.677m9.696 11.175-8.912-5.153c-.568-.276-.81-.628-.783-1.045v-1.678m-.727-1.45-8.91-5.154c-.57-.275-.812-.628-.784-1.045v-1.677m9.694 11.175-8.911-5.153c-.569-.275-.811-.628-.784-1.045v-1.677m-.727-1.451-8.911-5.153c-.568-.276-.811-.629-.784-1.045v-1.678m9.695 11.175-8.911-5.153c-.568-.275-.811-.628-.784-1.045v-1.677m-.727-1.45-8.91-5.154c-.57-.275-.812-.628-.784-1.045v-1.677m9.694 11.175-8.91-5.153c-.57-.276-.812-.628-.784-1.045v-1.678m82.646 53.85-8.91-5.153c-.57-.275-.812-.628-.784-1.045v-1.677m9.694 11.175-8.91-5.153c-.57-.276-.812-.628-.784-1.045v-1.677m-.728-1.451-8.91-5.153c-.569-.276-.812-.629-.784-1.045v-1.678m9.694 11.175-8.911-5.153c-.569-.275-.812-.628-.784-1.045v-1.677m-.727-1.451-5.804-3.356-3.89-4.52m9.694 11.176-4.394-2.541m-16.449-12.813-8.911-5.153c-.569-.275-.811-.628-.784-1.045v-1.677m5.282 8.623-4.498-2.6c-.569-.277-.811-.629-.784-1.046v-1.677m-.727-1.451-8.91-5.153c-.57-.276-.812-.629-.784-1.045v-1.678m9.694 11.175-8.91-5.152c-.569-.276-.811-.628-.784-1.045v-1.678m-.727-1.45-8.911-5.154c-.568-.275-.811-.628-.784-1.045v-1.677m9.695 11.175-8.911-5.153c-.568-.276-.811-.628-.784-1.045v-1.677m-.727-1.451-8.91-5.153c-.57-.276-.812-.629-.784-1.045v-1.678m9.694 11.175-8.91-5.153c-.57-.275-.812-.628-.784-1.045v-1.677m82.646 53.85-8.91-5.153c-.57-.276-.812-.629-.784-1.045v-1.677m9.694 11.175-8.91-5.153c-.57-.276-.812-.629-.784-1.045v-1.678m-.728-1.45-8.91-5.154c-.569-.275-.812-.628-.784-1.045v-1.677m9.694 11.175-8.911-5.153c-.569-.276-.812-.628-.784-1.045v-1.678m-.727-1.45-3.632-2.101m3.632 5.4-3.4-1.966m-22.266-16.176-4.088-2.364c-.569-.276-.811-.628-.784-1.045v-1.677m4.114 7.947-3.33-1.925c-.569-.276-.811-.628-.784-1.045v-1.678m-.727-1.45-8.91-5.154c-.57-.275-.812-.628-.784-1.045v-1.677m9.694 11.175-8.91-5.153c-.569-.275-.811-.628-.784-1.045v-1.677m-.727-1.451-8.911-5.153c-.568-.276-.811-.629-.784-1.045v-1.678m9.695 11.175-8.911-5.153c-.568-.275-.811-.628-.784-1.045v-1.677m-.727-1.45-8.91-5.154c-.57-.275-.812-.628-.784-1.045v-1.677m9.694 11.175-8.91-5.153c-.57-.276-.812-.628-.784-1.045v-1.678m82.646 53.85-8.91-5.153c-.57-.275-.812-.628-.784-1.045v-1.677m-.728 1.849-8.91-5.153c-.569-.276-.812-.629-.784-1.045v-1.678m-.727 1.849-2.787-1.612m-23.292-13.47-3.676-2.125c-.568-.275-.81-.628-.783-1.045v-1.677m-.727 1.849-8.91-5.153c-.57-.276-.812-.629-.784-1.045v-1.678m-.728 1.849-8.91-5.153c-.569-.276-.812-.628-.784-1.045v-1.677m-.727 1.848-8.911-5.153c-.569-.275-.812-.628-.784-1.045v-1.677" fill="none" stroke-width=".146"/><path d="M411.555 371.981c18.7 15.441 18.289 22.989 17.498 40.053l-4.38-1.219c.545-13.987.761-20.262-12.22-32.583-11.053 4.196-11.21 10.895-11.228 19.57l-1.544 6.086-5.5-1.526c-.152-12.428-1.214-24.92 17.374-30.38z" fill="#c8c4b7" fill-rule="evenodd" stroke-width=".197" stroke-linecap="round" stroke-linejoin="round"/><path d="M412.418 378.086c1.501 1.326 2.745 2.672 3.837 3.972-1.942.474-7.341 2.647-9.952 6.765l-5.597-.209c1.563-4.383 4.856-8.107 11.712-10.528z" fill="#c8c4b7" fill-rule="evenodd" stroke-width=".197"/><path d="m414.145 380.09 2.663-3.492m.829 7.001 3.297-2.557m-.211 7.088c.423-.105 3.809-2.433 3.809-2.433m-1.482 6.877 4.55-1.27m-2.857 6.666 4.338-.212m-19.785-18.515-1.904-5.819m-1.288 8.049-3.05-5.51m-.186 8.516-4.046-5.13m1.762 9.38-4.83-3.56m4.01 7.431-5.068-2.46" fill="none" stroke-width=".197"/><path d="M450.143 445.797 421.141 429.1v-26.775l29.002 16.697v26.775zm-73.434-69.066 23.095 13.301v26.775l-23.095-13.3V376.73z" fill="#b3b3b3" fill-rule="evenodd" stroke-width=".197"/><path d="m450.143 419.022-26.947-15.516-2.043-1.181.012-.012 3.581-2.055a46.088 46.088 0 0 1 .086 1.82l25.311 14.582v2.362zm-73.434-44.653 24.092 13.876 5.853.016 1.58 1.519c.083.043.132.08-.034.095l-8.715-.027-22.776-13.117v-2.362z" fill="#999" fill-rule="evenodd" stroke-width=".197"/><path d="M408.321 389.896h-8.574v26.198h8.574v-26.198z" fill="#b3b3b3" stroke-width=".195"/><path d="m523.793 348.465-23.096 13.3-21.337 12.293-29.002 16.698v26.775l22.813-13.13c6.245-35.46 17.298-21.428 27.526-15.86l23.096-13.301v-26.775z" font-size="12" fill="#c8c4b7" fill-rule="evenodd" stroke-width=".197"/><path d="m450.41 394.124 8.912-5.153c.569-.276.811-.629.784-1.045v-1.677m-9.695 11.175 8.911-5.153c.569-.276.811-.629.784-1.045v-1.678m.727-1.45 8.91-5.154c.569-.275.812-.628.784-1.045v-1.677m-9.694 11.175 8.91-5.153c.57-.276.812-.628.784-1.045v-1.678m.728-1.45 8.911-5.154c.568-.275.811-.628.784-1.045v-1.677m-9.695 11.175 8.911-5.153c.568-.276.811-.628.784-1.045v-1.677m.726-1.451 8.911-5.153c.569-.276.812-.629.784-1.045v-1.678m-9.695 11.175 8.911-5.153c.569-.275.812-.628.784-1.045v-1.677m.727-1.451 8.911-5.153c.568-.276.811-.628.784-1.045v-1.677m-9.696 11.175 8.911-5.153c.569-.276.812-.628.784-1.045v-1.678m.727-1.45 8.91-5.154c.57-.275.812-.628.784-1.045v-1.677m-9.694 11.175 8.911-5.153c.569-.275.811-.628.784-1.045v-1.677m.727-1.451 8.91-5.153c.57-.276.812-.629.785-1.045v-1.678m-9.695 11.175 8.91-5.153c.57-.275.812-.628.785-1.045v-1.677m.726-1.45 8.912-5.154c.568-.275.81-.628.783-1.045v-1.677m-9.695 11.175 8.912-5.153c.568-.276.81-.628.783-1.045v-1.678m-82.646 53.85 8.91-5.153c.57-.275.812-.628.784-1.045v-1.677m-9.694 11.175 8.91-5.153c.57-.276.812-.628.784-1.045v-1.677m.728-1.451 8.91-5.153c.569-.276.812-.629.784-1.045v-1.678m-9.694 11.175 8.91-5.153c.57-.275.812-.628.784-1.045v-1.677m.728-1.451 5.804-3.356 3.89-4.52m-9.694 11.176 4.394-2.541m16.449-12.813 8.911-5.153c.568-.275.811-.628.784-1.045v-1.677m-5.282 8.623 4.498-2.6c.568-.277.811-.629.784-1.046v-1.677m.727-1.451 8.91-5.153c.57-.276.812-.629.784-1.045v-1.678m-9.694 11.175 8.91-5.152c.569-.276.811-.628.784-1.045v-1.678m.727-1.45 8.911-5.154c.568-.275.811-.628.784-1.045v-1.677m-9.695 11.175 8.911-5.153c.568-.276.811-.628.784-1.045v-1.677m.726-1.451 8.912-5.153c.568-.276.81-.629.783-1.045v-1.678m-9.695 11.175 8.912-5.153c.568-.275.81-.628.783-1.045v-1.677m-82.646 53.85 8.91-5.153c.57-.276.812-.629.784-1.045v-1.677m-9.694 11.175 8.91-5.153c.57-.276.812-.629.784-1.045v-1.678m.728-1.45 8.91-5.154c.569-.275.812-.628.784-1.045v-1.677m-9.694 11.175 8.91-5.153c.57-.276.812-.628.784-1.045v-1.678m.728-1.45 3.632-2.101m-3.632 5.4 3.399-1.966m22.266-16.176 4.09-2.364c.567-.276.81-.628.783-1.045v-1.677m-4.114 7.947 3.33-1.925c.568-.276.811-.628.784-1.045v-1.678m.727-1.45 8.91-5.154c.57-.275.812-.628.784-1.045v-1.677m-9.694 11.175 8.91-5.153c.569-.275.811-.628.784-1.045v-1.677m.727-1.451 8.911-5.153c.568-.276.811-.629.784-1.045v-1.678m-9.695 11.175 8.911-5.153c.568-.275.811-.628.784-1.045v-1.677m.726-1.45 8.912-5.154c.568-.275.81-.628.783-1.045v-1.677m-9.695 11.175 8.912-5.153c.568-.276.81-.628.783-1.045v-1.678m-82.646 53.85 8.91-5.153c.57-.275.812-.628.784-1.045v-1.677m.728 1.849 8.91-5.153c.569-.276.812-.629.784-1.045v-1.678m.727 1.849 2.787-1.612m23.292-13.47 3.675-2.125c.569-.275.812-.628.784-1.045v-1.677m.727 1.849 8.91-5.153c.57-.276.812-.629.784-1.045v-1.678m.728 1.849 8.91-5.153c.569-.276.812-.628.784-1.045v-1.677m.727 1.848 8.911-5.153c.569-.275.811-.628.784-1.045v-1.677" fill="none" stroke-width=".146"/><path d="M488.927 371.981c-18.698 15.441-18.288 22.989-17.497 40.053l4.38-1.219c-.545-13.987-.761-20.262 12.22-32.583 11.053 4.196 11.21 10.895 11.228 19.57l1.544 6.086 5.5-1.526c.152-12.428 1.214-24.92-17.375-30.38z" fill="#c8c4b7" fill-rule="evenodd" stroke-width=".197" stroke-linecap="round" stroke-linejoin="round"/><path d="M488.065 378.086a36.716 36.716 0 0 0-3.837 3.972c1.942.474 7.341 2.647 9.952 6.765l5.597-.209c-1.563-4.383-4.856-8.107-11.712-10.528z" fill="#c8c4b7" fill-rule="evenodd" stroke-width=".197"/><path d="m486.338 380.09-2.663-3.492m-.829 7.001-3.297-2.557m.211 7.088c-.423-.105-3.809-2.433-3.809-2.433m1.482 6.877-4.55-1.27m2.857 6.666-4.338-.212m19.785-18.515 1.904-5.819m1.288 8.049 3.05-5.51m.186 8.516 4.046-5.13m-1.763 9.38 4.83-3.56m-4.009 7.431 5.068-2.46" fill="none" stroke-width=".197"/><path d="m450.34 445.797 29.002-16.697v-26.775l-29.002 16.697v26.775zm73.434-69.066-23.096 13.301v26.775l23.096-13.3V376.73z" fill="#b3b3b3" fill-rule="evenodd" stroke-width=".197"/><path d="m450.34 419.022 26.947-15.516 2.043-1.181-.013-.012-3.58-2.055a46.088 46.088 0 0 0-.086 1.82L450.34 416.66v2.362zm73.434-44.653-24.093 13.876-5.853.016-1.579 1.519c-.083.043-.132.08.034.095l8.715-.027 22.776-13.117v-2.362z" fill="#999" fill-rule="evenodd" stroke-width=".197"/><path d="M492.162 389.896h8.574v26.198h-8.574v-26.198z" fill="#b3b3b3" stroke-width=".195"/><path d="M523.805 345.482v-9.45l-73.438 42.286-73.438-42.286v9.45l73.438 42.286 73.438-42.286z" fill="gray" fill-rule="evenodd" stroke-width=".393"/><path d="m457.017 382.973-6.869-3.955m64.619-29.22-6.869-3.955m-7.568 12.249-6.87-3.955m-7.568 12.249-6.869-3.955m-7.568 12.249-6.87-3.955" stroke-width=".393" fill="none"/><g stroke-width=".197" fill-rule="evenodd"><path d="M523.805 336.82v-1.575l-73.438 42.285-73.438-42.285v1.575l73.438 42.285 73.438-42.285z" fill="#4d4d4d"/><path d="M523.805 336.032v-3.15l-73.438 42.286-73.438-42.286v3.15l73.438 42.286 73.438-42.286z" fill="#666"/><path d="M523.805 348.632v-1.575l-73.438 42.286-73.438-42.286v1.575l73.438 42.286 73.438-42.286z" fill="#4d4d4d"/><path d="M523.805 347.845v-3.15l-73.438 42.285-73.438-42.285v3.15l73.438 42.285 73.438-42.285z" fill="#666"/></g><path d="M450.342 418.95v26.715-26.714z" fill="#c8c4b7" stroke-width=".197"/><path d="m392.442 345.843-6.869 3.956m64.619 29.219-6.869 3.956m-7.568-12.249-6.87 3.955m-7.568-12.249-6.869 3.955m-7.568-12.249-6.87 3.955" stroke-width=".393" fill="none"/></g><path d="M43.012 310.599c.204 120.276-.408 240.575.313 360.843 3.833 107.937 86.494 206.518 192.03 229.313 97.637 23.777 206.923-18.953 262.032-103.219 33.005-47.127 45.16-105.447 42.438-162.219V310.6H43.012zm62.125 74.593h372.906v261.063c0 103.285-83.183 186.437-186.468 186.437-103.285 0-186.438-83.152-186.438-186.437V385.192z" style="marker:none" fill="#eac102" fill-rule="evenodd" overflow="visible" transform="translate(335.52 97.942) scale(.39375)"/><path d="M450.334 425.818c40.668 0 73.42-32.75 73.42-73.419V249.612h-146.84v102.787c0 40.668 32.751 73.42 73.42 73.42z" fill="none" stroke="#000" stroke-linecap="round" stroke-width=".394"/><path d="M431.628 317.926h-3.075v-8.397h2.152v.933h.615c.308 0 .591.164.591.457 0 .293-.283.476-.59.476h-.616v.621l.923.934v4.976z" fill="#eac102" fill-rule="evenodd" stroke="#000" stroke-width=".178"/><path class="fil2 str1" transform="matrix(.61493 0 0 .62203 389.786 264.742)" fill="#eac102" fill-rule="evenodd" stroke="#000" stroke-width=".288" d="M63.044 79.5h3v-1V80m-3 2.5h3v-1V83"/><path d="m407.956 287.407 8.035-4.367m-.071.053 7.686 2.93m-26.682 5.908 5.16-6.506m-7.534 16.309 4.92 6.842" fill="#eac102" fill-rule="evenodd" stroke="#000" stroke-width=".178"/><path d="M407.926 305.174c1.23 2.489 2.46 4.355 5.227 5.288" fill="#0071bc" fill-rule="evenodd" stroke="#000" stroke-width=".178"/><path d="M415.332 310.772h1.23l-.308-35.766c-.006-.182-.17-.269-.29-.274-.12-.006-.321.098-.324.274l-.308 35.767z" fill="#eac102" fill-rule="evenodd" stroke="#000" stroke-width=".178"/><path d="m403.579 306.744.912-.069-2.524-22.51c-.016-.115-.144-.16-.234-.157-.09.003-.232.08-.222.191l2.068 22.545z" fill="#eac102" fill-rule="evenodd" stroke="#000" stroke-width=".172"/><path d="m389.874 303.764 9.994 4.812-.264.562-9.994-4.812c-.144-.075-.156-.254-.103-.394.054-.139.244-.205.368-.168z" fill="#eac102" fill-rule="evenodd" stroke="#000" stroke-width=".178"/><path d="m428.246 317.926 2.634-10.064c-9.09 3.533-20.775 3.222-31.674.576l.446 1.713 1.23.621c.922 2.489 1.844 7.154 7.379 7.154h19.985z" fill="#eac102" fill-rule="evenodd" stroke="#000" stroke-width=".178"/><path d="M401.58 309.3c.839 6.138 4.836 7.693 8.525 7.693h11.377c3.689 0 5.534-1.555 7.956-3.59l1.091-4.138c-7.51 3.063-23.498 4.929-28.949.035z" fill="#eac102" fill-rule="evenodd" stroke="#000" stroke-width=".178"/><path d="M401.813 310.572c8.292 5.799 21.82 2.689 28.485-.43l-.608 2.306c-4.519 5.167-24.196 5.478-27.07.4-.479-1.006-.582-1.402-.807-2.276z" fill="#eac102" fill-rule="evenodd" stroke="#000" stroke-width=".178"/><path d="M402.074 311.516c10.799 6.72 24.942 1.434 28.026-.625l-.206.782c-5.953 4.387-21.326 5.942-27.47.752-.144-.304-.248-.61-.35-.91zm29.246-2.92 2.152-4.666-10.146 2.488c-.307 1.556-.615 2.178-2.152 3.733l10.146-1.555z" fill="#eac102" fill-rule="evenodd" stroke="#000" stroke-width=".178"/><path d="m430.828 308.69 1.937-4.2-9.131 2.24c-.277 1.4-.554 1.96-1.938 3.359l9.132-1.4z" fill="#c83737" fill-rule="evenodd" stroke="#000" stroke-width=".178"/><path fill="#eac102" fill-rule="evenodd" stroke="#000" stroke-width=".178" d="M416.87 312.328h3.69v.31h-3.69z"/><path class="fil2 str1" fill="#eac102" fill-rule="evenodd" stroke="#000" stroke-width=".178" d="m417.213 313.47-.615-10.886m1.297 10.723-.616-10.885m1.297 10.723-.615-10.886m1.297 10.724-.615-10.885m1.297 10.723-.616-10.886"/><path d="m402.33 285.612 5.596 5.29" fill="#eac102" fill-rule="evenodd" stroke="#000" stroke-width=".178"/><path transform="matrix(.61493 0 0 .62203 389.786 264.742)" fill="#eac102" fill-rule="evenodd" stroke="#000" stroke-width=".288" d="m25.544 74.5 4.5 1v.5l-4.5-1v-.5z"/><path class="fil2 str1" fill="#eac102" fill-rule="evenodd" stroke="#000" stroke-width=".178" d="m405.8 312.328-1.536-9.33m2.176 9.474-1.538-9.33m2.176 9.474-1.537-9.33m2.176 9.474-1.538-9.33m2.177 9.475-1.538-9.33"/><path d="m423.905 285.735-15.988 1.866c-3.69 7.776-3.075 12.44 0 20.216 5.227-3.732 10.761-3.421 14.758.311-2.152-9.33-.615-17.106 1.23-22.393z" fill="#e3e4e5" fill-rule="evenodd" stroke="#000" stroke-width=".178"/><path d="M397.393 307.327c-2.74-3.431-2.74-10.294-.685-15.44l11.644-1.03c-1.713 5.833-3.082 11.666 0 18.872-4.11-2.745-9.59-3.432-10.959-2.402z" fill="#e3e4e5" fill-rule="evenodd" stroke="#000" stroke-width=".178"/><path transform="matrix(.61493 0 0 .36686 389.786 282.61)" fill="#eac102" fill-rule="evenodd" stroke="#000" stroke-width=".375" d="m66.544 68.713-6 1V69l6-1v.713z"/><path d="m390.564 304.092 6.925-10.577c-1.314 6.086-1.301 9.727-1.125 13.338-1.6-1.958-3.931-2.599-5.8-2.761z" fill="#e3e4e5" fill-rule="evenodd" stroke="#000" stroke-width=".178"/><path transform="matrix(.61493 0 0 .62203 389.786 264.742)" fill="#eac102" fill-rule="evenodd" stroke="#000" stroke-width=".288" d="M39.544 23h6l-1.5 6h-3l-1.5-6z"/><path d="M414.172 275.249a1.678 1.678 0 0 1 1.52 0v1.78c-.43-.242-1.057-.242-1.52 0v-1.78zm-1.841 0v1.78c-.847-.478-2.32-.242-3.2.081l1.28-1.052-1.521-.567c1.04-.323 2.32-.647 3.441-.242zm1.841 2.266c-.56.243-1.28.243-1.841 0v-1.78c.52.242 1.28.242 1.84 0v1.78z" fill="#c83737" fill-rule="evenodd" stroke="#000" stroke-width=".178"/><path d="m390.2 303.775 11.65-17.971" fill="#eac102" fill-rule="evenodd" stroke="#000" stroke-width=".178"/><path d="M426.26 850.527c-.93.027-1.876.114-2.8.114-2.91 0-5.446-.141-7.703-.38a52.078 52.078 0 0 1-6.062-1.005 57.06 57.06 0 0 1-5.01-1.384c-1.568-.506-3.074-1.048-4.61-1.593-1.535-.546-3.114-1.1-4.82-1.612a58.656 58.656 0 0 0-5.62-1.404 67.66 67.66 0 0 0-7.072-1.005c-2.665-.239-5.683-.38-9.136-.38-3.403 0-6.303.161-8.861.418a56.24 56.24 0 0 0-6.715 1.062 48.86 48.86 0 0 0-5.22 1.48c-1.58.54-3.055 1.138-4.504 1.706-1.45.568-2.886 1.132-4.442 1.65a44.14 44.14 0 0 1-5.114 1.385c-1.901.392-4.042.701-6.526.89-2.483.19-5.325.261-8.63.172-3.255-.09-6.092-.28-8.608-.55a73.005 73.005 0 0 1-6.694-1.043 71.325 71.325 0 0 1-5.41-1.31 120.66 120.66 0 0 1-4.736-1.46c-1.535-.5-3.055-1.002-4.672-1.479a65.56 65.56 0 0 0-5.242-1.327 69.478 69.478 0 0 0-6.44-1.005 98.029 98.029 0 0 0-8.21-.588c-3.058-.09-5.748 0-8.166.19-2.42.189-4.563.498-6.526.89a53.64 53.64 0 0 0-5.43 1.404 123.464 123.464 0 0 0-4.884 1.65 147.555 147.555 0 0 1-4.883 1.67 63.204 63.204 0 0 1-5.43 1.478 57.876 57.876 0 0 1-6.526 1.062 76.878 76.878 0 0 1-8.166.418c-3.059 0-5.759-.16-8.167-.418a56.846 56.846 0 0 1-6.483-1.062 61.254 61.254 0 0 1-5.368-1.479c-1.67-.536-3.257-1.1-4.841-1.669-1.584-.568-3.178-1.131-4.862-1.65-1.685-.518-3.46-1.01-5.431-1.403a55.595 55.595 0 0 0-6.588-.892 73.909 73.909 0 0 0-6.02-.208c-.732.003-1.475-.004-2.252.019-3.108.09-5.843.318-8.294.588-2.45.27-4.63.607-6.609 1.005-1.98.398-3.76.85-5.452 1.327-1.691.477-3.292.979-4.883 1.48-1.59.5-3.167.992-4.841 1.46-1.674.467-3.446.91-5.389 1.309a71.609 71.609 0 0 1-6.462 1.043c-2.395.27-5.07.46-8.104.55-1.267.037-2.523-.062-3.788-.076a148.986 148.986 0 0 0 10.503 17.562c.428-.04.979-.049 1.39-.095a72.535 72.535 0 0 0 6.461-1.005 72.8 72.8 0 0 0 5.389-1.328c1.674-.477 3.25-.979 4.841-1.48 1.59-.5 3.192-1.016 4.883-1.497a70.112 70.112 0 0 1 5.452-1.328c1.98-.398 4.158-.717 6.61-.986 2.45-.27 5.185-.46 8.293-.55 3.108-.09 5.825-.02 8.272.17 2.446.19 4.616.5 6.588.892 1.972.392 3.746.866 5.43 1.384a111.61 111.61 0 0 1 4.863 1.631c1.584.568 3.172 1.143 4.841 1.688a57.961 57.961 0 0 0 5.368 1.498c1.946.438 4.074.787 6.483 1.044 2.408.256 5.108.398 8.167.398 3.058 0 5.748-.142 8.166-.398 2.42-.257 4.563-.606 6.526-1.044a59.775 59.775 0 0 0 5.43-1.498c1.689-.545 3.287-1.12 4.883-1.688a109.79 109.79 0 0 1 4.884-1.63 56.5 56.5 0 0 1 5.43-1.385 54.963 54.963 0 0 1 6.526-.892c2.418-.19 5.108-.26 8.166-.17 3.108.09 5.804.28 8.21.55 2.405.27 4.53.588 6.44.986 1.91.398 3.624.846 5.242 1.328 1.617.481 3.137.997 4.672 1.498 1.536.5 3.08 1.002 4.736 1.479 1.657.477 3.426.93 5.41 1.328s4.177.735 6.694 1.005c2.516.27 5.353.441 8.608.53 3.305.09 6.147.02 8.63-.17 2.484-.19 4.625-.499 6.526-.891 1.9-.393 3.559-.847 5.114-1.366 1.556-.518 2.993-1.082 4.442-1.65a108.274 108.274 0 0 1 4.504-1.669c1.58-.54 3.27-1.08 5.22-1.517 1.95-.437 4.157-.767 6.715-1.024s5.458-.417 8.861-.417c3.453 0 6.47.14 9.136.38 2.664.238 4.99.557 7.072.966a58.65 58.65 0 0 1 5.62 1.404c1.706.511 3.285 1.066 4.82 1.612 1.536.545 3.042 1.087 4.61 1.593a57.06 57.06 0 0 0 5.01 1.384c1.81.41 3.804.767 6.062 1.005.03.004.074-.003.105 0a131.202 131.202 0 0 0 10.398-17.675zm12.061-37.02c-2.008.253-4.014.519-6.041.682-2.96.24-5.909.36-8.82.36-2.91 0-5.446-.12-7.703-.36a52.087 52.087 0 0 1-6.062-1.005 57.057 57.057 0 0 1-5.01-1.384c-1.568-.506-3.074-1.048-4.61-1.593-1.535-.546-3.114-1.1-4.82-1.612a58.644 58.644 0 0 0-5.62-1.404 67.658 67.658 0 0 0-7.072-1.005c-2.665-.239-5.683-.38-9.136-.38-3.403 0-6.303.161-8.861.418a56.245 56.245 0 0 0-6.715 1.062 48.53 48.53 0 0 0-5.22 1.48c-1.58.54-3.055 1.138-4.504 1.706-1.45.568-2.886 1.132-4.442 1.65a44.27 44.27 0 0 1-5.114 1.366c-1.901.392-4.042.701-6.526.891-2.483.19-5.325.26-8.63.17-3.255-.089-6.092-.28-8.608-.55a73.434 73.434 0 0 1-6.694-1.023 71.33 71.33 0 0 1-5.41-1.309c-1.656-.468-3.2-.96-4.736-1.46-1.535-.501-3.055-1.017-4.672-1.499a63.588 63.588 0 0 0-5.242-1.327c-1.91-.398-4.035-.717-6.44-.986a98.054 98.054 0 0 0-8.21-.588c-3.058-.09-5.748-.02-8.166.17-2.42.19-4.563.5-6.526.892-1.962.392-3.742.88-5.43 1.403a123.464 123.464 0 0 0-4.884 1.65c-1.596.568-3.194 1.148-4.883 1.688a61.525 61.525 0 0 1-5.43 1.48 57.874 57.874 0 0 1-6.526 1.061c-2.418.257-5.108.399-8.166.399-3.059 0-5.759-.142-8.167-.399a56.855 56.855 0 0 1-11.85-2.54c-1.67-.541-3.258-1.12-4.842-1.689-1.584-.568-3.178-1.131-4.862-1.65-1.685-.518-3.46-1.01-5.431-1.403a55.61 55.61 0 0 0-6.588-.892 73.913 73.913 0 0 0-6.02-.208 90.34 90.34 0 0 0-2.252.038c-3.108.09-5.843.318-8.294.588-2.45.27-4.63.588-6.609.986-1.98.398-3.76.846-5.452 1.327-1.691.482-3.292.998-4.883 1.499-1.59.5-3.167.992-4.841 1.46-1.674.468-3.446.91-5.389 1.309A71.998 71.998 0 0 1 131.45 814c-2.395.27-5.07.46-8.104.55-3.083.09-6.165.019-9.219-.17-2.418-.151-4.788-.42-7.135-.703a130.124 130.124 0 0 0 4.757 18.416c.8.066 1.572.177 2.378.227 3.054.19 6.136.26 9.22.17a98.47 98.47 0 0 0 8.103-.55c2.396-.269 4.52-.587 6.462-.985a72.804 72.804 0 0 0 5.389-1.328c1.674-.477 3.25-.978 4.841-1.48 1.59-.5 3.192-1.016 4.883-1.497a70.112 70.112 0 0 1 5.452-1.328c1.98-.398 4.158-.717 6.61-.986a103 103 0 0 1 8.293-.55c3.108-.09 5.825-.02 8.272.17 2.446.19 4.616.5 6.588.892 1.972.392 3.746.847 5.43 1.365 1.685.519 3.279 1.082 4.863 1.65 1.584.568 3.172 1.143 4.841 1.688a57.955 57.955 0 0 0 5.368 1.499c1.946.437 4.074.767 6.483 1.024a76.73 76.73 0 0 0 8.167.417c3.058 0 5.748-.16 8.166-.417 2.42-.257 4.563-.587 6.526-1.024a59.775 59.775 0 0 0 5.43-1.499c1.689-.545 3.287-1.12 4.883-1.688a109.804 109.804 0 0 1 4.884-1.63 56.503 56.503 0 0 1 5.43-1.385 54.963 54.963 0 0 1 6.526-.891c2.418-.19 5.108-.26 8.166-.171 3.108.09 5.804.28 8.21.55 2.405.27 4.53.588 6.44.986 1.91.398 3.624.846 5.242 1.328 1.617.481 3.137.997 4.672 1.498 1.536.5 3.08 1.002 4.736 1.48 1.657.476 3.426.929 5.41 1.327 1.984.398 4.177.716 6.694.986 2.516.27 5.353.46 8.608.55 3.305.09 6.147.019 8.63-.17 2.484-.19 4.625-.5 6.526-.892 1.9-.393 3.559-.847 5.114-1.366 1.556-.518 2.993-1.082 4.442-1.65 1.449-.568 2.924-1.147 4.504-1.688 1.58-.54 3.27-1.06 5.22-1.498 1.95-.437 4.157-.767 6.715-1.024s5.458-.417 8.861-.417c3.453 0 6.47.14 9.136.38 2.664.238 4.99.538 7.072.947 2.082.41 3.914.911 5.62 1.423 1.706.511 3.285 1.066 4.82 1.612 1.536.545 3.042 1.087 4.61 1.593 1.568.506 3.198.975 5.01 1.384 1.81.41 3.804.748 6.062.987 2.257.238 4.793.379 7.703.379 2.911 0 5.86-.14 8.82-.38.424-.034.838-.113 1.263-.151 1.94-6.066 3.633-12.209 4.778-18.453z" style="marker:none" overflow="visible" transform="translate(365.472 171.572) scale(.17792)" stroke="#000" fill="#e3e4e5" fill-rule="evenodd" stroke-width=".639"/><path d="m476.51 294.253-.74.112c-.18-.045-.427.083-.547.282 0 0-3.124 4.943-4.334 6.685-.138-.063-.226-.099-.226-.099-.17-.092-.413-.022-.548.155 0 0-3.17 4.17-4.512 5.432a35.292 41.718 0 0 0 3.513 5.911c2.491 3.498 5.683 6.893 9.095 9.514h21.264c2.277-2.198 4.412-4.977 6.513-7.867a6.8 8.038 0 0 1-.857-.422l-.358-.212c-.36-.212-.702-.408-1.095-.549a4.091 4.091 0 0 0-1.417-.238c-.698 0-1.164-.037-1.786-.282-.1-.04-.188-.094-.285-.14l-.798-1.169c-.127-.19-.62-.352-.62-.352-.182 0-.422-.158-.535-.366l-1.536-2.744c-.096-.225-.975-.592-1.071-.816l-.989-2.308c-.096-.223-.329-.395-.512-.38 0 0-.25.023-.535.098-.286.076-.606.211-.762.437-.519.395-1.076.737-1.631 1.055-.555.318-1.107.605-1.608.873-.21-.59-.503-1.127-.821-1.647-.319-.52-.665-1.014-1.012-1.52a17.713 17.713 0 0 1-.988-1.576 7.745 7.745 0 0 1-.715-1.774c-.104-.216-.323-.491-.488-.605 0 0-.32-.004-.81-.154a5.29 6.254 0 0 1-.845-.352 5.463 6.458 0 0 1-.976-.676 7.835 7.835 0 0 1-1.06-1.168 21.983 21.983 0 0 1-1-1.464c-.607-.953-1.047-1.759-1.047-1.759-.116-.205-.354-.359-.536-.337l-2.786.422z" fill="#806600"/><path d="m334.438 431.75 7.312-.938c.478-.047 1.102.296 1.406.75 0 0 1.157 1.79 2.75 3.907.797 1.059 1.697 2.214 2.625 3.25.929 1.036 1.9 1.949 2.781 2.594a14.34 14.34 0 0 0 2.563 1.5 13.89 13.89 0 0 0 2.219.78c1.285.334 2.125.344 2.125.344.433.252 1.008.864 1.281 1.344.436 1.435 1.096 2.72 1.875 3.938.779 1.217 1.682 2.376 2.594 3.5.912 1.124 1.82 2.22 2.656 3.375.837 1.154 1.604 2.347 2.156 3.656 1.314-.594 2.762-1.231 4.219-1.938 1.457-.706 2.922-1.464 4.281-2.343.41-.5 1.25-.801 2-.969a11.207 11.207 0 0 1 1.406-.219c.48-.032 1.09.349 1.344.844l2.594 5.125c.254.497 2.56 1.313 2.813 1.813l4.03 6.093c.296.46.927.813 1.407.813 0 0 1.292.36 1.625.781l2.094 2.594c.255.104.488.225.75.312 1.631.544 2.856.625 4.687.625 1.505 0 2.686.219 3.719.531 1.033.313 1.93.747 2.875 1.22l.938.468c.828.414 1.543.694 2.25.938 1.062-1.237 2.13-2.402 3.187-3.657 1.816-2.156 3.506-4.413 5.125-6.75 0-3.254-8.781-21.781-8.781-21.781-.24-.507-.801-.94-1.281-.969l-14.188-2.875c-1.52-1.445-5.625-11.093-5.625-11.094-.275-.479-.866-1.036-1.313-1.25l-4.906-1.906c-1.5-1.27-3.027-11.918-3.531-14.375 0 0-7.329-7.367-9.156-9.594-1.828-2.226-5.438-4.968-5.438-4.968-.407-.31-1.099-.35-1.531-.094 0 0-4.905 4.06-8.906 6.594-.785 2.49-3.292 8.191-5.25 12.344-1.873-.889-3.188-1.72-3.188-1.72-.423-.276-1.04-.138-1.375.282 0 0-2.677 3.813-3.687 5.969-1.512 3.225-6.148 6.607-7.531 11.156z" transform="matrix(.38098 0 0 .45036 349.093 99.812)" fill="url(#b)" stroke="#000"/><path d="M770.85 499.033c.504 2.457 2.018 13.099 3.519 14.368l4.91 1.89c.447.214 1.039.782 1.314 1.262 0 0 4.113 9.637 5.633 11.082l14.166 2.89c.48.029 1.069.467 1.31.973 0 0 8.781 18.522 8.781 21.776a90.343 90.343 0 0 1-5.155 6.744c-6.467 7.684-13.478 15.268-21.033 21.129l-56.532-.11c-8.272-5.845-15.962-13.383-22.391-21.02a92.558 92.558 0 0 1-9.207-13.124c3.52-2.802 11.826-12.066 11.826-12.066.354-.394 1.012-.549 1.461-.344 0 0 .206.094.57.233 3.176-3.868 11.399-14.853 11.399-14.853.315-.442.96-.72 1.433-.62l1.915-.242c1.384-4.549 6.047-7.925 7.558-11.15 1.01-2.156 3.679-5.993 3.679-5.993.335-.42.954-.54 1.377-.264 0 0 1.304.822 3.176 1.71 1.958-4.152 4.47-9.855 5.254-12.346 4-2.534 8.919-6.598 8.919-6.598.432-.256 1.118-.214 1.525.095 0 0 3.608 2.74 5.436 4.967 1.827 2.227 9.156 9.611 9.156 9.611zm-60.827 35.683c1.936.743 8.324 2.761 11.72-1.375m3.026-14.34 7.32-.93c.478-.047 1.118.286 1.422.74 0 0 4.609 7.18 8.138 9.76 3.53 2.58 6.904 2.623 6.904 2.623.433.252 1.01.854 1.283 1.334 0 0 4.231 7.494 5.177 8.646.946 1.15 3.323 3.308 4.269 5.689m-18.725-43.559c3.835 1.818 10.069 3.912 12.439-.215m-7.183-12.13c2.332 1.304 7.107 2.087 8.67 1.688m16.366 6.386c.37.372-.345 1.706-.721 2.07 0 0-3.52 3.369-4.403 6.594m-32.37 10.922c-1.26 3.07-4.682 6.583-5.564 7.658m20.762 4.917c-1.638 3.378-3.244 7.061-4.631 8.75m-25.77 32.275c4.093-3.405 7.244-5.094 9.387-5.094 2.143 0 14.002-1.431 14.002-1.431.478-.058 1.03-.542 1.226-1.076 0 0 1.785-4.864 2.415-7.321.63-2.457 5.043-5.837 7.31-6.91 2.268-1.075 14.303-6.679 15.122-7.678.82-1 3.414-1.171 3.414-1.171.48-.033 1.08.349 1.334.844l2.606 5.104c.253.497 2.558 1.31 2.81 1.81l4.045 6.09c.295.46.93.836 1.411.836 0 0 1.29.344 1.622.766l2.066 2.614c.333.422.998.772 1.479.781l4.708-1.748c.465-.145 1.13.068 1.477.473 0 0 4.32 5.03 5.556 6.533m-28.494-23.95c-1.07 1.304-3.402 5.624-3.402 6.852m6.123-35.142c-1.01 1.23-4.612 4.584-5.241 6.427m17.098 7.807c-1.513 1.843-3.865 3.71-4.496 4.94m-80.947 12.913 7.765-8.506m-6.043 9.745 7.063-7.736m-5.098 8.712 6.072-6.65m-4.154 7.674 5.128-5.617m-3.209 6.643 4.182-4.581m-2.263 5.605 3.236-3.546m-1.316 4.57 2.29-2.508m19.134-26.934c1.49 2.508 6.324 7.838 9.206 9.889m-10.135-7.334c1.81 2.602 5.76 6.89 8.376 8.866m-9.337-6.431c1.88 2.507 5.194 6.065 7.58 7.954m-8.528-5.546c1.803 2.284 4.517 5.175 6.652 6.957M729.67 532c1.74 2.137 4.141 4.673 6.099 6.335m9.483 26.413c.748-3.403 2.47-7.832 3.534-9.129m-1.579 9.066c.606-2.728 1.83-6.093 2.834-7.977m-.878 7.913c.458-2.039 1.255-4.423 2.046-6.277m-.091 6.212c.368-1.622.95-3.456 1.568-5.064m.388 5a36.546 36.546 0 0 1 1.018-3.521m.937 3.46c.144-.624.319-1.274.515-1.931m-8.223-70.811c-.896 2.886-2.673 6.629-3.634 8.757m5.338-8.114c-.929 2.747-2.495 6.063-3.394 8.044m5.138-7.556c-.93 2.61-2.343 5.613-3.191 7.483m5.021-7.58c-.918 2.52-2.25 5.69-3.076 7.509m.715 7.356c1.689-.503 3.32-1.619 4.098-2.827m-2.795 4.343c1.478-.453 2.904-1.369 3.75-2.402m-2.445 3.917c1.285-.404 2.528-1.153 3.376-2.024m-2.076 3.54a8.59 8.59 0 0 0 2.99-1.685m12.676-8.802c.452 2.268 1.048 5.825 1.555 7.878m-2.885-6.617c.355 1.85.775 4.249 1.166 6.067m-2.419-4.377c.232 1.245.482 2.612.726 3.842m3.421 36.282c.785 1.818 2.08 3.775 2.903 4.78m-3.452-2.58c.654 1.514 1.663 3.128 2.458 4.205m-3.007-2.007c.573 1.328 1.418 2.73 2.153 3.782m-2.703-1.582c.497 1.153 1.2 2.364 1.859 3.351m11.556-28.204c-1.49-2.867-3.06-8.793-4.55-8.793m2.97 9.728c-1.125-2.385-2.29-6.214-3.427-7.69m1.831 8.547c-.842-1.93-1.705-4.495-2.558-6.128m.973 6.97c-.58-1.4-1.17-3.025-1.757-4.372m.193 5.24c-.335-.832-.67-1.715-1.007-2.554m9.215 33.843c1.048.95 3.182 1.704 5.022 1.498m-5.583.377c.962.827 2.735 1.49 4.39 1.474m-4.787.526c.883.653 2.26 1.171 3.628 1.271m-4.02.707c.763.498 1.808.896 2.885 1.054m-3.27.912c.61.355 1.364.646 2.157.815m22.312-19.96c-1.59-3.874-6.001-14.045-6.797-15.497m5.382 17.14c-1.498-3.598-4.492-10.509-5.872-13.478m4.524 15.29a565.47 565.47 0 0 0-5.084-11.708m3.737 13.523a618.65 618.65 0 0 0-4.3-9.917m2.952 11.737a622.535 622.535 0 0 0-3.516-8.122m2.165 9.936a649.027 649.027 0 0 0-2.727-6.31" fill="none" stroke="#1b1a1c" stroke-width=".793" stroke-linecap="round" stroke-linejoin="round" transform="matrix(.38098 0 0 .45036 200.378 60.52)"/><path d="M457.674 316.419v5.826h21.43c-.698-1.4-1.702-4.025-1.702-4.025-.105-.216-.33-.48-.5-.577l-1.87-.844c-.571-.572-1.153-5.368-1.345-6.474 0 0-2.792-3.318-3.488-4.32-.696-1.004-2.06-2.239-2.06-2.239a.496.496 0 0 0-.583-.042s-1.881 1.828-3.405 2.97c-.299 1.121-1.254 3.689-2 5.559a11.506 13.601 0 0 1-1.203-.774c-.161-.125-.408-.063-.535.126 0 0-1.009 1.717-1.394 2.688-.267.675-.805 1.375-1.345 2.126z" fill="#806600"/><path d="M675.473 568.073c1.38-1.617 2.71-3.109 3.394-4.57 1.01-2.155 3.679-5.992 3.679-5.992.335-.42.954-.54 1.377-.264 0 0 1.304.822 3.176 1.71 1.958-4.151 4.47-9.855 5.254-12.346 4-2.534 8.919-6.597 8.919-6.597.432-.257 1.118-.214 1.525.095 0 0 3.608 2.74 5.436 4.966 1.827 2.227 9.156 9.612 9.156 9.612.505 2.457 2.019 13.098 3.52 14.368l4.91 1.89c.447.214 1.038.782 1.314 1.26 0 0 2.361 5.535 4.167 8.844m-55.881-6.917 3.21-.407c.478-.048 1.118.285 1.422.739 0 0 2.033 3.498 4.74 6.572m2.306-22.078c3.835 1.817 10.069 3.912 12.439-.216m-7.183-12.13c2.331 1.304 7.107 2.087 8.67 1.688m16.366 6.387c.37.371-.345 1.705-.721 2.069 0 0-3.52 3.369-4.403 6.594m-32.37 10.923c-.933 2.271-3.049 4.786-4.444 6.375m45.458-11.593c-1.01 1.23-4.612 4.583-5.241 6.426m-35.558 2.53c.502.846.946 1.661 2.005 2.913m-2.934-.356c.185.267-.043.202.184.5m14.497-33.726c-.896 2.886-2.673 6.63-3.634 8.757m5.338-8.114c-.929 2.747-2.495 6.064-3.394 8.044m5.138-7.556c-.93 2.61-2.343 5.613-3.191 7.483m5.021-7.58c-.918 2.52-2.25 5.69-3.076 7.51m.715 7.355c1.689-.503 3.32-1.619 4.098-2.827m-2.795 4.343c1.478-.453 2.904-1.368 3.75-2.402m-2.445 3.917c1.285-.404 2.528-1.153 3.376-2.024m-2.076 3.54a8.59 8.59 0 0 0 2.99-1.685m12.676-8.802c.452 2.268 1.048 5.825 1.555 7.878m-2.885-6.617c.355 1.85.775 4.249 1.166 6.068m-2.419-4.378c.232 1.245.482 2.613.726 3.842m14.739 17.084c-1.355-3.05-2.76-7.85-4.101-7.85m2.096 7.669c-.848-2.137-1.709-4.534-2.553-5.63m.71 5.764c-.478-1.224-.96-2.431-1.437-3.346m-.466 3.197c-.12-.296-.198-.322-.318-.598" fill="none" stroke="#1b1a1c" stroke-width=".793" stroke-linecap="round" stroke-linejoin="round" transform="matrix(.38098 0 0 .45036 200.378 60.52)"/><path d="M492.915 322.245h23.466v-6.136l-.928-.422c-.572-.572-1.142-5.368-1.334-6.474 0 0-2.792-3.318-3.488-4.32-.696-1.004-2.072-2.239-2.072-2.239a.495.495 0 0 0-.583-.042s-1.88 1.829-3.405 2.97c-.3 1.122-1.254 3.689-2 5.559a11.557 13.661 0 0 1-1.203-.774c-.161-.125-.396-.063-.524.126 0 0-1.02 1.718-1.405 2.689-.575 1.452-2.354 2.975-2.881 5.024l-.726.113c-.18-.046-.428.082-.548.281 0 0-1.326 2.025-2.369 3.645z" fill="#806600"/><path d="M768.103 580.925c3.033-3.973 5.956-7.876 5.956-7.876.315-.442.96-.721 1.433-.62l1.915-.242c1.384-4.549 6.047-7.925 7.558-11.15 1.01-2.156 3.679-5.993 3.679-5.993.334-.42.953-.54 1.376-.264 0 0 1.304.822 3.177 1.71 1.958-4.152 4.469-9.855 5.253-12.346 4.001-2.535 8.92-6.598 8.92-6.598.431-.256 1.117-.214 1.525.095 0 0 3.608 2.74 5.435 4.967 1.828 2.227 9.157 9.611 9.157 9.611.504 2.457 2.018 13.098 3.52 14.368l2.51.966m-52.11 4.634 7.319-.93c.478-.047 1.119.285 1.423.74 0 0 3.922 6.11 7.3 9.083m-.254-24.59c3.834 1.818 10.068 3.912 12.438-.215m-7.183-12.131c2.332 1.305 7.107 2.088 8.67 1.689m16.367 6.386c.37.372-.346 1.705-.722 2.07 0 0-3.52 3.368-4.402 6.594m-32.371 10.922c-1.26 3.07-4.681 6.583-5.564 7.658m46.578-12.876c-1.009 1.23-4.611 4.584-5.24 6.427m-35.559 2.53c.816 1.374 2.634 3.593 4.586 5.656m-5.515-3.1c.618.888 1.484 1.971 2.462 3.092m-3.423-.657c.13.173.267.352.41.534m15.233-36.194c-.897 2.886-2.674 6.629-3.635 8.757m5.339-8.114c-.93 2.747-2.496 6.063-3.394 8.044m5.137-7.557c-.93 2.61-2.343 5.614-3.19 7.484m5.02-7.58c-.917 2.52-2.249 5.69-3.075 7.509m.714 7.356c1.69-.503 3.32-1.62 4.099-2.828m-2.796 4.344c1.479-.453 2.905-1.369 3.75-2.402m-2.445 3.917c1.286-.404 2.529-1.154 3.377-2.024m-2.076 3.54a8.59 8.59 0 0 0 2.989-1.685m12.676-8.802c.453 2.268 1.048 5.825 1.555 7.878m-2.884-6.617c.355 1.849.775 4.248 1.166 6.067m-2.419-4.377c.232 1.245.481 2.612.726 3.842" fill="none" stroke="#1b1a1c" stroke-width=".793" stroke-linecap="round" stroke-linejoin="round" transform="matrix(.38098 0 0 .45036 200.378 60.52)"/><path d="M829.433 567.483v13.68H675.345v-13.336" fill="none" stroke="#000" stroke-width=".779" transform="matrix(.38098 0 0 .45036 200.378 60.52)"/><g fill="#0071bc"><path d="m367.72 361.15-3.198 9.844 4.922 1.6-1.724-11.444z"/><path d="m367.72 361.15 3.198 9.844-4.921 1.6 1.723-11.444z"/><path d="M377.564 368.303h-10.35v5.175l10.35-5.175z"/><path d="m377.564 368.302-8.373 6.084-3.042-4.187 11.415-1.897z"/><path d="m357.876 368.302 8.374 6.084 3.041-4.187-11.415-1.897z"/><path d="M357.876 368.303h10.35v5.175l-10.35-5.175z"/><path d="m373.804 379.875-3.198-9.844-4.922 1.6 8.12 8.244z"/><path d="m373.804 379.875-8.373-6.084 3.041-4.187 5.332 10.27z"/><path d="m361.636 379.875 8.374-6.084-3.042-4.187-5.332 10.27z"/><path d="m361.636 379.875 3.199-9.844 4.921 1.6-8.12 8.244zm3.722-86.43-3.199 9.844 4.922 1.599-1.723-11.443z"/><path d="m365.358 293.445 3.198 9.844-4.922 1.599 1.724-11.443z"/><path d="M375.202 300.597h-10.35v5.175l10.35-5.175z"/><path d="m375.202 300.597-8.374 6.084-3.042-4.187 11.416-1.897z"/><path d="m355.513 300.597 8.374 6.084 3.042-4.187-11.416-1.897z"/><path d="M355.513 300.597h10.35v5.175l-10.35-5.175z"/><path d="m371.442 312.17-3.199-9.844-4.922 1.6 8.12 8.244z"/><path d="m371.442 312.17-8.374-6.084 3.042-4.187 5.332 10.27z"/><path d="m359.274 312.17 8.373-6.084-3.042-4.187-5.331 10.27z"/><path d="m359.274 312.17 3.198-9.844 4.922 1.6-8.12 8.244zm174.609 48.98-3.199 9.844 4.922 1.6-1.723-11.444z"/><path d="m533.883 361.15 3.198 9.844-4.922 1.6 1.724-11.444z"/><path d="M543.727 368.303h-10.35v5.175l10.35-5.175z"/><path d="m543.727 368.302-8.374 6.084-3.042-4.187 11.416-1.897z"/><path d="m524.038 368.302 8.374 6.084 3.042-4.187-11.416-1.897z"/><path d="M524.038 368.303h10.35v5.175l-10.35-5.175z"/><path d="m539.967 379.875-3.199-9.844-4.922 1.6 8.12 8.244z"/><path d="m539.967 379.875-8.374-6.084 3.042-4.187 5.332 10.27z"/><path d="m527.799 379.875 8.373-6.084-3.042-4.187-5.331 10.27z"/><path d="m527.799 379.875 3.198-9.844 4.922 1.6-8.12 8.244zm8.446-86.43-3.198 9.844 4.922 1.599-1.724-11.443z"/><path d="m536.245 293.445 3.198 9.844-4.921 1.599 1.723-11.443z"/><path d="M546.09 300.597h-10.351v5.175l10.35-5.175z"/><path d="m546.09 300.597-8.374 6.084-3.042-4.187 11.415-1.897z"/><path d="m526.401 300.597 8.374 6.084 3.041-4.187-11.415-1.897z"/><path d="M526.4 300.597h10.351v5.175l-10.35-5.175z"/><path d="m542.329 312.17-3.198-9.844-4.922 1.6 8.12 8.244z"/><path d="m542.33 312.17-8.374-6.084 3.041-4.187 5.332 10.27z"/><path d="m530.161 312.17 8.374-6.084-3.042-4.187-5.332 10.27z"/><path d="m530.161 312.17 3.199-9.844 4.921 1.6-8.12 8.244zM408.08 225.74l-3.199 9.843 4.922 1.6-1.723-11.443z"/><path d="m408.08 225.74 3.198 9.843-4.922 1.6 1.723-11.443z"/><path d="M417.924 232.892h-10.35v5.175l10.35-5.175z"/><path d="m417.924 232.892-8.374 6.084-3.042-4.187 11.416-1.897z"/><path d="m398.235 232.892 8.374 6.084 3.042-4.187-11.416-1.897z"/><path d="M398.235 232.892h10.35v5.175l-10.35-5.175z"/><path d="m414.163 244.464-3.198-9.843-4.922 1.599 8.12 8.244z"/><path d="m414.164 244.464-8.374-6.084 3.042-4.186 5.332 10.27z"/><path d="m401.995 244.464 8.374-6.084-3.042-4.186-5.332 10.27z"/><path d="m401.996 244.464 3.198-9.843 4.922 1.599-8.12 8.244zm91.527-18.724-3.198 9.843 4.922 1.6-1.724-11.443z"/><path d="m493.523 225.74 3.199 9.843-4.922 1.6 1.723-11.443z"/><path d="M503.367 232.892h-10.35v5.175l10.35-5.175z"/><path d="m503.367 232.892-8.373 6.084-3.042-4.187 11.415-1.897z"/><path d="m483.68 232.892 8.373 6.084 3.042-4.187-11.416-1.897z"/><path d="M483.68 232.892h10.35v5.175l-10.35-5.175z"/><path d="m499.607 244.464-3.198-9.843-4.922 1.599 8.12 8.244z"/><path d="m499.607 244.464-8.373-6.084 3.042-4.186 5.331 10.27z"/><path d="m487.44 244.464 8.373-6.084-3.042-4.186-5.332 10.27z"/><path d="m487.44 244.464 3.198-9.843 4.922 1.599-8.12 8.244zM450.379 430.05l-3.199 9.844 4.922 1.6-1.723-11.443z"/><path d="m450.378 430.05 3.199 9.844-4.922 1.6 1.723-11.443z"/><path d="M460.223 437.203h-10.35v5.175l10.35-5.175z"/><path d="m460.223 437.203-8.374 6.083-3.042-4.186 11.416-1.897z"/><path d="m440.534 437.203 8.374 6.083 3.042-4.186-11.416-1.897z"/><path d="M440.534 437.203h10.35v5.175l-10.35-5.175z"/><path d="m456.462 448.775-3.198-9.843-4.922 1.599 8.12 8.244z"/><path d="m456.462 448.775-8.373-6.084 3.042-4.186 5.331 10.27z"/><path d="m444.294 448.775 8.374-6.084-3.042-4.186-5.332 10.27z"/><path d="m444.295 448.775 3.198-9.843 4.922 1.599-8.12 8.244z"/></g><path style="marker:none" d="M42.18 312.343c.203 120.277-.41 240.567.31 360.835 3.834 107.937 86.48 206.523 192.018 229.318 97.636 23.778 206.937-18.953 262.046-103.22 33.005-47.127 45.16-105.45 42.438-162.221V312.343H42.18z" fill="none" stroke="#000" stroke-width="2.983" overflow="visible" transform="translate(335.52 97.942) scale(.39375)"/></svg>