<svg xmlns="http://www.w3.org/2000/svg" width="800" height="480" version="1" xmlns:cgf="https://coding.garden/flags"><metadata id="cgf-metadata">

<cgf:flag>
  <cgf:name>Las Vegas</cgf:name>
  <cgf:route>us/nv/las_vegas</cgf:route>
  <cgf:aspect-ratio>1.6666666666666667</cgf:aspect-ratio>
</cgf:flag>

</metadata><path style="marker:none" fill="#0b45a1" fill-rule="evenodd" overflow="visible" d="M0 0h800v480H0z"></path><path d="M800 480 0 0v74.188L679.563 480H800z" fill="silver" fill-rule="evenodd"></path><path d="M308.75 160.218a109.782 109.782 0 1 1-219.564 0 109.782 109.782 0 1 1 219.565 0z" style="marker:none" fill="silver" fill-rule="evenodd" overflow="visible"></path><path d="m206.828 170.287 69.38 1.43-6.438 30.04-27.18 31.471-32.543 6.08-6.437-43.988 3.218-25.033z" fill="#f5dc0f" fill-rule="evenodd"></path><path d="M122.072 166.353H274.63l-2.633-23.477-16.174-33.743-27.895-18.596-30.04-9.299-38.266 10.371-22.888 23.246-11.444 20.384-3.218 31.114z" fill="#1663cf" fill-rule="evenodd" stroke="#000" stroke-width=".506"></path><path d="M181.191 114.524h80.622v1.448H180.81l.38-1.448z" style="marker:none" fill-rule="evenodd" overflow="visible"></path><path style="marker:none" d="M817.84 75.132c0-41.536 33.671-75.207 75.207-75.207 41.536 0 75.208 33.671 75.208 75.207h-75.208z" fill="#f5dc0f" fill-rule="evenodd" stroke="#000" stroke-width="1.525" stroke-linecap="round" stroke-linejoin="round" overflow="visible" transform="matrix(.48902 0 0 .50567 -217.14 121.11)"></path><path style="marker:none" fill="#c70f2e" fill-rule="evenodd" overflow="visible" d="M218.477 121.072h2.2v12.011h-2.2z"></path><path d="M893.047-.075v23.754M901.793.31l-4.645 39.736" fill="none" stroke="#000" stroke-width="1.525" transform="matrix(.48902 0 0 .50567 -217.14 121.11)"></path><path style="marker:none" fill="#c70f2e" fill-rule="evenodd" overflow="visible" d="m226.988 121.834 2.141.525-2.679 11.688-2.141-.525z"></path><path d="m910.39 1.952-5.477 23.114m13.899-20.723L905.13 41.937" fill="none" stroke="#000" stroke-width="1.525" transform="matrix(.48902 0 0 .50567 -217.14 121.11)"></path><path style="marker:none" fill="#c70f2e" fill-rule="evenodd" overflow="visible" d="m235.1 124.606 1.966 1.021-5.213 10.734-1.967-1.021z"></path><path d="m926.8 7.924-10.661 21.228m18.304-16.959-21.985 33.425" fill="none" stroke="#000" stroke-width="1.525" transform="matrix(.48902 0 0 .50567 -217.14 121.11)"></path><path style="marker:none" fill="#c70f2e" fill-rule="evenodd" overflow="visible" d="m242.374 129.237 1.686 1.463-7.467 9.202-1.686-1.463z"></path><path d="M941.388 17.52 926.12 35.715m21.721-12.279-29.1 27.454" fill="none" stroke="#000" stroke-width="1.525" transform="matrix(.48902 0 0 .50567 -217.14 121.11)"></path><path style="marker:none" fill="#c70f2e" fill-rule="evenodd" overflow="visible" d="m248.42 135.478 1.314 1.826-9.318 7.173-1.314-1.826z"></path><path d="m953.372 30.22-19.054 14.186m23.968-6.941L923.64 57.47" fill="none" stroke="#000" stroke-width="1.525" transform="matrix(.48902 0 0 .50567 -217.14 121.11)"></path><path style="marker:none" fill="#c70f2e" fill-rule="evenodd" overflow="visible" d="m252.91 142.993.873 2.09-10.666 4.757-.872-2.09z"></path><path d="m962.103 45.342-21.811 9.41m24.922-1.227L926.888 65" fill="none" stroke="#000" stroke-width="1.525" transform="matrix(.48902 0 0 .50567 -217.14 121.11)"></path><path style="marker:none" fill="#c70f2e" fill-rule="evenodd" overflow="visible" d="m255.605 151.376.382 2.241-11.44 2.086-.382-2.241z"></path><path d="m967.112 62.07-23.394 4.126m24.534 4.554-39.94 2.328" fill="none" stroke="#000" stroke-width="1.525" transform="matrix(.48902 0 0 .50567 -217.14 121.11)"></path><path style="marker:none" fill="#c70f2e" fill-rule="evenodd" overflow="visible" d="m210.025 122.36 2.141-.526 2.68 11.688-2.143.525z"></path><path d="m875.703 1.952 5.478 23.114M884.302.31l4.644 39.736" fill="none" stroke="#000" stroke-width="1.525" transform="matrix(.48902 0 0 .50567 -217.14 121.11)"></path><path style="marker:none" fill="#c70f2e" fill-rule="evenodd" overflow="visible" d="m202.088 125.627 1.967-1.021 5.213 10.734-1.967 1.021z"></path><path d="m859.295 7.924 10.66 21.228m-2.672-24.81 13.683 37.595" fill="none" stroke="#000" stroke-width="1.525" transform="matrix(.48902 0 0 .50567 -217.14 121.11)"></path><path style="marker:none" fill="#c70f2e" fill-rule="evenodd" overflow="visible" d="m195.094 130.7 1.686-1.463 7.467 9.202-1.686 1.463z"></path><path d="m844.706 17.52 15.268 18.196m-8.321-23.524 21.983 33.426" fill="none" stroke="#000" stroke-width="1.525" transform="matrix(.48902 0 0 .50567 -217.14 121.11)"></path><path style="marker:none" fill="#c70f2e" fill-rule="evenodd" overflow="visible" d="m189.42 137.303 1.314-1.825 9.318 7.173-1.315 1.825z"></path><path d="m832.722 30.22 19.054 14.186m-13.522-20.972 29.099 27.456" fill="none" stroke="#000" stroke-width="1.525" transform="matrix(.48902 0 0 .50567 -217.14 121.11)"></path><path style="marker:none" fill="#c70f2e" fill-rule="evenodd" overflow="visible" d="m185.371 145.083.872-2.09 10.666 4.758-.872 2.09z"></path><path d="m823.991 45.342 21.811 9.41m-17.994-17.288 34.647 20.005" fill="none" stroke="#000" stroke-width="1.525" transform="matrix(.48902 0 0 .50567 -217.14 121.11)"></path><path style="marker:none" fill="#c70f2e" fill-rule="evenodd" overflow="visible" d="m183.167 153.617.382-2.242 11.44 2.087-.382 2.241z"></path><path d="m818.983 62.07 23.393 4.126M820.88 53.524l38.326 11.475m-41.364 5.75 39.94 2.328" fill="none" stroke="#000" stroke-width="1.525" transform="matrix(.48902 0 0 .50567 -217.14 121.11)"></path><path d="M817.84 75.132c0-41.536 33.671-75.207 75.207-75.207 41.536 0 75.208 33.671 75.208 75.207h-75.208z" style="marker:none" fill="none" stroke="#000" stroke-width="1.525" stroke-linecap="round" stroke-linejoin="round" overflow="visible" transform="matrix(.48902 0 0 .50567 -217.14 121.11)"></path><path d="M274.36 157.69c-1.832 1.973-4.621 1.378-8.092 1.39-9.228.032-12.991-5.079-26.552-4.931-11.305.123-20.05 4.311-28.955 7.333v13.403h60.059l3.54-17.196z" fill-rule="evenodd" stroke="#000" stroke-width=".758"></path><path d="m150.312 201.47 15.198-2.041 18.544 11.001 38.165 21.72-15.425 13.554-42.192.68-26.993-28.808 12.703-16.106z" fill="#1663cf" fill-rule="evenodd" stroke="#000" stroke-width=".758"></path><path d="m158.723 215.413 10.747 26.626" fill="none" stroke="#000" stroke-width=".758"></path><path d="m209.146 120.438-7.474 4.883v95.065l15.091 8.612v-99.521l-7.617-9.04z" fill="#fff" fill-rule="evenodd" stroke="#000" stroke-width=".758"></path><path d="M180.747 149.874c-4.897.116-9.723-.494-14.354-.91v-4.65l-4.17-.589-1.205 2.246v2.138c-6.205-.977-12.132-2.772-17.91-4.887V138.7l-4.064-1.711-2.887 1.871v1.123c-3.616-1.78-6.484-3.694-9.143-5.774l-5.85 11.941-.276 34.194 23.439 36.95 14.634 6.242v-16.959l-.709-1.002 8.41-1.103 11.67 9.394 8.814-1.803 2.028-46.758-8.427-15.431z" fill="#fff" fill-rule="evenodd" stroke="#000" stroke-width=".758" stroke-linecap="round" stroke-linejoin="round"></path><path d="m186.273 202.36-13.623-5.24-5.386.682 11.859 5.814v6.563l-.781.095v2.94m-10.84-10.897 11.58 7.85" fill="none" stroke="#000" stroke-width=".758" stroke-linecap="round" stroke-linejoin="round"></path><path d="M177.66 199.047v-58.223l3.327-2.157 6.082 3.405v60.596l-9.408-3.62z" fill="#fff" fill-rule="evenodd" stroke="#000" stroke-width=".758"></path><path d="m158.935 206.572-13.316 1.951m42.171-6.232-8.901 1.309" fill="none" stroke="#000" stroke-width=".758" stroke-linecap="round" stroke-linejoin="round"></path><path d="m194.23 85.958-7.902 9.228v116.525l17.161 9.734V99.185l-9.26-13.227z" fill="#fff" fill-rule="evenodd" stroke="#000" stroke-width=".758"></path><path d="M194.246 86.642v129.546m1.735-122.968v123.843m1.45-121.856v122.678m1.449-120.692V218.77m1.449-119.59v120.38m1.45-118.439v119.26m7.34-99.788v104.002m2.391-96.262v97.695m1.503-96.136v96.926m1.504-95.21v96" fill="none" stroke="#000" stroke-width=".758"></path><path d="m148.688 198.564 23.913-2.42c-3.828-1.667-8.236-1.62-13.624-1.025-6.2.684-9.772 1.068-10.289 3.445z" fill="none" stroke="#000" stroke-width=".758" stroke-linecap="round" stroke-linejoin="round"></path><path d="M180.987 200.18v-61.435m1.856 3.779v58.356m1.758-57.434v58.104" fill="none" stroke="#000" stroke-width=".758"></path><path d="m158.164 205.46-4.354-6.311-5.46.585m-9.308-62.731v11.625c-.888-1.851-1.188-6-1.257-7.682l-1.646-.897m6.966-1.335v10.57m23.283-4.978v10.164m-4.116-10.672v10.22c-.297-1.9-.398-3.975-.457-5.754l-.8-.15m6.322 49.761-.024 4.576-.659.122v1.81m5.972-8.253v.93m-19.998-50.782c-.06 14.163 1.663 31.222 6.511 48.495m.879-46.83c-.13 14.804.905 31.292 2.577 46.603m-18.035-50.919c.361 16.193 5.062 33.574 11.019 51.41m12.531-45.991c-.797 13.075-1.36 28.604-2.205 45.326m8.479-44.637c-.846 14.845-2.228 30.24-5.274 45.085m-33.607-55.15c.18 18.557 7.66 37.586 16.82 56.012m-2.723 1.276c-13.944-20.092-22.061-39.762-19.888-60.872m46.424 49.529a71.363 71.363 0 0 1-3.949 10.042" fill="none" stroke="#000" stroke-width=".758" stroke-linecap="round" stroke-linejoin="round"></path><g fill="#f5dc0f" fill-rule="evenodd" stroke="#000" stroke-width=".759"><path d="M173.235 186.362v-10.339l15.847-2.077v13.003l-15.847-.587zm28.895 15.802v-16.253l21.762.36v20.227l-21.762-4.334z"></path><path d="M181.28 180.835v12.45l24.454 3.321v-16.793l-24.454 1.022z"></path></g><g fill="#008d38" fill-rule="evenodd" stroke="#000" stroke-width=".759"><path d="M257.305 186.688c-.576-.864-.526-2.98.894-3.755-1.586-.933-1.071-2.149-.626-3.308-1.487-.462-2.603-1.13-1.966-2.771-1.161.23-2.374.772-3.308-.358-1.282 1.076-2.563 1.218-3.845.626.095 1.205-1.005 1.615-2.324 1.877.001 1.133.522 2.265-.805 3.398.704 1.102.934 2.205.447 3.308 1.325-.098 1.613 1.038 1.788 2.324.882-.174 2.692.044 2.95 1.788 1.14-.907 3.028-.9 3.934-.178-.266-1.77 1.504-2.341 2.861-2.95z" stroke-linecap="round" stroke-linejoin="round"></path><path d="M243.675 169.361c-.262 2.163-1.298 5.563-2.702 8.06-.702 1.248-1.5 2.277-2.196 2.844-.698.567-1.126.668-1.58.584-3.273-.6-4.525-2.043-5.373-3.934-.848-1.892-1.02-4.283-1.201-6.242l-4.03.38c.168 1.804.275 4.7 1.533 7.505 1.087 2.424 3.247 4.741 6.653 5.847-.215 5.248-.27 10.474-.253 15.818-2.582-1.8-4.035-4.276-5.199-6.51l-3.587 1.864c1.505 2.89 3.97 6.986 8.817 9.323.056 5.729.163 11.6.222 17.904l4.55-1.075c.017-7.663-.141-14.642-.347-21.396 5.578-2.214 9.93-6.239 12.657-12.278-.914-1.803-2.302-2.156-3.681-2.102-2.133 4.722-5.09 8.031-9.118 10.035-.122-3.746-.242-7.467-.348-11.188 1.066-.219 2.039-.735 2.845-1.39 1.295-1.054 2.295-2.46 3.16-3.999 1.73-3.076 2.847-6.716 3.192-9.56l-4.014-.49z"></path><path d="M255.538 168.593c-.998-.538-1.962-2.597-.895-4.06-2.054-.094-2.116-1.523-2.22-2.861-1.728.308-3.18.23-3.321-1.669-1.066.807-2.034 1.942-3.522 1.329-.782 1.681-2.012 2.466-3.594 2.544.674 1.11-.243 2.06-1.454 2.98.545 1.087 1.615 1.911.815 3.67 1.241.704 2.003 1.647 2.039 2.953 1.295-.764 2.131.182 2.925 1.33.81-.615 2.748-1.32 3.846.226.718-1.448 2.635-2.395 3.898-2.16-1.117-1.566.4-3.01 1.483-4.282zm-26.716 28.322c-.34-1.347.882-2.628 2.559-2.68-1.072-1.496.748-1.949 1.626-2.827-1.172-1.026-1.922-2.09-.673-3.331-1.155-.262-2.483-.258-2.879-1.67-1.608.464-2.479.52-3.41-.54-.403 1.14-1.573 1.068-2.886.772-.458 1.036-.442 2.282-2.114 2.779.196 1.293-.4 1.947-1.292 2.758 1.251.448 1.053 1.603.691 2.85.878.198 2.443 1.133 1.971 2.831 1.41-.367 2.833-.02 3.369 1.007.475-1.725 1.55-1.943 3.038-1.95zm5.125-31.335c-1.15-.217-2.762-2.045-2.194-3.955-2.039.619-2.564-.862-3.1-2.233-1.59.928-3.033 1.354-3.79-.593-.78 1.22-1.357 2.752-3.011 2.627-.218 2.04-1.165 3.295-2.686 3.93 1.019.932.431 2.25-.454 3.64.886.953 2.2 1.446 1.989 3.575 1.443.305 2.494 1.031 2.953 2.391 1.018-1.256 2.143-.553 3.292.376.592-.929 2.258-2.347 3.833-1.106.232-1.773 1.798-3.438 3.11-3.633-1.602-1.255-.587-3.303.058-5.019z" stroke-linecap="round" stroke-linejoin="round"></path></g><path d="m163.13 205.162 30.252 33.325m-26.395-33.831 39.41 31.933m-24.999-23.336 27.958 20.1m-44.619-28.697 35.024 32.335m-15.581-24.339 30.592 18.678m-55.614-25.89 20.725 33.616M161.2 205.213l24.816 33.323m-26.972-29.058 15.238 30.796" fill="none" stroke="#000" stroke-width=".758"></path><path d="m123.917 134.25 11.228 12.19 2.406 6.738 1.604 3.528-.642 5.775 2.085 3.529-.16 7.699 3.529 6.576.962 9.303 2.727 4.492 1.443 5.934 2.61 3.004.598 5.177 1.444 8.5-7.058 2.728-20.691-25.023-5.775-35.448 3.69-24.701z" fill="#c70f2e" fill-rule="evenodd" stroke="#000" stroke-width=".758"></path><path d="m124.043 154.35 7.941-1.588 3.291 3.829 2.236 4.666-.641 5.775 2.085 3.529-.16 7.699 3.528 6.576.963 9.303 2.726 4.491 1.444 5.935 2.61 3.004.598 5.177 1.443 8.5-7.057 2.728-20.692-25.023-5.774-35.448 5.459-9.152z" fill="#a70c26" fill-rule="evenodd"></path><path d="M137.279 181.901v-9.228l-3.207-6.768.162 5.473-1.633 1.295 3.009 3.554 1.669 5.674zm-1.319 8.669-.138-6.066-1.903-3.414-1.037 5.126.284 4.84 2.794-.486zm7.26-1.842-3.16 12.389 1.011.379 4.425-6.7-2.276-6.068z" fill="#c70f2e" fill-rule="evenodd"></path><path d="m142.715 199.094-1.517-8.343-2.276-5.057.632 5.183.506 9.228 2.655-1.011z" fill="#c70f2e" fill-rule="evenodd"></path><path d="M198.97 55.729c-57.677 0-104.483 46.806-104.483 104.483 0 57.676 46.806 104.499 104.483 104.499 57.676 0 104.483-46.823 104.483-104.5 0-57.676-46.807-104.482-104.483-104.482zm-4.74 30.229 2.97 4.235c.59-.015 1.176-.016 1.77-.016 38.66 0 70.035 31.375 70.035 70.035s-31.375 70.034-70.035 70.034-70.035-31.374-70.035-70.034c0-35.667 26.708-65.133 61.202-69.482l4.092-4.772z" style="marker:none" fill="#0b45a1" fill-rule="evenodd" overflow="visible"></path><path d="m178.955 111.864-2.4 2.365-12.512-1.146c-1.448-.132-4.322.067-4.72 1.027-.288.169-.811.33-1.02.593-.147.186-.143.89.621.89h19.654l1.395-3.73h-1.018z" fill-rule="evenodd" stroke="#000" stroke-width=".758"></path><path d="M273.917 160.218a74.949 74.949 0 1 1-149.897 0 74.949 74.949 0 1 1 149.897 0z" style="marker:none" fill="none" stroke="silver" stroke-width="1.517" stroke-linecap="round" stroke-linejoin="round" overflow="visible"></path><path d="M298.51 160.218a99.541 99.541 0 1 1-199.083 0 99.541 99.541 0 1 1 199.083 0z" style="marker:none" fill="none" stroke="silver" stroke-width="1.517" stroke-linecap="round" stroke-linejoin="round" overflow="visible"></path><path d="M116.422 136.47c1.769.521 3.059 1.63 3.871 3.329.812 1.698 1.008 3.711.587 6.04-.475 2.629-1.54 4.6-3.195 5.916-1.655 1.316-3.635 1.766-5.938 1.35-2.303-.417-4.002-1.531-5.095-3.344-1.093-1.812-1.402-4.032-.927-6.66.416-2.297 1.276-4.103 2.583-5.418 1.306-1.315 2.817-1.915 4.531-1.8l-.71 3.933c-.926.08-1.678.442-2.257 1.084-.578.643-.974 1.555-1.188 2.736-.26 1.44-.054 2.652.62 3.634.673.983 1.727 1.604 3.16 1.863 1.428.258 2.627.046 3.598-.636.971-.682 1.588-1.747 1.85-3.194.225-1.252.145-2.307-.243-3.164-.388-.858-1.042-1.43-1.961-1.717l.714-3.951zm6.755-1.288-13.783-4.9 1.229-3.457 13.783 4.9-1.229 3.457zm-4.913-18.057 10.401 5.295-1.651 3.244-10.401-5.295-2.27 4.46-2.636-1.342 6.193-12.163 2.635 1.341-2.27 4.46zm15.81-3.368-4.983-3.758-10.543.052 2.805-3.72 6.375.236-2.004-6.032 2.793-3.704 2.778 10.246 4.983 3.758-2.204 2.922zm16.87-20.502c1.19-.854 1.883-1.864 2.08-3.032.197-1.168-.128-2.341-.973-3.52-.854-1.19-1.865-1.878-3.034-2.065-1.17-.188-2.35.145-3.538.998-1.19.854-1.885 1.867-2.085 3.042-.2 1.174.124 2.353.974 3.537.846 1.179 1.854 1.861 3.026 2.047 1.172.186 2.356-.15 3.55-1.007zm-9.855 1.313c-1.364-1.902-1.809-3.884-1.332-5.946.476-2.062 1.799-3.872 3.969-5.429 2.17-1.556 4.305-2.228 6.405-2.015 2.101.213 3.834 1.27 5.198 3.173 1.365 1.902 1.81 3.88 1.338 5.936-.473 2.056-1.794 3.862-3.964 5.419-2.17 1.556-4.307 2.231-6.41 2.025-2.105-.207-3.84-1.261-5.204-3.163zm20.904-5.274-5.84-13.412 11.436-4.98 1.18 2.712-8.07 3.514 1.125 2.585 7.39-3.218 1.181 2.711-7.39 3.218 2.353 5.405-3.365 1.465zm20.742-7.375-2.047-14.484 3.633-.514 1.617 11.439 7.453-1.054.43 3.046-11.086 1.567zm17.796-7.552 3.864.164-1.774-4.6-2.09 4.436zm-6.779 5.77 7.549-14.32 3.518.149 6.039 14.898-4.072-.173-1.202-3.15-6.433-.273-1.446 3.037-3.953-.168zm18.693-4.039 3.637.906-.033.134c-.2.8.001 1.497.6 2.091.6.594 1.572 1.059 2.915 1.393 1.037.258 1.875.305 2.513.141.64-.164 1.028-.524 1.166-1.08.116-.468.018-.857-.295-1.17-.313-.312-1.015-.665-2.106-1.059l-2.462-.878c-1.795-.65-3.046-1.406-3.752-2.268-.706-.862-.913-1.882-.62-3.06.347-1.394 1.255-2.374 2.724-2.94 1.47-.565 3.234-.591 5.295-.079 2.214.551 3.843 1.395 4.889 2.532 1.045 1.137 1.39 2.422 1.033 3.855l-.029.115-3.532-.879c.094-.73-.105-1.344-.597-1.84-.491-.496-1.277-.879-2.359-1.148-.998-.248-1.808-.299-2.429-.151-.621.148-.996.48-1.125 1-.104.415-.018.76.258 1.032.275.272 1.029.636 2.26 1.092l2.57.935c1.769.65 2.996 1.42 3.682 2.308.686.887.876 1.945.57 3.174-.393 1.58-1.333 2.622-2.82 3.125-1.488.503-3.467.447-5.937-.167-2.354-.586-4.058-1.469-5.11-2.648-1.052-1.18-1.379-2.568-.98-4.168l.074-.298zm26.299 14.71 2.042-15.82 3.464 2.07-1.764 11.17 9.05-6.818 3.438 2.055-13.03 9.256-3.2-1.912zm9.315 5.91 9.782-10.877 9.656 8.684-1.978 2.199-6.927-6.23-1.654 1.838 6.17 5.549-1.99 2.213-6.17-5.549-2.104 2.339 6.928 6.23-2.057 2.287-9.656-8.684zm20.333 20.26a6.87 6.87 0 0 1-2.622-1.072c-.79-.536-1.51-1.261-2.156-2.176a10.645 10.645 0 0 1-1.463-2.891c-.324-1.007-.464-1.982-.42-2.925.063-1.167.359-2.214.887-3.14.528-.927 1.306-1.753 2.335-2.48 1.911-1.352 3.896-1.782 5.955-1.291 2.059.49 3.859 1.826 5.4 4.007 1.302 1.841 1.976 3.666 2.023 5.474.047 1.808-.53 3.27-1.728 4.383l-2.301-3.255c.473-.746.673-1.523.599-2.33-.074-.808-.424-1.654-1.048-2.537-.845-1.195-1.854-1.897-3.027-2.105-1.173-.209-2.354.108-3.544.949-1.184.837-1.874 1.841-2.068 3.012-.193 1.17.134 2.356.983 3.557.578.818 1.261 1.413 2.05 1.785.787.372 1.587.48 2.398.327l-1.918-2.714 2.382-1.684 4.163 5.888-6.502 4.596-1.599-2.262 1.221-1.117zm8.958 7.89 1.482 3.572 3.42-3.55-4.902-.022zm-8.092-3.71 16.168.799 1.35 3.252-10.959 11.762-1.561-3.764 2.348-2.42-2.467-5.947-3.364-.029-1.515-3.654zM280.8 136.41l.707 3.682-.136.026c-.809.155-1.357.63-1.644 1.424-.288.794-.3 1.87-.039 3.23.202 1.05.511 1.83.928 2.34.417.51.908.712 1.471.603.473-.09.785-.344.937-.759.152-.415.177-1.2.075-2.356l-.238-2.603c-.165-1.902-.004-3.355.481-4.358.486-1.003 1.324-1.62 2.515-1.849 1.412-.271 2.683.141 3.814 1.236 1.13 1.096 1.896 2.686 2.297 4.77.43 2.241.35 4.075-.242 5.501-.592 1.427-1.613 2.28-3.064 2.558l-.116.023-.687-3.575c.702-.222 1.175-.66 1.419-1.315.243-.654.26-1.529.05-2.623-.195-1.01-.49-1.766-.885-2.267-.395-.502-.855-.702-1.38-.601-.42.08-.697.303-.828.668-.131.364-.145 1.2-.04 2.51l.231 2.725c.153 1.878-.03 3.315-.546 4.31-.517.996-1.397 1.614-2.64 1.853-1.6.307-2.94-.108-4.022-1.246-1.082-1.139-1.863-2.958-2.343-5.457-.458-2.383-.374-4.3.254-5.75.628-1.45 1.75-2.33 3.37-2.642l.3-.058zM145.856 239.121l7.227-12.718 3.912 2.223 1.26 12.58 5.095-8.97 3.062 1.74-7.226 12.719-3.87-2.199-1.27-12.7-5.146 9.055-3.044-1.73zm20.038 10.295 4.292-13.984 12.415 3.81-.868 2.827-8.906-2.733-.726 2.364 7.933 2.434-.873 2.846-7.933-2.434-.923 3.006 8.907 2.734-.903 2.94-12.415-3.81zm22.536 5.303-4.96-15.16 4.018.378 3.21 10.843 5.238-10.047 3.988.376-7.782 13.96-3.712-.35zm18.363-5.788 3.843-.436-2.465-4.27-1.377 4.706zm-5.804 6.75 5.241-15.316 3.499-.397L218 253.752l-4.049.46-1.676-2.926-6.397.725-.959 3.225-3.93.445zm21.528-15.452 2.853 8.17 2.68-.936c1.581-.552 2.661-1.318 3.24-2.3.58-.98.636-2.14.169-3.479-.468-1.338-1.232-2.21-2.291-2.615-1.06-.405-2.384-.33-3.971.224l-2.68.936zm1.636-3.683c1.494-.522 2.638-.843 3.43-.962a7.014 7.014 0 0 1 2.237-.001c1.215.198 2.28.72 3.197 1.565.917.847 1.615 1.954 2.093 3.324.477 1.363.62 2.661.428 3.894a6.118 6.118 0 0 1-1.524 3.225 6.92 6.92 0 0 1-1.752 1.387c-.696.397-1.792.856-3.286 1.378l-6.237 2.179-4.823-13.81 6.237-2.18zm19.402.511 3.288-2.037-4.054-2.805.766 4.842zm-2.36 8.584-1.812-16.086 2.993-1.855 13.372 8.923-3.464 2.146-2.765-1.928-5.474 3.392.513 3.324-3.363 2.084z" style="text-align:center;line-height:125%;-inkscape-font-specification:Swis721 Ex BT Bold" font-size="40.058" font-weight="700" text-anchor="middle" fill="silver" font-family="Swis721 Ex BT"></path><path d="m186.588 94.892 7.69-8.927 9.015 12.993" fill="none" stroke="#000" stroke-width=".758"></path></svg>