<svg xmlns="http://www.w3.org/2000/svg" width="800" height="533" overflow="visible" xmlns:cgf="https://coding.garden/flags"><metadata id="cgf-metadata">

<cgf:flag>
  <cgf:name>Reno</cgf:name>
  <cgf:route>us/nv/reno</cgf:route>
  <cgf:aspect-ratio>1.5009380863039399</cgf:aspect-ratio>
</cgf:flag>

</metadata><path fill="navy" d="M0 0h800v533H0z"></path><path d="M282.722 104.256c0 110.881 0 109.944-.021 271.262l-.447 2.485-1.103 5.606-3.936.615-3.522-5.192-5.915.206-3.341-1.4-4.078 1.591-1.563 1.933-2.087 3.391 2.268 14.653-.359 3.807 4.645 25.251-1.961 4.158-4.92-3.836C65.807 244.643 65.804 244.161 65.804 244.161l.003-139.905m286.565 85.072h26.035c17.355 0 29.108.672 35.252 2.012 6.145 1.342 11.154 4.768 15.027 10.279 3.873 5.511 5.811 14.305 5.811 26.375 0 11.023-1.369 18.432-4.107 22.223-2.738 3.791-8.129 6.064-16.17 6.822 7.283 1.805 12.178 4.221 14.684 7.248 2.504 3.027 4.063 5.809 4.676 8.34.611 2.533.918 9.504.918 20.914v37.287h-34.125v-46.982c0-7.568-.602-12.256-1.803-14.061-1.202-1.805-4.35-2.707-9.448-2.707v63.75h-36.75v-141.5zm36.75 24.25v31.5c4.16 0 7.074-.568 8.744-1.705s2.506-4.828 2.506-11.07v-7.787c0-4.492-.807-7.438-2.418-8.838-1.611-1.399-4.555-2.1-8.832-2.1zm59.674-24.25h61.375v28.375h-24.625v26.875h23v26.875h-23v31h27v28.375h-63.75v-141.5zm156.52 0v141.5h-32.25l-19.125-64.326v64.326h-30.75v-141.5h30.75l20.625 63.715v-63.715h30.75zm98.824 82.86c0 14.223-.336 24.293-1.006 30.209-.67 5.916-2.768 11.322-6.293 16.219-3.525 4.897-8.289 8.656-14.289 11.279-6.002 2.621-12.994 3.934-20.975 3.934-7.574 0-14.377-1.24-20.408-3.715-6.031-2.477-10.881-6.193-14.551-11.148-3.672-4.953-5.855-10.346-6.555-16.174-.7-5.828-1.049-16.029-1.049-30.604v-24.219c0-14.223.334-24.291 1.004-30.207.67-5.916 2.768-11.322 6.293-16.219 3.525-4.897 8.289-8.656 14.291-11.279 6-2.623 12.992-3.936 20.975-3.936 7.574 0 14.375 1.24 20.406 3.717 6.031 2.477 10.881 6.193 14.553 11.146 3.67 4.955 5.855 10.348 6.555 16.176.7 5.828 1.049 16.029 1.049 30.602v24.219zm-36.75-46.485c0-6.58-.367-10.787-1.102-12.623-.734-1.834-2.246-2.752-4.535-2.752-1.938 0-3.42.744-4.447 2.229-1.027 1.485-1.541 5.867-1.541 13.146v66.043c0 8.211.336 13.277 1.012 15.199.676 1.922 2.246 2.883 4.713 2.883 2.523 0 4.139-1.105 4.844-3.318.703-2.213 1.057-7.484 1.057-15.813v-64.994z" fill="#fff"></path><path fill="navy" d="m95.606 218.776 6.472-4.729h-8.022l-2.474-7.544-2.474 7.544h-8.022l6.472 4.729-2.536 7.735 6.56-4.795 6.56 4.795z"></path></svg>