<svg xmlns="http://www.w3.org/2000/svg" width="800" height="480" version="1"><path fill="#fff" d="M0 0h800v480H0z"/><path d="m199.984 85.063-86.562 86.562v136.75l86.562 86.563 86.594-86.563v-136.75l-86.594-86.563z" fill="#008d38" fill-rule="evenodd"/><path d="m199.984 110.5 68.594 68.594v121.812L199.984 369.5l-68.562-68.563V179.063l68.562-68.562z" fill="#fff" fill-rule="evenodd"/><path d="m199.984 110.5-15.437 15.438 7.687 53.156a36.03 36.03 0 0 0-12.062 5.062l-23.031-30.812-19.25 19.25 31.03 23.219c-1.551 2.57-2.745 5.345-3.624 8.28l-33.875-4.905v25.218l32.687-4.75c2.5 17.574 17.615 31.094 35.875 31.094s33.374-13.522 35.875-31.094l32.72 4.75v-25.219l-33.876 4.907a35.954 35.954 0 0 0-3.656-8.281l31.031-23.22-19.25-19.25-23.031 30.813a36.005 36.005 0 0 0-12.063-5.062l7.688-53.156-15.438-15.438z" fill="#f5dc0f"/><path d="m199.984 201.469-68.562 44.812v54.656l68.562 68.563 68.594-68.594v-54.625l-68.594-44.812z" fill="#002673" fill-rule="evenodd"/><path d="m210.703 327.618 10.076-22.45h-41.576l10.077 22.45h21.423zm-36.416-50.911 10.076-22.45h-41.576l10.077 22.45h21.423zm51.409 0-10.077-22.45h41.576l-10.076 22.45h-21.423z" fill="#f5dc0f" fill-rule="evenodd"/><path d="M0 0v68.563h731.438v342.875H0V480h800V0H0z" fill="#002673"/></svg>