<svg xmlns="http://www.w3.org/2000/svg" version="1.0" width="1000" height="600"><defs><clipPath id="c"><path d="M77.2 75.1h359.3v240.2H77.2z"/></clipPath><clipPath id="b"><path d="M256.9 510.1c-99.2 0-179.7-80.4-179.7-179.6h359.3c0 99.1-80.4 179.6-179.6 179.6"/></clipPath><clipPath id="a"><path d="M256.9 510.1c-99.2 0-179.7-80.4-179.7-179.6V75.1h359.3v255.2c0 99.3-80.4 179.8-179.6 179.8"/></clipPath></defs><path style="fill:#fcd116" d="M0 0h1000v300H0z"/><path style="fill:#000" d="M0 300h1000v300H0z"/><path style="fill:#ebbd00" d="M77.2 75.1h359.3v240.2H77.2z" transform="translate(324.664 99.144) scale(.68578)"/><path d="M379.595 169.093H621.88v16.253H379.595zm0 32.505H621.88v16.253H379.595zm0 66.521H621.88v16.252H379.595zm0-33.741H621.88v16.253H379.595zm0 65.972H621.88v16.253H379.595z"/><path style="fill:#fff" clip-path="url(#a)" d="M77.2 315.3h359.3v194.8H77.2z" transform="translate(324.664 99.144) scale(.68578)"/><path d="M256.9 510.1c-99.2 0-179.7-80.4-179.7-179.6V75.1h359.3v255.2c0 99.3-80.4 179.8-179.6 179.8z" style="fill:none;stroke:#fff;stroke-width:.039;stroke-miterlimit:3.86400008" transform="translate(324.664 99.144) scale(.68578)"/><path d="M547.541 151.331h76.533v83.665H547.54z"/><path style="fill:#fff" d="M325.9 75.1h110.6v122H325.9z" transform="translate(324.664 99.144) scale(.68578)"/><path d="M593.831 179.996c-4.389.07-3.703-3.497-3.154-6.171.548-2.675 1.371-4.184 1.645-6.378.206-1.372-.342-1.92-1.234-2.263-1.234-.48-1.714-.48-2.812-.755-1.508-.411-2.4-1.303-3.84-1.097-.48.069-.686.48-.96.892-.48-.069-1.234-.137-2.263-.069-1.234 0-2.4.343-2.949 1.097-.549.755-.686 1.578-.823 2.4-.068.823-.274 1.304-.411 2.126.685-.48 1.92-1.234 2.743-1.234.686 0 1.028.069 1.646.343-.618.411-2.263 1.166-3.84 1.371-1.098.138-1.715.138-2.812 0-.412-.068-.892 0-1.029.412-.343.891 2.606 1.989 4.458 1.852.754-.069 1.165-.138 1.92-.48-.137.342-.412.617-.755 1.028-.137.206-.205.343-.411.549.891-.206 1.851.137 3.634-1.372.686-.548 1.098-.891 1.646-1.646-.137 1.51-.274 2.4-.823 3.84-.548 1.51-1.028 2.744-1.851 3.772-.96 1.098-2.949 1.783-4.458 1.715-2.811-.069-5.486-3.017-5.417-5.898.068-3.017 1.988-6.515 2.743-8.366.343-.96.754-2.88 0-3.36-1.578-.96-4.938-1.03-7.132-1.03-4.252 0-5.487.138-9.601.207-2.4.068-3.772.068-6.172.137.137 3.497 1.989 5.555 5.212 6.172 2.126.411 5.486.343 7.818.48.411 0 3.017-.069 3.017.411 0 .275-.892.343-1.166.343-2.469.137-4.114.206-6.995.206h-7.612c.069 1.44.274 2.537 1.303 3.84 1.577 1.852 4.663 2.195 6.515 2.195 1.92.068 3.36-.069 4.8 0 1.03.068 2.538.205 2.47.48 0 .411-1.098.343-1.99.343-4.388.068-9.738-.069-13.715-.069 0 1.44.274 3.017 1.509 4.32 1.371 1.51 4.046 1.99 5.966 2.126 2.812.069 4.938-.137 7.955 0 .206 0 .617-.068.617.069s-.343.206-.617.206c-2.88.411-4.938.754-8.092 1.097-2.88.343-4.458.548-7.338.823.549 2.126 1.44 3.497 3.36 4.526 1.509.754 3.223.96 5.486.891 3.292-.137 6.035-.754 9.601-1.165.343-.069.892-.206.892-.069 0 .069-.343.206-.617.274-2.743.823-5.487 1.715-8.984 2.675-3.909 1.097-6.103 1.646-10.08 2.606 3.29 3.429 4.8 4.389 6.514 4.526 2.194.137 5.212-1.303 8.298-2.743 1.989-.96 3.772-1.783 5.623-2.675.206-.068.48-.205.48-.137.069.069-.274.274-.48.412-2.949 1.783-5.555 3.086-8.983 5.211-2.264 1.44-3.498 2.195-5.761 3.704 2.195.823 4.115 1.783 6.652 1.783 1.509 0 2.743-.275 3.978-1.235 1.234-.96 2.331-2.126 3.84-3.497 1.44-1.303 2.057-2.058 3.634-3.498.206-.137.55-.548.618-.48.068.137-.275.412-.48.618-2.263 2.88-3.772 4.594-6.515 7.886 2.88.069 4.389 0 6.789-.96 2.949-1.235 4.183-2.606 5.898-4.8.205-.275.205.342.137.617-.275.891-2.263 2.674-3.566 3.703-1.92 1.44-4.046 2.674-6.172 3.909.411.068.617.137 1.028.343.343.137.48.274.755.548-1.029.892-1.852 1.852-2.88 2.538-1.03.685-2.058.96-3.224 1.028a13.15 13.15 0 0 1-2.331 0 6.04 6.04 0 0 0-1.166-.137c-.206 0-.274.206-.412.412-.342 0-.548.068-.822.205-.755.343-1.303.823-1.372 1.715-.069.754.206 1.371.823 1.783.068-.48.206-.823.617-1.097.206-.138.412-.206.686-.275 0 .206.343.275.617.275.274 0 .549-.138.892-.206.342-.069.548-.069.96-.137-.892.548-1.578.96-2.263 1.44-.275.205-.48.274-.549.617-.069.206 0 .343.137.617-.343.617-.48 1.303-.274 2.057.206.755 1.097 1.372 2.194 1.646-.205-.548-.205-.823-.205-1.303 0-.274.068-.411.137-.685.274.068.48 0 .686-.206.342-.412.548-.617.891-1.029.411-.48.617-.754 1.029-1.166-.206.755-.343 1.166-.549 1.92-.206.618-.343.755-.48 1.646 0 .206.137.343.343.48 0 1.235.343 1.852 1.234 2.4.755.412 2.195.55 3.018.344-.686-.275-1.098-.618-1.44-1.303-.206-.343-.275-.549-.343-.96.274-.07.48-.138.548-.618.137-.96.206-1.44.343-2.331.069-.549.275-1.51.412-1.44.343.411.617.822 1.028 1.44.206.343.412.48.755.411.205-.068.274-.137.411-.274.206.206.274.343.343.617.069.411 0 .617-.206 1.097.96.137 1.92-.274 2.195-1.166.343-1.028-.206-2.125-.686-2.606.206-.411 0-.754-.274-1.028-.755-.755-1.372-.96-1.509-1.166-.343-.411-.206-.686 0-1.029.48-.685.686-.96 1.234-1.44.549-.548.892-.823 1.51-1.166.342.343.548.549.822.892.343.411.48.686.754 1.166.412-.755.686-1.166 1.235-1.852.617-.823.96-1.303 1.646-2.057.685-.686 1.577-1.44 1.714-1.646.206-.274.549.617.754 1.166.206.48.069.823 0 1.371-.548 2.195-2.125 5.692-3.497 8.092-1.989 3.43-4.458 6.172-7.132 9.19 1.029.411 2.4.548 3.977.48a24.53 24.53 0 0 0 4.8-.686c.824.96 1.304 1.44 2.195 2.263 1.166 1.029 1.852 1.509 3.086 2.332 1.235-.823 1.99-1.372 3.086-2.332.96-.823 1.44-1.303 2.263-2.263 1.646.343 3.292.549 4.8.686 1.51.068 2.95-.069 3.91-.48-2.675-3.086-5.144-5.83-7.132-9.19-1.372-2.4-2.95-5.897-3.498-8.092-.137-.548-.206-.891 0-1.371.206-.549.549-1.509.755-1.166.205.206 1.097.96 1.783 1.646.685.754 1.028 1.234 1.645 2.057.48.686.755 1.097 1.235 1.852.274-.48.411-.755.754-1.166.274-.343.48-.549.823-.892.617.412.96.686 1.509 1.166.548.549.754.755 1.234 1.44.206.343.343.549 0 1.029-.137.206-.823.411-1.509 1.166-.274.274-.411.617-.274 1.028-.48.412-1.028 1.51-.686 2.606.275.892 1.235 1.303 2.195 1.166-.206-.48-.274-.686-.206-1.097.069-.274.137-.411.343-.617a.463.463 0 0 0 .412.274c.342.069.548-.137.754-.411.411-.618.686-1.029 1.029-1.44.137 0 .342.891.411 1.44.137.96.206 1.44.343 2.331.068.412.274.549.548.617-.068.412-.137.618-.342.96-.343.686-.755 1.03-1.44 1.304.822.137 2.263 0 3.017-.343.891-.48 1.303-1.166 1.234-2.4.275-.07.412-.206.343-.48-.137-.824-.274-.96-.48-1.646-.206-.755-.343-1.166-.548-1.92.411.48.617.685 1.028 1.165.343.412.549.617.823 1.029.206.274.412.274.686.206.068.274.137.411.137.685 0 .48 0 .823-.206 1.303 1.029-.274 1.92-.891 2.126-1.646.275-.754.069-1.44-.274-2.057.137-.274.206-.48.137-.617-.069-.343-.274-.412-.549-.617-.685-.48-1.44-.892-2.263-1.44.412.068.618.068.96.137.343.068.618.206.892.206s.549 0 .617-.275c.274 0 .48.069.686.275.411.274.617.617.617 1.097.617-.412.892-1.029.823-1.783-.069-.823-.617-1.303-1.371-1.715-.343-.137-.48-.205-.823-.205-.069-.206-.206-.48-.412-.412-.411.069-.754.137-1.166.137-.891.137-1.371.137-2.331 0-1.166-.068-2.195-.343-3.292-1.028-1.097-.686-1.852-1.715-2.88-2.538.274-.274.411-.411.754-.548.343-.206.617-.275 1.029-.343-2.126-1.235-4.252-2.47-6.172-3.91-1.303-1.028-3.292-2.81-3.566-3.702-.069-.275-.069-.892.137-.618 1.714 2.195 2.949 3.635 5.898 4.8 2.4.96 3.908 1.03 6.789.96-2.743-3.29-4.252-5.005-6.515-7.885-.206-.206-.549-.55-.48-.618.068-.068.411.275.617.48 1.646 1.44 2.263 2.195 3.703 3.498 1.44 1.371 2.606 2.537 3.84 3.497 1.166.96 2.4 1.235 3.978 1.235 2.537-.069 4.458-.96 6.652-1.783-2.194-1.51-3.497-2.263-5.76-3.704-3.43-2.125-5.967-3.428-8.984-5.211-.206-.138-.549-.275-.48-.412 0-.068.274.069.48.137 1.851.823 3.634 1.715 5.692 2.675 3.086 1.44 6.035 2.949 8.298 2.743 1.714-.137 3.223-1.097 6.515-4.526-3.978-.96-6.172-1.509-10.081-2.606-3.498-.96-6.24-1.852-8.984-2.675-.206-.068-.617-.137-.617-.274 0-.069.548 0 .891.069 3.566.411 6.31 1.028 9.601 1.165 2.195.138 3.978-.068 5.486-.891 1.92-.96 2.812-2.4 3.36-4.526-2.88-.275-4.457-.48-7.337-.823-3.155-.412-5.212-.755-8.092-1.097-.206 0-.617-.069-.617-.206 0-.137.342-.069.617-.069 2.949-.137 5.143.069 7.955 0 1.92-.068 4.526-.548 5.966-2.126 1.166-1.303 1.44-2.811 1.509-4.32-3.978.069-9.327.206-13.716.069-.891 0-1.92.068-1.989-.343 0-.275 1.51-.48 2.47-.48 1.508-.069 2.88 0 4.868 0 1.783-.069 4.938-.343 6.446-2.195 1.03-1.234 1.235-2.331 1.372-3.84h-7.68c-2.95 0-4.527-.069-6.996-.206-.342 0-1.234-.068-1.234-.343 0-.48 2.606-.343 3.017-.411 2.4-.069 5.692-.069 7.887-.48 3.154-.617 5.006-2.675 5.143-6.172-2.4-.069-3.84-.069-6.172-.137-4.114-.069-5.28-.206-9.532-.206-2.195 0-5.555 0-7.132 1.028-.823.48-.412 2.4 0 3.36.754 1.921 2.674 5.35 2.743 8.367-.069 3.018-2.743 5.898-5.555 5.966"/><path d="M585.396 229.784c-.96-.617-1.509-.96-2.4-1.715-1.166-.96-1.783-1.577-2.675-2.743-1.714.412-2.674.549-4.457.617-1.44.069-2.195 0-3.635-.137 2.332-2.811 4.115-4.526 6.104-7.955 1.988-3.36 3.36-6.446 4.046-9.19.137-.48.137-1.028-.069-1.508-.343-.617-.548-1.92-1.303-1.371-.96.685-1.577 1.371-2.469 2.331-.891.96-1.303 1.578-2.057 2.675-.617-.96-1.029-1.44-1.852-2.195-.822-.823-1.302-1.234-2.263-1.851 1.783-1.166 3.155-1.852 5.075-3.292 1.44-1.097 3.155-2.537 3.772-3.703.274-.549.206-1.166.069-1.646-.07-.274-.412-.48-.892.137-.754 1.029-2.057 2.606-3.566 3.566-2.263 1.509-5.28 2.195-7.818 2.126a117.612 117.612 0 0 0 3.772-4.457c1.097-1.303 1.714-1.99 2.743-3.43.137-.205.343-.41.343-.89 0-.48-.617-.275-.96 0-1.989 1.714-3.223 3.085-5.075 4.8-2.263 2.057-3.977 4.046-6.72 4.046-2.264-.069-3.978-.755-5.761-1.51 3.086-1.988 4.8-3.085 7.886-4.937 2.743-1.646 4.87-2.811 7.132-4.251.343-.206.343-.55.206-.686-.206-.137-.617-.069-1.097.068-1.715.686-3.498 1.509-5.692 2.538-3.017 1.44-5.966 2.949-8.504 3.086-2.057.137-4.457-2.4-5.829-3.84 4.046-.96 6.31-1.51 10.287-2.607 3.223-.891 4.8-1.44 8.23-2.468.685-.206.822-.48.822-.686-.068-.412-.343-.549-1.097-.48-2.537.343-8.504 1.371-10.355 1.371-3.703-.068-6.79-.823-7.887-4.526 3.086-.274 4.87-.48 7.955-.96 2.88-.343 4.39-.686 7.27-1.097.617-.069.617-.48.617-.686 0-.274 0-.411-.755-.48-3.703-.274-6.034.206-9.326-.137-3.155-.274-5.692-2.057-5.898-5.35 3.018.07 4.663.138 7.68.138 2.744 0 3.498-.069 7.064-.069.48 0 .892-.342.892-.617 0-.274-.069-.686-.617-.823-1.99-.343-2.47-.411-4.115-.411-2.469 0-4.732 0-6.378-.48-2.263-.617-3.634-1.783-3.909-4.526 2.88 0 4.526-.069 7.407-.069 2.743 0 5.143-.068 7.406-.206.206 0 1.029-.137 1.029-.891 0-.686-1.235-.823-1.578-.823-3.017 0-3.428-.069-5.76-.137-2.469-.069-4.938-.274-6.31-1.303-1.85-1.303-2.057-2.263-2.33-4.115 2.537-.068 4.868-.274 7.406-.274 5.691 0 10.835-.617 14.058.48 1.029.343.823 1.303.617 2.057-.548 2.126-1.92 4.115-2.743 7.27-.343 1.165-.549 2.948.137 4.594.892 2.195 3.36 4.115 5.624 4.115 1.783 0 3.908-.823 5.143-2.469 1.371-1.783 2.4-6.172 2.4-8.024 0-1.988-1.029-3.154-.96-4.594.069-.755.343-1.715 1.166-1.646 1.166.068 2.126.823 3.566 1.166 1.166.274 2.126.548 2.949.823.685.274.685 1.234.548 1.92-.48 2.263-1.234 3.909-1.714 6.446-.274 1.372-.549 2.126-.343 3.292.137 1.097.48 1.92 1.509 2.537.685.412 1.783.617 2.468.549 2.264 0 4.732-1.92 5.624-4.115.686-1.646.411-3.429.137-4.595-.823-3.086-2.195-5.143-2.743-7.269-.206-.754-.343-1.714.617-2.057 3.223-1.097 8.367-.549 14.058-.48 2.538 0 4.87.206 7.407.274-.274 1.852-.48 2.812-2.332 4.115-1.44 1.029-3.84 1.166-6.309 1.303-2.332.068-2.743.137-5.76.137-.343 0-1.578.137-1.578.823 0 .754.755.891 1.029.891 2.263.138 4.663.206 7.406.206 2.88 0 4.526.069 7.407.069-.275 2.674-1.715 3.909-3.91 4.526-1.645.48-3.908.48-6.377.48-1.646 0-2.126.068-4.115.411-.617.069-.617.48-.685.823 0 .275.411.617.891.617 3.566 0 4.32.069 7.064.069 3.017 0 4.731-.069 7.68-.137-.205 3.292-2.743 5.075-5.897 5.349-3.292.343-5.624-.137-9.327.137-.754.069-.754.137-.754.48 0 .206 0 .549.617.686 2.949.411 4.457.686 7.27 1.097 3.085.412 4.868.617 7.954.96-1.097 3.635-4.252 4.458-7.886 4.526-1.783 0-7.818-1.028-10.287-1.371-.754-.069-1.029.068-1.097.48 0 .206.068.48.823.686 3.429 1.028 5.006 1.577 8.23 2.468 3.977 1.098 6.24 1.715 10.286 2.606-1.303 1.44-3.772 3.91-5.83 3.84-2.605-.136-5.486-1.645-8.503-3.085-2.194-1.029-3.977-1.92-5.692-2.538-.48-.205-.891-.205-1.029-.068-.205.137-.137.48.138.686 2.263 1.44 4.389 2.537 7.132 4.251 3.086 1.92 4.869 2.95 7.955 4.938-1.783.686-3.43 1.44-5.76 1.509-2.744.068-4.458-1.99-6.721-4.046-1.92-1.715-3.086-3.086-5.144-4.8-.343-.275-.891-.48-.96 0 0 .41.206.685.343.89 1.029 1.44 1.646 2.058 2.743 3.43 1.44 1.714 2.263 2.743 3.703 4.457-2.537.069-5.486-.617-7.749-2.126-1.509-1.029-2.812-2.606-3.566-3.566-.48-.617-.823-.343-.892-.137-.137.48-.205 1.097.07 1.646.616 1.166 2.33 2.606 3.77 3.703 1.921 1.44 3.293 2.126 5.076 3.292-.96.617-1.44 1.028-2.263 1.851s-1.235 1.303-1.852 2.195c-.686-1.097-1.166-1.715-2.057-2.675-.892-.96-1.51-1.646-2.47-2.331-.685-.549-.96.754-1.302 1.371-.274.48-.206 1.029-.069 1.509.755 2.743 2.058 5.829 4.046 9.19 1.99 3.36 3.772 5.143 6.172 7.954-1.371.206-2.194.206-3.634.137-1.783-.068-2.743-.205-4.458-.617-.96 1.166-1.509 1.783-2.674 2.743-.686.755-1.235 1.166-2.195 1.715"/><path d="M361.7 172c.2-.3.3-.5.5-.9.3-.4.5-.6.8-.9.7.6.9 1.3.9 2.1 0 1.4-.5 1.5-1.3 1.9.1-.5.1-.8-.1-1.3-.2-.3-.4-.6-.8-.9m-6.4 4.9c-.4 0-.6 0-1-.1-.3-.1-.5-.1-.9-.2 0 .6.1 1 .5 1.5.6.7 1.2.9 2.4 1.3-.3-.3-.5-.6-.7-1-.2-.7-.3-1-.3-1.5m-6.2-3.6c-.3-.2-.4-.3-.6-.5l-.7-.7c-.2.5-.3.8-.3 1.4.1 1 .5 1.7 1.4 2.2-.1-.4-.1-.7-.1-1.1 0-.6.1-.9.3-1.3m-1.7-8.5c-.7.1-1.1.3-1.6.8-.6.7-.7 1.5-.4 2.3.2-.5.4-.7.8-1 .3-.2.6-.3 1.1-.3v-.9c.1-.4.1-.6.1-.9" style="fill:#fff" transform="translate(324.664 99.144) scale(.68578)"/><path d="M362.8 159c.4.2.6.4.9.7.3.3.5.5.8.9-1.1.7-1.6 1.2-2.5 2.1-.7.8-1.2 1.2-1.7 2.2-.4.7-.4 1.6.1 2.1.6.7 1 .7 1.6 1.2.4.3.7.5 1.1.9-.5.5-.8.8-1.2 1.4-.5.6-.8 1-1.2 1.7-.9-1.2-1.3-1.7-1.8-2.4-.4-.5-1.1-.7-1.5.5-.3.8-.4 1.5-.6 2.4-.2 1.5-.3 2.2-.5 3.3-.6.1-.9.1-1.5 0s-1-.3-1.5-.6c.3-.9.5-1.4.7-2.3.3-1.1.4-1.4.7-2.7.1-.4.1-.9-.2-1.1-.5-.3-.9 0-1.4.6-.6.8-.9 1.2-1.6 1.9-.4.5-.6.8-1.1 1.3-.6-.3-.9-.5-1.3-1-.5-.5-.7-.8-1.1-1.5.8-.6 1.3-.9 2.2-1.5.9-.6 1.6-1 2.4-1.6.3-.2.4-.5.3-.8-.1-.4-.7-.4-1.1-.3-.7.1-1.2.2-2 .3-.5.1-.9.1-1.5.2 0-.4 0-.7.1-1.1 0-.6.1-.9.2-1.5 1 .2 1.6.3 2.7.4 1.6.1 2.6 0 4.3-.4 1.3-.4 2.1-.7 3.2-1.5 1-.6 1.4-1.2 2.3-2 .5-.7 1-1.1 1.7-1.8" style="fill:#ebbd00" transform="translate(324.664 99.144) scale(.68578)"/><path d="M398.8 172c-.2-.3-.3-.5-.5-.9-.3-.4-.5-.6-.8-.9-.7.6-.9 1.3-.9 2.1 0 1.4.5 1.5 1.3 1.9-.1-.5-.1-.8.1-1.3.1-.3.3-.6.8-.9m6.3 4.9c.4 0 .6 0 1-.1.3-.1.5-.1.9-.2 0 .6-.1 1-.5 1.5-.6.7-1.2.9-2.4 1.3.3-.3.5-.6.7-1 .2-.7.3-1 .3-1.5m6.2-3.6c.3-.2.4-.3.6-.5l.7-.7c.2.5.3.8.2 1.4-.1 1-.5 1.7-1.4 2.2.1-.4.1-.7.1-1.1.1-.6 0-.9-.2-1.3m1.7-8.5c.7.1 1.1.3 1.6.8.6.7.7 1.5.4 2.3-.2-.5-.4-.7-.8-1-.4-.2-.6-.3-1-.3v-.9c-.1-.4-.2-.6-.2-.9" style="fill:#fff" transform="translate(324.664 99.144) scale(.68578)"/><path d="M397.7 159c-.4.2-.6.4-.9.7-.3.3-.5.5-.8.9 1.1.7 1.7 1.2 2.6 2.1.7.8 1.2 1.2 1.7 2.2.4.7.4 1.6-.1 2.1-.6.7-1 .7-1.6 1.2-.4.3-.7.5-1.1.9.5.5.8.8 1.2 1.4.5.6.7 1 1.2 1.7.9-1.2 1.3-1.7 1.8-2.4.4-.5 1.1-.7 1.5.5.3.8.5 1.5.6 2.4.2 1.5.3 2.2.5 3.3.6.1.9.1 1.5 0s1-.3 1.5-.6c-.3-.9-.5-1.4-.7-2.3-.3-1.1-.4-1.4-.7-2.7-.1-.4-.1-.9.2-1.1.5-.3.9 0 1.4.6.6.8.9 1.2 1.5 1.9.4.5.6.8 1.1 1.3.6-.3.9-.5 1.3-1 .5-.5.8-.8 1.1-1.5-.8-.6-1.3-.9-2.2-1.5-.9-.6-1.6-1-2.4-1.6-.3-.2-.4-.5-.3-.8.1-.4.8-.4 1.1-.3.7.1 1.2.2 2 .3.6.1.9.1 1.5.2 0-.4 0-.7-.1-1.1 0-.6-.1-.9-.2-1.5-1.1.2-1.6.3-2.7.4-1.7.1-2.7 0-4.3-.4-1.3-.4-2.1-.7-3.3-1.5-1-.6-1.4-1.2-2.3-2-.5-.7-.9-1.1-1.6-1.8" style="fill:#ebbd00" transform="translate(324.664 99.144) scale(.68578)"/><path d="M364.2 104.7c1.5.2 3 .2 4.3 0 2.8-.3 4.4-1.1 6.6-2.7l.4.2c-1.4 2.4-3.2 3.6-5.9 3.9-2.1.3-5-.6-5.4-1.4" style="fill:#e2001a" transform="translate(324.664 99.144) scale(.68578)"/><path d="M372.7 107.6c.8-1 1.2-1.5 1.9-2.4 1-1.3 1.5-2 2.4-3.2-.3-.1-.5-.2-.8-.3-1.5-.6-2.3-1.4-3.9-1.3-1.3.1-2 .3-3.1 1.1.3-1.1.2-1.6.5-2.5.2-.8.3-1.2.9-1.9.6-.8 1.9-1.2 3.2-1.2 1.3 0 2.2-.1 3.3.1-.1.6-.2.9-.2 1.5 0 1.4.4 2.2.9 3.5.2.7.5 1.5.5 2.3-.7.9-1.1 1.4-2 2.2-1.3.8-2.4 1.6-3.6 2.1" style="fill:#ebbd00" transform="translate(324.664 99.144) scale(.68578)"/><path d="M381.5 97.2c-.2.2-.3.3-.3.6 0 .4.1.8.6.9.3.1.6 0 .8-.3.1-.2.1-.4 0-.6.4 0 .6 0 1 .1.5.1.7.2 1.2.7.3.3 0 .8-.4.9-.4.2-.9-.3-1.3-.2-.5.1-.4.7-1.5.6-.9-.1-1.8-.7-1.7-1.6.1-.5-.6-.6-.4-1.2.1-.4.6-.5.9-.4.3 0 .8.1 1.1.5" style="fill:#fff" transform="translate(324.664 99.144) scale(.68578)"/><path clip-path="url(#b)" d="M77.2 430.7H126v-13.3h25.5v13.3h21.7v-13.3h25.5v13.3h21.8v-13.3H246v13.3h21.8v-13.3h25.5v13.3H315v-13.3h25.6v13.3h21.7v-13.3h25.6v13.3h48.6v88.8H77.2v-88.8" transform="translate(324.664 99.144) scale(.68578)"/><path style="fill:#e2001a" clip-path="url(#b)" d="M234.2 432.6h21.7v11.3h-21.7zm-23.6 0h21.7v11.3h-21.7zm-23.7 0h21.7v11.3h-21.7zm-23.6 0H185v11.3h-21.7zm-23.7 0h21.7v11.3h-21.7zm-23.6 0h21.7v11.3H116zm-23.6 0h21.7v11.3H92.4zm165.4 0h21.7v11.3h-21.7zm23.7 0h21.7v11.3h-21.7zm23.6 0h21.7v11.3h-21.7zm23.7 0h21.7v11.3h-21.7zm23.6 0h21.7v11.3h-21.7zm23.6 0h21.7v11.3H376zm23.7 0h21.7v11.3h-21.7zm-177.3 13.2h21.7v11.4h-21.7zm-23.7 0h21.7v11.4h-21.7zm-23.6 0h21.7v11.4h-21.7zm-23.6 0h21.7v11.4h-21.7zm-23.7 0h21.7v11.4h-21.7zm-23.6 0h21.7v11.4h-21.7zm165.5 0h21.7v11.4h-21.7zm23.6 0H315v11.4h-21.7zm23.6 0h21.7v11.4h-21.7zm23.7 0h21.7v11.4h-21.7zm23.6 0h21.7v11.4h-21.7zm23.7 0h21.7v11.4h-21.7zM210.6 459h21.7v11.4h-21.7zm-23.7 0h21.7v11.4h-21.7zm-23.6 0H185v11.4h-21.7zm-23.7 0h21.7v11.4h-21.7zm-23.6 0h21.7v11.4H116zm165.5 0h21.7v11.4h-21.7zm23.6 0h21.7v11.4h-21.7zm23.7 0h21.7v11.4h-21.7zm23.6 0h21.7v11.4h-21.7zm23.6 0h21.7v11.4H376zm-153.6 13.3h21.7v11.4h-21.7zm-23.7 0h21.7v11.4h-21.7zm-23.6 0h21.7v11.4h-21.7zm-23.6 0h21.7v11.4h-21.7zm-23.7 0h21.7v11.4h-21.7zm141.9 0h21.7v11.4h-21.7zm23.6 0H315v11.4h-21.7zm23.6 0h21.7v11.4h-21.7zm23.7 0h21.7v11.4h-21.7zm23.6 0h21.7v11.4h-21.7zm-153.6 13.2h21.7v11.3h-21.7zm-23.7 0h21.7v11.3h-21.7zm-23.6 0H185v11.3h-21.7zm118.2 0h21.7v11.3h-21.7zm23.6 0h21.7v11.3h-21.7zm23.7 0h21.7v11.3h-21.7zm-106.4 13.2h21.7v11.4h-21.7zm-23.7 0h21.7v11.4h-21.7zm71 0h21.7v11.4h-21.7zm23.6 0H315v11.4h-21.7zm-70.9-79.4h21.7v11.4h-21.7zm-47.3 0h21.7v11.4h-21.7zm-47.3 0h21.7v11.4h-21.7zm141.9 0h21.7v11.4h-21.7zm47.2 0h21.7v11.4h-21.7zm47.3 0h21.7v11.4h-21.7zM246 445.8h21.7v11.4H246z" transform="translate(324.664 99.144) scale(.68578)"/><path d="M256.9 443.9c14.1 0 25.5 11.4 25.5 25.5v50.1h-51.1v-50.1c.1-14.1 11.5-25.5 25.6-25.5" clip-path="url(#b)" transform="translate(324.664 99.144) scale(.68578)"/><path style="fill:#e2001a" clip-path="url(#b)" d="M233.3 472.3h7.6v11.3h-7.6zm0 13.2h7.6v11.3h-7.6zm0 13.2h7.6v11.4h-7.6zm3.2-41.2c2.2-3.8 5.4-6.8 9.2-8.9l3.5 7.7c-2.3 1.3-4.3 3.1-5.7 5.3l-7-4.1m6 5.7-7-4c-1.5 3.1-2.3 6.6-2.3 10.2v.9h7.6c0-2.5.6-5 1.7-7.1m30.5 9.1h7.6v11.3H273zm0 13.2h7.6v11.3H273zm0 13.2h7.6v11.4H273zm4.3-41.2c-2.2-3.8-5.4-6.8-9.2-8.9l-3.5 7.7c2.3 1.3 4.3 3.1 5.7 5.3l7-4.1m-6.1 5.7 7-4c1.5 3.1 2.3 6.6 2.3 10.2v.9H273c0-2.5-.6-5-1.8-7.1" transform="translate(324.664 99.144) scale(.68578)"/><path d="M256.9 456.2c7.8 0 14.2 6.4 14.2 14.2v49.2h-28.3v-49.2c-.1-7.9 6.3-14.2 14.1-14.2" style="fill:#fff" clip-path="url(#b)" transform="translate(324.664 99.144) scale(.68578)"/><path d="M256.9 445.8c-3.4 0-6.6.7-9.5 2l3.5 7.7c1.8-.7 3.9-1.2 6-1.2s4.1.4 6 1.2l3.5-7.7c-2.9-1.3-6.1-2-9.5-2" style="fill:#e2001a" clip-path="url(#b)" transform="translate(324.664 99.144) scale(.68578)"/><path d="M514.4 311.5c-4.3-2.9-10.2-1.8-13.1 2.6-2.3 3.3-2.1 7.6.1 10.7-.6 1-1.2 2-1.7 2.8 1.5-4.1.1-8.6-3.6-11.2-4.3-2.9-10.2-1.8-13.1 2.6-2.9 4.3-1.8 10.2 2.5 13.1 3.1 2.1 6.9 2.1 9.9.4-7.5 7-16.1 6.1-21.9 2.2-5.7-3.9-9-9.3-8.4-16.7 3.9 1.3 8.4-.1 10.8-3.7 2.9-4.3 1.8-10.2-2.6-13.1-4.3-2.9-10.2-1.8-13.1 2.5-2.4 3.5-2.1 8.2.6 11.3-6.7 3.3-13 2.4-18.7-1.5-5.8-3.9-9.8-11.8-6.1-21.3-.5 3.6 1 7.2 4 9.3 4.3 2.9 10.2 1.8 13.1-2.5 2.9-4.4 1.8-10.2-2.6-13.1-3.7-2.5-8.7-2-11.8 1 .6-1 1.3-1.9 2.1-2.9 3.7.9 7.7-.5 10-3.9 2.9-4.3 1.8-10.2-2.5-13.1-4.3-2.9-10.2-1.8-13.1 2.6-2.2 3.3-2.1 7.6.1 10.7-.5 1-1.1 2-1.7 2.8 1.5-4 .1-8.6-3.6-11.2-4.3-2.9-10.2-1.8-13.1 2.6-2.9 4.3-1.8 10.2 2.6 13.1 3.1 2.1 6.9 2.1 9.9.4-7.5 7-16.1 6.1-21.8 2.2-5.7-3.9-9-9.3-8.4-16.8 3.9 1.3 8.4-.1 10.8-3.7 2.9-4.3 1.8-10.2-2.5-13.1-4.3-2.9-10.2-1.8-13.1 2.6-2.4 3.5-2 8.2.6 11.3-6.7 3.3-13 2.4-18.7-1.5-5.8-3.9-9.8-11.8-6.1-21.3-.5 3.6.9 7.2 4 9.3 4.3 2.9 10.2 1.8 13.1-2.6 2.9-4.3 1.8-10.2-2.6-13.1-3.7-2.5-8.7-2-11.8 1 .6-.9 1.3-1.9 2.1-2.9 3.7.9 7.7-.5 10-3.9 2.9-4.3 1.8-10.2-2.6-13.1-4.3-2.9-10.2-1.8-13.1 2.6-2.3 3.3-2.1 7.6.1 10.7-.6 1-1.2 1.9-1.8 2.8 1.5-4 .1-8.6-3.6-11.1-4.3-2.9-10.2-1.8-13.1 2.5-2.9 4.3-1.8 10.2 2.6 13.1 3.1 2.1 6.9 2.1 9.9.4-7.5 7-16 6.1-21.8 2.2-5.7-3.9-9-9.3-8.4-16.8 3.9 1.3 8.4-.1 10.8-3.7 2.9-4.3 1.8-10.2-2.5-13.1-4.3-2.9-10.2-1.8-13.1 2.6-2.4 3.6-2 8.2.6 11.3-6.7 3.3-13 2.4-18.7-1.5-5.8-3.9-9.7-11.8-6.1-21.3-.5 3.6.9 7.2 4 9.3 4.3 2.9 10.2 1.8 13.1-2.6 2.9-4.3 1.8-10.2-2.5-13.1-3.8-2.5-8.7-2-11.8 1 .6-.9 1.3-1.9 2.1-2.9 3.7.9 7.7-.5 10-3.9 2.9-4.3 1.8-10.2-2.6-13.1-4.3-2.9-10.2-1.8-13.1 2.5-2.3 3.4-2.1 7.6.1 10.7-.6 1-1.2 1.9-1.8 2.8 1.5-4 .1-8.6-3.6-11.1-4.3-2.9-10.2-1.8-13.1 2.5-2.9 4.3-1.8 10.2 2.5 13.1 3.1 2.1 6.9 2.1 9.9.4-7.5 6.9-16 6.1-21.8 2.2-5.7-3.9-9-9.3-8.4-16.8 3.9 1.3 8.4-.1 10.8-3.7 2.9-4.3 1.8-10.2-2.6-13.1-4.3-2.9-10.2-1.8-13.1 2.6-2.4 3.6-2 8.2.6 11.3-6.7 3.4-13 2.4-18.7-1.5-5.8-3.9-9.8-11.8-6.1-21.4-.5 3.6.9 7.2 4 9.3 4.3 2.9 10.2 1.8 13.1-2.6 2.9-4.3 1.8-10.2-2.5-13.1-3.7-2.5-8.7-2-11.8 1 .6-1 1.3-1.9 2.1-2.8 3.7.9 7.7-.6 10-3.9 2.9-4.3 1.8-10.2-2.5-13.1-4.3-2.9-10.2-1.8-13.1 2.5-2.2 3.3-2.1 7.6.1 10.7-.6 1-1.1 2-1.7 2.8 1.5-4 .1-8.6-3.6-11.1-4.3-2.9-10.2-1.8-13.1 2.5-2.9 4.3-1.8 10.2 2.6 13.1 3.1 2.1 6.9 2.1 9.9.4-7.5 7-16.1 6.1-21.8 2.2-5.7-3.9-9-9.3-8.4-16.8 3.9 1.3 8.4-.1 10.8-3.7 2.9-4.3 1.8-10.2-2.5-13.1-4.3-2.9-10.2-1.8-13.1 2.5-2.4 3.6-2 8.2.6 11.3-6.7 3.3-13 2.4-18.7-1.5-5.8-3.9-9.8-11.8-6.1-21.3-.5 3.6 1 7.2 4 9.3 4.3 2.9 10.2 1.8 13.1-2.5 2.9-4.3 1.8-10.2-2.6-13.1-3.7-2.5-8.7-2-11.8 1 .6-1 1.3-1.9 2.1-2.9 3.7.9 7.7-.5 10-3.9 2.9-4.3 1.8-10.2-2.6-13.1-4.3-2.9-10.2-1.8-13.1 2.6-2.2 3.3-2.1 7.6.1 10.7-.5 1-1.1 2-1.7 2.8 1.5-4 .1-8.6-3.6-11.2-4.3-2.9-10.2-1.8-13.1 2.6-2.9 4.3-1.8 10.2 2.6 13.1 3.1 2.1 6.9 2.1 9.9.4-7.5 6.9-16 6.1-21.8 2.2-5.7-3.9-9-9.3-8.4-16.7 3.9 1.3 8.4-.1 10.8-3.7 2.9-4.3 1.8-10.2-2.5-13.1-4.3-2.9-10.2-1.8-13.1 2.5-2.4 3.6-2 8.2.6 11.3-6.7 3.4-13 2.4-18.7-1.5-5.8-3.9-9.8-11.8-6.1-21.3-.5 3.6.9 7.2 4 9.3 4.3 2.9 10.2 1.8 13.1-2.5 2.9-4.3 1.8-10.2-2.6-13.1-3.7-2.5-8.7-2-11.8 1 .6-.9 1.3-1.9 2.1-2.9 3.7.9 7.7-.5 10-3.9 2.9-4.3 1.8-10.2-2.6-13.1-4.3-2.9-10.2-1.8-13.1 2.6-2.3 3.3-2.1 7.6.1 10.7-.6 1-1.2 1.9-1.8 2.8 1.5-4 .1-8.6-3.6-11.1-4.3-2.9-10.2-1.8-13.1 2.6-2.9 4.3-1.8 10.2 2.5 13.1 3.1 2.1 6.9 2.1 9.9.4-7.5 7-16.1 6.1-21.8 2.2-5.7-3.9-9-9.3-8.4-16.8 3.9 1.3 8.4-.1 10.8-3.7 2.9-4.3 1.8-10.2-2.6-13.1-4.3-2.9-10.2-1.8-13.1 2.6-2.4 3.6-2.1 8.2.6 11.3-6.7 3.3-13 2.4-18.7-1.5-5.8-3.9-9.8-11.8-6.1-21.3-.5 3.6.9 7.2 4 9.3 4.3 2.9 10.2 1.8 13.1-2.6 2.9-4.3 1.8-10.2-2.5-13.1-3.7-2.5-8.7-2-11.8 1 .6-.9 1.3-1.9 2.1-2.9 3.7.9 7.7-.5 10-3.9C58.1 8.8 57 2.9 52.6 0L0 78l461.9 311.5 52.5-78" clip-path="url(#c)" transform="translate(324.664 99.144) scale(.68578)"/><path d="m496.6 338.8-33.9 50.3L1 77.6l33.9-50.3c-1.7 9 1.6 18.1 8.9 23 6.8 4.7 13.9 5.7 21.3 3.2.8 7.4 3.5 13.5 10.2 18 8.3 5.6 17.2 5.7 25.6.3-1.7 9 1.6 18.1 8.9 23 6.8 4.6 13.8 5.7 21.3 3.2.8 7.4 3.5 13.5 10.2 18 8.3 5.6 17.2 5.7 25.6.3-1.7 9 1.6 18.1 8.9 23 6.9 4.6 13.9 5.7 21.3 3.2.8 7.4 3.5 13.5 10.1 18 8.3 5.6 17.2 5.7 25.6.3-1.7 9 1.6 18 8.9 23 6.9 4.6 13.9 5.7 21.3 3.2.9 7.4 3.5 13.5 10.2 18 8.3 5.6 17.2 5.7 25.6.3-1.7 9 1.6 18 8.9 23 6.8 4.7 13.8 5.7 21.3 3.2.8 7.4 3.5 13.5 10.2 18 8.3 5.6 17.2 5.7 25.6.3-1.7 9 1.6 18.1 8.9 23 6.8 4.6 13.8 5.7 21.3 3.2.8 7.4 3.5 13.5 10.1 18 8.3 5.6 17.2 5.7 25.6.3-1.7 9 1.6 18.1 8.9 23 6.9 4.6 13.9 5.7 21.3 3.2.9 7.4 3.5 13.5 10.2 18 8.3 5.7 17.1 5.7 25.5.3m-242-173.9c2.6-3.9 1.6-9.1-2.3-11.8-3.9-2.6-9.1-1.6-11.8 2.3-2.6 3.9-1.6 9.1 2.3 11.7 3.9 2.7 9.2 1.7 11.8-2.2m22.7 15.3c2.6-3.9 1.6-9.1-2.3-11.7-3.9-2.6-9.1-1.6-11.7 2.3-2.6 3.9-1.6 9.1 2.3 11.7 3.8 2.6 9.1 1.6 11.7-2.3m8.6 5.8c2.6-3.9 7.9-4.9 11.7-2.3 3.9 2.6 4.9 7.9 2.3 11.8-2.6 3.9-7.9 4.9-11.7 2.3-3.9-2.6-4.9-7.9-2.3-11.8m34.6 23.4c2.6-3.9 1.6-9.1-2.3-11.7-3.9-2.6-9.1-1.6-11.7 2.3-2.6 3.9-1.6 9.1 2.3 11.8 3.9 2.5 9.1 1.5 11.7-2.4m22.7 15.3c2.6-3.9 1.6-9.1-2.3-11.7-3.9-2.6-9.1-1.6-11.7 2.3-2.6 3.9-1.6 9.1 2.3 11.7 3.9 2.6 9.1 1.6 11.7-2.3m8.7 5.8c2.6-3.9 7.9-4.9 11.7-2.3 3.9 2.6 4.9 7.9 2.3 11.7-2.6 3.9-7.9 4.9-11.7 2.3-3.9-2.5-4.9-7.8-2.3-11.7m34.6 23.4c2.6-3.9 1.6-9.1-2.3-11.7-3.9-2.6-9.1-1.6-11.7 2.3-2.6 3.9-1.6 9.1 2.3 11.7 3.8 2.6 9.1 1.6 11.7-2.3m22.7 15.3c2.6-3.9 1.6-9.1-2.3-11.8-3.9-2.6-9.1-1.6-11.7 2.3-2.6 3.9-1.6 9.1 2.3 11.7 3.8 2.7 9.1 1.7 11.7-2.2m8.6 5.9c2.6-3.9 7.9-4.9 11.8-2.3 3.9 2.6 4.9 7.9 2.3 11.7-2.6 3.9-7.9 4.9-11.7 2.3-3.9-2.6-5-7.9-2.4-11.7M188.6 120.4c2.6-3.9 1.6-9.1-2.3-11.7-3.9-2.6-9.1-1.6-11.7 2.3-2.6 3.9-1.6 9.1 2.3 11.7 3.8 2.6 9.1 1.6 11.7-2.3m22.7 15.3c2.6-3.9 1.6-9.1-2.3-11.7-3.9-2.6-9.1-1.6-11.8 2.3-2.6 3.9-1.6 9.1 2.3 11.8 3.9 2.5 9.2 1.5 11.8-2.4m8.6 5.9c2.6-3.9 7.9-4.9 11.8-2.3 3.9 2.6 4.9 7.9 2.3 11.7-2.6 3.9-7.9 4.9-11.8 2.3-3.9-2.6-4.9-7.9-2.3-11.7m-97.3-65.7c2.6-3.9 1.6-9.1-2.3-11.7-3.9-2.6-9.1-1.6-11.7 2.3-2.6 3.9-1.6 9.1 2.3 11.7 3.8 2.6 9.1 1.6 11.7-2.3m22.7 15.3c2.6-3.9 1.6-9.1-2.3-11.7-3.9-2.6-9.1-1.6-11.7 2.3-2.6 3.9-1.6 9.1 2.3 11.7 3.8 2.6 9.1 1.6 11.7-2.3m8.6 5.9c2.6-3.9 7.9-4.9 11.7-2.3 3.9 2.6 4.9 7.9 2.3 11.7-2.6 3.9-7.9 4.9-11.7 2.3-3.8-2.6-4.9-7.9-2.3-11.7m30.1-7.3c3.9 2.6 4.9 7.9 2.3 11.7-2.6 3.9-7.9 4.9-11.7 2.3-3.9-2.6-4.9-7.9-2.3-11.7 2.6-3.9 7.9-4.9 11.7-2.3m66 44.5c3.9 2.6 4.9 7.9 2.3 11.7-2.6 3.9-7.9 4.9-11.8 2.3-3.9-2.6-4.9-7.9-2.3-11.8 2.7-3.8 7.9-4.8 11.8-2.2m66 44.5c-3.9-2.6-9.1-1.6-11.8 2.3-2.6 3.9-1.6 9.1 2.3 11.7 3.9 2.6 9.1 1.6 11.7-2.3 2.7-3.8 1.7-9.1-2.2-11.7m65.9 44.5c-3.9-2.6-9.1-1.6-11.7 2.3-2.6 3.9-1.6 9.1 2.3 11.7 3.9 2.6 9.1 1.6 11.7-2.3 2.6-3.8 1.6-9.1-2.3-11.7m66 44.5c-3.9-2.6-9.1-1.6-11.7 2.3-2.6 3.9-1.6 9.1 2.3 11.7 3.9 2.6 9.1 1.6 11.7-2.3 2.6-3.8 1.6-9.1-2.3-11.7" style="fill:#1a962b" clip-path="url(#c)" transform="translate(324.664 99.144) scale(.68578)"/><path d="M503.9 327.2c-.7-.5-1.3-1-1.8-1.6-8.3 14.8-20.9 15.4-28.9 9.9-6-4-9.6-9.9-8.8-17.9-.5-.2-1-.5-1.4-.8-.5-.3-.9-.7-1.3-1.1-7.1 3.7-13.9 2.6-19.9-1.5-8.1-5.4-12.2-17.4-1.6-30.6-.7-.2-1.5-.6-2.2-1.1-.7-.4-1.3-1-1.8-1.6-8.3 14.8-20.8 15.4-28.9 9.9-6-4.1-9.6-9.9-8.8-17.9-.5-.2-1-.5-1.4-.8-.5-.3-.9-.7-1.3-1.1-7.1 3.7-13.9 2.6-19.9-1.5-8.1-5.5-12.2-17.4-1.6-30.6-.7-.3-1.5-.6-2.2-1.1-.7-.5-1.3-1-1.8-1.6-8.2 14.8-20.8 15.4-28.9 10-6-4.1-9.5-9.9-8.8-17.9-.5-.2-1-.5-1.4-.8-.5-.3-.9-.7-1.3-1.1-7.1 3.7-13.9 2.6-19.9-1.5-8.1-5.5-12.2-17.4-1.6-30.5-.7-.3-1.5-.6-2.2-1.1-.7-.5-1.3-1-1.8-1.6-8.3 14.8-20.9 15.4-28.9 10-6-4.1-9.6-9.9-8.8-17.9-.5-.2-1-.5-1.4-.8-.5-.3-.9-.7-1.3-1-7.1 3.6-13.9 2.6-19.9-1.5-8.1-5.5-12.2-17.4-1.6-30.6-.7-.3-1.5-.6-2.2-1.1-.7-.5-1.3-1-1.8-1.6-8.3 14.8-20.9 15.4-28.9 10-6-4.1-9.6-9.9-8.8-17.9-.5-.2-1-.5-1.4-.8-.5-.3-.9-.7-1.3-1-7.1 3.7-13.9 2.6-19.9-1.5-8.1-5.5-12.2-17.4-1.6-30.6-.7-.2-1.5-.6-2.2-1.1-.7-.5-1.3-1-1.8-1.6-8.2 14.8-20.8 15.4-28.9 10-6-4-9.5-9.9-8.8-17.9-.5-.2-1-.5-1.4-.8-.5-.3-.9-.7-1.3-1.1-7.1 3.7-13.9 2.6-19.9-1.5-8.1-5.4-12.2-17.4-1.6-30.6-.7-.2-1.5-.6-2.2-1.1-.7-.5-1.3-1-1.8-1.6C98 73.3 85.3 74 77.3 68.5c-6-4.1-9.6-9.9-8.8-17.9-.5-.2-1-.5-1.4-.8-.5-.3-.9-.7-1.3-1.1-7.1 3.7-13.9 2.6-19.9-1.5-8.1-5.5-12.2-17.4-1.6-30.5-.7-.3-1.5-.6-2.2-1.1l-5.2 7.8c-4.1 9.8-.6 20.8 7.5 26.2 6.8 4.6 13.7 5.4 21.2 2.5.4 7.8 3.4 14.1 10.2 18.8 8.1 5.4 19.6 4.5 27.1-3-4.1 9.8-.7 20.8 7.4 26.2 6.8 4.6 13.7 5.4 21.2 2.4.4 7.8 3.4 14.2 10.2 18.8 8.1 5.5 19.6 4.5 27.1-2.9-4.1 9.8-.7 20.8 7.4 26.2 6.8 4.6 13.7 5.4 21.2 2.4.4 7.8 3.4 14.2 10.2 18.8 8.1 5.5 19.5 4.5 27.1-2.9-4.1 9.8-.7 20.8 7.4 26.2 6.8 4.6 13.7 5.4 21.2 2.4.4 7.8 3.4 14.2 10.2 18.8 8.1 5.5 19.5 4.5 27.1-2.9-4.1 9.8-.7 20.8 7.4 26.2 6.8 4.6 13.7 5.4 21.2 2.5.4 7.8 3.4 14.1 10.2 18.7 8.1 5.5 19.5 4.5 27.1-2.9-4.1 9.8-.7 20.8 7.4 26.2 6.8 4.6 13.7 5.4 21.2 2.4.4 7.8 3.4 14.2 10.2 18.8 8.1 5.4 19.5 4.5 27.1-3-4 9.8-.6 20.8 7.5 26.3 6.8 4.6 13.7 5.4 21.2 2.4.4 7.8 3.4 14.2 10.2 18.8 8.1 5.5 19.5 4.5 27.1-2.9.3.1 5.7-7.6 5.5-7.7" style="fill:#1a962b" clip-path="url(#c)" transform="translate(324.664 99.144) scale(.68578)"/><path clip-path="url(#c)" d="m21.7 47.1 461.5 311.3-.4.6L21.3 47.7l.4-.6z" transform="translate(324.664 99.144) scale(.68578)"/><path style="fill:none;stroke:#000;stroke-width:.112;stroke-miterlimit:3.86400008" clip-path="url(#c)" d="m21.7 47.1 461.5 311.3-.4.6L21.3 47.7l.4-.6z" transform="translate(324.664 99.144) scale(.68578)"/><path clip-path="url(#c)" d="m5.2 71.5 461.6 311.4-.5.6L4.8 72.1l.4-.6z" transform="translate(324.664 99.144) scale(.68578)"/><path style="fill:none;stroke:#000;stroke-width:.112;stroke-miterlimit:3.86400008" clip-path="url(#c)" d="m5.2 71.5 461.6 311.4-.5.6L4.8 72.1l.4-.6z" transform="translate(324.664 99.144) scale(.68578)"/><path stroke-miterlimit="3.864" style="fill:none;stroke:#000;stroke-width:.168;stroke-miterlimit:3.86400008" d="M77.2 313.9h359.3" transform="translate(324.664 99.144) scale(.68578)"/><path d="M256.9 510.1c-99.2 0-179.7-80.4-179.7-179.6V75.1h359.3v255.3c0 99.2-80.4 179.7-179.6 179.7m0-2.9c-97.7 0-176.8-79.2-176.8-176.8V78h353.6v252.4c0 97.7-79.2 176.8-176.8 176.8z" style="fill-rule:evenodd" transform="translate(324.664 99.144) scale(.68578)"/><path d="M476.29 323.392c2.537-1.166 3.84-1.783 6.377-2.674.412-.138.686-.343 1.097-.343 2.88-.343 4.39-.412 7.2-.48 1.853-.069 2.881-.069 4.801-.069.618 0 1.029 0 1.578.343 1.646 1.234 2.88 2.263 4.663 3.772 1.783 1.508 2.812 2.331 4.663 3.84-.137 1.097-.343 1.714-.823 2.675-.548 1.097-.891 1.714-1.714 2.605 1.166-.891 1.851-1.92 2.674-3.36.48-.823.686-1.303 1.029-2.263.137-.411.411-.617 1.029-.411 3.84 1.303 7.475 2.606 12.412 3.017.823.069 1.235.137 2.195.137.48 0 .891.069 1.303.275 2.263 1.028 3.497 1.645 5.623 2.948 2.4 1.51 4.663 2.675 6.858 5.075 1.92 2.057 3.154 3.018 5.623 4.252 1.715.823 2.537.754 4.663 1.509.343.137.48.274.618.823.685 2.605.96 4.251 1.508 6.926.617 2.674.892 4.183 1.509 6.858 1.577 1.783 2.606 2.674 4.595 3.977 1.577 1.029 2.606 1.509 4.389 2.195.754 4.251 1.028 6.72 1.165 10.972.069 2.675.069 4.183-.068 6.858-.274 1.097-.617 1.577-1.715 2.331-.685.48-1.714.549-2.194.549h-14.881c-1.029-.892-1.44-1.989-1.098-3.36.343-1.166.96-1.92 2.195-2.263 1.234-.412 2.4-.412 3.84-.412 0-1.166-.206-2.812-.686-3.703-.342-.617-.754-.892-1.371-1.303-3.223-2.263-4.938-3.497-7.544-5.623-1.577-1.235-2.263-1.99-3.566-3.36-.068-.48-.137-.686-.274-1.166-.069-.275-.069-.412-.137-.686.343-.48.48-.755.686-1.303.343-.755.411-1.166.548-1.989-.274.96-.48 1.44-.96 2.263-.206.343-.274.48-.548.823.548 2.332.822 3.703 1.097 6.103.274 1.92.343 3.018.411 5.007-1.234 2.4-2.263 3.84-3.909 6.446-.823 1.303-2.057 2.743-3.154 3.909-.617.617-1.509.548-2.4.548H510.51c-.823-.685-1.235-1.371-1.235-2.4 0-1.646.96-3.154 2.949-3.703.891-.274 2.126-.274 3.086-.206.137-.823.206-1.234.274-2.126.069-.823 0-1.165.069-2.194 0-.412-.069-.754-.343-1.097-1.029-1.303-2.126-2.606-3.017-4.526-.412-.823-.55-1.372-.823-2.264-2.47-.274-3.84-.48-6.31-.891-2.125-.343-3.291-.549-5.417-.892-1.783-1.371-3.566-2.468-5.143-2.88-.275-.068-.55-.068-.892-.068-.274-.549-.48-.892-.686-1.44-.205-.55-.411-1.303-.686-3.292.07 2.331.48 3.977 1.166 5.829.686 1.989.823 2.469 1.509 4.937.137.55.137.892 0 1.44-.617 3.018-.96 4.321-1.783 7.064-.892 2.88-1.509 5.075-2.606 7.27-.274.616-.754 1.44-1.44 1.44h-15.979c-.548-.755-.891-1.92-.823-2.88.069-.755.412-1.578.96-2.127.55-.548 2.332-1.783 5.007-2.194 0-2.95-.137-4.32-.137-7.064v-7.337c-.823-1.166-.96-1.578-1.372-2.675-.411-1.166-.617-1.852-.754-3.017-.069 1.028 0 1.645.205 2.674.275 1.166.686 2.057 1.235 2.949-2.195 2.057-3.566 3.086-6.035 4.8-2.126 1.44-3.36 2.195-5.623 3.43-.138 1.028-.206 1.37-.549 1.988-.549.891-1.509 1.509-2.126 1.509h-13.098c-.892 0-2.058-3.292-1.029-4.39 2.057-2.194 3.223-3.497 5.006-5.966 1.44-1.92 2.4-3.36 3.498-5.074.96-1.509 3.086-2.126 5.28-3.223 1.92-.96 3.018-1.44 5.006-2.126 0 0 .275-1.715-.205-1.715-.48.069-1.852.069-3.018-.137-1.646-.274-2.812-.686-4.526-1.303-1.714-.617-2.674-1.029-4.32-1.92-1.372 0-2.195-.069-3.566-.206-1.303-.137-1.99-.206-3.292-.411 0 0-.617-2.058.069-2.126.48-.069.685-.069 1.165-.137.48-.069 1.303.137 1.303-.275-1.028.069-1.577.069-2.743.138h-2.126c-.274 0-1.097-.823-1.92-1.646-.891-.892-1.92-1.715-1.92-2.126v-2.263c-.343-.48 0-1.029.48-1.029.892-.206 2.4-.549 2.4-.549a38.3 38.3 0 0 1 3.155-2.674c1.303-1.097 2.057-1.577 3.497-2.537.48-2.195.549-3.91 1.989-4.184 1.92-.411 3.909-.754 6.995-.823.343-1.165.823-1.988 1.851-2.606 1.372-.822 3.43-.822 4.8-.822 1.235 1.44 2.264 3.086 2.538 5.486.206 1.508-.137 2.537-.548 3.84.343-.48.548-.754.685-1.303.686-2.537-.274-5.76-.96-7.68-.068-.343 3.292-1.03 6.652-2.538"/><path d="M468.334 352.263c.343-.068.343.96.343 1.577.069.618 0 1.03-.137 1.646-1.646.618-2.606 1.029-4.252 1.783-2.057.96-3.634 1.715-5.212 2.675-.617.343-.823.754-1.165 1.303-1.303 2.057-2.058 3.086-3.498 5.006a65.453 65.453 0 0 1-4.526 5.28c-.411.412-.617.823-.48 1.372.206 1.097.549 1.852.96 1.852h11.727c.686 0 1.371-.138 1.714-.412.686-.548 1.166-1.371 1.029-2.674 2.606-1.303 3.977-2.195 6.378-3.84 2.057-1.44 3.223-2.4 5.074-4.115-.48-.96-.685-1.578-.891-2.675-.274-1.166-.412-1.851-.274-3.017.205-1.235.411-1.92 1.165-2.95.138 1.167.206 1.784.48 2.95.343 1.44.412 2.331 1.03 3.634.342.755.616 1.166 1.096 1.783 0 2.606.069 4.046.069 6.584.068 3.291.068 5.006.137 8.366 0 .412-.206.686-.617.755-.755.068-2.195.548-2.606.685-1.303.618-2.4 1.303-2.675 2.606-.137.892.138 2.195.618 2.195h15.018c.96 0 2.4-4.183 3.429-7.544.823-2.811 1.371-4.663 1.852-7.063a3.343 3.343 0 0 0 0-1.646 207.685 207.685 0 0 0-1.784-5.486c-.685-2.058-.822-3.635-.96-5.624-.068-1.577.206-2.606 1.303-3.566-.068 1.44 0 2.263.206 3.703.274 1.646.48 2.538 1.097 4.047a9.396 9.396 0 0 1 1.646.48c1.509.548 2.675 1.371 4.32 2.606 1.784.342 2.744.48 4.595.822 2.95.48 4.595.686 7.544.96.206 1.098.411 1.715.891 2.744.755 1.783 2.126 3.291 3.155 4.526.274.343.343.617.343 1.028 0 1.03-.069 1.646-.069 2.538-.068 1.577-.343 3.086-.754 3.086-.892-.275-1.715-.137-2.332-.137-1.371.068-2.949.823-3.154 3.086-.069.685.48 1.508 1.097 1.508h14.607c.411 0 1.303.069 1.714-.411 1.44-1.577 2.4-2.949 3.704-5.006 1.234-1.852 1.851-2.95 2.948-4.938-.068-1.783-.137-2.812-.343-4.595-.274-2.537-.548-3.908-1.097-6.377.549-.823.823-1.235 1.235-2.126.685-1.44.96-2.263 1.165-3.772.48.96.618 1.577.618 2.675 0 1.577-.549 2.674-1.303 3.909-.275.48 1.851 2.4 3.291 3.634 1.51 1.372 3.292 2.743 5.555 4.39 1.097.753 1.989 1.302 2.743 1.85 1.029.686 1.509 1.372 1.783 2.607.275.96.343 1.988.343 3.909h-2.126c-1.783.068-3.566.342-3.84 2.4-.069.754.274 1.851.96 1.851h14.127c.549 0 .891-.068 1.372-.343.822-.411 1.577-1.165 1.645-1.783.206-2.811.138-4.594.069-7.543-.137-3.772-.412-5.898-1.029-9.6-1.851-.687-2.811-1.167-4.457-2.264-1.715-1.166-3.155-2.469-4.32-3.909-.275-.274-.344-.823-.48-1.166-.824-3.772-1.098-4.869-1.715-8.023-.412-1.99-.686-3.155-1.029-5.144-1.646-.548-2.537-.685-3.84-1.234-1.92-.754-3.36-1.714-4.732-2.812-1.234-.891-1.92-1.92-2.949-2.949-1.714-1.645-3.086-2.4-5.212-3.703-2.331-1.44-4.8-2.606-6.172-3.291-.411-.206-.685-.275-1.165-.275-1.166.069-3.018-.068-4.938-.411-3.017-.549-6.72-1.646-9.807-2.743-.48 1.166-.823 1.988-1.371 3.086-1.303 2.331-2.812 3.36-5.006 3.566-.069-.206 1.44-1.44 2.126-2.606.822-1.303 1.165-2.126 1.577-3.635-1.509-1.234-2.4-1.92-3.91-3.154-2.056-1.646-3.222-2.606-5.28-4.252a57.642 57.642 0 0 0-4.869 0c-3.086.068-4.8.206-7.817.48-1.715.686-2.675 1.097-4.39 1.783-1.85.754-2.88 1.303-4.731 1.989-1.577.617-2.469.891-4.046 1.44.411 1.371.891 3.086.891 5.417 0 1.44-.205 2.743-1.097 3.91-.549.685-1.509 1.302-2.4 1.92.548-1.235.754-1.99 1.097-3.292.206-1.029.549-1.646.411-2.743-.274-2.606-1.302-4.046-2.125-5.212-.892 0-2.47.137-3.292.411-1.44.549-2.057 1.646-2.4 3.155-1.372 0-2.195 0-3.566.137-1.51.137-2.675.343-3.772.617-.343.069-.549.274-.617.617a40.768 40.768 0 0 0-.755 3.36c-1.371.824-2.126 1.372-3.429 2.332-1.44 1.097-3.154 2.812-3.566 2.95-.411.136-.685.205-1.097.342-.48.137-.823.206-1.303.274v2.263c.549.549.892.823 1.44 1.372l1.646 1.646c1.372-.069 2.195-.137 3.566-.069 1.509.069 3.772 0 3.84.343-.548.549-1.028.96-1.714 1.166-1.097.343-1.714.274-2.949.48l.069.617c.891.137 1.303.206 2.194.343 1.646.206 2.606.206 4.252.206a39.263 39.263 0 0 0 3.498 1.577c1.783.686 2.88 1.166 4.8 1.509.686.137 1.029.137 1.714.205.686.275 1.235.275 2.126.206"/><path d="M318.5 412.8c0 1 .3 2.1 1.4 2.1.4 0 .5-.1.7-.3.3-.3.1-.7.3-1.1.3-.7.7-.9 1.1-1.7.1-.3-.1-.8-.5-.8-.5 0-.7 0-1.3-.1-1-.2-1.6.9-1.7 1.9m3.5 0c0 1 .3 2.1 1.4 2.1.4 0 .4-.1.7-.3.3-.3.1-.7.3-1.1.3-.7.7-.9 1-1.7.2-.3-.1-.8-.5-.8-.5 0-.7 0-1.3-.1-.9-.2-1.6.9-1.6 1.9m-49.9 0c0 1 .3 2.1 1.4 2.1.4 0 .5-.1.7-.3.3-.3.1-.7.3-1.1.3-.7.7-.9 1.1-1.7.1-.3-.1-.8-.5-.8-.5 0-.7 0-1.3-.1-1-.2-1.6.9-1.7 1.9m3.5 0c-.1 1 .3 2.1 1.4 2.1.4 0 .4-.1.7-.3.3-.3.1-.7.3-1.1.3-.7.7-.9 1.1-1.7.1-.3-.1-.8-.5-.8-.5 0-.7 0-1.3-.1-1-.2-1.7.9-1.7 1.9m-57.7 0c0 1 .3 2.1 1.4 2.1.4 0 .4-.1.7-.3.3-.3.1-.7.3-1.1.3-.7.7-.9 1.1-1.7.1-.3-.2-.8-.5-.8-.5 0-.7 0-1.3-.1-1-.2-1.6.9-1.7 1.9m3.5 0c0 1 .3 2.1 1.4 2.1.4 0 .4-.1.7-.3.3-.3.1-.7.3-1.1.3-.7.7-.9 1.1-1.7.1-.3-.2-.8-.5-.8-.5 0-.7 0-1.3-.1-1.1-.2-1.7.9-1.7 1.9m-38-13.7c0 1 .3 2.1 1.4 2.1.4 0 .4-.1.7-.4.3-.3.1-.7.3-1.1.3-.8.7-.9 1.1-1.8.1-.3-.2-.8-.5-.8-.5 0-.7 0-1.3-.1-1 0-1.7 1.1-1.7 2.1m3.4 0c0 1 .3 2.1 1.4 2.1.4 0 .4-.1.7-.4.3-.3.1-.7.3-1.1.3-.8.7-.9 1.1-1.8.1-.3-.2-.8-.5-.8-.5 0-.7 0-1.3-.1-1 0-1.6 1.1-1.7 2.1" style="fill:#fff" transform="translate(324.664 99.144) scale(.68578)"/><path d="M184.7 400.5c.1-.5.2-.9.4-1.3.3-.5.4-.8.8-1.2 0 0-.9 0-1.4-.1-.4.3-.6.6-.6 1.1.1.6.2 1.3.8 1.5m3.5 0c.1-.5.2-.9.4-1.3.2-.5.4-.8.8-1.2 0 0-.8 0-1.4-.1-.4.3-.6.6-.6 1.1 0 .6.1 1.3.8 1.5m31.1 13.7c.1-.5.2-.8.4-1.3s.4-.8.8-1.2c0 0-.9 0-1.4-.1-.4.3-.6.6-.6 1.2 0 .5.1 1.2.8 1.4m3.4 0c.1-.5.2-.8.4-1.3s.4-.8.8-1.2c0 0-.8 0-1.3-.1-.4.3-.6.6-.6 1.2-.1.5.1 1.2.7 1.4m50.8 0c.1-.5.2-.8.4-1.3.3-.5.4-.8.8-1.2 0 0-.8 0-1.4-.1-.4.3-.6.6-.6 1.2 0 .5.2 1.2.8 1.4m3.4 0c.1-.5.2-.8.4-1.3.3-.5.4-.8.8-1.2 0 0-.8 0-1.4-.1-.4.3-.6.6-.6 1.2.1.5.2 1.2.8 1.4m43 0c.1-.5.2-.8.4-1.3.3-.5.4-.8.8-1.2 0 0-.8 0-1.3-.1-.4.3-.6.6-.6 1.2-.1.5 0 1.2.7 1.4m3.4 0c.1-.5.2-.8.4-1.3.3-.5.4-.8.8-1.2 0 0-.8 0-1.4-.1-.4.3-.6.6-.6 1.2 0 .5.2 1.2.8 1.4" style="fill:#fff;fill-rule:evenodd" transform="translate(324.664 99.144) scale(.68578)"/><path d="M192.6 341.9c-.6 1-.8 1.8-.7 3 .1 1.6.8 2.6 2 3.5v-1.3h.9c.6-.1.9-.1 1.5-.3-.9-.5-1.4-.9-2-1.7-.9-1-1.3-1.8-1.7-3.2" style="fill:#fff" transform="translate(324.664 99.144) scale(.68578)"/><path d="M192.7 343.8c.2.5.4.8.7 1.3.4.6.8.9 1.4 1.3-.3.1-.5.1-.9 0-.3 0-.5 0-.8-.1-.1-.3-.2-.4-.3-.7-.1-.7-.2-1.1-.1-1.8" style="fill:#fff" transform="translate(324.664 99.144) scale(.68578)"/><path d="M256.6 510.2c-99.2 0-179.7-80.4-179.7-179.6V75.3h359.3v255.3c.1 99.2-80.4 179.6-179.6 179.6m0-2.8c-97.7 0-176.8-79.2-176.8-176.8V78.2h353.6v252.4c0 97.7-79.2 176.8-176.8 176.8z" style="fill-rule:evenodd" transform="translate(324.664 99.144) scale(.68578)"/></svg>