<svg xmlns="http://www.w3.org/2000/svg" width="1203.588" height="797.192" version="1"><path d="M1221.343 77.582v-451.027" fill="none"/><path d="M.205.2h1203.178v796.792H.205V.2z" fill="#2b5df2" stroke="#000" stroke-width=".4"/><path d="M1338.254 1182.554z" fill="none" stroke="#000" stroke-width=".983"/><g transform="matrix(.84197 0 0 .84197 649.582 798.058)" stroke="#000" stroke-width="1.271" fill="#fcef3c" fill-rule="evenodd"><path d="M-57.634-705.179c27.544 29.773 43.74 46.192 46.57 92.388 2.618 42.75-25.83 78.491-31.962 119.841-1.163 7.843-2.161 23.852-1.11 30.345.778 4.808 3.17 19.498 5.784 1.322.538-3.738.923-22.494 2.571-32.017 3.003-17.353 12.62-47.866 29.303-64.77 16.677-16.899 43.103-27.86 66.67-19.02 21.352 9.852 23.37 37.676 17.295 58.022-7.609 25.48-36.686 43.117-62.754 44.845 5.165-10.215 17.529-39.37 4.12-38.213-15.523 1.34-34.09 27.748-38.923 45.864-1.82 6.823-1.085 17.415-10.832 16.978 6.427 21.716 24.57 36.085 40.464 51.244-16.57 1.377-32.96-6.42-47.417-13.848.611 14.888-2.28 46.34-19.779 63.514-16.243-17.685-17.721-39.253-18.026-63.514-14.456 7.428-30.848 15.225-47.416 13.848 15.894-15.159 34.036-29.528 40.463-51.244-9.747.437-10.333-9.494-12.154-16.317-4.834-18.116-22.078-45.186-37.6-46.525-13.41-1.158-1.046 27.998 4.12 38.213-26.069-1.728-55.146-19.364-62.755-44.845-6.076-20.346-4.057-48.17 17.295-58.022 23.567-8.84 49.993 2.121 66.67 19.02 16.684 16.904 26.3 47.417 29.303 64.77 1.648 9.523 1.372 26.957 1.91 30.695 2.613 18.176 5.667 4.808 6.446 0 1.05-6.493.052-22.502-1.11-30.345-6.132-41.35-31.889-78.544-31.962-119.841-.065-37.29 18.682-65.662 44.816-92.388z" stroke-width="1.188"/><rect transform="scale(-1 1)" ry="7.012" y="-474.154" x="-20.841" height="22" width="136" rx="7.012" stroke-linejoin="round"/></g><path d="M301.124 144.485h89.87l-20.368-54.662h209.567l-20.69 54.662h89.296l-22.16-54.662h208.366l-21.027 54.662h88.486L869.63 67.308H335.02l-33.897 77.177z" fill="#e20909" fill-rule="evenodd" stroke="#000" stroke-width=".582"/><path d="M.205 732.2l200.53-186 200.53 186 200.529-186 200.53 186 200.53-186 200.529 186v64.792H.205V732.2z" fill="#fff" stroke="#000" stroke-width=".4"/><g><path d="M798.376 1302.4z" fill="none" stroke="#000" stroke-width=".983"/></g></svg>