<svg xmlns="http://www.w3.org/2000/svg" height="432.28" width="681.8" version="1"><path fill="#fff" d="M0 0h681.8v432.28H0z"/><path d="M204.892 351.103c5.63-11.04 10.979-14.722 12.95-21.799 1.97-7.078 6.474-11.608 14.356-18.119 14.075-12.457 28.907-19.234 43.07-8.776 8.076 5.962 2.534 19.534 12.387 24.347 9.852 4.813 16.046 26.046 14.92 33.69-12.668-10.475-25.054-14.155-37.44-5.096-9.572 6.511-19.706 8.776-30.403 1.132s-30.121-5.379-29.84-5.379z" font-size="12" fill="#00d700" fill-rule="evenodd" stroke="#000" stroke-width="2.104"/><path d="M371.262 134.808c-3.378 21.234 4.504 40.202 13.794 36.805 1.689 7.644 8.726 13.872 14.356 13.306-.844 7.927 9.009 24.347 17.172 23.498 4.223 11.324 11.26 28.31 21.957 18.968 3.097 13.023 9.853 27.745 20.269 24.63 4.786-1.415-3.378-171.28-2.534-168.45l-85.014 51.244z" font-size="12" fill="red" fill-rule="evenodd" stroke="#000" stroke-width="2.104"/><path d="M418.603 241.395c-17.811-5.262-18.346-12.594-22.85-21.654-4.504-9.06-4.639-21.919-18.017-28.31-10.61-5.07-11.59-12.057-12.716-18.852-1.126-6.794 5.96-36.638 5.96-36.638s-3.366.332-4.3-1.132c4.642-.664 16.288 4.472 20.065-1.133 2.581 3.203 6.358 3.535 9.008 1.133 2.252 4.003 12.125 3.534 13.512-1.133 5.369 2.94 15.173-2.528 13.512-6.795 7.894 2.14 14.047-4.392 12.387-10.191 11.078-.195 11.203-8.991 6.756-13.59 4.31-.594 6.836-5.261 3.378-9.06 4.504-3.396 7.882 3.398 7.882 9.06 0 5.663 4.97 106.85 4.97 117.041 0 10.193 3.061 28.015 6.29 34.774 6.7 14.025 11.988 16.049 20.473 15.385-6.643-11.473-6.892-23.45-8.018-32.509-1.127-9.059-5.77-130.596-6.415-130.573l-.008-.021c4.26 1.153 7.337-.006 9.633-1.703-4.095-.295-5.773-4.508-6.596-5.834-1.797-3.616-3.439-13.546-5.691-19.208-2.252-5.662-17.036-31.067-24.773-36.238-9.007-4.77-23.404-10.53-27.024-3.397-5.26 9.043 4.504 27.178 10.134 28.31 5.63 1.133-6.756-4.53-5.63 2.265 1.126 6.795 4.504 14.722 1.126 19.252-3.378 4.53-7.882 6.794-12.386 6.794s-6.756 0-9.008 3.397c-2.252 3.398-7.882 5.663-12.387 2.265-4.503-3.397-11.26-4.53-14.638-4.53s-11.192 1.34-11.59.138l.262-14.184c2.856 1.975 13.766-.35 18.174-5.497-7.169-.474-11.367-11.225-11.23-15.622 3.8.63 7.785-1.796 11.1-4.194-4.947-.152-11.02-6.56-12.713-14.081 4.254.263 5.359-2.4 8.497-4.668-5.181.328-14.505-6.782-16.876-13.24-3.378-3.398-26.16-4.124-32.917-4.124-6.756 0-5.63 1.865-5.63 5.262 0 3.397 2.252 1.132-5.63 5.662-11.664 3.128-12.59 15.71-6.557 20.252 2.252-2.265 2.892-4.4 4.766-6.657 1.589-1.694 5.115-.9 6.475.977 1.15 1.387 3.893 3.45 5.89 3.5 2.035-.154 3.968-1.452 6.652.516 12.33 5.668 4.846 21.842-10.47 21.047 2.998 6.812 8.309 9.011 17.866 5.545-1.336 3.872-5.436 10.356-7.874 12.448-16.898 9.558-28.281 29.934-20.99 58.28 4.504 7.927 13.94 31.75-1.388 39.235-15.696 6.67-16.697 15.923-20.666 25.783-4.582 10.345-16.26 27.42-25.416 26.139 6.87 11.674 33.036-6.018 37.074-13.419 3.64 8.214 3.491 20.498 13.774 22.98-6.132-15.041-.988-22.083 12.21-32.73 6.96 9.197-7.106 51.633-24.426 55.917 7.974 3.935 19.742-2.205 24.041-3.2-1.673 3.809-20.873 15.697-30.018 15.834 13.149 10.948 29.089-5.35 36.05-12.477-1.001 7.688-20.07 26.02-28.772 27.69.455 13.682 72.92 16.416 75.457 1.145-9.008-2.46-23.277-14.765-27.645-27.597 11.4 11.498 20.871 19.893 36.125 12.022-15.186-3.866-23.804-11.123-27.117-15.419 7.58 2.23 11.21 3.466 20.218 2.333-12.49-6.337-28.717-41.704-25.586-57.303 15.625 10.58 17.407 19.415 12.996 33.718 13.287.341 12.3-19.779 14.893-26.31 8.167 15.089 22.895 27.396 36.362 17.124z" font-size="12" fill="red" fill-rule="evenodd" stroke="#000" stroke-width="2.104"/><path d="M336.125 57.486c-8.758-.8-17.517.4-22.294 2.803-4.777 2.402-14.93 3.403-21.697 1 4.38 7.608 13.138 9.61 23.09 5.206 5.468-2.53 13.337-5.405 16.72-4.605 8.958 1.802 5.575-4.003 4.181-4.404zM307.923 136.224c4.786 14.155 2.252 34.54-10.979 35.955-2.533 6.228-8.163 10.475-14.92 12.457-2.815 12.74-10.134 25.196-16.608 21.516-3.097 13.023-15.764 32.557-21.676 19.817-2.815 17.836-18.298 30.293-24.491 22.932-5.067-5.945 6.193-152.878 6.193-152.878l82.481 40.201z" font-size="12" fill="red" fill-rule="evenodd" stroke="#000" stroke-width="2.104"/><path d="M321.588 98.49c-10.351-1.6-21.458.567-25.439 3.77-3.98 3.203-13.769 4.473-16.157 1.27-2.389-3.203-5.574-4.805-9.555-5.606-15.241-4.198-13.495-29.305-7.166-32.03 10.257-3.955 13.55-24.134-.845-24.208-15.13-.361-26.041 1.035-32.411 7.441-6.37 6.406-13.417 17.133-15.313 29.58-1.667 10.937-7.423 24.863-15.08 31.091 4.408 1.644 7.847.592 9.273.332-2.952 6.956-.031 135.771-11.71 155.952-2.389 8.008 14.332 6.406 19.905-6.406 5.574-12.812 12.74-154.545 13.536-161.752.796-7.206 3.273 2.128 7.166 5-2.019 8.816 1.584 14.187 7.166 15.36-.33 7.683 7.914 9.042 11.943 7.667-.474 5.136 5.292 7.215 11.147 5.605 3.04 6.034 12.282 7.07 14.662 3.486 4.07 4.91 9.137 1.181 10.817-1.885 4.214 4.296 14.842 7.678 14.429.842-1.362-9.93 6.546-30.979 13.632-35.508zM247.118 124.9c.281 16.986-.281 96.257-3.94 103.051M265.416 206.152c2.252-13.306.563-74.74.563-74.74M282.306 184.919c1.126-11.325.845-49.544.845-49.544M297.226 171.896c.844-10.475-.844-36.238-.844-36.238M384.774 171.613c-3.378-8.777 0-36.521 0-36.521M399.412 184.919c-3.94-8.777-1.126-48.129-1.126-48.129M416.584 208.417c-3.941-13.59 0-74.74 0-74.74M438.541 226.535c-4.503-13.872-4.14-104.728-4.14-104.728" font-size="12" fill="red" fill-rule="evenodd" stroke="#000" stroke-width="2.104"/><path d="M246.273 306.655c0 3.642-2.422 7.226-4.53 9.99-.338.444 1.006-.484 1.522-.694 2.307-.94 4.644-1.688 6.898-2.968.945-.537 1.297-.35 1.806-1.326" font-size="12" fill="none" stroke="#000" stroke-width="2.104"/><path d="M269.638 317.13c3.525.887 6.935 3.419 8.772 6.566M236.165 182.039c1.388-19.546 1.109-59.965-.038-65.345M444.149 112.573c-.348 17.102-2.184 58.646 2.327 71.909M398.584 243.118c9.717 15.008 14.923 26.875 17.7 34.902 2.776 8.028 9.023 12.216 18.046 14.66 7.865 1.825 12.37 8.569 9.827 14.01-18.685-12.862-40.227-10.823-46.267 1.346-3.818-7.329 1.388-10.819 5.9-13.611 4.511-2.793 9.37-4.538 4.511-12.216-4.858-7.679-23.595-30.517-28.107-36.45-2.618-2.984.307-13.365 1.695-18.95 4.538 6.921 16.695 16.658 16.695 16.31zM303.146 245.561c-12.147 11.169-26.723 32.11-28.805 36.299-2.083 4.188-2.43 7.678 1.388 10.82 3.817 3.14 10.94 10.494 8.169 15.02-17.269-15.196-28.645-13.275-45.65-1.408-3.47-4.887-.695-11.17 5.9-13.961 6.559-2.31 12.146-.699 17.699-8.377 5.553-7.679 16.658-37.346 20.476-41.534 5.9-3.141 12.84-9.773 17.352-11.518 2.43 4.189 4.165 14.659 3.47 14.31v.349zM322.437 23.011c-4.326-1.804-5.994-5.32-3.978-7.832 10.647-3.022 36.05-4.162 42.297 1.771 5.866 2.614 2.226 6.802-2.134 9.27-8.676-2.443-32.224-3.686-33.265-3.337l-2.92.128z" font-size="12" fill="red" fill-rule="evenodd" stroke="#000" stroke-width="2.104"/><path d="M152.702 15.379a2.233 2.233 0 1 1-4.467 0 2.233 2.233 0 1 1 4.467 0z" transform="matrix(1.88794 0 0 1.8987 31.84 -18.446)" fill="red" fill-rule="evenodd" stroke="#000" stroke-width=".625"/><path d="M152.702 15.379a2.233 2.233 0 1 1-4.467 0 2.233 2.233 0 1 1 4.467 0z" transform="matrix(1.88794 0 0 1.8987 82.449 -14.841)" fill="red" fill-rule="evenodd" stroke="#000" stroke-width=".625"/><path d="M152.702 15.379a2.233 2.233 0 1 1-4.467 0 2.233 2.233 0 1 1 4.467 0z" transform="matrix(1.88794 0 0 1.8987 74.571 -19.274)" fill="red" fill-rule="evenodd" stroke="#000" stroke-width=".625"/><path d="M152.702 15.379a2.233 2.233 0 1 1-4.467 0 2.233 2.233 0 1 1 4.467 0z" transform="matrix(1.88794 0 0 1.8987 66.346 -21.787)" fill="red" fill-rule="evenodd" stroke="#000" stroke-width=".625"/><path d="M152.702 15.379a2.233 2.233 0 1 1-4.467 0 2.233 2.233 0 1 1 4.467 0z" transform="matrix(1.88794 0 0 1.8987 57.73 -22.53)" fill="red" fill-rule="evenodd" stroke="#000" stroke-width=".625"/><path d="M152.702 15.379a2.233 2.233 0 1 1-4.467 0 2.233 2.233 0 1 1 4.467 0z" transform="matrix(1.88794 0 0 1.8987 49.193 -22.282)" fill="red" fill-rule="evenodd" stroke="#000" stroke-width=".625"/><path d="M152.702 15.379a2.233 2.233 0 1 1-4.467 0 2.233 2.233 0 1 1 4.467 0z" transform="matrix(1.88794 0 0 1.8987 40.725 -21.274)" fill="red" fill-rule="evenodd" stroke="#000" stroke-width=".625"/><path d="M320.845 31.958c3.124 9.773 13.188 5.933 14.23.698 1.04-2.792-8.677-.698-14.23-.698z" fill-rule="evenodd"/><path d="M323.687 357.049c5.912-7.078 23.647-9.91 31.529-3.681 7.882 6.228 11.26 8.493 18.016 9.06 1.97-10.476 12.105-22.083 11.824-25.48-8.727-11.041-9.009-17.27-14.357-20.384-4.3-2.276-8.427-2.737-10.416-11.89-5.33-24.537-39.129-11.042-40.255-4.247-1.321 6.111-1.408 9.909-9.853 17.553s-13.512 14.155-10.134 23.498c3.378 9.342-1.126 22.648 10.416 22.365 7.882-1.698 13.23-6.794 13.23-6.794z" font-size="12" fill="#00d700" fill-rule="evenodd" stroke="#000" stroke-width="2.104"/><path d="M464.159 347.423c-.845-12.457-7.026-24.144-16.047-26.33-5.932-1.675-7.319-10.474-11.822-16.137-4.505-5.662-29.558-8.493-32.655-1.698-3.097 6.794-3.66 10.192-7.32 13.59-3.659 3.397-5.348 7.643-9.57 20.666-18.017 25.197-15.887 31.379 0 18.685 4.663-3.726 29.276-6.228 33.78-1.132 5.912 7.644 20.268 11.324 26.462 3.68 3.941-3.68 12.105-6.795 17.172-11.324z" font-size="12" fill="#00d700" fill-rule="evenodd" stroke="#000" stroke-width="2.104"/><path d="M427.844 330.153c-.555 4.64-6.565 9.393-10.535 11.178-.34.154-.687.294-1.03.441M444.172 327.605c1.961 3.945 2.636 5.483 5.833 8.962 3.33 3.624 7.001 7.503 11.142 10.114.4.252.637.21 1.107.173M321.717 316.847c2.14 2.87 8.885 9.236 2.832 11.808-2.448 1.04-4.176 1.773-6.88 1.781M332.414 338.93c2.255 4.535 6.466 7.032 10.167 10.207M227.694 346.007c3.333 0 13.878-5.899 17.357-7.445.007-.003-.47.588-1.734 2.143-3.374 4.154-4.403 9.274-6.925 13.849" font-size="12" fill="none" stroke="#000" stroke-width="2.104"/><g stroke="#0000d7" font-size="12" stroke-linecap="square" fill="none"><g stroke-width="7.75"><path d="M36.471 198.048c5.742-6.328 11.445-6.289 17.93-.039M72.428 197.927c-5.781 6.25-11.562 6.328-18.047.078" transform="matrix(1.72398 0 0 1.65096 15.461 63.248)"/></g><g stroke-width="7.75"><path d="M36.471 198.048c5.742-6.328 11.445-6.289 17.93-.039M72.428 197.927c-5.781 6.25-11.562 6.328-18.047.078" transform="matrix(1.72398 0 0 1.65096 77.41 63.083)"/></g><g stroke-width="7.75"><path d="M36.471 198.048c5.742-6.328 11.445-6.289 17.93-.039M72.428 197.927c-5.781 6.25-11.562 6.328-18.047.078" transform="matrix(1.72398 0 0 1.65096 139.29 62.85)"/></g><g stroke-width="7.75"><path d="M36.471 198.048c5.742-6.328 11.445-6.289 17.93-.039M72.428 197.927c-5.781 6.25-11.562 6.328-18.047.078" transform="matrix(1.72398 0 0 1.65096 201.173 62.617)"/></g><g stroke-width="7.75"><path d="M36.471 198.048c5.742-6.328 11.445-6.289 17.93-.039M72.428 197.927c-5.781 6.25-11.562 6.328-18.047.078" transform="matrix(1.72398 0 0 1.65096 263.054 62.384)"/></g><g stroke-width="7.75"><path d="M36.471 198.048c5.742-6.328 11.445-6.289 17.93-.039M72.428 197.927c-5.781 6.25-11.562 6.328-18.047.078" transform="matrix(1.72398 0 0 1.65096 324.936 62.15)"/></g><g stroke-width="7.75"><path d="M36.471 198.048c5.742-6.328 11.445-6.289 17.93-.039M72.428 197.927c-5.781 6.25-11.562 6.328-18.047.078" transform="matrix(1.72398 0 0 1.65096 386.818 61.918)"/></g><g stroke-width="7.75"><path d="M36.471 198.048c5.742-6.328 11.445-6.289 17.93-.039M72.428 197.927c-5.781 6.25-11.562 6.328-18.047.078" transform="matrix(1.72398 0 0 1.65096 448.7 61.685)"/></g><g stroke-width="7.75"><path d="M36.471 198.048c5.742-6.328 11.445-6.289 17.93-.039M72.428 197.927c-5.781 6.25-11.562 6.328-18.047.078" transform="matrix(1.72398 0 0 1.65096 510.581 61.451)"/></g><path d="M36.471 198.048c5.742-6.328 11.445-6.289 17.93-.039" transform="matrix(1.72398 0 0 1.65096 572.463 61.218)" stroke-width="7.75"/><path d="M322.099 199.426c-2.098.015-4.257-1.192-6.54-3.638" stroke-width="5.753" transform="matrix(2.09771 0 0 2.10966 .52 -27.236)"/><g stroke-width="7.747"><path d="M36.471 198.048c5.742-6.328 11.445-6.289 17.93-.039M72.428 197.927c-5.781 6.25-11.562 6.328-18.047.078" transform="matrix(-1.72398 0 0 1.65096 171.916 63.31)"/></g><path d="M22.234 197.874c-4.72-4.952-9.406-4.922-14.736-.03M3.078 200.8c1.989.196 5.773-4.152 6.358-4.328" stroke-width="6.213" transform="matrix(2.09771 0 0 2.10966 .52 -27.236)"/></g><g stroke="#0000d7" font-size="12" stroke-linecap="square" fill="none"><g stroke-width="7.75"><path d="M36.471 198.048c5.742-6.328 11.445-6.289 17.93-.039M72.428 197.927c-5.781 6.25-11.562 6.328-18.047.078" transform="matrix(1.72398 0 0 1.65096 15.461 90.87)"/></g><g stroke-width="7.75"><path d="M36.471 198.048c5.742-6.328 11.445-6.289 17.93-.039M72.428 197.927c-5.781 6.25-11.562 6.328-18.047.078" transform="matrix(1.72398 0 0 1.65096 77.41 90.706)"/></g><g stroke-width="7.75"><path d="M36.471 198.048c5.742-6.328 11.445-6.289 17.93-.039M72.428 197.927c-5.781 6.25-11.562 6.328-18.047.078" transform="matrix(1.72398 0 0 1.65096 139.29 90.473)"/></g><g stroke-width="7.75"><path d="M36.471 198.048c5.742-6.328 11.445-6.289 17.93-.039M72.428 197.927c-5.781 6.25-11.562 6.328-18.047.078" transform="matrix(1.72398 0 0 1.65096 201.173 90.24)"/></g><g stroke-width="7.75"><path d="M36.471 198.048c5.742-6.328 11.445-6.289 17.93-.039M72.428 197.927c-5.781 6.25-11.562 6.328-18.047.078" transform="matrix(1.72398 0 0 1.65096 263.054 90.007)"/></g><g stroke-width="7.75"><path d="M36.471 198.048c5.742-6.328 11.445-6.289 17.93-.039M72.428 197.927c-5.781 6.25-11.562 6.328-18.047.078" transform="matrix(1.72398 0 0 1.65096 324.936 89.773)"/></g><g stroke-width="7.75"><path d="M36.471 198.048c5.742-6.328 11.445-6.289 17.93-.039M72.428 197.927c-5.781 6.25-11.562 6.328-18.047.078" transform="matrix(1.72398 0 0 1.65096 386.818 89.54)"/></g><g stroke-width="7.75"><path d="M36.471 198.048c5.742-6.328 11.445-6.289 17.93-.039M72.428 197.927c-5.781 6.25-11.562 6.328-18.047.078" transform="matrix(1.72398 0 0 1.65096 448.7 89.307)"/></g><g stroke-width="7.75"><path d="M36.471 198.048c5.742-6.328 11.445-6.289 17.93-.039M72.428 197.927c-5.781 6.25-11.562 6.328-18.047.078" transform="matrix(1.72398 0 0 1.65096 510.581 89.074)"/></g><path d="M36.471 198.048c5.742-6.328 11.445-6.289 17.93-.039" transform="matrix(1.72398 0 0 1.65096 572.463 88.84)" stroke-width="7.75"/><path d="M322.099 199.426c-2.098.015-4.257-1.192-6.54-3.638" stroke-width="5.753" transform="matrix(2.09771 0 0 2.10966 .52 .386)"/><g stroke-width="7.747"><path d="M36.471 198.048c5.742-6.328 11.445-6.289 17.93-.039M72.428 197.927c-5.781 6.25-11.562 6.328-18.047.078" transform="matrix(-1.72398 0 0 1.65096 171.916 90.932)"/></g><path d="M22.234 197.874c-4.72-4.952-9.406-4.922-14.736-.03M3.078 200.8c1.989.196 5.773-4.152 6.358-4.328" stroke-width="6.213" transform="matrix(2.09771 0 0 2.10966 .52 .386)"/></g><g stroke="#0000d7" font-size="12" stroke-linecap="square" fill="none"><g stroke-width="7.75"><path d="M36.471 198.048c5.742-6.328 11.445-6.289 17.93-.039M72.428 197.927c-5.781 6.25-11.562 6.328-18.047.078" transform="matrix(1.72398 0 0 1.65096 15.461 35.492)"/></g><g stroke-width="7.75"><path d="M36.471 198.048c5.742-6.328 11.445-6.289 17.93-.039M72.428 197.927c-5.781 6.25-11.562 6.328-18.047.078" transform="matrix(1.72398 0 0 1.65096 77.41 35.328)"/></g><g stroke-width="7.75"><path d="M36.471 198.048c5.742-6.328 11.445-6.289 17.93-.039M72.428 197.927c-5.781 6.25-11.562 6.328-18.047.078" transform="matrix(1.72398 0 0 1.65096 139.29 35.094)"/></g><g stroke-width="7.75"><path d="M36.471 198.048c5.742-6.328 11.445-6.289 17.93-.039M72.428 197.927c-5.781 6.25-11.562 6.328-18.047.078" transform="matrix(1.72398 0 0 1.65096 201.173 34.861)"/></g><g stroke-width="7.75"><path d="M36.471 198.048c5.742-6.328 11.445-6.289 17.93-.039M72.428 197.927c-5.781 6.25-11.562 6.328-18.047.078" transform="matrix(1.72398 0 0 1.65096 263.054 34.628)"/></g><g stroke-width="7.75"><path d="M36.471 198.048c5.742-6.328 11.445-6.289 17.93-.039M72.428 197.927c-5.781 6.25-11.562 6.328-18.047.078" transform="matrix(1.72398 0 0 1.65096 324.936 34.395)"/></g><g stroke-width="7.75"><path d="M36.471 198.048c5.742-6.328 11.445-6.289 17.93-.039M72.428 197.927c-5.781 6.25-11.562 6.328-18.047.078" transform="matrix(1.72398 0 0 1.65096 386.818 34.162)"/></g><g stroke-width="7.75"><path d="M36.471 198.048c5.742-6.328 11.445-6.289 17.93-.039M72.428 197.927c-5.781 6.25-11.562 6.328-18.047.078" transform="matrix(1.72398 0 0 1.65096 448.7 33.929)"/></g><g stroke-width="7.75"><path d="M36.471 198.048c5.742-6.328 11.445-6.289 17.93-.039M72.428 197.927c-5.781 6.25-11.562 6.328-18.047.078" transform="matrix(1.72398 0 0 1.65096 510.581 33.696)"/></g><path d="M36.471 198.048c5.742-6.328 11.445-6.289 17.93-.039" transform="matrix(1.72398 0 0 1.65096 572.463 33.462)" stroke-width="7.75"/><path d="M322.099 199.426c-2.098.015-4.257-1.192-6.54-3.638" stroke-width="5.753" transform="matrix(2.09771 0 0 2.10966 .52 -54.992)"/><g stroke-width="7.747"><path d="M36.471 198.048c5.742-6.328 11.445-6.289 17.93-.039M72.428 197.927c-5.781 6.25-11.562 6.328-18.047.078" transform="matrix(-1.72398 0 0 1.65096 171.916 35.553)"/></g><path d="M22.234 197.874c-4.72-4.952-9.406-4.922-14.736-.03M3.078 200.8c1.989.196 5.773-4.152 6.358-4.328" stroke-width="6.213" transform="matrix(2.09771 0 0 2.10966 .52 -54.992)"/></g><path d="M361.064 97.73c-3.677 1.849-11.15 8.13-9.218 6.626M423.996 126.738c0 6.23.657-.485-1.437 9.883M406.952 135.967c-2.688 5.407-1.395 1.082-1.321 10.81-.003-.345.008.692.01 1.038M390.072 135.885c-.082 4.048-.164 15.122.245 16.43M376.633 135.967c0 2.177-.328 11.688-.328 12.628M256.178 125.42c2.622 8.948 1.147 35.997-.102 42.35M274.533 135.967c1.765 5.324.317 11.722.165 17.31M288.955 137.121c1.148 3.627.164 9.232.164 14.343M302.066 137.286v10.854" font-size="12" fill="none" stroke="#000" stroke-width="2.104"/></svg>