<svg xmlns="http://www.w3.org/2000/svg" xmlns:xlink="http://www.w3.org/1999/xlink" width="1200" height="800" xmlns:cgf="https://coding.garden/flags"><metadata id="cgf-metadata">

<cgf:flag>
  <cgf:name></cgf:name>
  <cgf:route>fr/07</cgf:route>
  <cgf:aspect-ratio>1.5</cgf:aspect-ratio>
</cgf:flag>

</metadata><path fill="#2b5df2" d="M0 0h1200v800H0z"></path><g id="a" style="fill:#fcef3c;stroke:#000;stroke-opacity:1"><path d="M100.024 29.61c13.531 14.626 21.487 22.691 22.877 45.385 1.287 21.001-12.689 38.559-15.701 58.871-.571 3.853-1.061 11.718-.545 14.907.382 2.362 1.558 9.578 2.841.65.264-1.837.454-11.05 1.263-15.729 1.476-8.524 6.2-23.513 14.395-31.818 8.193-8.301 21.174-13.685 32.751-9.343 10.49 4.84 11.481 18.508 8.497 28.503-3.738 12.517-18.022 21.181-30.828 22.03 2.537-5.018 8.611-19.341 2.023-18.772-7.625.658-16.745 13.631-19.12 22.531-.894 3.351-.533 8.555-5.321 8.34 3.157 10.667 12.07 17.726 19.878 25.173-8.14.676-16.192-3.154-23.294-6.803.301 7.314-1.119 22.765-9.716 31.201-7.979-8.687-8.705-19.283-8.855-31.201-7.102 3.649-15.154 7.479-23.293 6.803 7.808-7.447 16.72-14.506 19.877-25.173-4.788.215-5.076-4.664-5.97-8.016-2.375-8.899-10.846-22.197-18.471-22.855-6.587-.569-.514 13.754 2.024 18.772-12.806-.849-27.09-9.513-30.828-22.03-2.985-9.995-1.993-23.663 8.496-28.503 11.577-4.342 24.559 1.042 32.751 9.343 8.196 8.305 12.92 23.294 14.395 31.818.81 4.679.674 13.243.938 15.079 1.284 8.929 2.784 2.362 3.167 0 .516-3.189.026-11.054-.546-14.907-3.012-20.312-15.665-38.584-15.701-58.871-.032-18.318 9.178-32.256 22.016-45.385Z" style="stroke:#000;stroke-opacity:1"></path><rect x="69.225" y="147.132" width="62.459" height="10.104" rx="3.22" style="stroke:#000;stroke-opacity:1"></rect></g><use xlink:href="#a" x="200" style="stroke:#000;stroke-opacity:1" width="100%" height="100%"></use><use xlink:href="#a" x="400" style="stroke:#000;stroke-opacity:1" width="100%" height="100%"></use><use xlink:href="#a" x="600" style="stroke:#000;stroke-opacity:1" width="100%" height="100%"></use><use xlink:href="#a" x="800" style="stroke:#000;stroke-opacity:1" width="100%" height="100%"></use><use xlink:href="#a" x="1000" style="stroke:#000;stroke-opacity:1" width="100%" height="100%"></use><g transform="translate(100 140)" style="fill:#fcef3c;stroke:#000;stroke-opacity:1"><path style="stroke:#000;stroke-opacity:1" d="M100.024 29.61c13.531 14.626 21.487 22.691 22.877 45.385 1.287 21.001-12.689 38.559-15.701 58.871-.571 3.853-1.061 11.718-.545 14.907.382 2.362 1.558 9.578 2.841.65.264-1.837.454-11.05 1.263-15.729 1.476-8.524 6.2-23.513 14.395-31.818 8.193-8.301 21.174-13.685 32.751-9.343 10.49 4.84 11.481 18.508 8.497 28.503-3.738 12.517-18.022 21.181-30.828 22.03 2.537-5.018 8.611-19.341 2.023-18.772-7.625.658-16.745 13.631-19.12 22.531-.894 3.351-.533 8.555-5.321 8.34 3.157 10.667 12.07 17.726 19.878 25.173-8.14.676-16.192-3.154-23.294-6.803.301 7.314-1.119 22.765-9.716 31.201-7.979-8.687-8.705-19.283-8.855-31.201-7.102 3.649-15.154 7.479-23.293 6.803 7.808-7.447 16.72-14.506 19.877-25.173-4.788.215-5.076-4.664-5.97-8.016-2.375-8.899-10.846-22.197-18.471-22.855-6.587-.569-.514 13.754 2.024 18.772-12.806-.849-27.09-9.513-30.828-22.03-2.985-9.995-1.993-23.663 8.496-28.503 11.577-4.342 24.559 1.042 32.751 9.343 8.196 8.305 12.92 23.294 14.395 31.818.81 4.679.674 13.243.938 15.079 1.284 8.929 2.784 2.362 3.167 0 .516-3.189.026-11.054-.546-14.907-3.012-20.312-15.665-38.584-15.701-58.871-.032-18.318 9.178-32.256 22.016-45.385Z"></path><rect style="stroke:#000;stroke-opacity:1" rx="3.22" height="10.104" width="62.459" y="147.132" x="69.225"></rect></g><use transform="translate(100 140)" height="100%" width="100%" style="stroke:#000;stroke-opacity:1" x="200" xlink:href="#a"></use><use transform="translate(100 140)" height="100%" width="100%" style="stroke:#000;stroke-opacity:1" x="400" xlink:href="#a"></use><use transform="translate(100 140)" height="100%" width="100%" style="stroke:#000;stroke-opacity:1" x="600" xlink:href="#a"></use><use transform="translate(100 140)" height="100%" width="100%" style="stroke:#000;stroke-opacity:1" x="800" xlink:href="#a"></use><g transform="translate(0 280)" style="fill:#fcef3c;stroke:#000;stroke-opacity:1"><path style="stroke:#000;stroke-opacity:1" d="M100.024 29.61c13.531 14.626 21.487 22.691 22.877 45.385 1.287 21.001-12.689 38.559-15.701 58.871-.571 3.853-1.061 11.718-.545 14.907.382 2.362 1.558 9.578 2.841.65.264-1.837.454-11.05 1.263-15.729 1.476-8.524 6.2-23.513 14.395-31.818 8.193-8.301 21.174-13.685 32.751-9.343 10.49 4.84 11.481 18.508 8.497 28.503-3.738 12.517-18.022 21.181-30.828 22.03 2.537-5.018 8.611-19.341 2.023-18.772-7.625.658-16.745 13.631-19.12 22.531-.894 3.351-.533 8.555-5.321 8.34 3.157 10.667 12.07 17.726 19.878 25.173-8.14.676-16.192-3.154-23.294-6.803.301 7.314-1.119 22.765-9.716 31.201-7.979-8.687-8.705-19.283-8.855-31.201-7.102 3.649-15.154 7.479-23.293 6.803 7.808-7.447 16.72-14.506 19.877-25.173-4.788.215-5.076-4.664-5.97-8.016-2.375-8.899-10.846-22.197-18.471-22.855-6.587-.569-.514 13.754 2.024 18.772-12.806-.849-27.09-9.513-30.828-22.03-2.985-9.995-1.993-23.663 8.496-28.503 11.577-4.342 24.559 1.042 32.751 9.343 8.196 8.305 12.92 23.294 14.395 31.818.81 4.679.674 13.243.938 15.079 1.284 8.929 2.784 2.362 3.167 0 .516-3.189.026-11.054-.546-14.907-3.012-20.312-15.665-38.584-15.701-58.871-.032-18.318 9.178-32.256 22.016-45.385Z"></path><rect style="stroke:#000;stroke-opacity:1" rx="3.22" height="10.104" width="62.459" y="147.132" x="69.225"></rect></g><use transform="translate(0 280)" height="100%" width="100%" style="stroke:#000;stroke-opacity:1" x="200" xlink:href="#a"></use><use transform="translate(0 280)" height="100%" width="100%" style="stroke:#000;stroke-opacity:1" x="400" xlink:href="#a"></use><use transform="translate(0 280)" height="100%" width="100%" style="stroke:#000;stroke-opacity:1" x="600" xlink:href="#a"></use><use transform="translate(0 280)" height="100%" width="100%" style="stroke:#000;stroke-opacity:1" x="800" xlink:href="#a"></use><use transform="translate(0 280)" height="100%" width="100%" style="stroke:#000;stroke-opacity:1" x="1000" xlink:href="#a"></use><g transform="translate(100 420)" style="fill:#fcef3c;stroke:#000;stroke-opacity:1"><path style="stroke:#000;stroke-opacity:1" d="M100.024 29.61c13.531 14.626 21.487 22.691 22.877 45.385 1.287 21.001-12.689 38.559-15.701 58.871-.571 3.853-1.061 11.718-.545 14.907.382 2.362 1.558 9.578 2.841.65.264-1.837.454-11.05 1.263-15.729 1.476-8.524 6.2-23.513 14.395-31.818 8.193-8.301 21.174-13.685 32.751-9.343 10.49 4.84 11.481 18.508 8.497 28.503-3.738 12.517-18.022 21.181-30.828 22.03 2.537-5.018 8.611-19.341 2.023-18.772-7.625.658-16.745 13.631-19.12 22.531-.894 3.351-.533 8.555-5.321 8.34 3.157 10.667 12.07 17.726 19.878 25.173-8.14.676-16.192-3.154-23.294-6.803.301 7.314-1.119 22.765-9.716 31.201-7.979-8.687-8.705-19.283-8.855-31.201-7.102 3.649-15.154 7.479-23.293 6.803 7.808-7.447 16.72-14.506 19.877-25.173-4.788.215-5.076-4.664-5.97-8.016-2.375-8.899-10.846-22.197-18.471-22.855-6.587-.569-.514 13.754 2.024 18.772-12.806-.849-27.09-9.513-30.828-22.03-2.985-9.995-1.993-23.663 8.496-28.503 11.577-4.342 24.559 1.042 32.751 9.343 8.196 8.305 12.92 23.294 14.395 31.818.81 4.679.674 13.243.938 15.079 1.284 8.929 2.784 2.362 3.167 0 .516-3.189.026-11.054-.546-14.907-3.012-20.312-15.665-38.584-15.701-58.871-.032-18.318 9.178-32.256 22.016-45.385Z"></path><rect style="stroke:#000;stroke-opacity:1" rx="3.22" height="10.104" width="62.459" y="147.132" x="69.225"></rect></g><use transform="translate(100 420)" height="100%" width="100%" style="stroke:#000;stroke-opacity:1" x="200" xlink:href="#a"></use><use transform="translate(100 420)" height="100%" width="100%" style="stroke:#000;stroke-opacity:1" x="400" xlink:href="#a"></use><use transform="translate(100 420)" height="100%" width="100%" style="stroke:#000;stroke-opacity:1" x="600" xlink:href="#a"></use><use transform="translate(100 420)" height="100%" width="100%" style="stroke:#000;stroke-opacity:1" x="800" xlink:href="#a"></use><g transform="translate(0 560)" style="fill:#fcef3c;stroke:#000;stroke-opacity:1"><path style="stroke:#000;stroke-opacity:1" d="M100.024 29.61c13.531 14.626 21.487 22.691 22.877 45.385 1.287 21.001-12.689 38.559-15.701 58.871-.571 3.853-1.061 11.718-.545 14.907.382 2.362 1.558 9.578 2.841.65.264-1.837.454-11.05 1.263-15.729 1.476-8.524 6.2-23.513 14.395-31.818 8.193-8.301 21.174-13.685 32.751-9.343 10.49 4.84 11.481 18.508 8.497 28.503-3.738 12.517-18.022 21.181-30.828 22.03 2.537-5.018 8.611-19.341 2.023-18.772-7.625.658-16.745 13.631-19.12 22.531-.894 3.351-.533 8.555-5.321 8.34 3.157 10.667 12.07 17.726 19.878 25.173-8.14.676-16.192-3.154-23.294-6.803.301 7.314-1.119 22.765-9.716 31.201-7.979-8.687-8.705-19.283-8.855-31.201-7.102 3.649-15.154 7.479-23.293 6.803 7.808-7.447 16.72-14.506 19.877-25.173-4.788.215-5.076-4.664-5.97-8.016-2.375-8.899-10.846-22.197-18.471-22.855-6.587-.569-.514 13.754 2.024 18.772-12.806-.849-27.09-9.513-30.828-22.03-2.985-9.995-1.993-23.663 8.496-28.503 11.577-4.342 24.559 1.042 32.751 9.343 8.196 8.305 12.92 23.294 14.395 31.818.81 4.679.674 13.243.938 15.079 1.284 8.929 2.784 2.362 3.167 0 .516-3.189.026-11.054-.546-14.907-3.012-20.312-15.665-38.584-15.701-58.871-.032-18.318 9.178-32.256 22.016-45.385Z"></path><rect style="stroke:#000;stroke-opacity:1" rx="3.22" height="10.104" width="62.459" y="147.132" x="69.225"></rect></g><use transform="translate(0 560)" height="100%" width="100%" style="stroke:#000;stroke-opacity:1" x="200" xlink:href="#a"></use><use transform="translate(0 560)" height="100%" width="100%" style="stroke:#000;stroke-opacity:1" x="400" xlink:href="#a"></use><use transform="translate(0 560)" height="100%" width="100%" style="stroke:#000;stroke-opacity:1" x="600" xlink:href="#a"></use><use transform="translate(0 560)" height="100%" width="100%" style="stroke:#000;stroke-opacity:1" x="800" xlink:href="#a"></use><use transform="translate(0 560)" height="100%" width="100%" style="stroke:#000;stroke-opacity:1" x="1000" xlink:href="#a"></use><path d="M.5-.5v800h1200V-.5H.5zm99.816 100.027H1100.42v599.836H100.316V99.527z" style="opacity:1;fill:#fcef3c;fill-opacity:1;stroke:#000;stroke-width:1;stroke-miterlimit:4;stroke-dasharray:none;stroke-opacity:1"></path><use style="stroke:#000;stroke-opacity:1" x="-550" xlink:href="#b"></use><path style="stroke:#000;stroke-opacity:1" fill="#2b5df2" d="M560 6h80v34c-2 37-40 51.5-40 51.5S562 77 560 40z" id="b"></path><use style="stroke:#000;stroke-opacity:1" x="550" xlink:href="#b"></use><use style="stroke:#000;stroke-opacity:1" y="350" x="-550" xlink:href="#b"></use><use style="stroke:#000;stroke-opacity:1" y="350" x="550" xlink:href="#b"></use><use style="stroke:#000;stroke-opacity:1" y="700" x="-550" xlink:href="#b"></use><use style="stroke:#000;stroke-opacity:1" y="700" xlink:href="#b"></use><use style="stroke:#000;stroke-opacity:1" y="700" x="550" xlink:href="#b"></use></svg>