<svg xmlns="http://www.w3.org/2000/svg" width="1203.194" height="796.792" version="1.0"><g style="display:inline"><path style="fill:#2b5df2;fill-opacity:1;stroke:none;stroke-width:3;stroke-miterlimit:4;stroke-opacity:1" d="M-1127.278 136.214H75.9v796.792h-1203.178V136.214z" transform="translate(1127.278 -136.214)"/><path style="fill:#fff;fill-opacity:1;stroke:#000;stroke-width:.4;stroke-miterlimit:4;stroke-opacity:1;display:inline;stroke-dasharray:none" d="M0 49.469V178.75l997.406 618.031h205.782v-1.812L0 49.469z"/><path style="fill:#fcef3c;fill-opacity:1;stroke:#000;stroke-width:.4;stroke-miterlimit:4;stroke-opacity:1;display:inline;stroke-dasharray:none" d="M4.188 0 0 6.75V21l1.656-2.656L11.312 2.75 13 0H4.187zm11.937 0L18 1.156l36.125 22.375 4.5-7.25L32.344 0H16.125zm34.75 0 17.031 10.563 4.125 2.562-2.562 4.156-9.625 15.532-2.563 4.156-4.156-2.594-36.094-22.344-4.531 7.313 83.656 51.843 4.531-7.312-32.78-20.313L63.78 41l2.563-4.156 9.625-15.532 2.562-4.156 4.156 2.563L175 76.906l4.125 2.563-2.563 4.156-9.625 15.531-2.562 4.156-4.156-2.562-35.969-22.281-4.531 7.312 83.687 51.844 4.531-7.313L175.157 110l-4.126-2.563 2.563-4.156 9.094-14.719 2.593-4.124L189.406 87l91.938 56.969 4.156 2.562-2.563 4.156-9.125 14.72-2.562 4.124-4.156-2.562-35.813-22.188-4.531 7.313 84.625 52.437 4.531-7.312-33.781-20.938-4.156-2.562 2.562-4.156 9.656-15.532 2.563-4.156 4.125 2.563 92.875 57.53 4.125 2.595-2.563 4.125-9.625 15.562-2.562 4.125-4.156-2.563-36.125-22.375-4.531 7.313L418 270.594l4.531-7.313-32.75-20.312-4.156-2.563 2.563-4.125 9.625-15.562 2.562-4.125 4.156 2.562 92.281 57.188 4.157 2.562-2.594 4.125-9.625 15.563-2.563 4.125-4.125-2.563-35.968-22.281-4.531 7.313 83.656 51.843 4.531-7.312L497 309.406l-4.156-2.562 2.562-4.125L504.531 288l2.563-4.156 4.156 2.562 91.938 57 4.156 2.563-2.594 4.125-9.094 14.719-2.562 4.156-4.157-2.594-35.812-22.188-4.563 7.313 85.782 53.156 4.531-7.344-33.813-20.937-4.125-2.563 2.563-4.125 9.625-15.562 2.563-4.125 4.156 2.563 92.843 57.53 4.125 2.563-2.562 4.125-9.625 15.563-2.563 4.125-4.156-2.563-36.093-22.375-4.532 7.344 83.657 51.844 4.53-7.344-32.75-20.313-4.155-2.562 2.562-4.125 9.625-15.563 2.594-4.125 4.125 2.563 92.312 57.188 4.125 2.562-2.562 4.156-9.625 15.531-2.563 4.157L805 500.28l-35.969-22.312-4.531 7.344 83.688 51.843 4.53-7.312-32.78-20.313-4.125-2.562 2.562-4.156 9.125-14.72 2.563-4.124 4.125 2.562 91.968 56.969 4.125 2.563-2.562 4.156-9.125 14.718-2.563 4.125-4.125-2.562-35.843-22.188-4.532 7.313 84.625 52.438 4.532-7.313-33.782-20.938-4.125-2.562 2.563-4.156 9.625-15.563 2.562-4.125 4.157 2.563 92.843 57.531 4.125 2.563-2.562 4.156-9.625 15.531-2.563 4.156-4.156-2.562-36.094-22.375-4.562 7.312 83.687 51.844 4.563-7.313-32.782-20.312-4.156-2.563 2.563-4.156 9.656-15.531 2.563-4.156 4.124 2.562 92.282 57.188 4.156 2.562-2.563 4.157-9.656 15.53-2.562 4.157-4.125-2.563-35.969-22.28-4.563 7.312L1170 736.562l4.563-7.312-32.782-20.313-4.156-2.562 2.563-4.156 9.124-14.719 2.563-4.125 4.156 2.563 47.157 29.218v-14.375L72.217 0H50.876zM0 23.063V36.28l1203.188 745.532v-13.22l-19.094-11.843-4.157-2.563 2.594-4.156 9.657-15.593 2.562-4.125 4.125 2.562 4.313 2.656v-8.906l-48.157-29.844-3.968 6.438 32.75 20.312 4.156 2.563-2.563 4.156-9.687 15.594-2.563 4.125-4.125-2.563-91.968-56.968-4.157-2.563 2.563-4.156 9.687-15.594 2.563-4.156 4.125 2.562 36 22.313 4.5-7.282-84.032-52.03-4.5 7.25 32.782 20.312 4.156 2.562-2.563 4.157-9.687 15.593-2.563 4.125-4.124-2.562L969.842 624l-4.155-2.563 2.562-4.156 9.688-15.593 2.562-4.157 4.125 2.563 36.125 22.406 4.5-7.281-84.563-52.407-4.5 7.282 33.782 20.937 4.156 2.563-2.563 4.125-9.687 15.625-2.563 4.125-4.125-2.563-92.937-57.562-4.125-2.563 2.563-4.156 9.656-15.594 2.562-4.156 4.157 2.563 35.812 22.218 4-6.437-83.656-51.844-4 6.438L862 524.125l4.125 2.563-2.563 4.125-9.656 15.625-2.562 4.125-4.157-2.563-91.968-57-4.125-2.563 2.562-4.125 9.657-15.593 2.562-4.156 4.156 2.562L806 489.406l4.5-7.25-84.031-52.062-4.5 7.281 32.781 20.281 4.156 2.594-2.562 4.125-9.688 15.594-2.562 4.156-4.125-2.563L648 424.594 643.875 422l2.563-4.125 9.656-15.594 2.562-4.156 4.157 2.563 36.093 22.375 4.5-7.25-84.562-52.407-4.5 7.25 33.812 20.969 4.125 2.563-2.562 4.125-9.657 15.593-2.562 4.156-4.156-2.562-94.032-58.281-4.156-2.563 2.563-4.125 9.687-15.625 2.563-4.125 4.125 2.563 35.843 22.187 3.97-6.437-83.657-51.844-4 6.438L539.031 324l4.157 2.563-2.563 4.156-9.688 15.594-2.562 4.156-4.125-2.594-91.969-56.969-4.125-2.562 2.563-4.125 9.656-15.625 2.563-4.125 4.156 2.562 35.937 22.281 4.5-7.28-84-52.032-4.5 7.25 32.781 20.313 4.157 2.562-2.594 4.156-9.656 15.594-2.563 4.156-4.125-2.562-92-57-4.125-2.563 2.563-4.156 9.656-15.594 2.594-4.125 4.125 2.563 36.125 22.375 4.5-7.281-84.563-52.407-4.5 7.281 33.781 20.938 4.125 2.563-2.562 4.156-9.656 15.594-2.563 4.125-4.156-2.563-92.906-57.563-4.125-2.562 2.562-4.156 9.656-15.594 2.563-4.125 4.156 2.563 35.813 22.187 4-6.438-83.688-51.843-3.969 6.437 32.782 20.313 4.125 2.562-2.563 4.156-9.656 15.594-2.563 4.125-4.156-2.562L110.437 91.5l-4.156-2.563 2.594-4.156 9.656-15.594 2.563-4.156 4.156 2.563 35.969 22.312 4.5-7.281-84.031-52.063-4.5 7.282 32.78 20.312 4.126 2.563-2.563 4.125-9.656 15.625-2.563 4.125-4.156-2.563L3.22 25.062l-3.219-2zm0 168.843v13.25l13.625 8.438 4.156 2.562-2.562 4.156-9.656 15.594-2.594 4.156L0 238.22v10.031l45.594 28.25 4.5-7.25-35.969-22.313-4.156-2.562 2.562-4.125 9.656-15.594 2.594-4.156 4.125 2.563 91.969 57 4.156 2.562-2.562 4.125-9.688 15.625-2.562 4.125-4.125-2.563-32.781-20.312-4 6.438L153 341.906l3.969-6.437-35.813-22.188L117 310.72l2.563-4.156 9.687-15.594 2.563-4.156 4.125 2.562 92.906 57.594 4.156 2.56-2.563 4.125-9.656 15.625-2.594 4.125-4.125-2.562-33.78-20.938-4.532 7.25 84.594 52.406 4.5-7.25-36.125-22.375-4.125-2.562 2.562-4.156 9.656-15.594 2.563-4.156 4.156 2.562 91.969 57 4.125 2.563-2.563 4.156-9.656 15.594-2.562 4.125-4.156-2.563-32.782-20.312-4.5 7.281 84 52.031 4.5-7.25-35.937-22.281-4.156-2.563 2.562-4.156 9.688-15.594 2.562-4.125 4.125 2.563 91.969 56.969 4.125 2.562-2.563 4.156-9.656 15.594-2.563 4.125-4.156-2.562-32.781-20.313-3.969 6.438 83.656 51.844 4-6.438-35.843-22.188-4.125-2.562 2.562-4.156 9.656-15.594 2.563-4.125 4.156 2.563 94.031 58.25 4.157 2.562-2.563 4.156-9.687 15.594-2.563 4.156-4.125-2.562-33.812-20.938-4.5 7.25 84.562 52.407 4.5-7.282-36.093-22.375-4.157-2.562 2.563-4.125 9.687-15.625 2.563-4.125 4.125 2.562 91.968 56.969 4.125 2.563-2.562 4.156-9.656 15.593-2.563 4.157-4.156-2.594-32.781-20.281-4.5 7.25 84.031 52.062 4.5-7.25-35.969-22.312-4.156-2.563 2.563-4.125L667 624.156l2.563-4.125 4.125 2.563 91.968 56.968 4.157 2.594-2.563 4.125-9.688 15.594-2.562 4.156-4.125-2.562-32.781-20.313-4 6.438 83.687 51.843L801.75 735l-35.813-22.188-4.156-2.593 2.594-4.125 9.656-15.594 2.563-4.156 4.125 2.562 92.937 57.563 4.125 2.593-2.562 4.125-9.657 15.594-2.562 4.157-4.156-2.563-33.782-20.938-4.5 7.25 64.688 40.094h16.219L873.5 779.438l-4.125-2.563 2.563-4.125 9.656-15.594 2.562-4.156 4.157 2.563 66.5 41.218h21.343L0 191.906zm0 24.688v9.812l4.375-7.094L0 216.595zm27.906 17.312-4.531 7.344 35.969 22.281 4.156 2.563-2.563 4.125-9.624 15.562-2.594 4.125-4.125-2.562L0 259.719v13.25L845.406 796.78h21.344l-55.469-34.375-4.156-2.562 2.594-4.125 9.625-15.563 2.562-4.156 4.125 2.594 33.813 20.937 4.531-7.343-84.625-52.438-4.531 7.344 35.812 22.187 4.157 2.563-2.594 4.156-9.094 14.688-2.563 4.156-4.156-2.563-91.937-56.968-4.157-2.563 2.563-4.156 9.125-14.719 2.563-4.125 4.156 2.563 32.75 20.312 4.562-7.344-83.687-51.843-4.563 7.312 36 22.313 4.125 2.562-2.562 4.125-9.625 15.563-2.563 4.125-4.156-2.563-92.313-57.188-4.125-2.562 2.563-4.156 9.625-15.532 2.563-4.156 4.156 2.563 32.781 20.312 4.531-7.312L565.5 567l-4.563 7.313 36.125 22.375 4.125 2.562-2.562 4.156L589 618.938l-2.563 4.156-4.156-2.563L489.438 563l-4.125-2.563 2.562-4.156 9.625-15.531 2.563-4.156 4.156 2.562L538 560.094l4.531-7.313-85.75-53.125-4.531 7.313 35.813 22.187 4.156 2.594-2.563 4.125-9.125 14.719-2.562 4.125-4.156-2.563-91.938-56.968-4.156-2.563 2.594-4.156 9.093-14.688 2.563-4.156 4.156 2.563 32.781 20.312 4.531-7.313-83.656-51.843-4.562 7.312 35.969 22.281 4.156 2.563-2.594 4.156-9.625 15.531-2.563 4.157-4.125-2.563-92.312-57.187L270 427.03l2.563-4.156 9.625-15.531 2.562-4.156 4.156 2.562 32.781 20.313 4.532-7.313-83.688-51.875-4.531 7.344 36.125 22.375 4.125 2.562-2.563 4.156-9.625 15.532L263.5 423l-4.156-2.563-92.844-57.562-4.156-2.563 2.562-4.125 9.656-15.562 2.563-4.125 4.125 2.563L215.063 360l4.53-7.313-84.624-52.437-4.563 7.313 35.844 22.187 4.125 2.563-2.563 4.156-9.093 14.719-2.594 4.125L152 352.75l-91.969-56.969-4.125-2.562 2.563-4.156 9.125-14.72 2.562-4.124 4.125 2.562 32.781 20.313 4.532-7.313-83.688-51.875zm1170 509.813-4.531 7.312 9.813 6.094V747l-5.282-3.281zm-310.593 22.687-4.532 7.344 36.125 22.375 1.063.656h16.343l-49-30.375z"/><path style="fill:#fcef3c;fill-opacity:1;stroke:#000;stroke-width:.4;stroke-miterlimit:4;stroke-opacity:1;display:inline;stroke-dasharray:none" d="M0 0v308.813c17.034 15.745 31.797 31.735 63.844 32.718 63.386 1.944 63.855-65.962 138.594-63.969 74.738 1.994 80.042 62.025 138.593 63.97 58.551 1.944 67.982-63.916 138.594-63.97 70.612-.053 67.378 63.97 138.594 63.97s63.504-65.899 138.593-63.97c75.09 1.93 67.645 66.061 138.594 63.97 70.95-2.092 61.825-65.054 138.594-63.97 76.77 1.085 71.375 67.258 138.594 63.97 12.42-.608 22.26-3.23 30.593-7.063V0H0z"/></g><path d="M799.593 1303.665z" style="fill:none;fill-rule:evenodd;stroke:#000;stroke-width:.98280448px;stroke-linecap:butt;stroke-linejoin:miter;stroke-opacity:1"/></svg>