<svg xmlns="http://www.w3.org/2000/svg" width="1203.266" height="796.916" version="1"><defs><linearGradient id="b"><stop offset="0" stop-color="#fff" stop-opacity=".314"/><stop offset=".19" stop-color="#fff" stop-opacity=".251"/><stop offset=".6" stop-color="#6b6b6b" stop-opacity=".125"/><stop offset="1" stop-opacity=".125"/></linearGradient><linearGradient id="a"><stop offset="0" stop-color="#fd0000"/><stop offset=".5" stop-color="#e77275" stop-opacity=".659"/><stop offset="1" stop-opacity=".323"/></linearGradient><linearGradient id="c"><stop offset="0" stop-color="#fff"/><stop offset="1" stop-color="#fff"/></linearGradient></defs><g stroke="#000"><path d="M.088.06h1203.178v796.792H.088V.061z" fill="#e20909"/><g fill="#fcef3c" stroke-width=".632" fill-rule="evenodd"><path d="M2201.485 500.703c-4.745 0-9.406.264-14.032.72-.287 12.979-10.92 23.437-23.968 23.437-5.11 0-9.835-1.64-13.72-4.375a187.865 187.865 0 0 0-6.812-7.188 141.993 141.993 0 0 0-15.875 8.438c1.812 1.692 3.58 3.419 5.313 5.187.935 1.118 1.952 2.146 3 3.156.068.066.119.154.187.22 22.38 24.155 37.657 54.948 42.5 89.124-38.334-5.43-72.438-23.99-97.656-50.969-3.13 5.082-5.986 10.366-8.469 15.844 2 1.999 4.038 3.968 6.125 5.875a23.892 23.892 0 0 1 5.407 15.156c0 13.07-10.492 23.685-23.5 23.938-.426 4.473-.626 9.01-.626 13.594 0 4.893.236 9.733.72 14.5 12.964.303 23.405 10.93 23.405 23.968 0 4.662-1.343 9.012-3.656 12.688-2.694 2.399-5.32 4.862-7.875 7.406a141.99 141.99 0 0 0 8.782 16.375c25.163-26.772 59.089-45.195 97.218-50.625-5.59 37.992-24.077 71.785-50.875 96.813a141.985 141.985 0 0 0 15.907 8.437 177.274 177.274 0 0 0 5.968-6.219c4.113-3.317 9.316-5.312 15-5.312 13.059 0 23.668 10.474 23.938 23.469 4.483.427 8.999.656 13.593.656 4.894 0 9.734-.267 14.5-.75h.032c.32-12.95 10.91-23.375 23.937-23.375 4.68 0 9.034 1.39 12.719 3.719a187.089 187.089 0 0 0 7.375 7.812 141.987 141.987 0 0 0 16.406-8.781c-26.566-24.969-44.913-58.578-50.5-96.344 37.756 5.59 71.382 23.91 96.344 50.469a141.994 141.994 0 0 0 8.75-16.406 183.929 183.929 0 0 0-7.156-6.782 23.831 23.831 0 0 1-4.344-13.718c0-13.038 10.441-23.635 23.406-23.938a143.705 143.705 0 0 0 0-28.094c-12.965-.303-23.406-10.93-23.406-23.968 0-5.125 1.624-9.86 4.375-13.75a185.175 185.175 0 0 0 7.125-6.75 141.993 141.993 0 0 0-8.438-15.907 163.024 163.024 0 0 1-5.437 5.563 40.991 40.991 0 0 0-3.156 2.969c-23.93 22.148-54.399 37.336-88.188 42.312 5.433-38.129 23.876-72.065 50.657-97.219a142.005 142.005 0 0 0-16.407-8.78 193.764 193.764 0 0 0-6.75 7.124c-3.91 2.775-8.693 4.437-13.843 4.438-13.049 0-23.652-10.458-23.938-23.438-4.626-.455-9.318-.719-14.063-.719zm0 14.407c5.485 14.653 19.219 25.259 35.53 26.25-18.59 27.816-29.794 60.966-30.718 96.687 35.72-.918 68.905-12.078 96.719-30.656 1.01 16.286 11.647 29.978 26.281 35.469-14.648 5.483-25.284 19.195-26.281 35.5-27.814-18.579-61-29.77-96.719-30.688.923 35.712 12.136 68.875 30.719 96.688-16.107 1.16-29.618 11.77-35.063 26.28-5.53-14.773-19.418-25.473-35.906-26.312 18.559-27.803 29.702-60.956 30.625-96.656-35.713.924-68.845 12.136-96.656 30.719-1.16-16.107-11.77-29.618-26.282-35.063 14.781-5.532 25.483-19.439 26.313-35.937 27.804 18.568 60.927 29.733 96.625 30.656-.924-35.723-12.075-68.872-30.656-96.687 16.294-1.003 29.976-11.611 35.468-26.25z" transform="matrix(1.4092 0 0 1.40922 -2500.68 -507.474)"/><g stroke-width=".795"><path transform="matrix(1.09249 0 0 1.14853 -965.496 -244.146)" d="M1455 387.862a20.5 19.5 0 1 1-41 0 20.5 19.5 0 1 1 41 0z"/><path transform="matrix(.94612 -.54625 .57426 .99465 -1076.833 625.543)" d="M1455 387.862a20.5 19.5 0 1 1-41 0 20.5 19.5 0 1 1 41 0z"/><path transform="matrix(-.94612 -.54625 .57426 -.99465 1637.59 1738.563)" d="M1455 387.862a20.5 19.5 0 1 1-41 0 20.5 19.5 0 1 1 41 0z"/><path transform="matrix(-1.09249 0 0 -1.14853 2168.85 1041.06)" d="M1455 387.862a20.5 19.5 0 1 1-41 0 20.5 19.5 0 1 1 41 0z"/><path transform="matrix(-.94612 .54625 -.57426 -.99465 2280.185 171.369)" d="M1455 387.862a20.5 19.5 0 1 1-41 0 20.5 19.5 0 1 1 41 0z"/><path d="M1455 387.862a20.5 19.5 0 1 1-41 0 20.5 19.5 0 1 1 41 0z" transform="matrix(-.54625 .94613 -.99464 -.57426 1941.768 -637.473)"/><path d="M1455 387.862a20.5 19.5 0 1 1-41 0 20.5 19.5 0 1 1 41 0z" transform="matrix(0 1.0925 -1.14851 0 1244.275 -1168.74)"/><path d="M1455 387.862a20.5 19.5 0 1 1-41 0 20.5 19.5 0 1 1 41 0z" transform="matrix(.54624 .94613 -.99464 .57426 374.594 -1280.078)"/><path transform="matrix(.94612 .54625 -.57426 .99465 -434.237 -941.654)" d="M1455 387.862a20.5 19.5 0 1 1-41 0 20.5 19.5 0 1 1 41 0z"/><path d="M1455 387.862a20.5 19.5 0 1 1-41 0 20.5 19.5 0 1 1 41 0z" transform="matrix(.54624 -.94613 .99464 .57426 -738.413 1434.384)"/><path d="M1455 387.862a20.5 19.5 0 1 1-41 0 20.5 19.5 0 1 1 41 0z" transform="matrix(0 -1.0925 1.14851 0 -40.92 1965.649)"/><path d="M1455 387.862a20.5 19.5 0 1 1-41 0 20.5 19.5 0 1 1 41 0z" transform="matrix(-.54624 -.94613 .99464 -.57426 828.76 2076.986)"/></g></g></g><path d="M.457.526v796.78h1203.188V.527H.457zM89.27 88.483H173.087v32.433h77.817V88.483h77.817v32.433h77.817V88.483h77.818v32.433h77.817V88.483h77.817v32.433h77.817V88.483h77.817v32.433h77.818V88.483h77.817v32.433h77.817V88.483h83.818v73.431h-36.98v67.43h36.98v67.432h-36.98v67.43h36.98v67.431h-36.98v67.43h36.98v67.431h-36.98v67.431h36.98v73.431h-83.818v-34.083h-77.817v34.083h-77.817v-34.083h-77.818v34.083h-77.817v-34.083H639.99v34.083h-77.817v-34.083h-77.817v34.083h-77.818v-34.083h-77.817v34.083h-77.817v-34.083h-77.817v34.083H89.27v-73.431h36.944V566.5H89.27v-67.431h36.944v-67.431H89.27v-67.43h36.944v-67.431H89.27v-67.431h36.944v-67.43H89.27V88.482z" fill="#fff" stroke="#000" stroke-width=".5"/></svg>