<svg xmlns="http://www.w3.org/2000/svg" version="1.0" width="600" height="400" xmlns:cgf="https://coding.garden/flags"><metadata id="cgf-metadata">

<cgf:flag>
  <cgf:name></cgf:name>
  <cgf:route>fr/12</cgf:route>
  <cgf:aspect-ratio>1.5</cgf:aspect-ratio>
</cgf:flag>

</metadata><path style="opacity:1;fill:red;fill-opacity:1;fill-rule:evenodd;stroke:none;stroke-width:2.5;stroke-linecap:round;stroke-linejoin:miter;stroke-miterlimit:4;stroke-dasharray:none;stroke-dashoffset:0;stroke-opacity:1" d="M0 0h600v400H0z"></path><g style="fill:#ffdf00;fill-opacity:1;stroke:#000;stroke-width:3.33333325;stroke-miterlimit:4;stroke-dasharray:none"><g style="fill:#ffdf00;fill-opacity:1;stroke:#000;stroke-width:2.45098042;stroke-miterlimit:4;stroke-dasharray:none"><g style="fill:#ffdf00;fill-opacity:1;stroke:#000;stroke-width:2.62605691;stroke-miterlimit:4;stroke-dasharray:none"><g style="fill:#ffdf00;fill-opacity:1;stroke:#000;stroke-width:2.62605691;stroke-miterlimit:4;stroke-dasharray:none;stroke-opacity:1"><g style="fill:#ffdf00;fill-opacity:1;stroke:#000;stroke-width:2.62605691;stroke-miterlimit:4;stroke-dasharray:none"><path style="fill:#ffdf00;fill-opacity:1;fill-rule:evenodd;stroke:#000;stroke-width:2.62605691;stroke-linecap:butt;stroke-linejoin:miter;stroke-miterlimit:4;stroke-dasharray:none;stroke-opacity:1;display:inline" d="M55.658 45.278c.477-4.578 2.227-12.919-10.7-8.58 2.133-7.269 9.784-10.35 16.7-7.7 7.063 2.705 7.016 10.75 6.299 17.27l-12.299-.99zM81.19 51.02c3.101-6.294 1.367-12.709-3.915-14.328 4.61-3.78 11.624-3.582 14.715 1.265 2.65 4.158 2.638 11.678 1.356 16.385L81.19 51.02zM33.12 67.329c-1.92-6.146-1.733-11.716-13.081-7.448.896-5.657 5.63-8.24 10.824-8.31 5.797-.077 11.658 3.148 14.62 8.724l-12.362 7.034zm40.09 58.093c-2.308 3.656-17.217 12.683-24.569-.562 10.738 1.003 11.531-4.773 13.24-8.66l11.329 9.222z" transform="rotate(9.999 66.284 875.85) scale(.71082)"></path><path d="M88.358 142.654c.743 5.9 4.659 12.478.854 18.555-1.737 2.774-4.966 4.792-9.247 5.416-4.051.59-10.255-.884-13.654-.116-4.745 1.072-6.35 5.35-5.596 9.144 1.76-1.847 3.632-3.319 6.537-3.794 3.814-.625 8.813 2.294 15.946.523 6.826-1.694 12.027-7.023 13.952-13.816 1.962-6.923-.963-11.396 1.39-17.812 1.28 4.206 2.905 7.997 5.878 12.02 3.849 5.205 10.008 7.962 14.106 20.369 1.667 5.044 1.881 12.062-1.3 16.642 6.001 1.42 11.854-3.031 13.364-7.944 5.112 7.255 11.335 13.631 18.916 16.567 9.764 3.78 19.1 5.13 29.446 4.107l16.113-19.61 4.487-37.446c-5.866-.925-12.706-2.367-17.777-3.327-5.767-1.092-11.869-1.246-17.304-4.657-6.563-4.12-13.026-10.12-19.306-15.153-12.45-9.98-15.958-9.017-20.187-12.532-4.368-3.632-6.965-9.235-19.041-18.06-3.325-2.429-7.438-2.912-10.535-5.292-3.02-2.319-4.698-6.133-5.022-9.598-.916-9.767 4.375-12.554 5.125-17.879 1.11-7.88-6.831-12.196-13.716-9.202-5.07 2.206-.515 8.168-.557 10.743-.061 3.787-2.587 7.511-2.175 10.39-3.38-.761-4.883-5.639-5.448-10.474-.712-6.086-.786-14.36-7.265-17.077-5.023-2.107-12.43-.687-13.341 5.33-1.059 6.993 6.874 6.611 7.643 7.974.914 1.621 3.078 12.146 3.436 13.887-2.182-.555-4.148-1.595-6.778-2.7-7.093-2.983-8.037-9.152-14.333-8.69-5.8.425-12.386 5.73-9.289 11.372 3.726 6.785 11.863 3.888 13.814 4.239 2.217.398 18.529 5.603 22.202 29.375.497 3.215-8.523 4.577-8.25 11.629.273 7.01 5.379 11.692 11.815 10.177 4.816-1.134 7.246-4.978 7.918-8.464 2.815 7.893 7.914 12.802 8.646 15.676.532 2.088-1.904 6.037-1.467 9.508z" style="fill:#ffdf00;fill-opacity:1;fill-rule:evenodd;stroke:#000;stroke-width:2.62605691;stroke-linecap:butt;stroke-linejoin:miter;stroke-miterlimit:4;stroke-dasharray:none;stroke-opacity:1;display:inline" transform="rotate(9.999 66.284 875.85) scale(.71082)"></path></g><path d="M82.067 410.52c-6.286-4.805-15.157-7.737-19.27-3.314-.24-6.053 7.497-10.855 15.522-11.076 5.627-.154 11.262 1.76 14.26 4.77-2.218 2.22-6.785 5.134-10.512 9.62zm-12.153 22.45c-6.424-1.51-13.86-1.706-13.652 6.231-8.152-.925-8.125-11.554.64-16.044 6.773-3.47 13.527-2.97 16.07-2.07l-3.058 11.883zm16.221 24.052c-7.23.86-16.77-.21-15.82 9.984-5.755.428-8.044-8.989-3.31-15.65 3.354-4.72 8.216-6.728 13.208-7.244l5.922 12.91zm43.022-4.951c5.33 3.869 9.62 9.566 6.99 14.853 4.909-.526 8.764-3.592 9.153-8.29.457-5.538-2.051-10.882-4.073-13.508l-12.07 6.945z" style="fill:#ffdf00;fill-opacity:1;fill-rule:evenodd;stroke:#000;stroke-width:2.62605691;stroke-linecap:butt;stroke-linejoin:miter;stroke-miterlimit:4;stroke-dasharray:none;stroke-opacity:1;display:inline" transform="translate(139.356 13.42) scale(.71082)"></path><path d="M188.729 292.802c-5.997 3.844-17.51 7.129-26.591 12.32-16.801 9.604-24.903 16.716-25.603 24.15-.071.758-2.255 8.287-12.02 15.242-5.84 4.16-13.47 7.36-21.842 6.852-5.567-.338-13.33-2.187-15.801-8.862-4.082-11.023 7.17-14.863 5.621-25.99-.7-5.033-5.367-6.853-6.864-6.326 2.139 2.242 3.25 5.338 2.663 8.439-1.002 5.297-5.368 8.512-7.706 14.504-2.255 5.778-2.248 14.803 5.506 20.52 7.253 5.347 19.86 7.46 31.842 3.92 11.946-3.53 16.274-8.625 20.257-13.24-.938 5.339.556 7.407-.58 11.424-2.144 7.59-8.304 11.519-15.364 14.31 8.598 5.306 17.47.901 20.89-4.898 3.22-5.459 5.024 10.457 2.292 20.444-1.831 6.692-5.438 12.385-10.523 16.277-11.388 8.719-21.061 9.362-31.821 6.518-6.204-1.64-3.942-8.037-12.89-9.111-3.998-.48-9.17 5.192-9.232 9.479-.098 6.838 17.797 8.21 19.42 9.943-4.099 2.783-10.392 4.082-15.977 3.814-2.057-.098-7.475-4.612-12.068-2.291-2.778 1.403-8.005 7.19-3.552 12.76 4.663 5.833 11.609.506 15.126-.645 2.864-.937 15.96-.274 21.597-1.382-2.107 3.51-7.341 6.66-12.741 8.141-6.426 1.762-10.517-.005-13.305 4.189-3.98 5.985 1.098 15.085 6.917 14.652 10.888-.8 9.55-12.444 21.224-14.344 4.904-.799 10.56-.753 14.029.046 4.88 1.124-1.37 5.635 3.994 8.669 6.366 3.6 16.393-3.153 16.513-6.02.217-5.145-3.481-5.499-5.811-7.668 7.356.575 13.379.307 18.501-2.719.051 3.622-1.832 6.189-1.25 9.978.554 3.616 3.187 5.027 5.99 4.693-.666-8.455 5.489-10.251 9.38-15.407 1.938-2.566 3.208-4.999 4.49-7.524.634 6.474 1.258 15.624 13.932 12.65-5.649-3.4-6.251-10.658-4.85-17.803.494-2.523 1.814-4.73 3.922-6.342 3.547-2.71 10.167 3.27 19.127-2.37-3.808-1.119-4.888-3.306-4.568-5.574.417-2.95 1.99-5.544 2.074-7.822.165-4.526-2.675-8.146-4.897-11.297-3.731-5.29-3.43-14.812-3.077-22.388.493-10.6 3.32-18.364 18.322-28.805 13.99-9.737 40.561-4.875 40.703-6.969 3.32-49.059-11.691-55.333-24.508-62.835-6.16-3.605-8.436-4.658-22.418 7.145-5.715 4.824-10.069 12.167-18.473 17.553z" style="fill:#ffdf00;fill-opacity:1;fill-rule:evenodd;stroke:#000;stroke-width:2.62605691;stroke-linecap:butt;stroke-linejoin:miter;stroke-miterlimit:4;stroke-dasharray:none;stroke-opacity:1;display:inline" transform="translate(139.356 13.42) scale(.71082)"></path><path d="M226.458 269.476c9.388 8.883 15.609 25.72 14.847 36.256-9.328 15.781-6.822 24.834 2.192 25.31 7.355.393 8.906-7.82 8.83-17.853-.068-8.951-1.171-16.414-4.767-24.174-4.907-10.588-13.016-15.55-21.102-19.54z" style="fill:#ffdf00;fill-opacity:1;fill-rule:evenodd;stroke:#000;stroke-width:2.62605691;stroke-linecap:butt;stroke-linejoin:miter;stroke-miterlimit:4;stroke-dasharray:none;stroke-opacity:1" transform="translate(139.356 13.42) scale(.71082)"></path><g style="fill:#ffdf00;fill-opacity:1;stroke:#000;stroke-width:2.62605691;stroke-miterlimit:4;stroke-dasharray:none"><g style="fill:#ffdf00;fill-opacity:1;stroke:#000;stroke-width:2.62605667;stroke-miterlimit:4;stroke-dasharray:none"><g style="fill:#ffdf00;fill-opacity:1;stroke:#000;stroke-width:2.62605691;stroke-miterlimit:4;stroke-dasharray:none"><path d="M-42.72 274.307c-11.834 4.513-14.617 3.654-21.048-2.43-1.376 4.801 2.038 13.07 10.137 15.454 5.103 1.502 11.974-.618 16.084-3.211l-5.174-9.813zm16.33-19.902c-1.316-1.983-3.175-3.24-6.04-3.21-5.512.058-9.871.144-7.29-6.1-5.27 2.052-11.97 7.505-5.324 15.56 3.528 4.275 8.396 5.097 13.18 4.913l5.475-11.163zm37.216 3.766c5.63-4.917 4.494-10.815-1.083-12.98 3.68-3.74 9.899-3.724 13.557.029 4.735 4.856 4.118 10.819 2.028 16.142l-14.502-3.19zm-50.173 39.642c-6.712 7.51-11.016 4.549-14.122 1.266-5.239 8.565 3.842 15.481 11.084 14.218 5.803-1.012 9.814-4.763 13.546-9.312l-10.508-6.172z" style="fill:#ffdf00;fill-opacity:1;fill-rule:evenodd;stroke:#000;stroke-width:2.62605691;stroke-linecap:butt;stroke-linejoin:miter;stroke-miterlimit:4;stroke-dasharray:none;stroke-opacity:1;display:inline" transform="scale(.71082 -.71082) rotate(40 1312.214 628.322)"></path><g style="fill:#ffdf00;fill-opacity:1;stroke:#000;stroke-width:2.62605691;stroke-miterlimit:4;stroke-dasharray:none"><g style="fill:#ffdf00;fill-opacity:1;stroke:#000;stroke-width:2.62605667;stroke-miterlimit:4;stroke-dasharray:none"><path d="M-103.766 615.042c-2.867 6.563-2.187 12.395-14.557 9.129 2.185 6.396 7.642 10.322 14.623 9.245 7.934-1.223 12.32-7.89 12.32-7.89l-12.386-10.484zm-2.426-24.522c-7 4.152-14.359 6.378-17.783 1.133-1.823 1.937-7.094 6.137.33 11.722 6.961 5.235 23.218.238 23.218.238l-5.765-13.093zM-69 569.008c1.08-5.83.23-8.84-9.624-11.766 4.455-5.055 12.123-5.965 17.89-2.41 3.993 2.462 6.959 6.83 7.325 10.775L-69 569.008zm-9.142 63.202c-.72 5.403-5.782 9.338-12.543 11.075 5.224 5.934 13.254 6.029 20.009 1.84 4.343-2.693 7.063-6.764 7.29-10.653l-14.756-2.263z" style="fill:#ffdf00;fill-opacity:1;fill-rule:evenodd;stroke:#000;stroke-width:2.62605667;stroke-linecap:butt;stroke-linejoin:miter;stroke-miterlimit:4;stroke-dasharray:none;stroke-opacity:1;display:inline" transform="scale(.71082 -.71082) rotate(30 1732.064 797.828)"></path><g style="fill:#ffdf00;fill-opacity:1;stroke:#000;stroke-width:2.62605667;stroke-miterlimit:4;stroke-dasharray:none"><path d="M133.036 400.278c6.031-2.961 15.953.091 19.903-16.755 4.417 3.097 7.185 8.685 4.302 14.514 9.303.716 20.38 5.907 26.053 14.441 6.854 10.31 18.767 21.367 29.453 19.762 5.67-.852 8.248-6.662 4.676-12.252-7.753-12.136-21.32-8.84-30.089-22.355-4.835-7.452-4.336-18.151 7.022-18.597-3.762 5.052-5.214 10.206-2.645 14.076 7.721 11.63 28.432 12.827 35.99 23.664 8.89 12.748 3.55 21.215-1.668 24.736-6.986 4.715-18.49 4.967-28.925-1.279 4.428 14.96 20.903 22.886 34.466 23.582 11.365.583 23.531-.115 32.37 4.826 9.965 5.572 14.701 16.832 12.08 25.077-3.043-4.921-11.238-11.507-24.855-11.167-16.53.414-31.092 3.416-51.804-9.776 16.196 34.961 59.594 28.395 80.34 30.653 25.747 2.802 35.04 34.4 31.47 41.347-2.25-4.914-6.09-12.433-16.508-18.127-12.05-6.586-25.97-4.967-43.87-5.042-17.803-.074-35.729-5.917-48-15.61 3.154 9.334 16.193 18.242 28.856 22.557 13.116 4.47 27.234 6.962 35.415 8.657 16.294 3.376 39.657 7.608 56.955 35.364 12.17 19.519 9.818 39.107-1.048 52.666-6.373 7.952-18.193 15.059-27.544 17.729-4.691 1.34-9.644 2.167-14.838 1.947-3.657-.154-7.857 3.453-4.761 8 3.647 5.357 11.967 1.369 16.443 7.537 3.692 5.09 1.925 11.76-1.297 16.337-.723-3.955-1.843-8.462-6.27-11.085-5.769-3.419-12.3.837-18.402-8.253-3.048-4.549-2.792-11.687 1.013-15.496.358-.621-1.33-.569-1.999-.885-8.74-4.139-14.589-12.726-17.51-19.299-4.879-10.976-3.258-16.663-8.513-26.427-1.638-3.043-6.408-11.793-13.202-15.573-8.376-4.66-13.766-5.379-19.277-5.282 5.848-3.677 13.086-5.798 18.573-6.508 10.143-1.312 22.88 5.159 28.026 11.245 3.426 4.052 5.538 8.435 7.201 12.919 3.345-3.618 10.376-7.703 17.17-7.116 6.977.603 13.81 6.392 13.522 14.843-4.832-5.774-10.448-5.765-17.096-2.48-6.327 3.127-9.172 9.688-6.053 16.705 4.598 10.341 16.956 12.97 28.616 6.8 15.447-8.174 17.652-23.978 8.813-38.273-8.86-14.329-22.1-21.217-37.238-24.374-13.005-2.713-26.358-4.956-40.61-9.098-11.116-3.23-33.597-10.667-45.032-30.533-8.474-14.721-10.7-29.145-9.825-43.708.875-14.562-.031-25.805-1.722-35.808-2.032-12.023-11.188-24.955-23.112-23.487-12.35 1.52-22.838 15.117-20.52 31.038 1.622 11.14 1.68 23.817 1.921 35.725.259 12.714-4.48 27.201-.728 42.009 3.326 13.127 11.297 26.048 15.762 32.343 12.233 17.25 15.957 37.725 1.725 53.171-14.232 15.446-31.472 18.927-45.826 15.726-14.553-3.246-22.753-13.821-37.987-18.62-14.605-4.6-32.192 1.378-46.457 1.554-14.19.176-27.691-3.128-40.885-4.353-3.571-.331-10.241-1.246-20.534 4.634-3.665 2.093-7.949 5.83-10.79 10.372-4.9 7.833-.776 10.524-4.985 14.518-5.49 5.21-14.795 3.218-17.577-2.084-3.32-6.318 4.545-7.46 7.383-9.395 4.2-2.864-.754-4.982 8.417-14.732-5.924 1.288-12.172 4.461-17.685 8.33-3.699 2.596-4.454 8.24-10.28 10.114-6.746 2.17-15.463-2.924-13.5-10.36 1.226-4.645 9.993-5.31 13.064-6.81 1.658-.81 8.597-7.341 14.62-10.722-2.957-.837-6.673-.813-10.663 1.057-4.802 2.25-6.915 4.444-10.678 5.125-9.389 1.698-14.973-11.096-5.774-16.021 4.381-2.347 9.03-2.793 12.258-1.597 4.353 1.611 11.488 4.046 21.437-2.41 9.79-6.355.073-9.435-.428-12.552-.875-5.427 11.14-9.537 16.843-7.178 3.27 1.352 4.092 4.798 3.482 7.215 4.58-3.061 9.008-5.394 13.479-6.934-.324-1.354-3.543-4.606-5.13-5.707 5.399-2.57 8.626-.27 13.711-.691 4.612-.381 11.114-1.529 19.453.452-1.743-3.14-5.184-5.59-7.43-9.692-2.353-4.302-.388-8.875 3.014-11.309 4.418 8.77 8.258 14.015 16.027 14.082 3.786.033 8.137-.705 11.823-1.303 5.927-.96 11.775-.16 16.212 1.66 1.252.513 8.533 2.34 8.91.538.009-2.83-.11-5.664 1.886-12.647 1.91-6.68 4.595-12.706 8.06-18.584 3.973-6.738 8.708-15.132 11.03-20.422 2.624-5.979 3.68-12.141 2.29-19.9-1.323-7.394-4.616-15.433-8.776-21.832-3.116-4.793-5.881-8.755-7.96-13.596-2.27-5.29.284-9.477-2.564-13.97-1.18-1.862-7.3-1.377-10.579-6.698-4.453-7.225-2.59-12.351-5.408-16.86-2.27-3.631-6.486-4.96-10.166-4.61.377-6.161 9.971-6.937 15.062-2.665.786-5.338-.466-12.32-4.561-18.727-5.896-8.405-15.056-9.953-28.587-8.842-9.22.757-27.588.03-34.015-9.989-2.793-4.36-3.782-8.38-2.854-12.572 1.726 4.589 4.804 8.604 10.124 11.34 12.474 6.414 27.322 2.071 40.64 2.622 12.436.514 20.391 5.759 25.439 13.708 3.966 6.24 6.942 17.298 8.233 19.565.616-5.37 1.382-9.462 3.296-13.807 2.344-5.323 6.21-10.167 9.05-14.734 3.39-5.45 5.41-11.63 7.302-17.219 1.539-4.549 3.333-10.38 3.44-15.418.026-1.209-1.144-5.945-3.577-10.04-1.418-2.386-4.709-7.867-7.495-11.604-3.543-4.754-8.61-9.37-14.73-12.066-3.716-1.638-7.978-2.114-12.365-1.381-5.673.947-7.404 4.989-10.923 6.749-5.697 2.848-12.22-2.744-11.484-8.543.627-4.934 6.599-4.062 10.459-4.136 3.55-.068 8.816-2.945 15.01-4-12.997-6.68-14.126-1.373-18.873-2.406-5.701-1.242-9.55-12.587-3.655-14.413 6.294-1.95 7.52 3.016 8.668 3.207 2.514.418 9.944.02 18.573 3.297 0 0-2.559-4.502-5.003-6.284-2.99-2.18-8.881.11-11.822-4.046-4.068-5.747 1.633-11.119 7.526-11.684 9.842-.945 7.828 10.165 12.135 11.884 4.535 1.81 4.484-2.774 19.177 3.873-.095-2.219 1.484-4.388 3.91-5.415 6.312-2.674 16.71 1.131 15.072 7.95-.903 3.762-9.903 5.546-6.826 6.482 5.424 1.65 12.724 8.083 15.023 10.068-.238-4.117-.477-9.065 5.66-11.573 1.085 11.602 7.373 7.416 11.48 13.89 1.172 1.846 1.674 4.547 1.586 6.602 4.471-6.988 16.597-15.884 21.74-4.236-9.538-1.128-12.164 4.044-14.982 9.399-1.938 3.68-3.58 8.753.04 14.385 3.866 6.021 7.054 2.012 11.608 8.53 1.488 2.128 2.56 5.218 1.23 7.328-2.046 3.248-6.902 3.378-3.352 8.058 1.882 2.482 12.354 3.06 17.32 3.091-2.298 1.6-7.107 4.062-11.233 4.955-3.482.754-9.928.497-14.27 3.707-2.684 1.985-4.595 7.41-5.97 13.082-1.883 7.767-2.164 16.45-.407 25.456 1.394 7.145 6.624 18.646 8.085 17.467 4.828-5.28 8.694-10.925 15.584-14.308z" style="fill:#ffdf00;fill-opacity:1;fill-rule:evenodd;stroke:#000;stroke-width:2.62605667;stroke-linecap:butt;stroke-linejoin:miter;stroke-miterlimit:4;stroke-dasharray:none;stroke-opacity:1;display:inline" transform="scale(.71082 -.71082) rotate(30 1732.064 797.828)"></path></g></g></g></g></g></g></g></g></g></g><g style="fill:#ff0;stroke:#000"><g style="fill:#ff0;stroke:#000"><g style="fill:#ff0;stroke:#000"><g style="fill:#ff0;fill-opacity:1;stroke:#000"><g style="fill:#ff0;fill-opacity:1;stroke:#000;stroke-width:1.47058821;stroke-miterlimit:4;stroke-dasharray:none"><g style="fill:#ff0;fill-opacity:1;stroke:#000;stroke-width:1.57563424;stroke-miterlimit:4;stroke-dasharray:none"><g style="fill:#ff0;fill-opacity:1;stroke:#000;stroke-width:1.57563424;stroke-miterlimit:4;stroke-dasharray:none;stroke-opacity:1"><path d="M308.444 111.446c-2.594-4.776-2.548-14.061-3.062-18.598-1.442-11.036-2.427-22.735-5.21-34.148-.743-3.051 7.866-16.06 4.7-21.45-4.176-7.115-12.28 3.732-13.775 2.677-6.085-4.29-15.787-9.165-26.062-11.349-10.275-2.183-21.121-1.677-28.425-.232-1.796.355-4.786-12.85-11.496-8.05-5.084 3.638-2.51 19.023-4.43 21.508-7.184 9.294-12.843 19.581-18.649 29.077-2.851 4.663-11.82 20.244-23.213 19.91.86 3.533 4.55 5.542 8.301 5.303-2.862 4.137-4.583 9.61-9.411 12.018-6.745 3.365-13.725 2.021-16.337-3.12-8.41 12.418-.732 22.027 12.474 22.918-6.47 2.444-9.287 9.214-14.53 11.981-4.183 2.207-13.153 1.894-16.676-1.998-9.898 10.54-4.462 23.142 3.74 27.82 5.848 3.335 13.25 4.951 19.092 3.975-1.619 4.393-4.862 8.837-11.121 11.857-8.987 4.336-18.887 4.204-26.347.597-1.07 11.852 5.61 23.728 18.004 28.604 9.63 3.79 20.56 3.785 29.254-.352-5.181 11.55-6.827 23.568-1.302 33.234 2.953 5.167 11.647 9.072 15.884 7.676 1.706-15.064 19.694-27.538 32.709-29.49-3.535 7.993-4.792 18.698.593 29.88 3.096 6.426 10.172 11.203 17.942 10.83-1.858-4.875-2.01-11.441 1.029-16.929 3.459-6.244 8.589-10.33 12.94-12.765 4.146-2.32 10.26-4.677 12.973-8.037 4.959-6.14 6.05-10.886 5.685-17.607 3.283 3.374 7.72 9.035 11.556 10.645 4.53 1.902 11.964 2.654 18.552-.926-10.076-10.57-16.187-20.918-10.856-36.977 9.729 6.977 23.775 2.345 29.047-6.24-11.487-3.988-22.313-12.942-20.421-27.368 5.288 3.483 14.577 2.17 17.707-3.102-9.3-3.87-16.236-8.73-12.905-20.597 5.326 1.197 12.421-1.782 13.35-6.475-4.09.814-8.71.077-11.304-4.7zm-78.888-85.881c1.522 2.418 2.55 4.744 3.363 7.59m65.753 7.1c-2.374 1.591-4.259 3.298-6.16 5.567" style="fill:#ffdf00;fill-opacity:1;fill-rule:evenodd;stroke:#000;stroke-width:2.62605691;stroke-linecap:round;stroke-linejoin:miter;stroke-miterlimit:4;stroke-dasharray:none;stroke-opacity:1;display:inline" transform="rotate(-12.001 266.111 -535.515) scale(.6895)"></path><path d="M239.804 178.272c-.826 7.382.782 16.378 6.262 21.457m-43.971-33.378c-5.672 8.717-16.17 18.264-26.51 25.091m38.648-120.048c-1.847 2.93-3.37 9.382-3.7 14.16m-5.902 38.198c-5.024 9.193-12.946 16.94-24.417 22.963m43.267-59.361c-.735 1.123-1.59 3.971-1.594 6.534m72.144-5.532c.495 3.427-.737 9.941-2.38 14.441m-15.555 54.493c.695 3.488 2.504 8.6 4.484 11.004m7.175-57.245c-4.363 6.567-11.963 11.668-15.715 20.027-6.515 14.515-16.542 23.998-24.303 29.996-1.178-1.952-1.887-2.027-3.74-3.834-1.75 3.54-5.197 4.81-8 7.95-1.282-4.009-3.915-6.57-4.074-10.517-2.427.898-3.105.678-4.975 1.982-4.65-8.636-9.954-21.378-10.002-37.288-.027-9.162-4.896-16.913-6.21-24.687m68.355 4.496c.214 1.325-.164 4.275-1.202 6.618" style="fill:#ffdf00;fill-opacity:1;fill-rule:evenodd;stroke:#000;stroke-width:2.62605691;stroke-linecap:round;stroke-linejoin:miter;stroke-miterlimit:4;stroke-dasharray:none;stroke-opacity:1;display:inline" transform="rotate(-12.001 266.111 -535.515) scale(.6895)"></path><path d="M241.079 141.284c1.403.298 2.374.844 3.539 1.462 1.165.617 2.236 1.294 3.254 1.874 1.684.962 3.814.507 5.386-.229 3.801-1.78 3.936-6.03 9.012-17.08 4.634-10.09 12.49-23.528 11.556-23.962-4.298-2-8.212 4.13-15.622 1.782-2.697-.855-6.006-2.894-8.704-3.468-2.697-.573-6.55-.056-9.36-.372-7.726-.869-8.808-8.06-13.548-7.982-1.029.017.681 15.49.811 26.591.142 12.16-1.463 16.097 1.286 19.269 1.136 1.311 2.898 2.593 4.827 2.4 1.166-.117 2.42-.299 3.735-.39 1.316-.09 2.425-.193 3.828.105z" style="fill:#000;fill-opacity:1;fill-rule:evenodd;stroke:#000;stroke-width:2.62605691;stroke-linecap:butt;stroke-linejoin:miter;stroke-miterlimit:4;stroke-dasharray:none;stroke-opacity:1;display:inline" transform="rotate(-12.001 266.111 -535.515) scale(.6895)"></path><path d="M241.686 138.429c1.527.324 3.035.322 4.09-.096 9.426-3.736 17.196-30.164 12.096-30.746-2.74-.312-5.993-1.007-9.269-1.703-3.276-.697-6.53-1.385-9.16-2.214-4.895-1.543-8.547 25.76-1.456 33.007.794.812 2.171 1.427 3.699 1.752z" style="fill:#ffdf00;fill-opacity:1;fill-rule:evenodd;stroke:none;stroke-width:1.57563424;stroke-linecap:butt;stroke-linejoin:miter;stroke-miterlimit:4;stroke-dasharray:none;stroke-opacity:1;display:inline" transform="rotate(-12.001 266.111 -535.515) scale(.6895)" stroke="none"></path><path style="fill:#ff0;fill-opacity:1;fill-rule:evenodd;stroke:#000;stroke-width:2.62605691;stroke-linecap:round;stroke-linejoin:miter;stroke-miterlimit:4;stroke-dasharray:none;stroke-opacity:1;display:inline" d="m247.647 110.384-1.747 8.22" transform="rotate(-12.001 266.111 -535.515) scale(.6895)"></path></g></g></g></g></g><g style="fill:#ff0;stroke:#000"><g style="fill:#ff0;fill-opacity:1;stroke:#000"><g style="fill:#ff0;fill-opacity:1;stroke:#000;stroke-width:1.47058821;stroke-miterlimit:4;stroke-dasharray:none"><g style="fill:#ff0;fill-opacity:1;stroke:#000;stroke-width:1.57563424;stroke-miterlimit:4;stroke-dasharray:none"><g style="fill:#ff0;fill-opacity:1;stroke:#000;stroke-width:1.57563424;stroke-miterlimit:4;stroke-dasharray:none;stroke-opacity:1"><path style="fill:#fff;fill-opacity:1;fill-rule:evenodd;stroke:none;stroke-width:1.57563424;stroke-linecap:butt;stroke-linejoin:miter;stroke-miterlimit:4;stroke-dasharray:none;stroke-opacity:1;display:inline" d="M232.039 127.123c1.018 4.348 2.409 9.485 3.164 14.256-.58.067-1.143.136-1.687.19-1.93.193-3.69-1.089-4.827-2.4.16-4.305 1.295-8.775 3.35-12.046zm5.181-26.546c-1.62 3.75-3.828 8.12-5.709 11.956-1.794-3.233-2.999-11.843-1.135-17.493 1.85 1.712 3.603 4.256 6.844 5.537zm17.877 31.447c-2.699 3.558-6.059 7.686-8.69 11.736.503.297.99.59 1.465.86 1.684.962 3.814.507 5.386-.229 1.605-3.997 2.386-8.543 1.84-12.367zm6.064-26.358c-.046 4.085.195 8.974.352 13.244 2.955-2.223 7.557-9.6 8.152-15.519-2.387.811-5.022 2.422-8.504 2.275z" transform="rotate(-12.001 266.111 -535.515) scale(.6895)" stroke="none"></path></g></g></g></g></g></g><g style="fill:#ff0;stroke:#000"><g style="fill:#ff0;stroke:#000"><g style="fill:#ff0;fill-opacity:1;stroke:#000"><g style="fill:#ff0;fill-opacity:1;stroke:#000;stroke-width:1.47058821;stroke-miterlimit:4;stroke-dasharray:none"><g style="fill:#ff0;fill-opacity:1;stroke:#000;stroke-width:1.57563424;stroke-miterlimit:4;stroke-dasharray:none"><g style="fill:#ff0;fill-opacity:1;stroke:#000;stroke-width:1.57563424;stroke-miterlimit:4;stroke-dasharray:none;stroke-opacity:1"><path d="M230.292 74.578c-2.689-1.547-3.65-3.743-5.73-5.605 3.347-.791 7.986-2.062 10.608-.39 1.905 1.214 1.768 3.362 4.061 5.874-1.34.716-6.425 1.567-8.939.12zm-7.44-17.151c-1.572 4.419 4.213 4.758 12.71 4.375 6.702-.302 7.49 8.042 11.043 11.35 1.641-8.017-2.682-13.346-9.698-13.251-4.345.059-11.559 3.089-14.054-2.474zm20.41 22.818c-2.01 5.041-9.322 9.414-2.983 13.72m37.786-9.233c3.086-.32 4.856-1.935 7.515-2.79-2.737-2.083-6.458-5.131-9.533-4.67-2.235.334-2.982 2.352-6.1 3.714.933 1.2 5.233 4.045 8.118 3.746zm13.772-12.642c-.36 4.676-5.784 2.633-13.39-1.172-6-3.002-10.113 4.3-14.705 5.877 1.761-7.992 7.88-11.102 14.25-8.162 3.945 1.821 9.303 7.524 13.845 3.457zm-27.925 12.544c-.216 5.423 4.686 12.392-2.856 13.746m-2.246-4.777c-2.611.267-4.628 3.164-8.112 2.424-3.483-.74-4.147-4.207-6.424-5.514" style="fill:#ffdf00;fill-opacity:1;fill-rule:evenodd;stroke:#000;stroke-width:2.62605691;stroke-linecap:round;stroke-linejoin:miter;stroke-miterlimit:4;stroke-dasharray:none;stroke-opacity:1;display:inline" transform="rotate(-12.001 266.111 -535.515) scale(.6895)"></path><path d="M241.079 141.284c1.403.298 2.374.844 3.539 1.462 1.165.617 2.236 1.294 3.254 1.874 1.684.962 3.814.507 5.386-.229 3.801-1.78 3.936-6.03 9.012-17.08 4.634-10.09 12.49-23.528 11.556-23.962-4.298-2-8.212 4.13-15.622 1.782-2.697-.855-6.006-2.894-8.704-3.468-2.697-.573-6.55-.056-9.36-.372-7.726-.869-8.808-8.06-13.548-7.982-1.029.017.681 15.49.811 26.591.142 12.16-1.463 16.097 1.286 19.269 1.136 1.311 2.898 2.593 4.827 2.4 1.166-.117 2.42-.299 3.735-.39 1.316-.09 2.425-.193 3.828.105z" style="fill:none;fill-opacity:1;fill-rule:evenodd;stroke:#000;stroke-width:2.62605691;stroke-linecap:butt;stroke-linejoin:miter;stroke-miterlimit:4;stroke-dasharray:none;stroke-opacity:1;display:inline" transform="rotate(-12.001 266.111 -535.515) scale(.6895)"></path></g></g></g></g></g><path transform="rotate(-12 3219.419 -5417.106) scale(.72426)" d="M-1089.453-926.952a1.208 1.208 0 1 1-2.416 0 1.208 1.208 0 1 1 2.416 0z" style="opacity:1;fill:#ff0;fill-opacity:1;fill-rule:evenodd;stroke:#000;stroke-width:3;stroke-linecap:round;stroke-linejoin:miter;stroke-miterlimit:4;stroke-dasharray:none;stroke-dashoffset:0;stroke-opacity:1"></path><path style="opacity:1;fill:#ff0;fill-opacity:1;fill-rule:evenodd;stroke:#000;stroke-width:3;stroke-linecap:round;stroke-linejoin:miter;stroke-miterlimit:4;stroke-dasharray:none;stroke-dashoffset:0;stroke-opacity:1" d="M-1089.453-926.952a1.208 1.208 0 1 1-2.416 0 1.208 1.208 0 1 1 2.416 0z" transform="scale(-.72426 .72426) rotate(-12 4030.901 -3538.525)"></path></g></g></svg>