<svg xmlns="http://www.w3.org/2000/svg" version="1" width="600" height="400"><defs><linearGradient id="a"><stop offset="0" stop-color="#fff" stop-opacity=".314"/><stop offset=".19" stop-color="#fff" stop-opacity=".251"/><stop offset=".6" stop-color="#6b6b6b" stop-opacity=".125"/><stop offset="1" stop-opacity=".125"/></linearGradient><linearGradient id="b"><stop offset="0" stop-color="#fd0000"/><stop offset=".5" stop-color="#e77275" stop-opacity=".659"/><stop offset="1" stop-opacity=".323"/></linearGradient><linearGradient id="e"><stop offset="0" stop-color="#fff"/><stop offset="1" stop-color="#908c8c"/></linearGradient><linearGradient id="d"><stop offset="0" stop-color="#8c86ff"/><stop offset="1" stop-color="#0018b9" stop-opacity=".978"/></linearGradient><radialGradient cx="244.555" cy="159.161" r="136.727" fx="244.555" fy="159.161" id="c" gradientUnits="userSpaceOnUse" gradientTransform="matrix(1 0 0 .7583 0 112.573)"><stop offset="0" stop-color="#ffe268"/><stop offset=".709" stop-color="#e9c034"/><stop offset="1" stop-color="#d49e00"/></radialGradient><linearGradient id="f"><stop offset="0" stop-color="#fff"/><stop offset="1" stop-color="#fff"/></linearGradient></defs><path fill="red" fill-rule="evenodd" d="M0 0h600v400H0z"/><g fill="#ffdf00" stroke="#000" stroke-width="3.333"><g stroke-width="2.451"><g stroke-width="2.626"><g fill-rule="evenodd"><path d="M186.47 40.359c.899-3.146 3.154-8.769-6.43-7.327 2.39-4.825 8.125-6.037 12.64-3.33 4.61 2.766 3.585 8.393 2.277 12.868l-8.487-2.211zM203.634 47.53c2.948-4.023 2.526-8.728-.971-10.514 3.693-2.076 8.579-1.072 10.144 2.702 1.342 3.238.405 8.5-1.073 11.638l-8.1-3.827zM167.972 53.013c-.587-4.54.233-8.415-8.238-6.828 1.325-3.85 4.958-5.074 8.602-4.481 4.068.661 7.773 3.642 9.158 7.911l-9.522 3.398zM188.865 98.628c-2.068 2.275-13.618 6.753-17.13-3.426 7.393 2.027 8.661-1.918 10.337-4.428l6.793 7.854z" stroke-width="1.86661332"/><path d="M197.342 112.56c-.209 4.222 1.72 9.31-1.693 13.095-1.558 1.728-4.068 2.741-7.142 2.65-2.909-.087-7.069-1.885-9.544-1.767-3.453.165-5.105 2.961-5.045 5.71 1.46-1.075 2.952-1.875 5.044-1.848 2.747.033 5.886 2.693 11.098 2.334 4.988-.343 9.286-3.432 11.472-7.95 2.228-4.604.733-8.096 3.172-12.297.377 3.103 1.046 5.957 2.631 9.14 2.051 4.119 6.023 6.809 7.36 16 .544 3.736-.172 8.676-2.963 11.49 4.024 1.735 8.671-.66 10.335-3.912 2.682 5.71 6.252 10.941 11.197 13.932 6.368 3.851 12.737 5.95 20.105 6.51l13.7-11.739 7.763-25.66c-3.992-1.371-8.602-3.224-12.033-4.522-3.903-1.476-8.155-2.338-11.538-5.396-4.086-3.694-7.87-8.692-11.645-12.99-7.484-8.524-10.058-8.283-12.584-11.265-2.61-3.082-3.736-7.325-11.1-14.993-2.028-2.11-4.848-2.957-6.722-5.005-1.828-1.996-2.531-4.873-2.331-7.339.565-6.95 4.612-8.248 5.795-11.883 1.75-5.38-3.277-9.38-8.466-8.134-3.822.918-1.369 5.654-1.716 7.451-.51 2.644-2.738 4.94-2.805 7.005-2.273-.95-2.722-4.55-2.521-8.004.253-4.349 1.223-10.15-2.977-12.852-3.257-2.095-8.617-2.015-9.998 2.085-1.604 4.765 3.996 5.477 4.366 6.525.44 1.248.656 8.883.692 10.146-1.459-.658-2.707-1.629-4.412-2.727-4.597-2.964-4.496-7.399-8.96-7.852-4.114-.419-9.379 2.481-7.907 6.814 1.77 5.21 7.825 4.186 9.147 4.672 1.503.553 12.28 6.21 11.916 23.304-.049 2.311-6.531 2.152-7.21 7.122-.675 4.941 2.321 8.849 7.014 8.582 3.511-.199 5.687-2.59 6.588-4.947.996 5.873 3.96 9.938 4.117 12.04.115 1.528-2.078 3.992-2.2 6.476z" stroke-width="1.86661332"/></g><path d="M197.69 305.226c-4.467-3.414-10.773-5.499-13.697-2.355-.17-4.303 5.33-7.716 11.034-7.873 4-.11 8.005 1.25 10.136 3.39-1.576 1.579-4.823 3.65-7.472 6.838zM189.052 321.185c-4.566-1.074-9.852-1.213-9.704 4.429-5.794-.658-5.776-8.213.455-11.405 4.814-2.466 9.616-2.11 11.423-1.471l-2.174 8.447zM200.583 338.281c-5.14.612-11.92-.148-11.246 7.097-4.09.304-5.718-6.389-2.353-11.124 2.384-3.355 5.84-4.783 9.39-5.15l4.209 9.177zM231.163 334.762c3.79 2.75 6.839 6.8 4.969 10.558 3.49-.374 6.23-2.553 6.506-5.893.325-3.936-1.458-7.735-2.895-9.602l-8.58 4.937z" fill-rule="evenodd" stroke-width="1.86661332"/><path d="M273.509 221.55c-4.263 2.732-12.447 5.067-18.902 8.757-11.943 6.828-17.701 11.882-18.199 17.167-.05.539-1.603 5.89-8.544 10.834-4.152 2.957-9.575 5.232-15.526 4.87-3.957-.24-9.475-1.554-11.232-6.299-2.901-7.835 5.097-10.564 3.996-18.474-.498-3.578-3.815-4.871-4.88-4.497 1.521 1.594 2.311 3.795 1.894 5.999-.713 3.765-3.816 6.05-5.478 10.31-1.602 4.107-1.598 10.523 3.914 14.586 5.155 3.8 14.116 5.303 22.634 2.786 8.492-2.51 11.568-6.13 14.399-9.41-.667 3.794.395 5.264-.412 8.12-1.524 5.394-5.903 8.187-10.922 10.172 6.112 3.771 12.419.64 14.85-3.482 2.288-3.88 3.571 7.433 1.629 14.532-1.302 4.756-3.865 8.803-7.48 11.57-8.095 6.197-14.97 6.655-22.62 4.633-4.409-1.166-2.8-5.713-9.16-6.476-2.843-.342-6.52 3.69-6.564 6.737-.07 4.861 12.65 5.836 13.804 7.069-2.913 1.978-7.387 2.9-11.356 2.71-1.462-.07-5.314-3.278-8.579-1.628-1.974.997-5.69 5.111-2.525 9.07 3.315 4.146 8.252.36 10.753-.459 2.035-.666 11.344-.194 15.351-.982-1.498 2.495-5.218 4.735-9.057 5.787-4.567 1.253-7.475-.004-9.457 2.978-2.829 4.254.78 10.723 4.917 10.415 7.74-.569 6.788-8.846 15.086-10.197 3.486-.567 7.507-.535 9.972.033 3.47.8-.973 4.006 2.84 6.162 4.524 2.56 11.652-2.24 11.737-4.279.154-3.657-2.474-3.909-4.13-5.45 5.228.408 9.51.218 13.15-1.933.037 2.574-1.302 4.399-.889 7.092.395 2.571 2.266 3.574 4.259 3.337-.473-6.01 3.901-7.288 6.668-10.952 1.377-1.824 2.28-3.553 3.19-5.348.452 4.601.895 11.105 9.904 8.992-4.015-2.418-4.444-7.576-3.448-12.655.352-1.794 1.29-3.362 2.789-4.508 2.52-1.927 7.227 2.323 13.596-1.685-2.708-.795-3.475-2.35-3.247-3.962.296-2.097 1.414-3.94 1.474-5.56.117-3.217-1.902-5.79-3.482-8.03-2.651-3.76-2.437-10.53-2.187-15.914.351-7.535 2.36-13.054 13.024-20.476 9.945-6.921 28.832-3.465 28.932-4.953 2.36-34.872-8.31-39.332-17.42-44.664-4.378-2.563-5.997-3.312-15.935 5.078-4.063 3.43-7.158 8.649-13.131 12.477z" fill-rule="evenodd" stroke-width="1.86661332"/><path d="M300.327 204.97c6.674 6.314 11.095 18.282 10.554 25.771-6.63 11.218-4.85 17.653 1.558 17.99 5.228.28 6.33-5.557 6.277-12.69-.049-6.362-.833-11.667-3.39-17.182-3.487-7.527-9.251-11.055-14.999-13.89zM356.712 365.224c-8.506 2.949-9.628 4.688-10.35 10.94-2.943-1.986-4.862-8.049-1.541-13.047 2.092-3.15 6.802-5.135 10.225-5.6l1.666 7.707zM374.698 368.599c.19 1.681-.249 3.215-1.822 4.507-3.029 2.488-5.441 4.433-1.183 6.653-3.807 1.29-9.947 1.383-10.008-6.04-.033-3.94 2.243-6.612 4.931-8.697l8.082 3.577zM393.242 349.544c5.312.106 7.389 3.836 5.34 7.563 3.714.355 7.093-2.495 7.37-6.21.36-4.808-2.701-7.773-6.271-9.717l-6.44 8.364zM347.81 350.883c-7.087-1.022-8.078 2.556-8.27 5.763-6.765-2.27-4.98-10.186-.46-12.807 3.622-2.1 7.52-1.89 11.63-1.118l-2.9 8.162zM166.035 197.882c-4.097-3.022-5.752-6.854-12.206-.446-.928-4.714 1.036-9.07 5.716-10.889 5.319-2.067 10.389.479 10.389.479l-3.899 10.856zM173.257 213.84c-5.785-.069-11.106 1.176-11.35 5.622-1.81-.544-6.548-1.256-3.962-7.333 2.424-5.697 14.208-8.398 14.208-8.398l1.104 10.108zM203.797 213.864c2.738 3.204 3.284 5.36-1.742 10.663 4.54 1.528 9.583-.637 11.87-4.875 1.583-2.935 1.856-6.677.68-9.236l-10.808 3.448zM175.708 178.207c-2.365-3.07-6.879-3.694-11.658-2.36 1.107-5.51 6.016-8.423 11.663-8.245 3.63.114 6.752 1.653 8.274 3.967l-8.28 6.638z" fill-rule="evenodd" stroke-width="1.86661332"/><path d="M388.138 245.926c4.765-.32 9.788-5.726 18.207 3.24 1.618-3.476 1.336-7.9-2.51-10.463 5.472-3.747 10.445-10.88 10.905-18.15.555-8.782 3.959-19.823 11.107-22.632 3.793-1.49 7.445 1.169 7.234 5.88-.46 10.226-9.983 13.018-10.578 24.455-.328 6.306 3.782 12.715 10.932 8.952-4.11-1.772-6.837-4.429-6.63-7.725.619-9.903 12.943-18 13.744-27.358.942-11.007-5.355-14.322-9.818-14.635-5.977-.419-13.148 3.514-17.352 11.068-2.59-10.783 4.734-21.517 12.836-26.766 6.789-4.398 14.527-8.292 18.211-14.476 4.155-6.971 3.068-15.586-1.476-19.73-.124 4.11-2.828 11.078-11.332 15.708-10.322 5.62-20.354 8.947-28.415 24.43-2.456-27.278 26.593-38.66 38.561-47.423 14.854-10.877 9.345-33.63 4.678-36.638.362 3.824.67 9.818-3.72 17.025-5.077 8.338-14.221 12.288-25.214 18.696-10.932 6.373-19.89 16.341-24 26.67-1.375-6.867 3.485-16.985 9.747-24.142 6.485-7.414 14.29-13.965 18.724-17.916 8.83-7.87 21.709-18.778 22.492-42.013.555-16.34-7.855-27.563-19.363-32.048-6.75-2.63-16.551-2.804-23.257-1.124-3.364.843-6.707 2.093-9.826 4.075-2.196 1.395-6.064.667-5.774-3.232.341-4.595 6.88-5.096 7.443-10.485.465-4.445-2.994-7.922-6.604-9.595.96 2.691 1.873 5.864.08 9.052-2.336 4.155-7.87 3.857-8.395 11.621-.26 3.883 2.435 8.186 6.13 9.179.442.255-.615.822-.915 1.255-3.91 5.654-4.458 13.019-3.92 18.103.897 8.491 3.917 11.416 4.152 19.294.073 2.456.247 9.537-2.593 14.28-3.5 5.845-6.562 8.203-9.989 10.102 4.907.185 10.116-1.082 13.746-2.595 6.71-2.797 12.252-11.307 13.257-16.883.669-3.712.41-7.16-.16-10.512 3.346 1.039 9.126 1.054 13.1-1.722 4.08-2.85 6.23-8.843 3.048-13.943-.922 5.272-4.382 7.263-9.643 7.603-5.006.324-9.089-2.704-9.662-8.132-.846-8 5.827-14.011 15.198-14.357 12.414-.458 19.389 8.487 19.028 20.428-.361 11.97-6.064 20.916-14.26 28.24-7.042 6.292-14.465 12.419-21.766 20.033-5.695 5.94-16.891 18.508-16.87 34.801.016 12.074 3.772 21.744 9.486 30.398 5.715 8.654 9.153 15.897 11.667 22.655 3.022 8.124 1.982 19.339-5.88 22.673-8.143 3.454-19.432-1.188-23.663-11.814-2.96-7.434-7.431-15.258-11.514-22.674-4.36-7.919-12.426-15.153-15.379-25.602-2.618-9.263-2.304-20.05-1.793-25.512 1.4-14.966-3.584-28.894-17.835-33.344-14.25-4.45-26.101-.466-33.799 6.606-7.805 7.17-9.094 16.594-16.767 24.962-7.356 8.023-20.307 10.594-29.151 15.556-8.797 4.935-15.934 11.767-23.621 17.21-2.08 1.474-5.862 4.407-14.287 4.446-3 .014-6.966-.764-10.33-2.55-5.8-3.08-4.217-6.202-8.228-7.166-5.23-1.256-10.251 3.278-10.08 7.53.202 5.07 5.45 2.978 7.885 3.16 3.603.27 1.306 3.335 10.417 6.077-4.104 1.313-9.078 1.58-13.847 1.158-3.2-.284-5.67-3.49-9.923-2.573-4.925 1.062-8.48 7.296-4.629 11.176 2.406 2.424 8.04-.283 10.463-.451 1.308-.091 7.901 1.464 12.811 1.404-1.523 1.566-3.82 2.872-6.94 3.139-3.756.321-5.837-.278-8.395.64-6.383 2.292-5.274 12.153 2.14 11.915 3.53-.112 6.55-1.49 8.113-3.373 2.107-2.54 5.634-6.574 14.054-6.135 8.285.431 3.398 5.78 4.196 7.878 1.391 3.652 10.248 1.912 12.92-1.567 1.533-1.995.814-4.408-.42-5.68 3.906.257 7.462.12 10.761-.521.282.948-.544 4.094-1.13 5.336 4.238-.337 5.407-2.899 8.687-4.448 2.975-1.404 7.385-3.008 11.814-7.192.043 2.552-1.205 5.284-1.128 8.607.08 3.485 2.914 5.602 5.874 5.89-.397-6.968.102-11.562 4.86-14.364 2.32-1.366 5.26-2.458 7.742-3.4 3.99-1.515 7.305-4.087 9.39-6.783.589-.762 4.422-4.474 5.294-3.499 1.011 1.74 1.945 3.526 5.656 7.115 3.55 3.433 7.344 6.189 11.566 8.576 4.84 2.736 10.739 6.22 14.049 8.651 3.74 2.748 6.58 6.167 8.482 11.436 1.813 5.022 2.643 11.141 2.357 16.559-.215 4.058-.51 7.48-.068 11.198.483 4.064 3.543 5.734 3.387 9.512-.065 1.565-4.004 3.442-4.132 7.883-.174 6.03 2.795 8.524 2.663 12.3-.107 3.043-2.23 5.36-4.62 6.451 2.422 3.66 8.604.727 10.22-3.711 2.38 3.006 4.09 7.749 3.847 13.148-.642 7.27-5.73 11.478-14.455 15.603-5.944 2.811-16.993 9.788-17.39 18.239-.169 3.677.651 6.503 2.713 8.753-.57-3.438-.101-7.004 2.201-10.578 5.4-8.382 16.083-10.986 24.086-16.058 7.473-4.737 10.506-10.793 10.788-17.48.224-5.25-1.874-13.116-1.885-14.97 2.288 3.087 4.213 5.333 6.936 7.328 3.335 2.444 7.437 4.051 10.808 5.853 4.024 2.15 7.464 5.237 10.614 8.005 2.564 2.253 5.74 5.205 7.598 8.269.445.734 1.408 4.066 1.366 7.452-.025 1.972-.103 6.515-.49 9.806-.491 4.186-1.97 8.829-4.779 12.664-1.705 2.328-4.16 4.136-7.121 5.245-3.829 1.432-6.33-.44-9.123-.273-4.519.271-6.547 6.032-4.033 9.34 2.14 2.814 5.506.156 7.909-1.17 2.21-1.22 6.473-1.321 10.662-2.873-5.627 8.732-8.209 5.865-10.763 8.189-3.069 2.79-1.406 11.142 2.872 10.171 4.567-1.036 3.557-4.53 4.196-5.055 1.4-1.15 6.114-3.547 10.262-8.63 0 0 .024 3.68-.847 5.646-1.066 2.405-5.506 3.089-5.84 6.692-.46 4.984 4.958 6.265 8.787 4.518 6.394-2.916 1.205-9.04 3.246-11.628 2.149-2.726 3.746.113 10.428-9.2.73 1.4 2.474 2.173 4.332 1.944 4.836-.598 9.884-6.636 6.453-10.252-1.894-1.994-8.068.106-6.506-1.563 2.753-2.944 4.96-9.498 5.67-11.538 1.316 2.62 2.928 5.75 7.597 5.112-3.456-7.527 1.903-7.185 2.13-12.63.066-1.553-.585-3.394-1.37-4.627 5.236 2.712 15.863 3.879 14.889-5.12-5.47 4.084-8.926 1.834-12.564-.46-2.5-1.578-5.315-4.116-5.087-8.87.24-5.08 3.627-3.746 4.114-9.376.16-1.84-.28-4.122-1.848-4.949-2.414-1.272-5.449.373-4.927-3.769.277-2.197 6.517-6.275 9.563-8.059-1.983-.168-5.818.026-8.676.942-2.41.774-6.288 3.223-10.1 2.79-2.36-.268-5.464-2.928-8.326-5.931-3.92-4.112-7.179-9.357-9.298-15.526-1.681-4.894-2.55-13.833-1.23-13.626 4.848 1.535 9.234 3.635 14.678 3.269z" fill-rule="evenodd" stroke-width="1.86661332"/></g></g></g><g fill="#ff0" stroke="#000"><g><g><g stroke-width="1.471"><g stroke-width="1.576"><path d="M341.156 74.57c-2.435-2.85-3.735-9.119-4.731-12.105-2.555-7.237-4.897-14.986-8.409-22.283-.94-1.952 3.002-11.959.095-15.141-3.837-4.2-7.747 4.277-8.907 3.78-4.719-2.021-11.961-3.918-19.204-3.918s-14.485 1.897-19.204 3.918c-1.16.497-5.07-7.98-8.907-3.78-2.908 3.182 1.034 13.189.095 15.14-3.512 7.298-5.854 15.047-8.409 22.284-1.254 3.553-5.07 15.348-12.801 16.756 1.087 2.26 3.863 3.085 6.359 2.386-1.338 3.2-1.714 7.138-4.625 9.455-4.066 3.236-8.967 3.33-11.465.237-3.892 9.581 2.664 14.961 11.698 13.669-4.014 2.576-4.943 7.545-8.082 10.163-2.505 2.088-8.6 3.163-11.533 1.043-5.165 8.528.308 16.248 6.51 18.226 4.422 1.411 9.646 1.44 13.447-.056-.463 3.196-2.013 6.657-5.801 9.591-5.44 4.213-12.136 5.543-17.684 4.18.978 8.147 7.186 15.198 16.243 16.71 7.038 1.176 14.41-.394 19.68-4.43-1.839 8.531-1.226 16.873 3.885 22.6 2.733 3.061 9.156 4.449 11.813 2.9-1.008-10.404 9.335-21.395 17.833-24.578-1.238 5.897-.551 13.298 4.684 20.067 3.008 3.89 8.466 6.098 13.653 4.732-1.952-3.022-2.997-7.428-1.733-11.565 1.437-4.706 4.312-8.198 6.898-10.464 2.463-2.16 6.248-4.625 7.596-7.28 2.464-4.852 2.52-8.209 1.31-12.69 2.698 1.805 6.502 4.987 9.32 5.523 3.328.634 8.45.075 12.38-3.284-8.311-5.684-13.916-11.788-12.623-23.382 7.562 3.31 16.37-1.827 18.696-8.372-8.32-1.044-16.904-5.53-17.697-15.531 4.067 1.59 10.143-.626 11.498-4.63-6.826-1.277-12.202-3.56-11.656-12.042 3.764.044 8.122-2.983 8.075-6.28-2.641 1.134-5.863 1.3-8.297-1.55zM275.64 27.957c1.373 1.413 2.4 2.835 3.356 4.637m45.364-4.637c-1.373 1.413-2.4 2.835-3.357 4.637" fill="#ffdf00" fill-rule="evenodd" stroke-width="1.810627" stroke-linecap="round"/><path d="M304.443 129.478c.501 5.097 2.875 10.934 7.3 13.574m-34.441-16.208c-2.576 6.693-8.288 14.636-14.283 20.723m8.856-86.505c-.825 2.241-.928 6.811-.465 10.081m1.495 26.608c-2.07 6.92-6.303 13.28-13.175 18.987M280.4 70.5c-.334.864-.502 2.907-.138 4.636m47.863-14.074c.825 2.241.928 6.811.466 10.081m-2.68 38.982c.969 2.253 2.922 5.44 4.602 6.779m-3.368-39.637c-2 5.055-6.395 9.584-7.727 15.76-2.313 10.723-7.716 18.556-12.09 23.714-1.075-1.148-1.564-1.097-3.072-2.05-.673 2.639-2.816 3.989-4.256 6.509-1.44-2.52-3.582-3.87-4.256-6.509-1.508.953-1.997.902-3.07 2.05-4.375-5.158-9.779-12.991-12.092-23.714-1.332-6.176-5.727-10.705-7.727-15.76M319.6 70.5c.335.864.503 2.907.138 4.636" fill="#ffdf00" fill-rule="evenodd" stroke-width="1.810627" stroke-linecap="round"/><path d="M300 104.35c.99 0 1.722.229 2.597.478.874.25 1.693.552 2.463.798 1.273.407 2.645-.205 3.6-.926 2.308-1.746 1.79-4.631 3.629-12.812 1.679-7.468 5.05-17.658 4.359-17.817-3.186-.732-4.947 3.963-10.281 3.441-1.941-.19-4.465-1.09-6.367-1.09-1.902 0-4.425.9-6.367 1.09-5.334.522-7.095-4.173-10.28-3.441-.692.159 2.68 10.349 4.358 17.817 1.84 8.18 1.321 11.066 3.63 12.812.954.721 2.326 1.333 3.6.926.769-.246 1.588-.548 2.463-.798.874-.25 1.607-.478 2.596-.478z" fill="#000" fill-rule="evenodd" stroke-width="1.810627"/><path d="M300 102.337c1.077 0 2.094-.217 2.745-.65 5.822-3.872 7.273-22.81 3.75-22.47-1.893.181-4.186.18-6.495.18-2.31 0-4.602.001-6.495-.18-3.523-.34-2.072 18.598 3.75 22.47.651.433 1.669.65 2.745.65z" fill="#ffdf00" fill-rule="evenodd" stroke="none"/><path d="M300 82.568v5.794" fill-rule="evenodd" stroke-width="1.810627" stroke-linecap="round"/></g></g></g></g><g><g><g stroke-width="1.471"><g stroke-width="1.576"><path d="M291.873 96.095c1.31 2.787 2.985 6.052 4.178 9.161-.381.128-.751.256-1.11.37-1.274.407-2.646-.205-3.6-.926-.51-2.927-.385-6.104.532-8.605zm-.31-18.646c-.556 2.762-1.419 6.025-2.137 8.882-1.674-1.923-3.72-7.558-3.273-11.635 1.493.889 3.04 2.353 5.41 2.753zM308.127 96.095c-1.31 2.787-2.985 6.052-4.178 9.161.382.128.752.256 1.11.37 1.274.407 2.646-.205 3.6-.926.51-2.927.385-6.104-.532-8.605zm.311-18.646c.555 2.762 1.418 6.025 2.136 8.882 1.674-1.923 3.72-7.558 3.274-11.635-1.494.889-3.04 2.353-5.41 2.753z" fill="#fff" fill-rule="evenodd" stroke="none"/></g></g></g></g><g><g><g stroke-width="1.471"><g stroke-width="1.576"><path d="M283.163 60.907c-2.036-.658-2.998-2-4.67-2.958 2.145-1.013 5.092-2.535 7.1-1.784 1.46.546 1.674 2.014 3.581 3.38-.801.675-4.109 1.977-6.011 1.362zm-7.476-10.5c-.428 3.205 3.523 2.605 9.198 1.129 4.477-1.165 6.205 4.35 9.075 6.072-.042-5.643-3.722-8.617-8.44-7.547-2.922.662-7.353 3.74-9.833.346zm17.035 12.463c-.632 3.688-4.937 7.686-.045 9.68m24.16-11.643c2.036-.658 2.998-2 4.67-2.958-2.145-1.013-5.092-2.535-7.1-1.784-1.459.546-1.674 2.014-3.58 3.38.8.675 4.108 1.977 6.01 1.362zm7.477-10.5c.427 3.205-3.523 2.605-9.199 1.129-4.477-1.165-6.204 4.35-9.075 6.072.042-5.643 3.722-8.617 8.44-7.547 2.922.662 7.353 3.74 9.834.346zM307.278 62.87c.632 3.688 4.937 7.686.045 9.68m-2.2-2.9c-1.722.555-2.668 2.798-5.123 2.798s-3.4-2.243-5.123-2.798" fill="#ffdf00" fill-rule="evenodd" stroke-width="1.810627" stroke-linecap="round"/><path d="M300 104.35c.99 0 1.722.229 2.597.478.874.25 1.693.552 2.463.798 1.273.407 2.645-.205 3.6-.926 2.308-1.746 1.79-4.631 3.629-12.812 1.679-7.468 5.05-17.658 4.359-17.817-3.186-.732-4.947 3.963-10.281 3.441-1.941-.19-4.465-1.09-6.367-1.09-1.902 0-4.425.9-6.367 1.09-5.334.522-7.095-4.173-10.28-3.441-.692.159 2.68 10.349 4.358 17.817 1.84 8.18 1.321 11.066 3.63 12.812.954.721 2.326 1.333 3.6.926.769-.246 1.588-.548 2.463-.798.874-.25 1.607-.478 2.596-.478z" fill="none" stroke-width="1.810627"/></g></g></g><path d="M285.246 58.347a.875.875 0 1 1-1.711.364.875.875 0 1 1 1.711-.364zM314.754 58.347a.875.875 0 1 0 1.712.364.875.875 0 1 0-1.712-.364z" fill-rule="evenodd" stroke-width="2.17278" stroke-linecap="round"/></g></g></svg>