<svg xmlns="http://www.w3.org/2000/svg" width="738.571" height="492.381"><path fill="#FFF" d="M-11.313-13.908h789.13v540.23h-789.13z"/><path fill="#DE0000" d="M1303.569 236.494h747.566v497.891h-747.566V236.494z"/><g fill="#FCD116"><path d="M1498.618 231.383h97.096v508.113h-97.096z"/><path d="M1293.475 534.352v-97.826h754.137v97.826h-754.137z"/></g><path fill="#ED2939" stroke="#ED2939" stroke-width="14" stroke-miterlimit="10" d="M65-4.655l701.795 405.182"/><path fill="#ED2939" d="M733.036 283.153c-.682-.395-1.738-.783-3.172-1.167-4.807-.353-8.223 1.229-10.252 4.741l-.211.367c-.818 1.416-1.256 3.387-1.318 5.914-.189 1.499.092 3.293.844 5.381l-.045.078-.08-.045a14.564 14.564 0 0 0-3.875-3.216l-.236-.137c-.891-.515-1.973-.999-3.248-1.456-5.137-1.031-8.881.488-11.23 4.561-.586 1.014-1.002 2.24-1.252 3.682-.246 4.542 1.301 7.776 4.639 9.703 4.281 2.472 8.693 1.792 13.236-2.04l.078.046-.045.078c-4.602 9.477-33.188 9.824-32.602-9.396-16.375 10.154-30.367-14.775-24.461-23.499l.047-.078-.01.143c-1 5.807.615 9.932 4.844 12.373 1.301.611 2.363 1.015 3.182 1.209 4.703.291 8.088-1.355 10.156-4.938.605-1.049 1.039-2.266 1.305-3.65.359-4.5-1.539-7.949-5.699-10.351l-.498-.288c-1.469-.848-2.99-1.4-4.564-1.657l-.08-.046 2.482-.664c3.711-1.586 6.156-3.4 7.338-5.445a17.413 17.413 0 0 0 1.215-3.073c.525-4.985-1.082-8.559-4.822-10.718m-.002 0c-.682-.394-1.738-.783-3.172-1.167-4.807-.352-8.223 1.229-10.252 4.741l-.211.367c-.818 1.416-1.258 3.387-1.318 5.915-.189 1.499.092 3.292.844 5.38l-.045.079-.08-.046a14.583 14.583 0 0 0-3.875-3.216l-.236-.136c-.891-.516-1.973-1-3.248-1.457-5.137-1.031-8.881.489-11.23 4.561-.586 1.014-1.004 2.241-1.252 3.682-.246 4.542 1.301 7.776 4.639 9.703 4.281 2.473 8.693 1.793 13.236-2.039l.078.045-.045.079c-4.602 9.476-33.188 9.823-32.604-9.484-16.373 10.065-30.365-14.864-24.459-23.587l.045-.079-.008.142c-1 5.808.615 9.933 4.844 12.374 1.301.611 2.361 1.014 3.182 1.208 4.703.291 8.088-1.354 10.156-4.937.605-1.049 1.039-2.266 1.303-3.652.361-4.498-1.539-7.948-5.697-10.35l-.498-.288c-1.469-.848-2.99-1.4-4.566-1.657l-.078-.045 2.48-.665c3.713-1.585 6.158-3.401 7.338-5.445a17.27 17.27 0 0 0 1.217-3.073c.523-4.986-1.082-8.559-4.822-10.718m-.002.001c-.682-.394-1.738-.782-3.172-1.167-4.807-.352-8.225 1.229-10.252 4.741l-.211.367c-.818 1.416-1.258 3.387-1.318 5.915-.189 1.499.092 3.292.844 5.38l-.047.079-.078-.045a14.595 14.595 0 0 0-3.875-3.216l-.236-.136c-.891-.515-1.975-1-3.248-1.456-5.137-1.032-8.881.488-11.232 4.56-.584 1.014-1.002 2.241-1.25 3.682-.246 4.542 1.301 7.776 4.639 9.704 4.281 2.472 8.693 1.792 13.234-2.04l.08.045-.047.079c-4.602 9.477-33.186 9.824-32.594-9.477-16.367 10.073-30.359-14.856-24.453-23.58l.045-.079-.01.142c-1 5.808.615 9.932 4.844 12.374 1.303.611 2.363 1.014 3.184 1.208 4.701.291 8.086-1.354 10.154-4.937.605-1.049 1.041-2.266 1.305-3.651.359-4.499-1.539-7.949-5.699-10.35l-.498-.288c-1.467-.848-2.988-1.4-4.564-1.657l-.078-.045 2.48-.665c3.711-1.585 6.156-3.401 7.338-5.445a17.26 17.26 0 0 0 1.215-3.073c.525-4.986-1.082-8.559-4.822-10.718m-.002-.001c-.682-.394-1.738-.782-3.17-1.167-4.807-.352-8.225 1.229-10.252 4.741l-.213.367c-.816 1.416-1.256 3.387-1.318 5.915-.189 1.499.092 3.292.844 5.38l-.045.079-.078-.045a14.605 14.605 0 0 0-3.877-3.216l-.234-.136c-.893-.515-1.975-1-3.25-1.456-5.137-1.032-8.879.488-11.23 4.56-.586 1.014-1.002 2.241-1.252 3.682-.246 4.542 1.301 7.776 4.639 9.704 4.281 2.472 8.693 1.792 13.236-2.04l.078.045-.045.079c-4.602 9.477-33.188 9.824-32.559-9.352-16.33 10.198-30.322-14.731-24.416-23.455l.045-.079-.01.142c-1 5.808.615 9.932 4.844 12.374 1.303.611 2.363 1.014 3.184 1.208 4.701.291 8.086-1.354 10.154-4.937.605-1.049 1.041-2.266 1.305-3.651.361-4.499-1.539-7.949-5.699-10.35l-.498-.288c-1.467-.848-2.988-1.4-4.564-1.657l-.078-.045 2.48-.665c3.711-1.585 6.156-3.401 7.338-5.445a17.26 17.26 0 0 0 1.215-3.073c.525-4.986-1.082-8.559-4.822-10.718m-.002-.001c-.682-.394-1.738-.782-3.17-1.167-4.807-.352-8.225 1.229-10.252 4.741l-.213.367c-.816 1.416-1.256 3.387-1.318 5.915-.189 1.499.092 3.292.844 5.38l-.045.079-.078-.045a14.605 14.605 0 0 0-3.877-3.216l-.234-.136c-.893-.515-1.975-1-3.25-1.456-5.137-1.032-8.879.488-11.23 4.56-.586 1.014-1.002 2.241-1.252 3.682-.246 4.542 1.301 7.776 4.639 9.704 4.281 2.472 8.693 1.792 13.236-2.04l.078.045-.045.079c-4.602 9.477-33.188 9.824-32.559-9.477-16.33 10.073-30.322-14.856-24.416-23.58l.045-.079-.01.142c-1 5.808.615 9.932 4.844 12.374 1.303.611 2.363 1.014 3.184 1.208 4.701.291 8.086-1.354 10.154-4.937.605-1.049 1.041-2.266 1.305-3.651.359-4.499-1.539-7.949-5.699-10.35l-.498-.288c-1.467-.848-2.988-1.4-4.564-1.657l-.078-.045 2.48-.665c3.711-1.585 6.156-3.401 7.338-5.445a17.26 17.26 0 0 0 1.215-3.073c.525-4.986-1.082-8.559-4.822-10.718m-.002-.001c-.682-.393-1.738-.782-3.17-1.167-4.807-.352-8.225 1.229-10.252 4.741l-.213.367c-.816 1.416-1.256 3.387-1.318 5.915-.189 1.499.092 3.292.844 5.38l-.045.079-.078-.045a14.605 14.605 0 0 0-3.877-3.216l-.234-.136c-.893-.515-1.975-1-3.25-1.456-5.137-1.032-8.879.488-11.23 4.56-.586 1.014-1.002 2.241-1.252 3.682-.246 4.542 1.301 7.776 4.639 9.704 4.281 2.472 8.693 1.792 13.236-2.04l.078.045-.045.079c-4.602 9.477-33.188 9.824-32.684-9.477-16.455 10.073-30.448-14.856-24.542-23.58l.045-.079-.009.142c-1 5.808.615 9.932 4.845 12.374 1.302.611 2.362 1.014 3.183 1.208 4.701.291 8.086-1.354 10.154-4.937.605-1.049 1.041-2.266 1.305-3.651.36-4.499-1.539-7.949-5.698-10.35l-.498-.288c-1.468-.848-2.99-1.4-4.565-1.657l-.079-.045 2.481-.665c3.711-1.585 6.157-3.401 7.338-5.445a17.26 17.26 0 0 0 1.215-3.073c.525-4.986-1.082-8.559-4.822-10.718M266.29 13.801c3.74 2.159 5.347 5.732 4.822 10.718a17.26 17.26 0 0 1-1.215 3.073c-1.18 2.044-3.626 3.86-7.338 5.445l-2.481.665.079.045c1.576.257 3.098.81 4.566 1.657l.498.288c4.159 2.401 6.059 5.852 5.698 10.35-.264 1.386-.699 2.603-1.304 3.651-2.068 3.583-5.454 5.228-10.155 4.937-.82-.194-1.881-.597-3.182-1.208-4.229-2.442-5.844-6.566-4.845-12.374l.009-.142-.045.079c-5.906 8.723 8.086 33.653 24.417 23.455-.628 19.176 27.958 18.829 32.559 9.352l.045-.079-.079-.045c-4.542 3.832-8.955 4.512-13.236 2.04-3.338-1.927-4.884-5.162-4.639-9.704.25-1.441.667-2.668 1.252-3.681 2.351-4.072 6.094-5.592 11.231-4.561 1.274.456 2.357.941 3.249 1.456l.236.136a14.576 14.576 0 0 1 3.875 3.216l.079.045.045-.079c-.751-2.088-1.033-3.881-.843-5.38.062-2.528.5-4.5 1.318-5.915l.212-.367c2.028-3.513 5.445-5.093 10.252-4.741 1.433.384 2.49.773 3.171 1.167m58.499 33.751c-.682-.394-1.738-.782-3.171-1.167-4.807-.352-8.224 1.229-10.252 4.741l-.212.367c-.817 1.416-1.256 3.387-1.318 5.915-.189 1.499.092 3.292.843 5.38l-.045.079-.079-.045a14.595 14.595 0 0 0-3.875-3.216l-.236-.136c-.891-.515-1.974-1-3.249-1.456-5.137-1.032-8.88.488-11.231 4.56-.585 1.014-1.002 2.241-1.252 3.682-.246 4.542 1.301 7.776 4.639 9.704 4.282 2.472 8.694 1.792 13.236-2.04l.079.045-.045.079c-4.602 9.477-33.188 9.824-32.684-9.477-16.455 10.073-30.447-14.856-24.542-23.58l.045-.079-.009.142c-1 5.808.615 9.932 4.845 12.374 1.301.611 2.362 1.014 3.182 1.208 4.702.291 8.087-1.354 10.155-4.937.605-1.049 1.04-2.266 1.304-3.651.36-4.499-1.539-7.949-5.698-10.35l-.498-.288c-1.468-.848-2.99-1.4-4.566-1.657l-.079-.045 2.481-.665c3.711-1.585 6.158-3.401 7.338-5.445a17.185 17.185 0 0 0 1.215-3.073c.525-4.986-1.082-8.559-4.822-10.718M208.04-19.949c3.74 2.159 5.347 5.732 4.822 10.718a17.26 17.26 0 0 1-1.215 3.073c-1.18 2.044-3.626 3.86-7.338 5.445l-2.481.665.079.045c1.576.257 3.098.81 4.566 1.657l.498.288c4.159 2.401 6.059 5.852 5.698 10.35-.264 1.386-.699 2.603-1.304 3.651-2.068 3.583-5.454 5.228-10.155 4.937-.82-.194-1.881-.597-3.182-1.208-4.229-2.442-5.844-6.566-4.845-12.374l.009-.142-.045.079c-5.906 8.723 8.086 33.653 24.417 23.58-.628 19.301 27.958 18.954 32.559 9.477l.045-.079-.079-.045c-4.542 3.832-8.955 4.512-13.236 2.04-3.338-1.927-4.884-5.162-4.639-9.704.25-1.441.667-2.668 1.252-3.681 2.351-4.072 6.094-5.592 11.231-4.561 1.274.456 2.357.941 3.249 1.456l.236.136a14.576 14.576 0 0 1 3.875 3.216l.079.045.045-.079c-.751-2.088-1.033-3.881-.843-5.38.062-2.528.5-4.5 1.318-5.915l.212-.367c2.028-3.513 5.445-5.093 10.252-4.741 1.433.384 2.49.773 3.171 1.167M208.04-19.949c-.682-.394-1.739-.782-3.171-1.167-4.807-.352-8.224 1.229-10.252 4.741l-.212.367c-.817 1.416-1.256 3.387-1.318 5.915-.189 1.499.092 3.292.843 5.38l-.045.079-.079-.045a14.595 14.595 0 0 0-3.875-3.216l-.236-.136c-.891-.515-1.974-1-3.249-1.456-5.137-1.032-8.88.488-11.231 4.561-.585 1.013-1.002 2.24-1.252 3.681-.246 4.542 1.301 7.776 4.639 9.704 4.282 2.472 8.694 1.792 13.236-2.04l.079.045-.045.079c-4.602 9.477-33.188 9.824-32.705-9.48L160-83.619l704 82L743.352 335.15c-17.123 8.84-31.115-16.09-25.211-24.813l.047-.078-.01.142c-1 5.808.615 9.933 4.844 12.374 1.303.611 2.363 1.015 3.184 1.208 4.701.291 8.086-1.354 10.154-4.937.605-1.049 1.041-2.266 1.305-3.651.359-4.499-1.539-7.949-5.699-10.351l-.498-.287c-1.467-.848-2.99-1.4-4.564-1.657l-.08-.046 2.482-.664c3.711-1.586 6.156-3.4 7.338-5.445a17.29 17.29 0 0 0 1.215-3.073c.525-4.986-1.082-8.56-4.822-10.718"/><path fill="#ED2939" stroke="#ED2939" stroke-width="14" stroke-miterlimit="10" d="M670.325 503.925L-31.472 98.744"/><path fill="#ED2939" d="M2.288 216.118c.682.394 1.738.782 3.171 1.167 4.807.352 8.224-1.229 10.252-4.741l.212-.367c.817-1.416 1.257-3.387 1.318-5.915.189-1.498-.092-3.292-.844-5.38l.045-.079.079.045a14.611 14.611 0 0 0 3.875 3.216l.236.136c.892.515 1.974 1 3.249 1.457 5.136 1.031 8.88-.489 11.231-4.561.585-1.014 1.002-2.241 1.251-3.682.246-4.542-1.301-7.776-4.639-9.704-4.281-2.472-8.693-1.792-13.236 2.04l-.079-.045.045-.079c4.602-9.477 33.187-9.824 32.602 9.396 16.373-10.154 30.365 14.775 24.459 23.499l-.045.079.009-.143c1-5.807-.615-9.932-4.844-12.374-1.302-.612-2.362-1.014-3.183-1.208-4.702-.292-8.087 1.354-10.155 4.937-.605 1.048-1.04 2.266-1.304 3.651-.36 4.499 1.539 7.949 5.698 10.35l.498.288c1.468.848 2.99 1.4 4.565 1.657l.079.045-2.481.665c-3.711 1.585-6.157 3.4-7.338 5.445a17.27 17.27 0 0 0-1.215 3.074c-.525 4.986 1.082 8.559 4.822 10.718m.003 0c.682.394 1.739.782 3.171 1.167 4.807.352 8.224-1.229 10.252-4.742l.212-.367c.817-1.416 1.257-3.387 1.318-5.915.189-1.499-.092-3.292-.843-5.38l.045-.079.079.045a14.592 14.592 0 0 0 3.875 3.216l.236.136c.891.514 1.974 1 3.249 1.456 5.137 1.032 8.88-.489 11.231-4.561.585-1.014 1.002-2.241 1.251-3.681.246-4.542-1.301-7.776-4.639-9.704-4.282-2.472-8.693-1.792-13.236 2.04l-.079-.045.046-.079c4.602-9.476 33.187-9.823 32.602 9.484 16.374-10.066 30.366 14.863 24.46 23.587l-.045.079.009-.143c1-5.808-.615-9.932-4.845-12.374-1.301-.611-2.362-1.014-3.182-1.208-4.702-.291-8.087 1.354-10.155 4.938-.605 1.048-1.04 2.266-1.304 3.65-.36 4.499 1.539 7.949 5.698 10.351l.498.288c1.468.847 2.99 1.399 4.566 1.656l.079.046-2.481.665c-3.711 1.585-6.158 3.4-7.338 5.445a17.251 17.251 0 0 0-1.215 3.072c-.525 4.986 1.082 8.559 4.822 10.719m0 .003c.682.393 1.739.782 3.171 1.166 4.807.352 8.224-1.229 10.252-4.74l.212-.367c.817-1.416 1.257-3.388 1.318-5.916.189-1.498-.092-3.291-.843-5.379l.045-.079.079.045a14.592 14.592 0 0 0 3.875 3.216l.236.137c.891.515 1.974 1 3.249 1.456 5.137 1.032 8.88-.488 11.231-4.561.585-1.014 1.002-2.241 1.251-3.681.246-4.543-1.301-7.777-4.639-9.704-4.282-2.472-8.694-1.792-13.236 2.04l-.079-.045.045-.079c4.602-9.477 33.188-9.823 32.596 9.478 16.367-10.074 30.359 14.855 24.453 23.579l-.045.079.009-.143c1-5.808-.615-9.932-4.845-12.374-1.301-.611-2.362-1.015-3.182-1.208-4.702-.291-8.087 1.354-10.155 4.938-.605 1.048-1.04 2.266-1.304 3.65-.36 4.499 1.539 7.949 5.698 10.351l.498.288c1.468.847 2.99 1.399 4.566 1.656l.079.046-2.481.665c-3.711 1.585-6.158 3.4-7.338 5.445a17.176 17.176 0 0 0-1.215 3.072c-.525 4.986 1.082 8.56 4.822 10.719m0 0c.682.394 1.739.782 3.171 1.166 4.807.353 8.224-1.229 10.252-4.741l.212-.366c.817-1.416 1.257-3.388 1.318-5.915.189-1.499-.092-3.292-.843-5.38l.045-.079.079.045a14.592 14.592 0 0 0 3.875 3.216l.236.137c.891.515 1.974 1 3.249 1.456 5.137 1.031 8.88-.488 11.231-4.561.585-1.014 1.002-2.241 1.251-3.681.246-4.543-1.301-7.777-4.639-9.704-4.282-2.472-8.694-1.792-13.236 2.04l-.079-.045.045-.079c4.602-9.477 33.188-9.823 32.559 9.353 16.33-10.199 30.322 14.73 24.417 23.454l-.045.079.009-.143c1-5.808-.615-9.933-4.845-12.374-1.301-.611-2.362-1.014-3.182-1.208-4.702-.291-8.087 1.354-10.155 4.938-.605 1.048-1.04 2.265-1.304 3.65-.36 4.499 1.539 7.949 5.698 10.351l.498.287c1.468.848 2.99 1.4 4.566 1.657l.079.046-2.481.665c-3.711 1.585-6.158 3.4-7.338 5.444a17.244 17.244 0 0 0-1.215 3.073c-.525 4.986 1.082 8.56 4.822 10.719m0 0c.682.394 1.739.782 3.171 1.166 4.807.353 8.224-1.229 10.252-4.741l.212-.366c.817-1.416 1.256-3.388 1.318-5.915.189-1.499-.092-3.292-.843-5.381l.045-.078.079.045a14.615 14.615 0 0 0 3.875 3.217l.236.136c.891.515 1.974 1 3.249 1.456 5.137 1.031 8.88-.488 11.231-4.561.585-1.014 1.002-2.24 1.251-3.682.246-4.541-1.301-7.775-4.639-9.703-4.282-2.472-8.694-1.792-13.236 2.04l-.079-.046.045-.078c4.602-9.477 33.188-9.823 32.559 9.477 16.33-10.072 30.322 14.856 24.417 23.58l-.045.079.009-.143c1-5.808-.615-9.933-4.845-12.374-1.301-.611-2.362-1.014-3.182-1.208-4.702-.291-8.087 1.354-10.155 4.938-.605 1.048-1.04 2.265-1.304 3.65-.36 4.499 1.539 7.949 5.698 10.351l.498.287c1.468.848 2.99 1.4 4.566 1.657l.079.046-2.481.665c-3.711 1.585-6.158 3.4-7.338 5.444a17.244 17.244 0 0 0-1.215 3.073c-.525 4.986 1.082 8.56 4.822 10.719m0 0c.682.394 1.739.782 3.171 1.166 4.807.353 8.224-1.229 10.252-4.741l.212-.366c.817-1.416 1.256-3.388 1.318-5.915.189-1.499-.092-3.292-.843-5.381l.045-.078.079.045a14.615 14.615 0 0 0 3.875 3.217l.236.136c.891.515 1.974 1 3.249 1.456 5.137 1.031 8.88-.488 11.231-4.561.585-1.014 1.002-2.24 1.251-3.682.246-4.541-1.301-7.775-4.639-9.703-4.282-2.472-8.694-1.792-13.236 2.04l-.079-.046.045-.078c4.602-9.477 33.188-9.823 32.684 9.477 16.455-10.072 30.447 14.856 24.542 23.58l-.045.079.009-.143c1-5.808-.615-9.933-4.845-12.374-1.301-.611-2.362-1.014-3.182-1.208-4.702-.291-8.087 1.354-10.155 4.938-.605 1.048-1.04 2.265-1.304 3.65-.36 4.499 1.539 7.949 5.698 10.351l.498.287c1.468.848 2.99 1.4 4.566 1.657l.079.046-2.481.665c-3.711 1.585-6.158 3.4-7.338 5.444a17.244 17.244 0 0 0-1.215 3.073c-.525 4.986 1.082 8.56 4.822 10.719m116.75 67.25c-3.74-2.159-5.348-5.732-4.822-10.719a17.474 17.474 0 0 1 1.215-3.073c1.182-2.044 3.627-3.859 7.338-5.444l2.482-.665-.08-.046c-1.574-.257-3.096-.81-4.564-1.657l-.498-.287c-4.16-2.401-6.059-5.852-5.699-10.351.266-1.386.699-2.603 1.305-3.65 2.068-3.583 5.453-5.229 10.156-4.938.818.194 1.881.597 3.182 1.208 4.229 2.441 5.844 6.566 4.844 12.374l-.01.143.047-.079c5.906-8.724-8.086-33.652-24.418-23.455.629-19.175-27.957-18.828-32.559-9.352l-.045.078.078.046c4.543-3.832 8.955-4.512 13.236-2.04 3.338 1.928 4.885 5.162 4.639 9.703-.248 1.441-.666 2.668-1.252 3.682-2.35 4.072-6.094 5.592-11.23 4.561-1.275-.456-2.357-.941-3.248-1.456l-.236-.136a14.548 14.548 0 0 1-3.875-3.217l-.08-.045-.045.078c.752 2.089 1.033 3.882.844 5.381-.061 2.527-.5 4.499-1.318 5.915l-.211.366c-2.029 3.513-5.445 5.094-10.252 4.741-1.434-.384-2.49-.772-3.172-1.166m-58.502-33.75c.682.394 1.739.782 3.171 1.166 4.807.353 8.224-1.229 10.252-4.741l.212-.366c.817-1.416 1.256-3.388 1.318-5.915.189-1.499-.092-3.292-.843-5.381l.045-.078.079.045a14.615 14.615 0 0 0 3.875 3.217l.236.136c.891.515 1.974 1 3.248 1.456 5.137 1.031 8.881-.488 11.231-4.561.585-1.014 1.003-2.24 1.251-3.682.246-4.541-1.301-7.775-4.639-9.703-4.281-2.472-8.693-1.792-13.236 2.04l-.079-.046.045-.078c4.601-9.477 33.187-9.823 32.683 9.477 16.457-10.072 30.449 14.856 24.543 23.58l-.047.079.01-.143c1-5.808-.615-9.933-4.844-12.374-1.301-.611-2.363-1.014-3.182-1.208-4.703-.291-8.088 1.354-10.156 4.938-.605 1.048-1.039 2.265-1.305 3.65-.359 4.499 1.539 7.949 5.699 10.351l.498.287c1.467.848 2.99 1.4 4.564 1.657l.08.046-2.482.665c-3.711 1.585-6.156 3.4-7.338 5.444a17.474 17.474 0 0 0-1.215 3.073c-.525 4.986 1.082 8.56 4.822 10.719m116.504 67.25c-3.74-2.159-5.348-5.732-4.822-10.719a17.474 17.474 0 0 1 1.215-3.073c1.182-2.044 3.627-3.859 7.338-5.444l2.482-.665-.08-.046c-1.574-.257-3.096-.81-4.564-1.657l-.498-.287c-4.16-2.401-6.059-5.852-5.699-10.351.266-1.386.699-2.603 1.305-3.65 2.068-3.583 5.453-5.229 10.156-4.938.818.194 1.881.597 3.182 1.208 4.229 2.441 5.844 6.566 4.844 12.374l-.01.143.047-.079c5.906-8.724-8.086-33.652-24.418-23.58.629-19.3-27.957-18.953-32.559-9.477l-.045.078.078.046c4.543-3.832 8.955-4.512 13.236-2.04 3.338 1.928 4.885 5.162 4.639 9.703-.248 1.441-.666 2.668-1.252 3.682-2.35 4.072-6.094 5.592-11.23 4.561-1.275-.456-2.357-.941-3.248-1.456l-.236-.136a14.548 14.548 0 0 1-3.875-3.217l-.08-.045-.045.078c.752 2.089 1.033 3.882.844 5.381-.061 2.527-.5 4.499-1.318 5.915l-.211.366c-2.029 3.513-5.445 5.094-10.252 4.741-1.434-.384-2.49-.772-3.172-1.166m58.248 33.75c.682.394 1.738.782 3.172 1.166 4.807.353 8.223-1.229 10.252-4.741l.211-.366c.818-1.416 1.258-3.388 1.318-5.915.189-1.499-.092-3.292-.844-5.381l.045-.078.08.045a14.567 14.567 0 0 0 3.875 3.217l.236.136c.891.515 1.973 1 3.248 1.456 5.137 1.031 8.881-.488 11.23-4.561.586-1.014 1.004-2.24 1.252-3.682.246-4.541-1.301-7.775-4.639-9.703-4.281-2.472-8.693-1.792-13.236 2.04l-.078-.046.045-.078c4.602-9.477 33.188-9.823 32.705 9.48l-.832 80.681-704.001-82L-8.028 164.12c17.124-8.839 31.116 16.09 25.21 24.813l-.045.079.009-.142c1-5.808-.615-9.932-4.844-12.374-1.301-.612-2.362-1.015-3.182-1.208-4.702-.291-8.087 1.354-10.155 4.937-.605 1.049-1.04 2.266-1.304 3.651-.36 4.499 1.539 7.949 5.698 10.35l.498.288c1.468.848 2.99 1.4 4.565 1.657l.079.045-2.481.665c-3.711 1.585-6.157 3.401-7.338 5.445a17.336 17.336 0 0 0-1.215 3.073c-.525 4.986 1.082 8.559 4.822 10.718"/><path fill="#FFD203" d="M69.184 344.604c.511.295 1.303.587 2.377.875 3.604.264 6.165-.921 7.685-3.554l.159-.275c.613-1.062.942-2.539.988-4.434.142-1.124-.069-2.468-.632-4.033l.034-.06.059.034c.81.957 1.779 1.761 2.905 2.411l.177.102c.668.387 1.48.75 2.435 1.092 3.851.773 6.657-.366 8.419-3.418.439-.76.751-1.68.938-2.76.184-3.404-.975-5.829-3.478-7.273-3.209-1.854-6.517-1.344-9.921 1.528l-.122-.021c11.157-15.186 25.834 1.447 22.897 6.657 7.836-5.34 15.054-.451 14.899 6.97-2.525 7.96-9.185 6.758-15.173 4.72 8.242 8.029 17.499 28.56 16.179 36.873l14.556-56.639-79.428-46.719-40.685 42.513c6.54-5.299 27.735-8.761 38.81-5.638-4.76-4.167-9.13-9.334-3.5-15.5 6.35-3.844 14.193-.037 13.486 9.418 3.043-5.148 24.787-.753 17.233 16.562l-.102.177-.059-.034c.75-4.354-.461-7.445-3.631-9.275-.976-.458-1.771-.76-2.385-.905-3.524-.219-6.062 1.016-7.612 3.7-.454.786-.78 1.698-.978 2.737-.271 3.372 1.153 5.958 4.271 7.759l.373.215a10.039 10.039 0 0 0 3.422 1.243l.059.033-1.86.499c-2.782 1.188-4.615 2.549-5.5 4.081a12.963 12.963 0 0 0-.911 2.304c-.393 3.739.812 6.416 3.616 8.035m48.259 110.473c.511.295 1.304.587 2.377.875 3.603.264 6.165-.921 7.685-3.555l.159-.274c.613-1.062.942-2.539.988-4.435.142-1.123-.069-2.467-.632-4.032l.034-.06.059.034a10.91 10.91 0 0 0 2.905 2.411l.177.102c.668.386 1.48.75 2.436 1.092 3.85.773 6.657-.366 8.419-3.418.438-.761.751-1.68.938-2.76.184-3.405-.975-5.829-3.477-7.274-3.209-1.853-6.517-1.343-9.922 1.529l-.122-.021c11.157-15.186 25.835 1.447 22.897 6.657 7.836-5.34 15.054-.451 14.9 6.97-2.525 7.959-9.185 6.758-15.173 4.719 8.242 8.029 17.498 28.561 16.179 36.874l14.556-56.64-79.428-46.718-40.686 42.513c6.54-5.3 27.736-8.761 38.811-5.638-4.76-4.167-9.13-9.333-3.5-15.5 6.35-3.845 14.192-.038 13.486 9.418 3.043-5.148 24.786-.753 17.233 16.562l-.103.177-.059-.034c.749-4.354-.461-7.445-3.631-9.275-.976-.458-1.771-.76-2.386-.905-3.524-.219-6.062 1.015-7.612 3.7-.454.786-.78 1.698-.978 2.737-.27 3.372 1.154 5.958 4.271 7.759l.374.215c1.1.636 2.241 1.05 3.422 1.242l.059.034-1.859.499c-2.782 1.188-4.616 2.549-5.5 4.081a12.963 12.963 0 0 0-.911 2.304c-.393 3.739.811 6.417 3.614 8.035m117.545-14.366c.511.295 1.303.586 2.377.875 3.603.264 6.165-.922 7.685-3.555l.159-.275c.613-1.061.942-2.539.988-4.434.142-1.123-.069-2.468-.632-4.033l.034-.059.059.034c.81.957 1.778 1.76 2.905 2.41l.177.103c.668.386 1.479.75 2.435 1.092 3.85.773 6.657-.366 8.419-3.419.438-.76.751-1.68.938-2.76.184-3.404-.975-5.829-3.477-7.273-3.209-1.853-6.517-1.343-9.922 1.529l-.121-.021c11.157-15.187 25.834 1.447 22.897 6.656 7.835-5.34 15.054-.45 14.899 6.971-2.525 7.959-9.185 6.758-15.173 4.719 8.242 8.029 17.498 28.56 16.179 36.874l14.556-56.64-79.428-46.718-40.686 42.513c6.54-5.3 27.736-8.762 38.811-5.638-4.76-4.167-9.13-9.334-3.5-15.5 6.35-3.845 14.193-.038 13.486 9.418 3.043-5.148 24.787-.754 17.233 16.562l-.102.178-.059-.034c.75-4.354-.461-7.445-3.631-9.275-.976-.459-1.771-.761-2.386-.906-3.524-.218-6.062 1.016-7.612 3.701-.454.786-.779 1.698-.978 2.737-.27 3.372 1.154 5.958 4.271 7.758l.374.216c1.1.636 2.241 1.05 3.422 1.242l.059.034-1.86.498c-2.782 1.188-4.616 2.549-5.5 4.082a12.934 12.934 0 0 0-.911 2.304c-.393 3.737.812 6.415 3.615 8.034m264.696-381.33c-.514-.292-1.309-.577-2.383-.858-3.605-.238-6.158.965-7.66 3.609l-.156.276c-.605 1.065-.924 2.546-.957 4.441-.135 1.125.086 2.467.66 4.028l-.033.059-.059-.033a10.91 10.91 0 0 0-2.922-2.39l-.178-.101c-.672-.381-1.486-.739-2.443-1.074-3.855-.746-6.654.414-8.395 3.479-.434.763-.74 1.685-.918 2.766-.16 3.406 1.016 5.822 3.527 7.249 3.223 1.83 6.527 1.297 9.912-1.6l.121.02c-11.049 15.265-25.844-1.263-22.943-6.494-7.799 5.396-15.051.558-14.949-6.864 2.469-7.977 9.137-6.823 15.139-4.827-8.299-7.971-17.701-28.435-16.439-36.757l-14.154 56.741 79.76 46.152 40.381-42.801c-6.502 5.346-27.672 8.958-38.77 5.914 4.791 4.133 9.197 9.268 3.611 15.475-6.322 3.889-14.193.139-13.553-9.322-3.008 5.17-24.781.93-17.352-16.439l.102-.178.059.034c-.719 4.358.514 7.442 3.697 9.25.979.452 1.775.748 2.393.889 3.525.193 6.055-1.059 7.586-3.755.447-.789.768-1.704.957-2.744.246-3.374-1.195-5.95-4.326-7.728l-.375-.213a10.04 10.04 0 0 0-3.432-1.218l-.059-.033 1.855-.512c2.773-1.208 4.598-2.582 5.473-4.121.379-.759.676-1.529.895-2.31.367-3.742-.857-6.411-3.672-8.01m119.319-15.677c-.512-.292-1.307-.578-2.383-.858-3.605-.238-6.158.965-7.66 3.609l-.156.276c-.605 1.065-.924 2.546-.957 4.441-.133 1.125.088 2.467.662 4.028l-.033.059-.061-.033a10.91 10.91 0 0 0-2.922-2.39l-.178-.101c-.67-.381-1.484-.739-2.443-1.074-3.855-.746-6.652.414-8.393 3.479-.434.763-.74 1.685-.92 2.766-.16 3.406 1.018 5.822 3.529 7.249 3.223 1.83 6.525 1.297 9.91-1.6l.121.02c-11.047 15.265-25.844-1.263-22.943-6.494-7.797 5.396-15.051.558-14.949-6.864 2.469-7.977 9.137-6.823 15.141-4.827-8.299-7.971-17.701-28.435-16.441-36.757l-14.152 56.741 79.758 46.152 40.383-42.801c-6.502 5.346-27.674 8.958-38.77 5.914 4.789 4.133 9.195 9.268 3.609 15.475-6.322 3.889-14.191.139-13.553-9.322-3.006 5.17-24.781.93-17.352-16.439l.102-.178.059.034c-.717 4.358.516 7.442 3.697 9.25.98.452 1.777.748 2.393.889 3.525.193 6.055-1.059 7.586-3.755.447-.79.768-1.704.959-2.744.246-3.374-1.197-5.95-4.328-7.728l-.375-.213a10.037 10.037 0 0 0-3.43-1.218l-.061-.033 1.857-.512c2.773-1.208 4.598-2.582 5.471-4.121.379-.759.678-1.529.895-2.31.367-3.742-.858-6.412-3.672-8.01m47.712 109.708c-.514-.291-1.309-.577-2.385-.857-3.604-.238-6.158.965-7.658 3.608l-.158.276c-.604 1.065-.924 2.545-.955 4.441-.135 1.124.086 2.467.66 4.028l-.033.059-.059-.034a10.942 10.942 0 0 0-2.922-2.39l-.178-.101c-.672-.381-1.486-.739-2.443-1.074-3.855-.746-6.654.414-8.395 3.478-.434.763-.74 1.685-.918 2.767-.16 3.406 1.016 5.822 3.527 7.249 3.223 1.83 6.527 1.297 9.912-1.6l.121.02c-11.049 15.265-25.844-1.264-22.945-6.494-7.797 5.396-15.049.558-14.947-6.864 2.469-7.977 9.137-6.823 15.139-4.827-8.299-7.97-17.701-28.435-16.441-36.757l-14.152 56.741 79.758 46.152 40.383-42.801c-6.502 5.346-27.672 8.958-38.77 5.914 4.789 4.133 9.197 9.269 3.611 15.475-6.322 3.889-14.193.138-13.555-9.322-3.006 5.17-24.779.93-17.35-16.439l.102-.177.059.034c-.719 4.358.514 7.441 3.697 9.249.979.452 1.775.748 2.391.889 3.527.193 6.055-1.058 7.586-3.755.449-.789.768-1.704.959-2.744.246-3.374-1.195-5.95-4.326-7.728l-.375-.213a10.06 10.06 0 0 0-3.432-1.218l-.059-.034 1.855-.511c2.773-1.208 4.598-2.582 5.473-4.121.377-.759.676-1.529.893-2.31.368-3.741-.855-6.411-3.67-8.009"/></svg>