<svg xmlns="http://www.w3.org/2000/svg" width="500" height="300" xmlns:cgf="https://coding.garden/flags"><metadata id="cgf-metadata">

<cgf:flag>
  <cgf:name></cgf:name>
  <cgf:route>fr/b</cgf:route>
  <cgf:aspect-ratio>1.6666666666666667</cgf:aspect-ratio>
</cgf:flag>

</metadata><path fill="#ED2939" d="M0 0h500v300H0z"></path><g fill="#002395" stroke="#650000" stroke-width="1.075"><path d="M165.38 177.4c-1.06 1.237 1.847 6.726 6.341 6.588-2.931-3.395-2.622-7.343-2.622-7.343l-3.719.755zm-11.16-5.94c-1.62.173-5.53 7.389.704 9.964.199-4.48 3.134-7.139 3.134-7.139l-3.223-2.004-.615-.821z" transform="matrix(1.58749 0 0 2.13647 -8.588 -161.088)"></path><path d="M153.46 167.15c-1.575-1.196-8.382 2.277-8.101 7.458 4.182-3.454 9.135-3.185 9.135-3.185l-1.034-4.273zm7.87-4.19c-.112-1.625-6.032-3.503-9.14-.254 4.469.367 7.017 3.399 7.017 3.399l2.123-3.145zm119.39 15.12c-.108 1.488.42 2.007 1.431 2.843 1.013.836 2.159 3.319 2.159 3.319s3.243-6.541 2.431-7.419c-.811-.878-5.82 1.215-6.021 1.257zm-17.15-2.71c-1.614-.224-4.667 5.184-2.126 8.894 1.277-4.299 4.768-6.169 4.768-6.169l-2.642-2.725zm-7.87-1.63c-1.257-1.036-6.69 1.972-6.468 6.463 3.34-2.993 7.293-2.759 7.293-2.759l-.825-3.704zm4.12-6.94c-.866-1.38-6.971-.242-8.179 4.089 4.114-1.785 7.791-.314 7.791-.314l.388-3.775z" transform="matrix(1.58749 0 0 2.13647 -8.588 -161.088)"></path><path d="M56.274 163.76c.587-1.52-3.981-5.727-8.173-4.1 3.894 2.225 4.918 6.05 4.918 6.05l3.255-1.95zm-17.506 9.5c-1.524-1.371-7.919 2.531-7.538 8.43 3.9-3.901 8.616-3.559 8.616-3.559l-1.078-4.871zm.558-8.35c-.656-1.942-8.143-1.677-10.703 3.652 5.313-1.488 9.255 1.122 9.255 1.122l1.448-4.774zm7.626 15.76c-.41 1.435 0 2.05.82 3.075.82 1.025 1.435 3.691 1.435 3.691s4.511-5.741 3.896-6.766c-.615-1.025-5.946 0-6.151 0z" transform="matrix(1.58749 0 0 2.13647 -7.596 -161.088)"></path><path d="M28.996 114.66c0-2.05-7.179-4.194-11.308.035 5.509.29 8.409 4.024 8.409 4.024l2.899-4.059zm-7.451 8.16c-1.524-1.371-7.919 2.531-7.538 8.43 3.9-3.902 8.616-3.559 8.616-3.559l-1.078-4.871zm26.056-8.87c.693-1.93-5.337-6.375-10.654-3.791 5.086 2.136 6.552 6.631 6.552 6.631l4.102-2.84zm8.513 7.05c1.196-1.106-1.052-6.895-5.532-7.28 2.516 3.712 1.751 7.598 1.751 7.598l3.781-.318z" transform="matrix(1.58749 0 0 2.13647 -8.588 -161.088)"></path></g><path fill="#FFD203" stroke="#650000" stroke-width="1.98" d="M118.48 111.93c-7.154-8.093-.084-22.854 6.329-16.558-3.359-6.041 2.134-10.822 4.627-7.797-1.16-4.916 4.108-8.176 6.692-3.638-.928-5.483 6.885-8.692 8.911-2.701.136-5.39 7.772-9.644 9.458-1.75 1.486-6.076 9.999-6.872 10.705 1.76 2.484-5.021 8.866-4.653 9.237 2.641 2.759-3.43 9.89 1.704 8.675 7.772 4.404-.927 9.785 7.742 4.417 14.132 9.523-4.939 11.772 11.071 5.986 18.339 2.993 1.776 3.256.208 5.896 1.54 2.641 1.333 7.429 3.526 11.81 4.472 3.961 0 18.483-.444 21.453-.888 2.97-.444 7.031-1.952 11.882-3.554 5.081-1.601 12.429-1.66 19.134-3.244 5.312-.581 154.47 2.355 158.76 1.911 4.291-.444 10.553-4.454 10.224-9.34-.33-4.886-5.272-8.428-10.224-8.872-4.951-.444-30.365-.444-34.986.444-4.62.888-11.222 3.109-14.521 6.219-1.586.994-4.208 4.753-6.43 7.226-2.079 1.704-7.951 1.956-7.951-.265 0-1.452-.493.279-1.936.842-1.872 1.14-10.32 1.452-9.946 0 .66-1.644-.044-2.162-2.267-.444-1.65 1.333-13.324 1.823-15.467.504 1.285-2.088 1.295-1.969-2.213-.252-2.221.948-11.418 1.69-12.078-.133-.089-1.438-1.131-.734-2.428-.325-10.424 2.65-11.424-.417-9.774-1.75 1.65-1.332 4.149-8.957 1.509-8.512-2.641.444-19.143 3.553-24.754 4.442-5.611.888-46.207 0-51.818-.444-5.61-.444-11.88-5.578-12.212-12.881-.587-11.715 9.242-14.658 15.182-16.435 5.941-1.777 20.793-4.442 26.734-4.442s22.886 2.043 27.507.267c4.621-1.776 18.653-6.74 22.618-7.107 5.85-.528 22.608 1.398 30.595 10.734-4.158 1.836-6.114 2.917-1.395 1.26 4.29-.889 22.707-4.62 26.998-5.597 14.854-.622 10.957 1.6 3.696 3.376-2.424 7.511-24.248 17.994-31.181 19.326-6.931 1.333-21.64.356-24.929-.226-3.3-.241-18.917-1-24.603-4.581-9.186-6.057-26.158-10.039-33.6-9.9-6.961.135-26.82 2.163-26.733 8.884-.104 11.802 18.483 12.437 26.403 11.993 7.922-.444 27.725-1.333 33.336-3.554 5.61-2.221 17.746-2.767 24.348-2.767 6.601 0 16.248 1.434 19.218.99 2.97-.444 9.901-.545 13.202-2.766s10.477-4.543 17.738-4.543c7.261 0 61.145-2.018 68.405-1.574 10.512-.07 17.938 11.099 18.064 20.597.061 4.441-2.178 11.006-4.079 12.023 3.262.292 11.424 1.186 14.116 1.732 5.056.975 13.251 6.392 14.19 11.327-3.84-2.268-10.037-5.692-15.622-6.066-1.094.013-118.72-.192-127.96-.136 25.134 2.888 44.342 21.707 49.141 32.482 4.291 6.662 14.852 3.997 18.812 3.109 3.961-.889 8.582-4.887 11.883-7.996s8.461-3.898 10.791-3.109c5.13-.444 6.042 4.887 4.062 7.551-1.98 2.666.328 1.57 5.609 1.57 5.28 0 9.937 1.912 13.051 5.946-2.971 2.665-4.468.479-.178.923 4.291.445 9.471 8.096 6.271 10.254-2.797 1.348-3.631.852 0 1.296 5.413.444 6.888 3.853 7.591 9.907-4.582.816-2.311-.58 0 1.642 2.311 2.221 5.677 12.057-2.641 12.437-2.97-1.332-2.916-1.591-2.283 1.432.587 3.109-1.017 10.562-5.638 10.562-6.402 1.199-12.212-2.221-12.872-6.219-.66-3.997-.574 7.715-9.649 9.563-8.57 1.854-13.124-2.9-13.784-5.121s-.33-.444-3.63-.889c-3.301-.444-7.46-.485-9.241-5.774 0-3.109.643-7.208 6.522-7.761 2.641-.444 3.379-3.788 1.398-4.232s-.33-7.107 3.96-5.33c4.291 1.777 14.192 2.221 16.503 4.441s2.971-1.776-.66-5.33c-3.63-3.554-25.743-10.661-31.685-7.995-13.834 6.776-36.966 5.774-40.926 4.886-3.961-.889-15.399 1.535-20.793-14.658-4.375-16.535-21.001-24.707-28.592-25.596-37.448-3.427-35.414-.791-11.127.326-.182 3.088-1.062 9.408 2.875 10.334 6.602-.888 20.34-3.721 23.642-1.055 3.3 2.664 6.601 4.886 5.94 11.104s.33 4.442-2.641 7.106c-2.971 2.666-1.65 7.996 2.971 9.773 4.621 1.775 6.602 3.997 9.572 6.662 2.97 2.665-1.32 7.996-3.961 6.219s-2.641-1.777-2.971 1.777c-.33 3.553-3.611 10.277-9.189 10.771-1.171-.43-.846-2.269-.712-3.665.33-3.109-1.115 3.863-2.841 5.797-1.098 1.305-10.441 3.86-13.082 2.527 1.179-2.781.498-1.646-1.812-.313-2.255.874-14.42 2.518-8.998-3.124 1.406-2.055-1.934 2.567-3.776 3.373-1.548.938-8.767 1.513-8.767-1.152-2.291 1.959-7.744 1.96-8.581.444-1.649-1.776-1.806 1.333-4.776 1.776-2.97.444-9.416-.443-9.746-3.998-.33-3.553.66-1.332-2.97-.888-8.838 5.7-13.202-2.222-13.202-4.886 0-2.666-.33-5.775.66-7.552.99-1.776-6.149-2.312-3.96-5.811 2.461-4.277 5.045-7.413 9.901-6.627 2.311.444 1.98-.888.99-2.665-.99-1.776 2.641-2.665 6.931-.889 4.291 1.777 7.262 6.219 8.582 10.217s11.552.889 15.842 1.332c4.291.445 4.621-6.662 1.98-8.883-2.641-2.222-9.902-10.217-12.872-12.882-2.971-2.665-.99-11.993 1.65-14.214 15.37-10.102 6.931-13.326 1.319-12.437-5.61.888-20.028 6.498-24.649 11.384-4.621 4.886-40.521 28.834-43.821 31.499-3.301 2.665-8.101 3.312-10.081.202s-3.301-.888-2.971 3.555c2.622 16.776-12.873 22.123-15.59 21.911-1.891-.189-4.6-1.212-6.552-2.792-1.926 9.375-10.444 10.308-18.139 9.381-.118-1.105 1.436-3.173.587-2.381-2.544 3.221-10.361 2.882-17.072 2.393-.447-1.96 2.314-4.335.994-3.003-2.253 4.122-6.126 3.384-12.404 2.946-.074-.869 2.909-3.775 1.519-2.036-2.748 2.921-8.471 2.007-12.912 2.079-.526-.654 2.296-5.246-.286-2.212-2.468 2.589-7.694 3.021-12.69 2.327-.889-2.184 1.04-2.205 1.57-3.576 1.32-2.221-.66 0-2.31 0s-3.961.444-4.951-1.777c-.99-2.221-.422 2.222-1.381 3.432-.958 1.049-2.04 3.513-5.34 4.401-3.301.888-11.882 1.776-13.202-2.222-1.778-1.84-2.641-5.773-1.32-7.995 1.32-2.221-6.285 4.285-9.571 4.886-9.666 1.815-10.892-12.881-6.601-14.213 4.291-1.333 3.63-3.555 1.32-5.33-2.311-1.777-3.631-8.885-.66-11.105 2.97-2.221 9.845-3.452 14.192-.889 2.543 1.699 7.988 7.523 6.931 3.109-.736-2.729 1.146-6.199 3.253-7.69 1.829-1.638 7.458-2.055 8.958 1.472 3.478 8.175 5.941 11.694 10.232 11.549 9.14-2.429 21.493-5.18 25.123-5.18 4.659-1.076 29.321-3.428 29.321-5.649-14.791 4.978-20.77-1.465-22.42-1.021-1.65.443-5.713-1.442-5.713-2.682 0-2.665 3.725-2.348-1.557-1.459-3.161-.252-5.977-.395-8.639-3.603-.436-1.64 3.496-7.273 4.924-12.009-3.408-.896-10.945 5.068-13.414 10.328-1.731-2.018-2.433-.185-8.616 1.285-2.917 1.236-7.663.792-10.303-.541-2.64-1.332-12.984-8.955-7.981-9.936-1.316-.626-2.83-.985-3.827-1.252-3.63-1.508-7.062-4.438-6.008-5.24-.919-1.336 1.051-1.33-.402-1.598-1.98-.444-6.857-3.902-5.605-5.238-1.25-.803-4.218-2.041-5.476-2.664-2.311-1.334-4.625-5.958-4.955-8.178-2.129.2-6.672-3.717-4.621-4.886-3.469-2.504-6.421-6.626-4.11-7.959-2.024-1.551-3.438-4.384-2.029-3.323-2.104-2.504-1.452-5.153.198-5.153s.99-7.107-1.98-7.107c-2.97 0-7.748 2.242-11.222 0-2.857-2.125-5.281-11.549-2.641-15.547 2.641-3.998 7.921-8.439 10.562-7.996 2.641.444 1.32 1.333.66-2.665s3.727-7 6.601-7.996c3.484-1.549 10.232-.444 12.212 1.333 1.98 1.777 2.64 1.777 2.64-1.333 0-2.185 2.55-3.323 4.819-3.896 3.779-.867 6.733.177 8.053 1.675 2.051 2.858 3.301 6.219.66 8.884-2.64 2.665-.349.406 3.942-.482 2.763-.888 7.749.257 8.6 3.147 1.146 3.109 1.98 8.44-.99 11.105-2.97 2.665-7.261 9.328-4.951 11.549 2.311 2.221 9.572 11.993 11.222 13.326 1.65 1.332 3.63 4.441 6.271 3.997 2.64-.444 5.611-.888 7.921-1.333 9.169-1.792 13.303-2.725 1.534-2.359 2.642-3.63 8.175-4.7 10.576-5.34-2.114-3.092 5.712-9.624 5.712-10.512l.015.004z"></path><path fill="#002395" stroke="#650000" stroke-width="2.085" d="M133.86 128.19c4.404 7.475 14.907 2.99 17.617 5.98 2.71 2.99-2.633 13.406-4.327 19.387-3.913 5.149-12.631 4.814-15.838.991 1.726-7.143 1.87-22.371 2.208-22.869l.34-3.489z"></path><path fill="none" stroke="#650000" stroke-width="1.98" d="M449.59 209.359c-1.437-3.865-5.745-4.832-5.745-4.832"></path><g fill="none" stroke="#650000" stroke-width="1.808"><path stroke-opacity=".3" d="M175.64 142.12c3.255 6.133 4.212 16.544.535 21.595m-12.255-7.574c3.255 1.752 7.812 12.264 7.161 15.77l-.651 3.504m-7.81-14.895c1.953 5.257 4.557 13.142 3.906 15.771l-.651 2.628M150.9 165.77c1.302 5.257.651 14.018-1.302 15.771l-1.953 1.752m-.005-16.643c-1.953 6.133-3.906 14.894-3.906 14.894"></path><path stroke-opacity=".299" d="M116.4 150.01c-3.255 2.629-7.812 8.762-7.812 8.762m11.712-.002c-5.208-3.504-11.067 2.629-11.067 2.629"></path></g><g fill="none" stroke="#600"><path stroke-width="2.371" d="M191.97 110.45c-3.433 1.517-2.926 9.43-2.926 9.43"></path><path stroke-width="2.08" d="M118.96 99.435c3.665 2.517 2.199 10.065 2.199 10.065"></path></g><path fill="#390000" fill-opacity=".599" d="M114.42 168.529c-1.4 4.097-3.708 7.267-3.342 9.812l-2.159-.955c1.693.586-1.926-6.624-2.801-5.266l2.026-1.437.469-.79 1.009-.491 4.798-.873z"></path><g fill="none" stroke="#650000"><path stroke-width="1.98" d="M34.185 93.047c7.129.686 10.693 6.168 12.221 10.965 1.527 4.797 2.546 7.538 2.546 7.538M67.286 90c-4.074 4.797-3.564 13.706-3.564 13.706m122.518 88.733c2.513-8.678 7.226-10.633 13.122-13.471 6.104-2.416 15.396-9.725 9.65-4.409-5.745 5.315-14.034 8.698-16.906 10.632-2.873 1.934-4.668 6.242-3.202 8.215"></path><path stroke-width="1.98" stroke-linecap="round" d="M174.18 159.58c5.386 8.698 2.058 20.805-4.764 24.188"></path><path stroke-width="1.98" d="M192.14 129.62c8.743 3.53 9.054 11.838 10.313 16.748-3.082-1.386-5.321-.72-7.634-1.743m-9.429 13.596c0 7.731-5.493 10.904-8.006 11.87M54.87 84.545c.718 4.349-.359 5.316-1.437 9.182-1.077 3.866.359 10.632.359 10.632M421.38 167.46c-3.591-.483-8.977 1.45-8.977 1.45m25.667 5.21c-5.027 1.933-10.772 2.416-10.772 2.416m17.232 8.734c-4.31-.482-7.541-.482-7.541-.482m15.921 10.972c-4.309-.482-11.131 0-11.131 0m-34.509 22.59c1.078-5.799 8.213-10.445 12.163-10.445h3.95m-22.043-2.376c4.309-1.449 11.131-1.932 11.131-1.932M110.51 128.12c-11.991 6.137-14.039 11.562-12.169 24.489"></path><path stroke-width="1.966" d="M160.67 155.02c.698 6.901 1.111 26.18-6.223 31.108s-16.518 5.511-23.686 3.146"></path><path stroke-width="1.98" d="M144.44 165.71c-.72 6.784-7.718 23.679-21.353 21.358M358.68 119.1c1.796-5.316 10.055-10.148 10.055-10.148m-22.065 9.868c3.591-6.282 10.055-10.148 10.055-10.148M329.15 119.4c5.455-3.196 6.988-4.458 8.779-6.105 1.934-1.839 5.745-5.315 5.745-5.315"></path><path stroke-width="1.885" d="M313.93 119.21c3.996-2.03 7.089-3.222 9.765-5.148 3.358-2.291 5.68-5.39 5.68-5.39"></path><path stroke-width="1.98" d="M317.2 102.43c-12.69-4.201-18.37-12.544-18.37-12.544m39.5-5.241c-8.406 3.409-25.494 1.933-26.213 1.933M122.01 182.721c4.309-3.383 7.7-10.352 7.7-10.352"></path><path stroke-width="2.143" d="M118.5 147.98c-6.326-.969-22.329 12.511-17.167 29.273"></path><path stroke-width="2.466" d="M107.51 139.65c-8.147 2.126-11.466 16.622-7.125 24.417"></path><path stroke-width="1.808" d="M188.69 134.4c5.939 7.9 8.201 12.73 8.544 15.483.56 4.778.588 16.562-13.449 16.371 1.308-3.512 2.961-12.779.715-16.501"></path><path stroke-width="3.845" stroke-linecap="round" d="m167.88 104.35-.651 3.963"></path><path stroke-width="3.119" stroke-linecap="round" d="M141.1 97.197c-.765 2.981-2.121 6.043-2.121 6.043"></path><path stroke-width="1.98" d="M151.3 90.306c1.019 8.909-3.055 13.706-5.601 13.706s-5.389 3.325-3.826 8.671m20.067-23.748c-4.583 6.167-5.601 13.021-4.073 18.503 1.527 5.482.079 7.076.079 7.076m24.414 4.576h-5.601s-3.564 7.539-9.675 5.482c-6.11-2.056-.509 0-.509 0"></path><path stroke-width="1.98" d="M152.32 112.8c8.719.22 6.965 6.971.509 6.286.509 8.224-9.636 7.187-8.768.887-6.101.18-8.604-8.14.258-6.989m19.811 10.836c.359 9.182-16.877 15.947-16.518 1.933"></path><path stroke-width="1.995" d="M147.56 126.24c-.365 6.766-9.849 8.215-13.132 2.416-2.554-3.866-4.013-5.799-5.836-6.282s-1.619-6.11-1.988-6.938c-.221-1.125-1.402-4.032-1.992-5.125"></path><path stroke-width="1.98" d="M174.54 98.209c-4.309 4.349-4.668 4.833-4.668 4.833m8.978 3.378c-5.746.483-6.055.233-6.055.233"></path><path stroke-width="2.243" d="M158.4 103.16c4.248-1.515 14.134-.241 13.991 3.281.006 4.325-3.865 4.589-14.078.497l.087-3.175v-.603z"></path><path stroke-width="1.822" d="M145 103.61c.529-5.137-9.791-10.204-12.304-7.338-3.061 4.736 5.624 8.959 7.927 8.959 2.154 0 .878.268.878.268"></path><path stroke-width="1.98" d="M173.03 122.85c-3.906 10.513-.651 20.15-.651 20.15m-45.569-17.53c-3.255 2.628-5.859 1.752-5.859 1.752"></path><path stroke-width="2.084" d="M133.15 125.94c-.404 9.602-5.755 14.721-5.755 14.721"></path><path stroke-width="2.301" d="M127.75 121.48c-2.755 10.464.773 18.872.773 18.872"></path><path stroke-width="2.075" d="M155.01 133.73c-.653 9.5 4.086 15.409 4.086 15.409"></path><path stroke-width="2.291" d="M160.85 130.23c1.581 10.734-2.838 18.413-2.838 18.413"></path><path stroke-width="1.98" d="M193.48 124.18c1.067.516 3.798.043 8.822 2.089-2.079 2.978-7.438 4.709-9.526 3.838M40.26 132.07c3.056 1.371 8.657 0 8.657 0"></path><path stroke-width="1.801" d="M43.235 139.46c6.744 2.056 13.488-1.371 13.488-1.371"></path><path stroke-width="1.98" d="M74.922 169.109c7.129-2.055 11.712-6.167 11.712-6.167M52.975 205.84c3.591-.967 11.131 0 11.131 0m2.254 11.42c2.155-3.866 7.182-7.248 7.182-7.248m33.138 12.398c1.795-2.416 1.795-10.148 1.795-10.148m11.305 10.088c2.858-3.17 3.015-9.975 3.015-9.975m7.395 9.795c2.873-5.316 2.403-11.459 2.403-11.459M146.5 222.76c1.795-2.899 1.795-9.665 1.795-9.665m114.575-5.675c-6.464-1.449-10.413 7.249-10.413 7.249m18.902-8.649c-.718 6.283-5.744 12.082-5.744 12.082m15.935-12.612c-.358 5.316-6.104 12.564-6.104 12.564m18.775-14.684c-.946 7.07-6.115 12.37-6.115 12.37m15.444-14.86c.359 6.282-2.872 15.947-5.026 17.88m16.156-15.199c1.078 3.383 0 8.215 0 8.215m-70.22-21.396c4.309.967 6.823 5.8 6.823 5.8m-14.173 6.33c2.265-7.607 12.022-3.891 13.202-1.85"></path><path stroke-width="1.98" stroke-linecap="round" d="M205.95 188.09c-6.178 2.049-9.075 2.191-11.094.379"></path><path stroke-width="1.913" stroke-linecap="round" d="M212.83 183.04c-5.42 2.05-8.507 2.752-11.198 1.08"></path><path stroke-width="1.56" stroke-linecap="round" d="M222 176.859c-3.604 2.05-5.657 2.753-7.446 1.08"></path><path stroke-width="1.726" stroke-linecap="round" d="M228.36 172.1c-4.411 2.05-6.923 2.752-9.114 1.08"></path><path stroke-width="1.98" d="M54.341 84.545c.718 4.349-.359 5.316-1.436 9.182-1.077 3.866.359 10.632.359 10.632M67.99 90c-4.074 4.797-3.564 13.706-3.564 13.706"></path><path stroke-width="2.003" d="M34.713 92.099c7.299.685 10.948 6.167 12.512 10.965 1.564 4.797 2.606 7.538 2.606 7.538"></path></g></svg>