<svg xmlns="http://www.w3.org/2000/svg" width="500" height="300" xmlns:cgf="https://coding.garden/flags"><metadata id="cgf-metadata">

<cgf:flag>
  <cgf:name></cgf:name>
  <cgf:route>fr/c</cgf:route>
  <cgf:aspect-ratio>1.6666666666666667</cgf:aspect-ratio>
</cgf:flag>

</metadata><path fill="#ffd203" d="M0 0h500v300H0z"></path><g stroke="#08672f"><g fill="none" stroke-width="8.71"><circle cx="154" cy="37" r="14.4"></circle><circle cx="250" cy="37" r="14.4"></circle><circle cx="346" cy="37" r="14.4"></circle></g><path d="M150.74 56.012c0 3.108.152 147.52.152 150.74.46 21.202 42.216 20.936 42.102-.267.804-3.221.23-34.001.23-36.767h32.34c0 3.688-1.031 87.796-1.031 90.902 2.104 24.217 43.324 24.033 45.85.69 0-4.026-.115-88.597-.115-91.363h32.034s-.459 33.085-.459 36.653c.46 23.395 43.327 22.268 42.754-.09-.114-3.913 1.225-147.63 1.225-150.86" fill="#ed2939" stroke-width="14.276"></path></g></svg>