<svg version="1" xmlns="http://www.w3.org/2000/svg" xmlns:xlink="http://www.w3.org/1999/xlink" width="600" height="360"><g id="d"><path fill="#009" d="M0 0h300v180H0z"/><g id="a" fill="gold" stroke="#000" stroke-width=".192"><path d="M23.7 6.694c3.377 3.313 5.363 5.14 5.71 10.28.32 4.757-3.167 8.735-3.92 13.336-.142.873-.264 2.654-.135 3.377.095.535.388 2.17.709.147.066-.416.113-2.503.315-3.563.368-1.931 1.547-5.326 3.593-7.208 2.045-1.88 5.285-3.1 8.175-2.116 2.618 1.096 2.865 4.192 2.12 6.456-.933 2.836-4.498 4.798-7.694 4.99.633-1.136 2.149-4.38.505-4.252-1.903.15-4.18 3.088-4.773 5.104-.223.76-.133 1.938-1.328 1.89.788 2.416 3.013 4.015 4.962 5.702-2.032.153-4.042-.715-5.814-1.541.075 1.656-.28 5.156-2.425 7.067-1.992-1.968-2.173-4.368-2.21-7.067-1.773.826-3.783 1.694-5.814 1.54 1.948-1.686 4.173-3.285 4.96-5.702-1.194.049-1.266-1.056-1.49-1.815-.592-2.016-2.706-5.028-4.61-5.178-1.644-.128-.128 3.116.506 4.253-3.197-.193-6.762-2.155-7.695-4.99-.745-2.265-.497-5.36 2.12-6.457 2.89-.984 6.13.236 8.175 2.116 2.046 1.882 3.225 5.277 3.593 7.208.202 1.06.168 3 .234 3.416.32 2.022.695.535.79 0 .13-.723.007-2.504-.136-3.377-.751-4.601-3.91-8.74-3.918-13.336-.008-4.15 2.29-7.306 5.495-10.28z"/><rect x="16.012" y="33.315" width="15.59" height="2.289" rx=".8" stroke-linejoin="round"/></g><g id="b"><use xlink:href="#a" x="50.5"/><use xlink:href="#a" x="101"/><use xlink:href="#a" x="151.5"/><use xlink:href="#a" x="202"/><use xlink:href="#a" x="252.5"/></g><use xlink:href="#b" x="-25.25" y="32"/><use xlink:href="#a" y="64"/><use xlink:href="#b" y="64"/><use xlink:href="#b" x="-25.25" y="96"/><use xlink:href="#a" y="128"/><use xlink:href="#b" y="128"/><path d="M10 10h280v160H10z" fill="none" stroke="#fff" stroke-width="20"/><path d="M0 0h50v20H20zm100 0h50v20h-50zm100 0h50v20h-50zm100 0v45h-20V20zm0 90v45h-20V90zm0 90h-50v-20h30zm-100 0h-50v-20h50zm-100 0H50v-20h50zM0 180v-50h20v30zm0-90V45h20v45z" fill="red"/></g><g id="c"><path fill="red" d="M300 0h300v180H300z"/><path fill="#009" d="M330 30h240v120H330z"/><path d="M570 70V30h-80zM410 30h-80l240 120v-40zm-80 40v40l80 40h80z" fill="gold"/></g><use xlink:href="#c" x="-300" y="180"/><use xlink:href="#d" x="300" y="180"/></svg>