<svg xmlns="http://www.w3.org/2000/svg" xmlns:xlink="http://www.w3.org/1999/xlink" width="1350" height="900" xmlns:cgf="https://coding.garden/flags"><metadata id="cgf-metadata">

<cgf:flag>
  <cgf:name></cgf:name>
  <cgf:route>fr/e</cgf:route>
  <cgf:aspect-ratio>1.5</cgf:aspect-ratio>
</cgf:flag>

</metadata><path fill="#fff" d="M0 0h1350v900H0z"></path><path d="M600 0h1350v100H600zm0 200h1350v100H600zM0 400h1350v100H0zm0 200h1350v100H0zm0 200h1350v100H0z"></path><use xlink:href="#a" x="-225" y="-122.5"></use><use xlink:href="#a" x="-75" y="-122.5"></use><use xlink:href="#a" x="75" y="-122.5"></use><use xlink:href="#a" x="225" y="-122.5"></use><use xlink:href="#a" x="-150"></use><g id="a"><use xlink:href="#b" transform="rotate(-90 300 167.5)"></use><path id="b" d="m300 167.5-9-13.5 9-22.5 9 22.5z"></path><use xlink:href="#b" transform="rotate(90 300 167.5)"></use><path d="m300 167.5 40.5 99L309 253l-9 18-9-18-31.5 13.5z"></path></g><use xlink:href="#a" x="150"></use><use xlink:href="#a" x="-225" y="122.5"></use><use xlink:href="#a" x="-75" y="122.5"></use><use xlink:href="#a" x="75" y="122.5"></use><use xlink:href="#a" x="225" y="122.5"></use></svg>