<svg xmlns="http://www.w3.org/2000/svg" xmlns:xlink="http://www.w3.org/1999/xlink" width="600" height="360"><path fill="#fff" d="M0 0h600v360H0z"/><g fill="#ed2939"><path d="M40 40L0 0h100v360h100V0h100v360h100V0h100v360h100l-40-40z"/><path d="M40 320L0 360v-90h600v-90H0V90h600V0l-40 40z"/></g><path fill="#002395" d="M40 40h520v280H40z"/><g fill="#fff"><path d="M0 75h560v15H0z"/><path id="a" d="M90 80L76 90l-14 28h56l-14-28z"/><use xlink:href="#a" x="210"/><use xlink:href="#a" x="420"/></g><g id="b" fill="#ffd203"><path d="M188.887 200.48c14.62-5.788 21.817-14.55 22.589-26.919.496-7.435-6.923-16.157-14.866-16.358-24.814-.672-33.11 39.797-32.96 49.674 1.048-.003 6.209-.106 7.49-.056 1.131-6.238.16-13.88 8.089-20.324 7.928-6.445 11.434-1.534 12.425 2.432.991 3.965-3.66 11.954-2.767 11.551zM122.613 200.48c-14.62-5.789-21.817-14.55-22.589-26.919-.496-7.435 6.923-16.157 14.866-16.358 24.814-.672 33.11 39.797 32.96 49.674-1.048-.003-6.209-.106-7.49-.056-1.131-6.238-.16-13.88-8.089-20.324-7.928-6.445-11.434-1.534-12.425 2.432-.991 3.965 3.66 11.954 2.767 11.551z"/><path d="M155.956 110c16.861 17.538 21.389 35.375 10.147 63.948-3.856 9.543-5.488 20.995-5.33 32.898-1.632.038-8.58-.042-10.226-.159.145-11.758-1.804-24.133-5.646-33.835-13.019-29.179-3.636-48.972 10.608-62.852h.224zM164.814 213.585c3.452 9.216 9.545 12.699 14.526 15.14-7.591 3.595-16.365-.309-18.016-2.168.201 2.598.407 9.621-.542 14.364-.642 3.824-2.268 6.028-5.012 9.079-2.845-2.981-4.604-5.384-5.552-8.771-1.153-4.919.066-11.895-.035-14.5-1.317 1.62-11.816 5.518-18.725 2.13 6.432-2.804 12.665-6.07 14.694-15.447.752.047 16.766.037 18.662.037z"/><path d="M135.562 206.25h39.951V214h-39.951z"/></g><use xlink:href="#b" x="144.25" y="50"/><use xlink:href="#b" x="288.5"/></svg>