<svg xmlns="http://www.w3.org/2000/svg" width="150" height="100" version="1"><path fill="#fff" d="M0 0h150v100H0z"/><path d="M58.75 16.75c-4.352 0-8.714 1.651-12.031 4.969-6.636 6.635-6.636 17.396 0 24.031l4.25 4.25L75 74.031 99.031 50l4.25-4.25c6.636-6.635 6.636-17.396 0-24.031-6.635-6.636-17.396-6.636-24.031 0L75 25.969l-4.25-4.25a16.891 16.891 0 0 0-12-4.969z" fill="#ffce08"/><path d="M91.25 83.25c4.352 0 8.714-1.651 12.031-4.969 6.636-6.635 6.636-17.396 0-24.031L99.031 50 75 25.969 50.969 50l-4.25 4.25c-6.636 6.635-6.636 17.396 0 24.031 6.635 6.636 17.396 6.636 24.031 0l4.25-4.25 4.25 4.25a16.891 16.891 0 0 0 12 4.969z" mask="url(#mask11418)" fill="#009c00"/><path fill="#ffce08" d="M46.716 45.757l12.02-12.02L87.022 62.02 75 74.041z"/></svg>