<svg xmlns="http://www.w3.org/2000/svg" width="900" height="600"><path fill="#06C" d="M0 0h900v600H0z"/><path fill="#FFD203" d="M35 0v30h30V0H35zm200 0v30h30V0h-30zm200 0v30h30V0h-30zm200 0v30h30V0h-30zm200 0v30h30V0h-30zM135 70v60h30V70h-30zm200 0v60h30V70h-30zm200 0v60h30V70h-30zm200 0v60h30V70h-30zM35 170v60h30v-60H35zm200 0v60h30v-60h-30zm200 0v60h30v-60h-30zm200 0v60h30v-60h-30zm200 0v60h30v-60h-30zM135 270v60h30v-60h-30zm200 0v60h30v-60h-30zm200 0v60h30v-60h-30zm200 0v60h30v-60h-30zM35 370v60h30v-60H35zm200 0v60h30v-60h-30zm200 0v60h30v-60h-30zm200 0v60h30v-60h-30zm200 0v60h30v-60h-30zM135 470v60h30v-60h-30zm200 0v60h30v-60h-30zm200 0v60h30v-60h-30zm200 0v60h30v-60h-30zM35 570v30h30v-30H35zm200 0v30h30v-30h-30zm200 0v30h30v-30h-30zm200 0v30h30v-30h-30zm200 0v30h30v-30h-30z"/><path fill="#ED2939" stroke="#000" stroke-width="3" d="M325.7 86.425c4.399-10.067 1.236-13.173-4.809-16.178 5.334-2.999 14.543-1.835 18.341 5.18 4.991 9.219.869 17.102-2.543 20.356L325.7 86.425zm-30.47-.061c-1.824-9.936.156-14.509-16.241-13.987 1.891-2.855 9.6-11.443 21.804-6.654 7.207 2.828 8.442 11.27 9.108 16.457l-14.671 4.184zm-18.06 21.456c-6.239-7.692-5.056-17.972-20.412-9.011 5.22-15.898 14.471-16.323 19.977-13.775 6.941 3.213 11.904 7.687 11.904 7.687L277.17 107.82zm28.35 46.91c-14.725 9.105-29.601 7.547-33.871-12.373 9.675 6.139 17.626 6.46 24.662-2.382l9.209 14.755z"/><path fill="#FFD203" stroke="#000" stroke-width="3" d="M318.46 165.09c-.034 5.445-.096 11.238-1.877 16.073 3.354-2.459 6.555-5.696 7.381-9.518 3.531 8.544-3.638 18.948-4.289 27.686 2.695-2.72 8.869-6.449 10.636-10.297 3.32 10.435-7.353 11.363-4.401 31.538 2.762-6.804 8.262-12.028 10.874-16.603 3.317 12.329-5.977 11.963-2.193 33.427 1.955-5.52 7.664-14.13 10.633-15.951 1.621 2.47 3.764 11.881 6.219 14.76 3.145-15.8 12.37-.123 17.037 2.063 21.292-3.818 35.225-17.707 36.841-48.449 0 0-2.104-3.687-7.016-8.078-5.334-4.767-12.266-9.27-20.082-15.357-8.822-6.871-16.072-12.402-22.717-19.817s-9.582-13.784-13.904-18.958c-6.085-7.285-9.849-15.093-9.669-18.539.219-4.216 4.391-4.96 6.525-11.487 2.539-7.767-4.817-17.041-12.511-16.573-4.386.267-5.605 8.27-8.091 9.67-.586.33-1.257.4-2.08.073-4.312-1.712.545-14.258-6.57-15.44-7.116-1.181-13.03.462-17.561 7.126-3.643 5.357 6.784 10.221 6.879 13.578.021.752-1.643 1.684-2.398 1.595-.499-.059-7.43-9.098-13.652-7.652-4.849 1.127-10.465 6.161-9.574 13.957.771 6.741 9.477 8.034 13.637 8.877 4.932 1 14.737 16.268 13.238 22.591-.76 5.14-8.244 2.387-10.414 8.158-2.783 7.401 2.359 16.469 9.137 16.085 5.071-.288 11.051-6.295 13.345-6.295 5.512.488 6.655 5.71 6.617 11.757z"/><path fill="#ED2939" stroke="#000" stroke-width="3" d="M294.53 297.23c-3.964-3.951-8.562-5.063-15.154-2.252 1.309-3.847 7.52-10.589 14.166-9.929 5.314.528 10.684 4.979 10.684 4.979l-9.696 7.202zm-16.66 30.45c-12.34-2.271-17.3-.116-23.751 6.931-.707-2.019.912-12.22 7.525-16.854 6.75-4.729 16.17-3.658 16.17-3.658l.056 13.581zm8.06 22.51c-12.46 2.831-13.633 11.989-14.662 18.399-2.714-1.347-8.72-8.374-6.163-17.562 2.397-8.615 13.103-12.342 13.103-12.342l7.722 11.505zm21.6 8.81c-3.806 8.307-5.233 14.266-.049 22.625-2.885-.126-13.137-1.793-15.958-9.858-2.315-6.62 1.04-12.293 2.866-16.059L307.53 359zm55.27 154.2c4.48 10.073.796 13.511-6.304 16.952 3.054 1.305 12.255 1.793 16.917-3.404 5.123-5.711 4.138-15.996 3.481-15.996L362.8 513.2zm-22.49 4.8c-6.715 1.451-13.386 6.029-12.411 16.494-2.929-1.264-9.037-7.4-6.378-15.358 2.466-7.381 11.149-11.41 11.149-11.41L340.31 518zm-12.91-18.75c-7.278-2.629-12.408-6.228-21.342 3.161-.5-2.477-2.528-9.692 6.089-16.07 6.281-4.649 14.093-3.154 16.775-2.462L327.4 499.25zm5.81-21.67c-5.077-6.786-6.762-11.085-18.072-7.246.34-1.426 5.307-11.494 15.174-11.033 7.058.33 11.162 4.682 11.429 6.621-2.069 2.47-5.121 6.736-8.531 11.658z"/><path fill="#FFD203" stroke="#000" stroke-width="3" d="M424.24 340.65c-6.544 3.265-18.829 10.599-27.584 14.209-18.991 7.83-32.807 23.109-31.441 38.688.586 6.686.716 11.373-1.481 15.007-5.388 8.912-18.378 10.399-19.526 10.428 8.827 5.447 15.46 5.754 23.859.079 10.062-6.797 15.558 15.026 22.917 23.449 2.485 2.844-4.78 8.569-13.846 14.172-2.95 1.823-7.993 8.251-10.743 10.331-2.848 2.154-7.577 3.765-9.658 3.365-2.152-.413-10.825-5.396-16.328-5.021-5.122.35-10.776 3.694-10.84 8.095-.101 7.021 8.688 6.185 10.354 7.965 1.61 1.722.257 4.189-1.503 3.915-2.088-.326-9.661-4.594-12.958-1.927-2.484 2.01-4.066 5.441-2.937 12.674.957 6.131 10.783 4.067 14.395 2.886 2.94-.962 3.331 2.131 1.74 3.405-1.711 1.372-11.71 3.651-11.133 7.835.577 4.183 5.584 8.852 11.5 9.793 4.651.739 15.775-9.73 17.391-10.896 1.924-1.388 3.776-2.844 4.615-2.48 5.698 2.464-3.236 7.87.979 10.603 4.479 2.903 9.439 1.293 14.116.205 9.609-2.236.257-18.274 2.263-19.225 3.441-2.864 10.348-3.375 13.359-5.774 5.05-4.024 14.841.718 21.234-1.304-2.612-2.982-6.759-7.425-3.034-8.292 2.433-.566 11.907 4.801 19.156 3.101-5.8-3.492-9.64-9.169-7.376-11.475 1.312-1.337 6.416 2.079 9.315 2.499 5.153.746 10.209-.145 17.145-3.672-3.91-1.148-9.274-4.371-9.088-6.715.285-3.596 5.869-2.285 7.236-10.443.862-5.143-3.705-9.027-5.737-11.172-9.32-9.835-17.7-38.055 8.71-56.437 14.363-9.997 37.493-7.413 38.82-10.836 10.576-27.286-13.181-53.062-24.037-59.693-6.619-4.044-19.015 12.26-39.854 22.658z"/><path fill="#FCEF3C" stroke="#000" stroke-width="3" stroke-linecap="round" d="M419.81 435.71c4.334 3.426 5.18 8.686 3.156 13.761"/><path fill="#ED2939" stroke="#000" stroke-width="3" d="M562.58 541.1c-2.393 5.772-1.637 12.24 5.077 17.254-2.851 1.432-11.145 1.951-15.865-4.985-4.389-6.449-1.979-10.672-1.039-13.077l11.827.808zm-21.65-1.84c-8.741 4.36-10.974 11.803-9.299 19.638-2.005-.504-9.873-3.415-9.938-14.136-.064-10.731 8.146-13.886 8.146-13.886l11.091 8.384zm-11.24-15.56c-8.138-5.447-13.14-4.256-18.423 6.456-.767-1.249-4.375-11.88 2.929-18.531 5.225-4.757 11.724-3.383 13.284-2.201l2.21 14.276zm8.93-21.98c-7.271-7.145-11.706-6.718-18.236-2.29.397-3.297 4.574-11.51 11.406-12.948 7.507-1.581 14.54 3.73 15.593 4.983-3.297 3.782-6.569 7.538-8.763 10.255z"/><path fill="#FFD203" stroke="#000" stroke-width="3" d="M577.11 522.72c.646-1.336 2.184-3.428 2.592-3.883 2.2-2.449 3.588-3.818 4.812-5.878 2.062-3.469 2.513-6.778 5.972-8.086 5.444-2.058 14.976-5.926 17.381-10.008-5.349.233-13.895.336-13.989-2.091-.077-1.987 1.26-3.561 2.541-4.532 2.184-1.655 17.222-3.812 23.22-9.171-5.126-.024-14.864-1.474-16.209-3.271-.402-.536 1.088-4.419 3.116-4.51 5.737-.258 17.76-.608 24.111-11.008-11.608 2.238-17.378-1.492-16.925-4.854 1.341-9.938 8.834-11.296-.661-19.63-2.668-2.342-13.799-4.213-13.044-10.196.399-3.173 9.413-9.063 13.812-11.639-2.864-.242-8.403.037-12.53 1.36-3.482 1.117-7.678 4.253-13.185 3.628-3.407-.387-7.777-4.34-12.025-8.566-4.657-4.635-8.513-11.124-14.23-22.124-1.15-2.211-7.294-20.981-5.39-20.684 19.334 5.411 43.521 11.611 60.606-13.835 6.939-10.336 7.379-25.813 5.521-37.327-1.326-8.222-2.397-21.253-1.92-27.016.736-8.881 3.697-7.04 2.428-17.844-3.522 5.239-6.517 6.593-11.055 12.468-.718-12.965 14.08-22.814 11.132-32.261-6.665 11.208-13.042 13.183-19.05 22.452-.381-8.078 3.013-15.837 9.42-21.917 6.729-6.385 10.673-13.191 8.793-21.881-7.639 16.363-17.019 13.964-27.92 32.419-1.568-10.408 6.378-19.605 13.623-26.663 9.772-9.519 15.525-17.988 13.11-26.937-3.149 5.889-9.443 12.94-17.012 19.095-8.202 6.671-13.366 13.515-18.679 23.93-3.077-15.267 11.591-29.507 16.314-33.838 9.668-8.866 20.004-22.349 17.126-31.429-3.366 5.822-12.687 16.844-21.091 23.085-8.277 6.147-17.062 18.683-21.742 27.477-2.874-11.402 10.978-30.502 19.744-38.35 10.393-9.305 27.271-24.882 24.604-36.945-2.157 6.167-21.207 23.24-29.003 29.102-7.725 5.808-16.902 17.91-21.38 28.768-2.944-9.918 6.544-27.554 15.587-37.891 9.367-10.707 20.641-20.17 27.044-25.876 12.754-11.366 31.948-29.104 33.295-55.827.801-15.883-8.11-32.532-24.732-39.009-9.748-3.798-23.905-4.05-33.59-1.624-9.427 2.362-18.742 6.941-25.798 17.144-5.646 8.167-7.296 17.66-6.52 25.004 1.296 12.263 6.634 17.629 6.854 29.01.105 5.747-.472 12.516-3.744 20.624-2.662 6.594-6.178 11.574-10.578 14.867 5.712-.283 10.985-1.362 16.004-4.023 9.691-5.14 17.695-16.332 19.146-24.384 2.567-14.243-4.313-25.795-3.982-39.18.209-8.411 7.609-19.63 21.145-20.13 17.93-.661 24.768 9.832 24.247 22.226-.522 12.435-9.568 25.356-21.406 35.934-10.171 9.088-20.891 17.937-31.438 28.935-8.225 8.578-24.396 26.731-24.364 50.264.022 17.439 5.447 31.405 13.7 43.904 8.254 12.499 18.647 24.94 24.878 29.511 22.013 20.051 24.747 60.742.367 62.446-12.448.869-28.066-1.717-34.177-17.063-4.276-10.736-8.095-21.599-16.205-32.748-6.23-8.566-22.621-23.062-23.773-34.708-1.503-15.094-2.192-31.229-1.454-39.118 2.022-21.616-5.178-41.733-25.76-48.161-12.168-3.8-46.345-7.514-65.635 14.933-9.856 11.469-12.785 26.99-21.229 42.187-8.442 15.198-8.761 10.436-16.218 17.774-7.458 7.337-14.232 13.056-16.384 14.528-4.303 2.944-5.829 3.549-13.049 9.325s-13.662 11.166-14.855 12.569c-2.385 2.805-15.39 8.292-18.325 8.03-1.811-.161-7.174-8.905-11.048-9.526-4.855-.779-16.153 2.915-16.134 9.062.01 3.292 8.933 6.194 7.626 9.919-.889 2.535-7.794 5.195-10.903 4.562-1.777-.362-6.948-3.198-11.105-1.97-7.767 2.296-9.869 13.648-5.125 17.933 2.412 2.178 11.513-.796 12.91-.029 1.583.869 2.601 1.559 1.808 3.345-.86 1.938-12.224 1.71-13.594 4.24-4.663 8.614 2.578 20.551 11.357 16.469 2.949-1.371 5.745-3.618 7.705-5.119 1.739-1.331 3.428.243 3.631 1.21.463 2.201-7.595 7.578-6.416 10.905 2.268 6.399 16.022 7.74 19.222 2.27 2.483-4.245 7.5-14.29 8.457-15.661.478-.685 3.781-1.547 8.996-3.394 5.215-1.848 6.595-.683 10.886-2.97 5.854-3.121 10.166 6.306 18.029 6.792-1.716-4.522-2.43-9.159.791-12.752 5.354 4.835 16.051 8.3 23.255 8.482-1.777-2.327-3.295-4.84-3.515-7.583 4.94 4.373 11.4 5.142 13.81 4.537-4.999-5.142-7.743-13.707-2.265-17.219 3.285-2.096 7.427-3.882 10.53-6.41 1.824 3.864 11.541 8.873 20.305 7.635-4.715-3.365-8.815-5.997-9.971-12.299 2.038 1.326 10.697 10.995 23.847 9.21-7.814-5.776-10.965-15.855-7.644-21.119 3.322-5.264 5.354-12.292 9.778-6.276s6.192 8.236 11.288 13.69c5.482 5.868 12.801 11.592 17.582 15.104 5.401 3.969 10.446 8.338 15.061 14.711 5.912 8.164 8.834 17.496 8.822 28.934-.006 5.869.563 11.2 1.574 17.092.636 3.699 1.749 10.476 1.18 14.34-.887 4.1 1.428 19.088 3.691 23.06 1.284 2.253 1.623 6.127 2.247 9.26 1.495 7.508.651 8.17-2.217 14.71-1.457 3.323-2.693 13.505 1.075 23.534 3.291-17.476 8.61-14.15 12.41-26.912 1.934-6.491 2.542-12.011 1.546-17.793 7.336 5.924 16.406 9.824 22.365 14.923 2.257 1.932 12.496 11.078 15.047 12.98 5.223 4.854 4.511 4.001 12.534 9.956.592 1.1 2.215 8.663 2.257 10.622.013.567.438 5.088-1.039 10.326-1.308 4.636-3.812 9.851-6.473 11.586-2.737 1.786-3.686-5.002-6.872-4.373-4.215.831-12.674 7.395-11.423 11.45 1.218 3.945 11.052 2.199 7.467 4.302l-4.585 2.688c-2.818 1.652-3.852-2.184-9.877-1.101-7.403 1.332-9.167 10.558-4.982 15.424 2.753 3.203 8.414.995 8.414.995 6.311-1.623 8.545.602.591 2.88 0 0-7.673 2.357-6.555 8.46.763 4.163 6.658 8.434 9.794 7.822 4.162-.812 8.776-3.576 10.079-5.99 2.442-4.528 4.622-1.898 2.914 1.7-.971 2.044-2.622 6.398.307 8.512 3.569 2.574 11.938.845 14.498-1.759 3.918-3.986 3.184-10.186 2.157-11.938 6.606-2.222 10.038-6.455 11.909-10.326v.004z"/><path fill="#FCEF3C" stroke="#000" stroke-width="3" stroke-linecap="round" d="M583.34 429.87c6.534 1.501 8.755 7.311 8.931 13.761"/><path fill="#FFD203" stroke="#000" stroke-width="3" d="M456.79 318.99c10.397 8.245 18.266 24.91 18.429 35.753-8.127 16.975-4.755 26.01 4.507 25.689 7.558-.256 8.41-8.794 7.435-19.049-.871-9.148-2.927-15.632-7.93-23.08-6.533-9.724-19.207-19.466-22.441-19.313zM422.2 130.28c-3.247-1.876-6.242-8.651-6.429-10.26l9.547-.792c.263 1.992-1.04 7.501-3.118 11.052zm10 16.82c-2.409 2.874-2.907 10.265-2.532 11.84l9.242-2.521c-.434-1.961-3.543-6.692-6.71-9.319z"/><path fill="#FFD203" stroke="#000" stroke-width="3" d="M532.3 264.06c-6.088-6.148-8.736-13.201-8.891-22.643-.09-5.703.108-11.8.28-17.107.123-3.788-1.608-11.551-2.932-15.955 5.628 5.341 14.575 10.351 20.626 8.847-13.033-19.131-.829-18.371-12.321-43.467 5.141 3.813 10.51 5.929 17.084 2.296-15.978-16.757-5.14-26.991-17.728-46.734 6.079 2.606 9.085 2.701 15.033-2.055-13.009-4.507-24.443-25.814-27.414-31.366-2.769-5.173-3.835-11.086-4.391-13.056-2.86-10.141-12.937-16.722-21.037-16.943-17.717-.482-25.49 3.468-43.966 8.551-15.781 4.342-15.229 9.336-23.84 14.906-1.471.951-12.622 5.1-19.368 7.856-2.735 1.118-4.176 4.535-3.229 7.017 1.584 4.152 3.902 3.333 4.59 6.326 1.321 5.75 5.99 12.254 9.951 12.643 10.503 1.031 16.585-4.188 25.96-7.9 9.164-3.629 16.521 4.258 19.85 11.371 3.604 7.706 4.289 14.605.476 18.753-3.275 3.562-18.316 7.99-23.422 8.389-3.664.286-6.846-.082-9.813 1.799-1.514.959-.278 8.152-.32 11.149-.032 2.34 2.204 3.032 5.83 2.84 1.309-.069 4.864.772 7.556 1.996-.011-1.567.938-3.84 2.312-4.091 5.52-1.007 15.45-6.302 15.378-4.146-.188 5.422-16.122 13.604-27.247 14.216-6.22.342-16.818.469-23.702-1.328-14.323-3.739-18.844-13.026-18.454-21.975-11.868 12.686-3.347 30.719 11.104 38.468-5.507.073-9.925 1.277-15.001 2.283-9.994 1.981-22.538 2.128-32.039-3.393-2.318 8.857 12.677 28.477 31.284 28.973-7.013 3.527-10.602 9.633-17.041 15.851-5.651 5.456-17.165 10.289-22.408 2.854-.605 12.775 5.463 20.193 15 23.792 7.667 2.893 15.945-.467 21.253-3.064 6.517-3.189 14.776-7.364 18.849-10.353-1.505 4.167-3.073 8.179-4.757 13.669-1.61 5.253-5.196 10.854-9.079 14.006-2.855 2.317-9.185 4.813-12.996 4.734 2.824 5.725 11.9 7.776 20.691 7.081 17.419-1.376 32.791-21.913 40.016-35.76 1.12 11.334-12.29 46.774 10.753 45.397-1.732-6.892.624-12.928 6.425-20.58 10.941-14.431 14.903-23.444 18.266-33.867 4.569 14.57-4.301 20.784 1.309 34.43 4.254 10.351 13.574 11.416 19.169 11.94-6.346-14.357 2.334-18.524 6.925-30.768 3.962-10.564 3.708-17.101 2.865-28.031 4.448 5.465 6.716 11.938 8.093 17.013 1.477 5.458 11.584 17.989 24.468 15.136z"/><path fill="#FFD203" stroke="#000" stroke-width="3" stroke-linecap="round" d="M404.46 107.81c.765-2.036 6.619-9.978 12.711-11.577 10.049-2.637 14.984 4.103 17.385 5.353m-19.916 1.374c4.584-4.019 15.321-.187 18.187 2.147m16.113 2.963c11.194-2.074 18.432 5.647 20.131 13.814"/><path fill="#FFD203" stroke="#000" stroke-width="3" d="M449.32 90.101c-4.58 1.907-6.046 4.587-9.019 5.035-2.49.375-5.684-.903-6.654-2.283 4.104-1.635 5.738-4.735 8.705-5.167 3.156-.457 5.168 1.232 6.968 2.415z"/><path fill="#FFD203" stroke="#000" stroke-width="3" stroke-linecap="round" d="M431.44 88.579c3.409-1.469 8.689-7.815 16.183-7.837 6.266-.019 8.439 2.566 10.173 4.551m-21.386-9.087c23.438-4.007 46.875-4.059 70.312 0 .289-3.7 1.562-8.693 3.342-12.776 3.105-7.124 7.099-14.61 11.171-21-3.106-.131-7.189 2.41-10.189 7.524-1.2-2.286-6.173-4.005-9.368-.961 2.697 2.936 6.692 6.542 4.008 10.654-1.923 2.945-5.523 2.437-7.942.955-2.17-1.329-4.178-4.398-4.888-8.946-2.96 5.033-6.342 7.352-9.39 7.429-5.091.129-7.61-1.573-7.611-4.372-.002-4.911 5.564-6.755 9.368-7.949-1.245-4.234-6.411-5.232-8.594-3.853-.041-5.929-2.307-10.171-5.062-11.61-2.755 1.44-5.021 5.682-5.062 11.61-2.183-1.379-7.35-.382-8.594 3.853 3.803 1.194 9.37 3.038 9.368 7.949-.001 2.798-2.521 4.5-7.611 4.372-3.049-.077-6.43-2.396-9.39-7.429-.71 4.548-2.718 7.617-4.889 8.946-2.419 1.482-6.02 1.99-7.941-.955-2.686-4.113 1.311-7.719 4.007-10.654-3.194-3.044-8.168-1.325-9.368.961-3-5.114-7.083-7.655-10.188-7.524 4.072 6.39 8.065 13.876 11.171 21 1.78 4.083 3.051 9.076 3.34 12.776z"/><path fill="#FFD203" stroke="#000" stroke-width="3" stroke-linecap="round" d="M487.52 81.409c1.894-2.741 6.27-5.935 9.671-7.242 4.687-1.8 13.145-1.719 15.607.524 5.716 5.207-2.011 15.217-5.228 19.676"/><path fill="#ED2939" stroke="#000" stroke-width="3" d="M461.576 135.542c-34.992 1.773-35.462 15.264-57.731 13.429-16.487-1.358-21.824-15.44-21.515-22.497 12.345 13.807 18.722 15.208 32.508 11.375 17.874-4.967 35.182-20.251 46.738-2.307z"/></svg>