<svg xmlns="http://www.w3.org/2000/svg" version="1" width="361.289" height="215.71"><path fill="#009" d="M0 0h361.289v215.71H0z"/><path d="M180.648 203.535c1.306-1.418 3.611-4.2 4.548-7.149 1.048-3.291.579-7.963.327-9.854 5.285 2.294 9.029 2.561 13.103.924 0 0 1.046-.422 1.049-.419l-1.758-.756c-2.82-1.192-7.485-3.185-9.582-10.555h7.708v-5.234h-3.395c.376-10.385 6.267-16.188 10.466-16.383 2.072-.097 3.409 1.149 3.667 3.419.371 3.438-1.587 7.933-1.607 7.979l-.452 1.02 1.047-.394c5.441-2.059 10.1-5.568 13.477-10.146 5.65-7.663 3.77-15.86-1.01-19.998-4.518-3.908-12.297-4.668-19.5 2.447-8.446 8.348-12.418 24.929-12.695 32.051h-1.139c-.042-8.529-.015-13.812 4.318-24.954 7.255-18.646 4.346-34.687-8.572-47.714-12.925 13.028-15.83 29.068-8.577 47.717 4.331 11.14 4.358 16.422 4.317 24.951h-1.14c-.274-7.122-4.249-23.703-12.695-32.051-7.201-7.112-14.983-6.355-19.5-2.443-4.78 4.139-6.661 12.333-1.009 19.996 3.377 4.575 8.036 8.087 13.474 10.146l1.047.396-.451-1.024c-.021-.044-1.979-4.539-1.607-7.979.26-2.268 1.595-3.516 3.666-3.419 4.202.198 10.092 5.998 10.468 16.383h-3.394v5.236h7.707c-2.097 7.371-6.763 9.36-9.583 10.553l-1.759.756c.005-.003 1.052.419 1.052.419 4.072 1.637 7.817 1.37 13.104-.921-.256 1.888-.724 6.562.326 9.851.937 2.948 3.243 5.731 4.554 7.149z"/><path fill="gold" d="M166.185 171.429h28.918v3.357h-28.918zM169.579 170.492h4.73c-.276-7.002-4.164-23.233-12.414-31.389-7.242-7.152-14.346-5.764-18.228-2.399-4.454 3.852-6.183 11.524-.87 18.731 3.058 4.143 7.21 7.366 12.042 9.401-.585-1.598-1.552-4.731-1.262-7.409.311-2.743 2.088-4.373 4.641-4.253 4.401.205 10.97 5.86 11.361 17.318zM183.965 170.492c-.043-8.637-.016-13.993 4.38-25.299 6.974-17.933 4.354-33.391-7.697-46.008-12.057 12.617-14.679 28.077-7.705 46.008 4.398 11.306 4.425 16.657 4.382 25.299h6.64zM191.712 170.492h-4.731c.276-7.002 4.165-23.233 12.416-31.389 7.242-7.152 14.343-5.764 18.227-2.399 4.454 3.852 6.183 11.524.868 18.731-3.055 4.143-7.21 7.366-12.043 9.401.586-1.598 1.555-4.731 1.266-7.409-.313-2.743-2.091-4.373-4.644-4.253-4.397.205-10.969 5.86-11.359 17.318zM187.358 175.726c2.085 7.67 6.751 9.949 9.79 11.248-3.612 1.143-7.011.668-12.019-1.626l-.807-.37.15.877c.01.062 1.07 6.347-.17 10.247-.729 2.293-2.396 4.534-3.656 6.01-1.264-1.476-2.932-3.717-3.661-6.01-1.241-3.9-.18-10.185-.171-10.247l.154-.877-.811.37c-5.006 2.294-8.405 2.766-12.018 1.626 3.038-1.299 7.706-3.578 9.792-11.248h13.427z"/><g><path d="M86.388 131.446c1.307-1.418 3.611-4.199 4.549-7.148 1.048-3.291.579-7.963.327-9.854 5.285 2.293 9.029 2.561 13.103.924 0 0 1.046-.422 1.049-.42l-1.758-.756c-2.82-1.191-7.485-3.184-9.582-10.554h7.708v-5.234h-3.395c.376-10.385 6.267-16.188 10.466-16.383 2.072-.097 3.409 1.149 3.667 3.419.371 3.438-1.587 7.933-1.607 7.979l-.452 1.02 1.047-.394c5.441-2.059 10.1-5.568 13.477-10.146 5.65-7.663 3.77-15.86-1.01-19.998-4.518-3.908-12.297-4.668-19.5 2.447-8.446 8.348-12.418 24.929-12.695 32.051h-1.139c-.043-8.529-.016-13.811 4.317-24.954 7.255-18.646 4.346-34.687-8.572-47.714-12.924 13.028-15.829 29.068-8.576 47.717 4.33 11.14 4.357 16.422 4.316 24.951H80.99c-.275-7.122-4.249-23.703-12.695-32.051-7.201-7.112-14.982-6.355-19.5-2.443-4.78 4.139-6.661 12.333-1.009 19.996 3.377 4.575 8.036 8.087 13.474 10.146l1.048.396-.451-1.024c-.021-.044-1.979-4.539-1.607-7.979.26-2.268 1.594-3.516 3.666-3.419 4.201.198 10.092 5.998 10.467 16.383h-3.394v5.236h7.707c-2.097 7.371-6.763 9.361-9.583 10.552l-1.76.756c.006-.002 1.053.42 1.053.42 4.072 1.637 7.816 1.369 13.104-.922-.256 1.889-.723 6.562.326 9.852.935 2.949 3.242 5.73 4.552 7.148z"/><path fill="gold" d="M71.925 99.341h28.919v3.357H71.925zM75.32 98.403h4.73c-.277-7.002-4.164-23.233-12.414-31.389-7.242-7.152-14.346-5.764-18.228-2.399-4.454 3.852-6.183 11.524-.87 18.731 3.058 4.143 7.21 7.366 12.042 9.401-.586-1.598-1.553-4.731-1.263-7.409.312-2.743 2.089-4.373 4.642-4.253 4.4.206 10.97 5.86 11.361 17.318zM89.706 98.403c-.043-8.637-.016-13.993 4.38-25.299 6.974-17.933 4.354-33.391-7.697-46.008-12.057 12.617-14.679 28.077-7.704 46.008 4.397 11.306 4.425 16.657 4.382 25.299h6.639zM97.453 98.403h-4.731c.276-7.002 4.165-23.233 12.416-31.389 7.242-7.152 14.343-5.764 18.227-2.399 4.454 3.852 6.183 11.524.868 18.731-3.055 4.143-7.21 7.366-12.043 9.401.586-1.598 1.555-4.731 1.266-7.409-.313-2.743-2.091-4.373-4.644-4.253-4.397.206-10.97 5.86-11.359 17.318zM93.099 103.638c2.085 7.669 6.751 9.949 9.79 11.248-3.612 1.143-7.011.668-12.019-1.625l-.807-.371.15.877c.01.062 1.07 6.348-.17 10.248-.729 2.293-2.396 4.533-3.656 6.01-1.264-1.477-2.932-3.717-3.66-6.01-1.242-3.9-.18-10.186-.172-10.248l.154-.877-.809.37c-5.006 2.293-8.404 2.766-12.018 1.625 3.038-1.299 7.705-3.578 9.792-11.248h13.425v.001z"/></g><g><path d="M274.907 131.446c1.307-1.418 3.611-4.199 4.549-7.148 1.048-3.291.579-7.963.327-9.854 5.285 2.293 9.029 2.561 13.103.924 0 0 1.046-.422 1.049-.42l-1.758-.756c-2.82-1.191-7.485-3.184-9.582-10.554h7.708v-5.234h-3.395c.376-10.385 6.267-16.188 10.466-16.383 2.072-.097 3.409 1.149 3.667 3.419.371 3.438-1.587 7.933-1.607 7.979l-.452 1.02 1.047-.394c5.441-2.059 10.1-5.568 13.477-10.146 5.65-7.663 3.77-15.86-1.01-19.998-4.518-3.908-12.297-4.668-19.5 2.447-8.446 8.348-12.418 24.929-12.695 32.051h-1.139c-.042-8.529-.015-13.812 4.318-24.954 7.255-18.646 4.346-34.687-8.572-47.714-12.924 13.028-15.829 29.068-8.576 47.717 4.33 11.14 4.357 16.422 4.316 24.951h-1.139c-.275-7.122-4.249-23.703-12.695-32.051-7.201-7.112-14.982-6.355-19.5-2.443-4.779 4.139-6.66 12.333-1.009 19.996 3.378 4.575 8.036 8.087 13.475 10.146l1.048.396-.451-1.024c-.021-.044-1.979-4.539-1.607-7.979.26-2.268 1.594-3.516 3.666-3.419 4.201.198 10.092 5.998 10.467 16.383h-3.394v5.236h7.707c-2.097 7.371-6.763 9.361-9.583 10.552l-1.76.756c.006-.002 1.053.42 1.053.42 4.072 1.637 7.816 1.369 13.104-.922-.256 1.889-.723 6.562.326 9.852.934 2.949 3.241 5.73 4.551 7.148z"/><path fill="gold" d="M260.444 99.341h28.919v3.357h-28.919zM263.839 98.403h4.73c-.277-7.002-4.164-23.233-12.414-31.389-7.242-7.152-14.346-5.764-18.228-2.399-4.454 3.852-6.183 11.524-.87 18.731 3.059 4.143 7.211 7.366 12.043 9.401-.586-1.598-1.553-4.731-1.263-7.409.312-2.743 2.089-4.373 4.642-4.253 4.399.206 10.969 5.86 11.36 17.318zM278.225 98.403c-.043-8.637-.016-13.993 4.38-25.299 6.974-17.933 4.354-33.391-7.697-46.008-12.057 12.617-14.679 28.077-7.704 46.008 4.397 11.306 4.425 16.657 4.382 25.299h6.639zM285.972 98.403h-4.731c.276-7.002 4.165-23.233 12.416-31.389 7.242-7.152 14.343-5.764 18.227-2.399 4.454 3.852 6.183 11.524.868 18.731-3.055 4.143-7.21 7.366-12.043 9.401.586-1.598 1.555-4.731 1.266-7.409-.313-2.743-2.091-4.373-4.644-4.253-4.397.206-10.97 5.86-11.359 17.318zM281.618 103.638c2.085 7.669 6.751 9.949 9.79 11.248-3.612 1.143-7.011.668-12.019-1.625l-.807-.371.15.877c.01.062 1.07 6.348-.17 10.248-.729 2.293-2.396 4.533-3.656 6.01-1.264-1.477-2.932-3.717-3.66-6.01-1.242-3.9-.18-10.186-.172-10.248l.154-.877-.811.371c-5.006 2.293-8.404 2.766-12.018 1.625 3.038-1.299 7.705-3.578 9.792-11.248h13.427z"/></g></svg>