<svg xmlns="http://www.w3.org/2000/svg" xmlns:xlink="http://www.w3.org/1999/xlink" width="750" height="500"><clipPath id="a"><path d="M530 189.78c0 69.521-30.549 128.81-72.75 170.94-42.201 42.131-96.103 66.406-139.94 66.406v-237.34z"/></clipPath><path fill="#c40026" d="M0 0h750v500H0z"/><g fill="#ffd203" clip-path="url(#a)"><path d="M321.05 206.32h24.04v220.94h-24.04zm46.33-10.84h24.04v230.8h-24.04zm46.91-2.18h24.041v208.31H414.29zm43.97-2.34h24.042v175.91H458.26zm47.5-.59h24.04V297.5h-24.04z"/></g><use xlink:href="#b" stroke="#c40026" stroke-width="12.5"/><g id="b"><g id="c" fill="#ffd203"><path d="M315.19 74.888c-7.698 12.188-33.36 21.171-34.642 21.812-2.566 2.565-2.566 5.133-1.284 7.697 14.114 15.398 21.171 35.285 23.095 55.172v4l10.83 6.193h12.978l10.83-6.192v-4c1.923-19.888 8.98-39.775 23.094-55.172 1.283-2.565 1.283-5.133-1.284-7.698-1.282-.641-26.944-9.624-34.642-21.812z"/><circle cx="319.68" cy="63.34" r="8.34"/><circle cx="268.36" cy="94.775" r="8.34"/><circle cx="371" cy="94.775" r="8.34"/><path fill="#c40026" d="M347.26 102.47c-14.754 19.888-19.888 43.625-21.169 68.645l-6.41 18.88-6.42-18.88c-1.281-25.02-6.415-48.757-21.169-68.645 10.905-3.85 19.245-9.624 27.585-16.039 8.34 6.415 16.68 12.189 27.585 16.039z"/></g><use xlink:href="#c" transform="rotate(90 319.68 176.25)"/><use xlink:href="#c" transform="rotate(180 319.68 176.25)"/><use xlink:href="#c" transform="rotate(270 319.68 176.25)"/></g></svg>