<svg xmlns="http://www.w3.org/2000/svg" xmlns:xlink="http://www.w3.org/1999/xlink" width="600" height="400" xmlns:cgf="https://coding.garden/flags"><metadata id="cgf-metadata">

<cgf:flag>
  <cgf:name></cgf:name>
  <cgf:route>fr/l</cgf:route>
  <cgf:aspect-ratio>1.5</cgf:aspect-ratio>
</cgf:flag>

</metadata><path fill="#fff" d="M0 0h600v400H0z"></path><g id="e"><g id="f"><g id="d"><g id="c"><g id="b"><path d="M42 36.188c-2.935.233-4.046 3.576-5.112 5.849-2.83 7.078-4.023 14.686-7.197 21.644-3.006 6.909-6.302 13.952-11.633 19.397-.885.716-2.05 1.317-.749 2.268 2.027 1.14 5.042-.27 6.986-1.331 1.376-.483 3.68-3.256 4.28-2.871A20.48 20.48 0 0 1 24.157 91c1.857.008 3.955.139 5.26-1.489 2.627-2.477 4.287-5.733 6.458-8.573 1.713 3.969 1.812 9.202 5.81 11.769 2.213 1.41 4.269-2.013 4.957-3.748 1.161-2.124.984-6.503 2.082-7.479 2.573 3.098 4.708 6.965 8.51 8.702 1 .295 2.998.203 3.634-.113-2.301-2.733-5.064-5.58-5.243-9.35 3.076 2.054 5.905 4.868 9.79 5.235 1.317.158 2.64.257 3.96.39-4.09-3.697-7.455-8.113-10.219-12.877-4.357-7.403-8.166-15.268-9.94-23.712-1.249-4.238-2.136-8.817-4.916-12.372-.59-.651-1.395-1.178-2.3-1.194z"></path><path id="a" d="M31.656 29.062a5.03 5.03 0 0 0-4.125 2.125 11.74 11.74 0 0 0-4.875-.938c-.988.019-1.926.177-2.844.407-3.672.92-6.678 3.161-8.344 5.031l-1.25 1.406 1.844.219c2.432.3 6.25.312 9.906.281 2.419-.02 4.73-.024 6.47 0a5.054 5.054 0 0 0 3.218 1.156c2.729 0 4.969-2.167 4.969-4.843 0-2.677-2.24-4.844-4.969-4.844z"></path><use xlink:href="#a" transform="rotate(90 40.813 35.656)"></use><use xlink:href="#a" transform="rotate(180 42.563 33.906)"></use></g><use xlink:href="#b" x="85.814"></use><use xlink:href="#b" x="171.628"></use></g><use xlink:href="#c" x="257.443"></use></g><use xlink:href="#b" x="514.885"></use></g><use xlink:href="#d" x="42.907" y="75.209"></use></g><use xlink:href="#e" y="150.417"></use><use xlink:href="#f" y="300.834"></use><path d="M0 0v400h600V0zm39.863 40.122h520.27v319.76H39.863z" fill="#c40026"></path></svg>