<svg xmlns="http://www.w3.org/2000/svg" xmlns:xlink="http://www.w3.org/1999/xlink" width="360" height="216"><path fill="gold" d="M0 0h360v216H0z"/><path d="M0 42V0h70l290 174v42h-70z" fill="#c4001a"/><g id="a" fill="#fff"><path d="M65.469 33.844c-1.646.047-3.118 1.051-3.938 2.406-1.313 2.168-1.032 5.37 2.094 6.781 3.288 1.483 6.047-.419 5.281 3.532l1.344-1.532c.299.81.77 2.3.594 3.532l1.094-2.157c2.047 5.86 8.473 6.663 13.969 8.375 4.476 3.32 1.577 8.79.469 12.156 1.535-1.447 2.146-2.551 2.468 1.22 1.398-2.34 1.667-2.207 3.188.437.136-1.07-1.02-4.639 1.469-1.47-.748-4.119-.532-9.458-4-11.687 0 0 3.425-.218 4.093 2.156 1.02 2.131-.098 3.698 1.407 5.844.93-5.633 1.785-3.992 1.468-.125 1.079-.863 2.197-2.569 2.876-2.25-.137 2.618-1.23 4.9-4.157 7.312 2.248.857 4.721-2.264 5.782-4.25-.236 1.354-.102 2.749.812 4 1.254-1.396 1.81-3.147 1.25-4.812 1.499 1.62 2.763 2.323 4.094 2.437.805.07 1.84-.192 2.969-.125-.584-.969-.816-2.006-1.25-2.687-.72-1.126-1.964-1.924-4.094-2.5 1.735-.275 3.032-1.586 3.687-3.344-1.532-.23-2.816.32-3.906 1.156 1.268-1.86 2.895-5.53 1.094-7.125-.78 3.713-2.306 5.759-4.563 7.094-.597-.452.393-2.238.657-3.594-3.28 2.074-5.122 2.062-.563-1.375-2.598-.338-3.482 1.384-5.844 1.47-2.413.508-3.78-2.626-3.78-2.626 3.582 2.04 8.221-.596 12.218-1.844-3.962-.734-.29-1.415.594-2.03-3.047-.123-3.268-.271-1.844-2.595-3.49 1.464-2.82.407-2.25-1.625-2.469 2.544-5.952 7.646-10.969 5.22-4.066-4.076-7.765-9.405-13.906-8.5l1.375-1.938c-1.01.727-2.518.98-3.375 1.093l.75-1.906c-3.145 2.51-2.756-.837-5.594-3.062-1.012-.794-2.074-1.09-3.062-1.063zm1.594 3.25l.25.438c-.078.044-.227.15-.406.25-.15.098-.326.173-.47.25a.873.873 0 0 0-.093.28c-.032.17-.056.404-.094.626-.075.443-.19.955-.625 1.219-.56.34-1.194.452-1.687.187a1.138 1.138 0 0 1-.531-.687c-.059-.194-.013-.439 0-.688-.22.162-.348.344-.5.563-.139-.113-.271-.188-.407-.282.133-.2.245-.376.407-.562.186-.163.5-.326.718-.406 1.19-.236 1.982-.37 2.5-.657.202-.112.366-.188.532-.28.189-.106.364-.226.406-.25zm-1.219 1.156c-.205.074-.446.123-.688.188.04.032.095.074.125.125.218.433.002.836-.25.968-.314.238-.717.185-.906-.125a.814.814 0 0 1-.031-.718c-.078.016-.137.046-.219.062a1.87 1.87 0 0 0 .031.781c.062.204.151.305.282.375.261.141.726.093 1.187-.187.198-.12.306-.464.375-.875.034-.199.059-.404.094-.594zm-1.75.438c.39-.08.75-.166 1.063-.25-.202-.163-.488-.143-.782-.032a.53.53 0 0 0-.281.282zm-9.26 20.926c-.027 3.453 10.394 8.43 13.122 15.476.411.997.668 2.71 1.028.836 1.205-6.163-7.453-17.014-13.244-19.75-.264.437-.78 1.22-1.016 1.68-.156.904.266.854.11 1.758z"/><path d="M58.273 60.406c.688 1.25 2.347 2.315 3.57 3.087 3.946 2.49 7.855 5.277 9.532 12.028.397 1.574.763 1.573 1.1.235 1.81-8.104-6.72-13.14-10.158-18.16-1.11-.45-2.037-1.138-3.073-.87-.216.463-.481.896-.665 1.379-.057.915-.249 1.386-.306 2.301z"/><path d="M61.531 60.621c1.681 1.376 3.312 1.945 4.845 2.831 3.91 2.26 7.277 5.305 9.368 10.817.515 1.489.868 1.457 1.083.136.984-7.786-7.25-13.587-11.518-17.277-1.111-.344-2.29-.475-3.27-.129-.17.466-.39.905-.528 1.388.021.89-.001 1.344.02 2.234z"/><path d="M66.045 60.595c5.99 2.38 10.606 5.438 13.826 12.563.538 1.435.881 1.396 1.057.105 1.68-7.253-7.328-12.727-11.575-16.21-1.09-.306-2.013-.779-2.958-.418-.154.458-.357.891-.48 1.364l.13 2.597z"/><path d="M69.706 59.465c5.372 1.547 9.056 3.99 12.982 9.053.795 1.31 1.126 1.208 1.058-.094-.318-4.892-7.17-10.368-11.926-12.622-1.456-.43-1.933-.11-3.143.757-.065.478-.185.942-.218 1.43.385.856.094 1.068 1.247 1.476z"/><path d="M71.28 56.73c2.57.58 4.677 2.082 7.06 3.533 1.768 1.076 3.64 2.2 5.405 3.828 1.563 1.605 1.794.51 1.193-.389-2.136-4.71-6.369-7.425-11.218-9.78-.668-.367-1.182-1.251-3.533-.081-.504 1.708-.498 2.528 1.093 2.889z"/><path d="M72.704 54.182c2.3.175 4.033 1.357 6.456 2.513 1.867.89 3.797 2.405 5.719 3.845 1.717 1.44 1.583.48 1.147-.508-3.508-6.646-8.37-5.76-12.445-9.197-1.047-.135-2.331-.512-2.059 2.064l1.182 1.283z"/><path d="M71.137 43.95c2.94 4.9-2.612 9.729-7.741 8.019-7.494-2.498-9.39.954-9.852 3.579-.396 2.251.04 4.326 1.979 5.961 3.892.012 13.209-3.955 21.135-7.239-.001-1.108-.176-2.473-1.126-3.39-.843-2.861-1.087-2.454 1.599-5.366-1.663-.627-4.331-1.496-5.994-1.564zm8.003-24.494c3.047-1.625 12.289 5.3 19.796 4.449 1.074-.098 2.71-.665 1.218.523-4.947 4.477-18.53 1.286-23.64-2.575.264-.437.72-1.256 1.017-1.679.728-.558.88-.16 1.608-.718z"/><path d="M81.437 22.136c1.427.03 3.139 1.006 4.39 1.732 4.037 2.34 8.319 4.511 15.078 2.866 1.578-.378 1.747-.053.717.866-6.34 5.362-14.758.14-20.799-.578-.914-.775-1.953-1.277-2.196-2.32.31-.405.57-.841.913-1.228.785-.475 1.113-.863 1.897-1.338z"/><path d="M83.139 24.922c1.999.851 3.26 2.033 4.755 2.98 3.814 2.416 8.075 3.988 13.928 3.283 1.558-.234 1.694.094.622.897-6.441 4.482-15.4-.123-20.648-2.194-.82-.825-1.481-1.808-1.63-2.836.334-.366.622-.766.985-1.112.799-.394 1.19-.624 1.989-1.018z"/><path d="M85.209 28.934c4.886 4.204 9.736 6.875 17.542 6.424 1.52-.19 1.645.133.583.887-6.135 4.703-14.674-.59-19.73-2.737-.776-.824-1.623-1.423-1.742-2.428.335-.348.624-.729.986-1.057l2.36-1.089z"/><path d="M85.906 32.702c3.861 4.042 7.734 6.173 14.041 7.304 1.53.097 1.592.437.407.98-5.095 1.327-12.51-1.544-16.714-4.712-1.057-1.09-.994-1.661-.787-3.136.394-.28.75-.6 1.166-.856.937-.056.99-.412 1.886.42z"/><path d="M84.212 35.365c1.706 2.009 4.013 3.178 6.404 4.617 1.773 1.067 3.637 2.204 5.898 3.013 2.147.64 1.283 1.353.21 1.238-5.164.292-9.533-2.2-13.868-5.403-.635-.422-1.657-.467-1.71-3.093 1.28-1.24 2.009-1.614 3.066-.372z"/><path d="M82.615 37.808c1.222 1.957 3.072 2.944 5.22 4.554 1.656 1.242 3.891 2.249 6.059 3.284 2.071.855 1.16 1.18.082 1.252-7.515-.026-8.985-4.745-13.92-6.76-.605-.865-1.535-1.828.874-2.782l1.685.452z"/><path d="M72.823 41.165c5.705.332 7.408-6.826 3.515-10.577-5.688-5.481-3.51-8.761-1.398-10.388 1.81-1.395 3.852-1.97 6.2-1.012 4.72 6.3 2.64 13.134 3.386 22.082-.982.513-2.272.991-3.526.575-2.925.58-2.677.175-4.012 3.905-1.327-1.183-3.334-3.143-4.165-4.585z"/></g><use xlink:href="#a" x="97.616" y="59.084"/><use xlink:href="#a" x="194.22" y="117.561"/></svg>