<svg xmlns="http://www.w3.org/2000/svg" width="500" height="300" xmlns:cgf="https://coding.garden/flags"><metadata id="cgf-metadata">

<cgf:flag>
  <cgf:name></cgf:name>
  <cgf:route>fr/o</cgf:route>
  <cgf:aspect-ratio>1.6666666666666667</cgf:aspect-ratio>
</cgf:flag>

</metadata><path fill="gold" d="M0 0h500v300H0z"></path><path d="M279.87 192.07c-11.514 6.028-22.475 6.388-30.151 2.771-7.676-3.617 1.28 4.823 5.117 8.44 3.839 3.617 2.56 7.234 2.56 10.85 0 3.618-.07 8.304.962 12.655-7.677 1.205-15.035-1.803-21.432-5.42 3.767 4.14 3.244 6.562 6.082 9.807-6.483.056-12.597-5.444-17.952-8.14 2.777 3.24 5.12 8.3 7.502 12.005-5.226.535-11.441-5.707-13.979-7.78.82 1.62 2.48 8.656 3.327 13.17-6.252-1.543-7.747-10.684-12.326-9.99.015 1.014-1.27 4.32.098 7.411 2.704 6.11-3.443 3.591-5.475 3.106-5.37.06-6.874 1.518-5.831-6.364-1.28-2.41-4.946-4.786-4.946.037 0 4.822-3.376 10.79-6.66 10.79-3.285 0-5.29-4.114-6.542-7.533-5.897-4.513-2.677-8.328 2.44-7.122 5.118 1.206 1.253-7.234-2.585-4.823-3.839 2.412-11.541 2.462-10.262-1.155s2.004-6.489.725-11.311c-1.28-4.823 4.709-4.002 7.268-1.59 2.558 2.41 3.693 5.344 8.81 4.138 5.118-1.206.382-5.344-3.456-6.575-3.838 0-3.456-4.605 2.639-7.507 4.248-7.202 10.525-7.994 9.51-.547 0 3.617 1.726 10.876 17.303 9.123 11.514-1.206 13.428-9.955 8.81-14.554-2.875-2.275-5.92-6.917-6.329-15.594-1.872 1.532-4.425 2.703-7.902 2.788-5.892.355-7.84-2.16-12.901-4.178 3.152-1.651 7.837-4.212 12.431-3.379 3.789.04 7.46-1.986 8.859-5.553 2.559-6.028 8.103-6.067 13.084-4.96 5.578 1.304 18.968.661 18.968-1.75-6.14-1.822-13.695-7.204-16.283-14.67-.012 5.568-3.375 9.24-8.316 8.242-2.392-.547-5.89-.363-8.122-.24 2.739-2.087 6.749-8.97 3.493-13.56-1.493-2.162-1.837-6.478-1.535-9.131-.936.745-3.82 5.366-1.67 8.911-3.501.318-6.237-4.002-10.3-5.32-.726 1.394 1.655 4.76 2.198 6.322-1.828.57-3.057 1.255-8.041-1.038-1.325 3.555-.642 5.213-.952 6.483-1.577-.11-5.435-.99-7.332-2.916.04 2.281-1.264 3.985-1.808 5.903-2.501-.497-4.672-1.144-6.857-3.927-.17 1.801-1.585 2.6-1.322 5.48-3.424-.16-7.344-5.002-11.671-8.464-1.252 3.059 4.037 15.313.199 14.108-5.87-1.48-12.122 2.598-12.293-1.976 1.279-3.617-.7-3.692-4.538-.075-3.402 3.753-10.288 7.82-10.235-3.617-4.445-6.24-2.967-8.055 3.865-7.209 6.397-1.206 8.983-3.79 3.983-5.208-9.642 1.865-11.648-2.3-7.584-6.078 1.016-3.369 1.016-6.824 4.854-5.618 6.595 4.077 8.956 0 5.117-2.412-3.838-2.41-2.994-5.394 3.166-7.233 3.693-4.848 8.349-3.617 8.349 1.205-.871 5.78 2.994 9.149 5.553 6.737 2.558-2.41 12.492-3.368 16.33-4.573 3.838-1.206 15.219-10.603 15.219-14.22-8.456.291-13.57-1.564-16.536-3.41-.387-2.37-.76-4.201.285-7.614-8.344 4.221-11.958 2.179-14.285-.035 1.842-1.686 4.821-7.785 6.1-10.072-4.67 1.953-6.194 3.405-8.278 2.46-.872-2.386.677-4.794 1.23-6.684-4.934 4.256-8.162 4.096-12.473 3.426 4.453-6.502 5.28-9.913 6.274-16.515-2.989 1.337-6.226 1.12-8.204 1.24-.422-2.151-1.024-5.445-.172-8.61-6.03 1.492-9.853 3.008-7.966-4.438 0-3.617-1.478-8.191 4.128-6.414 2.559 0 2.414-4.387-1.424-4.387-9.933-.683-12.293-3.48-7.215-9.285 1.452-6.899 4.8-8.601 7.36-3.206 2.559 3.616 9.681 7.086 7.676 0-4.617-7.087-7.638-13.15 1.28-12.056 8.046-2.052 7.993 2.634 5.697 7.618-1.279 4.438 3.258 5.643 4.537 3.232-.462-4.599 2.453-7.942 6.516-3.095 5.079 5.942 6.794 9.422-.237 13.176-3.838 3.617 8.956 12.726 13.111 23.43 6.187 1.95 16.525 7.63 22.83 9.893 3.838-3.617 19.994-11.325 34.543-10.851 10.067.322 12.794-3.902 14.073-7.518 1.28-3.617-3.785-.076-5.236-3.283-2.177 2.674-5.935 2.574-7.531-.932-5.66 6.205-13.661 9.49-11.304-.298 1.168-4.99.424-8.49 3.918-8.739 21.78 3.308 20.405-9.681 13.783-11.322-7.395-1.756-19.326 7.703-17.621-5.805.8-6.344.527-4.027-2.032-5.232-2.559-1.206 2.994-6.302 6.832-6.302 6.16-.137 8.02-2.796 10.843-6.849.96-.603 14.152-.267 19.032-.782 6.313-1.2 21.562-6.03 28.656-4.53-1.931 4.601-4.123 4.264-5.335 7.258 4.992.741 10.682 2.56 11.82 3.022-2.56 2.523-4.013 4.255-6.4 6.045 5.556 1.18 6.917.654 6.225 9.62-.113 6.175-.554 14.244-8.23 14.244s7.027 5.878 6.542 14.23c-.493 6.518-.806 16.094 3.376 21.64 2.623 3.576 6.385 11.905.99 16.656a37.09 37.09 0 0 0-7.981-14.286c-1.87 2.444-3.491 7.492-1.62 10.46 2.293 3.772 2.214 7.666 2.214 12.489s-1.502 8.395-1.057 17.139c-2.132-.602-4.893-3.307-6.32-6.123-.718 3.212-2.943 4.839-4.006 13.907-4.9-3.85-6.303-8.391-5.974-11.125.118-8.49-1.127-7.321-3.686-12.143-.724 2.31-.344 5.312.636 9.927-3.838-2.412-5.145-2.782.93 6.933 5.007 7.849 6.473 29.633 16.456 34.67 6.397 1.206 9.353 6.712 13.191 9.123 3.839 2.412 11.091 1.055 19.256 11.236 14.696 10.592 25.76 1 17.594-13.895-2.495-4.427-12.504-11.012-13.783-15.835-7.23-.446-14.153-3.627-12.53-12.467-8.39.734-12.9-8.774-6.95-17.016-11.465-3.318-9.724-18.11 4.154-20.632 1.108-14.01 20.1-27.208 29.426-33.484 7.547-5.001 27.403-20.866 16.025-38.418-7.2-11.132-21.76-3.95-19.863 7.072.975 5.485 6.392 6.515 13.955 4.55.266 5.708-10.65 16.69-18.228 7.643.172 4.912-.909 11.833-10.499 14.518-6.396 2.411-6.358 6.687-4.972 13.176-11.791-.285-17.357-10.977-14.8-18.21 2.56-7.234 10.71-7.32 10.71-10.937 0-3.617-9.35-4.686-10.472-10.739-1.29-7.092 1.623-12.949 7.493-14.468-2.548 8.19 7.604 12.237 13.73 4.798 10.605-12.841 29.276-15.637 37.564-6.5 5.612 6.187 14.112 20.816 3.746 36.169-6.293 9.32-22.572 21.738-28.944 25.02-2.321 1.325-10.287 7.292-10.33 10.734 5.51-3.687 9.956-3.557 13.695-5.005-.23 4.152-15.466 11.568-13.607 17.434 3.887-2.987 15.307-7.82 21.275-13.842 3.403 11.29-26.658 21.263-22.707 29.084 3.412-4.988 21.255-9.101 28.352-15.772-.45 7.187-6.08 14.705-16.66 20.683-12.174 6.525-9.272 13.265-5.92 15.755 2.216-9.968 15.85-12.685 24.214-22.842 1.833 5.16-3.006 13.525-8.876 20.074-5.724 5.593-5.461 10.005-.343 17.24 5.117 7.233 14.126 20.084 10.288 26.113-3.838 6.028 9.112-6.154 18.82 3.455 2.532 2.754 5.939 6.216 13.939 7.499-2.39 3.103-5.552 5.585-12.556 2.769-7.188-5.085-10.92-3.592-15.575-.025-8.719 7.806-21.246 13.687-37.075.683-6.397-6.028-9.098-10.538-16.58-10.44 3.839 8.439-1.622 16.554-1.622 22.582s.172 10.44 10.407 11.646c10.235 1.206 12.622 8.85 17.739 7.644 2.315-.956 4.715-.327 7.178-1.086.23 2.43 1.082 6.128-3.792 7.333-6.397 2.411-2.503 2.804.055 6.421 1.257 2.17.656 5.196.968 8.353-.21 3.877 3.547 6.163 7.632 6.71-2.855 3.344-8.514 4.16-12.484.983 2.944 7.598-1.154 9.046-6.271 5.43 4.315 6.229-3.393 6.987-9.79 4.576 3.035 3.47 6.532 7.12.662 9.37-6.015 5.941-5.908 1.342-8.467-2.275s-4.892 7.36-7.359 8.925c-4.063.471-5.435-5.42-10.552-6.626-2.94-1.89 1.57-3.257 3.376-4.822 2.242-1.566-1.623-2.225-6.74.187-5.118 2.411-6.99 1.95-5.275-4.923 1.57-8.242 3.85-5.83 8.85-3.394 5.144-1.12-8.005-4.684.723-10.283.883-3.77 3.629-7.526 8.394.089 6.397 2.411 5.444-4.968 4.165-8.585-1.28-3.617-12.16-9.807-14.772-15.177-3.643 8.723-7.586 13.593-18.087 16.136 1.056-4.63-.415-8.293 2.663-11.321 3.838-6.028-1.208-8.432-1.208-14.46-5.66-6.302-2.032-18.977-.554-25.68z" fill-rule="evenodd"></path><path d="M256.18 42.698c-6.32-2.481-11.65-3.737-17.97-3.241-6.32.496-14.22-1.985-15.8-5.46-1.58-3.473-5.267-9.43-10.007-9.925-2.37-.249-5.912 1.304-7.842 3.142 1.73.982 3.234 3.868 4.55 6.35 3.33 5.976 11.718 18.301 22.778 12.345 4.214-2.481 11.147-3.956 14.307-3.46s7.992 1.372 9.973.339l.01-.09zm-75.61-5.162c7.64-10.731-3.34-23.478-8.08-23.974 1.053 3.474 4.74 8.934.527 14.889 3.686 3.97 5.262 6.769 7.369 8.754v.062l.179.269zm-15.54-14.652c-3.58-12.495-19.984-12.5-23.57-9.537 3.432 1.61 10.196 2.729 12.02 9.677 5.597.113 8.574-.014 11.55-.14zm-20.06 10.269c-15.051-4.476-20.662 3.433-21.635 7.833 3.77-.66 9.886-3.602 15.779.914 4.543-3.083 3.572-6.857 5.868-8.645l-.012-.102zM188.04 197.3c-10.837-7.95-24.996.85-24.915 5.746 3.77-.66 11.487-2.294 17.381 2.222 4.543-3.083 5.238-6.18 7.534-7.968zm-27.3-80.65c-8.728-9.992-23.674-3.625-25.645.468 3.832.134 10.483-1.476 15.184 4.146 5.149-2.071 7.805-3.342 10.462-4.614zm-16.25 13.07c-16.161-6.037-19.641-.011-21.363 4.18 3.833-.071 11.138-.882 16.169 4.48 5.016-2.343 2.955-6.456 5.194-8.66zm-5.09 19.68c-12.518 1.49-13.384 11.149-11.965 15.44 2.954-2.303 6.782-7.675 14.262-6.427 2.38-4.775-3.381-6.398-2.297-9.013zm30.28 64c-13.571-1.985-16.544 9.66-15.125 13.951 2.955-2.303 7.309-5.194 14.788-3.946 2.38-4.775-.748-7.39.337-10.005zm7.59 21.81c-12.901 4.437-9.915 18.348-6.475 21.46 1.408-3.361 4.144-10.109 11.332-12.419-.362-5.265-4.467-6.257-4.857-9.04zm123.79 11.92c-11.936-6.4-19.598 2.385-19.89 6.87 3.63-1.162 7.53-3.54 14.051.132 4.026-3.666 3.84-4.921 5.84-7.002zm-10.09 12.64c-11.94-3.839-20.377 5.741-20.277 10.234 3.517-1.44 10.355-4.112 17.174-.958 3.693-3.965 1.291-6.551 3.103-8.78l-.066-.062.066-.434zm7.94 14.86c-9.682 9.178-2.771 20.184 1.746 21.625-.24-3.606.02-9.919 5.489-14.887-2.7-4.622-5.628-4.374-7.235-6.738zm29.72-2.34c5.028 12.044-4.452 17.291-9.206 16.926 1.737-3.221 4.354-5.436 1.424-12.04 4.423-3.235 5.312-3.316 7.782-4.886zm-119.14-29.77c-1.773 12.834-15.921 15.405-19.895 12.922 3.172-2.03 8.25-6.788 9.07-13.904 5.531-.818 7.858 1.232 10.825.982zm-39.59-82.39c-1.773 12.834-15.394 11.931-19.368 9.447 3.172-2.03 6.556-2.005 7.376-9.12 5.531-.82 9.025-.077 11.992-.327zm-23.06-95.99c-13.519-2.283-14.94-17.682-12.117-21.304 1.999 3.083 3.764 9.336 11.268 10.449.603 5.245.726 8.05.85 10.855z" fill="red" stroke="red" stroke-width="1.636"></path><g fill="none" stroke="gold" stroke-width="1.636"><path d="M170.3 38.752c0 1.107-.718 2.005-1.604 2.005-.886 0-1.604-.898-1.604-2.005 0-1.107.718-2.005 1.604-2.005.886 0 1.604.898 1.604 2.005z" fill="gold" stroke-width=".72" transform="matrix(1.36512 0 0 1.28643 27.19 -28.858)"></path><path d="M253.36 16.028c2.256.845 7.896 1.69 9.87.563" stroke-width="1.433"></path><path d="M261.38 91.073c-3.16 7.445-3.202 18.368 2.065 24.324M242.42 197.78c4.213 5.956 11.06 4.963 10.533 9.926-1.448 5.77.593 13.338 2.238 16.192M229.26 138.72c1.58 6.452 3.687 15.882 8.427 19.356 4.74 3.474 15.8 7.94 23.7 9.43 7.9 1.489 14.747 6.948 17.38 11.911 2.633 4.963 1.053 11.911 1.053 11.911"></path><path d="M231.89 75.688c-7.9 2.978-12.124 10.129-18.433 14.609-3.763 2.564-11.425 7.484-15.273 8.221 3.722 2.358 12.254 4.334 19.126.905-2.454 10.128 3.588 10.016 3.52 25.896 4.031-.448 8.427-8.934 9.48-13.4 1.054-4.467-.644-8.945 1.369-12.68-.057 3.942 1.29 7.18 3.924 11.15 2.633 3.971 3.134 7.981 1.554 11.952 6.572-5.148 5.168-15.71 5.074-22.39 3.214 2.942 3.926 13.09 1.771 19.908 3.008-.87 6.109-2.65 7.604-11.027 2.414 3.836 5.241 16.442 3.984 19.464 4.479.103 8.385-6.014 7.947-12.946.824.633 3.071 2.94 3.895 3.757.939-2.643-.417-7.454-.093-11.164 1.01.938 3.211 2.407 4.03 3.587 1.164 1.072 3.9 4.612 7.915 6.234m7.376-63.914c6.847 3.97 13.562 10.298 13.562 30.151M280.87 62.784c7.373 5.46 10.006 11.911 8.953 19.852-1.053 7.941-4.772 7.301-4.74 13.897-.071 2.897 3.164 7.618 5.267 10.422 2.42 3.134 3.78 8.358 3.06 11.187"></path><path d="M289.49 84.125c.527 6.452.079 9.902 2.436 13.897 2.115 3.325 4.21 14.813 1.153 21.579M275.6 82.636c4.74 5.956 0 7.444-1.58 12.408-1.58 4.963 3.521 7.473 5.747 13.363m-9.957-30.238c1.053 6.948 0 9.43-2.107 13.897-2.107 4.467-4.218 11.15-.548 15.906m-9.455-24.84c-6.847 5.956-8.682 18.462-5.814 26.245M237.68 90.081c-2.633 2.978-5.239 6.419-6.042 9.23m6.042-19.653c-2.633 4.467-8.814 8.26-13.554 10.244-4.74 1.985-6.986 9.608-6.986 9.608m112.71-53.105c-5.746 6.021-8.266 7.748-11.587 11.912-3.187 3.889-3.9 11.141-.664 15.41m10.141 18.339c-3.16 2.978-4.213 8.437-4.213 9.43m1.583 3.474c-2.633 3.97-3.16 14.889-3.16 14.889m8.95.501c-6.32 5.46-5.267 12.904-5.267 12.904m12.117 7.716c-1.07 1.534 3.166 7.598 6.32 7.173m16.85 45.157c-6.32 2.978-9.492 4.036-15.8 1.489m-14.23 36.291c4.213 4.467 3.172 16.318-3.148 20.785-6.32 4.467-3.16.993-3.16.993M312.69 184.24c-1.58 6.948-8.122 11.558-8.122 11.558m10.232-8.368c-3.16 8.934-11.282 13.825-11.282 13.825m10.302-2.975c-5.793 7.941-13.465 12.904-13.465 12.904m11.435-4.544c-3.687 5.46-8.274 8.51-8.274 8.51m8.954-2.48c-3.687 3.97-8.427 6.452-8.427 6.452m11.587-2.482c-2.633 3.474-4.74 7.445-4.74 7.445M241.9 204.73c3.687 3.97 3.687 4.467 3.687 7.941s3.16 7.94 3.16 7.94M234.52 210.19c1.58 2.978 5.793 7.444 5.793 7.444m-16.323-2.984c2.107 1.985 5.267 3.97 5.267 3.97M245.58 34.494c3.16-3.474 11.13-5.106 13.764-2.625 2.633 2.482 10.99 11.062 10.99 11.062m17.906-12.407c5.267-4.467 12.64-4.963 12.64-4.963s2.633 6.948.527 10.423c-2.107 3.474-13.167 3.474-13.167 3.474m-17.38 73.952c-.527 6.452-5.267 19.852-5.267 19.852m8.427-15.882c-.527 7.444-5.267 18.363-5.267 18.363m8.427-11.413c-.527 7.445-4.213 14.393-4.213 14.393m7.903-5.463c-2.107 6.948-4.213 11.415-4.213 11.415m6.323-4.465c-1.054 4.963-3.687 9.926-3.687 9.926m6.317-5.466c0 2.978-1.58 6.452-1.58 6.452m-68.47-33.742c-1.053 8.437-3.616 10.262-6.396 6.518.375 3.899-1.966 6.446-6.174 4.825-1.053 1.352-3.757 3.05-3.757 3.05m-5.263-1.983c-1.053 3.97-1.58 9.43-5.793 8.437m-20.537-70.48c4.213.496 7.373.496 7.373.496m-4.213 5.46 8.427.993m-3.167 4.466c5.793 2.978 9.48 1.489 9.48 1.489m-4.21 4.467c4.213 1.985 8.953 0 8.953 0m-1.053 6.948c6.32.993 9.48-2.481 9.48-2.481m16.94-14.555c-1.829 1.388-3.687 3.616-3.45 5.472 2.633 0 11.074.737 11.074.737M264.02 195.79c-2.633-8.437-14.22-18.363-14.22-18.363m6.32 18.363c-1.06-6.45-12.64-17.86-12.64-17.86m6.84 15.88c-.527-3.97-12.113-14.393-12.113-14.393m8.433 13.403c-2.633-3.474-12.113-9.926-12.113-9.926M241.9 195.3c.527-3.474-4.74-5.46-4.74-5.46m42.13-1.49c-6.846 2.978-14.747-1.489-15.8-7.445-1.053-5.956-12.113-7.94-12.113-7.94M261.38 53.354c1.054 4.963 2.633 10.423 1.054 13.897-1.58 3.474 9.48-4.963 7.9-8.934-1.58-3.97 4.213 1.986 2.633 6.453-1.58 4.466 7.9-5.956 6.847-10.92-1.054-4.962 3.16-1.488 3.16 2.978 0 4.467 4.74-5.955 3.686-8.437l-1.053-2.481M275.29 15.193c2.37 2.338 5.25 2.27 7.897 1.795 2.647-.474 9.897-4.04 10.793-4.576m-7.84 12.156c2.633-2.978 11.06-3.474 11.06-3.474M217.59 104c-5.857.85-13.268 2.548-16.873 5.52m52.713-94.259c-2.253 14.437 8.11 13.163 10.363.85m48.887 11.977c-2.21 8.09 6.398 13.562 13.255 13.838"></path></g></svg>