<svg xmlns="http://www.w3.org/2000/svg" width="500" height="300" xmlns:cgf="https://coding.garden/flags"><metadata id="cgf-metadata">

<cgf:flag>
  <cgf:name></cgf:name>
  <cgf:route>fr/p</cgf:route>
  <cgf:aspect-ratio>1.6666666666666667</cgf:aspect-ratio>
</cgf:flag>

</metadata><path fill="#ED2939" d="M0 0h500v300H0z"></path><g fill="#002395" stroke="#650000" stroke-width="1.075"><path d="M168.995 136.52c-.89 1.038 1.55 5.645 5.322 5.529-2.461-2.849-2.201-6.163-2.201-6.163l-3.121.634zm-9.367-4.986c-1.36.145-4.641 6.202.591 8.363.167-3.76 2.63-5.992 2.63-5.992l-2.705-1.682-.516-.689z" transform="matrix(1.58749 0 0 2.13647 -8.588 -161.088)"></path><path d="M158.99 127.917c-1.322-1.004-7.035 1.911-6.799 6.26 3.51-2.899 7.667-2.673 7.667-2.673l-.868-3.587zm6.606-3.518c-.094-1.363-5.063-2.94-7.671-.213 3.751.308 5.89 2.853 5.89 2.853l1.781-2.64zm100.207 12.692c-.09 1.249.352 1.684 1.201 2.386.85.702 1.812 2.786 1.812 2.786s2.721-5.49 2.04-6.227c-.68-.738-4.884 1.019-5.053 1.055zm-14.394-2.275c-1.355-.188-3.917 4.351-1.785 7.465 1.072-3.608 4.002-5.178 4.002-5.178l-2.217-2.287zm-6.606-1.368c-1.054-.869-5.615 1.655-5.428 5.425 2.803-2.512 6.121-2.316 6.121-2.316l-.693-3.109zm3.458-5.825c-.727-1.159-5.851-.203-6.865 3.432 3.454-1.499 6.539-.264 6.539-.264l.326-3.168z" transform="matrix(1.58749 0 0 2.13647 -8.588 -161.088)"></path><path d="M77.319 125.071c.493-1.276-3.341-4.807-6.86-3.441 3.268 1.868 4.128 5.078 4.128 5.078l2.732-1.637zm-14.693 7.974c-1.279-1.15-6.647 2.125-6.327 7.076 3.274-3.275 7.232-2.987 7.232-2.987l-.905-4.089zm.469-7.009c-.551-1.63-6.835-1.407-8.984 3.065 4.46-1.249 7.768.942 7.768.942l1.216-4.007zm6.4 13.229c-.344 1.204 0 1.72.688 2.581.688.86 1.204 3.098 1.204 3.098s3.786-4.819 3.27-5.679c-.515-.861-4.99 0-5.162 0z" transform="matrix(1.58749 0 0 2.13647 -7.596 -161.088)"></path><path d="M54.525 83.86c0-1.72-6.026-3.52-9.491.029 4.624.243 7.058 3.377 7.058 3.377l2.433-3.406zm-6.254 6.849c-1.279-1.151-6.647 2.124-6.327 7.076 3.274-3.275 7.232-2.987 7.232-2.987l-.905-4.089zm21.869-7.444c.582-1.62-4.479-5.351-8.942-3.182 4.269 1.793 5.5 5.566 5.5 5.566l3.442-2.384zm7.145 5.917c1.004-.928-.883-5.787-4.643-6.11 2.112 3.116 1.47 6.377 1.47 6.377l3.173-.267z" transform="matrix(1.58749 0 0 2.13647 -8.588 -161.088)"></path></g><path fill="#FFD203" stroke="#650000" stroke-width="1.98" d="M145.986 41.621c-6.004-6.793-.071-19.182 5.312-13.897-2.819-5.07 1.791-9.083 3.884-6.544-.974-4.126 3.448-6.862 5.616-3.053-.778-4.602 5.779-7.295 7.479-2.267.114-4.524 6.523-8.095 7.938-1.469 1.247-5.099 8.393-5.767 8.985 1.478 2.085-4.214 7.441-3.906 7.753 2.217 2.316-2.879 8.301 1.43 7.281 6.523 3.696-.778 8.212 6.498 3.708 11.861 7.993-4.145 9.88 9.292 5.024 15.393 2.512 1.491 2.733.174 4.949 1.292 2.217 1.119 6.235 2.959 9.913 3.753 3.324 0 15.513-.373 18.005-.745 2.493-.373 5.902-1.638 9.974-2.983 4.264-1.344 10.432-1.394 16.059-2.723 4.459-.488 129.651 1.977 133.252 1.604 3.602-.373 8.857-3.739 8.581-7.84-.277-4.101-4.425-7.074-8.581-7.446-4.155-.373-25.486-.373-29.365.373-3.877.745-9.418 2.609-12.187 5.22-1.331.834-3.533 3.989-5.397 6.065-1.745 1.431-6.673 1.642-6.673-.223 0-1.218-.415.235-1.626.707-1.571.957-8.661 1.219-8.348 0 .554-1.38-.036-1.814-1.902-.373-1.385 1.119-11.184 1.53-12.982.423 1.078-1.753 1.087-1.653-1.857-.212-1.864.796-9.584 1.418-10.138-.112-.074-1.207-.949-.616-2.038-.272-8.749 2.224-9.588-.35-8.203-1.469 1.386-1.118 3.482-7.518 1.267-7.145-2.217.373-16.067 2.982-20.776 3.728s-38.783 0-43.492-.372c-4.708-.373-9.972-4.682-10.25-10.812-.493-9.833 7.757-12.303 12.743-13.794 4.986-1.491 17.452-3.728 22.439-3.728 4.986 0 19.209 1.715 23.088.224 3.878-1.49 15.655-5.657 18.982-5.965 4.91-.443 18.977 1.173 25.68 9.009-3.49 1.541-5.132 2.448-1.171 1.058 3.601-.746 19.059-3.878 22.66-4.698 12.468-.522 9.196 1.343 3.103 2.833-2.034 6.304-20.353 15.103-26.172 16.221-5.817 1.119-18.162.299-20.923-.189-2.77-.202-15.878-.839-20.649-3.845-7.711-5.084-21.955-8.426-28.202-8.309-5.843.113-22.511 1.815-22.438 7.457-.087 9.906 15.513 10.439 22.162 10.066 6.648-.373 23.27-1.119 27.979-2.983 4.708-1.864 14.895-2.322 20.436-2.322 5.54 0 13.638 1.204 16.13.831 2.493-.373 8.311-.457 11.081-2.321s8.794-3.813 14.889-3.813c6.094 0 51.32-1.694 57.413-1.321 8.823-.059 15.057 9.316 15.162 17.288.051 3.727-1.828 9.237-3.424 10.091 2.738.245 9.589.996 11.849 1.454 4.243.819 11.121 5.365 11.909 9.507-3.223-1.903-8.425-4.777-13.112-5.091-.918.011-99.645-.161-107.399-.114 21.096 2.424 37.217 18.219 41.244 27.263 3.602 5.592 12.467 3.355 15.79 2.61 3.325-.747 7.203-4.102 9.974-6.711 2.771-2.61 7.102-3.272 9.058-2.61 4.306-.372 5.071 4.102 3.409 6.337-1.662 2.238.275 1.318 4.707 1.318 4.433 0 8.342 1.605 10.955 4.99-2.494 2.238-3.751.402-.15.775 3.602.374 7.95 6.795 5.265 8.606-2.348 1.131-3.048.714 0 1.087 4.543.373 5.78 3.234 6.371 8.315-3.846.686-1.939-.487 0 1.378s4.765 10.12-2.217 10.438c-2.493-1.118-2.447-1.334-1.916 1.202.492 2.609-.854 8.865-4.731 8.865-5.374 1.006-10.251-1.864-10.805-5.22-.554-3.354-.481 6.476-8.099 8.027-7.193 1.557-11.016-2.434-11.569-4.298-.555-1.865-.277-.373-3.047-.747-2.771-.372-6.262-.406-7.756-4.846 0-2.61.54-6.05 5.474-6.515 2.217-.372 2.837-3.179 1.173-3.552-1.662-.373-.276-5.964 3.324-4.474 3.602 1.492 11.912 1.865 13.852 3.728 1.939 1.863 2.494-1.491-.554-4.474-3.047-2.983-21.606-8.948-26.595-6.71-11.611 5.687-31.026 4.846-34.35 4.102-3.324-.747-12.925 1.288-17.452-12.303-3.672-13.878-17.627-20.737-23.998-21.484-31.431-2.876-29.724-.664-9.34.274-.152 2.591-.891 7.896 2.413 8.673 5.542-.745 17.072-3.123 19.844-.886 2.771 2.236 5.541 4.101 4.985 9.32-.554 5.219.277 3.729-2.217 5.965-2.493 2.238-1.385 6.711 2.494 8.203 3.878 1.489 5.541 3.354 8.034 5.591s-1.108 6.711-3.325 5.22c-2.216-1.492-2.216-1.492-2.493 1.491-.277 2.982-3.031 8.626-7.713 9.04-.981-.361-.71-1.904-.597-3.076.276-2.61-.936 3.243-2.385 4.866-.922 1.095-8.764 3.239-10.98 2.121.99-2.334.418-1.382-1.521-.263-1.892.734-12.103 2.114-7.552-2.622 1.18-1.725-1.623 2.154-3.169 2.831-1.3.787-7.358 1.27-7.358-.967-1.924 1.644-6.5 1.646-7.202.373-1.384-1.491-1.517 1.119-4.009 1.491s-7.903-.372-8.18-3.356c-.277-2.982.554-1.118-2.493-.746-7.418 4.784-11.081-1.865-11.081-4.101 0-2.238-.277-4.847.554-6.338.831-1.491-5.161-1.941-3.324-4.878 2.065-3.589 4.234-6.222 8.31-5.562 1.94.373 1.663-.745.832-2.237-.832-1.49 2.216-2.236 5.817-.746 3.602 1.492 6.095 5.22 7.203 8.575 1.107 3.355 9.695.746 13.297 1.118 3.602.374 3.878-5.592 1.662-7.456-2.218-1.866-8.312-8.575-10.805-10.812-2.494-2.237-.832-10.066 1.385-11.93 12.9-8.479 5.818-11.185 1.106-10.439-4.708.746-16.81 5.454-20.688 9.556-3.878 4.1-34.01 24.201-36.78 26.437-2.771 2.237-6.8 2.78-8.461.17-1.662-2.611-2.771-.745-2.494 2.984 2.201 14.08-10.805 18.568-13.085 18.39-1.587-.158-3.861-1.017-5.5-2.342-1.617 7.869-8.766 8.65-15.224 7.874-.1-.928 1.205-2.664.492-1.999-2.135 2.703-8.696 2.418-14.329 2.008-.375-1.646 1.942-3.639.834-2.521-1.891 3.46-5.142 2.841-10.411 2.474-.062-.729 2.441-3.168 1.275-1.709-2.307 2.452-7.11 1.685-10.837 1.746-.441-.549 1.927-4.403-.24-1.857-2.071 2.173-6.458 2.536-10.651 1.953-.747-1.833.873-1.851 1.318-3.001 1.108-1.865-.554 0-1.939 0s-3.325.372-4.156-1.492-.354 1.865-1.159 2.88c-.804.88-1.712 2.949-4.482 3.693-2.771.746-9.973 1.492-11.081-1.864-1.493-1.545-2.217-4.846-1.108-6.711 1.108-1.864-5.275 3.597-8.033 4.102-8.113 1.523-9.142-10.812-5.541-11.929 3.602-1.12 3.047-2.984 1.108-4.474-1.939-1.492-3.047-7.458-.554-9.321 2.493-1.864 8.263-2.896 11.912-.746 2.134 1.426 6.704 6.315 5.817 2.61-.618-2.291.962-5.203 2.73-6.455 1.535-1.375 6.26-1.726 7.519 1.235 2.919 6.862 4.986 9.815 8.588 9.693 7.671-2.039 18.04-4.347 21.086-4.347 3.91-.903 24.61-2.877 24.61-4.741-12.415 4.178-17.433-1.229-18.818-.857-1.385.372-4.795-1.21-4.795-2.251 0-2.238 3.126-1.971-1.307-1.225-2.653-.211-5.017-.332-7.251-3.024-.365-1.376 2.935-6.105 4.133-10.08-2.861-.751-9.187 4.253-11.259 8.669-1.453-1.694-2.042-.155-7.232 1.078-2.448 1.038-6.431.666-8.647-.454-2.216-1.118-10.897-7.515-6.698-8.339-1.104-.525-2.375-.826-3.212-1.051-3.046-1.266-5.927-3.725-5.042-4.398-.771-1.121.882-1.116-.338-1.341-1.662-.372-5.755-3.275-4.704-4.397-1.049-.673-3.54-1.713-4.596-2.236-1.939-1.12-3.882-5-4.159-6.864-1.787.168-5.6-3.12-3.878-4.101-2.912-2.102-5.389-5.562-3.45-6.68-1.699-1.302-2.886-3.68-1.703-2.79-1.766-2.102-1.219-4.325.167-4.325 1.385 0 .831-5.965-1.662-5.965s-6.503 1.881-9.419 0c-2.398-1.784-4.433-9.694-2.217-13.049 2.217-3.355 6.648-7.083 8.865-6.711 2.217.373 1.108 1.119.554-2.237s3.128-5.875 5.541-6.711c2.924-1.3 8.588-.373 10.25 1.119 1.662 1.491 2.216 1.491 2.216-1.119 0-1.834 2.14-2.79 4.044-3.27 3.172-.728 5.651.148 6.759 1.406 1.722 2.398 2.771 5.22.554 7.457-2.216 2.237-.293.341 3.309-.404 2.319-.746 6.504.215 7.218 2.641.962 2.609 1.662 7.084-.831 9.321s-6.095 7.829-4.156 9.693c1.94 1.864 8.034 10.066 9.419 11.185 1.385 1.118 3.047 3.727 5.264 3.354 2.215-.372 4.709-.745 6.648-1.118 7.696-1.504 11.166-2.287 1.287-1.98 2.218-3.046 6.862-3.944 8.877-4.481-1.774-2.595 4.794-8.078 4.794-8.823l.01.002z"></path><path fill="#002395" stroke="#650000" stroke-width="2.085" d="M158.895 55.268c3.696 6.274 12.512 2.51 14.787 5.019 2.274 2.51-2.21 11.252-3.632 16.272-3.285 4.322-10.602 4.041-13.293.832 1.449-5.995 1.57-18.776 1.854-19.194l.284-2.929z"></path><path fill="none" stroke="#650000" stroke-width="1.98" d="M423.895 123.396c-1.205-3.244-4.822-4.056-4.822-4.056"></path><g fill="none" stroke="#650000" stroke-width="1.808"><path stroke-opacity=".3" d="M193.962 66.96c2.731 5.147 3.535 13.886.449 18.125m-10.286-6.357c2.732 1.471 6.557 10.293 6.011 13.237l-.546 2.941m-6.556-12.503c1.639 4.413 3.825 11.031 3.278 13.238l-.546 2.206M173.197 86.81c1.093 4.413.546 11.766-1.093 13.237l-1.639 1.471m-.005-13.969c-1.639 5.147-3.278 12.5-3.278 12.5"></path><path stroke-opacity=".299" d="M144.24 73.582c-2.732 2.207-6.557 7.354-6.557 7.354m9.83-.002c-4.371-2.941-9.289 2.207-9.289 2.207"></path></g><g fill="none" stroke="#600"><path stroke-width="2.371" d="M207.668 40.378c-2.881 1.273-2.456 7.915-2.456 7.915"></path><path stroke-width="2.08" d="M146.389 31.133c3.076 2.113 1.846 8.448 1.846 8.448"></path></g><path fill="#390000" fill-opacity=".599" d="M142.578 89.126c-1.175 3.438-3.112 6.099-2.805 8.235l-1.812-.802c1.421.493-1.616-5.56-2.351-4.419l1.7-1.206.394-.664.847-.412 4.027-.732z"></path><g fill="none" stroke="#650000"><path stroke-width="1.98" d="M75.235 25.771c5.983.576 8.975 5.177 10.257 9.204 1.282 4.026 2.137 6.326 2.137 6.326m15.389-18.087c-3.42 4.026-2.992 11.503-2.992 11.503m102.832 74.477c2.109-7.284 6.065-8.924 11.014-11.307 5.123-2.028 12.922-8.162 8.1-3.701-4.822 4.461-11.779 7.3-14.19 8.924-2.411 1.623-3.918 5.239-2.688 6.895"></path><path stroke-width="1.98" stroke-linecap="round" d="M192.736 81.614c4.521 7.3 1.727 17.462-3.999 20.301"></path><path stroke-width="1.98" d="M207.811 56.468c7.338 2.963 7.599 9.936 8.656 14.057-2.586-1.164-4.466-.604-6.407-1.463m-7.915 11.412c0 6.489-4.61 9.152-6.72 9.963M92.596 18.636c.603 3.65-.301 4.461-1.206 7.707-.904 3.245.301 8.924.301 8.924m308.527 52.962c-3.015-.406-7.534 1.217-7.534 1.217m21.543 4.372c-4.22 1.622-9.042 2.028-9.042 2.028m14.463 7.33c-3.618-.404-6.33-.404-6.33-.404m13.364 9.209c-3.617-.405-9.343 0-9.343 0m-28.965 18.96c.905-4.867 6.895-8.767 10.209-8.767h3.315m-18.501-1.993c3.617-1.216 9.343-1.621 9.343-1.621M139.296 55.209c-10.064 5.15-11.783 9.704-10.213 20.554"></path><path stroke-width="1.966" d="M181.397 77.787c.586 5.792.932 21.974-5.224 26.11-6.155 4.137-13.863 4.625-19.88 2.64"></path><path stroke-width="1.98" d="M167.774 86.759c-.604 5.694-6.478 19.875-17.922 17.927m197.74-57.047c1.508-4.462 8.438-8.518 8.438-8.518m-18.518 8.282c3.015-5.272 8.438-8.518 8.438-8.518m-23.143 9.005c4.579-2.682 5.865-3.742 7.369-5.124 1.623-1.543 4.821-4.461 4.821-4.461"></path><path stroke-width="1.885" d="M310.031 47.731c3.354-1.704 5.951-2.705 8.197-4.321 2.817-1.923 4.767-4.524 4.767-4.524"></path><path stroke-width="1.98" d="M312.776 33.647c-10.651-3.526-15.418-10.529-15.418-10.529m33.154-4.398c-7.056 2.861-21.398 1.623-22.001 1.623m-159.563 80.694c3.617-2.839 6.463-8.688 6.463-8.688"></path><path stroke-width="2.143" d="M146.002 71.878c-5.31-.813-18.741 10.501-14.409 24.569"></path><path stroke-width="2.466" d="M136.778 64.887c-6.838 1.784-9.624 13.951-5.98 20.493"></path><path stroke-width="1.808" d="M204.915 60.48c4.985 6.631 6.884 10.685 7.171 12.996.47 4.01.493 13.901-11.288 13.74 1.098-2.947 2.485-10.726.6-13.85"></path><path stroke-width="3.845" stroke-linecap="round" d="m187.448 35.259-.546 3.326"></path><path stroke-width="3.119" stroke-linecap="round" d="M164.971 29.254c-.642 2.502-1.78 5.073-1.78 5.073"></path><path stroke-width="1.98" d="M173.532 23.471c.855 7.477-2.564 11.504-4.701 11.504-2.137 0-4.523 2.791-3.211 7.277m16.843-19.932c-3.847 5.176-4.701 10.929-3.418 15.53 1.282 4.601.066 5.939.066 5.939m20.491 3.841H194.9s-2.991 6.328-8.12 4.601c-5.128-1.725-.427 0-.427 0"></path><path stroke-width="1.98" d="M174.388 42.351c7.318.185 5.846 5.851.428 5.276.427 6.902-8.088 6.032-7.359.745-5.121.15-7.222-6.833.216-5.867m16.628 9.095c.301 7.707-14.165 13.385-13.864 1.623"></path><path stroke-width="1.995" d="M170.394 53.631c-.307 5.679-8.267 6.895-11.022 2.028-2.144-3.245-3.369-4.867-4.899-5.272-1.53-.406-1.358-5.128-1.668-5.823-.186-.944-1.176-3.385-1.672-4.302"></path><path stroke-width="1.98" d="M193.039 30.104c-3.617 3.65-3.918 4.057-3.918 4.057m7.535 2.835c-4.823.406-5.082.196-5.082.196"></path><path stroke-width="2.243" d="M179.492 34.26c3.565-1.271 11.863-.203 11.743 2.754.005 3.63-3.244 3.852-11.816.417l.073-2.665v-.506z"></path><path stroke-width="1.822" d="M168.245 34.637c.444-4.312-8.218-8.564-10.327-6.159-2.569 3.975 4.72 7.52 6.653 7.52 1.808 0 .737.225.737.225"></path><path stroke-width="1.98" d="M191.771 50.786c-3.278 8.824-.546 16.912-.546 16.912m-38.247-14.713c-2.732 2.206-4.917 1.47-4.917 1.47"></path><path stroke-width="2.084" d="M158.298 53.379c-.339 8.059-4.83 12.356-4.83 12.356"></path><path stroke-width="2.301" d="M153.766 49.636c-2.312 8.783.649 15.84.649 15.84"></path><path stroke-width="2.075" d="M176.646 59.918c-.548 7.974 3.43 12.933 3.43 12.933"></path><path stroke-width="2.291" d="M181.548 56.98c1.327 9.009-2.382 15.455-2.382 15.455"></path><path stroke-width="1.98" d="M208.935 51.902c.896.433 3.188.036 7.404 1.753-1.745 2.5-6.243 3.952-7.995 3.221M80.333 58.524c2.565 1.151 7.266 0 7.266 0"></path><path stroke-width="1.801" d="M82.831 64.727c5.661 1.726 11.321-1.151 11.321-1.151"></path><path stroke-width="1.98" d="M109.426 89.613c5.983-1.725 9.83-5.177 9.83-5.177m-28.25 36.005c3.014-.812 9.342 0 9.342 0m1.892 9.585c1.809-3.244 6.028-6.083 6.028-6.083m27.814 10.407c1.506-2.028 1.506-8.518 1.506-8.518m9.489 8.467c2.399-2.661 2.531-8.372 2.531-8.372m6.206 8.221c2.412-4.462 2.017-9.618 2.017-9.618m11.672 10.113c1.507-2.433 1.507-8.111 1.507-8.111m96.166-4.764c-5.425-1.216-8.74 6.084-8.74 6.084m15.865-7.26c-.603 5.274-4.82 10.141-4.82 10.141m13.373-10.585c-.301 4.462-5.124 10.546-5.124 10.546m15.759-12.325c-.794 5.934-5.132 10.382-5.132 10.382m12.962-12.473c.302 5.273-2.41 13.385-4.219 15.007m13.561-12.757c.905 2.839 0 6.895 0 6.895m-58.936-17.957c3.616.812 5.727 4.868 5.727 4.868m-11.897 5.312c1.901-6.385 10.09-3.266 11.081-1.552"></path><path stroke-width="1.98" stroke-linecap="round" d="M219.402 105.543c-5.186 1.72-7.617 1.839-9.312.318"></path><path stroke-width="1.913" stroke-linecap="round" d="M225.176 101.305c-4.549 1.72-7.14 2.31-9.399.906"></path><path stroke-width="1.56" stroke-linecap="round" d="M232.873 96.118c-3.025 1.72-4.748 2.31-6.25.906"></path><path stroke-width="1.726" stroke-linecap="round" d="M238.211 92.123c-3.702 1.721-5.811 2.31-7.649.906"></path><path stroke-width="1.98" d="M92.152 18.636c.603 3.65-.301 4.461-1.205 7.707-.904 3.245.302 8.924.302 8.924m12.359-12.053c-3.419 4.026-2.992 11.503-2.992 11.503"></path><path stroke-width="2.003" d="M75.678 24.976c6.126.575 9.189 5.176 10.502 9.203 1.312 4.026 2.187 6.327 2.187 6.327"></path></g><g fill="#002395" stroke="#650000" stroke-width="1.075"><path d="M168.469 203.992c-.89 1.038 1.55 5.645 5.322 5.529-2.461-2.849-2.2-6.163-2.2-6.163l-3.122.634zm-9.367-4.986c-1.36.146-4.641 6.202.591 8.363.167-3.76 2.631-5.992 2.631-5.992l-2.705-1.683-.517-.688z" transform="matrix(1.58749 0 0 2.13647 -8.588 -161.088)"></path><path d="M158.464 195.389c-1.322-1.004-7.035 1.911-6.799 6.259 3.51-2.899 7.667-2.673 7.667-2.673l-.868-3.586zm6.606-3.517c-.094-1.364-5.063-2.94-7.672-.213 3.751.308 5.89 2.853 5.89 2.853l1.782-2.64zm100.206 12.691c-.09 1.248.353 1.684 1.202 2.386.85.701 1.812 2.786 1.812 2.786s2.721-5.49 2.04-6.227c-.681-.738-4.885 1.019-5.054 1.055zm-14.394-2.276c-1.355-.188-3.917 4.352-1.784 7.465 1.072-3.608 4.001-5.178 4.001-5.178l-2.217-2.287zm-6.606-1.368c-1.054-.869-5.615 1.656-5.429 5.425 2.804-2.512 6.121-2.316 6.121-2.316l-.692-3.109zm3.459-5.824c-.727-1.159-5.851-.203-6.865 3.432 3.454-1.498 6.54-.264 6.54-.264l.325-3.168z" transform="matrix(1.58749 0 0 2.13647 -8.588 -161.088)"></path><path d="M76.793 192.544c.493-1.276-3.341-4.807-6.86-3.441 3.268 1.868 4.128 5.078 4.128 5.078l2.732-1.637zm-14.694 7.973c-1.279-1.15-6.647 2.125-6.327 7.076 3.274-3.275 7.232-2.987 7.232-2.987l-.905-4.089zm.469-7.009c-.551-1.63-6.835-1.407-8.984 3.065 4.459-1.248 7.768.943 7.768.943l1.216-4.008zm6.401 13.228c-.344 1.205 0 1.72.688 2.581.688.86 1.204 3.098 1.204 3.098s3.786-4.819 3.27-5.679c-.516-.86-4.99 0-5.162 0z" transform="matrix(1.58749 0 0 2.13647 -7.596 -161.088)"></path><path d="M53.998 151.333c0-1.72-6.025-3.521-9.491.029 4.624.244 7.058 3.378 7.058 3.378l2.433-3.407zm-6.254 6.848c-1.279-1.151-6.647 2.125-6.327 7.076 3.274-3.275 7.232-2.988 7.232-2.988l-.905-4.088zm21.87-7.444c.582-1.62-4.48-5.351-8.942-3.182 4.269 1.793 5.499 5.566 5.499 5.566l3.443-2.384zm7.145 5.917c1.004-.928-.883-5.787-4.643-6.11 2.112 3.115 1.47 6.377 1.47 6.377l3.173-.267z" transform="matrix(1.58749 0 0 2.13647 -8.588 -161.088)"></path></g><path fill="#FFD203" stroke="#650000" stroke-width="1.98" d="M145.15 185.772c-6.004-6.793-.07-19.181 5.312-13.897-2.819-5.07 1.791-9.084 3.883-6.544-.974-4.127 3.448-6.862 5.617-3.054-.779-4.603 5.779-7.296 7.479-2.267.114-4.524 6.523-8.095 7.938-1.47 1.248-5.099 8.393-5.768 8.985 1.479 2.085-4.215 7.441-3.906 7.752 2.216 2.316-2.878 8.301 1.43 7.282 6.523 3.696-.778 8.212 6.498 3.707 11.861 7.993-4.146 9.881 9.292 5.024 15.392 2.512 1.492 2.732.176 4.948 1.294 2.217 1.118 6.235 2.959 9.913 3.753 3.325 0 15.513-.373 18.006-.745 2.493-.373 5.901-1.639 9.973-2.983 4.264-1.344 10.431-1.394 16.059-2.723 4.459-.487 129.651 1.977 133.253 1.604 3.602-.374 8.857-3.739 8.58-7.84s-4.425-7.073-8.58-7.446c-4.155-.372-25.486-.372-29.365.373-3.878.744-9.419 2.608-12.188 5.219-1.331.835-3.532 3.989-5.396 6.065-1.745 1.431-6.673 1.643-6.673-.223 0-1.219-.415.234-1.625.707-1.572.957-8.662 1.219-8.349 0 .554-1.38-.036-1.814-1.902-.372-1.385 1.118-11.183 1.53-12.982.423 1.078-1.754 1.088-1.653-1.857-.212-1.864.796-9.584 1.419-10.138-.112-.074-1.206-.949-.615-2.038-.272-8.749 2.225-9.588-.35-8.203-1.469 1.386-1.117 3.482-7.518 1.268-7.144-2.218.372-16.068 2.981-20.777 3.728s-38.783 0-43.492-.372c-4.708-.373-9.972-4.682-10.25-10.812-.493-9.833 7.757-12.303 12.742-13.795 4.987-1.491 17.452-3.728 22.438-3.728 4.987 0 19.21 1.715 23.089.223 3.878-1.489 15.654-5.656 18.982-5.964 4.91-.443 18.977 1.173 25.68 9.009-3.49 1.542-5.131 2.449-1.17 1.058 3.6-.746 19.059-3.878 22.66-4.697 12.467-.522 9.196 1.343 3.102 2.833-2.035 6.305-20.353 15.103-26.172 16.221-5.816 1.12-18.162.299-20.923-.189-2.771-.202-15.878-.839-20.649-3.845-7.711-5.084-21.956-8.426-28.201-8.31-5.844.114-22.511 1.816-22.438 7.457-.087 9.905 15.513 10.439 22.161 10.065 6.648-.372 23.27-1.118 27.979-2.982 4.708-1.864 14.895-2.322 20.436-2.322s13.638 1.203 16.131.831c2.492-.373 8.31-.457 11.08-2.321 2.771-1.865 8.793-3.813 14.889-3.813 6.095 0 51.319-1.694 57.413-1.321 8.822-.059 15.057 9.315 15.162 17.288.051 3.727-1.828 9.237-3.423 10.091 2.737.245 9.588.995 11.847 1.454 4.244.817 11.123 5.365 11.91 9.506-3.223-1.903-8.425-4.777-13.111-5.091-.918.011-99.646-.161-107.4-.114 21.096 2.424 37.217 18.219 41.244 27.263 3.602 5.592 12.467 3.355 15.79 2.61 3.324-.746 7.203-4.102 9.974-6.712 2.771-2.609 7.102-3.271 9.058-2.609 4.306-.372 5.071 4.102 3.409 6.337-1.662 2.238.275 1.318 4.708 1.318 4.432 0 8.341 1.604 10.954 4.99-2.493 2.237-3.751.403-.149.775 3.602.374 7.949 6.795 5.264 8.606-2.347 1.131-3.047.715 0 1.088 4.543.372 5.78 3.233 6.371 8.314-3.847.686-1.939-.486 0 1.379 1.938 1.864 4.765 10.12-2.217 10.438-2.493-1.118-2.447-1.334-1.916 1.203.493 2.608-.854 8.864-4.731 8.864-5.373 1.007-10.25-1.864-10.805-5.22-.554-3.354-.481 6.476-8.098 8.027-7.193 1.556-11.017-2.434-11.57-4.298-.555-1.865-.277-.374-3.046-.748-2.771-.372-6.263-.406-7.758-4.846 0-2.609.541-6.049 5.476-6.515 2.217-.372 2.836-3.178 1.172-3.551-1.662-.373-.276-5.965 3.325-4.474 3.602 1.492 11.911 1.864 13.851 3.729 1.94 1.862 2.494-1.492-.553-4.474-3.048-2.984-21.607-8.949-26.595-6.712-11.611 5.687-31.027 4.846-34.35 4.102-3.325-.746-12.927 1.289-17.452-12.303-3.672-13.879-17.628-20.737-23.998-21.483-31.432-2.877-29.725-.664-9.341.274-.152 2.591-.89 7.896 2.413 8.673 5.543-.746 17.073-3.123 19.844-.887s5.541 4.102 4.985 9.321c-.555 5.218.277 3.728-2.217 5.964-2.493 2.237-1.385 6.711 2.494 8.203 3.878 1.49 5.542 3.354 8.034 5.592 2.493 2.235-1.108 6.711-3.325 5.22-2.216-1.492-2.216-1.492-2.493 1.491-.277 2.982-3.031 8.626-7.713 9.039-.982-.36-.71-1.903-.597-3.075.277-2.609-.937 3.242-2.385 4.865-.922 1.096-8.765 3.239-10.98 2.121.99-2.334.418-1.382-1.521-.262-1.892.732-12.103 2.113-7.552-2.623 1.18-1.725-1.623 2.154-3.169 2.831-1.298.787-7.358 1.271-7.358-.967-1.924 1.644-6.499 1.646-7.202.373-1.384-1.491-1.517 1.118-4.009 1.49s-7.902-.372-8.18-3.355c-.277-2.981.555-1.118-2.492-.746-7.418 4.785-11.082-1.863-11.082-4.1 0-2.237-.277-4.848.554-6.339.831-1.49-5.161-1.941-3.324-4.877 2.065-3.591 4.234-6.223 8.31-5.562 1.939.372 1.662-.746.831-2.237-.831-1.49 2.216-2.236 5.818-.746 3.602 1.491 6.095 5.22 7.203 8.575 1.107 3.355 9.696.746 13.297 1.118 3.602.373 3.878-5.592 1.662-7.456-2.217-1.865-8.312-8.575-10.805-10.811-2.494-2.238-.832-10.067 1.385-11.932 12.901-8.479 5.818-11.185 1.106-10.438-4.708.745-16.81 5.454-20.688 9.555-3.879 4.101-34.011 24.201-36.78 26.438-2.771 2.237-6.799 2.78-8.461.171-1.662-2.611-2.771-.746-2.494 2.983 2.201 14.08-10.805 18.568-13.085 18.39-1.587-.157-3.861-1.017-5.5-2.343-1.616 7.869-8.766 8.65-15.224 7.874-.099-.928 1.206-2.664.493-1.999-2.135 2.704-8.696 2.418-14.329 2.009-.375-1.646 1.942-3.64.834-2.521-1.891 3.461-5.142 2.841-10.411 2.474-.062-.729 2.442-3.169 1.275-1.71-2.306 2.453-7.11 1.686-10.837 1.746-.441-.549 1.927-4.403-.24-1.857-2.071 2.174-6.458 2.536-10.651 1.954-.746-1.833.873-1.851 1.318-3.002 1.108-1.863-.554 0-1.938 0-1.385 0-3.325.373-4.156-1.491-.831-1.864-.354 1.865-1.159 2.88-.804.881-1.712 2.949-4.482 3.693-2.771.746-9.973 1.492-11.081-1.863-1.493-1.545-2.217-4.846-1.108-6.712 1.108-1.863-5.275 3.597-8.033 4.102-8.113 1.523-9.142-10.811-5.541-11.929 3.602-1.12 3.046-2.983 1.107-4.474-1.939-1.492-3.047-7.458-.553-9.321 2.492-1.864 8.263-2.896 11.911-.746 2.135 1.426 6.705 6.314 5.818 2.609-.618-2.29.962-5.203 2.73-6.453 1.535-1.376 6.26-1.727 7.519 1.234 2.919 6.861 4.986 9.815 8.588 9.693 7.671-2.038 18.04-4.348 21.086-4.348 3.91-.903 24.609-2.877 24.609-4.741-12.414 4.179-17.433-1.229-18.817-.857s-4.795-1.21-4.795-2.251c0-2.237 3.126-1.97-1.307-1.225-2.653-.211-5.017-.331-7.251-3.024-.366-1.375 2.934-6.104 4.133-10.078-2.861-.753-9.187 4.252-11.259 8.669-1.453-1.695-2.042-.156-7.232 1.077-2.448 1.037-6.432.665-8.647-.454-2.216-1.118-10.897-7.515-6.699-8.34-1.104-.524-2.375-.826-3.212-1.051-3.047-1.266-5.928-3.725-5.042-4.398-.771-1.121.882-1.116-.338-1.341-1.662-.372-5.755-3.275-4.705-4.396-1.049-.674-3.54-1.713-4.596-2.236-1.939-1.119-3.882-4.999-4.158-6.862-1.788.167-5.601-3.12-3.879-4.102-2.912-2.102-5.389-5.561-3.449-6.681-1.699-1.302-2.886-3.679-1.704-2.788-1.766-2.102-1.219-4.325.167-4.325 1.385 0 .831-5.965-1.662-5.965s-6.503 1.881-9.419 0c-2.398-1.783-4.433-9.694-2.217-13.05 2.217-3.354 6.648-7.083 8.865-6.711 2.217.373 1.108 1.118.554-2.237s3.128-5.875 5.541-6.711c2.924-1.3 8.588-.372 10.25 1.119 1.662 1.491 2.216 1.491 2.216-1.119 0-1.834 2.14-2.789 4.045-3.27 3.171-.729 5.651.148 6.759 1.405 1.722 2.398 2.771 5.22.554 7.457-2.216 2.236-.293.341 3.309-.404 2.319-.746 6.504.215 7.218 2.641.962 2.609 1.662 7.084-.831 9.321-2.493 2.236-6.094 7.829-4.155 9.693 1.939 1.863 8.034 10.065 9.419 11.185 1.385 1.118 3.046 3.728 5.263 3.354 2.216-.372 4.709-.744 6.648-1.118 7.696-1.505 11.165-2.287 1.287-1.98 2.218-3.047 6.862-3.944 8.877-4.481-1.774-2.596 4.794-8.078 4.794-8.823l.011.003z"></path><path fill="#002395" stroke="#650000" stroke-width="2.085" d="M158.059 199.42c3.697 6.273 12.512 2.51 14.787 5.02 2.275 2.51-2.209 11.252-3.632 16.271-3.284 4.322-10.601 4.041-13.293.832 1.449-5.995 1.569-18.777 1.853-19.194l.285-2.929z"></path><path fill="none" stroke="#650000" stroke-width="1.98" d="M423.059 267.547c-1.205-3.244-4.821-4.056-4.821-4.056"></path><g fill="none" stroke="#650000" stroke-width="1.808"><path stroke-opacity=".3" d="M193.126 211.111c2.732 5.148 3.535 13.886.449 18.125m-10.286-6.356c2.732 1.47 6.557 10.293 6.01 13.237l-.546 2.94m-6.555-12.502c1.639 4.413 3.824 11.031 3.278 13.237l-.546 2.207m-12.569-11.038c1.093 4.413.546 11.768-1.092 13.237l-1.64 1.471m-.004-13.969c-1.639 5.147-3.279 12.502-3.279 12.502"></path><path stroke-opacity=".299" d="M143.404 217.733c-2.732 2.207-6.557 7.354-6.557 7.354m9.831-.001c-4.372-2.941-9.289 2.206-9.289 2.206"></path></g><g fill="none" stroke="#600"><path stroke-width="2.371" d="M206.833 184.53c-2.882 1.273-2.457 7.915-2.457 7.915"></path><path stroke-width="2.08" d="M145.553 175.285c3.076 2.112 1.846 8.448 1.846 8.448"></path></g><path fill="#390000" fill-opacity=".599" d="M141.742 233.277c-1.175 3.439-3.112 6.1-2.805 8.236l-1.812-.802c1.421.491-1.616-5.561-2.351-4.42l1.7-1.206.394-.664.847-.411 4.027-.733z"></path><g fill="none" stroke="#650000"><path stroke-width="1.98" d="M74.399 169.924c5.983.575 8.975 5.177 10.257 9.203s2.137 6.326 2.137 6.326m15.389-18.086c-3.419 4.025-2.991 11.503-2.991 11.503m102.832 74.476c2.109-7.283 6.064-8.924 11.013-11.306 5.124-2.028 12.922-8.162 8.1-3.702-4.822 4.463-11.779 7.302-14.19 8.925-2.412 1.623-3.918 5.239-2.688 6.895"></path><path stroke-width="1.98" stroke-linecap="round" d="M191.901 225.767c4.52 7.3 1.727 17.462-3.999 20.301"></path><path stroke-width="1.98" d="M206.975 200.62c7.338 2.963 7.599 9.936 8.656 14.058-2.587-1.164-4.466-.604-6.408-1.463m-7.913 11.41c0 6.49-4.611 9.152-6.72 9.964M91.761 162.788c.603 3.65-.301 4.462-1.206 7.706-.904 3.244.301 8.924.301 8.924m308.526 52.963c-3.015-.406-7.534 1.217-7.534 1.217m21.542 4.373c-4.219 1.621-9.04 2.028-9.04 2.028m14.462 7.329c-3.617-.403-6.329-.403-6.329-.403m13.363 9.208c-3.616-.405-9.343 0-9.343 0m-28.965 18.96c.905-4.867 6.896-8.767 10.21-8.767h3.314m-18.5-1.993c3.618-1.217 9.342-1.622 9.342-1.622m-253.444-63.35c-10.064 5.15-11.783 9.704-10.214 20.555"></path><path stroke-width="1.966" d="M180.561 221.938c.586 5.793.933 21.975-5.223 26.111-6.156 4.136-13.864 4.624-19.88 2.639"></path><path stroke-width="1.98" d="M166.939 230.912c-.604 5.693-6.478 19.873-17.922 17.926m197.739-57.047c1.508-4.463 8.438-8.519 8.438-8.519m-18.518 8.284c3.015-5.273 8.438-8.518 8.438-8.518m-23.143 9.004c4.579-2.683 5.865-3.741 7.369-5.123 1.622-1.544 4.821-4.462 4.821-4.462"></path><path stroke-width="1.885" d="M309.195 191.883c3.354-1.703 5.951-2.704 8.197-4.32 2.817-1.923 4.767-4.524 4.767-4.524"></path><path stroke-width="1.98" d="M311.941 177.799c-10.652-3.525-15.419-10.529-15.419-10.529m33.154-4.398c-7.056 2.861-21.398 1.622-22.001 1.622m-159.562 80.694c3.617-2.839 6.463-8.688 6.463-8.688"></path><path stroke-width="2.143" d="M145.167 216.03c-5.31-.812-18.742 10.502-14.409 24.57"></path><path stroke-width="2.466" d="M135.942 209.039c-6.838 1.784-9.624 13.95-5.98 20.492"></path><path stroke-width="1.808" d="M204.079 204.632c4.985 6.631 6.883 10.686 7.171 12.995.47 4.012.494 13.901-11.288 13.741 1.098-2.948 2.485-10.727.6-13.85"></path><path stroke-width="3.845" stroke-linecap="round" d="m186.613 179.411-.546 3.326"></path><path stroke-width="3.119" stroke-linecap="round" d="M164.136 173.406c-.642 2.503-1.78 5.073-1.78 5.073"></path><path stroke-width="1.98" d="M172.697 167.623c.855 7.478-2.564 11.504-4.701 11.504-2.138 0-4.523 2.79-3.211 7.278m16.842-19.932c-3.847 5.176-4.701 10.929-3.418 15.529 1.281 4.602.066 5.939.066 5.939m20.491 3.841h-4.701s-2.991 6.328-8.12 4.601c-5.128-1.725-.427 0-.427 0"></path><path stroke-width="1.98" d="M173.553 186.502c7.318.186 5.846 5.852.427 5.277.427 6.902-8.088 6.032-7.359.744-5.121.151-7.222-6.833.216-5.866m16.628 9.095c.301 7.707-14.166 13.385-13.864 1.622"></path><path stroke-width="1.995" d="M169.558 197.784c-.307 5.679-8.267 6.895-11.022 2.027-2.144-3.245-3.368-4.867-4.898-5.273-1.53-.404-1.358-5.128-1.668-5.822-.186-.944-1.177-3.385-1.672-4.302"></path><path stroke-width="1.98" d="M192.203 174.257c-3.617 3.649-3.918 4.056-3.918 4.056m7.535 2.835c-4.823.405-5.083.195-5.083.195"></path><path stroke-width="2.243" d="M178.656 178.412c3.565-1.271 11.863-.203 11.743 2.754.005 3.63-3.244 3.852-11.816.417l.073-2.665v-.506z"></path><path stroke-width="1.822" d="M167.409 178.789c.444-4.311-8.218-8.563-10.327-6.158-2.569 3.975 4.72 7.52 6.653 7.52 1.808 0 .737.225.737.225"></path><path stroke-width="1.98" d="M190.935 194.938c-3.278 8.823-.546 16.912-.546 16.912m-38.247-14.712c-2.732 2.205-4.917 1.47-4.917 1.47"></path><path stroke-width="2.084" d="M157.463 197.531c-.339 8.06-4.83 12.355-4.83 12.355"></path><path stroke-width="2.301" d="M152.931 193.788c-2.312 8.783.649 15.84.649 15.84"></path><path stroke-width="2.075" d="M175.811 204.07c-.548 7.974 3.43 12.933 3.43 12.933"></path><path stroke-width="2.291" d="M180.712 201.133c1.327 9.009-2.382 15.454-2.382 15.454"></path><path stroke-width="1.98" d="M208.1 196.055c.896.433 3.188.036 7.404 1.753-1.745 2.499-6.243 3.952-7.995 3.222m-128.011 1.647c2.565 1.15 7.266 0 7.266 0"></path><path stroke-width="1.801" d="M81.995 208.879c5.66 1.727 11.321-1.15 11.321-1.15"></path><path stroke-width="1.98" d="M108.591 233.765c5.983-1.725 9.83-5.177 9.83-5.177M90.17 264.594c3.014-.812 9.343 0 9.343 0m1.891 9.585c1.809-3.244 6.028-6.084 6.028-6.084m27.814 10.406c1.507-2.027 1.507-8.518 1.507-8.518m9.488 8.467c2.399-2.66 2.53-8.372 2.53-8.372m6.208 8.222c2.412-4.463 2.017-9.618 2.017-9.618m11.672 10.113c1.506-2.433 1.506-8.111 1.506-8.111m96.167-4.764c-5.427-1.217-8.741 6.085-8.741 6.085m15.865-7.261c-.604 5.273-4.82 10.141-4.82 10.141M282.02 264.3c-.302 4.462-5.125 10.546-5.125 10.546m15.758-12.325c-.794 5.933-5.133 10.382-5.133 10.382m12.964-12.472c.302 5.272-2.411 13.386-4.22 15.007m13.561-12.758c.905 2.84 0 6.896 0 6.896m-58.936-17.958c3.617.812 5.727 4.867 5.727 4.867m-11.897 5.313c1.901-6.385 10.09-3.265 11.082-1.552"></path><path stroke-width="1.98" stroke-linecap="round" d="M218.566 249.695c-5.186 1.72-7.617 1.839-9.312.318"></path><path stroke-width="1.913" stroke-linecap="round" d="M224.34 245.458c-4.549 1.72-7.14 2.31-9.399.906"></path><path stroke-width="1.56" stroke-linecap="round" d="M232.037 240.27c-3.025 1.721-4.748 2.31-6.25.906"></path><path stroke-width="1.726" stroke-linecap="round" d="M237.375 236.274c-3.702 1.721-5.811 2.31-7.649.906"></path><path stroke-width="1.98" d="M91.316 162.788c.603 3.65-.301 4.462-1.205 7.706s.301 8.924.301 8.924m12.36-12.051c-3.419 4.025-2.992 11.503-2.992 11.503"></path><path stroke-width="2.003" d="M74.842 169.128c6.126.575 9.189 5.177 10.502 9.203 1.312 4.026 2.187 6.327 2.187 6.327"></path></g></svg>