<svg xmlns="http://www.w3.org/2000/svg" xmlns:xlink="http://www.w3.org/1999/xlink" width="500" height="300" xmlns:cgf="https://coding.garden/flags"><metadata id="cgf-metadata">

<cgf:flag>
  <cgf:name></cgf:name>
  <cgf:route>fr/q</cgf:route>
  <cgf:aspect-ratio>1.6666666666666667</cgf:aspect-ratio>
</cgf:flag>

</metadata><defs><linearGradient id="a"><stop offset="0"></stop><stop stop-color="#00F" offset="1"></stop></linearGradient><linearGradient id="l" x1="39.92" xlink:href="#a" gradientUnits="userSpaceOnUse" y1="179.65" gradientTransform="scale(.99628 1.00373)" x2="33.016" y2="175.54"></linearGradient><linearGradient id="d" x1="187.14" xlink:href="#a" gradientUnits="userSpaceOnUse" y1="150.67" gradientTransform="scale(.83073 1.20376)" x2="182.27" y2="149.97"></linearGradient><linearGradient id="e" x1="140.9" xlink:href="#a" gradientUnits="userSpaceOnUse" y1="187.71" gradientTransform="scale(1.07947 .92638)" x2="135.37" y2="184.64"></linearGradient><linearGradient id="f" x1="133.1" xlink:href="#a" gradientUnits="userSpaceOnUse" y1="225.51" gradientTransform="scale(1.27778 .7826)" x2="115.37" y2="219.95"></linearGradient><linearGradient id="u" y2="131.68" gradientUnits="userSpaceOnUse" y1="131.68" gradientTransform="scale(1.0178 .98251)" x2="84.063" x1="56.291"><stop offset="0"></stop><stop stop-color="#00F" offset="1"></stop></linearGradient><linearGradient id="g" x1="314.23" xlink:href="#a" gradientUnits="userSpaceOnUse" y1="165.93" gradientTransform="scale(.91179 1.09674)" x2="310.07" y2="165.06"></linearGradient><linearGradient id="h" x1="321.59" xlink:href="#a" gradientUnits="userSpaceOnUse" y1="149.74" gradientTransform="scale(.82665 1.2097)" x2="315.63" y2="147.61"></linearGradient><linearGradient id="i" x1="244.21" xlink:href="#a" gradientUnits="userSpaceOnUse" y1="187.46" gradientTransform="scale(1.03998 .96156)" x2="241.92" y2="182.49"></linearGradient><linearGradient id="j" x1="201.72" xlink:href="#a" gradientUnits="userSpaceOnUse" y1="217.62" gradientTransform="scale(1.27212 .7861)" x2="200.05" y2="212.73"></linearGradient><linearGradient id="k" x1="50.516" xlink:href="#a" gradientUnits="userSpaceOnUse" y1="183.58" gradientTransform="scale(1.11403 .89765)" x2="44.601" y2="180.06"></linearGradient><linearGradient id="c" x1="178.24" xlink:href="#a" gradientUnits="userSpaceOnUse" y1="173.5" gradientTransform="scale(.95222 1.05018)" x2="174.87" y2="172.8"></linearGradient><linearGradient id="m" x1="30.063" xlink:href="#a" gradientUnits="userSpaceOnUse" y1="219.75" gradientTransform="scale(1.30132 .76845)" x2="23.649" y2="215.93"></linearGradient><linearGradient id="n" x1="56.194" xlink:href="#a" gradientUnits="userSpaceOnUse" y1="176.52" gradientTransform="scale(.94725 1.05569)" x2="50.624" y2="173.21"></linearGradient><linearGradient id="o" x1="13.377" xlink:href="#a" gradientUnits="userSpaceOnUse" y1="143.22" gradientTransform="scale(1.282 .78003)" x2="23.037" y2="143.22"></linearGradient><linearGradient id="p" x1="13.504" xlink:href="#a" gradientUnits="userSpaceOnUse" y1="121.56" gradientTransform="scale(.99628 1.00373)" x2="23.247" y2="121.56"></linearGradient><linearGradient id="q" x1="30.909" xlink:href="#a" gradientUnits="userSpaceOnUse" y1="128.2" gradientTransform="scale(1.17795 .84893)" x2="40.913" y2="128.2"></linearGradient><linearGradient id="r" x1="56.002" xlink:href="#a" gradientUnits="userSpaceOnUse" y1="101.14" gradientTransform="scale(.89362 1.11904)" x2="63.752" y2="101.14"></linearGradient><linearGradient id="s" x1="120.22" xlink:href="#a" gradientUnits="userSpaceOnUse" y1="156.07" gradientTransform="matrix(1.5602 0 0 2.17384 -46.29 -211.83)" x2="119.34" y2="162.87"></linearGradient><linearGradient id="t" x1="89.291" xlink:href="#b" gradientUnits="userSpaceOnUse" y1="215.98" gradientTransform="matrix(2.10161 0 0 1.61381 -46.29 -182.453)" x2="89.458" y2="193.8"></linearGradient><linearGradient id="b"><stop stop-color="#4a0000" offset="0"></stop><stop stop-color="#ffcf00" offset="1"></stop></linearGradient><linearGradient id="v" x1="60.328" xlink:href="#b" gradientUnits="userSpaceOnUse" y1="184.92" gradientTransform="matrix(1.82667 0 0 1.85672 -46.29 -182.453)" x2="72.657" y2="173.36"></linearGradient><linearGradient id="w" x1="41.458" xlink:href="#b" gradientUnits="userSpaceOnUse" y1="237.94" gradientTransform="matrix(2.26008 0 0 1.50066 -46.29 -211.83)" x2="52.6" y2="227.49"></linearGradient></defs><path fill-rule="evenodd" fill="red" d="M0 0h500v300H0z"></path><g id="x"><g fill-rule="evenodd" font-size="12" stroke="#650000" stroke-width="1.075"><path fill="url(#c)" d="M165.38 177.4c-1.06 1.237 1.847 6.726 6.342 6.588-2.931-3.395-2.623-7.343-2.623-7.343l-3.72.75z" transform="matrix(1.2207 0 0 1.22351 54.216 -131.78)"></path><path fill="url(#d)" d="M154.22 171.46c-1.62.172-5.53 7.39.704 9.964.2-4.48 3.134-7.14 3.134-7.14l-3.223-2.004-.615-.82z" transform="matrix(1.2207 0 0 1.22351 54.216 -131.78)"></path><path fill="url(#e)" d="M153.46 167.15c-1.575-1.195-8.382 2.277-8.101 7.458 4.182-3.454 9.135-3.185 9.135-3.185l-1.04-4.27z" transform="matrix(1.2207 0 0 1.22351 54.216 -131.78)"></path><path fill="url(#f)" d="M161.33 162.96c-.112-1.625-6.032-3.503-9.14-.254 4.47.367 7.017 3.4 7.017 3.4l2.12-3.15z" transform="matrix(1.2207 0 0 1.22351 54.216 -131.78)"></path><path fill="url(#g)" d="M280.72 178.08c-.108 1.489.419 2.007 1.431 2.843 1.013.836 2.16 3.32 2.16 3.32s3.242-6.542 2.43-7.42c-.811-.878-5.82 1.215-6.021 1.257z" transform="matrix(1.2207 0 0 1.22351 54.216 -131.78)"></path><path fill="url(#h)" d="M263.57 175.37c-1.613-.225-4.667 5.184-2.126 8.893 1.277-4.299 4.768-6.169 4.768-6.169l-2.64-2.72z" transform="matrix(1.2207 0 0 1.22351 54.216 -131.78)"></path><path fill="url(#i)" d="M255.7 173.74c-1.257-1.036-6.69 1.972-6.468 6.463 3.34-2.993 7.292-2.759 7.292-2.759l-.82-3.7z" transform="matrix(1.2207 0 0 1.22351 54.216 -131.78)"></path><path fill="url(#j)" d="M259.82 166.8c-.865-1.38-6.971-.242-8.179 4.09 4.114-1.786 7.791-.315 7.791-.315l.388-3.775z" transform="matrix(1.2207 0 0 1.22351 54.216 -131.78)"></path><path fill="url(#k)" d="M56.274 163.76c.587-1.52-3.982-5.727-8.173-4.1 3.894 2.225 4.918 6.05 4.918 6.05l3.255-1.95z" transform="matrix(1.2207 0 0 1.22351 54.98 -131.78)"></path><path fill="url(#l)" d="M38.768 173.26c-1.524-1.371-7.92 2.531-7.538 8.43 3.9-3.902 8.616-3.56 8.616-3.56l-1.078-4.87z" transform="matrix(1.2207 0 0 1.22351 54.98 -131.78)"></path><path fill="url(#m)" d="M39.326 164.91c-.656-1.942-8.143-1.677-10.703 3.651 5.312-1.488 9.254 1.123 9.254 1.123l1.449-4.774z" transform="matrix(1.2207 0 0 1.22351 54.98 -131.78)"></path><path d="M46.952 180.67c-.41 1.435 0 2.05.82 3.075.82 1.026 1.435 3.691 1.435 3.691s4.511-5.74 3.896-6.766c-.615-1.025-5.946 0-6.151 0z" fill="url(#n)" transform="matrix(1.2207 0 0 1.22351 54.98 -131.78)"></path><path d="M28.996 114.66c0-2.05-7.179-4.194-11.308.035 5.51.29 8.409 4.024 8.409 4.024l2.9-4.059z" fill="url(#o)" transform="matrix(1.2207 0 0 1.22351 54.216 -131.78)"></path><path fill="url(#p)" d="M21.545 122.82c-1.524-1.371-7.92 2.531-7.538 8.43 3.9-3.902 8.616-3.56 8.616-3.56l-1.078-4.87z" transform="matrix(1.2207 0 0 1.22351 54.216 -131.78)"></path><path fill="url(#q)" d="M47.601 113.95c.693-1.93-5.337-6.375-10.654-3.791 5.087 2.136 6.552 6.63 6.552 6.63l4.102-2.84z" transform="matrix(1.2207 0 0 1.22351 54.216 -131.78)"></path><path fill="url(#r)" d="M56.114 121c1.196-1.106-1.052-6.895-5.533-7.28 2.517 3.712 1.751 7.598 1.751 7.598l3.782-.32z" transform="matrix(1.2207 0 0 1.22351 54.216 -131.78)"></path></g><path d="M118.48 111.93c-7.154-8.093-.085-22.854 6.329-16.558-3.359-6.04 2.134-10.822 4.627-7.797-1.16-4.916 4.108-8.176 6.693-3.638-.928-5.483 6.885-8.692 8.91-2.7.136-5.39 7.773-9.644 9.46-1.751 1.485-6.076 9.998-6.872 10.704 1.76 2.484-5.021 8.866-4.654 9.237 2.64 2.76-3.43 9.89 1.705 8.675 7.773 4.404-.927 9.785 7.742 4.416 14.132 9.523-4.94 11.772 11.071 5.986 18.34 2.993 1.776 3.257.207 5.897 1.54 2.64 1.332 7.429 3.526 11.81 4.471 3.96 0 18.483-.444 21.453-.888 2.97-.444 7.031-1.952 11.882-3.554 5.081-1.601 12.43-1.66 19.134-3.243 5.313-.581 154.47 2.355 158.76 1.91 4.291-.443 10.553-4.453 10.223-9.34-.33-4.885-5.272-8.427-10.223-8.87-4.95-.445-30.365-.445-34.986.443-4.62.889-11.222 3.11-14.522 6.219-1.586.994-4.208 4.753-6.43 7.226-2.078 1.704-7.95 1.956-7.95-.265 0-1.452-.494.278-1.937.842-1.871 1.14-10.32 1.452-9.945 0 .66-1.644-.045-2.161-2.266-.444-1.65 1.332-13.325 1.823-15.468.503 1.285-2.088 1.295-1.969-2.212-.251-2.222.948-11.42 1.69-12.08-.133-.088-1.438-1.13-.734-2.427-.325-10.424 2.65-11.424-.417-9.774-1.75 1.65-1.333 4.15-8.957 1.509-8.513-2.64.445-19.143 3.554-24.754 4.442-5.611.889-46.207 0-51.818-.444-5.611-.444-11.88-5.578-12.212-12.88-.587-11.716 9.241-14.659 15.182-16.436 5.94-1.777 20.793-4.442 26.734-4.442 5.94 0 22.886 2.044 27.507.267 4.62-1.777 18.653-6.74 22.618-7.107 5.85-.528 22.608 1.398 30.594 10.734-4.158 1.836-6.114 2.917-1.395 1.26 4.291-.889 22.708-4.62 26.998-5.597 14.854-.623 10.958 1.6 3.697 3.376-2.424 7.51-24.248 17.994-31.18 19.326-6.931 1.332-21.64.355-24.929-.227-3.3-.24-18.917-.999-24.603-4.58-9.185-6.058-26.158-10.04-33.599-9.9-6.962.135-26.82 2.163-26.734 8.883-.104 11.802 18.483 12.437 26.404 11.993 7.921-.444 27.724-1.332 33.335-3.553 5.61-2.221 17.747-2.767 24.348-2.767 6.6 0 16.248 1.434 19.218.99 2.97-.444 9.902-.546 13.202-2.766 3.3-2.221 10.477-4.544 17.738-4.544 7.261 0 61.145-2.018 68.406-1.573 10.511-.07 17.937 11.099 18.064 20.597.06 4.44-2.177 11.006-4.079 12.023 3.262.292 11.423 1.186 14.116 1.732 5.055.975 13.251 6.392 14.19 11.327-3.84-2.267-10.037-5.692-15.622-6.066-1.093.013-118.72-.192-127.96-.136 25.134 2.888 44.342 21.707 49.141 32.482 4.291 6.662 14.852 3.997 18.813 3.109 3.961-.889 8.582-4.886 11.882-7.996 3.3-3.109 8.461-3.898 10.791-3.109 5.13-.444 6.042 4.886 4.062 7.551-1.98 2.665.328 1.57 5.61 1.57 5.28 0 9.936 1.912 13.05 5.946-2.97 2.665-4.468.48-.177.924 4.29.444 9.47 8.095 6.271 10.253-2.797 1.347-3.63.852 0 1.296 5.413.444 6.888 3.852 7.591 9.908-4.582.816-2.31-.58 0 1.64 2.31 2.222 5.677 12.058-2.64 12.438-2.97-1.333-2.916-1.592-2.284 1.432.587 3.109-1.017 10.56-5.638 10.56-6.402 1.2-12.212-2.22-12.872-6.218-.66-3.998-.573 7.715-9.649 9.563-8.57 1.854-13.124-2.9-13.784-5.121-.66-2.221-.33-.444-3.63-.889-3.301-.444-7.46-.485-9.242-5.774 0-3.11.643-7.208 6.523-7.76 2.64-.445 3.379-3.789 1.398-4.233-1.98-.444-.33-7.107 3.96-5.33 4.292 1.777 14.193 2.22 16.504 4.442 2.31 2.22 2.97-1.777-.66-5.33s-25.744-10.662-31.685-7.996c-13.834 6.777-36.966 5.774-40.926 4.886-3.96-.889-15.4 1.535-20.793-14.658-4.376-16.536-21.001-24.707-28.592-25.596-37.448-3.427-35.413-.791-11.127.327-.18 3.086-1.061 9.407 2.876 10.334 6.6-.889 20.34-3.721 23.64-1.056 3.301 2.665 6.602 4.886 5.942 11.105-.66 6.219.33 4.442-2.64 7.107-2.971 2.665-1.651 7.995 2.97 9.772 4.62 1.777 6.6 3.998 9.571 6.663 2.97 2.665-1.32 7.995-3.96 6.219-2.64-1.777-2.641-1.777-2.971 1.776-.33 3.554-3.61 10.278-9.189 10.771-1.171-.43-.847-2.268-.712-3.664.33-3.11-1.115 3.862-2.841 5.796-1.098 1.305-10.442 3.86-13.082 2.528 1.179-2.782.498-1.647-1.813-.314-2.255.874-14.42 2.518-8.998-3.124 1.407-2.055-1.933 2.567-3.776 3.373-1.549.937-8.766 1.513-8.766-1.152-2.291 1.96-7.744 1.96-8.582.444-1.65-1.777-1.805 1.333-4.776 1.777-2.97.444-9.416-.444-9.746-3.998-.33-3.553.66-1.332-2.97-.888-8.839 5.7-13.202-2.221-13.202-4.886 0-2.666-.33-5.775.66-7.551.99-1.777-6.15-2.313-3.96-5.811 2.46-4.277 5.044-7.414 9.9-6.627 2.311.444 1.981-.888.99-2.665-.99-1.777 2.641-2.665 6.932-.888 4.29 1.776 7.261 6.218 8.581 10.216 1.32 3.998 11.552.888 15.842 1.332 4.29.445 4.62-6.662 1.98-8.883-2.64-2.221-9.901-10.216-12.871-12.881-2.971-2.666-.99-11.993 1.65-14.214 15.37-10.102 6.93-13.326 1.32-12.437-5.61.888-20.03 6.497-24.65 11.384-4.62 4.885-40.521 28.834-43.821 31.499-3.3 2.665-8.1 3.312-10.081.202-1.98-3.109-3.3-.888-2.97 3.554 2.62 16.777-12.874 22.124-15.59 21.912-1.892-.19-4.6-1.213-6.552-2.793-1.926 9.376-10.444 10.308-18.14 9.382-.117-1.106 1.437-3.173.589-2.382-2.545 3.222-10.361 2.883-17.072 2.393-.447-1.96 2.314-4.335.994-3.003-2.253 4.123-6.126 3.383-12.404 2.946-.074-.87 2.909-3.774 1.518-2.035-2.748 2.92-8.47 2.006-12.912 2.078-.526-.654 2.297-5.246-.285-2.211-2.469 2.59-7.694 3.021-12.69 2.326-.889-2.183 1.04-2.205 1.57-3.575 1.32-2.221-.66 0-2.31 0s-3.961.444-4.951-1.777c-.99-2.22-.423 2.221-1.381 3.431-.959 1.049-2.04 3.513-5.34 4.401-3.301.888-11.882 1.777-13.202-2.22-1.779-1.84-2.64-5.775-1.32-7.996s-6.285 4.285-9.572 4.886c-9.666 1.814-10.892-12.881-6.601-14.214 4.29-1.333 3.63-3.554 1.32-5.33-2.31-1.777-3.63-8.884-.66-11.105 2.97-2.221 9.845-3.452 14.192-.889 2.543 1.699 7.988 7.524 6.931 3.11-.736-2.729 1.147-6.2 3.253-7.69 1.83-1.638 7.458-2.055 8.959 1.471 3.478 8.174 5.94 11.694 10.232 11.55 9.14-2.43 21.493-5.181 25.123-5.181 4.659-1.077 29.32-3.428 29.32-5.65-14.79 4.978-20.77-1.465-22.42-1.02-1.65.444-5.712-1.443-5.712-2.682 0-2.665 3.724-2.347-1.557-1.459-3.161-.252-5.977-.395-8.639-3.602-.436-1.64 3.496-7.274 4.925-12.01-3.409-.896-10.945 5.07-13.414 10.329-1.732-2.018-2.433-.184-8.616 1.285-2.917 1.237-7.663.792-10.303-.54-2.64-1.333-12.984-8.955-7.982-9.936-1.316-.626-2.83-.986-3.827-1.253-3.63-1.507-7.063-4.437-6.008-5.24-.92-1.335 1.052-1.33-.402-1.597-1.98-.444-6.857-3.903-5.605-5.238-1.25-.803-4.219-2.041-5.476-2.665-2.31-1.333-4.624-5.957-4.954-8.178-2.13.2-6.673-3.717-4.621-4.886-3.47-2.504-6.42-6.626-4.11-7.96-2.024-1.55-3.438-4.383-2.03-3.321-2.104-2.505-1.451-5.154.199-5.154s.99-7.107-1.98-7.107c-2.97 0-7.748 2.243-11.222 0-2.857-2.125-5.281-11.549-2.64-15.547 2.64-3.997 7.92-8.44 10.561-7.995 2.64.444 1.32 1.333.66-2.665s3.727-7 6.601-7.996c3.485-1.549 10.232-.444 12.212 1.333 1.98 1.777 2.64 1.777 2.64-1.333 0-2.184 2.55-3.323 4.82-3.896 3.778-.866 6.733.178 8.053 1.675 2.05 2.859 3.3 6.219.66 8.884-2.64 2.665-.35.406 3.942-.482 2.763-.888 7.748.257 8.6 3.147 1.145 3.11 1.98 8.44-.99 11.105-2.97 2.666-7.261 9.328-4.951 11.55 2.31 2.22 9.571 11.992 11.222 13.325 1.65 1.333 3.63 4.442 6.271 3.998 2.64-.444 5.61-.888 7.921-1.333 9.17-1.792 13.303-2.725 1.534-2.36 2.642-3.63 8.176-4.7 10.576-5.34-2.114-3.092 5.712-9.623 5.712-10.511z" fill-rule="evenodd" stroke="#650000" stroke-width="1.98" fill="#ffcd00" transform="matrix(.76895 0 0 .57268 60.82 -39.528)"></path><path d="M133.86 128.19c4.404 7.475 14.907 2.99 17.617 5.98 2.71 2.99-2.633 13.406-4.327 19.386-3.913 5.15-12.631 4.816-15.838.992 1.726-7.143 1.87-22.371 2.208-22.87l.34-3.487z" fill-rule="evenodd" stroke="#650000" stroke-width="2.085" fill="url(#s)" transform="matrix(.76895 0 0 .57268 60.82 -39.528)"></path><path d="M449.59 209.36c-1.436-3.866-5.745-4.832-5.745-4.832" stroke="#650000" stroke-width="1.98" fill="none" transform="matrix(.76895 0 0 .57268 60.82 -39.528)"></path><g stroke-width="1.98" stroke="#650000" fill="none"><path stroke-opacity=".3" d="M175.64 142.12c3.255 6.133 4.212 16.544.535 21.595m-12.255-7.575c3.255 1.752 7.812 12.265 7.16 15.77l-.65 3.504m-7.81-14.894c1.953 5.257 4.557 13.141 3.906 15.77l-.651 2.628M150.9 165.77c1.302 5.257.651 14.017-1.302 15.77l-1.953 1.752m-.005-16.642c-1.953 6.133-3.906 14.894-3.906 14.894" transform="matrix(.76895 0 0 .57268 60.82 -39.528)"></path><path stroke-opacity=".299" d="M116.4 150.01c-3.255 2.628-7.812 8.76-7.812 8.76m11.712 0c-5.208-3.504-11.067 2.628-11.067 2.628" transform="matrix(.76895 0 0 .57268 60.82 -39.528)"></path></g><g stroke="#650000" fill="none"><path d="M119 128.98c-3.906 5.257-9.114 10.513-9.114 10.513" stroke-opacity=".102" stroke-linecap="round" stroke-width="4.282" transform="matrix(.76895 0 0 .57268 60.82 -39.528)"></path><path d="M95.799 143.76c-5.092 13.021-4.583 13.021-11.203 15.762l-6.62 2.741" stroke-opacity=".089" stroke-width="2.44" transform="matrix(.76895 0 0 .57268 60.82 -39.528)"></path><path d="M87.912 168.14c-1.302 3.504-11.066 6.133-11.066 6.133" stroke-opacity=".095" stroke-width="2.44" transform="matrix(.76895 0 0 .57268 60.82 -39.528)"></path></g><g stroke="#600" fill="none"><path stroke-width="2.371" d="M191.97 110.45c-3.433 1.517-2.926 9.43-2.926 9.43" transform="matrix(.76895 0 0 .57268 60.82 -39.528)"></path><path stroke-width="2.08" d="M118.96 99.435c3.665 2.517 2.2 10.065 2.2 10.065" transform="matrix(.76895 0 0 .57268 60.82 -39.528)"></path></g><path d="M94.847 220.95c-.266 7.534-7.56 5.54-10.664 5.561l2.693-4.92c.383-.003 1.26.48 2.313-.288l5.658-.353z" fill-opacity=".599" fill="#390000" transform="matrix(.76895 0 0 .57268 60.82 -39.528)"></path><g fill="none"><path stroke-width="2.115" stroke="url(#t)" d="M119.46 132.95c-8.543 52.528 43.856 32.182 44.216 14.488" transform="matrix(.76895 0 0 .57268 60.82 -39.528)"></path><path d="M58.3 155.66c18.426 0 26.252-25.272 26.252-25.272" stroke-opacity=".261" stroke="url(#u)" stroke-width="2.014" transform="matrix(.76895 0 0 .57268 60.82 -39.528)"></path><path d="M65.492 161.6c14.098-3.25 21.952-21.52 21.952-21.52" stroke-opacity=".261" stroke="url(#v)" stroke-width="2.783" transform="matrix(.76895 0 0 .57268 60.82 -39.528)"></path><path d="M49.038 145.29c14.29.82 24.828-14.818 24.828-14.818" stroke-opacity=".261" stroke="url(#w)" stroke-width="2.783" transform="matrix(.76895 0 0 .57268 60.82 -39.528)"></path></g><g fill="#390000" fill-opacity=".1"><path d="M48.393 124.46c-1.166 2.411-2.048 3.422-3.516 4.883-2.433 1.88-3.656 1.7-5.98 1.476-.682-.253-.66-5.547-1.3-5.976l1.253-3.607c.276.2.548.36.844.48 1.132.161 1.988-.154 3.18-1.11 1.046-1.08 2.014-3.149.58.136l4.939 3.718zm110.477 31.79c.835 3.618.77 6.029.473 9.95-.953 6.28-1.242 6.478-3.88 11.664-.933 1.448-.472-.099-2.928 4.753l-8.588-5.759c.462 1.835 0-1.337.414-1.961 1.329-2.507 1.253-2.909 1.689-5.999.178-2.811 2.437-7.51 3.737-2.933l9.083-9.715zm19.96 14.83c2.016-2.152 2.837-4.036 4.011-7.24 1.478-5.48 1.82-10.009 1.483-15.876a59.616 59.616 0 0 0-1-5.205l-7.873 3.498c.19.753.345 1.48.468 2.258.208 2.876-.011 4.91-.766 7.583-.87 2.272-2.602 4.04.154 1.494l3.523 13.489z" transform="matrix(.76895 0 0 .57268 60.82 -39.528)"></path><path d="M171.6 181.47c2.175-3.463 3.964-1.447 4.616-5.743.365-7.095-.578-12.547-2.904-19.242a57.896 57.896 0 0 0-3.054-5.61l-10.04 7.797c.507.79.956 1.566 1.374 2.416 1.201 3.261 1.532 5.742 1.306 9.219-.516 3.064.068 4.038 2.458 5.006l6.244 6.157zm-43.16-1.62c1.963.55 6.8-1.047 8.907-1.483 3.367-1.109.271-1.676 3.02-4.181.764-.87 1.455-3.894 2.127-4.847l-3.65-.236c-.463 3.042-3.408.573-3.738.958-1.328 1.258-1.193.466-2.85.984-1.511.283-3.157-.22-.67.684l-3.146 8.12zm189.73-18.74c-1.102 6.035-2.637 9.164-5.378 13.98-5.006 7.025-9.672 10.823-16.188 13.965a35.275 35.275 0 0 1-6.201 1.189l-.97-20.301c.923-.067 1.8-.198 2.71-.437 3.219-1.44 5.276-3.298 7.697-6.802 1.922-3.5 2.781-8.631 1.7-.645l16.63-.95zm-202.53 10.3c-.45 2.081 5.08 4.949 8.317 5.088 3.392-2.048 3.509-2.835 5.846-6.26.602-1.14-.118-.371.361-1.582l-7.197-6.708c-.908.533-1.475 1.03-1.732 1.534-1.116 1.707-1.092 2.679-2.769 3.656-1.58.684-1.75.301-.549.915l-1.215 1.928-1.062 1.43zm68.59-35.91c2.584.298 4.03 1.293 6.295 3.154 3.417 3.594 5.48 7.246 7.478 12.582a60.488 60.488 0 0 1 1.166 5.277l-8.179 3.076a25.47 25.47 0 0 0-.475-2.314c-.942-2.65-1.926-4.24-3.622-5.966-1.64-1.291-3.827-1.477-.45-1.411L184.23 135.5zm-62.07 80.37c-.371 7.702-10.528 5.664-14.852 5.686l1.214-2.023c.534-.004 4.292-2.517 5.758-3.302l7.88-.361z" transform="matrix(.76895 0 0 .57268 60.82 -39.528)"></path><path d="M131.99 212.38c-.316 10.871-8.98 7.993-12.667 8.025l1.036-2.856c.455-.004 3.66-3.552 4.91-4.659l6.72-.51zm15.84.49c-.435 16.151-12.335 11.876-17.401 11.923l1.423-4.242c.625-.006 5.028-5.278 6.746-6.923l9.232-.758z" transform="matrix(.76895 0 0 .57268 60.82 -39.528)"></path><path d="M163.49 212.62c-.435 16.151-12.335 11.876-17.401 11.923l1.423-4.242c.625-.006 5.028-5.278 6.746-6.923l9.232-.758zm-56.69 0c-.371 16.151-10.528 11.876-14.852 11.923l1.214-4.242c.534-.006 4.292-5.278 5.758-6.923l7.88-.758z" transform="matrix(.76895 0 0 .57268 60.82 -39.528)"></path></g><path d="M114.42 168.53c-1.4 4.096-3.709 7.266-3.342 9.811l-2.16-.954c1.694.585-1.926-6.624-2.8-5.266l2.027-1.436.469-.79 1.008-.492 4.798-.873z" fill-opacity=".599" fill="#390000" transform="matrix(.76895 0 0 .57268 60.82 -39.528)"></path><g stroke-opacity=".102" stroke="#700" fill="none"><path stroke-width="5.064" d="m390.09 185.75.702-1.888c-1.545 4.158-1.156 2.237 4.21-1.889h10.523c4.367.058 6.563.937 10.524 1.889 2.42 1.302 4.646 3.263 7.016 4.72m16.785 10.048c4.367.058 6.563.937 10.524 1.888 2.419 1.303 4.646 3.263 7.016 4.721m-38.11-33.789c4.292-1.085 6.573-.798 10.596-.9 2.56.644 5.029 1.986 7.564 2.796" transform="matrix(.76895 0 0 .57268 60.82 -39.528)"></path><path stroke-width="3.816" d="M351.16 182.83c-2.837.083-4.274-.617-6.858-1.327-1.587-1.063-3.058-2.707-4.615-3.908" transform="matrix(.76895 0 0 .57268 60.82 -39.528)"></path><path stroke-width="4.198" d="M378.58 131.59c-14.071-.42-24.585-.648-34.021-.905-9.105-.223-24.182-.684-34.061-.936" transform="matrix(.76895 0 0 .57268 60.82 -39.528)"></path><path stroke-width="3.816" d="M265.34 142.92c2.606-1.51 4.133-1.586 6.726-2.233 1.768.184 3.59.966 5.368 1.293" transform="matrix(.76895 0 0 .57268 60.82 -39.528)"></path><path stroke-width="4.093" d="M318.18 192.91c-3.194.793-4.93.466-7.964.416-1.964-.647-3.889-1.894-5.84-2.683" transform="matrix(.76895 0 0 .57268 60.82 -39.528)"></path><path stroke-width="6.28" d="M286.8 203.81c5.997 1.573 9.422 1.52 15.294 2.054 3.934-.39 7.923-1.506 11.864-2.07" transform="matrix(.76895 0 0 .57268 60.82 -39.528)"></path></g><g stroke="#650000" fill="none"><path stroke-width="1.98" d="M34.185 93.047c7.129.685 10.693 6.168 12.221 10.965 1.528 4.797 2.546 7.538 2.546 7.538M67.286 90c-4.074 4.797-3.564 13.706-3.564 13.706M186.24 192.44c2.514-8.678 7.226-10.634 13.122-13.471 6.104-2.416 15.396-9.725 9.65-4.41-5.745 5.316-14.034 8.7-16.906 10.632-2.872 1.933-4.668 6.243-3.202 8.216" transform="matrix(.76895 0 0 .57268 60.82 -39.528)"></path><path d="M174.18 159.58c5.386 8.698 2.058 20.805-4.764 24.188" stroke-linecap="round" stroke-width="1.98" transform="matrix(.76895 0 0 .57268 60.82 -39.528)"></path><path stroke-width="1.98" d="M192.14 129.62c8.743 3.53 9.055 11.838 10.313 16.748-3.082-1.386-5.32-.72-7.634-1.742m-9.429 13.594c0 7.732-5.493 10.905-8.006 11.871M54.87 84.545c.718 4.35-.36 5.316-1.436 9.182-1.078 3.866.359 10.632.359 10.632M421.38 167.46c-3.59-.483-8.977 1.45-8.977 1.45m25.667 5.21c-5.027 1.933-10.772 2.416-10.772 2.416m17.232 8.734c-4.309-.483-7.54-.483-7.54-.483m15.92 10.973c-4.309-.483-11.131 0-11.131 0m-34.509 22.59c1.077-5.799 8.213-10.446 12.163-10.446h3.95m-22.043-2.374c4.309-1.45 11.131-1.933 11.131-1.933M110.51 128.12c-11.991 6.137-14.039 11.562-12.169 24.489" transform="matrix(.76895 0 0 .57268 60.82 -39.528)"></path><path stroke-width="1.966" d="M160.67 155.02c.698 6.9 1.11 26.179-6.223 31.108-7.334 4.929-16.518 5.51-23.686 3.146" transform="matrix(.76895 0 0 .57268 60.82 -39.528)"></path><path stroke-width="1.98" d="M144.44 165.71c-.72 6.784-7.718 23.678-21.353 21.358M358.68 119.1c1.795-5.316 10.054-10.148 10.054-10.148m-22.064 9.868c3.59-6.282 10.054-10.148 10.054-10.148M329.15 119.4c5.456-3.196 6.988-4.458 8.78-6.105 1.934-1.84 5.745-5.316 5.745-5.316" transform="matrix(.76895 0 0 .57268 60.82 -39.528)"></path><path stroke-width="1.885" d="M313.93 119.21c3.996-2.03 7.089-3.222 9.764-5.148 3.359-2.29 5.68-5.39 5.68-5.39" transform="matrix(.76895 0 0 .57268 60.82 -39.528)"></path><path stroke-width="1.98" d="M317.2 102.43c-12.69-4.201-18.37-12.544-18.37-12.544m39.5-5.241c-8.406 3.41-25.494 1.933-26.213 1.933M122.01 182.72c4.309-3.383 7.7-10.351 7.7-10.351" transform="matrix(.76895 0 0 .57268 60.82 -39.528)"></path><path stroke-width="2.143" d="M118.5 147.98c-6.326-.97-22.329 12.511-17.167 29.273" transform="matrix(.76895 0 0 .57268 60.82 -39.528)"></path><path stroke-width="2.466" d="M107.51 139.65c-8.147 2.126-11.466 16.622-7.125 24.417" transform="matrix(.76895 0 0 .57268 60.82 -39.528)"></path><path stroke-width="1.809" d="M188.69 134.4c5.939 7.9 8.2 12.73 8.544 15.483.56 4.778.588 16.563-13.45 16.371 1.309-3.511 2.962-12.78.715-16.501" transform="matrix(.76895 0 0 .57268 60.82 -39.528)"></path><path d="m167.88 104.35-.65 3.963" stroke-linecap="round" stroke-width="3.845" transform="matrix(.76895 0 0 .57268 60.82 -39.528)"></path><path d="M141.1 97.197c-.765 2.98-2.12 6.043-2.12 6.043" stroke-linecap="round" stroke-width="3.119" transform="matrix(.76895 0 0 .57268 60.82 -39.528)"></path><path stroke-width="1.98" d="M151.3 90.306c1.018 8.909-3.055 13.706-5.601 13.706s-5.39 3.325-3.826 8.671m20.067-23.748c-4.583 6.168-5.601 13.021-4.074 18.503 1.528 5.482.08 7.076.08 7.076m24.414 4.576h-5.601s-3.565 7.538-9.675 5.482c-6.11-2.056-.51 0-.51 0" transform="matrix(.76895 0 0 .57268 60.82 -39.528)"></path><path stroke-width="1.98" d="M152.32 112.8c8.719.22 6.965 6.971.51 6.286.508 8.223-9.637 7.187-8.768.887-6.101.18-8.604-8.14.257-6.989m19.811 10.836c.36 9.182-16.877 15.947-16.518 1.933" transform="matrix(.76895 0 0 .57268 60.82 -39.528)"></path><path stroke-width="1.995" d="M147.56 126.24c-.365 6.766-9.849 8.215-13.132 2.416-2.553-3.866-4.012-5.799-5.836-6.282-1.824-.483-1.62-6.11-1.988-6.938-.222-1.125-1.402-4.031-1.993-5.124" transform="matrix(.76895 0 0 .57268 60.82 -39.528)"></path><path stroke-width="1.98" d="M174.54 98.209c-4.309 4.35-4.668 4.832-4.668 4.832m8.978 3.379c-5.745.483-6.055.233-6.055.233" transform="matrix(.76895 0 0 .57268 60.82 -39.528)"></path><path stroke-width="2.243" d="M158.4 103.16c4.248-1.515 14.134-.241 13.991 3.28.006 4.326-3.865 4.59-14.078.498l.087-3.176v-.602z" transform="matrix(.76895 0 0 .57268 60.82 -39.528)"></path><path stroke-width="1.822" d="M145 103.61c.53-5.138-9.79-10.204-12.304-7.338-3.061 4.736 5.624 8.959 7.927 8.959 2.155 0 .878.268.878.268" transform="matrix(.76895 0 0 .57268 60.82 -39.528)"></path><path stroke-width="1.98" d="M173.03 122.85c-3.91 10.51-.65 20.15-.65 20.15m-45.57-17.53c-3.255 2.628-5.859 1.752-5.859 1.752" transform="matrix(.76895 0 0 .57268 60.82 -39.528)"></path><path d="M133.15 125.94c-.404 9.601-5.755 14.721-5.755 14.721" stroke-width="2.084" transform="matrix(.76895 0 0 .57268 60.82 -39.528)"></path><path stroke-width="2.301" d="M127.75 121.48c-2.755 10.464.773 18.872.773 18.872" transform="matrix(.76895 0 0 .57268 60.82 -39.528)"></path><path d="M155.01 133.73c-.654 9.5 4.086 15.409 4.086 15.409" stroke-width="2.075" transform="matrix(.76895 0 0 .57268 60.82 -39.528)"></path><path stroke-width="2.291" d="M160.85 130.23c1.581 10.734-2.838 18.413-2.838 18.413" transform="matrix(.76895 0 0 .57268 60.82 -39.528)"></path><path stroke-width="1.98" d="M193.48 124.18c1.067.516 3.798.043 8.822 2.09-2.079 2.977-7.438 4.708-9.526 3.837M40.26 132.07c3.055 1.37 8.656 0 8.656 0" transform="matrix(.76895 0 0 .57268 60.82 -39.528)"></path><path stroke-width="1.801" d="M43.235 139.46c6.744 2.056 13.488-1.37 13.488-1.37" transform="matrix(.76895 0 0 .57268 60.82 -39.528)"></path><path stroke-width="1.98" d="M74.922 169.11c7.129-2.056 11.712-6.168 11.712-6.168M52.975 205.84c3.59-.967 11.131 0 11.131 0m2.254 11.42c2.155-3.866 7.182-7.249 7.182-7.249m33.138 12.399c1.795-2.416 1.795-10.148 1.795-10.148m11.305 10.088c2.858-3.17 3.014-9.974 3.014-9.974m7.396 9.794c2.873-5.316 2.403-11.459 2.403-11.459M146.5 222.76c1.795-2.9 1.795-9.665 1.795-9.665m114.575-5.675c-6.463-1.45-10.413 7.249-10.413 7.249m18.903-8.649c-.718 6.282-5.745 12.081-5.745 12.081m15.935-12.611c-.359 5.316-6.104 12.565-6.104 12.565m18.774-14.685c-.946 7.07-6.115 12.37-6.115 12.37m15.445-14.86c.36 6.282-2.873 15.947-5.027 17.88m16.157-15.2c1.077 3.383 0 8.215 0 8.215m-70.22-21.395c4.309.967 6.822 5.799 6.822 5.799m-14.172 6.331c2.265-7.608 12.022-3.89 13.202-1.85" transform="matrix(.76895 0 0 .57268 60.82 -39.528)"></path><path d="M205.95 188.09c-6.178 2.05-9.075 2.191-11.094.379" stroke-linecap="round" stroke-width="1.98" transform="matrix(.76895 0 0 .57268 60.82 -39.528)"></path><path d="M212.83 183.04c-5.42 2.05-8.507 2.752-11.198 1.08" stroke-linecap="round" stroke-width="1.913" transform="matrix(.76895 0 0 .57268 60.82 -39.528)"></path><path d="M222 176.86c-3.604 2.05-5.657 2.752-7.446 1.08" stroke-linecap="round" stroke-width="1.56" transform="matrix(.76895 0 0 .57268 60.82 -39.528)"></path><path d="M228.36 172.1c-4.411 2.05-6.924 2.752-9.114 1.08" stroke-linecap="round" stroke-width="1.726" transform="matrix(.76895 0 0 .57268 60.82 -39.528)"></path><path stroke-width="1.98" d="M54.341 84.545c.718 4.35-.36 5.316-1.436 9.182-1.078 3.866.359 10.632.359 10.632M67.99 90c-4.074 4.797-3.564 13.706-3.564 13.706" transform="matrix(.76895 0 0 .57268 60.82 -39.528)"></path><path stroke-width="2.003" d="M34.713 92.099c7.299.685 10.948 6.168 12.512 10.965s2.607 7.538 2.607 7.538" transform="matrix(.76895 0 0 .57268 60.82 -39.528)"></path></g></g><use xlink:href="#x" transform="translate(0 100.534)" height="300" width="500"></use><use xlink:href="#x" transform="translate(0 201.633)" height="300" width="500"></use></svg>