<svg xmlns="http://www.w3.org/2000/svg" width="359.109" height="216.006"><path fill="#FFF" d="M179.553 18.821h161.021v176.141H179.553z"/><g stroke="#000"><path d="M-38.026-66.608c4.034-3.387 7.902-13.144 8.756-16.632 3.202-11.977 5.068-11.762 7.917.067.797 3.635 5.341 12.993 9.221 16.746-3.484-.332-4.79-3.133-6.238-3.314-.362 1.812.284 3.44 2.161 5.67-1.885.151-4.67-4.745-5.756-5.651-.724 1.088-.487 6.195-2.841 7.103-2.355-1.088-2.466-6.028-3.553-7.115-1.087 1.087-3.565 5.957-5.17 5.983.692-.933 2.235-4.559 1.785-6.009-1.156.281-3.292 3.389-6.282 3.152z" transform="matrix(.93564 0 0 1.12959 204.477 213.698)"/><path stroke-width="1.058" d="M-18.465-95.478c1.72.172 7.489-.135 9.968.172-1.648 1.857-6.251 4.7-10.14.861l.172-1.033z" transform="matrix(.93564 0 0 1.12959 204.477 213.698)"/><path d="M-16.73-93.987c0 1.202-1.008 2.176-2.252 2.176-1.243 0-2.251-.974-2.251-2.176 0-1.203 1.008-2.177 2.251-2.177 1.244-.001 2.252.974 2.252 2.177z" transform="matrix(.93564 0 0 1.12959 204.477 213.698)"/><path stroke-width="1.058" d="M-18.465-95.225c1.72.172 7.488-.135 9.968.172-1.648 1.857-6.251 4.701-10.14.862l.172-1.034z" transform="matrix(-.93564 0 0 -1.12959 157.947 1.649)"/><path d="M-16.729-93.735c0 1.203-1.008 2.177-2.252 2.177-1.243 0-2.251-.975-2.251-2.177s1.008-2.176 2.251-2.176c1.243 0 2.252.974 2.252 2.176z" transform="matrix(-.93564 0 0 -1.12959 157.947 1.649)"/><path stroke-width="1.058" d="M-18.333-95.35c1.723.172 7.499-.135 9.982.172-1.652 1.855-6.26 4.694-10.154.86l.172-1.032z" transform="matrix(0 -1.12959 .93564 0 269.032 81.704)"/><path d="M-16.595-93.861c0 1.2-1.009 2.174-2.255 2.174-1.245 0-2.255-.974-2.255-2.174s1.01-2.174 2.255-2.174c1.245 0 2.255.974 2.255 2.174z" transform="matrix(0 -1.12959 .93564 0 269.032 81.704)"/><path d="M-38.026-66.608c4.034-3.387 7.902-13.144 8.756-16.632 3.202-11.977 5.068-11.762 7.917.067.797 3.635 5.341 12.993 9.221 16.746-3.484-.332-4.79-3.133-6.238-3.314-.362 1.812.284 3.44 2.161 5.67-1.885.151-4.67-4.745-5.756-5.651-.724 1.088-.487 6.195-2.841 7.103-2.355-1.088-2.466-6.028-3.553-7.115-1.087 1.087-3.565 5.957-5.17 5.983.692-.933 2.235-4.559 1.785-6.009-1.155.281-3.292 3.389-6.282 3.152z" transform="matrix(.93564 0 0 1.12959 250.09 213.698)"/><path stroke-width="1.058" d="M-18.465-95.478c1.72.172 7.489-.135 9.968.172-1.648 1.857-6.251 4.7-10.14.861l.172-1.033z" transform="matrix(.93564 0 0 1.12959 250.09 213.698)"/><path d="M-16.73-93.987c0 1.202-1.008 2.176-2.252 2.176-1.243 0-2.251-.974-2.251-2.176 0-1.203 1.008-2.177 2.251-2.177 1.244-.001 2.252.974 2.252 2.177z" transform="matrix(.93564 0 0 1.12959 250.09 213.698)"/><path stroke-width="1.058" d="M-18.465-95.225c1.72.172 7.488-.135 9.968.172-1.648 1.857-6.251 4.701-10.14.862l.172-1.034z" transform="matrix(-.93564 0 0 -1.12959 203.56 1.649)"/><path d="M-16.729-93.735c0 1.203-1.008 2.177-2.252 2.177-1.243 0-2.252-.975-2.252-2.177s1.009-2.176 2.252-2.176c1.243 0 2.252.974 2.252 2.176z" transform="matrix(-.93564 0 0 -1.12959 203.56 1.649)"/><path stroke-width="1.058" d="M-18.333-95.35c1.723.172 7.499-.135 9.982.172-1.652 1.855-6.26 4.694-10.154.86l.172-1.032z" transform="matrix(0 -1.12959 .93564 0 314.645 81.704)"/><path d="M-16.595-93.861c0 1.2-1.009 2.174-2.255 2.174-1.245 0-2.255-.974-2.255-2.174s1.01-2.174 2.255-2.174c1.245 0 2.255.973 2.255 2.174z" transform="matrix(0 -1.12959 .93564 0 314.645 81.704)"/><path d="M-38.027-66.608c4.035-3.387 7.902-13.144 8.757-16.632 3.202-11.977 5.067-11.762 7.916.067.797 3.635 5.342 12.993 9.221 16.746-3.484-.332-4.789-3.133-6.237-3.314-.362 1.812.283 3.44 2.159 5.67-1.885.151-4.67-4.745-5.756-5.651-.724 1.088-.487 6.195-2.841 7.103-2.354-1.088-2.466-6.028-3.553-7.115-1.086 1.087-3.565 5.957-5.17 5.983.692-.933 2.235-4.559 1.786-6.009-1.155.281-3.291 3.389-6.282 3.152z" transform="matrix(.93564 0 0 1.12959 291.609 213.698)"/><path stroke-width="1.058" d="M-18.466-95.478c1.72.172 7.489-.135 9.969.172-1.649 1.857-6.251 4.7-10.141.861l.172-1.033z" transform="matrix(.93564 0 0 1.12959 291.609 213.698)"/><path d="M-16.73-93.987c0 1.202-1.008 2.176-2.251 2.176-1.244 0-2.252-.974-2.252-2.176 0-1.203 1.008-2.177 2.252-2.177 1.243-.001 2.251.974 2.251 2.177z" transform="matrix(.93564 0 0 1.12959 291.609 213.698)"/><path stroke-width="1.058" d="M-18.466-95.225c1.72.172 7.489-.135 9.969.172-1.649 1.857-6.251 4.701-10.141.862l.172-1.034z" transform="matrix(-.93564 0 0 -1.12959 245.078 1.649)"/><path d="M-16.729-93.735c0 1.203-1.009 2.177-2.252 2.177-1.244 0-2.252-.975-2.252-2.177s1.008-2.176 2.252-2.176c1.243 0 2.252.974 2.252 2.176z" transform="matrix(-.93564 0 0 -1.12959 245.078 1.649)"/><path stroke-width="1.058" d="M-18.333-95.35c1.723.172 7.499-.135 9.982.172-1.652 1.855-6.26 4.695-10.154.86l.172-1.032z" transform="matrix(0 -1.12959 .93564 0 356.163 81.704)"/><path d="M-16.595-93.862c0 1.201-1.009 2.174-2.255 2.174-1.245 0-2.255-.973-2.255-2.174 0-1.2 1.01-2.173 2.255-2.173 1.245 0 2.255.973 2.255 2.173z" transform="matrix(0 -1.12959 .93564 0 356.163 81.704)"/><path d="M-38.026-66.608c4.034-3.387 7.901-13.144 8.756-16.632 3.202-11.977 5.067-11.762 7.916.067.797 3.635 5.342 12.993 9.221 16.746-3.484-.332-4.789-3.133-6.237-3.314-.362 1.812.283 3.44 2.161 5.67-1.886.151-4.671-4.745-5.757-5.651-.724 1.088-.486 6.195-2.841 7.103-2.354-1.088-2.466-6.028-3.553-7.115-1.087 1.087-3.565 5.957-5.17 5.983.692-.933 2.235-4.559 1.786-6.009-1.156.281-3.292 3.389-6.282 3.152z" transform="matrix(.93564 0 0 1.12959 336.636 213.698)"/><path stroke-width="1.058" d="M-18.466-95.478c1.721.172 7.489-.135 9.969.172-1.649 1.857-6.251 4.7-10.14.861l.171-1.033z" transform="matrix(.93564 0 0 1.12959 336.636 213.698)"/><path d="M-16.729-93.987c0 1.202-1.008 2.176-2.252 2.176s-2.252-.974-2.252-2.176c0-1.203 1.008-2.177 2.252-2.177s2.252.974 2.252 2.177z" transform="matrix(.93564 0 0 1.12959 336.636 213.698)"/><path stroke-width="1.058" d="M-18.466-95.225c1.72.172 7.489-.135 9.969.172-1.649 1.857-6.252 4.701-10.141.862l.172-1.034z" transform="matrix(-.93564 0 0 -1.12959 290.106 1.649)"/><path d="M-16.73-93.735c0 1.203-1.008 2.177-2.251 2.177-1.244 0-2.252-.975-2.252-2.177s1.008-2.176 2.252-2.176c1.243 0 2.251.974 2.251 2.176z" transform="matrix(-.93564 0 0 -1.12959 290.106 1.649)"/><path stroke-width="1.058" d="M-18.333-95.349c1.723.171 7.499-.136 9.982.171-1.652 1.856-6.26 4.695-10.154.86l.172-1.031z" transform="matrix(0 -1.12959 .93564 0 401.19 81.704)"/><path d="M-16.595-93.861c0 1.2-1.009 2.173-2.255 2.173-1.245 0-2.255-.973-2.255-2.173 0-1.201 1.01-2.174 2.255-2.174 1.245 0 2.255.973 2.255 2.174z" transform="matrix(0 -1.12959 .93564 0 401.19 81.704)"/><path d="M168.899 45.85c3.774-3.825 7.394-14.846 8.192-18.786 2.996-13.53 4.742-13.286 7.407.075.746 4.107 4.997 14.678 8.628 18.917-3.26-.375-4.481-3.54-5.837-3.744-.34 2.049.266 3.887 2.02 6.407-1.763.169-4.368-5.36-5.385-6.384-.678 1.229-.456 6.999-2.658 8.022-2.203-1.23-2.308-6.808-3.324-8.037-1.017 1.229-3.336 6.73-4.837 6.759.647-1.052 2.09-5.148 1.67-6.787-1.08.317-3.078 3.827-5.876 3.559z"/><path stroke-width="1.058" d="M-18.466-95.585c1.72.172 7.489-.135 9.968.172-1.648 1.857-6.251 4.7-10.14.862l.172-1.034z" transform="matrix(.93564 0 0 1.12959 204.477 121.213)"/><path d="M-16.73-94.096c0 1.203-1.008 2.177-2.252 2.177-1.243 0-2.251-.975-2.251-2.177 0-1.203 1.008-2.176 2.251-2.176 1.244 0 2.252.974 2.252 2.176z" transform="matrix(.93564 0 0 1.12959 204.477 121.213)"/><path stroke-width="1.058" d="M-18.465-95.118c1.72.172 7.488-.135 9.968.172-1.648 1.858-6.251 4.7-10.14.861l.172-1.033z" transform="matrix(-.93564 0 0 -1.12959 157.947 -90.836)"/><path d="M-16.729-93.627c0 1.203-1.008 2.176-2.252 2.176-1.243 0-2.251-.973-2.251-2.176 0-1.203 1.008-2.177 2.251-2.177 1.244 0 2.252.975 2.252 2.177z" transform="matrix(-.93564 0 0 -1.12959 157.947 -90.836)"/><path d="M214.51 45.85c3.775-3.825 7.395-14.846 8.193-18.786 2.996-13.53 4.742-13.286 7.407.075.746 4.107 4.997 14.678 8.628 18.917-3.26-.375-4.481-3.54-5.837-3.744-.34 2.049.266 3.887 2.02 6.407-1.763.169-4.368-5.36-5.385-6.384-.678 1.229-.456 6.999-2.658 8.022-2.203-1.23-2.308-6.808-3.324-8.037-1.017 1.229-3.336 6.73-4.837 6.759.647-1.052 2.09-5.148 1.67-6.787-1.08.317-3.078 3.827-5.876 3.559z"/><path stroke-width="1.058" d="M-18.466-95.585c1.72.172 7.489-.135 9.968.172-1.648 1.857-6.251 4.7-10.14.862l.172-1.034z" transform="matrix(.93564 0 0 1.12959 250.09 121.213)"/><path d="M-16.73-94.096c0 1.203-1.008 2.177-2.252 2.177-1.243 0-2.251-.975-2.251-2.177 0-1.203 1.008-2.176 2.251-2.176 1.244 0 2.252.974 2.252 2.176z" transform="matrix(.93564 0 0 1.12959 250.09 121.213)"/><path stroke-width="1.058" d="M-18.465-95.118c1.72.172 7.488-.135 9.968.172-1.648 1.858-6.251 4.7-10.14.861l.172-1.033z" transform="matrix(-.93564 0 0 -1.12959 203.56 -90.836)"/><path d="M-16.729-93.627c0 1.203-1.008 2.176-2.252 2.176-1.243 0-2.252-.973-2.252-2.176 0-1.203 1.009-2.177 2.252-2.177 1.244 0 2.252.975 2.252 2.177z" transform="matrix(-.93564 0 0 -1.12959 203.56 -90.836)"/><path d="M256.03 45.85c3.775-3.825 7.394-14.846 8.193-18.786 2.996-13.53 4.74-13.286 7.406.075.746 4.107 4.998 14.678 8.628 18.917-3.26-.375-4.48-3.54-5.836-3.744-.34 2.049.265 3.887 2.02 6.407-1.763.169-4.368-5.36-5.385-6.384-.678 1.229-.456 6.999-2.658 8.022-2.202-1.23-2.308-6.808-3.324-8.037-1.017 1.229-3.336 6.73-4.837 6.759.647-1.052 2.09-5.148 1.67-6.787-1.081.317-3.08 3.827-5.877 3.559z"/><path stroke-width="1.058" d="M-18.466-95.585c1.72.172 7.489-.135 9.969.172-1.649 1.857-6.251 4.7-10.141.862l.172-1.034z" transform="matrix(.93564 0 0 1.12959 291.609 121.213)"/><path d="M-16.73-94.096c0 1.203-1.008 2.177-2.251 2.177-1.244 0-2.252-.975-2.252-2.177 0-1.203 1.008-2.176 2.252-2.176 1.242 0 2.251.974 2.251 2.176z" transform="matrix(.93564 0 0 1.12959 291.609 121.213)"/><path stroke-width="1.058" d="M-18.465-95.118c1.72.172 7.489-.135 9.969.172-1.649 1.858-6.251 4.7-10.141.861l.172-1.033z" transform="matrix(-.93564 0 0 -1.12959 245.078 -90.836)"/><path d="M-16.729-93.627c0 1.203-1.009 2.176-2.252 2.176-1.244 0-2.252-.973-2.252-2.176 0-1.203 1.008-2.177 2.252-2.177 1.243 0 2.252.975 2.252 2.177z" transform="matrix(-.93564 0 0 -1.12959 245.078 -90.836)"/><path d="M301.058 45.85c3.774-3.825 7.393-14.846 8.192-18.786 2.996-13.53 4.74-13.286 7.406.075.746 4.107 4.998 14.678 8.628 18.917-3.26-.375-4.48-3.54-5.836-3.744-.34 2.049.265 3.887 2.02 6.407-1.764.169-4.37-5.36-5.386-6.384-.678 1.229-.455 6.999-2.658 8.022-2.202-1.23-2.308-6.808-3.324-8.037-1.017 1.229-3.336 6.73-4.837 6.759.647-1.052 2.09-5.148 1.67-6.787-1.08.317-3.078 3.827-5.875 3.559z"/><path stroke-width="1.058" d="M-18.466-95.585c1.721.172 7.489-.135 9.969.172-1.649 1.857-6.251 4.7-10.14.862l.171-1.034z" transform="matrix(.93564 0 0 1.12959 336.636 121.213)"/><path d="M-16.73-94.096c0 1.203-1.008 2.177-2.252 2.177s-2.252-.975-2.252-2.177c0-1.203 1.008-2.176 2.252-2.176s2.252.974 2.252 2.176z" transform="matrix(.93564 0 0 1.12959 336.636 121.213)"/><path stroke-width="1.058" d="M-18.465-95.118c1.72.172 7.489-.135 9.969.172-1.649 1.858-6.252 4.7-10.141.861l.172-1.033z" transform="matrix(-.93564 0 0 -1.12959 290.106 -90.836)"/><path d="M-16.729-93.627c0 1.203-1.008 2.176-2.251 2.176-1.244 0-2.252-.973-2.252-2.176 0-1.203 1.008-2.177 2.252-2.177 1.242 0 2.251.975 2.251 2.177z" transform="matrix(-.93564 0 0 -1.12959 290.106 -90.836)"/><path d="M-38.026-66.664c4.034-3.386 7.902-13.143 8.756-16.631 3.202-11.978 5.067-11.763 7.917.067.796 3.635 5.341 12.993 9.221 16.746-3.484-.332-4.79-3.133-6.238-3.314-.362 1.812.283 3.44 2.161 5.671-1.885.151-4.671-4.745-5.757-5.651-.724 1.087-.486 6.196-2.841 7.102-2.354-1.088-2.466-6.027-3.553-7.115-1.086 1.088-3.564 5.958-5.17 5.983.692-.932 2.235-4.559 1.786-6.008-1.157.28-3.293 3.387-6.282 3.15z" transform="matrix(.93564 0 0 1.12959 226.699 166.396)"/><path stroke-width="1.058" d="M-18.466-95.533c1.72.172 7.488-.134 9.968.172-1.649 1.858-6.251 4.7-10.14.862l.172-1.034z" transform="matrix(.93564 0 0 1.12959 226.699 166.396)"/><path d="M-16.73-94.043c0 1.203-1.008 2.177-2.252 2.177s-2.252-.975-2.252-2.177c0-1.203 1.008-2.177 2.252-2.177s2.252.975 2.252 2.177z" transform="matrix(.93564 0 0 1.12959 226.699 166.396)"/><path stroke-width="1.058" d="M-18.465-95.17c1.72.172 7.489-.135 9.969.172-1.649 1.857-6.252 4.7-10.141.86l.172-1.032z" transform="matrix(-.93564 0 0 -1.12959 180.169 -45.653)"/><path d="M-16.729-93.68c0 1.203-1.008 2.177-2.252 2.177-1.243 0-2.251-.974-2.251-2.177s1.008-2.176 2.251-2.176c1.244 0 2.252.974 2.252 2.176z" transform="matrix(-.93564 0 0 -1.12959 180.169 -45.653)"/><path stroke-width="1.058" d="M-18.278-95.35c1.723.172 7.498-.135 9.981.172-1.651 1.855-6.259 4.694-10.153.86l.172-1.032z" transform="matrix(0 -1.12959 .93564 0 291.254 34.402)"/><path d="M-16.54-93.862c0 1.2-1.009 2.174-2.255 2.174s-2.255-.974-2.255-2.174c0-1.201 1.009-2.174 2.255-2.174s2.255.973 2.255 2.174z" transform="matrix(0 -1.12959 .93564 0 291.254 34.402)"/><path d="M-38.026-66.664c4.034-3.386 7.902-13.143 8.756-16.631 3.202-11.978 5.067-11.763 7.916.067.797 3.635 5.342 12.993 9.221 16.746-3.484-.332-4.789-3.133-6.237-3.314-.362 1.812.283 3.44 2.161 5.671-1.886.151-4.671-4.745-5.757-5.651-.724 1.087-.486 6.196-2.841 7.102-2.354-1.088-2.466-6.027-3.553-7.115-1.086 1.088-3.565 5.958-5.17 5.983.692-.932 2.235-4.559 1.786-6.008-1.157.28-3.293 3.387-6.282 3.15z" transform="matrix(.93564 0 0 1.12959 272.31 166.396)"/><path stroke-width="1.058" d="M-18.467-95.533c1.721.172 7.489-.134 9.969.172-1.649 1.858-6.251 4.7-10.14.862l.171-1.034z" transform="matrix(.93564 0 0 1.12959 272.31 166.396)"/><path d="M-16.73-94.043c0 1.203-1.008 2.177-2.252 2.177s-2.252-.975-2.252-2.177c0-1.203 1.008-2.177 2.252-2.177s2.252.975 2.252 2.177z" transform="matrix(.93564 0 0 1.12959 272.31 166.396)"/><path stroke-width="1.058" d="M-18.465-95.17c1.72.172 7.489-.135 9.969.172-1.649 1.857-6.252 4.7-10.141.86l.172-1.032z" transform="matrix(-.93564 0 0 -1.12959 225.78 -45.653)"/><path d="M-16.729-93.68c0 1.203-1.008 2.177-2.251 2.177-1.244 0-2.252-.974-2.252-2.177s1.008-2.176 2.252-2.176c1.243 0 2.251.974 2.251 2.176z" transform="matrix(-.93564 0 0 -1.12959 225.78 -45.653)"/><path stroke-width="1.058" d="M-18.278-95.35c1.723.171 7.498-.135 9.981.171-1.651 1.856-6.259 4.695-10.153.861l.172-1.032z" transform="matrix(0 -1.12959 .93564 0 336.866 34.402)"/><path d="M-16.54-93.862c0 1.2-1.009 2.173-2.255 2.173s-2.255-.973-2.255-2.173c0-1.201 1.009-2.174 2.255-2.174s2.255.973 2.255 2.174z" transform="matrix(0 -1.12959 .93564 0 336.866 34.402)"/><path d="M-38.027-66.664c4.034-3.386 7.902-13.143 8.756-16.631 3.202-11.978 5.068-11.763 7.917.067.797 3.635 5.341 12.993 9.221 16.746-3.484-.332-4.79-3.133-6.238-3.314-.362 1.812.284 3.44 2.161 5.671-1.885.151-4.671-4.745-5.756-5.651-.724 1.087-.487 6.196-2.841 7.102-2.355-1.088-2.466-6.027-3.553-7.115-1.087 1.088-3.565 5.958-5.171 5.983.693-.932 2.236-4.559 1.786-6.008-1.156.28-3.291 3.387-6.282 3.15z" transform="matrix(.93564 0 0 1.12959 313.83 166.396)"/><path stroke-width="1.058" d="M-18.466-95.533c1.72.172 7.488-.134 9.968.172-1.648 1.858-6.251 4.7-10.14.862l.172-1.034z" transform="matrix(.93564 0 0 1.12959 313.83 166.396)"/><path d="M-16.73-94.043c0 1.203-1.008 2.177-2.252 2.177-1.243 0-2.251-.975-2.251-2.177 0-1.203 1.008-2.177 2.251-2.177 1.243 0 2.252.975 2.252 2.177z" transform="matrix(.93564 0 0 1.12959 313.83 166.396)"/><path stroke-width="1.058" d="M-18.465-95.17c1.72.172 7.489-.135 9.968.172-1.648 1.857-6.251 4.7-10.14.86l.172-1.032z" transform="matrix(-.93564 0 0 -1.12959 267.3 -45.653)"/><path d="M-16.729-93.68c0 1.203-1.008 2.177-2.252 2.177-1.243 0-2.251-.974-2.251-2.177s1.008-2.176 2.251-2.176c1.244 0 2.252.974 2.252 2.176z" transform="matrix(-.93564 0 0 -1.12959 267.3 -45.653)"/><path stroke-width="1.058" d="M-18.278-95.35c1.723.172 7.498-.135 9.981.172-1.651 1.855-6.259 4.694-10.153.86l.172-1.032z" transform="matrix(0 -1.12959 .93564 0 378.385 34.402)"/><path d="M-16.54-93.862c0 1.2-1.009 2.174-2.255 2.174s-2.255-.974-2.255-2.174 1.009-2.174 2.255-2.174 2.255.974 2.255 2.174z" transform="matrix(0 -1.12959 .93564 0 378.385 34.402)"/><path d="M-38.027-66.664c4.035-3.386 7.902-13.143 8.757-16.631 3.201-11.978 5.067-11.763 7.916.067.797 3.635 5.341 12.993 9.221 16.746-3.484-.332-4.79-3.133-6.238-3.314-.362 1.812.284 3.44 2.161 5.671-1.885.151-4.67-4.745-5.756-5.651-.724 1.087-.487 6.196-2.841 7.102-2.354-1.088-2.466-6.027-3.553-7.115-1.087 1.088-3.565 5.958-5.17 5.983.692-.932 2.235-4.559 1.786-6.008-1.156.28-3.293 3.387-6.283 3.15z" transform="matrix(.93564 0 0 1.12959 358.857 166.396)"/><path stroke-width="1.058" d="M-18.466-95.533c1.72.172 7.489-.134 9.969.172-1.649 1.858-6.252 4.7-10.141.862l.172-1.034z" transform="matrix(.93564 0 0 1.12959 358.857 166.396)"/><path d="M-16.731-94.043c0 1.203-1.008 2.177-2.251 2.177-1.244 0-2.252-.975-2.252-2.177 0-1.203 1.008-2.177 2.252-2.177 1.243 0 2.251.975 2.251 2.177z" transform="matrix(.93564 0 0 1.12959 358.857 166.396)"/><path stroke-width="1.058" d="M-18.465-95.17c1.721.172 7.489-.135 9.969.172-1.649 1.857-6.251 4.7-10.14.86l.171-1.032z" transform="matrix(-.93564 0 0 -1.12959 312.327 -45.653)"/><path d="M-16.728-93.68c0 1.203-1.008 2.177-2.252 2.177s-2.252-.974-2.252-2.177 1.008-2.176 2.252-2.176 2.252.974 2.252 2.176z" transform="matrix(-.93564 0 0 -1.12959 312.327 -45.653)"/><path stroke-width="1.058" d="M-18.278-95.351c1.723.172 7.498-.135 9.981.172-1.651 1.855-6.259 4.695-10.153.86l.172-1.032z" transform="matrix(0 -1.12959 .93564 0 423.412 34.402)"/><path d="M-16.54-93.862c0 1.201-1.009 2.174-2.255 2.174s-2.255-.973-2.255-2.174c0-1.2 1.009-2.174 2.255-2.174s2.255.973 2.255 2.174z" transform="matrix(0 -1.12959 .93564 0 423.412 34.402)"/><path d="M-38.027-66.555c4.034-3.385 7.902-13.143 8.756-16.631 3.202-11.976 5.068-11.762 7.917.067.797 3.636 5.341 12.994 9.221 16.747-3.484-.332-4.79-3.133-6.238-3.315-.362 1.813.284 3.441 2.161 5.671-1.885.15-4.67-4.745-5.756-5.651-.724 1.088-.487 6.195-2.841 7.101-2.355-1.087-2.466-6.027-3.553-7.114-1.087 1.088-3.565 5.958-5.17 5.983.692-.932 2.235-4.558 1.785-6.008-1.155.28-3.292 3.388-6.282 3.15z" transform="matrix(.93564 0 0 1.12959 225.53 260.293)"/><path stroke-width="1.058" d="M-18.466-95.424c1.72.173 7.489-.135 9.969.173-1.649 1.857-6.252 4.7-10.141.861l.172-1.034z" transform="matrix(.93564 0 0 1.12959 225.53 260.293)"/><path d="M-16.731-93.933c0 1.203-1.008 2.177-2.252 2.177-1.243 0-2.251-.974-2.251-2.177 0-1.202 1.008-2.177 2.251-2.177 1.244 0 2.252.975 2.252 2.177z" transform="matrix(.93564 0 0 1.12959 225.53 260.293)"/><path stroke-width="1.058" d="M-18.464-95.28c1.72.172 7.488-.135 9.968.172-1.649 1.858-6.251 4.7-10.14.862l.172-1.034z" transform="matrix(-.93564 0 0 -1.12959 178.999 48.244)"/><path d="M-16.728-93.789c0 1.202-1.008 2.177-2.252 2.177s-2.252-.975-2.252-2.177c0-1.203 1.008-2.177 2.252-2.177s2.252.974 2.252 2.177z" transform="matrix(-.93564 0 0 -1.12959 178.999 48.244)"/><path stroke-width="1.058" d="M-18.388-95.351c1.722.172 7.499-.135 9.981.172-1.65 1.855-6.259 4.695-10.153.86l.172-1.032z" transform="matrix(0 -1.12959 .93564 0 290.084 128.299)"/><path d="M-16.649-93.862c0 1.2-1.011 2.174-2.256 2.174-1.245 0-2.255-.974-2.255-2.174s1.01-2.174 2.255-2.174c1.245 0 2.256.973 2.256 2.174z" transform="matrix(0 -1.12959 .93564 0 290.084 128.299)"/><path d="M-38.027-66.555c4.034-3.385 7.902-13.143 8.756-16.631 3.202-11.976 5.068-11.762 7.917.067.797 3.636 5.341 12.994 9.221 16.747-3.484-.332-4.79-3.133-6.238-3.315-.362 1.813.284 3.441 2.161 5.671-1.885.15-4.67-4.745-5.756-5.651-.724 1.088-.487 6.195-2.841 7.101-2.355-1.087-2.466-6.027-3.553-7.114-1.087 1.088-3.565 5.958-5.17 5.983.692-.932 2.235-4.558 1.785-6.008-1.156.28-3.292 3.388-6.282 3.15z" transform="matrix(.93564 0 0 1.12959 271.141 260.293)"/><path stroke-width="1.058" d="M-18.466-95.424c1.72.173 7.489-.135 9.968.173-1.648 1.857-6.251 4.7-10.14.861l.172-1.034z" transform="matrix(.93564 0 0 1.12959 271.141 260.293)"/><path d="M-16.731-93.933c0 1.203-1.008 2.177-2.252 2.177-1.243 0-2.251-.974-2.251-2.177 0-1.202 1.008-2.177 2.251-2.177 1.244 0 2.252.975 2.252 2.177z" transform="matrix(.93564 0 0 1.12959 271.141 260.293)"/><path stroke-width="1.058" d="M-18.464-95.28c1.72.172 7.488-.135 9.968.172-1.648 1.858-6.251 4.7-10.14.862l.172-1.034z" transform="matrix(-.93564 0 0 -1.12959 224.611 48.244)"/><path d="M-16.728-93.789c0 1.202-1.008 2.177-2.252 2.177-1.243 0-2.251-.975-2.251-2.177 0-1.203 1.008-2.177 2.251-2.177 1.243 0 2.252.974 2.252 2.177z" transform="matrix(-.93564 0 0 -1.12959 224.611 48.244)"/><path stroke-width="1.058" d="M-18.388-95.351c1.722.172 7.499-.135 9.981.172-1.65 1.855-6.259 4.694-10.153.86l.172-1.032z" transform="matrix(0 -1.12959 .93564 0 335.696 128.299)"/><path d="M-16.649-93.862c0 1.2-1.011 2.174-2.256 2.174-1.245 0-2.255-.974-2.255-2.174s1.01-2.174 2.255-2.174c1.245 0 2.256.974 2.256 2.174z" transform="matrix(0 -1.12959 .93564 0 335.696 128.299)"/><path d="M-38.027-66.555c4.035-3.385 7.902-13.143 8.757-16.631 3.201-11.976 5.067-11.762 7.916.067.797 3.636 5.342 12.994 9.221 16.747-3.484-.332-4.79-3.133-6.237-3.315-.362 1.813.283 3.441 2.159 5.671-1.885.15-4.67-4.745-5.756-5.651-.724 1.088-.487 6.195-2.841 7.101-2.354-1.087-2.466-6.027-3.553-7.114-1.087 1.088-3.565 5.958-5.17 5.983.692-.932 2.235-4.558 1.786-6.008-1.156.28-3.292 3.388-6.282 3.15z" transform="matrix(.93564 0 0 1.12959 312.66 260.293)"/><path stroke-width="1.058" d="M-18.467-95.424c1.72.173 7.489-.135 9.969.173-1.649 1.857-6.252 4.7-10.141.861l.172-1.034z" transform="matrix(.93564 0 0 1.12959 312.66 260.293)"/><path d="M-16.731-93.933c0 1.203-1.008 2.177-2.251 2.177-1.244 0-2.252-.974-2.252-2.177 0-1.202 1.008-2.177 2.252-2.177 1.243 0 2.251.975 2.251 2.177z" transform="matrix(.93564 0 0 1.12959 312.66 260.293)"/><path stroke-width="1.058" d="M-18.465-95.28c1.72.172 7.489-.135 9.969.172-1.649 1.858-6.251 4.7-10.14.862l.171-1.034z" transform="matrix(-.93564 0 0 -1.12959 266.13 48.244)"/><path d="M-16.728-93.789c0 1.202-1.008 2.177-2.252 2.177s-2.252-.975-2.252-2.177c0-1.203 1.008-2.177 2.252-2.177s2.252.974 2.252 2.177z" transform="matrix(-.93564 0 0 -1.12959 266.13 48.244)"/><path stroke-width="1.058" d="M-18.388-95.351c1.722.172 7.499-.135 9.981.172-1.65 1.855-6.259 4.695-10.153.86l.172-1.032z" transform="matrix(0 -1.12959 .93564 0 377.215 128.299)"/><path d="M-16.649-93.863c0 1.201-1.011 2.174-2.256 2.174-1.245 0-2.255-.973-2.255-2.174 0-1.2 1.01-2.174 2.255-2.174 1.245 0 2.256.974 2.256 2.174z" transform="matrix(0 -1.12959 .93564 0 377.215 128.299)"/><path d="M-38.027-66.555c4.034-3.385 7.901-13.143 8.756-16.631 3.202-11.976 5.067-11.762 7.916.067.797 3.636 5.342 12.994 9.221 16.747-3.484-.332-4.789-3.133-6.237-3.315-.362 1.813.283 3.441 2.161 5.671-1.886.15-4.671-4.745-5.757-5.651-.724 1.088-.486 6.195-2.841 7.101-2.354-1.087-2.466-6.027-3.553-7.114-1.087 1.088-3.565 5.958-5.17 5.983.692-.932 2.235-4.558 1.786-6.008-1.156.28-3.292 3.388-6.282 3.15z" transform="matrix(.93564 0 0 1.12959 357.688 260.293)"/><path stroke-width="1.058" d="M-18.467-95.424c1.721.173 7.489-.135 9.969.173-1.649 1.857-6.251 4.7-10.14.861l.171-1.034z" transform="matrix(.93564 0 0 1.12959 357.688 260.293)"/><path d="M-16.73-93.933c0 1.203-1.008 2.177-2.252 2.177s-2.252-.974-2.252-2.177c0-1.202 1.008-2.177 2.252-2.177s2.252.975 2.252 2.177z" transform="matrix(.93564 0 0 1.12959 357.688 260.293)"/><path stroke-width="1.058" d="M-18.465-95.28c1.72.172 7.489-.135 9.969.172-1.649 1.858-6.252 4.7-10.141.862l.172-1.034z" transform="matrix(-.93564 0 0 -1.12959 311.158 48.244)"/><path d="M-16.729-93.789c0 1.202-1.008 2.177-2.251 2.177-1.244 0-2.252-.975-2.252-2.177 0-1.203 1.008-2.177 2.252-2.177 1.243 0 2.251.974 2.251 2.177z" transform="matrix(-.93564 0 0 -1.12959 311.158 48.244)"/><path stroke-width="1.058" d="M-18.388-95.35c1.722.171 7.499-.136 9.981.171-1.65 1.856-6.259 4.695-10.153.86l.172-1.031z" transform="matrix(0 -1.12959 .93564 0 422.243 128.299)"/><path d="M-16.649-93.862c0 1.2-1.011 2.173-2.256 2.173-1.245 0-2.255-.973-2.255-2.173 0-1.201 1.01-2.174 2.255-2.174 1.245 0 2.256.973 2.256 2.174z" transform="matrix(0 -1.12959 .93564 0 422.243 128.299)"/></g><path fill="#039" d="M.256.298h180.138v215.708H.256z"/><g fill="gold"><path d="M33.325 197.978c4.03-1.598 6.016-4.017 6.229-7.43.137-2.053-1.909-4.46-4.1-4.515-6.842-.187-9.129 10.983-9.088 13.71.289-.001 1.712-.03 2.065-.016.312-1.722.044-3.831 2.229-5.61 2.187-1.778 3.153-.423 3.427.672s-1.008 3.3-.762 3.189zm-18.274 0c-4.031-1.598-6.016-4.017-6.229-7.43-.137-2.053 1.909-4.46 4.099-4.515 6.843-.187 9.13 10.983 9.089 13.71-.289-.001-1.713-.03-2.065-.016-.312-1.722-.044-3.831-2.23-5.61-2.187-1.778-3.153-.423-3.426.672-.274 1.095 1.008 3.3.762 3.189z"/><path d="M24.244 173.004c4.649 4.84 5.898 9.764 2.798 17.65-1.062 2.634-1.513 5.795-1.469 9.08-.45.01-2.366-.012-2.82-.044.04-3.245-.497-6.66-1.557-9.34-3.59-8.052-1.003-13.516 2.925-17.347h.123zm2.444 28.591c.951 2.544 2.632 3.505 4.005 4.179-2.093.993-4.513-.086-4.968-.6.056.718.112 2.656-.149 3.966-.177 1.056-.625 1.664-1.382 2.506-.784-.823-1.27-1.486-1.531-2.421-.317-1.357.019-3.283-.01-4.003-.362.448-3.258 1.524-5.163.589 1.773-.774 3.492-1.676 4.052-4.263.208.013 4.623.01 5.146.01v.037zm-8.067-1.785h11.016v1.642H18.621z"/></g><g fill="gold"><path d="M86.36 197.978c4.031-1.598 6.016-4.017 6.23-7.43.136-2.053-1.91-4.46-4.1-4.515-6.843-.187-9.13 10.983-9.089 13.71.29-.001 1.712-.03 2.065-.016.312-1.722.044-3.831 2.23-5.61 2.186-1.778 3.152-.423 3.426.672s-1.008 3.3-.762 3.189zm-18.274 0c-4.03-1.598-6.016-4.017-6.229-7.43-.137-2.053 1.91-4.46 4.1-4.515 6.842-.187 9.13 10.983 9.088 13.71-.289-.001-1.713-.03-2.065-.016-.312-1.722-.044-3.831-2.23-5.61-2.187-1.778-3.152-.423-3.426.672s1.008 3.3.762 3.189z"/><path d="M77.28 173.004c4.648 4.84 5.897 9.764 2.797 17.65-1.062 2.634-1.513 5.795-1.469 9.08-.45.01-2.366-.012-2.82-.044.04-3.245-.497-6.66-1.557-9.34-3.59-8.052-1.003-13.516 2.925-17.347h.124zm2.443 28.591c.951 2.544 2.632 3.505 4.005 4.179-2.093.993-4.513-.086-4.968-.6.056.718.112 2.656-.149 3.966-.177 1.056-.625 1.664-1.382 2.506-.784-.823-1.27-1.486-1.53-2.421-.318-1.357.018-3.283-.01-4.003-.363.448-3.259 1.524-5.164.589 1.773-.774 3.492-1.676 4.052-4.263.208.013 4.623.01 5.146.01v.037zm-8.067-1.785h11.016v1.642H71.656z"/></g><g fill="gold"><path d="M137.803 197.978c4.031-1.598 6.016-4.017 6.23-7.43.136-2.053-1.91-4.46-4.1-4.515-6.843-.187-9.13 10.983-9.089 13.71.29-.001 1.712-.03 2.065-.016.312-1.722.044-3.831 2.23-5.61 2.186-1.778 3.152-.423 3.426.672s-1.008 3.3-.762 3.189zm-18.273 0c-4.03-1.598-6.016-4.017-6.229-7.43-.137-2.053 1.91-4.46 4.1-4.515 6.841-.187 9.13 10.983 9.088 13.71-.289-.001-1.713-.03-2.065-.016-.312-1.722-.044-3.831-2.23-5.61-2.187-1.778-3.153-.423-3.426.672-.274 1.095 1.008 3.3.762 3.189z"/><path d="M128.723 173.004c4.65 4.84 5.897 9.764 2.798 17.65-1.062 2.634-1.513 5.795-1.47 9.08-.449.01-2.365-.012-2.819-.044.04-3.245-.497-6.66-1.557-9.34-3.59-8.052-1.003-13.516 2.925-17.347h.123zm2.444 28.591c.951 2.544 2.632 3.505 4.005 4.179-2.094.993-4.513-.086-4.968-.6.056.718.112 2.656-.149 3.966-.177 1.056-.625 1.664-1.382 2.506-.784-.823-1.27-1.486-1.53-2.421-.318-1.357.018-3.283-.01-4.003-.364.448-3.259 1.524-5.164.589 1.773-.774 3.492-1.676 4.052-4.263.208.013 4.623.01 5.146.01v.037zm-8.067-1.785h11.016v1.642H123.1z"/></g><g fill="gold"><path d="M58.782 156.556c4.03-1.598 6.016-4.017 6.229-7.43.137-2.053-1.909-4.46-4.1-4.516-6.842-.185-9.129 10.985-9.088 13.711.289 0 1.712-.029 2.065-.016.312-1.722.044-3.83 2.229-5.609 2.187-1.779 3.153-.424 3.427.671s-1.008 3.3-.762 3.19zm-18.274 0c-4.031-1.598-6.016-4.017-6.229-7.43-.137-2.053 1.909-4.46 4.099-4.516 6.843-.185 9.13 10.985 9.089 13.711-.289 0-1.713-.029-2.065-.016-.312-1.722-.044-3.83-2.23-5.609-2.187-1.779-3.153-.424-3.426.671-.274 1.095 1.008 3.3.762 3.19z"/><path d="M49.701 131.582c4.649 4.841 5.897 9.764 2.798 17.65-1.062 2.635-1.513 5.795-1.47 9.08-.449.01-2.365-.012-2.819-.044.04-3.245-.497-6.66-1.557-9.338-3.59-8.055-1.003-13.518 2.925-17.349h.123v.001zm2.444 28.591c.951 2.543 2.632 3.506 4.005 4.178-2.094.993-4.513-.085-4.968-.598.056.718.112 2.655-.149 3.965-.177 1.055-.625 1.663-1.382 2.506-.784-.823-1.27-1.486-1.531-2.42-.317-1.358.019-3.284-.01-4.003-.362.446-3.258 1.523-5.163.587 1.773-.773 3.492-1.675 4.052-4.263.208.013 4.623.011 5.146.011v.037zm-8.067-1.783h11.016v1.641H44.078z"/></g><g fill="gold"><path d="M111.817 156.556c4.03-1.598 6.016-4.017 6.23-7.43.136-2.053-1.91-4.46-4.1-4.516-6.843-.185-9.13 10.985-9.089 13.711.29 0 1.712-.029 2.065-.016.312-1.722.044-3.83 2.23-5.609s3.152-.424 3.426.671-1.008 3.3-.762 3.19zm-18.274 0c-4.03-1.598-6.016-4.017-6.229-7.43-.137-2.053 1.91-4.46 4.1-4.516 6.842-.185 9.13 10.985 9.088 13.711-.289 0-1.713-.029-2.065-.016-.312-1.722-.044-3.83-2.23-5.609-2.187-1.779-3.152-.424-3.426.671s1.008 3.3.762 3.19z"/><path d="M102.737 131.582c4.648 4.841 5.897 9.764 2.797 17.65-1.062 2.635-1.513 5.795-1.469 9.08-.45.01-2.366-.012-2.82-.044.04-3.245-.497-6.66-1.557-9.338-3.59-8.055-1.003-13.518 2.925-17.349h.124v.001zm2.443 28.591c.951 2.543 2.632 3.506 4.005 4.178-2.093.993-4.513-.085-4.968-.598.056.718.112 2.655-.149 3.965-.177 1.055-.625 1.663-1.382 2.506-.784-.823-1.27-1.486-1.53-2.42-.318-1.358.018-3.284-.01-4.003-.363.446-3.259 1.523-5.164.587 1.773-.773 3.492-1.675 4.052-4.263.208.013 4.623.011 5.146.011v.037zm-8.067-1.783h11.016v1.641H97.113z"/></g><g fill="gold"><path d="M163.261 156.556c4.031-1.598 6.016-4.017 6.23-7.43.136-2.053-1.91-4.46-4.1-4.516-6.842-.185-9.13 10.985-9.088 13.711.288 0 1.712-.029 2.064-.016.312-1.722.044-3.83 2.23-5.609 2.187-1.779 3.153-.424 3.427.671.273 1.095-1.009 3.3-.763 3.19zm-18.274 0c-4.03-1.598-6.016-4.017-6.229-7.43-.137-2.053 1.91-4.46 4.1-4.516 6.842-.185 9.13 10.985 9.088 13.711-.288 0-1.712-.029-2.064-.016-.312-1.722-.045-3.83-2.23-5.609-2.187-1.779-3.153-.424-3.427.671s1.008 3.3.762 3.19z"/><path d="M154.181 131.582c4.65 4.841 5.897 9.764 2.798 17.65-1.063 2.635-1.514 5.795-1.47 9.08-.45.01-2.365-.012-2.819-.044.04-3.245-.497-6.66-1.557-9.338-3.59-8.055-1.003-13.518 2.925-17.349h.123v.001zm2.442 28.591c.952 2.543 2.632 3.506 4.006 4.178-2.094.993-4.513-.085-4.968-.598.056.718.112 2.655-.149 3.965-.178 1.055-.625 1.663-1.382 2.506-.785-.823-1.27-1.486-1.53-2.42-.318-1.358.018-3.284-.01-4.003-.364.446-3.259 1.523-5.164.587 1.773-.773 3.492-1.675 4.052-4.263.207.013 4.623.011 5.146.011v.037zm-8.065-1.783h11.016v1.641h-11.016z"/></g><g fill="gold"><path d="M33.136 114.318c4.03-1.598 6.016-4.016 6.229-7.43.137-2.053-1.91-4.46-4.1-4.516-6.842-.185-9.13 10.985-9.088 13.711.289 0 1.712-.029 2.065-.016.312-1.722.044-3.83 2.23-5.609s3.152-.424 3.426.671-1.008 3.3-.762 3.19zm-18.274 0c-4.031-1.598-6.016-4.016-6.23-7.43-.136-2.053 1.91-4.46 4.1-4.516 6.843-.185 9.13 10.985 9.089 13.711-.29 0-1.712-.029-2.065-.016-.312-1.722-.044-3.83-2.23-5.609-2.187-1.779-3.152-.424-3.426.671s1.008 3.3.762 3.19z"/><path d="M24.056 89.345c4.648 4.84 5.897 9.764 2.798 17.65-1.063 2.635-1.514 5.795-1.47 9.08-.45.01-2.366-.012-2.82-.044.04-3.245-.497-6.66-1.557-9.338-3.59-8.055-1.003-13.517 2.925-17.348h.124zm2.442 28.59c.95 2.543 2.632 3.505 4.005 4.18-2.093.991-4.513-.087-4.968-.6.056.718.112 2.655-.15 3.965-.176 1.055-.624 1.663-1.381 2.506-.784-.823-1.27-1.486-1.531-2.42-.317-1.359.019-3.284-.01-4.003-.362.446-3.258 1.522-5.163.588 1.774-.773 3.493-1.676 4.052-4.264.208.013 4.623.011 5.146.011v.037zm-8.066-1.784h11.016v1.642H18.432z"/></g><g fill="gold"><path d="M86.17 114.318c4.032-1.598 6.017-4.016 6.23-7.43.137-2.053-1.91-4.46-4.1-4.516-6.842-.185-9.13 10.985-9.088 13.711.289 0 1.712-.029 2.065-.016.312-1.722.044-3.83 2.23-5.609s3.152-.424 3.426.671-1.008 3.3-.762 3.19zm-18.273 0c-4.031-1.598-6.016-4.016-6.23-7.43-.136-2.053 1.91-4.46 4.1-4.516 6.843-.185 9.13 10.985 9.089 13.711-.29 0-1.712-.029-2.065-.016-.312-1.722-.044-3.83-2.23-5.609s-3.152-.424-3.426.671 1.008 3.3.762 3.19z"/><path d="M77.09 89.345c4.649 4.84 5.898 9.764 2.799 17.65-1.063 2.635-1.514 5.795-1.47 9.08-.45.01-2.366-.012-2.82-.044.04-3.245-.497-6.66-1.557-9.338-3.59-8.055-1.003-13.517 2.925-17.348h.124zm2.443 28.59c.952 2.543 2.632 3.505 4.005 4.18-2.093.991-4.512-.087-4.968-.6.056.718.112 2.655-.15 3.965-.176 1.055-.624 1.663-1.381 2.506-.784-.823-1.27-1.486-1.531-2.42-.317-1.359.019-3.284-.01-4.003-.362.446-3.258 1.522-5.162.588 1.773-.773 3.492-1.676 4.05-4.264.209.013 4.624.011 5.147.011v.037zm-8.066-1.784h11.017v1.642H71.467z"/></g><g fill="gold"><path d="M137.615 114.318c4.031-1.598 6.016-4.016 6.23-7.43.136-2.053-1.91-4.46-4.1-4.516-6.843-.185-9.13 10.985-9.089 13.711.29 0 1.712-.029 2.065-.016.312-1.722.044-3.83 2.23-5.609s3.152-.424 3.426.671-1.008 3.3-.762 3.19zm-18.274 0c-4.03-1.598-6.016-4.016-6.229-7.43-.137-2.053 1.91-4.46 4.1-4.516 6.842-.185 9.13 10.985 9.088 13.711-.289 0-1.712-.029-2.065-.016-.312-1.722-.044-3.83-2.23-5.609-2.187-1.779-3.152-.424-3.426.671s1.008 3.3.762 3.19z"/><path d="M128.535 89.345c4.648 4.84 5.897 9.764 2.797 17.65-1.062 2.635-1.513 5.795-1.469 9.08-.45.01-2.366-.012-2.82-.044.04-3.245-.497-6.66-1.557-9.338-3.59-8.055-1.003-13.517 2.925-17.348h.124zm2.443 28.59c.951 2.543 2.632 3.505 4.005 4.18-2.093.991-4.513-.087-4.968-.6.056.718.112 2.655-.149 3.965-.177 1.055-.625 1.663-1.382 2.506-.784-.823-1.27-1.486-1.53-2.42-.318-1.359.018-3.284-.01-4.003-.363.446-3.259 1.522-5.164.588 1.774-.773 3.492-1.676 4.052-4.264.208.013 4.623.011 5.146.011v.037zm-8.067-1.784h11.016v1.642h-11.016z"/></g><g fill="gold"><path d="M58.971 71.834c4.031-1.598 6.016-4.016 6.23-7.43.136-2.053-1.909-4.459-4.1-4.515-6.842-.186-9.13 10.984-9.088 13.71.288-.001 1.712-.029 2.064-.016.312-1.722.044-3.831 2.23-5.61s3.153-.423 3.427.672c.273 1.095-1.009 3.3-.763 3.189zm-18.274 0c-4.03-1.598-6.016-4.016-6.229-7.43-.136-2.053 1.91-4.459 4.1-4.515 6.842-.186 9.13 10.984 9.088 13.71-.288-.001-1.712-.029-2.064-.016-.312-1.722-.044-3.831-2.23-5.61s-3.153-.423-3.427.672c-.275 1.095 1.008 3.3.762 3.189z"/><path d="M49.891 46.86c4.65 4.84 5.897 9.764 2.798 17.65-1.063 2.634-1.513 5.794-1.47 9.08-.45.011-2.365-.012-2.819-.044.04-3.246-.497-6.661-1.557-9.338-3.59-8.054-1.003-13.517 2.925-17.348h.123zm2.442 28.591c.952 2.544 2.632 3.506 4.006 4.179-2.094.992-4.513-.086-4.968-.598.056.717.112 2.655-.149 3.964-.177 1.056-.625 1.664-1.382 2.506-.785-.823-1.27-1.486-1.53-2.421-.318-1.357.018-3.283-.01-4.002-.364.448-3.259 1.523-5.164.589 1.773-.775 3.492-1.676 4.052-4.264.207.013 4.623.01 5.146.01v.037zm-8.066-1.784h11.016v1.641H44.267z"/></g><g fill="gold"><path d="M112.006 71.834c4.031-1.598 6.016-4.016 6.23-7.43.135-2.053-1.91-4.459-4.1-4.515-6.843-.186-9.13 10.984-9.089 13.71.288-.001 1.712-.029 2.064-.016.312-1.722.044-3.831 2.23-5.61s3.153-.423 3.427.672c.275 1.095-1.009 3.3-.762 3.189zm-18.274 0c-4.03-1.598-6.016-4.016-6.229-7.43-.137-2.053 1.908-4.459 4.1-4.515 6.841-.186 9.13 10.984 9.087 13.71-.288-.001-1.712-.029-2.064-.016-.312-1.722-.044-3.831-2.23-5.61s-3.153-.423-3.427.672c-.273 1.095 1.01 3.3.763 3.189z"/><path d="M102.925 46.86c4.65 4.84 5.897 9.764 2.798 17.65-1.063 2.634-1.513 5.794-1.47 9.08-.45.011-2.365-.012-2.819-.044.04-3.246-.497-6.661-1.557-9.338-3.59-8.054-1.003-13.517 2.925-17.348h.123zm2.443 28.591c.952 2.544 2.632 3.506 4.006 4.179-2.094.992-4.513-.086-4.968-.598.056.717.112 2.655-.149 3.964-.177 1.056-.625 1.664-1.382 2.506-.785-.823-1.27-1.486-1.53-2.421-.318-1.357.018-3.283-.01-4.002-.364.448-3.259 1.523-5.164.589 1.773-.775 3.492-1.676 4.052-4.264.207.013 4.623.01 5.146.01v.037zm-8.066-1.784h11.016v1.641H97.302z"/></g><g fill="gold"><path d="M163.45 71.834c4.031-1.598 6.016-4.016 6.23-7.43.136-2.053-1.91-4.459-4.1-4.515-6.843-.186-9.13 10.984-9.089 13.71.29-.001 1.713-.029 2.065-.016.312-1.722.044-3.831 2.23-5.61s3.153-.423 3.426.672c.274 1.095-1.007 3.3-.762 3.189zm-18.275 0c-4.03-1.598-6.016-4.016-6.229-7.43-.137-2.053 1.91-4.459 4.1-4.515 6.842-.186 9.13 10.984 9.088 13.71-.289-.001-1.712-.029-2.065-.016-.312-1.722-.044-3.831-2.229-5.61-2.187-1.779-3.153-.423-3.427.672s1.008 3.3.762 3.189z"/><path d="M154.37 46.86c4.65 4.84 5.897 9.764 2.798 17.65-1.063 2.634-1.514 5.794-1.47 9.08-.45.011-2.366-.012-2.819-.044.04-3.246-.497-6.661-1.557-9.338-3.59-8.054-1.002-13.517 2.926-17.348h.122zm2.443 28.591c.952 2.544 2.632 3.506 4.005 4.179-2.094.992-4.513-.086-4.968-.598.055.717.111 2.655-.149 3.964-.178 1.056-.626 1.664-1.383 2.506-.784-.823-1.27-1.486-1.53-2.421-.318-1.357.02-3.283-.01-4.002-.363.448-3.258 1.523-5.163.589 1.773-.775 3.492-1.676 4.052-4.264.207.013 4.623.01 5.146.01v.037zm-8.065-1.784h11.016v1.641h-11.017z"/></g><g fill="gold"><path d="M33.552 28.396c4.031-1.598 6.016-4.016 6.23-7.43.136-2.052-1.91-4.46-4.1-4.516-6.843-.185-9.13 10.985-9.089 13.711.29-.001 1.712-.03 2.065-.016.312-1.722.044-3.831 2.23-5.61 2.186-1.779 3.152-.423 3.426.672.276 1.095-1.008 3.3-.762 3.189zm-18.272 0c-4.032-1.598-6.017-4.016-6.23-7.43-.137-2.052 1.91-4.46 4.1-4.516 6.841-.185 9.13 10.985 9.088 13.711-.289-.001-1.713-.03-2.065-.016-.312-1.722-.044-3.831-2.23-5.61s-3.153-.423-3.426.672c-.274 1.095 1.008 3.3.762 3.189z"/><path d="M24.472 3.422c4.65 4.84 5.897 9.764 2.798 17.65-1.062 2.634-1.513 5.794-1.47 9.08-.449.01-2.365-.012-2.819-.044.04-3.246-.497-6.661-1.557-9.338-3.59-8.054-1.003-13.517 2.925-17.348h.123zm2.444 28.591c.951 2.543 2.632 3.506 4.005 4.18-2.094.991-4.513-.086-4.968-.599.056.717.112 2.655-.149 3.964-.177 1.056-.625 1.664-1.382 2.506-.784-.823-1.27-1.486-1.53-2.421-.318-1.357.018-3.284-.01-4.002-.364.447-3.259 1.523-5.164.588 1.773-.773 3.492-1.675 4.052-4.264.208.013 4.623.011 5.146.011v.037zm-8.066-1.784h11.015v1.64H18.85z"/></g><g fill="gold"><path d="M86.588 28.396c4.03-1.598 6.017-4.016 6.229-7.43.137-2.052-1.91-4.46-4.1-4.516-6.842-.185-9.13 10.985-9.088 13.711.289-.001 1.712-.03 2.065-.016.312-1.722.044-3.831 2.229-5.61 2.187-1.779 3.153-.423 3.427.672.275 1.095-1.008 3.3-.762 3.189zm-18.273 0c-4.031-1.598-6.016-4.016-6.23-7.43-.136-2.052 1.91-4.46 4.1-4.516 6.842-.185 9.13 10.985 9.089 13.711-.29-.001-1.713-.03-2.065-.016-.312-1.722-.044-3.831-2.23-5.61s-3.153-.423-3.426.672c-.274 1.095 1.008 3.3.762 3.189z"/><path d="M77.508 3.422c4.649 4.84 5.897 9.764 2.798 17.65-1.062 2.634-1.513 5.794-1.47 9.08-.45.01-2.365-.012-2.82-.044.04-3.246-.496-6.661-1.556-9.338-3.59-8.054-1.003-13.517 2.925-17.348h.122zm2.444 28.591c.95 2.543 2.632 3.506 4.005 4.18-2.094.991-4.513-.086-4.968-.599.056.717.112 2.655-.15 3.964-.176 1.056-.624 1.664-1.381 2.506-.784-.823-1.27-1.486-1.531-2.421-.317-1.357.019-3.284-.01-4.002-.362.447-3.258 1.523-5.163.588 1.773-.773 3.492-1.675 4.052-4.264.208.013 4.623.011 5.146.011v.037zm-8.067-1.784H82.9v1.64H71.885z"/></g><g fill="gold"><path d="M138.033 28.396c4.03-1.598 6.016-4.016 6.229-7.43.136-2.052-1.91-4.46-4.1-4.516-6.842-.185-9.13 10.985-9.088 13.711.288-.001 1.712-.03 2.064-.016.312-1.722.045-3.831 2.23-5.61 2.187-1.779 3.153-.423 3.427.672.275 1.095-1.01 3.3-.762 3.189zm-18.274 0c-4.031-1.598-6.016-4.016-6.23-7.43-.136-2.052 1.91-4.46 4.1-4.516 6.842-.185 9.13 10.985 9.088 13.711-.288-.001-1.712-.03-2.064-.016-.312-1.722-.044-3.831-2.23-5.61s-3.153-.423-3.427.672c-.273 1.095 1.009 3.3.763 3.189z"/><path d="M128.952 3.422c4.649 4.84 5.897 9.764 2.798 17.65-1.063 2.634-1.513 5.794-1.47 9.08-.45.01-2.365-.012-2.82-.044.04-3.246-.496-6.661-1.556-9.338-3.59-8.054-1.003-13.517 2.925-17.348h.122zm2.443 28.591c.952 2.543 2.632 3.506 4.006 4.18-2.094.991-4.513-.086-4.968-.599.056.717.112 2.655-.15 3.964-.176 1.056-.624 1.664-1.381 2.506-.785-.823-1.27-1.486-1.531-2.421-.317-1.357.019-3.284-.01-4.002-.363.447-3.258 1.523-5.163.588 1.773-.773 3.492-1.675 4.052-4.264.207.013 4.623.011 5.146.011v.037h-.001zm-8.066-1.784h11.016v1.64h-11.016z"/></g><path fill="#ED2939" d="M-.001 17.72H23.44v182.805H-.001z"/><g fill="gold"><path d="M171.316 197.553c-4.031-1.598-6.016-4.016-6.23-7.43-.136-2.053 1.91-4.46 4.1-4.516 6.842-.185 9.13 10.985 9.089 13.712-.29 0-1.713-.03-2.065-.017-.312-1.722-.044-3.83-2.23-5.609s-3.153-.424-3.426.671c-.275 1.095 1.008 3.3.762 3.19z"/><path d="M180.358 172.655c.028 6.206-.003 25.19-.035 26.578-.45.011-.851.064-1.305.032.04-3.245-.497-6.66-1.557-9.338-3.59-8.055-1.154-13.44 2.773-17.272h.124zm-.058 28.439c-.032.951.006 9.437.007 10.127-.785-.823-1.118-1.485-1.38-2.42-.317-1.359.019-3.284-.01-4.003-.363.447-3.258 1.522-5.163.588 1.773-.773 3.492-1.676 4.052-4.264.207.013 1.972-.065 2.494-.065v.037zm-5.414-1.708h5.485v1.641h-5.485z"/></g><path fill="#039" d="M281.717 186.835c-4.225 10.261-15.894 10.178-20.925 1.105-3.593 8.68-17.872 9.089-20.676-.481-2.205 9.497-15.278 9.784-18.653.441-3.172 9.42-17.37 8.73-20.759-.659-2.79 9.294-17.713 9.886-20.341 1.586-.03 4.477-.067 27.179-.067 27.179h178.812L359.167.17 180.37.031v30.01h-.038c3.879-9.461 18.224-8.754 20.114.234 3.887-9.312 16.599-9.188 22.266.464 4.463-9.769 15.838-9.349 19.085-.218 3.048-9.165 15.126-9.235 20.596.301 3.301-9.768 14.945-9.406 18.871-.343 2.528-9.042 15.021-9.77 19.362-.276 4.481-9.622 16.869-7.535 19.059-.385 5.725-13.258 26.193 2.998 9.438 9.504 10.387 2.587 9.93 14.697-.145 15.879 8.956 3.411 8.951 12.945-.026 15.656 9.974 1.363 9.314 14.261.04 16.518 9.274 3.653 8.267 14.992-.521 18.294 8.37 2.147 10.157 15.195.117 19.005 10.194 2.648 8.591 15.456-.152 18.692 8.812 1.888 9.641 14.72.687 16.533 10.998 2.113 8.625 15.134-.954 16.431 14.053 6.137.595 22.942-9.753 11.312-2.555 8.474-14.135 7.752-17.534.053-4.377 8.604-15.414 9.28-19.165-.86"/><g fill="gold"><path d="M171.316 114.318c-4.031-1.598-6.016-4.016-6.23-7.43-.136-2.053 1.91-4.46 4.1-4.516 6.842-.185 9.13 10.985 9.089 13.711-.29 0-1.713-.029-2.065-.016-.312-1.722-.044-3.83-2.23-5.609-2.187-1.779-3.153-.424-3.426.671-.275 1.095 1.008 3.3.762 3.19z"/><path d="M180.358 89.42c.028 6.207-.003 25.19-.035 26.58-.45.01-.851.063-1.305.031.04-3.245-.497-6.66-1.557-9.338-3.59-8.055-1.154-13.442 2.773-17.273h.124zm-.058 28.44c-.032.95.006 9.436.007 10.126-.785-.823-1.118-1.486-1.38-2.42-.317-1.359.019-3.284-.01-4.003-.363.446-3.258 1.522-5.163.588 1.773-.773 3.492-1.676 4.052-4.264.207.013 1.972-.065 2.494-.065v.037zm-5.414-1.709h5.485v1.642h-5.485z"/></g><g fill="gold"><path d="M171.316 27.954c-4.031-1.598-6.016-4.016-6.23-7.43-.136-2.052 1.91-4.46 4.1-4.516 6.842-.185 9.13 11.061 9.089 13.787-.29 0-1.713-.029-2.065-.016-.312-1.72-.044-3.906-2.23-5.685s-3.153-.423-3.426.671c-.275 1.096 1.008 3.301.762 3.19z"/><path d="M180.358 3.056c.028 6.207-.003 25.342-.035 26.731-.45.01-.851.026-1.305-.006.04-3.245-.497-6.775-1.557-9.453-3.59-8.055-1.154-13.442 2.773-17.273h.124v.001zm.018 28.401c-.033.951.006 9.474.006 10.165-.784-.822-1.193-1.485-1.455-2.42-.317-1.358.019-3.284-.01-4.002-.363.447-3.258 1.522-5.163.587 1.773-.773 3.492-1.75 4.052-4.339.207.013 2.048-.027 2.57-.027v.036z"/><path d="M174.886 29.788h5.485v1.641h-5.485z"/></g><path fill="#ED2939" d="M.071 193.063h180.256v22.855H.071zM.005 0h180.328v23.472H.005z"/><path fill="none" stroke="#ED2939" stroke-width="4.696" d="M166.837 143.052c-6.901-11.908-21.198-5.292-21.198 7.277 0 12.57 10.353 19.848 21.69 33.08 11.34-11.909 21.2-17.863 20.707-31.096 0-17.2-14.79-21.832-21.2-9.26z"/><path fill="none" stroke="#ED2939" stroke-width="4.696" d="M194.445 142.39c-6.901-11.909-21.198-5.293-21.198 7.277s10.353 19.848 21.69 33.08c11.34-11.908 21.2-17.862 20.707-31.095 0-17.2-14.79-21.832-21.2-9.262z"/><path fill="#ED2939" d="m198.786 74.14-39.065-.092c-2.1-.005-3.784.937-3.764 2.102l.054 3.174c.02 1.166 1.737 2.115 3.837 2.12l39.065.091c2.099.005 3.784-.936 3.764-2.103l-.054-3.173c-.02-1.165-1.737-2.115-3.837-2.12zm-28.192-6.386c-3.816-1.333-5.696-3.373-5.9-6.267-.13-1.74 1.808-3.792 3.88-3.85 6.478-.194 8.647 9.341 8.608 11.654-.273.001-1.62-.016-1.955-.002-.296-1.459-.043-3.325-2.113-4.822s-2.984-.342-3.243.587c-.258.93.956 2.794.723 2.7zm17.3-.097c3.815-1.375 5.693-3.437 5.894-6.333.129-1.742-1.81-3.77-3.882-3.807-6.478-.12-8.64 9.44-8.6 11.751.274-.002 1.62-.034 1.956-.024.294-1.46.04-3.325 2.109-4.845 2.069-1.52 2.984-.377 3.243.55.26.928-.954 2.804-.72 2.708z"/><path fill="#ED2939" d="M179.182 46.528c-4.4 4.13-5.58 8.312-2.643 14.983 1.007 2.23 1.435 4.983 1.394 7.77.427.006 2.24.015 2.67-.015-.04-2.753.469-5.766 1.47-8.043 3.397-6.849.945-11.467-2.774-14.696l-.058.001h-.06z"/><path fill="#ED2939" d="m184.514 69.112-10.43.07.002 1.654 10.429-.069zm-22.537-.358c2.204-2.286 2.715-4.624 1.66-7.219-.629-1.562-2.881-2.793-4.404-2.239-4.76 1.728-2.4 10.652-1.411 12.669.197-.08 1.164-.49 1.412-.576-.392-1.364-1.318-2.86-.444-4.776.875-1.919 2.014-1.174 2.589-.435.572.738.468 2.727.598 2.576zM146.686 52.93c-1.487 4.865 7.372 17.773 8.498 20.227.312-.114 1.62-.654 1.919-.8-1.17-2.401-2.003-5.087-2.218-7.367-.371-6.963-4.07-10.318-8.113-12.095l-.042.017-.044.018z"/><g fill="#ED2939"><path d="M197.17 69.48c-2.335-2.12-2.98-4.417-2.08-7.082.535-1.605 2.71-2.997 4.262-2.553 4.852 1.38 3.021 10.455 2.152 12.538-.203-.064-1.192-.402-1.443-.472.311-1.39 1.147-2.95.163-4.8-.984-1.85-2.08-1.024-2.609-.247-.528.78-.307 2.76-.445 2.617z"/><path d="M211.41 51.99c1.769 4.747-6.313 18.269-7.293 20.799a40.447 40.447 0 0 1-1.963-.662c1.026-2.48 1.7-5.22 1.782-7.51-.039-6.975 3.453-10.591 7.386-12.657l.044.013.043.017z"/></g><path fill="#ED2939" d="m174.339 70.581 9.823-.122c4.546 2.786 11.16 2.877 16.153.72.438.531 3.203 1.163 3.894 1.453l-1.77 2.171-46.028.067-1.382-1.989c.943.05 2.93-1.375 4.25-1.688 4.218 2.386 10.96 2.358 15.06-.612z"/><g fill="#ED2939"><path d="M177.235 91.91h6.046v33.615h-6.046z"/><path d="M170.368 98.022h20.292v5.661h-20.292z"/></g><g stroke-width=".3"><path fill="#FFF" stroke="#000" d="M-24.108 23.263c-.901.696-1.759.737-2.36.32-.6-.417.101.556.401.973.3.416.201.833.201 1.25 0 .418-.006.958.075 1.459-.601.139-1.177-.207-1.678-.625.295.478.254.757.477 1.131-.508.006-.987-.629-1.406-.938.218.373.401.956.588 1.383-.409.062-.896-.658-1.094-.896.064.186.194.997.26 1.518-.489-.178-.606-1.231-.965-1.152.002.117-.1.499.007.854.212.704-.27.414-.428.358-.42.006-.538.175-.456-.733-.101-.279-.387-.552-.387.003 0 .557-.265 1.244-.522 1.244s-.414-.474-.511-.868c-.461-.521-.21-.96.191-.821.401.14.097-.834-.202-.555-.301.277-.904.284-.804-.133.1-.417.157-.748.057-1.304s.368-.461.568-.183c.2.278.29.615.69.477.4-.139.03-.616-.27-.759-.301 0-.271-.531.206-.864.332-.831.823-.922.744-.063 0 .416.136 1.253 1.355 1.051.901-.139 1.051-1.148.69-1.677-.225-.263-.464-.798-.496-1.798a.818.818 0 0 1-.618.321c-.461.041-.613-.249-1.01-.481.248-.19.614-.485.974-.389.296.004.584-.229.693-.64.2-.694.635-.699 1.024-.571.437.15 1.485.076 1.485-.202-.48-.21-1.071-.831-1.274-1.691-.001.641-.264 1.065-.65.95-.187-.063-.461-.041-.635-.027.214-.24.528-1.034.272-1.563-.116-.249-.144-.746-.12-1.052-.073.086-.299.618-.13 1.028-.275.035-.488-.462-.806-.613-.057.16.129.548.172.728-.143.066-.239.145-.629-.119-.105.41-.051.601-.074.748-.124-.013-.426-.115-.574-.337.003.264-.099.46-.142.68-.196-.057-.365-.131-.537-.452-.013.208-.124.301-.104.632-.268-.018-.575-.576-.913-.976-.097.352.316 1.765.016 1.626-.459-.17-.948.3-.961-.228.099-.416-.055-.426-.356-.009-.266.432-.805.901-.801-.417-.348-.719-.232-.928.303-.831.501-.139.703-.437.312-.601-.755.216-.912-.265-.594-.699.079-.389.079-.786.379-.648.516.47.701 0 .401-.279-.301-.278-.234-.62.248-.834.29-.558.653-.416.653.139-.069.667.235 1.054.435.777.2-.278.977-.388 1.278-.528.301-.138 1.191-1.221 1.191-1.638-.662.034-1.062-.18-1.294-.393-.03-.273-.059-.484.023-.877-.653.486-.936.251-1.119-.005.145-.193.378-.897.478-1.16-.367.225-.486.393-.648.284-.068-.275.052-.553.096-.771-.386.491-.639.473-.976.395.349-.749.413-1.142.491-1.903-.234.154-.487.128-.642.142-.033-.247-.08-.627-.014-.992-.472.172-.771.347-.623-.512 0-.417-.115-.944.323-.739.2 0 .189-.505-.111-.505-.777-.079-.962-.402-.565-1.071.114-.795.375-.991.575-.369.201.416.758.816.602 0-.361-.817-.598-1.517.1-1.39.63-.237.625.303.446.877-.1.513.254.651.354.373-.036-.531.193-.916.51-.357.397.685.531 1.086-.019 1.518-.299.418.702 1.468 1.027 2.701.485.226 1.293.879 1.787 1.141.3-.417 1.564-1.305 2.704-1.251.787.038 1.001-.449 1.101-.865.1-.417-.296-.009-.409-.379-.171.309-.464.297-.59-.107-.442.716-1.069 1.094-.884-.034.091-.575.033-.979.306-1.008 1.705.381 1.597-1.116 1.079-1.305-.579-.202-1.512.888-1.379-.669.063-.731.042-.465-.159-.603-.2-.14.234-.727.535-.727.482-.015.628-.321.848-.788.076-.07 1.108-.031 1.489-.091.495-.138 1.687-.695 2.243-.522-.151.531-.323.492-.418.837.391.085.836.294.925.348-.2.291-.314.49-.501.697.435.135.541.075.487 1.109-.009.712-.043 1.642-.643 1.642-.602 0 .549.678.511 1.641-.038.751-.063 1.855.265 2.495.205.412.499 1.372.077 1.919a5.091 5.091 0 0 0-.624-1.648c-.147.283-.273.864-.127 1.207.179.435.173.883.173 1.439s-.118.968-.082 1.976c-.168-.07-.384-.381-.496-.706-.056.37-.23.557-.313 1.603-.383-.444-.493-.966-.468-1.282.009-.978-.087-.844-.288-1.399-.057.266-.028.611.05 1.144-.301-.279-.404-.321.072.799.391.905.506 3.416 1.287 3.996.501.139.732.773 1.033 1.051.299.278.867.122 1.507 1.295 1.15 1.222 2.015.115 1.377-1.601-.195-.51-.978-1.269-1.078-1.826-.566-.052-1.108-.418-.981-1.437-.657.084-1.01-1.011-.544-1.961-.897-.382-.76-2.089.325-2.379.087-1.615 1.574-3.136 2.303-3.861.59-.576 2.144-2.405 1.254-4.428-.564-1.283-1.703-.455-1.554.816.076.631.5.75 1.092.524.02.658-.834 1.924-1.428.881.014.566-.07 1.364-.821 1.673-.501.278-.498.771-.389 1.519-.924-.034-1.358-1.266-1.158-2.099s.837-.844.837-1.26c0-.417-.731-.54-.819-1.238-.1-.818.127-1.493.586-1.668-.199.943.596 1.41 1.075.552.83-1.48 2.291-1.802 2.94-.749.439.712 1.104 2.399.293 4.168-.492 1.075-1.766 2.507-2.266 2.884-.181.154-.805.841-.808 1.238.431-.425.779-.41 1.071-.577-.018.478-1.21 1.333-1.065 2.009.305-.344 1.198-.902 1.666-1.596.266 1.302-2.087 2.451-1.777 3.353.267-.575 1.663-1.049 2.219-1.818-.035.829-.476 1.695-1.304 2.385-.953.752-.726 1.529-.464 1.816.174-1.149 1.24-1.462 1.895-2.632.144.595-.235 1.558-.694 2.314-.448.644-.428 1.152-.027 1.987.4.833.974 2.283.805 3.01-.092.381-.056.957-.349 1.473-.682.9-.951 1.684-2.19.185-.5-.695-.712-1.214-1.298-1.203.301.972-.126 1.908-.126 2.602 0 .695.013 1.204.814 1.343.801.139.988 1.02 1.388.881.181-.11.369-.038.562-.125.018.28.085.706-.297.845-.501.278-.196.323.005.741.098.25.051.599.075.962a.727.727 0 0 0 .597.774c-.223.385-.666.479-.977.113.23.876-.09 1.043-.491.625.338.719-.265.806-.766.528.238.4.512.82.052 1.08-.47.685-.462.155-.662-.262-.199-.417-.383.847-.576 1.028-.318.054-.425-.624-.826-.763-.23-.218.123-.376.264-.556.176-.181-.126-.257-.527.021s-.547.225-.414-.568c.123-.949.302-.672.693-.391.403-.13-.626-.54.056-1.186.07-.435.284-.867.657.01.501.278.426-.573.326-.99-.1-.416-.952-1.13-1.155-1.75-.286 1.007-.594 1.568-1.416 1.86.083-.533-.032-.956.209-1.305.3-.695-.095-.972-.095-1.666-.445-.728-.161-2.188-.045-2.962z" transform="matrix(1.08279 0 0 .9089 40.777 -.105)"/><path fill="#FFF" stroke="#000" d="M-25.992 6.056c-.494-.286-.883-.441-1.377-.384-.494.056-1.113-.229-1.237-.63-.123-.4-.412-1.086-.782-1.144-.185-.028-.463.151-.614.362.136.113.253.446.356.732.261.689.918 2.109 1.783 1.423.33-.286.947-.171 1.195-.115.247.058.718-.188.676-.244z" transform="matrix(1.08279 0 0 .9089 40.777 -.105)"/><path fill="none" stroke="#000" d="M-28.069 17.114c.123.744.288 1.831.659 2.231.37.4 1.236.915 1.854 1.087.619.171 1.154.801 1.361 1.373.206.572.082 1.373.082 1.373m-3.75-13.329c-.619.343-.949 1.167-1.443 1.683-.294.296-.894.863-1.195.948.291.272.959.5 1.497.104-.192 1.167.281 1.156.276 2.985.315-.052.659-1.03.741-1.544.082-.515-.05-1.031.106-1.462-.004.455.101.828.307 1.286.207.458.246.92.123 1.378.514-.594.404-1.812.397-2.581.251.339.307 1.509.138 2.295.235-.1.478-.306.596-1.272.189.443.41 1.896.311 2.244.35.011.656-.694.622-1.492.064.073.24.338.305.434.073-.305-.033-.86-.008-1.287.079.107.252.276.316.413.091.124.306.531.619.718m.578-7.368c.536.458 1.062 1.187 1.062 3.476m-1.515-2.446c.577.628.783 1.373.701 2.288-.083.915-.373.841-.371 1.601-.006.334.247.878.412 1.202.189.362.295.963.239 1.29" transform="matrix(1.08279 0 0 .9089 40.777 -.105)"/><path fill="none" stroke="#000" d="M-23.355 10.821c.041.743.006 1.142.19 1.601.166.384.33 1.708.09 2.488m-1.368-4.261c.371.686 0 .857-.124 1.43-.124.572.275.862.45 1.54m-.779-3.486c.083.802 0 1.088-.164 1.603-.165.515-.331 1.285-.044 1.833m-.452-1.947c-.247.858-.25 2.118.162 2.805m-.45-3.721c-.536.687-.679 2.128-.455 3.026m-1.111-2.225c-.206.344-.41.741-.473 1.065m.473-2.266c-.206.515-.69.951-1.061 1.181-.371.229-.547 1.107-.547 1.107" transform="matrix(1.08279 0 0 .9089 40.777 -.105)"/><path fill="none" stroke="#666" d="M-20.197 6.472c-.45.694-.647.894-.906 1.373-.25.449-.306 1.285-.052 1.777m.793 2.114c-.248.343-.33.972-.33 1.087m.123.401c-.206.458-.247 1.716-.247 1.716m.701.057c-.495.63-.412 1.488-.412 1.488m.948.889c-.083.177.248.875.494.827m1.142 5.127c-.494.343-.743.465-1.237.171" transform="matrix(1.08279 0 0 .9089 40.777 -.105)"/><path fill="#FFF" stroke="#666" d="M-20.116 27.761c.33.515.249 1.881-.246 2.395-.495.515-.248.115-.248.115" transform="matrix(1.08279 0 0 .9089 40.777 -.105)"/><path fill="none" stroke="#666" d="M-21.54 22.36c-.124.8-.636 1.332-.636 1.332m.801-.964c-.247 1.03-.883 1.593-.883 1.593m.807-.342c-.453.914-1.054 1.487-1.054 1.487m.894-.523c-.288.629-.647.981-.647.981m.701-.286c-.289.458-.66.744-.66.744m.907-.287c-.206.401-.371.858-.371.858m-5.359-3.032c.331.687.866.573.825 1.144-.113.665.047 1.537.175 1.866m-1.041-2.208c.289.457.289.514.289.915s.248.915.248.915m-1.113-1.201c.124.342.453.857.453.857m-1.278-.342c.165.228.413.457.413.457M-26.792 5.1c.248-.4.871-.589 1.077-.303.206.286.86 1.275.86 1.275" transform="matrix(1.08279 0 0 .9089 40.777 -.105)"/><path fill="none" stroke="#000" d="M-23.453 4.642c.412-.515.99-.573.99-.573s.206.802.041 1.202c-.165.401-1.031.401-1.031.401" transform="matrix(1.08279 0 0 .9089 40.777 -.105)"/><path fill="none" stroke="#666" d="M-24.813 14.196c-.041.744-.412 2.289-.412 2.289m.659-1.831c-.041.858-.412 2.117-.412 2.117m.659-1.317a6.432 6.432 0 0 1-.331 1.659m.62-.629c-.164.801-.329 1.315-.329 1.315m.494-.514c-.082.572-.288 1.144-.288 1.144m.494-.629c0 .344-.123.744-.123.744m-5.359-3.89c-.083.973-.283 1.183-.501.752.029.449-.154.741-.483.555-.083.156-.294.352-.294.352m-.412-.229c-.083.458-.124 1.087-.453.973m-1.608-8.124c.33.056.577.056.577.056m-.33.63.659.115m-.247.515c.453.343.743.171.743.171m-.331.515c.331.229.701 0 .701 0m-.082.801c.495.114.743-.287.743-.287" transform="matrix(1.08279 0 0 .9089 40.777 -.105)"/><path fill="none" stroke="#000" d="M-29.134 9.772c-.143.16-.29.417-.27.631.206 0 .866.085.866.085" transform="matrix(1.08279 0 0 .9089 40.777 -.105)"/><path fill="none" stroke="#666" d="M-25.349 23.692c-.206-.972-1.113-2.117-1.113-2.117m.494 2.117c-.083-.744-.989-2.06-.989-2.06m.536 1.832c-.041-.458-.948-1.659-.948-1.659m.66 1.545c-.207-.401-.948-1.144-.948-1.144m.576 1.429c.041-.4-.37-.63-.37-.63m3.297-.17c-.537.343-1.155-.172-1.237-.859-.082-.686-.947-.915-.947-.915" transform="matrix(1.08279 0 0 .9089 40.777 -.105)"/><path fill="none" stroke="#000" d="M-25.556 7.273c.083.572.206 1.202.083 1.603-.124.401.741-.573.618-1.03-.124-.457.329.229.205.744-.123.515.619-.687.537-1.259-.082-.572.247-.171.247.343s.371-.686.289-.972l-.083-.286" transform="matrix(1.08279 0 0 .9089 40.777 -.105)"/><path fill="none" stroke="#666" d="M-24.467 2.875c.185.269.411.261.618.207.207-.055.774-.466.845-.528m-.614 1.402c.206-.344.866-.4.866-.4" transform="matrix(1.08279 0 0 .9089 40.777 -.105)"/><path fill="#FFF" stroke="#000" d="M-31.895 5.419c.598-1.236-.246-2.675-.617-2.732.082.401.371 1.03.041 1.716.288.458.412.781.576 1.009v.007zm-1.201-1.658c-.28-1.44-1.563-1.441-1.844-1.1.269.186.797.315.94 1.116.438.014.671-.001.904-.016zm-1.57 1.184c-1.177-.516-1.617.395-1.692.903.295-.076.773-.415 1.234.105.355-.355.28-.79.46-.996l-.002-.012zm3.371 18.921c-.848-.917-1.956.098-1.95.663.296-.077.899-.265 1.361.255.355-.355.409-.712.589-.918zm-2.136-9.296c-.684-1.152-1.853-.418-2.007.054.3.015.82-.17 1.188.478.403-.238.611-.386.819-.532zm-1.272 1.507c-1.264-.696-1.537-.001-1.672.482.299-.009.871-.103 1.265.516.393-.27.231-.745.407-.998zm-.398 2.268c-.979.171-1.048 1.285-.937 1.779.231-.265.531-.885 1.116-.741.186-.55-.265-.738-.179-1.038zm2.369 7.376c-1.063-.229-1.295 1.114-1.184 1.608.231-.266.572-.599 1.157-.455.187-.55-.058-.851.027-1.153zm.593 2.516c-1.009.511-.776 2.116-.506 2.473.11-.388.324-1.165.887-1.432-.029-.607-.35-.721-.381-1.041zm9.689 1.373c-.934-.738-1.534.274-1.557.792.284-.135.589-.409 1.099.014.316-.422.302-.566.458-.806zm-.79 1.457c-.934-.442-1.595.663-1.587 1.18.275-.167.81-.474 1.344-.111.29-.457.101-.754.243-1.012l-.005-.007.005-.05zm.622 1.714c-.758 1.057-.217 2.326.136 2.493-.019-.416.002-1.144.429-1.717-.21-.534-.44-.504-.565-.776zm2.325-.27c.394 1.387-.349 1.993-.721 1.951.136-.371.34-.626.111-1.388.347-.373.417-.382.61-.563zm-9.323-3.432c-.139 1.48-1.247 1.776-1.557 1.49.248-.234.645-.782.709-1.603.433-.094.615.142.848.113zm-3.099-9.497c-.139 1.478-1.205 1.375-1.516 1.089.248-.234.513-.232.577-1.052.434-.094.707-.009.939-.037zM-34.52 8.517c-1.057-.263-1.169-2.039-.948-2.456.156.355.295 1.076.882 1.204.048.605.057.928.066 1.252z" transform="matrix(1.08279 0 0 .9089 40.777 -.105)"/><path fill="none" stroke="#000" d="M-28.983 13.111c-.458.099-1.038.294-1.32.638m4.125-10.866c-.176 1.664.635 1.518.811.097" transform="matrix(1.08279 0 0 .9089 40.777 -.105)"/><path stroke="#000" d="M-25.689 3.544c0 .164-.076.297-.17.297-.095 0-.172-.133-.172-.297 0-.165.077-.298.172-.298.093 0 .17.133.17.298z" transform="matrix(1.08279 0 0 .9089 40.777 -.105)"/><path fill="none" stroke="#000" d="M-26.183 2.971c.177.098.619.195.773.066" transform="matrix(1.08279 0 0 .9089 40.777 -.105)"/></g></svg>