<svg xmlns="http://www.w3.org/2000/svg" xmlns:xlink="http://www.w3.org/1999/xlink" width="360" height="216" xmlns:cgf="https://coding.garden/flags"><metadata id="cgf-metadata">

<cgf:flag>
  <cgf:name></cgf:name>
  <cgf:route>fr/t</cgf:route>
  <cgf:aspect-ratio>1.6666666666666667</cgf:aspect-ratio>
</cgf:flag>

</metadata><path fill="#ed2939" d="M0 0h360v216H0z"></path><g id="b" transform="translate(0 -.625)" fill="gold" stroke="#000" stroke-width=".75"><path d="M35.006 32.632h14.03v27.284h-14.03zm22.828-8.359h14.03V60.07h-14.03zm23.144 8.442h14.03V60.07h-14.03zm-50.454 30.16h67.891l2.34 26-72.486.879 2.255-26.816z"></path><path d="M25.048 89.085h79.336v8.792H25.048zm3.284-34.715h6.764v3.957h6.31V54.37h6.763v3.957h6.31V54.37h6.764v3.957h6.309V54.37h6.764v3.957h6.662V54.37h6.411v3.957h6.3V54.37h6.764v8.353H28.332z"></path><path id="a" d="M31.355 25.458h4.28v3.146h4.029v-3.146h4.242v3.138h4.556v-3.138h4.315V32.1H31.355z" transform="translate(0 .625)"></path><use xlink:href="#a" x="22.829" y="-8.288"></use><use xlink:href="#a" x="45.972" y=".153"></use><path d="M85.761 38.932h4.145v5.595h-4.145zm-45.973-.154h4.145v5.595h-4.145zm22.829-8.288h4.145v5.595h-4.145zm21.459 37.132h6.47v8.036h-6.47zm-45.063.174h6.47v8.036h-6.47zm22.33 20.622V74.646c0-3.835 8.047-3.486 8.226-.349.179 3.138.179 13.25.179 14.12-.895.175-7.332.001-8.405 0z" fill="#ed2939"></path></g><use xlink:href="#b" x="234"></use><use xlink:href="#b" y="52" x="117"></use><use xlink:href="#b" y="104" x="234"></use><use xlink:href="#b" y="104"></use></svg>