<svg xmlns="http://www.w3.org/2000/svg" width="625" height="375"><defs><clipPath id="a"><path d="M0 300h500V0H0v300z"/></clipPath></defs><path d="M0 375h625V0H0v375z" fill="#ed2939"/><path d="M0 375h312.5V0H0v375z" fill="#ffd203"/><path d="M0 130.463h625V0H0v130.462z" fill="#002395"/><g clip-path="url(#a)" transform="matrix(1.25 0 0 -1.25 0 375)"><path d="M413.356 69.889c-6.98-3.653-13.621-3.871-18.273-1.68-4.654 2.192.774-2.922 3.1-5.114 2.326-2.192 1.551-4.384 1.551-6.575 0-2.193-.04-5.032.583-7.67-4.652-.73-9.112 1.094-12.989 3.285 2.284-2.51 1.967-3.976 3.686-5.943-3.928-.033-7.635 3.3-10.88 4.933 1.683-1.964 3.103-5.03 4.547-7.275-3.167-.324-6.933 3.459-8.471 4.715.496-.983 1.502-5.246 2.015-7.981-3.79.934-4.694 6.474-7.47 6.053.009-.613-.77-2.617.06-4.49 1.639-3.703-2.087-2.177-3.318-1.883-3.254-.037-4.166-.92-3.535 3.856-.775 1.462-2.997 2.902-2.997-.022 0-2.922-2.047-6.538-4.037-6.538-1.99 0-3.205 2.493-3.965 4.565-3.574 2.735-1.623 5.047 1.479 4.316 3.1-.731.76 4.384-1.566 2.923-2.327-1.461-6.995-1.493-6.22.7.776 2.192 1.216 3.932.44 6.854-.775 2.923 2.854 2.426 4.405.965 1.55-1.462 2.238-3.24 5.339-2.51 3.102.732.232 3.24-2.094 3.986-2.327 0-2.095 2.79 1.598 4.55 2.575 4.364 6.38 4.843 5.764.332 0-2.193 1.047-6.592 10.488-5.53 6.979.73 8.139 6.033 5.34 8.82-1.743 1.379-3.59 4.192-3.836 9.45-1.135-.928-2.682-1.638-4.79-1.69-3.571-.215-4.751 1.309-7.82 2.533 1.911 1 4.75 2.552 7.535 2.047 2.296-.024 4.522 1.204 5.369 3.366 1.552 3.652 4.91 3.675 7.93 3.005 3.381-.79 11.495-.4 11.495 1.06-3.722 1.105-8.3 4.366-9.868 8.892-.008-3.375-2.046-5.6-5.04-4.996-1.45.332-3.571.22-4.922.146 1.66 1.264 4.09 5.436 2.117 8.217-.905 1.31-1.113 3.926-.931 5.533-.567-.451-2.315-3.252-1.012-5.4-2.121-.193-3.78 2.425-6.243 3.224-.44-.844 1.003-2.884 1.332-3.832-1.107-.343-1.853-.76-4.873.63-.802-2.154-.388-3.16-.577-3.93-.956.068-3.294.6-4.444 1.769.025-1.383-.766-2.416-1.096-3.578-1.515.3-2.831.693-4.156 2.38-.103-1.091-.96-1.575-.801-3.322-2.074.098-4.451 3.032-7.072 5.13-.76-1.853 2.445-9.28.119-8.55-3.557.897-7.346-1.574-7.45 1.198.775 2.192-.423 2.238-2.75.046-2.062-2.275-6.235-4.74-6.202 2.192-2.696 3.78-1.8 4.88 2.342 4.368 3.876.73 5.443 2.297 2.414 3.156-5.844-1.13-7.06 1.394-4.597 3.683.616 2.042.616 4.136 2.942 3.405 3.996-2.47 5.428 0 3.102 1.462-2.326 1.46-1.816 3.269 1.918 4.383 2.238 2.938 5.06 2.192 5.06-.73-.528-3.502 1.815-5.544 3.366-4.082 1.55 1.46 7.57 2.04 9.896 2.77 2.326.732 9.225 6.426 9.225 8.618-5.125-.176-8.225.948-10.023 2.067-.234 1.435-.46 2.546.173 4.613-5.057-2.558-7.247-1.32-8.657.02 1.116 1.023 2.922 4.719 3.696 6.105-2.83-1.183-3.754-2.063-5.016-1.49-.53 1.445.41 2.905.746 4.05-2.992-2.58-4.948-2.482-7.56-2.076 2.698 3.94 3.199 6.007 3.802 10.008-1.812-.81-3.773-.678-4.972-.752-.256 1.305-.621 3.3-.104 5.219-3.655-.904-5.972-1.823-4.828 2.689 0 2.192-.896 4.964 2.502 3.887 1.55 0 1.463 2.658-.864 2.658-6.02.414-7.45 2.109-4.372 5.627.879 4.18 2.91 5.213 4.46 1.944 1.552-2.192 5.868-4.295 4.652 0-2.797 4.294-4.628 7.968.777 7.306 4.876 1.243 4.844-1.597 3.453-4.617-.775-2.69 1.974-3.42 2.749-1.96-.28 2.788 1.486 4.815 3.949 1.877 3.078-3.601 4.117-5.71-.143-7.985-2.327-2.192 5.427-7.712 7.945-14.198 3.75-1.183 10.016-4.624 13.838-5.996 2.326 2.192 12.117 6.863 20.935 6.576 6.1-.196 7.754 2.364 8.53 4.556.775 2.192-2.294.046-3.174 1.989-1.32-1.621-3.598-1.56-4.565.565-3.43-3.76-8.28-5.751-6.851.18.709 3.025.258 5.146 2.375 5.296 13.2-2.004 12.367 5.868 8.353 6.862-4.482 1.064-11.713-4.668-10.68 3.517.486 3.845.32 2.44-1.23 3.172-1.552.73 1.815 3.819 4.14 3.819 3.733.082 4.86 1.694 6.57 4.15.583.365 8.578.162 11.536.474 3.826.728 13.069 3.654 17.367 2.745-1.17-2.788-2.5-2.584-3.233-4.4 3.025-.447 6.474-1.55 7.163-1.83-1.551-1.53-2.431-2.578-3.88-3.663 3.368-.715 4.194-.397 3.775-5.83-.07-3.742-.336-8.632-4.99-8.632-4.651 0 4.26-3.562 3.966-8.624-.3-3.95-.488-9.754 2.046-13.114 1.59-2.167 3.87-7.215.6-10.093a22.463 22.463 0 0 1-4.837 8.657c-1.133-1.481-2.115-4.54-.982-6.338 1.39-2.287 1.342-4.647 1.342-7.57 0-2.922-.91-5.087-.64-10.385-1.292.364-2.966 2.003-3.83 3.71-.435-1.947-1.785-2.932-2.43-8.427-2.968 2.332-3.82 5.084-3.62 6.742.072 5.144-.683 4.435-2.234 7.358-.438-1.401-.208-3.22.386-6.016-2.326 1.462-3.118 1.685.564-4.201 3.035-4.756 3.923-17.957 9.974-21.01 3.877-.731 5.668-4.068 7.994-5.53 2.326-1.46 6.722-.638 11.67-6.808 8.907-6.418 15.613-.607 10.664 8.42-1.512 2.683-7.578 6.675-8.353 9.597-4.382.27-8.578 2.199-7.594 7.555-5.086-.445-7.82 5.317-4.213 10.312-6.948 2.01-5.892 10.974 2.518 12.503.672 8.49 12.182 16.488 17.835 20.293 4.573 3.03 16.607 12.644 9.712 23.28-4.365 6.746-13.19 2.394-12.04-4.285.59-3.324 3.875-3.948 8.459-2.757.16-3.46-6.455-10.115-11.048-4.632.104-2.978-.551-7.171-6.363-8.798-3.877-1.462-3.853-4.053-3.013-7.985-7.147.173-10.52 6.652-8.97 11.036 1.55 4.383 6.49 4.436 6.49 6.628s-5.666 2.839-6.347 6.508c-.781 4.298.985 7.847 4.542 8.767-1.543-4.964 4.609-7.415 8.32-2.907 6.429 7.782 17.745 9.476 22.767 3.939 3.403-3.75 8.553-12.615 2.27-21.92-3.813-5.648-13.68-13.173-17.541-15.162-1.406-.802-6.235-4.42-6.261-6.505 3.34 2.234 6.034 2.156 8.3 3.033-.14-2.516-9.374-7.01-8.247-10.565 2.356 1.81 9.277 4.74 12.894 8.389 2.063-6.842-16.156-12.887-13.761-17.626 2.067 3.023 12.882 5.515 17.183 9.558-.273-4.356-3.685-8.911-10.096-12.535-7.38-3.954-5.62-8.038-3.588-9.547 1.343 6.04 9.606 7.687 14.675 13.84 1.11-3.126-1.823-8.194-5.38-12.163-3.47-3.39-3.31-6.064-.208-10.447 3.1-4.385 8.56-12.172 6.235-15.825-2.326-3.653 5.523 3.729 11.406-2.094 1.535-1.67 3.6-3.766 8.449-4.544-1.45-1.881-3.365-3.385-7.61-1.678-4.356 3.082-6.618 2.176-9.44.015-5.283-4.73-12.876-8.294-22.47-.415-3.877 3.654-5.514 6.387-10.048 6.328 2.326-5.115-.983-10.033-.983-13.685 0-3.655.104-6.328 6.307-7.06 6.203-.73 7.65-5.362 10.75-4.631 1.405.579 2.859.198 4.352.658.139-1.471.656-3.713-2.3-4.444-3.876-1.461-1.516-1.7.035-3.891.762-1.314.398-3.148.587-5.062-.128-2.35 2.15-3.734 4.625-4.066-1.73-2.026-5.16-2.52-7.566-.596 1.784-4.604-.7-5.482-3.801-3.29 2.615-3.775-2.057-4.235-5.934-2.773 1.84-2.103 3.959-4.315.403-5.678-3.646-3.601-3.581-.814-5.132 1.378-1.551 2.192-2.965-4.46-4.46-5.41-2.463-.284-3.294 3.286-6.396 4.017-1.782 1.145.952 1.973 2.046 2.922 1.359.949-.983 1.348-4.085-.113-3.101-1.461-4.236-1.182-3.197 2.983.952 4.994 2.334 3.533 5.363 2.057 3.119.678-4.851 2.839.439 6.23.535 2.286 2.2 4.563 5.088-.053 3.877-1.462 3.3 3.01 2.524 5.203-.775 2.192-7.37 5.943-8.953 9.197-2.208-5.285-4.598-8.238-10.962-9.78.64 2.807-.252 5.028 1.613 6.862 2.327 3.654-.731 5.11-.731 8.763-3.431 3.819-1.231 11.5-.336 15.56v.003z" fill="#fff"/><path d="M413.356 69.889c-6.98-3.653-13.621-3.871-18.273-1.68-4.654 2.192.774-2.922 3.1-5.114 2.326-2.192 1.551-4.384 1.551-6.575 0-2.193-.04-5.032.583-7.67-4.652-.73-9.112 1.094-12.989 3.285 2.284-2.51 1.967-3.976 3.686-5.943-3.928-.033-7.635 3.3-10.88 4.933 1.683-1.964 3.103-5.03 4.547-7.275-3.167-.324-6.933 3.459-8.471 4.715.496-.983 1.502-5.246 2.015-7.981-3.79.934-4.694 6.474-7.47 6.053.009-.613-.77-2.617.06-4.49 1.639-3.703-2.087-2.177-3.318-1.883-3.254-.037-4.166-.92-3.535 3.856-.775 1.462-2.997 2.902-2.997-.022 0-2.922-2.047-6.538-4.037-6.538-1.99 0-3.205 2.493-3.965 4.565-3.574 2.735-1.623 5.047 1.479 4.316 3.1-.731.76 4.384-1.566 2.923-2.327-1.461-6.995-1.493-6.22.7.776 2.192 1.216 3.932.44 6.854-.775 2.923 2.854 2.426 4.405.965 1.55-1.462 2.238-3.24 5.339-2.51 3.102.732.232 3.24-2.094 3.986-2.327 0-2.095 2.79 1.598 4.55 2.575 4.364 6.38 4.843 5.764.332 0-2.193 1.047-6.592 10.488-5.53 6.979.73 8.139 6.033 5.34 8.82-1.743 1.379-3.59 4.192-3.836 9.45-1.135-.928-2.682-1.638-4.79-1.69-3.571-.215-4.751 1.309-7.82 2.533 1.911 1 4.75 2.552 7.535 2.047 2.296-.024 4.522 1.204 5.369 3.366 1.552 3.652 4.91 3.675 7.93 3.005 3.381-.79 11.495-.4 11.495 1.06-3.722 1.105-8.3 4.366-9.868 8.892-.008-3.375-2.046-5.6-5.04-4.996-1.45.332-3.571.22-4.922.146 1.66 1.264 4.09 5.436 2.117 8.217-.905 1.31-1.113 3.926-.931 5.533-.567-.451-2.315-3.252-1.012-5.4-2.121-.193-3.78 2.425-6.243 3.224-.44-.844 1.003-2.884 1.332-3.832-1.107-.343-1.853-.76-4.873.63-.802-2.154-.388-3.16-.577-3.93-.956.068-3.294.6-4.444 1.769.025-1.383-.766-2.416-1.096-3.578-1.515.3-2.831.693-4.156 2.38-.103-1.091-.96-1.575-.801-3.322-2.074.098-4.451 3.032-7.072 5.13-.76-1.853 2.445-9.28.119-8.55-3.557.897-7.346-1.574-7.45 1.198.775 2.192-.423 2.238-2.75.046-2.062-2.275-6.235-4.74-6.202 2.192-2.696 3.78-1.8 4.88 2.342 4.368 3.876.73 5.443 2.297 2.414 3.156-5.844-1.13-7.06 1.394-4.597 3.683.616 2.042.616 4.136 2.942 3.405 3.996-2.47 5.428 0 3.102 1.462-2.326 1.46-1.816 3.269 1.918 4.383 2.238 2.938 5.06 2.192 5.06-.73-.528-3.502 1.815-5.544 3.366-4.082 1.55 1.46 7.57 2.04 9.896 2.77 2.326.732 9.225 6.426 9.225 8.618-5.125-.176-8.225.948-10.023 2.067-.234 1.435-.46 2.546.173 4.613-5.057-2.558-7.247-1.32-8.657.02 1.116 1.023 2.922 4.719 3.696 6.105-2.83-1.183-3.754-2.063-5.016-1.49-.53 1.445.41 2.905.746 4.05-2.992-2.58-4.948-2.482-7.56-2.076 2.698 3.94 3.199 6.007 3.802 10.008-1.812-.81-3.773-.678-4.972-.752-.256 1.305-.621 3.3-.104 5.219-3.655-.904-5.972-1.823-4.828 2.689 0 2.192-.896 4.964 2.502 3.887 1.55 0 1.463 2.658-.864 2.658-6.02.414-7.45 2.109-4.372 5.627.879 4.18 2.91 5.213 4.46 1.944 1.552-2.192 5.868-4.295 4.652 0-2.797 4.294-4.628 7.968.777 7.306 4.876 1.243 4.844-1.597 3.453-4.617-.775-2.69 1.974-3.42 2.749-1.96-.28 2.788 1.486 4.815 3.949 1.877 3.078-3.601 4.117-5.71-.143-7.985-2.327-2.192 5.427-7.712 7.945-14.198 3.75-1.183 10.016-4.624 13.838-5.996 2.326 2.192 12.117 6.863 20.935 6.576 6.1-.196 7.754 2.364 8.53 4.556.775 2.192-2.294.046-3.174 1.989-1.32-1.621-3.598-1.56-4.565.565-3.43-3.76-8.28-5.751-6.851.18.709 3.025.258 5.146 2.375 5.296 13.2-2.004 12.367 5.868 8.353 6.862-4.482 1.064-11.713-4.668-10.68 3.517.486 3.845.32 2.44-1.23 3.172-1.552.73 1.815 3.819 4.14 3.819 3.733.082 4.86 1.694 6.57 4.15.583.365 8.578.162 11.536.474 3.826.728 13.069 3.654 17.367 2.745-1.17-2.788-2.5-2.584-3.233-4.4 3.025-.447 6.474-1.55 7.163-1.83-1.551-1.53-2.431-2.578-3.88-3.663 3.368-.715 4.194-.397 3.775-5.83-.07-3.742-.336-8.632-4.99-8.632-4.651 0 4.26-3.562 3.966-8.624-.3-3.95-.488-9.754 2.046-13.114 1.59-2.167 3.87-7.215.6-10.093a22.463 22.463 0 0 1-4.837 8.657c-1.133-1.481-2.115-4.54-.982-6.338 1.39-2.287 1.342-4.647 1.342-7.57 0-2.922-.91-5.087-.64-10.385-1.292.364-2.966 2.003-3.83 3.71-.435-1.947-1.785-2.932-2.43-8.427-2.968 2.332-3.82 5.084-3.62 6.742.072 5.144-.683 4.435-2.234 7.358-.438-1.401-.208-3.22.386-6.016-2.326 1.462-3.118 1.685.564-4.201 3.035-4.756 3.923-17.957 9.974-21.01 3.877-.731 5.668-4.068 7.994-5.53 2.326-1.46 6.722-.638 11.67-6.808 8.907-6.418 15.613-.607 10.664 8.42-1.512 2.683-7.578 6.675-8.353 9.597-4.382.27-8.578 2.199-7.594 7.555-5.086-.445-7.82 5.317-4.213 10.312-6.948 2.01-5.892 10.974 2.518 12.503.672 8.49 12.182 16.488 17.835 20.293 4.573 3.03 16.607 12.644 9.712 23.28-4.365 6.746-13.19 2.394-12.04-4.285.59-3.324 3.875-3.948 8.459-2.757.16-3.46-6.455-10.115-11.048-4.632.104-2.978-.551-7.171-6.363-8.798-3.877-1.462-3.853-4.053-3.013-7.985-7.147.173-10.52 6.652-8.97 11.036 1.55 4.383 6.49 4.436 6.49 6.628s-5.666 2.839-6.347 6.508c-.781 4.298.985 7.847 4.542 8.767-1.543-4.964 4.609-7.415 8.32-2.907 6.429 7.782 17.745 9.476 22.767 3.939 3.403-3.75 8.553-12.615 2.27-21.92-3.813-5.648-13.68-13.173-17.541-15.162-1.406-.802-6.235-4.42-6.261-6.505 3.34 2.234 6.034 2.156 8.3 3.033-.14-2.516-9.374-7.01-8.247-10.565 2.356 1.81 9.277 4.74 12.894 8.389 2.063-6.842-16.156-12.887-13.761-17.626 2.067 3.023 12.882 5.515 17.183 9.558-.273-4.356-3.685-8.911-10.096-12.535-7.38-3.954-5.62-8.038-3.588-9.547 1.343 6.04 9.606 7.687 14.675 13.84 1.11-3.126-1.823-8.194-5.38-12.163-3.47-3.39-3.31-6.064-.208-10.447 3.1-4.385 8.56-12.172 6.235-15.825-2.326-3.653 5.523 3.729 11.406-2.094 1.535-1.67 3.6-3.766 8.449-4.544-1.45-1.881-3.365-3.385-7.61-1.678-4.356 3.082-6.618 2.176-9.44.015-5.283-4.73-12.876-8.294-22.47-.415-3.877 3.654-5.514 6.387-10.048 6.328 2.326-5.115-.983-10.033-.983-13.685 0-3.655.104-6.328 6.307-7.06 6.203-.73 7.65-5.362 10.75-4.631 1.405.579 2.859.198 4.352.658.139-1.471.656-3.713-2.3-4.444-3.876-1.461-1.516-1.7.035-3.891.762-1.314.398-3.148.587-5.062-.128-2.35 2.15-3.734 4.625-4.066-1.73-2.026-5.16-2.52-7.566-.596 1.784-4.604-.7-5.482-3.801-3.29 2.615-3.775-2.057-4.235-5.934-2.773 1.84-2.103 3.959-4.315.403-5.678-3.646-3.601-3.581-.814-5.132 1.378-1.551 2.192-2.965-4.46-4.46-5.41-2.463-.284-3.294 3.286-6.396 4.017-1.782 1.145.952 1.973 2.046 2.922 1.359.949-.983 1.348-4.085-.113-3.101-1.461-4.236-1.182-3.197 2.983.952 4.994 2.334 3.533 5.363 2.057 3.119.678-4.851 2.839.439 6.23.535 2.286 2.2 4.563 5.088-.053 3.877-1.462 3.3 3.01 2.524 5.203-.775 2.192-7.37 5.943-8.953 9.197-2.208-5.285-4.598-8.238-10.962-9.78.64 2.807-.252 5.028 1.613 6.862 2.327 3.654-.731 5.11-.731 8.763-3.431 3.819-1.231 11.5-.336 15.56v.003z" fill="none" stroke="#000" stroke-width=".892"/><path d="M433.248 74.638c-.957-4.21-4.922-7.005-4.922-7.005M443.647 158.163c-3.482-3.65-5.01-4.695-7.022-7.218-1.932-2.357-2.365-6.751-.403-9.34M442.382 130.488c-1.915-1.805-2.554-5.113-2.554-5.715M440.783 122.67c-1.597-2.406-1.915-9.023-1.915-9.023M444.286 113.352c-3.83-3.308-3.192-7.82-3.192-7.82M448.442 100.855c-.648-.93 1.92-4.605 3.831-4.348M462.483 69.139c-3.83-1.805-5.753-2.445-9.576-.902M444.286 46.24c2.554-2.707 1.922-9.889-1.908-12.596-3.83-2.707-1.915-.6-1.915-.6M434.527 72.693c-1.915-5.414-6.838-8.378-6.838-8.378M433.943 66.125c-3.51-4.812-8.16-7.819-8.16-7.819M432.706 61.057c-2.234-3.31-5.015-5.156-5.015-5.156M433.123 57.404c-2.234-2.405-5.107-3.909-5.107-3.909M435.027 55.003c-1.596-2.106-2.872-4.512-2.872-4.512M390.668 66.432c2.554-3.61 6.703-3.008 6.384-6.016-.877-3.497.359-8.084 1.357-9.812M390.349 62.209c2.234-2.406 2.234-2.707 2.234-4.812 0-2.105 1.915-4.812 1.915-4.812M385.872 58.904c.958-1.805 3.511-4.512 3.511-4.512M379.492 56.197c1.275-1.203 3.191-2.406 3.191-2.406M392.587 165.38c1.915 2.104 6.745 3.093 8.342 1.59 1.596-1.504 6.66-6.704 6.66-6.704M407.906 117.56c-.319-3.91-3.192-12.03-3.192-12.03M409.81 115.157c-.319-4.51-3.192-11.128-3.192-11.128M411.728 110.936c-.318-4.513-2.554-8.724-2.554-8.724M413.967 105.52c-1.276-4.21-2.554-6.917-2.554-6.917M415.246 101.313c-.639-3.009-2.234-6.016-2.234-6.016M416.845 98.606c0-1.805-.958-3.91-.958-3.91M374.39 115.157c-.638-5.112-2.192-6.219-3.876-3.95.227-2.362-1.192-3.906-3.742-2.924-.64-.818-2.278-1.848-2.278-1.848M361.295 107.63c-.64-2.405-.958-5.714-3.512-5.112M345.336 145.22c2.553-.3 4.469-.3 4.469-.3M347.254 141.625l5.107-.602M350.451 138.306c3.512-1.805 5.746-.902 5.746-.902M353.635 134.695c2.554-1.203 5.427 0 5.427 0M358.43 130.488c3.832-.602 5.746 1.503 5.746 1.503M403.75 67.625c-1.597 5.113-8.619 11.129-8.619 11.129M398.968 67.625c-.64 3.91-7.661 10.828-7.661 10.828M395.45 68.833c-.319 2.406-7.34 8.723-7.34 8.723M393.213 69.43c-1.597 2.105-7.342 6.016-7.342 6.016M390.349 67.93c.319 2.106-2.873 3.31-2.873 3.31M413.008 72.139c-4.15-1.805-8.938.902-9.576 4.512-.638 3.608-7.341 4.81-7.341 4.81M410.589 177.076c1.437-1.417 3.183-1.375 4.786-1.088 1.605.288 5.999 2.448 6.542 2.774M417.164 171.395c1.597 1.804 6.703 2.105 6.703 2.105" fill="none" stroke="#666" stroke-width=".714"/><path d="M398.787 160.357c-3.83 1.503-6.838 2.319-10.668 2.018-3.83-.301-8.619 1.203-9.576 3.309-.958 2.105-3.193 5.714-6.065 6.015-1.437.15-3.584-.79-4.753-1.904 1.048-.596 1.96-2.344 2.757-3.848 2.02-3.622 7.103-11.091 13.806-7.482 2.554 1.504 7.342 1.174 9.257.873 1.915-.301 5.561.718 5.242 1.019" fill="#fff"/><path d="M398.787 160.357c-3.83 1.503-6.838 2.319-10.668 2.018-3.83-.301-8.619 1.203-9.576 3.309-.958 2.105-3.193 5.714-6.065 6.015-1.437.15-3.584-.79-4.753-1.904 1.048-.596 1.96-2.344 2.757-3.848 2.02-3.622 7.103-11.091 13.806-7.482 2.554 1.504 7.342 1.174 9.257.873 1.915-.301 5.561.718 5.242 1.019z" fill="none" stroke="#000" stroke-width=".714"/><path d="M353.065 163.703c4.63 6.503-1.912 14.065-4.785 14.365.639-2.105 2.873-5.413.319-9.023 2.235-2.406 3.19-4.102 4.466-5.304v-.038z" fill="#fff"/><path d="M353.065 163.703c4.63 6.503-1.912 14.065-4.785 14.365.639-2.105 2.873-5.413.319-9.023 2.235-2.406 3.19-4.102 4.466-5.304v-.038z" fill="none" stroke="#000" stroke-width=".714"/><path d="M343.765 172.416c-2.17 7.572-12.111 7.575-14.285 5.779 2.08-.976 6.18-1.653 7.285-5.864a96.605 96.605 0 0 1 7 .085" fill="#fff"/><path d="M343.765 172.416c-2.17 7.572-12.111 7.575-14.285 5.779 2.08-.976 6.18-1.653 7.285-5.864a96.605 96.605 0 0 1 7 .085z" fill="none" stroke="#000" stroke-width=".714"/><path d="M331.602 166.192c-9.122 2.712-12.523-2.081-13.113-4.747 2.285.4 5.992 2.183 9.563-.554 2.753 1.868 2.165 4.155 3.557 5.239l-.007.062z" fill="#fff"/><path d="M331.602 166.192c-9.122 2.712-12.523-2.081-13.113-4.747 2.285.4 5.992 2.183 9.563-.554 2.753 1.868 2.165 4.155 3.557 5.239l-.007.062z" fill="none" stroke="#000" stroke-width=".714"/><path d="M357.708 66.723c-6.568 4.818-15.149-.516-15.1-3.482 2.285.4 6.962 1.39 10.535-1.347 2.753 1.868 3.173 3.745 4.566 4.829h-.001z" fill="#fff"/><path d="M357.708 66.723c-6.568 4.818-15.149-.516-15.1-3.482 2.285.4 6.962 1.39 10.535-1.347 2.753 1.868 3.173 3.745 4.566 4.829h-.001z" fill="none" stroke="#000" stroke-width=".714"/><path d="M341.151 115.588c-5.29 6.056-14.348 2.197-15.543-.283 2.321-.082 6.353.894 9.202-2.514a93.327 93.327 0 0 1 6.34 2.797h.001z" fill="#fff"/><path d="M341.151 115.588c-5.29 6.056-14.348 2.197-15.543-.283 2.321-.082 6.353.894 9.202-2.514a93.327 93.327 0 0 1 6.34 2.797h.001z" fill="none" stroke="#000" stroke-width=".714"/><path d="M331.309 107.673c-9.795 3.658-11.903.007-12.947-2.532 2.324.042 6.75.533 9.8-2.716 3.04 1.42 1.79 3.913 3.147 5.248" fill="#fff"/><path d="M331.309 107.673c-9.795 3.658-11.903.007-12.947-2.532 2.324.042 6.75.533 9.8-2.716 3.04 1.42 1.79 3.913 3.147 5.248z" fill="none" stroke="#000" stroke-width=".714"/><path d="M328.223 95.744c-7.586-.902-8.111-6.756-7.251-9.356 1.79 1.395 4.11 4.651 8.644 3.895 1.442 2.894-2.05 3.877-1.393 5.461" fill="#fff"/><path d="M328.223 95.744c-7.586-.902-8.111-6.756-7.251-9.356 1.79 1.395 4.11 4.651 8.644 3.895 1.442 2.894-2.05 3.877-1.393 5.461z" fill="none" stroke="#000" stroke-width=".714"/><path d="M346.572 56.96c-8.225 1.203-10.025-5.853-9.166-8.454 1.791 1.396 4.43 3.148 8.963 2.392 1.442 2.893-.453 4.478.203 6.063" fill="#fff"/><path d="M346.572 56.96c-8.225 1.203-10.025-5.853-9.166-8.454 1.791 1.396 4.43 3.148 8.963 2.392 1.442 2.893-.453 4.478.203 6.063z" fill="none" stroke="#000" stroke-width=".714"/><path d="M351.174 43.741c-7.818-2.688-6.01-11.12-3.924-13.005.854 2.036 2.512 6.125 6.868 7.526-.22 3.191-2.708 3.792-2.944 5.48" fill="#fff"/><path d="M351.174 43.741c-7.818-2.688-6.01-11.12-3.924-13.005.854 2.036 2.512 6.125 6.868 7.526-.22 3.191-2.708 3.792-2.944 5.48z" fill="none" stroke="#000" stroke-width=".714"/><path d="M426.2 36.52c-7.234 3.88-11.878-1.445-12.055-4.163 2.201.705 4.564 2.145 8.516-.08 2.44 2.222 2.327 2.983 3.54 4.243" fill="#fff"/><path d="M426.2 36.52c-7.234 3.88-11.878-1.445-12.055-4.163 2.201.705 4.564 2.145 8.516-.08 2.44 2.222 2.327 2.983 3.54 4.243z" fill="none" stroke="#000" stroke-width=".714"/><path d="M420.084 28.855c-7.236 2.326-12.351-3.479-12.29-6.203 2.132.873 6.276 2.492 10.409.581 2.238 2.403.782 3.97 1.881 5.321l-.04.037.04.264z" fill="#fff"/><path d="M420.084 28.855c-7.236 2.326-12.351-3.479-12.29-6.203 2.132.873 6.276 2.492 10.409.581 2.238 2.403.782 3.97 1.881 5.321l-.04.037.04.264z" fill="none" stroke="#000" stroke-width=".714"/><path d="M424.907 19.857c-5.868-5.562-1.679-12.232 1.06-13.105-.147 2.185.011 6.01 3.325 9.021-1.636 2.801-3.41 2.65-4.385 4.084" fill="#fff"/><path d="M424.907 19.857c-5.868-5.562-1.679-12.232 1.06-13.105-.147 2.185.011 6.01 3.325 9.021-1.636 2.801-3.41 2.65-4.385 4.084z" fill="none" stroke="#000" stroke-width=".714"/><path d="M442.91 21.273c3.047-7.299-2.699-10.479-5.58-10.258 1.053 1.952 2.64 3.295.863 7.297 2.681 1.96 3.22 2.01 4.717 2.961" fill="#fff"/><path d="M442.91 21.273c3.047-7.299-2.699-10.479-5.58-10.258 1.053 1.952 2.64 3.295.863 7.297 2.681 1.96 3.22 2.01 4.717 2.961z" fill="none" stroke="#000" stroke-width=".714"/><path d="M370.706 39.312c-1.075-7.778-9.649-9.336-12.058-7.831 1.922 1.23 5 4.113 5.496 8.426 3.353.496 4.763-.746 6.562-.595" fill="#fff"/><path d="M370.706 39.312c-1.075-7.778-9.649-9.336-12.058-7.831 1.922 1.23 5 4.113 5.496 8.426 3.353.496 4.763-.746 6.562-.595z" fill="none" stroke="#000" stroke-width=".714"/><path d="M346.712 89.246c-1.074-7.777-9.33-7.23-11.738-5.726 1.923 1.23 3.973 1.216 4.469 5.53 3.353.494 5.47.044 7.27.196h-.001z" fill="#fff"/><path d="M346.712 89.246c-1.074-7.777-9.33-7.23-11.738-5.726 1.923 1.23 3.973 1.216 4.469 5.53 3.353.494 5.47.044 7.27.196h-.001z" fill="none" stroke="#000" stroke-width=".714"/><path d="M332.727 147.415c-8.193 1.384-9.055 10.715-7.343 12.911 1.212-1.869 2.28-5.659 6.829-6.333.366-3.178.44-4.878.514-6.579v.001z" fill="#fff"/><path d="M332.727 147.415c-8.193 1.384-9.055 10.715-7.343 12.911 1.212-1.869 2.28-5.659 6.829-6.333.366-3.178.44-4.878.514-6.579v.001zM397.34 177.034c-1.364-8.749 4.917-7.977 6.282-.515" fill="none" stroke="#000" stroke-width=".714"/><path d="M401.117 173.56c0-.863-.594-1.563-1.327-1.563-.734 0-1.327.7-1.327 1.563s.593 1.563 1.327 1.563c.733 0 1.327-.7 1.327-1.563"/><path d="M401.117 173.56c0-.863-.594-1.563-1.327-1.563-.734 0-1.327.7-1.327 1.563s.593 1.563 1.327 1.563c.733 0 1.327-.7 1.327-1.563z" fill="none" stroke="#000"/><path d="M382.69 102.215c.957-3.91 2.234-9.624 5.106-11.73 2.873-2.104 9.577-4.811 14.365-5.713 4.788-.903 8.937-4.211 10.533-7.22 1.597-3.007.639-7.218.639-7.218M384.287 140.416c-4.787-1.805-7.348-6.139-11.172-8.854-2.28-1.552-6.924-4.535-9.256-4.981 2.256-1.429 7.426-2.626 11.592-.548-1.488-6.138 2.174-6.07 2.133-15.693 2.443.271 5.107 5.414 5.746 8.121.64 2.707-.39 5.42.83 7.684-.035-2.389.781-4.352 2.377-6.758 1.596-2.407 1.9-4.836.942-7.242 3.984 3.119 3.132 9.52 3.076 13.568 1.947-1.783 2.378-7.934 1.073-12.065 1.823.528 3.702 1.606 4.608 6.682 1.463-2.324 3.177-9.963 2.415-11.795 2.714-.062 5.082 3.645 4.817 7.846.5-.383 1.861-1.782 2.36-2.277.57 1.602-.252 4.517-.057 6.765.614-.568 1.947-1.458 2.444-2.173.705-.649 2.363-2.796 4.797-3.778M417.484 153.65c4.15-2.406 8.22-6.241 8.22-18.271M413.967 148.234c4.469-3.309 6.064-7.219 5.427-12.03-.64-4.814-2.893-4.425-2.873-8.422-.043-1.756 1.917-4.616 3.192-6.317 1.467-1.899 2.29-5.065 1.855-6.779" fill="none" stroke="#000" stroke-width=".714"/><path d="M419.194 135.307c.32-3.91.047-6.001 1.476-8.422 1.282-2.016 2.551-8.976.7-13.077M410.77 136.209c2.873-3.609 0-4.512-.957-7.52-.958-3.007 2.134-4.528 3.482-8.097M407.267 138.916c.639-4.211 0-5.714-1.277-8.421-1.277-2.707-2.556-6.757-.331-9.64M402.15 131.085c-1.915-4.512-1.94-11.132 1.252-14.74M399.927 135.903c-4.15-3.609-5.263-11.188-3.524-15.905M387.791 131.695c-1.596-1.805-3.176-3.889-3.662-5.592M387.791 138.014c-1.596-2.707-5.342-5.005-8.215-6.208-2.873-1.203-4.234-5.822-4.234-5.822M418.43 167.786c3.19 2.707 7.66 3.008 7.66 3.008s1.597-4.211.319-6.316c-1.276-2.106-7.98-2.106-7.98-2.106M374.438 140.818c-1.108-.84-2.235-2.19-2.092-3.315 1.597 0 6.712-.447 6.712-.447M402.15 153.955c.64-3.007 1.597-6.316.64-8.422-.958-2.105 5.745 3.008 4.787 5.415-.958 2.405 2.553-1.203 1.595-3.91-.957-2.708 4.79 3.61 4.151 6.616-.639 3.008 1.915.903 1.915-1.804s2.872 3.61 2.234 5.113l-.638 1.504M375.611 123.253c-3.55-.515-8.04-1.544-10.227-3.345" fill="none" stroke="#000" stroke-width=".714"/><path d="M397.299 176.57c1.368-.512 4.786-1.024 5.982-.342" fill="none" stroke="#000" stroke-width=".625"/><path d="M67.721 234.156c8.818 3.486 13.16 8.763 13.626 16.214.3 4.478-4.176 9.732-8.967 9.853-14.968.404-19.972-23.97-19.882-29.92.632.001 3.746.064 4.518.034.683 3.757.097 8.36 4.88 12.242 4.782 3.882 6.896.924 7.494-1.465.598-2.389-2.208-7.2-1.669-6.958zM27.746 234.156c-8.818 3.486-13.159 8.763-13.626 16.214-.299 4.478 4.176 9.732 8.967 9.853 14.967.404 19.971-23.97 19.881-29.92-.632.001-3.745.064-4.517.034-.683 3.757-.097 8.361-4.879 12.242-4.783 3.882-6.897.924-7.495-1.465-.598-2.389 2.207-7.2 1.67-6.958z" fill="#ffd203"/><path d="M47.858 288.654c10.17-10.563 12.9-21.307 6.12-38.517-2.326-5.748-3.31-12.646-3.215-19.815-.984-.022-5.175.025-6.168.096.088 7.082-1.088 14.536-3.405 20.38-7.853 17.575-2.194 29.497 6.398 37.856h.27zM53.201 226.262c2.082-5.55 5.757-7.649 8.761-9.12-4.578-2.165-9.87.187-10.867 1.307.121-1.566.245-5.796-.327-8.652-.387-2.304-1.368-3.63-3.023-5.469-1.716 1.796-2.777 3.243-3.349 5.283-.695 2.963.04 7.165-.02 8.734-.795-.976-7.129-3.324-11.295-1.283 3.88 1.69 7.64 3.656 8.863 9.304.454-.028 10.113-.022 11.257-.022v-.082zM35.557 230.155h24.098v-3.581H35.557v3.581zM168.855 234.156c8.818 3.486 13.159 8.763 13.626 16.214.299 4.478-4.176 9.732-8.967 9.853-14.967.404-19.972-23.97-19.881-29.92.632.001 3.745.064 4.517.034.683 3.757.097 8.36 4.879 12.242 4.783 3.882 6.897.924 7.495-1.465.598-2.389-2.207-7.2-1.669-6.958zM128.88 234.156c-8.818 3.486-13.16 8.763-13.626 16.214-.3 4.478 4.176 9.732 8.967 9.853 14.968.404 19.972-23.97 19.882-29.92-.633.001-3.746.064-4.518.034-.683 3.757-.097 8.361-4.88 12.242-4.782 3.882-6.896.924-7.494-1.465-.598-2.389 2.208-7.2 1.669-6.958z" fill="#ffd203"/><path d="M148.992 288.654c10.17-10.563 12.901-21.307 6.12-38.517-2.326-5.748-3.31-12.646-3.215-19.815-.984-.022-5.175.025-6.168.096.087 7.082-1.088 14.536-3.406 20.38-7.852 17.575-2.193 29.497 6.398 37.856h.271zM154.335 226.262c2.082-5.55 5.757-7.649 8.761-9.12-4.578-2.165-9.87.187-10.866 1.307.121-1.566.245-5.796-.328-8.652-.387-2.304-1.367-3.63-3.023-5.469-1.716 1.796-2.777 3.243-3.349 5.283-.695 2.963.04 7.165-.021 8.734-.794-.976-7.127-3.324-11.294-1.283 3.88 1.69 7.64 3.656 8.863 9.304.454-.028 10.113-.022 11.257-.022v-.082zM136.691 230.155h24.098v-3.581h-24.098v3.581zM472.255 234.156c8.818 3.486 13.159 8.763 13.626 16.214.299 4.478-4.176 9.732-8.967 9.853-14.968.404-19.972-23.97-19.882-29.92.633.001 3.746.064 4.519.034.682 3.757.096 8.36 4.879 12.242 4.782 3.882 6.896.924 7.494-1.465.599-2.389-2.207-7.2-1.67-6.958zM432.28 234.156c-8.818 3.486-13.159 8.763-13.626 16.214-.299 4.478 4.176 9.732 8.967 9.853 14.967.404 19.971-23.97 19.881-29.92-.632.001-3.745.064-4.518.034-.682 3.757-.096 8.361-4.879 12.242-4.782 3.882-6.896.924-7.495-1.465-.598-2.389 2.208-7.2 1.67-6.958z" fill="#ffd203"/><path d="M452.392 288.654c10.17-10.563 12.9-21.307 6.12-38.517-2.325-5.748-3.31-12.646-3.215-19.815-.984-.022-5.175.025-6.168.096.088 7.082-1.088 14.536-3.405 20.38-7.853 17.575-2.193 29.497 6.398 37.856h.27zM457.735 226.262c2.082-5.55 5.757-7.649 8.761-9.12-4.578-2.165-9.87.187-10.867 1.307.121-1.566.245-5.796-.327-8.652-.387-2.304-1.368-3.63-3.023-5.469-1.716 1.796-2.777 3.243-3.35 5.283-.694 2.963.041 7.165-.02 8.734-.794-.976-7.127-3.324-11.294-1.283 3.88 1.69 7.64 3.656 8.863 9.304.453-.028 10.112-.022 11.257-.022v-.082zM440.091 230.155h24.099v-3.581h-24.099v3.581zM269.988 234.156c8.818 3.486 13.158 8.763 13.626 16.214.3 4.478-4.177 9.732-8.968 9.853-14.967.404-19.97-23.97-19.88-29.92.631.001 3.744.064 4.517.034.682 3.757.097 8.36 4.88 12.242 4.782 3.882 6.895.924 7.494-1.465.598-2.389-2.208-7.2-1.669-6.958zM230.013 234.156c-8.818 3.486-13.159 8.763-13.626 16.214-.299 4.478 4.176 9.732 8.967 9.853 14.967.404 19.971-23.97 19.881-29.92-.632.001-3.745.064-4.517.034-.683 3.757-.097 8.361-4.879 12.242-4.783 3.882-6.897.924-7.495-1.465-.598-2.389 2.207-7.2 1.67-6.958z" fill="#ffd203"/><path d="M250.125 288.654c10.17-10.563 12.9-21.307 6.12-38.517-2.326-5.748-3.31-12.646-3.215-19.815-.984-.022-5.175.025-6.168.096.088 7.082-1.088 14.536-3.405 20.38-7.853 17.575-2.194 29.497 6.398 37.856h.27zM255.468 226.262c2.083-5.55 5.757-7.649 8.762-9.12-4.58-2.165-9.871.187-10.867 1.307.12-1.566.245-5.796-.328-8.652-.386-2.304-1.367-3.63-3.023-5.469-1.715 1.796-2.777 3.243-3.35 5.283-.694 2.963.042 7.165-.02 8.734-.794-.976-7.127-3.324-11.294-1.283 3.88 1.69 7.64 3.656 8.863 9.304.454-.028 10.113-.022 11.258-.022v-.082h-.001zM237.824 230.155h24.098v-3.581h-24.098v3.581zM371.122 234.156c8.818 3.486 13.16 8.763 13.626 16.214.3 4.478-4.176 9.732-8.967 9.853-14.968.404-19.972-23.97-19.88-29.92.63.001 3.743.064 4.517.034.682 3.757.096 8.36 4.88 12.242 4.781 3.882 6.895.924 7.493-1.465.598-2.389-2.207-7.2-1.669-6.958zM331.147 234.156c-8.818 3.486-13.158 8.763-13.625 16.214-.3 4.478 4.176 9.732 8.967 9.853 14.967.404 19.97-23.97 19.88-29.92-.632.001-3.745.064-4.518.034-.681 3.757-.095 8.361-4.878 12.242-4.783 3.882-6.896.924-7.494-1.465-.6-2.389 2.207-7.2 1.668-6.958z" fill="#ffd203"/><path d="M351.259 288.654c10.17-10.563 12.9-21.307 6.12-38.517-2.326-5.748-3.31-12.646-3.215-19.815-.984-.022-5.175.025-6.168.096.088 7.082-1.088 14.536-3.406 20.38-7.852 17.575-2.192 29.497 6.398 37.856h.271zM356.602 226.262c2.082-5.55 5.758-7.649 8.762-9.12-4.578-2.165-9.871.187-10.867 1.307.12-1.566.245-5.796-.327-8.652-.387-2.304-1.368-3.63-3.023-5.469-1.717 1.796-2.777 3.243-3.35 5.283-.695 2.963.04 7.165-.021 8.734-.793-.976-7.127-3.324-11.293-1.283 3.879 1.69 7.639 3.656 8.863 9.304.453-.028 10.112-.022 11.256-.022v-.082zM338.958 230.155h24.099v-3.581h-24.099v3.581z" fill="#ffd203"/><path d="M88.186 133.725c5.045-3.965 14.046-7.09 7.92-14.297 5.407-.72 7.576 4.567 7.576 8.53 0 3.963-15.136 5.407-15.496 5.767" fill="#ed2939"/><path d="M88.186 133.725c5.045-3.965 14.046-7.09 7.92-14.297 5.407-.72 7.576 4.567 7.576 8.53 0 3.963-15.136 5.407-15.496 5.767z" fill="none" stroke="#000" stroke-width=".625"/><path d="M94.415 49.781c60.18 20.252 38.848 90.094-12.811 83.481-3.994-.39-7.054-1.068-9.918-2.892-4.547-2.117-11.778-2.786-12.812-.413.749 1.546 4.739 3.013 4.545 5.372-3.407 1.628-8.944 3.622-7.852 9.918 9.85-1.774 12.813 5.786 12.399 9.92-.413 2.771-2.893 9.918 15.704 16.531 33.06 7.438 76.043-4.546 82.657-61.165 2.48-38.848-28.105-52.486-36.37-58.686-8.264-6.199-17.77-10.746-22.316-23.969-1.653 11.57-7.852 17.77-13.226 21.903" fill="#002395"/><path d="M94.415 49.781c60.18 20.252 38.848 90.094-12.811 83.481-3.994-.39-7.054-1.068-9.918-2.892-4.547-2.117-11.778-2.786-12.812-.413.749 1.546 4.739 3.013 4.545 5.372-3.407 1.628-8.944 3.622-7.852 9.918 9.85-1.774 12.813 5.786 12.399 9.92-.413 2.771-2.893 9.918 15.704 16.531 33.06 7.438 76.043-4.546 82.657-61.165 2.48-38.848-28.105-52.486-36.37-58.686-8.264-6.199-17.77-10.746-22.316-23.969-1.653 11.57-7.852 17.77-13.226 21.903z" fill="none" stroke="#000" stroke-width=".625"/><path d="M67.647 151.02c2.882-2.522 7.567-4.678 11.891 2.882 4.325 6.127 10.47.36 10.47.36M83.865 147.862c5.765-10.097 18.794-10.045 32.919-8.646" fill="none" stroke="#000" stroke-width=".625"/><path d="M119.542 144.042c42.315-11.529 37.025-62.338 9.822-82.155" fill="none" stroke="#000" stroke-width="1.92"/><path d="M116.293 51.567c-17.657-4.323-35.314-1.44-48.647 21.98-4.683 8.65-15.553 8.01-16.175 2.29 7.19 6.21 10.672-5.018 9.857-9.255-8.562-.124-10.624-2.853-14.678-5.956 2.94-.037 8.149 2.338 14.872-6.537 7.866-9.823 18.738-10.529 22.34-10.529 4.325-.359 6.003-1.14 11.288.981-3.043-4.323-14.65-6.182-20.295-2.107-1.547-6 3.71-4.543 13.692-9.603 7.012-4.087 12.019-11.205 19.458-14.414 7.43-3.056 12.819-2.556 20.385 3.928-16.576-3.6-27.231 4.36-12.097 29.222" fill="#ed2939"/><path d="M116.293 51.567c-17.657-4.323-35.314-1.44-48.647 21.98-4.683 8.65-15.553 8.01-16.175 2.29 7.19 6.21 10.672-5.018 9.857-9.255-8.562-.124-10.624-2.853-14.678-5.956 2.94-.037 8.149 2.338 14.872-6.537 7.866-9.823 18.738-10.529 22.34-10.529 4.325-.359 6.003-1.14 11.288.981-3.043-4.323-14.65-6.182-20.295-2.107-1.547-6 3.71-4.543 13.692-9.603 7.012-4.087 12.019-11.205 19.458-14.414 7.43-3.056 12.819-2.556 20.385 3.928-16.576-3.6-27.231 4.36-12.097 29.222z" fill="none" stroke="#000" stroke-width=".625"/><path d="M155.569 73.548c-4.324-11.17-9.785-23.552-1.858-31.84-10.45-.361-17.967 10.33-17.967 14.295 3.964 2.523 15.5 11.059 19.825 17.545" fill="#ed2939"/><path d="M155.569 73.548c-4.324-11.17-9.785-23.552-1.858-31.84-10.45-.361-17.967 10.33-17.967 14.295 3.964 2.523 15.5 11.059 19.825 17.545z" fill="none" stroke="#000" stroke-width=".625"/><path d="M131.066 89.402c-5.044-13.33-10.464-16.214-21.273-16.214 5.764-2.882 8.661-3.604 6.86-10.809 7.206 6.124 14.413 17.656 14.413 27.023" fill="#ed2939"/><path d="M131.066 89.402c-5.044-13.33-10.464-16.214-21.273-16.214 5.764-2.882 8.661-3.604 6.86-10.809 7.206 6.124 14.413 17.656 14.413 27.023zM124.58 159.307c2.522-1.8 3.243-4.323 2.883-9.008 3.964 6.486 8.648 6.847 12.25 2.883.36 4.324 5.047 4.684 8.289 2.162M108.725 132.643c11.53-1.441 19.458-10.45 21.62-15.134" fill="none" stroke="#000" stroke-width=".625"/><path d="M128.544 169.037c7.205.72 15.985 1.212 22.701 6.846-1.442-5.405-7.082-7.686-8.885-10.928 2.163-.36 7.443-.603 8.885.118 3.603.72 8.287 3.243 12.971 5.044 4.683 1.802 8.656 3.362 12.258.48-7.567-.722-14.897-6.855-10.456-13.813-5.765 1.082-12.003-2.652-11.643-10.58-3.242 7.206-20.788 21.752-25.47 22.472l-.36.361z" fill="#ed2939"/><path d="M128.544 169.037c7.205.72 15.985 1.212 22.701 6.846-1.442-5.405-7.082-7.686-8.885-10.928 2.163-.36 7.443-.603 8.885.118 3.603.72 8.287 3.243 12.971 5.044 4.683 1.802 8.656 3.362 12.258.48-7.567-.722-14.897-6.855-10.456-13.813-5.765 1.082-12.003-2.652-11.643-10.58-3.242 7.206-20.788 21.752-25.47 22.472l-.36.361z" fill="none" stroke="#000" stroke-width=".625"/><path d="M162.414 128.68c5.046-7.206 13.334-16.576 16.216-17.655-7.567-1.444-9.723-6.377-4.325-16.576-3.963 3.603-5.764 5.044-8.287 2.522 2.162 5.764-3.963 32.068-3.604 31.709" fill="#ed2939"/><path d="M162.414 128.68c5.046-7.206 13.334-16.576 16.216-17.655-7.567-1.444-9.723-6.377-4.325-16.576-3.963 3.603-5.764 5.044-8.287 2.522 2.162 5.764-3.963 32.068-3.604 31.709z" fill="none" stroke="#000" stroke-width=".625"/><path d="M63.917 136.056c15.6 8.628 19.65-1.128-.065-1.885-.34.529-.125 1.205-.125 1.567l.19.318z" fill="#ffd203"/><path d="M63.917 136.056c15.6 8.628 19.65-1.128-.065-1.885-.34.529-.125 1.205-.125 1.567l.19.318z" fill="none" stroke="#000" stroke-width=".625"/><path d="M88.546 141.651c6.487-4.685 15.854-3.963 20.9-3.604 5.044.361-1.08-2.162-1.08-5.404s.933-4.782 2.161-7.567c1.42-3.216.846-8.059-3.722-10.699 2.28 7.082-5.288 13.581-8.169 15.744-3.415 2.135-10.09 11.89-10.09 11.53" fill="#ed2939"/><path d="M88.546 141.651c6.487-4.685 15.854-3.963 20.9-3.604 5.044.361-1.08-2.162-1.08-5.404s.933-4.782 2.161-7.567c1.42-3.216.846-8.059-3.722-10.699 2.28 7.082-5.288 13.581-8.169 15.744-3.415 2.135-10.09 11.89-10.09 11.53z" fill="none" stroke="#000" stroke-width=".625"/><path d="M85.048 150.12c0 1.37-1.177 2.48-2.628 2.48-1.45 0-2.625-1.11-2.625-2.48 0-1.37 1.175-2.482 2.625-2.482s2.628 1.111 2.628 2.481" fill="#fff"/><path d="M61.477 68.352c.7-2.165 1.92-2.951 3.514-5.23-2.112.48-4.415 2.588-5.57 2.945M93.6 29.226c3.299.692 3.218 1.365 3.998 1.87-.15-1.14-2.227-1.702-1.28-4.311M74.855 139.573c2.579.848 5.16-1.13 6.504-2.479 1.723-1.644 5.106-2.9 7.529-3.457" fill="none" stroke="#000" stroke-width=".625"/><path d="M104.43 173.272c5.766 2.884 8.862 5.28 9.941 7.44 1.082-2.521-.72-5.043-.72-7.204 4.323 0 11.171 3.241 12.612 4.682 3.244-2.522 1.293-8.03.466-9.687" fill="#002395" stroke="#000" stroke-width=".625"/><path d="M141.306 160.416c5.606-2.038 7.18-.923 11.257.605-2.548-4.077-5.096-4.585-8.663-3.567" fill="none" stroke="#000" stroke-width=".75"/><path d="M220.54 127.742a938.764 938.764 0 0 1-.098-20.207c.018-3.105.051-6.207.097-9.31.142-9.479.615-16.877 4.861-22.66 5.116-6.968 13.638-11.997 24.6-16.936 10.962 4.94 19.484 9.968 24.601 16.935 4.246 5.784 4.717 13.182 4.86 22.66a961.77 961.77 0 0 1 0 29.518H220.54z" fill="#ed2939"/><path d="M220.674 100.928l24.176-.045v26.859l10.023-.002v-26.86h24.403l-.004-9.515-24.4-.047V60.917l-4.896-2.288-5.126 2.426V91.32l-24.176.045v9.563z" fill="#fff"/><path d="M220.674 100.928l24.176-.045v26.859l10.023-.002v-26.86h24.403l-.004-9.515-24.4-.047V60.917l-4.896-2.288-5.126 2.426V91.32l-24.176.045v9.563z" fill="none" stroke="#fff"/><path d="M220.54 127.742a938.764 938.764 0 0 1-.098-20.207c.018-3.105.051-6.207.097-9.31.142-9.479.615-16.877 4.861-22.66 5.116-6.968 13.638-11.997 24.6-16.936 10.962 4.94 19.484 9.968 24.601 16.935 4.246 5.784 4.717 13.182 4.86 22.66a961.77 961.77 0 0 1 0 29.518H220.54z" fill="none" stroke="#000"/></g></svg>