<svg xmlns="http://www.w3.org/2000/svg" width="600" height="400" version="1"><path fill="#e20909" d="M0 0h600v400H0z"/><g fill="none" stroke="#ffda00" stroke-width="10"><path d="M250.578 106.26c-3.992 2.122-7.254 4.115-10.958 6.708l10.958-6.709zm-15.43 10.018c-3.563 2.783-6.42 5.3-9.617 8.498l9.617-8.498zM307.29 324.61c39.277-2.297 76.91-22.762 99.65-58.456 37.613-59.042 20.264-137.488-38.778-175.102l-11.584 19.367c49.026 31.233 63.48 96.377 32.248 145.403-18.64 29.26-49.376 46.218-81.536 48.483"/><path d="M240.47 85.998c-20.26 10.773-35.08 24.48-47.41 43.832-37.613 59.042-20.264 137.487 38.778 175.101 18.952 12.074 39.913 18.5 60.872 19.68"/><path d="M292.71 304.305c-16.986-1.16-33.927-6.45-49.288-16.235-49.026-31.233-63.48-96.378-32.248-145.404 2.258-3.543 4.334-6.441 6.978-9.705l-24.8-20.914m113.903 31.032c14.439 0 26.47-9.636 27.378-17.593.908-7.958-9.307-14.238-25.867-3.924V85.13c.63-7.193 20.695-12.628 22.993-4.942 7.667 25.638-61.195 25.224-64.56 50.855-1.618 12.33 23.755 11.133 23.755-5.225V88.477m-.415 14.871c-36.742 0-27.416-17.135-8.755-23.741m6.038-1.852c3.714-1.362 9.43-3.102 12.994-3.578m81.032 58.783 18.6-15.685"/></g></svg>