<svg xmlns="http://www.w3.org/2000/svg" height="480" width="720" xmlns:cgf="https://coding.garden/flags"><metadata id="cgf-metadata">

<cgf:flag>
  <cgf:name>Chicago</cgf:name>
  <cgf:route>us/il/chicago</cgf:route>
  <cgf:aspect-ratio>1.5</cgf:aspect-ratio>
</cgf:flag>

</metadata><path d="M0 0h720v480H0z" fill="#fff"></path><path d="m150 180 11 41 41-11-30 30 30 30-41-11-11 41-11-41-41 11 30-30-30-30 41 11zm140 0 11 41 41-11-30 30 30 30-41-11-11 41-11-41-41 11 30-30-30-30 41 11zm140 0 11 41 41-11-30 30 30 30-41-11-11 41-11-41-41 11 30-30-30-30 41 11zm140 0 11 41 41-11-30 30 30 30-41-11-11 41-11-41-41 11 30-30-30-30 41 11z" fill="red"></path><path d="M0 80h720v80H0v160h720v80H0z" fill="#b3ddf2"></path></svg>