<svg xmlns="http://www.w3.org/2000/svg" width="625" height="375" shape-rendering="geometricPrecision" text-rendering="geometricPrecision" image-rendering="optimizeQuality" fill-rule="evenodd" viewBox="0 0 626 376"><path fill="#160055" d="M0 0h626v376H0V0z"/><text x="313" y="188" fill="#EFC53D" font-size="50" font-family="Arial" transform="matrix(.91053 0 0 1 -223.749 164.831)">SPRINGFIELD ILLINOIS</text><path fill="#C70102" stroke="#FFF" stroke-width="4" d="M175 93l13 39h41l-33 24 12 40-33-25-33 25 12-40-33-24h41l13-39zm-6 19"/><path fill="#FFF" d="M175 24l3 10h11l-9 7 4 10-9-6-9 6 4-10-9-7h11l3-10zm-2 5M140 31l3 10h11l-9 7 3 10-8-6-9 6 3-10-8-7h11l3-10zm-2 5M85 72l4 10h10l-8 6 3 11-9-7-8 7 3-11-9-6h11l3-10zm-1 5M68 102l3 11h11l-9 6 4 10-9-6-9 6 4-10-9-6h11l3-11zm-2 6M64 137l4 11h10l-8 6 3 10-9-6-8 6 3-10-9-6h11l3-11zm-1 5M69 170l3 10h11l-9 7 3 10-8-6-9 6 3-10-8-7h10l4-10zm-2 5M85 203l4 10h10l-8 6 3 10-9-6-8 6 3-10-9-6h11l3-10zm-1 5M110 228l3 10h11l-9 7 3 10-8-7-9 7 3-10-8-7h10l4-10zm-2 5M141 242l3 11h11l-9 6 4 10-9-6-9 6 4-10-9-6h11l3-11zm-2 6M176 249l3 10h11l-9 6 3 11-8-7-9 7 3-11-8-6h10l4-10zm-2 5M211 242l3 10h11l-9 6 4 11-9-7-9 7 4-11-9-6h11l3-10zm-2 5M240 229l4 10h10l-8 6 3 10-9-6-8 6 3-10-9-6h11l3-10zm-1 5M265 201l3 10h11l-9 7 4 10-9-7-9 7 4-10-9-7h11l3-10zm-2 5M280 170l3 11h11l-9 6 4 10-9-6-9 6 4-10-9-6h11l3-11zm-2 5M285 136l3 10h11l-9 6 3 10-8-6-9 6 3-10-8-6h10l4-10zm-2 5M281 103l3 10h11l-9 7 4 10-9-6-9 6 4-10-9-7h11l3-10zm-2 5M266 71l3 10h11l-9 6 4 10-9-6-9 6 4-10-9-6h11l3-10zm-2 5M241 46l3 10h11l-9 6 4 10-9-6-9 6 4-10-9-6h11l3-10zm-2 5M210 30l3 10h11l-9 6 3 10-8-6-9 6 3-10-8-6h10l4-10zm-2 5M110 47l4 10h10l-8 7 3 10-9-7-8 7 3-10-9-7h11l3-10zm-1 5"/></svg>