<svg xmlns="http://www.w3.org/2000/svg" width="650" height="337" viewBox="0 0 650 338" shape-rendering="geometricPrecision" text-rendering="geometricPrecision" image-rendering="optimizeQuality" fill-rule="evenodd" xmlns:cgf="https://coding.garden/flags"><metadata id="cgf-metadata">

<cgf:flag>
  <cgf:name>Des Moines</cgf:name>
  <cgf:route>us/ia/des_moines</cgf:route>
  <cgf:aspect-ratio>1.9287833827893175</cgf:aspect-ratio>
</cgf:flag>

</metadata><path d="M0 0h650v338H0V0z" fill="#160057"></path><path d="M650 58c-17 10-28 30-28 51h-39c0-33-27-61-59-61-33 0-60 28-60 61h-39c0-33-26-61-59-61s-59 28-59 61h-39c0-33-27-61-59-61-33 0-60 28-60 61h-39V33h540v25zm0 91c-29 3-53 29-53 60h-38c0-33-27-60-60-60-32 0-59 27-59 60h-39c0-33-27-60-59-60-33 0-60 27-60 60h-38c0-33-27-60-60-60-32 0-59 27-59 60H86v-76h564v16zm0 107c-6-3-13-4-20-4-33 0-59 28-59 60h-39c0-32-27-60-59-60-33 0-60 28-60 60h-39c0-32-26-60-59-60s-59 28-59 60h-39c0-32-27-60-59-60-33 0-60 28-60 60H59v-80h591v24z" style="fill:#fff"></path><path d="M0 0h146L61 338H0V0z" fill="#c70100"></path></svg>